<?xml version="1.0" encoding="UTF-8"?>
<svg height="800.0" width="700.0" xmlns="http://www.w3.org/2000/svg">
 <svg>
  <g>
   <g>
    <g>
     <circle stroke="black" stroke-width="0.5" fill="#aaffff" cx="51.0" cy="608.0" r="1.0"/>
     <text stroke="none" x="51.0" y="608.0" font-size="10.0" font-family="helvetica">NT1.1</text>
    </g>
    <g>
     <circle stroke="black" stroke-width="0.5" fill="#aaffff" cx="57.0" cy="534.0" r="1.0"/>
     <text stroke="none" x="57.0" y="534.0" font-size="10.0" font-family="helvetica">NT1.2</text>
    </g>
    <g>
     <circle stroke="black" stroke-width="0.5" fill="#aaffff" cx="61.0" cy="684.0" r="1.0"/>
     <text stroke="none" x="61.0" y="684.0" font-size="10.0" font-family="helvetica">NT1.3</text>
    </g>
    <g>
     <circle stroke="black" stroke-width="0.5" fill="#aaffff" cx="63.0" cy="202.0" r="1.0"/>
     <text stroke="none" x="63.0" y="202.0" font-size="10.0" font-family="helvetica">NT1.4</text>
    </g>
    <g>
     <circle stroke="black" stroke-width="0.5" fill="#aaffff" cx="64.0" cy="448.0" r="1.0"/>
     <text stroke="none" x="64.0" y="448.0" font-size="10.0" font-family="helvetica">NT1.5</text>
    </g>
    <g>
     <circle stroke="black" stroke-width="0.5" fill="#aaffff" cx="77.0" cy="516.0" r="1.0"/>
     <text stroke="none" x="77.0" y="516.0" font-size="10.0" font-family="helvetica">NT1.6</text>
    </g>
    <g>
     <circle stroke="black" stroke-width="0.5" fill="#aaffff" cx="86.0" cy="127.0" r="1.0"/>
     <text stroke="none" x="86.0" y="127.0" font-size="10.0" font-family="helvetica">NT1.7</text>
    </g>
    <g>
     <circle stroke="black" stroke-width="0.5" fill="#aaffff" cx="86.0" cy="379.0" r="1.0"/>
     <text stroke="none" x="86.0" y="379.0" font-size="10.0" font-family="helvetica">NT1.8</text>
    </g>
    <g>
     <circle stroke="black" stroke-width="0.5" fill="#aaffff" cx="89.0" cy="553.0" r="1.0"/>
     <text stroke="none" x="89.0" y="553.0" font-size="10.0" font-family="helvetica">NT1.9</text>
    </g>
    <g>
     <circle stroke="black" stroke-width="0.5" fill="#aaffff" cx="98.0" cy="349.0" r="1.0"/>
     <text stroke="none" x="98.0" y="349.0" font-size="10.0" font-family="helvetica">NT1.10</text>
    </g>
    <g>
     <circle stroke="black" stroke-width="0.5" fill="#aaffff" cx="102.0" cy="618.0" r="1.0"/>
     <text stroke="none" x="102.0" y="618.0" font-size="10.0" font-family="helvetica">NT1.11</text>
    </g>
    <g>
     <circle stroke="black" stroke-width="0.5" fill="#aaffff" cx="105.0" cy="172.0" r="1.0"/>
     <text stroke="none" x="105.0" y="172.0" font-size="10.0" font-family="helvetica">NT1.12</text>
    </g>
    <g>
     <circle stroke="black" stroke-width="0.5" fill="#aaffff" cx="108.0" cy="62.0" r="1.0"/>
     <text stroke="none" x="108.0" y="62.0" font-size="10.0" font-family="helvetica">NT1.13</text>
    </g>
    <g>
     <circle stroke="black" stroke-width="0.5" fill="#aaffff" cx="110.0" cy="481.0" r="1.0"/>
     <text stroke="none" x="110.0" y="481.0" font-size="10.0" font-family="helvetica">NT1.14</text>
    </g>
    <g>
     <circle stroke="black" stroke-width="0.5" fill="#aaffff" cx="134.0" cy="324.0" r="1.0"/>
     <text stroke="none" x="134.0" y="324.0" font-size="10.0" font-family="helvetica">NT1.15</text>
    </g>
    <g>
     <circle stroke="black" stroke-width="0.5" fill="#aaffff" cx="137.0" cy="200.0" r="1.0"/>
     <text stroke="none" x="137.0" y="200.0" font-size="10.0" font-family="helvetica">NT1.16</text>
    </g>
    <g>
     <circle stroke="black" stroke-width="0.5" fill="#aaffff" cx="141.0" cy="30.0" r="1.0"/>
     <text stroke="none" x="141.0" y="30.0" font-size="20.0" font-family="helvetica">56</text>
    </g>
    <g>
     <circle stroke="black" stroke-width="0.5" fill="#aaffff" cx="147.0" cy="457.0" r="1.0"/>
     <text stroke="none" x="147.0" y="457.0" font-size="10.0" font-family="helvetica">NT1.18</text>
    </g>
    <g>
     <circle stroke="black" stroke-width="0.5" fill="#aaffff" cx="156.0" cy="225.0" r="1.0"/>
     <text stroke="none" x="156.0" y="225.0" font-size="10.0" font-family="helvetica">NT1.19</text>
    </g>
    <g>
     <circle stroke="black" stroke-width="0.5" fill="#aaffff" cx="208.0" cy="537.0" r="1.0"/>
     <text stroke="none" x="208.0" y="537.0" font-size="20.0" font-family="helvetica">1PaenibacilIus telIuris' LMG 23881</text>
    </g>
    <g>
     <circle stroke="black" stroke-width="0.5" fill="#aaffff" cx="211.0" cy="439.0" r="1.0"/>
     <text stroke="none" x="211.0" y="439.0" font-size="20.0" font-family="helvetica">Paenibacillus agaridevorans DSM 13557 (AJ345023)</text>
    </g>
    <g>
     <circle stroke="black" stroke-width="0.5" fill="#aaffff" cx="216.0" cy="471.0" r="1.0"/>
     <text stroke="none" x="216.0" y="471.0" font-size="20.0" font-family="helvetica">Paenibacillus nanensis MX2-ST (AB265206)</text>
    </g>
    <g>
     <circle stroke="black" stroke-width="0.5" fill="#aaffff" cx="219.0" cy="505.0" r="1.0"/>
     <text stroke="none" x="219.0" y="505.0" font-size="20.0" font-family="helvetica">Paenibacillus alkaliterrae KSL-134T (AY960748)</text>
    </g>
    <g>
     <circle stroke="black" stroke-width="0.5" fill="#aaffff" cx="220.0" cy="143.0" r="1.0"/>
     <text stroke="none" x="220.0" y="143.0" font-size="20.0" font-family="helvetica">Cohnellayongneupensis 5YN1O-14T (EF368008)</text>
    </g>
    <g>
     <circle stroke="black" stroke-width="0.5" fill="#aaffff" cx="226.0" cy="603.0" r="1.0"/>
     <text stroke="none" x="226.0" y="603.0" font-size="20.0" font-family="helvetica">Paenibacillus phyllosphaerae PALXIL04T (AY59881 8)</text>
    </g>
    <g>
     <circle stroke="black" stroke-width="0.5" fill="#aaffff" cx="226.0" cy="406.0" r="1.0"/>
     <text stroke="none" x="226.0" y="406.0" font-size="20.0" font-family="helvetica">Paenibacillus popilliae ATCC 1 47O6T (ABO731 98)</text>
    </g>
    <g>
     <circle stroke="black" stroke-width="0.5" fill="#aaffff" cx="226.0" cy="308.0" r="1.0"/>
     <text stroke="none" x="226.0" y="308.0" font-size="20.0" font-family="helvetica">Paenibacillus campinasensis JCM 1 12O0T (ABO73187)</text>
    </g>
    <g>
     <circle stroke="black" stroke-width="0.5" fill="#aaffff" cx="229.0" cy="12.0" r="1.0"/>
     <text stroke="none" x="229.0" y="12.0" font-size="20.0" font-family="helvetica">Cohnella ginsengisoIiGR21-5T (EF368010)</text>
    </g>
    <g>
     <circle stroke="black" stroke-width="0.5" fill="#aaffff" cx="230.0" cy="275.0" r="1.0"/>
     <text stroke="none" x="230.0" y="275.0" font-size="20.0" font-family="helvetica">Cohnella fontinalis YT-1 101T (AB362828)</text>
    </g>
    <g>
     <circle stroke="black" stroke-width="0.5" fill="#aaffff" cx="230.0" cy="668.0" r="1.0"/>
     <text stroke="none" x="230.0" y="668.0" font-size="20.0" font-family="helvetica">Paenibacillus daejeonensis AP-2OT (AF290916)</text>
    </g>
    <g>
     <circle stroke="black" stroke-width="0.5" fill="#aaffff" cx="232.0" cy="374.0" r="1.0"/>
     <text stroke="none" x="232.0" y="374.0" font-size="20.0" font-family="helvetica">Paenibacillus konsidensis LBYT (EU081 509)</text>
    </g>
    <g>
     <circle stroke="black" stroke-width="0.5" fill="#aaffff" cx="236.0" cy="636.0" r="1.0"/>
     <text stroke="none" x="236.0" y="636.0" font-size="20.0" font-family="helvetica">Paenibacillus sepulcri COM 731 1T (DQ291142)</text>
    </g>
    <g>
     <circle stroke="black" stroke-width="0.5" fill="#aaffff" cx="240.0" cy="177.0" r="1.0"/>
     <text stroke="none" x="240.0" y="177.0" font-size="20.0" font-family="helvetica">Cohnella hongkongensis HKUST (AF4331 65)</text>
    </g>
    <g>
     <circle stroke="black" stroke-width="0.5" fill="#aaffff" cx="243.0" cy="242.0" r="1.0"/>
     <text stroke="none" x="243.0" y="242.0" font-size="20.0" font-family="helvetica">Cohnella phaseoIiGSPC1T (EUO14872)</text>
    </g>
    <g>
     <circle stroke="black" stroke-width="0.5" fill="#aaffff" cx="246.0" cy="209.0" r="1.0"/>
     <text stroke="none" x="246.0" y="209.0" font-size="20.0" font-family="helvetica">Cohnella luojiensis HY-22RT (GO214052)</text>
    </g>
    <g>
     <circle stroke="black" stroke-width="0.5" fill="#aaffff" cx="247.0" cy="111.0" r="1.0"/>
     <text stroke="none" x="247.0" y="111.0" font-size="20.0" font-family="helvetica">Cohnella laeviribosi RI-397 (DQ459874)</text>
    </g>
    <g>
     <circle stroke="black" stroke-width="0.5" fill="#aaffff" cx="250.0" cy="78.0" r="1.0"/>
     <text stroke="none" x="250.0" y="78.0" font-size="20.0" font-family="helvetica">Cohnella thermotolerans CCUG 47242T(AJ971483)</text>
    </g>
    <g>
     <circle stroke="black" stroke-width="0.5" fill="#aaffff" cx="254.0" cy="702.0" r="1.0"/>
     <text stroke="none" x="254.0" y="702.0" font-size="20.0" font-family="helvetica">Paenibacillus ginsengarvi Gsoil 139T (AB271 O57)</text>
    </g>
    <g>
     <circle stroke="black" stroke-width="0.5" fill="#aaffff" cx="256.0" cy="570.0" r="1.0"/>
     <text stroke="none" x="256.0" y="570.0" font-size="20.0" font-family="helvetica">1Paenibacillus panaciterrae' Gsoil 3050 (AB245385)</text>
    </g>
    <g>
     <circle stroke="black" stroke-width="0.5" fill="#aaffff" cx="265.0" cy="340.0" r="1.0"/>
     <text stroke="none" x="265.0" y="340.0" font-size="20.0" font-family="helvetica">Paenibacillus glucanolyticus DSM 51 627 (ABO731 89)</text>
    </g>
    <g>
     <circle stroke="black" stroke-width="0.5" fill="#aaffff" cx="305.0" cy="46.0" r="1.0"/>
     <text stroke="none" x="305.0" y="46.0" font-size="20.0" font-family="helvetica">Cohnella thailandensis S1 -3T (FJOO1 840)</text>
    </g>
    <line stroke="black" x1="247.0" y1="111.0" x2="108.0" y2="62.0" stroke-width="0.5"/>
    <line stroke="black" x1="243.0" y1="242.0" x2="156.0" y2="225.0" stroke-width="0.5"/>
    <line stroke="black" x1="246.0" y1="209.0" x2="156.0" y2="225.0" stroke-width="0.5"/>
    <line stroke="black" x1="208.0" y1="537.0" x2="89.0" y2="553.0" stroke-width="0.5"/>
    <line stroke="black" x1="226.0" y1="406.0" x2="86.0" y2="379.0" stroke-width="0.5"/>
    <line stroke="black" x1="216.0" y1="471.0" x2="147.0" y2="457.0" stroke-width="0.5"/>
    <line stroke="black" x1="141.0" y1="30.0" x2="108.0" y2="62.0" stroke-width="0.5"/>
    <line stroke="black" x1="108.0" y1="62.0" x2="86.0" y2="127.0" stroke-width="0.5"/>
    <line stroke="black" x1="86.0" y1="127.0" x2="105.0" y2="172.0" stroke-width="0.5"/>
    <line stroke="black" x1="86.0" y1="127.0" x2="63.0" y2="202.0" stroke-width="0.5"/>
    <line stroke="black" x1="105.0" y1="172.0" x2="137.0" y2="200.0" stroke-width="0.5"/>
    <line stroke="black" x1="137.0" y1="200.0" x2="156.0" y2="225.0" stroke-width="0.5"/>
    <line stroke="black" x1="51.0" y1="608.0" x2="61.0" y2="684.0" stroke-width="0.5"/>
    <line stroke="black" x1="51.0" y1="608.0" x2="57.0" y2="534.0" stroke-width="0.5"/>
    <line stroke="black" x1="57.0" y1="534.0" x2="102.0" y2="618.0" stroke-width="0.5"/>
    <line stroke="black" x1="57.0" y1="534.0" x2="64.0" y2="448.0" stroke-width="0.5"/>
    <line stroke="black" x1="64.0" y1="448.0" x2="77.0" y2="516.0" stroke-width="0.5"/>
    <line stroke="black" x1="64.0" y1="448.0" x2="86.0" y2="379.0" stroke-width="0.5"/>
    <line stroke="black" x1="77.0" y1="516.0" x2="89.0" y2="553.0" stroke-width="0.5"/>
    <line stroke="black" x1="77.0" y1="516.0" x2="110.0" y2="481.0" stroke-width="0.5"/>
    <line stroke="black" x1="86.0" y1="379.0" x2="98.0" y2="349.0" stroke-width="0.5"/>
    <line stroke="black" x1="98.0" y1="349.0" x2="134.0" y2="324.0" stroke-width="0.5"/>
    <line stroke="black" x1="110.0" y1="481.0" x2="147.0" y2="457.0" stroke-width="0.5"/>
    <line stroke="black" x1="63.0" y1="202.0" x2="51.0" y2="608.0" stroke-width="0.5"/>
    <line stroke="black" x1="230.0" y1="668.0" x2="61.0" y2="684.0" stroke-width="0.5"/>
    <line stroke="black" x1="230.0" y1="275.0" x2="63.0" y2="202.0" stroke-width="0.5"/>
    <line stroke="black" x1="254.0" y1="702.0" x2="61.0" y2="684.0" stroke-width="0.5"/>
    <line stroke="black" x1="226.0" y1="603.0" x2="102.0" y2="618.0" stroke-width="0.5"/>
    <line stroke="black" x1="232.0" y1="374.0" x2="98.0" y2="349.0" stroke-width="0.5"/>
    <line stroke="black" x1="220.0" y1="143.0" x2="105.0" y2="172.0" stroke-width="0.5"/>
    <line stroke="black" x1="256.0" y1="570.0" x2="89.0" y2="553.0" stroke-width="0.5"/>
    <line stroke="black" x1="236.0" y1="636.0" x2="102.0" y2="618.0" stroke-width="0.5"/>
    <line stroke="black" x1="219.0" y1="505.0" x2="110.0" y2="481.0" stroke-width="0.5"/>
    <line stroke="black" x1="226.0" y1="308.0" x2="134.0" y2="324.0" stroke-width="0.5"/>
    <line stroke="black" x1="211.0" y1="439.0" x2="147.0" y2="457.0" stroke-width="0.5"/>
    <line stroke="black" x1="250.0" y1="78.0" x2="108.0" y2="62.0" stroke-width="0.5"/>
    <line stroke="black" x1="240.0" y1="177.0" x2="137.0" y2="200.0" stroke-width="0.5"/>
    <line stroke="black" x1="265.0" y1="340.0" x2="134.0" y2="324.0" stroke-width="0.5"/>
    <line stroke="black" x1="229.0" y1="12.0" x2="141.0" y2="30.0" stroke-width="0.5"/>
    <line stroke="black" x1="305.0" y1="46.0" x2="141.0" y2="30.0" stroke-width="0.5"/>
   </g>
  </g>
 </svg>
</svg>
