<?xml version="1.0" encoding="UTF-8"?>
<svg height="800.0" width="700.0" xmlns="http://www.w3.org/2000/svg">
 <svg>
  <g>
   <g>
    <g>
     <circle stroke="black" stroke-width="0.5" fill="#aaffff" cx="993.0" cy="585.0" r="1.0"/>
     <text stroke="none" x="993.0" y="585.0" font-size="10.0" font-family="helvetica">NT1.1</text>
    </g>
    <g>
     <circle stroke="black" stroke-width="0.5" fill="#aaffff" cx="1017.0" cy="385.0" r="1.0"/>
     <text stroke="none" x="1017.0" y="385.0" font-size="20.0" font-family="helvetica">93</text>
    </g>
    <g>
     <circle stroke="black" stroke-width="0.5" fill="#aaffff" cx="1022.0" cy="177.0" r="1.0"/>
     <text stroke="none" x="1022.0" y="177.0" font-size="10.0" font-family="helvetica">NT1.3</text>
    </g>
    <g>
     <circle stroke="black" stroke-width="0.5" fill="#aaffff" cx="1050.0" cy="592.0" r="1.0"/>
     <text stroke="none" x="1050.0" y="592.0" font-size="10.0" font-family="helvetica">NT1.4</text>
    </g>
    <g>
     <circle stroke="black" stroke-width="0.5" fill="#aaffff" cx="1074.0" cy="677.0" r="1.0"/>
     <text stroke="none" x="1074.0" y="677.0" font-size="20.0" font-family="helvetica">94</text>
    </g>
    <g>
     <circle stroke="black" stroke-width="0.5" fill="#aaffff" cx="1082.0" cy="247.0" r="1.0"/>
     <text stroke="none" x="1082.0" y="247.0" font-size="10.0" font-family="helvetica">NT1.6</text>
    </g>
    <g>
     <circle stroke="black" stroke-width="0.5" fill="#aaffff" cx="1083.0" cy="508.0" r="1.0"/>
     <text stroke="none" x="1083.0" y="508.0" font-size="10.0" font-family="helvetica">NT1.7</text>
    </g>
    <g>
     <circle stroke="black" stroke-width="0.5" fill="#aaffff" cx="1101.0" cy="106.0" r="1.0"/>
     <text stroke="none" x="1101.0" y="106.0" font-size="10.0" font-family="helvetica">NT1.8</text>
    </g>
    <g>
     <circle stroke="black" stroke-width="0.5" fill="#aaffff" cx="1107.0" cy="446.0" r="1.0"/>
     <text stroke="none" x="1107.0" y="446.0" font-size="10.0" font-family="helvetica">NT1.9</text>
    </g>
    <g>
     <circle stroke="black" stroke-width="0.5" fill="#aaffff" cx="1110.0" cy="857.0" r="1.0"/>
     <text stroke="none" x="1110.0" y="857.0" font-size="20.0" font-family="helvetica">Themotoga marmma DSM 3109T (P38525)</text>
    </g>
    <g>
     <circle stroke="black" stroke-width="0.5" fill="#aaffff" cx="1147.0" cy="392.0" r="1.0"/>
     <text stroke="none" x="1147.0" y="392.0" font-size="10.0" font-family="helvetica">NT1.11</text>
    </g>
    <g>
     <circle stroke="black" stroke-width="0.5" fill="#aaffff" cx="1172.0" cy="713.0" r="1.0"/>
     <text stroke="none" x="1172.0" y="713.0" font-size="20.0" font-family="helvetica">Geobacter sulfurreducens ATCC 515737 (AF546867)</text>
    </g>
    <g>
     <circle stroke="black" stroke-width="0.5" fill="#aaffff" cx="1177.0" cy="785.0" r="1.0"/>
     <text stroke="none" x="1177.0" y="785.0" font-size="20.0" font-family="helvetica">2AqL"'feX aeomsi DSM 12045 (NP212986)</text>
    </g>
    <g>
     <circle stroke="black" stroke-width="0.5" fill="#aaffff" cx="1199.0" cy="498.0" r="1.0"/>
     <text stroke="none" x="1199.0" y="498.0" font-size="20.0" font-family="helvetica">Haemophilus influenzae ATCC 51907 (NP438737)</text>
    </g>
    <g>
     <circle stroke="black" stroke-width="0.5" fill="#aaffff" cx="1200.0" cy="212.0" r="1.0"/>
     <text stroke="none" x="1200.0" y="212.0" font-size="20.0" font-family="helvetica">Micrococous luteus ATCC 10240 (PO9952)</text>
    </g>
    <g>
     <circle stroke="black" stroke-width="0.5" fill="#aaffff" cx="1204.0" cy="356.0" r="1.0"/>
     <text stroke="none" x="1204.0" y="356.0" font-size="20.0" font-family="helvetica">Azotobacter vinelandii ATCC 9104 (EAM05154)</text>
    </g>
    <g>
     <circle stroke="black" stroke-width="0.5" fill="#aaffff" cx="1207.0" cy="570.0" r="1.0"/>
     <text stroke="none" x="1207.0" y="570.0" font-size="20.0" font-family="helvetica">Shewanella oneidensis ATCC 70O55OT (Q8EK71)</text>
    </g>
    <g>
     <circle stroke="black" stroke-width="0.5" fill="#aaffff" cx="1210.0" cy="428.0" r="1.0"/>
     <text stroke="none" x="1210.0" y="428.0" font-size="20.0" font-family="helvetica">Pseudomonas syringae ATCC 12885 (NP790470)</text>
    </g>
    <g>
     <circle stroke="black" stroke-width="0.5" fill="#aaffff" cx="1211.0" cy="284.0" r="1.0"/>
     <text stroke="none" x="1211.0" y="284.0" font-size="20.0" font-family="helvetica">Mycobacterium smegmatis ATCC 23037 (AAM19252)</text>
    </g>
    <g>
     <circle stroke="black" stroke-width="0.5" fill="#aaffff" cx="1211.0" cy="641.0" r="1.0"/>
     <text stroke="none" x="1211.0" y="641.0" font-size="20.0" font-family="helvetica">Desulfuromonas acetoxidans ATCC 51529 (AY188891)</text>
    </g>
    <g>
     <circle stroke="black" stroke-width="0.5" fill="#aaffff" cx="1226.0" cy="141.0" r="1.0"/>
     <text stroke="none" x="1226.0" y="141.0" font-size="20.0" font-family="helvetica">Prolixibacter bellarivorans strain F2"' (AY918929)</text>
    </g>
    <g>
     <circle stroke="black" stroke-width="0.5" fill="#aaffff" cx="1237.0" cy="70.0" r="1.0"/>
     <text stroke="none" x="1237.0" y="70.0" font-size="20.0" font-family="helvetica">P0'PhYmm0"aS 9'779'Va"S ATCC 332777</text>
    </g>
    <line stroke="black" x1="1226.0" y1="141.0" x2="1101.0" y2="106.0" stroke-width="0.5"/>
    <line stroke="black" x1="1200.0" y1="212.0" x2="1082.0" y2="247.0" stroke-width="0.5"/>
    <line stroke="black" x1="1172.0" y1="713.0" x2="1074.0" y2="677.0" stroke-width="0.5"/>
    <line stroke="black" x1="1211.0" y1="641.0" x2="1074.0" y2="677.0" stroke-width="0.5"/>
    <line stroke="black" x1="1204.0" y1="356.0" x2="1147.0" y2="392.0" stroke-width="0.5"/>
    <line stroke="black" x1="1210.0" y1="428.0" x2="1147.0" y2="392.0" stroke-width="0.5"/>
    <line stroke="black" x1="1101.0" y1="106.0" x2="1022.0" y2="177.0" stroke-width="0.5"/>
    <line stroke="black" x1="1022.0" y1="177.0" x2="1017.0" y2="385.0" stroke-width="0.5"/>
    <line stroke="black" x1="1022.0" y1="177.0" x2="1082.0" y2="247.0" stroke-width="0.5"/>
    <line stroke="black" x1="1017.0" y1="385.0" x2="993.0" y2="585.0" stroke-width="0.5"/>
    <line stroke="black" x1="1017.0" y1="385.0" x2="1050.0" y2="592.0" stroke-width="0.5"/>
    <line stroke="black" x1="1050.0" y1="592.0" x2="1074.0" y2="677.0" stroke-width="0.5"/>
    <line stroke="black" x1="1050.0" y1="592.0" x2="1083.0" y2="508.0" stroke-width="0.5"/>
    <line stroke="black" x1="1083.0" y1="508.0" x2="1107.0" y2="446.0" stroke-width="0.5"/>
    <line stroke="black" x1="1107.0" y1="446.0" x2="1147.0" y2="392.0" stroke-width="0.5"/>
    <line stroke="black" x1="1110.0" y1="857.0" x2="993.0" y2="585.0" stroke-width="0.5"/>
    <line stroke="black" x1="1177.0" y1="785.0" x2="993.0" y2="585.0" stroke-width="0.5"/>
    <line stroke="black" x1="1207.0" y1="570.0" x2="1083.0" y2="508.0" stroke-width="0.5"/>
    <line stroke="black" x1="1211.0" y1="284.0" x2="1082.0" y2="247.0" stroke-width="0.5"/>
    <line stroke="black" x1="1199.0" y1="498.0" x2="1107.0" y2="446.0" stroke-width="0.5"/>
    <line stroke="black" x1="1237.0" y1="70.0" x2="1101.0" y2="106.0" stroke-width="0.5"/>
   </g>
  </g>
 </svg>
</svg>
