<?xml version="1.0" encoding="UTF-8"?>
<svg height="800.0" width="700.0" xmlns="http://www.w3.org/2000/svg">
 <svg>
  <g>
   <g>
    <g>
     <circle stroke="black" stroke-width="0.5" fill="#aaffff" cx="2.0" cy="1310.0" r="1.0"/>
     <text stroke="none" x="2.0" y="1310.0" font-size="20.0" font-family="helvetica">(2</text>
    </g>
    <g>
     <circle stroke="black" stroke-width="0.5" fill="#aaffff" cx="4.0" cy="1310.0" r="1.0"/>
     <text stroke="none" x="4.0" y="1310.0" font-size="10.0" font-family="helvetica">NT1.2</text>
    </g>
    <g>
     <circle stroke="black" stroke-width="0.5" fill="#aaffff" cx="77.0" cy="1292.0" r="1.0"/>
     <text stroke="none" x="77.0" y="1292.0" font-size="20.0" font-family="helvetica">98</text>
    </g>
    <g>
     <circle stroke="black" stroke-width="0.5" fill="#aaffff" cx="77.0" cy="1350.0" r="1.0"/>
     <text stroke="none" x="77.0" y="1350.0" font-size="10.0" font-family="helvetica">NT1.4</text>
    </g>
    <g>
     <circle stroke="black" stroke-width="0.5" fill="#aaffff" cx="144.0" cy="1261.0" r="1.0"/>
     <text stroke="none" x="144.0" y="1261.0" font-size="10.0" font-family="helvetica">NT1.5</text>
    </g>
    <g>
     <circle stroke="black" stroke-width="0.5" fill="#aaffff" cx="217.0" cy="1230.0" r="1.0"/>
     <text stroke="none" x="217.0" y="1230.0" font-size="20.0" font-family="helvetica">51</text>
    </g>
    <g>
     <circle stroke="black" stroke-width="0.5" fill="#aaffff" cx="253.0" cy="1138.0" r="1.0"/>
     <text stroke="none" x="253.0" y="1138.0" font-size="10.0" font-family="helvetica">NT1.7</text>
    </g>
    <g>
     <circle stroke="black" stroke-width="0.5" fill="#aaffff" cx="281.0" cy="922.0" r="1.0"/>
     <text stroke="none" x="281.0" y="922.0" font-size="10.0" font-family="helvetica">NT1.8</text>
    </g>
    <g>
     <circle stroke="black" stroke-width="0.5" fill="#aaffff" cx="298.0" cy="799.0" r="1.0"/>
     <text stroke="none" x="298.0" y="799.0" font-size="10.0" font-family="helvetica">NT1.9</text>
    </g>
    <g>
     <circle stroke="black" stroke-width="0.5" fill="#aaffff" cx="305.0" cy="1073.0" r="1.0"/>
     <text stroke="none" x="305.0" y="1073.0" font-size="20.0" font-family="helvetica">_p</text>
    </g>
    <g>
     <circle stroke="black" stroke-width="0.5" fill="#aaffff" cx="317.0" cy="858.0" r="1.0"/>
     <text stroke="none" x="317.0" y="858.0" font-size="20.0" font-family="helvetica">63</text>
    </g>
    <g>
     <circle stroke="black" stroke-width="0.5" fill="#aaffff" cx="319.0" cy="1196.0" r="1.0"/>
     <text stroke="none" x="319.0" y="1196.0" font-size="10.0" font-family="helvetica">NT1.12</text>
    </g>
    <g>
     <circle stroke="black" stroke-width="0.5" fill="#aaffff" cx="328.0" cy="553.0" r="1.0"/>
     <text stroke="none" x="328.0" y="553.0" font-size="10.0" font-family="helvetica">NT1.13</text>
    </g>
    <g>
     <circle stroke="black" stroke-width="0.5" fill="#aaffff" cx="352.0" cy="830.0" r="1.0"/>
     <text stroke="none" x="352.0" y="830.0" font-size="10.0" font-family="helvetica">NT1.14</text>
    </g>
    <g>
     <circle stroke="black" stroke-width="0.5" fill="#aaffff" cx="352.0" cy="1045.0" r="1.0"/>
     <text stroke="none" x="352.0" y="1045.0" font-size="10.0" font-family="helvetica">NT1.15</text>
    </g>
    <g>
     <circle stroke="black" stroke-width="0.5" fill="#aaffff" cx="353.0" cy="1276.0" r="1.0"/>
     <text stroke="none" x="353.0" y="1276.0" font-size="20.0" font-family="helvetica">Curtobacterium citreum DSM 2O528T (X77436)</text>
    </g>
    <g>
     <circle stroke="black" stroke-width="0.5" fill="#aaffff" cx="354.0" cy="460.0" r="1.0"/>
     <text stroke="none" x="354.0" y="460.0" font-size="10.0" font-family="helvetica">NT1.17</text>
    </g>
    <g>
     <circle stroke="black" stroke-width="0.5" fill="#aaffff" cx="359.0" cy="704.0" r="1.0"/>
     <text stroke="none" x="359.0" y="704.0" font-size="10.0" font-family="helvetica">NT1.18</text>
    </g>
    <g>
     <circle stroke="black" stroke-width="0.5" fill="#aaffff" cx="371.0" cy="888.0" r="1.0"/>
     <text stroke="none" x="371.0" y="888.0" font-size="10.0" font-family="helvetica">NT1.19</text>
    </g>
    <g>
     <circle stroke="black" stroke-width="0.5" fill="#aaffff" cx="377.0" cy="1307.0" r="1.0"/>
     <text stroke="none" x="377.0" y="1307.0" font-size="20.0" font-family="helvetica">Humibacter albus SC.O83T (AM494541)</text>
    </g>
    <g>
     <circle stroke="black" stroke-width="0.5" fill="#aaffff" cx="380.0" cy="306.0" r="1.0"/>
     <text stroke="none" x="380.0" y="306.0" font-size="10.0" font-family="helvetica">NT1.21</text>
    </g>
    <g>
     <circle stroke="black" stroke-width="0.5" fill="#aaffff" cx="404.0" cy="1015.0" r="1.0"/>
     <text stroke="none" x="404.0" y="1015.0" font-size="20.0" font-family="helvetica">70</text>
    </g>
    <g>
     <circle stroke="black" stroke-width="0.5" fill="#aaffff" cx="406.0" cy="183.0" r="1.0"/>
     <text stroke="none" x="406.0" y="183.0" font-size="10.0" font-family="helvetica">NT1.23</text>
    </g>
    <g>
     <circle stroke="black" stroke-width="0.5" fill="#aaffff" cx="406.0" cy="765.0" r="1.0"/>
     <text stroke="none" x="406.0" y="765.0" font-size="10.0" font-family="helvetica">NT1.24</text>
    </g>
    <g>
     <circle stroke="black" stroke-width="0.5" fill="#aaffff" cx="416.0" cy="427.0" r="1.0"/>
     <text stroke="none" x="416.0" y="427.0" font-size="20.0" font-family="helvetica">59</text>
    </g>
    <g>
     <circle stroke="black" stroke-width="0.5" fill="#aaffff" cx="428.0" cy="519.0" r="1.0"/>
     <text stroke="none" x="428.0" y="519.0" font-size="10.0" font-family="helvetica">NT1.26</text>
    </g>
    <g>
     <circle stroke="black" stroke-width="0.5" fill="#aaffff" cx="429.0" cy="1245.0" r="1.0"/>
     <text stroke="none" x="429.0" y="1245.0" font-size="20.0" font-family="helvetica">Rathayibacter rathayi DSM 7485T (X77439)</text>
    </g>
    <g>
     <circle stroke="black" stroke-width="0.5" fill="#aaffff" cx="435.0" cy="152.0" r="1.0"/>
     <text stroke="none" x="435.0" y="152.0" font-size="10.0" font-family="helvetica">NT1.28</text>
    </g>
    <g>
     <circle stroke="black" stroke-width="0.5" fill="#aaffff" cx="435.0" cy="676.0" r="1.0"/>
     <text stroke="none" x="435.0" y="676.0" font-size="10.0" font-family="helvetica">NT1.29</text>
    </g>
    <g>
     <circle stroke="black" stroke-width="0.5" fill="#aaffff" cx="444.0" cy="984.0" r="1.0"/>
     <text stroke="none" x="444.0" y="984.0" font-size="20.0" font-family="helvetica">64</text>
    </g>
    <g>
     <circle stroke="black" stroke-width="0.5" fill="#aaffff" cx="447.0" cy="273.0" r="1.0"/>
     <text stroke="none" x="447.0" y="273.0" font-size="10.0" font-family="helvetica">NT1.31</text>
    </g>
    <g>
     <circle stroke="black" stroke-width="0.5" fill="#aaffff" cx="447.0" cy="399.0" r="1.0"/>
     <text stroke="none" x="447.0" y="399.0" font-size="20.0" font-family="helvetica">70</text>
    </g>
    <g>
     <circle stroke="black" stroke-width="0.5" fill="#aaffff" cx="464.0" cy="1104.0" r="1.0"/>
     <text stroke="none" x="464.0" y="1104.0" font-size="10.0" font-family="helvetica">NT1.33</text>
    </g>
    <g>
     <circle stroke="black" stroke-width="0.5" fill="#aaffff" cx="468.0" cy="738.0" r="1.0"/>
     <text stroke="none" x="468.0" y="738.0" font-size="10.0" font-family="helvetica">NT1.34</text>
    </g>
    <g>
     <circle stroke="black" stroke-width="0.5" fill="#aaffff" cx="489.0" cy="245.0" r="1.0"/>
     <text stroke="none" x="489.0" y="245.0" font-size="20.0" font-family="helvetica">1</text>
    </g>
    <g>
     <circle stroke="black" stroke-width="0.5" fill="#aaffff" cx="500.0" cy="873.0" r="1.0"/>
     <text stroke="none" x="500.0" y="873.0" font-size="20.0" font-family="helvetica">Frigoribacterium faeni 801 T (Y18807)</text>
    </g>
    <g>
     <circle stroke="black" stroke-width="0.5" fill="#aaffff" cx="518.0" cy="368.0" r="1.0"/>
     <text stroke="none" x="518.0" y="368.0" font-size="20.0" font-family="helvetica">1T</text>
    </g>
    <g>
     <circle stroke="black" stroke-width="0.5" fill="#aaffff" cx="522.0" cy="1061.0" r="1.0"/>
     <text stroke="none" x="522.0" y="1061.0" font-size="20.0" font-family="helvetica">Labedella gwakjiensis KSW2-1 7T (DQ533552)</text>
    </g>
    <g>
     <circle stroke="black" stroke-width="0.5" fill="#aaffff" cx="522.0" cy="645.0" r="1.0"/>
     <text stroke="none" x="522.0" y="645.0" font-size="10.0" font-family="helvetica">NT1.39</text>
    </g>
    <g>
     <circle stroke="black" stroke-width="0.5" fill="#aaffff" cx="526.0" cy="412.0" r="1.0"/>
     <text stroke="none" x="526.0" y="412.0" font-size="20.0" font-family="helvetica">Leifsonia kafniensis KFC-22T (AM889135)</text>
    </g>
    <g>
     <circle stroke="black" stroke-width="0.5" fill="#aaffff" cx="536.0" cy="843.0" r="1.0"/>
     <text stroke="none" x="536.0" y="843.0" font-size="20.0" font-family="helvetica">Subtercola frigoramans DSM 13O57T (AF224723)</text>
    </g>
    <g>
     <circle stroke="black" stroke-width="0.5" fill="#aaffff" cx="537.0" cy="491.0" r="1.0"/>
     <text stroke="none" x="537.0" y="491.0" font-size="20.0" font-family="helvetica">100</text>
    </g>
    <g>
     <circle stroke="black" stroke-width="0.5" fill="#aaffff" cx="539.0" cy="503.0" r="1.0"/>
     <text stroke="none" x="539.0" y="503.0" font-size="10.0" font-family="helvetica">NT1.43</text>
    </g>
    <g>
     <circle stroke="black" stroke-width="0.5" fill="#aaffff" cx="541.0" cy="122.0" r="1.0"/>
     <text stroke="none" x="541.0" y="122.0" font-size="20.0" font-family="helvetica">91</text>
    </g>
    <g>
     <circle stroke="black" stroke-width="0.5" fill="#aaffff" cx="541.0" cy="214.0" r="1.0"/>
     <text stroke="none" x="541.0" y="214.0" font-size="20.0" font-family="helvetica">1</text>
    </g>
    <g>
     <circle stroke="black" stroke-width="0.5" fill="#aaffff" cx="543.0" cy="904.0" r="1.0"/>
     <text stroke="none" x="543.0" y="904.0" font-size="20.0" font-family="helvetica">Frondihabitans australicus E1 HC-02T (DQ525859)</text>
    </g>
    <g>
     <circle stroke="black" stroke-width="0.5" fill="#aaffff" cx="543.0" cy="1122.0" r="1.0"/>
     <text stroke="none" x="543.0" y="1122.0" font-size="20.0" font-family="helvetica">Yonghaparkia alkaliphila KSL-1 13T (DQ256087)</text>
    </g>
    <g>
     <circle stroke="black" stroke-width="0.5" fill="#aaffff" cx="543.0" cy="999.0" r="1.0"/>
     <text stroke="none" x="543.0" y="999.0" font-size="20.0" font-family="helvetica">Cryobacterium psychrotolerans 0549T (DQ515963)</text>
    </g>
    <g>
     <circle stroke="black" stroke-width="0.5" fill="#aaffff" cx="553.0" cy="442.0" r="1.0"/>
     <text stroke="none" x="553.0" y="442.0" font-size="10.0" font-family="helvetica">NT1.49</text>
    </g>
    <g>
     <circle stroke="black" stroke-width="0.5" fill="#aaffff" cx="556.0" cy="337.0" r="1.0"/>
     <text stroke="none" x="556.0" y="337.0" font-size="20.0" font-family="helvetica">98</text>
    </g>
    <g>
     <circle stroke="black" stroke-width="0.5" fill="#aaffff" cx="557.0" cy="1215.0" r="1.0"/>
     <text stroke="none" x="557.0" y="1215.0" font-size="10.0" font-family="helvetica">NT1.51</text>
    </g>
    <g>
     <circle stroke="black" stroke-width="0.5" fill="#aaffff" cx="562.0" cy="318.0" r="1.0"/>
     <text stroke="none" x="562.0" y="318.0" font-size="20.0" font-family="helvetica">Microterricola viridarii KV-677T (AB282862)</text>
    </g>
    <g>
     <circle stroke="black" stroke-width="0.5" fill="#aaffff" cx="562.0" cy="1169.0" r="1.0"/>
     <text stroke="none" x="562.0" y="1169.0" font-size="10.0" font-family="helvetica">NT1.53</text>
    </g>
    <g>
     <circle stroke="black" stroke-width="0.5" fill="#aaffff" cx="563.0" cy="1183.0" r="1.0"/>
     <text stroke="none" x="563.0" y="1183.0" font-size="10.0" font-family="helvetica">NT1.54</text>
    </g>
    <g>
     <circle stroke="black" stroke-width="0.5" fill="#aaffff" cx="565.0" cy="614.0" r="1.0"/>
     <text stroke="none" x="565.0" y="614.0" font-size="10.0" font-family="helvetica">NT1.55</text>
    </g>
    <g>
     <circle stroke="black" stroke-width="0.5" fill="#aaffff" cx="569.0" cy="472.0" r="1.0"/>
     <text stroke="none" x="569.0" y="472.0" font-size="20.0" font-family="helvetica">Agreia bicolorata VKM Ac-18O4T (AF159363)</text>
    </g>
    <g>
     <circle stroke="black" stroke-width="0.5" fill="#aaffff" cx="569.0" cy="781.0" r="1.0"/>
     <text stroke="none" x="569.0" y="781.0" font-size="10.0" font-family="helvetica">NT1.57</text>
    </g>
    <g>
     <circle stroke="black" stroke-width="0.5" fill="#aaffff" cx="574.0" cy="1030.0" r="1.0"/>
     <text stroke="none" x="574.0" y="1030.0" font-size="20.0" font-family="helvetica">Cryobacterium arcticum SK1T (GO406814)</text>
    </g>
    <g>
     <circle stroke="black" stroke-width="0.5" fill="#aaffff" cx="577.0" cy="953.0" r="1.0"/>
     <text stroke="none" x="577.0" y="953.0" font-size="10.0" font-family="helvetica">NT1.59</text>
    </g>
    <g>
     <circle stroke="black" stroke-width="0.5" fill="#aaffff" cx="581.0" cy="350.0" r="1.0"/>
     <text stroke="none" x="581.0" y="350.0" font-size="20.0" font-family="helvetica">Leifsonia pindariensis PON10T (AM900767)</text>
    </g>
    <g>
     <circle stroke="black" stroke-width="0.5" fill="#aaffff" cx="583.0" cy="381.0" r="1.0"/>
     <text stroke="none" x="583.0" y="381.0" font-size="20.0" font-family="helvetica">Phycicola gilvus SSWW-21 T (AM286414)</text>
    </g>
    <g>
     <circle stroke="black" stroke-width="0.5" fill="#aaffff" cx="583.0" cy="1337.0" r="1.0"/>
     <text stroke="none" x="583.0" y="1337.0" font-size="20.0" font-family="helvetica">Arthrobacter sulfureus DSM 20167T (X83409)</text>
    </g>
    <g>
     <circle stroke="black" stroke-width="0.5" fill="#aaffff" cx="588.0" cy="165.0" r="1.0"/>
     <text stroke="none" x="588.0" y="165.0" font-size="20.0" font-family="helvetica">Leifsonia ginsengi wged1 1T (DQ473536)</text>
    </g>
    <g>
     <circle stroke="black" stroke-width="0.5" fill="#aaffff" cx="588.0" cy="689.0" r="1.0"/>
     <text stroke="none" x="588.0" y="689.0" font-size="20.0" font-family="helvetica">Salinibacterium xinjiangense O543T (DQ515964)</text>
    </g>
    <g>
     <circle stroke="black" stroke-width="0.5" fill="#aaffff" cx="591.0" cy="1091.0" r="1.0"/>
     <text stroke="none" x="591.0" y="1091.0" font-size="10.0" font-family="helvetica">NT1.65</text>
    </g>
    <g>
     <circle stroke="black" stroke-width="0.5" fill="#aaffff" cx="591.0" cy="1152.0" r="1.0"/>
     <text stroke="none" x="591.0" y="1152.0" font-size="10.0" font-family="helvetica">NT1.66</text>
    </g>
    <g>
     <circle stroke="black" stroke-width="0.5" fill="#aaffff" cx="600.0" cy="658.0" r="1.0"/>
     <text stroke="none" x="600.0" y="658.0" font-size="20.0" font-family="helvetica">Salinibacterium amurskyense KMM 3673T (AF539697)</text>
    </g>
    <g>
     <circle stroke="black" stroke-width="0.5" fill="#aaffff" cx="602.0" cy="811.0" r="1.0"/>
     <text stroke="none" x="602.0" y="811.0" font-size="20.0" font-family="helvetica">Clavibacter michiganensis DSM 46364T (X77435)</text>
    </g>
    <g>
     <circle stroke="black" stroke-width="0.5" fill="#aaffff" cx="608.0" cy="60.0" r="1.0"/>
     <text stroke="none" x="608.0" y="60.0" font-size="10.0" font-family="helvetica">NT1.69</text>
    </g>
    <g>
     <circle stroke="black" stroke-width="0.5" fill="#aaffff" cx="610.0" cy="968.0" r="1.0"/>
     <text stroke="none" x="610.0" y="968.0" font-size="20.0" font-family="helvetica">Cryobacterium roopkundense RUGI-7T (EF467640)</text>
    </g>
    <g>
     <circle stroke="black" stroke-width="0.5" fill="#aaffff" cx="621.0" cy="137.0" r="1.0"/>
     <text stroke="none" x="621.0" y="137.0" font-size="10.0" font-family="helvetica">NT1.71</text>
    </g>
    <g>
     <circle stroke="black" stroke-width="0.5" fill="#aaffff" cx="624.0" cy="535.0" r="1.0"/>
     <text stroke="none" x="624.0" y="535.0" font-size="20.0" font-family="helvetica">Subtercola boreus DSM 13O56T (AF224722)</text>
    </g>
    <g>
     <circle stroke="black" stroke-width="0.5" fill="#aaffff" cx="645.0" cy="719.0" r="1.0"/>
     <text stroke="none" x="645.0" y="719.0" font-size="20.0" font-family="helvetica">Cryobacterium mesophilum MSL 15T (EF466127)</text>
    </g>
    <g>
     <circle stroke="black" stroke-width="0.5" fill="#aaffff" cx="646.0" cy="584.0" r="1.0"/>
     <text stroke="none" x="646.0" y="584.0" font-size="10.0" font-family="helvetica">NT1.74</text>
    </g>
    <g>
     <circle stroke="black" stroke-width="0.5" fill="#aaffff" cx="648.0" cy="935.0" r="1.0"/>
     <text stroke="none" x="648.0" y="935.0" font-size="20.0" font-family="helvetica">Cryobacterium psychrophilum DSM 4854T (AJ544063)</text>
    </g>
    <g>
     <circle stroke="black" stroke-width="0.5" fill="#aaffff" cx="649.0" cy="565.0" r="1.0"/>
     <text stroke="none" x="649.0" y="565.0" font-size="20.0" font-family="helvetica">Leifsonia rubra CMS 76rT (AJ438585)</text>
    </g>
    <g>
     <circle stroke="black" stroke-width="0.5" fill="#aaffff" cx="653.0" cy="88.0" r="1.0"/>
     <text stroke="none" x="653.0" y="88.0" font-size="10.0" font-family="helvetica">NT1.77</text>
    </g>
    <g>
     <circle stroke="black" stroke-width="0.5" fill="#aaffff" cx="654.0" cy="750.0" r="1.0"/>
     <text stroke="none" x="654.0" y="750.0" font-size="10.0" font-family="helvetica">NT1.78</text>
    </g>
    <g>
     <circle stroke="black" stroke-width="0.5" fill="#aaffff" cx="657.0" cy="289.0" r="1.0"/>
     <text stroke="none" x="657.0" y="289.0" font-size="20.0" font-family="helvetica">Leifsonia kribbensis MSL-13T (EF466129)</text>
    </g>
    <g>
     <circle stroke="black" stroke-width="0.5" fill="#aaffff" cx="657.0" cy="29.0" r="1.0"/>
     <text stroke="none" x="657.0" y="29.0" font-size="10.0" font-family="helvetica">NT1.80</text>
    </g>
    <g>
     <circle stroke="black" stroke-width="0.5" fill="#aaffff" cx="666.0" cy="45.0" r="1.0"/>
     <text stroke="none" x="666.0" y="45.0" font-size="10.0" font-family="helvetica">NT1.81</text>
    </g>
    <g>
     <circle stroke="black" stroke-width="0.5" fill="#aaffff" cx="699.0" cy="106.0" r="1.0"/>
     <text stroke="none" x="699.0" y="106.0" font-size="10.0" font-family="helvetica">NT1.82</text>
    </g>
    <g>
     <circle stroke="black" stroke-width="0.5" fill="#aaffff" cx="711.0" cy="74.0" r="1.0"/>
     <text stroke="none" x="711.0" y="74.0" font-size="20.0" font-family="helvetica">Leifsonia shinshuensis JCM 10591T (DQ232614)</text>
    </g>
    <g>
     <circle stroke="black" stroke-width="0.5" fill="#aaffff" cx="721.0" cy="14.0" r="1.0"/>
     <text stroke="none" x="721.0" y="14.0" font-size="20.0" font-family="helvetica">Leifsonia aquatica JCM 1368T (D45057)</text>
    </g>
    <g>
     <circle stroke="black" stroke-width="0.5" fill="#aaffff" cx="721.0" cy="596.0" r="1.0"/>
     <text stroke="none" x="721.0" y="596.0" font-size="20.0" font-family="helvetica">Rhodoglobus vestalii LV3T (AJ459101)</text>
    </g>
    <g>
     <circle stroke="black" stroke-width="0.5" fill="#aaffff" cx="730.0" cy="258.0" r="1.0"/>
     <text stroke="none" x="730.0" y="258.0" font-size="20.0" font-family="helvetica">Agrococcus jenensis DSM 9580T (X92492)</text>
    </g>
    <g>
     <circle stroke="black" stroke-width="0.5" fill="#aaffff" cx="754.0" cy="627.0" r="1.0"/>
     <text stroke="none" x="754.0" y="627.0" font-size="20.0" font-family="helvetica">Leifsonia aurea CMS 81T (AJ438586)</text>
    </g>
    <g>
     <circle stroke="black" stroke-width="0.5" fill="#aaffff" cx="759.0" cy="196.0" r="1.0"/>
     <text stroke="none" x="759.0" y="196.0" font-size="20.0" font-family="helvetica">Agrococcus casei LMG 2241OT (DQ168427)</text>
    </g>
    <g>
     <circle stroke="black" stroke-width="0.5" fill="#aaffff" cx="822.0" cy="227.0" r="1.0"/>
     <text stroke="none" x="822.0" y="227.0" font-size="10.0" font-family="helvetica">NT1.89</text>
    </g>
    <g>
     <circle stroke="black" stroke-width="0.5" fill="#aaffff" cx="844.0" cy="1369.0" r="1.0"/>
     <text stroke="none" x="844.0" y="1369.0" font-size="20.0" font-family="helvetica">Rhodococcus ruber DSM 43338T (X80625)</text>
    </g>
    <line stroke="black" x1="711.0" y1="74.0" x2="653.0" y2="88.0" stroke-width="0.5"/>
    <line stroke="black" x1="588.0" y1="165.0" x2="435.0" y2="152.0" stroke-width="0.5"/>
    <line stroke="black" x1="657.0" y1="289.0" x2="447.0" y2="273.0" stroke-width="0.5"/>
    <line stroke="black" x1="526.0" y1="412.0" x2="447.0" y2="399.0" stroke-width="0.5"/>
    <line stroke="black" x1="569.0" y1="472.0" x2="537.0" y2="491.0" stroke-width="0.5"/>
    <line stroke="black" x1="624.0" y1="535.0" x2="428.0" y2="519.0" stroke-width="0.5"/>
    <line stroke="black" x1="588.0" y1="689.0" x2="435.0" y2="676.0" stroke-width="0.5"/>
    <line stroke="black" x1="600.0" y1="658.0" x2="522.0" y2="645.0" stroke-width="0.5"/>
    <line stroke="black" x1="645.0" y1="719.0" x2="468.0" y2="738.0" stroke-width="0.5"/>
    <line stroke="black" x1="500.0" y1="873.0" x2="371.0" y2="888.0" stroke-width="0.5"/>
    <line stroke="black" x1="536.0" y1="843.0" x2="352.0" y2="830.0" stroke-width="0.5"/>
    <line stroke="black" x1="543.0" y1="904.0" x2="371.0" y2="888.0" stroke-width="0.5"/>
    <line stroke="black" x1="754.0" y1="627.0" x2="565.0" y2="614.0" stroke-width="0.5"/>
    <line stroke="black" x1="602.0" y1="811.0" x2="352.0" y2="830.0" stroke-width="0.5"/>
    <line stroke="black" x1="522.0" y1="1061.0" x2="352.0" y2="1045.0" stroke-width="0.5"/>
    <line stroke="black" x1="543.0" y1="999.0" x2="444.0" y2="984.0" stroke-width="0.5"/>
    <line stroke="black" x1="574.0" y1="1030.0" x2="404.0" y2="1015.0" stroke-width="0.5"/>
    <line stroke="black" x1="610.0" y1="968.0" x2="577.0" y2="953.0" stroke-width="0.5"/>
    <line stroke="black" x1="429.0" y1="1245.0" x2="217.0" y2="1230.0" stroke-width="0.5"/>
    <line stroke="black" x1="4.0" y1="1310.0" x2="2.0" y2="1310.0" stroke-width="0.5"/>
    <line stroke="black" x1="377.0" y1="1307.0" x2="77.0" y2="1292.0" stroke-width="0.5"/>
    <line stroke="black" x1="583.0" y1="1337.0" x2="77.0" y2="1350.0" stroke-width="0.5"/>
    <line stroke="black" x1="844.0" y1="1369.0" x2="77.0" y2="1350.0" stroke-width="0.5"/>
    <line stroke="black" x1="608.0" y1="60.0" x2="541.0" y2="122.0" stroke-width="0.5"/>
    <line stroke="black" x1="435.0" y1="152.0" x2="406.0" y2="183.0" stroke-width="0.5"/>
    <line stroke="black" x1="406.0" y1="183.0" x2="380.0" y2="306.0" stroke-width="0.5"/>
    <line stroke="black" x1="406.0" y1="183.0" x2="447.0" y2="273.0" stroke-width="0.5"/>
    <line stroke="black" x1="447.0" y1="273.0" x2="489.0" y2="245.0" stroke-width="0.5"/>
    <line stroke="black" x1="380.0" y1="306.0" x2="354.0" y2="460.0" stroke-width="0.5"/>
    <line stroke="black" x1="416.0" y1="427.0" x2="447.0" y2="399.0" stroke-width="0.5"/>
    <line stroke="black" x1="354.0" y1="460.0" x2="328.0" y2="553.0" stroke-width="0.5"/>
    <line stroke="black" x1="354.0" y1="460.0" x2="428.0" y2="519.0" stroke-width="0.5"/>
    <line stroke="black" x1="447.0" y1="399.0" x2="518.0" y2="368.0" stroke-width="0.5"/>
    <line stroke="black" x1="328.0" y1="553.0" x2="298.0" y2="799.0" stroke-width="0.5"/>
    <line stroke="black" x1="328.0" y1="553.0" x2="359.0" y2="704.0" stroke-width="0.5"/>
    <line stroke="black" x1="518.0" y1="368.0" x2="556.0" y2="337.0" stroke-width="0.5"/>
    <line stroke="black" x1="359.0" y1="704.0" x2="435.0" y2="676.0" stroke-width="0.5"/>
    <line stroke="black" x1="298.0" y1="799.0" x2="281.0" y2="922.0" stroke-width="0.5"/>
    <line stroke="black" x1="298.0" y1="799.0" x2="317.0" y2="858.0" stroke-width="0.5"/>
    <line stroke="black" x1="435.0" y1="676.0" x2="522.0" y2="645.0" stroke-width="0.5"/>
    <line stroke="black" x1="317.0" y1="858.0" x2="371.0" y2="888.0" stroke-width="0.5"/>
    <line stroke="black" x1="317.0" y1="858.0" x2="352.0" y2="830.0" stroke-width="0.5"/>
    <line stroke="black" x1="522.0" y1="645.0" x2="565.0" y2="614.0" stroke-width="0.5"/>
    <line stroke="black" x1="281.0" y1="922.0" x2="253.0" y2="1138.0" stroke-width="0.5"/>
    <line stroke="black" x1="281.0" y1="922.0" x2="305.0" y2="1073.0" stroke-width="0.5"/>
    <line stroke="black" x1="565.0" y1="614.0" x2="646.0" y2="584.0" stroke-width="0.5"/>
    <line stroke="black" x1="646.0" y1="584.0" x2="649.0" y2="565.0" stroke-width="0.5"/>
    <line stroke="black" x1="305.0" y1="1073.0" x2="352.0" y2="1045.0" stroke-width="0.5"/>
    <line stroke="black" x1="352.0" y1="1045.0" x2="404.0" y2="1015.0" stroke-width="0.5"/>
    <line stroke="black" x1="404.0" y1="1015.0" x2="444.0" y2="984.0" stroke-width="0.5"/>
    <line stroke="black" x1="217.0" y1="1230.0" x2="144.0" y2="1261.0" stroke-width="0.5"/>
    <line stroke="black" x1="444.0" y1="984.0" x2="577.0" y2="953.0" stroke-width="0.5"/>
    <line stroke="black" x1="144.0" y1="1261.0" x2="77.0" y2="1292.0" stroke-width="0.5"/>
    <line stroke="black" x1="77.0" y1="1292.0" x2="4.0" y2="1310.0" stroke-width="0.5"/>
    <line stroke="black" x1="4.0" y1="1310.0" x2="77.0" y2="1350.0" stroke-width="0.5"/>
    <line stroke="black" x1="353.0" y1="1276.0" x2="144.0" y2="1261.0" stroke-width="0.5"/>
    <line stroke="black" x1="543.0" y1="1122.0" x2="464.0" y2="1104.0" stroke-width="0.5"/>
    <line stroke="black" x1="583.0" y1="381.0" x2="518.0" y2="368.0" stroke-width="0.5"/>
    <line stroke="black" x1="562.0" y1="318.0" x2="556.0" y2="337.0" stroke-width="0.5"/>
    <line stroke="black" x1="581.0" y1="350.0" x2="556.0" y2="337.0" stroke-width="0.5"/>
    <line stroke="black" x1="730.0" y1="258.0" x2="489.0" y2="245.0" stroke-width="0.5"/>
    <line stroke="black" x1="648.0" y1="935.0" x2="577.0" y2="953.0" stroke-width="0.5"/>
    <line stroke="black" x1="759.0" y1="196.0" x2="541.0" y2="214.0" stroke-width="0.5"/>
    <line stroke="black" x1="721.0" y1="596.0" x2="646.0" y2="584.0" stroke-width="0.5"/>
    <line stroke="black" x1="721.0" y1="14.0" x2="657.0" y2="29.0" stroke-width="0.5"/>
   </g>
  </g>
 </svg>
</svg>
