<?xml version="1.0" encoding="UTF-8"?>
<svg height="800.0" width="700.0" xmlns="http://www.w3.org/2000/svg">
 <svg>
  <g>
   <g>
    <g>
     <circle stroke="black" stroke-width="0.5" fill="#aaffff" cx="63.0" cy="885.0" r="1.0"/>
     <text stroke="none" x="63.0" y="885.0" font-size="10.0" font-family="helvetica">NT1.1</text>
    </g>
    <g>
     <circle stroke="black" stroke-width="0.5" fill="#aaffff" cx="173.0" cy="630.0" r="1.0"/>
     <text stroke="none" x="173.0" y="630.0" font-size="10.0" font-family="helvetica">NT1.2</text>
    </g>
    <g>
     <circle stroke="black" stroke-width="0.5" fill="#aaffff" cx="206.0" cy="449.0" r="1.0"/>
     <text stroke="none" x="206.0" y="449.0" font-size="10.0" font-family="helvetica">NT1.3</text>
    </g>
    <g>
     <circle stroke="black" stroke-width="0.5" fill="#aaffff" cx="217.0" cy="312.0" r="1.0"/>
     <text stroke="none" x="217.0" y="312.0" font-size="10.0" font-family="helvetica">NT1.4</text>
    </g>
    <g>
     <circle stroke="black" stroke-width="0.5" fill="#aaffff" cx="247.0" cy="423.0" r="1.0"/>
     <text stroke="none" x="247.0" y="423.0" font-size="10.0" font-family="helvetica">NT1.5</text>
    </g>
    <g>
     <circle stroke="black" stroke-width="0.5" fill="#aaffff" cx="299.0" cy="1139.0" r="1.0"/>
     <text stroke="none" x="299.0" y="1139.0" font-size="10.0" font-family="helvetica">NT1.6</text>
    </g>
    <g>
     <circle stroke="black" stroke-width="0.5" fill="#aaffff" cx="307.0" cy="200.0" r="1.0"/>
     <text stroke="none" x="307.0" y="200.0" font-size="10.0" font-family="helvetica">NT1.7</text>
    </g>
    <g>
     <circle stroke="black" stroke-width="0.5" fill="#aaffff" cx="324.0" cy="1166.0" r="1.0"/>
     <text stroke="none" x="324.0" y="1166.0" font-size="20.0" font-family="helvetica">Bacillus boroniphilus DSM 17376T (AB198719)</text>
    </g>
    <g>
     <circle stroke="black" stroke-width="0.5" fill="#aaffff" cx="326.0" cy="1114.0" r="1.0"/>
     <text stroke="none" x="326.0" y="1114.0" font-size="20.0" font-family="helvetica">Bacillus jeotgali KCCM 41O40T (AF221061)</text>
    </g>
    <g>
     <circle stroke="black" stroke-width="0.5" fill="#aaffff" cx="346.0" cy="132.0" r="1.0"/>
     <text stroke="none" x="346.0" y="132.0" font-size="10.0" font-family="helvetica">NT1.10</text>
    </g>
    <g>
     <circle stroke="black" stroke-width="0.5" fill="#aaffff" cx="386.0" cy="462.0" r="1.0"/>
     <text stroke="none" x="386.0" y="462.0" font-size="20.0" font-family="helvetica">91</text>
    </g>
    <g>
     <circle stroke="black" stroke-width="0.5" fill="#aaffff" cx="394.0" cy="86.0" r="1.0"/>
     <text stroke="none" x="394.0" y="86.0" font-size="10.0" font-family="helvetica">NT1.12</text>
    </g>
    <g>
     <circle stroke="black" stroke-width="0.5" fill="#aaffff" cx="394.0" cy="266.0" r="1.0"/>
     <text stroke="none" x="394.0" y="266.0" font-size="20.0" font-family="helvetica">73</text>
    </g>
    <g>
     <circle stroke="black" stroke-width="0.5" fill="#aaffff" cx="416.0" cy="808.0" r="1.0"/>
     <text stroke="none" x="416.0" y="808.0" font-size="20.0" font-family="helvetica">93</text>
    </g>
    <g>
     <circle stroke="black" stroke-width="0.5" fill="#aaffff" cx="428.0" cy="586.0" r="1.0"/>
     <text stroke="none" x="428.0" y="586.0" font-size="10.0" font-family="helvetica">NT1.15</text>
    </g>
    <g>
     <circle stroke="black" stroke-width="0.5" fill="#aaffff" cx="436.0" cy="869.0" r="1.0"/>
     <text stroke="none" x="436.0" y="869.0" font-size="10.0" font-family="helvetica">NT1.16</text>
    </g>
    <g>
     <circle stroke="black" stroke-width="0.5" fill="#aaffff" cx="492.0" cy="631.0" r="1.0"/>
     <text stroke="none" x="492.0" y="631.0" font-size="10.0" font-family="helvetica">NT1.17</text>
    </g>
    <g>
     <circle stroke="black" stroke-width="0.5" fill="#aaffff" cx="504.0" cy="306.0" r="1.0"/>
     <text stroke="none" x="504.0" y="306.0" font-size="20.0" font-family="helvetica">94</text>
    </g>
    <g>
     <circle stroke="black" stroke-width="0.5" fill="#aaffff" cx="504.0" cy="937.0" r="1.0"/>
     <text stroke="none" x="504.0" y="937.0" font-size="10.0" font-family="helvetica">NT1.19</text>
    </g>
    <g>
     <circle stroke="black" stroke-width="0.5" fill="#aaffff" cx="510.0" cy="996.0" r="1.0"/>
     <text stroke="none" x="510.0" y="996.0" font-size="10.0" font-family="helvetica">NT1.20</text>
    </g>
    <g>
     <circle stroke="black" stroke-width="0.5" fill="#aaffff" cx="520.0" cy="749.0" r="1.0"/>
     <text stroke="none" x="520.0" y="749.0" font-size="10.0" font-family="helvetica">NT1.21</text>
    </g>
    <g>
     <circle stroke="black" stroke-width="0.5" fill="#aaffff" cx="527.0" cy="489.0" r="1.0"/>
     <text stroke="none" x="527.0" y="489.0" font-size="20.0" font-family="helvetica">Bacillus infantis JCM 13438T (AY904032)</text>
    </g>
    <g>
     <circle stroke="black" stroke-width="0.5" fill="#aaffff" cx="542.0" cy="1035.0" r="1.0"/>
     <text stroke="none" x="542.0" y="1035.0" font-size="20.0" font-family="helvetica">77</text>
    </g>
    <g>
     <circle stroke="black" stroke-width="0.5" fill="#aaffff" cx="543.0" cy="437.0" r="1.0"/>
     <text stroke="none" x="543.0" y="437.0" font-size="20.0" font-family="helvetica">Bacillus firmus IAM 124647 (D16268)</text>
    </g>
    <g>
     <circle stroke="black" stroke-width="0.5" fill="#aaffff" cx="576.0" cy="1010.0" r="1.0"/>
     <text stroke="none" x="576.0" y="1010.0" font-size="20.0" font-family="helvetica">Bacillus drentensis LMG 21831T (AJ542506)</text>
    </g>
    <g>
     <circle stroke="black" stroke-width="0.5" fill="#aaffff" cx="577.0" cy="958.0" r="1.0"/>
     <text stroke="none" x="577.0" y="958.0" font-size="20.0" font-family="helvetica">Bacillus soli LMG 218387 (AJ542513)</text>
    </g>
    <g>
     <circle stroke="black" stroke-width="0.5" fill="#aaffff" cx="583.0" cy="1062.0" r="1.0"/>
     <text stroke="none" x="583.0" y="1062.0" font-size="20.0" font-family="helvetica">Bacillus bataviensis LMG 218337 (AJ542508)</text>
    </g>
    <g>
     <circle stroke="black" stroke-width="0.5" fill="#aaffff" cx="595.0" cy="853.0" r="1.0"/>
     <text stroke="none" x="595.0" y="853.0" font-size="10.0" font-family="helvetica">NT1.28</text>
    </g>
    <g>
     <circle stroke="black" stroke-width="0.5" fill="#aaffff" cx="595.0" cy="880.0" r="1.0"/>
     <text stroke="none" x="595.0" y="880.0" font-size="10.0" font-family="helvetica">NT1.29</text>
    </g>
    <g>
     <circle stroke="black" stroke-width="0.5" fill="#aaffff" cx="621.0" cy="906.0" r="1.0"/>
     <text stroke="none" x="621.0" y="906.0" font-size="20.0" font-family="helvetica">Bacillus vireti LMG 21834T (AJ542509)</text>
    </g>
    <g>
     <circle stroke="black" stroke-width="0.5" fill="#aaffff" cx="629.0" cy="801.0" r="1.0"/>
     <text stroke="none" x="629.0" y="801.0" font-size="20.0" font-family="helvetica">Bacillus fumarioli LMG 17489T (AJ250056)</text>
    </g>
    <g>
     <circle stroke="black" stroke-width="0.5" fill="#aaffff" cx="631.0" cy="384.0" r="1.0"/>
     <text stroke="none" x="631.0" y="384.0" font-size="20.0" font-family="helvetica">Bacillus lentus IAM 12466T (D16272)</text>
    </g>
    <g>
     <circle stroke="black" stroke-width="0.5" fill="#aaffff" cx="639.0" cy="541.0" r="1.0"/>
     <text stroke="none" x="639.0" y="541.0" font-size="20.0" font-family="helvetica">Bacillus acidicola DSM 14745T (AF547209)</text>
    </g>
    <g>
     <circle stroke="black" stroke-width="0.5" fill="#aaffff" cx="643.0" cy="177.0" r="1.0"/>
     <text stroke="none" x="643.0" y="177.0" font-size="10.0" font-family="helvetica">NT1.34</text>
    </g>
    <g>
     <circle stroke="black" stroke-width="0.5" fill="#aaffff" cx="682.0" cy="228.0" r="1.0"/>
     <text stroke="none" x="682.0" y="228.0" font-size="20.0" font-family="helvetica">Bacillus benzoevorans DSM 53917 (D78311)</text>
    </g>
    <g>
     <circle stroke="black" stroke-width="0.5" fill="#aaffff" cx="685.0" cy="333.0" r="1.0"/>
     <text stroke="none" x="685.0" y="333.0" font-size="20.0" font-family="helvetica">Bacillus nealsonii DSM 150777 (AF234863)</text>
    </g>
    <g>
     <circle stroke="black" stroke-width="0.5" fill="#aaffff" cx="689.0" cy="47.0" r="1.0"/>
     <text stroke="none" x="689.0" y="47.0" font-size="20.0" font-family="helvetica">100</text>
    </g>
    <g>
     <circle stroke="black" stroke-width="0.5" fill="#aaffff" cx="708.0" cy="21.0" r="1.0"/>
     <text stroke="none" x="708.0" y="21.0" font-size="20.0" font-family="helvetica">Bacillus flexus DSM 132oT (AB021185)</text>
    </g>
    <g>
     <circle stroke="black" stroke-width="0.5" fill="#aaffff" cx="720.0" cy="280.0" r="1.0"/>
     <text stroke="none" x="720.0" y="280.0" font-size="20.0" font-family="helvetica">Bacillus circulans IAM 12462T (D78312)</text>
    </g>
    <g>
     <circle stroke="black" stroke-width="0.5" fill="#aaffff" cx="740.0" cy="670.0" r="1.0"/>
     <text stroke="none" x="740.0" y="670.0" font-size="20.0" font-family="helvetica">99</text>
    </g>
    <g>
     <circle stroke="black" stroke-width="0.5" fill="#aaffff" cx="769.0" cy="73.0" r="1.0"/>
     <text stroke="none" x="769.0" y="73.0" font-size="20.0" font-family="helvetica">Bacillus simplex DSM 1321T (D78478)</text>
    </g>
    <g>
     <circle stroke="black" stroke-width="0.5" fill="#aaffff" cx="810.0" cy="698.0" r="1.0"/>
     <text stroke="none" x="810.0" y="698.0" font-size="10.0" font-family="helvetica">NT1.42</text>
    </g>
    <g>
     <circle stroke="black" stroke-width="0.5" fill="#aaffff" cx="812.0" cy="125.0" r="1.0"/>
     <text stroke="none" x="812.0" y="125.0" font-size="10.0" font-family="helvetica">NT1.43</text>
    </g>
    <g>
     <circle stroke="black" stroke-width="0.5" fill="#aaffff" cx="893.0" cy="645.0" r="1.0"/>
     <text stroke="none" x="893.0" y="645.0" font-size="20.0" font-family="helvetica">Bacillus marisflavi JCM 11544T (AF483624)</text>
    </g>
    <g>
     <circle stroke="black" stroke-width="0.5" fill="#aaffff" cx="1021.0" cy="593.0" r="1.0"/>
     <text stroke="none" x="1021.0" y="593.0" font-size="20.0" font-family="helvetica">Bacillus subtilis NCDO 1769T (X60646)</text>
    </g>
    <g>
     <circle stroke="black" stroke-width="0.5" fill="#aaffff" cx="1021.0" cy="1218.0" r="1.0"/>
     <text stroke="none" x="1021.0" y="1218.0" font-size="20.0" font-family="helvetica">Geobacillus pallidus DSM 3670T (226930)</text>
    </g>
    <g>
     <circle stroke="black" stroke-width="0.5" fill="#aaffff" cx="4.0" cy="1051.0" r="1.0"/>
     <text stroke="none" x="4.0" y="1051.0" font-size="10.0" font-family="helvetica">NT1.47</text>
    </g>
    <line stroke="black" x1="708.0" y1="21.0" x2="689.0" y2="47.0" stroke-width="0.5"/>
    <line stroke="black" x1="769.0" y1="73.0" x2="689.0" y2="47.0" stroke-width="0.5"/>
    <line stroke="black" x1="682.0" y1="228.0" x2="394.0" y2="266.0" stroke-width="0.5"/>
    <line stroke="black" x1="527.0" y1="489.0" x2="386.0" y2="462.0" stroke-width="0.5"/>
    <line stroke="black" x1="631.0" y1="384.0" x2="247.0" y2="423.0" stroke-width="0.5"/>
    <line stroke="black" x1="629.0" y1="801.0" x2="436.0" y2="869.0" stroke-width="0.5"/>
    <line stroke="black" x1="577.0" y1="958.0" x2="510.0" y2="996.0" stroke-width="0.5"/>
    <line stroke="black" x1="1021.0" y1="593.0" x2="492.0" y2="631.0" stroke-width="0.5"/>
    <line stroke="black" x1="689.0" y1="47.0" x2="394.0" y2="86.0" stroke-width="0.5"/>
    <line stroke="black" x1="307.0" y1="200.0" x2="217.0" y2="312.0" stroke-width="0.5"/>
    <line stroke="black" x1="307.0" y1="200.0" x2="394.0" y2="266.0" stroke-width="0.5"/>
    <line stroke="black" x1="394.0" y1="266.0" x2="504.0" y2="306.0" stroke-width="0.5"/>
    <line stroke="black" x1="217.0" y1="312.0" x2="206.0" y2="449.0" stroke-width="0.5"/>
    <line stroke="black" x1="217.0" y1="312.0" x2="247.0" y2="423.0" stroke-width="0.5"/>
    <line stroke="black" x1="247.0" y1="423.0" x2="386.0" y2="462.0" stroke-width="0.5"/>
    <line stroke="black" x1="206.0" y1="449.0" x2="173.0" y2="630.0" stroke-width="0.5"/>
    <line stroke="black" x1="206.0" y1="449.0" x2="428.0" y2="586.0" stroke-width="0.5"/>
    <line stroke="black" x1="173.0" y1="630.0" x2="63.0" y2="885.0" stroke-width="0.5"/>
    <line stroke="black" x1="428.0" y1="586.0" x2="492.0" y2="631.0" stroke-width="0.5"/>
    <line stroke="black" x1="63.0" y1="885.0" x2="299.0" y2="1139.0" stroke-width="0.5"/>
    <line stroke="black" x1="416.0" y1="808.0" x2="436.0" y2="869.0" stroke-width="0.5"/>
    <line stroke="black" x1="436.0" y1="869.0" x2="504.0" y2="937.0" stroke-width="0.5"/>
    <line stroke="black" x1="504.0" y1="937.0" x2="510.0" y2="996.0" stroke-width="0.5"/>
    <line stroke="black" x1="510.0" y1="996.0" x2="542.0" y2="1035.0" stroke-width="0.5"/>
    <line stroke="black" x1="4.0" y1="1051.0" x2="1021.0" y2="1218.0" stroke-width="0.5"/>
    <line stroke="black" x1="4.0" y1="1051.0" x2="63.0" y2="885.0" stroke-width="0.5"/>
    <line stroke="black" x1="324.0" y1="1166.0" x2="299.0" y2="1139.0" stroke-width="0.5"/>
    <line stroke="black" x1="326.0" y1="1114.0" x2="299.0" y2="1139.0" stroke-width="0.5"/>
    <line stroke="black" x1="543.0" y1="437.0" x2="386.0" y2="462.0" stroke-width="0.5"/>
    <line stroke="black" x1="639.0" y1="541.0" x2="428.0" y2="586.0" stroke-width="0.5"/>
    <line stroke="black" x1="576.0" y1="1010.0" x2="542.0" y2="1035.0" stroke-width="0.5"/>
    <line stroke="black" x1="583.0" y1="1062.0" x2="542.0" y2="1035.0" stroke-width="0.5"/>
    <line stroke="black" x1="685.0" y1="333.0" x2="504.0" y2="306.0" stroke-width="0.5"/>
    <line stroke="black" x1="720.0" y1="280.0" x2="504.0" y2="306.0" stroke-width="0.5"/>
    <line stroke="black" x1="621.0" y1="906.0" x2="595.0" y2="880.0" stroke-width="0.5"/>
    <line stroke="black" x1="893.0" y1="645.0" x2="740.0" y2="670.0" stroke-width="0.5"/>
   </g>
  </g>
 </svg>
</svg>
