<?xml version="1.0" encoding="UTF-8"?>
<svg height="800.0" width="700.0" xmlns="http://www.w3.org/2000/svg">
 <svg>
  <g>
   <g>
    <g>
     <circle stroke="black" stroke-width="0.5" fill="#aaffff" cx="18.0" cy="477.0" r="1.0"/>
     <text stroke="none" x="18.0" y="477.0" font-size="10.0" font-family="helvetica">NT1.1</text>
    </g>
    <g>
     <circle stroke="black" stroke-width="0.5" fill="#aaffff" cx="159.0" cy="400.0" r="1.0"/>
     <text stroke="none" x="159.0" y="400.0" font-size="10.0" font-family="helvetica">NT1.2</text>
    </g>
    <g>
     <circle stroke="black" stroke-width="0.5" fill="#aaffff" cx="239.0" cy="291.0" r="1.0"/>
     <text stroke="none" x="239.0" y="291.0" font-size="10.0" font-family="helvetica">NT1.3</text>
    </g>
    <g>
     <circle stroke="black" stroke-width="0.5" fill="#aaffff" cx="265.0" cy="181.0" r="1.0"/>
     <text stroke="none" x="265.0" y="181.0" font-size="10.0" font-family="helvetica">NT1.4</text>
    </g>
    <g>
     <circle stroke="black" stroke-width="0.5" fill="#aaffff" cx="305.0" cy="257.0" r="1.0"/>
     <text stroke="none" x="305.0" y="257.0" font-size="10.0" font-family="helvetica">NT1.5</text>
    </g>
    <g>
     <circle stroke="black" stroke-width="0.5" fill="#aaffff" cx="349.0" cy="104.0" r="1.0"/>
     <text stroke="none" x="349.0" y="104.0" font-size="10.0" font-family="helvetica">NT1.6</text>
    </g>
    <g>
     <circle stroke="black" stroke-width="0.5" fill="#aaffff" cx="416.0" cy="150.0" r="1.0"/>
     <text stroke="none" x="416.0" y="150.0" font-size="10.0" font-family="helvetica">NT1.7</text>
    </g>
    <g>
     <circle stroke="black" stroke-width="0.5" fill="#aaffff" cx="482.0" cy="127.0" r="1.0"/>
     <text stroke="none" x="482.0" y="127.0" font-size="20.0" font-family="helvetica">Halobacillus trueperi DSM 10404 T (AJ310149)</text>
    </g>
    <g>
     <circle stroke="black" stroke-width="0.5" fill="#aaffff" cx="519.0" cy="175.0" r="1.0"/>
     <text stroke="none" x="519.0" y="175.0" font-size="20.0" font-family="helvetica">Halobacillus salinus HSL-3 T (AF5000O3)</text>
    </g>
    <g>
     <circle stroke="black" stroke-width="0.5" fill="#aaffff" cx="527.0" cy="56.0" r="1.0"/>
     <text stroke="none" x="527.0" y="56.0" font-size="10.0" font-family="helvetica">NT1.10</text>
    </g>
    <g>
     <circle stroke="black" stroke-width="0.5" fill="#aaffff" cx="540.0" cy="555.0" r="1.0"/>
     <text stroke="none" x="540.0" y="555.0" font-size="20.0" font-family="helvetica">Brevibacillus brevis JCM 25O3T (D78457)</text>
    </g>
    <g>
     <circle stroke="black" stroke-width="0.5" fill="#aaffff" cx="556.0" cy="292.0" r="1.0"/>
     <text stroke="none" x="556.0" y="292.0" font-size="10.0" font-family="helvetica">NT1.12</text>
    </g>
    <g>
     <circle stroke="black" stroke-width="0.5" fill="#aaffff" cx="595.0" cy="507.0" r="1.0"/>
     <text stroke="none" x="595.0" y="507.0" font-size="20.0" font-family="helvetica">Amphibacillus Xylanus JCM 7361T (D82065)</text>
    </g>
    <g>
     <circle stroke="black" stroke-width="0.5" fill="#aaffff" cx="614.0" cy="32.0" r="1.0"/>
     <text stroke="none" x="614.0" y="32.0" font-size="20.0" font-family="helvetica">Salimicrobium albus DSM 2074BT (X90834)</text>
    </g>
    <g>
     <circle stroke="black" stroke-width="0.5" fill="#aaffff" cx="638.0" cy="318.0" r="1.0"/>
     <text stroke="none" x="638.0" y="318.0" font-size="20.0" font-family="helvetica">Pontfbacillus marinus BHOSOOO4 T (AY603977)</text>
    </g>
    <g>
     <circle stroke="black" stroke-width="0.5" fill="#aaffff" cx="655.0" cy="80.0" r="1.0"/>
     <text stroke="none" x="655.0" y="80.0" font-size="20.0" font-family="helvetica">Salimicrobium halophilum DSM 4771T (AJ243920)</text>
    </g>
    <g>
     <circle stroke="black" stroke-width="0.5" fill="#aaffff" cx="662.0" cy="269.0" r="1.0"/>
     <text stroke="none" x="662.0" y="269.0" font-size="20.0" font-family="helvetica">Pontibacfllus chungwhensis BHO30062T (AY553296)</text>
    </g>
    <g>
     <circle stroke="black" stroke-width="0.5" fill="#aaffff" cx="766.0" cy="222.0" r="1.0"/>
     <text stroke="none" x="766.0" y="222.0" font-size="20.0" font-family="helvetica">Virgibacillus salexigens DSM 1 14837 (Y1 1603)</text>
    </g>
    <g>
     <circle stroke="black" stroke-width="0.5" fill="#aaffff" cx="879.0" cy="400.0" r="1.0"/>
     <text stroke="none" x="879.0" y="400.0" font-size="10.0" font-family="helvetica">NT1.19</text>
    </g>
    <g>
     <circle stroke="black" stroke-width="0.5" fill="#aaffff" cx="891.0" cy="365.0" r="1.0"/>
     <text stroke="none" x="891.0" y="365.0" font-size="20.0" font-family="helvetica"/>
    </g>
    <g>
     <circle stroke="black" stroke-width="0.5" fill="#aaffff" cx="891.0" cy="436.0" r="1.0"/>
     <text stroke="none" x="891.0" y="436.0" font-size="20.0" font-family="helvetica">97</text>
    </g>
    <g>
     <circle stroke="black" stroke-width="0.5" fill="#aaffff" cx="892.0" cy="412.0" r="1.0"/>
     <text stroke="none" x="892.0" y="412.0" font-size="20.0" font-family="helvetica"/>
    </g>
    <g>
     <circle stroke="black" stroke-width="0.5" fill="#aaffff" cx="957.0" cy="460.0" r="1.0"/>
     <text stroke="none" x="957.0" y="460.0" font-size="20.0" font-family="helvetica">Marinococcus halotolerans YIM 701577 (AY81 7493)</text>
    </g>
    <g>
     <circle stroke="black" stroke-width="0.5" fill="#aaffff" cx="957.0" cy="603.0" r="1.0"/>
     <text stroke="none" x="957.0" y="603.0" font-size="20.0" font-family="helvetica">Alicyclobacillus acidocaldarius DSM 446 T (X60742)</text>
    </g>
    <line stroke="black" x1="614.0" y1="32.0" x2="527.0" y2="56.0" stroke-width="0.5"/>
    <line stroke="black" x1="482.0" y1="127.0" x2="416.0" y2="150.0" stroke-width="0.5"/>
    <line stroke="black" x1="519.0" y1="175.0" x2="416.0" y2="150.0" stroke-width="0.5"/>
    <line stroke="black" x1="638.0" y1="318.0" x2="556.0" y2="292.0" stroke-width="0.5"/>
    <line stroke="black" x1="891.0" y1="365.0" x2="879.0" y2="400.0" stroke-width="0.5"/>
    <line stroke="black" x1="892.0" y1="412.0" x2="891.0" y2="436.0" stroke-width="0.5"/>
    <line stroke="black" x1="957.0" y1="460.0" x2="891.0" y2="436.0" stroke-width="0.5"/>
    <line stroke="black" x1="540.0" y1="555.0" x2="18.0" y2="477.0" stroke-width="0.5"/>
    <line stroke="black" x1="527.0" y1="56.0" x2="349.0" y2="104.0" stroke-width="0.5"/>
    <line stroke="black" x1="349.0" y1="104.0" x2="265.0" y2="181.0" stroke-width="0.5"/>
    <line stroke="black" x1="349.0" y1="104.0" x2="416.0" y2="150.0" stroke-width="0.5"/>
    <line stroke="black" x1="265.0" y1="181.0" x2="239.0" y2="291.0" stroke-width="0.5"/>
    <line stroke="black" x1="265.0" y1="181.0" x2="305.0" y2="257.0" stroke-width="0.5"/>
    <line stroke="black" x1="305.0" y1="257.0" x2="556.0" y2="292.0" stroke-width="0.5"/>
    <line stroke="black" x1="239.0" y1="291.0" x2="159.0" y2="400.0" stroke-width="0.5"/>
    <line stroke="black" x1="239.0" y1="291.0" x2="879.0" y2="400.0" stroke-width="0.5"/>
    <line stroke="black" x1="159.0" y1="400.0" x2="18.0" y2="477.0" stroke-width="0.5"/>
    <line stroke="black" x1="879.0" y1="400.0" x2="891.0" y2="436.0" stroke-width="0.5"/>
    <line stroke="black" x1="957.0" y1="603.0" x2="18.0" y2="477.0" stroke-width="0.5"/>
    <line stroke="black" x1="595.0" y1="507.0" x2="159.0" y2="400.0" stroke-width="0.5"/>
    <line stroke="black" x1="766.0" y1="222.0" x2="305.0" y2="257.0" stroke-width="0.5"/>
    <line stroke="black" x1="655.0" y1="80.0" x2="527.0" y2="56.0" stroke-width="0.5"/>
    <line stroke="black" x1="662.0" y1="269.0" x2="556.0" y2="292.0" stroke-width="0.5"/>
   </g>
  </g>
 </svg>
</svg>
