<?xml version="1.0" encoding="UTF-8"?>
<svg height="800.0" width="700.0" xmlns="http://www.w3.org/2000/svg">
 <svg>
  <g>
   <g>
    <g>
     <circle stroke="black" stroke-width="0.5" fill="#aaffff" cx="553.0" cy="339.0" r="1.0"/>
     <text stroke="none" x="553.0" y="339.0" font-size="10.0" font-family="helvetica">NT1.1</text>
    </g>
    <g>
     <circle stroke="black" stroke-width="0.5" fill="#aaffff" cx="568.0" cy="271.0" r="1.0"/>
     <text stroke="none" x="568.0" y="271.0" font-size="10.0" font-family="helvetica">NT1.2</text>
    </g>
    <g>
     <circle stroke="black" stroke-width="0.5" fill="#aaffff" cx="768.0" cy="201.0" r="1.0"/>
     <text stroke="none" x="768.0" y="201.0" font-size="10.0" font-family="helvetica">NT1.3</text>
    </g>
    <g>
     <circle stroke="black" stroke-width="0.5" fill="#aaffff" cx="1004.0" cy="278.0" r="1.0"/>
     <text stroke="none" x="1004.0" y="278.0" font-size="20.0" font-family="helvetica">Paenibacillus azoreducens CMIT (AJ272249)</text>
    </g>
    <g>
     <circle stroke="black" stroke-width="0.5" fill="#aaffff" cx="1043.0" cy="403.0" r="1.0"/>
     <text stroke="none" x="1043.0" y="403.0" font-size="20.0" font-family="helvetica">Paenibacillus cookii LMG 18419T (AJ250317)</text>
    </g>
    <g>
     <circle stroke="black" stroke-width="0.5" fill="#aaffff" cx="1055.0" cy="341.0" r="1.0"/>
     <text stroke="none" x="1055.0" y="341.0" font-size="20.0" font-family="helvetica">Paenibacillus chibensis NRRL B-142T (D85395)</text>
    </g>
    <g>
     <circle stroke="black" stroke-width="0.5" fill="#aaffff" cx="1138.0" cy="122.0" r="1.0"/>
     <text stroke="none" x="1138.0" y="122.0" font-size="20.0" font-family="helvetica">100</text>
    </g>
    <g>
     <circle stroke="black" stroke-width="0.5" fill="#aaffff" cx="1144.0" cy="183.0" r="1.0"/>
     <text stroke="none" x="1144.0" y="183.0" font-size="10.0" font-family="helvetica">NT1.8</text>
    </g>
    <g>
     <circle stroke="black" stroke-width="0.5" fill="#aaffff" cx="1145.0" cy="152.0" r="1.0"/>
     <text stroke="none" x="1145.0" y="152.0" font-size="20.0" font-family="helvetica">Paenibacillus cineris LMG 18439T (AJ575658)</text>
    </g>
    <g>
     <circle stroke="black" stroke-width="0.5" fill="#aaffff" cx="1170.0" cy="215.0" r="1.0"/>
     <text stroke="none" x="1170.0" y="215.0" font-size="20.0" font-family="helvetica">Paenibacillusfavisporus GMPOIT (AY208751)</text>
    </g>
    <g>
     <circle stroke="black" stroke-width="0.5" fill="#aaffff" cx="1181.0" cy="60.0" r="1.0"/>
     <text stroke="none" x="1181.0" y="60.0" font-size="10.0" font-family="helvetica">NT1.11</text>
    </g>
    <g>
     <circle stroke="black" stroke-width="0.5" fill="#aaffff" cx="1203.0" cy="90.0" r="1.0"/>
     <text stroke="none" x="1203.0" y="90.0" font-size="20.0" font-family="helvetica">Paenibacillus rhizosphaerae CECAP16 (AY751755)</text>
    </g>
    <g>
     <circle stroke="black" stroke-width="0.5" fill="#aaffff" cx="1209.0" cy="28.0" r="1.0"/>
     <text stroke="none" x="1209.0" y="28.0" font-size="20.0" font-family="helvetica"/>
    </g>
    <g>
     <circle stroke="black" stroke-width="0.5" fill="#aaffff" cx="1209.0" cy="465.0" r="1.0"/>
     <text stroke="none" x="1209.0" y="465.0" font-size="20.0" font-family="helvetica">Paerzibacillus nematophilus NEMlaT (AF480935)</text>
    </g>
    <line stroke="black" x1="1209.0" y1="28.0" x2="1181.0" y2="60.0" stroke-width="0.5"/>
    <line stroke="black" x1="1145.0" y1="152.0" x2="1144.0" y2="183.0" stroke-width="0.5"/>
    <line stroke="black" x1="1004.0" y1="278.0" x2="768.0" y2="201.0" stroke-width="0.5"/>
    <line stroke="black" x1="1181.0" y1="60.0" x2="1138.0" y2="122.0" stroke-width="0.5"/>
    <line stroke="black" x1="1138.0" y1="122.0" x2="768.0" y2="201.0" stroke-width="0.5"/>
    <line stroke="black" x1="1138.0" y1="122.0" x2="1144.0" y2="183.0" stroke-width="0.5"/>
    <line stroke="black" x1="768.0" y1="201.0" x2="568.0" y2="271.0" stroke-width="0.5"/>
    <line stroke="black" x1="568.0" y1="271.0" x2="553.0" y2="339.0" stroke-width="0.5"/>
    <line stroke="black" x1="1209.0" y1="465.0" x2="553.0" y2="339.0" stroke-width="0.5"/>
    <line stroke="black" x1="1043.0" y1="403.0" x2="553.0" y2="339.0" stroke-width="0.5"/>
    <line stroke="black" x1="1055.0" y1="341.0" x2="568.0" y2="271.0" stroke-width="0.5"/>
    <line stroke="black" x1="1170.0" y1="215.0" x2="1144.0" y2="183.0" stroke-width="0.5"/>
    <line stroke="black" x1="1203.0" y1="90.0" x2="1181.0" y2="60.0" stroke-width="0.5"/>
   </g>
  </g>
 </svg>
</svg>
