<?xml version="1.0" encoding="UTF-8"?>
<svg height="800.0" width="700.0" xmlns="http://www.w3.org/2000/svg">
 <svg>
  <g>
   <g>
    <g>
     <circle stroke="black" stroke-width="0.5" fill="#aaffff" cx="35.0" cy="277.0" r="1.0"/>
     <text stroke="none" x="35.0" y="277.0" font-size="20.0" font-family="helvetica">56</text>
    </g>
    <g>
     <circle stroke="black" stroke-width="0.5" fill="#aaffff" cx="77.0" cy="1260.0" r="1.0"/>
     <text stroke="none" x="77.0" y="1260.0" font-size="10.0" font-family="helvetica">NT1.2</text>
    </g>
    <g>
     <circle stroke="black" stroke-width="0.5" fill="#aaffff" cx="110.0" cy="531.0" r="1.0"/>
     <text stroke="none" x="110.0" y="531.0" font-size="20.0" font-family="helvetica">74</text>
    </g>
    <g>
     <circle stroke="black" stroke-width="0.5" fill="#aaffff" cx="115.0" cy="773.0" r="1.0"/>
     <text stroke="none" x="115.0" y="773.0" font-size="10.0" font-family="helvetica">NT1.4</text>
    </g>
    <g>
     <circle stroke="black" stroke-width="0.5" fill="#aaffff" cx="131.0" cy="289.0" r="1.0"/>
     <text stroke="none" x="131.0" y="289.0" font-size="10.0" font-family="helvetica">NT1.5</text>
    </g>
    <g>
     <circle stroke="black" stroke-width="0.5" fill="#aaffff" cx="148.0" cy="674.0" r="1.0"/>
     <text stroke="none" x="148.0" y="674.0" font-size="20.0" font-family="helvetica">47</text>
    </g>
    <g>
     <circle stroke="black" stroke-width="0.5" fill="#aaffff" cx="149.0" cy="875.0" r="1.0"/>
     <text stroke="none" x="149.0" y="875.0" font-size="10.0" font-family="helvetica">NT1.7</text>
    </g>
    <g>
     <circle stroke="black" stroke-width="0.5" fill="#aaffff" cx="179.0" cy="711.0" r="1.0"/>
     <text stroke="none" x="179.0" y="711.0" font-size="20.0" font-family="helvetica">54</text>
    </g>
    <g>
     <circle stroke="black" stroke-width="0.5" fill="#aaffff" cx="193.0" cy="963.0" r="1.0"/>
     <text stroke="none" x="193.0" y="963.0" font-size="20.0" font-family="helvetica">53</text>
    </g>
    <g>
     <circle stroke="black" stroke-width="0.5" fill="#aaffff" cx="211.0" cy="865.0" r="1.0"/>
     <text stroke="none" x="211.0" y="865.0" font-size="20.0" font-family="helvetica">52</text>
    </g>
    <g>
     <circle stroke="black" stroke-width="0.5" fill="#aaffff" cx="234.0" cy="1062.0" r="1.0"/>
     <text stroke="none" x="234.0" y="1062.0" font-size="20.0" font-family="helvetica">73</text>
    </g>
    <g>
     <circle stroke="black" stroke-width="0.5" fill="#aaffff" cx="240.0" cy="458.0" r="1.0"/>
     <text stroke="none" x="240.0" y="458.0" font-size="10.0" font-family="helvetica">NT1.12</text>
    </g>
    <g>
     <circle stroke="black" stroke-width="0.5" fill="#aaffff" cx="242.0" cy="1007.0" r="1.0"/>
     <text stroke="none" x="242.0" y="1007.0" font-size="10.0" font-family="helvetica">NT1.13</text>
    </g>
    <g>
     <circle stroke="black" stroke-width="0.5" fill="#aaffff" cx="276.0" cy="1119.0" r="1.0"/>
     <text stroke="none" x="276.0" y="1119.0" font-size="20.0" font-family="helvetica">55</text>
    </g>
    <g>
     <circle stroke="black" stroke-width="0.5" fill="#aaffff" cx="313.0" cy="361.0" r="1.0"/>
     <text stroke="none" x="313.0" y="361.0" font-size="10.0" font-family="helvetica">NT1.15</text>
    </g>
    <g>
     <circle stroke="black" stroke-width="0.5" fill="#aaffff" cx="335.0" cy="840.0" r="1.0"/>
     <text stroke="none" x="335.0" y="840.0" font-size="20.0" font-family="helvetica">Halomonas ventosae DSM 15911T (AY268080)</text>
    </g>
    <g>
     <circle stroke="black" stroke-width="0.5" fill="#aaffff" cx="347.0" cy="119.0" r="1.0"/>
     <text stroke="none" x="347.0" y="119.0" font-size="20.0" font-family="helvetica">90</text>
    </g>
    <g>
     <circle stroke="black" stroke-width="0.5" fill="#aaffff" cx="354.0" cy="686.0" r="1.0"/>
     <text stroke="none" x="354.0" y="686.0" font-size="20.0" font-family="helvetica">Halomonas campisalis ATCC 7OO597T (AF054286)</text>
    </g>
    <g>
     <circle stroke="black" stroke-width="0.5" fill="#aaffff" cx="356.0" cy="1224.0" r="1.0"/>
     <text stroke="none" x="356.0" y="1224.0" font-size="10.0" font-family="helvetica">NT1.19</text>
    </g>
    <g>
     <circle stroke="black" stroke-width="0.5" fill="#aaffff" cx="361.0" cy="968.0" r="1.0"/>
     <text stroke="none" x="361.0" y="968.0" font-size="20.0" font-family="helvetica">100</text>
    </g>
    <g>
     <circle stroke="black" stroke-width="0.5" fill="#aaffff" cx="366.0" cy="406.0" r="1.0"/>
     <text stroke="none" x="366.0" y="406.0" font-size="10.0" font-family="helvetica">NT1.21</text>
    </g>
    <g>
     <circle stroke="black" stroke-width="0.5" fill="#aaffff" cx="367.0" cy="416.0" r="1.0"/>
     <text stroke="none" x="367.0" y="416.0" font-size="10.0" font-family="helvetica">NT1.22</text>
    </g>
    <g>
     <circle stroke="black" stroke-width="0.5" fill="#aaffff" cx="370.0" cy="891.0" r="1.0"/>
     <text stroke="none" x="370.0" y="891.0" font-size="20.0" font-family="helvetica">Halomonas pacifica DSM 4742T (L42616)</text>
    </g>
    <g>
     <circle stroke="black" stroke-width="0.5" fill="#aaffff" cx="391.0" cy="558.0" r="1.0"/>
     <text stroke="none" x="391.0" y="558.0" font-size="10.0" font-family="helvetica">NT1.24</text>
    </g>
    <g>
     <circle stroke="black" stroke-width="0.5" fill="#aaffff" cx="395.0" cy="417.0" r="1.0"/>
     <text stroke="none" x="395.0" y="417.0" font-size="10.0" font-family="helvetica">NT1.25</text>
    </g>
    <g>
     <circle stroke="black" stroke-width="0.5" fill="#aaffff" cx="399.0" cy="738.0" r="1.0"/>
     <text stroke="none" x="399.0" y="738.0" font-size="20.0" font-family="helvetica">Halomonas desiderata DSM 95027 (X92417)</text>
    </g>
    <g>
     <circle stroke="black" stroke-width="0.5" fill="#aaffff" cx="411.0" cy="1044.0" r="1.0"/>
     <text stroke="none" x="411.0" y="1044.0" font-size="20.0" font-family="helvetica">Halomonas maura DSM 13445T (AJ271864)</text>
    </g>
    <g>
     <circle stroke="black" stroke-width="0.5" fill="#aaffff" cx="412.0" cy="1146.0" r="1.0"/>
     <text stroke="none" x="412.0" y="1146.0" font-size="20.0" font-family="helvetica">Halomonas organivorans CECT 5995 (AJ 616910)</text>
    </g>
    <g>
     <circle stroke="black" stroke-width="0.5" fill="#aaffff" cx="414.0" cy="303.0" r="1.0"/>
     <text stroke="none" x="414.0" y="303.0" font-size="20.0" font-family="helvetica">100</text>
    </g>
    <g>
     <circle stroke="black" stroke-width="0.5" fill="#aaffff" cx="418.0" cy="1249.0" r="1.0"/>
     <text stroke="none" x="418.0" y="1249.0" font-size="20.0" font-family="helvetica">Strain MW2aT (DQ888315)</text>
    </g>
    <g>
     <circle stroke="black" stroke-width="0.5" fill="#aaffff" cx="424.0" cy="162.0" r="1.0"/>
     <text stroke="none" x="424.0" y="162.0" font-size="10.0" font-family="helvetica">NT1.31</text>
    </g>
    <g>
     <circle stroke="black" stroke-width="0.5" fill="#aaffff" cx="433.0" cy="200.0" r="1.0"/>
     <text stroke="none" x="433.0" y="200.0" font-size="10.0" font-family="helvetica">NT1.32</text>
    </g>
    <g>
     <circle stroke="black" stroke-width="0.5" fill="#aaffff" cx="442.0" cy="22.0" r="1.0"/>
     <text stroke="none" x="442.0" y="22.0" font-size="20.0" font-family="helvetica">Cobetia marina DSM 4741T (AJ306890)</text>
    </g>
    <g>
     <circle stroke="black" stroke-width="0.5" fill="#aaffff" cx="449.0" cy="941.0" r="1.0"/>
     <text stroke="none" x="449.0" y="941.0" font-size="20.0" font-family="helvetica">Halomonas eurihalina ATCC 49336T (X87218)</text>
    </g>
    <g>
     <circle stroke="black" stroke-width="0.5" fill="#aaffff" cx="453.0" cy="1197.0" r="1.0"/>
     <text stroke="none" x="453.0" y="1197.0" font-size="20.0" font-family="helvetica">Halomonas marisflavi KCCM 80003T (AF251143)</text>
    </g>
    <g>
     <circle stroke="black" stroke-width="0.5" fill="#aaffff" cx="466.0" cy="1094.0" r="1.0"/>
     <text stroke="none" x="466.0" y="1094.0" font-size="20.0" font-family="helvetica">Halomonas halophila DSM 4770T (M93353)</text>
    </g>
    <g>
     <circle stroke="black" stroke-width="0.5" fill="#aaffff" cx="466.0" cy="455.0" r="1.0"/>
     <text stroke="none" x="466.0" y="455.0" font-size="20.0" font-family="helvetica">99</text>
    </g>
    <g>
     <circle stroke="black" stroke-width="0.5" fill="#aaffff" cx="482.0" cy="636.0" r="1.0"/>
     <text stroke="none" x="482.0" y="636.0" font-size="20.0" font-family="helvetica">Halomonas pantelleriensis DSM 9661T (X93493)</text>
    </g>
    <g>
     <circle stroke="black" stroke-width="0.5" fill="#aaffff" cx="491.0" cy="532.0" r="1.0"/>
     <text stroke="none" x="491.0" y="532.0" font-size="20.0" font-family="helvetica">Halomonas halodurans DSM 5160T (L42619)</text>
    </g>
    <g>
     <circle stroke="black" stroke-width="0.5" fill="#aaffff" cx="495.0" cy="176.0" r="1.0"/>
     <text stroke="none" x="495.0" y="176.0" font-size="20.0" font-family="helvetica">Chromohalobacter canadensis ATCC 43984T (AF21 1861)</text>
    </g>
    <g>
     <circle stroke="black" stroke-width="0.5" fill="#aaffff" cx="506.0" cy="380.0" r="1.0"/>
     <text stroke="none" x="506.0" y="380.0" font-size="20.0" font-family="helvetica">Halomonas hydrothermalis DSM 157257 (AF212218)</text>
    </g>
    <g>
     <circle stroke="black" stroke-width="0.5" fill="#aaffff" cx="511.0" cy="328.0" r="1.0"/>
     <text stroke="none" x="511.0" y="328.0" font-size="20.0" font-family="helvetica">Halomonas sulfidaeris DSM 157227 (AF212204)</text>
    </g>
    <g>
     <circle stroke="black" stroke-width="0.5" fill="#aaffff" cx="518.0" cy="482.0" r="1.0"/>
     <text stroke="none" x="518.0" y="482.0" font-size="20.0" font-family="helvetica">Halomonas meridiana DSM 5425T (M93356)</text>
    </g>
    <g>
     <circle stroke="black" stroke-width="0.5" fill="#aaffff" cx="521.0" cy="73.0" r="1.0"/>
     <text stroke="none" x="521.0" y="73.0" font-size="20.0" font-family="helvetica">Chromohalobacter israelensis DSM 6768T (AF211862)</text>
    </g>
    <g>
     <circle stroke="black" stroke-width="0.5" fill="#aaffff" cx="531.0" cy="994.0" r="1.0"/>
     <text stroke="none" x="531.0" y="994.0" font-size="20.0" font-family="helvetica">Halomonas halmophila ATCC 19717T (AJ306889)</text>
    </g>
    <g>
     <circle stroke="black" stroke-width="0.5" fill="#aaffff" cx="542.0" cy="585.0" r="1.0"/>
     <text stroke="none" x="542.0" y="585.0" font-size="20.0" font-family="helvetica">Halomonas subglaciescola DSM 4683T (AJ306892)</text>
    </g>
    <g>
     <circle stroke="black" stroke-width="0.5" fill="#aaffff" cx="545.0" cy="789.0" r="1.0"/>
     <text stroke="none" x="545.0" y="789.0" font-size="20.0" font-family="helvetica">Halomonas halodenitrificans ATCC 13511T (LO4942)</text>
    </g>
    <g>
     <circle stroke="black" stroke-width="0.5" fill="#aaffff" cx="553.0" cy="124.0" r="1.0"/>
     <text stroke="none" x="553.0" y="124.0" font-size="20.0" font-family="helvetica">Chromohalobacter marismoriui ATCC 17O56T (X87219)</text>
    </g>
    <g>
     <circle stroke="black" stroke-width="0.5" fill="#aaffff" cx="571.0" cy="277.0" r="1.0"/>
     <text stroke="none" x="571.0" y="277.0" font-size="20.0" font-family="helvetica">Halomonas neptunia DSM 15720T (AF212202)</text>
    </g>
    <g>
     <circle stroke="black" stroke-width="0.5" fill="#aaffff" cx="599.0" cy="1299.0" r="1.0"/>
     <text stroke="none" x="599.0" y="1299.0" font-size="20.0" font-family="helvetica">Zymobacter palmae DSM 10491T (D14555)</text>
    </g>
    <g>
     <circle stroke="black" stroke-width="0.5" fill="#aaffff" cx="665.0" cy="431.0" r="1.0"/>
     <text stroke="none" x="665.0" y="431.0" font-size="20.0" font-family="helvetica">Halomonas magadiensis DSM 15367T (X92150)</text>
    </g>
    <g>
     <circle stroke="black" stroke-width="0.5" fill="#aaffff" cx="702.0" cy="227.0" r="1.0"/>
     <text stroke="none" x="702.0" y="227.0" font-size="20.0" font-family="helvetica">Chromohalobacter nigrandesensis DSM 14323T (AJ277205)</text>
    </g>
    <line stroke="black" x1="399.0" y1="738.0" x2="179.0" y2="711.0" stroke-width="0.5"/>
    <line stroke="black" x1="370.0" y1="891.0" x2="211.0" y2="865.0" stroke-width="0.5"/>
    <line stroke="black" x1="412.0" y1="1146.0" x2="276.0" y2="1119.0" stroke-width="0.5"/>
    <line stroke="black" x1="411.0" y1="1044.0" x2="242.0" y2="1007.0" stroke-width="0.5"/>
    <line stroke="black" x1="542.0" y1="585.0" x2="391.0" y2="558.0" stroke-width="0.5"/>
    <line stroke="black" x1="518.0" y1="482.0" x2="466.0" y2="455.0" stroke-width="0.5"/>
    <line stroke="black" x1="531.0" y1="994.0" x2="361.0" y2="968.0" stroke-width="0.5"/>
    <line stroke="black" x1="665.0" y1="431.0" x2="466.0" y2="455.0" stroke-width="0.5"/>
    <line stroke="black" x1="418.0" y1="1249.0" x2="356.0" y2="1224.0" stroke-width="0.5"/>
    <line stroke="black" x1="453.0" y1="1197.0" x2="356.0" y2="1224.0" stroke-width="0.5"/>
    <line stroke="black" x1="599.0" y1="1299.0" x2="77.0" y2="1260.0" stroke-width="0.5"/>
    <line stroke="black" x1="35.0" y1="277.0" x2="110.0" y2="531.0" stroke-width="0.5"/>
    <line stroke="black" x1="110.0" y1="531.0" x2="115.0" y2="773.0" stroke-width="0.5"/>
    <line stroke="black" x1="110.0" y1="531.0" x2="131.0" y2="289.0" stroke-width="0.5"/>
    <line stroke="black" x1="115.0" y1="773.0" x2="149.0" y2="875.0" stroke-width="0.5"/>
    <line stroke="black" x1="115.0" y1="773.0" x2="148.0" y2="674.0" stroke-width="0.5"/>
    <line stroke="black" x1="131.0" y1="289.0" x2="240.0" y2="458.0" stroke-width="0.5"/>
    <line stroke="black" x1="131.0" y1="289.0" x2="347.0" y2="119.0" stroke-width="0.5"/>
    <line stroke="black" x1="148.0" y1="674.0" x2="179.0" y2="711.0" stroke-width="0.5"/>
    <line stroke="black" x1="149.0" y1="875.0" x2="193.0" y2="963.0" stroke-width="0.5"/>
    <line stroke="black" x1="193.0" y1="963.0" x2="234.0" y2="1062.0" stroke-width="0.5"/>
    <line stroke="black" x1="193.0" y1="963.0" x2="211.0" y2="865.0" stroke-width="0.5"/>
    <line stroke="black" x1="240.0" y1="458.0" x2="391.0" y2="558.0" stroke-width="0.5"/>
    <line stroke="black" x1="240.0" y1="458.0" x2="313.0" y2="361.0" stroke-width="0.5"/>
    <line stroke="black" x1="234.0" y1="1062.0" x2="276.0" y2="1119.0" stroke-width="0.5"/>
    <line stroke="black" x1="234.0" y1="1062.0" x2="242.0" y2="1007.0" stroke-width="0.5"/>
    <line stroke="black" x1="347.0" y1="119.0" x2="424.0" y2="162.0" stroke-width="0.5"/>
    <line stroke="black" x1="313.0" y1="361.0" x2="366.0" y2="406.0" stroke-width="0.5"/>
    <line stroke="black" x1="313.0" y1="361.0" x2="414.0" y2="303.0" stroke-width="0.5"/>
    <line stroke="black" x1="242.0" y1="1007.0" x2="361.0" y2="968.0" stroke-width="0.5"/>
    <line stroke="black" x1="424.0" y1="162.0" x2="433.0" y2="200.0" stroke-width="0.5"/>
    <line stroke="black" x1="77.0" y1="1260.0" x2="356.0" y2="1224.0" stroke-width="0.5"/>
    <line stroke="black" x1="366.0" y1="406.0" x2="366.0" y2="406.0" stroke-width="0.5"/>
    <line stroke="black" x1="367.0" y1="416.0" x2="366.0" y2="406.0" stroke-width="0.5"/>
    <line stroke="black" x1="366.0" y1="406.0" x2="367.0" y2="416.0" stroke-width="0.5"/>
    <line stroke="black" x1="367.0" y1="416.0" x2="395.0" y2="417.0" stroke-width="0.5"/>
    <line stroke="black" x1="395.0" y1="417.0" x2="466.0" y2="455.0" stroke-width="0.5"/>
    <line stroke="black" x1="35.0" y1="277.0" x2="77.0" y2="1260.0" stroke-width="0.5"/>
    <line stroke="black" x1="442.0" y1="22.0" x2="35.0" y2="277.0" stroke-width="0.5"/>
    <line stroke="black" x1="354.0" y1="686.0" x2="179.0" y2="711.0" stroke-width="0.5"/>
    <line stroke="black" x1="335.0" y1="840.0" x2="211.0" y2="865.0" stroke-width="0.5"/>
    <line stroke="black" x1="545.0" y1="789.0" x2="149.0" y2="875.0" stroke-width="0.5"/>
    <line stroke="black" x1="482.0" y1="636.0" x2="148.0" y2="674.0" stroke-width="0.5"/>
    <line stroke="black" x1="466.0" y1="1094.0" x2="276.0" y2="1119.0" stroke-width="0.5"/>
    <line stroke="black" x1="366.0" y1="406.0" x2="367.0" y2="416.0" stroke-width="0.5"/>
    <line stroke="black" x1="521.0" y1="73.0" x2="347.0" y2="119.0" stroke-width="0.5"/>
    <line stroke="black" x1="449.0" y1="941.0" x2="361.0" y2="968.0" stroke-width="0.5"/>
    <line stroke="black" x1="491.0" y1="532.0" x2="391.0" y2="558.0" stroke-width="0.5"/>
    <line stroke="black" x1="506.0" y1="380.0" x2="395.0" y2="417.0" stroke-width="0.5"/>
    <line stroke="black" x1="495.0" y1="176.0" x2="433.0" y2="200.0" stroke-width="0.5"/>
    <line stroke="black" x1="553.0" y1="124.0" x2="424.0" y2="162.0" stroke-width="0.5"/>
    <line stroke="black" x1="511.0" y1="328.0" x2="414.0" y2="303.0" stroke-width="0.5"/>
    <line stroke="black" x1="571.0" y1="277.0" x2="414.0" y2="303.0" stroke-width="0.5"/>
    <line stroke="black" x1="702.0" y1="227.0" x2="433.0" y2="200.0" stroke-width="0.5"/>
   </g>
  </g>
 </svg>
</svg>
