<?xml version="1.0" encoding="UTF-8"?>
<svg height="800.0" width="700.0" xmlns="http://www.w3.org/2000/svg">
 <svg>
  <g>
   <g>
    <g>
     <circle stroke="black" stroke-width="0.5" fill="#aaffff" cx="6.0" cy="1721.0" r="1.0"/>
     <text stroke="none" x="6.0" y="1721.0" font-size="20.0" font-family="helvetica"/>
    </g>
    <g>
     <circle stroke="black" stroke-width="0.5" fill="#aaffff" cx="291.0" cy="1361.0" r="1.0"/>
     <text stroke="none" x="291.0" y="1361.0" font-size="10.0" font-family="helvetica">NT1.2</text>
    </g>
    <g>
     <circle stroke="black" stroke-width="0.5" fill="#aaffff" cx="323.0" cy="1123.0" r="1.0"/>
     <text stroke="none" x="323.0" y="1123.0" font-size="10.0" font-family="helvetica">NT1.3</text>
    </g>
    <g>
     <circle stroke="black" stroke-width="0.5" fill="#aaffff" cx="348.0" cy="1000.0" r="1.0"/>
     <text stroke="none" x="348.0" y="1000.0" font-size="10.0" font-family="helvetica">NT1.4</text>
    </g>
    <g>
     <circle stroke="black" stroke-width="0.5" fill="#aaffff" cx="366.0" cy="809.0" r="1.0"/>
     <text stroke="none" x="366.0" y="809.0" font-size="10.0" font-family="helvetica">NT1.5</text>
    </g>
    <g>
     <circle stroke="black" stroke-width="0.5" fill="#aaffff" cx="389.0" cy="658.0" r="1.0"/>
     <text stroke="none" x="389.0" y="658.0" font-size="10.0" font-family="helvetica">NT1.6</text>
    </g>
    <g>
     <circle stroke="black" stroke-width="0.5" fill="#aaffff" cx="412.0" cy="1599.0" r="1.0"/>
     <text stroke="none" x="412.0" y="1599.0" font-size="20.0" font-family="helvetica">100</text>
    </g>
    <g>
     <circle stroke="black" stroke-width="0.5" fill="#aaffff" cx="420.0" cy="1600.0" r="1.0"/>
     <text stroke="none" x="420.0" y="1600.0" font-size="10.0" font-family="helvetica">NT1.8</text>
    </g>
    <g>
     <circle stroke="black" stroke-width="0.5" fill="#aaffff" cx="420.0" cy="961.0" r="1.0"/>
     <text stroke="none" x="420.0" y="961.0" font-size="20.0" font-family="helvetica">75</text>
    </g>
    <g>
     <circle stroke="black" stroke-width="0.5" fill="#aaffff" cx="439.0" cy="1776.0" r="1.0"/>
     <text stroke="none" x="439.0" y="1776.0" font-size="10.0" font-family="helvetica">NT1.10</text>
    </g>
    <g>
     <circle stroke="black" stroke-width="0.5" fill="#aaffff" cx="448.0" cy="1857.0" r="1.0"/>
     <text stroke="none" x="448.0" y="1857.0" font-size="10.0" font-family="helvetica">NT1.11</text>
    </g>
    <g>
     <circle stroke="black" stroke-width="0.5" fill="#aaffff" cx="463.0" cy="1697.0" r="1.0"/>
     <text stroke="none" x="463.0" y="1697.0" font-size="10.0" font-family="helvetica">NT1.12</text>
    </g>
    <g>
     <circle stroke="black" stroke-width="0.5" fill="#aaffff" cx="500.0" cy="1051.0" r="1.0"/>
     <text stroke="none" x="500.0" y="1051.0" font-size="10.0" font-family="helvetica">NT1.13</text>
    </g>
    <g>
     <circle stroke="black" stroke-width="0.5" fill="#aaffff" cx="508.0" cy="1052.0" r="1.0"/>
     <text stroke="none" x="508.0" y="1052.0" font-size="10.0" font-family="helvetica">NT1.14</text>
    </g>
    <g>
     <circle stroke="black" stroke-width="0.5" fill="#aaffff" cx="534.0" cy="570.0" r="1.0"/>
     <text stroke="none" x="534.0" y="570.0" font-size="20.0" font-family="helvetica">100</text>
    </g>
    <g>
     <circle stroke="black" stroke-width="0.5" fill="#aaffff" cx="540.0" cy="1909.0" r="1.0"/>
     <text stroke="none" x="540.0" y="1909.0" font-size="20.0" font-family="helvetica">97</text>
    </g>
    <g>
     <circle stroke="black" stroke-width="0.5" fill="#aaffff" cx="542.0" cy="570.0" r="1.0"/>
     <text stroke="none" x="542.0" y="570.0" font-size="10.0" font-family="helvetica">NT1.17</text>
    </g>
    <g>
     <circle stroke="black" stroke-width="0.5" fill="#aaffff" cx="549.0" cy="1910.0" r="1.0"/>
     <text stroke="none" x="549.0" y="1910.0" font-size="10.0" font-family="helvetica">NT1.18</text>
    </g>
    <g>
     <circle stroke="black" stroke-width="0.5" fill="#aaffff" cx="572.0" cy="1191.0" r="1.0"/>
     <text stroke="none" x="572.0" y="1191.0" font-size="20.0" font-family="helvetica">Prosthecomicrobium pneumaticum ATCC 23633T (ABO17203)</text>
    </g>
    <g>
     <circle stroke="black" stroke-width="0.5" fill="#aaffff" cx="581.0" cy="1645.0" r="1.0"/>
     <text stroke="none" x="581.0" y="1645.0" font-size="10.0" font-family="helvetica">NT1.20</text>
    </g>
    <g>
     <circle stroke="black" stroke-width="0.5" fill="#aaffff" cx="583.0" cy="1643.0" r="1.0"/>
     <text stroke="none" x="583.0" y="1643.0" font-size="10.0" font-family="helvetica">NT1.21</text>
    </g>
    <g>
     <circle stroke="black" stroke-width="0.5" fill="#aaffff" cx="591.0" cy="1643.0" r="1.0"/>
     <text stroke="none" x="591.0" y="1643.0" font-size="10.0" font-family="helvetica">NT1.22</text>
    </g>
    <g>
     <circle stroke="black" stroke-width="0.5" fill="#aaffff" cx="599.0" cy="1596.0" r="1.0"/>
     <text stroke="none" x="599.0" y="1596.0" font-size="10.0" font-family="helvetica">NT1.23</text>
    </g>
    <g>
     <circle stroke="black" stroke-width="0.5" fill="#aaffff" cx="601.0" cy="661.0" r="1.0"/>
     <text stroke="none" x="601.0" y="661.0" font-size="20.0" font-family="helvetica">95</text>
    </g>
    <g>
     <circle stroke="black" stroke-width="0.5" fill="#aaffff" cx="609.0" cy="662.0" r="1.0"/>
     <text stroke="none" x="609.0" y="662.0" font-size="10.0" font-family="helvetica">NT1.25</text>
    </g>
    <g>
     <circle stroke="black" stroke-width="0.5" fill="#aaffff" cx="616.0" cy="478.0" r="1.0"/>
     <text stroke="none" x="616.0" y="478.0" font-size="20.0" font-family="helvetica">99</text>
    </g>
    <g>
     <circle stroke="black" stroke-width="0.5" fill="#aaffff" cx="625.0" cy="478.0" r="1.0"/>
     <text stroke="none" x="625.0" y="478.0" font-size="10.0" font-family="helvetica">NT1.27</text>
    </g>
    <g>
     <circle stroke="black" stroke-width="0.5" fill="#aaffff" cx="627.0" cy="1554.0" r="1.0"/>
     <text stroke="none" x="627.0" y="1554.0" font-size="10.0" font-family="helvetica">NT1.28</text>
    </g>
    <g>
     <circle stroke="black" stroke-width="0.5" fill="#aaffff" cx="637.0" cy="380.0" r="1.0"/>
     <text stroke="none" x="637.0" y="380.0" font-size="20.0" font-family="helvetica">72</text>
    </g>
    <g>
     <circle stroke="black" stroke-width="0.5" fill="#aaffff" cx="641.0" cy="1421.0" r="1.0"/>
     <text stroke="none" x="641.0" y="1421.0" font-size="10.0" font-family="helvetica">NT1.30</text>
    </g>
    <g>
     <circle stroke="black" stroke-width="0.5" fill="#aaffff" cx="645.0" cy="1804.0" r="1.0"/>
     <text stroke="none" x="645.0" y="1804.0" font-size="20.0" font-family="helvetica">Hyphomicrobium sulfonivorans S17 (AF235089)</text>
    </g>
    <g>
     <circle stroke="black" stroke-width="0.5" fill="#aaffff" cx="649.0" cy="1421.0" r="1.0"/>
     <text stroke="none" x="649.0" y="1421.0" font-size="10.0" font-family="helvetica">NT1.32</text>
    </g>
    <g>
     <circle stroke="black" stroke-width="0.5" fill="#aaffff" cx="654.0" cy="1693.0" r="1.0"/>
     <text stroke="none" x="654.0" y="1693.0" font-size="20.0" font-family="helvetica"> Hyphomicrobium hollandicum IFAM KB-677T (Y14303)</text>
    </g>
    <g>
     <circle stroke="black" stroke-width="0.5" fill="#aaffff" cx="658.0" cy="1860.0" r="1.0"/>
     <text stroke="none" x="658.0" y="1860.0" font-size="20.0" font-family="helvetica"> Pedomicrobium manganicum ACM 30387 (X97691)</text>
    </g>
    <g>
     <circle stroke="black" stroke-width="0.5" fill="#aaffff" cx="659.0" cy="996.0" r="1.0"/>
     <text stroke="none" x="659.0" y="996.0" font-size="10.0" font-family="helvetica">NT1.35</text>
    </g>
    <g>
     <circle stroke="black" stroke-width="0.5" fill="#aaffff" cx="660.0" cy="1107.0" r="1.0"/>
     <text stroke="none" x="660.0" y="1107.0" font-size="10.0" font-family="helvetica">NT1.36</text>
    </g>
    <g>
     <circle stroke="black" stroke-width="0.5" fill="#aaffff" cx="661.0" cy="1958.0" r="1.0"/>
     <text stroke="none" x="661.0" y="1958.0" font-size="10.0" font-family="helvetica">NT1.37</text>
    </g>
    <g>
     <circle stroke="black" stroke-width="0.5" fill="#aaffff" cx="662.0" cy="1109.0" r="1.0"/>
     <text stroke="none" x="662.0" y="1109.0" font-size="10.0" font-family="helvetica">NT1.38</text>
    </g>
    <g>
     <circle stroke="black" stroke-width="0.5" fill="#aaffff" cx="667.0" cy="995.0" r="1.0"/>
     <text stroke="none" x="667.0" y="995.0" font-size="10.0" font-family="helvetica">NT1.39</text>
    </g>
    <g>
     <circle stroke="black" stroke-width="0.5" fill="#aaffff" cx="668.0" cy="1957.0" r="1.0"/>
     <text stroke="none" x="668.0" y="1957.0" font-size="10.0" font-family="helvetica">NT1.40</text>
    </g>
    <g>
     <circle stroke="black" stroke-width="0.5" fill="#aaffff" cx="668.0" cy="1373.0" r="1.0"/>
     <text stroke="none" x="668.0" y="1373.0" font-size="10.0" font-family="helvetica">NT1.41</text>
    </g>
    <g>
     <circle stroke="black" stroke-width="0.5" fill="#aaffff" cx="669.0" cy="1109.0" r="1.0"/>
     <text stroke="none" x="669.0" y="1109.0" font-size="10.0" font-family="helvetica">NT1.42</text>
    </g>
    <g>
     <circle stroke="black" stroke-width="0.5" fill="#aaffff" cx="670.0" cy="1638.0" r="1.0"/>
     <text stroke="none" x="670.0" y="1638.0" font-size="10.0" font-family="helvetica">NT1.43</text>
    </g>
    <g>
     <circle stroke="black" stroke-width="0.5" fill="#aaffff" cx="681.0" cy="1749.0" r="1.0"/>
     <text stroke="none" x="681.0" y="1749.0" font-size="20.0" font-family="helvetica">Filomicrobium fusiforme DSM 5304T (Y14313)</text>
    </g>
    <g>
     <circle stroke="black" stroke-width="0.5" fill="#aaffff" cx="681.0" cy="1582.0" r="1.0"/>
     <text stroke="none" x="681.0" y="1582.0" font-size="10.0" font-family="helvetica">NT1.45</text>
    </g>
    <g>
     <circle stroke="black" stroke-width="0.5" fill="#aaffff" cx="685.0" cy="1247.0" r="1.0"/>
     <text stroke="none" x="685.0" y="1247.0" font-size="20.0" font-family="helvetica">Rhodomicrobium vannielii DSM 162T (M34127)</text>
    </g>
    <g>
     <circle stroke="black" stroke-width="0.5" fill="#aaffff" cx="687.0" cy="1331.0" r="1.0"/>
     <text stroke="none" x="687.0" y="1331.0" font-size="10.0" font-family="helvetica">NT1.47</text>
    </g>
    <g>
     <circle stroke="black" stroke-width="0.5" fill="#aaffff" cx="689.0" cy="1916.0" r="1.0"/>
     <text stroke="none" x="689.0" y="1916.0" font-size="20.0" font-family="helvetica"> Pedomicrobium ferrugineum DSM 1540T (X97690)</text>
    </g>
    <g>
     <circle stroke="black" stroke-width="0.5" fill="#aaffff" cx="689.0" cy="1999.0" r="1.0"/>
     <text stroke="none" x="689.0" y="1999.0" font-size="20.0" font-family="helvetica">100</text>
    </g>
    <g>
     <circle stroke="black" stroke-width="0.5" fill="#aaffff" cx="691.0" cy="2002.0" r="1.0"/>
     <text stroke="none" x="691.0" y="2002.0" font-size="20.0" font-family="helvetica">100</text>
    </g>
    <g>
     <circle stroke="black" stroke-width="0.5" fill="#aaffff" cx="692.0" cy="1525.0" r="1.0"/>
     <text stroke="none" x="692.0" y="1525.0" font-size="10.0" font-family="helvetica">NT1.51</text>
    </g>
    <g>
     <circle stroke="black" stroke-width="0.5" fill="#aaffff" cx="696.0" cy="2028.0" r="1.0"/>
     <text stroke="none" x="696.0" y="2028.0" font-size="20.0" font-family="helvetica">Pedomicrobium australicum ATCC 43611T (X97693)</text>
    </g>
    <g>
     <circle stroke="black" stroke-width="0.5" fill="#aaffff" cx="698.0" cy="2002.0" r="1.0"/>
     <text stroke="none" x="698.0" y="2002.0" font-size="10.0" font-family="helvetica">NT1.53</text>
    </g>
    <g>
     <circle stroke="black" stroke-width="0.5" fill="#aaffff" cx="704.0" cy="1080.0" r="1.0"/>
     <text stroke="none" x="704.0" y="1080.0" font-size="10.0" font-family="helvetica">NT1.54</text>
    </g>
    <g>
     <circle stroke="black" stroke-width="0.5" fill="#aaffff" cx="704.0" cy="266.0" r="1.0"/>
     <text stroke="none" x="704.0" y="266.0" font-size="20.0" font-family="helvetica">98</text>
    </g>
    <g>
     <circle stroke="black" stroke-width="0.5" fill="#aaffff" cx="706.0" cy="871.0" r="1.0"/>
     <text stroke="none" x="706.0" y="871.0" font-size="10.0" font-family="helvetica">NT1.56</text>
    </g>
    <g>
     <circle stroke="black" stroke-width="0.5" fill="#aaffff" cx="707.0" cy="1359.0" r="1.0"/>
     <text stroke="none" x="707.0" y="1359.0" font-size="10.0" font-family="helvetica">NT1.57</text>
    </g>
    <g>
     <circle stroke="black" stroke-width="0.5" fill="#aaffff" cx="711.0" cy="968.0" r="1.0"/>
     <text stroke="none" x="711.0" y="968.0" font-size="10.0" font-family="helvetica">NT1.58</text>
    </g>
    <g>
     <circle stroke="black" stroke-width="0.5" fill="#aaffff" cx="712.0" cy="266.0" r="1.0"/>
     <text stroke="none" x="712.0" y="266.0" font-size="10.0" font-family="helvetica">NT1.59</text>
    </g>
    <g>
     <circle stroke="black" stroke-width="0.5" fill="#aaffff" cx="715.0" cy="870.0" r="1.0"/>
     <text stroke="none" x="715.0" y="870.0" font-size="10.0" font-family="helvetica">NT1.60</text>
    </g>
    <g>
     <circle stroke="black" stroke-width="0.5" fill="#aaffff" cx="717.0" cy="1972.0" r="1.0"/>
     <text stroke="none" x="717.0" y="1972.0" font-size="10.0" font-family="helvetica">NT1.61</text>
    </g>
    <g>
     <circle stroke="black" stroke-width="0.5" fill="#aaffff" cx="723.0" cy="340.0" r="1.0"/>
     <text stroke="none" x="723.0" y="340.0" font-size="10.0" font-family="helvetica">NT1.62</text>
    </g>
    <g>
     <circle stroke="black" stroke-width="0.5" fill="#aaffff" cx="725.0" cy="1024.0" r="1.0"/>
     <text stroke="none" x="725.0" y="1024.0" font-size="20.0" font-family="helvetica"> Blastochloris viridis ATCC 19567T (D25314)</text>
    </g>
    <g>
     <circle stroke="black" stroke-width="0.5" fill="#aaffff" cx="729.0" cy="191.0" r="1.0"/>
     <text stroke="none" x="729.0" y="191.0" font-size="10.0" font-family="helvetica">NT1.64</text>
    </g>
    <g>
     <circle stroke="black" stroke-width="0.5" fill="#aaffff" cx="736.0" cy="1470.0" r="1.0"/>
     <text stroke="none" x="736.0" y="1470.0" font-size="20.0" font-family="helvetica"> Hyphomicrobium denitrificans TK 0145T (Y14308)</text>
    </g>
    <g>
     <circle stroke="black" stroke-width="0.5" fill="#aaffff" cx="736.0" cy="1414.0" r="1.0"/>
     <text stroke="none" x="736.0" y="1414.0" font-size="10.0" font-family="helvetica">NT1.66</text>
    </g>
    <g>
     <circle stroke="black" stroke-width="0.5" fill="#aaffff" cx="739.0" cy="139.0" r="1.0"/>
     <text stroke="none" x="739.0" y="139.0" font-size="10.0" font-family="helvetica">NT1.67</text>
    </g>
    <g>
     <circle stroke="black" stroke-width="0.5" fill="#aaffff" cx="741.0" cy="1136.0" r="1.0"/>
     <text stroke="none" x="741.0" y="1136.0" font-size="10.0" font-family="helvetica">NT1.68</text>
    </g>
    <g>
     <circle stroke="black" stroke-width="0.5" fill="#aaffff" cx="759.0" cy="578.0" r="1.0"/>
     <text stroke="none" x="759.0" y="578.0" font-size="20.0" font-family="helvetica">Devosia geojensis BD-c194T (EF575560)</text>
    </g>
    <g>
     <circle stroke="black" stroke-width="0.5" fill="#aaffff" cx="759.0" cy="493.0" r="1.0"/>
     <text stroke="none" x="759.0" y="493.0" font-size="10.0" font-family="helvetica">NT1.70</text>
    </g>
    <g>
     <circle stroke="black" stroke-width="0.5" fill="#aaffff" cx="766.0" cy="494.0" r="1.0"/>
     <text stroke="none" x="766.0" y="494.0" font-size="10.0" font-family="helvetica">NT1.71</text>
    </g>
    <g>
     <circle stroke="black" stroke-width="0.5" fill="#aaffff" cx="782.0" cy="382.0" r="1.0"/>
     <text stroke="none" x="782.0" y="382.0" font-size="20.0" font-family="helvetica">0</text>
    </g>
    <g>
     <circle stroke="black" stroke-width="0.5" fill="#aaffff" cx="783.0" cy="745.0" r="1.0"/>
     <text stroke="none" x="783.0" y="745.0" font-size="20.0" font-family="helvetica">Ancalomicrobium adetum DSM 4722T (AB095950)</text>
    </g>
    <g>
     <circle stroke="black" stroke-width="0.5" fill="#aaffff" cx="791.0" cy="382.0" r="1.0"/>
     <text stroke="none" x="791.0" y="382.0" font-size="10.0" font-family="helvetica">NT1.74</text>
    </g>
    <g>
     <circle stroke="black" stroke-width="0.5" fill="#aaffff" cx="791.0" cy="522.0" r="1.0"/>
     <text stroke="none" x="791.0" y="522.0" font-size="10.0" font-family="helvetica">NT1.75</text>
    </g>
    <g>
     <circle stroke="black" stroke-width="0.5" fill="#aaffff" cx="795.0" cy="829.0" r="1.0"/>
     <text stroke="none" x="795.0" y="829.0" font-size="10.0" font-family="helvetica">NT1.76</text>
    </g>
    <g>
     <circle stroke="black" stroke-width="0.5" fill="#aaffff" cx="797.0" cy="857.0" r="1.0"/>
     <text stroke="none" x="797.0" y="857.0" font-size="10.0" font-family="helvetica">NT1.77</text>
    </g>
    <g>
     <circle stroke="black" stroke-width="0.5" fill="#aaffff" cx="799.0" cy="800.0" r="1.0"/>
     <text stroke="none" x="799.0" y="800.0" font-size="20.0" font-family="helvetica">Angulomicrobium amanitiforme NCIMB 1785T (AJ535709)</text>
    </g>
    <g>
     <circle stroke="black" stroke-width="0.5" fill="#aaffff" cx="803.0" cy="828.0" r="1.0"/>
     <text stroke="none" x="803.0" y="828.0" font-size="10.0" font-family="helvetica">NT1.79</text>
    </g>
    <g>
     <circle stroke="black" stroke-width="0.5" fill="#aaffff" cx="804.0" cy="466.0" r="1.0"/>
     <text stroke="none" x="804.0" y="466.0" font-size="20.0" font-family="helvetica"> Devosia ginsengisolf Gsoil 326 (AB271045)</text>
    </g>
    <g>
     <circle stroke="black" stroke-width="0.5" fill="#aaffff" cx="819.0" cy="354.0" r="1.0"/>
     <text stroke="none" x="819.0" y="354.0" font-size="20.0" font-family="helvetica"> Devosia riboflavina ATCC 9526T (D49423)</text>
    </g>
    <g>
     <circle stroke="black" stroke-width="0.5" fill="#aaffff" cx="825.0" cy="243.0" r="1.0"/>
     <text stroke="none" x="825.0" y="243.0" font-size="20.0" font-family="helvetica">Devosia neptuniae J1 T (AF469072)</text>
    </g>
    <g>
     <circle stroke="black" stroke-width="0.5" fill="#aaffff" cx="829.0" cy="298.0" r="1.0"/>
     <text stroke="none" x="829.0" y="298.0" font-size="20.0" font-family="helvetica">Devosia subaequoris HST3-14T (AM293857)</text>
    </g>
    <g>
     <circle stroke="black" stroke-width="0.5" fill="#aaffff" cx="836.0" cy="411.0" r="1.0"/>
     <text stroke="none" x="836.0" y="411.0" font-size="10.0" font-family="helvetica">NT1.84</text>
    </g>
    <g>
     <circle stroke="black" stroke-width="0.5" fill="#aaffff" cx="844.0" cy="187.0" r="1.0"/>
     <text stroke="none" x="844.0" y="187.0" font-size="10.0" font-family="helvetica">NT1.85</text>
    </g>
    <g>
     <circle stroke="black" stroke-width="0.5" fill="#aaffff" cx="844.0" cy="912.0" r="1.0"/>
     <text stroke="none" x="844.0" y="912.0" font-size="20.0" font-family="helvetica">Methylorhabdus multivorans DM13T (AFOO4845)</text>
    </g>
    <g>
     <circle stroke="black" stroke-width="0.5" fill="#aaffff" cx="858.0" cy="90.0" r="1.0"/>
     <text stroke="none" x="858.0" y="90.0" font-size="10.0" font-family="helvetica">NT1.87</text>
    </g>
    <g>
     <circle stroke="black" stroke-width="0.5" fill="#aaffff" cx="859.0" cy="20.0" r="1.0"/>
     <text stroke="none" x="859.0" y="20.0" font-size="10.0" font-family="helvetica">NT1.88</text>
    </g>
    <g>
     <circle stroke="black" stroke-width="0.5" fill="#aaffff" cx="863.0" cy="132.0" r="1.0"/>
     <text stroke="none" x="863.0" y="132.0" font-size="10.0" font-family="helvetica">NT1.89</text>
    </g>
    <g>
     <circle stroke="black" stroke-width="0.5" fill="#aaffff" cx="867.0" cy="90.0" r="1.0"/>
     <text stroke="none" x="867.0" y="90.0" font-size="10.0" font-family="helvetica">NT1.90</text>
    </g>
    <g>
     <circle stroke="black" stroke-width="0.5" fill="#aaffff" cx="884.0" cy="633.0" r="1.0"/>
     <text stroke="none" x="884.0" y="633.0" font-size="10.0" font-family="helvetica">NT1.91</text>
    </g>
    <g>
     <circle stroke="black" stroke-width="0.5" fill="#aaffff" cx="886.0" cy="1302.0" r="1.0"/>
     <text stroke="none" x="886.0" y="1302.0" font-size="10.0" font-family="helvetica">NT1.92</text>
    </g>
    <g>
     <circle stroke="black" stroke-width="0.5" fill="#aaffff" cx="936.0" cy="690.0" r="1.0"/>
     <text stroke="none" x="936.0" y="690.0" font-size="10.0" font-family="helvetica">NT1.93</text>
    </g>
    <line stroke="black" x1="825.0" y1="243.0" x2="729.0" y2="191.0" stroke-width="0.5"/>
    <line stroke="black" x1="829.0" y1="298.0" x2="723.0" y2="340.0" stroke-width="0.5"/>
    <line stroke="black" x1="819.0" y1="354.0" x2="782.0" y2="382.0" stroke-width="0.5"/>
    <line stroke="black" x1="804.0" y1="466.0" x2="759.0" y2="493.0" stroke-width="0.5"/>
    <line stroke="black" x1="759.0" y1="578.0" x2="616.0" y2="478.0" stroke-width="0.5"/>
    <line stroke="black" x1="783.0" y1="745.0" x2="389.0" y2="658.0" stroke-width="0.5"/>
    <line stroke="black" x1="572.0" y1="1191.0" x2="348.0" y2="1000.0" stroke-width="0.5"/>
    <line stroke="black" x1="725.0" y1="1024.0" x2="659.0" y2="996.0" stroke-width="0.5"/>
    <line stroke="black" x1="799.0" y1="800.0" x2="795.0" y2="829.0" stroke-width="0.5"/>
    <line stroke="black" x1="844.0" y1="912.0" x2="706.0" y2="871.0" stroke-width="0.5"/>
    <line stroke="black" x1="685.0" y1="1247.0" x2="323.0" y2="1123.0" stroke-width="0.5"/>
    <line stroke="black" x1="6.0" y1="1721.0" x2="291.0" y2="1361.0" stroke-width="0.5"/>
    <line stroke="black" x1="645.0" y1="1804.0" x2="448.0" y2="1857.0" stroke-width="0.5"/>
    <line stroke="black" x1="736.0" y1="1470.0" x2="641.0" y2="1421.0" stroke-width="0.5"/>
    <line stroke="black" x1="681.0" y1="1749.0" x2="463.0" y2="1697.0" stroke-width="0.5"/>
    <line stroke="black" x1="654.0" y1="1693.0" x2="581.0" y2="1645.0" stroke-width="0.5"/>
    <line stroke="black" x1="658.0" y1="1860.0" x2="540.0" y2="1909.0" stroke-width="0.5"/>
    <line stroke="black" x1="689.0" y1="1916.0" x2="661.0" y2="1958.0" stroke-width="0.5"/>
    <line stroke="black" x1="696.0" y1="2028.0" x2="691.0" y2="2002.0" stroke-width="0.5"/>
    <line stroke="black" x1="704.0" y1="266.0" x2="637.0" y2="380.0" stroke-width="0.5"/>
    <line stroke="black" x1="704.0" y1="266.0" x2="723.0" y2="340.0" stroke-width="0.5"/>
    <line stroke="black" x1="637.0" y1="380.0" x2="616.0" y2="478.0" stroke-width="0.5"/>
    <line stroke="black" x1="616.0" y1="478.0" x2="534.0" y2="570.0" stroke-width="0.5"/>
    <line stroke="black" x1="389.0" y1="658.0" x2="366.0" y2="809.0" stroke-width="0.5"/>
    <line stroke="black" x1="366.0" y1="809.0" x2="348.0" y2="1000.0" stroke-width="0.5"/>
    <line stroke="black" x1="366.0" y1="809.0" x2="420.0" y2="961.0" stroke-width="0.5"/>
    <line stroke="black" x1="420.0" y1="961.0" x2="706.0" y2="871.0" stroke-width="0.5"/>
    <line stroke="black" x1="348.0" y1="1000.0" x2="323.0" y2="1123.0" stroke-width="0.5"/>
    <line stroke="black" x1="323.0" y1="1123.0" x2="291.0" y2="1361.0" stroke-width="0.5"/>
    <line stroke="black" x1="291.0" y1="1361.0" x2="412.0" y2="1599.0" stroke-width="0.5"/>
    <line stroke="black" x1="412.0" y1="1599.0" x2="439.0" y2="1776.0" stroke-width="0.5"/>
    <line stroke="black" x1="439.0" y1="1776.0" x2="448.0" y2="1857.0" stroke-width="0.5"/>
    <line stroke="black" x1="439.0" y1="1776.0" x2="463.0" y2="1697.0" stroke-width="0.5"/>
    <line stroke="black" x1="448.0" y1="1857.0" x2="540.0" y2="1909.0" stroke-width="0.5"/>
    <line stroke="black" x1="540.0" y1="1909.0" x2="661.0" y2="1958.0" stroke-width="0.5"/>
   </g>
  </g>
 </svg>
</svg>
