<?xml version="1.0" encoding="UTF-8"?>
<svg height="800.0" width="700.0" xmlns="http://www.w3.org/2000/svg">
 <svg>
  <g>
   <g>
    <g>
     <circle stroke="black" stroke-width="0.5" fill="#aaffff" cx="28.0" cy="685.0" r="1.0"/>
     <text stroke="none" x="28.0" y="685.0" font-size="10.0" font-family="helvetica">NT1.1</text>
    </g>
    <g>
     <circle stroke="black" stroke-width="0.5" fill="#aaffff" cx="70.0" cy="773.0" r="1.0"/>
     <text stroke="none" x="70.0" y="773.0" font-size="20.0" font-family="helvetica">73</text>
    </g>
    <g>
     <circle stroke="black" stroke-width="0.5" fill="#aaffff" cx="91.0" cy="595.0" r="1.0"/>
     <text stroke="none" x="91.0" y="595.0" font-size="20.0" font-family="helvetica">99</text>
    </g>
    <g>
     <circle stroke="black" stroke-width="0.5" fill="#aaffff" cx="103.0" cy="536.0" r="1.0"/>
     <text stroke="none" x="103.0" y="536.0" font-size="10.0" font-family="helvetica">NT1.4</text>
    </g>
    <g>
     <circle stroke="black" stroke-width="0.5" fill="#aaffff" cx="109.0" cy="455.0" r="1.0"/>
     <text stroke="none" x="109.0" y="455.0" font-size="20.0" font-family="helvetica">59</text>
    </g>
    <g>
     <circle stroke="black" stroke-width="0.5" fill="#aaffff" cx="133.0" cy="349.0" r="1.0"/>
     <text stroke="none" x="133.0" y="349.0" font-size="20.0" font-family="helvetica">60</text>
    </g>
    <g>
     <circle stroke="black" stroke-width="0.5" fill="#aaffff" cx="139.0" cy="229.0" r="1.0"/>
     <text stroke="none" x="139.0" y="229.0" font-size="10.0" font-family="helvetica">NT1.7</text>
    </g>
    <g>
     <circle stroke="black" stroke-width="0.5" fill="#aaffff" cx="145.0" cy="559.0" r="1.0"/>
     <text stroke="none" x="145.0" y="559.0" font-size="10.0" font-family="helvetica">NT1.8</text>
    </g>
    <g>
     <circle stroke="black" stroke-width="0.5" fill="#aaffff" cx="150.0" cy="469.0" r="1.0"/>
     <text stroke="none" x="150.0" y="469.0" font-size="20.0" font-family="helvetica">59</text>
    </g>
    <g>
     <circle stroke="black" stroke-width="0.5" fill="#aaffff" cx="154.0" cy="321.0" r="1.0"/>
     <text stroke="none" x="154.0" y="321.0" font-size="20.0" font-family="helvetica">60</text>
    </g>
    <g>
     <circle stroke="black" stroke-width="0.5" fill="#aaffff" cx="161.0" cy="137.0" r="1.0"/>
     <text stroke="none" x="161.0" y="137.0" font-size="20.0" font-family="helvetica">64</text>
    </g>
    <g>
     <circle stroke="black" stroke-width="0.5" fill="#aaffff" cx="174.0" cy="207.0" r="1.0"/>
     <text stroke="none" x="174.0" y="207.0" font-size="10.0" font-family="helvetica">NT1.12</text>
    </g>
    <g>
     <circle stroke="black" stroke-width="0.5" fill="#aaffff" cx="207.0" cy="65.0" r="1.0"/>
     <text stroke="none" x="207.0" y="65.0" font-size="20.0" font-family="helvetica">99</text>
    </g>
    <g>
     <circle stroke="black" stroke-width="0.5" fill="#aaffff" cx="216.0" cy="741.0" r="1.0"/>
     <text stroke="none" x="216.0" y="741.0" font-size="10.0" font-family="helvetica">NT1.14</text>
    </g>
    <g>
     <circle stroke="black" stroke-width="0.5" fill="#aaffff" cx="222.0" cy="293.0" r="1.0"/>
     <text stroke="none" x="222.0" y="293.0" font-size="10.0" font-family="helvetica">NT1.15</text>
    </g>
    <g>
     <circle stroke="black" stroke-width="0.5" fill="#aaffff" cx="223.0" cy="27.0" r="1.0"/>
     <text stroke="none" x="223.0" y="27.0" font-size="10.0" font-family="helvetica">NT1.16</text>
    </g>
    <g>
     <circle stroke="black" stroke-width="0.5" fill="#aaffff" cx="223.0" cy="436.0" r="1.0"/>
     <text stroke="none" x="223.0" y="436.0" font-size="20.0" font-family="helvetica">100</text>
    </g>
    <g>
     <circle stroke="black" stroke-width="0.5" fill="#aaffff" cx="231.0" cy="102.0" r="1.0"/>
     <text stroke="none" x="231.0" y="102.0" font-size="10.0" font-family="helvetica">NT1.18</text>
    </g>
    <g>
     <circle stroke="black" stroke-width="0.5" fill="#aaffff" cx="239.0" cy="579.0" r="1.0"/>
     <text stroke="none" x="239.0" y="579.0" font-size="20.0" font-family="helvetica">Paracraurococcus ruber NS89T (D85827)</text>
    </g>
    <g>
     <circle stroke="black" stroke-width="0.5" fill="#aaffff" cx="241.0" cy="807.0" r="1.0"/>
     <text stroke="none" x="241.0" y="807.0" font-size="20.0" font-family="helvetica">Acidiphilium cryptum ATCC 33463T (D30773)</text>
    </g>
    <g>
     <circle stroke="black" stroke-width="0.5" fill="#aaffff" cx="242.0" cy="464.0" r="1.0"/>
     <text stroke="none" x="242.0" y="464.0" font-size="20.0" font-family="helvetica"> Roseomonas mucosa MDA5527T (AF538712)</text>
    </g>
    <g>
     <circle stroke="black" stroke-width="0.5" fill="#aaffff" cx="247.0" cy="408.0" r="1.0"/>
     <text stroke="none" x="247.0" y="408.0" font-size="10.0" font-family="helvetica">NT1.22</text>
    </g>
    <g>
     <circle stroke="black" stroke-width="0.5" fill="#aaffff" cx="248.0" cy="616.0" r="1.0"/>
     <text stroke="none" x="248.0" y="616.0" font-size="20.0" font-family="helvetica">Belnapia moabensis CPZCT (AJ871428)</text>
    </g>
    <g>
     <circle stroke="black" stroke-width="0.5" fill="#aaffff" cx="253.0" cy="427.0" r="1.0"/>
     <text stroke="none" x="253.0" y="427.0" font-size="10.0" font-family="helvetica">NT1.24</text>
    </g>
    <g>
     <circle stroke="black" stroke-width="0.5" fill="#aaffff" cx="260.0" cy="388.0" r="1.0"/>
     <text stroke="none" x="260.0" y="388.0" font-size="10.0" font-family="helvetica">NT1.25</text>
    </g>
    <g>
     <circle stroke="black" stroke-width="0.5" fill="#aaffff" cx="261.0" cy="236.0" r="1.0"/>
     <text stroke="none" x="261.0" y="236.0" font-size="20.0" font-family="helvetica">Roseomonas aquatica TR53T (AM231587)</text>
    </g>
    <g>
     <circle stroke="black" stroke-width="0.5" fill="#aaffff" cx="264.0" cy="313.0" r="1.0"/>
     <text stroke="none" x="264.0" y="313.0" font-size="10.0" font-family="helvetica">NT1.27</text>
    </g>
    <g>
     <circle stroke="black" stroke-width="0.5" fill="#aaffff" cx="270.0" cy="503.0" r="1.0"/>
     <text stroke="none" x="270.0" y="503.0" font-size="20.0" font-family="helvetica">Muricoccus roseus 173-967 (AJ488505)</text>
    </g>
    <g>
     <circle stroke="black" stroke-width="0.5" fill="#aaffff" cx="276.0" cy="122.0" r="1.0"/>
     <text stroke="none" x="276.0" y="122.0" font-size="10.0" font-family="helvetica">NT1.29</text>
    </g>
    <g>
     <circle stroke="black" stroke-width="0.5" fill="#aaffff" cx="276.0" cy="712.0" r="1.0"/>
     <text stroke="none" x="276.0" y="712.0" font-size="10.0" font-family="helvetica">NT1.30</text>
    </g>
    <g>
     <circle stroke="black" stroke-width="0.5" fill="#aaffff" cx="279.0" cy="273.0" r="1.0"/>
     <text stroke="none" x="279.0" y="273.0" font-size="10.0" font-family="helvetica">NT1.31</text>
    </g>
    <g>
     <circle stroke="black" stroke-width="0.5" fill="#aaffff" cx="289.0" cy="83.0" r="1.0"/>
     <text stroke="none" x="289.0" y="83.0" font-size="10.0" font-family="helvetica">NT1.32</text>
    </g>
    <g>
     <circle stroke="black" stroke-width="0.5" fill="#aaffff" cx="299.0" cy="47.0" r="1.0"/>
     <text stroke="none" x="299.0" y="47.0" font-size="20.0" font-family="helvetica">Teichococcus ludipueritiae 170-96T (AJ488504)</text>
    </g>
    <g>
     <circle stroke="black" stroke-width="0.5" fill="#aaffff" cx="304.0" cy="8.0" r="1.0"/>
     <text stroke="none" x="304.0" y="8.0" font-size="20.0" font-family="helvetica">Roseomonas cenzicalis ATCC 49957T (AY150047)</text>
    </g>
    <g>
     <circle stroke="black" stroke-width="0.5" fill="#aaffff" cx="311.0" cy="655.0" r="1.0"/>
     <text stroke="none" x="311.0" y="655.0" font-size="20.0" font-family="helvetica">Roseococcus thiosulfatophilus RBST (X72908)</text>
    </g>
    <g>
     <circle stroke="black" stroke-width="0.5" fill="#aaffff" cx="311.0" cy="179.0" r="1.0"/>
     <text stroke="none" x="311.0" y="179.0" font-size="10.0" font-family="helvetica">NT1.36</text>
    </g>
    <g>
     <circle stroke="black" stroke-width="0.5" fill="#aaffff" cx="320.0" cy="351.0" r="1.0"/>
     <text stroke="none" x="320.0" y="351.0" font-size="10.0" font-family="helvetica">NT1.37</text>
    </g>
    <g>
     <circle stroke="black" stroke-width="0.5" fill="#aaffff" cx="324.0" cy="769.0" r="1.0"/>
     <text stroke="none" x="324.0" y="769.0" font-size="20.0" font-family="helvetica"> Acetobacter aceti NCIMB 86217 (X74066)</text>
    </g>
    <g>
     <circle stroke="black" stroke-width="0.5" fill="#aaffff" cx="326.0" cy="692.0" r="1.0"/>
     <text stroke="none" x="326.0" y="692.0" font-size="10.0" font-family="helvetica">NT1.39</text>
    </g>
    <g>
     <circle stroke="black" stroke-width="0.5" fill="#aaffff" cx="329.0" cy="731.0" r="1.0"/>
     <text stroke="none" x="329.0" y="731.0" font-size="10.0" font-family="helvetica">NT1.40</text>
    </g>
    <g>
     <circle stroke="black" stroke-width="0.5" fill="#aaffff" cx="347.0" cy="540.0" r="1.0"/>
     <text stroke="none" x="347.0" y="540.0" font-size="10.0" font-family="helvetica">NT1.41</text>
    </g>
    <g>
     <circle stroke="black" stroke-width="0.5" fill="#aaffff" cx="349.0" cy="160.0" r="1.0"/>
     <text stroke="none" x="349.0" y="160.0" font-size="10.0" font-family="helvetica">NT1.42</text>
    </g>
    <g>
     <circle stroke="black" stroke-width="0.5" fill="#aaffff" cx="362.0" cy="198.0" r="1.0"/>
     <text stroke="none" x="362.0" y="198.0" font-size="20.0" font-family="helvetica"> Roseomonas terrae DS-48T (EF363716)</text>
    </g>
    <g>
     <circle stroke="black" stroke-width="0.5" fill="#aaffff" cx="531.0" cy="847.0" r="1.0"/>
     <text stroke="none" x="531.0" y="847.0" font-size="20.0" font-family="helvetica">Methylobacterium organophilum JCM 28337 (D32226)</text>
    </g>
    <g>
     <circle stroke="black" stroke-width="0.5" fill="#aaffff" cx="1.0" cy="766.0" r="1.0"/>
     <text stroke="none" x="1.0" y="766.0" font-size="10.0" font-family="helvetica">NT1.45</text>
    </g>
    <line stroke="black" x1="304.0" y1="8.0" x2="223.0" y2="27.0" stroke-width="0.5"/>
    <line stroke="black" x1="299.0" y1="47.0" x2="223.0" y2="27.0" stroke-width="0.5"/>
    <line stroke="black" x1="261.0" y1="236.0" x2="174.0" y2="207.0" stroke-width="0.5"/>
    <line stroke="black" x1="362.0" y1="198.0" x2="311.0" y2="179.0" stroke-width="0.5"/>
    <line stroke="black" x1="242.0" y1="464.0" x2="223.0" y2="436.0" stroke-width="0.5"/>
    <line stroke="black" x1="270.0" y1="503.0" x2="150.0" y2="469.0" stroke-width="0.5"/>
    <line stroke="black" x1="239.0" y1="579.0" x2="145.0" y2="559.0" stroke-width="0.5"/>
    <line stroke="black" x1="248.0" y1="616.0" x2="103.0" y2="536.0" stroke-width="0.5"/>
    <line stroke="black" x1="311.0" y1="655.0" x2="91.0" y2="595.0" stroke-width="0.5"/>
    <line stroke="black" x1="241.0" y1="807.0" x2="70.0" y2="773.0" stroke-width="0.5"/>
    <line stroke="black" x1="324.0" y1="769.0" x2="216.0" y2="741.0" stroke-width="0.5"/>
    <line stroke="black" x1="223.0" y1="27.0" x2="207.0" y2="65.0" stroke-width="0.5"/>
    <line stroke="black" x1="161.0" y1="137.0" x2="139.0" y2="229.0" stroke-width="0.5"/>
    <line stroke="black" x1="161.0" y1="137.0" x2="174.0" y2="207.0" stroke-width="0.5"/>
    <line stroke="black" x1="133.0" y1="349.0" x2="109.0" y2="455.0" stroke-width="0.5"/>
    <line stroke="black" x1="133.0" y1="349.0" x2="150.0" y2="469.0" stroke-width="0.5"/>
    <line stroke="black" x1="109.0" y1="455.0" x2="103.0" y2="536.0" stroke-width="0.5"/>
    <line stroke="black" x1="103.0" y1="536.0" x2="91.0" y2="595.0" stroke-width="0.5"/>
    <line stroke="black" x1="91.0" y1="595.0" x2="28.0" y2="685.0" stroke-width="0.5"/>
    <line stroke="black" x1="28.0" y1="685.0" x2="70.0" y2="773.0" stroke-width="0.5"/>
    <line stroke="black" x1="1.0" y1="766.0" x2="531.0" y2="847.0" stroke-width="0.5"/>
    <line stroke="black" x1="1.0" y1="766.0" x2="28.0" y2="685.0" stroke-width="0.5"/>
   </g>
  </g>
 </svg>
</svg>
