<?xml version="1.0" encoding="UTF-8"?>
<svg height="800.0" width="700.0" xmlns="http://www.w3.org/2000/svg">
 <svg>
  <g>
   <g>
    <g>
     <circle stroke="black" stroke-width="0.5" fill="#aaffff" cx="1.0" cy="803.0" r="1.0"/>
     <text stroke="none" x="1.0" y="803.0" font-size="20.0" font-family="helvetica"/>
    </g>
    <g>
     <circle stroke="black" stroke-width="0.5" fill="#aaffff" cx="359.0" cy="678.0" r="1.0"/>
     <text stroke="none" x="359.0" y="678.0" font-size="10.0" font-family="helvetica">NT1.2</text>
    </g>
    <g>
     <circle stroke="black" stroke-width="0.5" fill="#aaffff" cx="412.0" cy="846.0" r="1.0"/>
     <text stroke="none" x="412.0" y="846.0" font-size="20.0" font-family="helvetica">68</text>
    </g>
    <g>
     <circle stroke="black" stroke-width="0.5" fill="#aaffff" cx="642.0" cy="508.0" r="1.0"/>
     <text stroke="none" x="642.0" y="508.0" font-size="10.0" font-family="helvetica">NT1.4</text>
    </g>
    <g>
     <circle stroke="black" stroke-width="0.5" fill="#aaffff" cx="674.0" cy="604.0" r="1.0"/>
     <text stroke="none" x="674.0" y="604.0" font-size="10.0" font-family="helvetica">NT1.5</text>
    </g>
    <g>
     <circle stroke="black" stroke-width="0.5" fill="#aaffff" cx="702.0" cy="413.0" r="1.0"/>
     <text stroke="none" x="702.0" y="413.0" font-size="10.0" font-family="helvetica">NT1.6</text>
    </g>
    <g>
     <circle stroke="black" stroke-width="0.5" fill="#aaffff" cx="716.0" cy="349.0" r="1.0"/>
     <text stroke="none" x="716.0" y="349.0" font-size="10.0" font-family="helvetica">NT1.7</text>
    </g>
    <g>
     <circle stroke="black" stroke-width="0.5" fill="#aaffff" cx="738.0" cy="675.0" r="1.0"/>
     <text stroke="none" x="738.0" y="675.0" font-size="20.0" font-family="helvetica">87</text>
    </g>
    <g>
     <circle stroke="black" stroke-width="0.5" fill="#aaffff" cx="750.0" cy="280.0" r="1.0"/>
     <text stroke="none" x="750.0" y="280.0" font-size="10.0" font-family="helvetica">NT1.9</text>
    </g>
    <g>
     <circle stroke="black" stroke-width="0.5" fill="#aaffff" cx="756.0" cy="732.0" r="1.0"/>
     <text stroke="none" x="756.0" y="732.0" font-size="10.0" font-family="helvetica">NT1.10</text>
    </g>
    <g>
     <circle stroke="black" stroke-width="0.5" fill="#aaffff" cx="758.0" cy="619.0" r="1.0"/>
     <text stroke="none" x="758.0" y="619.0" font-size="10.0" font-family="helvetica">NT1.11</text>
    </g>
    <g>
     <circle stroke="black" stroke-width="0.5" fill="#aaffff" cx="786.0" cy="198.0" r="1.0"/>
     <text stroke="none" x="786.0" y="198.0" font-size="10.0" font-family="helvetica">NT1.12</text>
    </g>
    <g>
     <circle stroke="black" stroke-width="0.5" fill="#aaffff" cx="800.0" cy="219.0" r="1.0"/>
     <text stroke="none" x="800.0" y="219.0" font-size="10.0" font-family="helvetica">NT1.13</text>
    </g>
    <g>
     <circle stroke="black" stroke-width="0.5" fill="#aaffff" cx="826.0" cy="476.0" r="1.0"/>
     <text stroke="none" x="826.0" y="476.0" font-size="10.0" font-family="helvetica">NT1.14</text>
    </g>
    <g>
     <circle stroke="black" stroke-width="0.5" fill="#aaffff" cx="840.0" cy="92.0" r="1.0"/>
     <text stroke="none" x="840.0" y="92.0" font-size="10.0" font-family="helvetica">NT1.15</text>
    </g>
    <g>
     <circle stroke="black" stroke-width="0.5" fill="#aaffff" cx="844.0" cy="419.0" r="1.0"/>
     <text stroke="none" x="844.0" y="419.0" font-size="20.0" font-family="helvetica">Erythrobacter gaetbuli SW-1617 (AY562220)</text>
    </g>
    <g>
     <circle stroke="black" stroke-width="0.5" fill="#aaffff" cx="847.0" cy="704.0" r="1.0"/>
     <text stroke="none" x="847.0" y="704.0" font-size="10.0" font-family="helvetica">NT1.17</text>
    </g>
    <g>
     <circle stroke="black" stroke-width="0.5" fill="#aaffff" cx="848.0" cy="533.0" r="1.0"/>
     <text stroke="none" x="848.0" y="533.0" font-size="20.0" font-family="helvetica">Porphyrobacter cryptus ALC42T (AF465834)</text>
    </g>
    <g>
     <circle stroke="black" stroke-width="0.5" fill="#aaffff" cx="859.0" cy="305.0" r="1.0"/>
     <text stroke="none" x="859.0" y="305.0" font-size="20.0" font-family="helvetica"> Erythrobacter vulgaris O22-2-107 (AY706935)</text>
    </g>
    <g>
     <circle stroke="black" stroke-width="0.5" fill="#aaffff" cx="860.0" cy="590.0" r="1.0"/>
     <text stroke="none" x="860.0" y="590.0" font-size="10.0" font-family="helvetica">NT1.20</text>
    </g>
    <g>
     <circle stroke="black" stroke-width="0.5" fill="#aaffff" cx="862.0" cy="49.0" r="1.0"/>
     <text stroke="none" x="862.0" y="49.0" font-size="10.0" font-family="helvetica">NT1.21</text>
    </g>
    <g>
     <circle stroke="black" stroke-width="0.5" fill="#aaffff" cx="869.0" cy="134.0" r="1.0"/>
     <text stroke="none" x="869.0" y="134.0" font-size="10.0" font-family="helvetica">NT1.22</text>
    </g>
    <g>
     <circle stroke="black" stroke-width="0.5" fill="#aaffff" cx="873.0" cy="762.0" r="1.0"/>
     <text stroke="none" x="873.0" y="762.0" font-size="10.0" font-family="helvetica">NT1.23</text>
    </g>
    <g>
     <circle stroke="black" stroke-width="0.5" fill="#aaffff" cx="874.0" cy="648.0" r="1.0"/>
     <text stroke="none" x="874.0" y="648.0" font-size="10.0" font-family="helvetica">NT1.24</text>
    </g>
    <g>
     <circle stroke="black" stroke-width="0.5" fill="#aaffff" cx="880.0" cy="249.0" r="1.0"/>
     <text stroke="none" x="880.0" y="249.0" font-size="20.0" font-family="helvetica">Erythrobacter citreus RE35Fl1T (AF118020)</text>
    </g>
    <g>
     <circle stroke="black" stroke-width="0.5" fill="#aaffff" cx="894.0" cy="362.0" r="1.0"/>
     <text stroke="none" x="894.0" y="362.0" font-size="10.0" font-family="helvetica">NT1.26</text>
    </g>
    <g>
     <circle stroke="black" stroke-width="0.5" fill="#aaffff" cx="899.0" cy="20.0" r="1.0"/>
     <text stroke="none" x="899.0" y="20.0" font-size="10.0" font-family="helvetica">NT1.27</text>
    </g>
    <g>
     <circle stroke="black" stroke-width="0.5" fill="#aaffff" cx="908.0" cy="875.0" r="1.0"/>
     <text stroke="none" x="908.0" y="875.0" font-size="10.0" font-family="helvetica">NT1.28</text>
    </g>
    <g>
     <circle stroke="black" stroke-width="0.5" fill="#aaffff" cx="925.0" cy="191.0" r="1.0"/>
     <text stroke="none" x="925.0" y="191.0" font-size="10.0" font-family="helvetica">NT1.29</text>
    </g>
    <g>
     <circle stroke="black" stroke-width="0.5" fill="#aaffff" cx="930.0" cy="818.0" r="1.0"/>
     <text stroke="none" x="930.0" y="818.0" font-size="20.0" font-family="helvetica">Sphingomonas paucimobilis ATCC 29837T (U37337)</text>
    </g>
    <g>
     <circle stroke="black" stroke-width="0.5" fill="#aaffff" cx="997.0" cy="77.0" r="1.0"/>
     <text stroke="none" x="997.0" y="77.0" font-size="20.0" font-family="helvetica">Erythrobacter longus OCh101T (LO1786)</text>
    </g>
    <line stroke="black" x1="997.0" y1="77.0" x2="862.0" y2="49.0" stroke-width="0.5"/>
    <line stroke="black" x1="880.0" y1="249.0" x2="800.0" y2="219.0" stroke-width="0.5"/>
    <line stroke="black" x1="859.0" y1="305.0" x2="800.0" y2="219.0" stroke-width="0.5"/>
    <line stroke="black" x1="844.0" y1="419.0" x2="716.0" y2="349.0" stroke-width="0.5"/>
    <line stroke="black" x1="848.0" y1="533.0" x2="674.0" y2="604.0" stroke-width="0.5"/>
    <line stroke="black" x1="1.0" y1="803.0" x2="359.0" y2="678.0" stroke-width="0.5"/>
    <line stroke="black" x1="930.0" y1="818.0" x2="412.0" y2="846.0" stroke-width="0.5"/>
    <line stroke="black" x1="786.0" y1="198.0" x2="750.0" y2="280.0" stroke-width="0.5"/>
    <line stroke="black" x1="786.0" y1="198.0" x2="800.0" y2="219.0" stroke-width="0.5"/>
    <line stroke="black" x1="716.0" y1="349.0" x2="702.0" y2="413.0" stroke-width="0.5"/>
    <line stroke="black" x1="642.0" y1="508.0" x2="359.0" y2="678.0" stroke-width="0.5"/>
   </g>
  </g>
 </svg>
</svg>
