<?xml version="1.0" encoding="UTF-8"?>
<svg height="800.0" width="700.0" xmlns="http://www.w3.org/2000/svg">
 <svg>
  <g>
   <g>
    <g>
     <circle stroke="black" stroke-width="0.5" fill="#aaffff" cx="3.0" cy="71.0" r="1.0"/>
     <text stroke="none" x="3.0" y="71.0" font-size="20.0" font-family="helvetica"/>
    </g>
    <g>
     <circle stroke="black" stroke-width="0.5" fill="#aaffff" cx="6.0" cy="71.0" r="1.0"/>
     <text stroke="none" x="6.0" y="71.0" font-size="10.0" font-family="helvetica">NT1.2</text>
    </g>
    <g>
     <circle stroke="black" stroke-width="0.5" fill="#aaffff" cx="81.0" cy="291.0" r="1.0"/>
     <text stroke="none" x="81.0" y="291.0" font-size="10.0" font-family="helvetica">NT1.3</text>
    </g>
    <g>
     <circle stroke="black" stroke-width="0.5" fill="#aaffff" cx="99.0" cy="454.0" r="1.0"/>
     <text stroke="none" x="99.0" y="454.0" font-size="10.0" font-family="helvetica">NT1.4</text>
    </g>
    <g>
     <circle stroke="black" stroke-width="0.5" fill="#aaffff" cx="108.0" cy="634.0" r="1.0"/>
     <text stroke="none" x="108.0" y="634.0" font-size="10.0" font-family="helvetica">NT1.5</text>
    </g>
    <g>
     <circle stroke="black" stroke-width="0.5" fill="#aaffff" cx="132.0" cy="514.0" r="1.0"/>
     <text stroke="none" x="132.0" y="514.0" font-size="10.0" font-family="helvetica">NT1.6</text>
    </g>
    <g>
     <circle stroke="black" stroke-width="0.5" fill="#aaffff" cx="133.0" cy="277.0" r="1.0"/>
     <text stroke="none" x="133.0" y="277.0" font-size="10.0" font-family="helvetica">NT1.7</text>
    </g>
    <g>
     <circle stroke="black" stroke-width="0.5" fill="#aaffff" cx="141.0" cy="758.0" r="1.0"/>
     <text stroke="none" x="141.0" y="758.0" font-size="10.0" font-family="helvetica">NT1.8</text>
    </g>
    <g>
     <circle stroke="black" stroke-width="0.5" fill="#aaffff" cx="153.0" cy="550.0" r="1.0"/>
     <text stroke="none" x="153.0" y="550.0" font-size="10.0" font-family="helvetica">NT1.9</text>
    </g>
    <g>
     <circle stroke="black" stroke-width="0.5" fill="#aaffff" cx="158.0" cy="842.0" r="1.0"/>
     <text stroke="none" x="158.0" y="842.0" font-size="10.0" font-family="helvetica">NT1.10</text>
    </g>
    <g>
     <circle stroke="black" stroke-width="0.5" fill="#aaffff" cx="168.0" cy="584.0" r="1.0"/>
     <text stroke="none" x="168.0" y="584.0" font-size="10.0" font-family="helvetica">NT1.11</text>
    </g>
    <g>
     <circle stroke="black" stroke-width="0.5" fill="#aaffff" cx="175.0" cy="17.0" r="1.0"/>
     <text stroke="none" x="175.0" y="17.0" font-size="10.0" font-family="helvetica">NT1.12</text>
    </g>
    <g>
     <circle stroke="black" stroke-width="0.5" fill="#aaffff" cx="184.0" cy="470.0" r="1.0"/>
     <text stroke="none" x="184.0" y="470.0" font-size="10.0" font-family="helvetica">NT1.13</text>
    </g>
    <g>
     <circle stroke="black" stroke-width="0.5" fill="#aaffff" cx="185.0" cy="223.0" r="1.0"/>
     <text stroke="none" x="185.0" y="223.0" font-size="10.0" font-family="helvetica">NT1.14</text>
    </g>
    <g>
     <circle stroke="black" stroke-width="0.5" fill="#aaffff" cx="185.0" cy="472.0" r="1.0"/>
     <text stroke="none" x="185.0" y="472.0" font-size="10.0" font-family="helvetica">NT1.15</text>
    </g>
    <g>
     <circle stroke="black" stroke-width="0.5" fill="#aaffff" cx="188.0" cy="940.0" r="1.0"/>
     <text stroke="none" x="188.0" y="940.0" font-size="10.0" font-family="helvetica">NT1.16</text>
    </g>
    <g>
     <circle stroke="black" stroke-width="0.5" fill="#aaffff" cx="200.0" cy="679.0" r="1.0"/>
     <text stroke="none" x="200.0" y="679.0" font-size="10.0" font-family="helvetica">NT1.17</text>
    </g>
    <g>
     <circle stroke="black" stroke-width="0.5" fill="#aaffff" cx="203.0" cy="1058.0" r="1.0"/>
     <text stroke="none" x="203.0" y="1058.0" font-size="20.0" font-family="helvetica">100</text>
    </g>
    <g>
     <circle stroke="black" stroke-width="0.5" fill="#aaffff" cx="213.0" cy="328.0" r="1.0"/>
     <text stroke="none" x="213.0" y="328.0" font-size="10.0" font-family="helvetica">NT1.19</text>
    </g>
    <g>
     <circle stroke="black" stroke-width="0.5" fill="#aaffff" cx="214.0" cy="827.0" r="1.0"/>
     <text stroke="none" x="214.0" y="827.0" font-size="10.0" font-family="helvetica">NT1.20</text>
    </g>
    <g>
     <circle stroke="black" stroke-width="0.5" fill="#aaffff" cx="219.0" cy="1167.0" r="1.0"/>
     <text stroke="none" x="219.0" y="1167.0" font-size="10.0" font-family="helvetica">NT1.21</text>
    </g>
    <g>
     <circle stroke="black" stroke-width="0.5" fill="#aaffff" cx="225.0" cy="952.0" r="1.0"/>
     <text stroke="none" x="225.0" y="952.0" font-size="10.0" font-family="helvetica">NT1.22</text>
    </g>
    <g>
     <circle stroke="black" stroke-width="0.5" fill="#aaffff" cx="226.0" cy="1095.0" r="1.0"/>
     <text stroke="none" x="226.0" y="1095.0" font-size="10.0" font-family="helvetica">NT1.23</text>
    </g>
    <g>
     <circle stroke="black" stroke-width="0.5" fill="#aaffff" cx="238.0" cy="368.0" r="1.0"/>
     <text stroke="none" x="238.0" y="368.0" font-size="10.0" font-family="helvetica">NT1.24</text>
    </g>
    <g>
     <circle stroke="black" stroke-width="0.5" fill="#aaffff" cx="238.0" cy="1142.0" r="1.0"/>
     <text stroke="none" x="238.0" y="1142.0" font-size="10.0" font-family="helvetica">NT1.25</text>
    </g>
    <g>
     <circle stroke="black" stroke-width="0.5" fill="#aaffff" cx="248.0" cy="518.0" r="1.0"/>
     <text stroke="none" x="248.0" y="518.0" font-size="20.0" font-family="helvetica">Desemzia incerta DSM 205817 (Y17300)</text>
    </g>
    <g>
     <circle stroke="black" stroke-width="0.5" fill="#aaffff" cx="248.0" cy="1032.0" r="1.0"/>
     <text stroke="none" x="248.0" y="1032.0" font-size="10.0" font-family="helvetica">NT1.27</text>
    </g>
    <g>
     <circle stroke="black" stroke-width="0.5" fill="#aaffff" cx="254.0" cy="1176.0" r="1.0"/>
     <text stroke="none" x="254.0" y="1176.0" font-size="10.0" font-family="helvetica">NT1.28</text>
    </g>
    <g>
     <circle stroke="black" stroke-width="0.5" fill="#aaffff" cx="259.0" cy="245.0" r="1.0"/>
     <text stroke="none" x="259.0" y="245.0" font-size="20.0" font-family="helvetica">Granulicatella adiacens ATCC 491757 (D50540)</text>
    </g>
    <g>
     <circle stroke="black" stroke-width="0.5" fill="#aaffff" cx="262.0" cy="132.0" r="1.0"/>
     <text stroke="none" x="262.0" y="132.0" font-size="10.0" font-family="helvetica">NT1.30</text>
    </g>
    <g>
     <circle stroke="black" stroke-width="0.5" fill="#aaffff" cx="263.0" cy="1203.0" r="1.0"/>
     <text stroke="none" x="263.0" y="1203.0" font-size="20.0" font-family="helvetica">Enterococcus avium NCFB 23697 (Y18274)</text>
    </g>
    <g>
     <circle stroke="black" stroke-width="0.5" fill="#aaffff" cx="263.0" cy="1201.0" r="1.0"/>
     <text stroke="none" x="263.0" y="1201.0" font-size="10.0" font-family="helvetica">NT1.32</text>
    </g>
    <g>
     <circle stroke="black" stroke-width="0.5" fill="#aaffff" cx="273.0" cy="609.0" r="1.0"/>
     <text stroke="none" x="273.0" y="609.0" font-size="20.0" font-family="helvetica">Carnobacterium mobile NCFB 27657 (X54271)</text>
    </g>
    <g>
     <circle stroke="black" stroke-width="0.5" fill="#aaffff" cx="274.0" cy="62.0" r="1.0"/>
     <text stroke="none" x="274.0" y="62.0" font-size="20.0" font-family="helvetica">Streptococcus pyogenes ATCC 123447 (AB002521)</text>
    </g>
    <g>
     <circle stroke="black" stroke-width="0.5" fill="#aaffff" cx="275.0" cy="563.0" r="1.0"/>
     <text stroke="none" x="275.0" y="563.0" font-size="20.0" font-family="helvetica">Carnobacterium divergens NCDO 27637 (X54270)</text>
    </g>
    <g>
     <circle stroke="black" stroke-width="0.5" fill="#aaffff" cx="277.0" cy="973.0" r="1.0"/>
     <text stroke="none" x="277.0" y="973.0" font-size="20.0" font-family="helvetica">Enterococcus moraviensis COM 48567 (AF286831)</text>
    </g>
    <g>
     <circle stroke="black" stroke-width="0.5" fill="#aaffff" cx="277.0" cy="402.0" r="1.0"/>
     <text stroke="none" x="277.0" y="402.0" font-size="10.0" font-family="helvetica">NT1.37</text>
    </g>
    <g>
     <circle stroke="black" stroke-width="0.5" fill="#aaffff" cx="284.0" cy="1247.0" r="1.0"/>
     <text stroke="none" x="284.0" y="1247.0" font-size="20.0" font-family="helvetica">Enterococcus canis LMG 123167 (X76177)</text>
    </g>
    <g>
     <circle stroke="black" stroke-width="0.5" fill="#aaffff" cx="285.0" cy="1019.0" r="1.0"/>
     <text stroke="none" x="285.0" y="1019.0" font-size="20.0" font-family="helvetica">Enterococcus flavescens LMG 135187 (AJ301832)</text>
    </g>
    <g>
     <circle stroke="black" stroke-width="0.5" fill="#aaffff" cx="286.0" cy="1199.0" r="1.0"/>
     <text stroke="none" x="286.0" y="1199.0" font-size="20.0" font-family="helvetica">Enterococcus avium NCFB 23697 (Y18274)</text>
    </g>
    <g>
     <circle stroke="black" stroke-width="0.5" fill="#aaffff" cx="288.0" cy="199.0" r="1.0"/>
     <text stroke="none" x="288.0" y="199.0" font-size="20.0" font-family="helvetica">Granulicatella elegans DSM 116937 (AFO16390)</text>
    </g>
    <g>
     <circle stroke="black" stroke-width="0.5" fill="#aaffff" cx="288.0" cy="700.0" r="1.0"/>
     <text stroke="none" x="288.0" y="700.0" font-size="20.0" font-family="helvetica">Vagococcus fluvialis CCUG 327047 (Y18098)</text>
    </g>
    <g>
     <circle stroke="black" stroke-width="0.5" fill="#aaffff" cx="294.0" cy="1065.0" r="1.0"/>
     <text stroke="none" x="294.0" y="1065.0" font-size="20.0" font-family="helvetica">Enterococcus saccharolyticus ATCC 430767 (AF061004)</text>
    </g>
    <g>
     <circle stroke="black" stroke-width="0.5" fill="#aaffff" cx="295.0" cy="472.0" r="1.0"/>
     <text stroke="none" x="295.0" y="472.0" font-size="20.0" font-family="helvetica">Trichococcus pasteurii DSM 23817 (X87150)</text>
    </g>
    <g>
     <circle stroke="black" stroke-width="0.5" fill="#aaffff" cx="296.0" cy="655.0" r="1.0"/>
     <text stroke="none" x="296.0" y="655.0" font-size="20.0" font-family="helvetica">Vagococcus salmoninarum CCUG 333947 (Y18097)</text>
    </g>
    <g>
     <circle stroke="black" stroke-width="0.5" fill="#aaffff" cx="297.0" cy="928.0" r="1.0"/>
     <text stroke="none" x="297.0" y="928.0" font-size="20.0" font-family="helvetica">Enterococcus faecalis JCM 58037 (AB012212)</text>
    </g>
    <g>
     <circle stroke="black" stroke-width="0.5" fill="#aaffff" cx="298.0" cy="17.0" r="1.0"/>
     <text stroke="none" x="298.0" y="17.0" font-size="20.0" font-family="helvetica">Streptococcus peroris GTC 8487 (ABO08314)</text>
    </g>
    <g>
     <circle stroke="black" stroke-width="0.5" fill="#aaffff" cx="305.0" cy="1110.0" r="1.0"/>
     <text stroke="none" x="305.0" y="1110.0" font-size="20.0" font-family="helvetica">Enterococcus dispar ATCC 512667 (AF061007)</text>
    </g>
    <g>
     <circle stroke="black" stroke-width="0.5" fill="#aaffff" cx="316.0" cy="1155.0" r="1.0"/>
     <text stroke="none" x="316.0" y="1155.0" font-size="20.0" font-family="helvetica">Enterococcus pallens PQ27 (AY033815)</text>
    </g>
    <g>
     <circle stroke="black" stroke-width="0.5" fill="#aaffff" cx="349.0" cy="857.0" r="1.0"/>
     <text stroke="none" x="349.0" y="857.0" font-size="10.0" font-family="helvetica">NT1.50</text>
    </g>
    <g>
     <circle stroke="black" stroke-width="0.5" fill="#aaffff" cx="355.0" cy="745.0" r="1.0"/>
     <text stroke="none" x="355.0" y="745.0" font-size="20.0" font-family="helvetica">Catellicoccus marimammalium M35lo4l3T (AJ854484)</text>
    </g>
    <g>
     <circle stroke="black" stroke-width="0.5" fill="#aaffff" cx="362.0" cy="791.0" r="1.0"/>
     <text stroke="none" x="362.0" y="791.0" font-size="20.0" font-family="helvetica">Melissococcus plutonius NCDO 24437 (X75751)</text>
    </g>
    <g>
     <circle stroke="black" stroke-width="0.5" fill="#aaffff" cx="377.0" cy="834.0" r="1.0"/>
     <text stroke="none" x="377.0" y="834.0" font-size="10.0" font-family="helvetica">NT1.53</text>
    </g>
    <g>
     <circle stroke="black" stroke-width="0.5" fill="#aaffff" cx="378.0" cy="836.0" r="1.0"/>
     <text stroke="none" x="378.0" y="836.0" font-size="10.0" font-family="helvetica">NT1.54</text>
    </g>
    <g>
     <circle stroke="black" stroke-width="0.5" fill="#aaffff" cx="408.0" cy="289.0" r="1.0"/>
     <text stroke="none" x="408.0" y="289.0" font-size="20.0" font-family="helvetica">Abiotrophia defective ATCC 491767 (D50541)</text>
    </g>
    <g>
     <circle stroke="black" stroke-width="0.5" fill="#aaffff" cx="439.0" cy="836.0" r="1.0"/>
     <text stroke="none" x="439.0" y="836.0" font-size="20.0" font-family="helvetica">Tetragenococcus halophilus IAM 16767 (D88668)</text>
    </g>
    <g>
     <circle stroke="black" stroke-width="0.5" fill="#aaffff" cx="445.0" cy="336.0" r="1.0"/>
     <text stroke="none" x="445.0" y="336.0" font-size="20.0" font-family="helvetica">Eremococcus coleocola CCUG 382077 (Y17780)</text>
    </g>
    <g>
     <circle stroke="black" stroke-width="0.5" fill="#aaffff" cx="447.0" cy="427.0" r="1.0"/>
     <text stroke="none" x="447.0" y="427.0" font-size="20.0" font-family="helvetica">Facklamia hominis CCUG 368137 (Y10772)</text>
    </g>
    <g>
     <circle stroke="black" stroke-width="0.5" fill="#aaffff" cx="460.0" cy="882.0" r="1.0"/>
     <text stroke="none" x="460.0" y="882.0" font-size="20.0" font-family="helvetica">Tetragenococcus muriaticus JCM 100067 (D88824)</text>
    </g>
    <g>
     <circle stroke="black" stroke-width="0.5" fill="#aaffff" cx="475.0" cy="108.0" r="1.0"/>
     <text stroke="none" x="475.0" y="108.0" font-size="20.0" font-family="helvetica">Alloiococcus otitis NCFB 28907 (X59765)</text>
    </g>
    <g>
     <circle stroke="black" stroke-width="0.5" fill="#aaffff" cx="508.0" cy="381.0" r="1.0"/>
     <text stroke="none" x="508.0" y="381.0" font-size="20.0" font-family="helvetica">Ignavigranum ruoffiae CCUG 376587 (Y16426)</text>
    </g>
    <g>
     <circle stroke="black" stroke-width="0.5" fill="#aaffff" cx="515.0" cy="153.0" r="1.0"/>
     <text stroke="none" x="515.0" y="153.0" font-size="20.0" font-family="helvetica">Dolosigranulum pigrum NCFB 29757 (X70907)</text>
    </g>
    <line stroke="black" x1="298.0" y1="17.0" x2="175.0" y2="17.0" stroke-width="0.5"/>
    <line stroke="black" x1="3.0" y1="71.0" x2="6.0" y2="71.0" stroke-width="0.5"/>
    <line stroke="black" x1="295.0" y1="472.0" x2="185.0" y2="472.0" stroke-width="0.5"/>
    <line stroke="black" x1="439.0" y1="836.0" x2="378.0" y2="836.0" stroke-width="0.5"/>
    <line stroke="black" x1="285.0" y1="1019.0" x2="248.0" y2="1032.0" stroke-width="0.5"/>
    <line stroke="black" x1="263.0" y1="1203.0" x2="263.0" y2="1201.0" stroke-width="0.5"/>
    <line stroke="black" x1="286.0" y1="1199.0" x2="263.0" y2="1201.0" stroke-width="0.5"/>
    <line stroke="black" x1="175.0" y1="17.0" x2="6.0" y2="71.0" stroke-width="0.5"/>
    <line stroke="black" x1="6.0" y1="71.0" x2="81.0" y2="291.0" stroke-width="0.5"/>
    <line stroke="black" x1="81.0" y1="291.0" x2="99.0" y2="454.0" stroke-width="0.5"/>
    <line stroke="black" x1="81.0" y1="291.0" x2="262.0" y2="132.0" stroke-width="0.5"/>
    <line stroke="black" x1="99.0" y1="454.0" x2="108.0" y2="634.0" stroke-width="0.5"/>
    <line stroke="black" x1="99.0" y1="454.0" x2="133.0" y2="277.0" stroke-width="0.5"/>
    <line stroke="black" x1="108.0" y1="634.0" x2="141.0" y2="758.0" stroke-width="0.5"/>
    <line stroke="black" x1="108.0" y1="634.0" x2="132.0" y2="514.0" stroke-width="0.5"/>
    <line stroke="black" x1="133.0" y1="277.0" x2="213.0" y2="328.0" stroke-width="0.5"/>
    <line stroke="black" x1="133.0" y1="277.0" x2="185.0" y2="223.0" stroke-width="0.5"/>
    <line stroke="black" x1="132.0" y1="514.0" x2="153.0" y2="550.0" stroke-width="0.5"/>
    <line stroke="black" x1="141.0" y1="758.0" x2="158.0" y2="842.0" stroke-width="0.5"/>
    <line stroke="black" x1="141.0" y1="758.0" x2="200.0" y2="679.0" stroke-width="0.5"/>
    <line stroke="black" x1="213.0" y1="328.0" x2="238.0" y2="368.0" stroke-width="0.5"/>
    <line stroke="black" x1="153.0" y1="550.0" x2="168.0" y2="584.0" stroke-width="0.5"/>
    <line stroke="black" x1="238.0" y1="368.0" x2="277.0" y2="402.0" stroke-width="0.5"/>
    <line stroke="black" x1="158.0" y1="842.0" x2="188.0" y2="940.0" stroke-width="0.5"/>
    <line stroke="black" x1="188.0" y1="940.0" x2="203.0" y2="1058.0" stroke-width="0.5"/>
    <line stroke="black" x1="188.0" y1="940.0" x2="214.0" y2="827.0" stroke-width="0.5"/>
    <line stroke="black" x1="203.0" y1="1058.0" x2="219.0" y2="1167.0" stroke-width="0.5"/>
    <line stroke="black" x1="203.0" y1="1058.0" x2="225.0" y2="952.0" stroke-width="0.5"/>
    <line stroke="black" x1="214.0" y1="827.0" x2="349.0" y2="857.0" stroke-width="0.5"/>
    <line stroke="black" x1="219.0" y1="1167.0" x2="226.0" y2="1095.0" stroke-width="0.5"/>
    <line stroke="black" x1="226.0" y1="1095.0" x2="238.0" y2="1142.0" stroke-width="0.5"/>
    <line stroke="black" x1="226.0" y1="1095.0" x2="248.0" y2="1032.0" stroke-width="0.5"/>
    <line stroke="black" x1="238.0" y1="1142.0" x2="254.0" y2="1176.0" stroke-width="0.5"/>
    <line stroke="black" x1="254.0" y1="1176.0" x2="263.0" y2="1201.0" stroke-width="0.5"/>
    <line stroke="black" x1="248.0" y1="518.0" x2="153.0" y2="550.0" stroke-width="0.5"/>
    <line stroke="black" x1="274.0" y1="62.0" x2="175.0" y2="17.0" stroke-width="0.5"/>
    <line stroke="black" x1="273.0" y1="609.0" x2="168.0" y2="584.0" stroke-width="0.5"/>
    <line stroke="black" x1="275.0" y1="563.0" x2="168.0" y2="584.0" stroke-width="0.5"/>
    <line stroke="black" x1="259.0" y1="245.0" x2="185.0" y2="223.0" stroke-width="0.5"/>
    <line stroke="black" x1="288.0" y1="199.0" x2="185.0" y2="223.0" stroke-width="0.5"/>
    <line stroke="black" x1="355.0" y1="745.0" x2="158.0" y2="842.0" stroke-width="0.5"/>
    <line stroke="black" x1="288.0" y1="700.0" x2="200.0" y2="679.0" stroke-width="0.5"/>
    <line stroke="black" x1="296.0" y1="655.0" x2="200.0" y2="679.0" stroke-width="0.5"/>
    <line stroke="black" x1="284.0" y1="1247.0" x2="219.0" y2="1167.0" stroke-width="0.5"/>
    <line stroke="black" x1="277.0" y1="973.0" x2="225.0" y2="952.0" stroke-width="0.5"/>
    <line stroke="black" x1="297.0" y1="928.0" x2="225.0" y2="952.0" stroke-width="0.5"/>
    <line stroke="black" x1="305.0" y1="1110.0" x2="238.0" y2="1142.0" stroke-width="0.5"/>
    <line stroke="black" x1="362.0" y1="791.0" x2="214.0" y2="827.0" stroke-width="0.5"/>
    <line stroke="black" x1="294.0" y1="1065.0" x2="248.0" y2="1032.0" stroke-width="0.5"/>
    <line stroke="black" x1="316.0" y1="1155.0" x2="254.0" y2="1176.0" stroke-width="0.5"/>
    <line stroke="black" x1="408.0" y1="289.0" x2="213.0" y2="328.0" stroke-width="0.5"/>
    <line stroke="black" x1="445.0" y1="336.0" x2="238.0" y2="368.0" stroke-width="0.5"/>
    <line stroke="black" x1="475.0" y1="108.0" x2="262.0" y2="132.0" stroke-width="0.5"/>
    <line stroke="black" x1="447.0" y1="427.0" x2="277.0" y2="402.0" stroke-width="0.5"/>
    <line stroke="black" x1="515.0" y1="153.0" x2="262.0" y2="132.0" stroke-width="0.5"/>
    <line stroke="black" x1="508.0" y1="381.0" x2="277.0" y2="402.0" stroke-width="0.5"/>
    <line stroke="black" x1="460.0" y1="882.0" x2="349.0" y2="857.0" stroke-width="0.5"/>
   </g>
  </g>
 </svg>
</svg>
