<?xml version="1.0" encoding="UTF-8"?>
<svg height="800.0" width="700.0" xmlns="http://www.w3.org/2000/svg">
 <svg>
  <g>
   <g>
    <g>
     <circle stroke="black" stroke-width="0.5" fill="#aaffff" cx="171.0" cy="339.0" r="1.0"/>
     <text stroke="none" x="171.0" y="339.0" font-size="10.0" font-family="helvetica">NT1.1</text>
    </g>
    <g>
     <circle stroke="black" stroke-width="0.5" fill="#aaffff" cx="262.0" cy="221.0" r="1.0"/>
     <text stroke="none" x="262.0" y="221.0" font-size="20.0" font-family="helvetica">100</text>
    </g>
    <g>
     <circle stroke="black" stroke-width="0.5" fill="#aaffff" cx="266.0" cy="175.0" r="1.0"/>
     <text stroke="none" x="266.0" y="175.0" font-size="20.0" font-family="helvetica">100</text>
    </g>
    <g>
     <circle stroke="black" stroke-width="0.5" fill="#aaffff" cx="298.0" cy="128.0" r="1.0"/>
     <text stroke="none" x="298.0" y="128.0" font-size="10.0" font-family="helvetica">NT1.4</text>
    </g>
    <g>
     <circle stroke="black" stroke-width="0.5" fill="#aaffff" cx="313.0" cy="73.0" r="1.0"/>
     <text stroke="none" x="313.0" y="73.0" font-size="10.0" font-family="helvetica">NT1.5</text>
    </g>
    <g>
     <circle stroke="black" stroke-width="0.5" fill="#aaffff" cx="326.0" cy="114.0" r="1.0"/>
     <text stroke="none" x="326.0" y="114.0" font-size="10.0" font-family="helvetica">NT1.6</text>
    </g>
    <g>
     <circle stroke="black" stroke-width="0.5" fill="#aaffff" cx="351.0" cy="458.0" r="1.0"/>
     <text stroke="none" x="351.0" y="458.0" font-size="10.0" font-family="helvetica">NT1.7</text>
    </g>
    <g>
     <circle stroke="black" stroke-width="0.5" fill="#aaffff" cx="359.0" cy="31.0" r="1.0"/>
     <text stroke="none" x="359.0" y="31.0" font-size="20.0" font-family="helvetica">100</text>
    </g>
    <g>
     <circle stroke="black" stroke-width="0.5" fill="#aaffff" cx="360.0" cy="9.0" r="1.0"/>
     <text stroke="none" x="360.0" y="9.0" font-size="20.0" font-family="helvetica">Xanthomonas arboricola LMG 7477 (Y10757)</text>
    </g>
    <g>
     <circle stroke="black" stroke-width="0.5" fill="#aaffff" cx="360.0" cy="52.0" r="1.0"/>
     <text stroke="none" x="360.0" y="52.0" font-size="20.0" font-family="helvetica">Xanthomonas campestris LMG 568T (X95917)</text>
    </g>
    <g>
     <circle stroke="black" stroke-width="0.5" fill="#aaffff" cx="361.0" cy="398.0" r="1.0"/>
     <text stroke="none" x="361.0" y="398.0" font-size="10.0" font-family="helvetica">NT1.11</text>
    </g>
    <g>
     <circle stroke="black" stroke-width="0.5" fill="#aaffff" cx="366.0" cy="459.0" r="1.0"/>
     <text stroke="none" x="366.0" y="459.0" font-size="10.0" font-family="helvetica">NT1.12</text>
    </g>
    <g>
     <circle stroke="black" stroke-width="0.5" fill="#aaffff" cx="384.0" cy="223.0" r="1.0"/>
     <text stroke="none" x="384.0" y="223.0" font-size="20.0" font-family="helvetica">Lysobacter antibioticus DSM 2044T (AB019582)</text>
    </g>
    <g>
     <circle stroke="black" stroke-width="0.5" fill="#aaffff" cx="408.0" cy="94.0" r="1.0"/>
     <text stroke="none" x="408.0" y="94.0" font-size="10.0" font-family="helvetica">NT1.14</text>
    </g>
    <g>
     <circle stroke="black" stroke-width="0.5" fill="#aaffff" cx="410.0" cy="265.0" r="1.0"/>
     <text stroke="none" x="410.0" y="265.0" font-size="20.0" font-family="helvetica">Luteimonas mephitis DSM 12574T (AJ012228)</text>
    </g>
    <g>
     <circle stroke="black" stroke-width="0.5" fill="#aaffff" cx="421.0" cy="136.0" r="1.0"/>
     <text stroke="none" x="421.0" y="136.0" font-size="20.0" font-family="helvetica">Stenotrophomonas maltophilia LMG 958T (X95923)</text>
    </g>
    <g>
     <circle stroke="black" stroke-width="0.5" fill="#aaffff" cx="425.0" cy="339.0" r="1.0"/>
     <text stroke="none" x="425.0" y="339.0" font-size="20.0" font-family="helvetica">100</text>
    </g>
    <g>
     <circle stroke="black" stroke-width="0.5" fill="#aaffff" cx="431.0" cy="436.0" r="1.0"/>
     <text stroke="none" x="431.0" y="436.0" font-size="20.0" font-family="helvetica">Fulvimonas soli LMG 19981T (AJ311653)</text>
    </g>
    <g>
     <circle stroke="black" stroke-width="0.5" fill="#aaffff" cx="436.0" cy="563.0" r="1.0"/>
     <text stroke="none" x="436.0" y="563.0" font-size="20.0" font-family="helvetica">Escherichia coli ATCC 11775 (X80725)</text>
    </g>
    <g>
     <circle stroke="black" stroke-width="0.5" fill="#aaffff" cx="439.0" cy="391.0" r="1.0"/>
     <text stroke="none" x="439.0" y="391.0" font-size="10.0" font-family="helvetica">NT1.20</text>
    </g>
    <g>
     <circle stroke="black" stroke-width="0.5" fill="#aaffff" cx="439.0" cy="360.0" r="1.0"/>
     <text stroke="none" x="439.0" y="360.0" font-size="10.0" font-family="helvetica">NT1.21</text>
    </g>
    <g>
     <circle stroke="black" stroke-width="0.5" fill="#aaffff" cx="444.0" cy="349.0" r="1.0"/>
     <text stroke="none" x="444.0" y="349.0" font-size="10.0" font-family="helvetica">NT1.22</text>
    </g>
    <g>
     <circle stroke="black" stroke-width="0.5" fill="#aaffff" cx="463.0" cy="180.0" r="1.0"/>
     <text stroke="none" x="463.0" y="180.0" font-size="20.0" font-family="helvetica">Xylella fastidiosa ATCC 35879T (AF192343)</text>
    </g>
    <g>
     <circle stroke="black" stroke-width="0.5" fill="#aaffff" cx="463.0" cy="307.0" r="1.0"/>
     <text stroke="none" x="463.0" y="307.0" font-size="10.0" font-family="helvetica">NT1.24</text>
    </g>
    <g>
     <circle stroke="black" stroke-width="0.5" fill="#aaffff" cx="467.0" cy="521.0" r="1.0"/>
     <text stroke="none" x="467.0" y="521.0" font-size="20.0" font-family="helvetica">Frateuria aurantia LMG 1558T (AJ010481)</text>
    </g>
    <g>
     <circle stroke="black" stroke-width="0.5" fill="#aaffff" cx="505.0" cy="478.0" r="1.0"/>
     <text stroke="none" x="505.0" y="478.0" font-size="20.0" font-family="helvetica">Rhodanobacter lindaniclasticus RP5557T (AFO39167)</text>
    </g>
    <g>
     <circle stroke="black" stroke-width="0.5" fill="#aaffff" cx="1.0" cy="451.0" r="1.0"/>
     <text stroke="none" x="1.0" y="451.0" font-size="10.0" font-family="helvetica">NT1.27</text>
    </g>
    <line stroke="black" x1="360.0" y1="9.0" x2="359.0" y2="31.0" stroke-width="0.5"/>
    <line stroke="black" x1="360.0" y1="52.0" x2="359.0" y2="31.0" stroke-width="0.5"/>
    <line stroke="black" x1="421.0" y1="136.0" x2="326.0" y2="114.0" stroke-width="0.5"/>
    <line stroke="black" x1="463.0" y1="180.0" x2="298.0" y2="128.0" stroke-width="0.5"/>
    <line stroke="black" x1="384.0" y1="223.0" x2="266.0" y2="175.0" stroke-width="0.5"/>
    <line stroke="black" x1="410.0" y1="265.0" x2="262.0" y2="221.0" stroke-width="0.5"/>
    <line stroke="black" x1="467.0" y1="521.0" x2="351.0" y2="458.0" stroke-width="0.5"/>
    <line stroke="black" x1="431.0" y1="436.0" x2="366.0" y2="459.0" stroke-width="0.5"/>
    <line stroke="black" x1="505.0" y1="478.0" x2="366.0" y2="459.0" stroke-width="0.5"/>
    <line stroke="black" x1="359.0" y1="31.0" x2="313.0" y2="73.0" stroke-width="0.5"/>
    <line stroke="black" x1="313.0" y1="73.0" x2="298.0" y2="128.0" stroke-width="0.5"/>
    <line stroke="black" x1="298.0" y1="128.0" x2="266.0" y2="175.0" stroke-width="0.5"/>
    <line stroke="black" x1="266.0" y1="175.0" x2="262.0" y2="221.0" stroke-width="0.5"/>
    <line stroke="black" x1="262.0" y1="221.0" x2="171.0" y2="339.0" stroke-width="0.5"/>
    <line stroke="black" x1="171.0" y1="339.0" x2="351.0" y2="458.0" stroke-width="0.5"/>
    <line stroke="black" x1="361.0" y1="398.0" x2="366.0" y2="459.0" stroke-width="0.5"/>
    <line stroke="black" x1="1.0" y1="451.0" x2="436.0" y2="563.0" stroke-width="0.5"/>
    <line stroke="black" x1="1.0" y1="451.0" x2="171.0" y2="339.0" stroke-width="0.5"/>
   </g>
  </g>
 </svg>
</svg>
