<?xml version="1.0" encoding="UTF-8"?>
<svg height="800.0" width="700.0" xmlns="http://www.w3.org/2000/svg">
 <svg>
  <g>
   <g>
    <g>
     <circle stroke="black" stroke-width="0.5" fill="#aaffff" cx="175.0" cy="609.0" r="1.0"/>
     <text stroke="none" x="175.0" y="609.0" font-size="20.0" font-family="helvetica">Flexibacter flexilis ATCC 23079T (M62794)</text>
    </g>
    <g>
     <circle stroke="black" stroke-width="0.5" fill="#aaffff" cx="176.0" cy="388.0" r="1.0"/>
     <text stroke="none" x="176.0" y="388.0" font-size="10.0" font-family="helvetica">NT1.2</text>
    </g>
    <g>
     <circle stroke="black" stroke-width="0.5" fill="#aaffff" cx="189.0" cy="251.0" r="1.0"/>
     <text stroke="none" x="189.0" y="251.0" font-size="10.0" font-family="helvetica">NT1.3</text>
    </g>
    <g>
     <circle stroke="black" stroke-width="0.5" fill="#aaffff" cx="202.0" cy="367.0" r="1.0"/>
     <text stroke="none" x="202.0" y="367.0" font-size="10.0" font-family="helvetica">NT1.4</text>
    </g>
    <g>
     <circle stroke="black" stroke-width="0.5" fill="#aaffff" cx="205.0" cy="135.0" r="1.0"/>
     <text stroke="none" x="205.0" y="135.0" font-size="10.0" font-family="helvetica">NT1.5</text>
    </g>
    <g>
     <circle stroke="black" stroke-width="0.5" fill="#aaffff" cx="206.0" cy="326.0" r="1.0"/>
     <text stroke="none" x="206.0" y="326.0" font-size="10.0" font-family="helvetica">NT1.6</text>
    </g>
    <g>
     <circle stroke="black" stroke-width="0.5" fill="#aaffff" cx="217.0" cy="288.0" r="1.0"/>
     <text stroke="none" x="217.0" y="288.0" font-size="10.0" font-family="helvetica">NT1.7</text>
    </g>
    <g>
     <circle stroke="black" stroke-width="0.5" fill="#aaffff" cx="235.0" cy="521.0" r="1.0"/>
     <text stroke="none" x="235.0" y="521.0" font-size="10.0" font-family="helvetica">NT1.8</text>
    </g>
    <g>
     <circle stroke="black" stroke-width="0.5" fill="#aaffff" cx="238.0" cy="508.0" r="1.0"/>
     <text stroke="none" x="238.0" y="508.0" font-size="10.0" font-family="helvetica">NT1.9</text>
    </g>
    <g>
     <circle stroke="black" stroke-width="0.5" fill="#aaffff" cx="239.0" cy="79.0" r="1.0"/>
     <text stroke="none" x="239.0" y="79.0" font-size="10.0" font-family="helvetica">NT1.10</text>
    </g>
    <g>
     <circle stroke="black" stroke-width="0.5" fill="#aaffff" cx="244.0" cy="42.0" r="1.0"/>
     <text stroke="none" x="244.0" y="42.0" font-size="10.0" font-family="helvetica">NT1.11</text>
    </g>
    <g>
     <circle stroke="black" stroke-width="0.5" fill="#aaffff" cx="252.0" cy="188.0" r="1.0"/>
     <text stroke="none" x="252.0" y="188.0" font-size="10.0" font-family="helvetica">NT1.12</text>
    </g>
    <g>
     <circle stroke="black" stroke-width="0.5" fill="#aaffff" cx="254.0" cy="115.0" r="1.0"/>
     <text stroke="none" x="254.0" y="115.0" font-size="20.0" font-family="helvetica">Cellulophaga pacifica KMM 36647 (AB100840)</text>
    </g>
    <g>
     <circle stroke="black" stroke-width="0.5" fill="#aaffff" cx="258.0" cy="460.0" r="1.0"/>
     <text stroke="none" x="258.0" y="460.0" font-size="20.0" font-family="helvetica">Leeuwenhoekiella aequorea KMM 6066 (AJ780980)</text>
    </g>
    <g>
     <circle stroke="black" stroke-width="0.5" fill="#aaffff" cx="260.0" cy="165.0" r="1.0"/>
     <text stroke="none" x="260.0" y="165.0" font-size="20.0" font-family="helvetica">Cellulophaga fucicola NNO1586OT (AJ005973)</text>
    </g>
    <g>
     <circle stroke="black" stroke-width="0.5" fill="#aaffff" cx="261.0" cy="509.0" r="1.0"/>
     <text stroke="none" x="261.0" y="509.0" font-size="20.0" font-family="helvetica">Leeuwenhoekiella marinoflava ATCC 19326T (M58770)</text>
    </g>
    <g>
     <circle stroke="black" stroke-width="0.5" fill="#aaffff" cx="263.0" cy="66.0" r="1.0"/>
     <text stroke="none" x="263.0" y="66.0" font-size="20.0" font-family="helvetica">Cellulophaga baltica NN015840T (AJ005972)</text>
    </g>
    <g>
     <circle stroke="black" stroke-width="0.5" fill="#aaffff" cx="263.0" cy="559.0" r="1.0"/>
     <text stroke="none" x="263.0" y="559.0" font-size="10.0" font-family="helvetica">NT1.18</text>
    </g>
    <g>
     <circle stroke="black" stroke-width="0.5" fill="#aaffff" cx="267.0" cy="17.0" r="1.0"/>
     <text stroke="none" x="267.0" y="17.0" font-size="10.0" font-family="helvetica">NT1.19</text>
    </g>
    <g>
     <circle stroke="black" stroke-width="0.5" fill="#aaffff" cx="268.0" cy="411.0" r="1.0"/>
     <text stroke="none" x="268.0" y="411.0" font-size="20.0" font-family="helvetica">Pibocella ponti KMM 6031T (AY576654)</text>
    </g>
    <g>
     <circle stroke="black" stroke-width="0.5" fill="#aaffff" cx="269.0" cy="214.0" r="1.0"/>
     <text stroke="none" x="269.0" y="214.0" font-size="10.0" font-family="helvetica">NT1.21</text>
    </g>
    <g>
     <circle stroke="black" stroke-width="0.5" fill="#aaffff" cx="270.0" cy="313.0" r="1.0"/>
     <text stroke="none" x="270.0" y="313.0" font-size="20.0" font-family="helvetica">Zobellia uliginosa ATCC 14397T (M62799)</text>
    </g>
    <g>
     <circle stroke="black" stroke-width="0.5" fill="#aaffff" cx="286.0" cy="362.0" r="1.0"/>
     <text stroke="none" x="286.0" y="362.0" font-size="10.0" font-family="helvetica">NT1.23</text>
    </g>
    <g>
     <circle stroke="black" stroke-width="0.5" fill="#aaffff" cx="319.0" cy="263.0" r="1.0"/>
     <text stroke="none" x="319.0" y="263.0" font-size="20.0" font-family="helvetica">Muricauda ruestringensis B1T (AF218782)</text>
    </g>
    <g>
     <circle stroke="black" stroke-width="0.5" fill="#aaffff" cx="8.0" cy="498.0" r="1.0"/>
     <text stroke="none" x="8.0" y="498.0" font-size="10.0" font-family="helvetica">NT1.25</text>
    </g>
    <line stroke="black" x1="261.0" y1="509.0" x2="238.0" y2="508.0" stroke-width="0.5"/>
    <line stroke="black" x1="258.0" y1="460.0" x2="238.0" y2="508.0" stroke-width="0.5"/>
    <line stroke="black" x1="239.0" y1="79.0" x2="205.0" y2="135.0" stroke-width="0.5"/>
    <line stroke="black" x1="205.0" y1="135.0" x2="189.0" y2="251.0" stroke-width="0.5"/>
    <line stroke="black" x1="189.0" y1="251.0" x2="176.0" y2="388.0" stroke-width="0.5"/>
    <line stroke="black" x1="189.0" y1="251.0" x2="202.0" y2="367.0" stroke-width="0.5"/>
    <line stroke="black" x1="206.0" y1="326.0" x2="217.0" y2="288.0" stroke-width="0.5"/>
    <line stroke="black" x1="235.0" y1="521.0" x2="238.0" y2="508.0" stroke-width="0.5"/>
    <line stroke="black" x1="8.0" y1="498.0" x2="176.0" y2="388.0" stroke-width="0.5"/>
    <line stroke="black" x1="175.0" y1="609.0" x2="8.0" y2="498.0" stroke-width="0.5"/>
    <line stroke="black" x1="268.0" y1="411.0" x2="202.0" y2="367.0" stroke-width="0.5"/>
    <line stroke="black" x1="270.0" y1="313.0" x2="217.0" y2="288.0" stroke-width="0.5"/>
    <line stroke="black" x1="254.0" y1="115.0" x2="239.0" y2="79.0" stroke-width="0.5"/>
    <line stroke="black" x1="263.0" y1="66.0" x2="244.0" y2="42.0" stroke-width="0.5"/>
    <line stroke="black" x1="319.0" y1="263.0" x2="217.0" y2="288.0" stroke-width="0.5"/>
    <line stroke="black" x1="260.0" y1="165.0" x2="252.0" y2="188.0" stroke-width="0.5"/>
   </g>
  </g>
 </svg>
</svg>
