<?xml version="1.0" encoding="UTF-8"?>
<svg height="800.0" width="700.0" xmlns="http://www.w3.org/2000/svg">
 <svg>
  <g>
   <g>
    <g>
     <circle stroke="black" stroke-width="0.5" fill="#aaffff" cx="3.0" cy="1259.0" r="1.0"/>
     <text stroke="none" x="3.0" y="1259.0" font-size="20.0" font-family="helvetica"/>
    </g>
    <g>
     <circle stroke="black" stroke-width="0.5" fill="#aaffff" cx="5.0" cy="1259.0" r="1.0"/>
     <text stroke="none" x="5.0" y="1259.0" font-size="10.0" font-family="helvetica">NT1.2</text>
    </g>
    <g>
     <circle stroke="black" stroke-width="0.5" fill="#aaffff" cx="49.0" cy="1057.0" r="1.0"/>
     <text stroke="none" x="49.0" y="1057.0" font-size="10.0" font-family="helvetica">NT1.3</text>
    </g>
    <g>
     <circle stroke="black" stroke-width="0.5" fill="#aaffff" cx="76.0" cy="845.0" r="1.0"/>
     <text stroke="none" x="76.0" y="845.0" font-size="10.0" font-family="helvetica">NT1.4</text>
    </g>
    <g>
     <circle stroke="black" stroke-width="0.5" fill="#aaffff" cx="116.0" cy="985.0" r="1.0"/>
     <text stroke="none" x="116.0" y="985.0" font-size="10.0" font-family="helvetica">NT1.5</text>
    </g>
    <g>
     <circle stroke="black" stroke-width="0.5" fill="#aaffff" cx="130.0" cy="810.0" r="1.0"/>
     <text stroke="none" x="130.0" y="810.0" font-size="20.0" font-family="helvetica">65</text>
    </g>
    <g>
     <circle stroke="black" stroke-width="0.5" fill="#aaffff" cx="150.0" cy="598.0" r="1.0"/>
     <text stroke="none" x="150.0" y="598.0" font-size="10.0" font-family="helvetica">NT1.7</text>
    </g>
    <g>
     <circle stroke="black" stroke-width="0.5" fill="#aaffff" cx="164.0" cy="458.0" r="1.0"/>
     <text stroke="none" x="164.0" y="458.0" font-size="10.0" font-family="helvetica">NT1.8</text>
    </g>
    <g>
     <circle stroke="black" stroke-width="0.5" fill="#aaffff" cx="217.0" cy="352.0" r="1.0"/>
     <text stroke="none" x="217.0" y="352.0" font-size="20.0" font-family="helvetica">70</text>
    </g>
    <g>
     <circle stroke="black" stroke-width="0.5" fill="#aaffff" cx="245.0" cy="772.0" r="1.0"/>
     <text stroke="none" x="245.0" y="772.0" font-size="10.0" font-family="helvetica">NT1.10</text>
    </g>
    <g>
     <circle stroke="black" stroke-width="0.5" fill="#aaffff" cx="280.0" cy="580.0" r="1.0"/>
     <text stroke="none" x="280.0" y="580.0" font-size="10.0" font-family="helvetica">NT1.11</text>
    </g>
    <g>
     <circle stroke="black" stroke-width="0.5" fill="#aaffff" cx="328.0" cy="597.0" r="1.0"/>
     <text stroke="none" x="328.0" y="597.0" font-size="10.0" font-family="helvetica">NT1.12</text>
    </g>
    <g>
     <circle stroke="black" stroke-width="0.5" fill="#aaffff" cx="347.0" cy="421.0" r="1.0"/>
     <text stroke="none" x="347.0" y="421.0" font-size="20.0" font-family="helvetica">100</text>
    </g>
    <g>
     <circle stroke="black" stroke-width="0.5" fill="#aaffff" cx="390.0" cy="951.0" r="1.0"/>
     <text stroke="none" x="390.0" y="951.0" font-size="10.0" font-family="helvetica">NT1.14</text>
    </g>
    <g>
     <circle stroke="black" stroke-width="0.5" fill="#aaffff" cx="405.0" cy="740.0" r="1.0"/>
     <text stroke="none" x="405.0" y="740.0" font-size="10.0" font-family="helvetica">NT1.15</text>
    </g>
    <g>
     <circle stroke="black" stroke-width="0.5" fill="#aaffff" cx="425.0" cy="529.0" r="1.0"/>
     <text stroke="none" x="425.0" y="529.0" font-size="20.0" font-family="helvetica">80</text>
    </g>
    <g>
     <circle stroke="black" stroke-width="0.5" fill="#aaffff" cx="457.0" cy="1407.0" r="1.0"/>
     <text stroke="none" x="457.0" y="1407.0" font-size="20.0" font-family="helvetica">100</text>
    </g>
    <g>
     <circle stroke="black" stroke-width="0.5" fill="#aaffff" cx="478.0" cy="387.0" r="1.0"/>
     <text stroke="none" x="478.0" y="387.0" font-size="10.0" font-family="helvetica">NT1.18</text>
    </g>
    <g>
     <circle stroke="black" stroke-width="0.5" fill="#aaffff" cx="505.0" cy="1268.0" r="1.0"/>
     <text stroke="none" x="505.0" y="1268.0" font-size="10.0" font-family="helvetica">NT1.19</text>
    </g>
    <g>
     <circle stroke="black" stroke-width="0.5" fill="#aaffff" cx="507.0" cy="493.0" r="1.0"/>
     <text stroke="none" x="507.0" y="493.0" font-size="20.0" font-family="helvetica">74</text>
    </g>
    <g>
     <circle stroke="black" stroke-width="0.5" fill="#aaffff" cx="574.0" cy="705.0" r="1.0"/>
     <text stroke="none" x="574.0" y="705.0" font-size="20.0" font-family="helvetica">92</text>
    </g>
    <g>
     <circle stroke="black" stroke-width="0.5" fill="#aaffff" cx="580.0" cy="211.0" r="1.0"/>
     <text stroke="none" x="580.0" y="211.0" font-size="10.0" font-family="helvetica">NT1.22</text>
    </g>
    <g>
     <circle stroke="black" stroke-width="0.5" fill="#aaffff" cx="597.0" cy="1337.0" r="1.0"/>
     <text stroke="none" x="597.0" y="1337.0" font-size="20.0" font-family="helvetica">95</text>
    </g>
    <g>
     <circle stroke="black" stroke-width="0.5" fill="#aaffff" cx="621.0" cy="1233.0" r="1.0"/>
     <text stroke="none" x="621.0" y="1233.0" font-size="20.0" font-family="helvetica">91</text>
    </g>
    <g>
     <circle stroke="black" stroke-width="0.5" fill="#aaffff" cx="637.0" cy="176.0" r="1.0"/>
     <text stroke="none" x="637.0" y="176.0" font-size="20.0" font-family="helvetica">100</text>
    </g>
    <g>
     <circle stroke="black" stroke-width="0.5" fill="#aaffff" cx="650.0" cy="1303.0" r="1.0"/>
     <text stroke="none" x="650.0" y="1303.0" font-size="10.0" font-family="helvetica">NT1.26</text>
    </g>
    <g>
     <circle stroke="black" stroke-width="0.5" fill="#aaffff" cx="656.0" cy="1197.0" r="1.0"/>
     <text stroke="none" x="656.0" y="1197.0" font-size="10.0" font-family="helvetica">NT1.27</text>
    </g>
    <g>
     <circle stroke="black" stroke-width="0.5" fill="#aaffff" cx="668.0" cy="670.0" r="1.0"/>
     <text stroke="none" x="668.0" y="670.0" font-size="20.0" font-family="helvetica">85</text>
    </g>
    <g>
     <circle stroke="black" stroke-width="0.5" fill="#aaffff" cx="691.0" cy="1372.0" r="1.0"/>
     <text stroke="none" x="691.0" y="1372.0" font-size="20.0" font-family="helvetica">100</text>
    </g>
    <g>
     <circle stroke="black" stroke-width="0.5" fill="#aaffff" cx="731.0" cy="315.0" r="1.0"/>
     <text stroke="none" x="731.0" y="315.0" font-size="20.0" font-family="helvetica">95</text>
    </g>
    <g>
     <circle stroke="black" stroke-width="0.5" fill="#aaffff" cx="732.0" cy="1127.0" r="1.0"/>
     <text stroke="none" x="732.0" y="1127.0" font-size="10.0" font-family="helvetica">NT1.31</text>
    </g>
    <g>
     <circle stroke="black" stroke-width="0.5" fill="#aaffff" cx="739.0" cy="282.0" r="1.0"/>
     <text stroke="none" x="739.0" y="282.0" font-size="10.0" font-family="helvetica">NT1.32</text>
    </g>
    <g>
     <circle stroke="black" stroke-width="0.5" fill="#aaffff" cx="742.0" cy="1020.0" r="1.0"/>
     <text stroke="none" x="742.0" y="1020.0" font-size="20.0" font-family="helvetica">100</text>
    </g>
    <g>
     <circle stroke="black" stroke-width="0.5" fill="#aaffff" cx="751.0" cy="1161.0" r="1.0"/>
     <text stroke="none" x="751.0" y="1161.0" font-size="10.0" font-family="helvetica">NT1.34</text>
    </g>
    <g>
     <circle stroke="black" stroke-width="0.5" fill="#aaffff" cx="755.0" cy="246.0" r="1.0"/>
     <text stroke="none" x="755.0" y="246.0" font-size="20.0" font-family="helvetica">74</text>
    </g>
    <g>
     <circle stroke="black" stroke-width="0.5" fill="#aaffff" cx="758.0" cy="1092.0" r="1.0"/>
     <text stroke="none" x="758.0" y="1092.0" font-size="20.0" font-family="helvetica">70</text>
    </g>
    <g>
     <circle stroke="black" stroke-width="0.5" fill="#aaffff" cx="781.0" cy="1425.0" r="1.0"/>
     <text stroke="none" x="781.0" y="1425.0" font-size="10.0" font-family="helvetica">NT1.37</text>
    </g>
    <g>
     <circle stroke="black" stroke-width="0.5" fill="#aaffff" cx="807.0" cy="651.0" r="1.0"/>
     <text stroke="none" x="807.0" y="651.0" font-size="10.0" font-family="helvetica">NT1.38</text>
    </g>
    <g>
     <circle stroke="black" stroke-width="0.5" fill="#aaffff" cx="809.0" cy="141.0" r="1.0"/>
     <text stroke="none" x="809.0" y="141.0" font-size="20.0" font-family="helvetica">94</text>
    </g>
    <g>
     <circle stroke="black" stroke-width="0.5" fill="#aaffff" cx="815.0" cy="509.0" r="1.0"/>
     <text stroke="none" x="815.0" y="509.0" font-size="20.0" font-family="helvetica">Marinobacterium stanieri ATCC 271307 (AB021367)</text>
    </g>
    <g>
     <circle stroke="black" stroke-width="0.5" fill="#aaffff" cx="826.0" cy="790.0" r="1.0"/>
     <text stroke="none" x="826.0" y="790.0" font-size="10.0" font-family="helvetica">NT1.41</text>
    </g>
    <g>
     <circle stroke="black" stroke-width="0.5" fill="#aaffff" cx="833.0" cy="106.0" r="1.0"/>
     <text stroke="none" x="833.0" y="106.0" font-size="10.0" font-family="helvetica">NT1.42</text>
    </g>
    <g>
     <circle stroke="black" stroke-width="0.5" fill="#aaffff" cx="842.0" cy="721.0" r="1.0"/>
     <text stroke="none" x="842.0" y="721.0" font-size="20.0" font-family="helvetica">Oceanospirillum beijerinckii IFO 154457 (AB006760)</text>
    </g>
    <g>
     <circle stroke="black" stroke-width="0.5" fill="#aaffff" cx="869.0" cy="70.0" r="1.0"/>
     <text stroke="none" x="869.0" y="70.0" font-size="20.0" font-family="helvetica">100</text>
    </g>
    <g>
     <circle stroke="black" stroke-width="0.5" fill="#aaffff" cx="870.0" cy="1354.0" r="1.0"/>
     <text stroke="none" x="870.0" y="1354.0" font-size="20.0" font-family="helvetica">Marinobacter excellens KMM 38097 (AY180101)</text>
    </g>
    <g>
     <circle stroke="black" stroke-width="0.5" fill="#aaffff" cx="875.0" cy="614.0" r="1.0"/>
     <text stroke="none" x="875.0" y="614.0" font-size="10.0" font-family="helvetica">NT1.46</text>
    </g>
    <g>
     <circle stroke="black" stroke-width="0.5" fill="#aaffff" cx="893.0" cy="1284.0" r="1.0"/>
     <text stroke="none" x="893.0" y="1284.0" font-size="20.0" font-family="helvetica">Marinobacter daepoensis SW-1 567 (AY517633)</text>
    </g>
    <g>
     <circle stroke="black" stroke-width="0.5" fill="#aaffff" cx="893.0" cy="1143.0" r="1.0"/>
     <text stroke="none" x="893.0" y="1143.0" font-size="10.0" font-family="helvetica">NT1.48</text>
    </g>
    <g>
     <circle stroke="black" stroke-width="0.5" fill="#aaffff" cx="895.0" cy="1320.0" r="1.0"/>
     <text stroke="none" x="895.0" y="1320.0" font-size="20.0" font-family="helvetica">Marinobacter hydrocarbonoclasticus ATCC 498407 (X67022)</text>
    </g>
    <g>
     <circle stroke="black" stroke-width="0.5" fill="#aaffff" cx="912.0" cy="916.0" r="1.0"/>
     <text stroke="none" x="912.0" y="916.0" font-size="20.0" font-family="helvetica">100</text>
    </g>
    <g>
     <circle stroke="black" stroke-width="0.5" fill="#aaffff" cx="915.0" cy="1108.0" r="1.0"/>
     <text stroke="none" x="915.0" y="1108.0" font-size="20.0" font-family="helvetica">Marinobacter flavimaris SW-1457 (AY517632)</text>
    </g>
    <g>
     <circle stroke="black" stroke-width="0.5" fill="#aaffff" cx="919.0" cy="333.0" r="1.0"/>
     <text stroke="none" x="919.0" y="333.0" font-size="20.0" font-family="helvetica">Marinomonas ostreistagni UST010306-0437 (AB242868)</text>
    </g>
    <g>
     <circle stroke="black" stroke-width="0.5" fill="#aaffff" cx="927.0" cy="1178.0" r="1.0"/>
     <text stroke="none" x="927.0" y="1178.0" font-size="20.0" font-family="helvetica">Marinobacter sediminum R657 (AJ609270)</text>
    </g>
    <g>
     <circle stroke="black" stroke-width="0.5" fill="#aaffff" cx="936.0" cy="825.0" r="1.0"/>
     <text stroke="none" x="936.0" y="825.0" font-size="20.0" font-family="helvetica">Balneatrix alpica 4-877 (Y17112)</text>
    </g>
    <g>
     <circle stroke="black" stroke-width="0.5" fill="#aaffff" cx="938.0" cy="880.0" r="1.0"/>
     <text stroke="none" x="938.0" y="880.0" font-size="20.0" font-family="helvetica">33</text>
    </g>
    <g>
     <circle stroke="black" stroke-width="0.5" fill="#aaffff" cx="948.0" cy="297.0" r="1.0"/>
     <text stroke="none" x="948.0" y="297.0" font-size="20.0" font-family="helvetica">Marinomonas aquimarina 11SM47 (AJ843077)</text>
    </g>
    <g>
     <circle stroke="black" stroke-width="0.5" fill="#aaffff" cx="949.0" cy="756.0" r="1.0"/>
     <text stroke="none" x="949.0" y="756.0" font-size="20.0" font-family="helvetica">Oceanospirillum multiglobuliferum IFO 136147 (ABOO6764)</text>
    </g>
    <g>
     <circle stroke="black" stroke-width="0.5" fill="#aaffff" cx="949.0" cy="1072.0" r="1.0"/>
     <text stroke="none" x="949.0" y="1072.0" font-size="10.0" font-family="helvetica">NT1.58</text>
    </g>
    <g>
     <circle stroke="black" stroke-width="0.5" fill="#aaffff" cx="951.0" cy="474.0" r="1.0"/>
     <text stroke="none" x="951.0" y="474.0" font-size="20.0" font-family="helvetica">Marinobacterium georgiense KW-407 (U58339)</text>
    </g>
    <g>
     <circle stroke="black" stroke-width="0.5" fill="#aaffff" cx="953.0" cy="36.0" r="1.0"/>
     <text stroke="none" x="953.0" y="36.0" font-size="20.0" font-family="helvetica">96</text>
    </g>
    <g>
     <circle stroke="black" stroke-width="0.5" fill="#aaffff" cx="958.0" cy="1460.0" r="1.0"/>
     <text stroke="none" x="958.0" y="1460.0" font-size="10.0" font-family="helvetica">NT1.61</text>
    </g>
    <g>
     <circle stroke="black" stroke-width="0.5" fill="#aaffff" cx="964.0" cy="1249.0" r="1.0"/>
     <text stroke="none" x="964.0" y="1249.0" font-size="20.0" font-family="helvetica">Marinobacter maritimus CK 477 (AJ704395)</text>
    </g>
    <g>
     <circle stroke="black" stroke-width="0.5" fill="#aaffff" cx="971.0" cy="227.0" r="1.0"/>
     <text stroke="none" x="971.0" y="227.0" font-size="20.0" font-family="helvetica">Marinomonas communis LMG 28647 (DQ011528)</text>
    </g>
    <g>
     <circle stroke="black" stroke-width="0.5" fill="#aaffff" cx="971.0" cy="686.0" r="1.0"/>
     <text stroke="none" x="971.0" y="686.0" font-size="20.0" font-family="helvetica">Oceanospirillum maris ATCC 275097 (AB006771)</text>
    </g>
    <g>
     <circle stroke="black" stroke-width="0.5" fill="#aaffff" cx="971.0" cy="1002.0" r="1.0"/>
     <text stroke="none" x="971.0" y="1002.0" font-size="20.0" font-family="helvetica">Marinimicrobium agarilyticum M187 (AY839870)</text>
    </g>
    <g>
     <circle stroke="black" stroke-width="0.5" fill="#aaffff" cx="973.0" cy="403.0" r="1.0"/>
     <text stroke="none" x="973.0" y="403.0" font-size="20.0" font-family="helvetica">Thalassolituus oleivorans MIL-17 (AJ431699)</text>
    </g>
    <g>
     <circle stroke="black" stroke-width="0.5" fill="#aaffff" cx="977.0" cy="1214.0" r="1.0"/>
     <text stroke="none" x="977.0" y="1214.0" font-size="20.0" font-family="helvetica">Marinobacler bryozoorum 50-1 17 (AJ609271)</text>
    </g>
    <g>
     <circle stroke="black" stroke-width="0.5" fill="#aaffff" cx="995.0" cy="579.0" r="1.0"/>
     <text stroke="none" x="995.0" y="579.0" font-size="20.0" font-family="helvetica">Neptunomonas naphthovorans NAG-2N-1267 (AF053734)</text>
    </g>
    <g>
     <circle stroke="black" stroke-width="0.5" fill="#aaffff" cx="998.0" cy="1390.0" r="1.0"/>
     <text stroke="none" x="998.0" y="1390.0" font-size="20.0" font-family="helvetica">Marinobacter litoralis SW-457 (AF479689)</text>
    </g>
    <g>
     <circle stroke="black" stroke-width="0.5" fill="#aaffff" cx="1005.0" cy="192.0" r="1.0"/>
     <text stroke="none" x="1005.0" y="192.0" font-size="20.0" font-family="helvetica">Marinomonas mediterranea MMB-17 (AF063027)</text>
    </g>
    <g>
     <circle stroke="black" stroke-width="0.5" fill="#aaffff" cx="1005.0" cy="262.0" r="1.0"/>
     <text stroke="none" x="1005.0" y="262.0" font-size="20.0" font-family="helvetica">Marinomonas vaga ATCC 271197 (X67025)</text>
    </g>
    <g>
     <circle stroke="black" stroke-width="0.5" fill="#aaffff" cx="1009.0" cy="86.0" r="1.0"/>
     <text stroke="none" x="1009.0" y="86.0" font-size="20.0" font-family="helvetica">Marinomonas pontica 46-167 (AY539835)</text>
    </g>
    <g>
     <circle stroke="black" stroke-width="0.5" fill="#aaffff" cx="1017.0" cy="967.0" r="1.0"/>
     <text stroke="none" x="1017.0" y="967.0" font-size="20.0" font-family="helvetica">Marinospirillum alkaliphilum Z47 (AF275713)</text>
    </g>
    <g>
     <circle stroke="black" stroke-width="0.5" fill="#aaffff" cx="1033.0" cy="368.0" r="1.0"/>
     <text stroke="none" x="1033.0" y="368.0" font-size="20.0" font-family="helvetica">Oceanobacter kriegii IFO 154677 (ABO06767)</text>
    </g>
    <g>
     <circle stroke="black" stroke-width="0.5" fill="#aaffff" cx="1038.0" cy="1037.0" r="1.0"/>
     <text stroke="none" x="1038.0" y="1037.0" font-size="20.0" font-family="helvetica">Marinimicrobium koreense M97 (AY839869)</text>
    </g>
    <g>
     <circle stroke="black" stroke-width="0.5" fill="#aaffff" cx="1045.0" cy="121.0" r="1.0"/>
     <text stroke="none" x="1045.0" y="121.0" font-size="20.0" font-family="helvetica">Marinomonas dokdonensis DSW10-107 (DQ011526)</text>
    </g>
    <g>
     <circle stroke="black" stroke-width="0.5" fill="#aaffff" cx="1065.0" cy="861.0" r="1.0"/>
     <text stroke="none" x="1065.0" y="861.0" font-size="20.0" font-family="helvetica">Marinospirillum insulare K7 (ABO98510)</text>
    </g>
    <g>
     <circle stroke="black" stroke-width="0.5" fill="#aaffff" cx="1069.0" cy="931.0" r="1.0"/>
     <text stroke="none" x="1069.0" y="931.0" font-size="20.0" font-family="helvetica">Marinospirillum minutulum ATCC 191937 (AB006769)</text>
    </g>
    <g>
     <circle stroke="black" stroke-width="0.5" fill="#aaffff" cx="1087.0" cy="896.0" r="1.0"/>
     <text stroke="none" x="1087.0" y="896.0" font-size="20.0" font-family="helvetica">Marinospirillum megaterium H77 (AB006770)</text>
    </g>
    <g>
     <circle stroke="black" stroke-width="0.5" fill="#aaffff" cx="1116.0" cy="156.0" r="1.0"/>
     <text stroke="none" x="1116.0" y="156.0" font-size="20.0" font-family="helvetica">Marinomonas ushuaiensis U17 (AJ627909)</text>
    </g>
    <g>
     <circle stroke="black" stroke-width="0.5" fill="#aaffff" cx="1136.0" cy="544.0" r="1.0"/>
     <text stroke="none" x="1136.0" y="544.0" font-size="10.0" font-family="helvetica">NT1.81</text>
    </g>
    <g>
     <circle stroke="black" stroke-width="0.5" fill="#aaffff" cx="1158.0" cy="16.0" r="1.0"/>
     <text stroke="none" x="1158.0" y="16.0" font-size="20.0" font-family="helvetica">Marinomonas primoryensis KMM 36337 (AB074193)</text>
    </g>
    <g>
     <circle stroke="black" stroke-width="0.5" fill="#aaffff" cx="1202.0" cy="51.0" r="1.0"/>
     <text stroke="none" x="1202.0" y="51.0" font-size="20.0" font-family="helvetica">Marinomonas polaris CK 137 (AJ833000)</text>
    </g>
    <g>
     <circle stroke="black" stroke-width="0.5" fill="#aaffff" cx="1248.0" cy="438.0" r="1.0"/>
     <text stroke="none" x="1248.0" y="438.0" font-size="20.0" font-family="helvetica">Oleispira antarctica RB-87 (AJ426420)</text>
    </g>
    <line stroke="black" x1="1202.0" y1="51.0" x2="953.0" y2="36.0" stroke-width="0.5"/>
    <line stroke="black" x1="1005.0" y1="192.0" x2="637.0" y2="176.0" stroke-width="0.5"/>
    <line stroke="black" x1="948.0" y1="297.0" x2="739.0" y2="282.0" stroke-width="0.5"/>
    <line stroke="black" x1="971.0" y1="227.0" x2="755.0" y2="246.0" stroke-width="0.5"/>
    <line stroke="black" x1="815.0" y1="509.0" x2="507.0" y2="493.0" stroke-width="0.5"/>
    <line stroke="black" x1="842.0" y1="721.0" x2="574.0" y2="705.0" stroke-width="0.5"/>
    <line stroke="black" x1="949.0" y1="756.0" x2="405.0" y2="740.0" stroke-width="0.5"/>
    <line stroke="black" x1="936.0" y1="825.0" x2="130.0" y2="810.0" stroke-width="0.5"/>
    <line stroke="black" x1="971.0" y1="686.0" x2="668.0" y2="670.0" stroke-width="0.5"/>
    <line stroke="black" x1="971.0" y1="1002.0" x2="742.0" y2="1020.0" stroke-width="0.5"/>
    <line stroke="black" x1="1017.0" y1="967.0" x2="390.0" y2="951.0" stroke-width="0.5"/>
    <line stroke="black" x1="1038.0" y1="1037.0" x2="742.0" y2="1020.0" stroke-width="0.5"/>
    <line stroke="black" x1="1069.0" y1="931.0" x2="912.0" y2="916.0" stroke-width="0.5"/>
    <line stroke="black" x1="1065.0" y1="861.0" x2="938.0" y2="880.0" stroke-width="0.5"/>
    <line stroke="black" x1="1087.0" y1="896.0" x2="938.0" y2="880.0" stroke-width="0.5"/>
    <line stroke="black" x1="870.0" y1="1354.0" x2="691.0" y2="1372.0" stroke-width="0.5"/>
    <line stroke="black" x1="895.0" y1="1320.0" x2="650.0" y2="1303.0" stroke-width="0.5"/>
    <line stroke="black" x1="893.0" y1="1284.0" x2="650.0" y2="1303.0" stroke-width="0.5"/>
    <line stroke="black" x1="964.0" y1="1249.0" x2="621.0" y2="1233.0" stroke-width="0.5"/>
    <line stroke="black" x1="977.0" y1="1214.0" x2="656.0" y2="1197.0" stroke-width="0.5"/>
    <line stroke="black" x1="915.0" y1="1108.0" x2="758.0" y2="1092.0" stroke-width="0.5"/>
    <line stroke="black" x1="927.0" y1="1178.0" x2="751.0" y2="1161.0" stroke-width="0.5"/>
    <line stroke="black" x1="998.0" y1="1390.0" x2="691.0" y2="1372.0" stroke-width="0.5"/>
    <line stroke="black" x1="953.0" y1="36.0" x2="869.0" y2="70.0" stroke-width="0.5"/>
    <line stroke="black" x1="869.0" y1="70.0" x2="833.0" y2="106.0" stroke-width="0.5"/>
    <line stroke="black" x1="833.0" y1="106.0" x2="809.0" y2="141.0" stroke-width="0.5"/>
    <line stroke="black" x1="809.0" y1="141.0" x2="637.0" y2="176.0" stroke-width="0.5"/>
    <line stroke="black" x1="637.0" y1="176.0" x2="580.0" y2="211.0" stroke-width="0.5"/>
    <line stroke="black" x1="580.0" y1="211.0" x2="217.0" y2="352.0" stroke-width="0.5"/>
    <line stroke="black" x1="580.0" y1="211.0" x2="731.0" y2="315.0" stroke-width="0.5"/>
    <line stroke="black" x1="731.0" y1="315.0" x2="739.0" y2="282.0" stroke-width="0.5"/>
    <line stroke="black" x1="739.0" y1="282.0" x2="755.0" y2="246.0" stroke-width="0.5"/>
    <line stroke="black" x1="217.0" y1="352.0" x2="347.0" y2="421.0" stroke-width="0.5"/>
    <line stroke="black" x1="217.0" y1="352.0" x2="164.0" y2="458.0" stroke-width="0.5"/>
    <line stroke="black" x1="347.0" y1="421.0" x2="478.0" y2="387.0" stroke-width="0.5"/>
    <line stroke="black" x1="164.0" y1="458.0" x2="150.0" y2="598.0" stroke-width="0.5"/>
    <line stroke="black" x1="164.0" y1="458.0" x2="280.0" y2="580.0" stroke-width="0.5"/>
    <line stroke="black" x1="150.0" y1="598.0" x2="130.0" y2="810.0" stroke-width="0.5"/>
    <line stroke="black" x1="130.0" y1="810.0" x2="76.0" y2="845.0" stroke-width="0.5"/>
    <line stroke="black" x1="245.0" y1="772.0" x2="405.0" y2="740.0" stroke-width="0.5"/>
    <line stroke="black" x1="425.0" y1="529.0" x2="507.0" y2="493.0" stroke-width="0.5"/>
    <line stroke="black" x1="76.0" y1="845.0" x2="116.0" y2="985.0" stroke-width="0.5"/>
    <line stroke="black" x1="76.0" y1="845.0" x2="49.0" y2="1057.0" stroke-width="0.5"/>
    <line stroke="black" x1="405.0" y1="740.0" x2="574.0" y2="705.0" stroke-width="0.5"/>
    <line stroke="black" x1="116.0" y1="985.0" x2="742.0" y2="1020.0" stroke-width="0.5"/>
    <line stroke="black" x1="116.0" y1="985.0" x2="390.0" y2="951.0" stroke-width="0.5"/>
    <line stroke="black" x1="49.0" y1="1057.0" x2="5.0" y2="1259.0" stroke-width="0.5"/>
    <line stroke="black" x1="390.0" y1="951.0" x2="912.0" y2="916.0" stroke-width="0.5"/>
    <line stroke="black" x1="457.0" y1="1407.0" x2="505.0" y2="1268.0" stroke-width="0.5"/>
    <line stroke="black" x1="912.0" y1="916.0" x2="938.0" y2="880.0" stroke-width="0.5"/>
    <line stroke="black" x1="505.0" y1="1268.0" x2="597.0" y2="1337.0" stroke-width="0.5"/>
    <line stroke="black" x1="505.0" y1="1268.0" x2="621.0" y2="1233.0" stroke-width="0.5"/>
    <line stroke="black" x1="621.0" y1="1233.0" x2="656.0" y2="1197.0" stroke-width="0.5"/>
    <line stroke="black" x1="597.0" y1="1337.0" x2="691.0" y2="1372.0" stroke-width="0.5"/>
    <line stroke="black" x1="597.0" y1="1337.0" x2="650.0" y2="1303.0" stroke-width="0.5"/>
    <line stroke="black" x1="656.0" y1="1197.0" x2="732.0" y2="1127.0" stroke-width="0.5"/>
    <line stroke="black" x1="995.0" y1="579.0" x2="328.0" y2="597.0" stroke-width="0.5"/>
    <line stroke="black" x1="1248.0" y1="438.0" x2="347.0" y2="421.0" stroke-width="0.5"/>
    <line stroke="black" x1="951.0" y1="474.0" x2="507.0" y2="493.0" stroke-width="0.5"/>
    <line stroke="black" x1="973.0" y1="403.0" x2="478.0" y2="387.0" stroke-width="0.5"/>
    <line stroke="black" x1="1033.0" y1="368.0" x2="478.0" y2="387.0" stroke-width="0.5"/>
    <line stroke="black" x1="919.0" y1="333.0" x2="731.0" y2="315.0" stroke-width="0.5"/>
    <line stroke="black" x1="1005.0" y1="262.0" x2="755.0" y2="246.0" stroke-width="0.5"/>
    <line stroke="black" x1="1116.0" y1="156.0" x2="809.0" y2="141.0" stroke-width="0.5"/>
    <line stroke="black" x1="1009.0" y1="86.0" x2="869.0" y2="70.0" stroke-width="0.5"/>
    <line stroke="black" x1="1045.0" y1="121.0" x2="833.0" y2="106.0" stroke-width="0.5"/>
    <line stroke="black" x1="1158.0" y1="16.0" x2="953.0" y2="36.0" stroke-width="0.5"/>
   </g>
  </g>
 </svg>
</svg>
