<?xml version="1.0" encoding="UTF-8"?>
<svg height="800.0" width="700.0" xmlns="http://www.w3.org/2000/svg">
 <svg>
  <g>
   <g>
    <g>
     <circle stroke="black" stroke-width="0.5" fill="#aaffff" cx="132.0" cy="1390.0" r="1.0"/>
     <text stroke="none" x="132.0" y="1390.0" font-size="10.0" font-family="helvetica">NT1.1</text>
    </g>
    <g>
     <circle stroke="black" stroke-width="0.5" fill="#aaffff" cx="174.0" cy="1165.0" r="1.0"/>
     <text stroke="none" x="174.0" y="1165.0" font-size="10.0" font-family="helvetica">NT1.2</text>
    </g>
    <g>
     <circle stroke="black" stroke-width="0.5" fill="#aaffff" cx="224.0" cy="1377.0" r="1.0"/>
     <text stroke="none" x="224.0" y="1377.0" font-size="20.0" font-family="helvetica">77</text>
    </g>
    <g>
     <circle stroke="black" stroke-width="0.5" fill="#aaffff" cx="241.0" cy="950.0" r="1.0"/>
     <text stroke="none" x="241.0" y="950.0" font-size="20.0" font-family="helvetica">69</text>
    </g>
    <g>
     <circle stroke="black" stroke-width="0.5" fill="#aaffff" cx="254.0" cy="719.0" r="1.0"/>
     <text stroke="none" x="254.0" y="719.0" font-size="10.0" font-family="helvetica">NT1.5</text>
    </g>
    <g>
     <circle stroke="black" stroke-width="0.5" fill="#aaffff" cx="270.0" cy="892.0" r="1.0"/>
     <text stroke="none" x="270.0" y="892.0" font-size="10.0" font-family="helvetica">NT1.6</text>
    </g>
    <g>
     <circle stroke="black" stroke-width="0.5" fill="#aaffff" cx="312.0" cy="578.0" r="1.0"/>
     <text stroke="none" x="312.0" y="578.0" font-size="10.0" font-family="helvetica">NT1.7</text>
    </g>
    <g>
     <circle stroke="black" stroke-width="0.5" fill="#aaffff" cx="312.0" cy="940.0" r="1.0"/>
     <text stroke="none" x="312.0" y="940.0" font-size="20.0" font-family="helvetica">.</text>
    </g>
    <g>
     <circle stroke="black" stroke-width="0.5" fill="#aaffff" cx="340.0" cy="1112.0" r="1.0"/>
     <text stroke="none" x="340.0" y="1112.0" font-size="10.0" font-family="helvetica">NT1.9</text>
    </g>
    <g>
     <circle stroke="black" stroke-width="0.5" fill="#aaffff" cx="350.0" cy="1111.0" r="1.0"/>
     <text stroke="none" x="350.0" y="1111.0" font-size="10.0" font-family="helvetica">NT1.10</text>
    </g>
    <g>
     <circle stroke="black" stroke-width="0.5" fill="#aaffff" cx="354.0" cy="1444.0" r="1.0"/>
     <text stroke="none" x="354.0" y="1444.0" font-size="10.0" font-family="helvetica">NT1.11</text>
    </g>
    <g>
     <circle stroke="black" stroke-width="0.5" fill="#aaffff" cx="363.0" cy="1489.0" r="1.0"/>
     <text stroke="none" x="363.0" y="1489.0" font-size="10.0" font-family="helvetica">NT1.12</text>
    </g>
    <g>
     <circle stroke="black" stroke-width="0.5" fill="#aaffff" cx="371.0" cy="1496.0" r="1.0"/>
     <text stroke="none" x="371.0" y="1496.0" font-size="10.0" font-family="helvetica">NT1.13</text>
    </g>
    <g>
     <circle stroke="black" stroke-width="0.5" fill="#aaffff" cx="373.0" cy="1508.0" r="1.0"/>
     <text stroke="none" x="373.0" y="1508.0" font-size="10.0" font-family="helvetica">NT1.14</text>
    </g>
    <g>
     <circle stroke="black" stroke-width="0.5" fill="#aaffff" cx="373.0" cy="420.0" r="1.0"/>
     <text stroke="none" x="373.0" y="420.0" font-size="10.0" font-family="helvetica">NT1.15</text>
    </g>
    <g>
     <circle stroke="black" stroke-width="0.5" fill="#aaffff" cx="381.0" cy="420.0" r="1.0"/>
     <text stroke="none" x="381.0" y="420.0" font-size="10.0" font-family="helvetica">NT1.16</text>
    </g>
    <g>
     <circle stroke="black" stroke-width="0.5" fill="#aaffff" cx="393.0" cy="511.0" r="1.0"/>
     <text stroke="none" x="393.0" y="511.0" font-size="10.0" font-family="helvetica">NT1.17</text>
    </g>
    <g>
     <circle stroke="black" stroke-width="0.5" fill="#aaffff" cx="394.0" cy="1490.0" r="1.0"/>
     <text stroke="none" x="394.0" y="1490.0" font-size="10.0" font-family="helvetica">NT1.18</text>
    </g>
    <g>
     <circle stroke="black" stroke-width="0.5" fill="#aaffff" cx="401.0" cy="511.0" r="1.0"/>
     <text stroke="none" x="401.0" y="511.0" font-size="10.0" font-family="helvetica">NT1.19</text>
    </g>
    <g>
     <circle stroke="black" stroke-width="0.5" fill="#aaffff" cx="410.0" cy="490.0" r="1.0"/>
     <text stroke="none" x="410.0" y="490.0" font-size="10.0" font-family="helvetica">NT1.20</text>
    </g>
    <g>
     <circle stroke="black" stroke-width="0.5" fill="#aaffff" cx="412.0" cy="1313.0" r="1.0"/>
     <text stroke="none" x="412.0" y="1313.0" font-size="20.0" font-family="helvetica">100</text>
    </g>
    <g>
     <circle stroke="black" stroke-width="0.5" fill="#aaffff" cx="416.0" cy="1159.0" r="1.0"/>
     <text stroke="none" x="416.0" y="1159.0" font-size="20.0" font-family="helvetica">54</text>
    </g>
    <g>
     <circle stroke="black" stroke-width="0.5" fill="#aaffff" cx="419.0" cy="1314.0" r="1.0"/>
     <text stroke="none" x="419.0" y="1314.0" font-size="10.0" font-family="helvetica">NT1.23</text>
    </g>
    <g>
     <circle stroke="black" stroke-width="0.5" fill="#aaffff" cx="419.0" cy="1531.0" r="1.0"/>
     <text stroke="none" x="419.0" y="1531.0" font-size="20.0" font-family="helvetica">95</text>
    </g>
    <g>
     <circle stroke="black" stroke-width="0.5" fill="#aaffff" cx="424.0" cy="1159.0" r="1.0"/>
     <text stroke="none" x="424.0" y="1159.0" font-size="10.0" font-family="helvetica">NT1.25</text>
    </g>
    <g>
     <circle stroke="black" stroke-width="0.5" fill="#aaffff" cx="464.0" cy="1504.0" r="1.0"/>
     <text stroke="none" x="464.0" y="1504.0" font-size="20.0" font-family="helvetica"> Roseospira marina CE2105T (AJ298879)</text>
    </g>
    <g>
     <circle stroke="black" stroke-width="0.5" fill="#aaffff" cx="468.0" cy="330.0" r="1.0"/>
     <text stroke="none" x="468.0" y="330.0" font-size="20.0" font-family="helvetica">99</text>
    </g>
    <g>
     <circle stroke="black" stroke-width="0.5" fill="#aaffff" cx="476.0" cy="330.0" r="1.0"/>
     <text stroke="none" x="476.0" y="330.0" font-size="10.0" font-family="helvetica">NT1.28</text>
    </g>
    <g>
     <circle stroke="black" stroke-width="0.5" fill="#aaffff" cx="483.0" cy="1449.0" r="1.0"/>
     <text stroke="none" x="483.0" y="1449.0" font-size="10.0" font-family="helvetica">NT1.29</text>
    </g>
    <g>
     <circle stroke="black" stroke-width="0.5" fill="#aaffff" cx="489.0" cy="1559.0" r="1.0"/>
     <text stroke="none" x="489.0" y="1559.0" font-size="20.0" font-family="helvetica">Roseospira navamensis SE31 o4T (AJ298880)</text>
    </g>
    <g>
     <circle stroke="black" stroke-width="0.5" fill="#aaffff" cx="526.0" cy="256.0" r="1.0"/>
     <text stroke="none" x="526.0" y="256.0" font-size="10.0" font-family="helvetica">NT1.31</text>
    </g>
    <g>
     <circle stroke="black" stroke-width="0.5" fill="#aaffff" cx="549.0" cy="321.0" r="1.0"/>
     <text stroke="none" x="549.0" y="321.0" font-size="10.0" font-family="helvetica">NT1.32</text>
    </g>
    <g>
     <circle stroke="black" stroke-width="0.5" fill="#aaffff" cx="553.0" cy="1339.0" r="1.0"/>
     <text stroke="none" x="553.0" y="1339.0" font-size="10.0" font-family="helvetica">NT1.33</text>
    </g>
    <g>
     <circle stroke="black" stroke-width="0.5" fill="#aaffff" cx="553.0" cy="189.0" r="1.0"/>
     <text stroke="none" x="553.0" y="189.0" font-size="10.0" font-family="helvetica">NT1.34</text>
    </g>
    <g>
     <circle stroke="black" stroke-width="0.5" fill="#aaffff" cx="575.0" cy="1201.0" r="1.0"/>
     <text stroke="none" x="575.0" y="1201.0" font-size="10.0" font-family="helvetica">NT1.35</text>
    </g>
    <g>
     <circle stroke="black" stroke-width="0.5" fill="#aaffff" cx="581.0" cy="1174.0" r="1.0"/>
     <text stroke="none" x="581.0" y="1174.0" font-size="20.0" font-family="helvetica">Phaeospimlum fulvum NCIMB 11762T (D14433)</text>
    </g>
    <g>
     <circle stroke="black" stroke-width="0.5" fill="#aaffff" cx="583.0" cy="1201.0" r="1.0"/>
     <text stroke="none" x="583.0" y="1201.0" font-size="10.0" font-family="helvetica">NT1.37</text>
    </g>
    <g>
     <circle stroke="black" stroke-width="0.5" fill="#aaffff" cx="585.0" cy="1394.0" r="1.0"/>
     <text stroke="none" x="585.0" y="1394.0" font-size="10.0" font-family="helvetica">NT1.38</text>
    </g>
    <g>
     <circle stroke="black" stroke-width="0.5" fill="#aaffff" cx="589.0" cy="1229.0" r="1.0"/>
     <text stroke="none" x="589.0" y="1229.0" font-size="10.0" font-family="helvetica">NT1.39</text>
    </g>
    <g>
     <circle stroke="black" stroke-width="0.5" fill="#aaffff" cx="604.0" cy="1119.0" r="1.0"/>
     <text stroke="none" x="604.0" y="1119.0" font-size="10.0" font-family="helvetica">NT1.40</text>
    </g>
    <g>
     <circle stroke="black" stroke-width="0.5" fill="#aaffff" cx="623.0" cy="1284.0" r="1.0"/>
     <text stroke="none" x="623.0" y="1284.0" font-size="20.0" font-family="helvetica">Rhodospilillum photometricum DSM 122T (AJ222662)</text>
    </g>
    <g>
     <circle stroke="black" stroke-width="0.5" fill="#aaffff" cx="658.0" cy="899.0" r="1.0"/>
     <text stroke="none" x="658.0" y="899.0" font-size="10.0" font-family="helvetica">NT1.42</text>
    </g>
    <g>
     <circle stroke="black" stroke-width="0.5" fill="#aaffff" cx="661.0" cy="239.0" r="1.0"/>
     <text stroke="none" x="661.0" y="239.0" font-size="20.0" font-family="helvetica">Azospirillum doebereinerae GSF71T (AJ238567)</text>
    </g>
    <g>
     <circle stroke="black" stroke-width="0.5" fill="#aaffff" cx="661.0" cy="1063.0" r="1.0"/>
     <text stroke="none" x="661.0" y="1063.0" font-size="20.0" font-family="helvetica">Telmatospirillum siberiense 28-4b1T (AF524863)</text>
    </g>
    <g>
     <circle stroke="black" stroke-width="0.5" fill="#aaffff" cx="684.0" cy="20.0" r="1.0"/>
     <text stroke="none" x="684.0" y="20.0" font-size="20.0" font-family="helvetica">Azospirillum melinis TMCY 05527 (DQ022958)</text>
    </g>
    <g>
     <circle stroke="black" stroke-width="0.5" fill="#aaffff" cx="684.0" cy="734.0" r="1.0"/>
     <text stroke="none" x="684.0" y="734.0" font-size="10.0" font-family="helvetica">NT1.46</text>
    </g>
    <g>
     <circle stroke="black" stroke-width="0.5" fill="#aaffff" cx="691.0" cy="789.0" r="1.0"/>
     <text stroke="none" x="691.0" y="789.0" font-size="10.0" font-family="helvetica">NT1.47</text>
    </g>
    <g>
     <circle stroke="black" stroke-width="0.5" fill="#aaffff" cx="692.0" cy="350.0" r="1.0"/>
     <text stroke="none" x="692.0" y="350.0" font-size="10.0" font-family="helvetica">NT1.48</text>
    </g>
    <g>
     <circle stroke="black" stroke-width="0.5" fill="#aaffff" cx="707.0" cy="1615.0" r="1.0"/>
     <text stroke="none" x="707.0" y="1615.0" font-size="20.0" font-family="helvetica">Thalassospira lucentensis QMT2T (AF358664)</text>
    </g>
    <g>
     <circle stroke="black" stroke-width="0.5" fill="#aaffff" cx="713.0" cy="981.0" r="1.0"/>
     <text stroke="none" x="713.0" y="981.0" font-size="10.0" font-family="helvetica">NT1.50</text>
    </g>
    <g>
     <circle stroke="black" stroke-width="0.5" fill="#aaffff" cx="715.0" cy="294.0" r="1.0"/>
     <text stroke="none" x="715.0" y="294.0" font-size="20.0" font-family="helvetica">Azospirillum brasilense sp. 7T (X79739)</text>
    </g>
    <g>
     <circle stroke="black" stroke-width="0.5" fill="#aaffff" cx="723.0" cy="981.0" r="1.0"/>
     <text stroke="none" x="723.0" y="981.0" font-size="10.0" font-family="helvetica">NT1.52</text>
    </g>
    <g>
     <circle stroke="black" stroke-width="0.5" fill="#aaffff" cx="724.0" cy="676.0" r="1.0"/>
     <text stroke="none" x="724.0" y="676.0" font-size="20.0" font-family="helvetica">Skermanella parooensis ACM 2o42T (X90760)</text>
    </g>
    <g>
     <circle stroke="black" stroke-width="0.5" fill="#aaffff" cx="734.0" cy="404.0" r="1.0"/>
     <text stroke="none" x="734.0" y="404.0" font-size="20.0" font-family="helvetica">Azospirillum halopraeferens Au 47 (X79731)</text>
    </g>
    <g>
     <circle stroke="black" stroke-width="0.5" fill="#aaffff" cx="736.0" cy="844.0" r="1.0"/>
     <text stroke="none" x="736.0" y="844.0" font-size="20.0" font-family="helvetica">Defluviicoccus vanus Ben 114T (AF179678)</text>
    </g>
    <g>
     <circle stroke="black" stroke-width="0.5" fill="#aaffff" cx="769.0" cy="1009.0" r="1.0"/>
     <text stroke="none" x="769.0" y="1009.0" font-size="10.0" font-family="helvetica">NT1.56</text>
    </g>
    <g>
     <circle stroke="black" stroke-width="0.5" fill="#aaffff" cx="771.0" cy="953.0" r="1.0"/>
     <text stroke="none" x="771.0" y="953.0" font-size="10.0" font-family="helvetica">NT1.57</text>
    </g>
    <g>
     <circle stroke="black" stroke-width="0.5" fill="#aaffff" cx="771.0" cy="1669.0" r="1.0"/>
     <text stroke="none" x="771.0" y="1669.0" font-size="20.0" font-family="helvetica">Escherichia coli ATCC 11775 (X80725)</text>
    </g>
    <g>
     <circle stroke="black" stroke-width="0.5" fill="#aaffff" cx="5.0" cy="1529.0" r="1.0"/>
     <text stroke="none" x="5.0" y="1529.0" font-size="10.0" font-family="helvetica">NT1.59</text>
    </g>
    <line stroke="black" x1="684.0" y1="20.0" x2="553.0" y2="189.0" stroke-width="0.5"/>
    <line stroke="black" x1="661.0" y1="239.0" x2="553.0" y2="189.0" stroke-width="0.5"/>
    <line stroke="black" x1="715.0" y1="294.0" x2="549.0" y2="321.0" stroke-width="0.5"/>
    <line stroke="black" x1="734.0" y1="404.0" x2="468.0" y2="330.0" stroke-width="0.5"/>
    <line stroke="black" x1="736.0" y1="844.0" x2="270.0" y2="892.0" stroke-width="0.5"/>
    <line stroke="black" x1="581.0" y1="1174.0" x2="575.0" y2="1201.0" stroke-width="0.5"/>
    <line stroke="black" x1="661.0" y1="1063.0" x2="340.0" y2="1112.0" stroke-width="0.5"/>
    <line stroke="black" x1="464.0" y1="1504.0" x2="419.0" y2="1531.0" stroke-width="0.5"/>
    <line stroke="black" x1="489.0" y1="1559.0" x2="419.0" y2="1531.0" stroke-width="0.5"/>
    <line stroke="black" x1="623.0" y1="1284.0" x2="412.0" y2="1313.0" stroke-width="0.5"/>
    <line stroke="black" x1="707.0" y1="1615.0" x2="132.0" y2="1390.0" stroke-width="0.5"/>
    <line stroke="black" x1="553.0" y1="189.0" x2="526.0" y2="256.0" stroke-width="0.5"/>
    <line stroke="black" x1="526.0" y1="256.0" x2="468.0" y2="330.0" stroke-width="0.5"/>
    <line stroke="black" x1="468.0" y1="330.0" x2="373.0" y2="420.0" stroke-width="0.5"/>
    <line stroke="black" x1="373.0" y1="420.0" x2="312.0" y2="578.0" stroke-width="0.5"/>
    <line stroke="black" x1="254.0" y1="719.0" x2="241.0" y2="950.0" stroke-width="0.5"/>
    <line stroke="black" x1="241.0" y1="950.0" x2="174.0" y2="1165.0" stroke-width="0.5"/>
    <line stroke="black" x1="241.0" y1="950.0" x2="340.0" y2="1112.0" stroke-width="0.5"/>
    <line stroke="black" x1="174.0" y1="1165.0" x2="132.0" y2="1390.0" stroke-width="0.5"/>
    <line stroke="black" x1="174.0" y1="1165.0" x2="224.0" y2="1377.0" stroke-width="0.5"/>
    <line stroke="black" x1="363.0" y1="1489.0" x2="419.0" y2="1531.0" stroke-width="0.5"/>
    <line stroke="black" x1="5.0" y1="1529.0" x2="771.0" y2="1669.0" stroke-width="0.5"/>
    <line stroke="black" x1="5.0" y1="1529.0" x2="132.0" y2="1390.0" stroke-width="0.5"/>
    <line stroke="black" x1="724.0" y1="676.0" x2="393.0" y2="511.0" stroke-width="0.5"/>
   </g>
  </g>
 </svg>
</svg>
