<?xml version="1.0" encoding="UTF-8"?>
<svg height="800.0" width="700.0" xmlns="http://www.w3.org/2000/svg">
 <svg>
  <g>
   <g>
    <g>
     <circle stroke="black" stroke-width="0.5" fill="#aaffff" cx="2.0" cy="658.0" r="1.0"/>
     <text stroke="none" x="2.0" y="658.0" font-size="20.0" font-family="helvetica"/>
    </g>
    <g>
     <circle stroke="black" stroke-width="0.5" fill="#aaffff" cx="4.0" cy="658.0" r="1.0"/>
     <text stroke="none" x="4.0" y="658.0" font-size="10.0" font-family="helvetica">NT1.2</text>
    </g>
    <g>
     <circle stroke="black" stroke-width="0.5" fill="#aaffff" cx="83.0" cy="568.0" r="1.0"/>
     <text stroke="none" x="83.0" y="568.0" font-size="10.0" font-family="helvetica">NT1.3</text>
    </g>
    <g>
     <circle stroke="black" stroke-width="0.5" fill="#aaffff" cx="161.0" cy="418.0" r="1.0"/>
     <text stroke="none" x="161.0" y="418.0" font-size="10.0" font-family="helvetica">NT1.4</text>
    </g>
    <g>
     <circle stroke="black" stroke-width="0.5" fill="#aaffff" cx="241.0" cy="307.0" r="1.0"/>
     <text stroke="none" x="241.0" y="307.0" font-size="10.0" font-family="helvetica">NT1.5</text>
    </g>
    <g>
     <circle stroke="black" stroke-width="0.5" fill="#aaffff" cx="318.0" cy="232.0" r="1.0"/>
     <text stroke="none" x="318.0" y="232.0" font-size="10.0" font-family="helvetica">NT1.6</text>
    </g>
    <g>
     <circle stroke="black" stroke-width="0.5" fill="#aaffff" cx="398.0" cy="175.0" r="1.0"/>
     <text stroke="none" x="398.0" y="175.0" font-size="10.0" font-family="helvetica">NT1.7</text>
    </g>
    <g>
     <circle stroke="black" stroke-width="0.5" fill="#aaffff" cx="476.0" cy="112.0" r="1.0"/>
     <text stroke="none" x="476.0" y="112.0" font-size="10.0" font-family="helvetica">NT1.8</text>
    </g>
    <g>
     <circle stroke="black" stroke-width="0.5" fill="#aaffff" cx="476.0" cy="374.0" r="1.0"/>
     <text stroke="none" x="476.0" y="374.0" font-size="10.0" font-family="helvetica">NT1.9</text>
    </g>
    <g>
     <circle stroke="black" stroke-width="0.5" fill="#aaffff" cx="476.0" cy="526.0" r="1.0"/>
     <text stroke="none" x="476.0" y="526.0" font-size="10.0" font-family="helvetica">NT1.10</text>
    </g>
    <g>
     <circle stroke="black" stroke-width="0.5" fill="#aaffff" cx="476.0" cy="715.0" r="1.0"/>
     <text stroke="none" x="476.0" y="715.0" font-size="10.0" font-family="helvetica">NT1.11</text>
    </g>
    <g>
     <circle stroke="black" stroke-width="0.5" fill="#aaffff" cx="555.0" cy="62.0" r="1.0"/>
     <text stroke="none" x="555.0" y="62.0" font-size="10.0" font-family="helvetica">NT1.12</text>
    </g>
    <g>
     <circle stroke="black" stroke-width="0.5" fill="#aaffff" cx="555.0" cy="160.0" r="1.0"/>
     <text stroke="none" x="555.0" y="160.0" font-size="10.0" font-family="helvetica">NT1.13</text>
    </g>
    <g>
     <circle stroke="black" stroke-width="0.5" fill="#aaffff" cx="555.0" cy="413.0" r="1.0"/>
     <text stroke="none" x="555.0" y="413.0" font-size="10.0" font-family="helvetica">NT1.14</text>
    </g>
    <g>
     <circle stroke="black" stroke-width="0.5" fill="#aaffff" cx="555.0" cy="765.0" r="1.0"/>
     <text stroke="none" x="555.0" y="765.0" font-size="10.0" font-family="helvetica">NT1.15</text>
    </g>
    <g>
     <circle stroke="black" stroke-width="0.5" fill="#aaffff" cx="555.0" cy="667.0" r="1.0"/>
     <text stroke="none" x="555.0" y="667.0" font-size="10.0" font-family="helvetica">NT1.16</text>
    </g>
    <g>
     <circle stroke="black" stroke-width="0.5" fill="#aaffff" cx="556.0" cy="564.0" r="1.0"/>
     <text stroke="none" x="556.0" y="564.0" font-size="10.0" font-family="helvetica">NT1.17</text>
    </g>
    <g>
     <circle stroke="black" stroke-width="0.5" fill="#aaffff" cx="631.0" cy="86.0" r="1.0"/>
     <text stroke="none" x="631.0" y="86.0" font-size="10.0" font-family="helvetica">NT1.18</text>
    </g>
    <g>
     <circle stroke="black" stroke-width="0.5" fill="#aaffff" cx="631.0" cy="187.0" r="1.0"/>
     <text stroke="none" x="631.0" y="187.0" font-size="10.0" font-family="helvetica">NT1.19</text>
    </g>
    <g>
     <circle stroke="black" stroke-width="0.5" fill="#aaffff" cx="631.0" cy="135.0" r="1.0"/>
     <text stroke="none" x="631.0" y="135.0" font-size="10.0" font-family="helvetica">NT1.20</text>
    </g>
    <g>
     <circle stroke="black" stroke-width="0.5" fill="#aaffff" cx="631.0" cy="388.0" r="1.0"/>
     <text stroke="none" x="631.0" y="388.0" font-size="20.0" font-family="helvetica">Kutzneria viridogrisea JCM 32827 (U58530)</text>
    </g>
    <g>
     <circle stroke="black" stroke-width="0.5" fill="#aaffff" cx="631.0" cy="489.0" r="1.0"/>
     <text stroke="none" x="631.0" y="489.0" font-size="10.0" font-family="helvetica">NT1.22</text>
    </g>
    <g>
     <circle stroke="black" stroke-width="0.5" fill="#aaffff" cx="631.0" cy="540.0" r="1.0"/>
     <text stroke="none" x="631.0" y="540.0" font-size="10.0" font-family="helvetica">NT1.23</text>
    </g>
    <g>
     <circle stroke="black" stroke-width="0.5" fill="#aaffff" cx="631.0" cy="741.0" r="1.0"/>
     <text stroke="none" x="631.0" y="741.0" font-size="20.0" font-family="helvetica">Actinoalloteichus spitiensis RMV-13787 (AY426714)</text>
    </g>
    <g>
     <circle stroke="black" stroke-width="0.5" fill="#aaffff" cx="631.0" cy="792.0" r="1.0"/>
     <text stroke="none" x="631.0" y="792.0" font-size="10.0" font-family="helvetica">NT1.25</text>
    </g>
    <g>
     <circle stroke="black" stroke-width="0.5" fill="#aaffff" cx="631.0" cy="691.0" r="1.0"/>
     <text stroke="none" x="631.0" y="691.0" font-size="20.0" font-family="helvetica">Actinoalloteichus hymeniacidonis HPA1 777 (DQ144222)</text>
    </g>
    <g>
     <circle stroke="black" stroke-width="0.5" fill="#aaffff" cx="631.0" cy="640.0" r="1.0"/>
     <text stroke="none" x="631.0" y="640.0" font-size="20.0" font-family="helvetica">Actinoalloteichus nanshanensis NEAU 1197 (G0926935)</text>
    </g>
    <g>
     <circle stroke="black" stroke-width="0.5" fill="#aaffff" cx="632.0" cy="34.0" r="1.0"/>
     <text stroke="none" x="632.0" y="34.0" font-size="10.0" font-family="helvetica">NT1.28</text>
    </g>
    <g>
     <circle stroke="black" stroke-width="0.5" fill="#aaffff" cx="632.0" cy="237.0" r="1.0"/>
     <text stroke="none" x="632.0" y="237.0" font-size="20.0" font-family="helvetica">Saccharothrix violacea LM O44 (AJ242634)</text>
    </g>
    <g>
     <circle stroke="black" stroke-width="0.5" fill="#aaffff" cx="632.0" cy="288.0" r="1.0"/>
     <text stroke="none" x="632.0" y="288.0" font-size="10.0" font-family="helvetica">NT1.30</text>
    </g>
    <g>
     <circle stroke="black" stroke-width="0.5" fill="#aaffff" cx="632.0" cy="590.0" r="1.0"/>
     <text stroke="none" x="632.0" y="590.0" font-size="10.0" font-family="helvetica">NT1.31</text>
    </g>
    <g>
     <circle stroke="black" stroke-width="0.5" fill="#aaffff" cx="632.0" cy="841.0" r="1.0"/>
     <text stroke="none" x="632.0" y="841.0" font-size="20.0" font-family="helvetica">Streptomyces ambofaciens ATCC 23877T (M27245)</text>
    </g>
    <g>
     <circle stroke="black" stroke-width="0.5" fill="#aaffff" cx="633.0" cy="338.0" r="1.0"/>
     <text stroke="none" x="633.0" y="338.0" font-size="10.0" font-family="helvetica">NT1.33</text>
    </g>
    <g>
     <circle stroke="black" stroke-width="0.5" fill="#aaffff" cx="633.0" cy="439.0" r="1.0"/>
     <text stroke="none" x="633.0" y="439.0" font-size="20.0" font-family="helvetica">Kutzneria albida NRRL B-240607 (EF543522)</text>
    </g>
    <line stroke="black" x1="4.0" y1="658.0" x2="2.0" y2="658.0" stroke-width="0.5"/>
    <line stroke="black" x1="631.0" y1="741.0" x2="555.0" y2="765.0" stroke-width="0.5"/>
    <line stroke="black" x1="631.0" y1="640.0" x2="555.0" y2="667.0" stroke-width="0.5"/>
    <line stroke="black" x1="241.0" y1="307.0" x2="161.0" y2="418.0" stroke-width="0.5"/>
    <line stroke="black" x1="476.0" y1="374.0" x2="555.0" y2="413.0" stroke-width="0.5"/>
    <line stroke="black" x1="83.0" y1="568.0" x2="4.0" y2="658.0" stroke-width="0.5"/>
    <line stroke="black" x1="83.0" y1="568.0" x2="476.0" y2="715.0" stroke-width="0.5"/>
    <line stroke="black" x1="476.0" y1="715.0" x2="555.0" y2="667.0" stroke-width="0.5"/>
    <line stroke="black" x1="632.0" y1="841.0" x2="4.0" y2="658.0" stroke-width="0.5"/>
    <line stroke="black" x1="632.0" y1="237.0" x2="398.0" y2="175.0" stroke-width="0.5"/>
    <line stroke="black" x1="631.0" y1="388.0" x2="555.0" y2="413.0" stroke-width="0.5"/>
    <line stroke="black" x1="631.0" y1="691.0" x2="555.0" y2="667.0" stroke-width="0.5"/>
    <line stroke="black" x1="633.0" y1="439.0" x2="555.0" y2="413.0" stroke-width="0.5"/>
   </g>
  </g>
 </svg>
</svg>
