<?xml version="1.0" encoding="UTF-8"?>
<svg height="800.0" width="700.0" xmlns="http://www.w3.org/2000/svg">
 <svg>
  <g>
   <g>
    <g>
     <circle stroke="black" stroke-width="0.5" fill="#aaffff" cx="3.0" cy="611.0" r="1.0"/>
     <text stroke="none" x="3.0" y="611.0" font-size="20.0" font-family="helvetica"/>
    </g>
    <g>
     <circle stroke="black" stroke-width="0.5" fill="#aaffff" cx="5.0" cy="611.0" r="1.0"/>
     <text stroke="none" x="5.0" y="611.0" font-size="10.0" font-family="helvetica">NT1.2</text>
    </g>
    <g>
     <circle stroke="black" stroke-width="0.5" fill="#aaffff" cx="76.0" cy="521.0" r="1.0"/>
     <text stroke="none" x="76.0" y="521.0" font-size="10.0" font-family="helvetica">NT1.3</text>
    </g>
    <g>
     <circle stroke="black" stroke-width="0.5" fill="#aaffff" cx="127.0" cy="373.0" r="1.0"/>
     <text stroke="none" x="127.0" y="373.0" font-size="10.0" font-family="helvetica">NT1.4</text>
    </g>
    <g>
     <circle stroke="black" stroke-width="0.5" fill="#aaffff" cx="140.0" cy="660.0" r="1.0"/>
     <text stroke="none" x="140.0" y="660.0" font-size="10.0" font-family="helvetica">NT1.5</text>
    </g>
    <g>
     <circle stroke="black" stroke-width="0.5" fill="#aaffff" cx="169.0" cy="713.0" r="1.0"/>
     <text stroke="none" x="169.0" y="713.0" font-size="10.0" font-family="helvetica">NT1.6</text>
    </g>
    <g>
     <circle stroke="black" stroke-width="0.5" fill="#aaffff" cx="202.0" cy="177.0" r="1.0"/>
     <text stroke="none" x="202.0" y="177.0" font-size="10.0" font-family="helvetica">NT1.7</text>
    </g>
    <g>
     <circle stroke="black" stroke-width="0.5" fill="#aaffff" cx="212.0" cy="48.0" r="1.0"/>
     <text stroke="none" x="212.0" y="48.0" font-size="10.0" font-family="helvetica">NT1.8</text>
    </g>
    <g>
     <circle stroke="black" stroke-width="0.5" fill="#aaffff" cx="213.0" cy="304.0" r="1.0"/>
     <text stroke="none" x="213.0" y="304.0" font-size="10.0" font-family="helvetica">NT1.9</text>
    </g>
    <g>
     <circle stroke="black" stroke-width="0.5" fill="#aaffff" cx="223.0" cy="422.0" r="1.0"/>
     <text stroke="none" x="223.0" y="422.0" font-size="10.0" font-family="helvetica">NT1.10</text>
    </g>
    <g>
     <circle stroke="black" stroke-width="0.5" fill="#aaffff" cx="224.0" cy="686.0" r="1.0"/>
     <text stroke="none" x="224.0" y="686.0" font-size="10.0" font-family="helvetica">NT1.11</text>
    </g>
    <g>
     <circle stroke="black" stroke-width="0.5" fill="#aaffff" cx="226.0" cy="189.0" r="1.0"/>
     <text stroke="none" x="226.0" y="189.0" font-size="10.0" font-family="helvetica">NT1.12</text>
    </g>
    <g>
     <circle stroke="black" stroke-width="0.5" fill="#aaffff" cx="244.0" cy="235.0" r="1.0"/>
     <text stroke="none" x="244.0" y="235.0" font-size="10.0" font-family="helvetica">NT1.13</text>
    </g>
    <g>
     <circle stroke="black" stroke-width="0.5" fill="#aaffff" cx="249.0" cy="367.0" r="1.0"/>
     <text stroke="none" x="249.0" y="367.0" font-size="10.0" font-family="helvetica">NT1.14</text>
    </g>
    <g>
     <circle stroke="black" stroke-width="0.5" fill="#aaffff" cx="253.0" cy="485.0" r="1.0"/>
     <text stroke="none" x="253.0" y="485.0" font-size="10.0" font-family="helvetica">NT1.15</text>
    </g>
    <g>
     <circle stroke="black" stroke-width="0.5" fill="#aaffff" cx="261.0" cy="457.0" r="1.0"/>
     <text stroke="none" x="261.0" y="457.0" font-size="20.0" font-family="helvetica">77</text>
    </g>
    <g>
     <circle stroke="black" stroke-width="0.5" fill="#aaffff" cx="270.0" cy="270.0" r="1.0"/>
     <text stroke="none" x="270.0" y="270.0" font-size="10.0" font-family="helvetica">NT1.17</text>
    </g>
    <g>
     <circle stroke="black" stroke-width="0.5" fill="#aaffff" cx="288.0" cy="206.0" r="1.0"/>
     <text stroke="none" x="288.0" y="206.0" font-size="10.0" font-family="helvetica">NT1.18</text>
    </g>
    <g>
     <circle stroke="black" stroke-width="0.5" fill="#aaffff" cx="288.0" cy="475.0" r="1.0"/>
     <text stroke="none" x="288.0" y="475.0" font-size="10.0" font-family="helvetica">NT1.19</text>
    </g>
    <g>
     <circle stroke="black" stroke-width="0.5" fill="#aaffff" cx="289.0" cy="67.0" r="1.0"/>
     <text stroke="none" x="289.0" y="67.0" font-size="10.0" font-family="helvetica">NT1.20</text>
    </g>
    <g>
     <circle stroke="black" stroke-width="0.5" fill="#aaffff" cx="289.0" cy="522.0" r="1.0"/>
     <text stroke="none" x="289.0" y="522.0" font-size="10.0" font-family="helvetica">NT1.21</text>
    </g>
    <g>
     <circle stroke="black" stroke-width="0.5" fill="#aaffff" cx="291.0" cy="433.0" r="1.0"/>
     <text stroke="none" x="291.0" y="433.0" font-size="10.0" font-family="helvetica">NT1.22</text>
    </g>
    <g>
     <circle stroke="black" stroke-width="0.5" fill="#aaffff" cx="295.0" cy="138.0" r="1.0"/>
     <text stroke="none" x="295.0" y="138.0" font-size="10.0" font-family="helvetica">NT1.23</text>
    </g>
    <g>
     <circle stroke="black" stroke-width="0.5" fill="#aaffff" cx="303.0" cy="566.0" r="1.0"/>
     <text stroke="none" x="303.0" y="566.0" font-size="20.0" font-family="helvetica">Desulfobulbus propionicus DSM 2O32T (AY548789)</text>
    </g>
    <g>
     <circle stroke="black" stroke-width="0.5" fill="#aaffff" cx="315.0" cy="343.0" r="1.0"/>
     <text stroke="none" x="315.0" y="343.0" font-size="10.0" font-family="helvetica">NT1.25</text>
    </g>
    <g>
     <circle stroke="black" stroke-width="0.5" fill="#aaffff" cx="319.0" cy="157.0" r="1.0"/>
     <text stroke="none" x="319.0" y="157.0" font-size="10.0" font-family="helvetica">NT1.26</text>
    </g>
    <g>
     <circle stroke="black" stroke-width="0.5" fill="#aaffff" cx="321.0" cy="114.0" r="1.0"/>
     <text stroke="none" x="321.0" y="114.0" font-size="10.0" font-family="helvetica">NT1.27</text>
    </g>
    <g>
     <circle stroke="black" stroke-width="0.5" fill="#aaffff" cx="321.0" cy="294.0" r="1.0"/>
     <text stroke="none" x="321.0" y="294.0" font-size="20.0" font-family="helvetica">Desulfotalea arctica LSv514T (AFO99061)</text>
    </g>
    <g>
     <circle stroke="black" stroke-width="0.5" fill="#aaffff" cx="327.0" cy="250.0" r="1.0"/>
     <text stroke="none" x="327.0" y="250.0" font-size="20.0" font-family="helvetica">Desulfotalea psychrophila LSv54T (AFO99062)</text>
    </g>
    <g>
     <circle stroke="black" stroke-width="0.5" fill="#aaffff" cx="329.0" cy="23.0" r="1.0"/>
     <text stroke="none" x="329.0" y="23.0" font-size="20.0" font-family="helvetica">Desulfocapsa sulfexigens SB164P1T (Y13672)</text>
    </g>
    <g>
     <circle stroke="black" stroke-width="0.5" fill="#aaffff" cx="343.0" cy="660.0" r="1.0"/>
     <text stroke="none" x="343.0" y="660.0" font-size="10.0" font-family="helvetica">NT1.31</text>
    </g>
    <g>
     <circle stroke="black" stroke-width="0.5" fill="#aaffff" cx="347.0" cy="794.0" r="1.0"/>
     <text stroke="none" x="347.0" y="794.0" font-size="20.0" font-family="helvetica">Escherichia coli ATCC 117757 (X80725)</text>
    </g>
    <g>
     <circle stroke="black" stroke-width="0.5" fill="#aaffff" cx="358.0" cy="704.0" r="1.0"/>
     <text stroke="none" x="358.0" y="704.0" font-size="20.0" font-family="helvetica">Desulfosarcina cetonica DSM 7267T (AJ237603)</text>
    </g>
    <g>
     <circle stroke="black" stroke-width="0.5" fill="#aaffff" cx="370.0" cy="386.0" r="1.0"/>
     <text stroke="none" x="370.0" y="386.0" font-size="20.0" font-family="helvetica">Desulforhopalus vacuolatus Itk 10T (L42613)</text>
    </g>
    <g>
     <circle stroke="black" stroke-width="0.5" fill="#aaffff" cx="383.0" cy="614.0" r="1.0"/>
     <text stroke="none" x="383.0" y="614.0" font-size="20.0" font-family="helvetica">Desulfobacterium anilini DSM 466OT (AJ237601)</text>
    </g>
    <g>
     <circle stroke="black" stroke-width="0.5" fill="#aaffff" cx="428.0" cy="749.0" r="1.0"/>
     <text stroke="none" x="428.0" y="749.0" font-size="20.0" font-family="helvetica">Desulfobacterium vacuolatum DSM 3385T (M34408)</text>
    </g>
    <line stroke="black" x1="5.0" y1="611.0" x2="3.0" y2="611.0" stroke-width="0.5"/>
    <line stroke="black" x1="303.0" y1="566.0" x2="127.0" y2="373.0" stroke-width="0.5"/>
    <line stroke="black" x1="202.0" y1="177.0" x2="127.0" y2="373.0" stroke-width="0.5"/>
    <line stroke="black" x1="202.0" y1="177.0" x2="213.0" y2="304.0" stroke-width="0.5"/>
    <line stroke="black" x1="127.0" y1="373.0" x2="76.0" y2="521.0" stroke-width="0.5"/>
    <line stroke="black" x1="244.0" y1="235.0" x2="270.0" y2="270.0" stroke-width="0.5"/>
    <line stroke="black" x1="76.0" y1="521.0" x2="5.0" y2="611.0" stroke-width="0.5"/>
    <line stroke="black" x1="76.0" y1="521.0" x2="140.0" y2="660.0" stroke-width="0.5"/>
    <line stroke="black" x1="140.0" y1="660.0" x2="169.0" y2="713.0" stroke-width="0.5"/>
    <line stroke="black" x1="347.0" y1="794.0" x2="5.0" y2="611.0" stroke-width="0.5"/>
    <line stroke="black" x1="383.0" y1="614.0" x2="140.0" y2="660.0" stroke-width="0.5"/>
    <line stroke="black" x1="428.0" y1="749.0" x2="169.0" y2="713.0" stroke-width="0.5"/>
    <line stroke="black" x1="358.0" y1="704.0" x2="224.0" y2="686.0" stroke-width="0.5"/>
    <line stroke="black" x1="329.0" y1="23.0" x2="212.0" y2="48.0" stroke-width="0.5"/>
    <line stroke="black" x1="321.0" y1="294.0" x2="270.0" y2="270.0" stroke-width="0.5"/>
    <line stroke="black" x1="370.0" y1="386.0" x2="249.0" y2="367.0" stroke-width="0.5"/>
    <line stroke="black" x1="327.0" y1="250.0" x2="270.0" y2="270.0" stroke-width="0.5"/>
   </g>
  </g>
 </svg>
</svg>
