<?xml version="1.0" encoding="UTF-8"?>
<svg height="800.0" width="700.0" xmlns="http://www.w3.org/2000/svg">
 <svg>
  <g>
   <g>
    <g>
     <circle stroke="black" stroke-width="0.5" fill="#aaffff" cx="29.0" cy="988.0" r="1.0"/>
     <text stroke="none" x="29.0" y="988.0" font-size="10.0" font-family="helvetica">NT1.1</text>
    </g>
    <g>
     <circle stroke="black" stroke-width="0.5" fill="#aaffff" cx="52.0" cy="214.0" r="1.0"/>
     <text stroke="none" x="52.0" y="214.0" font-size="10.0" font-family="helvetica">NT1.2</text>
    </g>
    <g>
     <circle stroke="black" stroke-width="0.5" fill="#aaffff" cx="53.0" cy="50.0" r="1.0"/>
     <text stroke="none" x="53.0" y="50.0" font-size="10.0" font-family="helvetica">NT1.3</text>
    </g>
    <g>
     <circle stroke="black" stroke-width="0.5" fill="#aaffff" cx="54.0" cy="52.0" r="1.0"/>
     <text stroke="none" x="54.0" y="52.0" font-size="10.0" font-family="helvetica">NT1.4</text>
    </g>
    <g>
     <circle stroke="black" stroke-width="0.5" fill="#aaffff" cx="69.0" cy="1017.0" r="1.0"/>
     <text stroke="none" x="69.0" y="1017.0" font-size="20.0" font-family="helvetica">55</text>
    </g>
    <g>
     <circle stroke="black" stroke-width="0.5" fill="#aaffff" cx="78.0" cy="91.0" r="1.0"/>
     <text stroke="none" x="78.0" y="91.0" font-size="10.0" font-family="helvetica">NT1.6</text>
    </g>
    <g>
     <circle stroke="black" stroke-width="0.5" fill="#aaffff" cx="79.0" cy="93.0" r="1.0"/>
     <text stroke="none" x="79.0" y="93.0" font-size="10.0" font-family="helvetica">NT1.7</text>
    </g>
    <g>
     <circle stroke="black" stroke-width="0.5" fill="#aaffff" cx="94.0" cy="574.0" r="1.0"/>
     <text stroke="none" x="94.0" y="574.0" font-size="10.0" font-family="helvetica">NT1.8</text>
    </g>
    <g>
     <circle stroke="black" stroke-width="0.5" fill="#aaffff" cx="153.0" cy="342.0" r="1.0"/>
     <text stroke="none" x="153.0" y="342.0" font-size="10.0" font-family="helvetica">NT1.9</text>
    </g>
    <g>
     <circle stroke="black" stroke-width="0.5" fill="#aaffff" cx="167.0" cy="704.0" r="1.0"/>
     <text stroke="none" x="167.0" y="704.0" font-size="10.0" font-family="helvetica">NT1.10</text>
    </g>
    <g>
     <circle stroke="black" stroke-width="0.5" fill="#aaffff" cx="178.0" cy="625.0" r="1.0"/>
     <text stroke="none" x="178.0" y="625.0" font-size="10.0" font-family="helvetica">NT1.11</text>
    </g>
    <g>
     <circle stroke="black" stroke-width="0.5" fill="#aaffff" cx="188.0" cy="1039.0" r="1.0"/>
     <text stroke="none" x="188.0" y="1039.0" font-size="20.0" font-family="helvetica">s. kasugaensis ATCC 1571477 (AB024442)</text>
    </g>
    <g>
     <circle stroke="black" stroke-width="0.5" fill="#aaffff" cx="203.0" cy="827.0" r="1.0"/>
     <text stroke="none" x="203.0" y="827.0" font-size="10.0" font-family="helvetica">NT1.13</text>
    </g>
    <g>
     <circle stroke="black" stroke-width="0.5" fill="#aaffff" cx="224.0" cy="996.0" r="1.0"/>
     <text stroke="none" x="224.0" y="996.0" font-size="10.0" font-family="helvetica">NT1.14</text>
    </g>
    <g>
     <circle stroke="black" stroke-width="0.5" fill="#aaffff" cx="231.0" cy="12.0" r="1.0"/>
     <text stroke="none" x="231.0" y="12.0" font-size="20.0" font-family="helvetica">S. yatensis DSM 417717 (AF336800)</text>
    </g>
    <g>
     <circle stroke="black" stroke-width="0.5" fill="#aaffff" cx="239.0" cy="956.0" r="1.0"/>
     <text stroke="none" x="239.0" y="956.0" font-size="20.0" font-family="helvetica">S. griseocarneus DSM 400047 (X99943)</text>
    </g>
    <g>
     <circle stroke="black" stroke-width="0.5" fill="#aaffff" cx="246.0" cy="225.0" r="1.0"/>
     <text stroke="none" x="246.0" y="225.0" font-size="10.0" font-family="helvetica">NT1.17</text>
    </g>
    <g>
     <circle stroke="black" stroke-width="0.5" fill="#aaffff" cx="252.0" cy="457.0" r="1.0"/>
     <text stroke="none" x="252.0" y="457.0" font-size="10.0" font-family="helvetica">NT1.18</text>
    </g>
    <g>
     <circle stroke="black" stroke-width="0.5" fill="#aaffff" cx="263.0" cy="730.0" r="1.0"/>
     <text stroke="none" x="263.0" y="730.0" font-size="10.0" font-family="helvetica">NT1.19</text>
    </g>
    <g>
     <circle stroke="black" stroke-width="0.5" fill="#aaffff" cx="273.0" cy="164.0" r="1.0"/>
     <text stroke="none" x="273.0" y="164.0" font-size="10.0" font-family="helvetica">NT1.20</text>
    </g>
    <g>
     <circle stroke="black" stroke-width="0.5" fill="#aaffff" cx="276.0" cy="52.0" r="1.0"/>
     <text stroke="none" x="276.0" y="52.0" font-size="20.0" font-family="helvetica">S. mashuensis DSM 402217 (X79323)</text>
    </g>
    <g>
     <circle stroke="black" stroke-width="0.5" fill="#aaffff" cx="289.0" cy="412.0" r="1.0"/>
     <text stroke="none" x="289.0" y="412.0" font-size="10.0" font-family="helvetica">NT1.22</text>
    </g>
    <g>
     <circle stroke="black" stroke-width="0.5" fill="#aaffff" cx="296.0" cy="623.0" r="1.0"/>
     <text stroke="none" x="296.0" y="623.0" font-size="20.0" font-family="helvetica">B6</text>
    </g>
    <g>
     <circle stroke="black" stroke-width="0.5" fill="#aaffff" cx="297.0" cy="855.0" r="1.0"/>
     <text stroke="none" x="297.0" y="855.0" font-size="10.0" font-family="helvetica">NT1.24</text>
    </g>
    <g>
     <circle stroke="black" stroke-width="0.5" fill="#aaffff" cx="308.0" cy="287.0" r="1.0"/>
     <text stroke="none" x="308.0" y="287.0" font-size="10.0" font-family="helvetica">NT1.25</text>
    </g>
    <g>
     <circle stroke="black" stroke-width="0.5" fill="#aaffff" cx="319.0" cy="442.0" r="1.0"/>
     <text stroke="none" x="319.0" y="442.0" font-size="10.0" font-family="helvetica">NT1.26</text>
    </g>
    <g>
     <circle stroke="black" stroke-width="0.5" fill="#aaffff" cx="328.0" cy="194.0" r="1.0"/>
     <text stroke="none" x="328.0" y="194.0" font-size="10.0" font-family="helvetica">NT1.27</text>
    </g>
    <g>
     <circle stroke="black" stroke-width="0.5" fill="#aaffff" cx="329.0" cy="896.0" r="1.0"/>
     <text stroke="none" x="329.0" y="896.0" font-size="20.0" font-family="helvetica">69</text>
    </g>
    <g>
     <circle stroke="black" stroke-width="0.5" fill="#aaffff" cx="363.0" cy="93.0" r="1.0"/>
     <text stroke="none" x="363.0" y="93.0" font-size="20.0" font-family="helvetica">S. sparsogenes NRRL 29407 (AJ391817)</text>
    </g>
    <g>
     <circle stroke="black" stroke-width="0.5" fill="#aaffff" cx="375.0" cy="648.0" r="1.0"/>
     <text stroke="none" x="375.0" y="648.0" font-size="10.0" font-family="helvetica">NT1.30</text>
    </g>
    <g>
     <circle stroke="black" stroke-width="0.5" fill="#aaffff" cx="397.0" cy="175.0" r="1.0"/>
     <text stroke="none" x="397.0" y="175.0" font-size="20.0" font-family="helvetica">S. coeruleorubidus DSM 401457 (AJ306622)</text>
    </g>
    <g>
     <circle stroke="black" stroke-width="0.5" fill="#aaffff" cx="404.0" cy="317.0" r="1.0"/>
     <text stroke="none" x="404.0" y="317.0" font-size="10.0" font-family="helvetica">NT1.32</text>
    </g>
    <g>
     <circle stroke="black" stroke-width="0.5" fill="#aaffff" cx="422.0" cy="545.0" r="1.0"/>
     <text stroke="none" x="422.0" y="545.0" font-size="20.0" font-family="helvetica">S. acidiscabies DSM 416687 (AB026220)</text>
    </g>
    <g>
     <circle stroke="black" stroke-width="0.5" fill="#aaffff" cx="424.0" cy="216.0" r="1.0"/>
     <text stroke="none" x="424.0" y="216.0" font-size="20.0" font-family="helvetica">S. albogriseolus ATCC 238757 (D29744)</text>
    </g>
    <g>
     <circle stroke="black" stroke-width="0.5" fill="#aaffff" cx="448.0" cy="750.0" r="1.0"/>
     <text stroke="none" x="448.0" y="750.0" font-size="10.0" font-family="helvetica">NT1.35</text>
    </g>
    <g>
     <circle stroke="black" stroke-width="0.5" fill="#aaffff" cx="463.0" cy="586.0" r="1.0"/>
     <text stroke="none" x="463.0" y="586.0" font-size="20.0" font-family="helvetica">S. somaliensis DSM 407387 (AJ007403)</text>
    </g>
    <g>
     <circle stroke="black" stroke-width="0.5" fill="#aaffff" cx="465.0" cy="791.0" r="1.0"/>
     <text stroke="none" x="465.0" y="791.0" font-size="10.0" font-family="helvetica">NT1.37</text>
    </g>
    <g>
     <circle stroke="black" stroke-width="0.5" fill="#aaffff" cx="480.0" cy="709.0" r="1.0"/>
     <text stroke="none" x="480.0" y="709.0" font-size="20.0" font-family="helvetica">S. longisporus DSM 401667 (AJ399475)</text>
    </g>
    <g>
     <circle stroke="black" stroke-width="0.5" fill="#aaffff" cx="483.0" cy="134.0" r="1.0"/>
     <text stroke="none" x="483.0" y="134.0" font-size="10.0" font-family="helvetica">NT1.39</text>
    </g>
    <g>
     <circle stroke="black" stroke-width="0.5" fill="#aaffff" cx="484.0" cy="299.0" r="1.0"/>
     <text stroke="none" x="484.0" y="299.0" font-size="10.0" font-family="helvetica">NT1.40</text>
    </g>
    <g>
     <circle stroke="black" stroke-width="0.5" fill="#aaffff" cx="487.0" cy="258.0" r="1.0"/>
     <text stroke="none" x="487.0" y="258.0" font-size="20.0" font-family="helvetica">S. roseoflavus ATCC 19920 (AF290616)</text>
    </g>
    <g>
     <circle stroke="black" stroke-width="0.5" fill="#aaffff" cx="496.0" cy="915.0" r="1.0"/>
     <text stroke="none" x="496.0" y="915.0" font-size="20.0" font-family="helvetica">S. peucetius ATCC 290507 (AB122778)</text>
    </g>
    <g>
     <circle stroke="black" stroke-width="0.5" fill="#aaffff" cx="503.0" cy="873.0" r="1.0"/>
     <text stroke="none" x="503.0" y="873.0" font-size="20.0" font-family="helvetica">S. sanglieri DSM 417917 (AY094364)</text>
    </g>
    <g>
     <circle stroke="black" stroke-width="0.5" fill="#aaffff" cx="503.0" cy="668.0" r="1.0"/>
     <text stroke="none" x="503.0" y="668.0" font-size="20.0" font-family="helvetica">S. diastatochromogenes ATCC 123097 (D63867)</text>
    </g>
    <g>
     <circle stroke="black" stroke-width="0.5" fill="#aaffff" cx="511.0" cy="627.0" r="1.0"/>
     <text stroke="none" x="511.0" y="627.0" font-size="10.0" font-family="helvetica">NT1.45</text>
    </g>
    <g>
     <circle stroke="black" stroke-width="0.5" fill="#aaffff" cx="513.0" cy="832.0" r="1.0"/>
     <text stroke="none" x="513.0" y="832.0" font-size="10.0" font-family="helvetica">NT1.46</text>
    </g>
    <g>
     <circle stroke="black" stroke-width="0.5" fill="#aaffff" cx="532.0" cy="341.0" r="1.0"/>
     <text stroke="none" x="532.0" y="341.0" font-size="20.0" font-family="helvetica">S. coelicolor DSM 40783 (Y00411)</text>
    </g>
    <g>
     <circle stroke="black" stroke-width="0.5" fill="#aaffff" cx="540.0" cy="381.0" r="1.0"/>
     <text stroke="none" x="540.0" y="381.0" font-size="10.0" font-family="helvetica">NT1.48</text>
    </g>
    <g>
     <circle stroke="black" stroke-width="0.5" fill="#aaffff" cx="603.0" cy="422.0" r="1.0"/>
     <text stroke="none" x="603.0" y="422.0" font-size="20.0" font-family="helvetica">S. thermolineatus DSM 414517 (268097)</text>
    </g>
    <g>
     <circle stroke="black" stroke-width="0.5" fill="#aaffff" cx="702.0" cy="504.0" r="1.0"/>
     <text stroke="none" x="702.0" y="504.0" font-size="10.0" font-family="helvetica">NT1.50</text>
    </g>
    <g>
     <circle stroke="black" stroke-width="0.5" fill="#aaffff" cx="723.0" cy="462.0" r="1.0"/>
     <text stroke="none" x="723.0" y="462.0" font-size="10.0" font-family="helvetica">NT1.51</text>
    </g>
    <g>
     <circle stroke="black" stroke-width="0.5" fill="#aaffff" cx="8.0" cy="264.0" r="1.0"/>
     <text stroke="none" x="8.0" y="264.0" font-size="10.0" font-family="helvetica">NT1.52</text>
    </g>
    <line stroke="black" x1="231.0" y1="12.0" x2="52.0" y2="214.0" stroke-width="0.5"/>
    <line stroke="black" x1="276.0" y1="52.0" x2="54.0" y2="52.0" stroke-width="0.5"/>
    <line stroke="black" x1="363.0" y1="93.0" x2="79.0" y2="93.0" stroke-width="0.5"/>
    <line stroke="black" x1="397.0" y1="175.0" x2="328.0" y2="194.0" stroke-width="0.5"/>
    <line stroke="black" x1="463.0" y1="586.0" x2="296.0" y2="623.0" stroke-width="0.5"/>
    <line stroke="black" x1="52.0" y1="214.0" x2="94.0" y2="574.0" stroke-width="0.5"/>
    <line stroke="black" x1="94.0" y1="574.0" x2="153.0" y2="342.0" stroke-width="0.5"/>
    <line stroke="black" x1="94.0" y1="574.0" x2="167.0" y2="704.0" stroke-width="0.5"/>
    <line stroke="black" x1="167.0" y1="704.0" x2="178.0" y2="625.0" stroke-width="0.5"/>
    <line stroke="black" x1="153.0" y1="342.0" x2="246.0" y2="225.0" stroke-width="0.5"/>
    <line stroke="black" x1="178.0" y1="625.0" x2="296.0" y2="623.0" stroke-width="0.5"/>
    <line stroke="black" x1="246.0" y1="225.0" x2="308.0" y2="287.0" stroke-width="0.5"/>
    <line stroke="black" x1="273.0" y1="164.0" x2="328.0" y2="194.0" stroke-width="0.5"/>
    <line stroke="black" x1="297.0" y1="855.0" x2="329.0" y2="896.0" stroke-width="0.5"/>
    <line stroke="black" x1="263.0" y1="730.0" x2="480.0" y2="709.0" stroke-width="0.5"/>
    <line stroke="black" x1="8.0" y1="264.0" x2="52.0" y2="214.0" stroke-width="0.5"/>
    <line stroke="black" x1="29.0" y1="988.0" x2="8.0" y2="264.0" stroke-width="0.5"/>
    <line stroke="black" x1="239.0" y1="956.0" x2="29.0" y2="988.0" stroke-width="0.5"/>
    <line stroke="black" x1="188.0" y1="1039.0" x2="69.0" y2="1017.0" stroke-width="0.5"/>
    <line stroke="black" x1="422.0" y1="545.0" x2="178.0" y2="625.0" stroke-width="0.5"/>
    <line stroke="black" x1="487.0" y1="258.0" x2="308.0" y2="287.0" stroke-width="0.5"/>
    <line stroke="black" x1="496.0" y1="915.0" x2="329.0" y2="896.0" stroke-width="0.5"/>
    <line stroke="black" x1="424.0" y1="216.0" x2="328.0" y2="194.0" stroke-width="0.5"/>
    <line stroke="black" x1="603.0" y1="422.0" x2="319.0" y2="442.0" stroke-width="0.5"/>
    <line stroke="black" x1="503.0" y1="668.0" x2="375.0" y2="648.0" stroke-width="0.5"/>
    <line stroke="black" x1="503.0" y1="873.0" x2="329.0" y2="896.0" stroke-width="0.5"/>
    <line stroke="black" x1="532.0" y1="341.0" x2="404.0" y2="317.0" stroke-width="0.5"/>
   </g>
  </g>
 </svg>
</svg>
