<?xml version="1.0" encoding="UTF-8"?>
<svg height="800.0" width="700.0" xmlns="http://www.w3.org/2000/svg">
 <svg>
  <g>
   <g>
    <g>
     <circle stroke="black" stroke-width="0.5" fill="#aaffff" cx="31.0" cy="1417.0" r="1.0"/>
     <text stroke="none" x="31.0" y="1417.0" font-size="20.0" font-family="helvetica">93</text>
    </g>
    <g>
     <circle stroke="black" stroke-width="0.5" fill="#aaffff" cx="72.0" cy="1055.0" r="1.0"/>
     <text stroke="none" x="72.0" y="1055.0" font-size="20.0" font-family="helvetica">82</text>
    </g>
    <g>
     <circle stroke="black" stroke-width="0.5" fill="#aaffff" cx="104.0" cy="1377.0" r="1.0"/>
     <text stroke="none" x="104.0" y="1377.0" font-size="10.0" font-family="helvetica">NT1.3</text>
    </g>
    <g>
     <circle stroke="black" stroke-width="0.5" fill="#aaffff" cx="157.0" cy="1342.0" r="1.0"/>
     <text stroke="none" x="157.0" y="1342.0" font-size="20.0" font-family="helvetica">90</text>
    </g>
    <g>
     <circle stroke="black" stroke-width="0.5" fill="#aaffff" cx="159.0" cy="1411.0" r="1.0"/>
     <text stroke="none" x="159.0" y="1411.0" font-size="20.0" font-family="helvetica">87</text>
    </g>
    <g>
     <circle stroke="black" stroke-width="0.5" fill="#aaffff" cx="165.0" cy="890.0" r="1.0"/>
     <text stroke="none" x="165.0" y="890.0" font-size="20.0" font-family="helvetica">99</text>
    </g>
    <g>
     <circle stroke="black" stroke-width="0.5" fill="#aaffff" cx="190.0" cy="714.0" r="1.0"/>
     <text stroke="none" x="190.0" y="714.0" font-size="20.0" font-family="helvetica">59</text>
    </g>
    <g>
     <circle stroke="black" stroke-width="0.5" fill="#aaffff" cx="239.0" cy="1065.0" r="1.0"/>
     <text stroke="none" x="239.0" y="1065.0" font-size="20.0" font-family="helvetica">95</text>
    </g>
    <g>
     <circle stroke="black" stroke-width="0.5" fill="#aaffff" cx="240.0" cy="923.0" r="1.0"/>
     <text stroke="none" x="240.0" y="923.0" font-size="20.0" font-family="helvetica">87</text>
    </g>
    <g>
     <circle stroke="black" stroke-width="0.5" fill="#aaffff" cx="245.0" cy="1318.0" r="1.0"/>
     <text stroke="none" x="245.0" y="1318.0" font-size="20.0" font-family="helvetica">100</text>
    </g>
    <g>
     <circle stroke="black" stroke-width="0.5" fill="#aaffff" cx="261.0" cy="502.0" r="1.0"/>
     <text stroke="none" x="261.0" y="502.0" font-size="20.0" font-family="helvetica">100</text>
    </g>
    <g>
     <circle stroke="black" stroke-width="0.5" fill="#aaffff" cx="292.0" cy="1459.0" r="1.0"/>
     <text stroke="none" x="292.0" y="1459.0" font-size="20.0" font-family="helvetica">LMG 241627 Erwinia toletana</text>
    </g>
    <g>
     <circle stroke="black" stroke-width="0.5" fill="#aaffff" cx="300.0" cy="878.0" r="1.0"/>
     <text stroke="none" x="300.0" y="878.0" font-size="20.0" font-family="helvetica">97</text>
    </g>
    <g>
     <circle stroke="black" stroke-width="0.5" fill="#aaffff" cx="325.0" cy="1427.0" r="1.0"/>
     <text stroke="none" x="325.0" y="1427.0" font-size="20.0" font-family="helvetica">LMG 26137 Erwinia billingiae</text>
    </g>
    <g>
     <circle stroke="black" stroke-width="0.5" fill="#aaffff" cx="338.0" cy="308.0" r="1.0"/>
     <text stroke="none" x="338.0" y="308.0" font-size="20.0" font-family="helvetica">100</text>
    </g>
    <g>
     <circle stroke="black" stroke-width="0.5" fill="#aaffff" cx="343.0" cy="1365.0" r="1.0"/>
     <text stroke="none" x="343.0" y="1365.0" font-size="20.0" font-family="helvetica">LMG 26887 Erwinia rhapontici</text>
    </g>
    <g>
     <circle stroke="black" stroke-width="0.5" fill="#aaffff" cx="367.0" cy="1301.0" r="1.0"/>
     <text stroke="none" x="367.0" y="1301.0" font-size="20.0" font-family="helvetica">Ea273 Erwinia amylovora</text>
    </g>
    <g>
     <circle stroke="black" stroke-width="0.5" fill="#aaffff" cx="384.0" cy="1333.0" r="1.0"/>
     <text stroke="none" x="384.0" y="1333.0" font-size="20.0" font-family="helvetica">Et1l997 Erwinia tasmaniensis</text>
    </g>
    <g>
     <circle stroke="black" stroke-width="0.5" fill="#aaffff" cx="390.0" cy="221.0" r="1.0"/>
     <text stroke="none" x="390.0" y="221.0" font-size="20.0" font-family="helvetica">99</text>
    </g>
    <g>
     <circle stroke="black" stroke-width="0.5" fill="#aaffff" cx="395.0" cy="694.0" r="1.0"/>
     <text stroke="none" x="395.0" y="694.0" font-size="20.0" font-family="helvetica">100</text>
    </g>
    <g>
     <circle stroke="black" stroke-width="0.5" fill="#aaffff" cx="408.0" cy="1096.0" r="1.0"/>
     <text stroke="none" x="408.0" y="1096.0" font-size="20.0" font-family="helvetica">100</text>
    </g>
    <g>
     <circle stroke="black" stroke-width="0.5" fill="#aaffff" cx="414.0" cy="1035.0" r="1.0"/>
     <text stroke="none" x="414.0" y="1035.0" font-size="20.0" font-family="helvetica">100</text>
    </g>
    <g>
     <circle stroke="black" stroke-width="0.5" fill="#aaffff" cx="416.0" cy="1490.0" r="1.0"/>
     <text stroke="none" x="416.0" y="1490.0" font-size="20.0" font-family="helvetica">Sd197 Shigella dysenteriae</text>
    </g>
    <g>
     <circle stroke="black" stroke-width="0.5" fill="#aaffff" cx="435.0" cy="615.0" r="1.0"/>
     <text stroke="none" x="435.0" y="615.0" font-size="20.0" font-family="helvetica">75</text>
    </g>
    <g>
     <circle stroke="black" stroke-width="0.5" fill="#aaffff" cx="435.0" cy="908.0" r="1.0"/>
     <text stroke="none" x="435.0" y="908.0" font-size="20.0" font-family="helvetica">100</text>
    </g>
    <g>
     <circle stroke="black" stroke-width="0.5" fill="#aaffff" cx="437.0" cy="663.0" r="1.0"/>
     <text stroke="none" x="437.0" y="663.0" font-size="20.0" font-family="helvetica">5</text>
    </g>
    <g>
     <circle stroke="black" stroke-width="0.5" fill="#aaffff" cx="438.0" cy="674.0" r="1.0"/>
     <text stroke="none" x="438.0" y="674.0" font-size="20.0" font-family="helvetica">5</text>
    </g>
    <g>
     <circle stroke="black" stroke-width="0.5" fill="#aaffff" cx="441.0" cy="1081.0" r="1.0"/>
     <text stroke="none" x="441.0" y="1081.0" font-size="20.0" font-family="helvetica">LMG 53457 Pantoea septica</text>
    </g>
    <g>
     <circle stroke="black" stroke-width="0.5" fill="#aaffff" cx="441.0" cy="971.0" r="1.0"/>
     <text stroke="none" x="441.0" y="971.0" font-size="20.0" font-family="helvetica">100</text>
    </g>
    <g>
     <circle stroke="black" stroke-width="0.5" fill="#aaffff" cx="442.0" cy="955.0" r="1.0"/>
     <text stroke="none" x="442.0" y="955.0" font-size="20.0" font-family="helvetica">LMG 26577 Pantoea cypripedii</text>
    </g>
    <g>
     <circle stroke="black" stroke-width="0.5" fill="#aaffff" cx="443.0" cy="988.0" r="1.0"/>
     <text stroke="none" x="443.0" y="988.0" font-size="20.0" font-family="helvetica">LMG 2654 Pantoea cypripedii</text>
    </g>
    <g>
     <circle stroke="black" stroke-width="0.5" fill="#aaffff" cx="445.0" cy="675.0" r="1.0"/>
     <text stroke="none" x="445.0" y="675.0" font-size="20.0" font-family="helvetica"/>
    </g>
    <g>
     <circle stroke="black" stroke-width="0.5" fill="#aaffff" cx="447.0" cy="1113.0" r="1.0"/>
     <text stroke="none" x="447.0" y="1113.0" font-size="20.0" font-family="helvetica">LMG 24526 Pantoea septica</text>
    </g>
    <g>
     <circle stroke="black" stroke-width="0.5" fill="#aaffff" cx="447.0" cy="774.0" r="1.0"/>
     <text stroke="none" x="447.0" y="774.0" font-size="20.0" font-family="helvetica">99</text>
    </g>
    <g>
     <circle stroke="black" stroke-width="0.5" fill="#aaffff" cx="449.0" cy="925.0" r="1.0"/>
     <text stroke="none" x="449.0" y="925.0" font-size="20.0" font-family="helvetica">LMG 26037 Pantoea dispersa</text>
    </g>
    <g>
     <circle stroke="black" stroke-width="0.5" fill="#aaffff" cx="451.0" cy="893.0" r="1.0"/>
     <text stroke="none" x="451.0" y="893.0" font-size="20.0" font-family="helvetica">LMG 2604 Pantoea dispersa</text>
    </g>
    <g>
     <circle stroke="black" stroke-width="0.5" fill="#aaffff" cx="456.0" cy="279.0" r="1.0"/>
     <text stroke="none" x="456.0" y="279.0" font-size="20.0" font-family="helvetica">100</text>
    </g>
    <g>
     <circle stroke="black" stroke-width="0.5" fill="#aaffff" cx="456.0" cy="680.0" r="1.0"/>
     <text stroke="none" x="456.0" y="680.0" font-size="20.0" font-family="helvetica">5</text>
    </g>
    <g>
     <circle stroke="black" stroke-width="0.5" fill="#aaffff" cx="460.0" cy="265.0" r="1.0"/>
     <text stroke="none" x="460.0" y="265.0" font-size="20.0" font-family="helvetica">LMG 26657 Pantoea ananatis</text>
    </g>
    <g>
     <circle stroke="black" stroke-width="0.5" fill="#aaffff" cx="460.0" cy="549.0" r="1.0"/>
     <text stroke="none" x="460.0" y="549.0" font-size="20.0" font-family="helvetica">57</text>
    </g>
    <g>
     <circle stroke="black" stroke-width="0.5" fill="#aaffff" cx="461.0" cy="296.0" r="1.0"/>
     <text stroke="none" x="461.0" y="296.0" font-size="20.0" font-family="helvetica">LMG 20103 Pantoea ananatis</text>
    </g>
    <g>
     <circle stroke="black" stroke-width="0.5" fill="#aaffff" cx="467.0" cy="161.0" r="1.0"/>
     <text stroke="none" x="467.0" y="161.0" font-size="20.0" font-family="helvetica">100</text>
    </g>
    <g>
     <circle stroke="black" stroke-width="0.5" fill="#aaffff" cx="471.0" cy="138.0" r="1.0"/>
     <text stroke="none" x="471.0" y="138.0" font-size="20.0" font-family="helvetica">100</text>
    </g>
    <g>
     <circle stroke="black" stroke-width="0.5" fill="#aaffff" cx="472.0" cy="234.0" r="1.0"/>
     <text stroke="none" x="472.0" y="234.0" font-size="20.0" font-family="helvetica">BD 381 Pantoea allii</text>
    </g>
    <g>
     <circle stroke="black" stroke-width="0.5" fill="#aaffff" cx="472.0" cy="108.0" r="1.0"/>
     <text stroke="none" x="472.0" y="108.0" font-size="10.0" font-family="helvetica">NT1.45</text>
    </g>
    <g>
     <circle stroke="black" stroke-width="0.5" fill="#aaffff" cx="475.0" cy="54.0" r="1.0"/>
     <text stroke="none" x="475.0" y="54.0" font-size="10.0" font-family="helvetica">NT1.46</text>
    </g>
    <g>
     <circle stroke="black" stroke-width="0.5" fill="#aaffff" cx="476.0" cy="78.0" r="1.0"/>
     <text stroke="none" x="476.0" y="78.0" font-size="20.0" font-family="helvetica">BD 391 Pantoea allii</text>
    </g>
    <g>
     <circle stroke="black" stroke-width="0.5" fill="#aaffff" cx="477.0" cy="139.0" r="1.0"/>
     <text stroke="none" x="477.0" y="139.0" font-size="20.0" font-family="helvetica">BD 383 Pantoea allii</text>
    </g>
    <g>
     <circle stroke="black" stroke-width="0.5" fill="#aaffff" cx="478.0" cy="108.0" r="1.0"/>
     <text stroke="none" x="478.0" y="108.0" font-size="20.0" font-family="helvetica">BD 309 Pantoea allii</text>
    </g>
    <g>
     <circle stroke="black" stroke-width="0.5" fill="#aaffff" cx="478.0" cy="44.0" r="1.0"/>
     <text stroke="none" x="478.0" y="44.0" font-size="10.0" font-family="helvetica">NT1.50</text>
    </g>
    <g>
     <circle stroke="black" stroke-width="0.5" fill="#aaffff" cx="481.0" cy="14.0" r="1.0"/>
     <text stroke="none" x="481.0" y="14.0" font-size="20.0" font-family="helvetica">BD 377 Pantoea allii</text>
    </g>
    <g>
     <circle stroke="black" stroke-width="0.5" fill="#aaffff" cx="481.0" cy="1218.0" r="1.0"/>
     <text stroke="none" x="481.0" y="1218.0" font-size="20.0" font-family="helvetica">100</text>
    </g>
    <g>
     <circle stroke="black" stroke-width="0.5" fill="#aaffff" cx="484.0" cy="45.0" r="1.0"/>
     <text stroke="none" x="484.0" y="45.0" font-size="20.0" font-family="helvetica">BD 3907 Pantoea allii</text>
    </g>
    <g>
     <circle stroke="black" stroke-width="0.5" fill="#aaffff" cx="484.0" cy="1396.0" r="1.0"/>
     <text stroke="none" x="484.0" y="1396.0" font-size="20.0" font-family="helvetica">LMG 7034 Erwinia psidii</text>
    </g>
    <g>
     <circle stroke="black" stroke-width="0.5" fill="#aaffff" cx="486.0" cy="423.0" r="1.0"/>
     <text stroke="none" x="486.0" y="423.0" font-size="20.0" font-family="helvetica">LMG 26327 Pantoea stewartii subsp. indologenes</text>
    </g>
    <g>
     <circle stroke="black" stroke-width="0.5" fill="#aaffff" cx="486.0" cy="393.0" r="1.0"/>
     <text stroke="none" x="486.0" y="393.0" font-size="20.0" font-family="helvetica">100</text>
    </g>
    <g>
     <circle stroke="black" stroke-width="0.5" fill="#aaffff" cx="492.0" cy="368.0" r="1.0"/>
     <text stroke="none" x="492.0" y="368.0" font-size="20.0" font-family="helvetica">100</text>
    </g>
    <g>
     <circle stroke="black" stroke-width="0.5" fill="#aaffff" cx="494.0" cy="847.0" r="1.0"/>
     <text stroke="none" x="494.0" y="847.0" font-size="20.0" font-family="helvetica">100</text>
    </g>
    <g>
     <circle stroke="black" stroke-width="0.5" fill="#aaffff" cx="495.0" cy="1019.0" r="1.0"/>
     <text stroke="none" x="495.0" y="1019.0" font-size="20.0" font-family="helvetica">LMG 253827 Pantoea gaviniae</text>
    </g>
    <g>
     <circle stroke="black" stroke-width="0.5" fill="#aaffff" cx="500.0" cy="391.0" r="1.0"/>
     <text stroke="none" x="500.0" y="391.0" font-size="20.0" font-family="helvetica">LMG 2673 Pantoea stewartii subsp. indolagenes</text>
    </g>
    <g>
     <circle stroke="black" stroke-width="0.5" fill="#aaffff" cx="500.0" cy="502.0" r="1.0"/>
     <text stroke="none" x="500.0" y="502.0" font-size="10.0" font-family="helvetica">NT1.61</text>
    </g>
    <g>
     <circle stroke="black" stroke-width="0.5" fill="#aaffff" cx="502.0" cy="344.0" r="1.0"/>
     <text stroke="none" x="502.0" y="344.0" font-size="10.0" font-family="helvetica">NT1.62</text>
    </g>
    <g>
     <circle stroke="black" stroke-width="0.5" fill="#aaffff" cx="505.0" cy="862.0" r="1.0"/>
     <text stroke="none" x="505.0" y="862.0" font-size="20.0" font-family="helvetica">LMG 24529 Pantoea eucrina</text>
    </g>
    <g>
     <circle stroke="black" stroke-width="0.5" fill="#aaffff" cx="505.0" cy="753.0" r="1.0"/>
     <text stroke="none" x="505.0" y="753.0" font-size="20.0" font-family="helvetica">100</text>
    </g>
    <g>
     <circle stroke="black" stroke-width="0.5" fill="#aaffff" cx="506.0" cy="799.0" r="1.0"/>
     <text stroke="none" x="506.0" y="799.0" font-size="20.0" font-family="helvetica">LMG 245347 Pantoea conspicua</text>
    </g>
    <g>
     <circle stroke="black" stroke-width="0.5" fill="#aaffff" cx="506.0" cy="768.0" r="1.0"/>
     <text stroke="none" x="506.0" y="768.0" font-size="20.0" font-family="helvetica">LMG 24532 Pantoea brenneri</text>
    </g>
    <g>
     <circle stroke="black" stroke-width="0.5" fill="#aaffff" cx="507.0" cy="359.0" r="1.0"/>
     <text stroke="none" x="507.0" y="359.0" font-size="20.0" font-family="helvetica">LMG 27157 Pantoea stewartii subsp. stewartii</text>
    </g>
    <g>
     <circle stroke="black" stroke-width="0.5" fill="#aaffff" cx="508.0" cy="327.0" r="1.0"/>
     <text stroke="none" x="508.0" y="327.0" font-size="20.0" font-family="helvetica">LMG 2718 Pantoea stewartiisubsp. stewartii</text>
    </g>
    <g>
     <circle stroke="black" stroke-width="0.5" fill="#aaffff" cx="510.0" cy="594.0" r="1.0"/>
     <text stroke="none" x="510.0" y="594.0" font-size="20.0" font-family="helvetica">100</text>
    </g>
    <g>
     <circle stroke="black" stroke-width="0.5" fill="#aaffff" cx="511.0" cy="736.0" r="1.0"/>
     <text stroke="none" x="511.0" y="736.0" font-size="20.0" font-family="helvetica">LMG 53437 Pantoea brenneri</text>
    </g>
    <g>
     <circle stroke="black" stroke-width="0.5" fill="#aaffff" cx="512.0" cy="830.0" r="1.0"/>
     <text stroke="none" x="512.0" y="830.0" font-size="20.0" font-family="helvetica">LMG 27817 Pantoea eucrina</text>
    </g>
    <g>
     <circle stroke="black" stroke-width="0.5" fill="#aaffff" cx="524.0" cy="579.0" r="1.0"/>
     <text stroke="none" x="524.0" y="579.0" font-size="20.0" font-family="helvetica">LMG 241997 Pantoea vagans</text>
    </g>
    <g>
     <circle stroke="black" stroke-width="0.5" fill="#aaffff" cx="528.0" cy="1050.0" r="1.0"/>
     <text stroke="none" x="528.0" y="1050.0" font-size="20.0" font-family="helvetica">LMG 253837 Pantoea Calida</text>
    </g>
    <g>
     <circle stroke="black" stroke-width="0.5" fill="#aaffff" cx="533.0" cy="610.0" r="1.0"/>
     <text stroke="none" x="533.0" y="610.0" font-size="20.0" font-family="helvetica">LMG 24196 Pantoea vagans</text>
    </g>
    <g>
     <circle stroke="black" stroke-width="0.5" fill="#aaffff" cx="545.0" cy="470.0" r="1.0"/>
     <text stroke="none" x="545.0" y="470.0" font-size="20.0" font-family="helvetica">100</text>
    </g>
    <g>
     <circle stroke="black" stroke-width="0.5" fill="#aaffff" cx="551.0" cy="453.0" r="1.0"/>
     <text stroke="none" x="551.0" y="453.0" font-size="20.0" font-family="helvetica">LMG 2660 Pantoea agglomerans</text>
    </g>
    <g>
     <circle stroke="black" stroke-width="0.5" fill="#aaffff" cx="554.0" cy="641.0" r="1.0"/>
     <text stroke="none" x="554.0" y="641.0" font-size="20.0" font-family="helvetica">LMG 2560 Pantoea anthophila</text>
    </g>
    <g>
     <circle stroke="black" stroke-width="0.5" fill="#aaffff" cx="554.0" cy="658.0" r="1.0"/>
     <text stroke="none" x="554.0" y="658.0" font-size="20.0" font-family="helvetica">100</text>
    </g>
    <g>
     <circle stroke="black" stroke-width="0.5" fill="#aaffff" cx="555.0" cy="485.0" r="1.0"/>
     <text stroke="none" x="555.0" y="485.0" font-size="20.0" font-family="helvetica">LMG 12867 Pantoea agglomerans</text>
    </g>
    <g>
     <circle stroke="black" stroke-width="0.5" fill="#aaffff" cx="556.0" cy="1184.0" r="1.0"/>
     <text stroke="none" x="556.0" y="1184.0" font-size="20.0" font-family="helvetica">98</text>
    </g>
    <g>
     <circle stroke="black" stroke-width="0.5" fill="#aaffff" cx="558.0" cy="531.0" r="1.0"/>
     <text stroke="none" x="558.0" y="531.0" font-size="20.0" font-family="helvetica">100</text>
    </g>
    <g>
     <circle stroke="black" stroke-width="0.5" fill="#aaffff" cx="559.0" cy="515.0" r="1.0"/>
     <text stroke="none" x="559.0" y="515.0" font-size="20.0" font-family="helvetica">LMG 24198 Pantoea eucalypti</text>
    </g>
    <g>
     <circle stroke="black" stroke-width="0.5" fill="#aaffff" cx="560.0" cy="548.0" r="1.0"/>
     <text stroke="none" x="560.0" y="548.0" font-size="20.0" font-family="helvetica">LMG 241977 Pantoea eucalypti</text>
    </g>
    <g>
     <circle stroke="black" stroke-width="0.5" fill="#aaffff" cx="562.0" cy="673.0" r="1.0"/>
     <text stroke="none" x="562.0" y="673.0" font-size="20.0" font-family="helvetica">LMG 25587 Pantoea anthophila</text>
    </g>
    <g>
     <circle stroke="black" stroke-width="0.5" fill="#aaffff" cx="577.0" cy="705.0" r="1.0"/>
     <text stroke="none" x="577.0" y="705.0" font-size="20.0" font-family="helvetica">LMG 242007 Pantoea deleyi</text>
    </g>
    <g>
     <circle stroke="black" stroke-width="0.5" fill="#aaffff" cx="662.0" cy="1253.0" r="1.0"/>
     <text stroke="none" x="662.0" y="1253.0" font-size="20.0" font-family="helvetica">100</text>
    </g>
    <g>
     <circle stroke="black" stroke-width="0.5" fill="#aaffff" cx="706.0" cy="1161.0" r="1.0"/>
     <text stroke="none" x="706.0" y="1161.0" font-size="10.0" font-family="helvetica">NT1.87</text>
    </g>
    <g>
     <circle stroke="black" stroke-width="0.5" fill="#aaffff" cx="712.0" cy="1270.0" r="1.0"/>
     <text stroke="none" x="712.0" y="1270.0" font-size="20.0" font-family="helvetica">LMG 78887 Tatumella ptyseos</text>
    </g>
    <g>
     <circle stroke="black" stroke-width="0.5" fill="#aaffff" cx="723.0" cy="1239.0" r="1.0"/>
     <text stroke="none" x="723.0" y="1239.0" font-size="20.0" font-family="helvetica">LMG 220517 Tatumella terrea</text>
    </g>
    <g>
     <circle stroke="black" stroke-width="0.5" fill="#aaffff" cx="756.0" cy="1207.0" r="1.0"/>
     <text stroke="none" x="756.0" y="1207.0" font-size="20.0" font-family="helvetica">LMG 220507 Tatumella punctata</text>
    </g>
    <g>
     <circle stroke="black" stroke-width="0.5" fill="#aaffff" cx="778.0" cy="1176.0" r="1.0"/>
     <text stroke="none" x="778.0" y="1176.0" font-size="20.0" font-family="helvetica">LMG 220497 Tatumella citrea</text>
    </g>
    <g>
     <circle stroke="black" stroke-width="0.5" fill="#aaffff" cx="834.0" cy="1144.0" r="1.0"/>
     <text stroke="none" x="834.0" y="1144.0" font-size="20.0" font-family="helvetica">LMG 233607 Tatumella morbirosei</text>
    </g>
    <line stroke="black" x1="484.0" y1="45.0" x2="478.0" y2="44.0" stroke-width="0.5"/>
    <line stroke="black" x1="476.0" y1="78.0" x2="475.0" y2="54.0" stroke-width="0.5"/>
    <line stroke="black" x1="478.0" y1="108.0" x2="472.0" y2="108.0" stroke-width="0.5"/>
    <line stroke="black" x1="477.0" y1="139.0" x2="471.0" y2="138.0" stroke-width="0.5"/>
    <line stroke="black" x1="472.0" y1="234.0" x2="467.0" y2="161.0" stroke-width="0.5"/>
    <line stroke="black" x1="486.0" y1="423.0" x2="486.0" y2="393.0" stroke-width="0.5"/>
    <line stroke="black" x1="508.0" y1="327.0" x2="502.0" y2="344.0" stroke-width="0.5"/>
    <line stroke="black" x1="445.0" y1="675.0" x2="438.0" y2="674.0" stroke-width="0.5"/>
    <line stroke="black" x1="506.0" y1="768.0" x2="505.0" y2="753.0" stroke-width="0.5"/>
    <line stroke="black" x1="533.0" y1="610.0" x2="510.0" y2="594.0" stroke-width="0.5"/>
    <line stroke="black" x1="554.0" y1="641.0" x2="554.0" y2="658.0" stroke-width="0.5"/>
    <line stroke="black" x1="551.0" y1="453.0" x2="545.0" y2="470.0" stroke-width="0.5"/>
    <line stroke="black" x1="559.0" y1="515.0" x2="558.0" y2="531.0" stroke-width="0.5"/>
    <line stroke="black" x1="443.0" y1="988.0" x2="441.0" y2="971.0" stroke-width="0.5"/>
    <line stroke="black" x1="442.0" y1="955.0" x2="441.0" y2="971.0" stroke-width="0.5"/>
    <line stroke="black" x1="449.0" y1="925.0" x2="435.0" y2="908.0" stroke-width="0.5"/>
    <line stroke="black" x1="495.0" y1="1019.0" x2="414.0" y2="1035.0" stroke-width="0.5"/>
    <line stroke="black" x1="528.0" y1="1050.0" x2="414.0" y2="1035.0" stroke-width="0.5"/>
    <line stroke="black" x1="723.0" y1="1239.0" x2="662.0" y2="1253.0" stroke-width="0.5"/>
    <line stroke="black" x1="756.0" y1="1207.0" x2="556.0" y2="1184.0" stroke-width="0.5"/>
    <line stroke="black" x1="484.0" y1="1396.0" x2="159.0" y2="1411.0" stroke-width="0.5"/>
    <line stroke="black" x1="478.0" y1="44.0" x2="475.0" y2="54.0" stroke-width="0.5"/>
    <line stroke="black" x1="475.0" y1="54.0" x2="472.0" y2="108.0" stroke-width="0.5"/>
    <line stroke="black" x1="472.0" y1="108.0" x2="471.0" y2="138.0" stroke-width="0.5"/>
    <line stroke="black" x1="471.0" y1="138.0" x2="467.0" y2="161.0" stroke-width="0.5"/>
    <line stroke="black" x1="467.0" y1="161.0" x2="390.0" y2="221.0" stroke-width="0.5"/>
    <line stroke="black" x1="390.0" y1="221.0" x2="338.0" y2="308.0" stroke-width="0.5"/>
    <line stroke="black" x1="390.0" y1="221.0" x2="456.0" y2="279.0" stroke-width="0.5"/>
    <line stroke="black" x1="338.0" y1="308.0" x2="261.0" y2="502.0" stroke-width="0.5"/>
    <line stroke="black" x1="338.0" y1="308.0" x2="486.0" y2="393.0" stroke-width="0.5"/>
    <line stroke="black" x1="486.0" y1="393.0" x2="492.0" y2="368.0" stroke-width="0.5"/>
    <line stroke="black" x1="492.0" y1="368.0" x2="502.0" y2="344.0" stroke-width="0.5"/>
    <line stroke="black" x1="261.0" y1="502.0" x2="190.0" y2="714.0" stroke-width="0.5"/>
    <line stroke="black" x1="261.0" y1="502.0" x2="395.0" y2="694.0" stroke-width="0.5"/>
    <line stroke="black" x1="190.0" y1="714.0" x2="165.0" y2="890.0" stroke-width="0.5"/>
    <line stroke="black" x1="190.0" y1="714.0" x2="240.0" y2="923.0" stroke-width="0.5"/>
    <line stroke="black" x1="395.0" y1="694.0" x2="447.0" y2="774.0" stroke-width="0.5"/>
    <line stroke="black" x1="395.0" y1="694.0" x2="435.0" y2="615.0" stroke-width="0.5"/>
    <line stroke="black" x1="435.0" y1="615.0" x2="437.0" y2="663.0" stroke-width="0.5"/>
    <line stroke="black" x1="435.0" y1="615.0" x2="460.0" y2="549.0" stroke-width="0.5"/>
    <line stroke="black" x1="447.0" y1="774.0" x2="505.0" y2="753.0" stroke-width="0.5"/>
    <line stroke="black" x1="165.0" y1="890.0" x2="72.0" y2="1055.0" stroke-width="0.5"/>
    <line stroke="black" x1="165.0" y1="890.0" x2="239.0" y2="1065.0" stroke-width="0.5"/>
    <line stroke="black" x1="437.0" y1="663.0" x2="438.0" y2="674.0" stroke-width="0.5"/>
    <line stroke="black" x1="437.0" y1="663.0" x2="438.0" y2="674.0" stroke-width="0.5"/>
    <line stroke="black" x1="438.0" y1="674.0" x2="456.0" y2="680.0" stroke-width="0.5"/>
    <line stroke="black" x1="456.0" y1="680.0" x2="554.0" y2="658.0" stroke-width="0.5"/>
    <line stroke="black" x1="460.0" y1="549.0" x2="510.0" y2="594.0" stroke-width="0.5"/>
    <line stroke="black" x1="460.0" y1="549.0" x2="500.0" y2="502.0" stroke-width="0.5"/>
    <line stroke="black" x1="240.0" y1="923.0" x2="441.0" y2="971.0" stroke-width="0.5"/>
    <line stroke="black" x1="240.0" y1="923.0" x2="300.0" y2="878.0" stroke-width="0.5"/>
    <line stroke="black" x1="500.0" y1="502.0" x2="558.0" y2="531.0" stroke-width="0.5"/>
    <line stroke="black" x1="500.0" y1="502.0" x2="545.0" y2="470.0" stroke-width="0.5"/>
    <line stroke="black" x1="300.0" y1="878.0" x2="435.0" y2="908.0" stroke-width="0.5"/>
    <line stroke="black" x1="300.0" y1="878.0" x2="494.0" y2="847.0" stroke-width="0.5"/>
    <line stroke="black" x1="558.0" y1="531.0" x2="560.0" y2="548.0" stroke-width="0.5"/>
    <line stroke="black" x1="239.0" y1="1065.0" x2="408.0" y2="1096.0" stroke-width="0.5"/>
    <line stroke="black" x1="239.0" y1="1065.0" x2="414.0" y2="1035.0" stroke-width="0.5"/>
    <line stroke="black" x1="72.0" y1="1055.0" x2="481.0" y2="1218.0" stroke-width="0.5"/>
    <line stroke="black" x1="31.0" y1="1417.0" x2="104.0" y2="1377.0" stroke-width="0.5"/>
    <line stroke="black" x1="104.0" y1="1377.0" x2="159.0" y2="1411.0" stroke-width="0.5"/>
    <line stroke="black" x1="104.0" y1="1377.0" x2="157.0" y2="1342.0" stroke-width="0.5"/>
    <line stroke="black" x1="481.0" y1="1218.0" x2="662.0" y2="1253.0" stroke-width="0.5"/>
    <line stroke="black" x1="481.0" y1="1218.0" x2="556.0" y2="1184.0" stroke-width="0.5"/>
    <line stroke="black" x1="157.0" y1="1342.0" x2="245.0" y2="1318.0" stroke-width="0.5"/>
    <line stroke="black" x1="556.0" y1="1184.0" x2="706.0" y2="1161.0" stroke-width="0.5"/>
    <line stroke="black" x1="72.0" y1="1055.0" x2="31.0" y2="1417.0" stroke-width="0.5"/>
    <line stroke="black" x1="292.0" y1="1459.0" x2="31.0" y2="1417.0" stroke-width="0.5"/>
    <line stroke="black" x1="416.0" y1="1490.0" x2="31.0" y2="1417.0" stroke-width="0.5"/>
    <line stroke="black" x1="325.0" y1="1427.0" x2="159.0" y2="1411.0" stroke-width="0.5"/>
    <line stroke="black" x1="343.0" y1="1365.0" x2="157.0" y2="1342.0" stroke-width="0.5"/>
    <line stroke="black" x1="367.0" y1="1301.0" x2="245.0" y2="1318.0" stroke-width="0.5"/>
    <line stroke="black" x1="384.0" y1="1333.0" x2="245.0" y2="1318.0" stroke-width="0.5"/>
    <line stroke="black" x1="441.0" y1="1081.0" x2="408.0" y2="1096.0" stroke-width="0.5"/>
    <line stroke="black" x1="447.0" y1="1113.0" x2="408.0" y2="1096.0" stroke-width="0.5"/>
    <line stroke="black" x1="451.0" y1="893.0" x2="435.0" y2="908.0" stroke-width="0.5"/>
    <line stroke="black" x1="460.0" y1="265.0" x2="456.0" y2="279.0" stroke-width="0.5"/>
    <line stroke="black" x1="461.0" y1="296.0" x2="456.0" y2="279.0" stroke-width="0.5"/>
    <line stroke="black" x1="506.0" y1="799.0" x2="447.0" y2="774.0" stroke-width="0.5"/>
    <line stroke="black" x1="481.0" y1="14.0" x2="478.0" y2="44.0" stroke-width="0.5"/>
    <line stroke="black" x1="500.0" y1="391.0" x2="492.0" y2="368.0" stroke-width="0.5"/>
    <line stroke="black" x1="577.0" y1="705.0" x2="456.0" y2="680.0" stroke-width="0.5"/>
    <line stroke="black" x1="505.0" y1="862.0" x2="494.0" y2="847.0" stroke-width="0.5"/>
    <line stroke="black" x1="512.0" y1="830.0" x2="494.0" y2="847.0" stroke-width="0.5"/>
    <line stroke="black" x1="507.0" y1="359.0" x2="502.0" y2="344.0" stroke-width="0.5"/>
    <line stroke="black" x1="511.0" y1="736.0" x2="505.0" y2="753.0" stroke-width="0.5"/>
    <line stroke="black" x1="524.0" y1="579.0" x2="510.0" y2="594.0" stroke-width="0.5"/>
    <line stroke="black" x1="555.0" y1="485.0" x2="545.0" y2="470.0" stroke-width="0.5"/>
    <line stroke="black" x1="562.0" y1="673.0" x2="554.0" y2="658.0" stroke-width="0.5"/>
    <line stroke="black" x1="712.0" y1="1270.0" x2="662.0" y2="1253.0" stroke-width="0.5"/>
    <line stroke="black" x1="778.0" y1="1176.0" x2="706.0" y2="1161.0" stroke-width="0.5"/>
    <line stroke="black" x1="834.0" y1="1144.0" x2="706.0" y2="1161.0" stroke-width="0.5"/>
   </g>
  </g>
 </svg>
</svg>
