<?xml version="1.0" encoding="UTF-8"?>
<svg height="800.0" width="700.0" xmlns="http://www.w3.org/2000/svg">
 <svg>
  <g>
   <g>
    <g>
     <circle stroke="black" stroke-width="0.5" fill="#aaffff" cx="287.0" cy="373.0" r="1.0"/>
     <text stroke="none" x="287.0" y="373.0" font-size="10.0" font-family="helvetica">NT1.1</text>
    </g>
    <g>
     <circle stroke="black" stroke-width="0.5" fill="#aaffff" cx="293.0" cy="216.0" r="1.0"/>
     <text stroke="none" x="293.0" y="216.0" font-size="10.0" font-family="helvetica">NT1.2</text>
    </g>
    <g>
     <circle stroke="black" stroke-width="0.5" fill="#aaffff" cx="318.0" cy="77.0" r="1.0"/>
     <text stroke="none" x="318.0" y="77.0" font-size="10.0" font-family="helvetica">NT1.3</text>
    </g>
    <g>
     <circle stroke="black" stroke-width="0.5" fill="#aaffff" cx="320.0" cy="360.0" r="1.0"/>
     <text stroke="none" x="320.0" y="360.0" font-size="10.0" font-family="helvetica">NT1.4</text>
    </g>
    <g>
     <circle stroke="black" stroke-width="0.5" fill="#aaffff" cx="342.0" cy="526.0" r="1.0"/>
     <text stroke="none" x="342.0" y="526.0" font-size="10.0" font-family="helvetica">NT1.5</text>
    </g>
    <g>
     <circle stroke="black" stroke-width="0.5" fill="#aaffff" cx="360.0" cy="132.0" r="1.0"/>
     <text stroke="none" x="360.0" y="132.0" font-size="10.0" font-family="helvetica">NT1.6</text>
    </g>
    <g>
     <circle stroke="black" stroke-width="0.5" fill="#aaffff" cx="369.0" cy="382.0" r="1.0"/>
     <text stroke="none" x="369.0" y="382.0" font-size="10.0" font-family="helvetica">NT1.7</text>
    </g>
    <g>
     <circle stroke="black" stroke-width="0.5" fill="#aaffff" cx="374.0" cy="584.0" r="1.0"/>
     <text stroke="none" x="374.0" y="584.0" font-size="10.0" font-family="helvetica">NT1.8</text>
    </g>
    <g>
     <circle stroke="black" stroke-width="0.5" fill="#aaffff" cx="384.0" cy="183.0" r="1.0"/>
     <text stroke="none" x="384.0" y="183.0" font-size="10.0" font-family="helvetica">NT1.9</text>
    </g>
    <g>
     <circle stroke="black" stroke-width="0.5" fill="#aaffff" cx="390.0" cy="83.0" r="1.0"/>
     <text stroke="none" x="390.0" y="83.0" font-size="10.0" font-family="helvetica">NT1.10</text>
    </g>
    <g>
     <circle stroke="black" stroke-width="0.5" fill="#aaffff" cx="408.0" cy="635.0" r="1.0"/>
     <text stroke="none" x="408.0" y="635.0" font-size="10.0" font-family="helvetica">NT1.11</text>
    </g>
    <g>
     <circle stroke="black" stroke-width="0.5" fill="#aaffff" cx="420.0" cy="206.0" r="1.0"/>
     <text stroke="none" x="420.0" y="206.0" font-size="10.0" font-family="helvetica">NT1.12</text>
    </g>
    <g>
     <circle stroke="black" stroke-width="0.5" fill="#aaffff" cx="438.0" cy="695.0" r="1.0"/>
     <text stroke="none" x="438.0" y="695.0" font-size="10.0" font-family="helvetica">NT1.13</text>
    </g>
    <g>
     <circle stroke="black" stroke-width="0.5" fill="#aaffff" cx="450.0" cy="753.0" r="1.0"/>
     <text stroke="none" x="450.0" y="753.0" font-size="10.0" font-family="helvetica">NT1.14</text>
    </g>
    <g>
     <circle stroke="black" stroke-width="0.5" fill="#aaffff" cx="471.0" cy="252.0" r="1.0"/>
     <text stroke="none" x="471.0" y="252.0" font-size="10.0" font-family="helvetica">NT1.15</text>
    </g>
    <g>
     <circle stroke="black" stroke-width="0.5" fill="#aaffff" cx="483.0" cy="640.0" r="1.0"/>
     <text stroke="none" x="483.0" y="640.0" font-size="10.0" font-family="helvetica">NT1.16</text>
    </g>
    <g>
     <circle stroke="black" stroke-width="0.5" fill="#aaffff" cx="490.0" cy="19.0" r="1.0"/>
     <text stroke="none" x="490.0" y="19.0" font-size="20.0" font-family="helvetica">Vogesella indigofera ATCC 197O6T (ABO21385)</text>
    </g>
    <g>
     <circle stroke="black" stroke-width="0.5" fill="#aaffff" cx="493.0" cy="320.0" r="1.0"/>
     <text stroke="none" x="493.0" y="320.0" font-size="20.0" font-family="helvetica">Aquaspirillum serpens</text>
    </g>
    <g>
     <circle stroke="black" stroke-width="0.5" fill="#aaffff" cx="493.0" cy="404.0" r="1.0"/>
     <text stroke="none" x="493.0" y="404.0" font-size="20.0" font-family="helvetica">Laribacter hongkongensis HKU1T (AF389085)</text>
    </g>
    <g>
     <circle stroke="black" stroke-width="0.5" fill="#aaffff" cx="495.0" cy="469.0" r="1.0"/>
     <text stroke="none" x="495.0" y="469.0" font-size="10.0" font-family="helvetica">NT1.20</text>
    </g>
    <g>
     <circle stroke="black" stroke-width="0.5" fill="#aaffff" cx="496.0" cy="148.0" r="1.0"/>
     <text stroke="none" x="496.0" y="148.0" font-size="20.0" font-family="helvetica">Aquitalea magnusoniiTRO-OO1DR8T (DQ018117)</text>
    </g>
    <g>
     <circle stroke="black" stroke-width="0.5" fill="#aaffff" cx="502.0" cy="801.0" r="1.0"/>
     <text stroke="none" x="502.0" y="801.0" font-size="10.0" font-family="helvetica">NT1.22</text>
    </g>
    <g>
     <circle stroke="black" stroke-width="0.5" fill="#aaffff" cx="503.0" cy="103.0" r="1.0"/>
     <text stroke="none" x="503.0" y="103.0" font-size="20.0" font-family="helvetica">Gulbenkiania mobilis</text>
    </g>
    <g>
     <circle stroke="black" stroke-width="0.5" fill="#aaffff" cx="508.0" cy="233.0" r="1.0"/>
     <text stroke="none" x="508.0" y="233.0" font-size="20.0" font-family="helvetica">Chromobacterium subtsugae PRAA4-1T (AY344056)</text>
    </g>
    <g>
     <circle stroke="black" stroke-width="0.5" fill="#aaffff" cx="512.0" cy="275.0" r="1.0"/>
     <text stroke="none" x="512.0" y="275.0" font-size="20.0" font-family="helvetica">Chromobacterium violaceum ATCC 12472T (M22510)</text>
    </g>
    <g>
     <circle stroke="black" stroke-width="0.5" fill="#aaffff" cx="514.0" cy="61.0" r="1.0"/>
     <text stroke="none" x="514.0" y="61.0" font-size="20.0" font-family="helvetica">Paludibacterium yongneupense 5YN8-157 (AM396358)</text>
    </g>
    <g>
     <circle stroke="black" stroke-width="0.5" fill="#aaffff" cx="517.0" cy="190.0" r="1.0"/>
     <text stroke="none" x="517.0" y="190.0" font-size="20.0" font-family="helvetica">Chromobacterium aquaticum CC-SEYA-1T (EU109734)</text>
    </g>
    <g>
     <circle stroke="black" stroke-width="0.5" fill="#aaffff" cx="536.0" cy="362.0" r="1.0"/>
     <text stroke="none" x="536.0" y="362.0" font-size="20.0" font-family="helvetica">Microvirgula aerodenitrificans LMG 4329 (AJ487013)</text>
    </g>
    <g>
     <circle stroke="black" stroke-width="0.5" fill="#aaffff" cx="572.0" cy="534.0" r="1.0"/>
     <text stroke="none" x="572.0" y="534.0" font-size="20.0" font-family="helvetica">Formivibrio citricus DSM 615OT (Y17602)</text>
    </g>
    <g>
     <circle stroke="black" stroke-width="0.5" fill="#aaffff" cx="572.0" cy="962.0" r="1.0"/>
     <text stroke="none" x="572.0" y="962.0" font-size="20.0" font-family="helvetica">Escherichia coli K-12 (E05133)</text>
    </g>
    <g>
     <circle stroke="black" stroke-width="0.5" fill="#aaffff" cx="602.0" cy="576.0" r="1.0"/>
     <text stroke="none" x="602.0" y="576.0" font-size="20.0" font-family="helvetica">lodobacter fluviatilis ATCC 33051T (M2251 1)</text>
    </g>
    <g>
     <circle stroke="black" stroke-width="0.5" fill="#aaffff" cx="608.0" cy="822.0" r="1.0"/>
     <text stroke="none" x="608.0" y="822.0" font-size="10.0" font-family="helvetica">NT1.32</text>
    </g>
    <g>
     <circle stroke="black" stroke-width="0.5" fill="#aaffff" cx="613.0" cy="897.0" r="1.0"/>
     <text stroke="none" x="613.0" y="897.0" font-size="10.0" font-family="helvetica">NT1.33</text>
    </g>
    <g>
     <circle stroke="black" stroke-width="0.5" fill="#aaffff" cx="617.0" cy="619.0" r="1.0"/>
     <text stroke="none" x="617.0" y="619.0" font-size="20.0" font-family="helvetica">Chitinilyticum aquatile 014T (DQ314581)</text>
    </g>
    <g>
     <circle stroke="black" stroke-width="0.5" fill="#aaffff" cx="623.0" cy="661.0" r="1.0"/>
     <text stroke="none" x="623.0" y="661.0" font-size="20.0" font-family="helvetica">Chitinibactertainanensis BCRC 1 7254T (AY264287)</text>
    </g>
    <g>
     <circle stroke="black" stroke-width="0.5" fill="#aaffff" cx="629.0" cy="446.0" r="1.0"/>
     <text stroke="none" x="629.0" y="446.0" font-size="20.0" font-family="helvetica">Chitinimonas koreensis R2A43-1OT (DQ256728)</text>
    </g>
    <g>
     <circle stroke="black" stroke-width="0.5" fill="#aaffff" cx="629.0" cy="491.0" r="1.0"/>
     <text stroke="none" x="629.0" y="491.0" font-size="20.0" font-family="helvetica">Chitinimonas taiwanensis cfT (AY323827)</text>
    </g>
    <g>
     <circle stroke="black" stroke-width="0.5" fill="#aaffff" cx="629.0" cy="747.0" r="1.0"/>
     <text stroke="none" x="629.0" y="747.0" font-size="20.0" font-family="helvetica">Andreprevotia Chitinilytica JS1 1-7T (DQ836355)</text>
    </g>
    <g>
     <circle stroke="black" stroke-width="0.5" fill="#aaffff" cx="629.0" cy="920.0" r="1.0"/>
     <text stroke="none" x="629.0" y="920.0" font-size="20.0" font-family="helvetica">ir6-4T (AB326111)</text>
    </g>
    <g>
     <circle stroke="black" stroke-width="0.5" fill="#aaffff" cx="631.0" cy="833.0" r="1.0"/>
     <text stroke="none" x="631.0" y="833.0" font-size="20.0" font-family="helvetica">Uncultured Silvimonas sp. ntu63 (EU159476)</text>
    </g>
    <g>
     <circle stroke="black" stroke-width="0.5" fill="#aaffff" cx="631.0" cy="789.0" r="1.0"/>
     <text stroke="none" x="631.0" y="789.0" font-size="20.0" font-family="helvetica">Silvimonas terrae KM-45T (AB194302)</text>
    </g>
    <g>
     <circle stroke="black" stroke-width="0.5" fill="#aaffff" cx="638.0" cy="705.0" r="1.0"/>
     <text stroke="none" x="638.0" y="705.0" font-size="20.0" font-family="helvetica">Dee-fgea rivuli WB 3.4-79T (AM397080)</text>
    </g>
    <g>
     <circle stroke="black" stroke-width="0.5" fill="#aaffff" cx="648.0" cy="877.0" r="1.0"/>
     <text stroke="none" x="648.0" y="877.0" font-size="20.0" font-family="helvetica">ir6-1T (AB326110)</text>
    </g>
    <line stroke="black" x1="517.0" y1="190.0" x2="420.0" y2="206.0" stroke-width="0.5"/>
    <line stroke="black" x1="493.0" y1="404.0" x2="369.0" y2="382.0" stroke-width="0.5"/>
    <line stroke="black" x1="572.0" y1="534.0" x2="374.0" y2="584.0" stroke-width="0.5"/>
    <line stroke="black" x1="629.0" y1="446.0" x2="495.0" y2="469.0" stroke-width="0.5"/>
    <line stroke="black" x1="623.0" y1="661.0" x2="483.0" y2="640.0" stroke-width="0.5"/>
    <line stroke="black" x1="631.0" y1="833.0" x2="608.0" y2="822.0" stroke-width="0.5"/>
    <line stroke="black" x1="631.0" y1="789.0" x2="608.0" y2="822.0" stroke-width="0.5"/>
    <line stroke="black" x1="318.0" y1="77.0" x2="293.0" y2="216.0" stroke-width="0.5"/>
    <line stroke="black" x1="318.0" y1="77.0" x2="360.0" y2="132.0" stroke-width="0.5"/>
    <line stroke="black" x1="360.0" y1="132.0" x2="384.0" y2="183.0" stroke-width="0.5"/>
    <line stroke="black" x1="360.0" y1="132.0" x2="390.0" y2="83.0" stroke-width="0.5"/>
    <line stroke="black" x1="293.0" y1="216.0" x2="287.0" y2="373.0" stroke-width="0.5"/>
    <line stroke="black" x1="293.0" y1="216.0" x2="320.0" y2="360.0" stroke-width="0.5"/>
    <line stroke="black" x1="384.0" y1="183.0" x2="420.0" y2="206.0" stroke-width="0.5"/>
    <line stroke="black" x1="420.0" y1="206.0" x2="471.0" y2="252.0" stroke-width="0.5"/>
    <line stroke="black" x1="320.0" y1="360.0" x2="320.0" y2="360.0" stroke-width="0.5"/>
    <line stroke="black" x1="320.0" y1="360.0" x2="369.0" y2="382.0" stroke-width="0.5"/>
    <line stroke="black" x1="287.0" y1="373.0" x2="342.0" y2="526.0" stroke-width="0.5"/>
    <line stroke="black" x1="342.0" y1="526.0" x2="374.0" y2="584.0" stroke-width="0.5"/>
    <line stroke="black" x1="342.0" y1="526.0" x2="495.0" y2="469.0" stroke-width="0.5"/>
    <line stroke="black" x1="374.0" y1="584.0" x2="408.0" y2="635.0" stroke-width="0.5"/>
    <line stroke="black" x1="408.0" y1="635.0" x2="438.0" y2="695.0" stroke-width="0.5"/>
    <line stroke="black" x1="438.0" y1="695.0" x2="450.0" y2="753.0" stroke-width="0.5"/>
    <line stroke="black" x1="438.0" y1="695.0" x2="483.0" y2="640.0" stroke-width="0.5"/>
    <line stroke="black" x1="450.0" y1="753.0" x2="502.0" y2="801.0" stroke-width="0.5"/>
    <line stroke="black" x1="502.0" y1="801.0" x2="608.0" y2="822.0" stroke-width="0.5"/>
    <line stroke="black" x1="608.0" y1="822.0" x2="613.0" y2="897.0" stroke-width="0.5"/>
    <line stroke="black" x1="572.0" y1="962.0" x2="287.0" y2="373.0" stroke-width="0.5"/>
    <line stroke="black" x1="493.0" y1="320.0" x2="320.0" y2="360.0" stroke-width="0.5"/>
    <line stroke="black" x1="490.0" y1="19.0" x2="318.0" y2="77.0" stroke-width="0.5"/>
    <line stroke="black" x1="496.0" y1="148.0" x2="384.0" y2="183.0" stroke-width="0.5"/>
    <line stroke="black" x1="536.0" y1="362.0" x2="369.0" y2="382.0" stroke-width="0.5"/>
    <line stroke="black" x1="503.0" y1="103.0" x2="390.0" y2="83.0" stroke-width="0.5"/>
    <line stroke="black" x1="514.0" y1="61.0" x2="390.0" y2="83.0" stroke-width="0.5"/>
    <line stroke="black" x1="602.0" y1="576.0" x2="408.0" y2="635.0" stroke-width="0.5"/>
    <line stroke="black" x1="512.0" y1="275.0" x2="471.0" y2="252.0" stroke-width="0.5"/>
    <line stroke="black" x1="508.0" y1="233.0" x2="471.0" y2="252.0" stroke-width="0.5"/>
    <line stroke="black" x1="638.0" y1="705.0" x2="450.0" y2="753.0" stroke-width="0.5"/>
    <line stroke="black" x1="617.0" y1="619.0" x2="483.0" y2="640.0" stroke-width="0.5"/>
    <line stroke="black" x1="629.0" y1="491.0" x2="495.0" y2="469.0" stroke-width="0.5"/>
    <line stroke="black" x1="629.0" y1="747.0" x2="502.0" y2="801.0" stroke-width="0.5"/>
    <line stroke="black" x1="629.0" y1="920.0" x2="613.0" y2="897.0" stroke-width="0.5"/>
    <line stroke="black" x1="648.0" y1="877.0" x2="613.0" y2="897.0" stroke-width="0.5"/>
   </g>
  </g>
 </svg>
</svg>
