<?xml version="1.0" encoding="UTF-8"?>
<svg height="800.0" width="700.0" xmlns="http://www.w3.org/2000/svg">
 <svg>
  <g>
   <g>
    <g>
     <circle stroke="black" stroke-width="0.5" fill="#aaffff" cx="143.0" cy="176.0" r="1.0"/>
     <text stroke="none" x="143.0" y="176.0" font-size="10.0" font-family="helvetica">NT1.1</text>
    </g>
    <g>
     <circle stroke="black" stroke-width="0.5" fill="#aaffff" cx="145.0" cy="172.0" r="1.0"/>
     <text stroke="none" x="145.0" y="172.0" font-size="10.0" font-family="helvetica">NT1.2</text>
    </g>
    <g>
     <circle stroke="black" stroke-width="0.5" fill="#aaffff" cx="148.0" cy="180.0" r="1.0"/>
     <text stroke="none" x="148.0" y="180.0" font-size="20.0" font-family="helvetica"/>
    </g>
    <g>
     <circle stroke="black" stroke-width="0.5" fill="#aaffff" cx="152.0" cy="294.0" r="1.0"/>
     <text stroke="none" x="152.0" y="294.0" font-size="10.0" font-family="helvetica">NT1.4</text>
    </g>
    <g>
     <circle stroke="black" stroke-width="0.5" fill="#aaffff" cx="154.0" cy="174.0" r="1.0"/>
     <text stroke="none" x="154.0" y="174.0" font-size="10.0" font-family="helvetica">NT1.5</text>
    </g>
    <g>
     <circle stroke="black" stroke-width="0.5" fill="#aaffff" cx="200.0" cy="454.0" r="1.0"/>
     <text stroke="none" x="200.0" y="454.0" font-size="10.0" font-family="helvetica">NT1.6</text>
    </g>
    <g>
     <circle stroke="black" stroke-width="0.5" fill="#aaffff" cx="202.0" cy="457.0" r="1.0"/>
     <text stroke="none" x="202.0" y="457.0" font-size="10.0" font-family="helvetica">NT1.7</text>
    </g>
    <g>
     <circle stroke="black" stroke-width="0.5" fill="#aaffff" cx="202.0" cy="451.0" r="1.0"/>
     <text stroke="none" x="202.0" y="451.0" font-size="10.0" font-family="helvetica">NT1.8</text>
    </g>
    <g>
     <circle stroke="black" stroke-width="0.5" fill="#aaffff" cx="202.0" cy="460.0" r="1.0"/>
     <text stroke="none" x="202.0" y="460.0" font-size="10.0" font-family="helvetica">NT1.9</text>
    </g>
    <g>
     <circle stroke="black" stroke-width="0.5" fill="#aaffff" cx="206.0" cy="456.0" r="1.0"/>
     <text stroke="none" x="206.0" y="456.0" font-size="10.0" font-family="helvetica">NT1.10</text>
    </g>
    <g>
     <circle stroke="black" stroke-width="0.5" fill="#aaffff" cx="215.0" cy="812.0" r="1.0"/>
     <text stroke="none" x="215.0" y="812.0" font-size="20.0" font-family="helvetica"/>
    </g>
    <g>
     <circle stroke="black" stroke-width="0.5" fill="#aaffff" cx="248.0" cy="588.0" r="1.0"/>
     <text stroke="none" x="248.0" y="588.0" font-size="10.0" font-family="helvetica">NT1.12</text>
    </g>
    <g>
     <circle stroke="black" stroke-width="0.5" fill="#aaffff" cx="253.0" cy="596.0" r="1.0"/>
     <text stroke="none" x="253.0" y="596.0" font-size="20.0" font-family="helvetica"/>
    </g>
    <g>
     <circle stroke="black" stroke-width="0.5" fill="#aaffff" cx="259.0" cy="505.0" r="1.0"/>
     <text stroke="none" x="259.0" y="505.0" font-size="10.0" font-family="helvetica">NT1.14</text>
    </g>
    <g>
     <circle stroke="black" stroke-width="0.5" fill="#aaffff" cx="278.0" cy="673.0" r="1.0"/>
     <text stroke="none" x="278.0" y="673.0" font-size="10.0" font-family="helvetica">NT1.15</text>
    </g>
    <g>
     <circle stroke="black" stroke-width="0.5" fill="#aaffff" cx="284.0" cy="741.0" r="1.0"/>
     <text stroke="none" x="284.0" y="741.0" font-size="10.0" font-family="helvetica">NT1.16</text>
    </g>
    <g>
     <circle stroke="black" stroke-width="0.5" fill="#aaffff" cx="290.0" cy="611.0" r="1.0"/>
     <text stroke="none" x="290.0" y="611.0" font-size="10.0" font-family="helvetica">NT1.17</text>
    </g>
    <g>
     <circle stroke="black" stroke-width="0.5" fill="#aaffff" cx="300.0" cy="322.0" r="1.0"/>
     <text stroke="none" x="300.0" y="322.0" font-size="10.0" font-family="helvetica">NT1.18</text>
    </g>
    <g>
     <circle stroke="black" stroke-width="0.5" fill="#aaffff" cx="302.0" cy="319.0" r="1.0"/>
     <text stroke="none" x="302.0" y="319.0" font-size="10.0" font-family="helvetica">NT1.19</text>
    </g>
    <g>
     <circle stroke="black" stroke-width="0.5" fill="#aaffff" cx="305.0" cy="318.0" r="1.0"/>
     <text stroke="none" x="305.0" y="318.0" font-size="10.0" font-family="helvetica">NT1.20</text>
    </g>
    <g>
     <circle stroke="black" stroke-width="0.5" fill="#aaffff" cx="306.0" cy="316.0" r="1.0"/>
     <text stroke="none" x="306.0" y="316.0" font-size="20.0" font-family="helvetica"/>
    </g>
    <g>
     <circle stroke="black" stroke-width="0.5" fill="#aaffff" cx="306.0" cy="326.0" r="1.0"/>
     <text stroke="none" x="306.0" y="326.0" font-size="20.0" font-family="helvetica"/>
    </g>
    <g>
     <circle stroke="black" stroke-width="0.5" fill="#aaffff" cx="312.0" cy="645.0" r="1.0"/>
     <text stroke="none" x="312.0" y="645.0" font-size="10.0" font-family="helvetica">NT1.23</text>
    </g>
    <g>
     <circle stroke="black" stroke-width="0.5" fill="#aaffff" cx="314.0" cy="374.0" r="1.0"/>
     <text stroke="none" x="314.0" y="374.0" font-size="10.0" font-family="helvetica">NT1.24</text>
    </g>
    <g>
     <circle stroke="black" stroke-width="0.5" fill="#aaffff" cx="323.0" cy="269.0" r="1.0"/>
     <text stroke="none" x="323.0" y="269.0" font-size="10.0" font-family="helvetica">NT1.25</text>
    </g>
    <g>
     <circle stroke="black" stroke-width="0.5" fill="#aaffff" cx="326.0" cy="409.0" r="1.0"/>
     <text stroke="none" x="326.0" y="409.0" font-size="10.0" font-family="helvetica">NT1.26</text>
    </g>
    <g>
     <circle stroke="black" stroke-width="0.5" fill="#aaffff" cx="327.0" cy="716.0" r="1.0"/>
     <text stroke="none" x="327.0" y="716.0" font-size="20.0" font-family="helvetica"/>
    </g>
    <g>
     <circle stroke="black" stroke-width="0.5" fill="#aaffff" cx="330.0" cy="764.0" r="1.0"/>
     <text stroke="none" x="330.0" y="764.0" font-size="20.0" font-family="helvetica"/>
    </g>
    <g>
     <circle stroke="black" stroke-width="0.5" fill="#aaffff" cx="334.0" cy="140.0" r="1.0"/>
     <text stroke="none" x="334.0" y="140.0" font-size="10.0" font-family="helvetica">NT1.29</text>
    </g>
    <g>
     <circle stroke="black" stroke-width="0.5" fill="#aaffff" cx="335.0" cy="54.0" r="1.0"/>
     <text stroke="none" x="335.0" y="54.0" font-size="20.0" font-family="helvetica"/>
    </g>
    <g>
     <circle stroke="black" stroke-width="0.5" fill="#aaffff" cx="338.0" cy="433.0" r="1.0"/>
     <text stroke="none" x="338.0" y="433.0" font-size="20.0" font-family="helvetica"/>
    </g>
    <g>
     <circle stroke="black" stroke-width="0.5" fill="#aaffff" cx="346.0" cy="292.0" r="1.0"/>
     <text stroke="none" x="346.0" y="292.0" font-size="20.0" font-family="helvetica"/>
    </g>
    <g>
     <circle stroke="black" stroke-width="0.5" fill="#aaffff" cx="347.0" cy="528.0" r="1.0"/>
     <text stroke="none" x="347.0" y="528.0" font-size="20.0" font-family="helvetica"/>
    </g>
    <g>
     <circle stroke="black" stroke-width="0.5" fill="#aaffff" cx="349.0" cy="669.0" r="1.0"/>
     <text stroke="none" x="349.0" y="669.0" font-size="20.0" font-family="helvetica"/>
    </g>
    <g>
     <circle stroke="black" stroke-width="0.5" fill="#aaffff" cx="352.0" cy="385.0" r="1.0"/>
     <text stroke="none" x="352.0" y="385.0" font-size="20.0" font-family="helvetica"/>
    </g>
    <g>
     <circle stroke="black" stroke-width="0.5" fill="#aaffff" cx="356.0" cy="171.0" r="1.0"/>
     <text stroke="none" x="356.0" y="171.0" font-size="10.0" font-family="helvetica">NT1.36</text>
    </g>
    <g>
     <circle stroke="black" stroke-width="0.5" fill="#aaffff" cx="356.0" cy="177.0" r="1.0"/>
     <text stroke="none" x="356.0" y="177.0" font-size="10.0" font-family="helvetica">NT1.37</text>
    </g>
    <g>
     <circle stroke="black" stroke-width="0.5" fill="#aaffff" cx="360.0" cy="173.0" r="1.0"/>
     <text stroke="none" x="360.0" y="173.0" font-size="10.0" font-family="helvetica">NT1.38</text>
    </g>
    <g>
     <circle stroke="black" stroke-width="0.5" fill="#aaffff" cx="361.0" cy="576.0" r="1.0"/>
     <text stroke="none" x="361.0" y="576.0" font-size="20.0" font-family="helvetica"/>
    </g>
    <g>
     <circle stroke="black" stroke-width="0.5" fill="#aaffff" cx="363.0" cy="245.0" r="1.0"/>
     <text stroke="none" x="363.0" y="245.0" font-size="20.0" font-family="helvetica"/>
    </g>
    <g>
     <circle stroke="black" stroke-width="0.5" fill="#aaffff" cx="363.0" cy="337.0" r="1.0"/>
     <text stroke="none" x="363.0" y="337.0" font-size="20.0" font-family="helvetica"/>
    </g>
    <g>
     <circle stroke="black" stroke-width="0.5" fill="#aaffff" cx="366.0" cy="621.0" r="1.0"/>
     <text stroke="none" x="366.0" y="621.0" font-size="20.0" font-family="helvetica"/>
    </g>
    <g>
     <circle stroke="black" stroke-width="0.5" fill="#aaffff" cx="371.0" cy="481.0" r="1.0"/>
     <text stroke="none" x="371.0" y="481.0" font-size="20.0" font-family="helvetica"/>
    </g>
    <g>
     <circle stroke="black" stroke-width="0.5" fill="#aaffff" cx="380.0" cy="197.0" r="1.0"/>
     <text stroke="none" x="380.0" y="197.0" font-size="20.0" font-family="helvetica"/>
    </g>
    <g>
     <circle stroke="black" stroke-width="0.5" fill="#aaffff" cx="405.0" cy="150.0" r="1.0"/>
     <text stroke="none" x="405.0" y="150.0" font-size="20.0" font-family="helvetica"/>
    </g>
    <g>
     <circle stroke="black" stroke-width="0.5" fill="#aaffff" cx="425.0" cy="102.0" r="1.0"/>
     <text stroke="none" x="425.0" y="102.0" font-size="20.0" font-family="helvetica">Muricauda flavescens</text>
    </g>
    <line stroke="black" x1="305.0" y1="318.0" x2="306.0" y2="316.0" stroke-width="0.5"/>
    <line stroke="black" x1="306.0" y1="326.0" x2="305.0" y2="318.0" stroke-width="0.5"/>
    <line stroke="black" x1="405.0" y1="150.0" x2="356.0" y2="171.0" stroke-width="0.5"/>
    <line stroke="black" x1="425.0" y1="102.0" x2="334.0" y2="140.0" stroke-width="0.5"/>
    <line stroke="black" x1="361.0" y1="576.0" x2="290.0" y2="611.0" stroke-width="0.5"/>
    <line stroke="black" x1="366.0" y1="621.0" x2="312.0" y2="645.0" stroke-width="0.5"/>
    <line stroke="black" x1="145.0" y1="172.0" x2="143.0" y2="176.0" stroke-width="0.5"/>
    <line stroke="black" x1="143.0" y1="176.0" x2="152.0" y2="294.0" stroke-width="0.5"/>
    <line stroke="black" x1="152.0" y1="294.0" x2="200.0" y2="454.0" stroke-width="0.5"/>
    <line stroke="black" x1="152.0" y1="294.0" x2="154.0" y2="174.0" stroke-width="0.5"/>
    <line stroke="black" x1="154.0" y1="174.0" x2="154.0" y2="174.0" stroke-width="0.5"/>
    <line stroke="black" x1="154.0" y1="174.0" x2="334.0" y2="140.0" stroke-width="0.5"/>
    <line stroke="black" x1="200.0" y1="454.0" x2="202.0" y2="457.0" stroke-width="0.5"/>
    <line stroke="black" x1="200.0" y1="454.0" x2="202.0" y2="451.0" stroke-width="0.5"/>
    <line stroke="black" x1="202.0" y1="457.0" x2="206.0" y2="456.0" stroke-width="0.5"/>
    <line stroke="black" x1="202.0" y1="457.0" x2="202.0" y2="460.0" stroke-width="0.5"/>
    <line stroke="black" x1="202.0" y1="451.0" x2="206.0" y2="456.0" stroke-width="0.5"/>
    <line stroke="black" x1="202.0" y1="451.0" x2="300.0" y2="322.0" stroke-width="0.5"/>
    <line stroke="black" x1="202.0" y1="460.0" x2="206.0" y2="456.0" stroke-width="0.5"/>
    <line stroke="black" x1="202.0" y1="460.0" x2="248.0" y2="588.0" stroke-width="0.5"/>
    <line stroke="black" x1="334.0" y1="140.0" x2="356.0" y2="171.0" stroke-width="0.5"/>
    <line stroke="black" x1="248.0" y1="588.0" x2="278.0" y2="673.0" stroke-width="0.5"/>
    <line stroke="black" x1="248.0" y1="588.0" x2="259.0" y2="505.0" stroke-width="0.5"/>
    <line stroke="black" x1="356.0" y1="171.0" x2="356.0" y2="177.0" stroke-width="0.5"/>
    <line stroke="black" x1="356.0" y1="171.0" x2="360.0" y2="173.0" stroke-width="0.5"/>
    <line stroke="black" x1="356.0" y1="171.0" x2="360.0" y2="173.0" stroke-width="0.5"/>
    <line stroke="black" x1="356.0" y1="177.0" x2="360.0" y2="173.0" stroke-width="0.5"/>
    <line stroke="black" x1="300.0" y1="322.0" x2="314.0" y2="374.0" stroke-width="0.5"/>
    <line stroke="black" x1="300.0" y1="322.0" x2="302.0" y2="319.0" stroke-width="0.5"/>
    <line stroke="black" x1="302.0" y1="319.0" x2="305.0" y2="318.0" stroke-width="0.5"/>
    <line stroke="black" x1="302.0" y1="319.0" x2="323.0" y2="269.0" stroke-width="0.5"/>
    <line stroke="black" x1="278.0" y1="673.0" x2="284.0" y2="741.0" stroke-width="0.5"/>
    <line stroke="black" x1="278.0" y1="673.0" x2="290.0" y2="611.0" stroke-width="0.5"/>
    <line stroke="black" x1="314.0" y1="374.0" x2="314.0" y2="374.0" stroke-width="0.5"/>
    <line stroke="black" x1="314.0" y1="374.0" x2="314.0" y2="374.0" stroke-width="0.5"/>
    <line stroke="black" x1="314.0" y1="374.0" x2="326.0" y2="409.0" stroke-width="0.5"/>
    <line stroke="black" x1="290.0" y1="611.0" x2="312.0" y2="645.0" stroke-width="0.5"/>
    <line stroke="black" x1="215.0" y1="812.0" x2="143.0" y2="176.0" stroke-width="0.5"/>
    <line stroke="black" x1="148.0" y1="180.0" x2="145.0" y2="172.0" stroke-width="0.5"/>
    <line stroke="black" x1="335.0" y1="54.0" x2="145.0" y2="172.0" stroke-width="0.5"/>
    <line stroke="black" x1="253.0" y1="596.0" x2="248.0" y2="588.0" stroke-width="0.5"/>
    <line stroke="black" x1="347.0" y1="528.0" x2="259.0" y2="505.0" stroke-width="0.5"/>
    <line stroke="black" x1="371.0" y1="481.0" x2="259.0" y2="505.0" stroke-width="0.5"/>
    <line stroke="black" x1="330.0" y1="764.0" x2="284.0" y2="741.0" stroke-width="0.5"/>
    <line stroke="black" x1="327.0" y1="716.0" x2="284.0" y2="741.0" stroke-width="0.5"/>
    <line stroke="black" x1="349.0" y1="669.0" x2="312.0" y2="645.0" stroke-width="0.5"/>
    <line stroke="black" x1="363.0" y1="337.0" x2="314.0" y2="374.0" stroke-width="0.5"/>
    <line stroke="black" x1="338.0" y1="433.0" x2="326.0" y2="409.0" stroke-width="0.5"/>
    <line stroke="black" x1="346.0" y1="292.0" x2="323.0" y2="269.0" stroke-width="0.5"/>
    <line stroke="black" x1="352.0" y1="385.0" x2="326.0" y2="409.0" stroke-width="0.5"/>
    <line stroke="black" x1="363.0" y1="245.0" x2="323.0" y2="269.0" stroke-width="0.5"/>
    <line stroke="black" x1="380.0" y1="197.0" x2="356.0" y2="177.0" stroke-width="0.5"/>
   </g>
  </g>
 </svg>
</svg>
