<?xml version="1.0" encoding="UTF-8"?>
<svg height="800.0" width="700.0" xmlns="http://www.w3.org/2000/svg">
 <svg>
  <g>
   <g>
    <g>
     <circle stroke="black" stroke-width="0.5" fill="#aaffff" cx="7.0" cy="460.0" r="1.0"/>
     <text stroke="none" x="7.0" y="460.0" font-size="20.0" font-family="helvetica"/>
    </g>
    <g>
     <circle stroke="black" stroke-width="0.5" fill="#aaffff" cx="57.0" cy="642.0" r="1.0"/>
     <text stroke="none" x="57.0" y="642.0" font-size="10.0" font-family="helvetica">NT1.2</text>
    </g>
    <g>
     <circle stroke="black" stroke-width="0.5" fill="#aaffff" cx="75.0" cy="560.0" r="1.0"/>
     <text stroke="none" x="75.0" y="560.0" font-size="10.0" font-family="helvetica">NT1.3</text>
    </g>
    <g>
     <circle stroke="black" stroke-width="0.5" fill="#aaffff" cx="82.0" cy="724.0" r="1.0"/>
     <text stroke="none" x="82.0" y="724.0" font-size="10.0" font-family="helvetica">NT1.4</text>
    </g>
    <g>
     <circle stroke="black" stroke-width="0.5" fill="#aaffff" cx="167.0" cy="511.0" r="1.0"/>
     <text stroke="none" x="167.0" y="511.0" font-size="20.0" font-family="helvetica">73</text>
    </g>
    <g>
     <circle stroke="black" stroke-width="0.5" fill="#aaffff" cx="284.0" cy="773.0" r="1.0"/>
     <text stroke="none" x="284.0" y="773.0" font-size="20.0" font-family="helvetica">100</text>
    </g>
    <g>
     <circle stroke="black" stroke-width="0.5" fill="#aaffff" cx="650.0" cy="610.0" r="1.0"/>
     <text stroke="none" x="650.0" y="610.0" font-size="20.0" font-family="helvetica">Pseudoalteromonas haloplanktis ATCC 143937 (X67024)</text>
    </g>
    <g>
     <circle stroke="black" stroke-width="0.5" fill="#aaffff" cx="675.0" cy="477.0" r="1.0"/>
     <text stroke="none" x="675.0" y="477.0" font-size="10.0" font-family="helvetica">NT1.8</text>
    </g>
    <g>
     <circle stroke="black" stroke-width="0.5" fill="#aaffff" cx="738.0" cy="544.0" r="1.0"/>
     <text stroke="none" x="738.0" y="544.0" font-size="20.0" font-family="helvetica">Idiomarina abyssalis KMM 2277 (AFO52740)</text>
    </g>
    <g>
     <circle stroke="black" stroke-width="0.5" fill="#aaffff" cx="750.0" cy="741.0" r="1.0"/>
     <text stroke="none" x="750.0" y="741.0" font-size="20.0" font-family="helvetica">Shewanella putrefaciens ATCC 80717 (X82133)</text>
    </g>
    <g>
     <circle stroke="black" stroke-width="0.5" fill="#aaffff" cx="891.0" cy="675.0" r="1.0"/>
     <text stroke="none" x="891.0" y="675.0" font-size="10.0" font-family="helvetica">NT1.11</text>
    </g>
    <g>
     <circle stroke="black" stroke-width="0.5" fill="#aaffff" cx="906.0" cy="807.0" r="1.0"/>
     <text stroke="none" x="906.0" y="807.0" font-size="10.0" font-family="helvetica">NT1.12</text>
    </g>
    <line stroke="black" x1="7.0" y1="460.0" x2="57.0" y2="642.0" stroke-width="0.5"/>
    <line stroke="black" x1="650.0" y1="610.0" x2="75.0" y2="560.0" stroke-width="0.5"/>
    <line stroke="black" x1="738.0" y1="544.0" x2="167.0" y2="511.0" stroke-width="0.5"/>
    <line stroke="black" x1="750.0" y1="741.0" x2="284.0" y2="773.0" stroke-width="0.5"/>
    <line stroke="black" x1="57.0" y1="642.0" x2="75.0" y2="560.0" stroke-width="0.5"/>
   </g>
  </g>
 </svg>
</svg>
