<?xml version="1.0" encoding="UTF-8"?>
<svg height="800.0" width="700.0" xmlns="http://www.w3.org/2000/svg">
 <svg>
  <g>
   <g>
    <g>
     <circle stroke="black" stroke-width="0.5" fill="#aaffff" cx="39.0" cy="863.0" r="1.0"/>
     <text stroke="none" x="39.0" y="863.0" font-size="10.0" font-family="helvetica">NT1.1</text>
    </g>
    <g>
     <circle stroke="black" stroke-width="0.5" fill="#aaffff" cx="116.0" cy="476.0" r="1.0"/>
     <text stroke="none" x="116.0" y="476.0" font-size="20.0" font-family="helvetica">69</text>
    </g>
    <g>
     <circle stroke="black" stroke-width="0.5" fill="#aaffff" cx="158.0" cy="637.0" r="1.0"/>
     <text stroke="none" x="158.0" y="637.0" font-size="20.0" font-family="helvetica">79</text>
    </g>
    <g>
     <circle stroke="black" stroke-width="0.5" fill="#aaffff" cx="191.0" cy="970.0" r="1.0"/>
     <text stroke="none" x="191.0" y="970.0" font-size="20.0" font-family="helvetica">99</text>
    </g>
    <g>
     <circle stroke="black" stroke-width="0.5" fill="#aaffff" cx="217.0" cy="313.0" r="1.0"/>
     <text stroke="none" x="217.0" y="313.0" font-size="10.0" font-family="helvetica">NT1.5</text>
    </g>
    <g>
     <circle stroke="black" stroke-width="0.5" fill="#aaffff" cx="363.0" cy="1382.0" r="1.0"/>
     <text stroke="none" x="363.0" y="1382.0" font-size="20.0" font-family="helvetica">1oo</text>
    </g>
    <g>
     <circle stroke="black" stroke-width="0.5" fill="#aaffff" cx="387.0" cy="1064.0" r="1.0"/>
     <text stroke="none" x="387.0" y="1064.0" font-size="20.0" font-family="helvetica">1oo</text>
    </g>
    <g>
     <circle stroke="black" stroke-width="0.5" fill="#aaffff" cx="390.0" cy="1460.0" r="1.0"/>
     <text stroke="none" x="390.0" y="1460.0" font-size="20.0" font-family="helvetica">67</text>
    </g>
    <g>
     <circle stroke="black" stroke-width="0.5" fill="#aaffff" cx="432.0" cy="1145.0" r="1.0"/>
     <text stroke="none" x="432.0" y="1145.0" font-size="20.0" font-family="helvetica">98</text>
    </g>
    <g>
     <circle stroke="black" stroke-width="0.5" fill="#aaffff" cx="444.0" cy="706.0" r="1.0"/>
     <text stroke="none" x="444.0" y="706.0" font-size="20.0" font-family="helvetica">100</text>
    </g>
    <g>
     <circle stroke="black" stroke-width="0.5" fill="#aaffff" cx="471.0" cy="175.0" r="1.0"/>
     <text stroke="none" x="471.0" y="175.0" font-size="20.0" font-family="helvetica">1oo</text>
    </g>
    <g>
     <circle stroke="black" stroke-width="0.5" fill="#aaffff" cx="483.0" cy="983.0" r="1.0"/>
     <text stroke="none" x="483.0" y="983.0" font-size="20.0" font-family="helvetica"/>
    </g>
    <g>
     <circle stroke="black" stroke-width="0.5" fill="#aaffff" cx="486.0" cy="1089.0" r="1.0"/>
     <text stroke="none" x="486.0" y="1089.0" font-size="20.0" font-family="helvetica"/>
    </g>
    <g>
     <circle stroke="black" stroke-width="0.5" fill="#aaffff" cx="486.0" cy="293.0" r="1.0"/>
     <text stroke="none" x="486.0" y="293.0" font-size="20.0" font-family="helvetica">86</text>
    </g>
    <g>
     <circle stroke="black" stroke-width="0.5" fill="#aaffff" cx="504.0" cy="1197.0" r="1.0"/>
     <text stroke="none" x="504.0" y="1197.0" font-size="20.0" font-family="helvetica"/>
    </g>
    <g>
     <circle stroke="black" stroke-width="0.5" fill="#aaffff" cx="507.0" cy="773.0" r="1.0"/>
     <text stroke="none" x="507.0" y="773.0" font-size="20.0" font-family="helvetica"/>
    </g>
    <g>
     <circle stroke="black" stroke-width="0.5" fill="#aaffff" cx="512.0" cy="39.0" r="1.0"/>
     <text stroke="none" x="512.0" y="39.0" font-size="20.0" font-family="helvetica"/>
    </g>
    <g>
     <circle stroke="black" stroke-width="0.5" fill="#aaffff" cx="516.0" cy="454.0" r="1.0"/>
     <text stroke="none" x="516.0" y="454.0" font-size="20.0" font-family="helvetica">Bacterium 'Lincoln Park 3' (AF157057)</text>
    </g>
    <g>
     <circle stroke="black" stroke-width="0.5" fill="#aaffff" cx="517.0" cy="36.0" r="1.0"/>
     <text stroke="none" x="517.0" y="36.0" font-size="20.0" font-family="helvetica"/>
    </g>
    <g>
     <circle stroke="black" stroke-width="0.5" fill="#aaffff" cx="522.0" cy="668.0" r="1.0"/>
     <text stroke="none" x="522.0" y="668.0" font-size="20.0" font-family="helvetica"/>
    </g>
    <g>
     <circle stroke="black" stroke-width="0.5" fill="#aaffff" cx="531.0" cy="52.0" r="1.0"/>
     <text stroke="none" x="531.0" y="52.0" font-size="10.0" font-family="helvetica">NT1.21</text>
    </g>
    <g>
     <circle stroke="black" stroke-width="0.5" fill="#aaffff" cx="546.0" cy="346.0" r="1.0"/>
     <text stroke="none" x="546.0" y="346.0" font-size="20.0" font-family="helvetica">Mucispirillum schaedleri UNSW I29 (AFO59189)</text>
    </g>
    <g>
     <circle stroke="black" stroke-width="0.5" fill="#aaffff" cx="553.0" cy="3.0" r="1.0"/>
     <text stroke="none" x="553.0" y="3.0" font-size="20.0" font-family="helvetica"> Mucispirillum schaedleri UNSW I26 (AY387671)</text>
    </g>
    <g>
     <circle stroke="black" stroke-width="0.5" fill="#aaffff" cx="558.0" cy="111.0" r="1.0"/>
     <text stroke="none" x="558.0" y="111.0" font-size="20.0" font-family="helvetica"/>
    </g>
    <g>
     <circle stroke="black" stroke-width="0.5" fill="#aaffff" cx="561.0" cy="240.0" r="1.0"/>
     <text stroke="none" x="561.0" y="240.0" font-size="20.0" font-family="helvetica">Mucispirillum schaedleri UNSW I30 (AFO59190)</text>
    </g>
    <g>
     <circle stroke="black" stroke-width="0.5" fill="#aaffff" cx="561.0" cy="878.0" r="1.0"/>
     <text stroke="none" x="561.0" y="878.0" font-size="20.0" font-family="helvetica"/>
    </g>
    <g>
     <circle stroke="black" stroke-width="0.5" fill="#aaffff" cx="585.0" cy="559.0" r="1.0"/>
     <text stroke="none" x="585.0" y="559.0" font-size="20.0" font-family="helvetica"/>
    </g>
    <g>
     <circle stroke="black" stroke-width="0.5" fill="#aaffff" cx="691.0" cy="1621.0" r="1.0"/>
     <text stroke="none" x="691.0" y="1621.0" font-size="20.0" font-family="helvetica"/>
    </g>
    <g>
     <circle stroke="black" stroke-width="0.5" fill="#aaffff" cx="829.0" cy="1302.0" r="1.0"/>
     <text stroke="none" x="829.0" y="1302.0" font-size="20.0" font-family="helvetica">Deferribacteres sp. oral clone</text>
    </g>
    <g>
     <circle stroke="black" stroke-width="0.5" fill="#aaffff" cx="847.0" cy="1516.0" r="1.0"/>
     <text stroke="none" x="847.0" y="1516.0" font-size="20.0" font-family="helvetica">Synergistes uncultured</text>
    </g>
    <g>
     <circle stroke="black" stroke-width="0.5" fill="#aaffff" cx="943.0" cy="1410.0" r="1.0"/>
     <text stroke="none" x="943.0" y="1410.0" font-size="20.0" font-family="helvetica">Synergistes C1</text>
    </g>
    <line stroke="black" x1="553.0" y1="3.0" x2="531.0" y2="52.0" stroke-width="0.5"/>
    <line stroke="black" x1="512.0" y1="39.0" x2="531.0" y2="52.0" stroke-width="0.5"/>
    <line stroke="black" x1="531.0" y1="52.0" x2="517.0" y2="36.0" stroke-width="0.5"/>
    <line stroke="black" x1="558.0" y1="111.0" x2="531.0" y2="52.0" stroke-width="0.5"/>
    <line stroke="black" x1="507.0" y1="773.0" x2="444.0" y2="706.0" stroke-width="0.5"/>
    <line stroke="black" x1="585.0" y1="559.0" x2="158.0" y2="637.0" stroke-width="0.5"/>
    <line stroke="black" x1="561.0" y1="878.0" x2="191.0" y2="970.0" stroke-width="0.5"/>
    <line stroke="black" x1="504.0" y1="1197.0" x2="432.0" y2="1145.0" stroke-width="0.5"/>
    <line stroke="black" x1="847.0" y1="1516.0" x2="390.0" y2="1460.0" stroke-width="0.5"/>
    <line stroke="black" x1="531.0" y1="52.0" x2="531.0" y2="52.0" stroke-width="0.5"/>
    <line stroke="black" x1="531.0" y1="52.0" x2="471.0" y2="175.0" stroke-width="0.5"/>
    <line stroke="black" x1="471.0" y1="175.0" x2="217.0" y2="313.0" stroke-width="0.5"/>
    <line stroke="black" x1="471.0" y1="175.0" x2="486.0" y2="293.0" stroke-width="0.5"/>
    <line stroke="black" x1="217.0" y1="313.0" x2="116.0" y2="476.0" stroke-width="0.5"/>
    <line stroke="black" x1="116.0" y1="476.0" x2="39.0" y2="863.0" stroke-width="0.5"/>
    <line stroke="black" x1="116.0" y1="476.0" x2="158.0" y2="637.0" stroke-width="0.5"/>
    <line stroke="black" x1="158.0" y1="637.0" x2="444.0" y2="706.0" stroke-width="0.5"/>
    <line stroke="black" x1="39.0" y1="863.0" x2="191.0" y2="970.0" stroke-width="0.5"/>
    <line stroke="black" x1="39.0" y1="863.0" x2="363.0" y2="1382.0" stroke-width="0.5"/>
    <line stroke="black" x1="191.0" y1="970.0" x2="387.0" y2="1064.0" stroke-width="0.5"/>
    <line stroke="black" x1="387.0" y1="1064.0" x2="432.0" y2="1145.0" stroke-width="0.5"/>
    <line stroke="black" x1="363.0" y1="1382.0" x2="390.0" y2="1460.0" stroke-width="0.5"/>
    <line stroke="black" x1="691.0" y1="1621.0" x2="39.0" y2="863.0" stroke-width="0.5"/>
    <line stroke="black" x1="516.0" y1="454.0" x2="217.0" y2="313.0" stroke-width="0.5"/>
    <line stroke="black" x1="483.0" y1="983.0" x2="387.0" y2="1064.0" stroke-width="0.5"/>
    <line stroke="black" x1="522.0" y1="668.0" x2="444.0" y2="706.0" stroke-width="0.5"/>
    <line stroke="black" x1="486.0" y1="1089.0" x2="432.0" y2="1145.0" stroke-width="0.5"/>
    <line stroke="black" x1="546.0" y1="346.0" x2="486.0" y2="293.0" stroke-width="0.5"/>
    <line stroke="black" x1="561.0" y1="240.0" x2="486.0" y2="293.0" stroke-width="0.5"/>
    <line stroke="black" x1="531.0" y1="52.0" x2="531.0" y2="52.0" stroke-width="0.5"/>
    <line stroke="black" x1="829.0" y1="1302.0" x2="363.0" y2="1382.0" stroke-width="0.5"/>
    <line stroke="black" x1="943.0" y1="1410.0" x2="390.0" y2="1460.0" stroke-width="0.5"/>
   </g>
  </g>
 </svg>
</svg>
