<?xml version="1.0" encoding="UTF-8"?>
<svg height="800.0" width="700.0" xmlns="http://www.w3.org/2000/svg">
 <svg>
  <g>
   <g>
    <g>
     <circle stroke="black" stroke-width="0.5" fill="#aaffff" cx="75.0" cy="451.0" r="1.0"/>
     <text stroke="none" x="75.0" y="451.0" font-size="10.0" font-family="helvetica">NT1.1</text>
    </g>
    <g>
     <circle stroke="black" stroke-width="0.5" fill="#aaffff" cx="147.0" cy="43.0" r="1.0"/>
     <text stroke="none" x="147.0" y="43.0" font-size="10.0" font-family="helvetica">NT1.2</text>
    </g>
    <g>
     <circle stroke="black" stroke-width="0.5" fill="#aaffff" cx="203.0" cy="658.0" r="1.0"/>
     <text stroke="none" x="203.0" y="658.0" font-size="10.0" font-family="helvetica">NT1.3</text>
    </g>
    <g>
     <circle stroke="black" stroke-width="0.5" fill="#aaffff" cx="230.0" cy="675.0" r="1.0"/>
     <text stroke="none" x="230.0" y="675.0" font-size="20.0" font-family="helvetica"/>
    </g>
    <g>
     <circle stroke="black" stroke-width="0.5" fill="#aaffff" cx="234.0" cy="686.0" r="1.0"/>
     <text stroke="none" x="234.0" y="686.0" font-size="20.0" font-family="helvetica"/>
    </g>
    <g>
     <circle stroke="black" stroke-width="0.5" fill="#aaffff" cx="238.0" cy="729.0" r="1.0"/>
     <text stroke="none" x="238.0" y="729.0" font-size="10.0" font-family="helvetica">NT1.6</text>
    </g>
    <g>
     <circle stroke="black" stroke-width="0.5" fill="#aaffff" cx="255.0" cy="244.0" r="1.0"/>
     <text stroke="none" x="255.0" y="244.0" font-size="10.0" font-family="helvetica">NT1.7</text>
    </g>
    <g>
     <circle stroke="black" stroke-width="0.5" fill="#aaffff" cx="276.0" cy="905.0" r="1.0"/>
     <text stroke="none" x="276.0" y="905.0" font-size="10.0" font-family="helvetica">NT1.8</text>
    </g>
    <g>
     <circle stroke="black" stroke-width="0.5" fill="#aaffff" cx="285.0" cy="627.0" r="1.0"/>
     <text stroke="none" x="285.0" y="627.0" font-size="10.0" font-family="helvetica">NT1.9</text>
    </g>
    <g>
     <circle stroke="black" stroke-width="0.5" fill="#aaffff" cx="296.0" cy="361.0" r="1.0"/>
     <text stroke="none" x="296.0" y="361.0" font-size="10.0" font-family="helvetica">NT1.10</text>
    </g>
    <g>
     <circle stroke="black" stroke-width="0.5" fill="#aaffff" cx="308.0" cy="402.0" r="1.0"/>
     <text stroke="none" x="308.0" y="402.0" font-size="10.0" font-family="helvetica">NT1.11</text>
    </g>
    <g>
     <circle stroke="black" stroke-width="0.5" fill="#aaffff" cx="312.0" cy="333.0" r="1.0"/>
     <text stroke="none" x="312.0" y="333.0" font-size="20.0" font-family="helvetica"/>
    </g>
    <g>
     <circle stroke="black" stroke-width="0.5" fill="#aaffff" cx="313.0" cy="343.0" r="1.0"/>
     <text stroke="none" x="313.0" y="343.0" font-size="20.0" font-family="helvetica"/>
    </g>
    <g>
     <circle stroke="black" stroke-width="0.5" fill="#aaffff" cx="315.0" cy="339.0" r="1.0"/>
     <text stroke="none" x="315.0" y="339.0" font-size="20.0" font-family="helvetica"/>
    </g>
    <g>
     <circle stroke="black" stroke-width="0.5" fill="#aaffff" cx="321.0" cy="341.0" r="1.0"/>
     <text stroke="none" x="321.0" y="341.0" font-size="10.0" font-family="helvetica">NT1.15</text>
    </g>
    <g>
     <circle stroke="black" stroke-width="0.5" fill="#aaffff" cx="339.0" cy="166.0" r="1.0"/>
     <text stroke="none" x="339.0" y="166.0" font-size="10.0" font-family="helvetica">NT1.16</text>
    </g>
    <g>
     <circle stroke="black" stroke-width="0.5" fill="#aaffff" cx="349.0" cy="190.0" r="1.0"/>
     <text stroke="none" x="349.0" y="190.0" font-size="10.0" font-family="helvetica">NT1.17</text>
    </g>
    <g>
     <circle stroke="black" stroke-width="0.5" fill="#aaffff" cx="349.0" cy="453.0" r="1.0"/>
     <text stroke="none" x="349.0" y="453.0" font-size="10.0" font-family="helvetica">NT1.18</text>
    </g>
    <g>
     <circle stroke="black" stroke-width="0.5" fill="#aaffff" cx="353.0" cy="428.0" r="1.0"/>
     <text stroke="none" x="353.0" y="428.0" font-size="20.0" font-family="helvetica"/>
    </g>
    <g>
     <circle stroke="black" stroke-width="0.5" fill="#aaffff" cx="359.0" cy="481.0" r="1.0"/>
     <text stroke="none" x="359.0" y="481.0" font-size="20.0" font-family="helvetica">Caminibucter sp. strain TBVI (AY691429)</text>
    </g>
    <g>
     <circle stroke="black" stroke-width="0.5" fill="#aaffff" cx="361.0" cy="534.0" r="1.0"/>
     <text stroke="none" x="361.0" y="534.0" font-size="20.0" font-family="helvetica">Hydrogenimonas thermophila JCM 11971T (AB105048)</text>
    </g>
    <g>
     <circle stroke="black" stroke-width="0.5" fill="#aaffff" cx="363.0" cy="270.0" r="1.0"/>
     <text stroke="none" x="363.0" y="270.0" font-size="20.0" font-family="helvetica">Caminibucter prajimdus DSM 150l6T (AJ535664)</text>
    </g>
    <g>
     <circle stroke="black" stroke-width="0.5" fill="#aaffff" cx="369.0" cy="111.0" r="1.0"/>
     <text stroke="none" x="369.0" y="111.0" font-size="20.0" font-family="helvetica">Hydrothermal vent strain Am-H (AF357197)</text>
    </g>
    <g>
     <circle stroke="black" stroke-width="0.5" fill="#aaffff" cx="371.0" cy="59.0" r="1.0"/>
     <text stroke="none" x="371.0" y="59.0" font-size="20.0" font-family="helvetica">Pseudonzonas aeruginosa ATCC 25330' (M34133)</text>
    </g>
    <g>
     <circle stroke="black" stroke-width="0.5" fill="#aaffff" cx="377.0" cy="217.0" r="1.0"/>
     <text stroke="none" x="377.0" y="217.0" font-size="20.0" font-family="helvetica">Hydrothermal Vent strain I8.2 (AF357I96)</text>
    </g>
    <g>
     <circle stroke="black" stroke-width="0.5" fill="#aaffff" cx="382.0" cy="323.0" r="1.0"/>
     <text stroke="none" x="382.0" y="323.0" font-size="20.0" font-family="helvetica">Caminibacter hydrageniphilus DSM 145107 (AJ309655)</text>
    </g>
    <g>
     <circle stroke="black" stroke-width="0.5" fill="#aaffff" cx="393.0" cy="942.0" r="1.0"/>
     <text stroke="none" x="393.0" y="942.0" font-size="10.0" font-family="helvetica">NT1.27</text>
    </g>
    <g>
     <circle stroke="black" stroke-width="0.5" fill="#aaffff" cx="394.0" cy="165.0" r="1.0"/>
     <text stroke="none" x="394.0" y="165.0" font-size="20.0" font-family="helvetica">Nautilia lithotrophica DSM 13520T (AJ404370)</text>
    </g>
    <g>
     <circle stroke="black" stroke-width="0.5" fill="#aaffff" cx="402.0" cy="375.0" r="1.0"/>
     <text stroke="none" x="402.0" y="375.0" font-size="20.0" font-family="helvetica">Hydrothermal vent strain AM1115 (AJ309654)</text>
    </g>
    <g>
     <circle stroke="black" stroke-width="0.5" fill="#aaffff" cx="428.0" cy="825.0" r="1.0"/>
     <text stroke="none" x="428.0" y="825.0" font-size="10.0" font-family="helvetica">NT1.30</text>
    </g>
    <g>
     <circle stroke="black" stroke-width="0.5" fill="#aaffff" cx="429.0" cy="6.0" r="1.0"/>
     <text stroke="none" x="429.0" y="6.0" font-size="20.0" font-family="helvetica">Escherichia Cali strain rrrnBr (.I()l695)</text>
    </g>
    <g>
     <circle stroke="black" stroke-width="0.5" fill="#aaffff" cx="429.0" cy="981.0" r="1.0"/>
     <text stroke="none" x="429.0" y="981.0" font-size="10.0" font-family="helvetica">NT1.32</text>
    </g>
    <g>
     <circle stroke="black" stroke-width="0.5" fill="#aaffff" cx="430.0" cy="586.0" r="1.0"/>
     <text stroke="none" x="430.0" y="586.0" font-size="20.0" font-family="helvetica">Sulfurospirillum arcachonense DSM 9755T (YI I56 I)</text>
    </g>
    <g>
     <circle stroke="black" stroke-width="0.5" fill="#aaffff" cx="434.0" cy="675.0" r="1.0"/>
     <text stroke="none" x="434.0" y="675.0" font-size="10.0" font-family="helvetica">NT1.34</text>
    </g>
    <g>
     <circle stroke="black" stroke-width="0.5" fill="#aaffff" cx="448.0" cy="692.0" r="1.0"/>
     <text stroke="none" x="448.0" y="692.0" font-size="20.0" font-family="helvetica">Sulfurospirillum deleyianum DSM 69467 (Y1367l)</text>
    </g>
    <g>
     <circle stroke="black" stroke-width="0.5" fill="#aaffff" cx="486.0" cy="640.0" r="1.0"/>
     <text stroke="none" x="486.0" y="640.0" font-size="20.0" font-family="helvetica">Sulfurospirillum barnesii SES-3T (AF038843)</text>
    </g>
    <g>
     <circle stroke="black" stroke-width="0.5" fill="#aaffff" cx="489.0" cy="744.0" r="1.0"/>
     <text stroke="none" x="489.0" y="744.0" font-size="20.0" font-family="helvetica">Campylobacter jgjuni subsp. doylei SSI 5384798 (Y19244)</text>
    </g>
    <g>
     <circle stroke="black" stroke-width="0.5" fill="#aaffff" cx="507.0" cy="904.0" r="1.0"/>
     <text stroke="none" x="507.0" y="904.0" font-size="20.0" font-family="helvetica">Wolinella succinigenes Ser-1 (AF273252)</text>
    </g>
    <g>
     <circle stroke="black" stroke-width="0.5" fill="#aaffff" cx="511.0" cy="850.0" r="1.0"/>
     <text stroke="none" x="511.0" y="850.0" font-size="20.0" font-family="helvetica">Sulfurimonas au10tr0phicaJCM 1897T (AB08843 1)</text>
    </g>
    <g>
     <circle stroke="black" stroke-width="0.5" fill="#aaffff" cx="531.0" cy="956.0" r="1.0"/>
     <text stroke="none" x="531.0" y="956.0" font-size="20.0" font-family="helvetica">Helicabucter hepozticux ATCC 51449T (AJ007931)</text>
    </g>
    <g>
     <circle stroke="black" stroke-width="0.5" fill="#aaffff" cx="538.0" cy="798.0" r="1.0"/>
     <text stroke="none" x="538.0" y="798.0" font-size="20.0" font-family="helvetica">Thiomicrospira denimjicans DSM l251T (L40808)</text>
    </g>
    <g>
     <circle stroke="black" stroke-width="0.5" fill="#aaffff" cx="538.0" cy="1010.0" r="1.0"/>
     <text stroke="none" x="538.0" y="1010.0" font-size="20.0" font-family="helvetica">Helicubacter pylori MC 123 (U01328)</text>
    </g>
    <line stroke="black" x1="371.0" y1="59.0" x2="147.0" y2="43.0" stroke-width="0.5"/>
    <line stroke="black" x1="234.0" y1="686.0" x2="238.0" y2="729.0" stroke-width="0.5"/>
    <line stroke="black" x1="377.0" y1="217.0" x2="349.0" y2="190.0" stroke-width="0.5"/>
    <line stroke="black" x1="313.0" y1="343.0" x2="321.0" y2="341.0" stroke-width="0.5"/>
    <line stroke="black" x1="315.0" y1="339.0" x2="321.0" y2="341.0" stroke-width="0.5"/>
    <line stroke="black" x1="312.0" y1="333.0" x2="321.0" y2="341.0" stroke-width="0.5"/>
    <line stroke="black" x1="353.0" y1="428.0" x2="349.0" y2="453.0" stroke-width="0.5"/>
    <line stroke="black" x1="359.0" y1="481.0" x2="349.0" y2="453.0" stroke-width="0.5"/>
    <line stroke="black" x1="382.0" y1="323.0" x2="321.0" y2="341.0" stroke-width="0.5"/>
    <line stroke="black" x1="402.0" y1="375.0" x2="321.0" y2="341.0" stroke-width="0.5"/>
    <line stroke="black" x1="511.0" y1="850.0" x2="428.0" y2="825.0" stroke-width="0.5"/>
    <line stroke="black" x1="507.0" y1="904.0" x2="393.0" y2="942.0" stroke-width="0.5"/>
    <line stroke="black" x1="531.0" y1="956.0" x2="429.0" y2="981.0" stroke-width="0.5"/>
    <line stroke="black" x1="538.0" y1="1010.0" x2="429.0" y2="981.0" stroke-width="0.5"/>
    <line stroke="black" x1="75.0" y1="451.0" x2="203.0" y2="658.0" stroke-width="0.5"/>
    <line stroke="black" x1="75.0" y1="451.0" x2="255.0" y2="244.0" stroke-width="0.5"/>
    <line stroke="black" x1="203.0" y1="658.0" x2="238.0" y2="729.0" stroke-width="0.5"/>
    <line stroke="black" x1="255.0" y1="244.0" x2="296.0" y2="361.0" stroke-width="0.5"/>
    <line stroke="black" x1="255.0" y1="244.0" x2="339.0" y2="166.0" stroke-width="0.5"/>
    <line stroke="black" x1="238.0" y1="729.0" x2="276.0" y2="905.0" stroke-width="0.5"/>
    <line stroke="black" x1="238.0" y1="729.0" x2="285.0" y2="627.0" stroke-width="0.5"/>
    <line stroke="black" x1="296.0" y1="361.0" x2="308.0" y2="402.0" stroke-width="0.5"/>
    <line stroke="black" x1="339.0" y1="166.0" x2="349.0" y2="190.0" stroke-width="0.5"/>
    <line stroke="black" x1="308.0" y1="402.0" x2="349.0" y2="453.0" stroke-width="0.5"/>
    <line stroke="black" x1="308.0" y1="402.0" x2="321.0" y2="341.0" stroke-width="0.5"/>
    <line stroke="black" x1="276.0" y1="905.0" x2="428.0" y2="825.0" stroke-width="0.5"/>
    <line stroke="black" x1="276.0" y1="905.0" x2="393.0" y2="942.0" stroke-width="0.5"/>
    <line stroke="black" x1="285.0" y1="627.0" x2="434.0" y2="675.0" stroke-width="0.5"/>
    <line stroke="black" x1="393.0" y1="942.0" x2="429.0" y2="981.0" stroke-width="0.5"/>
    <line stroke="black" x1="147.0" y1="43.0" x2="75.0" y2="451.0" stroke-width="0.5"/>
    <line stroke="black" x1="429.0" y1="6.0" x2="147.0" y2="43.0" stroke-width="0.5"/>
    <line stroke="black" x1="230.0" y1="675.0" x2="238.0" y2="729.0" stroke-width="0.5"/>
    <line stroke="black" x1="361.0" y1="534.0" x2="203.0" y2="658.0" stroke-width="0.5"/>
    <line stroke="black" x1="363.0" y1="270.0" x2="296.0" y2="361.0" stroke-width="0.5"/>
    <line stroke="black" x1="489.0" y1="744.0" x2="238.0" y2="729.0" stroke-width="0.5"/>
    <line stroke="black" x1="369.0" y1="111.0" x2="339.0" y2="166.0" stroke-width="0.5"/>
    <line stroke="black" x1="430.0" y1="586.0" x2="285.0" y2="627.0" stroke-width="0.5"/>
    <line stroke="black" x1="394.0" y1="165.0" x2="349.0" y2="190.0" stroke-width="0.5"/>
    <line stroke="black" x1="448.0" y1="692.0" x2="434.0" y2="675.0" stroke-width="0.5"/>
    <line stroke="black" x1="486.0" y1="640.0" x2="434.0" y2="675.0" stroke-width="0.5"/>
    <line stroke="black" x1="538.0" y1="798.0" x2="428.0" y2="825.0" stroke-width="0.5"/>
   </g>
  </g>
 </svg>
</svg>
