<?xml version="1.0" encoding="UTF-8"?>
<svg height="800.0" width="700.0" xmlns="http://www.w3.org/2000/svg">
 <svg>
  <g>
   <g>
    <g>
     <circle stroke="black" stroke-width="0.5" fill="#aaffff" cx="325.0" cy="488.0" r="1.0"/>
     <text stroke="none" x="325.0" y="488.0" font-size="10.0" font-family="helvetica">NT1.1</text>
    </g>
    <g>
     <circle stroke="black" stroke-width="0.5" fill="#aaffff" cx="429.0" cy="219.0" r="1.0"/>
     <text stroke="none" x="429.0" y="219.0" font-size="20.0" font-family="helvetica">99</text>
    </g>
    <g>
     <circle stroke="black" stroke-width="0.5" fill="#aaffff" cx="473.0" cy="317.0" r="1.0"/>
     <text stroke="none" x="473.0" y="317.0" font-size="20.0" font-family="helvetica">73</text>
    </g>
    <g>
     <circle stroke="black" stroke-width="0.5" fill="#aaffff" cx="481.0" cy="762.0" r="1.0"/>
     <text stroke="none" x="481.0" y="762.0" font-size="10.0" font-family="helvetica">NT1.4</text>
    </g>
    <g>
     <circle stroke="black" stroke-width="0.5" fill="#aaffff" cx="499.0" cy="417.0" r="1.0"/>
     <text stroke="none" x="499.0" y="417.0" font-size="20.0" font-family="helvetica">71</text>
    </g>
    <g>
     <circle stroke="black" stroke-width="0.5" fill="#aaffff" cx="503.0" cy="117.0" r="1.0"/>
     <text stroke="none" x="503.0" y="117.0" font-size="20.0" font-family="helvetica">34</text>
    </g>
    <g>
     <circle stroke="black" stroke-width="0.5" fill="#aaffff" cx="511.0" cy="519.0" r="1.0"/>
     <text stroke="none" x="511.0" y="519.0" font-size="10.0" font-family="helvetica">NT1.7</text>
    </g>
    <g>
     <circle stroke="black" stroke-width="0.5" fill="#aaffff" cx="513.0" cy="835.0" r="1.0"/>
     <text stroke="none" x="513.0" y="835.0" font-size="10.0" font-family="helvetica">NT1.8</text>
    </g>
    <g>
     <circle stroke="black" stroke-width="0.5" fill="#aaffff" cx="523.0" cy="915.0" r="1.0"/>
     <text stroke="none" x="523.0" y="915.0" font-size="10.0" font-family="helvetica">NT1.9</text>
    </g>
    <g>
     <circle stroke="black" stroke-width="0.5" fill="#aaffff" cx="529.0" cy="988.0" r="1.0"/>
     <text stroke="none" x="529.0" y="988.0" font-size="20.0" font-family="helvetica"/>
    </g>
    <g>
     <circle stroke="black" stroke-width="0.5" fill="#aaffff" cx="530.0" cy="970.0" r="1.0"/>
     <text stroke="none" x="530.0" y="970.0" font-size="20.0" font-family="helvetica">9</text>
    </g>
    <g>
     <circle stroke="black" stroke-width="0.5" fill="#aaffff" cx="560.0" cy="1004.0" r="1.0"/>
     <text stroke="none" x="560.0" y="1004.0" font-size="20.0" font-family="helvetica">9</text>
    </g>
    <g>
     <circle stroke="black" stroke-width="0.5" fill="#aaffff" cx="565.0" cy="959.0" r="1.0"/>
     <text stroke="none" x="565.0" y="959.0" font-size="20.0" font-family="helvetica">9</text>
    </g>
    <g>
     <circle stroke="black" stroke-width="0.5" fill="#aaffff" cx="569.0" cy="456.0" r="1.0"/>
     <text stroke="none" x="569.0" y="456.0" font-size="10.0" font-family="helvetica">NT1.14</text>
    </g>
    <g>
     <circle stroke="black" stroke-width="0.5" fill="#aaffff" cx="585.0" cy="588.0" r="1.0"/>
     <text stroke="none" x="585.0" y="588.0" font-size="20.0" font-family="helvetica">90</text>
    </g>
    <g>
     <circle stroke="black" stroke-width="0.5" fill="#aaffff" cx="637.0" cy="150.0" r="1.0"/>
     <text stroke="none" x="637.0" y="150.0" font-size="20.0" font-family="helvetica">Rhodovulum strictum DSM 112897 (D16419)</text>
    </g>
    <g>
     <circle stroke="black" stroke-width="0.5" fill="#aaffff" cx="650.0" cy="318.0" r="1.0"/>
     <text stroke="none" x="650.0" y="318.0" font-size="20.0" font-family="helvetica">100</text>
    </g>
    <g>
     <circle stroke="black" stroke-width="0.5" fill="#aaffff" cx="676.0" cy="1055.0" r="1.0"/>
     <text stroke="none" x="676.0" y="1055.0" font-size="20.0" font-family="helvetica">100</text>
    </g>
    <g>
     <circle stroke="black" stroke-width="0.5" fill="#aaffff" cx="687.0" cy="84.0" r="1.0"/>
     <text stroke="none" x="687.0" y="84.0" font-size="20.0" font-family="helvetica">Rhodovulum euryhalinum DSM 48687 (D16426)</text>
    </g>
    <g>
     <circle stroke="black" stroke-width="0.5" fill="#aaffff" cx="692.0" cy="218.0" r="1.0"/>
     <text stroke="none" x="692.0" y="218.0" font-size="20.0" font-family="helvetica">Rhodovulum marinum ATCC BAA-12157 (AJ891122)</text>
    </g>
    <g>
     <circle stroke="black" stroke-width="0.5" fill="#aaffff" cx="717.0" cy="353.0" r="1.0"/>
     <text stroke="none" x="717.0" y="353.0" font-size="20.0" font-family="helvetica">Rhodovulum sulfidophilum DSM 13747 (D16423)</text>
    </g>
    <g>
     <circle stroke="black" stroke-width="0.5" fill="#aaffff" cx="723.0" cy="1143.0" r="1.0"/>
     <text stroke="none" x="723.0" y="1143.0" font-size="20.0" font-family="helvetica">83</text>
    </g>
    <g>
     <circle stroke="black" stroke-width="0.5" fill="#aaffff" cx="731.0" cy="757.0" r="1.0"/>
     <text stroke="none" x="731.0" y="757.0" font-size="20.0" font-family="helvetica">Rhodobacter veIdkampiiATCC 357o3T (D16421)</text>
    </g>
    <g>
     <circle stroke="black" stroke-width="0.5" fill="#aaffff" cx="744.0" cy="1193.0" r="1.0"/>
     <text stroke="none" x="744.0" y="1193.0" font-size="10.0" font-family="helvetica">NT1.24</text>
    </g>
    <g>
     <circle stroke="black" stroke-width="0.5" fill="#aaffff" cx="751.0" cy="488.0" r="1.0"/>
     <text stroke="none" x="751.0" y="488.0" font-size="20.0" font-family="helvetica">Rhodovulum iodosum DSM 123287 (Y15011)</text>
    </g>
    <g>
     <circle stroke="black" stroke-width="0.5" fill="#aaffff" cx="775.0" cy="825.0" r="1.0"/>
     <text stroke="none" x="775.0" y="825.0" font-size="20.0" font-family="helvetica">Rhodobacter vinaykumarii DSM 187147 (AM4081 17)</text>
    </g>
    <g>
     <circle stroke="black" stroke-width="0.5" fill="#aaffff" cx="786.0" cy="622.0" r="1.0"/>
     <text stroke="none" x="786.0" y="622.0" font-size="20.0" font-family="helvetica">Rhodovulum adriaticum DSM 27817 (D16418)</text>
    </g>
    <g>
     <circle stroke="black" stroke-width="0.5" fill="#aaffff" cx="788.0" cy="284.0" r="1.0"/>
     <text stroke="none" x="788.0" y="284.0" font-size="20.0" font-family="helvetica">Rhodovulum visakhapatnamense DSM 179377 (AM180707)</text>
    </g>
    <g>
     <circle stroke="black" stroke-width="0.5" fill="#aaffff" cx="797.0" cy="15.0" r="1.0"/>
     <text stroke="none" x="797.0" y="15.0" font-size="20.0" font-family="helvetica">Rhodospirillum rubrum ATCC 111707 (D30778)</text>
    </g>
    <g>
     <circle stroke="black" stroke-width="0.5" fill="#aaffff" cx="804.0" cy="419.0" r="1.0"/>
     <text stroke="none" x="804.0" y="419.0" font-size="20.0" font-family="helvetica">Rhodovulum imhoffii DSM 180647 (AM180953)</text>
    </g>
    <g>
     <circle stroke="black" stroke-width="0.5" fill="#aaffff" cx="816.0" cy="959.0" r="1.0"/>
     <text stroke="none" x="816.0" y="959.0" font-size="20.0" font-family="helvetica">Rhodobacter capsulatus ATCC 1 1 1667 (D16428)</text>
    </g>
    <g>
     <circle stroke="black" stroke-width="0.5" fill="#aaffff" cx="839.0" cy="1094.0" r="1.0"/>
     <text stroke="none" x="839.0" y="1094.0" font-size="20.0" font-family="helvetica">Rhodobacter sphaeroides ATCC 170237 (X53855)</text>
    </g>
    <g>
     <circle stroke="black" stroke-width="0.5" fill="#aaffff" cx="840.0" cy="1228.0" r="1.0"/>
     <text stroke="none" x="840.0" y="1228.0" font-size="20.0" font-family="helvetica">Rhodobacter azotoformans JCM 93407 (D70846)</text>
    </g>
    <g>
     <circle stroke="black" stroke-width="0.5" fill="#aaffff" cx="847.0" cy="554.0" r="1.0"/>
     <text stroke="none" x="847.0" y="554.0" font-size="20.0" font-family="helvetica">Rhodovulum robiginosum DSM 123297 (Y15012)</text>
    </g>
    <g>
     <circle stroke="black" stroke-width="0.5" fill="#aaffff" cx="857.0" cy="891.0" r="1.0"/>
     <text stroke="none" x="857.0" y="891.0" font-size="20.0" font-family="helvetica">Rhodobacter blasticus ATCC 334857 (D16429)</text>
    </g>
    <g>
     <circle stroke="black" stroke-width="0.5" fill="#aaffff" cx="882.0" cy="690.0" r="1.0"/>
     <text stroke="none" x="882.0" y="690.0" font-size="20.0" font-family="helvetica">Rhodobaca bogoriensis ATCC 7009207 (AF248638)</text>
    </g>
    <g>
     <circle stroke="black" stroke-width="0.5" fill="#aaffff" cx="917.0" cy="1160.0" r="1.0"/>
     <text stroke="none" x="917.0" y="1160.0" font-size="20.0" font-family="helvetica">Rhodobacter ovatus Sp. nov. JA2347 (AM690348)</text>
    </g>
    <g>
     <circle stroke="black" stroke-width="0.5" fill="#aaffff" cx="991.0" cy="1025.0" r="1.0"/>
     <text stroke="none" x="991.0" y="1025.0" font-size="20.0" font-family="helvetica">Rhodobacter changlensis DSM 187747 (AM399030)</text>
    </g>
    <line stroke="black" x1="529.0" y1="988.0" x2="530.0" y2="970.0" stroke-width="0.5"/>
    <line stroke="black" x1="731.0" y1="757.0" x2="513.0" y2="835.0" stroke-width="0.5"/>
    <line stroke="black" x1="692.0" y1="218.0" x2="473.0" y2="317.0" stroke-width="0.5"/>
    <line stroke="black" x1="775.0" y1="825.0" x2="523.0" y2="915.0" stroke-width="0.5"/>
    <line stroke="black" x1="816.0" y1="959.0" x2="565.0" y2="959.0" stroke-width="0.5"/>
    <line stroke="black" x1="751.0" y1="488.0" x2="569.0" y2="456.0" stroke-width="0.5"/>
    <line stroke="black" x1="857.0" y1="891.0" x2="565.0" y2="959.0" stroke-width="0.5"/>
    <line stroke="black" x1="917.0" y1="1160.0" x2="744.0" y2="1193.0" stroke-width="0.5"/>
    <line stroke="black" x1="991.0" y1="1025.0" x2="676.0" y2="1055.0" stroke-width="0.5"/>
    <line stroke="black" x1="325.0" y1="488.0" x2="481.0" y2="762.0" stroke-width="0.5"/>
    <line stroke="black" x1="325.0" y1="488.0" x2="429.0" y2="219.0" stroke-width="0.5"/>
    <line stroke="black" x1="429.0" y1="219.0" x2="473.0" y2="317.0" stroke-width="0.5"/>
    <line stroke="black" x1="429.0" y1="219.0" x2="503.0" y2="117.0" stroke-width="0.5"/>
    <line stroke="black" x1="481.0" y1="762.0" x2="513.0" y2="835.0" stroke-width="0.5"/>
    <line stroke="black" x1="473.0" y1="317.0" x2="499.0" y2="417.0" stroke-width="0.5"/>
    <line stroke="black" x1="513.0" y1="835.0" x2="523.0" y2="915.0" stroke-width="0.5"/>
    <line stroke="black" x1="523.0" y1="915.0" x2="530.0" y2="970.0" stroke-width="0.5"/>
    <line stroke="black" x1="499.0" y1="417.0" x2="511.0" y2="519.0" stroke-width="0.5"/>
    <line stroke="black" x1="499.0" y1="417.0" x2="650.0" y2="318.0" stroke-width="0.5"/>
    <line stroke="black" x1="530.0" y1="970.0" x2="560.0" y2="1004.0" stroke-width="0.5"/>
    <line stroke="black" x1="560.0" y1="1004.0" x2="676.0" y2="1055.0" stroke-width="0.5"/>
    <line stroke="black" x1="560.0" y1="1004.0" x2="565.0" y2="959.0" stroke-width="0.5"/>
    <line stroke="black" x1="511.0" y1="519.0" x2="585.0" y2="588.0" stroke-width="0.5"/>
    <line stroke="black" x1="511.0" y1="519.0" x2="569.0" y2="456.0" stroke-width="0.5"/>
    <line stroke="black" x1="676.0" y1="1055.0" x2="723.0" y2="1143.0" stroke-width="0.5"/>
    <line stroke="black" x1="723.0" y1="1143.0" x2="744.0" y2="1193.0" stroke-width="0.5"/>
    <line stroke="black" x1="797.0" y1="15.0" x2="325.0" y2="488.0" stroke-width="0.5"/>
    <line stroke="black" x1="637.0" y1="150.0" x2="503.0" y2="117.0" stroke-width="0.5"/>
    <line stroke="black" x1="687.0" y1="84.0" x2="503.0" y2="117.0" stroke-width="0.5"/>
    <line stroke="black" x1="882.0" y1="690.0" x2="481.0" y2="762.0" stroke-width="0.5"/>
    <line stroke="black" x1="804.0" y1="419.0" x2="569.0" y2="456.0" stroke-width="0.5"/>
    <line stroke="black" x1="786.0" y1="622.0" x2="585.0" y2="588.0" stroke-width="0.5"/>
    <line stroke="black" x1="847.0" y1="554.0" x2="585.0" y2="588.0" stroke-width="0.5"/>
    <line stroke="black" x1="717.0" y1="353.0" x2="650.0" y2="318.0" stroke-width="0.5"/>
    <line stroke="black" x1="788.0" y1="284.0" x2="650.0" y2="318.0" stroke-width="0.5"/>
    <line stroke="black" x1="839.0" y1="1094.0" x2="723.0" y2="1143.0" stroke-width="0.5"/>
    <line stroke="black" x1="840.0" y1="1228.0" x2="744.0" y2="1193.0" stroke-width="0.5"/>
   </g>
  </g>
 </svg>
</svg>
