<?xml version="1.0" encoding="UTF-8"?>
<svg height="800.0" width="700.0" xmlns="http://www.w3.org/2000/svg">
 <svg>
  <g>
   <g>
    <g>
     <circle stroke="black" stroke-width="0.5" fill="#aaffff" cx="35.0" cy="628.0" r="1.0"/>
     <text stroke="none" x="35.0" y="628.0" font-size="10.0" font-family="helvetica">NT1.1</text>
    </g>
    <g>
     <circle stroke="black" stroke-width="0.5" fill="#aaffff" cx="96.0" cy="763.0" r="1.0"/>
     <text stroke="none" x="96.0" y="763.0" font-size="10.0" font-family="helvetica">NT1.2</text>
    </g>
    <g>
     <circle stroke="black" stroke-width="0.5" fill="#aaffff" cx="127.0" cy="492.0" r="1.0"/>
     <text stroke="none" x="127.0" y="492.0" font-size="20.0" font-family="helvetica">76</text>
    </g>
    <g>
     <circle stroke="black" stroke-width="0.5" fill="#aaffff" cx="148.0" cy="390.0" r="1.0"/>
     <text stroke="none" x="148.0" y="390.0" font-size="20.0" font-family="helvetica">55</text>
    </g>
    <g>
     <circle stroke="black" stroke-width="0.5" fill="#aaffff" cx="169.0" cy="271.0" r="1.0"/>
     <text stroke="none" x="169.0" y="271.0" font-size="20.0" font-family="helvetica">50</text>
    </g>
    <g>
     <circle stroke="black" stroke-width="0.5" fill="#aaffff" cx="172.0" cy="507.0" r="1.0"/>
     <text stroke="none" x="172.0" y="507.0" font-size="20.0" font-family="helvetica">76</text>
    </g>
    <g>
     <circle stroke="black" stroke-width="0.5" fill="#aaffff" cx="191.0" cy="386.0" r="1.0"/>
     <text stroke="none" x="191.0" y="386.0" font-size="10.0" font-family="helvetica">NT1.7</text>
    </g>
    <g>
     <circle stroke="black" stroke-width="0.5" fill="#aaffff" cx="204.0" cy="156.0" r="1.0"/>
     <text stroke="none" x="204.0" y="156.0" font-size="10.0" font-family="helvetica">NT1.8</text>
    </g>
    <g>
     <circle stroke="black" stroke-width="0.5" fill="#aaffff" cx="212.0" cy="838.0" r="1.0"/>
     <text stroke="none" x="212.0" y="838.0" font-size="10.0" font-family="helvetica">NT1.9</text>
    </g>
    <g>
     <circle stroke="black" stroke-width="0.5" fill="#aaffff" cx="219.0" cy="412.0" r="1.0"/>
     <text stroke="none" x="219.0" y="412.0" font-size="20.0" font-family="helvetica">70P</text>
    </g>
    <g>
     <circle stroke="black" stroke-width="0.5" fill="#aaffff" cx="226.0" cy="80.0" r="1.0"/>
     <text stroke="none" x="226.0" y="80.0" font-size="20.0" font-family="helvetica">657</text>
    </g>
    <g>
     <circle stroke="black" stroke-width="0.5" fill="#aaffff" cx="238.0" cy="230.0" r="1.0"/>
     <text stroke="none" x="238.0" y="230.0" font-size="10.0" font-family="helvetica">NT1.12</text>
    </g>
    <g>
     <circle stroke="black" stroke-width="0.5" fill="#aaffff" cx="268.0" cy="273.0" r="1.0"/>
     <text stroke="none" x="268.0" y="273.0" font-size="10.0" font-family="helvetica">NT1.13</text>
    </g>
    <g>
     <circle stroke="black" stroke-width="0.5" fill="#aaffff" cx="286.0" cy="33.0" r="1.0"/>
     <text stroke="none" x="286.0" y="33.0" font-size="20.0" font-family="helvetica">985</text>
    </g>
    <g>
     <circle stroke="black" stroke-width="0.5" fill="#aaffff" cx="296.0" cy="309.0" r="1.0"/>
     <text stroke="none" x="296.0" y="309.0" font-size="10.0" font-family="helvetica">NT1.15</text>
    </g>
    <g>
     <circle stroke="black" stroke-width="0.5" fill="#aaffff" cx="298.0" cy="482.0" r="1.0"/>
     <text stroke="none" x="298.0" y="482.0" font-size="10.0" font-family="helvetica">NT1.16</text>
    </g>
    <g>
     <circle stroke="black" stroke-width="0.5" fill="#aaffff" cx="301.0" cy="905.0" r="1.0"/>
     <text stroke="none" x="301.0" y="905.0" font-size="10.0" font-family="helvetica">NT1.17</text>
    </g>
    <g>
     <circle stroke="black" stroke-width="0.5" fill="#aaffff" cx="309.0" cy="772.0" r="1.0"/>
     <text stroke="none" x="309.0" y="772.0" font-size="10.0" font-family="helvetica">NT1.18</text>
    </g>
    <g>
     <circle stroke="black" stroke-width="0.5" fill="#aaffff" cx="315.0" cy="593.0" r="1.0"/>
     <text stroke="none" x="315.0" y="593.0" font-size="10.0" font-family="helvetica">NT1.19</text>
    </g>
    <g>
     <circle stroke="black" stroke-width="0.5" fill="#aaffff" cx="320.0" cy="127.0" r="1.0"/>
     <text stroke="none" x="320.0" y="127.0" font-size="10.0" font-family="helvetica">NT1.20</text>
    </g>
    <g>
     <circle stroke="black" stroke-width="0.5" fill="#aaffff" cx="333.0" cy="741.0" r="1.0"/>
     <text stroke="none" x="333.0" y="741.0" font-size="20.0" font-family="helvetica">Saccharococcus thermophilus ATCC 431257 (X70430)</text>
    </g>
    <g>
     <circle stroke="black" stroke-width="0.5" fill="#aaffff" cx="345.0" cy="801.0" r="1.0"/>
     <text stroke="none" x="345.0" y="801.0" font-size="10.0" font-family="helvetica">NT1.22</text>
    </g>
    <g>
     <circle stroke="black" stroke-width="0.5" fill="#aaffff" cx="352.0" cy="880.0" r="1.0"/>
     <text stroke="none" x="352.0" y="880.0" font-size="20.0" font-family="helvetica">Anoxybacillus voinovskiensis TH137 (AB110008)</text>
    </g>
    <g>
     <circle stroke="black" stroke-width="0.5" fill="#aaffff" cx="355.0" cy="690.0" r="1.0"/>
     <text stroke="none" x="355.0" y="690.0" font-size="10.0" font-family="helvetica">NT1.24</text>
    </g>
    <g>
     <circle stroke="black" stroke-width="0.5" fill="#aaffff" cx="361.0" cy="240.0" r="1.0"/>
     <text stroke="none" x="361.0" y="240.0" font-size="10.0" font-family="helvetica">NT1.25</text>
    </g>
    <g>
     <circle stroke="black" stroke-width="0.5" fill="#aaffff" cx="364.0" cy="534.0" r="1.0"/>
     <text stroke="none" x="364.0" y="534.0" font-size="20.0" font-family="helvetica"> Salirhabdus euzebyi CVS147 (AM292417)</text>
    </g>
    <g>
     <circle stroke="black" stroke-width="0.5" fill="#aaffff" cx="373.0" cy="499.0" r="1.0"/>
     <text stroke="none" x="373.0" y="499.0" font-size="20.0" font-family="helvetica">Salinibacillus aidingensis 25-77 (AY321436)</text>
    </g>
    <g>
     <circle stroke="black" stroke-width="0.5" fill="#aaffff" cx="382.0" cy="464.0" r="1.0"/>
     <text stroke="none" x="382.0" y="464.0" font-size="10.0" font-family="helvetica">NT1.28</text>
    </g>
    <g>
     <circle stroke="black" stroke-width="0.5" fill="#aaffff" cx="385.0" cy="430.0" r="1.0"/>
     <text stroke="none" x="385.0" y="430.0" font-size="20.0" font-family="helvetica">Ornithinibacillus californiensis MB-97 (AF326365)</text>
    </g>
    <g>
     <circle stroke="black" stroke-width="0.5" fill="#aaffff" cx="390.0" cy="620.0" r="1.0"/>
     <text stroke="none" x="390.0" y="620.0" font-size="20.0" font-family="helvetica">99'</text>
    </g>
    <g>
     <circle stroke="black" stroke-width="0.5" fill="#aaffff" cx="407.0" cy="395.0" r="1.0"/>
     <text stroke="none" x="407.0" y="395.0" font-size="10.0" font-family="helvetica">NT1.31</text>
    </g>
    <g>
     <circle stroke="black" stroke-width="0.5" fill="#aaffff" cx="409.0" cy="672.0" r="1.0"/>
     <text stroke="none" x="409.0" y="672.0" font-size="10.0" font-family="helvetica">NT1.32</text>
    </g>
    <g>
     <circle stroke="black" stroke-width="0.5" fill="#aaffff" cx="411.0" cy="707.0" r="1.0"/>
     <text stroke="none" x="411.0" y="707.0" font-size="20.0" font-family="helvetica"> Planococcus maritimus TF-97 (AF500007)</text>
    </g>
    <g>
     <circle stroke="black" stroke-width="0.5" fill="#aaffff" cx="412.0" cy="326.0" r="1.0"/>
     <text stroke="none" x="412.0" y="326.0" font-size="10.0" font-family="helvetica">NT1.34</text>
    </g>
    <g>
     <circle stroke="black" stroke-width="0.5" fill="#aaffff" cx="418.0" cy="257.0" r="1.0"/>
     <text stroke="none" x="418.0" y="257.0" font-size="20.0" font-family="helvetica">Virgibacillus pantothenticus NCDO 17657 (D78477)</text>
    </g>
    <g>
     <circle stroke="black" stroke-width="0.5" fill="#aaffff" cx="418.0" cy="291.0" r="1.0"/>
     <text stroke="none" x="418.0" y="291.0" font-size="20.0" font-family="helvetica">Virgibacillus marismortui 1237 (AJOO9793)</text>
    </g>
    <g>
     <circle stroke="black" stroke-width="0.5" fill="#aaffff" cx="425.0" cy="102.0" r="1.0"/>
     <text stroke="none" x="425.0" y="102.0" font-size="10.0" font-family="helvetica">NT1.37</text>
    </g>
    <g>
     <circle stroke="black" stroke-width="0.5" fill="#aaffff" cx="426.0" cy="222.0" r="1.0"/>
     <text stroke="none" x="426.0" y="222.0" font-size="10.0" font-family="helvetica">NT1.38</text>
    </g>
    <g>
     <circle stroke="black" stroke-width="0.5" fill="#aaffff" cx="436.0" cy="776.0" r="1.0"/>
     <text stroke="none" x="436.0" y="776.0" font-size="20.0" font-family="helvetica">Saccharococcus caldoxylosilyticus S18127 (AFO67651)</text>
    </g>
    <g>
     <circle stroke="black" stroke-width="0.5" fill="#aaffff" cx="467.0" cy="154.0" r="1.0"/>
     <text stroke="none" x="467.0" y="154.0" font-size="20.0" font-family="helvetica">Thalassobacillus devorans G-19.17 (AJ717299)</text>
    </g>
    <g>
     <circle stroke="black" stroke-width="0.5" fill="#aaffff" cx="468.0" cy="568.0" r="1.0"/>
     <text stroke="none" x="468.0" y="568.0" font-size="20.0" font-family="helvetica">Pontibacillus halophilus JSM 0760567 (EU583728)</text>
    </g>
    <g>
     <circle stroke="black" stroke-width="0.5" fill="#aaffff" cx="473.0" cy="603.0" r="1.0"/>
     <text stroke="none" x="473.0" y="603.0" font-size="20.0" font-family="helvetica">Pontibacillus marinus BH0300047 (AY603977)</text>
    </g>
    <g>
     <circle stroke="black" stroke-width="0.5" fill="#aaffff" cx="479.0" cy="50.0" r="1.0"/>
     <text stroke="none" x="479.0" y="50.0" font-size="20.0" font-family="helvetica">Paraliobacillus ryukyuensis O15-77 (AB087828)</text>
    </g>
    <g>
     <circle stroke="black" stroke-width="0.5" fill="#aaffff" cx="480.0" cy="119.0" r="1.0"/>
     <text stroke="none" x="480.0" y="119.0" font-size="10.0" font-family="helvetica">NT1.44</text>
    </g>
    <g>
     <circle stroke="black" stroke-width="0.5" fill="#aaffff" cx="485.0" cy="84.0" r="1.0"/>
     <text stroke="none" x="485.0" y="84.0" font-size="10.0" font-family="helvetica">NT1.45</text>
    </g>
    <g>
     <circle stroke="black" stroke-width="0.5" fill="#aaffff" cx="493.0" cy="638.0" r="1.0"/>
     <text stroke="none" x="493.0" y="638.0" font-size="20.0" font-family="helvetica">Pontibacillus chungwhensis BH0300627 (AY553296)</text>
    </g>
    <g>
     <circle stroke="black" stroke-width="0.5" fill="#aaffff" cx="503.0" cy="827.0" r="1.0"/>
     <text stroke="none" x="503.0" y="827.0" font-size="10.0" font-family="helvetica">NT1.47</text>
    </g>
    <g>
     <circle stroke="black" stroke-width="0.5" fill="#aaffff" cx="504.0" cy="931.0" r="1.0"/>
     <text stroke="none" x="504.0" y="931.0" font-size="10.0" font-family="helvetica">NT1.48</text>
    </g>
    <g>
     <circle stroke="black" stroke-width="0.5" fill="#aaffff" cx="509.0" cy="360.0" r="1.0"/>
     <text stroke="none" x="509.0" y="360.0" font-size="20.0" font-family="helvetica">Oceanobacillus iheyensis HTE8317 (AB010863)</text>
    </g>
    <g>
     <circle stroke="black" stroke-width="0.5" fill="#aaffff" cx="535.0" cy="15.0" r="1.0"/>
     <text stroke="none" x="535.0" y="15.0" font-size="20.0" font-family="helvetica">Gracilibacillus halotolerans NN7 (AF036922)</text>
    </g>
    <g>
     <circle stroke="black" stroke-width="0.5" fill="#aaffff" cx="545.0" cy="914.0" r="1.0"/>
     <text stroke="none" x="545.0" y="914.0" font-size="10.0" font-family="helvetica">NT1.51</text>
    </g>
    <g>
     <circle stroke="black" stroke-width="0.5" fill="#aaffff" cx="557.0" cy="811.0" r="1.0"/>
     <text stroke="none" x="557.0" y="811.0" font-size="20.0" font-family="helvetica">Geobacillus subterraneus 347 (AF276306)</text>
    </g>
    <g>
     <circle stroke="black" stroke-width="0.5" fill="#aaffff" cx="586.0" cy="949.0" r="1.0"/>
     <text stroke="none" x="586.0" y="949.0" font-size="20.0" font-family="helvetica">Anoxybacillus flavithermus DSM 26417 (AF004589)</text>
    </g>
    <g>
     <circle stroke="black" stroke-width="0.5" fill="#aaffff" cx="592.0" cy="845.0" r="1.0"/>
     <text stroke="none" x="592.0" y="845.0" font-size="10.0" font-family="helvetica">NT1.54</text>
    </g>
    <g>
     <circle stroke="black" stroke-width="0.5" fill="#aaffff" cx="603.0" cy="187.0" r="1.0"/>
     <text stroke="none" x="603.0" y="187.0" font-size="20.0" font-family="helvetica">Lentibacillus salicampi SF-207 (AY057394)</text>
    </g>
    <g>
     <circle stroke="black" stroke-width="0.5" fill="#aaffff" cx="604.0" cy="984.0" r="1.0"/>
     <text stroke="none" x="604.0" y="984.0" font-size="20.0" font-family="helvetica">Exiguobacterium undae L27 (AJ344151)</text>
    </g>
    <g>
     <circle stroke="black" stroke-width="0.5" fill="#aaffff" cx="5.0" cy="806.0" r="1.0"/>
     <text stroke="none" x="5.0" y="806.0" font-size="10.0" font-family="helvetica">NT1.57</text>
    </g>
    <line stroke="black" x1="479.0" y1="50.0" x2="286.0" y2="33.0" stroke-width="0.5"/>
    <line stroke="black" x1="535.0" y1="15.0" x2="286.0" y2="33.0" stroke-width="0.5"/>
    <line stroke="black" x1="467.0" y1="154.0" x2="320.0" y2="127.0" stroke-width="0.5"/>
    <line stroke="black" x1="418.0" y1="291.0" x2="296.0" y2="309.0" stroke-width="0.5"/>
    <line stroke="black" x1="385.0" y1="430.0" x2="219.0" y2="412.0" stroke-width="0.5"/>
    <line stroke="black" x1="603.0" y1="187.0" x2="238.0" y2="230.0" stroke-width="0.5"/>
    <line stroke="black" x1="509.0" y1="360.0" x2="191.0" y2="386.0" stroke-width="0.5"/>
    <line stroke="black" x1="364.0" y1="534.0" x2="172.0" y2="507.0" stroke-width="0.5"/>
    <line stroke="black" x1="473.0" y1="603.0" x2="390.0" y2="620.0" stroke-width="0.5"/>
    <line stroke="black" x1="493.0" y1="638.0" x2="390.0" y2="620.0" stroke-width="0.5"/>
    <line stroke="black" x1="557.0" y1="811.0" x2="503.0" y2="827.0" stroke-width="0.5"/>
    <line stroke="black" x1="586.0" y1="949.0" x2="504.0" y2="931.0" stroke-width="0.5"/>
    <line stroke="black" x1="286.0" y1="33.0" x2="226.0" y2="80.0" stroke-width="0.5"/>
    <line stroke="black" x1="226.0" y1="80.0" x2="204.0" y2="156.0" stroke-width="0.5"/>
    <line stroke="black" x1="204.0" y1="156.0" x2="169.0" y2="271.0" stroke-width="0.5"/>
    <line stroke="black" x1="204.0" y1="156.0" x2="238.0" y2="230.0" stroke-width="0.5"/>
    <line stroke="black" x1="238.0" y1="230.0" x2="268.0" y2="273.0" stroke-width="0.5"/>
    <line stroke="black" x1="169.0" y1="271.0" x2="148.0" y2="390.0" stroke-width="0.5"/>
    <line stroke="black" x1="169.0" y1="271.0" x2="191.0" y2="386.0" stroke-width="0.5"/>
    <line stroke="black" x1="148.0" y1="390.0" x2="127.0" y2="492.0" stroke-width="0.5"/>
    <line stroke="black" x1="148.0" y1="390.0" x2="172.0" y2="507.0" stroke-width="0.5"/>
    <line stroke="black" x1="127.0" y1="492.0" x2="35.0" y2="628.0" stroke-width="0.5"/>
    <line stroke="black" x1="127.0" y1="492.0" x2="315.0" y2="593.0" stroke-width="0.5"/>
    <line stroke="black" x1="35.0" y1="628.0" x2="96.0" y2="763.0" stroke-width="0.5"/>
    <line stroke="black" x1="315.0" y1="593.0" x2="390.0" y2="620.0" stroke-width="0.5"/>
    <line stroke="black" x1="96.0" y1="763.0" x2="212.0" y2="838.0" stroke-width="0.5"/>
    <line stroke="black" x1="212.0" y1="838.0" x2="301.0" y2="905.0" stroke-width="0.5"/>
    <line stroke="black" x1="212.0" y1="838.0" x2="309.0" y2="772.0" stroke-width="0.5"/>
    <line stroke="black" x1="309.0" y1="772.0" x2="345.0" y2="801.0" stroke-width="0.5"/>
    <line stroke="black" x1="5.0" y1="806.0" x2="604.0" y2="984.0" stroke-width="0.5"/>
    <line stroke="black" x1="5.0" y1="806.0" x2="35.0" y2="628.0" stroke-width="0.5"/>
    <line stroke="black" x1="333.0" y1="741.0" x2="309.0" y2="772.0" stroke-width="0.5"/>
    <line stroke="black" x1="352.0" y1="880.0" x2="301.0" y2="905.0" stroke-width="0.5"/>
    <line stroke="black" x1="373.0" y1="499.0" x2="298.0" y2="482.0" stroke-width="0.5"/>
    <line stroke="black" x1="468.0" y1="568.0" x2="315.0" y2="593.0" stroke-width="0.5"/>
    <line stroke="black" x1="411.0" y1="707.0" x2="355.0" y2="690.0" stroke-width="0.5"/>
    <line stroke="black" x1="436.0" y1="776.0" x2="345.0" y2="801.0" stroke-width="0.5"/>
    <line stroke="black" x1="418.0" y1="257.0" x2="361.0" y2="240.0" stroke-width="0.5"/>
   </g>
  </g>
 </svg>
</svg>
