<?xml version="1.0" encoding="UTF-8"?>
<svg height="800.0" width="700.0" xmlns="http://www.w3.org/2000/svg">
 <svg>
  <g>
   <g>
    <g>
     <circle stroke="black" stroke-width="0.5" fill="#aaffff" cx="24.0" cy="442.0" r="1.0"/>
     <text stroke="none" x="24.0" y="442.0" font-size="10.0" font-family="helvetica">NT1.1</text>
    </g>
    <g>
     <circle stroke="black" stroke-width="0.5" fill="#aaffff" cx="62.0" cy="581.0" r="1.0"/>
     <text stroke="none" x="62.0" y="581.0" font-size="10.0" font-family="helvetica">NT1.2</text>
    </g>
    <g>
     <circle stroke="black" stroke-width="0.5" fill="#aaffff" cx="84.0" cy="288.0" r="1.0"/>
     <text stroke="none" x="84.0" y="288.0" font-size="10.0" font-family="helvetica">NT1.3</text>
    </g>
    <g>
     <circle stroke="black" stroke-width="0.5" fill="#aaffff" cx="92.0" cy="412.0" r="1.0"/>
     <text stroke="none" x="92.0" y="412.0" font-size="10.0" font-family="helvetica">NT1.4</text>
    </g>
    <g>
     <circle stroke="black" stroke-width="0.5" fill="#aaffff" cx="118.0" cy="164.0" r="1.0"/>
     <text stroke="none" x="118.0" y="164.0" font-size="10.0" font-family="helvetica">NT1.5</text>
    </g>
    <g>
     <circle stroke="black" stroke-width="0.5" fill="#aaffff" cx="126.0" cy="68.0" r="1.0"/>
     <text stroke="none" x="126.0" y="68.0" font-size="20.0" font-family="helvetica">56</text>
    </g>
    <g>
     <circle stroke="black" stroke-width="0.5" fill="#aaffff" cx="127.0" cy="234.0" r="1.0"/>
     <text stroke="none" x="127.0" y="234.0" font-size="10.0" font-family="helvetica">NT1.7</text>
    </g>
    <g>
     <circle stroke="black" stroke-width="0.5" fill="#aaffff" cx="134.0" cy="528.0" r="1.0"/>
     <text stroke="none" x="134.0" y="528.0" font-size="10.0" font-family="helvetica">NT1.8</text>
    </g>
    <g>
     <circle stroke="black" stroke-width="0.5" fill="#aaffff" cx="139.0" cy="353.0" r="1.0"/>
     <text stroke="none" x="139.0" y="353.0" font-size="10.0" font-family="helvetica">NT1.9</text>
    </g>
    <g>
     <circle stroke="black" stroke-width="0.5" fill="#aaffff" cx="141.0" cy="232.0" r="1.0"/>
     <text stroke="none" x="141.0" y="232.0" font-size="20.0" font-family="helvetica"/>
    </g>
    <g>
     <circle stroke="black" stroke-width="0.5" fill="#aaffff" cx="142.0" cy="230.0" r="1.0"/>
     <text stroke="none" x="142.0" y="230.0" font-size="10.0" font-family="helvetica">NT1.11</text>
    </g>
    <g>
     <circle stroke="black" stroke-width="0.5" fill="#aaffff" cx="145.0" cy="182.0" r="1.0"/>
     <text stroke="none" x="145.0" y="182.0" font-size="10.0" font-family="helvetica">NT1.12</text>
    </g>
    <g>
     <circle stroke="black" stroke-width="0.5" fill="#aaffff" cx="161.0" cy="501.0" r="1.0"/>
     <text stroke="none" x="161.0" y="501.0" font-size="20.0" font-family="helvetica">100</text>
    </g>
    <g>
     <circle stroke="black" stroke-width="0.5" fill="#aaffff" cx="164.0" cy="266.0" r="1.0"/>
     <text stroke="none" x="164.0" y="266.0" font-size="20.0" font-family="helvetica">Pedobacter caeni LMG 22862T (AJ786798)</text>
    </g>
    <g>
     <circle stroke="black" stroke-width="0.5" fill="#aaffff" cx="166.0" cy="123.0" r="1.0"/>
     <text stroke="none" x="166.0" y="123.0" font-size="20.0" font-family="helvetica">Pedobacter ginsengisoli Gsoil 104T (AB245371)</text>
    </g>
    <g>
     <circle stroke="black" stroke-width="0.5" fill="#aaffff" cx="172.0" cy="375.0" r="1.0"/>
     <text stroke="none" x="172.0" y="375.0" font-size="20.0" font-family="helvetica">Pedobacter rose-us CL-GP80T (DQ1 12353)</text>
    </g>
    <g>
     <circle stroke="black" stroke-width="0.5" fill="#aaffff" cx="174.0" cy="446.0" r="1.0"/>
     <text stroke="none" x="174.0" y="446.0" font-size="20.0" font-family="helvetica">Pedobacter aquatilis AR107T (AM1 14396)</text>
    </g>
    <g>
     <circle stroke="black" stroke-width="0.5" fill="#aaffff" cx="175.0" cy="194.0" r="1.0"/>
     <text stroke="none" x="175.0" y="194.0" font-size="20.0" font-family="helvetica">Pedobacter panaciterrae Gsoil 042T (AB245368)</text>
    </g>
    <g>
     <circle stroke="black" stroke-width="0.5" fill="#aaffff" cx="176.0" cy="230.0" r="1.0"/>
     <text stroke="none" x="176.0" y="230.0" font-size="20.0" font-family="helvetica">Pedobacter africanus DSM 12126T (AJ438171)</text>
    </g>
    <g>
     <circle stroke="black" stroke-width="0.5" fill="#aaffff" cx="180.0" cy="158.0" r="1.0"/>
     <text stroke="none" x="180.0" y="158.0" font-size="20.0" font-family="helvetica">Pedobacter hepan'nus DSM 23667 (AJ438172)</text>
    </g>
    <g>
     <circle stroke="black" stroke-width="0.5" fill="#aaffff" cx="184.0" cy="42.0" r="1.0"/>
     <text stroke="none" x="184.0" y="42.0" font-size="20.0" font-family="helvetica">100</text>
    </g>
    <g>
     <circle stroke="black" stroke-width="0.5" fill="#aaffff" cx="185.0" cy="302.0" r="1.0"/>
     <text stroke="none" x="185.0" y="302.0" font-size="20.0" font-family="helvetica">Pedobacter terrae sp. nov. DS-577 (DQ889723)</text>
    </g>
    <g>
     <circle stroke="black" stroke-width="0.5" fill="#aaffff" cx="185.0" cy="338.0" r="1.0"/>
     <text stroke="none" x="185.0" y="338.0" font-size="20.0" font-family="helvetica">Pedobacter suwonensis 15-52T (DQ097274)</text>
    </g>
    <g>
     <circle stroke="black" stroke-width="0.5" fill="#aaffff" cx="195.0" cy="410.0" r="1.0"/>
     <text stroke="none" x="195.0" y="410.0" font-size="20.0" font-family="helvetica">Pedobacter sandarakinus DS-27T (DQ235228)</text>
    </g>
    <g>
     <circle stroke="black" stroke-width="0.5" fill="#aaffff" cx="198.0" cy="86.0" r="1.0"/>
     <text stroke="none" x="198.0" y="86.0" font-size="20.0" font-family="helvetica">Pedobacterpiscium DSM 11725T (AJ438174)</text>
    </g>
    <g>
     <circle stroke="black" stroke-width="0.5" fill="#aaffff" cx="201.0" cy="51.0" r="1.0"/>
     <text stroke="none" x="201.0" y="51.0" font-size="20.0" font-family="helvetica">Pedobacter cryoconitis DSM 14825 (AJ438170)</text>
    </g>
    <g>
     <circle stroke="black" stroke-width="0.5" fill="#aaffff" cx="224.0" cy="14.0" r="1.0"/>
     <text stroke="none" x="224.0" y="14.0" font-size="20.0" font-family="helvetica">Pedobacter himalayensis HHS 22T (AJ583425)</text>
    </g>
    <g>
     <circle stroke="black" stroke-width="0.5" fill="#aaffff" cx="227.0" cy="626.0" r="1.0"/>
     <text stroke="none" x="227.0" y="626.0" font-size="20.0" font-family="helvetica">Pedobacter saltans DSM 121457 (AJ438173)</text>
    </g>
    <g>
     <circle stroke="black" stroke-width="0.5" fill="#aaffff" cx="255.0" cy="518.0" r="1.0"/>
     <text stroke="none" x="255.0" y="518.0" font-size="20.0" font-family="helvetica">Sphingobacterium multivorum IAM 14316T (AB100738)</text>
    </g>
    <g>
     <circle stroke="black" stroke-width="0.5" fill="#aaffff" cx="256.0" cy="590.0" r="1.0"/>
     <text stroke="none" x="256.0" y="590.0" font-size="20.0" font-family="helvetica">Sphingobacterium spiritivorum ATCC 33861T (M58778)</text>
    </g>
    <g>
     <circle stroke="black" stroke-width="0.5" fill="#aaffff" cx="258.0" cy="554.0" r="1.0"/>
     <text stroke="none" x="258.0" y="554.0" font-size="20.0" font-family="helvetica">Sphingobacterium faecium DSM 11690T (AJ438176)</text>
    </g>
    <g>
     <circle stroke="black" stroke-width="0.5" fill="#aaffff" cx="260.0" cy="482.0" r="1.0"/>
     <text stroke="none" x="260.0" y="482.0" font-size="20.0" font-family="helvetica">Sphingobacterium thalpophilum DSM 11723T (AJ438177)</text>
    </g>
    <g>
     <circle stroke="black" stroke-width="0.5" fill="#aaffff" cx="456.0" cy="662.0" r="1.0"/>
     <text stroke="none" x="456.0" y="662.0" font-size="20.0" font-family="helvetica">Cytophaga hutchinsonii ATCC 334O6T (M58768)</text>
    </g>
    <line stroke="black" x1="201.0" y1="51.0" x2="184.0" y2="42.0" stroke-width="0.5"/>
    <line stroke="black" x1="141.0" y1="232.0" x2="142.0" y2="230.0" stroke-width="0.5"/>
    <line stroke="black" x1="176.0" y1="230.0" x2="142.0" y2="230.0" stroke-width="0.5"/>
    <line stroke="black" x1="175.0" y1="194.0" x2="145.0" y2="182.0" stroke-width="0.5"/>
    <line stroke="black" x1="180.0" y1="158.0" x2="145.0" y2="182.0" stroke-width="0.5"/>
    <line stroke="black" x1="172.0" y1="375.0" x2="139.0" y2="353.0" stroke-width="0.5"/>
    <line stroke="black" x1="195.0" y1="410.0" x2="139.0" y2="353.0" stroke-width="0.5"/>
    <line stroke="black" x1="185.0" y1="302.0" x2="139.0" y2="353.0" stroke-width="0.5"/>
    <line stroke="black" x1="185.0" y1="338.0" x2="139.0" y2="353.0" stroke-width="0.5"/>
    <line stroke="black" x1="227.0" y1="626.0" x2="62.0" y2="581.0" stroke-width="0.5"/>
    <line stroke="black" x1="258.0" y1="554.0" x2="134.0" y2="528.0" stroke-width="0.5"/>
    <line stroke="black" x1="184.0" y1="42.0" x2="126.0" y2="68.0" stroke-width="0.5"/>
    <line stroke="black" x1="126.0" y1="68.0" x2="118.0" y2="164.0" stroke-width="0.5"/>
    <line stroke="black" x1="118.0" y1="164.0" x2="84.0" y2="288.0" stroke-width="0.5"/>
    <line stroke="black" x1="118.0" y1="164.0" x2="127.0" y2="234.0" stroke-width="0.5"/>
    <line stroke="black" x1="127.0" y1="234.0" x2="145.0" y2="182.0" stroke-width="0.5"/>
    <line stroke="black" x1="145.0" y1="182.0" x2="142.0" y2="230.0" stroke-width="0.5"/>
    <line stroke="black" x1="84.0" y1="288.0" x2="24.0" y2="442.0" stroke-width="0.5"/>
    <line stroke="black" x1="84.0" y1="288.0" x2="92.0" y2="412.0" stroke-width="0.5"/>
    <line stroke="black" x1="92.0" y1="412.0" x2="139.0" y2="353.0" stroke-width="0.5"/>
    <line stroke="black" x1="24.0" y1="442.0" x2="62.0" y2="581.0" stroke-width="0.5"/>
    <line stroke="black" x1="62.0" y1="581.0" x2="134.0" y2="528.0" stroke-width="0.5"/>
    <line stroke="black" x1="134.0" y1="528.0" x2="161.0" y2="501.0" stroke-width="0.5"/>
    <line stroke="black" x1="456.0" y1="662.0" x2="24.0" y2="442.0" stroke-width="0.5"/>
    <line stroke="black" x1="174.0" y1="446.0" x2="92.0" y2="412.0" stroke-width="0.5"/>
    <line stroke="black" x1="166.0" y1="123.0" x2="126.0" y2="68.0" stroke-width="0.5"/>
    <line stroke="black" x1="164.0" y1="266.0" x2="127.0" y2="234.0" stroke-width="0.5"/>
    <line stroke="black" x1="198.0" y1="86.0" x2="126.0" y2="68.0" stroke-width="0.5"/>
    <line stroke="black" x1="224.0" y1="14.0" x2="184.0" y2="42.0" stroke-width="0.5"/>
    <line stroke="black" x1="256.0" y1="590.0" x2="62.0" y2="581.0" stroke-width="0.5"/>
    <line stroke="black" x1="255.0" y1="518.0" x2="161.0" y2="501.0" stroke-width="0.5"/>
    <line stroke="black" x1="260.0" y1="482.0" x2="161.0" y2="501.0" stroke-width="0.5"/>
   </g>
  </g>
 </svg>
</svg>
