<?xml version="1.0" encoding="UTF-8"?>
<svg height="800.0" width="700.0" xmlns="http://www.w3.org/2000/svg">
 <svg>
  <g>
   <g>
    <g>
     <circle stroke="black" stroke-width="0.5" fill="#aaffff" cx="92.0" cy="301.0" r="1.0"/>
     <text stroke="none" x="92.0" y="301.0" font-size="10.0" font-family="helvetica">NT1.1</text>
    </g>
    <g>
     <circle stroke="black" stroke-width="0.5" fill="#aaffff" cx="116.0" cy="179.0" r="1.0"/>
     <text stroke="none" x="116.0" y="179.0" font-size="10.0" font-family="helvetica">NT1.2</text>
    </g>
    <g>
     <circle stroke="black" stroke-width="0.5" fill="#aaffff" cx="118.0" cy="422.0" r="1.0"/>
     <text stroke="none" x="118.0" y="422.0" font-size="10.0" font-family="helvetica">NT1.3</text>
    </g>
    <g>
     <circle stroke="black" stroke-width="0.5" fill="#aaffff" cx="138.0" cy="368.0" r="1.0"/>
     <text stroke="none" x="138.0" y="368.0" font-size="10.0" font-family="helvetica">NT1.4</text>
    </g>
    <g>
     <circle stroke="black" stroke-width="0.5" fill="#aaffff" cx="140.0" cy="65.0" r="1.0"/>
     <text stroke="none" x="140.0" y="65.0" font-size="10.0" font-family="helvetica">NT1.5</text>
    </g>
    <g>
     <circle stroke="black" stroke-width="0.5" fill="#aaffff" cx="145.0" cy="478.0" r="1.0"/>
     <text stroke="none" x="145.0" y="478.0" font-size="10.0" font-family="helvetica">NT1.6</text>
    </g>
    <g>
     <circle stroke="black" stroke-width="0.5" fill="#aaffff" cx="172.0" cy="113.0" r="1.0"/>
     <text stroke="none" x="172.0" y="113.0" font-size="10.0" font-family="helvetica">NT1.7</text>
    </g>
    <g>
     <circle stroke="black" stroke-width="0.5" fill="#aaffff" cx="193.0" cy="292.0" r="1.0"/>
     <text stroke="none" x="193.0" y="292.0" font-size="10.0" font-family="helvetica">NT1.8</text>
    </g>
    <g>
     <circle stroke="black" stroke-width="0.5" fill="#aaffff" cx="212.0" cy="157.0" r="1.0"/>
     <text stroke="none" x="212.0" y="157.0" font-size="10.0" font-family="helvetica">NT1.9</text>
    </g>
    <g>
     <circle stroke="black" stroke-width="0.5" fill="#aaffff" cx="216.0" cy="190.0" r="1.0"/>
     <text stroke="none" x="216.0" y="190.0" font-size="10.0" font-family="helvetica">NT1.10</text>
    </g>
    <g>
     <circle stroke="black" stroke-width="0.5" fill="#aaffff" cx="221.0" cy="572.0" r="1.0"/>
     <text stroke="none" x="221.0" y="572.0" font-size="20.0" font-family="helvetica">Hymenobacter ocellatus Myx21O5T (Y18835)</text>
    </g>
    <g>
     <circle stroke="black" stroke-width="0.5" fill="#aaffff" cx="249.0" cy="218.0" r="1.0"/>
     <text stroke="none" x="249.0" y="218.0" font-size="10.0" font-family="helvetica">NT1.12</text>
    </g>
    <g>
     <circle stroke="black" stroke-width="0.5" fill="#aaffff" cx="253.0" cy="443.0" r="1.0"/>
     <text stroke="none" x="253.0" y="443.0" font-size="10.0" font-family="helvetica">NT1.13</text>
    </g>
    <g>
     <circle stroke="black" stroke-width="0.5" fill="#aaffff" cx="263.0" cy="71.0" r="1.0"/>
     <text stroke="none" x="263.0" y="71.0" font-size="10.0" font-family="helvetica">NT1.14</text>
    </g>
    <g>
     <circle stroke="black" stroke-width="0.5" fill="#aaffff" cx="287.0" cy="515.0" r="1.0"/>
     <text stroke="none" x="287.0" y="515.0" font-size="20.0" font-family="helvetica">100</text>
    </g>
    <g>
     <circle stroke="black" stroke-width="0.5" fill="#aaffff" cx="300.0" cy="535.0" r="1.0"/>
     <text stroke="none" x="300.0" y="535.0" font-size="20.0" font-family="helvetica">Marivirga tractuosa NBRC 159897 (AB078082)</text>
    </g>
    <g>
     <circle stroke="black" stroke-width="0.5" fill="#aaffff" cx="306.0" cy="497.0" r="1.0"/>
     <text stroke="none" x="306.0" y="497.0" font-size="20.0" font-family="helvetica">Marivirga sericea NBRC 15983T (AB078081)</text>
    </g>
    <g>
     <circle stroke="black" stroke-width="0.5" fill="#aaffff" cx="309.0" cy="386.0" r="1.0"/>
     <text stroke="none" x="309.0" y="386.0" font-size="20.0" font-family="helvetica">Marinoscillum furvescens NBRC 159947 (AB078079)</text>
    </g>
    <g>
     <circle stroke="black" stroke-width="0.5" fill="#aaffff" cx="323.0" cy="348.0" r="1.0"/>
     <text stroke="none" x="323.0" y="348.0" font-size="10.0" font-family="helvetica">NT1.19</text>
    </g>
    <g>
     <circle stroke="black" stroke-width="0.5" fill="#aaffff" cx="335.0" cy="423.0" r="1.0"/>
     <text stroke="none" x="335.0" y="423.0" font-size="20.0" font-family="helvetica">Cesiribacter roseus 31 17 (HM775387)</text>
    </g>
    <g>
     <circle stroke="black" stroke-width="0.5" fill="#aaffff" cx="343.0" cy="461.0" r="1.0"/>
     <text stroke="none" x="343.0" y="461.0" font-size="10.0" font-family="helvetica">NT1.21</text>
    </g>
    <g>
     <circle stroke="black" stroke-width="0.5" fill="#aaffff" cx="347.0" cy="275.0" r="1.0"/>
     <text stroke="none" x="347.0" y="275.0" font-size="20.0" font-family="helvetica">Aureibacter tunicatorum A50-1 18T (AB572584)</text>
    </g>
    <g>
     <circle stroke="black" stroke-width="0.5" fill="#aaffff" cx="363.0" cy="312.0" r="1.0"/>
     <text stroke="none" x="363.0" y="312.0" font-size="20.0" font-family="helvetica">Persicobacter diffluens NBRC 159407 (AB260929)</text>
    </g>
    <g>
     <circle stroke="black" stroke-width="0.5" fill="#aaffff" cx="399.0" cy="51.0" r="1.0"/>
     <text stroke="none" x="399.0" y="51.0" font-size="20.0" font-family="helvetica">Flexithrix dorotheae IAM 14894T (AB288294)</text>
    </g>
    <g>
     <circle stroke="black" stroke-width="0.5" fill="#aaffff" cx="405.0" cy="89.0" r="1.0"/>
     <text stroke="none" x="405.0" y="89.0" font-size="10.0" font-family="helvetica">NT1.25</text>
    </g>
    <g>
     <circle stroke="black" stroke-width="0.5" fill="#aaffff" cx="438.0" cy="163.0" r="1.0"/>
     <text stroke="none" x="438.0" y="163.0" font-size="20.0" font-family="helvetica">Sediminitomix flava Mok-1-85T (AB255370)</text>
    </g>
    <g>
     <circle stroke="black" stroke-width="0.5" fill="#aaffff" cx="474.0" cy="126.0" r="1.0"/>
     <text stroke="none" x="474.0" y="126.0" font-size="10.0" font-family="helvetica">NT1.27</text>
    </g>
    <g>
     <circle stroke="black" stroke-width="0.5" fill="#aaffff" cx="488.0" cy="200.0" r="1.0"/>
     <text stroke="none" x="488.0" y="200.0" font-size="20.0" font-family="helvetica">Flammeovirga aprica JL-4T (AB247553)</text>
    </g>
    <g>
     <circle stroke="black" stroke-width="0.5" fill="#aaffff" cx="510.0" cy="237.0" r="1.0"/>
     <text stroke="none" x="510.0" y="237.0" font-size="20.0" font-family="helvetica">Perexilibacter aurantiacus Shu-F-UV2-27 (AB276355)</text>
    </g>
    <g>
     <circle stroke="black" stroke-width="0.5" fill="#aaffff" cx="531.0" cy="14.0" r="1.0"/>
     <text stroke="none" x="531.0" y="14.0" font-size="10.0" font-family="helvetica">NT1.30</text>
    </g>
    <g>
     <circle stroke="black" stroke-width="0.5" fill="#aaffff" cx="3.0" cy="436.0" r="1.0"/>
     <text stroke="none" x="3.0" y="436.0" font-size="10.0" font-family="helvetica">NT1.31</text>
    </g>
    <line stroke="black" x1="347.0" y1="275.0" x2="193.0" y2="292.0" stroke-width="0.5"/>
    <line stroke="black" x1="363.0" y1="312.0" x2="193.0" y2="292.0" stroke-width="0.5"/>
    <line stroke="black" x1="510.0" y1="237.0" x2="249.0" y2="218.0" stroke-width="0.5"/>
    <line stroke="black" x1="306.0" y1="497.0" x2="287.0" y2="515.0" stroke-width="0.5"/>
    <line stroke="black" x1="140.0" y1="65.0" x2="172.0" y2="113.0" stroke-width="0.5"/>
    <line stroke="black" x1="116.0" y1="179.0" x2="92.0" y2="301.0" stroke-width="0.5"/>
    <line stroke="black" x1="116.0" y1="179.0" x2="193.0" y2="292.0" stroke-width="0.5"/>
    <line stroke="black" x1="212.0" y1="157.0" x2="216.0" y2="190.0" stroke-width="0.5"/>
    <line stroke="black" x1="216.0" y1="190.0" x2="249.0" y2="218.0" stroke-width="0.5"/>
    <line stroke="black" x1="92.0" y1="301.0" x2="118.0" y2="422.0" stroke-width="0.5"/>
    <line stroke="black" x1="118.0" y1="422.0" x2="145.0" y2="478.0" stroke-width="0.5"/>
    <line stroke="black" x1="145.0" y1="478.0" x2="287.0" y2="515.0" stroke-width="0.5"/>
    <line stroke="black" x1="3.0" y1="436.0" x2="92.0" y2="301.0" stroke-width="0.5"/>
    <line stroke="black" x1="221.0" y1="572.0" x2="3.0" y2="436.0" stroke-width="0.5"/>
    <line stroke="black" x1="309.0" y1="386.0" x2="138.0" y2="368.0" stroke-width="0.5"/>
    <line stroke="black" x1="335.0" y1="423.0" x2="253.0" y2="443.0" stroke-width="0.5"/>
    <line stroke="black" x1="438.0" y1="163.0" x2="216.0" y2="190.0" stroke-width="0.5"/>
    <line stroke="black" x1="300.0" y1="535.0" x2="287.0" y2="515.0" stroke-width="0.5"/>
    <line stroke="black" x1="399.0" y1="51.0" x2="263.0" y2="71.0" stroke-width="0.5"/>
    <line stroke="black" x1="488.0" y1="200.0" x2="249.0" y2="218.0" stroke-width="0.5"/>
   </g>
  </g>
 </svg>
</svg>
