<?xml version="1.0" encoding="UTF-8"?>
<svg height="800.0" width="700.0" xmlns="http://www.w3.org/2000/svg">
 <svg>
  <g>
   <g>
    <g>
     <circle stroke="black" stroke-width="0.5" fill="#aaffff" cx="76.0" cy="732.0" r="1.0"/>
     <text stroke="none" x="76.0" y="732.0" font-size="10.0" font-family="helvetica">NT1.1</text>
    </g>
    <g>
     <circle stroke="black" stroke-width="0.5" fill="#aaffff" cx="155.0" cy="612.0" r="1.0"/>
     <text stroke="none" x="155.0" y="612.0" font-size="10.0" font-family="helvetica">NT1.2</text>
    </g>
    <g>
     <circle stroke="black" stroke-width="0.5" fill="#aaffff" cx="173.0" cy="854.0" r="1.0"/>
     <text stroke="none" x="173.0" y="854.0" font-size="10.0" font-family="helvetica">NT1.3</text>
    </g>
    <g>
     <circle stroke="black" stroke-width="0.5" fill="#aaffff" cx="208.0" cy="543.0" r="1.0"/>
     <text stroke="none" x="208.0" y="543.0" font-size="10.0" font-family="helvetica">NT1.4</text>
    </g>
    <g>
     <circle stroke="black" stroke-width="0.5" fill="#aaffff" cx="216.0" cy="956.0" r="1.0"/>
     <text stroke="none" x="216.0" y="956.0" font-size="10.0" font-family="helvetica">NT1.5</text>
    </g>
    <g>
     <circle stroke="black" stroke-width="0.5" fill="#aaffff" cx="219.0" cy="820.0" r="1.0"/>
     <text stroke="none" x="219.0" y="820.0" font-size="10.0" font-family="helvetica">NT1.6</text>
    </g>
    <g>
     <circle stroke="black" stroke-width="0.5" fill="#aaffff" cx="244.0" cy="372.0" r="1.0"/>
     <text stroke="none" x="244.0" y="372.0" font-size="10.0" font-family="helvetica">NT1.7</text>
    </g>
    <g>
     <circle stroke="black" stroke-width="0.5" fill="#aaffff" cx="257.0" cy="172.0" r="1.0"/>
     <text stroke="none" x="257.0" y="172.0" font-size="10.0" font-family="helvetica">NT1.8</text>
    </g>
    <g>
     <circle stroke="black" stroke-width="0.5" fill="#aaffff" cx="272.0" cy="680.0" r="1.0"/>
     <text stroke="none" x="272.0" y="680.0" font-size="10.0" font-family="helvetica">NT1.9</text>
    </g>
    <g>
     <circle stroke="black" stroke-width="0.5" fill="#aaffff" cx="289.0" cy="459.0" r="1.0"/>
     <text stroke="none" x="289.0" y="459.0" font-size="10.0" font-family="helvetica">NT1.10</text>
    </g>
    <g>
     <circle stroke="black" stroke-width="0.5" fill="#aaffff" cx="296.0" cy="302.0" r="1.0"/>
     <text stroke="none" x="296.0" y="302.0" font-size="10.0" font-family="helvetica">NT1.11</text>
    </g>
    <g>
     <circle stroke="black" stroke-width="0.5" fill="#aaffff" cx="308.0" cy="647.0" r="1.0"/>
     <text stroke="none" x="308.0" y="647.0" font-size="10.0" font-family="helvetica">NT1.12</text>
    </g>
    <g>
     <circle stroke="black" stroke-width="0.5" fill="#aaffff" cx="313.0" cy="577.0" r="1.0"/>
     <text stroke="none" x="313.0" y="577.0" font-size="10.0" font-family="helvetica">NT1.13</text>
    </g>
    <g>
     <circle stroke="black" stroke-width="0.5" fill="#aaffff" cx="349.0" cy="509.0" r="1.0"/>
     <text stroke="none" x="349.0" y="509.0" font-size="10.0" font-family="helvetica">NT1.14</text>
    </g>
    <g>
     <circle stroke="black" stroke-width="0.5" fill="#aaffff" cx="409.0" cy="768.0" r="1.0"/>
     <text stroke="none" x="409.0" y="768.0" font-size="10.0" font-family="helvetica">NT1.15</text>
    </g>
    <g>
     <circle stroke="black" stroke-width="0.5" fill="#aaffff" cx="411.0" cy="441.0" r="1.0"/>
     <text stroke="none" x="411.0" y="441.0" font-size="10.0" font-family="helvetica">NT1.16</text>
    </g>
    <g>
     <circle stroke="black" stroke-width="0.5" fill="#aaffff" cx="414.0" cy="267.0" r="1.0"/>
     <text stroke="none" x="414.0" y="267.0" font-size="10.0" font-family="helvetica">NT1.17</text>
    </g>
    <g>
     <circle stroke="black" stroke-width="0.5" fill="#aaffff" cx="419.0" cy="130.0" r="1.0"/>
     <text stroke="none" x="419.0" y="130.0" font-size="10.0" font-family="helvetica">NT1.18</text>
    </g>
    <g>
     <circle stroke="black" stroke-width="0.5" fill="#aaffff" cx="428.0" cy="337.0" r="1.0"/>
     <text stroke="none" x="428.0" y="337.0" font-size="10.0" font-family="helvetica">NT1.19</text>
    </g>
    <g>
     <circle stroke="black" stroke-width="0.5" fill="#aaffff" cx="440.0" cy="96.0" r="1.0"/>
     <text stroke="none" x="440.0" y="96.0" font-size="10.0" font-family="helvetica">NT1.20</text>
    </g>
    <g>
     <circle stroke="black" stroke-width="0.5" fill="#aaffff" cx="447.0" cy="663.0" r="1.0"/>
     <text stroke="none" x="447.0" y="663.0" font-size="20.0" font-family="helvetica">Silicibacter Iacuscaerulensis ITI-1 1577 (U77644)</text>
    </g>
    <g>
     <circle stroke="black" stroke-width="0.5" fill="#aaffff" cx="460.0" cy="627.0" r="1.0"/>
     <text stroke="none" x="460.0" y="627.0" font-size="20.0" font-family="helvetica">Ruegeria atlantica IAM 144637 (D88526)</text>
    </g>
    <g>
     <circle stroke="black" stroke-width="0.5" fill="#aaffff" cx="479.0" cy="407.0" r="1.0"/>
     <text stroke="none" x="479.0" y="407.0" font-size="10.0" font-family="helvetica">NT1.23</text>
    </g>
    <g>
     <circle stroke="black" stroke-width="0.5" fill="#aaffff" cx="486.0" cy="697.0" r="1.0"/>
     <text stroke="none" x="486.0" y="697.0" font-size="20.0" font-family="helvetica">Silicibacter pomeroyi DSS-37 (AF098491)</text>
    </g>
    <g>
     <circle stroke="black" stroke-width="0.5" fill="#aaffff" cx="494.0" cy="973.0" r="1.0"/>
     <text stroke="none" x="494.0" y="973.0" font-size="20.0" font-family="helvetica">Roseivivax halotolerans Och 2107 (D85831)</text>
    </g>
    <g>
     <circle stroke="black" stroke-width="0.5" fill="#aaffff" cx="507.0" cy="51.0" r="1.0"/>
     <text stroke="none" x="507.0" y="51.0" font-size="10.0" font-family="helvetica">NT1.26</text>
    </g>
    <g>
     <circle stroke="black" stroke-width="0.5" fill="#aaffff" cx="521.0" cy="939.0" r="1.0"/>
     <text stroke="none" x="521.0" y="939.0" font-size="20.0" font-family="helvetica">Roseivivax halodurans Och 2397 (D85829)</text>
    </g>
    <g>
     <circle stroke="black" stroke-width="0.5" fill="#aaffff" cx="532.0" cy="24.0" r="1.0"/>
     <text stroke="none" x="532.0" y="24.0" font-size="10.0" font-family="helvetica">NT1.28</text>
    </g>
    <g>
     <circle stroke="black" stroke-width="0.5" fill="#aaffff" cx="555.0" cy="888.0" r="1.0"/>
     <text stroke="none" x="555.0" y="888.0" font-size="10.0" font-family="helvetica">NT1.29</text>
    </g>
    <g>
     <circle stroke="black" stroke-width="0.5" fill="#aaffff" cx="572.0" cy="904.0" r="1.0"/>
     <text stroke="none" x="572.0" y="904.0" font-size="20.0" font-family="helvetica">Ketogulonicigenium vulgare DSM 40257 (AF136849)</text>
    </g>
    <g>
     <circle stroke="black" stroke-width="0.5" fill="#aaffff" cx="575.0" cy="525.0" r="1.0"/>
     <text stroke="none" x="575.0" y="525.0" font-size="20.0" font-family="helvetica">Roseovarius tolerans EL-1727 (Y1 1551)</text>
    </g>
    <g>
     <circle stroke="black" stroke-width="0.5" fill="#aaffff" cx="578.0" cy="834.0" r="1.0"/>
     <text stroke="none" x="578.0" y="834.0" font-size="20.0" font-family="helvetica"> Oceanicola granulosus HTCC25167 (AY424896)</text>
    </g>
    <g>
     <circle stroke="black" stroke-width="0.5" fill="#aaffff" cx="579.0" cy="164.0" r="1.0"/>
     <text stroke="none" x="579.0" y="164.0" font-size="10.0" font-family="helvetica">NT1.33</text>
    </g>
    <g>
     <circle stroke="black" stroke-width="0.5" fill="#aaffff" cx="587.0" cy="869.0" r="1.0"/>
     <text stroke="none" x="587.0" y="869.0" font-size="20.0" font-family="helvetica">Ketogulonicigenium robustum X6L7 (AF136850)</text>
    </g>
    <g>
     <circle stroke="black" stroke-width="0.5" fill="#aaffff" cx="593.0" cy="78.0" r="1.0"/>
     <text stroke="none" x="593.0" y="78.0" font-size="20.0" font-family="helvetica">Sulfitobacter pontiacus ChLG 107 (Y1 3155)</text>
    </g>
    <g>
     <circle stroke="black" stroke-width="0.5" fill="#aaffff" cx="606.0" cy="744.0" r="1.0"/>
     <text stroke="none" x="606.0" y="744.0" font-size="10.0" font-family="helvetica">NT1.36</text>
    </g>
    <g>
     <circle stroke="black" stroke-width="0.5" fill="#aaffff" cx="612.0" cy="457.0" r="1.0"/>
     <text stroke="none" x="612.0" y="457.0" font-size="20.0" font-family="helvetica">Ruegeria algicola ATCC 514407 (X78315)</text>
    </g>
    <g>
     <circle stroke="black" stroke-width="0.5" fill="#aaffff" cx="623.0" cy="423.0" r="1.0"/>
     <text stroke="none" x="623.0" y="423.0" font-size="20.0" font-family="helvetica">Roseobacter gallaeciensis BS1077 (Y13244)</text>
    </g>
    <g>
     <circle stroke="black" stroke-width="0.5" fill="#aaffff" cx="635.0" cy="285.0" r="1.0"/>
     <text stroke="none" x="635.0" y="285.0" font-size="20.0" font-family="helvetica">Ruegeria gelatinovorans IAM 126177 (D88523)</text>
    </g>
    <g>
     <circle stroke="black" stroke-width="0.5" fill="#aaffff" cx="641.0" cy="44.0" r="1.0"/>
     <text stroke="none" x="641.0" y="44.0" font-size="20.0" font-family="helvetica"/>
    </g>
    <g>
     <circle stroke="black" stroke-width="0.5" fill="#aaffff" cx="645.0" cy="389.0" r="1.0"/>
     <text stroke="none" x="645.0" y="389.0" font-size="20.0" font-family="helvetica">Leisingera methylohalidivorans MB27 (AYOO5463)</text>
    </g>
    <g>
     <circle stroke="black" stroke-width="0.5" fill="#aaffff" cx="646.0" cy="560.0" r="1.0"/>
     <text stroke="none" x="646.0" y="560.0" font-size="20.0" font-family="helvetica">Antarctobacter heliothermus EL-2197 (Y1 1552)</text>
    </g>
    <g>
     <circle stroke="black" stroke-width="0.5" fill="#aaffff" cx="656.0" cy="491.0" r="1.0"/>
     <text stroke="none" x="656.0" y="491.0" font-size="20.0" font-family="helvetica">Roseovarius nubinhibens ISM7 (AF098495)</text>
    </g>
    <g>
     <circle stroke="black" stroke-width="0.5" fill="#aaffff" cx="676.0" cy="112.0" r="1.0"/>
     <text stroke="none" x="676.0" y="112.0" font-size="20.0" font-family="helvetica"> Staleya guttiformis EL-387 (Y16427)</text>
    </g>
    <g>
     <circle stroke="black" stroke-width="0.5" fill="#aaffff" cx="683.0" cy="181.0" r="1.0"/>
     <text stroke="none" x="683.0" y="181.0" font-size="20.0" font-family="helvetica">Roseobacter Iitoralis ATCC 495667 (X78312)</text>
    </g>
    <g>
     <circle stroke="black" stroke-width="0.5" fill="#aaffff" cx="683.0" cy="801.0" r="1.0"/>
     <text stroke="none" x="683.0" y="801.0" font-size="20.0" font-family="helvetica">Loktanella vestfoldensis LMG 220037 (AJ582226)</text>
    </g>
    <g>
     <circle stroke="black" stroke-width="0.5" fill="#aaffff" cx="690.0" cy="10.0" r="1.0"/>
     <text stroke="none" x="690.0" y="10.0" font-size="20.0" font-family="helvetica">Sulfitobacter brevis EL-1627 (Y16425)</text>
    </g>
    <g>
     <circle stroke="black" stroke-width="0.5" fill="#aaffff" cx="694.0" cy="731.0" r="1.0"/>
     <text stroke="none" x="694.0" y="731.0" font-size="20.0" font-family="helvetica">Loktanella fryxellensis LMG 220077 (AJ582225)</text>
    </g>
    <g>
     <circle stroke="black" stroke-width="0.5" fill="#aaffff" cx="694.0" cy="234.0" r="1.0"/>
     <text stroke="none" x="694.0" y="234.0" font-size="10.0" font-family="helvetica">NT1.49</text>
    </g>
    <g>
     <circle stroke="black" stroke-width="0.5" fill="#aaffff" cx="697.0" cy="594.0" r="1.0"/>
     <text stroke="none" x="697.0" y="594.0" font-size="20.0" font-family="helvetica">Sagittula stellata E-377 (U58356)</text>
    </g>
    <g>
     <circle stroke="black" stroke-width="0.5" fill="#aaffff" cx="709.0" cy="146.0" r="1.0"/>
     <text stroke="none" x="709.0" y="146.0" font-size="20.0" font-family="helvetica">Roseobacter denitrificans Och 1 147 (M96746)</text>
    </g>
    <g>
     <circle stroke="black" stroke-width="0.5" fill="#aaffff" cx="714.0" cy="766.0" r="1.0"/>
     <text stroke="none" x="714.0" y="766.0" font-size="20.0" font-family="helvetica"/>
    </g>
    <g>
     <circle stroke="black" stroke-width="0.5" fill="#aaffff" cx="717.0" cy="319.0" r="1.0"/>
     <text stroke="none" x="717.0" y="319.0" font-size="20.0" font-family="helvetica">Jannaschia helgolandensis Hel 107 (AJ438157)</text>
    </g>
    <g>
     <circle stroke="black" stroke-width="0.5" fill="#aaffff" cx="725.0" cy="354.0" r="1.0"/>
     <text stroke="none" x="725.0" y="354.0" font-size="20.0" font-family="helvetica">Thalassobacter stenotrophicus CECT 52947 (AJ631302)</text>
    </g>
    <g>
     <circle stroke="black" stroke-width="0.5" fill="#aaffff" cx="747.0" cy="215.0" r="1.0"/>
     <text stroke="none" x="747.0" y="215.0" font-size="20.0" font-family="helvetica"> Octadecabacter antarcticus 3077 (U14583)</text>
    </g>
    <g>
     <circle stroke="black" stroke-width="0.5" fill="#aaffff" cx="748.0" cy="250.0" r="1.0"/>
     <text stroke="none" x="748.0" y="250.0" font-size="20.0" font-family="helvetica"> Octadecabacter arcticus 2387 (U73725)</text>
    </g>
    <line stroke="black" x1="641.0" y1="44.0" x2="532.0" y2="24.0" stroke-width="0.5"/>
    <line stroke="black" x1="690.0" y1="10.0" x2="532.0" y2="24.0" stroke-width="0.5"/>
    <line stroke="black" x1="593.0" y1="78.0" x2="507.0" y2="51.0" stroke-width="0.5"/>
    <line stroke="black" x1="676.0" y1="112.0" x2="440.0" y2="96.0" stroke-width="0.5"/>
    <line stroke="black" x1="635.0" y1="285.0" x2="414.0" y2="267.0" stroke-width="0.5"/>
    <line stroke="black" x1="717.0" y1="319.0" x2="428.0" y2="337.0" stroke-width="0.5"/>
    <line stroke="black" x1="725.0" y1="354.0" x2="428.0" y2="337.0" stroke-width="0.5"/>
    <line stroke="black" x1="575.0" y1="525.0" x2="349.0" y2="509.0" stroke-width="0.5"/>
    <line stroke="black" x1="748.0" y1="250.0" x2="694.0" y2="234.0" stroke-width="0.5"/>
    <line stroke="black" x1="747.0" y1="215.0" x2="694.0" y2="234.0" stroke-width="0.5"/>
    <line stroke="black" x1="612.0" y1="457.0" x2="411.0" y2="441.0" stroke-width="0.5"/>
    <line stroke="black" x1="623.0" y1="423.0" x2="479.0" y2="407.0" stroke-width="0.5"/>
    <line stroke="black" x1="656.0" y1="491.0" x2="349.0" y2="509.0" stroke-width="0.5"/>
    <line stroke="black" x1="645.0" y1="389.0" x2="479.0" y2="407.0" stroke-width="0.5"/>
    <line stroke="black" x1="646.0" y1="560.0" x2="313.0" y2="577.0" stroke-width="0.5"/>
    <line stroke="black" x1="447.0" y1="663.0" x2="308.0" y2="647.0" stroke-width="0.5"/>
    <line stroke="black" x1="486.0" y1="697.0" x2="272.0" y2="680.0" stroke-width="0.5"/>
    <line stroke="black" x1="697.0" y1="594.0" x2="313.0" y2="577.0" stroke-width="0.5"/>
    <line stroke="black" x1="460.0" y1="627.0" x2="308.0" y2="647.0" stroke-width="0.5"/>
    <line stroke="black" x1="572.0" y1="904.0" x2="555.0" y2="888.0" stroke-width="0.5"/>
    <line stroke="black" x1="578.0" y1="834.0" x2="219.0" y2="820.0" stroke-width="0.5"/>
    <line stroke="black" x1="587.0" y1="869.0" x2="555.0" y2="888.0" stroke-width="0.5"/>
    <line stroke="black" x1="683.0" y1="801.0" x2="409.0" y2="768.0" stroke-width="0.5"/>
    <line stroke="black" x1="494.0" y1="973.0" x2="216.0" y2="956.0" stroke-width="0.5"/>
    <line stroke="black" x1="521.0" y1="939.0" x2="216.0" y2="956.0" stroke-width="0.5"/>
    <line stroke="black" x1="714.0" y1="766.0" x2="606.0" y2="744.0" stroke-width="0.5"/>
    <line stroke="black" x1="532.0" y1="24.0" x2="507.0" y2="51.0" stroke-width="0.5"/>
    <line stroke="black" x1="507.0" y1="51.0" x2="440.0" y2="96.0" stroke-width="0.5"/>
    <line stroke="black" x1="440.0" y1="96.0" x2="419.0" y2="130.0" stroke-width="0.5"/>
    <line stroke="black" x1="419.0" y1="130.0" x2="257.0" y2="172.0" stroke-width="0.5"/>
    <line stroke="black" x1="419.0" y1="130.0" x2="579.0" y2="164.0" stroke-width="0.5"/>
    <line stroke="black" x1="257.0" y1="172.0" x2="296.0" y2="302.0" stroke-width="0.5"/>
    <line stroke="black" x1="257.0" y1="172.0" x2="244.0" y2="372.0" stroke-width="0.5"/>
    <line stroke="black" x1="296.0" y1="302.0" x2="428.0" y2="337.0" stroke-width="0.5"/>
    <line stroke="black" x1="296.0" y1="302.0" x2="414.0" y2="267.0" stroke-width="0.5"/>
    <line stroke="black" x1="244.0" y1="372.0" x2="208.0" y2="543.0" stroke-width="0.5"/>
    <line stroke="black" x1="244.0" y1="372.0" x2="289.0" y2="459.0" stroke-width="0.5"/>
    <line stroke="black" x1="414.0" y1="267.0" x2="694.0" y2="234.0" stroke-width="0.5"/>
    <line stroke="black" x1="289.0" y1="459.0" x2="411.0" y2="441.0" stroke-width="0.5"/>
    <line stroke="black" x1="208.0" y1="543.0" x2="155.0" y2="612.0" stroke-width="0.5"/>
    <line stroke="black" x1="208.0" y1="543.0" x2="313.0" y2="577.0" stroke-width="0.5"/>
    <line stroke="black" x1="411.0" y1="441.0" x2="479.0" y2="407.0" stroke-width="0.5"/>
    <line stroke="black" x1="155.0" y1="612.0" x2="272.0" y2="680.0" stroke-width="0.5"/>
    <line stroke="black" x1="272.0" y1="680.0" x2="308.0" y2="647.0" stroke-width="0.5"/>
    <line stroke="black" x1="76.0" y1="732.0" x2="216.0" y2="956.0" stroke-width="0.5"/>
    <line stroke="black" x1="76.0" y1="732.0" x2="173.0" y2="854.0" stroke-width="0.5"/>
    <line stroke="black" x1="173.0" y1="854.0" x2="555.0" y2="888.0" stroke-width="0.5"/>
    <line stroke="black" x1="173.0" y1="854.0" x2="219.0" y2="820.0" stroke-width="0.5"/>
    <line stroke="black" x1="219.0" y1="820.0" x2="409.0" y2="768.0" stroke-width="0.5"/>
    <line stroke="black" x1="409.0" y1="768.0" x2="606.0" y2="744.0" stroke-width="0.5"/>
    <line stroke="black" x1="155.0" y1="612.0" x2="76.0" y2="732.0" stroke-width="0.5"/>
    <line stroke="black" x1="289.0" y1="459.0" x2="349.0" y2="509.0" stroke-width="0.5"/>
    <line stroke="black" x1="709.0" y1="146.0" x2="579.0" y2="164.0" stroke-width="0.5"/>
    <line stroke="black" x1="683.0" y1="181.0" x2="579.0" y2="164.0" stroke-width="0.5"/>
    <line stroke="black" x1="694.0" y1="731.0" x2="606.0" y2="744.0" stroke-width="0.5"/>
   </g>
  </g>
 </svg>
</svg>
