<?xml version="1.0" encoding="UTF-8"?>
<svg height="800.0" width="700.0" xmlns="http://www.w3.org/2000/svg">
 <svg>
  <g>
   <g>
    <g>
     <circle stroke="black" stroke-width="0.5" fill="#aaffff" cx="1.0" cy="259.0" r="1.0"/>
     <text stroke="none" x="1.0" y="259.0" font-size="20.0" font-family="helvetica"/>
    </g>
    <g>
     <circle stroke="black" stroke-width="0.5" fill="#aaffff" cx="52.0" cy="259.0" r="1.0"/>
     <text stroke="none" x="52.0" y="259.0" font-size="10.0" font-family="helvetica">NT1.2</text>
    </g>
    <g>
     <circle stroke="black" stroke-width="0.5" fill="#aaffff" cx="65.0" cy="389.0" r="1.0"/>
     <text stroke="none" x="65.0" y="389.0" font-size="20.0" font-family="helvetica">55</text>
    </g>
    <g>
     <circle stroke="black" stroke-width="0.5" fill="#aaffff" cx="109.0" cy="129.0" r="1.0"/>
     <text stroke="none" x="109.0" y="129.0" font-size="10.0" font-family="helvetica">NT1.4</text>
    </g>
    <g>
     <circle stroke="black" stroke-width="0.5" fill="#aaffff" cx="153.0" cy="326.0" r="1.0"/>
     <text stroke="none" x="153.0" y="326.0" font-size="10.0" font-family="helvetica">NT1.5</text>
    </g>
    <g>
     <circle stroke="black" stroke-width="0.5" fill="#aaffff" cx="179.0" cy="62.0" r="1.0"/>
     <text stroke="none" x="179.0" y="62.0" font-size="10.0" font-family="helvetica">NT1.6</text>
    </g>
    <g>
     <circle stroke="black" stroke-width="0.5" fill="#aaffff" cx="196.0" cy="279.0" r="1.0"/>
     <text stroke="none" x="196.0" y="279.0" font-size="20.0" font-family="helvetica">Actinocorallia glomerata IMSNU 22179T (AJ293704)</text>
    </g>
    <g>
     <circle stroke="black" stroke-width="0.5" fill="#aaffff" cx="228.0" cy="369.0" r="1.0"/>
     <text stroke="none" x="228.0" y="369.0" font-size="10.0" font-family="helvetica">NT1.8</text>
    </g>
    <g>
     <circle stroke="black" stroke-width="0.5" fill="#aaffff" cx="264.0" cy="192.0" r="1.0"/>
     <text stroke="none" x="264.0" y="192.0" font-size="20.0" font-family="helvetica">Actinocorallia herbida IFO15485T (D85473)</text>
    </g>
    <g>
     <circle stroke="black" stroke-width="0.5" fill="#aaffff" cx="265.0" cy="20.0" r="1.0"/>
     <text stroke="none" x="265.0" y="20.0" font-size="10.0" font-family="helvetica">NT1.10</text>
    </g>
    <g>
     <circle stroke="black" stroke-width="0.5" fill="#aaffff" cx="284.0" cy="104.0" r="1.0"/>
     <text stroke="none" x="284.0" y="104.0" font-size="20.0" font-family="helvetica">Actinocorallia aurantiaca IMSNU 22193T (AJ293701)</text>
    </g>
    <g>
     <circle stroke="black" stroke-width="0.5" fill="#aaffff" cx="302.0" cy="457.0" r="1.0"/>
     <text stroke="none" x="302.0" y="457.0" font-size="20.0" font-family="helvetica">Actinocorallia cavernae N3-7T (AY966427)</text>
    </g>
    <line stroke="black" x1="284.0" y1="104.0" x2="179.0" y2="62.0" stroke-width="0.5"/>
    <line stroke="black" x1="264.0" y1="192.0" x2="109.0" y2="129.0" stroke-width="0.5"/>
    <line stroke="black" x1="1.0" y1="259.0" x2="52.0" y2="259.0" stroke-width="0.5"/>
    <line stroke="black" x1="196.0" y1="279.0" x2="153.0" y2="326.0" stroke-width="0.5"/>
    <line stroke="black" x1="302.0" y1="457.0" x2="65.0" y2="389.0" stroke-width="0.5"/>
    <line stroke="black" x1="109.0" y1="129.0" x2="52.0" y2="259.0" stroke-width="0.5"/>
    <line stroke="black" x1="52.0" y1="259.0" x2="65.0" y2="389.0" stroke-width="0.5"/>
   </g>
  </g>
 </svg>
</svg>
