<?xml version="1.0" encoding="UTF-8"?>
<svg height="800.0" width="700.0" xmlns="http://www.w3.org/2000/svg">
 <svg>
  <g>
   <g>
    <g>
     <circle stroke="black" stroke-width="0.5" fill="#aaffff" cx="0.0" cy="507.0" r="1.0"/>
     <text stroke="none" x="0.0" y="507.0" font-size="20.0" font-family="helvetica"/>
    </g>
    <g>
     <circle stroke="black" stroke-width="0.5" fill="#aaffff" cx="23.0" cy="507.0" r="1.0"/>
     <text stroke="none" x="23.0" y="507.0" font-size="10.0" font-family="helvetica">NT1.2</text>
    </g>
    <g>
     <circle stroke="black" stroke-width="0.5" fill="#aaffff" cx="59.0" cy="290.0" r="1.0"/>
     <text stroke="none" x="59.0" y="290.0" font-size="10.0" font-family="helvetica">NT1.3</text>
    </g>
    <g>
     <circle stroke="black" stroke-width="0.5" fill="#aaffff" cx="131.0" cy="582.0" r="1.0"/>
     <text stroke="none" x="131.0" y="582.0" font-size="10.0" font-family="helvetica">NT1.4</text>
    </g>
    <g>
     <circle stroke="black" stroke-width="0.5" fill="#aaffff" cx="257.0" cy="419.0" r="1.0"/>
     <text stroke="none" x="257.0" y="419.0" font-size="10.0" font-family="helvetica">NT1.5</text>
    </g>
    <g>
     <circle stroke="black" stroke-width="0.5" fill="#aaffff" cx="355.0" cy="224.0" r="1.0"/>
     <text stroke="none" x="355.0" y="224.0" font-size="10.0" font-family="helvetica">NT1.6</text>
    </g>
    <g>
     <circle stroke="black" stroke-width="0.5" fill="#aaffff" cx="395.0" cy="94.0" r="1.0"/>
     <text stroke="none" x="395.0" y="94.0" font-size="10.0" font-family="helvetica">NT1.7</text>
    </g>
    <g>
     <circle stroke="black" stroke-width="0.5" fill="#aaffff" cx="483.0" cy="190.0" r="1.0"/>
     <text stroke="none" x="483.0" y="190.0" font-size="10.0" font-family="helvetica">NT1.8</text>
    </g>
    <g>
     <circle stroke="black" stroke-width="0.5" fill="#aaffff" cx="495.0" cy="256.0" r="1.0"/>
     <text stroke="none" x="495.0" y="256.0" font-size="10.0" font-family="helvetica">NT1.9</text>
    </g>
    <g>
     <circle stroke="black" stroke-width="0.5" fill="#aaffff" cx="508.0" cy="159.0" r="1.0"/>
     <text stroke="none" x="508.0" y="159.0" font-size="10.0" font-family="helvetica">NT1.10</text>
    </g>
    <g>
     <circle stroke="black" stroke-width="0.5" fill="#aaffff" cx="518.0" cy="127.0" r="1.0"/>
     <text stroke="none" x="518.0" y="127.0" font-size="10.0" font-family="helvetica">NT1.11</text>
    </g>
    <g>
     <circle stroke="black" stroke-width="0.5" fill="#aaffff" cx="553.0" cy="141.0" r="1.0"/>
     <text stroke="none" x="553.0" y="141.0" font-size="20.0" font-family="helvetica">Edaphobacter rnodestus Jbg-1T (DQ528760)</text>
    </g>
    <g>
     <circle stroke="black" stroke-width="0.5" fill="#aaffff" cx="555.0" cy="62.0" r="1.0"/>
     <text stroke="none" x="555.0" y="62.0" font-size="20.0" font-family="helvetica">100</text>
    </g>
    <g>
     <circle stroke="black" stroke-width="0.5" fill="#aaffff" cx="556.0" cy="11.0" r="1.0"/>
     <text stroke="none" x="556.0" y="11.0" font-size="20.0" font-family="helvetica">Terriglobus roseus KBS 68 (DQ660894)</text>
    </g>
    <g>
     <circle stroke="black" stroke-width="0.5" fill="#aaffff" cx="556.0" cy="75.0" r="1.0"/>
     <text stroke="none" x="556.0" y="75.0" font-size="20.0" font-family="helvetica">Terriglobus roseus KBS 637 (DQ660892)</text>
    </g>
    <g>
     <circle stroke="black" stroke-width="0.5" fill="#aaffff" cx="576.0" cy="272.0" r="1.0"/>
     <text stroke="none" x="576.0" y="272.0" font-size="20.0" font-family="helvetica"> Soil isolate Ellin5001 (AY234418)</text>
    </g>
    <g>
     <circle stroke="black" stroke-width="0.5" fill="#aaffff" cx="578.0" cy="174.0" r="1.0"/>
     <text stroke="none" x="578.0" y="174.0" font-size="20.0" font-family="helvetica">Termite gut isolate TAA166 (AY587230)</text>
    </g>
    <g>
     <circle stroke="black" stroke-width="0.5" fill="#aaffff" cx="581.0" cy="206.0" r="1.0"/>
     <text stroke="none" x="581.0" y="206.0" font-size="20.0" font-family="helvetica">Edaphobacter aggregans Wbg-1T (DQ528761)</text>
    </g>
    <g>
     <circle stroke="black" stroke-width="0.5" fill="#aaffff" cx="588.0" cy="108.0" r="1.0"/>
     <text stroke="none" x="588.0" y="108.0" font-size="20.0" font-family="helvetica">Soil isolate Ellin337 (AF498719) </text>
    </g>
    <g>
     <circle stroke="black" stroke-width="0.5" fill="#aaffff" cx="636.0" cy="388.0" r="1.0"/>
     <text stroke="none" x="636.0" y="388.0" font-size="10.0" font-family="helvetica">NT1.20</text>
    </g>
    <g>
     <circle stroke="black" stroke-width="0.5" fill="#aaffff" cx="640.0" cy="484.0" r="1.0"/>
     <text stroke="none" x="640.0" y="484.0" font-size="20.0" font-family="helvetica">100</text>
    </g>
    <g>
     <circle stroke="black" stroke-width="0.5" fill="#aaffff" cx="641.0" cy="500.0" r="1.0"/>
     <text stroke="none" x="641.0" y="500.0" font-size="20.0" font-family="helvetica">Bryobacter aggregatus MPL101 1 (AM887761)</text>
    </g>
    <g>
     <circle stroke="black" stroke-width="0.5" fill="#aaffff" cx="641.0" cy="435.0" r="1.0"/>
     <text stroke="none" x="641.0" y="435.0" font-size="20.0" font-family="helvetica">Bryobacter aggregatus MPL3T (AM162405)</text>
    </g>
    <g>
     <circle stroke="black" stroke-width="0.5" fill="#aaffff" cx="643.0" cy="240.0" r="1.0"/>
     <text stroke="none" x="643.0" y="240.0" font-size="10.0" font-family="helvetica">NT1.24</text>
    </g>
    <g>
     <circle stroke="black" stroke-width="0.5" fill="#aaffff" cx="646.0" cy="355.0" r="1.0"/>
     <text stroke="none" x="646.0" y="355.0" font-size="10.0" font-family="helvetica">NT1.25</text>
    </g>
    <g>
     <circle stroke="black" stroke-width="0.5" fill="#aaffff" cx="651.0" cy="551.0" r="1.0"/>
     <text stroke="none" x="651.0" y="551.0" font-size="10.0" font-family="helvetica">NT1.26</text>
    </g>
    <g>
     <circle stroke="black" stroke-width="0.5" fill="#aaffff" cx="671.0" cy="318.0" r="1.0"/>
     <text stroke="none" x="671.0" y="318.0" font-size="10.0" font-family="helvetica">NT1.27</text>
    </g>
    <g>
     <circle stroke="black" stroke-width="0.5" fill="#aaffff" cx="676.0" cy="598.0" r="1.0"/>
     <text stroke="none" x="676.0" y="598.0" font-size="20.0" font-family="helvetica">Acanthopleuribacter pedis FYK2218T (AB303221)</text>
    </g>
    <g>
     <circle stroke="black" stroke-width="0.5" fill="#aaffff" cx="688.0" cy="403.0" r="1.0"/>
     <text stroke="none" x="688.0" y="403.0" font-size="20.0" font-family="helvetica">Soil isolate Ellin342 (AF49B724)</text>
    </g>
    <g>
     <circle stroke="black" stroke-width="0.5" fill="#aaffff" cx="691.0" cy="304.0" r="1.0"/>
     <text stroke="none" x="691.0" y="304.0" font-size="10.0" font-family="helvetica">NT1.30</text>
    </g>
    <g>
     <circle stroke="black" stroke-width="0.5" fill="#aaffff" cx="701.0" cy="370.0" r="1.0"/>
     <text stroke="none" x="701.0" y="370.0" font-size="10.0" font-family="helvetica">NT1.31</text>
    </g>
    <g>
     <circle stroke="black" stroke-width="0.5" fill="#aaffff" cx="703.0" cy="337.0" r="1.0"/>
     <text stroke="none" x="703.0" y="337.0" font-size="20.0" font-family="helvetica">Soil isolate Ellin371 (AF498753)</text>
    </g>
    <g>
     <circle stroke="black" stroke-width="0.5" fill="#aaffff" cx="769.0" cy="532.0" r="1.0"/>
     <text stroke="none" x="769.0" y="532.0" font-size="20.0" font-family="helvetica">Geothrix fermentans H-5T (U41563)</text>
    </g>
    <g>
     <circle stroke="black" stroke-width="0.5" fill="#aaffff" cx="852.0" cy="565.0" r="1.0"/>
     <text stroke="none" x="852.0" y="565.0" font-size="20.0" font-family="helvetica">Holophaga foetida TMBS4T (X77215)</text>
    </g>
    <line stroke="black" x1="556.0" y1="11.0" x2="555.0" y2="62.0" stroke-width="0.5"/>
    <line stroke="black" x1="556.0" y1="75.0" x2="555.0" y2="62.0" stroke-width="0.5"/>
    <line stroke="black" x1="581.0" y1="206.0" x2="483.0" y2="190.0" stroke-width="0.5"/>
    <line stroke="black" x1="578.0" y1="174.0" x2="508.0" y2="159.0" stroke-width="0.5"/>
    <line stroke="black" x1="588.0" y1="108.0" x2="518.0" y2="127.0" stroke-width="0.5"/>
    <line stroke="black" x1="576.0" y1="272.0" x2="495.0" y2="256.0" stroke-width="0.5"/>
    <line stroke="black" x1="0.0" y1="507.0" x2="23.0" y2="507.0" stroke-width="0.5"/>
    <line stroke="black" x1="641.0" y1="500.0" x2="640.0" y2="484.0" stroke-width="0.5"/>
    <line stroke="black" x1="688.0" y1="403.0" x2="636.0" y2="388.0" stroke-width="0.5"/>
    <line stroke="black" x1="641.0" y1="435.0" x2="640.0" y2="484.0" stroke-width="0.5"/>
    <line stroke="black" x1="703.0" y1="337.0" x2="671.0" y2="318.0" stroke-width="0.5"/>
    <line stroke="black" x1="769.0" y1="532.0" x2="651.0" y2="551.0" stroke-width="0.5"/>
    <line stroke="black" x1="852.0" y1="565.0" x2="651.0" y2="551.0" stroke-width="0.5"/>
    <line stroke="black" x1="555.0" y1="62.0" x2="395.0" y2="94.0" stroke-width="0.5"/>
    <line stroke="black" x1="395.0" y1="94.0" x2="355.0" y2="224.0" stroke-width="0.5"/>
    <line stroke="black" x1="395.0" y1="94.0" x2="483.0" y2="190.0" stroke-width="0.5"/>
    <line stroke="black" x1="355.0" y1="224.0" x2="59.0" y2="290.0" stroke-width="0.5"/>
    <line stroke="black" x1="483.0" y1="190.0" x2="508.0" y2="159.0" stroke-width="0.5"/>
    <line stroke="black" x1="508.0" y1="159.0" x2="518.0" y2="127.0" stroke-width="0.5"/>
    <line stroke="black" x1="59.0" y1="290.0" x2="23.0" y2="507.0" stroke-width="0.5"/>
    <line stroke="black" x1="59.0" y1="290.0" x2="257.0" y2="419.0" stroke-width="0.5"/>
    <line stroke="black" x1="23.0" y1="507.0" x2="131.0" y2="582.0" stroke-width="0.5"/>
    <line stroke="black" x1="257.0" y1="419.0" x2="640.0" y2="484.0" stroke-width="0.5"/>
    <line stroke="black" x1="257.0" y1="419.0" x2="636.0" y2="388.0" stroke-width="0.5"/>
    <line stroke="black" x1="131.0" y1="582.0" x2="651.0" y2="551.0" stroke-width="0.5"/>
    <line stroke="black" x1="676.0" y1="598.0" x2="131.0" y2="582.0" stroke-width="0.5"/>
    <line stroke="black" x1="553.0" y1="141.0" x2="518.0" y2="127.0" stroke-width="0.5"/>
   </g>
  </g>
 </svg>
</svg>
