<?xml version="1.0" encoding="UTF-8"?>
<svg height="800.0" width="700.0" xmlns="http://www.w3.org/2000/svg">
 <svg>
  <g>
   <g>
    <g>
     <circle stroke="black" stroke-width="0.5" fill="#aaffff" cx="21.0" cy="392.0" r="1.0"/>
     <text stroke="none" x="21.0" y="392.0" font-size="10.0" font-family="helvetica">NT1.1</text>
    </g>
    <g>
     <circle stroke="black" stroke-width="0.5" fill="#aaffff" cx="45.0" cy="639.0" r="1.0"/>
     <text stroke="none" x="45.0" y="639.0" font-size="20.0" font-family="helvetica">75</text>
    </g>
    <g>
     <circle stroke="black" stroke-width="0.5" fill="#aaffff" cx="79.0" cy="499.0" r="1.0"/>
     <text stroke="none" x="79.0" y="499.0" font-size="10.0" font-family="helvetica">NT1.3</text>
    </g>
    <g>
     <circle stroke="black" stroke-width="0.5" fill="#aaffff" cx="109.0" cy="532.0" r="1.0"/>
     <text stroke="none" x="109.0" y="532.0" font-size="10.0" font-family="helvetica">NT1.4</text>
    </g>
    <g>
     <circle stroke="black" stroke-width="0.5" fill="#aaffff" cx="153.0" cy="283.0" r="1.0"/>
     <text stroke="none" x="153.0" y="283.0" font-size="10.0" font-family="helvetica">NT1.5</text>
    </g>
    <g>
     <circle stroke="black" stroke-width="0.5" fill="#aaffff" cx="162.0" cy="679.0" r="1.0"/>
     <text stroke="none" x="162.0" y="679.0" font-size="10.0" font-family="helvetica">NT1.6</text>
    </g>
    <g>
     <circle stroke="black" stroke-width="0.5" fill="#aaffff" cx="181.0" cy="201.0" r="1.0"/>
     <text stroke="none" x="181.0" y="201.0" font-size="10.0" font-family="helvetica">NT1.7</text>
    </g>
    <g>
     <circle stroke="black" stroke-width="0.5" fill="#aaffff" cx="199.0" cy="261.0" r="1.0"/>
     <text stroke="none" x="199.0" y="261.0" font-size="10.0" font-family="helvetica">NT1.8</text>
    </g>
    <g>
     <circle stroke="black" stroke-width="0.5" fill="#aaffff" cx="204.0" cy="138.0" r="1.0"/>
     <text stroke="none" x="204.0" y="138.0" font-size="20.0" font-family="helvetica">4.</text>
    </g>
    <g>
     <circle stroke="black" stroke-width="0.5" fill="#aaffff" cx="218.0" cy="82.0" r="1.0"/>
     <text stroke="none" x="218.0" y="82.0" font-size="10.0" font-family="helvetica">NT1.10</text>
    </g>
    <g>
     <circle stroke="black" stroke-width="0.5" fill="#aaffff" cx="218.0" cy="363.0" r="1.0"/>
     <text stroke="none" x="218.0" y="363.0" font-size="20.0" font-family="helvetica">71</text>
    </g>
    <g>
     <circle stroke="black" stroke-width="0.5" fill="#aaffff" cx="221.0" cy="195.0" r="1.0"/>
     <text stroke="none" x="221.0" y="195.0" font-size="20.0" font-family="helvetica"> S. roseoverticillatus NBRC 128177 (AB184169)</text>
    </g>
    <g>
     <circle stroke="black" stroke-width="0.5" fill="#aaffff" cx="232.0" cy="37.0" r="1.0"/>
     <text stroke="none" x="232.0" y="37.0" font-size="10.0" font-family="helvetica">NT1.13</text>
    </g>
    <g>
     <circle stroke="black" stroke-width="0.5" fill="#aaffff" cx="245.0" cy="126.0" r="1.0"/>
     <text stroke="none" x="245.0" y="126.0" font-size="20.0" font-family="helvetica">4.</text>
    </g>
    <g>
     <circle stroke="black" stroke-width="0.5" fill="#aaffff" cx="252.0" cy="59.0" r="1.0"/>
     <text stroke="none" x="252.0" y="59.0" font-size="20.0" font-family="helvetica"> S. salmonis NBRC 158657 (AB184705)</text>
    </g>
    <g>
     <circle stroke="black" stroke-width="0.5" fill="#aaffff" cx="264.0" cy="510.0" r="1.0"/>
     <text stroke="none" x="264.0" y="510.0" font-size="10.0" font-family="helvetica">NT1.16</text>
    </g>
    <g>
     <circle stroke="black" stroke-width="0.5" fill="#aaffff" cx="268.0" cy="239.0" r="1.0"/>
     <text stroke="none" x="268.0" y="239.0" font-size="20.0" font-family="helvetica"> S. lilacinus NBRC 39447 (AB184819)</text>
    </g>
    <g>
     <circle stroke="black" stroke-width="0.5" fill="#aaffff" cx="274.0" cy="600.0" r="1.0"/>
     <text stroke="none" x="274.0" y="600.0" font-size="20.0" font-family="helvetica">S. thermolineatus NBRC 147507 (AB184618)</text>
    </g>
    <g>
     <circle stroke="black" stroke-width="0.5" fill="#aaffff" cx="276.0" cy="397.0" r="1.0"/>
     <text stroke="none" x="276.0" y="397.0" font-size="20.0" font-family="helvetica">7</text>
    </g>
    <g>
     <circle stroke="black" stroke-width="0.5" fill="#aaffff" cx="277.0" cy="14.0" r="1.0"/>
     <text stroke="none" x="277.0" y="14.0" font-size="10.0" font-family="helvetica">NT1.20</text>
    </g>
    <g>
     <circle stroke="black" stroke-width="0.5" fill="#aaffff" cx="277.0" cy="420.0" r="1.0"/>
     <text stroke="none" x="277.0" y="420.0" font-size="20.0" font-family="helvetica">S. cinnamoneus NBRC 128527 (AB184850)</text>
    </g>
    <g>
     <circle stroke="black" stroke-width="0.5" fill="#aaffff" cx="292.0" cy="375.0" r="1.0"/>
     <text stroke="none" x="292.0" y="375.0" font-size="10.0" font-family="helvetica">NT1.22</text>
    </g>
    <g>
     <circle stroke="black" stroke-width="0.5" fill="#aaffff" cx="307.0" cy="150.0" r="1.0"/>
     <text stroke="none" x="307.0" y="150.0" font-size="20.0" font-family="helvetica"> S. thioluteus NBRC 33647 (AB184753)</text>
    </g>
    <g>
     <circle stroke="black" stroke-width="0.5" fill="#aaffff" cx="311.0" cy="713.0" r="1.0"/>
     <text stroke="none" x="311.0" y="713.0" font-size="10.0" font-family="helvetica">NT1.24</text>
    </g>
    <g>
     <circle stroke="black" stroke-width="0.5" fill="#aaffff" cx="334.0" cy="330.0" r="1.0"/>
     <text stroke="none" x="334.0" y="330.0" font-size="20.0" font-family="helvetica"> S. olivoreticuli DSM 401057 (AY999857)</text>
    </g>
    <g>
     <circle stroke="black" stroke-width="0.5" fill="#aaffff" cx="338.0" cy="285.0" r="1.0"/>
     <text stroke="none" x="338.0" y="285.0" font-size="20.0" font-family="helvetica">S. mabaraensis NBRC 138197 (AB184870)</text>
    </g>
    <g>
     <circle stroke="black" stroke-width="0.5" fill="#aaffff" cx="341.0" cy="104.0" r="1.0"/>
     <text stroke="none" x="341.0" y="104.0" font-size="20.0" font-family="helvetica">S. viridiflavus NBRC 157997 (AB184702)</text>
    </g>
    <g>
     <circle stroke="black" stroke-width="0.5" fill="#aaffff" cx="353.0" cy="645.0" r="1.0"/>
     <text stroke="none" x="353.0" y="645.0" font-size="20.0" font-family="helvetica">S. radiopugnans R977 (DQ912930)</text>
    </g>
    <g>
     <circle stroke="black" stroke-width="0.5" fill="#aaffff" cx="359.0" cy="556.0" r="1.0"/>
     <text stroke="none" x="359.0" y="556.0" font-size="20.0" font-family="helvetica">S. atrovirens NRRL B-163577 (DQ026672)</text>
    </g>
    <g>
     <circle stroke="black" stroke-width="0.5" fill="#aaffff" cx="429.0" cy="691.0" r="1.0"/>
     <text stroke="none" x="429.0" y="691.0" font-size="10.0" font-family="helvetica">NT1.30</text>
    </g>
    <g>
     <circle stroke="black" stroke-width="0.5" fill="#aaffff" cx="596.0" cy="465.0" r="1.0"/>
     <text stroke="none" x="596.0" y="465.0" font-size="20.0" font-family="helvetica">S. cheonanensis VC-A467 (AY822606)</text>
    </g>
    <g>
     <circle stroke="black" stroke-width="0.5" fill="#aaffff" cx="596.0" cy="736.0" r="1.0"/>
     <text stroke="none" x="596.0" y="736.0" font-size="20.0" font-family="helvetica">S. megasporus NBRC 147497 (AB184617)</text>
    </g>
    <g>
     <circle stroke="black" stroke-width="0.5" fill="#aaffff" cx="3.0" cy="515.0" r="1.0"/>
     <text stroke="none" x="3.0" y="515.0" font-size="10.0" font-family="helvetica">NT1.33</text>
    </g>
    <line stroke="black" x1="252.0" y1="59.0" x2="232.0" y2="37.0" stroke-width="0.5"/>
    <line stroke="black" x1="221.0" y1="195.0" x2="204.0" y2="138.0" stroke-width="0.5"/>
    <line stroke="black" x1="307.0" y1="150.0" x2="245.0" y2="126.0" stroke-width="0.5"/>
    <line stroke="black" x1="341.0" y1="104.0" x2="245.0" y2="126.0" stroke-width="0.5"/>
    <line stroke="black" x1="268.0" y1="239.0" x2="199.0" y2="261.0" stroke-width="0.5"/>
    <line stroke="black" x1="338.0" y1="285.0" x2="199.0" y2="261.0" stroke-width="0.5"/>
    <line stroke="black" x1="277.0" y1="420.0" x2="276.0" y2="397.0" stroke-width="0.5"/>
    <line stroke="black" x1="334.0" y1="330.0" x2="218.0" y2="363.0" stroke-width="0.5"/>
    <line stroke="black" x1="359.0" y1="556.0" x2="109.0" y2="532.0" stroke-width="0.5"/>
    <line stroke="black" x1="274.0" y1="600.0" x2="45.0" y2="639.0" stroke-width="0.5"/>
    <line stroke="black" x1="353.0" y1="645.0" x2="162.0" y2="679.0" stroke-width="0.5"/>
    <line stroke="black" x1="596.0" y1="465.0" x2="79.0" y2="499.0" stroke-width="0.5"/>
    <line stroke="black" x1="596.0" y1="736.0" x2="311.0" y2="713.0" stroke-width="0.5"/>
    <line stroke="black" x1="218.0" y1="82.0" x2="204.0" y2="138.0" stroke-width="0.5"/>
    <line stroke="black" x1="218.0" y1="82.0" x2="245.0" y2="126.0" stroke-width="0.5"/>
    <line stroke="black" x1="204.0" y1="138.0" x2="181.0" y2="201.0" stroke-width="0.5"/>
    <line stroke="black" x1="181.0" y1="201.0" x2="153.0" y2="283.0" stroke-width="0.5"/>
    <line stroke="black" x1="181.0" y1="201.0" x2="199.0" y2="261.0" stroke-width="0.5"/>
    <line stroke="black" x1="153.0" y1="283.0" x2="21.0" y2="392.0" stroke-width="0.5"/>
    <line stroke="black" x1="153.0" y1="283.0" x2="218.0" y2="363.0" stroke-width="0.5"/>
    <line stroke="black" x1="21.0" y1="392.0" x2="79.0" y2="499.0" stroke-width="0.5"/>
    <line stroke="black" x1="45.0" y1="639.0" x2="162.0" y2="679.0" stroke-width="0.5"/>
    <line stroke="black" x1="3.0" y1="515.0" x2="21.0" y2="392.0" stroke-width="0.5"/>
    <line stroke="black" x1="3.0" y1="515.0" x2="45.0" y2="639.0" stroke-width="0.5"/>
   </g>
  </g>
 </svg>
</svg>
