<?xml version="1.0" encoding="UTF-8"?>
<svg height="800.0" width="700.0" xmlns="http://www.w3.org/2000/svg">
 <svg>
  <g>
   <g>
    <g>
     <circle stroke="black" stroke-width="0.5" fill="#aaffff" cx="3.0" cy="1102.0" r="1.0"/>
     <text stroke="none" x="3.0" y="1102.0" font-size="20.0" font-family="helvetica"/>
    </g>
    <g>
     <circle stroke="black" stroke-width="0.5" fill="#aaffff" cx="4.0" cy="1100.0" r="1.0"/>
     <text stroke="none" x="4.0" y="1100.0" font-size="10.0" font-family="helvetica">NT1.2</text>
    </g>
    <g>
     <circle stroke="black" stroke-width="0.5" fill="#aaffff" cx="223.0" cy="1100.0" r="1.0"/>
     <text stroke="none" x="223.0" y="1100.0" font-size="20.0" font-family="helvetica"/>
    </g>
    <g>
     <circle stroke="black" stroke-width="0.5" fill="#aaffff" cx="295.0" cy="747.0" r="1.0"/>
     <text stroke="none" x="295.0" y="747.0" font-size="10.0" font-family="helvetica">NT1.4</text>
    </g>
    <g>
     <circle stroke="black" stroke-width="0.5" fill="#aaffff" cx="314.0" cy="437.0" r="1.0"/>
     <text stroke="none" x="314.0" y="437.0" font-size="10.0" font-family="helvetica">NT1.5</text>
    </g>
    <g>
     <circle stroke="black" stroke-width="0.5" fill="#aaffff" cx="330.0" cy="723.0" r="1.0"/>
     <text stroke="none" x="330.0" y="723.0" font-size="10.0" font-family="helvetica">NT1.6</text>
    </g>
    <g>
     <circle stroke="black" stroke-width="0.5" fill="#aaffff" cx="355.0" cy="153.0" r="1.0"/>
     <text stroke="none" x="355.0" y="153.0" font-size="10.0" font-family="helvetica">NT1.7</text>
    </g>
    <g>
     <circle stroke="black" stroke-width="0.5" fill="#aaffff" cx="366.0" cy="217.0" r="1.0"/>
     <text stroke="none" x="366.0" y="217.0" font-size="10.0" font-family="helvetica">NT1.8</text>
    </g>
    <g>
     <circle stroke="black" stroke-width="0.5" fill="#aaffff" cx="371.0" cy="799.0" r="1.0"/>
     <text stroke="none" x="371.0" y="799.0" font-size="10.0" font-family="helvetica">NT1.9</text>
    </g>
    <g>
     <circle stroke="black" stroke-width="0.5" fill="#aaffff" cx="379.0" cy="871.0" r="1.0"/>
     <text stroke="none" x="379.0" y="871.0" font-size="10.0" font-family="helvetica">NT1.10</text>
    </g>
    <g>
     <circle stroke="black" stroke-width="0.5" fill="#aaffff" cx="381.0" cy="728.0" r="1.0"/>
     <text stroke="none" x="381.0" y="728.0" font-size="10.0" font-family="helvetica">NT1.11</text>
    </g>
    <g>
     <circle stroke="black" stroke-width="0.5" fill="#aaffff" cx="390.0" cy="362.0" r="1.0"/>
     <text stroke="none" x="390.0" y="362.0" font-size="10.0" font-family="helvetica">NT1.12</text>
    </g>
    <g>
     <circle stroke="black" stroke-width="0.5" fill="#aaffff" cx="390.0" cy="912.0" r="1.0"/>
     <text stroke="none" x="390.0" y="912.0" font-size="10.0" font-family="helvetica">NT1.13</text>
    </g>
    <g>
     <circle stroke="black" stroke-width="0.5" fill="#aaffff" cx="406.0" cy="762.0" r="1.0"/>
     <text stroke="none" x="406.0" y="762.0" font-size="10.0" font-family="helvetica">NT1.14</text>
    </g>
    <g>
     <circle stroke="black" stroke-width="0.5" fill="#aaffff" cx="410.0" cy="104.0" r="1.0"/>
     <text stroke="none" x="410.0" y="104.0" font-size="20.0" font-family="helvetica"/>
    </g>
    <g>
     <circle stroke="black" stroke-width="0.5" fill="#aaffff" cx="410.0" cy="1054.0" r="1.0"/>
     <text stroke="none" x="410.0" y="1054.0" font-size="20.0" font-family="helvetica"/>
    </g>
    <g>
     <circle stroke="black" stroke-width="0.5" fill="#aaffff" cx="411.0" cy="419.0" r="1.0"/>
     <text stroke="none" x="411.0" y="419.0" font-size="10.0" font-family="helvetica">NT1.17</text>
    </g>
    <g>
     <circle stroke="black" stroke-width="0.5" fill="#aaffff" cx="411.0" cy="950.0" r="1.0"/>
     <text stroke="none" x="411.0" y="950.0" font-size="10.0" font-family="helvetica">NT1.18</text>
    </g>
    <g>
     <circle stroke="black" stroke-width="0.5" fill="#aaffff" cx="415.0" cy="240.0" r="1.0"/>
     <text stroke="none" x="415.0" y="240.0" font-size="20.0" font-family="helvetica"/>
    </g>
    <g>
     <circle stroke="black" stroke-width="0.5" fill="#aaffff" cx="415.0" cy="646.0" r="1.0"/>
     <text stroke="none" x="415.0" y="646.0" font-size="20.0" font-family="helvetica"/>
    </g>
    <g>
     <circle stroke="black" stroke-width="0.5" fill="#aaffff" cx="422.0" cy="462.0" r="1.0"/>
     <text stroke="none" x="422.0" y="462.0" font-size="10.0" font-family="helvetica">NT1.21</text>
    </g>
    <g>
     <circle stroke="black" stroke-width="0.5" fill="#aaffff" cx="423.0" cy="195.0" r="1.0"/>
     <text stroke="none" x="423.0" y="195.0" font-size="20.0" font-family="helvetica"/>
    </g>
    <g>
     <circle stroke="black" stroke-width="0.5" fill="#aaffff" cx="423.0" cy="419.0" r="1.0"/>
     <text stroke="none" x="423.0" y="419.0" font-size="20.0" font-family="helvetica"/>
    </g>
    <g>
     <circle stroke="black" stroke-width="0.5" fill="#aaffff" cx="429.0" cy="374.0" r="1.0"/>
     <text stroke="none" x="429.0" y="374.0" font-size="20.0" font-family="helvetica"/>
    </g>
    <g>
     <circle stroke="black" stroke-width="0.5" fill="#aaffff" cx="433.0" cy="308.0" r="1.0"/>
     <text stroke="none" x="433.0" y="308.0" font-size="10.0" font-family="helvetica">NT1.25</text>
    </g>
    <g>
     <circle stroke="black" stroke-width="0.5" fill="#aaffff" cx="434.0" cy="332.0" r="1.0"/>
     <text stroke="none" x="434.0" y="332.0" font-size="20.0" font-family="helvetica"/>
    </g>
    <g>
     <circle stroke="black" stroke-width="0.5" fill="#aaffff" cx="435.0" cy="505.0" r="1.0"/>
     <text stroke="none" x="435.0" y="505.0" font-size="10.0" font-family="helvetica">NT1.27</text>
    </g>
    <g>
     <circle stroke="black" stroke-width="0.5" fill="#aaffff" cx="436.0" cy="465.0" r="1.0"/>
     <text stroke="none" x="436.0" y="465.0" font-size="20.0" font-family="helvetica"/>
    </g>
    <g>
     <circle stroke="black" stroke-width="0.5" fill="#aaffff" cx="442.0" cy="603.0" r="1.0"/>
     <text stroke="none" x="442.0" y="603.0" font-size="20.0" font-family="helvetica"/>
    </g>
    <g>
     <circle stroke="black" stroke-width="0.5" fill="#aaffff" cx="445.0" cy="784.0" r="1.0"/>
     <text stroke="none" x="445.0" y="784.0" font-size="20.0" font-family="helvetica"/>
    </g>
    <g>
     <circle stroke="black" stroke-width="0.5" fill="#aaffff" cx="448.0" cy="738.0" r="1.0"/>
     <text stroke="none" x="448.0" y="738.0" font-size="20.0" font-family="helvetica"/>
    </g>
    <g>
     <circle stroke="black" stroke-width="0.5" fill="#aaffff" cx="448.0" cy="918.0" r="1.0"/>
     <text stroke="none" x="448.0" y="918.0" font-size="20.0" font-family="helvetica"/>
    </g>
    <g>
     <circle stroke="black" stroke-width="0.5" fill="#aaffff" cx="466.0" cy="987.0" r="1.0"/>
     <text stroke="none" x="466.0" y="987.0" font-size="10.0" font-family="helvetica">NT1.33</text>
    </g>
    <g>
     <circle stroke="black" stroke-width="0.5" fill="#aaffff" cx="467.0" cy="149.0" r="1.0"/>
     <text stroke="none" x="467.0" y="149.0" font-size="20.0" font-family="helvetica"/>
    </g>
    <g>
     <circle stroke="black" stroke-width="0.5" fill="#aaffff" cx="467.0" cy="692.0" r="1.0"/>
     <text stroke="none" x="467.0" y="692.0" font-size="20.0" font-family="helvetica"/>
    </g>
    <g>
     <circle stroke="black" stroke-width="0.5" fill="#aaffff" cx="472.0" cy="286.0" r="1.0"/>
     <text stroke="none" x="472.0" y="286.0" font-size="20.0" font-family="helvetica"/>
    </g>
    <g>
     <circle stroke="black" stroke-width="0.5" fill="#aaffff" cx="478.0" cy="1009.0" r="1.0"/>
     <text stroke="none" x="478.0" y="1009.0" font-size="20.0" font-family="helvetica"/>
    </g>
    <g>
     <circle stroke="black" stroke-width="0.5" fill="#aaffff" cx="494.0" cy="963.0" r="1.0"/>
     <text stroke="none" x="494.0" y="963.0" font-size="20.0" font-family="helvetica">ATCC 153057</text>
    </g>
    <g>
     <circle stroke="black" stroke-width="0.5" fill="#aaffff" cx="507.0" cy="875.0" r="1.0"/>
     <text stroke="none" x="507.0" y="875.0" font-size="20.0" font-family="helvetica">DSM 203287</text>
    </g>
    <g>
     <circle stroke="black" stroke-width="0.5" fill="#aaffff" cx="526.0" cy="829.0" r="1.0"/>
     <text stroke="none" x="526.0" y="829.0" font-size="20.0" font-family="helvetica">DSM 203457</text>
    </g>
    <line stroke="black" x1="415.0" y1="240.0" x2="366.0" y2="217.0" stroke-width="0.5"/>
    <line stroke="black" x1="434.0" y1="332.0" x2="433.0" y2="308.0" stroke-width="0.5"/>
    <line stroke="black" x1="472.0" y1="286.0" x2="433.0" y2="308.0" stroke-width="0.5"/>
    <line stroke="black" x1="423.0" y1="419.0" x2="422.0" y2="462.0" stroke-width="0.5"/>
    <line stroke="black" x1="436.0" y1="465.0" x2="435.0" y2="505.0" stroke-width="0.5"/>
    <line stroke="black" x1="445.0" y1="784.0" x2="406.0" y2="762.0" stroke-width="0.5"/>
    <line stroke="black" x1="467.0" y1="692.0" x2="381.0" y2="728.0" stroke-width="0.5"/>
    <line stroke="black" x1="3.0" y1="1102.0" x2="4.0" y2="1100.0" stroke-width="0.5"/>
    <line stroke="black" x1="223.0" y1="1100.0" x2="4.0" y2="1100.0" stroke-width="0.5"/>
    <line stroke="black" x1="355.0" y1="153.0" x2="314.0" y2="437.0" stroke-width="0.5"/>
    <line stroke="black" x1="355.0" y1="153.0" x2="366.0" y2="217.0" stroke-width="0.5"/>
    <line stroke="black" x1="366.0" y1="217.0" x2="390.0" y2="362.0" stroke-width="0.5"/>
    <line stroke="black" x1="390.0" y1="362.0" x2="411.0" y2="419.0" stroke-width="0.5"/>
    <line stroke="black" x1="390.0" y1="362.0" x2="433.0" y2="308.0" stroke-width="0.5"/>
    <line stroke="black" x1="411.0" y1="419.0" x2="422.0" y2="462.0" stroke-width="0.5"/>
    <line stroke="black" x1="314.0" y1="437.0" x2="295.0" y2="747.0" stroke-width="0.5"/>
    <line stroke="black" x1="314.0" y1="437.0" x2="330.0" y2="723.0" stroke-width="0.5"/>
    <line stroke="black" x1="422.0" y1="462.0" x2="435.0" y2="505.0" stroke-width="0.5"/>
    <line stroke="black" x1="330.0" y1="723.0" x2="371.0" y2="799.0" stroke-width="0.5"/>
    <line stroke="black" x1="371.0" y1="799.0" x2="379.0" y2="871.0" stroke-width="0.5"/>
    <line stroke="black" x1="371.0" y1="799.0" x2="381.0" y2="728.0" stroke-width="0.5"/>
    <line stroke="black" x1="381.0" y1="728.0" x2="406.0" y2="762.0" stroke-width="0.5"/>
    <line stroke="black" x1="379.0" y1="871.0" x2="390.0" y2="912.0" stroke-width="0.5"/>
    <line stroke="black" x1="390.0" y1="912.0" x2="411.0" y2="950.0" stroke-width="0.5"/>
    <line stroke="black" x1="411.0" y1="950.0" x2="466.0" y2="987.0" stroke-width="0.5"/>
    <line stroke="black" x1="295.0" y1="747.0" x2="4.0" y2="1100.0" stroke-width="0.5"/>
    <line stroke="black" x1="415.0" y1="646.0" x2="330.0" y2="723.0" stroke-width="0.5"/>
    <line stroke="black" x1="410.0" y1="1054.0" x2="295.0" y2="747.0" stroke-width="0.5"/>
    <line stroke="black" x1="410.0" y1="104.0" x2="355.0" y2="153.0" stroke-width="0.5"/>
    <line stroke="black" x1="423.0" y1="195.0" x2="366.0" y2="217.0" stroke-width="0.5"/>
    <line stroke="black" x1="429.0" y1="374.0" x2="411.0" y2="419.0" stroke-width="0.5"/>
    <line stroke="black" x1="467.0" y1="149.0" x2="366.0" y2="217.0" stroke-width="0.5"/>
    <line stroke="black" x1="448.0" y1="738.0" x2="406.0" y2="762.0" stroke-width="0.5"/>
    <line stroke="black" x1="526.0" y1="829.0" x2="379.0" y2="871.0" stroke-width="0.5"/>
    <line stroke="black" x1="448.0" y1="918.0" x2="411.0" y2="950.0" stroke-width="0.5"/>
    <line stroke="black" x1="507.0" y1="875.0" x2="390.0" y2="912.0" stroke-width="0.5"/>
    <line stroke="black" x1="442.0" y1="603.0" x2="435.0" y2="505.0" stroke-width="0.5"/>
    <line stroke="black" x1="478.0" y1="1009.0" x2="466.0" y2="987.0" stroke-width="0.5"/>
    <line stroke="black" x1="494.0" y1="963.0" x2="466.0" y2="987.0" stroke-width="0.5"/>
   </g>
  </g>
 </svg>
</svg>
