<?xml version="1.0" encoding="UTF-8"?>
<svg height="800.0" width="700.0" xmlns="http://www.w3.org/2000/svg">
 <svg>
  <g>
   <g>
    <g>
     <circle stroke="black" stroke-width="0.5" fill="#aaffff" cx="369.0" cy="423.0" r="1.0"/>
     <text stroke="none" x="369.0" y="423.0" font-size="10.0" font-family="helvetica">NT1.1</text>
    </g>
    <g>
     <circle stroke="black" stroke-width="0.5" fill="#aaffff" cx="369.0" cy="1063.0" r="1.0"/>
     <text stroke="none" x="369.0" y="1063.0" font-size="10.0" font-family="helvetica">NT1.2</text>
    </g>
    <g>
     <circle stroke="black" stroke-width="0.5" fill="#aaffff" cx="501.0" cy="1030.0" r="1.0"/>
     <text stroke="none" x="501.0" y="1030.0" font-size="20.0" font-family="helvetica">100</text>
    </g>
    <g>
     <circle stroke="black" stroke-width="0.5" fill="#aaffff" cx="542.0" cy="1081.0" r="1.0"/>
     <text stroke="none" x="542.0" y="1081.0" font-size="20.0" font-family="helvetica">Aquifex pyrophilus Kol5aT (M83548)</text>
    </g>
    <g>
     <circle stroke="black" stroke-width="0.5" fill="#aaffff" cx="575.0" cy="316.0" r="1.0"/>
     <text stroke="none" x="575.0" y="316.0" font-size="20.0" font-family="helvetica">100</text>
    </g>
    <g>
     <circle stroke="black" stroke-width="0.5" fill="#aaffff" cx="586.0" cy="885.0" r="1.0"/>
     <text stroke="none" x="586.0" y="885.0" font-size="20.0" font-family="helvetica">100</text>
    </g>
    <g>
     <circle stroke="black" stroke-width="0.5" fill="#aaffff" cx="600.0" cy="1045.0" r="1.0"/>
     <text stroke="none" x="600.0" y="1045.0" font-size="20.0" font-family="helvetica">Thermocrinis ruber OC 1l4T (AJOO5640)</text>
    </g>
    <g>
     <circle stroke="black" stroke-width="0.5" fill="#aaffff" cx="635.0" cy="1010.0" r="1.0"/>
     <text stroke="none" x="635.0" y="1010.0" font-size="20.0" font-family="helvetica">Hydrogenobacter thermophilus TK-6T (230214)</text>
    </g>
    <g>
     <circle stroke="black" stroke-width="0.5" fill="#aaffff" cx="641.0" cy="208.0" r="1.0"/>
     <text stroke="none" x="641.0" y="208.0" font-size="20.0" font-family="helvetica">100</text>
    </g>
    <g>
     <circle stroke="black" stroke-width="0.5" fill="#aaffff" cx="660.0" cy="956.0" r="1.0"/>
     <text stroke="none" x="660.0" y="956.0" font-size="20.0" font-family="helvetica">97</text>
    </g>
    <g>
     <circle stroke="black" stroke-width="0.5" fill="#aaffff" cx="693.0" cy="173.0" r="1.0"/>
     <text stroke="none" x="693.0" y="173.0" font-size="20.0" font-family="helvetica">61</text>
    </g>
    <g>
     <circle stroke="black" stroke-width="0.5" fill="#aaffff" cx="693.0" cy="277.0" r="1.0"/>
     <text stroke="none" x="693.0" y="277.0" font-size="20.0" font-family="helvetica">99</text>
    </g>
    <g>
     <circle stroke="black" stroke-width="0.5" fill="#aaffff" cx="718.0" cy="923.0" r="1.0"/>
     <text stroke="none" x="718.0" y="923.0" font-size="20.0" font-family="helvetica">68</text>
    </g>
    <g>
     <circle stroke="black" stroke-width="0.5" fill="#aaffff" cx="729.0" cy="66.0" r="1.0"/>
     <text stroke="none" x="729.0" y="66.0" font-size="20.0" font-family="helvetica">54</text>
    </g>
    <g>
     <circle stroke="black" stroke-width="0.5" fill="#aaffff" cx="730.0" cy="136.0" r="1.0"/>
     <text stroke="none" x="730.0" y="136.0" font-size="20.0" font-family="helvetica">35</text>
    </g>
    <g>
     <circle stroke="black" stroke-width="0.5" fill="#aaffff" cx="732.0" cy="385.0" r="1.0"/>
     <text stroke="none" x="732.0" y="385.0" font-size="20.0" font-family="helvetica">100</text>
    </g>
    <g>
     <circle stroke="black" stroke-width="0.5" fill="#aaffff" cx="748.0" cy="298.0" r="1.0"/>
     <text stroke="none" x="748.0" y="298.0" font-size="20.0" font-family="helvetica">Geobacter sulfurreducens PCAT (U 1 3928)</text>
    </g>
    <g>
     <circle stroke="black" stroke-width="0.5" fill="#aaffff" cx="754.0" cy="351.0" r="1.0"/>
     <text stroke="none" x="754.0" y="351.0" font-size="20.0" font-family="helvetica">100</text>
    </g>
    <g>
     <circle stroke="black" stroke-width="0.5" fill="#aaffff" cx="767.0" cy="262.0" r="1.0"/>
     <text stroke="none" x="767.0" y="262.0" font-size="20.0" font-family="helvetica">Geobacter metallireducens GS-15T (LO7834)</text>
    </g>
    <g>
     <circle stroke="black" stroke-width="0.5" fill="#aaffff" cx="770.0" cy="84.0" r="1.0"/>
     <text stroke="none" x="770.0" y="84.0" font-size="20.0" font-family="helvetica">Geobacter toluenoxydans TMJ1T (EU711072)</text>
    </g>
    <g>
     <circle stroke="black" stroke-width="0.5" fill="#aaffff" cx="770.0" cy="673.0" r="1.0"/>
     <text stroke="none" x="770.0" y="673.0" font-size="20.0" font-family="helvetica">99</text>
    </g>
    <g>
     <circle stroke="black" stroke-width="0.5" fill="#aaffff" cx="779.0" cy="30.0" r="1.0"/>
     <text stroke="none" x="779.0" y="30.0" font-size="20.0" font-family="helvetica">91</text>
    </g>
    <g>
     <circle stroke="black" stroke-width="0.5" fill="#aaffff" cx="800.0" cy="12.0" r="1.0"/>
     <text stroke="none" x="800.0" y="12.0" font-size="20.0" font-family="helvetica">(Geobacter humireducens' JW3 (AY187306)</text>
    </g>
    <g>
     <circle stroke="black" stroke-width="0.5" fill="#aaffff" cx="800.0" cy="191.0" r="1.0"/>
     <text stroke="none" x="800.0" y="191.0" font-size="20.0" font-family="helvetica">Geobacter pelophilus Dfr2T (U96918)</text>
    </g>
    <g>
     <circle stroke="black" stroke-width="0.5" fill="#aaffff" cx="808.0" cy="119.0" r="1.0"/>
     <text stroke="none" x="808.0" y="119.0" font-size="20.0" font-family="helvetica">Geobacter chapellei 1 727 (U41561)</text>
    </g>
    <g>
     <circle stroke="black" stroke-width="0.5" fill="#aaffff" cx="808.0" cy="155.0" r="1.0"/>
     <text stroke="none" x="808.0" y="155.0" font-size="20.0" font-family="helvetica">Pelobacter propionicus Ott Bd 17 (X70954)</text>
    </g>
    <g>
     <circle stroke="black" stroke-width="0.5" fill="#aaffff" cx="817.0" cy="849.0" r="1.0"/>
     <text stroke="none" x="817.0" y="849.0" font-size="20.0" font-family="helvetica">76</text>
    </g>
    <g>
     <circle stroke="black" stroke-width="0.5" fill="#aaffff" cx="822.0" cy="48.0" r="1.0"/>
     <text stroke="none" x="822.0" y="48.0" font-size="20.0" font-family="helvetica">Geobacter bremensis Dfr1T (U9691 7)</text>
    </g>
    <g>
     <circle stroke="black" stroke-width="0.5" fill="#aaffff" cx="823.0" cy="565.0" r="1.0"/>
     <text stroke="none" x="823.0" y="565.0" font-size="20.0" font-family="helvetica">94</text>
    </g>
    <g>
     <circle stroke="black" stroke-width="0.5" fill="#aaffff" cx="833.0" cy="636.0" r="1.0"/>
     <text stroke="none" x="833.0" y="636.0" font-size="10.0" font-family="helvetica">NT1.30</text>
    </g>
    <g>
     <circle stroke="black" stroke-width="0.5" fill="#aaffff" cx="834.0" cy="815.0" r="1.0"/>
     <text stroke="none" x="834.0" y="815.0" font-size="10.0" font-family="helvetica">NT1.31</text>
    </g>
    <g>
     <circle stroke="black" stroke-width="0.5" fill="#aaffff" cx="839.0" cy="405.0" r="1.0"/>
     <text stroke="none" x="839.0" y="405.0" font-size="20.0" font-family="helvetica">Desulfuromonas acetoxidans DSM 684T (M26634)</text>
    </g>
    <g>
     <circle stroke="black" stroke-width="0.5" fill="#aaffff" cx="845.0" cy="530.0" r="1.0"/>
     <text stroke="none" x="845.0" y="530.0" font-size="20.0" font-family="helvetica">96</text>
    </g>
    <g>
     <circle stroke="black" stroke-width="0.5" fill="#aaffff" cx="850.0" cy="334.0" r="1.0"/>
     <text stroke="none" x="850.0" y="334.0" font-size="20.0" font-family="helvetica">Desulfurornonas palmitatis SDBY1T (U281 72)</text>
    </g>
    <g>
     <circle stroke="black" stroke-width="0.5" fill="#aaffff" cx="852.0" cy="370.0" r="1.0"/>
     <text stroke="none" x="852.0" y="370.0" font-size="20.0" font-family="helvetica">Pelobacter carbinolicus Gra Bd 1T (X79413)</text>
    </g>
    <g>
     <circle stroke="black" stroke-width="0.5" fill="#aaffff" cx="858.0" cy="581.0" r="1.0"/>
     <text stroke="none" x="858.0" y="581.0" font-size="20.0" font-family="helvetica">Desulfosporosinus orientis DSM 7657 (Y1 1570)</text>
    </g>
    <g>
     <circle stroke="black" stroke-width="0.5" fill="#aaffff" cx="866.0" cy="780.0" r="1.0"/>
     <text stroke="none" x="866.0" y="780.0" font-size="20.0" font-family="helvetica">63</text>
    </g>
    <g>
     <circle stroke="black" stroke-width="0.5" fill="#aaffff" cx="877.0" cy="494.0" r="1.0"/>
     <text stroke="none" x="877.0" y="494.0" font-size="20.0" font-family="helvetica">97</text>
    </g>
    <g>
     <circle stroke="black" stroke-width="0.5" fill="#aaffff" cx="881.0" cy="476.0" r="1.0"/>
     <text stroke="none" x="881.0" y="476.0" font-size="10.0" font-family="helvetica">NT1.39</text>
    </g>
    <g>
     <circle stroke="black" stroke-width="0.5" fill="#aaffff" cx="888.0" cy="744.0" r="1.0"/>
     <text stroke="none" x="888.0" y="744.0" font-size="20.0" font-family="helvetica">71</text>
    </g>
    <g>
     <circle stroke="black" stroke-width="0.5" fill="#aaffff" cx="899.0" cy="760.0" r="1.0"/>
     <text stroke="none" x="899.0" y="760.0" font-size="20.0" font-family="helvetica">Desulfitobacterium chlororespirans Co23T (U68528)</text>
    </g>
    <g>
     <circle stroke="black" stroke-width="0.5" fill="#aaffff" cx="902.0" cy="441.0" r="1.0"/>
     <text stroke="none" x="902.0" y="441.0" font-size="20.0" font-family="helvetica">Desulfosporosinus sp. S10 (AFO76527)</text>
    </g>
    <g>
     <circle stroke="black" stroke-width="0.5" fill="#aaffff" cx="902.0" cy="795.0" r="1.0"/>
     <text stroke="none" x="902.0" y="795.0" font-size="20.0" font-family="helvetica">Desulfitobacterium dehalogenans JWHU-DC1T (L28946)</text>
    </g>
    <g>
     <circle stroke="black" stroke-width="0.5" fill="#aaffff" cx="904.0" cy="476.0" r="1.0"/>
     <text stroke="none" x="904.0" y="476.0" font-size="20.0" font-family="helvetica">Desulfosporosinus sp. T1</text>
    </g>
    <g>
     <circle stroke="black" stroke-width="0.5" fill="#aaffff" cx="904.0" cy="512.0" r="1.0"/>
     <text stroke="none" x="904.0" y="512.0" font-size="20.0" font-family="helvetica">Desulfosporosinus hippei DSM 8344T (Y1 1571)</text>
    </g>
    <g>
     <circle stroke="black" stroke-width="0.5" fill="#aaffff" cx="910.0" cy="938.0" r="1.0"/>
     <text stroke="none" x="910.0" y="938.0" font-size="20.0" font-family="helvetica">Desulfotomaculum sp. 0x39 (AJ577273)</text>
    </g>
    <g>
     <circle stroke="black" stroke-width="0.5" fill="#aaffff" cx="910.0" cy="545.0" r="1.0"/>
     <text stroke="none" x="910.0" y="545.0" font-size="20.0" font-family="helvetica">Desulfosporosinus lacus STP1 27 (AJ582757)</text>
    </g>
    <g>
     <circle stroke="black" stroke-width="0.5" fill="#aaffff" cx="915.0" cy="867.0" r="1.0"/>
     <text stroke="none" x="915.0" y="867.0" font-size="20.0" font-family="helvetica">Desulfitobacterium aromaticivorans UKTLT (EU711071)</text>
    </g>
    <g>
     <circle stroke="black" stroke-width="0.5" fill="#aaffff" cx="919.0" cy="708.0" r="1.0"/>
     <text stroke="none" x="919.0" y="708.0" font-size="20.0" font-family="helvetica">92</text>
    </g>
    <g>
     <circle stroke="black" stroke-width="0.5" fill="#aaffff" cx="924.0" cy="831.0" r="1.0"/>
     <text stroke="none" x="924.0" y="831.0" font-size="20.0" font-family="helvetica">Desulfitobacterium metallireducens 853-15AT (AF297871)</text>
    </g>
    <g>
     <circle stroke="black" stroke-width="0.5" fill="#aaffff" cx="926.0" cy="724.0" r="1.0"/>
     <text stroke="none" x="926.0" y="724.0" font-size="20.0" font-family="helvetica">Desulfitobacterium hafniense DCB-27 (X94975)</text>
    </g>
    <g>
     <circle stroke="black" stroke-width="0.5" fill="#aaffff" cx="940.0" cy="688.0" r="1.0"/>
     <text stroke="none" x="940.0" y="688.0" font-size="20.0" font-family="helvetica">Desulfitobacterium hafniense PCP-1</text>
    </g>
    <g>
     <circle stroke="black" stroke-width="0.5" fill="#aaffff" cx="954.0" cy="903.0" r="1.0"/>
     <text stroke="none" x="954.0" y="903.0" font-size="20.0" font-family="helvetica">Desulfotomaculum kuznetsovii DSM 61 157 (Y1 1 569)</text>
    </g>
    <g>
     <circle stroke="black" stroke-width="0.5" fill="#aaffff" cx="957.0" cy="974.0" r="1.0"/>
     <text stroke="none" x="957.0" y="974.0" font-size="20.0" font-family="helvetica">Desullotomaculum acetoxidans DSM 7717 (Y1 1566)</text>
    </g>
    <g>
     <circle stroke="black" stroke-width="0.5" fill="#aaffff" cx="985.0" cy="617.0" r="1.0"/>
     <text stroke="none" x="985.0" y="617.0" font-size="20.0" font-family="helvetica">Dehalobacter restrictus TEA (Y101 64)</text>
    </g>
    <g>
     <circle stroke="black" stroke-width="0.5" fill="#aaffff" cx="1031.0" cy="652.0" r="1.0"/>
     <text stroke="none" x="1031.0" y="652.0" font-size="20.0" font-family="helvetica">Syntrophobotulus glycolicus SlGlym (X99706)</text>
    </g>
    <line stroke="black" x1="770.0" y1="84.0" x2="729.0" y2="66.0" stroke-width="0.5"/>
    <line stroke="black" x1="808.0" y1="119.0" x2="730.0" y2="136.0" stroke-width="0.5"/>
    <line stroke="black" x1="800.0" y1="191.0" x2="693.0" y2="173.0" stroke-width="0.5"/>
    <line stroke="black" x1="748.0" y1="298.0" x2="693.0" y2="277.0" stroke-width="0.5"/>
    <line stroke="black" x1="839.0" y1="405.0" x2="732.0" y2="385.0" stroke-width="0.5"/>
    <line stroke="black" x1="850.0" y1="334.0" x2="754.0" y2="351.0" stroke-width="0.5"/>
    <line stroke="black" x1="852.0" y1="370.0" x2="754.0" y2="351.0" stroke-width="0.5"/>
    <line stroke="black" x1="957.0" y1="974.0" x2="660.0" y2="956.0" stroke-width="0.5"/>
    <line stroke="black" x1="954.0" y1="903.0" x2="718.0" y2="923.0" stroke-width="0.5"/>
    <line stroke="black" x1="858.0" y1="581.0" x2="823.0" y2="565.0" stroke-width="0.5"/>
    <line stroke="black" x1="910.0" y1="545.0" x2="845.0" y2="530.0" stroke-width="0.5"/>
    <line stroke="black" x1="904.0" y1="476.0" x2="881.0" y2="476.0" stroke-width="0.5"/>
    <line stroke="black" x1="904.0" y1="512.0" x2="877.0" y2="494.0" stroke-width="0.5"/>
    <line stroke="black" x1="915.0" y1="867.0" x2="817.0" y2="849.0" stroke-width="0.5"/>
    <line stroke="black" x1="902.0" y1="441.0" x2="881.0" y2="476.0" stroke-width="0.5"/>
    <line stroke="black" x1="902.0" y1="795.0" x2="866.0" y2="780.0" stroke-width="0.5"/>
    <line stroke="black" x1="899.0" y1="760.0" x2="888.0" y2="744.0" stroke-width="0.5"/>
    <line stroke="black" x1="542.0" y1="1081.0" x2="369.0" y2="1063.0" stroke-width="0.5"/>
    <line stroke="black" x1="600.0" y1="1045.0" x2="501.0" y2="1030.0" stroke-width="0.5"/>
    <line stroke="black" x1="635.0" y1="1010.0" x2="501.0" y2="1030.0" stroke-width="0.5"/>
    <line stroke="black" x1="779.0" y1="30.0" x2="729.0" y2="66.0" stroke-width="0.5"/>
    <line stroke="black" x1="729.0" y1="66.0" x2="730.0" y2="136.0" stroke-width="0.5"/>
    <line stroke="black" x1="730.0" y1="136.0" x2="693.0" y2="173.0" stroke-width="0.5"/>
    <line stroke="black" x1="693.0" y1="173.0" x2="641.0" y2="208.0" stroke-width="0.5"/>
    <line stroke="black" x1="641.0" y1="208.0" x2="575.0" y2="316.0" stroke-width="0.5"/>
    <line stroke="black" x1="641.0" y1="208.0" x2="693.0" y2="277.0" stroke-width="0.5"/>
    <line stroke="black" x1="575.0" y1="316.0" x2="369.0" y2="423.0" stroke-width="0.5"/>
    <line stroke="black" x1="575.0" y1="316.0" x2="732.0" y2="385.0" stroke-width="0.5"/>
    <line stroke="black" x1="732.0" y1="385.0" x2="754.0" y2="351.0" stroke-width="0.5"/>
    <line stroke="black" x1="369.0" y1="423.0" x2="586.0" y2="885.0" stroke-width="0.5"/>
    <line stroke="black" x1="586.0" y1="885.0" x2="660.0" y2="956.0" stroke-width="0.5"/>
    <line stroke="black" x1="586.0" y1="885.0" x2="770.0" y2="673.0" stroke-width="0.5"/>
    <line stroke="black" x1="660.0" y1="956.0" x2="718.0" y2="923.0" stroke-width="0.5"/>
    <line stroke="black" x1="770.0" y1="673.0" x2="817.0" y2="849.0" stroke-width="0.5"/>
    <line stroke="black" x1="770.0" y1="673.0" x2="833.0" y2="636.0" stroke-width="0.5"/>
    <line stroke="black" x1="833.0" y1="636.0" x2="823.0" y2="565.0" stroke-width="0.5"/>
    <line stroke="black" x1="823.0" y1="565.0" x2="845.0" y2="530.0" stroke-width="0.5"/>
    <line stroke="black" x1="845.0" y1="530.0" x2="877.0" y2="494.0" stroke-width="0.5"/>
    <line stroke="black" x1="817.0" y1="849.0" x2="834.0" y2="815.0" stroke-width="0.5"/>
    <line stroke="black" x1="834.0" y1="815.0" x2="866.0" y2="780.0" stroke-width="0.5"/>
    <line stroke="black" x1="877.0" y1="494.0" x2="881.0" y2="476.0" stroke-width="0.5"/>
    <line stroke="black" x1="369.0" y1="1063.0" x2="501.0" y2="1030.0" stroke-width="0.5"/>
    <line stroke="black" x1="866.0" y1="780.0" x2="888.0" y2="744.0" stroke-width="0.5"/>
    <line stroke="black" x1="888.0" y1="744.0" x2="919.0" y2="708.0" stroke-width="0.5"/>
    <line stroke="black" x1="369.0" y1="423.0" x2="369.0" y2="1063.0" stroke-width="0.5"/>
    <line stroke="black" x1="767.0" y1="262.0" x2="693.0" y2="277.0" stroke-width="0.5"/>
    <line stroke="black" x1="808.0" y1="155.0" x2="730.0" y2="136.0" stroke-width="0.5"/>
    <line stroke="black" x1="910.0" y1="938.0" x2="718.0" y2="923.0" stroke-width="0.5"/>
    <line stroke="black" x1="800.0" y1="12.0" x2="779.0" y2="30.0" stroke-width="0.5"/>
    <line stroke="black" x1="822.0" y1="48.0" x2="779.0" y2="30.0" stroke-width="0.5"/>
    <line stroke="black" x1="924.0" y1="831.0" x2="834.0" y2="815.0" stroke-width="0.5"/>
    <line stroke="black" x1="926.0" y1="724.0" x2="919.0" y2="708.0" stroke-width="0.5"/>
    <line stroke="black" x1="985.0" y1="617.0" x2="833.0" y2="636.0" stroke-width="0.5"/>
    <line stroke="black" x1="940.0" y1="688.0" x2="919.0" y2="708.0" stroke-width="0.5"/>
    <line stroke="black" x1="1031.0" y1="652.0" x2="833.0" y2="636.0" stroke-width="0.5"/>
   </g>
  </g>
 </svg>
</svg>
