<?xml version="1.0" encoding="UTF-8"?>
<svg height="800.0" width="700.0" xmlns="http://www.w3.org/2000/svg">
 <svg>
  <g>
   <g>
    <g>
     <circle stroke="black" stroke-width="0.5" fill="#aaffff" cx="0.0" cy="439.0" r="1.0"/>
     <text stroke="none" x="0.0" y="439.0" font-size="20.0" font-family="helvetica"/>
    </g>
    <g>
     <circle stroke="black" stroke-width="0.5" fill="#aaffff" cx="17.0" cy="439.0" r="1.0"/>
     <text stroke="none" x="17.0" y="439.0" font-size="10.0" font-family="helvetica">NT1.2</text>
    </g>
    <g>
     <circle stroke="black" stroke-width="0.5" fill="#aaffff" cx="29.0" cy="305.0" r="1.0"/>
     <text stroke="none" x="29.0" y="305.0" font-size="10.0" font-family="helvetica">NT1.3</text>
    </g>
    <g>
     <circle stroke="black" stroke-width="0.5" fill="#aaffff" cx="40.0" cy="405.0" r="1.0"/>
     <text stroke="none" x="40.0" y="405.0" font-size="10.0" font-family="helvetica">NT1.4</text>
    </g>
    <g>
     <circle stroke="black" stroke-width="0.5" fill="#aaffff" cx="43.0" cy="225.0" r="1.0"/>
     <text stroke="none" x="43.0" y="225.0" font-size="10.0" font-family="helvetica">NT1.5</text>
    </g>
    <g>
     <circle stroke="black" stroke-width="0.5" fill="#aaffff" cx="57.0" cy="264.0" r="1.0"/>
     <text stroke="none" x="57.0" y="264.0" font-size="10.0" font-family="helvetica">NT1.6</text>
    </g>
    <g>
     <circle stroke="black" stroke-width="0.5" fill="#aaffff" cx="61.0" cy="240.0" r="1.0"/>
     <text stroke="none" x="61.0" y="240.0" font-size="10.0" font-family="helvetica">NT1.7</text>
    </g>
    <g>
     <circle stroke="black" stroke-width="0.5" fill="#aaffff" cx="88.0" cy="572.0" r="1.0"/>
     <text stroke="none" x="88.0" y="572.0" font-size="10.0" font-family="helvetica">NT1.8</text>
    </g>
    <g>
     <circle stroke="black" stroke-width="0.5" fill="#aaffff" cx="96.0" cy="372.0" r="1.0"/>
     <text stroke="none" x="96.0" y="372.0" font-size="10.0" font-family="helvetica">NT1.9</text>
    </g>
    <g>
     <circle stroke="black" stroke-width="0.5" fill="#aaffff" cx="116.0" cy="147.0" r="1.0"/>
     <text stroke="none" x="116.0" y="147.0" font-size="10.0" font-family="helvetica">NT1.10</text>
    </g>
    <g>
     <circle stroke="black" stroke-width="0.5" fill="#aaffff" cx="116.0" cy="345.0" r="1.0"/>
     <text stroke="none" x="116.0" y="345.0" font-size="10.0" font-family="helvetica">NT1.11</text>
    </g>
    <g>
     <circle stroke="black" stroke-width="0.5" fill="#aaffff" cx="122.0" cy="108.0" r="1.0"/>
     <text stroke="none" x="122.0" y="108.0" font-size="20.0" font-family="helvetica">54</text>
    </g>
    <g>
     <circle stroke="black" stroke-width="0.5" fill="#aaffff" cx="135.0" cy="521.0" r="1.0"/>
     <text stroke="none" x="135.0" y="521.0" font-size="10.0" font-family="helvetica">NT1.13</text>
    </g>
    <g>
     <circle stroke="black" stroke-width="0.5" fill="#aaffff" cx="148.0" cy="64.0" r="1.0"/>
     <text stroke="none" x="148.0" y="64.0" font-size="10.0" font-family="helvetica">NT1.14</text>
    </g>
    <g>
     <circle stroke="black" stroke-width="0.5" fill="#aaffff" cx="151.0" cy="555.0" r="1.0"/>
     <text stroke="none" x="151.0" y="555.0" font-size="20.0" font-family="helvetica">60</text>
    </g>
    <g>
     <circle stroke="black" stroke-width="0.5" fill="#aaffff" cx="155.0" cy="29.0" r="1.0"/>
     <text stroke="none" x="155.0" y="29.0" font-size="20.0" font-family="helvetica">68</text>
    </g>
    <g>
     <circle stroke="black" stroke-width="0.5" fill="#aaffff" cx="168.0" cy="486.0" r="1.0"/>
     <text stroke="none" x="168.0" y="486.0" font-size="10.0" font-family="helvetica">NT1.17</text>
    </g>
    <g>
     <circle stroke="black" stroke-width="0.5" fill="#aaffff" cx="172.0" cy="573.0" r="1.0"/>
     <text stroke="none" x="172.0" y="573.0" font-size="10.0" font-family="helvetica">NT1.18</text>
    </g>
    <g>
     <circle stroke="black" stroke-width="0.5" fill="#aaffff" cx="173.0" cy="98.0" r="1.0"/>
     <text stroke="none" x="173.0" y="98.0" font-size="10.0" font-family="helvetica">NT1.19</text>
    </g>
    <g>
     <circle stroke="black" stroke-width="0.5" fill="#aaffff" cx="199.0" cy="362.0" r="1.0"/>
     <text stroke="none" x="199.0" y="362.0" font-size="20.0" font-family="helvetica">Pelotomaculum schinkii HH7 (X91170)</text>
    </g>
    <g>
     <circle stroke="black" stroke-width="0.5" fill="#aaffff" cx="205.0" cy="503.0" r="1.0"/>
     <text stroke="none" x="205.0" y="503.0" font-size="20.0" font-family="helvetica">Desulfotomaculum solfataricum V217 (AY08407B)</text>
    </g>
    <g>
     <circle stroke="black" stroke-width="0.5" fill="#aaffff" cx="207.0" cy="327.0" r="1.0"/>
     <text stroke="none" x="207.0" y="327.0" font-size="20.0" font-family="helvetica">Cryptanaerobacter phenolicus LR7.27 (AY327251)</text>
    </g>
    <g>
     <circle stroke="black" stroke-width="0.5" fill="#aaffff" cx="209.0" cy="627.0" r="1.0"/>
     <text stroke="none" x="209.0" y="627.0" font-size="10.0" font-family="helvetica">NT1.23</text>
    </g>
    <g>
     <circle stroke="black" stroke-width="0.5" fill="#aaffff" cx="222.0" cy="467.0" r="1.0"/>
     <text stroke="none" x="222.0" y="467.0" font-size="10.0" font-family="helvetica">NT1.24</text>
    </g>
    <g>
     <circle stroke="black" stroke-width="0.5" fill="#aaffff" cx="228.0" cy="46.0" r="1.0"/>
     <text stroke="none" x="228.0" y="46.0" font-size="20.0" font-family="helvetica">Desulfotomaculum thermosapovorans DSM 65627 (Y11575)</text>
    </g>
    <g>
     <circle stroke="black" stroke-width="0.5" fill="#aaffff" cx="235.0" cy="11.0" r="1.0"/>
     <text stroke="none" x="235.0" y="11.0" font-size="20.0" font-family="helvetica">Desulfotomaculum sapomandens DSM 32237 (AF168365)</text>
    </g>
    <g>
     <circle stroke="black" stroke-width="0.5" fill="#aaffff" cx="237.0" cy="397.0" r="1.0"/>
     <text stroke="none" x="237.0" y="397.0" font-size="20.0" font-family="helvetica">Pelotomaculum thermopropionicum SI7 (AB035723)</text>
    </g>
    <g>
     <circle stroke="black" stroke-width="0.5" fill="#aaffff" cx="237.0" cy="537.0" r="1.0"/>
     <text stroke="none" x="237.0" y="537.0" font-size="10.0" font-family="helvetica">NT1.28</text>
    </g>
    <g>
     <circle stroke="black" stroke-width="0.5" fill="#aaffff" cx="238.0" cy="151.0" r="1.0"/>
     <text stroke="none" x="238.0" y="151.0" font-size="20.0" font-family="helvetica">Desulfotomaculum arcticum 157 (DQ148942)</text>
    </g>
    <g>
     <circle stroke="black" stroke-width="0.5" fill="#aaffff" cx="250.0" cy="292.0" r="1.0"/>
     <text stroke="none" x="250.0" y="292.0" font-size="20.0" font-family="helvetica">Desulfotomaculum alkaliphilum S17 (AF097024)</text>
    </g>
    <g>
     <circle stroke="black" stroke-width="0.5" fill="#aaffff" cx="258.0" cy="186.0" r="1.0"/>
     <text stroke="none" x="258.0" y="186.0" font-size="20.0" font-family="helvetica">Desulfotomaculum geothermicum DSM 36697 (Y11567)</text>
    </g>
    <g>
     <circle stroke="black" stroke-width="0.5" fill="#aaffff" cx="260.0" cy="257.0" r="1.0"/>
     <text stroke="none" x="260.0" y="257.0" font-size="20.0" font-family="helvetica">Desulfotomaculum nigrificans NCIMB 83957 (X62176)</text>
    </g>
    <g>
     <circle stroke="black" stroke-width="0.5" fill="#aaffff" cx="267.0" cy="433.0" r="1.0"/>
     <text stroke="none" x="267.0" y="433.0" font-size="10.0" font-family="helvetica">NT1.33</text>
    </g>
    <g>
     <circle stroke="black" stroke-width="0.5" fill="#aaffff" cx="277.0" cy="81.0" r="1.0"/>
     <text stroke="none" x="277.0" y="81.0" font-size="20.0" font-family="helvetica">Sporotomaculum hydroxybenzoicum DSM 54757 (Y14845)</text>
    </g>
    <g>
     <circle stroke="black" stroke-width="0.5" fill="#aaffff" cx="291.0" cy="221.0" r="1.0"/>
     <text stroke="none" x="291.0" y="221.0" font-size="20.0" font-family="helvetica">Desulfotomaculum acetoxidans DSM 7717 (Y11566)</text>
    </g>
    <g>
     <circle stroke="black" stroke-width="0.5" fill="#aaffff" cx="293.0" cy="116.0" r="1.0"/>
     <text stroke="none" x="293.0" y="116.0" font-size="20.0" font-family="helvetica">Sporotomaculum syntrophicum FB7 (AB076610)</text>
    </g>
    <line stroke="black" x1="277.0" y1="81.0" x2="173.0" y2="98.0" stroke-width="0.5"/>
    <line stroke="black" x1="258.0" y1="186.0" x2="116.0" y2="147.0" stroke-width="0.5"/>
    <line stroke="black" x1="0.0" y1="439.0" x2="17.0" y2="439.0" stroke-width="0.5"/>
    <line stroke="black" x1="260.0" y1="257.0" x2="61.0" y2="240.0" stroke-width="0.5"/>
    <line stroke="black" x1="207.0" y1="327.0" x2="116.0" y2="345.0" stroke-width="0.5"/>
    <line stroke="black" x1="237.0" y1="397.0" x2="96.0" y2="372.0" stroke-width="0.5"/>
    <line stroke="black" x1="205.0" y1="503.0" x2="168.0" y2="486.0" stroke-width="0.5"/>
    <line stroke="black" x1="155.0" y1="29.0" x2="148.0" y2="64.0" stroke-width="0.5"/>
    <line stroke="black" x1="148.0" y1="64.0" x2="122.0" y2="108.0" stroke-width="0.5"/>
    <line stroke="black" x1="148.0" y1="64.0" x2="173.0" y2="98.0" stroke-width="0.5"/>
    <line stroke="black" x1="122.0" y1="108.0" x2="116.0" y2="147.0" stroke-width="0.5"/>
    <line stroke="black" x1="116.0" y1="147.0" x2="43.0" y2="225.0" stroke-width="0.5"/>
    <line stroke="black" x1="43.0" y1="225.0" x2="29.0" y2="305.0" stroke-width="0.5"/>
    <line stroke="black" x1="43.0" y1="225.0" x2="57.0" y2="264.0" stroke-width="0.5"/>
    <line stroke="black" x1="57.0" y1="264.0" x2="61.0" y2="240.0" stroke-width="0.5"/>
    <line stroke="black" x1="29.0" y1="305.0" x2="17.0" y2="439.0" stroke-width="0.5"/>
    <line stroke="black" x1="40.0" y1="405.0" x2="96.0" y2="372.0" stroke-width="0.5"/>
    <line stroke="black" x1="96.0" y1="372.0" x2="116.0" y2="345.0" stroke-width="0.5"/>
    <line stroke="black" x1="250.0" y1="292.0" x2="57.0" y2="264.0" stroke-width="0.5"/>
    <line stroke="black" x1="291.0" y1="221.0" x2="61.0" y2="240.0" stroke-width="0.5"/>
    <line stroke="black" x1="199.0" y1="362.0" x2="116.0" y2="345.0" stroke-width="0.5"/>
    <line stroke="black" x1="238.0" y1="151.0" x2="122.0" y2="108.0" stroke-width="0.5"/>
    <line stroke="black" x1="228.0" y1="46.0" x2="155.0" y2="29.0" stroke-width="0.5"/>
    <line stroke="black" x1="235.0" y1="11.0" x2="155.0" y2="29.0" stroke-width="0.5"/>
    <line stroke="black" x1="293.0" y1="116.0" x2="173.0" y2="98.0" stroke-width="0.5"/>
   </g>
  </g>
 </svg>
</svg>
