<?xml version="1.0" encoding="UTF-8"?>
<svg height="800.0" width="700.0" xmlns="http://www.w3.org/2000/svg">
 <svg>
  <g>
   <g>
    <g>
     <circle stroke="black" stroke-width="0.5" fill="#aaffff" cx="1.0" cy="272.0" r="1.0"/>
     <text stroke="none" x="1.0" y="272.0" font-size="20.0" font-family="helvetica"/>
    </g>
    <g>
     <circle stroke="black" stroke-width="0.5" fill="#aaffff" cx="15.0" cy="318.0" r="1.0"/>
     <text stroke="none" x="15.0" y="318.0" font-size="10.0" font-family="helvetica">NT1.2</text>
    </g>
    <g>
     <circle stroke="black" stroke-width="0.5" fill="#aaffff" cx="39.0" cy="174.0" r="1.0"/>
     <text stroke="none" x="39.0" y="174.0" font-size="10.0" font-family="helvetica">NT1.3</text>
    </g>
    <g>
     <circle stroke="black" stroke-width="0.5" fill="#aaffff" cx="60.0" cy="106.0" r="1.0"/>
     <text stroke="none" x="60.0" y="106.0" font-size="10.0" font-family="helvetica">NT1.4</text>
    </g>
    <g>
     <circle stroke="black" stroke-width="0.5" fill="#aaffff" cx="60.0" cy="242.0" r="1.0"/>
     <text stroke="none" x="60.0" y="242.0" font-size="10.0" font-family="helvetica">NT1.5</text>
    </g>
    <g>
     <circle stroke="black" stroke-width="0.5" fill="#aaffff" cx="67.0" cy="278.0" r="1.0"/>
     <text stroke="none" x="67.0" y="278.0" font-size="20.0" font-family="helvetica">98</text>
    </g>
    <g>
     <circle stroke="black" stroke-width="0.5" fill="#aaffff" cx="94.0" cy="145.0" r="1.0"/>
     <text stroke="none" x="94.0" y="145.0" font-size="10.0" font-family="helvetica">NT1.7</text>
    </g>
    <g>
     <circle stroke="black" stroke-width="0.5" fill="#aaffff" cx="121.0" cy="308.0" r="1.0"/>
     <text stroke="none" x="121.0" y="308.0" font-size="20.0" font-family="helvetica">98</text>
    </g>
    <g>
     <circle stroke="black" stroke-width="0.5" fill="#aaffff" cx="189.0" cy="207.0" r="1.0"/>
     <text stroke="none" x="189.0" y="207.0" font-size="20.0" font-family="helvetica">Azoarcus indigens VB32T (L15531)</text>
    </g>
    <g>
     <circle stroke="black" stroke-width="0.5" fill="#aaffff" cx="190.0" cy="167.0" r="1.0"/>
     <text stroke="none" x="190.0" y="167.0" font-size="20.0" font-family="helvetica">Thiobacillus thioparus ATCC 8158T (M79426)</text>
    </g>
    <g>
     <circle stroke="black" stroke-width="0.5" fill="#aaffff" cx="191.0" cy="65.0" r="1.0"/>
     <text stroke="none" x="191.0" y="65.0" font-size="20.0" font-family="helvetica">100</text>
    </g>
    <g>
     <circle stroke="black" stroke-width="0.5" fill="#aaffff" cx="193.0" cy="125.0" r="1.0"/>
     <text stroke="none" x="193.0" y="125.0" font-size="20.0" font-family="helvetica">Thiobacillus aquaesulis ATCC 437887 (U58019)</text>
    </g>
    <g>
     <circle stroke="black" stroke-width="0.5" fill="#aaffff" cx="202.0" cy="247.0" r="1.0"/>
     <text stroke="none" x="202.0" y="247.0" font-size="20.0" font-family="helvetica">Rhodocyclus purpureus 677OT (M34132)</text>
    </g>
    <g>
     <circle stroke="black" stroke-width="0.5" fill="#aaffff" cx="205.0" cy="370.0" r="1.0"/>
     <text stroke="none" x="205.0" y="370.0" font-size="20.0" font-family="helvetica">Neisseria gonorrhoeae NCTC 8375T (X07714)</text>
    </g>
    <g>
     <circle stroke="black" stroke-width="0.5" fill="#aaffff" cx="210.0" cy="45.0" r="1.0"/>
     <text stroke="none" x="210.0" y="45.0" font-size="20.0" font-family="helvetica">Spirillum winogradskyi D-427' (AY845251)</text>
    </g>
    <g>
     <circle stroke="black" stroke-width="0.5" fill="#aaffff" cx="217.0" cy="330.0" r="1.0"/>
     <text stroke="none" x="217.0" y="330.0" font-size="20.0" font-family="helvetica">Thiomonas perometabolis ATCC 2337OT (M79421)</text>
    </g>
    <g>
     <circle stroke="black" stroke-width="0.5" fill="#aaffff" cx="224.0" cy="85.0" r="1.0"/>
     <text stroke="none" x="224.0" y="85.0" font-size="20.0" font-family="helvetica">Spirillum volutans ATCC 195547 (M34131)</text>
    </g>
    <g>
     <circle stroke="black" stroke-width="0.5" fill="#aaffff" cx="267.0" cy="288.0" r="1.0"/>
     <text stroke="none" x="267.0" y="288.0" font-size="20.0" font-family="helvetica">Hylemonella gracilis ATCC 196247 (AFO78753)</text>
    </g>
    <line stroke="black" x1="210.0" y1="45.0" x2="191.0" y2="65.0" stroke-width="0.5"/>
    <line stroke="black" x1="224.0" y1="85.0" x2="191.0" y2="65.0" stroke-width="0.5"/>
    <line stroke="black" x1="190.0" y1="167.0" x2="94.0" y2="145.0" stroke-width="0.5"/>
    <line stroke="black" x1="193.0" y1="125.0" x2="94.0" y2="145.0" stroke-width="0.5"/>
    <line stroke="black" x1="1.0" y1="272.0" x2="15.0" y2="318.0" stroke-width="0.5"/>
    <line stroke="black" x1="189.0" y1="207.0" x2="60.0" y2="242.0" stroke-width="0.5"/>
    <line stroke="black" x1="202.0" y1="247.0" x2="67.0" y2="278.0" stroke-width="0.5"/>
    <line stroke="black" x1="217.0" y1="330.0" x2="121.0" y2="308.0" stroke-width="0.5"/>
    <line stroke="black" x1="267.0" y1="288.0" x2="121.0" y2="308.0" stroke-width="0.5"/>
    <line stroke="black" x1="205.0" y1="370.0" x2="15.0" y2="318.0" stroke-width="0.5"/>
    <line stroke="black" x1="191.0" y1="65.0" x2="60.0" y2="106.0" stroke-width="0.5"/>
    <line stroke="black" x1="60.0" y1="106.0" x2="39.0" y2="174.0" stroke-width="0.5"/>
    <line stroke="black" x1="60.0" y1="106.0" x2="94.0" y2="145.0" stroke-width="0.5"/>
    <line stroke="black" x1="39.0" y1="174.0" x2="15.0" y2="318.0" stroke-width="0.5"/>
    <line stroke="black" x1="39.0" y1="174.0" x2="60.0" y2="242.0" stroke-width="0.5"/>
    <line stroke="black" x1="60.0" y1="242.0" x2="67.0" y2="278.0" stroke-width="0.5"/>
    <line stroke="black" x1="67.0" y1="278.0" x2="121.0" y2="308.0" stroke-width="0.5"/>
   </g>
  </g>
 </svg>
</svg>
