<?xml version="1.0" encoding="UTF-8"?>
<svg height="800.0" width="700.0" xmlns="http://www.w3.org/2000/svg">
 <svg>
  <g>
   <g>
    <g>
     <circle stroke="black" stroke-width="0.5" fill="#aaffff" cx="94.0" cy="966.0" r="1.0"/>
     <text stroke="none" x="94.0" y="966.0" font-size="10.0" font-family="helvetica">NT1.1</text>
    </g>
    <g>
     <circle stroke="black" stroke-width="0.5" fill="#aaffff" cx="120.0" cy="729.0" r="1.0"/>
     <text stroke="none" x="120.0" y="729.0" font-size="10.0" font-family="helvetica">NT1.2</text>
    </g>
    <g>
     <circle stroke="black" stroke-width="0.5" fill="#aaffff" cx="177.0" cy="852.0" r="1.0"/>
     <text stroke="none" x="177.0" y="852.0" font-size="20.0" font-family="helvetica">50</text>
    </g>
    <g>
     <circle stroke="black" stroke-width="0.5" fill="#aaffff" cx="183.0" cy="602.0" r="1.0"/>
     <text stroke="none" x="183.0" y="602.0" font-size="10.0" font-family="helvetica">NT1.4</text>
    </g>
    <g>
     <circle stroke="black" stroke-width="0.5" fill="#aaffff" cx="193.0" cy="504.0" r="1.0"/>
     <text stroke="none" x="193.0" y="504.0" font-size="10.0" font-family="helvetica">NT1.5</text>
    </g>
    <g>
     <circle stroke="black" stroke-width="0.5" fill="#aaffff" cx="233.0" cy="914.0" r="1.0"/>
     <text stroke="none" x="233.0" y="914.0" font-size="20.0" font-family="helvetica">59</text>
    </g>
    <g>
     <circle stroke="black" stroke-width="0.5" fill="#aaffff" cx="234.0" cy="379.0" r="1.0"/>
     <text stroke="none" x="234.0" y="379.0" font-size="10.0" font-family="helvetica">NT1.7</text>
    </g>
    <g>
     <circle stroke="black" stroke-width="0.5" fill="#aaffff" cx="255.0" cy="498.0" r="1.0"/>
     <text stroke="none" x="255.0" y="498.0" font-size="10.0" font-family="helvetica">NT1.8</text>
    </g>
    <g>
     <circle stroke="black" stroke-width="0.5" fill="#aaffff" cx="260.0" cy="258.0" r="1.0"/>
     <text stroke="none" x="260.0" y="258.0" font-size="10.0" font-family="helvetica">NT1.9</text>
    </g>
    <g>
     <circle stroke="black" stroke-width="0.5" fill="#aaffff" cx="262.0" cy="699.0" r="1.0"/>
     <text stroke="none" x="262.0" y="699.0" font-size="10.0" font-family="helvetica">NT1.10</text>
    </g>
    <g>
     <circle stroke="black" stroke-width="0.5" fill="#aaffff" cx="276.0" cy="144.0" r="1.0"/>
     <text stroke="none" x="276.0" y="144.0" font-size="10.0" font-family="helvetica">NT1.11</text>
    </g>
    <g>
     <circle stroke="black" stroke-width="0.5" fill="#aaffff" cx="276.0" cy="975.0" r="1.0"/>
     <text stroke="none" x="276.0" y="975.0" font-size="10.0" font-family="helvetica">NT1.12</text>
    </g>
    <g>
     <circle stroke="black" stroke-width="0.5" fill="#aaffff" cx="278.0" cy="534.0" r="1.0"/>
     <text stroke="none" x="278.0" y="534.0" font-size="20.0" font-family="helvetica">50</text>
    </g>
    <g>
     <circle stroke="black" stroke-width="0.5" fill="#aaffff" cx="280.0" cy="177.0" r="1.0"/>
     <text stroke="none" x="280.0" y="177.0" font-size="10.0" font-family="helvetica">NT1.14</text>
    </g>
    <g>
     <circle stroke="black" stroke-width="0.5" fill="#aaffff" cx="290.0" cy="370.0" r="1.0"/>
     <text stroke="none" x="290.0" y="370.0" font-size="10.0" font-family="helvetica">NT1.15</text>
    </g>
    <g>
     <circle stroke="black" stroke-width="0.5" fill="#aaffff" cx="291.0" cy="1038.0" r="1.0"/>
     <text stroke="none" x="291.0" y="1038.0" font-size="10.0" font-family="helvetica">NT1.16</text>
    </g>
    <g>
     <circle stroke="black" stroke-width="0.5" fill="#aaffff" cx="294.0" cy="247.0" r="1.0"/>
     <text stroke="none" x="294.0" y="247.0" font-size="10.0" font-family="helvetica">NT1.17</text>
    </g>
    <g>
     <circle stroke="black" stroke-width="0.5" fill="#aaffff" cx="304.0" cy="729.0" r="1.0"/>
     <text stroke="none" x="304.0" y="729.0" font-size="20.0" font-family="helvetica">97</text>
    </g>
    <g>
     <circle stroke="black" stroke-width="0.5" fill="#aaffff" cx="313.0" cy="278.0" r="1.0"/>
     <text stroke="none" x="313.0" y="278.0" font-size="10.0" font-family="helvetica">NT1.19</text>
    </g>
    <g>
     <circle stroke="black" stroke-width="0.5" fill="#aaffff" cx="315.0" cy="74.0" r="1.0"/>
     <text stroke="none" x="315.0" y="74.0" font-size="20.0" font-family="helvetica">76</text>
    </g>
    <g>
     <circle stroke="black" stroke-width="0.5" fill="#aaffff" cx="319.0" cy="1099.0" r="1.0"/>
     <text stroke="none" x="319.0" y="1099.0" font-size="10.0" font-family="helvetica">NT1.21</text>
    </g>
    <g>
     <circle stroke="black" stroke-width="0.5" fill="#aaffff" cx="327.0" cy="751.0" r="1.0"/>
     <text stroke="none" x="327.0" y="751.0" font-size="20.0" font-family="helvetica">Flavobacterium frigoris LMG 219227 (AJ557887)</text>
    </g>
    <g>
     <circle stroke="black" stroke-width="0.5" fill="#aaffff" cx="343.0" cy="565.0" r="1.0"/>
     <text stroke="none" x="343.0" y="565.0" font-size="20.0" font-family="helvetica">96</text>
    </g>
    <g>
     <circle stroke="black" stroke-width="0.5" fill="#aaffff" cx="353.0" cy="114.0" r="1.0"/>
     <text stroke="none" x="353.0" y="114.0" font-size="20.0" font-family="helvetica">76</text>
    </g>
    <g>
     <circle stroke="black" stroke-width="0.5" fill="#aaffff" cx="359.0" cy="33.0" r="1.0"/>
     <text stroke="none" x="359.0" y="33.0" font-size="20.0" font-family="helvetica">96</text>
    </g>
    <g>
     <circle stroke="black" stroke-width="0.5" fill="#aaffff" cx="363.0" cy="1140.0" r="1.0"/>
     <text stroke="none" x="363.0" y="1140.0" font-size="20.0" font-family="helvetica">66</text>
    </g>
    <g>
     <circle stroke="black" stroke-width="0.5" fill="#aaffff" cx="372.0" cy="854.0" r="1.0"/>
     <text stroke="none" x="372.0" y="854.0" font-size="20.0" font-family="helvetica">100</text>
    </g>
    <g>
     <circle stroke="black" stroke-width="0.5" fill="#aaffff" cx="373.0" cy="710.0" r="1.0"/>
     <text stroke="none" x="373.0" y="710.0" font-size="20.0" font-family="helvetica">Flavobacterium degerlachei LMG 219157(AJ557886)</text>
    </g>
    <g>
     <circle stroke="black" stroke-width="0.5" fill="#aaffff" cx="392.0" cy="401.0" r="1.0"/>
     <text stroke="none" x="392.0" y="401.0" font-size="20.0" font-family="helvetica">100</text>
    </g>
    <g>
     <circle stroke="black" stroke-width="0.5" fill="#aaffff" cx="398.0" cy="53.0" r="1.0"/>
     <text stroke="none" x="398.0" y="53.0" font-size="20.0" font-family="helvetica">Flavobacterium psychrolimnae LMG 22O187(AJ585428)</text>
    </g>
    <g>
     <circle stroke="black" stroke-width="0.5" fill="#aaffff" cx="401.0" cy="300.0" r="1.0"/>
     <text stroke="none" x="401.0" y="300.0" font-size="20.0" font-family="helvetica">Flavobacterium succinicans NBRC 149057 (AM230492)</text>
    </g>
    <g>
     <circle stroke="black" stroke-width="0.5" fill="#aaffff" cx="405.0" cy="12.0" r="1.0"/>
     <text stroke="none" x="405.0" y="12.0" font-size="20.0" font-family="helvetica">Flavobacterium limicola ST-827 (AB075230)</text>
    </g>
    <g>
     <circle stroke="black" stroke-width="0.5" fill="#aaffff" cx="409.0" cy="176.0" r="1.0"/>
     <text stroke="none" x="409.0" y="176.0" font-size="20.0" font-family="helvetica">Flavobacterium micromati LMG 21 9197(AJ557888)</text>
    </g>
    <g>
     <circle stroke="black" stroke-width="0.5" fill="#aaffff" cx="412.0" cy="217.0" r="1.0"/>
     <text stroke="none" x="412.0" y="217.0" font-size="20.0" font-family="helvetica">Flavobacterium saccharophilum DSM 181 17(AM23O491)</text>
    </g>
    <g>
     <circle stroke="black" stroke-width="0.5" fill="#aaffff" cx="414.0" cy="628.0" r="1.0"/>
     <text stroke="none" x="414.0" y="628.0" font-size="20.0" font-family="helvetica">Flavobacterium antarcticum AT10267 (AY581 1 13)</text>
    </g>
    <g>
     <circle stroke="black" stroke-width="0.5" fill="#aaffff" cx="416.0" cy="94.0" r="1.0"/>
     <text stroke="none" x="416.0" y="94.0" font-size="20.0" font-family="helvetica">Flavobacterium omnivorum AS 1.27477 (AF4331 74)</text>
    </g>
    <g>
     <circle stroke="black" stroke-width="0.5" fill="#aaffff" cx="425.0" cy="258.0" r="1.0"/>
     <text stroke="none" x="425.0" y="258.0" font-size="20.0" font-family="helvetica">Flavobacterium granuliKw057(AB18O738)</text>
    </g>
    <g>
     <circle stroke="black" stroke-width="0.5" fill="#aaffff" cx="434.0" cy="423.0" r="1.0"/>
     <text stroke="none" x="434.0" y="423.0" font-size="20.0" font-family="helvetica">Flavobacterium segetis AT1O487 (AY581 1 15)</text>
    </g>
    <g>
     <circle stroke="black" stroke-width="0.5" fill="#aaffff" cx="435.0" cy="977.0" r="1.0"/>
     <text stroke="none" x="435.0" y="977.0" font-size="10.0" font-family="helvetica">NT1.39</text>
    </g>
    <g>
     <circle stroke="black" stroke-width="0.5" fill="#aaffff" cx="439.0" cy="135.0" r="1.0"/>
     <text stroke="none" x="439.0" y="135.0" font-size="20.0" font-family="helvetica">Flavobacterium fryxellicola LMG 220227 (AJ81 1961)</text>
    </g>
    <g>
     <circle stroke="black" stroke-width="0.5" fill="#aaffff" cx="449.0" cy="792.0" r="1.0"/>
     <text stroke="none" x="449.0" y="792.0" font-size="20.0" font-family="helvetica">Flavobacterium terrigena DS-207 (DQ889724)</text>
    </g>
    <g>
     <circle stroke="black" stroke-width="0.5" fill="#aaffff" cx="450.0" cy="381.0" r="1.0"/>
     <text stroke="none" x="450.0" y="381.0" font-size="20.0" font-family="helvetica">Flavobacterium weaverense IMSNU 140487 (AY581 1 14)</text>
    </g>
    <g>
     <circle stroke="black" stroke-width="0.5" fill="#aaffff" cx="457.0" cy="340.0" r="1.0"/>
     <text stroke="none" x="457.0" y="340.0" font-size="20.0" font-family="helvetica">Flavobacterium flevense ATCC 279447 (M58767)</text>
    </g>
    <g>
     <circle stroke="black" stroke-width="0.5" fill="#aaffff" cx="458.0" cy="1202.0" r="1.0"/>
     <text stroke="none" x="458.0" y="1202.0" font-size="20.0" font-family="helvetica">Flavobacterium filum EMB347 (DQ372981)</text>
    </g>
    <g>
     <circle stroke="black" stroke-width="0.5" fill="#aaffff" cx="459.0" cy="587.0" r="1.0"/>
     <text stroke="none" x="459.0" y="587.0" font-size="20.0" font-family="helvetica">Flavobacterium johnsoniae ATCC 1 70617 (AM230489)</text>
    </g>
    <g>
     <circle stroke="black" stroke-width="0.5" fill="#aaffff" cx="459.0" cy="1060.0" r="1.0"/>
     <text stroke="none" x="459.0" y="1060.0" font-size="20.0" font-family="helvetica">100</text>
    </g>
    <g>
     <circle stroke="black" stroke-width="0.5" fill="#aaffff" cx="470.0" cy="874.0" r="1.0"/>
     <text stroke="none" x="470.0" y="874.0" font-size="20.0" font-family="helvetica">Flavobacterium cheniae NJ-267 (EF407880)</text>
    </g>
    <g>
     <circle stroke="black" stroke-width="0.5" fill="#aaffff" cx="481.0" cy="833.0" r="1.0"/>
     <text stroke="none" x="481.0" y="833.0" font-size="20.0" font-family="helvetica">Flavobacterium cucumis R2A45-37 (EF126993)</text>
    </g>
    <g>
     <circle stroke="black" stroke-width="0.5" fill="#aaffff" cx="507.0" cy="463.0" r="1.0"/>
     <text stroke="none" x="507.0" y="463.0" font-size="20.0" font-family="helvetica">Flavobacterium soliDS-67(DQ178976)</text>
    </g>
    <g>
     <circle stroke="black" stroke-width="0.5" fill="#aaffff" cx="515.0" cy="504.0" r="1.0"/>
     <text stroke="none" x="515.0" y="504.0" font-size="20.0" font-family="helvetica">Flavobacterium daejeonense GH1 -1 O7 (DQ222427)</text>
    </g>
    <g>
     <circle stroke="black" stroke-width="0.5" fill="#aaffff" cx="519.0" cy="546.0" r="1.0"/>
     <text stroke="none" x="519.0" y="546.0" font-size="20.0" font-family="helvetica">Flavobacterium anhuiense D37 (EUO46269)</text>
    </g>
    <g>
     <circle stroke="black" stroke-width="0.5" fill="#aaffff" cx="542.0" cy="1079.0" r="1.0"/>
     <text stroke="none" x="542.0" y="1079.0" font-size="20.0" font-family="helvetica">Flavobacterium terrae R2A1-137 (EF1 17329)</text>
    </g>
    <g>
     <circle stroke="black" stroke-width="0.5" fill="#aaffff" cx="567.0" cy="915.0" r="1.0"/>
     <text stroke="none" x="567.0" y="915.0" font-size="20.0" font-family="helvetica">Flavobacterium croceum EMB477(DQ372982)</text>
    </g>
    <g>
     <circle stroke="black" stroke-width="0.5" fill="#aaffff" cx="583.0" cy="669.0" r="1.0"/>
     <text stroke="none" x="583.0" y="669.0" font-size="20.0" font-family="helvetica">Flavobacterium gelidilacus LMG 214777 (AJ440996)</text>
    </g>
    <g>
     <circle stroke="black" stroke-width="0.5" fill="#aaffff" cx="601.0" cy="1162.0" r="1.0"/>
     <text stroke="none" x="601.0" y="1162.0" font-size="20.0" font-family="helvetica">Flavobacterium suncheonense GH29-57 (DQ222428)</text>
    </g>
    <g>
     <circle stroke="black" stroke-width="0.5" fill="#aaffff" cx="612.0" cy="1120.0" r="1.0"/>
     <text stroke="none" x="612.0" y="1120.0" font-size="20.0" font-family="helvetica">Flavobacterium saliperosum JCM 133317 (DQ021903)</text>
    </g>
    <g>
     <circle stroke="black" stroke-width="0.5" fill="#aaffff" cx="634.0" cy="1039.0" r="1.0"/>
     <text stroke="none" x="634.0" y="1039.0" font-size="20.0" font-family="helvetica">Flavobacterium columnare ATCC 234637 (ABO78047)</text>
    </g>
    <g>
     <circle stroke="black" stroke-width="0.5" fill="#aaffff" cx="651.0" cy="997.0" r="1.0"/>
     <text stroke="none" x="651.0" y="997.0" font-size="20.0" font-family="helvetica">Flavobacterium indicum GPTSA1OO-97 (AY904351)</text>
    </g>
    <g>
     <circle stroke="black" stroke-width="0.5" fill="#aaffff" cx="688.0" cy="956.0" r="1.0"/>
     <text stroke="none" x="688.0" y="956.0" font-size="20.0" font-family="helvetica">LQY-77 (GQ988780)</text>
    </g>
    <g>
     <circle stroke="black" stroke-width="0.5" fill="#aaffff" cx="688.0" cy="1243.0" r="1.0"/>
     <text stroke="none" x="688.0" y="1243.0" font-size="20.0" font-family="helvetica">Myroides odoratus ATCC 46517(M58777)</text>
    </g>
    <line stroke="black" x1="398.0" y1="53.0" x2="359.0" y2="33.0" stroke-width="0.5"/>
    <line stroke="black" x1="416.0" y1="94.0" x2="353.0" y2="114.0" stroke-width="0.5"/>
    <line stroke="black" x1="409.0" y1="176.0" x2="280.0" y2="177.0" stroke-width="0.5"/>
    <line stroke="black" x1="401.0" y1="300.0" x2="313.0" y2="278.0" stroke-width="0.5"/>
    <line stroke="black" x1="434.0" y1="423.0" x2="392.0" y2="401.0" stroke-width="0.5"/>
    <line stroke="black" x1="507.0" y1="463.0" x2="255.0" y2="498.0" stroke-width="0.5"/>
    <line stroke="black" x1="583.0" y1="669.0" x2="262.0" y2="699.0" stroke-width="0.5"/>
    <line stroke="black" x1="470.0" y1="874.0" x2="372.0" y2="854.0" stroke-width="0.5"/>
    <line stroke="black" x1="567.0" y1="915.0" x2="276.0" y2="975.0" stroke-width="0.5"/>
    <line stroke="black" x1="458.0" y1="1202.0" x2="94.0" y2="966.0" stroke-width="0.5"/>
    <line stroke="black" x1="601.0" y1="1162.0" x2="363.0" y2="1140.0" stroke-width="0.5"/>
    <line stroke="black" x1="634.0" y1="1039.0" x2="459.0" y2="1060.0" stroke-width="0.5"/>
    <line stroke="black" x1="359.0" y1="33.0" x2="315.0" y2="74.0" stroke-width="0.5"/>
    <line stroke="black" x1="315.0" y1="74.0" x2="276.0" y2="144.0" stroke-width="0.5"/>
    <line stroke="black" x1="315.0" y1="74.0" x2="353.0" y2="114.0" stroke-width="0.5"/>
    <line stroke="black" x1="276.0" y1="144.0" x2="260.0" y2="258.0" stroke-width="0.5"/>
    <line stroke="black" x1="276.0" y1="144.0" x2="280.0" y2="177.0" stroke-width="0.5"/>
    <line stroke="black" x1="280.0" y1="177.0" x2="294.0" y2="247.0" stroke-width="0.5"/>
    <line stroke="black" x1="294.0" y1="247.0" x2="313.0" y2="278.0" stroke-width="0.5"/>
    <line stroke="black" x1="260.0" y1="258.0" x2="234.0" y2="379.0" stroke-width="0.5"/>
    <line stroke="black" x1="260.0" y1="258.0" x2="290.0" y2="370.0" stroke-width="0.5"/>
    <line stroke="black" x1="290.0" y1="370.0" x2="392.0" y2="401.0" stroke-width="0.5"/>
    <line stroke="black" x1="234.0" y1="379.0" x2="193.0" y2="504.0" stroke-width="0.5"/>
    <line stroke="black" x1="234.0" y1="379.0" x2="255.0" y2="498.0" stroke-width="0.5"/>
    <line stroke="black" x1="255.0" y1="498.0" x2="278.0" y2="534.0" stroke-width="0.5"/>
    <line stroke="black" x1="193.0" y1="504.0" x2="183.0" y2="602.0" stroke-width="0.5"/>
    <line stroke="black" x1="278.0" y1="534.0" x2="343.0" y2="565.0" stroke-width="0.5"/>
    <line stroke="black" x1="183.0" y1="602.0" x2="120.0" y2="729.0" stroke-width="0.5"/>
    <line stroke="black" x1="183.0" y1="602.0" x2="262.0" y2="699.0" stroke-width="0.5"/>
    <line stroke="black" x1="262.0" y1="699.0" x2="304.0" y2="729.0" stroke-width="0.5"/>
    <line stroke="black" x1="120.0" y1="729.0" x2="94.0" y2="966.0" stroke-width="0.5"/>
    <line stroke="black" x1="120.0" y1="729.0" x2="177.0" y2="852.0" stroke-width="0.5"/>
    <line stroke="black" x1="177.0" y1="852.0" x2="233.0" y2="914.0" stroke-width="0.5"/>
    <line stroke="black" x1="233.0" y1="914.0" x2="276.0" y2="975.0" stroke-width="0.5"/>
    <line stroke="black" x1="233.0" y1="914.0" x2="372.0" y2="854.0" stroke-width="0.5"/>
    <line stroke="black" x1="276.0" y1="975.0" x2="291.0" y2="1038.0" stroke-width="0.5"/>
    <line stroke="black" x1="291.0" y1="1038.0" x2="319.0" y2="1099.0" stroke-width="0.5"/>
    <line stroke="black" x1="291.0" y1="1038.0" x2="435.0" y2="977.0" stroke-width="0.5"/>
    <line stroke="black" x1="319.0" y1="1099.0" x2="363.0" y2="1140.0" stroke-width="0.5"/>
    <line stroke="black" x1="319.0" y1="1099.0" x2="459.0" y2="1060.0" stroke-width="0.5"/>
    <line stroke="black" x1="688.0" y1="1243.0" x2="94.0" y2="966.0" stroke-width="0.5"/>
    <line stroke="black" x1="414.0" y1="628.0" x2="193.0" y2="504.0" stroke-width="0.5"/>
    <line stroke="black" x1="449.0" y1="792.0" x2="177.0" y2="852.0" stroke-width="0.5"/>
    <line stroke="black" x1="327.0" y1="751.0" x2="304.0" y2="729.0" stroke-width="0.5"/>
    <line stroke="black" x1="373.0" y1="710.0" x2="304.0" y2="729.0" stroke-width="0.5"/>
    <line stroke="black" x1="412.0" y1="217.0" x2="294.0" y2="247.0" stroke-width="0.5"/>
    <line stroke="black" x1="457.0" y1="340.0" x2="290.0" y2="370.0" stroke-width="0.5"/>
    <line stroke="black" x1="425.0" y1="258.0" x2="313.0" y2="278.0" stroke-width="0.5"/>
    <line stroke="black" x1="515.0" y1="504.0" x2="278.0" y2="534.0" stroke-width="0.5"/>
    <line stroke="black" x1="439.0" y1="135.0" x2="353.0" y2="114.0" stroke-width="0.5"/>
    <line stroke="black" x1="459.0" y1="587.0" x2="343.0" y2="565.0" stroke-width="0.5"/>
    <line stroke="black" x1="405.0" y1="12.0" x2="359.0" y2="33.0" stroke-width="0.5"/>
    <line stroke="black" x1="519.0" y1="546.0" x2="343.0" y2="565.0" stroke-width="0.5"/>
    <line stroke="black" x1="481.0" y1="833.0" x2="372.0" y2="854.0" stroke-width="0.5"/>
    <line stroke="black" x1="450.0" y1="381.0" x2="392.0" y2="401.0" stroke-width="0.5"/>
    <line stroke="black" x1="612.0" y1="1120.0" x2="363.0" y2="1140.0" stroke-width="0.5"/>
    <line stroke="black" x1="542.0" y1="1079.0" x2="459.0" y2="1060.0" stroke-width="0.5"/>
    <line stroke="black" x1="651.0" y1="997.0" x2="435.0" y2="977.0" stroke-width="0.5"/>
    <line stroke="black" x1="688.0" y1="956.0" x2="435.0" y2="977.0" stroke-width="0.5"/>
   </g>
  </g>
 </svg>
</svg>
