<?xml version="1.0" encoding="UTF-8"?>
<svg height="800.0" width="700.0" xmlns="http://www.w3.org/2000/svg">
 <svg>
  <g>
   <g>
    <g>
     <circle stroke="black" stroke-width="0.5" fill="#aaffff" cx="33.0" cy="494.0" r="1.0"/>
     <text stroke="none" x="33.0" y="494.0" font-size="10.0" font-family="helvetica">NT1.1</text>
    </g>
    <g>
     <circle stroke="black" stroke-width="0.5" fill="#aaffff" cx="60.0" cy="403.0" r="1.0"/>
     <text stroke="none" x="60.0" y="403.0" font-size="10.0" font-family="helvetica">NT1.2</text>
    </g>
    <g>
     <circle stroke="black" stroke-width="0.5" fill="#aaffff" cx="152.0" cy="267.0" r="1.0"/>
     <text stroke="none" x="152.0" y="267.0" font-size="10.0" font-family="helvetica">NT1.3</text>
    </g>
    <g>
     <circle stroke="black" stroke-width="0.5" fill="#aaffff" cx="167.0" cy="176.0" r="1.0"/>
     <text stroke="none" x="167.0" y="176.0" font-size="10.0" font-family="helvetica">NT1.4</text>
    </g>
    <g>
     <circle stroke="black" stroke-width="0.5" fill="#aaffff" cx="183.0" cy="765.0" r="1.0"/>
     <text stroke="none" x="183.0" y="765.0" font-size="10.0" font-family="helvetica">NT1.5</text>
    </g>
    <g>
     <circle stroke="black" stroke-width="0.5" fill="#aaffff" cx="204.0" cy="335.0" r="1.0"/>
     <text stroke="none" x="204.0" y="335.0" font-size="10.0" font-family="helvetica">NT1.6</text>
    </g>
    <g>
     <circle stroke="black" stroke-width="0.5" fill="#aaffff" cx="234.0" cy="722.0" r="1.0"/>
     <text stroke="none" x="234.0" y="722.0" font-size="10.0" font-family="helvetica">NT1.7</text>
    </g>
    <g>
     <circle stroke="black" stroke-width="0.5" fill="#aaffff" cx="249.0" cy="312.0" r="1.0"/>
     <text stroke="none" x="249.0" y="312.0" font-size="10.0" font-family="helvetica">NT1.8</text>
    </g>
    <g>
     <circle stroke="black" stroke-width="0.5" fill="#aaffff" cx="254.0" cy="448.0" r="1.0"/>
     <text stroke="none" x="254.0" y="448.0" font-size="10.0" font-family="helvetica">NT1.9</text>
    </g>
    <g>
     <circle stroke="black" stroke-width="0.5" fill="#aaffff" cx="261.0" cy="130.0" r="1.0"/>
     <text stroke="none" x="261.0" y="130.0" font-size="10.0" font-family="helvetica">NT1.10</text>
    </g>
    <g>
     <circle stroke="black" stroke-width="0.5" fill="#aaffff" cx="263.0" cy="857.0" r="1.0"/>
     <text stroke="none" x="263.0" y="857.0" font-size="10.0" font-family="helvetica">NT1.11</text>
    </g>
    <g>
     <circle stroke="black" stroke-width="0.5" fill="#aaffff" cx="274.0" cy="630.0" r="1.0"/>
     <text stroke="none" x="274.0" y="630.0" font-size="10.0" font-family="helvetica">NT1.12</text>
    </g>
    <g>
     <circle stroke="black" stroke-width="0.5" fill="#aaffff" cx="279.0" cy="600.0" r="1.0"/>
     <text stroke="none" x="279.0" y="600.0" font-size="10.0" font-family="helvetica">NT1.13</text>
    </g>
    <g>
     <circle stroke="black" stroke-width="0.5" fill="#aaffff" cx="282.0" cy="605.0" r="1.0"/>
     <text stroke="none" x="282.0" y="605.0" font-size="20.0" font-family="helvetica"/>
    </g>
    <g>
     <circle stroke="black" stroke-width="0.5" fill="#aaffff" cx="282.0" cy="596.0" r="1.0"/>
     <text stroke="none" x="282.0" y="596.0" font-size="20.0" font-family="helvetica"/>
    </g>
    <g>
     <circle stroke="black" stroke-width="0.5" fill="#aaffff" cx="287.0" cy="600.0" r="1.0"/>
     <text stroke="none" x="287.0" y="600.0" font-size="20.0" font-family="helvetica"/>
    </g>
    <g>
     <circle stroke="black" stroke-width="0.5" fill="#aaffff" cx="292.0" cy="586.0" r="1.0"/>
     <text stroke="none" x="292.0" y="586.0" font-size="10.0" font-family="helvetica">NT1.17</text>
    </g>
    <g>
     <circle stroke="black" stroke-width="0.5" fill="#aaffff" cx="295.0" cy="674.0" r="1.0"/>
     <text stroke="none" x="295.0" y="674.0" font-size="10.0" font-family="helvetica">NT1.18</text>
    </g>
    <g>
     <circle stroke="black" stroke-width="0.5" fill="#aaffff" cx="306.0" cy="813.0" r="1.0"/>
     <text stroke="none" x="306.0" y="813.0" font-size="10.0" font-family="helvetica">NT1.19</text>
    </g>
    <g>
     <circle stroke="black" stroke-width="0.5" fill="#aaffff" cx="340.0" cy="700.0" r="1.0"/>
     <text stroke="none" x="340.0" y="700.0" font-size="20.0" font-family="helvetica">Microbulbifer salipaludis SM-1T (AF479688)</text>
    </g>
    <g>
     <circle stroke="black" stroke-width="0.5" fill="#aaffff" cx="343.0" cy="655.0" r="1.0"/>
     <text stroke="none" x="343.0" y="655.0" font-size="20.0" font-family="helvetica">Microbulbifer hydrolyticus DSM 1 1525 (AJ608704)</text>
    </g>
    <g>
     <circle stroke="black" stroke-width="0.5" fill="#aaffff" cx="369.0" cy="609.0" r="1.0"/>
     <text stroke="none" x="369.0" y="609.0" font-size="20.0" font-family="helvetica">Microbulbifer elongatus DSM 681 OT (AF500006)</text>
    </g>
    <g>
     <circle stroke="black" stroke-width="0.5" fill="#aaffff" cx="375.0" cy="746.0" r="1.0"/>
     <text stroke="none" x="375.0" y="746.0" font-size="20.0" font-family="helvetica">Microbulbifer celer ISL-397 (EF486352)</text>
    </g>
    <g>
     <circle stroke="black" stroke-width="0.5" fill="#aaffff" cx="382.0" cy="473.0" r="1.0"/>
     <text stroke="none" x="382.0" y="473.0" font-size="20.0" font-family="helvetica">Marinimicrobium koreense M9T (AY839869)</text>
    </g>
    <g>
     <circle stroke="black" stroke-width="0.5" fill="#aaffff" cx="386.0" cy="564.0" r="1.0"/>
     <text stroke="none" x="386.0" y="564.0" font-size="20.0" font-family="helvetica">Microbulbifer agarilyticus JAMB A3T (AB158515)</text>
    </g>
    <g>
     <circle stroke="black" stroke-width="0.5" fill="#aaffff" cx="389.0" cy="85.0" r="1.0"/>
     <text stroke="none" x="389.0" y="85.0" font-size="10.0" font-family="helvetica">NT1.26</text>
    </g>
    <g>
     <circle stroke="black" stroke-width="0.5" fill="#aaffff" cx="403.0" cy="518.0" r="1.0"/>
     <text stroke="none" x="403.0" y="518.0" font-size="20.0" font-family="helvetica">Simiduia agarivorans SA1T (EF61 7350)</text>
    </g>
    <g>
     <circle stroke="black" stroke-width="0.5" fill="#aaffff" cx="404.0" cy="428.0" r="1.0"/>
     <text stroke="none" x="404.0" y="428.0" font-size="20.0" font-family="helvetica">Marinimicrobium agarilyticum M18T (AY839870)</text>
    </g>
    <g>
     <circle stroke="black" stroke-width="0.5" fill="#aaffff" cx="417.0" cy="837.0" r="1.0"/>
     <text stroke="none" x="417.0" y="837.0" font-size="20.0" font-family="helvetica">Microbulbifer thermotolerans JAMB A947 (AB1 24836)</text>
    </g>
    <g>
     <circle stroke="black" stroke-width="0.5" fill="#aaffff" cx="442.0" cy="39.0" r="1.0"/>
     <text stroke="none" x="442.0" y="39.0" font-size="10.0" font-family="helvetica">NT1.30</text>
    </g>
    <g>
     <circle stroke="black" stroke-width="0.5" fill="#aaffff" cx="443.0" cy="791.0" r="1.0"/>
     <text stroke="none" x="443.0" y="791.0" font-size="20.0" font-family="helvetica">Microbulbifer maritimus TF-1 7T (AY377986)</text>
    </g>
    <g>
     <circle stroke="black" stroke-width="0.5" fill="#aaffff" cx="501.0" cy="882.0" r="1.0"/>
     <text stroke="none" x="501.0" y="882.0" font-size="20.0" font-family="helvetica">Microbulbifer halophilus YIM 91 1 187 (EF674853)</text>
    </g>
    <g>
     <circle stroke="black" stroke-width="0.5" fill="#aaffff" cx="508.0" cy="220.0" r="1.0"/>
     <text stroke="none" x="508.0" y="220.0" font-size="10.0" font-family="helvetica">NT1.33</text>
    </g>
    <g>
     <circle stroke="black" stroke-width="0.5" fill="#aaffff" cx="525.0" cy="200.0" r="1.0"/>
     <text stroke="none" x="525.0" y="200.0" font-size="20.0" font-family="helvetica">Spongiibacter marinus HAL4ObT (AM1 1 7932)</text>
    </g>
    <g>
     <circle stroke="black" stroke-width="0.5" fill="#aaffff" cx="529.0" cy="154.0" r="1.0"/>
     <text stroke="none" x="529.0" y="154.0" font-size="20.0" font-family="helvetica">Haliea salexigens 3XlA02l235T (AY576769)</text>
    </g>
    <g>
     <circle stroke="black" stroke-width="0.5" fill="#aaffff" cx="555.0" cy="245.0" r="1.0"/>
     <text stroke="none" x="555.0" y="245.0" font-size="20.0" font-family="helvetica">Melitea salexigens 5lXlAO1l131T (AY576729)</text>
    </g>
    <g>
     <circle stroke="black" stroke-width="0.5" fill="#aaffff" cx="558.0" cy="291.0" r="1.0"/>
     <text stroke="none" x="558.0" y="291.0" font-size="20.0" font-family="helvetica">Saccharophagus degradans 2-40T (AFO55269)</text>
    </g>
    <g>
     <circle stroke="black" stroke-width="0.5" fill="#aaffff" cx="590.0" cy="59.0" r="1.0"/>
     <text stroke="none" x="590.0" y="59.0" font-size="20.0" font-family="helvetica">Haliea rubra CM41_15aT(EU161717)</text>
    </g>
    <g>
     <circle stroke="black" stroke-width="0.5" fill="#aaffff" cx="608.0" cy="109.0" r="1.0"/>
     <text stroke="none" x="608.0" y="109.0" font-size="20.0" font-family="helvetica">Haliea mediterranea 7SM29T (FN398053)</text>
    </g>
    <g>
     <circle stroke="black" stroke-width="0.5" fill="#aaffff" cx="609.0" cy="382.0" r="1.0"/>
     <text stroke="none" x="609.0" y="382.0" font-size="20.0" font-family="helvetica">Dasania marina KOPRI 20902T (AY771747)</text>
    </g>
    <g>
     <circle stroke="black" stroke-width="0.5" fill="#aaffff" cx="613.0" cy="336.0" r="1.0"/>
     <text stroke="none" x="613.0" y="336.0" font-size="20.0" font-family="helvetica">Teredinibacter turnerae T7902T (AYO28398)</text>
    </g>
    <g>
     <circle stroke="black" stroke-width="0.5" fill="#aaffff" cx="616.0" cy="15.0" r="1.0"/>
     <text stroke="none" x="616.0" y="15.0" font-size="20.0" font-family="helvetica">Congregibacter Iitoralis KT71T (AYOO7676)</text>
    </g>
    <line stroke="black" x1="382.0" y1="473.0" x2="254.0" y2="448.0" stroke-width="0.5"/>
    <line stroke="black" x1="403.0" y1="518.0" x2="33.0" y2="494.0" stroke-width="0.5"/>
    <line stroke="black" x1="282.0" y1="605.0" x2="279.0" y2="600.0" stroke-width="0.5"/>
    <line stroke="black" x1="279.0" y1="600.0" x2="282.0" y2="596.0" stroke-width="0.5"/>
    <line stroke="black" x1="375.0" y1="746.0" x2="234.0" y2="722.0" stroke-width="0.5"/>
    <line stroke="black" x1="287.0" y1="600.0" x2="279.0" y2="600.0" stroke-width="0.5"/>
    <line stroke="black" x1="340.0" y1="700.0" x2="295.0" y2="674.0" stroke-width="0.5"/>
    <line stroke="black" x1="369.0" y1="609.0" x2="292.0" y2="586.0" stroke-width="0.5"/>
    <line stroke="black" x1="417.0" y1="837.0" x2="306.0" y2="813.0" stroke-width="0.5"/>
    <line stroke="black" x1="443.0" y1="791.0" x2="306.0" y2="813.0" stroke-width="0.5"/>
    <line stroke="black" x1="442.0" y1="39.0" x2="389.0" y2="85.0" stroke-width="0.5"/>
    <line stroke="black" x1="389.0" y1="85.0" x2="261.0" y2="130.0" stroke-width="0.5"/>
    <line stroke="black" x1="261.0" y1="130.0" x2="167.0" y2="176.0" stroke-width="0.5"/>
    <line stroke="black" x1="167.0" y1="176.0" x2="152.0" y2="267.0" stroke-width="0.5"/>
    <line stroke="black" x1="167.0" y1="176.0" x2="508.0" y2="220.0" stroke-width="0.5"/>
    <line stroke="black" x1="152.0" y1="267.0" x2="60.0" y2="403.0" stroke-width="0.5"/>
    <line stroke="black" x1="152.0" y1="267.0" x2="204.0" y2="335.0" stroke-width="0.5"/>
    <line stroke="black" x1="204.0" y1="335.0" x2="249.0" y2="312.0" stroke-width="0.5"/>
    <line stroke="black" x1="60.0" y1="403.0" x2="254.0" y2="448.0" stroke-width="0.5"/>
    <line stroke="black" x1="60.0" y1="403.0" x2="33.0" y2="494.0" stroke-width="0.5"/>
    <line stroke="black" x1="183.0" y1="765.0" x2="263.0" y2="857.0" stroke-width="0.5"/>
    <line stroke="black" x1="183.0" y1="765.0" x2="234.0" y2="722.0" stroke-width="0.5"/>
    <line stroke="black" x1="234.0" y1="722.0" x2="274.0" y2="630.0" stroke-width="0.5"/>
    <line stroke="black" x1="263.0" y1="857.0" x2="306.0" y2="813.0" stroke-width="0.5"/>
    <line stroke="black" x1="274.0" y1="630.0" x2="295.0" y2="674.0" stroke-width="0.5"/>
    <line stroke="black" x1="274.0" y1="630.0" x2="279.0" y2="600.0" stroke-width="0.5"/>
    <line stroke="black" x1="279.0" y1="600.0" x2="292.0" y2="586.0" stroke-width="0.5"/>
    <line stroke="black" x1="33.0" y1="494.0" x2="183.0" y2="765.0" stroke-width="0.5"/>
    <line stroke="black" x1="404.0" y1="428.0" x2="254.0" y2="448.0" stroke-width="0.5"/>
    <line stroke="black" x1="343.0" y1="655.0" x2="295.0" y2="674.0" stroke-width="0.5"/>
    <line stroke="black" x1="386.0" y1="564.0" x2="292.0" y2="586.0" stroke-width="0.5"/>
    <line stroke="black" x1="609.0" y1="382.0" x2="204.0" y2="335.0" stroke-width="0.5"/>
    <line stroke="black" x1="501.0" y1="882.0" x2="263.0" y2="857.0" stroke-width="0.5"/>
    <line stroke="black" x1="558.0" y1="291.0" x2="249.0" y2="312.0" stroke-width="0.5"/>
    <line stroke="black" x1="613.0" y1="336.0" x2="249.0" y2="312.0" stroke-width="0.5"/>
    <line stroke="black" x1="529.0" y1="154.0" x2="261.0" y2="130.0" stroke-width="0.5"/>
    <line stroke="black" x1="608.0" y1="109.0" x2="389.0" y2="85.0" stroke-width="0.5"/>
    <line stroke="black" x1="525.0" y1="200.0" x2="508.0" y2="220.0" stroke-width="0.5"/>
    <line stroke="black" x1="555.0" y1="245.0" x2="508.0" y2="220.0" stroke-width="0.5"/>
    <line stroke="black" x1="616.0" y1="15.0" x2="442.0" y2="39.0" stroke-width="0.5"/>
    <line stroke="black" x1="590.0" y1="59.0" x2="442.0" y2="39.0" stroke-width="0.5"/>
   </g>
  </g>
 </svg>
</svg>
