<?xml version="1.0" encoding="UTF-8"?>
<svg height="800.0" width="700.0" xmlns="http://www.w3.org/2000/svg">
 <svg>
  <g>
   <g>
    <g>
     <circle stroke="black" stroke-width="0.5" fill="#aaffff" cx="54.0" cy="1355.0" r="1.0"/>
     <text stroke="none" x="54.0" y="1355.0" font-size="20.0" font-family="helvetica"/>
    </g>
    <g>
     <circle stroke="black" stroke-width="0.5" fill="#aaffff" cx="117.0" cy="1355.0" r="1.0"/>
     <text stroke="none" x="117.0" y="1355.0" font-size="10.0" font-family="helvetica">NT1.2</text>
    </g>
    <g>
     <circle stroke="black" stroke-width="0.5" fill="#aaffff" cx="134.0" cy="1108.0" r="1.0"/>
     <text stroke="none" x="134.0" y="1108.0" font-size="20.0" font-family="helvetica">72</text>
    </g>
    <g>
     <circle stroke="black" stroke-width="0.5" fill="#aaffff" cx="164.0" cy="860.0" r="1.0"/>
     <text stroke="none" x="164.0" y="860.0" font-size="10.0" font-family="helvetica">NT1.4</text>
    </g>
    <g>
     <circle stroke="black" stroke-width="0.5" fill="#aaffff" cx="173.0" cy="709.0" r="1.0"/>
     <text stroke="none" x="173.0" y="709.0" font-size="10.0" font-family="helvetica">NT1.5</text>
    </g>
    <g>
     <circle stroke="black" stroke-width="0.5" fill="#aaffff" cx="178.0" cy="453.0" r="1.0"/>
     <text stroke="none" x="178.0" y="453.0" font-size="10.0" font-family="helvetica">NT1.6</text>
    </g>
    <g>
     <circle stroke="black" stroke-width="0.5" fill="#aaffff" cx="182.0" cy="897.0" r="1.0"/>
     <text stroke="none" x="182.0" y="897.0" font-size="10.0" font-family="helvetica">NT1.7</text>
    </g>
    <g>
     <circle stroke="black" stroke-width="0.5" fill="#aaffff" cx="190.0" cy="818.0" r="1.0"/>
     <text stroke="none" x="190.0" y="818.0" font-size="10.0" font-family="helvetica">NT1.8</text>
    </g>
    <g>
     <circle stroke="black" stroke-width="0.5" fill="#aaffff" cx="190.0" cy="952.0" r="1.0"/>
     <text stroke="none" x="190.0" y="952.0" font-size="10.0" font-family="helvetica">NT1.9</text>
    </g>
    <g>
     <circle stroke="black" stroke-width="0.5" fill="#aaffff" cx="194.0" cy="971.0" r="1.0"/>
     <text stroke="none" x="194.0" y="971.0" font-size="10.0" font-family="helvetica">NT1.10</text>
    </g>
    <g>
     <circle stroke="black" stroke-width="0.5" fill="#aaffff" cx="207.0" cy="237.0" r="1.0"/>
     <text stroke="none" x="207.0" y="237.0" font-size="10.0" font-family="helvetica">NT1.11</text>
    </g>
    <g>
     <circle stroke="black" stroke-width="0.5" fill="#aaffff" cx="214.0" cy="1080.0" r="1.0"/>
     <text stroke="none" x="214.0" y="1080.0" font-size="10.0" font-family="helvetica">NT1.12</text>
    </g>
    <g>
     <circle stroke="black" stroke-width="0.5" fill="#aaffff" cx="220.0" cy="168.0" r="1.0"/>
     <text stroke="none" x="220.0" y="168.0" font-size="10.0" font-family="helvetica">NT1.13</text>
    </g>
    <g>
     <circle stroke="black" stroke-width="0.5" fill="#aaffff" cx="228.0" cy="125.0" r="1.0"/>
     <text stroke="none" x="228.0" y="125.0" font-size="10.0" font-family="helvetica">NT1.14</text>
    </g>
    <g>
     <circle stroke="black" stroke-width="0.5" fill="#aaffff" cx="231.0" cy="707.0" r="1.0"/>
     <text stroke="none" x="231.0" y="707.0" font-size="10.0" font-family="helvetica">NT1.15</text>
    </g>
    <g>
     <circle stroke="black" stroke-width="0.5" fill="#aaffff" cx="233.0" cy="1117.0" r="1.0"/>
     <text stroke="none" x="233.0" y="1117.0" font-size="20.0" font-family="helvetica">75</text>
    </g>
    <g>
     <circle stroke="black" stroke-width="0.5" fill="#aaffff" cx="238.0" cy="1027.0" r="1.0"/>
     <text stroke="none" x="238.0" y="1027.0" font-size="10.0" font-family="helvetica">NT1.17</text>
    </g>
    <g>
     <circle stroke="black" stroke-width="0.5" fill="#aaffff" cx="239.0" cy="678.0" r="1.0"/>
     <text stroke="none" x="239.0" y="678.0" font-size="10.0" font-family="helvetica">NT1.18</text>
    </g>
    <g>
     <circle stroke="black" stroke-width="0.5" fill="#aaffff" cx="239.0" cy="1338.0" r="1.0"/>
     <text stroke="none" x="239.0" y="1338.0" font-size="10.0" font-family="helvetica">NT1.19</text>
    </g>
    <g>
     <circle stroke="black" stroke-width="0.5" fill="#aaffff" cx="241.0" cy="457.0" r="1.0"/>
     <text stroke="none" x="241.0" y="457.0" font-size="20.0" font-family="helvetica">99</text>
    </g>
    <g>
     <circle stroke="black" stroke-width="0.5" fill="#aaffff" cx="249.0" cy="911.0" r="1.0"/>
     <text stroke="none" x="249.0" y="911.0" font-size="10.0" font-family="helvetica">NT1.21</text>
    </g>
    <g>
     <circle stroke="black" stroke-width="0.5" fill="#aaffff" cx="250.0" cy="914.0" r="1.0"/>
     <text stroke="none" x="250.0" y="914.0" font-size="10.0" font-family="helvetica">NT1.22</text>
    </g>
    <g>
     <circle stroke="black" stroke-width="0.5" fill="#aaffff" cx="252.0" cy="73.0" r="1.0"/>
     <text stroke="none" x="252.0" y="73.0" font-size="20.0" font-family="helvetica">93</text>
    </g>
    <g>
     <circle stroke="black" stroke-width="0.5" fill="#aaffff" cx="252.0" cy="421.0" r="1.0"/>
     <text stroke="none" x="252.0" y="421.0" font-size="20.0" font-family="helvetica">30</text>
    </g>
    <g>
     <circle stroke="black" stroke-width="0.5" fill="#aaffff" cx="254.0" cy="1171.0" r="1.0"/>
     <text stroke="none" x="254.0" y="1171.0" font-size="10.0" font-family="helvetica">NT1.25</text>
    </g>
    <g>
     <circle stroke="black" stroke-width="0.5" fill="#aaffff" cx="256.0" cy="299.0" r="1.0"/>
     <text stroke="none" x="256.0" y="299.0" font-size="20.0" font-family="helvetica">94</text>
    </g>
    <g>
     <circle stroke="black" stroke-width="0.5" fill="#aaffff" cx="258.0" cy="1317.0" r="1.0"/>
     <text stroke="none" x="258.0" y="1317.0" font-size="10.0" font-family="helvetica">NT1.27</text>
    </g>
    <g>
     <circle stroke="black" stroke-width="0.5" fill="#aaffff" cx="259.0" cy="1319.0" r="1.0"/>
     <text stroke="none" x="259.0" y="1319.0" font-size="10.0" font-family="helvetica">NT1.28</text>
    </g>
    <g>
     <circle stroke="black" stroke-width="0.5" fill="#aaffff" cx="268.0" cy="532.0" r="1.0"/>
     <text stroke="none" x="268.0" y="532.0" font-size="20.0" font-family="helvetica">95</text>
    </g>
    <g>
     <circle stroke="black" stroke-width="0.5" fill="#aaffff" cx="275.0" cy="388.0" r="1.0"/>
     <text stroke="none" x="275.0" y="388.0" font-size="10.0" font-family="helvetica">NT1.30</text>
    </g>
    <g>
     <circle stroke="black" stroke-width="0.5" fill="#aaffff" cx="278.0" cy="742.0" r="1.0"/>
     <text stroke="none" x="278.0" y="742.0" font-size="10.0" font-family="helvetica">NT1.31</text>
    </g>
    <g>
     <circle stroke="black" stroke-width="0.5" fill="#aaffff" cx="278.0" cy="740.0" r="1.0"/>
     <text stroke="none" x="278.0" y="740.0" font-size="10.0" font-family="helvetica">NT1.32</text>
    </g>
    <g>
     <circle stroke="black" stroke-width="0.5" fill="#aaffff" cx="282.0" cy="271.0" r="1.0"/>
     <text stroke="none" x="282.0" y="271.0" font-size="10.0" font-family="helvetica">NT1.33</text>
    </g>
    <g>
     <circle stroke="black" stroke-width="0.5" fill="#aaffff" cx="283.0" cy="274.0" r="1.0"/>
     <text stroke="none" x="283.0" y="274.0" font-size="10.0" font-family="helvetica">NT1.34</text>
    </g>
    <g>
     <circle stroke="black" stroke-width="0.5" fill="#aaffff" cx="284.0" cy="682.0" r="1.0"/>
     <text stroke="none" x="284.0" y="682.0" font-size="10.0" font-family="helvetica">NT1.35</text>
    </g>
    <g>
     <circle stroke="black" stroke-width="0.5" fill="#aaffff" cx="285.0" cy="102.0" r="1.0"/>
     <text stroke="none" x="285.0" y="102.0" font-size="10.0" font-family="helvetica">NT1.36</text>
    </g>
    <g>
     <circle stroke="black" stroke-width="0.5" fill="#aaffff" cx="285.0" cy="392.0" r="1.0"/>
     <text stroke="none" x="285.0" y="392.0" font-size="10.0" font-family="helvetica">NT1.37</text>
    </g>
    <g>
     <circle stroke="black" stroke-width="0.5" fill="#aaffff" cx="286.0" cy="100.0" r="1.0"/>
     <text stroke="none" x="286.0" y="100.0" font-size="10.0" font-family="helvetica">NT1.38</text>
    </g>
    <g>
     <circle stroke="black" stroke-width="0.5" fill="#aaffff" cx="296.0" cy="858.0" r="1.0"/>
     <text stroke="none" x="296.0" y="858.0" font-size="10.0" font-family="helvetica">NT1.39</text>
    </g>
    <g>
     <circle stroke="black" stroke-width="0.5" fill="#aaffff" cx="296.0" cy="856.0" r="1.0"/>
     <text stroke="none" x="296.0" y="856.0" font-size="10.0" font-family="helvetica">NT1.40</text>
    </g>
    <g>
     <circle stroke="black" stroke-width="0.5" fill="#aaffff" cx="299.0" cy="567.0" r="1.0"/>
     <text stroke="none" x="299.0" y="567.0" font-size="10.0" font-family="helvetica">NT1.41</text>
    </g>
    <g>
     <circle stroke="black" stroke-width="0.5" fill="#aaffff" cx="300.0" cy="565.0" r="1.0"/>
     <text stroke="none" x="300.0" y="565.0" font-size="10.0" font-family="helvetica">NT1.42</text>
    </g>
    <g>
     <circle stroke="black" stroke-width="0.5" fill="#aaffff" cx="303.0" cy="1085.0" r="1.0"/>
     <text stroke="none" x="303.0" y="1085.0" font-size="10.0" font-family="helvetica">NT1.43</text>
    </g>
    <g>
     <circle stroke="black" stroke-width="0.5" fill="#aaffff" cx="304.0" cy="335.0" r="1.0"/>
     <text stroke="none" x="304.0" y="335.0" font-size="10.0" font-family="helvetica">NT1.44</text>
    </g>
    <g>
     <circle stroke="black" stroke-width="0.5" fill="#aaffff" cx="304.0" cy="1088.0" r="1.0"/>
     <text stroke="none" x="304.0" y="1088.0" font-size="10.0" font-family="helvetica">NT1.45</text>
    </g>
    <g>
     <circle stroke="black" stroke-width="0.5" fill="#aaffff" cx="305.0" cy="332.0" r="1.0"/>
     <text stroke="none" x="305.0" y="332.0" font-size="10.0" font-family="helvetica">NT1.46</text>
    </g>
    <g>
     <circle stroke="black" stroke-width="0.5" fill="#aaffff" cx="307.0" cy="1143.0" r="1.0"/>
     <text stroke="none" x="307.0" y="1143.0" font-size="10.0" font-family="helvetica">NT1.47</text>
    </g>
    <g>
     <circle stroke="black" stroke-width="0.5" fill="#aaffff" cx="322.0" cy="391.0" r="1.0"/>
     <text stroke="none" x="322.0" y="391.0" font-size="10.0" font-family="helvetica">NT1.48</text>
    </g>
    <g>
     <circle stroke="black" stroke-width="0.5" fill="#aaffff" cx="326.0" cy="739.0" r="1.0"/>
     <text stroke="none" x="326.0" y="739.0" font-size="20.0" font-family="helvetica">Thiorhodospira sibirica A12T (AJ006530)</text>
    </g>
    <g>
     <circle stroke="black" stroke-width="0.5" fill="#aaffff" cx="330.0" cy="1147.0" r="1.0"/>
     <text stroke="none" x="330.0" y="1147.0" font-size="10.0" font-family="helvetica">NT1.50</text>
    </g>
    <g>
     <circle stroke="black" stroke-width="0.5" fill="#aaffff" cx="333.0" cy="1536.0" r="1.0"/>
     <text stroke="none" x="333.0" y="1536.0" font-size="20.0" font-family="helvetica">100</text>
    </g>
    <g>
     <circle stroke="black" stroke-width="0.5" fill="#aaffff" cx="338.0" cy="158.0" r="1.0"/>
     <text stroke="none" x="338.0" y="158.0" font-size="10.0" font-family="helvetica">NT1.52</text>
    </g>
    <g>
     <circle stroke="black" stroke-width="0.5" fill="#aaffff" cx="343.0" cy="681.0" r="1.0"/>
     <text stroke="none" x="343.0" y="681.0" font-size="20.0" font-family="helvetica">Thioalkalivibrio versutus AL 27 (AF126546)</text>
    </g>
    <g>
     <circle stroke="black" stroke-width="0.5" fill="#aaffff" cx="347.0" cy="506.0" r="1.0"/>
     <text stroke="none" x="347.0" y="506.0" font-size="20.0" font-family="helvetica">Arhodomonas aquaeolei ATCC 493077 (M26631)</text>
    </g>
    <g>
     <circle stroke="black" stroke-width="0.5" fill="#aaffff" cx="347.0" cy="1263.0" r="1.0"/>
     <text stroke="none" x="347.0" y="1263.0" font-size="10.0" font-family="helvetica">NT1.55</text>
    </g>
    <g>
     <circle stroke="black" stroke-width="0.5" fill="#aaffff" cx="351.0" cy="1031.0" r="1.0"/>
     <text stroke="none" x="351.0" y="1031.0" font-size="10.0" font-family="helvetica">NT1.56</text>
    </g>
    <g>
     <circle stroke="black" stroke-width="0.5" fill="#aaffff" cx="357.0" cy="100.0" r="1.0"/>
     <text stroke="none" x="357.0" y="100.0" font-size="10.0" font-family="helvetica">NT1.57</text>
    </g>
    <g>
     <circle stroke="black" stroke-width="0.5" fill="#aaffff" cx="359.0" cy="623.0" r="1.0"/>
     <text stroke="none" x="359.0" y="623.0" font-size="20.0" font-family="helvetica">Ectothiorhodospira mobilis DSM 237T (X93481)</text>
    </g>
    <g>
     <circle stroke="black" stroke-width="0.5" fill="#aaffff" cx="362.0" cy="971.0" r="1.0"/>
     <text stroke="none" x="362.0" y="971.0" font-size="10.0" font-family="helvetica">NT1.59</text>
    </g>
    <g>
     <circle stroke="black" stroke-width="0.5" fill="#aaffff" cx="368.0" cy="449.0" r="1.0"/>
     <text stroke="none" x="368.0" y="449.0" font-size="20.0" font-family="helvetica">Halorhodospira halophila Ph-C1 (AJ278688)</text>
    </g>
    <g>
     <circle stroke="black" stroke-width="0.5" fill="#aaffff" cx="368.0" cy="565.0" r="1.0"/>
     <text stroke="none" x="368.0" y="565.0" font-size="20.0" font-family="helvetica">Nitrococcus mobilis ATCC 2538oT (L35510)</text>
    </g>
    <g>
     <circle stroke="black" stroke-width="0.5" fill="#aaffff" cx="370.0" cy="216.0" r="1.0"/>
     <text stroke="none" x="370.0" y="216.0" font-size="20.0" font-family="helvetica">Thiohalospira halophila HL ST (DQ469576)</text>
    </g>
    <g>
     <circle stroke="black" stroke-width="0.5" fill="#aaffff" cx="371.0" cy="41.0" r="1.0"/>
     <text stroke="none" x="371.0" y="41.0" font-size="10.0" font-family="helvetica">NT1.63</text>
    </g>
    <g>
     <circle stroke="black" stroke-width="0.5" fill="#aaffff" cx="371.0" cy="1454.0" r="1.0"/>
     <text stroke="none" x="371.0" y="1454.0" font-size="20.0" font-family="helvetica">100</text>
    </g>
    <g>
     <circle stroke="black" stroke-width="0.5" fill="#aaffff" cx="375.0" cy="1434.0" r="1.0"/>
     <text stroke="none" x="375.0" y="1434.0" font-size="20.0" font-family="helvetica">Uncultured organism clone MAT-CR-P5-H08 (EU246256)</text>
    </g>
    <g>
     <circle stroke="black" stroke-width="0.5" fill="#aaffff" cx="375.0" cy="1497.0" r="1.0"/>
     <text stroke="none" x="375.0" y="1497.0" font-size="10.0" font-family="helvetica">NT1.66</text>
    </g>
    <g>
     <circle stroke="black" stroke-width="0.5" fill="#aaffff" cx="375.0" cy="1436.0" r="1.0"/>
     <text stroke="none" x="375.0" y="1436.0" font-size="20.0" font-family="helvetica">100</text>
    </g>
    <g>
     <circle stroke="black" stroke-width="0.5" fill="#aaffff" cx="375.0" cy="1495.0" r="1.0"/>
     <text stroke="none" x="375.0" y="1495.0" font-size="10.0" font-family="helvetica">NT1.68</text>
    </g>
    <g>
     <circle stroke="black" stroke-width="0.5" fill="#aaffff" cx="378.0" cy="1437.0" r="1.0"/>
     <text stroke="none" x="378.0" y="1437.0" font-size="20.0" font-family="helvetica">Uncultured organism clone MAT-CR-P5-H08 (EU246256)</text>
    </g>
    <g>
     <circle stroke="black" stroke-width="0.5" fill="#aaffff" cx="378.0" cy="1494.0" r="1.0"/>
     <text stroke="none" x="378.0" y="1494.0" font-size="20.0" font-family="helvetica">Uncultured organism clone MAT-CR-P6-F05 (EU246306)</text>
    </g>
    <g>
     <circle stroke="black" stroke-width="0.5" fill="#aaffff" cx="380.0" cy="1609.0" r="1.0"/>
     <text stroke="none" x="380.0" y="1609.0" font-size="10.0" font-family="helvetica">NT1.71</text>
    </g>
    <g>
     <circle stroke="black" stroke-width="0.5" fill="#aaffff" cx="385.0" cy="1664.0" r="1.0"/>
     <text stroke="none" x="385.0" y="1664.0" font-size="20.0" font-family="helvetica">79</text>
    </g>
    <g>
     <circle stroke="black" stroke-width="0.5" fill="#aaffff" cx="387.0" cy="1610.0" r="1.0"/>
     <text stroke="none" x="387.0" y="1610.0" font-size="10.0" font-family="helvetica">NT1.73</text>
    </g>
    <g>
     <circle stroke="black" stroke-width="0.5" fill="#aaffff" cx="389.0" cy="1553.0" r="1.0"/>
     <text stroke="none" x="389.0" y="1553.0" font-size="10.0" font-family="helvetica">NT1.74</text>
    </g>
    <g>
     <circle stroke="black" stroke-width="0.5" fill="#aaffff" cx="392.0" cy="1379.0" r="1.0"/>
     <text stroke="none" x="392.0" y="1379.0" font-size="20.0" font-family="helvetica">Acidithiobacillus ferrooxidans ATCC 232707 (AF465604)</text>
    </g>
    <g>
     <circle stroke="black" stroke-width="0.5" fill="#aaffff" cx="394.0" cy="1319.0" r="1.0"/>
     <text stroke="none" x="394.0" y="1319.0" font-size="20.0" font-family="helvetica">Thermithiobacillus tepidarius DSM 3134T (AJ459801)</text>
    </g>
    <g>
     <circle stroke="black" stroke-width="0.5" fill="#aaffff" cx="394.0" cy="1718.0" r="1.0"/>
     <text stroke="none" x="394.0" y="1718.0" font-size="20.0" font-family="helvetica">80</text>
    </g>
    <g>
     <circle stroke="black" stroke-width="0.5" fill="#aaffff" cx="395.0" cy="1666.0" r="1.0"/>
     <text stroke="none" x="395.0" y="1666.0" font-size="10.0" font-family="helvetica">NT1.78</text>
    </g>
    <g>
     <circle stroke="black" stroke-width="0.5" fill="#aaffff" cx="396.0" cy="1669.0" r="1.0"/>
     <text stroke="none" x="396.0" y="1669.0" font-size="10.0" font-family="helvetica">NT1.79</text>
    </g>
    <g>
     <circle stroke="black" stroke-width="0.5" fill="#aaffff" cx="401.0" cy="1669.0" r="1.0"/>
     <text stroke="none" x="401.0" y="1669.0" font-size="10.0" font-family="helvetica">NT1.80</text>
    </g>
    <g>
     <circle stroke="black" stroke-width="0.5" fill="#aaffff" cx="401.0" cy="1750.0" r="1.0"/>
     <text stroke="none" x="401.0" y="1750.0" font-size="20.0" font-family="helvetica">80</text>
    </g>
    <g>
     <circle stroke="black" stroke-width="0.5" fill="#aaffff" cx="402.0" cy="1726.0" r="1.0"/>
     <text stroke="none" x="402.0" y="1726.0" font-size="10.0" font-family="helvetica">NT1.82</text>
    </g>
    <g>
     <circle stroke="black" stroke-width="0.5" fill="#aaffff" cx="403.0" cy="855.0" r="1.0"/>
     <text stroke="none" x="403.0" y="855.0" font-size="20.0" font-family="helvetica">Halothiobacillus halophilus DSM 6132T (U58020)</text>
    </g>
    <g>
     <circle stroke="black" stroke-width="0.5" fill="#aaffff" cx="404.0" cy="1843.0" r="1.0"/>
     <text stroke="none" x="404.0" y="1843.0" font-size="10.0" font-family="helvetica">NT1.84</text>
    </g>
    <g>
     <circle stroke="black" stroke-width="0.5" fill="#aaffff" cx="404.0" cy="1786.0" r="1.0"/>
     <text stroke="none" x="404.0" y="1786.0" font-size="10.0" font-family="helvetica">NT1.85</text>
    </g>
    <g>
     <circle stroke="black" stroke-width="0.5" fill="#aaffff" cx="405.0" cy="332.0" r="1.0"/>
     <text stroke="none" x="405.0" y="332.0" font-size="20.0" font-family="helvetica">Marinobacter hydrocarbonoclasticus ATCC 4984GT (X67022)</text>
    </g>
    <g>
     <circle stroke="black" stroke-width="0.5" fill="#aaffff" cx="410.0" cy="1786.0" r="1.0"/>
     <text stroke="none" x="410.0" y="1786.0" font-size="10.0" font-family="helvetica">NT1.87</text>
    </g>
    <g>
     <circle stroke="black" stroke-width="0.5" fill="#aaffff" cx="414.0" cy="274.0" r="1.0"/>
     <text stroke="none" x="414.0" y="274.0" font-size="20.0" font-family="helvetica">Halospina denitrificans HGD 1-3T (DQ072719)</text>
    </g>
    <g>
     <circle stroke="black" stroke-width="0.5" fill="#aaffff" cx="414.0" cy="1146.0" r="1.0"/>
     <text stroke="none" x="414.0" y="1146.0" font-size="20.0" font-family="helvetica">Alcanivorax borkumensis SK2T (Y12579)</text>
    </g>
    <g>
     <circle stroke="black" stroke-width="0.5" fill="#aaffff" cx="424.0" cy="914.0" r="1.0"/>
     <text stroke="none" x="424.0" y="914.0" font-size="20.0" font-family="helvetica">Aquimonas voraii GPTSA 207 (AY544768)</text>
    </g>
    <g>
     <circle stroke="black" stroke-width="0.5" fill="#aaffff" cx="428.0" cy="797.0" r="1.0"/>
     <text stroke="none" x="428.0" y="797.0" font-size="20.0" font-family="helvetica">Salinisphaera shabanensis E1 L3AT (AJ421425)</text>
    </g>
    <g>
     <circle stroke="black" stroke-width="0.5" fill="#aaffff" cx="428.0" cy="1205.0" r="1.0"/>
     <text stroke="none" x="428.0" y="1205.0" font-size="20.0" font-family="helvetica">Halomonas elongate ATCC 33173T (M93355)</text>
    </g>
    <g>
     <circle stroke="black" stroke-width="0.5" fill="#aaffff" cx="501.0" cy="1030.0" r="1.0"/>
     <text stroke="none" x="501.0" y="1030.0" font-size="20.0" font-family="helvetica">Escherichia coli ATCC 11775T (X80725)</text>
    </g>
    <g>
     <circle stroke="black" stroke-width="0.5" fill="#aaffff" cx="512.0" cy="1088.0" r="1.0"/>
     <text stroke="none" x="512.0" y="1088.0" font-size="20.0" font-family="helvetica">Thiomicrospira pelophila DSM 1534T (L40809)</text>
    </g>
    <line stroke="black" x1="405.0" y1="332.0" x2="305.0" y2="332.0" stroke-width="0.5"/>
    <line stroke="black" x1="414.0" y1="274.0" x2="283.0" y2="274.0" stroke-width="0.5"/>
    <line stroke="black" x1="368.0" y1="565.0" x2="300.0" y2="565.0" stroke-width="0.5"/>
    <line stroke="black" x1="326.0" y1="739.0" x2="278.0" y2="740.0" stroke-width="0.5"/>
    <line stroke="black" x1="343.0" y1="681.0" x2="284.0" y2="682.0" stroke-width="0.5"/>
    <line stroke="black" x1="403.0" y1="855.0" x2="296.0" y2="856.0" stroke-width="0.5"/>
    <line stroke="black" x1="424.0" y1="914.0" x2="250.0" y2="914.0" stroke-width="0.5"/>
    <line stroke="black" x1="414.0" y1="1146.0" x2="330.0" y2="1147.0" stroke-width="0.5"/>
    <line stroke="black" x1="501.0" y1="1030.0" x2="351.0" y2="1031.0" stroke-width="0.5"/>
    <line stroke="black" x1="54.0" y1="1355.0" x2="117.0" y2="1355.0" stroke-width="0.5"/>
    <line stroke="black" x1="512.0" y1="1088.0" x2="304.0" y2="1088.0" stroke-width="0.5"/>
    <line stroke="black" x1="394.0" y1="1319.0" x2="259.0" y2="1319.0" stroke-width="0.5"/>
    <line stroke="black" x1="378.0" y1="1437.0" x2="375.0" y2="1436.0" stroke-width="0.5"/>
    <line stroke="black" x1="378.0" y1="1494.0" x2="375.0" y2="1495.0" stroke-width="0.5"/>
    <line stroke="black" x1="375.0" y1="1436.0" x2="375.0" y2="1434.0" stroke-width="0.5"/>
    <line stroke="black" x1="207.0" y1="237.0" x2="178.0" y2="453.0" stroke-width="0.5"/>
    <line stroke="black" x1="207.0" y1="237.0" x2="256.0" y2="299.0" stroke-width="0.5"/>
    <line stroke="black" x1="178.0" y1="453.0" x2="241.0" y2="457.0" stroke-width="0.5"/>
    <line stroke="black" x1="178.0" y1="453.0" x2="173.0" y2="709.0" stroke-width="0.5"/>
    <line stroke="black" x1="178.0" y1="453.0" x2="231.0" y2="707.0" stroke-width="0.5"/>
    <line stroke="black" x1="241.0" y1="457.0" x2="268.0" y2="532.0" stroke-width="0.5"/>
    <line stroke="black" x1="173.0" y1="709.0" x2="164.0" y2="860.0" stroke-width="0.5"/>
    <line stroke="black" x1="173.0" y1="709.0" x2="182.0" y2="897.0" stroke-width="0.5"/>
    <line stroke="black" x1="182.0" y1="897.0" x2="190.0" y2="952.0" stroke-width="0.5"/>
    <line stroke="black" x1="182.0" y1="897.0" x2="190.0" y2="818.0" stroke-width="0.5"/>
    <line stroke="black" x1="194.0" y1="971.0" x2="214.0" y2="1080.0" stroke-width="0.5"/>
    <line stroke="black" x1="134.0" y1="1108.0" x2="239.0" y2="1338.0" stroke-width="0.5"/>
    <line stroke="black" x1="134.0" y1="1108.0" x2="117.0" y2="1355.0" stroke-width="0.5"/>
    <line stroke="black" x1="214.0" y1="1080.0" x2="233.0" y2="1117.0" stroke-width="0.5"/>
    <line stroke="black" x1="233.0" y1="1117.0" x2="254.0" y2="1171.0" stroke-width="0.5"/>
    <line stroke="black" x1="333.0" y1="1536.0" x2="371.0" y2="1454.0" stroke-width="0.5"/>
    <line stroke="black" x1="371.0" y1="1454.0" x2="375.0" y2="1436.0" stroke-width="0.5"/>
    <line stroke="black" x1="359.0" y1="623.0" x2="178.0" y2="453.0" stroke-width="0.5"/>
    <line stroke="black" x1="370.0" y1="216.0" x2="220.0" y2="168.0" stroke-width="0.5"/>
    <line stroke="black" x1="368.0" y1="449.0" x2="252.0" y2="421.0" stroke-width="0.5"/>
    <line stroke="black" x1="347.0" y1="506.0" x2="268.0" y2="532.0" stroke-width="0.5"/>
    <line stroke="black" x1="428.0" y1="797.0" x2="190.0" y2="818.0" stroke-width="0.5"/>
    <line stroke="black" x1="392.0" y1="1379.0" x2="239.0" y2="1338.0" stroke-width="0.5"/>
    <line stroke="black" x1="428.0" y1="1205.0" x2="254.0" y2="1171.0" stroke-width="0.5"/>
   </g>
  </g>
 </svg>
</svg>
