<?xml version="1.0" encoding="UTF-8"?>
<svg height="800.0" width="700.0" xmlns="http://www.w3.org/2000/svg">
 <svg>
  <g>
   <g>
    <g>
     <circle stroke="black" stroke-width="0.5" fill="#aaffff" cx="110.0" cy="210.0" r="1.0"/>
     <text stroke="none" x="110.0" y="210.0" font-size="20.0" font-family="helvetica"/>
    </g>
    <g>
     <circle stroke="black" stroke-width="0.5" fill="#aaffff" cx="111.0" cy="147.0" r="1.0"/>
     <text stroke="none" x="111.0" y="147.0" font-size="10.0" font-family="helvetica">NT1.2</text>
    </g>
    <g>
     <circle stroke="black" stroke-width="0.5" fill="#aaffff" cx="117.0" cy="200.0" r="1.0"/>
     <text stroke="none" x="117.0" y="200.0" font-size="20.0" font-family="helvetica"/>
    </g>
    <g>
     <circle stroke="black" stroke-width="0.5" fill="#aaffff" cx="119.0" cy="201.0" r="1.0"/>
     <text stroke="none" x="119.0" y="201.0" font-size="10.0" font-family="helvetica">NT1.4</text>
    </g>
    <g>
     <circle stroke="black" stroke-width="0.5" fill="#aaffff" cx="140.0" cy="184.0" r="1.0"/>
     <text stroke="none" x="140.0" y="184.0" font-size="10.0" font-family="helvetica">NT1.5</text>
    </g>
    <g>
     <circle stroke="black" stroke-width="0.5" fill="#aaffff" cx="150.0" cy="185.0" r="1.0"/>
     <text stroke="none" x="150.0" y="185.0" font-size="10.0" font-family="helvetica">NT1.6</text>
    </g>
    <g>
     <circle stroke="black" stroke-width="0.5" fill="#aaffff" cx="151.0" cy="242.0" r="1.0"/>
     <text stroke="none" x="151.0" y="242.0" font-size="20.0" font-family="helvetica"/>
    </g>
    <g>
     <circle stroke="black" stroke-width="0.5" fill="#aaffff" cx="151.0" cy="246.0" r="1.0"/>
     <text stroke="none" x="151.0" y="246.0" font-size="20.0" font-family="helvetica"/>
    </g>
    <g>
     <circle stroke="black" stroke-width="0.5" fill="#aaffff" cx="153.0" cy="243.0" r="1.0"/>
     <text stroke="none" x="153.0" y="243.0" font-size="10.0" font-family="helvetica">NT1.9</text>
    </g>
    <g>
     <circle stroke="black" stroke-width="0.5" fill="#aaffff" cx="164.0" cy="170.0" r="1.0"/>
     <text stroke="none" x="164.0" y="170.0" font-size="20.0" font-family="helvetica"/>
    </g>
    <g>
     <circle stroke="black" stroke-width="0.5" fill="#aaffff" cx="166.0" cy="191.0" r="1.0"/>
     <text stroke="none" x="166.0" y="191.0" font-size="10.0" font-family="helvetica">NT1.11</text>
    </g>
    <g>
     <circle stroke="black" stroke-width="0.5" fill="#aaffff" cx="169.0" cy="219.0" r="1.0"/>
     <text stroke="none" x="169.0" y="219.0" font-size="10.0" font-family="helvetica">NT1.12</text>
    </g>
    <g>
     <circle stroke="black" stroke-width="0.5" fill="#aaffff" cx="188.0" cy="197.0" r="1.0"/>
     <text stroke="none" x="188.0" y="197.0" font-size="10.0" font-family="helvetica">NT1.13</text>
    </g>
    <g>
     <circle stroke="black" stroke-width="0.5" fill="#aaffff" cx="211.0" cy="260.0" r="1.0"/>
     <text stroke="none" x="211.0" y="260.0" font-size="20.0" font-family="helvetica"/>
    </g>
    <g>
     <circle stroke="black" stroke-width="0.5" fill="#aaffff" cx="217.0" cy="177.0" r="1.0"/>
     <text stroke="none" x="217.0" y="177.0" font-size="20.0" font-family="helvetica"/>
    </g>
    <g>
     <circle stroke="black" stroke-width="0.5" fill="#aaffff" cx="219.0" cy="255.0" r="1.0"/>
     <text stroke="none" x="219.0" y="255.0" font-size="20.0" font-family="helvetica"/>
    </g>
    <g>
     <circle stroke="black" stroke-width="0.5" fill="#aaffff" cx="219.0" cy="253.0" r="1.0"/>
     <text stroke="none" x="219.0" y="253.0" font-size="10.0" font-family="helvetica">NT1.17</text>
    </g>
    <g>
     <circle stroke="black" stroke-width="0.5" fill="#aaffff" cx="220.0" cy="242.0" r="1.0"/>
     <text stroke="none" x="220.0" y="242.0" font-size="20.0" font-family="helvetica"/>
    </g>
    <g>
     <circle stroke="black" stroke-width="0.5" fill="#aaffff" cx="222.0" cy="240.0" r="1.0"/>
     <text stroke="none" x="222.0" y="240.0" font-size="20.0" font-family="helvetica"/>
    </g>
    <g>
     <circle stroke="black" stroke-width="0.5" fill="#aaffff" cx="222.0" cy="244.0" r="1.0"/>
     <text stroke="none" x="222.0" y="244.0" font-size="10.0" font-family="helvetica">NT1.20</text>
    </g>
    <g>
     <circle stroke="black" stroke-width="0.5" fill="#aaffff" cx="224.0" cy="241.0" r="1.0"/>
     <text stroke="none" x="224.0" y="241.0" font-size="10.0" font-family="helvetica">NT1.21</text>
    </g>
    <g>
     <circle stroke="black" stroke-width="0.5" fill="#aaffff" cx="227.0" cy="196.0" r="1.0"/>
     <text stroke="none" x="227.0" y="196.0" font-size="10.0" font-family="helvetica">NT1.22</text>
    </g>
    <g>
     <circle stroke="black" stroke-width="0.5" fill="#aaffff" cx="236.0" cy="226.0" r="1.0"/>
     <text stroke="none" x="236.0" y="226.0" font-size="10.0" font-family="helvetica">NT1.23</text>
    </g>
    <g>
     <circle stroke="black" stroke-width="0.5" fill="#aaffff" cx="248.0" cy="243.0" r="1.0"/>
     <text stroke="none" x="248.0" y="243.0" font-size="20.0" font-family="helvetica"/>
    </g>
    <g>
     <circle stroke="black" stroke-width="0.5" fill="#aaffff" cx="249.0" cy="118.0" r="1.0"/>
     <text stroke="none" x="249.0" y="118.0" font-size="10.0" font-family="helvetica">NT1.25</text>
    </g>
    <g>
     <circle stroke="black" stroke-width="0.5" fill="#aaffff" cx="249.0" cy="240.0" r="1.0"/>
     <text stroke="none" x="249.0" y="240.0" font-size="10.0" font-family="helvetica">NT1.26</text>
    </g>
    <g>
     <circle stroke="black" stroke-width="0.5" fill="#aaffff" cx="250.0" cy="137.0" r="1.0"/>
     <text stroke="none" x="250.0" y="137.0" font-size="10.0" font-family="helvetica">NT1.27</text>
    </g>
    <g>
     <circle stroke="black" stroke-width="0.5" fill="#aaffff" cx="250.0" cy="91.0" r="1.0"/>
     <text stroke="none" x="250.0" y="91.0" font-size="10.0" font-family="helvetica">NT1.28</text>
    </g>
    <g>
     <circle stroke="black" stroke-width="0.5" fill="#aaffff" cx="263.0" cy="253.0" r="1.0"/>
     <text stroke="none" x="263.0" y="253.0" font-size="20.0" font-family="helvetica"/>
    </g>
    <g>
     <circle stroke="black" stroke-width="0.5" fill="#aaffff" cx="284.0" cy="124.0" r="1.0"/>
     <text stroke="none" x="284.0" y="124.0" font-size="10.0" font-family="helvetica">NT1.30</text>
    </g>
    <g>
     <circle stroke="black" stroke-width="0.5" fill="#aaffff" cx="291.0" cy="117.0" r="1.0"/>
     <text stroke="none" x="291.0" y="117.0" font-size="20.0" font-family="helvetica"/>
    </g>
    <g>
     <circle stroke="black" stroke-width="0.5" fill="#aaffff" cx="303.0" cy="69.0" r="1.0"/>
     <text stroke="none" x="303.0" y="69.0" font-size="20.0" font-family="helvetica"/>
    </g>
    <g>
     <circle stroke="black" stroke-width="0.5" fill="#aaffff" cx="307.0" cy="47.0" r="1.0"/>
     <text stroke="none" x="307.0" y="47.0" font-size="20.0" font-family="helvetica"/>
    </g>
    <g>
     <circle stroke="black" stroke-width="0.5" fill="#aaffff" cx="308.0" cy="104.0" r="1.0"/>
     <text stroke="none" x="308.0" y="104.0" font-size="10.0" font-family="helvetica">NT1.34</text>
    </g>
    <g>
     <circle stroke="black" stroke-width="0.5" fill="#aaffff" cx="309.0" cy="64.0" r="1.0"/>
     <text stroke="none" x="309.0" y="64.0" font-size="10.0" font-family="helvetica">NT1.35</text>
    </g>
    <g>
     <circle stroke="black" stroke-width="0.5" fill="#aaffff" cx="312.0" cy="86.0" r="1.0"/>
     <text stroke="none" x="312.0" y="86.0" font-size="10.0" font-family="helvetica">NT1.36</text>
    </g>
    <g>
     <circle stroke="black" stroke-width="0.5" fill="#aaffff" cx="316.0" cy="65.0" r="1.0"/>
     <text stroke="none" x="316.0" y="65.0" font-size="20.0" font-family="helvetica"/>
    </g>
    <g>
     <circle stroke="black" stroke-width="0.5" fill="#aaffff" cx="321.0" cy="79.0" r="1.0"/>
     <text stroke="none" x="321.0" y="79.0" font-size="20.0" font-family="helvetica"/>
    </g>
    <g>
     <circle stroke="black" stroke-width="0.5" fill="#aaffff" cx="322.0" cy="81.0" r="1.0"/>
     <text stroke="none" x="322.0" y="81.0" font-size="10.0" font-family="helvetica">NT1.39</text>
    </g>
    <g>
     <circle stroke="black" stroke-width="0.5" fill="#aaffff" cx="334.0" cy="136.0" r="1.0"/>
     <text stroke="none" x="334.0" y="136.0" font-size="10.0" font-family="helvetica">NT1.40</text>
    </g>
    <g>
     <circle stroke="black" stroke-width="0.5" fill="#aaffff" cx="336.0" cy="134.0" r="1.0"/>
     <text stroke="none" x="336.0" y="134.0" font-size="20.0" font-family="helvetica"/>
    </g>
    <g>
     <circle stroke="black" stroke-width="0.5" fill="#aaffff" cx="337.0" cy="73.0" r="1.0"/>
     <text stroke="none" x="337.0" y="73.0" font-size="10.0" font-family="helvetica">NT1.42</text>
    </g>
    <g>
     <circle stroke="black" stroke-width="0.5" fill="#aaffff" cx="338.0" cy="75.0" r="1.0"/>
     <text stroke="none" x="338.0" y="75.0" font-size="20.0" font-family="helvetica"/>
    </g>
    <g>
     <circle stroke="black" stroke-width="0.5" fill="#aaffff" cx="342.0" cy="140.0" r="1.0"/>
     <text stroke="none" x="342.0" y="140.0" font-size="10.0" font-family="helvetica">NT1.44</text>
    </g>
    <g>
     <circle stroke="black" stroke-width="0.5" fill="#aaffff" cx="343.0" cy="68.0" r="1.0"/>
     <text stroke="none" x="343.0" y="68.0" font-size="20.0" font-family="helvetica"/>
    </g>
    <g>
     <circle stroke="black" stroke-width="0.5" fill="#aaffff" cx="351.0" cy="162.0" r="1.0"/>
     <text stroke="none" x="351.0" y="162.0" font-size="20.0" font-family="helvetica"/>
    </g>
    <g>
     <circle stroke="black" stroke-width="0.5" fill="#aaffff" cx="353.0" cy="160.0" r="1.0"/>
     <text stroke="none" x="353.0" y="160.0" font-size="10.0" font-family="helvetica">NT1.47</text>
    </g>
    <g>
     <circle stroke="black" stroke-width="0.5" fill="#aaffff" cx="357.0" cy="123.0" r="1.0"/>
     <text stroke="none" x="357.0" y="123.0" font-size="20.0" font-family="helvetica"/>
    </g>
    <g>
     <circle stroke="black" stroke-width="0.5" fill="#aaffff" cx="361.0" cy="136.0" r="1.0"/>
     <text stroke="none" x="361.0" y="136.0" font-size="20.0" font-family="helvetica"/>
    </g>
    <g>
     <circle stroke="black" stroke-width="0.5" fill="#aaffff" cx="361.0" cy="191.0" r="1.0"/>
     <text stroke="none" x="361.0" y="191.0" font-size="20.0" font-family="helvetica"/>
    </g>
    <g>
     <circle stroke="black" stroke-width="0.5" fill="#aaffff" cx="361.0" cy="128.0" r="1.0"/>
     <text stroke="none" x="361.0" y="128.0" font-size="10.0" font-family="helvetica">NT1.51</text>
    </g>
    <g>
     <circle stroke="black" stroke-width="0.5" fill="#aaffff" cx="363.0" cy="180.0" r="1.0"/>
     <text stroke="none" x="363.0" y="180.0" font-size="10.0" font-family="helvetica">NT1.52</text>
    </g>
    <g>
     <circle stroke="black" stroke-width="0.5" fill="#aaffff" cx="365.0" cy="202.0" r="1.0"/>
     <text stroke="none" x="365.0" y="202.0" font-size="20.0" font-family="helvetica"/>
    </g>
    <g>
     <circle stroke="black" stroke-width="0.5" fill="#aaffff" cx="366.0" cy="131.0" r="1.0"/>
     <text stroke="none" x="366.0" y="131.0" font-size="20.0" font-family="helvetica"/>
    </g>
    <g>
     <circle stroke="black" stroke-width="0.5" fill="#aaffff" cx="366.0" cy="179.0" r="1.0"/>
     <text stroke="none" x="366.0" y="179.0" font-size="20.0" font-family="helvetica"/>
    </g>
    <g>
     <circle stroke="black" stroke-width="0.5" fill="#aaffff" cx="368.0" cy="195.0" r="1.0"/>
     <text stroke="none" x="368.0" y="195.0" font-size="10.0" font-family="helvetica">NT1.56</text>
    </g>
    <g>
     <circle stroke="black" stroke-width="0.5" fill="#aaffff" cx="370.0" cy="191.0" r="1.0"/>
     <text stroke="none" x="370.0" y="191.0" font-size="20.0" font-family="helvetica"/>
    </g>
    <g>
     <circle stroke="black" stroke-width="0.5" fill="#aaffff" cx="372.0" cy="185.0" r="1.0"/>
     <text stroke="none" x="372.0" y="185.0" font-size="20.0" font-family="helvetica"/>
    </g>
    <g>
     <circle stroke="black" stroke-width="0.5" fill="#aaffff" cx="373.0" cy="215.0" r="1.0"/>
     <text stroke="none" x="373.0" y="215.0" font-size="20.0" font-family="helvetica"/>
    </g>
    <g>
     <circle stroke="black" stroke-width="0.5" fill="#aaffff" cx="374.0" cy="196.0" r="1.0"/>
     <text stroke="none" x="374.0" y="196.0" font-size="20.0" font-family="helvetica"/>
    </g>
    <g>
     <circle stroke="black" stroke-width="0.5" fill="#aaffff" cx="374.0" cy="212.0" r="1.0"/>
     <text stroke="none" x="374.0" y="212.0" font-size="10.0" font-family="helvetica">NT1.61</text>
    </g>
    <g>
     <circle stroke="black" stroke-width="0.5" fill="#aaffff" cx="376.0" cy="212.0" r="1.0"/>
     <text stroke="none" x="376.0" y="212.0" font-size="20.0" font-family="helvetica"/>
    </g>
    <g>
     <circle stroke="black" stroke-width="0.5" fill="#aaffff" cx="383.0" cy="171.0" r="1.0"/>
     <text stroke="none" x="383.0" y="171.0" font-size="10.0" font-family="helvetica">NT1.63</text>
    </g>
    <g>
     <circle stroke="black" stroke-width="0.5" fill="#aaffff" cx="384.0" cy="176.0" r="1.0"/>
     <text stroke="none" x="384.0" y="176.0" font-size="20.0" font-family="helvetica"/>
    </g>
    <g>
     <circle stroke="black" stroke-width="0.5" fill="#aaffff" cx="391.0" cy="118.0" r="1.0"/>
     <text stroke="none" x="391.0" y="118.0" font-size="20.0" font-family="helvetica"/>
    </g>
    <line stroke="black" x1="316.0" y1="65.0" x2="309.0" y2="64.0" stroke-width="0.5"/>
    <line stroke="black" x1="309.0" y1="64.0" x2="303.0" y2="69.0" stroke-width="0.5"/>
    <line stroke="black" x1="322.0" y1="81.0" x2="321.0" y2="79.0" stroke-width="0.5"/>
    <line stroke="black" x1="338.0" y1="75.0" x2="337.0" y2="73.0" stroke-width="0.5"/>
    <line stroke="black" x1="291.0" y1="117.0" x2="284.0" y2="124.0" stroke-width="0.5"/>
    <line stroke="black" x1="334.0" y1="136.0" x2="336.0" y2="134.0" stroke-width="0.5"/>
    <line stroke="black" x1="361.0" y1="128.0" x2="357.0" y2="123.0" stroke-width="0.5"/>
    <line stroke="black" x1="351.0" y1="162.0" x2="353.0" y2="160.0" stroke-width="0.5"/>
    <line stroke="black" x1="361.0" y1="136.0" x2="361.0" y2="128.0" stroke-width="0.5"/>
    <line stroke="black" x1="366.0" y1="131.0" x2="361.0" y2="128.0" stroke-width="0.5"/>
    <line stroke="black" x1="363.0" y1="180.0" x2="366.0" y2="179.0" stroke-width="0.5"/>
    <line stroke="black" x1="361.0" y1="191.0" x2="368.0" y2="195.0" stroke-width="0.5"/>
    <line stroke="black" x1="372.0" y1="185.0" x2="368.0" y2="195.0" stroke-width="0.5"/>
    <line stroke="black" x1="384.0" y1="176.0" x2="383.0" y2="171.0" stroke-width="0.5"/>
    <line stroke="black" x1="370.0" y1="191.0" x2="368.0" y2="195.0" stroke-width="0.5"/>
    <line stroke="black" x1="365.0" y1="202.0" x2="368.0" y2="195.0" stroke-width="0.5"/>
    <line stroke="black" x1="374.0" y1="196.0" x2="368.0" y2="195.0" stroke-width="0.5"/>
    <line stroke="black" x1="376.0" y1="212.0" x2="374.0" y2="212.0" stroke-width="0.5"/>
    <line stroke="black" x1="373.0" y1="215.0" x2="374.0" y2="212.0" stroke-width="0.5"/>
    <line stroke="black" x1="222.0" y1="240.0" x2="224.0" y2="241.0" stroke-width="0.5"/>
    <line stroke="black" x1="248.0" y1="243.0" x2="249.0" y2="240.0" stroke-width="0.5"/>
    <line stroke="black" x1="222.0" y1="244.0" x2="220.0" y2="242.0" stroke-width="0.5"/>
    <line stroke="black" x1="219.0" y1="255.0" x2="219.0" y2="253.0" stroke-width="0.5"/>
    <line stroke="black" x1="151.0" y1="242.0" x2="153.0" y2="243.0" stroke-width="0.5"/>
    <line stroke="black" x1="151.0" y1="246.0" x2="153.0" y2="243.0" stroke-width="0.5"/>
    <line stroke="black" x1="117.0" y1="200.0" x2="119.0" y2="201.0" stroke-width="0.5"/>
    <line stroke="black" x1="309.0" y1="64.0" x2="312.0" y2="86.0" stroke-width="0.5"/>
    <line stroke="black" x1="312.0" y1="86.0" x2="312.0" y2="86.0" stroke-width="0.5"/>
    <line stroke="black" x1="312.0" y1="86.0" x2="322.0" y2="81.0" stroke-width="0.5"/>
    <line stroke="black" x1="308.0" y1="104.0" x2="308.0" y2="104.0" stroke-width="0.5"/>
    <line stroke="black" x1="337.0" y1="73.0" x2="343.0" y2="68.0" stroke-width="0.5"/>
    <line stroke="black" x1="284.0" y1="124.0" x2="284.0" y2="124.0" stroke-width="0.5"/>
    <line stroke="black" x1="284.0" y1="124.0" x2="284.0" y2="124.0" stroke-width="0.5"/>
    <line stroke="black" x1="284.0" y1="124.0" x2="249.0" y2="118.0" stroke-width="0.5"/>
    <line stroke="black" x1="334.0" y1="136.0" x2="342.0" y2="140.0" stroke-width="0.5"/>
    <line stroke="black" x1="342.0" y1="140.0" x2="342.0" y2="140.0" stroke-width="0.5"/>
    <line stroke="black" x1="342.0" y1="140.0" x2="342.0" y2="140.0" stroke-width="0.5"/>
    <line stroke="black" x1="250.0" y1="137.0" x2="250.0" y2="137.0" stroke-width="0.5"/>
    <line stroke="black" x1="361.0" y1="128.0" x2="361.0" y2="128.0" stroke-width="0.5"/>
    <line stroke="black" x1="250.0" y1="91.0" x2="250.0" y2="91.0" stroke-width="0.5"/>
    <line stroke="black" x1="363.0" y1="180.0" x2="383.0" y2="171.0" stroke-width="0.5"/>
    <line stroke="black" x1="383.0" y1="171.0" x2="383.0" y2="171.0" stroke-width="0.5"/>
    <line stroke="black" x1="368.0" y1="195.0" x2="363.0" y2="180.0" stroke-width="0.5"/>
    <line stroke="black" x1="368.0" y1="195.0" x2="368.0" y2="195.0" stroke-width="0.5"/>
    <line stroke="black" x1="368.0" y1="195.0" x2="374.0" y2="212.0" stroke-width="0.5"/>
    <line stroke="black" x1="227.0" y1="196.0" x2="227.0" y2="196.0" stroke-width="0.5"/>
    <line stroke="black" x1="227.0" y1="196.0" x2="236.0" y2="226.0" stroke-width="0.5"/>
    <line stroke="black" x1="188.0" y1="197.0" x2="188.0" y2="197.0" stroke-width="0.5"/>
    <line stroke="black" x1="188.0" y1="197.0" x2="166.0" y2="191.0" stroke-width="0.5"/>
    <line stroke="black" x1="224.0" y1="241.0" x2="222.0" y2="244.0" stroke-width="0.5"/>
    <line stroke="black" x1="169.0" y1="219.0" x2="169.0" y2="219.0" stroke-width="0.5"/>
    <line stroke="black" x1="150.0" y1="185.0" x2="150.0" y2="185.0" stroke-width="0.5"/>
    <line stroke="black" x1="150.0" y1="185.0" x2="140.0" y2="184.0" stroke-width="0.5"/>
    <line stroke="black" x1="119.0" y1="201.0" x2="110.0" y2="210.0" stroke-width="0.5"/>
    <line stroke="black" x1="111.0" y1="147.0" x2="111.0" y2="147.0" stroke-width="0.5"/>
    <line stroke="black" x1="111.0" y1="147.0" x2="111.0" y2="147.0" stroke-width="0.5"/>
    <line stroke="black" x1="111.0" y1="147.0" x2="111.0" y2="147.0" stroke-width="0.5"/>
    <line stroke="black" x1="140.0" y1="184.0" x2="119.0" y2="201.0" stroke-width="0.5"/>
    <line stroke="black" x1="140.0" y1="184.0" x2="111.0" y2="147.0" stroke-width="0.5"/>
    <line stroke="black" x1="166.0" y1="191.0" x2="150.0" y2="185.0" stroke-width="0.5"/>
    <line stroke="black" x1="169.0" y1="219.0" x2="153.0" y2="243.0" stroke-width="0.5"/>
    <line stroke="black" x1="164.0" y1="170.0" x2="166.0" y2="191.0" stroke-width="0.5"/>
    <line stroke="black" x1="188.0" y1="197.0" x2="169.0" y2="219.0" stroke-width="0.5"/>
    <line stroke="black" x1="219.0" y1="253.0" x2="211.0" y2="260.0" stroke-width="0.5"/>
    <line stroke="black" x1="227.0" y1="196.0" x2="188.0" y2="197.0" stroke-width="0.5"/>
    <line stroke="black" x1="222.0" y1="244.0" x2="219.0" y2="253.0" stroke-width="0.5"/>
    <line stroke="black" x1="227.0" y1="196.0" x2="217.0" y2="177.0" stroke-width="0.5"/>
    <line stroke="black" x1="236.0" y1="226.0" x2="224.0" y2="241.0" stroke-width="0.5"/>
    <line stroke="black" x1="250.0" y1="137.0" x2="227.0" y2="196.0" stroke-width="0.5"/>
    <line stroke="black" x1="249.0" y1="118.0" x2="249.0" y2="118.0" stroke-width="0.5"/>
    <line stroke="black" x1="236.0" y1="226.0" x2="249.0" y2="240.0" stroke-width="0.5"/>
    <line stroke="black" x1="284.0" y1="124.0" x2="250.0" y2="91.0" stroke-width="0.5"/>
    <line stroke="black" x1="284.0" y1="124.0" x2="250.0" y2="137.0" stroke-width="0.5"/>
    <line stroke="black" x1="249.0" y1="240.0" x2="263.0" y2="253.0" stroke-width="0.5"/>
    <line stroke="black" x1="307.0" y1="47.0" x2="309.0" y2="64.0" stroke-width="0.5"/>
    <line stroke="black" x1="308.0" y1="104.0" x2="284.0" y2="124.0" stroke-width="0.5"/>
    <line stroke="black" x1="312.0" y1="86.0" x2="308.0" y2="104.0" stroke-width="0.5"/>
    <line stroke="black" x1="284.0" y1="124.0" x2="334.0" y2="136.0" stroke-width="0.5"/>
    <line stroke="black" x1="337.0" y1="73.0" x2="322.0" y2="81.0" stroke-width="0.5"/>
    <line stroke="black" x1="342.0" y1="140.0" x2="361.0" y2="128.0" stroke-width="0.5"/>
    <line stroke="black" x1="353.0" y1="160.0" x2="342.0" y2="140.0" stroke-width="0.5"/>
    <line stroke="black" x1="353.0" y1="160.0" x2="383.0" y2="171.0" stroke-width="0.5"/>
    <line stroke="black" x1="391.0" y1="118.0" x2="361.0" y2="128.0" stroke-width="0.5"/>
   </g>
  </g>
 </svg>
</svg>
