<?xml version="1.0" encoding="UTF-8"?>
<svg height="800.0" width="700.0" xmlns="http://www.w3.org/2000/svg">
 <svg>
  <g>
   <g>
    <g>
     <circle stroke="black" stroke-width="0.5" fill="#aaffff" cx="11.0" cy="160.0" r="1.0"/>
     <text stroke="none" x="11.0" y="160.0" font-size="10.0" font-family="helvetica">NT1.1</text>
    </g>
    <g>
     <circle stroke="black" stroke-width="0.5" fill="#aaffff" cx="40.0" cy="455.0" r="1.0"/>
     <text stroke="none" x="40.0" y="455.0" font-size="10.0" font-family="helvetica">NT1.2</text>
    </g>
    <g>
     <circle stroke="black" stroke-width="0.5" fill="#aaffff" cx="109.0" cy="160.0" r="1.0"/>
     <text stroke="none" x="109.0" y="160.0" font-size="20.0" font-family="helvetica">Reichenbachiella agariperforans KMM 35257 (ABO58919)</text>
    </g>
    <g>
     <circle stroke="black" stroke-width="0.5" fill="#aaffff" cx="115.0" cy="598.0" r="1.0"/>
     <text stroke="none" x="115.0" y="598.0" font-size="20.0" font-family="helvetica">100</text>
    </g>
    <g>
     <circle stroke="black" stroke-width="0.5" fill="#aaffff" cx="142.0" cy="732.0" r="1.0"/>
     <text stroke="none" x="142.0" y="732.0" font-size="20.0" font-family="helvetica">100</text>
    </g>
    <g>
     <circle stroke="black" stroke-width="0.5" fill="#aaffff" cx="147.0" cy="847.0" r="1.0"/>
     <text stroke="none" x="147.0" y="847.0" font-size="20.0" font-family="helvetica">95</text>
    </g>
    <g>
     <circle stroke="black" stroke-width="0.5" fill="#aaffff" cx="149.0" cy="923.0" r="1.0"/>
     <text stroke="none" x="149.0" y="923.0" font-size="20.0" font-family="helvetica">Roseivirga seohaensis SW-152T (AY739883)</text>
    </g>
    <g>
     <circle stroke="black" stroke-width="0.5" fill="#aaffff" cx="150.0" cy="771.0" r="1.0"/>
     <text stroke="none" x="150.0" y="771.0" font-size="20.0" font-family="helvetica">Roseivirga ehrenbergii KMM 6O17T (AY608410)</text>
    </g>
    <g>
     <circle stroke="black" stroke-width="0.5" fill="#aaffff" cx="153.0" cy="618.0" r="1.0"/>
     <text stroke="none" x="153.0" y="618.0" font-size="20.0" font-family="helvetica">Roseivirga echinicomitans KMM 6058T (AY753206)</text>
    </g>
    <g>
     <circle stroke="black" stroke-width="0.5" fill="#aaffff" cx="159.0" cy="465.0" r="1.0"/>
     <text stroke="none" x="159.0" y="465.0" font-size="10.0" font-family="helvetica">NT1.10</text>
    </g>
    <g>
     <circle stroke="black" stroke-width="0.5" fill="#aaffff" cx="172.0" cy="313.0" r="1.0"/>
     <text stroke="none" x="172.0" y="313.0" font-size="20.0" font-family="helvetica">Belliella baltica BA134T (AJ564843)</text>
    </g>
    <g>
     <circle stroke="black" stroke-width="0.5" fill="#aaffff" cx="212.0" cy="7.0" r="1.0"/>
     <text stroke="none" x="212.0" y="7.0" font-size="20.0" font-family="helvetica">Cytophaga hutchinsonii ATCC 334067 (M58768)</text>
    </g>
    <g>
     <circle stroke="black" stroke-width="0.5" fill="#aaffff" cx="10.0" cy="83.0" r="1.0"/>
     <text stroke="none" x="10.0" y="83.0" font-size="10.0" font-family="helvetica">NT1.13</text>
    </g>
    <line stroke="black" x1="109.0" y1="160.0" x2="11.0" y2="160.0" stroke-width="0.5"/>
    <line stroke="black" x1="172.0" y1="313.0" x2="40.0" y2="455.0" stroke-width="0.5"/>
    <line stroke="black" x1="153.0" y1="618.0" x2="142.0" y2="732.0" stroke-width="0.5"/>
    <line stroke="black" x1="149.0" y1="923.0" x2="147.0" y2="847.0" stroke-width="0.5"/>
    <line stroke="black" x1="150.0" y1="771.0" x2="147.0" y2="847.0" stroke-width="0.5"/>
    <line stroke="black" x1="11.0" y1="160.0" x2="40.0" y2="455.0" stroke-width="0.5"/>
    <line stroke="black" x1="115.0" y1="598.0" x2="142.0" y2="732.0" stroke-width="0.5"/>
    <line stroke="black" x1="142.0" y1="732.0" x2="147.0" y2="847.0" stroke-width="0.5"/>
    <line stroke="black" x1="10.0" y1="83.0" x2="212.0" y2="7.0" stroke-width="0.5"/>
    <line stroke="black" x1="10.0" y1="83.0" x2="11.0" y2="160.0" stroke-width="0.5"/>
   </g>
  </g>
 </svg>
</svg>
