<?xml version="1.0" encoding="UTF-8"?>
<svg height="800.0" width="700.0" xmlns="http://www.w3.org/2000/svg">
 <svg>
  <g>
   <g>
    <g>
     <circle stroke="black" stroke-width="0.5" fill="#aaffff" cx="320.0" cy="618.0" r="1.0"/>
     <text stroke="none" x="320.0" y="618.0" font-size="10.0" font-family="helvetica">NT1.1</text>
    </g>
    <g>
     <circle stroke="black" stroke-width="0.5" fill="#aaffff" cx="338.0" cy="706.0" r="1.0"/>
     <text stroke="none" x="338.0" y="706.0" font-size="10.0" font-family="helvetica">NT1.2</text>
    </g>
    <g>
     <circle stroke="black" stroke-width="0.5" fill="#aaffff" cx="357.0" cy="746.0" r="1.0"/>
     <text stroke="none" x="357.0" y="746.0" font-size="10.0" font-family="helvetica">NT1.3</text>
    </g>
    <g>
     <circle stroke="black" stroke-width="0.5" fill="#aaffff" cx="379.0" cy="530.0" r="1.0"/>
     <text stroke="none" x="379.0" y="530.0" font-size="10.0" font-family="helvetica">NT1.4</text>
    </g>
    <g>
     <circle stroke="black" stroke-width="0.5" fill="#aaffff" cx="412.0" cy="778.0" r="1.0"/>
     <text stroke="none" x="412.0" y="778.0" font-size="10.0" font-family="helvetica">NT1.5</text>
    </g>
    <g>
     <circle stroke="black" stroke-width="0.5" fill="#aaffff" cx="421.0" cy="454.0" r="1.0"/>
     <text stroke="none" x="421.0" y="454.0" font-size="10.0" font-family="helvetica">NT1.6</text>
    </g>
    <g>
     <circle stroke="black" stroke-width="0.5" fill="#aaffff" cx="453.0" cy="812.0" r="1.0"/>
     <text stroke="none" x="453.0" y="812.0" font-size="10.0" font-family="helvetica">NT1.7</text>
    </g>
    <g>
     <circle stroke="black" stroke-width="0.5" fill="#aaffff" cx="464.0" cy="333.0" r="1.0"/>
     <text stroke="none" x="464.0" y="333.0" font-size="10.0" font-family="helvetica">NT1.8</text>
    </g>
    <g>
     <circle stroke="black" stroke-width="0.5" fill="#aaffff" cx="473.0" cy="667.0" r="1.0"/>
     <text stroke="none" x="473.0" y="667.0" font-size="10.0" font-family="helvetica">NT1.9</text>
    </g>
    <g>
     <circle stroke="black" stroke-width="0.5" fill="#aaffff" cx="487.0" cy="840.0" r="1.0"/>
     <text stroke="none" x="487.0" y="840.0" font-size="10.0" font-family="helvetica">NT1.10</text>
    </g>
    <g>
     <circle stroke="black" stroke-width="0.5" fill="#aaffff" cx="491.0" cy="646.0" r="1.0"/>
     <text stroke="none" x="491.0" y="646.0" font-size="10.0" font-family="helvetica">NT1.11</text>
    </g>
    <g>
     <circle stroke="black" stroke-width="0.5" fill="#aaffff" cx="500.0" cy="429.0" r="1.0"/>
     <text stroke="none" x="500.0" y="429.0" font-size="10.0" font-family="helvetica">NT1.12</text>
    </g>
    <g>
     <circle stroke="black" stroke-width="0.5" fill="#aaffff" cx="503.0" cy="659.0" r="1.0"/>
     <text stroke="none" x="503.0" y="659.0" font-size="20.0" font-family="helvetica">R. huautlense S027 (AFO25852)</text>
    </g>
    <g>
     <circle stroke="black" stroke-width="0.5" fill="#aaffff" cx="522.0" cy="466.0" r="1.0"/>
     <text stroke="none" x="522.0" y="466.0" font-size="10.0" font-family="helvetica">NT1.14</text>
    </g>
    <g>
     <circle stroke="black" stroke-width="0.5" fill="#aaffff" cx="534.0" cy="631.0" r="1.0"/>
     <text stroke="none" x="534.0" y="631.0" font-size="20.0" font-family="helvetica">R. galegae ATCC 43677T(D11343)</text>
    </g>
    <g>
     <circle stroke="black" stroke-width="0.5" fill="#aaffff" cx="537.0" cy="234.0" r="1.0"/>
     <text stroke="none" x="537.0" y="234.0" font-size="10.0" font-family="helvetica">NT1.16</text>
    </g>
    <g>
     <circle stroke="black" stroke-width="0.5" fill="#aaffff" cx="548.0" cy="575.0" r="1.0"/>
     <text stroke="none" x="548.0" y="575.0" font-size="20.0" font-family="helvetica">R. tubonense CCBAU 850467 (EU256434)</text>
    </g>
    <g>
     <circle stroke="black" stroke-width="0.5" fill="#aaffff" cx="549.0" cy="715.0" r="1.0"/>
     <text stroke="none" x="549.0" y="715.0" font-size="20.0" font-family="helvetica"/>
    </g>
    <g>
     <circle stroke="black" stroke-width="0.5" fill="#aaffff" cx="559.0" cy="170.0" r="1.0"/>
     <text stroke="none" x="559.0" y="170.0" font-size="10.0" font-family="helvetica">NT1.19</text>
    </g>
    <g>
     <circle stroke="black" stroke-width="0.5" fill="#aaffff" cx="560.0" cy="487.0" r="1.0"/>
     <text stroke="none" x="560.0" y="487.0" font-size="10.0" font-family="helvetica">NT1.20</text>
    </g>
    <g>
     <circle stroke="black" stroke-width="0.5" fill="#aaffff" cx="563.0" cy="532.0" r="1.0"/>
     <text stroke="none" x="563.0" y="532.0" font-size="10.0" font-family="helvetica">NT1.21</text>
    </g>
    <g>
     <circle stroke="black" stroke-width="0.5" fill="#aaffff" cx="566.0" cy="491.0" r="1.0"/>
     <text stroke="none" x="566.0" y="491.0" font-size="20.0" font-family="helvetica">R. yanglingense CCBAU 716237 (AF.O03375)</text>
    </g>
    <g>
     <circle stroke="black" stroke-width="0.5" fill="#aaffff" cx="568.0" cy="395.0" r="1.0"/>
     <text stroke="none" x="568.0" y="395.0" font-size="10.0" font-family="helvetica">NT1.23</text>
    </g>
    <g>
     <circle stroke="black" stroke-width="0.5" fill="#aaffff" cx="575.0" cy="435.0" r="1.0"/>
     <text stroke="none" x="575.0" y="435.0" font-size="20.0" font-family="helvetica">R. sullae IS123T (Y10170)</text>
    </g>
    <g>
     <circle stroke="black" stroke-width="0.5" fill="#aaffff" cx="575.0" cy="519.0" r="1.0"/>
     <text stroke="none" x="575.0" y="519.0" font-size="20.0" font-family="helvetica">R. loessense CCBAU 71 QOBT (AF364069)</text>
    </g>
    <g>
     <circle stroke="black" stroke-width="0.5" fill="#aaffff" cx="578.0" cy="295.0" r="1.0"/>
     <text stroke="none" x="578.0" y="295.0" font-size="10.0" font-family="helvetica">NT1.26</text>
    </g>
    <g>
     <circle stroke="black" stroke-width="0.5" fill="#aaffff" cx="583.0" cy="408.0" r="1.0"/>
     <text stroke="none" x="583.0" y="408.0" font-size="20.0" font-family="helvetica">R. mesosinicum CCBAU 2501 OT (DQ100063)</text>
    </g>
    <g>
     <circle stroke="black" stroke-width="0.5" fill="#aaffff" cx="583.0" cy="463.0" r="1.0"/>
     <text stroke="none" x="583.0" y="463.0" font-size="20.0" font-family="helvetica">R. gallicum R6O2T (U86343)</text>
    </g>
    <g>
     <circle stroke="black" stroke-width="0.5" fill="#aaffff" cx="584.0" cy="379.0" r="1.0"/>
     <text stroke="none" x="584.0" y="379.0" font-size="20.0" font-family="helvetica">R. alamiiGBVO16T (AM931436)</text>
    </g>
    <g>
     <circle stroke="black" stroke-width="0.5" fill="#aaffff" cx="590.0" cy="743.0" r="1.0"/>
     <text stroke="none" x="590.0" y="743.0" font-size="20.0" font-family="helvetica">R. daejeonense L61T (AY341343)</text>
    </g>
    <g>
     <circle stroke="black" stroke-width="0.5" fill="#aaffff" cx="591.0" cy="786.0" r="1.0"/>
     <text stroke="none" x="591.0" y="786.0" font-size="10.0" font-family="helvetica">NT1.31</text>
    </g>
    <g>
     <circle stroke="black" stroke-width="0.5" fill="#aaffff" cx="594.0" cy="322.0" r="1.0"/>
     <text stroke="none" x="594.0" y="322.0" font-size="10.0" font-family="helvetica">NT1.32</text>
    </g>
    <g>
     <circle stroke="black" stroke-width="0.5" fill="#aaffff" cx="599.0" cy="296.0" r="1.0"/>
     <text stroke="none" x="599.0" y="296.0" font-size="20.0" font-family="helvetica">R. pisi DSM 301321 (AY509899)</text>
    </g>
    <g>
     <circle stroke="black" stroke-width="0.5" fill="#aaffff" cx="601.0" cy="323.0" r="1.0"/>
     <text stroke="none" x="601.0" y="323.0" font-size="20.0" font-family="helvetica">R. fabae CCBAU 332O2T (DQ835306)</text>
    </g>
    <g>
     <circle stroke="black" stroke-width="0.5" fill="#aaffff" cx="603.0" cy="352.0" r="1.0"/>
     <text stroke="none" x="603.0" y="352.0" font-size="20.0" font-family="helvetica">R. phaseoli ATCC 144827 (EF141340)</text>
    </g>
    <g>
     <circle stroke="black" stroke-width="0.5" fill="#aaffff" cx="605.0" cy="547.0" r="1.0"/>
     <text stroke="none" x="605.0" y="547.0" font-size="20.0" font-family="helvetica">R. mongolense USDA 18447 (U8981 7)</text>
    </g>
    <g>
     <circle stroke="black" stroke-width="0.5" fill="#aaffff" cx="612.0" cy="267.0" r="1.0"/>
     <text stroke="none" x="612.0" y="267.0" font-size="20.0" font-family="helvetica">R. etli CFN 42T(U28916)</text>
    </g>
    <g>
     <circle stroke="black" stroke-width="0.5" fill="#aaffff" cx="612.0" cy="603.0" r="1.0"/>
     <text stroke="none" x="612.0" y="603.0" font-size="20.0" font-family="helvetica">R. oryzae Alt 505 T (EUO56823)</text>
    </g>
    <g>
     <circle stroke="black" stroke-width="0.5" fill="#aaffff" cx="612.0" cy="225.0" r="1.0"/>
     <text stroke="none" x="612.0" y="225.0" font-size="10.0" font-family="helvetica">NT1.39</text>
    </g>
    <g>
     <circle stroke="black" stroke-width="0.5" fill="#aaffff" cx="613.0" cy="210.0" r="1.0"/>
     <text stroke="none" x="613.0" y="210.0" font-size="20.0" font-family="helvetica">R. indigoferae CCBAU 71042</text>
    </g>
    <g>
     <circle stroke="black" stroke-width="0.5" fill="#aaffff" cx="640.0" cy="240.0" r="1.0"/>
     <text stroke="none" x="640.0" y="240.0" font-size="20.0" font-family="helvetica">R. leguminosarum USDA 23707 (U29386)</text>
    </g>
    <g>
     <circle stroke="black" stroke-width="0.5" fill="#aaffff" cx="641.0" cy="687.0" r="1.0"/>
     <text stroke="none" x="641.0" y="687.0" font-size="20.0" font-family="helvetica">R. cellulosil ticum ALA10B2T (DQ855276)</text>
    </g>
    <g>
     <circle stroke="black" stroke-width="0.5" fill="#aaffff" cx="654.0" cy="111.0" r="1.0"/>
     <text stroke="none" x="654.0" y="111.0" font-size="20.0" font-family="helvetica">100</text>
    </g>
    <g>
     <circle stroke="black" stroke-width="0.5" fill="#aaffff" cx="661.0" cy="147.0" r="1.0"/>
     <text stroke="none" x="661.0" y="147.0" font-size="10.0" font-family="helvetica">NT1.44</text>
    </g>
    <g>
     <circle stroke="black" stroke-width="0.5" fill="#aaffff" cx="669.0" cy="169.0" r="1.0"/>
     <text stroke="none" x="669.0" y="169.0" font-size="10.0" font-family="helvetica">NT1.45</text>
    </g>
    <g>
     <circle stroke="black" stroke-width="0.5" fill="#aaffff" cx="673.0" cy="183.0" r="1.0"/>
     <text stroke="none" x="673.0" y="183.0" font-size="20.0" font-family="helvetica">R. rhizogenes LMG 1527 (X67224)</text>
    </g>
    <g>
     <circle stroke="black" stroke-width="0.5" fill="#aaffff" cx="674.0" cy="156.0" r="1.0"/>
     <text stroke="none" x="674.0" y="156.0" font-size="20.0" font-family="helvetica">R. lusitanum P1 -7T (AY738130)</text>
    </g>
    <g>
     <circle stroke="black" stroke-width="0.5" fill="#aaffff" cx="682.0" cy="855.0" r="1.0"/>
     <text stroke="none" x="682.0" y="855.0" font-size="20.0" font-family="helvetica">R. vitis LMG 875OT (X67225)</text>
    </g>
    <g>
     <circle stroke="black" stroke-width="0.5" fill="#aaffff" cx="683.0" cy="73.0" r="1.0"/>
     <text stroke="none" x="683.0" y="73.0" font-size="10.0" font-family="helvetica">NT1.49</text>
    </g>
    <g>
     <circle stroke="black" stroke-width="0.5" fill="#aaffff" cx="687.0" cy="127.0" r="1.0"/>
     <text stroke="none" x="687.0" y="127.0" font-size="20.0" font-family="helvetica">R. tropici LMG 9517 (X67234)</text>
    </g>
    <g>
     <circle stroke="black" stroke-width="0.5" fill="#aaffff" cx="687.0" cy="827.0" r="1.0"/>
     <text stroke="none" x="687.0" y="827.0" font-size="20.0" font-family="helvetica">R. undicola LMG 11875T(Y17O47)</text>
    </g>
    <g>
     <circle stroke="black" stroke-width="0.5" fill="#aaffff" cx="693.0" cy="44.0" r="1.0"/>
     <text stroke="none" x="693.0" y="44.0" font-size="10.0" font-family="helvetica">NT1.52</text>
    </g>
    <g>
     <circle stroke="black" stroke-width="0.5" fill="#aaffff" cx="695.0" cy="99.0" r="1.0"/>
     <text stroke="none" x="695.0" y="99.0" font-size="20.0" font-family="helvetica">R. rniluonense CCBAU 41251T(EFO61096)</text>
    </g>
    <g>
     <circle stroke="black" stroke-width="0.5" fill="#aaffff" cx="695.0" cy="799.0" r="1.0"/>
     <text stroke="none" x="695.0" y="799.0" font-size="20.0" font-family="helvetica">R. rubl LMG 156T (X67228)</text>
    </g>
    <g>
     <circle stroke="black" stroke-width="0.5" fill="#aaffff" cx="698.0" cy="16.0" r="1.0"/>
     <text stroke="none" x="698.0" y="16.0" font-size="20.0" font-family="helvetica">R. multihospitium CCBAU 834O1T(EF035O74)</text>
    </g>
    <g>
     <circle stroke="black" stroke-width="0.5" fill="#aaffff" cx="700.0" cy="771.0" r="1.0"/>
     <text stroke="none" x="700.0" y="771.0" font-size="20.0" font-family="helvetica">R. larrymooreiAF3.1OT (Z30542)</text>
    </g>
    <g>
     <circle stroke="black" stroke-width="0.5" fill="#aaffff" cx="711.0" cy="72.0" r="1.0"/>
     <text stroke="none" x="711.0" y="72.0" font-size="20.0" font-family="helvetica">R. hainanense I66T (U71078)</text>
    </g>
    <g>
     <circle stroke="black" stroke-width="0.5" fill="#aaffff" cx="741.0" cy="44.0" r="1.0"/>
     <text stroke="none" x="741.0" y="44.0" font-size="20.0" font-family="helvetica">R. tropici CIAT 8997 (U89832)</text>
    </g>
    <g>
     <circle stroke="black" stroke-width="0.5" fill="#aaffff" cx="741.0" cy="883.0" r="1.0"/>
     <text stroke="none" x="741.0" y="883.0" font-size="20.0" font-family="helvetica">Bradyrhizobium elkanii USDA 76T (U35000)</text>
    </g>
    <line stroke="black" x1="741.0" y1="44.0" x2="693.0" y2="44.0" stroke-width="0.5"/>
    <line stroke="black" x1="687.0" y1="127.0" x2="661.0" y2="147.0" stroke-width="0.5"/>
    <line stroke="black" x1="613.0" y1="210.0" x2="612.0" y2="225.0" stroke-width="0.5"/>
    <line stroke="black" x1="640.0" y1="240.0" x2="612.0" y2="225.0" stroke-width="0.5"/>
    <line stroke="black" x1="601.0" y1="323.0" x2="594.0" y2="322.0" stroke-width="0.5"/>
    <line stroke="black" x1="583.0" y1="408.0" x2="568.0" y2="395.0" stroke-width="0.5"/>
    <line stroke="black" x1="584.0" y1="379.0" x2="568.0" y2="395.0" stroke-width="0.5"/>
    <line stroke="black" x1="566.0" y1="491.0" x2="560.0" y2="487.0" stroke-width="0.5"/>
    <line stroke="black" x1="575.0" y1="435.0" x2="522.0" y2="466.0" stroke-width="0.5"/>
    <line stroke="black" x1="605.0" y1="547.0" x2="563.0" y2="532.0" stroke-width="0.5"/>
    <line stroke="black" x1="549.0" y1="715.0" x2="357.0" y2="746.0" stroke-width="0.5"/>
    <line stroke="black" x1="641.0" y1="687.0" x2="473.0" y2="667.0" stroke-width="0.5"/>
    <line stroke="black" x1="693.0" y1="44.0" x2="683.0" y2="73.0" stroke-width="0.5"/>
    <line stroke="black" x1="683.0" y1="73.0" x2="654.0" y2="111.0" stroke-width="0.5"/>
    <line stroke="black" x1="654.0" y1="111.0" x2="559.0" y2="170.0" stroke-width="0.5"/>
    <line stroke="black" x1="654.0" y1="111.0" x2="661.0" y2="147.0" stroke-width="0.5"/>
    <line stroke="black" x1="661.0" y1="147.0" x2="669.0" y2="169.0" stroke-width="0.5"/>
    <line stroke="black" x1="559.0" y1="170.0" x2="537.0" y2="234.0" stroke-width="0.5"/>
    <line stroke="black" x1="559.0" y1="170.0" x2="612.0" y2="225.0" stroke-width="0.5"/>
    <line stroke="black" x1="537.0" y1="234.0" x2="464.0" y2="333.0" stroke-width="0.5"/>
    <line stroke="black" x1="537.0" y1="234.0" x2="578.0" y2="295.0" stroke-width="0.5"/>
    <line stroke="black" x1="578.0" y1="295.0" x2="594.0" y2="322.0" stroke-width="0.5"/>
    <line stroke="black" x1="464.0" y1="333.0" x2="421.0" y2="454.0" stroke-width="0.5"/>
    <line stroke="black" x1="464.0" y1="333.0" x2="500.0" y2="429.0" stroke-width="0.5"/>
    <line stroke="black" x1="500.0" y1="429.0" x2="522.0" y2="466.0" stroke-width="0.5"/>
    <line stroke="black" x1="500.0" y1="429.0" x2="568.0" y2="395.0" stroke-width="0.5"/>
    <line stroke="black" x1="421.0" y1="454.0" x2="379.0" y2="530.0" stroke-width="0.5"/>
    <line stroke="black" x1="522.0" y1="466.0" x2="560.0" y2="487.0" stroke-width="0.5"/>
    <line stroke="black" x1="560.0" y1="487.0" x2="563.0" y2="532.0" stroke-width="0.5"/>
    <line stroke="black" x1="379.0" y1="530.0" x2="320.0" y2="618.0" stroke-width="0.5"/>
    <line stroke="black" x1="320.0" y1="618.0" x2="338.0" y2="706.0" stroke-width="0.5"/>
    <line stroke="black" x1="338.0" y1="706.0" x2="357.0" y2="746.0" stroke-width="0.5"/>
    <line stroke="black" x1="338.0" y1="706.0" x2="473.0" y2="667.0" stroke-width="0.5"/>
    <line stroke="black" x1="357.0" y1="746.0" x2="412.0" y2="778.0" stroke-width="0.5"/>
    <line stroke="black" x1="412.0" y1="778.0" x2="453.0" y2="812.0" stroke-width="0.5"/>
    <line stroke="black" x1="473.0" y1="667.0" x2="491.0" y2="646.0" stroke-width="0.5"/>
    <line stroke="black" x1="453.0" y1="812.0" x2="487.0" y2="840.0" stroke-width="0.5"/>
    <line stroke="black" x1="453.0" y1="812.0" x2="591.0" y2="786.0" stroke-width="0.5"/>
    <line stroke="black" x1="741.0" y1="883.0" x2="320.0" y2="618.0" stroke-width="0.5"/>
    <line stroke="black" x1="612.0" y1="603.0" x2="379.0" y2="530.0" stroke-width="0.5"/>
    <line stroke="black" x1="548.0" y1="575.0" x2="421.0" y2="454.0" stroke-width="0.5"/>
    <line stroke="black" x1="590.0" y1="743.0" x2="412.0" y2="778.0" stroke-width="0.5"/>
    <line stroke="black" x1="503.0" y1="659.0" x2="491.0" y2="646.0" stroke-width="0.5"/>
    <line stroke="black" x1="534.0" y1="631.0" x2="491.0" y2="646.0" stroke-width="0.5"/>
    <line stroke="black" x1="682.0" y1="855.0" x2="487.0" y2="840.0" stroke-width="0.5"/>
    <line stroke="black" x1="687.0" y1="827.0" x2="487.0" y2="840.0" stroke-width="0.5"/>
    <line stroke="black" x1="583.0" y1="463.0" x2="560.0" y2="487.0" stroke-width="0.5"/>
    <line stroke="black" x1="575.0" y1="519.0" x2="563.0" y2="532.0" stroke-width="0.5"/>
    <line stroke="black" x1="612.0" y1="267.0" x2="578.0" y2="295.0" stroke-width="0.5"/>
    <line stroke="black" x1="599.0" y1="296.0" x2="594.0" y2="322.0" stroke-width="0.5"/>
    <line stroke="black" x1="603.0" y1="352.0" x2="594.0" y2="322.0" stroke-width="0.5"/>
    <line stroke="black" x1="695.0" y1="799.0" x2="591.0" y2="786.0" stroke-width="0.5"/>
    <line stroke="black" x1="700.0" y1="771.0" x2="591.0" y2="786.0" stroke-width="0.5"/>
    <line stroke="black" x1="674.0" y1="156.0" x2="669.0" y2="169.0" stroke-width="0.5"/>
    <line stroke="black" x1="673.0" y1="183.0" x2="669.0" y2="169.0" stroke-width="0.5"/>
    <line stroke="black" x1="695.0" y1="99.0" x2="683.0" y2="73.0" stroke-width="0.5"/>
    <line stroke="black" x1="698.0" y1="16.0" x2="693.0" y2="44.0" stroke-width="0.5"/>
    <line stroke="black" x1="711.0" y1="72.0" x2="693.0" y2="44.0" stroke-width="0.5"/>
   </g>
  </g>
 </svg>
</svg>
