<?xml version="1.0" encoding="UTF-8"?>
<svg height="800.0" width="700.0" xmlns="http://www.w3.org/2000/svg">
 <svg>
  <g>
   <g>
    <g>
     <circle stroke="black" stroke-width="0.5" fill="#aaffff" cx="11.0" cy="1087.0" r="1.0"/>
     <text stroke="none" x="11.0" y="1087.0" font-size="10.0" font-family="helvetica">NT1.1</text>
    </g>
    <g>
     <circle stroke="black" stroke-width="0.5" fill="#aaffff" cx="109.0" cy="614.0" r="1.0"/>
     <text stroke="none" x="109.0" y="614.0" font-size="20.0" font-family="helvetica">967</text>
    </g>
    <g>
     <circle stroke="black" stroke-width="0.5" fill="#aaffff" cx="163.0" cy="896.0" r="1.0"/>
     <text stroke="none" x="163.0" y="896.0" font-size="20.0" font-family="helvetica">991</text>
    </g>
    <g>
     <circle stroke="black" stroke-width="0.5" fill="#aaffff" cx="319.0" cy="805.0" r="1.0"/>
     <text stroke="none" x="319.0" y="805.0" font-size="10.0" font-family="helvetica">NT1.4</text>
    </g>
    <g>
     <circle stroke="black" stroke-width="0.5" fill="#aaffff" cx="394.0" cy="1088.0" r="1.0"/>
     <text stroke="none" x="394.0" y="1088.0" font-size="20.0" font-family="helvetica">Azorhlzobium caulinodans (X94200)</text>
    </g>
    <g>
     <circle stroke="black" stroke-width="0.5" fill="#aaffff" cx="401.0" cy="332.0" r="1.0"/>
     <text stroke="none" x="401.0" y="332.0" font-size="10.0" font-family="helvetica">NT1.6</text>
    </g>
    <g>
     <circle stroke="black" stroke-width="0.5" fill="#aaffff" cx="417.0" cy="215.0" r="1.0"/>
     <text stroke="none" x="417.0" y="215.0" font-size="10.0" font-family="helvetica">NT1.7</text>
    </g>
    <g>
     <circle stroke="black" stroke-width="0.5" fill="#aaffff" cx="441.0" cy="130.0" r="1.0"/>
     <text stroke="none" x="441.0" y="130.0" font-size="20.0" font-family="helvetica">484</text>
    </g>
    <g>
     <circle stroke="black" stroke-width="0.5" fill="#aaffff" cx="445.0" cy="719.0" r="1.0"/>
     <text stroke="none" x="445.0" y="719.0" font-size="20.0" font-family="helvetica">828</text>
    </g>
    <g>
     <circle stroke="black" stroke-width="0.5" fill="#aaffff" cx="448.0" cy="57.0" r="1.0"/>
     <text stroke="none" x="448.0" y="57.0" font-size="20.0" font-family="helvetica">397</text>
    </g>
    <g>
     <circle stroke="black" stroke-width="0.5" fill="#aaffff" cx="456.0" cy="425.0" r="1.0"/>
     <text stroke="none" x="456.0" y="425.0" font-size="10.0" font-family="helvetica">NT1.11</text>
    </g>
    <g>
     <circle stroke="black" stroke-width="0.5" fill="#aaffff" cx="465.0" cy="791.0" r="1.0"/>
     <text stroke="none" x="465.0" y="791.0" font-size="20.0" font-family="helvetica"> Basea thiooxidans Bl-427 (AFSUBBO3)</text>
    </g>
    <g>
     <circle stroke="black" stroke-width="0.5" fill="#aaffff" cx="480.0" cy="890.0" r="1.0"/>
     <text stroke="none" x="480.0" y="890.0" font-size="20.0" font-family="helvetica"/>
    </g>
    <g>
     <circle stroke="black" stroke-width="0.5" fill="#aaffff" cx="485.0" cy="645.0" r="1.0"/>
     <text stroke="none" x="485.0" y="645.0" font-size="20.0" font-family="helvetica">999</text>
    </g>
    <g>
     <circle stroke="black" stroke-width="0.5" fill="#aaffff" cx="489.0" cy="694.0" r="1.0"/>
     <text stroke="none" x="489.0" y="694.0" font-size="20.0" font-family="helvetica">Bosea eneae 346147 (AF2B83DO)</text>
    </g>
    <g>
     <circle stroke="black" stroke-width="0.5" fill="#aaffff" cx="489.0" cy="596.0" r="1.0"/>
     <text stroke="none" x="489.0" y="596.0" font-size="20.0" font-family="helvetica">Bosea veslrisii 346357 (AF2s8306)</text>
    </g>
    <g>
     <circle stroke="black" stroke-width="0.5" fill="#aaffff" cx="497.0" cy="302.0" r="1.0"/>
     <text stroke="none" x="497.0" y="302.0" font-size="20.0" font-family="helvetica">Afipia broomeae (UB7761)</text>
    </g>
    <g>
     <circle stroke="black" stroke-width="0.5" fill="#aaffff" cx="500.0" cy="498.0" r="1.0"/>
     <text stroke="none" x="500.0" y="498.0" font-size="20.0" font-family="helvetica">Afipia clevelandensis (M69186)</text>
    </g>
    <g>
     <circle stroke="black" stroke-width="0.5" fill="#aaffff" cx="535.0" cy="400.0" r="1.0"/>
     <text stroke="none" x="535.0" y="400.0" font-size="20.0" font-family="helvetica">Afipia felis (M65248)</text>
    </g>
    <g>
     <circle stroke="black" stroke-width="0.5" fill="#aaffff" cx="564.0" cy="205.0" r="1.0"/>
     <text stroke="none" x="564.0" y="205.0" font-size="20.0" font-family="helvetica">Blastobacter denI'm'f7cans (34691 7)</text>
    </g>
    <g>
     <circle stroke="black" stroke-width="0.5" fill="#aaffff" cx="569.0" cy="106.0" r="1.0"/>
     <text stroke="none" x="569.0" y="106.0" font-size="20.0" font-family="helvetica">Nitrobacter hamburgensis (L1 1663)</text>
    </g>
    <g>
     <circle stroke="black" stroke-width="0.5" fill="#aaffff" cx="593.0" cy="9.0" r="1.0"/>
     <text stroke="none" x="593.0" y="9.0" font-size="20.0" font-family="helvetica">Bradyrhizobium elkanii (AF239846)</text>
    </g>
    <g>
     <circle stroke="black" stroke-width="0.5" fill="#aaffff" cx="597.0" cy="990.0" r="1.0"/>
     <text stroke="none" x="597.0" y="990.0" font-size="20.0" font-family="helvetica">Merhylobaclerium mesophilicum (D3222 5)</text>
    </g>
    <g>
     <circle stroke="black" stroke-width="0.5" fill="#aaffff" cx="597.0" cy="1186.0" r="1.0"/>
     <text stroke="none" x="597.0" y="1186.0" font-size="20.0" font-family="helvetica">Bartonella bfnlesii (AF204274)</text>
    </g>
    <line stroke="black" x1="593.0" y1="9.0" x2="448.0" y2="57.0" stroke-width="0.5"/>
    <line stroke="black" x1="569.0" y1="106.0" x2="448.0" y2="57.0" stroke-width="0.5"/>
    <line stroke="black" x1="497.0" y1="302.0" x2="417.0" y2="215.0" stroke-width="0.5"/>
    <line stroke="black" x1="535.0" y1="400.0" x2="456.0" y2="425.0" stroke-width="0.5"/>
    <line stroke="black" x1="597.0" y1="990.0" x2="163.0" y2="896.0" stroke-width="0.5"/>
    <line stroke="black" x1="465.0" y1="791.0" x2="445.0" y2="719.0" stroke-width="0.5"/>
    <line stroke="black" x1="417.0" y1="215.0" x2="401.0" y2="332.0" stroke-width="0.5"/>
    <line stroke="black" x1="109.0" y1="614.0" x2="11.0" y2="1087.0" stroke-width="0.5"/>
    <line stroke="black" x1="109.0" y1="614.0" x2="163.0" y2="896.0" stroke-width="0.5"/>
    <line stroke="black" x1="163.0" y1="896.0" x2="319.0" y2="805.0" stroke-width="0.5"/>
    <line stroke="black" x1="319.0" y1="805.0" x2="445.0" y2="719.0" stroke-width="0.5"/>
    <line stroke="black" x1="445.0" y1="719.0" x2="485.0" y2="645.0" stroke-width="0.5"/>
    <line stroke="black" x1="597.0" y1="1186.0" x2="11.0" y2="1087.0" stroke-width="0.5"/>
    <line stroke="black" x1="401.0" y1="332.0" x2="109.0" y2="614.0" stroke-width="0.5"/>
    <line stroke="black" x1="394.0" y1="1088.0" x2="11.0" y2="1087.0" stroke-width="0.5"/>
    <line stroke="black" x1="401.0" y1="332.0" x2="456.0" y2="425.0" stroke-width="0.5"/>
    <line stroke="black" x1="441.0" y1="130.0" x2="417.0" y2="215.0" stroke-width="0.5"/>
    <line stroke="black" x1="564.0" y1="205.0" x2="441.0" y2="130.0" stroke-width="0.5"/>
    <line stroke="black" x1="448.0" y1="57.0" x2="441.0" y2="130.0" stroke-width="0.5"/>
    <line stroke="black" x1="500.0" y1="498.0" x2="456.0" y2="425.0" stroke-width="0.5"/>
    <line stroke="black" x1="480.0" y1="890.0" x2="319.0" y2="805.0" stroke-width="0.5"/>
    <line stroke="black" x1="489.0" y1="596.0" x2="485.0" y2="645.0" stroke-width="0.5"/>
    <line stroke="black" x1="489.0" y1="694.0" x2="485.0" y2="645.0" stroke-width="0.5"/>
   </g>
  </g>
 </svg>
</svg>
