<?xml version="1.0" encoding="UTF-8"?>
<svg height="800.0" width="700.0" xmlns="http://www.w3.org/2000/svg">
 <svg>
  <g>
   <g>
    <g>
     <circle stroke="black" stroke-width="0.5" fill="#aaffff" cx="246.0" cy="545.0" r="1.0"/>
     <text stroke="none" x="246.0" y="545.0" font-size="10.0" font-family="helvetica">NT1.1</text>
    </g>
    <g>
     <circle stroke="black" stroke-width="0.5" fill="#aaffff" cx="261.0" cy="444.0" r="1.0"/>
     <text stroke="none" x="261.0" y="444.0" font-size="10.0" font-family="helvetica">NT1.2</text>
    </g>
    <g>
     <circle stroke="black" stroke-width="0.5" fill="#aaffff" cx="312.0" cy="375.0" r="1.0"/>
     <text stroke="none" x="312.0" y="375.0" font-size="10.0" font-family="helvetica">NT1.3</text>
    </g>
    <g>
     <circle stroke="black" stroke-width="0.5" fill="#aaffff" cx="353.0" cy="286.0" r="1.0"/>
     <text stroke="none" x="353.0" y="286.0" font-size="10.0" font-family="helvetica">NT1.4</text>
    </g>
    <g>
     <circle stroke="black" stroke-width="0.5" fill="#aaffff" cx="367.0" cy="645.0" r="1.0"/>
     <text stroke="none" x="367.0" y="645.0" font-size="10.0" font-family="helvetica">NT1.5</text>
    </g>
    <g>
     <circle stroke="black" stroke-width="0.5" fill="#aaffff" cx="380.0" cy="226.0" r="1.0"/>
     <text stroke="none" x="380.0" y="226.0" font-size="10.0" font-family="helvetica">NT1.6</text>
    </g>
    <g>
     <circle stroke="black" stroke-width="0.5" fill="#aaffff" cx="409.0" cy="386.0" r="1.0"/>
     <text stroke="none" x="409.0" y="386.0" font-size="10.0" font-family="helvetica">NT1.7</text>
    </g>
    <g>
     <circle stroke="black" stroke-width="0.5" fill="#aaffff" cx="410.0" cy="120.0" r="1.0"/>
     <text stroke="none" x="410.0" y="120.0" font-size="10.0" font-family="helvetica">NT1.8</text>
    </g>
    <g>
     <circle stroke="black" stroke-width="0.5" fill="#aaffff" cx="419.0" cy="76.0" r="1.0"/>
     <text stroke="none" x="419.0" y="76.0" font-size="10.0" font-family="helvetica">NT1.9</text>
    </g>
    <g>
     <circle stroke="black" stroke-width="0.5" fill="#aaffff" cx="436.0" cy="286.0" r="1.0"/>
     <text stroke="none" x="436.0" y="286.0" font-size="10.0" font-family="helvetica">NT1.10</text>
    </g>
    <g>
     <circle stroke="black" stroke-width="0.5" fill="#aaffff" cx="437.0" cy="704.0" r="1.0"/>
     <text stroke="none" x="437.0" y="704.0" font-size="10.0" font-family="helvetica">NT1.11</text>
    </g>
    <g>
     <circle stroke="black" stroke-width="0.5" fill="#aaffff" cx="464.0" cy="560.0" r="1.0"/>
     <text stroke="none" x="464.0" y="560.0" font-size="20.0" font-family="helvetica">M. aquaeolei VT8T (AJOO0726)</text>
    </g>
    <g>
     <circle stroke="black" stroke-width="0.5" fill="#aaffff" cx="464.0" cy="587.0" r="1.0"/>
     <text stroke="none" x="464.0" y="587.0" font-size="20.0" font-family="helvetica">100</text>
    </g>
    <g>
     <circle stroke="black" stroke-width="0.5" fill="#aaffff" cx="480.0" cy="362.0" r="1.0"/>
     <text stroke="none" x="480.0" y="362.0" font-size="20.0" font-family="helvetica">M. gudaonensis SL014B61AT (DQ414419)</text>
    </g>
    <g>
     <circle stroke="black" stroke-width="0.5" fill="#aaffff" cx="486.0" cy="612.0" r="1.0"/>
     <text stroke="none" x="486.0" y="612.0" font-size="20.0" font-family="helvetica">M. hydrocarbonoclasticus ATCC 498401 (X67022)</text>
    </g>
    <g>
     <circle stroke="black" stroke-width="0.5" fill="#aaffff" cx="521.0" cy="748.0" r="1.0"/>
     <text stroke="none" x="521.0" y="748.0" font-size="10.0" font-family="helvetica">NT1.16</text>
    </g>
    <g>
     <circle stroke="black" stroke-width="0.5" fill="#aaffff" cx="525.0" cy="462.0" r="1.0"/>
     <text stroke="none" x="525.0" y="462.0" font-size="20.0" font-family="helvetica">M. koreensis DD-M3T (DQ325514)</text>
    </g>
    <g>
     <circle stroke="black" stroke-width="0.5" fill="#aaffff" cx="527.0" cy="262.0" r="1.0"/>
     <text stroke="none" x="527.0" y="262.0" font-size="20.0" font-family="helvetica">M. Iipolyticus SM19T (AY147906)</text>
    </g>
    <g>
     <circle stroke="black" stroke-width="0.5" fill="#aaffff" cx="533.0" cy="162.0" r="1.0"/>
     <text stroke="none" x="533.0" y="162.0" font-size="20.0" font-family="helvetica">M. flavimaris SW-145T (AY517632)</text>
    </g>
    <g>
     <circle stroke="black" stroke-width="0.5" fill="#aaffff" cx="543.0" cy="39.0" r="1.0"/>
     <text stroke="none" x="543.0" y="39.0" font-size="20.0" font-family="helvetica">100</text>
    </g>
    <g>
     <circle stroke="black" stroke-width="0.5" fill="#aaffff" cx="544.0" cy="12.0" r="1.0"/>
     <text stroke="none" x="544.0" y="12.0" font-size="20.0" font-family="helvetica">Strain SD-14BT (EF028328)</text>
    </g>
    <g>
     <circle stroke="black" stroke-width="0.5" fill="#aaffff" cx="544.0" cy="64.0" r="1.0"/>
     <text stroke="none" x="544.0" y="64.0" font-size="20.0" font-family="helvetica"/>
    </g>
    <g>
     <circle stroke="black" stroke-width="0.5" fill="#aaffff" cx="544.0" cy="785.0" r="1.0"/>
     <text stroke="none" x="544.0" y="785.0" font-size="10.0" font-family="helvetica">NT1.23</text>
    </g>
    <g>
     <circle stroke="black" stroke-width="0.5" fill="#aaffff" cx="561.0" cy="512.0" r="1.0"/>
     <text stroke="none" x="561.0" y="512.0" font-size="20.0" font-family="helvetica">M. lutaoensis T5O54T (AF288157)</text>
    </g>
    <g>
     <circle stroke="black" stroke-width="0.5" fill="#aaffff" cx="573.0" cy="212.0" r="1.0"/>
     <text stroke="none" x="573.0" y="212.0" font-size="20.0" font-family="helvetica">M. sediminum R65T (AJ609270)</text>
    </g>
    <g>
     <circle stroke="black" stroke-width="0.5" fill="#aaffff" cx="579.0" cy="112.0" r="1.0"/>
     <text stroke="none" x="579.0" y="112.0" font-size="20.0" font-family="helvetica">M. algicola DG893T (AY2581 10)</text>
    </g>
    <g>
     <circle stroke="black" stroke-width="0.5" fill="#aaffff" cx="625.0" cy="412.0" r="1.0"/>
     <text stroke="none" x="625.0" y="412.0" font-size="20.0" font-family="helvetica">M. bryozoorum 50-11T (AJ609271)</text>
    </g>
    <g>
     <circle stroke="black" stroke-width="0.5" fill="#aaffff" cx="630.0" cy="711.0" r="1.0"/>
     <text stroke="none" x="630.0" y="711.0" font-size="20.0" font-family="helvetica">M. vinifirmus FB1T (DQ235263)</text>
    </g>
    <g>
     <circle stroke="black" stroke-width="0.5" fill="#aaffff" cx="673.0" cy="761.0" r="1.0"/>
     <text stroke="none" x="673.0" y="761.0" font-size="20.0" font-family="helvetica">M. excellens KMM 3809T (AY180101)</text>
    </g>
    <g>
     <circle stroke="black" stroke-width="0.5" fill="#aaffff" cx="679.0" cy="662.0" r="1.0"/>
     <text stroke="none" x="679.0" y="662.0" font-size="20.0" font-family="helvetica">M. daepoensis SW-156T (AY517633)</text>
    </g>
    <g>
     <circle stroke="black" stroke-width="0.5" fill="#aaffff" cx="792.0" cy="312.0" r="1.0"/>
     <text stroke="none" x="792.0" y="312.0" font-size="20.0" font-family="helvetica">M. maritimus CK 477 (AJ704395)</text>
    </g>
    <g>
     <circle stroke="black" stroke-width="0.5" fill="#aaffff" cx="839.0" cy="811.0" r="1.0"/>
     <text stroke="none" x="839.0" y="811.0" font-size="20.0" font-family="helvetica">M. Iitoralis SW-45T (AF479689)</text>
    </g>
    <g>
     <circle stroke="black" stroke-width="0.5" fill="#aaffff" cx="839.0" cy="861.0" r="1.0"/>
     <text stroke="none" x="839.0" y="861.0" font-size="20.0" font-family="helvetica">Microbulbifer hydrolyticus DSM 11525T (AJ608704)</text>
    </g>
    <line stroke="black" x1="544.0" y1="12.0" x2="543.0" y2="39.0" stroke-width="0.5"/>
    <line stroke="black" x1="544.0" y1="64.0" x2="543.0" y2="39.0" stroke-width="0.5"/>
    <line stroke="black" x1="533.0" y1="162.0" x2="410.0" y2="120.0" stroke-width="0.5"/>
    <line stroke="black" x1="561.0" y1="512.0" x2="261.0" y2="444.0" stroke-width="0.5"/>
    <line stroke="black" x1="464.0" y1="560.0" x2="464.0" y2="587.0" stroke-width="0.5"/>
    <line stroke="black" x1="543.0" y1="39.0" x2="419.0" y2="76.0" stroke-width="0.5"/>
    <line stroke="black" x1="419.0" y1="76.0" x2="410.0" y2="120.0" stroke-width="0.5"/>
    <line stroke="black" x1="410.0" y1="120.0" x2="380.0" y2="226.0" stroke-width="0.5"/>
    <line stroke="black" x1="380.0" y1="226.0" x2="353.0" y2="286.0" stroke-width="0.5"/>
    <line stroke="black" x1="380.0" y1="226.0" x2="436.0" y2="286.0" stroke-width="0.5"/>
    <line stroke="black" x1="353.0" y1="286.0" x2="312.0" y2="375.0" stroke-width="0.5"/>
    <line stroke="black" x1="353.0" y1="286.0" x2="409.0" y2="386.0" stroke-width="0.5"/>
    <line stroke="black" x1="312.0" y1="375.0" x2="261.0" y2="444.0" stroke-width="0.5"/>
    <line stroke="black" x1="261.0" y1="444.0" x2="246.0" y2="545.0" stroke-width="0.5"/>
    <line stroke="black" x1="246.0" y1="545.0" x2="367.0" y2="645.0" stroke-width="0.5"/>
    <line stroke="black" x1="367.0" y1="645.0" x2="437.0" y2="704.0" stroke-width="0.5"/>
    <line stroke="black" x1="367.0" y1="645.0" x2="464.0" y2="587.0" stroke-width="0.5"/>
    <line stroke="black" x1="437.0" y1="704.0" x2="521.0" y2="748.0" stroke-width="0.5"/>
    <line stroke="black" x1="521.0" y1="748.0" x2="544.0" y2="785.0" stroke-width="0.5"/>
    <line stroke="black" x1="839.0" y1="861.0" x2="246.0" y2="545.0" stroke-width="0.5"/>
    <line stroke="black" x1="525.0" y1="462.0" x2="312.0" y2="375.0" stroke-width="0.5"/>
    <line stroke="black" x1="480.0" y1="362.0" x2="409.0" y2="386.0" stroke-width="0.5"/>
    <line stroke="black" x1="573.0" y1="212.0" x2="380.0" y2="226.0" stroke-width="0.5"/>
    <line stroke="black" x1="527.0" y1="262.0" x2="436.0" y2="286.0" stroke-width="0.5"/>
    <line stroke="black" x1="486.0" y1="612.0" x2="464.0" y2="587.0" stroke-width="0.5"/>
    <line stroke="black" x1="579.0" y1="112.0" x2="419.0" y2="76.0" stroke-width="0.5"/>
    <line stroke="black" x1="625.0" y1="412.0" x2="409.0" y2="386.0" stroke-width="0.5"/>
    <line stroke="black" x1="679.0" y1="662.0" x2="437.0" y2="704.0" stroke-width="0.5"/>
    <line stroke="black" x1="792.0" y1="312.0" x2="436.0" y2="286.0" stroke-width="0.5"/>
    <line stroke="black" x1="630.0" y1="711.0" x2="521.0" y2="748.0" stroke-width="0.5"/>
    <line stroke="black" x1="673.0" y1="761.0" x2="544.0" y2="785.0" stroke-width="0.5"/>
    <line stroke="black" x1="839.0" y1="811.0" x2="544.0" y2="785.0" stroke-width="0.5"/>
   </g>
  </g>
 </svg>
</svg>
