<?xml version="1.0" encoding="UTF-8"?>
<svg height="800.0" width="700.0" xmlns="http://www.w3.org/2000/svg">
 <svg>
  <g>
   <g>
    <g>
     <circle stroke="black" stroke-width="0.5" fill="#aaffff" cx="59.0" cy="969.0" r="1.0"/>
     <text stroke="none" x="59.0" y="969.0" font-size="20.0" font-family="helvetica">P</text>
    </g>
    <g>
     <circle stroke="black" stroke-width="0.5" fill="#aaffff" cx="129.0" cy="1195.0" r="1.0"/>
     <text stroke="none" x="129.0" y="1195.0" font-size="10.0" font-family="helvetica">NT1.2</text>
    </g>
    <g>
     <circle stroke="black" stroke-width="0.5" fill="#aaffff" cx="138.0" cy="742.0" r="1.0"/>
     <text stroke="none" x="138.0" y="742.0" font-size="20.0" font-family="helvetica">931</text>
    </g>
    <g>
     <circle stroke="black" stroke-width="0.5" fill="#aaffff" cx="158.0" cy="569.0" r="1.0"/>
     <text stroke="none" x="158.0" y="569.0" font-size="10.0" font-family="helvetica">NT1.4</text>
    </g>
    <g>
     <circle stroke="black" stroke-width="0.5" fill="#aaffff" cx="194.0" cy="280.0" r="1.0"/>
     <text stroke="none" x="194.0" y="280.0" font-size="20.0" font-family="helvetica">73</text>
    </g>
    <g>
     <circle stroke="black" stroke-width="0.5" fill="#aaffff" cx="197.0" cy="1124.0" r="1.0"/>
     <text stroke="none" x="197.0" y="1124.0" font-size="10.0" font-family="helvetica">NT1.6</text>
    </g>
    <g>
     <circle stroke="black" stroke-width="0.5" fill="#aaffff" cx="208.0" cy="1258.0" r="1.0"/>
     <text stroke="none" x="208.0" y="1258.0" font-size="20.0" font-family="helvetica">98p</text>
    </g>
    <g>
     <circle stroke="black" stroke-width="0.5" fill="#aaffff" cx="217.0" cy="711.0" r="1.0"/>
     <text stroke="none" x="217.0" y="711.0" font-size="20.0" font-family="helvetica">947</text>
    </g>
    <g>
     <circle stroke="black" stroke-width="0.5" fill="#aaffff" cx="219.0" cy="141.0" r="1.0"/>
     <text stroke="none" x="219.0" y="141.0" font-size="20.0" font-family="helvetica">59</text>
    </g>
    <g>
     <circle stroke="black" stroke-width="0.5" fill="#aaffff" cx="255.0" cy="962.0" r="1.0"/>
     <text stroke="none" x="255.0" y="962.0" font-size="10.0" font-family="helvetica">NT1.10</text>
    </g>
    <g>
     <circle stroke="black" stroke-width="0.5" fill="#aaffff" cx="327.0" cy="764.0" r="1.0"/>
     <text stroke="none" x="327.0" y="764.0" font-size="10.0" font-family="helvetica">NT1.11</text>
    </g>
    <g>
     <circle stroke="black" stroke-width="0.5" fill="#aaffff" cx="337.0" cy="910.0" r="1.0"/>
     <text stroke="none" x="337.0" y="910.0" font-size="20.0" font-family="helvetica">99)</text>
    </g>
    <g>
     <circle stroke="black" stroke-width="0.5" fill="#aaffff" cx="344.0" cy="1232.0" r="1.0"/>
     <text stroke="none" x="344.0" y="1232.0" font-size="20.0" font-family="helvetica">Algibacter mikhailovii LMG 23988T (AM491809)</text>
    </g>
    <g>
     <circle stroke="black" stroke-width="0.5" fill="#aaffff" cx="348.0" cy="1304.0" r="1.0"/>
     <text stroke="none" x="348.0" y="1304.0" font-size="20.0" font-family="helvetica">Algibacterlectus KMM 3902T (AY187689)</text>
    </g>
    <g>
     <circle stroke="black" stroke-width="0.5" fill="#aaffff" cx="354.0" cy="1088.0" r="1.0"/>
     <text stroke="none" x="354.0" y="1088.0" font-size="20.0" font-family="helvetica">Psychroserpens mesophilus KOPRI 13649T (DQ001321)</text>
    </g>
    <g>
     <circle stroke="black" stroke-width="0.5" fill="#aaffff" cx="365.0" cy="261.0" r="1.0"/>
     <text stroke="none" x="365.0" y="261.0" font-size="10.0" font-family="helvetica">NT1.16</text>
    </g>
    <g>
     <circle stroke="black" stroke-width="0.5" fill="#aaffff" cx="413.0" cy="57.0" r="1.0"/>
     <text stroke="none" x="413.0" y="57.0" font-size="10.0" font-family="helvetica">NT1.17</text>
    </g>
    <g>
     <circle stroke="black" stroke-width="0.5" fill="#aaffff" cx="431.0" cy="657.0" r="1.0"/>
     <text stroke="none" x="431.0" y="657.0" font-size="20.0" font-family="helvetica">Salinimicrobium catena HY1T (DQ640642)</text>
    </g>
    <g>
     <circle stroke="black" stroke-width="0.5" fill="#aaffff" cx="432.0" cy="801.0" r="1.0"/>
     <text stroke="none" x="432.0" y="801.0" font-size="20.0" font-family="helvetica">Salinimicrobium terrae YIM-C338T (EU135614)</text>
    </g>
    <g>
     <circle stroke="black" stroke-width="0.5" fill="#aaffff" cx="432.0" cy="477.0" r="1.0"/>
     <text stroke="none" x="432.0" y="477.0" font-size="10.0" font-family="helvetica">NT1.20</text>
    </g>
    <g>
     <circle stroke="black" stroke-width="0.5" fill="#aaffff" cx="433.0" cy="872.0" r="1.0"/>
     <text stroke="none" x="433.0" y="872.0" font-size="20.0" font-family="helvetica">Gillisia mitskevichiae KCTC 12261T (AY576655)</text>
    </g>
    <g>
     <circle stroke="black" stroke-width="0.5" fill="#aaffff" cx="435.0" cy="730.0" r="1.0"/>
     <text stroke="none" x="435.0" y="730.0" font-size="20.0" font-family="helvetica">Salinimicrobium xinjiangense KCTC 12ss3T (EF520007)</text>
    </g>
    <g>
     <circle stroke="black" stroke-width="0.5" fill="#aaffff" cx="464.0" cy="1160.0" r="1.0"/>
     <text stroke="none" x="464.0" y="1160.0" font-size="20.0" font-family="helvetica">Psychroserpens burtonensis ACAM</text>
    </g>
    <g>
     <circle stroke="black" stroke-width="0.5" fill="#aaffff" cx="471.0" cy="945.0" r="1.0"/>
     <text stroke="none" x="471.0" y="945.0" font-size="20.0" font-family="helvetica">Gillisia myxillae UST050418-0857 (DQ202393)</text>
    </g>
    <g>
     <circle stroke="black" stroke-width="0.5" fill="#aaffff" cx="476.0" cy="397.0" r="1.0"/>
     <text stroke="none" x="476.0" y="397.0" font-size="20.0" font-family="helvetica">96)</text>
    </g>
    <g>
     <circle stroke="black" stroke-width="0.5" fill="#aaffff" cx="499.0" cy="155.0" r="1.0"/>
     <text stroke="none" x="499.0" y="155.0" font-size="20.0" font-family="helvetica">Salegentibacter flavus Fg 69T (AY682200)</text>
    </g>
    <g>
     <circle stroke="black" stroke-width="0.5" fill="#aaffff" cx="503.0" cy="83.0" r="1.0"/>
     <text stroke="none" x="503.0" y="83.0" font-size="20.0" font-family="helvetica">Salegentibacter salegens ACAM 48T (M92279)</text>
    </g>
    <g>
     <circle stroke="black" stroke-width="0.5" fill="#aaffff" cx="510.0" cy="1017.0" r="1.0"/>
     <text stroke="none" x="510.0" y="1017.0" font-size="20.0" font-family="helvetica">Gillisia illustrilutea ACAM 1062T (AY694008)</text>
    </g>
    <g>
     <circle stroke="black" stroke-width="0.5" fill="#aaffff" cx="515.0" cy="299.0" r="1.0"/>
     <text stroke="none" x="515.0" y="299.0" font-size="20.0" font-family="helvetica">Mesonia mobilis KMM 60597 (DQ367409)</text>
    </g>
    <g>
     <circle stroke="black" stroke-width="0.5" fill="#aaffff" cx="523.0" cy="12.0" r="1.0"/>
     <text stroke="none" x="523.0" y="12.0" font-size="20.0" font-family="helvetica">Salegentibacter mishustinae KMM 6049T (AY576653)</text>
    </g>
    <g>
     <circle stroke="black" stroke-width="0.5" fill="#aaffff" cx="543.0" cy="226.0" r="1.0"/>
     <text stroke="none" x="543.0" y="226.0" font-size="20.0" font-family="helvetica">Mesonia algae KMM 39097 (AF536383)</text>
    </g>
    <g>
     <circle stroke="black" stroke-width="0.5" fill="#aaffff" cx="575.0" cy="370.0" r="1.0"/>
     <text stroke="none" x="575.0" y="370.0" font-size="20.0" font-family="helvetica">Psychroflexus sediminis YIM-C2387 (EU 1 3571 5)</text>
    </g>
    <g>
     <circle stroke="black" stroke-width="0.5" fill="#aaffff" cx="594.0" cy="514.0" r="1.0"/>
     <text stroke="none" x="594.0" y="514.0" font-size="20.0" font-family="helvetica">Psychroflexus gondwanensis ACAM 44T (M92278)</text>
    </g>
    <g>
     <circle stroke="black" stroke-width="0.5" fill="#aaffff" cx="612.0" cy="442.0" r="1.0"/>
     <text stroke="none" x="612.0" y="442.0" font-size="20.0" font-family="helvetica">Psychroflexus tropicus ATCC BAA-734T (AF513434)</text>
    </g>
    <g>
     <circle stroke="black" stroke-width="0.5" fill="#aaffff" cx="632.0" cy="1370.0" r="1.0"/>
     <text stroke="none" x="632.0" y="1370.0" font-size="20.0" font-family="helvetica">Myroides odoratus ATCC 46517 (M58777)</text>
    </g>
    <line stroke="black" x1="503.0" y1="83.0" x2="413.0" y2="57.0" stroke-width="0.5"/>
    <line stroke="black" x1="543.0" y1="226.0" x2="365.0" y2="261.0" stroke-width="0.5"/>
    <line stroke="black" x1="575.0" y1="370.0" x2="476.0" y2="397.0" stroke-width="0.5"/>
    <line stroke="black" x1="431.0" y1="657.0" x2="217.0" y2="711.0" stroke-width="0.5"/>
    <line stroke="black" x1="433.0" y1="872.0" x2="337.0" y2="910.0" stroke-width="0.5"/>
    <line stroke="black" x1="510.0" y1="1017.0" x2="255.0" y2="962.0" stroke-width="0.5"/>
    <line stroke="black" x1="413.0" y1="57.0" x2="219.0" y2="141.0" stroke-width="0.5"/>
    <line stroke="black" x1="219.0" y1="141.0" x2="194.0" y2="280.0" stroke-width="0.5"/>
    <line stroke="black" x1="219.0" y1="141.0" x2="365.0" y2="261.0" stroke-width="0.5"/>
    <line stroke="black" x1="194.0" y1="280.0" x2="158.0" y2="569.0" stroke-width="0.5"/>
    <line stroke="black" x1="194.0" y1="280.0" x2="432.0" y2="477.0" stroke-width="0.5"/>
    <line stroke="black" x1="158.0" y1="569.0" x2="138.0" y2="742.0" stroke-width="0.5"/>
    <line stroke="black" x1="158.0" y1="569.0" x2="217.0" y2="711.0" stroke-width="0.5"/>
    <line stroke="black" x1="432.0" y1="477.0" x2="476.0" y2="397.0" stroke-width="0.5"/>
    <line stroke="black" x1="138.0" y1="742.0" x2="59.0" y2="969.0" stroke-width="0.5"/>
    <line stroke="black" x1="138.0" y1="742.0" x2="255.0" y2="962.0" stroke-width="0.5"/>
    <line stroke="black" x1="217.0" y1="711.0" x2="327.0" y2="764.0" stroke-width="0.5"/>
    <line stroke="black" x1="59.0" y1="969.0" x2="129.0" y2="1195.0" stroke-width="0.5"/>
    <line stroke="black" x1="255.0" y1="962.0" x2="337.0" y2="910.0" stroke-width="0.5"/>
    <line stroke="black" x1="129.0" y1="1195.0" x2="208.0" y2="1258.0" stroke-width="0.5"/>
    <line stroke="black" x1="129.0" y1="1195.0" x2="197.0" y2="1124.0" stroke-width="0.5"/>
    <line stroke="black" x1="632.0" y1="1370.0" x2="59.0" y2="969.0" stroke-width="0.5"/>
    <line stroke="black" x1="354.0" y1="1088.0" x2="197.0" y2="1124.0" stroke-width="0.5"/>
    <line stroke="black" x1="344.0" y1="1232.0" x2="208.0" y2="1258.0" stroke-width="0.5"/>
    <line stroke="black" x1="348.0" y1="1304.0" x2="208.0" y2="1258.0" stroke-width="0.5"/>
    <line stroke="black" x1="464.0" y1="1160.0" x2="197.0" y2="1124.0" stroke-width="0.5"/>
    <line stroke="black" x1="432.0" y1="801.0" x2="327.0" y2="764.0" stroke-width="0.5"/>
    <line stroke="black" x1="435.0" y1="730.0" x2="327.0" y2="764.0" stroke-width="0.5"/>
    <line stroke="black" x1="499.0" y1="155.0" x2="219.0" y2="141.0" stroke-width="0.5"/>
    <line stroke="black" x1="471.0" y1="945.0" x2="337.0" y2="910.0" stroke-width="0.5"/>
    <line stroke="black" x1="515.0" y1="299.0" x2="365.0" y2="261.0" stroke-width="0.5"/>
    <line stroke="black" x1="594.0" y1="514.0" x2="432.0" y2="477.0" stroke-width="0.5"/>
    <line stroke="black" x1="523.0" y1="12.0" x2="413.0" y2="57.0" stroke-width="0.5"/>
    <line stroke="black" x1="612.0" y1="442.0" x2="476.0" y2="397.0" stroke-width="0.5"/>
   </g>
  </g>
 </svg>
</svg>
