<?xml version="1.0" encoding="UTF-8"?>
<svg height="800.0" width="700.0" xmlns="http://www.w3.org/2000/svg">
 <svg>
  <g>
   <g>
    <g>
     <circle stroke="black" stroke-width="0.5" fill="#aaffff" cx="169.0" cy="710.0" r="1.0"/>
     <text stroke="none" x="169.0" y="710.0" font-size="10.0" font-family="helvetica">NT1.1</text>
    </g>
    <g>
     <circle stroke="black" stroke-width="0.5" fill="#aaffff" cx="222.0" cy="572.0" r="1.0"/>
     <text stroke="none" x="222.0" y="572.0" font-size="10.0" font-family="helvetica">NT1.2</text>
    </g>
    <g>
     <circle stroke="black" stroke-width="0.5" fill="#aaffff" cx="241.0" cy="332.0" r="1.0"/>
     <text stroke="none" x="241.0" y="332.0" font-size="10.0" font-family="helvetica">NT1.3</text>
    </g>
    <g>
     <circle stroke="black" stroke-width="0.5" fill="#aaffff" cx="273.0" cy="543.0" r="1.0"/>
     <text stroke="none" x="273.0" y="543.0" font-size="10.0" font-family="helvetica">NT1.4</text>
    </g>
    <g>
     <circle stroke="black" stroke-width="0.5" fill="#aaffff" cx="283.0" cy="419.0" r="1.0"/>
     <text stroke="none" x="283.0" y="419.0" font-size="10.0" font-family="helvetica">NT1.5</text>
    </g>
    <g>
     <circle stroke="black" stroke-width="0.5" fill="#aaffff" cx="287.0" cy="669.0" r="1.0"/>
     <text stroke="none" x="287.0" y="669.0" font-size="10.0" font-family="helvetica">NT1.6</text>
    </g>
    <g>
     <circle stroke="black" stroke-width="0.5" fill="#aaffff" cx="290.0" cy="121.0" r="1.0"/>
     <text stroke="none" x="290.0" y="121.0" font-size="10.0" font-family="helvetica">NT1.7</text>
    </g>
    <g>
     <circle stroke="black" stroke-width="0.5" fill="#aaffff" cx="300.0" cy="708.0" r="1.0"/>
     <text stroke="none" x="300.0" y="708.0" font-size="10.0" font-family="helvetica">NT1.8</text>
    </g>
    <g>
     <circle stroke="black" stroke-width="0.5" fill="#aaffff" cx="308.0" cy="488.0" r="1.0"/>
     <text stroke="none" x="308.0" y="488.0" font-size="10.0" font-family="helvetica">NT1.9</text>
    </g>
    <g>
     <circle stroke="black" stroke-width="0.5" fill="#aaffff" cx="327.0" cy="347.0" r="1.0"/>
     <text stroke="none" x="327.0" y="347.0" font-size="10.0" font-family="helvetica">NT1.10</text>
    </g>
    <g>
     <circle stroke="black" stroke-width="0.5" fill="#aaffff" cx="334.0" cy="748.0" r="1.0"/>
     <text stroke="none" x="334.0" y="748.0" font-size="10.0" font-family="helvetica">NT1.11</text>
    </g>
    <g>
     <circle stroke="black" stroke-width="0.5" fill="#aaffff" cx="353.0" cy="192.0" r="1.0"/>
     <text stroke="none" x="353.0" y="192.0" font-size="10.0" font-family="helvetica">NT1.12</text>
    </g>
    <g>
     <circle stroke="black" stroke-width="0.5" fill="#aaffff" cx="365.0" cy="526.0" r="1.0"/>
     <text stroke="none" x="365.0" y="526.0" font-size="10.0" font-family="helvetica">NT1.13</text>
    </g>
    <g>
     <circle stroke="black" stroke-width="0.5" fill="#aaffff" cx="367.0" cy="223.0" r="1.0"/>
     <text stroke="none" x="367.0" y="223.0" font-size="10.0" font-family="helvetica">NT1.14</text>
    </g>
    <g>
     <circle stroke="black" stroke-width="0.5" fill="#aaffff" cx="367.0" cy="722.0" r="1.0"/>
     <text stroke="none" x="367.0" y="722.0" font-size="10.0" font-family="helvetica">NT1.15</text>
    </g>
    <g>
     <circle stroke="black" stroke-width="0.5" fill="#aaffff" cx="382.0" cy="387.0" r="1.0"/>
     <text stroke="none" x="382.0" y="387.0" font-size="10.0" font-family="helvetica">NT1.16</text>
    </g>
    <g>
     <circle stroke="black" stroke-width="0.5" fill="#aaffff" cx="382.0" cy="567.0" r="1.0"/>
     <text stroke="none" x="382.0" y="567.0" font-size="10.0" font-family="helvetica">NT1.17</text>
    </g>
    <g>
     <circle stroke="black" stroke-width="0.5" fill="#aaffff" cx="392.0" cy="848.0" r="1.0"/>
     <text stroke="none" x="392.0" y="848.0" font-size="20.0" font-family="helvetica">Alistipes putredinis ATCC 298007 (L16497)</text>
    </g>
    <g>
     <circle stroke="black" stroke-width="0.5" fill="#aaffff" cx="395.0" cy="251.0" r="1.0"/>
     <text stroke="none" x="395.0" y="251.0" font-size="20.0" font-family="helvetica">99</text>
    </g>
    <g>
     <circle stroke="black" stroke-width="0.5" fill="#aaffff" cx="431.0" cy="542.0" r="1.0"/>
     <text stroke="none" x="431.0" y="542.0" font-size="10.0" font-family="helvetica">NT1.20</text>
    </g>
    <g>
     <circle stroke="black" stroke-width="0.5" fill="#aaffff" cx="439.0" cy="741.0" r="1.0"/>
     <text stroke="none" x="439.0" y="741.0" font-size="20.0" font-family="helvetica"> Dysgonomonas gadei CCUG 428827 (Y18530)</text>
    </g>
    <g>
     <circle stroke="black" stroke-width="0.5" fill="#aaffff" cx="443.0" cy="233.0" r="1.0"/>
     <text stroke="none" x="443.0" y="233.0" font-size="10.0" font-family="helvetica">NT1.22</text>
    </g>
    <g>
     <circle stroke="black" stroke-width="0.5" fill="#aaffff" cx="443.0" cy="487.0" r="1.0"/>
     <text stroke="none" x="443.0" y="487.0" font-size="20.0" font-family="helvetica">Parabacteroides goldsteinii WAL 120347 (AY974070)</text>
    </g>
    <g>
     <circle stroke="black" stroke-width="0.5" fill="#aaffff" cx="446.0" cy="198.0" r="1.0"/>
     <text stroke="none" x="446.0" y="198.0" font-size="20.0" font-family="helvetica">Bacteroides uniformis ATCC 84927 (L16486)</text>
    </g>
    <g>
     <circle stroke="black" stroke-width="0.5" fill="#aaffff" cx="450.0" cy="885.0" r="1.0"/>
     <text stroke="none" x="450.0" y="885.0" font-size="20.0" font-family="helvetica">Bacteroidesl cellulosolvens ATCC 356037 (L35517)</text>
    </g>
    <g>
     <circle stroke="black" stroke-width="0.5" fill="#aaffff" cx="452.0" cy="368.0" r="1.0"/>
     <text stroke="none" x="452.0" y="368.0" font-size="10.0" font-family="helvetica">NT1.26</text>
    </g>
    <g>
     <circle stroke="black" stroke-width="0.5" fill="#aaffff" cx="454.0" cy="703.0" r="1.0"/>
     <text stroke="none" x="454.0" y="703.0" font-size="20.0" font-family="helvetica">Dysgonomonas mossii CCUG 434577 (AJ319867)</text>
    </g>
    <g>
     <circle stroke="black" stroke-width="0.5" fill="#aaffff" cx="454.0" cy="522.0" r="1.0"/>
     <text stroke="none" x="454.0" y="522.0" font-size="10.0" font-family="helvetica">NT1.28</text>
    </g>
    <g>
     <circle stroke="black" stroke-width="0.5" fill="#aaffff" cx="456.0" cy="559.0" r="1.0"/>
     <text stroke="none" x="456.0" y="559.0" font-size="20.0" font-family="helvetica"> Parabacteroides merdae JCM 94977 (AB238928)</text>
    </g>
    <g>
     <circle stroke="black" stroke-width="0.5" fill="#aaffff" cx="458.0" cy="451.0" r="1.0"/>
     <text stroke="none" x="458.0" y="451.0" font-size="10.0" font-family="helvetica">NT1.30</text>
    </g>
    <g>
     <circle stroke="black" stroke-width="0.5" fill="#aaffff" cx="460.0" cy="776.0" r="1.0"/>
     <text stroke="none" x="460.0" y="776.0" font-size="20.0" font-family="helvetica">Dysgonomonas capnocytophagoides CCUG 179967 (U41355)</text>
    </g>
    <g>
     <circle stroke="black" stroke-width="0.5" fill="#aaffff" cx="460.0" cy="48.0" r="1.0"/>
     <text stroke="none" x="460.0" y="48.0" font-size="10.0" font-family="helvetica">NT1.32</text>
    </g>
    <g>
     <circle stroke="black" stroke-width="0.5" fill="#aaffff" cx="471.0" cy="667.0" r="1.0"/>
     <text stroke="none" x="471.0" y="667.0" font-size="20.0" font-family="helvetica">Paludibacter propionicigenes WB47 (AB078842)</text>
    </g>
    <g>
     <circle stroke="black" stroke-width="0.5" fill="#aaffff" cx="477.0" cy="270.0" r="1.0"/>
     <text stroke="none" x="477.0" y="270.0" font-size="20.0" font-family="helvetica">Bacteroides fragilis ATCC 252857 (M11656)</text>
    </g>
    <g>
     <circle stroke="black" stroke-width="0.5" fill="#aaffff" cx="479.0" cy="631.0" r="1.0"/>
     <text stroke="none" x="479.0" y="631.0" font-size="20.0" font-family="helvetica">Proteiniphilum acetatigenes TB1O77 (AY742226)</text>
    </g>
    <g>
     <circle stroke="black" stroke-width="0.5" fill="#aaffff" cx="496.0" cy="160.0" r="1.0"/>
     <text stroke="none" x="496.0" y="160.0" font-size="20.0" font-family="helvetica">Bacteroides vulgatus ATCC 84827 (M58762)</text>
    </g>
    <g>
     <circle stroke="black" stroke-width="0.5" fill="#aaffff" cx="500.0" cy="79.0" r="1.0"/>
     <text stroke="none" x="500.0" y="79.0" font-size="10.0" font-family="helvetica">NT1.37</text>
    </g>
    <g>
     <circle stroke="black" stroke-width="0.5" fill="#aaffff" cx="502.0" cy="596.0" r="1.0"/>
     <text stroke="none" x="502.0" y="596.0" font-size="20.0" font-family="helvetica">Parabacteroides distasonis JCM 58257 (AB238922)</text>
    </g>
    <g>
     <circle stroke="black" stroke-width="0.5" fill="#aaffff" cx="502.0" cy="812.0" r="1.0"/>
     <text stroke="none" x="502.0" y="812.0" font-size="10.0" font-family="helvetica">NT1.39</text>
    </g>
    <g>
     <circle stroke="black" stroke-width="0.5" fill="#aaffff" cx="506.0" cy="305.0" r="1.0"/>
     <text stroke="none" x="506.0" y="305.0" font-size="20.0" font-family="helvetica">Porphyromonas gingivalis ATCC 332777 (L16492)</text>
    </g>
    <g>
     <circle stroke="black" stroke-width="0.5" fill="#aaffff" cx="536.0" cy="342.0" r="1.0"/>
     <text stroke="none" x="536.0" y="342.0" font-size="10.0" font-family="helvetica">NT1.41</text>
    </g>
    <g>
     <circle stroke="black" stroke-width="0.5" fill="#aaffff" cx="538.0" cy="379.0" r="1.0"/>
     <text stroke="none" x="538.0" y="379.0" font-size="20.0" font-family="helvetica">Porphyromonas circumdentaria NCTC 124697 (L26102)</text>
    </g>
    <g>
     <circle stroke="black" stroke-width="0.5" fill="#aaffff" cx="559.0" cy="107.0" r="1.0"/>
     <text stroke="none" x="559.0" y="107.0" font-size="20.0" font-family="helvetica">100</text>
    </g>
    <g>
     <circle stroke="black" stroke-width="0.5" fill="#aaffff" cx="599.0" cy="414.0" r="1.0"/>
     <text stroke="none" x="599.0" y="414.0" font-size="20.0" font-family="helvetica">Porphyromonas asaccharolylica ATCC 252607 (L16490)</text>
    </g>
    <g>
     <circle stroke="black" stroke-width="0.5" fill="#aaffff" cx="610.0" cy="53.0" r="1.0"/>
     <text stroke="none" x="610.0" y="53.0" font-size="20.0" font-family="helvetica">Prevotella melaninogenica ATCC 258457 (AY323525)</text>
    </g>
    <g>
     <circle stroke="black" stroke-width="0.5" fill="#aaffff" cx="612.0" cy="17.0" r="1.0"/>
     <text stroke="none" x="612.0" y="17.0" font-size="10.0" font-family="helvetica">NT1.46</text>
    </g>
    <g>
     <circle stroke="black" stroke-width="0.5" fill="#aaffff" cx="629.0" cy="125.0" r="1.0"/>
     <text stroke="none" x="629.0" y="125.0" font-size="20.0" font-family="helvetica">Prevotella intermedia ATCC 256117 (AF414821)</text>
    </g>
    <g>
     <circle stroke="black" stroke-width="0.5" fill="#aaffff" cx="656.0" cy="89.0" r="1.0"/>
     <text stroke="none" x="656.0" y="89.0" font-size="20.0" font-family="helvetica">Prevolella nigrescens ATCC 335637 (AF414833)</text>
    </g>
    <g>
     <circle stroke="black" stroke-width="0.5" fill="#aaffff" cx="6.0" cy="797.0" r="1.0"/>
     <text stroke="none" x="6.0" y="797.0" font-size="10.0" font-family="helvetica">NT1.49</text>
    </g>
    <line stroke="black" x1="629.0" y1="125.0" x2="559.0" y2="107.0" stroke-width="0.5"/>
    <line stroke="black" x1="446.0" y1="198.0" x2="367.0" y2="223.0" stroke-width="0.5"/>
    <line stroke="black" x1="496.0" y1="160.0" x2="353.0" y2="192.0" stroke-width="0.5"/>
    <line stroke="black" x1="477.0" y1="270.0" x2="395.0" y2="251.0" stroke-width="0.5"/>
    <line stroke="black" x1="479.0" y1="631.0" x2="287.0" y2="669.0" stroke-width="0.5"/>
    <line stroke="black" x1="471.0" y1="667.0" x2="300.0" y2="708.0" stroke-width="0.5"/>
    <line stroke="black" x1="439.0" y1="741.0" x2="367.0" y2="722.0" stroke-width="0.5"/>
    <line stroke="black" x1="460.0" y1="776.0" x2="334.0" y2="748.0" stroke-width="0.5"/>
    <line stroke="black" x1="443.0" y1="487.0" x2="365.0" y2="526.0" stroke-width="0.5"/>
    <line stroke="black" x1="506.0" y1="305.0" x2="327.0" y2="347.0" stroke-width="0.5"/>
    <line stroke="black" x1="456.0" y1="559.0" x2="431.0" y2="542.0" stroke-width="0.5"/>
    <line stroke="black" x1="502.0" y1="596.0" x2="382.0" y2="567.0" stroke-width="0.5"/>
    <line stroke="black" x1="538.0" y1="379.0" x2="452.0" y2="368.0" stroke-width="0.5"/>
    <line stroke="black" x1="392.0" y1="848.0" x2="169.0" y2="710.0" stroke-width="0.5"/>
    <line stroke="black" x1="599.0" y1="414.0" x2="382.0" y2="387.0" stroke-width="0.5"/>
    <line stroke="black" x1="460.0" y1="48.0" x2="500.0" y2="79.0" stroke-width="0.5"/>
    <line stroke="black" x1="500.0" y1="79.0" x2="559.0" y2="107.0" stroke-width="0.5"/>
    <line stroke="black" x1="290.0" y1="121.0" x2="241.0" y2="332.0" stroke-width="0.5"/>
    <line stroke="black" x1="290.0" y1="121.0" x2="353.0" y2="192.0" stroke-width="0.5"/>
    <line stroke="black" x1="353.0" y1="192.0" x2="367.0" y2="223.0" stroke-width="0.5"/>
    <line stroke="black" x1="241.0" y1="332.0" x2="222.0" y2="572.0" stroke-width="0.5"/>
    <line stroke="black" x1="241.0" y1="332.0" x2="273.0" y2="543.0" stroke-width="0.5"/>
    <line stroke="black" x1="273.0" y1="543.0" x2="287.0" y2="669.0" stroke-width="0.5"/>
    <line stroke="black" x1="273.0" y1="543.0" x2="283.0" y2="419.0" stroke-width="0.5"/>
    <line stroke="black" x1="283.0" y1="419.0" x2="327.0" y2="347.0" stroke-width="0.5"/>
    <line stroke="black" x1="287.0" y1="669.0" x2="300.0" y2="708.0" stroke-width="0.5"/>
    <line stroke="black" x1="300.0" y1="708.0" x2="334.0" y2="748.0" stroke-width="0.5"/>
    <line stroke="black" x1="308.0" y1="488.0" x2="365.0" y2="526.0" stroke-width="0.5"/>
    <line stroke="black" x1="327.0" y1="347.0" x2="382.0" y2="387.0" stroke-width="0.5"/>
    <line stroke="black" x1="334.0" y1="748.0" x2="367.0" y2="722.0" stroke-width="0.5"/>
    <line stroke="black" x1="365.0" y1="526.0" x2="382.0" y2="567.0" stroke-width="0.5"/>
    <line stroke="black" x1="6.0" y1="797.0" x2="450.0" y2="885.0" stroke-width="0.5"/>
    <line stroke="black" x1="6.0" y1="797.0" x2="169.0" y2="710.0" stroke-width="0.5"/>
    <line stroke="black" x1="454.0" y1="703.0" x2="367.0" y2="722.0" stroke-width="0.5"/>
    <line stroke="black" x1="610.0" y1="53.0" x2="500.0" y2="79.0" stroke-width="0.5"/>
    <line stroke="black" x1="656.0" y1="89.0" x2="559.0" y2="107.0" stroke-width="0.5"/>
   </g>
  </g>
 </svg>
</svg>
