<?xml version="1.0" encoding="UTF-8"?>
<svg height="800.0" width="700.0" xmlns="http://www.w3.org/2000/svg">
 <svg>
  <g>
   <g>
    <g>
     <circle stroke="black" stroke-width="0.5" fill="#aaffff" cx="18.0" cy="101.0" r="1.0"/>
     <text stroke="none" x="18.0" y="101.0" font-size="10.0" font-family="helvetica">NT1.1</text>
    </g>
    <g>
     <circle stroke="black" stroke-width="0.5" fill="#aaffff" cx="27.0" cy="19.0" r="1.0"/>
     <text stroke="none" x="27.0" y="19.0" font-size="20.0" font-family="helvetica">Brevibacterium epidermidis NCIMB 702286T (X76565)</text>
    </g>
    <g>
     <circle stroke="black" stroke-width="0.5" fill="#aaffff" cx="30.0" cy="213.0" r="1.0"/>
     <text stroke="none" x="30.0" y="213.0" font-size="10.0" font-family="helvetica">NT1.3</text>
    </g>
    <g>
     <circle stroke="black" stroke-width="0.5" fill="#aaffff" cx="35.0" cy="72.0" r="1.0"/>
     <text stroke="none" x="35.0" y="72.0" font-size="20.0" font-family="helvetica">Brevibacterium iodinum DSM 2O626T (X83813)</text>
    </g>
    <g>
     <circle stroke="black" stroke-width="0.5" fill="#aaffff" cx="45.0" cy="127.0" r="1.0"/>
     <text stroke="none" x="45.0" y="127.0" font-size="20.0" font-family="helvetica">Brevibacterium linens DSM 204257 (X77451)</text>
    </g>
    <g>
     <circle stroke="black" stroke-width="0.5" fill="#aaffff" cx="53.0" cy="302.0" r="1.0"/>
     <text stroke="none" x="53.0" y="302.0" font-size="10.0" font-family="helvetica">NT1.6</text>
    </g>
    <g>
     <circle stroke="black" stroke-width="0.5" fill="#aaffff" cx="87.0" cy="235.0" r="1.0"/>
     <text stroke="none" x="87.0" y="235.0" font-size="20.0" font-family="helvetica">Brevibacterium avium NCIMB 703O55T (Y17962)</text>
    </g>
    <g>
     <circle stroke="black" stroke-width="0.5" fill="#aaffff" cx="88.0" cy="181.0" r="1.0"/>
     <text stroke="none" x="88.0" y="181.0" font-size="20.0" font-family="helvetica">Brevibacterium casei DSM 206571 (AJ251418)</text>
    </g>
    <g>
     <circle stroke="black" stroke-width="0.5" fill="#aaffff" cx="137.0" cy="346.0" r="1.0"/>
     <text stroke="none" x="137.0" y="346.0" font-size="10.0" font-family="helvetica">NT1.9</text>
    </g>
    <g>
     <circle stroke="black" stroke-width="0.5" fill="#aaffff" cx="194.0" cy="319.0" r="1.0"/>
     <text stroke="none" x="194.0" y="319.0" font-size="10.0" font-family="helvetica">NT1.10</text>
    </g>
    <g>
     <circle stroke="black" stroke-width="0.5" fill="#aaffff" cx="203.0" cy="291.0" r="1.0"/>
     <text stroke="none" x="203.0" y="291.0" font-size="10.0" font-family="helvetica">NT1.11</text>
    </g>
    <g>
     <circle stroke="black" stroke-width="0.5" fill="#aaffff" cx="208.0" cy="423.0" r="1.0"/>
     <text stroke="none" x="208.0" y="423.0" font-size="10.0" font-family="helvetica">NT1.12</text>
    </g>
    <g>
     <circle stroke="black" stroke-width="0.5" fill="#aaffff" cx="230.0" cy="344.0" r="1.0"/>
     <text stroke="none" x="230.0" y="344.0" font-size="20.0" font-family="helvetica">Brevibacterium otitidis NCFB 3O53T (X93593)</text>
    </g>
    <g>
     <circle stroke="black" stroke-width="0.5" fill="#aaffff" cx="265.0" cy="397.0" r="1.0"/>
     <text stroke="none" x="265.0" y="397.0" font-size="20.0" font-family="helvetica">Brevibacterium mcbrellneri ATCC 49O30T (X93594)</text>
    </g>
    <g>
     <circle stroke="black" stroke-width="0.5" fill="#aaffff" cx="286.0" cy="451.0" r="1.0"/>
     <text stroke="none" x="286.0" y="451.0" font-size="20.0" font-family="helvetica">Brevibacterium paucivorans DSM 13657T (AJ251463)</text>
    </g>
    <g>
     <circle stroke="black" stroke-width="0.5" fill="#aaffff" cx="5.0" cy="58.0" r="1.0"/>
     <text stroke="none" x="5.0" y="58.0" font-size="10.0" font-family="helvetica">NT1.16</text>
    </g>
    <line stroke="black" x1="35.0" y1="72.0" x2="18.0" y2="101.0" stroke-width="0.5"/>
    <line stroke="black" x1="87.0" y1="235.0" x2="53.0" y2="302.0" stroke-width="0.5"/>
    <line stroke="black" x1="230.0" y1="344.0" x2="194.0" y2="319.0" stroke-width="0.5"/>
    <line stroke="black" x1="286.0" y1="451.0" x2="208.0" y2="423.0" stroke-width="0.5"/>
    <line stroke="black" x1="18.0" y1="101.0" x2="30.0" y2="213.0" stroke-width="0.5"/>
    <line stroke="black" x1="30.0" y1="213.0" x2="53.0" y2="302.0" stroke-width="0.5"/>
    <line stroke="black" x1="53.0" y1="302.0" x2="137.0" y2="346.0" stroke-width="0.5"/>
    <line stroke="black" x1="137.0" y1="346.0" x2="208.0" y2="423.0" stroke-width="0.5"/>
    <line stroke="black" x1="5.0" y1="58.0" x2="27.0" y2="19.0" stroke-width="0.5"/>
    <line stroke="black" x1="5.0" y1="58.0" x2="18.0" y2="101.0" stroke-width="0.5"/>
    <line stroke="black" x1="45.0" y1="127.0" x2="18.0" y2="101.0" stroke-width="0.5"/>
    <line stroke="black" x1="88.0" y1="181.0" x2="30.0" y2="213.0" stroke-width="0.5"/>
    <line stroke="black" x1="265.0" y1="397.0" x2="208.0" y2="423.0" stroke-width="0.5"/>
   </g>
  </g>
 </svg>
</svg>
