<?xml version="1.0" encoding="UTF-8"?>
<svg height="800.0" width="700.0" xmlns="http://www.w3.org/2000/svg">
 <svg>
  <g>
   <g>
    <g>
     <circle stroke="black" stroke-width="0.5" fill="#aaffff" cx="108.0" cy="690.0" r="1.0"/>
     <text stroke="none" x="108.0" y="690.0" font-size="10.0" font-family="helvetica">NT1.1</text>
    </g>
    <g>
     <circle stroke="black" stroke-width="0.5" fill="#aaffff" cx="177.0" cy="1117.0" r="1.0"/>
     <text stroke="none" x="177.0" y="1117.0" font-size="10.0" font-family="helvetica">NT1.2</text>
    </g>
    <g>
     <circle stroke="black" stroke-width="0.5" fill="#aaffff" cx="213.0" cy="199.0" r="1.0"/>
     <text stroke="none" x="213.0" y="199.0" font-size="10.0" font-family="helvetica">NT1.3</text>
    </g>
    <g>
     <circle stroke="black" stroke-width="0.5" fill="#aaffff" cx="312.0" cy="612.0" r="1.0"/>
     <text stroke="none" x="312.0" y="612.0" font-size="10.0" font-family="helvetica">NT1.4</text>
    </g>
    <g>
     <circle stroke="black" stroke-width="0.5" fill="#aaffff" cx="396.0" cy="1113.0" r="1.0"/>
     <text stroke="none" x="396.0" y="1113.0" font-size="10.0" font-family="helvetica">NT1.5</text>
    </g>
    <g>
     <circle stroke="black" stroke-width="0.5" fill="#aaffff" cx="413.0" cy="420.0" r="1.0"/>
     <text stroke="none" x="413.0" y="420.0" font-size="10.0" font-family="helvetica">NT1.6</text>
    </g>
    <g>
     <circle stroke="black" stroke-width="0.5" fill="#aaffff" cx="512.0" cy="263.0" r="1.0"/>
     <text stroke="none" x="512.0" y="263.0" font-size="10.0" font-family="helvetica">NT1.7</text>
    </g>
    <g>
     <circle stroke="black" stroke-width="0.5" fill="#aaffff" cx="563.0" cy="621.0" r="1.0"/>
     <text stroke="none" x="563.0" y="621.0" font-size="10.0" font-family="helvetica">NT1.8</text>
    </g>
    <g>
     <circle stroke="black" stroke-width="0.5" fill="#aaffff" cx="584.0" cy="361.0" r="1.0"/>
     <text stroke="none" x="584.0" y="361.0" font-size="10.0" font-family="helvetica">NT1.9</text>
    </g>
    <g>
     <circle stroke="black" stroke-width="0.5" fill="#aaffff" cx="604.0" cy="1014.0" r="1.0"/>
     <text stroke="none" x="604.0" y="1014.0" font-size="10.0" font-family="helvetica">NT1.10</text>
    </g>
    <g>
     <circle stroke="black" stroke-width="0.5" fill="#aaffff" cx="659.0" cy="947.0" r="1.0"/>
     <text stroke="none" x="659.0" y="947.0" font-size="20.0" font-family="helvetica"/>
    </g>
    <g>
     <circle stroke="black" stroke-width="0.5" fill="#aaffff" cx="683.0" cy="556.0" r="1.0"/>
     <text stroke="none" x="683.0" y="556.0" font-size="20.0" font-family="helvetica">Anfhrobacter globiformis</text>
    </g>
    <g>
     <circle stroke="black" stroke-width="0.5" fill="#aaffff" cx="687.0" cy="950.0" r="1.0"/>
     <text stroke="none" x="687.0" y="950.0" font-size="10.0" font-family="helvetica">NT1.13</text>
    </g>
    <g>
     <circle stroke="black" stroke-width="0.5" fill="#aaffff" cx="719.0" cy="33.0" r="1.0"/>
     <text stroke="none" x="719.0" y="33.0" font-size="20.0" font-family="helvetica">Kocuria</text>
    </g>
    <g>
     <circle stroke="black" stroke-width="0.5" fill="#aaffff" cx="719.0" cy="163.0" r="1.0"/>
     <text stroke="none" x="719.0" y="163.0" font-size="20.0" font-family="helvetica"/>
    </g>
    <g>
     <circle stroke="black" stroke-width="0.5" fill="#aaffff" cx="720.0" cy="293.0" r="1.0"/>
     <text stroke="none" x="720.0" y="293.0" font-size="20.0" font-family="helvetica">Micrococcus</text>
    </g>
    <g>
     <circle stroke="black" stroke-width="0.5" fill="#aaffff" cx="721.0" cy="820.0" r="1.0"/>
     <text stroke="none" x="721.0" y="820.0" font-size="20.0" font-family="helvetica">Arihrobacter crystallopoietes</text>
    </g>
    <g>
     <circle stroke="black" stroke-width="0.5" fill="#aaffff" cx="721.0" cy="686.0" r="1.0"/>
     <text stroke="none" x="721.0" y="686.0" font-size="20.0" font-family="helvetica">Arthrobacter nicotianae</text>
    </g>
    <g>
     <circle stroke="black" stroke-width="0.5" fill="#aaffff" cx="721.0" cy="424.0" r="1.0"/>
     <text stroke="none" x="721.0" y="424.0" font-size="20.0" font-family="helvetica">Micrococcus</text>
    </g>
    <g>
     <circle stroke="black" stroke-width="0.5" fill="#aaffff" cx="721.0" cy="950.0" r="1.0"/>
     <text stroke="none" x="721.0" y="950.0" font-size="20.0" font-family="helvetica">Kocuria</text>
    </g>
    <g>
     <circle stroke="black" stroke-width="0.5" fill="#aaffff" cx="722.0" cy="1212.0" r="1.0"/>
     <text stroke="none" x="722.0" y="1212.0" font-size="20.0" font-family="helvetica"/>
    </g>
    <g>
     <circle stroke="black" stroke-width="0.5" fill="#aaffff" cx="722.0" cy="1080.0" r="1.0"/>
     <text stroke="none" x="722.0" y="1080.0" font-size="20.0" font-family="helvetica">ATCC</text>
    </g>
    <g>
     <circle stroke="black" stroke-width="0.5" fill="#aaffff" cx="722.0" cy="1342.0" r="1.0"/>
     <text stroke="none" x="722.0" y="1342.0" font-size="20.0" font-family="helvetica"/>
    </g>
    <g>
     <circle stroke="black" stroke-width="0.5" fill="#aaffff" cx="722.0" cy="1476.0" r="1.0"/>
     <text stroke="none" x="722.0" y="1476.0" font-size="20.0" font-family="helvetica">Rothia</text>
    </g>
    <line stroke="black" x1="719.0" y1="33.0" x2="213.0" y2="199.0" stroke-width="0.5"/>
    <line stroke="black" x1="687.0" y1="950.0" x2="659.0" y2="947.0" stroke-width="0.5"/>
    <line stroke="black" x1="721.0" y1="950.0" x2="687.0" y2="950.0" stroke-width="0.5"/>
    <line stroke="black" x1="722.0" y1="1342.0" x2="177.0" y2="1117.0" stroke-width="0.5"/>
    <line stroke="black" x1="213.0" y1="199.0" x2="108.0" y2="690.0" stroke-width="0.5"/>
    <line stroke="black" x1="213.0" y1="199.0" x2="312.0" y2="612.0" stroke-width="0.5"/>
    <line stroke="black" x1="108.0" y1="690.0" x2="177.0" y2="1117.0" stroke-width="0.5"/>
    <line stroke="black" x1="108.0" y1="690.0" x2="396.0" y2="1113.0" stroke-width="0.5"/>
    <line stroke="black" x1="312.0" y1="612.0" x2="413.0" y2="420.0" stroke-width="0.5"/>
    <line stroke="black" x1="413.0" y1="420.0" x2="563.0" y2="621.0" stroke-width="0.5"/>
    <line stroke="black" x1="413.0" y1="420.0" x2="512.0" y2="263.0" stroke-width="0.5"/>
    <line stroke="black" x1="563.0" y1="621.0" x2="683.0" y2="556.0" stroke-width="0.5"/>
    <line stroke="black" x1="512.0" y1="263.0" x2="584.0" y2="361.0" stroke-width="0.5"/>
    <line stroke="black" x1="396.0" y1="1113.0" x2="604.0" y2="1014.0" stroke-width="0.5"/>
    <line stroke="black" x1="604.0" y1="1014.0" x2="687.0" y2="950.0" stroke-width="0.5"/>
    <line stroke="black" x1="722.0" y1="1476.0" x2="177.0" y2="1117.0" stroke-width="0.5"/>
    <line stroke="black" x1="721.0" y1="820.0" x2="312.0" y2="612.0" stroke-width="0.5"/>
    <line stroke="black" x1="719.0" y1="163.0" x2="512.0" y2="263.0" stroke-width="0.5"/>
    <line stroke="black" x1="722.0" y1="1212.0" x2="396.0" y2="1113.0" stroke-width="0.5"/>
    <line stroke="black" x1="722.0" y1="1080.0" x2="604.0" y2="1014.0" stroke-width="0.5"/>
    <line stroke="black" x1="721.0" y1="424.0" x2="584.0" y2="361.0" stroke-width="0.5"/>
    <line stroke="black" x1="721.0" y1="686.0" x2="563.0" y2="621.0" stroke-width="0.5"/>
    <line stroke="black" x1="720.0" y1="293.0" x2="584.0" y2="361.0" stroke-width="0.5"/>
   </g>
  </g>
 </svg>
</svg>
