<?xml version="1.0" encoding="UTF-8"?>
<svg height="800.0" width="700.0" xmlns="http://www.w3.org/2000/svg">
 <svg>
  <g>
   <g>
    <g>
     <circle stroke="black" stroke-width="0.5" fill="#aaffff" cx="2.0" cy="646.0" r="1.0"/>
     <text stroke="none" x="2.0" y="646.0" font-size="10.0" font-family="helvetica">NT1.1</text>
    </g>
    <g>
     <circle stroke="black" stroke-width="0.5" fill="#aaffff" cx="35.0" cy="533.0" r="1.0"/>
     <text stroke="none" x="35.0" y="533.0" font-size="10.0" font-family="helvetica">NT1.2</text>
    </g>
    <g>
     <circle stroke="black" stroke-width="0.5" fill="#aaffff" cx="67.0" cy="474.0" r="1.0"/>
     <text stroke="none" x="67.0" y="474.0" font-size="10.0" font-family="helvetica">NT1.3</text>
    </g>
    <g>
     <circle stroke="black" stroke-width="0.5" fill="#aaffff" cx="119.0" cy="521.0" r="1.0"/>
     <text stroke="none" x="119.0" y="521.0" font-size="20.0" font-family="helvetica">784</text>
    </g>
    <g>
     <circle stroke="black" stroke-width="0.5" fill="#aaffff" cx="141.0" cy="593.0" r="1.0"/>
     <text stroke="none" x="141.0" y="593.0" font-size="20.0" font-family="helvetica">994</text>
    </g>
    <g>
     <circle stroke="black" stroke-width="0.5" fill="#aaffff" cx="144.0" cy="427.0" r="1.0"/>
     <text stroke="none" x="144.0" y="427.0" font-size="10.0" font-family="helvetica">NT1.6</text>
    </g>
    <g>
     <circle stroke="black" stroke-width="0.5" fill="#aaffff" cx="158.0" cy="362.0" r="1.0"/>
     <text stroke="none" x="158.0" y="362.0" font-size="10.0" font-family="helvetica">NT1.7</text>
    </g>
    <g>
     <circle stroke="black" stroke-width="0.5" fill="#aaffff" cx="172.0" cy="339.0" r="1.0"/>
     <text stroke="none" x="172.0" y="339.0" font-size="10.0" font-family="helvetica">NT1.8</text>
    </g>
    <g>
     <circle stroke="black" stroke-width="0.5" fill="#aaffff" cx="199.0" cy="362.0" r="1.0"/>
     <text stroke="none" x="199.0" y="362.0" font-size="20.0" font-family="helvetica"/>
    </g>
    <g>
     <circle stroke="black" stroke-width="0.5" fill="#aaffff" cx="199.0" cy="279.0" r="1.0"/>
     <text stroke="none" x="199.0" y="279.0" font-size="20.0" font-family="helvetica">7g</text>
    </g>
    <g>
     <circle stroke="black" stroke-width="0.5" fill="#aaffff" cx="201.0" cy="325.0" r="1.0"/>
     <text stroke="none" x="201.0" y="325.0" font-size="10.0" font-family="helvetica">NT1.11</text>
    </g>
    <g>
     <circle stroke="black" stroke-width="0.5" fill="#aaffff" cx="201.0" cy="361.0" r="1.0"/>
     <text stroke="none" x="201.0" y="361.0" font-size="10.0" font-family="helvetica">NT1.12</text>
    </g>
    <g>
     <circle stroke="black" stroke-width="0.5" fill="#aaffff" cx="210.0" cy="216.0" r="1.0"/>
     <text stroke="none" x="210.0" y="216.0" font-size="10.0" font-family="helvetica">NT1.13</text>
    </g>
    <g>
     <circle stroke="black" stroke-width="0.5" fill="#aaffff" cx="214.0" cy="271.0" r="1.0"/>
     <text stroke="none" x="214.0" y="271.0" font-size="10.0" font-family="helvetica">NT1.14</text>
    </g>
    <g>
     <circle stroke="black" stroke-width="0.5" fill="#aaffff" cx="217.0" cy="159.0" r="1.0"/>
     <text stroke="none" x="217.0" y="159.0" font-size="10.0" font-family="helvetica">NT1.15</text>
    </g>
    <g>
     <circle stroke="black" stroke-width="0.5" fill="#aaffff" cx="231.0" cy="102.0" r="1.0"/>
     <text stroke="none" x="231.0" y="102.0" font-size="10.0" font-family="helvetica">NT1.16</text>
    </g>
    <g>
     <circle stroke="black" stroke-width="0.5" fill="#aaffff" cx="235.0" cy="154.0" r="1.0"/>
     <text stroke="none" x="235.0" y="154.0" font-size="10.0" font-family="helvetica">NT1.17</text>
    </g>
    <g>
     <circle stroke="black" stroke-width="0.5" fill="#aaffff" cx="240.0" cy="129.0" r="1.0"/>
     <text stroke="none" x="240.0" y="129.0" font-size="10.0" font-family="helvetica">NT1.18</text>
    </g>
    <g>
     <circle stroke="black" stroke-width="0.5" fill="#aaffff" cx="249.0" cy="110.0" r="1.0"/>
     <text stroke="none" x="249.0" y="110.0" font-size="20.0" font-family="helvetica">Mesorhizobium metallidurans STM 3292 (AM930383)</text>
    </g>
    <g>
     <circle stroke="black" stroke-width="0.5" fill="#aaffff" cx="249.0" cy="611.0" r="1.0"/>
     <text stroke="none" x="249.0" y="611.0" font-size="20.0" font-family="helvetica">Sinorhizobium saheli HAMBI 217 (AJ294380)</text>
    </g>
    <g>
     <circle stroke="black" stroke-width="0.5" fill="#aaffff" cx="257.0" cy="432.0" r="1.0"/>
     <text stroke="none" x="257.0" y="432.0" font-size="20.0" font-family="helvetica"> Mesorhizobium plurifarium ICMP 136407 (AY494824)</text>
    </g>
    <g>
     <circle stroke="black" stroke-width="0.5" fill="#aaffff" cx="258.0" cy="646.0" r="1.0"/>
     <text stroke="none" x="258.0" y="646.0" font-size="20.0" font-family="helvetica">Azorhizobfum caulinodans USDA 4892T (AJ294363)</text>
    </g>
    <g>
     <circle stroke="black" stroke-width="0.5" fill="#aaffff" cx="259.0" cy="147.0" r="1.0"/>
     <text stroke="none" x="259.0" y="147.0" font-size="20.0" font-family="helvetica"> Mesorhizobium metallidurans STM 3293 (AM930384)</text>
    </g>
    <g>
     <circle stroke="black" stroke-width="0.5" fill="#aaffff" cx="270.0" cy="396.0" r="1.0"/>
     <text stroke="none" x="270.0" y="396.0" font-size="20.0" font-family="helvetica">Mesorhizobium Ioti USDA 34717 (AJ294371)</text>
    </g>
    <g>
     <circle stroke="black" stroke-width="0.5" fill="#aaffff" cx="276.0" cy="290.0" r="1.0"/>
     <text stroke="none" x="276.0" y="290.0" font-size="20.0" font-family="helvetica">Mesorhizobium ciceri USDA 3383T (AJ294367)</text>
    </g>
    <g>
     <circle stroke="black" stroke-width="0.5" fill="#aaffff" cx="282.0" cy="49.0" r="1.0"/>
     <text stroke="none" x="282.0" y="49.0" font-size="20.0" font-family="helvetica">993</text>
    </g>
    <g>
     <circle stroke="black" stroke-width="0.5" fill="#aaffff" cx="284.0" cy="218.0" r="1.0"/>
     <text stroke="none" x="284.0" y="218.0" font-size="20.0" font-family="helvetica"> Mesorhizobium tianshanense USDA 35927 (AJ294368)</text>
    </g>
    <g>
     <circle stroke="black" stroke-width="0.5" fill="#aaffff" cx="284.0" cy="253.0" r="1.0"/>
     <text stroke="none" x="284.0" y="253.0" font-size="20.0" font-family="helvetica"> Me-sorhizobium mediterraneum USDA 33927 (AJ294369)</text>
    </g>
    <g>
     <circle stroke="black" stroke-width="0.5" fill="#aaffff" cx="284.0" cy="682.0" r="1.0"/>
     <text stroke="none" x="284.0" y="682.0" font-size="20.0" font-family="helvetica">Bradyrhizobium japonicum DSM 30131T(AY591555)</text>
    </g>
    <g>
     <circle stroke="black" stroke-width="0.5" fill="#aaffff" cx="284.0" cy="21.0" r="1.0"/>
     <text stroke="none" x="284.0" y="21.0" font-size="20.0" font-family="helvetica">993</text>
    </g>
    <g>
     <circle stroke="black" stroke-width="0.5" fill="#aaffff" cx="285.0" cy="76.0" r="1.0"/>
     <text stroke="none" x="285.0" y="76.0" font-size="20.0" font-family="helvetica">Mesorhizobium metallidurans STM 3294 (AM930385)</text>
    </g>
    <g>
     <circle stroke="black" stroke-width="0.5" fill="#aaffff" cx="287.0" cy="4.0" r="1.0"/>
     <text stroke="none" x="287.0" y="4.0" font-size="20.0" font-family="helvetica"/>
    </g>
    <g>
     <circle stroke="black" stroke-width="0.5" fill="#aaffff" cx="291.0" cy="39.0" r="1.0"/>
     <text stroke="none" x="291.0" y="39.0" font-size="20.0" font-family="helvetica">Mesorhizobium metallidurans STM 3295 (AM930386)</text>
    </g>
    <g>
     <circle stroke="black" stroke-width="0.5" fill="#aaffff" cx="291.0" cy="325.0" r="1.0"/>
     <text stroke="none" x="291.0" y="325.0" font-size="20.0" font-family="helvetica"> Mesorhizobium huakufi USDA 4779T (AJ294370)</text>
    </g>
    <g>
     <circle stroke="black" stroke-width="0.5" fill="#aaffff" cx="296.0" cy="361.0" r="1.0"/>
     <text stroke="none" x="296.0" y="361.0" font-size="20.0" font-family="helvetica"> Mesorhizobium amorphae ICMP 150227 (AY494816)</text>
    </g>
    <g>
     <circle stroke="black" stroke-width="0.5" fill="#aaffff" cx="298.0" cy="182.0" r="1.0"/>
     <text stroke="none" x="298.0" y="182.0" font-size="20.0" font-family="helvetica">Mesorhizobium metallidurans STM 2683T (AM930382)</text>
    </g>
    <g>
     <circle stroke="black" stroke-width="0.5" fill="#aaffff" cx="326.0" cy="574.0" r="1.0"/>
     <text stroke="none" x="326.0" y="574.0" font-size="20.0" font-family="helvetica">Sinarhizobium meliloti USDA 10O2T (AJ294382)</text>
    </g>
    <g>
     <circle stroke="black" stroke-width="0.5" fill="#aaffff" cx="332.0" cy="538.0" r="1.0"/>
     <text stroke="none" x="332.0" y="538.0" font-size="20.0" font-family="helvetica">Phyllobacterium myrsinacearum ATCC 435907 (AJ294365)</text>
    </g>
    <g>
     <circle stroke="black" stroke-width="0.5" fill="#aaffff" cx="347.0" cy="468.0" r="1.0"/>
     <text stroke="none" x="347.0" y="468.0" font-size="20.0" font-family="helvetica">Mesorhizobium chacoense ICMP 14587T (AY494825)</text>
    </g>
    <g>
     <circle stroke="black" stroke-width="0.5" fill="#aaffff" cx="400.0" cy="503.0" r="1.0"/>
     <text stroke="none" x="400.0" y="503.0" font-size="20.0" font-family="helvetica">Agrobacterium tumefaciens NCPPB 24377 (AJ294377)</text>
    </g>
    <line stroke="black" x1="287.0" y1="4.0" x2="284.0" y2="21.0" stroke-width="0.5"/>
    <line stroke="black" x1="291.0" y1="39.0" x2="284.0" y2="21.0" stroke-width="0.5"/>
    <line stroke="black" x1="259.0" y1="147.0" x2="240.0" y2="129.0" stroke-width="0.5"/>
    <line stroke="black" x1="298.0" y1="182.0" x2="235.0" y2="154.0" stroke-width="0.5"/>
    <line stroke="black" x1="276.0" y1="290.0" x2="214.0" y2="271.0" stroke-width="0.5"/>
    <line stroke="black" x1="284.0" y1="253.0" x2="214.0" y2="271.0" stroke-width="0.5"/>
    <line stroke="black" x1="199.0" y1="362.0" x2="201.0" y2="361.0" stroke-width="0.5"/>
    <line stroke="black" x1="291.0" y1="325.0" x2="201.0" y2="325.0" stroke-width="0.5"/>
    <line stroke="black" x1="296.0" y1="361.0" x2="201.0" y2="361.0" stroke-width="0.5"/>
    <line stroke="black" x1="270.0" y1="396.0" x2="172.0" y2="339.0" stroke-width="0.5"/>
    <line stroke="black" x1="257.0" y1="432.0" x2="158.0" y2="362.0" stroke-width="0.5"/>
    <line stroke="black" x1="347.0" y1="468.0" x2="144.0" y2="427.0" stroke-width="0.5"/>
    <line stroke="black" x1="332.0" y1="538.0" x2="119.0" y2="521.0" stroke-width="0.5"/>
    <line stroke="black" x1="249.0" y1="611.0" x2="141.0" y2="593.0" stroke-width="0.5"/>
    <line stroke="black" x1="400.0" y1="503.0" x2="119.0" y2="521.0" stroke-width="0.5"/>
    <line stroke="black" x1="326.0" y1="574.0" x2="141.0" y2="593.0" stroke-width="0.5"/>
    <line stroke="black" x1="258.0" y1="646.0" x2="2.0" y2="646.0" stroke-width="0.5"/>
    <line stroke="black" x1="284.0" y1="21.0" x2="282.0" y2="49.0" stroke-width="0.5"/>
    <line stroke="black" x1="231.0" y1="102.0" x2="235.0" y2="154.0" stroke-width="0.5"/>
    <line stroke="black" x1="235.0" y1="154.0" x2="240.0" y2="129.0" stroke-width="0.5"/>
    <line stroke="black" x1="217.0" y1="159.0" x2="210.0" y2="216.0" stroke-width="0.5"/>
    <line stroke="black" x1="210.0" y1="216.0" x2="199.0" y2="279.0" stroke-width="0.5"/>
    <line stroke="black" x1="199.0" y1="279.0" x2="172.0" y2="339.0" stroke-width="0.5"/>
    <line stroke="black" x1="199.0" y1="279.0" x2="201.0" y2="325.0" stroke-width="0.5"/>
    <line stroke="black" x1="201.0" y1="325.0" x2="201.0" y2="361.0" stroke-width="0.5"/>
    <line stroke="black" x1="172.0" y1="339.0" x2="158.0" y2="362.0" stroke-width="0.5"/>
    <line stroke="black" x1="144.0" y1="427.0" x2="67.0" y2="474.0" stroke-width="0.5"/>
    <line stroke="black" x1="67.0" y1="474.0" x2="35.0" y2="533.0" stroke-width="0.5"/>
    <line stroke="black" x1="67.0" y1="474.0" x2="119.0" y2="521.0" stroke-width="0.5"/>
    <line stroke="black" x1="35.0" y1="533.0" x2="2.0" y2="646.0" stroke-width="0.5"/>
    <line stroke="black" x1="284.0" y1="682.0" x2="2.0" y2="646.0" stroke-width="0.5"/>
    <line stroke="black" x1="35.0" y1="533.0" x2="141.0" y2="593.0" stroke-width="0.5"/>
    <line stroke="black" x1="158.0" y1="362.0" x2="144.0" y2="427.0" stroke-width="0.5"/>
    <line stroke="black" x1="210.0" y1="216.0" x2="214.0" y2="271.0" stroke-width="0.5"/>
    <line stroke="black" x1="231.0" y1="102.0" x2="217.0" y2="159.0" stroke-width="0.5"/>
    <line stroke="black" x1="284.0" y1="218.0" x2="217.0" y2="159.0" stroke-width="0.5"/>
    <line stroke="black" x1="282.0" y1="49.0" x2="231.0" y2="102.0" stroke-width="0.5"/>
    <line stroke="black" x1="249.0" y1="110.0" x2="240.0" y2="129.0" stroke-width="0.5"/>
    <line stroke="black" x1="285.0" y1="76.0" x2="282.0" y2="49.0" stroke-width="0.5"/>
   </g>
  </g>
 </svg>
</svg>
