<?xml version="1.0" encoding="UTF-8"?>
<svg height="800.0" width="700.0" xmlns="http://www.w3.org/2000/svg">
 <svg>
  <g>
   <g>
    <g>
     <circle stroke="black" stroke-width="0.5" fill="#aaffff" cx="159.0" cy="586.0" r="1.0"/>
     <text stroke="none" x="159.0" y="586.0" font-size="10.0" font-family="helvetica">NT1.1</text>
    </g>
    <g>
     <circle stroke="black" stroke-width="0.5" fill="#aaffff" cx="179.0" cy="312.0" r="1.0"/>
     <text stroke="none" x="179.0" y="312.0" font-size="10.0" font-family="helvetica">NT1.2</text>
    </g>
    <g>
     <circle stroke="black" stroke-width="0.5" fill="#aaffff" cx="180.0" cy="310.0" r="1.0"/>
     <text stroke="none" x="180.0" y="310.0" font-size="10.0" font-family="helvetica">NT1.3</text>
    </g>
    <g>
     <circle stroke="black" stroke-width="0.5" fill="#aaffff" cx="181.0" cy="308.0" r="1.0"/>
     <text stroke="none" x="181.0" y="308.0" font-size="10.0" font-family="helvetica">NT1.4</text>
    </g>
    <g>
     <circle stroke="black" stroke-width="0.5" fill="#aaffff" cx="186.0" cy="851.0" r="1.0"/>
     <text stroke="none" x="186.0" y="851.0" font-size="20.0" font-family="helvetica">85</text>
    </g>
    <g>
     <circle stroke="black" stroke-width="0.5" fill="#aaffff" cx="187.0" cy="302.0" r="1.0"/>
     <text stroke="none" x="187.0" y="302.0" font-size="10.0" font-family="helvetica">NT1.6</text>
    </g>
    <g>
     <circle stroke="black" stroke-width="0.5" fill="#aaffff" cx="189.0" cy="313.0" r="1.0"/>
     <text stroke="none" x="189.0" y="313.0" font-size="10.0" font-family="helvetica">NT1.7</text>
    </g>
    <g>
     <circle stroke="black" stroke-width="0.5" fill="#aaffff" cx="195.0" cy="440.0" r="1.0"/>
     <text stroke="none" x="195.0" y="440.0" font-size="10.0" font-family="helvetica">NT1.8</text>
    </g>
    <g>
     <circle stroke="black" stroke-width="0.5" fill="#aaffff" cx="202.0" cy="927.0" r="1.0"/>
     <text stroke="none" x="202.0" y="927.0" font-size="20.0" font-family="helvetica">75</text>
    </g>
    <g>
     <circle stroke="black" stroke-width="0.5" fill="#aaffff" cx="203.0" cy="391.0" r="1.0"/>
     <text stroke="none" x="203.0" y="391.0" font-size="10.0" font-family="helvetica">NT1.10</text>
    </g>
    <g>
     <circle stroke="black" stroke-width="0.5" fill="#aaffff" cx="214.0" cy="200.0" r="1.0"/>
     <text stroke="none" x="214.0" y="200.0" font-size="10.0" font-family="helvetica">NT1.11</text>
    </g>
    <g>
     <circle stroke="black" stroke-width="0.5" fill="#aaffff" cx="229.0" cy="984.0" r="1.0"/>
     <text stroke="none" x="229.0" y="984.0" font-size="20.0" font-family="helvetica">77</text>
    </g>
    <g>
     <circle stroke="black" stroke-width="0.5" fill="#aaffff" cx="235.0" cy="490.0" r="1.0"/>
     <text stroke="none" x="235.0" y="490.0" font-size="10.0" font-family="helvetica">NT1.13</text>
    </g>
    <g>
     <circle stroke="black" stroke-width="0.5" fill="#aaffff" cx="246.0" cy="273.0" r="1.0"/>
     <text stroke="none" x="246.0" y="273.0" font-size="10.0" font-family="helvetica">NT1.14</text>
    </g>
    <g>
     <circle stroke="black" stroke-width="0.5" fill="#aaffff" cx="264.0" cy="777.0" r="1.0"/>
     <text stroke="none" x="264.0" y="777.0" font-size="20.0" font-family="helvetica">99</text>
    </g>
    <g>
     <circle stroke="black" stroke-width="0.5" fill="#aaffff" cx="282.0" cy="302.0" r="1.0"/>
     <text stroke="none" x="282.0" y="302.0" font-size="10.0" font-family="helvetica">NT1.16</text>
    </g>
    <g>
     <circle stroke="black" stroke-width="0.5" fill="#aaffff" cx="285.0" cy="126.0" r="1.0"/>
     <text stroke="none" x="285.0" y="126.0" font-size="10.0" font-family="helvetica">NT1.17</text>
    </g>
    <g>
     <circle stroke="black" stroke-width="0.5" fill="#aaffff" cx="285.0" cy="455.0" r="1.0"/>
     <text stroke="none" x="285.0" y="455.0" font-size="10.0" font-family="helvetica">NT1.18</text>
    </g>
    <g>
     <circle stroke="black" stroke-width="0.5" fill="#aaffff" cx="291.0" cy="526.0" r="1.0"/>
     <text stroke="none" x="291.0" y="526.0" font-size="10.0" font-family="helvetica">NT1.19</text>
    </g>
    <g>
     <circle stroke="black" stroke-width="0.5" fill="#aaffff" cx="297.0" cy="550.0" r="1.0"/>
     <text stroke="none" x="297.0" y="550.0" font-size="10.0" font-family="helvetica">NT1.20</text>
    </g>
    <g>
     <circle stroke="black" stroke-width="0.5" fill="#aaffff" cx="297.0" cy="731.0" r="1.0"/>
     <text stroke="none" x="297.0" y="731.0" font-size="10.0" font-family="helvetica">NT1.21</text>
    </g>
    <g>
     <circle stroke="black" stroke-width="0.5" fill="#aaffff" cx="310.0" cy="173.0" r="1.0"/>
     <text stroke="none" x="310.0" y="173.0" font-size="20.0" font-family="helvetica">97</text>
    </g>
    <g>
     <circle stroke="black" stroke-width="0.5" fill="#aaffff" cx="311.0" cy="78.0" r="1.0"/>
     <text stroke="none" x="311.0" y="78.0" font-size="10.0" font-family="helvetica">NT1.23</text>
    </g>
    <g>
     <circle stroke="black" stroke-width="0.5" fill="#aaffff" cx="313.0" cy="86.0" r="1.0"/>
     <text stroke="none" x="313.0" y="86.0" font-size="10.0" font-family="helvetica">NT1.24</text>
    </g>
    <g>
     <circle stroke="black" stroke-width="0.5" fill="#aaffff" cx="316.0" cy="197.0" r="1.0"/>
     <text stroke="none" x="316.0" y="197.0" font-size="20.0" font-family="helvetica">97</text>
    </g>
    <g>
     <circle stroke="black" stroke-width="0.5" fill="#aaffff" cx="326.0" cy="687.0" r="1.0"/>
     <text stroke="none" x="326.0" y="687.0" font-size="20.0" font-family="helvetica">98</text>
    </g>
    <g>
     <circle stroke="black" stroke-width="0.5" fill="#aaffff" cx="329.0" cy="326.0" r="1.0"/>
     <text stroke="none" x="329.0" y="326.0" font-size="20.0" font-family="helvetica">99</text>
    </g>
    <g>
     <circle stroke="black" stroke-width="0.5" fill="#aaffff" cx="341.0" cy="647.0" r="1.0"/>
     <text stroke="none" x="341.0" y="647.0" font-size="10.0" font-family="helvetica">NT1.28</text>
    </g>
    <g>
     <circle stroke="black" stroke-width="0.5" fill="#aaffff" cx="342.0" cy="1143.0" r="1.0"/>
     <text stroke="none" x="342.0" y="1143.0" font-size="20.0" font-family="helvetica">Streptomyces somaliensis DSM 40738T (AJOO7403)</text>
    </g>
    <g>
     <circle stroke="black" stroke-width="0.5" fill="#aaffff" cx="345.0" cy="38.0" r="1.0"/>
     <text stroke="none" x="345.0" y="38.0" font-size="20.0" font-family="helvetica">96</text>
    </g>
    <g>
     <circle stroke="black" stroke-width="0.5" fill="#aaffff" cx="351.0" cy="871.0" r="1.0"/>
     <text stroke="none" x="351.0" y="871.0" font-size="10.0" font-family="helvetica">NT1.31</text>
    </g>
    <g>
     <circle stroke="black" stroke-width="0.5" fill="#aaffff" cx="355.0" cy="1034.0" r="1.0"/>
     <text stroke="none" x="355.0" y="1034.0" font-size="20.0" font-family="helvetica">99</text>
    </g>
    <g>
     <circle stroke="black" stroke-width="0.5" fill="#aaffff" cx="357.0" cy="774.0" r="1.0"/>
     <text stroke="none" x="357.0" y="774.0" font-size="20.0" font-family="helvetica">99</text>
    </g>
    <g>
     <circle stroke="black" stroke-width="0.5" fill="#aaffff" cx="362.0" cy="470.0" r="1.0"/>
     <text stroke="none" x="362.0" y="470.0" font-size="20.0" font-family="helvetica"> Williamsia maris SJS0289lJS1T (AB010909)</text>
    </g>
    <g>
     <circle stroke="black" stroke-width="0.5" fill="#aaffff" cx="363.0" cy="502.0" r="1.0"/>
     <text stroke="none" x="363.0" y="502.0" font-size="20.0" font-family="helvetica"> Gordonia soli CC-ABO77 (AY995560)</text>
    </g>
    <g>
     <circle stroke="black" stroke-width="0.5" fill="#aaffff" cx="364.0" cy="438.0" r="1.0"/>
     <text stroke="none" x="364.0" y="438.0" font-size="20.0" font-family="helvetica"> Williamsia muralis MA140l96T (Y17384)</text>
    </g>
    <g>
     <circle stroke="black" stroke-width="0.5" fill="#aaffff" cx="365.0" cy="887.0" r="1.0"/>
     <text stroke="none" x="365.0" y="887.0" font-size="20.0" font-family="helvetica"> Tsukamurella inchonensis ATCC 25938T (AF2B3282)</text>
    </g>
    <g>
     <circle stroke="black" stroke-width="0.5" fill="#aaffff" cx="366.0" cy="181.0" r="1.0"/>
     <text stroke="none" x="366.0" y="181.0" font-size="10.0" font-family="helvetica">NT1.38</text>
    </g>
    <g>
     <circle stroke="black" stroke-width="0.5" fill="#aaffff" cx="367.0" cy="406.0" r="1.0"/>
     <text stroke="none" x="367.0" y="406.0" font-size="10.0" font-family="helvetica">NT1.39</text>
    </g>
    <g>
     <circle stroke="black" stroke-width="0.5" fill="#aaffff" cx="369.0" cy="854.0" r="1.0"/>
     <text stroke="none" x="369.0" y="854.0" font-size="10.0" font-family="helvetica">NT1.40</text>
    </g>
    <g>
     <circle stroke="black" stroke-width="0.5" fill="#aaffff" cx="371.0" cy="615.0" r="1.0"/>
     <text stroke="none" x="371.0" y="615.0" font-size="20.0" font-family="helvetica">98</text>
    </g>
    <g>
     <circle stroke="black" stroke-width="0.5" fill="#aaffff" cx="372.0" cy="727.0" r="1.0"/>
     <text stroke="none" x="372.0" y="727.0" font-size="10.0" font-family="helvetica">NT1.42</text>
    </g>
    <g>
     <circle stroke="black" stroke-width="0.5" fill="#aaffff" cx="374.0" cy="678.0" r="1.0"/>
     <text stroke="none" x="374.0" y="678.0" font-size="10.0" font-family="helvetica">NT1.43</text>
    </g>
    <g>
     <circle stroke="black" stroke-width="0.5" fill="#aaffff" cx="377.0" cy="342.0" r="1.0"/>
     <text stroke="none" x="377.0" y="342.0" font-size="20.0" font-family="helvetica">Rhodococcus globerulus DSM 49547 (X80619)</text>
    </g>
    <g>
     <circle stroke="black" stroke-width="0.5" fill="#aaffff" cx="378.0" cy="534.0" r="1.0"/>
     <text stroke="none" x="378.0" y="534.0" font-size="20.0" font-family="helvetica">Gordonia bronchfalfs DSM 43247 (X79287)</text>
    </g>
    <g>
     <circle stroke="black" stroke-width="0.5" fill="#aaffff" cx="378.0" cy="935.0" r="1.0"/>
     <text stroke="none" x="378.0" y="935.0" font-size="20.0" font-family="helvetica">'</text>
    </g>
    <g>
     <circle stroke="black" stroke-width="0.5" fill="#aaffff" cx="382.0" cy="150.0" r="1.0"/>
     <text stroke="none" x="382.0" y="150.0" font-size="20.0" font-family="helvetica">Nocardia transvalensis ATCC 6865T (X80598)</text>
    </g>
    <g>
     <circle stroke="black" stroke-width="0.5" fill="#aaffff" cx="389.0" cy="662.0" r="1.0"/>
     <text stroke="none" x="389.0" y="662.0" font-size="10.0" font-family="helvetica">NT1.48</text>
    </g>
    <g>
     <circle stroke="black" stroke-width="0.5" fill="#aaffff" cx="391.0" cy="278.0" r="1.0"/>
     <text stroke="none" x="391.0" y="278.0" font-size="20.0" font-family="helvetica"> Rhodococcus fascians DSM 43673T (X79187)</text>
    </g>
    <g>
     <circle stroke="black" stroke-width="0.5" fill="#aaffff" cx="393.0" cy="310.0" r="1.0"/>
     <text stroke="none" x="393.0" y="310.0" font-size="10.0" font-family="helvetica">NT1.50</text>
    </g>
    <g>
     <circle stroke="black" stroke-width="0.5" fill="#aaffff" cx="394.0" cy="1070.0" r="1.0"/>
     <text stroke="none" x="394.0" y="1070.0" font-size="10.0" font-family="helvetica">NT1.51</text>
    </g>
    <g>
     <circle stroke="black" stroke-width="0.5" fill="#aaffff" cx="397.0" cy="631.0" r="1.0"/>
     <text stroke="none" x="397.0" y="631.0" font-size="10.0" font-family="helvetica">NT1.52</text>
    </g>
    <g>
     <circle stroke="black" stroke-width="0.5" fill="#aaffff" cx="398.0" cy="695.0" r="1.0"/>
     <text stroke="none" x="398.0" y="695.0" font-size="10.0" font-family="helvetica">NT1.53</text>
    </g>
    <g>
     <circle stroke="black" stroke-width="0.5" fill="#aaffff" cx="403.0" cy="214.0" r="1.0"/>
     <text stroke="none" x="403.0" y="214.0" font-size="20.0" font-family="helvetica">Nocardia brasiliensis ATCC 1929GT (236935)</text>
    </g>
    <g>
     <circle stroke="black" stroke-width="0.5" fill="#aaffff" cx="405.0" cy="246.0" r="1.0"/>
     <text stroke="none" x="405.0" y="246.0" font-size="20.0" font-family="helvetica">Rhodococcus kroppenstedtii K07-23T (AY726605)</text>
    </g>
    <g>
     <circle stroke="black" stroke-width="0.5" fill="#aaffff" cx="409.0" cy="598.0" r="1.0"/>
     <text stroke="none" x="409.0" y="598.0" font-size="20.0" font-family="helvetica"> Mycobacterium elephantis Fl-13900 (AJ536100)</text>
    </g>
    <g>
     <circle stroke="black" stroke-width="0.5" fill="#aaffff" cx="412.0" cy="86.0" r="1.0"/>
     <text stroke="none" x="412.0" y="86.0" font-size="20.0" font-family="helvetica">Nocardia mexicana OFN 785.81T (AY555577)</text>
    </g>
    <g>
     <circle stroke="black" stroke-width="0.5" fill="#aaffff" cx="422.0" cy="1094.0" r="1.0"/>
     <text stroke="none" x="422.0" y="1094.0" font-size="20.0" font-family="helvetica">77</text>
    </g>
    <g>
     <circle stroke="black" stroke-width="0.5" fill="#aaffff" cx="423.0" cy="567.0" r="1.0"/>
     <text stroke="none" x="423.0" y="567.0" font-size="20.0" font-family="helvetica">Gordonia hydrophobica DSM 44015 (X87340)</text>
    </g>
    <g>
     <circle stroke="black" stroke-width="0.5" fill="#aaffff" cx="425.0" cy="374.0" r="1.0"/>
     <text stroke="none" x="425.0" y="374.0" font-size="20.0" font-family="helvetica">Smaragdicoccus niigatensis Hou_blueT (AB243007)</text>
    </g>
    <g>
     <circle stroke="black" stroke-width="0.5" fill="#aaffff" cx="431.0" cy="919.0" r="1.0"/>
     <text stroke="none" x="431.0" y="919.0" font-size="10.0" font-family="helvetica">NT1.61</text>
    </g>
    <g>
     <circle stroke="black" stroke-width="0.5" fill="#aaffff" cx="434.0" cy="823.0" r="1.0"/>
     <text stroke="none" x="434.0" y="823.0" font-size="10.0" font-family="helvetica">NT1.62</text>
    </g>
    <g>
     <circle stroke="black" stroke-width="0.5" fill="#aaffff" cx="438.0" cy="22.0" r="1.0"/>
     <text stroke="none" x="438.0" y="22.0" font-size="20.0" font-family="helvetica">Nocardia seriolae JCM 3360T (236925)</text>
    </g>
    <g>
     <circle stroke="black" stroke-width="0.5" fill="#aaffff" cx="438.0" cy="999.0" r="1.0"/>
     <text stroke="none" x="438.0" y="999.0" font-size="20.0" font-family="helvetica">996</text>
    </g>
    <g>
     <circle stroke="black" stroke-width="0.5" fill="#aaffff" cx="439.0" cy="54.0" r="1.0"/>
     <text stroke="none" x="439.0" y="54.0" font-size="20.0" font-family="helvetica">Nocardia crassostreae NB4HT (237989)</text>
    </g>
    <g>
     <circle stroke="black" stroke-width="0.5" fill="#aaffff" cx="446.0" cy="118.0" r="1.0"/>
     <text stroke="none" x="446.0" y="118.0" font-size="20.0" font-family="helvetica">Nocardia ninae OFN 02.727 (DQ235687)</text>
    </g>
    <g>
     <circle stroke="black" stroke-width="0.5" fill="#aaffff" cx="450.0" cy="951.0" r="1.0"/>
     <text stroke="none" x="450.0" y="951.0" font-size="20.0" font-family="helvetica">Dietzia maris DSM 43672T (X79290)</text>
    </g>
    <g>
     <circle stroke="black" stroke-width="0.5" fill="#aaffff" cx="477.0" cy="758.0" r="1.0"/>
     <text stroke="none" x="477.0" y="758.0" font-size="20.0" font-family="helvetica">Mycobacterium xenopi DSM 43995) (AJ536033)</text>
    </g>
    <g>
     <circle stroke="black" stroke-width="0.5" fill="#aaffff" cx="493.0" cy="791.0" r="1.0"/>
     <text stroke="none" x="493.0" y="791.0" font-size="20.0" font-family="helvetica">Mycobacterium hassiacum DSM 44199T (U49401)</text>
    </g>
    <g>
     <circle stroke="black" stroke-width="0.5" fill="#aaffff" cx="515.0" cy="1015.0" r="1.0"/>
     <text stroke="none" x="515.0" y="1015.0" font-size="20.0" font-family="helvetica">Corynebacterium amycolatum DSM 6922T (X82057)</text>
    </g>
    <g>
     <circle stroke="black" stroke-width="0.5" fill="#aaffff" cx="542.0" cy="982.0" r="1.0"/>
     <text stroke="none" x="542.0" y="982.0" font-size="10.0" font-family="helvetica">NT1.71</text>
    </g>
    <g>
     <circle stroke="black" stroke-width="0.5" fill="#aaffff" cx="623.0" cy="1047.0" r="1.0"/>
     <text stroke="none" x="623.0" y="1047.0" font-size="10.0" font-family="helvetica">NT1.72</text>
    </g>
    <g>
     <circle stroke="black" stroke-width="0.5" fill="#aaffff" cx="624.0" cy="1078.0" r="1.0"/>
     <text stroke="none" x="624.0" y="1078.0" font-size="20.0" font-family="helvetica">Corynebacterium mycetoides DSM 2O832T (X82066)</text>
    </g>
    <g>
     <circle stroke="black" stroke-width="0.5" fill="#aaffff" cx="732.0" cy="1111.0" r="1.0"/>
     <text stroke="none" x="732.0" y="1111.0" font-size="10.0" font-family="helvetica">NT1.74</text>
    </g>
    <g>
     <circle stroke="black" stroke-width="0.5" fill="#aaffff" cx="1.0" cy="864.0" r="1.0"/>
     <text stroke="none" x="1.0" y="864.0" font-size="10.0" font-family="helvetica">NT1.75</text>
    </g>
    <line stroke="black" x1="438.0" y1="22.0" x2="345.0" y2="38.0" stroke-width="0.5"/>
    <line stroke="black" x1="439.0" y1="54.0" x2="345.0" y2="38.0" stroke-width="0.5"/>
    <line stroke="black" x1="412.0" y1="86.0" x2="313.0" y2="86.0" stroke-width="0.5"/>
    <line stroke="black" x1="446.0" y1="118.0" x2="313.0" y2="86.0" stroke-width="0.5"/>
    <line stroke="black" x1="382.0" y1="150.0" x2="310.0" y2="173.0" stroke-width="0.5"/>
    <line stroke="black" x1="403.0" y1="214.0" x2="316.0" y2="197.0" stroke-width="0.5"/>
    <line stroke="black" x1="405.0" y1="246.0" x2="246.0" y2="273.0" stroke-width="0.5"/>
    <line stroke="black" x1="377.0" y1="342.0" x2="329.0" y2="326.0" stroke-width="0.5"/>
    <line stroke="black" x1="391.0" y1="278.0" x2="282.0" y2="302.0" stroke-width="0.5"/>
    <line stroke="black" x1="362.0" y1="470.0" x2="285.0" y2="455.0" stroke-width="0.5"/>
    <line stroke="black" x1="364.0" y1="438.0" x2="285.0" y2="455.0" stroke-width="0.5"/>
    <line stroke="black" x1="363.0" y1="502.0" x2="291.0" y2="526.0" stroke-width="0.5"/>
    <line stroke="black" x1="425.0" y1="374.0" x2="203.0" y2="391.0" stroke-width="0.5"/>
    <line stroke="black" x1="378.0" y1="534.0" x2="297.0" y2="550.0" stroke-width="0.5"/>
    <line stroke="black" x1="423.0" y1="567.0" x2="297.0" y2="550.0" stroke-width="0.5"/>
    <line stroke="black" x1="365.0" y1="887.0" x2="351.0" y2="871.0" stroke-width="0.5"/>
    <line stroke="black" x1="450.0" y1="951.0" x2="378.0" y2="935.0" stroke-width="0.5"/>
    <line stroke="black" x1="409.0" y1="598.0" x2="371.0" y2="615.0" stroke-width="0.5"/>
    <line stroke="black" x1="477.0" y1="758.0" x2="357.0" y2="774.0" stroke-width="0.5"/>
    <line stroke="black" x1="493.0" y1="791.0" x2="357.0" y2="774.0" stroke-width="0.5"/>
    <line stroke="black" x1="515.0" y1="1015.0" x2="438.0" y2="999.0" stroke-width="0.5"/>
    <line stroke="black" x1="624.0" y1="1078.0" x2="422.0" y2="1094.0" stroke-width="0.5"/>
    <line stroke="black" x1="345.0" y1="38.0" x2="311.0" y2="78.0" stroke-width="0.5"/>
    <line stroke="black" x1="311.0" y1="78.0" x2="313.0" y2="86.0" stroke-width="0.5"/>
    <line stroke="black" x1="285.0" y1="126.0" x2="214.0" y2="200.0" stroke-width="0.5"/>
    <line stroke="black" x1="285.0" y1="126.0" x2="310.0" y2="173.0" stroke-width="0.5"/>
    <line stroke="black" x1="214.0" y1="200.0" x2="189.0" y2="313.0" stroke-width="0.5"/>
    <line stroke="black" x1="214.0" y1="200.0" x2="246.0" y2="273.0" stroke-width="0.5"/>
    <line stroke="black" x1="246.0" y1="273.0" x2="282.0" y2="302.0" stroke-width="0.5"/>
    <line stroke="black" x1="189.0" y1="313.0" x2="159.0" y2="586.0" stroke-width="0.5"/>
    <line stroke="black" x1="189.0" y1="313.0" x2="195.0" y2="440.0" stroke-width="0.5"/>
    <line stroke="black" x1="195.0" y1="440.0" x2="235.0" y2="490.0" stroke-width="0.5"/>
    <line stroke="black" x1="235.0" y1="490.0" x2="291.0" y2="526.0" stroke-width="0.5"/>
    <line stroke="black" x1="235.0" y1="490.0" x2="285.0" y2="455.0" stroke-width="0.5"/>
    <line stroke="black" x1="159.0" y1="586.0" x2="186.0" y2="851.0" stroke-width="0.5"/>
    <line stroke="black" x1="291.0" y1="526.0" x2="297.0" y2="550.0" stroke-width="0.5"/>
    <line stroke="black" x1="186.0" y1="851.0" x2="202.0" y2="927.0" stroke-width="0.5"/>
    <line stroke="black" x1="202.0" y1="927.0" x2="229.0" y2="984.0" stroke-width="0.5"/>
    <line stroke="black" x1="264.0" y1="777.0" x2="297.0" y2="731.0" stroke-width="0.5"/>
    <line stroke="black" x1="229.0" y1="984.0" x2="355.0" y2="1034.0" stroke-width="0.5"/>
    <line stroke="black" x1="297.0" y1="731.0" x2="357.0" y2="774.0" stroke-width="0.5"/>
    <line stroke="black" x1="1.0" y1="864.0" x2="342.0" y2="1143.0" stroke-width="0.5"/>
    <line stroke="black" x1="1.0" y1="864.0" x2="159.0" y2="586.0" stroke-width="0.5"/>
    <line stroke="black" x1="311.0" y1="78.0" x2="285.0" y2="126.0" stroke-width="0.5"/>
   </g>
  </g>
 </svg>
</svg>
