<?xml version="1.0" encoding="UTF-8"?>
<svg height="800.0" width="700.0" xmlns="http://www.w3.org/2000/svg">
 <svg>
  <g>
   <g>
    <g>
     <circle stroke="black" stroke-width="0.5" fill="#aaffff" cx="220.0" cy="1128.0" r="1.0"/>
     <text stroke="none" x="220.0" y="1128.0" font-size="20.0" font-family="helvetica">Zymomonas mobilis ATCC 10988T (AF086792)</text>
    </g>
    <g>
     <circle stroke="black" stroke-width="0.5" fill="#aaffff" cx="229.0" cy="990.0" r="1.0"/>
     <text stroke="none" x="229.0" y="990.0" font-size="10.0" font-family="helvetica">NT1.2</text>
    </g>
    <g>
     <circle stroke="black" stroke-width="0.5" fill="#aaffff" cx="247.0" cy="907.0" r="1.0"/>
     <text stroke="none" x="247.0" y="907.0" font-size="10.0" font-family="helvetica">NT1.3</text>
    </g>
    <g>
     <circle stroke="black" stroke-width="0.5" fill="#aaffff" cx="283.0" cy="801.0" r="1.0"/>
     <text stroke="none" x="283.0" y="801.0" font-size="10.0" font-family="helvetica">NT1.4</text>
    </g>
    <g>
     <circle stroke="black" stroke-width="0.5" fill="#aaffff" cx="297.0" cy="717.0" r="1.0"/>
     <text stroke="none" x="297.0" y="717.0" font-size="10.0" font-family="helvetica">NT1.5</text>
    </g>
    <g>
     <circle stroke="black" stroke-width="0.5" fill="#aaffff" cx="332.0" cy="656.0" r="1.0"/>
     <text stroke="none" x="332.0" y="656.0" font-size="10.0" font-family="helvetica">NT1.6</text>
    </g>
    <g>
     <circle stroke="black" stroke-width="0.5" fill="#aaffff" cx="345.0" cy="880.0" r="1.0"/>
     <text stroke="none" x="345.0" y="880.0" font-size="10.0" font-family="helvetica">NT1.7</text>
    </g>
    <g>
     <circle stroke="black" stroke-width="0.5" fill="#aaffff" cx="414.0" cy="589.0" r="1.0"/>
     <text stroke="none" x="414.0" y="589.0" font-size="20.0" font-family="helvetica">99</text>
    </g>
    <g>
     <circle stroke="black" stroke-width="0.5" fill="#aaffff" cx="438.0" cy="513.0" r="1.0"/>
     <text stroke="none" x="438.0" y="513.0" font-size="20.0" font-family="helvetica">78</text>
    </g>
    <g>
     <circle stroke="black" stroke-width="0.5" fill="#aaffff" cx="463.0" cy="422.0" r="1.0"/>
     <text stroke="none" x="463.0" y="422.0" font-size="10.0" font-family="helvetica">NT1.10</text>
    </g>
    <g>
     <circle stroke="black" stroke-width="0.5" fill="#aaffff" cx="484.0" cy="778.0" r="1.0"/>
     <text stroke="none" x="484.0" y="778.0" font-size="20.0" font-family="helvetica">Sphingomonas suberifaciens IFO 15211T (D13737)</text>
    </g>
    <g>
     <circle stroke="black" stroke-width="0.5" fill="#aaffff" cx="484.0" cy="326.0" r="1.0"/>
     <text stroke="none" x="484.0" y="326.0" font-size="10.0" font-family="helvetica">NT1.12</text>
    </g>
    <g>
     <circle stroke="black" stroke-width="0.5" fill="#aaffff" cx="502.0" cy="1071.0" r="1.0"/>
     <text stroke="none" x="502.0" y="1071.0" font-size="20.0" font-family="helvetica">Sphingopyxis macrogoltabida IFO 150337 (D13723)</text>
    </g>
    <g>
     <circle stroke="black" stroke-width="0.5" fill="#aaffff" cx="509.0" cy="511.0" r="1.0"/>
     <text stroke="none" x="509.0" y="511.0" font-size="20.0" font-family="helvetica">68</text>
    </g>
    <g>
     <circle stroke="black" stroke-width="0.5" fill="#aaffff" cx="512.0" cy="254.0" r="1.0"/>
     <text stroke="none" x="512.0" y="254.0" font-size="10.0" font-family="helvetica">NT1.15</text>
    </g>
    <g>
     <circle stroke="black" stroke-width="0.5" fill="#aaffff" cx="522.0" cy="1012.0" r="1.0"/>
     <text stroke="none" x="522.0" y="1012.0" font-size="10.0" font-family="helvetica">NT1.16</text>
    </g>
    <g>
     <circle stroke="black" stroke-width="0.5" fill="#aaffff" cx="534.0" cy="396.0" r="1.0"/>
     <text stroke="none" x="534.0" y="396.0" font-size="10.0" font-family="helvetica">NT1.17</text>
    </g>
    <g>
     <circle stroke="black" stroke-width="0.5" fill="#aaffff" cx="552.0" cy="922.0" r="1.0"/>
     <text stroke="none" x="552.0" y="922.0" font-size="20.0" font-family="helvetica">100</text>
    </g>
    <g>
     <circle stroke="black" stroke-width="0.5" fill="#aaffff" cx="553.0" cy="893.0" r="1.0"/>
     <text stroke="none" x="553.0" y="893.0" font-size="20.0" font-family="helvetica">Blastomonas nataforia DSM 3183T (ABO24288)</text>
    </g>
    <g>
     <circle stroke="black" stroke-width="0.5" fill="#aaffff" cx="553.0" cy="953.0" r="1.0"/>
     <text stroke="none" x="553.0" y="953.0" font-size="10.0" font-family="helvetica">NT1.20</text>
    </g>
    <g>
     <circle stroke="black" stroke-width="0.5" fill="#aaffff" cx="583.0" cy="198.0" r="1.0"/>
     <text stroke="none" x="583.0" y="198.0" font-size="20.0" font-family="helvetica">97</text>
    </g>
    <g>
     <circle stroke="black" stroke-width="0.5" fill="#aaffff" cx="591.0" cy="485.0" r="1.0"/>
     <text stroke="none" x="591.0" y="485.0" font-size="20.0" font-family="helvetica">Sphingobium cloacae JCM 1O874T (AB040739)</text>
    </g>
    <g>
     <circle stroke="black" stroke-width="0.5" fill="#aaffff" cx="591.0" cy="141.0" r="1.0"/>
     <text stroke="none" x="591.0" y="141.0" font-size="10.0" font-family="helvetica">NT1.23</text>
    </g>
    <g>
     <circle stroke="black" stroke-width="0.5" fill="#aaffff" cx="593.0" cy="601.0" r="1.0"/>
     <text stroke="none" x="593.0" y="601.0" font-size="20.0" font-family="helvetica">Sphingobium fuliginis MTCC 7295T (DQ092757)</text>
    </g>
    <g>
     <circle stroke="black" stroke-width="0.5" fill="#aaffff" cx="603.0" cy="367.0" r="1.0"/>
     <text stroke="none" x="603.0" y="367.0" font-size="10.0" font-family="helvetica">NT1.25</text>
    </g>
    <g>
     <circle stroke="black" stroke-width="0.5" fill="#aaffff" cx="603.0" cy="660.0" r="1.0"/>
     <text stroke="none" x="603.0" y="660.0" font-size="20.0" font-family="helvetica">Sphingobium xenophagum DSM 63837 (X94098)</text>
    </g>
    <g>
     <circle stroke="black" stroke-width="0.5" fill="#aaffff" cx="627.0" cy="89.0" r="1.0"/>
     <text stroke="none" x="627.0" y="89.0" font-size="20.0" font-family="helvetica">100</text>
    </g>
    <g>
     <circle stroke="black" stroke-width="0.5" fill="#aaffff" cx="637.0" cy="544.0" r="1.0"/>
     <text stroke="none" x="637.0" y="544.0" font-size="20.0" font-family="helvetica">Sphingobium ummariense RL-3T (EF207155)</text>
    </g>
    <g>
     <circle stroke="black" stroke-width="0.5" fill="#aaffff" cx="638.0" cy="251.0" r="1.0"/>
     <text stroke="none" x="638.0" y="251.0" font-size="20.0" font-family="helvetica">Sphingobium chlorophenolicum ATCC 3379OT (X87161)</text>
    </g>
    <g>
     <circle stroke="black" stroke-width="0.5" fill="#aaffff" cx="646.0" cy="45.0" r="1.0"/>
     <text stroke="none" x="646.0" y="45.0" font-size="20.0" font-family="helvetica">39</text>
    </g>
    <g>
     <circle stroke="black" stroke-width="0.5" fill="#aaffff" cx="647.0" cy="426.0" r="1.0"/>
     <text stroke="none" x="647.0" y="426.0" font-size="20.0" font-family="helvetica">Sphingobium yanoikuyae GIFU 9882T (D16145)</text>
    </g>
    <g>
     <circle stroke="black" stroke-width="0.5" fill="#aaffff" cx="658.0" cy="308.0" r="1.0"/>
     <text stroke="none" x="658.0" y="308.0" font-size="20.0" font-family="helvetica">Sphingobium herbicidovorans DSM 11O19T (ABO42233)</text>
    </g>
    <g>
     <circle stroke="black" stroke-width="0.5" fill="#aaffff" cx="658.0" cy="834.0" r="1.0"/>
     <text stroke="none" x="658.0" y="834.0" font-size="20.0" font-family="helvetica">Novosphingobium capsulatum GIFU 11526T (D16147)</text>
    </g>
    <g>
     <circle stroke="black" stroke-width="0.5" fill="#aaffff" cx="663.0" cy="15.0" r="1.0"/>
     <text stroke="none" x="663.0" y="15.0" font-size="20.0" font-family="helvetica">Sphingobium japonioum MTCC 63627 (AF039168)</text>
    </g>
    <g>
     <circle stroke="black" stroke-width="0.5" fill="#aaffff" cx="665.0" cy="192.0" r="1.0"/>
     <text stroke="none" x="665.0" y="192.0" font-size="20.0" font-family="helvetica">Sphingobium chungbukense KCTC 2955T (AF159257)</text>
    </g>
    <g>
     <circle stroke="black" stroke-width="0.5" fill="#aaffff" cx="677.0" cy="133.0" r="1.0"/>
     <text stroke="none" x="677.0" y="133.0" font-size="10.0" font-family="helvetica">NT1.36</text>
    </g>
    <g>
     <circle stroke="black" stroke-width="0.5" fill="#aaffff" cx="682.0" cy="74.0" r="1.0"/>
     <text stroke="none" x="682.0" y="74.0" font-size="20.0" font-family="helvetica">Sphingobium indicum MTCC 6364T (AY519129)</text>
    </g>
    <g>
     <circle stroke="black" stroke-width="0.5" fill="#aaffff" cx="744.0" cy="719.0" r="1.0"/>
     <text stroke="none" x="744.0" y="719.0" font-size="20.0" font-family="helvetica">Sphingomonas paucimobilis GIFU 2395T (D16144)</text>
    </g>
    <line stroke="black" x1="665.0" y1="192.0" x2="591.0" y2="141.0" stroke-width="0.5"/>
    <line stroke="black" x1="658.0" y1="308.0" x2="512.0" y2="254.0" stroke-width="0.5"/>
    <line stroke="black" x1="647.0" y1="426.0" x2="534.0" y2="396.0" stroke-width="0.5"/>
    <line stroke="black" x1="591.0" y1="485.0" x2="509.0" y2="511.0" stroke-width="0.5"/>
    <line stroke="black" x1="593.0" y1="601.0" x2="438.0" y2="513.0" stroke-width="0.5"/>
    <line stroke="black" x1="603.0" y1="660.0" x2="414.0" y2="589.0" stroke-width="0.5"/>
    <line stroke="black" x1="484.0" y1="778.0" x2="297.0" y2="717.0" stroke-width="0.5"/>
    <line stroke="black" x1="553.0" y1="893.0" x2="552.0" y2="922.0" stroke-width="0.5"/>
    <line stroke="black" x1="658.0" y1="834.0" x2="345.0" y2="880.0" stroke-width="0.5"/>
    <line stroke="black" x1="502.0" y1="1071.0" x2="229.0" y2="990.0" stroke-width="0.5"/>
    <line stroke="black" x1="220.0" y1="1128.0" x2="229.0" y2="990.0" stroke-width="0.5"/>
    <line stroke="black" x1="646.0" y1="45.0" x2="627.0" y2="89.0" stroke-width="0.5"/>
    <line stroke="black" x1="591.0" y1="141.0" x2="583.0" y2="198.0" stroke-width="0.5"/>
    <line stroke="black" x1="583.0" y1="198.0" x2="512.0" y2="254.0" stroke-width="0.5"/>
    <line stroke="black" x1="512.0" y1="254.0" x2="484.0" y2="326.0" stroke-width="0.5"/>
    <line stroke="black" x1="484.0" y1="326.0" x2="463.0" y2="422.0" stroke-width="0.5"/>
    <line stroke="black" x1="463.0" y1="422.0" x2="438.0" y2="513.0" stroke-width="0.5"/>
    <line stroke="black" x1="463.0" y1="422.0" x2="509.0" y2="511.0" stroke-width="0.5"/>
    <line stroke="black" x1="438.0" y1="513.0" x2="414.0" y2="589.0" stroke-width="0.5"/>
    <line stroke="black" x1="414.0" y1="589.0" x2="332.0" y2="656.0" stroke-width="0.5"/>
    <line stroke="black" x1="332.0" y1="656.0" x2="297.0" y2="717.0" stroke-width="0.5"/>
    <line stroke="black" x1="297.0" y1="717.0" x2="283.0" y2="801.0" stroke-width="0.5"/>
    <line stroke="black" x1="283.0" y1="801.0" x2="247.0" y2="907.0" stroke-width="0.5"/>
    <line stroke="black" x1="283.0" y1="801.0" x2="345.0" y2="880.0" stroke-width="0.5"/>
    <line stroke="black" x1="744.0" y1="719.0" x2="332.0" y2="656.0" stroke-width="0.5"/>
    <line stroke="black" x1="637.0" y1="544.0" x2="509.0" y2="511.0" stroke-width="0.5"/>
    <line stroke="black" x1="638.0" y1="251.0" x2="583.0" y2="198.0" stroke-width="0.5"/>
    <line stroke="black" x1="663.0" y1="15.0" x2="646.0" y2="45.0" stroke-width="0.5"/>
    <line stroke="black" x1="682.0" y1="74.0" x2="646.0" y2="45.0" stroke-width="0.5"/>
   </g>
  </g>
 </svg>
</svg>
