<?xml version="1.0" encoding="UTF-8"?>
<svg height="800.0" width="700.0" xmlns="http://www.w3.org/2000/svg">
 <svg>
  <g>
   <g>
    <g>
     <circle stroke="black" stroke-width="0.5" fill="#aaffff" cx="61.0" cy="833.0" r="1.0"/>
     <text stroke="none" x="61.0" y="833.0" font-size="10.0" font-family="helvetica">NT1.1</text>
    </g>
    <g>
     <circle stroke="black" stroke-width="0.5" fill="#aaffff" cx="67.0" cy="569.0" r="1.0"/>
     <text stroke="none" x="67.0" y="569.0" font-size="10.0" font-family="helvetica">NT1.2</text>
    </g>
    <g>
     <circle stroke="black" stroke-width="0.5" fill="#aaffff" cx="72.0" cy="611.0" r="1.0"/>
     <text stroke="none" x="72.0" y="611.0" font-size="10.0" font-family="helvetica">NT1.3</text>
    </g>
    <g>
     <circle stroke="black" stroke-width="0.5" fill="#aaffff" cx="108.0" cy="460.0" r="1.0"/>
     <text stroke="none" x="108.0" y="460.0" font-size="10.0" font-family="helvetica">NT1.4</text>
    </g>
    <g>
     <circle stroke="black" stroke-width="0.5" fill="#aaffff" cx="185.0" cy="302.0" r="1.0"/>
     <text stroke="none" x="185.0" y="302.0" font-size="10.0" font-family="helvetica">NT1.5</text>
    </g>
    <g>
     <circle stroke="black" stroke-width="0.5" fill="#aaffff" cx="193.0" cy="365.0" r="1.0"/>
     <text stroke="none" x="193.0" y="365.0" font-size="10.0" font-family="helvetica">NT1.6</text>
    </g>
    <g>
     <circle stroke="black" stroke-width="0.5" fill="#aaffff" cx="214.0" cy="642.0" r="1.0"/>
     <text stroke="none" x="214.0" y="642.0" font-size="10.0" font-family="helvetica">NT1.7</text>
    </g>
    <g>
     <circle stroke="black" stroke-width="0.5" fill="#aaffff" cx="216.0" cy="646.0" r="1.0"/>
     <text stroke="none" x="216.0" y="646.0" font-size="10.0" font-family="helvetica">NT1.8</text>
    </g>
    <g>
     <circle stroke="black" stroke-width="0.5" fill="#aaffff" cx="222.0" cy="646.0" r="1.0"/>
     <text stroke="none" x="222.0" y="646.0" font-size="10.0" font-family="helvetica">NT1.9</text>
    </g>
    <g>
     <circle stroke="black" stroke-width="0.5" fill="#aaffff" cx="228.0" cy="221.0" r="1.0"/>
     <text stroke="none" x="228.0" y="221.0" font-size="10.0" font-family="helvetica">NT1.10</text>
    </g>
    <g>
     <circle stroke="black" stroke-width="0.5" fill="#aaffff" cx="252.0" cy="116.0" r="1.0"/>
     <text stroke="none" x="252.0" y="116.0" font-size="10.0" font-family="helvetica">NT1.11</text>
    </g>
    <g>
     <circle stroke="black" stroke-width="0.5" fill="#aaffff" cx="253.0" cy="504.0" r="1.0"/>
     <text stroke="none" x="253.0" y="504.0" font-size="10.0" font-family="helvetica">NT1.12</text>
    </g>
    <g>
     <circle stroke="black" stroke-width="0.5" fill="#aaffff" cx="272.0" cy="66.0" r="1.0"/>
     <text stroke="none" x="272.0" y="66.0" font-size="10.0" font-family="helvetica">NT1.13</text>
    </g>
    <g>
     <circle stroke="black" stroke-width="0.5" fill="#aaffff" cx="273.0" cy="101.0" r="1.0"/>
     <text stroke="none" x="273.0" y="101.0" font-size="10.0" font-family="helvetica">NT1.14</text>
    </g>
    <g>
     <circle stroke="black" stroke-width="0.5" fill="#aaffff" cx="274.0" cy="98.0" r="1.0"/>
     <text stroke="none" x="274.0" y="98.0" font-size="10.0" font-family="helvetica">NT1.15</text>
    </g>
    <g>
     <circle stroke="black" stroke-width="0.5" fill="#aaffff" cx="279.0" cy="454.0" r="1.0"/>
     <text stroke="none" x="279.0" y="454.0" font-size="10.0" font-family="helvetica">NT1.16</text>
    </g>
    <g>
     <circle stroke="black" stroke-width="0.5" fill="#aaffff" cx="285.0" cy="465.0" r="1.0"/>
     <text stroke="none" x="285.0" y="465.0" font-size="10.0" font-family="helvetica">NT1.17</text>
    </g>
    <g>
     <circle stroke="black" stroke-width="0.5" fill="#aaffff" cx="291.0" cy="326.0" r="1.0"/>
     <text stroke="none" x="291.0" y="326.0" font-size="20.0" font-family="helvetica">98</text>
    </g>
    <g>
     <circle stroke="black" stroke-width="0.5" fill="#aaffff" cx="293.0" cy="165.0" r="1.0"/>
     <text stroke="none" x="293.0" y="165.0" font-size="10.0" font-family="helvetica">NT1.19</text>
    </g>
    <g>
     <circle stroke="black" stroke-width="0.5" fill="#aaffff" cx="312.0" cy="288.0" r="1.0"/>
     <text stroke="none" x="312.0" y="288.0" font-size="20.0" font-family="helvetica">30</text>
    </g>
    <g>
     <circle stroke="black" stroke-width="0.5" fill="#aaffff" cx="316.0" cy="243.0" r="1.0"/>
     <text stroke="none" x="316.0" y="243.0" font-size="10.0" font-family="helvetica">NT1.21</text>
    </g>
    <g>
     <circle stroke="black" stroke-width="0.5" fill="#aaffff" cx="316.0" cy="676.0" r="1.0"/>
     <text stroke="none" x="316.0" y="676.0" font-size="20.0" font-family="helvetica">Vibrio vulnificus ATCC 275627 (X74726)</text>
    </g>
    <g>
     <circle stroke="black" stroke-width="0.5" fill="#aaffff" cx="318.0" cy="165.0" r="1.0"/>
     <text stroke="none" x="318.0" y="165.0" font-size="10.0" font-family="helvetica">NT1.23</text>
    </g>
    <g>
     <circle stroke="black" stroke-width="0.5" fill="#aaffff" cx="320.0" cy="499.0" r="1.0"/>
     <text stroke="none" x="320.0" y="499.0" font-size="20.0" font-family="helvetica">Vibrio wodanis NCIMB 135827 (AJ132227)</text>
    </g>
    <g>
     <circle stroke="black" stroke-width="0.5" fill="#aaffff" cx="325.0" cy="231.0" r="1.0"/>
     <text stroke="none" x="325.0" y="231.0" font-size="10.0" font-family="helvetica">NT1.25</text>
    </g>
    <g>
     <circle stroke="black" stroke-width="0.5" fill="#aaffff" cx="326.0" cy="35.0" r="1.0"/>
     <text stroke="none" x="326.0" y="35.0" font-size="20.0" font-family="helvetica">100</text>
    </g>
    <g>
     <circle stroke="black" stroke-width="0.5" fill="#aaffff" cx="326.0" cy="433.0" r="1.0"/>
     <text stroke="none" x="326.0" y="433.0" font-size="10.0" font-family="helvetica">NT1.27</text>
    </g>
    <g>
     <circle stroke="black" stroke-width="0.5" fill="#aaffff" cx="327.0" cy="249.0" r="1.0"/>
     <text stroke="none" x="327.0" y="249.0" font-size="10.0" font-family="helvetica">NT1.28</text>
    </g>
    <g>
     <circle stroke="black" stroke-width="0.5" fill="#aaffff" cx="328.0" cy="33.0" r="1.0"/>
     <text stroke="none" x="328.0" y="33.0" font-size="20.0" font-family="helvetica">100</text>
    </g>
    <g>
     <circle stroke="black" stroke-width="0.5" fill="#aaffff" cx="329.0" cy="609.0" r="1.0"/>
     <text stroke="none" x="329.0" y="609.0" font-size="20.0" font-family="helvetica">100</text>
    </g>
    <g>
     <circle stroke="black" stroke-width="0.5" fill="#aaffff" cx="333.0" cy="434.0" r="1.0"/>
     <text stroke="none" x="333.0" y="434.0" font-size="10.0" font-family="helvetica">NT1.31</text>
    </g>
    <g>
     <circle stroke="black" stroke-width="0.5" fill="#aaffff" cx="334.0" cy="587.0" r="1.0"/>
     <text stroke="none" x="334.0" y="587.0" font-size="20.0" font-family="helvetica">Vibrio ordalii ATCC 335097 (X74718)</text>
    </g>
    <g>
     <circle stroke="black" stroke-width="0.5" fill="#aaffff" cx="335.0" cy="33.0" r="1.0"/>
     <text stroke="none" x="335.0" y="33.0" font-size="10.0" font-family="helvetica">NT1.33</text>
    </g>
    <g>
     <circle stroke="black" stroke-width="0.5" fill="#aaffff" cx="335.0" cy="608.0" r="1.0"/>
     <text stroke="none" x="335.0" y="608.0" font-size="10.0" font-family="helvetica">NT1.34</text>
    </g>
    <g>
     <circle stroke="black" stroke-width="0.5" fill="#aaffff" cx="338.0" cy="251.0" r="1.0"/>
     <text stroke="none" x="338.0" y="251.0" font-size="10.0" font-family="helvetica">NT1.35</text>
    </g>
    <g>
     <circle stroke="black" stroke-width="0.5" fill="#aaffff" cx="341.0" cy="632.0" r="1.0"/>
     <text stroke="none" x="341.0" y="632.0" font-size="20.0" font-family="helvetica">Vibrio anguillarum ATCC 12964T (X16895)</text>
    </g>
    <g>
     <circle stroke="black" stroke-width="0.5" fill="#aaffff" cx="342.0" cy="720.0" r="1.0"/>
     <text stroke="none" x="342.0" y="720.0" font-size="20.0" font-family="helvetica">Vibrio chalerae ATCC 140357 (X74694)</text>
    </g>
    <g>
     <circle stroke="black" stroke-width="0.5" fill="#aaffff" cx="345.0" cy="410.0" r="1.0"/>
     <text stroke="none" x="345.0" y="410.0" font-size="20.0" font-family="helvetica">Vibrio logei ATCC 15382 (X74708)</text>
    </g>
    <g>
     <circle stroke="black" stroke-width="0.5" fill="#aaffff" cx="348.0" cy="231.0" r="1.0"/>
     <text stroke="none" x="348.0" y="231.0" font-size="10.0" font-family="helvetica">NT1.39</text>
    </g>
    <g>
     <circle stroke="black" stroke-width="0.5" fill="#aaffff" cx="352.0" cy="12.0" r="1.0"/>
     <text stroke="none" x="352.0" y="12.0" font-size="10.0" font-family="helvetica">NT1.40</text>
    </g>
    <g>
     <circle stroke="black" stroke-width="0.5" fill="#aaffff" cx="361.0" cy="455.0" r="1.0"/>
     <text stroke="none" x="361.0" y="455.0" font-size="20.0" font-family="helvetica">Vibrio salmonicida ATCC 43839T (X70643)</text>
    </g>
    <g>
     <circle stroke="black" stroke-width="0.5" fill="#aaffff" cx="362.0" cy="56.0" r="1.0"/>
     <text stroke="none" x="362.0" y="56.0" font-size="20.0" font-family="helvetica">Photobacterium iliopiscarium ATCC 517607 (AB000278)</text>
    </g>
    <g>
     <circle stroke="black" stroke-width="0.5" fill="#aaffff" cx="368.0" cy="98.0" r="1.0"/>
     <text stroke="none" x="368.0" y="98.0" font-size="20.0" font-family="helvetica">Photobacterium angustum ATCC 259157 (D25307)</text>
    </g>
    <g>
     <circle stroke="black" stroke-width="0.5" fill="#aaffff" cx="368.0" cy="277.0" r="1.0"/>
     <text stroke="none" x="368.0" y="277.0" font-size="20.0" font-family="helvetica">Photobacterium indicum NBRC 14233T (AB159513)</text>
    </g>
    <g>
     <circle stroke="black" stroke-width="0.5" fill="#aaffff" cx="374.0" cy="543.0" r="1.0"/>
     <text stroke="none" x="374.0" y="543.0" font-size="20.0" font-family="helvetica">Vibrio ischeri ATCC 77447 (X74702)</text>
    </g>
    <g>
     <circle stroke="black" stroke-width="0.5" fill="#aaffff" cx="379.0" cy="142.0" r="1.0"/>
     <text stroke="none" x="379.0" y="142.0" font-size="20.0" font-family="helvetica">Photobacterium leiognathi ATCC 255217 (D25309)</text>
    </g>
    <g>
     <circle stroke="black" stroke-width="0.5" fill="#aaffff" cx="384.0" cy="320.0" r="1.0"/>
     <text stroke="none" x="384.0" y="320.0" font-size="20.0" font-family="helvetica">Photobacterium profundum JCM 1oos4T (D21226)</text>
    </g>
    <g>
     <circle stroke="black" stroke-width="0.5" fill="#aaffff" cx="384.0" cy="787.0" r="1.0"/>
     <text stroke="none" x="384.0" y="787.0" font-size="20.0" font-family="helvetica">100</text>
    </g>
    <g>
     <circle stroke="black" stroke-width="0.5" fill="#aaffff" cx="397.0" cy="366.0" r="1.0"/>
     <text stroke="none" x="397.0" y="366.0" font-size="10.0" font-family="helvetica">NT1.49</text>
    </g>
    <g>
     <circle stroke="black" stroke-width="0.5" fill="#aaffff" cx="428.0" cy="785.0" r="1.0"/>
     <text stroke="none" x="428.0" y="785.0" font-size="10.0" font-family="helvetica">NT1.50</text>
    </g>
    <g>
     <circle stroke="black" stroke-width="0.5" fill="#aaffff" cx="450.0" cy="888.0" r="1.0"/>
     <text stroke="none" x="450.0" y="888.0" font-size="10.0" font-family="helvetica">NT1.51</text>
    </g>
    <g>
     <circle stroke="black" stroke-width="0.5" fill="#aaffff" cx="457.0" cy="878.0" r="1.0"/>
     <text stroke="none" x="457.0" y="878.0" font-size="10.0" font-family="helvetica">NT1.52</text>
    </g>
    <g>
     <circle stroke="black" stroke-width="0.5" fill="#aaffff" cx="480.0" cy="943.0" r="1.0"/>
     <text stroke="none" x="480.0" y="943.0" font-size="20.0" font-family="helvetica">Escherichia coli ATCC 11775T (X80725)</text>
    </g>
    <g>
     <circle stroke="black" stroke-width="0.5" fill="#aaffff" cx="483.0" cy="810.0" r="1.0"/>
     <text stroke="none" x="483.0" y="810.0" font-size="10.0" font-family="helvetica">NT1.54</text>
    </g>
    <g>
     <circle stroke="black" stroke-width="0.5" fill="#aaffff" cx="487.0" cy="764.0" r="1.0"/>
     <text stroke="none" x="487.0" y="764.0" font-size="20.0" font-family="helvetica">Shewanella baltica NCTC 107357 (AJ000214)</text>
    </g>
    <g>
     <circle stroke="black" stroke-width="0.5" fill="#aaffff" cx="489.0" cy="899.0" r="1.0"/>
     <text stroke="none" x="489.0" y="899.0" font-size="10.0" font-family="helvetica">NT1.56</text>
    </g>
    <g>
     <circle stroke="black" stroke-width="0.5" fill="#aaffff" cx="501.0" cy="854.0" r="1.0"/>
     <text stroke="none" x="501.0" y="854.0" font-size="20.0" font-family="helvetica">Aeromonas hydrophila ATCC 79667 (X74677)</text>
    </g>
    <g>
     <circle stroke="black" stroke-width="0.5" fill="#aaffff" cx="513.0" cy="188.0" r="1.0"/>
     <text stroke="none" x="513.0" y="188.0" font-size="10.0" font-family="helvetica">NT1.58</text>
    </g>
    <g>
     <circle stroke="black" stroke-width="0.5" fill="#aaffff" cx="7.0" cy="722.0" r="1.0"/>
     <text stroke="none" x="7.0" y="722.0" font-size="10.0" font-family="helvetica">NT1.59</text>
    </g>
    <line stroke="black" x1="362.0" y1="56.0" x2="326.0" y2="35.0" stroke-width="0.5"/>
    <line stroke="black" x1="368.0" y1="98.0" x2="274.0" y2="98.0" stroke-width="0.5"/>
    <line stroke="black" x1="379.0" y1="142.0" x2="293.0" y2="165.0" stroke-width="0.5"/>
    <line stroke="black" x1="368.0" y1="277.0" x2="327.0" y2="249.0" stroke-width="0.5"/>
    <line stroke="black" x1="320.0" y1="499.0" x2="279.0" y2="454.0" stroke-width="0.5"/>
    <line stroke="black" x1="345.0" y1="410.0" x2="326.0" y2="433.0" stroke-width="0.5"/>
    <line stroke="black" x1="316.0" y1="676.0" x2="216.0" y2="646.0" stroke-width="0.5"/>
    <line stroke="black" x1="334.0" y1="587.0" x2="329.0" y2="609.0" stroke-width="0.5"/>
    <line stroke="black" x1="341.0" y1="632.0" x2="329.0" y2="609.0" stroke-width="0.5"/>
    <line stroke="black" x1="342.0" y1="720.0" x2="67.0" y2="569.0" stroke-width="0.5"/>
    <line stroke="black" x1="487.0" y1="764.0" x2="384.0" y2="787.0" stroke-width="0.5"/>
    <line stroke="black" x1="501.0" y1="854.0" x2="450.0" y2="888.0" stroke-width="0.5"/>
    <line stroke="black" x1="480.0" y1="943.0" x2="61.0" y2="833.0" stroke-width="0.5"/>
    <line stroke="black" x1="272.0" y1="66.0" x2="252.0" y2="116.0" stroke-width="0.5"/>
    <line stroke="black" x1="252.0" y1="116.0" x2="228.0" y2="221.0" stroke-width="0.5"/>
    <line stroke="black" x1="228.0" y1="221.0" x2="185.0" y2="302.0" stroke-width="0.5"/>
    <line stroke="black" x1="108.0" y1="460.0" x2="214.0" y2="642.0" stroke-width="0.5"/>
    <line stroke="black" x1="108.0" y1="460.0" x2="67.0" y2="569.0" stroke-width="0.5"/>
    <line stroke="black" x1="253.0" y1="504.0" x2="279.0" y2="454.0" stroke-width="0.5"/>
    <line stroke="black" x1="279.0" y1="454.0" x2="326.0" y2="433.0" stroke-width="0.5"/>
    <line stroke="black" x1="214.0" y1="642.0" x2="329.0" y2="609.0" stroke-width="0.5"/>
    <line stroke="black" x1="7.0" y1="722.0" x2="67.0" y2="569.0" stroke-width="0.5"/>
    <line stroke="black" x1="7.0" y1="722.0" x2="61.0" y2="833.0" stroke-width="0.5"/>
    <line stroke="black" x1="185.0" y1="302.0" x2="108.0" y2="460.0" stroke-width="0.5"/>
    <line stroke="black" x1="185.0" y1="302.0" x2="253.0" y2="504.0" stroke-width="0.5"/>
    <line stroke="black" x1="374.0" y1="543.0" x2="253.0" y2="504.0" stroke-width="0.5"/>
    <line stroke="black" x1="291.0" y1="326.0" x2="312.0" y2="288.0" stroke-width="0.5"/>
    <line stroke="black" x1="361.0" y1="455.0" x2="326.0" y2="433.0" stroke-width="0.5"/>
    <line stroke="black" x1="384.0" y1="320.0" x2="312.0" y2="288.0" stroke-width="0.5"/>
   </g>
  </g>
 </svg>
</svg>
