<?xml version="1.0" encoding="UTF-8"?>
<svg height="800.0" width="700.0" xmlns="http://www.w3.org/2000/svg">
 <svg>
  <g>
   <g>
    <g>
     <circle stroke="black" stroke-width="0.5" fill="#aaffff" cx="18.0" cy="265.0" r="1.0"/>
     <text stroke="none" x="18.0" y="265.0" font-size="10.0" font-family="helvetica">NT1.1</text>
    </g>
    <g>
     <circle stroke="black" stroke-width="0.5" fill="#aaffff" cx="27.0" cy="472.0" r="1.0"/>
     <text stroke="none" x="27.0" y="472.0" font-size="10.0" font-family="helvetica">NT1.2</text>
    </g>
    <g>
     <circle stroke="black" stroke-width="0.5" fill="#aaffff" cx="51.0" cy="664.0" r="1.0"/>
     <text stroke="none" x="51.0" y="664.0" font-size="10.0" font-family="helvetica">NT1.3</text>
    </g>
    <g>
     <circle stroke="black" stroke-width="0.5" fill="#aaffff" cx="66.0" cy="785.0" r="1.0"/>
     <text stroke="none" x="66.0" y="785.0" font-size="10.0" font-family="helvetica">NT1.4</text>
    </g>
    <g>
     <circle stroke="black" stroke-width="0.5" fill="#aaffff" cx="82.0" cy="545.0" r="1.0"/>
     <text stroke="none" x="82.0" y="545.0" font-size="10.0" font-family="helvetica">NT1.5</text>
    </g>
    <g>
     <circle stroke="black" stroke-width="0.5" fill="#aaffff" cx="112.0" cy="847.0" r="1.0"/>
     <text stroke="none" x="112.0" y="847.0" font-size="10.0" font-family="helvetica">NT1.6</text>
    </g>
    <g>
     <circle stroke="black" stroke-width="0.5" fill="#aaffff" cx="117.0" cy="281.0" r="1.0"/>
     <text stroke="none" x="117.0" y="281.0" font-size="10.0" font-family="helvetica">NT1.7</text>
    </g>
    <g>
     <circle stroke="black" stroke-width="0.5" fill="#aaffff" cx="144.0" cy="593.0" r="1.0"/>
     <text stroke="none" x="144.0" y="593.0" font-size="10.0" font-family="helvetica">NT1.8</text>
    </g>
    <g>
     <circle stroke="black" stroke-width="0.5" fill="#aaffff" cx="174.0" cy="370.0" r="1.0"/>
     <text stroke="none" x="174.0" y="370.0" font-size="10.0" font-family="helvetica">NT1.9</text>
    </g>
    <g>
     <circle stroke="black" stroke-width="0.5" fill="#aaffff" cx="174.0" cy="910.0" r="1.0"/>
     <text stroke="none" x="174.0" y="910.0" font-size="10.0" font-family="helvetica">NT1.10</text>
    </g>
    <g>
     <circle stroke="black" stroke-width="0.5" fill="#aaffff" cx="211.0" cy="496.0" r="1.0"/>
     <text stroke="none" x="211.0" y="496.0" font-size="10.0" font-family="helvetica">NT1.11</text>
    </g>
    <g>
     <circle stroke="black" stroke-width="0.5" fill="#aaffff" cx="213.0" cy="870.0" r="1.0"/>
     <text stroke="none" x="213.0" y="870.0" font-size="10.0" font-family="helvetica">NT1.12</text>
    </g>
    <g>
     <circle stroke="black" stroke-width="0.5" fill="#aaffff" cx="214.0" cy="951.0" r="1.0"/>
     <text stroke="none" x="214.0" y="951.0" font-size="10.0" font-family="helvetica">NT1.13</text>
    </g>
    <g>
     <circle stroke="black" stroke-width="0.5" fill="#aaffff" cx="222.0" cy="190.0" r="1.0"/>
     <text stroke="none" x="222.0" y="190.0" font-size="10.0" font-family="helvetica">NT1.14</text>
    </g>
    <g>
     <circle stroke="black" stroke-width="0.5" fill="#aaffff" cx="235.0" cy="412.0" r="1.0"/>
     <text stroke="none" x="235.0" y="412.0" font-size="10.0" font-family="helvetica">NT1.15</text>
    </g>
    <g>
     <circle stroke="black" stroke-width="0.5" fill="#aaffff" cx="241.0" cy="331.0" r="1.0"/>
     <text stroke="none" x="241.0" y="331.0" font-size="10.0" font-family="helvetica">NT1.16</text>
    </g>
    <g>
     <circle stroke="black" stroke-width="0.5" fill="#aaffff" cx="260.0" cy="630.0" r="1.0"/>
     <text stroke="none" x="260.0" y="630.0" font-size="10.0" font-family="helvetica">NT1.17</text>
    </g>
    <g>
     <circle stroke="black" stroke-width="0.5" fill="#aaffff" cx="271.0" cy="245.0" r="1.0"/>
     <text stroke="none" x="271.0" y="245.0" font-size="10.0" font-family="helvetica">NT1.18</text>
    </g>
    <g>
     <circle stroke="black" stroke-width="0.5" fill="#aaffff" cx="313.0" cy="787.0" r="1.0"/>
     <text stroke="none" x="313.0" y="787.0" font-size="10.0" font-family="helvetica">NT1.19</text>
    </g>
    <g>
     <circle stroke="black" stroke-width="0.5" fill="#aaffff" cx="318.0" cy="433.0" r="1.0"/>
     <text stroke="none" x="318.0" y="433.0" font-size="20.0" font-family="helvetica">C. indologenes ATCC 298977 (M58773)</text>
    </g>
    <g>
     <circle stroke="black" stroke-width="0.5" fill="#aaffff" cx="319.0" cy="392.0" r="1.0"/>
     <text stroke="none" x="319.0" y="392.0" font-size="20.0" font-family="helvetica">C. gleum ATCC 359107 (M58772)</text>
    </g>
    <g>
     <circle stroke="black" stroke-width="0.5" fill="#aaffff" cx="321.0" cy="661.0" r="1.0"/>
     <text stroke="none" x="321.0" y="661.0" font-size="10.0" font-family="helvetica">NT1.22</text>
    </g>
    <g>
     <circle stroke="black" stroke-width="0.5" fill="#aaffff" cx="323.0" cy="599.0" r="1.0"/>
     <text stroke="none" x="323.0" y="599.0" font-size="20.0" font-family="helvetica">0. scophthalmum LMG 130287 (AJ271009)</text>
    </g>
    <g>
     <circle stroke="black" stroke-width="0.5" fill="#aaffff" cx="334.0" cy="724.0" r="1.0"/>
     <text stroke="none" x="334.0" y="724.0" font-size="20.0" font-family="helvetica">C. formosense CC-H3-27 (AY315443)</text>
    </g>
    <g>
     <circle stroke="black" stroke-width="0.5" fill="#aaffff" cx="345.0" cy="18.0" r="1.0"/>
     <text stroke="none" x="345.0" y="18.0" font-size="20.0" font-family="helvetica">C. caeni N47 (DQ336714)</text>
    </g>
    <g>
     <circle stroke="black" stroke-width="0.5" fill="#aaffff" cx="352.0" cy="133.0" r="1.0"/>
     <text stroke="none" x="352.0" y="133.0" font-size="10.0" font-family="helvetica">NT1.26</text>
    </g>
    <g>
     <circle stroke="black" stroke-width="0.5" fill="#aaffff" cx="353.0" cy="558.0" r="1.0"/>
     <text stroke="none" x="353.0" y="558.0" font-size="20.0" font-family="helvetica">C. indaltheticum ATCC 279507 (M58774)</text>
    </g>
    <g>
     <circle stroke="black" stroke-width="0.5" fill="#aaffff" cx="359.0" cy="162.0" r="1.0"/>
     <text stroke="none" x="359.0" y="162.0" font-size="10.0" font-family="helvetica">NT1.28</text>
    </g>
    <g>
     <circle stroke="black" stroke-width="0.5" fill="#aaffff" cx="360.0" cy="142.0" r="1.0"/>
     <text stroke="none" x="360.0" y="142.0" font-size="20.0" font-family="helvetica"/>
    </g>
    <g>
     <circle stroke="black" stroke-width="0.5" fill="#aaffff" cx="360.0" cy="185.0" r="1.0"/>
     <text stroke="none" x="360.0" y="185.0" font-size="20.0" font-family="helvetica">C. Iuteum P 538113 (AM489611)</text>
    </g>
    <g>
     <circle stroke="black" stroke-width="0.5" fill="#aaffff" cx="371.0" cy="309.0" r="1.0"/>
     <text stroke="none" x="371.0" y="309.0" font-size="20.0" font-family="helvetica">C. joostei LMG 182127 (AJ271010)</text>
    </g>
    <g>
     <circle stroke="black" stroke-width="0.5" fill="#aaffff" cx="374.0" cy="226.0" r="1.0"/>
     <text stroke="none" x="374.0" y="226.0" font-size="20.0" font-family="helvetica">C. shigense GUM-Kaji7 (AB193101)</text>
    </g>
    <g>
     <circle stroke="black" stroke-width="0.5" fill="#aaffff" cx="379.0" cy="641.0" r="1.0"/>
     <text stroke="none" x="379.0" y="641.0" font-size="20.0" font-family="helvetica">C. piscium LMG 230897 (AM040439)</text>
    </g>
    <g>
     <circle stroke="black" stroke-width="0.5" fill="#aaffff" cx="382.0" cy="683.0" r="1.0"/>
     <text stroke="none" x="382.0" y="683.0" font-size="20.0" font-family="helvetica">C. balustinum ATCC 334877 (M58771)</text>
    </g>
    <g>
     <circle stroke="black" stroke-width="0.5" fill="#aaffff" cx="390.0" cy="475.0" r="1.0"/>
     <text stroke="none" x="390.0" y="475.0" font-size="20.0" font-family="helvetica">C. soldanellicola PSD1-47 (AY883415)</text>
    </g>
    <g>
     <circle stroke="black" stroke-width="0.5" fill="#aaffff" cx="392.0" cy="350.0" r="1.0"/>
     <text stroke="none" x="392.0" y="350.0" font-size="20.0" font-family="helvetica">7C. ginsengisolf Gsoil 183 (AB245372)</text>
    </g>
    <g>
     <circle stroke="black" stroke-width="0.5" fill="#aaffff" cx="392.0" cy="101.0" r="1.0"/>
     <text stroke="none" x="392.0" y="101.0" font-size="20.0" font-family="helvetica">C. Iuteum P 528I18 (AM489610)</text>
    </g>
    <g>
     <circle stroke="black" stroke-width="0.5" fill="#aaffff" cx="393.0" cy="973.0" r="1.0"/>
     <text stroke="none" x="393.0" y="973.0" font-size="20.0" font-family="helvetica">C. daecheongense CPW4067 (AJ457206)</text>
    </g>
    <g>
     <circle stroke="black" stroke-width="0.5" fill="#aaffff" cx="404.0" cy="890.0" r="1.0"/>
     <text stroke="none" x="404.0" y="890.0" font-size="20.0" font-family="helvetica">C. taiwanense BCRC 174127 (DQ318789)</text>
    </g>
    <g>
     <circle stroke="black" stroke-width="0.5" fill="#aaffff" cx="432.0" cy="932.0" r="1.0"/>
     <text stroke="none" x="432.0" y="932.0" font-size="20.0" font-family="helvetica">C. defluvii B27 (AJ309324)</text>
    </g>
    <g>
     <circle stroke="black" stroke-width="0.5" fill="#aaffff" cx="432.0" cy="848.0" r="1.0"/>
     <text stroke="none" x="432.0" y="848.0" font-size="20.0" font-family="helvetica">C. wanjuense R2A10-27 (DQ256729)</text>
    </g>
    <g>
     <circle stroke="black" stroke-width="0.5" fill="#aaffff" cx="450.0" cy="267.0" r="1.0"/>
     <text stroke="none" x="450.0" y="267.0" font-size="20.0" font-family="helvetica">C. vrystaatense LMG 228467 (AJ871397)</text>
    </g>
    <g>
     <circle stroke="black" stroke-width="0.5" fill="#aaffff" cx="451.0" cy="60.0" r="1.0"/>
     <text stroke="none" x="451.0" y="60.0" font-size="20.0" font-family="helvetica">C. hispanicum VP487 (AM159183)</text>
    </g>
    <g>
     <circle stroke="black" stroke-width="0.5" fill="#aaffff" cx="473.0" cy="807.0" r="1.0"/>
     <text stroke="none" x="473.0" y="807.0" font-size="20.0" font-family="helvetica">C. taichungense CC-TWGS1-87 (AJ843132)</text>
    </g>
    <g>
     <circle stroke="black" stroke-width="0.5" fill="#aaffff" cx="514.0" cy="766.0" r="1.0"/>
     <text stroke="none" x="514.0" y="766.0" font-size="20.0" font-family="helvetica">C. taeanense PHA3-47 (AY883416)</text>
    </g>
    <g>
     <circle stroke="black" stroke-width="0.5" fill="#aaffff" cx="528.0" cy="516.0" r="1.0"/>
     <text stroke="none" x="528.0" y="516.0" font-size="20.0" font-family="helvetica">7C. proteoIyticum7 PERM P-17664 (AB039830)</text>
    </g>
    <line stroke="black" x1="319.0" y1="392.0" x2="235.0" y2="412.0" stroke-width="0.5"/>
    <line stroke="black" x1="360.0" y1="142.0" x2="359.0" y2="162.0" stroke-width="0.5"/>
    <line stroke="black" x1="360.0" y1="185.0" x2="359.0" y2="162.0" stroke-width="0.5"/>
    <line stroke="black" x1="432.0" y1="848.0" x2="213.0" y2="870.0" stroke-width="0.5"/>
    <line stroke="black" x1="514.0" y1="766.0" x2="313.0" y2="787.0" stroke-width="0.5"/>
    <line stroke="black" x1="18.0" y1="265.0" x2="27.0" y2="472.0" stroke-width="0.5"/>
    <line stroke="black" x1="27.0" y1="472.0" x2="51.0" y2="664.0" stroke-width="0.5"/>
    <line stroke="black" x1="27.0" y1="472.0" x2="117.0" y2="281.0" stroke-width="0.5"/>
    <line stroke="black" x1="51.0" y1="664.0" x2="66.0" y2="785.0" stroke-width="0.5"/>
    <line stroke="black" x1="51.0" y1="664.0" x2="82.0" y2="545.0" stroke-width="0.5"/>
    <line stroke="black" x1="117.0" y1="281.0" x2="174.0" y2="370.0" stroke-width="0.5"/>
    <line stroke="black" x1="117.0" y1="281.0" x2="222.0" y2="190.0" stroke-width="0.5"/>
    <line stroke="black" x1="66.0" y1="785.0" x2="112.0" y2="847.0" stroke-width="0.5"/>
    <line stroke="black" x1="82.0" y1="545.0" x2="144.0" y2="593.0" stroke-width="0.5"/>
    <line stroke="black" x1="82.0" y1="545.0" x2="211.0" y2="496.0" stroke-width="0.5"/>
    <line stroke="black" x1="174.0" y1="370.0" x2="235.0" y2="412.0" stroke-width="0.5"/>
    <line stroke="black" x1="174.0" y1="370.0" x2="241.0" y2="331.0" stroke-width="0.5"/>
    <line stroke="black" x1="112.0" y1="847.0" x2="174.0" y2="910.0" stroke-width="0.5"/>
    <line stroke="black" x1="112.0" y1="847.0" x2="313.0" y2="787.0" stroke-width="0.5"/>
    <line stroke="black" x1="144.0" y1="593.0" x2="260.0" y2="630.0" stroke-width="0.5"/>
    <line stroke="black" x1="222.0" y1="190.0" x2="271.0" y2="245.0" stroke-width="0.5"/>
    <line stroke="black" x1="222.0" y1="190.0" x2="352.0" y2="133.0" stroke-width="0.5"/>
    <line stroke="black" x1="174.0" y1="910.0" x2="214.0" y2="951.0" stroke-width="0.5"/>
    <line stroke="black" x1="174.0" y1="910.0" x2="213.0" y2="870.0" stroke-width="0.5"/>
    <line stroke="black" x1="260.0" y1="630.0" x2="321.0" y2="661.0" stroke-width="0.5"/>
    <line stroke="black" x1="352.0" y1="133.0" x2="359.0" y2="162.0" stroke-width="0.5"/>
    <line stroke="black" x1="334.0" y1="724.0" x2="66.0" y2="785.0" stroke-width="0.5"/>
    <line stroke="black" x1="451.0" y1="60.0" x2="18.0" y2="265.0" stroke-width="0.5"/>
    <line stroke="black" x1="345.0" y1="18.0" x2="18.0" y2="265.0" stroke-width="0.5"/>
    <line stroke="black" x1="353.0" y1="558.0" x2="144.0" y2="593.0" stroke-width="0.5"/>
    <line stroke="black" x1="318.0" y1="433.0" x2="235.0" y2="412.0" stroke-width="0.5"/>
    <line stroke="black" x1="390.0" y1="475.0" x2="211.0" y2="496.0" stroke-width="0.5"/>
    <line stroke="black" x1="393.0" y1="973.0" x2="214.0" y2="951.0" stroke-width="0.5"/>
    <line stroke="black" x1="404.0" y1="890.0" x2="213.0" y2="870.0" stroke-width="0.5"/>
    <line stroke="black" x1="323.0" y1="599.0" x2="260.0" y2="630.0" stroke-width="0.5"/>
    <line stroke="black" x1="371.0" y1="309.0" x2="241.0" y2="331.0" stroke-width="0.5"/>
    <line stroke="black" x1="432.0" y1="932.0" x2="214.0" y2="951.0" stroke-width="0.5"/>
    <line stroke="black" x1="392.0" y1="350.0" x2="241.0" y2="331.0" stroke-width="0.5"/>
    <line stroke="black" x1="374.0" y1="226.0" x2="271.0" y2="245.0" stroke-width="0.5"/>
    <line stroke="black" x1="528.0" y1="516.0" x2="211.0" y2="496.0" stroke-width="0.5"/>
    <line stroke="black" x1="450.0" y1="267.0" x2="271.0" y2="245.0" stroke-width="0.5"/>
    <line stroke="black" x1="379.0" y1="641.0" x2="321.0" y2="661.0" stroke-width="0.5"/>
    <line stroke="black" x1="382.0" y1="683.0" x2="321.0" y2="661.0" stroke-width="0.5"/>
    <line stroke="black" x1="392.0" y1="101.0" x2="352.0" y2="133.0" stroke-width="0.5"/>
    <line stroke="black" x1="473.0" y1="807.0" x2="313.0" y2="787.0" stroke-width="0.5"/>
   </g>
  </g>
 </svg>
</svg>
