<?xml version="1.0" encoding="UTF-8"?>
<svg height="800.0" width="700.0" xmlns="http://www.w3.org/2000/svg">
 <svg>
  <g>
   <g>
    <g>
     <circle stroke="black" stroke-width="0.5" fill="#aaffff" cx="393.0" cy="35.0" r="1.0"/>
     <text stroke="none" x="393.0" y="35.0" font-size="20.0" font-family="helvetica">86</text>
    </g>
    <g>
     <circle stroke="black" stroke-width="0.5" fill="#aaffff" cx="413.0" cy="187.0" r="1.0"/>
     <text stroke="none" x="413.0" y="187.0" font-size="10.0" font-family="helvetica">NT1.2</text>
    </g>
    <g>
     <circle stroke="black" stroke-width="0.5" fill="#aaffff" cx="461.0" cy="231.0" r="1.0"/>
     <text stroke="none" x="461.0" y="231.0" font-size="10.0" font-family="helvetica">NT1.3</text>
    </g>
    <g>
     <circle stroke="black" stroke-width="0.5" fill="#aaffff" cx="500.0" cy="50.0" r="1.0"/>
     <text stroke="none" x="500.0" y="50.0" font-size="20.0" font-family="helvetica">Nitrosospira multiformis C-717 (X90822)</text>
    </g>
    <g>
     <circle stroke="black" stroke-width="0.5" fill="#aaffff" cx="507.0" cy="429.0" r="1.0"/>
     <text stroke="none" x="507.0" y="429.0" font-size="10.0" font-family="helvetica">NT1.5</text>
    </g>
    <g>
     <circle stroke="black" stroke-width="0.5" fill="#aaffff" cx="598.0" cy="346.0" r="1.0"/>
     <text stroke="none" x="598.0" y="346.0" font-size="10.0" font-family="helvetica">NT1.6</text>
    </g>
    <g>
     <circle stroke="black" stroke-width="0.5" fill="#aaffff" cx="600.0" cy="18.0" r="1.0"/>
     <text stroke="none" x="600.0" y="18.0" font-size="20.0" font-family="helvetica">Nitrosomonas europaea ATCC 25978T (L08050)</text>
    </g>
    <g>
     <circle stroke="black" stroke-width="0.5" fill="#aaffff" cx="614.0" cy="458.0" r="1.0"/>
     <text stroke="none" x="614.0" y="458.0" font-size="10.0" font-family="helvetica">NT1.8</text>
    </g>
    <g>
     <circle stroke="black" stroke-width="0.5" fill="#aaffff" cx="639.0" cy="367.0" r="1.0"/>
     <text stroke="none" x="639.0" y="367.0" font-size="10.0" font-family="helvetica">NT1.9</text>
    </g>
    <g>
     <circle stroke="black" stroke-width="0.5" fill="#aaffff" cx="648.0" cy="95.0" r="1.0"/>
     <text stroke="none" x="648.0" y="95.0" font-size="10.0" font-family="helvetica">NT1.10</text>
    </g>
    <g>
     <circle stroke="black" stroke-width="0.5" fill="#aaffff" cx="678.0" cy="523.0" r="1.0"/>
     <text stroke="none" x="678.0" y="523.0" font-size="10.0" font-family="helvetica">NT1.11</text>
    </g>
    <g>
     <circle stroke="black" stroke-width="0.5" fill="#aaffff" cx="680.0" cy="535.0" r="1.0"/>
     <text stroke="none" x="680.0" y="535.0" font-size="10.0" font-family="helvetica">NT1.12</text>
    </g>
    <g>
     <circle stroke="black" stroke-width="0.5" fill="#aaffff" cx="683.0" cy="277.0" r="1.0"/>
     <text stroke="none" x="683.0" y="277.0" font-size="10.0" font-family="helvetica">NT1.13</text>
    </g>
    <g>
     <circle stroke="black" stroke-width="0.5" fill="#aaffff" cx="707.0" cy="588.0" r="1.0"/>
     <text stroke="none" x="707.0" y="588.0" font-size="10.0" font-family="helvetica">NT1.14</text>
    </g>
    <g>
     <circle stroke="black" stroke-width="0.5" fill="#aaffff" cx="725.0" cy="352.0" r="1.0"/>
     <text stroke="none" x="725.0" y="352.0" font-size="20.0" font-family="helvetica">Methylococcus capsulatus Bath (L40804)</text>
    </g>
    <g>
     <circle stroke="black" stroke-width="0.5" fill="#aaffff" cx="738.0" cy="489.0" r="1.0"/>
     <text stroke="none" x="738.0" y="489.0" font-size="10.0" font-family="helvetica">NT1.16</text>
    </g>
    <g>
     <circle stroke="black" stroke-width="0.5" fill="#aaffff" cx="742.0" cy="535.0" r="1.0"/>
     <text stroke="none" x="742.0" y="535.0" font-size="20.0" font-family="helvetica">Methylomicrobium buryatense 5B7 (AF307139)</text>
    </g>
    <g>
     <circle stroke="black" stroke-width="0.5" fill="#aaffff" cx="743.0" cy="610.0" r="1.0"/>
     <text stroke="none" x="743.0" y="610.0" font-size="10.0" font-family="helvetica">NT1.18</text>
    </g>
    <g>
     <circle stroke="black" stroke-width="0.5" fill="#aaffff" cx="747.0" cy="306.0" r="1.0"/>
     <text stroke="none" x="747.0" y="306.0" font-size="20.0" font-family="helvetica">98</text>
    </g>
    <g>
     <circle stroke="black" stroke-width="0.5" fill="#aaffff" cx="764.0" cy="260.0" r="1.0"/>
     <text stroke="none" x="764.0" y="260.0" font-size="10.0" font-family="helvetica">NT1.20</text>
    </g>
    <g>
     <circle stroke="black" stroke-width="0.5" fill="#aaffff" cx="766.0" cy="292.0" r="1.0"/>
     <text stroke="none" x="766.0" y="292.0" font-size="20.0" font-family="helvetica">Methylohalobius crimeensis 10KiT (AJ581836)</text>
    </g>
    <g>
     <circle stroke="black" stroke-width="0.5" fill="#aaffff" cx="766.0" cy="322.0" r="1.0"/>
     <text stroke="none" x="766.0" y="322.0" font-size="10.0" font-family="helvetica">NT1.22</text>
    </g>
    <g>
     <circle stroke="black" stroke-width="0.5" fill="#aaffff" cx="767.0" cy="626.0" r="1.0"/>
     <text stroke="none" x="767.0" y="626.0" font-size="10.0" font-family="helvetica">NT1.23</text>
    </g>
    <g>
     <circle stroke="black" stroke-width="0.5" fill="#aaffff" cx="773.0" cy="397.0" r="1.0"/>
     <text stroke="none" x="773.0" y="397.0" font-size="20.0" font-family="helvetica">90</text>
    </g>
    <g>
     <circle stroke="black" stroke-width="0.5" fill="#aaffff" cx="775.0" cy="155.0" r="1.0"/>
     <text stroke="none" x="775.0" y="155.0" font-size="10.0" font-family="helvetica">NT1.25</text>
    </g>
    <g>
     <circle stroke="black" stroke-width="0.5" fill="#aaffff" cx="778.0" cy="443.0" r="1.0"/>
     <text stroke="none" x="778.0" y="443.0" font-size="20.0" font-family="helvetica">Methylomicrobium album BG8T (U31654)</text>
    </g>
    <g>
     <circle stroke="black" stroke-width="0.5" fill="#aaffff" cx="790.0" cy="595.0" r="1.0"/>
     <text stroke="none" x="790.0" y="595.0" font-size="10.0" font-family="helvetica">NT1.27</text>
    </g>
    <g>
     <circle stroke="black" stroke-width="0.5" fill="#aaffff" cx="796.0" cy="412.0" r="1.0"/>
     <text stroke="none" x="796.0" y="412.0" font-size="20.0" font-family="helvetica">Methylocaldum tepidum LKBT (U89304)</text>
    </g>
    <g>
     <circle stroke="black" stroke-width="0.5" fill="#aaffff" cx="805.0" cy="229.0" r="1.0"/>
     <text stroke="none" x="805.0" y="229.0" font-size="20.0" font-family="helvetica">Nitrosococcus oceani C-1077 (AF047705)</text>
    </g>
    <g>
     <circle stroke="black" stroke-width="0.5" fill="#aaffff" cx="806.0" cy="565.0" r="1.0"/>
     <text stroke="none" x="806.0" y="565.0" font-size="20.0" font-family="helvetica">Methylomicrobium pelagicum IR1 (U31652)</text>
    </g>
    <g>
     <circle stroke="black" stroke-width="0.5" fill="#aaffff" cx="812.0" cy="473.0" r="1.0"/>
     <text stroke="none" x="812.0" y="473.0" font-size="10.0" font-family="helvetica">NT1.31</text>
    </g>
    <g>
     <circle stroke="black" stroke-width="0.5" fill="#aaffff" cx="818.0" cy="382.0" r="1.0"/>
     <text stroke="none" x="818.0" y="382.0" font-size="20.0" font-family="helvetica">Methylocaldum szegediense OR2T (U89303)</text>
    </g>
    <g>
     <circle stroke="black" stroke-width="0.5" fill="#aaffff" cx="838.0" cy="124.0" r="1.0"/>
     <text stroke="none" x="838.0" y="124.0" font-size="10.0" font-family="helvetica">NT1.33</text>
    </g>
    <g>
     <circle stroke="black" stroke-width="0.5" fill="#aaffff" cx="840.0" cy="503.0" r="1.0"/>
     <text stroke="none" x="840.0" y="503.0" font-size="20.0" font-family="helvetica">Methylomonas methanica S1 (U31653)</text>
    </g>
    <g>
     <circle stroke="black" stroke-width="0.5" fill="#aaffff" cx="851.0" cy="109.0" r="1.0"/>
     <text stroke="none" x="851.0" y="109.0" font-size="20.0" font-family="helvetica">Methylosinus sporium H1 b (AJ459023)</text>
    </g>
    <g>
     <circle stroke="black" stroke-width="0.5" fill="#aaffff" cx="902.0" cy="78.0" r="1.0"/>
     <text stroke="none" x="902.0" y="78.0" font-size="20.0" font-family="helvetica">Methylocapsa acidiphila B2T (AJ278727)</text>
    </g>
    <g>
     <circle stroke="black" stroke-width="0.5" fill="#aaffff" cx="907.0" cy="139.0" r="1.0"/>
     <text stroke="none" x="907.0" y="139.0" font-size="20.0" font-family="helvetica">Methylosinus trichosporium OB3bT (AF186586)</text>
    </g>
    <g>
     <circle stroke="black" stroke-width="0.5" fill="#aaffff" cx="915.0" cy="179.0" r="1.0"/>
     <text stroke="none" x="915.0" y="179.0" font-size="10.0" font-family="helvetica">NT1.38</text>
    </g>
    <g>
     <circle stroke="black" stroke-width="0.5" fill="#aaffff" cx="916.0" cy="200.0" r="1.0"/>
     <text stroke="none" x="916.0" y="200.0" font-size="20.0" font-family="helvetica">Methylocystis echinoides IMET 104917 (AJ459000)</text>
    </g>
    <g>
     <circle stroke="black" stroke-width="0.5" fill="#aaffff" cx="941.0" cy="169.0" r="1.0"/>
     <text stroke="none" x="941.0" y="169.0" font-size="20.0" font-family="helvetica">Methylocystis parvus OBBpT (U31651)</text>
    </g>
    <g>
     <circle stroke="black" stroke-width="0.5" fill="#aaffff" cx="5.0" cy="41.0" r="1.0"/>
     <text stroke="none" x="5.0" y="41.0" font-size="10.0" font-family="helvetica">NT1.41</text>
    </g>
    <line stroke="black" x1="600.0" y1="18.0" x2="393.0" y2="35.0" stroke-width="0.5"/>
    <line stroke="black" x1="805.0" y1="229.0" x2="461.0" y2="231.0" stroke-width="0.5"/>
    <line stroke="black" x1="742.0" y1="535.0" x2="680.0" y2="535.0" stroke-width="0.5"/>
    <line stroke="black" x1="916.0" y1="200.0" x2="915.0" y2="179.0" stroke-width="0.5"/>
    <line stroke="black" x1="766.0" y1="292.0" x2="747.0" y2="306.0" stroke-width="0.5"/>
    <line stroke="black" x1="941.0" y1="169.0" x2="915.0" y2="179.0" stroke-width="0.5"/>
    <line stroke="black" x1="806.0" y1="565.0" x2="707.0" y2="588.0" stroke-width="0.5"/>
    <line stroke="black" x1="818.0" y1="382.0" x2="773.0" y2="397.0" stroke-width="0.5"/>
    <line stroke="black" x1="413.0" y1="187.0" x2="461.0" y2="231.0" stroke-width="0.5"/>
    <line stroke="black" x1="507.0" y1="429.0" x2="614.0" y2="458.0" stroke-width="0.5"/>
    <line stroke="black" x1="507.0" y1="429.0" x2="598.0" y2="346.0" stroke-width="0.5"/>
    <line stroke="black" x1="648.0" y1="95.0" x2="775.0" y2="155.0" stroke-width="0.5"/>
    <line stroke="black" x1="614.0" y1="458.0" x2="678.0" y2="523.0" stroke-width="0.5"/>
    <line stroke="black" x1="775.0" y1="155.0" x2="838.0" y2="124.0" stroke-width="0.5"/>
    <line stroke="black" x1="775.0" y1="155.0" x2="915.0" y2="179.0" stroke-width="0.5"/>
    <line stroke="black" x1="598.0" y1="346.0" x2="639.0" y2="367.0" stroke-width="0.5"/>
    <line stroke="black" x1="639.0" y1="367.0" x2="773.0" y2="397.0" stroke-width="0.5"/>
    <line stroke="black" x1="678.0" y1="523.0" x2="680.0" y2="535.0" stroke-width="0.5"/>
    <line stroke="black" x1="738.0" y1="489.0" x2="840.0" y2="503.0" stroke-width="0.5"/>
    <line stroke="black" x1="838.0" y1="124.0" x2="851.0" y2="109.0" stroke-width="0.5"/>
    <line stroke="black" x1="773.0" y1="397.0" x2="796.0" y2="412.0" stroke-width="0.5"/>
    <line stroke="black" x1="413.0" y1="187.0" x2="5.0" y2="41.0" stroke-width="0.5"/>
    <line stroke="black" x1="393.0" y1="35.0" x2="5.0" y2="41.0" stroke-width="0.5"/>
    <line stroke="black" x1="461.0" y1="231.0" x2="507.0" y2="429.0" stroke-width="0.5"/>
    <line stroke="black" x1="500.0" y1="50.0" x2="393.0" y2="35.0" stroke-width="0.5"/>
    <line stroke="black" x1="413.0" y1="187.0" x2="648.0" y2="95.0" stroke-width="0.5"/>
    <line stroke="black" x1="725.0" y1="352.0" x2="639.0" y2="367.0" stroke-width="0.5"/>
    <line stroke="black" x1="778.0" y1="443.0" x2="614.0" y2="458.0" stroke-width="0.5"/>
    <line stroke="black" x1="902.0" y1="78.0" x2="648.0" y2="95.0" stroke-width="0.5"/>
    <line stroke="black" x1="907.0" y1="139.0" x2="838.0" y2="124.0" stroke-width="0.5"/>
   </g>
  </g>
 </svg>
</svg>
