<?xml version="1.0" encoding="UTF-8"?>
<svg height="800.0" width="700.0" xmlns="http://www.w3.org/2000/svg">
 <svg>
  <g>
   <g>
    <g>
     <circle stroke="black" stroke-width="0.5" fill="#aaffff" cx="484.0" cy="618.0" r="1.0"/>
     <text stroke="none" x="484.0" y="618.0" font-size="10.0" font-family="helvetica">NT1.1</text>
    </g>
    <g>
     <circle stroke="black" stroke-width="0.5" fill="#aaffff" cx="536.0" cy="406.0" r="1.0"/>
     <text stroke="none" x="536.0" y="406.0" font-size="10.0" font-family="helvetica">NT1.2</text>
    </g>
    <g>
     <circle stroke="black" stroke-width="0.5" fill="#aaffff" cx="571.0" cy="515.0" r="1.0"/>
     <text stroke="none" x="571.0" y="515.0" font-size="10.0" font-family="helvetica">NT1.3</text>
    </g>
    <g>
     <circle stroke="black" stroke-width="0.5" fill="#aaffff" cx="626.0" cy="571.0" r="1.0"/>
     <text stroke="none" x="626.0" y="571.0" font-size="10.0" font-family="helvetica">NT1.4</text>
    </g>
    <g>
     <circle stroke="black" stroke-width="0.5" fill="#aaffff" cx="654.0" cy="609.0" r="1.0"/>
     <text stroke="none" x="654.0" y="609.0" font-size="10.0" font-family="helvetica">NT1.5</text>
    </g>
    <g>
     <circle stroke="black" stroke-width="0.5" fill="#aaffff" cx="678.0" cy="296.0" r="1.0"/>
     <text stroke="none" x="678.0" y="296.0" font-size="10.0" font-family="helvetica">NT1.6</text>
    </g>
    <g>
     <circle stroke="black" stroke-width="0.5" fill="#aaffff" cx="678.0" cy="828.0" r="1.0"/>
     <text stroke="none" x="678.0" y="828.0" font-size="10.0" font-family="helvetica">NT1.7</text>
    </g>
    <g>
     <circle stroke="black" stroke-width="0.5" fill="#aaffff" cx="680.0" cy="460.0" r="1.0"/>
     <text stroke="none" x="680.0" y="460.0" font-size="10.0" font-family="helvetica">NT1.8</text>
    </g>
    <g>
     <circle stroke="black" stroke-width="0.5" fill="#aaffff" cx="698.0" cy="207.0" r="1.0"/>
     <text stroke="none" x="698.0" y="207.0" font-size="10.0" font-family="helvetica">NT1.9</text>
    </g>
    <g>
     <circle stroke="black" stroke-width="0.5" fill="#aaffff" cx="698.0" cy="909.0" r="1.0"/>
     <text stroke="none" x="698.0" y="909.0" font-size="10.0" font-family="helvetica">NT1.10</text>
    </g>
    <g>
     <circle stroke="black" stroke-width="0.5" fill="#aaffff" cx="705.0" cy="271.0" r="1.0"/>
     <text stroke="none" x="705.0" y="271.0" font-size="10.0" font-family="helvetica">NT1.11</text>
    </g>
    <g>
     <circle stroke="black" stroke-width="0.5" fill="#aaffff" cx="727.0" cy="142.0" r="1.0"/>
     <text stroke="none" x="727.0" y="142.0" font-size="10.0" font-family="helvetica">NT1.12</text>
    </g>
    <g>
     <circle stroke="black" stroke-width="0.5" fill="#aaffff" cx="737.0" cy="308.0" r="1.0"/>
     <text stroke="none" x="737.0" y="308.0" font-size="10.0" font-family="helvetica">NT1.13</text>
    </g>
    <g>
     <circle stroke="black" stroke-width="0.5" fill="#aaffff" cx="741.0" cy="748.0" r="1.0"/>
     <text stroke="none" x="741.0" y="748.0" font-size="10.0" font-family="helvetica">NT1.14</text>
    </g>
    <g>
     <circle stroke="black" stroke-width="0.5" fill="#aaffff" cx="742.0" cy="98.0" r="1.0"/>
     <text stroke="none" x="742.0" y="98.0" font-size="10.0" font-family="helvetica">NT1.15</text>
    </g>
    <g>
     <circle stroke="black" stroke-width="0.5" fill="#aaffff" cx="746.0" cy="959.0" r="1.0"/>
     <text stroke="none" x="746.0" y="959.0" font-size="10.0" font-family="helvetica">NT1.16</text>
    </g>
    <g>
     <circle stroke="black" stroke-width="0.5" fill="#aaffff" cx="751.0" cy="384.0" r="1.0"/>
     <text stroke="none" x="751.0" y="384.0" font-size="20.0" font-family="helvetica">Micromonospora carbonacea DSM 431687 (X92599)</text>
    </g>
    <g>
     <circle stroke="black" stroke-width="0.5" fill="#aaffff" cx="767.0" cy="635.0" r="1.0"/>
     <text stroke="none" x="767.0" y="635.0" font-size="20.0" font-family="helvetica">Actinoplanes regularis IFO 125147(AB08701 1)</text>
    </g>
    <g>
     <circle stroke="black" stroke-width="0.5" fill="#aaffff" cx="771.0" cy="334.0" r="1.0"/>
     <text stroke="none" x="771.0" y="334.0" font-size="20.0" font-family="helvetica">Micromonospora siamensis JCM 127697 (AB193565)</text>
    </g>
    <g>
     <circle stroke="black" stroke-width="0.5" fill="#aaffff" cx="773.0" cy="584.0" r="1.0"/>
     <text stroke="none" x="773.0" y="584.0" font-size="20.0" font-family="helvetica">Actinoplanes utahensis IFO 132447 (ABO37012)</text>
    </g>
    <g>
     <circle stroke="black" stroke-width="0.5" fill="#aaffff" cx="774.0" cy="184.0" r="1.0"/>
     <text stroke="none" x="774.0" y="184.0" font-size="20.0" font-family="helvetica">Micromonospora purpureochromogenes DSM 438217 (X9261 1)</text>
    </g>
    <g>
     <circle stroke="black" stroke-width="0.5" fill="#aaffff" cx="774.0" cy="935.0" r="1.0"/>
     <text stroke="none" x="774.0" y="935.0" font-size="20.0" font-family="helvetica">Dactylosporangfum aurantiacum IFO 125927 (D85480)</text>
    </g>
    <g>
     <circle stroke="black" stroke-width="0.5" fill="#aaffff" cx="774.0" cy="60.0" r="1.0"/>
     <text stroke="none" x="774.0" y="60.0" font-size="10.0" font-family="helvetica">NT1.23</text>
    </g>
    <g>
     <circle stroke="black" stroke-width="0.5" fill="#aaffff" cx="781.0" cy="985.0" r="1.0"/>
     <text stroke="none" x="781.0" y="985.0" font-size="20.0" font-family="helvetica">Dactylosporangium maewongense MW2-257 (AB495209)</text>
    </g>
    <g>
     <circle stroke="black" stroke-width="0.5" fill="#aaffff" cx="786.0" cy="785.0" r="1.0"/>
     <text stroke="none" x="786.0" y="785.0" font-size="20.0" font-family="helvetica">Dactylosporangium thailandense IFO 125937 (D85481)</text>
    </g>
    <g>
     <circle stroke="black" stroke-width="0.5" fill="#aaffff" cx="789.0" cy="534.0" r="1.0"/>
     <text stroke="none" x="789.0" y="534.0" font-size="20.0" font-family="helvetica">Actinoplanes philippinensis IFO 138787 (D85474)</text>
    </g>
    <g>
     <circle stroke="black" stroke-width="0.5" fill="#aaffff" cx="791.0" cy="711.0" r="1.0"/>
     <text stroke="none" x="791.0" y="711.0" font-size="20.0" font-family="helvetica">at</text>
    </g>
    <g>
     <circle stroke="black" stroke-width="0.5" fill="#aaffff" cx="799.0" cy="134.0" r="1.0"/>
     <text stroke="none" x="799.0" y="134.0" font-size="20.0" font-family="helvetica">Micromonospora halophytica DSM 431 717 (X92601)</text>
    </g>
    <g>
     <circle stroke="black" stroke-width="0.5" fill="#aaffff" cx="802.0" cy="861.0" r="1.0"/>
     <text stroke="none" x="802.0" y="861.0" font-size="10.0" font-family="helvetica">NT1.29</text>
    </g>
    <g>
     <circle stroke="black" stroke-width="0.5" fill="#aaffff" cx="810.0" cy="735.0" r="1.0"/>
     <text stroke="none" x="810.0" y="735.0" font-size="20.0" font-family="helvetica">Dactylosporangium roseum IFO 143527 (D86941)</text>
    </g>
    <g>
     <circle stroke="black" stroke-width="0.5" fill="#aaffff" cx="811.0" cy="484.0" r="1.0"/>
     <text stroke="none" x="811.0" y="484.0" font-size="20.0" font-family="helvetica">Actinoplanes missouriensis IFO 132437 (ABO37008)</text>
    </g>
    <g>
     <circle stroke="black" stroke-width="0.5" fill="#aaffff" cx="812.0" cy="835.0" r="1.0"/>
     <text stroke="none" x="812.0" y="835.0" font-size="20.0" font-family="helvetica">Dactylosporangium matsuzakiense IFO 142597 (D86940)</text>
    </g>
    <g>
     <circle stroke="black" stroke-width="0.5" fill="#aaffff" cx="813.0" cy="885.0" r="1.0"/>
     <text stroke="none" x="813.0" y="885.0" font-size="20.0" font-family="helvetica">Dactylosporangium vinaceum IFO 141817 (D86939)</text>
    </g>
    <g>
     <circle stroke="black" stroke-width="0.5" fill="#aaffff" cx="815.0" cy="234.0" r="1.0"/>
     <text stroke="none" x="815.0" y="234.0" font-size="20.0" font-family="helvetica">Mlcromonospora matsumotoense IMSNU 220037 (AF1 521 09)</text>
    </g>
    <g>
     <circle stroke="black" stroke-width="0.5" fill="#aaffff" cx="816.0" cy="84.0" r="1.0"/>
     <text stroke="none" x="816.0" y="84.0" font-size="20.0" font-family="helvetica">Micromonospora aurantiaca DSM 488137 (X92604)</text>
    </g>
    <g>
     <circle stroke="black" stroke-width="0.5" fill="#aaffff" cx="826.0" cy="685.0" r="1.0"/>
     <text stroke="none" x="826.0" y="685.0" font-size="20.0" font-family="helvetica">Dactylosporangium fulvum IFO 143817 (D86942)</text>
    </g>
    <g>
     <circle stroke="black" stroke-width="0.5" fill="#aaffff" cx="831.0" cy="284.0" r="1.0"/>
     <text stroke="none" x="831.0" y="284.0" font-size="20.0" font-family="helvetica">Micromonospora mirobrigensis DSM 448307 (AJ626950)</text>
    </g>
    <g>
     <circle stroke="black" stroke-width="0.5" fill="#aaffff" cx="835.0" cy="434.0" r="1.0"/>
     <text stroke="none" x="835.0" y="434.0" font-size="20.0" font-family="helvetica">Actinoplanes digitatis IFO 125127(AB037OOO)</text>
    </g>
    <g>
     <circle stroke="black" stroke-width="0.5" fill="#aaffff" cx="838.0" cy="34.0" r="1.0"/>
     <text stroke="none" x="838.0" y="34.0" font-size="20.0" font-family="helvetica">Micromonospora chalcea DSM 430267 (X92594)</text>
    </g>
    <g>
     <circle stroke="black" stroke-width="0.5" fill="#aaffff" cx="838.0" cy="1035.0" r="1.0"/>
     <text stroke="none" x="838.0" y="1035.0" font-size="20.0" font-family="helvetica">Streptomyces ambofaciens ATCC 238777 (M27245)</text>
    </g>
    <line stroke="black" x1="816.0" y1="84.0" x2="774.0" y2="60.0" stroke-width="0.5"/>
    <line stroke="black" x1="799.0" y1="134.0" x2="742.0" y2="98.0" stroke-width="0.5"/>
    <line stroke="black" x1="835.0" y1="434.0" x2="680.0" y2="460.0" stroke-width="0.5"/>
    <line stroke="black" x1="786.0" y1="785.0" x2="741.0" y2="748.0" stroke-width="0.5"/>
    <line stroke="black" x1="774.0" y1="60.0" x2="742.0" y2="98.0" stroke-width="0.5"/>
    <line stroke="black" x1="742.0" y1="98.0" x2="727.0" y2="142.0" stroke-width="0.5"/>
    <line stroke="black" x1="727.0" y1="142.0" x2="698.0" y2="207.0" stroke-width="0.5"/>
    <line stroke="black" x1="698.0" y1="207.0" x2="678.0" y2="296.0" stroke-width="0.5"/>
    <line stroke="black" x1="698.0" y1="207.0" x2="705.0" y2="271.0" stroke-width="0.5"/>
    <line stroke="black" x1="705.0" y1="271.0" x2="737.0" y2="308.0" stroke-width="0.5"/>
    <line stroke="black" x1="678.0" y1="296.0" x2="536.0" y2="406.0" stroke-width="0.5"/>
    <line stroke="black" x1="536.0" y1="406.0" x2="484.0" y2="618.0" stroke-width="0.5"/>
    <line stroke="black" x1="536.0" y1="406.0" x2="571.0" y2="515.0" stroke-width="0.5"/>
    <line stroke="black" x1="571.0" y1="515.0" x2="626.0" y2="571.0" stroke-width="0.5"/>
    <line stroke="black" x1="571.0" y1="515.0" x2="680.0" y2="460.0" stroke-width="0.5"/>
    <line stroke="black" x1="626.0" y1="571.0" x2="654.0" y2="609.0" stroke-width="0.5"/>
    <line stroke="black" x1="484.0" y1="618.0" x2="678.0" y2="828.0" stroke-width="0.5"/>
    <line stroke="black" x1="678.0" y1="828.0" x2="698.0" y2="909.0" stroke-width="0.5"/>
    <line stroke="black" x1="678.0" y1="828.0" x2="741.0" y2="748.0" stroke-width="0.5"/>
    <line stroke="black" x1="698.0" y1="909.0" x2="746.0" y2="959.0" stroke-width="0.5"/>
    <line stroke="black" x1="698.0" y1="909.0" x2="802.0" y2="861.0" stroke-width="0.5"/>
    <line stroke="black" x1="741.0" y1="748.0" x2="791.0" y2="711.0" stroke-width="0.5"/>
    <line stroke="black" x1="838.0" y1="1035.0" x2="484.0" y2="618.0" stroke-width="0.5"/>
    <line stroke="black" x1="789.0" y1="534.0" x2="626.0" y2="571.0" stroke-width="0.5"/>
    <line stroke="black" x1="767.0" y1="635.0" x2="654.0" y2="609.0" stroke-width="0.5"/>
    <line stroke="black" x1="773.0" y1="584.0" x2="654.0" y2="609.0" stroke-width="0.5"/>
    <line stroke="black" x1="751.0" y1="384.0" x2="678.0" y2="296.0" stroke-width="0.5"/>
    <line stroke="black" x1="811.0" y1="484.0" x2="680.0" y2="460.0" stroke-width="0.5"/>
    <line stroke="black" x1="815.0" y1="234.0" x2="705.0" y2="271.0" stroke-width="0.5"/>
    <line stroke="black" x1="774.0" y1="184.0" x2="727.0" y2="142.0" stroke-width="0.5"/>
    <line stroke="black" x1="771.0" y1="334.0" x2="737.0" y2="308.0" stroke-width="0.5"/>
    <line stroke="black" x1="774.0" y1="935.0" x2="746.0" y2="959.0" stroke-width="0.5"/>
    <line stroke="black" x1="781.0" y1="985.0" x2="746.0" y2="959.0" stroke-width="0.5"/>
    <line stroke="black" x1="831.0" y1="284.0" x2="737.0" y2="308.0" stroke-width="0.5"/>
    <line stroke="black" x1="810.0" y1="735.0" x2="791.0" y2="711.0" stroke-width="0.5"/>
    <line stroke="black" x1="826.0" y1="685.0" x2="791.0" y2="711.0" stroke-width="0.5"/>
    <line stroke="black" x1="813.0" y1="885.0" x2="802.0" y2="861.0" stroke-width="0.5"/>
    <line stroke="black" x1="812.0" y1="835.0" x2="802.0" y2="861.0" stroke-width="0.5"/>
    <line stroke="black" x1="838.0" y1="34.0" x2="774.0" y2="60.0" stroke-width="0.5"/>
   </g>
  </g>
 </svg>
</svg>
