<?xml version="1.0" encoding="UTF-8"?>
<svg height="800.0" width="700.0" xmlns="http://www.w3.org/2000/svg">
 <svg>
  <g>
   <g>
    <g>
     <circle stroke="black" stroke-width="0.5" fill="#aaffff" cx="200.0" cy="971.0" r="1.0"/>
     <text stroke="none" x="200.0" y="971.0" font-size="20.0" font-family="helvetica"/>
    </g>
    <g>
     <circle stroke="black" stroke-width="0.5" fill="#aaffff" cx="701.0" cy="363.0" r="1.0"/>
     <text stroke="none" x="701.0" y="363.0" font-size="20.0" font-family="helvetica"/>
    </g>
    <g>
     <circle stroke="black" stroke-width="0.5" fill="#aaffff" cx="726.0" cy="291.0" r="1.0"/>
     <text stroke="none" x="726.0" y="291.0" font-size="20.0" font-family="helvetica">933</text>
    </g>
    <g>
     <circle stroke="black" stroke-width="0.5" fill="#aaffff" cx="736.0" cy="313.0" r="1.0"/>
     <text stroke="none" x="736.0" y="313.0" font-size="20.0" font-family="helvetica">9379</text>
    </g>
    <g>
     <circle stroke="black" stroke-width="0.5" fill="#aaffff" cx="745.0" cy="284.0" r="1.0"/>
     <text stroke="none" x="745.0" y="284.0" font-size="20.0" font-family="helvetica">933</text>
    </g>
    <g>
     <circle stroke="black" stroke-width="0.5" fill="#aaffff" cx="746.0" cy="294.0" r="1.0"/>
     <text stroke="none" x="746.0" y="294.0" font-size="10.0" font-family="helvetica">NT1.6</text>
    </g>
    <g>
     <circle stroke="black" stroke-width="0.5" fill="#aaffff" cx="754.0" cy="316.0" r="1.0"/>
     <text stroke="none" x="754.0" y="316.0" font-size="10.0" font-family="helvetica">NT1.7</text>
    </g>
    <g>
     <circle stroke="black" stroke-width="0.5" fill="#aaffff" cx="785.0" cy="369.0" r="1.0"/>
     <text stroke="none" x="785.0" y="369.0" font-size="10.0" font-family="helvetica">NT1.8</text>
    </g>
    <g>
     <circle stroke="black" stroke-width="0.5" fill="#aaffff" cx="802.0" cy="104.0" r="1.0"/>
     <text stroke="none" x="802.0" y="104.0" font-size="20.0" font-family="helvetica"/>
    </g>
    <g>
     <circle stroke="black" stroke-width="0.5" fill="#aaffff" cx="829.0" cy="172.0" r="1.0"/>
     <text stroke="none" x="829.0" y="172.0" font-size="20.0" font-family="helvetica"/>
    </g>
    <g>
     <circle stroke="black" stroke-width="0.5" fill="#aaffff" cx="875.0" cy="95.0" r="1.0"/>
     <text stroke="none" x="875.0" y="95.0" font-size="20.0" font-family="helvetica"/>
    </g>
    <g>
     <circle stroke="black" stroke-width="0.5" fill="#aaffff" cx="891.0" cy="44.0" r="1.0"/>
     <text stroke="none" x="891.0" y="44.0" font-size="20.0" font-family="helvetica"/>
    </g>
    <g>
     <circle stroke="black" stroke-width="0.5" fill="#aaffff" cx="892.0" cy="134.0" r="1.0"/>
     <text stroke="none" x="892.0" y="134.0" font-size="10.0" font-family="helvetica">NT1.13</text>
    </g>
    <g>
     <circle stroke="black" stroke-width="0.5" fill="#aaffff" cx="901.0" cy="785.0" r="1.0"/>
     <text stroke="none" x="901.0" y="785.0" font-size="20.0" font-family="helvetica"/>
    </g>
    <g>
     <circle stroke="black" stroke-width="0.5" fill="#aaffff" cx="905.0" cy="365.0" r="1.0"/>
     <text stroke="none" x="905.0" y="365.0" font-size="10.0" font-family="helvetica">NT1.15</text>
    </g>
    <g>
     <circle stroke="black" stroke-width="0.5" fill="#aaffff" cx="906.0" cy="540.0" r="1.0"/>
     <text stroke="none" x="906.0" y="540.0" font-size="10.0" font-family="helvetica">NT1.16</text>
    </g>
    <g>
     <circle stroke="black" stroke-width="0.5" fill="#aaffff" cx="908.0" cy="213.0" r="1.0"/>
     <text stroke="none" x="908.0" y="213.0" font-size="10.0" font-family="helvetica">NT1.17</text>
    </g>
    <g>
     <circle stroke="black" stroke-width="0.5" fill="#aaffff" cx="915.0" cy="157.0" r="1.0"/>
     <text stroke="none" x="915.0" y="157.0" font-size="10.0" font-family="helvetica">NT1.18</text>
    </g>
    <g>
     <circle stroke="black" stroke-width="0.5" fill="#aaffff" cx="922.0" cy="104.0" r="1.0"/>
     <text stroke="none" x="922.0" y="104.0" font-size="10.0" font-family="helvetica">NT1.19</text>
    </g>
    <g>
     <circle stroke="black" stroke-width="0.5" fill="#aaffff" cx="923.0" cy="140.0" r="1.0"/>
     <text stroke="none" x="923.0" y="140.0" font-size="10.0" font-family="helvetica">NT1.20</text>
    </g>
    <g>
     <circle stroke="black" stroke-width="0.5" fill="#aaffff" cx="932.0" cy="78.0" r="1.0"/>
     <text stroke="none" x="932.0" y="78.0" font-size="20.0" font-family="helvetica"/>
    </g>
    <g>
     <circle stroke="black" stroke-width="0.5" fill="#aaffff" cx="933.0" cy="135.0" r="1.0"/>
     <text stroke="none" x="933.0" y="135.0" font-size="10.0" font-family="helvetica">NT1.22</text>
    </g>
    <g>
     <circle stroke="black" stroke-width="0.5" fill="#aaffff" cx="939.0" cy="432.0" r="1.0"/>
     <text stroke="none" x="939.0" y="432.0" font-size="10.0" font-family="helvetica">NT1.23</text>
    </g>
    <g>
     <circle stroke="black" stroke-width="0.5" fill="#aaffff" cx="950.0" cy="130.0" r="1.0"/>
     <text stroke="none" x="950.0" y="130.0" font-size="10.0" font-family="helvetica">NT1.24</text>
    </g>
    <g>
     <circle stroke="black" stroke-width="0.5" fill="#aaffff" cx="956.0" cy="93.0" r="1.0"/>
     <text stroke="none" x="956.0" y="93.0" font-size="20.0" font-family="helvetica">Staphylococcus saccharolytlcus ATCC 149537 (L37602)</text>
    </g>
    <g>
     <circle stroke="black" stroke-width="0.5" fill="#aaffff" cx="996.0" cy="84.0" r="1.0"/>
     <text stroke="none" x="996.0" y="84.0" font-size="10.0" font-family="helvetica">NT1.26</text>
    </g>
    <g>
     <circle stroke="black" stroke-width="0.5" fill="#aaffff" cx="1003.0" cy="123.0" r="1.0"/>
     <text stroke="none" x="1003.0" y="123.0" font-size="20.0" font-family="helvetica">Staphylococcus aureus ATCC 126007 (X68417)</text>
    </g>
    <g>
     <circle stroke="black" stroke-width="0.5" fill="#aaffff" cx="1068.0" cy="472.0" r="1.0"/>
     <text stroke="none" x="1068.0" y="472.0" font-size="10.0" font-family="helvetica">NT1.28</text>
    </g>
    <g>
     <circle stroke="black" stroke-width="0.5" fill="#aaffff" cx="1161.0" cy="604.0" r="1.0"/>
     <text stroke="none" x="1161.0" y="604.0" font-size="10.0" font-family="helvetica">NT1.29</text>
    </g>
    <g>
     <circle stroke="black" stroke-width="0.5" fill="#aaffff" cx="1191.0" cy="738.0" r="1.0"/>
     <text stroke="none" x="1191.0" y="738.0" font-size="20.0" font-family="helvetica"/>
    </g>
    <g>
     <circle stroke="black" stroke-width="0.5" fill="#aaffff" cx="1255.0" cy="632.0" r="1.0"/>
     <text stroke="none" x="1255.0" y="632.0" font-size="20.0" font-family="helvetica">Salinicoccus roseus DSM 53517 (X94559)</text>
    </g>
    <g>
     <circle stroke="black" stroke-width="0.5" fill="#aaffff" cx="1291.0" cy="363.0" r="1.0"/>
     <text stroke="none" x="1291.0" y="363.0" font-size="10.0" font-family="helvetica">NT1.32</text>
    </g>
    <g>
     <circle stroke="black" stroke-width="0.5" fill="#aaffff" cx="1326.0" cy="297.0" r="1.0"/>
     <text stroke="none" x="1326.0" y="297.0" font-size="10.0" font-family="helvetica">NT1.33</text>
    </g>
    <g>
     <circle stroke="black" stroke-width="0.5" fill="#aaffff" cx="1359.0" cy="393.0" r="1.0"/>
     <text stroke="none" x="1359.0" y="393.0" font-size="20.0" font-family="helvetica">Strain YKJ-1157 (AY028926)</text>
    </g>
    <line stroke="black" x1="932.0" y1="78.0" x2="922.0" y2="104.0" stroke-width="0.5"/>
    <line stroke="black" x1="1003.0" y1="123.0" x2="950.0" y2="130.0" stroke-width="0.5"/>
    <line stroke="black" x1="802.0" y1="104.0" x2="892.0" y2="134.0" stroke-width="0.5"/>
    <line stroke="black" x1="829.0" y1="172.0" x2="908.0" y2="213.0" stroke-width="0.5"/>
    <line stroke="black" x1="745.0" y1="284.0" x2="746.0" y2="294.0" stroke-width="0.5"/>
    <line stroke="black" x1="726.0" y1="291.0" x2="746.0" y2="294.0" stroke-width="0.5"/>
    <line stroke="black" x1="1255.0" y1="632.0" x2="1161.0" y2="604.0" stroke-width="0.5"/>
    <line stroke="black" x1="1191.0" y1="738.0" x2="1161.0" y2="604.0" stroke-width="0.5"/>
    <line stroke="black" x1="1359.0" y1="393.0" x2="1291.0" y2="363.0" stroke-width="0.5"/>
    <line stroke="black" x1="891.0" y1="44.0" x2="922.0" y2="104.0" stroke-width="0.5"/>
    <line stroke="black" x1="922.0" y1="104.0" x2="923.0" y2="140.0" stroke-width="0.5"/>
    <line stroke="black" x1="923.0" y1="140.0" x2="933.0" y2="135.0" stroke-width="0.5"/>
    <line stroke="black" x1="923.0" y1="140.0" x2="915.0" y2="157.0" stroke-width="0.5"/>
    <line stroke="black" x1="933.0" y1="135.0" x2="950.0" y2="130.0" stroke-width="0.5"/>
    <line stroke="black" x1="933.0" y1="135.0" x2="956.0" y2="93.0" stroke-width="0.5"/>
    <line stroke="black" x1="915.0" y1="157.0" x2="892.0" y2="134.0" stroke-width="0.5"/>
    <line stroke="black" x1="915.0" y1="157.0" x2="908.0" y2="213.0" stroke-width="0.5"/>
    <line stroke="black" x1="950.0" y1="130.0" x2="996.0" y2="84.0" stroke-width="0.5"/>
    <line stroke="black" x1="892.0" y1="134.0" x2="875.0" y2="95.0" stroke-width="0.5"/>
    <line stroke="black" x1="996.0" y1="84.0" x2="996.0" y2="84.0" stroke-width="0.5"/>
    <line stroke="black" x1="905.0" y1="365.0" x2="939.0" y2="432.0" stroke-width="0.5"/>
    <line stroke="black" x1="939.0" y1="432.0" x2="1068.0" y2="472.0" stroke-width="0.5"/>
    <line stroke="black" x1="939.0" y1="432.0" x2="906.0" y2="540.0" stroke-width="0.5"/>
    <line stroke="black" x1="785.0" y1="369.0" x2="754.0" y2="316.0" stroke-width="0.5"/>
    <line stroke="black" x1="754.0" y1="316.0" x2="736.0" y2="313.0" stroke-width="0.5"/>
    <line stroke="black" x1="754.0" y1="316.0" x2="746.0" y2="294.0" stroke-width="0.5"/>
    <line stroke="black" x1="906.0" y1="540.0" x2="200.0" y2="971.0" stroke-width="0.5"/>
    <line stroke="black" x1="1068.0" y1="472.0" x2="1291.0" y2="363.0" stroke-width="0.5"/>
    <line stroke="black" x1="1068.0" y1="472.0" x2="1161.0" y2="604.0" stroke-width="0.5"/>
    <line stroke="black" x1="1291.0" y1="363.0" x2="1326.0" y2="297.0" stroke-width="0.5"/>
    <line stroke="black" x1="1326.0" y1="297.0" x2="1326.0" y2="297.0" stroke-width="0.5"/>
    <line stroke="black" x1="785.0" y1="369.0" x2="701.0" y2="363.0" stroke-width="0.5"/>
    <line stroke="black" x1="905.0" y1="365.0" x2="785.0" y2="369.0" stroke-width="0.5"/>
    <line stroke="black" x1="906.0" y1="540.0" x2="901.0" y2="785.0" stroke-width="0.5"/>
    <line stroke="black" x1="908.0" y1="213.0" x2="905.0" y2="365.0" stroke-width="0.5"/>
   </g>
  </g>
 </svg>
</svg>
