<?xml version="1.0" encoding="UTF-8"?>
<svg height="800.0" width="700.0" xmlns="http://www.w3.org/2000/svg">
 <svg>
  <g>
   <g>
    <g>
     <circle stroke="black" stroke-width="0.5" fill="#aaffff" cx="105.0" cy="592.0" r="1.0"/>
     <text stroke="none" x="105.0" y="592.0" font-size="20.0" font-family="helvetica">Methanopyrus kandleriAV1 9'1 AE009439 (mcrA from complete genome)</text>
    </g>
    <g>
     <circle stroke="black" stroke-width="0.5" fill="#aaffff" cx="105.0" cy="432.0" r="1.0"/>
     <text stroke="none" x="105.0" y="432.0" font-size="10.0" font-family="helvetica">NT1.2</text>
    </g>
    <g>
     <circle stroke="black" stroke-width="0.5" fill="#aaffff" cx="235.0" cy="547.0" r="1.0"/>
     <text stroke="none" x="235.0" y="547.0" font-size="10.0" font-family="helvetica">NT1.3</text>
    </g>
    <g>
     <circle stroke="black" stroke-width="0.5" fill="#aaffff" cx="414.0" cy="311.0" r="1.0"/>
     <text stroke="none" x="414.0" y="311.0" font-size="10.0" font-family="helvetica">NT1.4</text>
    </g>
    <g>
     <circle stroke="black" stroke-width="0.5" fill="#aaffff" cx="491.0" cy="152.0" r="1.0"/>
     <text stroke="none" x="491.0" y="152.0" font-size="10.0" font-family="helvetica">NT1.5</text>
    </g>
    <g>
     <circle stroke="black" stroke-width="0.5" fill="#aaffff" cx="510.0" cy="531.0" r="1.0"/>
     <text stroke="none" x="510.0" y="531.0" font-size="20.0" font-family="helvetica"/>
    </g>
    <g>
     <circle stroke="black" stroke-width="0.5" fill="#aaffff" cx="512.0" cy="562.0" r="1.0"/>
     <text stroke="none" x="512.0" y="562.0" font-size="20.0" font-family="helvetica">Methanobacterium bryanrii M.o.H.'1 AF313806</text>
    </g>
    <g>
     <circle stroke="black" stroke-width="0.5" fill="#aaffff" cx="529.0" cy="269.0" r="1.0"/>
     <text stroke="none" x="529.0" y="269.0" font-size="10.0" font-family="helvetica">NT1.8</text>
    </g>
    <g>
     <circle stroke="black" stroke-width="0.5" fill="#aaffff" cx="658.0" cy="351.0" r="1.0"/>
     <text stroke="none" x="658.0" y="351.0" font-size="10.0" font-family="helvetica">NT1.9</text>
    </g>
    <g>
     <circle stroke="black" stroke-width="0.5" fill="#aaffff" cx="689.0" cy="193.0" r="1.0"/>
     <text stroke="none" x="689.0" y="193.0" font-size="10.0" font-family="helvetica">NT1.10</text>
    </g>
    <g>
     <circle stroke="black" stroke-width="0.5" fill="#aaffff" cx="737.0" cy="326.0" r="1.0"/>
     <text stroke="none" x="737.0" y="326.0" font-size="10.0" font-family="helvetica">NT1.11</text>
    </g>
    <g>
     <circle stroke="black" stroke-width="0.5" fill="#aaffff" cx="796.0" cy="381.0" r="1.0"/>
     <text stroke="none" x="796.0" y="381.0" font-size="20.0" font-family="helvetica">Rice fie d soil clone MRE-ME41AF313890</text>
    </g>
    <g>
     <circle stroke="black" stroke-width="0.5" fill="#aaffff" cx="805.0" cy="351.0" r="1.0"/>
     <text stroke="none" x="805.0" y="351.0" font-size="20.0" font-family="helvetica">RC-I MRESO complete genome mcrA1 AM114193</text>
    </g>
    <g>
     <circle stroke="black" stroke-width="0.5" fill="#aaffff" cx="814.0" cy="156.0" r="1.0"/>
     <text stroke="none" x="814.0" y="156.0" font-size="10.0" font-family="helvetica">NT1.14</text>
    </g>
    <g>
     <circle stroke="black" stroke-width="0.5" fill="#aaffff" cx="819.0" cy="299.0" r="1.0"/>
     <text stroke="none" x="819.0" y="299.0" font-size="10.0" font-family="helvetica">NT1.15</text>
    </g>
    <g>
     <circle stroke="black" stroke-width="0.5" fill="#aaffff" cx="828.0" cy="35.0" r="1.0"/>
     <text stroke="none" x="828.0" y="35.0" font-size="10.0" font-family="helvetica">NT1.16</text>
    </g>
    <g>
     <circle stroke="black" stroke-width="0.5" fill="#aaffff" cx="835.0" cy="126.0" r="1.0"/>
     <text stroke="none" x="835.0" y="126.0" font-size="10.0" font-family="helvetica">NT1.17</text>
    </g>
    <g>
     <circle stroke="black" stroke-width="0.5" fill="#aaffff" cx="859.0" cy="475.0" r="1.0"/>
     <text stroke="none" x="859.0" y="475.0" font-size="10.0" font-family="helvetica">NT1.18</text>
    </g>
    <g>
     <circle stroke="black" stroke-width="0.5" fill="#aaffff" cx="870.0" cy="185.0" r="1.0"/>
     <text stroke="none" x="870.0" y="185.0" font-size="10.0" font-family="helvetica">NT1.19</text>
    </g>
    <g>
     <circle stroke="black" stroke-width="0.5" fill="#aaffff" cx="877.0" cy="96.0" r="1.0"/>
     <text stroke="none" x="877.0" y="96.0" font-size="10.0" font-family="helvetica">NT1.20</text>
    </g>
    <g>
     <circle stroke="black" stroke-width="0.5" fill="#aaffff" cx="882.0" cy="321.0" r="1.0"/>
     <text stroke="none" x="882.0" y="321.0" font-size="20.0" font-family="helvetica">Rice field soil clone RS-ME32. AF313867</text>
    </g>
    <g>
     <circle stroke="black" stroke-width="0.5" fill="#aaffff" cx="893.0" cy="450.0" r="1.0"/>
     <text stroke="none" x="893.0" y="450.0" font-size="10.0" font-family="helvetica">NT1.22</text>
    </g>
    <g>
     <circle stroke="black" stroke-width="0.5" fill="#aaffff" cx="911.0" cy="283.0" r="1.0"/>
     <text stroke="none" x="911.0" y="283.0" font-size="10.0" font-family="helvetica">NT1.23</text>
    </g>
    <g>
     <circle stroke="black" stroke-width="0.5" fill="#aaffff" cx="919.0" cy="260.0" r="1.0"/>
     <text stroke="none" x="919.0" y="260.0" font-size="20.0" font-family="helvetica">Rice field soil clone RS-ME391 AF313873</text>
    </g>
    <g>
     <circle stroke="black" stroke-width="0.5" fill="#aaffff" cx="919.0" cy="428.0" r="1.0"/>
     <text stroke="none" x="919.0" y="428.0" font-size="10.0" font-family="helvetica">NT1.25</text>
    </g>
    <g>
     <circle stroke="black" stroke-width="0.5" fill="#aaffff" cx="940.0" cy="139.0" r="1.0"/>
     <text stroke="none" x="940.0" y="139.0" font-size="20.0" font-family="helvetica">Methanosalsum zhilinae WeN5'1 U22252</text>
    </g>
    <g>
     <circle stroke="black" stroke-width="0.5" fill="#aaffff" cx="951.0" cy="502.0" r="1.0"/>
     <text stroke="none" x="951.0" y="502.0" font-size="20.0" font-family="helvetica">Methanocorpusculum parvum XIIK AF414045</text>
    </g>
    <g>
     <circle stroke="black" stroke-width="0.5" fill="#aaffff" cx="958.0" cy="200.0" r="1.0"/>
     <text stroke="none" x="958.0" y="200.0" font-size="20.0" font-family="helvetica">Methannmethylovorans hollandica DMS1l AY260442</text>
    </g>
    <g>
     <circle stroke="black" stroke-width="0.5" fill="#aaffff" cx="963.0" cy="49.0" r="1.0"/>
     <text stroke="none" x="963.0" y="49.0" font-size="20.0" font-family="helvetica">Merhanosaeta concilii GP6K AF313802</text>
    </g>
    <g>
     <circle stroke="black" stroke-width="0.5" fill="#aaffff" cx="1014.0" cy="230.0" r="1.0"/>
     <text stroke="none" x="1014.0" y="230.0" font-size="20.0" font-family="helvetica">Methanosarcina mazei S-6'1 AF414043</text>
    </g>
    <g>
     <circle stroke="black" stroke-width="0.5" fill="#aaffff" cx="1017.0" cy="290.0" r="1.0"/>
     <text stroke="none" x="1017.0" y="290.0" font-size="20.0" font-family="helvetica">Methanocella paludicola SANAE'. AB300467</text>
    </g>
    <g>
     <circle stroke="black" stroke-width="0.5" fill="#aaffff" cx="1033.0" cy="21.0" r="1.0"/>
     <text stroke="none" x="1033.0" y="21.0" font-size="20.0" font-family="helvetica">Methanorhrix ('Methanosaeta') thermophila PTC NC 008553</text>
    </g>
    <g>
     <circle stroke="black" stroke-width="0.5" fill="#aaffff" cx="1038.0" cy="109.0" r="1.0"/>
     <text stroke="none" x="1038.0" y="109.0" font-size="20.0" font-family="helvetica">Methanohalobium evestigatum Z-73032 U22236</text>
    </g>
    <g>
     <circle stroke="black" stroke-width="0.5" fill="#aaffff" cx="1040.0" cy="411.0" r="1.0"/>
     <text stroke="none" x="1040.0" y="411.0" font-size="20.0" font-family="helvetica">Methanoculleus bourgensis M523 AF414036</text>
    </g>
    <g>
     <circle stroke="black" stroke-width="0.5" fill="#aaffff" cx="1058.0" cy="169.0" r="1.0"/>
     <text stroke="none" x="1058.0" y="169.0" font-size="20.0" font-family="helvetica">Methanolobus rindarius Tindari 3'1 U22244</text>
    </g>
    <g>
     <circle stroke="black" stroke-width="0.5" fill="#aaffff" cx="1086.0" cy="81.0" r="1.0"/>
     <text stroke="none" x="1086.0" y="81.0" font-size="20.0" font-family="helvetica">Methanohalophilus mahii SLPC U22237</text>
    </g>
    <g>
     <circle stroke="black" stroke-width="0.5" fill="#aaffff" cx="1102.0" cy="472.0" r="1.0"/>
     <text stroke="none" x="1102.0" y="472.0" font-size="20.0" font-family="helvetica"/>
    </g>
    <g>
     <circle stroke="black" stroke-width="0.5" fill="#aaffff" cx="1160.0" cy="441.0" r="1.0"/>
     <text stroke="none" x="1160.0" y="441.0" font-size="20.0" font-family="helvetica">Methanospirillum huI1gateI'JF-1'1 AF313805</text>
    </g>
    <line stroke="black" x1="963.0" y1="49.0" x2="828.0" y2="35.0" stroke-width="0.5"/>
    <line stroke="black" x1="1033.0" y1="21.0" x2="828.0" y2="35.0" stroke-width="0.5"/>
    <line stroke="black" x1="805.0" y1="351.0" x2="737.0" y2="326.0" stroke-width="0.5"/>
    <line stroke="black" x1="882.0" y1="321.0" x2="819.0" y2="299.0" stroke-width="0.5"/>
    <line stroke="black" x1="958.0" y1="200.0" x2="870.0" y2="185.0" stroke-width="0.5"/>
    <line stroke="black" x1="1014.0" y1="230.0" x2="689.0" y2="193.0" stroke-width="0.5"/>
    <line stroke="black" x1="1017.0" y1="290.0" x2="911.0" y2="283.0" stroke-width="0.5"/>
    <line stroke="black" x1="1058.0" y1="169.0" x2="870.0" y2="185.0" stroke-width="0.5"/>
    <line stroke="black" x1="1038.0" y1="109.0" x2="877.0" y2="96.0" stroke-width="0.5"/>
    <line stroke="black" x1="951.0" y1="502.0" x2="859.0" y2="475.0" stroke-width="0.5"/>
    <line stroke="black" x1="1040.0" y1="411.0" x2="919.0" y2="428.0" stroke-width="0.5"/>
    <line stroke="black" x1="1102.0" y1="472.0" x2="893.0" y2="450.0" stroke-width="0.5"/>
    <line stroke="black" x1="510.0" y1="531.0" x2="235.0" y2="547.0" stroke-width="0.5"/>
    <line stroke="black" x1="512.0" y1="562.0" x2="235.0" y2="547.0" stroke-width="0.5"/>
    <line stroke="black" x1="1160.0" y1="441.0" x2="919.0" y2="428.0" stroke-width="0.5"/>
    <line stroke="black" x1="828.0" y1="35.0" x2="491.0" y2="152.0" stroke-width="0.5"/>
    <line stroke="black" x1="491.0" y1="152.0" x2="414.0" y2="311.0" stroke-width="0.5"/>
    <line stroke="black" x1="491.0" y1="152.0" x2="529.0" y2="269.0" stroke-width="0.5"/>
    <line stroke="black" x1="529.0" y1="269.0" x2="658.0" y2="351.0" stroke-width="0.5"/>
    <line stroke="black" x1="529.0" y1="269.0" x2="689.0" y2="193.0" stroke-width="0.5"/>
    <line stroke="black" x1="414.0" y1="311.0" x2="105.0" y2="432.0" stroke-width="0.5"/>
    <line stroke="black" x1="414.0" y1="311.0" x2="859.0" y2="475.0" stroke-width="0.5"/>
    <line stroke="black" x1="658.0" y1="351.0" x2="737.0" y2="326.0" stroke-width="0.5"/>
    <line stroke="black" x1="689.0" y1="193.0" x2="814.0" y2="156.0" stroke-width="0.5"/>
    <line stroke="black" x1="737.0" y1="326.0" x2="819.0" y2="299.0" stroke-width="0.5"/>
    <line stroke="black" x1="814.0" y1="156.0" x2="870.0" y2="185.0" stroke-width="0.5"/>
    <line stroke="black" x1="814.0" y1="156.0" x2="835.0" y2="126.0" stroke-width="0.5"/>
    <line stroke="black" x1="819.0" y1="299.0" x2="911.0" y2="283.0" stroke-width="0.5"/>
    <line stroke="black" x1="835.0" y1="126.0" x2="877.0" y2="96.0" stroke-width="0.5"/>
    <line stroke="black" x1="105.0" y1="432.0" x2="235.0" y2="547.0" stroke-width="0.5"/>
    <line stroke="black" x1="859.0" y1="475.0" x2="893.0" y2="450.0" stroke-width="0.5"/>
    <line stroke="black" x1="893.0" y1="450.0" x2="919.0" y2="428.0" stroke-width="0.5"/>
    <line stroke="black" x1="105.0" y1="592.0" x2="105.0" y2="432.0" stroke-width="0.5"/>
    <line stroke="black" x1="796.0" y1="381.0" x2="658.0" y2="351.0" stroke-width="0.5"/>
    <line stroke="black" x1="940.0" y1="139.0" x2="835.0" y2="126.0" stroke-width="0.5"/>
    <line stroke="black" x1="919.0" y1="260.0" x2="911.0" y2="283.0" stroke-width="0.5"/>
    <line stroke="black" x1="1086.0" y1="81.0" x2="877.0" y2="96.0" stroke-width="0.5"/>
   </g>
  </g>
 </svg>
</svg>
