<?xml version="1.0" encoding="UTF-8"?>
<svg height="800.0" width="700.0" xmlns="http://www.w3.org/2000/svg">
 <svg>
  <g>
   <g>
    <g>
     <circle stroke="black" stroke-width="0.5" fill="#aaffff" cx="216.0" cy="409.0" r="1.0"/>
     <text stroke="none" x="216.0" y="409.0" font-size="10.0" font-family="helvetica">NT1.1</text>
    </g>
    <g>
     <circle stroke="black" stroke-width="0.5" fill="#aaffff" cx="265.0" cy="313.0" r="1.0"/>
     <text stroke="none" x="265.0" y="313.0" font-size="10.0" font-family="helvetica">NT1.2</text>
    </g>
    <g>
     <circle stroke="black" stroke-width="0.5" fill="#aaffff" cx="402.0" cy="376.0" r="1.0"/>
     <text stroke="none" x="402.0" y="376.0" font-size="10.0" font-family="helvetica">NT1.3</text>
    </g>
    <g>
     <circle stroke="black" stroke-width="0.5" fill="#aaffff" cx="422.0" cy="125.0" r="1.0"/>
     <text stroke="none" x="422.0" y="125.0" font-size="10.0" font-family="helvetica">NT1.4</text>
    </g>
    <g>
     <circle stroke="black" stroke-width="0.5" fill="#aaffff" cx="432.0" cy="439.0" r="1.0"/>
     <text stroke="none" x="432.0" y="439.0" font-size="10.0" font-family="helvetica">NT1.5</text>
    </g>
    <g>
     <circle stroke="black" stroke-width="0.5" fill="#aaffff" cx="456.0" cy="425.0" r="1.0"/>
     <text stroke="none" x="456.0" y="425.0" font-size="20.0" font-family="helvetica">Bacillus insolilus DSM 5T (X60642)</text>
    </g>
    <g>
     <circle stroke="black" stroke-width="0.5" fill="#aaffff" cx="459.0" cy="155.0" r="1.0"/>
     <text stroke="none" x="459.0" y="155.0" font-size="10.0" font-family="helvetica">NT1.7</text>
    </g>
    <g>
     <circle stroke="black" stroke-width="0.5" fill="#aaffff" cx="471.0" cy="282.0" r="1.0"/>
     <text stroke="none" x="471.0" y="282.0" font-size="10.0" font-family="helvetica">NT1.8</text>
    </g>
    <g>
     <circle stroke="black" stroke-width="0.5" fill="#aaffff" cx="507.0" cy="534.0" r="1.0"/>
     <text stroke="none" x="507.0" y="534.0" font-size="20.0" font-family="helvetica">Bacillus subtilis IAM 12118T (AB042061)</text>
    </g>
    <g>
     <circle stroke="black" stroke-width="0.5" fill="#aaffff" cx="507.0" cy="94.0" r="1.0"/>
     <text stroke="none" x="507.0" y="94.0" font-size="10.0" font-family="helvetica">NT1.10</text>
    </g>
    <g>
     <circle stroke="black" stroke-width="0.5" fill="#aaffff" cx="526.0" cy="267.0" r="1.0"/>
     <text stroke="none" x="526.0" y="267.0" font-size="20.0" font-family="helvetica">Lysinibacillus fusiformis DSM 2898T (AJ310083)</text>
    </g>
    <g>
     <circle stroke="black" stroke-width="0.5" fill="#aaffff" cx="526.0" cy="299.0" r="1.0"/>
     <text stroke="none" x="526.0" y="299.0" font-size="20.0" font-family="helvetica">Lysinibacillus sphaericus DSM 28T (AJ310084)</text>
    </g>
    <g>
     <circle stroke="black" stroke-width="0.5" fill="#aaffff" cx="527.0" cy="187.0" r="1.0"/>
     <text stroke="none" x="527.0" y="187.0" font-size="10.0" font-family="helvetica">NT1.13</text>
    </g>
    <g>
     <circle stroke="black" stroke-width="0.5" fill="#aaffff" cx="568.0" cy="457.0" r="1.0"/>
     <text stroke="none" x="568.0" y="457.0" font-size="20.0" font-family="helvetica">Bacillus psychrotolerans DSM 117O8T (AJ277983)</text>
    </g>
    <g>
     <circle stroke="black" stroke-width="0.5" fill="#aaffff" cx="577.0" cy="62.0" r="1.0"/>
     <text stroke="none" x="577.0" y="62.0" font-size="20.0" font-family="helvetica">83</text>
    </g>
    <g>
     <circle stroke="black" stroke-width="0.5" fill="#aaffff" cx="584.0" cy="76.0" r="1.0"/>
     <text stroke="none" x="584.0" y="76.0" font-size="20.0" font-family="helvetica">Viridibacillus arenosi LMG 22166T (AJ627212)</text>
    </g>
    <g>
     <circle stroke="black" stroke-width="0.5" fill="#aaffff" cx="586.0" cy="31.0" r="1.0"/>
     <text stroke="none" x="586.0" y="31.0" font-size="20.0" font-family="helvetica">83</text>
    </g>
    <g>
     <circle stroke="black" stroke-width="0.5" fill="#aaffff" cx="587.0" cy="44.0" r="1.0"/>
     <text stroke="none" x="587.0" y="44.0" font-size="20.0" font-family="helvetica">Virldlbacillus arvi DSM 16317T (AJ627211)</text>
    </g>
    <g>
     <circle stroke="black" stroke-width="0.5" fill="#aaffff" cx="588.0" cy="13.0" r="1.0"/>
     <text stroke="none" x="588.0" y="13.0" font-size="20.0" font-family="helvetica">Viridibacillus anli 433-D9 (AY268991)</text>
    </g>
    <g>
     <circle stroke="black" stroke-width="0.5" fill="#aaffff" cx="599.0" cy="346.0" r="1.0"/>
     <text stroke="none" x="599.0" y="346.0" font-size="10.0" font-family="helvetica">NT1.20</text>
    </g>
    <g>
     <circle stroke="black" stroke-width="0.5" fill="#aaffff" cx="616.0" cy="218.0" r="1.0"/>
     <text stroke="none" x="616.0" y="218.0" font-size="10.0" font-family="helvetica">NT1.21</text>
    </g>
    <g>
     <circle stroke="black" stroke-width="0.5" fill="#aaffff" cx="667.0" cy="362.0" r="1.0"/>
     <text stroke="none" x="667.0" y="362.0" font-size="20.0" font-family="helvetica">Caryophanon latum NCIMB 9533T (X70314)</text>
    </g>
    <g>
     <circle stroke="black" stroke-width="0.5" fill="#aaffff" cx="670.0" cy="141.0" r="1.0"/>
     <text stroke="none" x="670.0" y="141.0" font-size="10.0" font-family="helvetica">NT1.23</text>
    </g>
    <g>
     <circle stroke="black" stroke-width="0.5" fill="#aaffff" cx="689.0" cy="394.0" r="1.0"/>
     <text stroke="none" x="689.0" y="394.0" font-size="20.0" font-family="helvetica"> Bacillus silvestris HR3-23T (AJ006086)</text>
    </g>
    <g>
     <circle stroke="black" stroke-width="0.5" fill="#aaffff" cx="694.0" cy="330.0" r="1.0"/>
     <text stroke="none" x="694.0" y="330.0" font-size="20.0" font-family="helvetica">Caryophanon tenue NCDO 2324T (X70315)</text>
    </g>
    <g>
     <circle stroke="black" stroke-width="0.5" fill="#aaffff" cx="725.0" cy="236.0" r="1.0"/>
     <text stroke="none" x="725.0" y="236.0" font-size="20.0" font-family="helvetica">Kurthla gibsonii NCIMB 9758T (X70320)</text>
    </g>
    <g>
     <circle stroke="black" stroke-width="0.5" fill="#aaffff" cx="728.0" cy="172.0" r="1.0"/>
     <text stroke="none" x="728.0" y="172.0" font-size="20.0" font-family="helvetica">Kurthia sibirlca DSM 4747T (AJ605774)</text>
    </g>
    <g>
     <circle stroke="black" stroke-width="0.5" fill="#aaffff" cx="784.0" cy="108.0" r="1.0"/>
     <text stroke="none" x="784.0" y="108.0" font-size="20.0" font-family="helvetica">Viridibacillus neidei BD-87T (AF169520)</text>
    </g>
    <g>
     <circle stroke="black" stroke-width="0.5" fill="#aaffff" cx="842.0" cy="204.0" r="1.0"/>
     <text stroke="none" x="842.0" y="204.0" font-size="10.0" font-family="helvetica">NT1.29</text>
    </g>
    <g>
     <circle stroke="black" stroke-width="0.5" fill="#aaffff" cx="3.0" cy="471.0" r="1.0"/>
     <text stroke="none" x="3.0" y="471.0" font-size="10.0" font-family="helvetica">NT1.30</text>
    </g>
    <line stroke="black" x1="588.0" y1="13.0" x2="586.0" y2="31.0" stroke-width="0.5"/>
    <line stroke="black" x1="587.0" y1="44.0" x2="586.0" y2="31.0" stroke-width="0.5"/>
    <line stroke="black" x1="584.0" y1="76.0" x2="577.0" y2="62.0" stroke-width="0.5"/>
    <line stroke="black" x1="784.0" y1="108.0" x2="507.0" y2="94.0" stroke-width="0.5"/>
    <line stroke="black" x1="728.0" y1="172.0" x2="527.0" y2="187.0" stroke-width="0.5"/>
    <line stroke="black" x1="725.0" y1="236.0" x2="616.0" y2="218.0" stroke-width="0.5"/>
    <line stroke="black" x1="526.0" y1="267.0" x2="471.0" y2="282.0" stroke-width="0.5"/>
    <line stroke="black" x1="526.0" y1="299.0" x2="471.0" y2="282.0" stroke-width="0.5"/>
    <line stroke="black" x1="456.0" y1="425.0" x2="432.0" y2="439.0" stroke-width="0.5"/>
    <line stroke="black" x1="568.0" y1="457.0" x2="432.0" y2="439.0" stroke-width="0.5"/>
    <line stroke="black" x1="689.0" y1="394.0" x2="402.0" y2="376.0" stroke-width="0.5"/>
    <line stroke="black" x1="694.0" y1="330.0" x2="599.0" y2="346.0" stroke-width="0.5"/>
    <line stroke="black" x1="586.0" y1="31.0" x2="577.0" y2="62.0" stroke-width="0.5"/>
    <line stroke="black" x1="577.0" y1="62.0" x2="507.0" y2="94.0" stroke-width="0.5"/>
    <line stroke="black" x1="507.0" y1="94.0" x2="422.0" y2="125.0" stroke-width="0.5"/>
    <line stroke="black" x1="422.0" y1="125.0" x2="265.0" y2="313.0" stroke-width="0.5"/>
    <line stroke="black" x1="459.0" y1="155.0" x2="527.0" y2="187.0" stroke-width="0.5"/>
    <line stroke="black" x1="265.0" y1="313.0" x2="216.0" y2="409.0" stroke-width="0.5"/>
    <line stroke="black" x1="265.0" y1="313.0" x2="471.0" y2="282.0" stroke-width="0.5"/>
    <line stroke="black" x1="265.0" y1="313.0" x2="402.0" y2="376.0" stroke-width="0.5"/>
    <line stroke="black" x1="216.0" y1="409.0" x2="432.0" y2="439.0" stroke-width="0.5"/>
    <line stroke="black" x1="402.0" y1="376.0" x2="599.0" y2="346.0" stroke-width="0.5"/>
    <line stroke="black" x1="3.0" y1="471.0" x2="507.0" y2="534.0" stroke-width="0.5"/>
    <line stroke="black" x1="3.0" y1="471.0" x2="216.0" y2="409.0" stroke-width="0.5"/>
    <line stroke="black" x1="667.0" y1="362.0" x2="599.0" y2="346.0" stroke-width="0.5"/>
   </g>
  </g>
 </svg>
</svg>
