<?xml version="1.0" encoding="UTF-8"?>
<svg height="800.0" width="700.0" xmlns="http://www.w3.org/2000/svg">
 <svg>
  <g>
   <g>
    <g>
     <circle stroke="black" stroke-width="0.5" fill="#aaffff" cx="15.0" cy="442.0" r="1.0"/>
     <text stroke="none" x="15.0" y="442.0" font-size="10.0" font-family="helvetica">NT1.1</text>
    </g>
    <g>
     <circle stroke="black" stroke-width="0.5" fill="#aaffff" cx="44.0" cy="111.0" r="1.0"/>
     <text stroke="none" x="44.0" y="111.0" font-size="10.0" font-family="helvetica">NT1.2</text>
    </g>
    <g>
     <circle stroke="black" stroke-width="0.5" fill="#aaffff" cx="56.0" cy="256.0" r="1.0"/>
     <text stroke="none" x="56.0" y="256.0" font-size="10.0" font-family="helvetica">NT1.3</text>
    </g>
    <g>
     <circle stroke="black" stroke-width="0.5" fill="#aaffff" cx="90.0" cy="310.0" r="1.0"/>
     <text stroke="none" x="90.0" y="310.0" font-size="10.0" font-family="helvetica">NT1.4</text>
    </g>
    <g>
     <circle stroke="black" stroke-width="0.5" fill="#aaffff" cx="99.0" cy="361.0" r="1.0"/>
     <text stroke="none" x="99.0" y="361.0" font-size="10.0" font-family="helvetica">NT1.5</text>
    </g>
    <g>
     <circle stroke="black" stroke-width="0.5" fill="#aaffff" cx="129.0" cy="405.0" r="1.0"/>
     <text stroke="none" x="129.0" y="405.0" font-size="10.0" font-family="helvetica">NT1.6</text>
    </g>
    <g>
     <circle stroke="black" stroke-width="0.5" fill="#aaffff" cx="156.0" cy="630.0" r="1.0"/>
     <text stroke="none" x="156.0" y="630.0" font-size="10.0" font-family="helvetica">NT1.7</text>
    </g>
    <g>
     <circle stroke="black" stroke-width="0.5" fill="#aaffff" cx="171.0" cy="737.0" r="1.0"/>
     <text stroke="none" x="171.0" y="737.0" font-size="20.0" font-family="helvetica">77</text>
    </g>
    <g>
     <circle stroke="black" stroke-width="0.5" fill="#aaffff" cx="177.0" cy="525.0" r="1.0"/>
     <text stroke="none" x="177.0" y="525.0" font-size="10.0" font-family="helvetica">NT1.9</text>
    </g>
    <g>
     <circle stroke="black" stroke-width="0.5" fill="#aaffff" cx="181.0" cy="818.0" r="1.0"/>
     <text stroke="none" x="181.0" y="818.0" font-size="20.0" font-family="helvetica">65</text>
    </g>
    <g>
     <circle stroke="black" stroke-width="0.5" fill="#aaffff" cx="183.0" cy="141.0" r="1.0"/>
     <text stroke="none" x="183.0" y="141.0" font-size="20.0" font-family="helvetica">Leifsonia aquatica DSM 2014GT (X77450)</text>
    </g>
    <g>
     <circle stroke="black" stroke-width="0.5" fill="#aaffff" cx="185.0" cy="200.0" r="1.0"/>
     <text stroke="none" x="185.0" y="200.0" font-size="20.0" font-family="helvetica">Curtobacterium citreum DSM 2O528T (X77436)</text>
    </g>
    <g>
     <circle stroke="black" stroke-width="0.5" fill="#aaffff" cx="200.0" cy="259.0" r="1.0"/>
     <text stroke="none" x="200.0" y="259.0" font-size="20.0" font-family="helvetica">Frigoribacterium faeni strain 801T (Y18807)</text>
    </g>
    <g>
     <circle stroke="black" stroke-width="0.5" fill="#aaffff" cx="201.0" cy="23.0" r="1.0"/>
     <text stroke="none" x="201.0" y="23.0" font-size="20.0" font-family="helvetica">Agromyces ramosus DSM 43O45T (X77447)</text>
    </g>
    <g>
     <circle stroke="black" stroke-width="0.5" fill="#aaffff" cx="203.0" cy="318.0" r="1.0"/>
     <text stroke="none" x="203.0" y="318.0" font-size="20.0" font-family="helvetica">Rathayibacter rathayi DSM 7485T (X77439)</text>
    </g>
    <g>
     <circle stroke="black" stroke-width="0.5" fill="#aaffff" cx="204.0" cy="658.0" r="1.0"/>
     <text stroke="none" x="204.0" y="658.0" font-size="10.0" font-family="helvetica">NT1.16</text>
    </g>
    <g>
     <circle stroke="black" stroke-width="0.5" fill="#aaffff" cx="216.0" cy="849.0" r="1.0"/>
     <text stroke="none" x="216.0" y="849.0" font-size="20.0" font-family="helvetica"/>
    </g>
    <g>
     <circle stroke="black" stroke-width="0.5" fill="#aaffff" cx="219.0" cy="700.0" r="1.0"/>
     <text stroke="none" x="219.0" y="700.0" font-size="10.0" font-family="helvetica">NT1.18</text>
    </g>
    <g>
     <circle stroke="black" stroke-width="0.5" fill="#aaffff" cx="224.0" cy="495.0" r="1.0"/>
     <text stroke="none" x="224.0" y="495.0" font-size="20.0" font-family="helvetica">Leucobacterluti strain RFEST (AM072819)</text>
    </g>
    <g>
     <circle stroke="black" stroke-width="0.5" fill="#aaffff" cx="228.0" cy="613.0" r="1.0"/>
     <text stroke="none" x="228.0" y="613.0" font-size="20.0" font-family="helvetica">Leucobacter aridicollis strain L-9T (AJ781047)</text>
    </g>
    <g>
     <circle stroke="black" stroke-width="0.5" fill="#aaffff" cx="237.0" cy="554.0" r="1.0"/>
     <text stroke="none" x="237.0" y="554.0" font-size="20.0" font-family="helvetica">Leucobacter chromiireducens strain L-1T (AJ781046)</text>
    </g>
    <g>
     <circle stroke="black" stroke-width="0.5" fill="#aaffff" cx="242.0" cy="672.0" r="1.0"/>
     <text stroke="none" x="242.0" y="672.0" font-size="20.0" font-family="helvetica">Leucobacter komagatae NBRC 15245T (AJ746337)</text>
    </g>
    <g>
     <circle stroke="black" stroke-width="0.5" fill="#aaffff" cx="249.0" cy="436.0" r="1.0"/>
     <text stroke="none" x="249.0" y="436.0" font-size="20.0" font-family="helvetica">Clavibacter michiganensis DSM 46364T (X77435)</text>
    </g>
    <g>
     <circle stroke="black" stroke-width="0.5" fill="#aaffff" cx="253.0" cy="377.0" r="1.0"/>
     <text stroke="none" x="253.0" y="377.0" font-size="20.0" font-family="helvetica">Subtercola frigoramans DSM 13057T (AF224723)</text>
    </g>
    <g>
     <circle stroke="black" stroke-width="0.5" fill="#aaffff" cx="267.0" cy="82.0" r="1.0"/>
     <text stroke="none" x="267.0" y="82.0" font-size="20.0" font-family="helvetica">Microbacterium lacticum DSM 20427T (X77441)</text>
    </g>
    <g>
     <circle stroke="black" stroke-width="0.5" fill="#aaffff" cx="291.0" cy="790.0" r="1.0"/>
     <text stroke="none" x="291.0" y="790.0" font-size="20.0" font-family="helvetica">Leucobacter alluvii strain RB1OT (AM072820)</text>
    </g>
    <g>
     <circle stroke="black" stroke-width="0.5" fill="#aaffff" cx="303.0" cy="731.0" r="1.0"/>
     <text stroke="none" x="303.0" y="731.0" font-size="20.0" font-family="helvetica">Leucobacter albus IAM 14851T (AB012594)</text>
    </g>
    <line stroke="black" x1="267.0" y1="82.0" x2="44.0" y2="111.0" stroke-width="0.5"/>
    <line stroke="black" x1="237.0" y1="554.0" x2="177.0" y2="525.0" stroke-width="0.5"/>
    <line stroke="black" x1="253.0" y1="377.0" x2="129.0" y2="405.0" stroke-width="0.5"/>
    <line stroke="black" x1="228.0" y1="613.0" x2="204.0" y2="658.0" stroke-width="0.5"/>
    <line stroke="black" x1="303.0" y1="731.0" x2="219.0" y2="700.0" stroke-width="0.5"/>
    <line stroke="black" x1="15.0" y1="442.0" x2="156.0" y2="630.0" stroke-width="0.5"/>
    <line stroke="black" x1="15.0" y1="442.0" x2="56.0" y2="256.0" stroke-width="0.5"/>
    <line stroke="black" x1="56.0" y1="256.0" x2="90.0" y2="310.0" stroke-width="0.5"/>
    <line stroke="black" x1="90.0" y1="310.0" x2="99.0" y2="361.0" stroke-width="0.5"/>
    <line stroke="black" x1="156.0" y1="630.0" x2="171.0" y2="737.0" stroke-width="0.5"/>
    <line stroke="black" x1="156.0" y1="630.0" x2="177.0" y2="525.0" stroke-width="0.5"/>
    <line stroke="black" x1="99.0" y1="361.0" x2="129.0" y2="405.0" stroke-width="0.5"/>
    <line stroke="black" x1="171.0" y1="737.0" x2="181.0" y2="818.0" stroke-width="0.5"/>
    <line stroke="black" x1="171.0" y1="737.0" x2="204.0" y2="658.0" stroke-width="0.5"/>
    <line stroke="black" x1="204.0" y1="658.0" x2="219.0" y2="700.0" stroke-width="0.5"/>
    <line stroke="black" x1="44.0" y1="111.0" x2="15.0" y2="442.0" stroke-width="0.5"/>
    <line stroke="black" x1="185.0" y1="200.0" x2="56.0" y2="256.0" stroke-width="0.5"/>
    <line stroke="black" x1="201.0" y1="23.0" x2="44.0" y2="111.0" stroke-width="0.5"/>
    <line stroke="black" x1="183.0" y1="141.0" x2="44.0" y2="111.0" stroke-width="0.5"/>
    <line stroke="black" x1="200.0" y1="259.0" x2="90.0" y2="310.0" stroke-width="0.5"/>
    <line stroke="black" x1="203.0" y1="318.0" x2="99.0" y2="361.0" stroke-width="0.5"/>
    <line stroke="black" x1="249.0" y1="436.0" x2="129.0" y2="405.0" stroke-width="0.5"/>
    <line stroke="black" x1="224.0" y1="495.0" x2="177.0" y2="525.0" stroke-width="0.5"/>
    <line stroke="black" x1="216.0" y1="849.0" x2="181.0" y2="818.0" stroke-width="0.5"/>
    <line stroke="black" x1="291.0" y1="790.0" x2="181.0" y2="818.0" stroke-width="0.5"/>
    <line stroke="black" x1="242.0" y1="672.0" x2="219.0" y2="700.0" stroke-width="0.5"/>
   </g>
  </g>
 </svg>
</svg>
