<?xml version="1.0" encoding="UTF-8"?>
<svg height="800.0" width="700.0" xmlns="http://www.w3.org/2000/svg">
 <svg>
  <g>
   <g>
    <g>
     <circle stroke="black" stroke-width="0.5" fill="#aaffff" cx="42.0" cy="99.0" r="1.0"/>
     <text stroke="none" x="42.0" y="99.0" font-size="10.0" font-family="helvetica">NT1.1</text>
    </g>
    <g>
     <circle stroke="black" stroke-width="0.5" fill="#aaffff" cx="85.0" cy="151.0" r="1.0"/>
     <text stroke="none" x="85.0" y="151.0" font-size="10.0" font-family="helvetica">NT1.2</text>
    </g>
    <g>
     <circle stroke="black" stroke-width="0.5" fill="#aaffff" cx="90.0" cy="230.0" r="1.0"/>
     <text stroke="none" x="90.0" y="230.0" font-size="20.0" font-family="helvetica"/>
    </g>
    <g>
     <circle stroke="black" stroke-width="0.5" fill="#aaffff" cx="94.0" cy="228.0" r="1.0"/>
     <text stroke="none" x="94.0" y="228.0" font-size="10.0" font-family="helvetica">NT1.4</text>
    </g>
    <g>
     <circle stroke="black" stroke-width="0.5" fill="#aaffff" cx="111.0" cy="83.0" r="1.0"/>
     <text stroke="none" x="111.0" y="83.0" font-size="20.0" font-family="helvetica"/>
    </g>
    <g>
     <circle stroke="black" stroke-width="0.5" fill="#aaffff" cx="131.0" cy="10.0" r="1.0"/>
     <text stroke="none" x="131.0" y="10.0" font-size="20.0" font-family="helvetica">G. sinesedis DSM 444557 (AF380834)</text>
    </g>
    <g>
     <circle stroke="black" stroke-width="0.5" fill="#aaffff" cx="132.0" cy="47.0" r="1.0"/>
     <text stroke="none" x="132.0" y="47.0" font-size="20.0" font-family="helvetica">G. palyisoprenivorans DSM 443027 (Y18310)</text>
    </g>
    <g>
     <circle stroke="black" stroke-width="0.5" fill="#aaffff" cx="135.0" cy="317.0" r="1.0"/>
     <text stroke="none" x="135.0" y="317.0" font-size="10.0" font-family="helvetica">NT1.8</text>
    </g>
    <g>
     <circle stroke="black" stroke-width="0.5" fill="#aaffff" cx="171.0" cy="444.0" r="1.0"/>
     <text stroke="none" x="171.0" y="444.0" font-size="10.0" font-family="helvetica">NT1.9</text>
    </g>
    <g>
     <circle stroke="black" stroke-width="0.5" fill="#aaffff" cx="184.0" cy="121.0" r="1.0"/>
     <text stroke="none" x="184.0" y="121.0" font-size="20.0" font-family="helvetica">G. rhizosphera IFO 16247 (ABO23368)</text>
    </g>
    <g>
     <circle stroke="black" stroke-width="0.5" fill="#aaffff" cx="206.0" cy="582.0" r="1.0"/>
     <text stroke="none" x="206.0" y="582.0" font-size="10.0" font-family="helvetica">NT1.11</text>
    </g>
    <g>
     <circle stroke="black" stroke-width="0.5" fill="#aaffff" cx="234.0" cy="305.0" r="1.0"/>
     <text stroke="none" x="234.0" y="305.0" font-size="20.0" font-family="helvetica"> G. terrae DSM 432497 (X79286)</text>
    </g>
    <g>
     <circle stroke="black" stroke-width="0.5" fill="#aaffff" cx="250.0" cy="190.0" r="1.0"/>
     <text stroke="none" x="250.0" y="190.0" font-size="10.0" font-family="helvetica">NT1.13</text>
    </g>
    <g>
     <circle stroke="black" stroke-width="0.5" fill="#aaffff" cx="251.0" cy="157.0" r="1.0"/>
     <text stroke="none" x="251.0" y="157.0" font-size="20.0" font-family="helvetica"/>
    </g>
    <g>
     <circle stroke="black" stroke-width="0.5" fill="#aaffff" cx="257.0" cy="432.0" r="1.0"/>
     <text stroke="none" x="257.0" y="432.0" font-size="10.0" font-family="helvetica">NT1.15</text>
    </g>
    <g>
     <circle stroke="black" stroke-width="0.5" fill="#aaffff" cx="260.0" cy="734.0" r="1.0"/>
     <text stroke="none" x="260.0" y="734.0" font-size="10.0" font-family="helvetica">NT1.16</text>
    </g>
    <g>
     <circle stroke="black" stroke-width="0.5" fill="#aaffff" cx="273.0" cy="222.0" r="1.0"/>
     <text stroke="none" x="273.0" y="222.0" font-size="20.0" font-family="helvetica">84'</text>
    </g>
    <g>
     <circle stroke="black" stroke-width="0.5" fill="#aaffff" cx="278.0" cy="249.0" r="1.0"/>
     <text stroke="none" x="278.0" y="249.0" font-size="20.0" font-family="helvetica">84'</text>
    </g>
    <g>
     <circle stroke="black" stroke-width="0.5" fill="#aaffff" cx="284.0" cy="194.0" r="1.0"/>
     <text stroke="none" x="284.0" y="194.0" font-size="20.0" font-family="helvetica"/>
    </g>
    <g>
     <circle stroke="black" stroke-width="0.5" fill="#aaffff" cx="285.0" cy="268.0" r="1.0"/>
     <text stroke="none" x="285.0" y="268.0" font-size="20.0" font-family="helvetica"/>
    </g>
    <g>
     <circle stroke="black" stroke-width="0.5" fill="#aaffff" cx="285.0" cy="232.0" r="1.0"/>
     <text stroke="none" x="285.0" y="232.0" font-size="20.0" font-family="helvetica">G. sputi DSM 438967 (X80634)</text>
    </g>
    <g>
     <circle stroke="black" stroke-width="0.5" fill="#aaffff" cx="291.0" cy="693.0" r="1.0"/>
     <text stroke="none" x="291.0" y="693.0" font-size="10.0" font-family="helvetica">NT1.22</text>
    </g>
    <g>
     <circle stroke="black" stroke-width="0.5" fill="#aaffff" cx="302.0" cy="520.0" r="1.0"/>
     <text stroke="none" x="302.0" y="520.0" font-size="10.0" font-family="helvetica">NT1.23</text>
    </g>
    <g>
     <circle stroke="black" stroke-width="0.5" fill="#aaffff" cx="307.0" cy="342.0" r="1.0"/>
     <text stroke="none" x="307.0" y="342.0" font-size="20.0" font-family="helvetica"> G. desulfuricans 213E7 (AF101416)</text>
    </g>
    <g>
     <circle stroke="black" stroke-width="0.5" fill="#aaffff" cx="317.0" cy="619.0" r="1.0"/>
     <text stroke="none" x="317.0" y="619.0" font-size="10.0" font-family="helvetica">NT1.25</text>
    </g>
    <g>
     <circle stroke="black" stroke-width="0.5" fill="#aaffff" cx="322.0" cy="421.0" r="1.0"/>
     <text stroke="none" x="322.0" y="421.0" font-size="10.0" font-family="helvetica">NT1.26</text>
    </g>
    <g>
     <circle stroke="black" stroke-width="0.5" fill="#aaffff" cx="324.0" cy="379.0" r="1.0"/>
     <text stroke="none" x="324.0" y="379.0" font-size="20.0" font-family="helvetica"/>
    </g>
    <g>
     <circle stroke="black" stroke-width="0.5" fill="#aaffff" cx="333.0" cy="462.0" r="1.0"/>
     <text stroke="none" x="333.0" y="462.0" font-size="10.0" font-family="helvetica">NT1.28</text>
    </g>
    <g>
     <circle stroke="black" stroke-width="0.5" fill="#aaffff" cx="348.0" cy="637.0" r="1.0"/>
     <text stroke="none" x="348.0" y="637.0" font-size="20.0" font-family="helvetica"> G. amicalis IEGM7 (AF101418)</text>
    </g>
    <g>
     <circle stroke="black" stroke-width="0.5" fill="#aaffff" cx="351.0" cy="416.0" r="1.0"/>
     <text stroke="none" x="351.0" y="416.0" font-size="20.0" font-family="helvetica"> G. namibiensis NAM-BNO63AT (AF380930)</text>
    </g>
    <g>
     <circle stroke="black" stroke-width="0.5" fill="#aaffff" cx="352.0" cy="508.0" r="1.0"/>
     <text stroke="none" x="352.0" y="508.0" font-size="10.0" font-family="helvetica">NT1.31</text>
    </g>
    <g>
     <circle stroke="black" stroke-width="0.5" fill="#aaffff" cx="357.0" cy="712.0" r="1.0"/>
     <text stroke="none" x="357.0" y="712.0" font-size="20.0" font-family="helvetica"/>
    </g>
    <g>
     <circle stroke="black" stroke-width="0.5" fill="#aaffff" cx="373.0" cy="776.0" r="1.0"/>
     <text stroke="none" x="373.0" y="776.0" font-size="10.0" font-family="helvetica">NT1.33</text>
    </g>
    <g>
     <circle stroke="black" stroke-width="0.5" fill="#aaffff" cx="373.0" cy="472.0" r="1.0"/>
     <text stroke="none" x="373.0" y="472.0" font-size="10.0" font-family="helvetica">NT1.34</text>
    </g>
    <g>
     <circle stroke="black" stroke-width="0.5" fill="#aaffff" cx="375.0" cy="748.0" r="1.0"/>
     <text stroke="none" x="375.0" y="748.0" font-size="20.0" font-family="helvetica"/>
    </g>
    <g>
     <circle stroke="black" stroke-width="0.5" fill="#aaffff" cx="375.0" cy="490.0" r="1.0"/>
     <text stroke="none" x="375.0" y="490.0" font-size="20.0" font-family="helvetica">G. westfalica Kb27 (AJ312907)</text>
    </g>
    <g>
     <circle stroke="black" stroke-width="0.5" fill="#aaffff" cx="375.0" cy="786.0" r="1.0"/>
     <text stroke="none" x="375.0" y="786.0" font-size="10.0" font-family="helvetica">NT1.37</text>
    </g>
    <g>
     <circle stroke="black" stroke-width="0.5" fill="#aaffff" cx="385.0" cy="786.0" r="1.0"/>
     <text stroke="none" x="385.0" y="786.0" font-size="20.0" font-family="helvetica"> Strain J47 (AY650265)</text>
    </g>
    <g>
     <circle stroke="black" stroke-width="0.5" fill="#aaffff" cx="391.0" cy="822.0" r="1.0"/>
     <text stroke="none" x="391.0" y="822.0" font-size="20.0" font-family="helvetica"/>
    </g>
    <g>
     <circle stroke="black" stroke-width="0.5" fill="#aaffff" cx="396.0" cy="453.0" r="1.0"/>
     <text stroke="none" x="396.0" y="453.0" font-size="20.0" font-family="helvetica"/>
    </g>
    <g>
     <circle stroke="black" stroke-width="0.5" fill="#aaffff" cx="430.0" cy="545.0" r="1.0"/>
     <text stroke="none" x="430.0" y="545.0" font-size="20.0" font-family="helvetica">70'</text>
    </g>
    <g>
     <circle stroke="black" stroke-width="0.5" fill="#aaffff" cx="487.0" cy="601.0" r="1.0"/>
     <text stroke="none" x="487.0" y="601.0" font-size="20.0" font-family="helvetica"/>
    </g>
    <g>
     <circle stroke="black" stroke-width="0.5" fill="#aaffff" cx="503.0" cy="674.0" r="1.0"/>
     <text stroke="none" x="503.0" y="674.0" font-size="20.0" font-family="helvetica"/>
    </g>
    <g>
     <circle stroke="black" stroke-width="0.5" fill="#aaffff" cx="509.0" cy="527.0" r="1.0"/>
     <text stroke="none" x="509.0" y="527.0" font-size="20.0" font-family="helvetica">G. hydrophobica DSM 440157 (X87340)</text>
    </g>
    <g>
     <circle stroke="black" stroke-width="0.5" fill="#aaffff" cx="511.0" cy="564.0" r="1.0"/>
     <text stroke="none" x="511.0" y="564.0" font-size="20.0" font-family="helvetica"> G. sihwensis DSM 445767 (AJ416151)</text>
    </g>
    <line stroke="black" x1="131.0" y1="10.0" x2="42.0" y2="99.0" stroke-width="0.5"/>
    <line stroke="black" x1="132.0" y1="47.0" x2="42.0" y2="99.0" stroke-width="0.5"/>
    <line stroke="black" x1="111.0" y1="83.0" x2="85.0" y2="151.0" stroke-width="0.5"/>
    <line stroke="black" x1="94.0" y1="228.0" x2="90.0" y2="230.0" stroke-width="0.5"/>
    <line stroke="black" x1="184.0" y1="121.0" x2="94.0" y2="228.0" stroke-width="0.5"/>
    <line stroke="black" x1="251.0" y1="157.0" x2="250.0" y2="190.0" stroke-width="0.5"/>
    <line stroke="black" x1="284.0" y1="194.0" x2="273.0" y2="222.0" stroke-width="0.5"/>
    <line stroke="black" x1="285.0" y1="232.0" x2="278.0" y2="249.0" stroke-width="0.5"/>
    <line stroke="black" x1="234.0" y1="305.0" x2="171.0" y2="444.0" stroke-width="0.5"/>
    <line stroke="black" x1="307.0" y1="342.0" x2="257.0" y2="432.0" stroke-width="0.5"/>
    <line stroke="black" x1="357.0" y1="712.0" x2="291.0" y2="693.0" stroke-width="0.5"/>
    <line stroke="black" x1="385.0" y1="786.0" x2="375.0" y2="786.0" stroke-width="0.5"/>
    <line stroke="black" x1="375.0" y1="748.0" x2="373.0" y2="776.0" stroke-width="0.5"/>
    <line stroke="black" x1="391.0" y1="822.0" x2="375.0" y2="786.0" stroke-width="0.5"/>
    <line stroke="black" x1="348.0" y1="637.0" x2="317.0" y2="619.0" stroke-width="0.5"/>
    <line stroke="black" x1="324.0" y1="379.0" x2="322.0" y2="421.0" stroke-width="0.5"/>
    <line stroke="black" x1="503.0" y1="674.0" x2="291.0" y2="693.0" stroke-width="0.5"/>
    <line stroke="black" x1="351.0" y1="416.0" x2="333.0" y2="462.0" stroke-width="0.5"/>
    <line stroke="black" x1="487.0" y1="601.0" x2="317.0" y2="619.0" stroke-width="0.5"/>
    <line stroke="black" x1="375.0" y1="490.0" x2="373.0" y2="472.0" stroke-width="0.5"/>
    <line stroke="black" x1="396.0" y1="453.0" x2="373.0" y2="472.0" stroke-width="0.5"/>
    <line stroke="black" x1="509.0" y1="527.0" x2="430.0" y2="545.0" stroke-width="0.5"/>
    <line stroke="black" x1="511.0" y1="564.0" x2="430.0" y2="545.0" stroke-width="0.5"/>
    <line stroke="black" x1="85.0" y1="151.0" x2="94.0" y2="228.0" stroke-width="0.5"/>
    <line stroke="black" x1="94.0" y1="228.0" x2="135.0" y2="317.0" stroke-width="0.5"/>
    <line stroke="black" x1="135.0" y1="317.0" x2="171.0" y2="444.0" stroke-width="0.5"/>
    <line stroke="black" x1="135.0" y1="317.0" x2="250.0" y2="190.0" stroke-width="0.5"/>
    <line stroke="black" x1="171.0" y1="444.0" x2="206.0" y2="582.0" stroke-width="0.5"/>
    <line stroke="black" x1="250.0" y1="190.0" x2="273.0" y2="222.0" stroke-width="0.5"/>
    <line stroke="black" x1="273.0" y1="222.0" x2="278.0" y2="249.0" stroke-width="0.5"/>
    <line stroke="black" x1="206.0" y1="582.0" x2="260.0" y2="734.0" stroke-width="0.5"/>
    <line stroke="black" x1="206.0" y1="582.0" x2="257.0" y2="432.0" stroke-width="0.5"/>
    <line stroke="black" x1="257.0" y1="432.0" x2="302.0" y2="520.0" stroke-width="0.5"/>
    <line stroke="black" x1="260.0" y1="734.0" x2="373.0" y2="776.0" stroke-width="0.5"/>
    <line stroke="black" x1="260.0" y1="734.0" x2="291.0" y2="693.0" stroke-width="0.5"/>
    <line stroke="black" x1="302.0" y1="520.0" x2="317.0" y2="619.0" stroke-width="0.5"/>
    <line stroke="black" x1="302.0" y1="520.0" x2="322.0" y2="421.0" stroke-width="0.5"/>
    <line stroke="black" x1="373.0" y1="776.0" x2="375.0" y2="786.0" stroke-width="0.5"/>
    <line stroke="black" x1="322.0" y1="421.0" x2="333.0" y2="462.0" stroke-width="0.5"/>
    <line stroke="black" x1="333.0" y1="462.0" x2="352.0" y2="508.0" stroke-width="0.5"/>
    <line stroke="black" x1="352.0" y1="508.0" x2="430.0" y2="545.0" stroke-width="0.5"/>
    <line stroke="black" x1="352.0" y1="508.0" x2="373.0" y2="472.0" stroke-width="0.5"/>
    <line stroke="black" x1="42.0" y1="99.0" x2="85.0" y2="151.0" stroke-width="0.5"/>
    <line stroke="black" x1="285.0" y1="268.0" x2="278.0" y2="249.0" stroke-width="0.5"/>
   </g>
  </g>
 </svg>
</svg>
