<?xml version="1.0" encoding="UTF-8"?>
<svg height="800.0" width="700.0" xmlns="http://www.w3.org/2000/svg">
 <svg>
  <g>
   <g>
    <g>
     <circle stroke="black" stroke-width="0.5" fill="#aaffff" cx="3.0" cy="186.0" r="1.0"/>
     <text stroke="none" x="3.0" y="186.0" font-size="20.0" font-family="helvetica"/>
    </g>
    <g>
     <circle stroke="black" stroke-width="0.5" fill="#aaffff" cx="23.0" cy="186.0" r="1.0"/>
     <text stroke="none" x="23.0" y="186.0" font-size="10.0" font-family="helvetica">NT1.2</text>
    </g>
    <g>
     <circle stroke="black" stroke-width="0.5" fill="#aaffff" cx="40.0" cy="355.0" r="1.0"/>
     <text stroke="none" x="40.0" y="355.0" font-size="10.0" font-family="helvetica">NT1.3</text>
    </g>
    <g>
     <circle stroke="black" stroke-width="0.5" fill="#aaffff" cx="60.0" cy="133.0" r="1.0"/>
     <text stroke="none" x="60.0" y="133.0" font-size="10.0" font-family="helvetica">NT1.4</text>
    </g>
    <g>
     <circle stroke="black" stroke-width="0.5" fill="#aaffff" cx="69.0" cy="577.0" r="1.0"/>
     <text stroke="none" x="69.0" y="577.0" font-size="20.0" font-family="helvetica">33</text>
    </g>
    <g>
     <circle stroke="black" stroke-width="0.5" fill="#aaffff" cx="88.0" cy="473.0" r="1.0"/>
     <text stroke="none" x="88.0" y="473.0" font-size="10.0" font-family="helvetica">NT1.6</text>
    </g>
    <g>
     <circle stroke="black" stroke-width="0.5" fill="#aaffff" cx="124.0" cy="188.0" r="1.0"/>
     <text stroke="none" x="124.0" y="188.0" font-size="10.0" font-family="helvetica">NT1.7</text>
    </g>
    <g>
     <circle stroke="black" stroke-width="0.5" fill="#aaffff" cx="126.0" cy="541.0" r="1.0"/>
     <text stroke="none" x="126.0" y="541.0" font-size="10.0" font-family="helvetica">NT1.8</text>
    </g>
    <g>
     <circle stroke="black" stroke-width="0.5" fill="#aaffff" cx="127.0" cy="683.0" r="1.0"/>
     <text stroke="none" x="127.0" y="683.0" font-size="20.0" font-family="helvetica">100</text>
    </g>
    <g>
     <circle stroke="black" stroke-width="0.5" fill="#aaffff" cx="138.0" cy="716.0" r="1.0"/>
     <text stroke="none" x="138.0" y="716.0" font-size="10.0" font-family="helvetica">NT1.10</text>
    </g>
    <g>
     <circle stroke="black" stroke-width="0.5" fill="#aaffff" cx="147.0" cy="572.0" r="1.0"/>
     <text stroke="none" x="147.0" y="572.0" font-size="20.0" font-family="helvetica">95</text>
    </g>
    <g>
     <circle stroke="black" stroke-width="0.5" fill="#aaffff" cx="159.0" cy="231.0" r="1.0"/>
     <text stroke="none" x="159.0" y="231.0" font-size="10.0" font-family="helvetica">NT1.12</text>
    </g>
    <g>
     <circle stroke="black" stroke-width="0.5" fill="#aaffff" cx="167.0" cy="582.0" r="1.0"/>
     <text stroke="none" x="167.0" y="582.0" font-size="20.0" font-family="helvetica">95</text>
    </g>
    <g>
     <circle stroke="black" stroke-width="0.5" fill="#aaffff" cx="175.0" cy="78.0" r="1.0"/>
     <text stroke="none" x="175.0" y="78.0" font-size="10.0" font-family="helvetica">NT1.14</text>
    </g>
    <g>
     <circle stroke="black" stroke-width="0.5" fill="#aaffff" cx="176.0" cy="746.0" r="1.0"/>
     <text stroke="none" x="176.0" y="746.0" font-size="10.0" font-family="helvetica">NT1.15</text>
    </g>
    <g>
     <circle stroke="black" stroke-width="0.5" fill="#aaffff" cx="176.0" cy="404.0" r="1.0"/>
     <text stroke="none" x="176.0" y="404.0" font-size="10.0" font-family="helvetica">NT1.16</text>
    </g>
    <g>
     <circle stroke="black" stroke-width="0.5" fill="#aaffff" cx="194.0" cy="264.0" r="1.0"/>
     <text stroke="none" x="194.0" y="264.0" font-size="10.0" font-family="helvetica">NT1.17</text>
    </g>
    <g>
     <circle stroke="black" stroke-width="0.5" fill="#aaffff" cx="194.0" cy="772.0" r="1.0"/>
     <text stroke="none" x="194.0" y="772.0" font-size="10.0" font-family="helvetica">NT1.18</text>
    </g>
    <g>
     <circle stroke="black" stroke-width="0.5" fill="#aaffff" cx="203.0" cy="433.0" r="1.0"/>
     <text stroke="none" x="203.0" y="433.0" font-size="10.0" font-family="helvetica">NT1.19</text>
    </g>
    <g>
     <circle stroke="black" stroke-width="0.5" fill="#aaffff" cx="208.0" cy="294.0" r="1.0"/>
     <text stroke="none" x="208.0" y="294.0" font-size="10.0" font-family="helvetica">NT1.20</text>
    </g>
    <g>
     <circle stroke="black" stroke-width="0.5" fill="#aaffff" cx="239.0" cy="320.0" r="1.0"/>
     <text stroke="none" x="239.0" y="320.0" font-size="10.0" font-family="helvetica">NT1.21</text>
    </g>
    <g>
     <circle stroke="black" stroke-width="0.5" fill="#aaffff" cx="248.0" cy="148.0" r="1.0"/>
     <text stroke="none" x="248.0" y="148.0" font-size="10.0" font-family="helvetica">NT1.22</text>
    </g>
    <g>
     <circle stroke="black" stroke-width="0.5" fill="#aaffff" cx="249.0" cy="164.0" r="1.0"/>
     <text stroke="none" x="249.0" y="164.0" font-size="10.0" font-family="helvetica">NT1.23</text>
    </g>
    <g>
     <circle stroke="black" stroke-width="0.5" fill="#aaffff" cx="250.0" cy="131.0" r="1.0"/>
     <text stroke="none" x="250.0" y="131.0" font-size="20.0" font-family="helvetica">Thermoleophilum album ATCC 35263T (AJ458462)</text>
    </g>
    <g>
     <circle stroke="black" stroke-width="0.5" fill="#aaffff" cx="263.0" cy="199.0" r="1.0"/>
     <text stroke="none" x="263.0" y="199.0" font-size="10.0" font-family="helvetica">NT1.25</text>
    </g>
    <g>
     <circle stroke="black" stroke-width="0.5" fill="#aaffff" cx="264.0" cy="465.0" r="1.0"/>
     <text stroke="none" x="264.0" y="465.0" font-size="10.0" font-family="helvetica">NT1.26</text>
    </g>
    <g>
     <circle stroke="black" stroke-width="0.5" fill="#aaffff" cx="265.0" cy="95.0" r="1.0"/>
     <text stroke="none" x="265.0" y="95.0" font-size="10.0" font-family="helvetica">NT1.27</text>
    </g>
    <g>
     <circle stroke="black" stroke-width="0.5" fill="#aaffff" cx="267.0" cy="269.0" r="1.0"/>
     <text stroke="none" x="267.0" y="269.0" font-size="20.0" font-family="helvetica">Conexibacter woesei lD131577T (AJ440237)</text>
    </g>
    <g>
     <circle stroke="black" stroke-width="0.5" fill="#aaffff" cx="272.0" cy="234.0" r="1.0"/>
     <text stroke="none" x="272.0" y="234.0" font-size="10.0" font-family="helvetica">NT1.29</text>
    </g>
    <g>
     <circle stroke="black" stroke-width="0.5" fill="#aaffff" cx="279.0" cy="755.0" r="1.0"/>
     <text stroke="none" x="279.0" y="755.0" font-size="10.0" font-family="helvetica">NT1.30</text>
    </g>
    <g>
     <circle stroke="black" stroke-width="0.5" fill="#aaffff" cx="283.0" cy="303.0" r="1.0"/>
     <text stroke="none" x="283.0" y="303.0" font-size="10.0" font-family="helvetica">NT1.31</text>
    </g>
    <g>
     <circle stroke="black" stroke-width="0.5" fill="#aaffff" cx="286.0" cy="617.0" r="1.0"/>
     <text stroke="none" x="286.0" y="617.0" font-size="10.0" font-family="helvetica">NT1.32</text>
    </g>
    <g>
     <circle stroke="black" stroke-width="0.5" fill="#aaffff" cx="290.0" cy="339.0" r="1.0"/>
     <text stroke="none" x="290.0" y="339.0" font-size="10.0" font-family="helvetica">NT1.33</text>
    </g>
    <g>
     <circle stroke="black" stroke-width="0.5" fill="#aaffff" cx="294.0" cy="582.0" r="1.0"/>
     <text stroke="none" x="294.0" y="582.0" font-size="10.0" font-family="helvetica">NT1.34</text>
    </g>
    <g>
     <circle stroke="black" stroke-width="0.5" fill="#aaffff" cx="296.0" cy="686.0" r="1.0"/>
     <text stroke="none" x="296.0" y="686.0" font-size="20.0" font-family="helvetica">Acidimicrobium ferrooxidans DSM 10331T (U75647)</text>
    </g>
    <g>
     <circle stroke="black" stroke-width="0.5" fill="#aaffff" cx="306.0" cy="791.0" r="1.0"/>
     <text stroke="none" x="306.0" y="791.0" font-size="10.0" font-family="helvetica">NT1.36</text>
    </g>
    <g>
     <circle stroke="black" stroke-width="0.5" fill="#aaffff" cx="310.0" cy="546.0" r="1.0"/>
     <text stroke="none" x="310.0" y="546.0" font-size="20.0" font-family="helvetica">Aeromicrobium erythreum NRRL B-3381T (AFOO5021)</text>
    </g>
    <g>
     <circle stroke="black" stroke-width="0.5" fill="#aaffff" cx="322.0" cy="650.0" r="1.0"/>
     <text stroke="none" x="322.0" y="650.0" font-size="10.0" font-family="helvetica">NT1.38</text>
    </g>
    <g>
     <circle stroke="black" stroke-width="0.5" fill="#aaffff" cx="338.0" cy="60.0" r="1.0"/>
     <text stroke="none" x="338.0" y="60.0" font-size="20.0" font-family="helvetica">Rubrobacter radiotolerans JCM 2153T (U65647)</text>
    </g>
    <g>
     <circle stroke="black" stroke-width="0.5" fill="#aaffff" cx="349.0" cy="407.0" r="1.0"/>
     <text stroke="none" x="349.0" y="407.0" font-size="10.0" font-family="helvetica">NT1.40</text>
    </g>
    <g>
     <circle stroke="black" stroke-width="0.5" fill="#aaffff" cx="353.0" cy="721.0" r="1.0"/>
     <text stroke="none" x="353.0" y="721.0" font-size="10.0" font-family="helvetica">NT1.41</text>
    </g>
    <g>
     <circle stroke="black" stroke-width="0.5" fill="#aaffff" cx="365.0" cy="373.0" r="1.0"/>
     <text stroke="none" x="365.0" y="373.0" font-size="20.0" font-family="helvetica">Atopobium minutum ATCC 33267T (M59059)</text>
    </g>
    <g>
     <circle stroke="black" stroke-width="0.5" fill="#aaffff" cx="377.0" cy="478.0" r="1.0"/>
     <text stroke="none" x="377.0" y="478.0" font-size="20.0" font-family="helvetica">Slackia exigua ATCC 700122T (AF101240)</text>
    </g>
    <g>
     <circle stroke="black" stroke-width="0.5" fill="#aaffff" cx="391.0" cy="19.0" r="1.0"/>
     <text stroke="none" x="391.0" y="19.0" font-size="20.0" font-family="helvetica">Sphaerobacter thermophilus DSM 20745T (AJ420142)</text>
    </g>
    <g>
     <circle stroke="black" stroke-width="0.5" fill="#aaffff" cx="391.0" cy="512.0" r="1.0"/>
     <text stroke="none" x="391.0" y="512.0" font-size="10.0" font-family="helvetica">NT1.45</text>
    </g>
    <g>
     <circle stroke="black" stroke-width="0.5" fill="#aaffff" cx="403.0" cy="443.0" r="1.0"/>
     <text stroke="none" x="403.0" y="443.0" font-size="20.0" font-family="helvetica">Coriobacterium glomerans DSM 2O642T (X79048)</text>
    </g>
    <line stroke="black" x1="3.0" y1="186.0" x2="23.0" y2="186.0" stroke-width="0.5"/>
    <line stroke="black" x1="338.0" y1="60.0" x2="175.0" y2="78.0" stroke-width="0.5"/>
    <line stroke="black" x1="296.0" y1="686.0" x2="138.0" y2="716.0" stroke-width="0.5"/>
    <line stroke="black" x1="377.0" y1="478.0" x2="264.0" y2="465.0" stroke-width="0.5"/>
    <line stroke="black" x1="23.0" y1="186.0" x2="40.0" y2="355.0" stroke-width="0.5"/>
    <line stroke="black" x1="40.0" y1="355.0" x2="69.0" y2="577.0" stroke-width="0.5"/>
    <line stroke="black" x1="40.0" y1="355.0" x2="60.0" y2="133.0" stroke-width="0.5"/>
    <line stroke="black" x1="60.0" y1="133.0" x2="124.0" y2="188.0" stroke-width="0.5"/>
    <line stroke="black" x1="69.0" y1="577.0" x2="88.0" y2="473.0" stroke-width="0.5"/>
    <line stroke="black" x1="88.0" y1="473.0" x2="176.0" y2="404.0" stroke-width="0.5"/>
    <line stroke="black" x1="248.0" y1="148.0" x2="250.0" y2="131.0" stroke-width="0.5"/>
    <line stroke="black" x1="203.0" y1="433.0" x2="264.0" y2="465.0" stroke-width="0.5"/>
    <line stroke="black" x1="391.0" y1="19.0" x2="23.0" y2="186.0" stroke-width="0.5"/>
    <line stroke="black" x1="310.0" y1="546.0" x2="147.0" y2="572.0" stroke-width="0.5"/>
    <line stroke="black" x1="365.0" y1="373.0" x2="176.0" y2="404.0" stroke-width="0.5"/>
    <line stroke="black" x1="267.0" y1="269.0" x2="208.0" y2="294.0" stroke-width="0.5"/>
    <line stroke="black" x1="403.0" y1="443.0" x2="264.0" y2="465.0" stroke-width="0.5"/>
   </g>
  </g>
 </svg>
</svg>
