<?xml version="1.0" encoding="UTF-8"?>
<svg height="800.0" width="700.0" xmlns="http://www.w3.org/2000/svg">
 <svg>
  <g>
   <g>
    <g>
     <circle stroke="black" stroke-width="0.5" fill="#aaffff" cx="23.0" cy="372.0" r="1.0"/>
     <text stroke="none" x="23.0" y="372.0" font-size="10.0" font-family="helvetica">NT1.1</text>
    </g>
    <g>
     <circle stroke="black" stroke-width="0.5" fill="#aaffff" cx="32.0" cy="477.0" r="1.0"/>
     <text stroke="none" x="32.0" y="477.0" font-size="10.0" font-family="helvetica">NT1.2</text>
    </g>
    <g>
     <circle stroke="black" stroke-width="0.5" fill="#aaffff" cx="37.0" cy="478.0" r="1.0"/>
     <text stroke="none" x="37.0" y="478.0" font-size="20.0" font-family="helvetica">59.3</text>
    </g>
    <g>
     <circle stroke="black" stroke-width="0.5" fill="#aaffff" cx="52.0" cy="257.0" r="1.0"/>
     <text stroke="none" x="52.0" y="257.0" font-size="10.0" font-family="helvetica">NT1.4</text>
    </g>
    <g>
     <circle stroke="black" stroke-width="0.5" fill="#aaffff" cx="78.0" cy="340.0" r="1.0"/>
     <text stroke="none" x="78.0" y="340.0" font-size="10.0" font-family="helvetica">NT1.5</text>
    </g>
    <g>
     <circle stroke="black" stroke-width="0.5" fill="#aaffff" cx="84.0" cy="173.0" r="1.0"/>
     <text stroke="none" x="84.0" y="173.0" font-size="10.0" font-family="helvetica">NT1.6</text>
    </g>
    <g>
     <circle stroke="black" stroke-width="0.5" fill="#aaffff" cx="90.0" cy="108.0" r="1.0"/>
     <text stroke="none" x="90.0" y="108.0" font-size="10.0" font-family="helvetica">NT1.7</text>
    </g>
    <g>
     <circle stroke="black" stroke-width="0.5" fill="#aaffff" cx="121.0" cy="236.0" r="1.0"/>
     <text stroke="none" x="121.0" y="236.0" font-size="10.0" font-family="helvetica">NT1.8</text>
    </g>
    <g>
     <circle stroke="black" stroke-width="0.5" fill="#aaffff" cx="123.0" cy="238.0" r="1.0"/>
     <text stroke="none" x="123.0" y="238.0" font-size="10.0" font-family="helvetica">NT1.9</text>
    </g>
    <g>
     <circle stroke="black" stroke-width="0.5" fill="#aaffff" cx="127.0" cy="238.0" r="1.0"/>
     <text stroke="none" x="127.0" y="238.0" font-size="20.0" font-family="helvetica"/>
    </g>
    <g>
     <circle stroke="black" stroke-width="0.5" fill="#aaffff" cx="145.0" cy="374.0" r="1.0"/>
     <text stroke="none" x="145.0" y="374.0" font-size="10.0" font-family="helvetica">NT1.11</text>
    </g>
    <g>
     <circle stroke="black" stroke-width="0.5" fill="#aaffff" cx="149.0" cy="375.0" r="1.0"/>
     <text stroke="none" x="149.0" y="375.0" font-size="20.0" font-family="helvetica"/>
    </g>
    <g>
     <circle stroke="black" stroke-width="0.5" fill="#aaffff" cx="173.0" cy="445.0" r="1.0"/>
     <text stroke="none" x="173.0" y="445.0" font-size="10.0" font-family="helvetica">NT1.13</text>
    </g>
    <g>
     <circle stroke="black" stroke-width="0.5" fill="#aaffff" cx="174.0" cy="158.0" r="1.0"/>
     <text stroke="none" x="174.0" y="158.0" font-size="10.0" font-family="helvetica">NT1.14</text>
    </g>
    <g>
     <circle stroke="black" stroke-width="0.5" fill="#aaffff" cx="175.0" cy="443.0" r="1.0"/>
     <text stroke="none" x="175.0" y="443.0" font-size="10.0" font-family="helvetica">NT1.15</text>
    </g>
    <g>
     <circle stroke="black" stroke-width="0.5" fill="#aaffff" cx="179.0" cy="159.0" r="1.0"/>
     <text stroke="none" x="179.0" y="159.0" font-size="20.0" font-family="helvetica"/>
    </g>
    <g>
     <circle stroke="black" stroke-width="0.5" fill="#aaffff" cx="179.0" cy="443.0" r="1.0"/>
     <text stroke="none" x="179.0" y="443.0" font-size="20.0" font-family="helvetica"/>
    </g>
    <g>
     <circle stroke="black" stroke-width="0.5" fill="#aaffff" cx="190.0" cy="512.0" r="1.0"/>
     <text stroke="none" x="190.0" y="512.0" font-size="10.0" font-family="helvetica">NT1.18</text>
    </g>
    <g>
     <circle stroke="black" stroke-width="0.5" fill="#aaffff" cx="194.0" cy="513.0" r="1.0"/>
     <text stroke="none" x="194.0" y="513.0" font-size="20.0" font-family="helvetica"/>
    </g>
    <g>
     <circle stroke="black" stroke-width="0.5" fill="#aaffff" cx="194.0" cy="56.0" r="1.0"/>
     <text stroke="none" x="194.0" y="56.0" font-size="10.0" font-family="helvetica">NT1.20</text>
    </g>
    <g>
     <circle stroke="black" stroke-width="0.5" fill="#aaffff" cx="198.0" cy="56.0" r="1.0"/>
     <text stroke="none" x="198.0" y="56.0" font-size="20.0" font-family="helvetica"/>
    </g>
    <g>
     <circle stroke="black" stroke-width="0.5" fill="#aaffff" cx="237.0" cy="134.0" r="1.0"/>
     <text stroke="none" x="237.0" y="134.0" font-size="10.0" font-family="helvetica">NT1.22</text>
    </g>
    <g>
     <circle stroke="black" stroke-width="0.5" fill="#aaffff" cx="240.0" cy="530.0" r="1.0"/>
     <text stroke="none" x="240.0" y="530.0" font-size="20.0" font-family="helvetica">Oceanospirillum beijerinckii ATCC 27119T (AB006760)</text>
    </g>
    <g>
     <circle stroke="black" stroke-width="0.5" fill="#aaffff" cx="243.0" cy="133.0" r="1.0"/>
     <text stroke="none" x="243.0" y="133.0" font-size="20.0" font-family="helvetica"/>
    </g>
    <g>
     <circle stroke="black" stroke-width="0.5" fill="#aaffff" cx="255.0" cy="495.0" r="1.0"/>
     <text stroke="none" x="255.0" y="495.0" font-size="20.0" font-family="helvetica">Oceanospirillum Iinum ATCC 11336T (M22365)</text>
    </g>
    <g>
     <circle stroke="black" stroke-width="0.5" fill="#aaffff" cx="257.0" cy="31.0" r="1.0"/>
     <text stroke="none" x="257.0" y="31.0" font-size="20.0" font-family="helvetica">100</text>
    </g>
    <g>
     <circle stroke="black" stroke-width="0.5" fill="#aaffff" cx="259.0" cy="29.0" r="1.0"/>
     <text stroke="none" x="259.0" y="29.0" font-size="20.0" font-family="helvetica">100</text>
    </g>
    <g>
     <circle stroke="black" stroke-width="0.5" fill="#aaffff" cx="263.0" cy="29.0" r="1.0"/>
     <text stroke="none" x="263.0" y="29.0" font-size="20.0" font-family="helvetica"/>
    </g>
    <g>
     <circle stroke="black" stroke-width="0.5" fill="#aaffff" cx="263.0" cy="426.0" r="1.0"/>
     <text stroke="none" x="263.0" y="426.0" font-size="20.0" font-family="helvetica">Marinobacter hydrocarbonoclasticus ATCC 27132T (AB021372)</text>
    </g>
    <g>
     <circle stroke="black" stroke-width="0.5" fill="#aaffff" cx="266.0" cy="307.0" r="1.0"/>
     <text stroke="none" x="266.0" y="307.0" font-size="10.0" font-family="helvetica">NT1.30</text>
    </g>
    <g>
     <circle stroke="black" stroke-width="0.5" fill="#aaffff" cx="267.0" cy="82.0" r="1.0"/>
     <text stroke="none" x="267.0" y="82.0" font-size="20.0" font-family="helvetica">Marinimicrobium koreense M97 (AY839869)</text>
    </g>
    <g>
     <circle stroke="black" stroke-width="0.5" fill="#aaffff" cx="268.0" cy="305.0" r="1.0"/>
     <text stroke="none" x="268.0" y="305.0" font-size="10.0" font-family="helvetica">NT1.32</text>
    </g>
    <g>
     <circle stroke="black" stroke-width="0.5" fill="#aaffff" cx="272.0" cy="305.0" r="1.0"/>
     <text stroke="none" x="272.0" y="305.0" font-size="20.0" font-family="helvetica"/>
    </g>
    <g>
     <circle stroke="black" stroke-width="0.5" fill="#aaffff" cx="281.0" cy="116.0" r="1.0"/>
     <text stroke="none" x="281.0" y="116.0" font-size="20.0" font-family="helvetica">Microbulbifer hydrolyticus DSM 11525T (AJ608704)</text>
    </g>
    <g>
     <circle stroke="black" stroke-width="0.5" fill="#aaffff" cx="287.0" cy="185.0" r="1.0"/>
     <text stroke="none" x="287.0" y="185.0" font-size="20.0" font-family="helvetica">Microbulbifer maritimus TF-17T (AY377986)</text>
    </g>
    <g>
     <circle stroke="black" stroke-width="0.5" fill="#aaffff" cx="288.0" cy="288.0" r="1.0"/>
     <text stroke="none" x="288.0" y="288.0" font-size="20.0" font-family="helvetica">Ce-llvibrio mixtus ACM 2603 (AJ289160)</text>
    </g>
    <g>
     <circle stroke="black" stroke-width="0.5" fill="#aaffff" cx="288.0" cy="393.0" r="1.0"/>
     <text stroke="none" x="288.0" y="393.0" font-size="20.0" font-family="helvetica">Pseudamanas fluorescens IAM 12022T (D84013)</text>
    </g>
    <g>
     <circle stroke="black" stroke-width="0.5" fill="#aaffff" cx="291.0" cy="151.0" r="1.0"/>
     <text stroke="none" x="291.0" y="151.0" font-size="20.0" font-family="helvetica">Microbulbifer elongatus DSM 681 O7 (AF500006)</text>
    </g>
    <g>
     <circle stroke="black" stroke-width="0.5" fill="#aaffff" cx="292.0" cy="48.0" r="1.0"/>
     <text stroke="none" x="292.0" y="48.0" font-size="20.0" font-family="helvetica">Marinimicrobium agarilyticum M18T (AY839870)</text>
    </g>
    <g>
     <circle stroke="black" stroke-width="0.5" fill="#aaffff" cx="293.0" cy="357.0" r="1.0"/>
     <text stroke="none" x="293.0" y="357.0" font-size="20.0" font-family="helvetica">Pseudomonas aeruginosa LMG 1242T (Z76651)</text>
    </g>
    <g>
     <circle stroke="black" stroke-width="0.5" fill="#aaffff" cx="294.0" cy="461.0" r="1.0"/>
     <text stroke="none" x="294.0" y="461.0" font-size="20.0" font-family="helvetica">Marinobacter litoralis SW-45T (AF479689)</text>
    </g>
    <g>
     <circle stroke="black" stroke-width="0.5" fill="#aaffff" cx="299.0" cy="254.0" r="1.0"/>
     <text stroke="none" x="299.0" y="254.0" font-size="20.0" font-family="helvetica">Teredinibacter turnerae T7902T (AY028398)</text>
    </g>
    <g>
     <circle stroke="black" stroke-width="0.5" fill="#aaffff" cx="303.0" cy="219.0" r="1.0"/>
     <text stroke="none" x="303.0" y="219.0" font-size="20.0" font-family="helvetica">Saccharophagus degradans 2-4OT (AF055269)</text>
    </g>
    <g>
     <circle stroke="black" stroke-width="0.5" fill="#aaffff" cx="310.0" cy="13.0" r="1.0"/>
     <text stroke="none" x="310.0" y="13.0" font-size="20.0" font-family="helvetica">Marinimicrobium Iocisalis ISL-437 (EU814388)</text>
    </g>
    <g>
     <circle stroke="black" stroke-width="0.5" fill="#aaffff" cx="342.0" cy="323.0" r="1.0"/>
     <text stroke="none" x="342.0" y="323.0" font-size="20.0" font-family="helvetica">Cellvibrio vulgaris NCIMB 8633T (AF448513)</text>
    </g>
    <g>
     <circle stroke="black" stroke-width="0.5" fill="#aaffff" cx="471.0" cy="565.0" r="1.0"/>
     <text stroke="none" x="471.0" y="565.0" font-size="20.0" font-family="helvetica">Escherichia coli ATCC 117757 (X80725)</text>
    </g>
    <line stroke="black" x1="263.0" y1="29.0" x2="259.0" y2="29.0" stroke-width="0.5"/>
    <line stroke="black" x1="310.0" y1="13.0" x2="259.0" y2="29.0" stroke-width="0.5"/>
    <line stroke="black" x1="292.0" y1="48.0" x2="257.0" y2="31.0" stroke-width="0.5"/>
    <line stroke="black" x1="198.0" y1="56.0" x2="194.0" y2="56.0" stroke-width="0.5"/>
    <line stroke="black" x1="267.0" y1="82.0" x2="194.0" y2="56.0" stroke-width="0.5"/>
    <line stroke="black" x1="179.0" y1="159.0" x2="174.0" y2="158.0" stroke-width="0.5"/>
    <line stroke="black" x1="127.0" y1="238.0" x2="123.0" y2="238.0" stroke-width="0.5"/>
    <line stroke="black" x1="243.0" y1="133.0" x2="237.0" y2="134.0" stroke-width="0.5"/>
    <line stroke="black" x1="281.0" y1="116.0" x2="237.0" y2="134.0" stroke-width="0.5"/>
    <line stroke="black" x1="287.0" y1="185.0" x2="174.0" y2="158.0" stroke-width="0.5"/>
    <line stroke="black" x1="291.0" y1="151.0" x2="237.0" y2="134.0" stroke-width="0.5"/>
    <line stroke="black" x1="299.0" y1="254.0" x2="123.0" y2="238.0" stroke-width="0.5"/>
    <line stroke="black" x1="303.0" y1="219.0" x2="121.0" y2="236.0" stroke-width="0.5"/>
    <line stroke="black" x1="149.0" y1="375.0" x2="145.0" y2="374.0" stroke-width="0.5"/>
    <line stroke="black" x1="37.0" y1="478.0" x2="32.0" y2="477.0" stroke-width="0.5"/>
    <line stroke="black" x1="272.0" y1="305.0" x2="268.0" y2="305.0" stroke-width="0.5"/>
    <line stroke="black" x1="288.0" y1="288.0" x2="268.0" y2="305.0" stroke-width="0.5"/>
    <line stroke="black" x1="288.0" y1="393.0" x2="145.0" y2="374.0" stroke-width="0.5"/>
    <line stroke="black" x1="293.0" y1="357.0" x2="145.0" y2="374.0" stroke-width="0.5"/>
    <line stroke="black" x1="342.0" y1="323.0" x2="266.0" y2="307.0" stroke-width="0.5"/>
    <line stroke="black" x1="179.0" y1="443.0" x2="175.0" y2="443.0" stroke-width="0.5"/>
    <line stroke="black" x1="194.0" y1="513.0" x2="190.0" y2="512.0" stroke-width="0.5"/>
    <line stroke="black" x1="255.0" y1="495.0" x2="190.0" y2="512.0" stroke-width="0.5"/>
    <line stroke="black" x1="263.0" y1="426.0" x2="175.0" y2="443.0" stroke-width="0.5"/>
    <line stroke="black" x1="257.0" y1="31.0" x2="259.0" y2="29.0" stroke-width="0.5"/>
    <line stroke="black" x1="257.0" y1="31.0" x2="194.0" y2="56.0" stroke-width="0.5"/>
    <line stroke="black" x1="194.0" y1="56.0" x2="90.0" y2="108.0" stroke-width="0.5"/>
    <line stroke="black" x1="90.0" y1="108.0" x2="84.0" y2="173.0" stroke-width="0.5"/>
    <line stroke="black" x1="90.0" y1="108.0" x2="174.0" y2="158.0" stroke-width="0.5"/>
    <line stroke="black" x1="84.0" y1="173.0" x2="52.0" y2="257.0" stroke-width="0.5"/>
    <line stroke="black" x1="84.0" y1="173.0" x2="121.0" y2="236.0" stroke-width="0.5"/>
    <line stroke="black" x1="174.0" y1="158.0" x2="237.0" y2="134.0" stroke-width="0.5"/>
    <line stroke="black" x1="123.0" y1="238.0" x2="121.0" y2="236.0" stroke-width="0.5"/>
    <line stroke="black" x1="52.0" y1="257.0" x2="23.0" y2="372.0" stroke-width="0.5"/>
    <line stroke="black" x1="52.0" y1="257.0" x2="78.0" y2="340.0" stroke-width="0.5"/>
    <line stroke="black" x1="78.0" y1="340.0" x2="145.0" y2="374.0" stroke-width="0.5"/>
    <line stroke="black" x1="78.0" y1="340.0" x2="266.0" y2="307.0" stroke-width="0.5"/>
    <line stroke="black" x1="23.0" y1="372.0" x2="32.0" y2="477.0" stroke-width="0.5"/>
    <line stroke="black" x1="32.0" y1="477.0" x2="173.0" y2="445.0" stroke-width="0.5"/>
    <line stroke="black" x1="32.0" y1="477.0" x2="190.0" y2="512.0" stroke-width="0.5"/>
    <line stroke="black" x1="266.0" y1="307.0" x2="268.0" y2="305.0" stroke-width="0.5"/>
    <line stroke="black" x1="173.0" y1="445.0" x2="175.0" y2="443.0" stroke-width="0.5"/>
    <line stroke="black" x1="471.0" y1="565.0" x2="23.0" y2="372.0" stroke-width="0.5"/>
    <line stroke="black" x1="240.0" y1="530.0" x2="190.0" y2="512.0" stroke-width="0.5"/>
    <line stroke="black" x1="294.0" y1="461.0" x2="173.0" y2="445.0" stroke-width="0.5"/>
   </g>
  </g>
 </svg>
</svg>
