<?xml version="1.0" encoding="UTF-8"?>
<svg height="800.0" width="700.0" xmlns="http://www.w3.org/2000/svg">
 <svg>
  <g>
   <g>
    <g>
     <circle stroke="black" stroke-width="0.5" fill="#aaffff" cx="86.0" cy="633.0" r="1.0"/>
     <text stroke="none" x="86.0" y="633.0" font-size="10.0" font-family="helvetica">NT1.1</text>
    </g>
    <g>
     <circle stroke="black" stroke-width="0.5" fill="#aaffff" cx="138.0" cy="558.0" r="1.0"/>
     <text stroke="none" x="138.0" y="558.0" font-size="10.0" font-family="helvetica">NT1.2</text>
    </g>
    <g>
     <circle stroke="black" stroke-width="0.5" fill="#aaffff" cx="163.0" cy="475.0" r="1.0"/>
     <text stroke="none" x="163.0" y="475.0" font-size="20.0" font-family="helvetica">51</text>
    </g>
    <g>
     <circle stroke="black" stroke-width="0.5" fill="#aaffff" cx="202.0" cy="639.0" r="1.0"/>
     <text stroke="none" x="202.0" y="639.0" font-size="20.0" font-family="helvetica">75</text>
    </g>
    <g>
     <circle stroke="black" stroke-width="0.5" fill="#aaffff" cx="203.0" cy="359.0" r="1.0"/>
     <text stroke="none" x="203.0" y="359.0" font-size="10.0" font-family="helvetica">NT1.5</text>
    </g>
    <g>
     <circle stroke="black" stroke-width="0.5" fill="#aaffff" cx="239.0" cy="234.0" r="1.0"/>
     <text stroke="none" x="239.0" y="234.0" font-size="10.0" font-family="helvetica">NT1.6</text>
    </g>
    <g>
     <circle stroke="black" stroke-width="0.5" fill="#aaffff" cx="262.0" cy="483.0" r="1.0"/>
     <text stroke="none" x="262.0" y="483.0" font-size="10.0" font-family="helvetica">NT1.7</text>
    </g>
    <g>
     <circle stroke="black" stroke-width="0.5" fill="#aaffff" cx="264.0" cy="132.0" r="1.0"/>
     <text stroke="none" x="264.0" y="132.0" font-size="10.0" font-family="helvetica">NT1.8</text>
    </g>
    <g>
     <circle stroke="black" stroke-width="0.5" fill="#aaffff" cx="290.0" cy="707.0" r="1.0"/>
     <text stroke="none" x="290.0" y="707.0" font-size="20.0" font-family="helvetica">100</text>
    </g>
    <g>
     <circle stroke="black" stroke-width="0.5" fill="#aaffff" cx="302.0" cy="88.0" r="1.0"/>
     <text stroke="none" x="302.0" y="88.0" font-size="10.0" font-family="helvetica">NT1.10</text>
    </g>
    <g>
     <circle stroke="black" stroke-width="0.5" fill="#aaffff" cx="317.0" cy="175.0" r="1.0"/>
     <text stroke="none" x="317.0" y="175.0" font-size="10.0" font-family="helvetica">NT1.11</text>
    </g>
    <g>
     <circle stroke="black" stroke-width="0.5" fill="#aaffff" cx="326.0" cy="335.0" r="1.0"/>
     <text stroke="none" x="326.0" y="335.0" font-size="10.0" font-family="helvetica">NT1.12</text>
    </g>
    <g>
     <circle stroke="black" stroke-width="0.5" fill="#aaffff" cx="350.0" cy="58.0" r="1.0"/>
     <text stroke="none" x="350.0" y="58.0" font-size="20.0" font-family="helvetica">96</text>
    </g>
    <g>
     <circle stroke="black" stroke-width="0.5" fill="#aaffff" cx="361.0" cy="295.0" r="1.0"/>
     <text stroke="none" x="361.0" y="295.0" font-size="10.0" font-family="helvetica">NT1.14</text>
    </g>
    <g>
     <circle stroke="black" stroke-width="0.5" fill="#aaffff" cx="366.0" cy="377.0" r="1.0"/>
     <text stroke="none" x="366.0" y="377.0" font-size="10.0" font-family="helvetica">NT1.15</text>
    </g>
    <g>
     <circle stroke="black" stroke-width="0.5" fill="#aaffff" cx="375.0" cy="589.0" r="1.0"/>
     <text stroke="none" x="375.0" y="589.0" font-size="20.0" font-family="helvetica">Bacillus pseudofirmus DSM 8715T (X76439)</text>
    </g>
    <g>
     <circle stroke="black" stroke-width="0.5" fill="#aaffff" cx="377.0" cy="513.0" r="1.0"/>
     <text stroke="none" x="377.0" y="513.0" font-size="10.0" font-family="helvetica">NT1.17</text>
    </g>
    <g>
     <circle stroke="black" stroke-width="0.5" fill="#aaffff" cx="384.0" cy="725.0" r="1.0"/>
     <text stroke="none" x="384.0" y="725.0" font-size="20.0" font-family="helvetica">Bacillus hwajinpoensis SW-72T (AF541966)</text>
    </g>
    <g>
     <circle stroke="black" stroke-width="0.5" fill="#aaffff" cx="394.0" cy="538.0" r="1.0"/>
     <text stroke="none" x="394.0" y="538.0" font-size="10.0" font-family="helvetica">NT1.19</text>
    </g>
    <g>
     <circle stroke="black" stroke-width="0.5" fill="#aaffff" cx="397.0" cy="33.0" r="1.0"/>
     <text stroke="none" x="397.0" y="33.0" font-size="10.0" font-family="helvetica">NT1.20</text>
    </g>
    <g>
     <circle stroke="black" stroke-width="0.5" fill="#aaffff" cx="408.0" cy="690.0" r="1.0"/>
     <text stroke="none" x="408.0" y="690.0" font-size="20.0" font-family="helvetica">Bacillus algicola KMM 37377 (AY228462)</text>
    </g>
    <g>
     <circle stroke="black" stroke-width="0.5" fill="#aaffff" cx="427.0" cy="269.0" r="1.0"/>
     <text stroke="none" x="427.0" y="269.0" font-size="10.0" font-family="helvetica">NT1.22</text>
    </g>
    <g>
     <circle stroke="black" stroke-width="0.5" fill="#aaffff" cx="434.0" cy="83.0" r="1.0"/>
     <text stroke="none" x="434.0" y="83.0" font-size="20.0" font-family="helvetica">Bacillus alcalophilus DSM 4857 (X60603)</text>
    </g>
    <g>
     <circle stroke="black" stroke-width="0.5" fill="#aaffff" cx="442.0" cy="403.0" r="1.0"/>
     <text stroke="none" x="442.0" y="403.0" font-size="20.0" font-family="helvetica">95</text>
    </g>
    <g>
     <circle stroke="black" stroke-width="0.5" fill="#aaffff" cx="445.0" cy="421.0" r="1.0"/>
     <text stroke="none" x="445.0" y="421.0" font-size="20.0" font-family="helvetica">Bacillus okhensis Kh1O-1017 (DQ026060)</text>
    </g>
    <g>
     <circle stroke="black" stroke-width="0.5" fill="#aaffff" cx="448.0" cy="286.0" r="1.0"/>
     <text stroke="none" x="448.0" y="286.0" font-size="20.0" font-family="helvetica">Bacillus alkalisediminis H3-93 (AM051268)</text>
    </g>
    <g>
     <circle stroke="black" stroke-width="0.5" fill="#aaffff" cx="484.0" cy="488.0" r="1.0"/>
     <text stroke="none" x="484.0" y="488.0" font-size="20.0" font-family="helvetica">Bacillus alkalidiazotrophicus MSGT (EU143680)</text>
    </g>
    <g>
     <circle stroke="black" stroke-width="0.5" fill="#aaffff" cx="485.0" cy="320.0" r="1.0"/>
     <text stroke="none" x="485.0" y="320.0" font-size="20.0" font-family="helvetica">Bacillus akibai 1 139T (AB043858)</text>
    </g>
    <g>
     <circle stroke="black" stroke-width="0.5" fill="#aaffff" cx="490.0" cy="251.0" r="1.0"/>
     <text stroke="none" x="490.0" y="251.0" font-size="20.0" font-family="helvetica">Bacillus alkalisediminis K1 -257 (AJ606037)</text>
    </g>
    <g>
     <circle stroke="black" stroke-width="0.5" fill="#aaffff" cx="499.0" cy="49.0" r="1.0"/>
     <text stroke="none" x="499.0" y="49.0" font-size="20.0" font-family="helvetica">Bacillus pseudalcaliphilus DSM 8725T (X76449)</text>
    </g>
    <g>
     <circle stroke="black" stroke-width="0.5" fill="#aaffff" cx="506.0" cy="200.0" r="1.0"/>
     <text stroke="none" x="506.0" y="200.0" font-size="20.0" font-family="helvetica">100</text>
    </g>
    <g>
     <circle stroke="black" stroke-width="0.5" fill="#aaffff" cx="519.0" cy="454.0" r="1.0"/>
     <text stroke="none" x="519.0" y="454.0" font-size="10.0" font-family="helvetica">NT1.32</text>
    </g>
    <g>
     <circle stroke="black" stroke-width="0.5" fill="#aaffff" cx="522.0" cy="184.0" r="1.0"/>
     <text stroke="none" x="522.0" y="184.0" font-size="10.0" font-family="helvetica">NT1.33</text>
    </g>
    <g>
     <circle stroke="black" stroke-width="0.5" fill="#aaffff" cx="523.0" cy="117.0" r="1.0"/>
     <text stroke="none" x="523.0" y="117.0" font-size="20.0" font-family="helvetica">Bacillus bogoriensis LBB3T (AY376312)</text>
    </g>
    <g>
     <circle stroke="black" stroke-width="0.5" fill="#aaffff" cx="531.0" cy="150.0" r="1.0"/>
     <text stroke="none" x="531.0" y="150.0" font-size="20.0" font-family="helvetica">Bacillus hemicellulosilyticus C-1 1T (ABO43846)</text>
    </g>
    <g>
     <circle stroke="black" stroke-width="0.5" fill="#aaffff" cx="533.0" cy="522.0" r="1.0"/>
     <text stroke="none" x="533.0" y="522.0" font-size="10.0" font-family="helvetica">NT1.36</text>
    </g>
    <g>
     <circle stroke="black" stroke-width="0.5" fill="#aaffff" cx="539.0" cy="386.0" r="1.0"/>
     <text stroke="none" x="539.0" y="386.0" font-size="20.0" font-family="helvetica">Bacillus wakoensis N-1T (ABO43851)</text>
    </g>
    <g>
     <circle stroke="black" stroke-width="0.5" fill="#aaffff" cx="541.0" cy="15.0" r="1.0"/>
     <text stroke="none" x="541.0" y="15.0" font-size="20.0" font-family="helvetica">Bacillus trypoxylicola SU1T (AB434284)</text>
    </g>
    <g>
     <circle stroke="black" stroke-width="0.5" fill="#aaffff" cx="541.0" cy="353.0" r="1.0"/>
     <text stroke="none" x="541.0" y="353.0" font-size="20.0" font-family="helvetica">Bacillus krulwichiae AM31DT (AB086897)</text>
    </g>
    <g>
     <circle stroke="black" stroke-width="0.5" fill="#aaffff" cx="554.0" cy="556.0" r="1.0"/>
     <text stroke="none" x="554.0" y="556.0" font-size="10.0" font-family="helvetica">NT1.40</text>
    </g>
    <g>
     <circle stroke="black" stroke-width="0.5" fill="#aaffff" cx="556.0" cy="657.0" r="1.0"/>
     <text stroke="none" x="556.0" y="657.0" font-size="20.0" font-family="helvetica">Bacillus clausii DSM 87167 (X76440)</text>
    </g>
    <g>
     <circle stroke="black" stroke-width="0.5" fill="#aaffff" cx="562.0" cy="623.0" r="1.0"/>
     <text stroke="none" x="562.0" y="623.0" font-size="10.0" font-family="helvetica">NT1.42</text>
    </g>
    <g>
     <circle stroke="black" stroke-width="0.5" fill="#aaffff" cx="567.0" cy="218.0" r="1.0"/>
     <text stroke="none" x="567.0" y="218.0" font-size="20.0" font-family="helvetica">Bacillus okuhidensis GTC 8547 (AB047684)</text>
    </g>
    <g>
     <circle stroke="black" stroke-width="0.5" fill="#aaffff" cx="567.0" cy="759.0" r="1.0"/>
     <text stroke="none" x="567.0" y="759.0" font-size="20.0" font-family="helvetica">Halobacillus litoralis SL-4T (X94558)</text>
    </g>
    <g>
     <circle stroke="black" stroke-width="0.5" fill="#aaffff" cx="4.0" cy="696.0" r="1.0"/>
     <text stroke="none" x="4.0" y="696.0" font-size="10.0" font-family="helvetica">NT1.45</text>
    </g>
    <line stroke="black" x1="523.0" y1="117.0" x2="302.0" y2="88.0" stroke-width="0.5"/>
    <line stroke="black" x1="445.0" y1="421.0" x2="442.0" y2="403.0" stroke-width="0.5"/>
    <line stroke="black" x1="448.0" y1="286.0" x2="427.0" y2="269.0" stroke-width="0.5"/>
    <line stroke="black" x1="485.0" y1="320.0" x2="361.0" y2="295.0" stroke-width="0.5"/>
    <line stroke="black" x1="490.0" y1="251.0" x2="427.0" y2="269.0" stroke-width="0.5"/>
    <line stroke="black" x1="539.0" y1="386.0" x2="442.0" y2="403.0" stroke-width="0.5"/>
    <line stroke="black" x1="484.0" y1="488.0" x2="377.0" y2="513.0" stroke-width="0.5"/>
    <line stroke="black" x1="375.0" y1="589.0" x2="163.0" y2="475.0" stroke-width="0.5"/>
    <line stroke="black" x1="384.0" y1="725.0" x2="290.0" y2="707.0" stroke-width="0.5"/>
    <line stroke="black" x1="408.0" y1="690.0" x2="290.0" y2="707.0" stroke-width="0.5"/>
    <line stroke="black" x1="397.0" y1="33.0" x2="350.0" y2="58.0" stroke-width="0.5"/>
    <line stroke="black" x1="350.0" y1="58.0" x2="302.0" y2="88.0" stroke-width="0.5"/>
    <line stroke="black" x1="302.0" y1="88.0" x2="264.0" y2="132.0" stroke-width="0.5"/>
    <line stroke="black" x1="264.0" y1="132.0" x2="239.0" y2="234.0" stroke-width="0.5"/>
    <line stroke="black" x1="264.0" y1="132.0" x2="317.0" y2="175.0" stroke-width="0.5"/>
    <line stroke="black" x1="239.0" y1="234.0" x2="203.0" y2="359.0" stroke-width="0.5"/>
    <line stroke="black" x1="239.0" y1="234.0" x2="326.0" y2="335.0" stroke-width="0.5"/>
    <line stroke="black" x1="203.0" y1="359.0" x2="163.0" y2="475.0" stroke-width="0.5"/>
    <line stroke="black" x1="326.0" y1="335.0" x2="366.0" y2="377.0" stroke-width="0.5"/>
    <line stroke="black" x1="326.0" y1="335.0" x2="361.0" y2="295.0" stroke-width="0.5"/>
    <line stroke="black" x1="361.0" y1="295.0" x2="427.0" y2="269.0" stroke-width="0.5"/>
    <line stroke="black" x1="366.0" y1="377.0" x2="442.0" y2="403.0" stroke-width="0.5"/>
    <line stroke="black" x1="163.0" y1="475.0" x2="138.0" y2="558.0" stroke-width="0.5"/>
    <line stroke="black" x1="138.0" y1="558.0" x2="86.0" y2="633.0" stroke-width="0.5"/>
    <line stroke="black" x1="86.0" y1="633.0" x2="290.0" y2="707.0" stroke-width="0.5"/>
    <line stroke="black" x1="4.0" y1="696.0" x2="567.0" y2="759.0" stroke-width="0.5"/>
    <line stroke="black" x1="4.0" y1="696.0" x2="86.0" y2="633.0" stroke-width="0.5"/>
    <line stroke="black" x1="556.0" y1="657.0" x2="202.0" y2="639.0" stroke-width="0.5"/>
    <line stroke="black" x1="434.0" y1="83.0" x2="350.0" y2="58.0" stroke-width="0.5"/>
    <line stroke="black" x1="531.0" y1="150.0" x2="317.0" y2="175.0" stroke-width="0.5"/>
    <line stroke="black" x1="541.0" y1="353.0" x2="366.0" y2="377.0" stroke-width="0.5"/>
    <line stroke="black" x1="499.0" y1="49.0" x2="397.0" y2="33.0" stroke-width="0.5"/>
    <line stroke="black" x1="541.0" y1="15.0" x2="397.0" y2="33.0" stroke-width="0.5"/>
    <line stroke="black" x1="567.0" y1="218.0" x2="506.0" y2="200.0" stroke-width="0.5"/>
   </g>
  </g>
 </svg>
</svg>
