<?xml version="1.0" encoding="UTF-8"?>
<svg height="800.0" width="700.0" xmlns="http://www.w3.org/2000/svg">
 <svg>
  <g>
   <g>
    <g>
     <circle stroke="black" stroke-width="0.5" fill="#aaffff" cx="41.0" cy="1250.0" r="1.0"/>
     <text stroke="none" x="41.0" y="1250.0" font-size="10.0" font-family="helvetica">NT1.1</text>
    </g>
    <g>
     <circle stroke="black" stroke-width="0.5" fill="#aaffff" cx="89.0" cy="1347.0" r="1.0"/>
     <text stroke="none" x="89.0" y="1347.0" font-size="20.0" font-family="helvetica">76</text>
    </g>
    <g>
     <circle stroke="black" stroke-width="0.5" fill="#aaffff" cx="98.0" cy="1151.0" r="1.0"/>
     <text stroke="none" x="98.0" y="1151.0" font-size="10.0" font-family="helvetica">NT1.3</text>
    </g>
    <g>
     <circle stroke="black" stroke-width="0.5" fill="#aaffff" cx="104.0" cy="1057.0" r="1.0"/>
     <text stroke="none" x="104.0" y="1057.0" font-size="10.0" font-family="helvetica">NT1.4</text>
    </g>
    <g>
     <circle stroke="black" stroke-width="0.5" fill="#aaffff" cx="123.0" cy="1007.0" r="1.0"/>
     <text stroke="none" x="123.0" y="1007.0" font-size="10.0" font-family="helvetica">NT1.5</text>
    </g>
    <g>
     <circle stroke="black" stroke-width="0.5" fill="#aaffff" cx="131.0" cy="1243.0" r="1.0"/>
     <text stroke="none" x="131.0" y="1243.0" font-size="10.0" font-family="helvetica">NT1.6</text>
    </g>
    <g>
     <circle stroke="black" stroke-width="0.5" fill="#aaffff" cx="143.0" cy="948.0" r="1.0"/>
     <text stroke="none" x="143.0" y="948.0" font-size="10.0" font-family="helvetica">NT1.7</text>
    </g>
    <g>
     <circle stroke="black" stroke-width="0.5" fill="#aaffff" cx="149.0" cy="877.0" r="1.0"/>
     <text stroke="none" x="149.0" y="877.0" font-size="20.0" font-family="helvetica">69</text>
    </g>
    <g>
     <circle stroke="black" stroke-width="0.5" fill="#aaffff" cx="160.0" cy="777.0" r="1.0"/>
     <text stroke="none" x="160.0" y="777.0" font-size="10.0" font-family="helvetica">NT1.9</text>
    </g>
    <g>
     <circle stroke="black" stroke-width="0.5" fill="#aaffff" cx="179.0" cy="643.0" r="1.0"/>
     <text stroke="none" x="179.0" y="643.0" font-size="10.0" font-family="helvetica">NT1.10</text>
    </g>
    <g>
     <circle stroke="black" stroke-width="0.5" fill="#aaffff" cx="212.0" cy="474.0" r="1.0"/>
     <text stroke="none" x="212.0" y="474.0" font-size="10.0" font-family="helvetica">NT1.11</text>
    </g>
    <g>
     <circle stroke="black" stroke-width="0.5" fill="#aaffff" cx="212.0" cy="909.0" r="1.0"/>
     <text stroke="none" x="212.0" y="909.0" font-size="20.0" font-family="helvetica">69</text>
    </g>
    <g>
     <circle stroke="black" stroke-width="0.5" fill="#aaffff" cx="222.0" cy="305.0" r="1.0"/>
     <text stroke="none" x="222.0" y="305.0" font-size="10.0" font-family="helvetica">NT1.13</text>
    </g>
    <g>
     <circle stroke="black" stroke-width="0.5" fill="#aaffff" cx="236.0" cy="641.0" r="1.0"/>
     <text stroke="none" x="236.0" y="641.0" font-size="10.0" font-family="helvetica">NT1.14</text>
    </g>
    <g>
     <circle stroke="black" stroke-width="0.5" fill="#aaffff" cx="241.0" cy="1207.0" r="1.0"/>
     <text stroke="none" x="241.0" y="1207.0" font-size="20.0" font-family="helvetica">97</text>
    </g>
    <g>
     <circle stroke="black" stroke-width="0.5" fill="#aaffff" cx="242.0" cy="810.0" r="1.0"/>
     <text stroke="none" x="242.0" y="810.0" font-size="20.0" font-family="helvetica">55</text>
    </g>
    <g>
     <circle stroke="black" stroke-width="0.5" fill="#aaffff" cx="246.0" cy="593.0" r="1.0"/>
     <text stroke="none" x="246.0" y="593.0" font-size="10.0" font-family="helvetica">NT1.17</text>
    </g>
    <g>
     <circle stroke="black" stroke-width="0.5" fill="#aaffff" cx="254.0" cy="180.0" r="1.0"/>
     <text stroke="none" x="254.0" y="180.0" font-size="10.0" font-family="helvetica">NT1.18</text>
    </g>
    <g>
     <circle stroke="black" stroke-width="0.5" fill="#aaffff" cx="257.0" cy="428.0" r="1.0"/>
     <text stroke="none" x="257.0" y="428.0" font-size="10.0" font-family="helvetica">NT1.19</text>
    </g>
    <g>
     <circle stroke="black" stroke-width="0.5" fill="#aaffff" cx="272.0" cy="79.0" r="1.0"/>
     <text stroke="none" x="272.0" y="79.0" font-size="10.0" font-family="helvetica">NT1.20</text>
    </g>
    <g>
     <circle stroke="black" stroke-width="0.5" fill="#aaffff" cx="277.0" cy="780.0" r="1.0"/>
     <text stroke="none" x="277.0" y="780.0" font-size="10.0" font-family="helvetica">NT1.21</text>
    </g>
    <g>
     <circle stroke="black" stroke-width="0.5" fill="#aaffff" cx="280.0" cy="1174.0" r="1.0"/>
     <text stroke="none" x="280.0" y="1174.0" font-size="20.0" font-family="helvetica">69</text>
    </g>
    <g>
     <circle stroke="black" stroke-width="0.5" fill="#aaffff" cx="300.0" cy="386.0" r="1.0"/>
     <text stroke="none" x="300.0" y="386.0" font-size="10.0" font-family="helvetica">NT1.23</text>
    </g>
    <g>
     <circle stroke="black" stroke-width="0.5" fill="#aaffff" cx="305.0" cy="561.0" r="1.0"/>
     <text stroke="none" x="305.0" y="561.0" font-size="20.0" font-family="helvetica">92</text>
    </g>
    <g>
     <circle stroke="black" stroke-width="0.5" fill="#aaffff" cx="310.0" cy="35.0" r="1.0"/>
     <text stroke="none" x="310.0" y="35.0" font-size="20.0" font-family="helvetica">52</text>
    </g>
    <g>
     <circle stroke="black" stroke-width="0.5" fill="#aaffff" cx="322.0" cy="1370.0" r="1.0"/>
     <text stroke="none" x="322.0" y="1370.0" font-size="20.0" font-family="helvetica">Humibacter albus SC.0837 (AM494541)</text>
    </g>
    <g>
     <circle stroke="black" stroke-width="0.5" fill="#aaffff" cx="324.0" cy="471.0" r="1.0"/>
     <text stroke="none" x="324.0" y="471.0" font-size="20.0" font-family="helvetica">88</text>
    </g>
    <g>
     <circle stroke="black" stroke-width="0.5" fill="#aaffff" cx="329.0" cy="1108.0" r="1.0"/>
     <text stroke="none" x="329.0" y="1108.0" font-size="20.0" font-family="helvetica">Curtobacterium citreum</text>
    </g>
    <g>
     <circle stroke="black" stroke-width="0.5" fill="#aaffff" cx="340.0" cy="1063.0" r="1.0"/>
     <text stroke="none" x="340.0" y="1063.0" font-size="20.0" font-family="helvetica">Rathayibacter rathayi</text>
    </g>
    <g>
     <circle stroke="black" stroke-width="0.5" fill="#aaffff" cx="341.0" cy="888.0" r="1.0"/>
     <text stroke="none" x="341.0" y="888.0" font-size="20.0" font-family="helvetica">Frigoribacterium faeni 8017 (Y1 8807)</text>
    </g>
    <g>
     <circle stroke="black" stroke-width="0.5" fill="#aaffff" cx="367.0" cy="280.0" r="1.0"/>
     <text stroke="none" x="367.0" y="280.0" font-size="20.0" font-family="helvetica">98</text>
    </g>
    <g>
     <circle stroke="black" stroke-width="0.5" fill="#aaffff" cx="372.0" cy="932.0" r="1.0"/>
     <text stroke="none" x="372.0" y="932.0" font-size="20.0" font-family="helvetica">Frondihabitans australicus</text>
    </g>
    <g>
     <circle stroke="black" stroke-width="0.5" fill="#aaffff" cx="381.0" cy="690.0" r="1.0"/>
     <text stroke="none" x="381.0" y="690.0" font-size="20.0" font-family="helvetica">99</text>
    </g>
    <g>
     <circle stroke="black" stroke-width="0.5" fill="#aaffff" cx="399.0" cy="976.0" r="1.0"/>
     <text stroke="none" x="399.0" y="976.0" font-size="20.0" font-family="helvetica">Mycetocola saprophilus CM-017 (ABO1 2647)</text>
    </g>
    <g>
     <circle stroke="black" stroke-width="0.5" fill="#aaffff" cx="414.0" cy="1020.0" r="1.0"/>
     <text stroke="none" x="414.0" y="1020.0" font-size="20.0" font-family="helvetica">Clavibacter michiganensis</text>
    </g>
    <g>
     <circle stroke="black" stroke-width="0.5" fill="#aaffff" cx="416.0" cy="1326.0" r="1.0"/>
     <text stroke="none" x="416.0" y="1326.0" font-size="20.0" font-family="helvetica">Agromyces ramosus</text>
    </g>
    <g>
     <circle stroke="black" stroke-width="0.5" fill="#aaffff" cx="419.0" cy="845.0" r="1.0"/>
     <text stroke="none" x="419.0" y="845.0" font-size="20.0" font-family="helvetica">Klugiella Xanthotipulae 44C37 (AY372075)</text>
    </g>
    <g>
     <circle stroke="black" stroke-width="0.5" fill="#aaffff" cx="419.0" cy="243.0" r="1.0"/>
     <text stroke="none" x="419.0" y="243.0" font-size="20.0" font-family="helvetica">68</text>
    </g>
    <g>
     <circle stroke="black" stroke-width="0.5" fill="#aaffff" cx="420.0" cy="626.0" r="1.0"/>
     <text stroke="none" x="420.0" y="626.0" font-size="20.0" font-family="helvetica">Glaciibacter superstes</text>
    </g>
    <g>
     <circle stroke="black" stroke-width="0.5" fill="#aaffff" cx="423.0" cy="801.0" r="1.0"/>
     <text stroke="none" x="423.0" y="801.0" font-size="20.0" font-family="helvetica">Labs-deHa gwakjiensis</text>
    </g>
    <g>
     <circle stroke="black" stroke-width="0.5" fill="#aaffff" cx="429.0" cy="121.0" r="1.0"/>
     <text stroke="none" x="429.0" y="121.0" font-size="20.0" font-family="helvetica">100</text>
    </g>
    <g>
     <circle stroke="black" stroke-width="0.5" fill="#aaffff" cx="449.0" cy="450.0" r="1.0"/>
     <text stroke="none" x="449.0" y="450.0" font-size="20.0" font-family="helvetica">Okibacteriurn fritillariae</text>
    </g>
    <g>
     <circle stroke="black" stroke-width="0.5" fill="#aaffff" cx="450.0" cy="669.0" r="1.0"/>
     <text stroke="none" x="450.0" y="669.0" font-size="20.0" font-family="helvetica">Microterricola viridarii</text>
    </g>
    <g>
     <circle stroke="black" stroke-width="0.5" fill="#aaffff" cx="459.0" cy="538.0" r="1.0"/>
     <text stroke="none" x="459.0" y="538.0" font-size="20.0" font-family="helvetica">Agreia bicolorata VKM Ac-18047 (AF159363)</text>
    </g>
    <g>
     <circle stroke="black" stroke-width="0.5" fill="#aaffff" cx="461.0" cy="1195.0" r="1.0"/>
     <text stroke="none" x="461.0" y="1195.0" font-size="20.0" font-family="helvetica">Zimmermannella alba IFO 156167 (AB012590)</text>
    </g>
    <g>
     <circle stroke="black" stroke-width="0.5" fill="#aaffff" cx="462.0" cy="713.0" r="1.0"/>
     <text stroke="none" x="462.0" y="713.0" font-size="20.0" font-family="helvetica">Phycicola gilvus SSWW-217 (AM286414)</text>
    </g>
    <g>
     <circle stroke="black" stroke-width="0.5" fill="#aaffff" cx="480.0" cy="494.0" r="1.0"/>
     <text stroke="none" x="480.0" y="494.0" font-size="20.0" font-family="helvetica">Plantibacter flavus</text>
    </g>
    <g>
     <circle stroke="black" stroke-width="0.5" fill="#aaffff" cx="494.0" cy="757.0" r="1.0"/>
     <text stroke="none" x="494.0" y="757.0" font-size="20.0" font-family="helvetica">Cryobacterium psychrophfmm DSM 48547 (AJ544063)</text>
    </g>
    <g>
     <circle stroke="black" stroke-width="0.5" fill="#aaffff" cx="496.0" cy="1239.0" r="1.0"/>
     <text stroke="none" x="496.0" y="1239.0" font-size="20.0" font-family="helvetica">Pseudoclavibacter helvolus DSM 204197 (X77440)</text>
    </g>
    <g>
     <circle stroke="black" stroke-width="0.5" fill="#aaffff" cx="504.0" cy="319.0" r="1.0"/>
     <text stroke="none" x="504.0" y="319.0" font-size="20.0" font-family="helvetica">Strain cw1T (EF373534)</text>
    </g>
    <g>
     <circle stroke="black" stroke-width="0.5" fill="#aaffff" cx="504.0" cy="1283.0" r="1.0"/>
     <text stroke="none" x="504.0" y="1283.0" font-size="20.0" font-family="helvetica">Leucobacter komagatae JCM 94147 (D45063)</text>
    </g>
    <g>
     <circle stroke="black" stroke-width="0.5" fill="#aaffff" cx="505.0" cy="582.0" r="1.0"/>
     <text stroke="none" x="505.0" y="582.0" font-size="20.0" font-family="helvetica">Subtercola boreus</text>
    </g>
    <g>
     <circle stroke="black" stroke-width="0.5" fill="#aaffff" cx="512.0" cy="56.0" r="1.0"/>
     <text stroke="none" x="512.0" y="56.0" font-size="20.0" font-family="helvetica">Schumannella luteola</text>
    </g>
    <g>
     <circle stroke="black" stroke-width="0.5" fill="#aaffff" cx="512.0" cy="275.0" r="1.0"/>
     <text stroke="none" x="512.0" y="275.0" font-size="20.0" font-family="helvetica">Yonghaparkia alkaliphila</text>
    </g>
    <g>
     <circle stroke="black" stroke-width="0.5" fill="#aaffff" cx="514.0" cy="13.0" r="1.0"/>
     <text stroke="none" x="514.0" y="13.0" font-size="20.0" font-family="helvetica">Leifsonia aquatica DSM 201467 (X77450)</text>
    </g>
    <g>
     <circle stroke="black" stroke-width="0.5" fill="#aaffff" cx="516.0" cy="144.0" r="1.0"/>
     <text stroke="none" x="516.0" y="144.0" font-size="20.0" font-family="helvetica">Salinibacterium amurskyense KMM 36737 (AF539697)</text>
    </g>
    <g>
     <circle stroke="black" stroke-width="0.5" fill="#aaffff" cx="520.0" cy="210.0" r="1.0"/>
     <text stroke="none" x="520.0" y="210.0" font-size="20.0" font-family="helvetica">99</text>
    </g>
    <g>
     <circle stroke="black" stroke-width="0.5" fill="#aaffff" cx="541.0" cy="1414.0" r="1.0"/>
     <text stroke="none" x="541.0" y="1414.0" font-size="20.0" font-family="helvetica">Arthrobacter globiformis DSM 201 247 (X80736)</text>
    </g>
    <g>
     <circle stroke="black" stroke-width="0.5" fill="#aaffff" cx="558.0" cy="231.0" r="1.0"/>
     <text stroke="none" x="558.0" y="231.0" font-size="20.0" font-family="helvetica">Microcella putealis CV-27 (AJ717388)</text>
    </g>
    <g>
     <circle stroke="black" stroke-width="0.5" fill="#aaffff" cx="560.0" cy="100.0" r="1.0"/>
     <text stroke="none" x="560.0" y="100.0" font-size="20.0" font-family="helvetica">Rhodoglobus vestalii</text>
    </g>
    <g>
     <circle stroke="black" stroke-width="0.5" fill="#aaffff" cx="569.0" cy="187.0" r="1.0"/>
     <text stroke="none" x="569.0" y="187.0" font-size="20.0" font-family="helvetica">Microcella alkaliphila</text>
    </g>
    <g>
     <circle stroke="black" stroke-width="0.5" fill="#aaffff" cx="581.0" cy="362.0" r="1.0"/>
     <text stroke="none" x="581.0" y="362.0" font-size="20.0" font-family="helvetica">Agrococcus jenensis</text>
    </g>
    <g>
     <circle stroke="black" stroke-width="0.5" fill="#aaffff" cx="625.0" cy="407.0" r="1.0"/>
     <text stroke="none" x="625.0" y="407.0" font-size="20.0" font-family="helvetica">Microbacterium lacticum DSM 204277 (X77441)</text>
    </g>
    <g>
     <circle stroke="black" stroke-width="0.5" fill="#aaffff" cx="635.0" cy="1151.0" r="1.0"/>
     <text stroke="none" x="635.0" y="1151.0" font-size="20.0" font-family="helvetica">Gulosibacter molinativorax ON47 (AJ306835)</text>
    </g>
    <line stroke="black" x1="512.0" y1="56.0" x2="310.0" y2="35.0" stroke-width="0.5"/>
    <line stroke="black" x1="516.0" y1="144.0" x2="429.0" y2="121.0" stroke-width="0.5"/>
    <line stroke="black" x1="569.0" y1="187.0" x2="520.0" y2="210.0" stroke-width="0.5"/>
    <line stroke="black" x1="480.0" y1="494.0" x2="324.0" y2="471.0" stroke-width="0.5"/>
    <line stroke="black" x1="581.0" y1="362.0" x2="300.0" y2="386.0" stroke-width="0.5"/>
    <line stroke="black" x1="450.0" y1="669.0" x2="381.0" y2="690.0" stroke-width="0.5"/>
    <line stroke="black" x1="462.0" y1="713.0" x2="381.0" y2="690.0" stroke-width="0.5"/>
    <line stroke="black" x1="419.0" y1="845.0" x2="242.0" y2="810.0" stroke-width="0.5"/>
    <line stroke="black" x1="423.0" y1="801.0" x2="277.0" y2="780.0" stroke-width="0.5"/>
    <line stroke="black" x1="341.0" y1="888.0" x2="212.0" y2="909.0" stroke-width="0.5"/>
    <line stroke="black" x1="399.0" y1="976.0" x2="149.0" y2="877.0" stroke-width="0.5"/>
    <line stroke="black" x1="414.0" y1="1020.0" x2="143.0" y2="948.0" stroke-width="0.5"/>
    <line stroke="black" x1="340.0" y1="1063.0" x2="123.0" y2="1007.0" stroke-width="0.5"/>
    <line stroke="black" x1="329.0" y1="1108.0" x2="104.0" y2="1057.0" stroke-width="0.5"/>
    <line stroke="black" x1="504.0" y1="1283.0" x2="131.0" y2="1243.0" stroke-width="0.5"/>
    <line stroke="black" x1="496.0" y1="1239.0" x2="241.0" y2="1207.0" stroke-width="0.5"/>
    <line stroke="black" x1="416.0" y1="1326.0" x2="89.0" y2="1347.0" stroke-width="0.5"/>
    <line stroke="black" x1="635.0" y1="1151.0" x2="280.0" y2="1174.0" stroke-width="0.5"/>
    <line stroke="black" x1="310.0" y1="35.0" x2="272.0" y2="79.0" stroke-width="0.5"/>
    <line stroke="black" x1="272.0" y1="79.0" x2="254.0" y2="180.0" stroke-width="0.5"/>
    <line stroke="black" x1="272.0" y1="79.0" x2="429.0" y2="121.0" stroke-width="0.5"/>
    <line stroke="black" x1="254.0" y1="180.0" x2="222.0" y2="305.0" stroke-width="0.5"/>
    <line stroke="black" x1="254.0" y1="180.0" x2="367.0" y2="280.0" stroke-width="0.5"/>
    <line stroke="black" x1="222.0" y1="305.0" x2="212.0" y2="474.0" stroke-width="0.5"/>
    <line stroke="black" x1="222.0" y1="305.0" x2="257.0" y2="428.0" stroke-width="0.5"/>
    <line stroke="black" x1="367.0" y1="280.0" x2="419.0" y2="243.0" stroke-width="0.5"/>
    <line stroke="black" x1="419.0" y1="243.0" x2="520.0" y2="210.0" stroke-width="0.5"/>
    <line stroke="black" x1="257.0" y1="428.0" x2="324.0" y2="471.0" stroke-width="0.5"/>
    <line stroke="black" x1="257.0" y1="428.0" x2="300.0" y2="386.0" stroke-width="0.5"/>
    <line stroke="black" x1="212.0" y1="474.0" x2="179.0" y2="643.0" stroke-width="0.5"/>
    <line stroke="black" x1="212.0" y1="474.0" x2="236.0" y2="641.0" stroke-width="0.5"/>
    <line stroke="black" x1="236.0" y1="641.0" x2="381.0" y2="690.0" stroke-width="0.5"/>
    <line stroke="black" x1="236.0" y1="641.0" x2="246.0" y2="593.0" stroke-width="0.5"/>
    <line stroke="black" x1="179.0" y1="643.0" x2="160.0" y2="777.0" stroke-width="0.5"/>
    <line stroke="black" x1="179.0" y1="643.0" x2="242.0" y2="810.0" stroke-width="0.5"/>
    <line stroke="black" x1="246.0" y1="593.0" x2="305.0" y2="561.0" stroke-width="0.5"/>
    <line stroke="black" x1="160.0" y1="777.0" x2="149.0" y2="877.0" stroke-width="0.5"/>
    <line stroke="black" x1="160.0" y1="777.0" x2="212.0" y2="909.0" stroke-width="0.5"/>
    <line stroke="black" x1="242.0" y1="810.0" x2="277.0" y2="780.0" stroke-width="0.5"/>
    <line stroke="black" x1="149.0" y1="877.0" x2="143.0" y2="948.0" stroke-width="0.5"/>
    <line stroke="black" x1="143.0" y1="948.0" x2="123.0" y2="1007.0" stroke-width="0.5"/>
    <line stroke="black" x1="123.0" y1="1007.0" x2="104.0" y2="1057.0" stroke-width="0.5"/>
    <line stroke="black" x1="104.0" y1="1057.0" x2="98.0" y2="1151.0" stroke-width="0.5"/>
    <line stroke="black" x1="98.0" y1="1151.0" x2="41.0" y2="1250.0" stroke-width="0.5"/>
    <line stroke="black" x1="98.0" y1="1151.0" x2="131.0" y2="1243.0" stroke-width="0.5"/>
    <line stroke="black" x1="131.0" y1="1243.0" x2="241.0" y2="1207.0" stroke-width="0.5"/>
    <line stroke="black" x1="41.0" y1="1250.0" x2="89.0" y2="1347.0" stroke-width="0.5"/>
    <line stroke="black" x1="241.0" y1="1207.0" x2="280.0" y2="1174.0" stroke-width="0.5"/>
    <line stroke="black" x1="322.0" y1="1370.0" x2="89.0" y2="1347.0" stroke-width="0.5"/>
    <line stroke="black" x1="541.0" y1="1414.0" x2="41.0" y2="1250.0" stroke-width="0.5"/>
    <line stroke="black" x1="372.0" y1="932.0" x2="212.0" y2="909.0" stroke-width="0.5"/>
    <line stroke="black" x1="420.0" y1="626.0" x2="246.0" y2="593.0" stroke-width="0.5"/>
    <line stroke="black" x1="461.0" y1="1195.0" x2="280.0" y2="1174.0" stroke-width="0.5"/>
    <line stroke="black" x1="494.0" y1="757.0" x2="277.0" y2="780.0" stroke-width="0.5"/>
    <line stroke="black" x1="459.0" y1="538.0" x2="305.0" y2="561.0" stroke-width="0.5"/>
    <line stroke="black" x1="449.0" y1="450.0" x2="324.0" y2="471.0" stroke-width="0.5"/>
    <line stroke="black" x1="505.0" y1="582.0" x2="305.0" y2="561.0" stroke-width="0.5"/>
    <line stroke="black" x1="625.0" y1="407.0" x2="300.0" y2="386.0" stroke-width="0.5"/>
    <line stroke="black" x1="514.0" y1="13.0" x2="310.0" y2="35.0" stroke-width="0.5"/>
    <line stroke="black" x1="504.0" y1="319.0" x2="367.0" y2="280.0" stroke-width="0.5"/>
    <line stroke="black" x1="512.0" y1="275.0" x2="419.0" y2="243.0" stroke-width="0.5"/>
    <line stroke="black" x1="560.0" y1="100.0" x2="429.0" y2="121.0" stroke-width="0.5"/>
    <line stroke="black" x1="558.0" y1="231.0" x2="520.0" y2="210.0" stroke-width="0.5"/>
   </g>
  </g>
 </svg>
</svg>
