<?xml version="1.0" encoding="UTF-8"?>
<svg height="800.0" width="700.0" xmlns="http://www.w3.org/2000/svg">
 <svg>
  <g>
   <g>
    <g>
     <circle stroke="black" stroke-width="0.5" fill="#aaffff" cx="20.0" cy="859.0" r="1.0"/>
     <text stroke="none" x="20.0" y="859.0" font-size="10.0" font-family="helvetica">NT1.1</text>
    </g>
    <g>
     <circle stroke="black" stroke-width="0.5" fill="#aaffff" cx="24.0" cy="507.0" r="1.0"/>
     <text stroke="none" x="24.0" y="507.0" font-size="10.0" font-family="helvetica">NT1.2</text>
    </g>
    <g>
     <circle stroke="black" stroke-width="0.5" fill="#aaffff" cx="31.0" cy="756.0" r="1.0"/>
     <text stroke="none" x="31.0" y="756.0" font-size="10.0" font-family="helvetica">NT1.3</text>
    </g>
    <g>
     <circle stroke="black" stroke-width="0.5" fill="#aaffff" cx="37.0" cy="490.0" r="1.0"/>
     <text stroke="none" x="37.0" y="490.0" font-size="10.0" font-family="helvetica">NT1.4</text>
    </g>
    <g>
     <circle stroke="black" stroke-width="0.5" fill="#aaffff" cx="45.0" cy="583.0" r="1.0"/>
     <text stroke="none" x="45.0" y="583.0" font-size="10.0" font-family="helvetica">NT1.5</text>
    </g>
    <g>
     <circle stroke="black" stroke-width="0.5" fill="#aaffff" cx="47.0" cy="122.0" r="1.0"/>
     <text stroke="none" x="47.0" y="122.0" font-size="10.0" font-family="helvetica">NT1.6</text>
    </g>
    <g>
     <circle stroke="black" stroke-width="0.5" fill="#aaffff" cx="53.0" cy="670.0" r="1.0"/>
     <text stroke="none" x="53.0" y="670.0" font-size="10.0" font-family="helvetica">NT1.7</text>
    </g>
    <g>
     <circle stroke="black" stroke-width="0.5" fill="#aaffff" cx="54.0" cy="259.0" r="1.0"/>
     <text stroke="none" x="54.0" y="259.0" font-size="20.0" font-family="helvetica">69</text>
    </g>
    <g>
     <circle stroke="black" stroke-width="0.5" fill="#aaffff" cx="57.0" cy="1055.0" r="1.0"/>
     <text stroke="none" x="57.0" y="1055.0" font-size="10.0" font-family="helvetica">NT1.9</text>
    </g>
    <g>
     <circle stroke="black" stroke-width="0.5" fill="#aaffff" cx="66.0" cy="395.0" r="1.0"/>
     <text stroke="none" x="66.0" y="395.0" font-size="10.0" font-family="helvetica">NT1.10</text>
    </g>
    <g>
     <circle stroke="black" stroke-width="0.5" fill="#aaffff" cx="75.0" cy="777.0" r="1.0"/>
     <text stroke="none" x="75.0" y="777.0" font-size="10.0" font-family="helvetica">NT1.11</text>
    </g>
    <g>
     <circle stroke="black" stroke-width="0.5" fill="#aaffff" cx="92.0" cy="1212.0" r="1.0"/>
     <text stroke="none" x="92.0" y="1212.0" font-size="10.0" font-family="helvetica">NT1.12</text>
    </g>
    <g>
     <circle stroke="black" stroke-width="0.5" fill="#aaffff" cx="118.0" cy="698.0" r="1.0"/>
     <text stroke="none" x="118.0" y="698.0" font-size="10.0" font-family="helvetica">NT1.13</text>
    </g>
    <g>
     <circle stroke="black" stroke-width="0.5" fill="#aaffff" cx="129.0" cy="565.0" r="1.0"/>
     <text stroke="none" x="129.0" y="565.0" font-size="10.0" font-family="helvetica">NT1.14</text>
    </g>
    <g>
     <circle stroke="black" stroke-width="0.5" fill="#aaffff" cx="138.0" cy="739.0" r="1.0"/>
     <text stroke="none" x="138.0" y="739.0" font-size="20.0" font-family="helvetica">88</text>
    </g>
    <g>
     <circle stroke="black" stroke-width="0.5" fill="#aaffff" cx="167.0" cy="22.0" r="1.0"/>
     <text stroke="none" x="167.0" y="22.0" font-size="20.0" font-family="helvetica">Flavobacterium aquatile ATCC 11947T (M62797)</text>
    </g>
    <g>
     <circle stroke="black" stroke-width="0.5" fill="#aaffff" cx="168.0" cy="498.0" r="1.0"/>
     <text stroke="none" x="168.0" y="498.0" font-size="10.0" font-family="helvetica">NT1.17</text>
    </g>
    <g>
     <circle stroke="black" stroke-width="0.5" fill="#aaffff" cx="171.0" cy="360.0" r="1.0"/>
     <text stroke="none" x="171.0" y="360.0" font-size="20.0" font-family="helvetica">Cellulophaga lytica ATCC 23178T (M62796)</text>
    </g>
    <g>
     <circle stroke="black" stroke-width="0.5" fill="#aaffff" cx="175.0" cy="1041.0" r="1.0"/>
     <text stroke="none" x="175.0" y="1041.0" font-size="10.0" font-family="helvetica">NT1.19</text>
    </g>
    <g>
     <circle stroke="black" stroke-width="0.5" fill="#aaffff" cx="177.0" cy="428.0" r="1.0"/>
     <text stroke="none" x="177.0" y="428.0" font-size="20.0" font-family="helvetica">Cellulophaga algicola IC166T (AFO01366)</text>
    </g>
    <g>
     <circle stroke="black" stroke-width="0.5" fill="#aaffff" cx="182.0" cy="225.0" r="1.0"/>
     <text stroke="none" x="182.0" y="225.0" font-size="20.0" font-family="helvetica">Gelidibacter algens ACAM 536T (U62914)</text>
    </g>
    <g>
     <circle stroke="black" stroke-width="0.5" fill="#aaffff" cx="192.0" cy="293.0" r="1.0"/>
     <text stroke="none" x="192.0" y="293.0" font-size="10.0" font-family="helvetica">NT1.22</text>
    </g>
    <g>
     <circle stroke="black" stroke-width="0.5" fill="#aaffff" cx="194.0" cy="1110.0" r="1.0"/>
     <text stroke="none" x="194.0" y="1110.0" font-size="20.0" font-family="helvetica">Salegentibacter salegens DSM 54247 (M92279)</text>
    </g>
    <g>
     <circle stroke="black" stroke-width="0.5" fill="#aaffff" cx="214.0" cy="837.0" r="1.0"/>
     <text stroke="none" x="214.0" y="837.0" font-size="20.0" font-family="helvetica">Aequorivita antarctica SW49T (AY027802)</text>
    </g>
    <g>
     <circle stroke="black" stroke-width="0.5" fill="#aaffff" cx="215.0" cy="157.0" r="1.0"/>
     <text stroke="none" x="215.0" y="157.0" font-size="20.0" font-family="helvetica">Coenonia anatina LMG 14382T (Y17612)</text>
    </g>
    <g>
     <circle stroke="black" stroke-width="0.5" fill="#aaffff" cx="223.0" cy="973.0" r="1.0"/>
     <text stroke="none" x="223.0" y="973.0" font-size="20.0" font-family="helvetica">Psychroflexus torquis ACAM 6237 (U85881)</text>
    </g>
    <g>
     <circle stroke="black" stroke-width="0.5" fill="#aaffff" cx="224.0" cy="1245.0" r="1.0"/>
     <text stroke="none" x="224.0" y="1245.0" font-size="20.0" font-family="helvetica">Polaribacter mamentus 215T (U73726)</text>
    </g>
    <g>
     <circle stroke="black" stroke-width="0.5" fill="#aaffff" cx="234.0" cy="1177.0" r="1.0"/>
     <text stroke="none" x="234.0" y="1177.0" font-size="10.0" font-family="helvetica">NT1.28</text>
    </g>
    <g>
     <circle stroke="black" stroke-width="0.5" fill="#aaffff" cx="250.0" cy="701.0" r="1.0"/>
     <text stroke="none" x="250.0" y="701.0" font-size="10.0" font-family="helvetica">NT1.29</text>
    </g>
    <g>
     <circle stroke="black" stroke-width="0.5" fill="#aaffff" cx="251.0" cy="633.0" r="1.0"/>
     <text stroke="none" x="251.0" y="633.0" font-size="10.0" font-family="helvetica">NT1.30</text>
    </g>
    <g>
     <circle stroke="black" stroke-width="0.5" fill="#aaffff" cx="266.0" cy="90.0" r="1.0"/>
     <text stroke="none" x="266.0" y="90.0" font-size="20.0" font-family="helvetica">Capnocytophaga ochracea ATCC 27872T (U41350)</text>
    </g>
    <g>
     <circle stroke="black" stroke-width="0.5" fill="#aaffff" cx="306.0" cy="770.0" r="1.0"/>
     <text stroke="none" x="306.0" y="770.0" font-size="10.0" font-family="helvetica">NT1.32</text>
    </g>
    <g>
     <circle stroke="black" stroke-width="0.5" fill="#aaffff" cx="7.0" cy="481.0" r="1.0"/>
     <text stroke="none" x="7.0" y="481.0" font-size="10.0" font-family="helvetica">NT1.33</text>
    </g>
    <line stroke="black" x1="167.0" y1="22.0" x2="47.0" y2="122.0" stroke-width="0.5"/>
    <line stroke="black" x1="215.0" y1="157.0" x2="47.0" y2="122.0" stroke-width="0.5"/>
    <line stroke="black" x1="266.0" y1="90.0" x2="47.0" y2="122.0" stroke-width="0.5"/>
    <line stroke="black" x1="223.0" y1="973.0" x2="57.0" y2="1055.0" stroke-width="0.5"/>
    <line stroke="black" x1="20.0" y1="859.0" x2="24.0" y2="507.0" stroke-width="0.5"/>
    <line stroke="black" x1="24.0" y1="507.0" x2="31.0" y2="756.0" stroke-width="0.5"/>
    <line stroke="black" x1="31.0" y1="756.0" x2="37.0" y2="490.0" stroke-width="0.5"/>
    <line stroke="black" x1="37.0" y1="490.0" x2="66.0" y2="395.0" stroke-width="0.5"/>
    <line stroke="black" x1="66.0" y1="395.0" x2="177.0" y2="428.0" stroke-width="0.5"/>
    <line stroke="black" x1="7.0" y1="481.0" x2="47.0" y2="122.0" stroke-width="0.5"/>
    <line stroke="black" x1="20.0" y1="859.0" x2="7.0" y2="481.0" stroke-width="0.5"/>
    <line stroke="black" x1="31.0" y1="756.0" x2="57.0" y2="1055.0" stroke-width="0.5"/>
    <line stroke="black" x1="194.0" y1="1110.0" x2="57.0" y2="1055.0" stroke-width="0.5"/>
    <line stroke="black" x1="171.0" y1="360.0" x2="66.0" y2="395.0" stroke-width="0.5"/>
    <line stroke="black" x1="224.0" y1="1245.0" x2="92.0" y2="1212.0" stroke-width="0.5"/>
    <line stroke="black" x1="182.0" y1="225.0" x2="54.0" y2="259.0" stroke-width="0.5"/>
    <line stroke="black" x1="214.0" y1="837.0" x2="75.0" y2="777.0" stroke-width="0.5"/>
   </g>
  </g>
 </svg>
</svg>
