<?xml version="1.0" encoding="UTF-8"?>
<svg height="800.0" width="700.0" xmlns="http://www.w3.org/2000/svg">
 <svg>
  <g>
   <g>
    <g>
     <circle stroke="black" stroke-width="0.5" fill="#aaffff" cx="87.0" cy="328.0" r="1.0"/>
     <text stroke="none" x="87.0" y="328.0" font-size="10.0" font-family="helvetica">NT1.1</text>
    </g>
    <g>
     <circle stroke="black" stroke-width="0.5" fill="#aaffff" cx="89.0" cy="145.0" r="1.0"/>
     <text stroke="none" x="89.0" y="145.0" font-size="10.0" font-family="helvetica">NT1.2</text>
    </g>
    <g>
     <circle stroke="black" stroke-width="0.5" fill="#aaffff" cx="96.0" cy="262.0" r="1.0"/>
     <text stroke="none" x="96.0" y="262.0" font-size="20.0" font-family="helvetica"/>
    </g>
    <g>
     <circle stroke="black" stroke-width="0.5" fill="#aaffff" cx="97.0" cy="31.0" r="1.0"/>
     <text stroke="none" x="97.0" y="31.0" font-size="20.0" font-family="helvetica"/>
    </g>
    <g>
     <circle stroke="black" stroke-width="0.5" fill="#aaffff" cx="118.0" cy="145.0" r="1.0"/>
     <text stroke="none" x="118.0" y="145.0" font-size="20.0" font-family="helvetica"/>
    </g>
    <g>
     <circle stroke="black" stroke-width="0.5" fill="#aaffff" cx="118.0" cy="396.0" r="1.0"/>
     <text stroke="none" x="118.0" y="396.0" font-size="20.0" font-family="helvetica">M. shotIsiiATCC 7oo9a1T (AY550225)</text>
    </g>
    <g>
     <circle stroke="black" stroke-width="0.5" fill="#aaffff" cx="784.0" cy="496.0" r="1.0"/>
     <text stroke="none" x="784.0" y="496.0" font-size="20.0" font-family="helvetica"/>
    </g>
    <line stroke="black" x1="118.0" y1="145.0" x2="89.0" y2="145.0" stroke-width="0.5"/>
    <line stroke="black" x1="96.0" y1="262.0" x2="87.0" y2="328.0" stroke-width="0.5"/>
    <line stroke="black" x1="89.0" y1="145.0" x2="87.0" y2="328.0" stroke-width="0.5"/>
    <line stroke="black" x1="97.0" y1="31.0" x2="89.0" y2="145.0" stroke-width="0.5"/>
    <line stroke="black" x1="118.0" y1="396.0" x2="87.0" y2="328.0" stroke-width="0.5"/>
    <line stroke="black" x1="784.0" y1="496.0" x2="87.0" y2="328.0" stroke-width="0.5"/>
   </g>
  </g>
 </svg>
</svg>
