<?xml version="1.0" encoding="UTF-8"?>
<svg height="800.0" width="700.0" xmlns="http://www.w3.org/2000/svg">
 <svg>
  <g>
   <g>
    <g>
     <circle stroke="black" stroke-width="0.5" fill="#aaffff" cx="5.0" cy="54.0" r="1.0"/>
     <text stroke="none" x="5.0" y="54.0" font-size="10.0" font-family="helvetica">NT1.1</text>
    </g>
    <g>
     <circle stroke="black" stroke-width="0.5" fill="#aaffff" cx="86.0" cy="298.0" r="1.0"/>
     <text stroke="none" x="86.0" y="298.0" font-size="10.0" font-family="helvetica">NT1.2</text>
    </g>
    <g>
     <circle stroke="black" stroke-width="0.5" fill="#aaffff" cx="90.0" cy="17.0" r="1.0"/>
     <text stroke="none" x="90.0" y="17.0" font-size="20.0" font-family="helvetica">Zymomonas mobilis ATCC 1O988T(AF281031)</text>
    </g>
    <g>
     <circle stroke="black" stroke-width="0.5" fill="#aaffff" cx="90.0" cy="54.0" r="1.0"/>
     <text stroke="none" x="90.0" y="54.0" font-size="20.0" font-family="helvetica">Sphingomonas haloaromaticamans A1 75T (X94101)</text>
    </g>
    <g>
     <circle stroke="black" stroke-width="0.5" fill="#aaffff" cx="123.0" cy="507.0" r="1.0"/>
     <text stroke="none" x="123.0" y="507.0" font-size="10.0" font-family="helvetica">NT1.5</text>
    </g>
    <g>
     <circle stroke="black" stroke-width="0.5" fill="#aaffff" cx="161.0" cy="171.0" r="1.0"/>
     <text stroke="none" x="161.0" y="171.0" font-size="10.0" font-family="helvetica">NT1.6</text>
    </g>
    <g>
     <circle stroke="black" stroke-width="0.5" fill="#aaffff" cx="173.0" cy="90.0" r="1.0"/>
     <text stroke="none" x="173.0" y="90.0" font-size="20.0" font-family="helvetica">Sphingosinicella microcystinivorans Y2T (ABO84247)</text>
    </g>
    <g>
     <circle stroke="black" stroke-width="0.5" fill="#aaffff" cx="183.0" cy="844.0" r="1.0"/>
     <text stroke="none" x="183.0" y="844.0" font-size="10.0" font-family="helvetica">NT1.8</text>
    </g>
    <g>
     <circle stroke="black" stroke-width="0.5" fill="#aaffff" cx="217.0" cy="214.0" r="1.0"/>
     <text stroke="none" x="217.0" y="214.0" font-size="10.0" font-family="helvetica">NT1.9</text>
    </g>
    <g>
     <circle stroke="black" stroke-width="0.5" fill="#aaffff" cx="248.0" cy="127.0" r="1.0"/>
     <text stroke="none" x="248.0" y="127.0" font-size="20.0" font-family="helvetica">Sphingomonas suberifaciens IFO 1521 17 (D13737)</text>
    </g>
    <g>
     <circle stroke="black" stroke-width="0.5" fill="#aaffff" cx="253.0" cy="266.0" r="1.0"/>
     <text stroke="none" x="253.0" y="266.0" font-size="10.0" font-family="helvetica">NT1.11</text>
    </g>
    <g>
     <circle stroke="black" stroke-width="0.5" fill="#aaffff" cx="268.0" cy="872.0" r="1.0"/>
     <text stroke="none" x="268.0" y="872.0" font-size="10.0" font-family="helvetica">NT1.12</text>
    </g>
    <g>
     <circle stroke="black" stroke-width="0.5" fill="#aaffff" cx="269.0" cy="818.0" r="1.0"/>
     <text stroke="none" x="269.0" y="818.0" font-size="20.0" font-family="helvetica">Novosphingobium indicum H257 (EF549586)</text>
    </g>
    <g>
     <circle stroke="black" stroke-width="0.5" fill="#aaffff" cx="274.0" cy="334.0" r="1.0"/>
     <text stroke="none" x="274.0" y="334.0" font-size="10.0" font-family="helvetica">NT1.14</text>
    </g>
    <g>
     <circle stroke="black" stroke-width="0.5" fill="#aaffff" cx="294.0" cy="434.0" r="1.0"/>
     <text stroke="none" x="294.0" y="434.0" font-size="10.0" font-family="helvetica">NT1.15</text>
    </g>
    <g>
     <circle stroke="black" stroke-width="0.5" fill="#aaffff" cx="304.0" cy="163.0" r="1.0"/>
     <text stroke="none" x="304.0" y="163.0" font-size="20.0" font-family="helvetica">Sphingobium aromaticicon vertens DSM 1 26777 (AM181 O1 2)</text>
    </g>
    <g>
     <circle stroke="black" stroke-width="0.5" fill="#aaffff" cx="308.0" cy="598.0" r="1.0"/>
     <text stroke="none" x="308.0" y="598.0" font-size="10.0" font-family="helvetica">NT1.17</text>
    </g>
    <g>
     <circle stroke="black" stroke-width="0.5" fill="#aaffff" cx="329.0" cy="495.0" r="1.0"/>
     <text stroke="none" x="329.0" y="495.0" font-size="10.0" font-family="helvetica">NT1.18</text>
    </g>
    <g>
     <circle stroke="black" stroke-width="0.5" fill="#aaffff" cx="340.0" cy="199.0" r="1.0"/>
     <text stroke="none" x="340.0" y="199.0" font-size="20.0" font-family="helvetica">Sphingobium qiguonii X237 (EU095328)</text>
    </g>
    <g>
     <circle stroke="black" stroke-width="0.5" fill="#aaffff" cx="341.0" cy="703.0" r="1.0"/>
     <text stroke="none" x="341.0" y="703.0" font-size="10.0" font-family="helvetica">NT1.20</text>
    </g>
    <g>
     <circle stroke="black" stroke-width="0.5" fill="#aaffff" cx="347.0" cy="372.0" r="1.0"/>
     <text stroke="none" x="347.0" y="372.0" font-size="10.0" font-family="helvetica">NT1.21</text>
    </g>
    <g>
     <circle stroke="black" stroke-width="0.5" fill="#aaffff" cx="356.0" cy="855.0" r="1.0"/>
     <text stroke="none" x="356.0" y="855.0" font-size="20.0" font-family="helvetica">Blastomonas natatoria DSM 31837 (AB024288)</text>
    </g>
    <g>
     <circle stroke="black" stroke-width="0.5" fill="#aaffff" cx="356.0" cy="892.0" r="1.0"/>
     <text stroke="none" x="356.0" y="892.0" font-size="20.0" font-family="helvetica">Blastomonas ursincola KR-997 (Y10677)</text>
    </g>
    <g>
     <circle stroke="black" stroke-width="0.5" fill="#aaffff" cx="361.0" cy="236.0" r="1.0"/>
     <text stroke="none" x="361.0" y="236.0" font-size="20.0" font-family="helvetica">Sphingobium Xenophagum BN6T (X94098)</text>
    </g>
    <g>
     <circle stroke="black" stroke-width="0.5" fill="#aaffff" cx="375.0" cy="327.0" r="1.0"/>
     <text stroke="none" x="375.0" y="327.0" font-size="10.0" font-family="helvetica">NT1.25</text>
    </g>
    <g>
     <circle stroke="black" stroke-width="0.5" fill="#aaffff" cx="380.0" cy="272.0" r="1.0"/>
     <text stroke="none" x="380.0" y="272.0" font-size="20.0" font-family="helvetica">Sphingobium fuliginis TKPT (DQ092757)</text>
    </g>
    <g>
     <circle stroke="black" stroke-width="0.5" fill="#aaffff" cx="389.0" cy="416.0" r="1.0"/>
     <text stroke="none" x="389.0" y="416.0" font-size="10.0" font-family="helvetica">NT1.27</text>
    </g>
    <g>
     <circle stroke="black" stroke-width="0.5" fill="#aaffff" cx="395.0" cy="617.0" r="1.0"/>
     <text stroke="none" x="395.0" y="617.0" font-size="10.0" font-family="helvetica">NT1.28</text>
    </g>
    <g>
     <circle stroke="black" stroke-width="0.5" fill="#aaffff" cx="404.0" cy="735.0" r="1.0"/>
     <text stroke="none" x="404.0" y="735.0" font-size="10.0" font-family="helvetica">NT1.29</text>
    </g>
    <g>
     <circle stroke="black" stroke-width="0.5" fill="#aaffff" cx="428.0" cy="672.0" r="1.0"/>
     <text stroke="none" x="428.0" y="672.0" font-size="20.0" font-family="helvetica">Sphingobium rhizovicinum CC-FH1 2-1 T (EF465534)</text>
    </g>
    <g>
     <circle stroke="black" stroke-width="0.5" fill="#aaffff" cx="444.0" cy="450.0" r="1.0"/>
     <text stroke="none" x="444.0" y="450.0" font-size="10.0" font-family="helvetica">NT1.31</text>
    </g>
    <g>
     <circle stroke="black" stroke-width="0.5" fill="#aaffff" cx="462.0" cy="308.0" r="1.0"/>
     <text stroke="none" x="462.0" y="308.0" font-size="20.0" font-family="helvetica">Sphingobium yanoikuyae GIFU 9882T (D1 6145)</text>
    </g>
    <g>
     <circle stroke="black" stroke-width="0.5" fill="#aaffff" cx="462.0" cy="345.0" r="1.0"/>
     <text stroke="none" x="462.0" y="345.0" font-size="20.0" font-family="helvetica">Sphingobium amiense YTT (ABO47364)</text>
    </g>
    <g>
     <circle stroke="black" stroke-width="0.5" fill="#aaffff" cx="476.0" cy="382.0" r="1.0"/>
     <text stroke="none" x="476.0" y="382.0" font-size="20.0" font-family="helvetica">Sphingobium herbicidovorans MBIC 3166T (ABO22428)</text>
    </g>
    <g>
     <circle stroke="black" stroke-width="0.5" fill="#aaffff" cx="477.0" cy="484.0" r="1.0"/>
     <text stroke="none" x="477.0" y="484.0" font-size="10.0" font-family="helvetica">NT1.35</text>
    </g>
    <g>
     <circle stroke="black" stroke-width="0.5" fill="#aaffff" cx="480.0" cy="762.0" r="1.0"/>
     <text stroke="none" x="480.0" y="762.0" font-size="10.0" font-family="helvetica">NT1.36</text>
    </g>
    <g>
     <circle stroke="black" stroke-width="0.5" fill="#aaffff" cx="482.0" cy="600.0" r="1.0"/>
     <text stroke="none" x="482.0" y="600.0" font-size="20.0" font-family="helvetica">Sphingobium cloacae S-37 (AB040739)</text>
    </g>
    <g>
     <circle stroke="black" stroke-width="0.5" fill="#aaffff" cx="482.0" cy="636.0" r="1.0"/>
     <text stroke="none" x="482.0" y="636.0" font-size="20.0" font-family="helvetica">Sphingobium ummariense RL-3) (EF207155)</text>
    </g>
    <g>
     <circle stroke="black" stroke-width="0.5" fill="#aaffff" cx="492.0" cy="709.0" r="1.0"/>
     <text stroke="none" x="492.0" y="709.0" font-size="20.0" font-family="helvetica">Sphingobium olei IMMIB HF-1T (AM489507)</text>
    </g>
    <g>
     <circle stroke="black" stroke-width="0.5" fill="#aaffff" cx="531.0" cy="418.0" r="1.0"/>
     <text stroke="none" x="531.0" y="418.0" font-size="20.0" font-family="helvetica">Sphingobium chlorophenolicum ATCC 3379OT (X871 61)</text>
    </g>
    <g>
     <circle stroke="black" stroke-width="0.5" fill="#aaffff" cx="539.0" cy="517.0" r="1.0"/>
     <text stroke="none" x="539.0" y="517.0" font-size="10.0" font-family="helvetica">NT1.41</text>
    </g>
    <g>
     <circle stroke="black" stroke-width="0.5" fill="#aaffff" cx="564.0" cy="454.0" r="1.0"/>
     <text stroke="none" x="564.0" y="454.0" font-size="20.0" font-family="helvetica">Sphingobium chungbukense DJ77T (AF159257)</text>
    </g>
    <g>
     <circle stroke="black" stroke-width="0.5" fill="#aaffff" cx="567.0" cy="746.0" r="1.0"/>
     <text stroke="none" x="567.0" y="746.0" font-size="20.0" font-family="helvetica">Sphingobium lactosutens DS2OT (EU675846)</text>
    </g>
    <g>
     <circle stroke="black" stroke-width="0.5" fill="#aaffff" cx="567.0" cy="782.0" r="1.0"/>
     <text stroke="none" x="567.0" y="782.0" font-size="20.0" font-family="helvetica">Sphingobium abikonense IAM124O4T (ABO21416)</text>
    </g>
    <g>
     <circle stroke="black" stroke-width="0.5" fill="#aaffff" cx="573.0" cy="544.0" r="1.0"/>
     <text stroke="none" x="573.0" y="544.0" font-size="10.0" font-family="helvetica">NT1.45</text>
    </g>
    <g>
     <circle stroke="black" stroke-width="0.5" fill="#aaffff" cx="626.0" cy="490.0" r="1.0"/>
     <text stroke="none" x="626.0" y="490.0" font-size="20.0" font-family="helvetica">Sphingobium japonicum UT26T (AF0391 68)</text>
    </g>
    <g>
     <circle stroke="black" stroke-width="0.5" fill="#aaffff" cx="661.0" cy="527.0" r="1.0"/>
     <text stroke="none" x="661.0" y="527.0" font-size="20.0" font-family="helvetica">Sphingobium francense Sp-1-T (AY519130)</text>
    </g>
    <g>
     <circle stroke="black" stroke-width="0.5" fill="#aaffff" cx="661.0" cy="564.0" r="1.0"/>
     <text stroke="none" x="661.0" y="564.0" font-size="20.0" font-family="helvetica">Sphingobium indicum BQOAT (AY519129)</text>
    </g>
    <line stroke="black" x1="90.0" y1="54.0" x2="5.0" y2="54.0" stroke-width="0.5"/>
    <line stroke="black" x1="248.0" y1="127.0" x2="161.0" y2="171.0" stroke-width="0.5"/>
    <line stroke="black" x1="269.0" y1="818.0" x2="183.0" y2="844.0" stroke-width="0.5"/>
    <line stroke="black" x1="356.0" y1="855.0" x2="268.0" y2="872.0" stroke-width="0.5"/>
    <line stroke="black" x1="356.0" y1="892.0" x2="268.0" y2="872.0" stroke-width="0.5"/>
    <line stroke="black" x1="361.0" y1="236.0" x2="274.0" y2="334.0" stroke-width="0.5"/>
    <line stroke="black" x1="492.0" y1="709.0" x2="404.0" y2="735.0" stroke-width="0.5"/>
    <line stroke="black" x1="482.0" y1="600.0" x2="395.0" y2="617.0" stroke-width="0.5"/>
    <line stroke="black" x1="482.0" y1="636.0" x2="395.0" y2="617.0" stroke-width="0.5"/>
    <line stroke="black" x1="567.0" y1="746.0" x2="480.0" y2="762.0" stroke-width="0.5"/>
    <line stroke="black" x1="476.0" y1="382.0" x2="389.0" y2="416.0" stroke-width="0.5"/>
    <line stroke="black" x1="531.0" y1="418.0" x2="444.0" y2="450.0" stroke-width="0.5"/>
    <line stroke="black" x1="86.0" y1="298.0" x2="123.0" y2="507.0" stroke-width="0.5"/>
    <line stroke="black" x1="123.0" y1="507.0" x2="183.0" y2="844.0" stroke-width="0.5"/>
    <line stroke="black" x1="123.0" y1="507.0" x2="161.0" y2="171.0" stroke-width="0.5"/>
    <line stroke="black" x1="161.0" y1="171.0" x2="217.0" y2="214.0" stroke-width="0.5"/>
    <line stroke="black" x1="183.0" y1="844.0" x2="268.0" y2="872.0" stroke-width="0.5"/>
    <line stroke="black" x1="217.0" y1="214.0" x2="253.0" y2="266.0" stroke-width="0.5"/>
    <line stroke="black" x1="253.0" y1="266.0" x2="274.0" y2="334.0" stroke-width="0.5"/>
    <line stroke="black" x1="274.0" y1="334.0" x2="294.0" y2="434.0" stroke-width="0.5"/>
    <line stroke="black" x1="294.0" y1="434.0" x2="308.0" y2="598.0" stroke-width="0.5"/>
    <line stroke="black" x1="308.0" y1="598.0" x2="341.0" y2="703.0" stroke-width="0.5"/>
    <line stroke="black" x1="308.0" y1="598.0" x2="329.0" y2="495.0" stroke-width="0.5"/>
    <line stroke="black" x1="329.0" y1="495.0" x2="395.0" y2="617.0" stroke-width="0.5"/>
    <line stroke="black" x1="329.0" y1="495.0" x2="347.0" y2="372.0" stroke-width="0.5"/>
    <line stroke="black" x1="341.0" y1="703.0" x2="404.0" y2="735.0" stroke-width="0.5"/>
    <line stroke="black" x1="404.0" y1="735.0" x2="480.0" y2="762.0" stroke-width="0.5"/>
    <line stroke="black" x1="347.0" y1="372.0" x2="389.0" y2="416.0" stroke-width="0.5"/>
    <line stroke="black" x1="347.0" y1="372.0" x2="375.0" y2="327.0" stroke-width="0.5"/>
    <line stroke="black" x1="389.0" y1="416.0" x2="444.0" y2="450.0" stroke-width="0.5"/>
    <line stroke="black" x1="444.0" y1="450.0" x2="477.0" y2="484.0" stroke-width="0.5"/>
    <line stroke="black" x1="477.0" y1="484.0" x2="539.0" y2="517.0" stroke-width="0.5"/>
    <line stroke="black" x1="539.0" y1="517.0" x2="573.0" y2="544.0" stroke-width="0.5"/>
    <line stroke="black" x1="5.0" y1="54.0" x2="86.0" y2="298.0" stroke-width="0.5"/>
    <line stroke="black" x1="90.0" y1="17.0" x2="5.0" y2="54.0" stroke-width="0.5"/>
    <line stroke="black" x1="173.0" y1="90.0" x2="86.0" y2="298.0" stroke-width="0.5"/>
    <line stroke="black" x1="304.0" y1="163.0" x2="217.0" y2="214.0" stroke-width="0.5"/>
    <line stroke="black" x1="340.0" y1="199.0" x2="253.0" y2="266.0" stroke-width="0.5"/>
    <line stroke="black" x1="380.0" y1="272.0" x2="294.0" y2="434.0" stroke-width="0.5"/>
    <line stroke="black" x1="428.0" y1="672.0" x2="341.0" y2="703.0" stroke-width="0.5"/>
    <line stroke="black" x1="462.0" y1="308.0" x2="375.0" y2="327.0" stroke-width="0.5"/>
    <line stroke="black" x1="462.0" y1="345.0" x2="375.0" y2="327.0" stroke-width="0.5"/>
    <line stroke="black" x1="564.0" y1="454.0" x2="477.0" y2="484.0" stroke-width="0.5"/>
    <line stroke="black" x1="567.0" y1="782.0" x2="480.0" y2="762.0" stroke-width="0.5"/>
    <line stroke="black" x1="626.0" y1="490.0" x2="539.0" y2="517.0" stroke-width="0.5"/>
    <line stroke="black" x1="661.0" y1="527.0" x2="573.0" y2="544.0" stroke-width="0.5"/>
    <line stroke="black" x1="661.0" y1="564.0" x2="573.0" y2="544.0" stroke-width="0.5"/>
   </g>
  </g>
 </svg>
</svg>
