<?xml version="1.0" encoding="UTF-8"?>
<svg height="800.0" width="700.0" xmlns="http://www.w3.org/2000/svg">
 <svg>
  <g>
   <g>
    <g>
     <circle stroke="black" stroke-width="0.5" fill="#aaffff" cx="105.0" cy="298.0" r="1.0"/>
     <text stroke="none" x="105.0" y="298.0" font-size="10.0" font-family="helvetica">NT1.1</text>
    </g>
    <g>
     <circle stroke="black" stroke-width="0.5" fill="#aaffff" cx="107.0" cy="475.0" r="1.0"/>
     <text stroke="none" x="107.0" y="475.0" font-size="20.0" font-family="helvetica">Enterococcus faecalis LMG 7937T (AJ301831)</text>
    </g>
    <g>
     <circle stroke="black" stroke-width="0.5" fill="#aaffff" cx="224.0" cy="142.0" r="1.0"/>
     <text stroke="none" x="224.0" y="142.0" font-size="10.0" font-family="helvetica">NT1.3</text>
    </g>
    <g>
     <circle stroke="black" stroke-width="0.5" fill="#aaffff" cx="230.0" cy="310.0" r="1.0"/>
     <text stroke="none" x="230.0" y="310.0" font-size="10.0" font-family="helvetica">NT1.4</text>
    </g>
    <g>
     <circle stroke="black" stroke-width="0.5" fill="#aaffff" cx="234.0" cy="71.0" r="1.0"/>
     <text stroke="none" x="234.0" y="71.0" font-size="20.0" font-family="helvetica">59</text>
    </g>
    <g>
     <circle stroke="black" stroke-width="0.5" fill="#aaffff" cx="241.0" cy="129.0" r="1.0"/>
     <text stroke="none" x="241.0" y="129.0" font-size="10.0" font-family="helvetica">NT1.6</text>
    </g>
    <g>
     <circle stroke="black" stroke-width="0.5" fill="#aaffff" cx="255.0" cy="409.0" r="1.0"/>
     <text stroke="none" x="255.0" y="409.0" font-size="20.0" font-family="helvetica">Streptococcus iniae ATCC 29178T (AF335572)</text>
    </g>
    <g>
     <circle stroke="black" stroke-width="0.5" fill="#aaffff" cx="268.0" cy="180.0" r="1.0"/>
     <text stroke="none" x="268.0" y="180.0" font-size="10.0" font-family="helvetica">NT1.8</text>
    </g>
    <g>
     <circle stroke="black" stroke-width="0.5" fill="#aaffff" cx="279.0" cy="346.0" r="1.0"/>
     <text stroke="none" x="279.0" y="346.0" font-size="20.0" font-family="helvetica">Streptococcus gallinaceus CCUG 42692T (AJ307888)</text>
    </g>
    <g>
     <circle stroke="black" stroke-width="0.5" fill="#aaffff" cx="290.0" cy="213.0" r="1.0"/>
     <text stroke="none" x="290.0" y="213.0" font-size="20.0" font-family="helvetica">Streptococcus minor LMG 21734T (AY232832)</text>
    </g>
    <g>
     <circle stroke="black" stroke-width="0.5" fill="#aaffff" cx="292.0" cy="145.0" r="1.0"/>
     <text stroke="none" x="292.0" y="145.0" font-size="20.0" font-family="helvetica">Streptococcus minor LMG 21735 (AY232833)</text>
    </g>
    <g>
     <circle stroke="black" stroke-width="0.5" fill="#aaffff" cx="293.0" cy="279.0" r="1.0"/>
     <text stroke="none" x="293.0" y="279.0" font-size="20.0" font-family="helvetica">Streptococcus suis NCTC 102347 (AF009477)</text>
    </g>
    <g>
     <circle stroke="black" stroke-width="0.5" fill="#aaffff" cx="325.0" cy="78.0" r="1.0"/>
     <text stroke="none" x="325.0" y="78.0" font-size="20.0" font-family="helvetica">Streptococcus ovis CCUG 39485T (Y17358)</text>
    </g>
    <g>
     <circle stroke="black" stroke-width="0.5" fill="#aaffff" cx="332.0" cy="13.0" r="1.0"/>
     <text stroke="none" x="332.0" y="13.0" font-size="20.0" font-family="helvetica">Streptococcus entericus CECT 5353T (AJ409287)</text>
    </g>
    <g>
     <circle stroke="black" stroke-width="0.5" fill="#aaffff" cx="14.0" cy="298.0" r="1.0"/>
     <text stroke="none" x="14.0" y="298.0" font-size="10.0" font-family="helvetica">NT1.15</text>
    </g>
    <line stroke="black" x1="332.0" y1="13.0" x2="234.0" y2="71.0" stroke-width="0.5"/>
    <line stroke="black" x1="290.0" y1="213.0" x2="268.0" y2="180.0" stroke-width="0.5"/>
    <line stroke="black" x1="325.0" y1="78.0" x2="241.0" y2="129.0" stroke-width="0.5"/>
    <line stroke="black" x1="279.0" y1="346.0" x2="230.0" y2="310.0" stroke-width="0.5"/>
    <line stroke="black" x1="293.0" y1="279.0" x2="230.0" y2="310.0" stroke-width="0.5"/>
    <line stroke="black" x1="255.0" y1="409.0" x2="105.0" y2="298.0" stroke-width="0.5"/>
    <line stroke="black" x1="234.0" y1="71.0" x2="224.0" y2="142.0" stroke-width="0.5"/>
    <line stroke="black" x1="234.0" y1="71.0" x2="241.0" y2="129.0" stroke-width="0.5"/>
    <line stroke="black" x1="224.0" y1="142.0" x2="105.0" y2="298.0" stroke-width="0.5"/>
    <line stroke="black" x1="224.0" y1="142.0" x2="230.0" y2="310.0" stroke-width="0.5"/>
    <line stroke="black" x1="241.0" y1="129.0" x2="268.0" y2="180.0" stroke-width="0.5"/>
    <line stroke="black" x1="268.0" y1="180.0" x2="292.0" y2="145.0" stroke-width="0.5"/>
    <line stroke="black" x1="14.0" y1="298.0" x2="105.0" y2="298.0" stroke-width="0.5"/>
    <line stroke="black" x1="107.0" y1="475.0" x2="14.0" y2="298.0" stroke-width="0.5"/>
   </g>
  </g>
 </svg>
</svg>
