<?xml version="1.0" encoding="UTF-8"?>
<svg height="800.0" width="700.0" xmlns="http://www.w3.org/2000/svg">
 <svg>
  <g>
   <g>
    <g>
     <circle stroke="black" stroke-width="0.5" fill="#aaffff" cx="39.0" cy="301.0" r="1.0"/>
     <text stroke="none" x="39.0" y="301.0" font-size="10.0" font-family="helvetica">NT1.1</text>
    </g>
    <g>
     <circle stroke="black" stroke-width="0.5" fill="#aaffff" cx="91.0" cy="379.0" r="1.0"/>
     <text stroke="none" x="91.0" y="379.0" font-size="10.0" font-family="helvetica">NT1.2</text>
    </g>
    <g>
     <circle stroke="black" stroke-width="0.5" fill="#aaffff" cx="113.0" cy="468.0" r="1.0"/>
     <text stroke="none" x="113.0" y="468.0" font-size="10.0" font-family="helvetica">NT1.3</text>
    </g>
    <g>
     <circle stroke="black" stroke-width="0.5" fill="#aaffff" cx="208.0" cy="363.0" r="1.0"/>
     <text stroke="none" x="208.0" y="363.0" font-size="10.0" font-family="helvetica">NT1.4</text>
    </g>
    <g>
     <circle stroke="black" stroke-width="0.5" fill="#aaffff" cx="212.0" cy="55.0" r="1.0"/>
     <text stroke="none" x="212.0" y="55.0" font-size="20.0" font-family="helvetica">100</text>
    </g>
    <g>
     <circle stroke="black" stroke-width="0.5" fill="#aaffff" cx="261.0" cy="130.0" r="1.0"/>
     <text stroke="none" x="261.0" y="130.0" font-size="10.0" font-family="helvetica">NT1.6</text>
    </g>
    <g>
     <circle stroke="black" stroke-width="0.5" fill="#aaffff" cx="275.0" cy="30.0" r="1.0"/>
     <text stroke="none" x="275.0" y="30.0" font-size="20.0" font-family="helvetica">100</text>
    </g>
    <g>
     <circle stroke="black" stroke-width="0.5" fill="#aaffff" cx="282.0" cy="225.0" r="1.0"/>
     <text stroke="none" x="282.0" y="225.0" font-size="10.0" font-family="helvetica">NT1.8</text>
    </g>
    <g>
     <circle stroke="black" stroke-width="0.5" fill="#aaffff" cx="282.0" cy="441.0" r="1.0"/>
     <text stroke="none" x="282.0" y="441.0" font-size="10.0" font-family="helvetica">NT1.9</text>
    </g>
    <g>
     <circle stroke="black" stroke-width="0.5" fill="#aaffff" cx="283.0" cy="198.0" r="1.0"/>
     <text stroke="none" x="283.0" y="198.0" font-size="20.0" font-family="helvetica"/>
    </g>
    <g>
     <circle stroke="black" stroke-width="0.5" fill="#aaffff" cx="284.0" cy="200.0" r="1.0"/>
     <text stroke="none" x="284.0" y="200.0" font-size="10.0" font-family="helvetica">NT1.11</text>
    </g>
    <g>
     <circle stroke="black" stroke-width="0.5" fill="#aaffff" cx="286.0" cy="341.0" r="1.0"/>
     <text stroke="none" x="286.0" y="341.0" font-size="20.0" font-family="helvetica">88</text>
    </g>
    <g>
     <circle stroke="black" stroke-width="0.5" fill="#aaffff" cx="289.0" cy="145.0" r="1.0"/>
     <text stroke="none" x="289.0" y="145.0" font-size="10.0" font-family="helvetica">NT1.13</text>
    </g>
    <g>
     <circle stroke="black" stroke-width="0.5" fill="#aaffff" cx="311.0" cy="108.0" r="1.0"/>
     <text stroke="none" x="311.0" y="108.0" font-size="20.0" font-family="helvetica">Desulfosporosinus orientis DSM 765T (Y11570)</text>
    </g>
    <g>
     <circle stroke="black" stroke-width="0.5" fill="#aaffff" cx="318.0" cy="77.0" r="1.0"/>
     <text stroke="none" x="318.0" y="77.0" font-size="20.0" font-family="helvetica">Desulfitobacterium metallireducens ATCC BAA-6367 (AF297871)</text>
    </g>
    <g>
     <circle stroke="black" stroke-width="0.5" fill="#aaffff" cx="318.0" cy="170.0" r="1.0"/>
     <text stroke="none" x="318.0" y="170.0" font-size="20.0" font-family="helvetica">Desulfosporosinus auripigmenti DSM 133517 (AJ493051)</text>
    </g>
    <g>
     <circle stroke="black" stroke-width="0.5" fill="#aaffff" cx="333.0" cy="138.0" r="1.0"/>
     <text stroke="none" x="333.0" y="138.0" font-size="20.0" font-family="helvetica">Desulfosporosinus meridiei DSM 132577 (AF076527)</text>
    </g>
    <g>
     <circle stroke="black" stroke-width="0.5" fill="#aaffff" cx="347.0" cy="14.0" r="1.0"/>
     <text stroke="none" x="347.0" y="14.0" font-size="20.0" font-family="helvetica">Desulfitobacterium dehalogenans ATCC 51507T (L28946)</text>
    </g>
    <g>
     <circle stroke="black" stroke-width="0.5" fill="#aaffff" cx="347.0" cy="543.0" r="1.0"/>
     <text stroke="none" x="347.0" y="543.0" font-size="20.0" font-family="helvetica">Cryptanaerobacter phenolicus LR7.2T (AY327251)</text>
    </g>
    <g>
     <circle stroke="black" stroke-width="0.5" fill="#aaffff" cx="353.0" cy="44.0" r="1.0"/>
     <text stroke="none" x="353.0" y="44.0" font-size="20.0" font-family="helvetica">Desulfitobacterium hafniense DSM 106647 (X94975)</text>
    </g>
    <g>
     <circle stroke="black" stroke-width="0.5" fill="#aaffff" cx="375.0" cy="511.0" r="1.0"/>
     <text stroke="none" x="375.0" y="511.0" font-size="20.0" font-family="helvetica">Pelotomaculum thermopropionicum DSM 13744T (ABO35723)</text>
    </g>
    <g>
     <circle stroke="black" stroke-width="0.5" fill="#aaffff" cx="387.0" cy="245.0" r="1.0"/>
     <text stroke="none" x="387.0" y="245.0" font-size="10.0" font-family="helvetica">NT1.22</text>
    </g>
    <g>
     <circle stroke="black" stroke-width="0.5" fill="#aaffff" cx="388.0" cy="257.0" r="1.0"/>
     <text stroke="none" x="388.0" y="257.0" font-size="20.0" font-family="helvetica"/>
    </g>
    <g>
     <circle stroke="black" stroke-width="0.5" fill="#aaffff" cx="389.0" cy="388.0" r="1.0"/>
     <text stroke="none" x="389.0" y="388.0" font-size="20.0" font-family="helvetica">Desulfotomaculum thermosapovorans DSM 6562T (Z26315)</text>
    </g>
    <g>
     <circle stroke="black" stroke-width="0.5" fill="#aaffff" cx="396.0" cy="200.0" r="1.0"/>
     <text stroke="none" x="396.0" y="200.0" font-size="20.0" font-family="helvetica">Moorella glycerini ATCC 700316T (U82327)</text>
    </g>
    <g>
     <circle stroke="black" stroke-width="0.5" fill="#aaffff" cx="403.0" cy="226.0" r="1.0"/>
     <text stroke="none" x="403.0" y="226.0" font-size="20.0" font-family="helvetica">Moorella thermoautotrophica DSM 1974T (L09168)</text>
    </g>
    <g>
     <circle stroke="black" stroke-width="0.5" fill="#aaffff" cx="423.0" cy="463.0" r="1.0"/>
     <text stroke="none" x="423.0" y="463.0" font-size="20.0" font-family="helvetica">100</text>
    </g>
    <g>
     <circle stroke="black" stroke-width="0.5" fill="#aaffff" cx="432.0" cy="294.0" r="1.0"/>
     <text stroke="none" x="432.0" y="294.0" font-size="20.0" font-family="helvetica">Desulfotomaculum acetoxidans DSM 7717 (Y11566)</text>
    </g>
    <g>
     <circle stroke="black" stroke-width="0.5" fill="#aaffff" cx="432.0" cy="321.0" r="1.0"/>
     <text stroke="none" x="432.0" y="321.0" font-size="20.0" font-family="helvetica">Sporotomaculum hydroxybenzoicum DSM 5475T (Y14845)</text>
    </g>
    <g>
     <circle stroke="black" stroke-width="0.5" fill="#aaffff" cx="488.0" cy="417.0" r="1.0"/>
     <text stroke="none" x="488.0" y="417.0" font-size="20.0" font-family="helvetica">Desulfotomaculum australicum ACM 3917T (M96665)</text>
    </g>
    <g>
     <circle stroke="black" stroke-width="0.5" fill="#aaffff" cx="502.0" cy="350.0" r="1.0"/>
     <text stroke="none" x="502.0" y="350.0" font-size="20.0" font-family="helvetica">Sporotomaculum syntrophicum DSM 14795T (AB076610)</text>
    </g>
    <g>
     <circle stroke="black" stroke-width="0.5" fill="#aaffff" cx="516.0" cy="474.0" r="1.0"/>
     <text stroke="none" x="516.0" y="474.0" font-size="20.0" font-family="helvetica">Desulfotomaculum kuznetsovii DSM 6115T (AY036904)</text>
    </g>
    <g>
     <circle stroke="black" stroke-width="0.5" fill="#aaffff" cx="580.0" cy="444.0" r="1.0"/>
     <text stroke="none" x="580.0" y="444.0" font-size="20.0" font-family="helvetica">Desulfotomaculum Iuciae ATCC 700428T (AF069293)</text>
    </g>
    <g>
     <circle stroke="black" stroke-width="0.5" fill="#aaffff" cx="848.0" cy="573.0" r="1.0"/>
     <text stroke="none" x="848.0" y="573.0" font-size="20.0" font-family="helvetica">Escherichia coli (JO1695)</text>
    </g>
    <line stroke="black" x1="318.0" y1="77.0" x2="212.0" y2="55.0" stroke-width="0.5"/>
    <line stroke="black" x1="318.0" y1="170.0" x2="289.0" y2="145.0" stroke-width="0.5"/>
    <line stroke="black" x1="333.0" y1="138.0" x2="289.0" y2="145.0" stroke-width="0.5"/>
    <line stroke="black" x1="284.0" y1="200.0" x2="283.0" y2="198.0" stroke-width="0.5"/>
    <line stroke="black" x1="388.0" y1="257.0" x2="387.0" y2="245.0" stroke-width="0.5"/>
    <line stroke="black" x1="396.0" y1="200.0" x2="284.0" y2="200.0" stroke-width="0.5"/>
    <line stroke="black" x1="347.0" y1="543.0" x2="113.0" y2="468.0" stroke-width="0.5"/>
    <line stroke="black" x1="389.0" y1="388.0" x2="208.0" y2="363.0" stroke-width="0.5"/>
    <line stroke="black" x1="516.0" y1="474.0" x2="423.0" y2="463.0" stroke-width="0.5"/>
    <line stroke="black" x1="580.0" y1="444.0" x2="423.0" y2="463.0" stroke-width="0.5"/>
    <line stroke="black" x1="848.0" y1="573.0" x2="39.0" y2="301.0" stroke-width="0.5"/>
    <line stroke="black" x1="275.0" y1="30.0" x2="212.0" y2="55.0" stroke-width="0.5"/>
    <line stroke="black" x1="212.0" y1="55.0" x2="261.0" y2="130.0" stroke-width="0.5"/>
    <line stroke="black" x1="261.0" y1="130.0" x2="289.0" y2="145.0" stroke-width="0.5"/>
    <line stroke="black" x1="39.0" y1="301.0" x2="282.0" y2="225.0" stroke-width="0.5"/>
    <line stroke="black" x1="39.0" y1="301.0" x2="91.0" y2="379.0" stroke-width="0.5"/>
    <line stroke="black" x1="91.0" y1="379.0" x2="113.0" y2="468.0" stroke-width="0.5"/>
    <line stroke="black" x1="113.0" y1="468.0" x2="282.0" y2="441.0" stroke-width="0.5"/>
    <line stroke="black" x1="113.0" y1="468.0" x2="208.0" y2="363.0" stroke-width="0.5"/>
    <line stroke="black" x1="282.0" y1="225.0" x2="387.0" y2="245.0" stroke-width="0.5"/>
    <line stroke="black" x1="282.0" y1="225.0" x2="284.0" y2="200.0" stroke-width="0.5"/>
    <line stroke="black" x1="208.0" y1="363.0" x2="286.0" y2="341.0" stroke-width="0.5"/>
    <line stroke="black" x1="282.0" y1="441.0" x2="423.0" y2="463.0" stroke-width="0.5"/>
    <line stroke="black" x1="212.0" y1="55.0" x2="39.0" y2="301.0" stroke-width="0.5"/>
    <line stroke="black" x1="375.0" y1="511.0" x2="113.0" y2="468.0" stroke-width="0.5"/>
    <line stroke="black" x1="432.0" y1="294.0" x2="91.0" y2="379.0" stroke-width="0.5"/>
    <line stroke="black" x1="311.0" y1="108.0" x2="261.0" y2="130.0" stroke-width="0.5"/>
    <line stroke="black" x1="353.0" y1="44.0" x2="275.0" y2="30.0" stroke-width="0.5"/>
    <line stroke="black" x1="347.0" y1="14.0" x2="275.0" y2="30.0" stroke-width="0.5"/>
    <line stroke="black" x1="432.0" y1="321.0" x2="286.0" y2="341.0" stroke-width="0.5"/>
    <line stroke="black" x1="488.0" y1="417.0" x2="282.0" y2="441.0" stroke-width="0.5"/>
    <line stroke="black" x1="502.0" y1="350.0" x2="286.0" y2="341.0" stroke-width="0.5"/>
    <line stroke="black" x1="403.0" y1="226.0" x2="387.0" y2="245.0" stroke-width="0.5"/>
   </g>
  </g>
 </svg>
</svg>
