<?xml version="1.0" encoding="UTF-8"?>
<svg height="800.0" width="700.0" xmlns="http://www.w3.org/2000/svg">
 <svg>
  <g>
   <g>
    <g>
     <circle stroke="black" stroke-width="0.5" fill="#aaffff" cx="270.0" cy="1261.0" r="1.0"/>
     <text stroke="none" x="270.0" y="1261.0" font-size="10.0" font-family="helvetica">NT1.1</text>
    </g>
    <g>
     <circle stroke="black" stroke-width="0.5" fill="#aaffff" cx="288.0" cy="1163.0" r="1.0"/>
     <text stroke="none" x="288.0" y="1163.0" font-size="20.0" font-family="helvetica">54</text>
    </g>
    <g>
     <circle stroke="black" stroke-width="0.5" fill="#aaffff" cx="416.0" cy="1041.0" r="1.0"/>
     <text stroke="none" x="416.0" y="1041.0" font-size="10.0" font-family="helvetica">NT1.3</text>
    </g>
    <g>
     <circle stroke="black" stroke-width="0.5" fill="#aaffff" cx="433.0" cy="612.0" r="1.0"/>
     <text stroke="none" x="433.0" y="612.0" font-size="20.0" font-family="helvetica">50</text>
    </g>
    <g>
     <circle stroke="black" stroke-width="0.5" fill="#aaffff" cx="451.0" cy="389.0" r="1.0"/>
     <text stroke="none" x="451.0" y="389.0" font-size="10.0" font-family="helvetica">NT1.5</text>
    </g>
    <g>
     <circle stroke="black" stroke-width="0.5" fill="#aaffff" cx="457.0" cy="834.0" r="1.0"/>
     <text stroke="none" x="457.0" y="834.0" font-size="10.0" font-family="helvetica">NT1.6</text>
    </g>
    <g>
     <circle stroke="black" stroke-width="0.5" fill="#aaffff" cx="474.0" cy="882.0" r="1.0"/>
     <text stroke="none" x="474.0" y="882.0" font-size="10.0" font-family="helvetica">NT1.7</text>
    </g>
    <g>
     <circle stroke="black" stroke-width="0.5" fill="#aaffff" cx="475.0" cy="1219.0" r="1.0"/>
     <text stroke="none" x="475.0" y="1219.0" font-size="20.0" font-family="helvetica">95</text>
    </g>
    <g>
     <circle stroke="black" stroke-width="0.5" fill="#aaffff" cx="476.0" cy="1357.0" r="1.0"/>
     <text stroke="none" x="476.0" y="1357.0" font-size="20.0" font-family="helvetica">99</text>
    </g>
    <g>
     <circle stroke="black" stroke-width="0.5" fill="#aaffff" cx="478.0" cy="319.0" r="1.0"/>
     <text stroke="none" x="478.0" y="319.0" font-size="20.0" font-family="helvetica">30</text>
    </g>
    <g>
     <circle stroke="black" stroke-width="0.5" fill="#aaffff" cx="484.0" cy="924.0" r="1.0"/>
     <text stroke="none" x="484.0" y="924.0" font-size="10.0" font-family="helvetica">NT1.11</text>
    </g>
    <g>
     <circle stroke="black" stroke-width="0.5" fill="#aaffff" cx="496.0" cy="1076.0" r="1.0"/>
     <text stroke="none" x="496.0" y="1076.0" font-size="20.0" font-family="helvetica">90</text>
    </g>
    <g>
     <circle stroke="black" stroke-width="0.5" fill="#aaffff" cx="501.0" cy="184.0" r="1.0"/>
     <text stroke="none" x="501.0" y="184.0" font-size="20.0" font-family="helvetica">74</text>
    </g>
    <g>
     <circle stroke="black" stroke-width="0.5" fill="#aaffff" cx="502.0" cy="952.0" r="1.0"/>
     <text stroke="none" x="502.0" y="952.0" font-size="20.0" font-family="helvetica">52</text>
    </g>
    <g>
     <circle stroke="black" stroke-width="0.5" fill="#aaffff" cx="509.0" cy="135.0" r="1.0"/>
     <text stroke="none" x="509.0" y="135.0" font-size="10.0" font-family="helvetica">NT1.15</text>
    </g>
    <g>
     <circle stroke="black" stroke-width="0.5" fill="#aaffff" cx="514.0" cy="1376.0" r="1.0"/>
     <text stroke="none" x="514.0" y="1376.0" font-size="20.0" font-family="helvetica">Elizabethkingia meningoseptica ATCC 132537 (D14018)</text>
    </g>
    <g>
     <circle stroke="black" stroke-width="0.5" fill="#aaffff" cx="523.0" cy="366.0" r="1.0"/>
     <text stroke="none" x="523.0" y="366.0" font-size="10.0" font-family="helvetica">NT1.17</text>
    </g>
    <g>
     <circle stroke="black" stroke-width="0.5" fill="#aaffff" cx="531.0" cy="327.0" r="1.0"/>
     <text stroke="none" x="531.0" y="327.0" font-size="10.0" font-family="helvetica">NT1.18</text>
    </g>
    <g>
     <circle stroke="black" stroke-width="0.5" fill="#aaffff" cx="532.0" cy="91.0" r="1.0"/>
     <text stroke="none" x="532.0" y="91.0" font-size="10.0" font-family="helvetica">NT1.19</text>
    </g>
    <g>
     <circle stroke="black" stroke-width="0.5" fill="#aaffff" cx="539.0" cy="1108.0" r="1.0"/>
     <text stroke="none" x="539.0" y="1108.0" font-size="20.0" font-family="helvetica">54</text>
    </g>
    <g>
     <circle stroke="black" stroke-width="0.5" fill="#aaffff" cx="544.0" cy="592.0" r="1.0"/>
     <text stroke="none" x="544.0" y="592.0" font-size="20.0" font-family="helvetica">91</text>
    </g>
    <g>
     <circle stroke="black" stroke-width="0.5" fill="#aaffff" cx="544.0" cy="842.0" r="1.0"/>
     <text stroke="none" x="544.0" y="842.0" font-size="20.0" font-family="helvetica">84</text>
    </g>
    <g>
     <circle stroke="black" stroke-width="0.5" fill="#aaffff" cx="554.0" cy="59.0" r="1.0"/>
     <text stroke="none" x="554.0" y="59.0" font-size="20.0" font-family="helvetica">50</text>
    </g>
    <g>
     <circle stroke="black" stroke-width="0.5" fill="#aaffff" cx="557.0" cy="408.0" r="1.0"/>
     <text stroke="none" x="557.0" y="408.0" font-size="20.0" font-family="helvetica">52</text>
    </g>
    <g>
     <circle stroke="black" stroke-width="0.5" fill="#aaffff" cx="557.0" cy="648.0" r="1.0"/>
     <text stroke="none" x="557.0" y="648.0" font-size="10.0" font-family="helvetica">NT1.25</text>
    </g>
    <g>
     <circle stroke="black" stroke-width="0.5" fill="#aaffff" cx="572.0" cy="1136.0" r="1.0"/>
     <text stroke="none" x="572.0" y="1136.0" font-size="20.0" font-family="helvetica">57</text>
    </g>
    <g>
     <circle stroke="black" stroke-width="0.5" fill="#aaffff" cx="577.0" cy="693.0" r="1.0"/>
     <text stroke="none" x="577.0" y="693.0" font-size="10.0" font-family="helvetica">NT1.27</text>
    </g>
    <g>
     <circle stroke="black" stroke-width="0.5" fill="#aaffff" cx="578.0" cy="539.0" r="1.0"/>
     <text stroke="none" x="578.0" y="539.0" font-size="20.0" font-family="helvetica">52</text>
    </g>
    <g>
     <circle stroke="black" stroke-width="0.5" fill="#aaffff" cx="584.0" cy="971.0" r="1.0"/>
     <text stroke="none" x="584.0" y="971.0" font-size="20.0" font-family="helvetica">Chntseobacterium arothri P2K67 (EF554408)</text>
    </g>
    <g>
     <circle stroke="black" stroke-width="0.5" fill="#aaffff" cx="589.0" cy="32.0" r="1.0"/>
     <text stroke="none" x="589.0" y="32.0" font-size="20.0" font-family="helvetica">71</text>
    </g>
    <g>
     <circle stroke="black" stroke-width="0.5" fill="#aaffff" cx="595.0" cy="1246.0" r="1.0"/>
     <text stroke="none" x="595.0" y="1246.0" font-size="20.0" font-family="helvetica">97</text>
    </g>
    <g>
     <circle stroke="black" stroke-width="0.5" fill="#aaffff" cx="596.0" cy="658.0" r="1.0"/>
     <text stroke="none" x="596.0" y="658.0" font-size="10.0" font-family="helvetica">NT1.32</text>
    </g>
    <g>
     <circle stroke="black" stroke-width="0.5" fill="#aaffff" cx="597.0" cy="730.0" r="1.0"/>
     <text stroke="none" x="597.0" y="730.0" font-size="20.0" font-family="helvetica">57</text>
    </g>
    <g>
     <circle stroke="black" stroke-width="0.5" fill="#aaffff" cx="605.0" cy="177.0" r="1.0"/>
     <text stroke="none" x="605.0" y="177.0" font-size="20.0" font-family="helvetica">98</text>
    </g>
    <g>
     <circle stroke="black" stroke-width="0.5" fill="#aaffff" cx="607.0" cy="511.0" r="1.0"/>
     <text stroke="none" x="607.0" y="511.0" font-size="20.0" font-family="helvetica">63</text>
    </g>
    <g>
     <circle stroke="black" stroke-width="0.5" fill="#aaffff" cx="625.0" cy="896.0" r="1.0"/>
     <text stroke="none" x="625.0" y="896.0" font-size="20.0" font-family="helvetica">Chryseobacterium pallidum 26-3St2b7 (AM232809)</text>
    </g>
    <g>
     <circle stroke="black" stroke-width="0.5" fill="#aaffff" cx="628.0" cy="435.0" r="1.0"/>
     <text stroke="none" x="628.0" y="435.0" font-size="20.0" font-family="helvetica">99</text>
    </g>
    <g>
     <circle stroke="black" stroke-width="0.5" fill="#aaffff" cx="646.0" cy="528.0" r="1.0"/>
     <text stroke="none" x="646.0" y="528.0" font-size="20.0" font-family="helvetica">Chryseobactenum indologenes LMG 83377 (AM232813)</text>
    </g>
    <g>
     <circle stroke="black" stroke-width="0.5" fill="#aaffff" cx="650.0" cy="602.0" r="1.0"/>
     <text stroke="none" x="650.0" y="602.0" font-size="20.0" font-family="helvetica">Chryseobacterium jejuense JS17-87 (EF591303)</text>
    </g>
    <g>
     <circle stroke="black" stroke-width="0.5" fill="#aaffff" cx="655.0" cy="491.0" r="1.0"/>
     <text stroke="none" x="655.0" y="491.0" font-size="20.0" font-family="helvetica">Chryseobacterium gleum CCUG 145557 (AM232812)</text>
    </g>
    <g>
     <circle stroke="black" stroke-width="0.5" fill="#aaffff" cx="657.0" cy="123.0" r="1.0"/>
     <text stroke="none" x="657.0" y="123.0" font-size="10.0" font-family="helvetica">NT1.41</text>
    </g>
    <g>
     <circle stroke="black" stroke-width="0.5" fill="#aaffff" cx="658.0" cy="270.0" r="1.0"/>
     <text stroke="none" x="658.0" y="270.0" font-size="10.0" font-family="helvetica">NT1.42</text>
    </g>
    <g>
     <circle stroke="black" stroke-width="0.5" fill="#aaffff" cx="662.0" cy="823.0" r="1.0"/>
     <text stroke="none" x="662.0" y="823.0" font-size="20.0" font-family="helvetica">Chryseobacterium haifense H387 (EF204450)</text>
    </g>
    <g>
     <circle stroke="black" stroke-width="0.5" fill="#aaffff" cx="663.0" cy="418.0" r="1.0"/>
     <text stroke="none" x="663.0" y="418.0" font-size="20.0" font-family="helvetica">Chryseobacterium scophthalmum LMG 130287 (AJ271009)</text>
    </g>
    <g>
     <circle stroke="black" stroke-width="0.5" fill="#aaffff" cx="666.0" cy="639.0" r="1.0"/>
     <text stroke="none" x="666.0" y="639.0" font-size="20.0" font-family="helvetica">Chryseobactenum ureilyticum F-Fue-04IIIaaaa7 (AM232806)</text>
    </g>
    <g>
     <circle stroke="black" stroke-width="0.5" fill="#aaffff" cx="671.0" cy="381.0" r="1.0"/>
     <text stroke="none" x="671.0" y="381.0" font-size="20.0" font-family="helvetica">Chryseabacterium indoltheticum LMG 40257 (M58774)</text>
    </g>
    <g>
     <circle stroke="black" stroke-width="0.5" fill="#aaffff" cx="672.0" cy="344.0" r="1.0"/>
     <text stroke="none" x="672.0" y="344.0" font-size="20.0" font-family="helvetica">Chryseobacterium soldanellicola PSD1-47 (AY883415)</text>
    </g>
    <g>
     <circle stroke="black" stroke-width="0.5" fill="#aaffff" cx="676.0" cy="565.0" r="1.0"/>
     <text stroke="none" x="676.0" y="565.0" font-size="20.0" font-family="helvetica">Chryseobacterium aquifrigidense CW97 (EF644913)</text>
    </g>
    <g>
     <circle stroke="black" stroke-width="0.5" fill="#aaffff" cx="676.0" cy="1192.0" r="1.0"/>
     <text stroke="none" x="676.0" y="1192.0" font-size="20.0" font-family="helvetica">Sejongia marina lMCC32287 (EF554366)</text>
    </g>
    <g>
     <circle stroke="black" stroke-width="0.5" fill="#aaffff" cx="679.0" cy="1339.0" r="1.0"/>
     <text stroke="none" x="679.0" y="1339.0" font-size="20.0" font-family="helvetica">Elizabethkingia miricola DSM 145717 (ABO71953)</text>
    </g>
    <g>
     <circle stroke="black" stroke-width="0.5" fill="#aaffff" cx="680.0" cy="786.0" r="1.0"/>
     <text stroke="none" x="680.0" y="786.0" font-size="20.0" font-family="helvetica">Chlyseobacterium caeni N47 (DQ336714)</text>
    </g>
    <g>
     <circle stroke="black" stroke-width="0.5" fill="#aaffff" cx="684.0" cy="1229.0" r="1.0"/>
     <text stroke="none" x="684.0" y="1229.0" font-size="20.0" font-family="helvetica">Sejongia jeonii AT10477 (AY553294)</text>
    </g>
    <g>
     <circle stroke="black" stroke-width="0.5" fill="#aaffff" cx="690.0" cy="307.0" r="1.0"/>
     <text stroke="none" x="690.0" y="307.0" font-size="20.0" font-family="helvetica">Chryseobacterium soli JS6-67 (EF591302)</text>
    </g>
    <g>
     <circle stroke="black" stroke-width="0.5" fill="#aaffff" cx="690.0" cy="455.0" r="1.0"/>
     <text stroke="none" x="690.0" y="455.0" font-size="20.0" font-family="helvetica">Chryseobacterium piscium LMG 230897 (AMO40439)</text>
    </g>
    <g>
     <circle stroke="black" stroke-width="0.5" fill="#aaffff" cx="691.0" cy="934.0" r="1.0"/>
     <text stroke="none" x="691.0" y="934.0" font-size="20.0" font-family="helvetica">Chryseobactelium hispanicum VP487 (AM159183)</text>
    </g>
    <g>
     <circle stroke="black" stroke-width="0.5" fill="#aaffff" cx="692.0" cy="86.0" r="1.0"/>
     <text stroke="none" x="692.0" y="86.0" font-size="20.0" font-family="helvetica">Chryseobacterium taiwanense BCRC 174127 (DQ318789)</text>
    </g>
    <g>
     <circle stroke="black" stroke-width="0.5" fill="#aaffff" cx="693.0" cy="12.0" r="1.0"/>
     <text stroke="none" x="693.0" y="12.0" font-size="20.0" font-family="helvetica">Chryseobacterium daecheongense CPW4067 (AJ457206)</text>
    </g>
    <g>
     <circle stroke="black" stroke-width="0.5" fill="#aaffff" cx="693.0" cy="233.0" r="1.0"/>
     <text stroke="none" x="693.0" y="233.0" font-size="20.0" font-family="helvetica">Chryseobacterium daeguense K1057 (EF076759)</text>
    </g>
    <g>
     <circle stroke="black" stroke-width="0.5" fill="#aaffff" cx="708.0" cy="676.0" r="1.0"/>
     <text stroke="none" x="708.0" y="676.0" font-size="10.0" font-family="helvetica">NT1.59</text>
    </g>
    <g>
     <circle stroke="black" stroke-width="0.5" fill="#aaffff" cx="718.0" cy="49.0" r="1.0"/>
     <text stroke="none" x="718.0" y="49.0" font-size="20.0" font-family="helvetica">Chryseobacterium wanjuense R2A10-27 (DQ256729)</text>
    </g>
    <g>
     <circle stroke="black" stroke-width="0.5" fill="#aaffff" cx="722.0" cy="159.0" r="1.0"/>
     <text stroke="none" x="722.0" y="159.0" font-size="20.0" font-family="helvetica">Chryseobacterium taichungense CC-TWGS1-87 (AJ843132)</text>
    </g>
    <g>
     <circle stroke="black" stroke-width="0.5" fill="#aaffff" cx="727.0" cy="749.0" r="1.0"/>
     <text stroke="none" x="727.0" y="749.0" font-size="20.0" font-family="helvetica">Chryseobacterium luteum DSM 186057 (AM489609)</text>
    </g>
    <g>
     <circle stroke="black" stroke-width="0.5" fill="#aaffff" cx="736.0" cy="1044.0" r="1.0"/>
     <text stroke="none" x="736.0" y="1044.0" font-size="10.0" font-family="helvetica">NT1.63</text>
    </g>
    <g>
     <circle stroke="black" stroke-width="0.5" fill="#aaffff" cx="748.0" cy="196.0" r="1.0"/>
     <text stroke="none" x="748.0" y="196.0" font-size="20.0" font-family="helvetica">Chryseobacterium taeanense PHA3-47 (AY883416)</text>
    </g>
    <g>
     <circle stroke="black" stroke-width="0.5" fill="#aaffff" cx="756.0" cy="1266.0" r="1.0"/>
     <text stroke="none" x="756.0" y="1266.0" font-size="20.0" font-family="helvetica">Sejongia antarctica AT1O137 (AY553293)</text>
    </g>
    <g>
     <circle stroke="black" stroke-width="0.5" fill="#aaffff" cx="766.0" cy="1081.0" r="1.0"/>
     <text stroke="none" x="766.0" y="1081.0" font-size="20.0" font-family="helvetica">Riemerella columbina LMG 116077 (AF181448)</text>
    </g>
    <g>
     <circle stroke="black" stroke-width="0.5" fill="#aaffff" cx="769.0" cy="1155.0" r="1.0"/>
     <text stroke="none" x="769.0" y="1155.0" font-size="10.0" font-family="helvetica">NT1.67</text>
    </g>
    <g>
     <circle stroke="black" stroke-width="0.5" fill="#aaffff" cx="776.0" cy="713.0" r="1.0"/>
     <text stroke="none" x="776.0" y="713.0" font-size="20.0" font-family="helvetica">Chryseobacterium vnistaatense R-235667 (AJ871397)</text>
    </g>
    <g>
     <circle stroke="black" stroke-width="0.5" fill="#aaffff" cx="801.0" cy="1008.0" r="1.0"/>
     <text stroke="none" x="801.0" y="1008.0" font-size="20.0" font-family="helvetica">Planobacterium taklimakanense X-657 (EU718058)</text>
    </g>
    <g>
     <circle stroke="black" stroke-width="0.5" fill="#aaffff" cx="847.0" cy="1303.0" r="1.0"/>
     <text stroke="none" x="847.0" y="1303.0" font-size="20.0" font-family="helvetica">Epilithonimonas tenax EP1O57 (AF493696)</text>
    </g>
    <g>
     <circle stroke="black" stroke-width="0.5" fill="#aaffff" cx="855.0" cy="1118.0" r="1.0"/>
     <text stroke="none" x="855.0" y="1118.0" font-size="20.0" font-family="helvetica">Bergeyella zoohelcum ATCC 437677 (M93153)</text>
    </g>
    <g>
     <circle stroke="black" stroke-width="0.5" fill="#aaffff" cx="888.0" cy="860.0" r="1.0"/>
     <text stroke="none" x="888.0" y="860.0" font-size="10.0" font-family="helvetica">NT1.72</text>
    </g>
    <g>
     <circle stroke="black" stroke-width="0.5" fill="#aaffff" cx="888.0" cy="1413.0" r="1.0"/>
     <text stroke="none" x="888.0" y="1413.0" font-size="20.0" font-family="helvetica">Weeksella virosa ATCC 437667 (M93152)</text>
    </g>
    <g>
     <circle stroke="black" stroke-width="0.5" fill="#aaffff" cx="3.0" cy="1337.0" r="1.0"/>
     <text stroke="none" x="3.0" y="1337.0" font-size="10.0" font-family="helvetica">NT1.74</text>
    </g>
    <line stroke="black" x1="693.0" y1="233.0" x2="501.0" y2="184.0" stroke-width="0.5"/>
    <line stroke="black" x1="748.0" y1="196.0" x2="605.0" y2="177.0" stroke-width="0.5"/>
    <line stroke="black" x1="690.0" y1="455.0" x2="628.0" y2="435.0" stroke-width="0.5"/>
    <line stroke="black" x1="655.0" y1="491.0" x2="607.0" y2="511.0" stroke-width="0.5"/>
    <line stroke="black" x1="650.0" y1="602.0" x2="557.0" y2="648.0" stroke-width="0.5"/>
    <line stroke="black" x1="676.0" y1="565.0" x2="578.0" y2="539.0" stroke-width="0.5"/>
    <line stroke="black" x1="727.0" y1="749.0" x2="597.0" y2="730.0" stroke-width="0.5"/>
    <line stroke="black" x1="776.0" y1="713.0" x2="597.0" y2="730.0" stroke-width="0.5"/>
    <line stroke="black" x1="625.0" y1="896.0" x2="484.0" y2="924.0" stroke-width="0.5"/>
    <line stroke="black" x1="662.0" y1="823.0" x2="544.0" y2="842.0" stroke-width="0.5"/>
    <line stroke="black" x1="801.0" y1="1008.0" x2="416.0" y2="1041.0" stroke-width="0.5"/>
    <line stroke="black" x1="589.0" y1="32.0" x2="554.0" y2="59.0" stroke-width="0.5"/>
    <line stroke="black" x1="554.0" y1="59.0" x2="532.0" y2="91.0" stroke-width="0.5"/>
    <line stroke="black" x1="509.0" y1="135.0" x2="501.0" y2="184.0" stroke-width="0.5"/>
    <line stroke="black" x1="509.0" y1="135.0" x2="605.0" y2="177.0" stroke-width="0.5"/>
    <line stroke="black" x1="501.0" y1="184.0" x2="478.0" y2="319.0" stroke-width="0.5"/>
    <line stroke="black" x1="478.0" y1="319.0" x2="451.0" y2="389.0" stroke-width="0.5"/>
    <line stroke="black" x1="478.0" y1="319.0" x2="523.0" y2="366.0" stroke-width="0.5"/>
    <line stroke="black" x1="451.0" y1="389.0" x2="433.0" y2="612.0" stroke-width="0.5"/>
    <line stroke="black" x1="451.0" y1="389.0" x2="544.0" y2="592.0" stroke-width="0.5"/>
    <line stroke="black" x1="523.0" y1="366.0" x2="557.0" y2="408.0" stroke-width="0.5"/>
    <line stroke="black" x1="523.0" y1="366.0" x2="531.0" y2="327.0" stroke-width="0.5"/>
    <line stroke="black" x1="557.0" y1="408.0" x2="628.0" y2="435.0" stroke-width="0.5"/>
    <line stroke="black" x1="433.0" y1="612.0" x2="416.0" y2="1041.0" stroke-width="0.5"/>
    <line stroke="black" x1="433.0" y1="612.0" x2="457.0" y2="834.0" stroke-width="0.5"/>
    <line stroke="black" x1="544.0" y1="592.0" x2="557.0" y2="648.0" stroke-width="0.5"/>
    <line stroke="black" x1="544.0" y1="592.0" x2="578.0" y2="539.0" stroke-width="0.5"/>
    <line stroke="black" x1="557.0" y1="648.0" x2="577.0" y2="693.0" stroke-width="0.5"/>
    <line stroke="black" x1="578.0" y1="539.0" x2="607.0" y2="511.0" stroke-width="0.5"/>
    <line stroke="black" x1="577.0" y1="693.0" x2="597.0" y2="730.0" stroke-width="0.5"/>
    <line stroke="black" x1="457.0" y1="834.0" x2="474.0" y2="882.0" stroke-width="0.5"/>
    <line stroke="black" x1="474.0" y1="882.0" x2="484.0" y2="924.0" stroke-width="0.5"/>
    <line stroke="black" x1="484.0" y1="924.0" x2="502.0" y2="952.0" stroke-width="0.5"/>
    <line stroke="black" x1="416.0" y1="1041.0" x2="288.0" y2="1163.0" stroke-width="0.5"/>
    <line stroke="black" x1="416.0" y1="1041.0" x2="475.0" y2="1219.0" stroke-width="0.5"/>
    <line stroke="black" x1="496.0" y1="1076.0" x2="539.0" y2="1108.0" stroke-width="0.5"/>
    <line stroke="black" x1="288.0" y1="1163.0" x2="270.0" y2="1261.0" stroke-width="0.5"/>
    <line stroke="black" x1="475.0" y1="1219.0" x2="595.0" y2="1246.0" stroke-width="0.5"/>
    <line stroke="black" x1="270.0" y1="1261.0" x2="476.0" y2="1357.0" stroke-width="0.5"/>
    <line stroke="black" x1="3.0" y1="1337.0" x2="888.0" y2="1413.0" stroke-width="0.5"/>
    <line stroke="black" x1="3.0" y1="1337.0" x2="270.0" y2="1261.0" stroke-width="0.5"/>
    <line stroke="black" x1="847.0" y1="1303.0" x2="288.0" y2="1163.0" stroke-width="0.5"/>
    <line stroke="black" x1="514.0" y1="1376.0" x2="476.0" y2="1357.0" stroke-width="0.5"/>
    <line stroke="black" x1="584.0" y1="971.0" x2="502.0" y2="952.0" stroke-width="0.5"/>
    <line stroke="black" x1="680.0" y1="786.0" x2="457.0" y2="834.0" stroke-width="0.5"/>
    <line stroke="black" x1="676.0" y1="1192.0" x2="475.0" y2="1219.0" stroke-width="0.5"/>
    <line stroke="black" x1="679.0" y1="1339.0" x2="476.0" y2="1357.0" stroke-width="0.5"/>
    <line stroke="black" x1="691.0" y1="934.0" x2="502.0" y2="952.0" stroke-width="0.5"/>
    <line stroke="black" x1="672.0" y1="344.0" x2="531.0" y2="327.0" stroke-width="0.5"/>
    <line stroke="black" x1="690.0" y1="307.0" x2="531.0" y2="327.0" stroke-width="0.5"/>
    <line stroke="black" x1="671.0" y1="381.0" x2="557.0" y2="408.0" stroke-width="0.5"/>
    <line stroke="black" x1="692.0" y1="86.0" x2="554.0" y2="59.0" stroke-width="0.5"/>
    <line stroke="black" x1="766.0" y1="1081.0" x2="539.0" y2="1108.0" stroke-width="0.5"/>
    <line stroke="black" x1="646.0" y1="528.0" x2="607.0" y2="511.0" stroke-width="0.5"/>
    <line stroke="black" x1="666.0" y1="639.0" x2="596.0" y2="658.0" stroke-width="0.5"/>
    <line stroke="black" x1="684.0" y1="1229.0" x2="595.0" y2="1246.0" stroke-width="0.5"/>
    <line stroke="black" x1="718.0" y1="49.0" x2="589.0" y2="32.0" stroke-width="0.5"/>
    <line stroke="black" x1="663.0" y1="418.0" x2="628.0" y2="435.0" stroke-width="0.5"/>
    <line stroke="black" x1="693.0" y1="12.0" x2="589.0" y2="32.0" stroke-width="0.5"/>
    <line stroke="black" x1="722.0" y1="159.0" x2="605.0" y2="177.0" stroke-width="0.5"/>
    <line stroke="black" x1="756.0" y1="1266.0" x2="595.0" y2="1246.0" stroke-width="0.5"/>
    <line stroke="black" x1="855.0" y1="1118.0" x2="572.0" y2="1136.0" stroke-width="0.5"/>
   </g>
  </g>
 </svg>
</svg>
