<?xml version="1.0" encoding="UTF-8"?>
<svg height="800.0" width="700.0" xmlns="http://www.w3.org/2000/svg">
 <svg>
  <g>
   <g>
    <g>
     <circle stroke="black" stroke-width="0.5" fill="#aaffff" cx="0.0" cy="310.0" r="1.0"/>
     <text stroke="none" x="0.0" y="310.0" font-size="20.0" font-family="helvetica"/>
    </g>
    <g>
     <circle stroke="black" stroke-width="0.5" fill="#aaffff" cx="22.0" cy="225.0" r="1.0"/>
     <text stroke="none" x="22.0" y="225.0" font-size="10.0" font-family="helvetica">NT1.2</text>
    </g>
    <g>
     <circle stroke="black" stroke-width="0.5" fill="#aaffff" cx="27.0" cy="438.0" r="1.0"/>
     <text stroke="none" x="27.0" y="438.0" font-size="10.0" font-family="helvetica">NT1.3</text>
    </g>
    <g>
     <circle stroke="black" stroke-width="0.5" fill="#aaffff" cx="34.0" cy="97.0" r="1.0"/>
     <text stroke="none" x="34.0" y="97.0" font-size="10.0" font-family="helvetica">NT1.4</text>
    </g>
    <g>
     <circle stroke="black" stroke-width="0.5" fill="#aaffff" cx="34.0" cy="407.0" r="1.0"/>
     <text stroke="none" x="34.0" y="407.0" font-size="10.0" font-family="helvetica">NT1.5</text>
    </g>
    <g>
     <circle stroke="black" stroke-width="0.5" fill="#aaffff" cx="49.0" cy="394.0" r="1.0"/>
     <text stroke="none" x="49.0" y="394.0" font-size="10.0" font-family="helvetica">NT1.6</text>
    </g>
    <g>
     <circle stroke="black" stroke-width="0.5" fill="#aaffff" cx="74.0" cy="247.0" r="1.0"/>
     <text stroke="none" x="74.0" y="247.0" font-size="10.0" font-family="helvetica">NT1.7</text>
    </g>
    <g>
     <circle stroke="black" stroke-width="0.5" fill="#aaffff" cx="75.0" cy="349.0" r="1.0"/>
     <text stroke="none" x="75.0" y="349.0" font-size="10.0" font-family="helvetica">NT1.8</text>
    </g>
    <g>
     <circle stroke="black" stroke-width="0.5" fill="#aaffff" cx="80.0" cy="199.0" r="1.0"/>
     <text stroke="none" x="80.0" y="199.0" font-size="10.0" font-family="helvetica">NT1.9</text>
    </g>
    <g>
     <circle stroke="black" stroke-width="0.5" fill="#aaffff" cx="81.0" cy="44.0" r="1.0"/>
     <text stroke="none" x="81.0" y="44.0" font-size="10.0" font-family="helvetica">NT1.10</text>
    </g>
    <g>
     <circle stroke="black" stroke-width="0.5" fill="#aaffff" cx="86.0" cy="137.0" r="1.0"/>
     <text stroke="none" x="86.0" y="137.0" font-size="10.0" font-family="helvetica">NT1.11</text>
    </g>
    <g>
     <circle stroke="black" stroke-width="0.5" fill="#aaffff" cx="103.0" cy="295.0" r="1.0"/>
     <text stroke="none" x="103.0" y="295.0" font-size="20.0" font-family="helvetica">Microbacterium thalassium NBRC 160607 (AB004713)</text>
    </g>
    <g>
     <circle stroke="black" stroke-width="0.5" fill="#aaffff" cx="103.0" cy="472.0" r="1.0"/>
     <text stroke="none" x="103.0" y="472.0" font-size="10.0" font-family="helvetica">NT1.13</text>
    </g>
    <g>
     <circle stroke="black" stroke-width="0.5" fill="#aaffff" cx="116.0" cy="118.0" r="1.0"/>
     <text stroke="none" x="116.0" y="118.0" font-size="20.0" font-family="helvetica">Microbacterium ketosireducens NBRC 145487 (ABO04724)</text>
    </g>
    <g>
     <circle stroke="black" stroke-width="0.5" fill="#aaffff" cx="118.0" cy="48.0" r="1.0"/>
     <text stroke="none" x="118.0" y="48.0" font-size="20.0" font-family="helvetica">Microbacterium aurantiacum NBRC 15234T (ABOO4726)</text>
    </g>
    <g>
     <circle stroke="black" stroke-width="0.5" fill="#aaffff" cx="120.0" cy="13.0" r="1.0"/>
     <text stroke="none" x="120.0" y="13.0" font-size="20.0" font-family="helvetica">Microbacterium kitamiense Kitami C27 (AB013907)</text>
    </g>
    <g>
     <circle stroke="black" stroke-width="0.5" fill="#aaffff" cx="121.0" cy="437.0" r="1.0"/>
     <text stroke="none" x="121.0" y="437.0" font-size="20.0" font-family="helvetica">Microbacterium trichothecenolyticum NBRC 15O77T (ABOO4722)</text>
    </g>
    <g>
     <circle stroke="black" stroke-width="0.5" fill="#aaffff" cx="122.0" cy="260.0" r="1.0"/>
     <text stroke="none" x="122.0" y="260.0" font-size="20.0" font-family="helvetica">Microbacterium dextranolyticum NBRC 145927 (AB007417)</text>
    </g>
    <g>
     <circle stroke="black" stroke-width="0.5" fill="#aaffff" cx="122.0" cy="189.0" r="1.0"/>
     <text stroke="none" x="122.0" y="189.0" font-size="20.0" font-family="helvetica">Microbacterium laevaniformans NBRC 14471T (AB007416)</text>
    </g>
    <g>
     <circle stroke="black" stroke-width="0.5" fill="#aaffff" cx="129.0" cy="154.0" r="1.0"/>
     <text stroke="none" x="129.0" y="154.0" font-size="20.0" font-family="helvetica">Microbacterium terrae NBRC 153007 (ABOO4720)</text>
    </g>
    <g>
     <circle stroke="black" stroke-width="0.5" fill="#aaffff" cx="137.0" cy="224.0" r="1.0"/>
     <text stroke="none" x="137.0" y="224.0" font-size="20.0" font-family="helvetica">Microbacterium flavescens NBRC 150397 (ABOO4716)</text>
    </g>
    <g>
     <circle stroke="black" stroke-width="0.5" fill="#aaffff" cx="143.0" cy="83.0" r="1.0"/>
     <text stroke="none" x="143.0" y="83.0" font-size="20.0" font-family="helvetica">Microbacterium chocolatum NBRC 37587 (ABO04725)</text>
    </g>
    <g>
     <circle stroke="black" stroke-width="0.5" fill="#aaffff" cx="144.0" cy="366.0" r="1.0"/>
     <text stroke="none" x="144.0" y="366.0" font-size="20.0" font-family="helvetica">Microbacterium hominis NBRC 157087 (AB004727)</text>
    </g>
    <g>
     <circle stroke="black" stroke-width="0.5" fill="#aaffff" cx="153.0" cy="330.0" r="1.0"/>
     <text stroke="none" x="153.0" y="330.0" font-size="10.0" font-family="helvetica">NT1.24</text>
    </g>
    <g>
     <circle stroke="black" stroke-width="0.5" fill="#aaffff" cx="296.0" cy="402.0" r="1.0"/>
     <text stroke="none" x="296.0" y="402.0" font-size="20.0" font-family="helvetica">Microbacterium halophilum NBRC 16062T (ABO04714)</text>
    </g>
    <line stroke="black" x1="120.0" y1="13.0" x2="81.0" y2="44.0" stroke-width="0.5"/>
    <line stroke="black" x1="118.0" y1="48.0" x2="81.0" y2="44.0" stroke-width="0.5"/>
    <line stroke="black" x1="143.0" y1="83.0" x2="81.0" y2="44.0" stroke-width="0.5"/>
    <line stroke="black" x1="116.0" y1="118.0" x2="86.0" y2="137.0" stroke-width="0.5"/>
    <line stroke="black" x1="129.0" y1="154.0" x2="86.0" y2="137.0" stroke-width="0.5"/>
    <line stroke="black" x1="0.0" y1="310.0" x2="22.0" y2="225.0" stroke-width="0.5"/>
    <line stroke="black" x1="103.0" y1="295.0" x2="22.0" y2="225.0" stroke-width="0.5"/>
    <line stroke="black" x1="122.0" y1="260.0" x2="74.0" y2="247.0" stroke-width="0.5"/>
    <line stroke="black" x1="122.0" y1="189.0" x2="80.0" y2="199.0" stroke-width="0.5"/>
    <line stroke="black" x1="137.0" y1="224.0" x2="80.0" y2="199.0" stroke-width="0.5"/>
    <line stroke="black" x1="144.0" y1="366.0" x2="75.0" y2="349.0" stroke-width="0.5"/>
    <line stroke="black" x1="296.0" y1="402.0" x2="49.0" y2="394.0" stroke-width="0.5"/>
    <line stroke="black" x1="81.0" y1="44.0" x2="34.0" y2="97.0" stroke-width="0.5"/>
    <line stroke="black" x1="34.0" y1="97.0" x2="22.0" y2="225.0" stroke-width="0.5"/>
    <line stroke="black" x1="34.0" y1="97.0" x2="86.0" y2="137.0" stroke-width="0.5"/>
    <line stroke="black" x1="22.0" y1="225.0" x2="74.0" y2="247.0" stroke-width="0.5"/>
    <line stroke="black" x1="74.0" y1="247.0" x2="80.0" y2="199.0" stroke-width="0.5"/>
    <line stroke="black" x1="27.0" y1="438.0" x2="34.0" y2="407.0" stroke-width="0.5"/>
    <line stroke="black" x1="34.0" y1="407.0" x2="49.0" y2="394.0" stroke-width="0.5"/>
    <line stroke="black" x1="121.0" y1="437.0" x2="34.0" y2="407.0" stroke-width="0.5"/>
   </g>
  </g>
 </svg>
</svg>
