<?xml version="1.0" encoding="UTF-8"?>
<svg height="800.0" width="700.0" xmlns="http://www.w3.org/2000/svg">
 <svg>
  <g>
   <g>
    <g>
     <circle stroke="black" stroke-width="0.5" fill="#aaffff" cx="234.0" cy="584.0" r="1.0"/>
     <text stroke="none" x="234.0" y="584.0" font-size="10.0" font-family="helvetica">NT1.1</text>
    </g>
    <g>
     <circle stroke="black" stroke-width="0.5" fill="#aaffff" cx="292.0" cy="413.0" r="1.0"/>
     <text stroke="none" x="292.0" y="413.0" font-size="20.0" font-family="helvetica">87</text>
    </g>
    <g>
     <circle stroke="black" stroke-width="0.5" fill="#aaffff" cx="320.0" cy="810.0" r="1.0"/>
     <text stroke="none" x="320.0" y="810.0" font-size="20.0" font-family="helvetica">SB</text>
    </g>
    <g>
     <circle stroke="black" stroke-width="0.5" fill="#aaffff" cx="357.0" cy="301.0" r="1.0"/>
     <text stroke="none" x="357.0" y="301.0" font-size="10.0" font-family="helvetica">NT1.4</text>
    </g>
    <g>
     <circle stroke="black" stroke-width="0.5" fill="#aaffff" cx="390.0" cy="198.0" r="1.0"/>
     <text stroke="none" x="390.0" y="198.0" font-size="10.0" font-family="helvetica">NT1.5</text>
    </g>
    <g>
     <circle stroke="black" stroke-width="0.5" fill="#aaffff" cx="418.0" cy="684.0" r="1.0"/>
     <text stroke="none" x="418.0" y="684.0" font-size="10.0" font-family="helvetica">NT1.6</text>
    </g>
    <g>
     <circle stroke="black" stroke-width="0.5" fill="#aaffff" cx="428.0" cy="102.0" r="1.0"/>
     <text stroke="none" x="428.0" y="102.0" font-size="10.0" font-family="helvetica">NT1.7</text>
    </g>
    <g>
     <circle stroke="black" stroke-width="0.5" fill="#aaffff" cx="428.0" cy="401.0" r="1.0"/>
     <text stroke="none" x="428.0" y="401.0" font-size="10.0" font-family="helvetica">NT1.8</text>
    </g>
    <g>
     <circle stroke="black" stroke-width="0.5" fill="#aaffff" cx="435.0" cy="295.0" r="1.0"/>
     <text stroke="none" x="435.0" y="295.0" font-size="10.0" font-family="helvetica">NT1.9</text>
    </g>
    <g>
     <circle stroke="black" stroke-width="0.5" fill="#aaffff" cx="461.0" cy="149.0" r="1.0"/>
     <text stroke="none" x="461.0" y="149.0" font-size="10.0" font-family="helvetica">NT1.10</text>
    </g>
    <g>
     <circle stroke="black" stroke-width="0.5" fill="#aaffff" cx="526.0" cy="724.0" r="1.0"/>
     <text stroke="none" x="526.0" y="724.0" font-size="10.0" font-family="helvetica">NT1.11</text>
    </g>
    <g>
     <circle stroke="black" stroke-width="0.5" fill="#aaffff" cx="599.0" cy="188.0" r="1.0"/>
     <text stroke="none" x="599.0" y="188.0" font-size="10.0" font-family="helvetica">NT1.12</text>
    </g>
    <g>
     <circle stroke="black" stroke-width="0.5" fill="#aaffff" cx="650.0" cy="858.0" r="1.0"/>
     <text stroke="none" x="650.0" y="858.0" font-size="10.0" font-family="helvetica">NT1.13</text>
    </g>
    <g>
     <circle stroke="black" stroke-width="0.5" fill="#aaffff" cx="673.0" cy="375.0" r="1.0"/>
     <text stroke="none" x="673.0" y="375.0" font-size="20.0" font-family="helvetica">Oceanobacillus picturae LMG 194921 (AJ315060)</text>
    </g>
    <g>
     <circle stroke="black" stroke-width="0.5" fill="#aaffff" cx="680.0" cy="804.0" r="1.0"/>
     <text stroke="none" x="680.0" y="804.0" font-size="20.0" font-family="helvetica">Bacillus muralis LMG 20238T (AJ628748)</text>
    </g>
    <g>
     <circle stroke="black" stroke-width="0.5" fill="#aaffff" cx="725.0" cy="523.0" r="1.0"/>
     <text stroke="none" x="725.0" y="523.0" font-size="10.0" font-family="helvetica">NT1.16</text>
    </g>
    <g>
     <circle stroke="black" stroke-width="0.5" fill="#aaffff" cx="754.0" cy="323.0" r="1.0"/>
     <text stroke="none" x="754.0" y="323.0" font-size="10.0" font-family="helvetica">NT1.17</text>
    </g>
    <g>
     <circle stroke="black" stroke-width="0.5" fill="#aaffff" cx="773.0" cy="697.0" r="1.0"/>
     <text stroke="none" x="773.0" y="697.0" font-size="10.0" font-family="helvetica">NT1.18</text>
    </g>
    <g>
     <circle stroke="black" stroke-width="0.5" fill="#aaffff" cx="776.0" cy="483.0" r="1.0"/>
     <text stroke="none" x="776.0" y="483.0" font-size="20.0" font-family="helvetica"> Terribacillus halophilus 002-051T (AB243849)</text>
    </g>
    <g>
     <circle stroke="black" stroke-width="0.5" fill="#aaffff" cx="783.0" cy="430.0" r="1.0"/>
     <text stroke="none" x="783.0" y="430.0" font-size="20.0" font-family="helvetica">Oceanobacillus iheyensis JCM 11309T (AB010863)</text>
    </g>
    <g>
     <circle stroke="black" stroke-width="0.5" fill="#aaffff" cx="783.0" cy="563.0" r="1.0"/>
     <text stroke="none" x="783.0" y="563.0" font-size="20.0" font-family="helvetica">100</text>
    </g>
    <g>
     <circle stroke="black" stroke-width="0.5" fill="#aaffff" cx="784.0" cy="590.0" r="1.0"/>
     <text stroke="none" x="784.0" y="590.0" font-size="20.0" font-family="helvetica">Terribacillus saccharophilus 002-048T (AB243845)</text>
    </g>
    <g>
     <circle stroke="black" stroke-width="0.5" fill="#aaffff" cx="784.0" cy="536.0" r="1.0"/>
     <text stroke="none" x="784.0" y="536.0" font-size="20.0" font-family="helvetica">Terribacillus saccharophilus RB589 (AB243847)</text>
    </g>
    <g>
     <circle stroke="black" stroke-width="0.5" fill="#aaffff" cx="787.0" cy="160.0" r="1.0"/>
     <text stroke="none" x="787.0" y="160.0" font-size="10.0" font-family="helvetica">NT1.24</text>
    </g>
    <g>
     <circle stroke="black" stroke-width="0.5" fill="#aaffff" cx="795.0" cy="911.0" r="1.0"/>
     <text stroke="none" x="795.0" y="911.0" font-size="20.0" font-family="helvetica">Paenibacillus polymyxa IAM 13419T (AB042063)</text>
    </g>
    <g>
     <circle stroke="black" stroke-width="0.5" fill="#aaffff" cx="805.0" cy="215.0" r="1.0"/>
     <text stroke="none" x="805.0" y="215.0" font-size="20.0" font-family="helvetica">Halobacillus halophilus DSM 2266". (X62174)</text>
    </g>
    <g>
     <circle stroke="black" stroke-width="0.5" fill="#aaffff" cx="829.0" cy="751.0" r="1.0"/>
     <text stroke="none" x="829.0" y="751.0" font-size="10.0" font-family="helvetica">NT1.27</text>
    </g>
    <g>
     <circle stroke="black" stroke-width="0.5" fill="#aaffff" cx="836.0" cy="55.0" r="1.0"/>
     <text stroke="none" x="836.0" y="55.0" font-size="20.0" font-family="helvetica">Gracilibacillus halotolerans DSM 1895T (AF036922)</text>
    </g>
    <g>
     <circle stroke="black" stroke-width="0.5" fill="#aaffff" cx="896.0" cy="643.0" r="1.0"/>
     <text stroke="none" x="896.0" y="643.0" font-size="20.0" font-family="helvetica">Sporosarcina ureae DSM 2281T (AF202057)</text>
    </g>
    <g>
     <circle stroke="black" stroke-width="0.5" fill="#aaffff" cx="933.0" cy="268.0" r="1.0"/>
     <text stroke="none" x="933.0" y="268.0" font-size="20.0" font-family="helvetica">Lentibacillus salicampi KCCM 4l560T (AY057394)</text>
    </g>
    <g>
     <circle stroke="black" stroke-width="0.5" fill="#aaffff" cx="969.0" cy="109.0" r="1.0"/>
     <text stroke="none" x="969.0" y="109.0" font-size="20.0" font-family="helvetica">Pantibacillus chungwhensis KCTC 38907 (AY553296)</text>
    </g>
    <g>
     <circle stroke="black" stroke-width="0.5" fill="#aaffff" cx="2.0" cy="747.0" r="1.0"/>
     <text stroke="none" x="2.0" y="747.0" font-size="10.0" font-family="helvetica">NT1.32</text>
    </g>
    <line stroke="black" x1="805.0" y1="215.0" x2="599.0" y2="188.0" stroke-width="0.5"/>
    <line stroke="black" x1="969.0" y1="109.0" x2="461.0" y2="149.0" stroke-width="0.5"/>
    <line stroke="black" x1="673.0" y1="375.0" x2="428.0" y2="401.0" stroke-width="0.5"/>
    <line stroke="black" x1="933.0" y1="268.0" x2="435.0" y2="295.0" stroke-width="0.5"/>
    <line stroke="black" x1="783.0" y1="430.0" x2="428.0" y2="401.0" stroke-width="0.5"/>
    <line stroke="black" x1="776.0" y1="483.0" x2="725.0" y2="523.0" stroke-width="0.5"/>
    <line stroke="black" x1="784.0" y1="590.0" x2="783.0" y2="563.0" stroke-width="0.5"/>
    <line stroke="black" x1="784.0" y1="536.0" x2="783.0" y2="563.0" stroke-width="0.5"/>
    <line stroke="black" x1="680.0" y1="804.0" x2="320.0" y2="810.0" stroke-width="0.5"/>
    <line stroke="black" x1="896.0" y1="643.0" x2="418.0" y2="684.0" stroke-width="0.5"/>
    <line stroke="black" x1="428.0" y1="102.0" x2="390.0" y2="198.0" stroke-width="0.5"/>
    <line stroke="black" x1="428.0" y1="102.0" x2="461.0" y2="149.0" stroke-width="0.5"/>
    <line stroke="black" x1="390.0" y1="198.0" x2="357.0" y2="301.0" stroke-width="0.5"/>
    <line stroke="black" x1="357.0" y1="301.0" x2="292.0" y2="413.0" stroke-width="0.5"/>
    <line stroke="black" x1="357.0" y1="301.0" x2="428.0" y2="401.0" stroke-width="0.5"/>
    <line stroke="black" x1="292.0" y1="413.0" x2="725.0" y2="523.0" stroke-width="0.5"/>
    <line stroke="black" x1="292.0" y1="413.0" x2="234.0" y2="584.0" stroke-width="0.5"/>
    <line stroke="black" x1="234.0" y1="584.0" x2="320.0" y2="810.0" stroke-width="0.5"/>
    <line stroke="black" x1="725.0" y1="523.0" x2="783.0" y2="563.0" stroke-width="0.5"/>
    <line stroke="black" x1="2.0" y1="747.0" x2="795.0" y2="911.0" stroke-width="0.5"/>
    <line stroke="black" x1="2.0" y1="747.0" x2="234.0" y2="584.0" stroke-width="0.5"/>
    <line stroke="black" x1="836.0" y1="55.0" x2="428.0" y2="102.0" stroke-width="0.5"/>
   </g>
  </g>
 </svg>
</svg>
