<?xml version="1.0" encoding="UTF-8"?>
<svg height="800.0" width="700.0" xmlns="http://www.w3.org/2000/svg">
 <svg>
  <g>
   <g>
    <g>
     <circle stroke="black" stroke-width="0.5" fill="#aaffff" cx="20.0" cy="501.0" r="1.0"/>
     <text stroke="none" x="20.0" y="501.0" font-size="10.0" font-family="helvetica">NT1.1</text>
    </g>
    <g>
     <circle stroke="black" stroke-width="0.5" fill="#aaffff" cx="189.0" cy="562.0" r="1.0"/>
     <text stroke="none" x="189.0" y="562.0" font-size="10.0" font-family="helvetica">NT1.2</text>
    </g>
    <g>
     <circle stroke="black" stroke-width="0.5" fill="#aaffff" cx="228.0" cy="312.0" r="1.0"/>
     <text stroke="none" x="228.0" y="312.0" font-size="20.0" font-family="helvetica">100</text>
    </g>
    <g>
     <circle stroke="black" stroke-width="0.5" fill="#aaffff" cx="257.0" cy="246.0" r="1.0"/>
     <text stroke="none" x="257.0" y="246.0" font-size="20.0" font-family="helvetica">86</text>
    </g>
    <g>
     <circle stroke="black" stroke-width="0.5" fill="#aaffff" cx="318.0" cy="440.0" r="1.0"/>
     <text stroke="none" x="318.0" y="440.0" font-size="10.0" font-family="helvetica">NT1.5</text>
    </g>
    <g>
     <circle stroke="black" stroke-width="0.5" fill="#aaffff" cx="359.0" cy="153.0" r="1.0"/>
     <text stroke="none" x="359.0" y="153.0" font-size="20.0" font-family="helvetica">96</text>
    </g>
    <g>
     <circle stroke="black" stroke-width="0.5" fill="#aaffff" cx="397.0" cy="460.0" r="1.0"/>
     <text stroke="none" x="397.0" y="460.0" font-size="20.0" font-family="helvetica"> Marinitoga hydrogenitolerans DSM 16785T (AJ786383)</text>
    </g>
    <g>
     <circle stroke="black" stroke-width="0.5" fill="#aaffff" cx="428.0" cy="209.0" r="1.0"/>
     <text stroke="none" x="428.0" y="209.0" font-size="20.0" font-family="helvetica">99</text>
    </g>
    <g>
     <circle stroke="black" stroke-width="0.5" fill="#aaffff" cx="429.0" cy="419.0" r="1.0"/>
     <text stroke="none" x="429.0" y="419.0" font-size="10.0" font-family="helvetica">NT1.9</text>
    </g>
    <g>
     <circle stroke="black" stroke-width="0.5" fill="#aaffff" cx="468.0" cy="245.0" r="1.0"/>
     <text stroke="none" x="468.0" y="245.0" font-size="10.0" font-family="helvetica">NT1.10</text>
    </g>
    <g>
     <circle stroke="black" stroke-width="0.5" fill="#aaffff" cx="495.0" cy="97.0" r="1.0"/>
     <text stroke="none" x="495.0" y="97.0" font-size="20.0" font-family="helvetica">we</text>
    </g>
    <g>
     <circle stroke="black" stroke-width="0.5" fill="#aaffff" cx="508.0" cy="61.0" r="1.0"/>
     <text stroke="none" x="508.0" y="61.0" font-size="10.0" font-family="helvetica">NT1.12</text>
    </g>
    <g>
     <circle stroke="black" stroke-width="0.5" fill="#aaffff" cx="515.0" cy="603.0" r="1.0"/>
     <text stroke="none" x="515.0" y="603.0" font-size="10.0" font-family="helvetica">NT1.13</text>
    </g>
    <g>
     <circle stroke="black" stroke-width="0.5" fill="#aaffff" cx="564.0" cy="31.0" r="1.0"/>
     <text stroke="none" x="564.0" y="31.0" font-size="10.0" font-family="helvetica">NT1.14</text>
    </g>
    <g>
     <circle stroke="black" stroke-width="0.5" fill="#aaffff" cx="581.0" cy="51.0" r="1.0"/>
     <text stroke="none" x="581.0" y="51.0" font-size="10.0" font-family="helvetica">NT1.15</text>
    </g>
    <g>
     <circle stroke="black" stroke-width="0.5" fill="#aaffff" cx="584.0" cy="10.0" r="1.0"/>
     <text stroke="none" x="584.0" y="10.0" font-size="10.0" font-family="helvetica">NT1.16</text>
    </g>
    <g>
     <circle stroke="black" stroke-width="0.5" fill="#aaffff" cx="594.0" cy="133.0" r="1.0"/>
     <text stroke="none" x="594.0" y="133.0" font-size="20.0" font-family="helvetica">Thermosipho melanesiensis DSM 12029T (Z70248)</text>
    </g>
    <g>
     <circle stroke="black" stroke-width="0.5" fill="#aaffff" cx="594.0" cy="379.0" r="1.0"/>
     <text stroke="none" x="594.0" y="379.0" font-size="20.0" font-family="helvetica">Thermococcoides shengliensis 2SM-2T (EU276414)</text>
    </g>
    <g>
     <circle stroke="black" stroke-width="0.5" fill="#aaffff" cx="599.0" cy="583.0" r="1.0"/>
     <text stroke="none" x="599.0" y="583.0" font-size="10.0" font-family="helvetica">NT1.19</text>
    </g>
    <g>
     <circle stroke="black" stroke-width="0.5" fill="#aaffff" cx="600.0" cy="338.0" r="1.0"/>
     <text stroke="none" x="600.0" y="338.0" font-size="20.0" font-family="helvetica">Fervidobacterium nodosum DSM 53067 (M59177)</text>
    </g>
    <g>
     <circle stroke="black" stroke-width="0.5" fill="#aaffff" cx="601.0" cy="92.0" r="1.0"/>
     <text stroke="none" x="601.0" y="92.0" font-size="20.0" font-family="helvetica">Thermosipho atlanticus DSM 15807T (AJ577471)</text>
    </g>
    <g>
     <circle stroke="black" stroke-width="0.5" fill="#aaffff" cx="617.0" cy="174.0" r="1.0"/>
     <text stroke="none" x="617.0" y="174.0" font-size="20.0" font-family="helvetica">Thermotoga maritima DSM 3109T (M21774)</text>
    </g>
    <g>
     <circle stroke="black" stroke-width="0.5" fill="#aaffff" cx="623.0" cy="624.0" r="1.0"/>
     <text stroke="none" x="623.0" y="624.0" font-size="10.0" font-family="helvetica">NT1.23</text>
    </g>
    <g>
     <circle stroke="black" stroke-width="0.5" fill="#aaffff" cx="636.0" cy="215.0" r="1.0"/>
     <text stroke="none" x="636.0" y="215.0" font-size="20.0" font-family="helvetica">Thermotoga thermarum DSM 5069T (ABO39769)</text>
    </g>
    <g>
     <circle stroke="black" stroke-width="0.5" fill="#aaffff" cx="646.0" cy="276.0" r="1.0"/>
     <text stroke="none" x="646.0" y="276.0" font-size="20.0" font-family="helvetica">100</text>
    </g>
    <g>
     <circle stroke="black" stroke-width="0.5" fill="#aaffff" cx="650.0" cy="297.0" r="1.0"/>
     <text stroke="none" x="650.0" y="297.0" font-size="10.0" font-family="helvetica">NT1.26</text>
    </g>
    <g>
     <circle stroke="black" stroke-width="0.5" fill="#aaffff" cx="668.0" cy="522.0" r="1.0"/>
     <text stroke="none" x="668.0" y="522.0" font-size="20.0" font-family="helvetica">100</text>
    </g>
    <g>
     <circle stroke="black" stroke-width="0.5" fill="#aaffff" cx="669.0" cy="501.0" r="1.0"/>
     <text stroke="none" x="669.0" y="501.0" font-size="20.0" font-family="helvetica">Petrotoga miotherma DSM 10691T (L10657)</text>
    </g>
    <g>
     <circle stroke="black" stroke-width="0.5" fill="#aaffff" cx="683.0" cy="542.0" r="1.0"/>
     <text stroke="none" x="683.0" y="542.0" font-size="20.0" font-family="helvetica">Petrotoga halophila DSM 16923T (AY800102)</text>
    </g>
    <g>
     <circle stroke="black" stroke-width="0.5" fill="#aaffff" cx="684.0" cy="256.0" r="1.0"/>
     <text stroke="none" x="684.0" y="256.0" font-size="10.0" font-family="helvetica">NT1.30</text>
    </g>
    <g>
     <circle stroke="black" stroke-width="0.5" fill="#aaffff" cx="1.0" cy="406.0" r="1.0"/>
     <text stroke="none" x="1.0" y="406.0" font-size="10.0" font-family="helvetica">NT1.31</text>
    </g>
    <line stroke="black" x1="601.0" y1="92.0" x2="508.0" y2="61.0" stroke-width="0.5"/>
    <line stroke="black" x1="594.0" y1="133.0" x2="495.0" y2="97.0" stroke-width="0.5"/>
    <line stroke="black" x1="617.0" y1="174.0" x2="428.0" y2="209.0" stroke-width="0.5"/>
    <line stroke="black" x1="636.0" y1="215.0" x2="468.0" y2="245.0" stroke-width="0.5"/>
    <line stroke="black" x1="600.0" y1="338.0" x2="257.0" y2="246.0" stroke-width="0.5"/>
    <line stroke="black" x1="594.0" y1="379.0" x2="228.0" y2="312.0" stroke-width="0.5"/>
    <line stroke="black" x1="397.0" y1="460.0" x2="318.0" y2="440.0" stroke-width="0.5"/>
    <line stroke="black" x1="669.0" y1="501.0" x2="668.0" y2="522.0" stroke-width="0.5"/>
    <line stroke="black" x1="683.0" y1="542.0" x2="668.0" y2="522.0" stroke-width="0.5"/>
    <line stroke="black" x1="495.0" y1="97.0" x2="359.0" y2="153.0" stroke-width="0.5"/>
    <line stroke="black" x1="359.0" y1="153.0" x2="257.0" y2="246.0" stroke-width="0.5"/>
    <line stroke="black" x1="359.0" y1="153.0" x2="428.0" y2="209.0" stroke-width="0.5"/>
    <line stroke="black" x1="257.0" y1="246.0" x2="228.0" y2="312.0" stroke-width="0.5"/>
    <line stroke="black" x1="189.0" y1="562.0" x2="668.0" y2="522.0" stroke-width="0.5"/>
    <line stroke="black" x1="1.0" y1="406.0" x2="228.0" y2="312.0" stroke-width="0.5"/>
    <line stroke="black" x1="1.0" y1="406.0" x2="20.0" y2="501.0" stroke-width="0.5"/>
   </g>
  </g>
 </svg>
</svg>
