<?xml version="1.0" encoding="UTF-8"?>
<svg height="800.0" width="700.0" xmlns="http://www.w3.org/2000/svg">
 <svg>
  <g>
   <g>
    <g>
     <circle stroke="black" stroke-width="0.5" fill="#aaffff" cx="0.0" cy="221.0" r="1.0"/>
     <text stroke="none" x="0.0" y="221.0" font-size="20.0" font-family="helvetica"/>
    </g>
    <g>
     <circle stroke="black" stroke-width="0.5" fill="#aaffff" cx="3.0" cy="221.0" r="1.0"/>
     <text stroke="none" x="3.0" y="221.0" font-size="10.0" font-family="helvetica">NT1.2</text>
    </g>
    <g>
     <circle stroke="black" stroke-width="0.5" fill="#aaffff" cx="312.0" cy="638.0" r="1.0"/>
     <text stroke="none" x="312.0" y="638.0" font-size="10.0" font-family="helvetica">NT1.3</text>
    </g>
    <g>
     <circle stroke="black" stroke-width="0.5" fill="#aaffff" cx="365.0" cy="433.0" r="1.0"/>
     <text stroke="none" x="365.0" y="433.0" font-size="10.0" font-family="helvetica">NT1.4</text>
    </g>
    <g>
     <circle stroke="black" stroke-width="0.5" fill="#aaffff" cx="391.0" cy="276.0" r="1.0"/>
     <text stroke="none" x="391.0" y="276.0" font-size="10.0" font-family="helvetica">NT1.5</text>
    </g>
    <g>
     <circle stroke="black" stroke-width="0.5" fill="#aaffff" cx="398.0" cy="171.0" r="1.0"/>
     <text stroke="none" x="398.0" y="171.0" font-size="10.0" font-family="helvetica">NT1.6</text>
    </g>
    <g>
     <circle stroke="black" stroke-width="0.5" fill="#aaffff" cx="399.0" cy="377.0" r="1.0"/>
     <text stroke="none" x="399.0" y="377.0" font-size="10.0" font-family="helvetica">NT1.7</text>
    </g>
    <g>
     <circle stroke="black" stroke-width="0.5" fill="#aaffff" cx="403.0" cy="585.0" r="1.0"/>
     <text stroke="none" x="403.0" y="585.0" font-size="10.0" font-family="helvetica">NT1.8</text>
    </g>
    <g>
     <circle stroke="black" stroke-width="0.5" fill="#aaffff" cx="411.0" cy="329.0" r="1.0"/>
     <text stroke="none" x="411.0" y="329.0" font-size="20.0" font-family="helvetica">983</text>
    </g>
    <g>
     <circle stroke="black" stroke-width="0.5" fill="#aaffff" cx="413.0" cy="290.0" r="1.0"/>
     <text stroke="none" x="413.0" y="290.0" font-size="20.0" font-family="helvetica">Pediococcus inopinatus DSM 202857 (AJ271383)</text>
    </g>
    <g>
     <circle stroke="black" stroke-width="0.5" fill="#aaffff" cx="414.0" cy="292.0" r="1.0"/>
     <text stroke="none" x="414.0" y="292.0" font-size="20.0" font-family="helvetica">983</text>
    </g>
    <g>
     <circle stroke="black" stroke-width="0.5" fill="#aaffff" cx="417.0" cy="222.0" r="1.0"/>
     <text stroke="none" x="417.0" y="222.0" font-size="20.0" font-family="helvetica">Pediocaccus ethanolidurans Z-9 (AY956789)</text>
    </g>
    <g>
     <circle stroke="black" stroke-width="0.5" fill="#aaffff" cx="417.0" cy="431.0" r="1.0"/>
     <text stroke="none" x="417.0" y="431.0" font-size="20.0" font-family="helvetica">Pediococcus parvulus JCM 5889' (D88528)</text>
    </g>
    <g>
     <circle stroke="black" stroke-width="0.5" fill="#aaffff" cx="418.0" cy="672.0" r="1.0"/>
     <text stroke="none" x="418.0" y="672.0" font-size="10.0" font-family="helvetica">NT1.14</text>
    </g>
    <g>
     <circle stroke="black" stroke-width="0.5" fill="#aaffff" cx="419.0" cy="82.0" r="1.0"/>
     <text stroke="none" x="419.0" y="82.0" font-size="20.0" font-family="helvetica">Pediacoccus cellicola Z-8T (AY95678B)</text>
    </g>
    <g>
     <circle stroke="black" stroke-width="0.5" fill="#aaffff" cx="420.0" cy="361.0" r="1.0"/>
     <text stroke="none" x="420.0" y="361.0" font-size="10.0" font-family="helvetica">NT1.16</text>
    </g>
    <g>
     <circle stroke="black" stroke-width="0.5" fill="#aaffff" cx="421.0" cy="153.0" r="1.0"/>
     <text stroke="none" x="421.0" y="153.0" font-size="10.0" font-family="helvetica">NT1.17</text>
    </g>
    <g>
     <circle stroke="black" stroke-width="0.5" fill="#aaffff" cx="423.0" cy="292.0" r="1.0"/>
     <text stroke="none" x="423.0" y="292.0" font-size="20.0" font-family="helvetica">Pediococcus inopinatus DSM 202857 (AJ271383)</text>
    </g>
    <g>
     <circle stroke="black" stroke-width="0.5" fill="#aaffff" cx="426.0" cy="607.0" r="1.0"/>
     <text stroke="none" x="426.0" y="607.0" font-size="20.0" font-family="helvetica">706</text>
    </g>
    <g>
     <circle stroke="black" stroke-width="0.5" fill="#aaffff" cx="433.0" cy="849.0" r="1.0"/>
     <text stroke="none" x="433.0" y="849.0" font-size="20.0" font-family="helvetica">Pediococcus dextrinicus JCM5887T (D87679)</text>
    </g>
    <g>
     <circle stroke="black" stroke-width="0.5" fill="#aaffff" cx="440.0" cy="13.0" r="1.0"/>
     <text stroke="none" x="440.0" y="13.0" font-size="20.0" font-family="helvetica">Bifidobacterium bifidum DSM 204567 (M38018)</text>
    </g>
    <g>
     <circle stroke="black" stroke-width="0.5" fill="#aaffff" cx="444.0" cy="742.0" r="1.0"/>
     <text stroke="none" x="444.0" y="742.0" font-size="10.0" font-family="helvetica">NT1.22</text>
    </g>
    <g>
     <circle stroke="black" stroke-width="0.5" fill="#aaffff" cx="447.0" cy="500.0" r="1.0"/>
     <text stroke="none" x="447.0" y="500.0" font-size="20.0" font-family="helvetica">Pediococcus claussenii DSM 148007 (AJ621555)</text>
    </g>
    <g>
     <circle stroke="black" stroke-width="0.5" fill="#aaffff" cx="450.0" cy="570.0" r="1.0"/>
     <text stroke="none" x="450.0" y="570.0" font-size="20.0" font-family="helvetica">Pediococcus stilesii LMG 230827 (AJ973157)</text>
    </g>
    <g>
     <circle stroke="black" stroke-width="0.5" fill="#aaffff" cx="451.0" cy="640.0" r="1.0"/>
     <text stroke="none" x="451.0" y="640.0" font-size="20.0" font-family="helvetica">Pediococcus pentosaceus DSM 20336' (AJ305321)</text>
    </g>
    <g>
     <circle stroke="black" stroke-width="0.5" fill="#aaffff" cx="451.0" cy="779.0" r="1.0"/>
     <text stroke="none" x="451.0" y="779.0" font-size="20.0" font-family="helvetica">Pediococcus acidilactici DSM 20284T (AJ305320)</text>
    </g>
    <g>
     <circle stroke="black" stroke-width="0.5" fill="#aaffff" cx="462.0" cy="710.0" r="1.0"/>
     <text stroke="none" x="462.0" y="710.0" font-size="20.0" font-family="helvetica">Pediococcus lalii NGRI 0510QT (AB362985)</text>
    </g>
    <g>
     <circle stroke="black" stroke-width="0.5" fill="#aaffff" cx="479.0" cy="153.0" r="1.0"/>
     <text stroke="none" x="479.0" y="153.0" font-size="20.0" font-family="helvetica">Pediococcus siamensis MCH3-27 (AB258357)</text>
    </g>
    <line stroke="black" x1="0.0" y1="221.0" x2="3.0" y2="221.0" stroke-width="0.5"/>
    <line stroke="black" x1="414.0" y1="292.0" x2="413.0" y2="290.0" stroke-width="0.5"/>
    <line stroke="black" x1="423.0" y1="292.0" x2="414.0" y2="292.0" stroke-width="0.5"/>
    <line stroke="black" x1="479.0" y1="153.0" x2="421.0" y2="153.0" stroke-width="0.5"/>
    <line stroke="black" x1="3.0" y1="221.0" x2="312.0" y2="638.0" stroke-width="0.5"/>
    <line stroke="black" x1="312.0" y1="638.0" x2="365.0" y2="433.0" stroke-width="0.5"/>
    <line stroke="black" x1="365.0" y1="433.0" x2="403.0" y2="585.0" stroke-width="0.5"/>
    <line stroke="black" x1="365.0" y1="433.0" x2="391.0" y2="276.0" stroke-width="0.5"/>
    <line stroke="black" x1="391.0" y1="276.0" x2="399.0" y2="377.0" stroke-width="0.5"/>
    <line stroke="black" x1="391.0" y1="276.0" x2="398.0" y2="171.0" stroke-width="0.5"/>
    <line stroke="black" x1="403.0" y1="585.0" x2="418.0" y2="672.0" stroke-width="0.5"/>
    <line stroke="black" x1="418.0" y1="672.0" x2="444.0" y2="742.0" stroke-width="0.5"/>
    <line stroke="black" x1="418.0" y1="672.0" x2="426.0" y2="607.0" stroke-width="0.5"/>
    <line stroke="black" x1="398.0" y1="171.0" x2="421.0" y2="153.0" stroke-width="0.5"/>
    <line stroke="black" x1="411.0" y1="329.0" x2="414.0" y2="292.0" stroke-width="0.5"/>
    <line stroke="black" x1="440.0" y1="13.0" x2="3.0" y2="221.0" stroke-width="0.5"/>
    <line stroke="black" x1="433.0" y1="849.0" x2="312.0" y2="638.0" stroke-width="0.5"/>
    <line stroke="black" x1="417.0" y1="431.0" x2="399.0" y2="377.0" stroke-width="0.5"/>
    <line stroke="black" x1="417.0" y1="222.0" x2="398.0" y2="171.0" stroke-width="0.5"/>
    <line stroke="black" x1="419.0" y1="82.0" x2="421.0" y2="153.0" stroke-width="0.5"/>
    <line stroke="black" x1="447.0" y1="500.0" x2="403.0" y2="585.0" stroke-width="0.5"/>
    <line stroke="black" x1="450.0" y1="570.0" x2="426.0" y2="607.0" stroke-width="0.5"/>
    <line stroke="black" x1="451.0" y1="640.0" x2="426.0" y2="607.0" stroke-width="0.5"/>
    <line stroke="black" x1="451.0" y1="779.0" x2="444.0" y2="742.0" stroke-width="0.5"/>
    <line stroke="black" x1="462.0" y1="710.0" x2="444.0" y2="742.0" stroke-width="0.5"/>
   </g>
  </g>
 </svg>
</svg>
