<?xml version="1.0" encoding="UTF-8"?>
<svg height="800.0" width="700.0" xmlns="http://www.w3.org/2000/svg">
 <svg>
  <g>
   <g>
    <g>
     <circle stroke="black" stroke-width="0.5" fill="#aaffff" cx="143.0" cy="129.0" r="1.0"/>
     <text stroke="none" x="143.0" y="129.0" font-size="10.0" font-family="helvetica">NT1.1</text>
    </g>
    <g>
     <circle stroke="black" stroke-width="0.5" fill="#aaffff" cx="157.0" cy="189.0" r="1.0"/>
     <text stroke="none" x="157.0" y="189.0" font-size="10.0" font-family="helvetica">NT1.2</text>
    </g>
    <g>
     <circle stroke="black" stroke-width="0.5" fill="#aaffff" cx="173.0" cy="246.0" r="1.0"/>
     <text stroke="none" x="173.0" y="246.0" font-size="10.0" font-family="helvetica">NT1.3</text>
    </g>
    <g>
     <circle stroke="black" stroke-width="0.5" fill="#aaffff" cx="199.0" cy="302.0" r="1.0"/>
     <text stroke="none" x="199.0" y="302.0" font-size="10.0" font-family="helvetica">NT1.4</text>
    </g>
    <g>
     <circle stroke="black" stroke-width="0.5" fill="#aaffff" cx="203.0" cy="311.0" r="1.0"/>
     <text stroke="none" x="203.0" y="311.0" font-size="10.0" font-family="helvetica">NT1.5</text>
    </g>
    <g>
     <circle stroke="black" stroke-width="0.5" fill="#aaffff" cx="228.0" cy="72.0" r="1.0"/>
     <text stroke="none" x="228.0" y="72.0" font-size="20.0" font-family="helvetica">Paraliobacillus ryukyuensis O15-7T (ABO87828)</text>
    </g>
    <g>
     <circle stroke="black" stroke-width="0.5" fill="#aaffff" cx="261.0" cy="131.0" r="1.0"/>
     <text stroke="none" x="261.0" y="131.0" font-size="20.0" font-family="helvetica">Gracilibacillus halotolerans NNT (AFO36922)</text>
    </g>
    <g>
     <circle stroke="black" stroke-width="0.5" fill="#aaffff" cx="264.0" cy="191.0" r="1.0"/>
     <text stroke="none" x="264.0" y="191.0" font-size="20.0" font-family="helvetica">Gracilibacillus dipsosauri DD1T (X82436)</text>
    </g>
    <g>
     <circle stroke="black" stroke-width="0.5" fill="#aaffff" cx="274.0" cy="310.0" r="1.0"/>
     <text stroke="none" x="274.0" y="310.0" font-size="20.0" font-family="helvetica">Gracilibacillus orientalis XH-63T (AM040716)</text>
    </g>
    <g>
     <circle stroke="black" stroke-width="0.5" fill="#aaffff" cx="274.0" cy="251.0" r="1.0"/>
     <text stroke="none" x="274.0" y="251.0" font-size="20.0" font-family="helvetica">Gracilibacillus boraciitolerans T-16XT (AB197126)</text>
    </g>
    <g>
     <circle stroke="black" stroke-width="0.5" fill="#aaffff" cx="304.0" cy="398.0" r="1.0"/>
     <text stroke="none" x="304.0" y="398.0" font-size="20.0" font-family="helvetica">100</text>
    </g>
    <g>
     <circle stroke="black" stroke-width="0.5" fill="#aaffff" cx="318.0" cy="370.0" r="1.0"/>
     <text stroke="none" x="318.0" y="370.0" font-size="20.0" font-family="helvetica">BH312T (DQ664540)</text>
    </g>
    <g>
     <circle stroke="black" stroke-width="0.5" fill="#aaffff" cx="377.0" cy="13.0" r="1.0"/>
     <text stroke="none" x="377.0" y="13.0" font-size="20.0" font-family="helvetica">Brevibacillus brevis JCM 25O3T (D78457)</text>
    </g>
    <g>
     <circle stroke="black" stroke-width="0.5" fill="#aaffff" cx="377.0" cy="429.0" r="1.0"/>
     <text stroke="none" x="377.0" y="429.0" font-size="20.0" font-family="helvetica">BH314 (DQ664541)</text>
    </g>
    <line stroke="black" x1="228.0" y1="72.0" x2="143.0" y2="129.0" stroke-width="0.5"/>
    <line stroke="black" x1="264.0" y1="191.0" x2="173.0" y2="246.0" stroke-width="0.5"/>
    <line stroke="black" x1="274.0" y1="310.0" x2="203.0" y2="311.0" stroke-width="0.5"/>
    <line stroke="black" x1="274.0" y1="251.0" x2="199.0" y2="302.0" stroke-width="0.5"/>
    <line stroke="black" x1="318.0" y1="370.0" x2="304.0" y2="398.0" stroke-width="0.5"/>
    <line stroke="black" x1="143.0" y1="129.0" x2="157.0" y2="189.0" stroke-width="0.5"/>
    <line stroke="black" x1="157.0" y1="189.0" x2="173.0" y2="246.0" stroke-width="0.5"/>
    <line stroke="black" x1="173.0" y1="246.0" x2="199.0" y2="302.0" stroke-width="0.5"/>
    <line stroke="black" x1="199.0" y1="302.0" x2="203.0" y2="311.0" stroke-width="0.5"/>
    <line stroke="black" x1="203.0" y1="311.0" x2="304.0" y2="398.0" stroke-width="0.5"/>
    <line stroke="black" x1="377.0" y1="13.0" x2="143.0" y2="129.0" stroke-width="0.5"/>
    <line stroke="black" x1="261.0" y1="131.0" x2="157.0" y2="189.0" stroke-width="0.5"/>
    <line stroke="black" x1="377.0" y1="429.0" x2="304.0" y2="398.0" stroke-width="0.5"/>
   </g>
  </g>
 </svg>
</svg>
