<?xml version="1.0" encoding="UTF-8"?>
<svg height="800.0" width="700.0" xmlns="http://www.w3.org/2000/svg">
 <svg>
  <g>
   <g>
    <g>
     <circle stroke="black" stroke-width="0.5" fill="#aaffff" cx="188.0" cy="41.0" r="1.0"/>
     <text stroke="none" x="188.0" y="41.0" font-size="10.0" font-family="helvetica">NT1.1</text>
    </g>
    <g>
     <circle stroke="black" stroke-width="0.5" fill="#aaffff" cx="283.0" cy="484.0" r="1.0"/>
     <text stroke="none" x="283.0" y="484.0" font-size="10.0" font-family="helvetica">NT1.2</text>
    </g>
    <g>
     <circle stroke="black" stroke-width="0.5" fill="#aaffff" cx="313.0" cy="394.0" r="1.0"/>
     <text stroke="none" x="313.0" y="394.0" font-size="10.0" font-family="helvetica">NT1.3</text>
    </g>
    <g>
     <circle stroke="black" stroke-width="0.5" fill="#aaffff" cx="330.0" cy="319.0" r="1.0"/>
     <text stroke="none" x="330.0" y="319.0" font-size="10.0" font-family="helvetica">NT1.4</text>
    </g>
    <g>
     <circle stroke="black" stroke-width="0.5" fill="#aaffff" cx="358.0" cy="249.0" r="1.0"/>
     <text stroke="none" x="358.0" y="249.0" font-size="10.0" font-family="helvetica">NT1.5</text>
    </g>
    <g>
     <circle stroke="black" stroke-width="0.5" fill="#aaffff" cx="382.0" cy="469.0" r="1.0"/>
     <text stroke="none" x="382.0" y="469.0" font-size="10.0" font-family="helvetica">NT1.6</text>
    </g>
    <g>
     <circle stroke="black" stroke-width="0.5" fill="#aaffff" cx="384.0" cy="188.0" r="1.0"/>
     <text stroke="none" x="384.0" y="188.0" font-size="10.0" font-family="helvetica">NT1.7</text>
    </g>
    <g>
     <circle stroke="black" stroke-width="0.5" fill="#aaffff" cx="387.0" cy="589.0" r="1.0"/>
     <text stroke="none" x="387.0" y="589.0" font-size="10.0" font-family="helvetica">NT1.8</text>
    </g>
    <g>
     <circle stroke="black" stroke-width="0.5" fill="#aaffff" cx="430.0" cy="309.0" r="1.0"/>
     <text stroke="none" x="430.0" y="309.0" font-size="10.0" font-family="helvetica">NT1.9</text>
    </g>
    <g>
     <circle stroke="black" stroke-width="0.5" fill="#aaffff" cx="443.0" cy="148.0" r="1.0"/>
     <text stroke="none" x="443.0" y="148.0" font-size="10.0" font-family="helvetica">NT1.10</text>
    </g>
    <g>
     <circle stroke="black" stroke-width="0.5" fill="#aaffff" cx="466.0" cy="605.0" r="1.0"/>
     <text stroke="none" x="466.0" y="605.0" font-size="20.0" font-family="helvetica">Deinococcus radiophilus DSM 205517 (Y11333)</text>
    </g>
    <g>
     <circle stroke="black" stroke-width="0.5" fill="#aaffff" cx="472.0" cy="229.0" r="1.0"/>
     <text stroke="none" x="472.0" y="229.0" font-size="20.0" font-family="helvetica">Deinococcus grandis DSM 3963T (Y11329)</text>
    </g>
    <g>
     <circle stroke="black" stroke-width="0.5" fill="#aaffff" cx="486.0" cy="550.0" r="1.0"/>
     <text stroke="none" x="486.0" y="550.0" font-size="10.0" font-family="helvetica">NT1.13</text>
    </g>
    <g>
     <circle stroke="black" stroke-width="0.5" fill="#aaffff" cx="496.0" cy="335.0" r="1.0"/>
     <text stroke="none" x="496.0" y="335.0" font-size="10.0" font-family="helvetica">NT1.14</text>
    </g>
    <g>
     <circle stroke="black" stroke-width="0.5" fill="#aaffff" cx="499.0" cy="68.0" r="1.0"/>
     <text stroke="none" x="499.0" y="68.0" font-size="20.0" font-family="helvetica">Meiothermus ruber ATCC 35948T (Z15059)</text>
    </g>
    <g>
     <circle stroke="black" stroke-width="0.5" fill="#aaffff" cx="501.0" cy="175.0" r="1.0"/>
     <text stroke="none" x="501.0" y="175.0" font-size="20.0" font-family="helvetica">Deinococcus deserti VCD117 (AY876379)</text>
    </g>
    <g>
     <circle stroke="black" stroke-width="0.5" fill="#aaffff" cx="502.0" cy="120.0" r="1.0"/>
     <text stroke="none" x="502.0" y="120.0" font-size="20.0" font-family="helvetica">Deinococcus deserti VCD1 15" (AY876378)</text>
    </g>
    <g>
     <circle stroke="black" stroke-width="0.5" fill="#aaffff" cx="526.0" cy="14.0" r="1.0"/>
     <text stroke="none" x="526.0" y="14.0" font-size="20.0" font-family="helvetica">Thermus aquaticus YT-1 (L09663)</text>
    </g>
    <g>
     <circle stroke="black" stroke-width="0.5" fill="#aaffff" cx="527.0" cy="389.0" r="1.0"/>
     <text stroke="none" x="527.0" y="389.0" font-size="10.0" font-family="helvetica">NT1.19</text>
    </g>
    <g>
     <circle stroke="black" stroke-width="0.5" fill="#aaffff" cx="533.0" cy="497.0" r="1.0"/>
     <text stroke="none" x="533.0" y="497.0" font-size="10.0" font-family="helvetica">NT1.20</text>
    </g>
    <g>
     <circle stroke="black" stroke-width="0.5" fill="#aaffff" cx="536.0" cy="283.0" r="1.0"/>
     <text stroke="none" x="536.0" y="283.0" font-size="20.0" font-family="helvetica"> Deinococcus radiodurans DSM 205397 (Y11332)</text>
    </g>
    <g>
     <circle stroke="black" stroke-width="0.5" fill="#aaffff" cx="609.0" cy="442.0" r="1.0"/>
     <text stroke="none" x="609.0" y="442.0" font-size="20.0" font-family="helvetica">Deinococcus geothermalis AG-3aV (Y13038)</text>
    </g>
    <g>
     <circle stroke="black" stroke-width="0.5" fill="#aaffff" cx="4.0" cy="43.0" r="1.0"/>
     <text stroke="none" x="4.0" y="43.0" font-size="10.0" font-family="helvetica">NT1.23</text>
    </g>
    <line stroke="black" x1="472.0" y1="229.0" x2="384.0" y2="188.0" stroke-width="0.5"/>
    <line stroke="black" x1="609.0" y1="442.0" x2="382.0" y2="469.0" stroke-width="0.5"/>
    <line stroke="black" x1="536.0" y1="283.0" x2="430.0" y2="309.0" stroke-width="0.5"/>
    <line stroke="black" x1="501.0" y1="175.0" x2="443.0" y2="148.0" stroke-width="0.5"/>
    <line stroke="black" x1="502.0" y1="120.0" x2="443.0" y2="148.0" stroke-width="0.5"/>
    <line stroke="black" x1="283.0" y1="484.0" x2="313.0" y2="394.0" stroke-width="0.5"/>
    <line stroke="black" x1="330.0" y1="319.0" x2="358.0" y2="249.0" stroke-width="0.5"/>
    <line stroke="black" x1="358.0" y1="249.0" x2="384.0" y2="188.0" stroke-width="0.5"/>
    <line stroke="black" x1="384.0" y1="188.0" x2="443.0" y2="148.0" stroke-width="0.5"/>
    <line stroke="black" x1="4.0" y1="43.0" x2="188.0" y2="41.0" stroke-width="0.5"/>
    <line stroke="black" x1="283.0" y1="484.0" x2="4.0" y2="43.0" stroke-width="0.5"/>
    <line stroke="black" x1="526.0" y1="14.0" x2="188.0" y2="41.0" stroke-width="0.5"/>
    <line stroke="black" x1="499.0" y1="68.0" x2="188.0" y2="41.0" stroke-width="0.5"/>
    <line stroke="black" x1="466.0" y1="605.0" x2="387.0" y2="589.0" stroke-width="0.5"/>
   </g>
  </g>
 </svg>
</svg>
