<?xml version="1.0" encoding="UTF-8"?>
<svg height="800.0" width="700.0" xmlns="http://www.w3.org/2000/svg">
 <svg>
  <g>
   <g>
    <g>
     <circle stroke="black" stroke-width="0.5" fill="#aaffff" cx="269.0" cy="1386.0" r="1.0"/>
     <text stroke="none" x="269.0" y="1386.0" font-size="10.0" font-family="helvetica">NT1.1</text>
    </g>
    <g>
     <circle stroke="black" stroke-width="0.5" fill="#aaffff" cx="287.0" cy="1615.0" r="1.0"/>
     <text stroke="none" x="287.0" y="1615.0" font-size="20.0" font-family="helvetica">52</text>
    </g>
    <g>
     <circle stroke="black" stroke-width="0.5" fill="#aaffff" cx="292.0" cy="1051.0" r="1.0"/>
     <text stroke="none" x="292.0" y="1051.0" font-size="10.0" font-family="helvetica">NT1.3</text>
    </g>
    <g>
     <circle stroke="black" stroke-width="0.5" fill="#aaffff" cx="328.0" cy="1365.0" r="1.0"/>
     <text stroke="none" x="328.0" y="1365.0" font-size="10.0" font-family="helvetica">NT1.4</text>
    </g>
    <g>
     <circle stroke="black" stroke-width="0.5" fill="#aaffff" cx="329.0" cy="827.0" r="1.0"/>
     <text stroke="none" x="329.0" y="827.0" font-size="10.0" font-family="helvetica">NT1.5</text>
    </g>
    <g>
     <circle stroke="black" stroke-width="0.5" fill="#aaffff" cx="337.0" cy="482.0" r="1.0"/>
     <text stroke="none" x="337.0" y="482.0" font-size="10.0" font-family="helvetica">NT1.6</text>
    </g>
    <g>
     <circle stroke="black" stroke-width="0.5" fill="#aaffff" cx="338.0" cy="1194.0" r="1.0"/>
     <text stroke="none" x="338.0" y="1194.0" font-size="10.0" font-family="helvetica">NT1.7</text>
    </g>
    <g>
     <circle stroke="black" stroke-width="0.5" fill="#aaffff" cx="341.0" cy="340.0" r="1.0"/>
     <text stroke="none" x="341.0" y="340.0" font-size="10.0" font-family="helvetica">NT1.8</text>
    </g>
    <g>
     <circle stroke="black" stroke-width="0.5" fill="#aaffff" cx="346.0" cy="624.0" r="1.0"/>
     <text stroke="none" x="346.0" y="624.0" font-size="10.0" font-family="helvetica">NT1.9</text>
    </g>
    <g>
     <circle stroke="black" stroke-width="0.5" fill="#aaffff" cx="353.0" cy="689.0" r="1.0"/>
     <text stroke="none" x="353.0" y="689.0" font-size="10.0" font-family="helvetica">NT1.10</text>
    </g>
    <g>
     <circle stroke="black" stroke-width="0.5" fill="#aaffff" cx="355.0" cy="415.0" r="1.0"/>
     <text stroke="none" x="355.0" y="415.0" font-size="10.0" font-family="helvetica">NT1.11</text>
    </g>
    <g>
     <circle stroke="black" stroke-width="0.5" fill="#aaffff" cx="359.0" cy="264.0" r="1.0"/>
     <text stroke="none" x="359.0" y="264.0" font-size="20.0" font-family="helvetica">61</text>
    </g>
    <g>
     <circle stroke="black" stroke-width="0.5" fill="#aaffff" cx="371.0" cy="559.0" r="1.0"/>
     <text stroke="none" x="371.0" y="559.0" font-size="20.0" font-family="helvetica">57</text>
    </g>
    <g>
     <circle stroke="black" stroke-width="0.5" fill="#aaffff" cx="372.0" cy="1416.0" r="1.0"/>
     <text stroke="none" x="372.0" y="1416.0" font-size="10.0" font-family="helvetica">NT1.14</text>
    </g>
    <g>
     <circle stroke="black" stroke-width="0.5" fill="#aaffff" cx="373.0" cy="216.0" r="1.0"/>
     <text stroke="none" x="373.0" y="216.0" font-size="10.0" font-family="helvetica">NT1.15</text>
    </g>
    <g>
     <circle stroke="black" stroke-width="0.5" fill="#aaffff" cx="374.0" cy="1648.0" r="1.0"/>
     <text stroke="none" x="374.0" y="1648.0" font-size="20.0" font-family="helvetica">99</text>
    </g>
    <g>
     <circle stroke="black" stroke-width="0.5" fill="#aaffff" cx="380.0" cy="735.0" r="1.0"/>
     <text stroke="none" x="380.0" y="735.0" font-size="10.0" font-family="helvetica">NT1.17</text>
    </g>
    <g>
     <circle stroke="black" stroke-width="0.5" fill="#aaffff" cx="386.0" cy="104.0" r="1.0"/>
     <text stroke="none" x="386.0" y="104.0" font-size="10.0" font-family="helvetica">NT1.18</text>
    </g>
    <g>
     <circle stroke="black" stroke-width="0.5" fill="#aaffff" cx="390.0" cy="1227.0" r="1.0"/>
     <text stroke="none" x="390.0" y="1227.0" font-size="20.0" font-family="helvetica">99</text>
    </g>
    <g>
     <circle stroke="black" stroke-width="0.5" fill="#aaffff" cx="396.0" cy="444.0" r="1.0"/>
     <text stroke="none" x="396.0" y="444.0" font-size="20.0" font-family="helvetica">79</text>
    </g>
    <g>
     <circle stroke="black" stroke-width="0.5" fill="#aaffff" cx="410.0" cy="635.0" r="1.0"/>
     <text stroke="none" x="410.0" y="635.0" font-size="10.0" font-family="helvetica">NT1.21</text>
    </g>
    <g>
     <circle stroke="black" stroke-width="0.5" fill="#aaffff" cx="411.0" cy="1581.0" r="1.0"/>
     <text stroke="none" x="411.0" y="1581.0" font-size="20.0" font-family="helvetica">S. changbaiensis V2M447 (EU682685)</text>
    </g>
    <g>
     <circle stroke="black" stroke-width="0.5" fill="#aaffff" cx="411.0" cy="874.0" r="1.0"/>
     <text stroke="none" x="411.0" y="874.0" font-size="20.0" font-family="helvetica">99</text>
    </g>
    <g>
     <circle stroke="black" stroke-width="0.5" fill="#aaffff" cx="414.0" cy="61.0" r="1.0"/>
     <text stroke="none" x="414.0" y="61.0" font-size="20.0" font-family="helvetica">84</text>
    </g>
    <g>
     <circle stroke="black" stroke-width="0.5" fill="#aaffff" cx="415.0" cy="1677.0" r="1.0"/>
     <text stroke="none" x="415.0" y="1677.0" font-size="20.0" font-family="helvetica">93</text>
    </g>
    <g>
     <circle stroke="black" stroke-width="0.5" fill="#aaffff" cx="421.0" cy="377.0" r="1.0"/>
     <text stroke="none" x="421.0" y="377.0" font-size="20.0" font-family="helvetica">100</text>
    </g>
    <g>
     <circle stroke="black" stroke-width="0.5" fill="#aaffff" cx="425.0" cy="473.0" r="1.0"/>
     <text stroke="none" x="425.0" y="473.0" font-size="20.0" font-family="helvetica">s. desiccabms CP1 D7 (AJ871435)</text>
    </g>
    <g>
     <circle stroke="black" stroke-width="0.5" fill="#aaffff" cx="425.0" cy="33.0" r="1.0"/>
     <text stroke="none" x="425.0" y="33.0" font-size="20.0" font-family="helvetica">84</text>
    </g>
    <g>
     <circle stroke="black" stroke-width="0.5" fill="#aaffff" cx="426.0" cy="981.0" r="1.0"/>
     <text stroke="none" x="426.0" y="981.0" font-size="10.0" font-family="helvetica">NT1.29</text>
    </g>
    <g>
     <circle stroke="black" stroke-width="0.5" fill="#aaffff" cx="432.0" cy="1372.0" r="1.0"/>
     <text stroke="none" x="432.0" y="1372.0" font-size="20.0" font-family="helvetica">98</text>
    </g>
    <g>
     <circle stroke="black" stroke-width="0.5" fill="#aaffff" cx="433.0" cy="1031.0" r="1.0"/>
     <text stroke="none" x="433.0" y="1031.0" font-size="20.0" font-family="helvetica">71</text>
    </g>
    <g>
     <circle stroke="black" stroke-width="0.5" fill="#aaffff" cx="434.0" cy="13.0" r="1.0"/>
     <text stroke="none" x="434.0" y="13.0" font-size="20.0" font-family="helvetica"/>
    </g>
    <g>
     <circle stroke="black" stroke-width="0.5" fill="#aaffff" cx="435.0" cy="530.0" r="1.0"/>
     <text stroke="none" x="435.0" y="530.0" font-size="20.0" font-family="helvetica">100</text>
    </g>
    <g>
     <circle stroke="black" stroke-width="0.5" fill="#aaffff" cx="437.0" cy="510.0" r="1.0"/>
     <text stroke="none" x="437.0" y="510.0" font-size="20.0" font-family="helvetica">S. aquatilisJSS77 (AF131295)</text>
    </g>
    <g>
     <circle stroke="black" stroke-width="0.5" fill="#aaffff" cx="440.0" cy="664.0" r="1.0"/>
     <text stroke="none" x="440.0" y="664.0" font-size="20.0" font-family="helvetica"> S. dokdonensis DS-47 (D01 78975)</text>
    </g>
    <g>
     <circle stroke="black" stroke-width="0.5" fill="#aaffff" cx="440.0" cy="1047.0" r="1.0"/>
     <text stroke="none" x="440.0" y="1047.0" font-size="20.0" font-family="helvetica">71</text>
    </g>
    <g>
     <circle stroke="black" stroke-width="0.5" fill="#aaffff" cx="441.0" cy="549.0" r="1.0"/>
     <text stroke="none" x="441.0" y="549.0" font-size="20.0" font-family="helvetica">S. melonis DAPP-PG 2247 (ABO55863)</text>
    </g>
    <g>
     <circle stroke="black" stroke-width="0.5" fill="#aaffff" cx="441.0" cy="768.0" r="1.0"/>
     <text stroke="none" x="441.0" y="768.0" font-size="20.0" font-family="helvetica">100</text>
    </g>
    <g>
     <circle stroke="black" stroke-width="0.5" fill="#aaffff" cx="444.0" cy="90.0" r="1.0"/>
     <text stroke="none" x="444.0" y="90.0" font-size="20.0" font-family="helvetica">S. asaccharolytica IFO 154997 (YO9639)</text>
    </g>
    <g>
     <circle stroke="black" stroke-width="0.5" fill="#aaffff" cx="444.0" cy="1199.0" r="1.0"/>
     <text stroke="none" x="444.0" y="1199.0" font-size="20.0" font-family="helvetica">S. pituitosa EDIV7 (AJ243751)</text>
    </g>
    <g>
     <circle stroke="black" stroke-width="0.5" fill="#aaffff" cx="444.0" cy="147.0" r="1.0"/>
     <text stroke="none" x="444.0" y="147.0" font-size="20.0" font-family="helvetica">97</text>
    </g>
    <g>
     <circle stroke="black" stroke-width="0.5" fill="#aaffff" cx="447.0" cy="319.0" r="1.0"/>
     <text stroke="none" x="447.0" y="319.0" font-size="20.0" font-family="helvetica">S. koreensis JSS267 (AF131296)</text>
    </g>
    <g>
     <circle stroke="black" stroke-width="0.5" fill="#aaffff" cx="447.0" cy="357.0" r="1.0"/>
     <text stroke="none" x="447.0" y="357.0" font-size="20.0" font-family="helvetica">S. hankookensis ODN 77 (FJ194436)</text>
    </g>
    <g>
     <circle stroke="black" stroke-width="0.5" fill="#aaffff" cx="449.0" cy="52.0" r="1.0"/>
     <text stroke="none" x="449.0" y="52.0" font-size="20.0" font-family="helvetica">s. pruni IFO 154987 (Y09637)</text>
    </g>
    <g>
     <circle stroke="black" stroke-width="0.5" fill="#aaffff" cx="449.0" cy="396.0" r="1.0"/>
     <text stroke="none" x="449.0" y="396.0" font-size="20.0" font-family="helvetica">S. panni C527 (AJ57581 8)</text>
    </g>
    <g>
     <circle stroke="black" stroke-width="0.5" fill="#aaffff" cx="452.0" cy="1094.0" r="1.0"/>
     <text stroke="none" x="452.0" y="1094.0" font-size="20.0" font-family="helvetica">52</text>
    </g>
    <g>
     <circle stroke="black" stroke-width="0.5" fill="#aaffff" cx="453.0" cy="855.0" r="1.0"/>
     <text stroke="none" x="453.0" y="855.0" font-size="20.0" font-family="helvetica">S. yunnanensis YIM 0037 (AY894691)</text>
    </g>
    <g>
     <circle stroke="black" stroke-width="0.5" fill="#aaffff" cx="461.0" cy="1046.0" r="1.0"/>
     <text stroke="none" x="461.0" y="1046.0" font-size="20.0" font-family="helvetica">S. pseudosanguinis G1 -27 (AM41 2238)</text>
    </g>
    <g>
     <circle stroke="black" stroke-width="0.5" fill="#aaffff" cx="464.0" cy="434.0" r="1.0"/>
     <text stroke="none" x="464.0" y="434.0" font-size="20.0" font-family="helvetica">S. molluscorum KMM 38827 (AB248285)</text>
    </g>
    <g>
     <circle stroke="black" stroke-width="0.5" fill="#aaffff" cx="465.0" cy="205.0" r="1.0"/>
     <text stroke="none" x="465.0" y="205.0" font-size="20.0" font-family="helvetica">S. insulae DS-287 (EF363714)</text>
    </g>
    <g>
     <circle stroke="black" stroke-width="0.5" fill="#aaffff" cx="466.0" cy="128.0" r="1.0"/>
     <text stroke="none" x="466.0" y="128.0" font-size="20.0" font-family="helvetica">S. migophenolica S2137(ABO18439)</text>
    </g>
    <g>
     <circle stroke="black" stroke-width="0.5" fill="#aaffff" cx="466.0" cy="1462.0" r="1.0"/>
     <text stroke="none" x="466.0" y="1462.0" font-size="20.0" font-family="helvetica">99</text>
    </g>
    <g>
     <circle stroke="black" stroke-width="0.5" fill="#aaffff" cx="467.0" cy="1658.0" r="1.0"/>
     <text stroke="none" x="467.0" y="1658.0" font-size="20.0" font-family="helvetica">S. kaistensis PB567 (AY769083)</text>
    </g>
    <g>
     <circle stroke="black" stroke-width="0.5" fill="#aaffff" cx="467.0" cy="1256.0" r="1.0"/>
     <text stroke="none" x="467.0" y="1256.0" font-size="20.0" font-family="helvetica">99</text>
    </g>
    <g>
     <circle stroke="black" stroke-width="0.5" fill="#aaffff" cx="468.0" cy="989.0" r="1.0"/>
     <text stroke="none" x="468.0" y="989.0" font-size="20.0" font-family="helvetica">95</text>
    </g>
    <g>
     <circle stroke="black" stroke-width="0.5" fill="#aaffff" cx="470.0" cy="625.0" r="1.0"/>
     <text stroke="none" x="470.0" y="625.0" font-size="20.0" font-family="helvetica"/>
    </g>
    <g>
     <circle stroke="black" stroke-width="0.5" fill="#aaffff" cx="473.0" cy="1236.0" r="1.0"/>
     <text stroke="none" x="473.0" y="1236.0" font-size="20.0" font-family="helvetica">S. trueperi LMG 21 427 (X97776)</text>
    </g>
    <g>
     <circle stroke="black" stroke-width="0.5" fill="#aaffff" cx="476.0" cy="1276.0" r="1.0"/>
     <text stroke="none" x="476.0" y="1276.0" font-size="20.0" font-family="helvetica">S. azotifigens NBRC 154977 (AB21 7471)</text>
    </g>
    <g>
     <circle stroke="black" stroke-width="0.5" fill="#aaffff" cx="477.0" cy="1083.0" r="1.0"/>
     <text stroke="none" x="477.0" y="1083.0" font-size="20.0" font-family="helvetica">S. sanguinis IFO 139377 (D13726)</text>
    </g>
    <g>
     <circle stroke="black" stroke-width="0.5" fill="#aaffff" cx="481.0" cy="893.0" r="1.0"/>
     <text stroke="none" x="481.0" y="893.0" font-size="20.0" font-family="helvetica">S. phyllosphaerae FA27 (AY453855)</text>
    </g>
    <g>
     <circle stroke="black" stroke-width="0.5" fill="#aaffff" cx="482.0" cy="969.0" r="1.0"/>
     <text stroke="none" x="482.0" y="969.0" font-size="20.0" font-family="helvetica">S. yabuuchiae GTC 8687 (AB071 955)</text>
    </g>
    <g>
     <circle stroke="black" stroke-width="0.5" fill="#aaffff" cx="482.0" cy="1314.0" r="1.0"/>
     <text stroke="none" x="482.0" y="1314.0" font-size="20.0" font-family="helvetica">S. sanxanigenens NXO27 (DQ7891 72)</text>
    </g>
    <g>
     <circle stroke="black" stroke-width="0.5" fill="#aaffff" cx="489.0" cy="1696.0" r="1.0"/>
     <text stroke="none" x="489.0" y="1696.0" font-size="20.0" font-family="helvetica">S. astaxanthinifaciens TDMA-177 (AB277583)</text>
    </g>
    <g>
     <circle stroke="black" stroke-width="0.5" fill="#aaffff" cx="492.0" cy="1123.0" r="1.0"/>
     <text stroke="none" x="492.0" y="1123.0" font-size="20.0" font-family="helvetica">S. parapaucimobilfs NBRC 151007 (D1 3724)</text>
    </g>
    <g>
     <circle stroke="black" stroke-width="0.5" fill="#aaffff" cx="494.0" cy="1495.0" r="1.0"/>
     <text stroke="none" x="494.0" y="1495.0" font-size="20.0" font-family="helvetica">72</text>
    </g>
    <g>
     <circle stroke="black" stroke-width="0.5" fill="#aaffff" cx="497.0" cy="1620.0" r="1.0"/>
     <text stroke="none" x="497.0" y="1620.0" font-size="20.0" font-family="helvetica">S.jaspsI'TDMA-167 (AB264131)</text>
    </g>
    <g>
     <circle stroke="black" stroke-width="0.5" fill="#aaffff" cx="501.0" cy="1161.0" r="1.0"/>
     <text stroke="none" x="501.0" y="1161.0" font-size="20.0" font-family="helvetica">S. japonica KC77 (AB428568)</text>
    </g>
    <g>
     <circle stroke="black" stroke-width="0.5" fill="#aaffff" cx="502.0" cy="587.0" r="1.0"/>
     <text stroke="none" x="502.0" y="587.0" font-size="20.0" font-family="helvetica">S. abaciC427(AJ575817)</text>
    </g>
    <g>
     <circle stroke="black" stroke-width="0.5" fill="#aaffff" cx="505.0" cy="243.0" r="1.0"/>
     <text stroke="none" x="505.0" y="243.0" font-size="20.0" font-family="helvetica">S. SON T5-O47 (AB166883)</text>
    </g>
    <g>
     <circle stroke="black" stroke-width="0.5" fill="#aaffff" cx="509.0" cy="281.0" r="1.0"/>
     <text stroke="none" x="509.0" y="281.0" font-size="20.0" font-family="helvetica">s. aesruani K47 (EF660755)</text>
    </g>
    <g>
     <circle stroke="black" stroke-width="0.5" fill="#aaffff" cx="512.0" cy="740.0" r="1.0"/>
     <text stroke="none" x="512.0" y="740.0" font-size="20.0" font-family="helvetica">S. faeni MA-olki7 (AJ429239)</text>
    </g>
    <g>
     <circle stroke="black" stroke-width="0.5" fill="#aaffff" cx="516.0" cy="931.0" r="1.0"/>
     <text stroke="none" x="516.0" y="931.0" font-size="20.0" font-family="helvetica">S. paucimobilis ATCC 298377 (U37337)</text>
    </g>
    <g>
     <circle stroke="black" stroke-width="0.5" fill="#aaffff" cx="518.0" cy="788.0" r="1.0"/>
     <text stroke="none" x="518.0" y="788.0" font-size="20.0" font-family="helvetica">95</text>
    </g>
    <g>
     <circle stroke="black" stroke-width="0.5" fill="#aaffff" cx="528.0" cy="817.0" r="1.0"/>
     <text stroke="none" x="528.0" y="817.0" font-size="20.0" font-family="helvetica">S. aurantiaca MA1O1b7 (AJ429236)</text>
    </g>
    <g>
     <circle stroke="black" stroke-width="0.5" fill="#aaffff" cx="528.0" cy="1008.0" r="1.0"/>
     <text stroke="none" x="528.0" y="1008.0" font-size="20.0" font-family="helvetica">S. rosefflava MK3417 (D84520)</text>
    </g>
    <g>
     <circle stroke="black" stroke-width="0.5" fill="#aaffff" cx="534.0" cy="703.0" r="1.0"/>
     <text stroke="none" x="534.0" y="703.0" font-size="20.0" font-family="helvetica">S. xinjiangensis 10-1-847 (FJ754464)</text>
    </g>
    <g>
     <circle stroke="black" stroke-width="0.5" fill="#aaffff" cx="547.0" cy="165.0" r="1.0"/>
     <text stroke="none" x="547.0" y="165.0" font-size="20.0" font-family="helvetica">S. echinoldes DSM 18057 (AJO1 2461)</text>
    </g>
    <g>
     <circle stroke="black" stroke-width="0.5" fill="#aaffff" cx="547.0" cy="777.0" r="1.0"/>
     <text stroke="none" x="547.0" y="777.0" font-size="20.0" font-family="helvetica">S. aerolata NW127(AJ429240)</text>
    </g>
    <g>
     <circle stroke="black" stroke-width="0.5" fill="#aaffff" cx="567.0" cy="1524.0" r="1.0"/>
     <text stroke="none" x="567.0" y="1524.0" font-size="20.0" font-family="helvetica">100</text>
    </g>
    <g>
     <circle stroke="black" stroke-width="0.5" fill="#aaffff" cx="580.0" cy="1505.0" r="1.0"/>
     <text stroke="none" x="580.0" y="1505.0" font-size="20.0" font-family="helvetica"/>
    </g>
    <g>
     <circle stroke="black" stroke-width="0.5" fill="#aaffff" cx="588.0" cy="1543.0" r="1.0"/>
     <text stroke="none" x="588.0" y="1543.0" font-size="20.0" font-family="helvetica">s. witrichii DSM 60147 (AB021 492)</text>
    </g>
    <g>
     <circle stroke="black" stroke-width="0.5" fill="#aaffff" cx="598.0" cy="1352.0" r="1.0"/>
     <text stroke="none" x="598.0" y="1352.0" font-size="20.0" font-family="helvetica">S. suberifaciens IFO 152117(D13737)</text>
    </g>
    <g>
     <circle stroke="black" stroke-width="0.5" fill="#aaffff" cx="612.0" cy="1467.0" r="1.0"/>
     <text stroke="none" x="612.0" y="1467.0" font-size="20.0" font-family="helvetica">S. haloaromaticamans A1 757 (X941 01)</text>
    </g>
    <g>
     <circle stroke="black" stroke-width="0.5" fill="#aaffff" cx="619.0" cy="1428.0" r="1.0"/>
     <text stroke="none" x="619.0" y="1428.0" font-size="20.0" font-family="helvetica"/>
    </g>
    <g>
     <circle stroke="black" stroke-width="0.5" fill="#aaffff" cx="696.0" cy="1759.0" r="1.0"/>
     <text stroke="none" x="696.0" y="1759.0" font-size="20.0" font-family="helvetica"/>
    </g>
    <g>
     <circle stroke="black" stroke-width="0.5" fill="#aaffff" cx="697.0" cy="1390.0" r="1.0"/>
     <text stroke="none" x="697.0" y="1390.0" font-size="20.0" font-family="helvetica">S. adhaesiva IFO 150997 (D13722)</text>
    </g>
    <line stroke="black" x1="444.0" y1="90.0" x2="414.0" y2="61.0" stroke-width="0.5"/>
    <line stroke="black" x1="465.0" y1="205.0" x2="373.0" y2="216.0" stroke-width="0.5"/>
    <line stroke="black" x1="547.0" y1="165.0" x2="444.0" y2="147.0" stroke-width="0.5"/>
    <line stroke="black" x1="447.0" y1="319.0" x2="359.0" y2="264.0" stroke-width="0.5"/>
    <line stroke="black" x1="447.0" y1="357.0" x2="421.0" y2="377.0" stroke-width="0.5"/>
    <line stroke="black" x1="464.0" y1="434.0" x2="396.0" y2="444.0" stroke-width="0.5"/>
    <line stroke="black" x1="437.0" y1="510.0" x2="435.0" y2="530.0" stroke-width="0.5"/>
    <line stroke="black" x1="440.0" y1="664.0" x2="410.0" y2="635.0" stroke-width="0.5"/>
    <line stroke="black" x1="470.0" y1="625.0" x2="410.0" y2="635.0" stroke-width="0.5"/>
    <line stroke="black" x1="534.0" y1="703.0" x2="380.0" y2="735.0" stroke-width="0.5"/>
    <line stroke="black" x1="512.0" y1="740.0" x2="441.0" y2="768.0" stroke-width="0.5"/>
    <line stroke="black" x1="528.0" y1="817.0" x2="518.0" y2="788.0" stroke-width="0.5"/>
    <line stroke="black" x1="547.0" y1="777.0" x2="518.0" y2="788.0" stroke-width="0.5"/>
    <line stroke="black" x1="461.0" y1="1046.0" x2="440.0" y2="1047.0" stroke-width="0.5"/>
    <line stroke="black" x1="482.0" y1="969.0" x2="468.0" y2="989.0" stroke-width="0.5"/>
    <line stroke="black" x1="477.0" y1="1083.0" x2="452.0" y2="1094.0" stroke-width="0.5"/>
    <line stroke="black" x1="492.0" y1="1123.0" x2="452.0" y2="1094.0" stroke-width="0.5"/>
    <line stroke="black" x1="476.0" y1="1276.0" x2="467.0" y2="1256.0" stroke-width="0.5"/>
    <line stroke="black" x1="619.0" y1="1428.0" x2="466.0" y2="1462.0" stroke-width="0.5"/>
    <line stroke="black" x1="588.0" y1="1543.0" x2="567.0" y2="1524.0" stroke-width="0.5"/>
    <line stroke="black" x1="612.0" y1="1467.0" x2="494.0" y2="1495.0" stroke-width="0.5"/>
    <line stroke="black" x1="697.0" y1="1390.0" x2="432.0" y2="1372.0" stroke-width="0.5"/>
    <line stroke="black" x1="489.0" y1="1696.0" x2="415.0" y2="1677.0" stroke-width="0.5"/>
    <line stroke="black" x1="434.0" y1="13.0" x2="425.0" y2="33.0" stroke-width="0.5"/>
    <line stroke="black" x1="425.0" y1="33.0" x2="414.0" y2="61.0" stroke-width="0.5"/>
    <line stroke="black" x1="386.0" y1="104.0" x2="444.0" y2="147.0" stroke-width="0.5"/>
    <line stroke="black" x1="386.0" y1="104.0" x2="373.0" y2="216.0" stroke-width="0.5"/>
    <line stroke="black" x1="373.0" y1="216.0" x2="505.0" y2="243.0" stroke-width="0.5"/>
    <line stroke="black" x1="359.0" y1="264.0" x2="341.0" y2="340.0" stroke-width="0.5"/>
    <line stroke="black" x1="341.0" y1="340.0" x2="337.0" y2="482.0" stroke-width="0.5"/>
    <line stroke="black" x1="355.0" y1="415.0" x2="396.0" y2="444.0" stroke-width="0.5"/>
    <line stroke="black" x1="355.0" y1="415.0" x2="421.0" y2="377.0" stroke-width="0.5"/>
    <line stroke="black" x1="337.0" y1="482.0" x2="329.0" y2="827.0" stroke-width="0.5"/>
    <line stroke="black" x1="337.0" y1="482.0" x2="346.0" y2="624.0" stroke-width="0.5"/>
    <line stroke="black" x1="346.0" y1="624.0" x2="353.0" y2="689.0" stroke-width="0.5"/>
    <line stroke="black" x1="346.0" y1="624.0" x2="371.0" y2="559.0" stroke-width="0.5"/>
    <line stroke="black" x1="353.0" y1="689.0" x2="410.0" y2="635.0" stroke-width="0.5"/>
    <line stroke="black" x1="353.0" y1="689.0" x2="380.0" y2="735.0" stroke-width="0.5"/>
    <line stroke="black" x1="371.0" y1="559.0" x2="435.0" y2="530.0" stroke-width="0.5"/>
    <line stroke="black" x1="329.0" y1="827.0" x2="292.0" y2="1051.0" stroke-width="0.5"/>
    <line stroke="black" x1="329.0" y1="827.0" x2="426.0" y2="981.0" stroke-width="0.5"/>
    <line stroke="black" x1="380.0" y1="735.0" x2="441.0" y2="768.0" stroke-width="0.5"/>
    <line stroke="black" x1="441.0" y1="768.0" x2="518.0" y2="788.0" stroke-width="0.5"/>
    <line stroke="black" x1="292.0" y1="1051.0" x2="338.0" y2="1194.0" stroke-width="0.5"/>
    <line stroke="black" x1="292.0" y1="1051.0" x2="328.0" y2="1365.0" stroke-width="0.5"/>
    <line stroke="black" x1="292.0" y1="1051.0" x2="269.0" y2="1386.0" stroke-width="0.5"/>
    <line stroke="black" x1="411.0" y1="874.0" x2="453.0" y2="855.0" stroke-width="0.5"/>
    <line stroke="black" x1="426.0" y1="981.0" x2="433.0" y2="1031.0" stroke-width="0.5"/>
    <line stroke="black" x1="433.0" y1="1031.0" x2="468.0" y2="989.0" stroke-width="0.5"/>
    <line stroke="black" x1="433.0" y1="1031.0" x2="440.0" y2="1047.0" stroke-width="0.5"/>
    <line stroke="black" x1="440.0" y1="1047.0" x2="452.0" y2="1094.0" stroke-width="0.5"/>
    <line stroke="black" x1="338.0" y1="1194.0" x2="390.0" y2="1227.0" stroke-width="0.5"/>
    <line stroke="black" x1="338.0" y1="1194.0" x2="501.0" y2="1161.0" stroke-width="0.5"/>
    <line stroke="black" x1="390.0" y1="1227.0" x2="467.0" y2="1256.0" stroke-width="0.5"/>
    <line stroke="black" x1="328.0" y1="1365.0" x2="372.0" y2="1416.0" stroke-width="0.5"/>
    <line stroke="black" x1="328.0" y1="1365.0" x2="482.0" y2="1314.0" stroke-width="0.5"/>
    <line stroke="black" x1="372.0" y1="1416.0" x2="466.0" y2="1462.0" stroke-width="0.5"/>
    <line stroke="black" x1="372.0" y1="1416.0" x2="432.0" y2="1372.0" stroke-width="0.5"/>
    <line stroke="black" x1="466.0" y1="1462.0" x2="494.0" y2="1495.0" stroke-width="0.5"/>
    <line stroke="black" x1="287.0" y1="1615.0" x2="374.0" y2="1648.0" stroke-width="0.5"/>
    <line stroke="black" x1="494.0" y1="1495.0" x2="567.0" y2="1524.0" stroke-width="0.5"/>
    <line stroke="black" x1="374.0" y1="1648.0" x2="415.0" y2="1677.0" stroke-width="0.5"/>
    <line stroke="black" x1="696.0" y1="1759.0" x2="269.0" y2="1386.0" stroke-width="0.5"/>
    <line stroke="black" x1="269.0" y1="1386.0" x2="287.0" y2="1615.0" stroke-width="0.5"/>
    <line stroke="black" x1="341.0" y1="340.0" x2="355.0" y2="415.0" stroke-width="0.5"/>
    <line stroke="black" x1="329.0" y1="827.0" x2="411.0" y2="874.0" stroke-width="0.5"/>
    <line stroke="black" x1="373.0" y1="216.0" x2="359.0" y2="264.0" stroke-width="0.5"/>
    <line stroke="black" x1="497.0" y1="1620.0" x2="374.0" y2="1648.0" stroke-width="0.5"/>
    <line stroke="black" x1="414.0" y1="61.0" x2="386.0" y2="104.0" stroke-width="0.5"/>
    <line stroke="black" x1="502.0" y1="587.0" x2="371.0" y2="559.0" stroke-width="0.5"/>
    <line stroke="black" x1="373.0" y1="216.0" x2="509.0" y2="281.0" stroke-width="0.5"/>
    <line stroke="black" x1="411.0" y1="1581.0" x2="287.0" y2="1615.0" stroke-width="0.5"/>
    <line stroke="black" x1="481.0" y1="893.0" x2="411.0" y2="874.0" stroke-width="0.5"/>
    <line stroke="black" x1="467.0" y1="1658.0" x2="415.0" y2="1677.0" stroke-width="0.5"/>
    <line stroke="black" x1="425.0" y1="473.0" x2="396.0" y2="444.0" stroke-width="0.5"/>
    <line stroke="black" x1="449.0" y1="396.0" x2="421.0" y2="377.0" stroke-width="0.5"/>
    <line stroke="black" x1="516.0" y1="931.0" x2="426.0" y2="981.0" stroke-width="0.5"/>
    <line stroke="black" x1="449.0" y1="52.0" x2="425.0" y2="33.0" stroke-width="0.5"/>
    <line stroke="black" x1="441.0" y1="549.0" x2="435.0" y2="530.0" stroke-width="0.5"/>
    <line stroke="black" x1="444.0" y1="1199.0" x2="390.0" y2="1227.0" stroke-width="0.5"/>
    <line stroke="black" x1="466.0" y1="128.0" x2="444.0" y2="147.0" stroke-width="0.5"/>
    <line stroke="black" x1="528.0" y1="1008.0" x2="468.0" y2="989.0" stroke-width="0.5"/>
    <line stroke="black" x1="473.0" y1="1236.0" x2="467.0" y2="1256.0" stroke-width="0.5"/>
    <line stroke="black" x1="598.0" y1="1352.0" x2="432.0" y2="1372.0" stroke-width="0.5"/>
    <line stroke="black" x1="580.0" y1="1505.0" x2="567.0" y2="1524.0" stroke-width="0.5"/>
   </g>
  </g>
 </svg>
</svg>
