<?xml version="1.0" encoding="UTF-8"?>
<svg height="800.0" width="700.0" xmlns="http://www.w3.org/2000/svg">
 <svg>
  <g>
   <g>
    <g>
     <circle stroke="black" stroke-width="0.5" fill="#aaffff" cx="8.0" cy="476.0" r="1.0"/>
     <text stroke="none" x="8.0" y="476.0" font-size="20.0" font-family="helvetica"/>
    </g>
    <g>
     <circle stroke="black" stroke-width="0.5" fill="#aaffff" cx="9.0" cy="480.0" r="1.0"/>
     <text stroke="none" x="9.0" y="480.0" font-size="10.0" font-family="helvetica">NT1.2</text>
    </g>
    <g>
     <circle stroke="black" stroke-width="0.5" fill="#aaffff" cx="61.0" cy="480.0" r="1.0"/>
     <text stroke="none" x="61.0" y="480.0" font-size="10.0" font-family="helvetica">NT1.3</text>
    </g>
    <g>
     <circle stroke="black" stroke-width="0.5" fill="#aaffff" cx="97.0" cy="687.0" r="1.0"/>
     <text stroke="none" x="97.0" y="687.0" font-size="10.0" font-family="helvetica">NT1.4</text>
    </g>
    <g>
     <circle stroke="black" stroke-width="0.5" fill="#aaffff" cx="200.0" cy="247.0" r="1.0"/>
     <text stroke="none" x="200.0" y="247.0" font-size="10.0" font-family="helvetica">NT1.5</text>
    </g>
    <g>
     <circle stroke="black" stroke-width="0.5" fill="#aaffff" cx="207.0" cy="194.0" r="1.0"/>
     <text stroke="none" x="207.0" y="194.0" font-size="10.0" font-family="helvetica">NT1.6</text>
    </g>
    <g>
     <circle stroke="black" stroke-width="0.5" fill="#aaffff" cx="213.0" cy="727.0" r="1.0"/>
     <text stroke="none" x="213.0" y="727.0" font-size="10.0" font-family="helvetica">NT1.7</text>
    </g>
    <g>
     <circle stroke="black" stroke-width="0.5" fill="#aaffff" cx="230.0" cy="765.0" r="1.0"/>
     <text stroke="none" x="230.0" y="765.0" font-size="10.0" font-family="helvetica">NT1.8</text>
    </g>
    <g>
     <circle stroke="black" stroke-width="0.5" fill="#aaffff" cx="245.0" cy="726.0" r="1.0"/>
     <text stroke="none" x="245.0" y="726.0" font-size="20.0" font-family="helvetica">S. sampsonii KCCM 403657 (D63871)</text>
    </g>
    <g>
     <circle stroke="black" stroke-width="0.5" fill="#aaffff" cx="246.0" cy="272.0" r="1.0"/>
     <text stroke="none" x="246.0" y="272.0" font-size="10.0" font-family="helvetica">NT1.10</text>
    </g>
    <g>
     <circle stroke="black" stroke-width="0.5" fill="#aaffff" cx="247.0" cy="1084.0" r="1.0"/>
     <text stroke="none" x="247.0" y="1084.0" font-size="20.0" font-family="helvetica">S. griseochromogenes ISP 54997 (AJ399491)</text>
    </g>
    <g>
     <circle stroke="black" stroke-width="0.5" fill="#aaffff" cx="247.0" cy="442.0" r="1.0"/>
     <text stroke="none" x="247.0" y="442.0" font-size="10.0" font-family="helvetica">NT1.12</text>
    </g>
    <g>
     <circle stroke="black" stroke-width="0.5" fill="#aaffff" cx="256.0" cy="687.0" r="1.0"/>
     <text stroke="none" x="256.0" y="687.0" font-size="10.0" font-family="helvetica">NT1.13</text>
    </g>
    <g>
     <circle stroke="black" stroke-width="0.5" fill="#aaffff" cx="264.0" cy="1122.0" r="1.0"/>
     <text stroke="none" x="264.0" y="1122.0" font-size="20.0" font-family="helvetica">S. coeruleofuscus ISP 51447 (AJ399473)</text>
    </g>
    <g>
     <circle stroke="black" stroke-width="0.5" fill="#aaffff" cx="277.0" cy="106.0" r="1.0"/>
     <text stroke="none" x="277.0" y="106.0" font-size="10.0" font-family="helvetica">NT1.15</text>
    </g>
    <g>
     <circle stroke="black" stroke-width="0.5" fill="#aaffff" cx="292.0" cy="648.0" r="1.0"/>
     <text stroke="none" x="292.0" y="648.0" font-size="10.0" font-family="helvetica">NT1.16</text>
    </g>
    <g>
     <circle stroke="black" stroke-width="0.5" fill="#aaffff" cx="297.0" cy="520.0" r="1.0"/>
     <text stroke="none" x="297.0" y="520.0" font-size="10.0" font-family="helvetica">NT1.17</text>
    </g>
    <g>
     <circle stroke="black" stroke-width="0.5" fill="#aaffff" cx="323.0" cy="367.0" r="1.0"/>
     <text stroke="none" x="323.0" y="367.0" font-size="10.0" font-family="helvetica">NT1.18</text>
    </g>
    <g>
     <circle stroke="black" stroke-width="0.5" fill="#aaffff" cx="324.0" cy="36.0" r="1.0"/>
     <text stroke="none" x="324.0" y="36.0" font-size="20.0" font-family="helvetica">56</text>
    </g>
    <g>
     <circle stroke="black" stroke-width="0.5" fill="#aaffff" cx="326.0" cy="151.0" r="1.0"/>
     <text stroke="none" x="326.0" y="151.0" font-size="10.0" font-family="helvetica">NT1.20</text>
    </g>
    <g>
     <circle stroke="black" stroke-width="0.5" fill="#aaffff" cx="343.0" cy="542.0" r="1.0"/>
     <text stroke="none" x="343.0" y="542.0" font-size="10.0" font-family="helvetica">NT1.21</text>
    </g>
    <g>
     <circle stroke="black" stroke-width="0.5" fill="#aaffff" cx="351.0" cy="390.0" r="1.0"/>
     <text stroke="none" x="351.0" y="390.0" font-size="10.0" font-family="helvetica">NT1.22</text>
    </g>
    <g>
     <circle stroke="black" stroke-width="0.5" fill="#aaffff" cx="362.0" cy="332.0" r="1.0"/>
     <text stroke="none" x="362.0" y="332.0" font-size="20.0" font-family="helvetica">S. purpurascens DSM 403107 (AB045888)</text>
    </g>
    <g>
     <circle stroke="black" stroke-width="0.5" fill="#aaffff" cx="363.0" cy="491.0" r="1.0"/>
     <text stroke="none" x="363.0" y="491.0" font-size="10.0" font-family="helvetica">NT1.24</text>
    </g>
    <g>
     <circle stroke="black" stroke-width="0.5" fill="#aaffff" cx="366.0" cy="184.0" r="1.0"/>
     <text stroke="none" x="366.0" y="184.0" font-size="10.0" font-family="helvetica">NT1.25</text>
    </g>
    <g>
     <circle stroke="black" stroke-width="0.5" fill="#aaffff" cx="375.0" cy="431.0" r="1.0"/>
     <text stroke="none" x="375.0" y="431.0" font-size="20.0" font-family="helvetica">84</text>
    </g>
    <g>
     <circle stroke="black" stroke-width="0.5" fill="#aaffff" cx="376.0" cy="411.0" r="1.0"/>
     <text stroke="none" x="376.0" y="411.0" font-size="20.0" font-family="helvetica">S. violatus ISP 5209 (AJ399480)</text>
    </g>
    <g>
     <circle stroke="black" stroke-width="0.5" fill="#aaffff" cx="376.0" cy="452.0" r="1.0"/>
     <text stroke="none" x="376.0" y="452.0" font-size="20.0" font-family="helvetica">S. roseoviolaceus ISP 5277 (AJ3994B4)</text>
    </g>
    <g>
     <circle stroke="black" stroke-width="0.5" fill="#aaffff" cx="382.0" cy="95.0" r="1.0"/>
     <text stroke="none" x="382.0" y="95.0" font-size="20.0" font-family="helvetica">S. coerulescens ISP 51467 (AJ399462)</text>
    </g>
    <g>
     <circle stroke="black" stroke-width="0.5" fill="#aaffff" cx="394.0" cy="569.0" r="1.0"/>
     <text stroke="none" x="394.0" y="569.0" font-size="20.0" font-family="helvetica">S. hawaiiensis ISP 50427 (AJ399466)</text>
    </g>
    <g>
     <circle stroke="black" stroke-width="0.5" fill="#aaffff" cx="407.0" cy="608.0" r="1.0"/>
     <text stroke="none" x="407.0" y="608.0" font-size="20.0" font-family="helvetica">S. violarus ISP 5205 (AJ399477)</text>
    </g>
    <g>
     <circle stroke="black" stroke-width="0.5" fill="#aaffff" cx="427.0" cy="212.0" r="1.0"/>
     <text stroke="none" x="427.0" y="212.0" font-size="20.0" font-family="helvetica">S. bellus ISP 51857 (AJ399476)</text>
    </g>
    <g>
     <circle stroke="black" stroke-width="0.5" fill="#aaffff" cx="436.0" cy="371.0" r="1.0"/>
     <text stroke="none" x="436.0" y="371.0" font-size="20.0" font-family="helvetica">S. janthinus ISP 52067 (AJ399478)</text>
    </g>
    <g>
     <circle stroke="black" stroke-width="0.5" fill="#aaffff" cx="514.0" cy="134.0" r="1.0"/>
     <text stroke="none" x="514.0" y="134.0" font-size="20.0" font-family="helvetica">S. iakyrus ISP 54827 (AJ399489)</text>
    </g>
    <g>
     <circle stroke="black" stroke-width="0.5" fill="#aaffff" cx="530.0" cy="173.0" r="1.0"/>
     <text stroke="none" x="530.0" y="173.0" font-size="20.0" font-family="helvetica">S. coeruleorubidus ISP 51457 (AJ306622)</text>
    </g>
    <g>
     <circle stroke="black" stroke-width="0.5" fill="#aaffff" cx="593.0" cy="529.0" r="1.0"/>
     <text stroke="none" x="593.0" y="529.0" font-size="20.0" font-family="helvetica">S. afghaniensis ISP 52287 (AJ399483)</text>
    </g>
    <g>
     <circle stroke="black" stroke-width="0.5" fill="#aaffff" cx="631.0" cy="291.0" r="1.0"/>
     <text stroke="none" x="631.0" y="291.0" font-size="20.0" font-family="helvetica">S. fumanus ISP 51547 (AJ399463)</text>
    </g>
    <g>
     <circle stroke="black" stroke-width="0.5" fill="#aaffff" cx="634.0" cy="56.0" r="1.0"/>
     <text stroke="none" x="634.0" y="56.0" font-size="20.0" font-family="helvetica">S. thermocarboxydus DSM 442937 (U94490)</text>
    </g>
    <g>
     <circle stroke="black" stroke-width="0.5" fill="#aaffff" cx="676.0" cy="251.0" r="1.0"/>
     <text stroke="none" x="676.0" y="251.0" font-size="10.0" font-family="helvetica">NT1.39</text>
    </g>
    <g>
     <circle stroke="black" stroke-width="0.5" fill="#aaffff" cx="725.0" cy="17.0" r="1.0"/>
     <text stroke="none" x="725.0" y="17.0" font-size="20.0" font-family="helvetica">S. glaucescens DSM 40716 (X79322)</text>
    </g>
    <line stroke="black" x1="382.0" y1="95.0" x2="326.0" y2="151.0" stroke-width="0.5"/>
    <line stroke="black" x1="634.0" y1="56.0" x2="324.0" y2="36.0" stroke-width="0.5"/>
    <line stroke="black" x1="427.0" y1="212.0" x2="366.0" y2="184.0" stroke-width="0.5"/>
    <line stroke="black" x1="725.0" y1="17.0" x2="324.0" y2="36.0" stroke-width="0.5"/>
    <line stroke="black" x1="514.0" y1="134.0" x2="326.0" y2="151.0" stroke-width="0.5"/>
    <line stroke="black" x1="530.0" y1="173.0" x2="366.0" y2="184.0" stroke-width="0.5"/>
    <line stroke="black" x1="8.0" y1="476.0" x2="9.0" y2="480.0" stroke-width="0.5"/>
    <line stroke="black" x1="394.0" y1="569.0" x2="343.0" y2="542.0" stroke-width="0.5"/>
    <line stroke="black" x1="376.0" y1="411.0" x2="375.0" y2="431.0" stroke-width="0.5"/>
    <line stroke="black" x1="376.0" y1="452.0" x2="375.0" y2="431.0" stroke-width="0.5"/>
    <line stroke="black" x1="407.0" y1="608.0" x2="97.0" y2="687.0" stroke-width="0.5"/>
    <line stroke="black" x1="245.0" y1="726.0" x2="230.0" y2="765.0" stroke-width="0.5"/>
    <line stroke="black" x1="324.0" y1="36.0" x2="277.0" y2="106.0" stroke-width="0.5"/>
    <line stroke="black" x1="277.0" y1="106.0" x2="207.0" y2="194.0" stroke-width="0.5"/>
    <line stroke="black" x1="277.0" y1="106.0" x2="326.0" y2="151.0" stroke-width="0.5"/>
    <line stroke="black" x1="326.0" y1="151.0" x2="366.0" y2="184.0" stroke-width="0.5"/>
    <line stroke="black" x1="207.0" y1="194.0" x2="200.0" y2="247.0" stroke-width="0.5"/>
    <line stroke="black" x1="200.0" y1="247.0" x2="247.0" y2="442.0" stroke-width="0.5"/>
    <line stroke="black" x1="247.0" y1="442.0" x2="323.0" y2="367.0" stroke-width="0.5"/>
    <line stroke="black" x1="297.0" y1="520.0" x2="343.0" y2="542.0" stroke-width="0.5"/>
    <line stroke="black" x1="61.0" y1="480.0" x2="9.0" y2="480.0" stroke-width="0.5"/>
    <line stroke="black" x1="323.0" y1="367.0" x2="351.0" y2="390.0" stroke-width="0.5"/>
    <line stroke="black" x1="351.0" y1="390.0" x2="375.0" y2="431.0" stroke-width="0.5"/>
    <line stroke="black" x1="213.0" y1="727.0" x2="230.0" y2="765.0" stroke-width="0.5"/>
    <line stroke="black" x1="200.0" y1="247.0" x2="61.0" y2="480.0" stroke-width="0.5"/>
    <line stroke="black" x1="61.0" y1="480.0" x2="97.0" y2="687.0" stroke-width="0.5"/>
    <line stroke="black" x1="264.0" y1="1122.0" x2="9.0" y2="480.0" stroke-width="0.5"/>
    <line stroke="black" x1="247.0" y1="1084.0" x2="230.0" y2="765.0" stroke-width="0.5"/>
    <line stroke="black" x1="362.0" y1="332.0" x2="323.0" y2="367.0" stroke-width="0.5"/>
    <line stroke="black" x1="436.0" y1="371.0" x2="351.0" y2="390.0" stroke-width="0.5"/>
    <line stroke="black" x1="593.0" y1="529.0" x2="343.0" y2="542.0" stroke-width="0.5"/>
    <line stroke="black" x1="631.0" y1="291.0" x2="246.0" y2="272.0" stroke-width="0.5"/>
   </g>
  </g>
 </svg>
</svg>
