<?xml version="1.0" encoding="UTF-8"?>
<svg height="800.0" width="700.0" xmlns="http://www.w3.org/2000/svg">
 <svg>
  <g>
   <g>
    <g>
     <circle stroke="black" stroke-width="0.5" fill="#aaffff" cx="63.0" cy="1165.0" r="1.0"/>
     <text stroke="none" x="63.0" y="1165.0" font-size="10.0" font-family="helvetica">NT1.1</text>
    </g>
    <g>
     <circle stroke="black" stroke-width="0.5" fill="#aaffff" cx="112.0" cy="939.0" r="1.0"/>
     <text stroke="none" x="112.0" y="939.0" font-size="20.0" font-family="helvetica">66</text>
    </g>
    <g>
     <circle stroke="black" stroke-width="0.5" fill="#aaffff" cx="146.0" cy="1284.0" r="1.0"/>
     <text stroke="none" x="146.0" y="1284.0" font-size="10.0" font-family="helvetica">NT1.3</text>
    </g>
    <g>
     <circle stroke="black" stroke-width="0.5" fill="#aaffff" cx="166.0" cy="593.0" r="1.0"/>
     <text stroke="none" x="166.0" y="593.0" font-size="10.0" font-family="helvetica">NT1.4</text>
    </g>
    <g>
     <circle stroke="black" stroke-width="0.5" fill="#aaffff" cx="175.0" cy="1018.0" r="1.0"/>
     <text stroke="none" x="175.0" y="1018.0" font-size="10.0" font-family="helvetica">NT1.5</text>
    </g>
    <g>
     <circle stroke="black" stroke-width="0.5" fill="#aaffff" cx="184.0" cy="1391.0" r="1.0"/>
     <text stroke="none" x="184.0" y="1391.0" font-size="20.0" font-family="helvetica">100</text>
    </g>
    <g>
     <circle stroke="black" stroke-width="0.5" fill="#aaffff" cx="186.0" cy="166.0" r="1.0"/>
     <text stroke="none" x="186.0" y="166.0" font-size="10.0" font-family="helvetica">NT1.7</text>
    </g>
    <g>
     <circle stroke="black" stroke-width="0.5" fill="#aaffff" cx="195.0" cy="270.0" r="1.0"/>
     <text stroke="none" x="195.0" y="270.0" font-size="10.0" font-family="helvetica">NT1.8</text>
    </g>
    <g>
     <circle stroke="black" stroke-width="0.5" fill="#aaffff" cx="200.0" cy="946.0" r="1.0"/>
     <text stroke="none" x="200.0" y="946.0" font-size="10.0" font-family="helvetica">NT1.9</text>
    </g>
    <g>
     <circle stroke="black" stroke-width="0.5" fill="#aaffff" cx="202.0" cy="1109.0" r="1.0"/>
     <text stroke="none" x="202.0" y="1109.0" font-size="20.0" font-family="helvetica">87</text>
    </g>
    <g>
     <circle stroke="black" stroke-width="0.5" fill="#aaffff" cx="217.0" cy="345.0" r="1.0"/>
     <text stroke="none" x="217.0" y="345.0" font-size="10.0" font-family="helvetica">NT1.11</text>
    </g>
    <g>
     <circle stroke="black" stroke-width="0.5" fill="#aaffff" cx="218.0" cy="859.0" r="1.0"/>
     <text stroke="none" x="218.0" y="859.0" font-size="10.0" font-family="helvetica">NT1.12</text>
    </g>
    <g>
     <circle stroke="black" stroke-width="0.5" fill="#aaffff" cx="229.0" cy="774.0" r="1.0"/>
     <text stroke="none" x="229.0" y="774.0" font-size="10.0" font-family="helvetica">NT1.13</text>
    </g>
    <g>
     <circle stroke="black" stroke-width="0.5" fill="#aaffff" cx="235.0" cy="60.0" r="1.0"/>
     <text stroke="none" x="235.0" y="60.0" font-size="10.0" font-family="helvetica">NT1.14</text>
    </g>
    <g>
     <circle stroke="black" stroke-width="0.5" fill="#aaffff" cx="253.0" cy="427.0" r="1.0"/>
     <text stroke="none" x="253.0" y="427.0" font-size="10.0" font-family="helvetica">NT1.15</text>
    </g>
    <g>
     <circle stroke="black" stroke-width="0.5" fill="#aaffff" cx="267.0" cy="1250.0" r="1.0"/>
     <text stroke="none" x="267.0" y="1250.0" font-size="20.0" font-family="helvetica">100</text>
    </g>
    <g>
     <circle stroke="black" stroke-width="0.5" fill="#aaffff" cx="268.0" cy="998.0" r="1.0"/>
     <text stroke="none" x="268.0" y="998.0" font-size="20.0" font-family="helvetica">98</text>
    </g>
    <g>
     <circle stroke="black" stroke-width="0.5" fill="#aaffff" cx="272.0" cy="198.0" r="1.0"/>
     <text stroke="none" x="272.0" y="198.0" font-size="10.0" font-family="helvetica">NT1.18</text>
    </g>
    <g>
     <circle stroke="black" stroke-width="0.5" fill="#aaffff" cx="275.0" cy="1231.0" r="1.0"/>
     <text stroke="none" x="275.0" y="1231.0" font-size="20.0" font-family="helvetica">Kocuria rosea ATCC 1867 (X87756)</text>
    </g>
    <g>
     <circle stroke="black" stroke-width="0.5" fill="#aaffff" cx="275.0" cy="863.0" r="1.0"/>
     <text stroke="none" x="275.0" y="863.0" font-size="10.0" font-family="helvetica">NT1.20</text>
    </g>
    <g>
     <circle stroke="black" stroke-width="0.5" fill="#aaffff" cx="280.0" cy="1410.0" r="1.0"/>
     <text stroke="none" x="280.0" y="1410.0" font-size="10.0" font-family="helvetica">NT1.21</text>
    </g>
    <g>
     <circle stroke="black" stroke-width="0.5" fill="#aaffff" cx="284.0" cy="167.0" r="1.0"/>
     <text stroke="none" x="284.0" y="167.0" font-size="20.0" font-family="helvetica">52</text>
    </g>
    <g>
     <circle stroke="black" stroke-width="0.5" fill="#aaffff" cx="285.0" cy="501.0" r="1.0"/>
     <text stroke="none" x="285.0" y="501.0" font-size="10.0" font-family="helvetica">NT1.23</text>
    </g>
    <g>
     <circle stroke="black" stroke-width="0.5" fill="#aaffff" cx="292.0" cy="1267.0" r="1.0"/>
     <text stroke="none" x="292.0" y="1267.0" font-size="20.0" font-family="helvetica">Kocuria polaris CMS 76or7 (AJ278868)</text>
    </g>
    <g>
     <circle stroke="black" stroke-width="0.5" fill="#aaffff" cx="292.0" cy="462.0" r="1.0"/>
     <text stroke="none" x="292.0" y="462.0" font-size="10.0" font-family="helvetica">NT1.25</text>
    </g>
    <g>
     <circle stroke="black" stroke-width="0.5" fill="#aaffff" cx="302.0" cy="541.0" r="1.0"/>
     <text stroke="none" x="302.0" y="541.0" font-size="10.0" font-family="helvetica">NT1.26</text>
    </g>
    <g>
     <circle stroke="black" stroke-width="0.5" fill="#aaffff" cx="304.0" cy="684.0" r="1.0"/>
     <text stroke="none" x="304.0" y="684.0" font-size="10.0" font-family="helvetica">NT1.27</text>
    </g>
    <g>
     <circle stroke="black" stroke-width="0.5" fill="#aaffff" cx="307.0" cy="1150.0" r="1.0"/>
     <text stroke="none" x="307.0" y="1150.0" font-size="20.0" font-family="helvetica">100</text>
    </g>
    <g>
     <circle stroke="black" stroke-width="0.5" fill="#aaffff" cx="310.0" cy="120.0" r="1.0"/>
     <text stroke="none" x="310.0" y="120.0" font-size="10.0" font-family="helvetica">NT1.29</text>
    </g>
    <g>
     <circle stroke="black" stroke-width="0.5" fill="#aaffff" cx="310.0" cy="140.0" r="1.0"/>
     <text stroke="none" x="310.0" y="140.0" font-size="10.0" font-family="helvetica">NT1.30</text>
    </g>
    <g>
     <circle stroke="black" stroke-width="0.5" fill="#aaffff" cx="311.0" cy="157.0" r="1.0"/>
     <text stroke="none" x="311.0" y="157.0" font-size="10.0" font-family="helvetica">NT1.31</text>
    </g>
    <g>
     <circle stroke="black" stroke-width="0.5" fill="#aaffff" cx="315.0" cy="641.0" r="1.0"/>
     <text stroke="none" x="315.0" y="641.0" font-size="10.0" font-family="helvetica">NT1.32</text>
    </g>
    <g>
     <circle stroke="black" stroke-width="0.5" fill="#aaffff" cx="317.0" cy="228.0" r="1.0"/>
     <text stroke="none" x="317.0" y="228.0" font-size="20.0" font-family="helvetica">Arthrobacter globiformis DSM 201247 (X80736)</text>
    </g>
    <g>
     <circle stroke="black" stroke-width="0.5" fill="#aaffff" cx="319.0" cy="355.0" r="1.0"/>
     <text stroke="none" x="319.0" y="355.0" font-size="10.0" font-family="helvetica">NT1.34</text>
    </g>
    <g>
     <circle stroke="black" stroke-width="0.5" fill="#aaffff" cx="319.0" cy="890.0" r="1.0"/>
     <text stroke="none" x="319.0" y="890.0" font-size="10.0" font-family="helvetica">NT1.35</text>
    </g>
    <g>
     <circle stroke="black" stroke-width="0.5" fill="#aaffff" cx="322.0" cy="1320.0" r="1.0"/>
     <text stroke="none" x="322.0" y="1320.0" font-size="10.0" font-family="helvetica">NT1.36</text>
    </g>
    <g>
     <circle stroke="black" stroke-width="0.5" fill="#aaffff" cx="325.0" cy="33.0" r="1.0"/>
     <text stroke="none" x="325.0" y="33.0" font-size="20.0" font-family="helvetica">98</text>
    </g>
    <g>
     <circle stroke="black" stroke-width="0.5" fill="#aaffff" cx="326.0" cy="724.0" r="1.0"/>
     <text stroke="none" x="326.0" y="724.0" font-size="10.0" font-family="helvetica">NT1.38</text>
    </g>
    <g>
     <circle stroke="black" stroke-width="0.5" fill="#aaffff" cx="329.0" cy="1176.0" r="1.0"/>
     <text stroke="none" x="329.0" y="1176.0" font-size="20.0" font-family="helvetica">79</text>
    </g>
    <g>
     <circle stroke="black" stroke-width="0.5" fill="#aaffff" cx="336.0" cy="193.0" r="1.0"/>
     <text stroke="none" x="336.0" y="193.0" font-size="10.0" font-family="helvetica">NT1.40</text>
    </g>
    <g>
     <circle stroke="black" stroke-width="0.5" fill="#aaffff" cx="340.0" cy="756.0" r="1.0"/>
     <text stroke="none" x="340.0" y="756.0" font-size="10.0" font-family="helvetica">NT1.41</text>
    </g>
    <g>
     <circle stroke="black" stroke-width="0.5" fill="#aaffff" cx="343.0" cy="783.0" r="1.0"/>
     <text stroke="none" x="343.0" y="783.0" font-size="10.0" font-family="helvetica">NT1.42</text>
    </g>
    <g>
     <circle stroke="black" stroke-width="0.5" fill="#aaffff" cx="345.0" cy="443.0" r="1.0"/>
     <text stroke="none" x="345.0" y="443.0" font-size="20.0" font-family="helvetica">Arthrobacter defluvii 4C1 -a7 (AM409361)</text>
    </g>
    <g>
     <circle stroke="black" stroke-width="0.5" fill="#aaffff" cx="358.0" cy="479.0" r="1.0"/>
     <text stroke="none" x="358.0" y="479.0" font-size="20.0" font-family="helvetica">Arthrobacter chlorophenolicus A-67 (AF102267)</text>
    </g>
    <g>
     <circle stroke="black" stroke-width="0.5" fill="#aaffff" cx="359.0" cy="514.0" r="1.0"/>
     <text stroke="none" x="359.0" y="514.0" font-size="10.0" font-family="helvetica">NT1.45</text>
    </g>
    <g>
     <circle stroke="black" stroke-width="0.5" fill="#aaffff" cx="363.0" cy="568.0" r="1.0"/>
     <text stroke="none" x="363.0" y="568.0" font-size="10.0" font-family="helvetica">NT1.46</text>
    </g>
    <g>
     <circle stroke="black" stroke-width="0.5" fill="#aaffff" cx="364.0" cy="389.0" r="1.0"/>
     <text stroke="none" x="364.0" y="389.0" font-size="20.0" font-family="helvetica">100</text>
    </g>
    <g>
     <circle stroke="black" stroke-width="0.5" fill="#aaffff" cx="365.0" cy="371.0" r="1.0"/>
     <text stroke="none" x="365.0" y="371.0" font-size="20.0" font-family="helvetica">Arthrobacter nicotinovorans DSM 4207 (X80743)</text>
    </g>
    <g>
     <circle stroke="black" stroke-width="0.5" fill="#aaffff" cx="365.0" cy="319.0" r="1.0"/>
     <text stroke="none" x="365.0" y="319.0" font-size="20.0" font-family="helvetica">100</text>
    </g>
    <g>
     <circle stroke="black" stroke-width="0.5" fill="#aaffff" cx="365.0" cy="586.0" r="1.0"/>
     <text stroke="none" x="365.0" y="586.0" font-size="10.0" font-family="helvetica">NT1.50</text>
    </g>
    <g>
     <circle stroke="black" stroke-width="0.5" fill="#aaffff" cx="368.0" cy="550.0" r="1.0"/>
     <text stroke="none" x="368.0" y="550.0" font-size="20.0" font-family="helvetica">Arthrobacter polychromogenes DSM 201367 (X80741)</text>
    </g>
    <g>
     <circle stroke="black" stroke-width="0.5" fill="#aaffff" cx="368.0" cy="801.0" r="1.0"/>
     <text stroke="none" x="368.0" y="801.0" font-size="20.0" font-family="helvetica">Anhrobacter nicotianae DSM 201237 (X80739)</text>
    </g>
    <g>
     <circle stroke="black" stroke-width="0.5" fill="#aaffff" cx="370.0" cy="336.0" r="1.0"/>
     <text stroke="none" x="370.0" y="336.0" font-size="20.0" font-family="helvetica">Arthrobacter nitroguajacolicus CCM 49247 (AJ512504)</text>
    </g>
    <g>
     <circle stroke="black" stroke-width="0.5" fill="#aaffff" cx="370.0" cy="1016.0" r="1.0"/>
     <text stroke="none" x="370.0" y="1016.0" font-size="20.0" font-family="helvetica">Zhihengliuella alba YIM 907347 (EU847536)</text>
    </g>
    <g>
     <circle stroke="black" stroke-width="0.5" fill="#aaffff" cx="370.0" cy="1374.0" r="1.0"/>
     <text stroke="none" x="370.0" y="1374.0" font-size="20.0" font-family="helvetica">Nesterenkonia halobia DSM 205417 (X80747)</text>
    </g>
    <g>
     <circle stroke="black" stroke-width="0.5" fill="#aaffff" cx="377.0" cy="945.0" r="1.0"/>
     <text stroke="none" x="377.0" y="945.0" font-size="20.0" font-family="helvetica">Alfhrobacter rhombi F.98.3HR.697 (Y15885)</text>
    </g>
    <g>
     <circle stroke="black" stroke-width="0.5" fill="#aaffff" cx="377.0" cy="765.0" r="1.0"/>
     <text stroke="none" x="377.0" y="765.0" font-size="20.0" font-family="helvetica">Arthrobacter mysorens DSM 127987 (AJ617482)</text>
    </g>
    <g>
     <circle stroke="black" stroke-width="0.5" fill="#aaffff" cx="377.0" cy="1071.0" r="1.0"/>
     <text stroke="none" x="377.0" y="1071.0" font-size="20.0" font-family="helvetica">100</text>
    </g>
    <g>
     <circle stroke="black" stroke-width="0.5" fill="#aaffff" cx="378.0" cy="909.0" r="1.0"/>
     <text stroke="none" x="378.0" y="909.0" font-size="20.0" font-family="helvetica">Arthrobacter kerguelensis KGN157 (AJ606062)</text>
    </g>
    <g>
     <circle stroke="black" stroke-width="0.5" fill="#aaffff" cx="380.0" cy="980.0" r="1.0"/>
     <text stroke="none" x="380.0" y="980.0" font-size="20.0" font-family="helvetica">Zhihengliuella halotolerans YIM 701857 (DQ372937)</text>
    </g>
    <g>
     <circle stroke="black" stroke-width="0.5" fill="#aaffff" cx="385.0" cy="1195.0" r="1.0"/>
     <text stroke="none" x="385.0" y="1195.0" font-size="20.0" font-family="helvetica">Micrococcus luteus DSM 200307 (AJ536198)</text>
    </g>
    <g>
     <circle stroke="black" stroke-width="0.5" fill="#aaffff" cx="386.0" cy="729.0" r="1.0"/>
     <text stroke="none" x="386.0" y="729.0" font-size="20.0" font-family="helvetica">Arthrobacter arilaitensis CIP 1080377 (AJ609628)</text>
    </g>
    <g>
     <circle stroke="black" stroke-width="0.5" fill="#aaffff" cx="388.0" cy="300.0" r="1.0"/>
     <text stroke="none" x="388.0" y="300.0" font-size="20.0" font-family="helvetica">Arthrobacter aurescens DSM 201167 (X83405)</text>
    </g>
    <g>
     <circle stroke="black" stroke-width="0.5" fill="#aaffff" cx="388.0" cy="872.0" r="1.0"/>
     <text stroke="none" x="388.0" y="872.0" font-size="20.0" font-family="helvetica">Arthrobacter sulfureus DSM 201677 (X83409)</text>
    </g>
    <g>
     <circle stroke="black" stroke-width="0.5" fill="#aaffff" cx="391.0" cy="408.0" r="1.0"/>
     <text stroke="none" x="391.0" y="408.0" font-size="20.0" font-family="helvetica">Alihrobacter histidinolovorans DSM 201157 (X83406)</text>
    </g>
    <g>
     <circle stroke="black" stroke-width="0.5" fill="#aaffff" cx="394.0" cy="622.0" r="1.0"/>
     <text stroke="none" x="394.0" y="622.0" font-size="20.0" font-family="helvetica">Arthrobacter protophormiae DSM 201687 (X80745)</text>
    </g>
    <g>
     <circle stroke="black" stroke-width="0.5" fill="#aaffff" cx="395.0" cy="1052.0" r="1.0"/>
     <text stroke="none" x="395.0" y="1052.0" font-size="20.0" font-family="helvetica">Citriooccus alkalitolerans YIM 700107 (AY376164)</text>
    </g>
    <g>
     <circle stroke="black" stroke-width="0.5" fill="#aaffff" cx="398.0" cy="1088.0" r="1.0"/>
     <text stroke="none" x="398.0" y="1088.0" font-size="20.0" font-family="helvetica">Citricoccus muralis 4-07 (AJ344143)</text>
    </g>
    <g>
     <circle stroke="black" stroke-width="0.5" fill="#aaffff" cx="398.0" cy="658.0" r="1.0"/>
     <text stroke="none" x="398.0" y="658.0" font-size="20.0" font-family="helvetica">Anhrobacter bergerei CIP 1080367 (AJ609630)</text>
    </g>
    <g>
     <circle stroke="black" stroke-width="0.5" fill="#aaffff" cx="414.0" cy="1123.0" r="1.0"/>
     <text stroke="none" x="414.0" y="1123.0" font-size="10.0" font-family="helvetica">NT1.70</text>
    </g>
    <g>
     <circle stroke="black" stroke-width="0.5" fill="#aaffff" cx="415.0" cy="1159.0" r="1.0"/>
     <text stroke="none" x="415.0" y="1159.0" font-size="20.0" font-family="helvetica">Micrococcus antarcticus T27 (AJ005932)</text>
    </g>
    <g>
     <circle stroke="black" stroke-width="0.5" fill="#aaffff" cx="419.0" cy="264.0" r="1.0"/>
     <text stroke="none" x="419.0" y="264.0" font-size="20.0" font-family="helvetica">Arthrobacter agilis DSM 205507 (X80748)</text>
    </g>
    <g>
     <circle stroke="black" stroke-width="0.5" fill="#aaffff" cx="423.0" cy="1338.0" r="1.0"/>
     <text stroke="none" x="423.0" y="1338.0" font-size="20.0" font-family="helvetica">Rothia mucilaginosa CCM 24177 (X87758)</text>
    </g>
    <g>
     <circle stroke="black" stroke-width="0.5" fill="#aaffff" cx="424.0" cy="837.0" r="1.0"/>
     <text stroke="none" x="424.0" y="837.0" font-size="10.0" font-family="helvetica">NT1.74</text>
    </g>
    <g>
     <circle stroke="black" stroke-width="0.5" fill="#aaffff" cx="426.0" cy="14.0" r="1.0"/>
     <text stroke="none" x="426.0" y="14.0" font-size="20.0" font-family="helvetica">Arthrobacter russicus GTC 8637 (AB071950)</text>
    </g>
    <g>
     <circle stroke="black" stroke-width="0.5" fill="#aaffff" cx="455.0" cy="1302.0" r="1.0"/>
     <text stroke="none" x="455.0" y="1302.0" font-size="20.0" font-family="helvetica">Rothia dentocariosa ATCC 179317 (M59055)</text>
    </g>
    <g>
     <circle stroke="black" stroke-width="0.5" fill="#aaffff" cx="468.0" cy="694.0" r="1.0"/>
     <text stroke="none" x="468.0" y="694.0" font-size="20.0" font-family="helvetica">Arthrobacter uratoxydans DSM 206477 (X83410)</text>
    </g>
    <g>
     <circle stroke="black" stroke-width="0.5" fill="#aaffff" cx="523.0" cy="50.0" r="1.0"/>
     <text stroke="none" x="523.0" y="50.0" font-size="20.0" font-family="helvetica">Renibacterium salmoninarum ATCC 332097 (X51601)</text>
    </g>
    <g>
     <circle stroke="black" stroke-width="0.5" fill="#aaffff" cx="554.0" cy="85.0" r="1.0"/>
     <text stroke="none" x="554.0" y="85.0" font-size="20.0" font-family="helvetica">Acaricomes phytoseiuli DSM 142477 (AJ812213)</text>
    </g>
    <g>
     <circle stroke="black" stroke-width="0.5" fill="#aaffff" cx="555.0" cy="1446.0" r="1.0"/>
     <text stroke="none" x="555.0" y="1446.0" font-size="10.0" font-family="helvetica">NT1.80</text>
    </g>
    <g>
     <circle stroke="black" stroke-width="0.5" fill="#aaffff" cx="7.0" cy="1305.0" r="1.0"/>
     <text stroke="none" x="7.0" y="1305.0" font-size="10.0" font-family="helvetica">NT1.81</text>
    </g>
    <line stroke="black" x1="523.0" y1="50.0" x2="325.0" y2="33.0" stroke-width="0.5"/>
    <line stroke="black" x1="317.0" y1="228.0" x2="272.0" y2="198.0" stroke-width="0.5"/>
    <line stroke="black" x1="358.0" y1="479.0" x2="292.0" y2="462.0" stroke-width="0.5"/>
    <line stroke="black" x1="365.0" y1="371.0" x2="364.0" y2="389.0" stroke-width="0.5"/>
    <line stroke="black" x1="388.0" y1="300.0" x2="365.0" y2="319.0" stroke-width="0.5"/>
    <line stroke="black" x1="391.0" y1="408.0" x2="364.0" y2="389.0" stroke-width="0.5"/>
    <line stroke="black" x1="368.0" y1="550.0" x2="363.0" y2="568.0" stroke-width="0.5"/>
    <line stroke="black" x1="395.0" y1="1052.0" x2="377.0" y2="1071.0" stroke-width="0.5"/>
    <line stroke="black" x1="398.0" y1="1088.0" x2="377.0" y2="1071.0" stroke-width="0.5"/>
    <line stroke="black" x1="370.0" y1="1016.0" x2="268.0" y2="998.0" stroke-width="0.5"/>
    <line stroke="black" x1="377.0" y1="945.0" x2="218.0" y2="859.0" stroke-width="0.5"/>
    <line stroke="black" x1="292.0" y1="1267.0" x2="267.0" y2="1250.0" stroke-width="0.5"/>
    <line stroke="black" x1="388.0" y1="872.0" x2="319.0" y2="890.0" stroke-width="0.5"/>
    <line stroke="black" x1="394.0" y1="622.0" x2="315.0" y2="641.0" stroke-width="0.5"/>
    <line stroke="black" x1="398.0" y1="658.0" x2="315.0" y2="641.0" stroke-width="0.5"/>
    <line stroke="black" x1="368.0" y1="801.0" x2="343.0" y2="783.0" stroke-width="0.5"/>
    <line stroke="black" x1="386.0" y1="729.0" x2="340.0" y2="756.0" stroke-width="0.5"/>
    <line stroke="black" x1="377.0" y1="765.0" x2="343.0" y2="783.0" stroke-width="0.5"/>
    <line stroke="black" x1="423.0" y1="1338.0" x2="322.0" y2="1320.0" stroke-width="0.5"/>
    <line stroke="black" x1="455.0" y1="1302.0" x2="322.0" y2="1320.0" stroke-width="0.5"/>
    <line stroke="black" x1="370.0" y1="1374.0" x2="184.0" y2="1391.0" stroke-width="0.5"/>
    <line stroke="black" x1="325.0" y1="33.0" x2="235.0" y2="60.0" stroke-width="0.5"/>
    <line stroke="black" x1="235.0" y1="60.0" x2="186.0" y2="166.0" stroke-width="0.5"/>
    <line stroke="black" x1="186.0" y1="166.0" x2="166.0" y2="593.0" stroke-width="0.5"/>
    <line stroke="black" x1="186.0" y1="166.0" x2="195.0" y2="270.0" stroke-width="0.5"/>
    <line stroke="black" x1="195.0" y1="270.0" x2="217.0" y2="345.0" stroke-width="0.5"/>
    <line stroke="black" x1="217.0" y1="345.0" x2="253.0" y2="427.0" stroke-width="0.5"/>
    <line stroke="black" x1="253.0" y1="427.0" x2="285.0" y2="501.0" stroke-width="0.5"/>
    <line stroke="black" x1="253.0" y1="427.0" x2="319.0" y2="355.0" stroke-width="0.5"/>
    <line stroke="black" x1="285.0" y1="501.0" x2="292.0" y2="462.0" stroke-width="0.5"/>
    <line stroke="black" x1="166.0" y1="593.0" x2="112.0" y2="939.0" stroke-width="0.5"/>
    <line stroke="black" x1="166.0" y1="593.0" x2="175.0" y2="1018.0" stroke-width="0.5"/>
    <line stroke="black" x1="319.0" y1="355.0" x2="364.0" y2="389.0" stroke-width="0.5"/>
    <line stroke="black" x1="319.0" y1="355.0" x2="365.0" y2="319.0" stroke-width="0.5"/>
    <line stroke="black" x1="112.0" y1="939.0" x2="63.0" y2="1165.0" stroke-width="0.5"/>
    <line stroke="black" x1="112.0" y1="939.0" x2="146.0" y2="1284.0" stroke-width="0.5"/>
    <line stroke="black" x1="175.0" y1="1018.0" x2="202.0" y2="1109.0" stroke-width="0.5"/>
    <line stroke="black" x1="175.0" y1="1018.0" x2="200.0" y2="946.0" stroke-width="0.5"/>
    <line stroke="black" x1="202.0" y1="1109.0" x2="377.0" y2="1071.0" stroke-width="0.5"/>
    <line stroke="black" x1="200.0" y1="946.0" x2="218.0" y2="859.0" stroke-width="0.5"/>
    <line stroke="black" x1="200.0" y1="946.0" x2="268.0" y2="998.0" stroke-width="0.5"/>
    <line stroke="black" x1="218.0" y1="859.0" x2="229.0" y2="774.0" stroke-width="0.5"/>
    <line stroke="black" x1="307.0" y1="1150.0" x2="329.0" y2="1176.0" stroke-width="0.5"/>
    <line stroke="black" x1="229.0" y1="774.0" x2="304.0" y2="684.0" stroke-width="0.5"/>
    <line stroke="black" x1="146.0" y1="1284.0" x2="322.0" y2="1320.0" stroke-width="0.5"/>
    <line stroke="black" x1="146.0" y1="1284.0" x2="267.0" y2="1250.0" stroke-width="0.5"/>
    <line stroke="black" x1="275.0" y1="863.0" x2="319.0" y2="890.0" stroke-width="0.5"/>
    <line stroke="black" x1="304.0" y1="684.0" x2="326.0" y2="724.0" stroke-width="0.5"/>
    <line stroke="black" x1="304.0" y1="684.0" x2="315.0" y2="641.0" stroke-width="0.5"/>
    <line stroke="black" x1="326.0" y1="724.0" x2="340.0" y2="756.0" stroke-width="0.5"/>
    <line stroke="black" x1="340.0" y1="756.0" x2="343.0" y2="783.0" stroke-width="0.5"/>
    <line stroke="black" x1="7.0" y1="1305.0" x2="63.0" y2="1165.0" stroke-width="0.5"/>
    <line stroke="black" x1="275.0" y1="1231.0" x2="267.0" y2="1250.0" stroke-width="0.5"/>
    <line stroke="black" x1="419.0" y1="264.0" x2="217.0" y2="345.0" stroke-width="0.5"/>
    <line stroke="black" x1="380.0" y1="980.0" x2="268.0" y2="998.0" stroke-width="0.5"/>
    <line stroke="black" x1="345.0" y1="443.0" x2="292.0" y2="462.0" stroke-width="0.5"/>
    <line stroke="black" x1="385.0" y1="1195.0" x2="329.0" y2="1176.0" stroke-width="0.5"/>
    <line stroke="black" x1="378.0" y1="909.0" x2="319.0" y2="890.0" stroke-width="0.5"/>
    <line stroke="black" x1="554.0" y1="85.0" x2="235.0" y2="60.0" stroke-width="0.5"/>
    <line stroke="black" x1="415.0" y1="1159.0" x2="329.0" y2="1176.0" stroke-width="0.5"/>
    <line stroke="black" x1="370.0" y1="336.0" x2="365.0" y2="319.0" stroke-width="0.5"/>
    <line stroke="black" x1="468.0" y1="694.0" x2="326.0" y2="724.0" stroke-width="0.5"/>
    <line stroke="black" x1="426.0" y1="14.0" x2="325.0" y2="33.0" stroke-width="0.5"/>
   </g>
  </g>
 </svg>
</svg>
