<?xml version="1.0" encoding="UTF-8"?>
<svg height="800.0" width="700.0" xmlns="http://www.w3.org/2000/svg">
 <svg>
  <g>
   <g>
    <g>
     <circle stroke="black" stroke-width="0.5" fill="#aaffff" cx="2.0" cy="722.0" r="1.0"/>
     <text stroke="none" x="2.0" y="722.0" font-size="20.0" font-family="helvetica"/>
    </g>
    <g>
     <circle stroke="black" stroke-width="0.5" fill="#aaffff" cx="4.0" cy="722.0" r="1.0"/>
     <text stroke="none" x="4.0" y="722.0" font-size="10.0" font-family="helvetica">NT1.2</text>
    </g>
    <g>
     <circle stroke="black" stroke-width="0.5" fill="#aaffff" cx="35.0" cy="704.0" r="1.0"/>
     <text stroke="none" x="35.0" y="704.0" font-size="10.0" font-family="helvetica">NT1.3</text>
    </g>
    <g>
     <circle stroke="black" stroke-width="0.5" fill="#aaffff" cx="88.0" cy="764.0" r="1.0"/>
     <text stroke="none" x="88.0" y="764.0" font-size="10.0" font-family="helvetica">NT1.4</text>
    </g>
    <g>
     <circle stroke="black" stroke-width="0.5" fill="#aaffff" cx="90.0" cy="762.0" r="1.0"/>
     <text stroke="none" x="90.0" y="762.0" font-size="10.0" font-family="helvetica">NT1.5</text>
    </g>
    <g>
     <circle stroke="black" stroke-width="0.5" fill="#aaffff" cx="94.0" cy="762.0" r="1.0"/>
     <text stroke="none" x="94.0" y="762.0" font-size="10.0" font-family="helvetica">NT1.6</text>
    </g>
    <g>
     <circle stroke="black" stroke-width="0.5" fill="#aaffff" cx="121.0" cy="733.0" r="1.0"/>
     <text stroke="none" x="121.0" y="733.0" font-size="10.0" font-family="helvetica">NT1.7</text>
    </g>
    <g>
     <circle stroke="black" stroke-width="0.5" fill="#aaffff" cx="123.0" cy="730.0" r="1.0"/>
     <text stroke="none" x="123.0" y="730.0" font-size="10.0" font-family="helvetica">NT1.8</text>
    </g>
    <g>
     <circle stroke="black" stroke-width="0.5" fill="#aaffff" cx="125.0" cy="605.0" r="1.0"/>
     <text stroke="none" x="125.0" y="605.0" font-size="10.0" font-family="helvetica">NT1.9</text>
    </g>
    <g>
     <circle stroke="black" stroke-width="0.5" fill="#aaffff" cx="127.0" cy="730.0" r="1.0"/>
     <text stroke="none" x="127.0" y="730.0" font-size="10.0" font-family="helvetica">NT1.10</text>
    </g>
    <g>
     <circle stroke="black" stroke-width="0.5" fill="#aaffff" cx="135.0" cy="341.0" r="1.0"/>
     <text stroke="none" x="135.0" y="341.0" font-size="10.0" font-family="helvetica">NT1.11</text>
    </g>
    <g>
     <circle stroke="black" stroke-width="0.5" fill="#aaffff" cx="139.0" cy="567.0" r="1.0"/>
     <text stroke="none" x="139.0" y="567.0" font-size="10.0" font-family="helvetica">NT1.12</text>
    </g>
    <g>
     <circle stroke="black" stroke-width="0.5" fill="#aaffff" cx="141.0" cy="341.0" r="1.0"/>
     <text stroke="none" x="141.0" y="341.0" font-size="10.0" font-family="helvetica">NT1.13</text>
    </g>
    <g>
     <circle stroke="black" stroke-width="0.5" fill="#aaffff" cx="155.0" cy="246.0" r="1.0"/>
     <text stroke="none" x="155.0" y="246.0" font-size="10.0" font-family="helvetica">NT1.14</text>
    </g>
    <g>
     <circle stroke="black" stroke-width="0.5" fill="#aaffff" cx="157.0" cy="244.0" r="1.0"/>
     <text stroke="none" x="157.0" y="244.0" font-size="10.0" font-family="helvetica">NT1.15</text>
    </g>
    <g>
     <circle stroke="black" stroke-width="0.5" fill="#aaffff" cx="161.0" cy="244.0" r="1.0"/>
     <text stroke="none" x="161.0" y="244.0" font-size="10.0" font-family="helvetica">NT1.16</text>
    </g>
    <g>
     <circle stroke="black" stroke-width="0.5" fill="#aaffff" cx="172.0" cy="406.0" r="1.0"/>
     <text stroke="none" x="172.0" y="406.0" font-size="10.0" font-family="helvetica">NT1.17</text>
    </g>
    <g>
     <circle stroke="black" stroke-width="0.5" fill="#aaffff" cx="196.0" cy="538.0" r="1.0"/>
     <text stroke="none" x="196.0" y="538.0" font-size="10.0" font-family="helvetica">NT1.18</text>
    </g>
    <g>
     <circle stroke="black" stroke-width="0.5" fill="#aaffff" cx="203.0" cy="527.0" r="1.0"/>
     <text stroke="none" x="203.0" y="527.0" font-size="10.0" font-family="helvetica">NT1.19</text>
    </g>
    <g>
     <circle stroke="black" stroke-width="0.5" fill="#aaffff" cx="205.0" cy="185.0" r="1.0"/>
     <text stroke="none" x="205.0" y="185.0" font-size="10.0" font-family="helvetica">NT1.20</text>
    </g>
    <g>
     <circle stroke="black" stroke-width="0.5" fill="#aaffff" cx="205.0" cy="324.0" r="1.0"/>
     <text stroke="none" x="205.0" y="324.0" font-size="10.0" font-family="helvetica">NT1.21</text>
    </g>
    <g>
     <circle stroke="black" stroke-width="0.5" fill="#aaffff" cx="217.0" cy="671.0" r="1.0"/>
     <text stroke="none" x="217.0" y="671.0" font-size="20.0" font-family="helvetica">Algoriphagus hitonicola 7-UAHT (EF4B8486)</text>
    </g>
    <g>
     <circle stroke="black" stroke-width="0.5" fill="#aaffff" cx="227.0" cy="231.0" r="1.0"/>
     <text stroke="none" x="227.0" y="231.0" font-size="10.0" font-family="helvetica">NT1.23</text>
    </g>
    <g>
     <circle stroke="black" stroke-width="0.5" fill="#aaffff" cx="232.0" cy="324.0" r="1.0"/>
     <text stroke="none" x="232.0" y="324.0" font-size="10.0" font-family="helvetica">NT1.24</text>
    </g>
    <g>
     <circle stroke="black" stroke-width="0.5" fill="#aaffff" cx="233.0" cy="548.0" r="1.0"/>
     <text stroke="none" x="233.0" y="548.0" font-size="20.0" font-family="helvetica">Algoriphagus ornithinivorans IMSNU 14014T (AY264840)</text>
    </g>
    <g>
     <circle stroke="black" stroke-width="0.5" fill="#aaffff" cx="236.0" cy="83.0" r="1.0"/>
     <text stroke="none" x="236.0" y="83.0" font-size="10.0" font-family="helvetica">NT1.26</text>
    </g>
    <g>
     <circle stroke="black" stroke-width="0.5" fill="#aaffff" cx="239.0" cy="303.0" r="1.0"/>
     <text stroke="none" x="239.0" y="303.0" font-size="10.0" font-family="helvetica">NT1.27</text>
    </g>
    <g>
     <circle stroke="black" stroke-width="0.5" fill="#aaffff" cx="242.0" cy="68.0" r="1.0"/>
     <text stroke="none" x="242.0" y="68.0" font-size="10.0" font-family="helvetica">NT1.28</text>
    </g>
    <g>
     <circle stroke="black" stroke-width="0.5" fill="#aaffff" cx="242.0" cy="384.0" r="1.0"/>
     <text stroke="none" x="242.0" y="384.0" font-size="20.0" font-family="helvetica">Algoriphagus alkaliphilus AC-74T (AJ717393)</text>
    </g>
    <g>
     <circle stroke="black" stroke-width="0.5" fill="#aaffff" cx="243.0" cy="200.0" r="1.0"/>
     <text stroke="none" x="243.0" y="200.0" font-size="10.0" font-family="helvetica">NT1.30</text>
    </g>
    <g>
     <circle stroke="black" stroke-width="0.5" fill="#aaffff" cx="245.0" cy="37.0" r="1.0"/>
     <text stroke="none" x="245.0" y="37.0" font-size="10.0" font-family="helvetica">NT1.31</text>
    </g>
    <g>
     <circle stroke="black" stroke-width="0.5" fill="#aaffff" cx="251.0" cy="35.0" r="1.0"/>
     <text stroke="none" x="251.0" y="35.0" font-size="10.0" font-family="helvetica">NT1.32</text>
    </g>
    <g>
     <circle stroke="black" stroke-width="0.5" fill="#aaffff" cx="252.0" cy="58.0" r="1.0"/>
     <text stroke="none" x="252.0" y="58.0" font-size="20.0" font-family="helvetica">Algoriphagus winogradskyi KMM 39567 (AJ575263)</text>
    </g>
    <g>
     <circle stroke="black" stroke-width="0.5" fill="#aaffff" cx="252.0" cy="99.0" r="1.0"/>
     <text stroke="none" x="252.0" y="99.0" font-size="20.0" font-family="helvetica">Algoriphagus yeomjeoni MSS-160T (AY699794)</text>
    </g>
    <g>
     <circle stroke="black" stroke-width="0.5" fill="#aaffff" cx="256.0" cy="139.0" r="1.0"/>
     <text stroke="none" x="256.0" y="139.0" font-size="20.0" font-family="helvetica">Algoriphagus aquimarinus KMM 3958T (AJ575264)</text>
    </g>
    <g>
     <circle stroke="black" stroke-width="0.5" fill="#aaffff" cx="258.0" cy="262.0" r="1.0"/>
     <text stroke="none" x="258.0" y="262.0" font-size="20.0" font-family="helvetica">Algoriphagus chordae KMM 3957T (AJ575265)</text>
    </g>
    <g>
     <circle stroke="black" stroke-width="0.5" fill="#aaffff" cx="258.0" cy="630.0" r="1.0"/>
     <text stroke="none" x="258.0" y="630.0" font-size="20.0" font-family="helvetica">Algoriphagus marincola SW-2T (AY533663)</text>
    </g>
    <g>
     <circle stroke="black" stroke-width="0.5" fill="#aaffff" cx="261.0" cy="425.0" r="1.0"/>
     <text stroke="none" x="261.0" y="425.0" font-size="20.0" font-family="helvetica">Algoriphagus boritolerans T-22T (AB197852)</text>
    </g>
    <g>
     <circle stroke="black" stroke-width="0.5" fill="#aaffff" cx="263.0" cy="467.0" r="1.0"/>
     <text stroke="none" x="263.0" y="467.0" font-size="20.0" font-family="helvetica">Algoriphagus terrigena DS-44T (DQ178979)</text>
    </g>
    <g>
     <circle stroke="black" stroke-width="0.5" fill="#aaffff" cx="264.0" cy="221.0" r="1.0"/>
     <text stroke="none" x="264.0" y="221.0" font-size="20.0" font-family="helvetica">Algoriphagus antarcticus LMG 219807 (AJ577141)</text>
    </g>
    <g>
     <circle stroke="black" stroke-width="0.5" fill="#aaffff" cx="264.0" cy="753.0" r="1.0"/>
     <text stroke="none" x="264.0" y="753.0" font-size="20.0" font-family="helvetica">Belliella baltica BA134T (AJ564643)</text>
    </g>
    <g>
     <circle stroke="black" stroke-width="0.5" fill="#aaffff" cx="270.0" cy="589.0" r="1.0"/>
     <text stroke="none" x="270.0" y="589.0" font-size="20.0" font-family="helvetica">Algoriphagus mannitolivorans IMSNU 14012T (AY264838)</text>
    </g>
    <g>
     <circle stroke="black" stroke-width="0.5" fill="#aaffff" cx="276.0" cy="179.0" r="1.0"/>
     <text stroke="none" x="276.0" y="179.0" font-size="10.0" font-family="helvetica">NT1.43</text>
    </g>
    <g>
     <circle stroke="black" stroke-width="0.5" fill="#aaffff" cx="276.0" cy="507.0" r="1.0"/>
     <text stroke="none" x="276.0" y="507.0" font-size="20.0" font-family="helvetica">Algoriphagus vanfongensis KMM 6241T (EF392675)</text>
    </g>
    <g>
     <circle stroke="black" stroke-width="0.5" fill="#aaffff" cx="290.0" cy="17.0" r="1.0"/>
     <text stroke="none" x="290.0" y="17.0" font-size="20.0" font-family="helvetica">Algoriphagus locisalis MSS-1707 (AY835922)</text>
    </g>
    <g>
     <circle stroke="black" stroke-width="0.5" fill="#aaffff" cx="292.0" cy="711.0" r="1.0"/>
     <text stroke="none" x="292.0" y="711.0" font-size="10.0" font-family="helvetica">NT1.46</text>
    </g>
    <g>
     <circle stroke="black" stroke-width="0.5" fill="#aaffff" cx="366.0" cy="834.0" r="1.0"/>
     <text stroke="none" x="366.0" y="834.0" font-size="20.0" font-family="helvetica">Cyclobacterium marinum DSM 7457 (AY533665)</text>
    </g>
    <g>
     <circle stroke="black" stroke-width="0.5" fill="#aaffff" cx="398.0" cy="793.0" r="1.0"/>
     <text stroke="none" x="398.0" y="793.0" font-size="10.0" font-family="helvetica">NT1.48</text>
    </g>
    <g>
     <circle stroke="black" stroke-width="0.5" fill="#aaffff" cx="632.0" cy="890.0" r="1.0"/>
     <text stroke="none" x="632.0" y="890.0" font-size="10.0" font-family="helvetica">NT1.49</text>
    </g>
    <line stroke="black" x1="252.0" y1="99.0" x2="236.0" y2="83.0" stroke-width="0.5"/>
    <line stroke="black" x1="242.0" y1="384.0" x2="172.0" y2="406.0" stroke-width="0.5"/>
    <line stroke="black" x1="217.0" y1="671.0" x2="125.0" y2="605.0" stroke-width="0.5"/>
    <line stroke="black" x1="233.0" y1="548.0" x2="196.0" y2="538.0" stroke-width="0.5"/>
    <line stroke="black" x1="276.0" y1="507.0" x2="196.0" y2="538.0" stroke-width="0.5"/>
    <line stroke="black" x1="366.0" y1="834.0" x2="35.0" y2="704.0" stroke-width="0.5"/>
    <line stroke="black" x1="245.0" y1="37.0" x2="236.0" y2="83.0" stroke-width="0.5"/>
    <line stroke="black" x1="236.0" y1="83.0" x2="205.0" y2="185.0" stroke-width="0.5"/>
    <line stroke="black" x1="205.0" y1="185.0" x2="157.0" y2="244.0" stroke-width="0.5"/>
    <line stroke="black" x1="135.0" y1="341.0" x2="125.0" y2="605.0" stroke-width="0.5"/>
    <line stroke="black" x1="135.0" y1="341.0" x2="172.0" y2="406.0" stroke-width="0.5"/>
    <line stroke="black" x1="125.0" y1="605.0" x2="35.0" y2="704.0" stroke-width="0.5"/>
    <line stroke="black" x1="125.0" y1="605.0" x2="139.0" y2="567.0" stroke-width="0.5"/>
    <line stroke="black" x1="35.0" y1="704.0" x2="4.0" y2="722.0" stroke-width="0.5"/>
    <line stroke="black" x1="139.0" y1="567.0" x2="196.0" y2="538.0" stroke-width="0.5"/>
    <line stroke="black" x1="258.0" y1="630.0" x2="139.0" y2="567.0" stroke-width="0.5"/>
    <line stroke="black" x1="261.0" y1="425.0" x2="172.0" y2="406.0" stroke-width="0.5"/>
    <line stroke="black" x1="264.0" y1="753.0" x2="121.0" y2="733.0" stroke-width="0.5"/>
    <line stroke="black" x1="263.0" y1="467.0" x2="172.0" y2="406.0" stroke-width="0.5"/>
    <line stroke="black" x1="270.0" y1="589.0" x2="139.0" y2="567.0" stroke-width="0.5"/>
    <line stroke="black" x1="256.0" y1="139.0" x2="205.0" y2="185.0" stroke-width="0.5"/>
    <line stroke="black" x1="258.0" y1="262.0" x2="205.0" y2="185.0" stroke-width="0.5"/>
    <line stroke="black" x1="264.0" y1="221.0" x2="205.0" y2="185.0" stroke-width="0.5"/>
    <line stroke="black" x1="252.0" y1="58.0" x2="245.0" y2="37.0" stroke-width="0.5"/>
    <line stroke="black" x1="290.0" y1="17.0" x2="245.0" y2="37.0" stroke-width="0.5"/>
   </g>
  </g>
 </svg>
</svg>
