<?xml version="1.0" encoding="UTF-8"?>
<svg height="800.0" width="700.0" xmlns="http://www.w3.org/2000/svg">
 <svg>
  <g>
   <g>
    <g>
     <circle stroke="black" stroke-width="0.5" fill="#aaffff" cx="165.0" cy="766.0" r="1.0"/>
     <text stroke="none" x="165.0" y="766.0" font-size="20.0" font-family="helvetica">100</text>
    </g>
    <g>
     <circle stroke="black" stroke-width="0.5" fill="#aaffff" cx="167.0" cy="927.0" r="1.0"/>
     <text stroke="none" x="167.0" y="927.0" font-size="20.0" font-family="helvetica">Weeksella zoohelcum ATCC 437677 (M93153)</text>
    </g>
    <g>
     <circle stroke="black" stroke-width="0.5" fill="#aaffff" cx="191.0" cy="639.0" r="1.0"/>
     <text stroke="none" x="191.0" y="639.0" font-size="20.0" font-family="helvetica">87</text>
    </g>
    <g>
     <circle stroke="black" stroke-width="0.5" fill="#aaffff" cx="200.0" cy="475.0" r="1.0"/>
     <text stroke="none" x="200.0" y="475.0" font-size="10.0" font-family="helvetica">NT1.4</text>
    </g>
    <g>
     <circle stroke="black" stroke-width="0.5" fill="#aaffff" cx="200.0" cy="797.0" r="1.0"/>
     <text stroke="none" x="200.0" y="797.0" font-size="10.0" font-family="helvetica">NT1.5</text>
    </g>
    <g>
     <circle stroke="black" stroke-width="0.5" fill="#aaffff" cx="209.0" cy="762.0" r="1.0"/>
     <text stroke="none" x="209.0" y="762.0" font-size="10.0" font-family="helvetica">NT1.6</text>
    </g>
    <g>
     <circle stroke="black" stroke-width="0.5" fill="#aaffff" cx="211.0" cy="332.0" r="1.0"/>
     <text stroke="none" x="211.0" y="332.0" font-size="10.0" font-family="helvetica">NT1.7</text>
    </g>
    <g>
     <circle stroke="black" stroke-width="0.5" fill="#aaffff" cx="212.0" cy="560.0" r="1.0"/>
     <text stroke="none" x="212.0" y="560.0" font-size="10.0" font-family="helvetica">NT1.8</text>
    </g>
    <g>
     <circle stroke="black" stroke-width="0.5" fill="#aaffff" cx="215.0" cy="464.0" r="1.0"/>
     <text stroke="none" x="215.0" y="464.0" font-size="10.0" font-family="helvetica">NT1.9</text>
    </g>
    <g>
     <circle stroke="black" stroke-width="0.5" fill="#aaffff" cx="229.0" cy="225.0" r="1.0"/>
     <text stroke="none" x="229.0" y="225.0" font-size="10.0" font-family="helvetica">NT1.10</text>
    </g>
    <g>
     <circle stroke="black" stroke-width="0.5" fill="#aaffff" cx="234.0" cy="619.0" r="1.0"/>
     <text stroke="none" x="234.0" y="619.0" font-size="20.0" font-family="helvetica">87</text>
    </g>
    <g>
     <circle stroke="black" stroke-width="0.5" fill="#aaffff" cx="235.0" cy="168.0" r="1.0"/>
     <text stroke="none" x="235.0" y="168.0" font-size="10.0" font-family="helvetica">NT1.12</text>
    </g>
    <g>
     <circle stroke="black" stroke-width="0.5" fill="#aaffff" cx="239.0" cy="127.0" r="1.0"/>
     <text stroke="none" x="239.0" y="127.0" font-size="10.0" font-family="helvetica">NT1.13</text>
    </g>
    <g>
     <circle stroke="black" stroke-width="0.5" fill="#aaffff" cx="242.0" cy="834.0" r="1.0"/>
     <text stroke="none" x="242.0" y="834.0" font-size="10.0" font-family="helvetica">NT1.14</text>
    </g>
    <g>
     <circle stroke="black" stroke-width="0.5" fill="#aaffff" cx="251.0" cy="98.0" r="1.0"/>
     <text stroke="none" x="251.0" y="98.0" font-size="20.0" font-family="helvetica">59</text>
    </g>
    <g>
     <circle stroke="black" stroke-width="0.5" fill="#aaffff" cx="265.0" cy="660.0" r="1.0"/>
     <text stroke="none" x="265.0" y="660.0" font-size="20.0" font-family="helvetica">95</text>
    </g>
    <g>
     <circle stroke="black" stroke-width="0.5" fill="#aaffff" cx="271.0" cy="576.0" r="1.0"/>
     <text stroke="none" x="271.0" y="576.0" font-size="20.0" font-family="helvetica">94</text>
    </g>
    <g>
     <circle stroke="black" stroke-width="0.5" fill="#aaffff" cx="277.0" cy="282.0" r="1.0"/>
     <text stroke="none" x="277.0" y="282.0" font-size="10.0" font-family="helvetica">NT1.18</text>
    </g>
    <g>
     <circle stroke="black" stroke-width="0.5" fill="#aaffff" cx="283.0" cy="687.0" r="1.0"/>
     <text stroke="none" x="283.0" y="687.0" font-size="10.0" font-family="helvetica">NT1.19</text>
    </g>
    <g>
     <circle stroke="black" stroke-width="0.5" fill="#aaffff" cx="312.0" cy="393.0" r="1.0"/>
     <text stroke="none" x="312.0" y="393.0" font-size="10.0" font-family="helvetica">NT1.20</text>
    </g>
    <g>
     <circle stroke="black" stroke-width="0.5" fill="#aaffff" cx="314.0" cy="448.0" r="1.0"/>
     <text stroke="none" x="314.0" y="448.0" font-size="20.0" font-family="helvetica">Ulvibacter liloralis KMM 39127 (AY243096)</text>
    </g>
    <g>
     <circle stroke="black" stroke-width="0.5" fill="#aaffff" cx="322.0" cy="301.0" r="1.0"/>
     <text stroke="none" x="322.0" y="301.0" font-size="20.0" font-family="helvetica"> lFIexibacter1 tractuosus IFO 15980 (AB078070)</text>
    </g>
    <g>
     <circle stroke="black" stroke-width="0.5" fill="#aaffff" cx="329.0" cy="778.0" r="1.0"/>
     <text stroke="none" x="329.0" y="778.0" font-size="20.0" font-family="helvetica">Flavobacterium aquatile ATCC 119477 (M62797)</text>
    </g>
    <g>
     <circle stroke="black" stroke-width="0.5" fill="#aaffff" cx="330.0" cy="263.0" r="1.0"/>
     <text stroke="none" x="330.0" y="263.0" font-size="20.0" font-family="helvetica"> 7Cytophaga1 latercula ATCC 231777 (M58769)</text>
    </g>
    <g>
     <circle stroke="black" stroke-width="0.5" fill="#aaffff" cx="332.0" cy="483.0" r="1.0"/>
     <text stroke="none" x="332.0" y="483.0" font-size="20.0" font-family="helvetica"/>
    </g>
    <g>
     <circle stroke="black" stroke-width="0.5" fill="#aaffff" cx="338.0" cy="152.0" r="1.0"/>
     <text stroke="none" x="338.0" y="152.0" font-size="20.0" font-family="helvetica">Gillisia Iimnaea LMG 214707 (AJ440991)</text>
    </g>
    <g>
     <circle stroke="black" stroke-width="0.5" fill="#aaffff" cx="340.0" cy="519.0" r="1.0"/>
     <text stroke="none" x="340.0" y="519.0" font-size="20.0" font-family="helvetica">1Cytophaga1 marinoHava LMG 13457 (AF203475)</text>
    </g>
    <g>
     <circle stroke="black" stroke-width="0.5" fill="#aaffff" cx="340.0" cy="558.0" r="1.0"/>
     <text stroke="none" x="340.0" y="558.0" font-size="20.0" font-family="helvetica">Aequorivita antarctica SW497 (AYO27802)</text>
    </g>
    <g>
     <circle stroke="black" stroke-width="0.5" fill="#aaffff" cx="345.0" cy="338.0" r="1.0"/>
     <text stroke="none" x="345.0" y="338.0" font-size="20.0" font-family="helvetica">Psychroserpens burtonenis ACAM 1887 (U62913)</text>
    </g>
    <g>
     <circle stroke="black" stroke-width="0.5" fill="#aaffff" cx="345.0" cy="208.0" r="1.0"/>
     <text stroke="none" x="345.0" y="208.0" font-size="20.0" font-family="helvetica">100</text>
    </g>
    <g>
     <circle stroke="black" stroke-width="0.5" fill="#aaffff" cx="346.0" cy="116.0" r="1.0"/>
     <text stroke="none" x="346.0" y="116.0" font-size="20.0" font-family="helvetica">Mesonia algae KMM 39097 (AF536383)</text>
    </g>
    <g>
     <circle stroke="black" stroke-width="0.5" fill="#aaffff" cx="347.0" cy="374.0" r="1.0"/>
     <text stroke="none" x="347.0" y="374.0" font-size="20.0" font-family="helvetica">Gelidibaoter mesophilus 2SM297 (AJ344133)</text>
    </g>
    <g>
     <circle stroke="black" stroke-width="0.5" fill="#aaffff" cx="348.0" cy="889.0" r="1.0"/>
     <text stroke="none" x="348.0" y="889.0" font-size="20.0" font-family="helvetica">Capnocytophaga ochracea ATCC 278727 (U41350)</text>
    </g>
    <g>
     <circle stroke="black" stroke-width="0.5" fill="#aaffff" cx="352.0" cy="79.0" r="1.0"/>
     <text stroke="none" x="352.0" y="79.0" font-size="20.0" font-family="helvetica">Salegentibacter salegens ACAM 487 (M92279)</text>
    </g>
    <g>
     <circle stroke="black" stroke-width="0.5" fill="#aaffff" cx="354.0" cy="410.0" r="1.0"/>
     <text stroke="none" x="354.0" y="410.0" font-size="20.0" font-family="helvetica">Gelidibacter algens ACAM 5367 (U62914)</text>
    </g>
    <g>
     <circle stroke="black" stroke-width="0.5" fill="#aaffff" cx="365.0" cy="226.0" r="1.0"/>
     <text stroke="none" x="365.0" y="226.0" font-size="20.0" font-family="helvetica">Psychroflexus gondwanensis</text>
    </g>
    <g>
     <circle stroke="black" stroke-width="0.5" fill="#aaffff" cx="367.0" cy="594.0" r="1.0"/>
     <text stroke="none" x="367.0" y="594.0" font-size="20.0" font-family="helvetica"/>
    </g>
    <g>
     <circle stroke="black" stroke-width="0.5" fill="#aaffff" cx="368.0" cy="815.0" r="1.0"/>
     <text stroke="none" x="368.0" y="815.0" font-size="20.0" font-family="helvetica">Polaribacter filamentus ATCC 7003977 (U73726)</text>
    </g>
    <g>
     <circle stroke="black" stroke-width="0.5" fill="#aaffff" cx="373.0" cy="189.0" r="1.0"/>
     <text stroke="none" x="373.0" y="189.0" font-size="20.0" font-family="helvetica">Psychroflexus torquis ACAM 6237 (U85881)</text>
    </g>
    <g>
     <circle stroke="black" stroke-width="0.5" fill="#aaffff" cx="376.0" cy="741.0" r="1.0"/>
     <text stroke="none" x="376.0" y="741.0" font-size="20.0" font-family="helvetica">Myroides odoratus ATCC 46517 (M58777)</text>
    </g>
    <g>
     <circle stroke="black" stroke-width="0.5" fill="#aaffff" cx="383.0" cy="852.0" r="1.0"/>
     <text stroke="none" x="383.0" y="852.0" font-size="20.0" font-family="helvetica">Tenacibaculum maritimum</text>
    </g>
    <g>
     <circle stroke="black" stroke-width="0.5" fill="#aaffff" cx="386.0" cy="631.0" r="1.0"/>
     <text stroke="none" x="386.0" y="631.0" font-size="20.0" font-family="helvetica">Arenibacterlatericius KMM 4267 (AFO52742)</text>
    </g>
    <g>
     <circle stroke="black" stroke-width="0.5" fill="#aaffff" cx="387.0" cy="705.0" r="1.0"/>
     <text stroke="none" x="387.0" y="705.0" font-size="20.0" font-family="helvetica">Zobellia galactanivorans DSM 128027 (AF208293)</text>
    </g>
    <g>
     <circle stroke="black" stroke-width="0.5" fill="#aaffff" cx="426.0" cy="668.0" r="1.0"/>
     <text stroke="none" x="426.0" y="668.0" font-size="20.0" font-family="helvetica">Muricauda ruestringensis LMG 197397 (AF218782)</text>
    </g>
    <line stroke="black" x1="352.0" y1="79.0" x2="251.0" y2="98.0" stroke-width="0.5"/>
    <line stroke="black" x1="365.0" y1="226.0" x2="345.0" y2="208.0" stroke-width="0.5"/>
    <line stroke="black" x1="373.0" y1="189.0" x2="345.0" y2="208.0" stroke-width="0.5"/>
    <line stroke="black" x1="322.0" y1="301.0" x2="277.0" y2="282.0" stroke-width="0.5"/>
    <line stroke="black" x1="330.0" y1="263.0" x2="277.0" y2="282.0" stroke-width="0.5"/>
    <line stroke="black" x1="347.0" y1="374.0" x2="312.0" y2="393.0" stroke-width="0.5"/>
    <line stroke="black" x1="340.0" y1="558.0" x2="271.0" y2="576.0" stroke-width="0.5"/>
    <line stroke="black" x1="367.0" y1="594.0" x2="271.0" y2="576.0" stroke-width="0.5"/>
    <line stroke="black" x1="386.0" y1="631.0" x2="265.0" y2="660.0" stroke-width="0.5"/>
    <line stroke="black" x1="426.0" y1="668.0" x2="283.0" y2="687.0" stroke-width="0.5"/>
    <line stroke="black" x1="368.0" y1="815.0" x2="242.0" y2="834.0" stroke-width="0.5"/>
    <line stroke="black" x1="383.0" y1="852.0" x2="242.0" y2="834.0" stroke-width="0.5"/>
    <line stroke="black" x1="348.0" y1="889.0" x2="165.0" y2="766.0" stroke-width="0.5"/>
    <line stroke="black" x1="251.0" y1="98.0" x2="239.0" y2="127.0" stroke-width="0.5"/>
    <line stroke="black" x1="239.0" y1="127.0" x2="235.0" y2="168.0" stroke-width="0.5"/>
    <line stroke="black" x1="235.0" y1="168.0" x2="229.0" y2="225.0" stroke-width="0.5"/>
    <line stroke="black" x1="229.0" y1="225.0" x2="211.0" y2="332.0" stroke-width="0.5"/>
    <line stroke="black" x1="211.0" y1="332.0" x2="200.0" y2="475.0" stroke-width="0.5"/>
    <line stroke="black" x1="211.0" y1="332.0" x2="312.0" y2="393.0" stroke-width="0.5"/>
    <line stroke="black" x1="211.0" y1="332.0" x2="215.0" y2="464.0" stroke-width="0.5"/>
    <line stroke="black" x1="200.0" y1="475.0" x2="212.0" y2="560.0" stroke-width="0.5"/>
    <line stroke="black" x1="212.0" y1="560.0" x2="234.0" y2="619.0" stroke-width="0.5"/>
    <line stroke="black" x1="234.0" y1="619.0" x2="265.0" y2="660.0" stroke-width="0.5"/>
    <line stroke="black" x1="234.0" y1="619.0" x2="271.0" y2="576.0" stroke-width="0.5"/>
    <line stroke="black" x1="191.0" y1="639.0" x2="165.0" y2="766.0" stroke-width="0.5"/>
    <line stroke="black" x1="191.0" y1="639.0" x2="200.0" y2="797.0" stroke-width="0.5"/>
    <line stroke="black" x1="265.0" y1="660.0" x2="283.0" y2="687.0" stroke-width="0.5"/>
    <line stroke="black" x1="283.0" y1="687.0" x2="387.0" y2="705.0" stroke-width="0.5"/>
    <line stroke="black" x1="200.0" y1="797.0" x2="209.0" y2="762.0" stroke-width="0.5"/>
    <line stroke="black" x1="167.0" y1="927.0" x2="165.0" y2="766.0" stroke-width="0.5"/>
    <line stroke="black" x1="200.0" y1="475.0" x2="191.0" y2="639.0" stroke-width="0.5"/>
    <line stroke="black" x1="200.0" y1="797.0" x2="242.0" y2="834.0" stroke-width="0.5"/>
    <line stroke="black" x1="332.0" y1="483.0" x2="215.0" y2="464.0" stroke-width="0.5"/>
    <line stroke="black" x1="229.0" y1="225.0" x2="277.0" y2="282.0" stroke-width="0.5"/>
    <line stroke="black" x1="235.0" y1="168.0" x2="345.0" y2="208.0" stroke-width="0.5"/>
    <line stroke="black" x1="345.0" y1="338.0" x2="211.0" y2="332.0" stroke-width="0.5"/>
    <line stroke="black" x1="346.0" y1="116.0" x2="251.0" y2="98.0" stroke-width="0.5"/>
    <line stroke="black" x1="314.0" y1="448.0" x2="215.0" y2="464.0" stroke-width="0.5"/>
    <line stroke="black" x1="340.0" y1="519.0" x2="212.0" y2="560.0" stroke-width="0.5"/>
    <line stroke="black" x1="338.0" y1="152.0" x2="239.0" y2="127.0" stroke-width="0.5"/>
    <line stroke="black" x1="354.0" y1="410.0" x2="312.0" y2="393.0" stroke-width="0.5"/>
    <line stroke="black" x1="329.0" y1="778.0" x2="209.0" y2="762.0" stroke-width="0.5"/>
    <line stroke="black" x1="376.0" y1="741.0" x2="209.0" y2="762.0" stroke-width="0.5"/>
   </g>
  </g>
 </svg>
</svg>
