<?xml version="1.0" encoding="UTF-8"?>
<svg height="800.0" width="700.0" xmlns="http://www.w3.org/2000/svg">
 <svg>
  <g>
   <g>
    <g>
     <circle stroke="black" stroke-width="0.5" fill="#aaffff" cx="146.0" cy="302.0" r="1.0"/>
     <text stroke="none" x="146.0" y="302.0" font-size="10.0" font-family="helvetica">NT1.1</text>
    </g>
    <g>
     <circle stroke="black" stroke-width="0.5" fill="#aaffff" cx="169.0" cy="409.0" r="1.0"/>
     <text stroke="none" x="169.0" y="409.0" font-size="10.0" font-family="helvetica">NT1.2</text>
    </g>
    <g>
     <circle stroke="black" stroke-width="0.5" fill="#aaffff" cx="243.0" cy="187.0" r="1.0"/>
     <text stroke="none" x="243.0" y="187.0" font-size="10.0" font-family="helvetica">NT1.3</text>
    </g>
    <g>
     <circle stroke="black" stroke-width="0.5" fill="#aaffff" cx="273.0" cy="598.0" r="1.0"/>
     <text stroke="none" x="273.0" y="598.0" font-size="10.0" font-family="helvetica">NT1.4</text>
    </g>
    <g>
     <circle stroke="black" stroke-width="0.5" fill="#aaffff" cx="282.0" cy="254.0" r="1.0"/>
     <text stroke="none" x="282.0" y="254.0" font-size="10.0" font-family="helvetica">NT1.5</text>
    </g>
    <g>
     <circle stroke="black" stroke-width="0.5" fill="#aaffff" cx="309.0" cy="9.0" r="1.0"/>
     <text stroke="none" x="309.0" y="9.0" font-size="20.0" font-family="helvetica"/>
    </g>
    <g>
     <circle stroke="black" stroke-width="0.5" fill="#aaffff" cx="309.0" cy="12.0" r="1.0"/>
     <text stroke="none" x="309.0" y="12.0" font-size="10.0" font-family="helvetica">NT1.7</text>
    </g>
    <g>
     <circle stroke="black" stroke-width="0.5" fill="#aaffff" cx="368.0" cy="426.0" r="1.0"/>
     <text stroke="none" x="368.0" y="426.0" font-size="10.0" font-family="helvetica">NT1.8</text>
    </g>
    <g>
     <circle stroke="black" stroke-width="0.5" fill="#aaffff" cx="376.0" cy="563.0" r="1.0"/>
     <text stroke="none" x="376.0" y="563.0" font-size="20.0" font-family="helvetica">M. obtusa CBS 7876T (AB019336)</text>
    </g>
    <g>
     <circle stroke="black" stroke-width="0.5" fill="#aaffff" cx="376.0" cy="565.0" r="1.0"/>
     <text stroke="none" x="376.0" y="565.0" font-size="10.0" font-family="helvetica">NT1.10</text>
    </g>
    <g>
     <circle stroke="black" stroke-width="0.5" fill="#aaffff" cx="389.0" cy="291.0" r="1.0"/>
     <text stroke="none" x="389.0" y="291.0" font-size="20.0" font-family="helvetica">M. dermatis M 9927T (ABO70356)</text>
    </g>
    <g>
     <circle stroke="black" stroke-width="0.5" fill="#aaffff" cx="390.0" cy="357.0" r="1.0"/>
     <text stroke="none" x="390.0" y="357.0" font-size="20.0" font-family="helvetica">M. pachydermatis CBS 18797 (ABO19337)</text>
    </g>
    <g>
     <circle stroke="black" stroke-width="0.5" fill="#aaffff" cx="393.0" cy="13.0" r="1.0"/>
     <text stroke="none" x="393.0" y="13.0" font-size="20.0" font-family="helvetica">M. slooffiae CBS 79567 (AB019348)</text>
    </g>
    <g>
     <circle stroke="black" stroke-width="0.5" fill="#aaffff" cx="410.0" cy="566.0" r="1.0"/>
     <text stroke="none" x="410.0" y="566.0" font-size="20.0" font-family="helvetica">M. obtusa CBS 7876T (AB019336)</text>
    </g>
    <g>
     <circle stroke="black" stroke-width="0.5" fill="#aaffff" cx="418.0" cy="118.0" r="1.0"/>
     <text stroke="none" x="418.0" y="118.0" font-size="10.0" font-family="helvetica">NT1.15</text>
    </g>
    <g>
     <circle stroke="black" stroke-width="0.5" fill="#aaffff" cx="420.0" cy="219.0" r="1.0"/>
     <text stroke="none" x="420.0" y="219.0" font-size="20.0" font-family="helvetica">M. sympodialis CBS 7222T (AB019345)</text>
    </g>
    <g>
     <circle stroke="black" stroke-width="0.5" fill="#aaffff" cx="432.0" cy="78.0" r="1.0"/>
     <text stroke="none" x="432.0" y="78.0" font-size="20.0" font-family="helvetica">M. nana NUSV1003T(AB075225)</text>
    </g>
    <g>
     <circle stroke="black" stroke-width="0.5" fill="#aaffff" cx="436.0" cy="148.0" r="1.0"/>
     <text stroke="none" x="436.0" y="148.0" font-size="10.0" font-family="helvetica">NT1.18</text>
    </g>
    <g>
     <circle stroke="black" stroke-width="0.5" fill="#aaffff" cx="440.0" cy="635.0" r="1.0"/>
     <text stroke="none" x="440.0" y="635.0" font-size="20.0" font-family="helvetica">M. furfur CBS 18787 (ABO19329)</text>
    </g>
    <g>
     <circle stroke="black" stroke-width="0.5" fill="#aaffff" cx="444.0" cy="106.0" r="1.0"/>
     <text stroke="none" x="444.0" y="106.0" font-size="20.0" font-family="helvetica">M. nana VG Luz 776 (AB105863)</text>
    </g>
    <g>
     <circle stroke="black" stroke-width="0.5" fill="#aaffff" cx="446.0" cy="185.0" r="1.0"/>
     <text stroke="none" x="446.0" y="185.0" font-size="20.0" font-family="helvetica">M. nana VM Pom Passarela (AB105863)</text>
    </g>
    <g>
     <circle stroke="black" stroke-width="0.5" fill="#aaffff" cx="468.0" cy="496.0" r="1.0"/>
     <text stroke="none" x="468.0" y="496.0" font-size="20.0" font-family="helvetica">M. restricta CBS 7877T (ABO19340)</text>
    </g>
    <g>
     <circle stroke="black" stroke-width="0.5" fill="#aaffff" cx="487.0" cy="426.0" r="1.0"/>
     <text stroke="none" x="487.0" y="426.0" font-size="20.0" font-family="helvetica">M. globosa CBS 79667 (AB019342)</text>
    </g>
    <line stroke="black" x1="309.0" y1="9.0" x2="309.0" y2="12.0" stroke-width="0.5"/>
    <line stroke="black" x1="393.0" y1="13.0" x2="309.0" y2="12.0" stroke-width="0.5"/>
    <line stroke="black" x1="487.0" y1="426.0" x2="368.0" y2="426.0" stroke-width="0.5"/>
    <line stroke="black" x1="389.0" y1="291.0" x2="282.0" y2="254.0" stroke-width="0.5"/>
    <line stroke="black" x1="376.0" y1="565.0" x2="376.0" y2="563.0" stroke-width="0.5"/>
    <line stroke="black" x1="410.0" y1="566.0" x2="376.0" y2="565.0" stroke-width="0.5"/>
    <line stroke="black" x1="444.0" y1="106.0" x2="436.0" y2="148.0" stroke-width="0.5"/>
    <line stroke="black" x1="146.0" y1="302.0" x2="169.0" y2="409.0" stroke-width="0.5"/>
    <line stroke="black" x1="146.0" y1="302.0" x2="243.0" y2="187.0" stroke-width="0.5"/>
    <line stroke="black" x1="169.0" y1="409.0" x2="273.0" y2="598.0" stroke-width="0.5"/>
    <line stroke="black" x1="169.0" y1="409.0" x2="368.0" y2="426.0" stroke-width="0.5"/>
    <line stroke="black" x1="243.0" y1="187.0" x2="418.0" y2="118.0" stroke-width="0.5"/>
    <line stroke="black" x1="243.0" y1="187.0" x2="282.0" y2="254.0" stroke-width="0.5"/>
    <line stroke="black" x1="273.0" y1="598.0" x2="376.0" y2="565.0" stroke-width="0.5"/>
    <line stroke="black" x1="418.0" y1="118.0" x2="436.0" y2="148.0" stroke-width="0.5"/>
    <line stroke="black" x1="309.0" y1="12.0" x2="146.0" y2="302.0" stroke-width="0.5"/>
    <line stroke="black" x1="390.0" y1="357.0" x2="169.0" y2="409.0" stroke-width="0.5"/>
    <line stroke="black" x1="420.0" y1="219.0" x2="282.0" y2="254.0" stroke-width="0.5"/>
    <line stroke="black" x1="440.0" y1="635.0" x2="273.0" y2="598.0" stroke-width="0.5"/>
    <line stroke="black" x1="468.0" y1="496.0" x2="368.0" y2="426.0" stroke-width="0.5"/>
    <line stroke="black" x1="432.0" y1="78.0" x2="418.0" y2="118.0" stroke-width="0.5"/>
    <line stroke="black" x1="446.0" y1="185.0" x2="436.0" y2="148.0" stroke-width="0.5"/>
   </g>
  </g>
 </svg>
</svg>
