<?xml version="1.0" encoding="UTF-8"?>
<svg height="800.0" width="700.0" xmlns="http://www.w3.org/2000/svg">
 <svg>
  <g>
   <g>
    <g>
     <circle stroke="black" stroke-width="0.5" fill="#aaffff" cx="0.0" cy="164.0" r="1.0"/>
     <text stroke="none" x="0.0" y="164.0" font-size="20.0" font-family="helvetica"/>
    </g>
    <g>
     <circle stroke="black" stroke-width="0.5" fill="#aaffff" cx="2.0" cy="164.0" r="1.0"/>
     <text stroke="none" x="2.0" y="164.0" font-size="10.0" font-family="helvetica">NT1.2</text>
    </g>
    <g>
     <circle stroke="black" stroke-width="0.5" fill="#aaffff" cx="230.0" cy="58.0" r="1.0"/>
     <text stroke="none" x="230.0" y="58.0" font-size="20.0" font-family="helvetica">Methanosarcina acetivorans CZAT (NC_O03552)</text>
    </g>
    <g>
     <circle stroke="black" stroke-width="0.5" fill="#aaffff" cx="231.0" cy="273.0" r="1.0"/>
     <text stroke="none" x="231.0" y="273.0" font-size="10.0" font-family="helvetica">NT1.4</text>
    </g>
    <g>
     <circle stroke="black" stroke-width="0.5" fill="#aaffff" cx="254.0" cy="514.0" r="1.0"/>
     <text stroke="none" x="254.0" y="514.0" font-size="10.0" font-family="helvetica">NT1.5</text>
    </g>
    <g>
     <circle stroke="black" stroke-width="0.5" fill="#aaffff" cx="258.0" cy="160.0" r="1.0"/>
     <text stroke="none" x="258.0" y="160.0" font-size="10.0" font-family="helvetica">NT1.6</text>
    </g>
    <g>
     <circle stroke="black" stroke-width="0.5" fill="#aaffff" cx="273.0" cy="437.0" r="1.0"/>
     <text stroke="none" x="273.0" y="437.0" font-size="10.0" font-family="helvetica">NT1.7</text>
    </g>
    <g>
     <circle stroke="black" stroke-width="0.5" fill="#aaffff" cx="279.0" cy="120.0" r="1.0"/>
     <text stroke="none" x="279.0" y="120.0" font-size="20.0" font-family="helvetica">94</text>
    </g>
    <g>
     <circle stroke="black" stroke-width="0.5" fill="#aaffff" cx="284.0" cy="593.0" r="1.0"/>
     <text stroke="none" x="284.0" y="593.0" font-size="10.0" font-family="helvetica">NT1.9</text>
    </g>
    <g>
     <circle stroke="black" stroke-width="0.5" fill="#aaffff" cx="288.0" cy="234.0" r="1.0"/>
     <text stroke="none" x="288.0" y="234.0" font-size="10.0" font-family="helvetica">NT1.10</text>
    </g>
    <g>
     <circle stroke="black" stroke-width="0.5" fill="#aaffff" cx="317.0" cy="474.0" r="1.0"/>
     <text stroke="none" x="317.0" y="474.0" font-size="10.0" font-family="helvetica">NT1.11</text>
    </g>
    <g>
     <circle stroke="black" stroke-width="0.5" fill="#aaffff" cx="336.0" cy="454.0" r="1.0"/>
     <text stroke="none" x="336.0" y="454.0" font-size="20.0" font-family="helvetica">Methanoculleus palmolei INSLUZT (Y16382)</text>
    </g>
    <g>
     <circle stroke="black" stroke-width="0.5" fill="#aaffff" cx="336.0" cy="355.0" r="1.0"/>
     <text stroke="none" x="336.0" y="355.0" font-size="10.0" font-family="helvetica">NT1.13</text>
    </g>
    <g>
     <circle stroke="black" stroke-width="0.5" fill="#aaffff" cx="339.0" cy="99.0" r="1.0"/>
     <text stroke="none" x="339.0" y="99.0" font-size="20.0" font-family="helvetica">Methanolinea tarda NOBI-17 (AB162774)</text>
    </g>
    <g>
     <circle stroke="black" stroke-width="0.5" fill="#aaffff" cx="351.0" cy="137.0" r="1.0"/>
     <text stroke="none" x="351.0" y="137.0" font-size="10.0" font-family="helvetica">NT1.15</text>
    </g>
    <g>
     <circle stroke="black" stroke-width="0.5" fill="#aaffff" cx="370.0" cy="633.0" r="1.0"/>
     <text stroke="none" x="370.0" y="633.0" font-size="10.0" font-family="helvetica">NT1.16</text>
    </g>
    <g>
     <circle stroke="black" stroke-width="0.5" fill="#aaffff" cx="378.0" cy="256.0" r="1.0"/>
     <text stroke="none" x="378.0" y="256.0" font-size="10.0" font-family="helvetica">NT1.17</text>
    </g>
    <g>
     <circle stroke="black" stroke-width="0.5" fill="#aaffff" cx="378.0" cy="392.0" r="1.0"/>
     <text stroke="none" x="378.0" y="392.0" font-size="20.0" font-family="helvetica">100</text>
    </g>
    <g>
     <circle stroke="black" stroke-width="0.5" fill="#aaffff" cx="384.0" cy="556.0" r="1.0"/>
     <text stroke="none" x="384.0" y="556.0" font-size="10.0" font-family="helvetica">NT1.19</text>
    </g>
    <g>
     <circle stroke="black" stroke-width="0.5" fill="#aaffff" cx="385.0" cy="574.0" r="1.0"/>
     <text stroke="none" x="385.0" y="574.0" font-size="20.0" font-family="helvetica">Methanofollis tationis Chile 9T (AFO95272)</text>
    </g>
    <g>
     <circle stroke="black" stroke-width="0.5" fill="#aaffff" cx="388.0" cy="494.0" r="1.0"/>
     <text stroke="none" x="388.0" y="494.0" font-size="20.0" font-family="helvetica">Methanoculleus thermophilus DSM 3915T (M59129)</text>
    </g>
    <g>
     <circle stroke="black" stroke-width="0.5" fill="#aaffff" cx="390.0" cy="315.0" r="1.0"/>
     <text stroke="none" x="390.0" y="315.0" font-size="10.0" font-family="helvetica">NT1.22</text>
    </g>
    <g>
     <circle stroke="black" stroke-width="0.5" fill="#aaffff" cx="399.0" cy="415.0" r="1.0"/>
     <text stroke="none" x="399.0" y="415.0" font-size="20.0" font-family="helvetica">Methanogenium cariaci JR1T (M59130)</text>
    </g>
    <g>
     <circle stroke="black" stroke-width="0.5" fill="#aaffff" cx="404.0" cy="533.0" r="1.0"/>
     <text stroke="none" x="404.0" y="533.0" font-size="20.0" font-family="helvetica">Methanofollis liminatans DSM 10196 (Y16429)</text>
    </g>
    <g>
     <circle stroke="black" stroke-width="0.5" fill="#aaffff" cx="408.0" cy="375.0" r="1.0"/>
     <text stroke="none" x="408.0" y="375.0" font-size="20.0" font-family="helvetica">Methanogenium organophilum CVT (M59131)</text>
    </g>
    <g>
     <circle stroke="black" stroke-width="0.5" fill="#aaffff" cx="424.0" cy="196.0" r="1.0"/>
     <text stroke="none" x="424.0" y="196.0" font-size="10.0" font-family="helvetica">NT1.26</text>
    </g>
    <g>
     <circle stroke="black" stroke-width="0.5" fill="#aaffff" cx="445.0" cy="335.0" r="1.0"/>
     <text stroke="none" x="445.0" y="335.0" font-size="20.0" font-family="helvetica">Methanoplanus petrolearius SEBR 4847T (U76631)</text>
    </g>
    <g>
     <circle stroke="black" stroke-width="0.5" fill="#aaffff" cx="450.0" cy="217.0" r="1.0"/>
     <text stroke="none" x="450.0" y="217.0" font-size="20.0" font-family="helvetica">Methanospirillum hungatei JF-1T (CPOOOZ54)</text>
    </g>
    <g>
     <circle stroke="black" stroke-width="0.5" fill="#aaffff" cx="469.0" cy="176.0" r="1.0"/>
     <text stroke="none" x="469.0" y="176.0" font-size="10.0" font-family="helvetica">NT1.29</text>
    </g>
    <g>
     <circle stroke="black" stroke-width="0.5" fill="#aaffff" cx="479.0" cy="613.0" r="1.0"/>
     <text stroke="none" x="479.0" y="613.0" font-size="20.0" font-family="helvetica">Methanocalculus halotolerans SEBR 4845T (AF033672)</text>
    </g>
    <g>
     <circle stroke="black" stroke-width="0.5" fill="#aaffff" cx="502.0" cy="295.0" r="1.0"/>
     <text stroke="none" x="502.0" y="295.0" font-size="20.0" font-family="helvetica">Methanomicrobium mobile BPT (M59142)</text>
    </g>
    <g>
     <circle stroke="black" stroke-width="0.5" fill="#aaffff" cx="579.0" cy="673.0" r="1.0"/>
     <text stroke="none" x="579.0" y="673.0" font-size="10.0" font-family="helvetica">NT1.32</text>
    </g>
    <g>
     <circle stroke="black" stroke-width="0.5" fill="#aaffff" cx="584.0" cy="692.0" r="1.0"/>
     <text stroke="none" x="584.0" y="692.0" font-size="20.0" font-family="helvetica">Methanocorpusculum labreanum ZT (AY260436)</text>
    </g>
    <g>
     <circle stroke="black" stroke-width="0.5" fill="#aaffff" cx="584.0" cy="653.0" r="1.0"/>
     <text stroke="none" x="584.0" y="653.0" font-size="20.0" font-family="helvetica">Methanocorpusculum paivum IF9601 b (AY057068)</text>
    </g>
    <line stroke="black" x1="2.0" y1="164.0" x2="0.0" y2="164.0" stroke-width="0.5"/>
    <line stroke="black" x1="450.0" y1="217.0" x2="424.0" y2="196.0" stroke-width="0.5"/>
    <line stroke="black" x1="385.0" y1="574.0" x2="384.0" y2="556.0" stroke-width="0.5"/>
    <line stroke="black" x1="404.0" y1="533.0" x2="384.0" y2="556.0" stroke-width="0.5"/>
    <line stroke="black" x1="479.0" y1="613.0" x2="370.0" y2="633.0" stroke-width="0.5"/>
    <line stroke="black" x1="502.0" y1="295.0" x2="390.0" y2="315.0" stroke-width="0.5"/>
    <line stroke="black" x1="584.0" y1="692.0" x2="579.0" y2="673.0" stroke-width="0.5"/>
    <line stroke="black" x1="2.0" y1="164.0" x2="231.0" y2="273.0" stroke-width="0.5"/>
    <line stroke="black" x1="231.0" y1="273.0" x2="254.0" y2="514.0" stroke-width="0.5"/>
    <line stroke="black" x1="231.0" y1="273.0" x2="258.0" y2="160.0" stroke-width="0.5"/>
    <line stroke="black" x1="254.0" y1="514.0" x2="284.0" y2="593.0" stroke-width="0.5"/>
    <line stroke="black" x1="254.0" y1="514.0" x2="273.0" y2="437.0" stroke-width="0.5"/>
    <line stroke="black" x1="273.0" y1="437.0" x2="317.0" y2="474.0" stroke-width="0.5"/>
    <line stroke="black" x1="273.0" y1="437.0" x2="336.0" y2="355.0" stroke-width="0.5"/>
    <line stroke="black" x1="284.0" y1="593.0" x2="370.0" y2="633.0" stroke-width="0.5"/>
    <line stroke="black" x1="284.0" y1="593.0" x2="384.0" y2="556.0" stroke-width="0.5"/>
    <line stroke="black" x1="370.0" y1="633.0" x2="579.0" y2="673.0" stroke-width="0.5"/>
    <line stroke="black" x1="336.0" y1="355.0" x2="378.0" y2="392.0" stroke-width="0.5"/>
    <line stroke="black" x1="336.0" y1="355.0" x2="390.0" y2="315.0" stroke-width="0.5"/>
    <line stroke="black" x1="230.0" y1="58.0" x2="2.0" y2="164.0" stroke-width="0.5"/>
    <line stroke="black" x1="339.0" y1="99.0" x2="279.0" y2="120.0" stroke-width="0.5"/>
    <line stroke="black" x1="336.0" y1="454.0" x2="317.0" y2="474.0" stroke-width="0.5"/>
    <line stroke="black" x1="388.0" y1="494.0" x2="317.0" y2="474.0" stroke-width="0.5"/>
    <line stroke="black" x1="399.0" y1="415.0" x2="378.0" y2="392.0" stroke-width="0.5"/>
    <line stroke="black" x1="408.0" y1="375.0" x2="378.0" y2="392.0" stroke-width="0.5"/>
    <line stroke="black" x1="445.0" y1="335.0" x2="390.0" y2="315.0" stroke-width="0.5"/>
    <line stroke="black" x1="584.0" y1="653.0" x2="579.0" y2="673.0" stroke-width="0.5"/>
   </g>
  </g>
 </svg>
</svg>
