<?xml version="1.0" encoding="UTF-8"?>
<svg height="800.0" width="700.0" xmlns="http://www.w3.org/2000/svg">
 <svg>
  <g>
   <g>
    <g>
     <circle stroke="black" stroke-width="0.5" fill="#aaffff" cx="104.0" cy="457.0" r="1.0"/>
     <text stroke="none" x="104.0" y="457.0" font-size="10.0" font-family="helvetica">NT1.1</text>
    </g>
    <g>
     <circle stroke="black" stroke-width="0.5" fill="#aaffff" cx="143.0" cy="714.0" r="1.0"/>
     <text stroke="none" x="143.0" y="714.0" font-size="10.0" font-family="helvetica">NT1.2</text>
    </g>
    <g>
     <circle stroke="black" stroke-width="0.5" fill="#aaffff" cx="155.0" cy="133.0" r="1.0"/>
     <text stroke="none" x="155.0" y="133.0" font-size="20.0" font-family="helvetica">91</text>
    </g>
    <g>
     <circle stroke="black" stroke-width="0.5" fill="#aaffff" cx="189.0" cy="229.0" r="1.0"/>
     <text stroke="none" x="189.0" y="229.0" font-size="10.0" font-family="helvetica">NT1.4</text>
    </g>
    <g>
     <circle stroke="black" stroke-width="0.5" fill="#aaffff" cx="214.0" cy="359.0" r="1.0"/>
     <text stroke="none" x="214.0" y="359.0" font-size="10.0" font-family="helvetica">NT1.5</text>
    </g>
    <g>
     <circle stroke="black" stroke-width="0.5" fill="#aaffff" cx="222.0" cy="556.0" r="1.0"/>
     <text stroke="none" x="222.0" y="556.0" font-size="10.0" font-family="helvetica">NT1.6</text>
    </g>
    <g>
     <circle stroke="black" stroke-width="0.5" fill="#aaffff" cx="223.0" cy="646.0" r="1.0"/>
     <text stroke="none" x="223.0" y="646.0" font-size="10.0" font-family="helvetica">NT1.7</text>
    </g>
    <g>
     <circle stroke="black" stroke-width="0.5" fill="#aaffff" cx="233.0" cy="203.0" r="1.0"/>
     <text stroke="none" x="233.0" y="203.0" font-size="10.0" font-family="helvetica">NT1.8</text>
    </g>
    <g>
     <circle stroke="black" stroke-width="0.5" fill="#aaffff" cx="256.0" cy="467.0" r="1.0"/>
     <text stroke="none" x="256.0" y="467.0" font-size="10.0" font-family="helvetica">NT1.9</text>
    </g>
    <g>
     <circle stroke="black" stroke-width="0.5" fill="#aaffff" cx="294.0" cy="656.0" r="1.0"/>
     <text stroke="none" x="294.0" y="656.0" font-size="20.0" font-family="helvetica">Nocardioides terrigena JCM 145827 (EF363712)</text>
    </g>
    <g>
     <circle stroke="black" stroke-width="0.5" fill="#aaffff" cx="296.0" cy="380.0" r="1.0"/>
     <text stroke="none" x="296.0" y="380.0" font-size="10.0" font-family="helvetica">NT1.11</text>
    </g>
    <g>
     <circle stroke="black" stroke-width="0.5" fill="#aaffff" cx="305.0" cy="102.0" r="1.0"/>
     <text stroke="none" x="305.0" y="102.0" font-size="10.0" font-family="helvetica">NT1.12</text>
    </g>
    <g>
     <circle stroke="black" stroke-width="0.5" fill="#aaffff" cx="312.0" cy="689.0" r="1.0"/>
     <text stroke="none" x="312.0" y="689.0" font-size="20.0" font-family="helvetica">Actinoalloteichus spitiensis JCM 124727 (AY426714)</text>
    </g>
    <g>
     <circle stroke="black" stroke-width="0.5" fill="#aaffff" cx="320.0" cy="294.0" r="1.0"/>
     <text stroke="none" x="320.0" y="294.0" font-size="10.0" font-family="helvetica">NT1.14</text>
    </g>
    <g>
     <circle stroke="black" stroke-width="0.5" fill="#aaffff" cx="323.0" cy="621.0" r="1.0"/>
     <text stroke="none" x="323.0" y="621.0" font-size="20.0" font-family="helvetica">Nocardioides panacihumi DSM 186607 (AB271053)</text>
    </g>
    <g>
     <circle stroke="black" stroke-width="0.5" fill="#aaffff" cx="330.0" cy="463.0" r="1.0"/>
     <text stroke="none" x="330.0" y="463.0" font-size="10.0" font-family="helvetica">NT1.16</text>
    </g>
    <g>
     <circle stroke="black" stroke-width="0.5" fill="#aaffff" cx="338.0" cy="168.0" r="1.0"/>
     <text stroke="none" x="338.0" y="168.0" font-size="10.0" font-family="helvetica">NT1.17</text>
    </g>
    <g>
     <circle stroke="black" stroke-width="0.5" fill="#aaffff" cx="339.0" cy="16.0" r="1.0"/>
     <text stroke="none" x="339.0" y="16.0" font-size="20.0" font-family="helvetica">Propioniciclava tarda WR0617 (AB298731)</text>
    </g>
    <g>
     <circle stroke="black" stroke-width="0.5" fill="#aaffff" cx="339.0" cy="151.0" r="1.0"/>
     <text stroke="none" x="339.0" y="151.0" font-size="20.0" font-family="helvetica"/>
    </g>
    <g>
     <circle stroke="black" stroke-width="0.5" fill="#aaffff" cx="339.0" cy="184.0" r="1.0"/>
     <text stroke="none" x="339.0" y="184.0" font-size="20.0" font-family="helvetica">Friedmanniella capsulata JCM 135227 (AFO84529)</text>
    </g>
    <g>
     <circle stroke="black" stroke-width="0.5" fill="#aaffff" cx="339.0" cy="34.0" r="1.0"/>
     <text stroke="none" x="339.0" y="34.0" font-size="20.0" font-family="helvetica">100</text>
    </g>
    <g>
     <circle stroke="black" stroke-width="0.5" fill="#aaffff" cx="347.0" cy="50.0" r="1.0"/>
     <text stroke="none" x="347.0" y="50.0" font-size="20.0" font-family="helvetica">Propioniciclava tarda WR054 (AB298730)</text>
    </g>
    <g>
     <circle stroke="black" stroke-width="0.5" fill="#aaffff" cx="348.0" cy="270.0" r="1.0"/>
     <text stroke="none" x="348.0" y="270.0" font-size="10.0" font-family="helvetica">NT1.23</text>
    </g>
    <g>
     <circle stroke="black" stroke-width="0.5" fill="#aaffff" cx="354.0" cy="739.0" r="1.0"/>
     <text stroke="none" x="354.0" y="739.0" font-size="20.0" font-family="helvetica">700</text>
    </g>
    <g>
     <circle stroke="black" stroke-width="0.5" fill="#aaffff" cx="355.0" cy="721.0" r="1.0"/>
     <text stroke="none" x="355.0" y="721.0" font-size="20.0" font-family="helvetica">Gordonia aichiensis JCM 60467 (X80633)</text>
    </g>
    <g>
     <circle stroke="black" stroke-width="0.5" fill="#aaffff" cx="356.0" cy="425.0" r="1.0"/>
     <text stroke="none" x="356.0" y="425.0" font-size="10.0" font-family="helvetica">NT1.26</text>
    </g>
    <g>
     <circle stroke="black" stroke-width="0.5" fill="#aaffff" cx="361.0" cy="118.0" r="1.0"/>
     <text stroke="none" x="361.0" y="118.0" font-size="20.0" font-family="helvetica">Propionibacterium avidum ATCC 255777 (AJOO3055)</text>
    </g>
    <g>
     <circle stroke="black" stroke-width="0.5" fill="#aaffff" cx="364.0" cy="219.0" r="1.0"/>
     <text stroke="none" x="364.0" y="219.0" font-size="20.0" font-family="helvetica">Tessaracoccus bendigoensis JCM 135257 (AF038504)</text>
    </g>
    <g>
     <circle stroke="black" stroke-width="0.5" fill="#aaffff" cx="366.0" cy="756.0" r="1.0"/>
     <text stroke="none" x="366.0" y="756.0" font-size="20.0" font-family="helvetica">Gordonia sputiJCM 32287 (X80634)</text>
    </g>
    <g>
     <circle stroke="black" stroke-width="0.5" fill="#aaffff" cx="370.0" cy="554.0" r="1.0"/>
     <text stroke="none" x="370.0" y="554.0" font-size="20.0" font-family="helvetica">Aestuariimicrobium kwangyangensis JCM 142047 (DQ830982)</text>
    </g>
    <g>
     <circle stroke="black" stroke-width="0.5" fill="#aaffff" cx="375.0" cy="589.0" r="1.0"/>
     <text stroke="none" x="375.0" y="589.0" font-size="20.0" font-family="helvetica">Luteococcus japonicus JCM 94157 (D85487)</text>
    </g>
    <g>
     <circle stroke="black" stroke-width="0.5" fill="#aaffff" cx="381.0" cy="791.0" r="1.0"/>
     <text stroke="none" x="381.0" y="791.0" font-size="20.0" font-family="helvetica">Acidimicrobium ferrooxidans JCM 154627 (U75647)</text>
    </g>
    <g>
     <circle stroke="black" stroke-width="0.5" fill="#aaffff" cx="382.0" cy="395.0" r="1.0"/>
     <text stroke="none" x="382.0" y="395.0" font-size="10.0" font-family="helvetica">NT1.33</text>
    </g>
    <g>
     <circle stroke="black" stroke-width="0.5" fill="#aaffff" cx="398.0" cy="83.0" r="1.0"/>
     <text stroke="none" x="398.0" y="83.0" font-size="20.0" font-family="helvetica">Propionibacterium acnes JCM 64257 (X53218)</text>
    </g>
    <g>
     <circle stroke="black" stroke-width="0.5" fill="#aaffff" cx="409.0" cy="454.0" r="1.0"/>
     <text stroke="none" x="409.0" y="454.0" font-size="20.0" font-family="helvetica">Microlunatus panaciterrae DSM 186627 (AB271051)</text>
    </g>
    <g>
     <circle stroke="black" stroke-width="0.5" fill="#aaffff" cx="412.0" cy="370.0" r="1.0"/>
     <text stroke="none" x="412.0" y="370.0" font-size="10.0" font-family="helvetica">NT1.36</text>
    </g>
    <g>
     <circle stroke="black" stroke-width="0.5" fill="#aaffff" cx="413.0" cy="252.0" r="1.0"/>
     <text stroke="none" x="413.0" y="252.0" font-size="20.0" font-family="helvetica">Propionicicella supetfundia ATCC BAA-12187 (DQ176646)</text>
    </g>
    <g>
     <circle stroke="black" stroke-width="0.5" fill="#aaffff" cx="417.0" cy="286.0" r="1.0"/>
     <text stroke="none" x="417.0" y="286.0" font-size="20.0" font-family="helvetica">Propionicimonas paludicola JCM 1 19337 (ABO7885)</text>
    </g>
    <g>
     <circle stroke="black" stroke-width="0.5" fill="#aaffff" cx="419.0" cy="510.0" r="1.0"/>
     <text stroke="none" x="419.0" y="510.0" font-size="20.0" font-family="helvetica">100</text>
    </g>
    <g>
     <circle stroke="black" stroke-width="0.5" fill="#aaffff" cx="421.0" cy="488.0" r="1.0"/>
     <text stroke="none" x="421.0" y="488.0" font-size="20.0" font-family="helvetica">Friedmanniella spumicola ACM 51217 (AF062535)</text>
    </g>
    <g>
     <circle stroke="black" stroke-width="0.5" fill="#aaffff" cx="428.0" cy="521.0" r="1.0"/>
     <text stroke="none" x="428.0" y="521.0" font-size="20.0" font-family="helvetica">Friedmanniella antarctica JCM 1 16517 (Z78206)</text>
    </g>
    <g>
     <circle stroke="black" stroke-width="0.5" fill="#aaffff" cx="429.0" cy="386.0" r="1.0"/>
     <text stroke="none" x="429.0" y="386.0" font-size="20.0" font-family="helvetica">Microlunatus phosphovorus JCM 93797 (Z78207)</text>
    </g>
    <g>
     <circle stroke="black" stroke-width="0.5" fill="#aaffff" cx="440.0" cy="421.0" r="1.0"/>
     <text stroke="none" x="440.0" y="421.0" font-size="20.0" font-family="helvetica">Microlunatus ginsengisoli DSM 179427 (AB245389)</text>
    </g>
    <g>
     <circle stroke="black" stroke-width="0.5" fill="#aaffff" cx="445.0" cy="353.0" r="1.0"/>
     <text stroke="none" x="445.0" y="353.0" font-size="20.0" font-family="helvetica">Microlunatus aurantiacus DSM 184247 (EF601828)</text>
    </g>
    <g>
     <circle stroke="black" stroke-width="0.5" fill="#aaffff" cx="463.0" cy="319.0" r="1.0"/>
     <text stroke="none" x="463.0" y="319.0" font-size="20.0" font-family="helvetica">Micropruina glycogenica JCM 102487 (AB01 2607)</text>
    </g>
    <line stroke="black" x1="339.0" y1="16.0" x2="339.0" y2="34.0" stroke-width="0.5"/>
    <line stroke="black" x1="361.0" y1="118.0" x2="305.0" y2="102.0" stroke-width="0.5"/>
    <line stroke="black" x1="398.0" y1="83.0" x2="305.0" y2="102.0" stroke-width="0.5"/>
    <line stroke="black" x1="339.0" y1="151.0" x2="338.0" y2="168.0" stroke-width="0.5"/>
    <line stroke="black" x1="339.0" y1="184.0" x2="338.0" y2="168.0" stroke-width="0.5"/>
    <line stroke="black" x1="364.0" y1="219.0" x2="233.0" y2="203.0" stroke-width="0.5"/>
    <line stroke="black" x1="375.0" y1="589.0" x2="222.0" y2="556.0" stroke-width="0.5"/>
    <line stroke="black" x1="294.0" y1="656.0" x2="223.0" y2="646.0" stroke-width="0.5"/>
    <line stroke="black" x1="355.0" y1="721.0" x2="354.0" y2="739.0" stroke-width="0.5"/>
    <line stroke="black" x1="409.0" y1="454.0" x2="356.0" y2="425.0" stroke-width="0.5"/>
    <line stroke="black" x1="366.0" y1="756.0" x2="354.0" y2="739.0" stroke-width="0.5"/>
    <line stroke="black" x1="428.0" y1="521.0" x2="419.0" y2="510.0" stroke-width="0.5"/>
    <line stroke="black" x1="429.0" y1="386.0" x2="412.0" y2="370.0" stroke-width="0.5"/>
    <line stroke="black" x1="440.0" y1="421.0" x2="382.0" y2="395.0" stroke-width="0.5"/>
    <line stroke="black" x1="339.0" y1="34.0" x2="155.0" y2="133.0" stroke-width="0.5"/>
    <line stroke="black" x1="155.0" y1="133.0" x2="104.0" y2="457.0" stroke-width="0.5"/>
    <line stroke="black" x1="155.0" y1="133.0" x2="189.0" y2="229.0" stroke-width="0.5"/>
    <line stroke="black" x1="189.0" y1="229.0" x2="214.0" y2="359.0" stroke-width="0.5"/>
    <line stroke="black" x1="189.0" y1="229.0" x2="305.0" y2="102.0" stroke-width="0.5"/>
    <line stroke="black" x1="214.0" y1="359.0" x2="222.0" y2="556.0" stroke-width="0.5"/>
    <line stroke="black" x1="214.0" y1="359.0" x2="233.0" y2="203.0" stroke-width="0.5"/>
    <line stroke="black" x1="104.0" y1="457.0" x2="223.0" y2="646.0" stroke-width="0.5"/>
    <line stroke="black" x1="104.0" y1="457.0" x2="143.0" y2="714.0" stroke-width="0.5"/>
    <line stroke="black" x1="222.0" y1="556.0" x2="256.0" y2="467.0" stroke-width="0.5"/>
    <line stroke="black" x1="233.0" y1="203.0" x2="338.0" y2="168.0" stroke-width="0.5"/>
    <line stroke="black" x1="256.0" y1="467.0" x2="296.0" y2="380.0" stroke-width="0.5"/>
    <line stroke="black" x1="296.0" y1="380.0" x2="330.0" y2="463.0" stroke-width="0.5"/>
    <line stroke="black" x1="296.0" y1="380.0" x2="320.0" y2="294.0" stroke-width="0.5"/>
    <line stroke="black" x1="143.0" y1="714.0" x2="354.0" y2="739.0" stroke-width="0.5"/>
    <line stroke="black" x1="320.0" y1="294.0" x2="348.0" y2="270.0" stroke-width="0.5"/>
    <line stroke="black" x1="330.0" y1="463.0" x2="419.0" y2="510.0" stroke-width="0.5"/>
    <line stroke="black" x1="330.0" y1="463.0" x2="356.0" y2="425.0" stroke-width="0.5"/>
    <line stroke="black" x1="356.0" y1="425.0" x2="382.0" y2="395.0" stroke-width="0.5"/>
    <line stroke="black" x1="382.0" y1="395.0" x2="412.0" y2="370.0" stroke-width="0.5"/>
    <line stroke="black" x1="419.0" y1="510.0" x2="421.0" y2="488.0" stroke-width="0.5"/>
    <line stroke="black" x1="381.0" y1="791.0" x2="104.0" y2="457.0" stroke-width="0.5"/>
    <line stroke="black" x1="312.0" y1="689.0" x2="143.0" y2="714.0" stroke-width="0.5"/>
    <line stroke="black" x1="323.0" y1="621.0" x2="223.0" y2="646.0" stroke-width="0.5"/>
    <line stroke="black" x1="370.0" y1="554.0" x2="256.0" y2="467.0" stroke-width="0.5"/>
    <line stroke="black" x1="347.0" y1="50.0" x2="339.0" y2="34.0" stroke-width="0.5"/>
    <line stroke="black" x1="413.0" y1="252.0" x2="348.0" y2="270.0" stroke-width="0.5"/>
    <line stroke="black" x1="417.0" y1="286.0" x2="348.0" y2="270.0" stroke-width="0.5"/>
    <line stroke="black" x1="463.0" y1="319.0" x2="320.0" y2="294.0" stroke-width="0.5"/>
    <line stroke="black" x1="445.0" y1="353.0" x2="412.0" y2="370.0" stroke-width="0.5"/>
   </g>
  </g>
 </svg>
</svg>
