<?xml version="1.0" encoding="UTF-8"?>
<svg height="800.0" width="700.0" xmlns="http://www.w3.org/2000/svg">
 <svg>
  <g>
   <g>
    <g>
     <circle stroke="black" stroke-width="0.5" fill="#aaffff" cx="289.0" cy="1045.0" r="1.0"/>
     <text stroke="none" x="289.0" y="1045.0" font-size="20.0" font-family="helvetica">Paenibacillus polymyxa IAM 134197 (AB042063)</text>
    </g>
    <g>
     <circle stroke="black" stroke-width="0.5" fill="#aaffff" cx="289.0" cy="619.0" r="1.0"/>
     <text stroke="none" x="289.0" y="619.0" font-size="10.0" font-family="helvetica">NT1.2</text>
    </g>
    <g>
     <circle stroke="black" stroke-width="0.5" fill="#aaffff" cx="293.0" cy="619.0" r="1.0"/>
     <text stroke="none" x="293.0" y="619.0" font-size="10.0" font-family="helvetica">NT1.3</text>
    </g>
    <g>
     <circle stroke="black" stroke-width="0.5" fill="#aaffff" cx="305.0" cy="503.0" r="1.0"/>
     <text stroke="none" x="305.0" y="503.0" font-size="10.0" font-family="helvetica">NT1.4</text>
    </g>
    <g>
     <circle stroke="black" stroke-width="0.5" fill="#aaffff" cx="305.0" cy="394.0" r="1.0"/>
     <text stroke="none" x="305.0" y="394.0" font-size="10.0" font-family="helvetica">NT1.5</text>
    </g>
    <g>
     <circle stroke="black" stroke-width="0.5" fill="#aaffff" cx="309.0" cy="394.0" r="1.0"/>
     <text stroke="none" x="309.0" y="394.0" font-size="10.0" font-family="helvetica">NT1.6</text>
    </g>
    <g>
     <circle stroke="black" stroke-width="0.5" fill="#aaffff" cx="309.0" cy="474.0" r="1.0"/>
     <text stroke="none" x="309.0" y="474.0" font-size="10.0" font-family="helvetica">NT1.7</text>
    </g>
    <g>
     <circle stroke="black" stroke-width="0.5" fill="#aaffff" cx="314.0" cy="503.0" r="1.0"/>
     <text stroke="none" x="314.0" y="503.0" font-size="10.0" font-family="helvetica">NT1.8</text>
    </g>
    <g>
     <circle stroke="black" stroke-width="0.5" fill="#aaffff" cx="315.0" cy="283.0" r="1.0"/>
     <text stroke="none" x="315.0" y="283.0" font-size="10.0" font-family="helvetica">NT1.9</text>
    </g>
    <g>
     <circle stroke="black" stroke-width="0.5" fill="#aaffff" cx="319.0" cy="283.0" r="1.0"/>
     <text stroke="none" x="319.0" y="283.0" font-size="10.0" font-family="helvetica">NT1.10</text>
    </g>
    <g>
     <circle stroke="black" stroke-width="0.5" fill="#aaffff" cx="322.0" cy="569.0" r="1.0"/>
     <text stroke="none" x="322.0" y="569.0" font-size="10.0" font-family="helvetica">NT1.11</text>
    </g>
    <g>
     <circle stroke="black" stroke-width="0.5" fill="#aaffff" cx="326.0" cy="570.0" r="1.0"/>
     <text stroke="none" x="326.0" y="570.0" font-size="10.0" font-family="helvetica">NT1.12</text>
    </g>
    <g>
     <circle stroke="black" stroke-width="0.5" fill="#aaffff" cx="328.0" cy="204.0" r="1.0"/>
     <text stroke="none" x="328.0" y="204.0" font-size="10.0" font-family="helvetica">NT1.13</text>
    </g>
    <g>
     <circle stroke="black" stroke-width="0.5" fill="#aaffff" cx="335.0" cy="628.0" r="1.0"/>
     <text stroke="none" x="335.0" y="628.0" font-size="10.0" font-family="helvetica">NT1.14</text>
    </g>
    <g>
     <circle stroke="black" stroke-width="0.5" fill="#aaffff" cx="337.0" cy="362.0" r="1.0"/>
     <text stroke="none" x="337.0" y="362.0" font-size="10.0" font-family="helvetica">NT1.15</text>
    </g>
    <g>
     <circle stroke="black" stroke-width="0.5" fill="#aaffff" cx="338.0" cy="843.0" r="1.0"/>
     <text stroke="none" x="338.0" y="843.0" font-size="10.0" font-family="helvetica">NT1.16</text>
    </g>
    <g>
     <circle stroke="black" stroke-width="0.5" fill="#aaffff" cx="340.0" cy="510.0" r="1.0"/>
     <text stroke="none" x="340.0" y="510.0" font-size="10.0" font-family="helvetica">NT1.17</text>
    </g>
    <g>
     <circle stroke="black" stroke-width="0.5" fill="#aaffff" cx="341.0" cy="437.0" r="1.0"/>
     <text stroke="none" x="341.0" y="437.0" font-size="10.0" font-family="helvetica">NT1.18</text>
    </g>
    <g>
     <circle stroke="black" stroke-width="0.5" fill="#aaffff" cx="342.0" cy="361.0" r="1.0"/>
     <text stroke="none" x="342.0" y="361.0" font-size="10.0" font-family="helvetica">NT1.19</text>
    </g>
    <g>
     <circle stroke="black" stroke-width="0.5" fill="#aaffff" cx="343.0" cy="844.0" r="1.0"/>
     <text stroke="none" x="343.0" y="844.0" font-size="10.0" font-family="helvetica">NT1.20</text>
    </g>
    <g>
     <circle stroke="black" stroke-width="0.5" fill="#aaffff" cx="345.0" cy="436.0" r="1.0"/>
     <text stroke="none" x="345.0" y="436.0" font-size="10.0" font-family="helvetica">NT1.21</text>
    </g>
    <g>
     <circle stroke="black" stroke-width="0.5" fill="#aaffff" cx="349.0" cy="147.0" r="1.0"/>
     <text stroke="none" x="349.0" y="147.0" font-size="10.0" font-family="helvetica">NT1.22</text>
    </g>
    <g>
     <circle stroke="black" stroke-width="0.5" fill="#aaffff" cx="358.0" cy="585.0" r="1.0"/>
     <text stroke="none" x="358.0" y="585.0" font-size="10.0" font-family="helvetica">NT1.23</text>
    </g>
    <g>
     <circle stroke="black" stroke-width="0.5" fill="#aaffff" cx="360.0" cy="510.0" r="1.0"/>
     <text stroke="none" x="360.0" y="510.0" font-size="10.0" font-family="helvetica">NT1.24</text>
    </g>
    <g>
     <circle stroke="black" stroke-width="0.5" fill="#aaffff" cx="362.0" cy="585.0" r="1.0"/>
     <text stroke="none" x="362.0" y="585.0" font-size="10.0" font-family="helvetica">NT1.25</text>
    </g>
    <g>
     <circle stroke="black" stroke-width="0.5" fill="#aaffff" cx="362.0" cy="898.0" r="1.0"/>
     <text stroke="none" x="362.0" y="898.0" font-size="10.0" font-family="helvetica">NT1.26</text>
    </g>
    <g>
     <circle stroke="black" stroke-width="0.5" fill="#aaffff" cx="364.0" cy="900.0" r="1.0"/>
     <text stroke="none" x="364.0" y="900.0" font-size="10.0" font-family="helvetica">NT1.27</text>
    </g>
    <g>
     <circle stroke="black" stroke-width="0.5" fill="#aaffff" cx="367.0" cy="900.0" r="1.0"/>
     <text stroke="none" x="367.0" y="900.0" font-size="10.0" font-family="helvetica">NT1.28</text>
    </g>
    <g>
     <circle stroke="black" stroke-width="0.5" fill="#aaffff" cx="367.0" cy="99.0" r="1.0"/>
     <text stroke="none" x="367.0" y="99.0" font-size="20.0" font-family="helvetica">55</text>
    </g>
    <g>
     <circle stroke="black" stroke-width="0.5" fill="#aaffff" cx="371.0" cy="99.0" r="1.0"/>
     <text stroke="none" x="371.0" y="99.0" font-size="10.0" font-family="helvetica">NT1.30</text>
    </g>
    <g>
     <circle stroke="black" stroke-width="0.5" fill="#aaffff" cx="376.0" cy="260.0" r="1.0"/>
     <text stroke="none" x="376.0" y="260.0" font-size="20.0" font-family="helvetica">96</text>
    </g>
    <g>
     <circle stroke="black" stroke-width="0.5" fill="#aaffff" cx="378.0" cy="262.0" r="1.0"/>
     <text stroke="none" x="378.0" y="262.0" font-size="20.0" font-family="helvetica">96</text>
    </g>
    <g>
     <circle stroke="black" stroke-width="0.5" fill="#aaffff" cx="381.0" cy="262.0" r="1.0"/>
     <text stroke="none" x="381.0" y="262.0" font-size="10.0" font-family="helvetica">NT1.33</text>
    </g>
    <g>
     <circle stroke="black" stroke-width="0.5" fill="#aaffff" cx="392.0" cy="287.0" r="1.0"/>
     <text stroke="none" x="392.0" y="287.0" font-size="10.0" font-family="helvetica">NT1.34</text>
    </g>
    <g>
     <circle stroke="black" stroke-width="0.5" fill="#aaffff" cx="394.0" cy="289.0" r="1.0"/>
     <text stroke="none" x="394.0" y="289.0" font-size="10.0" font-family="helvetica">NT1.35</text>
    </g>
    <g>
     <circle stroke="black" stroke-width="0.5" fill="#aaffff" cx="397.0" cy="289.0" r="1.0"/>
     <text stroke="none" x="397.0" y="289.0" font-size="10.0" font-family="helvetica">NT1.36</text>
    </g>
    <g>
     <circle stroke="black" stroke-width="0.5" fill="#aaffff" cx="399.0" cy="844.0" r="1.0"/>
     <text stroke="none" x="399.0" y="844.0" font-size="10.0" font-family="helvetica">NT1.37</text>
    </g>
    <g>
     <circle stroke="black" stroke-width="0.5" fill="#aaffff" cx="403.0" cy="844.0" r="1.0"/>
     <text stroke="none" x="403.0" y="844.0" font-size="10.0" font-family="helvetica">NT1.38</text>
    </g>
    <g>
     <circle stroke="black" stroke-width="0.5" fill="#aaffff" cx="414.0" cy="955.0" r="1.0"/>
     <text stroke="none" x="414.0" y="955.0" font-size="10.0" font-family="helvetica">NT1.39</text>
    </g>
    <g>
     <circle stroke="black" stroke-width="0.5" fill="#aaffff" cx="424.0" cy="919.0" r="1.0"/>
     <text stroke="none" x="424.0" y="919.0" font-size="10.0" font-family="helvetica">NT1.40</text>
    </g>
    <g>
     <circle stroke="black" stroke-width="0.5" fill="#aaffff" cx="438.0" cy="139.0" r="1.0"/>
     <text stroke="none" x="438.0" y="139.0" font-size="10.0" font-family="helvetica">NT1.41</text>
    </g>
    <g>
     <circle stroke="black" stroke-width="0.5" fill="#aaffff" cx="442.0" cy="140.0" r="1.0"/>
     <text stroke="none" x="442.0" y="140.0" font-size="10.0" font-family="helvetica">NT1.42</text>
    </g>
    <g>
     <circle stroke="black" stroke-width="0.5" fill="#aaffff" cx="447.0" cy="529.0" r="1.0"/>
     <text stroke="none" x="447.0" y="529.0" font-size="20.0" font-family="helvetica">Ornithinlbacillus bavariensls WSBC 240017 (Y13066)</text>
    </g>
    <g>
     <circle stroke="black" stroke-width="0.5" fill="#aaffff" cx="454.0" cy="56.0" r="1.0"/>
     <text stroke="none" x="454.0" y="56.0" font-size="10.0" font-family="helvetica">NT1.44</text>
    </g>
    <g>
     <circle stroke="black" stroke-width="0.5" fill="#aaffff" cx="458.0" cy="56.0" r="1.0"/>
     <text stroke="none" x="458.0" y="56.0" font-size="10.0" font-family="helvetica">NT1.45</text>
    </g>
    <g>
     <circle stroke="black" stroke-width="0.5" fill="#aaffff" cx="462.0" cy="917.0" r="1.0"/>
     <text stroke="none" x="462.0" y="917.0" font-size="10.0" font-family="helvetica">NT1.46</text>
    </g>
    <g>
     <circle stroke="black" stroke-width="0.5" fill="#aaffff" cx="471.0" cy="991.0" r="1.0"/>
     <text stroke="none" x="471.0" y="991.0" font-size="10.0" font-family="helvetica">NT1.47</text>
    </g>
    <g>
     <circle stroke="black" stroke-width="0.5" fill="#aaffff" cx="475.0" cy="992.0" r="1.0"/>
     <text stroke="none" x="475.0" y="992.0" font-size="10.0" font-family="helvetica">NT1.48</text>
    </g>
    <g>
     <circle stroke="black" stroke-width="0.5" fill="#aaffff" cx="477.0" cy="418.0" r="1.0"/>
     <text stroke="none" x="477.0" y="418.0" font-size="20.0" font-family="helvetica">Oceanobacillus picturae LMG 194927 (AJ315060)</text>
    </g>
    <g>
     <circle stroke="black" stroke-width="0.5" fill="#aaffff" cx="484.0" cy="491.0" r="1.0"/>
     <text stroke="none" x="484.0" y="491.0" font-size="10.0" font-family="helvetica">NT1.50</text>
    </g>
    <g>
     <circle stroke="black" stroke-width="0.5" fill="#aaffff" cx="484.0" cy="567.0" r="1.0"/>
     <text stroke="none" x="484.0" y="567.0" font-size="20.0" font-family="helvetica">Salirhabdus euzebyl CVS147 (AM292417)</text>
    </g>
    <g>
     <circle stroke="black" stroke-width="0.5" fill="#aaffff" cx="492.0" cy="603.0" r="1.0"/>
     <text stroke="none" x="492.0" y="603.0" font-size="20.0" font-family="helvetica">Salinlbacillus aidengensls 25-77 (AY321436)</text>
    </g>
    <g>
     <circle stroke="black" stroke-width="0.5" fill="#aaffff" cx="492.0" cy="29.0" r="1.0"/>
     <text stroke="none" x="492.0" y="29.0" font-size="10.0" font-family="helvetica">NT1.53</text>
    </g>
    <g>
     <circle stroke="black" stroke-width="0.5" fill="#aaffff" cx="496.0" cy="29.0" r="1.0"/>
     <text stroke="none" x="496.0" y="29.0" font-size="10.0" font-family="helvetica">NT1.54</text>
    </g>
    <g>
     <circle stroke="black" stroke-width="0.5" fill="#aaffff" cx="501.0" cy="381.0" r="1.0"/>
     <text stroke="none" x="501.0" y="381.0" font-size="20.0" font-family="helvetica">Virgibacillus pantothenticus IAM 110617 (D16275)</text>
    </g>
    <g>
     <circle stroke="black" stroke-width="0.5" fill="#aaffff" cx="513.0" cy="307.0" r="1.0"/>
     <text stroke="none" x="513.0" y="307.0" font-size="20.0" font-family="helvetica">Paraliobacillus ryukyuensls O15-77 (ABO87828)</text>
    </g>
    <g>
     <circle stroke="black" stroke-width="0.5" fill="#aaffff" cx="516.0" cy="455.0" r="1.0"/>
     <text stroke="none" x="516.0" y="455.0" font-size="20.0" font-family="helvetica">Oceanobacillus lheyensis HTE8317 (AB010863)</text>
    </g>
    <g>
     <circle stroke="black" stroke-width="0.5" fill="#aaffff" cx="516.0" cy="825.0" r="1.0"/>
     <text stroke="none" x="516.0" y="825.0" font-size="10.0" font-family="helvetica">NT1.58</text>
    </g>
    <g>
     <circle stroke="black" stroke-width="0.5" fill="#aaffff" cx="531.0" cy="121.0" r="1.0"/>
     <text stroke="none" x="531.0" y="121.0" font-size="10.0" font-family="helvetica">NT1.59</text>
    </g>
    <g>
     <circle stroke="black" stroke-width="0.5" fill="#aaffff" cx="532.0" cy="673.0" r="1.0"/>
     <text stroke="none" x="532.0" y="673.0" font-size="20.0" font-family="helvetica">00</text>
    </g>
    <g>
     <circle stroke="black" stroke-width="0.5" fill="#aaffff" cx="536.0" cy="673.0" r="1.0"/>
     <text stroke="none" x="536.0" y="673.0" font-size="10.0" font-family="helvetica">NT1.61</text>
    </g>
    <g>
     <circle stroke="black" stroke-width="0.5" fill="#aaffff" cx="549.0" cy="233.0" r="1.0"/>
     <text stroke="none" x="549.0" y="233.0" font-size="20.0" font-family="helvetica">Gracillibacillus halotolerans NN7 (AFO36922)</text>
    </g>
    <g>
     <circle stroke="black" stroke-width="0.5" fill="#aaffff" cx="561.0" cy="788.0" r="1.0"/>
     <text stroke="none" x="561.0" y="788.0" font-size="20.0" font-family="helvetica">Bacillus subtilis DSM 107 (AJ276351)</text>
    </g>
    <g>
     <circle stroke="black" stroke-width="0.5" fill="#aaffff" cx="562.0" cy="640.0" r="1.0"/>
     <text stroke="none" x="562.0" y="640.0" font-size="20.0" font-family="helvetica">Terrlbaclllus halophilus O02-0517 (AB243849)</text>
    </g>
    <g>
     <circle stroke="black" stroke-width="0.5" fill="#aaffff" cx="562.0" cy="752.0" r="1.0"/>
     <text stroke="none" x="562.0" y="752.0" font-size="20.0" font-family="helvetica">Pelaglbaclllus gorlensls CL-GR167 (DQ519571)</text>
    </g>
    <g>
     <circle stroke="black" stroke-width="0.5" fill="#aaffff" cx="562.0" cy="704.0" r="1.0"/>
     <text stroke="none" x="562.0" y="704.0" font-size="20.0" font-family="helvetica">100</text>
    </g>
    <g>
     <circle stroke="black" stroke-width="0.5" fill="#aaffff" cx="563.0" cy="677.0" r="1.0"/>
     <text stroke="none" x="563.0" y="677.0" font-size="10.0" font-family="helvetica">NT1.67</text>
    </g>
    <g>
     <circle stroke="black" stroke-width="0.5" fill="#aaffff" cx="566.0" cy="47.0" r="1.0"/>
     <text stroke="none" x="566.0" y="47.0" font-size="10.0" font-family="helvetica">NT1.68</text>
    </g>
    <g>
     <circle stroke="black" stroke-width="0.5" fill="#aaffff" cx="567.0" cy="705.0" r="1.0"/>
     <text stroke="none" x="567.0" y="705.0" font-size="20.0" font-family="helvetica">Terribacillus saccharophllus 002-0487 (AB243845)</text>
    </g>
    <g>
     <circle stroke="black" stroke-width="0.5" fill="#aaffff" cx="567.0" cy="862.0" r="1.0"/>
     <text stroke="none" x="567.0" y="862.0" font-size="20.0" font-family="helvetica">Bacillus muralis LMG 202387 (AJ628748)</text>
    </g>
    <g>
     <circle stroke="black" stroke-width="0.5" fill="#aaffff" cx="578.0" cy="159.0" r="1.0"/>
     <text stroke="none" x="578.0" y="159.0" font-size="20.0" font-family="helvetica">Halobacillus halophilus NCIMB 92517 (X62174)</text>
    </g>
    <g>
     <circle stroke="black" stroke-width="0.5" fill="#aaffff" cx="578.0" cy="270.0" r="1.0"/>
     <text stroke="none" x="578.0" y="270.0" font-size="20.0" font-family="helvetica"> Halolactibacillus halophilus M2-27 (AB196783)</text>
    </g>
    <g>
     <circle stroke="black" stroke-width="0.5" fill="#aaffff" cx="579.0" cy="344.0" r="1.0"/>
     <text stroke="none" x="579.0" y="344.0" font-size="20.0" font-family="helvetica">Lentlbacillus salicampi SF-207 (AY057394)</text>
    </g>
    <g>
     <circle stroke="black" stroke-width="0.5" fill="#aaffff" cx="603.0" cy="1011.0" r="1.0"/>
     <text stroke="none" x="603.0" y="1011.0" font-size="20.0" font-family="helvetica">Marinibacillus marinus ATCC 298417 (ABO21190)</text>
    </g>
    <g>
     <circle stroke="black" stroke-width="0.5" fill="#aaffff" cx="609.0" cy="85.0" r="1.0"/>
     <text stroke="none" x="609.0" y="85.0" font-size="20.0" font-family="helvetica">Alkallbaclllus haloalkallphllus DSM 52717 (AJ238041)</text>
    </g>
    <g>
     <circle stroke="black" stroke-width="0.5" fill="#aaffff" cx="609.0" cy="973.0" r="1.0"/>
     <text stroke="none" x="609.0" y="973.0" font-size="10.0" font-family="helvetica">NT1.76</text>
    </g>
    <g>
     <circle stroke="black" stroke-width="0.5" fill="#aaffff" cx="611.0" cy="11.0" r="1.0"/>
     <text stroke="none" x="611.0" y="11.0" font-size="20.0" font-family="helvetica">Tenuibacillus multivorans 28-17 (AY319933)</text>
    </g>
    <g>
     <circle stroke="black" stroke-width="0.5" fill="#aaffff" cx="613.0" cy="196.0" r="1.0"/>
     <text stroke="none" x="613.0" y="196.0" font-size="20.0" font-family="helvetica">Pontibaclllus chungwhensls BHO3OO627 (AY553296)</text>
    </g>
    <g>
     <circle stroke="black" stroke-width="0.5" fill="#aaffff" cx="639.0" cy="937.0" r="1.0"/>
     <text stroke="none" x="639.0" y="937.0" font-size="20.0" font-family="helvetica">Sporosarclna ureae DSM 22817 (AF202057)</text>
    </g>
    <g>
     <circle stroke="black" stroke-width="0.5" fill="#aaffff" cx="706.0" cy="899.0" r="1.0"/>
     <text stroke="none" x="706.0" y="899.0" font-size="20.0" font-family="helvetica">Lysinibacillus boronitolerans T-1037 (AB199591)</text>
    </g>
    <line stroke="black" x1="611.0" y1="11.0" x2="492.0" y2="29.0" stroke-width="0.5"/>
    <line stroke="black" x1="609.0" y1="85.0" x2="454.0" y2="56.0" stroke-width="0.5"/>
    <line stroke="black" x1="578.0" y1="159.0" x2="438.0" y2="139.0" stroke-width="0.5"/>
    <line stroke="black" x1="613.0" y1="196.0" x2="349.0" y2="147.0" stroke-width="0.5"/>
    <line stroke="black" x1="513.0" y1="307.0" x2="394.0" y2="289.0" stroke-width="0.5"/>
    <line stroke="black" x1="549.0" y1="233.0" x2="376.0" y2="260.0" stroke-width="0.5"/>
    <line stroke="black" x1="578.0" y1="270.0" x2="392.0" y2="287.0" stroke-width="0.5"/>
    <line stroke="black" x1="501.0" y1="381.0" x2="337.0" y2="362.0" stroke-width="0.5"/>
    <line stroke="black" x1="477.0" y1="418.0" x2="341.0" y2="437.0" stroke-width="0.5"/>
    <line stroke="black" x1="579.0" y1="344.0" x2="337.0" y2="362.0" stroke-width="0.5"/>
    <line stroke="black" x1="516.0" y1="455.0" x2="341.0" y2="437.0" stroke-width="0.5"/>
    <line stroke="black" x1="447.0" y1="529.0" x2="340.0" y2="510.0" stroke-width="0.5"/>
    <line stroke="black" x1="484.0" y1="567.0" x2="358.0" y2="585.0" stroke-width="0.5"/>
    <line stroke="black" x1="492.0" y1="603.0" x2="358.0" y2="585.0" stroke-width="0.5"/>
    <line stroke="black" x1="562.0" y1="640.0" x2="532.0" y2="673.0" stroke-width="0.5"/>
    <line stroke="black" x1="567.0" y1="705.0" x2="562.0" y2="704.0" stroke-width="0.5"/>
    <line stroke="black" x1="562.0" y1="752.0" x2="562.0" y2="704.0" stroke-width="0.5"/>
    <line stroke="black" x1="561.0" y1="788.0" x2="338.0" y2="843.0" stroke-width="0.5"/>
    <line stroke="black" x1="567.0" y1="862.0" x2="399.0" y2="844.0" stroke-width="0.5"/>
    <line stroke="black" x1="603.0" y1="1011.0" x2="471.0" y2="991.0" stroke-width="0.5"/>
    <line stroke="black" x1="639.0" y1="937.0" x2="424.0" y2="919.0" stroke-width="0.5"/>
    <line stroke="black" x1="706.0" y1="899.0" x2="424.0" y2="919.0" stroke-width="0.5"/>
    <line stroke="black" x1="289.0" y1="1045.0" x2="289.0" y2="619.0" stroke-width="0.5"/>
    <line stroke="black" x1="454.0" y1="56.0" x2="367.0" y2="99.0" stroke-width="0.5"/>
    <line stroke="black" x1="367.0" y1="99.0" x2="349.0" y2="147.0" stroke-width="0.5"/>
    <line stroke="black" x1="349.0" y1="147.0" x2="328.0" y2="204.0" stroke-width="0.5"/>
    <line stroke="black" x1="328.0" y1="204.0" x2="315.0" y2="283.0" stroke-width="0.5"/>
    <line stroke="black" x1="328.0" y1="204.0" x2="376.0" y2="260.0" stroke-width="0.5"/>
    <line stroke="black" x1="315.0" y1="283.0" x2="305.0" y2="394.0" stroke-width="0.5"/>
    <line stroke="black" x1="315.0" y1="283.0" x2="337.0" y2="362.0" stroke-width="0.5"/>
    <line stroke="black" x1="378.0" y1="262.0" x2="392.0" y2="287.0" stroke-width="0.5"/>
    <line stroke="black" x1="305.0" y1="394.0" x2="289.0" y2="619.0" stroke-width="0.5"/>
    <line stroke="black" x1="305.0" y1="394.0" x2="309.0" y2="474.0" stroke-width="0.5"/>
    <line stroke="black" x1="309.0" y1="474.0" x2="341.0" y2="437.0" stroke-width="0.5"/>
    <line stroke="black" x1="309.0" y1="474.0" x2="322.0" y2="569.0" stroke-width="0.5"/>
    <line stroke="black" x1="322.0" y1="569.0" x2="335.0" y2="628.0" stroke-width="0.5"/>
    <line stroke="black" x1="289.0" y1="619.0" x2="338.0" y2="843.0" stroke-width="0.5"/>
    <line stroke="black" x1="335.0" y1="628.0" x2="532.0" y2="673.0" stroke-width="0.5"/>
    <line stroke="black" x1="335.0" y1="628.0" x2="358.0" y2="585.0" stroke-width="0.5"/>
    <line stroke="black" x1="532.0" y1="673.0" x2="562.0" y2="704.0" stroke-width="0.5"/>
    <line stroke="black" x1="338.0" y1="843.0" x2="362.0" y2="898.0" stroke-width="0.5"/>
    <line stroke="black" x1="364.0" y1="900.0" x2="424.0" y2="919.0" stroke-width="0.5"/>
   </g>
  </g>
 </svg>
</svg>
