<?xml version="1.0" encoding="UTF-8"?>
<svg height="800.0" width="700.0" xmlns="http://www.w3.org/2000/svg">
 <svg>
  <g>
   <g>
    <g>
     <circle stroke="black" stroke-width="0.5" fill="#aaffff" cx="215.0" cy="342.0" r="1.0"/>
     <text stroke="none" x="215.0" y="342.0" font-size="10.0" font-family="helvetica">NT1.1</text>
    </g>
    <g>
     <circle stroke="black" stroke-width="0.5" fill="#aaffff" cx="250.0" cy="449.0" r="1.0"/>
     <text stroke="none" x="250.0" y="449.0" font-size="10.0" font-family="helvetica">NT1.2</text>
    </g>
    <g>
     <circle stroke="black" stroke-width="0.5" fill="#aaffff" cx="289.0" cy="233.0" r="1.0"/>
     <text stroke="none" x="289.0" y="233.0" font-size="10.0" font-family="helvetica">NT1.3</text>
    </g>
    <g>
     <circle stroke="black" stroke-width="0.5" fill="#aaffff" cx="307.0" cy="408.0" r="1.0"/>
     <text stroke="none" x="307.0" y="408.0" font-size="10.0" font-family="helvetica">NT1.4</text>
    </g>
    <g>
     <circle stroke="black" stroke-width="0.5" fill="#aaffff" cx="344.0" cy="181.0" r="1.0"/>
     <text stroke="none" x="344.0" y="181.0" font-size="20.0" font-family="helvetica">96</text>
    </g>
    <g>
     <circle stroke="black" stroke-width="0.5" fill="#aaffff" cx="369.0" cy="373.0" r="1.0"/>
     <text stroke="none" x="369.0" y="373.0" font-size="10.0" font-family="helvetica">NT1.6</text>
    </g>
    <g>
     <circle stroke="black" stroke-width="0.5" fill="#aaffff" cx="425.0" cy="139.0" r="1.0"/>
     <text stroke="none" x="425.0" y="139.0" font-size="10.0" font-family="helvetica">NT1.7</text>
    </g>
    <g>
     <circle stroke="black" stroke-width="0.5" fill="#aaffff" cx="445.0" cy="104.0" r="1.0"/>
     <text stroke="none" x="445.0" y="104.0" font-size="20.0" font-family="helvetica">80</text>
    </g>
    <g>
     <circle stroke="black" stroke-width="0.5" fill="#aaffff" cx="450.0" cy="64.0" r="1.0"/>
     <text stroke="none" x="450.0" y="64.0" font-size="20.0" font-family="helvetica">80</text>
    </g>
    <g>
     <circle stroke="black" stroke-width="0.5" fill="#aaffff" cx="491.0" cy="33.0" r="1.0"/>
     <text stroke="none" x="491.0" y="33.0" font-size="10.0" font-family="helvetica">NT1.10</text>
    </g>
    <g>
     <circle stroke="black" stroke-width="0.5" fill="#aaffff" cx="503.0" cy="284.0" r="1.0"/>
     <text stroke="none" x="503.0" y="284.0" font-size="20.0" font-family="helvetica">100</text>
    </g>
    <g>
     <circle stroke="black" stroke-width="0.5" fill="#aaffff" cx="505.0" cy="443.0" r="1.0"/>
     <text stroke="none" x="505.0" y="443.0" font-size="10.0" font-family="helvetica">NT1.12</text>
    </g>
    <g>
     <circle stroke="black" stroke-width="0.5" fill="#aaffff" cx="514.0" cy="16.0" r="1.0"/>
     <text stroke="none" x="514.0" y="16.0" font-size="20.0" font-family="helvetica">Salinicoccus roseus CCM 3516T (X94559)</text>
    </g>
    <g>
     <circle stroke="black" stroke-width="0.5" fill="#aaffff" cx="519.0" cy="269.0" r="1.0"/>
     <text stroke="none" x="519.0" y="269.0" font-size="10.0" font-family="helvetica">NT1.14</text>
    </g>
    <g>
     <circle stroke="black" stroke-width="0.5" fill="#aaffff" cx="521.0" cy="301.0" r="1.0"/>
     <text stroke="none" x="521.0" y="301.0" font-size="20.0" font-family="helvetica">Macrococcus carouselicus Kloos H8b16T (Y15713)</text>
    </g>
    <g>
     <circle stroke="black" stroke-width="0.5" fill="#aaffff" cx="531.0" cy="221.0" r="1.0"/>
     <text stroke="none" x="531.0" y="221.0" font-size="10.0" font-family="helvetica">NT1.16</text>
    </g>
    <g>
     <circle stroke="black" stroke-width="0.5" fill="#aaffff" cx="542.0" cy="143.0" r="1.0"/>
     <text stroke="none" x="542.0" y="143.0" font-size="20.0" font-family="helvetica">Salinicoccus hispanicus CCM 4148T (AY028927)</text>
    </g>
    <g>
     <circle stroke="black" stroke-width="0.5" fill="#aaffff" cx="547.0" cy="349.0" r="1.0"/>
     <text stroke="none" x="547.0" y="349.0" font-size="10.0" font-family="helvetica">NT1.18</text>
    </g>
    <g>
     <circle stroke="black" stroke-width="0.5" fill="#aaffff" cx="549.0" cy="94.0" r="1.0"/>
     <text stroke="none" x="549.0" y="94.0" font-size="20.0" font-family="helvetica">100</text>
    </g>
    <g>
     <circle stroke="black" stroke-width="0.5" fill="#aaffff" cx="553.0" cy="174.0" r="1.0"/>
     <text stroke="none" x="553.0" y="174.0" font-size="20.0" font-family="helvetica">Salinicoccus alkaliphilus AS 1.2691T (AF275710)</text>
    </g>
    <g>
     <circle stroke="black" stroke-width="0.5" fill="#aaffff" cx="558.0" cy="427.0" r="1.0"/>
     <text stroke="none" x="558.0" y="427.0" font-size="10.0" font-family="helvetica">NT1.21</text>
    </g>
    <g>
     <circle stroke="black" stroke-width="0.5" fill="#aaffff" cx="560.0" cy="111.0" r="1.0"/>
     <text stroke="none" x="560.0" y="111.0" font-size="20.0" font-family="helvetica">Salinicoccus jeotgali S2R53-5T (DQ471329)</text>
    </g>
    <g>
     <circle stroke="black" stroke-width="0.5" fill="#aaffff" cx="565.0" cy="79.0" r="1.0"/>
     <text stroke="none" x="565.0" y="79.0" font-size="20.0" font-family="helvetica">Salinicoccus salsiraiae RH1T (DQ333949)</text>
    </g>
    <g>
     <circle stroke="black" stroke-width="0.5" fill="#aaffff" cx="571.0" cy="205.0" r="1.0"/>
     <text stroke="none" x="571.0" y="205.0" font-size="10.0" font-family="helvetica">NT1.24</text>
    </g>
    <g>
     <circle stroke="black" stroke-width="0.5" fill="#aaffff" cx="593.0" cy="460.0" r="1.0"/>
     <text stroke="none" x="593.0" y="460.0" font-size="10.0" font-family="helvetica">NT1.25</text>
    </g>
    <g>
     <circle stroke="black" stroke-width="0.5" fill="#aaffff" cx="594.0" cy="332.0" r="1.0"/>
     <text stroke="none" x="594.0" y="332.0" font-size="10.0" font-family="helvetica">NT1.26</text>
    </g>
    <g>
     <circle stroke="black" stroke-width="0.5" fill="#aaffff" cx="602.0" cy="238.0" r="1.0"/>
     <text stroke="none" x="602.0" y="238.0" font-size="20.0" font-family="helvetica">Jeotgalicoccus psychrophilus YKJ-1 15T (AYO28926)</text>
    </g>
    <g>
     <circle stroke="black" stroke-width="0.5" fill="#aaffff" cx="627.0" cy="364.0" r="1.0"/>
     <text stroke="none" x="627.0" y="364.0" font-size="20.0" font-family="helvetica">Halobacillus halophilus NCIMB 92517 (X62174)</text>
    </g>
    <g>
     <circle stroke="black" stroke-width="0.5" fill="#aaffff" cx="641.0" cy="48.0" r="1.0"/>
     <text stroke="none" x="641.0" y="48.0" font-size="10.0" font-family="helvetica">NT1.29</text>
    </g>
    <g>
     <circle stroke="black" stroke-width="0.5" fill="#aaffff" cx="694.0" cy="491.0" r="1.0"/>
     <text stroke="none" x="694.0" y="491.0" font-size="20.0" font-family="helvetica">Tetragenococcus muriaticus JCM 1O006T (D88824)</text>
    </g>
    <g>
     <circle stroke="black" stroke-width="0.5" fill="#aaffff" cx="791.0" cy="396.0" r="1.0"/>
     <text stroke="none" x="791.0" y="396.0" font-size="10.0" font-family="helvetica">NT1.31</text>
    </g>
    <g>
     <circle stroke="black" stroke-width="0.5" fill="#aaffff" cx="791.0" cy="523.0" r="1.0"/>
     <text stroke="none" x="791.0" y="523.0" font-size="20.0" font-family="helvetica">Nesterenkonia xinjiangensis YIM 7OO97T (AY226510)</text>
    </g>
    <g>
     <circle stroke="black" stroke-width="0.5" fill="#aaffff" cx="4.0" cy="432.0" r="1.0"/>
     <text stroke="none" x="4.0" y="432.0" font-size="10.0" font-family="helvetica">NT1.33</text>
    </g>
    <line stroke="black" x1="514.0" y1="16.0" x2="491.0" y2="33.0" stroke-width="0.5"/>
    <line stroke="black" x1="560.0" y1="111.0" x2="549.0" y2="94.0" stroke-width="0.5"/>
    <line stroke="black" x1="542.0" y1="143.0" x2="445.0" y2="104.0" stroke-width="0.5"/>
    <line stroke="black" x1="553.0" y1="174.0" x2="425.0" y2="139.0" stroke-width="0.5"/>
    <line stroke="black" x1="602.0" y1="238.0" x2="531.0" y2="221.0" stroke-width="0.5"/>
    <line stroke="black" x1="521.0" y1="301.0" x2="503.0" y2="284.0" stroke-width="0.5"/>
    <line stroke="black" x1="627.0" y1="364.0" x2="547.0" y2="349.0" stroke-width="0.5"/>
    <line stroke="black" x1="450.0" y1="64.0" x2="445.0" y2="104.0" stroke-width="0.5"/>
    <line stroke="black" x1="450.0" y1="64.0" x2="549.0" y2="94.0" stroke-width="0.5"/>
    <line stroke="black" x1="445.0" y1="104.0" x2="425.0" y2="139.0" stroke-width="0.5"/>
    <line stroke="black" x1="425.0" y1="139.0" x2="344.0" y2="181.0" stroke-width="0.5"/>
    <line stroke="black" x1="344.0" y1="181.0" x2="289.0" y2="233.0" stroke-width="0.5"/>
    <line stroke="black" x1="289.0" y1="233.0" x2="215.0" y2="342.0" stroke-width="0.5"/>
    <line stroke="black" x1="215.0" y1="342.0" x2="250.0" y2="449.0" stroke-width="0.5"/>
    <line stroke="black" x1="4.0" y1="432.0" x2="791.0" y2="523.0" stroke-width="0.5"/>
    <line stroke="black" x1="4.0" y1="432.0" x2="215.0" y2="342.0" stroke-width="0.5"/>
    <line stroke="black" x1="694.0" y1="491.0" x2="250.0" y2="449.0" stroke-width="0.5"/>
    <line stroke="black" x1="565.0" y1="79.0" x2="549.0" y2="94.0" stroke-width="0.5"/>
   </g>
  </g>
 </svg>
</svg>
