<?xml version="1.0" encoding="UTF-8"?>
<svg height="800.0" width="700.0" xmlns="http://www.w3.org/2000/svg">
 <svg>
  <g>
   <g>
    <g>
     <circle stroke="black" stroke-width="0.5" fill="#aaffff" cx="76.0" cy="394.0" r="1.0"/>
     <text stroke="none" x="76.0" y="394.0" font-size="10.0" font-family="helvetica">NT1.1</text>
    </g>
    <g>
     <circle stroke="black" stroke-width="0.5" fill="#aaffff" cx="138.0" cy="338.0" r="1.0"/>
     <text stroke="none" x="138.0" y="338.0" font-size="10.0" font-family="helvetica">NT1.2</text>
    </g>
    <g>
     <circle stroke="black" stroke-width="0.5" fill="#aaffff" cx="188.0" cy="282.0" r="1.0"/>
     <text stroke="none" x="188.0" y="282.0" font-size="10.0" font-family="helvetica">NT1.3</text>
    </g>
    <g>
     <circle stroke="black" stroke-width="0.5" fill="#aaffff" cx="214.0" cy="662.0" r="1.0"/>
     <text stroke="none" x="214.0" y="662.0" font-size="10.0" font-family="helvetica">NT1.4</text>
    </g>
    <g>
     <circle stroke="black" stroke-width="0.5" fill="#aaffff" cx="294.0" cy="214.0" r="1.0"/>
     <text stroke="none" x="294.0" y="214.0" font-size="10.0" font-family="helvetica">NT1.5</text>
    </g>
    <g>
     <circle stroke="black" stroke-width="0.5" fill="#aaffff" cx="323.0" cy="158.0" r="1.0"/>
     <text stroke="none" x="323.0" y="158.0" font-size="10.0" font-family="helvetica">NT1.6</text>
    </g>
    <g>
     <circle stroke="black" stroke-width="0.5" fill="#aaffff" cx="341.0" cy="605.0" r="1.0"/>
     <text stroke="none" x="341.0" y="605.0" font-size="10.0" font-family="helvetica">NT1.7</text>
    </g>
    <g>
     <circle stroke="black" stroke-width="0.5" fill="#aaffff" cx="362.0" cy="120.0" r="1.0"/>
     <text stroke="none" x="362.0" y="120.0" font-size="10.0" font-family="helvetica">NT1.8</text>
    </g>
    <g>
     <circle stroke="black" stroke-width="0.5" fill="#aaffff" cx="397.0" cy="561.0" r="1.0"/>
     <text stroke="none" x="397.0" y="561.0" font-size="10.0" font-family="helvetica">NT1.9</text>
    </g>
    <g>
     <circle stroke="black" stroke-width="0.5" fill="#aaffff" cx="412.0" cy="271.0" r="1.0"/>
     <text stroke="none" x="412.0" y="271.0" font-size="10.0" font-family="helvetica">NT1.10</text>
    </g>
    <g>
     <circle stroke="black" stroke-width="0.5" fill="#aaffff" cx="426.0" cy="523.0" r="1.0"/>
     <text stroke="none" x="426.0" y="523.0" font-size="10.0" font-family="helvetica">NT1.11</text>
    </g>
    <g>
     <circle stroke="black" stroke-width="0.5" fill="#aaffff" cx="429.0" cy="721.0" r="1.0"/>
     <text stroke="none" x="429.0" y="721.0" font-size="10.0" font-family="helvetica">NT1.12</text>
    </g>
    <g>
     <circle stroke="black" stroke-width="0.5" fill="#aaffff" cx="461.0" cy="96.0" r="1.0"/>
     <text stroke="none" x="461.0" y="96.0" font-size="20.0" font-family="helvetica"/>
    </g>
    <g>
     <circle stroke="black" stroke-width="0.5" fill="#aaffff" cx="461.0" cy="146.0" r="1.0"/>
     <text stroke="none" x="461.0" y="146.0" font-size="20.0" font-family="helvetica">occidentalis CBS 283</text>
    </g>
    <g>
     <circle stroke="black" stroke-width="0.5" fill="#aaffff" cx="461.0" cy="195.0" r="1.0"/>
     <text stroke="none" x="461.0" y="195.0" font-size="20.0" font-family="helvetica">occidentalis CBS 8835</text>
    </g>
    <g>
     <circle stroke="black" stroke-width="0.5" fill="#aaffff" cx="461.0" cy="295.0" r="1.0"/>
     <text stroke="none" x="461.0" y="295.0" font-size="20.0" font-family="helvetica">occidentalis CBS 280</text>
    </g>
    <g>
     <circle stroke="black" stroke-width="0.5" fill="#aaffff" cx="461.0" cy="245.0" r="1.0"/>
     <text stroke="none" x="461.0" y="245.0" font-size="20.0" font-family="helvetica">occidentalis CBS 2592T</text>
    </g>
    <g>
     <circle stroke="black" stroke-width="0.5" fill="#aaffff" cx="461.0" cy="346.0" r="1.0"/>
     <text stroke="none" x="461.0" y="346.0" font-size="20.0" font-family="helvetica">occidentalis CBS 2578</text>
    </g>
    <g>
     <circle stroke="black" stroke-width="0.5" fill="#aaffff" cx="461.0" cy="396.0" r="1.0"/>
     <text stroke="none" x="461.0" y="396.0" font-size="20.0" font-family="helvetica">occidentalis CBS 282</text>
    </g>
    <g>
     <circle stroke="black" stroke-width="0.5" fill="#aaffff" cx="461.0" cy="446.0" r="1.0"/>
     <text stroke="none" x="461.0" y="446.0" font-size="20.0" font-family="helvetica">occidentalis CBS 2569</text>
    </g>
    <g>
     <circle stroke="black" stroke-width="0.5" fill="#aaffff" cx="461.0" cy="698.0" r="1.0"/>
     <text stroke="none" x="461.0" y="698.0" font-size="20.0" font-family="helvetica">oocidentalis CBS 6782</text>
    </g>
    <g>
     <circle stroke="black" stroke-width="0.5" fill="#aaffff" cx="461.0" cy="748.0" r="1.0"/>
     <text stroke="none" x="461.0" y="748.0" font-size="20.0" font-family="helvetica">occidentalis CBS 6783'</text>
    </g>
    <g>
     <circle stroke="black" stroke-width="0.5" fill="#aaffff" cx="461.0" cy="649.0" r="1.0"/>
     <text stroke="none" x="461.0" y="649.0" font-size="20.0" font-family="helvetica">occidentalis CBS 9921</text>
    </g>
    <g>
     <circle stroke="black" stroke-width="0.5" fill="#aaffff" cx="461.0" cy="595.0" r="1.0"/>
     <text stroke="none" x="461.0" y="595.0" font-size="20.0" font-family="helvetica">occidentalis CBS 9922 </text>
    </g>
    <g>
     <circle stroke="black" stroke-width="0.5" fill="#aaffff" cx="461.0" cy="545.0" r="1.0"/>
     <text stroke="none" x="461.0" y="545.0" font-size="20.0" font-family="helvetica">occidentalis</text>
    </g>
    <g>
     <circle stroke="black" stroke-width="0.5" fill="#aaffff" cx="461.0" cy="495.0" r="1.0"/>
     <text stroke="none" x="461.0" y="495.0" font-size="20.0" font-family="helvetica">occidentalis</text>
    </g>
    <line stroke="black" x1="461.0" y1="146.0" x2="362.0" y2="120.0" stroke-width="0.5"/>
    <line stroke="black" x1="461.0" y1="195.0" x2="323.0" y2="158.0" stroke-width="0.5"/>
    <line stroke="black" x1="461.0" y1="245.0" x2="412.0" y2="271.0" stroke-width="0.5"/>
    <line stroke="black" x1="461.0" y1="346.0" x2="188.0" y2="282.0" stroke-width="0.5"/>
    <line stroke="black" x1="461.0" y1="698.0" x2="429.0" y2="721.0" stroke-width="0.5"/>
    <line stroke="black" x1="461.0" y1="495.0" x2="426.0" y2="523.0" stroke-width="0.5"/>
    <line stroke="black" x1="362.0" y1="120.0" x2="323.0" y2="158.0" stroke-width="0.5"/>
    <line stroke="black" x1="323.0" y1="158.0" x2="294.0" y2="214.0" stroke-width="0.5"/>
    <line stroke="black" x1="294.0" y1="214.0" x2="188.0" y2="282.0" stroke-width="0.5"/>
    <line stroke="black" x1="294.0" y1="214.0" x2="412.0" y2="271.0" stroke-width="0.5"/>
    <line stroke="black" x1="188.0" y1="282.0" x2="138.0" y2="338.0" stroke-width="0.5"/>
    <line stroke="black" x1="138.0" y1="338.0" x2="76.0" y2="394.0" stroke-width="0.5"/>
    <line stroke="black" x1="214.0" y1="662.0" x2="429.0" y2="721.0" stroke-width="0.5"/>
    <line stroke="black" x1="214.0" y1="662.0" x2="341.0" y2="605.0" stroke-width="0.5"/>
    <line stroke="black" x1="341.0" y1="605.0" x2="397.0" y2="561.0" stroke-width="0.5"/>
    <line stroke="black" x1="397.0" y1="561.0" x2="426.0" y2="523.0" stroke-width="0.5"/>
    <line stroke="black" x1="76.0" y1="394.0" x2="214.0" y2="662.0" stroke-width="0.5"/>
    <line stroke="black" x1="461.0" y1="446.0" x2="76.0" y2="394.0" stroke-width="0.5"/>
    <line stroke="black" x1="461.0" y1="396.0" x2="138.0" y2="338.0" stroke-width="0.5"/>
    <line stroke="black" x1="461.0" y1="649.0" x2="341.0" y2="605.0" stroke-width="0.5"/>
    <line stroke="black" x1="461.0" y1="96.0" x2="362.0" y2="120.0" stroke-width="0.5"/>
    <line stroke="black" x1="461.0" y1="595.0" x2="397.0" y2="561.0" stroke-width="0.5"/>
    <line stroke="black" x1="461.0" y1="295.0" x2="412.0" y2="271.0" stroke-width="0.5"/>
    <line stroke="black" x1="461.0" y1="545.0" x2="426.0" y2="523.0" stroke-width="0.5"/>
    <line stroke="black" x1="461.0" y1="748.0" x2="429.0" y2="721.0" stroke-width="0.5"/>
   </g>
  </g>
 </svg>
</svg>
