<?xml version="1.0" encoding="UTF-8"?>
<svg height="800.0" width="700.0" xmlns="http://www.w3.org/2000/svg">
 <svg>
  <g>
   <g>
    <g>
     <circle stroke="black" stroke-width="0.5" fill="#aaffff" cx="251.0" cy="334.0" r="1.0"/>
     <text stroke="none" x="251.0" y="334.0" font-size="10.0" font-family="helvetica">NT1.1</text>
    </g>
    <g>
     <circle stroke="black" stroke-width="0.5" fill="#aaffff" cx="257.0" cy="251.0" r="1.0"/>
     <text stroke="none" x="257.0" y="251.0" font-size="10.0" font-family="helvetica">NT1.2</text>
    </g>
    <g>
     <circle stroke="black" stroke-width="0.5" fill="#aaffff" cx="299.0" cy="183.0" r="1.0"/>
     <text stroke="none" x="299.0" y="183.0" font-size="10.0" font-family="helvetica">NT1.3</text>
    </g>
    <g>
     <circle stroke="black" stroke-width="0.5" fill="#aaffff" cx="304.0" cy="120.0" r="1.0"/>
     <text stroke="none" x="304.0" y="120.0" font-size="10.0" font-family="helvetica">NT1.4</text>
    </g>
    <g>
     <circle stroke="black" stroke-width="0.5" fill="#aaffff" cx="339.0" cy="394.0" r="1.0"/>
     <text stroke="none" x="339.0" y="394.0" font-size="10.0" font-family="helvetica">NT1.5</text>
    </g>
    <g>
     <circle stroke="black" stroke-width="0.5" fill="#aaffff" cx="369.0" cy="318.0" r="1.0"/>
     <text stroke="none" x="369.0" y="318.0" font-size="10.0" font-family="helvetica">NT1.6</text>
    </g>
    <g>
     <circle stroke="black" stroke-width="0.5" fill="#aaffff" cx="377.0" cy="247.0" r="1.0"/>
     <text stroke="none" x="377.0" y="247.0" font-size="10.0" font-family="helvetica">NT1.7</text>
    </g>
    <g>
     <circle stroke="black" stroke-width="0.5" fill="#aaffff" cx="394.0" cy="156.0" r="1.0"/>
     <text stroke="none" x="394.0" y="156.0" font-size="10.0" font-family="helvetica">NT1.8</text>
    </g>
    <g>
     <circle stroke="black" stroke-width="0.5" fill="#aaffff" cx="398.0" cy="67.0" r="1.0"/>
     <text stroke="none" x="398.0" y="67.0" font-size="10.0" font-family="helvetica">NT1.9</text>
    </g>
    <g>
     <circle stroke="black" stroke-width="0.5" fill="#aaffff" cx="404.0" cy="501.0" r="1.0"/>
     <text stroke="none" x="404.0" y="501.0" font-size="10.0" font-family="helvetica">NT1.10</text>
    </g>
    <g>
     <circle stroke="black" stroke-width="0.5" fill="#aaffff" cx="439.0" cy="104.0" r="1.0"/>
     <text stroke="none" x="439.0" y="104.0" font-size="10.0" font-family="helvetica">NT1.11</text>
    </g>
    <g>
     <circle stroke="black" stroke-width="0.5" fill="#aaffff" cx="478.0" cy="21.0" r="1.0"/>
     <text stroke="none" x="478.0" y="21.0" font-size="20.0" font-family="helvetica">998</text>
    </g>
    <g>
     <circle stroke="black" stroke-width="0.5" fill="#aaffff" cx="489.0" cy="156.0" r="1.0"/>
     <text stroke="none" x="489.0" y="156.0" font-size="10.0" font-family="helvetica">NT1.13</text>
    </g>
    <g>
     <circle stroke="black" stroke-width="0.5" fill="#aaffff" cx="498.0" cy="47.0" r="1.0"/>
     <text stroke="none" x="498.0" y="47.0" font-size="20.0" font-family="helvetica">Vogesella perlucida DS-287 (EF626691)</text>
    </g>
    <g>
     <circle stroke="black" stroke-width="0.5" fill="#aaffff" cx="502.0" cy="228.0" r="1.0"/>
     <text stroke="none" x="502.0" y="228.0" font-size="20.0" font-family="helvetica">Laribacter hongkongensis HKU17 (AF389085)</text>
    </g>
    <g>
     <circle stroke="black" stroke-width="0.5" fill="#aaffff" cx="503.0" cy="12.0" r="1.0"/>
     <text stroke="none" x="503.0" y="12.0" font-size="20.0" font-family="helvetica">Vogesella mureinivorans strain 3897 (GO246809)</text>
    </g>
    <g>
     <circle stroke="black" stroke-width="0.5" fill="#aaffff" cx="505.0" cy="84.0" r="1.0"/>
     <text stroke="none" x="505.0" y="84.0" font-size="20.0" font-family="helvetica">Vogesella indigofera ATCC 197067 (U45995)</text>
    </g>
    <g>
     <circle stroke="black" stroke-width="0.5" fill="#aaffff" cx="513.0" cy="193.0" r="1.0"/>
     <text stroke="none" x="513.0" y="193.0" font-size="20.0" font-family="helvetica">Chromobacterium violaceum ATCC 124727 (M22510)</text>
    </g>
    <g>
     <circle stroke="black" stroke-width="0.5" fill="#aaffff" cx="513.0" cy="373.0" r="1.0"/>
     <text stroke="none" x="513.0" y="373.0" font-size="20.0" font-family="helvetica">Simonsiella muelleri ATCC 294537 (AF328147)</text>
    </g>
    <g>
     <circle stroke="black" stroke-width="0.5" fill="#aaffff" cx="515.0" cy="120.0" r="1.0"/>
     <text stroke="none" x="515.0" y="120.0" font-size="20.0" font-family="helvetica">Vogesella lacus GR137 (EU287927)</text>
    </g>
    <g>
     <circle stroke="black" stroke-width="0.5" fill="#aaffff" cx="517.0" cy="570.0" r="1.0"/>
     <text stroke="none" x="517.0" y="570.0" font-size="10.0" font-family="helvetica">NT1.21</text>
    </g>
    <g>
     <circle stroke="black" stroke-width="0.5" fill="#aaffff" cx="523.0" cy="409.0" r="1.0"/>
     <text stroke="none" x="523.0" y="409.0" font-size="10.0" font-family="helvetica">NT1.22</text>
    </g>
    <g>
     <circle stroke="black" stroke-width="0.5" fill="#aaffff" cx="527.0" cy="625.0" r="1.0"/>
     <text stroke="none" x="527.0" y="625.0" font-size="10.0" font-family="helvetica">NT1.23</text>
    </g>
    <g>
     <circle stroke="black" stroke-width="0.5" fill="#aaffff" cx="533.0" cy="517.0" r="1.0"/>
     <text stroke="none" x="533.0" y="517.0" font-size="20.0" font-family="helvetica">Neisseria flavescens ATCC 131207 (L06168)</text>
    </g>
    <g>
     <circle stroke="black" stroke-width="0.5" fill="#aaffff" cx="537.0" cy="553.0" r="1.0"/>
     <text stroke="none" x="537.0" y="553.0" font-size="20.0" font-family="helvetica">Neisseria polysaccharea ATCC 437687 (L06167)</text>
    </g>
    <g>
     <circle stroke="black" stroke-width="0.5" fill="#aaffff" cx="540.0" cy="445.0" r="1.0"/>
     <text stroke="none" x="540.0" y="445.0" font-size="20.0" font-family="helvetica">Conchiformibius steedae ATCC 274097 (AF328153)</text>
    </g>
    <g>
     <circle stroke="black" stroke-width="0.5" fill="#aaffff" cx="545.0" cy="336.0" r="1.0"/>
     <text stroke="none" x="545.0" y="336.0" font-size="10.0" font-family="helvetica">NT1.27</text>
    </g>
    <g>
     <circle stroke="black" stroke-width="0.5" fill="#aaffff" cx="548.0" cy="482.0" r="1.0"/>
     <text stroke="none" x="548.0" y="482.0" font-size="10.0" font-family="helvetica">NT1.28</text>
    </g>
    <g>
     <circle stroke="black" stroke-width="0.5" fill="#aaffff" cx="560.0" cy="301.0" r="1.0"/>
     <text stroke="none" x="560.0" y="301.0" font-size="10.0" font-family="helvetica">NT1.29</text>
    </g>
    <g>
     <circle stroke="black" stroke-width="0.5" fill="#aaffff" cx="572.0" cy="264.0" r="1.0"/>
     <text stroke="none" x="572.0" y="264.0" font-size="20.0" font-family="helvetica">Microvirgula aerodenitrificans SGLY27 (U89333)</text>
    </g>
    <g>
     <circle stroke="black" stroke-width="0.5" fill="#aaffff" cx="572.0" cy="590.0" r="1.0"/>
     <text stroke="none" x="572.0" y="590.0" font-size="20.0" font-family="helvetica">Neisseria gonorrhoeae NCTC 83757 (X07714)</text>
    </g>
    <g>
     <circle stroke="black" stroke-width="0.5" fill="#aaffff" cx="2.0" cy="392.0" r="1.0"/>
     <text stroke="none" x="2.0" y="392.0" font-size="10.0" font-family="helvetica">NT1.32</text>
    </g>
    <line stroke="black" x1="513.0" y1="193.0" x2="394.0" y2="156.0" stroke-width="0.5"/>
    <line stroke="black" x1="502.0" y1="228.0" x2="377.0" y2="247.0" stroke-width="0.5"/>
    <line stroke="black" x1="572.0" y1="264.0" x2="377.0" y2="247.0" stroke-width="0.5"/>
    <line stroke="black" x1="513.0" y1="373.0" x2="339.0" y2="394.0" stroke-width="0.5"/>
    <line stroke="black" x1="537.0" y1="553.0" x2="517.0" y2="570.0" stroke-width="0.5"/>
    <line stroke="black" x1="478.0" y1="21.0" x2="398.0" y2="67.0" stroke-width="0.5"/>
    <line stroke="black" x1="398.0" y1="67.0" x2="439.0" y2="104.0" stroke-width="0.5"/>
    <line stroke="black" x1="398.0" y1="67.0" x2="304.0" y2="120.0" stroke-width="0.5"/>
    <line stroke="black" x1="304.0" y1="120.0" x2="299.0" y2="183.0" stroke-width="0.5"/>
    <line stroke="black" x1="299.0" y1="183.0" x2="257.0" y2="251.0" stroke-width="0.5"/>
    <line stroke="black" x1="299.0" y1="183.0" x2="377.0" y2="247.0" stroke-width="0.5"/>
    <line stroke="black" x1="251.0" y1="334.0" x2="339.0" y2="394.0" stroke-width="0.5"/>
    <line stroke="black" x1="339.0" y1="394.0" x2="404.0" y2="501.0" stroke-width="0.5"/>
    <line stroke="black" x1="404.0" y1="501.0" x2="517.0" y2="570.0" stroke-width="0.5"/>
    <line stroke="black" x1="2.0" y1="392.0" x2="251.0" y2="334.0" stroke-width="0.5"/>
    <line stroke="black" x1="540.0" y1="445.0" x2="404.0" y2="501.0" stroke-width="0.5"/>
    <line stroke="black" x1="505.0" y1="84.0" x2="439.0" y2="104.0" stroke-width="0.5"/>
    <line stroke="black" x1="515.0" y1="120.0" x2="439.0" y2="104.0" stroke-width="0.5"/>
    <line stroke="black" x1="498.0" y1="47.0" x2="478.0" y2="21.0" stroke-width="0.5"/>
    <line stroke="black" x1="503.0" y1="12.0" x2="478.0" y2="21.0" stroke-width="0.5"/>
    <line stroke="black" x1="533.0" y1="517.0" x2="404.0" y2="501.0" stroke-width="0.5"/>
    <line stroke="black" x1="572.0" y1="590.0" x2="517.0" y2="570.0" stroke-width="0.5"/>
   </g>
  </g>
 </svg>
</svg>
