<?xml version="1.0" encoding="UTF-8"?>
<svg height="800.0" width="700.0" xmlns="http://www.w3.org/2000/svg">
 <svg>
  <g>
   <g>
    <g>
     <circle stroke="black" stroke-width="0.5" fill="#aaffff" cx="240.0" cy="357.0" r="1.0"/>
     <text stroke="none" x="240.0" y="357.0" font-size="10.0" font-family="helvetica">NT1.1</text>
    </g>
    <g>
     <circle stroke="black" stroke-width="0.5" fill="#aaffff" cx="241.0" cy="533.0" r="1.0"/>
     <text stroke="none" x="241.0" y="533.0" font-size="20.0" font-family="helvetica">Clostridium butyricum ATCC 19398T</text>
    </g>
    <g>
     <circle stroke="black" stroke-width="0.5" fill="#aaffff" cx="268.0" cy="446.0" r="1.0"/>
     <text stroke="none" x="268.0" y="446.0" font-size="10.0" font-family="helvetica">NT1.3</text>
    </g>
    <g>
     <circle stroke="black" stroke-width="0.5" fill="#aaffff" cx="275.0" cy="265.0" r="1.0"/>
     <text stroke="none" x="275.0" y="265.0" font-size="10.0" font-family="helvetica">NT1.4</text>
    </g>
    <g>
     <circle stroke="black" stroke-width="0.5" fill="#aaffff" cx="291.0" cy="331.0" r="1.0"/>
     <text stroke="none" x="291.0" y="331.0" font-size="10.0" font-family="helvetica">NT1.5</text>
    </g>
    <g>
     <circle stroke="black" stroke-width="0.5" fill="#aaffff" cx="528.0" cy="418.0" r="1.0"/>
     <text stroke="none" x="528.0" y="418.0" font-size="20.0" font-family="helvetica">Garciella nitratireducens DSM 15102T</text>
    </g>
    <g>
     <circle stroke="black" stroke-width="0.5" fill="#aaffff" cx="557.0" cy="303.0" r="1.0"/>
     <text stroke="none" x="557.0" y="303.0" font-size="20.0" font-family="helvetica">Alkalibacter saccharofermentans Z-79820T</text>
    </g>
    <g>
     <circle stroke="black" stroke-width="0.5" fill="#aaffff" cx="582.0" cy="476.0" r="1.0"/>
     <text stroke="none" x="582.0" y="476.0" font-size="20.0" font-family="helvetica">Caloranaerobacter azorensis MV1087T</text>
    </g>
    <g>
     <circle stroke="black" stroke-width="0.5" fill="#aaffff" cx="623.0" cy="196.0" r="1.0"/>
     <text stroke="none" x="623.0" y="196.0" font-size="10.0" font-family="helvetica">NT1.9</text>
    </g>
    <g>
     <circle stroke="black" stroke-width="0.5" fill="#aaffff" cx="655.0" cy="145.0" r="1.0"/>
     <text stroke="none" x="655.0" y="145.0" font-size="10.0" font-family="helvetica">NT1.10</text>
    </g>
    <g>
     <circle stroke="black" stroke-width="0.5" fill="#aaffff" cx="661.0" cy="361.0" r="1.0"/>
     <text stroke="none" x="661.0" y="361.0" font-size="20.0" font-family="helvetica">Pseudoramibacter alactolyticus ATCC 23263T</text>
    </g>
    <g>
     <circle stroke="black" stroke-width="0.5" fill="#aaffff" cx="670.0" cy="102.0" r="1.0"/>
     <text stroke="none" x="670.0" y="102.0" font-size="10.0" font-family="helvetica">NT1.12</text>
    </g>
    <g>
     <circle stroke="black" stroke-width="0.5" fill="#aaffff" cx="671.0" cy="131.0" r="1.0"/>
     <text stroke="none" x="671.0" y="131.0" font-size="20.0" font-family="helvetica">Anaerobranca horikoshii JWIYL-138T</text>
    </g>
    <g>
     <circle stroke="black" stroke-width="0.5" fill="#aaffff" cx="677.0" cy="72.0" r="1.0"/>
     <text stroke="none" x="677.0" y="72.0" font-size="20.0" font-family="helvetica">strain JWNK-KS5Y1</text>
    </g>
    <g>
     <circle stroke="black" stroke-width="0.5" fill="#aaffff" cx="686.0" cy="245.0" r="1.0"/>
     <text stroke="none" x="686.0" y="245.0" font-size="20.0" font-family="helvetica">Anaerobranca gottschalkii LBS3T</text>
    </g>
    <g>
     <circle stroke="black" stroke-width="0.5" fill="#aaffff" cx="706.0" cy="187.0" r="1.0"/>
     <text stroke="none" x="706.0" y="187.0" font-size="20.0" font-family="helvetica">Anaerobranca califomiensis PAOHA-1T</text>
    </g>
    <line stroke="black" x1="671.0" y1="131.0" x2="670.0" y2="102.0" stroke-width="0.5"/>
    <line stroke="black" x1="706.0" y1="187.0" x2="655.0" y2="145.0" stroke-width="0.5"/>
    <line stroke="black" x1="686.0" y1="245.0" x2="623.0" y2="196.0" stroke-width="0.5"/>
    <line stroke="black" x1="670.0" y1="102.0" x2="655.0" y2="145.0" stroke-width="0.5"/>
    <line stroke="black" x1="655.0" y1="145.0" x2="623.0" y2="196.0" stroke-width="0.5"/>
    <line stroke="black" x1="623.0" y1="196.0" x2="275.0" y2="265.0" stroke-width="0.5"/>
    <line stroke="black" x1="275.0" y1="265.0" x2="240.0" y2="357.0" stroke-width="0.5"/>
    <line stroke="black" x1="275.0" y1="265.0" x2="291.0" y2="331.0" stroke-width="0.5"/>
    <line stroke="black" x1="240.0" y1="357.0" x2="268.0" y2="446.0" stroke-width="0.5"/>
    <line stroke="black" x1="241.0" y1="533.0" x2="240.0" y2="357.0" stroke-width="0.5"/>
    <line stroke="black" x1="528.0" y1="418.0" x2="268.0" y2="446.0" stroke-width="0.5"/>
    <line stroke="black" x1="582.0" y1="476.0" x2="268.0" y2="446.0" stroke-width="0.5"/>
    <line stroke="black" x1="557.0" y1="303.0" x2="291.0" y2="331.0" stroke-width="0.5"/>
    <line stroke="black" x1="661.0" y1="361.0" x2="291.0" y2="331.0" stroke-width="0.5"/>
    <line stroke="black" x1="677.0" y1="72.0" x2="670.0" y2="102.0" stroke-width="0.5"/>
   </g>
  </g>
 </svg>
</svg>
