<?xml version="1.0" encoding="UTF-8"?>
<svg height="800.0" width="700.0" xmlns="http://www.w3.org/2000/svg">
 <svg>
  <g>
   <g>
    <g>
     <circle stroke="black" stroke-width="0.5" fill="#aaffff" cx="121.0" cy="525.0" r="1.0"/>
     <text stroke="none" x="121.0" y="525.0" font-size="10.0" font-family="helvetica">NT1.1</text>
    </g>
    <g>
     <circle stroke="black" stroke-width="0.5" fill="#aaffff" cx="245.0" cy="637.0" r="1.0"/>
     <text stroke="none" x="245.0" y="637.0" font-size="20.0" font-family="helvetica">92</text>
    </g>
    <g>
     <circle stroke="black" stroke-width="0.5" fill="#aaffff" cx="264.0" cy="412.0" r="1.0"/>
     <text stroke="none" x="264.0" y="412.0" font-size="20.0" font-family="helvetica">98</text>
    </g>
    <g>
     <circle stroke="black" stroke-width="0.5" fill="#aaffff" cx="296.0" cy="863.0" r="1.0"/>
     <text stroke="none" x="296.0" y="863.0" font-size="20.0" font-family="helvetica">Bensingtonia yamatoana CBS 72437 (AF189896)</text>
    </g>
    <g>
     <circle stroke="black" stroke-width="0.5" fill="#aaffff" cx="319.0" cy="704.0" r="1.0"/>
     <text stroke="none" x="319.0" y="704.0" font-size="20.0" font-family="helvetica">71</text>
    </g>
    <g>
     <circle stroke="black" stroke-width="0.5" fill="#aaffff" cx="371.0" cy="469.0" r="1.0"/>
     <text stroke="none" x="371.0" y="469.0" font-size="20.0" font-family="helvetica">100</text>
    </g>
    <g>
     <circle stroke="black" stroke-width="0.5" fill="#aaffff" cx="378.0" cy="747.0" r="1.0"/>
     <text stroke="none" x="378.0" y="747.0" font-size="20.0" font-family="helvetica">74</text>
    </g>
    <g>
     <circle stroke="black" stroke-width="0.5" fill="#aaffff" cx="383.0" cy="710.0" r="1.0"/>
     <text stroke="none" x="383.0" y="710.0" font-size="10.0" font-family="helvetica">NT1.8</text>
    </g>
    <g>
     <circle stroke="black" stroke-width="0.5" fill="#aaffff" cx="385.0" cy="572.0" r="1.0"/>
     <text stroke="none" x="385.0" y="572.0" font-size="20.0" font-family="helvetica">91</text>
    </g>
    <g>
     <circle stroke="black" stroke-width="0.5" fill="#aaffff" cx="394.0" cy="452.0" r="1.0"/>
     <text stroke="none" x="394.0" y="452.0" font-size="10.0" font-family="helvetica">NT1.10</text>
    </g>
    <g>
     <circle stroke="black" stroke-width="0.5" fill="#aaffff" cx="396.0" cy="657.0" r="1.0"/>
     <text stroke="none" x="396.0" y="657.0" font-size="20.0" font-family="helvetica">Sporobolomyoes poonsookiae IGC 56997 (AF387124)</text>
    </g>
    <g>
     <circle stroke="black" stroke-width="0.5" fill="#aaffff" cx="424.0" cy="787.0" r="1.0"/>
     <text stroke="none" x="424.0" y="787.0" font-size="20.0" font-family="helvetica">71</text>
    </g>
    <g>
     <circle stroke="black" stroke-width="0.5" fill="#aaffff" cx="438.0" cy="487.0" r="1.0"/>
     <text stroke="none" x="438.0" y="487.0" font-size="20.0" font-family="helvetica"> Sporidiobolus salmonicolor CBS 4907 (AF070439)</text>
    </g>
    <g>
     <circle stroke="black" stroke-width="0.5" fill="#aaffff" cx="442.0" cy="537.0" r="1.0"/>
     <text stroke="none" x="442.0" y="537.0" font-size="20.0" font-family="helvetica">79</text>
    </g>
    <g>
     <circle stroke="black" stroke-width="0.5" fill="#aaffff" cx="470.0" cy="692.0" r="1.0"/>
     <text stroke="none" x="470.0" y="692.0" font-size="20.0" font-family="helvetica">Sporidiobolus ruineniae CBS 50017 (AF070438)</text>
    </g>
    <g>
     <circle stroke="black" stroke-width="0.5" fill="#aaffff" cx="487.0" cy="355.0" r="1.0"/>
     <text stroke="none" x="487.0" y="355.0" font-size="20.0" font-family="helvetica">100</text>
    </g>
    <g>
     <circle stroke="black" stroke-width="0.5" fill="#aaffff" cx="509.0" cy="727.0" r="1.0"/>
     <text stroke="none" x="509.0" y="727.0" font-size="20.0" font-family="helvetica">Sporidiobolus microsporus CBS 70417 (AFO70436)</text>
    </g>
    <g>
     <circle stroke="black" stroke-width="0.5" fill="#aaffff" cx="511.0" cy="289.0" r="1.0"/>
     <text stroke="none" x="511.0" y="289.0" font-size="10.0" font-family="helvetica">NT1.18</text>
    </g>
    <g>
     <circle stroke="black" stroke-width="0.5" fill="#aaffff" cx="516.0" cy="812.0" r="1.0"/>
     <text stroke="none" x="516.0" y="812.0" font-size="20.0" font-family="helvetica">98</text>
    </g>
    <g>
     <circle stroke="black" stroke-width="0.5" fill="#aaffff" cx="538.0" cy="606.0" r="1.0"/>
     <text stroke="none" x="538.0" y="606.0" font-size="20.0" font-family="helvetica">99</text>
    </g>
    <g>
     <circle stroke="black" stroke-width="0.5" fill="#aaffff" cx="560.0" cy="384.0" r="1.0"/>
     <text stroke="none" x="560.0" y="384.0" font-size="20.0" font-family="helvetica"> Sporobolomyces blumeae JCM 102127 (AYO70007)</text>
    </g>
    <g>
     <circle stroke="black" stroke-width="0.5" fill="#aaffff" cx="568.0" cy="196.0" r="1.0"/>
     <text stroke="none" x="568.0" y="196.0" font-size="20.0" font-family="helvetica">80</text>
    </g>
    <g>
     <circle stroke="black" stroke-width="0.5" fill="#aaffff" cx="572.0" cy="795.0" r="1.0"/>
     <text stroke="none" x="572.0" y="795.0" font-size="20.0" font-family="helvetica"> Sporobolomyces adoratus IGC 56967 (AF387126)</text>
    </g>
    <g>
     <circle stroke="black" stroke-width="0.5" fill="#aaffff" cx="580.0" cy="248.0" r="1.0"/>
     <text stroke="none" x="580.0" y="248.0" font-size="20.0" font-family="helvetica">61 </text>
    </g>
    <g>
     <circle stroke="black" stroke-width="0.5" fill="#aaffff" cx="581.0" cy="829.0" r="1.0"/>
     <text stroke="none" x="581.0" y="829.0" font-size="20.0" font-family="helvetica"> Sporobolomyces nylandii IGC 56937 (AF387123)</text>
    </g>
    <g>
     <circle stroke="black" stroke-width="0.5" fill="#aaffff" cx="585.0" cy="139.0" r="1.0"/>
     <text stroke="none" x="585.0" y="139.0" font-size="10.0" font-family="helvetica">NT1.26</text>
    </g>
    <g>
     <circle stroke="black" stroke-width="0.5" fill="#aaffff" cx="588.0" cy="285.0" r="1.0"/>
     <text stroke="none" x="588.0" y="285.0" font-size="20.0" font-family="helvetica">61 </text>
    </g>
    <g>
     <circle stroke="black" stroke-width="0.5" fill="#aaffff" cx="589.0" cy="761.0" r="1.0"/>
     <text stroke="none" x="589.0" y="761.0" font-size="20.0" font-family="helvetica">Rhodosporidium lusitaniae CBS 76047 (AF070423)</text>
    </g>
    <g>
     <circle stroke="black" stroke-width="0.5" fill="#aaffff" cx="599.0" cy="101.0" r="1.0"/>
     <text stroke="none" x="599.0" y="101.0" font-size="10.0" font-family="helvetica">NT1.29</text>
    </g>
    <g>
     <circle stroke="black" stroke-width="0.5" fill="#aaffff" cx="603.0" cy="179.0" r="1.0"/>
     <text stroke="none" x="603.0" y="179.0" font-size="20.0" font-family="helvetica"> Sporidiobalus pararoseus CBS 4917 (AF189977)</text>
    </g>
    <g>
     <circle stroke="black" stroke-width="0.5" fill="#aaffff" cx="612.0" cy="58.0" r="1.0"/>
     <text stroke="none" x="612.0" y="58.0" font-size="10.0" font-family="helvetica">NT1.31</text>
    </g>
    <g>
     <circle stroke="black" stroke-width="0.5" fill="#aaffff" cx="614.0" cy="246.0" r="1.0"/>
     <text stroke="none" x="614.0" y="246.0" font-size="20.0" font-family="helvetica">Sporobolomyces carnicolor CBS 42157 (AYO70008)</text>
    </g>
    <g>
     <circle stroke="black" stroke-width="0.5" fill="#aaffff" cx="617.0" cy="624.0" r="1.0"/>
     <text stroke="none" x="617.0" y="624.0" font-size="20.0" font-family="helvetica">Sporobolomyces alborubescens CBS 4827 (AF207886)</text>
    </g>
    <g>
     <circle stroke="black" stroke-width="0.5" fill="#aaffff" cx="626.0" cy="24.0" r="1.0"/>
     <text stroke="none" x="626.0" y="24.0" font-size="10.0" font-family="helvetica">NT1.34</text>
    </g>
    <g>
     <circle stroke="black" stroke-width="0.5" fill="#aaffff" cx="629.0" cy="589.0" r="1.0"/>
     <text stroke="none" x="629.0" y="589.0" font-size="20.0" font-family="helvetica">Rhodosporidium sphaerocarpum CBS 59397 (AF070425)</text>
    </g>
    <g>
     <circle stroke="black" stroke-width="0.5" fill="#aaffff" cx="650.0" cy="212.0" r="1.0"/>
     <text stroke="none" x="650.0" y="212.0" font-size="10.0" font-family="helvetica">NT1.36</text>
    </g>
    <g>
     <circle stroke="black" stroke-width="0.5" fill="#aaffff" cx="655.0" cy="519.0" r="1.0"/>
     <text stroke="none" x="655.0" y="519.0" font-size="20.0" font-family="helvetica">Rhodosporidium toruloides CBS 3497 (AFO70426)</text>
    </g>
    <g>
     <circle stroke="black" stroke-width="0.5" fill="#aaffff" cx="658.0" cy="92.0" r="1.0"/>
     <text stroke="none" x="658.0" y="92.0" font-size="10.0" font-family="helvetica">NT1.38</text>
    </g>
    <g>
     <circle stroke="black" stroke-width="0.5" fill="#aaffff" cx="659.0" cy="109.0" r="1.0"/>
     <text stroke="none" x="659.0" y="109.0" font-size="10.0" font-family="helvetica">NT1.39</text>
    </g>
    <g>
     <circle stroke="black" stroke-width="0.5" fill="#aaffff" cx="659.0" cy="74.0" r="1.0"/>
     <text stroke="none" x="659.0" y="74.0" font-size="20.0" font-family="helvetica">Sporobolomyces salmoneus CBS 4887 (AY070017)</text>
    </g>
    <g>
     <circle stroke="black" stroke-width="0.5" fill="#aaffff" cx="659.0" cy="418.0" r="1.0"/>
     <text stroke="none" x="659.0" y="418.0" font-size="20.0" font-family="helvetica">Sporobolomyces bannaensis CBS 92047 (AY274823)</text>
    </g>
    <g>
     <circle stroke="black" stroke-width="0.5" fill="#aaffff" cx="659.0" cy="554.0" r="1.0"/>
     <text stroke="none" x="659.0" y="554.0" font-size="20.0" font-family="helvetica">Rhodotorula glutinis CBS 207 (AF070430)</text>
    </g>
    <g>
     <circle stroke="black" stroke-width="0.5" fill="#aaffff" cx="671.0" cy="323.0" r="1.0"/>
     <text stroke="none" x="671.0" y="323.0" font-size="10.0" font-family="helvetica">NT1.43</text>
    </g>
    <g>
     <circle stroke="black" stroke-width="0.5" fill="#aaffff" cx="673.0" cy="349.0" r="1.0"/>
     <text stroke="none" x="673.0" y="349.0" font-size="10.0" font-family="helvetica">NT1.44</text>
    </g>
    <g>
     <circle stroke="black" stroke-width="0.5" fill="#aaffff" cx="683.0" cy="144.0" r="1.0"/>
     <text stroke="none" x="683.0" y="144.0" font-size="10.0" font-family="helvetica">NT1.45</text>
    </g>
    <g>
     <circle stroke="black" stroke-width="0.5" fill="#aaffff" cx="686.0" cy="279.0" r="1.0"/>
     <text stroke="none" x="686.0" y="279.0" font-size="10.0" font-family="helvetica">NT1.46</text>
    </g>
    <g>
     <circle stroke="black" stroke-width="0.5" fill="#aaffff" cx="697.0" cy="40.0" r="1.0"/>
     <text stroke="none" x="697.0" y="40.0" font-size="20.0" font-family="helvetica">Sporobolomyces roseus CBS 4867 (AF070441)</text>
    </g>
    <g>
     <circle stroke="black" stroke-width="0.5" fill="#aaffff" cx="729.0" cy="7.0" r="1.0"/>
     <text stroke="none" x="729.0" y="7.0" font-size="20.0" font-family="helvetica">Sporobolomyces ruberrimus CBS 75007 (AF070442)</text>
    </g>
    <g>
     <circle stroke="black" stroke-width="0.5" fill="#aaffff" cx="1.0" cy="694.0" r="1.0"/>
     <text stroke="none" x="1.0" y="694.0" font-size="10.0" font-family="helvetica">NT1.49</text>
    </g>
    <line stroke="black" x1="697.0" y1="40.0" x2="626.0" y2="24.0" stroke-width="0.5"/>
    <line stroke="black" x1="729.0" y1="7.0" x2="626.0" y2="24.0" stroke-width="0.5"/>
    <line stroke="black" x1="659.0" y1="74.0" x2="658.0" y2="92.0" stroke-width="0.5"/>
    <line stroke="black" x1="603.0" y1="179.0" x2="585.0" y2="139.0" stroke-width="0.5"/>
    <line stroke="black" x1="614.0" y1="246.0" x2="588.0" y2="285.0" stroke-width="0.5"/>
    <line stroke="black" x1="560.0" y1="384.0" x2="511.0" y2="289.0" stroke-width="0.5"/>
    <line stroke="black" x1="659.0" y1="418.0" x2="487.0" y2="355.0" stroke-width="0.5"/>
    <line stroke="black" x1="438.0" y1="487.0" x2="371.0" y2="469.0" stroke-width="0.5"/>
    <line stroke="black" x1="396.0" y1="657.0" x2="319.0" y2="704.0" stroke-width="0.5"/>
    <line stroke="black" x1="470.0" y1="692.0" x2="383.0" y2="710.0" stroke-width="0.5"/>
    <line stroke="black" x1="509.0" y1="727.0" x2="383.0" y2="710.0" stroke-width="0.5"/>
    <line stroke="black" x1="617.0" y1="624.0" x2="538.0" y2="606.0" stroke-width="0.5"/>
    <line stroke="black" x1="629.0" y1="589.0" x2="538.0" y2="606.0" stroke-width="0.5"/>
    <line stroke="black" x1="572.0" y1="795.0" x2="516.0" y2="812.0" stroke-width="0.5"/>
    <line stroke="black" x1="589.0" y1="761.0" x2="424.0" y2="787.0" stroke-width="0.5"/>
    <line stroke="black" x1="581.0" y1="829.0" x2="516.0" y2="812.0" stroke-width="0.5"/>
    <line stroke="black" x1="655.0" y1="519.0" x2="442.0" y2="537.0" stroke-width="0.5"/>
    <line stroke="black" x1="659.0" y1="554.0" x2="442.0" y2="537.0" stroke-width="0.5"/>
    <line stroke="black" x1="626.0" y1="24.0" x2="612.0" y2="58.0" stroke-width="0.5"/>
    <line stroke="black" x1="612.0" y1="58.0" x2="599.0" y2="101.0" stroke-width="0.5"/>
    <line stroke="black" x1="585.0" y1="139.0" x2="568.0" y2="196.0" stroke-width="0.5"/>
    <line stroke="black" x1="568.0" y1="196.0" x2="511.0" y2="289.0" stroke-width="0.5"/>
    <line stroke="black" x1="511.0" y1="289.0" x2="487.0" y2="355.0" stroke-width="0.5"/>
    <line stroke="black" x1="487.0" y1="355.0" x2="264.0" y2="412.0" stroke-width="0.5"/>
    <line stroke="black" x1="264.0" y1="412.0" x2="121.0" y2="525.0" stroke-width="0.5"/>
    <line stroke="black" x1="121.0" y1="525.0" x2="245.0" y2="637.0" stroke-width="0.5"/>
    <line stroke="black" x1="245.0" y1="637.0" x2="319.0" y2="704.0" stroke-width="0.5"/>
    <line stroke="black" x1="245.0" y1="637.0" x2="385.0" y2="572.0" stroke-width="0.5"/>
    <line stroke="black" x1="319.0" y1="704.0" x2="378.0" y2="747.0" stroke-width="0.5"/>
    <line stroke="black" x1="385.0" y1="572.0" x2="538.0" y2="606.0" stroke-width="0.5"/>
    <line stroke="black" x1="385.0" y1="572.0" x2="442.0" y2="537.0" stroke-width="0.5"/>
    <line stroke="black" x1="378.0" y1="747.0" x2="424.0" y2="787.0" stroke-width="0.5"/>
    <line stroke="black" x1="378.0" y1="747.0" x2="383.0" y2="710.0" stroke-width="0.5"/>
    <line stroke="black" x1="424.0" y1="787.0" x2="516.0" y2="812.0" stroke-width="0.5"/>
    <line stroke="black" x1="1.0" y1="694.0" x2="296.0" y2="863.0" stroke-width="0.5"/>
    <line stroke="black" x1="1.0" y1="694.0" x2="121.0" y2="525.0" stroke-width="0.5"/>
   </g>
  </g>
 </svg>
</svg>
