<?xml version="1.0" encoding="UTF-8"?>
<svg height="800.0" width="700.0" xmlns="http://www.w3.org/2000/svg">
 <svg>
  <g>
   <g>
    <g>
     <circle stroke="black" stroke-width="0.5" fill="#aaffff" cx="33.0" cy="22.0" r="1.0"/>
     <text stroke="none" x="33.0" y="22.0" font-size="20.0" font-family="helvetica">S. hominis subsp. hominis DSM 20328T (X66101)</text>
    </g>
    <g>
     <circle stroke="black" stroke-width="0.5" fill="#aaffff" cx="104.0" cy="91.0" r="1.0"/>
     <text stroke="none" x="104.0" y="91.0" font-size="20.0" font-family="helvetica">S. hominis subsp. novobiosepticus GTC 1228T (AB233326)</text>
    </g>
    <g>
     <circle stroke="black" stroke-width="0.5" fill="#aaffff" cx="269.0" cy="758.0" r="1.0"/>
     <text stroke="none" x="269.0" y="758.0" font-size="10.0" font-family="helvetica">NT1.3</text>
    </g>
    <g>
     <circle stroke="black" stroke-width="0.5" fill="#aaffff" cx="365.0" cy="674.0" r="1.0"/>
     <text stroke="none" x="365.0" y="674.0" font-size="10.0" font-family="helvetica">NT1.4</text>
    </g>
    <g>
     <circle stroke="black" stroke-width="0.5" fill="#aaffff" cx="455.0" cy="404.0" r="1.0"/>
     <text stroke="none" x="455.0" y="404.0" font-size="10.0" font-family="helvetica">NT1.5</text>
    </g>
    <g>
     <circle stroke="black" stroke-width="0.5" fill="#aaffff" cx="512.0" cy="366.0" r="1.0"/>
     <text stroke="none" x="512.0" y="366.0" font-size="10.0" font-family="helvetica">NT1.6</text>
    </g>
    <g>
     <circle stroke="black" stroke-width="0.5" fill="#aaffff" cx="545.0" cy="157.0" r="1.0"/>
     <text stroke="none" x="545.0" y="157.0" font-size="20.0" font-family="helvetica"/>
    </g>
    <g>
     <circle stroke="black" stroke-width="0.5" fill="#aaffff" cx="546.0" cy="159.0" r="1.0"/>
     <text stroke="none" x="546.0" y="159.0" font-size="10.0" font-family="helvetica">NT1.8</text>
    </g>
    <g>
     <circle stroke="black" stroke-width="0.5" fill="#aaffff" cx="555.0" cy="606.0" r="1.0"/>
     <text stroke="none" x="555.0" y="606.0" font-size="20.0" font-family="helvetica">89</text>
    </g>
    <g>
     <circle stroke="black" stroke-width="0.5" fill="#aaffff" cx="563.0" cy="768.0" r="1.0"/>
     <text stroke="none" x="563.0" y="768.0" font-size="20.0" font-family="helvetica">68</text>
    </g>
    <g>
     <circle stroke="black" stroke-width="0.5" fill="#aaffff" cx="567.0" cy="297.0" r="1.0"/>
     <text stroke="none" x="567.0" y="297.0" font-size="10.0" font-family="helvetica">NT1.11</text>
    </g>
    <g>
     <circle stroke="black" stroke-width="0.5" fill="#aaffff" cx="587.0" cy="828.0" r="1.0"/>
     <text stroke="none" x="587.0" y="828.0" font-size="20.0" font-family="helvetica">55</text>
    </g>
    <g>
     <circle stroke="black" stroke-width="0.5" fill="#aaffff" cx="598.0" cy="229.0" r="1.0"/>
     <text stroke="none" x="598.0" y="229.0" font-size="20.0" font-family="helvetica"/>
    </g>
    <g>
     <circle stroke="black" stroke-width="0.5" fill="#aaffff" cx="604.0" cy="707.0" r="1.0"/>
     <text stroke="none" x="604.0" y="707.0" font-size="20.0" font-family="helvetica"/>
    </g>
    <g>
     <circle stroke="black" stroke-width="0.5" fill="#aaffff" cx="605.0" cy="1086.0" r="1.0"/>
     <text stroke="none" x="605.0" y="1086.0" font-size="10.0" font-family="helvetica">NT1.15</text>
    </g>
    <g>
     <circle stroke="black" stroke-width="0.5" fill="#aaffff" cx="605.0" cy="709.0" r="1.0"/>
     <text stroke="none" x="605.0" y="709.0" font-size="10.0" font-family="helvetica">NT1.16</text>
    </g>
    <g>
     <circle stroke="black" stroke-width="0.5" fill="#aaffff" cx="621.0" cy="778.0" r="1.0"/>
     <text stroke="none" x="621.0" y="778.0" font-size="20.0" font-family="helvetica">S. cohnii subsp. urealyticus GTC 728T (AB233328)</text>
    </g>
    <g>
     <circle stroke="black" stroke-width="0.5" fill="#aaffff" cx="624.0" cy="570.0" r="1.0"/>
     <text stroke="none" x="624.0" y="570.0" font-size="20.0" font-family="helvetica"/>
    </g>
    <g>
     <circle stroke="black" stroke-width="0.5" fill="#aaffff" cx="625.0" cy="572.0" r="1.0"/>
     <text stroke="none" x="625.0" y="572.0" font-size="10.0" font-family="helvetica">NT1.19</text>
    </g>
    <g>
     <circle stroke="black" stroke-width="0.5" fill="#aaffff" cx="627.0" cy="296.0" r="1.0"/>
     <text stroke="none" x="627.0" y="296.0" font-size="20.0" font-family="helvetica">s. gallinarum ATCC 355397 (D83366)</text>
    </g>
    <g>
     <circle stroke="black" stroke-width="0.5" fill="#aaffff" cx="627.0" cy="882.0" r="1.0"/>
     <text stroke="none" x="627.0" y="882.0" font-size="20.0" font-family="helvetica">99</text>
    </g>
    <g>
     <circle stroke="black" stroke-width="0.5" fill="#aaffff" cx="633.0" cy="469.0" r="1.0"/>
     <text stroke="none" x="633.0" y="469.0" font-size="20.0" font-family="helvetica">100</text>
    </g>
    <g>
     <circle stroke="black" stroke-width="0.5" fill="#aaffff" cx="635.0" cy="366.0" r="1.0"/>
     <text stroke="none" x="635.0" y="366.0" font-size="20.0" font-family="helvetica"/>
    </g>
    <g>
     <circle stroke="black" stroke-width="0.5" fill="#aaffff" cx="643.0" cy="641.0" r="1.0"/>
     <text stroke="none" x="643.0" y="641.0" font-size="20.0" font-family="helvetica"/>
    </g>
    <g>
     <circle stroke="black" stroke-width="0.5" fill="#aaffff" cx="643.0" cy="919.0" r="1.0"/>
     <text stroke="none" x="643.0" y="919.0" font-size="20.0" font-family="helvetica"/>
    </g>
    <g>
     <circle stroke="black" stroke-width="0.5" fill="#aaffff" cx="644.0" cy="845.0" r="1.0"/>
     <text stroke="none" x="644.0" y="845.0" font-size="20.0" font-family="helvetica">S. saprophyticus subsp. saprophyticus ATCC 153057 (D83371)</text>
    </g>
    <g>
     <circle stroke="black" stroke-width="0.5" fill="#aaffff" cx="648.0" cy="848.0" r="1.0"/>
     <text stroke="none" x="648.0" y="848.0" font-size="20.0" font-family="helvetica">S. saprophyticus subsp. saprophyticus ATCC 153057 (D83371)</text>
    </g>
    <g>
     <circle stroke="black" stroke-width="0.5" fill="#aaffff" cx="648.0" cy="915.0" r="1.0"/>
     <text stroke="none" x="648.0" y="915.0" font-size="20.0" font-family="helvetica">S. cohnii subsp. cohnii ATCC 299747 (D83361)</text>
    </g>
    <g>
     <circle stroke="black" stroke-width="0.5" fill="#aaffff" cx="683.0" cy="572.0" r="1.0"/>
     <text stroke="none" x="683.0" y="572.0" font-size="20.0" font-family="helvetica">S. saprophyticus subsp. bovis GTC 843T (AB233327)</text>
    </g>
    <g>
     <circle stroke="black" stroke-width="0.5" fill="#aaffff" cx="691.0" cy="709.0" r="1.0"/>
     <text stroke="none" x="691.0" y="709.0" font-size="20.0" font-family="helvetica">S. nepalensis CW1T (AJ517414)</text>
    </g>
    <g>
     <circle stroke="black" stroke-width="0.5" fill="#aaffff" cx="698.0" cy="1191.0" r="1.0"/>
     <text stroke="none" x="698.0" y="1191.0" font-size="20.0" font-family="helvetica">s. simiae CCM 7213T (AY727530)</text>
    </g>
    <g>
     <circle stroke="black" stroke-width="0.5" fill="#aaffff" cx="710.0" cy="432.0" r="1.0"/>
     <text stroke="none" x="710.0" y="432.0" font-size="20.0" font-family="helvetica">S. equorum subsp. linens RP29T (AF527483)</text>
    </g>
    <g>
     <circle stroke="black" stroke-width="0.5" fill="#aaffff" cx="716.0" cy="504.0" r="1.0"/>
     <text stroke="none" x="716.0" y="504.0" font-size="20.0" font-family="helvetica">S. equorum subsp. equorum ATCC 43958T (ABO09939)</text>
    </g>
    <g>
     <circle stroke="black" stroke-width="0.5" fill="#aaffff" cx="724.0" cy="435.0" r="1.0"/>
     <text stroke="none" x="724.0" y="435.0" font-size="20.0" font-family="helvetica">S. equorum subsp. linens RP29T (AF527483)</text>
    </g>
    <g>
     <circle stroke="black" stroke-width="0.5" fill="#aaffff" cx="734.0" cy="159.0" r="1.0"/>
     <text stroke="none" x="734.0" y="159.0" font-size="20.0" font-family="helvetica">S. kloosii ATCC 439597 (ABO09940)</text>
    </g>
    <g>
     <circle stroke="black" stroke-width="0.5" fill="#aaffff" cx="825.0" cy="1125.0" r="1.0"/>
     <text stroke="none" x="825.0" y="1125.0" font-size="20.0" font-family="helvetica"/>
    </g>
    <g>
     <circle stroke="black" stroke-width="0.5" fill="#aaffff" cx="831.0" cy="1054.0" r="1.0"/>
     <text stroke="none" x="831.0" y="1054.0" font-size="20.0" font-family="helvetica">S. pettenkoferi K6999 (AM265622)</text>
    </g>
    <g>
     <circle stroke="black" stroke-width="0.5" fill="#aaffff" cx="854.0" cy="1122.0" r="1.0"/>
     <text stroke="none" x="854.0" y="1122.0" font-size="20.0" font-family="helvetica">s. pettenkoferi B3117T (AF322002)</text>
    </g>
    <g>
     <circle stroke="black" stroke-width="0.5" fill="#aaffff" cx="925.0" cy="1309.0" r="1.0"/>
     <text stroke="none" x="925.0" y="1309.0" font-size="10.0" font-family="helvetica">NT1.39</text>
    </g>
    <g>
     <circle stroke="black" stroke-width="0.5" fill="#aaffff" cx="941.0" cy="1260.0" r="1.0"/>
     <text stroke="none" x="941.0" y="1260.0" font-size="20.0" font-family="helvetica"/>
    </g>
    <g>
     <circle stroke="black" stroke-width="0.5" fill="#aaffff" cx="967.0" cy="1362.0" r="1.0"/>
     <text stroke="none" x="967.0" y="1362.0" font-size="20.0" font-family="helvetica">86</text>
    </g>
    <g>
     <circle stroke="black" stroke-width="0.5" fill="#aaffff" cx="993.0" cy="1329.0" r="1.0"/>
     <text stroke="none" x="993.0" y="1329.0" font-size="20.0" font-family="helvetica">S. sciuri subsp. camaticus GTC 12277 (AB233331)</text>
    </g>
    <g>
     <circle stroke="black" stroke-width="0.5" fill="#aaffff" cx="1043.0" cy="1398.0" r="1.0"/>
     <text stroke="none" x="1043.0" y="1398.0" font-size="20.0" font-family="helvetica"/>
    </g>
    <line stroke="black" x1="104.0" y1="91.0" x2="269.0" y2="758.0" stroke-width="0.5"/>
    <line stroke="black" x1="698.0" y1="1191.0" x2="269.0" y2="758.0" stroke-width="0.5"/>
    <line stroke="black" x1="546.0" y1="159.0" x2="545.0" y2="157.0" stroke-width="0.5"/>
    <line stroke="black" x1="993.0" y1="1329.0" x2="967.0" y2="1362.0" stroke-width="0.5"/>
    <line stroke="black" x1="635.0" y1="366.0" x2="512.0" y2="366.0" stroke-width="0.5"/>
    <line stroke="black" x1="734.0" y1="159.0" x2="546.0" y2="159.0" stroke-width="0.5"/>
    <line stroke="black" x1="633.0" y1="469.0" x2="710.0" y2="432.0" stroke-width="0.5"/>
    <line stroke="black" x1="716.0" y1="504.0" x2="633.0" y2="469.0" stroke-width="0.5"/>
    <line stroke="black" x1="724.0" y1="435.0" x2="633.0" y2="469.0" stroke-width="0.5"/>
    <line stroke="black" x1="831.0" y1="1054.0" x2="605.0" y2="1086.0" stroke-width="0.5"/>
    <line stroke="black" x1="825.0" y1="1125.0" x2="605.0" y2="1086.0" stroke-width="0.5"/>
    <line stroke="black" x1="627.0" y1="296.0" x2="567.0" y2="297.0" stroke-width="0.5"/>
    <line stroke="black" x1="854.0" y1="1122.0" x2="605.0" y2="1086.0" stroke-width="0.5"/>
    <line stroke="black" x1="625.0" y1="572.0" x2="624.0" y2="570.0" stroke-width="0.5"/>
    <line stroke="black" x1="683.0" y1="572.0" x2="625.0" y2="572.0" stroke-width="0.5"/>
    <line stroke="black" x1="605.0" y1="709.0" x2="604.0" y2="707.0" stroke-width="0.5"/>
    <line stroke="black" x1="691.0" y1="709.0" x2="605.0" y2="709.0" stroke-width="0.5"/>
    <line stroke="black" x1="648.0" y1="848.0" x2="627.0" y2="882.0" stroke-width="0.5"/>
    <line stroke="black" x1="648.0" y1="915.0" x2="627.0" y2="882.0" stroke-width="0.5"/>
    <line stroke="black" x1="627.0" y1="882.0" x2="644.0" y2="845.0" stroke-width="0.5"/>
    <line stroke="black" x1="643.0" y1="919.0" x2="627.0" y2="882.0" stroke-width="0.5"/>
    <line stroke="black" x1="269.0" y1="758.0" x2="365.0" y2="674.0" stroke-width="0.5"/>
    <line stroke="black" x1="269.0" y1="758.0" x2="925.0" y2="1309.0" stroke-width="0.5"/>
    <line stroke="black" x1="365.0" y1="674.0" x2="605.0" y2="1086.0" stroke-width="0.5"/>
    <line stroke="black" x1="365.0" y1="674.0" x2="455.0" y2="404.0" stroke-width="0.5"/>
    <line stroke="black" x1="455.0" y1="404.0" x2="546.0" y2="159.0" stroke-width="0.5"/>
    <line stroke="black" x1="455.0" y1="404.0" x2="512.0" y2="366.0" stroke-width="0.5"/>
    <line stroke="black" x1="455.0" y1="404.0" x2="633.0" y2="469.0" stroke-width="0.5"/>
    <line stroke="black" x1="925.0" y1="1309.0" x2="967.0" y2="1362.0" stroke-width="0.5"/>
    <line stroke="black" x1="633.0" y1="469.0" x2="555.0" y2="606.0" stroke-width="0.5"/>
    <line stroke="black" x1="512.0" y1="366.0" x2="567.0" y2="297.0" stroke-width="0.5"/>
    <line stroke="black" x1="555.0" y1="606.0" x2="563.0" y2="768.0" stroke-width="0.5"/>
    <line stroke="black" x1="555.0" y1="606.0" x2="625.0" y2="572.0" stroke-width="0.5"/>
    <line stroke="black" x1="567.0" y1="297.0" x2="598.0" y2="229.0" stroke-width="0.5"/>
    <line stroke="black" x1="563.0" y1="768.0" x2="587.0" y2="828.0" stroke-width="0.5"/>
    <line stroke="black" x1="563.0" y1="768.0" x2="605.0" y2="709.0" stroke-width="0.5"/>
    <line stroke="black" x1="587.0" y1="828.0" x2="627.0" y2="882.0" stroke-width="0.5"/>
    <line stroke="black" x1="33.0" y1="22.0" x2="269.0" y2="758.0" stroke-width="0.5"/>
    <line stroke="black" x1="621.0" y1="778.0" x2="587.0" y2="828.0" stroke-width="0.5"/>
    <line stroke="black" x1="643.0" y1="641.0" x2="555.0" y2="606.0" stroke-width="0.5"/>
    <line stroke="black" x1="941.0" y1="1260.0" x2="925.0" y2="1309.0" stroke-width="0.5"/>
    <line stroke="black" x1="1043.0" y1="1398.0" x2="967.0" y2="1362.0" stroke-width="0.5"/>
   </g>
  </g>
 </svg>
</svg>
