<?xml version="1.0" encoding="UTF-8"?>
<svg height="800.0" width="700.0" xmlns="http://www.w3.org/2000/svg">
 <svg>
  <g>
   <g>
    <g>
     <circle stroke="black" stroke-width="0.5" fill="#aaffff" cx="16.0" cy="774.0" r="1.0"/>
     <text stroke="none" x="16.0" y="774.0" font-size="10.0" font-family="helvetica">NT1.1</text>
    </g>
    <g>
     <circle stroke="black" stroke-width="0.5" fill="#aaffff" cx="152.0" cy="473.0" r="1.0"/>
     <text stroke="none" x="152.0" y="473.0" font-size="10.0" font-family="helvetica">NT1.2</text>
    </g>
    <g>
     <circle stroke="black" stroke-width="0.5" fill="#aaffff" cx="177.0" cy="103.0" r="1.0"/>
     <text stroke="none" x="177.0" y="103.0" font-size="10.0" font-family="helvetica">NT1.3</text>
    </g>
    <g>
     <circle stroke="black" stroke-width="0.5" fill="#aaffff" cx="299.0" cy="1073.0" r="1.0"/>
     <text stroke="none" x="299.0" y="1073.0" font-size="10.0" font-family="helvetica">NT1.4</text>
    </g>
    <g>
     <circle stroke="black" stroke-width="0.5" fill="#aaffff" cx="398.0" cy="337.0" r="1.0"/>
     <text stroke="none" x="398.0" y="337.0" font-size="10.0" font-family="helvetica">NT1.5</text>
    </g>
    <g>
     <circle stroke="black" stroke-width="0.5" fill="#aaffff" cx="472.0" cy="630.0" r="1.0"/>
     <text stroke="none" x="472.0" y="630.0" font-size="20.0" font-family="helvetica">66</text>
    </g>
    <g>
     <circle stroke="black" stroke-width="0.5" fill="#aaffff" cx="509.0" cy="946.0" r="1.0"/>
     <text stroke="none" x="509.0" y="946.0" font-size="20.0" font-family="helvetica">74</text>
    </g>
    <g>
     <circle stroke="black" stroke-width="0.5" fill="#aaffff" cx="518.0" cy="1204.0" r="1.0"/>
     <text stroke="none" x="518.0" y="1204.0" font-size="20.0" font-family="helvetica">77</text>
    </g>
    <g>
     <circle stroke="black" stroke-width="0.5" fill="#aaffff" cx="555.0" cy="51.0" r="1.0"/>
     <text stroke="none" x="555.0" y="51.0" font-size="20.0" font-family="helvetica">Roseospira mediosalina BN2807 (AJ00O989)</text>
    </g>
    <g>
     <circle stroke="black" stroke-width="0.5" fill="#aaffff" cx="555.0" cy="156.0" r="1.0"/>
     <text stroke="none" x="555.0" y="156.0" font-size="20.0" font-family="helvetica">Rhodospirillum rubrum ATCC1 11707 (D30778)</text>
    </g>
    <g>
     <circle stroke="black" stroke-width="0.5" fill="#aaffff" cx="616.0" cy="1303.0" r="1.0"/>
     <text stroke="none" x="616.0" y="1303.0" font-size="20.0" font-family="helvetica">35</text>
    </g>
    <g>
     <circle stroke="black" stroke-width="0.5" fill="#aaffff" cx="649.0" cy="735.0" r="1.0"/>
     <text stroke="none" x="649.0" y="735.0" font-size="20.0" font-family="helvetica">63</text>
    </g>
    <g>
     <circle stroke="black" stroke-width="0.5" fill="#aaffff" cx="682.0" cy="260.0" r="1.0"/>
     <text stroke="none" x="682.0" y="260.0" font-size="20.0" font-family="helvetica">Rhodobaca bogoriensis LBB17 (AF248638)</text>
    </g>
    <g>
     <circle stroke="black" stroke-width="0.5" fill="#aaffff" cx="754.0" cy="525.0" r="1.0"/>
     <text stroke="none" x="754.0" y="525.0" font-size="20.0" font-family="helvetica">100</text>
    </g>
    <g>
     <circle stroke="black" stroke-width="0.5" fill="#aaffff" cx="793.0" cy="998.0" r="1.0"/>
     <text stroke="none" x="793.0" y="998.0" font-size="20.0" font-family="helvetica">Rhodovulum strictum DSM 112897 (D16419)</text>
    </g>
    <g>
     <circle stroke="black" stroke-width="0.5" fill="#aaffff" cx="793.0" cy="893.0" r="1.0"/>
     <text stroke="none" x="793.0" y="893.0" font-size="20.0" font-family="helvetica">Rhodovulum euryhalinum DSM 48687 (D16426)</text>
    </g>
    <g>
     <circle stroke="black" stroke-width="0.5" fill="#aaffff" cx="797.0" cy="1103.0" r="1.0"/>
     <text stroke="none" x="797.0" y="1103.0" font-size="10.0" font-family="helvetica">NT1.17</text>
    </g>
    <g>
     <circle stroke="black" stroke-width="0.5" fill="#aaffff" cx="851.0" cy="1393.0" r="1.0"/>
     <text stroke="none" x="851.0" y="1393.0" font-size="20.0" font-family="helvetica">84</text>
    </g>
    <g>
     <circle stroke="black" stroke-width="0.5" fill="#aaffff" cx="900.0" cy="1211.0" r="1.0"/>
     <text stroke="none" x="900.0" y="1211.0" font-size="20.0" font-family="helvetica">Rhodovulum sulfidophilum DSM 13747 (D16423)</text>
    </g>
    <g>
     <circle stroke="black" stroke-width="0.5" fill="#aaffff" cx="934.0" cy="789.0" r="1.0"/>
     <text stroke="none" x="934.0" y="789.0" font-size="10.0" font-family="helvetica">NT1.20</text>
    </g>
    <g>
     <circle stroke="black" stroke-width="0.5" fill="#aaffff" cx="934.0" cy="683.0" r="1.0"/>
     <text stroke="none" x="934.0" y="683.0" font-size="10.0" font-family="helvetica">NT1.21</text>
    </g>
    <g>
     <circle stroke="black" stroke-width="0.5" fill="#aaffff" cx="966.0" cy="366.0" r="1.0"/>
     <text stroke="none" x="966.0" y="366.0" font-size="20.0" font-family="helvetica">Rhodobacter veldkampii ATCC 357037 (D16421)</text>
    </g>
    <g>
     <circle stroke="black" stroke-width="0.5" fill="#aaffff" cx="1039.0" cy="578.0" r="1.0"/>
     <text stroke="none" x="1039.0" y="578.0" font-size="20.0" font-family="helvetica">Rhodobacter sphaeroides ATCC 170237 (X53855)</text>
    </g>
    <g>
     <circle stroke="black" stroke-width="0.5" fill="#aaffff" cx="1039.0" cy="472.0" r="1.0"/>
     <text stroke="none" x="1039.0" y="472.0" font-size="20.0" font-family="helvetica">Rhodobacter azotoformans JCM 93407 (D70846)</text>
    </g>
    <g>
     <circle stroke="black" stroke-width="0.5" fill="#aaffff" cx="1134.0" cy="1473.0" r="1.0"/>
     <text stroke="none" x="1134.0" y="1473.0" font-size="20.0" font-family="helvetica">99</text>
    </g>
    <g>
     <circle stroke="black" stroke-width="0.5" fill="#aaffff" cx="1138.0" cy="1317.0" r="1.0"/>
     <text stroke="none" x="1138.0" y="1317.0" font-size="10.0" font-family="helvetica">NT1.26</text>
    </g>
    <g>
     <circle stroke="black" stroke-width="0.5" fill="#aaffff" cx="1419.0" cy="1527.0" r="1.0"/>
     <text stroke="none" x="1419.0" y="1527.0" font-size="10.0" font-family="helvetica">NT1.27</text>
    </g>
    <g>
     <circle stroke="black" stroke-width="0.5" fill="#aaffff" cx="1419.0" cy="1421.0" r="1.0"/>
     <text stroke="none" x="1419.0" y="1421.0" font-size="10.0" font-family="helvetica">NT1.28</text>
    </g>
    <g>
     <circle stroke="black" stroke-width="0.5" fill="#aaffff" cx="3.0" cy="438.0" r="1.0"/>
     <text stroke="none" x="3.0" y="438.0" font-size="10.0" font-family="helvetica">NT1.29</text>
    </g>
    <line stroke="black" x1="555.0" y1="51.0" x2="177.0" y2="103.0" stroke-width="0.5"/>
    <line stroke="black" x1="555.0" y1="156.0" x2="177.0" y2="103.0" stroke-width="0.5"/>
    <line stroke="black" x1="682.0" y1="260.0" x2="398.0" y2="337.0" stroke-width="0.5"/>
    <line stroke="black" x1="793.0" y1="998.0" x2="509.0" y2="946.0" stroke-width="0.5"/>
    <line stroke="black" x1="793.0" y1="893.0" x2="509.0" y2="946.0" stroke-width="0.5"/>
    <line stroke="black" x1="966.0" y1="366.0" x2="398.0" y2="337.0" stroke-width="0.5"/>
    <line stroke="black" x1="1039.0" y1="578.0" x2="754.0" y2="525.0" stroke-width="0.5"/>
    <line stroke="black" x1="1039.0" y1="472.0" x2="754.0" y2="525.0" stroke-width="0.5"/>
    <line stroke="black" x1="16.0" y1="774.0" x2="152.0" y2="473.0" stroke-width="0.5"/>
    <line stroke="black" x1="16.0" y1="774.0" x2="299.0" y2="1073.0" stroke-width="0.5"/>
    <line stroke="black" x1="152.0" y1="473.0" x2="398.0" y2="337.0" stroke-width="0.5"/>
    <line stroke="black" x1="472.0" y1="630.0" x2="754.0" y2="525.0" stroke-width="0.5"/>
    <line stroke="black" x1="3.0" y1="438.0" x2="177.0" y2="103.0" stroke-width="0.5"/>
    <line stroke="black" x1="3.0" y1="438.0" x2="16.0" y2="774.0" stroke-width="0.5"/>
    <line stroke="black" x1="299.0" y1="1073.0" x2="509.0" y2="946.0" stroke-width="0.5"/>
    <line stroke="black" x1="900.0" y1="1211.0" x2="616.0" y2="1303.0" stroke-width="0.5"/>
   </g>
  </g>
 </svg>
</svg>
