<?xml version="1.0" encoding="UTF-8"?>
<svg height="800.0" width="700.0" xmlns="http://www.w3.org/2000/svg">
 <svg>
  <g>
   <g>
    <g>
     <circle stroke="black" stroke-width="0.5" fill="#aaffff" cx="250.0" cy="428.0" r="1.0"/>
     <text stroke="none" x="250.0" y="428.0" font-size="10.0" font-family="helvetica">NT1.1</text>
    </g>
    <g>
     <circle stroke="black" stroke-width="0.5" fill="#aaffff" cx="276.0" cy="347.0" r="1.0"/>
     <text stroke="none" x="276.0" y="347.0" font-size="10.0" font-family="helvetica">NT1.2</text>
    </g>
    <g>
     <circle stroke="black" stroke-width="0.5" fill="#aaffff" cx="342.0" cy="504.0" r="1.0"/>
     <text stroke="none" x="342.0" y="504.0" font-size="10.0" font-family="helvetica">NT1.3</text>
    </g>
    <g>
     <circle stroke="black" stroke-width="0.5" fill="#aaffff" cx="404.0" cy="247.0" r="1.0"/>
     <text stroke="none" x="404.0" y="247.0" font-size="20.0" font-family="helvetica">100</text>
    </g>
    <g>
     <circle stroke="black" stroke-width="0.5" fill="#aaffff" cx="439.0" cy="169.0" r="1.0"/>
     <text stroke="none" x="439.0" y="169.0" font-size="10.0" font-family="helvetica">NT1.5</text>
    </g>
    <g>
     <circle stroke="black" stroke-width="0.5" fill="#aaffff" cx="443.0" cy="525.0" r="1.0"/>
     <text stroke="none" x="443.0" y="525.0" font-size="20.0" font-family="helvetica">Arthrobacter woluwensis DSM 104957 (X93353)</text>
    </g>
    <g>
     <circle stroke="black" stroke-width="0.5" fill="#aaffff" cx="454.0" cy="107.0" r="1.0"/>
     <text stroke="none" x="454.0" y="107.0" font-size="10.0" font-family="helvetica">NT1.7</text>
    </g>
    <g>
     <circle stroke="black" stroke-width="0.5" fill="#aaffff" cx="465.0" cy="63.0" r="1.0"/>
     <text stroke="none" x="465.0" y="63.0" font-size="10.0" font-family="helvetica">NT1.8</text>
    </g>
    <g>
     <circle stroke="black" stroke-width="0.5" fill="#aaffff" cx="467.0" cy="446.0" r="1.0"/>
     <text stroke="none" x="467.0" y="446.0" font-size="20.0" font-family="helvetica">Arthrobacter cumminsii DSM 104937 (X93354)</text>
    </g>
    <g>
     <circle stroke="black" stroke-width="0.5" fill="#aaffff" cx="486.0" cy="485.0" r="1.0"/>
     <text stroke="none" x="486.0" y="485.0" font-size="20.0" font-family="helvetica">Arthrobacter globiformis DSM 20124T (X80736)</text>
    </g>
    <g>
     <circle stroke="black" stroke-width="0.5" fill="#aaffff" cx="492.0" cy="149.0" r="1.0"/>
     <text stroke="none" x="492.0" y="149.0" font-size="10.0" font-family="helvetica">NT1.11</text>
    </g>
    <g>
     <circle stroke="black" stroke-width="0.5" fill="#aaffff" cx="498.0" cy="33.0" r="1.0"/>
     <text stroke="none" x="498.0" y="33.0" font-size="10.0" font-family="helvetica">NT1.12</text>
    </g>
    <g>
     <circle stroke="black" stroke-width="0.5" fill="#aaffff" cx="513.0" cy="322.0" r="1.0"/>
     <text stroke="none" x="513.0" y="322.0" font-size="10.0" font-family="helvetica">NT1.13</text>
    </g>
    <g>
     <circle stroke="black" stroke-width="0.5" fill="#aaffff" cx="535.0" cy="288.0" r="1.0"/>
     <text stroke="none" x="535.0" y="288.0" font-size="20.0" font-family="helvetica">N. Iutea YIM 70081T (AY588278)</text>
    </g>
    <g>
     <circle stroke="black" stroke-width="0.5" fill="#aaffff" cx="540.0" cy="52.0" r="1.0"/>
     <text stroke="none" x="540.0" y="52.0" font-size="20.0" font-family="helvetica">N. aethiopica DSM 177337 (AY574575)</text>
    </g>
    <g>
     <circle stroke="black" stroke-width="0.5" fill="#aaffff" cx="541.0" cy="356.0" r="1.0"/>
     <text stroke="none" x="541.0" y="356.0" font-size="10.0" font-family="helvetica">NT1.16</text>
    </g>
    <g>
     <circle stroke="black" stroke-width="0.5" fill="#aaffff" cx="546.0" cy="386.0" r="1.0"/>
     <text stroke="none" x="546.0" y="386.0" font-size="20.0" font-family="helvetica">35</text>
    </g>
    <g>
     <circle stroke="black" stroke-width="0.5" fill="#aaffff" cx="552.0" cy="407.0" r="1.0"/>
     <text stroke="none" x="552.0" y="407.0" font-size="20.0" font-family="helvetica">N. sandarakina YIM 7OO09T (AY588277)</text>
    </g>
    <g>
     <circle stroke="black" stroke-width="0.5" fill="#aaffff" cx="553.0" cy="328.0" r="1.0"/>
     <text stroke="none" x="553.0" y="328.0" font-size="20.0" font-family="helvetica">N. halotolerans YIM 700847 (AY226508)</text>
    </g>
    <g>
     <circle stroke="black" stroke-width="0.5" fill="#aaffff" cx="556.0" cy="367.0" r="1.0"/>
     <text stroke="none" x="556.0" y="367.0" font-size="20.0" font-family="helvetica">N. jeotgali JG-2417 (AY928901)</text>
    </g>
    <g>
     <circle stroke="black" stroke-width="0.5" fill="#aaffff" cx="565.0" cy="228.0" r="1.0"/>
     <text stroke="none" x="565.0" y="228.0" font-size="20.0" font-family="helvetica">100</text>
    </g>
    <g>
     <circle stroke="black" stroke-width="0.5" fill="#aaffff" cx="578.0" cy="12.0" r="1.0"/>
     <text stroke="none" x="578.0" y="12.0" font-size="20.0" font-family="helvetica">N. Xinjiangensis DSM 15475T (AY226510)</text>
    </g>
    <g>
     <circle stroke="black" stroke-width="0.5" fill="#aaffff" cx="580.0" cy="130.0" r="1.0"/>
     <text stroke="none" x="580.0" y="130.0" font-size="20.0" font-family="helvetica">N. flava JCM 148147 (EF680886)</text>
    </g>
    <g>
     <circle stroke="black" stroke-width="0.5" fill="#aaffff" cx="581.0" cy="209.0" r="1.0"/>
     <text stroke="none" x="581.0" y="209.0" font-size="20.0" font-family="helvetica">N. halobia JCM 11483T (X80747)</text>
    </g>
    <g>
     <circle stroke="black" stroke-width="0.5" fill="#aaffff" cx="586.0" cy="249.0" r="1.0"/>
     <text stroke="none" x="586.0" y="249.0" font-size="20.0" font-family="helvetica">N. halophila YIM 7O179T (AY820953)</text>
    </g>
    <g>
     <circle stroke="black" stroke-width="0.5" fill="#aaffff" cx="613.0" cy="170.0" r="1.0"/>
     <text stroke="none" x="613.0" y="170.0" font-size="20.0" font-family="helvetica">N. Iacusekhoensis JCM 11953T(AJ29O397)</text>
    </g>
    <g>
     <circle stroke="black" stroke-width="0.5" fill="#aaffff" cx="663.0" cy="91.0" r="1.0"/>
     <text stroke="none" x="663.0" y="91.0" font-size="20.0" font-family="helvetica">N. alba CAAS 2527 (EU566871)</text>
    </g>
    <g>
     <circle stroke="black" stroke-width="0.5" fill="#aaffff" cx="664.0" cy="564.0" r="1.0"/>
     <text stroke="none" x="664.0" y="564.0" font-size="20.0" font-family="helvetica">Streptomyces megasporus DSM 414767 (268100)</text>
    </g>
    <line stroke="black" x1="540.0" y1="52.0" x2="498.0" y2="33.0" stroke-width="0.5"/>
    <line stroke="black" x1="663.0" y1="91.0" x2="465.0" y2="63.0" stroke-width="0.5"/>
    <line stroke="black" x1="580.0" y1="130.0" x2="492.0" y2="149.0" stroke-width="0.5"/>
    <line stroke="black" x1="498.0" y1="33.0" x2="465.0" y2="63.0" stroke-width="0.5"/>
    <line stroke="black" x1="465.0" y1="63.0" x2="454.0" y2="107.0" stroke-width="0.5"/>
    <line stroke="black" x1="454.0" y1="107.0" x2="439.0" y2="169.0" stroke-width="0.5"/>
    <line stroke="black" x1="454.0" y1="107.0" x2="492.0" y2="149.0" stroke-width="0.5"/>
    <line stroke="black" x1="439.0" y1="169.0" x2="404.0" y2="247.0" stroke-width="0.5"/>
    <line stroke="black" x1="439.0" y1="169.0" x2="565.0" y2="228.0" stroke-width="0.5"/>
    <line stroke="black" x1="404.0" y1="247.0" x2="276.0" y2="347.0" stroke-width="0.5"/>
    <line stroke="black" x1="404.0" y1="247.0" x2="513.0" y2="322.0" stroke-width="0.5"/>
    <line stroke="black" x1="513.0" y1="322.0" x2="541.0" y2="356.0" stroke-width="0.5"/>
    <line stroke="black" x1="276.0" y1="347.0" x2="250.0" y2="428.0" stroke-width="0.5"/>
    <line stroke="black" x1="541.0" y1="356.0" x2="546.0" y2="386.0" stroke-width="0.5"/>
    <line stroke="black" x1="250.0" y1="428.0" x2="342.0" y2="504.0" stroke-width="0.5"/>
    <line stroke="black" x1="664.0" y1="564.0" x2="250.0" y2="428.0" stroke-width="0.5"/>
    <line stroke="black" x1="467.0" y1="446.0" x2="276.0" y2="347.0" stroke-width="0.5"/>
    <line stroke="black" x1="443.0" y1="525.0" x2="342.0" y2="504.0" stroke-width="0.5"/>
    <line stroke="black" x1="486.0" y1="485.0" x2="342.0" y2="504.0" stroke-width="0.5"/>
    <line stroke="black" x1="535.0" y1="288.0" x2="513.0" y2="322.0" stroke-width="0.5"/>
    <line stroke="black" x1="613.0" y1="170.0" x2="492.0" y2="149.0" stroke-width="0.5"/>
    <line stroke="black" x1="578.0" y1="12.0" x2="498.0" y2="33.0" stroke-width="0.5"/>
    <line stroke="black" x1="553.0" y1="328.0" x2="541.0" y2="356.0" stroke-width="0.5"/>
    <line stroke="black" x1="552.0" y1="407.0" x2="546.0" y2="386.0" stroke-width="0.5"/>
    <line stroke="black" x1="556.0" y1="367.0" x2="546.0" y2="386.0" stroke-width="0.5"/>
    <line stroke="black" x1="581.0" y1="209.0" x2="565.0" y2="228.0" stroke-width="0.5"/>
    <line stroke="black" x1="586.0" y1="249.0" x2="565.0" y2="228.0" stroke-width="0.5"/>
   </g>
  </g>
 </svg>
</svg>
