<?xml version="1.0" encoding="UTF-8"?>
<svg height="800.0" width="700.0" xmlns="http://www.w3.org/2000/svg">
 <svg>
  <g>
   <g>
    <g>
     <circle stroke="black" stroke-width="0.5" fill="#aaffff" cx="23.0" cy="1004.0" r="1.0"/>
     <text stroke="none" x="23.0" y="1004.0" font-size="10.0" font-family="helvetica">NT1.1</text>
    </g>
    <g>
     <circle stroke="black" stroke-width="0.5" fill="#aaffff" cx="27.0" cy="1004.0" r="1.0"/>
     <text stroke="none" x="27.0" y="1004.0" font-size="20.0" font-family="helvetica"/>
    </g>
    <g>
     <circle stroke="black" stroke-width="0.5" fill="#aaffff" cx="149.0" cy="863.0" r="1.0"/>
     <text stroke="none" x="149.0" y="863.0" font-size="10.0" font-family="helvetica">NT1.3</text>
    </g>
    <g>
     <circle stroke="black" stroke-width="0.5" fill="#aaffff" cx="149.0" cy="871.0" r="1.0"/>
     <text stroke="none" x="149.0" y="871.0" font-size="10.0" font-family="helvetica">NT1.4</text>
    </g>
    <g>
     <circle stroke="black" stroke-width="0.5" fill="#aaffff" cx="152.0" cy="936.0" r="1.0"/>
     <text stroke="none" x="152.0" y="936.0" font-size="10.0" font-family="helvetica">NT1.5</text>
    </g>
    <g>
     <circle stroke="black" stroke-width="0.5" fill="#aaffff" cx="153.0" cy="947.0" r="1.0"/>
     <text stroke="none" x="153.0" y="947.0" font-size="10.0" font-family="helvetica">NT1.6</text>
    </g>
    <g>
     <circle stroke="black" stroke-width="0.5" fill="#aaffff" cx="155.0" cy="866.0" r="1.0"/>
     <text stroke="none" x="155.0" y="866.0" font-size="10.0" font-family="helvetica">NT1.7</text>
    </g>
    <g>
     <circle stroke="black" stroke-width="0.5" fill="#aaffff" cx="159.0" cy="421.0" r="1.0"/>
     <text stroke="none" x="159.0" y="421.0" font-size="10.0" font-family="helvetica">NT1.8</text>
    </g>
    <g>
     <circle stroke="black" stroke-width="0.5" fill="#aaffff" cx="173.0" cy="260.0" r="1.0"/>
     <text stroke="none" x="173.0" y="260.0" font-size="10.0" font-family="helvetica">NT1.9</text>
    </g>
    <g>
     <circle stroke="black" stroke-width="0.5" fill="#aaffff" cx="187.0" cy="870.0" r="1.0"/>
     <text stroke="none" x="187.0" y="870.0" font-size="10.0" font-family="helvetica">NT1.10</text>
    </g>
    <g>
     <circle stroke="black" stroke-width="0.5" fill="#aaffff" cx="191.0" cy="495.0" r="1.0"/>
     <text stroke="none" x="191.0" y="495.0" font-size="10.0" font-family="helvetica">NT1.11</text>
    </g>
    <g>
     <circle stroke="black" stroke-width="0.5" fill="#aaffff" cx="197.0" cy="494.0" r="1.0"/>
     <text stroke="none" x="197.0" y="494.0" font-size="20.0" font-family="helvetica"/>
    </g>
    <g>
     <circle stroke="black" stroke-width="0.5" fill="#aaffff" cx="202.0" cy="60.0" r="1.0"/>
     <text stroke="none" x="202.0" y="60.0" font-size="10.0" font-family="helvetica">NT1.13</text>
    </g>
    <g>
     <circle stroke="black" stroke-width="0.5" fill="#aaffff" cx="212.0" cy="381.0" r="1.0"/>
     <text stroke="none" x="212.0" y="381.0" font-size="10.0" font-family="helvetica">NT1.14</text>
    </g>
    <g>
     <circle stroke="black" stroke-width="0.5" fill="#aaffff" cx="217.0" cy="565.0" r="1.0"/>
     <text stroke="none" x="217.0" y="565.0" font-size="10.0" font-family="helvetica">NT1.15</text>
    </g>
    <g>
     <circle stroke="black" stroke-width="0.5" fill="#aaffff" cx="218.0" cy="321.0" r="1.0"/>
     <text stroke="none" x="218.0" y="321.0" font-size="10.0" font-family="helvetica">NT1.16</text>
    </g>
    <g>
     <circle stroke="black" stroke-width="0.5" fill="#aaffff" cx="220.0" cy="201.0" r="1.0"/>
     <text stroke="none" x="220.0" y="201.0" font-size="10.0" font-family="helvetica">NT1.17</text>
    </g>
    <g>
     <circle stroke="black" stroke-width="0.5" fill="#aaffff" cx="222.0" cy="566.0" r="1.0"/>
     <text stroke="none" x="222.0" y="566.0" font-size="20.0" font-family="helvetica"/>
    </g>
    <g>
     <circle stroke="black" stroke-width="0.5" fill="#aaffff" cx="226.0" cy="201.0" r="1.0"/>
     <text stroke="none" x="226.0" y="201.0" font-size="20.0" font-family="helvetica"/>
    </g>
    <g>
     <circle stroke="black" stroke-width="0.5" fill="#aaffff" cx="227.0" cy="309.0" r="1.0"/>
     <text stroke="none" x="227.0" y="309.0" font-size="20.0" font-family="helvetica"/>
    </g>
    <g>
     <circle stroke="black" stroke-width="0.5" fill="#aaffff" cx="227.0" cy="176.0" r="1.0"/>
     <text stroke="none" x="227.0" y="176.0" font-size="10.0" font-family="helvetica">NT1.21</text>
    </g>
    <g>
     <circle stroke="black" stroke-width="0.5" fill="#aaffff" cx="233.0" cy="763.0" r="1.0"/>
     <text stroke="none" x="233.0" y="763.0" font-size="10.0" font-family="helvetica">NT1.22</text>
    </g>
    <g>
     <circle stroke="black" stroke-width="0.5" fill="#aaffff" cx="234.0" cy="424.0" r="1.0"/>
     <text stroke="none" x="234.0" y="424.0" font-size="10.0" font-family="helvetica">NT1.23</text>
    </g>
    <g>
     <circle stroke="black" stroke-width="0.5" fill="#aaffff" cx="238.0" cy="175.0" r="1.0"/>
     <text stroke="none" x="238.0" y="175.0" font-size="20.0" font-family="helvetica"/>
    </g>
    <g>
     <circle stroke="black" stroke-width="0.5" fill="#aaffff" cx="239.0" cy="424.0" r="1.0"/>
     <text stroke="none" x="239.0" y="424.0" font-size="20.0" font-family="helvetica"/>
    </g>
    <g>
     <circle stroke="black" stroke-width="0.5" fill="#aaffff" cx="239.0" cy="722.0" r="1.0"/>
     <text stroke="none" x="239.0" y="722.0" font-size="10.0" font-family="helvetica">NT1.26</text>
    </g>
    <g>
     <circle stroke="black" stroke-width="0.5" fill="#aaffff" cx="244.0" cy="95.0" r="1.0"/>
     <text stroke="none" x="244.0" y="95.0" font-size="10.0" font-family="helvetica">NT1.27</text>
    </g>
    <g>
     <circle stroke="black" stroke-width="0.5" fill="#aaffff" cx="245.0" cy="280.0" r="1.0"/>
     <text stroke="none" x="245.0" y="280.0" font-size="20.0" font-family="helvetica"/>
    </g>
    <g>
     <circle stroke="black" stroke-width="0.5" fill="#aaffff" cx="250.0" cy="105.0" r="1.0"/>
     <text stroke="none" x="250.0" y="105.0" font-size="20.0" font-family="helvetica"/>
    </g>
    <g>
     <circle stroke="black" stroke-width="0.5" fill="#aaffff" cx="250.0" cy="876.0" r="1.0"/>
     <text stroke="none" x="250.0" y="876.0" font-size="10.0" font-family="helvetica">NT1.30</text>
    </g>
    <g>
     <circle stroke="black" stroke-width="0.5" fill="#aaffff" cx="252.0" cy="665.0" r="1.0"/>
     <text stroke="none" x="252.0" y="665.0" font-size="20.0" font-family="helvetica">973</text>
    </g>
    <g>
     <circle stroke="black" stroke-width="0.5" fill="#aaffff" cx="256.0" cy="299.0" r="1.0"/>
     <text stroke="none" x="256.0" y="299.0" font-size="10.0" font-family="helvetica">NT1.32</text>
    </g>
    <g>
     <circle stroke="black" stroke-width="0.5" fill="#aaffff" cx="257.0" cy="639.0" r="1.0"/>
     <text stroke="none" x="257.0" y="639.0" font-size="20.0" font-family="helvetica">973</text>
    </g>
    <g>
     <circle stroke="black" stroke-width="0.5" fill="#aaffff" cx="263.0" cy="690.0" r="1.0"/>
     <text stroke="none" x="263.0" y="690.0" font-size="20.0" font-family="helvetica">Halobacillus litoralis DSM 104057 (X94558)</text>
    </g>
    <g>
     <circle stroke="black" stroke-width="0.5" fill="#aaffff" cx="265.0" cy="620.0" r="1.0"/>
     <text stroke="none" x="265.0" y="620.0" font-size="20.0" font-family="helvetica">Halobacillus trueperi DSM 104047 (AJ310149)</text>
    </g>
    <g>
     <circle stroke="black" stroke-width="0.5" fill="#aaffff" cx="269.0" cy="940.0" r="1.0"/>
     <text stroke="none" x="269.0" y="940.0" font-size="20.0" font-family="helvetica">Thalassobacillus devorans G-19.17 (AJ717299)</text>
    </g>
    <g>
     <circle stroke="black" stroke-width="0.5" fill="#aaffff" cx="272.0" cy="726.0" r="1.0"/>
     <text stroke="none" x="272.0" y="726.0" font-size="20.0" font-family="helvetica">Halobacillus locisalis MSS-1557 (AY190534)</text>
    </g>
    <g>
     <circle stroke="black" stroke-width="0.5" fill="#aaffff" cx="285.0" cy="229.0" r="1.0"/>
     <text stroke="none" x="285.0" y="229.0" font-size="20.0" font-family="helvetica">Virgibacillus halodenitrificans DSM 100377 (AY543169)</text>
    </g>
    <g>
     <circle stroke="black" stroke-width="0.5" fill="#aaffff" cx="285.0" cy="655.0" r="1.0"/>
     <text stroke="none" x="285.0" y="655.0" font-size="20.0" font-family="helvetica">Halobacillus karajensis MA-27 (AJ486874)</text>
    </g>
    <g>
     <circle stroke="black" stroke-width="0.5" fill="#aaffff" cx="290.0" cy="762.0" r="1.0"/>
     <text stroke="none" x="290.0" y="762.0" font-size="20.0" font-family="helvetica">Halobacillus salinus HSL-37 (AF500003)</text>
    </g>
    <g>
     <circle stroke="black" stroke-width="0.5" fill="#aaffff" cx="297.0" cy="193.0" r="1.0"/>
     <text stroke="none" x="297.0" y="193.0" font-size="20.0" font-family="helvetica">Virgibacillus marismortui DSM 123257 (AJ009793)</text>
    </g>
    <g>
     <circle stroke="black" stroke-width="0.5" fill="#aaffff" cx="297.0" cy="798.0" r="1.0"/>
     <text stroke="none" x="297.0" y="798.0" font-size="20.0" font-family="helvetica">Halobacillus halophllus NCIMB 22697 (X62174)</text>
    </g>
    <g>
     <circle stroke="black" stroke-width="0.5" fill="#aaffff" cx="298.0" cy="992.0" r="1.0"/>
     <text stroke="none" x="298.0" y="992.0" font-size="10.0" font-family="helvetica">NT1.43</text>
    </g>
    <g>
     <circle stroke="black" stroke-width="0.5" fill="#aaffff" cx="301.0" cy="157.0" r="1.0"/>
     <text stroke="none" x="301.0" y="157.0" font-size="20.0" font-family="helvetica">Virgibacillus pantothenticus IAM 1 10617 (D78477)</text>
    </g>
    <g>
     <circle stroke="black" stroke-width="0.5" fill="#aaffff" cx="304.0" cy="31.0" r="1.0"/>
     <text stroke="none" x="304.0" y="31.0" font-size="20.0" font-family="helvetica"/>
    </g>
    <g>
     <circle stroke="black" stroke-width="0.5" fill="#aaffff" cx="304.0" cy="993.0" r="1.0"/>
     <text stroke="none" x="304.0" y="993.0" font-size="20.0" font-family="helvetica"/>
    </g>
    <g>
     <circle stroke="black" stroke-width="0.5" fill="#aaffff" cx="311.0" cy="477.0" r="1.0"/>
     <text stroke="none" x="311.0" y="477.0" font-size="20.0" font-family="helvetica">Filobacillus milosensis DSM 132597 (AJ238042)</text>
    </g>
    <g>
     <circle stroke="black" stroke-width="0.5" fill="#aaffff" cx="313.0" cy="371.0" r="1.0"/>
     <text stroke="none" x="313.0" y="371.0" font-size="20.0" font-family="helvetica">Paraliobacillus wukyuensis O15-77 (AB087828)</text>
    </g>
    <g>
     <circle stroke="black" stroke-width="0.5" fill="#aaffff" cx="318.0" cy="584.0" r="1.0"/>
     <text stroke="none" x="318.0" y="584.0" font-size="20.0" font-family="helvetica">Bacillus methanolicus NCIMB 131137 (X64465)</text>
    </g>
    <g>
     <circle stroke="black" stroke-width="0.5" fill="#aaffff" cx="320.0" cy="877.0" r="1.0"/>
     <text stroke="none" x="320.0" y="877.0" font-size="20.0" font-family="helvetica"/>
    </g>
    <g>
     <circle stroke="black" stroke-width="0.5" fill="#aaffff" cx="327.0" cy="406.0" r="1.0"/>
     <text stroke="none" x="327.0" y="406.0" font-size="20.0" font-family="helvetica">Gracilibacillus halotolerans DSM 118057 (AFO36922)</text>
    </g>
    <g>
     <circle stroke="black" stroke-width="0.5" fill="#aaffff" cx="342.0" cy="1011.0" r="1.0"/>
     <text stroke="none" x="342.0" y="1011.0" font-size="20.0" font-family="helvetica">Pontibacillus marinus BHO300047 (AY603977)</text>
    </g>
    <g>
     <circle stroke="black" stroke-width="0.5" fill="#aaffff" cx="345.0" cy="335.0" r="1.0"/>
     <text stroke="none" x="345.0" y="335.0" font-size="20.0" font-family="helvetica">Amphibacillus tropicus Z-77927 (AF418602)</text>
    </g>
    <g>
     <circle stroke="black" stroke-width="0.5" fill="#aaffff" cx="349.0" cy="513.0" r="1.0"/>
     <text stroke="none" x="349.0" y="513.0" font-size="20.0" font-family="helvetica">Cerasibacillus quisquiliarum BLx7 (AB107894)</text>
    </g>
    <g>
     <circle stroke="black" stroke-width="0.5" fill="#aaffff" cx="349.0" cy="548.0" r="1.0"/>
     <text stroke="none" x="349.0" y="548.0" font-size="20.0" font-family="helvetica">Bacillus subtilis NCDO 17697 (X60646)</text>
    </g>
    <g>
     <circle stroke="black" stroke-width="0.5" fill="#aaffff" cx="349.0" cy="1118.0" r="1.0"/>
     <text stroke="none" x="349.0" y="1118.0" font-size="20.0" font-family="helvetica">Paenibacillus polymyxa NCDO 17747 (X60632)</text>
    </g>
    <g>
     <circle stroke="black" stroke-width="0.5" fill="#aaffff" cx="355.0" cy="442.0" r="1.0"/>
     <text stroke="none" x="355.0" y="442.0" font-size="20.0" font-family="helvetica">Gracilibacillus dipsosauri NCFB 30277 (X82436)</text>
    </g>
    <g>
     <circle stroke="black" stroke-width="0.5" fill="#aaffff" cx="355.0" cy="299.0" r="1.0"/>
     <text stroke="none" x="355.0" y="299.0" font-size="20.0" font-family="helvetica">Amphibacillus fermentum Z-79847 (AF418603)</text>
    </g>
    <g>
     <circle stroke="black" stroke-width="0.5" fill="#aaffff" cx="358.0" cy="975.0" r="1.0"/>
     <text stroke="none" x="358.0" y="975.0" font-size="20.0" font-family="helvetica">Pontibacillus chungwhensis KCTC 38907 (AY553296)</text>
    </g>
    <g>
     <circle stroke="black" stroke-width="0.5" fill="#aaffff" cx="359.0" cy="122.0" r="1.0"/>
     <text stroke="none" x="359.0" y="122.0" font-size="20.0" font-family="helvetica">Lentibacillus juripiscarius JCM 121477 (AB127980)</text>
    </g>
    <g>
     <circle stroke="black" stroke-width="0.5" fill="#aaffff" cx="361.0" cy="843.0" r="1.0"/>
     <text stroke="none" x="361.0" y="843.0" font-size="20.0" font-family="helvetica">100</text>
    </g>
    <g>
     <circle stroke="black" stroke-width="0.5" fill="#aaffff" cx="364.0" cy="904.0" r="1.0"/>
     <text stroke="none" x="364.0" y="904.0" font-size="20.0" font-family="helvetica">Marlnococcus albus DSM 207487 (X90834)</text>
    </g>
    <g>
     <circle stroke="black" stroke-width="0.5" fill="#aaffff" cx="365.0" cy="850.0" r="1.0"/>
     <text stroke="none" x="365.0" y="850.0" font-size="20.0" font-family="helvetica"/>
    </g>
    <g>
     <circle stroke="black" stroke-width="0.5" fill="#aaffff" cx="366.0" cy="51.0" r="1.0"/>
     <text stroke="none" x="366.0" y="51.0" font-size="20.0" font-family="helvetica">Oceanobacillus oncorhynchi R-27 (AB188089)</text>
    </g>
    <g>
     <circle stroke="black" stroke-width="0.5" fill="#aaffff" cx="367.0" cy="16.0" r="1.0"/>
     <text stroke="none" x="367.0" y="16.0" font-size="20.0" font-family="helvetica">Oceanobacillus iheyensis JCM 1 13097 (AB010863)</text>
    </g>
    <g>
     <circle stroke="black" stroke-width="0.5" fill="#aaffff" cx="374.0" cy="833.0" r="1.0"/>
     <text stroke="none" x="374.0" y="833.0" font-size="20.0" font-family="helvetica">Strain BY-57 (DQ227305)</text>
    </g>
    <g>
     <circle stroke="black" stroke-width="0.5" fill="#aaffff" cx="387.0" cy="86.0" r="1.0"/>
     <text stroke="none" x="387.0" y="86.0" font-size="20.0" font-family="helvetica">Lentibacillus salicampi KCCM 415607 (AY057394)</text>
    </g>
    <g>
     <circle stroke="black" stroke-width="0.5" fill="#aaffff" cx="391.0" cy="869.0" r="1.0"/>
     <text stroke="none" x="391.0" y="869.0" font-size="20.0" font-family="helvetica">Bacillus halophllus DSM 47717 (AJ243920)</text>
    </g>
    <g>
     <circle stroke="black" stroke-width="0.5" fill="#aaffff" cx="399.0" cy="264.0" r="1.0"/>
     <text stroke="none" x="399.0" y="264.0" font-size="20.0" font-family="helvetica">Amphibacillus xylanus JCM 73617 (D82065)</text>
    </g>
    <g>
     <circle stroke="black" stroke-width="0.5" fill="#aaffff" cx="414.0" cy="1046.0" r="1.0"/>
     <text stroke="none" x="414.0" y="1046.0" font-size="20.0" font-family="helvetica">Marinococcus halophllus DSM 204087 (X90835)</text>
    </g>
    <g>
     <circle stroke="black" stroke-width="0.5" fill="#aaffff" cx="415.0" cy="1064.0" r="1.0"/>
     <text stroke="none" x="415.0" y="1064.0" font-size="20.0" font-family="helvetica"/>
    </g>
    <g>
     <circle stroke="black" stroke-width="0.5" fill="#aaffff" cx="446.0" cy="1082.0" r="1.0"/>
     <text stroke="none" x="446.0" y="1082.0" font-size="20.0" font-family="helvetica">Marinococcus halotolerans YIM 701577 (AY817493)</text>
    </g>
    <g>
     <circle stroke="black" stroke-width="0.5" fill="#aaffff" cx="537.0" cy="1153.0" r="1.0"/>
     <text stroke="none" x="537.0" y="1153.0" font-size="20.0" font-family="helvetica">Alicyclobacillus acidocaldarius DSM 4467 (X60742)</text>
    </g>
    <line stroke="black" x1="304.0" y1="31.0" x2="202.0" y2="60.0" stroke-width="0.5"/>
    <line stroke="black" x1="250.0" y1="105.0" x2="244.0" y2="95.0" stroke-width="0.5"/>
    <line stroke="black" x1="226.0" y1="201.0" x2="220.0" y2="201.0" stroke-width="0.5"/>
    <line stroke="black" x1="238.0" y1="175.0" x2="227.0" y2="176.0" stroke-width="0.5"/>
    <line stroke="black" x1="359.0" y1="122.0" x2="244.0" y2="95.0" stroke-width="0.5"/>
    <line stroke="black" x1="387.0" y1="86.0" x2="244.0" y2="95.0" stroke-width="0.5"/>
    <line stroke="black" x1="297.0" y1="193.0" x2="227.0" y2="176.0" stroke-width="0.5"/>
    <line stroke="black" x1="301.0" y1="157.0" x2="227.0" y2="176.0" stroke-width="0.5"/>
    <line stroke="black" x1="239.0" y1="424.0" x2="234.0" y2="424.0" stroke-width="0.5"/>
    <line stroke="black" x1="227.0" y1="309.0" x2="218.0" y2="321.0" stroke-width="0.5"/>
    <line stroke="black" x1="197.0" y1="494.0" x2="191.0" y2="495.0" stroke-width="0.5"/>
    <line stroke="black" x1="245.0" y1="280.0" x2="256.0" y2="299.0" stroke-width="0.5"/>
    <line stroke="black" x1="327.0" y1="406.0" x2="234.0" y2="424.0" stroke-width="0.5"/>
    <line stroke="black" x1="355.0" y1="442.0" x2="234.0" y2="424.0" stroke-width="0.5"/>
    <line stroke="black" x1="345.0" y1="335.0" x2="218.0" y2="321.0" stroke-width="0.5"/>
    <line stroke="black" x1="222.0" y1="566.0" x2="217.0" y2="565.0" stroke-width="0.5"/>
    <line stroke="black" x1="355.0" y1="299.0" x2="256.0" y2="299.0" stroke-width="0.5"/>
    <line stroke="black" x1="399.0" y1="264.0" x2="256.0" y2="299.0" stroke-width="0.5"/>
    <line stroke="black" x1="349.0" y1="548.0" x2="217.0" y2="565.0" stroke-width="0.5"/>
    <line stroke="black" x1="27.0" y1="1004.0" x2="23.0" y2="1004.0" stroke-width="0.5"/>
    <line stroke="black" x1="304.0" y1="993.0" x2="298.0" y2="992.0" stroke-width="0.5"/>
    <line stroke="black" x1="358.0" y1="975.0" x2="298.0" y2="992.0" stroke-width="0.5"/>
    <line stroke="black" x1="272.0" y1="726.0" x2="239.0" y2="722.0" stroke-width="0.5"/>
    <line stroke="black" x1="320.0" y1="877.0" x2="250.0" y2="876.0" stroke-width="0.5"/>
    <line stroke="black" x1="290.0" y1="762.0" x2="239.0" y2="722.0" stroke-width="0.5"/>
    <line stroke="black" x1="365.0" y1="850.0" x2="361.0" y2="843.0" stroke-width="0.5"/>
    <line stroke="black" x1="364.0" y1="904.0" x2="250.0" y2="876.0" stroke-width="0.5"/>
    <line stroke="black" x1="374.0" y1="833.0" x2="361.0" y2="843.0" stroke-width="0.5"/>
    <line stroke="black" x1="285.0" y1="655.0" x2="257.0" y2="639.0" stroke-width="0.5"/>
    <line stroke="black" x1="415.0" y1="1064.0" x2="153.0" y2="947.0" stroke-width="0.5"/>
    <line stroke="black" x1="414.0" y1="1046.0" x2="153.0" y2="947.0" stroke-width="0.5"/>
    <line stroke="black" x1="446.0" y1="1082.0" x2="153.0" y2="947.0" stroke-width="0.5"/>
    <line stroke="black" x1="202.0" y1="60.0" x2="244.0" y2="95.0" stroke-width="0.5"/>
    <line stroke="black" x1="202.0" y1="60.0" x2="173.0" y2="260.0" stroke-width="0.5"/>
    <line stroke="black" x1="202.0" y1="60.0" x2="220.0" y2="201.0" stroke-width="0.5"/>
    <line stroke="black" x1="220.0" y1="201.0" x2="227.0" y2="176.0" stroke-width="0.5"/>
    <line stroke="black" x1="173.0" y1="260.0" x2="159.0" y2="421.0" stroke-width="0.5"/>
    <line stroke="black" x1="173.0" y1="260.0" x2="212.0" y2="381.0" stroke-width="0.5"/>
    <line stroke="black" x1="159.0" y1="421.0" x2="191.0" y2="495.0" stroke-width="0.5"/>
    <line stroke="black" x1="159.0" y1="421.0" x2="153.0" y2="947.0" stroke-width="0.5"/>
    <line stroke="black" x1="159.0" y1="421.0" x2="217.0" y2="565.0" stroke-width="0.5"/>
    <line stroke="black" x1="212.0" y1="381.0" x2="234.0" y2="424.0" stroke-width="0.5"/>
    <line stroke="black" x1="212.0" y1="381.0" x2="218.0" y2="321.0" stroke-width="0.5"/>
    <line stroke="black" x1="218.0" y1="321.0" x2="256.0" y2="299.0" stroke-width="0.5"/>
    <line stroke="black" x1="153.0" y1="947.0" x2="149.0" y2="863.0" stroke-width="0.5"/>
    <line stroke="black" x1="153.0" y1="947.0" x2="23.0" y2="1004.0" stroke-width="0.5"/>
    <line stroke="black" x1="149.0" y1="863.0" x2="155.0" y2="866.0" stroke-width="0.5"/>
    <line stroke="black" x1="149.0" y1="863.0" x2="155.0" y2="866.0" stroke-width="0.5"/>
    <line stroke="black" x1="149.0" y1="863.0" x2="149.0" y2="871.0" stroke-width="0.5"/>
    <line stroke="black" x1="155.0" y1="866.0" x2="149.0" y2="871.0" stroke-width="0.5"/>
    <line stroke="black" x1="149.0" y1="871.0" x2="152.0" y2="936.0" stroke-width="0.5"/>
    <line stroke="black" x1="152.0" y1="936.0" x2="298.0" y2="992.0" stroke-width="0.5"/>
    <line stroke="black" x1="152.0" y1="936.0" x2="187.0" y2="870.0" stroke-width="0.5"/>
    <line stroke="black" x1="187.0" y1="870.0" x2="250.0" y2="876.0" stroke-width="0.5"/>
    <line stroke="black" x1="250.0" y1="876.0" x2="233.0" y2="763.0" stroke-width="0.5"/>
    <line stroke="black" x1="250.0" y1="876.0" x2="361.0" y2="843.0" stroke-width="0.5"/>
    <line stroke="black" x1="233.0" y1="763.0" x2="239.0" y2="722.0" stroke-width="0.5"/>
    <line stroke="black" x1="239.0" y1="722.0" x2="252.0" y2="665.0" stroke-width="0.5"/>
    <line stroke="black" x1="252.0" y1="665.0" x2="257.0" y2="639.0" stroke-width="0.5"/>
    <line stroke="black" x1="537.0" y1="1153.0" x2="23.0" y2="1004.0" stroke-width="0.5"/>
    <line stroke="black" x1="349.0" y1="1118.0" x2="23.0" y2="1004.0" stroke-width="0.5"/>
    <line stroke="black" x1="187.0" y1="870.0" x2="187.0" y2="870.0" stroke-width="0.5"/>
    <line stroke="black" x1="311.0" y1="477.0" x2="191.0" y2="495.0" stroke-width="0.5"/>
    <line stroke="black" x1="269.0" y1="940.0" x2="187.0" y2="870.0" stroke-width="0.5"/>
    <line stroke="black" x1="285.0" y1="229.0" x2="220.0" y2="201.0" stroke-width="0.5"/>
    <line stroke="black" x1="349.0" y1="513.0" x2="191.0" y2="495.0" stroke-width="0.5"/>
    <line stroke="black" x1="297.0" y1="798.0" x2="233.0" y2="763.0" stroke-width="0.5"/>
    <line stroke="black" x1="313.0" y1="371.0" x2="218.0" y2="321.0" stroke-width="0.5"/>
    <line stroke="black" x1="318.0" y1="584.0" x2="217.0" y2="565.0" stroke-width="0.5"/>
    <line stroke="black" x1="263.0" y1="690.0" x2="252.0" y2="665.0" stroke-width="0.5"/>
    <line stroke="black" x1="265.0" y1="620.0" x2="257.0" y2="639.0" stroke-width="0.5"/>
    <line stroke="black" x1="342.0" y1="1011.0" x2="298.0" y2="992.0" stroke-width="0.5"/>
    <line stroke="black" x1="366.0" y1="51.0" x2="202.0" y2="60.0" stroke-width="0.5"/>
    <line stroke="black" x1="367.0" y1="16.0" x2="202.0" y2="60.0" stroke-width="0.5"/>
    <line stroke="black" x1="391.0" y1="869.0" x2="361.0" y2="843.0" stroke-width="0.5"/>
   </g>
  </g>
 </svg>
</svg>
