<?xml version="1.0" encoding="UTF-8"?>
<svg height="800.0" width="700.0" xmlns="http://www.w3.org/2000/svg">
 <svg>
  <g>
   <g>
    <g>
     <circle stroke="black" stroke-width="0.5" fill="#aaffff" cx="2.0" cy="133.0" r="1.0"/>
     <text stroke="none" x="2.0" y="133.0" font-size="20.0" font-family="helvetica"/>
    </g>
    <g>
     <circle stroke="black" stroke-width="0.5" fill="#aaffff" cx="33.0" cy="133.0" r="1.0"/>
     <text stroke="none" x="33.0" y="133.0" font-size="10.0" font-family="helvetica">NT1.2</text>
    </g>
    <g>
     <circle stroke="black" stroke-width="0.5" fill="#aaffff" cx="57.0" cy="48.0" r="1.0"/>
     <text stroke="none" x="57.0" y="48.0" font-size="10.0" font-family="helvetica">NT1.3</text>
    </g>
    <g>
     <circle stroke="black" stroke-width="0.5" fill="#aaffff" cx="147.0" cy="246.0" r="1.0"/>
     <text stroke="none" x="147.0" y="246.0" font-size="10.0" font-family="helvetica">NT1.4</text>
    </g>
    <g>
     <circle stroke="black" stroke-width="0.5" fill="#aaffff" cx="176.0" cy="275.0" r="1.0"/>
     <text stroke="none" x="176.0" y="275.0" font-size="20.0" font-family="helvetica">NE</text>
    </g>
    <g>
     <circle stroke="black" stroke-width="0.5" fill="#aaffff" cx="192.0" cy="161.0" r="1.0"/>
     <text stroke="none" x="192.0" y="161.0" font-size="10.0" font-family="helvetica">NT1.6</text>
    </g>
    <g>
     <circle stroke="black" stroke-width="0.5" fill="#aaffff" cx="210.0" cy="303.0" r="1.0"/>
     <text stroke="none" x="210.0" y="303.0" font-size="20.0" font-family="helvetica"> Pedobacter piscium DSM 11725T (AJ438174)</text>
    </g>
    <g>
     <circle stroke="black" stroke-width="0.5" fill="#aaffff" cx="223.0" cy="246.0" r="1.0"/>
     <text stroke="none" x="223.0" y="246.0" font-size="10.0" font-family="helvetica">NT1.8</text>
    </g>
    <g>
     <circle stroke="black" stroke-width="0.5" fill="#aaffff" cx="228.0" cy="189.0" r="1.0"/>
     <text stroke="none" x="228.0" y="189.0" font-size="10.0" font-family="helvetica">NT1.9</text>
    </g>
    <g>
     <circle stroke="black" stroke-width="0.5" fill="#aaffff" cx="229.0" cy="18.0" r="1.0"/>
     <text stroke="none" x="229.0" y="18.0" font-size="20.0" font-family="helvetica">Pedobacter saltans DSM 12145T (AJ438173)</text>
    </g>
    <g>
     <circle stroke="black" stroke-width="0.5" fill="#aaffff" cx="240.0" cy="131.0" r="1.0"/>
     <text stroke="none" x="240.0" y="131.0" font-size="10.0" font-family="helvetica">NT1.11</text>
    </g>
    <g>
     <circle stroke="black" stroke-width="0.5" fill="#aaffff" cx="276.0" cy="75.0" r="1.0"/>
     <text stroke="none" x="276.0" y="75.0" font-size="20.0" font-family="helvetica">Sphingobacterium spiritivorum DSM 2582T (AJ459411)</text>
    </g>
    <line stroke="black" x1="2.0" y1="133.0" x2="33.0" y2="133.0" stroke-width="0.5"/>
    <line stroke="black" x1="229.0" y1="18.0" x2="57.0" y2="48.0" stroke-width="0.5"/>
    <line stroke="black" x1="210.0" y1="303.0" x2="176.0" y2="275.0" stroke-width="0.5"/>
    <line stroke="black" x1="57.0" y1="48.0" x2="33.0" y2="133.0" stroke-width="0.5"/>
    <line stroke="black" x1="276.0" y1="75.0" x2="57.0" y2="48.0" stroke-width="0.5"/>
   </g>
  </g>
 </svg>
</svg>
