<?xml version="1.0" encoding="UTF-8"?>
<svg height="800.0" width="700.0" xmlns="http://www.w3.org/2000/svg">
 <svg>
  <g>
   <g>
    <g>
     <circle stroke="black" stroke-width="0.5" fill="#aaffff" cx="3.0" cy="298.0" r="1.0"/>
     <text stroke="none" x="3.0" y="298.0" font-size="20.0" font-family="helvetica"/>
    </g>
    <g>
     <circle stroke="black" stroke-width="0.5" fill="#aaffff" cx="9.0" cy="310.0" r="1.0"/>
     <text stroke="none" x="9.0" y="310.0" font-size="10.0" font-family="helvetica">NT1.2</text>
    </g>
    <g>
     <circle stroke="black" stroke-width="0.5" fill="#aaffff" cx="9.0" cy="299.0" r="1.0"/>
     <text stroke="none" x="9.0" y="299.0" font-size="10.0" font-family="helvetica">NT1.3</text>
    </g>
    <g>
     <circle stroke="black" stroke-width="0.5" fill="#aaffff" cx="11.0" cy="297.0" r="1.0"/>
     <text stroke="none" x="11.0" y="297.0" font-size="10.0" font-family="helvetica">NT1.4</text>
    </g>
    <g>
     <circle stroke="black" stroke-width="0.5" fill="#aaffff" cx="15.0" cy="298.0" r="1.0"/>
     <text stroke="none" x="15.0" y="298.0" font-size="10.0" font-family="helvetica">NT1.5</text>
    </g>
    <g>
     <circle stroke="black" stroke-width="0.5" fill="#aaffff" cx="59.0" cy="162.0" r="1.0"/>
     <text stroke="none" x="59.0" y="162.0" font-size="10.0" font-family="helvetica">NT1.6</text>
    </g>
    <g>
     <circle stroke="black" stroke-width="0.5" fill="#aaffff" cx="252.0" cy="109.0" r="1.0"/>
     <text stroke="none" x="252.0" y="109.0" font-size="10.0" font-family="helvetica">NT1.7</text>
    </g>
    <g>
     <circle stroke="black" stroke-width="0.5" fill="#aaffff" cx="307.0" cy="140.0" r="1.0"/>
     <text stroke="none" x="307.0" y="140.0" font-size="20.0" font-family="helvetica">Catenulispora rubra Aac-307 (AB180773)</text>
    </g>
    <g>
     <circle stroke="black" stroke-width="0.5" fill="#aaffff" cx="336.0" cy="76.0" r="1.0"/>
     <text stroke="none" x="336.0" y="76.0" font-size="20.0" font-family="helvetica">Catenulispora acidiphila ID139908T (AJ865857)</text>
    </g>
    <g>
     <circle stroke="black" stroke-width="0.5" fill="#aaffff" cx="339.0" cy="236.0" r="1.0"/>
     <text stroke="none" x="339.0" y="236.0" font-size="10.0" font-family="helvetica">NT1.10</text>
    </g>
    <g>
     <circle stroke="black" stroke-width="0.5" fill="#aaffff" cx="408.0" cy="270.0" r="1.0"/>
     <text stroke="none" x="408.0" y="270.0" font-size="20.0" font-family="helvetica">Actinospica robiniae GE134769T (AJ865863)</text>
    </g>
    <g>
     <circle stroke="black" stroke-width="0.5" fill="#aaffff" cx="416.0" cy="204.0" r="1.0"/>
     <text stroke="none" x="416.0" y="204.0" font-size="20.0" font-family="helvetica">Actinospica acidiphila GE134766T (AJ865861)</text>
    </g>
    <line stroke="black" x1="307.0" y1="140.0" x2="252.0" y2="109.0" stroke-width="0.5"/>
    <line stroke="black" x1="408.0" y1="270.0" x2="339.0" y2="236.0" stroke-width="0.5"/>
    <line stroke="black" x1="252.0" y1="109.0" x2="59.0" y2="162.0" stroke-width="0.5"/>
    <line stroke="black" x1="59.0" y1="162.0" x2="339.0" y2="236.0" stroke-width="0.5"/>
    <line stroke="black" x1="59.0" y1="162.0" x2="11.0" y2="297.0" stroke-width="0.5"/>
    <line stroke="black" x1="336.0" y1="76.0" x2="252.0" y2="109.0" stroke-width="0.5"/>
    <line stroke="black" x1="416.0" y1="204.0" x2="339.0" y2="236.0" stroke-width="0.5"/>
   </g>
  </g>
 </svg>
</svg>
