<?xml version="1.0" encoding="UTF-8"?>
<svg height="800.0" width="700.0" xmlns="http://www.w3.org/2000/svg">
 <svg>
  <g>
   <g>
    <g>
     <circle stroke="black" stroke-width="0.5" fill="#aaffff" cx="35.0" cy="135.0" r="1.0"/>
     <text stroke="none" x="35.0" y="135.0" font-size="10.0" font-family="helvetica">NT1.1</text>
    </g>
    <g>
     <circle stroke="black" stroke-width="0.5" fill="#aaffff" cx="36.0" cy="322.0" r="1.0"/>
     <text stroke="none" x="36.0" y="322.0" font-size="10.0" font-family="helvetica">NT1.2</text>
    </g>
    <g>
     <circle stroke="black" stroke-width="0.5" fill="#aaffff" cx="46.0" cy="258.0" r="1.0"/>
     <text stroke="none" x="46.0" y="258.0" font-size="10.0" font-family="helvetica">NT1.3</text>
    </g>
    <g>
     <circle stroke="black" stroke-width="0.5" fill="#aaffff" cx="51.0" cy="372.0" r="1.0"/>
     <text stroke="none" x="51.0" y="372.0" font-size="10.0" font-family="helvetica">NT1.4</text>
    </g>
    <g>
     <circle stroke="black" stroke-width="0.5" fill="#aaffff" cx="67.0" cy="91.0" r="1.0"/>
     <text stroke="none" x="67.0" y="91.0" font-size="10.0" font-family="helvetica">NT1.5</text>
    </g>
    <g>
     <circle stroke="black" stroke-width="0.5" fill="#aaffff" cx="166.0" cy="351.0" r="1.0"/>
     <text stroke="none" x="166.0" y="351.0" font-size="20.0" font-family="helvetica">Eubacterium sulci ATCC 35585T (AJ006963)</text>
    </g>
    <g>
     <circle stroke="black" stroke-width="0.5" fill="#aaffff" cx="183.0" cy="305.0" r="1.0"/>
     <text stroke="none" x="183.0" y="305.0" font-size="20.0" font-family="helvetica">Eubacterium saphenum ATCC 49989T (U65987)</text>
    </g>
    <g>
     <circle stroke="black" stroke-width="0.5" fill="#aaffff" cx="218.0" cy="213.0" r="1.0"/>
     <text stroke="none" x="218.0" y="213.0" font-size="20.0" font-family="helvetica">Mogibacterium timidum ATCC 33O93T (U13042)</text>
    </g>
    <g>
     <circle stroke="black" stroke-width="0.5" fill="#aaffff" cx="233.0" cy="259.0" r="1.0"/>
     <text stroke="none" x="233.0" y="259.0" font-size="20.0" font-family="helvetica">Eubacterium brachy ATCC 330897 (Z36272)</text>
    </g>
    <g>
     <circle stroke="black" stroke-width="0.5" fill="#aaffff" cx="272.0" cy="77.0" r="1.0"/>
     <text stroke="none" x="272.0" y="77.0" font-size="10.0" font-family="helvetica">NT1.10</text>
    </g>
    <g>
     <circle stroke="black" stroke-width="0.5" fill="#aaffff" cx="275.0" cy="123.0" r="1.0"/>
     <text stroke="none" x="275.0" y="123.0" font-size="20.0" font-family="helvetica">Tindallia magadiensis DSM 1O318T (Y15626)</text>
    </g>
    <g>
     <circle stroke="black" stroke-width="0.5" fill="#aaffff" cx="275.0" cy="396.0" r="1.0"/>
     <text stroke="none" x="275.0" y="396.0" font-size="20.0" font-family="helvetica">Eubacterium nodatum ATCC 330997 (236274)</text>
    </g>
    <g>
     <circle stroke="black" stroke-width="0.5" fill="#aaffff" cx="369.0" cy="169.0" r="1.0"/>
     <text stroke="none" x="369.0" y="169.0" font-size="10.0" font-family="helvetica">NT1.13</text>
    </g>
    <g>
     <circle stroke="black" stroke-width="0.5" fill="#aaffff" cx="10.0" cy="135.0" r="1.0"/>
     <text stroke="none" x="10.0" y="135.0" font-size="10.0" font-family="helvetica">NT1.14</text>
    </g>
    <line stroke="black" x1="275.0" y1="123.0" x2="67.0" y2="91.0" stroke-width="0.5"/>
    <line stroke="black" x1="233.0" y1="259.0" x2="46.0" y2="258.0" stroke-width="0.5"/>
    <line stroke="black" x1="275.0" y1="396.0" x2="51.0" y2="372.0" stroke-width="0.5"/>
    <line stroke="black" x1="36.0" y1="322.0" x2="51.0" y2="372.0" stroke-width="0.5"/>
    <line stroke="black" x1="36.0" y1="322.0" x2="46.0" y2="258.0" stroke-width="0.5"/>
    <line stroke="black" x1="46.0" y1="258.0" x2="218.0" y2="213.0" stroke-width="0.5"/>
    <line stroke="black" x1="51.0" y1="372.0" x2="166.0" y2="351.0" stroke-width="0.5"/>
    <line stroke="black" x1="36.0" y1="322.0" x2="10.0" y2="135.0" stroke-width="0.5"/>
    <line stroke="black" x1="183.0" y1="305.0" x2="46.0" y2="258.0" stroke-width="0.5"/>
   </g>
  </g>
 </svg>
</svg>
