<?xml version="1.0" encoding="UTF-8"?>
<svg height="800.0" width="700.0" xmlns="http://www.w3.org/2000/svg">
 <svg>
  <g>
   <g>
    <g>
     <circle stroke="black" stroke-width="0.5" fill="#aaffff" cx="101.0" cy="423.0" r="1.0"/>
     <text stroke="none" x="101.0" y="423.0" font-size="10.0" font-family="helvetica">NT1.1</text>
    </g>
    <g>
     <circle stroke="black" stroke-width="0.5" fill="#aaffff" cx="192.0" cy="280.0" r="1.0"/>
     <text stroke="none" x="192.0" y="280.0" font-size="10.0" font-family="helvetica">NT1.2</text>
    </g>
    <g>
     <circle stroke="black" stroke-width="0.5" fill="#aaffff" cx="358.0" cy="565.0" r="1.0"/>
     <text stroke="none" x="358.0" y="565.0" font-size="20.0" font-family="helvetica">100</text>
    </g>
    <g>
     <circle stroke="black" stroke-width="0.5" fill="#aaffff" cx="386.0" cy="382.0" r="1.0"/>
     <text stroke="none" x="386.0" y="382.0" font-size="10.0" font-family="helvetica">NT1.4</text>
    </g>
    <g>
     <circle stroke="black" stroke-width="0.5" fill="#aaffff" cx="396.0" cy="647.0" r="1.0"/>
     <text stroke="none" x="396.0" y="647.0" font-size="10.0" font-family="helvetica">NT1.5</text>
    </g>
    <g>
     <circle stroke="black" stroke-width="0.5" fill="#aaffff" cx="408.0" cy="582.0" r="1.0"/>
     <text stroke="none" x="408.0" y="582.0" font-size="10.0" font-family="helvetica">NT1.6</text>
    </g>
    <g>
     <circle stroke="black" stroke-width="0.5" fill="#aaffff" cx="441.0" cy="349.0" r="1.0"/>
     <text stroke="none" x="441.0" y="349.0" font-size="10.0" font-family="helvetica">NT1.7</text>
    </g>
    <g>
     <circle stroke="black" stroke-width="0.5" fill="#aaffff" cx="441.0" cy="416.0" r="1.0"/>
     <text stroke="none" x="441.0" y="416.0" font-size="10.0" font-family="helvetica">NT1.8</text>
    </g>
    <g>
     <circle stroke="black" stroke-width="0.5" fill="#aaffff" cx="447.0" cy="177.0" r="1.0"/>
     <text stroke="none" x="447.0" y="177.0" font-size="10.0" font-family="helvetica">NT1.9</text>
    </g>
    <g>
     <circle stroke="black" stroke-width="0.5" fill="#aaffff" cx="447.0" cy="713.0" r="1.0"/>
     <text stroke="none" x="447.0" y="713.0" font-size="10.0" font-family="helvetica">NT1.10</text>
    </g>
    <g>
     <circle stroke="black" stroke-width="0.5" fill="#aaffff" cx="477.0" cy="102.0" r="1.0"/>
     <text stroke="none" x="477.0" y="102.0" font-size="10.0" font-family="helvetica">NT1.11</text>
    </g>
    <g>
     <circle stroke="black" stroke-width="0.5" fill="#aaffff" cx="495.0" cy="747.0" r="1.0"/>
     <text stroke="none" x="495.0" y="747.0" font-size="20.0" font-family="helvetica">Haloterrigena thermotolerans ATCC 70O275T (AF115478)</text>
    </g>
    <g>
     <circle stroke="black" stroke-width="0.5" fill="#aaffff" cx="528.0" cy="680.0" r="1.0"/>
     <text stroke="none" x="528.0" y="680.0" font-size="20.0" font-family="helvetica">Haloterrigena saccharevitans JCM 128897 (AY820137)</text>
    </g>
    <g>
     <circle stroke="black" stroke-width="0.5" fill="#aaffff" cx="551.0" cy="615.0" r="1.0"/>
     <text stroke="none" x="551.0" y="615.0" font-size="10.0" font-family="helvetica">NT1.14</text>
    </g>
    <g>
     <circle stroke="black" stroke-width="0.5" fill="#aaffff" cx="595.0" cy="548.0" r="1.0"/>
     <text stroke="none" x="595.0" y="548.0" font-size="20.0" font-family="helvetica">Haloterrigena turkmenica ATCC 51198T (AB004878)</text>
    </g>
    <g>
     <circle stroke="black" stroke-width="0.5" fill="#aaffff" cx="609.0" cy="249.0" r="1.0"/>
     <text stroke="none" x="609.0" y="249.0" font-size="10.0" font-family="helvetica">NT1.16</text>
    </g>
    <g>
     <circle stroke="black" stroke-width="0.5" fill="#aaffff" cx="640.0" cy="283.0" r="1.0"/>
     <text stroke="none" x="640.0" y="283.0" font-size="10.0" font-family="helvetica">NT1.17</text>
    </g>
    <g>
     <circle stroke="black" stroke-width="0.5" fill="#aaffff" cx="647.0" cy="481.0" r="1.0"/>
     <text stroke="none" x="647.0" y="481.0" font-size="10.0" font-family="helvetica">NT1.18</text>
    </g>
    <g>
     <circle stroke="black" stroke-width="0.5" fill="#aaffff" cx="653.0" cy="51.0" r="1.0"/>
     <text stroke="none" x="653.0" y="51.0" font-size="10.0" font-family="helvetica">NT1.19</text>
    </g>
    <g>
     <circle stroke="black" stroke-width="0.5" fill="#aaffff" cx="663.0" cy="84.0" r="1.0"/>
     <text stroke="none" x="663.0" y="84.0" font-size="10.0" font-family="helvetica">NT1.20</text>
    </g>
    <g>
     <circle stroke="black" stroke-width="0.5" fill="#aaffff" cx="680.0" cy="18.0" r="1.0"/>
     <text stroke="none" x="680.0" y="18.0" font-size="10.0" font-family="helvetica">NT1.21</text>
    </g>
    <g>
     <circle stroke="black" stroke-width="0.5" fill="#aaffff" cx="680.0" cy="216.0" r="1.0"/>
     <text stroke="none" x="680.0" y="216.0" font-size="20.0" font-family="helvetica"> Halococcus saccharolyticus ATCC 49257T (AB004876)</text>
    </g>
    <g>
     <circle stroke="black" stroke-width="0.5" fill="#aaffff" cx="701.0" cy="150.0" r="1.0"/>
     <text stroke="none" x="701.0" y="150.0" font-size="20.0" font-family="helvetica">Halococcus hamelinensis ACM 52277 (DQ017835)</text>
    </g>
    <g>
     <circle stroke="black" stroke-width="0.5" fill="#aaffff" cx="701.0" cy="813.0" r="1.0"/>
     <text stroke="none" x="701.0" y="813.0" font-size="20.0" font-family="helvetica">Halorubrum aidingense JCM 135607 (DQ355813)</text>
    </g>
    <g>
     <circle stroke="black" stroke-width="0.5" fill="#aaffff" cx="3.0" cy="618.0" r="1.0"/>
     <text stroke="none" x="3.0" y="618.0" font-size="10.0" font-family="helvetica">NT1.25</text>
    </g>
    <line stroke="black" x1="701.0" y1="150.0" x2="477.0" y2="102.0" stroke-width="0.5"/>
    <line stroke="black" x1="680.0" y1="216.0" x2="609.0" y2="249.0" stroke-width="0.5"/>
    <line stroke="black" x1="495.0" y1="747.0" x2="447.0" y2="713.0" stroke-width="0.5"/>
    <line stroke="black" x1="528.0" y1="680.0" x2="447.0" y2="713.0" stroke-width="0.5"/>
    <line stroke="black" x1="595.0" y1="548.0" x2="408.0" y2="582.0" stroke-width="0.5"/>
    <line stroke="black" x1="447.0" y1="177.0" x2="192.0" y2="280.0" stroke-width="0.5"/>
    <line stroke="black" x1="358.0" y1="565.0" x2="396.0" y2="647.0" stroke-width="0.5"/>
    <line stroke="black" x1="396.0" y1="647.0" x2="447.0" y2="713.0" stroke-width="0.5"/>
    <line stroke="black" x1="3.0" y1="618.0" x2="101.0" y2="423.0" stroke-width="0.5"/>
    <line stroke="black" x1="701.0" y1="813.0" x2="3.0" y2="618.0" stroke-width="0.5"/>
   </g>
  </g>
 </svg>
</svg>
