<?xml version="1.0" encoding="UTF-8"?>
<svg height="800.0" width="700.0" xmlns="http://www.w3.org/2000/svg">
 <svg>
  <g>
   <g>
    <g>
     <circle stroke="black" stroke-width="0.5" fill="#aaffff" cx="48.0" cy="1926.0" r="1.0"/>
     <text stroke="none" x="48.0" y="1926.0" font-size="10.0" font-family="helvetica">NT1.1</text>
    </g>
    <g>
     <circle stroke="black" stroke-width="0.5" fill="#aaffff" cx="150.0" cy="1069.0" r="1.0"/>
     <text stroke="none" x="150.0" y="1069.0" font-size="20.0" font-family="helvetica">93</text>
    </g>
    <g>
     <circle stroke="black" stroke-width="0.5" fill="#aaffff" cx="171.0" cy="1798.0" r="1.0"/>
     <text stroke="none" x="171.0" y="1798.0" font-size="20.0" font-family="helvetica">91</text>
    </g>
    <g>
     <circle stroke="black" stroke-width="0.5" fill="#aaffff" cx="171.0" cy="2057.0" r="1.0"/>
     <text stroke="none" x="171.0" y="2057.0" font-size="20.0" font-family="helvetica">39</text>
    </g>
    <g>
     <circle stroke="black" stroke-width="0.5" fill="#aaffff" cx="217.0" cy="724.0" r="1.0"/>
     <text stroke="none" x="217.0" y="724.0" font-size="10.0" font-family="helvetica">NT1.5</text>
    </g>
    <g>
     <circle stroke="black" stroke-width="0.5" fill="#aaffff" cx="252.0" cy="2210.0" r="1.0"/>
     <text stroke="none" x="252.0" y="2210.0" font-size="10.0" font-family="helvetica">NT1.6</text>
    </g>
    <g>
     <circle stroke="black" stroke-width="0.5" fill="#aaffff" cx="285.0" cy="459.0" r="1.0"/>
     <text stroke="none" x="285.0" y="459.0" font-size="20.0" font-family="helvetica">21</text>
    </g>
    <g>
     <circle stroke="black" stroke-width="0.5" fill="#aaffff" cx="311.0" cy="988.0" r="1.0"/>
     <text stroke="none" x="311.0" y="988.0" font-size="20.0" font-family="helvetica">52</text>
    </g>
    <g>
     <circle stroke="black" stroke-width="0.5" fill="#aaffff" cx="321.0" cy="576.0" r="1.0"/>
     <text stroke="none" x="321.0" y="576.0" font-size="20.0" font-family="helvetica">27</text>
    </g>
    <g>
     <circle stroke="black" stroke-width="0.5" fill="#aaffff" cx="327.0" cy="2328.0" r="1.0"/>
     <text stroke="none" x="327.0" y="2328.0" font-size="20.0" font-family="helvetica">EU</text>
    </g>
    <g>
     <circle stroke="black" stroke-width="0.5" fill="#aaffff" cx="332.0" cy="2094.0" r="1.0"/>
     <text stroke="none" x="332.0" y="2094.0" font-size="20.0" font-family="helvetica">55</text>
    </g>
    <g>
     <circle stroke="black" stroke-width="0.5" fill="#aaffff" cx="343.0" cy="340.0" r="1.0"/>
     <text stroke="none" x="343.0" y="340.0" font-size="20.0" font-family="helvetica">53</text>
    </g>
    <g>
     <circle stroke="black" stroke-width="0.5" fill="#aaffff" cx="362.0" cy="266.0" r="1.0"/>
     <text stroke="none" x="362.0" y="266.0" font-size="20.0" font-family="helvetica">51</text>
    </g>
    <g>
     <circle stroke="black" stroke-width="0.5" fill="#aaffff" cx="379.0" cy="2041.0" r="1.0"/>
     <text stroke="none" x="379.0" y="2041.0" font-size="20.0" font-family="helvetica">51</text>
    </g>
    <g>
     <circle stroke="black" stroke-width="0.5" fill="#aaffff" cx="382.0" cy="646.0" r="1.0"/>
     <text stroke="none" x="382.0" y="646.0" font-size="10.0" font-family="helvetica">NT1.15</text>
    </g>
    <g>
     <circle stroke="black" stroke-width="0.5" fill="#aaffff" cx="400.0" cy="1412.0" r="1.0"/>
     <text stroke="none" x="400.0" y="1412.0" font-size="20.0" font-family="helvetica">100</text>
    </g>
    <g>
     <circle stroke="black" stroke-width="0.5" fill="#aaffff" cx="407.0" cy="207.0" r="1.0"/>
     <text stroke="none" x="407.0" y="207.0" font-size="20.0" font-family="helvetica">39</text>
    </g>
    <g>
     <circle stroke="black" stroke-width="0.5" fill="#aaffff" cx="410.0" cy="1843.0" r="1.0"/>
     <text stroke="none" x="410.0" y="1843.0" font-size="20.0" font-family="helvetica"/>
    </g>
    <g>
     <circle stroke="black" stroke-width="0.5" fill="#aaffff" cx="416.0" cy="726.0" r="1.0"/>
     <text stroke="none" x="416.0" y="726.0" font-size="20.0" font-family="helvetica">34</text>
    </g>
    <g>
     <circle stroke="black" stroke-width="0.5" fill="#aaffff" cx="419.0" cy="659.0" r="1.0"/>
     <text stroke="none" x="419.0" y="659.0" font-size="20.0" font-family="helvetica">55</text>
    </g>
    <g>
     <circle stroke="black" stroke-width="0.5" fill="#aaffff" cx="423.0" cy="794.0" r="1.0"/>
     <text stroke="none" x="423.0" y="794.0" font-size="20.0" font-family="helvetica">3</text>
    </g>
    <g>
     <circle stroke="black" stroke-width="0.5" fill="#aaffff" cx="424.0" cy="688.0" r="1.0"/>
     <text stroke="none" x="424.0" y="688.0" font-size="20.0" font-family="helvetica">Rhizobium pisi DSM 3o132T (AY509899)</text>
    </g>
    <g>
     <circle stroke="black" stroke-width="0.5" fill="#aaffff" cx="425.0" cy="1312.0" r="1.0"/>
     <text stroke="none" x="425.0" y="1312.0" font-size="20.0" font-family="helvetica">B5</text>
    </g>
    <g>
     <circle stroke="black" stroke-width="0.5" fill="#aaffff" cx="427.0" cy="1273.0" r="1.0"/>
     <text stroke="none" x="427.0" y="1273.0" font-size="10.0" font-family="helvetica">NT1.24</text>
    </g>
    <g>
     <circle stroke="black" stroke-width="0.5" fill="#aaffff" cx="427.0" cy="2238.0" r="1.0"/>
     <text stroke="none" x="427.0" y="2238.0" font-size="20.0" font-family="helvetica">37</text>
    </g>
    <g>
     <circle stroke="black" stroke-width="0.5" fill="#aaffff" cx="431.0" cy="628.0" r="1.0"/>
     <text stroke="none" x="431.0" y="628.0" font-size="20.0" font-family="helvetica"/>
    </g>
    <g>
     <circle stroke="black" stroke-width="0.5" fill="#aaffff" cx="434.0" cy="324.0" r="1.0"/>
     <text stroke="none" x="434.0" y="324.0" font-size="20.0" font-family="helvetica"/>
    </g>
    <g>
     <circle stroke="black" stroke-width="0.5" fill="#aaffff" cx="439.0" cy="1357.0" r="1.0"/>
     <text stroke="none" x="439.0" y="1357.0" font-size="20.0" font-family="helvetica"/>
    </g>
    <g>
     <circle stroke="black" stroke-width="0.5" fill="#aaffff" cx="440.0" cy="749.0" r="1.0"/>
     <text stroke="none" x="440.0" y="749.0" font-size="20.0" font-family="helvetica"/>
    </g>
    <g>
     <circle stroke="black" stroke-width="0.5" fill="#aaffff" cx="443.0" cy="1296.0" r="1.0"/>
     <text stroke="none" x="443.0" y="1296.0" font-size="20.0" font-family="helvetica"/>
    </g>
    <g>
     <circle stroke="black" stroke-width="0.5" fill="#aaffff" cx="456.0" cy="1235.0" r="1.0"/>
     <text stroke="none" x="456.0" y="1235.0" font-size="20.0" font-family="helvetica"/>
    </g>
    <g>
     <circle stroke="black" stroke-width="0.5" fill="#aaffff" cx="458.0" cy="566.0" r="1.0"/>
     <text stroke="none" x="458.0" y="566.0" font-size="20.0" font-family="helvetica"/>
    </g>
    <g>
     <circle stroke="black" stroke-width="0.5" fill="#aaffff" cx="462.0" cy="414.0" r="1.0"/>
     <text stroke="none" x="462.0" y="414.0" font-size="20.0" font-family="helvetica">99</text>
    </g>
    <g>
     <circle stroke="black" stroke-width="0.5" fill="#aaffff" cx="464.0" cy="1515.0" r="1.0"/>
     <text stroke="none" x="464.0" y="1515.0" font-size="20.0" font-family="helvetica">93</text>
    </g>
    <g>
     <circle stroke="black" stroke-width="0.5" fill="#aaffff" cx="470.0" cy="1416.0" r="1.0"/>
     <text stroke="none" x="470.0" y="1416.0" font-size="20.0" font-family="helvetica">Rhizobium tropiciA LMG 9518 (X67233)</text>
    </g>
    <g>
     <circle stroke="black" stroke-width="0.5" fill="#aaffff" cx="470.0" cy="1449.0" r="1.0"/>
     <text stroke="none" x="470.0" y="1449.0" font-size="20.0" font-family="helvetica">45</text>
    </g>
    <g>
     <circle stroke="black" stroke-width="0.5" fill="#aaffff" cx="481.0" cy="1903.0" r="1.0"/>
     <text stroke="none" x="481.0" y="1903.0" font-size="20.0" font-family="helvetica">Rhizobium giardinii H1527 (U86344)</text>
    </g>
    <g>
     <circle stroke="black" stroke-width="0.5" fill="#aaffff" cx="481.0" cy="151.0" r="1.0"/>
     <text stroke="none" x="481.0" y="151.0" font-size="20.0" font-family="helvetica">37</text>
    </g>
    <g>
     <circle stroke="black" stroke-width="0.5" fill="#aaffff" cx="486.0" cy="446.0" r="1.0"/>
     <text stroke="none" x="486.0" y="446.0" font-size="20.0" font-family="helvetica"/>
    </g>
    <g>
     <circle stroke="black" stroke-width="0.5" fill="#aaffff" cx="488.0" cy="1044.0" r="1.0"/>
     <text stroke="none" x="488.0" y="1044.0" font-size="10.0" font-family="helvetica">NT1.40</text>
    </g>
    <g>
     <circle stroke="black" stroke-width="0.5" fill="#aaffff" cx="494.0" cy="52.0" r="1.0"/>
     <text stroke="none" x="494.0" y="52.0" font-size="10.0" font-family="helvetica">NT1.41</text>
    </g>
    <g>
     <circle stroke="black" stroke-width="0.5" fill="#aaffff" cx="496.0" cy="1584.0" r="1.0"/>
     <text stroke="none" x="496.0" y="1584.0" font-size="20.0" font-family="helvetica">77</text>
    </g>
    <g>
     <circle stroke="black" stroke-width="0.5" fill="#aaffff" cx="498.0" cy="1539.0" r="1.0"/>
     <text stroke="none" x="498.0" y="1539.0" font-size="20.0" font-family="helvetica"/>
    </g>
    <g>
     <circle stroke="black" stroke-width="0.5" fill="#aaffff" cx="505.0" cy="385.0" r="1.0"/>
     <text stroke="none" x="505.0" y="385.0" font-size="20.0" font-family="helvetica"/>
    </g>
    <g>
     <circle stroke="black" stroke-width="0.5" fill="#aaffff" cx="508.0" cy="81.0" r="1.0"/>
     <text stroke="none" x="508.0" y="81.0" font-size="20.0" font-family="helvetica">Rhizobium loessense CCBAU 7190B7 (AF364069)</text>
    </g>
    <g>
     <circle stroke="black" stroke-width="0.5" fill="#aaffff" cx="524.0" cy="1630.0" r="1.0"/>
     <text stroke="none" x="524.0" y="1630.0" font-size="20.0" font-family="helvetica">53</text>
    </g>
    <g>
     <circle stroke="black" stroke-width="0.5" fill="#aaffff" cx="525.0" cy="1661.0" r="1.0"/>
     <text stroke="none" x="525.0" y="1661.0" font-size="20.0" font-family="helvetica"/>
    </g>
    <g>
     <circle stroke="black" stroke-width="0.5" fill="#aaffff" cx="530.0" cy="2146.0" r="1.0"/>
     <text stroke="none" x="530.0" y="2146.0" font-size="20.0" font-family="helvetica">Rhizobium daejeonense L617 (AY341343)</text>
    </g>
    <g>
     <circle stroke="black" stroke-width="0.5" fill="#aaffff" cx="538.0" cy="2419.0" r="1.0"/>
     <text stroke="none" x="538.0" y="2419.0" font-size="20.0" font-family="helvetica">98</text>
    </g>
    <g>
     <circle stroke="black" stroke-width="0.5" fill="#aaffff" cx="540.0" cy="840.0" r="1.0"/>
     <text stroke="none" x="540.0" y="840.0" font-size="20.0" font-family="helvetica">99</text>
    </g>
    <g>
     <circle stroke="black" stroke-width="0.5" fill="#aaffff" cx="545.0" cy="263.0" r="1.0"/>
     <text stroke="none" x="545.0" y="263.0" font-size="20.0" font-family="helvetica">Rhizobium indigoferae CCBAU 710427 (AF364068)</text>
    </g>
    <g>
     <circle stroke="black" stroke-width="0.5" fill="#aaffff" cx="546.0" cy="203.0" r="1.0"/>
     <text stroke="none" x="546.0" y="203.0" font-size="20.0" font-family="helvetica"/>
    </g>
    <g>
     <circle stroke="black" stroke-width="0.5" fill="#aaffff" cx="546.0" cy="871.0" r="1.0"/>
     <text stroke="none" x="546.0" y="871.0" font-size="20.0" font-family="helvetica">Rhizobium leguminosarum bv. trifolii ATCC 14480</text>
    </g>
    <g>
     <circle stroke="black" stroke-width="0.5" fill="#aaffff" cx="560.0" cy="21.0" r="1.0"/>
     <text stroke="none" x="560.0" y="21.0" font-size="20.0" font-family="helvetica">Rhizobium gallicum R602sp7 (U86343)</text>
    </g>
    <g>
     <circle stroke="black" stroke-width="0.5" fill="#aaffff" cx="561.0" cy="1478.0" r="1.0"/>
     <text stroke="none" x="561.0" y="1478.0" font-size="20.0" font-family="helvetica">Rhizobium tropici B CIAT 8997 (U89832)</text>
    </g>
    <g>
     <circle stroke="black" stroke-width="0.5" fill="#aaffff" cx="571.0" cy="1995.0" r="1.0"/>
     <text stroke="none" x="571.0" y="1995.0" font-size="10.0" font-family="helvetica">NT1.56</text>
    </g>
    <g>
     <circle stroke="black" stroke-width="0.5" fill="#aaffff" cx="572.0" cy="1599.0" r="1.0"/>
     <text stroke="none" x="572.0" y="1599.0" font-size="20.0" font-family="helvetica">Rhizobium hainanense I667 (U71 078)</text>
    </g>
    <g>
     <circle stroke="black" stroke-width="0.5" fill="#aaffff" cx="576.0" cy="506.0" r="1.0"/>
     <text stroke="none" x="576.0" y="506.0" font-size="20.0" font-family="helvetica"/>
    </g>
    <g>
     <circle stroke="black" stroke-width="0.5" fill="#aaffff" cx="580.0" cy="810.0" r="1.0"/>
     <text stroke="none" x="580.0" y="810.0" font-size="20.0" font-family="helvetica">Rhizobium leguminosarum bv. viciae USDA 23707 (U29386)</text>
    </g>
    <g>
     <circle stroke="black" stroke-width="0.5" fill="#aaffff" cx="590.0" cy="2480.0" r="1.0"/>
     <text stroke="none" x="590.0" y="2480.0" font-size="20.0" font-family="helvetica">55</text>
    </g>
    <g>
     <circle stroke="black" stroke-width="0.5" fill="#aaffff" cx="599.0" cy="2360.0" r="1.0"/>
     <text stroke="none" x="599.0" y="2360.0" font-size="20.0" font-family="helvetica">57</text>
    </g>
    <g>
     <circle stroke="black" stroke-width="0.5" fill="#aaffff" cx="629.0" cy="2086.0" r="1.0"/>
     <text stroke="none" x="629.0" y="2086.0" font-size="20.0" font-family="helvetica">Rhizobium selenitireducens B17</text>
    </g>
    <g>
     <circle stroke="black" stroke-width="0.5" fill="#aaffff" cx="648.0" cy="2329.0" r="1.0"/>
     <text stroke="none" x="648.0" y="2329.0" font-size="20.0" font-family="helvetica">Rhizobium radiobacter NCPPB 2437 (D14500)</text>
    </g>
    <g>
     <circle stroke="black" stroke-width="0.5" fill="#aaffff" cx="656.0" cy="1964.0" r="1.0"/>
     <text stroke="none" x="656.0" y="1964.0" font-size="20.0" font-family="helvetica">Rhizobium rosettiformans W37 (EU781 656)</text>
    </g>
    <g>
     <circle stroke="black" stroke-width="0.5" fill="#aaffff" cx="678.0" cy="1098.0" r="1.0"/>
     <text stroke="none" x="678.0" y="1098.0" font-size="20.0" font-family="helvetica">35</text>
    </g>
    <g>
     <circle stroke="black" stroke-width="0.5" fill="#aaffff" cx="703.0" cy="1143.0" r="1.0"/>
     <text stroke="none" x="703.0" y="1143.0" font-size="20.0" font-family="helvetica">87'</text>
    </g>
    <g>
     <circle stroke="black" stroke-width="0.5" fill="#aaffff" cx="710.0" cy="1053.0" r="1.0"/>
     <text stroke="none" x="710.0" y="1053.0" font-size="20.0" font-family="helvetica"/>
    </g>
    <g>
     <circle stroke="black" stroke-width="0.5" fill="#aaffff" cx="737.0" cy="992.0" r="1.0"/>
     <text stroke="none" x="737.0" y="992.0" font-size="20.0" font-family="helvetica">Rhizobium soli D3-427 (EF363715)</text>
    </g>
    <g>
     <circle stroke="black" stroke-width="0.5" fill="#aaffff" cx="781.0" cy="2267.0" r="1.0"/>
     <text stroke="none" x="781.0" y="2267.0" font-size="20.0" font-family="helvetica"/>
    </g>
    <g>
     <circle stroke="black" stroke-width="0.5" fill="#aaffff" cx="786.0" cy="2390.0" r="1.0"/>
     <text stroke="none" x="786.0" y="2390.0" font-size="20.0" font-family="helvetica">Rhizobium pusense NRCPB107 (FJ969841)</text>
    </g>
    <g>
     <circle stroke="black" stroke-width="0.5" fill="#aaffff" cx="789.0" cy="1113.0" r="1.0"/>
     <text stroke="none" x="789.0" y="1113.0" font-size="20.0" font-family="helvetica">Rhizobium galegae ATCC 436777 (D1 1343)</text>
    </g>
    <g>
     <circle stroke="black" stroke-width="0.5" fill="#aaffff" cx="799.0" cy="2511.0" r="1.0"/>
     <text stroke="none" x="799.0" y="2511.0" font-size="20.0" font-family="helvetica">Rhizobium rubi IFO 132617 (D14503)</text>
    </g>
    <g>
     <circle stroke="black" stroke-width="0.5" fill="#aaffff" cx="803.0" cy="2451.0" r="1.0"/>
     <text stroke="none" x="803.0" y="2451.0" font-size="20.0" font-family="helvetica"/>
    </g>
    <g>
     <circle stroke="black" stroke-width="0.5" fill="#aaffff" cx="835.0" cy="1752.0" r="1.0"/>
     <text stroke="none" x="835.0" y="1752.0" font-size="10.0" font-family="helvetica">NT1.74</text>
    </g>
    <g>
     <circle stroke="black" stroke-width="0.5" fill="#aaffff" cx="865.0" cy="1721.0" r="1.0"/>
     <text stroke="none" x="865.0" y="1721.0" font-size="20.0" font-family="helvetica">Mesorhizobium ciceri UPM-Ca77 (U07934)</text>
    </g>
    <g>
     <circle stroke="black" stroke-width="0.5" fill="#aaffff" cx="866.0" cy="1782.0" r="1.0"/>
     <text stroke="none" x="866.0" y="1782.0" font-size="20.0" font-family="helvetica"/>
    </g>
    <g>
     <circle stroke="black" stroke-width="0.5" fill="#aaffff" cx="870.0" cy="2207.0" r="1.0"/>
     <text stroke="none" x="870.0" y="2207.0" font-size="20.0" font-family="helvetica"/>
    </g>
    <g>
     <circle stroke="black" stroke-width="0.5" fill="#aaffff" cx="883.0" cy="931.0" r="1.0"/>
     <text stroke="none" x="883.0" y="931.0" font-size="20.0" font-family="helvetica">Rhizobium oryzae Alt 5057 (EU056823)</text>
    </g>
    <g>
     <circle stroke="black" stroke-width="0.5" fill="#aaffff" cx="1039.0" cy="1174.0" r="1.0"/>
     <text stroke="none" x="1039.0" y="1174.0" font-size="20.0" font-family="helvetica">Rhizobium cellulosilyticum ALA10B27 (DQ855276)</text>
    </g>
    <g>
     <circle stroke="black" stroke-width="0.5" fill="#aaffff" cx="1039.0" cy="2025.0" r="1.0"/>
     <text stroke="none" x="1039.0" y="2025.0" font-size="20.0" font-family="helvetica">Rhizobium aggregatum IFAM 10037 (X73041)</text>
    </g>
    <line stroke="black" x1="508.0" y1="81.0" x2="494.0" y2="52.0" stroke-width="0.5"/>
    <line stroke="black" x1="546.0" y1="203.0" x2="481.0" y2="151.0" stroke-width="0.5"/>
    <line stroke="black" x1="424.0" y1="688.0" x2="419.0" y2="659.0" stroke-width="0.5"/>
    <line stroke="black" x1="576.0" y1="506.0" x2="321.0" y2="576.0" stroke-width="0.5"/>
    <line stroke="black" x1="431.0" y1="628.0" x2="419.0" y2="659.0" stroke-width="0.5"/>
    <line stroke="black" x1="440.0" y1="749.0" x2="423.0" y2="794.0" stroke-width="0.5"/>
    <line stroke="black" x1="883.0" y1="931.0" x2="311.0" y2="988.0" stroke-width="0.5"/>
    <line stroke="black" x1="443.0" y1="1296.0" x2="427.0" y2="1273.0" stroke-width="0.5"/>
    <line stroke="black" x1="439.0" y1="1357.0" x2="425.0" y2="1312.0" stroke-width="0.5"/>
    <line stroke="black" x1="1039.0" y1="1174.0" x2="703.0" y2="1143.0" stroke-width="0.5"/>
    <line stroke="black" x1="470.0" y1="1416.0" x2="470.0" y2="1449.0" stroke-width="0.5"/>
    <line stroke="black" x1="561.0" y1="1478.0" x2="470.0" y2="1449.0" stroke-width="0.5"/>
    <line stroke="black" x1="525.0" y1="1661.0" x2="524.0" y2="1630.0" stroke-width="0.5"/>
    <line stroke="black" x1="572.0" y1="1599.0" x2="524.0" y2="1630.0" stroke-width="0.5"/>
    <line stroke="black" x1="865.0" y1="1721.0" x2="835.0" y2="1752.0" stroke-width="0.5"/>
    <line stroke="black" x1="866.0" y1="1782.0" x2="835.0" y2="1752.0" stroke-width="0.5"/>
    <line stroke="black" x1="629.0" y1="2086.0" x2="379.0" y2="2041.0" stroke-width="0.5"/>
    <line stroke="black" x1="648.0" y1="2329.0" x2="599.0" y2="2360.0" stroke-width="0.5"/>
    <line stroke="black" x1="786.0" y1="2390.0" x2="599.0" y2="2360.0" stroke-width="0.5"/>
    <line stroke="black" x1="799.0" y1="2511.0" x2="590.0" y2="2480.0" stroke-width="0.5"/>
    <line stroke="black" x1="870.0" y1="2207.0" x2="427.0" y2="2238.0" stroke-width="0.5"/>
    <line stroke="black" x1="481.0" y1="151.0" x2="407.0" y2="207.0" stroke-width="0.5"/>
    <line stroke="black" x1="407.0" y1="207.0" x2="362.0" y2="266.0" stroke-width="0.5"/>
    <line stroke="black" x1="362.0" y1="266.0" x2="343.0" y2="340.0" stroke-width="0.5"/>
    <line stroke="black" x1="343.0" y1="340.0" x2="285.0" y2="459.0" stroke-width="0.5"/>
    <line stroke="black" x1="343.0" y1="340.0" x2="462.0" y2="414.0" stroke-width="0.5"/>
    <line stroke="black" x1="285.0" y1="459.0" x2="217.0" y2="724.0" stroke-width="0.5"/>
    <line stroke="black" x1="285.0" y1="459.0" x2="321.0" y2="576.0" stroke-width="0.5"/>
    <line stroke="black" x1="321.0" y1="576.0" x2="382.0" y2="646.0" stroke-width="0.5"/>
    <line stroke="black" x1="382.0" y1="646.0" x2="416.0" y2="726.0" stroke-width="0.5"/>
    <line stroke="black" x1="217.0" y1="724.0" x2="150.0" y2="1069.0" stroke-width="0.5"/>
    <line stroke="black" x1="217.0" y1="724.0" x2="311.0" y2="988.0" stroke-width="0.5"/>
    <line stroke="black" x1="416.0" y1="726.0" x2="423.0" y2="794.0" stroke-width="0.5"/>
    <line stroke="black" x1="416.0" y1="726.0" x2="419.0" y2="659.0" stroke-width="0.5"/>
    <line stroke="black" x1="423.0" y1="794.0" x2="540.0" y2="840.0" stroke-width="0.5"/>
    <line stroke="black" x1="311.0" y1="988.0" x2="488.0" y2="1044.0" stroke-width="0.5"/>
    <line stroke="black" x1="150.0" y1="1069.0" x2="400.0" y2="1412.0" stroke-width="0.5"/>
    <line stroke="black" x1="488.0" y1="1044.0" x2="678.0" y2="1098.0" stroke-width="0.5"/>
    <line stroke="black" x1="678.0" y1="1098.0" x2="703.0" y2="1143.0" stroke-width="0.5"/>
    <line stroke="black" x1="400.0" y1="1412.0" x2="464.0" y2="1515.0" stroke-width="0.5"/>
    <line stroke="black" x1="400.0" y1="1412.0" x2="425.0" y2="1312.0" stroke-width="0.5"/>
    <line stroke="black" x1="425.0" y1="1312.0" x2="427.0" y2="1273.0" stroke-width="0.5"/>
    <line stroke="black" x1="464.0" y1="1515.0" x2="496.0" y2="1584.0" stroke-width="0.5"/>
    <line stroke="black" x1="464.0" y1="1515.0" x2="470.0" y2="1449.0" stroke-width="0.5"/>
    <line stroke="black" x1="496.0" y1="1584.0" x2="524.0" y2="1630.0" stroke-width="0.5"/>
    <line stroke="black" x1="496.0" y1="1584.0" x2="498.0" y2="1539.0" stroke-width="0.5"/>
    <line stroke="black" x1="48.0" y1="1926.0" x2="171.0" y2="2057.0" stroke-width="0.5"/>
    <line stroke="black" x1="48.0" y1="1926.0" x2="171.0" y2="1798.0" stroke-width="0.5"/>
    <line stroke="black" x1="171.0" y1="1798.0" x2="835.0" y2="1752.0" stroke-width="0.5"/>
    <line stroke="black" x1="171.0" y1="2057.0" x2="252.0" y2="2210.0" stroke-width="0.5"/>
    <line stroke="black" x1="252.0" y1="2210.0" x2="327.0" y2="2328.0" stroke-width="0.5"/>
    <line stroke="black" x1="252.0" y1="2210.0" x2="332.0" y2="2094.0" stroke-width="0.5"/>
    <line stroke="black" x1="327.0" y1="2328.0" x2="538.0" y2="2419.0" stroke-width="0.5"/>
    <line stroke="black" x1="327.0" y1="2328.0" x2="427.0" y2="2238.0" stroke-width="0.5"/>
    <line stroke="black" x1="332.0" y1="2094.0" x2="379.0" y2="2041.0" stroke-width="0.5"/>
    <line stroke="black" x1="379.0" y1="2041.0" x2="571.0" y2="1995.0" stroke-width="0.5"/>
    <line stroke="black" x1="538.0" y1="2419.0" x2="590.0" y2="2480.0" stroke-width="0.5"/>
    <line stroke="black" x1="538.0" y1="2419.0" x2="599.0" y2="2360.0" stroke-width="0.5"/>
    <line stroke="black" x1="150.0" y1="1069.0" x2="48.0" y2="1926.0" stroke-width="0.5"/>
    <line stroke="black" x1="410.0" y1="1843.0" x2="171.0" y2="1798.0" stroke-width="0.5"/>
    <line stroke="black" x1="481.0" y1="1903.0" x2="171.0" y2="2057.0" stroke-width="0.5"/>
    <line stroke="black" x1="434.0" y1="324.0" x2="362.0" y2="266.0" stroke-width="0.5"/>
    <line stroke="black" x1="530.0" y1="2146.0" x2="332.0" y2="2094.0" stroke-width="0.5"/>
    <line stroke="black" x1="458.0" y1="566.0" x2="382.0" y2="646.0" stroke-width="0.5"/>
    <line stroke="black" x1="456.0" y1="1235.0" x2="427.0" y2="1273.0" stroke-width="0.5"/>
    <line stroke="black" x1="545.0" y1="263.0" x2="407.0" y2="207.0" stroke-width="0.5"/>
    <line stroke="black" x1="505.0" y1="385.0" x2="462.0" y2="414.0" stroke-width="0.5"/>
    <line stroke="black" x1="486.0" y1="446.0" x2="462.0" y2="414.0" stroke-width="0.5"/>
    <line stroke="black" x1="494.0" y1="52.0" x2="481.0" y2="151.0" stroke-width="0.5"/>
    <line stroke="black" x1="560.0" y1="21.0" x2="494.0" y2="52.0" stroke-width="0.5"/>
    <line stroke="black" x1="580.0" y1="810.0" x2="540.0" y2="840.0" stroke-width="0.5"/>
    <line stroke="black" x1="546.0" y1="871.0" x2="540.0" y2="840.0" stroke-width="0.5"/>
    <line stroke="black" x1="781.0" y1="2267.0" x2="427.0" y2="2238.0" stroke-width="0.5"/>
    <line stroke="black" x1="737.0" y1="992.0" x2="488.0" y2="1044.0" stroke-width="0.5"/>
    <line stroke="black" x1="656.0" y1="1964.0" x2="571.0" y2="1995.0" stroke-width="0.5"/>
    <line stroke="black" x1="803.0" y1="2451.0" x2="590.0" y2="2480.0" stroke-width="0.5"/>
    <line stroke="black" x1="710.0" y1="1053.0" x2="678.0" y2="1098.0" stroke-width="0.5"/>
    <line stroke="black" x1="1039.0" y1="2025.0" x2="571.0" y2="1995.0" stroke-width="0.5"/>
    <line stroke="black" x1="789.0" y1="1113.0" x2="703.0" y2="1143.0" stroke-width="0.5"/>
   </g>
  </g>
 </svg>
</svg>
