<?xml version="1.0" encoding="UTF-8"?>
<svg height="800.0" width="700.0" xmlns="http://www.w3.org/2000/svg">
 <svg>
  <g>
   <g>
    <g>
     <circle stroke="black" stroke-width="0.5" fill="#aaffff" cx="251.0" cy="199.0" r="1.0"/>
     <text stroke="none" x="251.0" y="199.0" font-size="10.0" font-family="helvetica">NT1.1</text>
    </g>
    <g>
     <circle stroke="black" stroke-width="0.5" fill="#aaffff" cx="284.0" cy="354.0" r="1.0"/>
     <text stroke="none" x="284.0" y="354.0" font-size="10.0" font-family="helvetica">NT1.2</text>
    </g>
    <g>
     <circle stroke="black" stroke-width="0.5" fill="#aaffff" cx="377.0" cy="151.0" r="1.0"/>
     <text stroke="none" x="377.0" y="151.0" font-size="10.0" font-family="helvetica">NT1.3</text>
    </g>
    <g>
     <circle stroke="black" stroke-width="0.5" fill="#aaffff" cx="408.0" cy="231.0" r="1.0"/>
     <text stroke="none" x="408.0" y="231.0" font-size="10.0" font-family="helvetica">NT1.4</text>
    </g>
    <g>
     <circle stroke="black" stroke-width="0.5" fill="#aaffff" cx="417.0" cy="166.0" r="1.0"/>
     <text stroke="none" x="417.0" y="166.0" font-size="10.0" font-family="helvetica">NT1.5</text>
    </g>
    <g>
     <circle stroke="black" stroke-width="0.5" fill="#aaffff" cx="424.0" cy="295.0" r="1.0"/>
     <text stroke="none" x="424.0" y="295.0" font-size="10.0" font-family="helvetica">NT1.6</text>
    </g>
    <g>
     <circle stroke="black" stroke-width="0.5" fill="#aaffff" cx="461.0" cy="341.0" r="1.0"/>
     <text stroke="none" x="461.0" y="341.0" font-size="10.0" font-family="helvetica">NT1.7</text>
    </g>
    <g>
     <circle stroke="black" stroke-width="0.5" fill="#aaffff" cx="468.0" cy="191.0" r="1.0"/>
     <text stroke="none" x="468.0" y="191.0" font-size="10.0" font-family="helvetica">NT1.8</text>
    </g>
    <g>
     <circle stroke="black" stroke-width="0.5" fill="#aaffff" cx="468.0" cy="297.0" r="1.0"/>
     <text stroke="none" x="468.0" y="297.0" font-size="10.0" font-family="helvetica">NT1.9</text>
    </g>
    <g>
     <circle stroke="black" stroke-width="0.5" fill="#aaffff" cx="474.0" cy="548.0" r="1.0"/>
     <text stroke="none" x="474.0" y="548.0" font-size="10.0" font-family="helvetica">NT1.10</text>
    </g>
    <g>
     <circle stroke="black" stroke-width="0.5" fill="#aaffff" cx="481.0" cy="410.0" r="1.0"/>
     <text stroke="none" x="481.0" y="410.0" font-size="10.0" font-family="helvetica">NT1.11</text>
    </g>
    <g>
     <circle stroke="black" stroke-width="0.5" fill="#aaffff" cx="501.0" cy="443.0" r="1.0"/>
     <text stroke="none" x="501.0" y="443.0" font-size="10.0" font-family="helvetica">NT1.12</text>
    </g>
    <g>
     <circle stroke="black" stroke-width="0.5" fill="#aaffff" cx="503.0" cy="89.0" r="1.0"/>
     <text stroke="none" x="503.0" y="89.0" font-size="10.0" font-family="helvetica">NT1.13</text>
    </g>
    <g>
     <circle stroke="black" stroke-width="0.5" fill="#aaffff" cx="513.0" cy="483.0" r="1.0"/>
     <text stroke="none" x="513.0" y="483.0" font-size="10.0" font-family="helvetica">NT1.14</text>
    </g>
    <g>
     <circle stroke="black" stroke-width="0.5" fill="#aaffff" cx="525.0" cy="110.0" r="1.0"/>
     <text stroke="none" x="525.0" y="110.0" font-size="10.0" font-family="helvetica">NT1.15</text>
    </g>
    <g>
     <circle stroke="black" stroke-width="0.5" fill="#aaffff" cx="533.0" cy="532.0" r="1.0"/>
     <text stroke="none" x="533.0" y="532.0" font-size="10.0" font-family="helvetica">NT1.16</text>
    </g>
    <g>
     <circle stroke="black" stroke-width="0.5" fill="#aaffff" cx="537.0" cy="77.0" r="1.0"/>
     <text stroke="none" x="537.0" y="77.0" font-size="20.0" font-family="helvetica">Hydrogenophaga pseudoflava ATCC 33668T (AF07B770)</text>
    </g>
    <g>
     <circle stroke="black" stroke-width="0.5" fill="#aaffff" cx="548.0" cy="566.0" r="1.0"/>
     <text stroke="none" x="548.0" y="566.0" font-size="10.0" font-family="helvetica">NT1.18</text>
    </g>
    <g>
     <circle stroke="black" stroke-width="0.5" fill="#aaffff" cx="548.0" cy="272.0" r="1.0"/>
     <text stroke="none" x="548.0" y="272.0" font-size="10.0" font-family="helvetica">NT1.19</text>
    </g>
    <g>
     <circle stroke="black" stroke-width="0.5" fill="#aaffff" cx="550.0" cy="240.0" r="1.0"/>
     <text stroke="none" x="550.0" y="240.0" font-size="20.0" font-family="helvetica">Xenophilus azovorans KF46FT (AF285414)</text>
    </g>
    <g>
     <circle stroke="black" stroke-width="0.5" fill="#aaffff" cx="559.0" cy="321.0" r="1.0"/>
     <text stroke="none" x="559.0" y="321.0" font-size="10.0" font-family="helvetica">NT1.21</text>
    </g>
    <g>
     <circle stroke="black" stroke-width="0.5" fill="#aaffff" cx="574.0" cy="467.0" r="1.0"/>
     <text stroke="none" x="574.0" y="467.0" font-size="10.0" font-family="helvetica">NT1.22</text>
    </g>
    <g>
     <circle stroke="black" stroke-width="0.5" fill="#aaffff" cx="576.0" cy="142.0" r="1.0"/>
     <text stroke="none" x="576.0" y="142.0" font-size="20.0" font-family="helvetica">Delftia acidovorans IAM 124097 (AB021417)</text>
    </g>
    <g>
     <circle stroke="black" stroke-width="0.5" fill="#aaffff" cx="592.0" cy="370.0" r="1.0"/>
     <text stroke="none" x="592.0" y="370.0" font-size="20.0" font-family="helvetica">Vanbvorax paradoxus IAM 123737 (D30793)</text>
    </g>
    <g>
     <circle stroke="black" stroke-width="0.5" fill="#aaffff" cx="594.0" cy="44.0" r="1.0"/>
     <text stroke="none" x="594.0" y="44.0" font-size="20.0" font-family="helvetica">Burkholderia cepacia ATCC 254167 (M22518)</text>
    </g>
    <g>
     <circle stroke="black" stroke-width="0.5" fill="#aaffff" cx="603.0" cy="175.0" r="1.0"/>
     <text stroke="none" x="603.0" y="175.0" font-size="10.0" font-family="helvetica">NT1.26</text>
    </g>
    <g>
     <circle stroke="black" stroke-width="0.5" fill="#aaffff" cx="607.0" cy="419.0" r="1.0"/>
     <text stroke="none" x="607.0" y="419.0" font-size="20.0" font-family="helvetica">100</text>
    </g>
    <g>
     <circle stroke="black" stroke-width="0.5" fill="#aaffff" cx="614.0" cy="207.0" r="1.0"/>
     <text stroke="none" x="614.0" y="207.0" font-size="20.0" font-family="helvetica">Comamonas tenigena IMI 3598707 (AF078772)</text>
    </g>
    <g>
     <circle stroke="black" stroke-width="0.5" fill="#aaffff" cx="620.0" cy="305.0" r="1.0"/>
     <text stroke="none" x="620.0" y="305.0" font-size="10.0" font-family="helvetica">NT1.29</text>
    </g>
    <g>
     <circle stroke="black" stroke-width="0.5" fill="#aaffff" cx="622.0" cy="337.0" r="1.0"/>
     <text stroke="none" x="622.0" y="337.0" font-size="10.0" font-family="helvetica">NT1.30</text>
    </g>
    <g>
     <circle stroke="black" stroke-width="0.5" fill="#aaffff" cx="658.0" cy="500.0" r="1.0"/>
     <text stroke="none" x="658.0" y="500.0" font-size="10.0" font-family="helvetica">NT1.31</text>
    </g>
    <g>
     <circle stroke="black" stroke-width="0.5" fill="#aaffff" cx="686.0" cy="402.0" r="1.0"/>
     <text stroke="none" x="686.0" y="402.0" font-size="10.0" font-family="helvetica">NT1.32</text>
    </g>
    <g>
     <circle stroke="black" stroke-width="0.5" fill="#aaffff" cx="723.0" cy="12.0" r="1.0"/>
     <text stroke="none" x="723.0" y="12.0" font-size="20.0" font-family="helvetica">Escherichia coli ATCC 117757 (X80725)</text>
    </g>
    <g>
     <circle stroke="black" stroke-width="0.5" fill="#aaffff" cx="723.0" cy="435.0" r="1.0"/>
     <text stroke="none" x="723.0" y="435.0" font-size="20.0" font-family="helvetica">Polaromonas vacuolata 34-PT (U14585)</text>
    </g>
    <g>
     <circle stroke="black" stroke-width="0.5" fill="#aaffff" cx="5.0" cy="105.0" r="1.0"/>
     <text stroke="none" x="5.0" y="105.0" font-size="10.0" font-family="helvetica">NT1.35</text>
    </g>
    <line stroke="black" x1="537.0" y1="77.0" x2="503.0" y2="89.0" stroke-width="0.5"/>
    <line stroke="black" x1="550.0" y1="240.0" x2="424.0" y2="295.0" stroke-width="0.5"/>
    <line stroke="black" x1="614.0" y1="207.0" x2="468.0" y2="191.0" stroke-width="0.5"/>
    <line stroke="black" x1="592.0" y1="370.0" x2="481.0" y2="410.0" stroke-width="0.5"/>
    <line stroke="black" x1="723.0" y1="435.0" x2="607.0" y2="419.0" stroke-width="0.5"/>
    <line stroke="black" x1="377.0" y1="151.0" x2="408.0" y2="231.0" stroke-width="0.5"/>
    <line stroke="black" x1="408.0" y1="231.0" x2="424.0" y2="295.0" stroke-width="0.5"/>
    <line stroke="black" x1="408.0" y1="231.0" x2="417.0" y2="166.0" stroke-width="0.5"/>
    <line stroke="black" x1="461.0" y1="341.0" x2="481.0" y2="410.0" stroke-width="0.5"/>
    <line stroke="black" x1="5.0" y1="105.0" x2="723.0" y2="12.0" stroke-width="0.5"/>
    <line stroke="black" x1="5.0" y1="105.0" x2="251.0" y2="199.0" stroke-width="0.5"/>
    <line stroke="black" x1="594.0" y1="44.0" x2="251.0" y2="199.0" stroke-width="0.5"/>
    <line stroke="black" x1="284.0" y1="354.0" x2="377.0" y2="151.0" stroke-width="0.5"/>
    <line stroke="black" x1="576.0" y1="142.0" x2="417.0" y2="166.0" stroke-width="0.5"/>
   </g>
  </g>
 </svg>
</svg>
