<?xml version="1.0" encoding="UTF-8"?>
<svg height="800.0" width="700.0" xmlns="http://www.w3.org/2000/svg">
 <svg>
  <g>
   <g>
    <g>
     <circle stroke="black" stroke-width="0.5" fill="#aaffff" cx="1.0" cy="591.0" r="1.0"/>
     <text stroke="none" x="1.0" y="591.0" font-size="20.0" font-family="helvetica"/>
    </g>
    <g>
     <circle stroke="black" stroke-width="0.5" fill="#aaffff" cx="50.0" cy="449.0" r="1.0"/>
     <text stroke="none" x="50.0" y="449.0" font-size="10.0" font-family="helvetica">NT1.2</text>
    </g>
    <g>
     <circle stroke="black" stroke-width="0.5" fill="#aaffff" cx="79.0" cy="323.0" r="1.0"/>
     <text stroke="none" x="79.0" y="323.0" font-size="10.0" font-family="helvetica">NT1.3</text>
    </g>
    <g>
     <circle stroke="black" stroke-width="0.5" fill="#aaffff" cx="103.0" cy="411.0" r="1.0"/>
     <text stroke="none" x="103.0" y="411.0" font-size="10.0" font-family="helvetica">NT1.4</text>
    </g>
    <g>
     <circle stroke="black" stroke-width="0.5" fill="#aaffff" cx="109.0" cy="234.0" r="1.0"/>
     <text stroke="none" x="109.0" y="234.0" font-size="10.0" font-family="helvetica">NT1.5</text>
    </g>
    <g>
     <circle stroke="black" stroke-width="0.5" fill="#aaffff" cx="153.0" cy="179.0" r="1.0"/>
     <text stroke="none" x="153.0" y="179.0" font-size="10.0" font-family="helvetica">NT1.6</text>
    </g>
    <g>
     <circle stroke="black" stroke-width="0.5" fill="#aaffff" cx="153.0" cy="285.0" r="1.0"/>
     <text stroke="none" x="153.0" y="285.0" font-size="10.0" font-family="helvetica">NT1.7</text>
    </g>
    <g>
     <circle stroke="black" stroke-width="0.5" fill="#aaffff" cx="186.0" cy="446.0" r="1.0"/>
     <text stroke="none" x="186.0" y="446.0" font-size="10.0" font-family="helvetica">NT1.8</text>
    </g>
    <g>
     <circle stroke="black" stroke-width="0.5" fill="#aaffff" cx="202.0" cy="574.0" r="1.0"/>
     <text stroke="none" x="202.0" y="574.0" font-size="10.0" font-family="helvetica">NT1.9</text>
    </g>
    <g>
     <circle stroke="black" stroke-width="0.5" fill="#aaffff" cx="214.0" cy="141.0" r="1.0"/>
     <text stroke="none" x="214.0" y="141.0" font-size="10.0" font-family="helvetica">NT1.10</text>
    </g>
    <g>
     <circle stroke="black" stroke-width="0.5" fill="#aaffff" cx="241.0" cy="476.0" r="1.0"/>
     <text stroke="none" x="241.0" y="476.0" font-size="10.0" font-family="helvetica">NT1.11</text>
    </g>
    <g>
     <circle stroke="black" stroke-width="0.5" fill="#aaffff" cx="253.0" cy="102.0" r="1.0"/>
     <text stroke="none" x="253.0" y="102.0" font-size="10.0" font-family="helvetica">NT1.12</text>
    </g>
    <g>
     <circle stroke="black" stroke-width="0.5" fill="#aaffff" cx="277.0" cy="611.0" r="1.0"/>
     <text stroke="none" x="277.0" y="611.0" font-size="10.0" font-family="helvetica">NT1.13</text>
    </g>
    <g>
     <circle stroke="black" stroke-width="0.5" fill="#aaffff" cx="290.0" cy="176.0" r="1.0"/>
     <text stroke="none" x="290.0" y="176.0" font-size="20.0" font-family="helvetica">Bacillus alcalophilus DSM 485T (X76436)</text>
    </g>
    <g>
     <circle stroke="black" stroke-width="0.5" fill="#aaffff" cx="302.0" cy="417.0" r="1.0"/>
     <text stroke="none" x="302.0" y="417.0" font-size="20.0" font-family="helvetica">Bacillus akibai 1 139T (ABO43858)</text>
    </g>
    <g>
     <circle stroke="black" stroke-width="0.5" fill="#aaffff" cx="304.0" cy="646.0" r="1.0"/>
     <text stroke="none" x="304.0" y="646.0" font-size="10.0" font-family="helvetica">NT1.16</text>
    </g>
    <g>
     <circle stroke="black" stroke-width="0.5" fill="#aaffff" cx="322.0" cy="256.0" r="1.0"/>
     <text stroke="none" x="322.0" y="256.0" font-size="20.0" font-family="helvetica">Bacillus hemicellulosilyticus C-1 17 (ABO43846)</text>
    </g>
    <g>
     <circle stroke="black" stroke-width="0.5" fill="#aaffff" cx="326.0" cy="497.0" r="1.0"/>
     <text stroke="none" x="326.0" y="497.0" font-size="20.0" font-family="helvetica">Bacillus wakoensis N-1T (AB043851)</text>
    </g>
    <g>
     <circle stroke="black" stroke-width="0.5" fill="#aaffff" cx="330.0" cy="67.0" r="1.0"/>
     <text stroke="none" x="330.0" y="67.0" font-size="10.0" font-family="helvetica">NT1.19</text>
    </g>
    <g>
     <circle stroke="black" stroke-width="0.5" fill="#aaffff" cx="335.0" cy="37.0" r="1.0"/>
     <text stroke="none" x="335.0" y="37.0" font-size="10.0" font-family="helvetica">NT1.20</text>
    </g>
    <g>
     <circle stroke="black" stroke-width="0.5" fill="#aaffff" cx="335.0" cy="316.0" r="1.0"/>
     <text stroke="none" x="335.0" y="316.0" font-size="10.0" font-family="helvetica">NT1.21</text>
    </g>
    <g>
     <circle stroke="black" stroke-width="0.5" fill="#aaffff" cx="341.0" cy="136.0" r="1.0"/>
     <text stroke="none" x="341.0" y="136.0" font-size="20.0" font-family="helvetica">Bacillus pseudalcaliphilus DSM 87257 (X76449)</text>
    </g>
    <g>
     <circle stroke="black" stroke-width="0.5" fill="#aaffff" cx="350.0" cy="457.0" r="1.0"/>
     <text stroke="none" x="350.0" y="457.0" font-size="20.0" font-family="helvetica">Bacillus krulwichiae AM31 DT (ABO86897)</text>
    </g>
    <g>
     <circle stroke="black" stroke-width="0.5" fill="#aaffff" cx="351.0" cy="296.0" r="1.0"/>
     <text stroke="none" x="351.0" y="296.0" font-size="20.0" font-family="helvetica">Bacillus halodurans DSM 4977 (AJ302709)</text>
    </g>
    <g>
     <circle stroke="black" stroke-width="0.5" fill="#aaffff" cx="356.0" cy="216.0" r="1.0"/>
     <text stroke="none" x="356.0" y="216.0" font-size="10.0" font-family="helvetica">NT1.25</text>
    </g>
    <g>
     <circle stroke="black" stroke-width="0.5" fill="#aaffff" cx="358.0" cy="96.0" r="1.0"/>
     <text stroke="none" x="358.0" y="96.0" font-size="20.0" font-family="helvetica">Bacillus trypoxylicola 36AC4 (AB482197)</text>
    </g>
    <g>
     <circle stroke="black" stroke-width="0.5" fill="#aaffff" cx="361.0" cy="56.0" r="1.0"/>
     <text stroke="none" x="361.0" y="56.0" font-size="20.0" font-family="helvetica">Bacillus trypoxylicola 36AC6 (AB482198)</text>
    </g>
    <g>
     <circle stroke="black" stroke-width="0.5" fill="#aaffff" cx="373.0" cy="16.0" r="1.0"/>
     <text stroke="none" x="373.0" y="16.0" font-size="20.0" font-family="helvetica">Bacillus trypoxylicola SU1T (AB434284)</text>
    </g>
    <g>
     <circle stroke="black" stroke-width="0.5" fill="#aaffff" cx="393.0" cy="337.0" r="1.0"/>
     <text stroke="none" x="393.0" y="337.0" font-size="20.0" font-family="helvetica">Bacillus okuhidensis GTC854T (ABO47684)</text>
    </g>
    <g>
     <circle stroke="black" stroke-width="0.5" fill="#aaffff" cx="419.0" cy="377.0" r="1.0"/>
     <text stroke="none" x="419.0" y="377.0" font-size="20.0" font-family="helvetica">Bacillus macyae JMM-4T (AY032601)</text>
    </g>
    <g>
     <circle stroke="black" stroke-width="0.5" fill="#aaffff" cx="465.0" cy="676.0" r="1.0"/>
     <text stroke="none" x="465.0" y="676.0" font-size="20.0" font-family="helvetica">100</text>
    </g>
    <g>
     <circle stroke="black" stroke-width="0.5" fill="#aaffff" cx="481.0" cy="697.0" r="1.0"/>
     <text stroke="none" x="481.0" y="697.0" font-size="20.0" font-family="helvetica">Bacillus lehensis MLB2T (AY793550)</text>
    </g>
    <g>
     <circle stroke="black" stroke-width="0.5" fill="#aaffff" cx="494.0" cy="577.0" r="1.0"/>
     <text stroke="none" x="494.0" y="577.0" font-size="10.0" font-family="helvetica">NT1.33</text>
    </g>
    <g>
     <circle stroke="black" stroke-width="0.5" fill="#aaffff" cx="496.0" cy="657.0" r="1.0"/>
     <text stroke="none" x="496.0" y="657.0" font-size="20.0" font-family="helvetica">Bacillus oshimensis K1 1T (AB188090)</text>
    </g>
    <g>
     <circle stroke="black" stroke-width="0.5" fill="#aaffff" cx="501.0" cy="617.0" r="1.0"/>
     <text stroke="none" x="501.0" y="617.0" font-size="20.0" font-family="helvetica">Bacillus patagoniensis FAT 057 (AY258614)</text>
    </g>
    <g>
     <circle stroke="black" stroke-width="0.5" fill="#aaffff" cx="533.0" cy="537.0" r="1.0"/>
     <text stroke="none" x="533.0" y="537.0" font-size="20.0" font-family="helvetica">Bacillus gibsonii DSM 8722T (X76446)</text>
    </g>
    <line stroke="black" x1="358.0" y1="96.0" x2="330.0" y2="67.0" stroke-width="0.5"/>
    <line stroke="black" x1="290.0" y1="176.0" x2="214.0" y2="141.0" stroke-width="0.5"/>
    <line stroke="black" x1="1.0" y1="591.0" x2="50.0" y2="449.0" stroke-width="0.5"/>
    <line stroke="black" x1="419.0" y1="377.0" x2="103.0" y2="411.0" stroke-width="0.5"/>
    <line stroke="black" x1="501.0" y1="617.0" x2="304.0" y2="646.0" stroke-width="0.5"/>
    <line stroke="black" x1="335.0" y1="37.0" x2="330.0" y2="67.0" stroke-width="0.5"/>
    <line stroke="black" x1="330.0" y1="67.0" x2="253.0" y2="102.0" stroke-width="0.5"/>
    <line stroke="black" x1="253.0" y1="102.0" x2="214.0" y2="141.0" stroke-width="0.5"/>
    <line stroke="black" x1="214.0" y1="141.0" x2="153.0" y2="179.0" stroke-width="0.5"/>
    <line stroke="black" x1="109.0" y1="234.0" x2="79.0" y2="323.0" stroke-width="0.5"/>
    <line stroke="black" x1="109.0" y1="234.0" x2="153.0" y2="285.0" stroke-width="0.5"/>
    <line stroke="black" x1="153.0" y1="285.0" x2="335.0" y2="316.0" stroke-width="0.5"/>
    <line stroke="black" x1="79.0" y1="323.0" x2="50.0" y2="449.0" stroke-width="0.5"/>
    <line stroke="black" x1="79.0" y1="323.0" x2="103.0" y2="411.0" stroke-width="0.5"/>
    <line stroke="black" x1="103.0" y1="411.0" x2="186.0" y2="446.0" stroke-width="0.5"/>
    <line stroke="black" x1="50.0" y1="449.0" x2="202.0" y2="574.0" stroke-width="0.5"/>
    <line stroke="black" x1="186.0" y1="446.0" x2="241.0" y2="476.0" stroke-width="0.5"/>
    <line stroke="black" x1="277.0" y1="611.0" x2="304.0" y2="646.0" stroke-width="0.5"/>
    <line stroke="black" x1="304.0" y1="646.0" x2="465.0" y2="676.0" stroke-width="0.5"/>
    <line stroke="black" x1="322.0" y1="256.0" x2="153.0" y2="285.0" stroke-width="0.5"/>
    <line stroke="black" x1="302.0" y1="417.0" x2="186.0" y2="446.0" stroke-width="0.5"/>
    <line stroke="black" x1="326.0" y1="497.0" x2="241.0" y2="476.0" stroke-width="0.5"/>
    <line stroke="black" x1="350.0" y1="457.0" x2="241.0" y2="476.0" stroke-width="0.5"/>
    <line stroke="black" x1="341.0" y1="136.0" x2="253.0" y2="102.0" stroke-width="0.5"/>
    <line stroke="black" x1="533.0" y1="537.0" x2="202.0" y2="574.0" stroke-width="0.5"/>
    <line stroke="black" x1="351.0" y1="296.0" x2="335.0" y2="316.0" stroke-width="0.5"/>
    <line stroke="black" x1="361.0" y1="56.0" x2="335.0" y2="37.0" stroke-width="0.5"/>
    <line stroke="black" x1="373.0" y1="16.0" x2="335.0" y2="37.0" stroke-width="0.5"/>
    <line stroke="black" x1="393.0" y1="337.0" x2="335.0" y2="316.0" stroke-width="0.5"/>
    <line stroke="black" x1="481.0" y1="697.0" x2="465.0" y2="676.0" stroke-width="0.5"/>
    <line stroke="black" x1="496.0" y1="657.0" x2="465.0" y2="676.0" stroke-width="0.5"/>
   </g>
  </g>
 </svg>
</svg>
