<?xml version="1.0" encoding="UTF-8"?>
<svg height="800.0" width="700.0" xmlns="http://www.w3.org/2000/svg">
 <svg>
  <g>
   <g>
    <g>
     <circle stroke="black" stroke-width="0.5" fill="#aaffff" cx="270.0" cy="411.0" r="1.0"/>
     <text stroke="none" x="270.0" y="411.0" font-size="20.0" font-family="helvetica"/>
    </g>
    <g>
     <circle stroke="black" stroke-width="0.5" fill="#aaffff" cx="327.0" cy="1138.0" r="1.0"/>
     <text stroke="none" x="327.0" y="1138.0" font-size="20.0" font-family="helvetica"/>
    </g>
    <g>
     <circle stroke="black" stroke-width="0.5" fill="#aaffff" cx="402.0" cy="403.0" r="1.0"/>
     <text stroke="none" x="402.0" y="403.0" font-size="20.0" font-family="helvetica"/>
    </g>
    <g>
     <circle stroke="black" stroke-width="0.5" fill="#aaffff" cx="406.0" cy="529.0" r="1.0"/>
     <text stroke="none" x="406.0" y="529.0" font-size="10.0" font-family="helvetica">NT1.4</text>
    </g>
    <g>
     <circle stroke="black" stroke-width="0.5" fill="#aaffff" cx="433.0" cy="774.0" r="1.0"/>
     <text stroke="none" x="433.0" y="774.0" font-size="10.0" font-family="helvetica">NT1.5</text>
    </g>
    <g>
     <circle stroke="black" stroke-width="0.5" fill="#aaffff" cx="435.0" cy="357.0" r="1.0"/>
     <text stroke="none" x="435.0" y="357.0" font-size="20.0" font-family="helvetica"/>
    </g>
    <g>
     <circle stroke="black" stroke-width="0.5" fill="#aaffff" cx="480.0" cy="710.0" r="1.0"/>
     <text stroke="none" x="480.0" y="710.0" font-size="10.0" font-family="helvetica">NT1.7</text>
    </g>
    <g>
     <circle stroke="black" stroke-width="0.5" fill="#aaffff" cx="530.0" cy="249.0" r="1.0"/>
     <text stroke="none" x="530.0" y="249.0" font-size="20.0" font-family="helvetica"/>
    </g>
    <g>
     <circle stroke="black" stroke-width="0.5" fill="#aaffff" cx="554.0" cy="425.0" r="1.0"/>
     <text stroke="none" x="554.0" y="425.0" font-size="10.0" font-family="helvetica">NT1.9</text>
    </g>
    <g>
     <circle stroke="black" stroke-width="0.5" fill="#aaffff" cx="671.0" cy="534.0" r="1.0"/>
     <text stroke="none" x="671.0" y="534.0" font-size="10.0" font-family="helvetica">NT1.10</text>
    </g>
    <g>
     <circle stroke="black" stroke-width="0.5" fill="#aaffff" cx="683.0" cy="540.0" r="1.0"/>
     <text stroke="none" x="683.0" y="540.0" font-size="20.0" font-family="helvetica">L. plantarum (D79210)</text>
    </g>
    <g>
     <circle stroke="black" stroke-width="0.5" fill="#aaffff" cx="690.0" cy="123.0" r="1.0"/>
     <text stroke="none" x="690.0" y="123.0" font-size="20.0" font-family="helvetica"/>
    </g>
    <g>
     <circle stroke="black" stroke-width="0.5" fill="#aaffff" cx="697.0" cy="140.0" r="1.0"/>
     <text stroke="none" x="697.0" y="140.0" font-size="10.0" font-family="helvetica">NT1.13</text>
    </g>
    <g>
     <circle stroke="black" stroke-width="0.5" fill="#aaffff" cx="709.0" cy="520.0" r="1.0"/>
     <text stroke="none" x="709.0" y="520.0" font-size="20.0" font-family="helvetica"/>
    </g>
    <g>
     <circle stroke="black" stroke-width="0.5" fill="#aaffff" cx="730.0" cy="108.0" r="1.0"/>
     <text stroke="none" x="730.0" y="108.0" font-size="10.0" font-family="helvetica">NT1.15</text>
    </g>
    <g>
     <circle stroke="black" stroke-width="0.5" fill="#aaffff" cx="756.0" cy="29.0" r="1.0"/>
     <text stroke="none" x="756.0" y="29.0" font-size="20.0" font-family="helvetica"/>
    </g>
    <g>
     <circle stroke="black" stroke-width="0.5" fill="#aaffff" cx="828.0" cy="66.0" r="1.0"/>
     <text stroke="none" x="828.0" y="66.0" font-size="10.0" font-family="helvetica">NT1.17</text>
    </g>
    <g>
     <circle stroke="black" stroke-width="0.5" fill="#aaffff" cx="830.0" cy="69.0" r="1.0"/>
     <text stroke="none" x="830.0" y="69.0" font-size="20.0" font-family="helvetica"/>
    </g>
    <g>
     <circle stroke="black" stroke-width="0.5" fill="#aaffff" cx="830.0" cy="62.0" r="1.0"/>
     <text stroke="none" x="830.0" y="62.0" font-size="10.0" font-family="helvetica">NT1.19</text>
    </g>
    <g>
     <circle stroke="black" stroke-width="0.5" fill="#aaffff" cx="837.0" cy="34.0" r="1.0"/>
     <text stroke="none" x="837.0" y="34.0" font-size="20.0" font-family="helvetica"/>
    </g>
    <g>
     <circle stroke="black" stroke-width="0.5" fill="#aaffff" cx="928.0" cy="57.0" r="1.0"/>
     <text stroke="none" x="928.0" y="57.0" font-size="20.0" font-family="helvetica">L. alimentarius (M58804)</text>
    </g>
    <line stroke="black" x1="690.0" y1="123.0" x2="697.0" y2="140.0" stroke-width="0.5"/>
    <line stroke="black" x1="402.0" y1="403.0" x2="406.0" y2="529.0" stroke-width="0.5"/>
    <line stroke="black" x1="435.0" y1="357.0" x2="406.0" y2="529.0" stroke-width="0.5"/>
    <line stroke="black" x1="730.0" y1="108.0" x2="828.0" y2="66.0" stroke-width="0.5"/>
    <line stroke="black" x1="730.0" y1="108.0" x2="697.0" y2="140.0" stroke-width="0.5"/>
    <line stroke="black" x1="828.0" y1="66.0" x2="830.0" y2="69.0" stroke-width="0.5"/>
    <line stroke="black" x1="828.0" y1="66.0" x2="830.0" y2="62.0" stroke-width="0.5"/>
    <line stroke="black" x1="480.0" y1="710.0" x2="671.0" y2="534.0" stroke-width="0.5"/>
    <line stroke="black" x1="480.0" y1="710.0" x2="433.0" y2="774.0" stroke-width="0.5"/>
    <line stroke="black" x1="671.0" y1="534.0" x2="683.0" y2="540.0" stroke-width="0.5"/>
    <line stroke="black" x1="406.0" y1="529.0" x2="270.0" y2="411.0" stroke-width="0.5"/>
    <line stroke="black" x1="433.0" y1="774.0" x2="406.0" y2="529.0" stroke-width="0.5"/>
    <line stroke="black" x1="433.0" y1="774.0" x2="327.0" y2="1138.0" stroke-width="0.5"/>
    <line stroke="black" x1="554.0" y1="425.0" x2="480.0" y2="710.0" stroke-width="0.5"/>
    <line stroke="black" x1="554.0" y1="425.0" x2="530.0" y2="249.0" stroke-width="0.5"/>
    <line stroke="black" x1="697.0" y1="140.0" x2="554.0" y2="425.0" stroke-width="0.5"/>
    <line stroke="black" x1="671.0" y1="534.0" x2="709.0" y2="520.0" stroke-width="0.5"/>
    <line stroke="black" x1="756.0" y1="29.0" x2="730.0" y2="108.0" stroke-width="0.5"/>
    <line stroke="black" x1="837.0" y1="34.0" x2="830.0" y2="62.0" stroke-width="0.5"/>
    <line stroke="black" x1="928.0" y1="57.0" x2="830.0" y2="62.0" stroke-width="0.5"/>
   </g>
  </g>
 </svg>
</svg>
