<?xml version="1.0" encoding="UTF-8"?>
<svg height="800.0" width="700.0" xmlns="http://www.w3.org/2000/svg">
 <svg>
  <g>
   <g>
    <g>
     <circle stroke="black" stroke-width="0.5" fill="#aaffff" cx="2.0" cy="290.0" r="1.0"/>
     <text stroke="none" x="2.0" y="290.0" font-size="10.0" font-family="helvetica">NT1.1</text>
    </g>
    <g>
     <circle stroke="black" stroke-width="0.5" fill="#aaffff" cx="161.0" cy="10.0" r="1.0"/>
     <text stroke="none" x="161.0" y="10.0" font-size="10.0" font-family="helvetica">NT1.2</text>
    </g>
    <g>
     <circle stroke="black" stroke-width="0.5" fill="#aaffff" cx="161.0" cy="12.0" r="1.0"/>
     <text stroke="none" x="161.0" y="12.0" font-size="10.0" font-family="helvetica">NT1.3</text>
    </g>
    <g>
     <circle stroke="black" stroke-width="0.5" fill="#aaffff" cx="186.0" cy="568.0" r="1.0"/>
     <text stroke="none" x="186.0" y="568.0" font-size="20.0" font-family="helvetica">993</text>
    </g>
    <g>
     <circle stroke="black" stroke-width="0.5" fill="#aaffff" cx="229.0" cy="842.0" r="1.0"/>
     <text stroke="none" x="229.0" y="842.0" font-size="20.0" font-family="helvetica">676</text>
    </g>
    <g>
     <circle stroke="black" stroke-width="0.5" fill="#aaffff" cx="235.0" cy="1320.0" r="1.0"/>
     <text stroke="none" x="235.0" y="1320.0" font-size="10.0" font-family="helvetica">NT1.6</text>
    </g>
    <g>
     <circle stroke="black" stroke-width="0.5" fill="#aaffff" cx="352.0" cy="1139.0" r="1.0"/>
     <text stroke="none" x="352.0" y="1139.0" font-size="20.0" font-family="helvetica">999</text>
    </g>
    <g>
     <circle stroke="black" stroke-width="0.5" fill="#aaffff" cx="389.0" cy="665.0" r="1.0"/>
     <text stroke="none" x="389.0" y="665.0" font-size="20.0" font-family="helvetica">993</text>
    </g>
    <g>
     <circle stroke="black" stroke-width="0.5" fill="#aaffff" cx="411.0" cy="260.0" r="1.0"/>
     <text stroke="none" x="411.0" y="260.0" font-size="10.0" font-family="helvetica">NT1.9</text>
    </g>
    <g>
     <circle stroke="black" stroke-width="0.5" fill="#aaffff" cx="434.0" cy="778.0" r="1.0"/>
     <text stroke="none" x="434.0" y="778.0" font-size="20.0" font-family="helvetica">924</text>
    </g>
    <g>
     <circle stroke="black" stroke-width="0.5" fill="#aaffff" cx="436.0" cy="1096.0" r="1.0"/>
     <text stroke="none" x="436.0" y="1096.0" font-size="20.0" font-family="helvetica">Bacillus alcalophilus DSM 4857 (X76436)</text>
    </g>
    <g>
     <circle stroke="black" stroke-width="0.5" fill="#aaffff" cx="437.0" cy="1369.0" r="1.0"/>
     <text stroke="none" x="437.0" y="1369.0" font-size="20.0" font-family="helvetica">Bacillus pseudojirmus DSM 87l5T (X76439)</text>
    </g>
    <g>
     <circle stroke="black" stroke-width="0.5" fill="#aaffff" cx="489.0" cy="1189.0" r="1.0"/>
     <text stroke="none" x="489.0" y="1189.0" font-size="20.0" font-family="helvetica">Bacillus pseudalcaliphilus DSM 8725T (X76449)</text>
    </g>
    <g>
     <circle stroke="black" stroke-width="0.5" fill="#aaffff" cx="491.0" cy="1278.0" r="1.0"/>
     <text stroke="none" x="491.0" y="1278.0" font-size="20.0" font-family="helvetica">Bacillus halodurzms DSM 497T (AJ302709)</text>
    </g>
    <g>
     <circle stroke="black" stroke-width="0.5" fill="#aaffff" cx="533.0" cy="311.0" r="1.0"/>
     <text stroke="none" x="533.0" y="311.0" font-size="20.0" font-family="helvetica">578</text>
    </g>
    <g>
     <circle stroke="black" stroke-width="0.5" fill="#aaffff" cx="587.0" cy="690.0" r="1.0"/>
     <text stroke="none" x="587.0" y="690.0" font-size="10.0" font-family="helvetica">NT1.16</text>
    </g>
    <g>
     <circle stroke="black" stroke-width="0.5" fill="#aaffff" cx="600.0" cy="1006.0" r="1.0"/>
     <text stroke="none" x="600.0" y="1006.0" font-size="10.0" font-family="helvetica">NT1.17</text>
    </g>
    <g>
     <circle stroke="black" stroke-width="0.5" fill="#aaffff" cx="618.0" cy="554.0" r="1.0"/>
     <text stroke="none" x="618.0" y="554.0" font-size="20.0" font-family="helvetica">Bacillus clausii DSM 8716T (X76440)</text>
    </g>
    <g>
     <circle stroke="black" stroke-width="0.5" fill="#aaffff" cx="622.0" cy="103.0" r="1.0"/>
     <text stroke="none" x="622.0" y="103.0" font-size="20.0" font-family="helvetica">Sporosarcina pasteurii NCIMB 88411 (X60631)</text>
    </g>
    <g>
     <circle stroke="black" stroke-width="0.5" fill="#aaffff" cx="624.0" cy="868.0" r="1.0"/>
     <text stroke="none" x="624.0" y="868.0" font-size="10.0" font-family="helvetica">NT1.20</text>
    </g>
    <g>
     <circle stroke="black" stroke-width="0.5" fill="#aaffff" cx="627.0" cy="736.0" r="1.0"/>
     <text stroke="none" x="627.0" y="736.0" font-size="10.0" font-family="helvetica">NT1.21</text>
    </g>
    <g>
     <circle stroke="black" stroke-width="0.5" fill="#aaffff" cx="632.0" cy="464.0" r="1.0"/>
     <text stroke="none" x="632.0" y="464.0" font-size="20.0" font-family="helvetica">Bacillus gibsonii DSM 3722T (X76446)</text>
    </g>
    <g>
     <circle stroke="black" stroke-width="0.5" fill="#aaffff" cx="636.0" cy="645.0" r="1.0"/>
     <text stroke="none" x="636.0" y="645.0" font-size="10.0" font-family="helvetica">NT1.23</text>
    </g>
    <g>
     <circle stroke="black" stroke-width="0.5" fill="#aaffff" cx="638.0" cy="916.0" r="1.0"/>
     <text stroke="none" x="638.0" y="916.0" font-size="10.0" font-family="helvetica">NT1.24</text>
    </g>
    <g>
     <circle stroke="black" stroke-width="0.5" fill="#aaffff" cx="645.0" cy="825.0" r="1.0"/>
     <text stroke="none" x="645.0" y="825.0" font-size="20.0" font-family="helvetica">Bacillus patagnrtiertsis DSM 16117T (AY258614)</text>
    </g>
    <g>
     <circle stroke="black" stroke-width="0.5" fill="#aaffff" cx="654.0" cy="13.0" r="1.0"/>
     <text stroke="none" x="654.0" y="13.0" font-size="20.0" font-family="helvetica">Paenibacillus macerans NCDO 1764T (X60624)</text>
    </g>
    <g>
     <circle stroke="black" stroke-width="0.5" fill="#aaffff" cx="722.0" cy="192.0" r="1.0"/>
     <text stroke="none" x="722.0" y="192.0" font-size="20.0" font-family="helvetica">Bacillus agaradhaerens DSM 87211 (X76445)</text>
    </g>
    <g>
     <circle stroke="black" stroke-width="0.5" fill="#aaffff" cx="735.0" cy="374.0" r="1.0"/>
     <text stroke="none" x="735.0" y="374.0" font-size="20.0" font-family="helvetica">Bacillus clarkii DSM 87207 (X76444)</text>
    </g>
    <g>
     <circle stroke="black" stroke-width="0.5" fill="#aaffff" cx="789.0" cy="283.0" r="1.0"/>
     <text stroke="none" x="789.0" y="283.0" font-size="20.0" font-family="helvetica">Bacillus vedderi DSM 97687 (Z48306)</text>
    </g>
    <g>
     <circle stroke="black" stroke-width="0.5" fill="#aaffff" cx="3.0" cy="14.0" r="1.0"/>
     <text stroke="none" x="3.0" y="14.0" font-size="10.0" font-family="helvetica">NT1.30</text>
    </g>
    <line stroke="black" x1="654.0" y1="13.0" x2="161.0" y2="12.0" stroke-width="0.5"/>
    <line stroke="black" x1="622.0" y1="103.0" x2="2.0" y2="290.0" stroke-width="0.5"/>
    <line stroke="black" x1="436.0" y1="1096.0" x2="352.0" y2="1139.0" stroke-width="0.5"/>
    <line stroke="black" x1="489.0" y1="1189.0" x2="352.0" y2="1139.0" stroke-width="0.5"/>
    <line stroke="black" x1="722.0" y1="192.0" x2="411.0" y2="260.0" stroke-width="0.5"/>
    <line stroke="black" x1="735.0" y1="374.0" x2="533.0" y2="311.0" stroke-width="0.5"/>
    <line stroke="black" x1="437.0" y1="1369.0" x2="235.0" y2="1320.0" stroke-width="0.5"/>
    <line stroke="black" x1="2.0" y1="290.0" x2="186.0" y2="568.0" stroke-width="0.5"/>
    <line stroke="black" x1="186.0" y1="568.0" x2="229.0" y2="842.0" stroke-width="0.5"/>
    <line stroke="black" x1="186.0" y1="568.0" x2="411.0" y2="260.0" stroke-width="0.5"/>
    <line stroke="black" x1="229.0" y1="842.0" x2="235.0" y2="1320.0" stroke-width="0.5"/>
    <line stroke="black" x1="229.0" y1="842.0" x2="352.0" y2="1139.0" stroke-width="0.5"/>
    <line stroke="black" x1="229.0" y1="842.0" x2="389.0" y2="665.0" stroke-width="0.5"/>
    <line stroke="black" x1="411.0" y1="260.0" x2="533.0" y2="311.0" stroke-width="0.5"/>
    <line stroke="black" x1="3.0" y1="14.0" x2="2.0" y2="290.0" stroke-width="0.5"/>
    <line stroke="black" x1="491.0" y1="1278.0" x2="235.0" y2="1320.0" stroke-width="0.5"/>
    <line stroke="black" x1="632.0" y1="464.0" x2="229.0" y2="842.0" stroke-width="0.5"/>
    <line stroke="black" x1="618.0" y1="554.0" x2="389.0" y2="665.0" stroke-width="0.5"/>
    <line stroke="black" x1="645.0" y1="825.0" x2="624.0" y2="868.0" stroke-width="0.5"/>
    <line stroke="black" x1="789.0" y1="283.0" x2="533.0" y2="311.0" stroke-width="0.5"/>
   </g>
  </g>
 </svg>
</svg>
