<?xml version="1.0" encoding="UTF-8"?>
<svg height="800.0" width="700.0" xmlns="http://www.w3.org/2000/svg">
 <svg>
  <g>
   <g>
    <g>
     <circle stroke="black" stroke-width="0.5" fill="#aaffff" cx="276.0" cy="1109.0" r="1.0"/>
     <text stroke="none" x="276.0" y="1109.0" font-size="10.0" font-family="helvetica">NT1.1</text>
    </g>
    <g>
     <circle stroke="black" stroke-width="0.5" fill="#aaffff" cx="315.0" cy="1049.0" r="1.0"/>
     <text stroke="none" x="315.0" y="1049.0" font-size="20.0" font-family="helvetica">64</text>
    </g>
    <g>
     <circle stroke="black" stroke-width="0.5" fill="#aaffff" cx="320.0" cy="1166.0" r="1.0"/>
     <text stroke="none" x="320.0" y="1166.0" font-size="20.0" font-family="helvetica">58</text>
    </g>
    <g>
     <circle stroke="black" stroke-width="0.5" fill="#aaffff" cx="388.0" cy="1005.0" r="1.0"/>
     <text stroke="none" x="388.0" y="1005.0" font-size="20.0" font-family="helvetica">84</text>
    </g>
    <g>
     <circle stroke="black" stroke-width="0.5" fill="#aaffff" cx="423.0" cy="963.0" r="1.0"/>
     <text stroke="none" x="423.0" y="963.0" font-size="20.0" font-family="helvetica">55</text>
    </g>
    <g>
     <circle stroke="black" stroke-width="0.5" fill="#aaffff" cx="436.0" cy="1188.0" r="1.0"/>
     <text stroke="none" x="436.0" y="1188.0" font-size="20.0" font-family="helvetica">98</text>
    </g>
    <g>
     <circle stroke="black" stroke-width="0.5" fill="#aaffff" cx="472.0" cy="911.0" r="1.0"/>
     <text stroke="none" x="472.0" y="911.0" font-size="10.0" font-family="helvetica">NT1.7</text>
    </g>
    <g>
     <circle stroke="black" stroke-width="0.5" fill="#aaffff" cx="490.0" cy="1273.0" r="1.0"/>
     <text stroke="none" x="490.0" y="1273.0" font-size="20.0" font-family="helvetica">100</text>
    </g>
    <g>
     <circle stroke="black" stroke-width="0.5" fill="#aaffff" cx="506.0" cy="839.0" r="1.0"/>
     <text stroke="none" x="506.0" y="839.0" font-size="20.0" font-family="helvetica">61</text>
    </g>
    <g>
     <circle stroke="black" stroke-width="0.5" fill="#aaffff" cx="535.0" cy="742.0" r="1.0"/>
     <text stroke="none" x="535.0" y="742.0" font-size="20.0" font-family="helvetica">54</text>
    </g>
    <g>
     <circle stroke="black" stroke-width="0.5" fill="#aaffff" cx="572.0" cy="844.0" r="1.0"/>
     <text stroke="none" x="572.0" y="844.0" font-size="10.0" font-family="helvetica">NT1.11</text>
    </g>
    <g>
     <circle stroke="black" stroke-width="0.5" fill="#aaffff" cx="585.0" cy="639.0" r="1.0"/>
     <text stroke="none" x="585.0" y="639.0" font-size="20.0" font-family="helvetica">54</text>
    </g>
    <g>
     <circle stroke="black" stroke-width="0.5" fill="#aaffff" cx="595.0" cy="931.0" r="1.0"/>
     <text stroke="none" x="595.0" y="931.0" font-size="20.0" font-family="helvetica">B3</text>
    </g>
    <g>
     <circle stroke="black" stroke-width="0.5" fill="#aaffff" cx="629.0" cy="867.0" r="1.0"/>
     <text stroke="none" x="629.0" y="867.0" font-size="20.0" font-family="helvetica">60</text>
    </g>
    <g>
     <circle stroke="black" stroke-width="0.5" fill="#aaffff" cx="637.0" cy="1092.0" r="1.0"/>
     <text stroke="none" x="637.0" y="1092.0" font-size="20.0" font-family="helvetica">100</text>
    </g>
    <g>
     <circle stroke="black" stroke-width="0.5" fill="#aaffff" cx="655.0" cy="529.0" r="1.0"/>
     <text stroke="none" x="655.0" y="529.0" font-size="20.0" font-family="helvetica">95</text>
    </g>
    <g>
     <circle stroke="black" stroke-width="0.5" fill="#aaffff" cx="669.0" cy="748.0" r="1.0"/>
     <text stroke="none" x="669.0" y="748.0" font-size="20.0" font-family="helvetica">79</text>
    </g>
    <g>
     <circle stroke="black" stroke-width="0.5" fill="#aaffff" cx="671.0" cy="436.0" r="1.0"/>
     <text stroke="none" x="671.0" y="436.0" font-size="10.0" font-family="helvetica">NT1.18</text>
    </g>
    <g>
     <circle stroke="black" stroke-width="0.5" fill="#aaffff" cx="690.0" cy="518.0" r="1.0"/>
     <text stroke="none" x="690.0" y="518.0" font-size="10.0" font-family="helvetica">NT1.19</text>
    </g>
    <g>
     <circle stroke="black" stroke-width="0.5" fill="#aaffff" cx="705.0" cy="300.0" r="1.0"/>
     <text stroke="none" x="705.0" y="300.0" font-size="10.0" font-family="helvetica">NT1.20</text>
    </g>
    <g>
     <circle stroke="black" stroke-width="0.5" fill="#aaffff" cx="707.0" cy="652.0" r="1.0"/>
     <text stroke="none" x="707.0" y="652.0" font-size="20.0" font-family="helvetica">92</text>
    </g>
    <g>
     <circle stroke="black" stroke-width="0.5" fill="#aaffff" cx="710.0" cy="770.0" r="1.0"/>
     <text stroke="none" x="710.0" y="770.0" font-size="10.0" font-family="helvetica">NT1.22</text>
    </g>
    <g>
     <circle stroke="black" stroke-width="0.5" fill="#aaffff" cx="719.0" cy="949.0" r="1.0"/>
     <text stroke="none" x="719.0" y="949.0" font-size="20.0" font-family="helvetica">Rhodobacter sphaeroides IL106 (D16424)</text>
    </g>
    <g>
     <circle stroke="black" stroke-width="0.5" fill="#aaffff" cx="723.0" cy="158.0" r="1.0"/>
     <text stroke="none" x="723.0" y="158.0" font-size="10.0" font-family="helvetica">NT1.24</text>
    </g>
    <g>
     <circle stroke="black" stroke-width="0.5" fill="#aaffff" cx="723.0" cy="487.0" r="1.0"/>
     <text stroke="none" x="723.0" y="487.0" font-size="20.0" font-family="helvetica">79</text>
    </g>
    <g>
     <circle stroke="black" stroke-width="0.5" fill="#aaffff" cx="735.0" cy="982.0" r="1.0"/>
     <text stroke="none" x="735.0" y="982.0" font-size="20.0" font-family="helvetica">Rhodovulum sulfidophilum DSM 13747 (D16423)</text>
    </g>
    <g>
     <circle stroke="black" stroke-width="0.5" fill="#aaffff" cx="737.0" cy="1046.0" r="1.0"/>
     <text stroke="none" x="737.0" y="1046.0" font-size="20.0" font-family="helvetica">Amaricoccus kaplicensis ACM 50997 (U88041)</text>
    </g>
    <g>
     <circle stroke="black" stroke-width="0.5" fill="#aaffff" cx="739.0" cy="97.0" r="1.0"/>
     <text stroke="none" x="739.0" y="97.0" font-size="10.0" font-family="helvetica">NT1.28</text>
    </g>
    <g>
     <circle stroke="black" stroke-width="0.5" fill="#aaffff" cx="740.0" cy="1207.0" r="1.0"/>
     <text stroke="none" x="740.0" y="1207.0" font-size="10.0" font-family="helvetica">NT1.29</text>
    </g>
    <g>
     <circle stroke="black" stroke-width="0.5" fill="#aaffff" cx="744.0" cy="1295.0" r="1.0"/>
     <text stroke="none" x="744.0" y="1295.0" font-size="20.0" font-family="helvetica">100</text>
    </g>
    <g>
     <circle stroke="black" stroke-width="0.5" fill="#aaffff" cx="747.0" cy="674.0" r="1.0"/>
     <text stroke="none" x="747.0" y="674.0" font-size="20.0" font-family="helvetica">96</text>
    </g>
    <g>
     <circle stroke="black" stroke-width="0.5" fill="#aaffff" cx="751.0" cy="1142.0" r="1.0"/>
     <text stroke="none" x="751.0" y="1142.0" font-size="20.0" font-family="helvetica">Maricaulis maris ATCC 152687 (AJ227802)</text>
    </g>
    <g>
     <circle stroke="black" stroke-width="0.5" fill="#aaffff" cx="760.0" cy="554.0" r="1.0"/>
     <text stroke="none" x="760.0" y="554.0" font-size="20.0" font-family="helvetica">97</text>
    </g>
    <g>
     <circle stroke="black" stroke-width="0.5" fill="#aaffff" cx="767.0" cy="1110.0" r="1.0"/>
     <text stroke="none" x="767.0" y="1110.0" font-size="20.0" font-family="helvetica">Roseibium denhamense OCh 2547 (D85832)</text>
    </g>
    <g>
     <circle stroke="black" stroke-width="0.5" fill="#aaffff" cx="773.0" cy="262.0" r="1.0"/>
     <text stroke="none" x="773.0" y="262.0" font-size="20.0" font-family="helvetica">91</text>
    </g>
    <g>
     <circle stroke="black" stroke-width="0.5" fill="#aaffff" cx="778.0" cy="577.0" r="1.0"/>
     <text stroke="none" x="778.0" y="577.0" font-size="10.0" font-family="helvetica">NT1.36</text>
    </g>
    <g>
     <circle stroke="black" stroke-width="0.5" fill="#aaffff" cx="784.0" cy="57.0" r="1.0"/>
     <text stroke="none" x="784.0" y="57.0" font-size="20.0" font-family="helvetica">53</text>
    </g>
    <g>
     <circle stroke="black" stroke-width="0.5" fill="#aaffff" cx="788.0" cy="660.0" r="1.0"/>
     <text stroke="none" x="788.0" y="660.0" font-size="20.0" font-family="helvetica">Ruegeria atlantica DSM 58237 (D88526)</text>
    </g>
    <g>
     <circle stroke="black" stroke-width="0.5" fill="#aaffff" cx="789.0" cy="416.0" r="1.0"/>
     <text stroke="none" x="789.0" y="416.0" font-size="20.0" font-family="helvetica">95</text>
    </g>
    <g>
     <circle stroke="black" stroke-width="0.5" fill="#aaffff" cx="801.0" cy="917.0" r="1.0"/>
     <text stroke="none" x="801.0" y="917.0" font-size="20.0" font-family="helvetica">Rhodobacter capsulatus C5 (D16427)</text>
    </g>
    <g>
     <circle stroke="black" stroke-width="0.5" fill="#aaffff" cx="805.0" cy="137.0" r="1.0"/>
     <text stroke="none" x="805.0" y="137.0" font-size="20.0" font-family="helvetica">73</text>
    </g>
    <g>
     <circle stroke="black" stroke-width="0.5" fill="#aaffff" cx="810.0" cy="300.0" r="1.0"/>
     <text stroke="none" x="810.0" y="300.0" font-size="20.0" font-family="helvetica">66</text>
    </g>
    <g>
     <circle stroke="black" stroke-width="0.5" fill="#aaffff" cx="817.0" cy="1078.0" r="1.0"/>
     <text stroke="none" x="817.0" y="1078.0" font-size="20.0" font-family="helvetica">Stappia aggregata IAM 126147 (D88520)</text>
    </g>
    <g>
     <circle stroke="black" stroke-width="0.5" fill="#aaffff" cx="817.0" cy="1174.0" r="1.0"/>
     <text stroke="none" x="817.0" y="1174.0" font-size="20.0" font-family="helvetica">Hirschia baltica IFAM 14187 (X52909)</text>
    </g>
    <g>
     <circle stroke="black" stroke-width="0.5" fill="#aaffff" cx="819.0" cy="724.0" r="1.0"/>
     <text stroke="none" x="819.0" y="724.0" font-size="10.0" font-family="helvetica">NT1.45</text>
    </g>
    <g>
     <circle stroke="black" stroke-width="0.5" fill="#aaffff" cx="821.0" cy="628.0" r="1.0"/>
     <text stroke="none" x="821.0" y="628.0" font-size="20.0" font-family="helvetica">Silicibacter pomeroyi DSM 151717 (AFO98491)</text>
    </g>
    <g>
     <circle stroke="black" stroke-width="0.5" fill="#aaffff" cx="823.0" cy="330.0" r="1.0"/>
     <text stroke="none" x="823.0" y="330.0" font-size="10.0" font-family="helvetica">NT1.47</text>
    </g>
    <g>
     <circle stroke="black" stroke-width="0.5" fill="#aaffff" cx="832.0" cy="692.0" r="1.0"/>
     <text stroke="none" x="832.0" y="692.0" font-size="20.0" font-family="helvetica">Silicibacter lacuscaerulensis DSM 113147 (U77644)</text>
    </g>
    <g>
     <circle stroke="black" stroke-width="0.5" fill="#aaffff" cx="832.0" cy="820.0" r="1.0"/>
     <text stroke="none" x="832.0" y="820.0" font-size="20.0" font-family="helvetica">Roseinatronobacter thiooxidans DSM 130877 (AF249749)</text>
    </g>
    <g>
     <circle stroke="black" stroke-width="0.5" fill="#aaffff" cx="837.0" cy="788.0" r="1.0"/>
     <text stroke="none" x="837.0" y="788.0" font-size="10.0" font-family="helvetica">NT1.50</text>
    </g>
    <g>
     <circle stroke="black" stroke-width="0.5" fill="#aaffff" cx="840.0" cy="531.0" r="1.0"/>
     <text stroke="none" x="840.0" y="531.0" font-size="10.0" font-family="helvetica">NT1.51</text>
    </g>
    <g>
     <circle stroke="black" stroke-width="0.5" fill="#aaffff" cx="840.0" cy="853.0" r="1.0"/>
     <text stroke="none" x="840.0" y="853.0" font-size="20.0" font-family="helvetica">Paracoccus denitrificans LMG 42187 (X69159)</text>
    </g>
    <g>
     <circle stroke="black" stroke-width="0.5" fill="#aaffff" cx="841.0" cy="352.0" r="1.0"/>
     <text stroke="none" x="841.0" y="352.0" font-size="20.0" font-family="helvetica">61</text>
    </g>
    <g>
     <circle stroke="black" stroke-width="0.5" fill="#aaffff" cx="841.0" cy="1322.0" r="1.0"/>
     <text stroke="none" x="841.0" y="1322.0" font-size="20.0" font-family="helvetica">97</text>
    </g>
    <g>
     <circle stroke="black" stroke-width="0.5" fill="#aaffff" cx="849.0" cy="225.0" r="1.0"/>
     <text stroke="none" x="849.0" y="225.0" font-size="20.0" font-family="helvetica">96</text>
    </g>
    <g>
     <circle stroke="black" stroke-width="0.5" fill="#aaffff" cx="850.0" cy="563.0" r="1.0"/>
     <text stroke="none" x="850.0" y="563.0" font-size="20.0" font-family="helvetica">Leisingera methylohalidivorans DSM 143367 (AY005463)</text>
    </g>
    <g>
     <circle stroke="black" stroke-width="0.5" fill="#aaffff" cx="853.0" cy="466.0" r="1.0"/>
     <text stroke="none" x="853.0" y="466.0" font-size="20.0" font-family="helvetica">Roseovarius nubinhibens DSM 151707 (AF098495)</text>
    </g>
    <g>
     <circle stroke="black" stroke-width="0.5" fill="#aaffff" cx="856.0" cy="595.0" r="1.0"/>
     <text stroke="none" x="856.0" y="595.0" font-size="20.0" font-family="helvetica">Ruegeria algicola ATCC 514407 (X78315)</text>
    </g>
    <g>
     <circle stroke="black" stroke-width="0.5" fill="#aaffff" cx="863.0" cy="81.0" r="1.0"/>
     <text stroke="none" x="863.0" y="81.0" font-size="20.0" font-family="helvetica">Ruegeria gelatinovorans ATCC 256557 (D88523)</text>
    </g>
    <g>
     <circle stroke="black" stroke-width="0.5" fill="#aaffff" cx="884.0" cy="756.0" r="1.0"/>
     <text stroke="none" x="884.0" y="756.0" font-size="20.0" font-family="helvetica">Roseivivax halodurans JCM 102727 (D85829)</text>
    </g>
    <g>
     <circle stroke="black" stroke-width="0.5" fill="#aaffff" cx="900.0" cy="241.0" r="1.0"/>
     <text stroke="none" x="900.0" y="241.0" font-size="10.0" font-family="helvetica">NT1.61</text>
    </g>
    <g>
     <circle stroke="black" stroke-width="0.5" fill="#aaffff" cx="903.0" cy="273.0" r="1.0"/>
     <text stroke="none" x="903.0" y="273.0" font-size="20.0" font-family="helvetica">Sulfitobacter ponliacus DSM 100147 (Y13155)</text>
    </g>
    <g>
     <circle stroke="black" stroke-width="0.5" fill="#aaffff" cx="910.0" cy="338.0" r="1.0"/>
     <text stroke="none" x="910.0" y="338.0" font-size="20.0" font-family="helvetica">Sulfitobacter medilerraneus DSM 122447 (Y17387)</text>
    </g>
    <g>
     <circle stroke="black" stroke-width="0.5" fill="#aaffff" cx="918.0" cy="499.0" r="1.0"/>
     <text stroke="none" x="918.0" y="499.0" font-size="10.0" font-family="helvetica">NT1.64</text>
    </g>
    <g>
     <circle stroke="black" stroke-width="0.5" fill="#aaffff" cx="918.0" cy="885.0" r="1.0"/>
     <text stroke="none" x="918.0" y="885.0" font-size="20.0" font-family="helvetica">Methylarcula marina VKM B-21597 (AF030436)</text>
    </g>
    <g>
     <circle stroke="black" stroke-width="0.5" fill="#aaffff" cx="932.0" cy="306.0" r="1.0"/>
     <text stroke="none" x="932.0" y="306.0" font-size="20.0" font-family="helvetica">Sulfitobacter brevfs DSM 114437 (Y16425)</text>
    </g>
    <g>
     <circle stroke="black" stroke-width="0.5" fill="#aaffff" cx="942.0" cy="1271.0" r="1.0"/>
     <text stroke="none" x="942.0" y="1271.0" font-size="20.0" font-family="helvetica">Cobetia marina ATCC 253747 (AJ306890)</text>
    </g>
    <g>
     <circle stroke="black" stroke-width="0.5" fill="#aaffff" cx="947.0" cy="370.0" r="1.0"/>
     <text stroke="none" x="947.0" y="370.0" font-size="10.0" font-family="helvetica">NT1.68</text>
    </g>
    <g>
     <circle stroke="black" stroke-width="0.5" fill="#aaffff" cx="963.0" cy="209.0" r="1.0"/>
     <text stroke="none" x="963.0" y="209.0" font-size="20.0" font-family="helvetica">Roseobacter denitriricans ATCC 339427 (M96746)</text>
    </g>
    <g>
     <circle stroke="black" stroke-width="0.5" fill="#aaffff" cx="974.0" cy="36.0" r="1.0"/>
     <text stroke="none" x="974.0" y="36.0" font-size="20.0" font-family="helvetica">100</text>
    </g>
    <g>
     <circle stroke="black" stroke-width="0.5" fill="#aaffff" cx="981.0" cy="1014.0" r="1.0"/>
     <text stroke="none" x="981.0" y="1014.0" font-size="20.0" font-family="helvetica">Rubrimonas cliftonensis OCh 3177 (D85834)</text>
    </g>
    <g>
     <circle stroke="black" stroke-width="0.5" fill="#aaffff" cx="994.0" cy="17.0" r="1.0"/>
     <text stroke="none" x="994.0" y="17.0" font-size="20.0" font-family="helvetica">Octadecabacter antarcticus CIP 1067317 (U14583)</text>
    </g>
    <g>
     <circle stroke="black" stroke-width="0.5" fill="#aaffff" cx="1007.0" cy="113.0" r="1.0"/>
     <text stroke="none" x="1007.0" y="113.0" font-size="20.0" font-family="helvetica">Jannaschia helgolandensis DSM 148587 (AJ438157)</text>
    </g>
    <g>
     <circle stroke="black" stroke-width="0.5" fill="#aaffff" cx="1007.0" cy="434.0" r="1.0"/>
     <text stroke="none" x="1007.0" y="434.0" font-size="20.0" font-family="helvetica">Sagittula stellata ATCC 7000737 (U58356)</text>
    </g>
    <g>
     <circle stroke="black" stroke-width="0.5" fill="#aaffff" cx="1010.0" cy="49.0" r="1.0"/>
     <text stroke="none" x="1010.0" y="49.0" font-size="20.0" font-family="helvetica">Octadecabacter arcticus CIP 1067327 (U73725)</text>
    </g>
    <g>
     <circle stroke="black" stroke-width="0.5" fill="#aaffff" cx="1015.0" cy="403.0" r="1.0"/>
     <text stroke="none" x="1015.0" y="403.0" font-size="20.0" font-family="helvetica">Antarctobacter heliothermus DSM 114457 (Y11552)</text>
    </g>
    <g>
     <circle stroke="black" stroke-width="0.5" fill="#aaffff" cx="1028.0" cy="1239.0" r="1.0"/>
     <text stroke="none" x="1028.0" y="1239.0" font-size="20.0" font-family="helvetica">Idiomarina baltica DSM 151547 (AJ440214)</text>
    </g>
    <g>
     <circle stroke="black" stroke-width="0.5" fill="#aaffff" cx="1037.0" cy="159.0" r="1.0"/>
     <text stroke="none" x="1037.0" y="159.0" font-size="20.0" font-family="helvetica">100</text>
    </g>
    <g>
     <circle stroke="black" stroke-width="0.5" fill="#aaffff" cx="1042.0" cy="1336.0" r="1.0"/>
     <text stroke="none" x="1042.0" y="1336.0" font-size="10.0" font-family="helvetica">NT1.79</text>
    </g>
    <g>
     <circle stroke="black" stroke-width="0.5" fill="#aaffff" cx="1044.0" cy="177.0" r="1.0"/>
     <text stroke="none" x="1044.0" y="177.0" font-size="20.0" font-family="helvetica">Ketogulonicigenium vulgare DSM 40257 (AF136849)</text>
    </g>
    <g>
     <circle stroke="black" stroke-width="0.5" fill="#aaffff" cx="1057.0" cy="145.0" r="1.0"/>
     <text stroke="none" x="1057.0" y="145.0" font-size="20.0" font-family="helvetica">Ketogulonicigenium mbustum NRRL B-216277 (AF136850)</text>
    </g>
    <g>
     <circle stroke="black" stroke-width="0.5" fill="#aaffff" cx="1057.0" cy="1303.0" r="1.0"/>
     <text stroke="none" x="1057.0" y="1303.0" font-size="20.0" font-family="helvetica">Halomonas elongata DSM 30437 (AJ295147)</text>
    </g>
    <g>
     <circle stroke="black" stroke-width="0.5" fill="#aaffff" cx="10.0" cy="1187.0" r="1.0"/>
     <text stroke="none" x="10.0" y="1187.0" font-size="10.0" font-family="helvetica">NT1.83</text>
    </g>
    <line stroke="black" x1="1010.0" y1="49.0" x2="974.0" y2="36.0" stroke-width="0.5"/>
    <line stroke="black" x1="863.0" y1="81.0" x2="784.0" y2="57.0" stroke-width="0.5"/>
    <line stroke="black" x1="903.0" y1="273.0" x2="810.0" y2="300.0" stroke-width="0.5"/>
    <line stroke="black" x1="963.0" y1="209.0" x2="849.0" y2="225.0" stroke-width="0.5"/>
    <line stroke="black" x1="1015.0" y1="403.0" x2="789.0" y2="416.0" stroke-width="0.5"/>
    <line stroke="black" x1="853.0" y1="466.0" x2="723.0" y2="487.0" stroke-width="0.5"/>
    <line stroke="black" x1="884.0" y1="756.0" x2="710.0" y2="770.0" stroke-width="0.5"/>
    <line stroke="black" x1="918.0" y1="885.0" x2="629.0" y2="867.0" stroke-width="0.5"/>
    <line stroke="black" x1="801.0" y1="917.0" x2="595.0" y2="931.0" stroke-width="0.5"/>
    <line stroke="black" x1="735.0" y1="982.0" x2="472.0" y2="911.0" stroke-width="0.5"/>
    <line stroke="black" x1="737.0" y1="1046.0" x2="388.0" y2="1005.0" stroke-width="0.5"/>
    <line stroke="black" x1="817.0" y1="1078.0" x2="637.0" y2="1092.0" stroke-width="0.5"/>
    <line stroke="black" x1="751.0" y1="1142.0" x2="320.0" y2="1166.0" stroke-width="0.5"/>
    <line stroke="black" x1="1057.0" y1="1303.0" x2="841.0" y2="1322.0" stroke-width="0.5"/>
    <line stroke="black" x1="974.0" y1="36.0" x2="784.0" y2="57.0" stroke-width="0.5"/>
    <line stroke="black" x1="784.0" y1="57.0" x2="739.0" y2="97.0" stroke-width="0.5"/>
    <line stroke="black" x1="739.0" y1="97.0" x2="723.0" y2="158.0" stroke-width="0.5"/>
    <line stroke="black" x1="739.0" y1="97.0" x2="805.0" y2="137.0" stroke-width="0.5"/>
    <line stroke="black" x1="723.0" y1="158.0" x2="705.0" y2="300.0" stroke-width="0.5"/>
    <line stroke="black" x1="723.0" y1="158.0" x2="773.0" y2="262.0" stroke-width="0.5"/>
    <line stroke="black" x1="805.0" y1="137.0" x2="1037.0" y2="159.0" stroke-width="0.5"/>
    <line stroke="black" x1="773.0" y1="262.0" x2="810.0" y2="300.0" stroke-width="0.5"/>
    <line stroke="black" x1="705.0" y1="300.0" x2="671.0" y2="436.0" stroke-width="0.5"/>
    <line stroke="black" x1="705.0" y1="300.0" x2="789.0" y2="416.0" stroke-width="0.5"/>
    <line stroke="black" x1="810.0" y1="300.0" x2="823.0" y2="330.0" stroke-width="0.5"/>
    <line stroke="black" x1="671.0" y1="436.0" x2="655.0" y2="529.0" stroke-width="0.5"/>
    <line stroke="black" x1="671.0" y1="436.0" x2="690.0" y2="518.0" stroke-width="0.5"/>
    <line stroke="black" x1="655.0" y1="529.0" x2="585.0" y2="639.0" stroke-width="0.5"/>
    <line stroke="black" x1="655.0" y1="529.0" x2="707.0" y2="652.0" stroke-width="0.5"/>
    <line stroke="black" x1="760.0" y1="554.0" x2="778.0" y2="577.0" stroke-width="0.5"/>
    <line stroke="black" x1="707.0" y1="652.0" x2="747.0" y2="674.0" stroke-width="0.5"/>
    <line stroke="black" x1="585.0" y1="639.0" x2="535.0" y2="742.0" stroke-width="0.5"/>
    <line stroke="black" x1="535.0" y1="742.0" x2="506.0" y2="839.0" stroke-width="0.5"/>
    <line stroke="black" x1="535.0" y1="742.0" x2="572.0" y2="844.0" stroke-width="0.5"/>
    <line stroke="black" x1="506.0" y1="839.0" x2="472.0" y2="911.0" stroke-width="0.5"/>
    <line stroke="black" x1="506.0" y1="839.0" x2="595.0" y2="931.0" stroke-width="0.5"/>
    <line stroke="black" x1="572.0" y1="844.0" x2="629.0" y2="867.0" stroke-width="0.5"/>
    <line stroke="black" x1="472.0" y1="911.0" x2="423.0" y2="963.0" stroke-width="0.5"/>
    <line stroke="black" x1="423.0" y1="963.0" x2="388.0" y2="1005.0" stroke-width="0.5"/>
    <line stroke="black" x1="388.0" y1="1005.0" x2="315.0" y2="1049.0" stroke-width="0.5"/>
    <line stroke="black" x1="315.0" y1="1049.0" x2="276.0" y2="1109.0" stroke-width="0.5"/>
    <line stroke="black" x1="315.0" y1="1049.0" x2="637.0" y2="1092.0" stroke-width="0.5"/>
    <line stroke="black" x1="276.0" y1="1109.0" x2="320.0" y2="1166.0" stroke-width="0.5"/>
    <line stroke="black" x1="490.0" y1="1273.0" x2="744.0" y2="1295.0" stroke-width="0.5"/>
    <line stroke="black" x1="10.0" y1="1187.0" x2="276.0" y2="1109.0" stroke-width="0.5"/>
    <line stroke="black" x1="10.0" y1="1187.0" x2="490.0" y2="1273.0" stroke-width="0.5"/>
    <line stroke="black" x1="817.0" y1="1174.0" x2="436.0" y2="1188.0" stroke-width="0.5"/>
    <line stroke="black" x1="981.0" y1="1014.0" x2="423.0" y2="963.0" stroke-width="0.5"/>
    <line stroke="black" x1="719.0" y1="949.0" x2="595.0" y2="931.0" stroke-width="0.5"/>
    <line stroke="black" x1="832.0" y1="820.0" x2="572.0" y2="844.0" stroke-width="0.5"/>
    <line stroke="black" x1="1028.0" y1="1239.0" x2="490.0" y2="1273.0" stroke-width="0.5"/>
    <line stroke="black" x1="767.0" y1="1110.0" x2="637.0" y2="1092.0" stroke-width="0.5"/>
    <line stroke="black" x1="840.0" y1="853.0" x2="629.0" y2="867.0" stroke-width="0.5"/>
    <line stroke="black" x1="821.0" y1="628.0" x2="707.0" y2="652.0" stroke-width="0.5"/>
    <line stroke="black" x1="788.0" y1="660.0" x2="747.0" y2="674.0" stroke-width="0.5"/>
    <line stroke="black" x1="832.0" y1="692.0" x2="747.0" y2="674.0" stroke-width="0.5"/>
    <line stroke="black" x1="850.0" y1="563.0" x2="778.0" y2="577.0" stroke-width="0.5"/>
    <line stroke="black" x1="856.0" y1="595.0" x2="778.0" y2="577.0" stroke-width="0.5"/>
    <line stroke="black" x1="942.0" y1="1271.0" x2="744.0" y2="1295.0" stroke-width="0.5"/>
    <line stroke="black" x1="932.0" y1="306.0" x2="823.0" y2="330.0" stroke-width="0.5"/>
    <line stroke="black" x1="1007.0" y1="434.0" x2="789.0" y2="416.0" stroke-width="0.5"/>
    <line stroke="black" x1="910.0" y1="338.0" x2="841.0" y2="352.0" stroke-width="0.5"/>
    <line stroke="black" x1="1007.0" y1="113.0" x2="805.0" y2="137.0" stroke-width="0.5"/>
    <line stroke="black" x1="994.0" y1="17.0" x2="974.0" y2="36.0" stroke-width="0.5"/>
    <line stroke="black" x1="1044.0" y1="177.0" x2="1037.0" y2="159.0" stroke-width="0.5"/>
    <line stroke="black" x1="1057.0" y1="145.0" x2="1037.0" y2="159.0" stroke-width="0.5"/>
   </g>
  </g>
 </svg>
</svg>
