<?xml version="1.0" encoding="UTF-8"?>
<svg height="800.0" width="700.0" xmlns="http://www.w3.org/2000/svg">
 <svg>
  <g>
   <g>
    <g>
     <circle stroke="black" stroke-width="0.5" fill="#aaffff" cx="161.0" cy="348.0" r="1.0"/>
     <text stroke="none" x="161.0" y="348.0" font-size="10.0" font-family="helvetica">NT1.1</text>
    </g>
    <g>
     <circle stroke="black" stroke-width="0.5" fill="#aaffff" cx="171.0" cy="221.0" r="1.0"/>
     <text stroke="none" x="171.0" y="221.0" font-size="10.0" font-family="helvetica">NT1.2</text>
    </g>
    <g>
     <circle stroke="black" stroke-width="0.5" fill="#aaffff" cx="175.0" cy="317.0" r="1.0"/>
     <text stroke="none" x="175.0" y="317.0" font-size="10.0" font-family="helvetica">NT1.3</text>
    </g>
    <g>
     <circle stroke="black" stroke-width="0.5" fill="#aaffff" cx="183.0" cy="199.0" r="1.0"/>
     <text stroke="none" x="183.0" y="199.0" font-size="10.0" font-family="helvetica">NT1.4</text>
    </g>
    <g>
     <circle stroke="black" stroke-width="0.5" fill="#aaffff" cx="195.0" cy="35.0" r="1.0"/>
     <text stroke="none" x="195.0" y="35.0" font-size="20.0" font-family="helvetica">840</text>
    </g>
    <g>
     <circle stroke="black" stroke-width="0.5" fill="#aaffff" cx="217.0" cy="437.0" r="1.0"/>
     <text stroke="none" x="217.0" y="437.0" font-size="10.0" font-family="helvetica">NT1.6</text>
    </g>
    <g>
     <circle stroke="black" stroke-width="0.5" fill="#aaffff" cx="249.0" cy="162.0" r="1.0"/>
     <text stroke="none" x="249.0" y="162.0" font-size="10.0" font-family="helvetica">NT1.7</text>
    </g>
    <g>
     <circle stroke="black" stroke-width="0.5" fill="#aaffff" cx="253.0" cy="139.0" r="1.0"/>
     <text stroke="none" x="253.0" y="139.0" font-size="10.0" font-family="helvetica">NT1.8</text>
    </g>
    <g>
     <circle stroke="black" stroke-width="0.5" fill="#aaffff" cx="307.0" cy="399.0" r="1.0"/>
     <text stroke="none" x="307.0" y="399.0" font-size="10.0" font-family="helvetica">NT1.9</text>
    </g>
    <g>
     <circle stroke="black" stroke-width="0.5" fill="#aaffff" cx="310.0" cy="244.0" r="1.0"/>
     <text stroke="none" x="310.0" y="244.0" font-size="10.0" font-family="helvetica">NT1.10</text>
    </g>
    <g>
     <circle stroke="black" stroke-width="0.5" fill="#aaffff" cx="328.0" cy="362.0" r="1.0"/>
     <text stroke="none" x="328.0" y="362.0" font-size="10.0" font-family="helvetica">NT1.11</text>
    </g>
    <g>
     <circle stroke="black" stroke-width="0.5" fill="#aaffff" cx="344.0" cy="330.0" r="1.0"/>
     <text stroke="none" x="344.0" y="330.0" font-size="10.0" font-family="helvetica">NT1.12</text>
    </g>
    <g>
     <circle stroke="black" stroke-width="0.5" fill="#aaffff" cx="345.0" cy="435.0" r="1.0"/>
     <text stroke="none" x="345.0" y="435.0" font-size="20.0" font-family="helvetica">Halobacterium noricense A1 7 (AJ548827)</text>
    </g>
    <g>
     <circle stroke="black" stroke-width="0.5" fill="#aaffff" cx="356.0" cy="182.0" r="1.0"/>
     <text stroke="none" x="356.0" y="182.0" font-size="20.0" font-family="helvetica">Narronobacterium gregoryi NCIMB 2189T (D87970)</text>
    </g>
    <g>
     <circle stroke="black" stroke-width="0.5" fill="#aaffff" cx="356.0" cy="393.0" r="1.0"/>
     <text stroke="none" x="356.0" y="393.0" font-size="20.0" font-family="helvetica">Halobacterium jilantaiense NG4T (DQ256409)</text>
    </g>
    <g>
     <circle stroke="black" stroke-width="0.5" fill="#aaffff" cx="357.0" cy="352.0" r="1.0"/>
     <text stroke="none" x="357.0" y="352.0" font-size="20.0" font-family="helvetica">Halobacterium salinarum DSM 37547 (AJ496185)</text>
    </g>
    <g>
     <circle stroke="black" stroke-width="0.5" fill="#aaffff" cx="360.0" cy="97.0" r="1.0"/>
     <text stroke="none" x="360.0" y="97.0" font-size="20.0" font-family="helvetica">Natronococcus occultus NCMB 2192T (Z28378)</text>
    </g>
    <g>
     <circle stroke="black" stroke-width="0.5" fill="#aaffff" cx="364.0" cy="478.0" r="1.0"/>
     <text stroke="none" x="364.0" y="478.0" font-size="20.0" font-family="helvetica">Halarchaeum acidiphilum MH1-52-1T (AB371717)</text>
    </g>
    <g>
     <circle stroke="black" stroke-width="0.5" fill="#aaffff" cx="365.0" cy="13.0" r="1.0"/>
     <text stroke="none" x="365.0" y="13.0" font-size="20.0" font-family="helvetica">Haloferax volcanii ATCC 296O5T (KO0421)</text>
    </g>
    <g>
     <circle stroke="black" stroke-width="0.5" fill="#aaffff" cx="376.0" cy="562.0" r="1.0"/>
     <text stroke="none" x="376.0" y="562.0" font-size="20.0" font-family="helvetica">Methanospirillum hungatei DSM 8647 (M60880)</text>
    </g>
    <g>
     <circle stroke="black" stroke-width="0.5" fill="#aaffff" cx="379.0" cy="139.0" r="1.0"/>
     <text stroke="none" x="379.0" y="139.0" font-size="20.0" font-family="helvetica">Natrialba asiatica 172P1T (D14123)</text>
    </g>
    <g>
     <circle stroke="black" stroke-width="0.5" fill="#aaffff" cx="389.0" cy="309.0" r="1.0"/>
     <text stroke="none" x="389.0" y="309.0" font-size="20.0" font-family="helvetica">Halobacterium piscisalsiHPC1-27 (AB285020)</text>
    </g>
    <g>
     <circle stroke="black" stroke-width="0.5" fill="#aaffff" cx="391.0" cy="519.0" r="1.0"/>
     <text stroke="none" x="391.0" y="519.0" font-size="20.0" font-family="helvetica">Haloarcula vallismortis AT (U1 7593)</text>
    </g>
    <g>
     <circle stroke="black" stroke-width="0.5" fill="#aaffff" cx="399.0" cy="224.0" r="1.0"/>
     <text stroke="none" x="399.0" y="224.0" font-size="20.0" font-family="helvetica">Halococcus qingdaonensis JCM 135877 (AB477971)</text>
    </g>
    <g>
     <circle stroke="black" stroke-width="0.5" fill="#aaffff" cx="399.0" cy="266.0" r="1.0"/>
     <text stroke="none" x="399.0" y="266.0" font-size="20.0" font-family="helvetica">Halococcus hamelinensis JCM 12892T (AB301068)</text>
    </g>
    <g>
     <circle stroke="black" stroke-width="0.5" fill="#aaffff" cx="415.0" cy="55.0" r="1.0"/>
     <text stroke="none" x="415.0" y="55.0" font-size="20.0" font-family="helvetica">Halorubrum saccharovorum JCM 8865T(U17364)</text>
    </g>
    <line stroke="black" x1="364.0" y1="478.0" x2="217.0" y2="437.0" stroke-width="0.5"/>
    <line stroke="black" x1="345.0" y1="435.0" x2="307.0" y2="399.0" stroke-width="0.5"/>
    <line stroke="black" x1="356.0" y1="182.0" x2="249.0" y2="162.0" stroke-width="0.5"/>
    <line stroke="black" x1="379.0" y1="139.0" x2="253.0" y2="139.0" stroke-width="0.5"/>
    <line stroke="black" x1="356.0" y1="393.0" x2="328.0" y2="362.0" stroke-width="0.5"/>
    <line stroke="black" x1="399.0" y1="224.0" x2="310.0" y2="244.0" stroke-width="0.5"/>
    <line stroke="black" x1="399.0" y1="266.0" x2="310.0" y2="244.0" stroke-width="0.5"/>
    <line stroke="black" x1="357.0" y1="352.0" x2="344.0" y2="330.0" stroke-width="0.5"/>
    <line stroke="black" x1="391.0" y1="519.0" x2="161.0" y2="348.0" stroke-width="0.5"/>
    <line stroke="black" x1="195.0" y1="35.0" x2="171.0" y2="221.0" stroke-width="0.5"/>
    <line stroke="black" x1="171.0" y1="221.0" x2="161.0" y2="348.0" stroke-width="0.5"/>
    <line stroke="black" x1="171.0" y1="221.0" x2="175.0" y2="317.0" stroke-width="0.5"/>
    <line stroke="black" x1="175.0" y1="317.0" x2="217.0" y2="437.0" stroke-width="0.5"/>
    <line stroke="black" x1="175.0" y1="317.0" x2="183.0" y2="199.0" stroke-width="0.5"/>
    <line stroke="black" x1="183.0" y1="199.0" x2="310.0" y2="244.0" stroke-width="0.5"/>
    <line stroke="black" x1="183.0" y1="199.0" x2="249.0" y2="162.0" stroke-width="0.5"/>
    <line stroke="black" x1="217.0" y1="437.0" x2="307.0" y2="399.0" stroke-width="0.5"/>
    <line stroke="black" x1="249.0" y1="162.0" x2="253.0" y2="139.0" stroke-width="0.5"/>
    <line stroke="black" x1="307.0" y1="399.0" x2="328.0" y2="362.0" stroke-width="0.5"/>
    <line stroke="black" x1="328.0" y1="362.0" x2="344.0" y2="330.0" stroke-width="0.5"/>
    <line stroke="black" x1="376.0" y1="562.0" x2="161.0" y2="348.0" stroke-width="0.5"/>
    <line stroke="black" x1="415.0" y1="55.0" x2="195.0" y2="35.0" stroke-width="0.5"/>
    <line stroke="black" x1="365.0" y1="13.0" x2="195.0" y2="35.0" stroke-width="0.5"/>
    <line stroke="black" x1="360.0" y1="97.0" x2="253.0" y2="139.0" stroke-width="0.5"/>
    <line stroke="black" x1="389.0" y1="309.0" x2="344.0" y2="330.0" stroke-width="0.5"/>
   </g>
  </g>
 </svg>
</svg>
