<?xml version="1.0" encoding="UTF-8"?>
<svg height="800.0" width="700.0" xmlns="http://www.w3.org/2000/svg">
 <svg>
  <g>
   <g>
    <g>
     <circle stroke="black" stroke-width="0.5" fill="#aaffff" cx="0.0" cy="371.0" r="1.0"/>
     <text stroke="none" x="0.0" y="371.0" font-size="20.0" font-family="helvetica"/>
    </g>
    <g>
     <circle stroke="black" stroke-width="0.5" fill="#aaffff" cx="34.0" cy="371.0" r="1.0"/>
     <text stroke="none" x="34.0" y="371.0" font-size="10.0" font-family="helvetica">NT1.2</text>
    </g>
    <g>
     <circle stroke="black" stroke-width="0.5" fill="#aaffff" cx="66.0" cy="329.0" r="1.0"/>
     <text stroke="none" x="66.0" y="329.0" font-size="10.0" font-family="helvetica">NT1.3</text>
    </g>
    <g>
     <circle stroke="black" stroke-width="0.5" fill="#aaffff" cx="84.0" cy="281.0" r="1.0"/>
     <text stroke="none" x="84.0" y="281.0" font-size="10.0" font-family="helvetica">NT1.4</text>
    </g>
    <g>
     <circle stroke="black" stroke-width="0.5" fill="#aaffff" cx="129.0" cy="228.0" r="1.0"/>
     <text stroke="none" x="129.0" y="228.0" font-size="10.0" font-family="helvetica">NT1.5</text>
    </g>
    <g>
     <circle stroke="black" stroke-width="0.5" fill="#aaffff" cx="138.0" cy="228.0" r="1.0"/>
     <text stroke="none" x="138.0" y="228.0" font-size="10.0" font-family="helvetica">NT1.6</text>
    </g>
    <g>
     <circle stroke="black" stroke-width="0.5" fill="#aaffff" cx="169.0" cy="335.0" r="1.0"/>
     <text stroke="none" x="169.0" y="335.0" font-size="10.0" font-family="helvetica">NT1.7</text>
    </g>
    <g>
     <circle stroke="black" stroke-width="0.5" fill="#aaffff" cx="170.0" cy="274.0" r="1.0"/>
     <text stroke="none" x="170.0" y="274.0" font-size="10.0" font-family="helvetica">NT1.8</text>
    </g>
    <g>
     <circle stroke="black" stroke-width="0.5" fill="#aaffff" cx="172.0" cy="276.0" r="1.0"/>
     <text stroke="none" x="172.0" y="276.0" font-size="10.0" font-family="helvetica">NT1.9</text>
    </g>
    <g>
     <circle stroke="black" stroke-width="0.5" fill="#aaffff" cx="180.0" cy="276.0" r="1.0"/>
     <text stroke="none" x="180.0" y="276.0" font-size="10.0" font-family="helvetica">NT1.10</text>
    </g>
    <g>
     <circle stroke="black" stroke-width="0.5" fill="#aaffff" cx="220.0" cy="178.0" r="1.0"/>
     <text stroke="none" x="220.0" y="178.0" font-size="20.0" font-family="helvetica">100</text>
    </g>
    <g>
     <circle stroke="black" stroke-width="0.5" fill="#aaffff" cx="221.0" cy="375.0" r="1.0"/>
     <text stroke="none" x="221.0" y="375.0" font-size="20.0" font-family="helvetica">Agromyces luteolus IFO 16235T (ABO23356)</text>
    </g>
    <g>
     <circle stroke="black" stroke-width="0.5" fill="#aaffff" cx="229.0" cy="178.0" r="1.0"/>
     <text stroke="none" x="229.0" y="178.0" font-size="20.0" font-family="helvetica">Agromyces soli MJ21T (GQ241325)</text>
    </g>
    <g>
     <circle stroke="black" stroke-width="0.5" fill="#aaffff" cx="250.0" cy="140.0" r="1.0"/>
     <text stroke="none" x="250.0" y="140.0" font-size="10.0" font-family="helvetica">NT1.14</text>
    </g>
    <g>
     <circle stroke="black" stroke-width="0.5" fill="#aaffff" cx="259.0" cy="140.0" r="1.0"/>
     <text stroke="none" x="259.0" y="140.0" font-size="10.0" font-family="helvetica">NT1.15</text>
    </g>
    <g>
     <circle stroke="black" stroke-width="0.5" fill="#aaffff" cx="259.0" cy="176.0" r="1.0"/>
     <text stroke="none" x="259.0" y="176.0" font-size="20.0" font-family="helvetica">Agromyces soli MJ21T (GQ241325)</text>
    </g>
    <g>
     <circle stroke="black" stroke-width="0.5" fill="#aaffff" cx="265.0" cy="101.0" r="1.0"/>
     <text stroke="none" x="265.0" y="101.0" font-size="10.0" font-family="helvetica">NT1.17</text>
    </g>
    <g>
     <circle stroke="black" stroke-width="0.5" fill="#aaffff" cx="274.0" cy="101.0" r="1.0"/>
     <text stroke="none" x="274.0" y="101.0" font-size="20.0" font-family="helvetica">Agromyces mediolanus CNF186 (D45054)</text>
    </g>
    <g>
     <circle stroke="black" stroke-width="0.5" fill="#aaffff" cx="277.0" cy="414.0" r="1.0"/>
     <text stroke="none" x="277.0" y="414.0" font-size="20.0" font-family="helvetica">Agromyces bracchium IFO 16238T (AB023359)</text>
    </g>
    <g>
     <circle stroke="black" stroke-width="0.5" fill="#aaffff" cx="278.0" cy="68.0" r="1.0"/>
     <text stroke="none" x="278.0" y="68.0" font-size="10.0" font-family="helvetica">NT1.20</text>
    </g>
    <g>
     <circle stroke="black" stroke-width="0.5" fill="#aaffff" cx="280.0" cy="66.0" r="1.0"/>
     <text stroke="none" x="280.0" y="66.0" font-size="10.0" font-family="helvetica">NT1.21</text>
    </g>
    <g>
     <circle stroke="black" stroke-width="0.5" fill="#aaffff" cx="282.0" cy="255.0" r="1.0"/>
     <text stroke="none" x="282.0" y="255.0" font-size="10.0" font-family="helvetica">NT1.22</text>
    </g>
    <g>
     <circle stroke="black" stroke-width="0.5" fill="#aaffff" cx="287.0" cy="66.0" r="1.0"/>
     <text stroke="none" x="287.0" y="66.0" font-size="10.0" font-family="helvetica">NT1.23</text>
    </g>
    <g>
     <circle stroke="black" stroke-width="0.5" fill="#aaffff" cx="301.0" cy="136.0" r="1.0"/>
     <text stroke="none" x="301.0" y="136.0" font-size="20.0" font-family="helvetica">Agromyces mediolanus CNF134 (D45052)</text>
    </g>
    <g>
     <circle stroke="black" stroke-width="0.5" fill="#aaffff" cx="307.0" cy="96.0" r="1.0"/>
     <text stroke="none" x="307.0" y="96.0" font-size="20.0" font-family="helvetica">Agromyces mediolanus CNF186 (D45054)</text>
    </g>
    <g>
     <circle stroke="black" stroke-width="0.5" fill="#aaffff" cx="317.0" cy="37.0" r="1.0"/>
     <text stroke="none" x="317.0" y="37.0" font-size="10.0" font-family="helvetica">NT1.26</text>
    </g>
    <g>
     <circle stroke="black" stroke-width="0.5" fill="#aaffff" cx="325.0" cy="37.0" r="1.0"/>
     <text stroke="none" x="325.0" y="37.0" font-size="10.0" font-family="helvetica">NT1.27</text>
    </g>
    <g>
     <circle stroke="black" stroke-width="0.5" fill="#aaffff" cx="343.0" cy="17.0" r="1.0"/>
     <text stroke="none" x="343.0" y="17.0" font-size="20.0" font-family="helvetica">Agromyces mediolanus CNF208 (D45056)</text>
    </g>
    <g>
     <circle stroke="black" stroke-width="0.5" fill="#aaffff" cx="352.0" cy="295.0" r="1.0"/>
     <text stroke="none" x="352.0" y="295.0" font-size="10.0" font-family="helvetica">NT1.29</text>
    </g>
    <g>
     <circle stroke="black" stroke-width="0.5" fill="#aaffff" cx="397.0" cy="216.0" r="1.0"/>
     <text stroke="none" x="397.0" y="216.0" font-size="10.0" font-family="helvetica">NT1.30</text>
    </g>
    <g>
     <circle stroke="black" stroke-width="0.5" fill="#aaffff" cx="567.0" cy="57.0" r="1.0"/>
     <text stroke="none" x="567.0" y="57.0" font-size="20.0" font-family="helvetica">Agromyces mediolanus CNF183 (D45053)</text>
    </g>
    <line stroke="black" x1="274.0" y1="101.0" x2="265.0" y2="101.0" stroke-width="0.5"/>
    <line stroke="black" x1="229.0" y1="178.0" x2="220.0" y2="178.0" stroke-width="0.5"/>
    <line stroke="black" x1="0.0" y1="371.0" x2="34.0" y2="371.0" stroke-width="0.5"/>
    <line stroke="black" x1="317.0" y1="37.0" x2="280.0" y2="66.0" stroke-width="0.5"/>
    <line stroke="black" x1="278.0" y1="68.0" x2="265.0" y2="101.0" stroke-width="0.5"/>
    <line stroke="black" x1="265.0" y1="101.0" x2="250.0" y2="140.0" stroke-width="0.5"/>
    <line stroke="black" x1="250.0" y1="140.0" x2="220.0" y2="178.0" stroke-width="0.5"/>
    <line stroke="black" x1="220.0" y1="178.0" x2="129.0" y2="228.0" stroke-width="0.5"/>
    <line stroke="black" x1="66.0" y1="329.0" x2="34.0" y2="371.0" stroke-width="0.5"/>
    <line stroke="black" x1="277.0" y1="414.0" x2="34.0" y2="371.0" stroke-width="0.5"/>
    <line stroke="black" x1="221.0" y1="375.0" x2="66.0" y2="329.0" stroke-width="0.5"/>
    <line stroke="black" x1="259.0" y1="176.0" x2="250.0" y2="140.0" stroke-width="0.5"/>
    <line stroke="black" x1="301.0" y1="136.0" x2="265.0" y2="101.0" stroke-width="0.5"/>
    <line stroke="black" x1="307.0" y1="96.0" x2="278.0" y2="68.0" stroke-width="0.5"/>
    <line stroke="black" x1="343.0" y1="17.0" x2="317.0" y2="37.0" stroke-width="0.5"/>
    <line stroke="black" x1="567.0" y1="57.0" x2="317.0" y2="37.0" stroke-width="0.5"/>
   </g>
  </g>
 </svg>
</svg>
