<?xml version="1.0" encoding="UTF-8"?>
<svg height="800.0" width="700.0" xmlns="http://www.w3.org/2000/svg">
 <svg>
  <g>
   <g>
    <g>
     <circle stroke="black" stroke-width="0.5" fill="#aaffff" cx="142.0" cy="724.0" r="1.0"/>
     <text stroke="none" x="142.0" y="724.0" font-size="10.0" font-family="helvetica">NT1.1</text>
    </g>
    <g>
     <circle stroke="black" stroke-width="0.5" fill="#aaffff" cx="143.0" cy="776.0" r="1.0"/>
     <text stroke="none" x="143.0" y="776.0" font-size="20.0" font-family="helvetica">Bartonella henselae M4OSHD (DQ645426)</text>
    </g>
    <g>
     <circle stroke="black" stroke-width="0.5" fill="#aaffff" cx="155.0" cy="740.0" r="1.0"/>
     <text stroke="none" x="155.0" y="740.0" font-size="20.0" font-family="helvetica">Ochrobactrum oryzae MTCC 4195T (AMO41 247)</text>
    </g>
    <g>
     <circle stroke="black" stroke-width="0.5" fill="#aaffff" cx="180.0" cy="505.0" r="1.0"/>
     <text stroke="none" x="180.0" y="505.0" font-size="10.0" font-family="helvetica">NT1.4</text>
    </g>
    <g>
     <circle stroke="black" stroke-width="0.5" fill="#aaffff" cx="268.0" cy="463.0" r="1.0"/>
     <text stroke="none" x="268.0" y="463.0" font-size="10.0" font-family="helvetica">NT1.5</text>
    </g>
    <g>
     <circle stroke="black" stroke-width="0.5" fill="#aaffff" cx="310.0" cy="650.0" r="1.0"/>
     <text stroke="none" x="310.0" y="650.0" font-size="10.0" font-family="helvetica">NT1.6</text>
    </g>
    <g>
     <circle stroke="black" stroke-width="0.5" fill="#aaffff" cx="336.0" cy="704.0" r="1.0"/>
     <text stroke="none" x="336.0" y="704.0" font-size="20.0" font-family="helvetica">Paenochrobactrum gallinarii Sa25T(FN391023)</text>
    </g>
    <g>
     <circle stroke="black" stroke-width="0.5" fill="#aaffff" cx="336.0" cy="686.0" r="1.0"/>
     <text stroke="none" x="336.0" y="686.0" font-size="10.0" font-family="helvetica">NT1.8</text>
    </g>
    <g>
     <circle stroke="black" stroke-width="0.5" fill="#aaffff" cx="337.0" cy="666.0" r="1.0"/>
     <text stroke="none" x="337.0" y="666.0" font-size="20.0" font-family="helvetica">Paenochrobactrum glaciei KMM 3858T (AB369864)</text>
    </g>
    <g>
     <circle stroke="black" stroke-width="0.5" fill="#aaffff" cx="344.0" cy="431.0" r="1.0"/>
     <text stroke="none" x="344.0" y="431.0" font-size="10.0" font-family="helvetica">NT1.10</text>
    </g>
    <g>
     <circle stroke="black" stroke-width="0.5" fill="#aaffff" cx="370.0" cy="485.0" r="1.0"/>
     <text stroke="none" x="370.0" y="485.0" font-size="20.0" font-family="helvetica">Ochrobaotrum gallinifaecis lso 196T(AJ519939)</text>
    </g>
    <g>
     <circle stroke="black" stroke-width="0.5" fill="#aaffff" cx="431.0" cy="396.0" r="1.0"/>
     <text stroke="none" x="431.0" y="396.0" font-size="10.0" font-family="helvetica">NT1.12</text>
    </g>
    <g>
     <circle stroke="black" stroke-width="0.5" fill="#aaffff" cx="441.0" cy="448.0" r="1.0"/>
     <text stroke="none" x="441.0" y="448.0" font-size="20.0" font-family="helvetica">Ochrobactrum pseudogrignonense CCUG 30717T(AM422371)</text>
    </g>
    <g>
     <circle stroke="black" stroke-width="0.5" fill="#aaffff" cx="444.0" cy="323.0" r="1.0"/>
     <text stroke="none" x="444.0" y="323.0" font-size="10.0" font-family="helvetica">NT1.14</text>
    </g>
    <g>
     <circle stroke="black" stroke-width="0.5" fill="#aaffff" cx="446.0" cy="305.0" r="1.0"/>
     <text stroke="none" x="446.0" y="305.0" font-size="10.0" font-family="helvetica">NT1.15</text>
    </g>
    <g>
     <circle stroke="black" stroke-width="0.5" fill="#aaffff" cx="467.0" cy="305.0" r="1.0"/>
     <text stroke="none" x="467.0" y="305.0" font-size="20.0" font-family="helvetica">Ochrobactrum thiophenivorans DSM 7216T (AM49061 7)</text>
    </g>
    <g>
     <circle stroke="black" stroke-width="0.5" fill="#aaffff" cx="469.0" cy="412.0" r="1.0"/>
     <text stroke="none" x="469.0" y="412.0" font-size="20.0" font-family="helvetica">Ochrobactrum grignonense Oga9aT(AM49O619)</text>
    </g>
    <g>
     <circle stroke="black" stroke-width="0.5" fill="#aaffff" cx="490.0" cy="358.0" r="1.0"/>
     <text stroke="none" x="490.0" y="358.0" font-size="10.0" font-family="helvetica">NT1.18</text>
    </g>
    <g>
     <circle stroke="black" stroke-width="0.5" fill="#aaffff" cx="511.0" cy="342.0" r="1.0"/>
     <text stroke="none" x="511.0" y="342.0" font-size="20.0" font-family="helvetica">Ochrobactrum pituitosum CCUG 5O899T (AM490609)</text>
    </g>
    <g>
     <circle stroke="black" stroke-width="0.5" fill="#aaffff" cx="518.0" cy="270.0" r="1.0"/>
     <text stroke="none" x="518.0" y="270.0" font-size="20.0" font-family="helvetica">Ochrobactrum anthropi LMG 33317 (AM1 14398)</text>
    </g>
    <g>
     <circle stroke="black" stroke-width="0.5" fill="#aaffff" cx="518.0" cy="177.0" r="1.0"/>
     <text stroke="none" x="518.0" y="177.0" font-size="10.0" font-family="helvetica">NT1.21</text>
    </g>
    <g>
     <circle stroke="black" stroke-width="0.5" fill="#aaffff" cx="519.0" cy="615.0" r="1.0"/>
     <text stroke="none" x="519.0" y="615.0" font-size="10.0" font-family="helvetica">NT1.22</text>
    </g>
    <g>
     <circle stroke="black" stroke-width="0.5" fill="#aaffff" cx="524.0" cy="375.0" r="1.0"/>
     <text stroke="none" x="524.0" y="375.0" font-size="20.0" font-family="helvetica">Ochrobactrum rhizosphaerae PR 17 (AM490632)</text>
    </g>
    <g>
     <circle stroke="black" stroke-width="0.5" fill="#aaffff" cx="531.0" cy="141.0" r="1.0"/>
     <text stroke="none" x="531.0" y="141.0" font-size="10.0" font-family="helvetica">NT1.24</text>
    </g>
    <g>
     <circle stroke="black" stroke-width="0.5" fill="#aaffff" cx="532.0" cy="631.0" r="1.0"/>
     <text stroke="none" x="532.0" y="631.0" font-size="20.0" font-family="helvetica">Pseudochrobactrum kiredjianae CCUG 495847 (AM263420)</text>
    </g>
    <g>
     <circle stroke="black" stroke-width="0.5" fill="#aaffff" cx="537.0" cy="578.0" r="1.0"/>
     <text stroke="none" x="537.0" y="578.0" font-size="10.0" font-family="helvetica">NT1.26</text>
    </g>
    <g>
     <circle stroke="black" stroke-width="0.5" fill="#aaffff" cx="538.0" cy="595.0" r="1.0"/>
     <text stroke="none" x="538.0" y="595.0" font-size="20.0" font-family="helvetica">Pseudochrobactrum asaccharolyticum CCUG 4601 67 (AM180485)</text>
    </g>
    <g>
     <circle stroke="black" stroke-width="0.5" fill="#aaffff" cx="539.0" cy="160.0" r="1.0"/>
     <text stroke="none" x="539.0" y="160.0" font-size="20.0" font-family="helvetica">Ochrobactrum tritici SCll24T (AJ242584)</text>
    </g>
    <g>
     <circle stroke="black" stroke-width="0.5" fill="#aaffff" cx="547.0" cy="105.0" r="1.0"/>
     <text stroke="none" x="547.0" y="105.0" font-size="10.0" font-family="helvetica">NT1.29</text>
    </g>
    <g>
     <circle stroke="black" stroke-width="0.5" fill="#aaffff" cx="547.0" cy="541.0" r="1.0"/>
     <text stroke="none" x="547.0" y="541.0" font-size="10.0" font-family="helvetica">NT1.30</text>
    </g>
    <g>
     <circle stroke="black" stroke-width="0.5" fill="#aaffff" cx="548.0" cy="558.0" r="1.0"/>
     <text stroke="none" x="548.0" y="558.0" font-size="20.0" font-family="helvetica">Pseudochrobactrum saccharolyticum CCUG 338527 (AM180484)</text>
    </g>
    <g>
     <circle stroke="black" stroke-width="0.5" fill="#aaffff" cx="554.0" cy="521.0" r="1.0"/>
     <text stroke="none" x="554.0" y="521.0" font-size="20.0" font-family="helvetica">Pseudochrobactrum Iubricantis KSS 7.8T (FM209496)</text>
    </g>
    <g>
     <circle stroke="black" stroke-width="0.5" fill="#aaffff" cx="611.0" cy="124.0" r="1.0"/>
     <text stroke="none" x="611.0" y="124.0" font-size="20.0" font-family="helvetica">Ochrobactrum haematophilum CCUG 38531T (AM422370)</text>
    </g>
    <g>
     <circle stroke="black" stroke-width="0.5" fill="#aaffff" cx="611.0" cy="68.0" r="1.0"/>
     <text stroke="none" x="611.0" y="68.0" font-size="20.0" font-family="helvetica">'-</text>
    </g>
    <g>
     <circle stroke="black" stroke-width="0.5" fill="#aaffff" cx="644.0" cy="87.0" r="1.0"/>
     <text stroke="none" x="644.0" y="87.0" font-size="20.0" font-family="helvetica">Brucella abortus NCTC 1oo93T (AM158979)</text>
    </g>
    <g>
     <circle stroke="black" stroke-width="0.5" fill="#aaffff" cx="648.0" cy="32.0" r="1.0"/>
     <text stroke="none" x="648.0" y="32.0" font-size="10.0" font-family="helvetica">NT1.36</text>
    </g>
    <g>
     <circle stroke="black" stroke-width="0.5" fill="#aaffff" cx="649.0" cy="13.0" r="1.0"/>
     <text stroke="none" x="649.0" y="13.0" font-size="20.0" font-family="helvetica">Ochrobactrum intermedium LMG 3301T (AM490623)</text>
    </g>
    <g>
     <circle stroke="black" stroke-width="0.5" fill="#aaffff" cx="810.0" cy="51.0" r="1.0"/>
     <text stroke="none" x="810.0" y="51.0" font-size="20.0" font-family="helvetica"/>
    </g>
    <line stroke="black" x1="649.0" y1="13.0" x2="648.0" y2="32.0" stroke-width="0.5"/>
    <line stroke="black" x1="810.0" y1="51.0" x2="648.0" y2="32.0" stroke-width="0.5"/>
    <line stroke="black" x1="539.0" y1="160.0" x2="531.0" y2="141.0" stroke-width="0.5"/>
    <line stroke="black" x1="611.0" y1="124.0" x2="547.0" y2="105.0" stroke-width="0.5"/>
    <line stroke="black" x1="518.0" y1="270.0" x2="518.0" y2="177.0" stroke-width="0.5"/>
    <line stroke="black" x1="467.0" y1="305.0" x2="446.0" y2="305.0" stroke-width="0.5"/>
    <line stroke="black" x1="511.0" y1="342.0" x2="490.0" y2="358.0" stroke-width="0.5"/>
    <line stroke="black" x1="524.0" y1="375.0" x2="490.0" y2="358.0" stroke-width="0.5"/>
    <line stroke="black" x1="469.0" y1="412.0" x2="431.0" y2="396.0" stroke-width="0.5"/>
    <line stroke="black" x1="441.0" y1="448.0" x2="344.0" y2="431.0" stroke-width="0.5"/>
    <line stroke="black" x1="370.0" y1="485.0" x2="268.0" y2="463.0" stroke-width="0.5"/>
    <line stroke="black" x1="336.0" y1="704.0" x2="336.0" y2="686.0" stroke-width="0.5"/>
    <line stroke="black" x1="337.0" y1="666.0" x2="336.0" y2="686.0" stroke-width="0.5"/>
    <line stroke="black" x1="532.0" y1="631.0" x2="519.0" y2="615.0" stroke-width="0.5"/>
    <line stroke="black" x1="538.0" y1="595.0" x2="537.0" y2="578.0" stroke-width="0.5"/>
    <line stroke="black" x1="548.0" y1="558.0" x2="547.0" y2="541.0" stroke-width="0.5"/>
    <line stroke="black" x1="648.0" y1="32.0" x2="611.0" y2="68.0" stroke-width="0.5"/>
    <line stroke="black" x1="611.0" y1="68.0" x2="547.0" y2="105.0" stroke-width="0.5"/>
    <line stroke="black" x1="547.0" y1="105.0" x2="531.0" y2="141.0" stroke-width="0.5"/>
    <line stroke="black" x1="531.0" y1="141.0" x2="518.0" y2="177.0" stroke-width="0.5"/>
    <line stroke="black" x1="518.0" y1="177.0" x2="446.0" y2="305.0" stroke-width="0.5"/>
    <line stroke="black" x1="446.0" y1="305.0" x2="444.0" y2="323.0" stroke-width="0.5"/>
    <line stroke="black" x1="444.0" y1="323.0" x2="431.0" y2="396.0" stroke-width="0.5"/>
    <line stroke="black" x1="444.0" y1="323.0" x2="490.0" y2="358.0" stroke-width="0.5"/>
    <line stroke="black" x1="431.0" y1="396.0" x2="344.0" y2="431.0" stroke-width="0.5"/>
    <line stroke="black" x1="344.0" y1="431.0" x2="268.0" y2="463.0" stroke-width="0.5"/>
    <line stroke="black" x1="268.0" y1="463.0" x2="180.0" y2="505.0" stroke-width="0.5"/>
    <line stroke="black" x1="180.0" y1="505.0" x2="142.0" y2="724.0" stroke-width="0.5"/>
    <line stroke="black" x1="180.0" y1="505.0" x2="310.0" y2="650.0" stroke-width="0.5"/>
    <line stroke="black" x1="310.0" y1="650.0" x2="336.0" y2="686.0" stroke-width="0.5"/>
    <line stroke="black" x1="310.0" y1="650.0" x2="519.0" y2="615.0" stroke-width="0.5"/>
    <line stroke="black" x1="519.0" y1="615.0" x2="537.0" y2="578.0" stroke-width="0.5"/>
    <line stroke="black" x1="537.0" y1="578.0" x2="547.0" y2="541.0" stroke-width="0.5"/>
    <line stroke="black" x1="143.0" y1="776.0" x2="142.0" y2="724.0" stroke-width="0.5"/>
    <line stroke="black" x1="155.0" y1="740.0" x2="142.0" y2="724.0" stroke-width="0.5"/>
    <line stroke="black" x1="554.0" y1="521.0" x2="547.0" y2="541.0" stroke-width="0.5"/>
    <line stroke="black" x1="644.0" y1="87.0" x2="611.0" y2="68.0" stroke-width="0.5"/>
   </g>
  </g>
 </svg>
</svg>
