<?xml version="1.0" encoding="UTF-8"?>
<svg height="800.0" width="700.0" xmlns="http://www.w3.org/2000/svg">
 <svg>
  <g>
   <g>
    <g>
     <circle stroke="black" stroke-width="0.5" fill="#aaffff" cx="84.0" cy="1655.0" r="1.0"/>
     <text stroke="none" x="84.0" y="1655.0" font-size="10.0" font-family="helvetica">NT1.1</text>
    </g>
    <g>
     <circle stroke="black" stroke-width="0.5" fill="#aaffff" cx="119.0" cy="1457.0" r="1.0"/>
     <text stroke="none" x="119.0" y="1457.0" font-size="10.0" font-family="helvetica">NT1.2</text>
    </g>
    <g>
     <circle stroke="black" stroke-width="0.5" fill="#aaffff" cx="154.0" cy="1144.0" r="1.0"/>
     <text stroke="none" x="154.0" y="1144.0" font-size="10.0" font-family="helvetica">NT1.3</text>
    </g>
    <g>
     <circle stroke="black" stroke-width="0.5" fill="#aaffff" cx="168.0" cy="1371.0" r="1.0"/>
     <text stroke="none" x="168.0" y="1371.0" font-size="10.0" font-family="helvetica">NT1.4</text>
    </g>
    <g>
     <circle stroke="black" stroke-width="0.5" fill="#aaffff" cx="192.0" cy="915.0" r="1.0"/>
     <text stroke="none" x="192.0" y="915.0" font-size="10.0" font-family="helvetica">NT1.5</text>
    </g>
    <g>
     <circle stroke="black" stroke-width="0.5" fill="#aaffff" cx="214.0" cy="1446.0" r="1.0"/>
     <text stroke="none" x="214.0" y="1446.0" font-size="10.0" font-family="helvetica">NT1.6</text>
    </g>
    <g>
     <circle stroke="black" stroke-width="0.5" fill="#aaffff" cx="228.0" cy="652.0" r="1.0"/>
     <text stroke="none" x="228.0" y="652.0" font-size="10.0" font-family="helvetica">NT1.7</text>
    </g>
    <g>
     <circle stroke="black" stroke-width="0.5" fill="#aaffff" cx="240.0" cy="1527.0" r="1.0"/>
     <text stroke="none" x="240.0" y="1527.0" font-size="10.0" font-family="helvetica">NT1.8</text>
    </g>
    <g>
     <circle stroke="black" stroke-width="0.5" fill="#aaffff" cx="250.0" cy="1178.0" r="1.0"/>
     <text stroke="none" x="250.0" y="1178.0" font-size="10.0" font-family="helvetica">NT1.9</text>
    </g>
    <g>
     <circle stroke="black" stroke-width="0.5" fill="#aaffff" cx="262.0" cy="1225.0" r="1.0"/>
     <text stroke="none" x="262.0" y="1225.0" font-size="10.0" font-family="helvetica">NT1.10</text>
    </g>
    <g>
     <circle stroke="black" stroke-width="0.5" fill="#aaffff" cx="275.0" cy="1852.0" r="1.0"/>
     <text stroke="none" x="275.0" y="1852.0" font-size="10.0" font-family="helvetica">NT1.11</text>
    </g>
    <g>
     <circle stroke="black" stroke-width="0.5" fill="#aaffff" cx="282.0" cy="859.0" r="1.0"/>
     <text stroke="none" x="282.0" y="859.0" font-size="20.0" font-family="helvetica">53</text>
    </g>
    <g>
     <circle stroke="black" stroke-width="0.5" fill="#aaffff" cx="291.0" cy="442.0" r="1.0"/>
     <text stroke="none" x="291.0" y="442.0" font-size="10.0" font-family="helvetica">NT1.13</text>
    </g>
    <g>
     <circle stroke="black" stroke-width="0.5" fill="#aaffff" cx="292.0" cy="1591.0" r="1.0"/>
     <text stroke="none" x="292.0" y="1591.0" font-size="10.0" font-family="helvetica">NT1.14</text>
    </g>
    <g>
     <circle stroke="black" stroke-width="0.5" fill="#aaffff" cx="355.0" cy="1133.0" r="1.0"/>
     <text stroke="none" x="355.0" y="1133.0" font-size="10.0" font-family="helvetica">NT1.15</text>
    </g>
    <g>
     <circle stroke="black" stroke-width="0.5" fill="#aaffff" cx="387.0" cy="1651.0" r="1.0"/>
     <text stroke="none" x="387.0" y="1651.0" font-size="10.0" font-family="helvetica">NT1.16</text>
    </g>
    <g>
     <circle stroke="black" stroke-width="0.5" fill="#aaffff" cx="389.0" cy="790.0" r="1.0"/>
     <text stroke="none" x="389.0" y="790.0" font-size="10.0" font-family="helvetica">NT1.17</text>
    </g>
    <g>
     <circle stroke="black" stroke-width="0.5" fill="#aaffff" cx="409.0" cy="1464.0" r="1.0"/>
     <text stroke="none" x="409.0" y="1464.0" font-size="10.0" font-family="helvetica">NT1.18</text>
    </g>
    <g>
     <circle stroke="black" stroke-width="0.5" fill="#aaffff" cx="413.0" cy="611.0" r="1.0"/>
     <text stroke="none" x="413.0" y="611.0" font-size="10.0" font-family="helvetica">NT1.19</text>
    </g>
    <g>
     <circle stroke="black" stroke-width="0.5" fill="#aaffff" cx="424.0" cy="1698.0" r="1.0"/>
     <text stroke="none" x="424.0" y="1698.0" font-size="10.0" font-family="helvetica">NT1.20</text>
    </g>
    <g>
     <circle stroke="black" stroke-width="0.5" fill="#aaffff" cx="448.0" cy="1439.0" r="1.0"/>
     <text stroke="none" x="448.0" y="1439.0" font-size="20.0" font-family="helvetica">P. alaniniphila Y-1 53o3T (EU 72251 9)</text>
    </g>
    <g>
     <circle stroke="black" stroke-width="0.5" fill="#aaffff" cx="463.0" cy="1486.0" r="1.0"/>
     <text stroke="none" x="463.0" y="1486.0" font-size="20.0" font-family="helvetica">P. yunnanensis IFO 15681T (D85472)</text>
    </g>
    <g>
     <circle stroke="black" stroke-width="0.5" fill="#aaffff" cx="465.0" cy="930.0" r="1.0"/>
     <text stroke="none" x="465.0" y="930.0" font-size="10.0" font-family="helvetica">NT1.23</text>
    </g>
    <g>
     <circle stroke="black" stroke-width="0.5" fill="#aaffff" cx="468.0" cy="1605.0" r="1.0"/>
     <text stroke="none" x="468.0" y="1605.0" font-size="10.0" font-family="helvetica">NT1.24</text>
    </g>
    <g>
     <circle stroke="black" stroke-width="0.5" fill="#aaffff" cx="472.0" cy="755.0" r="1.0"/>
     <text stroke="none" x="472.0" y="755.0" font-size="10.0" font-family="helvetica">NT1.25</text>
    </g>
    <g>
     <circle stroke="black" stroke-width="0.5" fill="#aaffff" cx="477.0" cy="1887.0" r="1.0"/>
     <text stroke="none" x="477.0" y="1887.0" font-size="10.0" font-family="helvetica">NT1.26</text>
    </g>
    <g>
     <circle stroke="black" stroke-width="0.5" fill="#aaffff" cx="478.0" cy="1581.0" r="1.0"/>
     <text stroke="none" x="478.0" y="1581.0" font-size="20.0" font-family="helvetica">P. kunmingensis YIM 631587 (FJ817377)</text>
    </g>
    <g>
     <circle stroke="black" stroke-width="0.5" fill="#aaffff" cx="480.0" cy="1770.0" r="1.0"/>
     <text stroke="none" x="480.0" y="1770.0" font-size="20.0" font-family="helvetica">P. chloroethenivorans SL-1T (AF454510)</text>
    </g>
    <g>
     <circle stroke="black" stroke-width="0.5" fill="#aaffff" cx="487.0" cy="989.0" r="1.0"/>
     <text stroke="none" x="487.0" y="989.0" font-size="20.0" font-family="helvetica">56</text>
    </g>
    <g>
     <circle stroke="black" stroke-width="0.5" fill="#aaffff" cx="493.0" cy="1628.0" r="1.0"/>
     <text stroke="none" x="493.0" y="1628.0" font-size="20.0" font-family="helvetica">P sichuanensis' KLBMP 1115</text>
    </g>
    <g>
     <circle stroke="black" stroke-width="0.5" fill="#aaffff" cx="495.0" cy="658.0" r="1.0"/>
     <text stroke="none" x="495.0" y="658.0" font-size="10.0" font-family="helvetica">NT1.31</text>
    </g>
    <g>
     <circle stroke="black" stroke-width="0.5" fill="#aaffff" cx="497.0" cy="272.0" r="1.0"/>
     <text stroke="none" x="497.0" y="272.0" font-size="10.0" font-family="helvetica">NT1.32</text>
    </g>
    <g>
     <circle stroke="black" stroke-width="0.5" fill="#aaffff" cx="512.0" cy="1297.0" r="1.0"/>
     <text stroke="none" x="512.0" y="1297.0" font-size="20.0" font-family="helvetica">P. mongoliensis MN08-AO27OT (AB521671)</text>
    </g>
    <g>
     <circle stroke="black" stroke-width="0.5" fill="#aaffff" cx="521.0" cy="566.0" r="1.0"/>
     <text stroke="none" x="521.0" y="566.0" font-size="10.0" font-family="helvetica">NT1.34</text>
    </g>
    <g>
     <circle stroke="black" stroke-width="0.5" fill="#aaffff" cx="526.0" cy="1864.0" r="1.0"/>
     <text stroke="none" x="526.0" y="1864.0" font-size="20.0" font-family="helvetica">P. khuvsgulensis MN08-AO297T (AB521672)</text>
    </g>
    <g>
     <circle stroke="black" stroke-width="0.5" fill="#aaffff" cx="527.0" cy="1036.0" r="1.0"/>
     <text stroke="none" x="527.0" y="1036.0" font-size="20.0" font-family="helvetica">56</text>
    </g>
    <g>
     <circle stroke="black" stroke-width="0.5" fill="#aaffff" cx="529.0" cy="1723.0" r="1.0"/>
     <text stroke="none" x="529.0" y="1723.0" font-size="20.0" font-family="helvetica">P. zijingensis DSM 44774T (AF325725)</text>
    </g>
    <g>
     <circle stroke="black" stroke-width="0.5" fill="#aaffff" cx="530.0" cy="196.0" r="1.0"/>
     <text stroke="none" x="530.0" y="196.0" font-size="10.0" font-family="helvetica">NT1.38</text>
    </g>
    <g>
     <circle stroke="black" stroke-width="0.5" fill="#aaffff" cx="537.0" cy="1912.0" r="1.0"/>
     <text stroke="none" x="537.0" y="1912.0" font-size="20.0" font-family="helvetica">1P.rhizophila' YIM 67013 (GU322368)</text>
    </g>
    <g>
     <circle stroke="black" stroke-width="0.5" fill="#aaffff" cx="560.0" cy="1369.0" r="1.0"/>
     <text stroke="none" x="560.0" y="1369.0" font-size="10.0" font-family="helvetica">NT1.40</text>
    </g>
    <g>
     <circle stroke="black" stroke-width="0.5" fill="#aaffff" cx="568.0" cy="1061.0" r="1.0"/>
     <text stroke="none" x="568.0" y="1061.0" font-size="20.0" font-family="helvetica">P. hydrocarbonoxydans IMSNU 22140T (AJ252826)</text>
    </g>
    <g>
     <circle stroke="black" stroke-width="0.5" fill="#aaffff" cx="573.0" cy="1250.0" r="1.0"/>
     <text stroke="none" x="573.0" y="1250.0" font-size="20.0" font-family="helvetica">P. saturnea IMSNU 200527 (AJ252829)</text>
    </g>
    <g>
     <circle stroke="black" stroke-width="0.5" fill="#aaffff" cx="576.0" cy="1675.0" r="1.0"/>
     <text stroke="none" x="576.0" y="1675.0" font-size="20.0" font-family="helvetica">P. adelaidensis EUM 2217 (FJ805427)</text>
    </g>
    <g>
     <circle stroke="black" stroke-width="0.5" fill="#aaffff" cx="580.0" cy="134.0" r="1.0"/>
     <text stroke="none" x="580.0" y="134.0" font-size="20.0" font-family="helvetica">79</text>
    </g>
    <g>
     <circle stroke="black" stroke-width="0.5" fill="#aaffff" cx="593.0" cy="1013.0" r="1.0"/>
     <text stroke="none" x="593.0" y="1013.0" font-size="20.0" font-family="helvetica">P. sulfidoxydans DSM 44248T (YO8537)</text>
    </g>
    <g>
     <circle stroke="black" stroke-width="0.5" fill="#aaffff" cx="595.0" cy="1533.0" r="1.0"/>
     <text stroke="none" x="595.0" y="1533.0" font-size="20.0" font-family="helvetica"/>
    </g>
    <g>
     <circle stroke="black" stroke-width="0.5" fill="#aaffff" cx="607.0" cy="944.0" r="1.0"/>
     <text stroke="none" x="607.0" y="944.0" font-size="10.0" font-family="helvetica">NT1.47</text>
    </g>
    <g>
     <circle stroke="black" stroke-width="0.5" fill="#aaffff" cx="618.0" cy="872.0" r="1.0"/>
     <text stroke="none" x="618.0" y="872.0" font-size="20.0" font-family="helvetica">P. tetrahydrofuranoxydans K1T (AJ249200)</text>
    </g>
    <g>
     <circle stroke="black" stroke-width="0.5" fill="#aaffff" cx="621.0" cy="348.0" r="1.0"/>
     <text stroke="none" x="621.0" y="348.0" font-size="20.0" font-family="helvetica">70</text>
    </g>
    <g>
     <circle stroke="black" stroke-width="0.5" fill="#aaffff" cx="626.0" cy="966.0" r="1.0"/>
     <text stroke="none" x="626.0" y="966.0" font-size="20.0" font-family="helvetica">P. benzenivorans B5T (AJ556156)</text>
    </g>
    <g>
     <circle stroke="black" stroke-width="0.5" fill="#aaffff" cx="636.0" cy="825.0" r="1.0"/>
     <text stroke="none" x="636.0" y="825.0" font-size="20.0" font-family="helvetica">P. halophobica IMSNU 213277 (AJ252827)</text>
    </g>
    <g>
     <circle stroke="black" stroke-width="0.5" fill="#aaffff" cx="652.0" cy="919.0" r="1.0"/>
     <text stroke="none" x="652.0" y="919.0" font-size="20.0" font-family="helvetica">P. dioxanivorans CB1 1907 (AY840622)</text>
    </g>
    <g>
     <circle stroke="black" stroke-width="0.5" fill="#aaffff" cx="663.0" cy="730.0" r="1.0"/>
     <text stroke="none" x="663.0" y="730.0" font-size="20.0" font-family="helvetica">P. oroxyli D1 OT (DQ343154)</text>
    </g>
    <g>
     <circle stroke="black" stroke-width="0.5" fill="#aaffff" cx="671.0" cy="392.0" r="1.0"/>
     <text stroke="none" x="671.0" y="392.0" font-size="20.0" font-family="helvetica">70</text>
    </g>
    <g>
     <circle stroke="black" stroke-width="0.5" fill="#aaffff" cx="676.0" cy="1817.0" r="1.0"/>
     <text stroke="none" x="676.0" y="1817.0" font-size="20.0" font-family="helvetica">P. thermophila NRRL B-1978T (AJ252830)</text>
    </g>
    <g>
     <circle stroke="black" stroke-width="0.5" fill="#aaffff" cx="680.0" cy="81.0" r="1.0"/>
     <text stroke="none" x="680.0" y="81.0" font-size="20.0" font-family="helvetica">99</text>
    </g>
    <g>
     <circle stroke="black" stroke-width="0.5" fill="#aaffff" cx="691.0" cy="45.0" r="1.0"/>
     <text stroke="none" x="691.0" y="45.0" font-size="20.0" font-family="helvetica">99</text>
    </g>
    <g>
     <circle stroke="black" stroke-width="0.5" fill="#aaffff" cx="691.0" cy="185.0" r="1.0"/>
     <text stroke="none" x="691.0" y="185.0" font-size="10.0" font-family="helvetica">NT1.58</text>
    </g>
    <g>
     <circle stroke="black" stroke-width="0.5" fill="#aaffff" cx="705.0" cy="68.0" r="1.0"/>
     <text stroke="none" x="705.0" y="68.0" font-size="20.0" font-family="helvetica">P. alni IMSNU 2oo49T (AJ252823)</text>
    </g>
    <g>
     <circle stroke="black" stroke-width="0.5" fill="#aaffff" cx="724.0" cy="21.0" r="1.0"/>
     <text stroke="none" x="724.0" y="21.0" font-size="20.0" font-family="helvetica">P. carboxydivorans Y8T (EF114314)</text>
    </g>
    <g>
     <circle stroke="black" stroke-width="0.5" fill="#aaffff" cx="727.0" cy="1202.0" r="1.0"/>
     <text stroke="none" x="727.0" y="1202.0" font-size="20.0" font-family="helvetica">P. artemisiae YIM 63587T (GU227146)</text>
    </g>
    <g>
     <circle stroke="black" stroke-width="0.5" fill="#aaffff" cx="731.0" cy="777.0" r="1.0"/>
     <text stroke="none" x="731.0" y="777.0" font-size="20.0" font-family="helvetica"/>
    </g>
    <g>
     <circle stroke="black" stroke-width="0.5" fill="#aaffff" cx="732.0" cy="115.0" r="1.0"/>
     <text stroke="none" x="732.0" y="115.0" font-size="20.0" font-family="helvetica">P. antarctica DVS 5a1T(AJ576010)</text>
    </g>
    <g>
     <circle stroke="black" stroke-width="0.5" fill="#aaffff" cx="750.0" cy="1155.0" r="1.0"/>
     <text stroke="none" x="750.0" y="1155.0" font-size="20.0" font-family="helvetica">P. babensis VNO5A0561T (AB514449)</text>
    </g>
    <g>
     <circle stroke="black" stroke-width="0.5" fill="#aaffff" cx="767.0" cy="433.0" r="1.0"/>
     <text stroke="none" x="767.0" y="433.0" font-size="20.0" font-family="helvetica">80</text>
    </g>
    <g>
     <circle stroke="black" stroke-width="0.5" fill="#aaffff" cx="787.0" cy="257.0" r="1.0"/>
     <text stroke="none" x="787.0" y="257.0" font-size="20.0" font-family="helvetica">P. parietis 04-St-002T (FM863703)</text>
    </g>
    <g>
     <circle stroke="black" stroke-width="0.5" fill="#aaffff" cx="802.0" cy="683.0" r="1.0"/>
     <text stroke="none" x="802.0" y="683.0" font-size="20.0" font-family="helvetica">P. eucalypti EUM 374T (EJ805426)</text>
    </g>
    <g>
     <circle stroke="black" stroke-width="0.5" fill="#aaffff" cx="842.0" cy="210.0" r="1.0"/>
     <text stroke="none" x="842.0" y="210.0" font-size="20.0" font-family="helvetica">P. nitrificans IFAM 379T (X55609)</text>
    </g>
    <g>
     <circle stroke="black" stroke-width="0.5" fill="#aaffff" cx="856.0" cy="588.0" r="1.0"/>
     <text stroke="none" x="856.0" y="588.0" font-size="20.0" font-family="helvetica">P. spinosa JCM 3136T (AB547126)</text>
    </g>
    <g>
     <circle stroke="black" stroke-width="0.5" fill="#aaffff" cx="871.0" cy="1344.0" r="1.0"/>
     <text stroke="none" x="871.0" y="1344.0" font-size="20.0" font-family="helvetica">P. aurantiaca CCTCC AA 970O2T (AF056707)</text>
    </g>
    <g>
     <circle stroke="black" stroke-width="0.5" fill="#aaffff" cx="881.0" cy="1108.0" r="1.0"/>
     <text stroke="none" x="881.0" y="1108.0" font-size="20.0" font-family="helvetica">P. asaccharolytica DSM 442477 (YO8536)</text>
    </g>
    <g>
     <circle stroke="black" stroke-width="0.5" fill="#aaffff" cx="889.0" cy="469.0" r="1.0"/>
     <text stroke="none" x="889.0" y="469.0" font-size="10.0" font-family="helvetica">NT1.72</text>
    </g>
    <g>
     <circle stroke="black" stroke-width="0.5" fill="#aaffff" cx="897.0" cy="304.0" r="1.0"/>
     <text stroke="none" x="897.0" y="304.0" font-size="20.0" font-family="helvetica">P. endophytica YIM 56035T (DQ887489)</text>
    </g>
    <g>
     <circle stroke="black" stroke-width="0.5" fill="#aaffff" cx="900.0" cy="399.0" r="1.0"/>
     <text stroke="none" x="900.0" y="399.0" font-size="20.0" font-family="helvetica">P. kongjuensis LM 1577 (AJ252833)</text>
    </g>
    <g>
     <circle stroke="black" stroke-width="0.5" fill="#aaffff" cx="908.0" cy="494.0" r="1.0"/>
     <text stroke="none" x="908.0" y="494.0" font-size="20.0" font-family="helvetica">P. autotrophica IMSNU 20O50T (AJ252824)</text>
    </g>
    <g>
     <circle stroke="black" stroke-width="0.5" fill="#aaffff" cx="922.0" cy="541.0" r="1.0"/>
     <text stroke="none" x="922.0" y="541.0" font-size="20.0" font-family="helvetica">P. spinosispora LM 141T (AJ249206)</text>
    </g>
    <g>
     <circle stroke="black" stroke-width="0.5" fill="#aaffff" cx="951.0" cy="351.0" r="1.0"/>
     <text stroke="none" x="951.0" y="351.0" font-size="20.0" font-family="helvetica">P. ammonioxydans CGMCC 4.18'7(IZTY5O0143)</text>
    </g>
    <g>
     <circle stroke="black" stroke-width="0.5" fill="#aaffff" cx="962.0" cy="446.0" r="1.0"/>
     <text stroke="none" x="962.0" y="446.0" font-size="20.0" font-family="helvetica">P. compacta IMSNU 2O111T(AJ252825)</text>
    </g>
    <g>
     <circle stroke="black" stroke-width="0.5" fill="#aaffff" cx="971.0" cy="635.0" r="1.0"/>
     <text stroke="none" x="971.0" y="635.0" font-size="20.0" font-family="helvetica">P. acaciae GMKUO95T(EU921261)</text>
    </g>
    <g>
     <circle stroke="black" stroke-width="0.5" fill="#aaffff" cx="1035.0" cy="1392.0" r="1.0"/>
     <text stroke="none" x="1035.0" y="1392.0" font-size="20.0" font-family="helvetica">P. xinjiangensis CCTCC AA 97O20T</text>
    </g>
    <g>
     <circle stroke="black" stroke-width="0.5" fill="#aaffff" cx="1056.0" cy="162.0" r="1.0"/>
     <text stroke="none" x="1056.0" y="162.0" font-size="20.0" font-family="helvetica">P. tropica YIM 61452T (GQ906587)</text>
    </g>
    <g>
     <circle stroke="black" stroke-width="0.5" fill="#aaffff" cx="1056.0" cy="1959.0" r="1.0"/>
     <text stroke="none" x="1056.0" y="1959.0" font-size="20.0" font-family="helvetica">Kutzneria kofuensis NRRL B-240617</text>
    </g>
    <line stroke="black" x1="652.0" y1="919.0" x2="607.0" y2="944.0" stroke-width="0.5"/>
    <line stroke="black" x1="512.0" y1="1297.0" x2="168.0" y2="1371.0" stroke-width="0.5"/>
    <line stroke="black" x1="448.0" y1="1439.0" x2="409.0" y2="1464.0" stroke-width="0.5"/>
    <line stroke="black" x1="463.0" y1="1486.0" x2="409.0" y2="1464.0" stroke-width="0.5"/>
    <line stroke="black" x1="537.0" y1="1912.0" x2="477.0" y2="1887.0" stroke-width="0.5"/>
    <line stroke="black" x1="676.0" y1="1817.0" x2="275.0" y2="1852.0" stroke-width="0.5"/>
    <line stroke="black" x1="691.0" y1="45.0" x2="680.0" y2="81.0" stroke-width="0.5"/>
    <line stroke="black" x1="680.0" y1="81.0" x2="580.0" y2="134.0" stroke-width="0.5"/>
    <line stroke="black" x1="580.0" y1="134.0" x2="530.0" y2="196.0" stroke-width="0.5"/>
    <line stroke="black" x1="580.0" y1="134.0" x2="691.0" y2="185.0" stroke-width="0.5"/>
    <line stroke="black" x1="530.0" y1="196.0" x2="497.0" y2="272.0" stroke-width="0.5"/>
    <line stroke="black" x1="497.0" y1="272.0" x2="291.0" y2="442.0" stroke-width="0.5"/>
    <line stroke="black" x1="497.0" y1="272.0" x2="621.0" y2="348.0" stroke-width="0.5"/>
    <line stroke="black" x1="621.0" y1="348.0" x2="671.0" y2="392.0" stroke-width="0.5"/>
    <line stroke="black" x1="671.0" y1="392.0" x2="767.0" y2="433.0" stroke-width="0.5"/>
    <line stroke="black" x1="291.0" y1="442.0" x2="228.0" y2="652.0" stroke-width="0.5"/>
    <line stroke="black" x1="291.0" y1="442.0" x2="413.0" y2="611.0" stroke-width="0.5"/>
    <line stroke="black" x1="767.0" y1="433.0" x2="889.0" y2="469.0" stroke-width="0.5"/>
    <line stroke="black" x1="228.0" y1="652.0" x2="192.0" y2="915.0" stroke-width="0.5"/>
    <line stroke="black" x1="228.0" y1="652.0" x2="282.0" y2="859.0" stroke-width="0.5"/>
    <line stroke="black" x1="413.0" y1="611.0" x2="495.0" y2="658.0" stroke-width="0.5"/>
    <line stroke="black" x1="413.0" y1="611.0" x2="521.0" y2="566.0" stroke-width="0.5"/>
    <line stroke="black" x1="282.0" y1="859.0" x2="465.0" y2="930.0" stroke-width="0.5"/>
    <line stroke="black" x1="282.0" y1="859.0" x2="389.0" y2="790.0" stroke-width="0.5"/>
    <line stroke="black" x1="192.0" y1="915.0" x2="154.0" y2="1144.0" stroke-width="0.5"/>
    <line stroke="black" x1="192.0" y1="915.0" x2="250.0" y2="1178.0" stroke-width="0.5"/>
    <line stroke="black" x1="389.0" y1="790.0" x2="472.0" y2="755.0" stroke-width="0.5"/>
    <line stroke="black" x1="465.0" y1="930.0" x2="487.0" y2="989.0" stroke-width="0.5"/>
    <line stroke="black" x1="154.0" y1="1144.0" x2="119.0" y2="1457.0" stroke-width="0.5"/>
    <line stroke="black" x1="154.0" y1="1144.0" x2="168.0" y2="1371.0" stroke-width="0.5"/>
    <line stroke="black" x1="487.0" y1="989.0" x2="527.0" y2="1036.0" stroke-width="0.5"/>
    <line stroke="black" x1="487.0" y1="989.0" x2="607.0" y2="944.0" stroke-width="0.5"/>
    <line stroke="black" x1="250.0" y1="1178.0" x2="262.0" y2="1225.0" stroke-width="0.5"/>
    <line stroke="black" x1="250.0" y1="1178.0" x2="355.0" y2="1133.0" stroke-width="0.5"/>
    <line stroke="black" x1="168.0" y1="1371.0" x2="214.0" y2="1446.0" stroke-width="0.5"/>
    <line stroke="black" x1="119.0" y1="1457.0" x2="84.0" y2="1655.0" stroke-width="0.5"/>
    <line stroke="black" x1="214.0" y1="1446.0" x2="240.0" y2="1527.0" stroke-width="0.5"/>
    <line stroke="black" x1="214.0" y1="1446.0" x2="560.0" y2="1369.0" stroke-width="0.5"/>
    <line stroke="black" x1="240.0" y1="1527.0" x2="292.0" y2="1591.0" stroke-width="0.5"/>
    <line stroke="black" x1="240.0" y1="1527.0" x2="409.0" y2="1464.0" stroke-width="0.5"/>
    <line stroke="black" x1="292.0" y1="1591.0" x2="387.0" y2="1651.0" stroke-width="0.5"/>
    <line stroke="black" x1="84.0" y1="1655.0" x2="275.0" y2="1852.0" stroke-width="0.5"/>
    <line stroke="black" x1="387.0" y1="1651.0" x2="424.0" y2="1698.0" stroke-width="0.5"/>
    <line stroke="black" x1="387.0" y1="1651.0" x2="468.0" y2="1605.0" stroke-width="0.5"/>
    <line stroke="black" x1="275.0" y1="1852.0" x2="477.0" y2="1887.0" stroke-width="0.5"/>
    <line stroke="black" x1="480.0" y1="1770.0" x2="119.0" y2="1457.0" stroke-width="0.5"/>
    <line stroke="black" x1="1056.0" y1="1959.0" x2="84.0" y2="1655.0" stroke-width="0.5"/>
    <line stroke="black" x1="573.0" y1="1250.0" x2="262.0" y2="1225.0" stroke-width="0.5"/>
    <line stroke="black" x1="595.0" y1="1533.0" x2="292.0" y2="1591.0" stroke-width="0.5"/>
    <line stroke="black" x1="727.0" y1="1202.0" x2="262.0" y2="1225.0" stroke-width="0.5"/>
    <line stroke="black" x1="529.0" y1="1723.0" x2="424.0" y2="1698.0" stroke-width="0.5"/>
    <line stroke="black" x1="636.0" y1="825.0" x2="389.0" y2="790.0" stroke-width="0.5"/>
    <line stroke="black" x1="478.0" y1="1581.0" x2="468.0" y2="1605.0" stroke-width="0.5"/>
    <line stroke="black" x1="576.0" y1="1675.0" x2="424.0" y2="1698.0" stroke-width="0.5"/>
    <line stroke="black" x1="493.0" y1="1628.0" x2="468.0" y2="1605.0" stroke-width="0.5"/>
    <line stroke="black" x1="750.0" y1="1155.0" x2="355.0" y2="1133.0" stroke-width="0.5"/>
    <line stroke="black" x1="526.0" y1="1864.0" x2="477.0" y2="1887.0" stroke-width="0.5"/>
    <line stroke="black" x1="618.0" y1="872.0" x2="465.0" y2="930.0" stroke-width="0.5"/>
    <line stroke="black" x1="881.0" y1="1108.0" x2="355.0" y2="1133.0" stroke-width="0.5"/>
    <line stroke="black" x1="663.0" y1="730.0" x2="472.0" y2="755.0" stroke-width="0.5"/>
    <line stroke="black" x1="568.0" y1="1061.0" x2="527.0" y2="1036.0" stroke-width="0.5"/>
    <line stroke="black" x1="593.0" y1="1013.0" x2="527.0" y2="1036.0" stroke-width="0.5"/>
    <line stroke="black" x1="731.0" y1="777.0" x2="472.0" y2="755.0" stroke-width="0.5"/>
    <line stroke="black" x1="802.0" y1="683.0" x2="495.0" y2="658.0" stroke-width="0.5"/>
    <line stroke="black" x1="626.0" y1="966.0" x2="607.0" y2="944.0" stroke-width="0.5"/>
    <line stroke="black" x1="787.0" y1="257.0" x2="530.0" y2="196.0" stroke-width="0.5"/>
    <line stroke="black" x1="856.0" y1="588.0" x2="521.0" y2="566.0" stroke-width="0.5"/>
    <line stroke="black" x1="971.0" y1="635.0" x2="495.0" y2="658.0" stroke-width="0.5"/>
    <line stroke="black" x1="922.0" y1="541.0" x2="521.0" y2="566.0" stroke-width="0.5"/>
    <line stroke="black" x1="871.0" y1="1344.0" x2="560.0" y2="1369.0" stroke-width="0.5"/>
    <line stroke="black" x1="705.0" y1="68.0" x2="691.0" y2="45.0" stroke-width="0.5"/>
    <line stroke="black" x1="732.0" y1="115.0" x2="680.0" y2="81.0" stroke-width="0.5"/>
    <line stroke="black" x1="724.0" y1="21.0" x2="691.0" y2="45.0" stroke-width="0.5"/>
    <line stroke="black" x1="897.0" y1="304.0" x2="621.0" y2="348.0" stroke-width="0.5"/>
    <line stroke="black" x1="1035.0" y1="1392.0" x2="560.0" y2="1369.0" stroke-width="0.5"/>
    <line stroke="black" x1="842.0" y1="210.0" x2="691.0" y2="185.0" stroke-width="0.5"/>
    <line stroke="black" x1="951.0" y1="351.0" x2="671.0" y2="392.0" stroke-width="0.5"/>
    <line stroke="black" x1="900.0" y1="399.0" x2="767.0" y2="433.0" stroke-width="0.5"/>
    <line stroke="black" x1="1056.0" y1="162.0" x2="691.0" y2="185.0" stroke-width="0.5"/>
    <line stroke="black" x1="908.0" y1="494.0" x2="889.0" y2="469.0" stroke-width="0.5"/>
    <line stroke="black" x1="962.0" y1="446.0" x2="889.0" y2="469.0" stroke-width="0.5"/>
   </g>
  </g>
 </svg>
</svg>
