<?xml version="1.0" encoding="UTF-8"?>
<svg height="800.0" width="700.0" xmlns="http://www.w3.org/2000/svg">
 <svg>
  <g>
   <g>
    <g>
     <circle stroke="black" stroke-width="0.5" fill="#aaffff" cx="15.0" cy="782.0" r="1.0"/>
     <text stroke="none" x="15.0" y="782.0" font-size="10.0" font-family="helvetica">NT1.1</text>
    </g>
    <g>
     <circle stroke="black" stroke-width="0.5" fill="#aaffff" cx="25.0" cy="1102.0" r="1.0"/>
     <text stroke="none" x="25.0" y="1102.0" font-size="10.0" font-family="helvetica">NT1.2</text>
    </g>
    <g>
     <circle stroke="black" stroke-width="0.5" fill="#aaffff" cx="30.0" cy="619.0" r="1.0"/>
     <text stroke="none" x="30.0" y="619.0" font-size="10.0" font-family="helvetica">NT1.3</text>
    </g>
    <g>
     <circle stroke="black" stroke-width="0.5" fill="#aaffff" cx="39.0" cy="455.0" r="1.0"/>
     <text stroke="none" x="39.0" y="455.0" font-size="10.0" font-family="helvetica">NT1.4</text>
    </g>
    <g>
     <circle stroke="black" stroke-width="0.5" fill="#aaffff" cx="42.0" cy="340.0" r="1.0"/>
     <text stroke="none" x="42.0" y="340.0" font-size="10.0" font-family="helvetica">NT1.5</text>
    </g>
    <g>
     <circle stroke="black" stroke-width="0.5" fill="#aaffff" cx="49.0" cy="236.0" r="1.0"/>
     <text stroke="none" x="49.0" y="236.0" font-size="10.0" font-family="helvetica">NT1.6</text>
    </g>
    <g>
     <circle stroke="black" stroke-width="0.5" fill="#aaffff" cx="52.0" cy="571.0" r="1.0"/>
     <text stroke="none" x="52.0" y="571.0" font-size="10.0" font-family="helvetica">NT1.7</text>
    </g>
    <g>
     <circle stroke="black" stroke-width="0.5" fill="#aaffff" cx="54.0" cy="1132.0" r="1.0"/>
     <text stroke="none" x="54.0" y="1132.0" font-size="20.0" font-family="helvetica">58</text>
    </g>
    <g>
     <circle stroke="black" stroke-width="0.5" fill="#aaffff" cx="57.0" cy="781.0" r="1.0"/>
     <text stroke="none" x="57.0" y="781.0" font-size="10.0" font-family="helvetica">NT1.9</text>
    </g>
    <g>
     <circle stroke="black" stroke-width="0.5" fill="#aaffff" cx="59.0" cy="944.0" r="1.0"/>
     <text stroke="none" x="59.0" y="944.0" font-size="20.0" font-family="helvetica">63</text>
    </g>
    <g>
     <circle stroke="black" stroke-width="0.5" fill="#aaffff" cx="62.0" cy="292.0" r="1.0"/>
     <text stroke="none" x="62.0" y="292.0" font-size="10.0" font-family="helvetica">NT1.11</text>
    </g>
    <g>
     <circle stroke="black" stroke-width="0.5" fill="#aaffff" cx="69.0" cy="178.0" r="1.0"/>
     <text stroke="none" x="69.0" y="178.0" font-size="10.0" font-family="helvetica">NT1.12</text>
    </g>
    <g>
     <circle stroke="black" stroke-width="0.5" fill="#aaffff" cx="76.0" cy="980.0" r="1.0"/>
     <text stroke="none" x="76.0" y="980.0" font-size="10.0" font-family="helvetica">NT1.13</text>
    </g>
    <g>
     <circle stroke="black" stroke-width="0.5" fill="#aaffff" cx="87.0" cy="329.0" r="1.0"/>
     <text stroke="none" x="87.0" y="329.0" font-size="10.0" font-family="helvetica">NT1.14</text>
    </g>
    <g>
     <circle stroke="black" stroke-width="0.5" fill="#aaffff" cx="93.0" cy="139.0" r="1.0"/>
     <text stroke="none" x="93.0" y="139.0" font-size="20.0" font-family="helvetica">53</text>
    </g>
    <g>
     <circle stroke="black" stroke-width="0.5" fill="#aaffff" cx="95.0" cy="522.0" r="1.0"/>
     <text stroke="none" x="95.0" y="522.0" font-size="20.0" font-family="helvetica">82 </text>
    </g>
    <g>
     <circle stroke="black" stroke-width="0.5" fill="#aaffff" cx="102.0" cy="817.0" r="1.0"/>
     <text stroke="none" x="102.0" y="817.0" font-size="20.0" font-family="helvetica">86</text>
    </g>
    <g>
     <circle stroke="black" stroke-width="0.5" fill="#aaffff" cx="105.0" cy="619.0" r="1.0"/>
     <text stroke="none" x="105.0" y="619.0" font-size="20.0" font-family="helvetica">96</text>
    </g>
    <g>
     <circle stroke="black" stroke-width="0.5" fill="#aaffff" cx="109.0" cy="654.0" r="1.0"/>
     <text stroke="none" x="109.0" y="654.0" font-size="20.0" font-family="helvetica">96</text>
    </g>
    <g>
     <circle stroke="black" stroke-width="0.5" fill="#aaffff" cx="112.0" cy="1010.0" r="1.0"/>
     <text stroke="none" x="112.0" y="1010.0" font-size="20.0" font-family="helvetica">92</text>
    </g>
    <g>
     <circle stroke="black" stroke-width="0.5" fill="#aaffff" cx="114.0" cy="685.0" r="1.0"/>
     <text stroke="none" x="114.0" y="685.0" font-size="10.0" font-family="helvetica">NT1.21</text>
    </g>
    <g>
     <circle stroke="black" stroke-width="0.5" fill="#aaffff" cx="122.0" cy="359.0" r="1.0"/>
     <text stroke="none" x="122.0" y="359.0" font-size="20.0" font-family="helvetica">91</text>
    </g>
    <g>
     <circle stroke="black" stroke-width="0.5" fill="#aaffff" cx="124.0" cy="100.0" r="1.0"/>
     <text stroke="none" x="124.0" y="100.0" font-size="20.0" font-family="helvetica">96</text>
    </g>
    <g>
     <circle stroke="black" stroke-width="0.5" fill="#aaffff" cx="124.0" cy="440.0" r="1.0"/>
     <text stroke="none" x="124.0" y="440.0" font-size="20.0" font-family="helvetica">99</text>
    </g>
    <g>
     <circle stroke="black" stroke-width="0.5" fill="#aaffff" cx="129.0" cy="65.0" r="1.0"/>
     <text stroke="none" x="129.0" y="65.0" font-size="20.0" font-family="helvetica">96</text>
    </g>
    <g>
     <circle stroke="black" stroke-width="0.5" fill="#aaffff" cx="131.0" cy="847.0" r="1.0"/>
     <text stroke="none" x="131.0" y="847.0" font-size="20.0" font-family="helvetica">77</text>
    </g>
    <g>
     <circle stroke="black" stroke-width="0.5" fill="#aaffff" cx="146.0" cy="1153.0" r="1.0"/>
     <text stroke="none" x="146.0" y="1153.0" font-size="20.0" font-family="helvetica"> Thalassobacter stenotrophicus CECT 5294T (AJ631302)</text>
    </g>
    <g>
     <circle stroke="black" stroke-width="0.5" fill="#aaffff" cx="158.0" cy="34.0" r="1.0"/>
     <text stroke="none" x="158.0" y="34.0" font-size="10.0" font-family="helvetica">NT1.28</text>
    </g>
    <g>
     <circle stroke="black" stroke-width="0.5" fill="#aaffff" cx="164.0" cy="420.0" r="1.0"/>
     <text stroke="none" x="164.0" y="420.0" font-size="20.0" font-family="helvetica"> Ruegeria atlantica IAM 14463T (D88526)</text>
    </g>
    <g>
     <circle stroke="black" stroke-width="0.5" fill="#aaffff" cx="168.0" cy="54.0" r="1.0"/>
     <text stroke="none" x="168.0" y="54.0" font-size="20.0" font-family="helvetica"> Phaeobacter inhibens T5T (AY177712)</text>
    </g>
    <g>
     <circle stroke="black" stroke-width="0.5" fill="#aaffff" cx="171.0" cy="339.0" r="1.0"/>
     <text stroke="none" x="171.0" y="339.0" font-size="20.0" font-family="helvetica"> Thalassobius gelatinovorus IAM 12617T (D88523)</text>
    </g>
    <g>
     <circle stroke="black" stroke-width="0.5" fill="#aaffff" cx="177.0" cy="176.0" r="1.0"/>
     <text stroke="none" x="177.0" y="176.0" font-size="20.0" font-family="helvetica">Marinovum algicola FF3T (X78315)</text>
    </g>
    <g>
     <circle stroke="black" stroke-width="0.5" fill="#aaffff" cx="180.0" cy="461.0" r="1.0"/>
     <text stroke="none" x="180.0" y="461.0" font-size="10.0" font-family="helvetica">NT1.33</text>
    </g>
    <g>
     <circle stroke="black" stroke-width="0.5" fill="#aaffff" cx="182.0" cy="583.0" r="1.0"/>
     <text stroke="none" x="182.0" y="583.0" font-size="20.0" font-family="helvetica"> Sulfitobacter pontiacus ChLG 10T (Y13155)</text>
    </g>
    <g>
     <circle stroke="black" stroke-width="0.5" fill="#aaffff" cx="182.0" cy="624.0" r="1.0"/>
     <text stroke="none" x="182.0" y="624.0" font-size="10.0" font-family="helvetica">NT1.35</text>
    </g>
    <g>
     <circle stroke="black" stroke-width="0.5" fill="#aaffff" cx="183.0" cy="217.0" r="1.0"/>
     <text stroke="none" x="183.0" y="217.0" font-size="10.0" font-family="helvetica">NT1.36</text>
    </g>
    <g>
     <circle stroke="black" stroke-width="0.5" fill="#aaffff" cx="185.0" cy="13.0" r="1.0"/>
     <text stroke="none" x="185.0" y="13.0" font-size="10.0" font-family="helvetica">NT1.37</text>
    </g>
    <g>
     <circle stroke="black" stroke-width="0.5" fill="#aaffff" cx="187.0" cy="1112.0" r="1.0"/>
     <text stroke="none" x="187.0" y="1112.0" font-size="20.0" font-family="helvetica"> Jannaschia helgolandensis Hel 10T (AJ438157)</text>
    </g>
    <g>
     <circle stroke="black" stroke-width="0.5" fill="#aaffff" cx="188.0" cy="136.0" r="1.0"/>
     <text stroke="none" x="188.0" y="136.0" font-size="20.0" font-family="helvetica">Leisingera methylohalidivorans MB2T (AY005463)</text>
    </g>
    <g>
     <circle stroke="black" stroke-width="0.5" fill="#aaffff" cx="192.0" cy="257.0" r="1.0"/>
     <text stroke="none" x="192.0" y="257.0" font-size="20.0" font-family="helvetica"> Shimia marina CL-TAOST (AY962292)</text>
    </g>
    <g>
     <circle stroke="black" stroke-width="0.5" fill="#aaffff" cx="197.0" cy="664.0" r="1.0"/>
     <text stroke="none" x="197.0" y="664.0" font-size="20.0" font-family="helvetica"> Oceanibulbus indolifex Hel-45T (AJ550939)</text>
    </g>
    <g>
     <circle stroke="black" stroke-width="0.5" fill="#aaffff" cx="199.0" cy="705.0" r="1.0"/>
     <text stroke="none" x="199.0" y="705.0" font-size="10.0" font-family="helvetica">NT1.42</text>
    </g>
    <g>
     <circle stroke="black" stroke-width="0.5" fill="#aaffff" cx="204.0" cy="990.0" r="1.0"/>
     <text stroke="none" x="204.0" y="990.0" font-size="20.0" font-family="helvetica"> Oceanicola granulosus HTCC2516T (AY424896)</text>
    </g>
    <g>
     <circle stroke="black" stroke-width="0.5" fill="#aaffff" cx="205.0" cy="380.0" r="1.0"/>
     <text stroke="none" x="205.0" y="380.0" font-size="20.0" font-family="helvetica"> Thalassobius mediterraneus XSM19T (AJ878874)</text>
    </g>
    <g>
     <circle stroke="black" stroke-width="0.5" fill="#aaffff" cx="207.0" cy="95.0" r="1.0"/>
     <text stroke="none" x="207.0" y="95.0" font-size="20.0" font-family="helvetica"> Phaeobacter daeponensis TF-218T (DQ981486)</text>
    </g>
    <g>
     <circle stroke="black" stroke-width="0.5" fill="#aaffff" cx="223.0" cy="746.0" r="1.0"/>
     <text stroke="none" x="223.0" y="746.0" font-size="10.0" font-family="helvetica">NT1.46</text>
    </g>
    <g>
     <circle stroke="black" stroke-width="0.5" fill="#aaffff" cx="223.0" cy="949.0" r="1.0"/>
     <text stroke="none" x="223.0" y="949.0" font-size="20.0" font-family="helvetica">Ketogulonicigenium vulgare 62A-12A (AF136848)</text>
    </g>
    <g>
     <circle stroke="black" stroke-width="0.5" fill="#aaffff" cx="223.0" cy="1031.0" r="1.0"/>
     <text stroke="none" x="223.0" y="1031.0" font-size="20.0" font-family="helvetica">Roseisalinus antarcticus EL-88T (AJ605747)</text>
    </g>
    <g>
     <circle stroke="black" stroke-width="0.5" fill="#aaffff" cx="231.0" cy="298.0" r="1.0"/>
     <text stroke="none" x="231.0" y="298.0" font-size="20.0" font-family="helvetica"> Octadecabacter arcticus 238T (U73725)</text>
    </g>
    <g>
     <circle stroke="black" stroke-width="0.5" fill="#aaffff" cx="235.0" cy="787.0" r="1.0"/>
     <text stroke="none" x="235.0" y="787.0" font-size="20.0" font-family="helvetica"> Salipiger mucosus A3T (AY527274)</text>
    </g>
    <g>
     <circle stroke="black" stroke-width="0.5" fill="#aaffff" cx="236.0" cy="827.0" r="1.0"/>
     <text stroke="none" x="236.0" y="827.0" font-size="20.0" font-family="helvetica">Citreimonas salinaria CL-SPZOT (AY962295)</text>
    </g>
    <g>
     <circle stroke="black" stroke-width="0.5" fill="#aaffff" cx="236.0" cy="909.0" r="1.0"/>
     <text stroke="none" x="236.0" y="909.0" font-size="20.0" font-family="helvetica">Loktanella salsilacus LMG 215O7T (AJ440997)</text>
    </g>
    <g>
     <circle stroke="black" stroke-width="0.5" fill="#aaffff" cx="240.0" cy="543.0" r="1.0"/>
     <text stroke="none" x="240.0" y="543.0" font-size="20.0" font-family="helvetica"> Sagittula stellata E-377 (U58356)</text>
    </g>
    <g>
     <circle stroke="black" stroke-width="0.5" fill="#aaffff" cx="247.0" cy="502.0" r="1.0"/>
     <text stroke="none" x="247.0" y="502.0" font-size="10.0" font-family="helvetica">NT1.54</text>
    </g>
    <g>
     <circle stroke="black" stroke-width="0.5" fill="#aaffff" cx="265.0" cy="1071.0" r="1.0"/>
     <text stroke="none" x="265.0" y="1071.0" font-size="20.0" font-family="helvetica">Maribius salinus CL-SP27T (AY906863)</text>
    </g>
    <g>
     <circle stroke="black" stroke-width="0.5" fill="#aaffff" cx="296.0" cy="868.0" r="1.0"/>
     <text stroke="none" x="296.0" y="868.0" font-size="20.0" font-family="helvetica">Roseivivax halodurans Och 239T (D85829)</text>
    </g>
    <g>
     <circle stroke="black" stroke-width="0.5" fill="#aaffff" cx="4.0" cy="942.0" r="1.0"/>
     <text stroke="none" x="4.0" y="942.0" font-size="20.0" font-family="helvetica">63</text>
    </g>
    <line stroke="black" x1="168.0" y1="54.0" x2="158.0" y2="34.0" stroke-width="0.5"/>
    <line stroke="black" x1="207.0" y1="95.0" x2="129.0" y2="65.0" stroke-width="0.5"/>
    <line stroke="black" x1="188.0" y1="136.0" x2="124.0" y2="100.0" stroke-width="0.5"/>
    <line stroke="black" x1="177.0" y1="176.0" x2="93.0" y2="139.0" stroke-width="0.5"/>
    <line stroke="black" x1="192.0" y1="257.0" x2="62.0" y2="292.0" stroke-width="0.5"/>
    <line stroke="black" x1="171.0" y1="339.0" x2="122.0" y2="359.0" stroke-width="0.5"/>
    <line stroke="black" x1="205.0" y1="380.0" x2="122.0" y2="359.0" stroke-width="0.5"/>
    <line stroke="black" x1="231.0" y1="298.0" x2="87.0" y2="329.0" stroke-width="0.5"/>
    <line stroke="black" x1="164.0" y1="420.0" x2="124.0" y2="440.0" stroke-width="0.5"/>
    <line stroke="black" x1="182.0" y1="583.0" x2="105.0" y2="619.0" stroke-width="0.5"/>
    <line stroke="black" x1="240.0" y1="543.0" x2="95.0" y2="522.0" stroke-width="0.5"/>
    <line stroke="black" x1="197.0" y1="664.0" x2="114.0" y2="685.0" stroke-width="0.5"/>
    <line stroke="black" x1="235.0" y1="787.0" x2="102.0" y2="817.0" stroke-width="0.5"/>
    <line stroke="black" x1="236.0" y1="827.0" x2="131.0" y2="847.0" stroke-width="0.5"/>
    <line stroke="black" x1="296.0" y1="868.0" x2="131.0" y2="847.0" stroke-width="0.5"/>
    <line stroke="black" x1="236.0" y1="909.0" x2="59.0" y2="944.0" stroke-width="0.5"/>
    <line stroke="black" x1="204.0" y1="990.0" x2="112.0" y2="1010.0" stroke-width="0.5"/>
    <line stroke="black" x1="223.0" y1="949.0" x2="76.0" y2="980.0" stroke-width="0.5"/>
    <line stroke="black" x1="223.0" y1="1031.0" x2="112.0" y2="1010.0" stroke-width="0.5"/>
    <line stroke="black" x1="146.0" y1="1153.0" x2="54.0" y2="1132.0" stroke-width="0.5"/>
    <line stroke="black" x1="187.0" y1="1112.0" x2="54.0" y2="1132.0" stroke-width="0.5"/>
    <line stroke="black" x1="265.0" y1="1071.0" x2="25.0" y2="1102.0" stroke-width="0.5"/>
    <line stroke="black" x1="129.0" y1="65.0" x2="124.0" y2="100.0" stroke-width="0.5"/>
    <line stroke="black" x1="124.0" y1="100.0" x2="93.0" y2="139.0" stroke-width="0.5"/>
    <line stroke="black" x1="93.0" y1="139.0" x2="69.0" y2="178.0" stroke-width="0.5"/>
    <line stroke="black" x1="49.0" y1="236.0" x2="42.0" y2="340.0" stroke-width="0.5"/>
    <line stroke="black" x1="49.0" y1="236.0" x2="62.0" y2="292.0" stroke-width="0.5"/>
    <line stroke="black" x1="62.0" y1="292.0" x2="87.0" y2="329.0" stroke-width="0.5"/>
    <line stroke="black" x1="42.0" y1="340.0" x2="39.0" y2="455.0" stroke-width="0.5"/>
    <line stroke="black" x1="87.0" y1="329.0" x2="122.0" y2="359.0" stroke-width="0.5"/>
    <line stroke="black" x1="39.0" y1="455.0" x2="30.0" y2="619.0" stroke-width="0.5"/>
    <line stroke="black" x1="39.0" y1="455.0" x2="52.0" y2="571.0" stroke-width="0.5"/>
    <line stroke="black" x1="52.0" y1="571.0" x2="105.0" y2="619.0" stroke-width="0.5"/>
    <line stroke="black" x1="30.0" y1="619.0" x2="15.0" y2="782.0" stroke-width="0.5"/>
    <line stroke="black" x1="15.0" y1="782.0" x2="59.0" y2="944.0" stroke-width="0.5"/>
    <line stroke="black" x1="57.0" y1="781.0" x2="102.0" y2="817.0" stroke-width="0.5"/>
    <line stroke="black" x1="102.0" y1="817.0" x2="131.0" y2="847.0" stroke-width="0.5"/>
    <line stroke="black" x1="59.0" y1="944.0" x2="76.0" y2="980.0" stroke-width="0.5"/>
    <line stroke="black" x1="76.0" y1="980.0" x2="112.0" y2="1010.0" stroke-width="0.5"/>
    <line stroke="black" x1="25.0" y1="1102.0" x2="54.0" y2="1132.0" stroke-width="0.5"/>
    <line stroke="black" x1="4.0" y1="942.0" x2="15.0" y2="782.0" stroke-width="0.5"/>
    <line stroke="black" x1="4.0" y1="942.0" x2="25.0" y2="1102.0" stroke-width="0.5"/>
   </g>
  </g>
 </svg>
</svg>
