<?xml version="1.0" encoding="UTF-8"?>
<svg height="800.0" width="700.0" xmlns="http://www.w3.org/2000/svg">
 <svg>
  <g>
   <g>
    <g>
     <circle stroke="black" stroke-width="0.5" fill="#aaffff" cx="1.0" cy="137.0" r="1.0"/>
     <text stroke="none" x="1.0" y="137.0" font-size="20.0" font-family="helvetica"/>
    </g>
    <g>
     <circle stroke="black" stroke-width="0.5" fill="#aaffff" cx="3.0" cy="137.0" r="1.0"/>
     <text stroke="none" x="3.0" y="137.0" font-size="10.0" font-family="helvetica">NT1.2</text>
    </g>
    <g>
     <circle stroke="black" stroke-width="0.5" fill="#aaffff" cx="80.0" cy="330.0" r="1.0"/>
     <text stroke="none" x="80.0" y="330.0" font-size="10.0" font-family="helvetica">NT1.3</text>
    </g>
    <g>
     <circle stroke="black" stroke-width="0.5" fill="#aaffff" cx="130.0" cy="41.0" r="1.0"/>
     <text stroke="none" x="130.0" y="41.0" font-size="20.0" font-family="helvetica">100</text>
    </g>
    <g>
     <circle stroke="black" stroke-width="0.5" fill="#aaffff" cx="173.0" cy="542.0" r="1.0"/>
     <text stroke="none" x="173.0" y="542.0" font-size="10.0" font-family="helvetica">NT1.5</text>
    </g>
    <g>
     <circle stroke="black" stroke-width="0.5" fill="#aaffff" cx="179.0" cy="21.0" r="1.0"/>
     <text stroke="none" x="179.0" y="21.0" font-size="20.0" font-family="helvetica">Helicobacter fennelliae COUG 188207 (M88154)</text>
    </g>
    <g>
     <circle stroke="black" stroke-width="0.5" fill="#aaffff" cx="185.0" cy="764.0" r="1.0"/>
     <text stroke="none" x="185.0" y="764.0" font-size="10.0" font-family="helvetica">NT1.7</text>
    </g>
    <g>
     <circle stroke="black" stroke-width="0.5" fill="#aaffff" cx="188.0" cy="57.0" r="1.0"/>
     <text stroke="none" x="188.0" y="57.0" font-size="20.0" font-family="helvetica">Helicobacter cinaedi ccue 183137 (AF348748)</text>
    </g>
    <g>
     <circle stroke="black" stroke-width="0.5" fill="#aaffff" cx="195.0" cy="324.0" r="1.0"/>
     <text stroke="none" x="195.0" y="324.0" font-size="10.0" font-family="helvetica">NT1.9</text>
    </g>
    <g>
     <circle stroke="black" stroke-width="0.5" fill="#aaffff" cx="196.0" cy="687.0" r="1.0"/>
     <text stroke="none" x="196.0" y="687.0" font-size="10.0" font-family="helvetica">NT1.10</text>
    </g>
    <g>
     <circle stroke="black" stroke-width="0.5" fill="#aaffff" cx="215.0" cy="444.0" r="1.0"/>
     <text stroke="none" x="215.0" y="444.0" font-size="10.0" font-family="helvetica">NT1.11</text>
    </g>
    <g>
     <circle stroke="black" stroke-width="0.5" fill="#aaffff" cx="215.0" cy="740.0" r="1.0"/>
     <text stroke="none" x="215.0" y="740.0" font-size="10.0" font-family="helvetica">NT1.12</text>
    </g>
    <g>
     <circle stroke="black" stroke-width="0.5" fill="#aaffff" cx="217.0" cy="120.0" r="1.0"/>
     <text stroke="none" x="217.0" y="120.0" font-size="10.0" font-family="helvetica">NT1.13</text>
    </g>
    <g>
     <circle stroke="black" stroke-width="0.5" fill="#aaffff" cx="227.0" cy="694.0" r="1.0"/>
     <text stroke="none" x="227.0" y="694.0" font-size="10.0" font-family="helvetica">NT1.14</text>
    </g>
    <g>
     <circle stroke="black" stroke-width="0.5" fill="#aaffff" cx="239.0" cy="845.0" r="1.0"/>
     <text stroke="none" x="239.0" y="845.0" font-size="20.0" font-family="helvetica">Campylobacter concisus ATCC 332377 (LO4322)</text>
    </g>
    <g>
     <circle stroke="black" stroke-width="0.5" fill="#aaffff" cx="240.0" cy="538.0" r="1.0"/>
     <text stroke="none" x="240.0" y="538.0" font-size="10.0" font-family="helvetica">NT1.16</text>
    </g>
    <g>
     <circle stroke="black" stroke-width="0.5" fill="#aaffff" cx="241.0" cy="789.0" r="1.0"/>
     <text stroke="none" x="241.0" y="789.0" font-size="10.0" font-family="helvetica">NT1.17</text>
    </g>
    <g>
     <circle stroke="black" stroke-width="0.5" fill="#aaffff" cx="242.0" cy="629.0" r="1.0"/>
     <text stroke="none" x="242.0" y="629.0" font-size="10.0" font-family="helvetica">NT1.18</text>
    </g>
    <g>
     <circle stroke="black" stroke-width="0.5" fill="#aaffff" cx="250.0" cy="718.0" r="1.0"/>
     <text stroke="none" x="250.0" y="718.0" font-size="10.0" font-family="helvetica">NT1.19</text>
    </g>
    <g>
     <circle stroke="black" stroke-width="0.5" fill="#aaffff" cx="252.0" cy="505.0" r="1.0"/>
     <text stroke="none" x="252.0" y="505.0" font-size="10.0" font-family="helvetica">NT1.20</text>
    </g>
    <g>
     <circle stroke="black" stroke-width="0.5" fill="#aaffff" cx="254.0" cy="352.0" r="1.0"/>
     <text stroke="none" x="254.0" y="352.0" font-size="10.0" font-family="helvetica">NT1.21</text>
    </g>
    <g>
     <circle stroke="black" stroke-width="0.5" fill="#aaffff" cx="262.0" cy="144.0" r="1.0"/>
     <text stroke="none" x="262.0" y="144.0" font-size="10.0" font-family="helvetica">NT1.22</text>
    </g>
    <g>
     <circle stroke="black" stroke-width="0.5" fill="#aaffff" cx="264.0" cy="199.0" r="1.0"/>
     <text stroke="none" x="264.0" y="199.0" font-size="20.0" font-family="helvetica">Campylobacter mucosalis CCUG 68227 (L06978)</text>
    </g>
    <g>
     <circle stroke="black" stroke-width="0.5" fill="#aaffff" cx="266.0" cy="574.0" r="1.0"/>
     <text stroke="none" x="266.0" y="574.0" font-size="20.0" font-family="helvetica">100</text>
    </g>
    <g>
     <circle stroke="black" stroke-width="0.5" fill="#aaffff" cx="267.0" cy="556.0" r="1.0"/>
     <text stroke="none" x="267.0" y="556.0" font-size="10.0" font-family="helvetica">NT1.25</text>
    </g>
    <g>
     <circle stroke="black" stroke-width="0.5" fill="#aaffff" cx="270.0" cy="270.0" r="1.0"/>
     <text stroke="none" x="270.0" y="270.0" font-size="10.0" font-family="helvetica">NT1.26</text>
    </g>
    <g>
     <circle stroke="black" stroke-width="0.5" fill="#aaffff" cx="272.0" cy="594.0" r="1.0"/>
     <text stroke="none" x="272.0" y="594.0" font-size="10.0" font-family="helvetica">NT1.27</text>
    </g>
    <g>
     <circle stroke="black" stroke-width="0.5" fill="#aaffff" cx="274.0" cy="522.0" r="1.0"/>
     <text stroke="none" x="274.0" y="522.0" font-size="10.0" font-family="helvetica">NT1.28</text>
    </g>
    <g>
     <circle stroke="black" stroke-width="0.5" fill="#aaffff" cx="279.0" cy="738.0" r="1.0"/>
     <text stroke="none" x="279.0" y="738.0" font-size="10.0" font-family="helvetica">NT1.29</text>
    </g>
    <g>
     <circle stroke="black" stroke-width="0.5" fill="#aaffff" cx="289.0" cy="486.0" r="1.0"/>
     <text stroke="none" x="289.0" y="486.0" font-size="20.0" font-family="helvetica">Campylobacter lanienae NCTC 130047 (AFO43425)</text>
    </g>
    <g>
     <circle stroke="black" stroke-width="0.5" fill="#aaffff" cx="300.0" cy="701.0" r="1.0"/>
     <text stroke="none" x="300.0" y="701.0" font-size="20.0" font-family="helvetica">Campylobacter shovvae CCUG 302547 (LO6974)</text>
    </g>
    <g>
     <circle stroke="black" stroke-width="0.5" fill="#aaffff" cx="307.0" cy="301.0" r="1.0"/>
     <text stroke="none" x="307.0" y="301.0" font-size="10.0" font-family="helvetica">NT1.32</text>
    </g>
    <g>
     <circle stroke="black" stroke-width="0.5" fill="#aaffff" cx="308.0" cy="127.0" r="1.0"/>
     <text stroke="none" x="308.0" y="127.0" font-size="10.0" font-family="helvetica">NT1.33</text>
    </g>
    <g>
     <circle stroke="black" stroke-width="0.5" fill="#aaffff" cx="309.0" cy="235.0" r="1.0"/>
     <text stroke="none" x="309.0" y="235.0" font-size="10.0" font-family="helvetica">NT1.34</text>
    </g>
    <g>
     <circle stroke="black" stroke-width="0.5" fill="#aaffff" cx="310.0" cy="164.0" r="1.0"/>
     <text stroke="none" x="310.0" y="164.0" font-size="20.0" font-family="helvetica">Arcobacter butzleri ccue 103737 (L14626)</text>
    </g>
    <g>
     <circle stroke="black" stroke-width="0.5" fill="#aaffff" cx="315.0" cy="665.0" r="1.0"/>
     <text stroke="none" x="315.0" y="665.0" font-size="10.0" font-family="helvetica">NT1.36</text>
    </g>
    <g>
     <circle stroke="black" stroke-width="0.5" fill="#aaffff" cx="316.0" cy="431.0" r="1.0"/>
     <text stroke="none" x="316.0" y="431.0" font-size="20.0" font-family="helvetica">100</text>
    </g>
    <g>
     <circle stroke="black" stroke-width="0.5" fill="#aaffff" cx="316.0" cy="332.0" r="1.0"/>
     <text stroke="none" x="316.0" y="332.0" font-size="10.0" font-family="helvetica">NT1.38</text>
    </g>
    <g>
     <circle stroke="black" stroke-width="0.5" fill="#aaffff" cx="330.0" cy="359.0" r="1.0"/>
     <text stroke="none" x="330.0" y="359.0" font-size="20.0" font-family="helvetica">100</text>
    </g>
    <g>
     <circle stroke="black" stroke-width="0.5" fill="#aaffff" cx="331.0" cy="342.0" r="1.0"/>
     <text stroke="none" x="331.0" y="342.0" font-size="10.0" font-family="helvetica">NT1.40</text>
    </g>
    <g>
     <circle stroke="black" stroke-width="0.5" fill="#aaffff" cx="332.0" cy="380.0" r="1.0"/>
     <text stroke="none" x="332.0" y="380.0" font-size="10.0" font-family="helvetica">NT1.41</text>
    </g>
    <g>
     <circle stroke="black" stroke-width="0.5" fill="#aaffff" cx="335.0" cy="92.0" r="1.0"/>
     <text stroke="none" x="335.0" y="92.0" font-size="10.0" font-family="helvetica">NT1.42</text>
    </g>
    <g>
     <circle stroke="black" stroke-width="0.5" fill="#aaffff" cx="336.0" cy="809.0" r="1.0"/>
     <text stroke="none" x="336.0" y="809.0" font-size="10.0" font-family="helvetica">NT1.43</text>
    </g>
    <g>
     <circle stroke="black" stroke-width="0.5" fill="#aaffff" cx="337.0" cy="307.0" r="1.0"/>
     <text stroke="none" x="337.0" y="307.0" font-size="20.0" font-family="helvetica">Campylobacter insulaenigrae NCTC 129277 (AJ620504)</text>
    </g>
    <g>
     <circle stroke="black" stroke-width="0.5" fill="#aaffff" cx="341.0" cy="271.0" r="1.0"/>
     <text stroke="none" x="341.0" y="271.0" font-size="20.0" font-family="helvetica">Campylobacter lari ccue 239477 (L04316)</text>
    </g>
    <g>
     <circle stroke="black" stroke-width="0.5" fill="#aaffff" cx="349.0" cy="451.0" r="1.0"/>
     <text stroke="none" x="349.0" y="451.0" font-size="10.0" font-family="helvetica">NT1.46</text>
    </g>
    <g>
     <circle stroke="black" stroke-width="0.5" fill="#aaffff" cx="359.0" cy="773.0" r="1.0"/>
     <text stroke="none" x="359.0" y="773.0" font-size="10.0" font-family="helvetica">NT1.47</text>
    </g>
    <g>
     <circle stroke="black" stroke-width="0.5" fill="#aaffff" cx="360.0" cy="414.0" r="1.0"/>
     <text stroke="none" x="360.0" y="414.0" font-size="10.0" font-family="helvetica">NT1.48</text>
    </g>
    <line stroke="black" x1="3.0" y1="137.0" x2="1.0" y2="137.0" stroke-width="0.5"/>
    <line stroke="black" x1="130.0" y1="41.0" x2="3.0" y2="137.0" stroke-width="0.5"/>
    <line stroke="black" x1="3.0" y1="137.0" x2="80.0" y2="330.0" stroke-width="0.5"/>
    <line stroke="black" x1="80.0" y1="330.0" x2="173.0" y2="542.0" stroke-width="0.5"/>
    <line stroke="black" x1="173.0" y1="542.0" x2="185.0" y2="764.0" stroke-width="0.5"/>
    <line stroke="black" x1="173.0" y1="542.0" x2="195.0" y2="324.0" stroke-width="0.5"/>
    <line stroke="black" x1="195.0" y1="324.0" x2="215.0" y2="444.0" stroke-width="0.5"/>
    <line stroke="black" x1="270.0" y1="270.0" x2="307.0" y2="301.0" stroke-width="0.5"/>
    <line stroke="black" x1="188.0" y1="57.0" x2="130.0" y2="41.0" stroke-width="0.5"/>
    <line stroke="black" x1="179.0" y1="21.0" x2="130.0" y2="41.0" stroke-width="0.5"/>
    <line stroke="black" x1="239.0" y1="845.0" x2="185.0" y2="764.0" stroke-width="0.5"/>
    <line stroke="black" x1="264.0" y1="199.0" x2="195.0" y2="324.0" stroke-width="0.5"/>
    <line stroke="black" x1="289.0" y1="486.0" x2="252.0" y2="505.0" stroke-width="0.5"/>
    <line stroke="black" x1="300.0" y1="701.0" x2="250.0" y2="718.0" stroke-width="0.5"/>
    <line stroke="black" x1="310.0" y1="164.0" x2="262.0" y2="144.0" stroke-width="0.5"/>
    <line stroke="black" x1="341.0" y1="271.0" x2="307.0" y2="301.0" stroke-width="0.5"/>
    <line stroke="black" x1="337.0" y1="307.0" x2="316.0" y2="332.0" stroke-width="0.5"/>
   </g>
  </g>
 </svg>
</svg>
