<?xml version="1.0" encoding="UTF-8"?>
<svg height="800.0" width="700.0" xmlns="http://www.w3.org/2000/svg">
 <svg>
  <g>
   <g>
    <g>
     <circle stroke="black" stroke-width="0.5" fill="#aaffff" cx="112.0" cy="865.0" r="1.0"/>
     <text stroke="none" x="112.0" y="865.0" font-size="20.0" font-family="helvetica">Bacillus methanolicus C1 (X64465)</text>
    </g>
    <g>
     <circle stroke="black" stroke-width="0.5" fill="#aaffff" cx="112.0" cy="620.0" r="1.0"/>
     <text stroke="none" x="112.0" y="620.0" font-size="10.0" font-family="helvetica">NT1.2</text>
    </g>
    <g>
     <circle stroke="black" stroke-width="0.5" fill="#aaffff" cx="137.0" cy="450.0" r="1.0"/>
     <text stroke="none" x="137.0" y="450.0" font-size="10.0" font-family="helvetica">NT1.3</text>
    </g>
    <g>
     <circle stroke="black" stroke-width="0.5" fill="#aaffff" cx="163.0" cy="128.0" r="1.0"/>
     <text stroke="none" x="163.0" y="128.0" font-size="10.0" font-family="helvetica">NT1.4</text>
    </g>
    <g>
     <circle stroke="black" stroke-width="0.5" fill="#aaffff" cx="179.0" cy="318.0" r="1.0"/>
     <text stroke="none" x="179.0" y="318.0" font-size="10.0" font-family="helvetica">NT1.5</text>
    </g>
    <g>
     <circle stroke="black" stroke-width="0.5" fill="#aaffff" cx="200.0" cy="507.0" r="1.0"/>
     <text stroke="none" x="200.0" y="507.0" font-size="10.0" font-family="helvetica">NT1.6</text>
    </g>
    <g>
     <circle stroke="black" stroke-width="0.5" fill="#aaffff" cx="235.0" cy="247.0" r="1.0"/>
     <text stroke="none" x="235.0" y="247.0" font-size="10.0" font-family="helvetica">NT1.7</text>
    </g>
    <g>
     <circle stroke="black" stroke-width="0.5" fill="#aaffff" cx="242.0" cy="73.0" r="1.0"/>
     <text stroke="none" x="242.0" y="73.0" font-size="10.0" font-family="helvetica">NT1.8</text>
    </g>
    <g>
     <circle stroke="black" stroke-width="0.5" fill="#aaffff" cx="247.0" cy="112.0" r="1.0"/>
     <text stroke="none" x="247.0" y="112.0" font-size="10.0" font-family="helvetica">NT1.9</text>
    </g>
    <g>
     <circle stroke="black" stroke-width="0.5" fill="#aaffff" cx="249.0" cy="95.0" r="1.0"/>
     <text stroke="none" x="249.0" y="95.0" font-size="20.0" font-family="helvetica"/>
    </g>
    <g>
     <circle stroke="black" stroke-width="0.5" fill="#aaffff" cx="250.0" cy="97.0" r="1.0"/>
     <text stroke="none" x="250.0" y="97.0" font-size="10.0" font-family="helvetica">NT1.11</text>
    </g>
    <g>
     <circle stroke="black" stroke-width="0.5" fill="#aaffff" cx="252.0" cy="442.0" r="1.0"/>
     <text stroke="none" x="252.0" y="442.0" font-size="10.0" font-family="helvetica">NT1.12</text>
    </g>
    <g>
     <circle stroke="black" stroke-width="0.5" fill="#aaffff" cx="252.0" cy="637.0" r="1.0"/>
     <text stroke="none" x="252.0" y="637.0" font-size="10.0" font-family="helvetica">NT1.13</text>
    </g>
    <g>
     <circle stroke="black" stroke-width="0.5" fill="#aaffff" cx="264.0" cy="129.0" r="1.0"/>
     <text stroke="none" x="264.0" y="129.0" font-size="10.0" font-family="helvetica">NT1.14</text>
    </g>
    <g>
     <circle stroke="black" stroke-width="0.5" fill="#aaffff" cx="264.0" cy="278.0" r="1.0"/>
     <text stroke="none" x="264.0" y="278.0" font-size="10.0" font-family="helvetica">NT1.15</text>
    </g>
    <g>
     <circle stroke="black" stroke-width="0.5" fill="#aaffff" cx="275.0" cy="254.0" r="1.0"/>
     <text stroke="none" x="275.0" y="254.0" font-size="10.0" font-family="helvetica">NT1.16</text>
    </g>
    <g>
     <circle stroke="black" stroke-width="0.5" fill="#aaffff" cx="278.0" cy="259.0" r="1.0"/>
     <text stroke="none" x="278.0" y="259.0" font-size="10.0" font-family="helvetica">NT1.17</text>
    </g>
    <g>
     <circle stroke="black" stroke-width="0.5" fill="#aaffff" cx="281.0" cy="620.0" r="1.0"/>
     <text stroke="none" x="281.0" y="620.0" font-size="10.0" font-family="helvetica">NT1.18</text>
    </g>
    <g>
     <circle stroke="black" stroke-width="0.5" fill="#aaffff" cx="291.0" cy="372.0" r="1.0"/>
     <text stroke="none" x="291.0" y="372.0" font-size="10.0" font-family="helvetica">NT1.19</text>
    </g>
    <g>
     <circle stroke="black" stroke-width="0.5" fill="#aaffff" cx="309.0" cy="667.0" r="1.0"/>
     <text stroke="none" x="309.0" y="667.0" font-size="10.0" font-family="helvetica">NT1.20</text>
    </g>
    <g>
     <circle stroke="black" stroke-width="0.5" fill="#aaffff" cx="311.0" cy="654.0" r="1.0"/>
     <text stroke="none" x="311.0" y="654.0" font-size="20.0" font-family="helvetica">Desulffiobacferfum dehalogenans DSM 9161I (L2894B)</text>
    </g>
    <g>
     <circle stroke="black" stroke-width="0.5" fill="#aaffff" cx="312.0" cy="656.0" r="1.0"/>
     <text stroke="none" x="312.0" y="656.0" font-size="10.0" font-family="helvetica">NT1.22</text>
    </g>
    <g>
     <circle stroke="black" stroke-width="0.5" fill="#aaffff" cx="313.0" cy="403.0" r="1.0"/>
     <text stroke="none" x="313.0" y="403.0" font-size="10.0" font-family="helvetica">NT1.23</text>
    </g>
    <g>
     <circle stroke="black" stroke-width="0.5" fill="#aaffff" cx="321.0" cy="508.0" r="1.0"/>
     <text stroke="none" x="321.0" y="508.0" font-size="20.0" font-family="helvetica">100</text>
    </g>
    <g>
     <circle stroke="black" stroke-width="0.5" fill="#aaffff" cx="331.0" cy="50.0" r="1.0"/>
     <text stroke="none" x="331.0" y="50.0" font-size="20.0" font-family="helvetica">Desulfutornaculum putel SMCC W459I (AFO53929)</text>
    </g>
    <g>
     <circle stroke="black" stroke-width="0.5" fill="#aaffff" cx="331.0" cy="609.0" r="1.0"/>
     <text stroke="none" x="331.0" y="609.0" font-size="20.0" font-family="helvetica">Desulfospumsinus oriantis DSM 765' (Y1 1570)</text>
    </g>
    <g>
     <circle stroke="black" stroke-width="0.5" fill="#aaffff" cx="332.0" cy="694.0" r="1.0"/>
     <text stroke="none" x="332.0" y="694.0" font-size="10.0" font-family="helvetica">NT1.27</text>
    </g>
    <g>
     <circle stroke="black" stroke-width="0.5" fill="#aaffff" cx="334.0" cy="120.0" r="1.0"/>
     <text stroke="none" x="334.0" y="120.0" font-size="20.0" font-family="helvetica">Desulfotomaculum aeronaulfcum DSM 10349I (X98407)</text>
    </g>
    <g>
     <circle stroke="black" stroke-width="0.5" fill="#aaffff" cx="337.0" cy="73.0" r="1.0"/>
     <text stroke="none" x="337.0" y="73.0" font-size="20.0" font-family="helvetica">Desulfotomaculum niguffcans NCIMB 8395T (X62176)</text>
    </g>
    <g>
     <circle stroke="black" stroke-width="0.5" fill="#aaffff" cx="337.0" cy="97.0" r="1.0"/>
     <text stroke="none" x="337.0" y="97.0" font-size="20.0" font-family="helvetica">Dssulfotomaculum rummls DSM 2154I (Y1 1572)</text>
    </g>
    <g>
     <circle stroke="black" stroke-width="0.5" fill="#aaffff" cx="337.0" cy="166.0" r="1.0"/>
     <text stroke="none" x="337.0" y="166.0" font-size="20.0" font-family="helvetica">Deswiotornaculum alkaliphilum DSM 122577 (AFO97024)</text>
    </g>
    <g>
     <circle stroke="black" stroke-width="0.5" fill="#aaffff" cx="337.0" cy="213.0" r="1.0"/>
     <text stroke="none" x="337.0" y="213.0" font-size="20.0" font-family="helvetica">Deswfoiomaculum gibsonfae DSM 72137 (AJ294431)</text>
    </g>
    <g>
     <circle stroke="black" stroke-width="0.5" fill="#aaffff" cx="338.0" cy="383.0" r="1.0"/>
     <text stroke="none" x="338.0" y="383.0" font-size="10.0" font-family="helvetica">NT1.33</text>
    </g>
    <g>
     <circle stroke="black" stroke-width="0.5" fill="#aaffff" cx="339.0" cy="438.0" r="1.0"/>
     <text stroke="none" x="339.0" y="438.0" font-size="10.0" font-family="helvetica">NT1.34</text>
    </g>
    <g>
     <circle stroke="black" stroke-width="0.5" fill="#aaffff" cx="341.0" cy="421.0" r="1.0"/>
     <text stroke="none" x="341.0" y="421.0" font-size="20.0" font-family="helvetica">Strain WW1 (AF442687)</text>
    </g>
    <g>
     <circle stroke="black" stroke-width="0.5" fill="#aaffff" cx="344.0" cy="189.0" r="1.0"/>
     <text stroke="none" x="344.0" y="189.0" font-size="20.0" font-family="helvetica">Desmfotomaculum halophilum SEBR 31 139T (U88891)</text>
    </g>
    <g>
     <circle stroke="black" stroke-width="0.5" fill="#aaffff" cx="344.0" cy="236.0" r="1.0"/>
     <text stroke="none" x="344.0" y="236.0" font-size="20.0" font-family="helvetica">Desulforomaculum sapomandens DSM 3223' (AF168365)</text>
    </g>
    <g>
     <circle stroke="black" stroke-width="0.5" fill="#aaffff" cx="344.0" cy="656.0" r="1.0"/>
     <text stroke="none" x="344.0" y="656.0" font-size="20.0" font-family="helvetica">Desulffiobacferfum dehalogenans DSM 9161I (L2894B)</text>
    </g>
    <g>
     <circle stroke="black" stroke-width="0.5" fill="#aaffff" cx="348.0" cy="632.0" r="1.0"/>
     <text stroke="none" x="348.0" y="632.0" font-size="20.0" font-family="helvetica">Desulfotomaculum aunpfgmentum ORex (UB5624)</text>
    </g>
    <g>
     <circle stroke="black" stroke-width="0.5" fill="#aaffff" cx="352.0" cy="455.0" r="1.0"/>
     <text stroke="none" x="352.0" y="455.0" font-size="10.0" font-family="helvetica">NT1.40</text>
    </g>
    <g>
     <circle stroke="black" stroke-width="0.5" fill="#aaffff" cx="353.0" cy="445.0" r="1.0"/>
     <text stroke="none" x="353.0" y="445.0" font-size="20.0" font-family="helvetica">Desulfotomaculum fhermocfsternum ST90' (U5355455)</text>
    </g>
    <g>
     <circle stroke="black" stroke-width="0.5" fill="#aaffff" cx="353.0" cy="713.0" r="1.0"/>
     <text stroke="none" x="353.0" y="713.0" font-size="20.0" font-family="helvetica">Desulfitobactenum hafmense DC-B-2' (X94975)</text>
    </g>
    <g>
     <circle stroke="black" stroke-width="0.5" fill="#aaffff" cx="356.0" cy="679.0" r="1.0"/>
     <text stroke="none" x="356.0" y="679.0" font-size="20.0" font-family="helvetica">DesuIfitobacten'um chlororespirans Co23I (U68528)</text>
    </g>
    <g>
     <circle stroke="black" stroke-width="0.5" fill="#aaffff" cx="358.0" cy="282.0" r="1.0"/>
     <text stroke="none" x="358.0" y="282.0" font-size="20.0" font-family="helvetica">Desullotomacmum thermosapovorans DSM 65627 (Y1 1575)</text>
    </g>
    <g>
     <circle stroke="black" stroke-width="0.5" fill="#aaffff" cx="363.0" cy="143.0" r="1.0"/>
     <text stroke="none" x="363.0" y="143.0" font-size="20.0" font-family="helvetica">Desulfotomaculum reducens' MI-1 (U95951)</text>
    </g>
    <g>
     <circle stroke="black" stroke-width="0.5" fill="#aaffff" cx="364.0" cy="364.0" r="1.0"/>
     <text stroke="none" x="364.0" y="364.0" font-size="10.0" font-family="helvetica">NT1.46</text>
    </g>
    <g>
     <circle stroke="black" stroke-width="0.5" fill="#aaffff" cx="366.0" cy="525.0" r="1.0"/>
     <text stroke="none" x="366.0" y="525.0" font-size="20.0" font-family="helvetica">100</text>
    </g>
    <g>
     <circle stroke="black" stroke-width="0.5" fill="#aaffff" cx="368.0" cy="330.0" r="1.0"/>
     <text stroke="none" x="368.0" y="330.0" font-size="20.0" font-family="helvetica">Strain V217 (AY084078)</text>
    </g>
    <g>
     <circle stroke="black" stroke-width="0.5" fill="#aaffff" cx="373.0" cy="516.0" r="1.0"/>
     <text stroke="none" x="373.0" y="516.0" font-size="20.0" font-family="helvetica">Desuliolomaculum thermobenzalcum subsp. thermasynlrophfcunl DSM 140557 (AY007190</text>
    </g>
    <g>
     <circle stroke="black" stroke-width="0.5" fill="#aaffff" cx="377.0" cy="27.0" r="1.0"/>
     <text stroke="none" x="377.0" y="27.0" font-size="20.0" font-family="helvetica">DesuIfoton7aculurn acetoxidans DSM 771'(Y11566)</text>
    </g>
    <g>
     <circle stroke="black" stroke-width="0.5" fill="#aaffff" cx="390.0" cy="785.0" r="1.0"/>
     <text stroke="none" x="390.0" y="785.0" font-size="10.0" font-family="helvetica">NT1.51</text>
    </g>
    <g>
     <circle stroke="black" stroke-width="0.5" fill="#aaffff" cx="391.0" cy="259.0" r="1.0"/>
     <text stroke="none" x="391.0" y="259.0" font-size="20.0" font-family="helvetica">Sporotomaculum hydioxybenzoicum DSM 5475I (Y14845I</text>
    </g>
    <g>
     <circle stroke="black" stroke-width="0.5" fill="#aaffff" cx="391.0" cy="492.0" r="1.0"/>
     <text stroke="none" x="391.0" y="492.0" font-size="20.0" font-family="helvetica">Desulfotomaculum theimobenzoicum subsp. Ihermobenzolcum DSM 6193T (Y1 1574)</text>
    </g>
    <g>
     <circle stroke="black" stroke-width="0.5" fill="#aaffff" cx="396.0" cy="538.0" r="1.0"/>
     <text stroke="none" x="396.0" y="538.0" font-size="20.0" font-family="helvetica">Desulfotomacumm thermoacetoxidans DSM 5813) (Y1 1573)</text>
    </g>
    <g>
     <circle stroke="black" stroke-width="0.5" fill="#aaffff" cx="398.0" cy="562.0" r="1.0"/>
     <text stroke="none" x="398.0" y="562.0" font-size="20.0" font-family="helvetica"/>
    </g>
    <g>
     <circle stroke="black" stroke-width="0.5" fill="#aaffff" cx="398.0" cy="572.0" r="1.0"/>
     <text stroke="none" x="398.0" y="572.0" font-size="10.0" font-family="helvetica">NT1.56</text>
    </g>
    <g>
     <circle stroke="black" stroke-width="0.5" fill="#aaffff" cx="408.0" cy="585.0" r="1.0"/>
     <text stroke="none" x="408.0" y="585.0" font-size="20.0" font-family="helvetica">MooreIIa thermoautotrophfca DSM 1974I (LO9168)</text>
    </g>
    <g>
     <circle stroke="black" stroke-width="0.5" fill="#aaffff" cx="408.0" cy="469.0" r="1.0"/>
     <text stroke="none" x="408.0" y="469.0" font-size="20.0" font-family="helvetica">Desulforomaculum ausrralicum AB33' (M96665)</text>
    </g>
    <g>
     <circle stroke="black" stroke-width="0.5" fill="#aaffff" cx="409.0" cy="306.0" r="1.0"/>
     <text stroke="none" x="409.0" y="306.0" font-size="20.0" font-family="helvetica">Deswfoiomaculum geothermicum DSM 3669' (Y1 1567)</text>
    </g>
    <g>
     <circle stroke="black" stroke-width="0.5" fill="#aaffff" cx="409.0" cy="353.0" r="1.0"/>
     <text stroke="none" x="409.0" y="353.0" font-size="20.0" font-family="helvetica">Desulfotomaculum kuznetsovu DSM 6115' (AF009646)</text>
    </g>
    <g>
     <circle stroke="black" stroke-width="0.5" fill="#aaffff" cx="410.0" cy="760.0" r="1.0"/>
     <text stroke="none" x="410.0" y="760.0" font-size="20.0" font-family="helvetica">100</text>
    </g>
    <g>
     <circle stroke="black" stroke-width="0.5" fill="#aaffff" cx="412.0" cy="805.0" r="1.0"/>
     <text stroke="none" x="412.0" y="805.0" font-size="20.0" font-family="helvetica">97</text>
    </g>
    <g>
     <circle stroke="black" stroke-width="0.5" fill="#aaffff" cx="418.0" cy="828.0" r="1.0"/>
     <text stroke="none" x="418.0" y="828.0" font-size="20.0" font-family="helvetica">97</text>
    </g>
    <g>
     <circle stroke="black" stroke-width="0.5" fill="#aaffff" cx="420.0" cy="771.0" r="1.0"/>
     <text stroke="none" x="420.0" y="771.0" font-size="20.0" font-family="helvetica">Cbstridium aeroiolerans DSM 5434' (X76163)</text>
    </g>
    <g>
     <circle stroke="black" stroke-width="0.5" fill="#aaffff" cx="420.0" cy="841.0" r="1.0"/>
     <text stroke="none" x="420.0" y="841.0" font-size="20.0" font-family="helvetica">Clostridium sphenoides DSM 632' (X73449)</text>
    </g>
    <g>
     <circle stroke="black" stroke-width="0.5" fill="#aaffff" cx="425.0" cy="795.0" r="1.0"/>
     <text stroke="none" x="425.0" y="795.0" font-size="20.0" font-family="helvetica">Clostridium ceIerecrescens DSM 5628' (X71848)</text>
    </g>
    <g>
     <circle stroke="black" stroke-width="0.5" fill="#aaffff" cx="425.0" cy="820.0" r="1.0"/>
     <text stroke="none" x="425.0" y="820.0" font-size="20.0" font-family="helvetica">Desulfotomacumm gutloideum DSM 4024' (Y11568)</text>
    </g>
    <g>
     <circle stroke="black" stroke-width="0.5" fill="#aaffff" cx="425.0" cy="749.0" r="1.0"/>
     <text stroke="none" x="425.0" y="749.0" font-size="20.0" font-family="helvetica">Clostridium xylanolyticum ATCC 49623' (X71855)</text>
    </g>
    <g>
     <circle stroke="black" stroke-width="0.5" fill="#aaffff" cx="433.0" cy="377.0" r="1.0"/>
     <text stroke="none" x="433.0" y="377.0" font-size="20.0" font-family="helvetica">Stram TPOSR (AF442686)</text>
    </g>
    <g>
     <circle stroke="black" stroke-width="0.5" fill="#aaffff" cx="441.0" cy="399.0" r="1.0"/>
     <text stroke="none" x="441.0" y="399.0" font-size="20.0" font-family="helvetica">Desulfotomaculurn luciae SLTI (AFO69293)</text>
    </g>
    <line stroke="black" x1="250.0" y1="97.0" x2="249.0" y2="95.0" stroke-width="0.5"/>
    <line stroke="black" x1="337.0" y1="73.0" x2="242.0" y2="73.0" stroke-width="0.5"/>
    <line stroke="black" x1="337.0" y1="97.0" x2="250.0" y2="97.0" stroke-width="0.5"/>
    <line stroke="black" x1="363.0" y1="143.0" x2="264.0" y2="129.0" stroke-width="0.5"/>
    <line stroke="black" x1="337.0" y1="166.0" x2="163.0" y2="128.0" stroke-width="0.5"/>
    <line stroke="black" x1="337.0" y1="213.0" x2="235.0" y2="247.0" stroke-width="0.5"/>
    <line stroke="black" x1="358.0" y1="282.0" x2="278.0" y2="259.0" stroke-width="0.5"/>
    <line stroke="black" x1="391.0" y1="259.0" x2="278.0" y2="259.0" stroke-width="0.5"/>
    <line stroke="black" x1="398.0" y1="562.0" x2="398.0" y2="572.0" stroke-width="0.5"/>
    <line stroke="black" x1="368.0" y1="330.0" x2="291.0" y2="372.0" stroke-width="0.5"/>
    <line stroke="black" x1="312.0" y1="656.0" x2="311.0" y2="654.0" stroke-width="0.5"/>
    <line stroke="black" x1="396.0" y1="538.0" x2="366.0" y2="525.0" stroke-width="0.5"/>
    <line stroke="black" x1="341.0" y1="421.0" x2="339.0" y2="438.0" stroke-width="0.5"/>
    <line stroke="black" x1="331.0" y1="609.0" x2="281.0" y2="620.0" stroke-width="0.5"/>
    <line stroke="black" x1="353.0" y1="445.0" x2="352.0" y2="455.0" stroke-width="0.5"/>
    <line stroke="black" x1="344.0" y1="656.0" x2="312.0" y2="656.0" stroke-width="0.5"/>
    <line stroke="black" x1="353.0" y1="713.0" x2="332.0" y2="694.0" stroke-width="0.5"/>
    <line stroke="black" x1="441.0" y1="399.0" x2="338.0" y2="383.0" stroke-width="0.5"/>
    <line stroke="black" x1="433.0" y1="377.0" x2="364.0" y2="364.0" stroke-width="0.5"/>
    <line stroke="black" x1="425.0" y1="795.0" x2="412.0" y2="805.0" stroke-width="0.5"/>
    <line stroke="black" x1="163.0" y1="128.0" x2="242.0" y2="73.0" stroke-width="0.5"/>
    <line stroke="black" x1="163.0" y1="128.0" x2="247.0" y2="112.0" stroke-width="0.5"/>
    <line stroke="black" x1="163.0" y1="128.0" x2="137.0" y2="450.0" stroke-width="0.5"/>
    <line stroke="black" x1="163.0" y1="128.0" x2="179.0" y2="318.0" stroke-width="0.5"/>
    <line stroke="black" x1="247.0" y1="112.0" x2="264.0" y2="129.0" stroke-width="0.5"/>
    <line stroke="black" x1="247.0" y1="112.0" x2="250.0" y2="97.0" stroke-width="0.5"/>
    <line stroke="black" x1="179.0" y1="318.0" x2="200.0" y2="507.0" stroke-width="0.5"/>
    <line stroke="black" x1="179.0" y1="318.0" x2="235.0" y2="247.0" stroke-width="0.5"/>
    <line stroke="black" x1="137.0" y1="450.0" x2="112.0" y2="620.0" stroke-width="0.5"/>
    <line stroke="black" x1="137.0" y1="450.0" x2="252.0" y2="637.0" stroke-width="0.5"/>
    <line stroke="black" x1="235.0" y1="247.0" x2="264.0" y2="278.0" stroke-width="0.5"/>
    <line stroke="black" x1="200.0" y1="507.0" x2="398.0" y2="572.0" stroke-width="0.5"/>
    <line stroke="black" x1="200.0" y1="507.0" x2="252.0" y2="442.0" stroke-width="0.5"/>
    <line stroke="black" x1="252.0" y1="442.0" x2="321.0" y2="508.0" stroke-width="0.5"/>
    <line stroke="black" x1="252.0" y1="442.0" x2="291.0" y2="372.0" stroke-width="0.5"/>
    <line stroke="black" x1="264.0" y1="278.0" x2="275.0" y2="254.0" stroke-width="0.5"/>
    <line stroke="black" x1="112.0" y1="620.0" x2="390.0" y2="785.0" stroke-width="0.5"/>
    <line stroke="black" x1="275.0" y1="254.0" x2="278.0" y2="259.0" stroke-width="0.5"/>
    <line stroke="black" x1="291.0" y1="372.0" x2="313.0" y2="403.0" stroke-width="0.5"/>
    <line stroke="black" x1="252.0" y1="637.0" x2="309.0" y2="667.0" stroke-width="0.5"/>
    <line stroke="black" x1="252.0" y1="637.0" x2="281.0" y2="620.0" stroke-width="0.5"/>
    <line stroke="black" x1="321.0" y1="508.0" x2="366.0" y2="525.0" stroke-width="0.5"/>
    <line stroke="black" x1="313.0" y1="403.0" x2="339.0" y2="438.0" stroke-width="0.5"/>
    <line stroke="black" x1="313.0" y1="403.0" x2="338.0" y2="383.0" stroke-width="0.5"/>
    <line stroke="black" x1="338.0" y1="383.0" x2="364.0" y2="364.0" stroke-width="0.5"/>
    <line stroke="black" x1="309.0" y1="667.0" x2="332.0" y2="694.0" stroke-width="0.5"/>
    <line stroke="black" x1="309.0" y1="667.0" x2="312.0" y2="656.0" stroke-width="0.5"/>
    <line stroke="black" x1="339.0" y1="438.0" x2="352.0" y2="455.0" stroke-width="0.5"/>
    <line stroke="black" x1="390.0" y1="785.0" x2="412.0" y2="805.0" stroke-width="0.5"/>
    <line stroke="black" x1="390.0" y1="785.0" x2="410.0" y2="760.0" stroke-width="0.5"/>
    <line stroke="black" x1="410.0" y1="760.0" x2="420.0" y2="771.0" stroke-width="0.5"/>
    <line stroke="black" x1="410.0" y1="760.0" x2="425.0" y2="749.0" stroke-width="0.5"/>
    <line stroke="black" x1="412.0" y1="805.0" x2="418.0" y2="828.0" stroke-width="0.5"/>
    <line stroke="black" x1="418.0" y1="828.0" x2="420.0" y2="841.0" stroke-width="0.5"/>
    <line stroke="black" x1="112.0" y1="865.0" x2="112.0" y2="620.0" stroke-width="0.5"/>
    <line stroke="black" x1="344.0" y1="189.0" x2="163.0" y2="128.0" stroke-width="0.5"/>
    <line stroke="black" x1="377.0" y1="27.0" x2="163.0" y2="128.0" stroke-width="0.5"/>
    <line stroke="black" x1="331.0" y1="50.0" x2="242.0" y2="73.0" stroke-width="0.5"/>
    <line stroke="black" x1="334.0" y1="120.0" x2="264.0" y2="129.0" stroke-width="0.5"/>
    <line stroke="black" x1="344.0" y1="236.0" x2="275.0" y2="254.0" stroke-width="0.5"/>
    <line stroke="black" x1="409.0" y1="306.0" x2="264.0" y2="278.0" stroke-width="0.5"/>
    <line stroke="black" x1="348.0" y1="632.0" x2="281.0" y2="620.0" stroke-width="0.5"/>
    <line stroke="black" x1="356.0" y1="679.0" x2="332.0" y2="694.0" stroke-width="0.5"/>
    <line stroke="black" x1="391.0" y1="492.0" x2="321.0" y2="508.0" stroke-width="0.5"/>
    <line stroke="black" x1="373.0" y1="516.0" x2="366.0" y2="525.0" stroke-width="0.5"/>
    <line stroke="black" x1="408.0" y1="469.0" x2="352.0" y2="455.0" stroke-width="0.5"/>
    <line stroke="black" x1="409.0" y1="353.0" x2="364.0" y2="364.0" stroke-width="0.5"/>
    <line stroke="black" x1="408.0" y1="585.0" x2="398.0" y2="572.0" stroke-width="0.5"/>
    <line stroke="black" x1="425.0" y1="820.0" x2="418.0" y2="828.0" stroke-width="0.5"/>
   </g>
  </g>
 </svg>
</svg>
