<?xml version="1.0" encoding="UTF-8"?>
<svg height="800.0" width="700.0" xmlns="http://www.w3.org/2000/svg">
 <svg>
  <g>
   <g>
    <g>
     <circle stroke="black" stroke-width="0.5" fill="#aaffff" cx="6.0" cy="308.0" r="1.0"/>
     <text stroke="none" x="6.0" y="308.0" font-size="20.0" font-family="helvetica"/>
    </g>
    <g>
     <circle stroke="black" stroke-width="0.5" fill="#aaffff" cx="11.0" cy="317.0" r="1.0"/>
     <text stroke="none" x="11.0" y="317.0" font-size="10.0" font-family="helvetica">NT1.2</text>
    </g>
    <g>
     <circle stroke="black" stroke-width="0.5" fill="#aaffff" cx="11.0" cy="308.0" r="1.0"/>
     <text stroke="none" x="11.0" y="308.0" font-size="10.0" font-family="helvetica">NT1.3</text>
    </g>
    <g>
     <circle stroke="black" stroke-width="0.5" fill="#aaffff" cx="15.0" cy="309.0" r="1.0"/>
     <text stroke="none" x="15.0" y="309.0" font-size="10.0" font-family="helvetica">NT1.4</text>
    </g>
    <g>
     <circle stroke="black" stroke-width="0.5" fill="#aaffff" cx="79.0" cy="219.0" r="1.0"/>
     <text stroke="none" x="79.0" y="219.0" font-size="10.0" font-family="helvetica">NT1.5</text>
    </g>
    <g>
     <circle stroke="black" stroke-width="0.5" fill="#aaffff" cx="115.0" cy="275.0" r="1.0"/>
     <text stroke="none" x="115.0" y="275.0" font-size="10.0" font-family="helvetica">NT1.6</text>
    </g>
    <g>
     <circle stroke="black" stroke-width="0.5" fill="#aaffff" cx="119.0" cy="276.0" r="1.0"/>
     <text stroke="none" x="119.0" y="276.0" font-size="10.0" font-family="helvetica">NT1.7</text>
    </g>
    <g>
     <circle stroke="black" stroke-width="0.5" fill="#aaffff" cx="129.0" cy="158.0" r="1.0"/>
     <text stroke="none" x="129.0" y="158.0" font-size="10.0" font-family="helvetica">NT1.8</text>
    </g>
    <g>
     <circle stroke="black" stroke-width="0.5" fill="#aaffff" cx="134.0" cy="158.0" r="1.0"/>
     <text stroke="none" x="134.0" y="158.0" font-size="10.0" font-family="helvetica">NT1.9</text>
    </g>
    <g>
     <circle stroke="black" stroke-width="0.5" fill="#aaffff" cx="144.0" cy="110.0" r="1.0"/>
     <text stroke="none" x="144.0" y="110.0" font-size="10.0" font-family="helvetica">NT1.10</text>
    </g>
    <g>
     <circle stroke="black" stroke-width="0.5" fill="#aaffff" cx="169.0" cy="294.0" r="1.0"/>
     <text stroke="none" x="169.0" y="294.0" font-size="20.0" font-family="helvetica">Actinomycetospora corticicola O14-5T (AB514513)</text>
    </g>
    <g>
     <circle stroke="black" stroke-width="0.5" fill="#aaffff" cx="172.0" cy="67.0" r="1.0"/>
     <text stroke="none" x="172.0" y="67.0" font-size="20.0" font-family="helvetica">80</text>
    </g>
    <g>
     <circle stroke="black" stroke-width="0.5" fill="#aaffff" cx="174.0" cy="65.0" r="1.0"/>
     <text stroke="none" x="174.0" y="65.0" font-size="20.0" font-family="helvetica">80</text>
    </g>
    <g>
     <circle stroke="black" stroke-width="0.5" fill="#aaffff" cx="176.0" cy="189.0" r="1.0"/>
     <text stroke="none" x="176.0" y="189.0" font-size="10.0" font-family="helvetica">NT1.14</text>
    </g>
    <g>
     <circle stroke="black" stroke-width="0.5" fill="#aaffff" cx="176.0" cy="223.0" r="1.0"/>
     <text stroke="none" x="176.0" y="223.0" font-size="10.0" font-family="helvetica">NT1.15</text>
    </g>
    <g>
     <circle stroke="black" stroke-width="0.5" fill="#aaffff" cx="176.0" cy="205.0" r="1.0"/>
     <text stroke="none" x="176.0" y="205.0" font-size="10.0" font-family="helvetica">NT1.16</text>
    </g>
    <g>
     <circle stroke="black" stroke-width="0.5" fill="#aaffff" cx="177.0" cy="65.0" r="1.0"/>
     <text stroke="none" x="177.0" y="65.0" font-size="10.0" font-family="helvetica">NT1.17</text>
    </g>
    <g>
     <circle stroke="black" stroke-width="0.5" fill="#aaffff" cx="177.0" cy="100.0" r="1.0"/>
     <text stroke="none" x="177.0" y="100.0" font-size="10.0" font-family="helvetica">NT1.18</text>
    </g>
    <g>
     <circle stroke="black" stroke-width="0.5" fill="#aaffff" cx="180.0" cy="204.0" r="1.0"/>
     <text stroke="none" x="180.0" y="204.0" font-size="10.0" font-family="helvetica">NT1.19</text>
    </g>
    <g>
     <circle stroke="black" stroke-width="0.5" fill="#aaffff" cx="204.0" cy="154.0" r="1.0"/>
     <text stroke="none" x="204.0" y="154.0" font-size="20.0" font-family="helvetica"> Actinomycetospora succinea TT00-49T (AB514514)</text>
    </g>
    <g>
     <circle stroke="black" stroke-width="0.5" fill="#aaffff" cx="208.0" cy="31.0" r="1.0"/>
     <text stroke="none" x="208.0" y="31.0" font-size="10.0" font-family="helvetica">NT1.21</text>
    </g>
    <g>
     <circle stroke="black" stroke-width="0.5" fill="#aaffff" cx="213.0" cy="31.0" r="1.0"/>
     <text stroke="none" x="213.0" y="31.0" font-size="10.0" font-family="helvetica">NT1.22</text>
    </g>
    <g>
     <circle stroke="black" stroke-width="0.5" fill="#aaffff" cx="213.0" cy="83.0" r="1.0"/>
     <text stroke="none" x="213.0" y="83.0" font-size="20.0" font-family="helvetica"> Actinomycetospora chlora TT07l-577 (AB514519)</text>
    </g>
    <g>
     <circle stroke="black" stroke-width="0.5" fill="#aaffff" cx="213.0" cy="258.0" r="1.0"/>
     <text stroke="none" x="213.0" y="258.0" font-size="20.0" font-family="helvetica">Actinomycetospora chiangmaiensis YIM 0006T (AM398646)</text>
    </g>
    <g>
     <circle stroke="black" stroke-width="0.5" fill="#aaffff" cx="223.0" cy="49.0" r="1.0"/>
     <text stroke="none" x="223.0" y="49.0" font-size="20.0" font-family="helvetica">Actinomycetospora straminea IYO7-55T (AB514518)</text>
    </g>
    <g>
     <circle stroke="black" stroke-width="0.5" fill="#aaffff" cx="225.0" cy="14.0" r="1.0"/>
     <text stroke="none" x="225.0" y="14.0" font-size="20.0" font-family="helvetica">Actinomycetospora chibensis TTO4-21T (AB514517)</text>
    </g>
    <g>
     <circle stroke="black" stroke-width="0.5" fill="#aaffff" cx="237.0" cy="119.0" r="1.0"/>
     <text stroke="none" x="237.0" y="119.0" font-size="20.0" font-family="helvetica"> Actinomycetospora cinnamomea IYO7-53T (AB514520)</text>
    </g>
    <line stroke="black" x1="225.0" y1="14.0" x2="208.0" y2="31.0" stroke-width="0.5"/>
    <line stroke="black" x1="223.0" y1="49.0" x2="208.0" y2="31.0" stroke-width="0.5"/>
    <line stroke="black" x1="213.0" y1="83.0" x2="177.0" y2="100.0" stroke-width="0.5"/>
    <line stroke="black" x1="237.0" y1="119.0" x2="177.0" y2="100.0" stroke-width="0.5"/>
    <line stroke="black" x1="204.0" y1="154.0" x2="144.0" y2="110.0" stroke-width="0.5"/>
    <line stroke="black" x1="169.0" y1="294.0" x2="115.0" y2="275.0" stroke-width="0.5"/>
    <line stroke="black" x1="213.0" y1="258.0" x2="115.0" y2="275.0" stroke-width="0.5"/>
    <line stroke="black" x1="208.0" y1="31.0" x2="174.0" y2="65.0" stroke-width="0.5"/>
    <line stroke="black" x1="172.0" y1="67.0" x2="144.0" y2="110.0" stroke-width="0.5"/>
    <line stroke="black" x1="172.0" y1="67.0" x2="177.0" y2="100.0" stroke-width="0.5"/>
    <line stroke="black" x1="144.0" y1="110.0" x2="129.0" y2="158.0" stroke-width="0.5"/>
    <line stroke="black" x1="79.0" y1="219.0" x2="11.0" y2="308.0" stroke-width="0.5"/>
    <line stroke="black" x1="79.0" y1="219.0" x2="115.0" y2="275.0" stroke-width="0.5"/>
   </g>
  </g>
 </svg>
</svg>
