<?xml version="1.0" encoding="UTF-8"?>
<svg height="800.0" width="700.0" xmlns="http://www.w3.org/2000/svg">
 <svg>
  <g>
   <g>
    <g>
     <circle stroke="black" stroke-width="0.5" fill="#aaffff" cx="8.0" cy="699.0" r="1.0"/>
     <text stroke="none" x="8.0" y="699.0" font-size="10.0" font-family="helvetica">NT1.1</text>
    </g>
    <g>
     <circle stroke="black" stroke-width="0.5" fill="#aaffff" cx="27.0" cy="578.0" r="1.0"/>
     <text stroke="none" x="27.0" y="578.0" font-size="10.0" font-family="helvetica">NT1.2</text>
    </g>
    <g>
     <circle stroke="black" stroke-width="0.5" fill="#aaffff" cx="33.0" cy="495.0" r="1.0"/>
     <text stroke="none" x="33.0" y="495.0" font-size="10.0" font-family="helvetica">NT1.3</text>
    </g>
    <g>
     <circle stroke="black" stroke-width="0.5" fill="#aaffff" cx="41.0" cy="386.0" r="1.0"/>
     <text stroke="none" x="41.0" y="386.0" font-size="10.0" font-family="helvetica">NT1.4</text>
    </g>
    <g>
     <circle stroke="black" stroke-width="0.5" fill="#aaffff" cx="45.0" cy="604.0" r="1.0"/>
     <text stroke="none" x="45.0" y="604.0" font-size="10.0" font-family="helvetica">NT1.5</text>
    </g>
    <g>
     <circle stroke="black" stroke-width="0.5" fill="#aaffff" cx="47.0" cy="287.0" r="1.0"/>
     <text stroke="none" x="47.0" y="287.0" font-size="20.0" font-family="helvetica">im</text>
    </g>
    <g>
     <circle stroke="black" stroke-width="0.5" fill="#aaffff" cx="51.0" cy="220.0" r="1.0"/>
     <text stroke="none" x="51.0" y="220.0" font-size="10.0" font-family="helvetica">NT1.7</text>
    </g>
    <g>
     <circle stroke="black" stroke-width="0.5" fill="#aaffff" cx="53.0" cy="140.0" r="1.0"/>
     <text stroke="none" x="53.0" y="140.0" font-size="10.0" font-family="helvetica">NT1.8</text>
    </g>
    <g>
     <circle stroke="black" stroke-width="0.5" fill="#aaffff" cx="57.0" cy="69.0" r="1.0"/>
     <text stroke="none" x="57.0" y="69.0" font-size="10.0" font-family="helvetica">NT1.9</text>
    </g>
    <g>
     <circle stroke="black" stroke-width="0.5" fill="#aaffff" cx="58.0" cy="526.0" r="1.0"/>
     <text stroke="none" x="58.0" y="526.0" font-size="10.0" font-family="helvetica">NT1.10</text>
    </g>
    <g>
     <circle stroke="black" stroke-width="0.5" fill="#aaffff" cx="60.0" cy="211.0" r="1.0"/>
     <text stroke="none" x="60.0" y="211.0" font-size="10.0" font-family="helvetica">NT1.11</text>
    </g>
    <g>
     <circle stroke="black" stroke-width="0.5" fill="#aaffff" cx="61.0" cy="31.0" r="1.0"/>
     <text stroke="none" x="61.0" y="31.0" font-size="10.0" font-family="helvetica">NT1.12</text>
    </g>
    <g>
     <circle stroke="black" stroke-width="0.5" fill="#aaffff" cx="66.0" cy="184.0" r="1.0"/>
     <text stroke="none" x="66.0" y="184.0" font-size="10.0" font-family="helvetica">NT1.13</text>
    </g>
    <g>
     <circle stroke="black" stroke-width="0.5" fill="#aaffff" cx="67.0" cy="298.0" r="1.0"/>
     <text stroke="none" x="67.0" y="298.0" font-size="20.0" font-family="helvetica">im</text>
    </g>
    <g>
     <circle stroke="black" stroke-width="0.5" fill="#aaffff" cx="71.0" cy="107.0" r="1.0"/>
     <text stroke="none" x="71.0" y="107.0" font-size="10.0" font-family="helvetica">NT1.15</text>
    </g>
    <g>
     <circle stroke="black" stroke-width="0.5" fill="#aaffff" cx="94.0" cy="355.0" r="1.0"/>
     <text stroke="none" x="94.0" y="355.0" font-size="20.0" font-family="helvetica"> Polymorphospora rubra TT 97-427 (AB223089)</text>
    </g>
    <g>
     <circle stroke="black" stroke-width="0.5" fill="#aaffff" cx="105.0" cy="699.0" r="1.0"/>
     <text stroke="none" x="105.0" y="699.0" font-size="20.0" font-family="helvetica">Longispora albida NRRL B-242017 (AB089241)</text>
    </g>
    <g>
     <circle stroke="black" stroke-width="0.5" fill="#aaffff" cx="108.0" cy="12.0" r="1.0"/>
     <text stroke="none" x="108.0" y="12.0" font-size="10.0" font-family="helvetica">NT1.18</text>
    </g>
    <g>
     <circle stroke="black" stroke-width="0.5" fill="#aaffff" cx="114.0" cy="241.0" r="1.0"/>
     <text stroke="none" x="114.0" y="241.0" font-size="10.0" font-family="helvetica">NT1.19</text>
    </g>
    <g>
     <circle stroke="black" stroke-width="0.5" fill="#aaffff" cx="118.0" cy="507.0" r="1.0"/>
     <text stroke="none" x="118.0" y="507.0" font-size="10.0" font-family="helvetica">NT1.20</text>
    </g>
    <g>
     <circle stroke="black" stroke-width="0.5" fill="#aaffff" cx="120.0" cy="317.0" r="1.0"/>
     <text stroke="none" x="120.0" y="317.0" font-size="20.0" font-family="helvetica"> Salinospora arenicola CNH-6437 (AYO40619)</text>
    </g>
    <g>
     <circle stroke="black" stroke-width="0.5" fill="#aaffff" cx="124.0" cy="126.0" r="1.0"/>
     <text stroke="none" x="124.0" y="126.0" font-size="10.0" font-family="helvetica">NT1.22</text>
    </g>
    <g>
     <circle stroke="black" stroke-width="0.5" fill="#aaffff" cx="124.0" cy="164.0" r="1.0"/>
     <text stroke="none" x="124.0" y="164.0" font-size="10.0" font-family="helvetica">NT1.23</text>
    </g>
    <g>
     <circle stroke="black" stroke-width="0.5" fill="#aaffff" cx="124.0" cy="623.0" r="1.0"/>
     <text stroke="none" x="124.0" y="623.0" font-size="10.0" font-family="helvetica">NT1.24</text>
    </g>
    <g>
     <circle stroke="black" stroke-width="0.5" fill="#aaffff" cx="124.0" cy="441.0" r="1.0"/>
     <text stroke="none" x="124.0" y="441.0" font-size="20.0" font-family="helvetica">100</text>
    </g>
    <g>
     <circle stroke="black" stroke-width="0.5" fill="#aaffff" cx="125.0" cy="661.0" r="1.0"/>
     <text stroke="none" x="125.0" y="661.0" font-size="20.0" font-family="helvetica">Pilimelia terevasa DSM 430407 (X93190)</text>
    </g>
    <g>
     <circle stroke="black" stroke-width="0.5" fill="#aaffff" cx="129.0" cy="546.0" r="1.0"/>
     <text stroke="none" x="129.0" y="546.0" font-size="20.0" font-family="helvetica">Virgosporangium ochraceum YU655-437 (ABOO6167)</text>
    </g>
    <g>
     <circle stroke="black" stroke-width="0.5" fill="#aaffff" cx="133.0" cy="278.0" r="1.0"/>
     <text stroke="none" x="133.0" y="278.0" font-size="20.0" font-family="helvetica">Micromonospora chalcea DSM 430267 (X92594)</text>
    </g>
    <g>
     <circle stroke="black" stroke-width="0.5" fill="#aaffff" cx="137.0" cy="88.0" r="1.0"/>
     <text stroke="none" x="137.0" y="88.0" font-size="20.0" font-family="helvetica"> Couchioplanes caeruleus IFO 139397 (D85479)</text>
    </g>
    <g>
     <circle stroke="black" stroke-width="0.5" fill="#aaffff" cx="143.0" cy="584.0" r="1.0"/>
     <text stroke="none" x="143.0" y="584.0" font-size="20.0" font-family="helvetica">Catellatospora citrea IMSNU 220087 (AF152106)</text>
    </g>
    <g>
     <circle stroke="black" stroke-width="0.5" fill="#aaffff" cx="144.0" cy="50.0" r="1.0"/>
     <text stroke="none" x="144.0" y="50.0" font-size="20.0" font-family="helvetica">Actinoplanes philippinensis DSM 430197 (X93187)</text>
    </g>
    <g>
     <circle stroke="black" stroke-width="0.5" fill="#aaffff" cx="146.0" cy="203.0" r="1.0"/>
     <text stroke="none" x="146.0" y="203.0" font-size="10.0" font-family="helvetica">NT1.32</text>
    </g>
    <g>
     <circle stroke="black" stroke-width="0.5" fill="#aaffff" cx="234.0" cy="470.0" r="1.0"/>
     <text stroke="none" x="234.0" y="470.0" font-size="10.0" font-family="helvetica">NT1.33</text>
    </g>
    <g>
     <circle stroke="black" stroke-width="0.5" fill="#aaffff" cx="255.0" cy="412.0" r="1.0"/>
     <text stroke="none" x="255.0" y="412.0" font-size="20.0" font-family="helvetica">7</text>
    </g>
    <g>
     <circle stroke="black" stroke-width="0.5" fill="#aaffff" cx="272.0" cy="393.0" r="1.0"/>
     <text stroke="none" x="272.0" y="393.0" font-size="10.0" font-family="helvetica">NT1.35</text>
    </g>
    <g>
     <circle stroke="black" stroke-width="0.5" fill="#aaffff" cx="272.0" cy="432.0" r="1.0"/>
     <text stroke="none" x="272.0" y="432.0" font-size="10.0" font-family="helvetica">NT1.36</text>
    </g>
    <g>
     <circle stroke="black" stroke-width="0.5" fill="#aaffff" cx="281.0" cy="737.0" r="1.0"/>
     <text stroke="none" x="281.0" y="737.0" font-size="10.0" font-family="helvetica">NT1.37</text>
    </g>
    <g>
     <circle stroke="black" stroke-width="0.5" fill="#aaffff" cx="7.0" cy="718.0" r="1.0"/>
     <text stroke="none" x="7.0" y="718.0" font-size="10.0" font-family="helvetica">NT1.38</text>
    </g>
    <line stroke="black" x1="137.0" y1="88.0" x2="71.0" y2="107.0" stroke-width="0.5"/>
    <line stroke="black" x1="120.0" y1="317.0" x2="67.0" y2="298.0" stroke-width="0.5"/>
    <line stroke="black" x1="133.0" y1="278.0" x2="67.0" y2="298.0" stroke-width="0.5"/>
    <line stroke="black" x1="94.0" y1="355.0" x2="47.0" y2="287.0" stroke-width="0.5"/>
    <line stroke="black" x1="129.0" y1="546.0" x2="58.0" y2="526.0" stroke-width="0.5"/>
    <line stroke="black" x1="143.0" y1="584.0" x2="45.0" y2="604.0" stroke-width="0.5"/>
    <line stroke="black" x1="125.0" y1="661.0" x2="27.0" y2="578.0" stroke-width="0.5"/>
    <line stroke="black" x1="105.0" y1="699.0" x2="8.0" y2="699.0" stroke-width="0.5"/>
    <line stroke="black" x1="57.0" y1="69.0" x2="53.0" y2="140.0" stroke-width="0.5"/>
    <line stroke="black" x1="51.0" y1="220.0" x2="47.0" y2="287.0" stroke-width="0.5"/>
    <line stroke="black" x1="51.0" y1="220.0" x2="67.0" y2="298.0" stroke-width="0.5"/>
    <line stroke="black" x1="47.0" y1="287.0" x2="41.0" y2="386.0" stroke-width="0.5"/>
    <line stroke="black" x1="41.0" y1="386.0" x2="33.0" y2="495.0" stroke-width="0.5"/>
    <line stroke="black" x1="33.0" y1="495.0" x2="27.0" y2="578.0" stroke-width="0.5"/>
    <line stroke="black" x1="27.0" y1="578.0" x2="8.0" y2="699.0" stroke-width="0.5"/>
    <line stroke="black" x1="7.0" y1="718.0" x2="8.0" y2="699.0" stroke-width="0.5"/>
    <line stroke="black" x1="144.0" y1="50.0" x2="61.0" y2="31.0" stroke-width="0.5"/>
   </g>
  </g>
 </svg>
</svg>
