<?xml version="1.0" encoding="UTF-8"?>
<svg height="800.0" width="700.0" xmlns="http://www.w3.org/2000/svg">
 <svg>
  <g>
   <g>
    <g>
     <circle stroke="black" stroke-width="0.5" fill="#aaffff" cx="459.0" cy="980.0" r="1.0"/>
     <text stroke="none" x="459.0" y="980.0" font-size="10.0" font-family="helvetica">NT1.1</text>
    </g>
    <g>
     <circle stroke="black" stroke-width="0.5" fill="#aaffff" cx="476.0" cy="955.0" r="1.0"/>
     <text stroke="none" x="476.0" y="955.0" font-size="20.0" font-family="helvetica"/>
    </g>
    <g>
     <circle stroke="black" stroke-width="0.5" fill="#aaffff" cx="476.0" cy="934.0" r="1.0"/>
     <text stroke="none" x="476.0" y="934.0" font-size="20.0" font-family="helvetica">S.</text>
    </g>
    <g>
     <circle stroke="black" stroke-width="0.5" fill="#aaffff" cx="483.0" cy="1094.0" r="1.0"/>
     <text stroke="none" x="483.0" y="1094.0" font-size="10.0" font-family="helvetica">NT1.4</text>
    </g>
    <g>
     <circle stroke="black" stroke-width="0.5" fill="#aaffff" cx="498.0" cy="1165.0" r="1.0"/>
     <text stroke="none" x="498.0" y="1165.0" font-size="10.0" font-family="helvetica">NT1.5</text>
    </g>
    <g>
     <circle stroke="black" stroke-width="0.5" fill="#aaffff" cx="501.0" cy="912.0" r="1.0"/>
     <text stroke="none" x="501.0" y="912.0" font-size="20.0" font-family="helvetica"/>
    </g>
    <g>
     <circle stroke="black" stroke-width="0.5" fill="#aaffff" cx="501.0" cy="1024.0" r="1.0"/>
     <text stroke="none" x="501.0" y="1024.0" font-size="10.0" font-family="helvetica">NT1.7</text>
    </g>
    <g>
     <circle stroke="black" stroke-width="0.5" fill="#aaffff" cx="502.0" cy="1046.0" r="1.0"/>
     <text stroke="none" x="502.0" y="1046.0" font-size="20.0" font-family="helvetica">L1 (ABO96747)</text>
    </g>
    <g>
     <circle stroke="black" stroke-width="0.5" fill="#aaffff" cx="502.0" cy="1001.0" r="1.0"/>
     <text stroke="none" x="502.0" y="1001.0" font-size="20.0" font-family="helvetica"/>
    </g>
    <g>
     <circle stroke="black" stroke-width="0.5" fill="#aaffff" cx="502.0" cy="1265.0" r="1.0"/>
     <text stroke="none" x="502.0" y="1265.0" font-size="20.0" font-family="helvetica">55</text>
    </g>
    <g>
     <circle stroke="black" stroke-width="0.5" fill="#aaffff" cx="503.0" cy="1309.0" r="1.0"/>
     <text stroke="none" x="503.0" y="1309.0" font-size="10.0" font-family="helvetica">NT1.11</text>
    </g>
    <g>
     <circle stroke="black" stroke-width="0.5" fill="#aaffff" cx="503.0" cy="1352.0" r="1.0"/>
     <text stroke="none" x="503.0" y="1352.0" font-size="10.0" font-family="helvetica">NT1.12</text>
    </g>
    <g>
     <circle stroke="black" stroke-width="0.5" fill="#aaffff" cx="503.0" cy="1443.0" r="1.0"/>
     <text stroke="none" x="503.0" y="1443.0" font-size="10.0" font-family="helvetica">NT1.13</text>
    </g>
    <g>
     <circle stroke="black" stroke-width="0.5" fill="#aaffff" cx="514.0" cy="1264.0" r="1.0"/>
     <text stroke="none" x="514.0" y="1264.0" font-size="20.0" font-family="helvetica">V21 (AB096752)</text>
    </g>
    <g>
     <circle stroke="black" stroke-width="0.5" fill="#aaffff" cx="514.0" cy="1309.0" r="1.0"/>
     <text stroke="none" x="514.0" y="1309.0" font-size="20.0" font-family="helvetica">A7 (AB096744)</text>
    </g>
    <g>
     <circle stroke="black" stroke-width="0.5" fill="#aaffff" cx="519.0" cy="1090.0" r="1.0"/>
     <text stroke="none" x="519.0" y="1090.0" font-size="20.0" font-family="helvetica"/>
    </g>
    <g>
     <circle stroke="black" stroke-width="0.5" fill="#aaffff" cx="519.0" cy="1112.0" r="1.0"/>
     <text stroke="none" x="519.0" y="1112.0" font-size="10.0" font-family="helvetica">NT1.17</text>
    </g>
    <g>
     <circle stroke="black" stroke-width="0.5" fill="#aaffff" cx="524.0" cy="1352.0" r="1.0"/>
     <text stroke="none" x="524.0" y="1352.0" font-size="20.0" font-family="helvetica">L23 (AB096751)</text>
    </g>
    <g>
     <circle stroke="black" stroke-width="0.5" fill="#aaffff" cx="526.0" cy="1443.0" r="1.0"/>
     <text stroke="none" x="526.0" y="1443.0" font-size="20.0" font-family="helvetica">S. dysgalactiae subsp. equisimilis ATCC 35666 (AB096742)</text>
    </g>
    <g>
     <circle stroke="black" stroke-width="0.5" fill="#aaffff" cx="532.0" cy="1132.0" r="1.0"/>
     <text stroke="none" x="532.0" y="1132.0" font-size="20.0" font-family="helvetica">A24 (AB096746)</text>
    </g>
    <g>
     <circle stroke="black" stroke-width="0.5" fill="#aaffff" cx="535.0" cy="874.0" r="1.0"/>
     <text stroke="none" x="535.0" y="874.0" font-size="20.0" font-family="helvetica">S. agalactiae ATCC 13813T(AB096754)</text>
    </g>
    <g>
     <circle stroke="black" stroke-width="0.5" fill="#aaffff" cx="537.0" cy="1485.0" r="1.0"/>
     <text stroke="none" x="537.0" y="1485.0" font-size="20.0" font-family="helvetica">A20 (AB096745)</text>
    </g>
    <line stroke="black" x1="476.0" y1="955.0" x2="476.0" y2="934.0" stroke-width="0.5"/>
    <line stroke="black" x1="501.0" y1="912.0" x2="476.0" y2="934.0" stroke-width="0.5"/>
    <line stroke="black" x1="502.0" y1="1046.0" x2="501.0" y2="1024.0" stroke-width="0.5"/>
    <line stroke="black" x1="502.0" y1="1001.0" x2="501.0" y2="1024.0" stroke-width="0.5"/>
    <line stroke="black" x1="519.0" y1="1090.0" x2="519.0" y2="1112.0" stroke-width="0.5"/>
    <line stroke="black" x1="514.0" y1="1264.0" x2="502.0" y2="1265.0" stroke-width="0.5"/>
    <line stroke="black" x1="514.0" y1="1309.0" x2="503.0" y2="1309.0" stroke-width="0.5"/>
    <line stroke="black" x1="524.0" y1="1352.0" x2="503.0" y2="1352.0" stroke-width="0.5"/>
    <line stroke="black" x1="526.0" y1="1443.0" x2="503.0" y2="1443.0" stroke-width="0.5"/>
    <line stroke="black" x1="459.0" y1="980.0" x2="483.0" y2="1094.0" stroke-width="0.5"/>
    <line stroke="black" x1="459.0" y1="980.0" x2="476.0" y2="934.0" stroke-width="0.5"/>
    <line stroke="black" x1="483.0" y1="1094.0" x2="498.0" y2="1165.0" stroke-width="0.5"/>
    <line stroke="black" x1="483.0" y1="1094.0" x2="501.0" y2="1024.0" stroke-width="0.5"/>
    <line stroke="black" x1="498.0" y1="1165.0" x2="502.0" y2="1265.0" stroke-width="0.5"/>
    <line stroke="black" x1="498.0" y1="1165.0" x2="519.0" y2="1112.0" stroke-width="0.5"/>
    <line stroke="black" x1="502.0" y1="1265.0" x2="503.0" y2="1309.0" stroke-width="0.5"/>
    <line stroke="black" x1="503.0" y1="1309.0" x2="503.0" y2="1352.0" stroke-width="0.5"/>
    <line stroke="black" x1="503.0" y1="1352.0" x2="503.0" y2="1443.0" stroke-width="0.5"/>
    <line stroke="black" x1="535.0" y1="874.0" x2="459.0" y2="980.0" stroke-width="0.5"/>
    <line stroke="black" x1="537.0" y1="1485.0" x2="503.0" y2="1443.0" stroke-width="0.5"/>
    <line stroke="black" x1="532.0" y1="1132.0" x2="519.0" y2="1112.0" stroke-width="0.5"/>
   </g>
  </g>
 </svg>
</svg>
