<?xml version="1.0" encoding="UTF-8"?>
<svg height="800.0" width="700.0" xmlns="http://www.w3.org/2000/svg">
 <svg>
  <g>
   <g>
    <g>
     <circle stroke="black" stroke-width="0.5" fill="#aaffff" cx="1.0" cy="102.0" r="1.0"/>
     <text stroke="none" x="1.0" y="102.0" font-size="20.0" font-family="helvetica"/>
    </g>
    <g>
     <circle stroke="black" stroke-width="0.5" fill="#aaffff" cx="31.0" cy="102.0" r="1.0"/>
     <text stroke="none" x="31.0" y="102.0" font-size="10.0" font-family="helvetica">NT1.2</text>
    </g>
    <g>
     <circle stroke="black" stroke-width="0.5" fill="#aaffff" cx="51.0" cy="187.0" r="1.0"/>
     <text stroke="none" x="51.0" y="187.0" font-size="20.0" font-family="helvetica">QM</text>
    </g>
    <g>
     <circle stroke="black" stroke-width="0.5" fill="#aaffff" cx="69.0" cy="276.0" r="1.0"/>
     <text stroke="none" x="69.0" y="276.0" font-size="20.0" font-family="helvetica">64</text>
    </g>
    <g>
     <circle stroke="black" stroke-width="0.5" fill="#aaffff" cx="76.0" cy="152.0" r="1.0"/>
     <text stroke="none" x="76.0" y="152.0" font-size="10.0" font-family="helvetica">NT1.5</text>
    </g>
    <g>
     <circle stroke="black" stroke-width="0.5" fill="#aaffff" cx="78.0" cy="544.0" r="1.0"/>
     <text stroke="none" x="78.0" y="544.0" font-size="10.0" font-family="helvetica">NT1.6</text>
    </g>
    <g>
     <circle stroke="black" stroke-width="0.5" fill="#aaffff" cx="91.0" cy="740.0" r="1.0"/>
     <text stroke="none" x="91.0" y="740.0" font-size="10.0" font-family="helvetica">NT1.7</text>
    </g>
    <g>
     <circle stroke="black" stroke-width="0.5" fill="#aaffff" cx="101.0" cy="847.0" r="1.0"/>
     <text stroke="none" x="101.0" y="847.0" font-size="10.0" font-family="helvetica">NT1.8</text>
    </g>
    <g>
     <circle stroke="black" stroke-width="0.5" fill="#aaffff" cx="102.0" cy="899.0" r="1.0"/>
     <text stroke="none" x="102.0" y="899.0" font-size="10.0" font-family="helvetica">NT1.9</text>
    </g>
    <g>
     <circle stroke="black" stroke-width="0.5" fill="#aaffff" cx="103.0" cy="897.0" r="1.0"/>
     <text stroke="none" x="103.0" y="897.0" font-size="10.0" font-family="helvetica">NT1.10</text>
    </g>
    <g>
     <circle stroke="black" stroke-width="0.5" fill="#aaffff" cx="110.0" cy="239.0" r="1.0"/>
     <text stroke="none" x="110.0" y="239.0" font-size="20.0" font-family="helvetica">64</text>
    </g>
    <g>
     <circle stroke="black" stroke-width="0.5" fill="#aaffff" cx="116.0" cy="798.0" r="1.0"/>
     <text stroke="none" x="116.0" y="798.0" font-size="10.0" font-family="helvetica">NT1.12</text>
    </g>
    <g>
     <circle stroke="black" stroke-width="0.5" fill="#aaffff" cx="126.0" cy="752.0" r="1.0"/>
     <text stroke="none" x="126.0" y="752.0" font-size="10.0" font-family="helvetica">NT1.13</text>
    </g>
    <g>
     <circle stroke="black" stroke-width="0.5" fill="#aaffff" cx="127.0" cy="200.0" r="1.0"/>
     <text stroke="none" x="127.0" y="200.0" font-size="10.0" font-family="helvetica">NT1.14</text>
    </g>
    <g>
     <circle stroke="black" stroke-width="0.5" fill="#aaffff" cx="166.0" cy="699.0" r="1.0"/>
     <text stroke="none" x="166.0" y="699.0" font-size="10.0" font-family="helvetica">NT1.15</text>
    </g>
    <g>
     <circle stroke="black" stroke-width="0.5" fill="#aaffff" cx="178.0" cy="554.0" r="1.0"/>
     <text stroke="none" x="178.0" y="554.0" font-size="20.0" font-family="helvetica">100</text>
    </g>
    <g>
     <circle stroke="black" stroke-width="0.5" fill="#aaffff" cx="191.0" cy="474.0" r="1.0"/>
     <text stroke="none" x="191.0" y="474.0" font-size="10.0" font-family="helvetica">NT1.17</text>
    </g>
    <g>
     <circle stroke="black" stroke-width="0.5" fill="#aaffff" cx="217.0" cy="608.0" r="1.0"/>
     <text stroke="none" x="217.0" y="608.0" font-size="10.0" font-family="helvetica">NT1.18</text>
    </g>
    <g>
     <circle stroke="black" stroke-width="0.5" fill="#aaffff" cx="245.0" cy="364.0" r="1.0"/>
     <text stroke="none" x="245.0" y="364.0" font-size="10.0" font-family="helvetica">NT1.19</text>
    </g>
    <g>
     <circle stroke="black" stroke-width="0.5" fill="#aaffff" cx="275.0" cy="65.0" r="1.0"/>
     <text stroke="none" x="275.0" y="65.0" font-size="20.0" font-family="helvetica">Oleiphilus messinensis DSM 134897 (AJ295154)</text>
    </g>
    <g>
     <circle stroke="black" stroke-width="0.5" fill="#aaffff" cx="308.0" cy="738.0" r="1.0"/>
     <text stroke="none" x="308.0" y="738.0" font-size="10.0" font-family="helvetica">NT1.21</text>
    </g>
    <g>
     <circle stroke="black" stroke-width="0.5" fill="#aaffff" cx="328.0" cy="173.0" r="1.0"/>
     <text stroke="none" x="328.0" y="173.0" font-size="20.0" font-family="helvetica">Marinobacter hydrocarbonoclasticus ATCC 271327 (AB021372)</text>
    </g>
    <g>
     <circle stroke="black" stroke-width="0.5" fill="#aaffff" cx="341.0" cy="845.0" r="1.0"/>
     <text stroke="none" x="341.0" y="845.0" font-size="10.0" font-family="helvetica">NT1.23</text>
    </g>
    <g>
     <circle stroke="black" stroke-width="0.5" fill="#aaffff" cx="355.0" cy="791.0" r="1.0"/>
     <text stroke="none" x="355.0" y="791.0" font-size="20.0" font-family="helvetica">Balneatrix alpica CIP 1035897 (Y17112)</text>
    </g>
    <g>
     <circle stroke="black" stroke-width="0.5" fill="#aaffff" cx="359.0" cy="897.0" r="1.0"/>
     <text stroke="none" x="359.0" y="897.0" font-size="20.0" font-family="helvetica">Marinomonas vaga ATCC 27119T (X67025)</text>
    </g>
    <g>
     <circle stroke="black" stroke-width="0.5" fill="#aaffff" cx="361.0" cy="281.0" r="1.0"/>
     <text stroke="none" x="361.0" y="281.0" font-size="20.0" font-family="helvetica">Zooshikella ganghwensis JC2044T (AY130994)</text>
    </g>
    <g>
     <circle stroke="black" stroke-width="0.5" fill="#aaffff" cx="362.0" cy="226.0" r="1.0"/>
     <text stroke="none" x="362.0" y="226.0" font-size="10.0" font-family="helvetica">NT1.27</text>
    </g>
    <g>
     <circle stroke="black" stroke-width="0.5" fill="#aaffff" cx="370.0" cy="120.0" r="1.0"/>
     <text stroke="none" x="370.0" y="120.0" font-size="20.0" font-family="helvetica">Alkanivorax borkumensis DSM 11573T (Y12579)</text>
    </g>
    <g>
     <circle stroke="black" stroke-width="0.5" fill="#aaffff" cx="407.0" cy="336.0" r="1.0"/>
     <text stroke="none" x="407.0" y="336.0" font-size="20.0" font-family="helvetica">Reinekea marinisedimentorum KMM 36557 (AJ561121)</text>
    </g>
    <g>
     <circle stroke="black" stroke-width="0.5" fill="#aaffff" cx="411.0" cy="387.0" r="1.0"/>
     <text stroke="none" x="411.0" y="387.0" font-size="10.0" font-family="helvetica">NT1.30</text>
    </g>
    <g>
     <circle stroke="black" stroke-width="0.5" fill="#aaffff" cx="449.0" cy="485.0" r="1.0"/>
     <text stroke="none" x="449.0" y="485.0" font-size="10.0" font-family="helvetica">NT1.31</text>
    </g>
    <g>
     <circle stroke="black" stroke-width="0.5" fill="#aaffff" cx="468.0" cy="583.0" r="1.0"/>
     <text stroke="none" x="468.0" y="583.0" font-size="20.0" font-family="helvetica">Ferrimonas balearica DSM 9799T (X93021)</text>
    </g>
    <g>
     <circle stroke="black" stroke-width="0.5" fill="#aaffff" cx="487.0" cy="534.0" r="1.0"/>
     <text stroke="none" x="487.0" y="534.0" font-size="20.0" font-family="helvetica">Pseudoalteromonas bacteriolytica IAM 14595T (D89929)</text>
    </g>
    <g>
     <circle stroke="black" stroke-width="0.5" fill="#aaffff" cx="503.0" cy="14.0" r="1.0"/>
     <text stroke="none" x="503.0" y="14.0" font-size="10.0" font-family="helvetica">NT1.34</text>
    </g>
    <g>
     <circle stroke="black" stroke-width="0.5" fill="#aaffff" cx="504.0" cy="633.0" r="1.0"/>
     <text stroke="none" x="504.0" y="633.0" font-size="20.0" font-family="helvetica">Shewanella amazonensls ATCC 7003297 (AF005248)</text>
    </g>
    <g>
     <circle stroke="black" stroke-width="0.5" fill="#aaffff" cx="506.0" cy="684.0" r="1.0"/>
     <text stroke="none" x="506.0" y="684.0" font-size="20.0" font-family="helvetica">Halomonas elongate ATCC 33173T (X67023)</text>
    </g>
    <g>
     <circle stroke="black" stroke-width="0.5" fill="#aaffff" cx="540.0" cy="435.0" r="1.0"/>
     <text stroke="none" x="540.0" y="435.0" font-size="20.0" font-family="helvetica">Colwellia maris JCM 10O85T (ABOO2630)</text>
    </g>
    <line stroke="black" x1="275.0" y1="65.0" x2="51.0" y2="187.0" stroke-width="0.5"/>
    <line stroke="black" x1="370.0" y1="120.0" x2="76.0" y2="152.0" stroke-width="0.5"/>
    <line stroke="black" x1="328.0" y1="173.0" x2="127.0" y2="200.0" stroke-width="0.5"/>
    <line stroke="black" x1="407.0" y1="336.0" x2="245.0" y2="364.0" stroke-width="0.5"/>
    <line stroke="black" x1="359.0" y1="897.0" x2="103.0" y2="897.0" stroke-width="0.5"/>
    <line stroke="black" x1="487.0" y1="534.0" x2="191.0" y2="474.0" stroke-width="0.5"/>
    <line stroke="black" x1="506.0" y1="684.0" x2="166.0" y2="699.0" stroke-width="0.5"/>
    <line stroke="black" x1="504.0" y1="633.0" x2="217.0" y2="608.0" stroke-width="0.5"/>
    <line stroke="black" x1="540.0" y1="435.0" x2="191.0" y2="474.0" stroke-width="0.5"/>
    <line stroke="black" x1="31.0" y1="102.0" x2="51.0" y2="187.0" stroke-width="0.5"/>
    <line stroke="black" x1="51.0" y1="187.0" x2="69.0" y2="276.0" stroke-width="0.5"/>
    <line stroke="black" x1="69.0" y1="276.0" x2="78.0" y2="544.0" stroke-width="0.5"/>
    <line stroke="black" x1="69.0" y1="276.0" x2="76.0" y2="152.0" stroke-width="0.5"/>
    <line stroke="black" x1="76.0" y1="152.0" x2="110.0" y2="239.0" stroke-width="0.5"/>
    <line stroke="black" x1="91.0" y1="740.0" x2="101.0" y2="847.0" stroke-width="0.5"/>
    <line stroke="black" x1="91.0" y1="740.0" x2="178.0" y2="554.0" stroke-width="0.5"/>
    <line stroke="black" x1="116.0" y1="798.0" x2="126.0" y2="752.0" stroke-width="0.5"/>
    <line stroke="black" x1="178.0" y1="554.0" x2="217.0" y2="608.0" stroke-width="0.5"/>
    <line stroke="black" x1="178.0" y1="554.0" x2="191.0" y2="474.0" stroke-width="0.5"/>
    <line stroke="black" x1="78.0" y1="544.0" x2="91.0" y2="740.0" stroke-width="0.5"/>
    <line stroke="black" x1="361.0" y1="281.0" x2="110.0" y2="239.0" stroke-width="0.5"/>
    <line stroke="black" x1="355.0" y1="791.0" x2="126.0" y2="752.0" stroke-width="0.5"/>
    <line stroke="black" x1="468.0" y1="583.0" x2="217.0" y2="608.0" stroke-width="0.5"/>
   </g>
  </g>
 </svg>
</svg>
