<?xml version="1.0" encoding="UTF-8"?>
<svg height="800.0" width="700.0" xmlns="http://www.w3.org/2000/svg">
 <svg>
  <g>
   <g>
    <g>
     <circle stroke="black" stroke-width="0.5" fill="#aaffff" cx="19.0" cy="822.0" r="1.0"/>
     <text stroke="none" x="19.0" y="822.0" font-size="10.0" font-family="helvetica">NT1.1</text>
    </g>
    <g>
     <circle stroke="black" stroke-width="0.5" fill="#aaffff" cx="78.0" cy="675.0" r="1.0"/>
     <text stroke="none" x="78.0" y="675.0" font-size="10.0" font-family="helvetica">NT1.2</text>
    </g>
    <g>
     <circle stroke="black" stroke-width="0.5" fill="#aaffff" cx="94.0" cy="528.0" r="1.0"/>
     <text stroke="none" x="94.0" y="528.0" font-size="10.0" font-family="helvetica">NT1.3</text>
    </g>
    <g>
     <circle stroke="black" stroke-width="0.5" fill="#aaffff" cx="96.0" cy="818.0" r="1.0"/>
     <text stroke="none" x="96.0" y="818.0" font-size="10.0" font-family="helvetica">NT1.4</text>
    </g>
    <g>
     <circle stroke="black" stroke-width="0.5" fill="#aaffff" cx="121.0" cy="1024.0" r="1.0"/>
     <text stroke="none" x="121.0" y="1024.0" font-size="10.0" font-family="helvetica">NT1.5</text>
    </g>
    <g>
     <circle stroke="black" stroke-width="0.5" fill="#aaffff" cx="122.0" cy="429.0" r="1.0"/>
     <text stroke="none" x="122.0" y="429.0" font-size="10.0" font-family="helvetica">NT1.6</text>
    </g>
    <g>
     <circle stroke="black" stroke-width="0.5" fill="#aaffff" cx="123.0" cy="626.0" r="1.0"/>
     <text stroke="none" x="123.0" y="626.0" font-size="10.0" font-family="helvetica">NT1.7</text>
    </g>
    <g>
     <circle stroke="black" stroke-width="0.5" fill="#aaffff" cx="144.0" cy="326.0" r="1.0"/>
     <text stroke="none" x="144.0" y="326.0" font-size="10.0" font-family="helvetica">NT1.8</text>
    </g>
    <g>
     <circle stroke="black" stroke-width="0.5" fill="#aaffff" cx="151.0" cy="966.0" r="1.0"/>
     <text stroke="none" x="151.0" y="966.0" font-size="10.0" font-family="helvetica">NT1.9</text>
    </g>
    <g>
     <circle stroke="black" stroke-width="0.5" fill="#aaffff" cx="163.0" cy="947.0" r="1.0"/>
     <text stroke="none" x="163.0" y="947.0" font-size="20.0" font-family="helvetica">Candida atmosphaerica CBS 1898T (U45779)</text>
    </g>
    <g>
     <circle stroke="black" stroke-width="0.5" fill="#aaffff" cx="167.0" cy="238.0" r="1.0"/>
     <text stroke="none" x="167.0" y="238.0" font-size="10.0" font-family="helvetica">NT1.11</text>
    </g>
    <g>
     <circle stroke="black" stroke-width="0.5" fill="#aaffff" cx="167.0" cy="393.0" r="1.0"/>
     <text stroke="none" x="167.0" y="393.0" font-size="10.0" font-family="helvetica">NT1.12</text>
    </g>
    <g>
     <circle stroke="black" stroke-width="0.5" fill="#aaffff" cx="172.0" cy="985.0" r="1.0"/>
     <text stroke="none" x="172.0" y="985.0" font-size="20.0" font-family="helvetica">Candida atlantica CBS 4547T (U45799)</text>
    </g>
    <g>
     <circle stroke="black" stroke-width="0.5" fill="#aaffff" cx="191.0" cy="528.0" r="1.0"/>
     <text stroke="none" x="191.0" y="528.0" font-size="10.0" font-family="helvetica">NT1.14</text>
    </g>
    <g>
     <circle stroke="black" stroke-width="0.5" fill="#aaffff" cx="202.0" cy="598.0" r="1.0"/>
     <text stroke="none" x="202.0" y="598.0" font-size="20.0" font-family="helvetica">Candida bituminiphila CBS 8813T (AF294910)</text>
    </g>
    <g>
     <circle stroke="black" stroke-width="0.5" fill="#aaffff" cx="203.0" cy="192.0" r="1.0"/>
     <text stroke="none" x="203.0" y="192.0" font-size="10.0" font-family="helvetica">NT1.16</text>
    </g>
    <g>
     <circle stroke="black" stroke-width="0.5" fill="#aaffff" cx="208.0" cy="376.0" r="1.0"/>
     <text stroke="none" x="208.0" y="376.0" font-size="10.0" font-family="helvetica">NT1.17</text>
    </g>
    <g>
     <circle stroke="black" stroke-width="0.5" fill="#aaffff" cx="217.0" cy="502.0" r="1.0"/>
     <text stroke="none" x="217.0" y="502.0" font-size="10.0" font-family="helvetica">NT1.18</text>
    </g>
    <g>
     <circle stroke="black" stroke-width="0.5" fill="#aaffff" cx="218.0" cy="482.0" r="1.0"/>
     <text stroke="none" x="218.0" y="482.0" font-size="10.0" font-family="helvetica">NT1.19</text>
    </g>
    <g>
     <circle stroke="black" stroke-width="0.5" fill="#aaffff" cx="218.0" cy="522.0" r="1.0"/>
     <text stroke="none" x="218.0" y="522.0" font-size="10.0" font-family="helvetica">NT1.20</text>
    </g>
    <g>
     <circle stroke="black" stroke-width="0.5" fill="#aaffff" cx="228.0" cy="133.0" r="1.0"/>
     <text stroke="none" x="228.0" y="133.0" font-size="10.0" font-family="helvetica">NT1.21</text>
    </g>
    <g>
     <circle stroke="black" stroke-width="0.5" fill="#aaffff" cx="240.0" cy="763.0" r="1.0"/>
     <text stroke="none" x="240.0" y="763.0" font-size="10.0" font-family="helvetica">NT1.22</text>
    </g>
    <g>
     <circle stroke="black" stroke-width="0.5" fill="#aaffff" cx="247.0" cy="558.0" r="1.0"/>
     <text stroke="none" x="247.0" y="558.0" font-size="10.0" font-family="helvetica">NT1.23</text>
    </g>
    <g>
     <circle stroke="black" stroke-width="0.5" fill="#aaffff" cx="271.0" cy="288.0" r="1.0"/>
     <text stroke="none" x="271.0" y="288.0" font-size="20.0" font-family="helvetica">Sympodiomyces parvus CBS 6147T (U40096)</text>
    </g>
    <g>
     <circle stroke="black" stroke-width="0.5" fill="#aaffff" cx="272.0" cy="347.0" r="1.0"/>
     <text stroke="none" x="272.0" y="347.0" font-size="10.0" font-family="helvetica">NT1.25</text>
    </g>
    <g>
     <circle stroke="black" stroke-width="0.5" fill="#aaffff" cx="273.0" cy="404.0" r="1.0"/>
     <text stroke="none" x="273.0" y="404.0" font-size="20.0" font-family="helvetica">Stephanoascus ciferrii CBS 5295T (U40138)</text>
    </g>
    <g>
     <circle stroke="black" stroke-width="0.5" fill="#aaffff" cx="274.0" cy="74.0" r="1.0"/>
     <text stroke="none" x="274.0" y="74.0" font-size="10.0" font-family="helvetica">NT1.27</text>
    </g>
    <g>
     <circle stroke="black" stroke-width="0.5" fill="#aaffff" cx="274.0" cy="325.0" r="1.0"/>
     <text stroke="none" x="274.0" y="325.0" font-size="20.0" font-family="helvetica">Candida chiropterorum CBS 6O64T (U45822)</text>
    </g>
    <g>
     <circle stroke="black" stroke-width="0.5" fill="#aaffff" cx="284.0" cy="365.0" r="1.0"/>
     <text stroke="none" x="284.0" y="365.0" font-size="20.0" font-family="helvetica">Arxula terrestris CBS 7376T (U40108)</text>
    </g>
    <g>
     <circle stroke="black" stroke-width="0.5" fill="#aaffff" cx="286.0" cy="443.0" r="1.0"/>
     <text stroke="none" x="286.0" y="443.0" font-size="20.0" font-family="helvetica">Arxula adeninivorans CBS 8244T (U40094)</text>
    </g>
    <g>
     <circle stroke="black" stroke-width="0.5" fill="#aaffff" cx="286.0" cy="113.0" r="1.0"/>
     <text stroke="none" x="286.0" y="113.0" font-size="10.0" font-family="helvetica">NT1.31</text>
    </g>
    <g>
     <circle stroke="black" stroke-width="0.5" fill="#aaffff" cx="308.0" cy="248.0" r="1.0"/>
     <text stroke="none" x="308.0" y="248.0" font-size="20.0" font-family="helvetica">Blastobotrys proliferans CBS 522.75T (U40098)</text>
    </g>
    <g>
     <circle stroke="black" stroke-width="0.5" fill="#aaffff" cx="318.0" cy="36.0" r="1.0"/>
     <text stroke="none" x="318.0" y="36.0" font-size="20.0" font-family="helvetica">99</text>
    </g>
    <g>
     <circle stroke="black" stroke-width="0.5" fill="#aaffff" cx="321.0" cy="190.0" r="1.0"/>
     <text stroke="none" x="321.0" y="190.0" font-size="10.0" font-family="helvetica">NT1.34</text>
    </g>
    <g>
     <circle stroke="black" stroke-width="0.5" fill="#aaffff" cx="336.0" cy="209.0" r="1.0"/>
     <text stroke="none" x="336.0" y="209.0" font-size="20.0" font-family="helvetica">Blastobotrys arbuscula CBS 287.83T (U40108)</text>
    </g>
    <g>
     <circle stroke="black" stroke-width="0.5" fill="#aaffff" cx="340.0" cy="654.0" r="1.0"/>
     <text stroke="none" x="340.0" y="654.0" font-size="10.0" font-family="helvetica">NT1.36</text>
    </g>
    <g>
     <circle stroke="black" stroke-width="0.5" fill="#aaffff" cx="344.0" cy="17.0" r="1.0"/>
     <text stroke="none" x="344.0" y="17.0" font-size="20.0" font-family="helvetica">Blastobotrys elegans CBS 53O.83T (U40095)</text>
    </g>
    <g>
     <circle stroke="black" stroke-width="0.5" fill="#aaffff" cx="344.0" cy="678.0" r="1.0"/>
     <text stroke="none" x="344.0" y="678.0" font-size="10.0" font-family="helvetica">NT1.38</text>
    </g>
    <g>
     <circle stroke="black" stroke-width="0.5" fill="#aaffff" cx="344.0" cy="790.0" r="1.0"/>
     <text stroke="none" x="344.0" y="790.0" font-size="10.0" font-family="helvetica">NT1.39</text>
    </g>
    <g>
     <circle stroke="black" stroke-width="0.5" fill="#aaffff" cx="346.0" cy="171.0" r="1.0"/>
     <text stroke="none" x="346.0" y="171.0" font-size="10.0" font-family="helvetica">NT1.40</text>
    </g>
    <g>
     <circle stroke="black" stroke-width="0.5" fill="#aaffff" cx="346.0" cy="637.0" r="1.0"/>
     <text stroke="none" x="346.0" y="637.0" font-size="10.0" font-family="helvetica">NT1.41</text>
    </g>
    <g>
     <circle stroke="black" stroke-width="0.5" fill="#aaffff" cx="361.0" cy="132.0" r="1.0"/>
     <text stroke="none" x="361.0" y="132.0" font-size="20.0" font-family="helvetica">Stephanoascus farinosus CBS 14O.71T (U40132)</text>
    </g>
    <g>
     <circle stroke="black" stroke-width="0.5" fill="#aaffff" cx="361.0" cy="94.0" r="1.0"/>
     <text stroke="none" x="361.0" y="94.0" font-size="10.0" font-family="helvetica">NT1.43</text>
    </g>
    <g>
     <circle stroke="black" stroke-width="0.5" fill="#aaffff" cx="366.0" cy="735.0" r="1.0"/>
     <text stroke="none" x="366.0" y="735.0" font-size="10.0" font-family="helvetica">NT1.44</text>
    </g>
    <g>
     <circle stroke="black" stroke-width="0.5" fill="#aaffff" cx="372.0" cy="56.0" r="1.0"/>
     <text stroke="none" x="372.0" y="56.0" font-size="10.0" font-family="helvetica">NT1.45</text>
    </g>
    <g>
     <circle stroke="black" stroke-width="0.5" fill="#aaffff" cx="394.0" cy="715.0" r="1.0"/>
     <text stroke="none" x="394.0" y="715.0" font-size="20.0" font-family="helvetica">Candida auringiensis CBS 6913T (U62300)</text>
    </g>
    <g>
     <circle stroke="black" stroke-width="0.5" fill="#aaffff" cx="414.0" cy="752.0" r="1.0"/>
     <text stroke="none" x="414.0" y="752.0" font-size="20.0" font-family="helvetica">Candida tartarivorans CBS 7955T (AF105335)</text>
    </g>
    <g>
     <circle stroke="black" stroke-width="0.5" fill="#aaffff" cx="487.0" cy="876.0" r="1.0"/>
     <text stroke="none" x="487.0" y="876.0" font-size="10.0" font-family="helvetica">NT1.48</text>
    </g>
    <g>
     <circle stroke="black" stroke-width="0.5" fill="#aaffff" cx="509.0" cy="850.0" r="1.0"/>
     <text stroke="none" x="509.0" y="850.0" font-size="10.0" font-family="helvetica">NT1.49</text>
    </g>
    <g>
     <circle stroke="black" stroke-width="0.5" fill="#aaffff" cx="510.0" cy="870.0" r="1.0"/>
     <text stroke="none" x="510.0" y="870.0" font-size="20.0" font-family="helvetica">Candida digboiensis TERI-7 (AJ549213)</text>
    </g>
    <g>
     <circle stroke="black" stroke-width="0.5" fill="#aaffff" cx="510.0" cy="828.0" r="1.0"/>
     <text stroke="none" x="510.0" y="828.0" font-size="10.0" font-family="helvetica">NT1.51</text>
    </g>
    <g>
     <circle stroke="black" stroke-width="0.5" fill="#aaffff" cx="521.0" cy="908.0" r="1.0"/>
     <text stroke="none" x="521.0" y="908.0" font-size="20.0" font-family="helvetica">Candida blankii CBS 18987 (U45704)</text>
    </g>
    <g>
     <circle stroke="black" stroke-width="0.5" fill="#aaffff" cx="1.0" cy="923.0" r="1.0"/>
     <text stroke="none" x="1.0" y="923.0" font-size="10.0" font-family="helvetica">NT1.53</text>
    </g>
    <line stroke="black" x1="308.0" y1="248.0" x2="203.0" y2="192.0" stroke-width="0.5"/>
    <line stroke="black" x1="271.0" y1="288.0" x2="167.0" y2="238.0" stroke-width="0.5"/>
    <line stroke="black" x1="286.0" y1="443.0" x2="167.0" y2="393.0" stroke-width="0.5"/>
    <line stroke="black" x1="273.0" y1="404.0" x2="208.0" y2="376.0" stroke-width="0.5"/>
    <line stroke="black" x1="284.0" y1="365.0" x2="272.0" y2="347.0" stroke-width="0.5"/>
    <line stroke="black" x1="172.0" y1="985.0" x2="151.0" y2="966.0" stroke-width="0.5"/>
    <line stroke="black" x1="521.0" y1="908.0" x2="487.0" y2="876.0" stroke-width="0.5"/>
    <line stroke="black" x1="510.0" y1="870.0" x2="509.0" y2="850.0" stroke-width="0.5"/>
    <line stroke="black" x1="274.0" y1="74.0" x2="228.0" y2="133.0" stroke-width="0.5"/>
    <line stroke="black" x1="228.0" y1="133.0" x2="203.0" y2="192.0" stroke-width="0.5"/>
    <line stroke="black" x1="203.0" y1="192.0" x2="167.0" y2="238.0" stroke-width="0.5"/>
    <line stroke="black" x1="167.0" y1="238.0" x2="144.0" y2="326.0" stroke-width="0.5"/>
    <line stroke="black" x1="144.0" y1="326.0" x2="122.0" y2="429.0" stroke-width="0.5"/>
    <line stroke="black" x1="144.0" y1="326.0" x2="167.0" y2="393.0" stroke-width="0.5"/>
    <line stroke="black" x1="167.0" y1="393.0" x2="208.0" y2="376.0" stroke-width="0.5"/>
    <line stroke="black" x1="208.0" y1="376.0" x2="272.0" y2="347.0" stroke-width="0.5"/>
    <line stroke="black" x1="94.0" y1="528.0" x2="78.0" y2="675.0" stroke-width="0.5"/>
    <line stroke="black" x1="272.0" y1="347.0" x2="274.0" y2="325.0" stroke-width="0.5"/>
    <line stroke="black" x1="78.0" y1="675.0" x2="19.0" y2="822.0" stroke-width="0.5"/>
    <line stroke="black" x1="78.0" y1="675.0" x2="96.0" y2="818.0" stroke-width="0.5"/>
    <line stroke="black" x1="96.0" y1="818.0" x2="487.0" y2="876.0" stroke-width="0.5"/>
    <line stroke="black" x1="19.0" y1="822.0" x2="151.0" y2="966.0" stroke-width="0.5"/>
    <line stroke="black" x1="240.0" y1="763.0" x2="366.0" y2="735.0" stroke-width="0.5"/>
    <line stroke="black" x1="1.0" y1="923.0" x2="19.0" y2="822.0" stroke-width="0.5"/>
    <line stroke="black" x1="163.0" y1="947.0" x2="151.0" y2="966.0" stroke-width="0.5"/>
    <line stroke="black" x1="202.0" y1="598.0" x2="123.0" y2="626.0" stroke-width="0.5"/>
    <line stroke="black" x1="361.0" y1="132.0" x2="286.0" y2="113.0" stroke-width="0.5"/>
    <line stroke="black" x1="336.0" y1="209.0" x2="321.0" y2="190.0" stroke-width="0.5"/>
    <line stroke="black" x1="344.0" y1="17.0" x2="318.0" y2="36.0" stroke-width="0.5"/>
    <line stroke="black" x1="394.0" y1="715.0" x2="366.0" y2="735.0" stroke-width="0.5"/>
    <line stroke="black" x1="414.0" y1="752.0" x2="366.0" y2="735.0" stroke-width="0.5"/>
   </g>
  </g>
 </svg>
</svg>
