<?xml version="1.0" encoding="UTF-8"?>
<svg height="800.0" width="700.0" xmlns="http://www.w3.org/2000/svg">
 <svg>
  <g>
   <g>
    <g>
     <circle stroke="black" stroke-width="0.5" fill="#aaffff" cx="137.0" cy="705.0" r="1.0"/>
     <text stroke="none" x="137.0" y="705.0" font-size="10.0" font-family="helvetica">NT1.1</text>
    </g>
    <g>
     <circle stroke="black" stroke-width="0.5" fill="#aaffff" cx="146.0" cy="617.0" r="1.0"/>
     <text stroke="none" x="146.0" y="617.0" font-size="10.0" font-family="helvetica">NT1.2</text>
    </g>
    <g>
     <circle stroke="black" stroke-width="0.5" fill="#aaffff" cx="167.0" cy="574.0" r="1.0"/>
     <text stroke="none" x="167.0" y="574.0" font-size="10.0" font-family="helvetica">NT1.3</text>
    </g>
    <g>
     <circle stroke="black" stroke-width="0.5" fill="#aaffff" cx="187.0" cy="486.0" r="1.0"/>
     <text stroke="none" x="187.0" y="486.0" font-size="10.0" font-family="helvetica">NT1.4</text>
    </g>
    <g>
     <circle stroke="black" stroke-width="0.5" fill="#aaffff" cx="192.0" cy="759.0" r="1.0"/>
     <text stroke="none" x="192.0" y="759.0" font-size="10.0" font-family="helvetica">NT1.5</text>
    </g>
    <g>
     <circle stroke="black" stroke-width="0.5" fill="#aaffff" cx="198.0" cy="442.0" r="1.0"/>
     <text stroke="none" x="198.0" y="442.0" font-size="10.0" font-family="helvetica">NT1.6</text>
    </g>
    <g>
     <circle stroke="black" stroke-width="0.5" fill="#aaffff" cx="249.0" cy="397.0" r="1.0"/>
     <text stroke="none" x="249.0" y="397.0" font-size="10.0" font-family="helvetica">NT1.7</text>
    </g>
    <g>
     <circle stroke="black" stroke-width="0.5" fill="#aaffff" cx="266.0" cy="526.0" r="1.0"/>
     <text stroke="none" x="266.0" y="526.0" font-size="10.0" font-family="helvetica">NT1.8</text>
    </g>
    <g>
     <circle stroke="black" stroke-width="0.5" fill="#aaffff" cx="280.0" cy="310.0" r="1.0"/>
     <text stroke="none" x="280.0" y="310.0" font-size="10.0" font-family="helvetica">NT1.9</text>
    </g>
    <g>
     <circle stroke="black" stroke-width="0.5" fill="#aaffff" cx="291.0" cy="265.0" r="1.0"/>
     <text stroke="none" x="291.0" y="265.0" font-size="10.0" font-family="helvetica">NT1.10</text>
    </g>
    <g>
     <circle stroke="black" stroke-width="0.5" fill="#aaffff" cx="399.0" cy="852.0" r="1.0"/>
     <text stroke="none" x="399.0" y="852.0" font-size="20.0" font-family="helvetica">Flexibacter elegans ATCC 231 1 2T (M58783)</text>
    </g>
    <g>
     <circle stroke="black" stroke-width="0.5" fill="#aaffff" cx="585.0" cy="180.0" r="1.0"/>
     <text stroke="none" x="585.0" y="180.0" font-size="10.0" font-family="helvetica">NT1.12</text>
    </g>
    <g>
     <circle stroke="black" stroke-width="0.5" fill="#aaffff" cx="665.0" cy="593.0" r="1.0"/>
     <text stroke="none" x="665.0" y="593.0" font-size="20.0" font-family="helvetica">Sporocytophaga myxococcoides A ATCC</text>
    </g>
    <g>
     <circle stroke="black" stroke-width="0.5" fill="#aaffff" cx="682.0" cy="790.0" r="1.0"/>
     <text stroke="none" x="682.0" y="790.0" font-size="20.0" font-family="helvetica">Flexibacter tractuosus ATCC 23168T (M58789)</text>
    </g>
    <g>
     <circle stroke="black" stroke-width="0.5" fill="#aaffff" cx="706.0" cy="134.0" r="1.0"/>
     <text stroke="none" x="706.0" y="134.0" font-size="10.0" font-family="helvetica">NT1.15</text>
    </g>
    <g>
     <circle stroke="black" stroke-width="0.5" fill="#aaffff" cx="723.0" cy="352.0" r="1.0"/>
     <text stroke="none" x="723.0" y="352.0" font-size="10.0" font-family="helvetica">NT1.16</text>
    </g>
    <g>
     <circle stroke="black" stroke-width="0.5" fill="#aaffff" cx="728.0" cy="726.0" r="1.0"/>
     <text stroke="none" x="728.0" y="726.0" font-size="20.0" font-family="helvetica">Cyclobacterium marinum ATCC 43824 (M62788)</text>
    </g>
    <g>
     <circle stroke="black" stroke-width="0.5" fill="#aaffff" cx="746.0" cy="219.0" r="1.0"/>
     <text stroke="none" x="746.0" y="219.0" font-size="10.0" font-family="helvetica">NT1.18</text>
    </g>
    <g>
     <circle stroke="black" stroke-width="0.5" fill="#aaffff" cx="750.0" cy="90.0" r="1.0"/>
     <text stroke="none" x="750.0" y="90.0" font-size="10.0" font-family="helvetica">NT1.19</text>
    </g>
    <g>
     <circle stroke="black" stroke-width="0.5" fill="#aaffff" cx="782.0" cy="112.0" r="1.0"/>
     <text stroke="none" x="782.0" y="112.0" font-size="20.0" font-family="helvetica">Isolate GWF23A(AJO11696)</text>
    </g>
    <g>
     <circle stroke="black" stroke-width="0.5" fill="#aaffff" cx="798.0" cy="47.0" r="1.0"/>
     <text stroke="none" x="798.0" y="47.0" font-size="10.0" font-family="helvetica">NT1.21</text>
    </g>
    <g>
     <circle stroke="black" stroke-width="0.5" fill="#aaffff" cx="799.0" cy="22.0" r="1.0"/>
     <text stroke="none" x="799.0" y="22.0" font-size="20.0" font-family="helvetica">Arcicella aquatica NO-502T (AJ535729)</text>
    </g>
    <g>
     <circle stroke="black" stroke-width="0.5" fill="#aaffff" cx="799.0" cy="68.0" r="1.0"/>
     <text stroke="none" x="799.0" y="68.0" font-size="20.0" font-family="helvetica">Bacterium AH57 (AJ289964)</text>
    </g>
    <g>
     <circle stroke="black" stroke-width="0.5" fill="#aaffff" cx="800.0" cy="374.0" r="1.0"/>
     <text stroke="none" x="800.0" y="374.0" font-size="20.0" font-family="helvetica">Cytophaga hutchinsonii ATCC 33406T (M58768)</text>
    </g>
    <g>
     <circle stroke="black" stroke-width="0.5" fill="#aaffff" cx="817.0" cy="330.0" r="1.0"/>
     <text stroke="none" x="817.0" y="330.0" font-size="20.0" font-family="helvetica">Cytophaga aurantiaca ATCC</text>
    </g>
    <g>
     <circle stroke="black" stroke-width="0.5" fill="#aaffff" cx="822.0" cy="658.0" r="1.0"/>
     <text stroke="none" x="822.0" y="658.0" font-size="20.0" font-family="helvetica">Hymenobacter roseosalivarius AA-718T (Y18833)</text>
    </g>
    <g>
     <circle stroke="black" stroke-width="0.5" fill="#aaffff" cx="834.0" cy="244.0" r="1.0"/>
     <text stroke="none" x="834.0" y="244.0" font-size="20.0" font-family="helvetica">Flectobacillus major ATCC 29496T (M62787)</text>
    </g>
    <g>
     <circle stroke="black" stroke-width="0.5" fill="#aaffff" cx="836.0" cy="462.0" r="1.0"/>
     <text stroke="none" x="836.0" y="462.0" font-size="20.0" font-family="helvetica">Flexibacter ruber ATCC 231 O3T (M58788)</text>
    </g>
    <g>
     <circle stroke="black" stroke-width="0.5" fill="#aaffff" cx="845.0" cy="154.0" r="1.0"/>
     <text stroke="none" x="845.0" y="154.0" font-size="20.0" font-family="helvetica">Uncultured bacterium GKS2-216 (AJ290033)</text>
    </g>
    <g>
     <circle stroke="black" stroke-width="0.5" fill="#aaffff" cx="864.0" cy="288.0" r="1.0"/>
     <text stroke="none" x="864.0" y="288.0" font-size="20.0" font-family="helvetica">Flexibacter flexilis ATCC 23079T (M62794)</text>
    </g>
    <g>
     <circle stroke="black" stroke-width="0.5" fill="#aaffff" cx="865.0" cy="198.0" r="1.0"/>
     <text stroke="none" x="865.0" y="198.0" font-size="20.0" font-family="helvetica">Flectobacillus Sp. strain MWH38 (AJO11917)</text>
    </g>
    <g>
     <circle stroke="black" stroke-width="0.5" fill="#aaffff" cx="990.0" cy="549.0" r="1.0"/>
     <text stroke="none" x="990.0" y="549.0" font-size="20.0" font-family="helvetica">Spirosoma linguale ATCC 23276 (M62789)</text>
    </g>
    <g>
     <circle stroke="black" stroke-width="0.5" fill="#aaffff" cx="1047.0" cy="418.0" r="1.0"/>
     <text stroke="none" x="1047.0" y="418.0" font-size="20.0" font-family="helvetica">Runella slithyformis ATCC 2953OT (M62786)</text>
    </g>
    <g>
     <circle stroke="black" stroke-width="0.5" fill="#aaffff" cx="1054.0" cy="508.0" r="1.0"/>
     <text stroke="none" x="1054.0" y="508.0" font-size="20.0" font-family="helvetica">Flexibacter litoralis ATCC 231 1 7T (M58784)</text>
    </g>
    <line stroke="black" x1="799.0" y1="22.0" x2="798.0" y2="47.0" stroke-width="0.5"/>
    <line stroke="black" x1="799.0" y1="68.0" x2="798.0" y2="47.0" stroke-width="0.5"/>
    <line stroke="black" x1="782.0" y1="112.0" x2="750.0" y2="90.0" stroke-width="0.5"/>
    <line stroke="black" x1="817.0" y1="330.0" x2="723.0" y2="352.0" stroke-width="0.5"/>
    <line stroke="black" x1="836.0" y1="462.0" x2="198.0" y2="442.0" stroke-width="0.5"/>
    <line stroke="black" x1="1047.0" y1="418.0" x2="249.0" y2="397.0" stroke-width="0.5"/>
    <line stroke="black" x1="822.0" y1="658.0" x2="146.0" y2="617.0" stroke-width="0.5"/>
    <line stroke="black" x1="798.0" y1="47.0" x2="750.0" y2="90.0" stroke-width="0.5"/>
    <line stroke="black" x1="750.0" y1="90.0" x2="706.0" y2="134.0" stroke-width="0.5"/>
    <line stroke="black" x1="706.0" y1="134.0" x2="585.0" y2="180.0" stroke-width="0.5"/>
    <line stroke="black" x1="585.0" y1="180.0" x2="291.0" y2="265.0" stroke-width="0.5"/>
    <line stroke="black" x1="585.0" y1="180.0" x2="746.0" y2="219.0" stroke-width="0.5"/>
    <line stroke="black" x1="291.0" y1="265.0" x2="280.0" y2="310.0" stroke-width="0.5"/>
    <line stroke="black" x1="280.0" y1="310.0" x2="249.0" y2="397.0" stroke-width="0.5"/>
    <line stroke="black" x1="280.0" y1="310.0" x2="723.0" y2="352.0" stroke-width="0.5"/>
    <line stroke="black" x1="249.0" y1="397.0" x2="198.0" y2="442.0" stroke-width="0.5"/>
    <line stroke="black" x1="198.0" y1="442.0" x2="187.0" y2="486.0" stroke-width="0.5"/>
    <line stroke="black" x1="187.0" y1="486.0" x2="167.0" y2="574.0" stroke-width="0.5"/>
    <line stroke="black" x1="187.0" y1="486.0" x2="266.0" y2="526.0" stroke-width="0.5"/>
    <line stroke="black" x1="167.0" y1="574.0" x2="146.0" y2="617.0" stroke-width="0.5"/>
    <line stroke="black" x1="146.0" y1="617.0" x2="137.0" y2="705.0" stroke-width="0.5"/>
    <line stroke="black" x1="137.0" y1="705.0" x2="192.0" y2="759.0" stroke-width="0.5"/>
    <line stroke="black" x1="399.0" y1="852.0" x2="137.0" y2="705.0" stroke-width="0.5"/>
    <line stroke="black" x1="665.0" y1="593.0" x2="167.0" y2="574.0" stroke-width="0.5"/>
    <line stroke="black" x1="682.0" y1="790.0" x2="192.0" y2="759.0" stroke-width="0.5"/>
    <line stroke="black" x1="728.0" y1="726.0" x2="192.0" y2="759.0" stroke-width="0.5"/>
    <line stroke="black" x1="864.0" y1="288.0" x2="291.0" y2="265.0" stroke-width="0.5"/>
    <line stroke="black" x1="990.0" y1="549.0" x2="266.0" y2="526.0" stroke-width="0.5"/>
    <line stroke="black" x1="1054.0" y1="508.0" x2="266.0" y2="526.0" stroke-width="0.5"/>
    <line stroke="black" x1="845.0" y1="154.0" x2="706.0" y2="134.0" stroke-width="0.5"/>
    <line stroke="black" x1="800.0" y1="374.0" x2="723.0" y2="352.0" stroke-width="0.5"/>
    <line stroke="black" x1="834.0" y1="244.0" x2="746.0" y2="219.0" stroke-width="0.5"/>
    <line stroke="black" x1="865.0" y1="198.0" x2="746.0" y2="219.0" stroke-width="0.5"/>
   </g>
  </g>
 </svg>
</svg>
