<?xml version="1.0" encoding="UTF-8"?>
<svg height="800.0" width="700.0" xmlns="http://www.w3.org/2000/svg">
 <svg>
  <g>
   <g>
    <g>
     <circle stroke="black" stroke-width="0.5" fill="#aaffff" cx="259.0" cy="362.0" r="1.0"/>
     <text stroke="none" x="259.0" y="362.0" font-size="10.0" font-family="helvetica">NT1.1</text>
    </g>
    <g>
     <circle stroke="black" stroke-width="0.5" fill="#aaffff" cx="260.0" cy="727.0" r="1.0"/>
     <text stroke="none" x="260.0" y="727.0" font-size="20.0" font-family="helvetica">Flexibacter flexilis ATCC 23079T (M62794)</text>
    </g>
    <g>
     <circle stroke="black" stroke-width="0.5" fill="#aaffff" cx="270.0" cy="507.0" r="1.0"/>
     <text stroke="none" x="270.0" y="507.0" font-size="10.0" font-family="helvetica">NT1.3</text>
    </g>
    <g>
     <circle stroke="black" stroke-width="0.5" fill="#aaffff" cx="281.0" cy="577.0" r="1.0"/>
     <text stroke="none" x="281.0" y="577.0" font-size="20.0" font-family="helvetica">39</text>
    </g>
    <g>
     <circle stroke="black" stroke-width="0.5" fill="#aaffff" cx="302.0" cy="526.0" r="1.0"/>
     <text stroke="none" x="302.0" y="526.0" font-size="20.0" font-family="helvetica">82</text>
    </g>
    <g>
     <circle stroke="black" stroke-width="0.5" fill="#aaffff" cx="305.0" cy="438.0" r="1.0"/>
     <text stroke="none" x="305.0" y="438.0" font-size="10.0" font-family="helvetica">NT1.6</text>
    </g>
    <g>
     <circle stroke="black" stroke-width="0.5" fill="#aaffff" cx="309.0" cy="627.0" r="1.0"/>
     <text stroke="none" x="309.0" y="627.0" font-size="10.0" font-family="helvetica">NT1.7</text>
    </g>
    <g>
     <circle stroke="black" stroke-width="0.5" fill="#aaffff" cx="321.0" cy="216.0" r="1.0"/>
     <text stroke="none" x="321.0" y="216.0" font-size="20.0" font-family="helvetica">100</text>
    </g>
    <g>
     <circle stroke="black" stroke-width="0.5" fill="#aaffff" cx="322.0" cy="659.0" r="1.0"/>
     <text stroke="none" x="322.0" y="659.0" font-size="20.0" font-family="helvetica">69</text>
    </g>
    <g>
     <circle stroke="black" stroke-width="0.5" fill="#aaffff" cx="347.0" cy="154.0" r="1.0"/>
     <text stroke="none" x="347.0" y="154.0" font-size="20.0" font-family="helvetica">99</text>
    </g>
    <g>
     <circle stroke="black" stroke-width="0.5" fill="#aaffff" cx="365.0" cy="120.0" r="1.0"/>
     <text stroke="none" x="365.0" y="120.0" font-size="20.0" font-family="helvetica">99</text>
    </g>
    <g>
     <circle stroke="black" stroke-width="0.5" fill="#aaffff" cx="366.0" cy="294.0" r="1.0"/>
     <text stroke="none" x="366.0" y="294.0" font-size="20.0" font-family="helvetica">96</text>
    </g>
    <g>
     <circle stroke="black" stroke-width="0.5" fill="#aaffff" cx="379.0" cy="72.0" r="1.0"/>
     <text stroke="none" x="379.0" y="72.0" font-size="10.0" font-family="helvetica">NT1.13</text>
    </g>
    <g>
     <circle stroke="black" stroke-width="0.5" fill="#aaffff" cx="380.0" cy="316.0" r="1.0"/>
     <text stroke="none" x="380.0" y="316.0" font-size="20.0" font-family="helvetica">96</text>
    </g>
    <g>
     <circle stroke="black" stroke-width="0.5" fill="#aaffff" cx="391.0" cy="39.0" r="1.0"/>
     <text stroke="none" x="391.0" y="39.0" font-size="20.0" font-family="helvetica">V</text>
    </g>
    <g>
     <circle stroke="black" stroke-width="0.5" fill="#aaffff" cx="392.0" cy="348.0" r="1.0"/>
     <text stroke="none" x="392.0" y="348.0" font-size="10.0" font-family="helvetica">NT1.16</text>
    </g>
    <g>
     <circle stroke="black" stroke-width="0.5" fill="#aaffff" cx="398.0" cy="504.0" r="1.0"/>
     <text stroke="none" x="398.0" y="504.0" font-size="20.0" font-family="helvetica">Psychroserpens burfonensis ACAM 188T (U62913)</text>
    </g>
    <g>
     <circle stroke="black" stroke-width="0.5" fill="#aaffff" cx="400.0" cy="372.0" r="1.0"/>
     <text stroke="none" x="400.0" y="372.0" font-size="20.0" font-family="helvetica">Polaribacter glomeratus ATCC 438447 (M58775)</text>
    </g>
    <g>
     <circle stroke="black" stroke-width="0.5" fill="#aaffff" cx="401.0" cy="461.0" r="1.0"/>
     <text stroke="none" x="401.0" y="461.0" font-size="10.0" font-family="helvetica">NT1.19</text>
    </g>
    <g>
     <circle stroke="black" stroke-width="0.5" fill="#aaffff" cx="404.0" cy="238.0" r="1.0"/>
     <text stroke="none" x="404.0" y="238.0" font-size="20.0" font-family="helvetica"> Polaribacter irgensii ATCC 700398T (M61002)</text>
    </g>
    <g>
     <circle stroke="black" stroke-width="0.5" fill="#aaffff" cx="411.0" cy="283.0" r="1.0"/>
     <text stroke="none" x="411.0" y="283.0" font-size="10.0" font-family="helvetica">NT1.21</text>
    </g>
    <g>
     <circle stroke="black" stroke-width="0.5" fill="#aaffff" cx="412.0" cy="550.0" r="1.0"/>
     <text stroke="none" x="412.0" y="550.0" font-size="20.0" font-family="helvetica"> Gelidibacter algens ACAM 536T (U62914)</text>
    </g>
    <g>
     <circle stroke="black" stroke-width="0.5" fill="#aaffff" cx="414.0" cy="327.0" r="1.0"/>
     <text stroke="none" x="414.0" y="327.0" font-size="20.0" font-family="helvetica">Polaribacter filamentus ATCC 7003977 (U73726)</text>
    </g>
    <g>
     <circle stroke="black" stroke-width="0.5" fill="#aaffff" cx="419.0" cy="61.0" r="1.0"/>
     <text stroke="none" x="419.0" y="61.0" font-size="10.0" font-family="helvetica">NT1.24</text>
    </g>
    <g>
     <circle stroke="black" stroke-width="0.5" fill="#aaffff" cx="427.0" cy="151.0" r="1.0"/>
     <text stroke="none" x="427.0" y="151.0" font-size="20.0" font-family="helvetica">Tenacibaculum ovolyticum IAM 14318T (AB032506)</text>
    </g>
    <g>
     <circle stroke="black" stroke-width="0.5" fill="#aaffff" cx="429.0" cy="106.0" r="1.0"/>
     <text stroke="none" x="429.0" y="106.0" font-size="20.0" font-family="helvetica"> Tenacibaculum mesophilum MBIC 11407 (AB032501)</text>
    </g>
    <g>
     <circle stroke="black" stroke-width="0.5" fill="#aaffff" cx="431.0" cy="638.0" r="1.0"/>
     <text stroke="none" x="431.0" y="638.0" font-size="10.0" font-family="helvetica">NT1.27</text>
    </g>
    <g>
     <circle stroke="black" stroke-width="0.5" fill="#aaffff" cx="431.0" cy="683.0" r="1.0"/>
     <text stroke="none" x="431.0" y="683.0" font-size="20.0" font-family="helvetica">Salegentibacter salegens ACAM 487 (M92279)</text>
    </g>
    <g>
     <circle stroke="black" stroke-width="0.5" fill="#aaffff" cx="433.0" cy="17.0" r="1.0"/>
     <text stroke="none" x="433.0" y="17.0" font-size="10.0" font-family="helvetica">NT1.29</text>
    </g>
    <g>
     <circle stroke="black" stroke-width="0.5" fill="#aaffff" cx="438.0" cy="194.0" r="1.0"/>
     <text stroke="none" x="438.0" y="194.0" font-size="20.0" font-family="helvetica">Tenacibaculum maritimum NCIMB 2154T (D14023)</text>
    </g>
    <g>
     <circle stroke="black" stroke-width="0.5" fill="#aaffff" cx="440.0" cy="593.0" r="1.0"/>
     <text stroke="none" x="440.0" y="593.0" font-size="10.0" font-family="helvetica">NT1.31</text>
    </g>
    <g>
     <circle stroke="black" stroke-width="0.5" fill="#aaffff" cx="461.0" cy="417.0" r="1.0"/>
     <text stroke="none" x="461.0" y="417.0" font-size="20.0" font-family="helvetica">Zobellia uliginosa ATCC 14397T (M62799)</text>
    </g>
    <g>
     <circle stroke="black" stroke-width="0.5" fill="#aaffff" cx="5.0" cy="544.0" r="1.0"/>
     <text stroke="none" x="5.0" y="544.0" font-size="10.0" font-family="helvetica">NT1.33</text>
    </g>
    <line stroke="black" x1="429.0" y1="106.0" x2="379.0" y2="72.0" stroke-width="0.5"/>
    <line stroke="black" x1="427.0" y1="151.0" x2="365.0" y2="120.0" stroke-width="0.5"/>
    <line stroke="black" x1="404.0" y1="238.0" x2="366.0" y2="294.0" stroke-width="0.5"/>
    <line stroke="black" x1="400.0" y1="372.0" x2="392.0" y2="348.0" stroke-width="0.5"/>
    <line stroke="black" x1="414.0" y1="327.0" x2="392.0" y2="348.0" stroke-width="0.5"/>
    <line stroke="black" x1="398.0" y1="504.0" x2="302.0" y2="526.0" stroke-width="0.5"/>
    <line stroke="black" x1="412.0" y1="550.0" x2="302.0" y2="526.0" stroke-width="0.5"/>
    <line stroke="black" x1="431.0" y1="683.0" x2="322.0" y2="659.0" stroke-width="0.5"/>
    <line stroke="black" x1="365.0" y1="120.0" x2="347.0" y2="154.0" stroke-width="0.5"/>
    <line stroke="black" x1="347.0" y1="154.0" x2="321.0" y2="216.0" stroke-width="0.5"/>
    <line stroke="black" x1="321.0" y1="216.0" x2="259.0" y2="362.0" stroke-width="0.5"/>
    <line stroke="black" x1="321.0" y1="216.0" x2="366.0" y2="294.0" stroke-width="0.5"/>
    <line stroke="black" x1="380.0" y1="316.0" x2="392.0" y2="348.0" stroke-width="0.5"/>
    <line stroke="black" x1="259.0" y1="362.0" x2="270.0" y2="507.0" stroke-width="0.5"/>
    <line stroke="black" x1="270.0" y1="507.0" x2="281.0" y2="577.0" stroke-width="0.5"/>
    <line stroke="black" x1="281.0" y1="577.0" x2="302.0" y2="526.0" stroke-width="0.5"/>
    <line stroke="black" x1="5.0" y1="544.0" x2="260.0" y2="727.0" stroke-width="0.5"/>
    <line stroke="black" x1="5.0" y1="544.0" x2="259.0" y2="362.0" stroke-width="0.5"/>
    <line stroke="black" x1="438.0" y1="194.0" x2="347.0" y2="154.0" stroke-width="0.5"/>
    <line stroke="black" x1="461.0" y1="417.0" x2="305.0" y2="438.0" stroke-width="0.5"/>
   </g>
  </g>
 </svg>
</svg>
