<?xml version="1.0" encoding="UTF-8"?>
<svg height="800.0" width="700.0" xmlns="http://www.w3.org/2000/svg">
 <svg>
  <g>
   <g>
    <g>
     <circle stroke="black" stroke-width="0.5" fill="#aaffff" cx="127.0" cy="827.0" r="1.0"/>
     <text stroke="none" x="127.0" y="827.0" font-size="10.0" font-family="helvetica">NT1.1</text>
    </g>
    <g>
     <circle stroke="black" stroke-width="0.5" fill="#aaffff" cx="372.0" cy="689.0" r="1.0"/>
     <text stroke="none" x="372.0" y="689.0" font-size="10.0" font-family="helvetica">NT1.2</text>
    </g>
    <g>
     <circle stroke="black" stroke-width="0.5" fill="#aaffff" cx="402.0" cy="395.0" r="1.0"/>
     <text stroke="none" x="402.0" y="395.0" font-size="10.0" font-family="helvetica">NT1.3</text>
    </g>
    <g>
     <circle stroke="black" stroke-width="0.5" fill="#aaffff" cx="408.0" cy="553.0" r="1.0"/>
     <text stroke="none" x="408.0" y="553.0" font-size="10.0" font-family="helvetica">NT1.4</text>
    </g>
    <g>
     <circle stroke="black" stroke-width="0.5" fill="#aaffff" cx="432.0" cy="820.0" r="1.0"/>
     <text stroke="none" x="432.0" y="820.0" font-size="10.0" font-family="helvetica">NT1.5</text>
    </g>
    <g>
     <circle stroke="black" stroke-width="0.5" fill="#aaffff" cx="442.0" cy="511.0" r="1.0"/>
     <text stroke="none" x="442.0" y="511.0" font-size="10.0" font-family="helvetica">NT1.6</text>
    </g>
    <g>
     <circle stroke="black" stroke-width="0.5" fill="#aaffff" cx="446.0" cy="325.0" r="1.0"/>
     <text stroke="none" x="446.0" y="325.0" font-size="10.0" font-family="helvetica">NT1.7</text>
    </g>
    <g>
     <circle stroke="black" stroke-width="0.5" fill="#aaffff" cx="455.0" cy="393.0" r="1.0"/>
     <text stroke="none" x="455.0" y="393.0" font-size="10.0" font-family="helvetica">NT1.8</text>
    </g>
    <g>
     <circle stroke="black" stroke-width="0.5" fill="#aaffff" cx="464.0" cy="1046.0" r="1.0"/>
     <text stroke="none" x="464.0" y="1046.0" font-size="20.0" font-family="helvetica">H. marisflavi JCM 108737 (AF251 143)</text>
    </g>
    <g>
     <circle stroke="black" stroke-width="0.5" fill="#aaffff" cx="464.0" cy="281.0" r="1.0"/>
     <text stroke="none" x="464.0" y="281.0" font-size="10.0" font-family="helvetica">NT1.10</text>
    </g>
    <g>
     <circle stroke="black" stroke-width="0.5" fill="#aaffff" cx="477.0" cy="600.0" r="1.0"/>
     <text stroke="none" x="477.0" y="600.0" font-size="10.0" font-family="helvetica">NT1.11</text>
    </g>
    <g>
     <circle stroke="black" stroke-width="0.5" fill="#aaffff" cx="493.0" cy="425.0" r="1.0"/>
     <text stroke="none" x="493.0" y="425.0" font-size="10.0" font-family="helvetica">NT1.12</text>
    </g>
    <g>
     <circle stroke="black" stroke-width="0.5" fill="#aaffff" cx="501.0" cy="869.0" r="1.0"/>
     <text stroke="none" x="501.0" y="869.0" font-size="10.0" font-family="helvetica">NT1.13</text>
    </g>
    <g>
     <circle stroke="black" stroke-width="0.5" fill="#aaffff" cx="518.0" cy="800.0" r="1.0"/>
     <text stroke="none" x="518.0" y="800.0" font-size="10.0" font-family="helvetica">NT1.14</text>
    </g>
    <g>
     <circle stroke="black" stroke-width="0.5" fill="#aaffff" cx="520.0" cy="206.0" r="1.0"/>
     <text stroke="none" x="520.0" y="206.0" font-size="10.0" font-family="helvetica">NT1.15</text>
    </g>
    <g>
     <circle stroke="black" stroke-width="0.5" fill="#aaffff" cx="536.0" cy="682.0" r="1.0"/>
     <text stroke="none" x="536.0" y="682.0" font-size="10.0" font-family="helvetica">NT1.16</text>
    </g>
    <g>
     <circle stroke="black" stroke-width="0.5" fill="#aaffff" cx="559.0" cy="319.0" r="1.0"/>
     <text stroke="none" x="559.0" y="319.0" font-size="20.0" font-family="helvetica">H. pacif7ca DSM 47427 (L42616)</text>
    </g>
    <g>
     <circle stroke="black" stroke-width="0.5" fill="#aaffff" cx="560.0" cy="490.0" r="1.0"/>
     <text stroke="none" x="560.0" y="490.0" font-size="20.0" font-family="helvetica">H. campisalis ATCC 7005977 (AFO54286)</text>
    </g>
    <g>
     <circle stroke="black" stroke-width="0.5" fill="#aaffff" cx="572.0" cy="169.0" r="1.0"/>
     <text stroke="none" x="572.0" y="169.0" font-size="20.0" font-family="helvetica">100</text>
    </g>
    <g>
     <circle stroke="black" stroke-width="0.5" fill="#aaffff" cx="573.0" cy="768.0" r="1.0"/>
     <text stroke="none" x="573.0" y="768.0" font-size="20.0" font-family="helvetica">100</text>
    </g>
    <g>
     <circle stroke="black" stroke-width="0.5" fill="#aaffff" cx="574.0" cy="405.0" r="1.0"/>
     <text stroke="none" x="574.0" y="405.0" font-size="20.0" font-family="helvetica">H. alimentaria JCM 108387 (AF211860)</text>
    </g>
    <g>
     <circle stroke="black" stroke-width="0.5" fill="#aaffff" cx="582.0" cy="362.0" r="1.0"/>
     <text stroke="none" x="582.0" y="362.0" font-size="20.0" font-family="helvetica">H. cupida DSM 47407 (L42615)</text>
    </g>
    <g>
     <circle stroke="black" stroke-width="0.5" fill="#aaffff" cx="582.0" cy="938.0" r="1.0"/>
     <text stroke="none" x="582.0" y="938.0" font-size="10.0" font-family="helvetica">NT1.23</text>
    </g>
    <g>
     <circle stroke="black" stroke-width="0.5" fill="#aaffff" cx="590.0" cy="73.0" r="1.0"/>
     <text stroke="none" x="590.0" y="73.0" font-size="10.0" font-family="helvetica">NT1.24</text>
    </g>
    <g>
     <circle stroke="black" stroke-width="0.5" fill="#aaffff" cx="595.0" cy="533.0" r="1.0"/>
     <text stroke="none" x="595.0" y="533.0" font-size="20.0" font-family="helvetica">H. desiderata DSM 95027 (X92417)</text>
    </g>
    <g>
     <circle stroke="black" stroke-width="0.5" fill="#aaffff" cx="599.0" cy="832.0" r="1.0"/>
     <text stroke="none" x="599.0" y="832.0" font-size="20.0" font-family="helvetica">H. venusta ATCC 271257 (AJ306694)</text>
    </g>
    <g>
     <circle stroke="black" stroke-width="0.5" fill="#aaffff" cx="604.0" cy="897.0" r="1.0"/>
     <text stroke="none" x="604.0" y="897.0" font-size="20.0" font-family="helvetica">93</text>
    </g>
    <g>
     <circle stroke="black" stroke-width="0.5" fill="#aaffff" cx="616.0" cy="981.0" r="1.0"/>
     <text stroke="none" x="616.0" y="981.0" font-size="20.0" font-family="helvetica">100</text>
    </g>
    <g>
     <circle stroke="black" stroke-width="0.5" fill="#aaffff" cx="617.0" cy="746.0" r="1.0"/>
     <text stroke="none" x="617.0" y="746.0" font-size="20.0" font-family="helvetica">H. aquamarine DSM 301617 (AJ306888)</text>
    </g>
    <g>
     <circle stroke="black" stroke-width="0.5" fill="#aaffff" cx="620.0" cy="661.0" r="1.0"/>
     <text stroke="none" x="620.0" y="661.0" font-size="20.0" font-family="helvetica">H. halodurans DSM 51607 (L42619)</text>
    </g>
    <g>
     <circle stroke="black" stroke-width="0.5" fill="#aaffff" cx="620.0" cy="789.0" r="1.0"/>
     <text stroke="none" x="620.0" y="789.0" font-size="20.0" font-family="helvetica">H. meridiana DSM 54257 (AJ306891)</text>
    </g>
    <g>
     <circle stroke="black" stroke-width="0.5" fill="#aaffff" cx="621.0" cy="960.0" r="1.0"/>
     <text stroke="none" x="621.0" y="960.0" font-size="20.0" font-family="helvetica">H. boliviensis LC17 (AY245449)</text>
    </g>
    <g>
     <circle stroke="black" stroke-width="0.5" fill="#aaffff" cx="622.0" cy="618.0" r="1.0"/>
     <text stroke="none" x="622.0" y="618.0" font-size="20.0" font-family="helvetica">H. pantelleriensis DSM 96617 (X93493)</text>
    </g>
    <g>
     <circle stroke="black" stroke-width="0.5" fill="#aaffff" cx="624.0" cy="1004.0" r="1.0"/>
     <text stroke="none" x="624.0" y="1004.0" font-size="20.0" font-family="helvetica">H. boliviensis LC2 (AY245450)</text>
    </g>
    <g>
     <circle stroke="black" stroke-width="0.5" fill="#aaffff" cx="627.0" cy="704.0" r="1.0"/>
     <text stroke="none" x="627.0" y="704.0" font-size="20.0" font-family="helvetica">H. subglaciescola UQM 29267 (AJ306892)</text>
    </g>
    <g>
     <circle stroke="black" stroke-width="0.5" fill="#aaffff" cx="630.0" cy="875.0" r="1.0"/>
     <text stroke="none" x="630.0" y="875.0" font-size="20.0" font-family="helvetica">H. variabilis DSM 30517 (AJ306893)</text>
    </g>
    <g>
     <circle stroke="black" stroke-width="0.5" fill="#aaffff" cx="630.0" cy="918.0" r="1.0"/>
     <text stroke="none" x="630.0" y="918.0" font-size="20.0" font-family="helvetica">'H. glaciei' JCM 11692 (AJ431369)</text>
    </g>
    <g>
     <circle stroke="black" stroke-width="0.5" fill="#aaffff" cx="636.0" cy="254.0" r="1.0"/>
     <text stroke="none" x="636.0" y="254.0" font-size="20.0" font-family="helvetica">799</text>
    </g>
    <g>
     <circle stroke="black" stroke-width="0.5" fill="#aaffff" cx="637.0" cy="275.0" r="1.0"/>
     <text stroke="none" x="637.0" y="275.0" font-size="20.0" font-family="helvetica">H. magadiensis NCIMB 135957 (X92150)</text>
    </g>
    <g>
     <circle stroke="black" stroke-width="0.5" fill="#aaffff" cx="637.0" cy="234.0" r="1.0"/>
     <text stroke="none" x="637.0" y="234.0" font-size="20.0" font-family="helvetica">H. maura DSM 13445T (AJ271864)</text>
    </g>
    <g>
     <circle stroke="black" stroke-width="0.5" fill="#aaffff" cx="638.0" cy="191.0" r="1.0"/>
     <text stroke="none" x="638.0" y="191.0" font-size="20.0" font-family="helvetica">H. salina ATCC 495091 (AJ295145)</text>
    </g>
    <g>
     <circle stroke="black" stroke-width="0.5" fill="#aaffff" cx="638.0" cy="576.0" r="1.0"/>
     <text stroke="none" x="638.0" y="576.0" font-size="20.0" font-family="helvetica">H. muralis LMG 209697 (AJ320530)</text>
    </g>
    <g>
     <circle stroke="black" stroke-width="0.5" fill="#aaffff" cx="644.0" cy="41.0" r="1.0"/>
     <text stroke="none" x="644.0" y="41.0" font-size="10.0" font-family="helvetica">NT1.43</text>
    </g>
    <g>
     <circle stroke="black" stroke-width="0.5" fill="#aaffff" cx="661.0" cy="147.0" r="1.0"/>
     <text stroke="none" x="661.0" y="147.0" font-size="20.0" font-family="helvetica">H. halophila DSM 47707 (M93353)</text>
    </g>
    <g>
     <circle stroke="black" stroke-width="0.5" fill="#aaffff" cx="664.0" cy="19.0" r="1.0"/>
     <text stroke="none" x="664.0" y="19.0" font-size="20.0" font-family="helvetica">H. eurihalina ATCC 493367 (X87218)</text>
    </g>
    <g>
     <circle stroke="black" stroke-width="0.5" fill="#aaffff" cx="667.0" cy="62.0" r="1.0"/>
     <text stroke="none" x="667.0" y="62.0" font-size="20.0" font-family="helvetica">H. elongata ATCC 33173T (M93355)</text>
    </g>
    <g>
     <circle stroke="black" stroke-width="0.5" fill="#aaffff" cx="714.0" cy="105.0" r="1.0"/>
     <text stroke="none" x="714.0" y="105.0" font-size="20.0" font-family="helvetica">H. halmophila NCIMB 1971T (M59153)</text>
    </g>
    <g>
     <circle stroke="black" stroke-width="0.5" fill="#aaffff" cx="714.0" cy="1089.0" r="1.0"/>
     <text stroke="none" x="714.0" y="1089.0" font-size="20.0" font-family="helvetica">Escherichia coli ATCC 117757 (X80725)</text>
    </g>
    <g>
     <circle stroke="black" stroke-width="0.5" fill="#aaffff" cx="717.0" cy="448.0" r="1.0"/>
     <text stroke="none" x="717.0" y="448.0" font-size="20.0" font-family="helvetica">H. halodenitrfficans ATCC 135117 (L04942)</text>
    </g>
    <line stroke="black" x1="661.0" y1="147.0" x2="572.0" y2="169.0" stroke-width="0.5"/>
    <line stroke="black" x1="637.0" y1="275.0" x2="636.0" y2="254.0" stroke-width="0.5"/>
    <line stroke="black" x1="637.0" y1="234.0" x2="636.0" y2="254.0" stroke-width="0.5"/>
    <line stroke="black" x1="559.0" y1="319.0" x2="464.0" y2="281.0" stroke-width="0.5"/>
    <line stroke="black" x1="574.0" y1="405.0" x2="493.0" y2="425.0" stroke-width="0.5"/>
    <line stroke="black" x1="717.0" y1="448.0" x2="493.0" y2="425.0" stroke-width="0.5"/>
    <line stroke="black" x1="560.0" y1="490.0" x2="442.0" y2="511.0" stroke-width="0.5"/>
    <line stroke="black" x1="622.0" y1="618.0" x2="477.0" y2="600.0" stroke-width="0.5"/>
    <line stroke="black" x1="620.0" y1="661.0" x2="536.0" y2="682.0" stroke-width="0.5"/>
    <line stroke="black" x1="621.0" y1="960.0" x2="616.0" y2="981.0" stroke-width="0.5"/>
    <line stroke="black" x1="624.0" y1="1004.0" x2="616.0" y2="981.0" stroke-width="0.5"/>
    <line stroke="black" x1="630.0" y1="875.0" x2="604.0" y2="897.0" stroke-width="0.5"/>
    <line stroke="black" x1="630.0" y1="918.0" x2="604.0" y2="897.0" stroke-width="0.5"/>
    <line stroke="black" x1="644.0" y1="41.0" x2="590.0" y2="73.0" stroke-width="0.5"/>
    <line stroke="black" x1="590.0" y1="73.0" x2="572.0" y2="169.0" stroke-width="0.5"/>
    <line stroke="black" x1="572.0" y1="169.0" x2="520.0" y2="206.0" stroke-width="0.5"/>
    <line stroke="black" x1="520.0" y1="206.0" x2="464.0" y2="281.0" stroke-width="0.5"/>
    <line stroke="black" x1="520.0" y1="206.0" x2="636.0" y2="254.0" stroke-width="0.5"/>
    <line stroke="black" x1="464.0" y1="281.0" x2="446.0" y2="325.0" stroke-width="0.5"/>
    <line stroke="black" x1="446.0" y1="325.0" x2="402.0" y2="395.0" stroke-width="0.5"/>
    <line stroke="black" x1="446.0" y1="325.0" x2="455.0" y2="393.0" stroke-width="0.5"/>
    <line stroke="black" x1="402.0" y1="395.0" x2="408.0" y2="553.0" stroke-width="0.5"/>
    <line stroke="black" x1="455.0" y1="393.0" x2="493.0" y2="425.0" stroke-width="0.5"/>
    <line stroke="black" x1="408.0" y1="553.0" x2="477.0" y2="600.0" stroke-width="0.5"/>
    <line stroke="black" x1="408.0" y1="553.0" x2="442.0" y2="511.0" stroke-width="0.5"/>
    <line stroke="black" x1="372.0" y1="689.0" x2="432.0" y2="820.0" stroke-width="0.5"/>
    <line stroke="black" x1="432.0" y1="820.0" x2="536.0" y2="682.0" stroke-width="0.5"/>
    <line stroke="black" x1="432.0" y1="820.0" x2="501.0" y2="869.0" stroke-width="0.5"/>
    <line stroke="black" x1="501.0" y1="869.0" x2="582.0" y2="938.0" stroke-width="0.5"/>
    <line stroke="black" x1="501.0" y1="869.0" x2="518.0" y2="800.0" stroke-width="0.5"/>
    <line stroke="black" x1="518.0" y1="800.0" x2="573.0" y2="768.0" stroke-width="0.5"/>
    <line stroke="black" x1="573.0" y1="768.0" x2="620.0" y2="789.0" stroke-width="0.5"/>
    <line stroke="black" x1="573.0" y1="768.0" x2="617.0" y2="746.0" stroke-width="0.5"/>
    <line stroke="black" x1="582.0" y1="938.0" x2="604.0" y2="897.0" stroke-width="0.5"/>
    <line stroke="black" x1="582.0" y1="938.0" x2="616.0" y2="981.0" stroke-width="0.5"/>
    <line stroke="black" x1="372.0" y1="689.0" x2="127.0" y2="827.0" stroke-width="0.5"/>
    <line stroke="black" x1="464.0" y1="1046.0" x2="127.0" y2="827.0" stroke-width="0.5"/>
    <line stroke="black" x1="714.0" y1="1089.0" x2="127.0" y2="827.0" stroke-width="0.5"/>
    <line stroke="black" x1="402.0" y1="395.0" x2="372.0" y2="689.0" stroke-width="0.5"/>
    <line stroke="black" x1="595.0" y1="533.0" x2="442.0" y2="511.0" stroke-width="0.5"/>
    <line stroke="black" x1="582.0" y1="362.0" x2="455.0" y2="393.0" stroke-width="0.5"/>
    <line stroke="black" x1="638.0" y1="576.0" x2="477.0" y2="600.0" stroke-width="0.5"/>
    <line stroke="black" x1="599.0" y1="832.0" x2="518.0" y2="800.0" stroke-width="0.5"/>
    <line stroke="black" x1="627.0" y1="704.0" x2="536.0" y2="682.0" stroke-width="0.5"/>
    <line stroke="black" x1="714.0" y1="105.0" x2="590.0" y2="73.0" stroke-width="0.5"/>
    <line stroke="black" x1="638.0" y1="191.0" x2="572.0" y2="169.0" stroke-width="0.5"/>
    <line stroke="black" x1="664.0" y1="19.0" x2="644.0" y2="41.0" stroke-width="0.5"/>
    <line stroke="black" x1="667.0" y1="62.0" x2="644.0" y2="41.0" stroke-width="0.5"/>
   </g>
  </g>
 </svg>
</svg>
