<?xml version="1.0" encoding="UTF-8"?>
<svg height="800.0" width="700.0" xmlns="http://www.w3.org/2000/svg">
 <svg>
  <g>
   <g>
    <g>
     <circle stroke="black" stroke-width="0.5" fill="#aaffff" cx="197.0" cy="552.0" r="1.0"/>
     <text stroke="none" x="197.0" y="552.0" font-size="10.0" font-family="helvetica">NT1.1</text>
    </g>
    <g>
     <circle stroke="black" stroke-width="0.5" fill="#aaffff" cx="235.0" cy="453.0" r="1.0"/>
     <text stroke="none" x="235.0" y="453.0" font-size="10.0" font-family="helvetica">NT1.2</text>
    </g>
    <g>
     <circle stroke="black" stroke-width="0.5" fill="#aaffff" cx="264.0" cy="359.0" r="1.0"/>
     <text stroke="none" x="264.0" y="359.0" font-size="10.0" font-family="helvetica">NT1.3</text>
    </g>
    <g>
     <circle stroke="black" stroke-width="0.5" fill="#aaffff" cx="268.0" cy="547.0" r="1.0"/>
     <text stroke="none" x="268.0" y="547.0" font-size="10.0" font-family="helvetica">NT1.4</text>
    </g>
    <g>
     <circle stroke="black" stroke-width="0.5" fill="#aaffff" cx="271.0" cy="268.0" r="1.0"/>
     <text stroke="none" x="271.0" y="268.0" font-size="10.0" font-family="helvetica">NT1.5</text>
    </g>
    <g>
     <circle stroke="black" stroke-width="0.5" fill="#aaffff" cx="271.0" cy="648.0" r="1.0"/>
     <text stroke="none" x="271.0" y="648.0" font-size="10.0" font-family="helvetica">NT1.6</text>
    </g>
    <g>
     <circle stroke="black" stroke-width="0.5" fill="#aaffff" cx="315.0" cy="219.0" r="1.0"/>
     <text stroke="none" x="315.0" y="219.0" font-size="10.0" font-family="helvetica">NT1.7</text>
    </g>
    <g>
     <circle stroke="black" stroke-width="0.5" fill="#aaffff" cx="323.0" cy="315.0" r="1.0"/>
     <text stroke="none" x="323.0" y="315.0" font-size="10.0" font-family="helvetica">NT1.8</text>
    </g>
    <g>
     <circle stroke="black" stroke-width="0.5" fill="#aaffff" cx="332.0" cy="187.0" r="1.0"/>
     <text stroke="none" x="332.0" y="187.0" font-size="10.0" font-family="helvetica">NT1.9</text>
    </g>
    <g>
     <circle stroke="black" stroke-width="0.5" fill="#aaffff" cx="351.0" cy="674.0" r="1.0"/>
     <text stroke="none" x="351.0" y="674.0" font-size="10.0" font-family="helvetica">NT1.10</text>
    </g>
    <g>
     <circle stroke="black" stroke-width="0.5" fill="#aaffff" cx="354.0" cy="153.0" r="1.0"/>
     <text stroke="none" x="354.0" y="153.0" font-size="10.0" font-family="helvetica">NT1.11</text>
    </g>
    <g>
     <circle stroke="black" stroke-width="0.5" fill="#aaffff" cx="417.0" cy="624.0" r="1.0"/>
     <text stroke="none" x="417.0" y="624.0" font-size="20.0" font-family="helvetica">B. cohnii DSM 63077 (X76437)</text>
    </g>
    <g>
     <circle stroke="black" stroke-width="0.5" fill="#aaffff" cx="420.0" cy="445.0" r="1.0"/>
     <text stroke="none" x="420.0" y="445.0" font-size="10.0" font-family="helvetica">NT1.13</text>
    </g>
    <g>
     <circle stroke="black" stroke-width="0.5" fill="#aaffff" cx="447.0" cy="658.0" r="1.0"/>
     <text stroke="none" x="447.0" y="658.0" font-size="20.0" font-family="helvetica">B. horikoshii DSM 87197 (ABO43865)</text>
    </g>
    <g>
     <circle stroke="black" stroke-width="0.5" fill="#aaffff" cx="467.0" cy="692.0" r="1.0"/>
     <text stroke="none" x="467.0" y="692.0" font-size="20.0" font-family="helvetica">B. halmapalus DSM 87237 (X76447)</text>
    </g>
    <g>
     <circle stroke="black" stroke-width="0.5" fill="#aaffff" cx="500.0" cy="252.0" r="1.0"/>
     <text stroke="none" x="500.0" y="252.0" font-size="20.0" font-family="helvetica">B. herbersteinensis DSM 165347 (AJ781029)</text>
    </g>
    <g>
     <circle stroke="black" stroke-width="0.5" fill="#aaffff" cx="502.0" cy="421.0" r="1.0"/>
     <text stroke="none" x="502.0" y="421.0" font-size="20.0" font-family="helvetica">B. idriensis SMC 4352-27 (AY904033)</text>
    </g>
    <g>
     <circle stroke="black" stroke-width="0.5" fill="#aaffff" cx="505.0" cy="121.0" r="1.0"/>
     <text stroke="none" x="505.0" y="121.0" font-size="20.0" font-family="helvetica">100</text>
    </g>
    <g>
     <circle stroke="black" stroke-width="0.5" fill="#aaffff" cx="505.0" cy="344.0" r="1.0"/>
     <text stroke="none" x="505.0" y="344.0" font-size="10.0" font-family="helvetica">NT1.19</text>
    </g>
    <g>
     <circle stroke="black" stroke-width="0.5" fill="#aaffff" cx="517.0" cy="88.0" r="1.0"/>
     <text stroke="none" x="517.0" y="88.0" font-size="10.0" font-family="helvetica">NT1.20</text>
    </g>
    <g>
     <circle stroke="black" stroke-width="0.5" fill="#aaffff" cx="526.0" cy="59.0" r="1.0"/>
     <text stroke="none" x="526.0" y="59.0" font-size="10.0" font-family="helvetica">NT1.21</text>
    </g>
    <g>
     <circle stroke="black" stroke-width="0.5" fill="#aaffff" cx="528.0" cy="83.0" r="1.0"/>
     <text stroke="none" x="528.0" y="83.0" font-size="20.0" font-family="helvetica">B. niabensis 5752 (DQ176423)</text>
    </g>
    <g>
     <circle stroke="black" stroke-width="0.5" fill="#aaffff" cx="529.0" cy="48.0" r="1.0"/>
     <text stroke="none" x="529.0" y="48.0" font-size="10.0" font-family="helvetica">NT1.23</text>
    </g>
    <g>
     <circle stroke="black" stroke-width="0.5" fill="#aaffff" cx="538.0" cy="49.0" r="1.0"/>
     <text stroke="none" x="538.0" y="49.0" font-size="20.0" font-family="helvetica">B. niabensis 5M45 (DQ176421)</text>
    </g>
    <g>
     <circle stroke="black" stroke-width="0.5" fill="#aaffff" cx="541.0" cy="471.0" r="1.0"/>
     <text stroke="none" x="541.0" y="471.0" font-size="20.0" font-family="helvetica">100</text>
    </g>
    <g>
     <circle stroke="black" stroke-width="0.5" fill="#aaffff" cx="542.0" cy="117.0" r="1.0"/>
     <text stroke="none" x="542.0" y="117.0" font-size="20.0" font-family="helvetica">B. niabensis 4T197 (AY998119)</text>
    </g>
    <g>
     <circle stroke="black" stroke-width="0.5" fill="#aaffff" cx="542.0" cy="455.0" r="1.0"/>
     <text stroke="none" x="542.0" y="455.0" font-size="20.0" font-family="helvetica">B. indicus Sdl37 (AJ583158)</text>
    </g>
    <g>
     <circle stroke="black" stroke-width="0.5" fill="#aaffff" cx="542.0" cy="489.0" r="1.0"/>
     <text stroke="none" x="542.0" y="489.0" font-size="20.0" font-family="helvetica">B. cibi KCTC 38807 (AY550276)</text>
    </g>
    <g>
     <circle stroke="black" stroke-width="0.5" fill="#aaffff" cx="547.0" cy="369.0" r="1.0"/>
     <text stroke="none" x="547.0" y="369.0" font-size="20.0" font-family="helvetica">86</text>
    </g>
    <g>
     <circle stroke="black" stroke-width="0.5" fill="#aaffff" cx="549.0" cy="15.0" r="1.0"/>
     <text stroke="none" x="549.0" y="15.0" font-size="20.0" font-family="helvetica">B. niabensis 4T12 (DQ176420)</text>
    </g>
    <g>
     <circle stroke="black" stroke-width="0.5" fill="#aaffff" cx="549.0" cy="151.0" r="1.0"/>
     <text stroke="none" x="549.0" y="151.0" font-size="20.0" font-family="helvetica">B. niabensis 5M53 (DQ176422)</text>
    </g>
    <g>
     <circle stroke="black" stroke-width="0.5" fill="#aaffff" cx="561.0" cy="218.0" r="1.0"/>
     <text stroke="none" x="561.0" y="218.0" font-size="20.0" font-family="helvetica">B. litoralis KCTC 38987 (AY608605)</text>
    </g>
    <g>
     <circle stroke="black" stroke-width="0.5" fill="#aaffff" cx="584.0" cy="320.0" r="1.0"/>
     <text stroke="none" x="584.0" y="320.0" font-size="20.0" font-family="helvetica">B. flexus NBRC 157157 (AB021185)</text>
    </g>
    <g>
     <circle stroke="black" stroke-width="0.5" fill="#aaffff" cx="589.0" cy="353.0" r="1.0"/>
     <text stroke="none" x="589.0" y="353.0" font-size="20.0" font-family="helvetica">B. megaterium IAM 134187 (D16273)</text>
    </g>
    <g>
     <circle stroke="black" stroke-width="0.5" fill="#aaffff" cx="592.0" cy="572.0" r="1.0"/>
     <text stroke="none" x="592.0" y="572.0" font-size="20.0" font-family="helvetica">100</text>
    </g>
    <g>
     <circle stroke="black" stroke-width="0.5" fill="#aaffff" cx="616.0" cy="387.0" r="1.0"/>
     <text stroke="none" x="616.0" y="387.0" font-size="20.0" font-family="helvetica">B. simplex DSM 1321T (D78478)</text>
    </g>
    <g>
     <circle stroke="black" stroke-width="0.5" fill="#aaffff" cx="621.0" cy="184.0" r="1.0"/>
     <text stroke="none" x="621.0" y="184.0" font-size="20.0" font-family="helvetica">B. fastidiosus DSM 917 (X60615)</text>
    </g>
    <g>
     <circle stroke="black" stroke-width="0.5" fill="#aaffff" cx="652.0" cy="522.0" r="1.0"/>
     <text stroke="none" x="652.0" y="522.0" font-size="20.0" font-family="helvetica">B. cereus IAM 126057 (D16266)</text>
    </g>
    <g>
     <circle stroke="black" stroke-width="0.5" fill="#aaffff" cx="691.0" cy="556.0" r="1.0"/>
     <text stroke="none" x="691.0" y="556.0" font-size="20.0" font-family="helvetica">B. licheniformis DSM 137 (X68416)</text>
    </g>
    <g>
     <circle stroke="black" stroke-width="0.5" fill="#aaffff" cx="700.0" cy="286.0" r="1.0"/>
     <text stroke="none" x="700.0" y="286.0" font-size="20.0" font-family="helvetica">B. psychrosacoharolyticus ATCC 232967 (X60635)</text>
    </g>
    <g>
     <circle stroke="black" stroke-width="0.5" fill="#aaffff" cx="743.0" cy="590.0" r="1.0"/>
     <text stroke="none" x="743.0" y="590.0" font-size="20.0" font-family="helvetica">B. subtilis NCDO 17697 (X60646)</text>
    </g>
    <g>
     <circle stroke="black" stroke-width="0.5" fill="#aaffff" cx="743.0" cy="740.0" r="1.0"/>
     <text stroke="none" x="743.0" y="740.0" font-size="20.0" font-family="helvetica"/>
    </g>
    <line stroke="black" x1="538.0" y1="49.0" x2="529.0" y2="48.0" stroke-width="0.5"/>
    <line stroke="black" x1="500.0" y1="252.0" x2="315.0" y2="219.0" stroke-width="0.5"/>
    <line stroke="black" x1="561.0" y1="218.0" x2="332.0" y2="187.0" stroke-width="0.5"/>
    <line stroke="black" x1="584.0" y1="320.0" x2="505.0" y2="344.0" stroke-width="0.5"/>
    <line stroke="black" x1="589.0" y1="353.0" x2="547.0" y2="369.0" stroke-width="0.5"/>
    <line stroke="black" x1="542.0" y1="455.0" x2="541.0" y2="471.0" stroke-width="0.5"/>
    <line stroke="black" x1="542.0" y1="489.0" x2="541.0" y2="471.0" stroke-width="0.5"/>
    <line stroke="black" x1="417.0" y1="624.0" x2="271.0" y2="648.0" stroke-width="0.5"/>
    <line stroke="black" x1="652.0" y1="522.0" x2="268.0" y2="547.0" stroke-width="0.5"/>
    <line stroke="black" x1="529.0" y1="48.0" x2="526.0" y2="59.0" stroke-width="0.5"/>
    <line stroke="black" x1="526.0" y1="59.0" x2="517.0" y2="88.0" stroke-width="0.5"/>
    <line stroke="black" x1="517.0" y1="88.0" x2="505.0" y2="121.0" stroke-width="0.5"/>
    <line stroke="black" x1="505.0" y1="121.0" x2="354.0" y2="153.0" stroke-width="0.5"/>
    <line stroke="black" x1="354.0" y1="153.0" x2="332.0" y2="187.0" stroke-width="0.5"/>
    <line stroke="black" x1="332.0" y1="187.0" x2="315.0" y2="219.0" stroke-width="0.5"/>
    <line stroke="black" x1="315.0" y1="219.0" x2="271.0" y2="268.0" stroke-width="0.5"/>
    <line stroke="black" x1="271.0" y1="268.0" x2="264.0" y2="359.0" stroke-width="0.5"/>
    <line stroke="black" x1="271.0" y1="268.0" x2="323.0" y2="315.0" stroke-width="0.5"/>
    <line stroke="black" x1="264.0" y1="359.0" x2="235.0" y2="453.0" stroke-width="0.5"/>
    <line stroke="black" x1="264.0" y1="359.0" x2="420.0" y2="445.0" stroke-width="0.5"/>
    <line stroke="black" x1="323.0" y1="315.0" x2="505.0" y2="344.0" stroke-width="0.5"/>
    <line stroke="black" x1="235.0" y1="453.0" x2="197.0" y2="552.0" stroke-width="0.5"/>
    <line stroke="black" x1="235.0" y1="453.0" x2="268.0" y2="547.0" stroke-width="0.5"/>
    <line stroke="black" x1="505.0" y1="344.0" x2="547.0" y2="369.0" stroke-width="0.5"/>
    <line stroke="black" x1="420.0" y1="445.0" x2="541.0" y2="471.0" stroke-width="0.5"/>
    <line stroke="black" x1="268.0" y1="547.0" x2="592.0" y2="572.0" stroke-width="0.5"/>
    <line stroke="black" x1="197.0" y1="552.0" x2="271.0" y2="648.0" stroke-width="0.5"/>
    <line stroke="black" x1="271.0" y1="648.0" x2="351.0" y2="674.0" stroke-width="0.5"/>
    <line stroke="black" x1="743.0" y1="740.0" x2="197.0" y2="552.0" stroke-width="0.5"/>
    <line stroke="black" x1="447.0" y1="658.0" x2="351.0" y2="674.0" stroke-width="0.5"/>
    <line stroke="black" x1="467.0" y1="692.0" x2="351.0" y2="674.0" stroke-width="0.5"/>
    <line stroke="black" x1="621.0" y1="184.0" x2="354.0" y2="153.0" stroke-width="0.5"/>
    <line stroke="black" x1="502.0" y1="421.0" x2="420.0" y2="445.0" stroke-width="0.5"/>
    <line stroke="black" x1="700.0" y1="286.0" x2="323.0" y2="315.0" stroke-width="0.5"/>
    <line stroke="black" x1="549.0" y1="151.0" x2="505.0" y2="121.0" stroke-width="0.5"/>
    <line stroke="black" x1="542.0" y1="117.0" x2="517.0" y2="88.0" stroke-width="0.5"/>
    <line stroke="black" x1="528.0" y1="83.0" x2="526.0" y2="59.0" stroke-width="0.5"/>
    <line stroke="black" x1="549.0" y1="15.0" x2="529.0" y2="48.0" stroke-width="0.5"/>
    <line stroke="black" x1="616.0" y1="387.0" x2="547.0" y2="369.0" stroke-width="0.5"/>
    <line stroke="black" x1="691.0" y1="556.0" x2="592.0" y2="572.0" stroke-width="0.5"/>
    <line stroke="black" x1="743.0" y1="590.0" x2="592.0" y2="572.0" stroke-width="0.5"/>
   </g>
  </g>
 </svg>
</svg>
