<?xml version="1.0" encoding="UTF-8"?>
<svg height="800.0" width="700.0" xmlns="http://www.w3.org/2000/svg">
 <svg>
  <g>
   <g>
    <g>
     <circle stroke="black" stroke-width="0.5" fill="#aaffff" cx="1.0" cy="414.0" r="1.0"/>
     <text stroke="none" x="1.0" y="414.0" font-size="20.0" font-family="helvetica"/>
    </g>
    <g>
     <circle stroke="black" stroke-width="0.5" fill="#aaffff" cx="106.0" cy="415.0" r="1.0"/>
     <text stroke="none" x="106.0" y="415.0" font-size="10.0" font-family="helvetica">NT1.2</text>
    </g>
    <g>
     <circle stroke="black" stroke-width="0.5" fill="#aaffff" cx="171.0" cy="769.0" r="1.0"/>
     <text stroke="none" x="171.0" y="769.0" font-size="20.0" font-family="helvetica">93</text>
    </g>
    <g>
     <circle stroke="black" stroke-width="0.5" fill="#aaffff" cx="248.0" cy="130.0" r="1.0"/>
     <text stroke="none" x="248.0" y="130.0" font-size="20.0" font-family="helvetica">100</text>
    </g>
    <g>
     <circle stroke="black" stroke-width="0.5" fill="#aaffff" cx="303.0" cy="95.0" r="1.0"/>
     <text stroke="none" x="303.0" y="95.0" font-size="20.0" font-family="helvetica">97</text>
    </g>
    <g>
     <circle stroke="black" stroke-width="0.5" fill="#aaffff" cx="326.0" cy="625.0" r="1.0"/>
     <text stroke="none" x="326.0" y="625.0" font-size="20.0" font-family="helvetica">100</text>
    </g>
    <g>
     <circle stroke="black" stroke-width="0.5" fill="#aaffff" cx="351.0" cy="62.0" r="1.0"/>
     <text stroke="none" x="351.0" y="62.0" font-size="20.0" font-family="helvetica">96</text>
    </g>
    <g>
     <circle stroke="black" stroke-width="0.5" fill="#aaffff" cx="363.0" cy="128.0" r="1.0"/>
     <text stroke="none" x="363.0" y="128.0" font-size="20.0" font-family="helvetica">97</text>
    </g>
    <g>
     <circle stroke="black" stroke-width="0.5" fill="#aaffff" cx="441.0" cy="489.0" r="1.0"/>
     <text stroke="none" x="441.0" y="489.0" font-size="20.0" font-family="helvetica">100</text>
    </g>
    <g>
     <circle stroke="black" stroke-width="0.5" fill="#aaffff" cx="444.0" cy="146.0" r="1.0"/>
     <text stroke="none" x="444.0" y="146.0" font-size="20.0" font-family="helvetica">Azospirillum doebereinerae DSM 131317 (AJ238567)</text>
    </g>
    <g>
     <circle stroke="black" stroke-width="0.5" fill="#aaffff" cx="463.0" cy="180.0" r="1.0"/>
     <text stroke="none" x="463.0" y="180.0" font-size="20.0" font-family="helvetica">Azospirillum halopraeferens Au 47 (X79731)</text>
    </g>
    <g>
     <circle stroke="black" stroke-width="0.5" fill="#aaffff" cx="486.0" cy="403.0" r="1.0"/>
     <text stroke="none" x="486.0" y="403.0" font-size="10.0" font-family="helvetica">NT1.12</text>
    </g>
    <g>
     <circle stroke="black" stroke-width="0.5" fill="#aaffff" cx="498.0" cy="114.0" r="1.0"/>
     <text stroke="none" x="498.0" y="114.0" font-size="10.0" font-family="helvetica">NT1.13</text>
    </g>
    <g>
     <circle stroke="black" stroke-width="0.5" fill="#aaffff" cx="502.0" cy="798.0" r="1.0"/>
     <text stroke="none" x="502.0" y="798.0" font-size="10.0" font-family="helvetica">NT1.14</text>
    </g>
    <g>
     <circle stroke="black" stroke-width="0.5" fill="#aaffff" cx="502.0" cy="530.0" r="1.0"/>
     <text stroke="none" x="502.0" y="530.0" font-size="20.0" font-family="helvetica">70</text>
    </g>
    <g>
     <circle stroke="black" stroke-width="0.5" fill="#aaffff" cx="509.0" cy="268.0" r="1.0"/>
     <text stroke="none" x="509.0" y="268.0" font-size="20.0" font-family="helvetica">77</text>
    </g>
    <g>
     <circle stroke="black" stroke-width="0.5" fill="#aaffff" cx="526.0" cy="746.0" r="1.0"/>
     <text stroke="none" x="526.0" y="746.0" font-size="20.0" font-family="helvetica">79</text>
    </g>
    <g>
     <circle stroke="black" stroke-width="0.5" fill="#aaffff" cx="530.0" cy="26.0" r="1.0"/>
     <text stroke="none" x="530.0" y="26.0" font-size="20.0" font-family="helvetica">100</text>
    </g>
    <g>
     <circle stroke="black" stroke-width="0.5" fill="#aaffff" cx="551.0" cy="903.0" r="1.0"/>
     <text stroke="none" x="551.0" y="903.0" font-size="20.0" font-family="helvetica">Rhodovibrio salinarum ATCC 353947 (M59069)</text>
    </g>
    <g>
     <circle stroke="black" stroke-width="0.5" fill="#aaffff" cx="552.0" cy="712.0" r="1.0"/>
     <text stroke="none" x="552.0" y="712.0" font-size="20.0" font-family="helvetica">55</text>
    </g>
    <g>
     <circle stroke="black" stroke-width="0.5" fill="#aaffff" cx="559.0" cy="79.0" r="1.0"/>
     <text stroke="none" x="559.0" y="79.0" font-size="20.0" font-family="helvetica">Azospirillum brasilense sp. 77 (X79739)</text>
    </g>
    <g>
     <circle stroke="black" stroke-width="0.5" fill="#aaffff" cx="582.0" cy="460.0" r="1.0"/>
     <text stroke="none" x="582.0" y="460.0" font-size="10.0" font-family="helvetica">NT1.22</text>
    </g>
    <g>
     <circle stroke="black" stroke-width="0.5" fill="#aaffff" cx="582.0" cy="360.0" r="1.0"/>
     <text stroke="none" x="582.0" y="360.0" font-size="10.0" font-family="helvetica">NT1.23</text>
    </g>
    <g>
     <circle stroke="black" stroke-width="0.5" fill="#aaffff" cx="584.0" cy="234.0" r="1.0"/>
     <text stroke="none" x="584.0" y="234.0" font-size="20.0" font-family="helvetica">100</text>
    </g>
    <g>
     <circle stroke="black" stroke-width="0.5" fill="#aaffff" cx="587.0" cy="680.0" r="1.0"/>
     <text stroke="none" x="587.0" y="680.0" font-size="10.0" font-family="helvetica">NT1.25</text>
    </g>
    <g>
     <circle stroke="black" stroke-width="0.5" fill="#aaffff" cx="596.0" cy="645.0" r="1.0"/>
     <text stroke="none" x="596.0" y="645.0" font-size="10.0" font-family="helvetica">NT1.26</text>
    </g>
    <g>
     <circle stroke="black" stroke-width="0.5" fill="#aaffff" cx="598.0" cy="844.0" r="1.0"/>
     <text stroke="none" x="598.0" y="844.0" font-size="10.0" font-family="helvetica">NT1.27</text>
    </g>
    <g>
     <circle stroke="black" stroke-width="0.5" fill="#aaffff" cx="602.0" cy="561.0" r="1.0"/>
     <text stroke="none" x="602.0" y="561.0" font-size="20.0" font-family="helvetica">Roseomonas aquatica TR537 (AM231587)</text>
    </g>
    <g>
     <circle stroke="black" stroke-width="0.5" fill="#aaffff" cx="611.0" cy="596.0" r="1.0"/>
     <text stroke="none" x="611.0" y="596.0" font-size="10.0" font-family="helvetica">NT1.29</text>
    </g>
    <g>
     <circle stroke="black" stroke-width="0.5" fill="#aaffff" cx="614.0" cy="764.0" r="1.0"/>
     <text stroke="none" x="614.0" y="764.0" font-size="20.0" font-family="helvetica">Acetobacter lovaniensis IFO 137537 (AB032351)</text>
    </g>
    <g>
     <circle stroke="black" stroke-width="0.5" fill="#aaffff" cx="614.0" cy="731.0" r="1.0"/>
     <text stroke="none" x="614.0" y="731.0" font-size="20.0" font-family="helvetica"> Acetobacter estunensis IFO 137517 (AB032349)</text>
    </g>
    <g>
     <circle stroke="black" stroke-width="0.5" fill="#aaffff" cx="625.0" cy="46.0" r="1.0"/>
     <text stroke="none" x="625.0" y="46.0" font-size="20.0" font-family="helvetica">Roseomonas fauriae ATCC 499587 (AY150046)</text>
    </g>
    <g>
     <circle stroke="black" stroke-width="0.5" fill="#aaffff" cx="629.0" cy="816.0" r="1.0"/>
     <text stroke="none" x="629.0" y="816.0" font-size="20.0" font-family="helvetica">94</text>
    </g>
    <g>
     <circle stroke="black" stroke-width="0.5" fill="#aaffff" cx="632.0" cy="336.0" r="1.0"/>
     <text stroke="none" x="632.0" y="336.0" font-size="20.0" font-family="helvetica">91 </text>
    </g>
    <g>
     <circle stroke="black" stroke-width="0.5" fill="#aaffff" cx="634.0" cy="697.0" r="1.0"/>
     <text stroke="none" x="634.0" y="697.0" font-size="10.0" font-family="helvetica">NT1.35</text>
    </g>
    <g>
     <circle stroke="black" stroke-width="0.5" fill="#aaffff" cx="648.0" cy="665.0" r="1.0"/>
     <text stroke="none" x="648.0" y="665.0" font-size="10.0" font-family="helvetica">NT1.36</text>
    </g>
    <g>
     <circle stroke="black" stroke-width="0.5" fill="#aaffff" cx="650.0" cy="630.0" r="1.0"/>
     <text stroke="none" x="650.0" y="630.0" font-size="10.0" font-family="helvetica">NT1.37</text>
    </g>
    <g>
     <circle stroke="black" stroke-width="0.5" fill="#aaffff" cx="653.0" cy="870.0" r="1.0"/>
     <text stroke="none" x="653.0" y="870.0" font-size="20.0" font-family="helvetica"> Gluconobacter oxydans NCIB 90137 (X73820)</text>
    </g>
    <g>
     <circle stroke="black" stroke-width="0.5" fill="#aaffff" cx="656.0" cy="802.0" r="1.0"/>
     <text stroke="none" x="656.0" y="802.0" font-size="20.0" font-family="helvetica">Gluconobacter cerinus IFO 32677 (X80775)</text>
    </g>
    <g>
     <circle stroke="black" stroke-width="0.5" fill="#aaffff" cx="662.0" cy="838.0" r="1.0"/>
     <text stroke="none" x="662.0" y="838.0" font-size="20.0" font-family="helvetica"> Gluconobacter frateurii IFO 32647 (X82290)</text>
    </g>
    <g>
     <circle stroke="black" stroke-width="0.5" fill="#aaffff" cx="668.0" cy="386.0" r="1.0"/>
     <text stroke="none" x="668.0" y="386.0" font-size="10.0" font-family="helvetica">NT1.41</text>
    </g>
    <g>
     <circle stroke="black" stroke-width="0.5" fill="#aaffff" cx="678.0" cy="10.0" r="1.0"/>
     <text stroke="none" x="678.0" y="10.0" font-size="10.0" font-family="helvetica">NT1.42</text>
    </g>
    <g>
     <circle stroke="black" stroke-width="0.5" fill="#aaffff" cx="683.0" cy="302.0" r="1.0"/>
     <text stroke="none" x="683.0" y="302.0" font-size="10.0" font-family="helvetica">NT1.43</text>
    </g>
    <g>
     <circle stroke="black" stroke-width="0.5" fill="#aaffff" cx="684.0" cy="285.0" r="1.0"/>
     <text stroke="none" x="684.0" y="285.0" font-size="10.0" font-family="helvetica">NT1.44</text>
    </g>
    <g>
     <circle stroke="black" stroke-width="0.5" fill="#aaffff" cx="705.0" cy="352.0" r="1.0"/>
     <text stroke="none" x="705.0" y="352.0" font-size="10.0" font-family="helvetica">NT1.45</text>
    </g>
    <g>
     <circle stroke="black" stroke-width="0.5" fill="#aaffff" cx="718.0" cy="497.0" r="1.0"/>
     <text stroke="none" x="718.0" y="497.0" font-size="10.0" font-family="helvetica">NT1.46</text>
    </g>
    <g>
     <circle stroke="black" stroke-width="0.5" fill="#aaffff" cx="719.0" cy="219.0" r="1.0"/>
     <text stroke="none" x="719.0" y="219.0" font-size="20.0" font-family="helvetica">Paracraurooocous ruber NS897 (D85827)</text>
    </g>
    <g>
     <circle stroke="black" stroke-width="0.5" fill="#aaffff" cx="719.0" cy="421.0" r="1.0"/>
     <text stroke="none" x="719.0" y="421.0" font-size="20.0" font-family="helvetica">Muricoccus roseus 173l967 (AJ488505)</text>
    </g>
    <g>
     <circle stroke="black" stroke-width="0.5" fill="#aaffff" cx="750.0" cy="526.0" r="1.0"/>
     <text stroke="none" x="750.0" y="526.0" font-size="20.0" font-family="helvetica"> Roseomonas mucosa ATCC BAA-6927 (AF538712)</text>
    </g>
    <g>
     <circle stroke="black" stroke-width="0.5" fill="#aaffff" cx="755.0" cy="319.0" r="1.0"/>
     <text stroke="none" x="755.0" y="319.0" font-size="10.0" font-family="helvetica">NT1.50</text>
    </g>
    <g>
     <circle stroke="black" stroke-width="0.5" fill="#aaffff" cx="800.0" cy="252.0" r="1.0"/>
     <text stroke="none" x="800.0" y="252.0" font-size="20.0" font-family="helvetica">Roseococcus thiosulfatophilus RB37 (X72908)</text>
    </g>
    <g>
     <circle stroke="black" stroke-width="0.5" fill="#aaffff" cx="802.0" cy="474.0" r="1.0"/>
     <text stroke="none" x="802.0" y="474.0" font-size="10.0" font-family="helvetica">NT1.52</text>
    </g>
    <g>
     <circle stroke="black" stroke-width="0.5" fill="#aaffff" cx="823.0" cy="490.0" r="1.0"/>
     <text stroke="none" x="823.0" y="490.0" font-size="10.0" font-family="helvetica">NT1.53</text>
    </g>
    <g>
     <circle stroke="black" stroke-width="0.5" fill="#aaffff" cx="835.0" cy="457.0" r="1.0"/>
     <text stroke="none" x="835.0" y="457.0" font-size="10.0" font-family="helvetica">NT1.54</text>
    </g>
    <line stroke="black" x1="625.0" y1="46.0" x2="530.0" y2="26.0" stroke-width="0.5"/>
    <line stroke="black" x1="559.0" y1="79.0" x2="351.0" y2="62.0" stroke-width="0.5"/>
    <line stroke="black" x1="444.0" y1="146.0" x2="363.0" y2="128.0" stroke-width="0.5"/>
    <line stroke="black" x1="463.0" y1="180.0" x2="248.0" y2="130.0" stroke-width="0.5"/>
    <line stroke="black" x1="1.0" y1="414.0" x2="106.0" y2="415.0" stroke-width="0.5"/>
    <line stroke="black" x1="551.0" y1="903.0" x2="171.0" y2="769.0" stroke-width="0.5"/>
    <line stroke="black" x1="614.0" y1="764.0" x2="526.0" y2="746.0" stroke-width="0.5"/>
    <line stroke="black" x1="614.0" y1="731.0" x2="552.0" y2="712.0" stroke-width="0.5"/>
    <line stroke="black" x1="653.0" y1="870.0" x2="598.0" y2="844.0" stroke-width="0.5"/>
    <line stroke="black" x1="656.0" y1="802.0" x2="629.0" y2="816.0" stroke-width="0.5"/>
    <line stroke="black" x1="662.0" y1="838.0" x2="629.0" y2="816.0" stroke-width="0.5"/>
    <line stroke="black" x1="602.0" y1="561.0" x2="502.0" y2="530.0" stroke-width="0.5"/>
    <line stroke="black" x1="719.0" y1="219.0" x2="584.0" y2="234.0" stroke-width="0.5"/>
    <line stroke="black" x1="719.0" y1="421.0" x2="582.0" y2="460.0" stroke-width="0.5"/>
    <line stroke="black" x1="800.0" y1="252.0" x2="584.0" y2="234.0" stroke-width="0.5"/>
    <line stroke="black" x1="750.0" y1="526.0" x2="718.0" y2="497.0" stroke-width="0.5"/>
    <line stroke="black" x1="351.0" y1="62.0" x2="303.0" y2="95.0" stroke-width="0.5"/>
    <line stroke="black" x1="303.0" y1="95.0" x2="248.0" y2="130.0" stroke-width="0.5"/>
    <line stroke="black" x1="248.0" y1="130.0" x2="106.0" y2="415.0" stroke-width="0.5"/>
    <line stroke="black" x1="106.0" y1="415.0" x2="171.0" y2="769.0" stroke-width="0.5"/>
    <line stroke="black" x1="171.0" y1="769.0" x2="326.0" y2="625.0" stroke-width="0.5"/>
    <line stroke="black" x1="326.0" y1="625.0" x2="502.0" y2="798.0" stroke-width="0.5"/>
    <line stroke="black" x1="441.0" y1="489.0" x2="486.0" y2="403.0" stroke-width="0.5"/>
    <line stroke="black" x1="502.0" y1="798.0" x2="598.0" y2="844.0" stroke-width="0.5"/>
    <line stroke="black" x1="502.0" y1="798.0" x2="526.0" y2="746.0" stroke-width="0.5"/>
    <line stroke="black" x1="486.0" y1="403.0" x2="502.0" y2="530.0" stroke-width="0.5"/>
    <line stroke="black" x1="598.0" y1="844.0" x2="629.0" y2="816.0" stroke-width="0.5"/>
    <line stroke="black" x1="502.0" y1="530.0" x2="582.0" y2="460.0" stroke-width="0.5"/>
    <line stroke="black" x1="509.0" y1="268.0" x2="584.0" y2="234.0" stroke-width="0.5"/>
   </g>
  </g>
 </svg>
</svg>
