<?xml version="1.0" encoding="UTF-8"?>
<svg height="800.0" width="700.0" xmlns="http://www.w3.org/2000/svg">
 <svg>
  <g>
   <g>
    <g>
     <circle stroke="black" stroke-width="0.5" fill="#aaffff" cx="11.0" cy="210.0" r="1.0"/>
     <text stroke="none" x="11.0" y="210.0" font-size="20.0" font-family="helvetica"/>
    </g>
    <g>
     <circle stroke="black" stroke-width="0.5" fill="#aaffff" cx="31.0" cy="210.0" r="1.0"/>
     <text stroke="none" x="31.0" y="210.0" font-size="10.0" font-family="helvetica">NT1.2</text>
    </g>
    <g>
     <circle stroke="black" stroke-width="0.5" fill="#aaffff" cx="99.0" cy="116.0" r="1.0"/>
     <text stroke="none" x="99.0" y="116.0" font-size="20.0" font-family="helvetica">77</text>
    </g>
    <g>
     <circle stroke="black" stroke-width="0.5" fill="#aaffff" cx="211.0" cy="300.0" r="1.0"/>
     <text stroke="none" x="211.0" y="300.0" font-size="20.0" font-family="helvetica">100</text>
    </g>
    <g>
     <circle stroke="black" stroke-width="0.5" fill="#aaffff" cx="222.0" cy="386.0" r="1.0"/>
     <text stroke="none" x="222.0" y="386.0" font-size="20.0" font-family="helvetica">63</text>
    </g>
    <g>
     <circle stroke="black" stroke-width="0.5" fill="#aaffff" cx="230.0" cy="310.0" r="1.0"/>
     <text stroke="none" x="230.0" y="310.0" font-size="10.0" font-family="helvetica">NT1.6</text>
    </g>
    <g>
     <circle stroke="black" stroke-width="0.5" fill="#aaffff" cx="237.0" cy="279.0" r="1.0"/>
     <text stroke="none" x="237.0" y="279.0" font-size="10.0" font-family="helvetica">NT1.7</text>
    </g>
    <g>
     <circle stroke="black" stroke-width="0.5" fill="#aaffff" cx="256.0" cy="461.0" r="1.0"/>
     <text stroke="none" x="256.0" y="461.0" font-size="20.0" font-family="helvetica">97</text>
    </g>
    <g>
     <circle stroke="black" stroke-width="0.5" fill="#aaffff" cx="258.0" cy="421.0" r="1.0"/>
     <text stroke="none" x="258.0" y="421.0" font-size="10.0" font-family="helvetica">NT1.9</text>
    </g>
    <g>
     <circle stroke="black" stroke-width="0.5" fill="#aaffff" cx="260.0" cy="522.0" r="1.0"/>
     <text stroke="none" x="260.0" y="522.0" font-size="10.0" font-family="helvetica">NT1.10</text>
    </g>
    <g>
     <circle stroke="black" stroke-width="0.5" fill="#aaffff" cx="292.0" cy="524.0" r="1.0"/>
     <text stroke="none" x="292.0" y="524.0" font-size="10.0" font-family="helvetica">NT1.11</text>
    </g>
    <g>
     <circle stroke="black" stroke-width="0.5" fill="#aaffff" cx="293.0" cy="300.0" r="1.0"/>
     <text stroke="none" x="293.0" y="300.0" font-size="10.0" font-family="helvetica">NT1.12</text>
    </g>
    <g>
     <circle stroke="black" stroke-width="0.5" fill="#aaffff" cx="295.0" cy="421.0" r="1.0"/>
     <text stroke="none" x="295.0" y="421.0" font-size="20.0" font-family="helvetica"> Chondromyces pediculatus Cm p17 (AJ233940)</text>
    </g>
    <g>
     <circle stroke="black" stroke-width="0.5" fill="#aaffff" cx="299.0" cy="546.0" r="1.0"/>
     <text stroke="none" x="299.0" y="546.0" font-size="20.0" font-family="helvetica"> Chondromyces apiculatus Cm a2 (M94274)</text>
    </g>
    <g>
     <circle stroke="black" stroke-width="0.5" fill="#aaffff" cx="302.0" cy="381.0" r="1.0"/>
     <text stroke="none" x="302.0" y="381.0" font-size="10.0" font-family="helvetica">NT1.15</text>
    </g>
    <g>
     <circle stroke="black" stroke-width="0.5" fill="#aaffff" cx="305.0" cy="638.0" r="1.0"/>
     <text stroke="none" x="305.0" y="638.0" font-size="10.0" font-family="helvetica">NT1.16</text>
    </g>
    <g>
     <circle stroke="black" stroke-width="0.5" fill="#aaffff" cx="308.0" cy="257.0" r="1.0"/>
     <text stroke="none" x="308.0" y="257.0" font-size="20.0" font-family="helvetica"> Byssovorax cruenta DSM 145537 (AJB33647)</text>
    </g>
    <g>
     <circle stroke="black" stroke-width="0.5" fill="#aaffff" cx="314.0" cy="463.0" r="1.0"/>
     <text stroke="none" x="314.0" y="463.0" font-size="20.0" font-family="helvetica">Chondromyces crocatus Cm c6 (M94275)</text>
    </g>
    <g>
     <circle stroke="black" stroke-width="0.5" fill="#aaffff" cx="316.0" cy="340.0" r="1.0"/>
     <text stroke="none" x="316.0" y="340.0" font-size="10.0" font-family="helvetica">NT1.19</text>
    </g>
    <g>
     <circle stroke="black" stroke-width="0.5" fill="#aaffff" cx="316.0" cy="504.0" r="1.0"/>
     <text stroke="none" x="316.0" y="504.0" font-size="10.0" font-family="helvetica">NT1.20</text>
    </g>
    <g>
     <circle stroke="black" stroke-width="0.5" fill="#aaffff" cx="318.0" cy="216.0" r="1.0"/>
     <text stroke="none" x="318.0" y="216.0" font-size="10.0" font-family="helvetica">NT1.21</text>
    </g>
    <g>
     <circle stroke="black" stroke-width="0.5" fill="#aaffff" cx="321.0" cy="175.0" r="1.0"/>
     <text stroke="none" x="321.0" y="175.0" font-size="20.0" font-family="helvetica">Polyangium vitellinum PI vt1 (AJ233944)</text>
    </g>
    <g>
     <circle stroke="black" stroke-width="0.5" fill="#aaffff" cx="354.0" cy="669.0" r="1.0"/>
     <text stroke="none" x="354.0" y="669.0" font-size="10.0" font-family="helvetica">NT1.23</text>
    </g>
    <g>
     <circle stroke="black" stroke-width="0.5" fill="#aaffff" cx="355.0" cy="608.0" r="1.0"/>
     <text stroke="none" x="355.0" y="608.0" font-size="20.0" font-family="helvetica">74</text>
    </g>
    <g>
     <circle stroke="black" stroke-width="0.5" fill="#aaffff" cx="364.0" cy="629.0" r="1.0"/>
     <text stroke="none" x="364.0" y="629.0" font-size="10.0" font-family="helvetica">NT1.25</text>
    </g>
    <g>
     <circle stroke="black" stroke-width="0.5" fill="#aaffff" cx="366.0" cy="59.0" r="1.0"/>
     <text stroke="none" x="366.0" y="59.0" font-size="20.0" font-family="helvetica">100</text>
    </g>
    <g>
     <circle stroke="black" stroke-width="0.5" fill="#aaffff" cx="369.0" cy="586.0" r="1.0"/>
     <text stroke="none" x="369.0" y="586.0" font-size="10.0" font-family="helvetica">NT1.27</text>
    </g>
    <g>
     <circle stroke="black" stroke-width="0.5" fill="#aaffff" cx="371.0" cy="103.0" r="1.0"/>
     <text stroke="none" x="371.0" y="103.0" font-size="20.0" font-family="helvetica">84</text>
    </g>
    <g>
     <circle stroke="black" stroke-width="0.5" fill="#aaffff" cx="375.0" cy="135.0" r="1.0"/>
     <text stroke="none" x="375.0" y="135.0" font-size="20.0" font-family="helvetica">Nannocystis exedens Na e571 (AJ233947)</text>
    </g>
    <g>
     <circle stroke="black" stroke-width="0.5" fill="#aaffff" cx="381.0" cy="12.0" r="1.0"/>
     <text stroke="none" x="381.0" y="12.0" font-size="10.0" font-family="helvetica">NT1.30</text>
    </g>
    <g>
     <circle stroke="black" stroke-width="0.5" fill="#aaffff" cx="382.0" cy="72.0" r="1.0"/>
     <text stroke="none" x="382.0" y="72.0" font-size="10.0" font-family="helvetica">NT1.31</text>
    </g>
    <g>
     <circle stroke="black" stroke-width="0.5" fill="#aaffff" cx="383.0" cy="91.0" r="1.0"/>
     <text stroke="none" x="383.0" y="91.0" font-size="20.0" font-family="helvetica">Nannocystis exedens ATCC 25963T (M25963)</text>
    </g>
    <g>
     <circle stroke="black" stroke-width="0.5" fill="#aaffff" cx="397.0" cy="51.0" r="1.0"/>
     <text stroke="none" x="397.0" y="51.0" font-size="10.0" font-family="helvetica">NT1.33</text>
    </g>
    <line stroke="black" x1="375.0" y1="135.0" x2="371.0" y2="103.0" stroke-width="0.5"/>
    <line stroke="black" x1="383.0" y1="91.0" x2="382.0" y2="72.0" stroke-width="0.5"/>
    <line stroke="black" x1="11.0" y1="210.0" x2="31.0" y2="210.0" stroke-width="0.5"/>
    <line stroke="black" x1="321.0" y1="175.0" x2="99.0" y2="116.0" stroke-width="0.5"/>
    <line stroke="black" x1="295.0" y1="421.0" x2="258.0" y2="421.0" stroke-width="0.5"/>
    <line stroke="black" x1="314.0" y1="463.0" x2="260.0" y2="522.0" stroke-width="0.5"/>
    <line stroke="black" x1="366.0" y1="59.0" x2="371.0" y2="103.0" stroke-width="0.5"/>
    <line stroke="black" x1="99.0" y1="116.0" x2="31.0" y2="210.0" stroke-width="0.5"/>
    <line stroke="black" x1="211.0" y1="300.0" x2="222.0" y2="386.0" stroke-width="0.5"/>
    <line stroke="black" x1="222.0" y1="386.0" x2="256.0" y2="461.0" stroke-width="0.5"/>
    <line stroke="black" x1="308.0" y1="257.0" x2="237.0" y2="279.0" stroke-width="0.5"/>
    <line stroke="black" x1="256.0" y1="461.0" x2="260.0" y2="522.0" stroke-width="0.5"/>
    <line stroke="black" x1="299.0" y1="546.0" x2="292.0" y2="524.0" stroke-width="0.5"/>
   </g>
  </g>
 </svg>
</svg>
