<?xml version="1.0" encoding="UTF-8"?>
<svg height="800.0" width="700.0" xmlns="http://www.w3.org/2000/svg">
 <svg>
  <g>
   <g>
    <g>
     <circle stroke="black" stroke-width="0.5" fill="#aaffff" cx="336.0" cy="718.0" r="1.0"/>
     <text stroke="none" x="336.0" y="718.0" font-size="10.0" font-family="helvetica">NT1.1</text>
    </g>
    <g>
     <circle stroke="black" stroke-width="0.5" fill="#aaffff" cx="491.0" cy="653.0" r="1.0"/>
     <text stroke="none" x="491.0" y="653.0" font-size="10.0" font-family="helvetica">NT1.2</text>
    </g>
    <g>
     <circle stroke="black" stroke-width="0.5" fill="#aaffff" cx="519.0" cy="564.0" r="1.0"/>
     <text stroke="none" x="519.0" y="564.0" font-size="10.0" font-family="helvetica">NT1.3</text>
    </g>
    <g>
     <circle stroke="black" stroke-width="0.5" fill="#aaffff" cx="579.0" cy="531.0" r="1.0"/>
     <text stroke="none" x="579.0" y="531.0" font-size="10.0" font-family="helvetica">NT1.4</text>
    </g>
    <g>
     <circle stroke="black" stroke-width="0.5" fill="#aaffff" cx="597.0" cy="677.0" r="1.0"/>
     <text stroke="none" x="597.0" y="677.0" font-size="10.0" font-family="helvetica">NT1.5</text>
    </g>
    <g>
     <circle stroke="black" stroke-width="0.5" fill="#aaffff" cx="628.0" cy="322.0" r="1.0"/>
     <text stroke="none" x="628.0" y="322.0" font-size="10.0" font-family="helvetica">NT1.6</text>
    </g>
    <g>
     <circle stroke="black" stroke-width="0.5" fill="#aaffff" cx="641.0" cy="147.0" r="1.0"/>
     <text stroke="none" x="641.0" y="147.0" font-size="10.0" font-family="helvetica">NT1.7</text>
    </g>
    <g>
     <circle stroke="black" stroke-width="0.5" fill="#aaffff" cx="662.0" cy="71.0" r="1.0"/>
     <text stroke="none" x="662.0" y="71.0" font-size="10.0" font-family="helvetica">NT1.8</text>
    </g>
    <g>
     <circle stroke="black" stroke-width="0.5" fill="#aaffff" cx="677.0" cy="412.0" r="1.0"/>
     <text stroke="none" x="677.0" y="412.0" font-size="10.0" font-family="helvetica">NT1.9</text>
    </g>
    <g>
     <circle stroke="black" stroke-width="0.5" fill="#aaffff" cx="679.0" cy="224.0" r="1.0"/>
     <text stroke="none" x="679.0" y="224.0" font-size="10.0" font-family="helvetica">NT1.10</text>
    </g>
    <g>
     <circle stroke="black" stroke-width="0.5" fill="#aaffff" cx="695.0" cy="38.0" r="1.0"/>
     <text stroke="none" x="695.0" y="38.0" font-size="10.0" font-family="helvetica">NT1.11</text>
    </g>
    <g>
     <circle stroke="black" stroke-width="0.5" fill="#aaffff" cx="711.0" cy="479.0" r="1.0"/>
     <text stroke="none" x="711.0" y="479.0" font-size="10.0" font-family="helvetica">NT1.12</text>
    </g>
    <g>
     <circle stroke="black" stroke-width="0.5" fill="#aaffff" cx="745.0" cy="101.0" r="1.0"/>
     <text stroke="none" x="745.0" y="101.0" font-size="20.0" font-family="helvetica">L. satsumensis NRIC O6O4T(AB154519)</text>
    </g>
    <g>
     <circle stroke="black" stroke-width="0.5" fill="#aaffff" cx="752.0" cy="516.0" r="1.0"/>
     <text stroke="none" x="752.0" y="516.0" font-size="10.0" font-family="helvetica">NT1.14</text>
    </g>
    <g>
     <circle stroke="black" stroke-width="0.5" fill="#aaffff" cx="760.0" cy="785.0" r="1.0"/>
     <text stroke="none" x="760.0" y="785.0" font-size="20.0" font-family="helvetica">L. plantarum L137 (AB112083)</text>
    </g>
    <g>
     <circle stroke="black" stroke-width="0.5" fill="#aaffff" cx="775.0" cy="656.0" r="1.0"/>
     <text stroke="none" x="775.0" y="656.0" font-size="20.0" font-family="helvetica">Pediococcus damnosus DSM 20331T</text>
    </g>
    <g>
     <circle stroke="black" stroke-width="0.5" fill="#aaffff" cx="791.0" cy="273.0" r="1.0"/>
     <text stroke="none" x="791.0" y="273.0" font-size="20.0" font-family="helvetica">L. mali DSM 2044-4T (M58824)</text>
    </g>
    <g>
     <circle stroke="black" stroke-width="0.5" fill="#aaffff" cx="809.0" cy="549.0" r="1.0"/>
     <text stroke="none" x="809.0" y="549.0" font-size="10.0" font-family="helvetica">NT1.18</text>
    </g>
    <g>
     <circle stroke="black" stroke-width="0.5" fill="#aaffff" cx="814.0" cy="700.0" r="1.0"/>
     <text stroke="none" x="814.0" y="700.0" font-size="20.0" font-family="helvetica">Pediococcus acidilactici DSM 20284T (AJ305320)</text>
    </g>
    <g>
     <circle stroke="black" stroke-width="0.5" fill="#aaffff" cx="822.0" cy="231.0" r="1.0"/>
     <text stroke="none" x="822.0" y="231.0" font-size="20.0" font-family="helvetica">L. sucicola NRIC 0737 (AB458682)</text>
    </g>
    <g>
     <circle stroke="black" stroke-width="0.5" fill="#aaffff" cx="823.0" cy="201.0" r="1.0"/>
     <text stroke="none" x="823.0" y="201.0" font-size="10.0" font-family="helvetica">NT1.21</text>
    </g>
    <g>
     <circle stroke="black" stroke-width="0.5" fill="#aaffff" cx="824.0" cy="143.0" r="1.0"/>
     <text stroke="none" x="824.0" y="143.0" font-size="20.0" font-family="helvetica"/>
    </g>
    <g>
     <circle stroke="black" stroke-width="0.5" fill="#aaffff" cx="829.0" cy="615.0" r="1.0"/>
     <text stroke="none" x="829.0" y="615.0" font-size="20.0" font-family="helvetica">L. algidus JCM 10491 T (AB033209)</text>
    </g>
    <g>
     <circle stroke="black" stroke-width="0.5" fill="#aaffff" cx="848.0" cy="742.0" r="1.0"/>
     <text stroke="none" x="848.0" y="742.0" font-size="20.0" font-family="helvetica">L. casei BL23 (AF385770)</text>
    </g>
    <g>
     <circle stroke="black" stroke-width="0.5" fill="#aaffff" cx="859.0" cy="349.0" r="1.0"/>
     <text stroke="none" x="859.0" y="349.0" font-size="10.0" font-family="helvetica">NT1.25</text>
    </g>
    <g>
     <circle stroke="black" stroke-width="0.5" fill="#aaffff" cx="863.0" cy="828.0" r="1.0"/>
     <text stroke="none" x="863.0" y="828.0" font-size="20.0" font-family="helvetica">Oenococcus oeniJCM 6125T(AB022924)</text>
    </g>
    <g>
     <circle stroke="black" stroke-width="0.5" fill="#aaffff" cx="866.0" cy="486.0" r="1.0"/>
     <text stroke="none" x="866.0" y="486.0" font-size="20.0" font-family="helvetica"/>
    </g>
    <g>
     <circle stroke="black" stroke-width="0.5" fill="#aaffff" cx="874.0" cy="377.0" r="1.0"/>
     <text stroke="none" x="874.0" y="377.0" font-size="10.0" font-family="helvetica">NT1.28</text>
    </g>
    <g>
     <circle stroke="black" stroke-width="0.5" fill="#aaffff" cx="884.0" cy="401.0" r="1.0"/>
     <text stroke="none" x="884.0" y="401.0" font-size="20.0" font-family="helvetica">L. murfnus ASF 361 (AF157049)</text>
    </g>
    <g>
     <circle stroke="black" stroke-width="0.5" fill="#aaffff" cx="885.0" cy="59.0" r="1.0"/>
     <text stroke="none" x="885.0" y="59.0" font-size="20.0" font-family="helvetica">L. Vini DSM 2O6O5T (AJ578009)</text>
    </g>
    <g>
     <circle stroke="black" stroke-width="0.5" fill="#aaffff" cx="892.0" cy="357.0" r="1.0"/>
     <text stroke="none" x="892.0" y="357.0" font-size="20.0" font-family="helvetica">L. animalis DSM QOGOQT (M58807)</text>
    </g>
    <g>
     <circle stroke="black" stroke-width="0.5" fill="#aaffff" cx="895.0" cy="443.0" r="1.0"/>
     <text stroke="none" x="895.0" y="443.0" font-size="20.0" font-family="helvetica"/>
    </g>
    <g>
     <circle stroke="black" stroke-width="0.5" fill="#aaffff" cx="912.0" cy="315.0" r="1.0"/>
     <text stroke="none" x="912.0" y="315.0" font-size="20.0" font-family="helvetica">L. apodemi DSM 16634T (AJ871 178)</text>
    </g>
    <g>
     <circle stroke="black" stroke-width="0.5" fill="#aaffff" cx="919.0" cy="17.0" r="1.0"/>
     <text stroke="none" x="919.0" y="17.0" font-size="20.0" font-family="helvetica">L. nageli NRIC 0559T (AB162131)</text>
    </g>
    <g>
     <circle stroke="black" stroke-width="0.5" fill="#aaffff" cx="938.0" cy="528.0" r="1.0"/>
     <text stroke="none" x="938.0" y="528.0" font-size="20.0" font-family="helvetica">L. agilis DSM 205097 (M58303)</text>
    </g>
    <g>
     <circle stroke="black" stroke-width="0.5" fill="#aaffff" cx="971.0" cy="571.0" r="1.0"/>
     <text stroke="none" x="971.0" y="571.0" font-size="20.0" font-family="helvetica">L. equi ATCC BAA-261T (AB048833)</text>
    </g>
    <line stroke="black" x1="885.0" y1="59.0" x2="695.0" y2="38.0" stroke-width="0.5"/>
    <line stroke="black" x1="791.0" y1="273.0" x2="679.0" y2="224.0" stroke-width="0.5"/>
    <line stroke="black" x1="824.0" y1="143.0" x2="823.0" y2="201.0" stroke-width="0.5"/>
    <line stroke="black" x1="822.0" y1="231.0" x2="823.0" y2="201.0" stroke-width="0.5"/>
    <line stroke="black" x1="938.0" y1="528.0" x2="809.0" y2="549.0" stroke-width="0.5"/>
    <line stroke="black" x1="971.0" y1="571.0" x2="809.0" y2="549.0" stroke-width="0.5"/>
    <line stroke="black" x1="829.0" y1="615.0" x2="579.0" y2="531.0" stroke-width="0.5"/>
    <line stroke="black" x1="814.0" y1="700.0" x2="597.0" y2="677.0" stroke-width="0.5"/>
    <line stroke="black" x1="760.0" y1="785.0" x2="336.0" y2="718.0" stroke-width="0.5"/>
    <line stroke="black" x1="695.0" y1="38.0" x2="662.0" y2="71.0" stroke-width="0.5"/>
    <line stroke="black" x1="662.0" y1="71.0" x2="641.0" y2="147.0" stroke-width="0.5"/>
    <line stroke="black" x1="662.0" y1="71.0" x2="745.0" y2="101.0" stroke-width="0.5"/>
    <line stroke="black" x1="641.0" y1="147.0" x2="679.0" y2="224.0" stroke-width="0.5"/>
    <line stroke="black" x1="641.0" y1="147.0" x2="628.0" y2="322.0" stroke-width="0.5"/>
    <line stroke="black" x1="679.0" y1="224.0" x2="823.0" y2="201.0" stroke-width="0.5"/>
    <line stroke="black" x1="628.0" y1="322.0" x2="579.0" y2="531.0" stroke-width="0.5"/>
    <line stroke="black" x1="628.0" y1="322.0" x2="677.0" y2="412.0" stroke-width="0.5"/>
    <line stroke="black" x1="677.0" y1="412.0" x2="711.0" y2="479.0" stroke-width="0.5"/>
    <line stroke="black" x1="677.0" y1="412.0" x2="859.0" y2="349.0" stroke-width="0.5"/>
    <line stroke="black" x1="579.0" y1="531.0" x2="519.0" y2="564.0" stroke-width="0.5"/>
    <line stroke="black" x1="711.0" y1="479.0" x2="752.0" y2="516.0" stroke-width="0.5"/>
    <line stroke="black" x1="711.0" y1="479.0" x2="895.0" y2="443.0" stroke-width="0.5"/>
    <line stroke="black" x1="752.0" y1="516.0" x2="809.0" y2="549.0" stroke-width="0.5"/>
    <line stroke="black" x1="752.0" y1="516.0" x2="866.0" y2="486.0" stroke-width="0.5"/>
    <line stroke="black" x1="519.0" y1="564.0" x2="491.0" y2="653.0" stroke-width="0.5"/>
    <line stroke="black" x1="519.0" y1="564.0" x2="597.0" y2="677.0" stroke-width="0.5"/>
    <line stroke="black" x1="859.0" y1="349.0" x2="874.0" y2="377.0" stroke-width="0.5"/>
    <line stroke="black" x1="491.0" y1="653.0" x2="336.0" y2="718.0" stroke-width="0.5"/>
    <line stroke="black" x1="863.0" y1="828.0" x2="336.0" y2="718.0" stroke-width="0.5"/>
    <line stroke="black" x1="775.0" y1="656.0" x2="597.0" y2="677.0" stroke-width="0.5"/>
    <line stroke="black" x1="919.0" y1="17.0" x2="695.0" y2="38.0" stroke-width="0.5"/>
    <line stroke="black" x1="848.0" y1="742.0" x2="491.0" y2="653.0" stroke-width="0.5"/>
    <line stroke="black" x1="912.0" y1="315.0" x2="859.0" y2="349.0" stroke-width="0.5"/>
    <line stroke="black" x1="884.0" y1="401.0" x2="874.0" y2="377.0" stroke-width="0.5"/>
    <line stroke="black" x1="892.0" y1="357.0" x2="874.0" y2="377.0" stroke-width="0.5"/>
   </g>
  </g>
 </svg>
</svg>
