<?xml version="1.0" encoding="UTF-8"?>
<svg height="800.0" width="700.0" xmlns="http://www.w3.org/2000/svg">
 <svg>
  <g>
   <g>
    <g>
     <circle stroke="black" stroke-width="0.5" fill="#aaffff" cx="56.0" cy="218.0" r="1.0"/>
     <text stroke="none" x="56.0" y="218.0" font-size="20.0" font-family="helvetica">99</text>
    </g>
    <g>
     <circle stroke="black" stroke-width="0.5" fill="#aaffff" cx="117.0" cy="759.0" r="1.0"/>
     <text stroke="none" x="117.0" y="759.0" font-size="10.0" font-family="helvetica">NT1.2</text>
    </g>
    <g>
     <circle stroke="black" stroke-width="0.5" fill="#aaffff" cx="140.0" cy="572.0" r="1.0"/>
     <text stroke="none" x="140.0" y="572.0" font-size="20.0" font-family="helvetica">76</text>
    </g>
    <g>
     <circle stroke="black" stroke-width="0.5" fill="#aaffff" cx="150.0" cy="947.0" r="1.0"/>
     <text stroke="none" x="150.0" y="947.0" font-size="10.0" font-family="helvetica">NT1.4</text>
    </g>
    <g>
     <circle stroke="black" stroke-width="0.5" fill="#aaffff" cx="187.0" cy="660.0" r="1.0"/>
     <text stroke="none" x="187.0" y="660.0" font-size="10.0" font-family="helvetica">NT1.5</text>
    </g>
    <g>
     <circle stroke="black" stroke-width="0.5" fill="#aaffff" cx="196.0" cy="1057.0" r="1.0"/>
     <text stroke="none" x="196.0" y="1057.0" font-size="20.0" font-family="helvetica">96</text>
    </g>
    <g>
     <circle stroke="black" stroke-width="0.5" fill="#aaffff" cx="234.0" cy="1160.0" r="1.0"/>
     <text stroke="none" x="234.0" y="1160.0" font-size="10.0" font-family="helvetica">NT1.7</text>
    </g>
    <g>
     <circle stroke="black" stroke-width="0.5" fill="#aaffff" cx="249.0" cy="130.0" r="1.0"/>
     <text stroke="none" x="249.0" y="130.0" font-size="20.0" font-family="helvetica">Lacinutrix copepodicola DJ3T (AY694001)</text>
    </g>
    <g>
     <circle stroke="black" stroke-width="0.5" fill="#aaffff" cx="250.0" cy="483.0" r="1.0"/>
     <text stroke="none" x="250.0" y="483.0" font-size="20.0" font-family="helvetica"> Winogradskyella eximia KMM 3944T (AY521225)</text>
    </g>
    <g>
     <circle stroke="black" stroke-width="0.5" fill="#aaffff" cx="277.0" cy="955.0" r="1.0"/>
     <text stroke="none" x="277.0" y="955.0" font-size="10.0" font-family="helvetica">NT1.10</text>
    </g>
    <g>
     <circle stroke="black" stroke-width="0.5" fill="#aaffff" cx="283.0" cy="12.0" r="1.0"/>
     <text stroke="none" x="283.0" y="12.0" font-size="20.0" font-family="helvetica">Psychroserpens burtonensis ACAM 188T (U62913)</text>
    </g>
    <g>
     <circle stroke="black" stroke-width="0.5" fill="#aaffff" cx="283.0" cy="601.0" r="1.0"/>
     <text stroke="none" x="283.0" y="601.0" font-size="20.0" font-family="helvetica"> Winogradskyella echinorum KMM 6211T (EU727254)</text>
    </g>
    <g>
     <circle stroke="black" stroke-width="0.5" fill="#aaffff" cx="298.0" cy="306.0" r="1.0"/>
     <text stroke="none" x="298.0" y="306.0" font-size="20.0" font-family="helvetica">100</text>
    </g>
    <g>
     <circle stroke="black" stroke-width="0.5" fill="#aaffff" cx="310.0" cy="1249.0" r="1.0"/>
     <text stroke="none" x="310.0" y="1249.0" font-size="10.0" font-family="helvetica">NT1.14</text>
    </g>
    <g>
     <circle stroke="black" stroke-width="0.5" fill="#aaffff" cx="313.0" cy="247.0" r="1.0"/>
     <text stroke="none" x="313.0" y="247.0" font-size="20.0" font-family="helvetica"> Lacinutrix algicola AKS293T (DQ167238)</text>
    </g>
    <g>
     <circle stroke="black" stroke-width="0.5" fill="#aaffff" cx="317.0" cy="1309.0" r="1.0"/>
     <text stroke="none" x="317.0" y="1309.0" font-size="10.0" font-family="helvetica">NT1.16</text>
    </g>
    <g>
     <circle stroke="black" stroke-width="0.5" fill="#aaffff" cx="326.0" cy="836.0" r="1.0"/>
     <text stroke="none" x="326.0" y="836.0" font-size="20.0" font-family="helvetica">Winogradskyella epiphytica KMM 3906T (AY521224)</text>
    </g>
    <g>
     <circle stroke="black" stroke-width="0.5" fill="#aaffff" cx="339.0" cy="1190.0" r="1.0"/>
     <text stroke="none" x="339.0" y="1190.0" font-size="10.0" font-family="helvetica">NT1.18</text>
    </g>
    <g>
     <circle stroke="black" stroke-width="0.5" fill="#aaffff" cx="345.0" cy="366.0" r="1.0"/>
     <text stroke="none" x="345.0" y="366.0" font-size="20.0" font-family="helvetica"> Lacinutrix mariniflava AKS432T (DQ167239)</text>
    </g>
    <g>
     <circle stroke="black" stroke-width="0.5" fill="#aaffff" cx="348.0" cy="1072.0" r="1.0"/>
     <text stroke="none" x="348.0" y="1072.0" font-size="10.0" font-family="helvetica">NT1.20</text>
    </g>
    <g>
     <circle stroke="black" stroke-width="0.5" fill="#aaffff" cx="385.0" cy="719.0" r="1.0"/>
     <text stroke="none" x="385.0" y="719.0" font-size="10.0" font-family="helvetica">NT1.21</text>
    </g>
    <g>
     <circle stroke="black" stroke-width="0.5" fill="#aaffff" cx="2.0" cy="114.0" r="1.0"/>
     <text stroke="none" x="2.0" y="114.0" font-size="10.0" font-family="helvetica">NT1.22</text>
    </g>
    <line stroke="black" x1="249.0" y1="130.0" x2="56.0" y2="218.0" stroke-width="0.5"/>
    <line stroke="black" x1="313.0" y1="247.0" x2="298.0" y2="306.0" stroke-width="0.5"/>
    <line stroke="black" x1="250.0" y1="483.0" x2="140.0" y2="572.0" stroke-width="0.5"/>
    <line stroke="black" x1="283.0" y1="601.0" x2="187.0" y2="660.0" stroke-width="0.5"/>
    <line stroke="black" x1="56.0" y1="218.0" x2="117.0" y2="759.0" stroke-width="0.5"/>
    <line stroke="black" x1="56.0" y1="218.0" x2="298.0" y2="306.0" stroke-width="0.5"/>
    <line stroke="black" x1="2.0" y1="114.0" x2="283.0" y2="12.0" stroke-width="0.5"/>
    <line stroke="black" x1="2.0" y1="114.0" x2="56.0" y2="218.0" stroke-width="0.5"/>
    <line stroke="black" x1="117.0" y1="759.0" x2="140.0" y2="572.0" stroke-width="0.5"/>
    <line stroke="black" x1="326.0" y1="836.0" x2="150.0" y2="947.0" stroke-width="0.5"/>
    <line stroke="black" x1="345.0" y1="366.0" x2="298.0" y2="306.0" stroke-width="0.5"/>
   </g>
  </g>
 </svg>
</svg>
