<?xml version="1.0" encoding="UTF-8"?>
<svg height="800.0" width="700.0" xmlns="http://www.w3.org/2000/svg">
 <svg>
  <g>
   <g>
    <g>
     <circle stroke="black" stroke-width="0.5" fill="#aaffff" cx="0.0" cy="1013.0" r="1.0"/>
     <text stroke="none" x="0.0" y="1013.0" font-size="20.0" font-family="helvetica"/>
    </g>
    <g>
     <circle stroke="black" stroke-width="0.5" fill="#aaffff" cx="4.0" cy="1013.0" r="1.0"/>
     <text stroke="none" x="4.0" y="1013.0" font-size="10.0" font-family="helvetica">NT1.2</text>
    </g>
    <g>
     <circle stroke="black" stroke-width="0.5" fill="#aaffff" cx="50.0" cy="66.0" r="1.0"/>
     <text stroke="none" x="50.0" y="66.0" font-size="10.0" font-family="helvetica">NT1.3</text>
    </g>
    <g>
     <circle stroke="black" stroke-width="0.5" fill="#aaffff" cx="97.0" cy="252.0" r="1.0"/>
     <text stroke="none" x="97.0" y="252.0" font-size="10.0" font-family="helvetica">NT1.4</text>
    </g>
    <g>
     <circle stroke="black" stroke-width="0.5" fill="#aaffff" cx="97.0" cy="252.0" r="1.0"/>
     <text stroke="none" x="97.0" y="252.0" font-size="10.0" font-family="helvetica">NT1.5</text>
    </g>
    <g>
     <circle stroke="black" stroke-width="0.5" fill="#aaffff" cx="97.0" cy="1220.0" r="1.0"/>
     <text stroke="none" x="97.0" y="1220.0" font-size="10.0" font-family="helvetica">NT1.6</text>
    </g>
    <g>
     <circle stroke="black" stroke-width="0.5" fill="#aaffff" cx="256.0" cy="984.0" r="1.0"/>
     <text stroke="none" x="256.0" y="984.0" font-size="10.0" font-family="helvetica">NT1.7</text>
    </g>
    <g>
     <circle stroke="black" stroke-width="0.5" fill="#aaffff" cx="311.0" cy="1437.0" r="1.0"/>
     <text stroke="none" x="311.0" y="1437.0" font-size="10.0" font-family="helvetica">NT1.8</text>
    </g>
    <g>
     <circle stroke="black" stroke-width="0.5" fill="#aaffff" cx="314.0" cy="530.0" r="1.0"/>
     <text stroke="none" x="314.0" y="530.0" font-size="10.0" font-family="helvetica">NT1.9</text>
    </g>
    <g>
     <circle stroke="black" stroke-width="0.5" fill="#aaffff" cx="358.0" cy="1160.0" r="1.0"/>
     <text stroke="none" x="358.0" y="1160.0" font-size="10.0" font-family="helvetica">NT1.10</text>
    </g>
    <g>
     <circle stroke="black" stroke-width="0.5" fill="#aaffff" cx="451.0" cy="900.0" r="1.0"/>
     <text stroke="none" x="451.0" y="900.0" font-size="10.0" font-family="helvetica">NT1.11</text>
    </g>
    <g>
     <circle stroke="black" stroke-width="0.5" fill="#aaffff" cx="451.0" cy="1492.0" r="1.0"/>
     <text stroke="none" x="451.0" y="1492.0" font-size="10.0" font-family="helvetica">NT1.12</text>
    </g>
    <g>
     <circle stroke="black" stroke-width="0.5" fill="#aaffff" cx="461.0" cy="79.0" r="1.0"/>
     <text stroke="none" x="461.0" y="79.0" font-size="10.0" font-family="helvetica">NT1.13</text>
    </g>
    <g>
     <circle stroke="black" stroke-width="0.5" fill="#aaffff" cx="462.0" cy="81.0" r="1.0"/>
     <text stroke="none" x="462.0" y="81.0" font-size="10.0" font-family="helvetica">NT1.14</text>
    </g>
    <g>
     <circle stroke="black" stroke-width="0.5" fill="#aaffff" cx="512.0" cy="18.0" r="1.0"/>
     <text stroke="none" x="512.0" y="18.0" font-size="20.0" font-family="helvetica">Leeuwenhoekiella blandensis MED 217T (DQ294291)</text>
    </g>
    <g>
     <circle stroke="black" stroke-width="0.5" fill="#aaffff" cx="526.0" cy="1217.0" r="1.0"/>
     <text stroke="none" x="526.0" y="1217.0" font-size="10.0" font-family="helvetica">NT1.16</text>
    </g>
    <g>
     <circle stroke="black" stroke-width="0.5" fill="#aaffff" cx="541.0" cy="81.0" r="1.0"/>
     <text stroke="none" x="541.0" y="81.0" font-size="20.0" font-family="helvetica">Leeuwenhoekiella aequorea LMG 22555 (AJ780980)</text>
    </g>
    <g>
     <circle stroke="black" stroke-width="0.5" fill="#aaffff" cx="547.0" cy="1746.0" r="1.0"/>
     <text stroke="none" x="547.0" y="1746.0" font-size="10.0" font-family="helvetica">NT1.18</text>
    </g>
    <g>
     <circle stroke="black" stroke-width="0.5" fill="#aaffff" cx="590.0" cy="145.0" r="1.0"/>
     <text stroke="none" x="590.0" y="145.0" font-size="20.0" font-family="helvetica">Leeuwenhoekiella marinoflava ANT9103 (AY167315)</text>
    </g>
    <g>
     <circle stroke="black" stroke-width="0.5" fill="#aaffff" cx="609.0" cy="1159.0" r="1.0"/>
     <text stroke="none" x="609.0" y="1159.0" font-size="10.0" font-family="helvetica">NT1.20</text>
    </g>
    <g>
     <circle stroke="black" stroke-width="0.5" fill="#aaffff" cx="617.0" cy="2009.0" r="1.0"/>
     <text stroke="none" x="617.0" y="2009.0" font-size="10.0" font-family="helvetica">NT1.21</text>
    </g>
    <g>
     <circle stroke="black" stroke-width="0.5" fill="#aaffff" cx="672.0" cy="981.0" r="1.0"/>
     <text stroke="none" x="672.0" y="981.0" font-size="10.0" font-family="helvetica">NT1.22</text>
    </g>
    <g>
     <circle stroke="black" stroke-width="0.5" fill="#aaffff" cx="677.0" cy="979.0" r="1.0"/>
     <text stroke="none" x="677.0" y="979.0" font-size="10.0" font-family="helvetica">NT1.23</text>
    </g>
    <g>
     <circle stroke="black" stroke-width="0.5" fill="#aaffff" cx="683.0" cy="964.0" r="1.0"/>
     <text stroke="none" x="683.0" y="964.0" font-size="10.0" font-family="helvetica">NT1.24</text>
    </g>
    <g>
     <circle stroke="black" stroke-width="0.5" fill="#aaffff" cx="686.0" cy="963.0" r="1.0"/>
     <text stroke="none" x="686.0" y="963.0" font-size="10.0" font-family="helvetica">NT1.25</text>
    </g>
    <g>
     <circle stroke="black" stroke-width="0.5" fill="#aaffff" cx="695.0" cy="1232.0" r="1.0"/>
     <text stroke="none" x="695.0" y="1232.0" font-size="10.0" font-family="helvetica">NT1.26</text>
    </g>
    <g>
     <circle stroke="black" stroke-width="0.5" fill="#aaffff" cx="696.0" cy="1812.0" r="1.0"/>
     <text stroke="none" x="696.0" y="1812.0" font-size="10.0" font-family="helvetica">NT1.27</text>
    </g>
    <g>
     <circle stroke="black" stroke-width="0.5" fill="#aaffff" cx="699.0" cy="1780.0" r="1.0"/>
     <text stroke="none" x="699.0" y="1780.0" font-size="20.0" font-family="helvetica">Arenibacter palladensis LMG 21972T (AJ575643)</text>
    </g>
    <g>
     <circle stroke="black" stroke-width="0.5" fill="#aaffff" cx="702.0" cy="1399.0" r="1.0"/>
     <text stroke="none" x="702.0" y="1399.0" font-size="10.0" font-family="helvetica">NT1.29</text>
    </g>
    <g>
     <circle stroke="black" stroke-width="0.5" fill="#aaffff" cx="703.0" cy="1844.0" r="1.0"/>
     <text stroke="none" x="703.0" y="1844.0" font-size="20.0" font-family="helvetica">Arenibacter troitsensls KMM 36747 (AB080771)</text>
    </g>
    <g>
     <circle stroke="black" stroke-width="0.5" fill="#aaffff" cx="719.0" cy="1040.0" r="1.0"/>
     <text stroke="none" x="719.0" y="1040.0" font-size="10.0" font-family="helvetica">NT1.31</text>
    </g>
    <g>
     <circle stroke="black" stroke-width="0.5" fill="#aaffff" cx="732.0" cy="1688.0" r="1.0"/>
     <text stroke="none" x="732.0" y="1688.0" font-size="10.0" font-family="helvetica">NT1.32</text>
    </g>
    <g>
     <circle stroke="black" stroke-width="0.5" fill="#aaffff" cx="732.0" cy="682.0" r="1.0"/>
     <text stroke="none" x="732.0" y="682.0" font-size="10.0" font-family="helvetica">NT1.33</text>
    </g>
    <g>
     <circle stroke="black" stroke-width="0.5" fill="#aaffff" cx="743.0" cy="1652.0" r="1.0"/>
     <text stroke="none" x="743.0" y="1652.0" font-size="10.0" font-family="helvetica">NT1.34</text>
    </g>
    <g>
     <circle stroke="black" stroke-width="0.5" fill="#aaffff" cx="744.0" cy="1654.0" r="1.0"/>
     <text stroke="none" x="744.0" y="1654.0" font-size="10.0" font-family="helvetica">NT1.35</text>
    </g>
    <g>
     <circle stroke="black" stroke-width="0.5" fill="#aaffff" cx="745.0" cy="757.0" r="1.0"/>
     <text stroke="none" x="745.0" y="757.0" font-size="10.0" font-family="helvetica">NT1.36</text>
    </g>
    <g>
     <circle stroke="black" stroke-width="0.5" fill="#aaffff" cx="748.0" cy="1087.0" r="1.0"/>
     <text stroke="none" x="748.0" y="1087.0" font-size="10.0" font-family="helvetica">NT1.37</text>
    </g>
    <g>
     <circle stroke="black" stroke-width="0.5" fill="#aaffff" cx="759.0" cy="1210.0" r="1.0"/>
     <text stroke="none" x="759.0" y="1210.0" font-size="20.0" font-family="helvetica">Maribacter dokdonensis DSW-9 (AY960750)</text>
    </g>
    <g>
     <circle stroke="black" stroke-width="0.5" fill="#aaffff" cx="762.0" cy="945.0" r="1.0"/>
     <text stroke="none" x="762.0" y="945.0" font-size="20.0" font-family="helvetica">Maribacrer orientalls KMM 3947T (AY271624)</text>
    </g>
    <g>
     <circle stroke="black" stroke-width="0.5" fill="#aaffff" cx="764.0" cy="1930.0" r="1.0"/>
     <text stroke="none" x="764.0" y="1930.0" font-size="20.0" font-family="helvetica">Croceibacter atlanticus HTCC2559T (AY163576)</text>
    </g>
    <g>
     <circle stroke="black" stroke-width="0.5" fill="#aaffff" cx="769.0" cy="1717.0" r="1.0"/>
     <text stroke="none" x="769.0" y="1717.0" font-size="10.0" font-family="helvetica">NT1.41</text>
    </g>
    <g>
     <circle stroke="black" stroke-width="0.5" fill="#aaffff" cx="771.0" cy="820.0" r="1.0"/>
     <text stroke="none" x="771.0" y="820.0" font-size="10.0" font-family="helvetica">NT1.42</text>
    </g>
    <g>
     <circle stroke="black" stroke-width="0.5" fill="#aaffff" cx="772.0" cy="1654.0" r="1.0"/>
     <text stroke="none" x="772.0" y="1654.0" font-size="10.0" font-family="helvetica">NT1.43</text>
    </g>
    <g>
     <circle stroke="black" stroke-width="0.5" fill="#aaffff" cx="773.0" cy="856.0" r="1.0"/>
     <text stroke="none" x="773.0" y="856.0" font-size="20.0" font-family="helvetica">Zobellia uliginosa ATCC 14397-r (M62799)</text>
    </g>
    <g>
     <circle stroke="black" stroke-width="0.5" fill="#aaffff" cx="774.0" cy="854.0" r="1.0"/>
     <text stroke="none" x="774.0" y="854.0" font-size="10.0" font-family="helvetica">NT1.45</text>
    </g>
    <g>
     <circle stroke="black" stroke-width="0.5" fill="#aaffff" cx="777.0" cy="1150.0" r="1.0"/>
     <text stroke="none" x="777.0" y="1150.0" font-size="10.0" font-family="helvetica">NT1.46</text>
    </g>
    <g>
     <circle stroke="black" stroke-width="0.5" fill="#aaffff" cx="779.0" cy="1160.0" r="1.0"/>
     <text stroke="none" x="779.0" y="1160.0" font-size="10.0" font-family="helvetica">NT1.47</text>
    </g>
    <g>
     <circle stroke="black" stroke-width="0.5" fill="#aaffff" cx="779.0" cy="788.0" r="1.0"/>
     <text stroke="none" x="779.0" y="788.0" font-size="20.0" font-family="helvetica">Zobellia galaclanlvorans DsijT (AF208293)</text>
    </g>
    <g>
     <circle stroke="black" stroke-width="0.5" fill="#aaffff" cx="780.0" cy="790.0" r="1.0"/>
     <text stroke="none" x="780.0" y="790.0" font-size="10.0" font-family="helvetica">NT1.49</text>
    </g>
    <g>
     <circle stroke="black" stroke-width="0.5" fill="#aaffff" cx="783.0" cy="854.0" r="1.0"/>
     <text stroke="none" x="783.0" y="854.0" font-size="20.0" font-family="helvetica">Zobellia uliginosa ATCC 14397-r (M62799)</text>
    </g>
    <g>
     <circle stroke="black" stroke-width="0.5" fill="#aaffff" cx="784.0" cy="698.0" r="1.0"/>
     <text stroke="none" x="784.0" y="698.0" font-size="10.0" font-family="helvetica">NT1.51</text>
    </g>
    <g>
     <circle stroke="black" stroke-width="0.5" fill="#aaffff" cx="791.0" cy="730.0" r="1.0"/>
     <text stroke="none" x="791.0" y="730.0" font-size="10.0" font-family="helvetica">NT1.52</text>
    </g>
    <g>
     <circle stroke="black" stroke-width="0.5" fill="#aaffff" cx="792.0" cy="728.0" r="1.0"/>
     <text stroke="none" x="792.0" y="728.0" font-size="10.0" font-family="helvetica">NT1.53</text>
    </g>
    <g>
     <circle stroke="black" stroke-width="0.5" fill="#aaffff" cx="793.0" cy="1255.0" r="1.0"/>
     <text stroke="none" x="793.0" y="1255.0" font-size="10.0" font-family="helvetica">NT1.54</text>
    </g>
    <g>
     <circle stroke="black" stroke-width="0.5" fill="#aaffff" cx="801.0" cy="790.0" r="1.0"/>
     <text stroke="none" x="801.0" y="790.0" font-size="20.0" font-family="helvetica">Zobellia galaclanlvorans DsijT (AF208293)</text>
    </g>
    <g>
     <circle stroke="black" stroke-width="0.5" fill="#aaffff" cx="806.0" cy="664.0" r="1.0"/>
     <text stroke="none" x="806.0" y="664.0" font-size="10.0" font-family="helvetica">NT1.56</text>
    </g>
    <g>
     <circle stroke="black" stroke-width="0.5" fill="#aaffff" cx="810.0" cy="1143.0" r="1.0"/>
     <text stroke="none" x="810.0" y="1143.0" font-size="10.0" font-family="helvetica">NT1.57</text>
    </g>
    <g>
     <circle stroke="black" stroke-width="0.5" fill="#aaffff" cx="811.0" cy="728.0" r="1.0"/>
     <text stroke="none" x="811.0" y="728.0" font-size="10.0" font-family="helvetica">NT1.58</text>
    </g>
    <g>
     <circle stroke="black" stroke-width="0.5" fill="#aaffff" cx="848.0" cy="507.0" r="1.0"/>
     <text stroke="none" x="848.0" y="507.0" font-size="20.0" font-family="helvetica">Zeaxanthinibacter enoshimensis TD-ZE3T (AB264057)</text>
    </g>
    <g>
     <circle stroke="black" stroke-width="0.5" fill="#aaffff" cx="856.0" cy="1544.0" r="1.0"/>
     <text stroke="none" x="856.0" y="1544.0" font-size="20.0" font-family="helvetica">Costertonia aggregata KOPRI 13342T (DQ167246)</text>
    </g>
    <g>
     <circle stroke="black" stroke-width="0.5" fill="#aaffff" cx="861.0" cy="601.0" r="1.0"/>
     <text stroke="none" x="861.0" y="601.0" font-size="10.0" font-family="helvetica">NT1.61</text>
    </g>
    <g>
     <circle stroke="black" stroke-width="0.5" fill="#aaffff" cx="861.0" cy="987.0" r="1.0"/>
     <text stroke="none" x="861.0" y="987.0" font-size="20.0" font-family="helvetica">Maribacter aquivivus KMM 3949T (AY271625)</text>
    </g>
    <g>
     <circle stroke="black" stroke-width="0.5" fill="#aaffff" cx="885.0" cy="549.0" r="1.0"/>
     <text stroke="none" x="885.0" y="549.0" font-size="20.0" font-family="helvetica">Robiginitalea biformara HTCC2514 (AY424900)</text>
    </g>
    <g>
     <circle stroke="black" stroke-width="0.5" fill="#aaffff" cx="898.0" cy="1494.0" r="1.0"/>
     <text stroke="none" x="898.0" y="1494.0" font-size="10.0" font-family="helvetica">NT1.64</text>
    </g>
    <g>
     <circle stroke="black" stroke-width="0.5" fill="#aaffff" cx="944.0" cy="1426.0" r="1.0"/>
     <text stroke="none" x="944.0" y="1426.0" font-size="10.0" font-family="helvetica">NT1.65</text>
    </g>
    <g>
     <circle stroke="black" stroke-width="0.5" fill="#aaffff" cx="950.0" cy="1405.0" r="1.0"/>
     <text stroke="none" x="950.0" y="1405.0" font-size="20.0" font-family="helvetica">Muricauda aquimarina SW-72 (AY445076)</text>
    </g>
    <g>
     <circle stroke="black" stroke-width="0.5" fill="#aaffff" cx="950.0" cy="1408.0" r="1.0"/>
     <text stroke="none" x="950.0" y="1408.0" font-size="10.0" font-family="helvetica">NT1.67</text>
    </g>
    <g>
     <circle stroke="black" stroke-width="0.5" fill="#aaffff" cx="969.0" cy="1408.0" r="1.0"/>
     <text stroke="none" x="969.0" y="1408.0" font-size="20.0" font-family="helvetica">Muricauda aquimarina SW-72 (AY445076)</text>
    </g>
    <g>
     <circle stroke="black" stroke-width="0.5" fill="#aaffff" cx="1001.0" cy="1452.0" r="1.0"/>
     <text stroke="none" x="1001.0" y="1452.0" font-size="20.0" font-family="helvetica">Muricauda ruestringensis B1 T (AF218782)</text>
    </g>
    <g>
     <circle stroke="black" stroke-width="0.5" fill="#aaffff" cx="1045.0" cy="1371.0" r="1.0"/>
     <text stroke="none" x="1045.0" y="1371.0" font-size="20.0" font-family="helvetica">Muricauda flavescens SW-74 (AY445074)</text>
    </g>
    <line stroke="black" x1="541.0" y1="81.0" x2="462.0" y2="81.0" stroke-width="0.5"/>
    <line stroke="black" x1="699.0" y1="1780.0" x2="696.0" y2="1812.0" stroke-width="0.5"/>
    <line stroke="black" x1="703.0" y1="1844.0" x2="696.0" y2="1812.0" stroke-width="0.5"/>
    <line stroke="black" x1="773.0" y1="856.0" x2="774.0" y2="854.0" stroke-width="0.5"/>
    <line stroke="black" x1="780.0" y1="790.0" x2="779.0" y2="788.0" stroke-width="0.5"/>
    <line stroke="black" x1="783.0" y1="854.0" x2="774.0" y2="854.0" stroke-width="0.5"/>
    <line stroke="black" x1="950.0" y1="1408.0" x2="950.0" y2="1405.0" stroke-width="0.5"/>
    <line stroke="black" x1="801.0" y1="790.0" x2="780.0" y2="790.0" stroke-width="0.5"/>
    <line stroke="black" x1="969.0" y1="1408.0" x2="950.0" y2="1408.0" stroke-width="0.5"/>
    <line stroke="black" x1="97.0" y1="252.0" x2="4.0" y2="1013.0" stroke-width="0.5"/>
    <line stroke="black" x1="97.0" y1="252.0" x2="97.0" y2="1220.0" stroke-width="0.5"/>
    <line stroke="black" x1="97.0" y1="1220.0" x2="256.0" y2="984.0" stroke-width="0.5"/>
    <line stroke="black" x1="256.0" y1="984.0" x2="311.0" y2="1437.0" stroke-width="0.5"/>
    <line stroke="black" x1="256.0" y1="984.0" x2="314.0" y2="530.0" stroke-width="0.5"/>
    <line stroke="black" x1="311.0" y1="1437.0" x2="358.0" y2="1160.0" stroke-width="0.5"/>
    <line stroke="black" x1="358.0" y1="1160.0" x2="451.0" y2="1492.0" stroke-width="0.5"/>
    <line stroke="black" x1="358.0" y1="1160.0" x2="451.0" y2="900.0" stroke-width="0.5"/>
    <line stroke="black" x1="547.0" y1="1746.0" x2="696.0" y2="1812.0" stroke-width="0.5"/>
    <line stroke="black" x1="451.0" y1="900.0" x2="609.0" y2="1159.0" stroke-width="0.5"/>
    <line stroke="black" x1="451.0" y1="1492.0" x2="702.0" y2="1399.0" stroke-width="0.5"/>
    <line stroke="black" x1="702.0" y1="1399.0" x2="944.0" y2="1426.0" stroke-width="0.5"/>
    <line stroke="black" x1="609.0" y1="1159.0" x2="672.0" y2="981.0" stroke-width="0.5"/>
    <line stroke="black" x1="745.0" y1="757.0" x2="771.0" y2="820.0" stroke-width="0.5"/>
    <line stroke="black" x1="771.0" y1="820.0" x2="774.0" y2="854.0" stroke-width="0.5"/>
    <line stroke="black" x1="771.0" y1="820.0" x2="780.0" y2="790.0" stroke-width="0.5"/>
    <line stroke="black" x1="944.0" y1="1426.0" x2="950.0" y2="1408.0" stroke-width="0.5"/>
    <line stroke="black" x1="764.0" y1="1930.0" x2="97.0" y2="1220.0" stroke-width="0.5"/>
    <line stroke="black" x1="512.0" y1="18.0" x2="97.0" y2="252.0" stroke-width="0.5"/>
    <line stroke="black" x1="590.0" y1="145.0" x2="97.0" y2="252.0" stroke-width="0.5"/>
    <line stroke="black" x1="848.0" y1="507.0" x2="314.0" y2="530.0" stroke-width="0.5"/>
    <line stroke="black" x1="885.0" y1="549.0" x2="314.0" y2="530.0" stroke-width="0.5"/>
    <line stroke="black" x1="856.0" y1="1544.0" x2="451.0" y2="1492.0" stroke-width="0.5"/>
    <line stroke="black" x1="762.0" y1="945.0" x2="672.0" y2="981.0" stroke-width="0.5"/>
    <line stroke="black" x1="759.0" y1="1210.0" x2="695.0" y2="1232.0" stroke-width="0.5"/>
    <line stroke="black" x1="861.0" y1="987.0" x2="719.0" y2="1040.0" stroke-width="0.5"/>
    <line stroke="black" x1="1045.0" y1="1371.0" x2="702.0" y2="1399.0" stroke-width="0.5"/>
    <line stroke="black" x1="1001.0" y1="1452.0" x2="944.0" y2="1426.0" stroke-width="0.5"/>
   </g>
  </g>
 </svg>
</svg>
