<?xml version="1.0" encoding="UTF-8"?>
<svg height="800.0" width="700.0" xmlns="http://www.w3.org/2000/svg">
 <svg>
  <g>
   <g>
    <g>
     <circle stroke="black" stroke-width="0.5" fill="#aaffff" cx="49.0" cy="429.0" r="1.0"/>
     <text stroke="none" x="49.0" y="429.0" font-size="10.0" font-family="helvetica">NT1.1</text>
    </g>
    <g>
     <circle stroke="black" stroke-width="0.5" fill="#aaffff" cx="171.0" cy="388.0" r="1.0"/>
     <text stroke="none" x="171.0" y="388.0" font-size="10.0" font-family="helvetica">NT1.2</text>
    </g>
    <g>
     <circle stroke="black" stroke-width="0.5" fill="#aaffff" cx="190.0" cy="341.0" r="1.0"/>
     <text stroke="none" x="190.0" y="341.0" font-size="20.0" font-family="helvetica">46</text>
    </g>
    <g>
     <circle stroke="black" stroke-width="0.5" fill="#aaffff" cx="216.0" cy="283.0" r="1.0"/>
     <text stroke="none" x="216.0" y="283.0" font-size="10.0" font-family="helvetica">NT1.4</text>
    </g>
    <g>
     <circle stroke="black" stroke-width="0.5" fill="#aaffff" cx="258.0" cy="218.0" r="1.0"/>
     <text stroke="none" x="258.0" y="218.0" font-size="20.0" font-family="helvetica">74</text>
    </g>
    <g>
     <circle stroke="black" stroke-width="0.5" fill="#aaffff" cx="283.0" cy="159.0" r="1.0"/>
     <text stroke="none" x="283.0" y="159.0" font-size="10.0" font-family="helvetica">NT1.6</text>
    </g>
    <g>
     <circle stroke="black" stroke-width="0.5" fill="#aaffff" cx="285.0" cy="275.0" r="1.0"/>
     <text stroke="none" x="285.0" y="275.0" font-size="10.0" font-family="helvetica">NT1.7</text>
    </g>
    <g>
     <circle stroke="black" stroke-width="0.5" fill="#aaffff" cx="304.0" cy="205.0" r="1.0"/>
     <text stroke="none" x="304.0" y="205.0" font-size="10.0" font-family="helvetica">NT1.8</text>
    </g>
    <g>
     <circle stroke="black" stroke-width="0.5" fill="#aaffff" cx="309.0" cy="468.0" r="1.0"/>
     <text stroke="none" x="309.0" y="468.0" font-size="20.0" font-family="helvetica">C. amycolatum NCFB 27687 X84244</text>
    </g>
    <g>
     <circle stroke="black" stroke-width="0.5" fill="#aaffff" cx="323.0" cy="111.0" r="1.0"/>
     <text stroke="none" x="323.0" y="111.0" font-size="10.0" font-family="helvetica">NT1.10</text>
    </g>
    <g>
     <circle stroke="black" stroke-width="0.5" fill="#aaffff" cx="344.0" cy="345.0" r="1.0"/>
     <text stroke="none" x="344.0" y="345.0" font-size="10.0" font-family="helvetica">NT1.11</text>
    </g>
    <g>
     <circle stroke="black" stroke-width="0.5" fill="#aaffff" cx="347.0" cy="67.0" r="1.0"/>
     <text stroke="none" x="347.0" y="67.0" font-size="10.0" font-family="helvetica">NT1.12</text>
    </g>
    <g>
     <circle stroke="black" stroke-width="0.5" fill="#aaffff" cx="366.0" cy="434.0" r="1.0"/>
     <text stroke="none" x="366.0" y="434.0" font-size="20.0" font-family="helvetica">C. falsenii CCUG 336517 Y13024</text>
    </g>
    <g>
     <circle stroke="black" stroke-width="0.5" fill="#aaffff" cx="366.0" cy="32.0" r="1.0"/>
     <text stroke="none" x="366.0" y="32.0" font-size="10.0" font-family="helvetica">NT1.14</text>
    </g>
    <g>
     <circle stroke="black" stroke-width="0.5" fill="#aaffff" cx="393.0" cy="399.0" r="1.0"/>
     <text stroke="none" x="393.0" y="399.0" font-size="20.0" font-family="helvetica">C. spheniscorum CCUG 455127 AJ429234</text>
    </g>
    <g>
     <circle stroke="black" stroke-width="0.5" fill="#aaffff" cx="409.0" cy="328.0" r="1.0"/>
     <text stroke="none" x="409.0" y="328.0" font-size="20.0" font-family="helvetica">C. freiburgense 10457 FJ157329</text>
    </g>
    <g>
     <circle stroke="black" stroke-width="0.5" fill="#aaffff" cx="420.0" cy="188.0" r="1.0"/>
     <text stroke="none" x="420.0" y="188.0" font-size="20.0" font-family="helvetica">C. felinum CCUG 399437 AJ401282</text>
    </g>
    <g>
     <circle stroke="black" stroke-width="0.5" fill="#aaffff" cx="425.0" cy="100.0" r="1.0"/>
     <text stroke="none" x="425.0" y="100.0" font-size="10.0" font-family="helvetica">NT1.18</text>
    </g>
    <g>
     <circle stroke="black" stroke-width="0.5" fill="#aaffff" cx="432.0" cy="119.0" r="1.0"/>
     <text stroke="none" x="432.0" y="119.0" font-size="20.0" font-family="helvetica">C. ulcerans NCTC 79107 X84256</text>
    </g>
    <g>
     <circle stroke="black" stroke-width="0.5" fill="#aaffff" cx="446.0" cy="84.0" r="1.0"/>
     <text stroke="none" x="446.0" y="84.0" font-size="20.0" font-family="helvetica">C. pseudotuberculosis NCTC 34507 X84255</text>
    </g>
    <g>
     <circle stroke="black" stroke-width="0.5" fill="#aaffff" cx="448.0" cy="48.0" r="1.0"/>
     <text stroke="none" x="448.0" y="48.0" font-size="20.0" font-family="helvetica">C. diphtheriae NCTC 1 13977 X84248</text>
    </g>
    <g>
     <circle stroke="black" stroke-width="0.5" fill="#aaffff" cx="451.0" cy="294.0" r="1.0"/>
     <text stroke="none" x="451.0" y="294.0" font-size="20.0" font-family="helvetica">C. argentoratense CIP 1042967 X83955</text>
    </g>
    <g>
     <circle stroke="black" stroke-width="0.5" fill="#aaffff" cx="453.0" cy="153.0" r="1.0"/>
     <text stroke="none" x="453.0" y="153.0" font-size="20.0" font-family="helvetica">C. vitaeruminis DSM 202947 X84680</text>
    </g>
    <g>
     <circle stroke="black" stroke-width="0.5" fill="#aaffff" cx="463.0" cy="363.0" r="1.0"/>
     <text stroke="none" x="463.0" y="363.0" font-size="20.0" font-family="helvetica">C. canis 11707 GQ871934</text>
    </g>
    <g>
     <circle stroke="black" stroke-width="0.5" fill="#aaffff" cx="474.0" cy="259.0" r="1.0"/>
     <text stroke="none" x="474.0" y="259.0" font-size="20.0" font-family="helvetica">C. aquilae CECT 59937 AJ496733</text>
    </g>
    <g>
     <circle stroke="black" stroke-width="0.5" fill="#aaffff" cx="483.0" cy="224.0" r="1.0"/>
     <text stroke="none" x="483.0" y="224.0" font-size="20.0" font-family="helvetica">C. testudinoris CCUG 418237 AJ295841</text>
    </g>
    <g>
     <circle stroke="black" stroke-width="0.5" fill="#aaffff" cx="587.0" cy="13.0" r="1.0"/>
     <text stroke="none" x="587.0" y="13.0" font-size="20.0" font-family="helvetica">C. kutscheri CIP 1034237 X81871</text>
    </g>
    <g>
     <circle stroke="black" stroke-width="0.5" fill="#aaffff" cx="587.0" cy="504.0" r="1.0"/>
     <text stroke="none" x="587.0" y="504.0" font-size="20.0" font-family="helvetica">Rhodococcus equi DSM 203077 AF490539</text>
    </g>
    <line stroke="black" x1="448.0" y1="48.0" x2="366.0" y2="32.0" stroke-width="0.5"/>
    <line stroke="black" x1="446.0" y1="84.0" x2="425.0" y2="100.0" stroke-width="0.5"/>
    <line stroke="black" x1="483.0" y1="224.0" x2="304.0" y2="205.0" stroke-width="0.5"/>
    <line stroke="black" x1="474.0" y1="259.0" x2="285.0" y2="275.0" stroke-width="0.5"/>
    <line stroke="black" x1="366.0" y1="32.0" x2="347.0" y2="67.0" stroke-width="0.5"/>
    <line stroke="black" x1="347.0" y1="67.0" x2="323.0" y2="111.0" stroke-width="0.5"/>
    <line stroke="black" x1="347.0" y1="67.0" x2="425.0" y2="100.0" stroke-width="0.5"/>
    <line stroke="black" x1="323.0" y1="111.0" x2="283.0" y2="159.0" stroke-width="0.5"/>
    <line stroke="black" x1="283.0" y1="159.0" x2="258.0" y2="218.0" stroke-width="0.5"/>
    <line stroke="black" x1="283.0" y1="159.0" x2="304.0" y2="205.0" stroke-width="0.5"/>
    <line stroke="black" x1="258.0" y1="218.0" x2="216.0" y2="283.0" stroke-width="0.5"/>
    <line stroke="black" x1="258.0" y1="218.0" x2="285.0" y2="275.0" stroke-width="0.5"/>
    <line stroke="black" x1="216.0" y1="283.0" x2="190.0" y2="341.0" stroke-width="0.5"/>
    <line stroke="black" x1="216.0" y1="283.0" x2="344.0" y2="345.0" stroke-width="0.5"/>
    <line stroke="black" x1="190.0" y1="341.0" x2="171.0" y2="388.0" stroke-width="0.5"/>
    <line stroke="black" x1="171.0" y1="388.0" x2="49.0" y2="429.0" stroke-width="0.5"/>
    <line stroke="black" x1="309.0" y1="468.0" x2="49.0" y2="429.0" stroke-width="0.5"/>
    <line stroke="black" x1="587.0" y1="504.0" x2="49.0" y2="429.0" stroke-width="0.5"/>
    <line stroke="black" x1="366.0" y1="434.0" x2="171.0" y2="388.0" stroke-width="0.5"/>
    <line stroke="black" x1="393.0" y1="399.0" x2="190.0" y2="341.0" stroke-width="0.5"/>
    <line stroke="black" x1="451.0" y1="294.0" x2="285.0" y2="275.0" stroke-width="0.5"/>
    <line stroke="black" x1="420.0" y1="188.0" x2="304.0" y2="205.0" stroke-width="0.5"/>
    <line stroke="black" x1="409.0" y1="328.0" x2="344.0" y2="345.0" stroke-width="0.5"/>
    <line stroke="black" x1="453.0" y1="153.0" x2="323.0" y2="111.0" stroke-width="0.5"/>
    <line stroke="black" x1="463.0" y1="363.0" x2="344.0" y2="345.0" stroke-width="0.5"/>
    <line stroke="black" x1="432.0" y1="119.0" x2="425.0" y2="100.0" stroke-width="0.5"/>
    <line stroke="black" x1="587.0" y1="13.0" x2="366.0" y2="32.0" stroke-width="0.5"/>
   </g>
  </g>
 </svg>
</svg>
