<?xml version="1.0" encoding="UTF-8"?>
<svg height="800.0" width="700.0" xmlns="http://www.w3.org/2000/svg">
 <svg>
  <g>
   <g>
    <g>
     <circle stroke="black" stroke-width="0.5" fill="#aaffff" cx="23.0" cy="542.0" r="1.0"/>
     <text stroke="none" x="23.0" y="542.0" font-size="10.0" font-family="helvetica">NT1.1</text>
    </g>
    <g>
     <circle stroke="black" stroke-width="0.5" fill="#aaffff" cx="34.0" cy="413.0" r="1.0"/>
     <text stroke="none" x="34.0" y="413.0" font-size="10.0" font-family="helvetica">NT1.2</text>
    </g>
    <g>
     <circle stroke="black" stroke-width="0.5" fill="#aaffff" cx="42.0" cy="525.0" r="1.0"/>
     <text stroke="none" x="42.0" y="525.0" font-size="10.0" font-family="helvetica">NT1.3</text>
    </g>
    <g>
     <circle stroke="black" stroke-width="0.5" fill="#aaffff" cx="49.0" cy="671.0" r="1.0"/>
     <text stroke="none" x="49.0" y="671.0" font-size="10.0" font-family="helvetica">NT1.4</text>
    </g>
    <g>
     <circle stroke="black" stroke-width="0.5" fill="#aaffff" cx="86.0" cy="314.0" r="1.0"/>
     <text stroke="none" x="86.0" y="314.0" font-size="10.0" font-family="helvetica">NT1.5</text>
    </g>
    <g>
     <circle stroke="black" stroke-width="0.5" fill="#aaffff" cx="94.0" cy="476.0" r="1.0"/>
     <text stroke="none" x="94.0" y="476.0" font-size="10.0" font-family="helvetica">NT1.6</text>
    </g>
    <g>
     <circle stroke="black" stroke-width="0.5" fill="#aaffff" cx="105.0" cy="378.0" r="1.0"/>
     <text stroke="none" x="105.0" y="378.0" font-size="10.0" font-family="helvetica">NT1.7</text>
    </g>
    <g>
     <circle stroke="black" stroke-width="0.5" fill="#aaffff" cx="107.0" cy="818.0" r="1.0"/>
     <text stroke="none" x="107.0" y="818.0" font-size="20.0" font-family="helvetica">100</text>
    </g>
    <g>
     <circle stroke="black" stroke-width="0.5" fill="#aaffff" cx="117.0" cy="248.0" r="1.0"/>
     <text stroke="none" x="117.0" y="248.0" font-size="20.0" font-family="helvetica">64</text>
    </g>
    <g>
     <circle stroke="black" stroke-width="0.5" fill="#aaffff" cx="143.0" cy="622.0" r="1.0"/>
     <text stroke="none" x="143.0" y="622.0" font-size="10.0" font-family="helvetica">NT1.10</text>
    </g>
    <g>
     <circle stroke="black" stroke-width="0.5" fill="#aaffff" cx="166.0" cy="732.0" r="1.0"/>
     <text stroke="none" x="166.0" y="732.0" font-size="10.0" font-family="helvetica">NT1.11</text>
    </g>
    <g>
     <circle stroke="black" stroke-width="0.5" fill="#aaffff" cx="244.0" cy="192.0" r="1.0"/>
     <text stroke="none" x="244.0" y="192.0" font-size="10.0" font-family="helvetica">NT1.12</text>
    </g>
    <g>
     <circle stroke="black" stroke-width="0.5" fill="#aaffff" cx="257.0" cy="150.0" r="1.0"/>
     <text stroke="none" x="257.0" y="150.0" font-size="10.0" font-family="helvetica">NT1.13</text>
    </g>
    <g>
     <circle stroke="black" stroke-width="0.5" fill="#aaffff" cx="272.0" cy="697.0" r="1.0"/>
     <text stroke="none" x="272.0" y="697.0" font-size="10.0" font-family="helvetica">NT1.14</text>
    </g>
    <g>
     <circle stroke="black" stroke-width="0.5" fill="#aaffff" cx="286.0" cy="598.0" r="1.0"/>
     <text stroke="none" x="286.0" y="598.0" font-size="20.0" font-family="helvetica">Idiomarina abyssalis KMM 227T (AF052740)</text>
    </g>
    <g>
     <circle stroke="black" stroke-width="0.5" fill="#aaffff" cx="287.0" cy="182.0" r="1.0"/>
     <text stroke="none" x="287.0" y="182.0" font-size="20.0" font-family="helvetica">78</text>
    </g>
    <g>
     <circle stroke="black" stroke-width="0.5" fill="#aaffff" cx="289.0" cy="500.0" r="1.0"/>
     <text stroke="none" x="289.0" y="500.0" font-size="20.0" font-family="helvetica">Pseudoalteromonas haloplanktis ATCC 14393T (X67024)</text>
    </g>
    <g>
     <circle stroke="black" stroke-width="0.5" fill="#aaffff" cx="289.0" cy="73.0" r="1.0"/>
     <text stroke="none" x="289.0" y="73.0" font-size="20.0" font-family="helvetica">71</text>
    </g>
    <g>
     <circle stroke="black" stroke-width="0.5" fill="#aaffff" cx="298.0" cy="648.0" r="1.0"/>
     <text stroke="none" x="298.0" y="648.0" font-size="20.0" font-family="helvetica">Pseudidiomarina taiwanensis PlT1T (DQ118948)</text>
    </g>
    <g>
     <circle stroke="black" stroke-width="0.5" fill="#aaffff" cx="305.0" cy="37.0" r="1.0"/>
     <text stroke="none" x="305.0" y="37.0" font-size="20.0" font-family="helvetica">71</text>
    </g>
    <g>
     <circle stroke="black" stroke-width="0.5" fill="#aaffff" cx="306.0" cy="404.0" r="1.0"/>
     <text stroke="none" x="306.0" y="404.0" font-size="20.0" font-family="helvetica">Moritella marina NCIMB 1144T (X82142)</text>
    </g>
    <g>
     <circle stroke="black" stroke-width="0.5" fill="#aaffff" cx="306.0" cy="795.0" r="1.0"/>
     <text stroke="none" x="306.0" y="795.0" font-size="20.0" font-family="helvetica">Alteromonas macleodii IAM 1292OT (X82145)</text>
    </g>
    <g>
     <circle stroke="black" stroke-width="0.5" fill="#aaffff" cx="308.0" cy="746.0" r="1.0"/>
     <text stroke="none" x="308.0" y="746.0" font-size="20.0" font-family="helvetica">Colwellia psychrerythraea ATCC 273647 (AB011364)</text>
    </g>
    <g>
     <circle stroke="black" stroke-width="0.5" fill="#aaffff" cx="327.0" cy="307.0" r="1.0"/>
     <text stroke="none" x="327.0" y="307.0" font-size="20.0" font-family="helvetica">Ferrimonas balearica PATT (X93021)</text>
    </g>
    <g>
     <circle stroke="black" stroke-width="0.5" fill="#aaffff" cx="328.0" cy="354.0" r="1.0"/>
     <text stroke="none" x="328.0" y="354.0" font-size="20.0" font-family="helvetica">Shewanella putrefaciens ATCC 8071T (X82133)</text>
    </g>
    <g>
     <circle stroke="black" stroke-width="0.5" fill="#aaffff" cx="339.0" cy="110.0" r="1.0"/>
     <text stroke="none" x="339.0" y="110.0" font-size="10.0" font-family="helvetica">NT1.26</text>
    </g>
    <g>
     <circle stroke="black" stroke-width="0.5" fill="#aaffff" cx="349.0" cy="62.0" r="1.0"/>
     <text stroke="none" x="349.0" y="62.0" font-size="10.0" font-family="helvetica">NT1.27</text>
    </g>
    <g>
     <circle stroke="black" stroke-width="0.5" fill="#aaffff" cx="352.0" cy="208.0" r="1.0"/>
     <text stroke="none" x="352.0" y="208.0" font-size="20.0" font-family="helvetica">Zobellella taiwanensis ZT1T (DQ195676)</text>
    </g>
    <g>
     <circle stroke="black" stroke-width="0.5" fill="#aaffff" cx="354.0" cy="13.0" r="1.0"/>
     <text stroke="none" x="354.0" y="13.0" font-size="10.0" font-family="helvetica">NT1.29</text>
    </g>
    <g>
     <circle stroke="black" stroke-width="0.5" fill="#aaffff" cx="356.0" cy="843.0" r="1.0"/>
     <text stroke="none" x="356.0" y="843.0" font-size="20.0" font-family="helvetica">Glaciecola punicea ACAM 6117 (U85853)</text>
    </g>
    <g>
     <circle stroke="black" stroke-width="0.5" fill="#aaffff" cx="359.0" cy="257.0" r="1.0"/>
     <text stroke="none" x="359.0" y="257.0" font-size="20.0" font-family="helvetica">Oceanisphaera litoralis DSM 15406T (AJ550470)</text>
    </g>
    <g>
     <circle stroke="black" stroke-width="0.5" fill="#aaffff" cx="362.0" cy="549.0" r="1.0"/>
     <text stroke="none" x="362.0" y="549.0" font-size="20.0" font-family="helvetica">Psychromonas antarctica DSM 107047 (Y14697)</text>
    </g>
    <g>
     <circle stroke="black" stroke-width="0.5" fill="#aaffff" cx="377.0" cy="159.0" r="1.0"/>
     <text stroke="none" x="377.0" y="159.0" font-size="20.0" font-family="helvetica">Zobellella denitrificans ZD1T (DQ195675)</text>
    </g>
    <g>
     <circle stroke="black" stroke-width="0.5" fill="#aaffff" cx="384.0" cy="452.0" r="1.0"/>
     <text stroke="none" x="384.0" y="452.0" font-size="20.0" font-family="helvetica">Algicola bacteriolytica IAM 145957 (D89929)</text>
    </g>
    <g>
     <circle stroke="black" stroke-width="0.5" fill="#aaffff" cx="2.0" cy="680.0" r="1.0"/>
     <text stroke="none" x="2.0" y="680.0" font-size="10.0" font-family="helvetica">NT1.35</text>
    </g>
    <line stroke="black" x1="352.0" y1="208.0" x2="287.0" y2="182.0" stroke-width="0.5"/>
    <line stroke="black" x1="359.0" y1="257.0" x2="244.0" y2="192.0" stroke-width="0.5"/>
    <line stroke="black" x1="327.0" y1="307.0" x2="117.0" y2="248.0" stroke-width="0.5"/>
    <line stroke="black" x1="306.0" y1="404.0" x2="105.0" y2="378.0" stroke-width="0.5"/>
    <line stroke="black" x1="328.0" y1="354.0" x2="105.0" y2="378.0" stroke-width="0.5"/>
    <line stroke="black" x1="289.0" y1="500.0" x2="94.0" y2="476.0" stroke-width="0.5"/>
    <line stroke="black" x1="362.0" y1="549.0" x2="42.0" y2="525.0" stroke-width="0.5"/>
    <line stroke="black" x1="384.0" y1="452.0" x2="94.0" y2="476.0" stroke-width="0.5"/>
    <line stroke="black" x1="286.0" y1="598.0" x2="143.0" y2="622.0" stroke-width="0.5"/>
    <line stroke="black" x1="298.0" y1="648.0" x2="143.0" y2="622.0" stroke-width="0.5"/>
    <line stroke="black" x1="308.0" y1="746.0" x2="166.0" y2="732.0" stroke-width="0.5"/>
    <line stroke="black" x1="306.0" y1="795.0" x2="107.0" y2="818.0" stroke-width="0.5"/>
    <line stroke="black" x1="356.0" y1="843.0" x2="107.0" y2="818.0" stroke-width="0.5"/>
    <line stroke="black" x1="257.0" y1="150.0" x2="287.0" y2="182.0" stroke-width="0.5"/>
    <line stroke="black" x1="244.0" y1="192.0" x2="117.0" y2="248.0" stroke-width="0.5"/>
    <line stroke="black" x1="117.0" y1="248.0" x2="86.0" y2="314.0" stroke-width="0.5"/>
    <line stroke="black" x1="86.0" y1="314.0" x2="34.0" y2="413.0" stroke-width="0.5"/>
    <line stroke="black" x1="86.0" y1="314.0" x2="105.0" y2="378.0" stroke-width="0.5"/>
    <line stroke="black" x1="34.0" y1="413.0" x2="42.0" y2="525.0" stroke-width="0.5"/>
    <line stroke="black" x1="42.0" y1="525.0" x2="94.0" y2="476.0" stroke-width="0.5"/>
    <line stroke="black" x1="2.0" y1="680.0" x2="23.0" y2="542.0" stroke-width="0.5"/>
    <line stroke="black" x1="2.0" y1="680.0" x2="107.0" y2="818.0" stroke-width="0.5"/>
    <line stroke="black" x1="23.0" y1="542.0" x2="49.0" y2="671.0" stroke-width="0.5"/>
    <line stroke="black" x1="34.0" y1="413.0" x2="23.0" y2="542.0" stroke-width="0.5"/>
    <line stroke="black" x1="49.0" y1="671.0" x2="143.0" y2="622.0" stroke-width="0.5"/>
    <line stroke="black" x1="377.0" y1="159.0" x2="287.0" y2="182.0" stroke-width="0.5"/>
   </g>
  </g>
 </svg>
</svg>
