<?xml version="1.0" encoding="UTF-8"?>
<svg height="800.0" width="700.0" xmlns="http://www.w3.org/2000/svg">
 <svg>
  <g>
   <g>
    <g>
     <circle stroke="black" stroke-width="0.5" fill="#aaffff" cx="127.0" cy="1369.0" r="1.0"/>
     <text stroke="none" x="127.0" y="1369.0" font-size="10.0" font-family="helvetica">NT1.1</text>
    </g>
    <g>
     <circle stroke="black" stroke-width="0.5" fill="#aaffff" cx="178.0" cy="1289.0" r="1.0"/>
     <text stroke="none" x="178.0" y="1289.0" font-size="10.0" font-family="helvetica">NT1.2</text>
    </g>
    <g>
     <circle stroke="black" stroke-width="0.5" fill="#aaffff" cx="203.0" cy="1450.0" r="1.0"/>
     <text stroke="none" x="203.0" y="1450.0" font-size="20.0" font-family="helvetica">Leifsonia aquatica JCM 1368T (D45057)</text>
    </g>
    <g>
     <circle stroke="black" stroke-width="0.5" fill="#aaffff" cx="225.0" cy="1167.0" r="1.0"/>
     <text stroke="none" x="225.0" y="1167.0" font-size="10.0" font-family="helvetica">NT1.4</text>
    </g>
    <g>
     <circle stroke="black" stroke-width="0.5" fill="#aaffff" cx="228.0" cy="1411.0" r="1.0"/>
     <text stroke="none" x="228.0" y="1411.0" font-size="10.0" font-family="helvetica">NT1.5</text>
    </g>
    <g>
     <circle stroke="black" stroke-width="0.5" fill="#aaffff" cx="257.0" cy="983.0" r="1.0"/>
     <text stroke="none" x="257.0" y="983.0" font-size="10.0" font-family="helvetica">NT1.6</text>
    </g>
    <g>
     <circle stroke="black" stroke-width="0.5" fill="#aaffff" cx="270.0" cy="691.0" r="1.0"/>
     <text stroke="none" x="270.0" y="691.0" font-size="10.0" font-family="helvetica">NT1.7</text>
    </g>
    <g>
     <circle stroke="black" stroke-width="0.5" fill="#aaffff" cx="277.0" cy="1351.0" r="1.0"/>
     <text stroke="none" x="277.0" y="1351.0" font-size="20.0" font-family="helvetica">99</text>
    </g>
    <g>
     <circle stroke="black" stroke-width="0.5" fill="#aaffff" cx="279.0" cy="1353.0" r="1.0"/>
     <text stroke="none" x="279.0" y="1353.0" font-size="20.0" font-family="helvetica">99</text>
    </g>
    <g>
     <circle stroke="black" stroke-width="0.5" fill="#aaffff" cx="283.0" cy="1275.0" r="1.0"/>
     <text stroke="none" x="283.0" y="1275.0" font-size="20.0" font-family="helvetica">73</text>
    </g>
    <g>
     <circle stroke="black" stroke-width="0.5" fill="#aaffff" cx="284.0" cy="1353.0" r="1.0"/>
     <text stroke="none" x="284.0" y="1353.0" font-size="10.0" font-family="helvetica">NT1.11</text>
    </g>
    <g>
     <circle stroke="black" stroke-width="0.5" fill="#aaffff" cx="288.0" cy="1276.0" r="1.0"/>
     <text stroke="none" x="288.0" y="1276.0" font-size="10.0" font-family="helvetica">NT1.12</text>
    </g>
    <g>
     <circle stroke="black" stroke-width="0.5" fill="#aaffff" cx="291.0" cy="563.0" r="1.0"/>
     <text stroke="none" x="291.0" y="563.0" font-size="10.0" font-family="helvetica">NT1.13</text>
    </g>
    <g>
     <circle stroke="black" stroke-width="0.5" fill="#aaffff" cx="302.0" cy="819.0" r="1.0"/>
     <text stroke="none" x="302.0" y="819.0" font-size="10.0" font-family="helvetica">NT1.14</text>
    </g>
    <g>
     <circle stroke="black" stroke-width="0.5" fill="#aaffff" cx="307.0" cy="1372.0" r="1.0"/>
     <text stroke="none" x="307.0" y="1372.0" font-size="10.0" font-family="helvetica">NT1.15</text>
    </g>
    <g>
     <circle stroke="black" stroke-width="0.5" fill="#aaffff" cx="309.0" cy="1332.0" r="1.0"/>
     <text stroke="none" x="309.0" y="1332.0" font-size="20.0" font-family="helvetica">Rhodoglobus vestalii LV3T (AJ459101)</text>
    </g>
    <g>
     <circle stroke="black" stroke-width="0.5" fill="#aaffff" cx="314.0" cy="907.0" r="1.0"/>
     <text stroke="none" x="314.0" y="907.0" font-size="10.0" font-family="helvetica">NT1.17</text>
    </g>
    <g>
     <circle stroke="black" stroke-width="0.5" fill="#aaffff" cx="316.0" cy="470.0" r="1.0"/>
     <text stroke="none" x="316.0" y="470.0" font-size="10.0" font-family="helvetica">NT1.18</text>
    </g>
    <g>
     <circle stroke="black" stroke-width="0.5" fill="#aaffff" cx="328.0" cy="732.0" r="1.0"/>
     <text stroke="none" x="328.0" y="732.0" font-size="20.0" font-family="helvetica">52</text>
    </g>
    <g>
     <circle stroke="black" stroke-width="0.5" fill="#aaffff" cx="332.0" cy="1255.0" r="1.0"/>
     <text stroke="none" x="332.0" y="1255.0" font-size="10.0" font-family="helvetica">NT1.20</text>
    </g>
    <g>
     <circle stroke="black" stroke-width="0.5" fill="#aaffff" cx="332.0" cy="654.0" r="1.0"/>
     <text stroke="none" x="332.0" y="654.0" font-size="20.0" font-family="helvetica">98</text>
    </g>
    <g>
     <circle stroke="black" stroke-width="0.5" fill="#aaffff" cx="333.0" cy="1004.0" r="1.0"/>
     <text stroke="none" x="333.0" y="1004.0" font-size="10.0" font-family="helvetica">NT1.22</text>
    </g>
    <g>
     <circle stroke="black" stroke-width="0.5" fill="#aaffff" cx="334.0" cy="656.0" r="1.0"/>
     <text stroke="none" x="334.0" y="656.0" font-size="20.0" font-family="helvetica">98</text>
    </g>
    <g>
     <circle stroke="black" stroke-width="0.5" fill="#aaffff" cx="335.0" cy="733.0" r="1.0"/>
     <text stroke="none" x="335.0" y="733.0" font-size="10.0" font-family="helvetica">NT1.24</text>
    </g>
    <g>
     <circle stroke="black" stroke-width="0.5" fill="#aaffff" cx="341.0" cy="1294.0" r="1.0"/>
     <text stroke="none" x="341.0" y="1294.0" font-size="20.0" font-family="helvetica">Subtercola boreus DSM 13056T (AF224722)</text>
    </g>
    <g>
     <circle stroke="black" stroke-width="0.5" fill="#aaffff" cx="343.0" cy="656.0" r="1.0"/>
     <text stroke="none" x="343.0" y="656.0" font-size="10.0" font-family="helvetica">NT1.26</text>
    </g>
    <g>
     <circle stroke="black" stroke-width="0.5" fill="#aaffff" cx="347.0" cy="393.0" r="1.0"/>
     <text stroke="none" x="347.0" y="393.0" font-size="20.0" font-family="helvetica">79</text>
    </g>
    <g>
     <circle stroke="black" stroke-width="0.5" fill="#aaffff" cx="347.0" cy="547.0" r="1.0"/>
     <text stroke="none" x="347.0" y="547.0" font-size="10.0" font-family="helvetica">NT1.28</text>
    </g>
    <g>
     <circle stroke="black" stroke-width="0.5" fill="#aaffff" cx="348.0" cy="674.0" r="1.0"/>
     <text stroke="none" x="348.0" y="674.0" font-size="20.0" font-family="helvetica">Phycicola gilvus SSWW-21T (AM286414)</text>
    </g>
    <g>
     <circle stroke="black" stroke-width="0.5" fill="#aaffff" cx="349.0" cy="395.0" r="1.0"/>
     <text stroke="none" x="349.0" y="395.0" font-size="20.0" font-family="helvetica">79</text>
    </g>
    <g>
     <circle stroke="black" stroke-width="0.5" fill="#aaffff" cx="350.0" cy="634.0" r="1.0"/>
     <text stroke="none" x="350.0" y="634.0" font-size="20.0" font-family="helvetica">Microterricola viridarii KV-677T (AB282862)</text>
    </g>
    <g>
     <circle stroke="black" stroke-width="0.5" fill="#aaffff" cx="354.0" cy="1060.0" r="1.0"/>
     <text stroke="none" x="354.0" y="1060.0" font-size="10.0" font-family="helvetica">NT1.32</text>
    </g>
    <g>
     <circle stroke="black" stroke-width="0.5" fill="#aaffff" cx="356.0" cy="395.0" r="1.0"/>
     <text stroke="none" x="356.0" y="395.0" font-size="20.0" font-family="helvetica">Eqvlicrobacterium lacticum DSM 2O427T (X77441)</text>
    </g>
    <g>
     <circle stroke="black" stroke-width="0.5" fill="#aaffff" cx="366.0" cy="951.0" r="1.0"/>
     <text stroke="none" x="366.0" y="951.0" font-size="10.0" font-family="helvetica">NT1.34</text>
    </g>
    <g>
     <circle stroke="black" stroke-width="0.5" fill="#aaffff" cx="367.0" cy="712.0" r="1.0"/>
     <text stroke="none" x="367.0" y="712.0" font-size="20.0" font-family="helvetica">Frigoribacterium faeni 801T (Y18807)</text>
    </g>
    <g>
     <circle stroke="black" stroke-width="0.5" fill="#aaffff" cx="370.0" cy="460.0" r="1.0"/>
     <text stroke="none" x="370.0" y="460.0" font-size="10.0" font-family="helvetica">NT1.36</text>
    </g>
    <g>
     <circle stroke="black" stroke-width="0.5" fill="#aaffff" cx="372.0" cy="463.0" r="1.0"/>
     <text stroke="none" x="372.0" y="463.0" font-size="10.0" font-family="helvetica">NT1.37</text>
    </g>
    <g>
     <circle stroke="black" stroke-width="0.5" fill="#aaffff" cx="377.0" cy="463.0" r="1.0"/>
     <text stroke="none" x="377.0" y="463.0" font-size="10.0" font-family="helvetica">NT1.38</text>
    </g>
    <g>
     <circle stroke="black" stroke-width="0.5" fill="#aaffff" cx="378.0" cy="751.0" r="1.0"/>
     <text stroke="none" x="378.0" y="751.0" font-size="20.0" font-family="helvetica">Frondihabitans australicus E1 HC-O2T (DQ525859)</text>
    </g>
    <g>
     <circle stroke="black" stroke-width="0.5" fill="#aaffff" cx="381.0" cy="326.0" r="1.0"/>
     <text stroke="none" x="381.0" y="326.0" font-size="20.0" font-family="helvetica">0</text>
    </g>
    <g>
     <circle stroke="black" stroke-width="0.5" fill="#aaffff" cx="383.0" cy="323.0" r="1.0"/>
     <text stroke="none" x="383.0" y="323.0" font-size="20.0" font-family="helvetica">0</text>
    </g>
    <g>
     <circle stroke="black" stroke-width="0.5" fill="#aaffff" cx="389.0" cy="323.0" r="1.0"/>
     <text stroke="none" x="389.0" y="323.0" font-size="10.0" font-family="helvetica">NT1.42</text>
    </g>
    <g>
     <circle stroke="black" stroke-width="0.5" fill="#aaffff" cx="389.0" cy="810.0" r="1.0"/>
     <text stroke="none" x="389.0" y="810.0" font-size="20.0" font-family="helvetica">99</text>
    </g>
    <g>
     <circle stroke="black" stroke-width="0.5" fill="#aaffff" cx="391.0" cy="1097.0" r="1.0"/>
     <text stroke="none" x="391.0" y="1097.0" font-size="10.0" font-family="helvetica">NT1.44</text>
    </g>
    <g>
     <circle stroke="black" stroke-width="0.5" fill="#aaffff" cx="395.0" cy="518.0" r="1.0"/>
     <text stroke="none" x="395.0" y="518.0" font-size="10.0" font-family="helvetica">NT1.45</text>
    </g>
    <g>
     <circle stroke="black" stroke-width="0.5" fill="#aaffff" cx="398.0" cy="811.0" r="1.0"/>
     <text stroke="none" x="398.0" y="811.0" font-size="10.0" font-family="helvetica">NT1.46</text>
    </g>
    <g>
     <circle stroke="black" stroke-width="0.5" fill="#aaffff" cx="407.0" cy="1023.0" r="1.0"/>
     <text stroke="none" x="407.0" y="1023.0" font-size="20.0" font-family="helvetica"> Rathayibacter rathayi DSM 7485T (X77439)</text>
    </g>
    <g>
     <circle stroke="black" stroke-width="0.5" fill="#aaffff" cx="409.0" cy="829.0" r="1.0"/>
     <text stroke="none" x="409.0" y="829.0" font-size="10.0" font-family="helvetica">NT1.48</text>
    </g>
    <g>
     <circle stroke="black" stroke-width="0.5" fill="#aaffff" cx="409.0" cy="576.0" r="1.0"/>
     <text stroke="none" x="409.0" y="576.0" font-size="20.0" font-family="helvetica">79</text>
    </g>
    <g>
     <circle stroke="black" stroke-width="0.5" fill="#aaffff" cx="411.0" cy="578.0" r="1.0"/>
     <text stroke="none" x="411.0" y="578.0" font-size="20.0" font-family="helvetica">79</text>
    </g>
    <g>
     <circle stroke="black" stroke-width="0.5" fill="#aaffff" cx="411.0" cy="916.0" r="1.0"/>
     <text stroke="none" x="411.0" y="916.0" font-size="10.0" font-family="helvetica">NT1.51</text>
    </g>
    <g>
     <circle stroke="black" stroke-width="0.5" fill="#aaffff" cx="413.0" cy="441.0" r="1.0"/>
     <text stroke="none" x="413.0" y="441.0" font-size="20.0" font-family="helvetica">Okibacterium fritillariae VKM Ac-2059T (AB042094)</text>
    </g>
    <g>
     <circle stroke="black" stroke-width="0.5" fill="#aaffff" cx="414.0" cy="269.0" r="1.0"/>
     <text stroke="none" x="414.0" y="269.0" font-size="20.0" font-family="helvetica">50.</text>
    </g>
    <g>
     <circle stroke="black" stroke-width="0.5" fill="#aaffff" cx="416.0" cy="578.0" r="1.0"/>
     <text stroke="none" x="416.0" y="578.0" font-size="10.0" font-family="helvetica">NT1.54</text>
    </g>
    <g>
     <circle stroke="black" stroke-width="0.5" fill="#aaffff" cx="416.0" cy="267.0" r="1.0"/>
     <text stroke="none" x="416.0" y="267.0" font-size="20.0" font-family="helvetica">50.</text>
    </g>
    <g>
     <circle stroke="black" stroke-width="0.5" fill="#aaffff" cx="420.0" cy="267.0" r="1.0"/>
     <text stroke="none" x="420.0" y="267.0" font-size="10.0" font-family="helvetica">NT1.56</text>
    </g>
    <g>
     <circle stroke="black" stroke-width="0.5" fill="#aaffff" cx="422.0" cy="1134.0" r="1.0"/>
     <text stroke="none" x="422.0" y="1134.0" font-size="10.0" font-family="helvetica">NT1.57</text>
    </g>
    <g>
     <circle stroke="black" stroke-width="0.5" fill="#aaffff" cx="433.0" cy="480.0" r="1.0"/>
     <text stroke="none" x="433.0" y="480.0" font-size="10.0" font-family="helvetica">NT1.58</text>
    </g>
    <g>
     <circle stroke="black" stroke-width="0.5" fill="#aaffff" cx="434.0" cy="887.0" r="1.0"/>
     <text stroke="none" x="434.0" y="887.0" font-size="10.0" font-family="helvetica">NT1.59</text>
    </g>
    <g>
     <circle stroke="black" stroke-width="0.5" fill="#aaffff" cx="444.0" cy="790.0" r="1.0"/>
     <text stroke="none" x="444.0" y="790.0" font-size="10.0" font-family="helvetica">NT1.60</text>
    </g>
    <g>
     <circle stroke="black" stroke-width="0.5" fill="#aaffff" cx="444.0" cy="382.0" r="1.0"/>
     <text stroke="none" x="444.0" y="382.0" font-size="10.0" font-family="helvetica">NT1.61</text>
    </g>
    <g>
     <circle stroke="black" stroke-width="0.5" fill="#aaffff" cx="446.0" cy="384.0" r="1.0"/>
     <text stroke="none" x="446.0" y="384.0" font-size="10.0" font-family="helvetica">NT1.62</text>
    </g>
    <g>
     <circle stroke="black" stroke-width="0.5" fill="#aaffff" cx="448.0" cy="984.0" r="1.0"/>
     <text stroke="none" x="448.0" y="984.0" font-size="20.0" font-family="helvetica">Clavibacter michiganensis DSM 46364T (X77435)</text>
    </g>
    <g>
     <circle stroke="black" stroke-width="0.5" fill="#aaffff" cx="451.0" cy="384.0" r="1.0"/>
     <text stroke="none" x="451.0" y="384.0" font-size="10.0" font-family="helvetica">NT1.64</text>
    </g>
    <g>
     <circle stroke="black" stroke-width="0.5" fill="#aaffff" cx="453.0" cy="1061.0" r="1.0"/>
     <text stroke="none" x="453.0" y="1061.0" font-size="20.0" font-family="helvetica">Curtobacterium citreum DSM 2O528T (X77436)</text>
    </g>
    <g>
     <circle stroke="black" stroke-width="0.5" fill="#aaffff" cx="458.0" cy="212.0" r="1.0"/>
     <text stroke="none" x="458.0" y="212.0" font-size="20.0" font-family="helvetica">81</text>
    </g>
    <g>
     <circle stroke="black" stroke-width="0.5" fill="#aaffff" cx="466.0" cy="945.0" r="1.0"/>
     <text stroke="none" x="466.0" y="945.0" font-size="10.0" font-family="helvetica">NT1.67</text>
    </g>
    <g>
     <circle stroke="black" stroke-width="0.5" fill="#aaffff" cx="482.0" cy="402.0" r="1.0"/>
     <text stroke="none" x="482.0" y="402.0" font-size="10.0" font-family="helvetica">NT1.68</text>
    </g>
    <g>
     <circle stroke="black" stroke-width="0.5" fill="#aaffff" cx="484.0" cy="267.0" r="1.0"/>
     <text stroke="none" x="484.0" y="267.0" font-size="20.0" font-family="helvetica">85</text>
    </g>
    <g>
     <circle stroke="black" stroke-width="0.5" fill="#aaffff" cx="485.0" cy="325.0" r="1.0"/>
     <text stroke="none" x="485.0" y="325.0" font-size="20.0" font-family="helvetica">Agrococcus casei LMG 22410T (DQ168427)</text>
    </g>
    <g>
     <circle stroke="black" stroke-width="0.5" fill="#aaffff" cx="489.0" cy="1167.0" r="1.0"/>
     <text stroke="none" x="489.0" y="1167.0" font-size="10.0" font-family="helvetica">NT1.71</text>
    </g>
    <g>
     <circle stroke="black" stroke-width="0.5" fill="#aaffff" cx="490.0" cy="268.0" r="1.0"/>
     <text stroke="none" x="490.0" y="268.0" font-size="10.0" font-family="helvetica">NT1.72</text>
    </g>
    <g>
     <circle stroke="black" stroke-width="0.5" fill="#aaffff" cx="492.0" cy="1100.0" r="1.0"/>
     <text stroke="none" x="492.0" y="1100.0" font-size="20.0" font-family="helvetica">Mycetocola saprophilus CM-O1 T (ABO12647)</text>
    </g>
    <g>
     <circle stroke="black" stroke-width="0.5" fill="#aaffff" cx="493.0" cy="158.0" r="1.0"/>
     <text stroke="none" x="493.0" y="158.0" font-size="20.0" font-family="helvetica">72</text>
    </g>
    <g>
     <circle stroke="black" stroke-width="0.5" fill="#aaffff" cx="496.0" cy="596.0" r="1.0"/>
     <text stroke="none" x="496.0" y="596.0" font-size="20.0" font-family="helvetica">Humibacter albus SC-083T (AM494541)</text>
    </g>
    <g>
     <circle stroke="black" stroke-width="0.5" fill="#aaffff" cx="497.0" cy="1166.0" r="1.0"/>
     <text stroke="none" x="497.0" y="1166.0" font-size="10.0" font-family="helvetica">NT1.76</text>
    </g>
    <g>
     <circle stroke="black" stroke-width="0.5" fill="#aaffff" cx="499.0" cy="159.0" r="1.0"/>
     <text stroke="none" x="499.0" y="159.0" font-size="10.0" font-family="helvetica">NT1.77</text>
    </g>
    <g>
     <circle stroke="black" stroke-width="0.5" fill="#aaffff" cx="501.0" cy="906.0" r="1.0"/>
     <text stroke="none" x="501.0" y="906.0" font-size="20.0" font-family="helvetica"> Labedella gwakjiensis KSW2-1 7T (DQ533552)</text>
    </g>
    <g>
     <circle stroke="black" stroke-width="0.5" fill="#aaffff" cx="506.0" cy="247.0" r="1.0"/>
     <text stroke="none" x="506.0" y="247.0" font-size="10.0" font-family="helvetica">NT1.79</text>
    </g>
    <g>
     <circle stroke="black" stroke-width="0.5" fill="#aaffff" cx="508.0" cy="557.0" r="1.0"/>
     <text stroke="none" x="508.0" y="557.0" font-size="20.0" font-family="helvetica">Agromyces ramosus DSM 43045T (X77447)</text>
    </g>
    <g>
     <circle stroke="black" stroke-width="0.5" fill="#aaffff" cx="508.0" cy="867.0" r="1.0"/>
     <text stroke="none" x="508.0" y="867.0" font-size="20.0" font-family="helvetica">Cryobacterium psychrophilum DSM 4854T (AJ544063)</text>
    </g>
    <g>
     <circle stroke="black" stroke-width="0.5" fill="#aaffff" cx="509.0" cy="208.0" r="1.0"/>
     <text stroke="none" x="509.0" y="208.0" font-size="10.0" font-family="helvetica">NT1.82</text>
    </g>
    <g>
     <circle stroke="black" stroke-width="0.5" fill="#aaffff" cx="515.0" cy="363.0" r="1.0"/>
     <text stroke="none" x="515.0" y="363.0" font-size="20.0" font-family="helvetica">Aureobacterium liquefaciens DSM 2O638T (X77444)</text>
    </g>
    <g>
     <circle stroke="black" stroke-width="0.5" fill="#aaffff" cx="522.0" cy="107.0" r="1.0"/>
     <text stroke="none" x="522.0" y="107.0" font-size="20.0" font-family="helvetica">86</text>
    </g>
    <g>
     <circle stroke="black" stroke-width="0.5" fill="#aaffff" cx="531.0" cy="286.0" r="1.0"/>
     <text stroke="none" x="531.0" y="286.0" font-size="10.0" font-family="helvetica">NT1.85</text>
    </g>
    <g>
     <circle stroke="black" stroke-width="0.5" fill="#aaffff" cx="537.0" cy="63.0" r="1.0"/>
     <text stroke="none" x="537.0" y="63.0" font-size="10.0" font-family="helvetica">NT1.86</text>
    </g>
    <g>
     <circle stroke="black" stroke-width="0.5" fill="#aaffff" cx="539.0" cy="150.0" r="1.0"/>
     <text stroke="none" x="539.0" y="150.0" font-size="10.0" font-family="helvetica">NT1.87</text>
    </g>
    <g>
     <circle stroke="black" stroke-width="0.5" fill="#aaffff" cx="548.0" cy="151.0" r="1.0"/>
     <text stroke="none" x="548.0" y="151.0" font-size="10.0" font-family="helvetica">NT1.88</text>
    </g>
    <g>
     <circle stroke="black" stroke-width="0.5" fill="#aaffff" cx="555.0" cy="35.0" r="1.0"/>
     <text stroke="none" x="555.0" y="35.0" font-size="20.0" font-family="helvetica">92</text>
    </g>
    <g>
     <circle stroke="black" stroke-width="0.5" fill="#aaffff" cx="556.0" cy="130.0" r="1.0"/>
     <text stroke="none" x="556.0" y="130.0" font-size="10.0" font-family="helvetica">NT1.90</text>
    </g>
    <g>
     <circle stroke="black" stroke-width="0.5" fill="#aaffff" cx="558.0" cy="170.0" r="1.0"/>
     <text stroke="none" x="558.0" y="170.0" font-size="10.0" font-family="helvetica">NT1.91</text>
    </g>
    <g>
     <circle stroke="black" stroke-width="0.5" fill="#aaffff" cx="559.0" cy="54.0" r="1.0"/>
     <text stroke="none" x="559.0" y="54.0" font-size="10.0" font-family="helvetica">NT1.92</text>
    </g>
    <g>
     <circle stroke="black" stroke-width="0.5" fill="#aaffff" cx="562.0" cy="36.0" r="1.0"/>
     <text stroke="none" x="562.0" y="36.0" font-size="10.0" font-family="helvetica">NT1.93</text>
    </g>
    <g>
     <circle stroke="black" stroke-width="0.5" fill="#aaffff" cx="563.0" cy="1197.0" r="1.0"/>
     <text stroke="none" x="563.0" y="1197.0" font-size="20.0" font-family="helvetica">79</text>
    </g>
    <g>
     <circle stroke="black" stroke-width="0.5" fill="#aaffff" cx="571.0" cy="1197.0" r="1.0"/>
     <text stroke="none" x="571.0" y="1197.0" font-size="10.0" font-family="helvetica">NT1.95</text>
    </g>
    <g>
     <circle stroke="black" stroke-width="0.5" fill="#aaffff" cx="584.0" cy="15.0" r="1.0"/>
     <text stroke="none" x="584.0" y="15.0" font-size="20.0" font-family="helvetica">Agrococcus citreus IAM 15145T (AB279547)</text>
    </g>
    <g>
     <circle stroke="black" stroke-width="0.5" fill="#aaffff" cx="612.0" cy="1138.0" r="1.0"/>
     <text stroke="none" x="612.0" y="1138.0" font-size="10.0" font-family="helvetica">NT1.97</text>
    </g>
    <g>
     <circle stroke="black" stroke-width="0.5" fill="#aaffff" cx="622.0" cy="92.0" r="1.0"/>
     <text stroke="none" x="622.0" y="92.0" font-size="10.0" font-family="helvetica">NT1.98</text>
    </g>
    <g>
     <circle stroke="black" stroke-width="0.5" fill="#aaffff" cx="657.0" cy="1217.0" r="1.0"/>
     <text stroke="none" x="657.0" y="1217.0" font-size="10.0" font-family="helvetica">NT1.99</text>
    </g>
    <g>
     <circle stroke="black" stroke-width="0.5" fill="#aaffff" cx="667.0" cy="1177.0" r="1.0"/>
     <text stroke="none" x="667.0" y="1177.0" font-size="20.0" font-family="helvetica">Gulosibacter molinativorax ON4T (AJ306835)</text>
    </g>
    <g>
     <circle stroke="black" stroke-width="0.5" fill="#aaffff" cx="668.0" cy="1488.0" r="1.0"/>
     <text stroke="none" x="668.0" y="1488.0" font-size="20.0" font-family="helvetica">Macrococcus equipercicus H8h3T (Y15712)</text>
    </g>
    <g>
     <circle stroke="black" stroke-width="0.5" fill="#aaffff" cx="21.0" cy="1428.0" r="1.0"/>
     <text stroke="none" x="21.0" y="1428.0" font-size="10.0" font-family="helvetica">NT1.102</text>
    </g>
    <line stroke="black" x1="584.0" y1="15.0" x2="555.0" y2="35.0" stroke-width="0.5"/>
    <line stroke="black" x1="485.0" y1="325.0" x2="414.0" y2="269.0" stroke-width="0.5"/>
    <line stroke="black" x1="356.0" y1="395.0" x2="349.0" y2="395.0" stroke-width="0.5"/>
    <line stroke="black" x1="515.0" y1="363.0" x2="444.0" y2="382.0" stroke-width="0.5"/>
    <line stroke="black" x1="413.0" y1="441.0" x2="370.0" y2="460.0" stroke-width="0.5"/>
    <line stroke="black" x1="348.0" y1="674.0" x2="334.0" y2="656.0" stroke-width="0.5"/>
    <line stroke="black" x1="350.0" y1="634.0" x2="332.0" y2="654.0" stroke-width="0.5"/>
    <line stroke="black" x1="496.0" y1="596.0" x2="411.0" y2="578.0" stroke-width="0.5"/>
    <line stroke="black" x1="508.0" y1="557.0" x2="409.0" y2="576.0" stroke-width="0.5"/>
    <line stroke="black" x1="367.0" y1="712.0" x2="328.0" y2="732.0" stroke-width="0.5"/>
    <line stroke="black" x1="378.0" y1="751.0" x2="328.0" y2="732.0" stroke-width="0.5"/>
    <line stroke="black" x1="407.0" y1="1023.0" x2="354.0" y2="1060.0" stroke-width="0.5"/>
    <line stroke="black" x1="448.0" y1="984.0" x2="366.0" y2="951.0" stroke-width="0.5"/>
    <line stroke="black" x1="453.0" y1="1061.0" x2="391.0" y2="1097.0" stroke-width="0.5"/>
    <line stroke="black" x1="501.0" y1="906.0" x2="434.0" y2="887.0" stroke-width="0.5"/>
    <line stroke="black" x1="508.0" y1="867.0" x2="434.0" y2="887.0" stroke-width="0.5"/>
    <line stroke="black" x1="492.0" y1="1100.0" x2="422.0" y2="1134.0" stroke-width="0.5"/>
    <line stroke="black" x1="341.0" y1="1294.0" x2="283.0" y2="1275.0" stroke-width="0.5"/>
    <line stroke="black" x1="309.0" y1="1332.0" x2="277.0" y2="1351.0" stroke-width="0.5"/>
    <line stroke="black" x1="667.0" y1="1177.0" x2="563.0" y2="1197.0" stroke-width="0.5"/>
    <line stroke="black" x1="203.0" y1="1450.0" x2="127.0" y2="1369.0" stroke-width="0.5"/>
    <line stroke="black" x1="414.0" y1="269.0" x2="383.0" y2="323.0" stroke-width="0.5"/>
    <line stroke="black" x1="381.0" y1="326.0" x2="347.0" y2="393.0" stroke-width="0.5"/>
    <line stroke="black" x1="347.0" y1="393.0" x2="316.0" y2="470.0" stroke-width="0.5"/>
    <line stroke="black" x1="349.0" y1="395.0" x2="347.0" y2="393.0" stroke-width="0.5"/>
    <line stroke="black" x1="316.0" y1="470.0" x2="291.0" y2="563.0" stroke-width="0.5"/>
    <line stroke="black" x1="347.0" y1="547.0" x2="409.0" y2="576.0" stroke-width="0.5"/>
    <line stroke="black" x1="291.0" y1="563.0" x2="270.0" y2="691.0" stroke-width="0.5"/>
    <line stroke="black" x1="291.0" y1="563.0" x2="332.0" y2="654.0" stroke-width="0.5"/>
    <line stroke="black" x1="270.0" y1="691.0" x2="257.0" y2="983.0" stroke-width="0.5"/>
    <line stroke="black" x1="270.0" y1="691.0" x2="302.0" y2="819.0" stroke-width="0.5"/>
    <line stroke="black" x1="302.0" y1="819.0" x2="328.0" y2="732.0" stroke-width="0.5"/>
    <line stroke="black" x1="314.0" y1="907.0" x2="333.0" y2="1004.0" stroke-width="0.5"/>
    <line stroke="black" x1="257.0" y1="983.0" x2="225.0" y2="1167.0" stroke-width="0.5"/>
    <line stroke="black" x1="333.0" y1="1004.0" x2="354.0" y2="1060.0" stroke-width="0.5"/>
    <line stroke="black" x1="333.0" y1="1004.0" x2="366.0" y2="951.0" stroke-width="0.5"/>
    <line stroke="black" x1="354.0" y1="1060.0" x2="391.0" y2="1097.0" stroke-width="0.5"/>
    <line stroke="black" x1="391.0" y1="1097.0" x2="422.0" y2="1134.0" stroke-width="0.5"/>
    <line stroke="black" x1="225.0" y1="1167.0" x2="178.0" y2="1289.0" stroke-width="0.5"/>
    <line stroke="black" x1="411.0" y1="916.0" x2="434.0" y2="887.0" stroke-width="0.5"/>
    <line stroke="black" x1="21.0" y1="1428.0" x2="668.0" y2="1488.0" stroke-width="0.5"/>
    <line stroke="black" x1="21.0" y1="1428.0" x2="127.0" y2="1369.0" stroke-width="0.5"/>
   </g>
  </g>
 </svg>
</svg>
