<?xml version="1.0" encoding="UTF-8"?>
<svg height="800.0" width="700.0" xmlns="http://www.w3.org/2000/svg">
 <svg>
  <g>
   <g>
    <g>
     <circle stroke="black" stroke-width="0.5" fill="#aaffff" cx="0.0" cy="95.0" r="1.0"/>
     <text stroke="none" x="0.0" y="95.0" font-size="20.0" font-family="helvetica"/>
    </g>
    <g>
     <circle stroke="black" stroke-width="0.5" fill="#aaffff" cx="2.0" cy="95.0" r="1.0"/>
     <text stroke="none" x="2.0" y="95.0" font-size="10.0" font-family="helvetica">NT1.2</text>
    </g>
    <g>
     <circle stroke="black" stroke-width="0.5" fill="#aaffff" cx="7.0" cy="260.0" r="1.0"/>
     <text stroke="none" x="7.0" y="260.0" font-size="10.0" font-family="helvetica">NT1.3</text>
    </g>
    <g>
     <circle stroke="black" stroke-width="0.5" fill="#aaffff" cx="41.0" cy="129.0" r="1.0"/>
     <text stroke="none" x="41.0" y="129.0" font-size="10.0" font-family="helvetica">NT1.4</text>
    </g>
    <g>
     <circle stroke="black" stroke-width="0.5" fill="#aaffff" cx="45.0" cy="412.0" r="1.0"/>
     <text stroke="none" x="45.0" y="412.0" font-size="10.0" font-family="helvetica">NT1.5</text>
    </g>
    <g>
     <circle stroke="black" stroke-width="0.5" fill="#aaffff" cx="73.0" cy="531.0" r="1.0"/>
     <text stroke="none" x="73.0" y="531.0" font-size="10.0" font-family="helvetica">NT1.6</text>
    </g>
    <g>
     <circle stroke="black" stroke-width="0.5" fill="#aaffff" cx="86.0" cy="302.0" r="1.0"/>
     <text stroke="none" x="86.0" y="302.0" font-size="10.0" font-family="helvetica">NT1.7</text>
    </g>
    <g>
     <circle stroke="black" stroke-width="0.5" fill="#aaffff" cx="91.0" cy="12.0" r="1.0"/>
     <text stroke="none" x="91.0" y="12.0" font-size="20.0" font-family="helvetica">Burkholderia cepacia B7aM (AB164394)</text>
    </g>
    <g>
     <circle stroke="black" stroke-width="0.5" fill="#aaffff" cx="91.0" cy="177.0" r="1.0"/>
     <text stroke="none" x="91.0" y="177.0" font-size="10.0" font-family="helvetica">NT1.9</text>
    </g>
    <g>
     <circle stroke="black" stroke-width="0.5" fill="#aaffff" cx="129.0" cy="85.0" r="1.0"/>
     <text stroke="none" x="129.0" y="85.0" font-size="10.0" font-family="helvetica">NT1.10</text>
    </g>
    <g>
     <circle stroke="black" stroke-width="0.5" fill="#aaffff" cx="131.0" cy="591.0" r="1.0"/>
     <text stroke="none" x="131.0" y="591.0" font-size="10.0" font-family="helvetica">NT1.11</text>
    </g>
    <g>
     <circle stroke="black" stroke-width="0.5" fill="#aaffff" cx="155.0" cy="477.0" r="1.0"/>
     <text stroke="none" x="155.0" y="477.0" font-size="10.0" font-family="helvetica">NT1.12</text>
    </g>
    <g>
     <circle stroke="black" stroke-width="0.5" fill="#aaffff" cx="176.0" cy="641.0" r="1.0"/>
     <text stroke="none" x="176.0" y="641.0" font-size="10.0" font-family="helvetica">NT1.13</text>
    </g>
    <g>
     <circle stroke="black" stroke-width="0.5" fill="#aaffff" cx="209.0" cy="205.0" r="1.0"/>
     <text stroke="none" x="209.0" y="205.0" font-size="20.0" font-family="helvetica">Leptothrix cholodnii CCM 1827 (X97070)</text>
    </g>
    <g>
     <circle stroke="black" stroke-width="0.5" fill="#aaffff" cx="209.0" cy="342.0" r="1.0"/>
     <text stroke="none" x="209.0" y="342.0" font-size="10.0" font-family="helvetica">NT1.15</text>
    </g>
    <g>
     <circle stroke="black" stroke-width="0.5" fill="#aaffff" cx="211.0" cy="259.0" r="1.0"/>
     <text stroke="none" x="211.0" y="259.0" font-size="20.0" font-family="helvetica">Azohydromonas lata IAM 12599T (D88007)</text>
    </g>
    <g>
     <circle stroke="black" stroke-width="0.5" fill="#aaffff" cx="218.0" cy="108.0" r="1.0"/>
     <text stroke="none" x="218.0" y="108.0" font-size="20.0" font-family="helvetica">Roseateles depolymerans 61 B2 (AB003625)</text>
    </g>
    <g>
     <circle stroke="black" stroke-width="0.5" fill="#aaffff" cx="218.0" cy="60.0" r="1.0"/>
     <text stroke="none" x="218.0" y="60.0" font-size="20.0" font-family="helvetica">Pelomonas saccharophila DSM 6547 (AB021407)</text>
    </g>
    <g>
     <circle stroke="black" stroke-width="0.5" fill="#aaffff" cx="244.0" cy="500.0" r="1.0"/>
     <text stroke="none" x="244.0" y="500.0" font-size="10.0" font-family="helvetica">NT1.19</text>
    </g>
    <g>
     <circle stroke="black" stroke-width="0.5" fill="#aaffff" cx="244.0" cy="451.0" r="1.0"/>
     <text stroke="none" x="244.0" y="451.0" font-size="20.0" font-family="helvetica">Aquincola tertiaricarbonis L108 (DQ436455)</text>
    </g>
    <g>
     <circle stroke="black" stroke-width="0.5" fill="#aaffff" cx="265.0" cy="595.0" r="1.0"/>
     <text stroke="none" x="265.0" y="595.0" font-size="10.0" font-family="helvetica">NT1.21</text>
    </g>
    <g>
     <circle stroke="black" stroke-width="0.5" fill="#aaffff" cx="269.0" cy="156.0" r="1.0"/>
     <text stroke="none" x="269.0" y="156.0" font-size="20.0" font-family="helvetica">Leptothrix mobilis Feox-1T (X97071)</text>
    </g>
    <g>
     <circle stroke="black" stroke-width="0.5" fill="#aaffff" cx="270.0" cy="378.0" r="1.0"/>
     <text stroke="none" x="270.0" y="378.0" font-size="20.0" font-family="helvetica">69</text>
    </g>
    <g>
     <circle stroke="black" stroke-width="0.5" fill="#aaffff" cx="299.0" cy="307.0" r="1.0"/>
     <text stroke="none" x="299.0" y="307.0" font-size="20.0" font-family="helvetica">Rubrivivax gelatinosus IL144 (ABO16167)</text>
    </g>
    <g>
     <circle stroke="black" stroke-width="0.5" fill="#aaffff" cx="300.0" cy="547.0" r="1.0"/>
     <text stroke="none" x="300.0" y="547.0" font-size="10.0" font-family="helvetica">NT1.25</text>
    </g>
    <g>
     <circle stroke="black" stroke-width="0.5" fill="#aaffff" cx="313.0" cy="687.0" r="1.0"/>
     <text stroke="none" x="313.0" y="687.0" font-size="10.0" font-family="helvetica">NT1.26</text>
    </g>
    <g>
     <circle stroke="black" stroke-width="0.5" fill="#aaffff" cx="359.0" cy="355.0" r="1.0"/>
     <text stroke="none" x="359.0" y="355.0" font-size="20.0" font-family="helvetica">Rubrivivax benzoatilyticus JA2T (AJ888903)</text>
    </g>
    <g>
     <circle stroke="black" stroke-width="0.5" fill="#aaffff" cx="359.0" cy="404.0" r="1.0"/>
     <text stroke="none" x="359.0" y="404.0" font-size="10.0" font-family="helvetica">NT1.28</text>
    </g>
    <g>
     <circle stroke="black" stroke-width="0.5" fill="#aaffff" cx="382.0" cy="730.0" r="1.0"/>
     <text stroke="none" x="382.0" y="730.0" font-size="10.0" font-family="helvetica">NT1.29</text>
    </g>
    <g>
     <circle stroke="black" stroke-width="0.5" fill="#aaffff" cx="402.0" cy="646.0" r="1.0"/>
     <text stroke="none" x="402.0" y="646.0" font-size="20.0" font-family="helvetica">Ideonella dechloratans ATCC 51718T (X72724)</text>
    </g>
    <g>
     <circle stroke="black" stroke-width="0.5" fill="#aaffff" cx="416.0" cy="766.0" r="1.0"/>
     <text stroke="none" x="416.0" y="766.0" font-size="10.0" font-family="helvetica">NT1.31</text>
    </g>
    <g>
     <circle stroke="black" stroke-width="0.5" fill="#aaffff" cx="471.0" cy="695.0" r="1.0"/>
     <text stroke="none" x="471.0" y="695.0" font-size="10.0" font-family="helvetica">NT1.32</text>
    </g>
    <g>
     <circle stroke="black" stroke-width="0.5" fill="#aaffff" cx="505.0" cy="742.0" r="1.0"/>
     <text stroke="none" x="505.0" y="742.0" font-size="10.0" font-family="helvetica">NT1.33</text>
    </g>
    <g>
     <circle stroke="black" stroke-width="0.5" fill="#aaffff" cx="505.0" cy="791.0" r="1.0"/>
     <text stroke="none" x="505.0" y="791.0" font-size="10.0" font-family="helvetica">NT1.34</text>
    </g>
    <line stroke="black" x1="2.0" y1="95.0" x2="0.0" y2="95.0" stroke-width="0.5"/>
    <line stroke="black" x1="218.0" y1="108.0" x2="129.0" y2="85.0" stroke-width="0.5"/>
    <line stroke="black" x1="218.0" y1="60.0" x2="129.0" y2="85.0" stroke-width="0.5"/>
    <line stroke="black" x1="211.0" y1="259.0" x2="86.0" y2="302.0" stroke-width="0.5"/>
    <line stroke="black" x1="2.0" y1="95.0" x2="7.0" y2="260.0" stroke-width="0.5"/>
    <line stroke="black" x1="7.0" y1="260.0" x2="45.0" y2="412.0" stroke-width="0.5"/>
    <line stroke="black" x1="7.0" y1="260.0" x2="41.0" y2="129.0" stroke-width="0.5"/>
    <line stroke="black" x1="41.0" y1="129.0" x2="91.0" y2="177.0" stroke-width="0.5"/>
    <line stroke="black" x1="41.0" y1="129.0" x2="129.0" y2="85.0" stroke-width="0.5"/>
    <line stroke="black" x1="45.0" y1="412.0" x2="73.0" y2="531.0" stroke-width="0.5"/>
    <line stroke="black" x1="45.0" y1="412.0" x2="86.0" y2="302.0" stroke-width="0.5"/>
    <line stroke="black" x1="86.0" y1="302.0" x2="209.0" y2="342.0" stroke-width="0.5"/>
    <line stroke="black" x1="91.0" y1="12.0" x2="2.0" y2="95.0" stroke-width="0.5"/>
    <line stroke="black" x1="209.0" y1="205.0" x2="91.0" y2="177.0" stroke-width="0.5"/>
    <line stroke="black" x1="269.0" y1="156.0" x2="91.0" y2="177.0" stroke-width="0.5"/>
    <line stroke="black" x1="244.0" y1="451.0" x2="155.0" y2="477.0" stroke-width="0.5"/>
    <line stroke="black" x1="299.0" y1="307.0" x2="209.0" y2="342.0" stroke-width="0.5"/>
    <line stroke="black" x1="359.0" y1="355.0" x2="270.0" y2="378.0" stroke-width="0.5"/>
    <line stroke="black" x1="402.0" y1="646.0" x2="313.0" y2="687.0" stroke-width="0.5"/>
   </g>
  </g>
 </svg>
</svg>
