<?xml version="1.0" encoding="UTF-8"?>
<svg height="800.0" width="700.0" xmlns="http://www.w3.org/2000/svg">
 <svg>
  <g>
   <g>
    <g>
     <circle stroke="black" stroke-width="0.5" fill="#aaffff" cx="4.0" cy="577.0" r="1.0"/>
     <text stroke="none" x="4.0" y="577.0" font-size="10.0" font-family="helvetica">NT1.1</text>
    </g>
    <g>
     <circle stroke="black" stroke-width="0.5" fill="#aaffff" cx="64.0" cy="505.0" r="1.0"/>
     <text stroke="none" x="64.0" y="505.0" font-size="10.0" font-family="helvetica">NT1.2</text>
    </g>
    <g>
     <circle stroke="black" stroke-width="0.5" fill="#aaffff" cx="89.0" cy="285.0" r="1.0"/>
     <text stroke="none" x="89.0" y="285.0" font-size="10.0" font-family="helvetica">NT1.3</text>
    </g>
    <g>
     <circle stroke="black" stroke-width="0.5" fill="#aaffff" cx="109.0" cy="216.0" r="1.0"/>
     <text stroke="none" x="109.0" y="216.0" font-size="10.0" font-family="helvetica">NT1.4</text>
    </g>
    <g>
     <circle stroke="black" stroke-width="0.5" fill="#aaffff" cx="114.0" cy="643.0" r="1.0"/>
     <text stroke="none" x="114.0" y="643.0" font-size="20.0" font-family="helvetica">Aquamicrobium defluvii DSM 11603T (Y15403)</text>
    </g>
    <g>
     <circle stroke="black" stroke-width="0.5" fill="#aaffff" cx="118.0" cy="328.0" r="1.0"/>
     <text stroke="none" x="118.0" y="328.0" font-size="20.0" font-family="helvetica">Mesorhizobium chacoense CECT 53367 (AJ278249)</text>
    </g>
    <g>
     <circle stroke="black" stroke-width="0.5" fill="#aaffff" cx="127.0" cy="279.0" r="1.0"/>
     <text stroke="none" x="127.0" y="279.0" font-size="20.0" font-family="helvetica">Mesorhizobium ciceri UPM-Ca7T (U07934)</text>
    </g>
    <g>
     <circle stroke="black" stroke-width="0.5" fill="#aaffff" cx="144.0" cy="394.0" r="1.0"/>
     <text stroke="none" x="144.0" y="394.0" font-size="20.0" font-family="helvetica">100</text>
    </g>
    <g>
     <circle stroke="black" stroke-width="0.5" fill="#aaffff" cx="145.0" cy="370.0" r="1.0"/>
     <text stroke="none" x="145.0" y="370.0" font-size="10.0" font-family="helvetica">NT1.9</text>
    </g>
    <g>
     <circle stroke="black" stroke-width="0.5" fill="#aaffff" cx="145.0" cy="416.0" r="1.0"/>
     <text stroke="none" x="145.0" y="416.0" font-size="20.0" font-family="helvetica">Aminobacter aganoensis DSM 70517 (AJO11760)</text>
    </g>
    <g>
     <circle stroke="black" stroke-width="0.5" fill="#aaffff" cx="145.0" cy="687.0" r="1.0"/>
     <text stroke="none" x="145.0" y="687.0" font-size="10.0" font-family="helvetica">NT1.11</text>
    </g>
    <g>
     <circle stroke="black" stroke-width="0.5" fill="#aaffff" cx="145.0" cy="143.0" r="1.0"/>
     <text stroke="none" x="145.0" y="143.0" font-size="20.0" font-family="helvetica">59</text>
    </g>
    <g>
     <circle stroke="black" stroke-width="0.5" fill="#aaffff" cx="154.0" cy="214.0" r="1.0"/>
     <text stroke="none" x="154.0" y="214.0" font-size="10.0" font-family="helvetica">NT1.13</text>
    </g>
    <g>
     <circle stroke="black" stroke-width="0.5" fill="#aaffff" cx="164.0" cy="69.0" r="1.0"/>
     <text stroke="none" x="164.0" y="69.0" font-size="20.0" font-family="helvetica">93</text>
    </g>
    <g>
     <circle stroke="black" stroke-width="0.5" fill="#aaffff" cx="165.0" cy="192.0" r="1.0"/>
     <text stroke="none" x="165.0" y="192.0" font-size="20.0" font-family="helvetica">Mesorhizobium tianshanense A-1BST (U71079)</text>
    </g>
    <g>
     <circle stroke="black" stroke-width="0.5" fill="#aaffff" cx="166.0" cy="55.0" r="1.0"/>
     <text stroke="none" x="166.0" y="55.0" font-size="20.0" font-family="helvetica">93</text>
    </g>
    <g>
     <circle stroke="black" stroke-width="0.5" fill="#aaffff" cx="171.0" cy="55.0" r="1.0"/>
     <text stroke="none" x="171.0" y="55.0" font-size="20.0" font-family="helvetica">Mesorhizobium amorphae ACCC 19665T (AF041442)</text>
    </g>
    <g>
     <circle stroke="black" stroke-width="0.5" fill="#aaffff" cx="171.0" cy="123.0" r="1.0"/>
     <text stroke="none" x="171.0" y="123.0" font-size="20.0" font-family="helvetica">59</text>
    </g>
    <g>
     <circle stroke="black" stroke-width="0.5" fill="#aaffff" cx="174.0" cy="236.0" r="1.0"/>
     <text stroke="none" x="174.0" y="236.0" font-size="20.0" font-family="helvetica">Mesorhizobium mediterraneum UPM-Ca36T (L38825)</text>
    </g>
    <g>
     <circle stroke="black" stroke-width="0.5" fill="#aaffff" cx="183.0" cy="103.0" r="1.0"/>
     <text stroke="none" x="183.0" y="103.0" font-size="10.0" font-family="helvetica">NT1.20</text>
    </g>
    <g>
     <circle stroke="black" stroke-width="0.5" fill="#aaffff" cx="188.0" cy="10.0" r="1.0"/>
     <text stroke="none" x="188.0" y="10.0" font-size="20.0" font-family="helvetica">Mesorhizobium plurifarium LMG 11892T (Y14158)</text>
    </g>
    <g>
     <circle stroke="black" stroke-width="0.5" fill="#aaffff" cx="188.0" cy="147.0" r="1.0"/>
     <text stroke="none" x="188.0" y="147.0" font-size="20.0" font-family="helvetica">Mesorhizobium huakuii NBRC 15243T (D13431)</text>
    </g>
    <g>
     <circle stroke="black" stroke-width="0.5" fill="#aaffff" cx="199.0" cy="505.0" r="1.0"/>
     <text stroke="none" x="199.0" y="505.0" font-size="20.0" font-family="helvetica">Phyllobacterium myrsinacearum HM35 (AJ011330)</text>
    </g>
    <g>
     <circle stroke="black" stroke-width="0.5" fill="#aaffff" cx="223.0" cy="595.0" r="1.0"/>
     <text stroke="none" x="223.0" y="595.0" font-size="20.0" font-family="helvetica">Nitratireductor aquibiodomus NL21T (AF534573)</text>
    </g>
    <g>
     <circle stroke="black" stroke-width="0.5" fill="#aaffff" cx="590.0" cy="737.0" r="1.0"/>
     <text stroke="none" x="590.0" y="737.0" font-size="10.0" font-family="helvetica">NT1.25</text>
    </g>
    <g>
     <circle stroke="black" stroke-width="0.5" fill="#aaffff" cx="4.0" cy="391.0" r="1.0"/>
     <text stroke="none" x="4.0" y="391.0" font-size="10.0" font-family="helvetica">NT1.26</text>
    </g>
    <line stroke="black" x1="171.0" y1="55.0" x2="166.0" y2="55.0" stroke-width="0.5"/>
    <line stroke="black" x1="118.0" y1="328.0" x2="89.0" y2="285.0" stroke-width="0.5"/>
    <line stroke="black" x1="145.0" y1="416.0" x2="144.0" y2="394.0" stroke-width="0.5"/>
    <line stroke="black" x1="199.0" y1="505.0" x2="64.0" y2="505.0" stroke-width="0.5"/>
    <line stroke="black" x1="166.0" y1="55.0" x2="164.0" y2="69.0" stroke-width="0.5"/>
    <line stroke="black" x1="164.0" y1="69.0" x2="145.0" y2="143.0" stroke-width="0.5"/>
    <line stroke="black" x1="145.0" y1="143.0" x2="109.0" y2="216.0" stroke-width="0.5"/>
    <line stroke="black" x1="145.0" y1="143.0" x2="154.0" y2="214.0" stroke-width="0.5"/>
    <line stroke="black" x1="109.0" y1="216.0" x2="89.0" y2="285.0" stroke-width="0.5"/>
    <line stroke="black" x1="109.0" y1="216.0" x2="127.0" y2="279.0" stroke-width="0.5"/>
    <line stroke="black" x1="89.0" y1="285.0" x2="64.0" y2="505.0" stroke-width="0.5"/>
    <line stroke="black" x1="4.0" y1="391.0" x2="64.0" y2="505.0" stroke-width="0.5"/>
    <line stroke="black" x1="114.0" y1="643.0" x2="4.0" y2="577.0" stroke-width="0.5"/>
    <line stroke="black" x1="223.0" y1="595.0" x2="64.0" y2="505.0" stroke-width="0.5"/>
    <line stroke="black" x1="165.0" y1="192.0" x2="154.0" y2="214.0" stroke-width="0.5"/>
    <line stroke="black" x1="174.0" y1="236.0" x2="154.0" y2="214.0" stroke-width="0.5"/>
    <line stroke="black" x1="188.0" y1="10.0" x2="166.0" y2="55.0" stroke-width="0.5"/>
    <line stroke="black" x1="188.0" y1="147.0" x2="171.0" y2="123.0" stroke-width="0.5"/>
   </g>
  </g>
 </svg>
</svg>
