<?xml version="1.0" encoding="UTF-8"?>
<svg height="800.0" width="700.0" xmlns="http://www.w3.org/2000/svg">
 <svg>
  <g>
   <g>
    <g>
     <circle stroke="black" stroke-width="0.5" fill="#aaffff" cx="55.0" cy="810.0" r="1.0"/>
     <text stroke="none" x="55.0" y="810.0" font-size="10.0" font-family="helvetica">NT1.1</text>
    </g>
    <g>
     <circle stroke="black" stroke-width="0.5" fill="#aaffff" cx="85.0" cy="740.0" r="1.0"/>
     <text stroke="none" x="85.0" y="740.0" font-size="10.0" font-family="helvetica">NT1.2</text>
    </g>
    <g>
     <circle stroke="black" stroke-width="0.5" fill="#aaffff" cx="108.0" cy="765.0" r="1.0"/>
     <text stroke="none" x="108.0" y="765.0" font-size="10.0" font-family="helvetica">NT1.3</text>
    </g>
    <g>
     <circle stroke="black" stroke-width="0.5" fill="#aaffff" cx="138.0" cy="735.0" r="1.0"/>
     <text stroke="none" x="138.0" y="735.0" font-size="10.0" font-family="helvetica">NT1.4</text>
    </g>
    <g>
     <circle stroke="black" stroke-width="0.5" fill="#aaffff" cx="146.0" cy="734.0" r="1.0"/>
     <text stroke="none" x="146.0" y="734.0" font-size="20.0" font-family="helvetica"/>
    </g>
    <g>
     <circle stroke="black" stroke-width="0.5" fill="#aaffff" cx="217.0" cy="687.0" r="1.0"/>
     <text stroke="none" x="217.0" y="687.0" font-size="10.0" font-family="helvetica">NT1.6</text>
    </g>
    <g>
     <circle stroke="black" stroke-width="0.5" fill="#aaffff" cx="224.0" cy="379.0" r="1.0"/>
     <text stroke="none" x="224.0" y="379.0" font-size="20.0" font-family="helvetica">100</text>
    </g>
    <g>
     <circle stroke="black" stroke-width="0.5" fill="#aaffff" cx="225.0" cy="688.0" r="1.0"/>
     <text stroke="none" x="225.0" y="688.0" font-size="20.0" font-family="helvetica"/>
    </g>
    <g>
     <circle stroke="black" stroke-width="0.5" fill="#aaffff" cx="232.0" cy="379.0" r="1.0"/>
     <text stroke="none" x="232.0" y="379.0" font-size="20.0" font-family="helvetica"/>
    </g>
    <g>
     <circle stroke="black" stroke-width="0.5" fill="#aaffff" cx="244.0" cy="497.0" r="1.0"/>
     <text stroke="none" x="244.0" y="497.0" font-size="10.0" font-family="helvetica">NT1.10</text>
    </g>
    <g>
     <circle stroke="black" stroke-width="0.5" fill="#aaffff" cx="246.0" cy="499.0" r="1.0"/>
     <text stroke="none" x="246.0" y="499.0" font-size="10.0" font-family="helvetica">NT1.11</text>
    </g>
    <g>
     <circle stroke="black" stroke-width="0.5" fill="#aaffff" cx="252.0" cy="499.0" r="1.0"/>
     <text stroke="none" x="252.0" y="499.0" font-size="20.0" font-family="helvetica"/>
    </g>
    <g>
     <circle stroke="black" stroke-width="0.5" fill="#aaffff" cx="263.0" cy="299.0" r="1.0"/>
     <text stroke="none" x="263.0" y="299.0" font-size="10.0" font-family="helvetica">NT1.13</text>
    </g>
    <g>
     <circle stroke="black" stroke-width="0.5" fill="#aaffff" cx="274.0" cy="908.0" r="1.0"/>
     <text stroke="none" x="274.0" y="908.0" font-size="20.0" font-family="helvetica">Shewanella putrefaciens ATCC 80717 (X82133)</text>
    </g>
    <g>
     <circle stroke="black" stroke-width="0.5" fill="#aaffff" cx="274.0" cy="174.0" r="1.0"/>
     <text stroke="none" x="274.0" y="174.0" font-size="20.0" font-family="helvetica">67</text>
    </g>
    <g>
     <circle stroke="black" stroke-width="0.5" fill="#aaffff" cx="278.0" cy="419.0" r="1.0"/>
     <text stroke="none" x="278.0" y="419.0" font-size="10.0" font-family="helvetica">NT1.16</text>
    </g>
    <g>
     <circle stroke="black" stroke-width="0.5" fill="#aaffff" cx="285.0" cy="844.0" r="1.0"/>
     <text stroke="none" x="285.0" y="844.0" font-size="20.0" font-family="helvetica">Pseudoalteromonas haloplanktis ATCC 143937 (X67024)</text>
    </g>
    <g>
     <circle stroke="black" stroke-width="0.5" fill="#aaffff" cx="286.0" cy="433.0" r="1.0"/>
     <text stroke="none" x="286.0" y="433.0" font-size="20.0" font-family="helvetica"/>
    </g>
    <g>
     <circle stroke="black" stroke-width="0.5" fill="#aaffff" cx="291.0" cy="719.0" r="1.0"/>
     <text stroke="none" x="291.0" y="719.0" font-size="20.0" font-family="helvetica">Thalassomonas viridans DSM 137547 (AJ294748)</text>
    </g>
    <g>
     <circle stroke="black" stroke-width="0.5" fill="#aaffff" cx="302.0" cy="972.0" r="1.0"/>
     <text stroke="none" x="302.0" y="972.0" font-size="20.0" font-family="helvetica">Marinobacter hydrocarbonoclasticus ATCC 498407 (X67022)</text>
    </g>
    <g>
     <circle stroke="black" stroke-width="0.5" fill="#aaffff" cx="307.0" cy="655.0" r="1.0"/>
     <text stroke="none" x="307.0" y="655.0" font-size="20.0" font-family="helvetica">Colwellia psychrerythraea ATCC 273647 (AF001375)</text>
    </g>
    <g>
     <circle stroke="black" stroke-width="0.5" fill="#aaffff" cx="316.0" cy="783.0" r="1.0"/>
     <text stroke="none" x="316.0" y="783.0" font-size="20.0" font-family="helvetica">Idiomarina abyssalis KMM 2277 (AFO52740)</text>
    </g>
    <g>
     <circle stroke="black" stroke-width="0.5" fill="#aaffff" cx="326.0" cy="561.0" r="1.0"/>
     <text stroke="none" x="326.0" y="561.0" font-size="20.0" font-family="helvetica">100</text>
    </g>
    <g>
     <circle stroke="black" stroke-width="0.5" fill="#aaffff" cx="327.0" cy="527.0" r="1.0"/>
     <text stroke="none" x="327.0" y="527.0" font-size="20.0" font-family="helvetica">Alteromonas macleodii IAM 129207 (X82145)</text>
    </g>
    <g>
     <circle stroke="black" stroke-width="0.5" fill="#aaffff" cx="329.0" cy="245.0" r="1.0"/>
     <text stroke="none" x="329.0" y="245.0" font-size="20.0" font-family="helvetica"/>
    </g>
    <g>
     <circle stroke="black" stroke-width="0.5" fill="#aaffff" cx="331.0" cy="402.0" r="1.0"/>
     <text stroke="none" x="331.0" y="402.0" font-size="20.0" font-family="helvetica">Aestuariibacter halophilus DSM 152667 (AY207503)</text>
    </g>
    <g>
     <circle stroke="black" stroke-width="0.5" fill="#aaffff" cx="335.0" cy="561.0" r="1.0"/>
     <text stroke="none" x="335.0" y="561.0" font-size="20.0" font-family="helvetica"/>
    </g>
    <g>
     <circle stroke="black" stroke-width="0.5" fill="#aaffff" cx="342.0" cy="214.0" r="1.0"/>
     <text stroke="none" x="342.0" y="214.0" font-size="20.0" font-family="helvetica">Glaciecola mesophila LMG 218557 (AJ548479)</text>
    </g>
    <g>
     <circle stroke="black" stroke-width="0.5" fill="#aaffff" cx="346.0" cy="120.0" r="1.0"/>
     <text stroke="none" x="346.0" y="120.0" font-size="20.0" font-family="helvetica"/>
    </g>
    <g>
     <circle stroke="black" stroke-width="0.5" fill="#aaffff" cx="348.0" cy="592.0" r="1.0"/>
     <text stroke="none" x="348.0" y="592.0" font-size="20.0" font-family="helvetica">Alteromonas marina SW-477 (AF529060)</text>
    </g>
    <g>
     <circle stroke="black" stroke-width="0.5" fill="#aaffff" cx="353.0" cy="278.0" r="1.0"/>
     <text stroke="none" x="353.0" y="278.0" font-size="20.0" font-family="helvetica">Glaciecola polaris LMG 218577 (AJ293820)</text>
    </g>
    <g>
     <circle stroke="black" stroke-width="0.5" fill="#aaffff" cx="355.0" cy="467.0" r="1.0"/>
     <text stroke="none" x="355.0" y="467.0" font-size="20.0" font-family="helvetica">Aestuariibacter salexigens DSM 153007 (AY207502)</text>
    </g>
    <g>
     <circle stroke="black" stroke-width="0.5" fill="#aaffff" cx="370.0" cy="150.0" r="1.0"/>
     <text stroke="none" x="370.0" y="150.0" font-size="20.0" font-family="helvetica">Strain FR10647 (AY787042)</text>
    </g>
    <g>
     <circle stroke="black" stroke-width="0.5" fill="#aaffff" cx="377.0" cy="339.0" r="1.0"/>
     <text stroke="none" x="377.0" y="339.0" font-size="20.0" font-family="helvetica">Glaciecola punicea ACAM 6117 (U85853)</text>
    </g>
    <g>
     <circle stroke="black" stroke-width="0.5" fill="#aaffff" cx="395.0" cy="86.0" r="1.0"/>
     <text stroke="none" x="395.0" y="86.0" font-size="20.0" font-family="helvetica">Glaciecola pallidula ACAM 6157 (U85854)</text>
    </g>
    <g>
     <circle stroke="black" stroke-width="0.5" fill="#aaffff" cx="656.0" cy="1035.0" r="1.0"/>
     <text stroke="none" x="656.0" y="1035.0" font-size="20.0" font-family="helvetica">Helicobacter pylori ATCC 435047 (U01330)</text>
    </g>
    <line stroke="black" x1="346.0" y1="120.0" x2="274.0" y2="174.0" stroke-width="0.5"/>
    <line stroke="black" x1="395.0" y1="86.0" x2="274.0" y2="174.0" stroke-width="0.5"/>
    <line stroke="black" x1="370.0" y1="150.0" x2="274.0" y2="174.0" stroke-width="0.5"/>
    <line stroke="black" x1="329.0" y1="245.0" x2="274.0" y2="174.0" stroke-width="0.5"/>
    <line stroke="black" x1="342.0" y1="214.0" x2="274.0" y2="174.0" stroke-width="0.5"/>
    <line stroke="black" x1="353.0" y1="278.0" x2="274.0" y2="174.0" stroke-width="0.5"/>
    <line stroke="black" x1="232.0" y1="379.0" x2="224.0" y2="379.0" stroke-width="0.5"/>
    <line stroke="black" x1="377.0" y1="339.0" x2="263.0" y2="299.0" stroke-width="0.5"/>
    <line stroke="black" x1="252.0" y1="499.0" x2="246.0" y2="499.0" stroke-width="0.5"/>
    <line stroke="black" x1="286.0" y1="433.0" x2="278.0" y2="419.0" stroke-width="0.5"/>
    <line stroke="black" x1="335.0" y1="561.0" x2="326.0" y2="561.0" stroke-width="0.5"/>
    <line stroke="black" x1="327.0" y1="527.0" x2="326.0" y2="561.0" stroke-width="0.5"/>
    <line stroke="black" x1="331.0" y1="402.0" x2="278.0" y2="419.0" stroke-width="0.5"/>
    <line stroke="black" x1="146.0" y1="734.0" x2="138.0" y2="735.0" stroke-width="0.5"/>
    <line stroke="black" x1="225.0" y1="688.0" x2="217.0" y2="687.0" stroke-width="0.5"/>
    <line stroke="black" x1="285.0" y1="844.0" x2="108.0" y2="765.0" stroke-width="0.5"/>
    <line stroke="black" x1="291.0" y1="719.0" x2="217.0" y2="687.0" stroke-width="0.5"/>
    <line stroke="black" x1="307.0" y1="655.0" x2="217.0" y2="687.0" stroke-width="0.5"/>
    <line stroke="black" x1="274.0" y1="908.0" x2="85.0" y2="740.0" stroke-width="0.5"/>
    <line stroke="black" x1="274.0" y1="174.0" x2="263.0" y2="299.0" stroke-width="0.5"/>
    <line stroke="black" x1="263.0" y1="299.0" x2="224.0" y2="379.0" stroke-width="0.5"/>
    <line stroke="black" x1="224.0" y1="379.0" x2="85.0" y2="740.0" stroke-width="0.5"/>
    <line stroke="black" x1="224.0" y1="379.0" x2="244.0" y2="497.0" stroke-width="0.5"/>
    <line stroke="black" x1="246.0" y1="499.0" x2="244.0" y2="497.0" stroke-width="0.5"/>
    <line stroke="black" x1="244.0" y1="497.0" x2="278.0" y2="419.0" stroke-width="0.5"/>
    <line stroke="black" x1="246.0" y1="499.0" x2="326.0" y2="561.0" stroke-width="0.5"/>
    <line stroke="black" x1="85.0" y1="740.0" x2="108.0" y2="765.0" stroke-width="0.5"/>
    <line stroke="black" x1="85.0" y1="740.0" x2="55.0" y2="810.0" stroke-width="0.5"/>
    <line stroke="black" x1="108.0" y1="765.0" x2="138.0" y2="735.0" stroke-width="0.5"/>
    <line stroke="black" x1="138.0" y1="735.0" x2="217.0" y2="687.0" stroke-width="0.5"/>
    <line stroke="black" x1="656.0" y1="1035.0" x2="55.0" y2="810.0" stroke-width="0.5"/>
    <line stroke="black" x1="302.0" y1="972.0" x2="55.0" y2="810.0" stroke-width="0.5"/>
    <line stroke="black" x1="316.0" y1="783.0" x2="138.0" y2="735.0" stroke-width="0.5"/>
    <line stroke="black" x1="355.0" y1="467.0" x2="278.0" y2="419.0" stroke-width="0.5"/>
    <line stroke="black" x1="348.0" y1="592.0" x2="326.0" y2="561.0" stroke-width="0.5"/>
   </g>
  </g>
 </svg>
</svg>
