<?xml version="1.0" encoding="UTF-8"?>
<svg height="800.0" width="700.0" xmlns="http://www.w3.org/2000/svg">
 <svg>
  <g>
   <g>
    <g>
     <circle stroke="black" stroke-width="0.5" fill="#aaffff" cx="112.0" cy="735.0" r="1.0"/>
     <text stroke="none" x="112.0" y="735.0" font-size="10.0" font-family="helvetica">NT1.1</text>
    </g>
    <g>
     <circle stroke="black" stroke-width="0.5" fill="#aaffff" cx="167.0" cy="514.0" r="1.0"/>
     <text stroke="none" x="167.0" y="514.0" font-size="20.0" font-family="helvetica">98</text>
    </g>
    <g>
     <circle stroke="black" stroke-width="0.5" fill="#aaffff" cx="178.0" cy="353.0" r="1.0"/>
     <text stroke="none" x="178.0" y="353.0" font-size="10.0" font-family="helvetica">NT1.3</text>
    </g>
    <g>
     <circle stroke="black" stroke-width="0.5" fill="#aaffff" cx="197.0" cy="674.0" r="1.0"/>
     <text stroke="none" x="197.0" y="674.0" font-size="10.0" font-family="helvetica">NT1.4</text>
    </g>
    <g>
     <circle stroke="black" stroke-width="0.5" fill="#aaffff" cx="208.0" cy="268.0" r="1.0"/>
     <text stroke="none" x="208.0" y="268.0" font-size="10.0" font-family="helvetica">NT1.5</text>
    </g>
    <g>
     <circle stroke="black" stroke-width="0.5" fill="#aaffff" cx="221.0" cy="954.0" r="1.0"/>
     <text stroke="none" x="221.0" y="954.0" font-size="20.0" font-family="helvetica">100</text>
    </g>
    <g>
     <circle stroke="black" stroke-width="0.5" fill="#aaffff" cx="223.0" cy="247.0" r="1.0"/>
     <text stroke="none" x="223.0" y="247.0" font-size="10.0" font-family="helvetica">NT1.7</text>
    </g>
    <g>
     <circle stroke="black" stroke-width="0.5" fill="#aaffff" cx="228.0" cy="769.0" r="1.0"/>
     <text stroke="none" x="228.0" y="769.0" font-size="20.0" font-family="helvetica">96</text>
    </g>
    <g>
     <circle stroke="black" stroke-width="0.5" fill="#aaffff" cx="236.0" cy="416.0" r="1.0"/>
     <text stroke="none" x="236.0" y="416.0" font-size="20.0" font-family="helvetica">93</text>
    </g>
    <g>
     <circle stroke="black" stroke-width="0.5" fill="#aaffff" cx="237.0" cy="682.0" r="1.0"/>
     <text stroke="none" x="237.0" y="682.0" font-size="20.0" font-family="helvetica">65</text>
    </g>
    <g>
     <circle stroke="black" stroke-width="0.5" fill="#aaffff" cx="255.0" cy="578.0" r="1.0"/>
     <text stroke="none" x="255.0" y="578.0" font-size="10.0" font-family="helvetica">NT1.11</text>
    </g>
    <g>
     <circle stroke="black" stroke-width="0.5" fill="#aaffff" cx="269.0" cy="710.0" r="1.0"/>
     <text stroke="none" x="269.0" y="710.0" font-size="10.0" font-family="helvetica">NT1.12</text>
    </g>
    <g>
     <circle stroke="black" stroke-width="0.5" fill="#aaffff" cx="270.0" cy="197.0" r="1.0"/>
     <text stroke="none" x="270.0" y="197.0" font-size="10.0" font-family="helvetica">NT1.13</text>
    </g>
    <g>
     <circle stroke="black" stroke-width="0.5" fill="#aaffff" cx="296.0" cy="602.0" r="1.0"/>
     <text stroke="none" x="296.0" y="602.0" font-size="10.0" font-family="helvetica">NT1.14</text>
    </g>
    <g>
     <circle stroke="black" stroke-width="0.5" fill="#aaffff" cx="296.0" cy="858.0" r="1.0"/>
     <text stroke="none" x="296.0" y="858.0" font-size="20.0" font-family="helvetica">100</text>
    </g>
    <g>
     <circle stroke="black" stroke-width="0.5" fill="#aaffff" cx="297.0" cy="554.0" r="1.0"/>
     <text stroke="none" x="297.0" y="554.0" font-size="10.0" font-family="helvetica">NT1.16</text>
    </g>
    <g>
     <circle stroke="black" stroke-width="0.5" fill="#aaffff" cx="307.0" cy="738.0" r="1.0"/>
     <text stroke="none" x="307.0" y="738.0" font-size="10.0" font-family="helvetica">NT1.17</text>
    </g>
    <g>
     <circle stroke="black" stroke-width="0.5" fill="#aaffff" cx="308.0" cy="249.0" r="1.0"/>
     <text stroke="none" x="308.0" y="249.0" font-size="10.0" font-family="helvetica">NT1.18</text>
    </g>
    <g>
     <circle stroke="black" stroke-width="0.5" fill="#aaffff" cx="316.0" cy="379.0" r="1.0"/>
     <text stroke="none" x="316.0" y="379.0" font-size="10.0" font-family="helvetica">NT1.19</text>
    </g>
    <g>
     <circle stroke="black" stroke-width="0.5" fill="#aaffff" cx="318.0" cy="762.0" r="1.0"/>
     <text stroke="none" x="318.0" y="762.0" font-size="20.0" font-family="helvetica">79</text>
    </g>
    <g>
     <circle stroke="black" stroke-width="0.5" fill="#aaffff" cx="321.0" cy="160.0" r="1.0"/>
     <text stroke="none" x="321.0" y="160.0" font-size="20.0" font-family="helvetica">50</text>
    </g>
    <g>
     <circle stroke="black" stroke-width="0.5" fill="#aaffff" cx="336.0" cy="587.0" r="1.0"/>
     <text stroke="none" x="336.0" y="587.0" font-size="10.0" font-family="helvetica">NT1.22</text>
    </g>
    <g>
     <circle stroke="black" stroke-width="0.5" fill="#aaffff" cx="337.0" cy="826.0" r="1.0"/>
     <text stroke="none" x="337.0" y="826.0" font-size="10.0" font-family="helvetica">NT1.23</text>
    </g>
    <g>
     <circle stroke="black" stroke-width="0.5" fill="#aaffff" cx="339.0" cy="810.0" r="1.0"/>
     <text stroke="none" x="339.0" y="810.0" font-size="10.0" font-family="helvetica">NT1.24</text>
    </g>
    <g>
     <circle stroke="black" stroke-width="0.5" fill="#aaffff" cx="340.0" cy="650.0" r="1.0"/>
     <text stroke="none" x="340.0" y="650.0" font-size="20.0" font-family="helvetica">Thiocystis violacea DSM 2077 (Y11315)</text>
    </g>
    <g>
     <circle stroke="black" stroke-width="0.5" fill="#aaffff" cx="343.0" cy="454.0" r="1.0"/>
     <text stroke="none" x="343.0" y="454.0" font-size="10.0" font-family="helvetica">NT1.26</text>
    </g>
    <g>
     <circle stroke="black" stroke-width="0.5" fill="#aaffff" cx="344.0" cy="98.0" r="1.0"/>
     <text stroke="none" x="344.0" y="98.0" font-size="10.0" font-family="helvetica">NT1.27</text>
    </g>
    <g>
     <circle stroke="black" stroke-width="0.5" fill="#aaffff" cx="350.0" cy="362.0" r="1.0"/>
     <text stroke="none" x="350.0" y="362.0" font-size="10.0" font-family="helvetica">NT1.28</text>
    </g>
    <g>
     <circle stroke="black" stroke-width="0.5" fill="#aaffff" cx="351.0" cy="619.0" r="1.0"/>
     <text stroke="none" x="351.0" y="619.0" font-size="20.0" font-family="helvetica">Thiorhodococcus mannitoliphagus WS7 (AJ971090)</text>
    </g>
    <g>
     <circle stroke="black" stroke-width="0.5" fill="#aaffff" cx="357.0" cy="747.0" r="1.0"/>
     <text stroke="none" x="357.0" y="747.0" font-size="10.0" font-family="helvetica">NT1.30</text>
    </g>
    <g>
     <circle stroke="black" stroke-width="0.5" fill="#aaffff" cx="357.0" cy="890.0" r="1.0"/>
     <text stroke="none" x="357.0" y="890.0" font-size="10.0" font-family="helvetica">NT1.31</text>
    </g>
    <g>
     <circle stroke="black" stroke-width="0.5" fill="#aaffff" cx="358.0" cy="59.0" r="1.0"/>
     <text stroke="none" x="358.0" y="59.0" font-size="10.0" font-family="helvetica">NT1.32</text>
    </g>
    <g>
     <circle stroke="black" stroke-width="0.5" fill="#aaffff" cx="363.0" cy="482.0" r="1.0"/>
     <text stroke="none" x="363.0" y="482.0" font-size="10.0" font-family="helvetica">NT1.33</text>
    </g>
    <g>
     <circle stroke="black" stroke-width="0.5" fill="#aaffff" cx="370.0" cy="506.0" r="1.0"/>
     <text stroke="none" x="370.0" y="506.0" font-size="10.0" font-family="helvetica">NT1.34</text>
    </g>
    <g>
     <circle stroke="black" stroke-width="0.5" fill="#aaffff" cx="379.0" cy="234.0" r="1.0"/>
     <text stroke="none" x="379.0" y="234.0" font-size="10.0" font-family="helvetica">NT1.35</text>
    </g>
    <g>
     <circle stroke="black" stroke-width="0.5" fill="#aaffff" cx="379.0" cy="682.0" r="1.0"/>
     <text stroke="none" x="379.0" y="682.0" font-size="20.0" font-family="helvetica">Chromatium okenii DSM 1697 (AJ223234)</text>
    </g>
    <g>
     <circle stroke="black" stroke-width="0.5" fill="#aaffff" cx="381.0" cy="266.0" r="1.0"/>
     <text stroke="none" x="381.0" y="266.0" font-size="20.0" font-family="helvetica">Rhabdochromatium marinum DSM 52617 (X84316)</text>
    </g>
    <g>
     <circle stroke="black" stroke-width="0.5" fill="#aaffff" cx="385.0" cy="938.0" r="1.0"/>
     <text stroke="none" x="385.0" y="938.0" font-size="20.0" font-family="helvetica">Ectothiorhodospira shaposhnikovii DSM 2437 (M59151)</text>
    </g>
    <g>
     <circle stroke="black" stroke-width="0.5" fill="#aaffff" cx="388.0" cy="843.0" r="1.0"/>
     <text stroke="none" x="388.0" y="843.0" font-size="20.0" font-family="helvetica">Allochromatium minutissimum DSM 13767 (Y12369)</text>
    </g>
    <g>
     <circle stroke="black" stroke-width="0.5" fill="#aaffff" cx="389.0" cy="778.0" r="1.0"/>
     <text stroke="none" x="389.0" y="778.0" font-size="20.0" font-family="helvetica">Thiocystis violascens DSM 1987 (AJ224438)</text>
    </g>
    <g>
     <circle stroke="black" stroke-width="0.5" fill="#aaffff" cx="389.0" cy="186.0" r="1.0"/>
     <text stroke="none" x="389.0" y="186.0" font-size="10.0" font-family="helvetica">NT1.41</text>
    </g>
    <g>
     <circle stroke="black" stroke-width="0.5" fill="#aaffff" cx="402.0" cy="714.0" r="1.0"/>
     <text stroke="none" x="402.0" y="714.0" font-size="20.0" font-family="helvetica">Thiocystis minor DSM 1787 (Y12372)</text>
    </g>
    <g>
     <circle stroke="black" stroke-width="0.5" fill="#aaffff" cx="414.0" cy="89.0" r="1.0"/>
     <text stroke="none" x="414.0" y="89.0" font-size="10.0" font-family="helvetica">NT1.43</text>
    </g>
    <g>
     <circle stroke="black" stroke-width="0.5" fill="#aaffff" cx="421.0" cy="26.0" r="1.0"/>
     <text stroke="none" x="421.0" y="26.0" font-size="10.0" font-family="helvetica">NT1.44</text>
    </g>
    <g>
     <circle stroke="black" stroke-width="0.5" fill="#aaffff" cx="423.0" cy="1002.0" r="1.0"/>
     <text stroke="none" x="423.0" y="1002.0" font-size="10.0" font-family="helvetica">NT1.45</text>
    </g>
    <g>
     <circle stroke="black" stroke-width="0.5" fill="#aaffff" cx="448.0" cy="491.0" r="1.0"/>
     <text stroke="none" x="448.0" y="491.0" font-size="10.0" font-family="helvetica">NT1.46</text>
    </g>
    <g>
     <circle stroke="black" stroke-width="0.5" fill="#aaffff" cx="459.0" cy="331.0" r="1.0"/>
     <text stroke="none" x="459.0" y="331.0" font-size="20.0" font-family="helvetica">Isochromatium buderi DSM 1767 (AJ224430)</text>
    </g>
    <g>
     <circle stroke="black" stroke-width="0.5" fill="#aaffff" cx="462.0" cy="298.0" r="1.0"/>
     <text stroke="none" x="462.0" y="298.0" font-size="20.0" font-family="helvetica"> Thioalkalicoccus limnaeus A267 (AJ277023)</text>
    </g>
    <g>
     <circle stroke="black" stroke-width="0.5" fill="#aaffff" cx="464.0" cy="426.0" r="1.0"/>
     <text stroke="none" x="464.0" y="426.0" font-size="10.0" font-family="helvetica">NT1.49</text>
    </g>
    <g>
     <circle stroke="black" stroke-width="0.5" fill="#aaffff" cx="466.0" cy="394.0" r="1.0"/>
     <text stroke="none" x="466.0" y="394.0" font-size="20.0" font-family="helvetica">Amoebobacter purpureus DSM 41977 (Y12366)</text>
    </g>
    <g>
     <circle stroke="black" stroke-width="0.5" fill="#aaffff" cx="469.0" cy="138.0" r="1.0"/>
     <text stroke="none" x="469.0" y="138.0" font-size="20.0" font-family="helvetica">Thiohalocapsa halophila SG 32027 (AJ002796)</text>
    </g>
    <g>
     <circle stroke="black" stroke-width="0.5" fill="#aaffff" cx="471.0" cy="458.0" r="1.0"/>
     <text stroke="none" x="471.0" y="458.0" font-size="20.0" font-family="helvetica">Thiocapsa pendens DSM 2367 (AJ002797)</text>
    </g>
    <g>
     <circle stroke="black" stroke-width="0.5" fill="#aaffff" cx="493.0" cy="107.0" r="1.0"/>
     <text stroke="none" x="493.0" y="107.0" font-size="10.0" font-family="helvetica">NT1.53</text>
    </g>
    <g>
     <circle stroke="black" stroke-width="0.5" fill="#aaffff" cx="495.0" cy="971.0" r="1.0"/>
     <text stroke="none" x="495.0" y="971.0" font-size="20.0" font-family="helvetica">Halorhodospira halophila SL1 (M26630)</text>
    </g>
    <g>
     <circle stroke="black" stroke-width="0.5" fill="#aaffff" cx="500.0" cy="74.0" r="1.0"/>
     <text stroke="none" x="500.0" y="74.0" font-size="10.0" font-family="helvetica">NT1.55</text>
    </g>
    <g>
     <circle stroke="black" stroke-width="0.5" fill="#aaffff" cx="505.0" cy="522.0" r="1.0"/>
     <text stroke="none" x="505.0" y="522.0" font-size="20.0" font-family="helvetica">Thiocapsa rosea DSM 2357 (AJ002798)</text>
    </g>
    <g>
     <circle stroke="black" stroke-width="0.5" fill="#aaffff" cx="512.0" cy="875.0" r="1.0"/>
     <text stroke="none" x="512.0" y="875.0" font-size="10.0" font-family="helvetica">NT1.57</text>
    </g>
    <g>
     <circle stroke="black" stroke-width="0.5" fill="#aaffff" cx="537.0" cy="906.0" r="1.0"/>
     <text stroke="none" x="537.0" y="906.0" font-size="20.0" font-family="helvetica"> Thermochromatium tepidum ATCC 430617 (M59150)</text>
    </g>
    <g>
     <circle stroke="black" stroke-width="0.5" fill="#aaffff" cx="540.0" cy="170.0" r="1.0"/>
     <text stroke="none" x="540.0" y="170.0" font-size="20.0" font-family="helvetica">Thiocoocus pfennigii 4250 (Y12373)</text>
    </g>
    <g>
     <circle stroke="black" stroke-width="0.5" fill="#aaffff" cx="546.0" cy="11.0" r="1.0"/>
     <text stroke="none" x="546.0" y="11.0" font-size="10.0" font-family="helvetica">NT1.60</text>
    </g>
    <g>
     <circle stroke="black" stroke-width="0.5" fill="#aaffff" cx="547.0" cy="202.0" r="1.0"/>
     <text stroke="none" x="547.0" y="202.0" font-size="20.0" font-family="helvetica">Thioflavicoccus mobilis 83217 (AJ010126)</text>
    </g>
    <g>
     <circle stroke="black" stroke-width="0.5" fill="#aaffff" cx="609.0" cy="42.0" r="1.0"/>
     <text stroke="none" x="609.0" y="42.0" font-size="20.0" font-family="helvetica">Marichromatium purpuratum DSM 15917 (AJ224439)</text>
    </g>
    <g>
     <circle stroke="black" stroke-width="0.5" fill="#aaffff" cx="2.0" cy="868.0" r="1.0"/>
     <text stroke="none" x="2.0" y="868.0" font-size="10.0" font-family="helvetica">NT1.63</text>
    </g>
    <line stroke="black" x1="609.0" y1="42.0" x2="421.0" y2="26.0" stroke-width="0.5"/>
    <line stroke="black" x1="469.0" y1="138.0" x2="344.0" y2="98.0" stroke-width="0.5"/>
    <line stroke="black" x1="540.0" y1="170.0" x2="389.0" y2="186.0" stroke-width="0.5"/>
    <line stroke="black" x1="381.0" y1="266.0" x2="308.0" y2="249.0" stroke-width="0.5"/>
    <line stroke="black" x1="547.0" y1="202.0" x2="389.0" y2="186.0" stroke-width="0.5"/>
    <line stroke="black" x1="462.0" y1="298.0" x2="223.0" y2="247.0" stroke-width="0.5"/>
    <line stroke="black" x1="459.0" y1="331.0" x2="208.0" y2="268.0" stroke-width="0.5"/>
    <line stroke="black" x1="466.0" y1="394.0" x2="316.0" y2="379.0" stroke-width="0.5"/>
    <line stroke="black" x1="471.0" y1="458.0" x2="363.0" y2="482.0" stroke-width="0.5"/>
    <line stroke="black" x1="505.0" y1="522.0" x2="370.0" y2="506.0" stroke-width="0.5"/>
    <line stroke="black" x1="351.0" y1="619.0" x2="296.0" y2="602.0" stroke-width="0.5"/>
    <line stroke="black" x1="340.0" y1="650.0" x2="237.0" y2="682.0" stroke-width="0.5"/>
    <line stroke="black" x1="379.0" y1="682.0" x2="269.0" y2="710.0" stroke-width="0.5"/>
    <line stroke="black" x1="388.0" y1="843.0" x2="337.0" y2="826.0" stroke-width="0.5"/>
    <line stroke="black" x1="389.0" y1="778.0" x2="318.0" y2="762.0" stroke-width="0.5"/>
    <line stroke="black" x1="402.0" y1="714.0" x2="307.0" y2="738.0" stroke-width="0.5"/>
    <line stroke="black" x1="537.0" y1="906.0" x2="357.0" y2="890.0" stroke-width="0.5"/>
    <line stroke="black" x1="385.0" y1="938.0" x2="221.0" y2="954.0" stroke-width="0.5"/>
    <line stroke="black" x1="495.0" y1="971.0" x2="221.0" y2="954.0" stroke-width="0.5"/>
    <line stroke="black" x1="344.0" y1="98.0" x2="321.0" y2="160.0" stroke-width="0.5"/>
    <line stroke="black" x1="321.0" y1="160.0" x2="270.0" y2="197.0" stroke-width="0.5"/>
    <line stroke="black" x1="321.0" y1="160.0" x2="389.0" y2="186.0" stroke-width="0.5"/>
    <line stroke="black" x1="270.0" y1="197.0" x2="223.0" y2="247.0" stroke-width="0.5"/>
    <line stroke="black" x1="223.0" y1="247.0" x2="208.0" y2="268.0" stroke-width="0.5"/>
    <line stroke="black" x1="208.0" y1="268.0" x2="178.0" y2="353.0" stroke-width="0.5"/>
    <line stroke="black" x1="178.0" y1="353.0" x2="236.0" y2="416.0" stroke-width="0.5"/>
    <line stroke="black" x1="167.0" y1="514.0" x2="112.0" y2="735.0" stroke-width="0.5"/>
    <line stroke="black" x1="167.0" y1="514.0" x2="197.0" y2="674.0" stroke-width="0.5"/>
    <line stroke="black" x1="343.0" y1="454.0" x2="363.0" y2="482.0" stroke-width="0.5"/>
    <line stroke="black" x1="197.0" y1="674.0" x2="228.0" y2="769.0" stroke-width="0.5"/>
    <line stroke="black" x1="112.0" y1="735.0" x2="221.0" y2="954.0" stroke-width="0.5"/>
    <line stroke="black" x1="228.0" y1="769.0" x2="296.0" y2="858.0" stroke-width="0.5"/>
    <line stroke="black" x1="228.0" y1="769.0" x2="237.0" y2="682.0" stroke-width="0.5"/>
    <line stroke="black" x1="237.0" y1="682.0" x2="269.0" y2="710.0" stroke-width="0.5"/>
    <line stroke="black" x1="269.0" y1="710.0" x2="307.0" y2="738.0" stroke-width="0.5"/>
    <line stroke="black" x1="2.0" y1="868.0" x2="112.0" y2="735.0" stroke-width="0.5"/>
    <line stroke="black" x1="178.0" y1="353.0" x2="167.0" y2="514.0" stroke-width="0.5"/>
   </g>
  </g>
 </svg>
</svg>
