<?xml version="1.0" encoding="UTF-8"?>
<svg height="800.0" width="700.0" xmlns="http://www.w3.org/2000/svg">
 <svg>
  <g>
   <g>
    <g>
     <circle stroke="black" stroke-width="0.5" fill="#aaffff" cx="11.0" cy="427.0" r="1.0"/>
     <text stroke="none" x="11.0" y="427.0" font-size="10.0" font-family="helvetica">NT1.1</text>
    </g>
    <g>
     <circle stroke="black" stroke-width="0.5" fill="#aaffff" cx="21.0" cy="863.0" r="1.0"/>
     <text stroke="none" x="21.0" y="863.0" font-size="20.0" font-family="helvetica">64</text>
    </g>
    <g>
     <circle stroke="black" stroke-width="0.5" fill="#aaffff" cx="27.0" cy="228.0" r="1.0"/>
     <text stroke="none" x="27.0" y="228.0" font-size="10.0" font-family="helvetica">NT1.3</text>
    </g>
    <g>
     <circle stroke="black" stroke-width="0.5" fill="#aaffff" cx="39.0" cy="134.0" r="1.0"/>
     <text stroke="none" x="39.0" y="134.0" font-size="10.0" font-family="helvetica">NT1.4</text>
    </g>
    <g>
     <circle stroke="black" stroke-width="0.5" fill="#aaffff" cx="44.0" cy="321.0" r="1.0"/>
     <text stroke="none" x="44.0" y="321.0" font-size="10.0" font-family="helvetica">NT1.5</text>
    </g>
    <g>
     <circle stroke="black" stroke-width="0.5" fill="#aaffff" cx="58.0" cy="627.0" r="1.0"/>
     <text stroke="none" x="58.0" y="627.0" font-size="10.0" font-family="helvetica">NT1.6</text>
    </g>
    <g>
     <circle stroke="black" stroke-width="0.5" fill="#aaffff" cx="69.0" cy="500.0" r="1.0"/>
     <text stroke="none" x="69.0" y="500.0" font-size="10.0" font-family="helvetica">NT1.7</text>
    </g>
    <g>
     <circle stroke="black" stroke-width="0.5" fill="#aaffff" cx="75.0" cy="458.0" r="1.0"/>
     <text stroke="none" x="75.0" y="458.0" font-size="10.0" font-family="helvetica">NT1.8</text>
    </g>
    <g>
     <circle stroke="black" stroke-width="0.5" fill="#aaffff" cx="77.0" cy="728.0" r="1.0"/>
     <text stroke="none" x="77.0" y="728.0" font-size="10.0" font-family="helvetica">NT1.9</text>
    </g>
    <g>
     <circle stroke="black" stroke-width="0.5" fill="#aaffff" cx="109.0" cy="934.0" r="1.0"/>
     <text stroke="none" x="109.0" y="934.0" font-size="10.0" font-family="helvetica">NT1.10</text>
    </g>
    <g>
     <circle stroke="black" stroke-width="0.5" fill="#aaffff" cx="110.0" cy="967.0" r="1.0"/>
     <text stroke="none" x="110.0" y="967.0" font-size="20.0" font-family="helvetica">Marinicola seohaensis SW-152T (AY739663)</text>
    </g>
    <g>
     <circle stroke="black" stroke-width="0.5" fill="#aaffff" cx="111.0" cy="900.0" r="1.0"/>
     <text stroke="none" x="111.0" y="900.0" font-size="20.0" font-family="helvetica">Roseivirga ehrenbergii KMM 60177 (AY608410)</text>
    </g>
    <g>
     <circle stroke="black" stroke-width="0.5" fill="#aaffff" cx="117.0" cy="184.0" r="1.0"/>
     <text stroke="none" x="117.0" y="184.0" font-size="10.0" font-family="helvetica">NT1.13</text>
    </g>
    <g>
     <circle stroke="black" stroke-width="0.5" fill="#aaffff" cx="118.0" cy="832.0" r="1.0"/>
     <text stroke="none" x="118.0" y="832.0" font-size="20.0" font-family="helvetica">Reichenbachia agariperforans KMM 35257 (AB058919)</text>
    </g>
    <g>
     <circle stroke="black" stroke-width="0.5" fill="#aaffff" cx="130.0" cy="423.0" r="1.0"/>
     <text stroke="none" x="130.0" y="423.0" font-size="20.0" font-family="helvetica">Belliella baltica BA134T (AJ564643)</text>
    </g>
    <g>
     <circle stroke="black" stroke-width="0.5" fill="#aaffff" cx="131.0" cy="695.0" r="1.0"/>
     <text stroke="none" x="131.0" y="695.0" font-size="20.0" font-family="helvetica">Hongiella mannitolivorans IMSNU 14012T (AY264838)</text>
    </g>
    <g>
     <circle stroke="black" stroke-width="0.5" fill="#aaffff" cx="132.0" cy="593.0" r="1.0"/>
     <text stroke="none" x="132.0" y="593.0" font-size="10.0" font-family="helvetica">NT1.17</text>
    </g>
    <g>
     <circle stroke="black" stroke-width="0.5" fill="#aaffff" cx="145.0" cy="763.0" r="1.0"/>
     <text stroke="none" x="145.0" y="763.0" font-size="20.0" font-family="helvetica">Algoriphagus ratkowskyi LMG 21435T (AJ608641)</text>
    </g>
    <g>
     <circle stroke="black" stroke-width="0.5" fill="#aaffff" cx="149.0" cy="491.0" r="1.0"/>
     <text stroke="none" x="149.0" y="491.0" font-size="20.0" font-family="helvetica">Aquiflexum balticum BA160T (AJ744861)</text>
    </g>
    <g>
     <circle stroke="black" stroke-width="0.5" fill="#aaffff" cx="156.0" cy="559.0" r="1.0"/>
     <text stroke="none" x="156.0" y="559.0" font-size="20.0" font-family="helvetica">Cyclobacterium marinum DSM 745T (AY533665)</text>
    </g>
    <g>
     <circle stroke="black" stroke-width="0.5" fill="#aaffff" cx="161.0" cy="356.0" r="1.0"/>
     <text stroke="none" x="161.0" y="356.0" font-size="20.0" font-family="helvetica">Sporocytophaga myxococcoides DSM 111187 (AJ310654)</text>
    </g>
    <g>
     <circle stroke="black" stroke-width="0.5" fill="#aaffff" cx="166.0" cy="286.0" r="1.0"/>
     <text stroke="none" x="166.0" y="286.0" font-size="20.0" font-family="helvetica">Cytophaga hutchinsonii ATCC 3340GT (M58768)</text>
    </g>
    <g>
     <circle stroke="black" stroke-width="0.5" fill="#aaffff" cx="168.0" cy="627.0" r="1.0"/>
     <text stroke="none" x="168.0" y="627.0" font-size="20.0" font-family="helvetica">KMM 6143T (AY960985)</text>
    </g>
    <g>
     <circle stroke="black" stroke-width="0.5" fill="#aaffff" cx="172.0" cy="219.0" r="1.0"/>
     <text stroke="none" x="172.0" y="219.0" font-size="20.0" font-family="helvetica">Arcicella aquatica NO-5027 (AJ535729)</text>
    </g>
    <g>
     <circle stroke="black" stroke-width="0.5" fill="#aaffff" cx="186.0" cy="82.0" r="1.0"/>
     <text stroke="none" x="186.0" y="82.0" font-size="20.0" font-family="helvetica">Flexibacter flexilis ATCC 230797 (M62794)</text>
    </g>
    <g>
     <circle stroke="black" stroke-width="0.5" fill="#aaffff" cx="186.0" cy="150.0" r="1.0"/>
     <text stroke="none" x="186.0" y="150.0" font-size="20.0" font-family="helvetica">Flectobacillus major ATCC 294967 (M62787)</text>
    </g>
    <g>
     <circle stroke="black" stroke-width="0.5" fill="#aaffff" cx="247.0" cy="15.0" r="1.0"/>
     <text stroke="none" x="247.0" y="15.0" font-size="20.0" font-family="helvetica">Kordia algicida OT-1T (AY195836)</text>
    </g>
    <line stroke="black" x1="131.0" y1="695.0" x2="77.0" y2="728.0" stroke-width="0.5"/>
    <line stroke="black" x1="161.0" y1="356.0" x2="44.0" y2="321.0" stroke-width="0.5"/>
    <line stroke="black" x1="186.0" y1="82.0" x2="39.0" y2="134.0" stroke-width="0.5"/>
    <line stroke="black" x1="156.0" y1="559.0" x2="132.0" y2="593.0" stroke-width="0.5"/>
    <line stroke="black" x1="186.0" y1="150.0" x2="117.0" y2="184.0" stroke-width="0.5"/>
    <line stroke="black" x1="168.0" y1="627.0" x2="132.0" y2="593.0" stroke-width="0.5"/>
    <line stroke="black" x1="118.0" y1="832.0" x2="21.0" y2="863.0" stroke-width="0.5"/>
    <line stroke="black" x1="11.0" y1="427.0" x2="27.0" y2="228.0" stroke-width="0.5"/>
    <line stroke="black" x1="11.0" y1="427.0" x2="58.0" y2="627.0" stroke-width="0.5"/>
    <line stroke="black" x1="27.0" y1="228.0" x2="39.0" y2="134.0" stroke-width="0.5"/>
    <line stroke="black" x1="58.0" y1="627.0" x2="77.0" y2="728.0" stroke-width="0.5"/>
    <line stroke="black" x1="58.0" y1="627.0" x2="69.0" y2="500.0" stroke-width="0.5"/>
    <line stroke="black" x1="39.0" y1="134.0" x2="117.0" y2="184.0" stroke-width="0.5"/>
    <line stroke="black" x1="69.0" y1="500.0" x2="132.0" y2="593.0" stroke-width="0.5"/>
    <line stroke="black" x1="69.0" y1="500.0" x2="75.0" y2="458.0" stroke-width="0.5"/>
    <line stroke="black" x1="21.0" y1="863.0" x2="109.0" y2="934.0" stroke-width="0.5"/>
    <line stroke="black" x1="109.0" y1="934.0" x2="110.0" y2="967.0" stroke-width="0.5"/>
    <line stroke="black" x1="109.0" y1="934.0" x2="111.0" y2="900.0" stroke-width="0.5"/>
    <line stroke="black" x1="11.0" y1="427.0" x2="21.0" y2="863.0" stroke-width="0.5"/>
    <line stroke="black" x1="247.0" y1="15.0" x2="11.0" y2="427.0" stroke-width="0.5"/>
    <line stroke="black" x1="27.0" y1="228.0" x2="44.0" y2="321.0" stroke-width="0.5"/>
    <line stroke="black" x1="166.0" y1="286.0" x2="44.0" y2="321.0" stroke-width="0.5"/>
    <line stroke="black" x1="149.0" y1="491.0" x2="75.0" y2="458.0" stroke-width="0.5"/>
    <line stroke="black" x1="145.0" y1="763.0" x2="77.0" y2="728.0" stroke-width="0.5"/>
    <line stroke="black" x1="172.0" y1="219.0" x2="117.0" y2="184.0" stroke-width="0.5"/>
    <line stroke="black" x1="130.0" y1="423.0" x2="75.0" y2="458.0" stroke-width="0.5"/>
   </g>
  </g>
 </svg>
</svg>
