<?xml version="1.0" encoding="UTF-8"?>
<svg height="800.0" width="700.0" xmlns="http://www.w3.org/2000/svg">
 <svg>
  <g>
   <g>
    <g>
     <circle stroke="black" stroke-width="0.5" fill="#aaffff" cx="87.0" cy="138.0" r="1.0"/>
     <text stroke="none" x="87.0" y="138.0" font-size="10.0" font-family="helvetica">NT1.1</text>
    </g>
    <g>
     <circle stroke="black" stroke-width="0.5" fill="#aaffff" cx="332.0" cy="196.0" r="1.0"/>
     <text stroke="none" x="332.0" y="196.0" font-size="10.0" font-family="helvetica">NT1.2</text>
    </g>
    <g>
     <circle stroke="black" stroke-width="0.5" fill="#aaffff" cx="337.0" cy="253.0" r="1.0"/>
     <text stroke="none" x="337.0" y="253.0" font-size="10.0" font-family="helvetica">NT1.3</text>
    </g>
    <g>
     <circle stroke="black" stroke-width="0.5" fill="#aaffff" cx="337.0" cy="140.0" r="1.0"/>
     <text stroke="none" x="337.0" y="140.0" font-size="10.0" font-family="helvetica">NT1.4</text>
    </g>
    <g>
     <circle stroke="black" stroke-width="0.5" fill="#aaffff" cx="338.0" cy="159.0" r="1.0"/>
     <text stroke="none" x="338.0" y="159.0" font-size="20.0" font-family="helvetica">Bacillus simplex DSM 1321T (AJ439078)</text>
    </g>
    <g>
     <circle stroke="black" stroke-width="0.5" fill="#aaffff" cx="338.0" cy="117.0" r="1.0"/>
     <text stroke="none" x="338.0" y="117.0" font-size="20.0" font-family="helvetica">Bacillus simplex LMG 111607 (AJ628743)</text>
    </g>
    <g>
     <circle stroke="black" stroke-width="0.5" fill="#aaffff" cx="338.0" cy="198.0" r="1.0"/>
     <text stroke="none" x="338.0" y="198.0" font-size="20.0" font-family="helvetica">Bacillus sp. LMG 19489 (AJ628744)</text>
    </g>
    <g>
     <circle stroke="black" stroke-width="0.5" fill="#aaffff" cx="342.0" cy="308.0" r="1.0"/>
     <text stroke="none" x="342.0" y="308.0" font-size="10.0" font-family="helvetica">NT1.8</text>
    </g>
    <g>
     <circle stroke="black" stroke-width="0.5" fill="#aaffff" cx="350.0" cy="239.0" r="1.0"/>
     <text stroke="none" x="350.0" y="239.0" font-size="20.0" font-family="helvetica">Bacillus simplex DSM 1321T (X60638)</text>
    </g>
    <g>
     <circle stroke="black" stroke-width="0.5" fill="#aaffff" cx="352.0" cy="377.0" r="1.0"/>
     <text stroke="none" x="352.0" y="377.0" font-size="10.0" font-family="helvetica">NT1.10</text>
    </g>
    <g>
     <circle stroke="black" stroke-width="0.5" fill="#aaffff" cx="356.0" cy="477.0" r="1.0"/>
     <text stroke="none" x="356.0" y="477.0" font-size="10.0" font-family="helvetica">NT1.11</text>
    </g>
    <g>
     <circle stroke="black" stroke-width="0.5" fill="#aaffff" cx="359.0" cy="722.0" r="1.0"/>
     <text stroke="none" x="359.0" y="722.0" font-size="20.0" font-family="helvetica">Bacillus sp. LMG 21002 (AJ628745)</text>
    </g>
    <g>
     <circle stroke="black" stroke-width="0.5" fill="#aaffff" cx="362.0" cy="547.0" r="1.0"/>
     <text stroke="none" x="362.0" y="547.0" font-size="10.0" font-family="helvetica">NT1.13</text>
    </g>
    <g>
     <circle stroke="black" stroke-width="0.5" fill="#aaffff" cx="363.0" cy="341.0" r="1.0"/>
     <text stroke="none" x="363.0" y="341.0" font-size="10.0" font-family="helvetica">NT1.14</text>
    </g>
    <g>
     <circle stroke="black" stroke-width="0.5" fill="#aaffff" cx="364.0" cy="359.0" r="1.0"/>
     <text stroke="none" x="364.0" y="359.0" font-size="20.0" font-family="helvetica">Bacillus macroides' dhr2 (AF157696)</text>
    </g>
    <g>
     <circle stroke="black" stroke-width="0.5" fill="#aaffff" cx="366.0" cy="681.0" r="1.0"/>
     <text stroke="none" x="366.0" y="681.0" font-size="20.0" font-family="helvetica">Bacillus maroccanusi NCIMB 10500 (X60626)</text>
    </g>
    <g>
     <circle stroke="black" stroke-width="0.5" fill="#aaffff" cx="366.0" cy="431.0" r="1.0"/>
     <text stroke="none" x="366.0" y="431.0" font-size="10.0" font-family="helvetica">NT1.17</text>
    </g>
    <g>
     <circle stroke="black" stroke-width="0.5" fill="#aaffff" cx="369.0" cy="612.0" r="1.0"/>
     <text stroke="none" x="369.0" y="612.0" font-size="10.0" font-family="helvetica">NT1.18</text>
    </g>
    <g>
     <circle stroke="black" stroke-width="0.5" fill="#aaffff" cx="371.0" cy="481.0" r="1.0"/>
     <text stroke="none" x="371.0" y="481.0" font-size="20.0" font-family="helvetica">Glacial ice bacterium SB150-2A2 (AF479374)</text>
    </g>
    <g>
     <circle stroke="black" stroke-width="0.5" fill="#aaffff" cx="371.0" cy="641.0" r="1.0"/>
     <text stroke="none" x="371.0" y="641.0" font-size="20.0" font-family="helvetica">Bacillus carolaruml LMG 17636 (AJ628747)</text>
    </g>
    <g>
     <circle stroke="black" stroke-width="0.5" fill="#aaffff" cx="371.0" cy="460.0" r="1.0"/>
     <text stroke="none" x="371.0" y="460.0" font-size="10.0" font-family="helvetica">NT1.21</text>
    </g>
    <g>
     <circle stroke="black" stroke-width="0.5" fill="#aaffff" cx="372.0" cy="399.0" r="1.0"/>
     <text stroke="none" x="372.0" y="399.0" font-size="20.0" font-family="helvetica">Bacillus sp. HJ8 (AY237407)</text>
    </g>
    <g>
     <circle stroke="black" stroke-width="0.5" fill="#aaffff" cx="379.0" cy="280.0" r="1.0"/>
     <text stroke="none" x="379.0" y="280.0" font-size="20.0" font-family="helvetica">Bacillus macroides' NCIMB 8796 (X70312)</text>
    </g>
    <g>
     <circle stroke="black" stroke-width="0.5" fill="#aaffff" cx="381.0" cy="561.0" r="1.0"/>
     <text stroke="none" x="381.0" y="561.0" font-size="20.0" font-family="helvetica">Bacillus macroides' JPL-4 (AY030319)</text>
    </g>
    <g>
     <circle stroke="black" stroke-width="0.5" fill="#aaffff" cx="391.0" cy="521.0" r="1.0"/>
     <text stroke="none" x="391.0" y="521.0" font-size="20.0" font-family="helvetica">Uncultured soil bacterium (AF423217)</text>
    </g>
    <g>
     <circle stroke="black" stroke-width="0.5" fill="#aaffff" cx="408.0" cy="320.0" r="1.0"/>
     <text stroke="none" x="408.0" y="320.0" font-size="20.0" font-family="helvetica">Bacillus muralis LMG 202387 (AJ628748)</text>
    </g>
    <g>
     <circle stroke="black" stroke-width="0.5" fill="#aaffff" cx="443.0" cy="80.0" r="1.0"/>
     <text stroke="none" x="443.0" y="80.0" font-size="20.0" font-family="helvetica">Bacillus simplex DSM 1321T (D78478)</text>
    </g>
    <g>
     <circle stroke="black" stroke-width="0.5" fill="#aaffff" cx="498.0" cy="440.0" r="1.0"/>
     <text stroke="none" x="498.0" y="440.0" font-size="20.0" font-family="helvetica">Bacillus sp. HJ16 (AY237408)</text>
    </g>
    <g>
     <circle stroke="black" stroke-width="0.5" fill="#aaffff" cx="545.0" cy="792.0" r="1.0"/>
     <text stroke="none" x="545.0" y="792.0" font-size="20.0" font-family="helvetica">if</text>
    </g>
    <g>
     <circle stroke="black" stroke-width="0.5" fill="#aaffff" cx="593.0" cy="820.0" r="1.0"/>
     <text stroke="none" x="593.0" y="820.0" font-size="10.0" font-family="helvetica">NT1.30</text>
    </g>
    <g>
     <circle stroke="black" stroke-width="0.5" fill="#aaffff" cx="651.0" cy="761.0" r="1.0"/>
     <text stroke="none" x="651.0" y="761.0" font-size="20.0" font-family="helvetica">'Bacillus macroides' LMG 18474 (AJ628749)</text>
    </g>
    <g>
     <circle stroke="black" stroke-width="0.5" fill="#aaffff" cx="651.0" cy="843.0" r="1.0"/>
     <text stroke="none" x="651.0" y="843.0" font-size="20.0" font-family="helvetica">Bacillus sphaericus DSM 287 (AJ310084)</text>
    </g>
    <g>
     <circle stroke="black" stroke-width="0.5" fill="#aaffff" cx="682.0" cy="802.0" r="1.0"/>
     <text stroke="none" x="682.0" y="802.0" font-size="20.0" font-family="helvetica">Bacillus fusiformis DSM 2898T (AJ310083)</text>
    </g>
    <line stroke="black" x1="338.0" y1="159.0" x2="337.0" y2="140.0" stroke-width="0.5"/>
    <line stroke="black" x1="338.0" y1="117.0" x2="337.0" y2="140.0" stroke-width="0.5"/>
    <line stroke="black" x1="338.0" y1="198.0" x2="337.0" y2="253.0" stroke-width="0.5"/>
    <line stroke="black" x1="391.0" y1="521.0" x2="362.0" y2="547.0" stroke-width="0.5"/>
    <line stroke="black" x1="371.0" y1="481.0" x2="371.0" y2="460.0" stroke-width="0.5"/>
    <line stroke="black" x1="364.0" y1="359.0" x2="363.0" y2="341.0" stroke-width="0.5"/>
    <line stroke="black" x1="371.0" y1="641.0" x2="369.0" y2="612.0" stroke-width="0.5"/>
    <line stroke="black" x1="381.0" y1="561.0" x2="369.0" y2="612.0" stroke-width="0.5"/>
    <line stroke="black" x1="408.0" y1="320.0" x2="363.0" y2="341.0" stroke-width="0.5"/>
    <line stroke="black" x1="366.0" y1="681.0" x2="369.0" y2="612.0" stroke-width="0.5"/>
    <line stroke="black" x1="359.0" y1="722.0" x2="362.0" y2="547.0" stroke-width="0.5"/>
    <line stroke="black" x1="651.0" y1="761.0" x2="545.0" y2="792.0" stroke-width="0.5"/>
    <line stroke="black" x1="651.0" y1="843.0" x2="593.0" y2="820.0" stroke-width="0.5"/>
    <line stroke="black" x1="87.0" y1="138.0" x2="332.0" y2="196.0" stroke-width="0.5"/>
    <line stroke="black" x1="332.0" y1="196.0" x2="337.0" y2="253.0" stroke-width="0.5"/>
    <line stroke="black" x1="332.0" y1="196.0" x2="337.0" y2="140.0" stroke-width="0.5"/>
    <line stroke="black" x1="337.0" y1="253.0" x2="342.0" y2="308.0" stroke-width="0.5"/>
    <line stroke="black" x1="342.0" y1="308.0" x2="352.0" y2="377.0" stroke-width="0.5"/>
    <line stroke="black" x1="352.0" y1="377.0" x2="356.0" y2="477.0" stroke-width="0.5"/>
    <line stroke="black" x1="356.0" y1="477.0" x2="362.0" y2="547.0" stroke-width="0.5"/>
    <line stroke="black" x1="356.0" y1="477.0" x2="363.0" y2="341.0" stroke-width="0.5"/>
    <line stroke="black" x1="362.0" y1="547.0" x2="366.0" y2="431.0" stroke-width="0.5"/>
    <line stroke="black" x1="362.0" y1="547.0" x2="369.0" y2="612.0" stroke-width="0.5"/>
    <line stroke="black" x1="366.0" y1="431.0" x2="371.0" y2="460.0" stroke-width="0.5"/>
    <line stroke="black" x1="545.0" y1="792.0" x2="593.0" y2="820.0" stroke-width="0.5"/>
    <line stroke="black" x1="87.0" y1="138.0" x2="545.0" y2="792.0" stroke-width="0.5"/>
    <line stroke="black" x1="443.0" y1="80.0" x2="87.0" y2="138.0" stroke-width="0.5"/>
    <line stroke="black" x1="350.0" y1="239.0" x2="342.0" y2="308.0" stroke-width="0.5"/>
    <line stroke="black" x1="379.0" y1="280.0" x2="352.0" y2="377.0" stroke-width="0.5"/>
    <line stroke="black" x1="372.0" y1="399.0" x2="366.0" y2="431.0" stroke-width="0.5"/>
    <line stroke="black" x1="498.0" y1="440.0" x2="371.0" y2="460.0" stroke-width="0.5"/>
    <line stroke="black" x1="682.0" y1="802.0" x2="593.0" y2="820.0" stroke-width="0.5"/>
   </g>
  </g>
 </svg>
</svg>
