<?xml version="1.0" encoding="UTF-8"?>
<svg height="800.0" width="700.0" xmlns="http://www.w3.org/2000/svg">
 <svg>
  <g>
   <g>
    <g>
     <circle stroke="black" stroke-width="0.5" fill="#aaffff" cx="1.0" cy="166.0" r="1.0"/>
     <text stroke="none" x="1.0" y="166.0" font-size="20.0" font-family="helvetica"/>
    </g>
    <g>
     <circle stroke="black" stroke-width="0.5" fill="#aaffff" cx="36.0" cy="166.0" r="1.0"/>
     <text stroke="none" x="36.0" y="166.0" font-size="10.0" font-family="helvetica">NT1.2</text>
    </g>
    <g>
     <circle stroke="black" stroke-width="0.5" fill="#aaffff" cx="112.0" cy="285.0" r="1.0"/>
     <text stroke="none" x="112.0" y="285.0" font-size="10.0" font-family="helvetica">NT1.3</text>
    </g>
    <g>
     <circle stroke="black" stroke-width="0.5" fill="#aaffff" cx="120.0" cy="286.0" r="1.0"/>
     <text stroke="none" x="120.0" y="286.0" font-size="10.0" font-family="helvetica">NT1.4</text>
    </g>
    <g>
     <circle stroke="black" stroke-width="0.5" fill="#aaffff" cx="166.0" cy="410.0" r="1.0"/>
     <text stroke="none" x="166.0" y="410.0" font-size="20.0" font-family="helvetica">440</text>
    </g>
    <g>
     <circle stroke="black" stroke-width="0.5" fill="#aaffff" cx="176.0" cy="409.0" r="1.0"/>
     <text stroke="none" x="176.0" y="409.0" font-size="10.0" font-family="helvetica">NT1.6</text>
    </g>
    <g>
     <circle stroke="black" stroke-width="0.5" fill="#aaffff" cx="214.0" cy="162.0" r="1.0"/>
     <text stroke="none" x="214.0" y="162.0" font-size="20.0" font-family="helvetica">0</text>
    </g>
    <g>
     <circle stroke="black" stroke-width="0.5" fill="#aaffff" cx="223.0" cy="161.0" r="1.0"/>
     <text stroke="none" x="223.0" y="161.0" font-size="10.0" font-family="helvetica">NT1.8</text>
    </g>
    <g>
     <circle stroke="black" stroke-width="0.5" fill="#aaffff" cx="242.0" cy="568.0" r="1.0"/>
     <text stroke="none" x="242.0" y="568.0" font-size="10.0" font-family="helvetica">NT1.9</text>
    </g>
    <g>
     <circle stroke="black" stroke-width="0.5" fill="#aaffff" cx="250.0" cy="699.0" r="1.0"/>
     <text stroke="none" x="250.0" y="699.0" font-size="10.0" font-family="helvetica">NT1.10</text>
    </g>
    <g>
     <circle stroke="black" stroke-width="0.5" fill="#aaffff" cx="270.0" cy="438.0" r="1.0"/>
     <text stroke="none" x="270.0" y="438.0" font-size="10.0" font-family="helvetica">NT1.11</text>
    </g>
    <g>
     <circle stroke="black" stroke-width="0.5" fill="#aaffff" cx="292.0" cy="356.0" r="1.0"/>
     <text stroke="none" x="292.0" y="356.0" font-size="10.0" font-family="helvetica">NT1.12</text>
    </g>
    <g>
     <circle stroke="black" stroke-width="0.5" fill="#aaffff" cx="319.0" cy="759.0" r="1.0"/>
     <text stroke="none" x="319.0" y="759.0" font-size="20.0" font-family="helvetica">56</text>
    </g>
    <g>
     <circle stroke="black" stroke-width="0.5" fill="#aaffff" cx="372.0" cy="41.0" r="1.0"/>
     <text stroke="none" x="372.0" y="41.0" font-size="10.0" font-family="helvetica">NT1.14</text>
    </g>
    <g>
     <circle stroke="black" stroke-width="0.5" fill="#aaffff" cx="380.0" cy="42.0" r="1.0"/>
     <text stroke="none" x="380.0" y="42.0" font-size="10.0" font-family="helvetica">NT1.15</text>
    </g>
    <g>
     <circle stroke="black" stroke-width="0.5" fill="#aaffff" cx="430.0" cy="626.0" r="1.0"/>
     <text stroke="none" x="430.0" y="626.0" font-size="20.0" font-family="helvetica">K</text>
    </g>
    <g>
     <circle stroke="black" stroke-width="0.5" fill="#aaffff" cx="438.0" cy="638.0" r="1.0"/>
     <text stroke="none" x="438.0" y="638.0" font-size="10.0" font-family="helvetica">NT1.17</text>
    </g>
    <g>
     <circle stroke="black" stroke-width="0.5" fill="#aaffff" cx="453.0" cy="190.0" r="1.0"/>
     <text stroke="none" x="453.0" y="190.0" font-size="10.0" font-family="helvetica">NT1.18</text>
    </g>
    <g>
     <circle stroke="black" stroke-width="0.5" fill="#aaffff" cx="477.0" cy="71.0" r="1.0"/>
     <text stroke="none" x="477.0" y="71.0" font-size="20.0" font-family="helvetica">Aeromicrobium fastidiosum DSM 105527 (Z78209)</text>
    </g>
    <g>
     <circle stroke="black" stroke-width="0.5" fill="#aaffff" cx="482.0" cy="11.0" r="1.0"/>
     <text stroke="none" x="482.0" y="11.0" font-size="20.0" font-family="helvetica">Aeromicrobium erythreum NRRL B-3381T (AF005021)</text>
    </g>
    <g>
     <circle stroke="black" stroke-width="0.5" fill="#aaffff" cx="482.0" cy="669.0" r="1.0"/>
     <text stroke="none" x="482.0" y="669.0" font-size="20.0" font-family="helvetica">Nocardioides pyridinolyticus KCTC 0O74BPT (U61298)</text>
    </g>
    <g>
     <circle stroke="black" stroke-width="0.5" fill="#aaffff" cx="490.0" cy="609.0" r="1.0"/>
     <text stroke="none" x="490.0" y="609.0" font-size="20.0" font-family="helvetica">Nocardioides aquiterrae GW-97 (AF529063)</text>
    </g>
    <g>
     <circle stroke="black" stroke-width="0.5" fill="#aaffff" cx="493.0" cy="519.0" r="1.0"/>
     <text stroke="none" x="493.0" y="519.0" font-size="20.0" font-family="helvetica">E</text>
    </g>
    <g>
     <circle stroke="black" stroke-width="0.5" fill="#aaffff" cx="502.0" cy="518.0" r="1.0"/>
     <text stroke="none" x="502.0" y="518.0" font-size="10.0" font-family="helvetica">NT1.24</text>
    </g>
    <g>
     <circle stroke="black" stroke-width="0.5" fill="#aaffff" cx="534.0" cy="250.0" r="1.0"/>
     <text stroke="none" x="534.0" y="250.0" font-size="20.0" font-family="helvetica">Nocardioides aquaticus EL-17KT (X94145)</text>
    </g>
    <g>
     <circle stroke="black" stroke-width="0.5" fill="#aaffff" cx="540.0" cy="131.0" r="1.0"/>
     <text stroke="none" x="540.0" y="131.0" font-size="20.0" font-family="helvetica">Marmoricola aurantiacus DSM 12652T (Y18629)</text>
    </g>
    <g>
     <circle stroke="black" stroke-width="0.5" fill="#aaffff" cx="599.0" cy="489.0" r="1.0"/>
     <text stroke="none" x="599.0" y="489.0" font-size="20.0" font-family="helvetica">Nocardioides nitrophenolicus NSP41T (AFOO5024)</text>
    </g>
    <g>
     <circle stroke="black" stroke-width="0.5" fill="#aaffff" cx="613.0" cy="549.0" r="1.0"/>
     <text stroke="none" x="613.0" y="549.0" font-size="20.0" font-family="helvetica">Nocardioides simplex KCTC 91067 (AFO05009)</text>
    </g>
    <g>
     <circle stroke="black" stroke-width="0.5" fill="#aaffff" cx="618.0" cy="400.0" r="1.0"/>
     <text stroke="none" x="618.0" y="400.0" font-size="10.0" font-family="helvetica">NT1.29</text>
    </g>
    <g>
     <circle stroke="black" stroke-width="0.5" fill="#aaffff" cx="625.0" cy="310.0" r="1.0"/>
     <text stroke="none" x="625.0" y="310.0" font-size="10.0" font-family="helvetica">NT1.30</text>
    </g>
    <g>
     <circle stroke="black" stroke-width="0.5" fill="#aaffff" cx="628.0" cy="401.0" r="1.0"/>
     <text stroke="none" x="628.0" y="401.0" font-size="10.0" font-family="helvetica">NT1.31</text>
    </g>
    <g>
     <circle stroke="black" stroke-width="0.5" fill="#aaffff" cx="656.0" cy="430.0" r="1.0"/>
     <text stroke="none" x="656.0" y="430.0" font-size="10.0" font-family="helvetica">NT1.32</text>
    </g>
    <g>
     <circle stroke="black" stroke-width="0.5" fill="#aaffff" cx="663.0" cy="788.0" r="1.0"/>
     <text stroke="none" x="663.0" y="788.0" font-size="20.0" font-family="helvetica">Nocardioides ganghwensis IMSNU 140287 (AY423718)</text>
    </g>
    <g>
     <circle stroke="black" stroke-width="0.5" fill="#aaffff" cx="681.0" cy="369.0" r="1.0"/>
     <text stroke="none" x="681.0" y="369.0" font-size="20.0" font-family="helvetica">Nocardioides albus KCTC 9186T (AFOO4988)</text>
    </g>
    <g>
     <circle stroke="black" stroke-width="0.5" fill="#aaffff" cx="697.0" cy="728.0" r="1.0"/>
     <text stroke="none" x="697.0" y="728.0" font-size="20.0" font-family="helvetica">Nocardioides plantarum NCIMB 128347 (AF005008)</text>
    </g>
    <line stroke="black" x1="482.0" y1="11.0" x2="372.0" y2="41.0" stroke-width="0.5"/>
    <line stroke="black" x1="477.0" y1="71.0" x2="372.0" y2="41.0" stroke-width="0.5"/>
    <line stroke="black" x1="1.0" y1="166.0" x2="36.0" y2="166.0" stroke-width="0.5"/>
    <line stroke="black" x1="534.0" y1="250.0" x2="166.0" y2="410.0" stroke-width="0.5"/>
    <line stroke="black" x1="482.0" y1="669.0" x2="430.0" y2="626.0" stroke-width="0.5"/>
    <line stroke="black" x1="490.0" y1="609.0" x2="430.0" y2="626.0" stroke-width="0.5"/>
    <line stroke="black" x1="599.0" y1="489.0" x2="493.0" y2="519.0" stroke-width="0.5"/>
    <line stroke="black" x1="681.0" y1="369.0" x2="618.0" y2="400.0" stroke-width="0.5"/>
    <line stroke="black" x1="372.0" y1="41.0" x2="36.0" y2="166.0" stroke-width="0.5"/>
    <line stroke="black" x1="36.0" y1="166.0" x2="112.0" y2="285.0" stroke-width="0.5"/>
    <line stroke="black" x1="112.0" y1="285.0" x2="166.0" y2="410.0" stroke-width="0.5"/>
    <line stroke="black" x1="166.0" y1="410.0" x2="242.0" y2="568.0" stroke-width="0.5"/>
    <line stroke="black" x1="214.0" y1="162.0" x2="540.0" y2="131.0" stroke-width="0.5"/>
    <line stroke="black" x1="242.0" y1="568.0" x2="250.0" y2="699.0" stroke-width="0.5"/>
    <line stroke="black" x1="242.0" y1="568.0" x2="270.0" y2="438.0" stroke-width="0.5"/>
    <line stroke="black" x1="250.0" y1="699.0" x2="430.0" y2="626.0" stroke-width="0.5"/>
    <line stroke="black" x1="250.0" y1="699.0" x2="319.0" y2="759.0" stroke-width="0.5"/>
    <line stroke="black" x1="270.0" y1="438.0" x2="493.0" y2="519.0" stroke-width="0.5"/>
    <line stroke="black" x1="697.0" y1="728.0" x2="319.0" y2="759.0" stroke-width="0.5"/>
    <line stroke="black" x1="663.0" y1="788.0" x2="319.0" y2="759.0" stroke-width="0.5"/>
    <line stroke="black" x1="613.0" y1="549.0" x2="493.0" y2="519.0" stroke-width="0.5"/>
   </g>
  </g>
 </svg>
</svg>
