<?xml version="1.0" encoding="UTF-8"?>
<svg height="800.0" width="700.0" xmlns="http://www.w3.org/2000/svg">
 <svg>
  <g>
   <g>
    <g>
     <circle stroke="black" stroke-width="0.5" fill="#aaffff" cx="44.0" cy="1195.0" r="1.0"/>
     <text stroke="none" x="44.0" y="1195.0" font-size="20.0" font-family="helvetica">59</text>
    </g>
    <g>
     <circle stroke="black" stroke-width="0.5" fill="#aaffff" cx="112.0" cy="930.0" r="1.0"/>
     <text stroke="none" x="112.0" y="930.0" font-size="20.0" font-family="helvetica">56</text>
    </g>
    <g>
     <circle stroke="black" stroke-width="0.5" fill="#aaffff" cx="133.0" cy="1355.0" r="1.0"/>
     <text stroke="none" x="133.0" y="1355.0" font-size="10.0" font-family="helvetica">NT1.3</text>
    </g>
    <g>
     <circle stroke="black" stroke-width="0.5" fill="#aaffff" cx="179.0" cy="1533.0" r="1.0"/>
     <text stroke="none" x="179.0" y="1533.0" font-size="20.0" font-family="helvetica">100</text>
    </g>
    <g>
     <circle stroke="black" stroke-width="0.5" fill="#aaffff" cx="187.0" cy="503.0" r="1.0"/>
     <text stroke="none" x="187.0" y="503.0" font-size="20.0" font-family="helvetica">71</text>
    </g>
    <g>
     <circle stroke="black" stroke-width="0.5" fill="#aaffff" cx="201.0" cy="158.0" r="1.0"/>
     <text stroke="none" x="201.0" y="158.0" font-size="10.0" font-family="helvetica">NT1.6</text>
    </g>
    <g>
     <circle stroke="black" stroke-width="0.5" fill="#aaffff" cx="217.0" cy="846.0" r="1.0"/>
     <text stroke="none" x="217.0" y="846.0" font-size="20.0" font-family="helvetica">50</text>
    </g>
    <g>
     <circle stroke="black" stroke-width="0.5" fill="#aaffff" cx="222.0" cy="259.0" r="1.0"/>
     <text stroke="none" x="222.0" y="259.0" font-size="10.0" font-family="helvetica">NT1.8</text>
    </g>
    <g>
     <circle stroke="black" stroke-width="0.5" fill="#aaffff" cx="244.0" cy="1108.0" r="1.0"/>
     <text stroke="none" x="244.0" y="1108.0" font-size="20.0" font-family="helvetica">54</text>
    </g>
    <g>
     <circle stroke="black" stroke-width="0.5" fill="#aaffff" cx="249.0" cy="585.0" r="1.0"/>
     <text stroke="none" x="249.0" y="585.0" font-size="20.0" font-family="helvetica">60</text>
    </g>
    <g>
     <circle stroke="black" stroke-width="0.5" fill="#aaffff" cx="269.0" cy="1326.0" r="1.0"/>
     <text stroke="none" x="269.0" y="1326.0" font-size="20.0" font-family="helvetica">Arthrobacter clystallopoietes DSM 201 17T (X80738)</text>
    </g>
    <g>
     <circle stroke="black" stroke-width="0.5" fill="#aaffff" cx="279.0" cy="1240.0" r="1.0"/>
     <text stroke="none" x="279.0" y="1240.0" font-size="20.0" font-family="helvetica">51</text>
    </g>
    <g>
     <circle stroke="black" stroke-width="0.5" fill="#aaffff" cx="290.0" cy="48.0" r="1.0"/>
     <text stroke="none" x="290.0" y="48.0" font-size="20.0" font-family="helvetica">30</text>
    </g>
    <g>
     <circle stroke="black" stroke-width="0.5" fill="#aaffff" cx="290.0" cy="204.0" r="1.0"/>
     <text stroke="none" x="290.0" y="204.0" font-size="10.0" font-family="helvetica">NT1.14</text>
    </g>
    <g>
     <circle stroke="black" stroke-width="0.5" fill="#aaffff" cx="295.0" cy="315.0" r="1.0"/>
     <text stroke="none" x="295.0" y="315.0" font-size="10.0" font-family="helvetica">NT1.15</text>
    </g>
    <g>
     <circle stroke="black" stroke-width="0.5" fill="#aaffff" cx="311.0" cy="359.0" r="1.0"/>
     <text stroke="none" x="311.0" y="359.0" font-size="10.0" font-family="helvetica">NT1.16</text>
    </g>
    <g>
     <circle stroke="black" stroke-width="0.5" fill="#aaffff" cx="313.0" cy="980.0" r="1.0"/>
     <text stroke="none" x="313.0" y="980.0" font-size="20.0" font-family="helvetica">67</text>
    </g>
    <g>
     <circle stroke="black" stroke-width="0.5" fill="#aaffff" cx="323.0" cy="1553.0" r="1.0"/>
     <text stroke="none" x="323.0" y="1553.0" font-size="20.0" font-family="helvetica">Nesterenkonia Iutea YIM 70081T (AY588278)</text>
    </g>
    <g>
     <circle stroke="black" stroke-width="0.5" fill="#aaffff" cx="331.0" cy="898.0" r="1.0"/>
     <text stroke="none" x="331.0" y="898.0" font-size="10.0" font-family="helvetica">NT1.19</text>
    </g>
    <g>
     <circle stroke="black" stroke-width="0.5" fill="#aaffff" cx="345.0" cy="1191.0" r="1.0"/>
     <text stroke="none" x="345.0" y="1191.0" font-size="20.0" font-family="helvetica">69</text>
    </g>
    <g>
     <circle stroke="black" stroke-width="0.5" fill="#aaffff" cx="350.0" cy="555.0" r="1.0"/>
     <text stroke="none" x="350.0" y="555.0" font-size="20.0" font-family="helvetica">99</text>
    </g>
    <g>
     <circle stroke="black" stroke-width="0.5" fill="#aaffff" cx="354.0" cy="1382.0" r="1.0"/>
     <text stroke="none" x="354.0" y="1382.0" font-size="20.0" font-family="helvetica">100</text>
    </g>
    <g>
     <circle stroke="black" stroke-width="0.5" fill="#aaffff" cx="356.0" cy="1457.0" r="1.0"/>
     <text stroke="none" x="356.0" y="1457.0" font-size="20.0" font-family="helvetica">100</text>
    </g>
    <g>
     <circle stroke="black" stroke-width="0.5" fill="#aaffff" cx="357.0" cy="171.0" r="1.0"/>
     <text stroke="none" x="357.0" y="171.0" font-size="20.0" font-family="helvetica">39</text>
    </g>
    <g>
     <circle stroke="black" stroke-width="0.5" fill="#aaffff" cx="369.0" cy="1364.0" r="1.0"/>
     <text stroke="none" x="369.0" y="1364.0" font-size="20.0" font-family="helvetica">Kocuria rosea ATCC 187T (Y11330)</text>
    </g>
    <g>
     <circle stroke="black" stroke-width="0.5" fill="#aaffff" cx="390.0" cy="1515.0" r="1.0"/>
     <text stroke="none" x="390.0" y="1515.0" font-size="20.0" font-family="helvetica">Nesterenkonia halobia DSM 2O541T (X80747)</text>
    </g>
    <g>
     <circle stroke="black" stroke-width="0.5" fill="#aaffff" cx="396.0" cy="825.0" r="1.0"/>
     <text stroke="none" x="396.0" y="825.0" font-size="20.0" font-family="helvetica">56</text>
    </g>
    <g>
     <circle stroke="black" stroke-width="0.5" fill="#aaffff" cx="397.0" cy="1402.0" r="1.0"/>
     <text stroke="none" x="397.0" y="1402.0" font-size="20.0" font-family="helvetica">Kocuria polaris DSM 14382T (AJ278868)</text>
    </g>
    <g>
     <circle stroke="black" stroke-width="0.5" fill="#aaffff" cx="401.0" cy="573.0" r="1.0"/>
     <text stroke="none" x="401.0" y="573.0" font-size="20.0" font-family="helvetica">Arthrobacter pascens DSM 20545T (X80740)</text>
    </g>
    <g>
     <circle stroke="black" stroke-width="0.5" fill="#aaffff" cx="401.0" cy="536.0" r="1.0"/>
     <text stroke="none" x="401.0" y="536.0" font-size="20.0" font-family="helvetica">Arthrobacter globiformis DSM 20124T (X80736)</text>
    </g>
    <g>
     <circle stroke="black" stroke-width="0.5" fill="#aaffff" cx="404.0" cy="775.0" r="1.0"/>
     <text stroke="none" x="404.0" y="775.0" font-size="10.0" font-family="helvetica">NT1.31</text>
    </g>
    <g>
     <circle stroke="black" stroke-width="0.5" fill="#aaffff" cx="407.0" cy="409.0" r="1.0"/>
     <text stroke="none" x="407.0" y="409.0" font-size="10.0" font-family="helvetica">NT1.32</text>
    </g>
    <g>
     <circle stroke="black" stroke-width="0.5" fill="#aaffff" cx="411.0" cy="29.0" r="1.0"/>
     <text stroke="none" x="411.0" y="29.0" font-size="20.0" font-family="helvetica">99</text>
    </g>
    <g>
     <circle stroke="black" stroke-width="0.5" fill="#aaffff" cx="418.0" cy="817.0" r="1.0"/>
     <text stroke="none" x="418.0" y="817.0" font-size="10.0" font-family="helvetica">NT1.34</text>
    </g>
    <g>
     <circle stroke="black" stroke-width="0.5" fill="#aaffff" cx="423.0" cy="968.0" r="1.0"/>
     <text stroke="none" x="423.0" y="968.0" font-size="10.0" font-family="helvetica">NT1.35</text>
    </g>
    <g>
     <circle stroke="black" stroke-width="0.5" fill="#aaffff" cx="450.0" cy="451.0" r="1.0"/>
     <text stroke="none" x="450.0" y="451.0" font-size="10.0" font-family="helvetica">NT1.36</text>
    </g>
    <g>
     <circle stroke="black" stroke-width="0.5" fill="#aaffff" cx="457.0" cy="731.0" r="1.0"/>
     <text stroke="none" x="457.0" y="731.0" font-size="10.0" font-family="helvetica">NT1.37</text>
    </g>
    <g>
     <circle stroke="black" stroke-width="0.5" fill="#aaffff" cx="469.0" cy="1006.0" r="1.0"/>
     <text stroke="none" x="469.0" y="1006.0" font-size="20.0" font-family="helvetica">78</text>
    </g>
    <g>
     <circle stroke="black" stroke-width="0.5" fill="#aaffff" cx="470.0" cy="1477.0" r="1.0"/>
     <text stroke="none" x="470.0" y="1477.0" font-size="20.0" font-family="helvetica">Rothia mucilaginosa CCM 24171 (X87758)</text>
    </g>
    <g>
     <circle stroke="black" stroke-width="0.5" fill="#aaffff" cx="479.0" cy="932.0" r="1.0"/>
     <text stroke="none" x="479.0" y="932.0" font-size="20.0" font-family="helvetica">71</text>
    </g>
    <g>
     <circle stroke="black" stroke-width="0.5" fill="#aaffff" cx="480.0" cy="1150.0" r="1.0"/>
     <text stroke="none" x="480.0" y="1150.0" font-size="20.0" font-family="helvetica">100</text>
    </g>
    <g>
     <circle stroke="black" stroke-width="0.5" fill="#aaffff" cx="482.0" cy="146.0" r="1.0"/>
     <text stroke="none" x="482.0" y="146.0" font-size="20.0" font-family="helvetica">100</text>
    </g>
    <g>
     <circle stroke="black" stroke-width="0.5" fill="#aaffff" cx="484.0" cy="368.0" r="1.0"/>
     <text stroke="none" x="484.0" y="368.0" font-size="20.0" font-family="helvetica">97</text>
    </g>
    <g>
     <circle stroke="black" stroke-width="0.5" fill="#aaffff" cx="484.0" cy="698.0" r="1.0"/>
     <text stroke="none" x="484.0" y="698.0" font-size="20.0" font-family="helvetica">54</text>
    </g>
    <g>
     <circle stroke="black" stroke-width="0.5" fill="#aaffff" cx="488.0" cy="121.0" r="1.0"/>
     <text stroke="none" x="488.0" y="121.0" font-size="20.0" font-family="helvetica">Arthrobacter oxydans DSM 201197 (X83408)</text>
    </g>
    <g>
     <circle stroke="black" stroke-width="0.5" fill="#aaffff" cx="492.0" cy="197.0" r="1.0"/>
     <text stroke="none" x="492.0" y="197.0" font-size="20.0" font-family="helvetica">Arthrobacter chlorophenolicus A5T (AF102267)</text>
    </g>
    <g>
     <circle stroke="black" stroke-width="0.5" fill="#aaffff" cx="492.0" cy="160.0" r="1.0"/>
     <text stroke="none" x="492.0" y="160.0" font-size="20.0" font-family="helvetica">Arthrobacter polychromogenes DSM 20136T (X80741)</text>
    </g>
    <g>
     <circle stroke="black" stroke-width="0.5" fill="#aaffff" cx="494.0" cy="1120.0" r="1.0"/>
     <text stroke="none" x="494.0" y="1120.0" font-size="10.0" font-family="helvetica">NT1.48</text>
    </g>
    <g>
     <circle stroke="black" stroke-width="0.5" fill="#aaffff" cx="495.0" cy="478.0" r="1.0"/>
     <text stroke="none" x="495.0" y="478.0" font-size="20.0" font-family="helvetica">97</text>
    </g>
    <g>
     <circle stroke="black" stroke-width="0.5" fill="#aaffff" cx="496.0" cy="499.0" r="1.0"/>
     <text stroke="none" x="496.0" y="499.0" font-size="20.0" font-family="helvetica">Anfhrobacter nicotinovorans DSM 420T (X80743)</text>
    </g>
    <g>
     <circle stroke="black" stroke-width="0.5" fill="#aaffff" cx="498.0" cy="668.0" r="1.0"/>
     <text stroke="none" x="498.0" y="668.0" font-size="10.0" font-family="helvetica">NT1.51</text>
    </g>
    <g>
     <circle stroke="black" stroke-width="0.5" fill="#aaffff" cx="515.0" cy="235.0" r="1.0"/>
     <text stroke="none" x="515.0" y="235.0" font-size="20.0" font-family="helvetica">Arthrobacter roseus DSM 14508T (AJ278870)</text>
    </g>
    <g>
     <circle stroke="black" stroke-width="0.5" fill="#aaffff" cx="540.0" cy="385.0" r="1.0"/>
     <text stroke="none" x="540.0" y="385.0" font-size="20.0" font-family="helvetica">Arthrobacter aurescens DSM 20116T (X83405)</text>
    </g>
    <g>
     <circle stroke="black" stroke-width="0.5" fill="#aaffff" cx="540.0" cy="649.0" r="1.0"/>
     <text stroke="none" x="540.0" y="649.0" font-size="20.0" font-family="helvetica">Arthrobacter nicotianae DSM 20123T (X80739)</text>
    </g>
    <g>
     <circle stroke="black" stroke-width="0.5" fill="#aaffff" cx="542.0" cy="460.0" r="1.0"/>
     <text stroke="none" x="542.0" y="460.0" font-size="20.0" font-family="helvetica">Arfhrobacter histidinolovorans DSM 2O115T (X83406)</text>
    </g>
    <g>
     <circle stroke="black" stroke-width="0.5" fill="#aaffff" cx="552.0" cy="1439.0" r="1.0"/>
     <text stroke="none" x="552.0" y="1439.0" font-size="20.0" font-family="helvetica">Rothia dentocariosa ATCC 17931T (M59055)</text>
    </g>
    <g>
     <circle stroke="black" stroke-width="0.5" fill="#aaffff" cx="554.0" cy="423.0" r="1.0"/>
     <text stroke="none" x="554.0" y="423.0" font-size="20.0" font-family="helvetica">Arthrobacter ureafaciens DSM 20126T (X80744)</text>
    </g>
    <g>
     <circle stroke="black" stroke-width="0.5" fill="#aaffff" cx="554.0" cy="1289.0" r="1.0"/>
     <text stroke="none" x="554.0" y="1289.0" font-size="20.0" font-family="helvetica">Zhihengliuella halotolerans YIM 70185T (DQ372937)</text>
    </g>
    <g>
     <circle stroke="black" stroke-width="0.5" fill="#aaffff" cx="556.0" cy="724.0" r="1.0"/>
     <text stroke="none" x="556.0" y="724.0" font-size="20.0" font-family="helvetica">Arthrobacter arilaitensis CIP 108037T (AJ609628)</text>
    </g>
    <g>
     <circle stroke="black" stroke-width="0.5" fill="#aaffff" cx="559.0" cy="687.0" r="1.0"/>
     <text stroke="none" x="559.0" y="687.0" font-size="20.0" font-family="helvetica">Arthrobacter mysorens DSM 12798T (AJ617482)</text>
    </g>
    <g>
     <circle stroke="black" stroke-width="0.5" fill="#aaffff" cx="565.0" cy="874.0" r="1.0"/>
     <text stroke="none" x="565.0" y="874.0" font-size="20.0" font-family="helvetica">Arthrobacter bergerei CIP 108036T (AJ609630)</text>
    </g>
    <g>
     <circle stroke="black" stroke-width="0.5" fill="#aaffff" cx="570.0" cy="1025.0" r="1.0"/>
     <text stroke="none" x="570.0" y="1025.0" font-size="20.0" font-family="helvetica">Anhrobacter kerguelensis KGN15T (AJ606062)</text>
    </g>
    <g>
     <circle stroke="black" stroke-width="0.5" fill="#aaffff" cx="570.0" cy="837.0" r="1.0"/>
     <text stroke="none" x="570.0" y="837.0" font-size="20.0" font-family="helvetica">Arthrobacter protophormiae DSM 20168T (X80745)</text>
    </g>
    <g>
     <circle stroke="black" stroke-width="0.5" fill="#aaffff" cx="572.0" cy="1063.0" r="1.0"/>
     <text stroke="none" x="572.0" y="1063.0" font-size="20.0" font-family="helvetica">Anfhrobacter rhombi CCUG 38813T (Y15884)</text>
    </g>
    <g>
     <circle stroke="black" stroke-width="0.5" fill="#aaffff" cx="581.0" cy="988.0" r="1.0"/>
     <text stroke="none" x="581.0" y="988.0" font-size="20.0" font-family="helvetica">Arthrobacter psychrophenolicus DSM 154547 (AJ616763)</text>
    </g>
    <g>
     <circle stroke="black" stroke-width="0.5" fill="#aaffff" cx="586.0" cy="1101.0" r="1.0"/>
     <text stroke="none" x="586.0" y="1101.0" font-size="20.0" font-family="helvetica">Micrococcus Iuteus HN2-11(AF057289)</text>
    </g>
    <g>
     <circle stroke="black" stroke-width="0.5" fill="#aaffff" cx="593.0" cy="611.0" r="1.0"/>
     <text stroke="none" x="593.0" y="611.0" font-size="20.0" font-family="helvetica">Arthrobacter woluwensis CUL 1808T (X93353)</text>
    </g>
    <g>
     <circle stroke="black" stroke-width="0.5" fill="#aaffff" cx="594.0" cy="1232.0" r="1.0"/>
     <text stroke="none" x="594.0" y="1232.0" font-size="20.0" font-family="helvetica">100</text>
    </g>
    <g>
     <circle stroke="black" stroke-width="0.5" fill="#aaffff" cx="607.0" cy="1176.0" r="1.0"/>
     <text stroke="none" x="607.0" y="1176.0" font-size="20.0" font-family="helvetica">Micrococcus antarcticus T2T (AJO05932)</text>
    </g>
    <g>
     <circle stroke="black" stroke-width="0.5" fill="#aaffff" cx="611.0" cy="47.0" r="1.0"/>
     <text stroke="none" x="611.0" y="47.0" font-size="20.0" font-family="helvetica">Arthrobacter russicus GTC 863T (AB071950)</text>
    </g>
    <g>
     <circle stroke="black" stroke-width="0.5" fill="#aaffff" cx="611.0" cy="913.0" r="1.0"/>
     <text stroke="none" x="611.0" y="913.0" font-size="20.0" font-family="helvetica">Arthrobacter sulfureus DSM 20167T (X83409)</text>
    </g>
    <g>
     <circle stroke="black" stroke-width="0.5" fill="#aaffff" cx="616.0" cy="272.0" r="1.0"/>
     <text stroke="none" x="616.0" y="272.0" font-size="20.0" font-family="helvetica">Arfhrobacter agilis DSM 20550T (X80748)</text>
    </g>
    <g>
     <circle stroke="black" stroke-width="0.5" fill="#aaffff" cx="618.0" cy="1251.0" r="1.0"/>
     <text stroke="none" x="618.0" y="1251.0" font-size="20.0" font-family="helvetica">Citricoccus alkalitolerans YIM 7001 OT (AY376164)</text>
    </g>
    <g>
     <circle stroke="black" stroke-width="0.5" fill="#aaffff" cx="622.0" cy="348.0" r="1.0"/>
     <text stroke="none" x="622.0" y="348.0" font-size="20.0" font-family="helvetica">Arthrobacterilicis DSM 201387 (X83407)</text>
    </g>
    <g>
     <circle stroke="black" stroke-width="0.5" fill="#aaffff" cx="634.0" cy="950.0" r="1.0"/>
     <text stroke="none" x="634.0" y="950.0" font-size="20.0" font-family="helvetica">Arthrobacter gangotriensis L21 yT (AJ606061 )</text>
    </g>
    <g>
     <circle stroke="black" stroke-width="0.5" fill="#aaffff" cx="634.0" cy="800.0" r="1.0"/>
     <text stroke="none" x="634.0" y="800.0" font-size="20.0" font-family="helvetica">Arthrobacter creatinolyticus GIFU 12498T (D8821 1)</text>
    </g>
    <g>
     <circle stroke="black" stroke-width="0.5" fill="#aaffff" cx="641.0" cy="1214.0" r="1.0"/>
     <text stroke="none" x="641.0" y="1214.0" font-size="20.0" font-family="helvetica">Citricoccus muralis 4-OT (AJ344143)</text>
    </g>
    <g>
     <circle stroke="black" stroke-width="0.5" fill="#aaffff" cx="648.0" cy="310.0" r="1.0"/>
     <text stroke="none" x="648.0" y="310.0" font-size="20.0" font-family="helvetica">Arthrobacter citreus DSM 201337 (X80737)</text>
    </g>
    <g>
     <circle stroke="black" stroke-width="0.5" fill="#aaffff" cx="654.0" cy="1138.0" r="1.0"/>
     <text stroke="none" x="654.0" y="1138.0" font-size="20.0" font-family="helvetica">Micrococcus lylae DSM 20315T (X80750)</text>
    </g>
    <g>
     <circle stroke="black" stroke-width="0.5" fill="#aaffff" cx="684.0" cy="762.0" r="1.0"/>
     <text stroke="none" x="684.0" y="762.0" font-size="20.0" font-family="helvetica">Anfhrobacter uratoxydans DSM 20647T (X83410)</text>
    </g>
    <g>
     <circle stroke="black" stroke-width="0.5" fill="#aaffff" cx="698.0" cy="9.0" r="1.0"/>
     <text stroke="none" x="698.0" y="9.0" font-size="20.0" font-family="helvetica">Acaricomes phytoseiuli DSM 14247T (AJ812213)</text>
    </g>
    <g>
     <circle stroke="black" stroke-width="0.5" fill="#aaffff" cx="818.0" cy="84.0" r="1.0"/>
     <text stroke="none" x="818.0" y="84.0" font-size="20.0" font-family="helvetica">Renibacterium salmoninarum ATCC 33209T (X51601)</text>
    </g>
    <line stroke="black" x1="515.0" y1="235.0" x2="290.0" y2="204.0" stroke-width="0.5"/>
    <line stroke="black" x1="488.0" y1="121.0" x2="482.0" y2="146.0" stroke-width="0.5"/>
    <line stroke="black" x1="492.0" y1="160.0" x2="482.0" y2="146.0" stroke-width="0.5"/>
    <line stroke="black" x1="496.0" y1="499.0" x2="495.0" y2="478.0" stroke-width="0.5"/>
    <line stroke="black" x1="616.0" y1="272.0" x2="295.0" y2="315.0" stroke-width="0.5"/>
    <line stroke="black" x1="540.0" y1="385.0" x2="484.0" y2="368.0" stroke-width="0.5"/>
    <line stroke="black" x1="622.0" y1="348.0" x2="484.0" y2="368.0" stroke-width="0.5"/>
    <line stroke="black" x1="401.0" y1="573.0" x2="350.0" y2="555.0" stroke-width="0.5"/>
    <line stroke="black" x1="401.0" y1="536.0" x2="350.0" y2="555.0" stroke-width="0.5"/>
    <line stroke="black" x1="269.0" y1="1326.0" x2="133.0" y2="1355.0" stroke-width="0.5"/>
    <line stroke="black" x1="586.0" y1="1101.0" x2="494.0" y2="1120.0" stroke-width="0.5"/>
    <line stroke="black" x1="397.0" y1="1402.0" x2="354.0" y2="1382.0" stroke-width="0.5"/>
    <line stroke="black" x1="618.0" y1="1251.0" x2="594.0" y2="1232.0" stroke-width="0.5"/>
    <line stroke="black" x1="641.0" y1="1214.0" x2="594.0" y2="1232.0" stroke-width="0.5"/>
    <line stroke="black" x1="565.0" y1="874.0" x2="396.0" y2="825.0" stroke-width="0.5"/>
    <line stroke="black" x1="581.0" y1="988.0" x2="469.0" y2="1006.0" stroke-width="0.5"/>
    <line stroke="black" x1="570.0" y1="837.0" x2="418.0" y2="817.0" stroke-width="0.5"/>
    <line stroke="black" x1="559.0" y1="687.0" x2="498.0" y2="668.0" stroke-width="0.5"/>
    <line stroke="black" x1="323.0" y1="1553.0" x2="179.0" y2="1533.0" stroke-width="0.5"/>
    <line stroke="black" x1="552.0" y1="1439.0" x2="356.0" y2="1457.0" stroke-width="0.5"/>
    <line stroke="black" x1="411.0" y1="29.0" x2="290.0" y2="48.0" stroke-width="0.5"/>
    <line stroke="black" x1="290.0" y1="48.0" x2="201.0" y2="158.0" stroke-width="0.5"/>
    <line stroke="black" x1="201.0" y1="158.0" x2="187.0" y2="503.0" stroke-width="0.5"/>
    <line stroke="black" x1="201.0" y1="158.0" x2="222.0" y2="259.0" stroke-width="0.5"/>
    <line stroke="black" x1="222.0" y1="259.0" x2="295.0" y2="315.0" stroke-width="0.5"/>
    <line stroke="black" x1="222.0" y1="259.0" x2="290.0" y2="204.0" stroke-width="0.5"/>
    <line stroke="black" x1="290.0" y1="204.0" x2="357.0" y2="171.0" stroke-width="0.5"/>
    <line stroke="black" x1="295.0" y1="315.0" x2="311.0" y2="359.0" stroke-width="0.5"/>
    <line stroke="black" x1="311.0" y1="359.0" x2="407.0" y2="409.0" stroke-width="0.5"/>
    <line stroke="black" x1="357.0" y1="171.0" x2="482.0" y2="146.0" stroke-width="0.5"/>
    <line stroke="black" x1="187.0" y1="503.0" x2="112.0" y2="930.0" stroke-width="0.5"/>
    <line stroke="black" x1="187.0" y1="503.0" x2="217.0" y2="846.0" stroke-width="0.5"/>
    <line stroke="black" x1="407.0" y1="409.0" x2="450.0" y2="451.0" stroke-width="0.5"/>
    <line stroke="black" x1="407.0" y1="409.0" x2="484.0" y2="368.0" stroke-width="0.5"/>
    <line stroke="black" x1="450.0" y1="451.0" x2="495.0" y2="478.0" stroke-width="0.5"/>
    <line stroke="black" x1="217.0" y1="846.0" x2="244.0" y2="1108.0" stroke-width="0.5"/>
    <line stroke="black" x1="217.0" y1="846.0" x2="249.0" y2="585.0" stroke-width="0.5"/>
    <line stroke="black" x1="112.0" y1="930.0" x2="44.0" y2="1195.0" stroke-width="0.5"/>
    <line stroke="black" x1="112.0" y1="930.0" x2="133.0" y2="1355.0" stroke-width="0.5"/>
    <line stroke="black" x1="244.0" y1="1108.0" x2="279.0" y2="1240.0" stroke-width="0.5"/>
    <line stroke="black" x1="244.0" y1="1108.0" x2="313.0" y2="980.0" stroke-width="0.5"/>
    <line stroke="black" x1="249.0" y1="585.0" x2="350.0" y2="555.0" stroke-width="0.5"/>
    <line stroke="black" x1="44.0" y1="1195.0" x2="356.0" y2="1457.0" stroke-width="0.5"/>
    <line stroke="black" x1="279.0" y1="1240.0" x2="345.0" y2="1191.0" stroke-width="0.5"/>
    <line stroke="black" x1="313.0" y1="980.0" x2="331.0" y2="898.0" stroke-width="0.5"/>
    <line stroke="black" x1="345.0" y1="1191.0" x2="594.0" y2="1232.0" stroke-width="0.5"/>
    <line stroke="black" x1="345.0" y1="1191.0" x2="480.0" y2="1150.0" stroke-width="0.5"/>
    <line stroke="black" x1="331.0" y1="898.0" x2="423.0" y2="968.0" stroke-width="0.5"/>
    <line stroke="black" x1="331.0" y1="898.0" x2="396.0" y2="825.0" stroke-width="0.5"/>
    <line stroke="black" x1="133.0" y1="1355.0" x2="354.0" y2="1382.0" stroke-width="0.5"/>
    <line stroke="black" x1="396.0" y1="825.0" x2="404.0" y2="775.0" stroke-width="0.5"/>
    <line stroke="black" x1="480.0" y1="1150.0" x2="494.0" y2="1120.0" stroke-width="0.5"/>
    <line stroke="black" x1="423.0" y1="968.0" x2="469.0" y2="1006.0" stroke-width="0.5"/>
    <line stroke="black" x1="423.0" y1="968.0" x2="479.0" y2="932.0" stroke-width="0.5"/>
    <line stroke="black" x1="404.0" y1="775.0" x2="418.0" y2="817.0" stroke-width="0.5"/>
    <line stroke="black" x1="404.0" y1="775.0" x2="457.0" y2="731.0" stroke-width="0.5"/>
    <line stroke="black" x1="457.0" y1="731.0" x2="484.0" y2="698.0" stroke-width="0.5"/>
    <line stroke="black" x1="484.0" y1="698.0" x2="498.0" y2="668.0" stroke-width="0.5"/>
    <line stroke="black" x1="44.0" y1="1195.0" x2="179.0" y2="1533.0" stroke-width="0.5"/>
    <line stroke="black" x1="390.0" y1="1515.0" x2="179.0" y2="1533.0" stroke-width="0.5"/>
    <line stroke="black" x1="369.0" y1="1364.0" x2="354.0" y2="1382.0" stroke-width="0.5"/>
    <line stroke="black" x1="593.0" y1="611.0" x2="249.0" y2="585.0" stroke-width="0.5"/>
    <line stroke="black" x1="554.0" y1="1289.0" x2="279.0" y2="1240.0" stroke-width="0.5"/>
    <line stroke="black" x1="470.0" y1="1477.0" x2="356.0" y2="1457.0" stroke-width="0.5"/>
    <line stroke="black" x1="572.0" y1="1063.0" x2="313.0" y2="980.0" stroke-width="0.5"/>
    <line stroke="black" x1="492.0" y1="197.0" x2="357.0" y2="171.0" stroke-width="0.5"/>
    <line stroke="black" x1="648.0" y1="310.0" x2="311.0" y2="359.0" stroke-width="0.5"/>
    <line stroke="black" x1="818.0" y1="84.0" x2="290.0" y2="48.0" stroke-width="0.5"/>
    <line stroke="black" x1="611.0" y1="47.0" x2="411.0" y2="29.0" stroke-width="0.5"/>
    <line stroke="black" x1="554.0" y1="423.0" x2="450.0" y2="451.0" stroke-width="0.5"/>
    <line stroke="black" x1="634.0" y1="800.0" x2="418.0" y2="817.0" stroke-width="0.5"/>
    <line stroke="black" x1="570.0" y1="1025.0" x2="469.0" y2="1006.0" stroke-width="0.5"/>
    <line stroke="black" x1="556.0" y1="724.0" x2="484.0" y2="698.0" stroke-width="0.5"/>
    <line stroke="black" x1="542.0" y1="460.0" x2="495.0" y2="478.0" stroke-width="0.5"/>
    <line stroke="black" x1="540.0" y1="649.0" x2="498.0" y2="668.0" stroke-width="0.5"/>
    <line stroke="black" x1="607.0" y1="1176.0" x2="480.0" y2="1150.0" stroke-width="0.5"/>
    <line stroke="black" x1="611.0" y1="913.0" x2="479.0" y2="932.0" stroke-width="0.5"/>
    <line stroke="black" x1="634.0" y1="950.0" x2="479.0" y2="932.0" stroke-width="0.5"/>
    <line stroke="black" x1="684.0" y1="762.0" x2="457.0" y2="731.0" stroke-width="0.5"/>
    <line stroke="black" x1="654.0" y1="1138.0" x2="494.0" y2="1120.0" stroke-width="0.5"/>
    <line stroke="black" x1="698.0" y1="9.0" x2="411.0" y2="29.0" stroke-width="0.5"/>
   </g>
  </g>
 </svg>
</svg>
