<?xml version="1.0" encoding="UTF-8"?>
<svg height="800.0" width="700.0" xmlns="http://www.w3.org/2000/svg">
 <svg>
  <g>
   <g>
    <g>
     <circle stroke="black" stroke-width="0.5" fill="#aaffff" cx="29.0" cy="650.0" r="1.0"/>
     <text stroke="none" x="29.0" y="650.0" font-size="10.0" font-family="helvetica">NT1.1</text>
    </g>
    <g>
     <circle stroke="black" stroke-width="0.5" fill="#aaffff" cx="120.0" cy="698.0" r="1.0"/>
     <text stroke="none" x="120.0" y="698.0" font-size="10.0" font-family="helvetica">NT1.2</text>
    </g>
    <g>
     <circle stroke="black" stroke-width="0.5" fill="#aaffff" cx="170.0" cy="635.0" r="1.0"/>
     <text stroke="none" x="170.0" y="635.0" font-size="10.0" font-family="helvetica">NT1.3</text>
    </g>
    <g>
     <circle stroke="black" stroke-width="0.5" fill="#aaffff" cx="179.0" cy="332.0" r="1.0"/>
     <text stroke="none" x="179.0" y="332.0" font-size="10.0" font-family="helvetica">NT1.4</text>
    </g>
    <g>
     <circle stroke="black" stroke-width="0.5" fill="#aaffff" cx="199.0" cy="208.0" r="1.0"/>
     <text stroke="none" x="199.0" y="208.0" font-size="10.0" font-family="helvetica">NT1.5</text>
    </g>
    <g>
     <circle stroke="black" stroke-width="0.5" fill="#aaffff" cx="199.0" cy="488.0" r="1.0"/>
     <text stroke="none" x="199.0" y="488.0" font-size="10.0" font-family="helvetica">NT1.6</text>
    </g>
    <g>
     <circle stroke="black" stroke-width="0.5" fill="#aaffff" cx="207.0" cy="476.0" r="1.0"/>
     <text stroke="none" x="207.0" y="476.0" font-size="20.0" font-family="helvetica"/>
    </g>
    <g>
     <circle stroke="black" stroke-width="0.5" fill="#aaffff" cx="207.0" cy="472.0" r="1.0"/>
     <text stroke="none" x="207.0" y="472.0" font-size="20.0" font-family="helvetica"/>
    </g>
    <g>
     <circle stroke="black" stroke-width="0.5" fill="#aaffff" cx="209.0" cy="470.0" r="1.0"/>
     <text stroke="none" x="209.0" y="470.0" font-size="10.0" font-family="helvetica">NT1.9</text>
    </g>
    <g>
     <circle stroke="black" stroke-width="0.5" fill="#aaffff" cx="223.0" cy="448.0" r="1.0"/>
     <text stroke="none" x="223.0" y="448.0" font-size="10.0" font-family="helvetica">NT1.10</text>
    </g>
    <g>
     <circle stroke="black" stroke-width="0.5" fill="#aaffff" cx="234.0" cy="387.0" r="1.0"/>
     <text stroke="none" x="234.0" y="387.0" font-size="10.0" font-family="helvetica">NT1.11</text>
    </g>
    <g>
     <circle stroke="black" stroke-width="0.5" fill="#aaffff" cx="236.0" cy="250.0" r="1.0"/>
     <text stroke="none" x="236.0" y="250.0" font-size="10.0" font-family="helvetica">NT1.12</text>
    </g>
    <g>
     <circle stroke="black" stroke-width="0.5" fill="#aaffff" cx="242.0" cy="142.0" r="1.0"/>
     <text stroke="none" x="242.0" y="142.0" font-size="10.0" font-family="helvetica">NT1.13</text>
    </g>
    <g>
     <circle stroke="black" stroke-width="0.5" fill="#aaffff" cx="245.0" cy="442.0" r="1.0"/>
     <text stroke="none" x="245.0" y="442.0" font-size="20.0" font-family="helvetica">Porphyrobacter donghaensis KCTC 122297 (AY559428)</text>
    </g>
    <g>
     <circle stroke="black" stroke-width="0.5" fill="#aaffff" cx="257.0" cy="314.0" r="1.0"/>
     <text stroke="none" x="257.0" y="314.0" font-size="20.0" font-family="helvetica">Erythrobacterlitoralis DSM 8509T (ABO13354)</text>
    </g>
    <g>
     <circle stroke="black" stroke-width="0.5" fill="#aaffff" cx="257.0" cy="47.0" r="1.0"/>
     <text stroke="none" x="257.0" y="47.0" font-size="10.0" font-family="helvetica">NT1.16</text>
    </g>
    <g>
     <circle stroke="black" stroke-width="0.5" fill="#aaffff" cx="265.0" cy="485.0" r="1.0"/>
     <text stroke="none" x="265.0" y="485.0" font-size="20.0" font-family="helvetica">Porphyrobacter neustonensis DSM 9434T (ABO33327)</text>
    </g>
    <g>
     <circle stroke="black" stroke-width="0.5" fill="#aaffff" cx="267.0" cy="527.0" r="1.0"/>
     <text stroke="none" x="267.0" y="527.0" font-size="20.0" font-family="helvetica">Porphyrobacter tepidarius DSM 1O594T (AB033328)</text>
    </g>
    <g>
     <circle stroke="black" stroke-width="0.5" fill="#aaffff" cx="271.0" cy="570.0" r="1.0"/>
     <text stroke="none" x="271.0" y="570.0" font-size="20.0" font-family="helvetica">Porphyrobacter cryptus ATCC BAA-3867 (AF465834)</text>
    </g>
    <g>
     <circle stroke="black" stroke-width="0.5" fill="#aaffff" cx="280.0" cy="228.0" r="1.0"/>
     <text stroke="none" x="280.0" y="228.0" font-size="20.0" font-family="helvetica"/>
    </g>
    <g>
     <circle stroke="black" stroke-width="0.5" fill="#aaffff" cx="285.0" cy="698.0" r="1.0"/>
     <text stroke="none" x="285.0" y="698.0" font-size="20.0" font-family="helvetica">Novosphingobium capsulatum GIFU 11526T (D16147)</text>
    </g>
    <g>
     <circle stroke="black" stroke-width="0.5" fill="#aaffff" cx="290.0" cy="357.0" r="1.0"/>
     <text stroke="none" x="290.0" y="357.0" font-size="20.0" font-family="helvetica">Erythromicrobium ramosum DSM 8510T (ABO13355)</text>
    </g>
    <g>
     <circle stroke="black" stroke-width="0.5" fill="#aaffff" cx="292.0" cy="741.0" r="1.0"/>
     <text stroke="none" x="292.0" y="741.0" font-size="20.0" font-family="helvetica">Sandaracinobacter sibiricus RB 1 6-1 7T (Y10678)</text>
    </g>
    <g>
     <circle stroke="black" stroke-width="0.5" fill="#aaffff" cx="293.0" cy="400.0" r="1.0"/>
     <text stroke="none" x="293.0" y="400.0" font-size="20.0" font-family="helvetica">Porphyrobacter sanguineus IAM 126207 (AB021493)</text>
    </g>
    <g>
     <circle stroke="black" stroke-width="0.5" fill="#aaffff" cx="299.0" cy="101.0" r="1.0"/>
     <text stroke="none" x="299.0" y="101.0" font-size="20.0" font-family="helvetica">Erythrobacter citreus CIP 107092T (AF118020)</text>
    </g>
    <g>
     <circle stroke="black" stroke-width="0.5" fill="#aaffff" cx="302.0" cy="143.0" r="1.0"/>
     <text stroke="none" x="302.0" y="143.0" font-size="20.0" font-family="helvetica">Erythrobacter aquimaris KCCM 41818T (AY461441)</text>
    </g>
    <g>
     <circle stroke="black" stroke-width="0.5" fill="#aaffff" cx="312.0" cy="272.0" r="1.0"/>
     <text stroke="none" x="312.0" y="272.0" font-size="20.0" font-family="helvetica"> Erythrobacter flavus KCCM 41642T (AF500004)</text>
    </g>
    <g>
     <circle stroke="black" stroke-width="0.5" fill="#aaffff" cx="316.0" cy="58.0" r="1.0"/>
     <text stroke="none" x="316.0" y="58.0" font-size="20.0" font-family="helvetica">Erythrobacter seohaensis SW-1 35T (AY562219)</text>
    </g>
    <g>
     <circle stroke="black" stroke-width="0.5" fill="#aaffff" cx="351.0" cy="186.0" r="1.0"/>
     <text stroke="none" x="351.0" y="186.0" font-size="20.0" font-family="helvetica">Erythrobacter Iongus ATCC 33941T (L01786)</text>
    </g>
    <g>
     <circle stroke="black" stroke-width="0.5" fill="#aaffff" cx="380.0" cy="612.0" r="1.0"/>
     <text stroke="none" x="380.0" y="612.0" font-size="20.0" font-family="helvetica">Sphingomonas paucimobilis IFO 13935T (D13725)</text>
    </g>
    <g>
     <circle stroke="black" stroke-width="0.5" fill="#aaffff" cx="384.0" cy="655.0" r="1.0"/>
     <text stroke="none" x="384.0" y="655.0" font-size="20.0" font-family="helvetica">Sphingobium yanoikuyae IFO 15102T (D13728)</text>
    </g>
    <g>
     <circle stroke="black" stroke-width="0.5" fill="#aaffff" cx="471.0" cy="15.0" r="1.0"/>
     <text stroke="none" x="471.0" y="15.0" font-size="20.0" font-family="helvetica">Erythrobacter luteolus SW-1097 (AY739662)</text>
    </g>
    <g>
     <circle stroke="black" stroke-width="0.5" fill="#aaffff" cx="618.0" cy="784.0" r="1.0"/>
     <text stroke="none" x="618.0" y="784.0" font-size="20.0" font-family="helvetica">Rhodospirillum rubrum ATCC 111707 (D30778)</text>
    </g>
    <line stroke="black" x1="316.0" y1="58.0" x2="257.0" y2="47.0" stroke-width="0.5"/>
    <line stroke="black" x1="302.0" y1="143.0" x2="242.0" y2="142.0" stroke-width="0.5"/>
    <line stroke="black" x1="351.0" y1="186.0" x2="242.0" y2="142.0" stroke-width="0.5"/>
    <line stroke="black" x1="280.0" y1="228.0" x2="236.0" y2="250.0" stroke-width="0.5"/>
    <line stroke="black" x1="257.0" y1="314.0" x2="199.0" y2="208.0" stroke-width="0.5"/>
    <line stroke="black" x1="207.0" y1="476.0" x2="199.0" y2="488.0" stroke-width="0.5"/>
    <line stroke="black" x1="207.0" y1="472.0" x2="209.0" y2="470.0" stroke-width="0.5"/>
    <line stroke="black" x1="271.0" y1="570.0" x2="199.0" y2="488.0" stroke-width="0.5"/>
    <line stroke="black" x1="293.0" y1="400.0" x2="234.0" y2="387.0" stroke-width="0.5"/>
    <line stroke="black" x1="285.0" y1="698.0" x2="120.0" y2="698.0" stroke-width="0.5"/>
    <line stroke="black" x1="380.0" y1="612.0" x2="170.0" y2="635.0" stroke-width="0.5"/>
    <line stroke="black" x1="292.0" y1="741.0" x2="29.0" y2="650.0" stroke-width="0.5"/>
    <line stroke="black" x1="618.0" y1="784.0" x2="29.0" y2="650.0" stroke-width="0.5"/>
    <line stroke="black" x1="257.0" y1="47.0" x2="242.0" y2="142.0" stroke-width="0.5"/>
    <line stroke="black" x1="242.0" y1="142.0" x2="199.0" y2="208.0" stroke-width="0.5"/>
    <line stroke="black" x1="199.0" y1="208.0" x2="236.0" y2="250.0" stroke-width="0.5"/>
    <line stroke="black" x1="199.0" y1="208.0" x2="179.0" y2="332.0" stroke-width="0.5"/>
    <line stroke="black" x1="179.0" y1="332.0" x2="29.0" y2="650.0" stroke-width="0.5"/>
    <line stroke="black" x1="179.0" y1="332.0" x2="199.0" y2="488.0" stroke-width="0.5"/>
    <line stroke="black" x1="199.0" y1="488.0" x2="209.0" y2="470.0" stroke-width="0.5"/>
    <line stroke="black" x1="199.0" y1="488.0" x2="209.0" y2="470.0" stroke-width="0.5"/>
    <line stroke="black" x1="199.0" y1="488.0" x2="223.0" y2="448.0" stroke-width="0.5"/>
    <line stroke="black" x1="29.0" y1="650.0" x2="120.0" y2="698.0" stroke-width="0.5"/>
    <line stroke="black" x1="223.0" y1="448.0" x2="234.0" y2="387.0" stroke-width="0.5"/>
    <line stroke="black" x1="120.0" y1="698.0" x2="170.0" y2="635.0" stroke-width="0.5"/>
    <line stroke="black" x1="384.0" y1="655.0" x2="170.0" y2="635.0" stroke-width="0.5"/>
    <line stroke="black" x1="267.0" y1="527.0" x2="199.0" y2="488.0" stroke-width="0.5"/>
    <line stroke="black" x1="245.0" y1="442.0" x2="234.0" y2="387.0" stroke-width="0.5"/>
    <line stroke="black" x1="265.0" y1="485.0" x2="223.0" y2="448.0" stroke-width="0.5"/>
    <line stroke="black" x1="290.0" y1="357.0" x2="234.0" y2="387.0" stroke-width="0.5"/>
    <line stroke="black" x1="312.0" y1="272.0" x2="236.0" y2="250.0" stroke-width="0.5"/>
    <line stroke="black" x1="299.0" y1="101.0" x2="257.0" y2="47.0" stroke-width="0.5"/>
    <line stroke="black" x1="471.0" y1="15.0" x2="257.0" y2="47.0" stroke-width="0.5"/>
   </g>
  </g>
 </svg>
</svg>
