<?xml version="1.0" encoding="UTF-8"?>
<svg height="800.0" width="700.0" xmlns="http://www.w3.org/2000/svg">
 <svg>
  <g>
   <g>
    <g>
     <circle stroke="black" stroke-width="0.5" fill="#aaffff" cx="66.0" cy="433.0" r="1.0"/>
     <text stroke="none" x="66.0" y="433.0" font-size="10.0" font-family="helvetica">NT1.1</text>
    </g>
    <g>
     <circle stroke="black" stroke-width="0.5" fill="#aaffff" cx="76.0" cy="521.0" r="1.0"/>
     <text stroke="none" x="76.0" y="521.0" font-size="10.0" font-family="helvetica">NT1.2</text>
    </g>
    <g>
     <circle stroke="black" stroke-width="0.5" fill="#aaffff" cx="79.0" cy="342.0" r="1.0"/>
     <text stroke="none" x="79.0" y="342.0" font-size="10.0" font-family="helvetica">NT1.3</text>
    </g>
    <g>
     <circle stroke="black" stroke-width="0.5" fill="#aaffff" cx="84.0" cy="515.0" r="1.0"/>
     <text stroke="none" x="84.0" y="515.0" font-size="10.0" font-family="helvetica">NT1.4</text>
    </g>
    <g>
     <circle stroke="black" stroke-width="0.5" fill="#aaffff" cx="84.0" cy="529.0" r="1.0"/>
     <text stroke="none" x="84.0" y="529.0" font-size="10.0" font-family="helvetica">NT1.5</text>
    </g>
    <g>
     <circle stroke="black" stroke-width="0.5" fill="#aaffff" cx="87.0" cy="298.0" r="1.0"/>
     <text stroke="none" x="87.0" y="298.0" font-size="10.0" font-family="helvetica">NT1.6</text>
    </g>
    <g>
     <circle stroke="black" stroke-width="0.5" fill="#aaffff" cx="87.0" cy="348.0" r="1.0"/>
     <text stroke="none" x="87.0" y="348.0" font-size="10.0" font-family="helvetica">NT1.7</text>
    </g>
    <g>
     <circle stroke="black" stroke-width="0.5" fill="#aaffff" cx="129.0" cy="433.0" r="1.0"/>
     <text stroke="none" x="129.0" y="433.0" font-size="20.0" font-family="helvetica"/>
    </g>
    <g>
     <circle stroke="black" stroke-width="0.5" fill="#aaffff" cx="141.0" cy="213.0" r="1.0"/>
     <text stroke="none" x="141.0" y="213.0" font-size="10.0" font-family="helvetica">NT1.9</text>
    </g>
    <g>
     <circle stroke="black" stroke-width="0.5" fill="#aaffff" cx="141.0" cy="401.0" r="1.0"/>
     <text stroke="none" x="141.0" y="401.0" font-size="10.0" font-family="helvetica">NT1.10</text>
    </g>
    <g>
     <circle stroke="black" stroke-width="0.5" fill="#aaffff" cx="156.0" cy="119.0" r="1.0"/>
     <text stroke="none" x="156.0" y="119.0" font-size="10.0" font-family="helvetica">NT1.11</text>
    </g>
    <g>
     <circle stroke="black" stroke-width="0.5" fill="#aaffff" cx="174.0" cy="72.0" r="1.0"/>
     <text stroke="none" x="174.0" y="72.0" font-size="20.0" font-family="helvetica">sow</text>
    </g>
    <g>
     <circle stroke="black" stroke-width="0.5" fill="#aaffff" cx="182.0" cy="108.0" r="1.0"/>
     <text stroke="none" x="182.0" y="108.0" font-size="10.0" font-family="helvetica">NT1.13</text>
    </g>
    <g>
     <circle stroke="black" stroke-width="0.5" fill="#aaffff" cx="183.0" cy="400.0" r="1.0"/>
     <text stroke="none" x="183.0" y="400.0" font-size="20.0" font-family="helvetica"/>
    </g>
    <g>
     <circle stroke="black" stroke-width="0.5" fill="#aaffff" cx="189.0" cy="98.0" r="1.0"/>
     <text stroke="none" x="189.0" y="98.0" font-size="10.0" font-family="helvetica">NT1.15</text>
    </g>
    <g>
     <circle stroke="black" stroke-width="0.5" fill="#aaffff" cx="189.0" cy="116.0" r="1.0"/>
     <text stroke="none" x="189.0" y="116.0" font-size="10.0" font-family="helvetica">NT1.16</text>
    </g>
    <g>
     <circle stroke="black" stroke-width="0.5" fill="#aaffff" cx="192.0" cy="373.0" r="1.0"/>
     <text stroke="none" x="192.0" y="373.0" font-size="10.0" font-family="helvetica">NT1.17</text>
    </g>
    <g>
     <circle stroke="black" stroke-width="0.5" fill="#aaffff" cx="197.0" cy="372.0" r="1.0"/>
     <text stroke="none" x="197.0" y="372.0" font-size="20.0" font-family="helvetica"/>
    </g>
    <g>
     <circle stroke="black" stroke-width="0.5" fill="#aaffff" cx="208.0" cy="14.0" r="1.0"/>
     <text stroke="none" x="208.0" y="14.0" font-size="20.0" font-family="helvetica">Hydrogenophaga def7uvii BSB 9.5T (AJ585993)</text>
    </g>
    <g>
     <circle stroke="black" stroke-width="0.5" fill="#aaffff" cx="208.0" cy="34.0" r="1.0"/>
     <text stroke="none" x="208.0" y="34.0" font-size="10.0" font-family="helvetica">NT1.20</text>
    </g>
    <g>
     <circle stroke="black" stroke-width="0.5" fill="#aaffff" cx="209.0" cy="53.0" r="1.0"/>
     <text stroke="none" x="209.0" y="53.0" font-size="20.0" font-family="helvetica">Hydrogenophaga atypica BSB 41 .8T (AJ585992)</text>
    </g>
    <g>
     <circle stroke="black" stroke-width="0.5" fill="#aaffff" cx="213.0" cy="34.0" r="1.0"/>
     <text stroke="none" x="213.0" y="34.0" font-size="20.0" font-family="helvetica"/>
    </g>
    <g>
     <circle stroke="black" stroke-width="0.5" fill="#aaffff" cx="213.0" cy="316.0" r="1.0"/>
     <text stroke="none" x="213.0" y="316.0" font-size="20.0" font-family="helvetica">Hydrogenophaga caeni EMB71T (DQ372983)</text>
    </g>
    <g>
     <circle stroke="black" stroke-width="0.5" fill="#aaffff" cx="217.0" cy="213.0" r="1.0"/>
     <text stroke="none" x="217.0" y="213.0" font-size="10.0" font-family="helvetica">NT1.24</text>
    </g>
    <g>
     <circle stroke="black" stroke-width="0.5" fill="#aaffff" cx="232.0" cy="90.0" r="1.0"/>
     <text stroke="none" x="232.0" y="90.0" font-size="20.0" font-family="helvetica"/>
    </g>
    <g>
     <circle stroke="black" stroke-width="0.5" fill="#aaffff" cx="240.0" cy="241.0" r="1.0"/>
     <text stroke="none" x="240.0" y="241.0" font-size="20.0" font-family="helvetica">Hydrogenophaga flava CCUG 16587 (AF078771)</text>
    </g>
    <g>
     <circle stroke="black" stroke-width="0.5" fill="#aaffff" cx="241.0" cy="466.0" r="1.0"/>
     <text stroke="none" x="241.0" y="466.0" font-size="20.0" font-family="helvetica">Xenophilus azovorans KF46FT (AF285414)</text>
    </g>
    <g>
     <circle stroke="black" stroke-width="0.5" fill="#aaffff" cx="246.0" cy="278.0" r="1.0"/>
     <text stroke="none" x="246.0" y="278.0" font-size="20.0" font-family="helvetica">Hydrogenophaga bisanensis K1027 (EF532793)</text>
    </g>
    <g>
     <circle stroke="black" stroke-width="0.5" fill="#aaffff" cx="250.0" cy="165.0" r="1.0"/>
     <text stroke="none" x="250.0" y="165.0" font-size="20.0" font-family="helvetica">Hydrogenophaga intermedia S17 (AF019037)</text>
    </g>
    <g>
     <circle stroke="black" stroke-width="0.5" fill="#aaffff" cx="251.0" cy="541.0" r="1.0"/>
     <text stroke="none" x="251.0" y="541.0" font-size="20.0" font-family="helvetica">Brachymonas denitrificans JCM 9216T (D14320)</text>
    </g>
    <g>
     <circle stroke="black" stroke-width="0.5" fill="#aaffff" cx="255.0" cy="128.0" r="1.0"/>
     <text stroke="none" x="255.0" y="128.0" font-size="20.0" font-family="helvetica">Hydrogenophaga taeniospiralis ATCC 49743T (AF078768)</text>
    </g>
    <g>
     <circle stroke="black" stroke-width="0.5" fill="#aaffff" cx="255.0" cy="203.0" r="1.0"/>
     <text stroke="none" x="255.0" y="203.0" font-size="20.0" font-family="helvetica">Hydrogenophaga pseudoflava ATCC 336687 (AF078770)</text>
    </g>
    <g>
     <circle stroke="black" stroke-width="0.5" fill="#aaffff" cx="259.0" cy="429.0" r="1.0"/>
     <text stroke="none" x="259.0" y="429.0" font-size="20.0" font-family="helvetica">Xylophilus ampelinus ATCC 33914T (AF078758)</text>
    </g>
    <g>
     <circle stroke="black" stroke-width="0.5" fill="#aaffff" cx="280.0" cy="504.0" r="1.0"/>
     <text stroke="none" x="280.0" y="504.0" font-size="20.0" font-family="helvetica">Comamonas terrigena IMI 3598707 (AF078772)</text>
    </g>
    <g>
     <circle stroke="black" stroke-width="0.5" fill="#aaffff" cx="285.0" cy="353.0" r="1.0"/>
     <text stroke="none" x="285.0" y="353.0" font-size="20.0" font-family="helvetica">Variovorax paradoxus IAM 123737 (D30793)</text>
    </g>
    <g>
     <circle stroke="black" stroke-width="0.5" fill="#aaffff" cx="392.0" cy="391.0" r="1.0"/>
     <text stroke="none" x="392.0" y="391.0" font-size="20.0" font-family="helvetica">Polaromonas vacuolata ATCC 51984T (U14585)</text>
    </g>
    <g>
     <circle stroke="black" stroke-width="0.5" fill="#aaffff" cx="496.0" cy="595.0" r="1.0"/>
     <text stroke="none" x="496.0" y="595.0" font-size="20.0" font-family="helvetica"/>
    </g>
    <line stroke="black" x1="208.0" y1="14.0" x2="208.0" y2="34.0" stroke-width="0.5"/>
    <line stroke="black" x1="213.0" y1="34.0" x2="208.0" y2="34.0" stroke-width="0.5"/>
    <line stroke="black" x1="232.0" y1="90.0" x2="189.0" y2="98.0" stroke-width="0.5"/>
    <line stroke="black" x1="250.0" y1="165.0" x2="156.0" y2="119.0" stroke-width="0.5"/>
    <line stroke="black" x1="246.0" y1="278.0" x2="141.0" y2="213.0" stroke-width="0.5"/>
    <line stroke="black" x1="255.0" y1="203.0" x2="217.0" y2="213.0" stroke-width="0.5"/>
    <line stroke="black" x1="129.0" y1="433.0" x2="141.0" y2="401.0" stroke-width="0.5"/>
    <line stroke="black" x1="183.0" y1="400.0" x2="141.0" y2="401.0" stroke-width="0.5"/>
    <line stroke="black" x1="197.0" y1="372.0" x2="192.0" y2="373.0" stroke-width="0.5"/>
    <line stroke="black" x1="285.0" y1="353.0" x2="192.0" y2="373.0" stroke-width="0.5"/>
    <line stroke="black" x1="251.0" y1="541.0" x2="84.0" y2="529.0" stroke-width="0.5"/>
    <line stroke="black" x1="208.0" y1="34.0" x2="174.0" y2="72.0" stroke-width="0.5"/>
    <line stroke="black" x1="208.0" y1="34.0" x2="209.0" y2="53.0" stroke-width="0.5"/>
    <line stroke="black" x1="174.0" y1="72.0" x2="156.0" y2="119.0" stroke-width="0.5"/>
    <line stroke="black" x1="174.0" y1="72.0" x2="182.0" y2="108.0" stroke-width="0.5"/>
    <line stroke="black" x1="182.0" y1="108.0" x2="189.0" y2="116.0" stroke-width="0.5"/>
    <line stroke="black" x1="182.0" y1="108.0" x2="189.0" y2="98.0" stroke-width="0.5"/>
    <line stroke="black" x1="156.0" y1="119.0" x2="141.0" y2="213.0" stroke-width="0.5"/>
    <line stroke="black" x1="141.0" y1="213.0" x2="87.0" y2="298.0" stroke-width="0.5"/>
    <line stroke="black" x1="141.0" y1="213.0" x2="217.0" y2="213.0" stroke-width="0.5"/>
    <line stroke="black" x1="87.0" y1="298.0" x2="79.0" y2="342.0" stroke-width="0.5"/>
    <line stroke="black" x1="79.0" y1="342.0" x2="66.0" y2="433.0" stroke-width="0.5"/>
    <line stroke="black" x1="79.0" y1="342.0" x2="87.0" y2="348.0" stroke-width="0.5"/>
    <line stroke="black" x1="87.0" y1="348.0" x2="141.0" y2="401.0" stroke-width="0.5"/>
    <line stroke="black" x1="66.0" y1="433.0" x2="76.0" y2="521.0" stroke-width="0.5"/>
    <line stroke="black" x1="141.0" y1="401.0" x2="192.0" y2="373.0" stroke-width="0.5"/>
    <line stroke="black" x1="76.0" y1="521.0" x2="84.0" y2="529.0" stroke-width="0.5"/>
    <line stroke="black" x1="76.0" y1="521.0" x2="84.0" y2="515.0" stroke-width="0.5"/>
    <line stroke="black" x1="496.0" y1="595.0" x2="66.0" y2="433.0" stroke-width="0.5"/>
    <line stroke="black" x1="84.0" y1="515.0" x2="84.0" y2="529.0" stroke-width="0.5"/>
    <line stroke="black" x1="87.0" y1="298.0" x2="87.0" y2="348.0" stroke-width="0.5"/>
    <line stroke="black" x1="213.0" y1="316.0" x2="141.0" y2="213.0" stroke-width="0.5"/>
    <line stroke="black" x1="280.0" y1="504.0" x2="84.0" y2="515.0" stroke-width="0.5"/>
    <line stroke="black" x1="241.0" y1="466.0" x2="141.0" y2="401.0" stroke-width="0.5"/>
    <line stroke="black" x1="189.0" y1="98.0" x2="189.0" y2="116.0" stroke-width="0.5"/>
    <line stroke="black" x1="259.0" y1="429.0" x2="141.0" y2="401.0" stroke-width="0.5"/>
    <line stroke="black" x1="255.0" y1="128.0" x2="189.0" y2="116.0" stroke-width="0.5"/>
    <line stroke="black" x1="240.0" y1="241.0" x2="217.0" y2="213.0" stroke-width="0.5"/>
    <line stroke="black" x1="392.0" y1="391.0" x2="192.0" y2="373.0" stroke-width="0.5"/>
   </g>
  </g>
 </svg>
</svg>
