<?xml version="1.0" encoding="UTF-8"?>
<svg height="800.0" width="700.0" xmlns="http://www.w3.org/2000/svg">
 <svg>
  <g>
   <g>
    <g>
     <circle stroke="black" stroke-width="0.5" fill="#aaffff" cx="4.0" cy="353.0" r="1.0"/>
     <text stroke="none" x="4.0" y="353.0" font-size="20.0" font-family="helvetica"/>
    </g>
    <g>
     <circle stroke="black" stroke-width="0.5" fill="#aaffff" cx="10.0" cy="353.0" r="1.0"/>
     <text stroke="none" x="10.0" y="353.0" font-size="10.0" font-family="helvetica">NT1.2</text>
    </g>
    <g>
     <circle stroke="black" stroke-width="0.5" fill="#aaffff" cx="96.0" cy="1005.0" r="1.0"/>
     <text stroke="none" x="96.0" y="1005.0" font-size="10.0" font-family="helvetica">NT1.3</text>
    </g>
    <g>
     <circle stroke="black" stroke-width="0.5" fill="#aaffff" cx="159.0" cy="577.0" r="1.0"/>
     <text stroke="none" x="159.0" y="577.0" font-size="10.0" font-family="helvetica">NT1.4</text>
    </g>
    <g>
     <circle stroke="black" stroke-width="0.5" fill="#aaffff" cx="181.0" cy="1169.0" r="1.0"/>
     <text stroke="none" x="181.0" y="1169.0" font-size="20.0" font-family="helvetica">700</text>
    </g>
    <g>
     <circle stroke="black" stroke-width="0.5" fill="#aaffff" cx="209.0" cy="132.0" r="1.0"/>
     <text stroke="none" x="209.0" y="132.0" font-size="10.0" font-family="helvetica">NT1.6</text>
    </g>
    <g>
     <circle stroke="black" stroke-width="0.5" fill="#aaffff" cx="209.0" cy="135.0" r="1.0"/>
     <text stroke="none" x="209.0" y="135.0" font-size="10.0" font-family="helvetica">NT1.7</text>
    </g>
    <g>
     <circle stroke="black" stroke-width="0.5" fill="#aaffff" cx="215.0" cy="248.0" r="1.0"/>
     <text stroke="none" x="215.0" y="248.0" font-size="10.0" font-family="helvetica">NT1.8</text>
    </g>
    <g>
     <circle stroke="black" stroke-width="0.5" fill="#aaffff" cx="218.0" cy="1201.0" r="1.0"/>
     <text stroke="none" x="218.0" y="1201.0" font-size="20.0" font-family="helvetica">Pigmentiphaga daeguensis K1 107 (EF100696)</text>
    </g>
    <g>
     <circle stroke="black" stroke-width="0.5" fill="#aaffff" cx="218.0" cy="1198.0" r="1.0"/>
     <text stroke="none" x="218.0" y="1198.0" font-size="10.0" font-family="helvetica">NT1.10</text>
    </g>
    <g>
     <circle stroke="black" stroke-width="0.5" fill="#aaffff" cx="225.0" cy="1138.0" r="1.0"/>
     <text stroke="none" x="225.0" y="1138.0" font-size="10.0" font-family="helvetica">NT1.11</text>
    </g>
    <g>
     <circle stroke="black" stroke-width="0.5" fill="#aaffff" cx="225.0" cy="1140.0" r="1.0"/>
     <text stroke="none" x="225.0" y="1140.0" font-size="10.0" font-family="helvetica">NT1.12</text>
    </g>
    <g>
     <circle stroke="black" stroke-width="0.5" fill="#aaffff" cx="228.0" cy="1197.0" r="1.0"/>
     <text stroke="none" x="228.0" y="1197.0" font-size="20.0" font-family="helvetica">Pigmentiphaga daeguensis K1 107 (EF100696)</text>
    </g>
    <g>
     <circle stroke="black" stroke-width="0.5" fill="#aaffff" cx="236.0" cy="188.0" r="1.0"/>
     <text stroke="none" x="236.0" y="188.0" font-size="10.0" font-family="helvetica">NT1.14</text>
    </g>
    <g>
     <circle stroke="black" stroke-width="0.5" fill="#aaffff" cx="237.0" cy="191.0" r="1.0"/>
     <text stroke="none" x="237.0" y="191.0" font-size="10.0" font-family="helvetica">NT1.15</text>
    </g>
    <g>
     <circle stroke="black" stroke-width="0.5" fill="#aaffff" cx="240.0" cy="766.0" r="1.0"/>
     <text stroke="none" x="240.0" y="766.0" font-size="20.0" font-family="helvetica">98</text>
    </g>
    <g>
     <circle stroke="black" stroke-width="0.5" fill="#aaffff" cx="242.0" cy="1141.0" r="1.0"/>
     <text stroke="none" x="242.0" y="1141.0" font-size="10.0" font-family="helvetica">NT1.17</text>
    </g>
    <g>
     <circle stroke="black" stroke-width="0.5" fill="#aaffff" cx="250.0" cy="1085.0" r="1.0"/>
     <text stroke="none" x="250.0" y="1085.0" font-size="10.0" font-family="helvetica">NT1.18</text>
    </g>
    <g>
     <circle stroke="black" stroke-width="0.5" fill="#aaffff" cx="255.0" cy="841.0" r="1.0"/>
     <text stroke="none" x="255.0" y="841.0" font-size="10.0" font-family="helvetica">NT1.19</text>
    </g>
    <g>
     <circle stroke="black" stroke-width="0.5" fill="#aaffff" cx="257.0" cy="349.0" r="1.0"/>
     <text stroke="none" x="257.0" y="349.0" font-size="10.0" font-family="helvetica">NT1.20</text>
    </g>
    <g>
     <circle stroke="black" stroke-width="0.5" fill="#aaffff" cx="269.0" cy="571.0" r="1.0"/>
     <text stroke="none" x="269.0" y="571.0" font-size="10.0" font-family="helvetica">NT1.21</text>
    </g>
    <g>
     <circle stroke="black" stroke-width="0.5" fill="#aaffff" cx="271.0" cy="691.0" r="1.0"/>
     <text stroke="none" x="271.0" y="691.0" font-size="10.0" font-family="helvetica">NT1.22</text>
    </g>
    <g>
     <circle stroke="black" stroke-width="0.5" fill="#aaffff" cx="271.0" cy="693.0" r="1.0"/>
     <text stroke="none" x="271.0" y="693.0" font-size="10.0" font-family="helvetica">NT1.23</text>
    </g>
    <g>
     <circle stroke="black" stroke-width="0.5" fill="#aaffff" cx="271.0" cy="907.0" r="1.0"/>
     <text stroke="none" x="271.0" y="907.0" font-size="10.0" font-family="helvetica">NT1.24</text>
    </g>
    <g>
     <circle stroke="black" stroke-width="0.5" fill="#aaffff" cx="274.0" cy="523.0" r="1.0"/>
     <text stroke="none" x="274.0" y="523.0" font-size="10.0" font-family="helvetica">NT1.25</text>
    </g>
    <g>
     <circle stroke="black" stroke-width="0.5" fill="#aaffff" cx="274.0" cy="526.0" r="1.0"/>
     <text stroke="none" x="274.0" y="526.0" font-size="10.0" font-family="helvetica">NT1.26</text>
    </g>
    <g>
     <circle stroke="black" stroke-width="0.5" fill="#aaffff" cx="278.0" cy="858.0" r="1.0"/>
     <text stroke="none" x="278.0" y="858.0" font-size="20.0" font-family="helvetica">Bordetella hinzii LMG 135017 (AF177667)</text>
    </g>
    <g>
     <circle stroke="black" stroke-width="0.5" fill="#aaffff" cx="278.0" cy="860.0" r="1.0"/>
     <text stroke="none" x="278.0" y="860.0" font-size="10.0" font-family="helvetica">NT1.28</text>
    </g>
    <g>
     <circle stroke="black" stroke-width="0.5" fill="#aaffff" cx="279.0" cy="623.0" r="1.0"/>
     <text stroke="none" x="279.0" y="623.0" font-size="20.0" font-family="helvetica">87</text>
    </g>
    <g>
     <circle stroke="black" stroke-width="0.5" fill="#aaffff" cx="280.0" cy="642.0" r="1.0"/>
     <text stroke="none" x="280.0" y="642.0" font-size="10.0" font-family="helvetica">NT1.30</text>
    </g>
    <g>
     <circle stroke="black" stroke-width="0.5" fill="#aaffff" cx="284.0" cy="579.0" r="1.0"/>
     <text stroke="none" x="284.0" y="579.0" font-size="10.0" font-family="helvetica">NT1.31</text>
    </g>
    <g>
     <circle stroke="black" stroke-width="0.5" fill="#aaffff" cx="285.0" cy="582.0" r="1.0"/>
     <text stroke="none" x="285.0" y="582.0" font-size="10.0" font-family="helvetica">NT1.32</text>
    </g>
    <g>
     <circle stroke="black" stroke-width="0.5" fill="#aaffff" cx="289.0" cy="637.0" r="1.0"/>
     <text stroke="none" x="289.0" y="637.0" font-size="10.0" font-family="helvetica">NT1.33</text>
    </g>
    <g>
     <circle stroke="black" stroke-width="0.5" fill="#aaffff" cx="290.0" cy="191.0" r="1.0"/>
     <text stroke="none" x="290.0" y="191.0" font-size="20.0" font-family="helvetica">Parapusillimonas granuli Ch077 (DQ466075)</text>
    </g>
    <g>
     <circle stroke="black" stroke-width="0.5" fill="#aaffff" cx="290.0" cy="861.0" r="1.0"/>
     <text stroke="none" x="290.0" y="861.0" font-size="20.0" font-family="helvetica">Bordetella hinzii LMG 135017 (AF177667)</text>
    </g>
    <g>
     <circle stroke="black" stroke-width="0.5" fill="#aaffff" cx="291.0" cy="299.0" r="1.0"/>
     <text stroke="none" x="291.0" y="299.0" font-size="10.0" font-family="helvetica">NT1.36</text>
    </g>
    <g>
     <circle stroke="black" stroke-width="0.5" fill="#aaffff" cx="291.0" cy="303.0" r="1.0"/>
     <text stroke="none" x="291.0" y="303.0" font-size="10.0" font-family="helvetica">NT1.37</text>
    </g>
    <g>
     <circle stroke="black" stroke-width="0.5" fill="#aaffff" cx="293.0" cy="527.0" r="1.0"/>
     <text stroke="none" x="293.0" y="527.0" font-size="10.0" font-family="helvetica">NT1.38</text>
    </g>
    <g>
     <circle stroke="black" stroke-width="0.5" fill="#aaffff" cx="296.0" cy="746.0" r="1.0"/>
     <text stroke="none" x="296.0" y="746.0" font-size="20.0" font-family="helvetica">Bordetella avium ATCC 350867 (U04947)</text>
    </g>
    <g>
     <circle stroke="black" stroke-width="0.5" fill="#aaffff" cx="298.0" cy="779.0" r="1.0"/>
     <text stroke="none" x="298.0" y="779.0" font-size="20.0" font-family="helvetica">98</text>
    </g>
    <g>
     <circle stroke="black" stroke-width="0.5" fill="#aaffff" cx="300.0" cy="582.0" r="1.0"/>
     <text stroke="none" x="300.0" y="582.0" font-size="10.0" font-family="helvetica">NT1.41</text>
    </g>
    <g>
     <circle stroke="black" stroke-width="0.5" fill="#aaffff" cx="301.0" cy="809.0" r="1.0"/>
     <text stroke="none" x="301.0" y="809.0" font-size="10.0" font-family="helvetica">NT1.42</text>
    </g>
    <g>
     <circle stroke="black" stroke-width="0.5" fill="#aaffff" cx="302.0" cy="956.0" r="1.0"/>
     <text stroke="none" x="302.0" y="956.0" font-size="20.0" font-family="helvetica">99</text>
    </g>
    <g>
     <circle stroke="black" stroke-width="0.5" fill="#aaffff" cx="303.0" cy="1032.0" r="1.0"/>
     <text stroke="none" x="303.0" y="1032.0" font-size="10.0" font-family="helvetica">NT1.44</text>
    </g>
    <g>
     <circle stroke="black" stroke-width="0.5" fill="#aaffff" cx="304.0" cy="1002.0" r="1.0"/>
     <text stroke="none" x="304.0" y="1002.0" font-size="10.0" font-family="helvetica">NT1.45</text>
    </g>
    <g>
     <circle stroke="black" stroke-width="0.5" fill="#aaffff" cx="306.0" cy="1002.0" r="1.0"/>
     <text stroke="none" x="306.0" y="1002.0" font-size="10.0" font-family="helvetica">NT1.46</text>
    </g>
    <g>
     <circle stroke="black" stroke-width="0.5" fill="#aaffff" cx="312.0" cy="915.0" r="1.0"/>
     <text stroke="none" x="312.0" y="915.0" font-size="20.0" font-family="helvetica">Bordetella holmesii CDC F51017 (UO4820)</text>
    </g>
    <g>
     <circle stroke="black" stroke-width="0.5" fill="#aaffff" cx="312.0" cy="918.0" r="1.0"/>
     <text stroke="none" x="312.0" y="918.0" font-size="10.0" font-family="helvetica">NT1.48</text>
    </g>
    <g>
     <circle stroke="black" stroke-width="0.5" fill="#aaffff" cx="314.0" cy="806.0" r="1.0"/>
     <text stroke="none" x="314.0" y="806.0" font-size="10.0" font-family="helvetica">NT1.49</text>
    </g>
    <g>
     <circle stroke="black" stroke-width="0.5" fill="#aaffff" cx="316.0" cy="398.0" r="1.0"/>
     <text stroke="none" x="316.0" y="398.0" font-size="10.0" font-family="helvetica">NT1.50</text>
    </g>
    <g>
     <circle stroke="black" stroke-width="0.5" fill="#aaffff" cx="317.0" cy="694.0" r="1.0"/>
     <text stroke="none" x="317.0" y="694.0" font-size="10.0" font-family="helvetica">NT1.51</text>
    </g>
    <g>
     <circle stroke="black" stroke-width="0.5" fill="#aaffff" cx="325.0" cy="750.0" r="1.0"/>
     <text stroke="none" x="325.0" y="750.0" font-size="20.0" font-family="helvetica">Bordetella avium ATCC 350867 (U04947)</text>
    </g>
    <g>
     <circle stroke="black" stroke-width="0.5" fill="#aaffff" cx="332.0" cy="442.0" r="1.0"/>
     <text stroke="none" x="332.0" y="442.0" font-size="10.0" font-family="helvetica">NT1.53</text>
    </g>
    <g>
     <circle stroke="black" stroke-width="0.5" fill="#aaffff" cx="334.0" cy="355.0" r="1.0"/>
     <text stroke="none" x="334.0" y="355.0" font-size="10.0" font-family="helvetica">NT1.54</text>
    </g>
    <g>
     <circle stroke="black" stroke-width="0.5" fill="#aaffff" cx="335.0" cy="358.0" r="1.0"/>
     <text stroke="none" x="335.0" y="358.0" font-size="10.0" font-family="helvetica">NT1.55</text>
    </g>
    <g>
     <circle stroke="black" stroke-width="0.5" fill="#aaffff" cx="341.0" cy="918.0" r="1.0"/>
     <text stroke="none" x="341.0" y="918.0" font-size="20.0" font-family="helvetica">Bordetella holmesii CDC F51017 (UO4820)</text>
    </g>
    <g>
     <circle stroke="black" stroke-width="0.5" fill="#aaffff" cx="350.0" cy="474.0" r="1.0"/>
     <text stroke="none" x="350.0" y="474.0" font-size="10.0" font-family="helvetica">NT1.57</text>
    </g>
    <g>
     <circle stroke="black" stroke-width="0.5" fill="#aaffff" cx="364.0" cy="411.0" r="1.0"/>
     <text stroke="none" x="364.0" y="411.0" font-size="10.0" font-family="helvetica">NT1.58</text>
    </g>
    <g>
     <circle stroke="black" stroke-width="0.5" fill="#aaffff" cx="364.0" cy="415.0" r="1.0"/>
     <text stroke="none" x="364.0" y="415.0" font-size="10.0" font-family="helvetica">NT1.59</text>
    </g>
    <g>
     <circle stroke="black" stroke-width="0.5" fill="#aaffff" cx="368.0" cy="304.0" r="1.0"/>
     <text stroke="none" x="368.0" y="304.0" font-size="10.0" font-family="helvetica">NT1.60</text>
    </g>
    <g>
     <circle stroke="black" stroke-width="0.5" fill="#aaffff" cx="371.0" cy="247.0" r="1.0"/>
     <text stroke="none" x="371.0" y="247.0" font-size="10.0" font-family="helvetica">NT1.61</text>
    </g>
    <g>
     <circle stroke="black" stroke-width="0.5" fill="#aaffff" cx="371.0" cy="469.0" r="1.0"/>
     <text stroke="none" x="371.0" y="469.0" font-size="10.0" font-family="helvetica">NT1.62</text>
    </g>
    <g>
     <circle stroke="black" stroke-width="0.5" fill="#aaffff" cx="379.0" cy="358.0" r="1.0"/>
     <text stroke="none" x="379.0" y="358.0" font-size="10.0" font-family="helvetica">NT1.63</text>
    </g>
    <g>
     <circle stroke="black" stroke-width="0.5" fill="#aaffff" cx="399.0" cy="470.0" r="1.0"/>
     <text stroke="none" x="399.0" y="470.0" font-size="20.0" font-family="helvetica">Pusillimonas ginsengisoli DCY257 (EF672088)</text>
    </g>
    <g>
     <circle stroke="black" stroke-width="0.5" fill="#aaffff" cx="413.0" cy="135.0" r="1.0"/>
     <text stroke="none" x="413.0" y="135.0" font-size="20.0" font-family="helvetica">Derxia gummosa IAM 139467 (ABO89482)</text>
    </g>
    <g>
     <circle stroke="black" stroke-width="0.5" fill="#aaffff" cx="413.0" cy="415.0" r="1.0"/>
     <text stroke="none" x="413.0" y="415.0" font-size="20.0" font-family="helvetica">Pusillimonas harenae B2017 (GO232740)</text>
    </g>
    <line stroke="black" x1="4.0" y1="353.0" x2="10.0" y2="353.0" stroke-width="0.5"/>
    <line stroke="black" x1="413.0" y1="135.0" x2="209.0" y2="135.0" stroke-width="0.5"/>
    <line stroke="black" x1="218.0" y1="1201.0" x2="218.0" y2="1198.0" stroke-width="0.5"/>
    <line stroke="black" x1="228.0" y1="1197.0" x2="218.0" y2="1198.0" stroke-width="0.5"/>
    <line stroke="black" x1="290.0" y1="191.0" x2="237.0" y2="191.0" stroke-width="0.5"/>
    <line stroke="black" x1="278.0" y1="860.0" x2="278.0" y2="858.0" stroke-width="0.5"/>
    <line stroke="black" x1="296.0" y1="746.0" x2="298.0" y2="779.0" stroke-width="0.5"/>
    <line stroke="black" x1="290.0" y1="861.0" x2="278.0" y2="860.0" stroke-width="0.5"/>
    <line stroke="black" x1="325.0" y1="750.0" x2="298.0" y2="779.0" stroke-width="0.5"/>
    <line stroke="black" x1="399.0" y1="470.0" x2="371.0" y2="469.0" stroke-width="0.5"/>
    <line stroke="black" x1="312.0" y1="918.0" x2="312.0" y2="915.0" stroke-width="0.5"/>
    <line stroke="black" x1="413.0" y1="415.0" x2="364.0" y2="415.0" stroke-width="0.5"/>
    <line stroke="black" x1="341.0" y1="918.0" x2="312.0" y2="918.0" stroke-width="0.5"/>
    <line stroke="black" x1="10.0" y1="353.0" x2="96.0" y2="1005.0" stroke-width="0.5"/>
    <line stroke="black" x1="96.0" y1="1005.0" x2="159.0" y2="577.0" stroke-width="0.5"/>
    <line stroke="black" x1="159.0" y1="577.0" x2="215.0" y2="248.0" stroke-width="0.5"/>
    <line stroke="black" x1="181.0" y1="1169.0" x2="218.0" y2="1198.0" stroke-width="0.5"/>
    <line stroke="black" x1="240.0" y1="766.0" x2="255.0" y2="841.0" stroke-width="0.5"/>
    <line stroke="black" x1="255.0" y1="841.0" x2="271.0" y2="907.0" stroke-width="0.5"/>
    <line stroke="black" x1="255.0" y1="841.0" x2="298.0" y2="779.0" stroke-width="0.5"/>
    <line stroke="black" x1="316.0" y1="398.0" x2="332.0" y2="442.0" stroke-width="0.5"/>
    <line stroke="black" x1="271.0" y1="907.0" x2="278.0" y2="860.0" stroke-width="0.5"/>
    <line stroke="black" x1="302.0" y1="956.0" x2="312.0" y2="918.0" stroke-width="0.5"/>
   </g>
  </g>
 </svg>
</svg>
