<?xml version="1.0" encoding="UTF-8"?>
<svg height="800.0" width="700.0" xmlns="http://www.w3.org/2000/svg">
 <svg>
  <g>
   <g>
    <g>
     <circle stroke="black" stroke-width="0.5" fill="#aaffff" cx="53.0" cy="486.0" r="1.0"/>
     <text stroke="none" x="53.0" y="486.0" font-size="10.0" font-family="helvetica">NT1.1</text>
    </g>
    <g>
     <circle stroke="black" stroke-width="0.5" fill="#aaffff" cx="131.0" cy="917.0" r="1.0"/>
     <text stroke="none" x="131.0" y="917.0" font-size="20.0" font-family="helvetica">97</text>
    </g>
    <g>
     <circle stroke="black" stroke-width="0.5" fill="#aaffff" cx="173.0" cy="280.0" r="1.0"/>
     <text stroke="none" x="173.0" y="280.0" font-size="10.0" font-family="helvetica">NT1.3</text>
    </g>
    <g>
     <circle stroke="black" stroke-width="0.5" fill="#aaffff" cx="226.0" cy="166.0" r="1.0"/>
     <text stroke="none" x="226.0" y="166.0" font-size="20.0" font-family="helvetica">).</text>
    </g>
    <g>
     <circle stroke="black" stroke-width="0.5" fill="#aaffff" cx="234.0" cy="219.0" r="1.0"/>
     <text stroke="none" x="234.0" y="219.0" font-size="20.0" font-family="helvetica">5</text>
    </g>
    <g>
     <circle stroke="black" stroke-width="0.5" fill="#aaffff" cx="265.0" cy="692.0" r="1.0"/>
     <text stroke="none" x="265.0" y="692.0" font-size="10.0" font-family="helvetica">NT1.6</text>
    </g>
    <g>
     <circle stroke="black" stroke-width="0.5" fill="#aaffff" cx="274.0" cy="393.0" r="1.0"/>
     <text stroke="none" x="274.0" y="393.0" font-size="20.0" font-family="helvetica">371</text>
    </g>
    <g>
     <circle stroke="black" stroke-width="0.5" fill="#aaffff" cx="284.0" cy="449.0" r="1.0"/>
     <text stroke="none" x="284.0" y="449.0" font-size="20.0" font-family="helvetica">if</text>
    </g>
    <g>
     <circle stroke="black" stroke-width="0.5" fill="#aaffff" cx="305.0" cy="339.0" r="1.0"/>
     <text stroke="none" x="305.0" y="339.0" font-size="20.0" font-family="helvetica">50</text>
    </g>
    <g>
     <circle stroke="black" stroke-width="0.5" fill="#aaffff" cx="311.0" cy="111.0" r="1.0"/>
     <text stroke="none" x="311.0" y="111.0" font-size="10.0" font-family="helvetica">NT1.10</text>
    </g>
    <g>
     <circle stroke="black" stroke-width="0.5" fill="#aaffff" cx="317.0" cy="189.0" r="1.0"/>
     <text stroke="none" x="317.0" y="189.0" font-size="10.0" font-family="helvetica">NT1.11</text>
    </g>
    <g>
     <circle stroke="black" stroke-width="0.5" fill="#aaffff" cx="318.0" cy="411.0" r="1.0"/>
     <text stroke="none" x="318.0" y="411.0" font-size="20.0" font-family="helvetica">371</text>
    </g>
    <g>
     <circle stroke="black" stroke-width="0.5" fill="#aaffff" cx="329.0" cy="316.0" r="1.0"/>
     <text stroke="none" x="329.0" y="316.0" font-size="20.0" font-family="helvetica">558</text>
    </g>
    <g>
     <circle stroke="black" stroke-width="0.5" fill="#aaffff" cx="331.0" cy="426.0" r="1.0"/>
     <text stroke="none" x="331.0" y="426.0" font-size="20.0" font-family="helvetica">S. castaneus NBRC 1367O7(AB184453)</text>
    </g>
    <g>
     <circle stroke="black" stroke-width="0.5" fill="#aaffff" cx="339.0" cy="394.0" r="1.0"/>
     <text stroke="none" x="339.0" y="394.0" font-size="20.0" font-family="helvetica">S. sioyaensis NBRC 128207 (AB184171)</text>
    </g>
    <g>
     <circle stroke="black" stroke-width="0.5" fill="#aaffff" cx="340.0" cy="299.0" r="1.0"/>
     <text stroke="none" x="340.0" y="299.0" font-size="20.0" font-family="helvetica">S. roseocinereus NBRC 138297 (AB184513)</text>
    </g>
    <g>
     <circle stroke="black" stroke-width="0.5" fill="#aaffff" cx="346.0" cy="362.0" r="1.0"/>
     <text stroke="none" x="346.0" y="362.0" font-size="20.0" font-family="helvetica">S. platensis NBRC 140087 (AB184564)</text>
    </g>
    <g>
     <circle stroke="black" stroke-width="0.5" fill="#aaffff" cx="348.0" cy="171.0" r="1.0"/>
     <text stroke="none" x="348.0" y="171.0" font-size="20.0" font-family="helvetica">S. Iydicus ATCC 254707 (Y15507)</text>
    </g>
    <g>
     <circle stroke="black" stroke-width="0.5" fill="#aaffff" cx="353.0" cy="331.0" r="1.0"/>
     <text stroke="none" x="353.0" y="331.0" font-size="20.0" font-family="helvetica">s. fasiculatus NBRC 127657 (AB184128)</text>
    </g>
    <g>
     <circle stroke="black" stroke-width="0.5" fill="#aaffff" cx="381.0" cy="488.0" r="1.0"/>
     <text stroke="none" x="381.0" y="488.0" font-size="10.0" font-family="helvetica">NT1.20</text>
    </g>
    <g>
     <circle stroke="black" stroke-width="0.5" fill="#aaffff" cx="384.0" cy="204.0" r="1.0"/>
     <text stroke="none" x="384.0" y="204.0" font-size="20.0" font-family="helvetica">S. chattanoogensis DSM 400027 (AJ621611)</text>
    </g>
    <g>
     <circle stroke="black" stroke-width="0.5" fill="#aaffff" cx="411.0" cy="934.0" r="1.0"/>
     <text stroke="none" x="411.0" y="934.0" font-size="20.0" font-family="helvetica">S. violaceusniger NRRL-ISP 55637 (AJ391823)</text>
    </g>
    <g>
     <circle stroke="black" stroke-width="0.5" fill="#aaffff" cx="413.0" cy="489.0" r="1.0"/>
     <text stroke="none" x="413.0" y="489.0" font-size="20.0" font-family="helvetica">S. nigrescens NBRC 128947 (AB184225)</text>
    </g>
    <g>
     <circle stroke="black" stroke-width="0.5" fill="#aaffff" cx="413.0" cy="554.0" r="1.0"/>
     <text stroke="none" x="413.0" y="554.0" font-size="20.0" font-family="helvetica">S. Iibani NBRC 134527 (AB184414)</text>
    </g>
    <g>
     <circle stroke="black" stroke-width="0.5" fill="#aaffff" cx="413.0" cy="520.0" r="1.0"/>
     <text stroke="none" x="413.0" y="520.0" font-size="20.0" font-family="helvetica">590</text>
    </g>
    <g>
     <circle stroke="black" stroke-width="0.5" fill="#aaffff" cx="414.0" cy="457.0" r="1.0"/>
     <text stroke="none" x="414.0" y="457.0" font-size="20.0" font-family="helvetica">S. hygroscopicus subsp. angustmyceticus NBRC 39347 (AB184817)</text>
    </g>
    <g>
     <circle stroke="black" stroke-width="0.5" fill="#aaffff" cx="415.0" cy="81.0" r="1.0"/>
     <text stroke="none" x="415.0" y="81.0" font-size="10.0" font-family="helvetica">NT1.27</text>
    </g>
    <g>
     <circle stroke="black" stroke-width="0.5" fill="#aaffff" cx="444.0" cy="760.0" r="1.0"/>
     <text stroke="none" x="444.0" y="760.0" font-size="10.0" font-family="helvetica">NT1.28</text>
    </g>
    <g>
     <circle stroke="black" stroke-width="0.5" fill="#aaffff" cx="446.0" cy="521.0" r="1.0"/>
     <text stroke="none" x="446.0" y="521.0" font-size="20.0" font-family="helvetica">S. tubercidicus DSM 402617 (AJ621612)</text>
    </g>
    <g>
     <circle stroke="black" stroke-width="0.5" fill="#aaffff" cx="476.0" cy="250.0" r="1.0"/>
     <text stroke="none" x="476.0" y="250.0" font-size="10.0" font-family="helvetica">NT1.30</text>
    </g>
    <g>
     <circle stroke="black" stroke-width="0.5" fill="#aaffff" cx="477.0" cy="235.0" r="1.0"/>
     <text stroke="none" x="477.0" y="235.0" font-size="20.0" font-family="helvetica">S. chrestomyceticus DSM 405457 (AJ621609)</text>
    </g>
    <g>
     <circle stroke="black" stroke-width="0.5" fill="#aaffff" cx="477.0" cy="268.0" r="1.0"/>
     <text stroke="none" x="477.0" y="268.0" font-size="20.0" font-family="helvetica">S. rimosus subsp. paromomycinus DSM 41429T (AJ621610)</text>
    </g>
    <g>
     <circle stroke="black" stroke-width="0.5" fill="#aaffff" cx="486.0" cy="141.0" r="1.0"/>
     <text stroke="none" x="486.0" y="141.0" font-size="20.0" font-family="helvetica">S. viridis NBRC 133737 (AB184361)</text>
    </g>
    <g>
     <circle stroke="black" stroke-width="0.5" fill="#aaffff" cx="574.0" cy="901.0" r="1.0"/>
     <text stroke="none" x="574.0" y="901.0" font-size="20.0" font-family="helvetica">S. melanosporofaciens N RRL B-122347 (AJ391837)</text>
    </g>
    <g>
     <circle stroke="black" stroke-width="0.5" fill="#aaffff" cx="652.0" cy="54.0" r="1.0"/>
     <text stroke="none" x="652.0" y="54.0" font-size="10.0" font-family="helvetica">NT1.35</text>
    </g>
    <g>
     <circle stroke="black" stroke-width="0.5" fill="#aaffff" cx="674.0" cy="802.0" r="1.0"/>
     <text stroke="none" x="674.0" y="802.0" font-size="10.0" font-family="helvetica">NT1.36</text>
    </g>
    <g>
     <circle stroke="black" stroke-width="0.5" fill="#aaffff" cx="694.0" cy="625.0" r="1.0"/>
     <text stroke="none" x="694.0" y="625.0" font-size="10.0" font-family="helvetica">NT1.37</text>
    </g>
    <g>
     <circle stroke="black" stroke-width="0.5" fill="#aaffff" cx="702.0" cy="77.0" r="1.0"/>
     <text stroke="none" x="702.0" y="77.0" font-size="20.0" font-family="helvetica">S. yunnanensis YIM 410047 (AF346818)</text>
    </g>
    <g>
     <circle stroke="black" stroke-width="0.5" fill="#aaffff" cx="731.0" cy="31.0" r="1.0"/>
     <text stroke="none" x="731.0" y="31.0" font-size="10.0" font-family="helvetica">NT1.39</text>
    </g>
    <g>
     <circle stroke="black" stroke-width="0.5" fill="#aaffff" cx="731.0" cy="720.0" r="1.0"/>
     <text stroke="none" x="731.0" y="720.0" font-size="10.0" font-family="helvetica">NT1.40</text>
    </g>
    <g>
     <circle stroke="black" stroke-width="0.5" fill="#aaffff" cx="732.0" cy="12.0" r="1.0"/>
     <text stroke="none" x="732.0" y="12.0" font-size="20.0" font-family="helvetica">s. albulus NBRC 1341oT (AB184384)</text>
    </g>
    <g>
     <circle stroke="black" stroke-width="0.5" fill="#aaffff" cx="732.0" cy="46.0" r="1.0"/>
     <text stroke="none" x="732.0" y="46.0" font-size="20.0" font-family="helvetica">S. noursei NBRC 154527 (AB184678)</text>
    </g>
    <g>
     <circle stroke="black" stroke-width="0.5" fill="#aaffff" cx="750.0" cy="829.0" r="1.0"/>
     <text stroke="none" x="750.0" y="829.0" font-size="10.0" font-family="helvetica">NT1.43</text>
    </g>
    <g>
     <circle stroke="black" stroke-width="0.5" fill="#aaffff" cx="768.0" cy="109.0" r="1.0"/>
     <text stroke="none" x="768.0" y="109.0" font-size="20.0" font-family="helvetica">S. Iunalinharesii RCQ10717 (DQ094838)</text>
    </g>
    <g>
     <circle stroke="black" stroke-width="0.5" fill="#aaffff" cx="780.0" cy="602.0" r="1.0"/>
     <text stroke="none" x="780.0" y="602.0" font-size="10.0" font-family="helvetica">NT1.45</text>
    </g>
    <g>
     <circle stroke="black" stroke-width="0.5" fill="#aaffff" cx="976.0" cy="743.0" r="1.0"/>
     <text stroke="none" x="976.0" y="743.0" font-size="20.0" font-family="helvetica"/>
    </g>
    <g>
     <circle stroke="black" stroke-width="0.5" fill="#aaffff" cx="1008.0" cy="775.0" r="1.0"/>
     <text stroke="none" x="1008.0" y="775.0" font-size="20.0" font-family="helvetica">S. kurssanovii NBRC 131927 (AB184325)</text>
    </g>
    <g>
     <circle stroke="black" stroke-width="0.5" fill="#aaffff" cx="1044.0" cy="853.0" r="1.0"/>
     <text stroke="none" x="1044.0" y="853.0" font-size="10.0" font-family="helvetica">NT1.48</text>
    </g>
    <g>
     <circle stroke="black" stroke-width="0.5" fill="#aaffff" cx="1080.0" cy="806.0" r="1.0"/>
     <text stroke="none" x="1080.0" y="806.0" font-size="20.0" font-family="helvetica">S. venezuelae JCM 45267 (AB045890)</text>
    </g>
    <g>
     <circle stroke="black" stroke-width="0.5" fill="#aaffff" cx="1138.0" cy="839.0" r="1.0"/>
     <text stroke="none" x="1138.0" y="839.0" font-size="20.0" font-family="helvetica">S. griseus ISP 52367 (AY094371)</text>
    </g>
    <g>
     <circle stroke="black" stroke-width="0.5" fill="#aaffff" cx="1144.0" cy="697.0" r="1.0"/>
     <text stroke="none" x="1144.0" y="697.0" font-size="10.0" font-family="helvetica">NT1.51</text>
    </g>
    <g>
     <circle stroke="black" stroke-width="0.5" fill="#aaffff" cx="1148.0" cy="870.0" r="1.0"/>
     <text stroke="none" x="1148.0" y="870.0" font-size="20.0" font-family="helvetica">S. halstedii NBRC 132747 (AB184341)</text>
    </g>
    <g>
     <circle stroke="black" stroke-width="0.5" fill="#aaffff" cx="1153.0" cy="648.0" r="1.0"/>
     <text stroke="none" x="1153.0" y="648.0" font-size="20.0" font-family="helvetica">S. coelicolor DSM 402337 (Z76878)</text>
    </g>
    <g>
     <circle stroke="black" stroke-width="0.5" fill="#aaffff" cx="1282.0" cy="616.0" r="1.0"/>
     <text stroke="none" x="1282.0" y="616.0" font-size="20.0" font-family="helvetica">S. aureofaciens IMET 435777 (AY289116)</text>
    </g>
    <g>
     <circle stroke="black" stroke-width="0.5" fill="#aaffff" cx="1290.0" cy="712.0" r="1.0"/>
     <text stroke="none" x="1290.0" y="712.0" font-size="20.0" font-family="helvetica"/>
    </g>
    <g>
     <circle stroke="black" stroke-width="0.5" fill="#aaffff" cx="1326.0" cy="679.0" r="1.0"/>
     <text stroke="none" x="1326.0" y="679.0" font-size="20.0" font-family="helvetica">S. antibioticus NBRC 128387 (AB184184)</text>
    </g>
    <g>
     <circle stroke="black" stroke-width="0.5" fill="#aaffff" cx="1433.0" cy="584.0" r="1.0"/>
     <text stroke="none" x="1433.0" y="584.0" font-size="20.0" font-family="helvetica">S. thermoviolaceus NBRC 139057 (AB184545)</text>
    </g>
    <line stroke="black" x1="732.0" y1="12.0" x2="731.0" y2="31.0" stroke-width="0.5"/>
    <line stroke="black" x1="732.0" y1="46.0" x2="731.0" y2="31.0" stroke-width="0.5"/>
    <line stroke="black" x1="702.0" y1="77.0" x2="652.0" y2="54.0" stroke-width="0.5"/>
    <line stroke="black" x1="486.0" y1="141.0" x2="311.0" y2="111.0" stroke-width="0.5"/>
    <line stroke="black" x1="768.0" y1="109.0" x2="415.0" y2="81.0" stroke-width="0.5"/>
    <line stroke="black" x1="348.0" y1="171.0" x2="317.0" y2="189.0" stroke-width="0.5"/>
    <line stroke="black" x1="384.0" y1="204.0" x2="317.0" y2="189.0" stroke-width="0.5"/>
    <line stroke="black" x1="477.0" y1="235.0" x2="476.0" y2="250.0" stroke-width="0.5"/>
    <line stroke="black" x1="477.0" y1="268.0" x2="476.0" y2="250.0" stroke-width="0.5"/>
    <line stroke="black" x1="414.0" y1="457.0" x2="381.0" y2="488.0" stroke-width="0.5"/>
    <line stroke="black" x1="413.0" y1="489.0" x2="413.0" y2="520.0" stroke-width="0.5"/>
    <line stroke="black" x1="413.0" y1="554.0" x2="413.0" y2="520.0" stroke-width="0.5"/>
    <line stroke="black" x1="446.0" y1="521.0" x2="413.0" y2="520.0" stroke-width="0.5"/>
    <line stroke="black" x1="574.0" y1="901.0" x2="131.0" y2="917.0" stroke-width="0.5"/>
    <line stroke="black" x1="976.0" y1="743.0" x2="731.0" y2="720.0" stroke-width="0.5"/>
    <line stroke="black" x1="1008.0" y1="775.0" x2="674.0" y2="802.0" stroke-width="0.5"/>
    <line stroke="black" x1="1080.0" y1="806.0" x2="750.0" y2="829.0" stroke-width="0.5"/>
    <line stroke="black" x1="1153.0" y1="648.0" x2="694.0" y2="625.0" stroke-width="0.5"/>
    <line stroke="black" x1="1138.0" y1="839.0" x2="1044.0" y2="853.0" stroke-width="0.5"/>
    <line stroke="black" x1="1148.0" y1="870.0" x2="1044.0" y2="853.0" stroke-width="0.5"/>
    <line stroke="black" x1="1290.0" y1="712.0" x2="1144.0" y2="697.0" stroke-width="0.5"/>
    <line stroke="black" x1="1326.0" y1="679.0" x2="1144.0" y2="697.0" stroke-width="0.5"/>
    <line stroke="black" x1="1433.0" y1="584.0" x2="780.0" y2="602.0" stroke-width="0.5"/>
    <line stroke="black" x1="731.0" y1="31.0" x2="652.0" y2="54.0" stroke-width="0.5"/>
    <line stroke="black" x1="652.0" y1="54.0" x2="415.0" y2="81.0" stroke-width="0.5"/>
    <line stroke="black" x1="415.0" y1="81.0" x2="311.0" y2="111.0" stroke-width="0.5"/>
    <line stroke="black" x1="311.0" y1="111.0" x2="226.0" y2="166.0" stroke-width="0.5"/>
    <line stroke="black" x1="226.0" y1="166.0" x2="173.0" y2="280.0" stroke-width="0.5"/>
    <line stroke="black" x1="226.0" y1="166.0" x2="234.0" y2="219.0" stroke-width="0.5"/>
    <line stroke="black" x1="234.0" y1="219.0" x2="476.0" y2="250.0" stroke-width="0.5"/>
    <line stroke="black" x1="234.0" y1="219.0" x2="317.0" y2="189.0" stroke-width="0.5"/>
    <line stroke="black" x1="173.0" y1="280.0" x2="53.0" y2="486.0" stroke-width="0.5"/>
    <line stroke="black" x1="173.0" y1="280.0" x2="274.0" y2="393.0" stroke-width="0.5"/>
    <line stroke="black" x1="274.0" y1="393.0" x2="284.0" y2="449.0" stroke-width="0.5"/>
    <line stroke="black" x1="274.0" y1="393.0" x2="305.0" y2="339.0" stroke-width="0.5"/>
    <line stroke="black" x1="284.0" y1="449.0" x2="381.0" y2="488.0" stroke-width="0.5"/>
    <line stroke="black" x1="284.0" y1="449.0" x2="318.0" y2="411.0" stroke-width="0.5"/>
    <line stroke="black" x1="305.0" y1="339.0" x2="329.0" y2="316.0" stroke-width="0.5"/>
    <line stroke="black" x1="53.0" y1="486.0" x2="265.0" y2="692.0" stroke-width="0.5"/>
    <line stroke="black" x1="381.0" y1="488.0" x2="413.0" y2="520.0" stroke-width="0.5"/>
    <line stroke="black" x1="265.0" y1="692.0" x2="444.0" y2="760.0" stroke-width="0.5"/>
    <line stroke="black" x1="265.0" y1="692.0" x2="694.0" y2="625.0" stroke-width="0.5"/>
    <line stroke="black" x1="444.0" y1="760.0" x2="674.0" y2="802.0" stroke-width="0.5"/>
    <line stroke="black" x1="444.0" y1="760.0" x2="731.0" y2="720.0" stroke-width="0.5"/>
    <line stroke="black" x1="694.0" y1="625.0" x2="780.0" y2="602.0" stroke-width="0.5"/>
    <line stroke="black" x1="674.0" y1="802.0" x2="750.0" y2="829.0" stroke-width="0.5"/>
    <line stroke="black" x1="731.0" y1="720.0" x2="1144.0" y2="697.0" stroke-width="0.5"/>
    <line stroke="black" x1="750.0" y1="829.0" x2="1044.0" y2="853.0" stroke-width="0.5"/>
    <line stroke="black" x1="53.0" y1="486.0" x2="131.0" y2="917.0" stroke-width="0.5"/>
    <line stroke="black" x1="411.0" y1="934.0" x2="131.0" y2="917.0" stroke-width="0.5"/>
    <line stroke="black" x1="346.0" y1="362.0" x2="305.0" y2="339.0" stroke-width="0.5"/>
    <line stroke="black" x1="331.0" y1="426.0" x2="318.0" y2="411.0" stroke-width="0.5"/>
    <line stroke="black" x1="339.0" y1="394.0" x2="318.0" y2="411.0" stroke-width="0.5"/>
    <line stroke="black" x1="340.0" y1="299.0" x2="329.0" y2="316.0" stroke-width="0.5"/>
    <line stroke="black" x1="353.0" y1="331.0" x2="329.0" y2="316.0" stroke-width="0.5"/>
    <line stroke="black" x1="1282.0" y1="616.0" x2="780.0" y2="602.0" stroke-width="0.5"/>
   </g>
  </g>
 </svg>
</svg>
