<?xml version="1.0" encoding="UTF-8"?>
<svg height="800.0" width="700.0" xmlns="http://www.w3.org/2000/svg">
 <svg>
  <g>
   <g>
    <g>
     <circle stroke="black" stroke-width="0.5" fill="#aaffff" cx="141.0" cy="261.0" r="1.0"/>
     <text stroke="none" x="141.0" y="261.0" font-size="10.0" font-family="helvetica">NT1.1</text>
    </g>
    <g>
     <circle stroke="black" stroke-width="0.5" fill="#aaffff" cx="155.0" cy="143.0" r="1.0"/>
     <text stroke="none" x="155.0" y="143.0" font-size="20.0" font-family="helvetica">60</text>
    </g>
    <g>
     <circle stroke="black" stroke-width="0.5" fill="#aaffff" cx="169.0" cy="378.0" r="1.0"/>
     <text stroke="none" x="169.0" y="378.0" font-size="20.0" font-family="helvetica">93</text>
    </g>
    <g>
     <circle stroke="black" stroke-width="0.5" fill="#aaffff" cx="176.0" cy="417.0" r="1.0"/>
     <text stroke="none" x="176.0" y="417.0" font-size="10.0" font-family="helvetica">NT1.4</text>
    </g>
    <g>
     <circle stroke="black" stroke-width="0.5" fill="#aaffff" cx="180.0" cy="211.0" r="1.0"/>
     <text stroke="none" x="180.0" y="211.0" font-size="20.0" font-family="helvetica">80</text>
    </g>
    <g>
     <circle stroke="black" stroke-width="0.5" fill="#aaffff" cx="212.0" cy="452.0" r="1.0"/>
     <text stroke="none" x="212.0" y="452.0" font-size="20.0" font-family="helvetica">97</text>
    </g>
    <g>
     <circle stroke="black" stroke-width="0.5" fill="#aaffff" cx="213.0" cy="74.0" r="1.0"/>
     <text stroke="none" x="213.0" y="74.0" font-size="20.0" font-family="helvetica">100</text>
    </g>
    <g>
     <circle stroke="black" stroke-width="0.5" fill="#aaffff" cx="230.0" cy="483.0" r="1.0"/>
     <text stroke="none" x="230.0" y="483.0" font-size="20.0" font-family="helvetica">60</text>
    </g>
    <g>
     <circle stroke="black" stroke-width="0.5" fill="#aaffff" cx="250.0" cy="114.0" r="1.0"/>
     <text stroke="none" x="250.0" y="114.0" font-size="20.0" font-family="helvetica">99</text>
    </g>
    <g>
     <circle stroke="black" stroke-width="0.5" fill="#aaffff" cx="253.0" cy="247.0" r="1.0"/>
     <text stroke="none" x="253.0" y="247.0" font-size="20.0" font-family="helvetica">00</text>
    </g>
    <g>
     <circle stroke="black" stroke-width="0.5" fill="#aaffff" cx="261.0" cy="33.0" r="1.0"/>
     <text stroke="none" x="261.0" y="33.0" font-size="20.0" font-family="helvetica">100</text>
    </g>
    <g>
     <circle stroke="black" stroke-width="0.5" fill="#aaffff" cx="279.0" cy="340.0" r="1.0"/>
     <text stroke="none" x="279.0" y="340.0" font-size="20.0" font-family="helvetica">Nubsella zeaxanthinifaciens TDMA-5T (AB264126)</text>
    </g>
    <g>
     <circle stroke="black" stroke-width="0.5" fill="#aaffff" cx="290.0" cy="422.0" r="1.0"/>
     <text stroke="none" x="290.0" y="422.0" font-size="20.0" font-family="helvetica">Pedobacter sandarakinus DS-27T (DQ235228)</text>
    </g>
    <g>
     <circle stroke="black" stroke-width="0.5" fill="#aaffff" cx="300.0" cy="381.0" r="1.0"/>
     <text stroke="none" x="300.0" y="381.0" font-size="20.0" font-family="helvetica">Pedobacter terricola D8-45T (EF446147)</text>
    </g>
    <g>
     <circle stroke="black" stroke-width="0.5" fill="#aaffff" cx="313.0" cy="136.0" r="1.0"/>
     <text stroke="none" x="313.0" y="136.0" font-size="10.0" font-family="helvetica">NT1.15</text>
    </g>
    <g>
     <circle stroke="black" stroke-width="0.5" fill="#aaffff" cx="313.0" cy="278.0" r="1.0"/>
     <text stroke="none" x="313.0" y="278.0" font-size="20.0" font-family="helvetica">100</text>
    </g>
    <g>
     <circle stroke="black" stroke-width="0.5" fill="#aaffff" cx="314.0" cy="505.0" r="1.0"/>
     <text stroke="none" x="314.0" y="505.0" font-size="10.0" font-family="helvetica">NT1.17</text>
    </g>
    <g>
     <circle stroke="black" stroke-width="0.5" fill="#aaffff" cx="320.0" cy="12.0" r="1.0"/>
     <text stroke="none" x="320.0" y="12.0" font-size="20.0" font-family="helvetica"> Mucilaginibacter gracilis TPT18T (AM490403)</text>
    </g>
    <g>
     <circle stroke="black" stroke-width="0.5" fill="#aaffff" cx="321.0" cy="53.0" r="1.0"/>
     <text stroke="none" x="321.0" y="53.0" font-size="20.0" font-family="helvetica"> Mucilaginibacter paludis TPT56T (AM490402)</text>
    </g>
    <g>
     <circle stroke="black" stroke-width="0.5" fill="#aaffff" cx="321.0" cy="94.0" r="1.0"/>
     <text stroke="none" x="321.0" y="94.0" font-size="10.0" font-family="helvetica">NT1.20</text>
    </g>
    <g>
     <circle stroke="black" stroke-width="0.5" fill="#aaffff" cx="331.0" cy="176.0" r="1.0"/>
     <text stroke="none" x="331.0" y="176.0" font-size="20.0" font-family="helvetica">Sphingobaclerium canadense CR11T (AY787820)</text>
    </g>
    <g>
     <circle stroke="black" stroke-width="0.5" fill="#aaffff" cx="350.0" cy="463.0" r="1.0"/>
     <text stroke="none" x="350.0" y="463.0" font-size="20.0" font-family="helvetica">Pedobacter himalayensis HHS 227 (AJ583425)</text>
    </g>
    <g>
     <circle stroke="black" stroke-width="0.5" fill="#aaffff" cx="379.0" cy="258.0" r="1.0"/>
     <text stroke="none" x="379.0" y="258.0" font-size="20.0" font-family="helvetica"> Parapedobacter soli DCY14T (EF151805)</text>
    </g>
    <g>
     <circle stroke="black" stroke-width="0.5" fill="#aaffff" cx="388.0" cy="299.0" r="1.0"/>
     <text stroke="none" x="388.0" y="299.0" font-size="20.0" font-family="helvetica">Parapedobacter koreensis Jip14T (DQ680836)</text>
    </g>
    <g>
     <circle stroke="black" stroke-width="0.5" fill="#aaffff" cx="461.0" cy="217.0" r="1.0"/>
     <text stroke="none" x="461.0" y="217.0" font-size="20.0" font-family="helvetica">Olivibacter sitiensis AW-67 (DQ421387)</text>
    </g>
    <g>
     <circle stroke="black" stroke-width="0.5" fill="#aaffff" cx="461.0" cy="567.0" r="1.0"/>
     <text stroke="none" x="461.0" y="567.0" font-size="10.0" font-family="helvetica">NT1.26</text>
    </g>
    <g>
     <circle stroke="black" stroke-width="0.5" fill="#aaffff" cx="4.0" cy="414.0" r="1.0"/>
     <text stroke="none" x="4.0" y="414.0" font-size="10.0" font-family="helvetica">NT1.27</text>
    </g>
    <line stroke="black" x1="320.0" y1="12.0" x2="261.0" y2="33.0" stroke-width="0.5"/>
    <line stroke="black" x1="331.0" y1="176.0" x2="180.0" y2="211.0" stroke-width="0.5"/>
    <line stroke="black" x1="379.0" y1="258.0" x2="313.0" y2="278.0" stroke-width="0.5"/>
    <line stroke="black" x1="279.0" y1="340.0" x2="169.0" y2="378.0" stroke-width="0.5"/>
    <line stroke="black" x1="461.0" y1="217.0" x2="253.0" y2="247.0" stroke-width="0.5"/>
    <line stroke="black" x1="300.0" y1="381.0" x2="176.0" y2="417.0" stroke-width="0.5"/>
    <line stroke="black" x1="290.0" y1="422.0" x2="212.0" y2="452.0" stroke-width="0.5"/>
    <line stroke="black" x1="350.0" y1="463.0" x2="230.0" y2="483.0" stroke-width="0.5"/>
    <line stroke="black" x1="261.0" y1="33.0" x2="213.0" y2="74.0" stroke-width="0.5"/>
    <line stroke="black" x1="155.0" y1="143.0" x2="141.0" y2="261.0" stroke-width="0.5"/>
    <line stroke="black" x1="155.0" y1="143.0" x2="180.0" y2="211.0" stroke-width="0.5"/>
    <line stroke="black" x1="180.0" y1="211.0" x2="253.0" y2="247.0" stroke-width="0.5"/>
    <line stroke="black" x1="141.0" y1="261.0" x2="169.0" y2="378.0" stroke-width="0.5"/>
    <line stroke="black" x1="253.0" y1="247.0" x2="313.0" y2="278.0" stroke-width="0.5"/>
    <line stroke="black" x1="169.0" y1="378.0" x2="176.0" y2="417.0" stroke-width="0.5"/>
    <line stroke="black" x1="176.0" y1="417.0" x2="212.0" y2="452.0" stroke-width="0.5"/>
    <line stroke="black" x1="4.0" y1="414.0" x2="141.0" y2="261.0" stroke-width="0.5"/>
    <line stroke="black" x1="321.0" y1="53.0" x2="261.0" y2="33.0" stroke-width="0.5"/>
    <line stroke="black" x1="388.0" y1="299.0" x2="313.0" y2="278.0" stroke-width="0.5"/>
   </g>
  </g>
 </svg>
</svg>
