<?xml version="1.0" encoding="UTF-8"?>
<svg height="800.0" width="700.0" xmlns="http://www.w3.org/2000/svg">
 <svg>
  <g>
   <g>
    <g>
     <circle stroke="black" stroke-width="0.5" fill="#aaffff" cx="12.0" cy="214.0" r="1.0"/>
     <text stroke="none" x="12.0" y="214.0" font-size="10.0" font-family="helvetica">NT1.1</text>
    </g>
    <g>
     <circle stroke="black" stroke-width="0.5" fill="#aaffff" cx="31.0" cy="175.0" r="1.0"/>
     <text stroke="none" x="31.0" y="175.0" font-size="10.0" font-family="helvetica">NT1.2</text>
    </g>
    <g>
     <circle stroke="black" stroke-width="0.5" fill="#aaffff" cx="87.0" cy="385.0" r="1.0"/>
     <text stroke="none" x="87.0" y="385.0" font-size="10.0" font-family="helvetica">NT1.3</text>
    </g>
    <g>
     <circle stroke="black" stroke-width="0.5" fill="#aaffff" cx="102.0" cy="291.0" r="1.0"/>
     <text stroke="none" x="102.0" y="291.0" font-size="10.0" font-family="helvetica">NT1.4</text>
    </g>
    <g>
     <circle stroke="black" stroke-width="0.5" fill="#aaffff" cx="105.0" cy="121.0" r="1.0"/>
     <text stroke="none" x="105.0" y="121.0" font-size="20.0" font-family="helvetica">83</text>
    </g>
    <g>
     <circle stroke="black" stroke-width="0.5" fill="#aaffff" cx="137.0" cy="398.0" r="1.0"/>
     <text stroke="none" x="137.0" y="398.0" font-size="10.0" font-family="helvetica">NT1.6</text>
    </g>
    <g>
     <circle stroke="black" stroke-width="0.5" fill="#aaffff" cx="159.0" cy="268.0" r="1.0"/>
     <text stroke="none" x="159.0" y="268.0" font-size="10.0" font-family="helvetica">NT1.7</text>
    </g>
    <g>
     <circle stroke="black" stroke-width="0.5" fill="#aaffff" cx="235.0" cy="94.0" r="1.0"/>
     <text stroke="none" x="235.0" y="94.0" font-size="10.0" font-family="helvetica">NT1.8</text>
    </g>
    <g>
     <circle stroke="black" stroke-width="0.5" fill="#aaffff" cx="350.0" cy="318.0" r="1.0"/>
     <text stroke="none" x="350.0" y="318.0" font-size="10.0" font-family="helvetica">NT1.9</text>
    </g>
    <g>
     <circle stroke="black" stroke-width="0.5" fill="#aaffff" cx="411.0" cy="145.0" r="1.0"/>
     <text stroke="none" x="411.0" y="145.0" font-size="10.0" font-family="helvetica">NT1.10</text>
    </g>
    <g>
     <circle stroke="black" stroke-width="0.5" fill="#aaffff" cx="431.0" cy="306.0" r="1.0"/>
     <text stroke="none" x="431.0" y="306.0" font-size="20.0" font-family="helvetica">Pseudomonas asplenii ATCC 238357 (ABO21397)</text>
    </g>
    <g>
     <circle stroke="black" stroke-width="0.5" fill="#aaffff" cx="435.0" cy="279.0" r="1.0"/>
     <text stroke="none" x="435.0" y="279.0" font-size="20.0" font-family="helvetica">Microbulbifer hydrolyticus IRE-317</text>
    </g>
    <g>
     <circle stroke="black" stroke-width="0.5" fill="#aaffff" cx="454.0" cy="385.0" r="1.0"/>
     <text stroke="none" x="454.0" y="385.0" font-size="20.0" font-family="helvetica">Marfnobacterfum georgiense KW-407 (U58339)</text>
    </g>
    <g>
     <circle stroke="black" stroke-width="0.5" fill="#aaffff" cx="467.0" cy="359.0" r="1.0"/>
     <text stroke="none" x="467.0" y="359.0" font-size="20.0" font-family="helvetica">OceanosplrIYlum llnum ATCC 1 1336T (M22365)</text>
    </g>
    <g>
     <circle stroke="black" stroke-width="0.5" fill="#aaffff" cx="479.0" cy="54.0" r="1.0"/>
     <text stroke="none" x="479.0" y="54.0" font-size="20.0" font-family="helvetica">100</text>
    </g>
    <g>
     <circle stroke="black" stroke-width="0.5" fill="#aaffff" cx="479.0" cy="212.0" r="1.0"/>
     <text stroke="none" x="479.0" y="212.0" font-size="10.0" font-family="helvetica">NT1.16</text>
    </g>
    <g>
     <circle stroke="black" stroke-width="0.5" fill="#aaffff" cx="483.0" cy="93.0" r="1.0"/>
     <text stroke="none" x="483.0" y="93.0" font-size="20.0" font-family="helvetica">Alcanivorax venustensis I501 (AF328761)</text>
    </g>
    <g>
     <circle stroke="black" stroke-width="0.5" fill="#aaffff" cx="483.0" cy="28.0" r="1.0"/>
     <text stroke="none" x="483.0" y="28.0" font-size="20.0" font-family="helvetica">100</text>
    </g>
    <g>
     <circle stroke="black" stroke-width="0.5" fill="#aaffff" cx="483.0" cy="78.0" r="1.0"/>
     <text stroke="none" x="483.0" y="78.0" font-size="10.0" font-family="helvetica">NT1.19</text>
    </g>
    <g>
     <circle stroke="black" stroke-width="0.5" fill="#aaffff" cx="484.0" cy="40.0" r="1.0"/>
     <text stroke="none" x="484.0" y="40.0" font-size="20.0" font-family="helvetica">Obligately oligotrophxc bacterium POO-15 (ABO22706)</text>
    </g>
    <g>
     <circle stroke="black" stroke-width="0.5" fill="#aaffff" cx="487.0" cy="173.0" r="1.0"/>
     <text stroke="none" x="487.0" y="173.0" font-size="20.0" font-family="helvetica">Gamma proteobacterium ST1 (AB005655)</text>
    </g>
    <g>
     <circle stroke="black" stroke-width="0.5" fill="#aaffff" cx="487.0" cy="158.0" r="1.0"/>
     <text stroke="none" x="487.0" y="158.0" font-size="20.0" font-family="helvetica">100</text>
    </g>
    <g>
     <circle stroke="black" stroke-width="0.5" fill="#aaffff" cx="488.0" cy="66.0" r="1.0"/>
     <text stroke="none" x="488.0" y="66.0" font-size="20.0" font-family="helvetica">Alcanivorax venustensis ISO47 (AF328762)</text>
    </g>
    <g>
     <circle stroke="black" stroke-width="0.5" fill="#aaffff" cx="490.0" cy="332.0" r="1.0"/>
     <text stroke="none" x="490.0" y="332.0" font-size="20.0" font-family="helvetica">Pseudomonas fluorescens IAM 12022T (D84013)</text>
    </g>
    <g>
     <circle stroke="black" stroke-width="0.5" fill="#aaffff" cx="492.0" cy="13.0" r="1.0"/>
     <text stroke="none" x="492.0" y="13.0" font-size="20.0" font-family="helvetica">Gamma proteobacterium KT0221 (AF235122)</text>
    </g>
    <g>
     <circle stroke="black" stroke-width="0.5" fill="#aaffff" cx="500.0" cy="147.0" r="1.0"/>
     <text stroke="none" x="500.0" y="147.0" font-size="20.0" font-family="helvetica">Alcanivorax bolkumensis SKQT (Y12579)</text>
    </g>
    <g>
     <circle stroke="black" stroke-width="0.5" fill="#aaffff" cx="516.0" cy="253.0" r="1.0"/>
     <text stroke="none" x="516.0" y="253.0" font-size="20.0" font-family="helvetica">Marinobacter hydrocarbonoclasticus ATCC 27132T (ABOQ1372)</text>
    </g>
    <g>
     <circle stroke="black" stroke-width="0.5" fill="#aaffff" cx="517.0" cy="413.0" r="1.0"/>
     <text stroke="none" x="517.0" y="413.0" font-size="20.0" font-family="helvetica">Neptunomonas naphthovorans ATCC 7006377 (AF053734)</text>
    </g>
    <g>
     <circle stroke="black" stroke-width="0.5" fill="#aaffff" cx="522.0" cy="120.0" r="1.0"/>
     <text stroke="none" x="522.0" y="120.0" font-size="20.0" font-family="helvetica">Fundibacterjadensis TQT (AJOO1 150)</text>
    </g>
    <g>
     <circle stroke="black" stroke-width="0.5" fill="#aaffff" cx="562.0" cy="227.0" r="1.0"/>
     <text stroke="none" x="562.0" y="227.0" font-size="20.0" font-family="helvetica">Halomonas salina ATCC 495O9T (X8721 7)</text>
    </g>
    <g>
     <circle stroke="black" stroke-width="0.5" fill="#aaffff" cx="644.0" cy="440.0" r="1.0"/>
     <text stroke="none" x="644.0" y="440.0" font-size="20.0" font-family="helvetica">Vibrio cholerae CECT 514T (X76387)</text>
    </g>
    <g>
     <circle stroke="black" stroke-width="0.5" fill="#aaffff" cx="645.0" cy="200.0" r="1.0"/>
     <text stroke="none" x="645.0" y="200.0" font-size="20.0" font-family="helvetica">Halomonas elongata ATCC 33173T (M93355)</text>
    </g>
    <line stroke="black" x1="484.0" y1="40.0" x2="483.0" y2="28.0" stroke-width="0.5"/>
    <line stroke="black" x1="483.0" y1="93.0" x2="483.0" y2="78.0" stroke-width="0.5"/>
    <line stroke="black" x1="487.0" y1="173.0" x2="487.0" y2="158.0" stroke-width="0.5"/>
    <line stroke="black" x1="522.0" y1="120.0" x2="411.0" y2="145.0" stroke-width="0.5"/>
    <line stroke="black" x1="431.0" y1="306.0" x2="350.0" y2="318.0" stroke-width="0.5"/>
    <line stroke="black" x1="435.0" y1="279.0" x2="159.0" y2="268.0" stroke-width="0.5"/>
    <line stroke="black" x1="454.0" y1="385.0" x2="137.0" y2="398.0" stroke-width="0.5"/>
    <line stroke="black" x1="483.0" y1="28.0" x2="479.0" y2="54.0" stroke-width="0.5"/>
    <line stroke="black" x1="479.0" y1="54.0" x2="235.0" y2="94.0" stroke-width="0.5"/>
    <line stroke="black" x1="479.0" y1="54.0" x2="483.0" y2="78.0" stroke-width="0.5"/>
    <line stroke="black" x1="235.0" y1="94.0" x2="105.0" y2="121.0" stroke-width="0.5"/>
    <line stroke="black" x1="235.0" y1="94.0" x2="411.0" y2="145.0" stroke-width="0.5"/>
    <line stroke="black" x1="105.0" y1="121.0" x2="31.0" y2="175.0" stroke-width="0.5"/>
    <line stroke="black" x1="105.0" y1="121.0" x2="479.0" y2="212.0" stroke-width="0.5"/>
    <line stroke="black" x1="411.0" y1="145.0" x2="487.0" y2="158.0" stroke-width="0.5"/>
    <line stroke="black" x1="31.0" y1="175.0" x2="12.0" y2="214.0" stroke-width="0.5"/>
    <line stroke="black" x1="31.0" y1="175.0" x2="102.0" y2="291.0" stroke-width="0.5"/>
    <line stroke="black" x1="12.0" y1="214.0" x2="87.0" y2="385.0" stroke-width="0.5"/>
    <line stroke="black" x1="102.0" y1="291.0" x2="350.0" y2="318.0" stroke-width="0.5"/>
    <line stroke="black" x1="102.0" y1="291.0" x2="159.0" y2="268.0" stroke-width="0.5"/>
    <line stroke="black" x1="87.0" y1="385.0" x2="137.0" y2="398.0" stroke-width="0.5"/>
    <line stroke="black" x1="644.0" y1="440.0" x2="12.0" y2="214.0" stroke-width="0.5"/>
    <line stroke="black" x1="467.0" y1="359.0" x2="87.0" y2="385.0" stroke-width="0.5"/>
    <line stroke="black" x1="517.0" y1="413.0" x2="137.0" y2="398.0" stroke-width="0.5"/>
    <line stroke="black" x1="516.0" y1="253.0" x2="159.0" y2="268.0" stroke-width="0.5"/>
    <line stroke="black" x1="490.0" y1="332.0" x2="350.0" y2="318.0" stroke-width="0.5"/>
    <line stroke="black" x1="488.0" y1="66.0" x2="483.0" y2="78.0" stroke-width="0.5"/>
    <line stroke="black" x1="492.0" y1="13.0" x2="483.0" y2="28.0" stroke-width="0.5"/>
    <line stroke="black" x1="500.0" y1="147.0" x2="487.0" y2="158.0" stroke-width="0.5"/>
    <line stroke="black" x1="562.0" y1="227.0" x2="479.0" y2="212.0" stroke-width="0.5"/>
    <line stroke="black" x1="645.0" y1="200.0" x2="479.0" y2="212.0" stroke-width="0.5"/>
   </g>
  </g>
 </svg>
</svg>
