<?xml version="1.0" encoding="UTF-8"?>
<svg height="800.0" width="700.0" xmlns="http://www.w3.org/2000/svg">
 <svg>
  <g>
   <g>
    <g>
     <circle stroke="black" stroke-width="0.5" fill="#aaffff" cx="331.0" cy="966.0" r="1.0"/>
     <text stroke="none" x="331.0" y="966.0" font-size="10.0" font-family="helvetica">NT1.1</text>
    </g>
    <g>
     <circle stroke="black" stroke-width="0.5" fill="#aaffff" cx="357.0" cy="1223.0" r="1.0"/>
     <text stroke="none" x="357.0" y="1223.0" font-size="10.0" font-family="helvetica">NT1.2</text>
    </g>
    <g>
     <circle stroke="black" stroke-width="0.5" fill="#aaffff" cx="398.0" cy="1104.0" r="1.0"/>
     <text stroke="none" x="398.0" y="1104.0" font-size="10.0" font-family="helvetica">NT1.3</text>
    </g>
    <g>
     <circle stroke="black" stroke-width="0.5" fill="#aaffff" cx="496.0" cy="708.0" r="1.0"/>
     <text stroke="none" x="496.0" y="708.0" font-size="10.0" font-family="helvetica">NT1.4</text>
    </g>
    <g>
     <circle stroke="black" stroke-width="0.5" fill="#aaffff" cx="514.0" cy="604.0" r="1.0"/>
     <text stroke="none" x="514.0" y="604.0" font-size="10.0" font-family="helvetica">NT1.5</text>
    </g>
    <g>
     <circle stroke="black" stroke-width="0.5" fill="#aaffff" cx="522.0" cy="486.0" r="1.0"/>
     <text stroke="none" x="522.0" y="486.0" font-size="10.0" font-family="helvetica">NT1.6</text>
    </g>
    <g>
     <circle stroke="black" stroke-width="0.5" fill="#aaffff" cx="544.0" cy="336.0" r="1.0"/>
     <text stroke="none" x="544.0" y="336.0" font-size="10.0" font-family="helvetica">NT1.7</text>
    </g>
    <g>
     <circle stroke="black" stroke-width="0.5" fill="#aaffff" cx="545.0" cy="635.0" r="1.0"/>
     <text stroke="none" x="545.0" y="635.0" font-size="10.0" font-family="helvetica">NT1.8</text>
    </g>
    <g>
     <circle stroke="black" stroke-width="0.5" fill="#aaffff" cx="556.0" cy="1027.0" r="1.0"/>
     <text stroke="none" x="556.0" y="1027.0" font-size="20.0" font-family="helvetica">100</text>
    </g>
    <g>
     <circle stroke="black" stroke-width="0.5" fill="#aaffff" cx="560.0" cy="200.0" r="1.0"/>
     <text stroke="none" x="560.0" y="200.0" font-size="10.0" font-family="helvetica">NT1.10</text>
    </g>
    <g>
     <circle stroke="black" stroke-width="0.5" fill="#aaffff" cx="563.0" cy="812.0" r="1.0"/>
     <text stroke="none" x="563.0" y="812.0" font-size="20.0" font-family="helvetica">93</text>
    </g>
    <g>
     <circle stroke="black" stroke-width="0.5" fill="#aaffff" cx="571.0" cy="472.0" r="1.0"/>
     <text stroke="none" x="571.0" y="472.0" font-size="10.0" font-family="helvetica">NT1.12</text>
    </g>
    <g>
     <circle stroke="black" stroke-width="0.5" fill="#aaffff" cx="577.0" cy="295.0" r="1.0"/>
     <text stroke="none" x="577.0" y="295.0" font-size="10.0" font-family="helvetica">NT1.13</text>
    </g>
    <g>
     <circle stroke="black" stroke-width="0.5" fill="#aaffff" cx="583.0" cy="103.0" r="1.0"/>
     <text stroke="none" x="583.0" y="103.0" font-size="10.0" font-family="helvetica">NT1.14</text>
    </g>
    <g>
     <circle stroke="black" stroke-width="0.5" fill="#aaffff" cx="587.0" cy="517.0" r="1.0"/>
     <text stroke="none" x="587.0" y="517.0" font-size="10.0" font-family="helvetica">NT1.15</text>
    </g>
    <g>
     <circle stroke="black" stroke-width="0.5" fill="#aaffff" cx="601.0" cy="162.0" r="1.0"/>
     <text stroke="none" x="601.0" y="162.0" font-size="10.0" font-family="helvetica">NT1.16</text>
    </g>
    <g>
     <circle stroke="black" stroke-width="0.5" fill="#aaffff" cx="609.0" cy="339.0" r="1.0"/>
     <text stroke="none" x="609.0" y="339.0" font-size="10.0" font-family="helvetica">NT1.17</text>
    </g>
    <g>
     <circle stroke="black" stroke-width="0.5" fill="#aaffff" cx="658.0" cy="975.0" r="1.0"/>
     <text stroke="none" x="658.0" y="975.0" font-size="20.0" font-family="helvetica">99</text>
    </g>
    <g>
     <circle stroke="black" stroke-width="0.5" fill="#aaffff" cx="662.0" cy="1343.0" r="1.0"/>
     <text stroke="none" x="662.0" y="1343.0" font-size="10.0" font-family="helvetica">NT1.19</text>
    </g>
    <g>
     <circle stroke="black" stroke-width="0.5" fill="#aaffff" cx="667.0" cy="930.0" r="1.0"/>
     <text stroke="none" x="667.0" y="930.0" font-size="20.0" font-family="helvetica">99</text>
    </g>
    <g>
     <circle stroke="black" stroke-width="0.5" fill="#aaffff" cx="707.0" cy="1181.0" r="1.0"/>
     <text stroke="none" x="707.0" y="1181.0" font-size="10.0" font-family="helvetica">NT1.21</text>
    </g>
    <g>
     <circle stroke="black" stroke-width="0.5" fill="#aaffff" cx="749.0" cy="251.0" r="1.0"/>
     <text stroke="none" x="749.0" y="251.0" font-size="20.0" font-family="helvetica">Rumfnococcus gnavus ATCC 291497 (L76597)</text>
    </g>
    <g>
     <circle stroke="black" stroke-width="0.5" fill="#aaffff" cx="769.0" cy="44.0" r="1.0"/>
     <text stroke="none" x="769.0" y="44.0" font-size="10.0" font-family="helvetica">NT1.23</text>
    </g>
    <g>
     <circle stroke="black" stroke-width="0.5" fill="#aaffff" cx="771.0" cy="487.0" r="1.0"/>
     <text stroke="none" x="771.0" y="487.0" font-size="20.0" font-family="helvetica">Robinsoniella peoriensis PPC31T (AF445285)</text>
    </g>
    <g>
     <circle stroke="black" stroke-width="0.5" fill="#aaffff" cx="778.0" cy="842.0" r="1.0"/>
     <text stroke="none" x="778.0" y="842.0" font-size="20.0" font-family="helvetica">Clostridfum herbivarans 544087 (L34418)</text>
    </g>
    <g>
     <circle stroke="black" stroke-width="0.5" fill="#aaffff" cx="787.0" cy="605.0" r="1.0"/>
     <text stroke="none" x="787.0" y="605.0" font-size="20.0" font-family="helvetica">Eubacterium uniforms ATCC 359927 (L34626)</text>
    </g>
    <g>
     <circle stroke="black" stroke-width="0.5" fill="#aaffff" cx="790.0" cy="723.0" r="1.0"/>
     <text stroke="none" x="790.0" y="723.0" font-size="10.0" font-family="helvetica">NT1.27</text>
    </g>
    <g>
     <circle stroke="black" stroke-width="0.5" fill="#aaffff" cx="795.0" cy="1373.0" r="1.0"/>
     <text stroke="none" x="795.0" y="1373.0" font-size="10.0" font-family="helvetica">NT1.28</text>
    </g>
    <g>
     <circle stroke="black" stroke-width="0.5" fill="#aaffff" cx="805.0" cy="15.0" r="1.0"/>
     <text stroke="none" x="805.0" y="15.0" font-size="20.0" font-family="helvetica"> Clostridium saccharolytfcum DSM 2544T (Y18185)</text>
    </g>
    <g>
     <circle stroke="black" stroke-width="0.5" fill="#aaffff" cx="809.0" cy="906.0" r="1.0"/>
     <text stroke="none" x="809.0" y="906.0" font-size="10.0" font-family="helvetica">NT1.30</text>
    </g>
    <g>
     <circle stroke="black" stroke-width="0.5" fill="#aaffff" cx="810.0" cy="369.0" r="1.0"/>
     <text stroke="none" x="810.0" y="369.0" font-size="20.0" font-family="helvetica">Ruminococcus torques ATCC 277567 (L76604)</text>
    </g>
    <g>
     <circle stroke="black" stroke-width="0.5" fill="#aaffff" cx="813.0" cy="74.0" r="1.0"/>
     <text stroke="none" x="813.0" y="74.0" font-size="10.0" font-family="helvetica">NT1.32</text>
    </g>
    <g>
     <circle stroke="black" stroke-width="0.5" fill="#aaffff" cx="813.0" cy="133.0" r="1.0"/>
     <text stroke="none" x="813.0" y="133.0" font-size="20.0" font-family="helvetica">Roseburia cecicola ATCC 33874T (L14676)</text>
    </g>
    <g>
     <circle stroke="black" stroke-width="0.5" fill="#aaffff" cx="822.0" cy="960.0" r="1.0"/>
     <text stroke="none" x="822.0" y="960.0" font-size="20.0" font-family="helvetica">Cellulosilyticum ruminicola H17 (EF382648)</text>
    </g>
    <g>
     <circle stroke="black" stroke-width="0.5" fill="#aaffff" cx="826.0" cy="428.0" r="1.0"/>
     <text stroke="none" x="826.0" y="428.0" font-size="10.0" font-family="helvetica">NT1.35</text>
    </g>
    <g>
     <circle stroke="black" stroke-width="0.5" fill="#aaffff" cx="827.0" cy="664.0" r="1.0"/>
     <text stroke="none" x="827.0" y="664.0" font-size="20.0" font-family="helvetica">Anaerostipes caccae L1 -927 (AJ270487)</text>
    </g>
    <g>
     <circle stroke="black" stroke-width="0.5" fill="#aaffff" cx="837.0" cy="546.0" r="1.0"/>
     <text stroke="none" x="837.0" y="546.0" font-size="10.0" font-family="helvetica">NT1.37</text>
    </g>
    <g>
     <circle stroke="black" stroke-width="0.5" fill="#aaffff" cx="838.0" cy="1226.0" r="1.0"/>
     <text stroke="none" x="838.0" y="1226.0" font-size="10.0" font-family="helvetica">NT1.38</text>
    </g>
    <g>
     <circle stroke="black" stroke-width="0.5" fill="#aaffff" cx="841.0" cy="310.0" r="1.0"/>
     <text stroke="none" x="841.0" y="310.0" font-size="20.0" font-family="helvetica">Blautia coccoides DSM 2088 (M59090)</text>
    </g>
    <g>
     <circle stroke="black" stroke-width="0.5" fill="#aaffff" cx="845.0" cy="192.0" r="1.0"/>
     <text stroke="none" x="845.0" y="192.0" font-size="20.0" font-family="helvetica">Lachnospira pectinoschfza 150-17 (L14675)</text>
    </g>
    <g>
     <circle stroke="black" stroke-width="0.5" fill="#aaffff" cx="856.0" cy="1314.0" r="1.0"/>
     <text stroke="none" x="856.0" y="1314.0" font-size="10.0" font-family="helvetica">NT1.41</text>
    </g>
    <g>
     <circle stroke="black" stroke-width="0.5" fill="#aaffff" cx="877.0" cy="1255.0" r="1.0"/>
     <text stroke="none" x="877.0" y="1255.0" font-size="20.0" font-family="helvetica"> Clostridfum neopropionfcum DSM 38477 (X76746)</text>
    </g>
    <g>
     <circle stroke="black" stroke-width="0.5" fill="#aaffff" cx="891.0" cy="1137.0" r="1.0"/>
     <text stroke="none" x="891.0" y="1137.0" font-size="20.0" font-family="helvetica">Clostridfum lactatifermentans G1 77 (AYO33434)</text>
    </g>
    <g>
     <circle stroke="black" stroke-width="0.5" fill="#aaffff" cx="892.0" cy="1196.0" r="1.0"/>
     <text stroke="none" x="892.0" y="1196.0" font-size="10.0" font-family="helvetica">NT1.44</text>
    </g>
    <g>
     <circle stroke="black" stroke-width="0.5" fill="#aaffff" cx="903.0" cy="782.0" r="1.0"/>
     <text stroke="none" x="903.0" y="782.0" font-size="20.0" font-family="helvetica">Clostridium phytofermentans ISDgT (AFO20431)</text>
    </g>
    <g>
     <circle stroke="black" stroke-width="0.5" fill="#aaffff" cx="903.0" cy="1078.0" r="1.0"/>
     <text stroke="none" x="903.0" y="1078.0" font-size="10.0" font-family="helvetica">NT1.46</text>
    </g>
    <g>
     <circle stroke="black" stroke-width="0.5" fill="#aaffff" cx="1036.0" cy="1019.0" r="1.0"/>
     <text stroke="none" x="1036.0" y="1019.0" font-size="10.0" font-family="helvetica">NT1.47</text>
    </g>
    <g>
     <circle stroke="black" stroke-width="0.5" fill="#aaffff" cx="1036.0" cy="1429.0" r="1.0"/>
     <text stroke="none" x="1036.0" y="1429.0" font-size="20.0" font-family="helvetica">Propionibacterium acnes DSM 18977 (X53218)</text>
    </g>
    <g>
     <circle stroke="black" stroke-width="0.5" fill="#aaffff" cx="5.0" cy="1197.0" r="1.0"/>
     <text stroke="none" x="5.0" y="1197.0" font-size="10.0" font-family="helvetica">NT1.49</text>
    </g>
    <line stroke="black" x1="805.0" y1="15.0" x2="769.0" y2="44.0" stroke-width="0.5"/>
    <line stroke="black" x1="813.0" y1="133.0" x2="601.0" y2="162.0" stroke-width="0.5"/>
    <line stroke="black" x1="845.0" y1="192.0" x2="601.0" y2="162.0" stroke-width="0.5"/>
    <line stroke="black" x1="749.0" y1="251.0" x2="577.0" y2="295.0" stroke-width="0.5"/>
    <line stroke="black" x1="810.0" y1="369.0" x2="609.0" y2="339.0" stroke-width="0.5"/>
    <line stroke="black" x1="841.0" y1="310.0" x2="609.0" y2="339.0" stroke-width="0.5"/>
    <line stroke="black" x1="771.0" y1="487.0" x2="587.0" y2="517.0" stroke-width="0.5"/>
    <line stroke="black" x1="787.0" y1="605.0" x2="545.0" y2="635.0" stroke-width="0.5"/>
    <line stroke="black" x1="827.0" y1="664.0" x2="545.0" y2="635.0" stroke-width="0.5"/>
    <line stroke="black" x1="778.0" y1="842.0" x2="563.0" y2="812.0" stroke-width="0.5"/>
    <line stroke="black" x1="903.0" y1="782.0" x2="563.0" y2="812.0" stroke-width="0.5"/>
    <line stroke="black" x1="891.0" y1="1137.0" x2="707.0" y2="1181.0" stroke-width="0.5"/>
    <line stroke="black" x1="822.0" y1="960.0" x2="667.0" y2="930.0" stroke-width="0.5"/>
    <line stroke="black" x1="877.0" y1="1255.0" x2="838.0" y2="1226.0" stroke-width="0.5"/>
    <line stroke="black" x1="583.0" y1="103.0" x2="560.0" y2="200.0" stroke-width="0.5"/>
    <line stroke="black" x1="583.0" y1="103.0" x2="601.0" y2="162.0" stroke-width="0.5"/>
    <line stroke="black" x1="560.0" y1="200.0" x2="544.0" y2="336.0" stroke-width="0.5"/>
    <line stroke="black" x1="560.0" y1="200.0" x2="577.0" y2="295.0" stroke-width="0.5"/>
    <line stroke="black" x1="577.0" y1="295.0" x2="609.0" y2="339.0" stroke-width="0.5"/>
    <line stroke="black" x1="544.0" y1="336.0" x2="522.0" y2="486.0" stroke-width="0.5"/>
    <line stroke="black" x1="522.0" y1="486.0" x2="514.0" y2="604.0" stroke-width="0.5"/>
    <line stroke="black" x1="522.0" y1="486.0" x2="545.0" y2="635.0" stroke-width="0.5"/>
    <line stroke="black" x1="496.0" y1="708.0" x2="331.0" y2="966.0" stroke-width="0.5"/>
    <line stroke="black" x1="496.0" y1="708.0" x2="563.0" y2="812.0" stroke-width="0.5"/>
    <line stroke="black" x1="357.0" y1="1223.0" x2="398.0" y2="1104.0" stroke-width="0.5"/>
    <line stroke="black" x1="398.0" y1="1104.0" x2="707.0" y2="1181.0" stroke-width="0.5"/>
    <line stroke="black" x1="5.0" y1="1197.0" x2="1036.0" y2="1429.0" stroke-width="0.5"/>
    <line stroke="black" x1="5.0" y1="1197.0" x2="331.0" y2="966.0" stroke-width="0.5"/>
   </g>
  </g>
 </svg>
</svg>
