<?xml version="1.0" encoding="UTF-8"?>
<svg height="800.0" width="700.0" xmlns="http://www.w3.org/2000/svg">
 <svg>
  <g>
   <g>
    <g>
     <circle stroke="black" stroke-width="0.5" fill="#aaffff" cx="6.0" cy="356.0" r="1.0"/>
     <text stroke="none" x="6.0" y="356.0" font-size="20.0" font-family="helvetica"/>
    </g>
    <g>
     <circle stroke="black" stroke-width="0.5" fill="#aaffff" cx="41.0" cy="356.0" r="1.0"/>
     <text stroke="none" x="41.0" y="356.0" font-size="10.0" font-family="helvetica">NT1.2</text>
    </g>
    <g>
     <circle stroke="black" stroke-width="0.5" fill="#aaffff" cx="56.0" cy="507.0" r="1.0"/>
     <text stroke="none" x="56.0" y="507.0" font-size="10.0" font-family="helvetica">NT1.3</text>
    </g>
    <g>
     <circle stroke="black" stroke-width="0.5" fill="#aaffff" cx="76.0" cy="1007.0" r="1.0"/>
     <text stroke="none" x="76.0" y="1007.0" font-size="10.0" font-family="helvetica">NT1.4</text>
    </g>
    <g>
     <circle stroke="black" stroke-width="0.5" fill="#aaffff" cx="87.0" cy="266.0" r="1.0"/>
     <text stroke="none" x="87.0" y="266.0" font-size="10.0" font-family="helvetica">NT1.5</text>
    </g>
    <g>
     <circle stroke="black" stroke-width="0.5" fill="#aaffff" cx="90.0" cy="1043.0" r="1.0"/>
     <text stroke="none" x="90.0" y="1043.0" font-size="10.0" font-family="helvetica">NT1.6</text>
    </g>
    <g>
     <circle stroke="black" stroke-width="0.5" fill="#aaffff" cx="121.0" cy="337.0" r="1.0"/>
     <text stroke="none" x="121.0" y="337.0" font-size="10.0" font-family="helvetica">NT1.7</text>
    </g>
    <g>
     <circle stroke="black" stroke-width="0.5" fill="#aaffff" cx="129.0" cy="146.0" r="1.0"/>
     <text stroke="none" x="129.0" y="146.0" font-size="10.0" font-family="helvetica">NT1.8</text>
    </g>
    <g>
     <circle stroke="black" stroke-width="0.5" fill="#aaffff" cx="146.0" cy="519.0" r="1.0"/>
     <text stroke="none" x="146.0" y="519.0" font-size="10.0" font-family="helvetica">NT1.9</text>
    </g>
    <g>
     <circle stroke="black" stroke-width="0.5" fill="#aaffff" cx="151.0" cy="237.0" r="1.0"/>
     <text stroke="none" x="151.0" y="237.0" font-size="10.0" font-family="helvetica">NT1.10</text>
    </g>
    <g>
     <circle stroke="black" stroke-width="0.5" fill="#aaffff" cx="152.0" cy="646.0" r="1.0"/>
     <text stroke="none" x="152.0" y="646.0" font-size="10.0" font-family="helvetica">NT1.11</text>
    </g>
    <g>
     <circle stroke="black" stroke-width="0.5" fill="#aaffff" cx="162.0" cy="286.0" r="1.0"/>
     <text stroke="none" x="162.0" y="286.0" font-size="10.0" font-family="helvetica">NT1.12</text>
    </g>
    <g>
     <circle stroke="black" stroke-width="0.5" fill="#aaffff" cx="163.0" cy="768.0" r="1.0"/>
     <text stroke="none" x="163.0" y="768.0" font-size="10.0" font-family="helvetica">NT1.13</text>
    </g>
    <g>
     <circle stroke="black" stroke-width="0.5" fill="#aaffff" cx="165.0" cy="524.0" r="1.0"/>
     <text stroke="none" x="165.0" y="524.0" font-size="10.0" font-family="helvetica">NT1.14</text>
    </g>
    <g>
     <circle stroke="black" stroke-width="0.5" fill="#aaffff" cx="167.0" cy="849.0" r="1.0"/>
     <text stroke="none" x="167.0" y="849.0" font-size="10.0" font-family="helvetica">NT1.15</text>
    </g>
    <g>
     <circle stroke="black" stroke-width="0.5" fill="#aaffff" cx="170.0" cy="394.0" r="1.0"/>
     <text stroke="none" x="170.0" y="394.0" font-size="10.0" font-family="helvetica">NT1.16</text>
    </g>
    <g>
     <circle stroke="black" stroke-width="0.5" fill="#aaffff" cx="183.0" cy="672.0" r="1.0"/>
     <text stroke="none" x="183.0" y="672.0" font-size="10.0" font-family="helvetica">NT1.17</text>
    </g>
    <g>
     <circle stroke="black" stroke-width="0.5" fill="#aaffff" cx="185.0" cy="429.0" r="1.0"/>
     <text stroke="none" x="185.0" y="429.0" font-size="10.0" font-family="helvetica">NT1.18</text>
    </g>
    <g>
     <circle stroke="black" stroke-width="0.5" fill="#aaffff" cx="194.0" cy="901.0" r="1.0"/>
     <text stroke="none" x="194.0" y="901.0" font-size="10.0" font-family="helvetica">NT1.19</text>
    </g>
    <g>
     <circle stroke="black" stroke-width="0.5" fill="#aaffff" cx="203.0" cy="723.0" r="1.0"/>
     <text stroke="none" x="203.0" y="723.0" font-size="10.0" font-family="helvetica">NT1.20</text>
    </g>
    <g>
     <circle stroke="black" stroke-width="0.5" fill="#aaffff" cx="221.0" cy="689.0" r="1.0"/>
     <text stroke="none" x="221.0" y="689.0" font-size="10.0" font-family="helvetica">NT1.21</text>
    </g>
    <g>
     <circle stroke="black" stroke-width="0.5" fill="#aaffff" cx="262.0" cy="759.0" r="1.0"/>
     <text stroke="none" x="262.0" y="759.0" font-size="10.0" font-family="helvetica">NT1.22</text>
    </g>
    <g>
     <circle stroke="black" stroke-width="0.5" fill="#aaffff" cx="264.0" cy="75.0" r="1.0"/>
     <text stroke="none" x="264.0" y="75.0" font-size="20.0" font-family="helvetica">Salegentibacter catena HY1T (DQ540642)</text>
    </g>
    <g>
     <circle stroke="black" stroke-width="0.5" fill="#aaffff" cx="271.0" cy="500.0" r="1.0"/>
     <text stroke="none" x="271.0" y="500.0" font-size="10.0" font-family="helvetica">NT1.24</text>
    </g>
    <g>
     <circle stroke="black" stroke-width="0.5" fill="#aaffff" cx="274.0" cy="169.0" r="1.0"/>
     <text stroke="none" x="274.0" y="169.0" font-size="10.0" font-family="helvetica">NT1.25</text>
    </g>
    <g>
     <circle stroke="black" stroke-width="0.5" fill="#aaffff" cx="281.0" cy="121.0" r="1.0"/>
     <text stroke="none" x="281.0" y="121.0" font-size="20.0" font-family="helvetica">Gilvibacter sediminis Mok-1-36T (AB255368)</text>
    </g>
    <g>
     <circle stroke="black" stroke-width="0.5" fill="#aaffff" cx="285.0" cy="548.0" r="1.0"/>
     <text stroke="none" x="285.0" y="548.0" font-size="10.0" font-family="helvetica">NT1.27</text>
    </g>
    <g>
     <circle stroke="black" stroke-width="0.5" fill="#aaffff" cx="288.0" cy="358.0" r="1.0"/>
     <text stroke="none" x="288.0" y="358.0" font-size="10.0" font-family="helvetica">NT1.28</text>
    </g>
    <g>
     <circle stroke="black" stroke-width="0.5" fill="#aaffff" cx="298.0" cy="830.0" r="1.0"/>
     <text stroke="none" x="298.0" y="830.0" font-size="10.0" font-family="helvetica">NT1.29</text>
    </g>
    <g>
     <circle stroke="black" stroke-width="0.5" fill="#aaffff" cx="307.0" cy="406.0" r="1.0"/>
     <text stroke="none" x="307.0" y="406.0" font-size="10.0" font-family="helvetica">NT1.30</text>
    </g>
    <g>
     <circle stroke="black" stroke-width="0.5" fill="#aaffff" cx="309.0" cy="1019.0" r="1.0"/>
     <text stroke="none" x="309.0" y="1019.0" font-size="10.0" font-family="helvetica">NT1.31</text>
    </g>
    <g>
     <circle stroke="black" stroke-width="0.5" fill="#aaffff" cx="309.0" cy="216.0" r="1.0"/>
     <text stroke="none" x="309.0" y="216.0" font-size="10.0" font-family="helvetica">NT1.32</text>
    </g>
    <g>
     <circle stroke="black" stroke-width="0.5" fill="#aaffff" cx="315.0" cy="973.0" r="1.0"/>
     <text stroke="none" x="315.0" y="973.0" font-size="20.0" font-family="helvetica">Aquimarina muelleri KMM 602OT (AY608406)</text>
    </g>
    <g>
     <circle stroke="black" stroke-width="0.5" fill="#aaffff" cx="319.0" cy="619.0" r="1.0"/>
     <text stroke="none" x="319.0" y="619.0" font-size="20.0" font-family="helvetica">100</text>
    </g>
    <g>
     <circle stroke="black" stroke-width="0.5" fill="#aaffff" cx="326.0" cy="264.0" r="1.0"/>
     <text stroke="none" x="326.0" y="264.0" font-size="20.0" font-family="helvetica">Lacinutrix copepodicola DJ3T (AY694001)</text>
    </g>
    <g>
     <circle stroke="black" stroke-width="0.5" fill="#aaffff" cx="338.0" cy="453.0" r="1.0"/>
     <text stroke="none" x="338.0" y="453.0" font-size="20.0" font-family="helvetica">Formosa algae KMM 3553T (AY228461)</text>
    </g>
    <g>
     <circle stroke="black" stroke-width="0.5" fill="#aaffff" cx="342.0" cy="641.0" r="1.0"/>
     <text stroke="none" x="342.0" y="641.0" font-size="20.0" font-family="helvetica">Mariniflexile fucanivorans SW5T (AJ628046)</text>
    </g>
    <g>
     <circle stroke="black" stroke-width="0.5" fill="#aaffff" cx="356.0" cy="594.0" r="1.0"/>
     <text stroke="none" x="356.0" y="594.0" font-size="10.0" font-family="helvetica">NT1.38</text>
    </g>
    <g>
     <circle stroke="black" stroke-width="0.5" fill="#aaffff" cx="359.0" cy="312.0" r="1.0"/>
     <text stroke="none" x="359.0" y="312.0" font-size="20.0" font-family="helvetica">Psychroserpens burtonensis ATCC 700359T (U62913)</text>
    </g>
    <g>
     <circle stroke="black" stroke-width="0.5" fill="#aaffff" cx="380.0" cy="927.0" r="1.0"/>
     <text stroke="none" x="380.0" y="927.0" font-size="20.0" font-family="helvetica">Tamlana crocina HST1-437 (AM286230)</text>
    </g>
    <g>
     <circle stroke="black" stroke-width="0.5" fill="#aaffff" cx="400.0" cy="877.0" r="1.0"/>
     <text stroke="none" x="400.0" y="877.0" font-size="20.0" font-family="helvetica">Jejuia pallidilutea EM39T (EU443204)</text>
    </g>
    <g>
     <circle stroke="black" stroke-width="0.5" fill="#aaffff" cx="415.0" cy="1067.0" r="1.0"/>
     <text stroke="none" x="415.0" y="1067.0" font-size="10.0" font-family="helvetica">NT1.42</text>
    </g>
    <g>
     <circle stroke="black" stroke-width="0.5" fill="#aaffff" cx="424.0" cy="736.0" r="1.0"/>
     <text stroke="none" x="424.0" y="736.0" font-size="10.0" font-family="helvetica">NT1.43</text>
    </g>
    <g>
     <circle stroke="black" stroke-width="0.5" fill="#aaffff" cx="474.0" cy="783.0" r="1.0"/>
     <text stroke="none" x="474.0" y="783.0" font-size="10.0" font-family="helvetica">NT1.44</text>
    </g>
    <line stroke="black" x1="6.0" y1="356.0" x2="41.0" y2="356.0" stroke-width="0.5"/>
    <line stroke="black" x1="315.0" y1="973.0" x2="76.0" y2="1007.0" stroke-width="0.5"/>
    <line stroke="black" x1="281.0" y1="121.0" x2="129.0" y2="146.0" stroke-width="0.5"/>
    <line stroke="black" x1="326.0" y1="264.0" x2="162.0" y2="286.0" stroke-width="0.5"/>
    <line stroke="black" x1="380.0" y1="927.0" x2="194.0" y2="901.0" stroke-width="0.5"/>
    <line stroke="black" x1="400.0" y1="877.0" x2="194.0" y2="901.0" stroke-width="0.5"/>
    <line stroke="black" x1="41.0" y1="356.0" x2="56.0" y2="507.0" stroke-width="0.5"/>
    <line stroke="black" x1="56.0" y1="507.0" x2="87.0" y2="266.0" stroke-width="0.5"/>
    <line stroke="black" x1="87.0" y1="266.0" x2="121.0" y2="337.0" stroke-width="0.5"/>
    <line stroke="black" x1="121.0" y1="337.0" x2="146.0" y2="519.0" stroke-width="0.5"/>
    <line stroke="black" x1="151.0" y1="237.0" x2="162.0" y2="286.0" stroke-width="0.5"/>
    <line stroke="black" x1="152.0" y1="646.0" x2="163.0" y2="768.0" stroke-width="0.5"/>
    <line stroke="black" x1="167.0" y1="849.0" x2="194.0" y2="901.0" stroke-width="0.5"/>
    <line stroke="black" x1="264.0" y1="75.0" x2="41.0" y2="356.0" stroke-width="0.5"/>
    <line stroke="black" x1="338.0" y1="453.0" x2="185.0" y2="429.0" stroke-width="0.5"/>
    <line stroke="black" x1="359.0" y1="312.0" x2="162.0" y2="286.0" stroke-width="0.5"/>
    <line stroke="black" x1="342.0" y1="641.0" x2="319.0" y2="619.0" stroke-width="0.5"/>
   </g>
  </g>
 </svg>
</svg>
