<?xml version="1.0" encoding="UTF-8"?>
<svg height="800.0" width="700.0" xmlns="http://www.w3.org/2000/svg">
 <svg>
  <g>
   <g>
    <g>
     <circle stroke="black" stroke-width="0.5" fill="#aaffff" cx="58.0" cy="571.0" r="1.0"/>
     <text stroke="none" x="58.0" y="571.0" font-size="10.0" font-family="helvetica">NT1.1</text>
    </g>
    <g>
     <circle stroke="black" stroke-width="0.5" fill="#aaffff" cx="161.0" cy="399.0" r="1.0"/>
     <text stroke="none" x="161.0" y="399.0" font-size="20.0" font-family="helvetica">45</text>
    </g>
    <g>
     <circle stroke="black" stroke-width="0.5" fill="#aaffff" cx="203.0" cy="390.0" r="1.0"/>
     <text stroke="none" x="203.0" y="390.0" font-size="10.0" font-family="helvetica">NT1.3</text>
    </g>
    <g>
     <circle stroke="black" stroke-width="0.5" fill="#aaffff" cx="204.0" cy="133.0" r="1.0"/>
     <text stroke="none" x="204.0" y="133.0" font-size="20.0" font-family="helvetica">56</text>
    </g>
    <g>
     <circle stroke="black" stroke-width="0.5" fill="#aaffff" cx="243.0" cy="745.0" r="1.0"/>
     <text stroke="none" x="243.0" y="745.0" font-size="20.0" font-family="helvetica"/>
    </g>
    <g>
     <circle stroke="black" stroke-width="0.5" fill="#aaffff" cx="274.0" cy="36.0" r="1.0"/>
     <text stroke="none" x="274.0" y="36.0" font-size="20.0" font-family="helvetica">81</text>
    </g>
    <g>
     <circle stroke="black" stroke-width="0.5" fill="#aaffff" cx="274.0" cy="230.0" r="1.0"/>
     <text stroke="none" x="274.0" y="230.0" font-size="20.0" font-family="helvetica">40</text>
    </g>
    <g>
     <circle stroke="black" stroke-width="0.5" fill="#aaffff" cx="298.0" cy="153.0" r="1.0"/>
     <text stroke="none" x="298.0" y="153.0" font-size="20.0" font-family="helvetica">63</text>
    </g>
    <g>
     <circle stroke="black" stroke-width="0.5" fill="#aaffff" cx="309.0" cy="435.0" r="1.0"/>
     <text stroke="none" x="309.0" y="435.0" font-size="20.0" font-family="helvetica">89</text>
    </g>
    <g>
     <circle stroke="black" stroke-width="0.5" fill="#aaffff" cx="318.0" cy="661.0" r="1.0"/>
     <text stroke="none" x="318.0" y="661.0" font-size="10.0" font-family="helvetica">NT1.10</text>
    </g>
    <g>
     <circle stroke="black" stroke-width="0.5" fill="#aaffff" cx="324.0" cy="614.0" r="1.0"/>
     <text stroke="none" x="324.0" y="614.0" font-size="20.0" font-family="helvetica">45</text>
    </g>
    <g>
     <circle stroke="black" stroke-width="0.5" fill="#aaffff" cx="340.0" cy="109.0" r="1.0"/>
     <text stroke="none" x="340.0" y="109.0" font-size="20.0" font-family="helvetica">57</text>
    </g>
    <g>
     <circle stroke="black" stroke-width="0.5" fill="#aaffff" cx="340.0" cy="573.0" r="1.0"/>
     <text stroke="none" x="340.0" y="573.0" font-size="10.0" font-family="helvetica">NT1.13</text>
    </g>
    <g>
     <circle stroke="black" stroke-width="0.5" fill="#aaffff" cx="351.0" cy="400.0" r="1.0"/>
     <text stroke="none" x="351.0" y="400.0" font-size="20.0" font-family="helvetica">91</text>
    </g>
    <g>
     <circle stroke="black" stroke-width="0.5" fill="#aaffff" cx="358.0" cy="653.0" r="1.0"/>
     <text stroke="none" x="358.0" y="653.0" font-size="10.0" font-family="helvetica">NT1.15</text>
    </g>
    <g>
     <circle stroke="black" stroke-width="0.5" fill="#aaffff" cx="362.0" cy="194.0" r="1.0"/>
     <text stroke="none" x="362.0" y="194.0" font-size="20.0" font-family="helvetica">94</text>
    </g>
    <g>
     <circle stroke="black" stroke-width="0.5" fill="#aaffff" cx="395.0" cy="53.0" r="1.0"/>
     <text stroke="none" x="395.0" y="53.0" font-size="20.0" font-family="helvetica"/>
    </g>
    <g>
     <circle stroke="black" stroke-width="0.5" fill="#aaffff" cx="404.0" cy="308.0" r="1.0"/>
     <text stroke="none" x="404.0" y="308.0" font-size="20.0" font-family="helvetica"/>
    </g>
    <g>
     <circle stroke="black" stroke-width="0.5" fill="#aaffff" cx="455.0" cy="672.0" r="1.0"/>
     <text stroke="none" x="455.0" y="672.0" font-size="20.0" font-family="helvetica"/>
    </g>
    <g>
     <circle stroke="black" stroke-width="0.5" fill="#aaffff" cx="457.0" cy="472.0" r="1.0"/>
     <text stroke="none" x="457.0" y="472.0" font-size="10.0" font-family="helvetica">NT1.20</text>
    </g>
    <g>
     <circle stroke="black" stroke-width="0.5" fill="#aaffff" cx="463.0" cy="546.0" r="1.0"/>
     <text stroke="none" x="463.0" y="546.0" font-size="20.0" font-family="helvetica">99</text>
    </g>
    <g>
     <circle stroke="black" stroke-width="0.5" fill="#aaffff" cx="467.0" cy="127.0" r="1.0"/>
     <text stroke="none" x="467.0" y="127.0" font-size="20.0" font-family="helvetica"/>
    </g>
    <g>
     <circle stroke="black" stroke-width="0.5" fill="#aaffff" cx="470.0" cy="226.0" r="1.0"/>
     <text stroke="none" x="470.0" y="226.0" font-size="10.0" font-family="helvetica">NT1.23</text>
    </g>
    <g>
     <circle stroke="black" stroke-width="0.5" fill="#aaffff" cx="486.0" cy="599.0" r="1.0"/>
     <text stroke="none" x="486.0" y="599.0" font-size="20.0" font-family="helvetica"/>
    </g>
    <g>
     <circle stroke="black" stroke-width="0.5" fill="#aaffff" cx="498.0" cy="382.0" r="1.0"/>
     <text stroke="none" x="498.0" y="382.0" font-size="20.0" font-family="helvetica"/>
    </g>
    <g>
     <circle stroke="black" stroke-width="0.5" fill="#aaffff" cx="518.0" cy="564.0" r="1.0"/>
     <text stroke="none" x="518.0" y="564.0" font-size="20.0" font-family="helvetica"/>
    </g>
    <g>
     <circle stroke="black" stroke-width="0.5" fill="#aaffff" cx="519.0" cy="636.0" r="1.0"/>
     <text stroke="none" x="519.0" y="636.0" font-size="20.0" font-family="helvetica">L. kefiri LMG 948OT (AM263508)</text>
    </g>
    <g>
     <circle stroke="black" stroke-width="0.5" fill="#aaffff" cx="525.0" cy="785.0" r="1.0"/>
     <text stroke="none" x="525.0" y="785.0" font-size="20.0" font-family="helvetica">Lactococcus lactis subsp. lactis NIZO2246 (EU1 1 1280)</text>
    </g>
    <g>
     <circle stroke="black" stroke-width="0.5" fill="#aaffff" cx="533.0" cy="417.0" r="1.0"/>
     <text stroke="none" x="533.0" y="417.0" font-size="20.0" font-family="helvetica"/>
    </g>
    <g>
     <circle stroke="black" stroke-width="0.5" fill="#aaffff" cx="541.0" cy="17.0" r="1.0"/>
     <text stroke="none" x="541.0" y="17.0" font-size="20.0" font-family="helvetica">L. odoratitofui YIT 11304T(AB514843)</text>
    </g>
    <g>
     <circle stroke="black" stroke-width="0.5" fill="#aaffff" cx="586.0" cy="345.0" r="1.0"/>
     <text stroke="none" x="586.0" y="345.0" font-size="20.0" font-family="helvetica">L. kunkeei LMG 18925T (AMO87773)</text>
    </g>
    <g>
     <circle stroke="black" stroke-width="0.5" fill="#aaffff" cx="586.0" cy="253.0" r="1.0"/>
     <text stroke="none" x="586.0" y="253.0" font-size="20.0" font-family="helvetica">91</text>
    </g>
    <g>
     <circle stroke="black" stroke-width="0.5" fill="#aaffff" cx="589.0" cy="709.0" r="1.0"/>
     <text stroke="none" x="589.0" y="709.0" font-size="20.0" font-family="helvetica">L. diolivorans LMG 19667T (AMO87763)</text>
    </g>
    <g>
     <circle stroke="black" stroke-width="0.5" fill="#aaffff" cx="595.0" cy="90.0" r="1.0"/>
     <text stroke="none" x="595.0" y="90.0" font-size="20.0" font-family="helvetica">L. paracollinoldes LMG 224737 (AMO87764)</text>
    </g>
    <g>
     <circle stroke="black" stroke-width="0.5" fill="#aaffff" cx="599.0" cy="163.0" r="1.0"/>
     <text stroke="none" x="599.0" y="163.0" font-size="20.0" font-family="helvetica">L. hammesii LMG 23O74T (AMO87767)</text>
    </g>
    <g>
     <circle stroke="black" stroke-width="0.5" fill="#aaffff" cx="601.0" cy="490.0" r="1.0"/>
     <text stroke="none" x="601.0" y="490.0" font-size="20.0" font-family="helvetica">L. fructivorans LMG 92017 (AMO87770)</text>
    </g>
    <g>
     <circle stroke="black" stroke-width="0.5" fill="#aaffff" cx="601.0" cy="454.0" r="1.0"/>
     <text stroke="none" x="601.0" y="454.0" font-size="20.0" font-family="helvetica">L. homohiochii LMG 1893GT (AM087771)</text>
    </g>
    <g>
     <circle stroke="black" stroke-width="0.5" fill="#aaffff" cx="619.0" cy="200.0" r="1.0"/>
     <text stroke="none" x="619.0" y="200.0" font-size="20.0" font-family="helvetica"/>
    </g>
    <g>
     <circle stroke="black" stroke-width="0.5" fill="#aaffff" cx="624.0" cy="527.0" r="1.0"/>
     <text stroke="none" x="624.0" y="527.0" font-size="20.0" font-family="helvetica">L. buchneri LMG 6892T (AMO87681)</text>
    </g>
    <g>
     <circle stroke="black" stroke-width="0.5" fill="#aaffff" cx="645.0" cy="272.0" r="1.0"/>
     <text stroke="none" x="645.0" y="272.0" font-size="20.0" font-family="helvetica">L. acidifarinae LMG 222007 (AM087757)</text>
    </g>
    <g>
     <circle stroke="black" stroke-width="0.5" fill="#aaffff" cx="681.0" cy="236.0" r="1.0"/>
     <text stroke="none" x="681.0" y="236.0" font-size="20.0" font-family="helvetica">L. zymae LMG 221981 (AMO87753)</text>
    </g>
    <line stroke="black" x1="595.0" y1="90.0" x2="340.0" y2="109.0" stroke-width="0.5"/>
    <line stroke="black" x1="599.0" y1="163.0" x2="362.0" y2="194.0" stroke-width="0.5"/>
    <line stroke="black" x1="645.0" y1="272.0" x2="586.0" y2="253.0" stroke-width="0.5"/>
    <line stroke="black" x1="681.0" y1="236.0" x2="586.0" y2="253.0" stroke-width="0.5"/>
    <line stroke="black" x1="601.0" y1="490.0" x2="457.0" y2="472.0" stroke-width="0.5"/>
    <line stroke="black" x1="601.0" y1="454.0" x2="457.0" y2="472.0" stroke-width="0.5"/>
    <line stroke="black" x1="274.0" y1="36.0" x2="395.0" y2="53.0" stroke-width="0.5"/>
    <line stroke="black" x1="274.0" y1="36.0" x2="204.0" y2="133.0" stroke-width="0.5"/>
    <line stroke="black" x1="204.0" y1="133.0" x2="274.0" y2="230.0" stroke-width="0.5"/>
    <line stroke="black" x1="204.0" y1="133.0" x2="203.0" y2="390.0" stroke-width="0.5"/>
    <line stroke="black" x1="274.0" y1="230.0" x2="404.0" y2="308.0" stroke-width="0.5"/>
    <line stroke="black" x1="274.0" y1="230.0" x2="298.0" y2="153.0" stroke-width="0.5"/>
    <line stroke="black" x1="298.0" y1="153.0" x2="362.0" y2="194.0" stroke-width="0.5"/>
    <line stroke="black" x1="298.0" y1="153.0" x2="340.0" y2="109.0" stroke-width="0.5"/>
    <line stroke="black" x1="362.0" y1="194.0" x2="470.0" y2="226.0" stroke-width="0.5"/>
    <line stroke="black" x1="340.0" y1="109.0" x2="467.0" y2="127.0" stroke-width="0.5"/>
    <line stroke="black" x1="203.0" y1="390.0" x2="161.0" y2="399.0" stroke-width="0.5"/>
    <line stroke="black" x1="203.0" y1="390.0" x2="309.0" y2="435.0" stroke-width="0.5"/>
    <line stroke="black" x1="161.0" y1="399.0" x2="58.0" y2="571.0" stroke-width="0.5"/>
    <line stroke="black" x1="161.0" y1="399.0" x2="318.0" y2="661.0" stroke-width="0.5"/>
    <line stroke="black" x1="470.0" y1="226.0" x2="619.0" y2="200.0" stroke-width="0.5"/>
    <line stroke="black" x1="470.0" y1="226.0" x2="586.0" y2="253.0" stroke-width="0.5"/>
    <line stroke="black" x1="309.0" y1="435.0" x2="457.0" y2="472.0" stroke-width="0.5"/>
    <line stroke="black" x1="309.0" y1="435.0" x2="351.0" y2="400.0" stroke-width="0.5"/>
    <line stroke="black" x1="351.0" y1="400.0" x2="533.0" y2="417.0" stroke-width="0.5"/>
    <line stroke="black" x1="351.0" y1="400.0" x2="498.0" y2="382.0" stroke-width="0.5"/>
    <line stroke="black" x1="58.0" y1="571.0" x2="243.0" y2="745.0" stroke-width="0.5"/>
    <line stroke="black" x1="318.0" y1="661.0" x2="324.0" y2="614.0" stroke-width="0.5"/>
    <line stroke="black" x1="324.0" y1="614.0" x2="358.0" y2="653.0" stroke-width="0.5"/>
    <line stroke="black" x1="324.0" y1="614.0" x2="340.0" y2="573.0" stroke-width="0.5"/>
    <line stroke="black" x1="340.0" y1="573.0" x2="486.0" y2="599.0" stroke-width="0.5"/>
    <line stroke="black" x1="340.0" y1="573.0" x2="463.0" y2="546.0" stroke-width="0.5"/>
    <line stroke="black" x1="358.0" y1="653.0" x2="455.0" y2="672.0" stroke-width="0.5"/>
    <line stroke="black" x1="463.0" y1="546.0" x2="518.0" y2="564.0" stroke-width="0.5"/>
    <line stroke="black" x1="525.0" y1="785.0" x2="58.0" y2="571.0" stroke-width="0.5"/>
    <line stroke="black" x1="586.0" y1="345.0" x2="203.0" y2="390.0" stroke-width="0.5"/>
    <line stroke="black" x1="589.0" y1="709.0" x2="318.0" y2="661.0" stroke-width="0.5"/>
    <line stroke="black" x1="519.0" y1="636.0" x2="358.0" y2="653.0" stroke-width="0.5"/>
    <line stroke="black" x1="541.0" y1="17.0" x2="274.0" y2="36.0" stroke-width="0.5"/>
    <line stroke="black" x1="624.0" y1="527.0" x2="463.0" y2="546.0" stroke-width="0.5"/>
   </g>
  </g>
 </svg>
</svg>
