<?xml version="1.0" encoding="UTF-8"?>
<svg height="800.0" width="700.0" xmlns="http://www.w3.org/2000/svg">
 <svg>
  <g>
   <g>
    <g>
     <circle stroke="black" stroke-width="0.5" fill="#aaffff" cx="213.0" cy="228.0" r="1.0"/>
     <text stroke="none" x="213.0" y="228.0" font-size="10.0" font-family="helvetica">NT1.1</text>
    </g>
    <g>
     <circle stroke="black" stroke-width="0.5" fill="#aaffff" cx="310.0" cy="277.0" r="1.0"/>
     <text stroke="none" x="310.0" y="277.0" font-size="10.0" font-family="helvetica">NT1.2</text>
    </g>
    <g>
     <circle stroke="black" stroke-width="0.5" fill="#aaffff" cx="318.0" cy="177.0" r="1.0"/>
     <text stroke="none" x="318.0" y="177.0" font-size="10.0" font-family="helvetica">NT1.3</text>
    </g>
    <g>
     <circle stroke="black" stroke-width="0.5" fill="#aaffff" cx="427.0" cy="257.0" r="1.0"/>
     <text stroke="none" x="427.0" y="257.0" font-size="20.0" font-family="helvetica">Glycomyces tenuis IFO 159047 (D85482)</text>
    </g>
    <g>
     <circle stroke="black" stroke-width="0.5" fill="#aaffff" cx="429.0" cy="217.0" r="1.0"/>
     <text stroke="none" x="429.0" y="217.0" font-size="20.0" font-family="helvetica">Glycomyces sambucus E71T (DQ460469)</text>
    </g>
    <g>
     <circle stroke="black" stroke-width="0.5" fill="#aaffff" cx="437.0" cy="138.0" r="1.0"/>
     <text stroke="none" x="437.0" y="138.0" font-size="10.0" font-family="helvetica">NT1.6</text>
    </g>
    <g>
     <circle stroke="black" stroke-width="0.5" fill="#aaffff" cx="442.0" cy="299.0" r="1.0"/>
     <text stroke="none" x="442.0" y="299.0" font-size="20.0" font-family="helvetica">Glycomyces arizonensis NRRL B-161537 (AY462042)</text>
    </g>
    <g>
     <circle stroke="black" stroke-width="0.5" fill="#aaffff" cx="449.0" cy="99.0" r="1.0"/>
     <text stroke="none" x="449.0" y="99.0" font-size="10.0" font-family="helvetica">NT1.8</text>
    </g>
    <g>
     <circle stroke="black" stroke-width="0.5" fill="#aaffff" cx="488.0" cy="63.0" r="1.0"/>
     <text stroke="none" x="488.0" y="63.0" font-size="10.0" font-family="helvetica">NT1.9</text>
    </g>
    <g>
     <circle stroke="black" stroke-width="0.5" fill="#aaffff" cx="493.0" cy="33.0" r="1.0"/>
     <text stroke="none" x="493.0" y="33.0" font-size="10.0" font-family="helvetica">NT1.10</text>
    </g>
    <g>
     <circle stroke="black" stroke-width="0.5" fill="#aaffff" cx="494.0" cy="11.0" r="1.0"/>
     <text stroke="none" x="494.0" y="11.0" font-size="20.0" font-family="helvetica">Glycomyces Iechevalierae NRRL B-16149T(AY462O41)</text>
    </g>
    <g>
     <circle stroke="black" stroke-width="0.5" fill="#aaffff" cx="498.0" cy="94.0" r="1.0"/>
     <text stroke="none" x="498.0" y="94.0" font-size="20.0" font-family="helvetica">Glycomyces algeriensis NRRL B-16327T (AY462044)</text>
    </g>
    <g>
     <circle stroke="black" stroke-width="0.5" fill="#aaffff" cx="500.0" cy="176.0" r="1.0"/>
     <text stroke="none" x="500.0" y="176.0" font-size="20.0" font-family="helvetica">Glycomyces harbinensis IFO 144877 (D85483)</text>
    </g>
    <g>
     <circle stroke="black" stroke-width="0.5" fill="#aaffff" cx="502.0" cy="53.0" r="1.0"/>
     <text stroke="none" x="502.0" y="53.0" font-size="20.0" font-family="helvetica">Glycomyces rutgersensis IFO 14488T (D85484)</text>
    </g>
    <g>
     <circle stroke="black" stroke-width="0.5" fill="#aaffff" cx="513.0" cy="135.0" r="1.0"/>
     <text stroke="none" x="513.0" y="135.0" font-size="20.0" font-family="helvetica"> Strain YIM 56134T (EU200681)</text>
    </g>
    <g>
     <circle stroke="black" stroke-width="0.5" fill="#aaffff" cx="601.0" cy="341.0" r="1.0"/>
     <text stroke="none" x="601.0" y="341.0" font-size="20.0" font-family="helvetica">Stackebrandtia nassauensis NRRL B-16338T (AY650268)</text>
    </g>
    <line stroke="black" x1="494.0" y1="11.0" x2="493.0" y2="33.0" stroke-width="0.5"/>
    <line stroke="black" x1="502.0" y1="53.0" x2="493.0" y2="33.0" stroke-width="0.5"/>
    <line stroke="black" x1="498.0" y1="94.0" x2="488.0" y2="63.0" stroke-width="0.5"/>
    <line stroke="black" x1="513.0" y1="135.0" x2="449.0" y2="99.0" stroke-width="0.5"/>
    <line stroke="black" x1="500.0" y1="176.0" x2="437.0" y2="138.0" stroke-width="0.5"/>
    <line stroke="black" x1="429.0" y1="217.0" x2="318.0" y2="177.0" stroke-width="0.5"/>
    <line stroke="black" x1="427.0" y1="257.0" x2="310.0" y2="277.0" stroke-width="0.5"/>
    <line stroke="black" x1="493.0" y1="33.0" x2="488.0" y2="63.0" stroke-width="0.5"/>
    <line stroke="black" x1="488.0" y1="63.0" x2="449.0" y2="99.0" stroke-width="0.5"/>
    <line stroke="black" x1="449.0" y1="99.0" x2="437.0" y2="138.0" stroke-width="0.5"/>
    <line stroke="black" x1="437.0" y1="138.0" x2="318.0" y2="177.0" stroke-width="0.5"/>
    <line stroke="black" x1="318.0" y1="177.0" x2="213.0" y2="228.0" stroke-width="0.5"/>
    <line stroke="black" x1="213.0" y1="228.0" x2="310.0" y2="277.0" stroke-width="0.5"/>
    <line stroke="black" x1="601.0" y1="341.0" x2="213.0" y2="228.0" stroke-width="0.5"/>
    <line stroke="black" x1="442.0" y1="299.0" x2="310.0" y2="277.0" stroke-width="0.5"/>
   </g>
  </g>
 </svg>
</svg>
