<?xml version="1.0" encoding="UTF-8"?>
<svg height="800.0" width="700.0" xmlns="http://www.w3.org/2000/svg">
 <svg>
  <g>
   <g>
    <g>
     <circle stroke="black" stroke-width="0.5" fill="#aaffff" cx="47.0" cy="471.0" r="1.0"/>
     <text stroke="none" x="47.0" y="471.0" font-size="10.0" font-family="helvetica">NT1.1</text>
    </g>
    <g>
     <circle stroke="black" stroke-width="0.5" fill="#aaffff" cx="65.0" cy="417.0" r="1.0"/>
     <text stroke="none" x="65.0" y="417.0" font-size="10.0" font-family="helvetica">NT1.2</text>
    </g>
    <g>
     <circle stroke="black" stroke-width="0.5" fill="#aaffff" cx="71.0" cy="376.0" r="1.0"/>
     <text stroke="none" x="71.0" y="376.0" font-size="20.0" font-family="helvetica"/>
    </g>
    <g>
     <circle stroke="black" stroke-width="0.5" fill="#aaffff" cx="78.0" cy="530.0" r="1.0"/>
     <text stroke="none" x="78.0" y="530.0" font-size="10.0" font-family="helvetica">NT1.4</text>
    </g>
    <g>
     <circle stroke="black" stroke-width="0.5" fill="#aaffff" cx="134.0" cy="319.0" r="1.0"/>
     <text stroke="none" x="134.0" y="319.0" font-size="10.0" font-family="helvetica">NT1.5</text>
    </g>
    <g>
     <circle stroke="black" stroke-width="0.5" fill="#aaffff" cx="141.0" cy="284.0" r="1.0"/>
     <text stroke="none" x="141.0" y="284.0" font-size="20.0" font-family="helvetica"/>
    </g>
    <g>
     <circle stroke="black" stroke-width="0.5" fill="#aaffff" cx="144.0" cy="182.0" r="1.0"/>
     <text stroke="none" x="144.0" y="182.0" font-size="10.0" font-family="helvetica">NT1.7</text>
    </g>
    <g>
     <circle stroke="black" stroke-width="0.5" fill="#aaffff" cx="146.0" cy="178.0" r="1.0"/>
     <text stroke="none" x="146.0" y="178.0" font-size="10.0" font-family="helvetica">NT1.8</text>
    </g>
    <g>
     <circle stroke="black" stroke-width="0.5" fill="#aaffff" cx="151.0" cy="178.0" r="1.0"/>
     <text stroke="none" x="151.0" y="178.0" font-size="20.0" font-family="helvetica"/>
    </g>
    <g>
     <circle stroke="black" stroke-width="0.5" fill="#aaffff" cx="158.0" cy="591.0" r="1.0"/>
     <text stroke="none" x="158.0" y="591.0" font-size="10.0" font-family="helvetica">NT1.10</text>
    </g>
    <g>
     <circle stroke="black" stroke-width="0.5" fill="#aaffff" cx="187.0" cy="141.0" r="1.0"/>
     <text stroke="none" x="187.0" y="141.0" font-size="10.0" font-family="helvetica">NT1.11</text>
    </g>
    <g>
     <circle stroke="black" stroke-width="0.5" fill="#aaffff" cx="192.0" cy="359.0" r="1.0"/>
     <text stroke="none" x="192.0" y="359.0" font-size="10.0" font-family="helvetica">NT1.12</text>
    </g>
    <g>
     <circle stroke="black" stroke-width="0.5" fill="#aaffff" cx="193.0" cy="140.0" r="1.0"/>
     <text stroke="none" x="193.0" y="140.0" font-size="20.0" font-family="helvetica"/>
    </g>
    <g>
     <circle stroke="black" stroke-width="0.5" fill="#aaffff" cx="197.0" cy="387.0" r="1.0"/>
     <text stroke="none" x="197.0" y="387.0" font-size="20.0" font-family="helvetica"/>
    </g>
    <g>
     <circle stroke="black" stroke-width="0.5" fill="#aaffff" cx="204.0" cy="125.0" r="1.0"/>
     <text stroke="none" x="204.0" y="125.0" font-size="10.0" font-family="helvetica">NT1.15</text>
    </g>
    <g>
     <circle stroke="black" stroke-width="0.5" fill="#aaffff" cx="209.0" cy="101.0" r="1.0"/>
     <text stroke="none" x="209.0" y="101.0" font-size="20.0" font-family="helvetica"/>
    </g>
    <g>
     <circle stroke="black" stroke-width="0.5" fill="#aaffff" cx="217.0" cy="349.0" r="1.0"/>
     <text stroke="none" x="217.0" y="349.0" font-size="20.0" font-family="helvetica"/>
    </g>
    <g>
     <circle stroke="black" stroke-width="0.5" fill="#aaffff" cx="218.0" cy="68.0" r="1.0"/>
     <text stroke="none" x="218.0" y="68.0" font-size="10.0" font-family="helvetica">NT1.18</text>
    </g>
    <g>
     <circle stroke="black" stroke-width="0.5" fill="#aaffff" cx="220.0" cy="66.0" r="1.0"/>
     <text stroke="none" x="220.0" y="66.0" font-size="10.0" font-family="helvetica">NT1.19</text>
    </g>
    <g>
     <circle stroke="black" stroke-width="0.5" fill="#aaffff" cx="224.0" cy="66.0" r="1.0"/>
     <text stroke="none" x="224.0" y="66.0" font-size="20.0" font-family="helvetica"/>
    </g>
    <g>
     <circle stroke="black" stroke-width="0.5" fill="#aaffff" cx="235.0" cy="427.0" r="1.0"/>
     <text stroke="none" x="235.0" y="427.0" font-size="20.0" font-family="helvetica">Polaribacter dokdonensis DSW-57 (DQ004686)</text>
    </g>
    <g>
     <circle stroke="black" stroke-width="0.5" fill="#aaffff" cx="235.0" cy="312.0" r="1.0"/>
     <text stroke="none" x="235.0" y="312.0" font-size="20.0" font-family="helvetica"/>
    </g>
    <g>
     <circle stroke="black" stroke-width="0.5" fill="#aaffff" cx="237.0" cy="221.0" r="1.0"/>
     <text stroke="none" x="237.0" y="221.0" font-size="20.0" font-family="helvetica">Tenaoibaculum maritimum IFO 159467 (AB078057)</text>
    </g>
    <g>
     <circle stroke="black" stroke-width="0.5" fill="#aaffff" cx="240.0" cy="509.0" r="1.0"/>
     <text stroke="none" x="240.0" y="509.0" font-size="20.0" font-family="helvetica">Kordia algicida OT-17 (AY195836)</text>
    </g>
    <g>
     <circle stroke="black" stroke-width="0.5" fill="#aaffff" cx="242.0" cy="46.0" r="1.0"/>
     <text stroke="none" x="242.0" y="46.0" font-size="10.0" font-family="helvetica">NT1.25</text>
    </g>
    <g>
     <circle stroke="black" stroke-width="0.5" fill="#aaffff" cx="247.0" cy="36.0" r="1.0"/>
     <text stroke="none" x="247.0" y="36.0" font-size="20.0" font-family="helvetica"/>
    </g>
    <g>
     <circle stroke="black" stroke-width="0.5" fill="#aaffff" cx="250.0" cy="97.0" r="1.0"/>
     <text stroke="none" x="250.0" y="97.0" font-size="20.0" font-family="helvetica">Tenacibaculum Iutimaris TF-267 (AY661691)</text>
    </g>
    <g>
     <circle stroke="black" stroke-width="0.5" fill="#aaffff" cx="251.0" cy="273.0" r="1.0"/>
     <text stroke="none" x="251.0" y="273.0" font-size="10.0" font-family="helvetica">NT1.28</text>
    </g>
    <g>
     <circle stroke="black" stroke-width="0.5" fill="#aaffff" cx="254.0" cy="139.0" r="1.0"/>
     <text stroke="none" x="254.0" y="139.0" font-size="20.0" font-family="helvetica">Tenacibaculum mesophilum MBIC 11407 (AB032501)</text>
    </g>
    <g>
     <circle stroke="black" stroke-width="0.5" fill="#aaffff" cx="257.0" cy="282.0" r="1.0"/>
     <text stroke="none" x="257.0" y="282.0" font-size="20.0" font-family="helvetica"/>
    </g>
    <g>
     <circle stroke="black" stroke-width="0.5" fill="#aaffff" cx="258.0" cy="550.0" r="1.0"/>
     <text stroke="none" x="258.0" y="550.0" font-size="20.0" font-family="helvetica">Cellulophaga Iytica ATCC 231787 (M62796)</text>
    </g>
    <g>
     <circle stroke="black" stroke-width="0.5" fill="#aaffff" cx="261.0" cy="262.0" r="1.0"/>
     <text stroke="none" x="261.0" y="262.0" font-size="20.0" font-family="helvetica">Polarfbacter glomeratus ATCC 438447 (M58775)</text>
    </g>
    <g>
     <circle stroke="black" stroke-width="0.5" fill="#aaffff" cx="261.0" cy="468.0" r="1.0"/>
     <text stroke="none" x="261.0" y="468.0" font-size="20.0" font-family="helvetica">Psychroserpens burtonensis ACAM 1887 (U62913)</text>
    </g>
    <g>
     <circle stroke="black" stroke-width="0.5" fill="#aaffff" cx="268.0" cy="385.0" r="1.0"/>
     <text stroke="none" x="268.0" y="385.0" font-size="20.0" font-family="helvetica">Polaribacter irgensii ATCC 7003987 (M61002)</text>
    </g>
    <g>
     <circle stroke="black" stroke-width="0.5" fill="#aaffff" cx="269.0" cy="344.0" r="1.0"/>
     <text stroke="none" x="269.0" y="344.0" font-size="20.0" font-family="helvetica">Polaribacter franzmannii ATCC 7003997 (U14586)</text>
    </g>
    <g>
     <circle stroke="black" stroke-width="0.5" fill="#aaffff" cx="271.0" cy="15.0" r="1.0"/>
     <text stroke="none" x="271.0" y="15.0" font-size="20.0" font-family="helvetica">Tenacibaculum skagerrakense ATCC BAA-4587 (AF459612)</text>
    </g>
    <g>
     <circle stroke="black" stroke-width="0.5" fill="#aaffff" cx="280.0" cy="591.0" r="1.0"/>
     <text stroke="none" x="280.0" y="591.0" font-size="20.0" font-family="helvetica">Flavobacterium aquatile IAM 123167 (M62797)</text>
    </g>
    <g>
     <circle stroke="black" stroke-width="0.5" fill="#aaffff" cx="283.0" cy="180.0" r="1.0"/>
     <text stroke="none" x="283.0" y="180.0" font-size="20.0" font-family="helvetica">Tenacibaculum ovolyticum IAM 143187 (AB032506)</text>
    </g>
    <g>
     <circle stroke="black" stroke-width="0.5" fill="#aaffff" cx="284.0" cy="304.0" r="1.0"/>
     <text stroke="none" x="284.0" y="304.0" font-size="20.0" font-family="helvetica">Polaribacter filamentus ATCC 7003977 (U73726)</text>
    </g>
    <g>
     <circle stroke="black" stroke-width="0.5" fill="#aaffff" cx="298.0" cy="56.0" r="1.0"/>
     <text stroke="none" x="298.0" y="56.0" font-size="20.0" font-family="helvetica">Tenacibaculum amylolyticum MBIC 43557 (AB032505)</text>
    </g>
    <g>
     <circle stroke="black" stroke-width="0.5" fill="#aaffff" cx="607.0" cy="649.0" r="1.0"/>
     <text stroke="none" x="607.0" y="649.0" font-size="20.0" font-family="helvetica"/>
    </g>
    <line stroke="black" x1="247.0" y1="36.0" x2="242.0" y2="46.0" stroke-width="0.5"/>
    <line stroke="black" x1="224.0" y1="66.0" x2="220.0" y2="66.0" stroke-width="0.5"/>
    <line stroke="black" x1="209.0" y1="101.0" x2="204.0" y2="125.0" stroke-width="0.5"/>
    <line stroke="black" x1="193.0" y1="140.0" x2="187.0" y2="141.0" stroke-width="0.5"/>
    <line stroke="black" x1="254.0" y1="139.0" x2="204.0" y2="125.0" stroke-width="0.5"/>
    <line stroke="black" x1="151.0" y1="178.0" x2="146.0" y2="178.0" stroke-width="0.5"/>
    <line stroke="black" x1="141.0" y1="284.0" x2="134.0" y2="319.0" stroke-width="0.5"/>
    <line stroke="black" x1="71.0" y1="376.0" x2="65.0" y2="417.0" stroke-width="0.5"/>
    <line stroke="black" x1="197.0" y1="387.0" x2="192.0" y2="359.0" stroke-width="0.5"/>
    <line stroke="black" x1="217.0" y1="349.0" x2="192.0" y2="359.0" stroke-width="0.5"/>
    <line stroke="black" x1="235.0" y1="312.0" x2="192.0" y2="359.0" stroke-width="0.5"/>
    <line stroke="black" x1="257.0" y1="282.0" x2="251.0" y2="273.0" stroke-width="0.5"/>
    <line stroke="black" x1="261.0" y1="262.0" x2="251.0" y2="273.0" stroke-width="0.5"/>
    <line stroke="black" x1="240.0" y1="509.0" x2="78.0" y2="530.0" stroke-width="0.5"/>
    <line stroke="black" x1="280.0" y1="591.0" x2="158.0" y2="591.0" stroke-width="0.5"/>
    <line stroke="black" x1="242.0" y1="46.0" x2="220.0" y2="66.0" stroke-width="0.5"/>
    <line stroke="black" x1="218.0" y1="68.0" x2="220.0" y2="66.0" stroke-width="0.5"/>
    <line stroke="black" x1="218.0" y1="68.0" x2="204.0" y2="125.0" stroke-width="0.5"/>
    <line stroke="black" x1="204.0" y1="125.0" x2="187.0" y2="141.0" stroke-width="0.5"/>
    <line stroke="black" x1="187.0" y1="141.0" x2="146.0" y2="178.0" stroke-width="0.5"/>
    <line stroke="black" x1="146.0" y1="178.0" x2="144.0" y2="182.0" stroke-width="0.5"/>
    <line stroke="black" x1="144.0" y1="182.0" x2="134.0" y2="319.0" stroke-width="0.5"/>
    <line stroke="black" x1="134.0" y1="319.0" x2="65.0" y2="417.0" stroke-width="0.5"/>
    <line stroke="black" x1="134.0" y1="319.0" x2="192.0" y2="359.0" stroke-width="0.5"/>
    <line stroke="black" x1="192.0" y1="359.0" x2="251.0" y2="273.0" stroke-width="0.5"/>
    <line stroke="black" x1="65.0" y1="417.0" x2="47.0" y2="471.0" stroke-width="0.5"/>
    <line stroke="black" x1="47.0" y1="471.0" x2="158.0" y2="591.0" stroke-width="0.5"/>
    <line stroke="black" x1="158.0" y1="591.0" x2="78.0" y2="530.0" stroke-width="0.5"/>
    <line stroke="black" x1="237.0" y1="221.0" x2="144.0" y2="182.0" stroke-width="0.5"/>
    <line stroke="black" x1="261.0" y1="468.0" x2="65.0" y2="417.0" stroke-width="0.5"/>
    <line stroke="black" x1="258.0" y1="550.0" x2="78.0" y2="530.0" stroke-width="0.5"/>
    <line stroke="black" x1="607.0" y1="649.0" x2="47.0" y2="471.0" stroke-width="0.5"/>
    <line stroke="black" x1="235.0" y1="427.0" x2="192.0" y2="359.0" stroke-width="0.5"/>
    <line stroke="black" x1="283.0" y1="180.0" x2="187.0" y2="141.0" stroke-width="0.5"/>
    <line stroke="black" x1="250.0" y1="97.0" x2="218.0" y2="68.0" stroke-width="0.5"/>
    <line stroke="black" x1="268.0" y1="385.0" x2="192.0" y2="359.0" stroke-width="0.5"/>
    <line stroke="black" x1="269.0" y1="344.0" x2="192.0" y2="359.0" stroke-width="0.5"/>
    <line stroke="black" x1="271.0" y1="15.0" x2="242.0" y2="46.0" stroke-width="0.5"/>
    <line stroke="black" x1="284.0" y1="304.0" x2="251.0" y2="273.0" stroke-width="0.5"/>
    <line stroke="black" x1="298.0" y1="56.0" x2="242.0" y2="46.0" stroke-width="0.5"/>
   </g>
  </g>
 </svg>
</svg>
