<?xml version="1.0" encoding="UTF-8"?>
<svg height="800.0" width="700.0" xmlns="http://www.w3.org/2000/svg">
 <svg>
  <g>
   <g>
    <g>
     <circle stroke="black" stroke-width="0.5" fill="#aaffff" cx="186.0" cy="700.0" r="1.0"/>
     <text stroke="none" x="186.0" y="700.0" font-size="10.0" font-family="helvetica">NT1.1</text>
    </g>
    <g>
     <circle stroke="black" stroke-width="0.5" fill="#aaffff" cx="204.0" cy="761.0" r="1.0"/>
     <text stroke="none" x="204.0" y="761.0" font-size="20.0" font-family="helvetica"> M. barkeri DSM 20145 (X77446)</text>
    </g>
    <g>
     <circle stroke="black" stroke-width="0.5" fill="#aaffff" cx="206.0" cy="638.0" r="1.0"/>
     <text stroke="none" x="206.0" y="638.0" font-size="10.0" font-family="helvetica">NT1.3</text>
    </g>
    <g>
     <circle stroke="black" stroke-width="0.5" fill="#aaffff" cx="273.0" cy="811.0" r="1.0"/>
     <text stroke="none" x="273.0" y="811.0" font-size="20.0" font-family="helvetica">Rarobacter faecitabidus DSM 4813T (Y17870)</text>
    </g>
    <g>
     <circle stroke="black" stroke-width="0.5" fill="#aaffff" cx="275.0" cy="566.0" r="1.0"/>
     <text stroke="none" x="275.0" y="566.0" font-size="10.0" font-family="helvetica">NT1.5</text>
    </g>
    <g>
     <circle stroke="black" stroke-width="0.5" fill="#aaffff" cx="294.0" cy="637.0" r="1.0"/>
     <text stroke="none" x="294.0" y="637.0" font-size="10.0" font-family="helvetica">NT1.6</text>
    </g>
    <g>
     <circle stroke="black" stroke-width="0.5" fill="#aaffff" cx="309.0" cy="494.0" r="1.0"/>
     <text stroke="none" x="309.0" y="494.0" font-size="10.0" font-family="helvetica">NT1.7</text>
    </g>
    <g>
     <circle stroke="black" stroke-width="0.5" fill="#aaffff" cx="316.0" cy="611.0" r="1.0"/>
     <text stroke="none" x="316.0" y="611.0" font-size="20.0" font-family="helvetica"> M. marinilacus YM11-6077 (AB286020)</text>
    </g>
    <g>
     <circle stroke="black" stroke-width="0.5" fill="#aaffff" cx="316.0" cy="661.0" r="1.0"/>
     <text stroke="none" x="316.0" y="661.0" font-size="20.0" font-family="helvetica"> M. paludicola US15T (AJ853909)</text>
    </g>
    <g>
     <circle stroke="black" stroke-width="0.5" fill="#aaffff" cx="325.0" cy="426.0" r="1.0"/>
     <text stroke="none" x="325.0" y="426.0" font-size="10.0" font-family="helvetica">NT1.10</text>
    </g>
    <g>
     <circle stroke="black" stroke-width="0.5" fill="#aaffff" cx="330.0" cy="487.0" r="1.0"/>
     <text stroke="none" x="330.0" y="487.0" font-size="10.0" font-family="helvetica">NT1.11</text>
    </g>
    <g>
     <circle stroke="black" stroke-width="0.5" fill="#aaffff" cx="338.0" cy="364.0" r="1.0"/>
     <text stroke="none" x="338.0" y="364.0" font-size="10.0" font-family="helvetica">NT1.12</text>
    </g>
    <g>
     <circle stroke="black" stroke-width="0.5" fill="#aaffff" cx="339.0" cy="513.0" r="1.0"/>
     <text stroke="none" x="339.0" y="513.0" font-size="20.0" font-family="helvetica">M. arborescens DSM 207547 (X77443)</text>
    </g>
    <g>
     <circle stroke="black" stroke-width="0.5" fill="#aaffff" cx="343.0" cy="711.0" r="1.0"/>
     <text stroke="none" x="343.0" y="711.0" font-size="20.0" font-family="helvetica">M. gubbeenense LMG S-19263T (AF263563)</text>
    </g>
    <g>
     <circle stroke="black" stroke-width="0.5" fill="#aaffff" cx="353.0" cy="463.0" r="1.0"/>
     <text stroke="none" x="353.0" y="463.0" font-size="20.0" font-family="helvetica">M. imperiale IFO 12610T (ABOO7414)</text>
    </g>
    <g>
     <circle stroke="black" stroke-width="0.5" fill="#aaffff" cx="363.0" cy="563.0" r="1.0"/>
     <text stroke="none" x="363.0" y="563.0" font-size="20.0" font-family="helvetica">M. ulmi XIL02T (AY062021)</text>
    </g>
    <g>
     <circle stroke="black" stroke-width="0.5" fill="#aaffff" cx="365.0" cy="414.0" r="1.0"/>
     <text stroke="none" x="365.0" y="414.0" font-size="20.0" font-family="helvetica"> M. sediminicola YM10-8477 (AB286021)</text>
    </g>
    <g>
     <circle stroke="black" stroke-width="0.5" fill="#aaffff" cx="422.0" cy="315.0" r="1.0"/>
     <text stroke="none" x="422.0" y="315.0" font-size="10.0" font-family="helvetica">NT1.18</text>
    </g>
    <g>
     <circle stroke="black" stroke-width="0.5" fill="#aaffff" cx="426.0" cy="265.0" r="1.0"/>
     <text stroke="none" x="426.0" y="265.0" font-size="10.0" font-family="helvetica">NT1.19</text>
    </g>
    <g>
     <circle stroke="black" stroke-width="0.5" fill="#aaffff" cx="431.0" cy="364.0" r="1.0"/>
     <text stroke="none" x="431.0" y="364.0" font-size="20.0" font-family="helvetica">M. schleiferi IFO 15075T (ABOO4723)</text>
    </g>
    <g>
     <circle stroke="black" stroke-width="0.5" fill="#aaffff" cx="434.0" cy="216.0" r="1.0"/>
     <text stroke="none" x="434.0" y="216.0" font-size="10.0" font-family="helvetica">NT1.21</text>
    </g>
    <g>
     <circle stroke="black" stroke-width="0.5" fill="#aaffff" cx="438.0" cy="169.0" r="1.0"/>
     <text stroke="none" x="438.0" y="169.0" font-size="10.0" font-family="helvetica">NT1.22</text>
    </g>
    <g>
     <circle stroke="black" stroke-width="0.5" fill="#aaffff" cx="441.0" cy="123.0" r="1.0"/>
     <text stroke="none" x="441.0" y="123.0" font-size="10.0" font-family="helvetica">NT1.23</text>
    </g>
    <g>
     <circle stroke="black" stroke-width="0.5" fill="#aaffff" cx="443.0" cy="79.0" r="1.0"/>
     <text stroke="none" x="443.0" y="79.0" font-size="10.0" font-family="helvetica">NT1.24</text>
    </g>
    <g>
     <circle stroke="black" stroke-width="0.5" fill="#aaffff" cx="443.0" cy="111.0" r="1.0"/>
     <text stroke="none" x="443.0" y="111.0" font-size="10.0" font-family="helvetica">NT1.25</text>
    </g>
    <g>
     <circle stroke="black" stroke-width="0.5" fill="#aaffff" cx="445.0" cy="315.0" r="1.0"/>
     <text stroke="none" x="445.0" y="315.0" font-size="20.0" font-family="helvetica">M Iacticum IFO 141357 (AB007415)</text>
    </g>
    <g>
     <circle stroke="black" stroke-width="0.5" fill="#aaffff" cx="450.0" cy="165.0" r="1.0"/>
     <text stroke="none" x="450.0" y="165.0" font-size="20.0" font-family="helvetica"> M. aoyamense KV-492T (AB234028)</text>
    </g>
    <g>
     <circle stroke="black" stroke-width="0.5" fill="#aaffff" cx="453.0" cy="42.0" r="1.0"/>
     <text stroke="none" x="453.0" y="42.0" font-size="10.0" font-family="helvetica">NT1.28</text>
    </g>
    <g>
     <circle stroke="black" stroke-width="0.5" fill="#aaffff" cx="459.0" cy="215.0" r="1.0"/>
     <text stroke="none" x="459.0" y="215.0" font-size="20.0" font-family="helvetica"> M. aurum</text>
    </g>
    <g>
     <circle stroke="black" stroke-width="0.5" fill="#aaffff" cx="462.0" cy="16.0" r="1.0"/>
     <text stroke="none" x="462.0" y="16.0" font-size="20.0" font-family="helvetica"/>
    </g>
    <g>
     <circle stroke="black" stroke-width="0.5" fill="#aaffff" cx="464.0" cy="116.0" r="1.0"/>
     <text stroke="none" x="464.0" y="116.0" font-size="20.0" font-family="helvetica"> M. terregens IFO 12961T (ABOO4721)</text>
    </g>
    <g>
     <circle stroke="black" stroke-width="0.5" fill="#aaffff" cx="464.0" cy="265.0" r="1.0"/>
     <text stroke="none" x="464.0" y="265.0" font-size="20.0" font-family="helvetica"> M. koreense JS53-27 (AY962574)</text>
    </g>
    <g>
     <circle stroke="black" stroke-width="0.5" fill="#aaffff" cx="471.0" cy="65.0" r="1.0"/>
     <text stroke="none" x="471.0" y="65.0" font-size="20.0" font-family="helvetica">M. deminutum KV-4837 (AB234026)</text>
    </g>
    <line stroke="black" x1="462.0" y1="16.0" x2="453.0" y2="42.0" stroke-width="0.5"/>
    <line stroke="black" x1="464.0" y1="116.0" x2="443.0" y2="111.0" stroke-width="0.5"/>
    <line stroke="black" x1="450.0" y1="165.0" x2="441.0" y2="123.0" stroke-width="0.5"/>
    <line stroke="black" x1="459.0" y1="215.0" x2="438.0" y2="169.0" stroke-width="0.5"/>
    <line stroke="black" x1="464.0" y1="265.0" x2="434.0" y2="216.0" stroke-width="0.5"/>
    <line stroke="black" x1="445.0" y1="315.0" x2="426.0" y2="265.0" stroke-width="0.5"/>
    <line stroke="black" x1="339.0" y1="513.0" x2="330.0" y2="487.0" stroke-width="0.5"/>
    <line stroke="black" x1="316.0" y1="661.0" x2="294.0" y2="637.0" stroke-width="0.5"/>
    <line stroke="black" x1="204.0" y1="761.0" x2="186.0" y2="700.0" stroke-width="0.5"/>
    <line stroke="black" x1="343.0" y1="711.0" x2="206.0" y2="638.0" stroke-width="0.5"/>
    <line stroke="black" x1="453.0" y1="42.0" x2="443.0" y2="79.0" stroke-width="0.5"/>
    <line stroke="black" x1="443.0" y1="79.0" x2="443.0" y2="111.0" stroke-width="0.5"/>
    <line stroke="black" x1="443.0" y1="79.0" x2="443.0" y2="111.0" stroke-width="0.5"/>
    <line stroke="black" x1="443.0" y1="111.0" x2="441.0" y2="123.0" stroke-width="0.5"/>
    <line stroke="black" x1="441.0" y1="123.0" x2="438.0" y2="169.0" stroke-width="0.5"/>
    <line stroke="black" x1="438.0" y1="169.0" x2="434.0" y2="216.0" stroke-width="0.5"/>
    <line stroke="black" x1="434.0" y1="216.0" x2="426.0" y2="265.0" stroke-width="0.5"/>
    <line stroke="black" x1="426.0" y1="265.0" x2="422.0" y2="315.0" stroke-width="0.5"/>
    <line stroke="black" x1="422.0" y1="315.0" x2="338.0" y2="364.0" stroke-width="0.5"/>
    <line stroke="black" x1="325.0" y1="426.0" x2="330.0" y2="487.0" stroke-width="0.5"/>
    <line stroke="black" x1="275.0" y1="566.0" x2="206.0" y2="638.0" stroke-width="0.5"/>
    <line stroke="black" x1="275.0" y1="566.0" x2="294.0" y2="637.0" stroke-width="0.5"/>
    <line stroke="black" x1="206.0" y1="638.0" x2="186.0" y2="700.0" stroke-width="0.5"/>
    <line stroke="black" x1="273.0" y1="811.0" x2="186.0" y2="700.0" stroke-width="0.5"/>
    <line stroke="black" x1="309.0" y1="494.0" x2="275.0" y2="566.0" stroke-width="0.5"/>
    <line stroke="black" x1="316.0" y1="611.0" x2="294.0" y2="637.0" stroke-width="0.5"/>
    <line stroke="black" x1="325.0" y1="426.0" x2="309.0" y2="494.0" stroke-width="0.5"/>
    <line stroke="black" x1="363.0" y1="563.0" x2="309.0" y2="494.0" stroke-width="0.5"/>
    <line stroke="black" x1="338.0" y1="364.0" x2="325.0" y2="426.0" stroke-width="0.5"/>
    <line stroke="black" x1="353.0" y1="463.0" x2="330.0" y2="487.0" stroke-width="0.5"/>
    <line stroke="black" x1="365.0" y1="414.0" x2="338.0" y2="364.0" stroke-width="0.5"/>
    <line stroke="black" x1="431.0" y1="364.0" x2="422.0" y2="315.0" stroke-width="0.5"/>
    <line stroke="black" x1="471.0" y1="65.0" x2="453.0" y2="42.0" stroke-width="0.5"/>
   </g>
  </g>
 </svg>
</svg>
