<?xml version="1.0" encoding="UTF-8"?>
<svg height="800.0" width="700.0" xmlns="http://www.w3.org/2000/svg">
 <svg>
  <g>
   <g>
    <g>
     <circle stroke="black" stroke-width="0.5" fill="#aaffff" cx="7.0" cy="875.0" r="1.0"/>
     <text stroke="none" x="7.0" y="875.0" font-size="10.0" font-family="helvetica">NT1.1</text>
    </g>
    <g>
     <circle stroke="black" stroke-width="0.5" fill="#aaffff" cx="35.0" cy="1084.0" r="1.0"/>
     <text stroke="none" x="35.0" y="1084.0" font-size="20.0" font-family="helvetica">72</text>
    </g>
    <g>
     <circle stroke="black" stroke-width="0.5" fill="#aaffff" cx="88.0" cy="1140.0" r="1.0"/>
     <text stroke="none" x="88.0" y="1140.0" font-size="10.0" font-family="helvetica">NT1.3</text>
    </g>
    <g>
     <circle stroke="black" stroke-width="0.5" fill="#aaffff" cx="108.0" cy="1096.0" r="1.0"/>
     <text stroke="none" x="108.0" y="1096.0" font-size="10.0" font-family="helvetica">NT1.4</text>
    </g>
    <g>
     <circle stroke="black" stroke-width="0.5" fill="#aaffff" cx="118.0" cy="1183.0" r="1.0"/>
     <text stroke="none" x="118.0" y="1183.0" font-size="10.0" font-family="helvetica">NT1.5</text>
    </g>
    <g>
     <circle stroke="black" stroke-width="0.5" fill="#aaffff" cx="166.0" cy="762.0" r="1.0"/>
     <text stroke="none" x="166.0" y="762.0" font-size="10.0" font-family="helvetica">NT1.6</text>
    </g>
    <g>
     <circle stroke="black" stroke-width="0.5" fill="#aaffff" cx="285.0" cy="1073.0" r="1.0"/>
     <text stroke="none" x="285.0" y="1073.0" font-size="10.0" font-family="helvetica">NT1.7</text>
    </g>
    <g>
     <circle stroke="black" stroke-width="0.5" fill="#aaffff" cx="309.0" cy="1161.0" r="1.0"/>
     <text stroke="none" x="309.0" y="1161.0" font-size="10.0" font-family="helvetica">NT1.8</text>
    </g>
    <g>
     <circle stroke="black" stroke-width="0.5" fill="#aaffff" cx="345.0" cy="677.0" r="1.0"/>
     <text stroke="none" x="345.0" y="677.0" font-size="20.0" font-family="helvetica">75</text>
    </g>
    <g>
     <circle stroke="black" stroke-width="0.5" fill="#aaffff" cx="345.0" cy="845.0" r="1.0"/>
     <text stroke="none" x="345.0" y="845.0" font-size="20.0" font-family="helvetica">55</text>
    </g>
    <g>
     <circle stroke="black" stroke-width="0.5" fill="#aaffff" cx="360.0" cy="1206.0" r="1.0"/>
     <text stroke="none" x="360.0" y="1206.0" font-size="10.0" font-family="helvetica">NT1.11</text>
    </g>
    <g>
     <circle stroke="black" stroke-width="0.5" fill="#aaffff" cx="372.0" cy="588.0" r="1.0"/>
     <text stroke="none" x="372.0" y="588.0" font-size="10.0" font-family="helvetica">NT1.12</text>
    </g>
    <g>
     <circle stroke="black" stroke-width="0.5" fill="#aaffff" cx="377.0" cy="1118.0" r="1.0"/>
     <text stroke="none" x="377.0" y="1118.0" font-size="20.0" font-family="helvetica">Thermus aquaticus YT-1 (L09663)</text>
    </g>
    <g>
     <circle stroke="black" stroke-width="0.5" fill="#aaffff" cx="384.0" cy="985.0" r="1.0"/>
     <text stroke="none" x="384.0" y="985.0" font-size="20.0" font-family="helvetica">Meiothermus ruber ATCC 359487 (Z15059)</text>
    </g>
    <g>
     <circle stroke="black" stroke-width="0.5" fill="#aaffff" cx="392.0" cy="479.0" r="1.0"/>
     <text stroke="none" x="392.0" y="479.0" font-size="20.0" font-family="helvetica">52</text>
    </g>
    <g>
     <circle stroke="black" stroke-width="0.5" fill="#aaffff" cx="393.0" cy="884.0" r="1.0"/>
     <text stroke="none" x="393.0" y="884.0" font-size="10.0" font-family="helvetica">NT1.16</text>
    </g>
    <g>
     <circle stroke="black" stroke-width="0.5" fill="#aaffff" cx="416.0" cy="383.0" r="1.0"/>
     <text stroke="none" x="416.0" y="383.0" font-size="20.0" font-family="helvetica">63</text>
    </g>
    <g>
     <circle stroke="black" stroke-width="0.5" fill="#aaffff" cx="419.0" cy="270.0" r="1.0"/>
     <text stroke="none" x="419.0" y="270.0" font-size="20.0" font-family="helvetica">26</text>
    </g>
    <g>
     <circle stroke="black" stroke-width="0.5" fill="#aaffff" cx="438.0" cy="149.0" r="1.0"/>
     <text stroke="none" x="438.0" y="149.0" font-size="20.0" font-family="helvetica">54</text>
    </g>
    <g>
     <circle stroke="black" stroke-width="0.5" fill="#aaffff" cx="443.0" cy="574.0" r="1.0"/>
     <text stroke="none" x="443.0" y="574.0" font-size="10.0" font-family="helvetica">NT1.20</text>
    </g>
    <g>
     <circle stroke="black" stroke-width="0.5" fill="#aaffff" cx="445.0" cy="696.0" r="1.0"/>
     <text stroke="none" x="445.0" y="696.0" font-size="10.0" font-family="helvetica">NT1.21</text>
    </g>
    <g>
     <circle stroke="black" stroke-width="0.5" fill="#aaffff" cx="458.0" cy="918.0" r="1.0"/>
     <text stroke="none" x="458.0" y="918.0" font-size="10.0" font-family="helvetica">NT1.22</text>
    </g>
    <g>
     <circle stroke="black" stroke-width="0.5" fill="#aaffff" cx="466.0" cy="77.0" r="1.0"/>
     <text stroke="none" x="466.0" y="77.0" font-size="10.0" font-family="helvetica">NT1.23</text>
    </g>
    <g>
     <circle stroke="black" stroke-width="0.5" fill="#aaffff" cx="466.0" cy="220.0" r="1.0"/>
     <text stroke="none" x="466.0" y="220.0" font-size="20.0" font-family="helvetica">99</text>
    </g>
    <g>
     <circle stroke="black" stroke-width="0.5" fill="#aaffff" cx="489.0" cy="33.0" r="1.0"/>
     <text stroke="none" x="489.0" y="33.0" font-size="10.0" font-family="helvetica">NT1.25</text>
    </g>
    <g>
     <circle stroke="black" stroke-width="0.5" fill="#aaffff" cx="495.0" cy="120.0" r="1.0"/>
     <text stroke="none" x="495.0" y="120.0" font-size="20.0" font-family="helvetica">99</text>
    </g>
    <g>
     <circle stroke="black" stroke-width="0.5" fill="#aaffff" cx="525.0" cy="764.0" r="1.0"/>
     <text stroke="none" x="525.0" y="764.0" font-size="20.0" font-family="helvetica">Deinococcus sonorensis KR-877 (AY743283)</text>
    </g>
    <g>
     <circle stroke="black" stroke-width="0.5" fill="#aaffff" cx="528.0" cy="608.0" r="1.0"/>
     <text stroke="none" x="528.0" y="608.0" font-size="20.0" font-family="helvetica">700</text>
    </g>
    <g>
     <circle stroke="black" stroke-width="0.5" fill="#aaffff" cx="530.0" cy="253.0" r="1.0"/>
     <text stroke="none" x="530.0" y="253.0" font-size="20.0" font-family="helvetica">99</text>
    </g>
    <g>
     <circle stroke="black" stroke-width="0.5" fill="#aaffff" cx="539.0" cy="807.0" r="1.0"/>
     <text stroke="none" x="539.0" y="807.0" font-size="20.0" font-family="helvetica">Deinococcus maricopensis LB-347 (AY743274)</text>
    </g>
    <g>
     <circle stroke="black" stroke-width="0.5" fill="#aaffff" cx="554.0" cy="187.0" r="1.0"/>
     <text stroke="none" x="554.0" y="187.0" font-size="10.0" font-family="helvetica">NT1.31</text>
    </g>
    <g>
     <circle stroke="black" stroke-width="0.5" fill="#aaffff" cx="556.0" cy="386.0" r="1.0"/>
     <text stroke="none" x="556.0" y="386.0" font-size="10.0" font-family="helvetica">NT1.32</text>
    </g>
    <g>
     <circle stroke="black" stroke-width="0.5" fill="#aaffff" cx="557.0" cy="497.0" r="1.0"/>
     <text stroke="none" x="557.0" y="497.0" font-size="20.0" font-family="helvetica">Deinococcus hopiensis KR-1407 (AY743262)</text>
    </g>
    <g>
     <circle stroke="black" stroke-width="0.5" fill="#aaffff" cx="560.0" cy="276.0" r="1.0"/>
     <text stroke="none" x="560.0" y="276.0" font-size="20.0" font-family="helvetica">Deinococcus hohokamensis KR-407 (AY743256)</text>
    </g>
    <g>
     <circle stroke="black" stroke-width="0.5" fill="#aaffff" cx="564.0" cy="232.0" r="1.0"/>
     <text stroke="none" x="564.0" y="232.0" font-size="20.0" font-family="helvetica">Deinococcus navajonensis KR-1147 (AY743259)</text>
    </g>
    <g>
     <circle stroke="black" stroke-width="0.5" fill="#aaffff" cx="564.0" cy="430.0" r="1.0"/>
     <text stroke="none" x="564.0" y="430.0" font-size="10.0" font-family="helvetica">NT1.36</text>
    </g>
    <g>
     <circle stroke="black" stroke-width="0.5" fill="#aaffff" cx="571.0" cy="11.0" r="1.0"/>
     <text stroke="none" x="571.0" y="11.0" font-size="20.0" font-family="helvetica">Deinococcus grandis DSM 39637 (Y11329)</text>
    </g>
    <g>
     <circle stroke="black" stroke-width="0.5" fill="#aaffff" cx="577.0" cy="541.0" r="1.0"/>
     <text stroke="none" x="577.0" y="541.0" font-size="10.0" font-family="helvetica">NT1.38</text>
    </g>
    <g>
     <circle stroke="black" stroke-width="0.5" fill="#aaffff" cx="579.0" cy="343.0" r="1.0"/>
     <text stroke="none" x="579.0" y="343.0" font-size="10.0" font-family="helvetica">NT1.39</text>
    </g>
    <g>
     <circle stroke="black" stroke-width="0.5" fill="#aaffff" cx="589.0" cy="852.0" r="1.0"/>
     <text stroke="none" x="589.0" y="852.0" font-size="20.0" font-family="helvetica">Deinococcus pimensis KR-2357 (AY743277)</text>
    </g>
    <g>
     <circle stroke="black" stroke-width="0.5" fill="#aaffff" cx="590.0" cy="99.0" r="1.0"/>
     <text stroke="none" x="590.0" y="99.0" font-size="10.0" font-family="helvetica">NT1.41</text>
    </g>
    <g>
     <circle stroke="black" stroke-width="0.5" fill="#aaffff" cx="601.0" cy="408.0" r="1.0"/>
     <text stroke="none" x="601.0" y="408.0" font-size="10.0" font-family="helvetica">NT1.42</text>
    </g>
    <g>
     <circle stroke="black" stroke-width="0.5" fill="#aaffff" cx="603.0" cy="674.0" r="1.0"/>
     <text stroke="none" x="603.0" y="674.0" font-size="20.0" font-family="helvetica">Deinococcus proteolyticus DSM 205407 (Y11331)</text>
    </g>
    <g>
     <circle stroke="black" stroke-width="0.5" fill="#aaffff" cx="605.0" cy="719.0" r="1.0"/>
     <text stroke="none" x="605.0" y="719.0" font-size="20.0" font-family="helvetica">Deinococcus radiophilus DSM 205517 (Y11333)</text>
    </g>
    <g>
     <circle stroke="black" stroke-width="0.5" fill="#aaffff" cx="606.0" cy="453.0" r="1.0"/>
     <text stroke="none" x="606.0" y="453.0" font-size="10.0" font-family="helvetica">NT1.45</text>
    </g>
    <g>
     <circle stroke="black" stroke-width="0.5" fill="#aaffff" cx="612.0" cy="365.0" r="1.0"/>
     <text stroke="none" x="612.0" y="365.0" font-size="10.0" font-family="helvetica">NT1.46</text>
    </g>
    <g>
     <circle stroke="black" stroke-width="0.5" fill="#aaffff" cx="615.0" cy="144.0" r="1.0"/>
     <text stroke="none" x="615.0" y="144.0" font-size="20.0" font-family="helvetica">Deinococcus radiodurans DSM 205397 (Y11332)</text>
    </g>
    <g>
     <circle stroke="black" stroke-width="0.5" fill="#aaffff" cx="624.0" cy="941.0" r="1.0"/>
     <text stroke="none" x="624.0" y="941.0" font-size="10.0" font-family="helvetica">NT1.48</text>
    </g>
    <g>
     <circle stroke="black" stroke-width="0.5" fill="#aaffff" cx="633.0" cy="320.0" r="1.0"/>
     <text stroke="none" x="633.0" y="320.0" font-size="10.0" font-family="helvetica">NT1.49</text>
    </g>
    <g>
     <circle stroke="black" stroke-width="0.5" fill="#aaffff" cx="634.0" cy="896.0" r="1.0"/>
     <text stroke="none" x="634.0" y="896.0" font-size="10.0" font-family="helvetica">NT1.50</text>
    </g>
    <g>
     <circle stroke="black" stroke-width="0.5" fill="#aaffff" cx="635.0" cy="55.0" r="1.0"/>
     <text stroke="none" x="635.0" y="55.0" font-size="10.0" font-family="helvetica">NT1.51</text>
    </g>
    <g>
     <circle stroke="black" stroke-width="0.5" fill="#aaffff" cx="661.0" cy="585.0" r="1.0"/>
     <text stroke="none" x="661.0" y="585.0" font-size="10.0" font-family="helvetica">NT1.52</text>
    </g>
    <g>
     <circle stroke="black" stroke-width="0.5" fill="#aaffff" cx="681.0" cy="1028.0" r="1.0"/>
     <text stroke="none" x="681.0" y="1028.0" font-size="20.0" font-family="helvetica">Thermotoga maritima DSM 31097 (M21774)</text>
    </g>
    <g>
     <circle stroke="black" stroke-width="0.5" fill="#aaffff" cx="682.0" cy="630.0" r="1.0"/>
     <text stroke="none" x="682.0" y="630.0" font-size="20.0" font-family="helvetica">Deinococcus apachensis KR-367 (AY743264)</text>
    </g>
    <g>
     <circle stroke="black" stroke-width="0.5" fill="#aaffff" cx="3.0" cy="979.0" r="1.0"/>
     <text stroke="none" x="3.0" y="979.0" font-size="10.0" font-family="helvetica">NT1.55</text>
    </g>
    <line stroke="black" x1="571.0" y1="11.0" x2="489.0" y2="33.0" stroke-width="0.5"/>
    <line stroke="black" x1="564.0" y1="232.0" x2="530.0" y2="253.0" stroke-width="0.5"/>
    <line stroke="black" x1="557.0" y1="497.0" x2="416.0" y2="383.0" stroke-width="0.5"/>
    <line stroke="black" x1="682.0" y1="630.0" x2="528.0" y2="608.0" stroke-width="0.5"/>
    <line stroke="black" x1="525.0" y1="764.0" x2="345.0" y2="677.0" stroke-width="0.5"/>
    <line stroke="black" x1="539.0" y1="807.0" x2="345.0" y2="845.0" stroke-width="0.5"/>
    <line stroke="black" x1="589.0" y1="852.0" x2="393.0" y2="884.0" stroke-width="0.5"/>
    <line stroke="black" x1="384.0" y1="985.0" x2="7.0" y2="875.0" stroke-width="0.5"/>
    <line stroke="black" x1="466.0" y1="77.0" x2="438.0" y2="149.0" stroke-width="0.5"/>
    <line stroke="black" x1="438.0" y1="149.0" x2="419.0" y2="270.0" stroke-width="0.5"/>
    <line stroke="black" x1="466.0" y1="220.0" x2="530.0" y2="253.0" stroke-width="0.5"/>
    <line stroke="black" x1="416.0" y1="383.0" x2="392.0" y2="479.0" stroke-width="0.5"/>
    <line stroke="black" x1="392.0" y1="479.0" x2="372.0" y2="588.0" stroke-width="0.5"/>
    <line stroke="black" x1="372.0" y1="588.0" x2="445.0" y2="696.0" stroke-width="0.5"/>
    <line stroke="black" x1="372.0" y1="588.0" x2="345.0" y2="677.0" stroke-width="0.5"/>
    <line stroke="black" x1="345.0" y1="677.0" x2="166.0" y2="762.0" stroke-width="0.5"/>
    <line stroke="black" x1="166.0" y1="762.0" x2="345.0" y2="845.0" stroke-width="0.5"/>
    <line stroke="black" x1="166.0" y1="762.0" x2="7.0" y2="875.0" stroke-width="0.5"/>
    <line stroke="black" x1="3.0" y1="979.0" x2="7.0" y2="875.0" stroke-width="0.5"/>
    <line stroke="black" x1="3.0" y1="979.0" x2="35.0" y2="1084.0" stroke-width="0.5"/>
    <line stroke="black" x1="377.0" y1="1118.0" x2="108.0" y2="1096.0" stroke-width="0.5"/>
    <line stroke="black" x1="603.0" y1="674.0" x2="445.0" y2="696.0" stroke-width="0.5"/>
    <line stroke="black" x1="605.0" y1="719.0" x2="445.0" y2="696.0" stroke-width="0.5"/>
    <line stroke="black" x1="560.0" y1="276.0" x2="530.0" y2="253.0" stroke-width="0.5"/>
    <line stroke="black" x1="615.0" y1="144.0" x2="495.0" y2="120.0" stroke-width="0.5"/>
    <line stroke="black" x1="681.0" y1="1028.0" x2="35.0" y2="1084.0" stroke-width="0.5"/>
   </g>
  </g>
 </svg>
</svg>
