<?xml version="1.0" encoding="UTF-8"?>
<svg height="800.0" width="700.0" xmlns="http://www.w3.org/2000/svg">
 <svg>
  <g>
   <g>
    <g>
     <circle stroke="black" stroke-width="0.5" fill="#aaffff" cx="82.0" cy="438.0" r="1.0"/>
     <text stroke="none" x="82.0" y="438.0" font-size="10.0" font-family="helvetica">NT1.1</text>
    </g>
    <g>
     <circle stroke="black" stroke-width="0.5" fill="#aaffff" cx="89.0" cy="377.0" r="1.0"/>
     <text stroke="none" x="89.0" y="377.0" font-size="20.0" font-family="helvetica">63</text>
    </g>
    <g>
     <circle stroke="black" stroke-width="0.5" fill="#aaffff" cx="109.0" cy="303.0" r="1.0"/>
     <text stroke="none" x="109.0" y="303.0" font-size="10.0" font-family="helvetica">NT1.3</text>
    </g>
    <g>
     <circle stroke="black" stroke-width="0.5" fill="#aaffff" cx="137.0" cy="208.0" r="1.0"/>
     <text stroke="none" x="137.0" y="208.0" font-size="10.0" font-family="helvetica">NT1.4</text>
    </g>
    <g>
     <circle stroke="black" stroke-width="0.5" fill="#aaffff" cx="145.0" cy="125.0" r="1.0"/>
     <text stroke="none" x="145.0" y="125.0" font-size="10.0" font-family="helvetica">NT1.5</text>
    </g>
    <g>
     <circle stroke="black" stroke-width="0.5" fill="#aaffff" cx="157.0" cy="70.0" r="1.0"/>
     <text stroke="none" x="157.0" y="70.0" font-size="10.0" font-family="helvetica">NT1.6</text>
    </g>
    <g>
     <circle stroke="black" stroke-width="0.5" fill="#aaffff" cx="172.0" cy="32.0" r="1.0"/>
     <text stroke="none" x="172.0" y="32.0" font-size="10.0" font-family="helvetica">NT1.7</text>
    </g>
    <g>
     <circle stroke="black" stroke-width="0.5" fill="#aaffff" cx="184.0" cy="105.0" r="1.0"/>
     <text stroke="none" x="184.0" y="105.0" font-size="20.0" font-family="helvetica"> Cellulosimicrobium variabile MX5T (AJ298873)</text>
    </g>
    <g>
     <circle stroke="black" stroke-width="0.5" fill="#aaffff" cx="194.0" cy="178.0" r="1.0"/>
     <text stroke="none" x="194.0" y="178.0" font-size="20.0" font-family="helvetica">100</text>
    </g>
    <g>
     <circle stroke="black" stroke-width="0.5" fill="#aaffff" cx="195.0" cy="290.0" r="1.0"/>
     <text stroke="none" x="195.0" y="290.0" font-size="20.0" font-family="helvetica">100</text>
    </g>
    <g>
     <circle stroke="black" stroke-width="0.5" fill="#aaffff" cx="196.0" cy="497.0" r="1.0"/>
     <text stroke="none" x="196.0" y="497.0" font-size="10.0" font-family="helvetica">NT1.11</text>
    </g>
    <g>
     <circle stroke="black" stroke-width="0.5" fill="#aaffff" cx="197.0" cy="301.0" r="1.0"/>
     <text stroke="none" x="197.0" y="301.0" font-size="20.0" font-family="helvetica">100</text>
    </g>
    <g>
     <circle stroke="black" stroke-width="0.5" fill="#aaffff" cx="199.0" cy="350.0" r="1.0"/>
     <text stroke="none" x="199.0" y="350.0" font-size="20.0" font-family="helvetica">Cellulosimicrobium cellulans DSM 20106 (X79456)</text>
    </g>
    <g>
     <circle stroke="black" stroke-width="0.5" fill="#aaffff" cx="202.0" cy="252.0" r="1.0"/>
     <text stroke="none" x="202.0" y="252.0" font-size="20.0" font-family="helvetica"> Cellulosimicrobium cellulans NCIMB 11025 (X79453)</text>
    </g>
    <g>
     <circle stroke="black" stroke-width="0.5" fill="#aaffff" cx="203.0" cy="301.0" r="1.0"/>
     <text stroke="none" x="203.0" y="301.0" font-size="20.0" font-family="helvetica">Cellulosimicrobium cellulans DSM 438797 (X79455)</text>
    </g>
    <g>
     <circle stroke="black" stroke-width="0.5" fill="#aaffff" cx="213.0" cy="204.0" r="1.0"/>
     <text stroke="none" x="213.0" y="204.0" font-size="20.0" font-family="helvetica"> Promicromonospora citrea DSM 431107 (X83808)</text>
    </g>
    <g>
     <circle stroke="black" stroke-width="0.5" fill="#aaffff" cx="214.0" cy="400.0" r="1.0"/>
     <text stroke="none" x="214.0" y="400.0" font-size="20.0" font-family="helvetica">Cellulomonas flavigena DSM 20109T (X83799)</text>
    </g>
    <g>
     <circle stroke="black" stroke-width="0.5" fill="#aaffff" cx="215.0" cy="56.0" r="1.0"/>
     <text stroke="none" x="215.0" y="56.0" font-size="10.0" font-family="helvetica">NT1.18</text>
    </g>
    <g>
     <circle stroke="black" stroke-width="0.5" fill="#aaffff" cx="218.0" cy="154.0" r="1.0"/>
     <text stroke="none" x="218.0" y="154.0" font-size="20.0" font-family="helvetica"> Promicromonospora sukumoe IFO 146507 (AB056130)</text>
    </g>
    <g>
     <circle stroke="black" stroke-width="0.5" fill="#aaffff" cx="234.0" cy="8.0" r="1.0"/>
     <text stroke="none" x="234.0" y="8.0" font-size="10.0" font-family="helvetica">NT1.20</text>
    </g>
    <g>
     <circle stroke="black" stroke-width="0.5" fill="#aaffff" cx="250.0" cy="448.0" r="1.0"/>
     <text stroke="none" x="250.0" y="448.0" font-size="10.0" font-family="helvetica">NT1.21</text>
    </g>
    <g>
     <circle stroke="black" stroke-width="0.5" fill="#aaffff" cx="250.0" cy="546.0" r="1.0"/>
     <text stroke="none" x="250.0" y="546.0" font-size="20.0" font-family="helvetica">Bifidobacterium bifidum DSM 20456T (S83624)</text>
    </g>
    <g>
     <circle stroke="black" stroke-width="0.5" fill="#aaffff" cx="1.0" cy="492.0" r="1.0"/>
     <text stroke="none" x="1.0" y="492.0" font-size="10.0" font-family="helvetica">NT1.23</text>
    </g>
    <line stroke="black" x1="213.0" y1="204.0" x2="194.0" y2="178.0" stroke-width="0.5"/>
    <line stroke="black" x1="218.0" y1="154.0" x2="194.0" y2="178.0" stroke-width="0.5"/>
    <line stroke="black" x1="203.0" y1="301.0" x2="197.0" y2="301.0" stroke-width="0.5"/>
    <line stroke="black" x1="202.0" y1="252.0" x2="195.0" y2="290.0" stroke-width="0.5"/>
    <line stroke="black" x1="214.0" y1="400.0" x2="109.0" y2="303.0" stroke-width="0.5"/>
    <line stroke="black" x1="145.0" y1="125.0" x2="137.0" y2="208.0" stroke-width="0.5"/>
    <line stroke="black" x1="145.0" y1="125.0" x2="194.0" y2="178.0" stroke-width="0.5"/>
    <line stroke="black" x1="137.0" y1="208.0" x2="109.0" y2="303.0" stroke-width="0.5"/>
    <line stroke="black" x1="137.0" y1="208.0" x2="195.0" y2="290.0" stroke-width="0.5"/>
    <line stroke="black" x1="109.0" y1="303.0" x2="89.0" y2="377.0" stroke-width="0.5"/>
    <line stroke="black" x1="195.0" y1="290.0" x2="197.0" y2="301.0" stroke-width="0.5"/>
    <line stroke="black" x1="197.0" y1="301.0" x2="199.0" y2="350.0" stroke-width="0.5"/>
    <line stroke="black" x1="1.0" y1="492.0" x2="250.0" y2="546.0" stroke-width="0.5"/>
    <line stroke="black" x1="184.0" y1="105.0" x2="157.0" y2="70.0" stroke-width="0.5"/>
   </g>
  </g>
 </svg>
</svg>
