<?xml version="1.0" encoding="UTF-8"?>
<svg height="800.0" width="700.0" xmlns="http://www.w3.org/2000/svg">
 <svg>
  <g>
   <g>
    <g>
     <circle stroke="black" stroke-width="0.5" fill="#aaffff" cx="209.0" cy="1085.0" r="1.0"/>
     <text stroke="none" x="209.0" y="1085.0" font-size="10.0" font-family="helvetica">NT1.1</text>
    </g>
    <g>
     <circle stroke="black" stroke-width="0.5" fill="#aaffff" cx="231.0" cy="738.0" r="1.0"/>
     <text stroke="none" x="231.0" y="738.0" font-size="20.0" font-family="helvetica">57</text>
    </g>
    <g>
     <circle stroke="black" stroke-width="0.5" fill="#aaffff" cx="248.0" cy="1430.0" r="1.0"/>
     <text stroke="none" x="248.0" y="1430.0" font-size="20.0" font-family="helvetica">64</text>
    </g>
    <g>
     <circle stroke="black" stroke-width="0.5" fill="#aaffff" cx="255.0" cy="601.0" r="1.0"/>
     <text stroke="none" x="255.0" y="601.0" font-size="20.0" font-family="helvetica">65</text>
    </g>
    <g>
     <circle stroke="black" stroke-width="0.5" fill="#aaffff" cx="266.0" cy="1322.0" r="1.0"/>
     <text stroke="none" x="266.0" y="1322.0" font-size="10.0" font-family="helvetica">NT1.5</text>
    </g>
    <g>
     <circle stroke="black" stroke-width="0.5" fill="#aaffff" cx="269.0" cy="1309.0" r="1.0"/>
     <text stroke="none" x="269.0" y="1309.0" font-size="10.0" font-family="helvetica">NT1.6</text>
    </g>
    <g>
     <circle stroke="black" stroke-width="0.5" fill="#aaffff" cx="271.0" cy="1278.0" r="1.0"/>
     <text stroke="none" x="271.0" y="1278.0" font-size="10.0" font-family="helvetica">NT1.7</text>
    </g>
    <g>
     <circle stroke="black" stroke-width="0.5" fill="#aaffff" cx="291.0" cy="749.0" r="1.0"/>
     <text stroke="none" x="291.0" y="749.0" font-size="20.0" font-family="helvetica">70</text>
    </g>
    <g>
     <circle stroke="black" stroke-width="0.5" fill="#aaffff" cx="291.0" cy="874.0" r="1.0"/>
     <text stroke="none" x="291.0" y="874.0" font-size="20.0" font-family="helvetica">.77</text>
    </g>
    <g>
     <circle stroke="black" stroke-width="0.5" fill="#aaffff" cx="298.0" cy="1209.0" r="1.0"/>
     <text stroke="none" x="298.0" y="1209.0" font-size="10.0" font-family="helvetica">NT1.10</text>
    </g>
    <g>
     <circle stroke="black" stroke-width="0.5" fill="#aaffff" cx="304.0" cy="1366.0" r="1.0"/>
     <text stroke="none" x="304.0" y="1366.0" font-size="20.0" font-family="helvetica">60</text>
    </g>
    <g>
     <circle stroke="black" stroke-width="0.5" fill="#aaffff" cx="309.0" cy="1170.0" r="1.0"/>
     <text stroke="none" x="309.0" y="1170.0" font-size="10.0" font-family="helvetica">NT1.12</text>
    </g>
    <g>
     <circle stroke="black" stroke-width="0.5" fill="#aaffff" cx="319.0" cy="1123.0" r="1.0"/>
     <text stroke="none" x="319.0" y="1123.0" font-size="10.0" font-family="helvetica">NT1.13</text>
    </g>
    <g>
     <circle stroke="black" stroke-width="0.5" fill="#aaffff" cx="320.0" cy="451.0" r="1.0"/>
     <text stroke="none" x="320.0" y="451.0" font-size="20.0" font-family="helvetica">98</text>
    </g>
    <g>
     <circle stroke="black" stroke-width="0.5" fill="#aaffff" cx="320.0" cy="903.0" r="1.0"/>
     <text stroke="none" x="320.0" y="903.0" font-size="20.0" font-family="helvetica">55</text>
    </g>
    <g>
     <circle stroke="black" stroke-width="0.5" fill="#aaffff" cx="326.0" cy="930.0" r="1.0"/>
     <text stroke="none" x="326.0" y="930.0" font-size="20.0" font-family="helvetica">55</text>
    </g>
    <g>
     <circle stroke="black" stroke-width="0.5" fill="#aaffff" cx="333.0" cy="792.0" r="1.0"/>
     <text stroke="none" x="333.0" y="792.0" font-size="20.0" font-family="helvetica">-</text>
    </g>
    <g>
     <circle stroke="black" stroke-width="0.5" fill="#aaffff" cx="335.0" cy="288.0" r="1.0"/>
     <text stroke="none" x="335.0" y="288.0" font-size="10.0" font-family="helvetica">NT1.18</text>
    </g>
    <g>
     <circle stroke="black" stroke-width="0.5" fill="#aaffff" cx="340.0" cy="220.0" r="1.0"/>
     <text stroke="none" x="340.0" y="220.0" font-size="10.0" font-family="helvetica">NT1.19</text>
    </g>
    <g>
     <circle stroke="black" stroke-width="0.5" fill="#aaffff" cx="340.0" cy="789.0" r="1.0"/>
     <text stroke="none" x="340.0" y="789.0" font-size="10.0" font-family="helvetica">NT1.20</text>
    </g>
    <g>
     <circle stroke="black" stroke-width="0.5" fill="#aaffff" cx="348.0" cy="784.0" r="1.0"/>
     <text stroke="none" x="348.0" y="784.0" font-size="20.0" font-family="helvetica"/>
    </g>
    <g>
     <circle stroke="black" stroke-width="0.5" fill="#aaffff" cx="349.0" cy="148.0" r="1.0"/>
     <text stroke="none" x="349.0" y="148.0" font-size="10.0" font-family="helvetica">NT1.22</text>
    </g>
    <g>
     <circle stroke="black" stroke-width="0.5" fill="#aaffff" cx="350.0" cy="612.0" r="1.0"/>
     <text stroke="none" x="350.0" y="612.0" font-size="20.0" font-family="helvetica">78</text>
    </g>
    <g>
     <circle stroke="black" stroke-width="0.5" fill="#aaffff" cx="350.0" cy="778.0" r="1.0"/>
     <text stroke="none" x="350.0" y="778.0" font-size="10.0" font-family="helvetica">NT1.24</text>
    </g>
    <g>
     <circle stroke="black" stroke-width="0.5" fill="#aaffff" cx="351.0" cy="795.0" r="1.0"/>
     <text stroke="none" x="351.0" y="795.0" font-size="20.0" font-family="helvetica"/>
    </g>
    <g>
     <circle stroke="black" stroke-width="0.5" fill="#aaffff" cx="351.0" cy="784.0" r="1.0"/>
     <text stroke="none" x="351.0" y="784.0" font-size="20.0" font-family="helvetica">75</text>
    </g>
    <g>
     <circle stroke="black" stroke-width="0.5" fill="#aaffff" cx="359.0" cy="193.0" r="1.0"/>
     <text stroke="none" x="359.0" y="193.0" font-size="10.0" font-family="helvetica">NT1.27</text>
    </g>
    <g>
     <circle stroke="black" stroke-width="0.5" fill="#aaffff" cx="359.0" cy="1540.0" r="1.0"/>
     <text stroke="none" x="359.0" y="1540.0" font-size="20.0" font-family="helvetica">39</text>
    </g>
    <g>
     <circle stroke="black" stroke-width="0.5" fill="#aaffff" cx="364.0" cy="199.0" r="1.0"/>
     <text stroke="none" x="364.0" y="199.0" font-size="10.0" font-family="helvetica">NT1.29</text>
    </g>
    <g>
     <circle stroke="black" stroke-width="0.5" fill="#aaffff" cx="367.0" cy="355.0" r="1.0"/>
     <text stroke="none" x="367.0" y="355.0" font-size="20.0" font-family="helvetica">52</text>
    </g>
    <g>
     <circle stroke="black" stroke-width="0.5" fill="#aaffff" cx="367.0" cy="1393.0" r="1.0"/>
     <text stroke="none" x="367.0" y="1393.0" font-size="10.0" font-family="helvetica">NT1.31</text>
    </g>
    <g>
     <circle stroke="black" stroke-width="0.5" fill="#aaffff" cx="375.0" cy="100.0" r="1.0"/>
     <text stroke="none" x="375.0" y="100.0" font-size="20.0" font-family="helvetica">92</text>
    </g>
    <g>
     <circle stroke="black" stroke-width="0.5" fill="#aaffff" cx="379.0" cy="244.0" r="1.0"/>
     <text stroke="none" x="379.0" y="244.0" font-size="20.0" font-family="helvetica">50</text>
    </g>
    <g>
     <circle stroke="black" stroke-width="0.5" fill="#aaffff" cx="379.0" cy="653.0" r="1.0"/>
     <text stroke="none" x="379.0" y="653.0" font-size="20.0" font-family="helvetica">72</text>
    </g>
    <g>
     <circle stroke="black" stroke-width="0.5" fill="#aaffff" cx="383.0" cy="1416.0" r="1.0"/>
     <text stroke="none" x="383.0" y="1416.0" font-size="10.0" font-family="helvetica">NT1.35</text>
    </g>
    <g>
     <circle stroke="black" stroke-width="0.5" fill="#aaffff" cx="384.0" cy="1602.0" r="1.0"/>
     <text stroke="none" x="384.0" y="1602.0" font-size="20.0" font-family="helvetica">69</text>
    </g>
    <g>
     <circle stroke="black" stroke-width="0.5" fill="#aaffff" cx="391.0" cy="574.0" r="1.0"/>
     <text stroke="none" x="391.0" y="574.0" font-size="20.0" font-family="helvetica">79</text>
    </g>
    <g>
     <circle stroke="black" stroke-width="0.5" fill="#aaffff" cx="395.0" cy="1340.0" r="1.0"/>
     <text stroke="none" x="395.0" y="1340.0" font-size="20.0" font-family="helvetica">Rhodobacter vinaykumariiJA1237(AM4081 17)</text>
    </g>
    <g>
     <circle stroke="black" stroke-width="0.5" fill="#aaffff" cx="398.0" cy="799.0" r="1.0"/>
     <text stroke="none" x="398.0" y="799.0" font-size="20.0" font-family="helvetica">75</text>
    </g>
    <g>
     <circle stroke="black" stroke-width="0.5" fill="#aaffff" cx="400.0" cy="390.0" r="1.0"/>
     <text stroke="none" x="400.0" y="390.0" font-size="20.0" font-family="helvetica">61</text>
    </g>
    <g>
     <circle stroke="black" stroke-width="0.5" fill="#aaffff" cx="403.0" cy="61.0" r="1.0"/>
     <text stroke="none" x="403.0" y="61.0" font-size="10.0" font-family="helvetica">NT1.41</text>
    </g>
    <g>
     <circle stroke="black" stroke-width="0.5" fill="#aaffff" cx="407.0" cy="429.0" r="1.0"/>
     <text stroke="none" x="407.0" y="429.0" font-size="10.0" font-family="helvetica">NT1.42</text>
    </g>
    <g>
     <circle stroke="black" stroke-width="0.5" fill="#aaffff" cx="408.0" cy="953.0" r="1.0"/>
     <text stroke="none" x="408.0" y="953.0" font-size="20.0" font-family="helvetica">95</text>
    </g>
    <g>
     <circle stroke="black" stroke-width="0.5" fill="#aaffff" cx="412.0" cy="1075.0" r="1.0"/>
     <text stroke="none" x="412.0" y="1075.0" font-size="20.0" font-family="helvetica">700</text>
    </g>
    <g>
     <circle stroke="black" stroke-width="0.5" fill="#aaffff" cx="426.0" cy="460.0" r="1.0"/>
     <text stroke="none" x="426.0" y="460.0" font-size="20.0" font-family="helvetica">73</text>
    </g>
    <g>
     <circle stroke="black" stroke-width="0.5" fill="#aaffff" cx="431.0" cy="1309.0" r="1.0"/>
     <text stroke="none" x="431.0" y="1309.0" font-size="20.0" font-family="helvetica">Rhodobacter veldkampii ATCC 357037 (D1 6421)</text>
    </g>
    <g>
     <circle stroke="black" stroke-width="0.5" fill="#aaffff" cx="432.0" cy="90.0" r="1.0"/>
     <text stroke="none" x="432.0" y="90.0" font-size="20.0" font-family="helvetica">92</text>
    </g>
    <g>
     <circle stroke="black" stroke-width="0.5" fill="#aaffff" cx="438.0" cy="1155.0" r="1.0"/>
     <text stroke="none" x="438.0" y="1155.0" font-size="20.0" font-family="helvetica">Haematobacter missouriensis CCUG 523077 (DQ34231 5)</text>
    </g>
    <g>
     <circle stroke="black" stroke-width="0.5" fill="#aaffff" cx="438.0" cy="676.0" r="1.0"/>
     <text stroke="none" x="438.0" y="676.0" font-size="20.0" font-family="helvetica">97</text>
    </g>
    <g>
     <circle stroke="black" stroke-width="0.5" fill="#aaffff" cx="440.0" cy="1108.0" r="1.0"/>
     <text stroke="none" x="440.0" y="1108.0" font-size="20.0" font-family="helvetica">93</text>
    </g>
    <g>
     <circle stroke="black" stroke-width="0.5" fill="#aaffff" cx="445.0" cy="1480.0" r="1.0"/>
     <text stroke="none" x="445.0" y="1480.0" font-size="20.0" font-family="helvetica">99</text>
    </g>
    <g>
     <circle stroke="black" stroke-width="0.5" fill="#aaffff" cx="448.0" cy="137.0" r="1.0"/>
     <text stroke="none" x="448.0" y="137.0" font-size="20.0" font-family="helvetica">Paracoccus denitrificans DSM 4137 (CPOOO489)</text>
    </g>
    <g>
     <circle stroke="black" stroke-width="0.5" fill="#aaffff" cx="448.0" cy="1565.0" r="1.0"/>
     <text stroke="none" x="448.0" y="1565.0" font-size="20.0" font-family="helvetica">72</text>
    </g>
    <g>
     <circle stroke="black" stroke-width="0.5" fill="#aaffff" cx="449.0" cy="292.0" r="1.0"/>
     <text stroke="none" x="449.0" y="292.0" font-size="20.0" font-family="helvetica">Paracoccus aminophilus JCM 76867 (D32239)</text>
    </g>
    <g>
     <circle stroke="black" stroke-width="0.5" fill="#aaffff" cx="451.0" cy="1640.0" r="1.0"/>
     <text stroke="none" x="451.0" y="1640.0" font-size="20.0" font-family="helvetica">74</text>
    </g>
    <g>
     <circle stroke="black" stroke-width="0.5" fill="#aaffff" cx="460.0" cy="1040.0" r="1.0"/>
     <text stroke="none" x="460.0" y="1040.0" font-size="20.0" font-family="helvetica">99</text>
    </g>
    <g>
     <circle stroke="black" stroke-width="0.5" fill="#aaffff" cx="462.0" cy="168.0" r="1.0"/>
     <text stroke="none" x="462.0" y="168.0" font-size="20.0" font-family="helvetica">Paracoccus thiocyanatus THI 01 17 (D32242)</text>
    </g>
    <g>
     <circle stroke="black" stroke-width="0.5" fill="#aaffff" cx="463.0" cy="1433.0" r="1.0"/>
     <text stroke="none" x="463.0" y="1433.0" font-size="20.0" font-family="helvetica">Rhodobacter maris JA2 767 (AM745438)</text>
    </g>
    <g>
     <circle stroke="black" stroke-width="0.5" fill="#aaffff" cx="464.0" cy="1063.0" r="1.0"/>
     <text stroke="none" x="464.0" y="1063.0" font-size="20.0" font-family="helvetica">Rhodobacter sphaeroides ATH 2.4.17 (CPOOO1 43)</text>
    </g>
    <g>
     <circle stroke="black" stroke-width="0.5" fill="#aaffff" cx="466.0" cy="1017.0" r="1.0"/>
     <text stroke="none" x="466.0" y="1017.0" font-size="10.0" font-family="helvetica">NT1.60</text>
    </g>
    <g>
     <circle stroke="black" stroke-width="0.5" fill="#aaffff" cx="467.0" cy="1000.0" r="1.0"/>
     <text stroke="none" x="467.0" y="1000.0" font-size="20.0" font-family="helvetica">RhodobacterjohriiJA1927(AM398152)</text>
    </g>
    <g>
     <circle stroke="black" stroke-width="0.5" fill="#aaffff" cx="467.0" cy="1033.0" r="1.0"/>
     <text stroke="none" x="467.0" y="1033.0" font-size="20.0" font-family="helvetica">Rhodobacter megalophilus JA1 947 (AM421 024)</text>
    </g>
    <g>
     <circle stroke="black" stroke-width="0.5" fill="#aaffff" cx="473.0" cy="1371.0" r="1.0"/>
     <text stroke="none" x="473.0" y="1371.0" font-size="20.0" font-family="helvetica">Rhodobacter aestuarii JA2967 (AM748926)</text>
    </g>
    <g>
     <circle stroke="black" stroke-width="0.5" fill="#aaffff" cx="475.0" cy="816.0" r="1.0"/>
     <text stroke="none" x="475.0" y="816.0" font-size="20.0" font-family="helvetica">Catellibacterium caeni DCA-17 (FJ386516)</text>
    </g>
    <g>
     <circle stroke="black" stroke-width="0.5" fill="#aaffff" cx="476.0" cy="401.0" r="1.0"/>
     <text stroke="none" x="476.0" y="401.0" font-size="20.0" font-family="helvetica">99</text>
    </g>
    <g>
     <circle stroke="black" stroke-width="0.5" fill="#aaffff" cx="478.0" cy="723.0" r="1.0"/>
     <text stroke="none" x="478.0" y="723.0" font-size="20.0" font-family="helvetica">Catellibacterium nectariphilum AST47 (AB1 01543)</text>
    </g>
    <g>
     <circle stroke="black" stroke-width="0.5" fill="#aaffff" cx="483.0" cy="230.0" r="1.0"/>
     <text stroke="none" x="483.0" y="230.0" font-size="20.0" font-family="helvetica">Paracoccus yeeiG12127(AYO14173)</text>
    </g>
    <g>
     <circle stroke="black" stroke-width="0.5" fill="#aaffff" cx="484.0" cy="547.0" r="1.0"/>
     <text stroke="none" x="484.0" y="547.0" font-size="20.0" font-family="helvetica">100</text>
    </g>
    <g>
     <circle stroke="black" stroke-width="0.5" fill="#aaffff" cx="487.0" cy="1093.0" r="1.0"/>
     <text stroke="none" x="487.0" y="1093.0" font-size="20.0" font-family="helvetica">Rhodobacter azotoformans KA257 (D70846)</text>
    </g>
    <g>
     <circle stroke="black" stroke-width="0.5" fill="#aaffff" cx="488.0" cy="600.0" r="1.0"/>
     <text stroke="none" x="488.0" y="600.0" font-size="20.0" font-family="helvetica">Paracoccus seriniphilus MBT-A47 (AJ428275)</text>
    </g>
    <g>
     <circle stroke="black" stroke-width="0.5" fill="#aaffff" cx="488.0" cy="692.0" r="1.0"/>
     <text stroke="none" x="488.0" y="692.0" font-size="20.0" font-family="helvetica">Paracoccus homiensis DD-R1 17 (DQ342239)</text>
    </g>
    <g>
     <circle stroke="black" stroke-width="0.5" fill="#aaffff" cx="489.0" cy="322.0" r="1.0"/>
     <text stroke="none" x="489.0" y="322.0" font-size="20.0" font-family="helvetica">Paracoccus marinus KKL-A57 (AB185957)</text>
    </g>
    <g>
     <circle stroke="black" stroke-width="0.5" fill="#aaffff" cx="489.0" cy="30.0" r="1.0"/>
     <text stroke="none" x="489.0" y="30.0" font-size="20.0" font-family="helvetica">100</text>
    </g>
    <g>
     <circle stroke="black" stroke-width="0.5" fill="#aaffff" cx="491.0" cy="261.0" r="1.0"/>
     <text stroke="none" x="491.0" y="261.0" font-size="20.0" font-family="helvetica">Paracoccus aminovorans JCM 76857 (D32240)</text>
    </g>
    <g>
     <circle stroke="black" stroke-width="0.5" fill="#aaffff" cx="491.0" cy="353.0" r="1.0"/>
     <text stroke="none" x="491.0" y="353.0" font-size="20.0" font-family="helvetica">Paracoccus chinensis KS-1 17 (EU660389)</text>
    </g>
    <g>
     <circle stroke="black" stroke-width="0.5" fill="#aaffff" cx="491.0" cy="631.0" r="1.0"/>
     <text stroke="none" x="491.0" y="631.0" font-size="20.0" font-family="helvetica">Paracoccus saliphilus YIM 907387 (DQ923133)</text>
    </g>
    <g>
     <circle stroke="black" stroke-width="0.5" fill="#aaffff" cx="493.0" cy="569.0" r="1.0"/>
     <text stroke="none" x="493.0" y="569.0" font-size="20.0" font-family="helvetica">Paracoccus carotinifaciens E-3967 (AB006899)</text>
    </g>
    <g>
     <circle stroke="black" stroke-width="0.5" fill="#aaffff" cx="497.0" cy="507.0" r="1.0"/>
     <text stroke="none" x="497.0" y="507.0" font-size="20.0" font-family="helvetica">Paracoccus haeundaensis BC741717(AY189743)</text>
    </g>
    <g>
     <circle stroke="black" stroke-width="0.5" fill="#aaffff" cx="498.0" cy="1402.0" r="1.0"/>
     <text stroke="none" x="498.0" y="1402.0" font-size="20.0" font-family="helvetica">Rhodobacter capsulatus ATCC 1 1 1667(D16428)</text>
    </g>
    <g>
     <circle stroke="black" stroke-width="0.5" fill="#aaffff" cx="498.0" cy="1248.0" r="1.0"/>
     <text stroke="none" x="498.0" y="1248.0" font-size="20.0" font-family="helvetica">Albidovulum inexpectatum FRR-107 (AF465833)</text>
    </g>
    <g>
     <circle stroke="black" stroke-width="0.5" fill="#aaffff" cx="499.0" cy="384.0" r="1.0"/>
     <text stroke="none" x="499.0" y="384.0" font-size="20.0" font-family="helvetica">Paracoccus solventivorans DSM 66377 (YO7705)</text>
    </g>
    <g>
     <circle stroke="black" stroke-width="0.5" fill="#aaffff" cx="500.0" cy="199.0" r="1.0"/>
     <text stroke="none" x="500.0" y="199.0" font-size="20.0" font-family="helvetica">Paracoccus alcaliphilus JCM 73647 (D32238)</text>
    </g>
    <g>
     <circle stroke="black" stroke-width="0.5" fill="#aaffff" cx="501.0" cy="1124.0" r="1.0"/>
     <text stroke="none" x="501.0" y="1124.0" font-size="20.0" font-family="helvetica">Rhodobacter ovatus JA2347 (AM690348)</text>
    </g>
    <g>
     <circle stroke="black" stroke-width="0.5" fill="#aaffff" cx="506.0" cy="14.0" r="1.0"/>
     <text stroke="none" x="506.0" y="14.0" font-size="20.0" font-family="helvetica">Paracoccus pantotrophus ATCC 355127(Y16933)</text>
    </g>
    <g>
     <circle stroke="black" stroke-width="0.5" fill="#aaffff" cx="507.0" cy="476.0" r="1.0"/>
     <text stroke="none" x="507.0" y="476.0" font-size="20.0" font-family="helvetica">Paracoccus koreensis ChO57(AB187584)</text>
    </g>
    <g>
     <circle stroke="black" stroke-width="0.5" fill="#aaffff" cx="510.0" cy="1588.0" r="1.0"/>
     <text stroke="none" x="510.0" y="1588.0" font-size="20.0" font-family="helvetica">Rhodovulum kholense JA2977 (AM748927)</text>
    </g>
    <g>
     <circle stroke="black" stroke-width="0.5" fill="#aaffff" cx="512.0" cy="661.0" r="1.0"/>
     <text stroke="none" x="512.0" y="661.0" font-size="20.0" font-family="helvetica">Paracoccus zeaxanthinifaciens ATCC 215887(AF461 158)</text>
    </g>
    <g>
     <circle stroke="black" stroke-width="0.5" fill="#aaffff" cx="515.0" cy="877.0" r="1.0"/>
     <text stroke="none" x="515.0" y="877.0" font-size="20.0" font-family="helvetica">Donghicola eburneus SW-2777 (DQ667965)</text>
    </g>
    <g>
     <circle stroke="black" stroke-width="0.5" fill="#aaffff" cx="521.0" cy="847.0" r="1.0"/>
     <text stroke="none" x="521.0" y="847.0" font-size="20.0" font-family="helvetica">Roseicyclus mahoneyensis ML67(AJ315682)</text>
    </g>
    <g>
     <circle stroke="black" stroke-width="0.5" fill="#aaffff" cx="522.0" cy="754.0" r="1.0"/>
     <text stroke="none" x="522.0" y="754.0" font-size="20.0" font-family="helvetica">Whodobacterl changlensis JA1397(AM399030)</text>
    </g>
    <g>
     <circle stroke="black" stroke-width="0.5" fill="#aaffff" cx="527.0" cy="45.0" r="1.0"/>
     <text stroke="none" x="527.0" y="45.0" font-size="20.0" font-family="helvetica">Paracoccus versutus ATCC 253647 (Y1 6932)</text>
    </g>
    <g>
     <circle stroke="black" stroke-width="0.5" fill="#aaffff" cx="530.0" cy="1217.0" r="1.0"/>
     <text stroke="none" x="530.0" y="1217.0" font-size="20.0" font-family="helvetica">Rhodobacter blasticus ATCC 334857 (D16429)</text>
    </g>
    <g>
     <circle stroke="black" stroke-width="0.5" fill="#aaffff" cx="537.0" cy="1278.0" r="1.0"/>
     <text stroke="none" x="537.0" y="1278.0" font-size="20.0" font-family="helvetica">Rhodobaca bogoriensis LBB17 (AF248638)</text>
    </g>
    <g>
     <circle stroke="black" stroke-width="0.5" fill="#aaffff" cx="538.0" cy="1542.0" r="1.0"/>
     <text stroke="none" x="538.0" y="1542.0" font-size="20.0" font-family="helvetica">100</text>
    </g>
    <g>
     <circle stroke="black" stroke-width="0.5" fill="#aaffff" cx="548.0" cy="106.0" r="1.0"/>
     <text stroke="none" x="548.0" y="106.0" font-size="20.0" font-family="helvetica">Paracoccus halophilus HN-1 827 (DQ423482)</text>
    </g>
    <g>
     <circle stroke="black" stroke-width="0.5" fill="#aaffff" cx="550.0" cy="1618.0" r="1.0"/>
     <text stroke="none" x="550.0" y="1618.0" font-size="20.0" font-family="helvetica">Rhodovulum euryhalinum DSM 48687 (D16426)</text>
    </g>
    <g>
     <circle stroke="black" stroke-width="0.5" fill="#aaffff" cx="556.0" cy="415.0" r="1.0"/>
     <text stroke="none" x="556.0" y="415.0" font-size="20.0" font-family="helvetica">Paracoccus alkenifer 901 I17 (Y1 3827)</text>
    </g>
    <g>
     <circle stroke="black" stroke-width="0.5" fill="#aaffff" cx="558.0" cy="1525.0" r="1.0"/>
     <text stroke="none" x="558.0" y="1525.0" font-size="20.0" font-family="helvetica">Rhodovulum sulfidophilum ATCC 358867 (DQ342323)</text>
    </g>
    <g>
     <circle stroke="black" stroke-width="0.5" fill="#aaffff" cx="559.0" cy="1663.0" r="1.0"/>
     <text stroke="none" x="559.0" y="1663.0" font-size="20.0" font-family="helvetica">100</text>
    </g>
    <g>
     <circle stroke="black" stroke-width="0.5" fill="#aaffff" cx="566.0" cy="970.0" r="1.0"/>
     <text stroke="none" x="566.0" y="970.0" font-size="20.0" font-family="helvetica">Salinihabitans flavidus ISL-467 (FJ265707)</text>
    </g>
    <g>
     <circle stroke="black" stroke-width="0.5" fill="#aaffff" cx="569.0" cy="445.0" r="1.0"/>
     <text stroke="none" x="569.0" y="445.0" font-size="20.0" font-family="helvetica">Paracoccus kocurii JCM 76847 (D32241)</text>
    </g>
    <g>
     <circle stroke="black" stroke-width="0.5" fill="#aaffff" cx="573.0" cy="1464.0" r="1.0"/>
     <text stroke="none" x="573.0" y="1464.0" font-size="20.0" font-family="helvetica">Rhodovulum adriaticum DSM 27817 (D16418)</text>
    </g>
    <g>
     <circle stroke="black" stroke-width="0.5" fill="#aaffff" cx="575.0" cy="939.0" r="1.0"/>
     <text stroke="none" x="575.0" y="939.0" font-size="20.0" font-family="helvetica">Phaeobacter caeruleus CCUG 558597 (AM943630)</text>
    </g>
    <g>
     <circle stroke="black" stroke-width="0.5" fill="#aaffff" cx="576.0" cy="785.0" r="1.0"/>
     <text stroke="none" x="576.0" y="785.0" font-size="20.0" font-family="helvetica">Catellibacterium aquatile A1 -97 (EU31 3813)</text>
    </g>
    <g>
     <circle stroke="black" stroke-width="0.5" fill="#aaffff" cx="576.0" cy="1649.0" r="1.0"/>
     <text stroke="none" x="576.0" y="1649.0" font-size="20.0" font-family="helvetica">Rhodovulum steppense A-20s7 (EU 741 680)</text>
    </g>
    <g>
     <circle stroke="black" stroke-width="0.5" fill="#aaffff" cx="579.0" cy="75.0" r="1.0"/>
     <text stroke="none" x="579.0" y="75.0" font-size="20.0" font-family="helvetica">Paracoccus sulfuroxidans LW367(DQ512861)</text>
    </g>
    <g>
     <circle stroke="black" stroke-width="0.5" fill="#aaffff" cx="582.0" cy="1680.0" r="1.0"/>
     <text stroke="none" x="582.0" y="1680.0" font-size="20.0" font-family="helvetica">Rhodovulum strictum MB-G27 (D16419)</text>
    </g>
    <g>
     <circle stroke="black" stroke-width="0.5" fill="#aaffff" cx="590.0" cy="1557.0" r="1.0"/>
     <text stroke="none" x="590.0" y="1557.0" font-size="20.0" font-family="helvetica">Rhodovulum visakhapatnamense JA1817(AM180707)</text>
    </g>
    <g>
     <circle stroke="black" stroke-width="0.5" fill="#aaffff" cx="605.0" cy="908.0" r="1.0"/>
     <text stroke="none" x="605.0" y="908.0" font-size="20.0" font-family="helvetica">Ketogulonicigenium vulgare DSM 40257 (AF136849)</text>
    </g>
    <g>
     <circle stroke="black" stroke-width="0.5" fill="#aaffff" cx="606.0" cy="1728.0" r="1.0"/>
     <text stroke="none" x="606.0" y="1728.0" font-size="20.0" font-family="helvetica">(D2531 2)</text>
    </g>
    <g>
     <circle stroke="black" stroke-width="0.5" fill="#aaffff" cx="607.0" cy="1495.0" r="1.0"/>
     <text stroke="none" x="607.0" y="1495.0" font-size="20.0" font-family="helvetica">Rhodovulum imhoffiiJA1257(AM180953)</text>
    </g>
    <line stroke="black" x1="500.0" y1="199.0" x2="364.0" y2="199.0" stroke-width="0.5"/>
    <line stroke="black" x1="499.0" y1="384.0" x2="476.0" y2="401.0" stroke-width="0.5"/>
    <line stroke="black" x1="556.0" y1="415.0" x2="476.0" y2="401.0" stroke-width="0.5"/>
    <line stroke="black" x1="351.0" y1="784.0" x2="348.0" y2="784.0" stroke-width="0.5"/>
    <line stroke="black" x1="333.0" y1="792.0" x2="340.0" y2="789.0" stroke-width="0.5"/>
    <line stroke="black" x1="351.0" y1="795.0" x2="351.0" y2="784.0" stroke-width="0.5"/>
    <line stroke="black" x1="515.0" y1="877.0" x2="320.0" y2="903.0" stroke-width="0.5"/>
    <line stroke="black" x1="431.0" y1="1309.0" x2="269.0" y2="1309.0" stroke-width="0.5"/>
    <line stroke="black" x1="537.0" y1="1278.0" x2="271.0" y2="1278.0" stroke-width="0.5"/>
    <line stroke="black" x1="550.0" y1="1618.0" x2="451.0" y2="1640.0" stroke-width="0.5"/>
    <line stroke="black" x1="607.0" y1="1495.0" x2="445.0" y2="1480.0" stroke-width="0.5"/>
    <line stroke="black" x1="530.0" y1="1217.0" x2="309.0" y2="1170.0" stroke-width="0.5"/>
    <line stroke="black" x1="464.0" y1="1063.0" x2="460.0" y2="1040.0" stroke-width="0.5"/>
    <line stroke="black" x1="467.0" y1="1000.0" x2="466.0" y2="1017.0" stroke-width="0.5"/>
    <line stroke="black" x1="467.0" y1="1033.0" x2="466.0" y2="1017.0" stroke-width="0.5"/>
    <line stroke="black" x1="489.0" y1="30.0" x2="403.0" y2="61.0" stroke-width="0.5"/>
    <line stroke="black" x1="403.0" y1="61.0" x2="375.0" y2="100.0" stroke-width="0.5"/>
    <line stroke="black" x1="403.0" y1="61.0" x2="432.0" y2="90.0" stroke-width="0.5"/>
    <line stroke="black" x1="375.0" y1="100.0" x2="349.0" y2="148.0" stroke-width="0.5"/>
    <line stroke="black" x1="349.0" y1="148.0" x2="340.0" y2="220.0" stroke-width="0.5"/>
    <line stroke="black" x1="349.0" y1="148.0" x2="359.0" y2="193.0" stroke-width="0.5"/>
    <line stroke="black" x1="359.0" y1="193.0" x2="364.0" y2="199.0" stroke-width="0.5"/>
    <line stroke="black" x1="364.0" y1="199.0" x2="379.0" y2="244.0" stroke-width="0.5"/>
    <line stroke="black" x1="340.0" y1="220.0" x2="335.0" y2="288.0" stroke-width="0.5"/>
    <line stroke="black" x1="335.0" y1="288.0" x2="320.0" y2="451.0" stroke-width="0.5"/>
    <line stroke="black" x1="335.0" y1="288.0" x2="367.0" y2="355.0" stroke-width="0.5"/>
    <line stroke="black" x1="367.0" y1="355.0" x2="400.0" y2="390.0" stroke-width="0.5"/>
    <line stroke="black" x1="400.0" y1="390.0" x2="407.0" y2="429.0" stroke-width="0.5"/>
    <line stroke="black" x1="320.0" y1="451.0" x2="255.0" y2="601.0" stroke-width="0.5"/>
    <line stroke="black" x1="320.0" y1="451.0" x2="350.0" y2="612.0" stroke-width="0.5"/>
    <line stroke="black" x1="407.0" y1="429.0" x2="426.0" y2="460.0" stroke-width="0.5"/>
    <line stroke="black" x1="407.0" y1="429.0" x2="476.0" y2="401.0" stroke-width="0.5"/>
    <line stroke="black" x1="350.0" y1="612.0" x2="379.0" y2="653.0" stroke-width="0.5"/>
    <line stroke="black" x1="350.0" y1="612.0" x2="391.0" y2="574.0" stroke-width="0.5"/>
    <line stroke="black" x1="255.0" y1="601.0" x2="231.0" y2="738.0" stroke-width="0.5"/>
    <line stroke="black" x1="255.0" y1="601.0" x2="291.0" y2="749.0" stroke-width="0.5"/>
    <line stroke="black" x1="379.0" y1="653.0" x2="438.0" y2="676.0" stroke-width="0.5"/>
    <line stroke="black" x1="391.0" y1="574.0" x2="484.0" y2="547.0" stroke-width="0.5"/>
    <line stroke="black" x1="231.0" y1="738.0" x2="209.0" y2="1085.0" stroke-width="0.5"/>
    <line stroke="black" x1="231.0" y1="738.0" x2="291.0" y2="874.0" stroke-width="0.5"/>
    <line stroke="black" x1="291.0" y1="749.0" x2="350.0" y2="778.0" stroke-width="0.5"/>
    <line stroke="black" x1="350.0" y1="778.0" x2="340.0" y2="789.0" stroke-width="0.5"/>
    <line stroke="black" x1="350.0" y1="778.0" x2="340.0" y2="789.0" stroke-width="0.5"/>
    <line stroke="black" x1="350.0" y1="778.0" x2="351.0" y2="784.0" stroke-width="0.5"/>
    <line stroke="black" x1="350.0" y1="778.0" x2="398.0" y2="799.0" stroke-width="0.5"/>
    <line stroke="black" x1="291.0" y1="874.0" x2="320.0" y2="903.0" stroke-width="0.5"/>
    <line stroke="black" x1="320.0" y1="903.0" x2="326.0" y2="930.0" stroke-width="0.5"/>
    <line stroke="black" x1="326.0" y1="930.0" x2="408.0" y2="953.0" stroke-width="0.5"/>
    <line stroke="black" x1="209.0" y1="1085.0" x2="248.0" y2="1430.0" stroke-width="0.5"/>
    <line stroke="black" x1="248.0" y1="1430.0" x2="359.0" y2="1540.0" stroke-width="0.5"/>
    <line stroke="black" x1="248.0" y1="1430.0" x2="266.0" y2="1322.0" stroke-width="0.5"/>
    <line stroke="black" x1="266.0" y1="1322.0" x2="304.0" y2="1366.0" stroke-width="0.5"/>
    <line stroke="black" x1="266.0" y1="1322.0" x2="269.0" y2="1309.0" stroke-width="0.5"/>
    <line stroke="black" x1="269.0" y1="1309.0" x2="271.0" y2="1278.0" stroke-width="0.5"/>
    <line stroke="black" x1="271.0" y1="1278.0" x2="298.0" y2="1209.0" stroke-width="0.5"/>
    <line stroke="black" x1="304.0" y1="1366.0" x2="367.0" y2="1393.0" stroke-width="0.5"/>
    <line stroke="black" x1="359.0" y1="1540.0" x2="384.0" y2="1602.0" stroke-width="0.5"/>
    <line stroke="black" x1="359.0" y1="1540.0" x2="445.0" y2="1480.0" stroke-width="0.5"/>
    <line stroke="black" x1="298.0" y1="1209.0" x2="309.0" y2="1170.0" stroke-width="0.5"/>
    <line stroke="black" x1="367.0" y1="1393.0" x2="383.0" y2="1416.0" stroke-width="0.5"/>
    <line stroke="black" x1="384.0" y1="1602.0" x2="451.0" y2="1640.0" stroke-width="0.5"/>
    <line stroke="black" x1="384.0" y1="1602.0" x2="448.0" y2="1565.0" stroke-width="0.5"/>
    <line stroke="black" x1="309.0" y1="1170.0" x2="319.0" y2="1123.0" stroke-width="0.5"/>
    <line stroke="black" x1="319.0" y1="1123.0" x2="412.0" y2="1075.0" stroke-width="0.5"/>
    <line stroke="black" x1="448.0" y1="1565.0" x2="538.0" y2="1542.0" stroke-width="0.5"/>
    <line stroke="black" x1="451.0" y1="1640.0" x2="559.0" y2="1663.0" stroke-width="0.5"/>
    <line stroke="black" x1="412.0" y1="1075.0" x2="440.0" y2="1108.0" stroke-width="0.5"/>
    <line stroke="black" x1="412.0" y1="1075.0" x2="460.0" y2="1040.0" stroke-width="0.5"/>
    <line stroke="black" x1="460.0" y1="1040.0" x2="466.0" y2="1017.0" stroke-width="0.5"/>
    <line stroke="black" x1="606.0" y1="1728.0" x2="209.0" y2="1085.0" stroke-width="0.5"/>
    <line stroke="black" x1="395.0" y1="1340.0" x2="304.0" y2="1366.0" stroke-width="0.5"/>
    <line stroke="black" x1="478.0" y1="723.0" x2="291.0" y2="749.0" stroke-width="0.5"/>
    <line stroke="black" x1="498.0" y1="1248.0" x2="298.0" y2="1209.0" stroke-width="0.5"/>
    <line stroke="black" x1="521.0" y1="847.0" x2="291.0" y2="874.0" stroke-width="0.5"/>
    <line stroke="black" x1="449.0" y1="292.0" x2="340.0" y2="220.0" stroke-width="0.5"/>
    <line stroke="black" x1="462.0" y1="168.0" x2="359.0" y2="193.0" stroke-width="0.5"/>
    <line stroke="black" x1="448.0" y1="137.0" x2="375.0" y2="100.0" stroke-width="0.5"/>
    <line stroke="black" x1="473.0" y1="1371.0" x2="367.0" y2="1393.0" stroke-width="0.5"/>
    <line stroke="black" x1="489.0" y1="322.0" x2="367.0" y2="355.0" stroke-width="0.5"/>
    <line stroke="black" x1="463.0" y1="1433.0" x2="383.0" y2="1416.0" stroke-width="0.5"/>
    <line stroke="black" x1="483.0" y1="230.0" x2="379.0" y2="244.0" stroke-width="0.5"/>
    <line stroke="black" x1="491.0" y1="261.0" x2="379.0" y2="244.0" stroke-width="0.5"/>
    <line stroke="black" x1="491.0" y1="631.0" x2="379.0" y2="653.0" stroke-width="0.5"/>
    <line stroke="black" x1="522.0" y1="754.0" x2="350.0" y2="778.0" stroke-width="0.5"/>
    <line stroke="black" x1="605.0" y1="908.0" x2="326.0" y2="930.0" stroke-width="0.5"/>
    <line stroke="black" x1="498.0" y1="1402.0" x2="383.0" y2="1416.0" stroke-width="0.5"/>
    <line stroke="black" x1="488.0" y1="600.0" x2="391.0" y2="574.0" stroke-width="0.5"/>
    <line stroke="black" x1="475.0" y1="816.0" x2="398.0" y2="799.0" stroke-width="0.5"/>
    <line stroke="black" x1="491.0" y1="353.0" x2="400.0" y2="390.0" stroke-width="0.5"/>
    <line stroke="black" x1="438.0" y1="1155.0" x2="319.0" y2="1123.0" stroke-width="0.5"/>
    <line stroke="black" x1="507.0" y1="476.0" x2="426.0" y2="460.0" stroke-width="0.5"/>
    <line stroke="black" x1="488.0" y1="692.0" x2="438.0" y2="676.0" stroke-width="0.5"/>
    <line stroke="black" x1="487.0" y1="1093.0" x2="440.0" y2="1108.0" stroke-width="0.5"/>
    <line stroke="black" x1="576.0" y1="785.0" x2="398.0" y2="799.0" stroke-width="0.5"/>
    <line stroke="black" x1="566.0" y1="970.0" x2="408.0" y2="953.0" stroke-width="0.5"/>
    <line stroke="black" x1="501.0" y1="1124.0" x2="440.0" y2="1108.0" stroke-width="0.5"/>
    <line stroke="black" x1="512.0" y1="661.0" x2="438.0" y2="676.0" stroke-width="0.5"/>
    <line stroke="black" x1="575.0" y1="939.0" x2="408.0" y2="953.0" stroke-width="0.5"/>
    <line stroke="black" x1="510.0" y1="1588.0" x2="448.0" y2="1565.0" stroke-width="0.5"/>
    <line stroke="black" x1="548.0" y1="106.0" x2="432.0" y2="90.0" stroke-width="0.5"/>
    <line stroke="black" x1="569.0" y1="445.0" x2="426.0" y2="460.0" stroke-width="0.5"/>
    <line stroke="black" x1="579.0" y1="75.0" x2="432.0" y2="90.0" stroke-width="0.5"/>
    <line stroke="black" x1="493.0" y1="569.0" x2="484.0" y2="547.0" stroke-width="0.5"/>
    <line stroke="black" x1="573.0" y1="1464.0" x2="445.0" y2="1480.0" stroke-width="0.5"/>
    <line stroke="black" x1="497.0" y1="507.0" x2="484.0" y2="547.0" stroke-width="0.5"/>
    <line stroke="black" x1="506.0" y1="14.0" x2="489.0" y2="30.0" stroke-width="0.5"/>
    <line stroke="black" x1="527.0" y1="45.0" x2="489.0" y2="30.0" stroke-width="0.5"/>
    <line stroke="black" x1="558.0" y1="1525.0" x2="538.0" y2="1542.0" stroke-width="0.5"/>
    <line stroke="black" x1="590.0" y1="1557.0" x2="538.0" y2="1542.0" stroke-width="0.5"/>
    <line stroke="black" x1="576.0" y1="1649.0" x2="559.0" y2="1663.0" stroke-width="0.5"/>
    <line stroke="black" x1="582.0" y1="1680.0" x2="559.0" y2="1663.0" stroke-width="0.5"/>
   </g>
  </g>
 </svg>
</svg>
