<?xml version="1.0" encoding="UTF-8"?>
<svg height="800.0" width="700.0" xmlns="http://www.w3.org/2000/svg">
 <svg>
  <g>
   <g>
    <g>
     <circle stroke="black" stroke-width="0.5" fill="#aaffff" cx="176.0" cy="138.0" r="1.0"/>
     <text stroke="none" x="176.0" y="138.0" font-size="20.0" font-family="helvetica">100</text>
    </g>
    <g>
     <circle stroke="black" stroke-width="0.5" fill="#aaffff" cx="181.0" cy="17.0" r="1.0"/>
     <text stroke="none" x="181.0" y="17.0" font-size="10.0" font-family="helvetica">NT1.2</text>
    </g>
    <g>
     <circle stroke="black" stroke-width="0.5" fill="#aaffff" cx="192.0" cy="206.0" r="1.0"/>
     <text stroke="none" x="192.0" y="206.0" font-size="10.0" font-family="helvetica">NT1.3</text>
    </g>
    <g>
     <circle stroke="black" stroke-width="0.5" fill="#aaffff" cx="199.0" cy="71.0" r="1.0"/>
     <text stroke="none" x="199.0" y="71.0" font-size="10.0" font-family="helvetica">NT1.4</text>
    </g>
    <g>
     <circle stroke="black" stroke-width="0.5" fill="#aaffff" cx="229.0" cy="269.0" r="1.0"/>
     <text stroke="none" x="229.0" y="269.0" font-size="10.0" font-family="helvetica">NT1.5</text>
    </g>
    <g>
     <circle stroke="black" stroke-width="0.5" fill="#aaffff" cx="256.0" cy="344.0" r="1.0"/>
     <text stroke="none" x="256.0" y="344.0" font-size="20.0" font-family="helvetica">56</text>
    </g>
    <g>
     <circle stroke="black" stroke-width="0.5" fill="#aaffff" cx="287.0" cy="143.0" r="1.0"/>
     <text stroke="none" x="287.0" y="143.0" font-size="20.0" font-family="helvetica">o</text>
    </g>
    <g>
     <circle stroke="black" stroke-width="0.5" fill="#aaffff" cx="290.0" cy="250.0" r="1.0"/>
     <text stroke="none" x="290.0" y="250.0" font-size="10.0" font-family="helvetica">NT1.8</text>
    </g>
    <g>
     <circle stroke="black" stroke-width="0.5" fill="#aaffff" cx="311.0" cy="437.0" r="1.0"/>
     <text stroke="none" x="311.0" y="437.0" font-size="20.0" font-family="helvetica">B8</text>
    </g>
    <g>
     <circle stroke="black" stroke-width="0.5" fill="#aaffff" cx="330.0" cy="527.0" r="1.0"/>
     <text stroke="none" x="330.0" y="527.0" font-size="10.0" font-family="helvetica">NT1.10</text>
    </g>
    <g>
     <circle stroke="black" stroke-width="0.5" fill="#aaffff" cx="344.0" cy="349.0" r="1.0"/>
     <text stroke="none" x="344.0" y="349.0" font-size="10.0" font-family="helvetica">NT1.11</text>
    </g>
    <g>
     <circle stroke="black" stroke-width="0.5" fill="#aaffff" cx="348.0" cy="268.0" r="1.0"/>
     <text stroke="none" x="348.0" y="268.0" font-size="20.0" font-family="helvetica">Erwinia toletana A377 (AF103910)</text>
    </g>
    <g>
     <circle stroke="black" stroke-width="0.5" fill="#aaffff" cx="356.0" cy="501.0" r="1.0"/>
     <text stroke="none" x="356.0" y="501.0" font-size="10.0" font-family="helvetica">NT1.13</text>
    </g>
    <g>
     <circle stroke="black" stroke-width="0.5" fill="#aaffff" cx="373.0" cy="89.0" r="1.0"/>
     <text stroke="none" x="373.0" y="89.0" font-size="10.0" font-family="helvetica">NT1.14</text>
    </g>
    <g>
     <circle stroke="black" stroke-width="0.5" fill="#aaffff" cx="373.0" cy="393.0" r="1.0"/>
     <text stroke="none" x="373.0" y="393.0" font-size="20.0" font-family="helvetica">70</text>
    </g>
    <g>
     <circle stroke="black" stroke-width="0.5" fill="#aaffff" cx="384.0" cy="303.0" r="1.0"/>
     <text stroke="none" x="384.0" y="303.0" font-size="10.0" font-family="helvetica">NT1.16</text>
    </g>
    <g>
     <circle stroke="black" stroke-width="0.5" fill="#aaffff" cx="395.0" cy="519.0" r="1.0"/>
     <text stroke="none" x="395.0" y="519.0" font-size="20.0" font-family="helvetica">Erwinia rhapontici ATCC 292837 (U80206)</text>
    </g>
    <g>
     <circle stroke="black" stroke-width="0.5" fill="#aaffff" cx="415.0" cy="429.0" r="1.0"/>
     <text stroke="none" x="415.0" y="429.0" font-size="10.0" font-family="helvetica">NT1.18</text>
    </g>
    <g>
     <circle stroke="black" stroke-width="0.5" fill="#aaffff" cx="416.0" cy="161.0" r="1.0"/>
     <text stroke="none" x="416.0" y="161.0" font-size="20.0" font-family="helvetica">Erwinia papayae CFBP 51897 (AY131237)</text>
    </g>
    <g>
     <circle stroke="black" stroke-width="0.5" fill="#aaffff" cx="416.0" cy="447.0" r="1.0"/>
     <text stroke="none" x="416.0" y="447.0" font-size="10.0" font-family="helvetica">NT1.20</text>
    </g>
    <g>
     <circle stroke="black" stroke-width="0.5" fill="#aaffff" cx="416.0" cy="411.0" r="1.0"/>
     <text stroke="none" x="416.0" y="411.0" font-size="10.0" font-family="helvetica">NT1.21</text>
    </g>
    <g>
     <circle stroke="black" stroke-width="0.5" fill="#aaffff" cx="425.0" cy="125.0" r="1.0"/>
     <text stroke="none" x="425.0" y="125.0" font-size="20.0" font-family="helvetica">Erwinia mallotivora LMG 27087 (Z96084)</text>
    </g>
    <g>
     <circle stroke="black" stroke-width="0.5" fill="#aaffff" cx="430.0" cy="483.0" r="1.0"/>
     <text stroke="none" x="430.0" y="483.0" font-size="20.0" font-family="helvetica">Erwinia persicina ATCC 359987 (U80205)</text>
    </g>
    <g>
     <circle stroke="black" stroke-width="0.5" fill="#aaffff" cx="430.0" cy="358.0" r="1.0"/>
     <text stroke="none" x="430.0" y="358.0" font-size="10.0" font-family="helvetica">NT1.24</text>
    </g>
    <g>
     <circle stroke="black" stroke-width="0.5" fill="#aaffff" cx="437.0" cy="555.0" r="1.0"/>
     <text stroke="none" x="437.0" y="555.0" font-size="10.0" font-family="helvetica">NT1.25</text>
    </g>
    <g>
     <circle stroke="black" stroke-width="0.5" fill="#aaffff" cx="438.0" cy="196.0" r="1.0"/>
     <text stroke="none" x="438.0" y="196.0" font-size="20.0" font-family="helvetica">Erwinia aphidicola DSM 193477 (AB273744)</text>
    </g>
    <g>
     <circle stroke="black" stroke-width="0.5" fill="#aaffff" cx="479.0" cy="376.0" r="1.0"/>
     <text stroke="none" x="479.0" y="376.0" font-size="20.0" font-family="helvetica">Erwinia amylovora NCPPB 6837 (U80195)</text>
    </g>
    <g>
     <circle stroke="black" stroke-width="0.5" fill="#aaffff" cx="483.0" cy="232.0" r="1.0"/>
     <text stroke="none" x="483.0" y="232.0" font-size="20.0" font-family="helvetica">Pantoea agglomerans DSM 34937 (AJ233423)</text>
    </g>
    <g>
     <circle stroke="black" stroke-width="0.5" fill="#aaffff" cx="503.0" cy="339.0" r="1.0"/>
     <text stroke="none" x="503.0" y="339.0" font-size="10.0" font-family="helvetica">NT1.29</text>
    </g>
    <g>
     <circle stroke="black" stroke-width="0.5" fill="#aaffff" cx="571.0" cy="52.0" r="1.0"/>
     <text stroke="none" x="571.0" y="52.0" font-size="20.0" font-family="helvetica">Erwinia tracheiphila LMG 29067 (Y13250)</text>
    </g>
    <g>
     <circle stroke="black" stroke-width="0.5" fill="#aaffff" cx="3.0" cy="77.0" r="1.0"/>
     <text stroke="none" x="3.0" y="77.0" font-size="10.0" font-family="helvetica">NT1.31</text>
    </g>
    <line stroke="black" x1="416.0" y1="161.0" x2="287.0" y2="143.0" stroke-width="0.5"/>
    <line stroke="black" x1="425.0" y1="125.0" x2="287.0" y2="143.0" stroke-width="0.5"/>
    <line stroke="black" x1="438.0" y1="196.0" x2="229.0" y2="269.0" stroke-width="0.5"/>
    <line stroke="black" x1="348.0" y1="268.0" x2="290.0" y2="250.0" stroke-width="0.5"/>
    <line stroke="black" x1="571.0" y1="52.0" x2="199.0" y2="71.0" stroke-width="0.5"/>
    <line stroke="black" x1="483.0" y1="232.0" x2="290.0" y2="250.0" stroke-width="0.5"/>
    <line stroke="black" x1="395.0" y1="519.0" x2="356.0" y2="501.0" stroke-width="0.5"/>
    <line stroke="black" x1="430.0" y1="483.0" x2="356.0" y2="501.0" stroke-width="0.5"/>
    <line stroke="black" x1="479.0" y1="376.0" x2="430.0" y2="358.0" stroke-width="0.5"/>
    <line stroke="black" x1="176.0" y1="138.0" x2="192.0" y2="206.0" stroke-width="0.5"/>
    <line stroke="black" x1="192.0" y1="206.0" x2="229.0" y2="269.0" stroke-width="0.5"/>
    <line stroke="black" x1="192.0" y1="206.0" x2="287.0" y2="143.0" stroke-width="0.5"/>
    <line stroke="black" x1="229.0" y1="269.0" x2="256.0" y2="344.0" stroke-width="0.5"/>
    <line stroke="black" x1="256.0" y1="344.0" x2="311.0" y2="437.0" stroke-width="0.5"/>
    <line stroke="black" x1="256.0" y1="344.0" x2="290.0" y2="250.0" stroke-width="0.5"/>
    <line stroke="black" x1="330.0" y1="527.0" x2="356.0" y2="501.0" stroke-width="0.5"/>
    <line stroke="black" x1="3.0" y1="77.0" x2="176.0" y2="138.0" stroke-width="0.5"/>
   </g>
  </g>
 </svg>
</svg>
