<?xml version="1.0" encoding="UTF-8"?>
<svg height="800.0" width="700.0" xmlns="http://www.w3.org/2000/svg">
 <svg>
  <g>
   <g>
    <g>
     <circle stroke="black" stroke-width="0.5" fill="#aaffff" cx="45.0" cy="151.0" r="1.0"/>
     <text stroke="none" x="45.0" y="151.0" font-size="10.0" font-family="helvetica">NT1.1</text>
    </g>
    <g>
     <circle stroke="black" stroke-width="0.5" fill="#aaffff" cx="76.0" cy="320.0" r="1.0"/>
     <text stroke="none" x="76.0" y="320.0" font-size="10.0" font-family="helvetica">NT1.2</text>
    </g>
    <g>
     <circle stroke="black" stroke-width="0.5" fill="#aaffff" cx="188.0" cy="202.0" r="1.0"/>
     <text stroke="none" x="188.0" y="202.0" font-size="10.0" font-family="helvetica">NT1.3</text>
    </g>
    <g>
     <circle stroke="black" stroke-width="0.5" fill="#aaffff" cx="228.0" cy="438.0" r="1.0"/>
     <text stroke="none" x="228.0" y="438.0" font-size="10.0" font-family="helvetica">NT1.4</text>
    </g>
    <g>
     <circle stroke="black" stroke-width="0.5" fill="#aaffff" cx="228.0" cy="246.0" r="1.0"/>
     <text stroke="none" x="228.0" y="246.0" font-size="10.0" font-family="helvetica">NT1.5</text>
    </g>
    <g>
     <circle stroke="black" stroke-width="0.5" fill="#aaffff" cx="255.0" cy="481.0" r="1.0"/>
     <text stroke="none" x="255.0" y="481.0" font-size="10.0" font-family="helvetica">NT1.6</text>
    </g>
    <g>
     <circle stroke="black" stroke-width="0.5" fill="#aaffff" cx="255.0" cy="288.0" r="1.0"/>
     <text stroke="none" x="255.0" y="288.0" font-size="10.0" font-family="helvetica">NT1.7</text>
    </g>
    <g>
     <circle stroke="black" stroke-width="0.5" fill="#aaffff" cx="270.0" cy="325.0" r="1.0"/>
     <text stroke="none" x="270.0" y="325.0" font-size="10.0" font-family="helvetica">NT1.8</text>
    </g>
    <g>
     <circle stroke="black" stroke-width="0.5" fill="#aaffff" cx="280.0" cy="85.0" r="1.0"/>
     <text stroke="none" x="280.0" y="85.0" font-size="10.0" font-family="helvetica">NT1.9</text>
    </g>
    <g>
     <circle stroke="black" stroke-width="0.5" fill="#aaffff" cx="281.0" cy="517.0" r="1.0"/>
     <text stroke="none" x="281.0" y="517.0" font-size="10.0" font-family="helvetica">NT1.10</text>
    </g>
    <g>
     <circle stroke="black" stroke-width="0.5" fill="#aaffff" cx="306.0" cy="12.0" r="1.0"/>
     <text stroke="none" x="306.0" y="12.0" font-size="20.0" font-family="helvetica">Empedobacter brevis ATCC 14234 (M59052)</text>
    </g>
    <g>
     <circle stroke="black" stroke-width="0.5" fill="#aaffff" cx="306.0" cy="109.0" r="1.0"/>
     <text stroke="none" x="306.0" y="109.0" font-size="20.0" font-family="helvetica">Alteromonas haloplanktis ATCC 14393T (X67025)</text>
    </g>
    <g>
     <circle stroke="black" stroke-width="0.5" fill="#aaffff" cx="306.0" cy="60.0" r="1.0"/>
     <text stroke="none" x="306.0" y="60.0" font-size="20.0" font-family="helvetica">Escherichia coli ATCC 11775T (X80725)</text>
    </g>
    <g>
     <circle stroke="black" stroke-width="0.5" fill="#aaffff" cx="306.0" cy="397.0" r="1.0"/>
     <text stroke="none" x="306.0" y="397.0" font-size="20.0" font-family="helvetica">Pseudomonas aeruginosa ATCC 33350 (AF094720)</text>
    </g>
    <g>
     <circle stroke="black" stroke-width="0.5" fill="#aaffff" cx="306.0" cy="157.0" r="1.0"/>
     <text stroke="none" x="306.0" y="157.0" font-size="20.0" font-family="helvetica">Methylobacter whittenburyi ACM 331 OT (X72773)</text>
    </g>
    <g>
     <circle stroke="black" stroke-width="0.5" fill="#aaffff" cx="306.0" cy="446.0" r="1.0"/>
     <text stroke="none" x="306.0" y="446.0" font-size="20.0" font-family="helvetica">Marinomonas vaga ATCC 27119T (X67025)</text>
    </g>
    <g>
     <circle stroke="black" stroke-width="0.5" fill="#aaffff" cx="306.0" cy="205.0" r="1.0"/>
     <text stroke="none" x="306.0" y="205.0" font-size="20.0" font-family="helvetica">Methylophaga alcalica M391 (AF384373)</text>
    </g>
    <g>
     <circle stroke="black" stroke-width="0.5" fill="#aaffff" cx="306.0" cy="542.0" r="1.0"/>
     <text stroke="none" x="306.0" y="542.0" font-size="20.0" font-family="helvetica">Halomonas elongata ATCC 33173T (X67023)</text>
    </g>
    <g>
     <circle stroke="black" stroke-width="0.5" fill="#aaffff" cx="306.0" cy="494.0" r="1.0"/>
     <text stroke="none" x="306.0" y="494.0" font-size="20.0" font-family="helvetica">Oceanospirfllum Iinum ATCC 11336T (M22365)</text>
    </g>
    <g>
     <circle stroke="black" stroke-width="0.5" fill="#aaffff" cx="306.0" cy="253.0" r="1.0"/>
     <text stroke="none" x="306.0" y="253.0" font-size="20.0" font-family="helvetica">Methylophaga marina ATCC 358427 (X87338)</text>
    </g>
    <g>
     <circle stroke="black" stroke-width="0.5" fill="#aaffff" cx="306.0" cy="301.0" r="1.0"/>
     <text stroke="none" x="306.0" y="301.0" font-size="20.0" font-family="helvetica">Methylophaga sulfidovorans RB-1T (X95461)</text>
    </g>
    <g>
     <circle stroke="black" stroke-width="0.5" fill="#aaffff" cx="306.0" cy="349.0" r="1.0"/>
     <text stroke="none" x="306.0" y="349.0" font-size="20.0" font-family="helvetica">Methylophaga thalassica ATCC 33146T (X87339)</text>
    </g>
    <line stroke="black" x1="306.0" y1="109.0" x2="280.0" y2="85.0" stroke-width="0.5"/>
    <line stroke="black" x1="306.0" y1="397.0" x2="228.0" y2="438.0" stroke-width="0.5"/>
    <line stroke="black" x1="306.0" y1="157.0" x2="188.0" y2="202.0" stroke-width="0.5"/>
    <line stroke="black" x1="306.0" y1="205.0" x2="228.0" y2="246.0" stroke-width="0.5"/>
    <line stroke="black" x1="306.0" y1="542.0" x2="281.0" y2="517.0" stroke-width="0.5"/>
    <line stroke="black" x1="306.0" y1="494.0" x2="281.0" y2="517.0" stroke-width="0.5"/>
    <line stroke="black" x1="306.0" y1="253.0" x2="255.0" y2="288.0" stroke-width="0.5"/>
    <line stroke="black" x1="306.0" y1="301.0" x2="270.0" y2="325.0" stroke-width="0.5"/>
    <line stroke="black" x1="45.0" y1="151.0" x2="76.0" y2="320.0" stroke-width="0.5"/>
    <line stroke="black" x1="76.0" y1="320.0" x2="188.0" y2="202.0" stroke-width="0.5"/>
    <line stroke="black" x1="76.0" y1="320.0" x2="228.0" y2="438.0" stroke-width="0.5"/>
    <line stroke="black" x1="188.0" y1="202.0" x2="228.0" y2="246.0" stroke-width="0.5"/>
    <line stroke="black" x1="228.0" y1="438.0" x2="255.0" y2="481.0" stroke-width="0.5"/>
    <line stroke="black" x1="228.0" y1="246.0" x2="255.0" y2="288.0" stroke-width="0.5"/>
    <line stroke="black" x1="255.0" y1="481.0" x2="281.0" y2="517.0" stroke-width="0.5"/>
    <line stroke="black" x1="255.0" y1="288.0" x2="270.0" y2="325.0" stroke-width="0.5"/>
    <line stroke="black" x1="306.0" y1="12.0" x2="45.0" y2="151.0" stroke-width="0.5"/>
    <line stroke="black" x1="45.0" y1="151.0" x2="280.0" y2="85.0" stroke-width="0.5"/>
    <line stroke="black" x1="306.0" y1="446.0" x2="255.0" y2="481.0" stroke-width="0.5"/>
    <line stroke="black" x1="306.0" y1="349.0" x2="270.0" y2="325.0" stroke-width="0.5"/>
    <line stroke="black" x1="306.0" y1="60.0" x2="280.0" y2="85.0" stroke-width="0.5"/>
   </g>
  </g>
 </svg>
</svg>
