<?xml version="1.0" encoding="UTF-8"?>
<svg height="800.0" width="700.0" xmlns="http://www.w3.org/2000/svg">
 <svg>
  <g>
   <g>
    <g>
     <circle stroke="black" stroke-width="0.5" fill="#aaffff" cx="137.0" cy="761.0" r="1.0"/>
     <text stroke="none" x="137.0" y="761.0" font-size="10.0" font-family="helvetica">NT1.1</text>
    </g>
    <g>
     <circle stroke="black" stroke-width="0.5" fill="#aaffff" cx="194.0" cy="683.0" r="1.0"/>
     <text stroke="none" x="194.0" y="683.0" font-size="10.0" font-family="helvetica">NT1.2</text>
    </g>
    <g>
     <circle stroke="black" stroke-width="0.5" fill="#aaffff" cx="236.0" cy="569.0" r="1.0"/>
     <text stroke="none" x="236.0" y="569.0" font-size="10.0" font-family="helvetica">NT1.3</text>
    </g>
    <g>
     <circle stroke="black" stroke-width="0.5" fill="#aaffff" cx="254.0" cy="420.0" r="1.0"/>
     <text stroke="none" x="254.0" y="420.0" font-size="10.0" font-family="helvetica">NT1.4</text>
    </g>
    <g>
     <circle stroke="black" stroke-width="0.5" fill="#aaffff" cx="259.0" cy="719.0" r="1.0"/>
     <text stroke="none" x="259.0" y="719.0" font-size="10.0" font-family="helvetica">NT1.5</text>
    </g>
    <g>
     <circle stroke="black" stroke-width="0.5" fill="#aaffff" cx="264.0" cy="248.0" r="1.0"/>
     <text stroke="none" x="264.0" y="248.0" font-size="10.0" font-family="helvetica">NT1.6</text>
    </g>
    <g>
     <circle stroke="black" stroke-width="0.5" fill="#aaffff" cx="271.0" cy="687.0" r="1.0"/>
     <text stroke="none" x="271.0" y="687.0" font-size="10.0" font-family="helvetica">NT1.7</text>
    </g>
    <g>
     <circle stroke="black" stroke-width="0.5" fill="#aaffff" cx="274.0" cy="353.0" r="1.0"/>
     <text stroke="none" x="274.0" y="353.0" font-size="10.0" font-family="helvetica">NT1.8</text>
    </g>
    <g>
     <circle stroke="black" stroke-width="0.5" fill="#aaffff" cx="274.0" cy="588.0" r="1.0"/>
     <text stroke="none" x="274.0" y="588.0" font-size="10.0" font-family="helvetica">NT1.9</text>
    </g>
    <g>
     <circle stroke="black" stroke-width="0.5" fill="#aaffff" cx="282.0" cy="424.0" r="1.0"/>
     <text stroke="none" x="282.0" y="424.0" font-size="10.0" font-family="helvetica">NT1.10</text>
    </g>
    <g>
     <circle stroke="black" stroke-width="0.5" fill="#aaffff" cx="284.0" cy="283.0" r="1.0"/>
     <text stroke="none" x="284.0" y="283.0" font-size="10.0" font-family="helvetica">NT1.11</text>
    </g>
    <g>
     <circle stroke="black" stroke-width="0.5" fill="#aaffff" cx="293.0" cy="556.0" r="1.0"/>
     <text stroke="none" x="293.0" y="556.0" font-size="10.0" font-family="helvetica">NT1.12</text>
    </g>
    <g>
     <circle stroke="black" stroke-width="0.5" fill="#aaffff" cx="294.0" cy="381.0" r="1.0"/>
     <text stroke="none" x="294.0" y="381.0" font-size="10.0" font-family="helvetica">NT1.13</text>
    </g>
    <g>
     <circle stroke="black" stroke-width="0.5" fill="#aaffff" cx="299.0" cy="250.0" r="1.0"/>
     <text stroke="none" x="299.0" y="250.0" font-size="10.0" font-family="helvetica">NT1.14</text>
    </g>
    <g>
     <circle stroke="black" stroke-width="0.5" fill="#aaffff" cx="302.0" cy="157.0" r="1.0"/>
     <text stroke="none" x="302.0" y="157.0" font-size="10.0" font-family="helvetica">NT1.15</text>
    </g>
    <g>
     <circle stroke="black" stroke-width="0.5" fill="#aaffff" cx="312.0" cy="468.0" r="1.0"/>
     <text stroke="none" x="312.0" y="468.0" font-size="10.0" font-family="helvetica">NT1.16</text>
    </g>
    <g>
     <circle stroke="black" stroke-width="0.5" fill="#aaffff" cx="322.0" cy="103.0" r="1.0"/>
     <text stroke="none" x="322.0" y="103.0" font-size="10.0" font-family="helvetica">NT1.17</text>
    </g>
    <g>
     <circle stroke="black" stroke-width="0.5" fill="#aaffff" cx="357.0" cy="64.0" r="1.0"/>
     <text stroke="none" x="357.0" y="64.0" font-size="10.0" font-family="helvetica">NT1.18</text>
    </g>
    <g>
     <circle stroke="black" stroke-width="0.5" fill="#aaffff" cx="362.0" cy="621.0" r="1.0"/>
     <text stroke="none" x="362.0" y="621.0" font-size="20.0" font-family="helvetica">Polymorphospora rubra TT9742T (AB223089)</text>
    </g>
    <g>
     <circle stroke="black" stroke-width="0.5" fill="#aaffff" cx="368.0" cy="32.0" r="1.0"/>
     <text stroke="none" x="368.0" y="32.0" font-size="20.0" font-family="helvetica">73</text>
    </g>
    <g>
     <circle stroke="black" stroke-width="0.5" fill="#aaffff" cx="410.0" cy="54.0" r="1.0"/>
     <text stroke="none" x="410.0" y="54.0" font-size="10.0" font-family="helvetica">NT1.21</text>
    </g>
    <g>
     <circle stroke="black" stroke-width="0.5" fill="#aaffff" cx="410.0" cy="97.0" r="1.0"/>
     <text stroke="none" x="410.0" y="97.0" font-size="10.0" font-family="helvetica">NT1.22</text>
    </g>
    <g>
     <circle stroke="black" stroke-width="0.5" fill="#aaffff" cx="410.0" cy="315.0" r="1.0"/>
     <text stroke="none" x="410.0" y="315.0" font-size="20.0" font-family="helvetica">Asanoa ferruginea IMSNU 220097 (AF152108)</text>
    </g>
    <g>
     <circle stroke="black" stroke-width="0.5" fill="#aaffff" cx="410.0" cy="403.0" r="1.0"/>
     <text stroke="none" x="410.0" y="403.0" font-size="20.0" font-family="helvetica">Spirilliplanes yamanashiensis NBRC 158287 (D63912)</text>
    </g>
    <g>
     <circle stroke="black" stroke-width="0.5" fill="#aaffff" cx="434.0" cy="228.0" r="1.0"/>
     <text stroke="none" x="434.0" y="228.0" font-size="20.0" font-family="helvetica">Verrucosispora gifhornensis HR1-2T (Y15523)</text>
    </g>
    <g>
     <circle stroke="black" stroke-width="0.5" fill="#aaffff" cx="436.0" cy="142.0" r="1.0"/>
     <text stroke="none" x="436.0" y="142.0" font-size="10.0" font-family="helvetica">NT1.26</text>
    </g>
    <g>
     <circle stroke="black" stroke-width="0.5" fill="#aaffff" cx="444.0" cy="709.0" r="1.0"/>
     <text stroke="none" x="444.0" y="709.0" font-size="10.0" font-family="helvetica">NT1.27</text>
    </g>
    <g>
     <circle stroke="black" stroke-width="0.5" fill="#aaffff" cx="446.0" cy="490.0" r="1.0"/>
     <text stroke="none" x="446.0" y="490.0" font-size="20.0" font-family="helvetica">Salinispora arenicola CNH-6437 (AY040619)</text>
    </g>
    <g>
     <circle stroke="black" stroke-width="0.5" fill="#aaffff" cx="454.0" cy="272.0" r="1.0"/>
     <text stroke="none" x="454.0" y="272.0" font-size="20.0" font-family="helvetica">Catenuloplanes japonicus DSM 441027 (X93201)</text>
    </g>
    <g>
     <circle stroke="black" stroke-width="0.5" fill="#aaffff" cx="459.0" cy="578.0" r="1.0"/>
     <text stroke="none" x="459.0" y="578.0" font-size="20.0" font-family="helvetica">Dactylosporangium aurantiacum DSM 43157T (X93191)</text>
    </g>
    <g>
     <circle stroke="black" stroke-width="0.5" fill="#aaffff" cx="469.0" cy="447.0" r="1.0"/>
     <text stroke="none" x="469.0" y="447.0" font-size="20.0" font-family="helvetica">Micromonospora chalcea DSM 43026T (X92594)</text>
    </g>
    <g>
     <circle stroke="black" stroke-width="0.5" fill="#aaffff" cx="472.0" cy="534.0" r="1.0"/>
     <text stroke="none" x="472.0" y="534.0" font-size="20.0" font-family="helvetica">Virgisporangium aurantiacum YU438-5T (AB006169)</text>
    </g>
    <g>
     <circle stroke="black" stroke-width="0.5" fill="#aaffff" cx="479.0" cy="11.0" r="1.0"/>
     <text stroke="none" x="479.0" y="11.0" font-size="10.0" font-family="helvetica">NT1.33</text>
    </g>
    <g>
     <circle stroke="black" stroke-width="0.5" fill="#aaffff" cx="489.0" cy="665.0" r="1.0"/>
     <text stroke="none" x="489.0" y="665.0" font-size="20.0" font-family="helvetica">Catellatospora citrea IMSNU 22008T (AF152106)</text>
    </g>
    <g>
     <circle stroke="black" stroke-width="0.5" fill="#aaffff" cx="492.0" cy="796.0" r="1.0"/>
     <text stroke="none" x="492.0" y="796.0" font-size="20.0" font-family="helvetica">Pilimelia terevasa DSM 430407 (X93190)</text>
    </g>
    <g>
     <circle stroke="black" stroke-width="0.5" fill="#aaffff" cx="497.0" cy="359.0" r="1.0"/>
     <text stroke="none" x="497.0" y="359.0" font-size="20.0" font-family="helvetica">Actinoplanes philippinensis NBRC 138787 (D85474)</text>
    </g>
    <g>
     <circle stroke="black" stroke-width="0.5" fill="#aaffff" cx="512.0" cy="184.0" r="1.0"/>
     <text stroke="none" x="512.0" y="184.0" font-size="20.0" font-family="helvetica">Actinoplanes globisporus NBRC 139127 (AB037003)</text>
    </g>
    <g>
     <circle stroke="black" stroke-width="0.5" fill="#aaffff" cx="522.0" cy="752.0" r="1.0"/>
     <text stroke="none" x="522.0" y="752.0" font-size="20.0" font-family="helvetica">Longispora albida K97-00O3T (AB089241)</text>
    </g>
    <g>
     <circle stroke="black" stroke-width="0.5" fill="#aaffff" cx="530.0" cy="884.0" r="1.0"/>
     <text stroke="none" x="530.0" y="884.0" font-size="20.0" font-family="helvetica">Streptomyces ambofaciens ATCC 23877 (M27245)</text>
    </g>
    <g>
     <circle stroke="black" stroke-width="0.5" fill="#aaffff" cx="580.0" cy="840.0" r="1.0"/>
     <text stroke="none" x="580.0" y="840.0" font-size="10.0" font-family="helvetica">NT1.40</text>
    </g>
    <g>
     <circle stroke="black" stroke-width="0.5" fill="#aaffff" cx="2.0" cy="857.0" r="1.0"/>
     <text stroke="none" x="2.0" y="857.0" font-size="10.0" font-family="helvetica">NT1.41</text>
    </g>
    <line stroke="black" x1="512.0" y1="184.0" x2="302.0" y2="157.0" stroke-width="0.5"/>
    <line stroke="black" x1="410.0" y1="403.0" x2="294.0" y2="381.0" stroke-width="0.5"/>
    <line stroke="black" x1="434.0" y1="228.0" x2="299.0" y2="250.0" stroke-width="0.5"/>
    <line stroke="black" x1="454.0" y1="272.0" x2="299.0" y2="250.0" stroke-width="0.5"/>
    <line stroke="black" x1="446.0" y1="490.0" x2="312.0" y2="468.0" stroke-width="0.5"/>
    <line stroke="black" x1="469.0" y1="447.0" x2="312.0" y2="468.0" stroke-width="0.5"/>
    <line stroke="black" x1="362.0" y1="621.0" x2="274.0" y2="588.0" stroke-width="0.5"/>
    <line stroke="black" x1="459.0" y1="578.0" x2="293.0" y2="556.0" stroke-width="0.5"/>
    <line stroke="black" x1="472.0" y1="534.0" x2="293.0" y2="556.0" stroke-width="0.5"/>
    <line stroke="black" x1="489.0" y1="665.0" x2="271.0" y2="687.0" stroke-width="0.5"/>
    <line stroke="black" x1="522.0" y1="752.0" x2="259.0" y2="719.0" stroke-width="0.5"/>
    <line stroke="black" x1="492.0" y1="796.0" x2="194.0" y2="683.0" stroke-width="0.5"/>
    <line stroke="black" x1="264.0" y1="248.0" x2="254.0" y2="420.0" stroke-width="0.5"/>
    <line stroke="black" x1="264.0" y1="248.0" x2="274.0" y2="353.0" stroke-width="0.5"/>
    <line stroke="black" x1="274.0" y1="353.0" x2="282.0" y2="424.0" stroke-width="0.5"/>
    <line stroke="black" x1="274.0" y1="353.0" x2="284.0" y2="283.0" stroke-width="0.5"/>
    <line stroke="black" x1="254.0" y1="420.0" x2="236.0" y2="569.0" stroke-width="0.5"/>
    <line stroke="black" x1="254.0" y1="420.0" x2="274.0" y2="588.0" stroke-width="0.5"/>
    <line stroke="black" x1="282.0" y1="424.0" x2="312.0" y2="468.0" stroke-width="0.5"/>
    <line stroke="black" x1="282.0" y1="424.0" x2="294.0" y2="381.0" stroke-width="0.5"/>
    <line stroke="black" x1="284.0" y1="283.0" x2="299.0" y2="250.0" stroke-width="0.5"/>
    <line stroke="black" x1="236.0" y1="569.0" x2="194.0" y2="683.0" stroke-width="0.5"/>
    <line stroke="black" x1="236.0" y1="569.0" x2="259.0" y2="719.0" stroke-width="0.5"/>
    <line stroke="black" x1="274.0" y1="588.0" x2="293.0" y2="556.0" stroke-width="0.5"/>
    <line stroke="black" x1="194.0" y1="683.0" x2="137.0" y2="761.0" stroke-width="0.5"/>
    <line stroke="black" x1="2.0" y1="857.0" x2="530.0" y2="884.0" stroke-width="0.5"/>
    <line stroke="black" x1="410.0" y1="315.0" x2="284.0" y2="283.0" stroke-width="0.5"/>
    <line stroke="black" x1="497.0" y1="359.0" x2="294.0" y2="381.0" stroke-width="0.5"/>
   </g>
  </g>
 </svg>
</svg>
