<?xml version="1.0" encoding="UTF-8"?>
<svg height="800.0" width="700.0" xmlns="http://www.w3.org/2000/svg">
 <svg>
  <g>
   <g>
    <g>
     <circle stroke="black" stroke-width="0.5" fill="#aaffff" cx="115.0" cy="1205.0" r="1.0"/>
     <text stroke="none" x="115.0" y="1205.0" font-size="10.0" font-family="helvetica">NT1.1</text>
    </g>
    <g>
     <circle stroke="black" stroke-width="0.5" fill="#aaffff" cx="141.0" cy="999.0" r="1.0"/>
     <text stroke="none" x="141.0" y="999.0" font-size="10.0" font-family="helvetica">NT1.2</text>
    </g>
    <g>
     <circle stroke="black" stroke-width="0.5" fill="#aaffff" cx="181.0" cy="898.0" r="1.0"/>
     <text stroke="none" x="181.0" y="898.0" font-size="10.0" font-family="helvetica">NT1.3</text>
    </g>
    <g>
     <circle stroke="black" stroke-width="0.5" fill="#aaffff" cx="188.0" cy="774.0" r="1.0"/>
     <text stroke="none" x="188.0" y="774.0" font-size="10.0" font-family="helvetica">NT1.4</text>
    </g>
    <g>
     <circle stroke="black" stroke-width="0.5" fill="#aaffff" cx="232.0" cy="940.0" r="1.0"/>
     <text stroke="none" x="232.0" y="940.0" font-size="10.0" font-family="helvetica">NT1.5</text>
    </g>
    <g>
     <circle stroke="black" stroke-width="0.5" fill="#aaffff" cx="238.0" cy="607.0" r="1.0"/>
     <text stroke="none" x="238.0" y="607.0" font-size="10.0" font-family="helvetica">NT1.6</text>
    </g>
    <g>
     <circle stroke="black" stroke-width="0.5" fill="#aaffff" cx="238.0" cy="1100.0" r="1.0"/>
     <text stroke="none" x="238.0" y="1100.0" font-size="10.0" font-family="helvetica">NT1.7</text>
    </g>
    <g>
     <circle stroke="black" stroke-width="0.5" fill="#aaffff" cx="244.0" cy="795.0" r="1.0"/>
     <text stroke="none" x="244.0" y="795.0" font-size="20.0" font-family="helvetica">327</text>
    </g>
    <g>
     <circle stroke="black" stroke-width="0.5" fill="#aaffff" cx="290.0" cy="730.0" r="1.0"/>
     <text stroke="none" x="290.0" y="730.0" font-size="10.0" font-family="helvetica">NT1.9</text>
    </g>
    <g>
     <circle stroke="black" stroke-width="0.5" fill="#aaffff" cx="297.0" cy="1233.0" r="1.0"/>
     <text stroke="none" x="297.0" y="1233.0" font-size="10.0" font-family="helvetica">NT1.10</text>
    </g>
    <g>
     <circle stroke="black" stroke-width="0.5" fill="#aaffff" cx="305.0" cy="782.0" r="1.0"/>
     <text stroke="none" x="305.0" y="782.0" font-size="10.0" font-family="helvetica">NT1.11</text>
    </g>
    <g>
     <circle stroke="black" stroke-width="0.5" fill="#aaffff" cx="330.0" cy="677.0" r="1.0"/>
     <text stroke="none" x="330.0" y="677.0" font-size="10.0" font-family="helvetica">NT1.12</text>
    </g>
    <g>
     <circle stroke="black" stroke-width="0.5" fill="#aaffff" cx="332.0" cy="417.0" r="1.0"/>
     <text stroke="none" x="332.0" y="417.0" font-size="10.0" font-family="helvetica">NT1.13</text>
    </g>
    <g>
     <circle stroke="black" stroke-width="0.5" fill="#aaffff" cx="386.0" cy="277.0" r="1.0"/>
     <text stroke="none" x="386.0" y="277.0" font-size="10.0" font-family="helvetica">NT1.14</text>
    </g>
    <g>
     <circle stroke="black" stroke-width="0.5" fill="#aaffff" cx="395.0" cy="1127.0" r="1.0"/>
     <text stroke="none" x="395.0" y="1127.0" font-size="20.0" font-family="helvetica">Coriobacterium glomerans DSM 206427 (X79048)</text>
    </g>
    <g>
     <circle stroke="black" stroke-width="0.5" fill="#aaffff" cx="423.0" cy="557.0" r="1.0"/>
     <text stroke="none" x="423.0" y="557.0" font-size="10.0" font-family="helvetica">NT1.16</text>
    </g>
    <g>
     <circle stroke="black" stroke-width="0.5" fill="#aaffff" cx="424.0" cy="915.0" r="1.0"/>
     <text stroke="none" x="424.0" y="915.0" font-size="20.0" font-family="helvetica">Slackia exigua ATCC 700122T (AF101240)</text>
    </g>
    <g>
     <circle stroke="black" stroke-width="0.5" fill="#aaffff" cx="427.0" cy="544.0" r="1.0"/>
     <text stroke="none" x="427.0" y="544.0" font-size="10.0" font-family="helvetica">NT1.18</text>
    </g>
    <g>
     <circle stroke="black" stroke-width="0.5" fill="#aaffff" cx="428.0" cy="491.0" r="1.0"/>
     <text stroke="none" x="428.0" y="491.0" font-size="20.0" font-family="helvetica">Asaccharobacter celatus do03T (AB266102)</text>
    </g>
    <g>
     <circle stroke="black" stroke-width="0.5" fill="#aaffff" cx="429.0" cy="545.0" r="1.0"/>
     <text stroke="none" x="429.0" y="545.0" font-size="10.0" font-family="helvetica">NT1.20</text>
    </g>
    <g>
     <circle stroke="black" stroke-width="0.5" fill="#aaffff" cx="429.0" cy="703.0" r="1.0"/>
     <text stroke="none" x="429.0" y="703.0" font-size="20.0" font-family="helvetica">Eggerthella sinensis HKU14T (AY321958)</text>
    </g>
    <g>
     <circle stroke="black" stroke-width="0.5" fill="#aaffff" cx="438.0" cy="334.0" r="1.0"/>
     <text stroke="none" x="438.0" y="334.0" font-size="10.0" font-family="helvetica">NT1.22</text>
    </g>
    <g>
     <circle stroke="black" stroke-width="0.5" fill="#aaffff" cx="438.0" cy="968.0" r="1.0"/>
     <text stroke="none" x="438.0" y="968.0" font-size="20.0" font-family="helvetica">Slackia isoflavoniconvertens HE8T (EU826403)</text>
    </g>
    <g>
     <circle stroke="black" stroke-width="0.5" fill="#aaffff" cx="439.0" cy="756.0" r="1.0"/>
     <text stroke="none" x="439.0" y="756.0" font-size="10.0" font-family="helvetica">NT1.24</text>
    </g>
    <g>
     <circle stroke="black" stroke-width="0.5" fill="#aaffff" cx="439.0" cy="161.0" r="1.0"/>
     <text stroke="none" x="439.0" y="161.0" font-size="10.0" font-family="helvetica">NT1.25</text>
    </g>
    <g>
     <circle stroke="black" stroke-width="0.5" fill="#aaffff" cx="441.0" cy="598.0" r="1.0"/>
     <text stroke="none" x="441.0" y="598.0" font-size="20.0" font-family="helvetica"> Human intestinal bacterium SNU-Julong732 (AY310748)</text>
    </g>
    <g>
     <circle stroke="black" stroke-width="0.5" fill="#aaffff" cx="443.0" cy="331.0" r="1.0"/>
     <text stroke="none" x="443.0" y="331.0" font-size="10.0" font-family="helvetica">NT1.27</text>
    </g>
    <g>
     <circle stroke="black" stroke-width="0.5" fill="#aaffff" cx="443.0" cy="1179.0" r="1.0"/>
     <text stroke="none" x="443.0" y="1179.0" font-size="20.0" font-family="helvetica">Atopobium minutum NCFB 27517 (X67148)</text>
    </g>
    <g>
     <circle stroke="black" stroke-width="0.5" fill="#aaffff" cx="443.0" cy="360.0" r="1.0"/>
     <text stroke="none" x="443.0" y="360.0" font-size="20.0" font-family="helvetica">891</text>
    </g>
    <g>
     <circle stroke="black" stroke-width="0.5" fill="#aaffff" cx="444.0" cy="650.0" r="1.0"/>
     <text stroke="none" x="444.0" y="650.0" font-size="20.0" font-family="helvetica">Eggerthella lenta DSM 2243T (AF292375)</text>
    </g>
    <g>
     <circle stroke="black" stroke-width="0.5" fill="#aaffff" cx="444.0" cy="95.0" r="1.0"/>
     <text stroke="none" x="444.0" y="95.0" font-size="20.0" font-family="helvetica">826</text>
    </g>
    <g>
     <circle stroke="black" stroke-width="0.5" fill="#aaffff" cx="449.0" cy="863.0" r="1.0"/>
     <text stroke="none" x="449.0" y="863.0" font-size="20.0" font-family="helvetica">Denitrobacterium detoxificans NPOH1T (U43492)</text>
    </g>
    <g>
     <circle stroke="black" stroke-width="0.5" fill="#aaffff" cx="450.0" cy="42.0" r="1.0"/>
     <text stroke="none" x="450.0" y="42.0" font-size="10.0" font-family="helvetica">NT1.33</text>
    </g>
    <g>
     <circle stroke="black" stroke-width="0.5" fill="#aaffff" cx="450.0" cy="147.0" r="1.0"/>
     <text stroke="none" x="450.0" y="147.0" font-size="10.0" font-family="helvetica">NT1.34</text>
    </g>
    <g>
     <circle stroke="black" stroke-width="0.5" fill="#aaffff" cx="451.0" cy="15.0" r="1.0"/>
     <text stroke="none" x="451.0" y="15.0" font-size="10.0" font-family="helvetica">NT1.35</text>
    </g>
    <g>
     <circle stroke="black" stroke-width="0.5" fill="#aaffff" cx="457.0" cy="439.0" r="1.0"/>
     <text stroke="none" x="457.0" y="439.0" font-size="20.0" font-family="helvetica">Enterorhabdus caecimuris B7T (DQ789120)</text>
    </g>
    <g>
     <circle stroke="black" stroke-width="0.5" fill="#aaffff" cx="457.0" cy="333.0" r="1.0"/>
     <text stroke="none" x="457.0" y="333.0" font-size="10.0" font-family="helvetica">NT1.37</text>
    </g>
    <g>
     <circle stroke="black" stroke-width="0.5" fill="#aaffff" cx="458.0" cy="68.0" r="1.0"/>
     <text stroke="none" x="458.0" y="68.0" font-size="10.0" font-family="helvetica">NT1.38</text>
    </g>
    <g>
     <circle stroke="black" stroke-width="0.5" fill="#aaffff" cx="462.0" cy="121.0" r="1.0"/>
     <text stroke="none" x="462.0" y="121.0" font-size="10.0" font-family="helvetica">NT1.39</text>
    </g>
    <g>
     <circle stroke="black" stroke-width="0.5" fill="#aaffff" cx="465.0" cy="333.0" r="1.0"/>
     <text stroke="none" x="465.0" y="333.0" font-size="10.0" font-family="helvetica">NT1.40</text>
    </g>
    <g>
     <circle stroke="black" stroke-width="0.5" fill="#aaffff" cx="466.0" cy="386.0" r="1.0"/>
     <text stroke="none" x="466.0" y="386.0" font-size="10.0" font-family="helvetica">NT1.41</text>
    </g>
    <g>
     <circle stroke="black" stroke-width="0.5" fill="#aaffff" cx="469.0" cy="174.0" r="1.0"/>
     <text stroke="none" x="469.0" y="174.0" font-size="10.0" font-family="helvetica">NT1.42</text>
    </g>
    <g>
     <circle stroke="black" stroke-width="0.5" fill="#aaffff" cx="469.0" cy="279.0" r="1.0"/>
     <text stroke="none" x="469.0" y="279.0" font-size="10.0" font-family="helvetica">NT1.43</text>
    </g>
    <g>
     <circle stroke="black" stroke-width="0.5" fill="#aaffff" cx="469.0" cy="1022.0" r="1.0"/>
     <text stroke="none" x="469.0" y="1022.0" font-size="20.0" font-family="helvetica">Cryptobacterium curtum ATCC 7OO683T (ABO19260)</text>
    </g>
    <g>
     <circle stroke="black" stroke-width="0.5" fill="#aaffff" cx="471.0" cy="1074.0" r="1.0"/>
     <text stroke="none" x="471.0" y="1074.0" font-size="10.0" font-family="helvetica">NT1.45</text>
    </g>
    <g>
     <circle stroke="black" stroke-width="0.5" fill="#aaffff" cx="475.0" cy="227.0" r="1.0"/>
     <text stroke="none" x="475.0" y="227.0" font-size="10.0" font-family="helvetica">NT1.46</text>
    </g>
    <g>
     <circle stroke="black" stroke-width="0.5" fill="#aaffff" cx="478.0" cy="809.0" r="1.0"/>
     <text stroke="none" x="478.0" y="809.0" font-size="20.0" font-family="helvetica">Gordonibacter pamelaeae 7-1 O-1-b7 (AM886059)</text>
    </g>
    <g>
     <circle stroke="black" stroke-width="0.5" fill="#aaffff" cx="768.0" cy="1286.0" r="1.0"/>
     <text stroke="none" x="768.0" y="1286.0" font-size="10.0" font-family="helvetica">NT1.48</text>
    </g>
    <g>
     <circle stroke="black" stroke-width="0.5" fill="#aaffff" cx="72.0" cy="1246.0" r="1.0"/>
     <text stroke="none" x="72.0" y="1246.0" font-size="10.0" font-family="helvetica">NT1.49</text>
    </g>
    <line stroke="black" x1="457.0" y1="439.0" x2="443.0" y2="360.0" stroke-width="0.5"/>
    <line stroke="black" x1="441.0" y1="598.0" x2="423.0" y2="557.0" stroke-width="0.5"/>
    <line stroke="black" x1="428.0" y1="491.0" x2="427.0" y2="544.0" stroke-width="0.5"/>
    <line stroke="black" x1="449.0" y1="863.0" x2="244.0" y2="795.0" stroke-width="0.5"/>
    <line stroke="black" x1="429.0" y1="703.0" x2="330.0" y2="677.0" stroke-width="0.5"/>
    <line stroke="black" x1="444.0" y1="650.0" x2="330.0" y2="677.0" stroke-width="0.5"/>
    <line stroke="black" x1="478.0" y1="809.0" x2="305.0" y2="782.0" stroke-width="0.5"/>
    <line stroke="black" x1="438.0" y1="968.0" x2="232.0" y2="940.0" stroke-width="0.5"/>
    <line stroke="black" x1="469.0" y1="1022.0" x2="181.0" y2="898.0" stroke-width="0.5"/>
    <line stroke="black" x1="395.0" y1="1127.0" x2="238.0" y2="1100.0" stroke-width="0.5"/>
    <line stroke="black" x1="443.0" y1="1179.0" x2="115.0" y2="1205.0" stroke-width="0.5"/>
    <line stroke="black" x1="332.0" y1="417.0" x2="238.0" y2="607.0" stroke-width="0.5"/>
    <line stroke="black" x1="332.0" y1="417.0" x2="423.0" y2="557.0" stroke-width="0.5"/>
    <line stroke="black" x1="238.0" y1="607.0" x2="188.0" y2="774.0" stroke-width="0.5"/>
    <line stroke="black" x1="238.0" y1="607.0" x2="244.0" y2="795.0" stroke-width="0.5"/>
    <line stroke="black" x1="244.0" y1="795.0" x2="290.0" y2="730.0" stroke-width="0.5"/>
    <line stroke="black" x1="188.0" y1="774.0" x2="181.0" y2="898.0" stroke-width="0.5"/>
    <line stroke="black" x1="188.0" y1="774.0" x2="232.0" y2="940.0" stroke-width="0.5"/>
    <line stroke="black" x1="290.0" y1="730.0" x2="330.0" y2="677.0" stroke-width="0.5"/>
    <line stroke="black" x1="181.0" y1="898.0" x2="141.0" y2="999.0" stroke-width="0.5"/>
    <line stroke="black" x1="141.0" y1="999.0" x2="115.0" y2="1205.0" stroke-width="0.5"/>
    <line stroke="black" x1="72.0" y1="1246.0" x2="115.0" y2="1205.0" stroke-width="0.5"/>
    <line stroke="black" x1="424.0" y1="915.0" x2="232.0" y2="940.0" stroke-width="0.5"/>
   </g>
  </g>
 </svg>
</svg>
