<?xml version="1.0" encoding="UTF-8"?>
<svg height="800.0" width="700.0" xmlns="http://www.w3.org/2000/svg">
 <svg>
  <g>
   <g>
    <g>
     <circle stroke="black" stroke-width="0.5" fill="#aaffff" cx="133.0" cy="514.0" r="1.0"/>
     <text stroke="none" x="133.0" y="514.0" font-size="20.0" font-family="helvetica">Natrinema versiforme XF10T (AB023426)</text>
    </g>
    <g>
     <circle stroke="black" stroke-width="0.5" fill="#aaffff" cx="134.0" cy="374.0" r="1.0"/>
     <text stroke="none" x="134.0" y="374.0" font-size="10.0" font-family="helvetica">NT1.2</text>
    </g>
    <g>
     <circle stroke="black" stroke-width="0.5" fill="#aaffff" cx="173.0" cy="153.0" r="1.0"/>
     <text stroke="none" x="173.0" y="153.0" font-size="10.0" font-family="helvetica">NT1.3</text>
    </g>
    <g>
     <circle stroke="black" stroke-width="0.5" fill="#aaffff" cx="240.0" cy="97.0" r="1.0"/>
     <text stroke="none" x="240.0" y="97.0" font-size="10.0" font-family="helvetica">NT1.4</text>
    </g>
    <g>
     <circle stroke="black" stroke-width="0.5" fill="#aaffff" cx="245.0" cy="263.0" r="1.0"/>
     <text stroke="none" x="245.0" y="263.0" font-size="10.0" font-family="helvetica">NT1.5</text>
    </g>
    <g>
     <circle stroke="black" stroke-width="0.5" fill="#aaffff" cx="301.0" cy="209.0" r="1.0"/>
     <text stroke="none" x="301.0" y="209.0" font-size="10.0" font-family="helvetica">NT1.6</text>
    </g>
    <g>
     <circle stroke="black" stroke-width="0.5" fill="#aaffff" cx="318.0" cy="42.0" r="1.0"/>
     <text stroke="none" x="318.0" y="42.0" font-size="10.0" font-family="helvetica">NT1.7</text>
    </g>
    <g>
     <circle stroke="black" stroke-width="0.5" fill="#aaffff" cx="414.0" cy="431.0" r="1.0"/>
     <text stroke="none" x="414.0" y="431.0" font-size="10.0" font-family="helvetica">NT1.8</text>
    </g>
    <g>
     <circle stroke="black" stroke-width="0.5" fill="#aaffff" cx="465.0" cy="404.0" r="1.0"/>
     <text stroke="none" x="465.0" y="404.0" font-size="20.0" font-family="helvetica"> Natrialba aegyptiaoa 4OT (AF251941)</text>
    </g>
    <g>
     <circle stroke="black" stroke-width="0.5" fill="#aaffff" cx="497.0" cy="460.0" r="1.0"/>
     <text stroke="none" x="497.0" y="460.0" font-size="20.0" font-family="helvetica">Natrialba asiatica 172P1T (D14123)</text>
    </g>
    <g>
     <circle stroke="black" stroke-width="0.5" fill="#aaffff" cx="504.0" cy="71.0" r="1.0"/>
     <text stroke="none" x="504.0" y="71.0" font-size="20.0" font-family="helvetica">Halobiforma nitratireducens C2317 (AB045012)</text>
    </g>
    <g>
     <circle stroke="black" stroke-width="0.5" fill="#aaffff" cx="516.0" cy="182.0" r="1.0"/>
     <text stroke="none" x="516.0" y="182.0" font-size="20.0" font-family="helvetica">Natronococcus amylolyticus Ah-36T (D43628)</text>
    </g>
    <g>
     <circle stroke="black" stroke-width="0.5" fill="#aaffff" cx="529.0" cy="237.0" r="1.0"/>
     <text stroke="none" x="529.0" y="237.0" font-size="20.0" font-family="helvetica">Natronococcus occultus NCIMB 21927 (228378)</text>
    </g>
    <g>
     <circle stroke="black" stroke-width="0.5" fill="#aaffff" cx="532.0" cy="320.0" r="1.0"/>
     <text stroke="none" x="532.0" y="320.0" font-size="10.0" font-family="helvetica">NT1.14</text>
    </g>
    <g>
     <circle stroke="black" stroke-width="0.5" fill="#aaffff" cx="565.0" cy="126.0" r="1.0"/>
     <text stroke="none" x="565.0" y="126.0" font-size="20.0" font-family="helvetica">Natronobacterium gregoryi NCIMB 2189T (D87970)</text>
    </g>
    <g>
     <circle stroke="black" stroke-width="0.5" fill="#aaffff" cx="567.0" cy="294.0" r="1.0"/>
     <text stroke="none" x="567.0" y="294.0" font-size="20.0" font-family="helvetica"> Halovfvax asiaticus EJ46T (AM039978)</text>
    </g>
    <g>
     <circle stroke="black" stroke-width="0.5" fill="#aaffff" cx="574.0" cy="349.0" r="1.0"/>
     <text stroke="none" x="574.0" y="349.0" font-size="20.0" font-family="helvetica"> Halovivax ruber XH-70T (AM269467)</text>
    </g>
    <g>
     <circle stroke="black" stroke-width="0.5" fill="#aaffff" cx="618.0" cy="13.0" r="1.0"/>
     <text stroke="none" x="618.0" y="13.0" font-size="20.0" font-family="helvetica">Halobiforma haloterrestris 135T (AF333760)</text>
    </g>
    <line stroke="black" x1="504.0" y1="71.0" x2="318.0" y2="42.0" stroke-width="0.5"/>
    <line stroke="black" x1="618.0" y1="13.0" x2="318.0" y2="42.0" stroke-width="0.5"/>
    <line stroke="black" x1="565.0" y1="126.0" x2="240.0" y2="97.0" stroke-width="0.5"/>
    <line stroke="black" x1="516.0" y1="182.0" x2="301.0" y2="209.0" stroke-width="0.5"/>
    <line stroke="black" x1="529.0" y1="237.0" x2="301.0" y2="209.0" stroke-width="0.5"/>
    <line stroke="black" x1="567.0" y1="294.0" x2="532.0" y2="320.0" stroke-width="0.5"/>
    <line stroke="black" x1="574.0" y1="349.0" x2="532.0" y2="320.0" stroke-width="0.5"/>
    <line stroke="black" x1="133.0" y1="514.0" x2="134.0" y2="374.0" stroke-width="0.5"/>
    <line stroke="black" x1="465.0" y1="404.0" x2="414.0" y2="431.0" stroke-width="0.5"/>
    <line stroke="black" x1="497.0" y1="460.0" x2="414.0" y2="431.0" stroke-width="0.5"/>
    <line stroke="black" x1="318.0" y1="42.0" x2="240.0" y2="97.0" stroke-width="0.5"/>
    <line stroke="black" x1="240.0" y1="97.0" x2="173.0" y2="153.0" stroke-width="0.5"/>
    <line stroke="black" x1="173.0" y1="153.0" x2="245.0" y2="263.0" stroke-width="0.5"/>
    <line stroke="black" x1="173.0" y1="153.0" x2="134.0" y2="374.0" stroke-width="0.5"/>
    <line stroke="black" x1="245.0" y1="263.0" x2="532.0" y2="320.0" stroke-width="0.5"/>
    <line stroke="black" x1="245.0" y1="263.0" x2="301.0" y2="209.0" stroke-width="0.5"/>
    <line stroke="black" x1="134.0" y1="374.0" x2="414.0" y2="431.0" stroke-width="0.5"/>
   </g>
  </g>
 </svg>
</svg>
