<?xml version="1.0" encoding="UTF-8"?>
<svg height="800.0" width="700.0" xmlns="http://www.w3.org/2000/svg">
 <svg>
  <g>
   <g>
    <g>
     <circle stroke="black" stroke-width="0.5" fill="#aaffff" cx="127.0" cy="123.0" r="1.0"/>
     <text stroke="none" x="127.0" y="123.0" font-size="10.0" font-family="helvetica">NT1.1</text>
    </g>
    <g>
     <circle stroke="black" stroke-width="0.5" fill="#aaffff" cx="195.0" cy="74.0" r="1.0"/>
     <text stroke="none" x="195.0" y="74.0" font-size="10.0" font-family="helvetica">NT1.2</text>
    </g>
    <g>
     <circle stroke="black" stroke-width="0.5" fill="#aaffff" cx="224.0" cy="22.0" r="1.0"/>
     <text stroke="none" x="224.0" y="22.0" font-size="20.0" font-family="helvetica"/>
    </g>
    <g>
     <circle stroke="black" stroke-width="0.5" fill="#aaffff" cx="278.0" cy="60.0" r="1.0"/>
     <text stroke="none" x="278.0" y="60.0" font-size="10.0" font-family="helvetica">NT1.4</text>
    </g>
    <g>
     <circle stroke="black" stroke-width="0.5" fill="#aaffff" cx="400.0" cy="73.0" r="1.0"/>
     <text stroke="none" x="400.0" y="73.0" font-size="20.0" font-family="helvetica">M. lagogenitalium 12MsT (AF412983)</text>
    </g>
    <g>
     <circle stroke="black" stroke-width="0.5" fill="#aaffff" cx="457.0" cy="47.0" r="1.0"/>
     <text stroke="none" x="457.0" y="47.0" font-size="20.0" font-family="helvetica">M. molane H542T(AF412985)</text>
    </g>
    <g>
     <circle stroke="black" stroke-width="0.5" fill="#aaffff" cx="547.0" cy="177.0" r="1.0"/>
     <text stroke="none" x="547.0" y="177.0" font-size="10.0" font-family="helvetica">NT1.7</text>
    </g>
    <g>
     <circle stroke="black" stroke-width="0.5" fill="#aaffff" cx="671.0" cy="101.0" r="1.0"/>
     <text stroke="none" x="671.0" y="101.0" font-size="20.0" font-family="helvetica">M. iguanae 2327T AY7143_05)</text>
    </g>
    <g>
     <circle stroke="black" stroke-width="0.5" fill="#aaffff" cx="829.0" cy="153.0" r="1.0"/>
     <text stroke="none" x="829.0" y="153.0" font-size="20.0" font-family="helvetica">M. conjunctlvae HRC581T(U447_7</text>
    </g>
    <g>
     <circle stroke="black" stroke-width="0.5" fill="#aaffff" cx="845.0" cy="205.0" r="1.0"/>
     <text stroke="none" x="845.0" y="205.0" font-size="10.0" font-family="helvetica">NT1.10</text>
    </g>
    <g>
     <circle stroke="black" stroke-width="0.5" fill="#aaffff" cx="861.0" cy="192.0" r="1.0"/>
     <text stroke="none" x="861.0" y="192.0" font-size="10.0" font-family="helvetica">NT1.11</text>
    </g>
    <g>
     <circle stroke="black" stroke-width="0.5" fill="#aaffff" cx="977.0" cy="232.0" r="1.0"/>
     <text stroke="none" x="977.0" y="232.0" font-size="20.0" font-family="helvetica">M. hyopneumoniae Weybridge (Y00149)</text>
    </g>
    <g>
     <circle stroke="black" stroke-width="0.5" fill="#aaffff" cx="994.0" cy="206.0" r="1.0"/>
     <text stroke="none" x="994.0" y="206.0" font-size="20.0" font-family="helvetica">M. flocculare Ms42T(L22210)</text>
    </g>
    <g>
     <circle stroke="black" stroke-width="0.5" fill="#aaffff" cx="1047.0" cy="178.0" r="1.0"/>
     <text stroke="none" x="1047.0" y="178.0" font-size="20.0" font-family="helvetica">M. owpneumonlae Y98T (U44771)</text>
    </g>
    <line stroke="black" x1="671.0" y1="101.0" x2="195.0" y2="74.0" stroke-width="0.5"/>
    <line stroke="black" x1="127.0" y1="123.0" x2="547.0" y2="177.0" stroke-width="0.5"/>
    <line stroke="black" x1="127.0" y1="123.0" x2="195.0" y2="74.0" stroke-width="0.5"/>
    <line stroke="black" x1="195.0" y1="74.0" x2="278.0" y2="60.0" stroke-width="0.5"/>
    <line stroke="black" x1="547.0" y1="177.0" x2="845.0" y2="205.0" stroke-width="0.5"/>
    <line stroke="black" x1="845.0" y1="205.0" x2="861.0" y2="192.0" stroke-width="0.5"/>
    <line stroke="black" x1="224.0" y1="22.0" x2="127.0" y2="123.0" stroke-width="0.5"/>
    <line stroke="black" x1="400.0" y1="73.0" x2="278.0" y2="60.0" stroke-width="0.5"/>
    <line stroke="black" x1="457.0" y1="47.0" x2="278.0" y2="60.0" stroke-width="0.5"/>
    <line stroke="black" x1="547.0" y1="177.0" x2="829.0" y2="153.0" stroke-width="0.5"/>
    <line stroke="black" x1="977.0" y1="232.0" x2="845.0" y2="205.0" stroke-width="0.5"/>
    <line stroke="black" x1="994.0" y1="206.0" x2="861.0" y2="192.0" stroke-width="0.5"/>
    <line stroke="black" x1="1047.0" y1="178.0" x2="861.0" y2="192.0" stroke-width="0.5"/>
   </g>
  </g>
 </svg>
</svg>
