<?xml version="1.0" encoding="UTF-8"?>
<svg height="800.0" width="700.0" xmlns="http://www.w3.org/2000/svg">
 <svg>
  <g>
   <g>
    <g>
     <circle stroke="black" stroke-width="0.5" fill="#aaffff" cx="5.0" cy="1173.0" r="1.0"/>
     <text stroke="none" x="5.0" y="1173.0" font-size="20.0" font-family="helvetica"/>
    </g>
    <g>
     <circle stroke="black" stroke-width="0.5" fill="#aaffff" cx="8.0" cy="1173.0" r="1.0"/>
     <text stroke="none" x="8.0" y="1173.0" font-size="10.0" font-family="helvetica">NT1.2</text>
    </g>
    <g>
     <circle stroke="black" stroke-width="0.5" fill="#aaffff" cx="53.0" cy="1264.0" r="1.0"/>
     <text stroke="none" x="53.0" y="1264.0" font-size="10.0" font-family="helvetica">NT1.3</text>
    </g>
    <g>
     <circle stroke="black" stroke-width="0.5" fill="#aaffff" cx="56.0" cy="1129.0" r="1.0"/>
     <text stroke="none" x="56.0" y="1129.0" font-size="10.0" font-family="helvetica">NT1.4</text>
    </g>
    <g>
     <circle stroke="black" stroke-width="0.5" fill="#aaffff" cx="185.0" cy="1205.0" r="1.0"/>
     <text stroke="none" x="185.0" y="1205.0" font-size="10.0" font-family="helvetica">NT1.5</text>
    </g>
    <g>
     <circle stroke="black" stroke-width="0.5" fill="#aaffff" cx="186.0" cy="1203.0" r="1.0"/>
     <text stroke="none" x="186.0" y="1203.0" font-size="10.0" font-family="helvetica">NT1.6</text>
    </g>
    <g>
     <circle stroke="black" stroke-width="0.5" fill="#aaffff" cx="196.0" cy="1055.0" r="1.0"/>
     <text stroke="none" x="196.0" y="1055.0" font-size="10.0" font-family="helvetica">NT1.7</text>
    </g>
    <g>
     <circle stroke="black" stroke-width="0.5" fill="#aaffff" cx="360.0" cy="948.0" r="1.0"/>
     <text stroke="none" x="360.0" y="948.0" font-size="10.0" font-family="helvetica">NT1.8</text>
    </g>
    <g>
     <circle stroke="black" stroke-width="0.5" fill="#aaffff" cx="447.0" cy="1203.0" r="1.0"/>
     <text stroke="none" x="447.0" y="1203.0" font-size="20.0" font-family="helvetica">Butyrivibrio fibrisolvens NCDO 22217 (X89970)</text>
    </g>
    <g>
     <circle stroke="black" stroke-width="0.5" fill="#aaffff" cx="460.0" cy="797.0" r="1.0"/>
     <text stroke="none" x="460.0" y="797.0" font-size="10.0" font-family="helvetica">NT1.10</text>
    </g>
    <g>
     <circle stroke="black" stroke-width="0.5" fill="#aaffff" cx="474.0" cy="1286.0" r="1.0"/>
     <text stroke="none" x="474.0" y="1286.0" font-size="20.0" font-family="helvetica">Johnsonella ignava ATCC 512767 (X87151)</text>
    </g>
    <g>
     <circle stroke="black" stroke-width="0.5" fill="#aaffff" cx="482.0" cy="1245.0" r="1.0"/>
     <text stroke="none" x="482.0" y="1245.0" font-size="20.0" font-family="helvetica">Catonella morbi ATCC 512717 (X87152)</text>
    </g>
    <g>
     <circle stroke="black" stroke-width="0.5" fill="#aaffff" cx="487.0" cy="1094.0" r="1.0"/>
     <text stroke="none" x="487.0" y="1094.0" font-size="10.0" font-family="helvetica">NT1.13</text>
    </g>
    <g>
     <circle stroke="black" stroke-width="0.5" fill="#aaffff" cx="530.0" cy="998.0" r="1.0"/>
     <text stroke="none" x="530.0" y="998.0" font-size="20.0" font-family="helvetica">100</text>
    </g>
    <g>
     <circle stroke="black" stroke-width="0.5" fill="#aaffff" cx="539.0" cy="1159.0" r="1.0"/>
     <text stroke="none" x="539.0" y="1159.0" font-size="20.0" font-family="helvetica">Syntrophococcus sucromutans DSM 32247 (Y18191)</text>
    </g>
    <g>
     <circle stroke="black" stroke-width="0.5" fill="#aaffff" cx="560.0" cy="591.0" r="1.0"/>
     <text stroke="none" x="560.0" y="591.0" font-size="10.0" font-family="helvetica">NT1.16</text>
    </g>
    <g>
     <circle stroke="black" stroke-width="0.5" fill="#aaffff" cx="619.0" cy="375.0" r="1.0"/>
     <text stroke="none" x="619.0" y="375.0" font-size="10.0" font-family="helvetica">NT1.17</text>
    </g>
    <g>
     <circle stroke="black" stroke-width="0.5" fill="#aaffff" cx="624.0" cy="804.0" r="1.0"/>
     <text stroke="none" x="624.0" y="804.0" font-size="20.0" font-family="helvetica">93</text>
    </g>
    <g>
     <circle stroke="black" stroke-width="0.5" fill="#aaffff" cx="625.0" cy="1075.0" r="1.0"/>
     <text stroke="none" x="625.0" y="1075.0" font-size="20.0" font-family="helvetica">Clostridium clostridioforme ATCC 255377 (M59089)</text>
    </g>
    <g>
     <circle stroke="black" stroke-width="0.5" fill="#aaffff" cx="649.0" cy="1118.0" r="1.0"/>
     <text stroke="none" x="649.0" y="1118.0" font-size="20.0" font-family="helvetica">Clostridium symbiosum ATCC 149407 (M59112)</text>
    </g>
    <g>
     <circle stroke="black" stroke-width="0.5" fill="#aaffff" cx="675.0" cy="741.0" r="1.0"/>
     <text stroke="none" x="675.0" y="741.0" font-size="10.0" font-family="helvetica">NT1.21</text>
    </g>
    <g>
     <circle stroke="black" stroke-width="0.5" fill="#aaffff" cx="675.0" cy="973.0" r="1.0"/>
     <text stroke="none" x="675.0" y="973.0" font-size="10.0" font-family="helvetica">NT1.22</text>
    </g>
    <g>
     <circle stroke="black" stroke-width="0.5" fill="#aaffff" cx="691.0" cy="220.0" r="1.0"/>
     <text stroke="none" x="691.0" y="220.0" font-size="10.0" font-family="helvetica">NT1.23</text>
    </g>
    <g>
     <circle stroke="black" stroke-width="0.5" fill="#aaffff" cx="702.0" cy="871.0" r="1.0"/>
     <text stroke="none" x="702.0" y="871.0" font-size="20.0" font-family="helvetica">96</text>
    </g>
    <g>
     <circle stroke="black" stroke-width="0.5" fill="#aaffff" cx="711.0" cy="702.0" r="1.0"/>
     <text stroke="none" x="711.0" y="702.0" font-size="10.0" font-family="helvetica">NT1.25</text>
    </g>
    <g>
     <circle stroke="black" stroke-width="0.5" fill="#aaffff" cx="713.0" cy="317.0" r="1.0"/>
     <text stroke="none" x="713.0" y="317.0" font-size="10.0" font-family="helvetica">NT1.26</text>
    </g>
    <g>
     <circle stroke="black" stroke-width="0.5" fill="#aaffff" cx="728.0" cy="739.0" r="1.0"/>
     <text stroke="none" x="728.0" y="739.0" font-size="10.0" font-family="helvetica">NT1.27</text>
    </g>
    <g>
     <circle stroke="black" stroke-width="0.5" fill="#aaffff" cx="728.0" cy="991.0" r="1.0"/>
     <text stroke="none" x="728.0" y="991.0" font-size="20.0" font-family="helvetica">Clostridium xylanolyticum DSM 65557 (X76739)</text>
    </g>
    <g>
     <circle stroke="black" stroke-width="0.5" fill="#aaffff" cx="729.0" cy="737.0" r="1.0"/>
     <text stroke="none" x="729.0" y="737.0" font-size="10.0" font-family="helvetica">NT1.29</text>
    </g>
    <g>
     <circle stroke="black" stroke-width="0.5" fill="#aaffff" cx="735.0" cy="526.0" r="1.0"/>
     <text stroke="none" x="735.0" y="526.0" font-size="10.0" font-family="helvetica">NT1.30</text>
    </g>
    <g>
     <circle stroke="black" stroke-width="0.5" fill="#aaffff" cx="746.0" cy="1034.0" r="1.0"/>
     <text stroke="none" x="746.0" y="1034.0" font-size="20.0" font-family="helvetica">Clostridium methoxybenzovorans DSM 121827 (AF067965)</text>
    </g>
    <g>
     <circle stroke="black" stroke-width="0.5" fill="#aaffff" cx="756.0" cy="119.0" r="1.0"/>
     <text stroke="none" x="756.0" y="119.0" font-size="10.0" font-family="helvetica">NT1.32</text>
    </g>
    <g>
     <circle stroke="black" stroke-width="0.5" fill="#aaffff" cx="762.0" cy="844.0" r="1.0"/>
     <text stroke="none" x="762.0" y="844.0" font-size="20.0" font-family="helvetica">93</text>
    </g>
    <g>
     <circle stroke="black" stroke-width="0.5" fill="#aaffff" cx="764.0" cy="866.0" r="1.0"/>
     <text stroke="none" x="764.0" y="866.0" font-size="10.0" font-family="helvetica">NT1.34</text>
    </g>
    <g>
     <circle stroke="black" stroke-width="0.5" fill="#aaffff" cx="765.0" cy="819.0" r="1.0"/>
     <text stroke="none" x="765.0" y="819.0" font-size="10.0" font-family="helvetica">NT1.35</text>
    </g>
    <g>
     <circle stroke="black" stroke-width="0.5" fill="#aaffff" cx="765.0" cy="864.0" r="1.0"/>
     <text stroke="none" x="765.0" y="864.0" font-size="10.0" font-family="helvetica">NT1.36</text>
    </g>
    <g>
     <circle stroke="black" stroke-width="0.5" fill="#aaffff" cx="766.0" cy="821.0" r="1.0"/>
     <text stroke="none" x="766.0" y="821.0" font-size="20.0" font-family="helvetica">93</text>
    </g>
    <g>
     <circle stroke="black" stroke-width="0.5" fill="#aaffff" cx="771.0" cy="737.0" r="1.0"/>
     <text stroke="none" x="771.0" y="737.0" font-size="10.0" font-family="helvetica">NT1.38</text>
    </g>
    <g>
     <circle stroke="black" stroke-width="0.5" fill="#aaffff" cx="776.0" cy="864.0" r="1.0"/>
     <text stroke="none" x="776.0" y="864.0" font-size="10.0" font-family="helvetica">NT1.39</text>
    </g>
    <g>
     <circle stroke="black" stroke-width="0.5" fill="#aaffff" cx="778.0" cy="664.0" r="1.0"/>
     <text stroke="none" x="778.0" y="664.0" font-size="20.0" font-family="helvetica">57</text>
    </g>
    <g>
     <circle stroke="black" stroke-width="0.5" fill="#aaffff" cx="779.0" cy="821.0" r="1.0"/>
     <text stroke="none" x="779.0" y="821.0" font-size="10.0" font-family="helvetica">NT1.41</text>
    </g>
    <g>
     <circle stroke="black" stroke-width="0.5" fill="#aaffff" cx="783.0" cy="283.0" r="1.0"/>
     <text stroke="none" x="783.0" y="283.0" font-size="10.0" font-family="helvetica">NT1.42</text>
    </g>
    <g>
     <circle stroke="black" stroke-width="0.5" fill="#aaffff" cx="792.0" cy="948.0" r="1.0"/>
     <text stroke="none" x="792.0" y="948.0" font-size="20.0" font-family="helvetica">Clostridium algidixylanolyticum DSM 122737 (AF092549)</text>
    </g>
    <g>
     <circle stroke="black" stroke-width="0.5" fill="#aaffff" cx="796.0" cy="163.0" r="1.0"/>
     <text stroke="none" x="796.0" y="163.0" font-size="10.0" font-family="helvetica">NT1.44</text>
    </g>
    <g>
     <circle stroke="black" stroke-width="0.5" fill="#aaffff" cx="800.0" cy="356.0" r="1.0"/>
     <text stroke="none" x="800.0" y="356.0" font-size="20.0" font-family="helvetica">Clostridium nexile DSM 17s7T (X73443)</text>
    </g>
    <g>
     <circle stroke="black" stroke-width="0.5" fill="#aaffff" cx="806.0" cy="905.0" r="1.0"/>
     <text stroke="none" x="806.0" y="905.0" font-size="10.0" font-family="helvetica">NT1.46</text>
    </g>
    <g>
     <circle stroke="black" stroke-width="0.5" fill="#aaffff" cx="810.0" cy="72.0" r="1.0"/>
     <text stroke="none" x="810.0" y="72.0" font-size="10.0" font-family="helvetica">NT1.47</text>
    </g>
    <g>
     <circle stroke="black" stroke-width="0.5" fill="#aaffff" cx="839.0" cy="633.0" r="1.0"/>
     <text stroke="none" x="839.0" y="633.0" font-size="20.0" font-family="helvetica">69</text>
    </g>
    <g>
     <circle stroke="black" stroke-width="0.5" fill="#aaffff" cx="843.0" cy="780.0" r="1.0"/>
     <text stroke="none" x="843.0" y="780.0" font-size="10.0" font-family="helvetica">NT1.49</text>
    </g>
    <g>
     <circle stroke="black" stroke-width="0.5" fill="#aaffff" cx="854.0" cy="694.0" r="1.0"/>
     <text stroke="none" x="854.0" y="694.0" font-size="10.0" font-family="helvetica">NT1.50</text>
    </g>
    <g>
     <circle stroke="black" stroke-width="0.5" fill="#aaffff" cx="856.0" cy="251.0" r="1.0"/>
     <text stroke="none" x="856.0" y="251.0" font-size="10.0" font-family="helvetica">NT1.51</text>
    </g>
    <g>
     <circle stroke="black" stroke-width="0.5" fill="#aaffff" cx="862.0" cy="145.0" r="1.0"/>
     <text stroke="none" x="862.0" y="145.0" font-size="20.0" font-family="helvetica">Ruminococcus torques ATCC 277567 (L76604)</text>
    </g>
    <g>
     <circle stroke="black" stroke-width="0.5" fill="#aaffff" cx="862.0" cy="313.0" r="1.0"/>
     <text stroke="none" x="862.0" y="313.0" font-size="20.0" font-family="helvetica">Ruminococcus gnavus ATCC 291497 (X94967)</text>
    </g>
    <g>
     <circle stroke="black" stroke-width="0.5" fill="#aaffff" cx="882.0" cy="41.0" r="1.0"/>
     <text stroke="none" x="882.0" y="41.0" font-size="20.0" font-family="helvetica">95</text>
    </g>
    <g>
     <circle stroke="black" stroke-width="0.5" fill="#aaffff" cx="882.0" cy="491.0" r="1.0"/>
     <text stroke="none" x="882.0" y="491.0" font-size="20.0" font-family="helvetica">90</text>
    </g>
    <g>
     <circle stroke="black" stroke-width="0.5" fill="#aaffff" cx="900.0" cy="567.0" r="1.0"/>
     <text stroke="none" x="900.0" y="567.0" font-size="20.0" font-family="helvetica">Lachnospira pectinoschiza ATCC 498277 (L14675)</text>
    </g>
    <g>
     <circle stroke="black" stroke-width="0.5" fill="#aaffff" cx="908.0" cy="186.0" r="1.0"/>
     <text stroke="none" x="908.0" y="186.0" font-size="10.0" font-family="helvetica">NT1.57</text>
    </g>
    <g>
     <circle stroke="black" stroke-width="0.5" fill="#aaffff" cx="908.0" cy="651.0" r="1.0"/>
     <text stroke="none" x="908.0" y="651.0" font-size="20.0" font-family="helvetica">Ruminococcus obeum ATCC 291747 (X85101)</text>
    </g>
    <g>
     <circle stroke="black" stroke-width="0.5" fill="#aaffff" cx="913.0" cy="18.0" r="1.0"/>
     <text stroke="none" x="913.0" y="18.0" font-size="20.0" font-family="helvetica">Eubacterium contorium ATCC 255407 (L34615)</text>
    </g>
    <g>
     <circle stroke="black" stroke-width="0.5" fill="#aaffff" cx="940.0" cy="610.0" r="1.0"/>
     <text stroke="none" x="940.0" y="610.0" font-size="10.0" font-family="helvetica">NT1.60</text>
    </g>
    <g>
     <circle stroke="black" stroke-width="0.5" fill="#aaffff" cx="943.0" cy="59.0" r="1.0"/>
     <text stroke="none" x="943.0" y="59.0" font-size="20.0" font-family="helvetica">Clostridium oroticum ATCC 136197 (M59109)</text>
    </g>
    <g>
     <circle stroke="black" stroke-width="0.5" fill="#aaffff" cx="982.0" cy="453.0" r="1.0"/>
     <text stroke="none" x="982.0" y="453.0" font-size="10.0" font-family="helvetica">NT1.62</text>
    </g>
    <g>
     <circle stroke="black" stroke-width="0.5" fill="#aaffff" cx="983.0" cy="102.0" r="1.0"/>
     <text stroke="none" x="983.0" y="102.0" font-size="20.0" font-family="helvetica">Dorea formicigenerans ATCC 277557 (L34619)</text>
    </g>
    <g>
     <circle stroke="black" stroke-width="0.5" fill="#aaffff" cx="1021.0" cy="272.0" r="1.0"/>
     <text stroke="none" x="1021.0" y="272.0" font-size="20.0" font-family="helvetica">Eubacterium ventriosum ATCC 275607 (L34421)</text>
    </g>
    <g>
     <circle stroke="black" stroke-width="0.5" fill="#aaffff" cx="1037.0" cy="526.0" r="1.0"/>
     <text stroke="none" x="1037.0" y="526.0" font-size="20.0" font-family="helvetica">Eubacterium xylanophilum ATCC 359917 (L34628)</text>
    </g>
    <g>
     <circle stroke="black" stroke-width="0.5" fill="#aaffff" cx="1069.0" cy="229.0" r="1.0"/>
     <text stroke="none" x="1069.0" y="229.0" font-size="10.0" font-family="helvetica">NT1.66</text>
    </g>
    <g>
     <circle stroke="black" stroke-width="0.5" fill="#aaffff" cx="1093.0" cy="483.0" r="1.0"/>
     <text stroke="none" x="1093.0" y="483.0" font-size="20.0" font-family="helvetica">Clostridium populeti ATCC 352957 (X71853)</text>
    </g>
    <g>
     <circle stroke="black" stroke-width="0.5" fill="#aaffff" cx="1100.0" cy="422.0" r="1.0"/>
     <text stroke="none" x="1100.0" y="422.0" font-size="10.0" font-family="helvetica">NT1.68</text>
    </g>
    <g>
     <circle stroke="black" stroke-width="0.5" fill="#aaffff" cx="1128.0" cy="440.0" r="1.0"/>
     <text stroke="none" x="1128.0" y="440.0" font-size="20.0" font-family="helvetica">Clostridium herbivorans ATCC 544087 (L34418)</text>
    </g>
    <g>
     <circle stroke="black" stroke-width="0.5" fill="#aaffff" cx="1242.0" cy="399.0" r="1.0"/>
     <text stroke="none" x="1242.0" y="399.0" font-size="20.0" font-family="helvetica">Clostridium polysaccharolyticum DSM 18017 (X77839)</text>
    </g>
    <line stroke="black" x1="5.0" y1="1173.0" x2="8.0" y2="1173.0" stroke-width="0.5"/>
    <line stroke="black" x1="447.0" y1="1203.0" x2="186.0" y2="1203.0" stroke-width="0.5"/>
    <line stroke="black" x1="882.0" y1="41.0" x2="810.0" y2="72.0" stroke-width="0.5"/>
    <line stroke="black" x1="810.0" y1="72.0" x2="756.0" y2="119.0" stroke-width="0.5"/>
    <line stroke="black" x1="756.0" y1="119.0" x2="691.0" y2="220.0" stroke-width="0.5"/>
    <line stroke="black" x1="691.0" y1="220.0" x2="619.0" y2="375.0" stroke-width="0.5"/>
    <line stroke="black" x1="691.0" y1="220.0" x2="713.0" y2="317.0" stroke-width="0.5"/>
    <line stroke="black" x1="713.0" y1="317.0" x2="783.0" y2="283.0" stroke-width="0.5"/>
    <line stroke="black" x1="619.0" y1="375.0" x2="560.0" y2="591.0" stroke-width="0.5"/>
    <line stroke="black" x1="619.0" y1="375.0" x2="735.0" y2="526.0" stroke-width="0.5"/>
    <line stroke="black" x1="560.0" y1="591.0" x2="460.0" y2="797.0" stroke-width="0.5"/>
    <line stroke="black" x1="735.0" y1="526.0" x2="882.0" y2="491.0" stroke-width="0.5"/>
    <line stroke="black" x1="882.0" y1="491.0" x2="982.0" y2="453.0" stroke-width="0.5"/>
    <line stroke="black" x1="460.0" y1="797.0" x2="360.0" y2="948.0" stroke-width="0.5"/>
    <line stroke="black" x1="460.0" y1="797.0" x2="530.0" y2="998.0" stroke-width="0.5"/>
    <line stroke="black" x1="982.0" y1="453.0" x2="1100.0" y2="422.0" stroke-width="0.5"/>
    <line stroke="black" x1="360.0" y1="948.0" x2="196.0" y2="1055.0" stroke-width="0.5"/>
    <line stroke="black" x1="360.0" y1="948.0" x2="487.0" y2="1094.0" stroke-width="0.5"/>
    <line stroke="black" x1="530.0" y1="998.0" x2="675.0" y2="973.0" stroke-width="0.5"/>
    <line stroke="black" x1="196.0" y1="1055.0" x2="56.0" y2="1129.0" stroke-width="0.5"/>
    <line stroke="black" x1="56.0" y1="1129.0" x2="8.0" y2="1173.0" stroke-width="0.5"/>
    <line stroke="black" x1="8.0" y1="1173.0" x2="53.0" y2="1264.0" stroke-width="0.5"/>
    <line stroke="black" x1="474.0" y1="1286.0" x2="53.0" y2="1264.0" stroke-width="0.5"/>
    <line stroke="black" x1="482.0" y1="1245.0" x2="53.0" y2="1264.0" stroke-width="0.5"/>
    <line stroke="black" x1="539.0" y1="1159.0" x2="196.0" y2="1055.0" stroke-width="0.5"/>
    <line stroke="black" x1="625.0" y1="1075.0" x2="487.0" y2="1094.0" stroke-width="0.5"/>
    <line stroke="black" x1="649.0" y1="1118.0" x2="487.0" y2="1094.0" stroke-width="0.5"/>
    <line stroke="black" x1="746.0" y1="1034.0" x2="530.0" y2="998.0" stroke-width="0.5"/>
    <line stroke="black" x1="728.0" y1="991.0" x2="675.0" y2="973.0" stroke-width="0.5"/>
    <line stroke="black" x1="792.0" y1="948.0" x2="675.0" y2="973.0" stroke-width="0.5"/>
    <line stroke="black" x1="800.0" y1="356.0" x2="713.0" y2="317.0" stroke-width="0.5"/>
    <line stroke="black" x1="900.0" y1="567.0" x2="735.0" y2="526.0" stroke-width="0.5"/>
    <line stroke="black" x1="862.0" y1="313.0" x2="783.0" y2="283.0" stroke-width="0.5"/>
    <line stroke="black" x1="862.0" y1="145.0" x2="796.0" y2="163.0" stroke-width="0.5"/>
    <line stroke="black" x1="908.0" y1="651.0" x2="839.0" y2="633.0" stroke-width="0.5"/>
    <line stroke="black" x1="983.0" y1="102.0" x2="810.0" y2="72.0" stroke-width="0.5"/>
    <line stroke="black" x1="913.0" y1="18.0" x2="882.0" y2="41.0" stroke-width="0.5"/>
    <line stroke="black" x1="943.0" y1="59.0" x2="882.0" y2="41.0" stroke-width="0.5"/>
    <line stroke="black" x1="1021.0" y1="272.0" x2="856.0" y2="251.0" stroke-width="0.5"/>
    <line stroke="black" x1="1037.0" y1="526.0" x2="882.0" y2="491.0" stroke-width="0.5"/>
    <line stroke="black" x1="1093.0" y1="483.0" x2="982.0" y2="453.0" stroke-width="0.5"/>
    <line stroke="black" x1="1128.0" y1="440.0" x2="1100.0" y2="422.0" stroke-width="0.5"/>
    <line stroke="black" x1="1242.0" y1="399.0" x2="1100.0" y2="422.0" stroke-width="0.5"/>
   </g>
  </g>
 </svg>
</svg>
