<?xml version="1.0" encoding="UTF-8"?>
<svg height="800.0" width="700.0" xmlns="http://www.w3.org/2000/svg">
 <svg>
  <g>
   <g>
    <g>
     <circle stroke="black" stroke-width="0.5" fill="#aaffff" cx="3.0" cy="1645.0" r="1.0"/>
     <text stroke="none" x="3.0" y="1645.0" font-size="20.0" font-family="helvetica"/>
    </g>
    <g>
     <circle stroke="black" stroke-width="0.5" fill="#aaffff" cx="295.0" cy="1577.0" r="1.0"/>
     <text stroke="none" x="295.0" y="1577.0" font-size="10.0" font-family="helvetica">NT1.2</text>
    </g>
    <g>
     <circle stroke="black" stroke-width="0.5" fill="#aaffff" cx="415.0" cy="1567.0" r="1.0"/>
     <text stroke="none" x="415.0" y="1567.0" font-size="10.0" font-family="helvetica">NT1.3</text>
    </g>
    <g>
     <circle stroke="black" stroke-width="0.5" fill="#aaffff" cx="516.0" cy="1617.0" r="1.0"/>
     <text stroke="none" x="516.0" y="1617.0" font-size="20.0" font-family="helvetica">Ornithobacterium rhinotracheale LMG 90867 (U87101)</text>
    </g>
    <g>
     <circle stroke="black" stroke-width="0.5" fill="#aaffff" cx="540.0" cy="1471.0" r="1.0"/>
     <text stroke="none" x="540.0" y="1471.0" font-size="10.0" font-family="helvetica">NT1.5</text>
    </g>
    <g>
     <circle stroke="black" stroke-width="0.5" fill="#aaffff" cx="664.0" cy="1503.0" r="1.0"/>
     <text stroke="none" x="664.0" y="1503.0" font-size="10.0" font-family="helvetica">NT1.6</text>
    </g>
    <g>
     <circle stroke="black" stroke-width="0.5" fill="#aaffff" cx="670.0" cy="1365.0" r="1.0"/>
     <text stroke="none" x="670.0" y="1365.0" font-size="10.0" font-family="helvetica">NT1.7</text>
    </g>
    <g>
     <circle stroke="black" stroke-width="0.5" fill="#aaffff" cx="671.0" cy="1486.0" r="1.0"/>
     <text stroke="none" x="671.0" y="1486.0" font-size="20.0" font-family="helvetica">Elizabethkingia meningoseptica ATCC 132537 (AY336568)</text>
    </g>
    <g>
     <circle stroke="black" stroke-width="0.5" fill="#aaffff" cx="683.0" cy="1551.0" r="1.0"/>
     <text stroke="none" x="683.0" y="1551.0" font-size="20.0" font-family="helvetica">Empedobacter brevis IAM 141977 (D14022)</text>
    </g>
    <g>
     <circle stroke="black" stroke-width="0.5" fill="#aaffff" cx="703.0" cy="1242.0" r="1.0"/>
     <text stroke="none" x="703.0" y="1242.0" font-size="10.0" font-family="helvetica">NT1.10</text>
    </g>
    <g>
     <circle stroke="black" stroke-width="0.5" fill="#aaffff" cx="722.0" cy="1584.0" r="1.0"/>
     <text stroke="none" x="722.0" y="1584.0" font-size="20.0" font-family="helvetica">Weeksella virosa ATCC 437667 (M93152)</text>
    </g>
    <g>
     <circle stroke="black" stroke-width="0.5" fill="#aaffff" cx="724.0" cy="1519.0" r="1.0"/>
     <text stroke="none" x="724.0" y="1519.0" font-size="20.0" font-family="helvetica">Elizabethkingia miricola GTC 8627 (ABO71953)</text>
    </g>
    <g>
     <circle stroke="black" stroke-width="0.5" fill="#aaffff" cx="765.0" cy="1404.0" r="1.0"/>
     <text stroke="none" x="765.0" y="1404.0" font-size="10.0" font-family="helvetica">NT1.13</text>
    </g>
    <g>
     <circle stroke="black" stroke-width="0.5" fill="#aaffff" cx="773.0" cy="696.0" r="1.0"/>
     <text stroke="none" x="773.0" y="696.0" font-size="10.0" font-family="helvetica">NT1.14</text>
    </g>
    <g>
     <circle stroke="black" stroke-width="0.5" fill="#aaffff" cx="773.0" cy="1356.0" r="1.0"/>
     <text stroke="none" x="773.0" y="1356.0" font-size="10.0" font-family="helvetica">NT1.15</text>
    </g>
    <g>
     <circle stroke="black" stroke-width="0.5" fill="#aaffff" cx="789.0" cy="456.0" r="1.0"/>
     <text stroke="none" x="789.0" y="456.0" font-size="10.0" font-family="helvetica">NT1.16</text>
    </g>
    <g>
     <circle stroke="black" stroke-width="0.5" fill="#aaffff" cx="795.0" cy="1297.0" r="1.0"/>
     <text stroke="none" x="795.0" y="1297.0" font-size="10.0" font-family="helvetica">NT1.17</text>
    </g>
    <g>
     <circle stroke="black" stroke-width="0.5" fill="#aaffff" cx="798.0" cy="1139.0" r="1.0"/>
     <text stroke="none" x="798.0" y="1139.0" font-size="10.0" font-family="helvetica">NT1.18</text>
    </g>
    <g>
     <circle stroke="black" stroke-width="0.5" fill="#aaffff" cx="808.0" cy="1420.0" r="1.0"/>
     <text stroke="none" x="808.0" y="1420.0" font-size="20.0" font-family="helvetica">Chryseobacterium molle DW37 (AJ534853)</text>
    </g>
    <g>
     <circle stroke="black" stroke-width="0.5" fill="#aaffff" cx="809.0" cy="1013.0" r="1.0"/>
     <text stroke="none" x="809.0" y="1013.0" font-size="10.0" font-family="helvetica">NT1.20</text>
    </g>
    <g>
     <circle stroke="black" stroke-width="0.5" fill="#aaffff" cx="814.0" cy="1453.0" r="1.0"/>
     <text stroke="none" x="814.0" y="1453.0" font-size="20.0" font-family="helvetica">Epilithonimonas tenax EP1057 (AF493696)</text>
    </g>
    <g>
     <circle stroke="black" stroke-width="0.5" fill="#aaffff" cx="814.0" cy="801.0" r="1.0"/>
     <text stroke="none" x="814.0" y="801.0" font-size="10.0" font-family="helvetica">NT1.22</text>
    </g>
    <g>
     <circle stroke="black" stroke-width="0.5" fill="#aaffff" cx="815.0" cy="1388.0" r="1.0"/>
     <text stroke="none" x="815.0" y="1388.0" font-size="20.0" font-family="helvetica">Chryseobacterium hominis NF 8027 (AM261868)</text>
    </g>
    <g>
     <circle stroke="black" stroke-width="0.5" fill="#aaffff" cx="815.0" cy="325.0" r="1.0"/>
     <text stroke="none" x="815.0" y="325.0" font-size="10.0" font-family="helvetica">NT1.24</text>
    </g>
    <g>
     <circle stroke="black" stroke-width="0.5" fill="#aaffff" cx="816.0" cy="685.0" r="1.0"/>
     <text stroke="none" x="816.0" y="685.0" font-size="10.0" font-family="helvetica">NT1.25</text>
    </g>
    <g>
     <circle stroke="black" stroke-width="0.5" fill="#aaffff" cx="819.0" cy="1341.0" r="1.0"/>
     <text stroke="none" x="819.0" y="1341.0" font-size="10.0" font-family="helvetica">NT1.26</text>
    </g>
    <g>
     <circle stroke="black" stroke-width="0.5" fill="#aaffff" cx="826.0" cy="784.0" r="1.0"/>
     <text stroke="none" x="826.0" y="784.0" font-size="10.0" font-family="helvetica">NT1.27</text>
    </g>
    <g>
     <circle stroke="black" stroke-width="0.5" fill="#aaffff" cx="826.0" cy="1142.0" r="1.0"/>
     <text stroke="none" x="826.0" y="1142.0" font-size="10.0" font-family="helvetica">NT1.28</text>
    </g>
    <g>
     <circle stroke="black" stroke-width="0.5" fill="#aaffff" cx="829.0" cy="632.0" r="1.0"/>
     <text stroke="none" x="829.0" y="632.0" font-size="10.0" font-family="helvetica">NT1.29</text>
    </g>
    <g>
     <circle stroke="black" stroke-width="0.5" fill="#aaffff" cx="829.0" cy="974.0" r="1.0"/>
     <text stroke="none" x="829.0" y="974.0" font-size="10.0" font-family="helvetica">NT1.30</text>
    </g>
    <g>
     <circle stroke="black" stroke-width="0.5" fill="#aaffff" cx="835.0" cy="195.0" r="1.0"/>
     <text stroke="none" x="835.0" y="195.0" font-size="10.0" font-family="helvetica">NT1.31</text>
    </g>
    <g>
     <circle stroke="black" stroke-width="0.5" fill="#aaffff" cx="837.0" cy="1111.0" r="1.0"/>
     <text stroke="none" x="837.0" y="1111.0" font-size="10.0" font-family="helvetica">NT1.32</text>
    </g>
    <g>
     <circle stroke="black" stroke-width="0.5" fill="#aaffff" cx="844.0" cy="996.0" r="1.0"/>
     <text stroke="none" x="844.0" y="996.0" font-size="20.0" font-family="helvetica">Chryseobacterium indologenes ATCC 298977 (M58773)</text>
    </g>
    <g>
     <circle stroke="black" stroke-width="0.5" fill="#aaffff" cx="846.0" cy="130.0" r="1.0"/>
     <text stroke="none" x="846.0" y="130.0" font-size="10.0" font-family="helvetica">NT1.34</text>
    </g>
    <g>
     <circle stroke="black" stroke-width="0.5" fill="#aaffff" cx="847.0" cy="947.0" r="1.0"/>
     <text stroke="none" x="847.0" y="947.0" font-size="10.0" font-family="helvetica">NT1.35</text>
    </g>
    <g>
     <circle stroke="black" stroke-width="0.5" fill="#aaffff" cx="848.0" cy="1191.0" r="1.0"/>
     <text stroke="none" x="848.0" y="1191.0" font-size="20.0" font-family="helvetica">Chryseobacterium jejuense JS1 7-87 (EF591303)</text>
    </g>
    <g>
     <circle stroke="black" stroke-width="0.5" fill="#aaffff" cx="851.0" cy="831.0" r="1.0"/>
     <text stroke="none" x="851.0" y="831.0" font-size="20.0" font-family="helvetica">Chryseobacterium formosense CC-H3-27 (AY315443)</text>
    </g>
    <g>
     <circle stroke="black" stroke-width="0.5" fill="#aaffff" cx="853.0" cy="1078.0" r="1.0"/>
     <text stroke="none" x="853.0" y="1078.0" font-size="10.0" font-family="helvetica">NT1.38</text>
    </g>
    <g>
     <circle stroke="black" stroke-width="0.5" fill="#aaffff" cx="854.0" cy="293.0" r="1.0"/>
     <text stroke="none" x="854.0" y="293.0" font-size="10.0" font-family="helvetica">NT1.39</text>
    </g>
    <g>
     <circle stroke="black" stroke-width="0.5" fill="#aaffff" cx="854.0" cy="914.0" r="1.0"/>
     <text stroke="none" x="854.0" y="914.0" font-size="10.0" font-family="helvetica">NT1.40</text>
    </g>
    <g>
     <circle stroke="black" stroke-width="0.5" fill="#aaffff" cx="856.0" cy="587.0" r="1.0"/>
     <text stroke="none" x="856.0" y="587.0" font-size="10.0" font-family="helvetica">NT1.41</text>
    </g>
    <g>
     <circle stroke="black" stroke-width="0.5" fill="#aaffff" cx="859.0" cy="1126.0" r="1.0"/>
     <text stroke="none" x="859.0" y="1126.0" font-size="20.0" font-family="helvetica">Chryseobacterium ureilyticum F-Fue-04IIIaaaa7 (AM232806)</text>
    </g>
    <g>
     <circle stroke="black" stroke-width="0.5" fill="#aaffff" cx="862.0" cy="703.0" r="1.0"/>
     <text stroke="none" x="862.0" y="703.0" font-size="10.0" font-family="helvetica">NT1.43</text>
    </g>
    <g>
     <circle stroke="black" stroke-width="0.5" fill="#aaffff" cx="864.0" cy="962.0" r="1.0"/>
     <text stroke="none" x="864.0" y="962.0" font-size="20.0" font-family="helvetica">Chryseobacterium gleum CCUG 145557 (AM232812)</text>
    </g>
    <g>
     <circle stroke="black" stroke-width="0.5" fill="#aaffff" cx="864.0" cy="97.0" r="1.0"/>
     <text stroke="none" x="864.0" y="97.0" font-size="10.0" font-family="helvetica">NT1.45</text>
    </g>
    <g>
     <circle stroke="black" stroke-width="0.5" fill="#aaffff" cx="868.0" cy="882.0" r="1.0"/>
     <text stroke="none" x="868.0" y="882.0" font-size="10.0" font-family="helvetica">NT1.46</text>
    </g>
    <g>
     <circle stroke="black" stroke-width="0.5" fill="#aaffff" cx="870.0" cy="1224.0" r="1.0"/>
     <text stroke="none" x="870.0" y="1224.0" font-size="10.0" font-family="helvetica">NT1.47</text>
    </g>
    <g>
     <circle stroke="black" stroke-width="0.5" fill="#aaffff" cx="875.0" cy="1290.0" r="1.0"/>
     <text stroke="none" x="875.0" y="1290.0" font-size="20.0" font-family="helvetica">Chryseobacterium hispanicum VP487 (AM159183)</text>
    </g>
    <g>
     <circle stroke="black" stroke-width="0.5" fill="#aaffff" cx="876.0" cy="1355.0" r="1.0"/>
     <text stroke="none" x="876.0" y="1355.0" font-size="20.0" font-family="helvetica">Chryseobacterium pallidum 26-3St2b7 (AM232809)</text>
    </g>
    <g>
     <circle stroke="black" stroke-width="0.5" fill="#aaffff" cx="877.0" cy="525.0" r="1.0"/>
     <text stroke="none" x="877.0" y="525.0" font-size="10.0" font-family="helvetica">NT1.50</text>
    </g>
    <g>
     <circle stroke="black" stroke-width="0.5" fill="#aaffff" cx="880.0" cy="260.0" r="1.0"/>
     <text stroke="none" x="880.0" y="260.0" font-size="10.0" font-family="helvetica">NT1.51</text>
    </g>
    <g>
     <circle stroke="black" stroke-width="0.5" fill="#aaffff" cx="882.0" cy="1046.0" r="1.0"/>
     <text stroke="none" x="882.0" y="1046.0" font-size="10.0" font-family="helvetica">NT1.52</text>
    </g>
    <g>
     <circle stroke="black" stroke-width="0.5" fill="#aaffff" cx="885.0" cy="1158.0" r="1.0"/>
     <text stroke="none" x="885.0" y="1158.0" font-size="20.0" font-family="helvetica">Chryseobacterium joostei LMG 182087 (AY468479)</text>
    </g>
    <g>
     <circle stroke="black" stroke-width="0.5" fill="#aaffff" cx="890.0" cy="863.0" r="1.0"/>
     <text stroke="none" x="890.0" y="863.0" font-size="10.0" font-family="helvetica">NT1.54</text>
    </g>
    <g>
     <circle stroke="black" stroke-width="0.5" fill="#aaffff" cx="894.0" cy="605.0" r="1.0"/>
     <text stroke="none" x="894.0" y="605.0" font-size="20.0" font-family="helvetica">Chryseobacterium taiwanense BCRC 174127 (DQ318789)</text>
    </g>
    <g>
     <circle stroke="black" stroke-width="0.5" fill="#aaffff" cx="899.0" cy="799.0" r="1.0"/>
     <text stroke="none" x="899.0" y="799.0" font-size="20.0" font-family="helvetica">Chryseobacterium wanjuense R2A1O-27 (DQ256729)</text>
    </g>
    <g>
     <circle stroke="black" stroke-width="0.5" fill="#aaffff" cx="900.0" cy="310.0" r="1.0"/>
     <text stroke="none" x="900.0" y="310.0" font-size="20.0" font-family="helvetica">Chryseobacterium aquaticum 10-467 (AM748690)</text>
    </g>
    <g>
     <circle stroke="black" stroke-width="0.5" fill="#aaffff" cx="900.0" cy="64.0" r="1.0"/>
     <text stroke="none" x="900.0" y="64.0" font-size="10.0" font-family="helvetica">NT1.58</text>
    </g>
    <g>
     <circle stroke="black" stroke-width="0.5" fill="#aaffff" cx="901.0" cy="637.0" r="1.0"/>
     <text stroke="none" x="901.0" y="637.0" font-size="20.0" font-family="helvetica">Chryseobacterium daecheongense CPW4O67 (AJ457206)</text>
    </g>
    <g>
     <circle stroke="black" stroke-width="0.5" fill="#aaffff" cx="903.0" cy="164.0" r="1.0"/>
     <text stroke="none" x="903.0" y="164.0" font-size="10.0" font-family="helvetica">NT1.60</text>
    </g>
    <g>
     <circle stroke="black" stroke-width="0.5" fill="#aaffff" cx="903.0" cy="228.0" r="1.0"/>
     <text stroke="none" x="903.0" y="228.0" font-size="10.0" font-family="helvetica">NT1.61</text>
    </g>
    <g>
     <circle stroke="black" stroke-width="0.5" fill="#aaffff" cx="908.0" cy="420.0" r="1.0"/>
     <text stroke="none" x="908.0" y="420.0" font-size="10.0" font-family="helvetica">NT1.62</text>
    </g>
    <g>
     <circle stroke="black" stroke-width="0.5" fill="#aaffff" cx="910.0" cy="1322.0" r="1.0"/>
     <text stroke="none" x="910.0" y="1322.0" font-size="20.0" font-family="helvetica">Chryseobacterium haifense H387 (EF204450)</text>
    </g>
    <g>
     <circle stroke="black" stroke-width="0.5" fill="#aaffff" cx="913.0" cy="670.0" r="1.0"/>
     <text stroke="none" x="913.0" y="670.0" font-size="20.0" font-family="helvetica">Chryseobacterium defluvii B27 (AJ309324)</text>
    </g>
    <g>
     <circle stroke="black" stroke-width="0.5" fill="#aaffff" cx="914.0" cy="897.0" r="1.0"/>
     <text stroke="none" x="914.0" y="897.0" font-size="20.0" font-family="helvetica">Chryseobacterium aquifrigidense CW97 (EF644913)</text>
    </g>
    <g>
     <circle stroke="black" stroke-width="0.5" fill="#aaffff" cx="915.0" cy="751.0" r="1.0"/>
     <text stroke="none" x="915.0" y="751.0" font-size="10.0" font-family="helvetica">NT1.66</text>
    </g>
    <g>
     <circle stroke="black" stroke-width="0.5" fill="#aaffff" cx="918.0" cy="81.0" r="1.0"/>
     <text stroke="none" x="918.0" y="81.0" font-size="20.0" font-family="helvetica">Chryseobacterium scophthalmum LMG 130287 (AJ271009)</text>
    </g>
    <g>
     <circle stroke="black" stroke-width="0.5" fill="#aaffff" cx="920.0" cy="1093.0" r="1.0"/>
     <text stroke="none" x="920.0" y="1093.0" font-size="20.0" font-family="helvetica">Chryseobacterium oranimense H87 (EF204451)</text>
    </g>
    <g>
     <circle stroke="black" stroke-width="0.5" fill="#aaffff" cx="921.0" cy="278.0" r="1.0"/>
     <text stroke="none" x="921.0" y="278.0" font-size="10.0" font-family="helvetica">NT1.69</text>
    </g>
    <g>
     <circle stroke="black" stroke-width="0.5" fill="#aaffff" cx="925.0" cy="1028.0" r="1.0"/>
     <text stroke="none" x="925.0" y="1028.0" font-size="20.0" font-family="helvetica">Chryseobacterium shigense GUM-Kaji7 (AB193101)</text>
    </g>
    <g>
     <circle stroke="black" stroke-width="0.5" fill="#aaffff" cx="925.0" cy="1257.0" r="1.0"/>
     <text stroke="none" x="925.0" y="1257.0" font-size="20.0" font-family="helvetica">Chryseobacterium bovis H97 (EF204446)</text>
    </g>
    <g>
     <circle stroke="black" stroke-width="0.5" fill="#aaffff" cx="927.0" cy="554.0" r="1.0"/>
     <text stroke="none" x="927.0" y="554.0" font-size="10.0" font-family="helvetica">NT1.72</text>
    </g>
    <g>
     <circle stroke="black" stroke-width="0.5" fill="#aaffff" cx="927.0" cy="490.0" r="1.0"/>
     <text stroke="none" x="927.0" y="490.0" font-size="10.0" font-family="helvetica">NT1.73</text>
    </g>
    <g>
     <circle stroke="black" stroke-width="0.5" fill="#aaffff" cx="930.0" cy="114.0" r="1.0"/>
     <text stroke="none" x="930.0" y="114.0" font-size="20.0" font-family="helvetica">Chryseobacterium indoltheticum ATCC 279507 (AY468448)</text>
    </g>
    <g>
     <circle stroke="black" stroke-width="0.5" fill="#aaffff" cx="940.0" cy="390.0" r="1.0"/>
     <text stroke="none" x="940.0" y="390.0" font-size="10.0" font-family="helvetica">NT1.75</text>
    </g>
    <g>
     <circle stroke="black" stroke-width="0.5" fill="#aaffff" cx="943.0" cy="34.0" r="1.0"/>
     <text stroke="none" x="943.0" y="34.0" font-size="10.0" font-family="helvetica">NT1.76</text>
    </g>
    <g>
     <circle stroke="black" stroke-width="0.5" fill="#aaffff" cx="946.0" cy="766.0" r="1.0"/>
     <text stroke="none" x="946.0" y="766.0" font-size="10.0" font-family="helvetica">NT1.77</text>
    </g>
    <g>
     <circle stroke="black" stroke-width="0.5" fill="#aaffff" cx="952.0" cy="1061.0" r="1.0"/>
     <text stroke="none" x="952.0" y="1061.0" font-size="20.0" font-family="helvetica">Chryseobacterium vrystaatense R-235667 (AJ871397)</text>
    </g>
    <g>
     <circle stroke="black" stroke-width="0.5" fill="#aaffff" cx="955.0" cy="49.0" r="1.0"/>
     <text stroke="none" x="955.0" y="49.0" font-size="20.0" font-family="helvetica">Chryseobacterium piscium LMG 230897 (AMO40439)</text>
    </g>
    <g>
     <circle stroke="black" stroke-width="0.5" fill="#aaffff" cx="960.0" cy="16.0" r="1.0"/>
     <text stroke="none" x="960.0" y="16.0" font-size="20.0" font-family="helvetica">Chryseobacterium balustinum ATCC 334877 (M58771)</text>
    </g>
    <g>
     <circle stroke="black" stroke-width="0.5" fill="#aaffff" cx="968.0" cy="246.0" r="1.0"/>
     <text stroke="none" x="968.0" y="246.0" font-size="20.0" font-family="helvetica">Chryseobacterium soldanellicola PSD1-47 (AY883415)</text>
    </g>
    <g>
     <circle stroke="black" stroke-width="0.5" fill="#aaffff" cx="971.0" cy="539.0" r="1.0"/>
     <text stroke="none" x="971.0" y="539.0" font-size="20.0" font-family="helvetica">Chryseobacterium taeanense PHA3-47 (AY883416)</text>
    </g>
    <g>
     <circle stroke="black" stroke-width="0.5" fill="#aaffff" cx="978.0" cy="572.0" r="1.0"/>
     <text stroke="none" x="978.0" y="572.0" font-size="20.0" font-family="helvetica">Chryseobacterium taichungense CC-TWGS1-87 (AJ843132)</text>
    </g>
    <g>
     <circle stroke="black" stroke-width="0.5" fill="#aaffff" cx="983.0" cy="212.0" r="1.0"/>
     <text stroke="none" x="983.0" y="212.0" font-size="10.0" font-family="helvetica">NT1.84</text>
    </g>
    <g>
     <circle stroke="black" stroke-width="0.5" fill="#aaffff" cx="984.0" cy="474.0" r="1.0"/>
     <text stroke="none" x="984.0" y="474.0" font-size="20.0" font-family="helvetica">Chryseobacterium daeguense K1057 (EFO76759)</text>
    </g>
    <g>
     <circle stroke="black" stroke-width="0.5" fill="#aaffff" cx="985.0" cy="507.0" r="1.0"/>
     <text stroke="none" x="985.0" y="507.0" font-size="20.0" font-family="helvetica">Chryseobacterium gregarium DSM 191097 (AM773820)</text>
    </g>
    <g>
     <circle stroke="black" stroke-width="0.5" fill="#aaffff" cx="986.0" cy="733.0" r="1.0"/>
     <text stroke="none" x="986.0" y="733.0" font-size="20.0" font-family="helvetica">Chryseobacterium antarcticum AT10137 (AY553293)</text>
    </g>
    <g>
     <circle stroke="black" stroke-width="0.5" fill="#aaffff" cx="993.0" cy="441.0" r="1.0"/>
     <text stroke="none" x="993.0" y="441.0" font-size="20.0" font-family="helvetica">Cloacibacterium normanense CCUG 462937 (AJ575430)</text>
    </g>
    <g>
     <circle stroke="black" stroke-width="0.5" fill="#aaffff" cx="1009.0" cy="358.0" r="1.0"/>
     <text stroke="none" x="1009.0" y="358.0" font-size="10.0" font-family="helvetica">NT1.89</text>
    </g>
    <g>
     <circle stroke="black" stroke-width="0.5" fill="#aaffff" cx="1012.0" cy="147.0" r="1.0"/>
     <text stroke="none" x="1012.0" y="147.0" font-size="20.0" font-family="helvetica">Chryseobacterium caeni N47 (DQ336714)</text>
    </g>
    <g>
     <circle stroke="black" stroke-width="0.5" fill="#aaffff" cx="1045.0" cy="930.0" r="1.0"/>
     <text stroke="none" x="1045.0" y="930.0" font-size="20.0" font-family="helvetica">Chryseobacterium flavum CW-E 27 (EF154516)</text>
    </g>
    <g>
     <circle stroke="black" stroke-width="0.5" fill="#aaffff" cx="1058.0" cy="376.0" r="1.0"/>
     <text stroke="none" x="1058.0" y="376.0" font-size="10.0" font-family="helvetica">NT1.92</text>
    </g>
    <g>
     <circle stroke="black" stroke-width="0.5" fill="#aaffff" cx="1064.0" cy="408.0" r="1.0"/>
     <text stroke="none" x="1064.0" y="408.0" font-size="10.0" font-family="helvetica">NT1.93</text>
    </g>
    <g>
     <circle stroke="black" stroke-width="0.5" fill="#aaffff" cx="1077.0" cy="180.0" r="1.0"/>
     <text stroke="none" x="1077.0" y="180.0" font-size="10.0" font-family="helvetica">NT1.94</text>
    </g>
    <g>
     <circle stroke="black" stroke-width="0.5" fill="#aaffff" cx="1141.0" cy="343.0" r="1.0"/>
     <text stroke="none" x="1141.0" y="343.0" font-size="20.0" font-family="helvetica">Bergeyella zoohelcum ATCC 437677 (M93153)</text>
    </g>
    <line stroke="black" x1="955.0" y1="49.0" x2="943.0" y2="34.0" stroke-width="0.5"/>
    <line stroke="black" x1="930.0" y1="114.0" x2="864.0" y2="97.0" stroke-width="0.5"/>
    <line stroke="black" x1="1012.0" y1="147.0" x2="903.0" y2="164.0" stroke-width="0.5"/>
    <line stroke="black" x1="900.0" y1="310.0" x2="854.0" y2="293.0" stroke-width="0.5"/>
    <line stroke="black" x1="968.0" y1="246.0" x2="903.0" y2="228.0" stroke-width="0.5"/>
    <line stroke="black" x1="993.0" y1="441.0" x2="908.0" y2="420.0" stroke-width="0.5"/>
    <line stroke="black" x1="1141.0" y1="343.0" x2="1009.0" y2="358.0" stroke-width="0.5"/>
    <line stroke="black" x1="894.0" y1="605.0" x2="856.0" y2="587.0" stroke-width="0.5"/>
    <line stroke="black" x1="913.0" y1="670.0" x2="829.0" y2="632.0" stroke-width="0.5"/>
    <line stroke="black" x1="851.0" y1="831.0" x2="814.0" y2="801.0" stroke-width="0.5"/>
    <line stroke="black" x1="899.0" y1="799.0" x2="826.0" y2="784.0" stroke-width="0.5"/>
    <line stroke="black" x1="978.0" y1="572.0" x2="927.0" y2="554.0" stroke-width="0.5"/>
    <line stroke="black" x1="984.0" y1="474.0" x2="927.0" y2="490.0" stroke-width="0.5"/>
    <line stroke="black" x1="985.0" y1="507.0" x2="927.0" y2="490.0" stroke-width="0.5"/>
    <line stroke="black" x1="844.0" y1="996.0" x2="829.0" y2="974.0" stroke-width="0.5"/>
    <line stroke="black" x1="808.0" y1="1420.0" x2="765.0" y2="1404.0" stroke-width="0.5"/>
    <line stroke="black" x1="864.0" y1="962.0" x2="847.0" y2="947.0" stroke-width="0.5"/>
    <line stroke="black" x1="815.0" y1="1388.0" x2="773.0" y2="1356.0" stroke-width="0.5"/>
    <line stroke="black" x1="885.0" y1="1158.0" x2="826.0" y2="1142.0" stroke-width="0.5"/>
    <line stroke="black" x1="859.0" y1="1126.0" x2="837.0" y2="1111.0" stroke-width="0.5"/>
    <line stroke="black" x1="914.0" y1="897.0" x2="868.0" y2="882.0" stroke-width="0.5"/>
    <line stroke="black" x1="814.0" y1="1453.0" x2="670.0" y2="1365.0" stroke-width="0.5"/>
    <line stroke="black" x1="920.0" y1="1093.0" x2="853.0" y2="1078.0" stroke-width="0.5"/>
    <line stroke="black" x1="876.0" y1="1355.0" x2="819.0" y2="1341.0" stroke-width="0.5"/>
    <line stroke="black" x1="875.0" y1="1290.0" x2="795.0" y2="1297.0" stroke-width="0.5"/>
    <line stroke="black" x1="671.0" y1="1486.0" x2="664.0" y2="1503.0" stroke-width="0.5"/>
    <line stroke="black" x1="1045.0" y1="930.0" x2="854.0" y2="914.0" stroke-width="0.5"/>
    <line stroke="black" x1="925.0" y1="1028.0" x2="882.0" y2="1046.0" stroke-width="0.5"/>
    <line stroke="black" x1="910.0" y1="1322.0" x2="819.0" y2="1341.0" stroke-width="0.5"/>
    <line stroke="black" x1="952.0" y1="1061.0" x2="882.0" y2="1046.0" stroke-width="0.5"/>
    <line stroke="black" x1="724.0" y1="1519.0" x2="664.0" y2="1503.0" stroke-width="0.5"/>
    <line stroke="black" x1="722.0" y1="1584.0" x2="415.0" y2="1567.0" stroke-width="0.5"/>
    <line stroke="black" x1="516.0" y1="1617.0" x2="295.0" y2="1577.0" stroke-width="0.5"/>
    <line stroke="black" x1="3.0" y1="1645.0" x2="295.0" y2="1577.0" stroke-width="0.5"/>
    <line stroke="black" x1="943.0" y1="34.0" x2="900.0" y2="64.0" stroke-width="0.5"/>
    <line stroke="black" x1="900.0" y1="64.0" x2="864.0" y2="97.0" stroke-width="0.5"/>
    <line stroke="black" x1="864.0" y1="97.0" x2="846.0" y2="130.0" stroke-width="0.5"/>
    <line stroke="black" x1="846.0" y1="130.0" x2="835.0" y2="195.0" stroke-width="0.5"/>
    <line stroke="black" x1="835.0" y1="195.0" x2="815.0" y2="325.0" stroke-width="0.5"/>
    <line stroke="black" x1="835.0" y1="195.0" x2="854.0" y2="293.0" stroke-width="0.5"/>
    <line stroke="black" x1="815.0" y1="325.0" x2="789.0" y2="456.0" stroke-width="0.5"/>
    <line stroke="black" x1="815.0" y1="325.0" x2="908.0" y2="420.0" stroke-width="0.5"/>
    <line stroke="black" x1="789.0" y1="456.0" x2="773.0" y2="696.0" stroke-width="0.5"/>
    <line stroke="black" x1="773.0" y1="696.0" x2="814.0" y2="801.0" stroke-width="0.5"/>
    <line stroke="black" x1="773.0" y1="696.0" x2="703.0" y2="1242.0" stroke-width="0.5"/>
    <line stroke="black" x1="773.0" y1="696.0" x2="798.0" y2="1139.0" stroke-width="0.5"/>
    <line stroke="black" x1="816.0" y1="685.0" x2="829.0" y2="632.0" stroke-width="0.5"/>
    <line stroke="black" x1="829.0" y1="632.0" x2="856.0" y2="587.0" stroke-width="0.5"/>
    <line stroke="black" x1="856.0" y1="587.0" x2="877.0" y2="525.0" stroke-width="0.5"/>
    <line stroke="black" x1="814.0" y1="801.0" x2="826.0" y2="784.0" stroke-width="0.5"/>
    <line stroke="black" x1="877.0" y1="525.0" x2="927.0" y2="490.0" stroke-width="0.5"/>
    <line stroke="black" x1="877.0" y1="525.0" x2="927.0" y2="554.0" stroke-width="0.5"/>
    <line stroke="black" x1="798.0" y1="1139.0" x2="809.0" y2="1013.0" stroke-width="0.5"/>
    <line stroke="black" x1="703.0" y1="1242.0" x2="765.0" y2="1404.0" stroke-width="0.5"/>
    <line stroke="black" x1="703.0" y1="1242.0" x2="670.0" y2="1365.0" stroke-width="0.5"/>
    <line stroke="black" x1="670.0" y1="1365.0" x2="540.0" y2="1471.0" stroke-width="0.5"/>
    <line stroke="black" x1="809.0" y1="1013.0" x2="826.0" y2="1142.0" stroke-width="0.5"/>
    <line stroke="black" x1="809.0" y1="1013.0" x2="829.0" y2="974.0" stroke-width="0.5"/>
    <line stroke="black" x1="829.0" y1="974.0" x2="847.0" y2="947.0" stroke-width="0.5"/>
    <line stroke="black" x1="765.0" y1="1404.0" x2="773.0" y2="1356.0" stroke-width="0.5"/>
    <line stroke="black" x1="847.0" y1="947.0" x2="854.0" y2="914.0" stroke-width="0.5"/>
    <line stroke="black" x1="773.0" y1="1356.0" x2="795.0" y2="1297.0" stroke-width="0.5"/>
    <line stroke="black" x1="826.0" y1="1142.0" x2="837.0" y2="1111.0" stroke-width="0.5"/>
    <line stroke="black" x1="837.0" y1="1111.0" x2="853.0" y2="1078.0" stroke-width="0.5"/>
    <line stroke="black" x1="795.0" y1="1297.0" x2="819.0" y2="1341.0" stroke-width="0.5"/>
    <line stroke="black" x1="853.0" y1="1078.0" x2="882.0" y2="1046.0" stroke-width="0.5"/>
    <line stroke="black" x1="540.0" y1="1471.0" x2="664.0" y2="1503.0" stroke-width="0.5"/>
    <line stroke="black" x1="540.0" y1="1471.0" x2="415.0" y2="1567.0" stroke-width="0.5"/>
    <line stroke="black" x1="415.0" y1="1567.0" x2="295.0" y2="1577.0" stroke-width="0.5"/>
    <line stroke="black" x1="683.0" y1="1551.0" x2="415.0" y2="1567.0" stroke-width="0.5"/>
    <line stroke="black" x1="848.0" y1="1191.0" x2="798.0" y2="1139.0" stroke-width="0.5"/>
    <line stroke="black" x1="925.0" y1="1257.0" x2="795.0" y2="1297.0" stroke-width="0.5"/>
    <line stroke="black" x1="901.0" y1="637.0" x2="829.0" y2="632.0" stroke-width="0.5"/>
    <line stroke="black" x1="918.0" y1="81.0" x2="900.0" y2="64.0" stroke-width="0.5"/>
    <line stroke="black" x1="971.0" y1="539.0" x2="927.0" y2="554.0" stroke-width="0.5"/>
    <line stroke="black" x1="986.0" y1="733.0" x2="915.0" y2="751.0" stroke-width="0.5"/>
    <line stroke="black" x1="960.0" y1="16.0" x2="943.0" y2="34.0" stroke-width="0.5"/>
   </g>
  </g>
 </svg>
</svg>
