<?xml version="1.0" encoding="UTF-8"?>
<svg height="800.0" width="700.0" xmlns="http://www.w3.org/2000/svg">
 <svg>
  <g>
   <g>
    <g>
     <circle stroke="black" stroke-width="0.5" fill="#aaffff" cx="21.0" cy="427.0" r="1.0"/>
     <text stroke="none" x="21.0" y="427.0" font-size="10.0" font-family="helvetica">NT1.1</text>
    </g>
    <g>
     <circle stroke="black" stroke-width="0.5" fill="#aaffff" cx="72.0" cy="282.0" r="1.0"/>
     <text stroke="none" x="72.0" y="282.0" font-size="20.0" font-family="helvetica">59</text>
    </g>
    <g>
     <circle stroke="black" stroke-width="0.5" fill="#aaffff" cx="76.0" cy="411.0" r="1.0"/>
     <text stroke="none" x="76.0" y="411.0" font-size="10.0" font-family="helvetica">NT1.3</text>
    </g>
    <g>
     <circle stroke="black" stroke-width="0.5" fill="#aaffff" cx="104.0" cy="642.0" r="1.0"/>
     <text stroke="none" x="104.0" y="642.0" font-size="10.0" font-family="helvetica">NT1.4</text>
    </g>
    <g>
     <circle stroke="black" stroke-width="0.5" fill="#aaffff" cx="105.0" cy="471.0" r="1.0"/>
     <text stroke="none" x="105.0" y="471.0" font-size="10.0" font-family="helvetica">NT1.5</text>
    </g>
    <g>
     <circle stroke="black" stroke-width="0.5" fill="#aaffff" cx="106.0" cy="352.0" r="1.0"/>
     <text stroke="none" x="106.0" y="352.0" font-size="10.0" font-family="helvetica">NT1.6</text>
    </g>
    <g>
     <circle stroke="black" stroke-width="0.5" fill="#aaffff" cx="118.0" cy="151.0" r="1.0"/>
     <text stroke="none" x="118.0" y="151.0" font-size="10.0" font-family="helvetica">NT1.7</text>
    </g>
    <g>
     <circle stroke="black" stroke-width="0.5" fill="#aaffff" cx="134.0" cy="96.0" r="1.0"/>
     <text stroke="none" x="134.0" y="96.0" font-size="20.0" font-family="helvetica">59</text>
    </g>
    <g>
     <circle stroke="black" stroke-width="0.5" fill="#aaffff" cx="144.0" cy="672.0" r="1.0"/>
     <text stroke="none" x="144.0" y="672.0" font-size="10.0" font-family="helvetica">NT1.9</text>
    </g>
    <g>
     <circle stroke="black" stroke-width="0.5" fill="#aaffff" cx="151.0" cy="61.0" r="1.0"/>
     <text stroke="none" x="151.0" y="61.0" font-size="10.0" font-family="helvetica">NT1.10</text>
    </g>
    <g>
     <circle stroke="black" stroke-width="0.5" fill="#aaffff" cx="171.0" cy="511.0" r="1.0"/>
     <text stroke="none" x="171.0" y="511.0" font-size="10.0" font-family="helvetica">NT1.11</text>
    </g>
    <g>
     <circle stroke="black" stroke-width="0.5" fill="#aaffff" cx="175.0" cy="31.0" r="1.0"/>
     <text stroke="none" x="175.0" y="31.0" font-size="20.0" font-family="helvetica">42</text>
    </g>
    <g>
     <circle stroke="black" stroke-width="0.5" fill="#aaffff" cx="184.0" cy="205.0" r="1.0"/>
     <text stroke="none" x="184.0" y="205.0" font-size="10.0" font-family="helvetica">NT1.13</text>
    </g>
    <g>
     <circle stroke="black" stroke-width="0.5" fill="#aaffff" cx="210.0" cy="240.0" r="1.0"/>
     <text stroke="none" x="210.0" y="240.0" font-size="20.0" font-family="helvetica">75</text>
    </g>
    <g>
     <circle stroke="black" stroke-width="0.5" fill="#aaffff" cx="231.0" cy="270.0" r="1.0"/>
     <text stroke="none" x="231.0" y="270.0" font-size="20.0" font-family="helvetica">71</text>
    </g>
    <g>
     <circle stroke="black" stroke-width="0.5" fill="#aaffff" cx="279.0" cy="572.0" r="1.0"/>
     <text stroke="none" x="279.0" y="572.0" font-size="20.0" font-family="helvetica">Roseicyclus mahoneyensis ML6T (AJ315682)</text>
    </g>
    <g>
     <circle stroke="black" stroke-width="0.5" fill="#aaffff" cx="286.0" cy="11.0" r="1.0"/>
     <text stroke="none" x="286.0" y="11.0" font-size="20.0" font-family="helvetica">Oceanicola batsensis HTCC2597T (AY424898)</text>
    </g>
    <g>
     <circle stroke="black" stroke-width="0.5" fill="#aaffff" cx="287.0" cy="612.0" r="1.0"/>
     <text stroke="none" x="287.0" y="612.0" font-size="20.0" font-family="helvetica">Rhodovulum sulfidophilum DSM 1374T (D16423)</text>
    </g>
    <g>
     <circle stroke="black" stroke-width="0.5" fill="#aaffff" cx="291.0" cy="211.0" r="1.0"/>
     <text stroke="none" x="291.0" y="211.0" font-size="10.0" font-family="helvetica">NT1.19</text>
    </g>
    <g>
     <circle stroke="black" stroke-width="0.5" fill="#aaffff" cx="291.0" cy="532.0" r="1.0"/>
     <text stroke="none" x="291.0" y="532.0" font-size="20.0" font-family="helvetica">Roseisalinus antarcticus EL-88T (AJ605747)</text>
    </g>
    <g>
     <circle stroke="black" stroke-width="0.5" fill="#aaffff" cx="295.0" cy="492.0" r="1.0"/>
     <text stroke="none" x="295.0" y="492.0" font-size="20.0" font-family="helvetica"> Oceanicola granulosus HTCC2516T (AY424896)</text>
    </g>
    <g>
     <circle stroke="black" stroke-width="0.5" fill="#aaffff" cx="298.0" cy="131.0" r="1.0"/>
     <text stroke="none" x="298.0" y="131.0" font-size="10.0" font-family="helvetica">NT1.22</text>
    </g>
    <g>
     <circle stroke="black" stroke-width="0.5" fill="#aaffff" cx="309.0" cy="331.0" r="1.0"/>
     <text stroke="none" x="309.0" y="331.0" font-size="20.0" font-family="helvetica">Jannaschia helgolandensis Hel 1OT (AJ438157)</text>
    </g>
    <g>
     <circle stroke="black" stroke-width="0.5" fill="#aaffff" cx="312.0" cy="51.0" r="1.0"/>
     <text stroke="none" x="312.0" y="51.0" font-size="10.0" font-family="helvetica">NT1.24</text>
    </g>
    <g>
     <circle stroke="black" stroke-width="0.5" fill="#aaffff" cx="318.0" cy="250.0" r="1.0"/>
     <text stroke="none" x="318.0" y="250.0" font-size="20.0" font-family="helvetica">Thalassobius aestuarii JC2049T (AY442178)</text>
    </g>
    <g>
     <circle stroke="black" stroke-width="0.5" fill="#aaffff" cx="324.0" cy="91.0" r="1.0"/>
     <text stroke="none" x="324.0" y="91.0" font-size="20.0" font-family="helvetica">Oceanicola marinus AZO-CT (DQ822569)</text>
    </g>
    <g>
     <circle stroke="black" stroke-width="0.5" fill="#aaffff" cx="330.0" cy="291.0" r="1.0"/>
     <text stroke="none" x="330.0" y="291.0" font-size="20.0" font-family="helvetica">Thalassobius mediterraneus CECT 5383T (AJ878874)</text>
    </g>
    <g>
     <circle stroke="black" stroke-width="0.5" fill="#aaffff" cx="335.0" cy="432.0" r="1.0"/>
     <text stroke="none" x="335.0" y="432.0" font-size="10.0" font-family="helvetica">NT1.28</text>
    </g>
    <g>
     <circle stroke="black" stroke-width="0.5" fill="#aaffff" cx="339.0" cy="411.0" r="1.0"/>
     <text stroke="none" x="339.0" y="411.0" font-size="10.0" font-family="helvetica">NT1.29</text>
    </g>
    <g>
     <circle stroke="black" stroke-width="0.5" fill="#aaffff" cx="351.0" cy="693.0" r="1.0"/>
     <text stroke="none" x="351.0" y="693.0" font-size="20.0" font-family="helvetica">Rhodobacter capsulatus CST (D16427)</text>
    </g>
    <g>
     <circle stroke="black" stroke-width="0.5" fill="#aaffff" cx="355.0" cy="452.0" r="1.0"/>
     <text stroke="none" x="355.0" y="452.0" font-size="10.0" font-family="helvetica">NT1.31</text>
    </g>
    <g>
     <circle stroke="black" stroke-width="0.5" fill="#aaffff" cx="366.0" cy="171.0" r="1.0"/>
     <text stroke="none" x="366.0" y="171.0" font-size="10.0" font-family="helvetica">NT1.32</text>
    </g>
    <g>
     <circle stroke="black" stroke-width="0.5" fill="#aaffff" cx="404.0" cy="372.0" r="1.0"/>
     <text stroke="none" x="404.0" y="372.0" font-size="20.0" font-family="helvetica">Marinosulfonomonas methylotropha PSCH4T (U62894)</text>
    </g>
    <g>
     <circle stroke="black" stroke-width="0.5" fill="#aaffff" cx="404.0" cy="652.0" r="1.0"/>
     <text stroke="none" x="404.0" y="652.0" font-size="20.0" font-family="helvetica">Albidovulum inexpectatum FRR-10T (AF465833)</text>
    </g>
    <g>
     <circle stroke="black" stroke-width="0.5" fill="#aaffff" cx="5.0" cy="444.0" r="1.0"/>
     <text stroke="none" x="5.0" y="444.0" font-size="10.0" font-family="helvetica">NT1.35</text>
    </g>
    <line stroke="black" x1="286.0" y1="11.0" x2="175.0" y2="31.0" stroke-width="0.5"/>
    <line stroke="black" x1="324.0" y1="91.0" x2="151.0" y2="61.0" stroke-width="0.5"/>
    <line stroke="black" x1="318.0" y1="250.0" x2="231.0" y2="270.0" stroke-width="0.5"/>
    <line stroke="black" x1="330.0" y1="291.0" x2="231.0" y2="270.0" stroke-width="0.5"/>
    <line stroke="black" x1="309.0" y1="331.0" x2="106.0" y2="352.0" stroke-width="0.5"/>
    <line stroke="black" x1="291.0" y1="532.0" x2="171.0" y2="511.0" stroke-width="0.5"/>
    <line stroke="black" x1="295.0" y1="492.0" x2="171.0" y2="511.0" stroke-width="0.5"/>
    <line stroke="black" x1="404.0" y1="372.0" x2="106.0" y2="352.0" stroke-width="0.5"/>
    <line stroke="black" x1="279.0" y1="572.0" x2="21.0" y2="427.0" stroke-width="0.5"/>
    <line stroke="black" x1="287.0" y1="612.0" x2="104.0" y2="642.0" stroke-width="0.5"/>
    <line stroke="black" x1="351.0" y1="693.0" x2="144.0" y2="672.0" stroke-width="0.5"/>
    <line stroke="black" x1="404.0" y1="652.0" x2="144.0" y2="672.0" stroke-width="0.5"/>
    <line stroke="black" x1="151.0" y1="61.0" x2="134.0" y2="96.0" stroke-width="0.5"/>
    <line stroke="black" x1="118.0" y1="151.0" x2="72.0" y2="282.0" stroke-width="0.5"/>
    <line stroke="black" x1="72.0" y1="282.0" x2="21.0" y2="427.0" stroke-width="0.5"/>
    <line stroke="black" x1="72.0" y1="282.0" x2="76.0" y2="411.0" stroke-width="0.5"/>
    <line stroke="black" x1="210.0" y1="240.0" x2="231.0" y2="270.0" stroke-width="0.5"/>
    <line stroke="black" x1="76.0" y1="411.0" x2="106.0" y2="352.0" stroke-width="0.5"/>
    <line stroke="black" x1="105.0" y1="471.0" x2="171.0" y2="511.0" stroke-width="0.5"/>
    <line stroke="black" x1="104.0" y1="642.0" x2="144.0" y2="672.0" stroke-width="0.5"/>
    <line stroke="black" x1="5.0" y1="444.0" x2="21.0" y2="427.0" stroke-width="0.5"/>
    <line stroke="black" x1="104.0" y1="642.0" x2="5.0" y2="444.0" stroke-width="0.5"/>
   </g>
  </g>
 </svg>
</svg>
