<?xml version="1.0" encoding="UTF-8"?>
<svg height="800.0" width="700.0" xmlns="http://www.w3.org/2000/svg">
 <svg>
  <g>
   <g>
    <g>
     <circle stroke="black" stroke-width="0.5" fill="#aaffff" cx="14.0" cy="264.0" r="1.0"/>
     <text stroke="none" x="14.0" y="264.0" font-size="10.0" font-family="helvetica">NT1.1</text>
    </g>
    <g>
     <circle stroke="black" stroke-width="0.5" fill="#aaffff" cx="16.0" cy="481.0" r="1.0"/>
     <text stroke="none" x="16.0" y="481.0" font-size="10.0" font-family="helvetica">NT1.2</text>
    </g>
    <g>
     <circle stroke="black" stroke-width="0.5" fill="#aaffff" cx="27.0" cy="197.0" r="1.0"/>
     <text stroke="none" x="27.0" y="197.0" font-size="10.0" font-family="helvetica">NT1.3</text>
    </g>
    <g>
     <circle stroke="black" stroke-width="0.5" fill="#aaffff" cx="45.0" cy="445.0" r="1.0"/>
     <text stroke="none" x="45.0" y="445.0" font-size="10.0" font-family="helvetica">NT1.4</text>
    </g>
    <g>
     <circle stroke="black" stroke-width="0.5" fill="#aaffff" cx="54.0" cy="140.0" r="1.0"/>
     <text stroke="none" x="54.0" y="140.0" font-size="10.0" font-family="helvetica">NT1.5</text>
    </g>
    <g>
     <circle stroke="black" stroke-width="0.5" fill="#aaffff" cx="61.0" cy="91.0" r="1.0"/>
     <text stroke="none" x="61.0" y="91.0" font-size="10.0" font-family="helvetica">NT1.6</text>
    </g>
    <g>
     <circle stroke="black" stroke-width="0.5" fill="#aaffff" cx="83.0" cy="517.0" r="1.0"/>
     <text stroke="none" x="83.0" y="517.0" font-size="20.0" font-family="helvetica">77</text>
    </g>
    <g>
     <circle stroke="black" stroke-width="0.5" fill="#aaffff" cx="106.0" cy="541.0" r="1.0"/>
     <text stroke="none" x="106.0" y="541.0" font-size="10.0" font-family="helvetica">NT1.8</text>
    </g>
    <g>
     <circle stroke="black" stroke-width="0.5" fill="#aaffff" cx="108.0" cy="55.0" r="1.0"/>
     <text stroke="none" x="108.0" y="55.0" font-size="20.0" font-family="helvetica">80</text>
    </g>
    <g>
     <circle stroke="black" stroke-width="0.5" fill="#aaffff" cx="165.0" cy="125.0" r="1.0"/>
     <text stroke="none" x="165.0" y="125.0" font-size="20.0" font-family="helvetica">99</text>
    </g>
    <g>
     <circle stroke="black" stroke-width="0.5" fill="#aaffff" cx="173.0" cy="329.0" r="1.0"/>
     <text stroke="none" x="173.0" y="329.0" font-size="20.0" font-family="helvetica">100</text>
    </g>
    <g>
     <circle stroke="black" stroke-width="0.5" fill="#aaffff" cx="202.0" cy="189.0" r="1.0"/>
     <text stroke="none" x="202.0" y="189.0" font-size="10.0" font-family="helvetica">NT1.12</text>
    </g>
    <g>
     <circle stroke="black" stroke-width="0.5" fill="#aaffff" cx="229.0" cy="357.0" r="1.0"/>
     <text stroke="none" x="229.0" y="357.0" font-size="10.0" font-family="helvetica">NT1.13</text>
    </g>
    <g>
     <circle stroke="black" stroke-width="0.5" fill="#aaffff" cx="262.0" cy="253.0" r="1.0"/>
     <text stroke="none" x="262.0" y="253.0" font-size="10.0" font-family="helvetica">NT1.14</text>
    </g>
    <g>
     <circle stroke="black" stroke-width="0.5" fill="#aaffff" cx="267.0" cy="381.0" r="1.0"/>
     <text stroke="none" x="267.0" y="381.0" font-size="10.0" font-family="helvetica">NT1.15</text>
    </g>
    <g>
     <circle stroke="black" stroke-width="0.5" fill="#aaffff" cx="288.0" cy="31.0" r="1.0"/>
     <text stroke="none" x="288.0" y="31.0" font-size="10.0" font-family="helvetica">NT1.16</text>
    </g>
    <g>
     <circle stroke="black" stroke-width="0.5" fill="#aaffff" cx="325.0" cy="365.0" r="1.0"/>
     <text stroke="none" x="325.0" y="365.0" font-size="10.0" font-family="helvetica">NT1.17</text>
    </g>
    <g>
     <circle stroke="black" stroke-width="0.5" fill="#aaffff" cx="335.0" cy="333.0" r="1.0"/>
     <text stroke="none" x="335.0" y="333.0" font-size="20.0" font-family="helvetica">Oceanospirillum beijerinckii IFO 15445T (ABO06760)</text>
    </g>
    <g>
     <circle stroke="black" stroke-width="0.5" fill="#aaffff" cx="346.0" cy="301.0" r="1.0"/>
     <text stroke="none" x="346.0" y="301.0" font-size="20.0" font-family="helvetica">Oceanospirillum multiglobuliferum IFO 136147 (AB006764)</text>
    </g>
    <g>
     <circle stroke="black" stroke-width="0.5" fill="#aaffff" cx="349.0" cy="207.0" r="1.0"/>
     <text stroke="none" x="349.0" y="207.0" font-size="10.0" font-family="helvetica">NT1.20</text>
    </g>
    <g>
     <circle stroke="black" stroke-width="0.5" fill="#aaffff" cx="353.0" cy="398.0" r="1.0"/>
     <text stroke="none" x="353.0" y="398.0" font-size="20.0" font-family="helvetica">Oceanospirillum maris IFO 15468T (ABOO6763)</text>
    </g>
    <g>
     <circle stroke="black" stroke-width="0.5" fill="#aaffff" cx="384.0" cy="78.0" r="1.0"/>
     <text stroke="none" x="384.0" y="78.0" font-size="20.0" font-family="helvetica"> Neptuniibacter caesariensis MED92T (AY136116)</text>
    </g>
    <g>
     <circle stroke="black" stroke-width="0.5" fill="#aaffff" cx="414.0" cy="174.0" r="1.0"/>
     <text stroke="none" x="414.0" y="174.0" font-size="10.0" font-family="helvetica">NT1.23</text>
    </g>
    <g>
     <circle stroke="black" stroke-width="0.5" fill="#aaffff" cx="420.0" cy="110.0" r="1.0"/>
     <text stroke="none" x="420.0" y="110.0" font-size="20.0" font-family="helvetica"> Oceaniserpentilla haliotis DSM 195037 (AM747817)</text>
    </g>
    <g>
     <circle stroke="black" stroke-width="0.5" fill="#aaffff" cx="424.0" cy="492.0" r="1.0"/>
     <text stroke="none" x="424.0" y="492.0" font-size="10.0" font-family="helvetica">NT1.25</text>
    </g>
    <g>
     <circle stroke="black" stroke-width="0.5" fill="#aaffff" cx="427.0" cy="237.0" r="1.0"/>
     <text stroke="none" x="427.0" y="237.0" font-size="10.0" font-family="helvetica">NT1.26</text>
    </g>
    <g>
     <circle stroke="black" stroke-width="0.5" fill="#aaffff" cx="435.0" cy="524.0" r="1.0"/>
     <text stroke="none" x="435.0" y="524.0" font-size="10.0" font-family="helvetica">NT1.27</text>
    </g>
    <g>
     <circle stroke="black" stroke-width="0.5" fill="#aaffff" cx="463.0" cy="46.0" r="1.0"/>
     <text stroke="none" x="463.0" y="46.0" font-size="10.0" font-family="helvetica">NT1.28</text>
    </g>
    <g>
     <circle stroke="black" stroke-width="0.5" fill="#aaffff" cx="464.0" cy="462.0" r="1.0"/>
     <text stroke="none" x="464.0" y="462.0" font-size="20.0" font-family="helvetica">Pseudomonas pseudoalcaligenes DSM 5O188T (Z76675)</text>
    </g>
    <g>
     <circle stroke="black" stroke-width="0.5" fill="#aaffff" cx="470.0" cy="142.0" r="1.0"/>
     <text stroke="none" x="470.0" y="142.0" font-size="20.0" font-family="helvetica">Oleispira antarctica RB-8T (AJ426420)</text>
    </g>
    <g>
     <circle stroke="black" stroke-width="0.5" fill="#aaffff" cx="490.0" cy="429.0" r="1.0"/>
     <text stroke="none" x="490.0" y="429.0" font-size="20.0" font-family="helvetica">Marinospirillum megaterium JCM 10129T (ABOO6770)</text>
    </g>
    <g>
     <circle stroke="black" stroke-width="0.5" fill="#aaffff" cx="496.0" cy="14.0" r="1.0"/>
     <text stroke="none" x="496.0" y="14.0" font-size="10.0" font-family="helvetica">NT1.32</text>
    </g>
    <g>
     <circle stroke="black" stroke-width="0.5" fill="#aaffff" cx="532.0" cy="269.0" r="1.0"/>
     <text stroke="none" x="532.0" y="269.0" font-size="10.0" font-family="helvetica">NT1.33</text>
    </g>
    <g>
     <circle stroke="black" stroke-width="0.5" fill="#aaffff" cx="532.0" cy="557.0" r="1.0"/>
     <text stroke="none" x="532.0" y="557.0" font-size="10.0" font-family="helvetica">NT1.34</text>
    </g>
    <g>
     <circle stroke="black" stroke-width="0.5" fill="#aaffff" cx="1.0" cy="372.0" r="1.0"/>
     <text stroke="none" x="1.0" y="372.0" font-size="10.0" font-family="helvetica">NT1.35</text>
    </g>
    <line stroke="black" x1="384.0" y1="78.0" x2="108.0" y2="55.0" stroke-width="0.5"/>
    <line stroke="black" x1="420.0" y1="110.0" x2="165.0" y2="125.0" stroke-width="0.5"/>
    <line stroke="black" x1="470.0" y1="142.0" x2="165.0" y2="125.0" stroke-width="0.5"/>
    <line stroke="black" x1="346.0" y1="301.0" x2="173.0" y2="329.0" stroke-width="0.5"/>
    <line stroke="black" x1="335.0" y1="333.0" x2="229.0" y2="357.0" stroke-width="0.5"/>
    <line stroke="black" x1="353.0" y1="398.0" x2="267.0" y2="381.0" stroke-width="0.5"/>
    <line stroke="black" x1="464.0" y1="462.0" x2="45.0" y2="445.0" stroke-width="0.5"/>
    <line stroke="black" x1="490.0" y1="429.0" x2="45.0" y2="445.0" stroke-width="0.5"/>
    <line stroke="black" x1="61.0" y1="91.0" x2="54.0" y2="140.0" stroke-width="0.5"/>
    <line stroke="black" x1="61.0" y1="91.0" x2="165.0" y2="125.0" stroke-width="0.5"/>
    <line stroke="black" x1="14.0" y1="264.0" x2="173.0" y2="329.0" stroke-width="0.5"/>
    <line stroke="black" x1="173.0" y1="329.0" x2="229.0" y2="357.0" stroke-width="0.5"/>
    <line stroke="black" x1="16.0" y1="481.0" x2="45.0" y2="445.0" stroke-width="0.5"/>
    <line stroke="black" x1="1.0" y1="372.0" x2="14.0" y2="264.0" stroke-width="0.5"/>
   </g>
  </g>
 </svg>
</svg>
