<?xml version="1.0" encoding="UTF-8"?>
<svg height="800.0" width="700.0" xmlns="http://www.w3.org/2000/svg">
 <svg>
  <g>
   <g>
    <g>
     <circle stroke="black" stroke-width="0.5" fill="#aaffff" cx="235.0" cy="634.0" r="1.0"/>
     <text stroke="none" x="235.0" y="634.0" font-size="10.0" font-family="helvetica">NT1.1</text>
    </g>
    <g>
     <circle stroke="black" stroke-width="0.5" fill="#aaffff" cx="251.0" cy="554.0" r="1.0"/>
     <text stroke="none" x="251.0" y="554.0" font-size="20.0" font-family="helvetica">541</text>
    </g>
    <g>
     <circle stroke="black" stroke-width="0.5" fill="#aaffff" cx="270.0" cy="713.0" r="1.0"/>
     <text stroke="none" x="270.0" y="713.0" font-size="10.0" font-family="helvetica">NT1.3</text>
    </g>
    <g>
     <circle stroke="black" stroke-width="0.5" fill="#aaffff" cx="282.0" cy="625.0" r="1.0"/>
     <text stroke="none" x="282.0" y="625.0" font-size="10.0" font-family="helvetica">NT1.4</text>
    </g>
    <g>
     <circle stroke="black" stroke-width="0.5" fill="#aaffff" cx="342.0" cy="483.0" r="1.0"/>
     <text stroke="none" x="342.0" y="483.0" font-size="20.0" font-family="helvetica">991</text>
    </g>
    <g>
     <circle stroke="black" stroke-width="0.5" fill="#aaffff" cx="365.0" cy="743.0" r="1.0"/>
     <text stroke="none" x="365.0" y="743.0" font-size="10.0" font-family="helvetica">NT1.6</text>
    </g>
    <g>
     <circle stroke="black" stroke-width="0.5" fill="#aaffff" cx="397.0" cy="420.0" r="1.0"/>
     <text stroke="none" x="397.0" y="420.0" font-size="20.0" font-family="helvetica">991</text>
    </g>
    <g>
     <circle stroke="black" stroke-width="0.5" fill="#aaffff" cx="408.0" cy="645.0" r="1.0"/>
     <text stroke="none" x="408.0" y="645.0" font-size="10.0" font-family="helvetica">NT1.8</text>
    </g>
    <g>
     <circle stroke="black" stroke-width="0.5" fill="#aaffff" cx="412.0" cy="353.0" r="1.0"/>
     <text stroke="none" x="412.0" y="353.0" font-size="10.0" font-family="helvetica">NT1.9</text>
    </g>
    <g>
     <circle stroke="black" stroke-width="0.5" fill="#aaffff" cx="420.0" cy="684.0" r="1.0"/>
     <text stroke="none" x="420.0" y="684.0" font-size="20.0" font-family="helvetica"> Sporichthya polymorpha DSM 461137 (X72377)</text>
    </g>
    <g>
     <circle stroke="black" stroke-width="0.5" fill="#aaffff" cx="420.0" cy="259.0" r="1.0"/>
     <text stroke="none" x="420.0" y="259.0" font-size="10.0" font-family="helvetica">NT1.11</text>
    </g>
    <g>
     <circle stroke="black" stroke-width="0.5" fill="#aaffff" cx="423.0" cy="605.0" r="1.0"/>
     <text stroke="none" x="423.0" y="605.0" font-size="20.0" font-family="helvetica"> Acidofhermus cellulolyticus ATCC 430687 (AJOO7290)</text>
    </g>
    <g>
     <circle stroke="black" stroke-width="0.5" fill="#aaffff" cx="430.0" cy="168.0" r="1.0"/>
     <text stroke="none" x="430.0" y="168.0" font-size="10.0" font-family="helvetica">NT1.13</text>
    </g>
    <g>
     <circle stroke="black" stroke-width="0.5" fill="#aaffff" cx="434.0" cy="348.0" r="1.0"/>
     <text stroke="none" x="434.0" y="348.0" font-size="10.0" font-family="helvetica">NT1.14</text>
    </g>
    <g>
     <circle stroke="black" stroke-width="0.5" fill="#aaffff" cx="435.0" cy="107.0" r="1.0"/>
     <text stroke="none" x="435.0" y="107.0" font-size="10.0" font-family="helvetica">NT1.15</text>
    </g>
    <g>
     <circle stroke="black" stroke-width="0.5" fill="#aaffff" cx="443.0" cy="150.0" r="1.0"/>
     <text stroke="none" x="443.0" y="150.0" font-size="10.0" font-family="helvetica">NT1.16</text>
    </g>
    <g>
     <circle stroke="black" stroke-width="0.5" fill="#aaffff" cx="444.0" cy="229.0" r="1.0"/>
     <text stroke="none" x="444.0" y="229.0" font-size="10.0" font-family="helvetica">NT1.17</text>
    </g>
    <g>
     <circle stroke="black" stroke-width="0.5" fill="#aaffff" cx="446.0" cy="63.0" r="1.0"/>
     <text stroke="none" x="446.0" y="63.0" font-size="10.0" font-family="helvetica">NT1.18</text>
    </g>
    <g>
     <circle stroke="black" stroke-width="0.5" fill="#aaffff" cx="447.0" cy="310.0" r="1.0"/>
     <text stroke="none" x="447.0" y="310.0" font-size="10.0" font-family="helvetica">NT1.19</text>
    </g>
    <g>
     <circle stroke="black" stroke-width="0.5" fill="#aaffff" cx="449.0" cy="764.0" r="1.0"/>
     <text stroke="none" x="449.0" y="764.0" font-size="10.0" font-family="helvetica">NT1.20</text>
    </g>
    <g>
     <circle stroke="black" stroke-width="0.5" fill="#aaffff" cx="449.0" cy="33.0" r="1.0"/>
     <text stroke="none" x="449.0" y="33.0" font-size="10.0" font-family="helvetica">NT1.21</text>
    </g>
    <g>
     <circle stroke="black" stroke-width="0.5" fill="#aaffff" cx="470.0" cy="723.0" r="1.0"/>
     <text stroke="none" x="470.0" y="723.0" font-size="10.0" font-family="helvetica">NT1.22</text>
    </g>
    <g>
     <circle stroke="black" stroke-width="0.5" fill="#aaffff" cx="470.0" cy="388.0" r="1.0"/>
     <text stroke="none" x="470.0" y="388.0" font-size="20.0" font-family="helvetica">955</text>
    </g>
    <g>
     <circle stroke="black" stroke-width="0.5" fill="#aaffff" cx="497.0" cy="92.0" r="1.0"/>
     <text stroke="none" x="497.0" y="92.0" font-size="20.0" font-family="helvetica"> Asanoa ferruginea IMSNU 220097 (AF152108)</text>
    </g>
    <g>
     <circle stroke="black" stroke-width="0.5" fill="#aaffff" cx="511.0" cy="448.0" r="1.0"/>
     <text stroke="none" x="511.0" y="448.0" font-size="20.0" font-family="helvetica">Actinoplanes philippinensis IFO 138787 (D85474)</text>
    </g>
    <g>
     <circle stroke="black" stroke-width="0.5" fill="#aaffff" cx="519.0" cy="131.0" r="1.0"/>
     <text stroke="none" x="519.0" y="131.0" font-size="20.0" font-family="helvetica">Verrucosispora gifhornensis DSM 443377 (Y15523)</text>
    </g>
    <g>
     <circle stroke="black" stroke-width="0.5" fill="#aaffff" cx="521.0" cy="250.0" r="1.0"/>
     <text stroke="none" x="521.0" y="250.0" font-size="20.0" font-family="helvetica">Salinispora arenicola DSM 448197 (AY040619)</text>
    </g>
    <g>
     <circle stroke="black" stroke-width="0.5" fill="#aaffff" cx="523.0" cy="487.0" r="1.0"/>
     <text stroke="none" x="523.0" y="487.0" font-size="20.0" font-family="helvetica">Pilimelia terevasa IFO 159647 (D86946)</text>
    </g>
    <g>
     <circle stroke="black" stroke-width="0.5" fill="#aaffff" cx="532.0" cy="13.0" r="1.0"/>
     <text stroke="none" x="532.0" y="13.0" font-size="10.0" font-family="helvetica">NT1.29</text>
    </g>
    <g>
     <circle stroke="black" stroke-width="0.5" fill="#aaffff" cx="533.0" cy="171.0" r="1.0"/>
     <text stroke="none" x="533.0" y="171.0" font-size="10.0" font-family="helvetica">NT1.30</text>
    </g>
    <g>
     <circle stroke="black" stroke-width="0.5" fill="#aaffff" cx="537.0" cy="210.0" r="1.0"/>
     <text stroke="none" x="537.0" y="210.0" font-size="20.0" font-family="helvetica">Micromonospora chalcea IFO 121357 (D85489)</text>
    </g>
    <g>
     <circle stroke="black" stroke-width="0.5" fill="#aaffff" cx="540.0" cy="53.0" r="1.0"/>
     <text stroke="none" x="540.0" y="53.0" font-size="10.0" font-family="helvetica">NT1.32</text>
    </g>
    <g>
     <circle stroke="black" stroke-width="0.5" fill="#aaffff" cx="544.0" cy="408.0" r="1.0"/>
     <text stroke="none" x="544.0" y="408.0" font-size="20.0" font-family="helvetica">Dactylosporangium auranticum IFO 125927 (D85480)</text>
    </g>
    <g>
     <circle stroke="black" stroke-width="0.5" fill="#aaffff" cx="544.0" cy="368.0" r="1.0"/>
     <text stroke="none" x="544.0" y="368.0" font-size="20.0" font-family="helvetica">Virgisporangium ochraceum YU655-437 (ABO06167)</text>
    </g>
    <g>
     <circle stroke="black" stroke-width="0.5" fill="#aaffff" cx="576.0" cy="545.0" r="1.0"/>
     <text stroke="none" x="576.0" y="545.0" font-size="10.0" font-family="helvetica">NT1.35</text>
    </g>
    <g>
     <circle stroke="black" stroke-width="0.5" fill="#aaffff" cx="577.0" cy="526.0" r="1.0"/>
     <text stroke="none" x="577.0" y="526.0" font-size="20.0" font-family="helvetica">Actinocatenispora thailandica TT2-107 (AB107233)</text>
    </g>
    <g>
     <circle stroke="black" stroke-width="0.5" fill="#aaffff" cx="581.0" cy="566.0" r="1.0"/>
     <text stroke="none" x="581.0" y="566.0" font-size="20.0" font-family="helvetica">Actinocatenispora thailandica TT2-3 (AB159211)</text>
    </g>
    <g>
     <circle stroke="black" stroke-width="0.5" fill="#aaffff" cx="582.0" cy="289.0" r="1.0"/>
     <text stroke="none" x="582.0" y="289.0" font-size="10.0" font-family="helvetica">NT1.38</text>
    </g>
    <g>
     <circle stroke="black" stroke-width="0.5" fill="#aaffff" cx="662.0" cy="329.0" r="1.0"/>
     <text stroke="none" x="662.0" y="329.0" font-size="10.0" font-family="helvetica">NT1.39</text>
    </g>
    <g>
     <circle stroke="black" stroke-width="0.5" fill="#aaffff" cx="662.0" cy="803.0" r="1.0"/>
     <text stroke="none" x="662.0" y="803.0" font-size="10.0" font-family="helvetica">NT1.40</text>
    </g>
    <g>
     <circle stroke="black" stroke-width="0.5" fill="#aaffff" cx="3.0" cy="718.0" r="1.0"/>
     <text stroke="none" x="3.0" y="718.0" font-size="10.0" font-family="helvetica">NT1.41</text>
    </g>
    <line stroke="black" x1="497.0" y1="92.0" x2="446.0" y2="63.0" stroke-width="0.5"/>
    <line stroke="black" x1="519.0" y1="131.0" x2="443.0" y2="150.0" stroke-width="0.5"/>
    <line stroke="black" x1="521.0" y1="250.0" x2="444.0" y2="229.0" stroke-width="0.5"/>
    <line stroke="black" x1="537.0" y1="210.0" x2="444.0" y2="229.0" stroke-width="0.5"/>
    <line stroke="black" x1="544.0" y1="408.0" x2="470.0" y2="388.0" stroke-width="0.5"/>
    <line stroke="black" x1="544.0" y1="368.0" x2="470.0" y2="388.0" stroke-width="0.5"/>
    <line stroke="black" x1="511.0" y1="448.0" x2="412.0" y2="353.0" stroke-width="0.5"/>
    <line stroke="black" x1="523.0" y1="487.0" x2="397.0" y2="420.0" stroke-width="0.5"/>
    <line stroke="black" x1="577.0" y1="526.0" x2="576.0" y2="545.0" stroke-width="0.5"/>
    <line stroke="black" x1="581.0" y1="566.0" x2="576.0" y2="545.0" stroke-width="0.5"/>
    <line stroke="black" x1="423.0" y1="605.0" x2="282.0" y2="625.0" stroke-width="0.5"/>
    <line stroke="black" x1="420.0" y1="684.0" x2="270.0" y2="713.0" stroke-width="0.5"/>
    <line stroke="black" x1="435.0" y1="107.0" x2="430.0" y2="168.0" stroke-width="0.5"/>
    <line stroke="black" x1="430.0" y1="168.0" x2="420.0" y2="259.0" stroke-width="0.5"/>
    <line stroke="black" x1="430.0" y1="168.0" x2="444.0" y2="229.0" stroke-width="0.5"/>
    <line stroke="black" x1="420.0" y1="259.0" x2="412.0" y2="353.0" stroke-width="0.5"/>
    <line stroke="black" x1="412.0" y1="353.0" x2="397.0" y2="420.0" stroke-width="0.5"/>
    <line stroke="black" x1="397.0" y1="420.0" x2="342.0" y2="483.0" stroke-width="0.5"/>
    <line stroke="black" x1="342.0" y1="483.0" x2="251.0" y2="554.0" stroke-width="0.5"/>
    <line stroke="black" x1="342.0" y1="483.0" x2="576.0" y2="545.0" stroke-width="0.5"/>
    <line stroke="black" x1="251.0" y1="554.0" x2="235.0" y2="634.0" stroke-width="0.5"/>
    <line stroke="black" x1="3.0" y1="718.0" x2="235.0" y2="634.0" stroke-width="0.5"/>
    <line stroke="black" x1="434.0" y1="348.0" x2="470.0" y2="388.0" stroke-width="0.5"/>
   </g>
  </g>
 </svg>
</svg>
