<?xml version="1.0" encoding="UTF-8"?>
<svg height="800.0" width="700.0" xmlns="http://www.w3.org/2000/svg">
 <svg>
  <g>
   <g>
    <g>
     <circle stroke="black" stroke-width="0.5" fill="#aaffff" cx="253.0" cy="719.0" r="1.0"/>
     <text stroke="none" x="253.0" y="719.0" font-size="10.0" font-family="helvetica">NT1.1</text>
    </g>
    <g>
     <circle stroke="black" stroke-width="0.5" fill="#aaffff" cx="272.0" cy="496.0" r="1.0"/>
     <text stroke="none" x="272.0" y="496.0" font-size="10.0" font-family="helvetica">NT1.2</text>
    </g>
    <g>
     <circle stroke="black" stroke-width="0.5" fill="#aaffff" cx="285.0" cy="321.0" r="1.0"/>
     <text stroke="none" x="285.0" y="321.0" font-size="10.0" font-family="helvetica">NT1.3</text>
    </g>
    <g>
     <circle stroke="black" stroke-width="0.5" fill="#aaffff" cx="298.0" cy="669.0" r="1.0"/>
     <text stroke="none" x="298.0" y="669.0" font-size="10.0" font-family="helvetica">NT1.4</text>
    </g>
    <g>
     <circle stroke="black" stroke-width="0.5" fill="#aaffff" cx="322.0" cy="724.0" r="1.0"/>
     <text stroke="none" x="322.0" y="724.0" font-size="10.0" font-family="helvetica">NT1.5</text>
    </g>
    <g>
     <circle stroke="black" stroke-width="0.5" fill="#aaffff" cx="337.0" cy="384.0" r="1.0"/>
     <text stroke="none" x="337.0" y="384.0" font-size="10.0" font-family="helvetica">NT1.6</text>
    </g>
    <g>
     <circle stroke="black" stroke-width="0.5" fill="#aaffff" cx="350.0" cy="759.0" r="1.0"/>
     <text stroke="none" x="350.0" y="759.0" font-size="10.0" font-family="helvetica">NT1.7</text>
    </g>
    <g>
     <circle stroke="black" stroke-width="0.5" fill="#aaffff" cx="358.0" cy="256.0" r="1.0"/>
     <text stroke="none" x="358.0" y="256.0" font-size="20.0" font-family="helvetica">100</text>
    </g>
    <g>
     <circle stroke="black" stroke-width="0.5" fill="#aaffff" cx="359.0" cy="617.0" r="1.0"/>
     <text stroke="none" x="359.0" y="617.0" font-size="10.0" font-family="helvetica">NT1.9</text>
    </g>
    <g>
     <circle stroke="black" stroke-width="0.5" fill="#aaffff" cx="380.0" cy="196.0" r="1.0"/>
     <text stroke="none" x="380.0" y="196.0" font-size="10.0" font-family="helvetica">NT1.10</text>
    </g>
    <g>
     <circle stroke="black" stroke-width="0.5" fill="#aaffff" cx="397.0" cy="794.0" r="1.0"/>
     <text stroke="none" x="397.0" y="794.0" font-size="10.0" font-family="helvetica">NT1.11</text>
    </g>
    <g>
     <circle stroke="black" stroke-width="0.5" fill="#aaffff" cx="400.0" cy="206.0" r="1.0"/>
     <text stroke="none" x="400.0" y="206.0" font-size="20.0" font-family="helvetica"/>
    </g>
    <g>
     <circle stroke="black" stroke-width="0.5" fill="#aaffff" cx="401.0" cy="259.0" r="1.0"/>
     <text stroke="none" x="401.0" y="259.0" font-size="10.0" font-family="helvetica">NT1.13</text>
    </g>
    <g>
     <circle stroke="black" stroke-width="0.5" fill="#aaffff" cx="403.0" cy="187.0" r="1.0"/>
     <text stroke="none" x="403.0" y="187.0" font-size="10.0" font-family="helvetica">NT1.14</text>
    </g>
    <g>
     <circle stroke="black" stroke-width="0.5" fill="#aaffff" cx="405.0" cy="75.0" r="1.0"/>
     <text stroke="none" x="405.0" y="75.0" font-size="10.0" font-family="helvetica">NT1.15</text>
    </g>
    <g>
     <circle stroke="black" stroke-width="0.5" fill="#aaffff" cx="420.0" cy="582.0" r="1.0"/>
     <text stroke="none" x="420.0" y="582.0" font-size="10.0" font-family="helvetica">NT1.16</text>
    </g>
    <g>
     <circle stroke="black" stroke-width="0.5" fill="#aaffff" cx="426.0" cy="939.0" r="1.0"/>
     <text stroke="none" x="426.0" y="939.0" font-size="10.0" font-family="helvetica">NT1.17</text>
    </g>
    <g>
     <circle stroke="black" stroke-width="0.5" fill="#aaffff" cx="431.0" cy="109.0" r="1.0"/>
     <text stroke="none" x="431.0" y="109.0" font-size="10.0" font-family="helvetica">NT1.18</text>
    </g>
    <g>
     <circle stroke="black" stroke-width="0.5" fill="#aaffff" cx="437.0" cy="37.0" r="1.0"/>
     <text stroke="none" x="437.0" y="37.0" font-size="10.0" font-family="helvetica">NT1.19</text>
    </g>
    <g>
     <circle stroke="black" stroke-width="0.5" fill="#aaffff" cx="454.0" cy="827.0" r="1.0"/>
     <text stroke="none" x="454.0" y="827.0" font-size="10.0" font-family="helvetica">NT1.20</text>
    </g>
    <g>
     <circle stroke="black" stroke-width="0.5" fill="#aaffff" cx="454.0" cy="967.0" r="1.0"/>
     <text stroke="none" x="454.0" y="967.0" font-size="20.0" font-family="helvetica">100</text>
    </g>
    <g>
     <circle stroke="black" stroke-width="0.5" fill="#aaffff" cx="455.0" cy="948.0" r="1.0"/>
     <text stroke="none" x="455.0" y="948.0" font-size="20.0" font-family="helvetica">Sphingosinicella xenopeptidilytica 3-2W47 (AY950663)</text>
    </g>
    <g>
     <circle stroke="black" stroke-width="0.5" fill="#aaffff" cx="459.0" cy="986.0" r="1.0"/>
     <text stroke="none" x="459.0" y="986.0" font-size="20.0" font-family="helvetica">Sphingosinicella microcystinivorans Y27 (AB084247)</text>
    </g>
    <g>
     <circle stroke="black" stroke-width="0.5" fill="#aaffff" cx="460.0" cy="279.0" r="1.0"/>
     <text stroke="none" x="460.0" y="279.0" font-size="20.0" font-family="helvetica">Sphingopyxis ginsengisoli Gsoil 2507 (AB245343)</text>
    </g>
    <g>
     <circle stroke="black" stroke-width="0.5" fill="#aaffff" cx="467.0" cy="166.0" r="1.0"/>
     <text stroke="none" x="467.0" y="166.0" font-size="20.0" font-family="helvetica">Sphingopyxis macrogoltabida IFO 150337 (D13723)</text>
    </g>
    <g>
     <circle stroke="black" stroke-width="0.5" fill="#aaffff" cx="468.0" cy="912.0" r="1.0"/>
     <text stroke="none" x="468.0" y="912.0" font-size="20.0" font-family="helvetica">Sphingosinicella soli KSL-1257 (DQ087403)</text>
    </g>
    <g>
     <circle stroke="black" stroke-width="0.5" fill="#aaffff" cx="475.0" cy="92.0" r="1.0"/>
     <text stroke="none" x="475.0" y="92.0" font-size="20.0" font-family="helvetica">Sphingopyxis chilensis S377 (AF367204)</text>
    </g>
    <g>
     <circle stroke="black" stroke-width="0.5" fill="#aaffff" cx="479.0" cy="241.0" r="1.0"/>
     <text stroke="none" x="479.0" y="241.0" font-size="20.0" font-family="helvetica">Sphingopyxis granulf Kw07 (AY563034)</text>
    </g>
    <g>
     <circle stroke="black" stroke-width="0.5" fill="#aaffff" cx="480.0" cy="204.0" r="1.0"/>
     <text stroke="none" x="480.0" y="204.0" font-size="20.0" font-family="helvetica">Sphingopyxis alaskensis RB22567 (Z73631)</text>
    </g>
    <g>
     <circle stroke="black" stroke-width="0.5" fill="#aaffff" cx="481.0" cy="129.0" r="1.0"/>
     <text stroke="none" x="481.0" y="129.0" font-size="20.0" font-family="helvetica">Sphingopyxis taejonensis JSS 547 (AF131 297)</text>
    </g>
    <g>
     <circle stroke="black" stroke-width="0.5" fill="#aaffff" cx="483.0" cy="651.0" r="1.0"/>
     <text stroke="none" x="483.0" y="651.0" font-size="20.0" font-family="helvetica">Novosphingobium subarcticum KF17 (X94102)</text>
    </g>
    <g>
     <circle stroke="black" stroke-width="0.5" fill="#aaffff" cx="483.0" cy="550.0" r="1.0"/>
     <text stroke="none" x="483.0" y="550.0" font-size="10.0" font-family="helvetica">NT1.32</text>
    </g>
    <g>
     <circle stroke="black" stroke-width="0.5" fill="#aaffff" cx="485.0" cy="55.0" r="1.0"/>
     <text stroke="none" x="485.0" y="55.0" font-size="20.0" font-family="helvetica">Sphingopyxis Witflariensis W-507 (AJ41 6410)</text>
    </g>
    <g>
     <circle stroke="black" stroke-width="0.5" fill="#aaffff" cx="508.0" cy="688.0" r="1.0"/>
     <text stroke="none" x="508.0" y="688.0" font-size="20.0" font-family="helvetica">Sphingomonas natatoria DSM 31837 (ABO24288)</text>
    </g>
    <g>
     <circle stroke="black" stroke-width="0.5" fill="#aaffff" cx="508.0" cy="855.0" r="1.0"/>
     <text stroke="none" x="508.0" y="855.0" font-size="20.0" font-family="helvetica">94</text>
    </g>
    <g>
     <circle stroke="black" stroke-width="0.5" fill="#aaffff" cx="512.0" cy="417.0" r="1.0"/>
     <text stroke="none" x="512.0" y="417.0" font-size="10.0" font-family="helvetica">NT1.36</text>
    </g>
    <g>
     <circle stroke="black" stroke-width="0.5" fill="#aaffff" cx="513.0" cy="17.0" r="1.0"/>
     <text stroke="none" x="513.0" y="17.0" font-size="20.0" font-family="helvetica">Sphingopyxis bauzanensis B2307 (GQ131578)</text>
    </g>
    <g>
     <circle stroke="black" stroke-width="0.5" fill="#aaffff" cx="516.0" cy="726.0" r="1.0"/>
     <text stroke="none" x="516.0" y="726.0" font-size="20.0" font-family="helvetica">Sphingomonas suberifaciens IFO 1521 17 (D1 373 7)</text>
    </g>
    <g>
     <circle stroke="black" stroke-width="0.5" fill="#aaffff" cx="527.0" cy="614.0" r="1.0"/>
     <text stroke="none" x="527.0" y="614.0" font-size="20.0" font-family="helvetica">Novosphingobium stygium IFO1 60857 (ABO25013)</text>
    </g>
    <g>
     <circle stroke="black" stroke-width="0.5" fill="#aaffff" cx="529.0" cy="522.0" r="1.0"/>
     <text stroke="none" x="529.0" y="522.0" font-size="10.0" font-family="helvetica">NT1.40</text>
    </g>
    <g>
     <circle stroke="black" stroke-width="0.5" fill="#aaffff" cx="540.0" cy="763.0" r="1.0"/>
     <text stroke="none" x="540.0" y="763.0" font-size="20.0" font-family="helvetica">Sphingobium xenophagum BN67 (X94098)</text>
    </g>
    <g>
     <circle stroke="black" stroke-width="0.5" fill="#aaffff" cx="551.0" cy="445.0" r="1.0"/>
     <text stroke="none" x="551.0" y="445.0" font-size="10.0" font-family="helvetica">NT1.42</text>
    </g>
    <g>
     <circle stroke="black" stroke-width="0.5" fill="#aaffff" cx="560.0" cy="353.0" r="1.0"/>
     <text stroke="none" x="560.0" y="353.0" font-size="20.0" font-family="helvetica">Sphingopyxis baekryungensis SW-1507 (AY608604)</text>
    </g>
    <g>
     <circle stroke="black" stroke-width="0.5" fill="#aaffff" cx="561.0" cy="539.0" r="1.0"/>
     <text stroke="none" x="561.0" y="539.0" font-size="20.0" font-family="helvetica">Novosphingobium aromaticivorans IFO 1 60847 (AB02501 2)</text>
    </g>
    <g>
     <circle stroke="black" stroke-width="0.5" fill="#aaffff" cx="566.0" cy="316.0" r="1.0"/>
     <text stroke="none" x="566.0" y="316.0" font-size="20.0" font-family="helvetica">Sphingopyxis terrae IFO 150987 (D13727)</text>
    </g>
    <g>
     <circle stroke="black" stroke-width="0.5" fill="#aaffff" cx="567.0" cy="390.0" r="1.0"/>
     <text stroke="none" x="567.0" y="390.0" font-size="20.0" font-family="helvetica">Sphingopyxis flavimaris SW-1517 (AY554010)</text>
    </g>
    <g>
     <circle stroke="black" stroke-width="0.5" fill="#aaffff" cx="573.0" cy="502.0" r="1.0"/>
     <text stroke="none" x="573.0" y="502.0" font-size="20.0" font-family="helvetica">Novosphingobium subterraneum SMCC B04787 (U20773)</text>
    </g>
    <g>
     <circle stroke="black" stroke-width="0.5" fill="#aaffff" cx="580.0" cy="800.0" r="1.0"/>
     <text stroke="none" x="580.0" y="800.0" font-size="20.0" font-family="helvetica">Sphingobium yanoikuyae IFO 151027 (D13728)</text>
    </g>
    <g>
     <circle stroke="black" stroke-width="0.5" fill="#aaffff" cx="582.0" cy="427.0" r="1.0"/>
     <text stroke="none" x="582.0" y="427.0" font-size="20.0" font-family="helvetica">Sphingopyxis marina FR1O877 (DQ781320)</text>
    </g>
    <g>
     <circle stroke="black" stroke-width="0.5" fill="#aaffff" cx="584.0" cy="577.0" r="1.0"/>
     <text stroke="none" x="584.0" y="577.0" font-size="20.0" font-family="helvetica">Novosphingobium capsulatum GIFU 1 15267 (D161 47)</text>
    </g>
    <g>
     <circle stroke="black" stroke-width="0.5" fill="#aaffff" cx="587.0" cy="837.0" r="1.0"/>
     <text stroke="none" x="587.0" y="837.0" font-size="20.0" font-family="helvetica">Sphingobium herbicidovorans IFO 164157 (ABO42233)</text>
    </g>
    <g>
     <circle stroke="black" stroke-width="0.5" fill="#aaffff" cx="611.0" cy="875.0" r="1.0"/>
     <text stroke="none" x="611.0" y="875.0" font-size="20.0" font-family="helvetica">Sphingobium chlorophenolicum ATCC 337907 (X871 81)</text>
    </g>
    <g>
     <circle stroke="black" stroke-width="0.5" fill="#aaffff" cx="625.0" cy="1024.0" r="1.0"/>
     <text stroke="none" x="625.0" y="1024.0" font-size="20.0" font-family="helvetica">Rhodospirillum rubrum ATCC 1 1 1 707 (D30778)</text>
    </g>
    <g>
     <circle stroke="black" stroke-width="0.5" fill="#aaffff" cx="626.0" cy="465.0" r="1.0"/>
     <text stroke="none" x="626.0" y="465.0" font-size="20.0" font-family="helvetica">Sphingopyxis litoris FR1 0937 (DQ781321)</text>
    </g>
    <line stroke="black" x1="400.0" y1="206.0" x2="403.0" y2="187.0" stroke-width="0.5"/>
    <line stroke="black" x1="508.0" y1="688.0" x2="322.0" y2="724.0" stroke-width="0.5"/>
    <line stroke="black" x1="468.0" y1="912.0" x2="426.0" y2="939.0" stroke-width="0.5"/>
    <line stroke="black" x1="437.0" y1="37.0" x2="405.0" y2="75.0" stroke-width="0.5"/>
    <line stroke="black" x1="405.0" y1="75.0" x2="403.0" y2="187.0" stroke-width="0.5"/>
    <line stroke="black" x1="405.0" y1="75.0" x2="431.0" y2="109.0" stroke-width="0.5"/>
    <line stroke="black" x1="403.0" y1="187.0" x2="380.0" y2="196.0" stroke-width="0.5"/>
    <line stroke="black" x1="380.0" y1="196.0" x2="358.0" y2="256.0" stroke-width="0.5"/>
    <line stroke="black" x1="380.0" y1="196.0" x2="401.0" y2="259.0" stroke-width="0.5"/>
    <line stroke="black" x1="358.0" y1="256.0" x2="285.0" y2="321.0" stroke-width="0.5"/>
    <line stroke="black" x1="285.0" y1="321.0" x2="272.0" y2="496.0" stroke-width="0.5"/>
    <line stroke="black" x1="285.0" y1="321.0" x2="337.0" y2="384.0" stroke-width="0.5"/>
    <line stroke="black" x1="337.0" y1="384.0" x2="512.0" y2="417.0" stroke-width="0.5"/>
    <line stroke="black" x1="272.0" y1="496.0" x2="253.0" y2="719.0" stroke-width="0.5"/>
    <line stroke="black" x1="272.0" y1="496.0" x2="298.0" y2="669.0" stroke-width="0.5"/>
    <line stroke="black" x1="512.0" y1="417.0" x2="551.0" y2="445.0" stroke-width="0.5"/>
    <line stroke="black" x1="298.0" y1="669.0" x2="322.0" y2="724.0" stroke-width="0.5"/>
    <line stroke="black" x1="298.0" y1="669.0" x2="359.0" y2="617.0" stroke-width="0.5"/>
    <line stroke="black" x1="253.0" y1="719.0" x2="426.0" y2="939.0" stroke-width="0.5"/>
    <line stroke="black" x1="322.0" y1="724.0" x2="350.0" y2="759.0" stroke-width="0.5"/>
    <line stroke="black" x1="359.0" y1="617.0" x2="420.0" y2="582.0" stroke-width="0.5"/>
    <line stroke="black" x1="350.0" y1="759.0" x2="397.0" y2="794.0" stroke-width="0.5"/>
    <line stroke="black" x1="420.0" y1="582.0" x2="483.0" y2="550.0" stroke-width="0.5"/>
    <line stroke="black" x1="397.0" y1="794.0" x2="454.0" y2="827.0" stroke-width="0.5"/>
    <line stroke="black" x1="454.0" y1="827.0" x2="508.0" y2="855.0" stroke-width="0.5"/>
    <line stroke="black" x1="483.0" y1="550.0" x2="529.0" y2="522.0" stroke-width="0.5"/>
    <line stroke="black" x1="426.0" y1="939.0" x2="454.0" y2="967.0" stroke-width="0.5"/>
    <line stroke="black" x1="625.0" y1="1024.0" x2="253.0" y2="719.0" stroke-width="0.5"/>
    <line stroke="black" x1="403.0" y1="187.0" x2="403.0" y2="187.0" stroke-width="0.5"/>
    <line stroke="black" x1="483.0" y1="651.0" x2="359.0" y2="617.0" stroke-width="0.5"/>
    <line stroke="black" x1="516.0" y1="726.0" x2="350.0" y2="759.0" stroke-width="0.5"/>
    <line stroke="black" x1="560.0" y1="353.0" x2="337.0" y2="384.0" stroke-width="0.5"/>
    <line stroke="black" x1="460.0" y1="279.0" x2="401.0" y2="259.0" stroke-width="0.5"/>
    <line stroke="black" x1="479.0" y1="241.0" x2="401.0" y2="259.0" stroke-width="0.5"/>
    <line stroke="black" x1="566.0" y1="316.0" x2="358.0" y2="256.0" stroke-width="0.5"/>
    <line stroke="black" x1="467.0" y1="166.0" x2="403.0" y2="187.0" stroke-width="0.5"/>
    <line stroke="black" x1="480.0" y1="204.0" x2="403.0" y2="187.0" stroke-width="0.5"/>
    <line stroke="black" x1="540.0" y1="763.0" x2="397.0" y2="794.0" stroke-width="0.5"/>
    <line stroke="black" x1="475.0" y1="92.0" x2="431.0" y2="109.0" stroke-width="0.5"/>
    <line stroke="black" x1="481.0" y1="129.0" x2="431.0" y2="109.0" stroke-width="0.5"/>
    <line stroke="black" x1="485.0" y1="55.0" x2="437.0" y2="37.0" stroke-width="0.5"/>
    <line stroke="black" x1="527.0" y1="614.0" x2="420.0" y2="582.0" stroke-width="0.5"/>
    <line stroke="black" x1="455.0" y1="948.0" x2="454.0" y2="967.0" stroke-width="0.5"/>
    <line stroke="black" x1="459.0" y1="986.0" x2="454.0" y2="967.0" stroke-width="0.5"/>
    <line stroke="black" x1="513.0" y1="17.0" x2="437.0" y2="37.0" stroke-width="0.5"/>
    <line stroke="black" x1="580.0" y1="800.0" x2="454.0" y2="827.0" stroke-width="0.5"/>
    <line stroke="black" x1="584.0" y1="577.0" x2="483.0" y2="550.0" stroke-width="0.5"/>
    <line stroke="black" x1="567.0" y1="390.0" x2="512.0" y2="417.0" stroke-width="0.5"/>
    <line stroke="black" x1="587.0" y1="837.0" x2="508.0" y2="855.0" stroke-width="0.5"/>
    <line stroke="black" x1="561.0" y1="539.0" x2="529.0" y2="522.0" stroke-width="0.5"/>
    <line stroke="black" x1="611.0" y1="875.0" x2="508.0" y2="855.0" stroke-width="0.5"/>
    <line stroke="black" x1="573.0" y1="502.0" x2="529.0" y2="522.0" stroke-width="0.5"/>
    <line stroke="black" x1="582.0" y1="427.0" x2="551.0" y2="445.0" stroke-width="0.5"/>
    <line stroke="black" x1="626.0" y1="465.0" x2="551.0" y2="445.0" stroke-width="0.5"/>
   </g>
  </g>
 </svg>
</svg>
