<?xml version="1.0" encoding="UTF-8"?>
<svg height="800.0" width="700.0" xmlns="http://www.w3.org/2000/svg">
 <svg>
  <g>
   <g>
    <g>
     <circle stroke="black" stroke-width="0.5" fill="#aaffff" cx="110.0" cy="191.0" r="1.0"/>
     <text stroke="none" x="110.0" y="191.0" font-size="20.0" font-family="helvetica">68</text>
    </g>
    <g>
     <circle stroke="black" stroke-width="0.5" fill="#aaffff" cx="221.0" cy="384.0" r="1.0"/>
     <text stroke="none" x="221.0" y="384.0" font-size="20.0" font-family="helvetica"/>
    </g>
    <g>
     <circle stroke="black" stroke-width="0.5" fill="#aaffff" cx="222.0" cy="264.0" r="1.0"/>
     <text stroke="none" x="222.0" y="264.0" font-size="10.0" font-family="helvetica">NT1.3</text>
    </g>
    <g>
     <circle stroke="black" stroke-width="0.5" fill="#aaffff" cx="236.0" cy="863.0" r="1.0"/>
     <text stroke="none" x="236.0" y="863.0" font-size="10.0" font-family="helvetica">NT1.4</text>
    </g>
    <g>
     <circle stroke="black" stroke-width="0.5" fill="#aaffff" cx="244.0" cy="602.0" r="1.0"/>
     <text stroke="none" x="244.0" y="602.0" font-size="10.0" font-family="helvetica">NT1.5</text>
    </g>
    <g>
     <circle stroke="black" stroke-width="0.5" fill="#aaffff" cx="270.0" cy="383.0" r="1.0"/>
     <text stroke="none" x="270.0" y="383.0" font-size="20.0" font-family="helvetica">78</text>
    </g>
    <g>
     <circle stroke="black" stroke-width="0.5" fill="#aaffff" cx="352.0" cy="243.0" r="1.0"/>
     <text stroke="none" x="352.0" y="243.0" font-size="10.0" font-family="helvetica">NT1.7</text>
    </g>
    <g>
     <circle stroke="black" stroke-width="0.5" fill="#aaffff" cx="362.0" cy="1094.0" r="1.0"/>
     <text stroke="none" x="362.0" y="1094.0" font-size="10.0" font-family="helvetica">NT1.8</text>
    </g>
    <g>
     <circle stroke="black" stroke-width="0.5" fill="#aaffff" cx="388.0" cy="1434.0" r="1.0"/>
     <text stroke="none" x="388.0" y="1434.0" font-size="10.0" font-family="helvetica">NT1.9</text>
    </g>
    <g>
     <circle stroke="black" stroke-width="0.5" fill="#aaffff" cx="399.0" cy="2024.0" r="1.0"/>
     <text stroke="none" x="399.0" y="2024.0" font-size="20.0" font-family="helvetica"/>
    </g>
    <g>
     <circle stroke="black" stroke-width="0.5" fill="#aaffff" cx="410.0" cy="837.0" r="1.0"/>
     <text stroke="none" x="410.0" y="837.0" font-size="20.0" font-family="helvetica"/>
    </g>
    <g>
     <circle stroke="black" stroke-width="0.5" fill="#aaffff" cx="410.0" cy="1381.0" r="1.0"/>
     <text stroke="none" x="410.0" y="1381.0" font-size="20.0" font-family="helvetica"/>
    </g>
    <g>
     <circle stroke="black" stroke-width="0.5" fill="#aaffff" cx="412.0" cy="1288.0" r="1.0"/>
     <text stroke="none" x="412.0" y="1288.0" font-size="10.0" font-family="helvetica">NT1.13</text>
    </g>
    <g>
     <circle stroke="black" stroke-width="0.5" fill="#aaffff" cx="423.0" cy="1035.0" r="1.0"/>
     <text stroke="none" x="423.0" y="1035.0" font-size="20.0" font-family="helvetica"/>
    </g>
    <g>
     <circle stroke="black" stroke-width="0.5" fill="#aaffff" cx="424.0" cy="2017.0" r="1.0"/>
     <text stroke="none" x="424.0" y="2017.0" font-size="10.0" font-family="helvetica">NT1.15</text>
    </g>
    <g>
     <circle stroke="black" stroke-width="0.5" fill="#aaffff" cx="425.0" cy="954.0" r="1.0"/>
     <text stroke="none" x="425.0" y="954.0" font-size="20.0" font-family="helvetica">Pseudoalteromonas issachenkonii KMM 35497 (AF316144)</text>
    </g>
    <g>
     <circle stroke="black" stroke-width="0.5" fill="#aaffff" cx="425.0" cy="1981.0" r="1.0"/>
     <text stroke="none" x="425.0" y="1981.0" font-size="20.0" font-family="helvetica">Pseudoalteromonas atlantica IAM 129277 (X82134)</text>
    </g>
    <g>
     <circle stroke="black" stroke-width="0.5" fill="#aaffff" cx="425.0" cy="1194.0" r="1.0"/>
     <text stroke="none" x="425.0" y="1194.0" font-size="20.0" font-family="helvetica">Pseudoalteromonas carrageenovora IAM 126627 (X82136)</text>
    </g>
    <g>
     <circle stroke="black" stroke-width="0.5" fill="#aaffff" cx="425.0" cy="1034.0" r="1.0"/>
     <text stroke="none" x="425.0" y="1034.0" font-size="10.0" font-family="helvetica">NT1.19</text>
    </g>
    <g>
     <circle stroke="black" stroke-width="0.5" fill="#aaffff" cx="438.0" cy="323.0" r="1.0"/>
     <text stroke="none" x="438.0" y="323.0" font-size="20.0" font-family="helvetica">Pseudoalteromonas rubra ATCC 295707 (X82147)</text>
    </g>
    <g>
     <circle stroke="black" stroke-width="0.5" fill="#aaffff" cx="449.0" cy="1347.0" r="1.0"/>
     <text stroke="none" x="449.0" y="1347.0" font-size="10.0" font-family="helvetica">NT1.21</text>
    </g>
    <g>
     <circle stroke="black" stroke-width="0.5" fill="#aaffff" cx="470.0" cy="441.0" r="1.0"/>
     <text stroke="none" x="470.0" y="441.0" font-size="10.0" font-family="helvetica">NT1.22</text>
    </g>
    <g>
     <circle stroke="black" stroke-width="0.5" fill="#aaffff" cx="477.0" cy="2062.0" r="1.0"/>
     <text stroke="none" x="477.0" y="2062.0" font-size="20.0" font-family="helvetica">Pseudoalteromonas agarivorans KMM 2557 (AJ417594)</text>
    </g>
    <g>
     <circle stroke="black" stroke-width="0.5" fill="#aaffff" cx="477.0" cy="1596.0" r="1.0"/>
     <text stroke="none" x="477.0" y="1596.0" font-size="10.0" font-family="helvetica">NT1.24</text>
    </g>
    <g>
     <circle stroke="black" stroke-width="0.5" fill="#aaffff" cx="489.0" cy="1035.0" r="1.0"/>
     <text stroke="none" x="489.0" y="1035.0" font-size="20.0" font-family="helvetica">Pseudoalteromonas tetraodonis IAM 141607 (X82139)</text>
    </g>
    <g>
     <circle stroke="black" stroke-width="0.5" fill="#aaffff" cx="502.0" cy="87.0" r="1.0"/>
     <text stroke="none" x="502.0" y="87.0" font-size="20.0" font-family="helvetica">Pseudoalteromonas byunsanensis JCM 124837 (DQ01 1289)</text>
    </g>
    <g>
     <circle stroke="black" stroke-width="0.5" fill="#aaffff" cx="520.0" cy="836.0" r="1.0"/>
     <text stroke="none" x="520.0" y="836.0" font-size="20.0" font-family="helvetica">100</text>
    </g>
    <g>
     <circle stroke="black" stroke-width="0.5" fill="#aaffff" cx="527.0" cy="1271.0" r="1.0"/>
     <text stroke="none" x="527.0" y="1271.0" font-size="20.0" font-family="helvetica">strain A 37-1-27 (DQ787199)</text>
    </g>
    <g>
     <circle stroke="black" stroke-width="0.5" fill="#aaffff" cx="540.0" cy="562.0" r="1.0"/>
     <text stroke="none" x="540.0" y="562.0" font-size="20.0" font-family="helvetica">Pseudoalteromonas aurantia ATCC 330467 (X82135)</text>
    </g>
    <g>
     <circle stroke="black" stroke-width="0.5" fill="#aaffff" cx="541.0" cy="639.0" r="1.0"/>
     <text stroke="none" x="541.0" y="639.0" font-size="20.0" font-family="helvetica">Pseudoalteromonas citrea NCIMB 18897 (X82137)</text>
    </g>
    <g>
     <circle stroke="black" stroke-width="0.5" fill="#aaffff" cx="541.0" cy="1587.0" r="1.0"/>
     <text stroke="none" x="541.0" y="1587.0" font-size="20.0" font-family="helvetica">Pseudoalteromonas haloplanktis ATCC 143937 (X67024)</text>
    </g>
    <g>
     <circle stroke="black" stroke-width="0.5" fill="#aaffff" cx="554.0" cy="1666.0" r="1.0"/>
     <text stroke="none" x="554.0" y="1666.0" font-size="20.0" font-family="helvetica">Pseudoalteromonas undina NCIMB 21287 (X82140)</text>
    </g>
    <g>
     <circle stroke="black" stroke-width="0.5" fill="#aaffff" cx="566.0" cy="167.0" r="1.0"/>
     <text stroke="none" x="566.0" y="167.0" font-size="20.0" font-family="helvetica">Pseudoalteromonas Iuteoviolacea NCIMB 18937</text>
    </g>
    <g>
     <circle stroke="black" stroke-width="0.5" fill="#aaffff" cx="588.0" cy="878.0" r="1.0"/>
     <text stroke="none" x="588.0" y="878.0" font-size="20.0" font-family="helvetica"/>
    </g>
    <g>
     <circle stroke="black" stroke-width="0.5" fill="#aaffff" cx="590.0" cy="1746.0" r="1.0"/>
     <text stroke="none" x="590.0" y="1746.0" font-size="20.0" font-family="helvetica">Pseudoalteromonas aliena KMM 35627 (AY387858)</text>
    </g>
    <g>
     <circle stroke="black" stroke-width="0.5" fill="#aaffff" cx="590.0" cy="877.0" r="1.0"/>
     <text stroke="none" x="590.0" y="877.0" font-size="10.0" font-family="helvetica">NT1.36</text>
    </g>
    <g>
     <circle stroke="black" stroke-width="0.5" fill="#aaffff" cx="602.0" cy="719.0" r="1.0"/>
     <text stroke="none" x="602.0" y="719.0" font-size="20.0" font-family="helvetica">Pseudoalteromonas prydzensis ACAM 6207 (U85855)</text>
    </g>
    <g>
     <circle stroke="black" stroke-width="0.5" fill="#aaffff" cx="602.0" cy="1864.0" r="1.0"/>
     <text stroke="none" x="602.0" y="1864.0" font-size="20.0" font-family="helvetica">95</text>
    </g>
    <g>
     <circle stroke="black" stroke-width="0.5" fill="#aaffff" cx="629.0" cy="403.0" r="1.0"/>
     <text stroke="none" x="629.0" y="403.0" font-size="20.0" font-family="helvetica">Pseudoalteromonas flavfpulchra NCIMB 20337 (AF297958)</text>
    </g>
    <g>
     <circle stroke="black" stroke-width="0.5" fill="#aaffff" cx="640.0" cy="1903.0" r="1.0"/>
     <text stroke="none" x="640.0" y="1903.0" font-size="20.0" font-family="helvetica"/>
    </g>
    <g>
     <circle stroke="black" stroke-width="0.5" fill="#aaffff" cx="642.0" cy="1902.0" r="1.0"/>
     <text stroke="none" x="642.0" y="1902.0" font-size="10.0" font-family="helvetica">NT1.41</text>
    </g>
    <g>
     <circle stroke="black" stroke-width="0.5" fill="#aaffff" cx="655.0" cy="878.0" r="1.0"/>
     <text stroke="none" x="655.0" y="878.0" font-size="20.0" font-family="helvetica">1PseudoaIteromonas porphyrae' Q-1-67 (AF475096)</text>
    </g>
    <g>
     <circle stroke="black" stroke-width="0.5" fill="#aaffff" cx="705.0" cy="1826.0" r="1.0"/>
     <text stroke="none" x="705.0" y="1826.0" font-size="20.0" font-family="helvetica">Pseudoalteromonas translucida KMM 5207 (AY040230)</text>
    </g>
    <g>
     <circle stroke="black" stroke-width="0.5" fill="#aaffff" cx="755.0" cy="1903.0" r="1.0"/>
     <text stroke="none" x="755.0" y="1903.0" font-size="20.0" font-family="helvetica">Pseudoalteromonas antarctica CECT 46647 (X98336)</text>
    </g>
    <g>
     <circle stroke="black" stroke-width="0.5" fill="#aaffff" cx="831.0" cy="243.0" r="1.0"/>
     <text stroke="none" x="831.0" y="243.0" font-size="20.0" font-family="helvetica">Pseudoalteromonas phenolica O-BC3O7 (AF332880)</text>
    </g>
    <g>
     <circle stroke="black" stroke-width="0.5" fill="#aaffff" cx="845.0" cy="483.0" r="1.0"/>
     <text stroke="none" x="845.0" y="483.0" font-size="20.0" font-family="helvetica">Pseudoalteromonas peptidolytica M BICO14167 (AF007286)</text>
    </g>
    <g>
     <circle stroke="black" stroke-width="0.5" fill="#aaffff" cx="916.0" cy="8.0" r="1.0"/>
     <text stroke="none" x="916.0" y="8.0" font-size="20.0" font-family="helvetica">Bacillus halodurans LB 35 (EF113325)</text>
    </g>
    <line stroke="black" x1="270.0" y1="383.0" x2="221.0" y2="384.0" stroke-width="0.5"/>
    <line stroke="black" x1="438.0" y1="323.0" x2="270.0" y2="383.0" stroke-width="0.5"/>
    <line stroke="black" x1="566.0" y1="167.0" x2="352.0" y2="243.0" stroke-width="0.5"/>
    <line stroke="black" x1="831.0" y1="243.0" x2="352.0" y2="243.0" stroke-width="0.5"/>
    <line stroke="black" x1="540.0" y1="562.0" x2="244.0" y2="602.0" stroke-width="0.5"/>
    <line stroke="black" x1="520.0" y1="836.0" x2="410.0" y2="837.0" stroke-width="0.5"/>
    <line stroke="black" x1="423.0" y1="1035.0" x2="425.0" y2="1034.0" stroke-width="0.5"/>
    <line stroke="black" x1="588.0" y1="878.0" x2="590.0" y2="877.0" stroke-width="0.5"/>
    <line stroke="black" x1="489.0" y1="1035.0" x2="425.0" y2="1034.0" stroke-width="0.5"/>
    <line stroke="black" x1="655.0" y1="878.0" x2="590.0" y2="877.0" stroke-width="0.5"/>
    <line stroke="black" x1="424.0" y1="2017.0" x2="399.0" y2="2024.0" stroke-width="0.5"/>
    <line stroke="black" x1="449.0" y1="1347.0" x2="410.0" y2="1381.0" stroke-width="0.5"/>
    <line stroke="black" x1="527.0" y1="1271.0" x2="449.0" y2="1347.0" stroke-width="0.5"/>
    <line stroke="black" x1="554.0" y1="1666.0" x2="477.0" y2="1596.0" stroke-width="0.5"/>
    <line stroke="black" x1="541.0" y1="1587.0" x2="477.0" y2="1596.0" stroke-width="0.5"/>
    <line stroke="black" x1="640.0" y1="1903.0" x2="642.0" y2="1902.0" stroke-width="0.5"/>
    <line stroke="black" x1="705.0" y1="1826.0" x2="602.0" y2="1864.0" stroke-width="0.5"/>
    <line stroke="black" x1="755.0" y1="1903.0" x2="642.0" y2="1902.0" stroke-width="0.5"/>
    <line stroke="black" x1="110.0" y1="191.0" x2="244.0" y2="602.0" stroke-width="0.5"/>
    <line stroke="black" x1="110.0" y1="191.0" x2="222.0" y2="264.0" stroke-width="0.5"/>
    <line stroke="black" x1="222.0" y1="264.0" x2="270.0" y2="383.0" stroke-width="0.5"/>
    <line stroke="black" x1="222.0" y1="264.0" x2="352.0" y2="243.0" stroke-width="0.5"/>
    <line stroke="black" x1="270.0" y1="383.0" x2="470.0" y2="441.0" stroke-width="0.5"/>
    <line stroke="black" x1="470.0" y1="441.0" x2="629.0" y2="403.0" stroke-width="0.5"/>
    <line stroke="black" x1="244.0" y1="602.0" x2="236.0" y2="863.0" stroke-width="0.5"/>
    <line stroke="black" x1="236.0" y1="863.0" x2="362.0" y2="1094.0" stroke-width="0.5"/>
    <line stroke="black" x1="236.0" y1="863.0" x2="520.0" y2="836.0" stroke-width="0.5"/>
    <line stroke="black" x1="362.0" y1="1094.0" x2="388.0" y2="1434.0" stroke-width="0.5"/>
    <line stroke="black" x1="362.0" y1="1094.0" x2="425.0" y2="1034.0" stroke-width="0.5"/>
    <line stroke="black" x1="520.0" y1="836.0" x2="590.0" y2="877.0" stroke-width="0.5"/>
    <line stroke="black" x1="388.0" y1="1434.0" x2="424.0" y2="2017.0" stroke-width="0.5"/>
    <line stroke="black" x1="388.0" y1="1434.0" x2="412.0" y2="1288.0" stroke-width="0.5"/>
    <line stroke="black" x1="412.0" y1="1288.0" x2="449.0" y2="1347.0" stroke-width="0.5"/>
    <line stroke="black" x1="449.0" y1="1347.0" x2="477.0" y2="1596.0" stroke-width="0.5"/>
    <line stroke="black" x1="477.0" y1="1596.0" x2="602.0" y2="1864.0" stroke-width="0.5"/>
    <line stroke="black" x1="602.0" y1="1864.0" x2="642.0" y2="1902.0" stroke-width="0.5"/>
    <line stroke="black" x1="916.0" y1="8.0" x2="110.0" y2="191.0" stroke-width="0.5"/>
    <line stroke="black" x1="502.0" y1="87.0" x2="110.0" y2="191.0" stroke-width="0.5"/>
    <line stroke="black" x1="602.0" y1="719.0" x2="236.0" y2="863.0" stroke-width="0.5"/>
    <line stroke="black" x1="425.0" y1="1194.0" x2="412.0" y2="1288.0" stroke-width="0.5"/>
    <line stroke="black" x1="425.0" y1="954.0" x2="362.0" y2="1094.0" stroke-width="0.5"/>
    <line stroke="black" x1="425.0" y1="1981.0" x2="424.0" y2="2017.0" stroke-width="0.5"/>
    <line stroke="black" x1="477.0" y1="2062.0" x2="424.0" y2="2017.0" stroke-width="0.5"/>
    <line stroke="black" x1="541.0" y1="639.0" x2="244.0" y2="602.0" stroke-width="0.5"/>
    <line stroke="black" x1="590.0" y1="1746.0" x2="477.0" y2="1596.0" stroke-width="0.5"/>
    <line stroke="black" x1="845.0" y1="483.0" x2="470.0" y2="441.0" stroke-width="0.5"/>
   </g>
  </g>
 </svg>
</svg>
