<?xml version="1.0" encoding="UTF-8"?>
<svg height="800.0" width="700.0" xmlns="http://www.w3.org/2000/svg">
 <svg>
  <g>
   <g>
    <g>
     <circle stroke="black" stroke-width="0.5" fill="#aaffff" cx="30.0" cy="361.0" r="1.0"/>
     <text stroke="none" x="30.0" y="361.0" font-size="20.0" font-family="helvetica">100</text>
    </g>
    <g>
     <circle stroke="black" stroke-width="0.5" fill="#aaffff" cx="77.0" cy="93.0" r="1.0"/>
     <text stroke="none" x="77.0" y="93.0" font-size="10.0" font-family="helvetica">NT1.2</text>
    </g>
    <g>
     <circle stroke="black" stroke-width="0.5" fill="#aaffff" cx="161.0" cy="141.0" r="1.0"/>
     <text stroke="none" x="161.0" y="141.0" font-size="10.0" font-family="helvetica">NT1.3</text>
    </g>
    <g>
     <circle stroke="black" stroke-width="0.5" fill="#aaffff" cx="180.0" cy="498.0" r="1.0"/>
     <text stroke="none" x="180.0" y="498.0" font-size="10.0" font-family="helvetica">NT1.4</text>
    </g>
    <g>
     <circle stroke="black" stroke-width="0.5" fill="#aaffff" cx="188.0" cy="355.0" r="1.0"/>
     <text stroke="none" x="188.0" y="355.0" font-size="10.0" font-family="helvetica">NT1.5</text>
    </g>
    <g>
     <circle stroke="black" stroke-width="0.5" fill="#aaffff" cx="198.0" cy="402.0" r="1.0"/>
     <text stroke="none" x="198.0" y="402.0" font-size="10.0" font-family="helvetica">NT1.6</text>
    </g>
    <g>
     <circle stroke="black" stroke-width="0.5" fill="#aaffff" cx="199.0" cy="583.0" r="1.0"/>
     <text stroke="none" x="199.0" y="583.0" font-size="10.0" font-family="helvetica">NT1.7</text>
    </g>
    <g>
     <circle stroke="black" stroke-width="0.5" fill="#aaffff" cx="208.0" cy="644.0" r="1.0"/>
     <text stroke="none" x="208.0" y="644.0" font-size="10.0" font-family="helvetica">NT1.8</text>
    </g>
    <g>
     <circle stroke="black" stroke-width="0.5" fill="#aaffff" cx="214.0" cy="759.0" r="1.0"/>
     <text stroke="none" x="214.0" y="759.0" font-size="10.0" font-family="helvetica">NT1.9</text>
    </g>
    <g>
     <circle stroke="black" stroke-width="0.5" fill="#aaffff" cx="216.0" cy="254.0" r="1.0"/>
     <text stroke="none" x="216.0" y="254.0" font-size="20.0" font-family="helvetica">N. trehalosi VKM Ac-9427 (AF105972)</text>
    </g>
    <g>
     <circle stroke="black" stroke-width="0.5" fill="#aaffff" cx="223.0" cy="428.0" r="1.0"/>
     <text stroke="none" x="223.0" y="428.0" font-size="10.0" font-family="helvetica">NT1.11</text>
    </g>
    <g>
     <circle stroke="black" stroke-width="0.5" fill="#aaffff" cx="225.0" cy="562.0" r="1.0"/>
     <text stroke="none" x="225.0" y="562.0" font-size="10.0" font-family="helvetica">NT1.12</text>
    </g>
    <g>
     <circle stroke="black" stroke-width="0.5" fill="#aaffff" cx="234.0" cy="450.0" r="1.0"/>
     <text stroke="none" x="234.0" y="450.0" font-size="10.0" font-family="helvetica">NT1.13</text>
    </g>
    <g>
     <circle stroke="black" stroke-width="0.5" fill="#aaffff" cx="250.0" cy="186.0" r="1.0"/>
     <text stroke="none" x="250.0" y="186.0" font-size="10.0" font-family="helvetica">NT1.14</text>
    </g>
    <g>
     <circle stroke="black" stroke-width="0.5" fill="#aaffff" cx="251.0" cy="436.0" r="1.0"/>
     <text stroke="none" x="251.0" y="436.0" font-size="20.0" font-family="helvetica">N. dassonvillei subsp. albirubida DSM 404657 (X97882)</text>
    </g>
    <g>
     <circle stroke="black" stroke-width="0.5" fill="#aaffff" cx="251.0" cy="466.0" r="1.0"/>
     <text stroke="none" x="251.0" y="466.0" font-size="20.0" font-family="helvetica">N. synnemataformans IMMIB D-12157 (Y13593)</text>
    </g>
    <g>
     <circle stroke="black" stroke-width="0.5" fill="#aaffff" cx="253.0" cy="44.0" r="1.0"/>
     <text stroke="none" x="253.0" y="44.0" font-size="20.0" font-family="helvetica">N. composta KS97 (AF360734)</text>
    </g>
    <g>
     <circle stroke="black" stroke-width="0.5" fill="#aaffff" cx="260.0" cy="405.0" r="1.0"/>
     <text stroke="none" x="260.0" y="405.0" font-size="20.0" font-family="helvetica">N. dassonvillei subsp. dassonvillei DSM 431 117 (X97886)</text>
    </g>
    <g>
     <circle stroke="black" stroke-width="0.5" fill="#aaffff" cx="267.0" cy="209.0" r="1.0"/>
     <text stroke="none" x="267.0" y="209.0" font-size="10.0" font-family="helvetica">NT1.19</text>
    </g>
    <g>
     <circle stroke="black" stroke-width="0.5" fill="#aaffff" cx="268.0" cy="495.0" r="1.0"/>
     <text stroke="none" x="268.0" y="495.0" font-size="20.0" font-family="helvetica">N. Iucentensis DSM 440487 (X97888)</text>
    </g>
    <g>
     <circle stroke="black" stroke-width="0.5" fill="#aaffff" cx="268.0" cy="97.0" r="1.0"/>
     <text stroke="none" x="268.0" y="97.0" font-size="20.0" font-family="helvetica">93</text>
    </g>
    <g>
     <circle stroke="black" stroke-width="0.5" fill="#aaffff" cx="290.0" cy="526.0" r="1.0"/>
     <text stroke="none" x="290.0" y="526.0" font-size="20.0" font-family="helvetica">N. alba DSM 433777 (X97883)</text>
    </g>
    <g>
     <circle stroke="black" stroke-width="0.5" fill="#aaffff" cx="296.0" cy="309.0" r="1.0"/>
     <text stroke="none" x="296.0" y="309.0" font-size="10.0" font-family="helvetica">NT1.23</text>
    </g>
    <g>
     <circle stroke="black" stroke-width="0.5" fill="#aaffff" cx="303.0" cy="618.0" r="1.0"/>
     <text stroke="none" x="303.0" y="618.0" font-size="10.0" font-family="helvetica">NT1.24</text>
    </g>
    <g>
     <circle stroke="black" stroke-width="0.5" fill="#aaffff" cx="305.0" cy="736.0" r="1.0"/>
     <text stroke="none" x="305.0" y="736.0" font-size="20.0" font-family="helvetica">N. aegyptica DSM 444427 (AJ539401)</text>
    </g>
    <g>
     <circle stroke="black" stroke-width="0.5" fill="#aaffff" cx="305.0" cy="119.0" r="1.0"/>
     <text stroke="none" x="305.0" y="119.0" font-size="20.0" font-family="helvetica">93</text>
    </g>
    <g>
     <circle stroke="black" stroke-width="0.5" fill="#aaffff" cx="311.0" cy="103.0" r="1.0"/>
     <text stroke="none" x="311.0" y="103.0" font-size="20.0" font-family="helvetica">N. halophila DSM 444947 (AJ421018)</text>
    </g>
    <g>
     <circle stroke="black" stroke-width="0.5" fill="#aaffff" cx="315.0" cy="691.0" r="1.0"/>
     <text stroke="none" x="315.0" y="691.0" font-size="20.0" font-family="helvetica">77</text>
    </g>
    <g>
     <circle stroke="black" stroke-width="0.5" fill="#aaffff" cx="328.0" cy="134.0" r="1.0"/>
     <text stroke="none" x="328.0" y="134.0" font-size="20.0" font-family="helvetica">N. baichengensis YIM 901307 (AY619716)</text>
    </g>
    <g>
     <circle stroke="black" stroke-width="0.5" fill="#aaffff" cx="328.0" cy="375.0" r="1.0"/>
     <text stroke="none" x="328.0" y="375.0" font-size="20.0" font-family="helvetica">N. halototerans DSM 444107 (AJ290448)</text>
    </g>
    <g>
     <circle stroke="black" stroke-width="0.5" fill="#aaffff" cx="328.0" cy="330.0" r="1.0"/>
     <text stroke="none" x="328.0" y="330.0" font-size="10.0" font-family="helvetica">NT1.31</text>
    </g>
    <g>
     <circle stroke="black" stroke-width="0.5" fill="#aaffff" cx="335.0" cy="583.0" r="1.0"/>
     <text stroke="none" x="335.0" y="583.0" font-size="10.0" font-family="helvetica">NT1.32</text>
    </g>
    <g>
     <circle stroke="black" stroke-width="0.5" fill="#aaffff" cx="337.0" cy="195.0" r="1.0"/>
     <text stroke="none" x="337.0" y="195.0" font-size="20.0" font-family="helvetica">N. rosea YIM 900947 (AY619713)</text>
    </g>
    <g>
     <circle stroke="black" stroke-width="0.5" fill="#aaffff" cx="354.0" cy="74.0" r="1.0"/>
     <text stroke="none" x="354.0" y="74.0" font-size="20.0" font-family="helvetica">N. chromatogenes YIM 901097 (AY619715)</text>
    </g>
    <g>
     <circle stroke="black" stroke-width="0.5" fill="#aaffff" cx="354.0" cy="608.0" r="1.0"/>
     <text stroke="none" x="354.0" y="608.0" font-size="20.0" font-family="helvetica">100</text>
    </g>
    <g>
     <circle stroke="black" stroke-width="0.5" fill="#aaffff" cx="363.0" cy="707.0" r="1.0"/>
     <text stroke="none" x="363.0" y="707.0" font-size="20.0" font-family="helvetica">N. Iisteri DSM 402977 (X97887)</text>
    </g>
    <g>
     <circle stroke="black" stroke-width="0.5" fill="#aaffff" cx="363.0" cy="776.0" r="1.0"/>
     <text stroke="none" x="363.0" y="776.0" font-size="20.0" font-family="helvetica">100</text>
    </g>
    <g>
     <circle stroke="black" stroke-width="0.5" fill="#aaffff" cx="365.0" cy="556.0" r="1.0"/>
     <text stroke="none" x="365.0" y="556.0" font-size="20.0" font-family="helvetica">N. prasina DSM 438457 (X97884)</text>
    </g>
    <g>
     <circle stroke="black" stroke-width="0.5" fill="#aaffff" cx="391.0" cy="164.0" r="1.0"/>
     <text stroke="none" x="391.0" y="164.0" font-size="20.0" font-family="helvetica">N. gilva YIM 900877 (AY619712)</text>
    </g>
    <g>
     <circle stroke="black" stroke-width="0.5" fill="#aaffff" cx="395.0" cy="631.0" r="1.0"/>
     <text stroke="none" x="395.0" y="631.0" font-size="20.0" font-family="helvetica">100</text>
    </g>
    <g>
     <circle stroke="black" stroke-width="0.5" fill="#aaffff" cx="396.0" cy="647.0" r="1.0"/>
     <text stroke="none" x="396.0" y="647.0" font-size="20.0" font-family="helvetica">N. exhalans ES10.17 (AYO36000)</text>
    </g>
    <g>
     <circle stroke="black" stroke-width="0.5" fill="#aaffff" cx="397.0" cy="284.0" r="1.0"/>
     <text stroke="none" x="397.0" y="284.0" font-size="20.0" font-family="helvetica">N. kunsanensis HA-97 (AF195412)</text>
    </g>
    <g>
     <circle stroke="black" stroke-width="0.5" fill="#aaffff" cx="399.0" cy="797.0" r="1.0"/>
     <text stroke="none" x="399.0" y="797.0" font-size="20.0" font-family="helvetica">N. umidischolae 66l937 (AYO36001)</text>
    </g>
    <g>
     <circle stroke="black" stroke-width="0.5" fill="#aaffff" cx="404.0" cy="616.0" r="1.0"/>
     <text stroke="none" x="404.0" y="616.0" font-size="20.0" font-family="helvetica">N. valliformis HBUM 200287 (AY336503)</text>
    </g>
    <g>
     <circle stroke="black" stroke-width="0.5" fill="#aaffff" cx="414.0" cy="586.0" r="1.0"/>
     <text stroke="none" x="414.0" y="586.0" font-size="20.0" font-family="helvetica">N. metallicus KBS67 (AJ420769)</text>
    </g>
    <g>
     <circle stroke="black" stroke-width="0.5" fill="#aaffff" cx="421.0" cy="18.0" r="1.0"/>
     <text stroke="none" x="421.0" y="18.0" font-size="20.0" font-family="helvetica">Actinomadura madurae DSM 430677 (X97889)</text>
    </g>
    <g>
     <circle stroke="black" stroke-width="0.5" fill="#aaffff" cx="422.0" cy="9.0" r="1.0"/>
     <text stroke="none" x="422.0" y="9.0" font-size="20.0" font-family="helvetica">Actinomadura madurae DSM 430677 (X97889)</text>
    </g>
    <g>
     <circle stroke="black" stroke-width="0.5" fill="#aaffff" cx="422.0" cy="13.0" r="1.0"/>
     <text stroke="none" x="422.0" y="13.0" font-size="10.0" font-family="helvetica">NT1.48</text>
    </g>
    <g>
     <circle stroke="black" stroke-width="0.5" fill="#aaffff" cx="434.0" cy="13.0" r="1.0"/>
     <text stroke="none" x="434.0" y="13.0" font-size="20.0" font-family="helvetica">Actinomadura madurae DSM 430677 (X97889)</text>
    </g>
    <g>
     <circle stroke="black" stroke-width="0.5" fill="#aaffff" cx="440.0" cy="346.0" r="1.0"/>
     <text stroke="none" x="440.0" y="346.0" font-size="20.0" font-family="helvetica">N. saline YIM 900107 (AY373031)</text>
    </g>
    <g>
     <circle stroke="black" stroke-width="0.5" fill="#aaffff" cx="440.0" cy="767.0" r="1.0"/>
     <text stroke="none" x="440.0" y="767.0" font-size="20.0" font-family="helvetica">N. tropica VKM Ac-14577 (AF105971)</text>
    </g>
    <g>
     <circle stroke="black" stroke-width="0.5" fill="#aaffff" cx="447.0" cy="677.0" r="1.0"/>
     <text stroke="none" x="447.0" y="677.0" font-size="20.0" font-family="helvetica">N. alkaliphila DSM 446577 (AY230848)</text>
    </g>
    <g>
     <circle stroke="black" stroke-width="0.5" fill="#aaffff" cx="455.0" cy="315.0" r="1.0"/>
     <text stroke="none" x="455.0" y="315.0" font-size="20.0" font-family="helvetica">N. xinjiangensis YIM 900047 (AF251709)</text>
    </g>
    <g>
     <circle stroke="black" stroke-width="0.5" fill="#aaffff" cx="520.0" cy="224.0" r="1.0"/>
     <text stroke="none" x="520.0" y="224.0" font-size="20.0" font-family="helvetica">N. rhodophaea YIM 900967 (AY619714)</text>
    </g>
    <line stroke="black" x1="422.0" y1="9.0" x2="422.0" y2="13.0" stroke-width="0.5"/>
    <line stroke="black" x1="421.0" y1="18.0" x2="422.0" y2="13.0" stroke-width="0.5"/>
    <line stroke="black" x1="434.0" y1="13.0" x2="422.0" y2="13.0" stroke-width="0.5"/>
    <line stroke="black" x1="253.0" y1="44.0" x2="77.0" y2="93.0" stroke-width="0.5"/>
    <line stroke="black" x1="311.0" y1="103.0" x2="305.0" y2="119.0" stroke-width="0.5"/>
    <line stroke="black" x1="328.0" y1="134.0" x2="305.0" y2="119.0" stroke-width="0.5"/>
    <line stroke="black" x1="354.0" y1="74.0" x2="268.0" y2="97.0" stroke-width="0.5"/>
    <line stroke="black" x1="391.0" y1="164.0" x2="250.0" y2="186.0" stroke-width="0.5"/>
    <line stroke="black" x1="216.0" y1="254.0" x2="30.0" y2="361.0" stroke-width="0.5"/>
    <line stroke="black" x1="251.0" y1="436.0" x2="234.0" y2="450.0" stroke-width="0.5"/>
    <line stroke="black" x1="260.0" y1="405.0" x2="223.0" y2="428.0" stroke-width="0.5"/>
    <line stroke="black" x1="251.0" y1="466.0" x2="234.0" y2="450.0" stroke-width="0.5"/>
    <line stroke="black" x1="268.0" y1="495.0" x2="199.0" y2="583.0" stroke-width="0.5"/>
    <line stroke="black" x1="328.0" y1="375.0" x2="198.0" y2="402.0" stroke-width="0.5"/>
    <line stroke="black" x1="397.0" y1="284.0" x2="296.0" y2="309.0" stroke-width="0.5"/>
    <line stroke="black" x1="305.0" y1="736.0" x2="214.0" y2="759.0" stroke-width="0.5"/>
    <line stroke="black" x1="290.0" y1="526.0" x2="225.0" y2="562.0" stroke-width="0.5"/>
    <line stroke="black" x1="440.0" y1="346.0" x2="328.0" y2="330.0" stroke-width="0.5"/>
    <line stroke="black" x1="455.0" y1="315.0" x2="328.0" y2="330.0" stroke-width="0.5"/>
    <line stroke="black" x1="399.0" y1="797.0" x2="363.0" y2="776.0" stroke-width="0.5"/>
    <line stroke="black" x1="440.0" y1="767.0" x2="363.0" y2="776.0" stroke-width="0.5"/>
    <line stroke="black" x1="363.0" y1="707.0" x2="315.0" y2="691.0" stroke-width="0.5"/>
    <line stroke="black" x1="365.0" y1="556.0" x2="335.0" y2="583.0" stroke-width="0.5"/>
    <line stroke="black" x1="396.0" y1="647.0" x2="395.0" y2="631.0" stroke-width="0.5"/>
    <line stroke="black" x1="414.0" y1="586.0" x2="354.0" y2="608.0" stroke-width="0.5"/>
    <line stroke="black" x1="404.0" y1="616.0" x2="395.0" y2="631.0" stroke-width="0.5"/>
    <line stroke="black" x1="447.0" y1="677.0" x2="315.0" y2="691.0" stroke-width="0.5"/>
    <line stroke="black" x1="422.0" y1="13.0" x2="77.0" y2="93.0" stroke-width="0.5"/>
    <line stroke="black" x1="77.0" y1="93.0" x2="161.0" y2="141.0" stroke-width="0.5"/>
    <line stroke="black" x1="161.0" y1="141.0" x2="268.0" y2="97.0" stroke-width="0.5"/>
    <line stroke="black" x1="161.0" y1="141.0" x2="250.0" y2="186.0" stroke-width="0.5"/>
    <line stroke="black" x1="30.0" y1="361.0" x2="180.0" y2="498.0" stroke-width="0.5"/>
    <line stroke="black" x1="250.0" y1="186.0" x2="267.0" y2="209.0" stroke-width="0.5"/>
    <line stroke="black" x1="268.0" y1="97.0" x2="305.0" y2="119.0" stroke-width="0.5"/>
    <line stroke="black" x1="180.0" y1="498.0" x2="188.0" y2="355.0" stroke-width="0.5"/>
    <line stroke="black" x1="180.0" y1="498.0" x2="199.0" y2="583.0" stroke-width="0.5"/>
    <line stroke="black" x1="188.0" y1="355.0" x2="198.0" y2="402.0" stroke-width="0.5"/>
    <line stroke="black" x1="188.0" y1="355.0" x2="296.0" y2="309.0" stroke-width="0.5"/>
    <line stroke="black" x1="199.0" y1="583.0" x2="208.0" y2="644.0" stroke-width="0.5"/>
    <line stroke="black" x1="198.0" y1="402.0" x2="223.0" y2="428.0" stroke-width="0.5"/>
    <line stroke="black" x1="223.0" y1="428.0" x2="234.0" y2="450.0" stroke-width="0.5"/>
    <line stroke="black" x1="208.0" y1="644.0" x2="214.0" y2="759.0" stroke-width="0.5"/>
    <line stroke="black" x1="208.0" y1="644.0" x2="225.0" y2="562.0" stroke-width="0.5"/>
    <line stroke="black" x1="296.0" y1="309.0" x2="328.0" y2="330.0" stroke-width="0.5"/>
    <line stroke="black" x1="214.0" y1="759.0" x2="363.0" y2="776.0" stroke-width="0.5"/>
    <line stroke="black" x1="225.0" y1="562.0" x2="303.0" y2="618.0" stroke-width="0.5"/>
    <line stroke="black" x1="303.0" y1="618.0" x2="315.0" y2="691.0" stroke-width="0.5"/>
    <line stroke="black" x1="303.0" y1="618.0" x2="335.0" y2="583.0" stroke-width="0.5"/>
    <line stroke="black" x1="335.0" y1="583.0" x2="354.0" y2="608.0" stroke-width="0.5"/>
    <line stroke="black" x1="354.0" y1="608.0" x2="395.0" y2="631.0" stroke-width="0.5"/>
    <line stroke="black" x1="77.0" y1="93.0" x2="30.0" y2="361.0" stroke-width="0.5"/>
    <line stroke="black" x1="337.0" y1="195.0" x2="267.0" y2="209.0" stroke-width="0.5"/>
    <line stroke="black" x1="520.0" y1="224.0" x2="267.0" y2="209.0" stroke-width="0.5"/>
   </g>
  </g>
 </svg>
</svg>
