<?xml version="1.0" encoding="UTF-8"?>
<svg height="800.0" width="700.0" xmlns="http://www.w3.org/2000/svg">
 <svg>
  <g>
   <g>
    <g>
     <circle stroke="black" stroke-width="0.5" fill="#aaffff" cx="151.0" cy="354.0" r="1.0"/>
     <text stroke="none" x="151.0" y="354.0" font-size="10.0" font-family="helvetica">NT1.1</text>
    </g>
    <g>
     <circle stroke="black" stroke-width="0.5" fill="#aaffff" cx="193.0" cy="181.0" r="1.0"/>
     <text stroke="none" x="193.0" y="181.0" font-size="10.0" font-family="helvetica">NT1.2</text>
    </g>
    <g>
     <circle stroke="black" stroke-width="0.5" fill="#aaffff" cx="228.0" cy="285.0" r="1.0"/>
     <text stroke="none" x="228.0" y="285.0" font-size="10.0" font-family="helvetica">NT1.3</text>
    </g>
    <g>
     <circle stroke="black" stroke-width="0.5" fill="#aaffff" cx="238.0" cy="75.0" r="1.0"/>
     <text stroke="none" x="238.0" y="75.0" font-size="10.0" font-family="helvetica">NT1.4</text>
    </g>
    <g>
     <circle stroke="black" stroke-width="0.5" fill="#aaffff" cx="244.0" cy="366.0" r="1.0"/>
     <text stroke="none" x="244.0" y="366.0" font-size="10.0" font-family="helvetica">NT1.5</text>
    </g>
    <g>
     <circle stroke="black" stroke-width="0.5" fill="#aaffff" cx="273.0" cy="209.0" r="1.0"/>
     <text stroke="none" x="273.0" y="209.0" font-size="10.0" font-family="helvetica">NT1.6</text>
    </g>
    <g>
     <circle stroke="black" stroke-width="0.5" fill="#aaffff" cx="285.0" cy="401.0" r="1.0"/>
     <text stroke="none" x="285.0" y="401.0" font-size="10.0" font-family="helvetica">NT1.7</text>
    </g>
    <g>
     <circle stroke="black" stroke-width="0.5" fill="#aaffff" cx="299.0" cy="240.0" r="1.0"/>
     <text stroke="none" x="299.0" y="240.0" font-size="20.0" font-family="helvetica">80</text>
    </g>
    <g>
     <circle stroke="black" stroke-width="0.5" fill="#aaffff" cx="307.0" cy="437.0" r="1.0"/>
     <text stroke="none" x="307.0" y="437.0" font-size="20.0" font-family="helvetica">82</text>
    </g>
    <g>
     <circle stroke="black" stroke-width="0.5" fill="#aaffff" cx="321.0" cy="466.0" r="1.0"/>
     <text stroke="none" x="321.0" y="466.0" font-size="20.0" font-family="helvetica">82</text>
    </g>
    <g>
     <circle stroke="black" stroke-width="0.5" fill="#aaffff" cx="327.0" cy="270.0" r="1.0"/>
     <text stroke="none" x="327.0" y="270.0" font-size="20.0" font-family="helvetica">80</text>
    </g>
    <g>
     <circle stroke="black" stroke-width="0.5" fill="#aaffff" cx="336.0" cy="251.0" r="1.0"/>
     <text stroke="none" x="336.0" y="251.0" font-size="20.0" font-family="helvetica">L. acidifarinae LMG 222ooT (AJ632158)</text>
    </g>
    <g>
     <circle stroke="black" stroke-width="0.5" fill="#aaffff" cx="336.0" cy="290.0" r="1.0"/>
     <text stroke="none" x="336.0" y="290.0" font-size="20.0" font-family="helvetica">L. zymae LMG 22198T (AJ632157)</text>
    </g>
    <g>
     <circle stroke="black" stroke-width="0.5" fill="#aaffff" cx="340.0" cy="172.0" r="1.0"/>
     <text stroke="none" x="340.0" y="172.0" font-size="20.0" font-family="helvetica">L. spicheri LTH 57537 (AJ534844)</text>
    </g>
    <g>
     <circle stroke="black" stroke-width="0.5" fill="#aaffff" cx="344.0" cy="448.0" r="1.0"/>
     <text stroke="none" x="344.0" y="448.0" font-size="20.0" font-family="helvetica"/>
    </g>
    <g>
     <circle stroke="black" stroke-width="0.5" fill="#aaffff" cx="354.0" cy="408.0" r="1.0"/>
     <text stroke="none" x="354.0" y="408.0" font-size="20.0" font-family="helvetica">L. parabrevis LMG 1 1984T (AM158249)</text>
    </g>
    <g>
     <circle stroke="black" stroke-width="0.5" fill="#aaffff" cx="358.0" cy="211.0" r="1.0"/>
     <text stroke="none" x="358.0" y="211.0" font-size="20.0" font-family="helvetica">L. namurensis LMG 23584 (AM2591 19)</text>
    </g>
    <g>
     <circle stroke="black" stroke-width="0.5" fill="#aaffff" cx="364.0" cy="485.0" r="1.0"/>
     <text stroke="none" x="364.0" y="485.0" font-size="20.0" font-family="helvetica">L. senmaizukei L13T (AB297927)</text>
    </g>
    <g>
     <circle stroke="black" stroke-width="0.5" fill="#aaffff" cx="366.0" cy="369.0" r="1.0"/>
     <text stroke="none" x="366.0" y="369.0" font-size="20.0" font-family="helvetica">L. brevis ATCC 14869T (M58810)</text>
    </g>
    <g>
     <circle stroke="black" stroke-width="0.5" fill="#aaffff" cx="400.0" cy="112.0" r="1.0"/>
     <text stroke="none" x="400.0" y="112.0" font-size="10.0" font-family="helvetica">NT1.20</text>
    </g>
    <g>
     <circle stroke="black" stroke-width="0.5" fill="#aaffff" cx="415.0" cy="329.0" r="1.0"/>
     <text stroke="none" x="415.0" y="329.0" font-size="20.0" font-family="helvetica">L. paucivorans TMW 1.14247 (FN185731 )</text>
    </g>
    <g>
     <circle stroke="black" stroke-width="0.5" fill="#aaffff" cx="423.0" cy="133.0" r="1.0"/>
     <text stroke="none" x="423.0" y="133.0" font-size="20.0" font-family="helvetica">L. collinoides JCM 1123T (AB289061)</text>
    </g>
    <g>
     <circle stroke="black" stroke-width="0.5" fill="#aaffff" cx="431.0" cy="94.0" r="1.0"/>
     <text stroke="none" x="431.0" y="94.0" font-size="20.0" font-family="helvetica">L. paracollinoides DSM 155O2T (AJ786665)</text>
    </g>
    <g>
     <circle stroke="black" stroke-width="0.5" fill="#aaffff" cx="433.0" cy="524.0" r="1.0"/>
     <text stroke="none" x="433.0" y="524.0" font-size="20.0" font-family="helvetica">L. fructivorans DSM 20203T (X76330)</text>
    </g>
    <g>
     <circle stroke="black" stroke-width="0.5" fill="#aaffff" cx="435.0" cy="582.0" r="1.0"/>
     <text stroke="none" x="435.0" y="582.0" font-size="20.0" font-family="helvetica">100</text>
    </g>
    <g>
     <circle stroke="black" stroke-width="0.5" fill="#aaffff" cx="464.0" cy="604.0" r="1.0"/>
     <text stroke="none" x="464.0" y="604.0" font-size="20.0" font-family="helvetica">L. parabuchneri LMG 11457T (AYO26751)</text>
    </g>
    <g>
     <circle stroke="black" stroke-width="0.5" fill="#aaffff" cx="499.0" cy="564.0" r="1.0"/>
     <text stroke="none" x="499.0" y="564.0" font-size="20.0" font-family="helvetica">L. buchneri DSM 2O057T(M58811)</text>
    </g>
    <g>
     <circle stroke="black" stroke-width="0.5" fill="#aaffff" cx="575.0" cy="38.0" r="1.0"/>
     <text stroke="none" x="575.0" y="38.0" font-size="20.0" font-family="helvetica">100</text>
    </g>
    <g>
     <circle stroke="black" stroke-width="0.5" fill="#aaffff" cx="583.0" cy="54.0" r="1.0"/>
     <text stroke="none" x="583.0" y="54.0" font-size="20.0" font-family="helvetica">L. plantarum DSM 20205 (M58827)</text>
    </g>
    <g>
     <circle stroke="black" stroke-width="0.5" fill="#aaffff" cx="593.0" cy="17.0" r="1.0"/>
     <text stroke="none" x="593.0" y="17.0" font-size="20.0" font-family="helvetica">L. pentosus JCM 1558T(D79211)</text>
    </g>
    <line stroke="black" x1="340.0" y1="172.0" x2="273.0" y2="209.0" stroke-width="0.5"/>
    <line stroke="black" x1="358.0" y1="211.0" x2="299.0" y2="240.0" stroke-width="0.5"/>
    <line stroke="black" x1="354.0" y1="408.0" x2="307.0" y2="437.0" stroke-width="0.5"/>
    <line stroke="black" x1="433.0" y1="524.0" x2="151.0" y2="354.0" stroke-width="0.5"/>
    <line stroke="black" x1="575.0" y1="38.0" x2="238.0" y2="75.0" stroke-width="0.5"/>
    <line stroke="black" x1="238.0" y1="75.0" x2="193.0" y2="181.0" stroke-width="0.5"/>
    <line stroke="black" x1="238.0" y1="75.0" x2="400.0" y2="112.0" stroke-width="0.5"/>
    <line stroke="black" x1="193.0" y1="181.0" x2="151.0" y2="354.0" stroke-width="0.5"/>
    <line stroke="black" x1="193.0" y1="181.0" x2="228.0" y2="285.0" stroke-width="0.5"/>
    <line stroke="black" x1="228.0" y1="285.0" x2="244.0" y2="366.0" stroke-width="0.5"/>
    <line stroke="black" x1="228.0" y1="285.0" x2="273.0" y2="209.0" stroke-width="0.5"/>
    <line stroke="black" x1="244.0" y1="366.0" x2="285.0" y2="401.0" stroke-width="0.5"/>
    <line stroke="black" x1="273.0" y1="209.0" x2="299.0" y2="240.0" stroke-width="0.5"/>
    <line stroke="black" x1="285.0" y1="401.0" x2="307.0" y2="437.0" stroke-width="0.5"/>
    <line stroke="black" x1="299.0" y1="240.0" x2="327.0" y2="270.0" stroke-width="0.5"/>
    <line stroke="black" x1="307.0" y1="437.0" x2="321.0" y2="466.0" stroke-width="0.5"/>
    <line stroke="black" x1="151.0" y1="354.0" x2="435.0" y2="582.0" stroke-width="0.5"/>
    <line stroke="black" x1="415.0" y1="329.0" x2="244.0" y2="366.0" stroke-width="0.5"/>
    <line stroke="black" x1="366.0" y1="369.0" x2="285.0" y2="401.0" stroke-width="0.5"/>
    <line stroke="black" x1="344.0" y1="448.0" x2="321.0" y2="466.0" stroke-width="0.5"/>
    <line stroke="black" x1="336.0" y1="251.0" x2="327.0" y2="270.0" stroke-width="0.5"/>
    <line stroke="black" x1="336.0" y1="290.0" x2="327.0" y2="270.0" stroke-width="0.5"/>
    <line stroke="black" x1="364.0" y1="485.0" x2="321.0" y2="466.0" stroke-width="0.5"/>
    <line stroke="black" x1="423.0" y1="133.0" x2="400.0" y2="112.0" stroke-width="0.5"/>
    <line stroke="black" x1="431.0" y1="94.0" x2="400.0" y2="112.0" stroke-width="0.5"/>
    <line stroke="black" x1="464.0" y1="604.0" x2="435.0" y2="582.0" stroke-width="0.5"/>
    <line stroke="black" x1="499.0" y1="564.0" x2="435.0" y2="582.0" stroke-width="0.5"/>
    <line stroke="black" x1="583.0" y1="54.0" x2="575.0" y2="38.0" stroke-width="0.5"/>
    <line stroke="black" x1="593.0" y1="17.0" x2="575.0" y2="38.0" stroke-width="0.5"/>
   </g>
  </g>
 </svg>
</svg>
