<?xml version="1.0" encoding="UTF-8"?>
<svg height="800.0" width="700.0" xmlns="http://www.w3.org/2000/svg">
 <svg>
  <g>
   <g>
    <g>
     <circle stroke="black" stroke-width="0.5" fill="#aaffff" cx="0.0" cy="314.0" r="1.0"/>
     <text stroke="none" x="0.0" y="314.0" font-size="20.0" font-family="helvetica"/>
    </g>
    <g>
     <circle stroke="black" stroke-width="0.5" fill="#aaffff" cx="4.0" cy="314.0" r="1.0"/>
     <text stroke="none" x="4.0" y="314.0" font-size="10.0" font-family="helvetica">NT1.2</text>
    </g>
    <g>
     <circle stroke="black" stroke-width="0.5" fill="#aaffff" cx="67.0" cy="198.0" r="1.0"/>
     <text stroke="none" x="67.0" y="198.0" font-size="10.0" font-family="helvetica">NT1.3</text>
    </g>
    <g>
     <circle stroke="black" stroke-width="0.5" fill="#aaffff" cx="67.0" cy="431.0" r="1.0"/>
     <text stroke="none" x="67.0" y="431.0" font-size="10.0" font-family="helvetica">NT1.4</text>
    </g>
    <g>
     <circle stroke="black" stroke-width="0.5" fill="#aaffff" cx="96.0" cy="233.0" r="1.0"/>
     <text stroke="none" x="96.0" y="233.0" font-size="10.0" font-family="helvetica">NT1.5</text>
    </g>
    <g>
     <circle stroke="black" stroke-width="0.5" fill="#aaffff" cx="125.0" cy="411.0" r="1.0"/>
     <text stroke="none" x="125.0" y="411.0" font-size="10.0" font-family="helvetica">NT1.6</text>
    </g>
    <g>
     <circle stroke="black" stroke-width="0.5" fill="#aaffff" cx="126.0" cy="413.0" r="1.0"/>
     <text stroke="none" x="126.0" y="413.0" font-size="10.0" font-family="helvetica">NT1.7</text>
    </g>
    <g>
     <circle stroke="black" stroke-width="0.5" fill="#aaffff" cx="129.0" cy="273.0" r="1.0"/>
     <text stroke="none" x="129.0" y="273.0" font-size="10.0" font-family="helvetica">NT1.8</text>
    </g>
    <g>
     <circle stroke="black" stroke-width="0.5" fill="#aaffff" cx="154.0" cy="470.0" r="1.0"/>
     <text stroke="none" x="154.0" y="470.0" font-size="20.0" font-family="helvetica">92</text>
    </g>
    <g>
     <circle stroke="black" stroke-width="0.5" fill="#aaffff" cx="174.0" cy="159.0" r="1.0"/>
     <text stroke="none" x="174.0" y="159.0" font-size="10.0" font-family="helvetica">NT1.10</text>
    </g>
    <g>
     <circle stroke="black" stroke-width="0.5" fill="#aaffff" cx="191.0" cy="312.0" r="1.0"/>
     <text stroke="none" x="191.0" y="312.0" font-size="10.0" font-family="helvetica">NT1.11</text>
    </g>
    <g>
     <circle stroke="black" stroke-width="0.5" fill="#aaffff" cx="234.0" cy="253.0" r="1.0"/>
     <text stroke="none" x="234.0" y="253.0" font-size="10.0" font-family="helvetica">NT1.12</text>
    </g>
    <g>
     <circle stroke="black" stroke-width="0.5" fill="#aaffff" cx="235.0" cy="255.0" r="1.0"/>
     <text stroke="none" x="235.0" y="255.0" font-size="10.0" font-family="helvetica">NT1.13</text>
    </g>
    <g>
     <circle stroke="black" stroke-width="0.5" fill="#aaffff" cx="243.0" cy="413.0" r="1.0"/>
     <text stroke="none" x="243.0" y="413.0" font-size="10.0" font-family="helvetica">NT1.14</text>
    </g>
    <g>
     <circle stroke="black" stroke-width="0.5" fill="#aaffff" cx="252.0" cy="119.0" r="1.0"/>
     <text stroke="none" x="252.0" y="119.0" font-size="10.0" font-family="helvetica">NT1.15</text>
    </g>
    <g>
     <circle stroke="black" stroke-width="0.5" fill="#aaffff" cx="284.0" cy="352.0" r="1.0"/>
     <text stroke="none" x="284.0" y="352.0" font-size="10.0" font-family="helvetica">NT1.16</text>
    </g>
    <g>
     <circle stroke="black" stroke-width="0.5" fill="#aaffff" cx="300.0" cy="80.0" r="1.0"/>
     <text stroke="none" x="300.0" y="80.0" font-size="10.0" font-family="helvetica">NT1.17</text>
    </g>
    <g>
     <circle stroke="black" stroke-width="0.5" fill="#aaffff" cx="318.0" cy="335.0" r="1.0"/>
     <text stroke="none" x="318.0" y="335.0" font-size="10.0" font-family="helvetica">NT1.18</text>
    </g>
    <g>
     <circle stroke="black" stroke-width="0.5" fill="#aaffff" cx="321.0" cy="374.0" r="1.0"/>
     <text stroke="none" x="321.0" y="374.0" font-size="10.0" font-family="helvetica">NT1.19</text>
    </g>
    <g>
     <circle stroke="black" stroke-width="0.5" fill="#aaffff" cx="327.0" cy="40.0" r="1.0"/>
     <text stroke="none" x="327.0" y="40.0" font-size="10.0" font-family="helvetica">NT1.20</text>
    </g>
    <g>
     <circle stroke="black" stroke-width="0.5" fill="#aaffff" cx="358.0" cy="453.0" r="1.0"/>
     <text stroke="none" x="358.0" y="453.0" font-size="10.0" font-family="helvetica">NT1.21</text>
    </g>
    <g>
     <circle stroke="black" stroke-width="0.5" fill="#aaffff" cx="402.0" cy="216.0" r="1.0"/>
     <text stroke="none" x="402.0" y="216.0" font-size="10.0" font-family="helvetica">NT1.22</text>
    </g>
    <g>
     <circle stroke="black" stroke-width="0.5" fill="#aaffff" cx="433.0" cy="58.0" r="1.0"/>
     <text stroke="none" x="433.0" y="58.0" font-size="20.0" font-family="helvetica">Xanthomonas campestris LMG 568T (X95917)</text>
    </g>
    <g>
     <circle stroke="black" stroke-width="0.5" fill="#aaffff" cx="435.0" cy="295.0" r="1.0"/>
     <text stroke="none" x="435.0" y="295.0" font-size="10.0" font-family="helvetica">NT1.24</text>
    </g>
    <g>
     <circle stroke="black" stroke-width="0.5" fill="#aaffff" cx="445.0" cy="255.0" r="1.0"/>
     <text stroke="none" x="445.0" y="255.0" font-size="20.0" font-family="helvetica">Lysobacter enzymogenes DSM 20437 (AJ298291)</text>
    </g>
    <g>
     <circle stroke="black" stroke-width="0.5" fill="#aaffff" cx="452.0" cy="492.0" r="1.0"/>
     <text stroke="none" x="452.0" y="492.0" font-size="20.0" font-family="helvetica">Lysobacter defluvii IMMIB APB-9' (AM283465)</text>
    </g>
    <g>
     <circle stroke="black" stroke-width="0.5" fill="#aaffff" cx="511.0" cy="176.0" r="1.0"/>
     <text stroke="none" x="511.0" y="176.0" font-size="20.0" font-family="helvetica">Lysobacter brunescens LMG 8761T (AB161360)</text>
    </g>
    <g>
     <circle stroke="black" stroke-width="0.5" fill="#aaffff" cx="547.0" cy="18.0" r="1.0"/>
     <text stroke="none" x="547.0" y="18.0" font-size="20.0" font-family="helvetica">Pseudoxanthomonas broegbernensis B1616l1T (AJO12231)</text>
    </g>
    <g>
     <circle stroke="black" stroke-width="0.5" fill="#aaffff" cx="547.0" cy="97.0" r="1.0"/>
     <text stroke="none" x="547.0" y="97.0" font-size="20.0" font-family="helvetica">Stenotrophomonas maltophilia DSM 501707 (M59158)</text>
    </g>
    <g>
     <circle stroke="black" stroke-width="0.5" fill="#aaffff" cx="672.0" cy="136.0" r="1.0"/>
     <text stroke="none" x="672.0" y="136.0" font-size="20.0" font-family="helvetica">Xylella fastidiosa ATCC 35879' (AF192343)</text>
    </g>
    <line stroke="black" x1="0.0" y1="314.0" x2="4.0" y2="314.0" stroke-width="0.5"/>
    <line stroke="black" x1="445.0" y1="255.0" x2="235.0" y2="255.0" stroke-width="0.5"/>
    <line stroke="black" x1="327.0" y1="40.0" x2="300.0" y2="80.0" stroke-width="0.5"/>
    <line stroke="black" x1="300.0" y1="80.0" x2="252.0" y2="119.0" stroke-width="0.5"/>
    <line stroke="black" x1="252.0" y1="119.0" x2="174.0" y2="159.0" stroke-width="0.5"/>
    <line stroke="black" x1="174.0" y1="159.0" x2="67.0" y2="198.0" stroke-width="0.5"/>
    <line stroke="black" x1="67.0" y1="198.0" x2="4.0" y2="314.0" stroke-width="0.5"/>
    <line stroke="black" x1="452.0" y1="492.0" x2="154.0" y2="470.0" stroke-width="0.5"/>
    <line stroke="black" x1="511.0" y1="176.0" x2="174.0" y2="159.0" stroke-width="0.5"/>
    <line stroke="black" x1="433.0" y1="58.0" x2="327.0" y2="40.0" stroke-width="0.5"/>
    <line stroke="black" x1="547.0" y1="97.0" x2="300.0" y2="80.0" stroke-width="0.5"/>
    <line stroke="black" x1="672.0" y1="136.0" x2="252.0" y2="119.0" stroke-width="0.5"/>
    <line stroke="black" x1="547.0" y1="18.0" x2="327.0" y2="40.0" stroke-width="0.5"/>
   </g>
  </g>
 </svg>
</svg>
