<?xml version="1.0" encoding="UTF-8"?>
<svg height="800.0" width="700.0" xmlns="http://www.w3.org/2000/svg">
 <svg>
  <g>
   <g>
    <g>
     <circle stroke="black" stroke-width="0.5" fill="#aaffff" cx="30.0" cy="479.0" r="1.0"/>
     <text stroke="none" x="30.0" y="479.0" font-size="10.0" font-family="helvetica">NT1.1</text>
    </g>
    <g>
     <circle stroke="black" stroke-width="0.5" fill="#aaffff" cx="44.0" cy="289.0" r="1.0"/>
     <text stroke="none" x="44.0" y="289.0" font-size="10.0" font-family="helvetica">NT1.2</text>
    </g>
    <g>
     <circle stroke="black" stroke-width="0.5" fill="#aaffff" cx="72.0" cy="666.0" r="1.0"/>
     <text stroke="none" x="72.0" y="666.0" font-size="10.0" font-family="helvetica">NT1.3</text>
    </g>
    <g>
     <circle stroke="black" stroke-width="0.5" fill="#aaffff" cx="79.0" cy="424.0" r="1.0"/>
     <text stroke="none" x="79.0" y="424.0" font-size="10.0" font-family="helvetica">NT1.4</text>
    </g>
    <g>
     <circle stroke="black" stroke-width="0.5" fill="#aaffff" cx="98.0" cy="374.0" r="1.0"/>
     <text stroke="none" x="98.0" y="374.0" font-size="10.0" font-family="helvetica">NT1.5</text>
    </g>
    <g>
     <circle stroke="black" stroke-width="0.5" fill="#aaffff" cx="134.0" cy="153.0" r="1.0"/>
     <text stroke="none" x="134.0" y="153.0" font-size="10.0" font-family="helvetica">NT1.6</text>
    </g>
    <g>
     <circle stroke="black" stroke-width="0.5" fill="#aaffff" cx="175.0" cy="216.0" r="1.0"/>
     <text stroke="none" x="175.0" y="216.0" font-size="10.0" font-family="helvetica">NT1.7</text>
    </g>
    <g>
     <circle stroke="black" stroke-width="0.5" fill="#aaffff" cx="180.0" cy="88.0" r="1.0"/>
     <text stroke="none" x="180.0" y="88.0" font-size="10.0" font-family="helvetica">NT1.8</text>
    </g>
    <g>
     <circle stroke="black" stroke-width="0.5" fill="#aaffff" cx="188.0" cy="45.0" r="1.0"/>
     <text stroke="none" x="188.0" y="45.0" font-size="10.0" font-family="helvetica">NT1.9</text>
    </g>
    <g>
     <circle stroke="black" stroke-width="0.5" fill="#aaffff" cx="214.0" cy="730.0" r="1.0"/>
     <text stroke="none" x="214.0" y="730.0" font-size="10.0" font-family="helvetica">NT1.10</text>
    </g>
    <g>
     <circle stroke="black" stroke-width="0.5" fill="#aaffff" cx="230.0" cy="604.0" r="1.0"/>
     <text stroke="none" x="230.0" y="604.0" font-size="10.0" font-family="helvetica">NT1.11</text>
    </g>
    <g>
     <circle stroke="black" stroke-width="0.5" fill="#aaffff" cx="290.0" cy="332.0" r="1.0"/>
     <text stroke="none" x="290.0" y="332.0" font-size="20.0" font-family="helvetica">100</text>
    </g>
    <g>
     <circle stroke="black" stroke-width="0.5" fill="#aaffff" cx="329.0" cy="245.0" r="1.0"/>
     <text stroke="none" x="329.0" y="245.0" font-size="20.0" font-family="helvetica">Hongiella mannitolivorans IMSNU 140127 (AY264838)</text>
    </g>
    <g>
     <circle stroke="black" stroke-width="0.5" fill="#aaffff" cx="344.0" cy="74.0" r="1.0"/>
     <text stroke="none" x="344.0" y="74.0" font-size="20.0" font-family="helvetica">Belliella baltica DSM 158837 (AJ564643)</text>
    </g>
    <g>
     <circle stroke="black" stroke-width="0.5" fill="#aaffff" cx="371.0" cy="16.0" r="1.0"/>
     <text stroke="none" x="371.0" y="16.0" font-size="20.0" font-family="helvetica">Aquiflexum balticum DSM 16537T (AJ744861)</text>
    </g>
    <g>
     <circle stroke="black" stroke-width="0.5" fill="#aaffff" cx="383.0" cy="130.0" r="1.0"/>
     <text stroke="none" x="383.0" y="130.0" font-size="20.0" font-family="helvetica">Cyclobacterium marinum LMG 131647 (AJ575266)</text>
    </g>
    <g>
     <circle stroke="black" stroke-width="0.5" fill="#aaffff" cx="414.0" cy="560.0" r="1.0"/>
     <text stroke="none" x="414.0" y="560.0" font-size="10.0" font-family="helvetica">NT1.17</text>
    </g>
    <g>
     <circle stroke="black" stroke-width="0.5" fill="#aaffff" cx="425.0" cy="302.0" r="1.0"/>
     <text stroke="none" x="425.0" y="302.0" font-size="20.0" font-family="helvetica">Arcicella aquatica LMG 21963T (AJ535729)</text>
    </g>
    <g>
     <circle stroke="black" stroke-width="0.5" fill="#aaffff" cx="430.0" cy="359.0" r="1.0"/>
     <text stroke="none" x="430.0" y="359.0" font-size="20.0" font-family="helvetica">Flectobacillus major ATCC 29496T (M62787)</text>
    </g>
    <g>
     <circle stroke="black" stroke-width="0.5" fill="#aaffff" cx="448.0" cy="703.0" r="1.0"/>
     <text stroke="none" x="448.0" y="703.0" font-size="20.0" font-family="helvetica">Dyadobacter fermentans ATCC 700827T (AF137029)</text>
    </g>
    <g>
     <circle stroke="black" stroke-width="0.5" fill="#aaffff" cx="464.0" cy="416.0" r="1.0"/>
     <text stroke="none" x="464.0" y="416.0" font-size="20.0" font-family="helvetica">Flexibacter flexilis ATCC 23O79T (M62794)</text>
    </g>
    <g>
     <circle stroke="black" stroke-width="0.5" fill="#aaffff" cx="466.0" cy="187.0" r="1.0"/>
     <text stroke="none" x="466.0" y="187.0" font-size="20.0" font-family="helvetica">Algoriphagus ratkowskyi LMG 21435T (U85891)</text>
    </g>
    <g>
     <circle stroke="black" stroke-width="0.5" fill="#aaffff" cx="518.0" cy="474.0" r="1.0"/>
     <text stroke="none" x="518.0" y="474.0" font-size="20.0" font-family="helvetica">Microscilla marina ATCC 23134T (M58793)</text>
    </g>
    <g>
     <circle stroke="black" stroke-width="0.5" fill="#aaffff" cx="523.0" cy="646.0" r="1.0"/>
     <text stroke="none" x="523.0" y="646.0" font-size="20.0" font-family="helvetica">Larkinella insperata LMG 2251OT (AMOOOO22)</text>
    </g>
    <g>
     <circle stroke="black" stroke-width="0.5" fill="#aaffff" cx="549.0" cy="588.0" r="1.0"/>
     <text stroke="none" x="549.0" y="588.0" font-size="20.0" font-family="helvetica">Strain WPCB118T (EF507900)</text>
    </g>
    <g>
     <circle stroke="black" stroke-width="0.5" fill="#aaffff" cx="552.0" cy="531.0" r="1.0"/>
     <text stroke="none" x="552.0" y="531.0" font-size="20.0" font-family="helvetica">Spirosoma linguale LMG 1O896T (AMOO0O23)</text>
    </g>
    <g>
     <circle stroke="black" stroke-width="0.5" fill="#aaffff" cx="572.0" cy="761.0" r="1.0"/>
     <text stroke="none" x="572.0" y="761.0" font-size="20.0" font-family="helvetica">Runella slithyformis ATCC 29530T (M62786)</text>
    </g>
    <g>
     <circle stroke="black" stroke-width="0.5" fill="#aaffff" cx="683.0" cy="818.0" r="1.0"/>
     <text stroke="none" x="683.0" y="818.0" font-size="20.0" font-family="helvetica">Bacteroides fragilis ATCC 25285T (X83935)</text>
    </g>
    <line stroke="black" x1="371.0" y1="16.0" x2="188.0" y2="45.0" stroke-width="0.5"/>
    <line stroke="black" x1="344.0" y1="74.0" x2="188.0" y2="45.0" stroke-width="0.5"/>
    <line stroke="black" x1="383.0" y1="130.0" x2="180.0" y2="88.0" stroke-width="0.5"/>
    <line stroke="black" x1="329.0" y1="245.0" x2="175.0" y2="216.0" stroke-width="0.5"/>
    <line stroke="black" x1="466.0" y1="187.0" x2="175.0" y2="216.0" stroke-width="0.5"/>
    <line stroke="black" x1="425.0" y1="302.0" x2="290.0" y2="332.0" stroke-width="0.5"/>
    <line stroke="black" x1="464.0" y1="416.0" x2="98.0" y2="374.0" stroke-width="0.5"/>
    <line stroke="black" x1="572.0" y1="761.0" x2="214.0" y2="730.0" stroke-width="0.5"/>
    <line stroke="black" x1="549.0" y1="588.0" x2="414.0" y2="560.0" stroke-width="0.5"/>
    <line stroke="black" x1="552.0" y1="531.0" x2="414.0" y2="560.0" stroke-width="0.5"/>
    <line stroke="black" x1="188.0" y1="45.0" x2="180.0" y2="88.0" stroke-width="0.5"/>
    <line stroke="black" x1="180.0" y1="88.0" x2="134.0" y2="153.0" stroke-width="0.5"/>
    <line stroke="black" x1="134.0" y1="153.0" x2="44.0" y2="289.0" stroke-width="0.5"/>
    <line stroke="black" x1="134.0" y1="153.0" x2="175.0" y2="216.0" stroke-width="0.5"/>
    <line stroke="black" x1="44.0" y1="289.0" x2="30.0" y2="479.0" stroke-width="0.5"/>
    <line stroke="black" x1="44.0" y1="289.0" x2="79.0" y2="424.0" stroke-width="0.5"/>
    <line stroke="black" x1="79.0" y1="424.0" x2="98.0" y2="374.0" stroke-width="0.5"/>
    <line stroke="black" x1="30.0" y1="479.0" x2="72.0" y2="666.0" stroke-width="0.5"/>
    <line stroke="black" x1="98.0" y1="374.0" x2="290.0" y2="332.0" stroke-width="0.5"/>
    <line stroke="black" x1="72.0" y1="666.0" x2="214.0" y2="730.0" stroke-width="0.5"/>
    <line stroke="black" x1="72.0" y1="666.0" x2="230.0" y2="604.0" stroke-width="0.5"/>
    <line stroke="black" x1="230.0" y1="604.0" x2="414.0" y2="560.0" stroke-width="0.5"/>
    <line stroke="black" x1="683.0" y1="818.0" x2="30.0" y2="479.0" stroke-width="0.5"/>
    <line stroke="black" x1="518.0" y1="474.0" x2="79.0" y2="424.0" stroke-width="0.5"/>
    <line stroke="black" x1="448.0" y1="703.0" x2="214.0" y2="730.0" stroke-width="0.5"/>
    <line stroke="black" x1="523.0" y1="646.0" x2="230.0" y2="604.0" stroke-width="0.5"/>
    <line stroke="black" x1="430.0" y1="359.0" x2="290.0" y2="332.0" stroke-width="0.5"/>
   </g>
  </g>
 </svg>
</svg>
