<?xml version="1.0" encoding="UTF-8"?>
<svg height="800.0" width="700.0" xmlns="http://www.w3.org/2000/svg">
 <svg>
  <g>
   <g>
    <g>
     <circle stroke="black" stroke-width="0.5" fill="#aaffff" cx="31.0" cy="1238.0" r="1.0"/>
     <text stroke="none" x="31.0" y="1238.0" font-size="10.0" font-family="helvetica">NT1.1</text>
    </g>
    <g>
     <circle stroke="black" stroke-width="0.5" fill="#aaffff" cx="34.0" cy="1239.0" r="1.0"/>
     <text stroke="none" x="34.0" y="1239.0" font-size="20.0" font-family="helvetica"/>
    </g>
    <g>
     <circle stroke="black" stroke-width="0.5" fill="#aaffff" cx="50.0" cy="976.0" r="1.0"/>
     <text stroke="none" x="50.0" y="976.0" font-size="10.0" font-family="helvetica">NT1.3</text>
    </g>
    <g>
     <circle stroke="black" stroke-width="0.5" fill="#aaffff" cx="137.0" cy="1128.0" r="1.0"/>
     <text stroke="none" x="137.0" y="1128.0" font-size="10.0" font-family="helvetica">NT1.4</text>
    </g>
    <g>
     <circle stroke="black" stroke-width="0.5" fill="#aaffff" cx="138.0" cy="1094.0" r="1.0"/>
     <text stroke="none" x="138.0" y="1094.0" font-size="20.0" font-family="helvetica">Pseudomonas brenneri DSM 152947 (AF268968)</text>
    </g>
    <g>
     <circle stroke="black" stroke-width="0.5" fill="#aaffff" cx="139.0" cy="1131.0" r="1.0"/>
     <text stroke="none" x="139.0" y="1131.0" font-size="10.0" font-family="helvetica">NT1.6</text>
    </g>
    <g>
     <circle stroke="black" stroke-width="0.5" fill="#aaffff" cx="144.0" cy="1131.0" r="1.0"/>
     <text stroke="none" x="144.0" y="1131.0" font-size="20.0" font-family="helvetica"/>
    </g>
    <g>
     <circle stroke="black" stroke-width="0.5" fill="#aaffff" cx="156.0" cy="1632.0" r="1.0"/>
     <text stroke="none" x="156.0" y="1632.0" font-size="20.0" font-family="helvetica">Pseudomonas migulae CIP 1054707 (AF074383)</text>
    </g>
    <g>
     <circle stroke="black" stroke-width="0.5" fill="#aaffff" cx="158.0" cy="822.0" r="1.0"/>
     <text stroke="none" x="158.0" y="822.0" font-size="10.0" font-family="helvetica">NT1.9</text>
    </g>
    <g>
     <circle stroke="black" stroke-width="0.5" fill="#aaffff" cx="161.0" cy="1468.0" r="1.0"/>
     <text stroke="none" x="161.0" y="1468.0" font-size="10.0" font-family="helvetica">NT1.10</text>
    </g>
    <g>
     <circle stroke="black" stroke-width="0.5" fill="#aaffff" cx="185.0" cy="994.0" r="1.0"/>
     <text stroke="none" x="185.0" y="994.0" font-size="10.0" font-family="helvetica">NT1.11</text>
    </g>
    <g>
     <circle stroke="black" stroke-width="0.5" fill="#aaffff" cx="199.0" cy="649.0" r="1.0"/>
     <text stroke="none" x="199.0" y="649.0" font-size="10.0" font-family="helvetica">NT1.12</text>
    </g>
    <g>
     <circle stroke="black" stroke-width="0.5" fill="#aaffff" cx="202.0" cy="994.0" r="1.0"/>
     <text stroke="none" x="202.0" y="994.0" font-size="20.0" font-family="helvetica"/>
    </g>
    <g>
     <circle stroke="black" stroke-width="0.5" fill="#aaffff" cx="205.0" cy="452.0" r="1.0"/>
     <text stroke="none" x="205.0" y="452.0" font-size="10.0" font-family="helvetica">NT1.14</text>
    </g>
    <g>
     <circle stroke="black" stroke-width="0.5" fill="#aaffff" cx="214.0" cy="1372.0" r="1.0"/>
     <text stroke="none" x="214.0" y="1372.0" font-size="10.0" font-family="helvetica">NT1.15</text>
    </g>
    <g>
     <circle stroke="black" stroke-width="0.5" fill="#aaffff" cx="220.0" cy="1314.0" r="1.0"/>
     <text stroke="none" x="220.0" y="1314.0" font-size="10.0" font-family="helvetica">NT1.16</text>
    </g>
    <g>
     <circle stroke="black" stroke-width="0.5" fill="#aaffff" cx="224.0" cy="843.0" r="1.0"/>
     <text stroke="none" x="224.0" y="843.0" font-size="10.0" font-family="helvetica">NT1.17</text>
    </g>
    <g>
     <circle stroke="black" stroke-width="0.5" fill="#aaffff" cx="229.0" cy="844.0" r="1.0"/>
     <text stroke="none" x="229.0" y="844.0" font-size="20.0" font-family="helvetica"/>
    </g>
    <g>
     <circle stroke="black" stroke-width="0.5" fill="#aaffff" cx="232.0" cy="1264.0" r="1.0"/>
     <text stroke="none" x="232.0" y="1264.0" font-size="10.0" font-family="helvetica">NT1.19</text>
    </g>
    <g>
     <circle stroke="black" stroke-width="0.5" fill="#aaffff" cx="243.0" cy="633.0" r="1.0"/>
     <text stroke="none" x="243.0" y="633.0" font-size="10.0" font-family="helvetica">NT1.20</text>
    </g>
    <g>
     <circle stroke="black" stroke-width="0.5" fill="#aaffff" cx="245.0" cy="635.0" r="1.0"/>
     <text stroke="none" x="245.0" y="635.0" font-size="10.0" font-family="helvetica">NT1.21</text>
    </g>
    <g>
     <circle stroke="black" stroke-width="0.5" fill="#aaffff" cx="250.0" cy="1163.0" r="1.0"/>
     <text stroke="none" x="250.0" y="1163.0" font-size="20.0" font-family="helvetica">Pseudomonas proteolytica DSM 153217 (AJ537603)</text>
    </g>
    <g>
     <circle stroke="black" stroke-width="0.5" fill="#aaffff" cx="250.0" cy="1431.0" r="1.0"/>
     <text stroke="none" x="250.0" y="1431.0" font-size="20.0" font-family="helvetica">Pseudomonas gessardii CIP 171527 (AF074384)</text>
    </g>
    <g>
     <circle stroke="black" stroke-width="0.5" fill="#aaffff" cx="250.0" cy="270.0" r="1.0"/>
     <text stroke="none" x="250.0" y="270.0" font-size="10.0" font-family="helvetica">NT1.24</text>
    </g>
    <g>
     <circle stroke="black" stroke-width="0.5" fill="#aaffff" cx="251.0" cy="635.0" r="1.0"/>
     <text stroke="none" x="251.0" y="635.0" font-size="20.0" font-family="helvetica"/>
    </g>
    <g>
     <circle stroke="black" stroke-width="0.5" fill="#aaffff" cx="254.0" cy="271.0" r="1.0"/>
     <text stroke="none" x="254.0" y="271.0" font-size="20.0" font-family="helvetica"/>
    </g>
    <g>
     <circle stroke="black" stroke-width="0.5" fill="#aaffff" cx="256.0" cy="794.0" r="1.0"/>
     <text stroke="none" x="256.0" y="794.0" font-size="10.0" font-family="helvetica">NT1.27</text>
    </g>
    <g>
     <circle stroke="black" stroke-width="0.5" fill="#aaffff" cx="259.0" cy="1229.0" r="1.0"/>
     <text stroke="none" x="259.0" y="1229.0" font-size="20.0" font-family="helvetica">Pseudomonas Iibanensis DSM 171497 (AFO57645)</text>
    </g>
    <g>
     <circle stroke="black" stroke-width="0.5" fill="#aaffff" cx="260.0" cy="795.0" r="1.0"/>
     <text stroke="none" x="260.0" y="795.0" font-size="20.0" font-family="helvetica"/>
    </g>
    <g>
     <circle stroke="black" stroke-width="0.5" fill="#aaffff" cx="261.0" cy="166.0" r="1.0"/>
     <text stroke="none" x="261.0" y="166.0" font-size="10.0" font-family="helvetica">NT1.30</text>
    </g>
    <g>
     <circle stroke="black" stroke-width="0.5" fill="#aaffff" cx="267.0" cy="374.0" r="1.0"/>
     <text stroke="none" x="267.0" y="374.0" font-size="10.0" font-family="helvetica">NT1.31</text>
    </g>
    <g>
     <circle stroke="black" stroke-width="0.5" fill="#aaffff" cx="271.0" cy="425.0" r="1.0"/>
     <text stroke="none" x="271.0" y="425.0" font-size="20.0" font-family="helvetica">Pseudomonas simiae CCUG</text>
    </g>
    <g>
     <circle stroke="black" stroke-width="0.5" fill="#aaffff" cx="285.0" cy="760.0" r="1.0"/>
     <text stroke="none" x="285.0" y="760.0" font-size="20.0" font-family="helvetica">Pseudomonas antarctica DSM 153187 (AJ537601)</text>
    </g>
    <g>
     <circle stroke="black" stroke-width="0.5" fill="#aaffff" cx="285.0" cy="827.0" r="1.0"/>
     <text stroke="none" x="285.0" y="827.0" font-size="20.0" font-family="helvetica">Pseudomonas meridiana DSM 153197 (AJ537602)</text>
    </g>
    <g>
     <circle stroke="black" stroke-width="0.5" fill="#aaffff" cx="291.0" cy="325.0" r="1.0"/>
     <text stroke="none" x="291.0" y="325.0" font-size="10.0" font-family="helvetica">NT1.35</text>
    </g>
    <g>
     <circle stroke="black" stroke-width="0.5" fill="#aaffff" cx="294.0" cy="290.0" r="1.0"/>
     <text stroke="none" x="294.0" y="290.0" font-size="20.0" font-family="helvetica">Pseudomonas poae DSM 149367 (AJ492829)</text>
    </g>
    <g>
     <circle stroke="black" stroke-width="0.5" fill="#aaffff" cx="296.0" cy="324.0" r="1.0"/>
     <text stroke="none" x="296.0" y="324.0" font-size="20.0" font-family="helvetica"/>
    </g>
    <g>
     <circle stroke="black" stroke-width="0.5" fill="#aaffff" cx="308.0" cy="1497.0" r="1.0"/>
     <text stroke="none" x="308.0" y="1497.0" font-size="20.0" font-family="helvetica">Pseudomonas azotoformans IAM 16037 (D84009)</text>
    </g>
    <g>
     <circle stroke="black" stroke-width="0.5" fill="#aaffff" cx="308.0" cy="1565.0" r="1.0"/>
     <text stroke="none" x="308.0" y="1565.0" font-size="20.0" font-family="helvetica">Pseudomonas cedrina DSM 175167 (AF064461)</text>
    </g>
    <g>
     <circle stroke="black" stroke-width="0.5" fill="#aaffff" cx="311.0" cy="576.0" r="1.0"/>
     <text stroke="none" x="311.0" y="576.0" font-size="10.0" font-family="helvetica">NT1.40</text>
    </g>
    <g>
     <circle stroke="black" stroke-width="0.5" fill="#aaffff" cx="314.0" cy="358.0" r="1.0"/>
     <text stroke="none" x="314.0" y="358.0" font-size="20.0" font-family="helvetica">Pseudomonas trivialis DSM 149377 (AJ492831)</text>
    </g>
    <g>
     <circle stroke="black" stroke-width="0.5" fill="#aaffff" cx="316.0" cy="575.0" r="1.0"/>
     <text stroke="none" x="316.0" y="575.0" font-size="20.0" font-family="helvetica"/>
    </g>
    <g>
     <circle stroke="black" stroke-width="0.5" fill="#aaffff" cx="316.0" cy="107.0" r="1.0"/>
     <text stroke="none" x="316.0" y="107.0" font-size="10.0" font-family="helvetica">NT1.43</text>
    </g>
    <g>
     <circle stroke="black" stroke-width="0.5" fill="#aaffff" cx="318.0" cy="105.0" r="1.0"/>
     <text stroke="none" x="318.0" y="105.0" font-size="10.0" font-family="helvetica">NT1.44</text>
    </g>
    <g>
     <circle stroke="black" stroke-width="0.5" fill="#aaffff" cx="319.0" cy="535.0" r="1.0"/>
     <text stroke="none" x="319.0" y="535.0" font-size="10.0" font-family="helvetica">NT1.45</text>
    </g>
    <g>
     <circle stroke="black" stroke-width="0.5" fill="#aaffff" cx="320.0" cy="224.0" r="1.0"/>
     <text stroke="none" x="320.0" y="224.0" font-size="20.0" font-family="helvetica">Pseudomonas extremorientalis KMM 34477 (AF405328)</text>
    </g>
    <g>
     <circle stroke="black" stroke-width="0.5" fill="#aaffff" cx="320.0" cy="694.0" r="1.0"/>
     <text stroke="none" x="320.0" y="694.0" font-size="20.0" font-family="helvetica">Pseudomonas veronii CIP 1046637 (AF064460)</text>
    </g>
    <g>
     <circle stroke="black" stroke-width="0.5" fill="#aaffff" cx="321.0" cy="105.0" r="1.0"/>
     <text stroke="none" x="321.0" y="105.0" font-size="20.0" font-family="helvetica"/>
    </g>
    <g>
     <circle stroke="black" stroke-width="0.5" fill="#aaffff" cx="323.0" cy="1297.0" r="1.0"/>
     <text stroke="none" x="323.0" y="1297.0" font-size="20.0" font-family="helvetica">Pseudomonas synxantha IAM 123567 (D84025)</text>
    </g>
    <g>
     <circle stroke="black" stroke-width="0.5" fill="#aaffff" cx="335.0" cy="626.0" r="1.0"/>
     <text stroke="none" x="335.0" y="626.0" font-size="20.0" font-family="helvetica">Pseudomonas grimontii CFML 97-5747 (AF268029)</text>
    </g>
    <g>
     <circle stroke="black" stroke-width="0.5" fill="#aaffff" cx="361.0" cy="894.0" r="1.0"/>
     <text stroke="none" x="361.0" y="894.0" font-size="20.0" font-family="helvetica">Pseudomonas orientalis CFML 96-1707 (AFO64457)</text>
    </g>
    <g>
     <circle stroke="black" stroke-width="0.5" fill="#aaffff" cx="364.0" cy="157.0" r="1.0"/>
     <text stroke="none" x="364.0" y="157.0" font-size="20.0" font-family="helvetica">Pseudomonas constantinii CFBP 57057 (AF374472)</text>
    </g>
    <g>
     <circle stroke="black" stroke-width="0.5" fill="#aaffff" cx="367.0" cy="1364.0" r="1.0"/>
     <text stroke="none" x="367.0" y="1364.0" font-size="20.0" font-family="helvetica">Pseudomonas mucidolens IAM 124067 (D84017)</text>
    </g>
    <g>
     <circle stroke="black" stroke-width="0.5" fill="#aaffff" cx="373.0" cy="559.0" r="1.0"/>
     <text stroke="none" x="373.0" y="559.0" font-size="20.0" font-family="helvetica">Pseudomonas rhodesiae CIP 1046647 (AF064459)</text>
    </g>
    <g>
     <circle stroke="black" stroke-width="0.5" fill="#aaffff" cx="408.0" cy="56.0" r="1.0"/>
     <text stroke="none" x="408.0" y="56.0" font-size="10.0" font-family="helvetica">NT1.55</text>
    </g>
    <g>
     <circle stroke="black" stroke-width="0.5" fill="#aaffff" cx="412.0" cy="56.0" r="1.0"/>
     <text stroke="none" x="412.0" y="56.0" font-size="20.0" font-family="helvetica"/>
    </g>
    <g>
     <circle stroke="black" stroke-width="0.5" fill="#aaffff" cx="426.0" cy="962.0" r="1.0"/>
     <text stroke="none" x="426.0" y="962.0" font-size="20.0" font-family="helvetica">Pseudomonas salomonii CFBP 20227 (AY091528)</text>
    </g>
    <g>
     <circle stroke="black" stroke-width="0.5" fill="#aaffff" cx="463.0" cy="492.0" r="1.0"/>
     <text stroke="none" x="463.0" y="492.0" font-size="20.0" font-family="helvetica">Pseudomonas marginalis LMG 22107 (276663)</text>
    </g>
    <g>
     <circle stroke="black" stroke-width="0.5" fill="#aaffff" cx="510.0" cy="23.0" r="1.0"/>
     <text stroke="none" x="510.0" y="23.0" font-size="20.0" font-family="helvetica">Pseudomonas palleroniana CFBP 43897 (AY091527)</text>
    </g>
    <g>
     <circle stroke="black" stroke-width="0.5" fill="#aaffff" cx="539.0" cy="1028.0" r="1.0"/>
     <text stroke="none" x="539.0" y="1028.0" font-size="20.0" font-family="helvetica">Pseudomonas fluorescens DSM 500907 (276662)</text>
    </g>
    <g>
     <circle stroke="black" stroke-width="0.5" fill="#aaffff" cx="677.0" cy="90.0" r="1.0"/>
     <text stroke="none" x="677.0" y="90.0" font-size="20.0" font-family="helvetica">Pseudomonas tolaasii LMG 23427 (Z76670)</text>
    </g>
    <line stroke="black" x1="412.0" y1="56.0" x2="408.0" y2="56.0" stroke-width="0.5"/>
    <line stroke="black" x1="321.0" y1="105.0" x2="318.0" y2="105.0" stroke-width="0.5"/>
    <line stroke="black" x1="254.0" y1="271.0" x2="250.0" y2="270.0" stroke-width="0.5"/>
    <line stroke="black" x1="296.0" y1="324.0" x2="291.0" y2="325.0" stroke-width="0.5"/>
    <line stroke="black" x1="294.0" y1="290.0" x2="291.0" y2="325.0" stroke-width="0.5"/>
    <line stroke="black" x1="251.0" y1="635.0" x2="245.0" y2="635.0" stroke-width="0.5"/>
    <line stroke="black" x1="316.0" y1="575.0" x2="311.0" y2="576.0" stroke-width="0.5"/>
    <line stroke="black" x1="320.0" y1="694.0" x2="245.0" y2="635.0" stroke-width="0.5"/>
    <line stroke="black" x1="335.0" y1="626.0" x2="311.0" y2="576.0" stroke-width="0.5"/>
    <line stroke="black" x1="229.0" y1="844.0" x2="224.0" y2="843.0" stroke-width="0.5"/>
    <line stroke="black" x1="260.0" y1="795.0" x2="256.0" y2="794.0" stroke-width="0.5"/>
    <line stroke="black" x1="285.0" y1="760.0" x2="256.0" y2="794.0" stroke-width="0.5"/>
    <line stroke="black" x1="285.0" y1="827.0" x2="256.0" y2="794.0" stroke-width="0.5"/>
    <line stroke="black" x1="361.0" y1="894.0" x2="224.0" y2="843.0" stroke-width="0.5"/>
    <line stroke="black" x1="202.0" y1="994.0" x2="185.0" y2="994.0" stroke-width="0.5"/>
    <line stroke="black" x1="144.0" y1="1131.0" x2="139.0" y2="1131.0" stroke-width="0.5"/>
    <line stroke="black" x1="138.0" y1="1094.0" x2="137.0" y2="1128.0" stroke-width="0.5"/>
    <line stroke="black" x1="34.0" y1="1239.0" x2="31.0" y2="1238.0" stroke-width="0.5"/>
    <line stroke="black" x1="250.0" y1="1163.0" x2="139.0" y2="1131.0" stroke-width="0.5"/>
    <line stroke="black" x1="308.0" y1="1497.0" x2="161.0" y2="1468.0" stroke-width="0.5"/>
    <line stroke="black" x1="250.0" y1="1431.0" x2="214.0" y2="1372.0" stroke-width="0.5"/>
    <line stroke="black" x1="259.0" y1="1229.0" x2="232.0" y2="1264.0" stroke-width="0.5"/>
    <line stroke="black" x1="323.0" y1="1297.0" x2="232.0" y2="1264.0" stroke-width="0.5"/>
    <line stroke="black" x1="367.0" y1="1364.0" x2="220.0" y2="1314.0" stroke-width="0.5"/>
    <line stroke="black" x1="408.0" y1="56.0" x2="318.0" y2="105.0" stroke-width="0.5"/>
    <line stroke="black" x1="316.0" y1="107.0" x2="318.0" y2="105.0" stroke-width="0.5"/>
    <line stroke="black" x1="316.0" y1="107.0" x2="261.0" y2="166.0" stroke-width="0.5"/>
    <line stroke="black" x1="261.0" y1="166.0" x2="250.0" y2="270.0" stroke-width="0.5"/>
    <line stroke="black" x1="250.0" y1="270.0" x2="205.0" y2="452.0" stroke-width="0.5"/>
    <line stroke="black" x1="250.0" y1="270.0" x2="267.0" y2="374.0" stroke-width="0.5"/>
    <line stroke="black" x1="267.0" y1="374.0" x2="291.0" y2="325.0" stroke-width="0.5"/>
    <line stroke="black" x1="205.0" y1="452.0" x2="199.0" y2="649.0" stroke-width="0.5"/>
    <line stroke="black" x1="205.0" y1="452.0" x2="243.0" y2="633.0" stroke-width="0.5"/>
    <line stroke="black" x1="199.0" y1="649.0" x2="158.0" y2="822.0" stroke-width="0.5"/>
    <line stroke="black" x1="199.0" y1="649.0" x2="224.0" y2="843.0" stroke-width="0.5"/>
    <line stroke="black" x1="245.0" y1="635.0" x2="243.0" y2="633.0" stroke-width="0.5"/>
    <line stroke="black" x1="243.0" y1="633.0" x2="311.0" y2="576.0" stroke-width="0.5"/>
    <line stroke="black" x1="311.0" y1="576.0" x2="319.0" y2="535.0" stroke-width="0.5"/>
    <line stroke="black" x1="158.0" y1="822.0" x2="50.0" y2="976.0" stroke-width="0.5"/>
    <line stroke="black" x1="158.0" y1="822.0" x2="185.0" y2="994.0" stroke-width="0.5"/>
    <line stroke="black" x1="224.0" y1="843.0" x2="256.0" y2="794.0" stroke-width="0.5"/>
    <line stroke="black" x1="50.0" y1="976.0" x2="31.0" y2="1238.0" stroke-width="0.5"/>
    <line stroke="black" x1="50.0" y1="976.0" x2="137.0" y2="1128.0" stroke-width="0.5"/>
    <line stroke="black" x1="137.0" y1="1128.0" x2="139.0" y2="1131.0" stroke-width="0.5"/>
    <line stroke="black" x1="31.0" y1="1238.0" x2="161.0" y2="1468.0" stroke-width="0.5"/>
    <line stroke="black" x1="161.0" y1="1468.0" x2="161.0" y2="1468.0" stroke-width="0.5"/>
    <line stroke="black" x1="161.0" y1="1468.0" x2="214.0" y2="1372.0" stroke-width="0.5"/>
    <line stroke="black" x1="214.0" y1="1372.0" x2="220.0" y2="1314.0" stroke-width="0.5"/>
    <line stroke="black" x1="220.0" y1="1314.0" x2="232.0" y2="1264.0" stroke-width="0.5"/>
    <line stroke="black" x1="156.0" y1="1632.0" x2="31.0" y2="1238.0" stroke-width="0.5"/>
    <line stroke="black" x1="308.0" y1="1565.0" x2="161.0" y2="1468.0" stroke-width="0.5"/>
    <line stroke="black" x1="271.0" y1="425.0" x2="267.0" y2="374.0" stroke-width="0.5"/>
    <line stroke="black" x1="426.0" y1="962.0" x2="185.0" y2="994.0" stroke-width="0.5"/>
    <line stroke="black" x1="320.0" y1="224.0" x2="261.0" y2="166.0" stroke-width="0.5"/>
    <line stroke="black" x1="314.0" y1="358.0" x2="291.0" y2="325.0" stroke-width="0.5"/>
    <line stroke="black" x1="539.0" y1="1028.0" x2="185.0" y2="994.0" stroke-width="0.5"/>
    <line stroke="black" x1="364.0" y1="157.0" x2="316.0" y2="107.0" stroke-width="0.5"/>
    <line stroke="black" x1="373.0" y1="559.0" x2="319.0" y2="535.0" stroke-width="0.5"/>
    <line stroke="black" x1="463.0" y1="492.0" x2="319.0" y2="535.0" stroke-width="0.5"/>
    <line stroke="black" x1="510.0" y1="23.0" x2="408.0" y2="56.0" stroke-width="0.5"/>
    <line stroke="black" x1="677.0" y1="90.0" x2="408.0" y2="56.0" stroke-width="0.5"/>
   </g>
  </g>
 </svg>
</svg>
