<?xml version="1.0" encoding="UTF-8"?>
<svg height="800.0" width="700.0" xmlns="http://www.w3.org/2000/svg">
 <svg>
  <g>
   <g>
    <g>
     <circle stroke="black" stroke-width="0.5" fill="#aaffff" cx="80.0" cy="250.0" r="1.0"/>
     <text stroke="none" x="80.0" y="250.0" font-size="10.0" font-family="helvetica">NT1.1</text>
    </g>
    <g>
     <circle stroke="black" stroke-width="0.5" fill="#aaffff" cx="237.0" cy="549.0" r="1.0"/>
     <text stroke="none" x="237.0" y="549.0" font-size="10.0" font-family="helvetica">NT1.2</text>
    </g>
    <g>
     <circle stroke="black" stroke-width="0.5" fill="#aaffff" cx="286.0" cy="169.0" r="1.0"/>
     <text stroke="none" x="286.0" y="169.0" font-size="10.0" font-family="helvetica">NT1.3</text>
    </g>
    <g>
     <circle stroke="black" stroke-width="0.5" fill="#aaffff" cx="286.0" cy="389.0" r="1.0"/>
     <text stroke="none" x="286.0" y="389.0" font-size="10.0" font-family="helvetica">NT1.4</text>
    </g>
    <g>
     <circle stroke="black" stroke-width="0.5" fill="#aaffff" cx="360.0" cy="50.0" r="1.0"/>
     <text stroke="none" x="360.0" y="50.0" font-size="10.0" font-family="helvetica">NT1.5</text>
    </g>
    <g>
     <circle stroke="black" stroke-width="0.5" fill="#aaffff" cx="377.0" cy="225.0" r="1.0"/>
     <text stroke="none" x="377.0" y="225.0" font-size="10.0" font-family="helvetica">NT1.6</text>
    </g>
    <g>
     <circle stroke="black" stroke-width="0.5" fill="#aaffff" cx="443.0" cy="610.0" r="1.0"/>
     <text stroke="none" x="443.0" y="610.0" font-size="10.0" font-family="helvetica">NT1.7</text>
    </g>
    <g>
     <circle stroke="black" stroke-width="0.5" fill="#aaffff" cx="444.0" cy="490.0" r="1.0"/>
     <text stroke="none" x="444.0" y="490.0" font-size="20.0" font-family="helvetica">Algoriphagus halophilus JC 20517 (AY264839)</text>
    </g>
    <g>
     <circle stroke="black" stroke-width="0.5" fill="#aaffff" cx="492.0" cy="410.0" r="1.0"/>
     <text stroke="none" x="492.0" y="410.0" font-size="20.0" font-family="helvetica">Hongiella arnithinivorans JC2052T (AY264840)</text>
    </g>
    <g>
     <circle stroke="black" stroke-width="0.5" fill="#aaffff" cx="492.0" cy="330.0" r="1.0"/>
     <text stroke="none" x="492.0" y="330.0" font-size="20.0" font-family="helvetica">Hongiella marzrtitolivorans JC2050T (AY264838)</text>
    </g>
    <g>
     <circle stroke="black" stroke-width="0.5" fill="#aaffff" cx="566.0" cy="90.0" r="1.0"/>
     <text stroke="none" x="566.0" y="90.0" font-size="20.0" font-family="helvetica">Aquiflexum balticum BA160T (AJ74486l)</text>
    </g>
    <g>
     <circle stroke="black" stroke-width="0.5" fill="#aaffff" cx="584.0" cy="170.0" r="1.0"/>
     <text stroke="none" x="584.0" y="170.0" font-size="20.0" font-family="helvetica">Cyclobacterium marinum ATCC 43824 (M62788)</text>
    </g>
    <g>
     <circle stroke="black" stroke-width="0.5" fill="#aaffff" cx="584.0" cy="250.0" r="1.0"/>
     <text stroke="none" x="584.0" y="250.0" font-size="20.0" font-family="helvetica"/>
    </g>
    <g>
     <circle stroke="black" stroke-width="0.5" fill="#aaffff" cx="648.0" cy="650.0" r="1.0"/>
     <text stroke="none" x="648.0" y="650.0" font-size="20.0" font-family="helvetica">Algoriphagus antarcticus R-107107 (AJ577141)</text>
    </g>
    <g>
     <circle stroke="black" stroke-width="0.5" fill="#aaffff" cx="648.0" cy="570.0" r="1.0"/>
     <text stroke="none" x="648.0" y="570.0" font-size="20.0" font-family="helvetica">Algoriphagus ratkowskyi LMG 214357 (AJ608641)</text>
    </g>
    <g>
     <circle stroke="black" stroke-width="0.5" fill="#aaffff" cx="740.0" cy="10.0" r="1.0"/>
     <text stroke="none" x="740.0" y="10.0" font-size="20.0" font-family="helvetica"> Belliella baltica BA134T (AJ564643)</text>
    </g>
    <line stroke="black" x1="566.0" y1="90.0" x2="360.0" y2="50.0" stroke-width="0.5"/>
    <line stroke="black" x1="740.0" y1="10.0" x2="360.0" y2="50.0" stroke-width="0.5"/>
    <line stroke="black" x1="584.0" y1="170.0" x2="377.0" y2="225.0" stroke-width="0.5"/>
    <line stroke="black" x1="584.0" y1="250.0" x2="377.0" y2="225.0" stroke-width="0.5"/>
    <line stroke="black" x1="492.0" y1="410.0" x2="286.0" y2="389.0" stroke-width="0.5"/>
    <line stroke="black" x1="492.0" y1="330.0" x2="286.0" y2="389.0" stroke-width="0.5"/>
    <line stroke="black" x1="444.0" y1="490.0" x2="237.0" y2="549.0" stroke-width="0.5"/>
    <line stroke="black" x1="648.0" y1="650.0" x2="443.0" y2="610.0" stroke-width="0.5"/>
    <line stroke="black" x1="648.0" y1="570.0" x2="443.0" y2="610.0" stroke-width="0.5"/>
    <line stroke="black" x1="360.0" y1="50.0" x2="286.0" y2="169.0" stroke-width="0.5"/>
    <line stroke="black" x1="286.0" y1="169.0" x2="377.0" y2="225.0" stroke-width="0.5"/>
    <line stroke="black" x1="80.0" y1="250.0" x2="286.0" y2="389.0" stroke-width="0.5"/>
    <line stroke="black" x1="237.0" y1="549.0" x2="443.0" y2="610.0" stroke-width="0.5"/>
    <line stroke="black" x1="80.0" y1="250.0" x2="237.0" y2="549.0" stroke-width="0.5"/>
    <line stroke="black" x1="286.0" y1="169.0" x2="80.0" y2="250.0" stroke-width="0.5"/>
   </g>
  </g>
 </svg>
</svg>
