<?xml version="1.0" encoding="UTF-8"?>
<svg height="800.0" width="700.0" xmlns="http://www.w3.org/2000/svg">
 <svg>
  <g>
   <g>
    <g>
     <circle stroke="black" stroke-width="0.5" fill="#aaffff" cx="549.0" cy="163.0" r="1.0"/>
     <text stroke="none" x="549.0" y="163.0" font-size="20.0" font-family="helvetica"/>
    </g>
    <g>
     <circle stroke="black" stroke-width="0.5" fill="#aaffff" cx="560.0" cy="169.0" r="1.0"/>
     <text stroke="none" x="560.0" y="169.0" font-size="10.0" font-family="helvetica">NT1.2</text>
    </g>
    <g>
     <circle stroke="black" stroke-width="0.5" fill="#aaffff" cx="619.0" cy="354.0" r="1.0"/>
     <text stroke="none" x="619.0" y="354.0" font-size="10.0" font-family="helvetica">NT1.3</text>
    </g>
    <g>
     <circle stroke="black" stroke-width="0.5" fill="#aaffff" cx="635.0" cy="96.0" r="1.0"/>
     <text stroke="none" x="635.0" y="96.0" font-size="20.0" font-family="helvetica"/>
    </g>
    <g>
     <circle stroke="black" stroke-width="0.5" fill="#aaffff" cx="638.0" cy="216.0" r="1.0"/>
     <text stroke="none" x="638.0" y="216.0" font-size="10.0" font-family="helvetica">NT1.5</text>
    </g>
    <g>
     <circle stroke="black" stroke-width="0.5" fill="#aaffff" cx="648.0" cy="259.0" r="1.0"/>
     <text stroke="none" x="648.0" y="259.0" font-size="10.0" font-family="helvetica">NT1.6</text>
    </g>
    <g>
     <circle stroke="black" stroke-width="0.5" fill="#aaffff" cx="654.0" cy="174.0" r="1.0"/>
     <text stroke="none" x="654.0" y="174.0" font-size="10.0" font-family="helvetica">NT1.7</text>
    </g>
    <g>
     <circle stroke="black" stroke-width="0.5" fill="#aaffff" cx="665.0" cy="290.0" r="1.0"/>
     <text stroke="none" x="665.0" y="290.0" font-size="20.0" font-family="helvetica"> Mmc-5</text>
    </g>
    <g>
     <circle stroke="black" stroke-width="0.5" fill="#aaffff" cx="671.0" cy="227.0" r="1.0"/>
     <text stroke="none" x="671.0" y="227.0" font-size="10.0" font-family="helvetica">NT1.9</text>
    </g>
    <g>
     <circle stroke="black" stroke-width="0.5" fill="#aaffff" cx="683.0" cy="134.0" r="1.0"/>
     <text stroke="none" x="683.0" y="134.0" font-size="20.0" font-family="helvetica">MmmLC-2</text>
    </g>
    <g>
     <circle stroke="black" stroke-width="0.5" fill="#aaffff" cx="692.0" cy="56.0" r="1.0"/>
     <text stroke="none" x="692.0" y="56.0" font-size="20.0" font-family="helvetica">MmmLC-4</text>
    </g>
    <g>
     <circle stroke="black" stroke-width="0.5" fill="#aaffff" cx="696.0" cy="483.0" r="1.0"/>
     <text stroke="none" x="696.0" y="483.0" font-size="20.0" font-family="helvetica"> 100</text>
    </g>
    <g>
     <circle stroke="black" stroke-width="0.5" fill="#aaffff" cx="724.0" cy="161.0" r="1.0"/>
     <text stroke="none" x="724.0" y="161.0" font-size="20.0" font-family="helvetica"> MmmLC-3</text>
    </g>
    <g>
     <circle stroke="black" stroke-width="0.5" fill="#aaffff" cx="730.0" cy="187.0" r="1.0"/>
     <text stroke="none" x="730.0" y="187.0" font-size="20.0" font-family="helvetica"> MmmLC-5</text>
    </g>
    <g>
     <circle stroke="black" stroke-width="0.5" fill="#aaffff" cx="736.0" cy="213.0" r="1.0"/>
     <text stroke="none" x="736.0" y="213.0" font-size="20.0" font-family="helvetica"> Mmc-2</text>
    </g>
    <g>
     <circle stroke="black" stroke-width="0.5" fill="#aaffff" cx="744.0" cy="381.0" r="1.0"/>
     <text stroke="none" x="744.0" y="381.0" font-size="20.0" font-family="helvetica"> 100</text>
    </g>
    <g>
     <circle stroke="black" stroke-width="0.5" fill="#aaffff" cx="754.0" cy="239.0" r="1.0"/>
     <text stroke="none" x="754.0" y="239.0" font-size="20.0" font-family="helvetica"> Mmc-3</text>
    </g>
    <line stroke="black" x1="549.0" y1="163.0" x2="560.0" y2="169.0" stroke-width="0.5"/>
    <line stroke="black" x1="665.0" y1="290.0" x2="648.0" y2="259.0" stroke-width="0.5"/>
    <line stroke="black" x1="744.0" y1="381.0" x2="619.0" y2="354.0" stroke-width="0.5"/>
    <line stroke="black" x1="692.0" y1="56.0" x2="560.0" y2="169.0" stroke-width="0.5"/>
    <line stroke="black" x1="560.0" y1="169.0" x2="619.0" y2="354.0" stroke-width="0.5"/>
    <line stroke="black" x1="619.0" y1="354.0" x2="638.0" y2="216.0" stroke-width="0.5"/>
    <line stroke="black" x1="638.0" y1="216.0" x2="648.0" y2="259.0" stroke-width="0.5"/>
    <line stroke="black" x1="638.0" y1="216.0" x2="654.0" y2="174.0" stroke-width="0.5"/>
    <line stroke="black" x1="648.0" y1="259.0" x2="671.0" y2="227.0" stroke-width="0.5"/>
    <line stroke="black" x1="654.0" y1="174.0" x2="730.0" y2="187.0" stroke-width="0.5"/>
    <line stroke="black" x1="654.0" y1="174.0" x2="724.0" y2="161.0" stroke-width="0.5"/>
    <line stroke="black" x1="671.0" y1="227.0" x2="754.0" y2="239.0" stroke-width="0.5"/>
    <line stroke="black" x1="635.0" y1="96.0" x2="560.0" y2="169.0" stroke-width="0.5"/>
    <line stroke="black" x1="696.0" y1="483.0" x2="619.0" y2="354.0" stroke-width="0.5"/>
    <line stroke="black" x1="683.0" y1="134.0" x2="560.0" y2="169.0" stroke-width="0.5"/>
    <line stroke="black" x1="736.0" y1="213.0" x2="671.0" y2="227.0" stroke-width="0.5"/>
   </g>
  </g>
 </svg>
</svg>
