<?xml version="1.0" encoding="UTF-8"?>
<svg height="800.0" width="700.0" xmlns="http://www.w3.org/2000/svg">
 <svg>
  <g>
   <g>
    <g>
     <circle stroke="black" stroke-width="0.5" fill="#aaffff" cx="84.0" cy="270.0" r="1.0"/>
     <text stroke="none" x="84.0" y="270.0" font-size="10.0" font-family="helvetica">NT1.1</text>
    </g>
    <g>
     <circle stroke="black" stroke-width="0.5" fill="#aaffff" cx="142.0" cy="163.0" r="1.0"/>
     <text stroke="none" x="142.0" y="163.0" font-size="10.0" font-family="helvetica">NT1.2</text>
    </g>
    <g>
     <circle stroke="black" stroke-width="0.5" fill="#aaffff" cx="168.0" cy="376.0" r="1.0"/>
     <text stroke="none" x="168.0" y="376.0" font-size="10.0" font-family="helvetica">NT1.3</text>
    </g>
    <g>
     <circle stroke="black" stroke-width="0.5" fill="#aaffff" cx="192.0" cy="609.0" r="1.0"/>
     <text stroke="none" x="192.0" y="609.0" font-size="10.0" font-family="helvetica">NT1.4</text>
    </g>
    <g>
     <circle stroke="black" stroke-width="0.5" fill="#aaffff" cx="237.0" cy="352.0" r="1.0"/>
     <text stroke="none" x="237.0" y="352.0" font-size="10.0" font-family="helvetica">NT1.5</text>
    </g>
    <g>
     <circle stroke="black" stroke-width="0.5" fill="#aaffff" cx="278.0" cy="136.0" r="1.0"/>
     <text stroke="none" x="278.0" y="136.0" font-size="10.0" font-family="helvetica">NT1.6</text>
    </g>
    <g>
     <circle stroke="black" stroke-width="0.5" fill="#aaffff" cx="331.0" cy="575.0" r="1.0"/>
     <text stroke="none" x="331.0" y="575.0" font-size="10.0" font-family="helvetica">NT1.7</text>
    </g>
    <g>
     <circle stroke="black" stroke-width="0.5" fill="#aaffff" cx="358.0" cy="306.0" r="1.0"/>
     <text stroke="none" x="358.0" y="306.0" font-size="10.0" font-family="helvetica">NT1.8</text>
    </g>
    <g>
     <circle stroke="black" stroke-width="0.5" fill="#aaffff" cx="378.0" cy="521.0" r="1.0"/>
     <text stroke="none" x="378.0" y="521.0" font-size="10.0" font-family="helvetica">NT1.9</text>
    </g>
    <g>
     <circle stroke="black" stroke-width="0.5" fill="#aaffff" cx="414.0" cy="493.0" r="1.0"/>
     <text stroke="none" x="414.0" y="493.0" font-size="10.0" font-family="helvetica">NT1.10</text>
    </g>
    <g>
     <circle stroke="black" stroke-width="0.5" fill="#aaffff" cx="446.0" cy="564.0" r="1.0"/>
     <text stroke="none" x="446.0" y="564.0" font-size="10.0" font-family="helvetica">NT1.11</text>
    </g>
    <g>
     <circle stroke="black" stroke-width="0.5" fill="#aaffff" cx="452.0" cy="282.0" r="1.0"/>
     <text stroke="none" x="452.0" y="282.0" font-size="10.0" font-family="helvetica">NT1.12</text>
    </g>
    <g>
     <circle stroke="black" stroke-width="0.5" fill="#aaffff" cx="457.0" cy="654.0" r="1.0"/>
     <text stroke="none" x="457.0" y="654.0" font-size="20.0" font-family="helvetica"/>
    </g>
    <g>
     <circle stroke="black" stroke-width="0.5" fill="#aaffff" cx="475.0" cy="119.0" r="1.0"/>
     <text stroke="none" x="475.0" y="119.0" font-size="20.0" font-family="helvetica"/>
    </g>
    <g>
     <circle stroke="black" stroke-width="0.5" fill="#aaffff" cx="480.0" cy="618.0" r="1.0"/>
     <text stroke="none" x="480.0" y="618.0" font-size="20.0" font-family="helvetica"/>
    </g>
    <g>
     <circle stroke="black" stroke-width="0.5" fill="#aaffff" cx="492.0" cy="245.0" r="1.0"/>
     <text stroke="none" x="492.0" y="245.0" font-size="10.0" font-family="helvetica">NT1.16</text>
    </g>
    <g>
     <circle stroke="black" stroke-width="0.5" fill="#aaffff" cx="508.0" cy="459.0" r="1.0"/>
     <text stroke="none" x="508.0" y="459.0" font-size="10.0" font-family="helvetica">NT1.17</text>
    </g>
    <g>
     <circle stroke="black" stroke-width="0.5" fill="#aaffff" cx="522.0" cy="548.0" r="1.0"/>
     <text stroke="none" x="522.0" y="548.0" font-size="20.0" font-family="helvetica">LMG 60037</text>
    </g>
    <g>
     <circle stroke="black" stroke-width="0.5" fill="#aaffff" cx="541.0" cy="154.0" r="1.0"/>
     <text stroke="none" x="541.0" y="154.0" font-size="20.0" font-family="helvetica">Achromobacter piechaudii LMG 1873T</text>
    </g>
    <g>
     <circle stroke="black" stroke-width="0.5" fill="#aaffff" cx="541.0" cy="190.0" r="1.0"/>
     <text stroke="none" x="541.0" y="190.0" font-size="20.0" font-family="helvetica">Alcaligenes defragans LMG 185387</text>
    </g>
    <g>
     <circle stroke="black" stroke-width="0.5" fill="#aaffff" cx="541.0" cy="368.0" r="1.0"/>
     <text stroke="none" x="541.0" y="368.0" font-size="20.0" font-family="helvetica">Achromobacter xylosoxidans LMG 18637</text>
    </g>
    <g>
     <circle stroke="black" stroke-width="0.5" fill="#aaffff" cx="541.0" cy="332.0" r="1.0"/>
     <text stroke="none" x="541.0" y="332.0" font-size="20.0" font-family="helvetica">LMG 14525</text>
    </g>
    <g>
     <circle stroke="black" stroke-width="0.5" fill="#aaffff" cx="541.0" cy="296.0" r="1.0"/>
     <text stroke="none" x="541.0" y="296.0" font-size="20.0" font-family="helvetica">LMG 5911T</text>
    </g>
    <g>
     <circle stroke="black" stroke-width="0.5" fill="#aaffff" cx="541.0" cy="262.0" r="1.0"/>
     <text stroke="none" x="541.0" y="262.0" font-size="20.0" font-family="helvetica">LMG 5909</text>
    </g>
    <g>
     <circle stroke="black" stroke-width="0.5" fill="#aaffff" cx="541.0" cy="226.0" r="1.0"/>
     <text stroke="none" x="541.0" y="226.0" font-size="20.0" font-family="helvetica">LMG 5896</text>
    </g>
    <g>
     <circle stroke="black" stroke-width="0.5" fill="#aaffff" cx="542.0" cy="404.0" r="1.0"/>
     <text stroke="none" x="542.0" y="404.0" font-size="20.0" font-family="helvetica">Achromobacter ruhlandii LMG 18667</text>
    </g>
    <g>
     <circle stroke="black" stroke-width="0.5" fill="#aaffff" cx="542.0" cy="511.0" r="1.0"/>
     <text stroke="none" x="542.0" y="511.0" font-size="20.0" font-family="helvetica">LMG 5999</text>
    </g>
    <g>
     <circle stroke="black" stroke-width="0.5" fill="#aaffff" cx="542.0" cy="583.0" r="1.0"/>
     <text stroke="none" x="542.0" y="583.0" font-size="20.0" font-family="helvetica">LMG 6010</text>
    </g>
    <g>
     <circle stroke="black" stroke-width="0.5" fill="#aaffff" cx="542.0" cy="441.0" r="1.0"/>
     <text stroke="none" x="542.0" y="441.0" font-size="20.0" font-family="helvetica">LMG 5997</text>
    </g>
    <g>
     <circle stroke="black" stroke-width="0.5" fill="#aaffff" cx="542.0" cy="476.0" r="1.0"/>
     <text stroke="none" x="542.0" y="476.0" font-size="20.0" font-family="helvetica">LMG 6000</text>
    </g>
    <line stroke="black" x1="541.0" y1="154.0" x2="278.0" y2="136.0" stroke-width="0.5"/>
    <line stroke="black" x1="541.0" y1="296.0" x2="452.0" y2="282.0" stroke-width="0.5"/>
    <line stroke="black" x1="542.0" y1="583.0" x2="446.0" y2="564.0" stroke-width="0.5"/>
    <line stroke="black" x1="542.0" y1="441.0" x2="508.0" y2="459.0" stroke-width="0.5"/>
    <line stroke="black" x1="542.0" y1="476.0" x2="508.0" y2="459.0" stroke-width="0.5"/>
    <line stroke="black" x1="278.0" y1="136.0" x2="142.0" y2="163.0" stroke-width="0.5"/>
    <line stroke="black" x1="278.0" y1="136.0" x2="475.0" y2="119.0" stroke-width="0.5"/>
    <line stroke="black" x1="142.0" y1="163.0" x2="84.0" y2="270.0" stroke-width="0.5"/>
    <line stroke="black" x1="84.0" y1="270.0" x2="168.0" y2="376.0" stroke-width="0.5"/>
    <line stroke="black" x1="168.0" y1="376.0" x2="237.0" y2="352.0" stroke-width="0.5"/>
    <line stroke="black" x1="237.0" y1="352.0" x2="358.0" y2="306.0" stroke-width="0.5"/>
    <line stroke="black" x1="358.0" y1="306.0" x2="452.0" y2="282.0" stroke-width="0.5"/>
    <line stroke="black" x1="192.0" y1="609.0" x2="331.0" y2="575.0" stroke-width="0.5"/>
    <line stroke="black" x1="192.0" y1="609.0" x2="457.0" y2="654.0" stroke-width="0.5"/>
    <line stroke="black" x1="452.0" y1="282.0" x2="492.0" y2="245.0" stroke-width="0.5"/>
    <line stroke="black" x1="331.0" y1="575.0" x2="480.0" y2="618.0" stroke-width="0.5"/>
    <line stroke="black" x1="331.0" y1="575.0" x2="378.0" y2="521.0" stroke-width="0.5"/>
    <line stroke="black" x1="378.0" y1="521.0" x2="446.0" y2="564.0" stroke-width="0.5"/>
    <line stroke="black" x1="378.0" y1="521.0" x2="414.0" y2="493.0" stroke-width="0.5"/>
    <line stroke="black" x1="414.0" y1="493.0" x2="508.0" y2="459.0" stroke-width="0.5"/>
    <line stroke="black" x1="446.0" y1="564.0" x2="522.0" y2="548.0" stroke-width="0.5"/>
    <line stroke="black" x1="84.0" y1="270.0" x2="192.0" y2="609.0" stroke-width="0.5"/>
    <line stroke="black" x1="541.0" y1="368.0" x2="237.0" y2="352.0" stroke-width="0.5"/>
    <line stroke="black" x1="542.0" y1="404.0" x2="168.0" y2="376.0" stroke-width="0.5"/>
    <line stroke="black" x1="541.0" y1="190.0" x2="142.0" y2="163.0" stroke-width="0.5"/>
    <line stroke="black" x1="541.0" y1="332.0" x2="358.0" y2="306.0" stroke-width="0.5"/>
    <line stroke="black" x1="542.0" y1="511.0" x2="414.0" y2="493.0" stroke-width="0.5"/>
    <line stroke="black" x1="541.0" y1="226.0" x2="492.0" y2="245.0" stroke-width="0.5"/>
    <line stroke="black" x1="541.0" y1="262.0" x2="492.0" y2="245.0" stroke-width="0.5"/>
   </g>
  </g>
 </svg>
</svg>
