<?xml version="1.0" encoding="UTF-8"?>
<svg height="800.0" width="700.0" xmlns="http://www.w3.org/2000/svg">
 <svg>
  <g>
   <g>
    <g>
     <circle stroke="black" stroke-width="0.5" fill="#aaffff" cx="163.0" cy="696.0" r="1.0"/>
     <text stroke="none" x="163.0" y="696.0" font-size="10.0" font-family="helvetica">NT1.1</text>
    </g>
    <g>
     <circle stroke="black" stroke-width="0.5" fill="#aaffff" cx="170.0" cy="696.0" r="1.0"/>
     <text stroke="none" x="170.0" y="696.0" font-size="20.0" font-family="helvetica"/>
    </g>
    <g>
     <circle stroke="black" stroke-width="0.5" fill="#aaffff" cx="197.0" cy="553.0" r="1.0"/>
     <text stroke="none" x="197.0" y="553.0" font-size="10.0" font-family="helvetica">NT1.3</text>
    </g>
    <g>
     <circle stroke="black" stroke-width="0.5" fill="#aaffff" cx="214.0" cy="687.0" r="1.0"/>
     <text stroke="none" x="214.0" y="687.0" font-size="10.0" font-family="helvetica">NT1.4</text>
    </g>
    <g>
     <circle stroke="black" stroke-width="0.5" fill="#aaffff" cx="225.0" cy="417.0" r="1.0"/>
     <text stroke="none" x="225.0" y="417.0" font-size="10.0" font-family="helvetica">NT1.5</text>
    </g>
    <g>
     <circle stroke="black" stroke-width="0.5" fill="#aaffff" cx="250.0" cy="247.0" r="1.0"/>
     <text stroke="none" x="250.0" y="247.0" font-size="10.0" font-family="helvetica">NT1.6</text>
    </g>
    <g>
     <circle stroke="black" stroke-width="0.5" fill="#aaffff" cx="254.0" cy="840.0" r="1.0"/>
     <text stroke="none" x="254.0" y="840.0" font-size="20.0" font-family="helvetica">88</text>
    </g>
    <g>
     <circle stroke="black" stroke-width="0.5" fill="#aaffff" cx="262.0" cy="841.0" r="1.0"/>
     <text stroke="none" x="262.0" y="841.0" font-size="20.0" font-family="helvetica"/>
    </g>
    <g>
     <circle stroke="black" stroke-width="0.5" fill="#aaffff" cx="329.0" cy="394.0" r="1.0"/>
     <text stroke="none" x="329.0" y="394.0" font-size="20.0" font-family="helvetica">99</text>
    </g>
    <g>
     <circle stroke="black" stroke-width="0.5" fill="#aaffff" cx="331.0" cy="397.0" r="1.0"/>
     <text stroke="none" x="331.0" y="397.0" font-size="20.0" font-family="helvetica">99</text>
    </g>
    <g>
     <circle stroke="black" stroke-width="0.5" fill="#aaffff" cx="337.0" cy="397.0" r="1.0"/>
     <text stroke="none" x="337.0" y="397.0" font-size="20.0" font-family="helvetica"/>
    </g>
    <g>
     <circle stroke="black" stroke-width="0.5" fill="#aaffff" cx="389.0" cy="443.0" r="1.0"/>
     <text stroke="none" x="389.0" y="443.0" font-size="20.0" font-family="helvetica">82</text>
    </g>
    <g>
     <circle stroke="black" stroke-width="0.5" fill="#aaffff" cx="397.0" cy="444.0" r="1.0"/>
     <text stroke="none" x="397.0" y="444.0" font-size="20.0" font-family="helvetica"/>
    </g>
    <g>
     <circle stroke="black" stroke-width="0.5" fill="#aaffff" cx="416.0" cy="470.0" r="1.0"/>
     <text stroke="none" x="416.0" y="470.0" font-size="20.0" font-family="helvetica">99</text>
    </g>
    <g>
     <circle stroke="black" stroke-width="0.5" fill="#aaffff" cx="420.0" cy="347.0" r="1.0"/>
     <text stroke="none" x="420.0" y="347.0" font-size="10.0" font-family="helvetica">NT1.15</text>
    </g>
    <g>
     <circle stroke="black" stroke-width="0.5" fill="#aaffff" cx="423.0" cy="470.0" r="1.0"/>
     <text stroke="none" x="423.0" y="470.0" font-size="20.0" font-family="helvetica">5 L. acidifarinae LMG 22198T (AJ632158)</text>
    </g>
    <g>
     <circle stroke="black" stroke-width="0.5" fill="#aaffff" cx="427.0" cy="347.0" r="1.0"/>
     <text stroke="none" x="427.0" y="347.0" font-size="20.0" font-family="helvetica"/>
    </g>
    <g>
     <circle stroke="black" stroke-width="0.5" fill="#aaffff" cx="434.0" cy="309.0" r="1.0"/>
     <text stroke="none" x="434.0" y="309.0" font-size="20.0" font-family="helvetica">35</text>
    </g>
    <g>
     <circle stroke="black" stroke-width="0.5" fill="#aaffff" cx="434.0" cy="587.0" r="1.0"/>
     <text stroke="none" x="434.0" y="587.0" font-size="20.0" font-family="helvetica">00</text>
    </g>
    <g>
     <circle stroke="black" stroke-width="0.5" fill="#aaffff" cx="436.0" cy="52.0" r="1.0"/>
     <text stroke="none" x="436.0" y="52.0" font-size="20.0" font-family="helvetica"/>
    </g>
    <g>
     <circle stroke="black" stroke-width="0.5" fill="#aaffff" cx="440.0" cy="71.0" r="1.0"/>
     <text stroke="none" x="440.0" y="71.0" font-size="10.0" font-family="helvetica">NT1.21</text>
    </g>
    <g>
     <circle stroke="black" stroke-width="0.5" fill="#aaffff" cx="443.0" cy="586.0" r="1.0"/>
     <text stroke="none" x="443.0" y="586.0" font-size="20.0" font-family="helvetica"/>
    </g>
    <g>
     <circle stroke="black" stroke-width="0.5" fill="#aaffff" cx="448.0" cy="97.0" r="1.0"/>
     <text stroke="none" x="448.0" y="97.0" font-size="20.0" font-family="helvetica"/>
    </g>
    <g>
     <circle stroke="black" stroke-width="0.5" fill="#aaffff" cx="452.0" cy="52.0" r="1.0"/>
     <text stroke="none" x="452.0" y="52.0" font-size="20.0" font-family="helvetica"/>
    </g>
    <g>
     <circle stroke="black" stroke-width="0.5" fill="#aaffff" cx="455.0" cy="493.0" r="1.0"/>
     <text stroke="none" x="455.0" y="493.0" font-size="20.0" font-family="helvetica">99</text>
    </g>
    <g>
     <circle stroke="black" stroke-width="0.5" fill="#aaffff" cx="456.0" cy="338.0" r="1.0"/>
     <text stroke="none" x="456.0" y="338.0" font-size="20.0" font-family="helvetica">63</text>
    </g>
    <g>
     <circle stroke="black" stroke-width="0.5" fill="#aaffff" cx="458.0" cy="340.0" r="1.0"/>
     <text stroke="none" x="458.0" y="340.0" font-size="20.0" font-family="helvetica">63</text>
    </g>
    <g>
     <circle stroke="black" stroke-width="0.5" fill="#aaffff" cx="460.0" cy="478.0" r="1.0"/>
     <text stroke="none" x="460.0" y="478.0" font-size="20.0" font-family="helvetica"/>
    </g>
    <g>
     <circle stroke="black" stroke-width="0.5" fill="#aaffff" cx="462.0" cy="494.0" r="1.0"/>
     <text stroke="none" x="462.0" y="494.0" font-size="20.0" font-family="helvetica"/>
    </g>
    <g>
     <circle stroke="black" stroke-width="0.5" fill="#aaffff" cx="463.0" cy="510.0" r="1.0"/>
     <text stroke="none" x="463.0" y="510.0" font-size="20.0" font-family="helvetica">L. zymae LMG 22198T(AJ632157)</text>
    </g>
    <g>
     <circle stroke="black" stroke-width="0.5" fill="#aaffff" cx="463.0" cy="277.0" r="1.0"/>
     <text stroke="none" x="463.0" y="277.0" font-size="20.0" font-family="helvetica">53</text>
    </g>
    <g>
     <circle stroke="black" stroke-width="0.5" fill="#aaffff" cx="464.0" cy="340.0" r="1.0"/>
     <text stroke="none" x="464.0" y="340.0" font-size="20.0" font-family="helvetica"/>
    </g>
    <g>
     <circle stroke="black" stroke-width="0.5" fill="#aaffff" cx="465.0" cy="883.0" r="1.0"/>
     <text stroke="none" x="465.0" y="883.0" font-size="10.0" font-family="helvetica">NT1.33</text>
    </g>
    <g>
     <circle stroke="black" stroke-width="0.5" fill="#aaffff" cx="467.0" cy="885.0" r="1.0"/>
     <text stroke="none" x="467.0" y="885.0" font-size="10.0" font-family="helvetica">NT1.34</text>
    </g>
    <g>
     <circle stroke="black" stroke-width="0.5" fill="#aaffff" cx="472.0" cy="276.0" r="1.0"/>
     <text stroke="none" x="472.0" y="276.0" font-size="20.0" font-family="helvetica"/>
    </g>
    <g>
     <circle stroke="black" stroke-width="0.5" fill="#aaffff" cx="472.0" cy="144.0" r="1.0"/>
     <text stroke="none" x="472.0" y="144.0" font-size="10.0" font-family="helvetica">NT1.36</text>
    </g>
    <g>
     <circle stroke="black" stroke-width="0.5" fill="#aaffff" cx="473.0" cy="664.0" r="1.0"/>
     <text stroke="none" x="473.0" y="664.0" font-size="20.0" font-family="helvetica">L. malefermentans CECT 5928T (AJ575743)</text>
    </g>
    <g>
     <circle stroke="black" stroke-width="0.5" fill="#aaffff" cx="474.0" cy="885.0" r="1.0"/>
     <text stroke="none" x="474.0" y="885.0" font-size="20.0" font-family="helvetica"/>
    </g>
    <g>
     <circle stroke="black" stroke-width="0.5" fill="#aaffff" cx="474.0" cy="141.0" r="1.0"/>
     <text stroke="none" x="474.0" y="141.0" font-size="10.0" font-family="helvetica">NT1.39</text>
    </g>
    <g>
     <circle stroke="black" stroke-width="0.5" fill="#aaffff" cx="475.0" cy="710.0" r="1.0"/>
     <text stroke="none" x="475.0" y="710.0" font-size="10.0" font-family="helvetica">NT1.40</text>
    </g>
    <g>
     <circle stroke="black" stroke-width="0.5" fill="#aaffff" cx="477.0" cy="712.0" r="1.0"/>
     <text stroke="none" x="477.0" y="712.0" font-size="10.0" font-family="helvetica">NT1.41</text>
    </g>
    <g>
     <circle stroke="black" stroke-width="0.5" fill="#aaffff" cx="478.0" cy="797.0" r="1.0"/>
     <text stroke="none" x="478.0" y="797.0" font-size="10.0" font-family="helvetica">NT1.42</text>
    </g>
    <g>
     <circle stroke="black" stroke-width="0.5" fill="#aaffff" cx="481.0" cy="29.0" r="1.0"/>
     <text stroke="none" x="481.0" y="29.0" font-size="20.0" font-family="helvetica">78</text>
    </g>
    <g>
     <circle stroke="black" stroke-width="0.5" fill="#aaffff" cx="482.0" cy="141.0" r="1.0"/>
     <text stroke="none" x="482.0" y="141.0" font-size="20.0" font-family="helvetica"/>
    </g>
    <g>
     <circle stroke="black" stroke-width="0.5" fill="#aaffff" cx="482.0" cy="820.0" r="1.0"/>
     <text stroke="none" x="482.0" y="820.0" font-size="20.0" font-family="helvetica">L. paraplantarum DSM 106677 (AJ306297)</text>
    </g>
    <g>
     <circle stroke="black" stroke-width="0.5" fill="#aaffff" cx="485.0" cy="712.0" r="1.0"/>
     <text stroke="none" x="485.0" y="712.0" font-size="20.0" font-family="helvetica"/>
    </g>
    <g>
     <circle stroke="black" stroke-width="0.5" fill="#aaffff" cx="485.0" cy="796.0" r="1.0"/>
     <text stroke="none" x="485.0" y="796.0" font-size="20.0" font-family="helvetica"/>
    </g>
    <g>
     <circle stroke="black" stroke-width="0.5" fill="#aaffff" cx="486.0" cy="727.0" r="1.0"/>
     <text stroke="none" x="486.0" y="727.0" font-size="20.0" font-family="helvetica">L. paracollinoides DSM 155O2T (AJ786665)</text>
    </g>
    <g>
     <circle stroke="black" stroke-width="0.5" fill="#aaffff" cx="487.0" cy="416.0" r="1.0"/>
     <text stroke="none" x="487.0" y="416.0" font-size="20.0" font-family="helvetica">L. spicheri LTH 5753T (AJ534844)</text>
    </g>
    <g>
     <circle stroke="black" stroke-width="0.5" fill="#aaffff" cx="489.0" cy="29.0" r="1.0"/>
     <text stroke="none" x="489.0" y="29.0" font-size="20.0" font-family="helvetica"/>
    </g>
    <g>
     <circle stroke="black" stroke-width="0.5" fill="#aaffff" cx="490.0" cy="261.0" r="1.0"/>
     <text stroke="none" x="490.0" y="261.0" font-size="20.0" font-family="helvetica">L. hammesiiTMW 1.1236T(AJ632219)</text>
    </g>
    <g>
     <circle stroke="black" stroke-width="0.5" fill="#aaffff" cx="493.0" cy="774.0" r="1.0"/>
     <text stroke="none" x="493.0" y="774.0" font-size="20.0" font-family="helvetica">88</text>
    </g>
    <g>
     <circle stroke="black" stroke-width="0.5" fill="#aaffff" cx="495.0" cy="772.0" r="1.0"/>
     <text stroke="none" x="495.0" y="772.0" font-size="20.0" font-family="helvetica">88</text>
    </g>
    <g>
     <circle stroke="black" stroke-width="0.5" fill="#aaffff" cx="497.0" cy="447.0" r="1.0"/>
     <text stroke="none" x="497.0" y="447.0" font-size="20.0" font-family="helvetica">L. namurensis LMG 23583T(AM259118)</text>
    </g>
    <g>
     <circle stroke="black" stroke-width="0.5" fill="#aaffff" cx="498.0" cy="757.0" r="1.0"/>
     <text stroke="none" x="498.0" y="757.0" font-size="20.0" font-family="helvetica">L. pentosus JCM 1558T(D79211)</text>
    </g>
    <g>
     <circle stroke="black" stroke-width="0.5" fill="#aaffff" cx="502.0" cy="772.0" r="1.0"/>
     <text stroke="none" x="502.0" y="772.0" font-size="20.0" font-family="helvetica"/>
    </g>
    <g>
     <circle stroke="black" stroke-width="0.5" fill="#aaffff" cx="506.0" cy="695.0" r="1.0"/>
     <text stroke="none" x="506.0" y="695.0" font-size="20.0" font-family="helvetica"/>
    </g>
    <g>
     <circle stroke="black" stroke-width="0.5" fill="#aaffff" cx="510.0" cy="183.0" r="1.0"/>
     <text stroke="none" x="510.0" y="183.0" font-size="20.0" font-family="helvetica">93</text>
    </g>
    <g>
     <circle stroke="black" stroke-width="0.5" fill="#aaffff" cx="516.0" cy="208.0" r="1.0"/>
     <text stroke="none" x="516.0" y="208.0" font-size="10.0" font-family="helvetica">NT1.59</text>
    </g>
    <g>
     <circle stroke="black" stroke-width="0.5" fill="#aaffff" cx="517.0" cy="182.0" r="1.0"/>
     <text stroke="none" x="517.0" y="182.0" font-size="20.0" font-family="helvetica"/>
    </g>
    <g>
     <circle stroke="black" stroke-width="0.5" fill="#aaffff" cx="517.0" cy="385.0" r="1.0"/>
     <text stroke="none" x="517.0" y="385.0" font-size="20.0" font-family="helvetica">L. brevis ATCC 14859T(M-58810)</text>
    </g>
    <g>
     <circle stroke="black" stroke-width="0.5" fill="#aaffff" cx="518.0" cy="323.0" r="1.0"/>
     <text stroke="none" x="518.0" y="323.0" font-size="20.0" font-family="helvetica">L. parabrevis LMG 11984T(AM158249)</text>
    </g>
    <g>
     <circle stroke="black" stroke-width="0.5" fill="#aaffff" cx="518.0" cy="215.0" r="1.0"/>
     <text stroke="none" x="518.0" y="215.0" font-size="10.0" font-family="helvetica">NT1.63</text>
    </g>
    <g>
     <circle stroke="black" stroke-width="0.5" fill="#aaffff" cx="525.0" cy="215.0" r="1.0"/>
     <text stroke="none" x="525.0" y="215.0" font-size="20.0" font-family="helvetica"/>
    </g>
    <g>
     <circle stroke="black" stroke-width="0.5" fill="#aaffff" cx="532.0" cy="355.0" r="1.0"/>
     <text stroke="none" x="532.0" y="355.0" font-size="20.0" font-family="helvetica">L. koreensis DCY5OT (FJ904277)</text>
    </g>
    <g>
     <circle stroke="black" stroke-width="0.5" fill="#aaffff" cx="536.0" cy="789.0" r="1.0"/>
     <text stroke="none" x="536.0" y="789.0" font-size="20.0" font-family="helvetica">L. plantarum NCDO 1752T (X52653)</text>
    </g>
    <g>
     <circle stroke="black" stroke-width="0.5" fill="#aaffff" cx="539.0" cy="293.0" r="1.0"/>
     <text stroke="none" x="539.0" y="293.0" font-size="20.0" font-family="helvetica">L. senmaizukei L13T (AB297927)</text>
    </g>
    <g>
     <circle stroke="black" stroke-width="0.5" fill="#aaffff" cx="541.0" cy="76.0" r="1.0"/>
     <text stroke="none" x="541.0" y="76.0" font-size="20.0" font-family="helvetica">L. parafarraginis NRIC O677T (AB262734)</text>
    </g>
    <g>
     <circle stroke="black" stroke-width="0.5" fill="#aaffff" cx="551.0" cy="230.0" r="1.0"/>
     <text stroke="none" x="551.0" y="230.0" font-size="20.0" font-family="helvetica">L. parabuchneri LMG 11457T(AJ97O317)</text>
    </g>
    <g>
     <circle stroke="black" stroke-width="0.5" fill="#aaffff" cx="557.0" cy="13.0" r="1.0"/>
     <text stroke="none" x="557.0" y="13.0" font-size="20.0" font-family="helvetica">L. hilgardii DSM 201 767 (M58821)</text>
    </g>
    <g>
     <circle stroke="black" stroke-width="0.5" fill="#aaffff" cx="557.0" cy="153.0" r="1.0"/>
     <text stroke="none" x="557.0" y="153.0" font-size="10.0" font-family="helvetica">NT1.71</text>
    </g>
    <g>
     <circle stroke="black" stroke-width="0.5" fill="#aaffff" cx="565.0" cy="152.0" r="1.0"/>
     <text stroke="none" x="565.0" y="152.0" font-size="20.0" font-family="helvetica"/>
    </g>
    <g>
     <circle stroke="black" stroke-width="0.5" fill="#aaffff" cx="566.0" cy="106.0" r="1.0"/>
     <text stroke="none" x="566.0" y="106.0" font-size="20.0" font-family="helvetica">L. diolivorans JKD6T (AF264701)</text>
    </g>
    <g>
     <circle stroke="black" stroke-width="0.5" fill="#aaffff" cx="569.0" cy="136.0" r="1.0"/>
     <text stroke="none" x="569.0" y="136.0" font-size="20.0" font-family="helvetica">L. buchneriDSM 20057T(M58811)</text>
    </g>
    <g>
     <circle stroke="black" stroke-width="0.5" fill="#aaffff" cx="578.0" cy="557.0" r="1.0"/>
     <text stroke="none" x="578.0" y="557.0" font-size="20.0" font-family="helvetica">100</text>
    </g>
    <g>
     <circle stroke="black" stroke-width="0.5" fill="#aaffff" cx="580.0" cy="555.0" r="1.0"/>
     <text stroke="none" x="580.0" y="555.0" font-size="20.0" font-family="helvetica">100</text>
    </g>
    <g>
     <circle stroke="black" stroke-width="0.5" fill="#aaffff" cx="586.0" cy="199.0" r="1.0"/>
     <text stroke="none" x="586.0" y="199.0" font-size="20.0" font-family="helvetica">L. kefiri LMG 94soT (AJ621553)</text>
    </g>
    <g>
     <circle stroke="black" stroke-width="0.5" fill="#aaffff" cx="587.0" cy="555.0" r="1.0"/>
     <text stroke="none" x="587.0" y="555.0" font-size="20.0" font-family="helvetica"/>
    </g>
    <g>
     <circle stroke="black" stroke-width="0.5" fill="#aaffff" cx="588.0" cy="44.0" r="1.0"/>
     <text stroke="none" x="588.0" y="44.0" font-size="20.0" font-family="helvetica">L. larraginis NRIC 06767 (AB262731)</text>
    </g>
    <g>
     <circle stroke="black" stroke-width="0.5" fill="#aaffff" cx="608.0" cy="617.0" r="1.0"/>
     <text stroke="none" x="608.0" y="617.0" font-size="20.0" font-family="helvetica">100</text>
    </g>
    <g>
     <circle stroke="black" stroke-width="0.5" fill="#aaffff" cx="612.0" cy="540.0" r="1.0"/>
     <text stroke="none" x="612.0" y="540.0" font-size="20.0" font-family="helvetica">L. fructivorans DSM 202O3T (X76830)</text>
    </g>
    <g>
     <circle stroke="black" stroke-width="0.5" fill="#aaffff" cx="616.0" cy="618.0" r="1.0"/>
     <text stroke="none" x="616.0" y="618.0" font-size="20.0" font-family="helvetica"/>
    </g>
    <g>
     <circle stroke="black" stroke-width="0.5" fill="#aaffff" cx="617.0" cy="169.0" r="1.0"/>
     <text stroke="none" x="617.0" y="169.0" font-size="20.0" font-family="helvetica">L. parakefiri LMG 15133T (AYO26750)</text>
    </g>
    <g>
     <circle stroke="black" stroke-width="0.5" fill="#aaffff" cx="622.0" cy="916.0" r="1.0"/>
     <text stroke="none" x="622.0" y="916.0" font-size="10.0" font-family="helvetica">NT1.84</text>
    </g>
    <g>
     <circle stroke="black" stroke-width="0.5" fill="#aaffff" cx="638.0" cy="951.0" r="1.0"/>
     <text stroke="none" x="638.0" y="951.0" font-size="10.0" font-family="helvetica">NT1.85</text>
    </g>
    <g>
     <circle stroke="black" stroke-width="0.5" fill="#aaffff" cx="647.0" cy="952.0" r="1.0"/>
     <text stroke="none" x="647.0" y="952.0" font-size="20.0" font-family="helvetica"/>
    </g>
    <g>
     <circle stroke="black" stroke-width="0.5" fill="#aaffff" cx="663.0" cy="572.0" r="1.0"/>
     <text stroke="none" x="663.0" y="572.0" font-size="20.0" font-family="helvetica">L. homohiochii LMG 9478T (AJ621552)</text>
    </g>
    <g>
     <circle stroke="black" stroke-width="0.5" fill="#aaffff" cx="674.0" cy="850.0" r="1.0"/>
     <text stroke="none" x="674.0" y="850.0" font-size="20.0" font-family="helvetica">L. versmoldensis KU-3T (AJ496791)</text>
    </g>
    <g>
     <circle stroke="black" stroke-width="0.5" fill="#aaffff" cx="676.0" cy="990.0" r="1.0"/>
     <text stroke="none" x="676.0" y="990.0" font-size="10.0" font-family="helvetica">NT1.89</text>
    </g>
    <g>
     <circle stroke="black" stroke-width="0.5" fill="#aaffff" cx="708.0" cy="960.0" r="1.0"/>
     <text stroke="none" x="708.0" y="960.0" font-size="10.0" font-family="helvetica">NT1.90</text>
    </g>
    <g>
     <circle stroke="black" stroke-width="0.5" fill="#aaffff" cx="716.0" cy="959.0" r="1.0"/>
     <text stroke="none" x="716.0" y="959.0" font-size="20.0" font-family="helvetica"/>
    </g>
    <g>
     <circle stroke="black" stroke-width="0.5" fill="#aaffff" cx="718.0" cy="881.0" r="1.0"/>
     <text stroke="none" x="718.0" y="881.0" font-size="20.0" font-family="helvetica">L. alimentarius DSM 2O249T (M58804)</text>
    </g>
    <g>
     <circle stroke="black" stroke-width="0.5" fill="#aaffff" cx="740.0" cy="1020.0" r="1.0"/>
     <text stroke="none" x="740.0" y="1020.0" font-size="20.0" font-family="helvetica">100</text>
    </g>
    <g>
     <circle stroke="black" stroke-width="0.5" fill="#aaffff" cx="745.0" cy="1006.0" r="1.0"/>
     <text stroke="none" x="745.0" y="1006.0" font-size="20.0" font-family="helvetica">L. kLmChifMT'1077T (AF183558)</text>
    </g>
    <g>
     <circle stroke="black" stroke-width="0.5" fill="#aaffff" cx="747.0" cy="1021.0" r="1.0"/>
     <text stroke="none" x="747.0" y="1021.0" font-size="20.0" font-family="helvetica"/>
    </g>
    <g>
     <circle stroke="black" stroke-width="0.5" fill="#aaffff" cx="748.0" cy="1037.0" r="1.0"/>
     <text stroke="none" x="748.0" y="1037.0" font-size="20.0" font-family="helvetica">L. paralimentarius DSM 13238T (AJ417500)</text>
    </g>
    <g>
     <circle stroke="black" stroke-width="0.5" fill="#aaffff" cx="767.0" cy="912.0" r="1.0"/>
     <text stroke="none" x="767.0" y="912.0" font-size="20.0" font-family="helvetica">L. nantensis LP33T (AY690884)</text>
    </g>
    <g>
     <circle stroke="black" stroke-width="0.5" fill="#aaffff" cx="773.0" cy="975.0" r="1.0"/>
     <text stroke="none" x="773.0" y="975.0" font-size="20.0" font-family="helvetica">L. mindensis TMW 1.80T (AJ313530)</text>
    </g>
    <g>
     <circle stroke="black" stroke-width="0.5" fill="#aaffff" cx="784.0" cy="602.0" r="1.0"/>
     <text stroke="none" x="784.0" y="602.0" font-size="20.0" font-family="helvetica">L. lindneri DSM 20690T (X95421)</text>
    </g>
    <g>
     <circle stroke="black" stroke-width="0.5" fill="#aaffff" cx="792.0" cy="943.0" r="1.0"/>
     <text stroke="none" x="792.0" y="943.0" font-size="20.0" font-family="helvetica">L. farciminis ATCC 29644T (M58817)</text>
    </g>
    <g>
     <circle stroke="black" stroke-width="0.5" fill="#aaffff" cx="801.0" cy="634.0" r="1.0"/>
     <text stroke="none" x="801.0" y="634.0" font-size="20.0" font-family="helvetica">L. sanfranciscensis ATCC 276517 (X76327)</text>
    </g>
    <g>
     <circle stroke="black" stroke-width="0.5" fill="#aaffff" cx="801.0" cy="1068.0" r="1.0"/>
     <text stroke="none" x="801.0" y="1068.0" font-size="20.0" font-family="helvetica">L. delbrueckii DSM 2O074T (M58814)</text>
    </g>
    <line stroke="black" x1="489.0" y1="29.0" x2="481.0" y2="29.0" stroke-width="0.5"/>
    <line stroke="black" x1="452.0" y1="52.0" x2="440.0" y2="71.0" stroke-width="0.5"/>
    <line stroke="black" x1="440.0" y1="71.0" x2="436.0" y2="52.0" stroke-width="0.5"/>
    <line stroke="black" x1="448.0" y1="97.0" x2="440.0" y2="71.0" stroke-width="0.5"/>
    <line stroke="black" x1="541.0" y1="76.0" x2="440.0" y2="71.0" stroke-width="0.5"/>
    <line stroke="black" x1="482.0" y1="141.0" x2="474.0" y2="141.0" stroke-width="0.5"/>
    <line stroke="black" x1="517.0" y1="182.0" x2="510.0" y2="183.0" stroke-width="0.5"/>
    <line stroke="black" x1="525.0" y1="215.0" x2="518.0" y2="215.0" stroke-width="0.5"/>
    <line stroke="black" x1="566.0" y1="106.0" x2="474.0" y2="141.0" stroke-width="0.5"/>
    <line stroke="black" x1="551.0" y1="230.0" x2="518.0" y2="215.0" stroke-width="0.5"/>
    <line stroke="black" x1="565.0" y1="152.0" x2="557.0" y2="153.0" stroke-width="0.5"/>
    <line stroke="black" x1="569.0" y1="136.0" x2="557.0" y2="153.0" stroke-width="0.5"/>
    <line stroke="black" x1="617.0" y1="169.0" x2="557.0" y2="153.0" stroke-width="0.5"/>
    <line stroke="black" x1="337.0" y1="397.0" x2="331.0" y2="397.0" stroke-width="0.5"/>
    <line stroke="black" x1="397.0" y1="444.0" x2="389.0" y2="443.0" stroke-width="0.5"/>
    <line stroke="black" x1="427.0" y1="347.0" x2="420.0" y2="347.0" stroke-width="0.5"/>
    <line stroke="black" x1="423.0" y1="470.0" x2="416.0" y2="470.0" stroke-width="0.5"/>
    <line stroke="black" x1="462.0" y1="494.0" x2="455.0" y2="493.0" stroke-width="0.5"/>
    <line stroke="black" x1="460.0" y1="478.0" x2="455.0" y2="493.0" stroke-width="0.5"/>
    <line stroke="black" x1="463.0" y1="510.0" x2="455.0" y2="493.0" stroke-width="0.5"/>
    <line stroke="black" x1="487.0" y1="416.0" x2="389.0" y2="443.0" stroke-width="0.5"/>
    <line stroke="black" x1="464.0" y1="340.0" x2="458.0" y2="340.0" stroke-width="0.5"/>
    <line stroke="black" x1="497.0" y1="447.0" x2="416.0" y2="470.0" stroke-width="0.5"/>
    <line stroke="black" x1="472.0" y1="276.0" x2="463.0" y2="277.0" stroke-width="0.5"/>
    <line stroke="black" x1="490.0" y1="261.0" x2="463.0" y2="277.0" stroke-width="0.5"/>
    <line stroke="black" x1="518.0" y1="323.0" x2="456.0" y2="338.0" stroke-width="0.5"/>
    <line stroke="black" x1="532.0" y1="355.0" x2="458.0" y2="340.0" stroke-width="0.5"/>
    <line stroke="black" x1="170.0" y1="696.0" x2="163.0" y2="696.0" stroke-width="0.5"/>
    <line stroke="black" x1="539.0" y1="293.0" x2="463.0" y2="277.0" stroke-width="0.5"/>
    <line stroke="black" x1="443.0" y1="586.0" x2="434.0" y2="587.0" stroke-width="0.5"/>
    <line stroke="black" x1="587.0" y1="555.0" x2="580.0" y2="555.0" stroke-width="0.5"/>
    <line stroke="black" x1="262.0" y1="841.0" x2="254.0" y2="840.0" stroke-width="0.5"/>
    <line stroke="black" x1="616.0" y1="618.0" x2="608.0" y2="617.0" stroke-width="0.5"/>
    <line stroke="black" x1="612.0" y1="540.0" x2="580.0" y2="555.0" stroke-width="0.5"/>
    <line stroke="black" x1="473.0" y1="664.0" x2="214.0" y2="687.0" stroke-width="0.5"/>
    <line stroke="black" x1="485.0" y1="712.0" x2="477.0" y2="712.0" stroke-width="0.5"/>
    <line stroke="black" x1="486.0" y1="727.0" x2="477.0" y2="712.0" stroke-width="0.5"/>
    <line stroke="black" x1="506.0" y1="695.0" x2="475.0" y2="710.0" stroke-width="0.5"/>
    <line stroke="black" x1="663.0" y1="572.0" x2="578.0" y2="557.0" stroke-width="0.5"/>
    <line stroke="black" x1="784.0" y1="602.0" x2="608.0" y2="617.0" stroke-width="0.5"/>
    <line stroke="black" x1="474.0" y1="885.0" x2="467.0" y2="885.0" stroke-width="0.5"/>
    <line stroke="black" x1="485.0" y1="796.0" x2="478.0" y2="797.0" stroke-width="0.5"/>
    <line stroke="black" x1="502.0" y1="772.0" x2="495.0" y2="772.0" stroke-width="0.5"/>
    <line stroke="black" x1="498.0" y1="757.0" x2="495.0" y2="772.0" stroke-width="0.5"/>
    <line stroke="black" x1="536.0" y1="789.0" x2="493.0" y2="774.0" stroke-width="0.5"/>
    <line stroke="black" x1="674.0" y1="850.0" x2="465.0" y2="883.0" stroke-width="0.5"/>
    <line stroke="black" x1="647.0" y1="952.0" x2="638.0" y2="951.0" stroke-width="0.5"/>
    <line stroke="black" x1="718.0" y1="881.0" x2="622.0" y2="916.0" stroke-width="0.5"/>
    <line stroke="black" x1="716.0" y1="959.0" x2="708.0" y2="960.0" stroke-width="0.5"/>
    <line stroke="black" x1="767.0" y1="912.0" x2="638.0" y2="951.0" stroke-width="0.5"/>
    <line stroke="black" x1="747.0" y1="1021.0" x2="740.0" y2="1020.0" stroke-width="0.5"/>
    <line stroke="black" x1="748.0" y1="1037.0" x2="740.0" y2="1020.0" stroke-width="0.5"/>
    <line stroke="black" x1="773.0" y1="975.0" x2="708.0" y2="960.0" stroke-width="0.5"/>
    <line stroke="black" x1="792.0" y1="943.0" x2="708.0" y2="960.0" stroke-width="0.5"/>
    <line stroke="black" x1="481.0" y1="29.0" x2="440.0" y2="71.0" stroke-width="0.5"/>
    <line stroke="black" x1="440.0" y1="71.0" x2="250.0" y2="247.0" stroke-width="0.5"/>
    <line stroke="black" x1="440.0" y1="71.0" x2="472.0" y2="144.0" stroke-width="0.5"/>
    <line stroke="black" x1="472.0" y1="144.0" x2="510.0" y2="183.0" stroke-width="0.5"/>
    <line stroke="black" x1="472.0" y1="144.0" x2="474.0" y2="141.0" stroke-width="0.5"/>
    <line stroke="black" x1="510.0" y1="183.0" x2="516.0" y2="208.0" stroke-width="0.5"/>
    <line stroke="black" x1="510.0" y1="183.0" x2="557.0" y2="153.0" stroke-width="0.5"/>
    <line stroke="black" x1="516.0" y1="208.0" x2="518.0" y2="215.0" stroke-width="0.5"/>
    <line stroke="black" x1="250.0" y1="247.0" x2="225.0" y2="417.0" stroke-width="0.5"/>
    <line stroke="black" x1="250.0" y1="247.0" x2="329.0" y2="394.0" stroke-width="0.5"/>
    <line stroke="black" x1="225.0" y1="417.0" x2="197.0" y2="553.0" stroke-width="0.5"/>
    <line stroke="black" x1="225.0" y1="417.0" x2="434.0" y2="587.0" stroke-width="0.5"/>
    <line stroke="black" x1="329.0" y1="394.0" x2="331.0" y2="397.0" stroke-width="0.5"/>
    <line stroke="black" x1="329.0" y1="394.0" x2="420.0" y2="347.0" stroke-width="0.5"/>
    <line stroke="black" x1="331.0" y1="397.0" x2="389.0" y2="443.0" stroke-width="0.5"/>
    <line stroke="black" x1="389.0" y1="443.0" x2="416.0" y2="470.0" stroke-width="0.5"/>
    <line stroke="black" x1="197.0" y1="553.0" x2="163.0" y2="696.0" stroke-width="0.5"/>
    <line stroke="black" x1="197.0" y1="553.0" x2="214.0" y2="687.0" stroke-width="0.5"/>
    <line stroke="black" x1="420.0" y1="347.0" x2="434.0" y2="309.0" stroke-width="0.5"/>
    <line stroke="black" x1="416.0" y1="470.0" x2="455.0" y2="493.0" stroke-width="0.5"/>
    <line stroke="black" x1="434.0" y1="309.0" x2="456.0" y2="338.0" stroke-width="0.5"/>
    <line stroke="black" x1="434.0" y1="309.0" x2="463.0" y2="277.0" stroke-width="0.5"/>
    <line stroke="black" x1="458.0" y1="340.0" x2="456.0" y2="338.0" stroke-width="0.5"/>
    <line stroke="black" x1="214.0" y1="687.0" x2="475.0" y2="710.0" stroke-width="0.5"/>
    <line stroke="black" x1="163.0" y1="696.0" x2="254.0" y2="840.0" stroke-width="0.5"/>
    <line stroke="black" x1="434.0" y1="587.0" x2="608.0" y2="617.0" stroke-width="0.5"/>
    <line stroke="black" x1="434.0" y1="587.0" x2="578.0" y2="557.0" stroke-width="0.5"/>
    <line stroke="black" x1="578.0" y1="557.0" x2="580.0" y2="555.0" stroke-width="0.5"/>
    <line stroke="black" x1="254.0" y1="840.0" x2="478.0" y2="797.0" stroke-width="0.5"/>
    <line stroke="black" x1="254.0" y1="840.0" x2="465.0" y2="883.0" stroke-width="0.5"/>
    <line stroke="black" x1="477.0" y1="712.0" x2="475.0" y2="710.0" stroke-width="0.5"/>
    <line stroke="black" x1="467.0" y1="885.0" x2="465.0" y2="883.0" stroke-width="0.5"/>
    <line stroke="black" x1="467.0" y1="885.0" x2="622.0" y2="916.0" stroke-width="0.5"/>
    <line stroke="black" x1="478.0" y1="797.0" x2="493.0" y2="774.0" stroke-width="0.5"/>
    <line stroke="black" x1="493.0" y1="774.0" x2="495.0" y2="772.0" stroke-width="0.5"/>
    <line stroke="black" x1="622.0" y1="916.0" x2="638.0" y2="951.0" stroke-width="0.5"/>
    <line stroke="black" x1="638.0" y1="951.0" x2="676.0" y2="990.0" stroke-width="0.5"/>
    <line stroke="black" x1="676.0" y1="990.0" x2="740.0" y2="1020.0" stroke-width="0.5"/>
    <line stroke="black" x1="676.0" y1="990.0" x2="708.0" y2="960.0" stroke-width="0.5"/>
    <line stroke="black" x1="801.0" y1="1068.0" x2="163.0" y2="696.0" stroke-width="0.5"/>
    <line stroke="black" x1="517.0" y1="385.0" x2="420.0" y2="347.0" stroke-width="0.5"/>
    <line stroke="black" x1="482.0" y1="820.0" x2="478.0" y2="797.0" stroke-width="0.5"/>
    <line stroke="black" x1="588.0" y1="44.0" x2="481.0" y2="29.0" stroke-width="0.5"/>
    <line stroke="black" x1="557.0" y1="13.0" x2="481.0" y2="29.0" stroke-width="0.5"/>
    <line stroke="black" x1="586.0" y1="199.0" x2="516.0" y2="208.0" stroke-width="0.5"/>
    <line stroke="black" x1="801.0" y1="634.0" x2="608.0" y2="617.0" stroke-width="0.5"/>
    <line stroke="black" x1="745.0" y1="1006.0" x2="740.0" y2="1020.0" stroke-width="0.5"/>
   </g>
  </g>
 </svg>
</svg>
