<?xml version="1.0" encoding="UTF-8"?>
<svg height="800.0" width="700.0" xmlns="http://www.w3.org/2000/svg">
 <svg>
  <g>
   <g>
    <g>
     <circle stroke="black" stroke-width="0.5" fill="#aaffff" cx="6.0" cy="1293.0" r="1.0"/>
     <text stroke="none" x="6.0" y="1293.0" font-size="20.0" font-family="helvetica"/>
    </g>
    <g>
     <circle stroke="black" stroke-width="0.5" fill="#aaffff" cx="81.0" cy="1062.0" r="1.0"/>
     <text stroke="none" x="81.0" y="1062.0" font-size="20.0" font-family="helvetica"/>
    </g>
    <g>
     <circle stroke="black" stroke-width="0.5" fill="#aaffff" cx="81.0" cy="1064.0" r="1.0"/>
     <text stroke="none" x="81.0" y="1064.0" font-size="10.0" font-family="helvetica">NT1.3</text>
    </g>
    <g>
     <circle stroke="black" stroke-width="0.5" fill="#aaffff" cx="176.0" cy="1243.0" r="1.0"/>
     <text stroke="none" x="176.0" y="1243.0" font-size="10.0" font-family="helvetica">NT1.4</text>
    </g>
    <g>
     <circle stroke="black" stroke-width="0.5" fill="#aaffff" cx="259.0" cy="1321.0" r="1.0"/>
     <text stroke="none" x="259.0" y="1321.0" font-size="10.0" font-family="helvetica">NT1.5</text>
    </g>
    <g>
     <circle stroke="black" stroke-width="0.5" fill="#aaffff" cx="275.0" cy="1170.0" r="1.0"/>
     <text stroke="none" x="275.0" y="1170.0" font-size="10.0" font-family="helvetica">NT1.6</text>
    </g>
    <g>
     <circle stroke="black" stroke-width="0.5" fill="#aaffff" cx="304.0" cy="1136.0" r="1.0"/>
     <text stroke="none" x="304.0" y="1136.0" font-size="20.0" font-family="helvetica">Leifsonia xyli subsp. cynodontis MDE1 (M60935)</text>
    </g>
    <g>
     <circle stroke="black" stroke-width="0.5" fill="#aaffff" cx="342.0" cy="1201.0" r="1.0"/>
     <text stroke="none" x="342.0" y="1201.0" font-size="20.0" font-family="helvetica"/>
    </g>
    <g>
     <circle stroke="black" stroke-width="0.5" fill="#aaffff" cx="366.0" cy="1461.0" r="1.0"/>
     <text stroke="none" x="366.0" y="1461.0" font-size="20.0" font-family="helvetica"/>
    </g>
    <g>
     <circle stroke="black" stroke-width="0.5" fill="#aaffff" cx="393.0" cy="1266.0" r="1.0"/>
     <text stroke="none" x="393.0" y="1266.0" font-size="20.0" font-family="helvetica"/>
    </g>
    <line stroke="black" x1="81.0" y1="1064.0" x2="81.0" y2="1062.0" stroke-width="0.5"/>
    <line stroke="black" x1="342.0" y1="1201.0" x2="275.0" y2="1170.0" stroke-width="0.5"/>
    <line stroke="black" x1="81.0" y1="1064.0" x2="176.0" y2="1243.0" stroke-width="0.5"/>
    <line stroke="black" x1="176.0" y1="1243.0" x2="259.0" y2="1321.0" stroke-width="0.5"/>
    <line stroke="black" x1="176.0" y1="1243.0" x2="275.0" y2="1170.0" stroke-width="0.5"/>
    <line stroke="black" x1="6.0" y1="1293.0" x2="81.0" y2="1064.0" stroke-width="0.5"/>
    <line stroke="black" x1="304.0" y1="1136.0" x2="275.0" y2="1170.0" stroke-width="0.5"/>
    <line stroke="black" x1="393.0" y1="1266.0" x2="259.0" y2="1321.0" stroke-width="0.5"/>
    <line stroke="black" x1="366.0" y1="1461.0" x2="259.0" y2="1321.0" stroke-width="0.5"/>
   </g>
  </g>
 </svg>
</svg>
