<?xml version="1.0" encoding="UTF-8"?>
<svg height="800.0" width="700.0" xmlns="http://www.w3.org/2000/svg">
 <svg>
  <g>
   <g>
    <g>
     <circle stroke="black" stroke-width="0.5" fill="#aaffff" cx="172.0" cy="57.0" r="1.0"/>
     <text stroke="none" x="172.0" y="57.0" font-size="20.0" font-family="helvetica"/>
    </g>
    <g>
     <circle stroke="black" stroke-width="0.5" fill="#aaffff" cx="177.0" cy="57.0" r="1.0"/>
     <text stroke="none" x="177.0" y="57.0" font-size="10.0" font-family="helvetica">NT1.2</text>
    </g>
    <g>
     <circle stroke="black" stroke-width="0.5" fill="#aaffff" cx="218.0" cy="155.0" r="1.0"/>
     <text stroke="none" x="218.0" y="155.0" font-size="20.0" font-family="helvetica"/>
    </g>
    <g>
     <circle stroke="black" stroke-width="0.5" fill="#aaffff" cx="231.0" cy="155.0" r="1.0"/>
     <text stroke="none" x="231.0" y="155.0" font-size="20.0" font-family="helvetica"/>
    </g>
    <g>
     <circle stroke="black" stroke-width="0.5" fill="#aaffff" cx="255.0" cy="144.0" r="1.0"/>
     <text stroke="none" x="255.0" y="144.0" font-size="10.0" font-family="helvetica">NT1.5</text>
    </g>
    <g>
     <circle stroke="black" stroke-width="0.5" fill="#aaffff" cx="354.0" cy="323.0" r="1.0"/>
     <text stroke="none" x="354.0" y="323.0" font-size="20.0" font-family="helvetica"/>
    </g>
    <g>
     <circle stroke="black" stroke-width="0.5" fill="#aaffff" cx="361.0" cy="346.0" r="1.0"/>
     <text stroke="none" x="361.0" y="346.0" font-size="10.0" font-family="helvetica">NT1.7</text>
    </g>
    <g>
     <circle stroke="black" stroke-width="0.5" fill="#aaffff" cx="367.0" cy="324.0" r="1.0"/>
     <text stroke="none" x="367.0" y="324.0" font-size="20.0" font-family="helvetica"/>
    </g>
    <g>
     <circle stroke="black" stroke-width="0.5" fill="#aaffff" cx="489.0" cy="212.0" r="1.0"/>
     <text stroke="none" x="489.0" y="212.0" font-size="20.0" font-family="helvetica"/>
    </g>
    <g>
     <circle stroke="black" stroke-width="0.5" fill="#aaffff" cx="489.0" cy="535.0" r="1.0"/>
     <text stroke="none" x="489.0" y="535.0" font-size="20.0" font-family="helvetica"/>
    </g>
    <g>
     <circle stroke="black" stroke-width="0.5" fill="#aaffff" cx="489.0" cy="212.0" r="1.0"/>
     <text stroke="none" x="489.0" y="212.0" font-size="10.0" font-family="helvetica">NT1.11</text>
    </g>
    <g>
     <circle stroke="black" stroke-width="0.5" fill="#aaffff" cx="492.0" cy="96.0" r="1.0"/>
     <text stroke="none" x="492.0" y="96.0" font-size="20.0" font-family="helvetica"/>
    </g>
    <g>
     <circle stroke="black" stroke-width="0.5" fill="#aaffff" cx="492.0" cy="99.0" r="1.0"/>
     <text stroke="none" x="492.0" y="99.0" font-size="10.0" font-family="helvetica">NT1.13</text>
    </g>
    <g>
     <circle stroke="black" stroke-width="0.5" fill="#aaffff" cx="502.0" cy="212.0" r="1.0"/>
     <text stroke="none" x="502.0" y="212.0" font-size="20.0" font-family="helvetica"/>
    </g>
    <g>
     <circle stroke="black" stroke-width="0.5" fill="#aaffff" cx="503.0" cy="535.0" r="1.0"/>
     <text stroke="none" x="503.0" y="535.0" font-size="20.0" font-family="helvetica"/>
    </g>
    <g>
     <circle stroke="black" stroke-width="0.5" fill="#aaffff" cx="503.0" cy="535.0" r="1.0"/>
     <text stroke="none" x="503.0" y="535.0" font-size="10.0" font-family="helvetica">NT1.16</text>
    </g>
    <g>
     <circle stroke="black" stroke-width="0.5" fill="#aaffff" cx="526.0" cy="12.0" r="1.0"/>
     <text stroke="none" x="526.0" y="12.0" font-size="20.0" font-family="helvetica"/>
    </g>
    <g>
     <circle stroke="black" stroke-width="0.5" fill="#aaffff" cx="526.0" cy="14.0" r="1.0"/>
     <text stroke="none" x="526.0" y="14.0" font-size="10.0" font-family="helvetica">NT1.18</text>
    </g>
    <g>
     <circle stroke="black" stroke-width="0.5" fill="#aaffff" cx="637.0" cy="324.0" r="1.0"/>
     <text stroke="none" x="637.0" y="324.0" font-size="20.0" font-family="helvetica"/>
    </g>
    <g>
     <circle stroke="black" stroke-width="0.5" fill="#aaffff" cx="637.0" cy="619.0" r="1.0"/>
     <text stroke="none" x="637.0" y="619.0" font-size="20.0" font-family="helvetica"/>
    </g>
    <g>
     <circle stroke="black" stroke-width="0.5" fill="#aaffff" cx="644.0" cy="641.0" r="1.0"/>
     <text stroke="none" x="644.0" y="641.0" font-size="10.0" font-family="helvetica">NT1.21</text>
    </g>
    <g>
     <circle stroke="black" stroke-width="0.5" fill="#aaffff" cx="650.0" cy="324.0" r="1.0"/>
     <text stroke="none" x="650.0" y="324.0" font-size="20.0" font-family="helvetica"/>
    </g>
    <g>
     <circle stroke="black" stroke-width="0.5" fill="#aaffff" cx="650.0" cy="619.0" r="1.0"/>
     <text stroke="none" x="650.0" y="619.0" font-size="20.0" font-family="helvetica"/>
    </g>
    <g>
     <circle stroke="black" stroke-width="0.5" fill="#aaffff" cx="673.0" cy="180.0" r="1.0"/>
     <text stroke="none" x="673.0" y="180.0" font-size="20.0" font-family="helvetica"/>
    </g>
    <g>
     <circle stroke="black" stroke-width="0.5" fill="#aaffff" cx="673.0" cy="476.0" r="1.0"/>
     <text stroke="none" x="673.0" y="476.0" font-size="20.0" font-family="helvetica"/>
    </g>
    <g>
     <circle stroke="black" stroke-width="0.5" fill="#aaffff" cx="673.0" cy="183.0" r="1.0"/>
     <text stroke="none" x="673.0" y="183.0" font-size="10.0" font-family="helvetica">NT1.26</text>
    </g>
    <g>
     <circle stroke="black" stroke-width="0.5" fill="#aaffff" cx="673.0" cy="313.0" r="1.0"/>
     <text stroke="none" x="673.0" y="313.0" font-size="10.0" font-family="helvetica">NT1.27</text>
    </g>
    <g>
     <circle stroke="black" stroke-width="0.5" fill="#aaffff" cx="673.0" cy="478.0" r="1.0"/>
     <text stroke="none" x="673.0" y="478.0" font-size="10.0" font-family="helvetica">NT1.28</text>
    </g>
    <g>
     <circle stroke="black" stroke-width="0.5" fill="#aaffff" cx="771.0" cy="265.0" r="1.0"/>
     <text stroke="none" x="771.0" y="265.0" font-size="20.0" font-family="helvetica"/>
    </g>
    <g>
     <circle stroke="black" stroke-width="0.5" fill="#aaffff" cx="771.0" cy="355.0" r="1.0"/>
     <text stroke="none" x="771.0" y="355.0" font-size="20.0" font-family="helvetica"/>
    </g>
    <g>
     <circle stroke="black" stroke-width="0.5" fill="#aaffff" cx="771.0" cy="651.0" r="1.0"/>
     <text stroke="none" x="771.0" y="651.0" font-size="20.0" font-family="helvetica"/>
    </g>
    <g>
     <circle stroke="black" stroke-width="0.5" fill="#aaffff" cx="771.0" cy="268.0" r="1.0"/>
     <text stroke="none" x="771.0" y="268.0" font-size="10.0" font-family="helvetica">NT1.32</text>
    </g>
    <g>
     <circle stroke="black" stroke-width="0.5" fill="#aaffff" cx="771.0" cy="353.0" r="1.0"/>
     <text stroke="none" x="771.0" y="353.0" font-size="10.0" font-family="helvetica">NT1.33</text>
    </g>
    <g>
     <circle stroke="black" stroke-width="0.5" fill="#aaffff" cx="771.0" cy="648.0" r="1.0"/>
     <text stroke="none" x="771.0" y="648.0" font-size="10.0" font-family="helvetica">NT1.34</text>
    </g>
    <g>
     <circle stroke="black" stroke-width="0.5" fill="#aaffff" cx="797.0" cy="560.0" r="1.0"/>
     <text stroke="none" x="797.0" y="560.0" font-size="20.0" font-family="helvetica"/>
    </g>
    <g>
     <circle stroke="black" stroke-width="0.5" fill="#aaffff" cx="797.0" cy="562.0" r="1.0"/>
     <text stroke="none" x="797.0" y="562.0" font-size="10.0" font-family="helvetica">NT1.36</text>
    </g>
    <g>
     <circle stroke="black" stroke-width="0.5" fill="#aaffff" cx="878.0" cy="15.0" r="1.0"/>
     <text stroke="none" x="878.0" y="15.0" font-size="20.0" font-family="helvetica">Outgroup</text>
    </g>
    <g>
     <circle stroke="black" stroke-width="0.5" fill="#aaffff" cx="878.0" cy="184.0" r="1.0"/>
     <text stroke="none" x="878.0" y="184.0" font-size="20.0" font-family="helvetica">Herpetosiphon aurantiacus</text>
    </g>
    <g>
     <circle stroke="black" stroke-width="0.5" fill="#aaffff" cx="878.0" cy="479.0" r="1.0"/>
     <text stroke="none" x="878.0" y="479.0" font-size="20.0" font-family="helvetica"> 'Thermobaculum terrenumi</text>
    </g>
    <g>
     <circle stroke="black" stroke-width="0.5" fill="#aaffff" cx="879.0" cy="99.0" r="1.0"/>
     <text stroke="none" x="879.0" y="99.0" font-size="20.0" font-family="helvetica">iDehalococcoides' sp.</text>
    </g>
    <g>
     <circle stroke="black" stroke-width="0.5" fill="#aaffff" cx="879.0" cy="268.0" r="1.0"/>
     <text stroke="none" x="879.0" y="268.0" font-size="20.0" font-family="helvetica">Roselflexus Sp'</text>
    </g>
    <g>
     <circle stroke="black" stroke-width="0.5" fill="#aaffff" cx="879.0" cy="352.0" r="1.0"/>
     <text stroke="none" x="879.0" y="352.0" font-size="20.0" font-family="helvetica">Chloroflexus</text>
    </g>
    <g>
     <circle stroke="black" stroke-width="0.5" fill="#aaffff" cx="879.0" cy="563.0" r="1.0"/>
     <text stroke="none" x="879.0" y="563.0" font-size="20.0" font-family="helvetica">Sphaerobacter thermophilus</text>
    </g>
    <g>
     <circle stroke="black" stroke-width="0.5" fill="#aaffff" cx="879.0" cy="648.0" r="1.0"/>
     <text stroke="none" x="879.0" y="648.0" font-size="20.0" font-family="helvetica">Thermomicrobium roseum</text>
    </g>
    <line stroke="black" x1="172.0" y1="57.0" x2="177.0" y2="57.0" stroke-width="0.5"/>
    <line stroke="black" x1="218.0" y1="155.0" x2="255.0" y2="144.0" stroke-width="0.5"/>
    <line stroke="black" x1="231.0" y1="155.0" x2="255.0" y2="144.0" stroke-width="0.5"/>
    <line stroke="black" x1="526.0" y1="14.0" x2="526.0" y2="12.0" stroke-width="0.5"/>
    <line stroke="black" x1="492.0" y1="99.0" x2="492.0" y2="96.0" stroke-width="0.5"/>
    <line stroke="black" x1="354.0" y1="323.0" x2="361.0" y2="346.0" stroke-width="0.5"/>
    <line stroke="black" x1="367.0" y1="324.0" x2="361.0" y2="346.0" stroke-width="0.5"/>
    <line stroke="black" x1="489.0" y1="212.0" x2="489.0" y2="212.0" stroke-width="0.5"/>
    <line stroke="black" x1="502.0" y1="212.0" x2="489.0" y2="212.0" stroke-width="0.5"/>
    <line stroke="black" x1="878.0" y1="15.0" x2="526.0" y2="14.0" stroke-width="0.5"/>
    <line stroke="black" x1="489.0" y1="535.0" x2="503.0" y2="535.0" stroke-width="0.5"/>
    <line stroke="black" x1="503.0" y1="535.0" x2="503.0" y2="535.0" stroke-width="0.5"/>
    <line stroke="black" x1="879.0" y1="99.0" x2="492.0" y2="99.0" stroke-width="0.5"/>
    <line stroke="black" x1="673.0" y1="180.0" x2="673.0" y2="183.0" stroke-width="0.5"/>
    <line stroke="black" x1="637.0" y1="324.0" x2="673.0" y2="313.0" stroke-width="0.5"/>
    <line stroke="black" x1="650.0" y1="324.0" x2="673.0" y2="313.0" stroke-width="0.5"/>
    <line stroke="black" x1="673.0" y1="478.0" x2="673.0" y2="476.0" stroke-width="0.5"/>
    <line stroke="black" x1="637.0" y1="619.0" x2="644.0" y2="641.0" stroke-width="0.5"/>
    <line stroke="black" x1="650.0" y1="619.0" x2="644.0" y2="641.0" stroke-width="0.5"/>
    <line stroke="black" x1="771.0" y1="268.0" x2="771.0" y2="265.0" stroke-width="0.5"/>
    <line stroke="black" x1="771.0" y1="355.0" x2="771.0" y2="353.0" stroke-width="0.5"/>
    <line stroke="black" x1="878.0" y1="184.0" x2="673.0" y2="183.0" stroke-width="0.5"/>
    <line stroke="black" x1="879.0" y1="268.0" x2="771.0" y2="268.0" stroke-width="0.5"/>
    <line stroke="black" x1="879.0" y1="352.0" x2="771.0" y2="353.0" stroke-width="0.5"/>
    <line stroke="black" x1="771.0" y1="651.0" x2="771.0" y2="648.0" stroke-width="0.5"/>
    <line stroke="black" x1="797.0" y1="562.0" x2="797.0" y2="560.0" stroke-width="0.5"/>
    <line stroke="black" x1="878.0" y1="479.0" x2="673.0" y2="478.0" stroke-width="0.5"/>
    <line stroke="black" x1="879.0" y1="563.0" x2="797.0" y2="562.0" stroke-width="0.5"/>
    <line stroke="black" x1="879.0" y1="648.0" x2="771.0" y2="648.0" stroke-width="0.5"/>
    <line stroke="black" x1="177.0" y1="57.0" x2="255.0" y2="144.0" stroke-width="0.5"/>
    <line stroke="black" x1="177.0" y1="57.0" x2="526.0" y2="14.0" stroke-width="0.5"/>
    <line stroke="black" x1="255.0" y1="144.0" x2="492.0" y2="99.0" stroke-width="0.5"/>
    <line stroke="black" x1="255.0" y1="144.0" x2="361.0" y2="346.0" stroke-width="0.5"/>
    <line stroke="black" x1="361.0" y1="346.0" x2="489.0" y2="212.0" stroke-width="0.5"/>
    <line stroke="black" x1="361.0" y1="346.0" x2="503.0" y2="535.0" stroke-width="0.5"/>
    <line stroke="black" x1="489.0" y1="212.0" x2="673.0" y2="313.0" stroke-width="0.5"/>
    <line stroke="black" x1="489.0" y1="212.0" x2="673.0" y2="183.0" stroke-width="0.5"/>
    <line stroke="black" x1="503.0" y1="535.0" x2="673.0" y2="478.0" stroke-width="0.5"/>
    <line stroke="black" x1="503.0" y1="535.0" x2="644.0" y2="641.0" stroke-width="0.5"/>
    <line stroke="black" x1="673.0" y1="313.0" x2="771.0" y2="268.0" stroke-width="0.5"/>
    <line stroke="black" x1="673.0" y1="313.0" x2="771.0" y2="353.0" stroke-width="0.5"/>
    <line stroke="black" x1="644.0" y1="641.0" x2="797.0" y2="562.0" stroke-width="0.5"/>
    <line stroke="black" x1="644.0" y1="641.0" x2="771.0" y2="648.0" stroke-width="0.5"/>
    <line stroke="black" x1="255.0" y1="144.0" x2="255.0" y2="144.0" stroke-width="0.5"/>
    <line stroke="black" x1="361.0" y1="346.0" x2="361.0" y2="346.0" stroke-width="0.5"/>
    <line stroke="black" x1="489.0" y1="212.0" x2="489.0" y2="212.0" stroke-width="0.5"/>
    <line stroke="black" x1="503.0" y1="535.0" x2="503.0" y2="535.0" stroke-width="0.5"/>
    <line stroke="black" x1="673.0" y1="313.0" x2="673.0" y2="313.0" stroke-width="0.5"/>
    <line stroke="black" x1="644.0" y1="641.0" x2="644.0" y2="641.0" stroke-width="0.5"/>
   </g>
  </g>
 </svg>
</svg>
