<?xml version="1.0" encoding="UTF-8"?>
<svg height="800.0" width="700.0" xmlns="http://www.w3.org/2000/svg">
 <svg>
  <g>
   <g>
    <g>
     <circle stroke="black" stroke-width="0.5" fill="#aaffff" cx="39.0" cy="850.0" r="1.0"/>
     <text stroke="none" x="39.0" y="850.0" font-size="10.0" font-family="helvetica">NT1.1</text>
    </g>
    <g>
     <circle stroke="black" stroke-width="0.5" fill="#aaffff" cx="81.0" cy="1017.0" r="1.0"/>
     <text stroke="none" x="81.0" y="1017.0" font-size="10.0" font-family="helvetica">NT1.2</text>
    </g>
    <g>
     <circle stroke="black" stroke-width="0.5" fill="#aaffff" cx="110.0" cy="679.0" r="1.0"/>
     <text stroke="none" x="110.0" y="679.0" font-size="10.0" font-family="helvetica">NT1.3</text>
    </g>
    <g>
     <circle stroke="black" stroke-width="0.5" fill="#aaffff" cx="117.0" cy="1055.0" r="1.0"/>
     <text stroke="none" x="117.0" y="1055.0" font-size="10.0" font-family="helvetica">NT1.4</text>
    </g>
    <g>
     <circle stroke="black" stroke-width="0.5" fill="#aaffff" cx="191.0" cy="427.0" r="1.0"/>
     <text stroke="none" x="191.0" y="427.0" font-size="20.0" font-family="helvetica">77</text>
    </g>
    <g>
     <circle stroke="black" stroke-width="0.5" fill="#aaffff" cx="195.0" cy="609.0" r="1.0"/>
     <text stroke="none" x="195.0" y="609.0" font-size="10.0" font-family="helvetica">NT1.6</text>
    </g>
    <g>
     <circle stroke="black" stroke-width="0.5" fill="#aaffff" cx="201.0" cy="245.0" r="1.0"/>
     <text stroke="none" x="201.0" y="245.0" font-size="10.0" font-family="helvetica">NT1.7</text>
    </g>
    <g>
     <circle stroke="black" stroke-width="0.5" fill="#aaffff" cx="214.0" cy="313.0" r="1.0"/>
     <text stroke="none" x="214.0" y="313.0" font-size="10.0" font-family="helvetica">NT1.8</text>
    </g>
    <g>
     <circle stroke="black" stroke-width="0.5" fill="#aaffff" cx="225.0" cy="719.0" r="1.0"/>
     <text stroke="none" x="225.0" y="719.0" font-size="10.0" font-family="helvetica">NT1.9</text>
    </g>
    <g>
     <circle stroke="black" stroke-width="0.5" fill="#aaffff" cx="242.0" cy="173.0" r="1.0"/>
     <text stroke="none" x="242.0" y="173.0" font-size="10.0" font-family="helvetica">NT1.10</text>
    </g>
    <g>
     <circle stroke="black" stroke-width="0.5" fill="#aaffff" cx="266.0" cy="1031.0" r="1.0"/>
     <text stroke="none" x="266.0" y="1031.0" font-size="20.0" font-family="helvetica">Nocardioides dubius KSL-104T (AY928902)</text>
    </g>
    <g>
     <circle stroke="black" stroke-width="0.5" fill="#aaffff" cx="269.0" cy="124.0" r="1.0"/>
     <text stroke="none" x="269.0" y="124.0" font-size="10.0" font-family="helvetica">NT1.12</text>
    </g>
    <g>
     <circle stroke="black" stroke-width="0.5" fill="#aaffff" cx="282.0" cy="357.0" r="1.0"/>
     <text stroke="none" x="282.0" y="357.0" font-size="20.0" font-family="helvetica">84</text>
    </g>
    <g>
     <circle stroke="black" stroke-width="0.5" fill="#aaffff" cx="307.0" cy="80.0" r="1.0"/>
     <text stroke="none" x="307.0" y="80.0" font-size="10.0" font-family="helvetica">NT1.14</text>
    </g>
    <g>
     <circle stroke="black" stroke-width="0.5" fill="#aaffff" cx="324.0" cy="42.0" r="1.0"/>
     <text stroke="none" x="324.0" y="42.0" font-size="10.0" font-family="helvetica">NT1.15</text>
    </g>
    <g>
     <circle stroke="black" stroke-width="0.5" fill="#aaffff" cx="336.0" cy="1082.0" r="1.0"/>
     <text stroke="none" x="336.0" y="1082.0" font-size="20.0" font-family="helvetica">Nocardioidesjensenii DSM 2O641T (Z78210)</text>
    </g>
    <g>
     <circle stroke="black" stroke-width="0.5" fill="#aaffff" cx="376.0" cy="498.0" r="1.0"/>
     <text stroke="none" x="376.0" y="498.0" font-size="10.0" font-family="helvetica">NT1.17</text>
    </g>
    <g>
     <circle stroke="black" stroke-width="0.5" fill="#aaffff" cx="377.0" cy="638.0" r="1.0"/>
     <text stroke="none" x="377.0" y="638.0" font-size="20.0" font-family="helvetica">100</text>
    </g>
    <g>
     <circle stroke="black" stroke-width="0.5" fill="#aaffff" cx="379.0" cy="635.0" r="1.0"/>
     <text stroke="none" x="379.0" y="635.0" font-size="20.0" font-family="helvetica">100</text>
    </g>
    <g>
     <circle stroke="black" stroke-width="0.5" fill="#aaffff" cx="383.0" cy="498.0" r="1.0"/>
     <text stroke="none" x="383.0" y="498.0" font-size="20.0" font-family="helvetica"/>
    </g>
    <g>
     <circle stroke="black" stroke-width="0.5" fill="#aaffff" cx="386.0" cy="635.0" r="1.0"/>
     <text stroke="none" x="386.0" y="635.0" font-size="20.0" font-family="helvetica"/>
    </g>
    <g>
     <circle stroke="black" stroke-width="0.5" fill="#aaffff" cx="412.0" cy="472.0" r="1.0"/>
     <text stroke="none" x="412.0" y="472.0" font-size="20.0" font-family="helvetica">Nocardioides aquiterrae GW-QT (AF529063)</text>
    </g>
    <g>
     <circle stroke="black" stroke-width="0.5" fill="#aaffff" cx="412.0" cy="929.0" r="1.0"/>
     <text stroke="none" x="412.0" y="929.0" font-size="20.0" font-family="helvetica">Nocardioides alkalitolerans KSL-1T (AY633969)</text>
    </g>
    <g>
     <circle stroke="black" stroke-width="0.5" fill="#aaffff" cx="414.0" cy="1132.0" r="1.0"/>
     <text stroke="none" x="414.0" y="1132.0" font-size="20.0" font-family="helvetica">Aeromicrobium erythreum NRRL B-3381T (M37200)</text>
    </g>
    <g>
     <circle stroke="black" stroke-width="0.5" fill="#aaffff" cx="417.0" cy="320.0" r="1.0"/>
     <text stroke="none" x="417.0" y="320.0" font-size="20.0" font-family="helvetica">Strain CL-DD14T (DQ401093)</text>
    </g>
    <g>
     <circle stroke="black" stroke-width="0.5" fill="#aaffff" cx="429.0" cy="980.0" r="1.0"/>
     <text stroke="none" x="429.0" y="980.0" font-size="20.0" font-family="helvetica">Marmoricola aurantiacus BC 361T (Y18629)</text>
    </g>
    <g>
     <circle stroke="black" stroke-width="0.5" fill="#aaffff" cx="440.0" cy="523.0" r="1.0"/>
     <text stroke="none" x="440.0" y="523.0" font-size="20.0" font-family="helvetica">Nocardioides pyridinolyticus KCTC 0074BPT (U61298)</text>
    </g>
    <g>
     <circle stroke="black" stroke-width="0.5" fill="#aaffff" cx="446.0" cy="802.0" r="1.0"/>
     <text stroke="none" x="446.0" y="802.0" font-size="20.0" font-family="helvetica">100</text>
    </g>
    <g>
     <circle stroke="black" stroke-width="0.5" fill="#aaffff" cx="453.0" cy="803.0" r="1.0"/>
     <text stroke="none" x="453.0" y="803.0" font-size="20.0" font-family="helvetica"/>
    </g>
    <g>
     <circle stroke="black" stroke-width="0.5" fill="#aaffff" cx="460.0" cy="753.0" r="1.0"/>
     <text stroke="none" x="460.0" y="753.0" font-size="10.0" font-family="helvetica">NT1.30</text>
    </g>
    <g>
     <circle stroke="black" stroke-width="0.5" fill="#aaffff" cx="475.0" cy="600.0" r="1.0"/>
     <text stroke="none" x="475.0" y="600.0" font-size="20.0" font-family="helvetica">99</text>
    </g>
    <g>
     <circle stroke="black" stroke-width="0.5" fill="#aaffff" cx="477.0" cy="596.0" r="1.0"/>
     <text stroke="none" x="477.0" y="596.0" font-size="20.0" font-family="helvetica">99</text>
    </g>
    <g>
     <circle stroke="black" stroke-width="0.5" fill="#aaffff" cx="477.0" cy="852.0" r="1.0"/>
     <text stroke="none" x="477.0" y="852.0" font-size="20.0" font-family="helvetica">74</text>
    </g>
    <g>
     <circle stroke="black" stroke-width="0.5" fill="#aaffff" cx="484.0" cy="16.0" r="1.0"/>
     <text stroke="none" x="484.0" y="16.0" font-size="20.0" font-family="helvetica">Nocardioides kribbensis KSL-ZT (AY835924)</text>
    </g>
    <g>
     <circle stroke="black" stroke-width="0.5" fill="#aaffff" cx="485.0" cy="596.0" r="1.0"/>
     <text stroke="none" x="485.0" y="596.0" font-size="20.0" font-family="helvetica"/>
    </g>
    <g>
     <circle stroke="black" stroke-width="0.5" fill="#aaffff" cx="486.0" cy="853.0" r="1.0"/>
     <text stroke="none" x="486.0" y="853.0" font-size="20.0" font-family="helvetica"/>
    </g>
    <g>
     <circle stroke="black" stroke-width="0.5" fill="#aaffff" cx="492.0" cy="676.0" r="1.0"/>
     <text stroke="none" x="492.0" y="676.0" font-size="20.0" font-family="helvetica">Nocardioides fuwisabuli SBS-26T (DQ41 1542)</text>
    </g>
    <g>
     <circle stroke="black" stroke-width="0.5" fill="#aaffff" cx="496.0" cy="395.0" r="1.0"/>
     <text stroke="none" x="496.0" y="395.0" font-size="20.0" font-family="helvetica">100</text>
    </g>
    <g>
     <circle stroke="black" stroke-width="0.5" fill="#aaffff" cx="498.0" cy="397.0" r="1.0"/>
     <text stroke="none" x="498.0" y="397.0" font-size="20.0" font-family="helvetica">100</text>
    </g>
    <g>
     <circle stroke="black" stroke-width="0.5" fill="#aaffff" cx="504.0" cy="397.0" r="1.0"/>
     <text stroke="none" x="504.0" y="397.0" font-size="20.0" font-family="helvetica"/>
    </g>
    <g>
     <circle stroke="black" stroke-width="0.5" fill="#aaffff" cx="516.0" cy="219.0" r="1.0"/>
     <text stroke="none" x="516.0" y="219.0" font-size="20.0" font-family="helvetica">Nocardioides aestuarii JC2056T(AY423719)</text>
    </g>
    <g>
     <circle stroke="black" stroke-width="0.5" fill="#aaffff" cx="528.0" cy="574.0" r="1.0"/>
     <text stroke="none" x="528.0" y="574.0" font-size="20.0" font-family="helvetica">Nocardioides ganghwensis JC2055T (AY423718)</text>
    </g>
    <g>
     <circle stroke="black" stroke-width="0.5" fill="#aaffff" cx="532.0" cy="726.0" r="1.0"/>
     <text stroke="none" x="532.0" y="726.0" font-size="20.0" font-family="helvetica">Nocardioides aromaticivorans H-1T (AB087721)</text>
    </g>
    <g>
     <circle stroke="black" stroke-width="0.5" fill="#aaffff" cx="537.0" cy="827.0" r="1.0"/>
     <text stroke="none" x="537.0" y="827.0" font-size="20.0" font-family="helvetica">Nocardioides nitrophenolicus KCTC O457BPT (AF005024)</text>
    </g>
    <g>
     <circle stroke="black" stroke-width="0.5" fill="#aaffff" cx="537.0" cy="879.0" r="1.0"/>
     <text stroke="none" x="537.0" y="879.0" font-size="20.0" font-family="helvetica">Nocardioides kongjuensis A2-4T (DQ218275)</text>
    </g>
    <g>
     <circle stroke="black" stroke-width="0.5" fill="#aaffff" cx="539.0" cy="777.0" r="1.0"/>
     <text stroke="none" x="539.0" y="777.0" font-size="20.0" font-family="helvetica">Nocardioides simplex KCTC 9106T (AF005009)</text>
    </g>
    <g>
     <circle stroke="black" stroke-width="0.5" fill="#aaffff" cx="562.0" cy="370.0" r="1.0"/>
     <text stroke="none" x="562.0" y="370.0" font-size="20.0" font-family="helvetica">Nocardioides albus KCTC 9186T (AFO04988)</text>
    </g>
    <g>
     <circle stroke="black" stroke-width="0.5" fill="#aaffff" cx="564.0" cy="625.0" r="1.0"/>
     <text stroke="none" x="564.0" y="625.0" font-size="20.0" font-family="helvetica">Nocardioides oleivorans BAS3T (AJ698724)</text>
    </g>
    <g>
     <circle stroke="black" stroke-width="0.5" fill="#aaffff" cx="606.0" cy="67.0" r="1.0"/>
     <text stroke="none" x="606.0" y="67.0" font-size="20.0" font-family="helvetica">Nocardioides aquaticus DSM 114397 (X94145)</text>
    </g>
    <g>
     <circle stroke="black" stroke-width="0.5" fill="#aaffff" cx="617.0" cy="168.0" r="1.0"/>
     <text stroke="none" x="617.0" y="168.0" font-size="20.0" font-family="helvetica">Nocardioides plantarum NCIMB 12834T (AFO05008)</text>
    </g>
    <g>
     <circle stroke="black" stroke-width="0.5" fill="#aaffff" cx="685.0" cy="422.0" r="1.0"/>
     <text stroke="none" x="685.0" y="422.0" font-size="20.0" font-family="helvetica">Nocardioides Iuteus NCI M B 1 1455T (X53212)</text>
    </g>
    <g>
     <circle stroke="black" stroke-width="0.5" fill="#aaffff" cx="704.0" cy="269.0" r="1.0"/>
     <text stroke="none" x="704.0" y="269.0" font-size="20.0" font-family="helvetica">Nocardioides insulae DS-517 (DQ786794)</text>
    </g>
    <g>
     <circle stroke="black" stroke-width="0.5" fill="#aaffff" cx="712.0" cy="117.0" r="1.0"/>
     <text stroke="none" x="712.0" y="117.0" font-size="20.0" font-family="helvetica">Nocardioides lentus KSL-17T (DQ121389)</text>
    </g>
    <line stroke="black" x1="606.0" y1="67.0" x2="324.0" y2="42.0" stroke-width="0.5"/>
    <line stroke="black" x1="516.0" y1="219.0" x2="242.0" y2="173.0" stroke-width="0.5"/>
    <line stroke="black" x1="417.0" y1="320.0" x2="282.0" y2="357.0" stroke-width="0.5"/>
    <line stroke="black" x1="504.0" y1="397.0" x2="498.0" y2="397.0" stroke-width="0.5"/>
    <line stroke="black" x1="562.0" y1="370.0" x2="496.0" y2="395.0" stroke-width="0.5"/>
    <line stroke="black" x1="383.0" y1="498.0" x2="376.0" y2="498.0" stroke-width="0.5"/>
    <line stroke="black" x1="386.0" y1="635.0" x2="379.0" y2="635.0" stroke-width="0.5"/>
    <line stroke="black" x1="453.0" y1="803.0" x2="446.0" y2="802.0" stroke-width="0.5"/>
    <line stroke="black" x1="485.0" y1="596.0" x2="477.0" y2="596.0" stroke-width="0.5"/>
    <line stroke="black" x1="492.0" y1="676.0" x2="377.0" y2="638.0" stroke-width="0.5"/>
    <line stroke="black" x1="486.0" y1="853.0" x2="477.0" y2="852.0" stroke-width="0.5"/>
    <line stroke="black" x1="537.0" y1="827.0" x2="477.0" y2="852.0" stroke-width="0.5"/>
    <line stroke="black" x1="537.0" y1="879.0" x2="477.0" y2="852.0" stroke-width="0.5"/>
    <line stroke="black" x1="532.0" y1="726.0" x2="460.0" y2="753.0" stroke-width="0.5"/>
    <line stroke="black" x1="564.0" y1="625.0" x2="475.0" y2="600.0" stroke-width="0.5"/>
    <line stroke="black" x1="412.0" y1="929.0" x2="110.0" y2="679.0" stroke-width="0.5"/>
    <line stroke="black" x1="324.0" y1="42.0" x2="307.0" y2="80.0" stroke-width="0.5"/>
    <line stroke="black" x1="307.0" y1="80.0" x2="269.0" y2="124.0" stroke-width="0.5"/>
    <line stroke="black" x1="269.0" y1="124.0" x2="242.0" y2="173.0" stroke-width="0.5"/>
    <line stroke="black" x1="242.0" y1="173.0" x2="201.0" y2="245.0" stroke-width="0.5"/>
    <line stroke="black" x1="201.0" y1="245.0" x2="191.0" y2="427.0" stroke-width="0.5"/>
    <line stroke="black" x1="201.0" y1="245.0" x2="214.0" y2="313.0" stroke-width="0.5"/>
    <line stroke="black" x1="214.0" y1="313.0" x2="282.0" y2="357.0" stroke-width="0.5"/>
    <line stroke="black" x1="282.0" y1="357.0" x2="496.0" y2="395.0" stroke-width="0.5"/>
    <line stroke="black" x1="191.0" y1="427.0" x2="110.0" y2="679.0" stroke-width="0.5"/>
    <line stroke="black" x1="191.0" y1="427.0" x2="195.0" y2="609.0" stroke-width="0.5"/>
    <line stroke="black" x1="195.0" y1="609.0" x2="225.0" y2="719.0" stroke-width="0.5"/>
    <line stroke="black" x1="195.0" y1="609.0" x2="376.0" y2="498.0" stroke-width="0.5"/>
    <line stroke="black" x1="498.0" y1="397.0" x2="496.0" y2="395.0" stroke-width="0.5"/>
    <line stroke="black" x1="225.0" y1="719.0" x2="446.0" y2="802.0" stroke-width="0.5"/>
    <line stroke="black" x1="225.0" y1="719.0" x2="377.0" y2="638.0" stroke-width="0.5"/>
    <line stroke="black" x1="110.0" y1="679.0" x2="39.0" y2="850.0" stroke-width="0.5"/>
    <line stroke="black" x1="377.0" y1="638.0" x2="379.0" y2="635.0" stroke-width="0.5"/>
    <line stroke="black" x1="379.0" y1="635.0" x2="475.0" y2="600.0" stroke-width="0.5"/>
    <line stroke="black" x1="39.0" y1="850.0" x2="81.0" y2="1017.0" stroke-width="0.5"/>
    <line stroke="black" x1="446.0" y1="802.0" x2="460.0" y2="753.0" stroke-width="0.5"/>
    <line stroke="black" x1="446.0" y1="802.0" x2="477.0" y2="852.0" stroke-width="0.5"/>
    <line stroke="black" x1="475.0" y1="600.0" x2="477.0" y2="596.0" stroke-width="0.5"/>
    <line stroke="black" x1="81.0" y1="1017.0" x2="117.0" y2="1055.0" stroke-width="0.5"/>
    <line stroke="black" x1="414.0" y1="1132.0" x2="39.0" y2="850.0" stroke-width="0.5"/>
    <line stroke="black" x1="266.0" y1="1031.0" x2="117.0" y2="1055.0" stroke-width="0.5"/>
    <line stroke="black" x1="336.0" y1="1082.0" x2="117.0" y2="1055.0" stroke-width="0.5"/>
    <line stroke="black" x1="429.0" y1="980.0" x2="81.0" y2="1017.0" stroke-width="0.5"/>
    <line stroke="black" x1="704.0" y1="269.0" x2="214.0" y2="313.0" stroke-width="0.5"/>
    <line stroke="black" x1="617.0" y1="168.0" x2="269.0" y2="124.0" stroke-width="0.5"/>
    <line stroke="black" x1="412.0" y1="472.0" x2="376.0" y2="498.0" stroke-width="0.5"/>
    <line stroke="black" x1="440.0" y1="523.0" x2="376.0" y2="498.0" stroke-width="0.5"/>
    <line stroke="black" x1="484.0" y1="16.0" x2="324.0" y2="42.0" stroke-width="0.5"/>
    <line stroke="black" x1="712.0" y1="117.0" x2="307.0" y2="80.0" stroke-width="0.5"/>
    <line stroke="black" x1="539.0" y1="777.0" x2="460.0" y2="753.0" stroke-width="0.5"/>
    <line stroke="black" x1="528.0" y1="574.0" x2="477.0" y2="596.0" stroke-width="0.5"/>
    <line stroke="black" x1="685.0" y1="422.0" x2="498.0" y2="397.0" stroke-width="0.5"/>
   </g>
  </g>
 </svg>
</svg>
