<?xml version="1.0" encoding="UTF-8"?>
<svg height="800.0" width="700.0" xmlns="http://www.w3.org/2000/svg">
 <svg>
  <g>
   <g>
    <g>
     <circle stroke="black" stroke-width="0.5" fill="#aaffff" cx="31.0" cy="1040.0" r="1.0"/>
     <text stroke="none" x="31.0" y="1040.0" font-size="20.0" font-family="helvetica"/>
    </g>
    <g>
     <circle stroke="black" stroke-width="0.5" fill="#aaffff" cx="31.0" cy="1046.0" r="1.0"/>
     <text stroke="none" x="31.0" y="1046.0" font-size="10.0" font-family="helvetica">NT1.2</text>
    </g>
    <g>
     <circle stroke="black" stroke-width="0.5" fill="#aaffff" cx="33.0" cy="1043.0" r="1.0"/>
     <text stroke="none" x="33.0" y="1043.0" font-size="10.0" font-family="helvetica">NT1.3</text>
    </g>
    <g>
     <circle stroke="black" stroke-width="0.5" fill="#aaffff" cx="37.0" cy="1047.0" r="1.0"/>
     <text stroke="none" x="37.0" y="1047.0" font-size="20.0" font-family="helvetica"/>
    </g>
    <g>
     <circle stroke="black" stroke-width="0.5" fill="#aaffff" cx="39.0" cy="1042.0" r="1.0"/>
     <text stroke="none" x="39.0" y="1042.0" font-size="10.0" font-family="helvetica">NT1.5</text>
    </g>
    <g>
     <circle stroke="black" stroke-width="0.5" fill="#aaffff" cx="45.0" cy="950.0" r="1.0"/>
     <text stroke="none" x="45.0" y="950.0" font-size="10.0" font-family="helvetica">NT1.6</text>
    </g>
    <g>
     <circle stroke="black" stroke-width="0.5" fill="#aaffff" cx="47.0" cy="950.0" r="1.0"/>
     <text stroke="none" x="47.0" y="950.0" font-size="10.0" font-family="helvetica">NT1.7</text>
    </g>
    <g>
     <circle stroke="black" stroke-width="0.5" fill="#aaffff" cx="61.0" cy="1144.0" r="1.0"/>
     <text stroke="none" x="61.0" y="1144.0" font-size="10.0" font-family="helvetica">NT1.8</text>
    </g>
    <g>
     <circle stroke="black" stroke-width="0.5" fill="#aaffff" cx="62.0" cy="1141.0" r="1.0"/>
     <text stroke="none" x="62.0" y="1141.0" font-size="20.0" font-family="helvetica"/>
    </g>
    <g>
     <circle stroke="black" stroke-width="0.5" fill="#aaffff" cx="90.0" cy="1135.0" r="1.0"/>
     <text stroke="none" x="90.0" y="1135.0" font-size="20.0" font-family="helvetica"/>
    </g>
    <g>
     <circle stroke="black" stroke-width="0.5" fill="#aaffff" cx="102.0" cy="1143.0" r="1.0"/>
     <text stroke="none" x="102.0" y="1143.0" font-size="10.0" font-family="helvetica">NT1.11</text>
    </g>
    <g>
     <circle stroke="black" stroke-width="0.5" fill="#aaffff" cx="105.0" cy="1055.0" r="1.0"/>
     <text stroke="none" x="105.0" y="1055.0" font-size="20.0" font-family="helvetica"/>
    </g>
    <g>
     <circle stroke="black" stroke-width="0.5" fill="#aaffff" cx="105.0" cy="950.0" r="1.0"/>
     <text stroke="none" x="105.0" y="950.0" font-size="10.0" font-family="helvetica">NT1.13</text>
    </g>
    <g>
     <circle stroke="black" stroke-width="0.5" fill="#aaffff" cx="106.0" cy="847.0" r="1.0"/>
     <text stroke="none" x="106.0" y="847.0" font-size="10.0" font-family="helvetica">NT1.14</text>
    </g>
    <g>
     <circle stroke="black" stroke-width="0.5" fill="#aaffff" cx="106.0" cy="944.0" r="1.0"/>
     <text stroke="none" x="106.0" y="944.0" font-size="10.0" font-family="helvetica">NT1.15</text>
    </g>
    <g>
     <circle stroke="black" stroke-width="0.5" fill="#aaffff" cx="116.0" cy="840.0" r="1.0"/>
     <text stroke="none" x="116.0" y="840.0" font-size="10.0" font-family="helvetica">NT1.16</text>
    </g>
    <g>
     <circle stroke="black" stroke-width="0.5" fill="#aaffff" cx="124.0" cy="927.0" r="1.0"/>
     <text stroke="none" x="124.0" y="927.0" font-size="20.0" font-family="helvetica"/>
    </g>
    <g>
     <circle stroke="black" stroke-width="0.5" fill="#aaffff" cx="125.0" cy="739.0" r="1.0"/>
     <text stroke="none" x="125.0" y="739.0" font-size="20.0" font-family="helvetica"/>
    </g>
    <g>
     <circle stroke="black" stroke-width="0.5" fill="#aaffff" cx="125.0" cy="1151.0" r="1.0"/>
     <text stroke="none" x="125.0" y="1151.0" font-size="20.0" font-family="helvetica"/>
    </g>
    <g>
     <circle stroke="black" stroke-width="0.5" fill="#aaffff" cx="127.0" cy="735.0" r="1.0"/>
     <text stroke="none" x="127.0" y="735.0" font-size="20.0" font-family="helvetica"/>
    </g>
    <g>
     <circle stroke="black" stroke-width="0.5" fill="#aaffff" cx="128.0" cy="738.0" r="1.0"/>
     <text stroke="none" x="128.0" y="738.0" font-size="10.0" font-family="helvetica">NT1.21</text>
    </g>
    <g>
     <circle stroke="black" stroke-width="0.5" fill="#aaffff" cx="130.0" cy="1160.0" r="1.0"/>
     <text stroke="none" x="130.0" y="1160.0" font-size="20.0" font-family="helvetica"/>
    </g>
    <g>
     <circle stroke="black" stroke-width="0.5" fill="#aaffff" cx="130.0" cy="1126.0" r="1.0"/>
     <text stroke="none" x="130.0" y="1126.0" font-size="20.0" font-family="helvetica"/>
    </g>
    <g>
     <circle stroke="black" stroke-width="0.5" fill="#aaffff" cx="132.0" cy="744.0" r="1.0"/>
     <text stroke="none" x="132.0" y="744.0" font-size="10.0" font-family="helvetica">NT1.24</text>
    </g>
    <g>
     <circle stroke="black" stroke-width="0.5" fill="#aaffff" cx="139.0" cy="728.0" r="1.0"/>
     <text stroke="none" x="139.0" y="728.0" font-size="20.0" font-family="helvetica"/>
    </g>
    <g>
     <circle stroke="black" stroke-width="0.5" fill="#aaffff" cx="169.0" cy="758.0" r="1.0"/>
     <text stroke="none" x="169.0" y="758.0" font-size="10.0" font-family="helvetica">NT1.26</text>
    </g>
    <g>
     <circle stroke="black" stroke-width="0.5" fill="#aaffff" cx="185.0" cy="766.0" r="1.0"/>
     <text stroke="none" x="185.0" y="766.0" font-size="20.0" font-family="helvetica">Neobodu 11 ms uzvou</text>
    </g>
    <g>
     <circle stroke="black" stroke-width="0.5" fill="#aaffff" cx="196.0" cy="753.0" r="1.0"/>
     <text stroke="none" x="196.0" y="753.0" font-size="20.0" font-family="helvetica">Nsabndo designis DEVON</text>
    </g>
    <line stroke="black" x1="127.0" y1="735.0" x2="128.0" y2="738.0" stroke-width="0.5"/>
    <line stroke="black" x1="128.0" y1="738.0" x2="125.0" y2="739.0" stroke-width="0.5"/>
    <line stroke="black" x1="124.0" y1="927.0" x2="116.0" y2="840.0" stroke-width="0.5"/>
    <line stroke="black" x1="105.0" y1="1055.0" x2="105.0" y2="950.0" stroke-width="0.5"/>
    <line stroke="black" x1="31.0" y1="1046.0" x2="31.0" y2="1040.0" stroke-width="0.5"/>
    <line stroke="black" x1="61.0" y1="1144.0" x2="62.0" y2="1141.0" stroke-width="0.5"/>
    <line stroke="black" x1="90.0" y1="1135.0" x2="102.0" y2="1143.0" stroke-width="0.5"/>
    <line stroke="black" x1="130.0" y1="1160.0" x2="102.0" y2="1143.0" stroke-width="0.5"/>
    <line stroke="black" x1="102.0" y1="1143.0" x2="130.0" y2="1126.0" stroke-width="0.5"/>
    <line stroke="black" x1="125.0" y1="1151.0" x2="102.0" y2="1143.0" stroke-width="0.5"/>
    <line stroke="black" x1="132.0" y1="744.0" x2="169.0" y2="758.0" stroke-width="0.5"/>
    <line stroke="black" x1="132.0" y1="744.0" x2="128.0" y2="738.0" stroke-width="0.5"/>
    <line stroke="black" x1="132.0" y1="744.0" x2="116.0" y2="840.0" stroke-width="0.5"/>
    <line stroke="black" x1="128.0" y1="738.0" x2="128.0" y2="738.0" stroke-width="0.5"/>
    <line stroke="black" x1="116.0" y1="840.0" x2="106.0" y2="847.0" stroke-width="0.5"/>
    <line stroke="black" x1="106.0" y1="847.0" x2="106.0" y2="944.0" stroke-width="0.5"/>
    <line stroke="black" x1="106.0" y1="847.0" x2="106.0" y2="944.0" stroke-width="0.5"/>
    <line stroke="black" x1="106.0" y1="944.0" x2="105.0" y2="950.0" stroke-width="0.5"/>
    <line stroke="black" x1="105.0" y1="950.0" x2="47.0" y2="950.0" stroke-width="0.5"/>
    <line stroke="black" x1="47.0" y1="950.0" x2="45.0" y2="950.0" stroke-width="0.5"/>
    <line stroke="black" x1="47.0" y1="950.0" x2="45.0" y2="950.0" stroke-width="0.5"/>
    <line stroke="black" x1="39.0" y1="1042.0" x2="37.0" y2="1047.0" stroke-width="0.5"/>
    <line stroke="black" x1="39.0" y1="1042.0" x2="33.0" y2="1043.0" stroke-width="0.5"/>
    <line stroke="black" x1="31.0" y1="1046.0" x2="33.0" y2="1043.0" stroke-width="0.5"/>
    <line stroke="black" x1="31.0" y1="1046.0" x2="33.0" y2="1043.0" stroke-width="0.5"/>
    <line stroke="black" x1="102.0" y1="1143.0" x2="61.0" y2="1144.0" stroke-width="0.5"/>
    <line stroke="black" x1="102.0" y1="1143.0" x2="102.0" y2="1143.0" stroke-width="0.5"/>
    <line stroke="black" x1="102.0" y1="1143.0" x2="102.0" y2="1143.0" stroke-width="0.5"/>
    <line stroke="black" x1="102.0" y1="1143.0" x2="102.0" y2="1143.0" stroke-width="0.5"/>
    <line stroke="black" x1="102.0" y1="1143.0" x2="102.0" y2="1143.0" stroke-width="0.5"/>
    <line stroke="black" x1="102.0" y1="1143.0" x2="102.0" y2="1143.0" stroke-width="0.5"/>
    <line stroke="black" x1="102.0" y1="1143.0" x2="102.0" y2="1143.0" stroke-width="0.5"/>
    <line stroke="black" x1="102.0" y1="1143.0" x2="102.0" y2="1143.0" stroke-width="0.5"/>
    <line stroke="black" x1="102.0" y1="1143.0" x2="102.0" y2="1143.0" stroke-width="0.5"/>
    <line stroke="black" x1="102.0" y1="1143.0" x2="102.0" y2="1143.0" stroke-width="0.5"/>
    <line stroke="black" x1="102.0" y1="1143.0" x2="102.0" y2="1143.0" stroke-width="0.5"/>
    <line stroke="black" x1="102.0" y1="1143.0" x2="102.0" y2="1143.0" stroke-width="0.5"/>
    <line stroke="black" x1="102.0" y1="1143.0" x2="102.0" y2="1143.0" stroke-width="0.5"/>
    <line stroke="black" x1="102.0" y1="1143.0" x2="102.0" y2="1143.0" stroke-width="0.5"/>
    <line stroke="black" x1="102.0" y1="1143.0" x2="102.0" y2="1143.0" stroke-width="0.5"/>
    <line stroke="black" x1="102.0" y1="1143.0" x2="102.0" y2="1143.0" stroke-width="0.5"/>
    <line stroke="black" x1="102.0" y1="1143.0" x2="102.0" y2="1143.0" stroke-width="0.5"/>
    <line stroke="black" x1="102.0" y1="1143.0" x2="102.0" y2="1143.0" stroke-width="0.5"/>
    <line stroke="black" x1="102.0" y1="1143.0" x2="102.0" y2="1143.0" stroke-width="0.5"/>
    <line stroke="black" x1="45.0" y1="950.0" x2="39.0" y2="1042.0" stroke-width="0.5"/>
    <line stroke="black" x1="61.0" y1="1144.0" x2="39.0" y2="1042.0" stroke-width="0.5"/>
    <line stroke="black" x1="139.0" y1="728.0" x2="132.0" y2="744.0" stroke-width="0.5"/>
    <line stroke="black" x1="185.0" y1="766.0" x2="169.0" y2="758.0" stroke-width="0.5"/>
    <line stroke="black" x1="196.0" y1="753.0" x2="169.0" y2="758.0" stroke-width="0.5"/>
   </g>
  </g>
 </svg>
</svg>
