<?xml version="1.0" encoding="UTF-8"?>
<svg height="800.0" width="700.0" xmlns="http://www.w3.org/2000/svg">
 <svg>
  <g>
   <g>
    <g>
     <circle stroke="black" stroke-width="0.5" fill="#aaffff" cx="45.0" cy="562.0" r="1.0"/>
     <text stroke="none" x="45.0" y="562.0" font-size="10.0" font-family="helvetica">NT1.1</text>
    </g>
    <g>
     <circle stroke="black" stroke-width="0.5" fill="#aaffff" cx="110.0" cy="800.0" r="1.0"/>
     <text stroke="none" x="110.0" y="800.0" font-size="10.0" font-family="helvetica">NT1.2</text>
    </g>
    <g>
     <circle stroke="black" stroke-width="0.5" fill="#aaffff" cx="186.0" cy="720.0" r="1.0"/>
     <text stroke="none" x="186.0" y="720.0" font-size="20.0" font-family="helvetica">100</text>
    </g>
    <g>
     <circle stroke="black" stroke-width="0.5" fill="#aaffff" cx="261.0" cy="445.0" r="1.0"/>
     <text stroke="none" x="261.0" y="445.0" font-size="10.0" font-family="helvetica">NT1.4</text>
    </g>
    <g>
     <circle stroke="black" stroke-width="0.5" fill="#aaffff" cx="347.0" cy="325.0" r="1.0"/>
     <text stroke="none" x="347.0" y="325.0" font-size="20.0" font-family="helvetica">98</text>
    </g>
    <g>
     <circle stroke="black" stroke-width="0.5" fill="#aaffff" cx="347.0" cy="565.0" r="1.0"/>
     <text stroke="none" x="347.0" y="565.0" font-size="20.0" font-family="helvetica">100</text>
    </g>
    <g>
     <circle stroke="black" stroke-width="0.5" fill="#aaffff" cx="408.0" cy="631.0" r="1.0"/>
     <text stroke="none" x="408.0" y="631.0" font-size="20.0" font-family="helvetica">98</text>
    </g>
    <g>
     <circle stroke="black" stroke-width="0.5" fill="#aaffff" cx="458.0" cy="742.0" r="1.0"/>
     <text stroke="none" x="458.0" y="742.0" font-size="10.0" font-family="helvetica">NT1.8</text>
    </g>
    <g>
     <circle stroke="black" stroke-width="0.5" fill="#aaffff" cx="473.0" cy="522.0" r="1.0"/>
     <text stroke="none" x="473.0" y="522.0" font-size="20.0" font-family="helvetica">100</text>
    </g>
    <g>
     <circle stroke="black" stroke-width="0.5" fill="#aaffff" cx="482.0" cy="702.0" r="1.0"/>
     <text stroke="none" x="482.0" y="702.0" font-size="10.0" font-family="helvetica">NT1.10</text>
    </g>
    <g>
     <circle stroke="black" stroke-width="0.5" fill="#aaffff" cx="520.0" cy="602.0" r="1.0"/>
     <text stroke="none" x="520.0" y="602.0" font-size="20.0" font-family="helvetica">100</text>
    </g>
    <g>
     <circle stroke="black" stroke-width="0.5" fill="#aaffff" cx="565.0" cy="782.0" r="1.0"/>
     <text stroke="none" x="565.0" y="782.0" font-size="20.0" font-family="helvetica">Mycoplasma hominis PG21T (AJO02265)</text>
    </g>
    <g>
     <circle stroke="black" stroke-width="0.5" fill="#aaffff" cx="568.0" cy="862.0" r="1.0"/>
     <text stroke="none" x="568.0" y="862.0" font-size="20.0" font-family="helvetica">Acholeplasma laidlawii JA (M23932)</text>
    </g>
    <g>
     <circle stroke="black" stroke-width="0.5" fill="#aaffff" cx="584.0" cy="542.0" r="1.0"/>
     <text stroke="none" x="584.0" y="542.0" font-size="10.0" font-family="helvetica">NT1.14</text>
    </g>
    <g>
     <circle stroke="black" stroke-width="0.5" fill="#aaffff" cx="597.0" cy="161.0" r="1.0"/>
     <text stroke="none" x="597.0" y="161.0" font-size="20.0" font-family="helvetica">100</text>
    </g>
    <g>
     <circle stroke="black" stroke-width="0.5" fill="#aaffff" cx="605.0" cy="822.0" r="1.0"/>
     <text stroke="none" x="605.0" y="822.0" font-size="20.0" font-family="helvetica">Mycoplasma neurolyticum Type AT (M23944)</text>
    </g>
    <g>
     <circle stroke="black" stroke-width="0.5" fill="#aaffff" cx="661.0" cy="440.0" r="1.0"/>
     <text stroke="none" x="661.0" y="440.0" font-size="20.0" font-family="helvetica">100</text>
    </g>
    <g>
     <circle stroke="black" stroke-width="0.5" fill="#aaffff" cx="662.0" cy="622.0" r="1.0"/>
     <text stroke="none" x="662.0" y="622.0" font-size="20.0" font-family="helvetica">Mycoplasma muris RIII-4T (M23939)</text>
    </g>
    <g>
     <circle stroke="black" stroke-width="0.5" fill="#aaffff" cx="712.0" cy="582.0" r="1.0"/>
     <text stroke="none" x="712.0" y="582.0" font-size="20.0" font-family="helvetica">Mycoplasma penetrans GTU-5496AlT (LIO839)</text>
    </g>
    <g>
     <circle stroke="black" stroke-width="0.5" fill="#aaffff" cx="720.0" cy="502.0" r="1.0"/>
     <text stroke="none" x="720.0" y="502.0" font-size="20.0" font-family="helvetica">Mycoplasma pneumoniae M129 (UOOO89)</text>
    </g>
    <g>
     <circle stroke="black" stroke-width="0.5" fill="#aaffff" cx="733.0" cy="463.0" r="1.0"/>
     <text stroke="none" x="733.0" y="463.0" font-size="20.0" font-family="helvetica">Mycoplasma cavipharyngis 117CT (AF125879)</text>
    </g>
    <g>
     <circle stroke="black" stroke-width="0.5" fill="#aaffff" cx="738.0" cy="422.0" r="1.0"/>
     <text stroke="none" x="738.0" y="422.0" font-size="10.0" font-family="helvetica">NT1.22</text>
    </g>
    <g>
     <circle stroke="black" stroke-width="0.5" fill="#aaffff" cx="743.0" cy="43.0" r="1.0"/>
     <text stroke="none" x="743.0" y="43.0" font-size="10.0" font-family="helvetica">NT1.23</text>
    </g>
    <g>
     <circle stroke="black" stroke-width="0.5" fill="#aaffff" cx="762.0" cy="662.0" r="1.0"/>
     <text stroke="none" x="762.0" y="662.0" font-size="20.0" font-family="helvetica">Ureaglasma urealyticum T96OT (M23935)</text>
    </g>
    <g>
     <circle stroke="black" stroke-width="0.5" fill="#aaffff" cx="860.0" cy="343.0" r="1.0"/>
     <text stroke="none" x="860.0" y="343.0" font-size="20.0" font-family="helvetica">100</text>
    </g>
    <g>
     <circle stroke="black" stroke-width="0.5" fill="#aaffff" cx="929.0" cy="304.0" r="1.0"/>
     <text stroke="none" x="929.0" y="304.0" font-size="20.0" font-family="helvetica">46</text>
    </g>
    <g>
     <circle stroke="black" stroke-width="0.5" fill="#aaffff" cx="950.0" cy="264.0" r="1.0"/>
     <text stroke="none" x="950.0" y="264.0" font-size="20.0" font-family="helvetica">65</text>
    </g>
    <g>
     <circle stroke="black" stroke-width="0.5" fill="#aaffff" cx="971.0" cy="172.0" r="1.0"/>
     <text stroke="none" x="971.0" y="172.0" font-size="20.0" font-family="helvetica">59</text>
    </g>
    <g>
     <circle stroke="black" stroke-width="0.5" fill="#aaffff" cx="982.0" cy="211.0" r="1.0"/>
     <text stroke="none" x="982.0" y="211.0" font-size="10.0" font-family="helvetica">NT1.29</text>
    </g>
    <g>
     <circle stroke="black" stroke-width="0.5" fill="#aaffff" cx="988.0" cy="22.0" r="1.0"/>
     <text stroke="none" x="988.0" y="22.0" font-size="10.0" font-family="helvetica">NT1.30</text>
    </g>
    <g>
     <circle stroke="black" stroke-width="0.5" fill="#aaffff" cx="1017.0" cy="63.0" r="1.0"/>
     <text stroke="none" x="1017.0" y="63.0" font-size="20.0" font-family="helvetica">Mycoplasma haemofelis Oklahoma (AF178677)</text>
    </g>
    <g>
     <circle stroke="black" stroke-width="0.5" fill="#aaffff" cx="1027.0" cy="103.0" r="1.0"/>
     <text stroke="none" x="1027.0" y="103.0" font-size="20.0" font-family="helvetica">Mycoplasma haemomuris Shizuoka (U82963)</text>
    </g>
    <g>
     <circle stroke="black" stroke-width="0.5" fill="#aaffff" cx="1058.0" cy="382.0" r="1.0"/>
     <text stroke="none" x="1058.0" y="382.0" font-size="10.0" font-family="helvetica">NT1.33</text>
    </g>
    <g>
     <circle stroke="black" stroke-width="0.5" fill="#aaffff" cx="1078.0" cy="240.0" r="1.0"/>
     <text stroke="none" x="1078.0" y="240.0" font-size="20.0" font-family="helvetica">100</text>
    </g>
    <g>
     <circle stroke="black" stroke-width="0.5" fill="#aaffff" cx="1113.0" cy="343.0" r="1.0"/>
     <text stroke="none" x="1113.0" y="343.0" font-size="10.0" font-family="helvetica">NT1.35</text>
    </g>
    <g>
     <circle stroke="black" stroke-width="0.5" fill="#aaffff" cx="1137.0" cy="182.0" r="1.0"/>
     <text stroke="none" x="1137.0" y="182.0" font-size="10.0" font-family="helvetica">NT1.36</text>
    </g>
    <g>
     <circle stroke="black" stroke-width="0.5" fill="#aaffff" cx="1163.0" cy="222.0" r="1.0"/>
     <text stroke="none" x="1163.0" y="222.0" font-size="20.0" font-family="helvetica">Mycoplasma ovis Hannover (AF338268)</text>
    </g>
    <g>
     <circle stroke="black" stroke-width="0.5" fill="#aaffff" cx="1168.0" cy="263.0" r="1.0"/>
     <text stroke="none" x="1168.0" y="263.0" font-size="20.0" font-family="helvetica">Mycoplasma wenyonii Oklahoma (AFO16546)</text>
    </g>
    <g>
     <circle stroke="black" stroke-width="0.5" fill="#aaffff" cx="1184.0" cy="303.0" r="1.0"/>
     <text stroke="none" x="1184.0" y="303.0" font-size="10.0" font-family="helvetica">NT1.39</text>
    </g>
    <g>
     <circle stroke="black" stroke-width="0.5" fill="#aaffff" cx="1207.0" cy="143.0" r="1.0"/>
     <text stroke="none" x="1207.0" y="143.0" font-size="20.0" font-family="helvetica">Mycoplasma suis Illinois (U88565)</text>
    </g>
    <g>
     <circle stroke="black" stroke-width="0.5" fill="#aaffff" cx="36.0" cy="584.0" r="1.0"/>
     <text stroke="none" x="36.0" y="584.0" font-size="10.0" font-family="helvetica">NT1.41</text>
    </g>
    <line stroke="black" x1="1027.0" y1="103.0" x2="597.0" y2="161.0" stroke-width="0.5"/>
    <line stroke="black" x1="662.0" y1="622.0" x2="520.0" y2="602.0" stroke-width="0.5"/>
    <line stroke="black" x1="597.0" y1="161.0" x2="347.0" y2="325.0" stroke-width="0.5"/>
    <line stroke="black" x1="347.0" y1="325.0" x2="261.0" y2="445.0" stroke-width="0.5"/>
    <line stroke="black" x1="950.0" y1="264.0" x2="971.0" y2="172.0" stroke-width="0.5"/>
    <line stroke="black" x1="261.0" y1="445.0" x2="45.0" y2="562.0" stroke-width="0.5"/>
    <line stroke="black" x1="261.0" y1="445.0" x2="347.0" y2="565.0" stroke-width="0.5"/>
    <line stroke="black" x1="982.0" y1="211.0" x2="1078.0" y2="240.0" stroke-width="0.5"/>
    <line stroke="black" x1="347.0" y1="565.0" x2="408.0" y2="631.0" stroke-width="0.5"/>
    <line stroke="black" x1="408.0" y1="631.0" x2="520.0" y2="602.0" stroke-width="0.5"/>
    <line stroke="black" x1="36.0" y1="584.0" x2="110.0" y2="800.0" stroke-width="0.5"/>
    <line stroke="black" x1="568.0" y1="862.0" x2="110.0" y2="800.0" stroke-width="0.5"/>
    <line stroke="black" x1="565.0" y1="782.0" x2="110.0" y2="800.0" stroke-width="0.5"/>
    <line stroke="black" x1="605.0" y1="822.0" x2="110.0" y2="800.0" stroke-width="0.5"/>
    <line stroke="black" x1="762.0" y1="662.0" x2="408.0" y2="631.0" stroke-width="0.5"/>
    <line stroke="black" x1="720.0" y1="502.0" x2="473.0" y2="522.0" stroke-width="0.5"/>
    <line stroke="black" x1="712.0" y1="582.0" x2="520.0" y2="602.0" stroke-width="0.5"/>
    <line stroke="black" x1="733.0" y1="463.0" x2="661.0" y2="440.0" stroke-width="0.5"/>
    <line stroke="black" x1="1017.0" y1="63.0" x2="743.0" y2="43.0" stroke-width="0.5"/>
    <line stroke="black" x1="1207.0" y1="143.0" x2="971.0" y2="172.0" stroke-width="0.5"/>
    <line stroke="black" x1="1168.0" y1="263.0" x2="1078.0" y2="240.0" stroke-width="0.5"/>
    <line stroke="black" x1="1163.0" y1="222.0" x2="1078.0" y2="240.0" stroke-width="0.5"/>
   </g>
  </g>
 </svg>
</svg>
