<?xml version="1.0" encoding="UTF-8"?>
<svg height="800.0" width="700.0" xmlns="http://www.w3.org/2000/svg">
 <svg>
  <g>
   <g>
    <g>
     <circle stroke="black" stroke-width="0.5" fill="#aaffff" cx="37.0" cy="102.0" r="1.0"/>
     <text stroke="none" x="37.0" y="102.0" font-size="10.0" font-family="helvetica">NT1.1</text>
    </g>
    <g>
     <circle stroke="black" stroke-width="0.5" fill="#aaffff" cx="42.0" cy="293.0" r="1.0"/>
     <text stroke="none" x="42.0" y="293.0" font-size="10.0" font-family="helvetica">NT1.2</text>
    </g>
    <g>
     <circle stroke="black" stroke-width="0.5" fill="#aaffff" cx="47.0" cy="146.0" r="1.0"/>
     <text stroke="none" x="47.0" y="146.0" font-size="10.0" font-family="helvetica">NT1.3</text>
    </g>
    <g>
     <circle stroke="black" stroke-width="0.5" fill="#aaffff" cx="65.0" cy="333.0" r="1.0"/>
     <text stroke="none" x="65.0" y="333.0" font-size="10.0" font-family="helvetica">NT1.4</text>
    </g>
    <g>
     <circle stroke="black" stroke-width="0.5" fill="#aaffff" cx="105.0" cy="376.0" r="1.0"/>
     <text stroke="none" x="105.0" y="376.0" font-size="10.0" font-family="helvetica">NT1.5</text>
    </g>
    <g>
     <circle stroke="black" stroke-width="0.5" fill="#aaffff" cx="148.0" cy="343.0" r="1.0"/>
     <text stroke="none" x="148.0" y="343.0" font-size="10.0" font-family="helvetica">NT1.6</text>
    </g>
    <g>
     <circle stroke="black" stroke-width="0.5" fill="#aaffff" cx="156.0" cy="57.0" r="1.0"/>
     <text stroke="none" x="156.0" y="57.0" font-size="10.0" font-family="helvetica">NT1.7</text>
    </g>
    <g>
     <circle stroke="black" stroke-width="0.5" fill="#aaffff" cx="209.0" cy="30.0" r="1.0"/>
     <text stroke="none" x="209.0" y="30.0" font-size="20.0" font-family="helvetica">84</text>
    </g>
    <g>
     <circle stroke="black" stroke-width="0.5" fill="#aaffff" cx="254.0" cy="410.0" r="1.0"/>
     <text stroke="none" x="254.0" y="410.0" font-size="10.0" font-family="helvetica">NT1.9</text>
    </g>
    <g>
     <circle stroke="black" stroke-width="0.5" fill="#aaffff" cx="330.0" cy="289.0" r="1.0"/>
     <text stroke="none" x="330.0" y="289.0" font-size="20.0" font-family="helvetica">Streptomyces griseus NBRC 13350 (YP_O01824381)</text>
    </g>
    <g>
     <circle stroke="black" stroke-width="0.5" fill="#aaffff" cx="336.0" cy="176.0" r="1.0"/>
     <text stroke="none" x="336.0" y="176.0" font-size="10.0" font-family="helvetica">NT1.11</text>
    </g>
    <g>
     <circle stroke="black" stroke-width="0.5" fill="#aaffff" cx="380.0" cy="13.0" r="1.0"/>
     <text stroke="none" x="380.0" y="13.0" font-size="20.0" font-family="helvetica">Renibacterium salmoninarum ATCC 33209T (YP_OO1625332)</text>
    </g>
    <g>
     <circle stroke="black" stroke-width="0.5" fill="#aaffff" cx="405.0" cy="255.0" r="1.0"/>
     <text stroke="none" x="405.0" y="255.0" font-size="20.0" font-family="helvetica">Kineococcus radiotolerans SRS30216T (YP_001360433)</text>
    </g>
    <g>
     <circle stroke="black" stroke-width="0.5" fill="#aaffff" cx="440.0" cy="47.0" r="1.0"/>
     <text stroke="none" x="440.0" y="47.0" font-size="20.0" font-family="helvetica">Kocuria rhizophila DC2201 (YP_O01854454)</text>
    </g>
    <g>
     <circle stroke="black" stroke-width="0.5" fill="#aaffff" cx="449.0" cy="325.0" r="1.0"/>
     <text stroke="none" x="449.0" y="325.0" font-size="20.0" font-family="helvetica">Acidothermus cellulolyticus 1 1 BT (YP_872059)</text>
    </g>
    <g>
     <circle stroke="black" stroke-width="0.5" fill="#aaffff" cx="461.0" cy="360.0" r="1.0"/>
     <text stroke="none" x="461.0" y="360.0" font-size="20.0" font-family="helvetica">Thermobifida fusca YX (YP_290710)</text>
    </g>
    <g>
     <circle stroke="black" stroke-width="0.5" fill="#aaffff" cx="499.0" cy="82.0" r="1.0"/>
     <text stroke="none" x="499.0" y="82.0" font-size="20.0" font-family="helvetica">Micrococcus luteus NCTC 2665T (ZP_O2944577)</text>
    </g>
    <g>
     <circle stroke="black" stroke-width="0.5" fill="#aaffff" cx="512.0" cy="116.0" r="1.0"/>
     <text stroke="none" x="512.0" y="116.0" font-size="20.0" font-family="helvetica">Agromyces cerinus DSM 85957 (CAL69210)</text>
    </g>
    <g>
     <circle stroke="black" stroke-width="0.5" fill="#aaffff" cx="538.0" cy="394.0" r="1.0"/>
     <text stroke="none" x="538.0" y="394.0" font-size="20.0" font-family="helvetica">Saccharopolyspora erythraea NRRL 2338T (YP_OO1 108943)</text>
    </g>
    <g>
     <circle stroke="black" stroke-width="0.5" fill="#aaffff" cx="563.0" cy="151.0" r="1.0"/>
     <text stroke="none" x="563.0" y="151.0" font-size="20.0" font-family="helvetica">Propionibacterium acnes KPA1 71202 (YP_O56565)</text>
    </g>
    <g>
     <circle stroke="black" stroke-width="0.5" fill="#aaffff" cx="581.0" cy="202.0" r="1.0"/>
     <text stroke="none" x="581.0" y="202.0" font-size="10.0" font-family="helvetica">NT1.21</text>
    </g>
    <g>
     <circle stroke="black" stroke-width="0.5" fill="#aaffff" cx="582.0" cy="185.0" r="1.0"/>
     <text stroke="none" x="582.0" y="185.0" font-size="20.0" font-family="helvetica"/>
    </g>
    <g>
     <circle stroke="black" stroke-width="0.5" fill="#aaffff" cx="582.0" cy="221.0" r="1.0"/>
     <text stroke="none" x="582.0" y="221.0" font-size="20.0" font-family="helvetica">Propianibacterium acidifaciens C3M_31T (FJ409978)</text>
    </g>
    <g>
     <circle stroke="black" stroke-width="0.5" fill="#aaffff" cx="583.0" cy="429.0" r="1.0"/>
     <text stroke="none" x="583.0" y="429.0" font-size="20.0" font-family="helvetica">Salinispora arenicola CNS-205 (YP_OO1 53909 7)</text>
    </g>
    <line stroke="black" x1="380.0" y1="13.0" x2="209.0" y2="30.0" stroke-width="0.5"/>
    <line stroke="black" x1="512.0" y1="116.0" x2="47.0" y2="146.0" stroke-width="0.5"/>
    <line stroke="black" x1="330.0" y1="289.0" x2="65.0" y2="333.0" stroke-width="0.5"/>
    <line stroke="black" x1="582.0" y1="185.0" x2="581.0" y2="202.0" stroke-width="0.5"/>
    <line stroke="black" x1="582.0" y1="221.0" x2="581.0" y2="202.0" stroke-width="0.5"/>
    <line stroke="black" x1="449.0" y1="325.0" x2="148.0" y2="343.0" stroke-width="0.5"/>
    <line stroke="black" x1="461.0" y1="360.0" x2="148.0" y2="343.0" stroke-width="0.5"/>
    <line stroke="black" x1="538.0" y1="394.0" x2="254.0" y2="410.0" stroke-width="0.5"/>
    <line stroke="black" x1="583.0" y1="429.0" x2="254.0" y2="410.0" stroke-width="0.5"/>
    <line stroke="black" x1="209.0" y1="30.0" x2="156.0" y2="57.0" stroke-width="0.5"/>
    <line stroke="black" x1="156.0" y1="57.0" x2="37.0" y2="102.0" stroke-width="0.5"/>
    <line stroke="black" x1="37.0" y1="102.0" x2="47.0" y2="146.0" stroke-width="0.5"/>
    <line stroke="black" x1="47.0" y1="146.0" x2="336.0" y2="176.0" stroke-width="0.5"/>
    <line stroke="black" x1="42.0" y1="293.0" x2="65.0" y2="333.0" stroke-width="0.5"/>
    <line stroke="black" x1="65.0" y1="333.0" x2="105.0" y2="376.0" stroke-width="0.5"/>
    <line stroke="black" x1="336.0" y1="176.0" x2="581.0" y2="202.0" stroke-width="0.5"/>
    <line stroke="black" x1="105.0" y1="376.0" x2="254.0" y2="410.0" stroke-width="0.5"/>
    <line stroke="black" x1="105.0" y1="376.0" x2="148.0" y2="343.0" stroke-width="0.5"/>
    <line stroke="black" x1="37.0" y1="102.0" x2="42.0" y2="293.0" stroke-width="0.5"/>
    <line stroke="black" x1="405.0" y1="255.0" x2="42.0" y2="293.0" stroke-width="0.5"/>
    <line stroke="black" x1="499.0" y1="82.0" x2="156.0" y2="57.0" stroke-width="0.5"/>
    <line stroke="black" x1="440.0" y1="47.0" x2="209.0" y2="30.0" stroke-width="0.5"/>
    <line stroke="black" x1="563.0" y1="151.0" x2="336.0" y2="176.0" stroke-width="0.5"/>
   </g>
  </g>
 </svg>
</svg>
