<?xml version="1.0" encoding="UTF-8"?>
<svg height="800.0" width="700.0" xmlns="http://www.w3.org/2000/svg">
 <svg>
  <g>
   <g>
    <g>
     <circle stroke="black" stroke-width="0.5" fill="#aaffff" cx="117.0" cy="313.0" r="1.0"/>
     <text stroke="none" x="117.0" y="313.0" font-size="10.0" font-family="helvetica">NT1.1</text>
    </g>
    <g>
     <circle stroke="black" stroke-width="0.5" fill="#aaffff" cx="133.0" cy="107.0" r="1.0"/>
     <text stroke="none" x="133.0" y="107.0" font-size="20.0" font-family="helvetica">52</text>
    </g>
    <g>
     <circle stroke="black" stroke-width="0.5" fill="#aaffff" cx="138.0" cy="520.0" r="1.0"/>
     <text stroke="none" x="138.0" y="520.0" font-size="10.0" font-family="helvetica">NT1.3</text>
    </g>
    <g>
     <circle stroke="black" stroke-width="0.5" fill="#aaffff" cx="140.0" cy="176.0" r="1.0"/>
     <text stroke="none" x="140.0" y="176.0" font-size="10.0" font-family="helvetica">NT1.4</text>
    </g>
    <g>
     <circle stroke="black" stroke-width="0.5" fill="#aaffff" cx="145.0" cy="34.0" r="1.0"/>
     <text stroke="none" x="145.0" y="34.0" font-size="10.0" font-family="helvetica">NT1.5</text>
    </g>
    <g>
     <circle stroke="black" stroke-width="0.5" fill="#aaffff" cx="155.0" cy="591.0" r="1.0"/>
     <text stroke="none" x="155.0" y="591.0" font-size="10.0" font-family="helvetica">NT1.6</text>
    </g>
    <g>
     <circle stroke="black" stroke-width="0.5" fill="#aaffff" cx="167.0" cy="278.0" r="1.0"/>
     <text stroke="none" x="167.0" y="278.0" font-size="10.0" font-family="helvetica">NT1.7</text>
    </g>
    <g>
     <circle stroke="black" stroke-width="0.5" fill="#aaffff" cx="169.0" cy="448.0" r="1.0"/>
     <text stroke="none" x="169.0" y="448.0" font-size="10.0" font-family="helvetica">NT1.8</text>
    </g>
    <g>
     <circle stroke="black" stroke-width="0.5" fill="#aaffff" cx="174.0" cy="204.0" r="1.0"/>
     <text stroke="none" x="174.0" y="204.0" font-size="10.0" font-family="helvetica">NT1.9</text>
    </g>
    <g>
     <circle stroke="black" stroke-width="0.5" fill="#aaffff" cx="188.0" cy="547.0" r="1.0"/>
     <text stroke="none" x="188.0" y="547.0" font-size="10.0" font-family="helvetica">NT1.10</text>
    </g>
    <g>
     <circle stroke="black" stroke-width="0.5" fill="#aaffff" cx="190.0" cy="367.0" r="1.0"/>
     <text stroke="none" x="190.0" y="367.0" font-size="10.0" font-family="helvetica">NT1.11</text>
    </g>
    <g>
     <circle stroke="black" stroke-width="0.5" fill="#aaffff" cx="197.0" cy="326.0" r="1.0"/>
     <text stroke="none" x="197.0" y="326.0" font-size="10.0" font-family="helvetica">NT1.12</text>
    </g>
    <g>
     <circle stroke="black" stroke-width="0.5" fill="#aaffff" cx="197.0" cy="476.0" r="1.0"/>
     <text stroke="none" x="197.0" y="476.0" font-size="10.0" font-family="helvetica">NT1.13</text>
    </g>
    <g>
     <circle stroke="black" stroke-width="0.5" fill="#aaffff" cx="209.0" cy="168.0" r="1.0"/>
     <text stroke="none" x="209.0" y="168.0" font-size="10.0" font-family="helvetica">NT1.14</text>
    </g>
    <g>
     <circle stroke="black" stroke-width="0.5" fill="#aaffff" cx="209.0" cy="289.0" r="1.0"/>
     <text stroke="none" x="209.0" y="289.0" font-size="10.0" font-family="helvetica">NT1.15</text>
    </g>
    <g>
     <circle stroke="black" stroke-width="0.5" fill="#aaffff" cx="214.0" cy="571.0" r="1.0"/>
     <text stroke="none" x="214.0" y="571.0" font-size="10.0" font-family="helvetica">NT1.16</text>
    </g>
    <g>
     <circle stroke="black" stroke-width="0.5" fill="#aaffff" cx="268.0" cy="350.0" r="1.0"/>
     <text stroke="none" x="268.0" y="350.0" font-size="10.0" font-family="helvetica">NT1.17</text>
    </g>
    <g>
     <circle stroke="black" stroke-width="0.5" fill="#aaffff" cx="269.0" cy="151.0" r="1.0"/>
     <text stroke="none" x="269.0" y="151.0" font-size="10.0" font-family="helvetica">NT1.18</text>
    </g>
    <g>
     <circle stroke="black" stroke-width="0.5" fill="#aaffff" cx="273.0" cy="600.0" r="1.0"/>
     <text stroke="none" x="273.0" y="600.0" font-size="10.0" font-family="helvetica">NT1.19</text>
    </g>
    <g>
     <circle stroke="black" stroke-width="0.5" fill="#aaffff" cx="297.0" cy="393.0" r="1.0"/>
     <text stroke="none" x="297.0" y="393.0" font-size="20.0" font-family="helvetica">P. copri CB7T (AB064923)</text>
    </g>
    <g>
     <circle stroke="black" stroke-width="0.5" fill="#aaffff" cx="309.0" cy="236.0" r="1.0"/>
     <text stroke="none" x="309.0" y="236.0" font-size="20.0" font-family="helvetica">P. bivia ATCC 29303T (L16475)</text>
    </g>
    <g>
     <circle stroke="black" stroke-width="0.5" fill="#aaffff" cx="313.0" cy="298.0" r="1.0"/>
     <text stroke="none" x="313.0" y="298.0" font-size="20.0" font-family="helvetica">P. oulorum ATCC 433247 (L16472)</text>
    </g>
    <g>
     <circle stroke="black" stroke-width="0.5" fill="#aaffff" cx="318.0" cy="331.0" r="1.0"/>
     <text stroke="none" x="318.0" y="331.0" font-size="20.0" font-family="helvetica">P. veroralis ATCC 33779T (L16473)</text>
    </g>
    <g>
     <circle stroke="black" stroke-width="0.5" fill="#aaffff" cx="318.0" cy="360.0" r="1.0"/>
     <text stroke="none" x="318.0" y="360.0" font-size="20.0" font-family="helvetica">P. melaninogenica ATCC 258457 (AY323525)</text>
    </g>
    <g>
     <circle stroke="black" stroke-width="0.5" fill="#aaffff" cx="318.0" cy="611.0" r="1.0"/>
     <text stroke="none" x="318.0" y="611.0" font-size="20.0" font-family="helvetica">P. IoescheiiATCC 159307 (L16481)</text>
    </g>
    <g>
     <circle stroke="black" stroke-width="0.5" fill="#aaffff" cx="320.0" cy="267.0" r="1.0"/>
     <text stroke="none" x="320.0" y="267.0" font-size="20.0" font-family="helvetica">P. salivae JCM 12084T (AB108826)</text>
    </g>
    <g>
     <circle stroke="black" stroke-width="0.5" fill="#aaffff" cx="323.0" cy="80.0" r="1.0"/>
     <text stroke="none" x="323.0" y="80.0" font-size="20.0" font-family="helvetica">P. bryantii DSM 11371T (AJOO6457)</text>
    </g>
    <g>
     <circle stroke="black" stroke-width="0.5" fill="#aaffff" cx="339.0" cy="581.0" r="1.0"/>
     <text stroke="none" x="339.0" y="581.0" font-size="20.0" font-family="helvetica">P. shahii JCM 120837 (AB108825)</text>
    </g>
    <g>
     <circle stroke="black" stroke-width="0.5" fill="#aaffff" cx="342.0" cy="423.0" r="1.0"/>
     <text stroke="none" x="342.0" y="423.0" font-size="20.0" font-family="helvetica">P. dentalis DSM 36887 (X81876)</text>
    </g>
    <g>
     <circle stroke="black" stroke-width="0.5" fill="#aaffff" cx="344.0" cy="643.0" r="1.0"/>
     <text stroke="none" x="344.0" y="643.0" font-size="20.0" font-family="helvetica">P. stercorea CB35T (AB244774)</text>
    </g>
    <g>
     <circle stroke="black" stroke-width="0.5" fill="#aaffff" cx="346.0" cy="49.0" r="1.0"/>
     <text stroke="none" x="346.0" y="49.0" font-size="20.0" font-family="helvetica">P. ruminicola ATCC 191897 (L16482)</text>
    </g>
    <g>
     <circle stroke="black" stroke-width="0.5" fill="#aaffff" cx="346.0" cy="675.0" r="1.0"/>
     <text stroke="none" x="346.0" y="675.0" font-size="20.0" font-family="helvetica">P. tannerae ATCC 51259T (AJOO5634)</text>
    </g>
    <g>
     <circle stroke="black" stroke-width="0.5" fill="#aaffff" cx="351.0" cy="456.0" r="1.0"/>
     <text stroke="none" x="351.0" y="456.0" font-size="20.0" font-family="helvetica">P. buccae ATCC 335747 (L16477)</text>
    </g>
    <g>
     <circle stroke="black" stroke-width="0.5" fill="#aaffff" cx="363.0" cy="174.0" r="1.0"/>
     <text stroke="none" x="363.0" y="174.0" font-size="20.0" font-family="helvetica">P. intermedia ATCC 25611T (L16468)</text>
    </g>
    <g>
     <circle stroke="black" stroke-width="0.5" fill="#aaffff" cx="363.0" cy="518.0" r="1.0"/>
     <text stroke="none" x="363.0" y="518.0" font-size="20.0" font-family="helvetica">P. oralis ATCC 332697 (L16480)</text>
    </g>
    <g>
     <circle stroke="black" stroke-width="0.5" fill="#aaffff" cx="365.0" cy="203.0" r="1.0"/>
     <text stroke="none" x="365.0" y="203.0" font-size="20.0" font-family="helvetica">P. disiens ATCC 29426T (L16483)</text>
    </g>
    <g>
     <circle stroke="black" stroke-width="0.5" fill="#aaffff" cx="365.0" cy="485.0" r="1.0"/>
     <text stroke="none" x="365.0" y="485.0" font-size="20.0" font-family="helvetica">P. baroniae E91337 (AY840553)</text>
    </g>
    <g>
     <circle stroke="black" stroke-width="0.5" fill="#aaffff" cx="375.0" cy="549.0" r="1.0"/>
     <text stroke="none" x="375.0" y="549.0" font-size="20.0" font-family="helvetica">P. marshii E9347 (AF481227)</text>
    </g>
    <g>
     <circle stroke="black" stroke-width="0.5" fill="#aaffff" cx="380.0" cy="142.0" r="1.0"/>
     <text stroke="none" x="380.0" y="142.0" font-size="20.0" font-family="helvetica">P. pallens AHN 10371T (Y13105)</text>
    </g>
    <g>
     <circle stroke="black" stroke-width="0.5" fill="#aaffff" cx="387.0" cy="111.0" r="1.0"/>
     <text stroke="none" x="387.0" y="111.0" font-size="20.0" font-family="helvetica">P. nigrescens ATCC 33563T (L16471)</text>
    </g>
    <g>
     <circle stroke="black" stroke-width="0.5" fill="#aaffff" cx="394.0" cy="16.0" r="1.0"/>
     <text stroke="none" x="394.0" y="16.0" font-size="20.0" font-family="helvetica">P. multisaccharivorax JCM 12954T (AB200414)</text>
    </g>
    <line stroke="black" x1="346.0" y1="49.0" x2="145.0" y2="34.0" stroke-width="0.5"/>
    <line stroke="black" x1="323.0" y1="80.0" x2="140.0" y2="176.0" stroke-width="0.5"/>
    <line stroke="black" x1="297.0" y1="393.0" x2="190.0" y2="367.0" stroke-width="0.5"/>
    <line stroke="black" x1="309.0" y1="236.0" x2="174.0" y2="204.0" stroke-width="0.5"/>
    <line stroke="black" x1="313.0" y1="298.0" x2="209.0" y2="289.0" stroke-width="0.5"/>
    <line stroke="black" x1="318.0" y1="360.0" x2="268.0" y2="350.0" stroke-width="0.5"/>
    <line stroke="black" x1="320.0" y1="267.0" x2="209.0" y2="289.0" stroke-width="0.5"/>
    <line stroke="black" x1="380.0" y1="142.0" x2="269.0" y2="151.0" stroke-width="0.5"/>
    <line stroke="black" x1="363.0" y1="174.0" x2="269.0" y2="151.0" stroke-width="0.5"/>
    <line stroke="black" x1="344.0" y1="643.0" x2="155.0" y2="591.0" stroke-width="0.5"/>
    <line stroke="black" x1="318.0" y1="611.0" x2="273.0" y2="600.0" stroke-width="0.5"/>
    <line stroke="black" x1="363.0" y1="518.0" x2="188.0" y2="547.0" stroke-width="0.5"/>
    <line stroke="black" x1="375.0" y1="549.0" x2="214.0" y2="571.0" stroke-width="0.5"/>
    <line stroke="black" x1="145.0" y1="34.0" x2="133.0" y2="107.0" stroke-width="0.5"/>
    <line stroke="black" x1="133.0" y1="107.0" x2="117.0" y2="313.0" stroke-width="0.5"/>
    <line stroke="black" x1="133.0" y1="107.0" x2="140.0" y2="176.0" stroke-width="0.5"/>
    <line stroke="black" x1="140.0" y1="176.0" x2="167.0" y2="278.0" stroke-width="0.5"/>
    <line stroke="black" x1="167.0" y1="278.0" x2="190.0" y2="367.0" stroke-width="0.5"/>
    <line stroke="black" x1="167.0" y1="278.0" x2="174.0" y2="204.0" stroke-width="0.5"/>
    <line stroke="black" x1="117.0" y1="313.0" x2="138.0" y2="520.0" stroke-width="0.5"/>
    <line stroke="black" x1="174.0" y1="204.0" x2="209.0" y2="168.0" stroke-width="0.5"/>
    <line stroke="black" x1="190.0" y1="367.0" x2="197.0" y2="326.0" stroke-width="0.5"/>
    <line stroke="black" x1="209.0" y1="168.0" x2="269.0" y2="151.0" stroke-width="0.5"/>
    <line stroke="black" x1="197.0" y1="326.0" x2="209.0" y2="289.0" stroke-width="0.5"/>
    <line stroke="black" x1="197.0" y1="326.0" x2="268.0" y2="350.0" stroke-width="0.5"/>
    <line stroke="black" x1="138.0" y1="520.0" x2="155.0" y2="591.0" stroke-width="0.5"/>
    <line stroke="black" x1="138.0" y1="520.0" x2="169.0" y2="448.0" stroke-width="0.5"/>
    <line stroke="black" x1="155.0" y1="591.0" x2="188.0" y2="547.0" stroke-width="0.5"/>
    <line stroke="black" x1="169.0" y1="448.0" x2="197.0" y2="476.0" stroke-width="0.5"/>
    <line stroke="black" x1="188.0" y1="547.0" x2="214.0" y2="571.0" stroke-width="0.5"/>
    <line stroke="black" x1="214.0" y1="571.0" x2="273.0" y2="600.0" stroke-width="0.5"/>
    <line stroke="black" x1="346.0" y1="675.0" x2="117.0" y2="313.0" stroke-width="0.5"/>
    <line stroke="black" x1="351.0" y1="456.0" x2="197.0" y2="476.0" stroke-width="0.5"/>
    <line stroke="black" x1="342.0" y1="423.0" x2="169.0" y2="448.0" stroke-width="0.5"/>
    <line stroke="black" x1="365.0" y1="485.0" x2="197.0" y2="476.0" stroke-width="0.5"/>
    <line stroke="black" x1="394.0" y1="16.0" x2="145.0" y2="34.0" stroke-width="0.5"/>
    <line stroke="black" x1="365.0" y1="203.0" x2="209.0" y2="168.0" stroke-width="0.5"/>
    <line stroke="black" x1="339.0" y1="581.0" x2="273.0" y2="600.0" stroke-width="0.5"/>
    <line stroke="black" x1="318.0" y1="331.0" x2="268.0" y2="350.0" stroke-width="0.5"/>
    <line stroke="black" x1="387.0" y1="111.0" x2="269.0" y2="151.0" stroke-width="0.5"/>
   </g>
  </g>
 </svg>
</svg>
