<?xml version="1.0" encoding="UTF-8"?>
<svg height="800.0" width="700.0" xmlns="http://www.w3.org/2000/svg">
 <svg>
  <g>
   <g>
    <g>
     <circle stroke="black" stroke-width="0.5" fill="#aaffff" cx="209.0" cy="472.0" r="1.0"/>
     <text stroke="none" x="209.0" y="472.0" font-size="20.0" font-family="helvetica">100</text>
    </g>
    <g>
     <circle stroke="black" stroke-width="0.5" fill="#aaffff" cx="210.0" cy="620.0" r="1.0"/>
     <text stroke="none" x="210.0" y="620.0" font-size="20.0" font-family="helvetica">D. dianthicola NCPPB 4537</text>
    </g>
    <g>
     <circle stroke="black" stroke-width="0.5" fill="#aaffff" cx="277.0" cy="390.0" r="1.0"/>
     <text stroke="none" x="277.0" y="390.0" font-size="10.0" font-family="helvetica">NT1.3</text>
    </g>
    <g>
     <circle stroke="black" stroke-width="0.5" fill="#aaffff" cx="300.0" cy="289.0" r="1.0"/>
     <text stroke="none" x="300.0" y="289.0" font-size="10.0" font-family="helvetica">NT1.4</text>
    </g>
    <g>
     <circle stroke="black" stroke-width="0.5" fill="#aaffff" cx="304.0" cy="386.0" r="1.0"/>
     <text stroke="none" x="304.0" y="386.0" font-size="10.0" font-family="helvetica">NT1.5</text>
    </g>
    <g>
     <circle stroke="black" stroke-width="0.5" fill="#aaffff" cx="314.0" cy="188.0" r="1.0"/>
     <text stroke="none" x="314.0" y="188.0" font-size="10.0" font-family="helvetica">NT1.6</text>
    </g>
    <g>
     <circle stroke="black" stroke-width="0.5" fill="#aaffff" cx="361.0" cy="487.0" r="1.0"/>
     <text stroke="none" x="361.0" y="487.0" font-size="20.0" font-family="helvetica">D. dadantii CFPB 37809</text>
    </g>
    <g>
     <circle stroke="black" stroke-width="0.5" fill="#aaffff" cx="366.0" cy="253.0" r="1.0"/>
     <text stroke="none" x="366.0" y="253.0" font-size="10.0" font-family="helvetica">NT1.8</text>
    </g>
    <g>
     <circle stroke="black" stroke-width="0.5" fill="#aaffff" cx="367.0" cy="354.0" r="1.0"/>
     <text stroke="none" x="367.0" y="354.0" font-size="20.0" font-family="helvetica">D. dadanm. CFBP 3855</text>
    </g>
    <g>
     <circle stroke="black" stroke-width="0.5" fill="#aaffff" cx="367.0" cy="421.0" r="1.0"/>
     <text stroke="none" x="367.0" y="421.0" font-size="20.0" font-family="helvetica">D. dadalm-i NCPPB 8981</text>
    </g>
    <g>
     <circle stroke="black" stroke-width="0.5" fill="#aaffff" cx="377.0" cy="554.0" r="1.0"/>
     <text stroke="none" x="377.0" y="554.0" font-size="20.0" font-family="helvetica">D. dieffenbachiae NCPPB 2976T</text>
    </g>
    <g>
     <circle stroke="black" stroke-width="0.5" fill="#aaffff" cx="387.0" cy="122.0" r="1.0"/>
     <text stroke="none" x="387.0" y="122.0" font-size="10.0" font-family="helvetica">NT1.12</text>
    </g>
    <g>
     <circle stroke="black" stroke-width="0.5" fill="#aaffff" cx="388.0" cy="88.0" r="1.0"/>
     <text stroke="none" x="388.0" y="88.0" font-size="20.0" font-family="helvetica">D. dadantii CFPB 4152</text>
    </g>
    <g>
     <circle stroke="black" stroke-width="0.5" fill="#aaffff" cx="388.0" cy="156.0" r="1.0"/>
     <text stroke="none" x="388.0" y="156.0" font-size="20.0" font-family="helvetica">D. dadantii CFPB 4153</text>
    </g>
    <g>
     <circle stroke="black" stroke-width="0.5" fill="#aaffff" cx="389.0" cy="222.0" r="1.0"/>
     <text stroke="none" x="389.0" y="222.0" font-size="20.0" font-family="helvetica">D. dadantii CFPB 3697</text>
    </g>
    <g>
     <circle stroke="black" stroke-width="0.5" fill="#aaffff" cx="389.0" cy="288.0" r="1.0"/>
     <text stroke="none" x="389.0" y="288.0" font-size="20.0" font-family="helvetica">D. dadantii CFBP 6467</text>
    </g>
    <line stroke="black" x1="388.0" y1="88.0" x2="387.0" y2="122.0" stroke-width="0.5"/>
    <line stroke="black" x1="388.0" y1="156.0" x2="387.0" y2="122.0" stroke-width="0.5"/>
    <line stroke="black" x1="389.0" y1="222.0" x2="366.0" y2="253.0" stroke-width="0.5"/>
    <line stroke="black" x1="367.0" y1="354.0" x2="304.0" y2="386.0" stroke-width="0.5"/>
    <line stroke="black" x1="367.0" y1="421.0" x2="304.0" y2="386.0" stroke-width="0.5"/>
    <line stroke="black" x1="387.0" y1="122.0" x2="314.0" y2="188.0" stroke-width="0.5"/>
    <line stroke="black" x1="314.0" y1="188.0" x2="300.0" y2="289.0" stroke-width="0.5"/>
    <line stroke="black" x1="314.0" y1="188.0" x2="366.0" y2="253.0" stroke-width="0.5"/>
    <line stroke="black" x1="300.0" y1="289.0" x2="277.0" y2="390.0" stroke-width="0.5"/>
    <line stroke="black" x1="300.0" y1="289.0" x2="304.0" y2="386.0" stroke-width="0.5"/>
    <line stroke="black" x1="277.0" y1="390.0" x2="209.0" y2="472.0" stroke-width="0.5"/>
    <line stroke="black" x1="210.0" y1="620.0" x2="209.0" y2="472.0" stroke-width="0.5"/>
    <line stroke="black" x1="377.0" y1="554.0" x2="209.0" y2="472.0" stroke-width="0.5"/>
    <line stroke="black" x1="361.0" y1="487.0" x2="277.0" y2="390.0" stroke-width="0.5"/>
    <line stroke="black" x1="389.0" y1="288.0" x2="366.0" y2="253.0" stroke-width="0.5"/>
   </g>
  </g>
 </svg>
</svg>
