<?xml version="1.0" encoding="UTF-8"?>
<svg height="800.0" width="700.0" xmlns="http://www.w3.org/2000/svg">
 <svg>
  <g>
   <g>
    <g>
     <circle stroke="black" stroke-width="0.5" fill="#aaffff" cx="3.0" cy="1160.0" r="1.0"/>
     <text stroke="none" x="3.0" y="1160.0" font-size="10.0" font-family="helvetica">NT1.1</text>
    </g>
    <g>
     <circle stroke="black" stroke-width="0.5" fill="#aaffff" cx="86.0" cy="889.0" r="1.0"/>
     <text stroke="none" x="86.0" y="889.0" font-size="10.0" font-family="helvetica">NT1.2</text>
    </g>
    <g>
     <circle stroke="black" stroke-width="0.5" fill="#aaffff" cx="120.0" cy="1019.0" r="1.0"/>
     <text stroke="none" x="120.0" y="1019.0" font-size="10.0" font-family="helvetica">NT1.3</text>
    </g>
    <g>
     <circle stroke="black" stroke-width="0.5" fill="#aaffff" cx="127.0" cy="757.0" r="1.0"/>
     <text stroke="none" x="127.0" y="757.0" font-size="10.0" font-family="helvetica">NT1.4</text>
    </g>
    <g>
     <circle stroke="black" stroke-width="0.5" fill="#aaffff" cx="143.0" cy="1160.0" r="1.0"/>
     <text stroke="none" x="143.0" y="1160.0" font-size="10.0" font-family="helvetica">NT1.5</text>
    </g>
    <g>
     <circle stroke="black" stroke-width="0.5" fill="#aaffff" cx="145.0" cy="1158.0" r="1.0"/>
     <text stroke="none" x="145.0" y="1158.0" font-size="10.0" font-family="helvetica">NT1.6</text>
    </g>
    <g>
     <circle stroke="black" stroke-width="0.5" fill="#aaffff" cx="150.0" cy="637.0" r="1.0"/>
     <text stroke="none" x="150.0" y="637.0" font-size="10.0" font-family="helvetica">NT1.7</text>
    </g>
    <g>
     <circle stroke="black" stroke-width="0.5" fill="#aaffff" cx="156.0" cy="1158.0" r="1.0"/>
     <text stroke="none" x="156.0" y="1158.0" font-size="20.0" font-family="helvetica"/>
    </g>
    <g>
     <circle stroke="black" stroke-width="0.5" fill="#aaffff" cx="184.0" cy="535.0" r="1.0"/>
     <text stroke="none" x="184.0" y="535.0" font-size="10.0" font-family="helvetica">NT1.9</text>
    </g>
    <g>
     <circle stroke="black" stroke-width="0.5" fill="#aaffff" cx="197.0" cy="984.0" r="1.0"/>
     <text stroke="none" x="197.0" y="984.0" font-size="10.0" font-family="helvetica">NT1.10</text>
    </g>
    <g>
     <circle stroke="black" stroke-width="0.5" fill="#aaffff" cx="207.0" cy="438.0" r="1.0"/>
     <text stroke="none" x="207.0" y="438.0" font-size="10.0" font-family="helvetica">NT1.11</text>
    </g>
    <g>
     <circle stroke="black" stroke-width="0.5" fill="#aaffff" cx="209.0" cy="983.0" r="1.0"/>
     <text stroke="none" x="209.0" y="983.0" font-size="20.0" font-family="helvetica"/>
    </g>
    <g>
     <circle stroke="black" stroke-width="0.5" fill="#aaffff" cx="251.0" cy="313.0" r="1.0"/>
     <text stroke="none" x="251.0" y="313.0" font-size="10.0" font-family="helvetica">NT1.13</text>
    </g>
    <g>
     <circle stroke="black" stroke-width="0.5" fill="#aaffff" cx="252.0" cy="562.0" r="1.0"/>
     <text stroke="none" x="252.0" y="562.0" font-size="10.0" font-family="helvetica">NT1.14</text>
    </g>
    <g>
     <circle stroke="black" stroke-width="0.5" fill="#aaffff" cx="263.0" cy="314.0" r="1.0"/>
     <text stroke="none" x="263.0" y="314.0" font-size="20.0" font-family="helvetica"/>
    </g>
    <g>
     <circle stroke="black" stroke-width="0.5" fill="#aaffff" cx="265.0" cy="561.0" r="1.0"/>
     <text stroke="none" x="265.0" y="561.0" font-size="20.0" font-family="helvetica">714</text>
    </g>
    <g>
     <circle stroke="black" stroke-width="0.5" fill="#aaffff" cx="340.0" cy="738.0" r="1.0"/>
     <text stroke="none" x="340.0" y="738.0" font-size="10.0" font-family="helvetica">NT1.17</text>
    </g>
    <g>
     <circle stroke="black" stroke-width="0.5" fill="#aaffff" cx="346.0" cy="415.0" r="1.0"/>
     <text stroke="none" x="346.0" y="415.0" font-size="10.0" font-family="helvetica">NT1.18</text>
    </g>
    <g>
     <circle stroke="black" stroke-width="0.5" fill="#aaffff" cx="350.0" cy="739.0" r="1.0"/>
     <text stroke="none" x="350.0" y="739.0" font-size="20.0" font-family="helvetica"/>
    </g>
    <g>
     <circle stroke="black" stroke-width="0.5" fill="#aaffff" cx="354.0" cy="1125.0" r="1.0"/>
     <text stroke="none" x="354.0" y="1125.0" font-size="10.0" font-family="helvetica">NT1.20</text>
    </g>
    <g>
     <circle stroke="black" stroke-width="0.5" fill="#aaffff" cx="355.0" cy="416.0" r="1.0"/>
     <text stroke="none" x="355.0" y="416.0" font-size="20.0" font-family="helvetica"/>
    </g>
    <g>
     <circle stroke="black" stroke-width="0.5" fill="#aaffff" cx="359.0" cy="586.0" r="1.0"/>
     <text stroke="none" x="359.0" y="586.0" font-size="20.0" font-family="helvetica"/>
    </g>
    <g>
     <circle stroke="black" stroke-width="0.5" fill="#aaffff" cx="366.0" cy="1124.0" r="1.0"/>
     <text stroke="none" x="366.0" y="1124.0" font-size="20.0" font-family="helvetica"/>
    </g>
    <g>
     <circle stroke="black" stroke-width="0.5" fill="#aaffff" cx="377.0" cy="703.0" r="1.0"/>
     <text stroke="none" x="377.0" y="703.0" font-size="10.0" font-family="helvetica">NT1.24</text>
    </g>
    <g>
     <circle stroke="black" stroke-width="0.5" fill="#aaffff" cx="381.0" cy="363.0" r="1.0"/>
     <text stroke="none" x="381.0" y="363.0" font-size="10.0" font-family="helvetica">NT1.25</text>
    </g>
    <g>
     <circle stroke="black" stroke-width="0.5" fill="#aaffff" cx="381.0" cy="879.0" r="1.0"/>
     <text stroke="none" x="381.0" y="879.0" font-size="10.0" font-family="helvetica">NT1.26</text>
    </g>
    <g>
     <circle stroke="black" stroke-width="0.5" fill="#aaffff" cx="390.0" cy="702.0" r="1.0"/>
     <text stroke="none" x="390.0" y="702.0" font-size="20.0" font-family="helvetica"/>
    </g>
    <g>
     <circle stroke="black" stroke-width="0.5" fill="#aaffff" cx="394.0" cy="362.0" r="1.0"/>
     <text stroke="none" x="394.0" y="362.0" font-size="20.0" font-family="helvetica"/>
    </g>
    <g>
     <circle stroke="black" stroke-width="0.5" fill="#aaffff" cx="394.0" cy="878.0" r="1.0"/>
     <text stroke="none" x="394.0" y="878.0" font-size="20.0" font-family="helvetica"/>
    </g>
    <g>
     <circle stroke="black" stroke-width="0.5" fill="#aaffff" cx="401.0" cy="327.0" r="1.0"/>
     <text stroke="none" x="401.0" y="327.0" font-size="10.0" font-family="helvetica">NT1.30</text>
    </g>
    <g>
     <circle stroke="black" stroke-width="0.5" fill="#aaffff" cx="414.0" cy="328.0" r="1.0"/>
     <text stroke="none" x="414.0" y="328.0" font-size="20.0" font-family="helvetica"/>
    </g>
    <g>
     <circle stroke="black" stroke-width="0.5" fill="#aaffff" cx="420.0" cy="843.0" r="1.0"/>
     <text stroke="none" x="420.0" y="843.0" font-size="10.0" font-family="helvetica">NT1.32</text>
    </g>
    <g>
     <circle stroke="black" stroke-width="0.5" fill="#aaffff" cx="421.0" cy="867.0" r="1.0"/>
     <text stroke="none" x="421.0" y="867.0" font-size="20.0" font-family="helvetica"/>
    </g>
    <g>
     <circle stroke="black" stroke-width="0.5" fill="#aaffff" cx="432.0" cy="842.0" r="1.0"/>
     <text stroke="none" x="432.0" y="842.0" font-size="20.0" font-family="helvetica"/>
    </g>
    <g>
     <circle stroke="black" stroke-width="0.5" fill="#aaffff" cx="454.0" cy="212.0" r="1.0"/>
     <text stroke="none" x="454.0" y="212.0" font-size="20.0" font-family="helvetica">O</text>
    </g>
    <g>
     <circle stroke="black" stroke-width="0.5" fill="#aaffff" cx="456.0" cy="210.0" r="1.0"/>
     <text stroke="none" x="456.0" y="210.0" font-size="20.0" font-family="helvetica">O</text>
    </g>
    <g>
     <circle stroke="black" stroke-width="0.5" fill="#aaffff" cx="467.0" cy="210.0" r="1.0"/>
     <text stroke="none" x="467.0" y="210.0" font-size="20.0" font-family="helvetica"/>
    </g>
    <g>
     <circle stroke="black" stroke-width="0.5" fill="#aaffff" cx="487.0" cy="468.0" r="1.0"/>
     <text stroke="none" x="487.0" y="468.0" font-size="10.0" font-family="helvetica">NT1.38</text>
    </g>
    <g>
     <circle stroke="black" stroke-width="0.5" fill="#aaffff" cx="489.0" cy="466.0" r="1.0"/>
     <text stroke="none" x="489.0" y="466.0" font-size="10.0" font-family="helvetica">NT1.39</text>
    </g>
    <g>
     <circle stroke="black" stroke-width="0.5" fill="#aaffff" cx="493.0" cy="166.0" r="1.0"/>
     <text stroke="none" x="493.0" y="166.0" font-size="10.0" font-family="helvetica">NT1.40</text>
    </g>
    <g>
     <circle stroke="black" stroke-width="0.5" fill="#aaffff" cx="500.0" cy="466.0" r="1.0"/>
     <text stroke="none" x="500.0" y="466.0" font-size="20.0" font-family="helvetica"/>
    </g>
    <g>
     <circle stroke="black" stroke-width="0.5" fill="#aaffff" cx="505.0" cy="166.0" r="1.0"/>
     <text stroke="none" x="505.0" y="166.0" font-size="20.0" font-family="helvetica"/>
    </g>
    <g>
     <circle stroke="black" stroke-width="0.5" fill="#aaffff" cx="517.0" cy="961.0" r="1.0"/>
     <text stroke="none" x="517.0" y="961.0" font-size="20.0" font-family="helvetica">Magnetospirillum gryphiswaldense DSM 6361T (Y10109)</text>
    </g>
    <g>
     <circle stroke="black" stroke-width="0.5" fill="#aaffff" cx="533.0" cy="122.0" r="1.0"/>
     <text stroke="none" x="533.0" y="122.0" font-size="10.0" font-family="helvetica">NT1.44</text>
    </g>
    <g>
     <circle stroke="black" stroke-width="0.5" fill="#aaffff" cx="537.0" cy="398.0" r="1.0"/>
     <text stroke="none" x="537.0" y="398.0" font-size="20.0" font-family="helvetica">Brucella melitensis ATCC 23456T (L26166)</text>
    </g>
    <g>
     <circle stroke="black" stroke-width="0.5" fill="#aaffff" cx="539.0" cy="1007.0" r="1.0"/>
     <text stroke="none" x="539.0" y="1007.0" font-size="20.0" font-family="helvetica">Azospirillum Iipoferum ATCC 297o7T (M59061)</text>
    </g>
    <g>
     <circle stroke="black" stroke-width="0.5" fill="#aaffff" cx="542.0" cy="445.0" r="1.0"/>
     <text stroke="none" x="542.0" y="445.0" font-size="20.0" font-family="helvetica"/>
    </g>
    <g>
     <circle stroke="black" stroke-width="0.5" fill="#aaffff" cx="546.0" cy="123.0" r="1.0"/>
     <text stroke="none" x="546.0" y="123.0" font-size="20.0" font-family="helvetica"/>
    </g>
    <g>
     <circle stroke="black" stroke-width="0.5" fill="#aaffff" cx="558.0" cy="538.0" r="1.0"/>
     <text stroke="none" x="558.0" y="538.0" font-size="20.0" font-family="helvetica">Parvibaculum Iavamentivorans DSM 13023T (AY387398)</text>
    </g>
    <g>
     <circle stroke="black" stroke-width="0.5" fill="#aaffff" cx="575.0" cy="491.0" r="1.0"/>
     <text stroke="none" x="575.0" y="491.0" font-size="20.0" font-family="helvetica">Aminobacter aminovorans DSM 7048T (AJ011759)</text>
    </g>
    <g>
     <circle stroke="black" stroke-width="0.5" fill="#aaffff" cx="575.0" cy="1055.0" r="1.0"/>
     <text stroke="none" x="575.0" y="1055.0" font-size="20.0" font-family="helvetica">Rhodospirillum rubrum ATCC 1 1 170T (D30778)</text>
    </g>
    <g>
     <circle stroke="black" stroke-width="0.5" fill="#aaffff" cx="584.0" cy="81.0" r="1.0"/>
     <text stroke="none" x="584.0" y="81.0" font-size="10.0" font-family="helvetica">NT1.52</text>
    </g>
    <g>
     <circle stroke="black" stroke-width="0.5" fill="#aaffff" cx="591.0" cy="351.0" r="1.0"/>
     <text stroke="none" x="591.0" y="351.0" font-size="20.0" font-family="helvetica"/>
    </g>
    <g>
     <circle stroke="black" stroke-width="0.5" fill="#aaffff" cx="595.0" cy="819.0" r="1.0"/>
     <text stroke="none" x="595.0" y="819.0" font-size="20.0" font-family="helvetica">Brevundimonas diminuta ATCC 11568T (M59064)</text>
    </g>
    <g>
     <circle stroke="black" stroke-width="0.5" fill="#aaffff" cx="599.0" cy="632.0" r="1.0"/>
     <text stroke="none" x="599.0" y="632.0" font-size="20.0" font-family="helvetica">Strain GW14-5T (AY682384)</text>
    </g>
    <g>
     <circle stroke="black" stroke-width="0.5" fill="#aaffff" cx="603.0" cy="46.0" r="1.0"/>
     <text stroke="none" x="603.0" y="46.0" font-size="10.0" font-family="helvetica">NT1.56</text>
    </g>
    <g>
     <circle stroke="black" stroke-width="0.5" fill="#aaffff" cx="605.0" cy="44.0" r="1.0"/>
     <text stroke="none" x="605.0" y="44.0" font-size="10.0" font-family="helvetica">NT1.57</text>
    </g>
    <g>
     <circle stroke="black" stroke-width="0.5" fill="#aaffff" cx="610.0" cy="304.0" r="1.0"/>
     <text stroke="none" x="610.0" y="304.0" font-size="20.0" font-family="helvetica">Agrobacterium tumefaciens NCPPB 2437T (D14500)</text>
    </g>
    <g>
     <circle stroke="black" stroke-width="0.5" fill="#aaffff" cx="614.0" cy="44.0" r="1.0"/>
     <text stroke="none" x="614.0" y="44.0" font-size="20.0" font-family="helvetica"/>
    </g>
    <g>
     <circle stroke="black" stroke-width="0.5" fill="#aaffff" cx="619.0" cy="913.0" r="1.0"/>
     <text stroke="none" x="619.0" y="913.0" font-size="20.0" font-family="helvetica">Asticcacaulis excentricus ATCC 15261T (AB016610)</text>
    </g>
    <g>
     <circle stroke="black" stroke-width="0.5" fill="#aaffff" cx="630.0" cy="1148.0" r="1.0"/>
     <text stroke="none" x="630.0" y="1148.0" font-size="20.0" font-family="helvetica"/>
    </g>
    <g>
     <circle stroke="black" stroke-width="0.5" fill="#aaffff" cx="633.0" cy="679.0" r="1.0"/>
     <text stroke="none" x="633.0" y="679.0" font-size="20.0" font-family="helvetica">Erythromonas ursincola DSM 9006T (Y10677)</text>
    </g>
    <g>
     <circle stroke="black" stroke-width="0.5" fill="#aaffff" cx="672.0" cy="773.0" r="1.0"/>
     <text stroke="none" x="672.0" y="773.0" font-size="20.0" font-family="helvetica">Zymomonas mobilis ATCC 10988T (AF281031)</text>
    </g>
    <g>
     <circle stroke="black" stroke-width="0.5" fill="#aaffff" cx="674.0" cy="726.0" r="1.0"/>
     <text stroke="none" x="674.0" y="726.0" font-size="20.0" font-family="helvetica">Sphingomonas paucimobilis LMG 1227T (U37337)</text>
    </g>
    <g>
     <circle stroke="black" stroke-width="0.5" fill="#aaffff" cx="686.0" cy="1101.0" r="1.0"/>
     <text stroke="none" x="686.0" y="1101.0" font-size="20.0" font-family="helvetica">Orientia tsutsugamushi Litchfield (AF062074)</text>
    </g>
    <g>
     <circle stroke="black" stroke-width="0.5" fill="#aaffff" cx="701.0" cy="257.0" r="1.0"/>
     <text stroke="none" x="701.0" y="257.0" font-size="20.0" font-family="helvetica">Rhodobacter sphaeroides ATCC 17023T (X53855)</text>
    </g>
    <g>
     <circle stroke="black" stroke-width="0.5" fill="#aaffff" cx="719.0" cy="210.0" r="1.0"/>
     <text stroke="none" x="719.0" y="210.0" font-size="20.0" font-family="helvetica">Paracoccus denitrificans ATCC 17741T (Y16927)</text>
    </g>
    <g>
     <circle stroke="black" stroke-width="0.5" fill="#aaffff" cx="756.0" cy="116.0" r="1.0"/>
     <text stroke="none" x="756.0" y="116.0" font-size="20.0" font-family="helvetica">Silicibacter Iacuscaerulensis DSM 11314T (U77644)</text>
    </g>
    <g>
     <circle stroke="black" stroke-width="0.5" fill="#aaffff" cx="781.0" cy="164.0" r="1.0"/>
     <text stroke="none" x="781.0" y="164.0" font-size="20.0" font-family="helvetica">Roseivivax halodurans OCh 239T (D85829)</text>
    </g>
    <g>
     <circle stroke="black" stroke-width="0.5" fill="#aaffff" cx="819.0" cy="70.0" r="1.0"/>
     <text stroke="none" x="819.0" y="70.0" font-size="20.0" font-family="helvetica"/>
    </g>
    <g>
     <circle stroke="black" stroke-width="0.5" fill="#aaffff" cx="864.0" cy="22.0" r="1.0"/>
     <text stroke="none" x="864.0" y="22.0" font-size="20.0" font-family="helvetica">Roseobacter litoralis ATCC 49566T (X78312)</text>
    </g>
    <g>
     <circle stroke="black" stroke-width="0.5" fill="#aaffff" cx="875.0" cy="1195.0" r="1.0"/>
     <text stroke="none" x="875.0" y="1195.0" font-size="20.0" font-family="helvetica">Wolbachia pipientis (U23709)</text>
    </g>
    <g>
     <circle stroke="black" stroke-width="0.5" fill="#aaffff" cx="982.0" cy="1242.0" r="1.0"/>
     <text stroke="none" x="982.0" y="1242.0" font-size="20.0" font-family="helvetica">Escherichia coli ATCC 11775T (X80725)</text>
    </g>
    <line stroke="black" x1="614.0" y1="44.0" x2="605.0" y2="44.0" stroke-width="0.5"/>
    <line stroke="black" x1="546.0" y1="123.0" x2="533.0" y2="122.0" stroke-width="0.5"/>
    <line stroke="black" x1="505.0" y1="166.0" x2="493.0" y2="166.0" stroke-width="0.5"/>
    <line stroke="black" x1="864.0" y1="22.0" x2="605.0" y2="44.0" stroke-width="0.5"/>
    <line stroke="black" x1="819.0" y1="70.0" x2="603.0" y2="46.0" stroke-width="0.5"/>
    <line stroke="black" x1="756.0" y1="116.0" x2="584.0" y2="81.0" stroke-width="0.5"/>
    <line stroke="black" x1="467.0" y1="210.0" x2="456.0" y2="210.0" stroke-width="0.5"/>
    <line stroke="black" x1="781.0" y1="164.0" x2="533.0" y2="122.0" stroke-width="0.5"/>
    <line stroke="black" x1="719.0" y1="210.0" x2="493.0" y2="166.0" stroke-width="0.5"/>
    <line stroke="black" x1="701.0" y1="257.0" x2="454.0" y2="212.0" stroke-width="0.5"/>
    <line stroke="black" x1="263.0" y1="314.0" x2="251.0" y2="313.0" stroke-width="0.5"/>
    <line stroke="black" x1="355.0" y1="416.0" x2="346.0" y2="415.0" stroke-width="0.5"/>
    <line stroke="black" x1="394.0" y1="362.0" x2="381.0" y2="363.0" stroke-width="0.5"/>
    <line stroke="black" x1="414.0" y1="328.0" x2="401.0" y2="327.0" stroke-width="0.5"/>
    <line stroke="black" x1="265.0" y1="561.0" x2="252.0" y2="562.0" stroke-width="0.5"/>
    <line stroke="black" x1="500.0" y1="466.0" x2="489.0" y2="466.0" stroke-width="0.5"/>
    <line stroke="black" x1="542.0" y1="445.0" x2="489.0" y2="466.0" stroke-width="0.5"/>
    <line stroke="black" x1="359.0" y1="586.0" x2="252.0" y2="562.0" stroke-width="0.5"/>
    <line stroke="black" x1="575.0" y1="491.0" x2="487.0" y2="468.0" stroke-width="0.5"/>
    <line stroke="black" x1="591.0" y1="351.0" x2="401.0" y2="327.0" stroke-width="0.5"/>
    <line stroke="black" x1="610.0" y1="304.0" x2="401.0" y2="327.0" stroke-width="0.5"/>
    <line stroke="black" x1="558.0" y1="538.0" x2="252.0" y2="562.0" stroke-width="0.5"/>
    <line stroke="black" x1="350.0" y1="739.0" x2="340.0" y2="738.0" stroke-width="0.5"/>
    <line stroke="black" x1="390.0" y1="702.0" x2="377.0" y2="703.0" stroke-width="0.5"/>
    <line stroke="black" x1="394.0" y1="878.0" x2="381.0" y2="879.0" stroke-width="0.5"/>
    <line stroke="black" x1="432.0" y1="842.0" x2="420.0" y2="843.0" stroke-width="0.5"/>
    <line stroke="black" x1="421.0" y1="867.0" x2="420.0" y2="843.0" stroke-width="0.5"/>
    <line stroke="black" x1="209.0" y1="983.0" x2="197.0" y2="984.0" stroke-width="0.5"/>
    <line stroke="black" x1="672.0" y1="773.0" x2="340.0" y2="738.0" stroke-width="0.5"/>
    <line stroke="black" x1="156.0" y1="1158.0" x2="145.0" y2="1158.0" stroke-width="0.5"/>
    <line stroke="black" x1="517.0" y1="961.0" x2="197.0" y2="984.0" stroke-width="0.5"/>
    <line stroke="black" x1="539.0" y1="1007.0" x2="197.0" y2="984.0" stroke-width="0.5"/>
    <line stroke="black" x1="575.0" y1="1055.0" x2="120.0" y2="1019.0" stroke-width="0.5"/>
    <line stroke="black" x1="366.0" y1="1124.0" x2="354.0" y2="1125.0" stroke-width="0.5"/>
    <line stroke="black" x1="686.0" y1="1101.0" x2="354.0" y2="1125.0" stroke-width="0.5"/>
    <line stroke="black" x1="875.0" y1="1195.0" x2="143.0" y2="1160.0" stroke-width="0.5"/>
    <line stroke="black" x1="603.0" y1="46.0" x2="605.0" y2="44.0" stroke-width="0.5"/>
    <line stroke="black" x1="603.0" y1="46.0" x2="584.0" y2="81.0" stroke-width="0.5"/>
    <line stroke="black" x1="584.0" y1="81.0" x2="533.0" y2="122.0" stroke-width="0.5"/>
    <line stroke="black" x1="533.0" y1="122.0" x2="493.0" y2="166.0" stroke-width="0.5"/>
    <line stroke="black" x1="493.0" y1="166.0" x2="456.0" y2="210.0" stroke-width="0.5"/>
    <line stroke="black" x1="454.0" y1="212.0" x2="456.0" y2="210.0" stroke-width="0.5"/>
    <line stroke="black" x1="454.0" y1="212.0" x2="251.0" y2="313.0" stroke-width="0.5"/>
    <line stroke="black" x1="251.0" y1="313.0" x2="207.0" y2="438.0" stroke-width="0.5"/>
    <line stroke="black" x1="251.0" y1="313.0" x2="346.0" y2="415.0" stroke-width="0.5"/>
    <line stroke="black" x1="207.0" y1="438.0" x2="252.0" y2="562.0" stroke-width="0.5"/>
    <line stroke="black" x1="346.0" y1="415.0" x2="381.0" y2="363.0" stroke-width="0.5"/>
    <line stroke="black" x1="346.0" y1="415.0" x2="487.0" y2="468.0" stroke-width="0.5"/>
    <line stroke="black" x1="381.0" y1="363.0" x2="401.0" y2="327.0" stroke-width="0.5"/>
    <line stroke="black" x1="184.0" y1="535.0" x2="150.0" y2="637.0" stroke-width="0.5"/>
    <line stroke="black" x1="487.0" y1="468.0" x2="489.0" y2="466.0" stroke-width="0.5"/>
    <line stroke="black" x1="150.0" y1="637.0" x2="127.0" y2="757.0" stroke-width="0.5"/>
    <line stroke="black" x1="150.0" y1="637.0" x2="340.0" y2="738.0" stroke-width="0.5"/>
    <line stroke="black" x1="127.0" y1="757.0" x2="86.0" y2="889.0" stroke-width="0.5"/>
    <line stroke="black" x1="340.0" y1="738.0" x2="377.0" y2="703.0" stroke-width="0.5"/>
    <line stroke="black" x1="86.0" y1="889.0" x2="120.0" y2="1019.0" stroke-width="0.5"/>
    <line stroke="black" x1="120.0" y1="1019.0" x2="197.0" y2="984.0" stroke-width="0.5"/>
    <line stroke="black" x1="381.0" y1="879.0" x2="420.0" y2="843.0" stroke-width="0.5"/>
    <line stroke="black" x1="3.0" y1="1160.0" x2="143.0" y2="1160.0" stroke-width="0.5"/>
    <line stroke="black" x1="143.0" y1="1160.0" x2="145.0" y2="1158.0" stroke-width="0.5"/>
    <line stroke="black" x1="86.0" y1="889.0" x2="3.0" y2="1160.0" stroke-width="0.5"/>
    <line stroke="black" x1="982.0" y1="1242.0" x2="3.0" y2="1160.0" stroke-width="0.5"/>
    <line stroke="black" x1="127.0" y1="757.0" x2="381.0" y2="879.0" stroke-width="0.5"/>
    <line stroke="black" x1="145.0" y1="1158.0" x2="354.0" y2="1125.0" stroke-width="0.5"/>
    <line stroke="black" x1="207.0" y1="438.0" x2="184.0" y2="535.0" stroke-width="0.5"/>
    <line stroke="black" x1="599.0" y1="632.0" x2="184.0" y2="535.0" stroke-width="0.5"/>
    <line stroke="black" x1="630.0" y1="1148.0" x2="354.0" y2="1125.0" stroke-width="0.5"/>
    <line stroke="black" x1="674.0" y1="726.0" x2="377.0" y2="703.0" stroke-width="0.5"/>
    <line stroke="black" x1="633.0" y1="679.0" x2="377.0" y2="703.0" stroke-width="0.5"/>
    <line stroke="black" x1="537.0" y1="398.0" x2="381.0" y2="363.0" stroke-width="0.5"/>
    <line stroke="black" x1="619.0" y1="913.0" x2="381.0" y2="879.0" stroke-width="0.5"/>
    <line stroke="black" x1="595.0" y1="819.0" x2="420.0" y2="843.0" stroke-width="0.5"/>
   </g>
  </g>
 </svg>
</svg>
