<?xml version="1.0" encoding="UTF-8"?>
<svg height="800.0" width="700.0" xmlns="http://www.w3.org/2000/svg">
 <svg>
  <g>
   <g>
    <g>
     <circle stroke="black" stroke-width="0.5" fill="#aaffff" cx="148.0" cy="517.0" r="1.0"/>
     <text stroke="none" x="148.0" y="517.0" font-size="10.0" font-family="helvetica">NT1.1</text>
    </g>
    <g>
     <circle stroke="black" stroke-width="0.5" fill="#aaffff" cx="167.0" cy="812.0" r="1.0"/>
     <text stroke="none" x="167.0" y="812.0" font-size="20.0" font-family="helvetica">99</text>
    </g>
    <g>
     <circle stroke="black" stroke-width="0.5" fill="#aaffff" cx="251.0" cy="864.0" r="1.0"/>
     <text stroke="none" x="251.0" y="864.0" font-size="20.0" font-family="helvetica">65</text>
    </g>
    <g>
     <circle stroke="black" stroke-width="0.5" fill="#aaffff" cx="264.0" cy="422.0" r="1.0"/>
     <text stroke="none" x="264.0" y="422.0" font-size="20.0" font-family="helvetica">56</text>
    </g>
    <g>
     <circle stroke="black" stroke-width="0.5" fill="#aaffff" cx="312.0" cy="829.0" r="1.0"/>
     <text stroke="none" x="312.0" y="829.0" font-size="20.0" font-family="helvetica">62</text>
    </g>
    <g>
     <circle stroke="black" stroke-width="0.5" fill="#aaffff" cx="315.0" cy="476.0" r="1.0"/>
     <text stroke="none" x="315.0" y="476.0" font-size="10.0" font-family="helvetica">NT1.6</text>
    </g>
    <g>
     <circle stroke="black" stroke-width="0.5" fill="#aaffff" cx="340.0" cy="611.0" r="1.0"/>
     <text stroke="none" x="340.0" y="611.0" font-size="20.0" font-family="helvetica">98</text>
    </g>
    <g>
     <circle stroke="black" stroke-width="0.5" fill="#aaffff" cx="383.0" cy="504.0" r="1.0"/>
     <text stroke="none" x="383.0" y="504.0" font-size="20.0" font-family="helvetica">63</text>
    </g>
    <g>
     <circle stroke="black" stroke-width="0.5" fill="#aaffff" cx="387.0" cy="367.0" r="1.0"/>
     <text stroke="none" x="387.0" y="367.0" font-size="20.0" font-family="helvetica">85</text>
    </g>
    <g>
     <circle stroke="black" stroke-width="0.5" fill="#aaffff" cx="422.0" cy="319.0" r="1.0"/>
     <text stroke="none" x="422.0" y="319.0" font-size="10.0" font-family="helvetica">NT1.10</text>
    </g>
    <g>
     <circle stroke="black" stroke-width="0.5" fill="#aaffff" cx="423.0" cy="763.0" r="1.0"/>
     <text stroke="none" x="423.0" y="763.0" font-size="20.0" font-family="helvetica">90</text>
    </g>
    <g>
     <circle stroke="black" stroke-width="0.5" fill="#aaffff" cx="460.0" cy="255.0" r="1.0"/>
     <text stroke="none" x="460.0" y="255.0" font-size="10.0" font-family="helvetica">NT1.12</text>
    </g>
    <g>
     <circle stroke="black" stroke-width="0.5" fill="#aaffff" cx="500.0" cy="901.0" r="1.0"/>
     <text stroke="none" x="500.0" y="901.0" font-size="20.0" font-family="helvetica">99</text>
    </g>
    <g>
     <circle stroke="black" stroke-width="0.5" fill="#aaffff" cx="503.0" cy="177.0" r="1.0"/>
     <text stroke="none" x="503.0" y="177.0" font-size="10.0" font-family="helvetica">NT1.14</text>
    </g>
    <g>
     <circle stroke="black" stroke-width="0.5" fill="#aaffff" cx="547.0" cy="641.0" r="1.0"/>
     <text stroke="none" x="547.0" y="641.0" font-size="10.0" font-family="helvetica">NT1.15</text>
    </g>
    <g>
     <circle stroke="black" stroke-width="0.5" fill="#aaffff" cx="572.0" cy="529.0" r="1.0"/>
     <text stroke="none" x="572.0" y="529.0" font-size="20.0" font-family="helvetica">99</text>
    </g>
    <g>
     <circle stroke="black" stroke-width="0.5" fill="#aaffff" cx="592.0" cy="613.0" r="1.0"/>
     <text stroke="none" x="592.0" y="613.0" font-size="20.0" font-family="helvetica">Enterococcus termitis LMG 88957 (AM039968)</text>
    </g>
    <g>
     <circle stroke="black" stroke-width="0.5" fill="#aaffff" cx="592.0" cy="231.0" r="1.0"/>
     <text stroke="none" x="592.0" y="231.0" font-size="20.0" font-family="helvetica">95</text>
    </g>
    <g>
     <circle stroke="black" stroke-width="0.5" fill="#aaffff" cx="595.0" cy="414.0" r="1.0"/>
     <text stroke="none" x="595.0" y="414.0" font-size="20.0" font-family="helvetica">Enterococcus casseliflavus NCIMB 1 1449T (Y181 61)</text>
    </g>
    <g>
     <circle stroke="black" stroke-width="0.5" fill="#aaffff" cx="607.0" cy="330.0" r="1.0"/>
     <text stroke="none" x="607.0" y="330.0" font-size="20.0" font-family="helvetica">88</text>
    </g>
    <g>
     <circle stroke="black" stroke-width="0.5" fill="#aaffff" cx="608.0" cy="670.0" r="1.0"/>
     <text stroke="none" x="608.0" y="670.0" font-size="20.0" font-family="helvetica">99</text>
    </g>
    <g>
     <circle stroke="black" stroke-width="0.5" fill="#aaffff" cx="609.0" cy="646.0" r="1.0"/>
     <text stroke="none" x="609.0" y="646.0" font-size="20.0" font-family="helvetica">Enterococcus mora viensis CCM 4856T (AF286831)</text>
    </g>
    <g>
     <circle stroke="black" stroke-width="0.5" fill="#aaffff" cx="611.0" cy="119.0" r="1.0"/>
     <text stroke="none" x="611.0" y="119.0" font-size="20.0" font-family="helvetica">99</text>
    </g>
    <g>
     <circle stroke="black" stroke-width="0.5" fill="#aaffff" cx="621.0" cy="200.0" r="1.0"/>
     <text stroke="none" x="621.0" y="200.0" font-size="20.0" font-family="helvetica">93</text>
    </g>
    <g>
     <circle stroke="black" stroke-width="0.5" fill="#aaffff" cx="644.0" cy="182.0" r="1.0"/>
     <text stroke="none" x="644.0" y="182.0" font-size="20.0" font-family="helvetica">Enterococcus raffinosus NCIMB 12901 T (Y1 8296)</text>
    </g>
    <g>
     <circle stroke="black" stroke-width="0.5" fill="#aaffff" cx="645.0" cy="264.0" r="1.0"/>
     <text stroke="none" x="645.0" y="264.0" font-size="20.0" font-family="helvetica">93</text>
    </g>
    <g>
     <circle stroke="black" stroke-width="0.5" fill="#aaffff" cx="647.0" cy="249.0" r="1.0"/>
     <text stroke="none" x="647.0" y="249.0" font-size="20.0" font-family="helvetica">Enterococcus devriesei LMG 14595T (AJ891 167)</text>
    </g>
    <g>
     <circle stroke="black" stroke-width="0.5" fill="#aaffff" cx="647.0" cy="281.0" r="1.0"/>
     <text stroke="none" x="647.0" y="281.0" font-size="20.0" font-family="helvetica">Enterococcus pseudoavium ATCC 49372T (AF061 O02)</text>
    </g>
    <g>
     <circle stroke="black" stroke-width="0.5" fill="#aaffff" cx="648.0" cy="695.0" r="1.0"/>
     <text stroke="none" x="648.0" y="695.0" font-size="20.0" font-family="helvetica">91</text>
    </g>
    <g>
     <circle stroke="black" stroke-width="0.5" fill="#aaffff" cx="649.0" cy="712.0" r="1.0"/>
     <text stroke="none" x="649.0" y="712.0" font-size="20.0" font-family="helvetica">Enterococcus caccae 2215-O27 (AY943820)</text>
    </g>
    <g>
     <circle stroke="black" stroke-width="0.5" fill="#aaffff" cx="649.0" cy="679.0" r="1.0"/>
     <text stroke="none" x="649.0" y="679.0" font-size="20.0" font-family="helvetica">Enterococcus silesiacus LMG 23085T (AM039966)</text>
    </g>
    <g>
     <circle stroke="black" stroke-width="0.5" fill="#aaffff" cx="659.0" cy="88.0" r="1.0"/>
     <text stroke="none" x="659.0" y="88.0" font-size="10.0" font-family="helvetica">NT1.32</text>
    </g>
    <g>
     <circle stroke="black" stroke-width="0.5" fill="#aaffff" cx="661.0" cy="216.0" r="1.0"/>
     <text stroke="none" x="661.0" y="216.0" font-size="20.0" font-family="helvetica">Enterococcus malodoratus ATCC 43197T(AFO61O1 2)</text>
    </g>
    <g>
     <circle stroke="black" stroke-width="0.5" fill="#aaffff" cx="663.0" cy="59.0" r="1.0"/>
     <text stroke="none" x="663.0" y="59.0" font-size="10.0" font-family="helvetica">NT1.34</text>
    </g>
    <g>
     <circle stroke="black" stroke-width="0.5" fill="#aaffff" cx="669.0" cy="35.0" r="1.0"/>
     <text stroke="none" x="669.0" y="35.0" font-size="10.0" font-family="helvetica">NT1.35</text>
    </g>
    <g>
     <circle stroke="black" stroke-width="0.5" fill="#aaffff" cx="671.0" cy="17.0" r="1.0"/>
     <text stroke="none" x="671.0" y="17.0" font-size="10.0" font-family="helvetica">NT1.36</text>
    </g>
    <g>
     <circle stroke="black" stroke-width="0.5" fill="#aaffff" cx="682.0" cy="845.0" r="1.0"/>
     <text stroke="none" x="682.0" y="845.0" font-size="20.0" font-family="helvetica">Vagococcus lutrae M1134l97l1T(Y17152)</text>
    </g>
    <g>
     <circle stroke="black" stroke-width="0.5" fill="#aaffff" cx="701.0" cy="150.0" r="1.0"/>
     <text stroke="none" x="701.0" y="150.0" font-size="20.0" font-family="helvetica">Enterococcus villorum ATCC 7OO913T (AF335596)</text>
    </g>
    <g>
     <circle stroke="black" stroke-width="0.5" fill="#aaffff" cx="704.0" cy="83.0" r="1.0"/>
     <text stroke="none" x="704.0" y="83.0" font-size="20.0" font-family="helvetica">Enterococcus hirae DSM 2O160T (AJ276356)</text>
    </g>
    <g>
     <circle stroke="black" stroke-width="0.5" fill="#aaffff" cx="706.0" cy="811.0" r="1.0"/>
     <text stroke="none" x="706.0" y="811.0" font-size="20.0" font-family="helvetica">Vagococcus elongatus PPCQT (AF445297)</text>
    </g>
    <g>
     <circle stroke="black" stroke-width="0.5" fill="#aaffff" cx="714.0" cy="116.0" r="1.0"/>
     <text stroke="none" x="714.0" y="116.0" font-size="20.0" font-family="helvetica">Enterococcus faecium DSM 204777 (AJ276355)</text>
    </g>
    <g>
     <circle stroke="black" stroke-width="0.5" fill="#aaffff" cx="732.0" cy="579.0" r="1.0"/>
     <text stroke="none" x="732.0" y="579.0" font-size="20.0" font-family="helvetica">Enterococcus faecalis ATCC 194337 (DQ41 1814)</text>
    </g>
    <g>
     <circle stroke="black" stroke-width="0.5" fill="#aaffff" cx="748.0" cy="928.0" r="1.0"/>
     <text stroke="none" x="748.0" y="928.0" font-size="20.0" font-family="helvetica">100</text>
    </g>
    <g>
     <circle stroke="black" stroke-width="0.5" fill="#aaffff" cx="771.0" cy="50.0" r="1.0"/>
     <text stroke="none" x="771.0" y="50.0" font-size="20.0" font-family="helvetica">Enterococcus mundtii ATCC 431 86T(AFO61013)</text>
    </g>
    <g>
     <circle stroke="black" stroke-width="0.5" fill="#aaffff" cx="783.0" cy="381.0" r="1.0"/>
     <text stroke="none" x="783.0" y="381.0" font-size="20.0" font-family="helvetica">Enterococcus phoeniculicola JLB-1T (AYO28437)</text>
    </g>
    <g>
     <circle stroke="black" stroke-width="0.5" fill="#aaffff" cx="788.0" cy="546.0" r="1.0"/>
     <text stroke="none" x="788.0" y="546.0" font-size="20.0" font-family="helvetica">Enterococcus italicus LMG 21727T(AJ626902)</text>
    </g>
    <g>
     <circle stroke="black" stroke-width="0.5" fill="#aaffff" cx="799.0" cy="348.0" r="1.0"/>
     <text stroke="none" x="799.0" y="348.0" font-size="20.0" font-family="helvetica">Enterococcus canintestini LMG 1359OT (AJ888906)</text>
    </g>
    <g>
     <circle stroke="black" stroke-width="0.5" fill="#aaffff" cx="801.0" cy="513.0" r="1.0"/>
     <text stroke="none" x="801.0" y="513.0" font-size="20.0" font-family="helvetica">Enterococcus sulfureus NCDO 23797 (X55133)</text>
    </g>
    <g>
     <circle stroke="black" stroke-width="0.5" fill="#aaffff" cx="821.0" cy="913.0" r="1.0"/>
     <text stroke="none" x="821.0" y="913.0" font-size="20.0" font-family="helvetica">Vagococcus carniphilus ATCC BAA-640T (AY1 79329)</text>
    </g>
    <g>
     <circle stroke="black" stroke-width="0.5" fill="#aaffff" cx="826.0" cy="946.0" r="1.0"/>
     <text stroke="none" x="826.0" y="946.0" font-size="20.0" font-family="helvetica">Vagococcus fluvialis CCUG 32 7047 (Y1 8098)</text>
    </g>
    <g>
     <circle stroke="black" stroke-width="0.5" fill="#aaffff" cx="890.0" cy="880.0" r="1.0"/>
     <text stroke="none" x="890.0" y="880.0" font-size="20.0" font-family="helvetica">Vagococcus penaei CD276T (FJ360897)</text>
    </g>
    <g>
     <circle stroke="black" stroke-width="0.5" fill="#aaffff" cx="895.0" cy="745.0" r="1.0"/>
     <text stroke="none" x="895.0" y="745.0" font-size="20.0" font-family="helvetica">Vagococcus fessus M2661l98l1T (AJ243326)</text>
    </g>
    <g>
     <circle stroke="black" stroke-width="0.5" fill="#aaffff" cx="982.0" cy="481.0" r="1.0"/>
     <text stroke="none" x="982.0" y="481.0" font-size="20.0" font-family="helvetica">Enterococcus aquimarinus LMG 166O7T (AJ877015)</text>
    </g>
    <g>
     <circle stroke="black" stroke-width="0.5" fill="#aaffff" cx="1007.0" cy="315.0" r="1.0"/>
     <text stroke="none" x="1007.0" y="315.0" font-size="20.0" font-family="helvetica">Enterococcus asini AS2T (Y1 1621)</text>
    </g>
    <g>
     <circle stroke="black" stroke-width="0.5" fill="#aaffff" cx="1067.0" cy="447.0" r="1.0"/>
     <text stroke="none" x="1067.0" y="447.0" font-size="20.0" font-family="helvetica">Enterococcus cecorum ATCC 43198T(AF0610O9)</text>
    </g>
    <g>
     <circle stroke="black" stroke-width="0.5" fill="#aaffff" cx="1070.0" cy="779.0" r="1.0"/>
     <text stroke="none" x="1070.0" y="779.0" font-size="20.0" font-family="helvetica">Vagococcus salrnoninarum NCFB 2777T (X54272)</text>
    </g>
    <line stroke="black" x1="771.0" y1="50.0" x2="669.0" y2="35.0" stroke-width="0.5"/>
    <line stroke="black" x1="714.0" y1="116.0" x2="659.0" y2="88.0" stroke-width="0.5"/>
    <line stroke="black" x1="701.0" y1="150.0" x2="611.0" y2="119.0" stroke-width="0.5"/>
    <line stroke="black" x1="647.0" y1="249.0" x2="645.0" y2="264.0" stroke-width="0.5"/>
    <line stroke="black" x1="799.0" y1="348.0" x2="607.0" y2="330.0" stroke-width="0.5"/>
    <line stroke="black" x1="595.0" y1="414.0" x2="387.0" y2="367.0" stroke-width="0.5"/>
    <line stroke="black" x1="609.0" y1="646.0" x2="608.0" y2="670.0" stroke-width="0.5"/>
    <line stroke="black" x1="649.0" y1="712.0" x2="648.0" y2="695.0" stroke-width="0.5"/>
    <line stroke="black" x1="649.0" y1="679.0" x2="648.0" y2="695.0" stroke-width="0.5"/>
    <line stroke="black" x1="821.0" y1="913.0" x2="748.0" y2="928.0" stroke-width="0.5"/>
    <line stroke="black" x1="890.0" y1="880.0" x2="500.0" y2="901.0" stroke-width="0.5"/>
    <line stroke="black" x1="671.0" y1="17.0" x2="671.0" y2="17.0" stroke-width="0.5"/>
    <line stroke="black" x1="671.0" y1="17.0" x2="669.0" y2="35.0" stroke-width="0.5"/>
    <line stroke="black" x1="669.0" y1="35.0" x2="663.0" y2="59.0" stroke-width="0.5"/>
    <line stroke="black" x1="663.0" y1="59.0" x2="659.0" y2="88.0" stroke-width="0.5"/>
    <line stroke="black" x1="659.0" y1="88.0" x2="611.0" y2="119.0" stroke-width="0.5"/>
    <line stroke="black" x1="611.0" y1="119.0" x2="503.0" y2="177.0" stroke-width="0.5"/>
    <line stroke="black" x1="503.0" y1="177.0" x2="460.0" y2="255.0" stroke-width="0.5"/>
    <line stroke="black" x1="503.0" y1="177.0" x2="592.0" y2="231.0" stroke-width="0.5"/>
    <line stroke="black" x1="460.0" y1="255.0" x2="422.0" y2="319.0" stroke-width="0.5"/>
    <line stroke="black" x1="460.0" y1="255.0" x2="607.0" y2="330.0" stroke-width="0.5"/>
    <line stroke="black" x1="592.0" y1="231.0" x2="645.0" y2="264.0" stroke-width="0.5"/>
    <line stroke="black" x1="592.0" y1="231.0" x2="621.0" y2="200.0" stroke-width="0.5"/>
    <line stroke="black" x1="422.0" y1="319.0" x2="387.0" y2="367.0" stroke-width="0.5"/>
    <line stroke="black" x1="387.0" y1="367.0" x2="264.0" y2="422.0" stroke-width="0.5"/>
    <line stroke="black" x1="264.0" y1="422.0" x2="148.0" y2="517.0" stroke-width="0.5"/>
    <line stroke="black" x1="264.0" y1="422.0" x2="315.0" y2="476.0" stroke-width="0.5"/>
    <line stroke="black" x1="315.0" y1="476.0" x2="383.0" y2="504.0" stroke-width="0.5"/>
    <line stroke="black" x1="383.0" y1="504.0" x2="572.0" y2="529.0" stroke-width="0.5"/>
    <line stroke="black" x1="148.0" y1="517.0" x2="340.0" y2="611.0" stroke-width="0.5"/>
    <line stroke="black" x1="340.0" y1="611.0" x2="547.0" y2="641.0" stroke-width="0.5"/>
    <line stroke="black" x1="547.0" y1="641.0" x2="608.0" y2="670.0" stroke-width="0.5"/>
    <line stroke="black" x1="608.0" y1="670.0" x2="648.0" y2="695.0" stroke-width="0.5"/>
    <line stroke="black" x1="167.0" y1="812.0" x2="251.0" y2="864.0" stroke-width="0.5"/>
    <line stroke="black" x1="167.0" y1="812.0" x2="423.0" y2="763.0" stroke-width="0.5"/>
    <line stroke="black" x1="251.0" y1="864.0" x2="500.0" y2="901.0" stroke-width="0.5"/>
    <line stroke="black" x1="251.0" y1="864.0" x2="312.0" y2="829.0" stroke-width="0.5"/>
    <line stroke="black" x1="500.0" y1="901.0" x2="748.0" y2="928.0" stroke-width="0.5"/>
    <line stroke="black" x1="148.0" y1="517.0" x2="167.0" y2="812.0" stroke-width="0.5"/>
    <line stroke="black" x1="682.0" y1="845.0" x2="312.0" y2="829.0" stroke-width="0.5"/>
    <line stroke="black" x1="706.0" y1="811.0" x2="312.0" y2="829.0" stroke-width="0.5"/>
    <line stroke="black" x1="732.0" y1="579.0" x2="340.0" y2="611.0" stroke-width="0.5"/>
    <line stroke="black" x1="783.0" y1="381.0" x2="422.0" y2="319.0" stroke-width="0.5"/>
    <line stroke="black" x1="592.0" y1="613.0" x2="547.0" y2="641.0" stroke-width="0.5"/>
    <line stroke="black" x1="1067.0" y1="447.0" x2="315.0" y2="476.0" stroke-width="0.5"/>
    <line stroke="black" x1="895.0" y1="745.0" x2="423.0" y2="763.0" stroke-width="0.5"/>
    <line stroke="black" x1="982.0" y1="481.0" x2="383.0" y2="504.0" stroke-width="0.5"/>
    <line stroke="black" x1="644.0" y1="182.0" x2="621.0" y2="200.0" stroke-width="0.5"/>
    <line stroke="black" x1="661.0" y1="216.0" x2="621.0" y2="200.0" stroke-width="0.5"/>
    <line stroke="black" x1="1070.0" y1="779.0" x2="423.0" y2="763.0" stroke-width="0.5"/>
    <line stroke="black" x1="788.0" y1="546.0" x2="572.0" y2="529.0" stroke-width="0.5"/>
    <line stroke="black" x1="647.0" y1="281.0" x2="645.0" y2="264.0" stroke-width="0.5"/>
    <line stroke="black" x1="801.0" y1="513.0" x2="572.0" y2="529.0" stroke-width="0.5"/>
    <line stroke="black" x1="704.0" y1="83.0" x2="663.0" y2="59.0" stroke-width="0.5"/>
    <line stroke="black" x1="1007.0" y1="315.0" x2="607.0" y2="330.0" stroke-width="0.5"/>
    <line stroke="black" x1="826.0" y1="946.0" x2="748.0" y2="928.0" stroke-width="0.5"/>
   </g>
  </g>
 </svg>
</svg>
