<?xml version="1.0" encoding="UTF-8"?>
<svg height="800.0" width="700.0" xmlns="http://www.w3.org/2000/svg">
 <svg>
  <g>
   <g>
    <g>
     <circle stroke="black" stroke-width="0.5" fill="#aaffff" cx="3.0" cy="1380.0" r="1.0"/>
     <text stroke="none" x="3.0" y="1380.0" font-size="20.0" font-family="helvetica"/>
    </g>
    <g>
     <circle stroke="black" stroke-width="0.5" fill="#aaffff" cx="5.0" cy="1380.0" r="1.0"/>
     <text stroke="none" x="5.0" y="1380.0" font-size="10.0" font-family="helvetica">NT1.2</text>
    </g>
    <g>
     <circle stroke="black" stroke-width="0.5" fill="#aaffff" cx="98.0" cy="1283.0" r="1.0"/>
     <text stroke="none" x="98.0" y="1283.0" font-size="10.0" font-family="helvetica">NT1.3</text>
    </g>
    <g>
     <circle stroke="black" stroke-width="0.5" fill="#aaffff" cx="312.0" cy="1138.0" r="1.0"/>
     <text stroke="none" x="312.0" y="1138.0" font-size="10.0" font-family="helvetica">NT1.4</text>
    </g>
    <g>
     <circle stroke="black" stroke-width="0.5" fill="#aaffff" cx="348.0" cy="1310.0" r="1.0"/>
     <text stroke="none" x="348.0" y="1310.0" font-size="10.0" font-family="helvetica">NT1.5</text>
    </g>
    <g>
     <circle stroke="black" stroke-width="0.5" fill="#aaffff" cx="374.0" cy="1055.0" r="1.0"/>
     <text stroke="none" x="374.0" y="1055.0" font-size="10.0" font-family="helvetica">NT1.6</text>
    </g>
    <g>
     <circle stroke="black" stroke-width="0.5" fill="#aaffff" cx="388.0" cy="1358.0" r="1.0"/>
     <text stroke="none" x="388.0" y="1358.0" font-size="20.0" font-family="helvetica">58</text>
    </g>
    <g>
     <circle stroke="black" stroke-width="0.5" fill="#aaffff" cx="389.0" cy="1265.0" r="1.0"/>
     <text stroke="none" x="389.0" y="1265.0" font-size="20.0" font-family="helvetica">76</text>
    </g>
    <g>
     <circle stroke="black" stroke-width="0.5" fill="#aaffff" cx="410.0" cy="656.0" r="1.0"/>
     <text stroke="none" x="410.0" y="656.0" font-size="10.0" font-family="helvetica">NT1.9</text>
    </g>
    <g>
     <circle stroke="black" stroke-width="0.5" fill="#aaffff" cx="432.0" cy="769.0" r="1.0"/>
     <text stroke="none" x="432.0" y="769.0" font-size="10.0" font-family="helvetica">NT1.10</text>
    </g>
    <g>
     <circle stroke="black" stroke-width="0.5" fill="#aaffff" cx="445.0" cy="568.0" r="1.0"/>
     <text stroke="none" x="445.0" y="568.0" font-size="10.0" font-family="helvetica">NT1.11</text>
    </g>
    <g>
     <circle stroke="black" stroke-width="0.5" fill="#aaffff" cx="458.0" cy="1238.0" r="1.0"/>
     <text stroke="none" x="458.0" y="1238.0" font-size="10.0" font-family="helvetica">NT1.12</text>
    </g>
    <g>
     <circle stroke="black" stroke-width="0.5" fill="#aaffff" cx="459.0" cy="1240.0" r="1.0"/>
     <text stroke="none" x="459.0" y="1240.0" font-size="10.0" font-family="helvetica">NT1.13</text>
    </g>
    <g>
     <circle stroke="black" stroke-width="0.5" fill="#aaffff" cx="463.0" cy="464.0" r="1.0"/>
     <text stroke="none" x="463.0" y="464.0" font-size="10.0" font-family="helvetica">NT1.14</text>
    </g>
    <g>
     <circle stroke="black" stroke-width="0.5" fill="#aaffff" cx="472.0" cy="666.0" r="1.0"/>
     <text stroke="none" x="472.0" y="666.0" font-size="10.0" font-family="helvetica">NT1.15</text>
    </g>
    <g>
     <circle stroke="black" stroke-width="0.5" fill="#aaffff" cx="493.0" cy="373.0" r="1.0"/>
     <text stroke="none" x="493.0" y="373.0" font-size="10.0" font-family="helvetica">NT1.16</text>
    </g>
    <g>
     <circle stroke="black" stroke-width="0.5" fill="#aaffff" cx="499.0" cy="49.0" r="1.0"/>
     <text stroke="none" x="499.0" y="49.0" font-size="10.0" font-family="helvetica">NT1.17</text>
    </g>
    <g>
     <circle stroke="black" stroke-width="0.5" fill="#aaffff" cx="508.0" cy="708.0" r="1.0"/>
     <text stroke="none" x="508.0" y="708.0" font-size="10.0" font-family="helvetica">NT1.18</text>
    </g>
    <g>
     <circle stroke="black" stroke-width="0.5" fill="#aaffff" cx="509.0" cy="1028.0" r="1.0"/>
     <text stroke="none" x="509.0" y="1028.0" font-size="20.0" font-family="helvetica">99</text>
    </g>
    <g>
     <circle stroke="black" stroke-width="0.5" fill="#aaffff" cx="517.0" cy="554.0" r="1.0"/>
     <text stroke="none" x="517.0" y="554.0" font-size="10.0" font-family="helvetica">NT1.20</text>
    </g>
    <g>
     <circle stroke="black" stroke-width="0.5" fill="#aaffff" cx="529.0" cy="461.0" r="1.0"/>
     <text stroke="none" x="529.0" y="461.0" font-size="10.0" font-family="helvetica">NT1.21</text>
    </g>
    <g>
     <circle stroke="black" stroke-width="0.5" fill="#aaffff" cx="531.0" cy="672.0" r="1.0"/>
     <text stroke="none" x="531.0" y="672.0" font-size="10.0" font-family="helvetica">NT1.22</text>
    </g>
    <g>
     <circle stroke="black" stroke-width="0.5" fill="#aaffff" cx="532.0" cy="674.0" r="1.0"/>
     <text stroke="none" x="532.0" y="674.0" font-size="10.0" font-family="helvetica">NT1.23</text>
    </g>
    <g>
     <circle stroke="black" stroke-width="0.5" fill="#aaffff" cx="535.0" cy="908.0" r="1.0"/>
     <text stroke="none" x="535.0" y="908.0" font-size="10.0" font-family="helvetica">NT1.24</text>
    </g>
    <g>
     <circle stroke="black" stroke-width="0.5" fill="#aaffff" cx="554.0" cy="1120.0" r="1.0"/>
     <text stroke="none" x="554.0" y="1120.0" font-size="10.0" font-family="helvetica">NT1.25</text>
    </g>
    <g>
     <circle stroke="black" stroke-width="0.5" fill="#aaffff" cx="561.0" cy="295.0" r="1.0"/>
     <text stroke="none" x="561.0" y="295.0" font-size="20.0" font-family="helvetica">51</text>
    </g>
    <g>
     <circle stroke="black" stroke-width="0.5" fill="#aaffff" cx="570.0" cy="416.0" r="1.0"/>
     <text stroke="none" x="570.0" y="416.0" font-size="20.0" font-family="helvetica">55</text>
    </g>
    <g>
     <circle stroke="black" stroke-width="0.5" fill="#aaffff" cx="586.0" cy="1429.0" r="1.0"/>
     <text stroke="none" x="586.0" y="1429.0" font-size="10.0" font-family="helvetica">NT1.28</text>
    </g>
    <g>
     <circle stroke="black" stroke-width="0.5" fill="#aaffff" cx="587.0" cy="243.0" r="1.0"/>
     <text stroke="none" x="587.0" y="243.0" font-size="20.0" font-family="helvetica">89</text>
    </g>
    <g>
     <circle stroke="black" stroke-width="0.5" fill="#aaffff" cx="593.0" cy="756.0" r="1.0"/>
     <text stroke="none" x="593.0" y="756.0" font-size="20.0" font-family="helvetica">99</text>
    </g>
    <g>
     <circle stroke="black" stroke-width="0.5" fill="#aaffff" cx="599.0" cy="1193.0" r="1.0"/>
     <text stroke="none" x="599.0" y="1193.0" font-size="20.0" font-family="helvetica">Donghicola eburneus SW-2777 (DQ667965)</text>
    </g>
    <g>
     <circle stroke="black" stroke-width="0.5" fill="#aaffff" cx="629.0" cy="192.0" r="1.0"/>
     <text stroke="none" x="629.0" y="192.0" font-size="10.0" font-family="helvetica">NT1.32</text>
    </g>
    <g>
     <circle stroke="black" stroke-width="0.5" fill="#aaffff" cx="646.0" cy="153.0" r="1.0"/>
     <text stroke="none" x="646.0" y="153.0" font-size="10.0" font-family="helvetica">NT1.33</text>
    </g>
    <g>
     <circle stroke="black" stroke-width="0.5" fill="#aaffff" cx="647.0" cy="155.0" r="1.0"/>
     <text stroke="none" x="647.0" y="155.0" font-size="10.0" font-family="helvetica">NT1.34</text>
    </g>
    <g>
     <circle stroke="black" stroke-width="0.5" fill="#aaffff" cx="652.0" cy="839.0" r="1.0"/>
     <text stroke="none" x="652.0" y="839.0" font-size="20.0" font-family="helvetica">100</text>
    </g>
    <g>
     <circle stroke="black" stroke-width="0.5" fill="#aaffff" cx="683.0" cy="674.0" r="1.0"/>
     <text stroke="none" x="683.0" y="674.0" font-size="20.0" font-family="helvetica">Marinovum algicola ATCC 51440T (X78315)</text>
    </g>
    <g>
     <circle stroke="black" stroke-width="0.5" fill="#aaffff" cx="683.0" cy="933.0" r="1.0"/>
     <text stroke="none" x="683.0" y="933.0" font-size="10.0" font-family="helvetica">NT1.37</text>
    </g>
    <g>
     <circle stroke="black" stroke-width="0.5" fill="#aaffff" cx="692.0" cy="1005.0" r="1.0"/>
     <text stroke="none" x="692.0" y="1005.0" font-size="20.0" font-family="helvetica">Pelagibaca bermudensis HTCC2601T (DQ178660)</text>
    </g>
    <g>
     <circle stroke="black" stroke-width="0.5" fill="#aaffff" cx="696.0" cy="223.0" r="1.0"/>
     <text stroke="none" x="696.0" y="223.0" font-size="10.0" font-family="helvetica">NT1.39</text>
    </g>
    <g>
     <circle stroke="black" stroke-width="0.5" fill="#aaffff" cx="701.0" cy="109.0" r="1.0"/>
     <text stroke="none" x="701.0" y="109.0" font-size="10.0" font-family="helvetica">NT1.40</text>
    </g>
    <g>
     <circle stroke="black" stroke-width="0.5" fill="#aaffff" cx="707.0" cy="580.0" r="1.0"/>
     <text stroke="none" x="707.0" y="580.0" font-size="10.0" font-family="helvetica">NT1.41</text>
    </g>
    <g>
     <circle stroke="black" stroke-width="0.5" fill="#aaffff" cx="723.0" cy="862.0" r="1.0"/>
     <text stroke="none" x="723.0" y="862.0" font-size="10.0" font-family="helvetica">NT1.42</text>
    </g>
    <g>
     <circle stroke="black" stroke-width="0.5" fill="#aaffff" cx="726.0" cy="1334.0" r="1.0"/>
     <text stroke="none" x="726.0" y="1334.0" font-size="20.0" font-family="helvetica">Ketogulonogenium robustum X6LT (AF136850)</text>
    </g>
    <g>
     <circle stroke="black" stroke-width="0.5" fill="#aaffff" cx="731.0" cy="769.0" r="1.0"/>
     <text stroke="none" x="731.0" y="769.0" font-size="20.0" font-family="helvetica">Leisingera methylohalidivorans MBZT (AY005463)</text>
    </g>
    <g>
     <circle stroke="black" stroke-width="0.5" fill="#aaffff" cx="734.0" cy="1382.0" r="1.0"/>
     <text stroke="none" x="734.0" y="1382.0" font-size="20.0" font-family="helvetica">Roseisalinus antarcticus EL-887 (AJ605747)</text>
    </g>
    <g>
     <circle stroke="black" stroke-width="0.5" fill="#aaffff" cx="737.0" cy="1099.0" r="1.0"/>
     <text stroke="none" x="737.0" y="1099.0" font-size="20.0" font-family="helvetica">Yangia pacilica DX5-10T (AJ877265)</text>
    </g>
    <g>
     <circle stroke="black" stroke-width="0.5" fill="#aaffff" cx="737.0" cy="1287.0" r="1.0"/>
     <text stroke="none" x="737.0" y="1287.0" font-size="20.0" font-family="helvetica">Jannaschia seosinensis CL-SP26T (AY906862)</text>
    </g>
    <g>
     <circle stroke="black" stroke-width="0.5" fill="#aaffff" cx="738.0" cy="202.0" r="1.0"/>
     <text stroke="none" x="738.0" y="202.0" font-size="20.0" font-family="helvetica">Ruegeria atlantica N5IV (AJ968648)</text>
    </g>
    <g>
     <circle stroke="black" stroke-width="0.5" fill="#aaffff" cx="742.0" cy="1147.0" r="1.0"/>
     <text stroke="none" x="742.0" y="1147.0" font-size="10.0" font-family="helvetica">NT1.49</text>
    </g>
    <g>
     <circle stroke="black" stroke-width="0.5" fill="#aaffff" cx="756.0" cy="1477.0" r="1.0"/>
     <text stroke="none" x="756.0" y="1477.0" font-size="20.0" font-family="helvetica">Hyphomonas polymorpha DSM 215657 (AJ227813)</text>
    </g>
    <g>
     <circle stroke="black" stroke-width="0.5" fill="#aaffff" cx="761.0" cy="438.0" r="1.0"/>
     <text stroke="none" x="761.0" y="438.0" font-size="20.0" font-family="helvetica">Roseovarius nubinhibens ISMT (AF098495)</text>
    </g>
    <g>
     <circle stroke="black" stroke-width="0.5" fill="#aaffff" cx="767.0" cy="814.0" r="1.0"/>
     <text stroke="none" x="767.0" y="814.0" font-size="20.0" font-family="helvetica">Oceanibulbus indolifex HEL-45T (AJ550939)</text>
    </g>
    <g>
     <circle stroke="black" stroke-width="0.5" fill="#aaffff" cx="770.0" cy="1240.0" r="1.0"/>
     <text stroke="none" x="770.0" y="1240.0" font-size="20.0" font-family="helvetica">Loktanella salsilacus LMG 215077 (AJ440997)</text>
    </g>
    <g>
     <circle stroke="black" stroke-width="0.5" fill="#aaffff" cx="780.0" cy="956.0" r="1.0"/>
     <text stroke="none" x="780.0" y="956.0" font-size="10.0" font-family="helvetica">NT1.54</text>
    </g>
    <g>
     <circle stroke="black" stroke-width="0.5" fill="#aaffff" cx="782.0" cy="908.0" r="1.0"/>
     <text stroke="none" x="782.0" y="908.0" font-size="10.0" font-family="helvetica">NT1.55</text>
    </g>
    <g>
     <circle stroke="black" stroke-width="0.5" fill="#aaffff" cx="782.0" cy="297.0" r="1.0"/>
     <text stroke="none" x="782.0" y="297.0" font-size="20.0" font-family="helvetica">Silicibacter pomeroyi DSS-10 (AF434674)</text>
    </g>
    <g>
     <circle stroke="black" stroke-width="0.5" fill="#aaffff" cx="785.0" cy="1053.0" r="1.0"/>
     <text stroke="none" x="785.0" y="1053.0" font-size="20.0" font-family="helvetica">Salipiger mucosus CECT 5855T (AY527274)</text>
    </g>
    <g>
     <circle stroke="black" stroke-width="0.5" fill="#aaffff" cx="789.0" cy="343.0" r="1.0"/>
     <text stroke="none" x="789.0" y="343.0" font-size="20.0" font-family="helvetica">Pseudoruegeria aquimaris SW-255T (DQ675021)</text>
    </g>
    <g>
     <circle stroke="black" stroke-width="0.5" fill="#aaffff" cx="792.0" cy="721.0" r="1.0"/>
     <text stroke="none" x="792.0" y="721.0" font-size="20.0" font-family="helvetica">Phaeobacter daeponensis TF-2187 (DQ981486)</text>
    </g>
    <g>
     <circle stroke="black" stroke-width="0.5" fill="#aaffff" cx="794.0" cy="627.0" r="1.0"/>
     <text stroke="none" x="794.0" y="627.0" font-size="20.0" font-family="helvetica">Oceanicola batsensis HTCC2597Y (AY424898)</text>
    </g>
    <g>
     <circle stroke="black" stroke-width="0.5" fill="#aaffff" cx="804.0" cy="249.0" r="1.0"/>
     <text stroke="none" x="804.0" y="249.0" font-size="10.0" font-family="helvetica">NT1.61</text>
    </g>
    <g>
     <circle stroke="black" stroke-width="0.5" fill="#aaffff" cx="815.0" cy="390.0" r="1.0"/>
     <text stroke="none" x="815.0" y="390.0" font-size="20.0" font-family="helvetica">Roseovarius crassostreae CV919-3127 (AF114484)</text>
    </g>
    <g>
     <circle stroke="black" stroke-width="0.5" fill="#aaffff" cx="825.0" cy="15.0" r="1.0"/>
     <text stroke="none" x="825.0" y="15.0" font-size="20.0" font-family="helvetica">Sagittula stellata E-37T (U5B356)</text>
    </g>
    <g>
     <circle stroke="black" stroke-width="0.5" fill="#aaffff" cx="825.0" cy="485.0" r="1.0"/>
     <text stroke="none" x="825.0" y="485.0" font-size="10.0" font-family="helvetica">NT1.64</text>
    </g>
    <g>
     <circle stroke="black" stroke-width="0.5" fill="#aaffff" cx="828.0" cy="62.0" r="1.0"/>
     <text stroke="none" x="828.0" y="62.0" font-size="10.0" font-family="helvetica">NT1.65</text>
    </g>
    <g>
     <circle stroke="black" stroke-width="0.5" fill="#aaffff" cx="828.0" cy="155.0" r="1.0"/>
     <text stroke="none" x="828.0" y="155.0" font-size="20.0" font-family="helvetica">Ruegeria scottomollicae LMG 24371 (AM905332)</text>
    </g>
    <g>
     <circle stroke="black" stroke-width="0.5" fill="#aaffff" cx="836.0" cy="533.0" r="1.0"/>
     <text stroke="none" x="836.0" y="533.0" font-size="20.0" font-family="helvetica">Thalassobacter stentrophicus 5SM22T (AJ631302)</text>
    </g>
    <line stroke="black" x1="767.0" y1="814.0" x2="652.0" y2="839.0" stroke-width="0.5"/>
    <line stroke="black" x1="683.0" y1="674.0" x2="532.0" y2="674.0" stroke-width="0.5"/>
    <line stroke="black" x1="761.0" y1="438.0" x2="570.0" y2="416.0" stroke-width="0.5"/>
    <line stroke="black" x1="785.0" y1="1053.0" x2="509.0" y2="1028.0" stroke-width="0.5"/>
    <line stroke="black" x1="782.0" y1="297.0" x2="587.0" y2="243.0" stroke-width="0.5"/>
    <line stroke="black" x1="828.0" y1="155.0" x2="647.0" y2="155.0" stroke-width="0.5"/>
    <line stroke="black" x1="5.0" y1="1380.0" x2="3.0" y2="1380.0" stroke-width="0.5"/>
    <line stroke="black" x1="734.0" y1="1382.0" x2="388.0" y2="1358.0" stroke-width="0.5"/>
    <line stroke="black" x1="770.0" y1="1240.0" x2="459.0" y2="1240.0" stroke-width="0.5"/>
    <line stroke="black" x1="410.0" y1="656.0" x2="432.0" y2="769.0" stroke-width="0.5"/>
    <line stroke="black" x1="410.0" y1="656.0" x2="374.0" y2="1055.0" stroke-width="0.5"/>
    <line stroke="black" x1="410.0" y1="656.0" x2="509.0" y2="1028.0" stroke-width="0.5"/>
    <line stroke="black" x1="432.0" y1="769.0" x2="445.0" y2="568.0" stroke-width="0.5"/>
    <line stroke="black" x1="445.0" y1="568.0" x2="472.0" y2="666.0" stroke-width="0.5"/>
    <line stroke="black" x1="445.0" y1="568.0" x2="463.0" y2="464.0" stroke-width="0.5"/>
    <line stroke="black" x1="374.0" y1="1055.0" x2="312.0" y2="1138.0" stroke-width="0.5"/>
    <line stroke="black" x1="463.0" y1="464.0" x2="493.0" y2="373.0" stroke-width="0.5"/>
    <line stroke="black" x1="472.0" y1="666.0" x2="508.0" y2="708.0" stroke-width="0.5"/>
    <line stroke="black" x1="508.0" y1="708.0" x2="593.0" y2="756.0" stroke-width="0.5"/>
    <line stroke="black" x1="493.0" y1="373.0" x2="561.0" y2="295.0" stroke-width="0.5"/>
    <line stroke="black" x1="312.0" y1="1138.0" x2="98.0" y2="1283.0" stroke-width="0.5"/>
    <line stroke="black" x1="312.0" y1="1138.0" x2="348.0" y2="1310.0" stroke-width="0.5"/>
    <line stroke="black" x1="529.0" y1="461.0" x2="570.0" y2="416.0" stroke-width="0.5"/>
    <line stroke="black" x1="561.0" y1="295.0" x2="587.0" y2="243.0" stroke-width="0.5"/>
    <line stroke="black" x1="587.0" y1="243.0" x2="629.0" y2="192.0" stroke-width="0.5"/>
    <line stroke="black" x1="348.0" y1="1310.0" x2="388.0" y2="1358.0" stroke-width="0.5"/>
    <line stroke="black" x1="348.0" y1="1310.0" x2="389.0" y2="1265.0" stroke-width="0.5"/>
    <line stroke="black" x1="696.0" y1="223.0" x2="738.0" y2="202.0" stroke-width="0.5"/>
    <line stroke="black" x1="726.0" y1="1334.0" x2="388.0" y2="1358.0" stroke-width="0.5"/>
    <line stroke="black" x1="794.0" y1="627.0" x2="472.0" y2="666.0" stroke-width="0.5"/>
    <line stroke="black" x1="599.0" y1="1193.0" x2="374.0" y2="1055.0" stroke-width="0.5"/>
    <line stroke="black" x1="815.0" y1="390.0" x2="570.0" y2="416.0" stroke-width="0.5"/>
    <line stroke="black" x1="692.0" y1="1005.0" x2="509.0" y2="1028.0" stroke-width="0.5"/>
    <line stroke="black" x1="836.0" y1="533.0" x2="517.0" y2="554.0" stroke-width="0.5"/>
    <line stroke="black" x1="731.0" y1="769.0" x2="593.0" y2="756.0" stroke-width="0.5"/>
    <line stroke="black" x1="737.0" y1="1099.0" x2="554.0" y2="1120.0" stroke-width="0.5"/>
    <line stroke="black" x1="825.0" y1="15.0" x2="499.0" y2="49.0" stroke-width="0.5"/>
    <line stroke="black" x1="792.0" y1="721.0" x2="593.0" y2="756.0" stroke-width="0.5"/>
    <line stroke="black" x1="737.0" y1="1287.0" x2="389.0" y2="1265.0" stroke-width="0.5"/>
    <line stroke="black" x1="756.0" y1="1477.0" x2="5.0" y2="1380.0" stroke-width="0.5"/>
    <line stroke="black" x1="789.0" y1="343.0" x2="561.0" y2="295.0" stroke-width="0.5"/>
   </g>
  </g>
 </svg>
</svg>
