<?xml version="1.0" encoding="UTF-8"?>
<svg height="800.0" width="700.0" xmlns="http://www.w3.org/2000/svg">
 <svg>
  <g>
   <g>
    <g>
     <circle stroke="black" stroke-width="0.5" fill="#aaffff" cx="2.0" cy="611.0" r="1.0"/>
     <text stroke="none" x="2.0" y="611.0" font-size="20.0" font-family="helvetica"/>
    </g>
    <g>
     <circle stroke="black" stroke-width="0.5" fill="#aaffff" cx="51.0" cy="592.0" r="1.0"/>
     <text stroke="none" x="51.0" y="592.0" font-size="10.0" font-family="helvetica">NT1.2</text>
    </g>
    <g>
     <circle stroke="black" stroke-width="0.5" fill="#aaffff" cx="93.0" cy="241.0" r="1.0"/>
     <text stroke="none" x="93.0" y="241.0" font-size="10.0" font-family="helvetica">NT1.3</text>
    </g>
    <g>
     <circle stroke="black" stroke-width="0.5" fill="#aaffff" cx="110.0" cy="282.0" r="1.0"/>
     <text stroke="none" x="110.0" y="282.0" font-size="10.0" font-family="helvetica">NT1.4</text>
    </g>
    <g>
     <circle stroke="black" stroke-width="0.5" fill="#aaffff" cx="124.0" cy="540.0" r="1.0"/>
     <text stroke="none" x="124.0" y="540.0" font-size="10.0" font-family="helvetica">NT1.5</text>
    </g>
    <g>
     <circle stroke="black" stroke-width="0.5" fill="#aaffff" cx="137.0" cy="135.0" r="1.0"/>
     <text stroke="none" x="137.0" y="135.0" font-size="10.0" font-family="helvetica">NT1.6</text>
    </g>
    <g>
     <circle stroke="black" stroke-width="0.5" fill="#aaffff" cx="137.0" cy="109.0" r="1.0"/>
     <text stroke="none" x="137.0" y="109.0" font-size="10.0" font-family="helvetica">NT1.7</text>
    </g>
    <g>
     <circle stroke="black" stroke-width="0.5" fill="#aaffff" cx="147.0" cy="540.0" r="1.0"/>
     <text stroke="none" x="147.0" y="540.0" font-size="10.0" font-family="helvetica">NT1.8</text>
    </g>
    <g>
     <circle stroke="black" stroke-width="0.5" fill="#aaffff" cx="184.0" cy="320.0" r="1.0"/>
     <text stroke="none" x="184.0" y="320.0" font-size="10.0" font-family="helvetica">NT1.9</text>
    </g>
    <g>
     <circle stroke="black" stroke-width="0.5" fill="#aaffff" cx="185.0" cy="197.0" r="1.0"/>
     <text stroke="none" x="185.0" y="197.0" font-size="10.0" font-family="helvetica">NT1.10</text>
    </g>
    <g>
     <circle stroke="black" stroke-width="0.5" fill="#aaffff" cx="191.0" cy="371.0" r="1.0"/>
     <text stroke="none" x="191.0" y="371.0" font-size="10.0" font-family="helvetica">NT1.11</text>
    </g>
    <g>
     <circle stroke="black" stroke-width="0.5" fill="#aaffff" cx="193.0" cy="511.0" r="1.0"/>
     <text stroke="none" x="193.0" y="511.0" font-size="10.0" font-family="helvetica">NT1.12</text>
    </g>
    <g>
     <circle stroke="black" stroke-width="0.5" fill="#aaffff" cx="193.0" cy="64.0" r="1.0"/>
     <text stroke="none" x="193.0" y="64.0" font-size="10.0" font-family="helvetica">NT1.13</text>
    </g>
    <g>
     <circle stroke="black" stroke-width="0.5" fill="#aaffff" cx="199.0" cy="542.0" r="1.0"/>
     <text stroke="none" x="199.0" y="542.0" font-size="10.0" font-family="helvetica">NT1.14</text>
    </g>
    <g>
     <circle stroke="black" stroke-width="0.5" fill="#aaffff" cx="200.0" cy="416.0" r="1.0"/>
     <text stroke="none" x="200.0" y="416.0" font-size="10.0" font-family="helvetica">NT1.15</text>
    </g>
    <g>
     <circle stroke="black" stroke-width="0.5" fill="#aaffff" cx="219.0" cy="97.0" r="1.0"/>
     <text stroke="none" x="219.0" y="97.0" font-size="10.0" font-family="helvetica">NT1.16</text>
    </g>
    <g>
     <circle stroke="black" stroke-width="0.5" fill="#aaffff" cx="219.0" cy="570.0" r="1.0"/>
     <text stroke="none" x="219.0" y="570.0" font-size="10.0" font-family="helvetica">NT1.17</text>
    </g>
    <g>
     <circle stroke="black" stroke-width="0.5" fill="#aaffff" cx="227.0" cy="66.0" r="1.0"/>
     <text stroke="none" x="227.0" y="66.0" font-size="10.0" font-family="helvetica">NT1.18</text>
    </g>
    <g>
     <circle stroke="black" stroke-width="0.5" fill="#aaffff" cx="228.0" cy="419.0" r="1.0"/>
     <text stroke="none" x="228.0" y="419.0" font-size="10.0" font-family="helvetica">NT1.19</text>
    </g>
    <g>
     <circle stroke="black" stroke-width="0.5" fill="#aaffff" cx="229.0" cy="199.0" r="1.0"/>
     <text stroke="none" x="229.0" y="199.0" font-size="10.0" font-family="helvetica">NT1.20</text>
    </g>
    <g>
     <circle stroke="black" stroke-width="0.5" fill="#aaffff" cx="229.0" cy="549.0" r="1.0"/>
     <text stroke="none" x="229.0" y="549.0" font-size="10.0" font-family="helvetica">NT1.21</text>
    </g>
    <g>
     <circle stroke="black" stroke-width="0.5" fill="#aaffff" cx="229.0" cy="592.0" r="1.0"/>
     <text stroke="none" x="229.0" y="592.0" font-size="10.0" font-family="helvetica">NT1.22</text>
    </g>
    <g>
     <circle stroke="black" stroke-width="0.5" fill="#aaffff" cx="234.0" cy="37.0" r="1.0"/>
     <text stroke="none" x="234.0" y="37.0" font-size="10.0" font-family="helvetica">NT1.23</text>
    </g>
    <g>
     <circle stroke="black" stroke-width="0.5" fill="#aaffff" cx="235.0" cy="59.0" r="1.0"/>
     <text stroke="none" x="235.0" y="59.0" font-size="10.0" font-family="helvetica">NT1.24</text>
    </g>
    <g>
     <circle stroke="black" stroke-width="0.5" fill="#aaffff" cx="236.0" cy="571.0" r="1.0"/>
     <text stroke="none" x="236.0" y="571.0" font-size="10.0" font-family="helvetica">NT1.25</text>
    </g>
    <g>
     <circle stroke="black" stroke-width="0.5" fill="#aaffff" cx="236.0" cy="227.0" r="1.0"/>
     <text stroke="none" x="236.0" y="227.0" font-size="10.0" font-family="helvetica">NT1.26</text>
    </g>
    <g>
     <circle stroke="black" stroke-width="0.5" fill="#aaffff" cx="245.0" cy="704.0" r="1.0"/>
     <text stroke="none" x="245.0" y="704.0" font-size="10.0" font-family="helvetica">NT1.27</text>
    </g>
    <g>
     <circle stroke="black" stroke-width="0.5" fill="#aaffff" cx="248.0" cy="206.0" r="1.0"/>
     <text stroke="none" x="248.0" y="206.0" font-size="10.0" font-family="helvetica">NT1.28</text>
    </g>
    <g>
     <circle stroke="black" stroke-width="0.5" fill="#aaffff" cx="249.0" cy="208.0" r="1.0"/>
     <text stroke="none" x="249.0" y="208.0" font-size="10.0" font-family="helvetica">NT1.29</text>
    </g>
    <g>
     <circle stroke="black" stroke-width="0.5" fill="#aaffff" cx="263.0" cy="513.0" r="1.0"/>
     <text stroke="none" x="263.0" y="513.0" font-size="20.0" font-family="helvetica">Marinobacter lutaoensis T5O54T (AF288157)</text>
    </g>
    <g>
     <circle stroke="black" stroke-width="0.5" fill="#aaffff" cx="271.0" cy="551.0" r="1.0"/>
     <text stroke="none" x="271.0" y="551.0" font-size="10.0" font-family="helvetica">NT1.31</text>
    </g>
    <g>
     <circle stroke="black" stroke-width="0.5" fill="#aaffff" cx="278.0" cy="478.0" r="1.0"/>
     <text stroke="none" x="278.0" y="478.0" font-size="10.0" font-family="helvetica">NT1.32</text>
    </g>
    <g>
     <circle stroke="black" stroke-width="0.5" fill="#aaffff" cx="278.0" cy="382.0" r="1.0"/>
     <text stroke="none" x="278.0" y="382.0" font-size="10.0" font-family="helvetica">NT1.33</text>
    </g>
    <g>
     <circle stroke="black" stroke-width="0.5" fill="#aaffff" cx="279.0" cy="401.0" r="1.0"/>
     <text stroke="none" x="279.0" y="401.0" font-size="20.0" font-family="helvetica">Spongiibacter tropicus CL-CB467 (EF988654)</text>
    </g>
    <g>
     <circle stroke="black" stroke-width="0.5" fill="#aaffff" cx="279.0" cy="359.0" r="1.0"/>
     <text stroke="none" x="279.0" y="359.0" font-size="20.0" font-family="helvetica">Spongiibacter tropicus CL-CB221T (EF988653)</text>
    </g>
    <g>
     <circle stroke="black" stroke-width="0.5" fill="#aaffff" cx="279.0" cy="476.0" r="1.0"/>
     <text stroke="none" x="279.0" y="476.0" font-size="20.0" font-family="helvetica">100</text>
    </g>
    <g>
     <circle stroke="black" stroke-width="0.5" fill="#aaffff" cx="280.0" cy="380.0" r="1.0"/>
     <text stroke="none" x="280.0" y="380.0" font-size="10.0" font-family="helvetica">NT1.37</text>
    </g>
    <g>
     <circle stroke="black" stroke-width="0.5" fill="#aaffff" cx="284.0" cy="456.0" r="1.0"/>
     <text stroke="none" x="284.0" y="456.0" font-size="10.0" font-family="helvetica">NT1.38</text>
    </g>
    <g>
     <circle stroke="black" stroke-width="0.5" fill="#aaffff" cx="287.0" cy="380.0" r="1.0"/>
     <text stroke="none" x="287.0" y="380.0" font-size="10.0" font-family="helvetica">NT1.39</text>
    </g>
    <g>
     <circle stroke="black" stroke-width="0.5" fill="#aaffff" cx="287.0" cy="437.0" r="1.0"/>
     <text stroke="none" x="287.0" y="437.0" font-size="10.0" font-family="helvetica">NT1.40</text>
    </g>
    <g>
     <circle stroke="black" stroke-width="0.5" fill="#aaffff" cx="290.0" cy="590.0" r="1.0"/>
     <text stroke="none" x="290.0" y="590.0" font-size="10.0" font-family="helvetica">NT1.41</text>
    </g>
    <g>
     <circle stroke="black" stroke-width="0.5" fill="#aaffff" cx="295.0" cy="94.0" r="1.0"/>
     <text stroke="none" x="295.0" y="94.0" font-size="20.0" font-family="helvetica">Cellvibrio japonicus NCIMB 1O4G2T (AF452103)</text>
    </g>
    <g>
     <circle stroke="black" stroke-width="0.5" fill="#aaffff" cx="297.0" cy="625.0" r="1.0"/>
     <text stroke="none" x="297.0" y="625.0" font-size="10.0" font-family="helvetica">NT1.43</text>
    </g>
    <g>
     <circle stroke="black" stroke-width="0.5" fill="#aaffff" cx="298.0" cy="668.0" r="1.0"/>
     <text stroke="none" x="298.0" y="668.0" font-size="10.0" font-family="helvetica">NT1.44</text>
    </g>
    <g>
     <circle stroke="black" stroke-width="0.5" fill="#aaffff" cx="299.0" cy="666.0" r="1.0"/>
     <text stroke="none" x="299.0" y="666.0" font-size="20.0" font-family="helvetica">100</text>
    </g>
    <g>
     <circle stroke="black" stroke-width="0.5" fill="#aaffff" cx="300.0" cy="476.0" r="1.0"/>
     <text stroke="none" x="300.0" y="476.0" font-size="10.0" font-family="helvetica">NT1.46</text>
    </g>
    <g>
     <circle stroke="black" stroke-width="0.5" fill="#aaffff" cx="304.0" cy="647.0" r="1.0"/>
     <text stroke="none" x="304.0" y="647.0" font-size="10.0" font-family="helvetica">NT1.47</text>
    </g>
    <g>
     <circle stroke="black" stroke-width="0.5" fill="#aaffff" cx="311.0" cy="208.0" r="1.0"/>
     <text stroke="none" x="311.0" y="208.0" font-size="20.0" font-family="helvetica">Pseudomonas corrugata ATCC 2973GT (D84012)</text>
    </g>
    <g>
     <circle stroke="black" stroke-width="0.5" fill="#aaffff" cx="312.0" cy="323.0" r="1.0"/>
     <text stroke="none" x="312.0" y="323.0" font-size="20.0" font-family="helvetica">Spongiibacter borealis CL-ASST (HQ199599)</text>
    </g>
    <g>
     <circle stroke="black" stroke-width="0.5" fill="#aaffff" cx="317.0" cy="18.0" r="1.0"/>
     <text stroke="none" x="317.0" y="18.0" font-size="20.0" font-family="helvetica">Cellvibrio gandavensis R-40697 (AJ289162)</text>
    </g>
    <g>
     <circle stroke="black" stroke-width="0.5" fill="#aaffff" cx="320.0" cy="247.0" r="1.0"/>
     <text stroke="none" x="320.0" y="247.0" font-size="20.0" font-family="helvetica">Pseudomonas luteola KS0921T (D84002)</text>
    </g>
    <g>
     <circle stroke="black" stroke-width="0.5" fill="#aaffff" cx="327.0" cy="56.0" r="1.0"/>
     <text stroke="none" x="327.0" y="56.0" font-size="20.0" font-family="helvetica">Cellvibrio mixtus UQM 2G01T (AF448515)</text>
    </g>
    <g>
     <circle stroke="black" stroke-width="0.5" fill="#aaffff" cx="333.0" cy="132.0" r="1.0"/>
     <text stroke="none" x="333.0" y="132.0" font-size="20.0" font-family="helvetica">Teredinibacter turnerae T79O2T (AYO28398)</text>
    </g>
    <g>
     <circle stroke="black" stroke-width="0.5" fill="#aaffff" cx="346.0" cy="285.0" r="1.0"/>
     <text stroke="none" x="346.0" y="285.0" font-size="20.0" font-family="helvetica">Neptunomonas naphthovorans NAG-2N-1 26T (AFO53734)</text>
    </g>
    <g>
     <circle stroke="black" stroke-width="0.5" fill="#aaffff" cx="358.0" cy="170.0" r="1.0"/>
     <text stroke="none" x="358.0" y="170.0" font-size="10.0" font-family="helvetica">NT1.55</text>
    </g>
    <g>
     <circle stroke="black" stroke-width="0.5" fill="#aaffff" cx="430.0" cy="627.0" r="1.0"/>
     <text stroke="none" x="430.0" y="627.0" font-size="20.0" font-family="helvetica">Glaciecola psychrophila 1 7OT (DQ007436)</text>
    </g>
    <g>
     <circle stroke="black" stroke-width="0.5" fill="#aaffff" cx="460.0" cy="666.0" r="1.0"/>
     <text stroke="none" x="460.0" y="666.0" font-size="20.0" font-family="helvetica">Glaciecola punicea IC067T (U85853)</text>
    </g>
    <line stroke="black" x1="327.0" y1="56.0" x2="234.0" y2="37.0" stroke-width="0.5"/>
    <line stroke="black" x1="295.0" y1="94.0" x2="193.0" y2="64.0" stroke-width="0.5"/>
    <line stroke="black" x1="333.0" y1="132.0" x2="137.0" y2="109.0" stroke-width="0.5"/>
    <line stroke="black" x1="311.0" y1="208.0" x2="249.0" y2="208.0" stroke-width="0.5"/>
    <line stroke="black" x1="279.0" y1="401.0" x2="278.0" y2="382.0" stroke-width="0.5"/>
    <line stroke="black" x1="279.0" y1="359.0" x2="280.0" y2="380.0" stroke-width="0.5"/>
    <line stroke="black" x1="312.0" y1="323.0" x2="200.0" y2="416.0" stroke-width="0.5"/>
    <line stroke="black" x1="346.0" y1="285.0" x2="93.0" y2="241.0" stroke-width="0.5"/>
    <line stroke="black" x1="263.0" y1="513.0" x2="147.0" y2="540.0" stroke-width="0.5"/>
    <line stroke="black" x1="430.0" y1="627.0" x2="124.0" y2="540.0" stroke-width="0.5"/>
    <line stroke="black" x1="460.0" y1="666.0" x2="299.0" y2="666.0" stroke-width="0.5"/>
    <line stroke="black" x1="234.0" y1="37.0" x2="193.0" y2="64.0" stroke-width="0.5"/>
    <line stroke="black" x1="193.0" y1="64.0" x2="137.0" y2="109.0" stroke-width="0.5"/>
    <line stroke="black" x1="137.0" y1="109.0" x2="93.0" y2="241.0" stroke-width="0.5"/>
    <line stroke="black" x1="93.0" y1="241.0" x2="124.0" y2="540.0" stroke-width="0.5"/>
    <line stroke="black" x1="93.0" y1="241.0" x2="200.0" y2="416.0" stroke-width="0.5"/>
    <line stroke="black" x1="185.0" y1="197.0" x2="236.0" y2="227.0" stroke-width="0.5"/>
    <line stroke="black" x1="124.0" y1="540.0" x2="51.0" y2="592.0" stroke-width="0.5"/>
    <line stroke="black" x1="200.0" y1="416.0" x2="278.0" y2="382.0" stroke-width="0.5"/>
    <line stroke="black" x1="320.0" y1="247.0" x2="236.0" y2="227.0" stroke-width="0.5"/>
    <line stroke="black" x1="317.0" y1="18.0" x2="234.0" y2="37.0" stroke-width="0.5"/>
   </g>
  </g>
 </svg>
</svg>
