<?xml version="1.0" encoding="UTF-8"?>
<svg height="800.0" width="700.0" xmlns="http://www.w3.org/2000/svg">
 <svg>
  <g>
   <g>
    <g>
     <circle stroke="black" stroke-width="0.5" fill="#aaffff" cx="4.0" cy="294.0" r="1.0"/>
     <text stroke="none" x="4.0" y="294.0" font-size="20.0" font-family="helvetica"/>
    </g>
    <g>
     <circle stroke="black" stroke-width="0.5" fill="#aaffff" cx="30.0" cy="294.0" r="1.0"/>
     <text stroke="none" x="30.0" y="294.0" font-size="10.0" font-family="helvetica">NT1.2</text>
    </g>
    <g>
     <circle stroke="black" stroke-width="0.5" fill="#aaffff" cx="35.0" cy="294.0" r="1.0"/>
     <text stroke="none" x="35.0" y="294.0" font-size="10.0" font-family="helvetica">NT1.3</text>
    </g>
    <g>
     <circle stroke="black" stroke-width="0.5" fill="#aaffff" cx="95.0" cy="252.0" r="1.0"/>
     <text stroke="none" x="95.0" y="252.0" font-size="10.0" font-family="helvetica">NT1.4</text>
    </g>
    <g>
     <circle stroke="black" stroke-width="0.5" fill="#aaffff" cx="129.0" cy="204.0" r="1.0"/>
     <text stroke="none" x="129.0" y="204.0" font-size="10.0" font-family="helvetica">NT1.5</text>
    </g>
    <g>
     <circle stroke="black" stroke-width="0.5" fill="#aaffff" cx="153.0" cy="249.0" r="1.0"/>
     <text stroke="none" x="153.0" y="249.0" font-size="10.0" font-family="helvetica">NT1.6</text>
    </g>
    <g>
     <circle stroke="black" stroke-width="0.5" fill="#aaffff" cx="159.0" cy="250.0" r="1.0"/>
     <text stroke="none" x="159.0" y="250.0" font-size="10.0" font-family="helvetica">NT1.7</text>
    </g>
    <g>
     <circle stroke="black" stroke-width="0.5" fill="#aaffff" cx="205.0" cy="134.0" r="1.0"/>
     <text stroke="none" x="205.0" y="134.0" font-size="10.0" font-family="helvetica">NT1.8</text>
    </g>
    <g>
     <circle stroke="black" stroke-width="0.5" fill="#aaffff" cx="210.0" cy="134.0" r="1.0"/>
     <text stroke="none" x="210.0" y="134.0" font-size="10.0" font-family="helvetica">NT1.9</text>
    </g>
    <g>
     <circle stroke="black" stroke-width="0.5" fill="#aaffff" cx="234.0" cy="332.0" r="1.0"/>
     <text stroke="none" x="234.0" y="332.0" font-size="20.0" font-family="helvetica">Haloterrigena turkmenica VKM B-1734T (AB004878)</text>
    </g>
    <g>
     <circle stroke="black" stroke-width="0.5" fill="#aaffff" cx="246.0" cy="80.0" r="1.0"/>
     <text stroke="none" x="246.0" y="80.0" font-size="10.0" font-family="helvetica">NT1.11</text>
    </g>
    <g>
     <circle stroke="black" stroke-width="0.5" fill="#aaffff" cx="252.0" cy="80.0" r="1.0"/>
     <text stroke="none" x="252.0" y="80.0" font-size="10.0" font-family="helvetica">NT1.12</text>
    </g>
    <g>
     <circle stroke="black" stroke-width="0.5" fill="#aaffff" cx="269.0" cy="185.0" r="1.0"/>
     <text stroke="none" x="269.0" y="185.0" font-size="20.0" font-family="helvetica">Haloferax volcanii NCIMB 20127 (K00421)</text>
    </g>
    <g>
     <circle stroke="black" stroke-width="0.5" fill="#aaffff" cx="269.0" cy="168.0" r="1.0"/>
     <text stroke="none" x="269.0" y="168.0" font-size="10.0" font-family="helvetica">NT1.14</text>
    </g>
    <g>
     <circle stroke="black" stroke-width="0.5" fill="#aaffff" cx="276.0" cy="169.0" r="1.0"/>
     <text stroke="none" x="276.0" y="169.0" font-size="20.0" font-family="helvetica">Haloferax volcanii NCIMB 20127 (K00421)</text>
    </g>
    <g>
     <circle stroke="black" stroke-width="0.5" fill="#aaffff" cx="276.0" cy="301.0" r="1.0"/>
     <text stroke="none" x="276.0" y="301.0" font-size="20.0" font-family="helvetica">Haloarcula vallismonis ATCC 29715T (D50851)</text>
    </g>
    <g>
     <circle stroke="black" stroke-width="0.5" fill="#aaffff" cx="285.0" cy="148.0" r="1.0"/>
     <text stroke="none" x="285.0" y="148.0" font-size="20.0" font-family="helvetica">Haloferax gibbonsii ATCC 33959T (D13378)</text>
    </g>
    <g>
     <circle stroke="black" stroke-width="0.5" fill="#aaffff" cx="301.0" cy="113.0" r="1.0"/>
     <text stroke="none" x="301.0" y="113.0" font-size="20.0" font-family="helvetica">Halogeometricum borinquense PR 37 (AF002984)</text>
    </g>
    <g>
     <circle stroke="black" stroke-width="0.5" fill="#aaffff" cx="316.0" cy="231.0" r="1.0"/>
     <text stroke="none" x="316.0" y="231.0" font-size="10.0" font-family="helvetica">NT1.19</text>
    </g>
    <g>
     <circle stroke="black" stroke-width="0.5" fill="#aaffff" cx="318.0" cy="229.0" r="1.0"/>
     <text stroke="none" x="318.0" y="229.0" font-size="10.0" font-family="helvetica">NT1.20</text>
    </g>
    <g>
     <circle stroke="black" stroke-width="0.5" fill="#aaffff" cx="322.0" cy="229.0" r="1.0"/>
     <text stroke="none" x="322.0" y="229.0" font-size="10.0" font-family="helvetica">NT1.21</text>
    </g>
    <g>
     <circle stroke="black" stroke-width="0.5" fill="#aaffff" cx="323.0" cy="271.0" r="1.0"/>
     <text stroke="none" x="323.0" y="271.0" font-size="20.0" font-family="helvetica">Halobaculum gomorrense ATCC 700876T (L37444)</text>
    </g>
    <g>
     <circle stroke="black" stroke-width="0.5" fill="#aaffff" cx="342.0" cy="244.0" r="1.0"/>
     <text stroke="none" x="342.0" y="244.0" font-size="20.0" font-family="helvetica">Halorubrum saccharovorum NCIMB 2O81T (X82167)</text>
    </g>
    <g>
     <circle stroke="black" stroke-width="0.5" fill="#aaffff" cx="377.0" cy="212.0" r="1.0"/>
     <text stroke="none" x="377.0" y="212.0" font-size="20.0" font-family="helvetica">Halorubrum sodomense ATCC 33755T (X82169)</text>
    </g>
    <g>
     <circle stroke="black" stroke-width="0.5" fill="#aaffff" cx="384.0" cy="24.0" r="1.0"/>
     <text stroke="none" x="384.0" y="24.0" font-size="10.0" font-family="helvetica">NT1.25</text>
    </g>
    <g>
     <circle stroke="black" stroke-width="0.5" fill="#aaffff" cx="384.0" cy="82.0" r="1.0"/>
     <text stroke="none" x="384.0" y="82.0" font-size="10.0" font-family="helvetica">NT1.26</text>
    </g>
    <g>
     <circle stroke="black" stroke-width="0.5" fill="#aaffff" cx="384.0" cy="54.0" r="1.0"/>
     <text stroke="none" x="384.0" y="54.0" font-size="10.0" font-family="helvetica">NT1.27</text>
    </g>
    <g>
     <circle stroke="black" stroke-width="0.5" fill="#aaffff" cx="391.0" cy="54.0" r="1.0"/>
     <text stroke="none" x="391.0" y="54.0" font-size="10.0" font-family="helvetica">NT1.28</text>
    </g>
    <line stroke="black" x1="269.0" y1="185.0" x2="269.0" y2="168.0" stroke-width="0.5"/>
    <line stroke="black" x1="276.0" y1="169.0" x2="269.0" y2="168.0" stroke-width="0.5"/>
    <line stroke="black" x1="4.0" y1="294.0" x2="30.0" y2="294.0" stroke-width="0.5"/>
    <line stroke="black" x1="234.0" y1="332.0" x2="30.0" y2="294.0" stroke-width="0.5"/>
    <line stroke="black" x1="205.0" y1="134.0" x2="129.0" y2="204.0" stroke-width="0.5"/>
    <line stroke="black" x1="205.0" y1="134.0" x2="269.0" y2="168.0" stroke-width="0.5"/>
    <line stroke="black" x1="129.0" y1="204.0" x2="95.0" y2="252.0" stroke-width="0.5"/>
    <line stroke="black" x1="129.0" y1="204.0" x2="153.0" y2="249.0" stroke-width="0.5"/>
    <line stroke="black" x1="153.0" y1="249.0" x2="316.0" y2="231.0" stroke-width="0.5"/>
    <line stroke="black" x1="95.0" y1="252.0" x2="30.0" y2="294.0" stroke-width="0.5"/>
    <line stroke="black" x1="276.0" y1="301.0" x2="95.0" y2="252.0" stroke-width="0.5"/>
    <line stroke="black" x1="323.0" y1="271.0" x2="153.0" y2="249.0" stroke-width="0.5"/>
    <line stroke="black" x1="301.0" y1="113.0" x2="246.0" y2="80.0" stroke-width="0.5"/>
    <line stroke="black" x1="285.0" y1="148.0" x2="269.0" y2="168.0" stroke-width="0.5"/>
    <line stroke="black" x1="342.0" y1="244.0" x2="316.0" y2="231.0" stroke-width="0.5"/>
    <line stroke="black" x1="377.0" y1="212.0" x2="318.0" y2="229.0" stroke-width="0.5"/>
   </g>
  </g>
 </svg>
</svg>
