<?xml version="1.0" encoding="UTF-8"?>
<svg height="800.0" width="700.0" xmlns="http://www.w3.org/2000/svg">
 <svg>
  <g>
   <g>
    <g>
     <circle stroke="black" stroke-width="0.5" fill="#aaffff" cx="77.0" cy="1026.0" r="1.0"/>
     <text stroke="none" x="77.0" y="1026.0" font-size="20.0" font-family="helvetica">yr</text>
    </g>
    <g>
     <circle stroke="black" stroke-width="0.5" fill="#aaffff" cx="77.0" cy="1503.0" r="1.0"/>
     <text stroke="none" x="77.0" y="1503.0" font-size="10.0" font-family="helvetica">NT1.2</text>
    </g>
    <g>
     <circle stroke="black" stroke-width="0.5" fill="#aaffff" cx="111.0" cy="720.0" r="1.0"/>
     <text stroke="none" x="111.0" y="720.0" font-size="10.0" font-family="helvetica">NT1.3</text>
    </g>
    <g>
     <circle stroke="black" stroke-width="0.5" fill="#aaffff" cx="149.0" cy="892.0" r="1.0"/>
     <text stroke="none" x="149.0" y="892.0" font-size="20.0" font-family="helvetica">537</text>
    </g>
    <g>
     <circle stroke="black" stroke-width="0.5" fill="#aaffff" cx="154.0" cy="546.0" r="1.0"/>
     <text stroke="none" x="154.0" y="546.0" font-size="10.0" font-family="helvetica">NT1.5</text>
    </g>
    <g>
     <circle stroke="black" stroke-width="0.5" fill="#aaffff" cx="194.0" cy="428.0" r="1.0"/>
     <text stroke="none" x="194.0" y="428.0" font-size="10.0" font-family="helvetica">NT1.6</text>
    </g>
    <g>
     <circle stroke="black" stroke-width="0.5" fill="#aaffff" cx="199.0" cy="505.0" r="1.0"/>
     <text stroke="none" x="199.0" y="505.0" font-size="10.0" font-family="helvetica">NT1.7</text>
    </g>
    <g>
     <circle stroke="black" stroke-width="0.5" fill="#aaffff" cx="204.0" cy="1417.0" r="1.0"/>
     <text stroke="none" x="204.0" y="1417.0" font-size="10.0" font-family="helvetica">NT1.8</text>
    </g>
    <g>
     <circle stroke="black" stroke-width="0.5" fill="#aaffff" cx="235.0" cy="664.0" r="1.0"/>
     <text stroke="none" x="235.0" y="664.0" font-size="10.0" font-family="helvetica">NT1.9</text>
    </g>
    <g>
     <circle stroke="black" stroke-width="0.5" fill="#aaffff" cx="239.0" cy="548.0" r="1.0"/>
     <text stroke="none" x="239.0" y="548.0" font-size="10.0" font-family="helvetica">NT1.10</text>
    </g>
    <g>
     <circle stroke="black" stroke-width="0.5" fill="#aaffff" cx="249.0" cy="1034.0" r="1.0"/>
     <text stroke="none" x="249.0" y="1034.0" font-size="10.0" font-family="helvetica">NT1.11</text>
    </g>
    <g>
     <circle stroke="black" stroke-width="0.5" fill="#aaffff" cx="264.0" cy="1590.0" r="1.0"/>
     <text stroke="none" x="264.0" y="1590.0" font-size="10.0" font-family="helvetica">NT1.12</text>
    </g>
    <g>
     <circle stroke="black" stroke-width="0.5" fill="#aaffff" cx="267.0" cy="1135.0" r="1.0"/>
     <text stroke="none" x="267.0" y="1135.0" font-size="20.0" font-family="helvetica">f</text>
    </g>
    <g>
     <circle stroke="black" stroke-width="0.5" fill="#aaffff" cx="279.0" cy="350.0" r="1.0"/>
     <text stroke="none" x="279.0" y="350.0" font-size="10.0" font-family="helvetica">NT1.14</text>
    </g>
    <g>
     <circle stroke="black" stroke-width="0.5" fill="#aaffff" cx="283.0" cy="934.0" r="1.0"/>
     <text stroke="none" x="283.0" y="934.0" font-size="10.0" font-family="helvetica">NT1.15</text>
    </g>
    <g>
     <circle stroke="black" stroke-width="0.5" fill="#aaffff" cx="287.0" cy="1199.0" r="1.0"/>
     <text stroke="none" x="287.0" y="1199.0" font-size="10.0" font-family="helvetica">NT1.16</text>
    </g>
    <g>
     <circle stroke="black" stroke-width="0.5" fill="#aaffff" cx="292.0" cy="1533.0" r="1.0"/>
     <text stroke="none" x="292.0" y="1533.0" font-size="10.0" font-family="helvetica">NT1.17</text>
    </g>
    <g>
     <circle stroke="black" stroke-width="0.5" fill="#aaffff" cx="298.0" cy="294.0" r="1.0"/>
     <text stroke="none" x="298.0" y="294.0" font-size="20.0" font-family="helvetica">557</text>
    </g>
    <g>
     <circle stroke="black" stroke-width="0.5" fill="#aaffff" cx="313.0" cy="693.0" r="1.0"/>
     <text stroke="none" x="313.0" y="693.0" font-size="20.0" font-family="helvetica">Actinosynnema mirum DSM 438277 (X84447)</text>
    </g>
    <g>
     <circle stroke="black" stroke-width="0.5" fill="#aaffff" cx="320.0" cy="463.0" r="1.0"/>
     <text stroke="none" x="320.0" y="463.0" font-size="10.0" font-family="helvetica">NT1.20</text>
    </g>
    <g>
     <circle stroke="black" stroke-width="0.5" fill="#aaffff" cx="323.0" cy="1069.0" r="1.0"/>
     <text stroke="none" x="323.0" y="1069.0" font-size="10.0" font-family="helvetica">NT1.21</text>
    </g>
    <g>
     <circle stroke="black" stroke-width="0.5" fill="#aaffff" cx="324.0" cy="752.0" r="1.0"/>
     <text stroke="none" x="324.0" y="752.0" font-size="20.0" font-family="helvetica">Saccharothrix longispora NRRL B-161167 (AF114809)</text>
    </g>
    <g>
     <circle stroke="black" stroke-width="0.5" fill="#aaffff" cx="330.0" cy="1647.0" r="1.0"/>
     <text stroke="none" x="330.0" y="1647.0" font-size="10.0" font-family="helvetica">NT1.23</text>
    </g>
    <g>
     <circle stroke="black" stroke-width="0.5" fill="#aaffff" cx="342.0" cy="1243.0" r="1.0"/>
     <text stroke="none" x="342.0" y="1243.0" font-size="10.0" font-family="helvetica">NT1.24</text>
    </g>
    <g>
     <circle stroke="black" stroke-width="0.5" fill="#aaffff" cx="345.0" cy="1272.0" r="1.0"/>
     <text stroke="none" x="345.0" y="1272.0" font-size="20.0" font-family="helvetica">Saccharothrix australiensis NRRL 112397 (AF114803)</text>
    </g>
    <g>
     <circle stroke="black" stroke-width="0.5" fill="#aaffff" cx="348.0" cy="240.0" r="1.0"/>
     <text stroke="none" x="348.0" y="240.0" font-size="10.0" font-family="helvetica">NT1.26</text>
    </g>
    <g>
     <circle stroke="black" stroke-width="0.5" fill="#aaffff" cx="349.0" cy="881.0" r="1.0"/>
     <text stroke="none" x="349.0" y="881.0" font-size="10.0" font-family="helvetica">NT1.27</text>
    </g>
    <g>
     <circle stroke="black" stroke-width="0.5" fill="#aaffff" cx="381.0" cy="578.0" r="1.0"/>
     <text stroke="none" x="381.0" y="578.0" font-size="10.0" font-family="helvetica">NT1.28</text>
    </g>
    <g>
     <circle stroke="black" stroke-width="0.5" fill="#aaffff" cx="402.0" cy="346.0" r="1.0"/>
     <text stroke="none" x="402.0" y="346.0" font-size="20.0" font-family="helvetica">Lentzea albida NRRL B-240737 (ABOO6176)</text>
    </g>
    <g>
     <circle stroke="black" stroke-width="0.5" fill="#aaffff" cx="402.0" cy="521.0" r="1.0"/>
     <text stroke="none" x="402.0" y="521.0" font-size="10.0" font-family="helvetica">NT1.30</text>
    </g>
    <g>
     <circle stroke="black" stroke-width="0.5" fill="#aaffff" cx="415.0" cy="1157.0" r="1.0"/>
     <text stroke="none" x="415.0" y="1157.0" font-size="20.0" font-family="helvetica">Saccharothrix algeriensis NRRL B-241377 (AYO54972)</text>
    </g>
    <g>
     <circle stroke="black" stroke-width="0.5" fill="#aaffff" cx="417.0" cy="404.0" r="1.0"/>
     <text stroke="none" x="417.0" y="404.0" font-size="10.0" font-family="helvetica">NT1.32</text>
    </g>
    <g>
     <circle stroke="black" stroke-width="0.5" fill="#aaffff" cx="420.0" cy="1040.0" r="1.0"/>
     <text stroke="none" x="420.0" y="1040.0" font-size="20.0" font-family="helvetica">Saccharothrix coeruleofusca NRRL B-161157 (AF114805)</text>
    </g>
    <g>
     <circle stroke="black" stroke-width="0.5" fill="#aaffff" cx="420.0" cy="1330.0" r="1.0"/>
     <text stroke="none" x="420.0" y="1330.0" font-size="20.0" font-family="helvetica">Saccharothrix tangerinus JCM 103027 (AB020031)</text>
    </g>
    <g>
     <circle stroke="black" stroke-width="0.5" fill="#aaffff" cx="420.0" cy="1504.0" r="1.0"/>
     <text stroke="none" x="420.0" y="1504.0" font-size="10.0" font-family="helvetica">NT1.35</text>
    </g>
    <g>
     <circle stroke="black" stroke-width="0.5" fill="#aaffff" cx="421.0" cy="1099.0" r="1.0"/>
     <text stroke="none" x="421.0" y="1099.0" font-size="20.0" font-family="helvetica">Saccharothrix syringae NRRL B-164687 (AF114812)</text>
    </g>
    <g>
     <circle stroke="black" stroke-width="0.5" fill="#aaffff" cx="422.0" cy="187.0" r="1.0"/>
     <text stroke="none" x="422.0" y="187.0" font-size="10.0" font-family="helvetica">NT1.37</text>
    </g>
    <g>
     <circle stroke="black" stroke-width="0.5" fill="#aaffff" cx="426.0" cy="838.0" r="1.0"/>
     <text stroke="none" x="426.0" y="838.0" font-size="10.0" font-family="helvetica">NT1.38</text>
    </g>
    <g>
     <circle stroke="black" stroke-width="0.5" fill="#aaffff" cx="433.0" cy="810.0" r="1.0"/>
     <text stroke="none" x="433.0" y="810.0" font-size="10.0" font-family="helvetica">NT1.39</text>
    </g>
    <g>
     <circle stroke="black" stroke-width="0.5" fill="#aaffff" cx="438.0" cy="925.0" r="1.0"/>
     <text stroke="none" x="438.0" y="925.0" font-size="10.0" font-family="helvetica">NT1.40</text>
    </g>
    <g>
     <circle stroke="black" stroke-width="0.5" fill="#aaffff" cx="448.0" cy="144.0" r="1.0"/>
     <text stroke="none" x="448.0" y="144.0" font-size="10.0" font-family="helvetica">NT1.41</text>
    </g>
    <g>
     <circle stroke="black" stroke-width="0.5" fill="#aaffff" cx="469.0" cy="1561.0" r="1.0"/>
     <text stroke="none" x="469.0" y="1561.0" font-size="10.0" font-family="helvetica">NT1.42</text>
    </g>
    <g>
     <circle stroke="black" stroke-width="0.5" fill="#aaffff" cx="471.0" cy="867.0" r="1.0"/>
     <text stroke="none" x="471.0" y="867.0" font-size="10.0" font-family="helvetica">NT1.43</text>
    </g>
    <g>
     <circle stroke="black" stroke-width="0.5" fill="#aaffff" cx="485.0" cy="982.0" r="1.0"/>
     <text stroke="none" x="485.0" y="982.0" font-size="20.0" font-family="helvetica">Saccharothrix texasensis NRRL B-161347 (AF114814)</text>
    </g>
    <g>
     <circle stroke="black" stroke-width="0.5" fill="#aaffff" cx="511.0" cy="1677.0" r="1.0"/>
     <text stroke="none" x="511.0" y="1677.0" font-size="20.0" font-family="helvetica">Actinokineospora riparia NRRL B-164327 (AF114802)</text>
    </g>
    <g>
     <circle stroke="black" stroke-width="0.5" fill="#aaffff" cx="513.0" cy="116.0" r="1.0"/>
     <text stroke="none" x="513.0" y="116.0" font-size="10.0" font-family="helvetica">NT1.46</text>
    </g>
    <g>
     <circle stroke="black" stroke-width="0.5" fill="#aaffff" cx="551.0" cy="1388.0" r="1.0"/>
     <text stroke="none" x="551.0" y="1388.0" font-size="10.0" font-family="helvetica">NT1.47</text>
    </g>
    <g>
     <circle stroke="black" stroke-width="0.5" fill="#aaffff" cx="556.0" cy="636.0" r="1.0"/>
     <text stroke="none" x="556.0" y="636.0" font-size="10.0" font-family="helvetica">NT1.48</text>
    </g>
    <g>
     <circle stroke="black" stroke-width="0.5" fill="#aaffff" cx="585.0" cy="1619.0" r="1.0"/>
     <text stroke="none" x="585.0" y="1619.0" font-size="10.0" font-family="helvetica">NT1.49</text>
    </g>
    <g>
     <circle stroke="black" stroke-width="0.5" fill="#aaffff" cx="602.0" cy="173.0" r="1.0"/>
     <text stroke="none" x="602.0" y="173.0" font-size="10.0" font-family="helvetica">NT1.50</text>
    </g>
    <g>
     <circle stroke="black" stroke-width="0.5" fill="#aaffff" cx="610.0" cy="289.0" r="1.0"/>
     <text stroke="none" x="610.0" y="289.0" font-size="20.0" font-family="helvetica">Lenlzea californiensis NRRL B-161377 (AF174435)</text>
    </g>
    <g>
     <circle stroke="black" stroke-width="0.5" fill="#aaffff" cx="633.0" cy="231.0" r="1.0"/>
     <text stroke="none" x="633.0" y="231.0" font-size="10.0" font-family="helvetica">NT1.52</text>
    </g>
    <g>
     <circle stroke="black" stroke-width="0.5" fill="#aaffff" cx="642.0" cy="1445.0" r="1.0"/>
     <text stroke="none" x="642.0" y="1445.0" font-size="20.0" font-family="helvetica">Crossiella cryophila NRRL B-162387 (AF114806)</text>
    </g>
    <g>
     <circle stroke="black" stroke-width="0.5" fill="#aaffff" cx="656.0" cy="1214.0" r="1.0"/>
     <text stroke="none" x="656.0" y="1214.0" font-size="10.0" font-family="helvetica">NT1.54</text>
    </g>
    <g>
     <circle stroke="black" stroke-width="0.5" fill="#aaffff" cx="73.0" cy="1264.0" r="1.0"/>
     <text stroke="none" x="73.0" y="1264.0" font-size="10.0" font-family="helvetica">NT1.55</text>
    </g>
    <line stroke="black" x1="402.0" y1="346.0" x2="298.0" y2="294.0" stroke-width="0.5"/>
    <line stroke="black" x1="610.0" y1="289.0" x2="348.0" y2="240.0" stroke-width="0.5"/>
    <line stroke="black" x1="313.0" y1="693.0" x2="235.0" y2="664.0" stroke-width="0.5"/>
    <line stroke="black" x1="324.0" y1="752.0" x2="149.0" y2="892.0" stroke-width="0.5"/>
    <line stroke="black" x1="345.0" y1="1272.0" x2="342.0" y2="1243.0" stroke-width="0.5"/>
    <line stroke="black" x1="420.0" y1="1040.0" x2="323.0" y2="1069.0" stroke-width="0.5"/>
    <line stroke="black" x1="421.0" y1="1099.0" x2="323.0" y2="1069.0" stroke-width="0.5"/>
    <line stroke="black" x1="415.0" y1="1157.0" x2="287.0" y2="1199.0" stroke-width="0.5"/>
    <line stroke="black" x1="485.0" y1="982.0" x2="283.0" y2="934.0" stroke-width="0.5"/>
    <line stroke="black" x1="420.0" y1="1330.0" x2="77.0" y2="1026.0" stroke-width="0.5"/>
    <line stroke="black" x1="511.0" y1="1677.0" x2="330.0" y2="1647.0" stroke-width="0.5"/>
    <line stroke="black" x1="642.0" y1="1445.0" x2="204.0" y2="1417.0" stroke-width="0.5"/>
    <line stroke="black" x1="298.0" y1="294.0" x2="279.0" y2="350.0" stroke-width="0.5"/>
    <line stroke="black" x1="154.0" y1="546.0" x2="111.0" y2="720.0" stroke-width="0.5"/>
    <line stroke="black" x1="111.0" y1="720.0" x2="77.0" y2="1026.0" stroke-width="0.5"/>
    <line stroke="black" x1="111.0" y1="720.0" x2="149.0" y2="892.0" stroke-width="0.5"/>
    <line stroke="black" x1="149.0" y1="892.0" x2="249.0" y2="1034.0" stroke-width="0.5"/>
    <line stroke="black" x1="249.0" y1="1034.0" x2="267.0" y2="1135.0" stroke-width="0.5"/>
    <line stroke="black" x1="267.0" y1="1135.0" x2="287.0" y2="1199.0" stroke-width="0.5"/>
    <line stroke="black" x1="267.0" y1="1135.0" x2="323.0" y2="1069.0" stroke-width="0.5"/>
    <line stroke="black" x1="73.0" y1="1264.0" x2="77.0" y2="1503.0" stroke-width="0.5"/>
    <line stroke="black" x1="77.0" y1="1026.0" x2="73.0" y2="1264.0" stroke-width="0.5"/>
   </g>
  </g>
 </svg>
</svg>
