<?xml version="1.0" encoding="UTF-8"?>
<svg height="800.0" width="700.0" xmlns="http://www.w3.org/2000/svg">
 <svg>
  <g>
   <g>
    <g>
     <circle stroke="black" stroke-width="0.5" fill="#aaffff" cx="77.0" cy="312.0" r="1.0"/>
     <text stroke="none" x="77.0" y="312.0" font-size="10.0" font-family="helvetica">NT1.1</text>
    </g>
    <g>
     <circle stroke="black" stroke-width="0.5" fill="#aaffff" cx="99.0" cy="240.0" r="1.0"/>
     <text stroke="none" x="99.0" y="240.0" font-size="10.0" font-family="helvetica">NT1.2</text>
    </g>
    <g>
     <circle stroke="black" stroke-width="0.5" fill="#aaffff" cx="153.0" cy="185.0" r="1.0"/>
     <text stroke="none" x="153.0" y="185.0" font-size="10.0" font-family="helvetica">NT1.3</text>
    </g>
    <g>
     <circle stroke="black" stroke-width="0.5" fill="#aaffff" cx="173.0" cy="532.0" r="1.0"/>
     <text stroke="none" x="173.0" y="532.0" font-size="20.0" font-family="helvetica"/>
    </g>
    <g>
     <circle stroke="black" stroke-width="0.5" fill="#aaffff" cx="191.0" cy="382.0" r="1.0"/>
     <text stroke="none" x="191.0" y="382.0" font-size="10.0" font-family="helvetica">NT1.5</text>
    </g>
    <g>
     <circle stroke="black" stroke-width="0.5" fill="#aaffff" cx="197.0" cy="123.0" r="1.0"/>
     <text stroke="none" x="197.0" y="123.0" font-size="10.0" font-family="helvetica">NT1.6</text>
    </g>
    <g>
     <circle stroke="black" stroke-width="0.5" fill="#aaffff" cx="207.0" cy="70.0" r="1.0"/>
     <text stroke="none" x="207.0" y="70.0" font-size="10.0" font-family="helvetica">NT1.7</text>
    </g>
    <g>
     <circle stroke="black" stroke-width="0.5" fill="#aaffff" cx="207.0" cy="174.0" r="1.0"/>
     <text stroke="none" x="207.0" y="174.0" font-size="10.0" font-family="helvetica">NT1.8</text>
    </g>
    <g>
     <circle stroke="black" stroke-width="0.5" fill="#aaffff" cx="214.0" cy="424.0" r="1.0"/>
     <text stroke="none" x="214.0" y="424.0" font-size="10.0" font-family="helvetica">NT1.9</text>
    </g>
    <g>
     <circle stroke="black" stroke-width="0.5" fill="#aaffff" cx="228.0" cy="33.0" r="1.0"/>
     <text stroke="none" x="228.0" y="33.0" font-size="10.0" font-family="helvetica">NT1.10</text>
    </g>
    <g>
     <circle stroke="black" stroke-width="0.5" fill="#aaffff" cx="254.0" cy="459.0" r="1.0"/>
     <text stroke="none" x="254.0" y="459.0" font-size="10.0" font-family="helvetica">NT1.11</text>
    </g>
    <g>
     <circle stroke="black" stroke-width="0.5" fill="#aaffff" cx="255.0" cy="484.0" r="1.0"/>
     <text stroke="none" x="255.0" y="484.0" font-size="20.0" font-family="helvetica"/>
    </g>
    <g>
     <circle stroke="black" stroke-width="0.5" fill="#aaffff" cx="266.0" cy="437.0" r="1.0"/>
     <text stroke="none" x="266.0" y="437.0" font-size="20.0" font-family="helvetica"/>
    </g>
    <g>
     <circle stroke="black" stroke-width="0.5" fill="#aaffff" cx="269.0" cy="389.0" r="1.0"/>
     <text stroke="none" x="269.0" y="389.0" font-size="20.0" font-family="helvetica"/>
    </g>
    <g>
     <circle stroke="black" stroke-width="0.5" fill="#aaffff" cx="285.0" cy="9.0" r="1.0"/>
     <text stroke="none" x="285.0" y="9.0" font-size="20.0" font-family="helvetica"/>
    </g>
    <g>
     <circle stroke="black" stroke-width="0.5" fill="#aaffff" cx="289.0" cy="247.0" r="1.0"/>
     <text stroke="none" x="289.0" y="247.0" font-size="20.0" font-family="helvetica"/>
    </g>
    <g>
     <circle stroke="black" stroke-width="0.5" fill="#aaffff" cx="307.0" cy="57.0" r="1.0"/>
     <text stroke="none" x="307.0" y="57.0" font-size="20.0" font-family="helvetica"/>
    </g>
    <g>
     <circle stroke="black" stroke-width="0.5" fill="#aaffff" cx="308.0" cy="151.0" r="1.0"/>
     <text stroke="none" x="308.0" y="151.0" font-size="20.0" font-family="helvetica"/>
    </g>
    <g>
     <circle stroke="black" stroke-width="0.5" fill="#aaffff" cx="308.0" cy="342.0" r="1.0"/>
     <text stroke="none" x="308.0" y="342.0" font-size="20.0" font-family="helvetica"/>
    </g>
    <g>
     <circle stroke="black" stroke-width="0.5" fill="#aaffff" cx="357.0" cy="200.0" r="1.0"/>
     <text stroke="none" x="357.0" y="200.0" font-size="20.0" font-family="helvetica"/>
    </g>
    <g>
     <circle stroke="black" stroke-width="0.5" fill="#aaffff" cx="363.0" cy="104.0" r="1.0"/>
     <text stroke="none" x="363.0" y="104.0" font-size="20.0" font-family="helvetica"/>
    </g>
    <g>
     <circle stroke="black" stroke-width="0.5" fill="#aaffff" cx="389.0" cy="295.0" r="1.0"/>
     <text stroke="none" x="389.0" y="295.0" font-size="20.0" font-family="helvetica"/>
    </g>
    <line stroke="black" x1="285.0" y1="9.0" x2="228.0" y2="33.0" stroke-width="0.5"/>
    <line stroke="black" x1="307.0" y1="57.0" x2="228.0" y2="33.0" stroke-width="0.5"/>
    <line stroke="black" x1="363.0" y1="104.0" x2="207.0" y2="70.0" stroke-width="0.5"/>
    <line stroke="black" x1="308.0" y1="151.0" x2="207.0" y2="174.0" stroke-width="0.5"/>
    <line stroke="black" x1="357.0" y1="200.0" x2="207.0" y2="174.0" stroke-width="0.5"/>
    <line stroke="black" x1="289.0" y1="247.0" x2="153.0" y2="185.0" stroke-width="0.5"/>
    <line stroke="black" x1="389.0" y1="295.0" x2="99.0" y2="240.0" stroke-width="0.5"/>
    <line stroke="black" x1="269.0" y1="389.0" x2="214.0" y2="424.0" stroke-width="0.5"/>
    <line stroke="black" x1="255.0" y1="484.0" x2="254.0" y2="459.0" stroke-width="0.5"/>
    <line stroke="black" x1="308.0" y1="342.0" x2="191.0" y2="382.0" stroke-width="0.5"/>
    <line stroke="black" x1="228.0" y1="33.0" x2="207.0" y2="70.0" stroke-width="0.5"/>
    <line stroke="black" x1="207.0" y1="70.0" x2="197.0" y2="123.0" stroke-width="0.5"/>
    <line stroke="black" x1="197.0" y1="123.0" x2="153.0" y2="185.0" stroke-width="0.5"/>
    <line stroke="black" x1="197.0" y1="123.0" x2="207.0" y2="174.0" stroke-width="0.5"/>
    <line stroke="black" x1="153.0" y1="185.0" x2="99.0" y2="240.0" stroke-width="0.5"/>
    <line stroke="black" x1="99.0" y1="240.0" x2="77.0" y2="312.0" stroke-width="0.5"/>
    <line stroke="black" x1="77.0" y1="312.0" x2="191.0" y2="382.0" stroke-width="0.5"/>
    <line stroke="black" x1="191.0" y1="382.0" x2="214.0" y2="424.0" stroke-width="0.5"/>
    <line stroke="black" x1="214.0" y1="424.0" x2="254.0" y2="459.0" stroke-width="0.5"/>
    <line stroke="black" x1="173.0" y1="532.0" x2="77.0" y2="312.0" stroke-width="0.5"/>
    <line stroke="black" x1="266.0" y1="437.0" x2="254.0" y2="459.0" stroke-width="0.5"/>
   </g>
  </g>
 </svg>
</svg>
