<?xml version="1.0" encoding="UTF-8"?>
<svg height="800.0" width="700.0" xmlns="http://www.w3.org/2000/svg">
 <svg>
  <g>
   <g>
    <g>
     <circle stroke="black" stroke-width="0.5" fill="#aaffff" cx="5.0" cy="967.0" r="1.0"/>
     <text stroke="none" x="5.0" y="967.0" font-size="20.0" font-family="helvetica"/>
    </g>
    <g>
     <circle stroke="black" stroke-width="0.5" fill="#aaffff" cx="11.0" cy="967.0" r="1.0"/>
     <text stroke="none" x="11.0" y="967.0" font-size="10.0" font-family="helvetica">NT1.2</text>
    </g>
    <g>
     <circle stroke="black" stroke-width="0.5" fill="#aaffff" cx="193.0" cy="1227.0" r="1.0"/>
     <text stroke="none" x="193.0" y="1227.0" font-size="10.0" font-family="helvetica">NT1.3</text>
    </g>
    <g>
     <circle stroke="black" stroke-width="0.5" fill="#aaffff" cx="193.0" cy="1224.0" r="1.0"/>
     <text stroke="none" x="193.0" y="1224.0" font-size="10.0" font-family="helvetica">NT1.4</text>
    </g>
    <g>
     <circle stroke="black" stroke-width="0.5" fill="#aaffff" cx="292.0" cy="842.0" r="1.0"/>
     <text stroke="none" x="292.0" y="842.0" font-size="10.0" font-family="helvetica">NT1.5</text>
    </g>
    <g>
     <circle stroke="black" stroke-width="0.5" fill="#aaffff" cx="318.0" cy="541.0" r="1.0"/>
     <text stroke="none" x="318.0" y="541.0" font-size="10.0" font-family="helvetica">NT1.6</text>
    </g>
    <g>
     <circle stroke="black" stroke-width="0.5" fill="#aaffff" cx="339.0" cy="254.0" r="1.0"/>
     <text stroke="none" x="339.0" y="254.0" font-size="20.0" font-family="helvetica">602</text>
    </g>
    <g>
     <circle stroke="black" stroke-width="0.5" fill="#aaffff" cx="344.0" cy="820.0" r="1.0"/>
     <text stroke="none" x="344.0" y="820.0" font-size="10.0" font-family="helvetica">NT1.8</text>
    </g>
    <g>
     <circle stroke="black" stroke-width="0.5" fill="#aaffff" cx="351.0" cy="96.0" r="1.0"/>
     <text stroke="none" x="351.0" y="96.0" font-size="20.0" font-family="helvetica">591</text>
    </g>
    <g>
     <circle stroke="black" stroke-width="0.5" fill="#aaffff" cx="363.0" cy="975.0" r="1.0"/>
     <text stroke="none" x="363.0" y="975.0" font-size="10.0" font-family="helvetica">NT1.10</text>
    </g>
    <g>
     <circle stroke="black" stroke-width="0.5" fill="#aaffff" cx="382.0" cy="1142.0" r="1.0"/>
     <text stroke="none" x="382.0" y="1142.0" font-size="10.0" font-family="helvetica">NT1.11</text>
    </g>
    <g>
     <circle stroke="black" stroke-width="0.5" fill="#aaffff" cx="383.0" cy="1140.0" r="1.0"/>
     <text stroke="none" x="383.0" y="1140.0" font-size="10.0" font-family="helvetica">NT1.12</text>
    </g>
    <g>
     <circle stroke="black" stroke-width="0.5" fill="#aaffff" cx="392.0" cy="843.0" r="1.0"/>
     <text stroke="none" x="392.0" y="843.0" font-size="10.0" font-family="helvetica">NT1.13</text>
    </g>
    <g>
     <circle stroke="black" stroke-width="0.5" fill="#aaffff" cx="418.0" cy="969.0" r="1.0"/>
     <text stroke="none" x="418.0" y="969.0" font-size="10.0" font-family="helvetica">NT1.14</text>
    </g>
    <g>
     <circle stroke="black" stroke-width="0.5" fill="#aaffff" cx="429.0" cy="1056.0" r="1.0"/>
     <text stroke="none" x="429.0" y="1056.0" font-size="10.0" font-family="helvetica">NT1.15</text>
    </g>
    <g>
     <circle stroke="black" stroke-width="0.5" fill="#aaffff" cx="429.0" cy="1053.0" r="1.0"/>
     <text stroke="none" x="429.0" y="1053.0" font-size="10.0" font-family="helvetica">NT1.16</text>
    </g>
    <g>
     <circle stroke="black" stroke-width="0.5" fill="#aaffff" cx="431.0" cy="23.0" r="1.0"/>
     <text stroke="none" x="431.0" y="23.0" font-size="10.0" font-family="helvetica">NT1.17</text>
    </g>
    <g>
     <circle stroke="black" stroke-width="0.5" fill="#aaffff" cx="431.0" cy="26.0" r="1.0"/>
     <text stroke="none" x="431.0" y="26.0" font-size="10.0" font-family="helvetica">NT1.18</text>
    </g>
    <g>
     <circle stroke="black" stroke-width="0.5" fill="#aaffff" cx="452.0" cy="153.0" r="1.0"/>
     <text stroke="none" x="452.0" y="153.0" font-size="10.0" font-family="helvetica">NT1.19</text>
    </g>
    <g>
     <circle stroke="black" stroke-width="0.5" fill="#aaffff" cx="468.0" cy="885.0" r="1.0"/>
     <text stroke="none" x="468.0" y="885.0" font-size="10.0" font-family="helvetica">NT1.20</text>
    </g>
    <g>
     <circle stroke="black" stroke-width="0.5" fill="#aaffff" cx="468.0" cy="882.0" r="1.0"/>
     <text stroke="none" x="468.0" y="882.0" font-size="10.0" font-family="helvetica">NT1.21</text>
    </g>
    <g>
     <circle stroke="black" stroke-width="0.5" fill="#aaffff" cx="475.0" cy="794.0" r="1.0"/>
     <text stroke="none" x="475.0" y="794.0" font-size="10.0" font-family="helvetica">NT1.22</text>
    </g>
    <g>
     <circle stroke="black" stroke-width="0.5" fill="#aaffff" cx="475.0" cy="796.0" r="1.0"/>
     <text stroke="none" x="475.0" y="796.0" font-size="10.0" font-family="helvetica">NT1.23</text>
    </g>
    <g>
     <circle stroke="black" stroke-width="0.5" fill="#aaffff" cx="477.0" cy="409.0" r="1.0"/>
     <text stroke="none" x="477.0" y="409.0" font-size="10.0" font-family="helvetica">NT1.24</text>
    </g>
    <g>
     <circle stroke="black" stroke-width="0.5" fill="#aaffff" cx="489.0" cy="110.0" r="1.0"/>
     <text stroke="none" x="489.0" y="110.0" font-size="10.0" font-family="helvetica">NT1.25</text>
    </g>
    <g>
     <circle stroke="black" stroke-width="0.5" fill="#aaffff" cx="489.0" cy="113.0" r="1.0"/>
     <text stroke="none" x="489.0" y="113.0" font-size="10.0" font-family="helvetica">NT1.26</text>
    </g>
    <g>
     <circle stroke="black" stroke-width="0.5" fill="#aaffff" cx="502.0" cy="495.0" r="1.0"/>
     <text stroke="none" x="502.0" y="495.0" font-size="10.0" font-family="helvetica">NT1.27</text>
    </g>
    <g>
     <circle stroke="black" stroke-width="0.5" fill="#aaffff" cx="516.0" cy="27.0" r="1.0"/>
     <text stroke="none" x="516.0" y="27.0" font-size="20.0" font-family="helvetica">Desulfofaba fastidiosa DSM 15249T (AY268891)</text>
    </g>
    <g>
     <circle stroke="black" stroke-width="0.5" fill="#aaffff" cx="519.0" cy="331.0" r="1.0"/>
     <text stroke="none" x="519.0" y="331.0" font-size="10.0" font-family="helvetica">NT1.29</text>
    </g>
    <g>
     <circle stroke="black" stroke-width="0.5" fill="#aaffff" cx="524.0" cy="201.0" r="1.0"/>
     <text stroke="none" x="524.0" y="201.0" font-size="10.0" font-family="helvetica">NT1.30</text>
    </g>
    <g>
     <circle stroke="black" stroke-width="0.5" fill="#aaffff" cx="524.0" cy="199.0" r="1.0"/>
     <text stroke="none" x="524.0" y="199.0" font-size="10.0" font-family="helvetica">NT1.31</text>
    </g>
    <g>
     <circle stroke="black" stroke-width="0.5" fill="#aaffff" cx="525.0" cy="543.0" r="1.0"/>
     <text stroke="none" x="525.0" y="543.0" font-size="20.0" font-family="helvetica">Delta proteobacterium LacK5 (AY771930)</text>
    </g>
    <g>
     <circle stroke="black" stroke-width="0.5" fill="#aaffff" cx="525.0" cy="541.0" r="1.0"/>
     <text stroke="none" x="525.0" y="541.0" font-size="10.0" font-family="helvetica">NT1.33</text>
    </g>
    <g>
     <circle stroke="black" stroke-width="0.5" fill="#aaffff" cx="533.0" cy="673.0" r="1.0"/>
     <text stroke="none" x="533.0" y="673.0" font-size="10.0" font-family="helvetica">NT1.34</text>
    </g>
    <g>
     <circle stroke="black" stroke-width="0.5" fill="#aaffff" cx="536.0" cy="714.0" r="1.0"/>
     <text stroke="none" x="536.0" y="714.0" font-size="20.0" font-family="helvetica">Desulfatibacillum aliphaticivorans CV2803T (AY184360)</text>
    </g>
    <g>
     <circle stroke="black" stroke-width="0.5" fill="#aaffff" cx="536.0" cy="712.0" r="1.0"/>
     <text stroke="none" x="536.0" y="712.0" font-size="10.0" font-family="helvetica">NT1.36</text>
    </g>
    <g>
     <circle stroke="black" stroke-width="0.5" fill="#aaffff" cx="538.0" cy="623.0" r="1.0"/>
     <text stroke="none" x="538.0" y="623.0" font-size="20.0" font-family="helvetica">Desulfatibacillum alkenivorans PF2803T (AY493562)</text>
    </g>
    <g>
     <circle stroke="black" stroke-width="0.5" fill="#aaffff" cx="538.0" cy="625.0" r="1.0"/>
     <text stroke="none" x="538.0" y="625.0" font-size="10.0" font-family="helvetica">NT1.38</text>
    </g>
    <g>
     <circle stroke="black" stroke-width="0.5" fill="#aaffff" cx="543.0" cy="372.0" r="1.0"/>
     <text stroke="none" x="543.0" y="372.0" font-size="10.0" font-family="helvetica">NT1.39</text>
    </g>
    <g>
     <circle stroke="black" stroke-width="0.5" fill="#aaffff" cx="543.0" cy="368.0" r="1.0"/>
     <text stroke="none" x="543.0" y="368.0" font-size="10.0" font-family="helvetica">NT1.40</text>
    </g>
    <g>
     <circle stroke="black" stroke-width="0.5" fill="#aaffff" cx="544.0" cy="711.0" r="1.0"/>
     <text stroke="none" x="544.0" y="711.0" font-size="20.0" font-family="helvetica">Desulfatibacillum aliphaticivorans CV2803T (AY184360)</text>
    </g>
    <g>
     <circle stroke="black" stroke-width="0.5" fill="#aaffff" cx="547.0" cy="626.0" r="1.0"/>
     <text stroke="none" x="547.0" y="626.0" font-size="20.0" font-family="helvetica">Desulfatibacillum alkenivorans PF2803T (AY493562)</text>
    </g>
    <g>
     <circle stroke="black" stroke-width="0.5" fill="#aaffff" cx="549.0" cy="881.0" r="1.0"/>
     <text stroke="none" x="549.0" y="881.0" font-size="20.0" font-family="helvetica">Desulfonema magnum DSM 2o77T (U45989)</text>
    </g>
    <g>
     <circle stroke="black" stroke-width="0.5" fill="#aaffff" cx="553.0" cy="540.0" r="1.0"/>
     <text stroke="none" x="553.0" y="540.0" font-size="20.0" font-family="helvetica">Delta proteobacterium LacK5 (AY771930)</text>
    </g>
    <g>
     <circle stroke="black" stroke-width="0.5" fill="#aaffff" cx="561.0" cy="797.0" r="1.0"/>
     <text stroke="none" x="561.0" y="797.0" font-size="20.0" font-family="helvetica">Desulfococcus multivorans DSM 2059T (AF418173)</text>
    </g>
    <g>
     <circle stroke="black" stroke-width="0.5" fill="#aaffff" cx="563.0" cy="452.0" r="1.0"/>
     <text stroke="none" x="563.0" y="452.0" font-size="10.0" font-family="helvetica">NT1.46</text>
    </g>
    <g>
     <circle stroke="black" stroke-width="0.5" fill="#aaffff" cx="563.0" cy="454.0" r="1.0"/>
     <text stroke="none" x="563.0" y="454.0" font-size="10.0" font-family="helvetica">NT1.47</text>
    </g>
    <g>
     <circle stroke="black" stroke-width="0.5" fill="#aaffff" cx="565.0" cy="968.0" r="1.0"/>
     <text stroke="none" x="565.0" y="968.0" font-size="20.0" font-family="helvetica">Desulfosarcina cetonica DSM 72677 (AJ237603)</text>
    </g>
    <g>
     <circle stroke="black" stroke-width="0.5" fill="#aaffff" cx="568.0" cy="1224.0" r="1.0"/>
     <text stroke="none" x="568.0" y="1224.0" font-size="10.0" font-family="helvetica">NT1.49</text>
    </g>
    <g>
     <circle stroke="black" stroke-width="0.5" fill="#aaffff" cx="570.0" cy="1053.0" r="1.0"/>
     <text stroke="none" x="570.0" y="1053.0" font-size="20.0" font-family="helvetica">Desulfobacterium indolicum DSM 3383T (AJ237607)</text>
    </g>
    <g>
     <circle stroke="black" stroke-width="0.5" fill="#aaffff" cx="572.0" cy="1140.0" r="1.0"/>
     <text stroke="none" x="572.0" y="1140.0" font-size="20.0" font-family="helvetica">Desulforegula consenxatrix DSM 13527T (AF243334)</text>
    </g>
    <g>
     <circle stroke="black" stroke-width="0.5" fill="#aaffff" cx="575.0" cy="113.0" r="1.0"/>
     <text stroke="none" x="575.0" y="113.0" font-size="20.0" font-family="helvetica">Desulfofaba gelida PSv29T (AF099063)</text>
    </g>
    <g>
     <circle stroke="black" stroke-width="0.5" fill="#aaffff" cx="601.0" cy="198.0" r="1.0"/>
     <text stroke="none" x="601.0" y="198.0" font-size="20.0" font-family="helvetica">Desulfofaba hansenii DSM 12642T (AF321820)</text>
    </g>
    <g>
     <circle stroke="black" stroke-width="0.5" fill="#aaffff" cx="601.0" cy="368.0" r="1.0"/>
     <text stroke="none" x="601.0" y="368.0" font-size="20.0" font-family="helvetica">Desulfofrigus oceanense ASv26T (AF099064)</text>
    </g>
    <g>
     <circle stroke="black" stroke-width="0.5" fill="#aaffff" cx="611.0" cy="284.0" r="1.0"/>
     <text stroke="none" x="611.0" y="284.0" font-size="20.0" font-family="helvetica">Desulfofrigus fragile LSv21T (AF099065)</text>
    </g>
    <g>
     <circle stroke="black" stroke-width="0.5" fill="#aaffff" cx="628.0" cy="455.0" r="1.0"/>
     <text stroke="none" x="628.0" y="455.0" font-size="20.0" font-family="helvetica">Desulfoluna butyratoxydans MSL71T (AB110540)</text>
    </g>
    <line stroke="black" x1="516.0" y1="27.0" x2="431.0" y2="26.0" stroke-width="0.5"/>
    <line stroke="black" x1="575.0" y1="113.0" x2="489.0" y2="113.0" stroke-width="0.5"/>
    <line stroke="black" x1="601.0" y1="198.0" x2="524.0" y2="199.0" stroke-width="0.5"/>
    <line stroke="black" x1="525.0" y1="543.0" x2="525.0" y2="541.0" stroke-width="0.5"/>
    <line stroke="black" x1="553.0" y1="540.0" x2="525.0" y2="541.0" stroke-width="0.5"/>
    <line stroke="black" x1="601.0" y1="368.0" x2="543.0" y2="368.0" stroke-width="0.5"/>
    <line stroke="black" x1="628.0" y1="455.0" x2="563.0" y2="454.0" stroke-width="0.5"/>
    <line stroke="black" x1="565.0" y1="968.0" x2="418.0" y2="969.0" stroke-width="0.5"/>
    <line stroke="black" x1="536.0" y1="714.0" x2="536.0" y2="712.0" stroke-width="0.5"/>
    <line stroke="black" x1="538.0" y1="625.0" x2="538.0" y2="623.0" stroke-width="0.5"/>
    <line stroke="black" x1="544.0" y1="711.0" x2="536.0" y2="712.0" stroke-width="0.5"/>
    <line stroke="black" x1="547.0" y1="626.0" x2="538.0" y2="625.0" stroke-width="0.5"/>
    <line stroke="black" x1="570.0" y1="1053.0" x2="429.0" y2="1053.0" stroke-width="0.5"/>
    <line stroke="black" x1="549.0" y1="881.0" x2="468.0" y2="882.0" stroke-width="0.5"/>
    <line stroke="black" x1="561.0" y1="797.0" x2="475.0" y2="796.0" stroke-width="0.5"/>
    <line stroke="black" x1="572.0" y1="1140.0" x2="383.0" y2="1140.0" stroke-width="0.5"/>
    <line stroke="black" x1="351.0" y1="96.0" x2="339.0" y2="254.0" stroke-width="0.5"/>
    <line stroke="black" x1="351.0" y1="96.0" x2="452.0" y2="153.0" stroke-width="0.5"/>
    <line stroke="black" x1="339.0" y1="254.0" x2="318.0" y2="541.0" stroke-width="0.5"/>
    <line stroke="black" x1="339.0" y1="254.0" x2="477.0" y2="409.0" stroke-width="0.5"/>
    <line stroke="black" x1="477.0" y1="409.0" x2="502.0" y2="495.0" stroke-width="0.5"/>
    <line stroke="black" x1="477.0" y1="409.0" x2="519.0" y2="331.0" stroke-width="0.5"/>
    <line stroke="black" x1="318.0" y1="541.0" x2="292.0" y2="842.0" stroke-width="0.5"/>
    <line stroke="black" x1="318.0" y1="541.0" x2="344.0" y2="820.0" stroke-width="0.5"/>
    <line stroke="black" x1="502.0" y1="495.0" x2="525.0" y2="541.0" stroke-width="0.5"/>
    <line stroke="black" x1="344.0" y1="820.0" x2="363.0" y2="975.0" stroke-width="0.5"/>
    <line stroke="black" x1="344.0" y1="820.0" x2="533.0" y2="673.0" stroke-width="0.5"/>
    <line stroke="black" x1="292.0" y1="842.0" x2="11.0" y2="967.0" stroke-width="0.5"/>
    <line stroke="black" x1="363.0" y1="975.0" x2="418.0" y2="969.0" stroke-width="0.5"/>
    <line stroke="black" x1="418.0" y1="969.0" x2="392.0" y2="843.0" stroke-width="0.5"/>
    <line stroke="black" x1="533.0" y1="673.0" x2="536.0" y2="712.0" stroke-width="0.5"/>
    <line stroke="black" x1="533.0" y1="673.0" x2="538.0" y2="625.0" stroke-width="0.5"/>
    <line stroke="black" x1="611.0" y1="284.0" x2="519.0" y2="331.0" stroke-width="0.5"/>
   </g>
  </g>
 </svg>
</svg>
