<?xml version="1.0" encoding="UTF-8"?>
<svg height="800.0" width="700.0" xmlns="http://www.w3.org/2000/svg">
 <svg>
  <g>
   <g>
    <g>
     <circle stroke="black" stroke-width="0.5" fill="#aaffff" cx="10.0" cy="618.0" r="1.0"/>
     <text stroke="none" x="10.0" y="618.0" font-size="10.0" font-family="helvetica">NT1.1</text>
    </g>
    <g>
     <circle stroke="black" stroke-width="0.5" fill="#aaffff" cx="88.0" cy="507.0" r="1.0"/>
     <text stroke="none" x="88.0" y="507.0" font-size="10.0" font-family="helvetica">NT1.2</text>
    </g>
    <g>
     <circle stroke="black" stroke-width="0.5" fill="#aaffff" cx="173.0" cy="424.0" r="1.0"/>
     <text stroke="none" x="173.0" y="424.0" font-size="10.0" font-family="helvetica">NT1.3</text>
    </g>
    <g>
     <circle stroke="black" stroke-width="0.5" fill="#aaffff" cx="443.0" cy="299.0" r="1.0"/>
     <text stroke="none" x="443.0" y="299.0" font-size="10.0" font-family="helvetica">NT1.4</text>
    </g>
    <g>
     <circle stroke="black" stroke-width="0.5" fill="#aaffff" cx="459.0" cy="188.0" r="1.0"/>
     <text stroke="none" x="459.0" y="188.0" font-size="10.0" font-family="helvetica">NT1.5</text>
    </g>
    <g>
     <circle stroke="black" stroke-width="0.5" fill="#aaffff" cx="462.0" cy="126.0" r="1.0"/>
     <text stroke="none" x="462.0" y="126.0" font-size="10.0" font-family="helvetica">NT1.6</text>
    </g>
    <g>
     <circle stroke="black" stroke-width="0.5" fill="#aaffff" cx="469.0" cy="249.0" r="1.0"/>
     <text stroke="none" x="469.0" y="249.0" font-size="10.0" font-family="helvetica">NT1.7</text>
    </g>
    <g>
     <circle stroke="black" stroke-width="0.5" fill="#aaffff" cx="474.0" cy="74.0" r="1.0"/>
     <text stroke="none" x="474.0" y="74.0" font-size="10.0" font-family="helvetica">NT1.8</text>
    </g>
    <g>
     <circle stroke="black" stroke-width="0.5" fill="#aaffff" cx="475.0" cy="280.0" r="1.0"/>
     <text stroke="none" x="475.0" y="280.0" font-size="20.0" font-family="helvetica">28</text>
    </g>
    <g>
     <circle stroke="black" stroke-width="0.5" fill="#aaffff" cx="476.0" cy="410.0" r="1.0"/>
     <text stroke="none" x="476.0" y="410.0" font-size="10.0" font-family="helvetica">NT1.10</text>
    </g>
    <g>
     <circle stroke="black" stroke-width="0.5" fill="#aaffff" cx="488.0" cy="115.0" r="1.0"/>
     <text stroke="none" x="488.0" y="115.0" font-size="10.0" font-family="helvetica">NT1.11</text>
    </g>
    <g>
     <circle stroke="black" stroke-width="0.5" fill="#aaffff" cx="496.0" cy="456.0" r="1.0"/>
     <text stroke="none" x="496.0" y="456.0" font-size="10.0" font-family="helvetica">NT1.12</text>
    </g>
    <g>
     <circle stroke="black" stroke-width="0.5" fill="#aaffff" cx="512.0" cy="487.0" r="1.0"/>
     <text stroke="none" x="512.0" y="487.0" font-size="20.0" font-family="helvetica">59</text>
    </g>
    <g>
     <circle stroke="black" stroke-width="0.5" fill="#aaffff" cx="515.0" cy="33.0" r="1.0"/>
     <text stroke="none" x="515.0" y="33.0" font-size="10.0" font-family="helvetica">NT1.14</text>
    </g>
    <g>
     <circle stroke="black" stroke-width="0.5" fill="#aaffff" cx="515.0" cy="364.0" r="1.0"/>
     <text stroke="none" x="515.0" y="364.0" font-size="10.0" font-family="helvetica">NT1.15</text>
    </g>
    <g>
     <circle stroke="black" stroke-width="0.5" fill="#aaffff" cx="516.0" cy="342.0" r="1.0"/>
     <text stroke="none" x="516.0" y="342.0" font-size="10.0" font-family="helvetica">NT1.16</text>
    </g>
    <g>
     <circle stroke="black" stroke-width="0.5" fill="#aaffff" cx="518.0" cy="12.0" r="1.0"/>
     <text stroke="none" x="518.0" y="12.0" font-size="10.0" font-family="helvetica">NT1.17</text>
    </g>
    <g>
     <circle stroke="black" stroke-width="0.5" fill="#aaffff" cx="518.0" cy="219.0" r="1.0"/>
     <text stroke="none" x="518.0" y="219.0" font-size="20.0" font-family="helvetica"> Kribbella flavida KACC 202487 (AY253863)</text>
    </g>
    <g>
     <circle stroke="black" stroke-width="0.5" fill="#aaffff" cx="530.0" cy="177.0" r="1.0"/>
     <text stroke="none" x="530.0" y="177.0" font-size="20.0" font-family="helvetica">Kribbella karoonensis Q41T (AY995146)</text>
    </g>
    <g>
     <circle stroke="black" stroke-width="0.5" fill="#aaffff" cx="535.0" cy="302.0" r="1.0"/>
     <text stroke="none" x="535.0" y="302.0" font-size="20.0" font-family="helvetica">Kribbella alba YIM 310757 (AY082062)</text>
    </g>
    <g>
     <circle stroke="black" stroke-width="0.5" fill="#aaffff" cx="551.0" cy="467.0" r="1.0"/>
     <text stroke="none" x="551.0" y="467.0" font-size="10.0" font-family="helvetica">NT1.21</text>
    </g>
    <g>
     <circle stroke="black" stroke-width="0.5" fill="#aaffff" cx="555.0" cy="53.0" r="1.0"/>
     <text stroke="none" x="555.0" y="53.0" font-size="20.0" font-family="helvetica"> Kribbella yunnanensis YIM 300067 (AYO82061)</text>
    </g>
    <g>
     <circle stroke="black" stroke-width="0.5" fill="#aaffff" cx="556.0" cy="383.0" r="1.0"/>
     <text stroke="none" x="556.0" y="383.0" font-size="20.0" font-family="helvetica"> Kribbella solani DSA1T (AY253862)</text>
    </g>
    <g>
     <circle stroke="black" stroke-width="0.5" fill="#aaffff" cx="566.0" cy="260.0" r="1.0"/>
     <text stroke="none" x="566.0" y="260.0" font-size="20.0" font-family="helvetica">Kribbella lupini LU14T (AJ811962)</text>
    </g>
    <g>
     <circle stroke="black" stroke-width="0.5" fill="#aaffff" cx="569.0" cy="425.0" r="1.0"/>
     <text stroke="none" x="569.0" y="425.0" font-size="10.0" font-family="helvetica">NT1.25</text>
    </g>
    <g>
     <circle stroke="black" stroke-width="0.5" fill="#aaffff" cx="582.0" cy="136.0" r="1.0"/>
     <text stroke="none" x="582.0" y="136.0" font-size="20.0" font-family="helvetica">Kribbella koreensis LM 1617 (Y09159)</text>
    </g>
    <g>
     <circle stroke="black" stroke-width="0.5" fill="#aaffff" cx="583.0" cy="94.0" r="1.0"/>
     <text stroke="none" x="583.0" y="94.0" font-size="20.0" font-family="helvetica">Kribbella antibiotica YIM 315307 (AYO82063)</text>
    </g>
    <g>
     <circle stroke="black" stroke-width="0.5" fill="#aaffff" cx="604.0" cy="508.0" r="1.0"/>
     <text stroke="none" x="604.0" y="508.0" font-size="20.0" font-family="helvetica">Kribbella jejuensis HD9T (AY253866)</text>
    </g>
    <g>
     <circle stroke="black" stroke-width="0.5" fill="#aaffff" cx="615.0" cy="549.0" r="1.0"/>
     <text stroke="none" x="615.0" y="549.0" font-size="20.0" font-family="helvetica">Aeromicrobium erythreum NRRL B-33817 (M37200)</text>
    </g>
    <g>
     <circle stroke="black" stroke-width="0.5" fill="#aaffff" cx="644.0" cy="591.0" r="1.0"/>
     <text stroke="none" x="644.0" y="591.0" font-size="20.0" font-family="helvetica">Actinopolymorpha singaporensis IM7744T (AF237815)</text>
    </g>
    <g>
     <circle stroke="black" stroke-width="0.5" fill="#aaffff" cx="711.0" cy="632.0" r="1.0"/>
     <text stroke="none" x="711.0" y="632.0" font-size="20.0" font-family="helvetica">Nocardioides albus KCTC 91867 (AFO04988)</text>
    </g>
    <g>
     <circle stroke="black" stroke-width="0.5" fill="#aaffff" cx="711.0" cy="673.0" r="1.0"/>
     <text stroke="none" x="711.0" y="673.0" font-size="20.0" font-family="helvetica">Streptosporangium roseum DSM 43O21T (X89947)</text>
    </g>
    <g>
     <circle stroke="black" stroke-width="0.5" fill="#aaffff" cx="9.0" cy="653.0" r="1.0"/>
     <text stroke="none" x="9.0" y="653.0" font-size="10.0" font-family="helvetica">NT1.33</text>
    </g>
    <line stroke="black" x1="555.0" y1="53.0" x2="515.0" y2="33.0" stroke-width="0.5"/>
    <line stroke="black" x1="582.0" y1="136.0" x2="488.0" y2="115.0" stroke-width="0.5"/>
    <line stroke="black" x1="583.0" y1="94.0" x2="488.0" y2="115.0" stroke-width="0.5"/>
    <line stroke="black" x1="518.0" y1="219.0" x2="469.0" y2="249.0" stroke-width="0.5"/>
    <line stroke="black" x1="535.0" y1="302.0" x2="475.0" y2="280.0" stroke-width="0.5"/>
    <line stroke="black" x1="566.0" y1="260.0" x2="475.0" y2="280.0" stroke-width="0.5"/>
    <line stroke="black" x1="556.0" y1="383.0" x2="515.0" y2="364.0" stroke-width="0.5"/>
    <line stroke="black" x1="604.0" y1="508.0" x2="512.0" y2="487.0" stroke-width="0.5"/>
    <line stroke="black" x1="644.0" y1="591.0" x2="88.0" y2="507.0" stroke-width="0.5"/>
    <line stroke="black" x1="711.0" y1="632.0" x2="10.0" y2="618.0" stroke-width="0.5"/>
    <line stroke="black" x1="474.0" y1="74.0" x2="462.0" y2="126.0" stroke-width="0.5"/>
    <line stroke="black" x1="474.0" y1="74.0" x2="488.0" y2="115.0" stroke-width="0.5"/>
    <line stroke="black" x1="462.0" y1="126.0" x2="459.0" y2="188.0" stroke-width="0.5"/>
    <line stroke="black" x1="459.0" y1="188.0" x2="443.0" y2="299.0" stroke-width="0.5"/>
    <line stroke="black" x1="459.0" y1="188.0" x2="469.0" y2="249.0" stroke-width="0.5"/>
    <line stroke="black" x1="469.0" y1="249.0" x2="475.0" y2="280.0" stroke-width="0.5"/>
    <line stroke="black" x1="443.0" y1="299.0" x2="173.0" y2="424.0" stroke-width="0.5"/>
    <line stroke="black" x1="443.0" y1="299.0" x2="476.0" y2="410.0" stroke-width="0.5"/>
    <line stroke="black" x1="173.0" y1="424.0" x2="88.0" y2="507.0" stroke-width="0.5"/>
    <line stroke="black" x1="88.0" y1="507.0" x2="10.0" y2="618.0" stroke-width="0.5"/>
    <line stroke="black" x1="9.0" y1="653.0" x2="711.0" y2="673.0" stroke-width="0.5"/>
    <line stroke="black" x1="9.0" y1="653.0" x2="10.0" y2="618.0" stroke-width="0.5"/>
    <line stroke="black" x1="615.0" y1="549.0" x2="173.0" y2="424.0" stroke-width="0.5"/>
    <line stroke="black" x1="530.0" y1="177.0" x2="462.0" y2="126.0" stroke-width="0.5"/>
   </g>
  </g>
 </svg>
</svg>
