<?xml version="1.0" encoding="UTF-8"?>
<svg height="800.0" width="700.0" xmlns="http://www.w3.org/2000/svg">
 <svg>
  <g>
   <g>
    <g>
     <circle stroke="black" stroke-width="0.5" fill="#aaffff" cx="12.0" cy="539.0" r="1.0"/>
     <text stroke="none" x="12.0" y="539.0" font-size="10.0" font-family="helvetica">NT1.1</text>
    </g>
    <g>
     <circle stroke="black" stroke-width="0.5" fill="#aaffff" cx="50.0" cy="439.0" r="1.0"/>
     <text stroke="none" x="50.0" y="439.0" font-size="10.0" font-family="helvetica">NT1.2</text>
    </g>
    <g>
     <circle stroke="black" stroke-width="0.5" fill="#aaffff" cx="72.0" cy="356.0" r="1.0"/>
     <text stroke="none" x="72.0" y="356.0" font-size="10.0" font-family="helvetica">NT1.3</text>
    </g>
    <g>
     <circle stroke="black" stroke-width="0.5" fill="#aaffff" cx="75.0" cy="638.0" r="1.0"/>
     <text stroke="none" x="75.0" y="638.0" font-size="20.0" font-family="helvetica">58</text>
    </g>
    <g>
     <circle stroke="black" stroke-width="0.5" fill="#aaffff" cx="90.0" cy="520.0" r="1.0"/>
     <text stroke="none" x="90.0" y="520.0" font-size="10.0" font-family="helvetica">NT1.5</text>
    </g>
    <g>
     <circle stroke="black" stroke-width="0.5" fill="#aaffff" cx="102.0" cy="266.0" r="1.0"/>
     <text stroke="none" x="102.0" y="266.0" font-size="10.0" font-family="helvetica">NT1.6</text>
    </g>
    <g>
     <circle stroke="black" stroke-width="0.5" fill="#aaffff" cx="138.0" cy="553.0" r="1.0"/>
     <text stroke="none" x="138.0" y="553.0" font-size="20.0" font-family="helvetica">66</text>
    </g>
    <g>
     <circle stroke="black" stroke-width="0.5" fill="#aaffff" cx="148.0" cy="192.0" r="1.0"/>
     <text stroke="none" x="148.0" y="192.0" font-size="20.0" font-family="helvetica">59</text>
    </g>
    <g>
     <circle stroke="black" stroke-width="0.5" fill="#aaffff" cx="176.0" cy="340.0" r="1.0"/>
     <text stroke="none" x="176.0" y="340.0" font-size="20.0" font-family="helvetica">72</text>
    </g>
    <g>
     <circle stroke="black" stroke-width="0.5" fill="#aaffff" cx="246.0" cy="382.0" r="1.0"/>
     <text stroke="none" x="246.0" y="382.0" font-size="20.0" font-family="helvetica">87</text>
    </g>
    <g>
     <circle stroke="black" stroke-width="0.5" fill="#aaffff" cx="279.0" cy="298.0" r="1.0"/>
     <text stroke="none" x="279.0" y="298.0" font-size="20.0" font-family="helvetica">93</text>
    </g>
    <g>
     <circle stroke="black" stroke-width="0.5" fill="#aaffff" cx="295.0" cy="617.0" r="1.0"/>
     <text stroke="none" x="295.0" y="617.0" font-size="10.0" font-family="helvetica">NT1.12</text>
    </g>
    <g>
     <circle stroke="black" stroke-width="0.5" fill="#aaffff" cx="296.0" cy="152.0" r="1.0"/>
     <text stroke="none" x="296.0" y="152.0" font-size="20.0" font-family="helvetica">100</text>
    </g>
    <g>
     <circle stroke="black" stroke-width="0.5" fill="#aaffff" cx="330.0" cy="112.0" r="1.0"/>
     <text stroke="none" x="330.0" y="112.0" font-size="20.0" font-family="helvetica">67</text>
    </g>
    <g>
     <circle stroke="black" stroke-width="0.5" fill="#aaffff" cx="350.0" cy="74.0" r="1.0"/>
     <text stroke="none" x="350.0" y="74.0" font-size="20.0" font-family="helvetica">50</text>
    </g>
    <g>
     <circle stroke="black" stroke-width="0.5" fill="#aaffff" cx="351.0" cy="574.0" r="1.0"/>
     <text stroke="none" x="351.0" y="574.0" font-size="20.0" font-family="helvetica">Arthrobacter cumminsii DMMZ 4457 (X93354)</text>
    </g>
    <g>
     <circle stroke="black" stroke-width="0.5" fill="#aaffff" cx="376.0" cy="42.0" r="1.0"/>
     <text stroke="none" x="376.0" y="42.0" font-size="20.0" font-family="helvetica">65</text>
    </g>
    <g>
     <circle stroke="black" stroke-width="0.5" fill="#aaffff" cx="425.0" cy="234.0" r="1.0"/>
     <text stroke="none" x="425.0" y="234.0" font-size="10.0" font-family="helvetica">NT1.18</text>
    </g>
    <g>
     <circle stroke="black" stroke-width="0.5" fill="#aaffff" cx="431.0" cy="21.0" r="1.0"/>
     <text stroke="none" x="431.0" y="21.0" font-size="10.0" font-family="helvetica">NT1.19</text>
    </g>
    <g>
     <circle stroke="black" stroke-width="0.5" fill="#aaffff" cx="440.0" cy="276.0" r="1.0"/>
     <text stroke="none" x="440.0" y="276.0" font-size="10.0" font-family="helvetica">NT1.20</text>
    </g>
    <g>
     <circle stroke="black" stroke-width="0.5" fill="#aaffff" cx="462.0" cy="148.0" r="1.0"/>
     <text stroke="none" x="462.0" y="148.0" font-size="20.0" font-family="helvetica">Micrococcus antarctious T27 (AJOO5932)</text>
    </g>
    <g>
     <circle stroke="black" stroke-width="0.5" fill="#aaffff" cx="469.0" cy="63.0" r="1.0"/>
     <text stroke="none" x="469.0" y="63.0" font-size="20.0" font-family="helvetica">Micrococcus endophyticus YIM 562387 (EU005372)</text>
    </g>
    <g>
     <circle stroke="black" stroke-width="0.5" fill="#aaffff" cx="475.0" cy="191.0" r="1.0"/>
     <text stroke="none" x="475.0" y="191.0" font-size="10.0" font-family="helvetica">NT1.23</text>
    </g>
    <g>
     <circle stroke="black" stroke-width="0.5" fill="#aaffff" cx="540.0" cy="447.0" r="1.0"/>
     <text stroke="none" x="540.0" y="447.0" font-size="10.0" font-family="helvetica">NT1.24</text>
    </g>
    <g>
     <circle stroke="black" stroke-width="0.5" fill="#aaffff" cx="581.0" cy="660.0" r="1.0"/>
     <text stroke="none" x="581.0" y="660.0" font-size="10.0" font-family="helvetica">NT1.25</text>
    </g>
    <g>
     <circle stroke="black" stroke-width="0.5" fill="#aaffff" cx="583.0" cy="533.0" r="1.0"/>
     <text stroke="none" x="583.0" y="533.0" font-size="10.0" font-family="helvetica">NT1.26</text>
    </g>
    <g>
     <circle stroke="black" stroke-width="0.5" fill="#aaffff" cx="593.0" cy="106.0" r="1.0"/>
     <text stroke="none" x="593.0" y="106.0" font-size="20.0" font-family="helvetica">Micrococcus flavus LW47 (DQ491453)</text>
    </g>
    <g>
     <circle stroke="black" stroke-width="0.5" fill="#aaffff" cx="607.0" cy="319.0" r="1.0"/>
     <text stroke="none" x="607.0" y="319.0" font-size="20.0" font-family="helvetica">Arthrobacter kerguelensis KGN157 (AJ606062)</text>
    </g>
    <g>
     <circle stroke="black" stroke-width="0.5" fill="#aaffff" cx="619.0" cy="489.0" r="1.0"/>
     <text stroke="none" x="619.0" y="489.0" font-size="20.0" font-family="helvetica">Nesterenkonia halobia DSM 205417 (X80747)</text>
    </g>
    <g>
     <circle stroke="black" stroke-width="0.5" fill="#aaffff" cx="661.0" cy="405.0" r="1.0"/>
     <text stroke="none" x="661.0" y="405.0" font-size="20.0" font-family="helvetica">Renibacterium salmoninarum ATCC 332097 (X51601)</text>
    </g>
    <g>
     <circle stroke="black" stroke-width="0.5" fill="#aaffff" cx="713.0" cy="361.0" r="1.0"/>
     <text stroke="none" x="713.0" y="361.0" font-size="10.0" font-family="helvetica">NT1.31</text>
    </g>
    <g>
     <circle stroke="black" stroke-width="0.5" fill="#aaffff" cx="713.0" cy="703.0" r="1.0"/>
     <text stroke="none" x="713.0" y="703.0" font-size="10.0" font-family="helvetica">NT1.32</text>
    </g>
    <g>
     <circle stroke="black" stroke-width="0.5" fill="#aaffff" cx="1.0" cy="621.0" r="1.0"/>
     <text stroke="none" x="1.0" y="621.0" font-size="10.0" font-family="helvetica">NT1.33</text>
    </g>
    <line stroke="black" x1="469.0" y1="63.0" x2="376.0" y2="42.0" stroke-width="0.5"/>
    <line stroke="black" x1="462.0" y1="148.0" x2="330.0" y2="112.0" stroke-width="0.5"/>
    <line stroke="black" x1="593.0" y1="106.0" x2="350.0" y2="74.0" stroke-width="0.5"/>
    <line stroke="black" x1="607.0" y1="319.0" x2="279.0" y2="298.0" stroke-width="0.5"/>
    <line stroke="black" x1="351.0" y1="574.0" x2="138.0" y2="553.0" stroke-width="0.5"/>
    <line stroke="black" x1="661.0" y1="405.0" x2="246.0" y2="382.0" stroke-width="0.5"/>
    <line stroke="black" x1="619.0" y1="489.0" x2="90.0" y2="520.0" stroke-width="0.5"/>
    <line stroke="black" x1="350.0" y1="74.0" x2="330.0" y2="112.0" stroke-width="0.5"/>
    <line stroke="black" x1="330.0" y1="112.0" x2="296.0" y2="152.0" stroke-width="0.5"/>
    <line stroke="black" x1="102.0" y1="266.0" x2="72.0" y2="356.0" stroke-width="0.5"/>
    <line stroke="black" x1="102.0" y1="266.0" x2="176.0" y2="340.0" stroke-width="0.5"/>
    <line stroke="black" x1="50.0" y1="439.0" x2="12.0" y2="539.0" stroke-width="0.5"/>
    <line stroke="black" x1="50.0" y1="439.0" x2="90.0" y2="520.0" stroke-width="0.5"/>
   </g>
  </g>
 </svg>
</svg>
