<?xml version="1.0" encoding="UTF-8"?>
<svg height="800.0" width="700.0" xmlns="http://www.w3.org/2000/svg">
 <svg>
  <g>
   <g>
    <g>
     <circle stroke="black" stroke-width="0.5" fill="#aaffff" cx="14.0" cy="730.0" r="1.0"/>
     <text stroke="none" x="14.0" y="730.0" font-size="10.0" font-family="helvetica">NT1.1</text>
    </g>
    <g>
     <circle stroke="black" stroke-width="0.5" fill="#aaffff" cx="196.0" cy="767.0" r="1.0"/>
     <text stroke="none" x="196.0" y="767.0" font-size="20.0" font-family="helvetica">100</text>
    </g>
    <g>
     <circle stroke="black" stroke-width="0.5" fill="#aaffff" cx="262.0" cy="576.0" r="1.0"/>
     <text stroke="none" x="262.0" y="576.0" font-size="20.0" font-family="helvetica">100</text>
    </g>
    <g>
     <circle stroke="black" stroke-width="0.5" fill="#aaffff" cx="325.0" cy="505.0" r="1.0"/>
     <text stroke="none" x="325.0" y="505.0" font-size="20.0" font-family="helvetica">69</text>
    </g>
    <g>
     <circle stroke="black" stroke-width="0.5" fill="#aaffff" cx="377.0" cy="437.0" r="1.0"/>
     <text stroke="none" x="377.0" y="437.0" font-size="20.0" font-family="helvetica">65</text>
    </g>
    <g>
     <circle stroke="black" stroke-width="0.5" fill="#aaffff" cx="422.0" cy="372.0" r="1.0"/>
     <text stroke="none" x="422.0" y="372.0" font-size="10.0" font-family="helvetica">NT1.6</text>
    </g>
    <g>
     <circle stroke="black" stroke-width="0.5" fill="#aaffff" cx="423.0" cy="743.0" r="1.0"/>
     <text stroke="none" x="423.0" y="743.0" font-size="20.0" font-family="helvetica">Empedobacter brevis ATCC 14234 (M59052)</text>
    </g>
    <g>
     <circle stroke="black" stroke-width="0.5" fill="#aaffff" cx="438.0" cy="291.0" r="1.0"/>
     <text stroke="none" x="438.0" y="291.0" font-size="10.0" font-family="helvetica">NT1.8</text>
    </g>
    <g>
     <circle stroke="black" stroke-width="0.5" fill="#aaffff" cx="445.0" cy="792.0" r="1.0"/>
     <text stroke="none" x="445.0" y="792.0" font-size="20.0" font-family="helvetica">Weeksella virosa ATCC 43766T (M93152)</text>
    </g>
    <g>
     <circle stroke="black" stroke-width="0.5" fill="#aaffff" cx="470.0" cy="367.0" r="1.0"/>
     <text stroke="none" x="470.0" y="367.0" font-size="10.0" font-family="helvetica">NT1.10</text>
    </g>
    <g>
     <circle stroke="black" stroke-width="0.5" fill="#aaffff" cx="477.0" cy="212.0" r="1.0"/>
     <text stroke="none" x="477.0" y="212.0" font-size="10.0" font-family="helvetica">NT1.11</text>
    </g>
    <g>
     <circle stroke="black" stroke-width="0.5" fill="#aaffff" cx="499.0" cy="166.0" r="1.0"/>
     <text stroke="none" x="499.0" y="166.0" font-size="20.0" font-family="helvetica">66</text>
    </g>
    <g>
     <circle stroke="black" stroke-width="0.5" fill="#aaffff" cx="500.0" cy="331.0" r="1.0"/>
     <text stroke="none" x="500.0" y="331.0" font-size="10.0" font-family="helvetica">NT1.13</text>
    </g>
    <g>
     <circle stroke="black" stroke-width="0.5" fill="#aaffff" cx="521.0" cy="119.0" r="1.0"/>
     <text stroke="none" x="521.0" y="119.0" font-size="20.0" font-family="helvetica">63</text>
    </g>
    <g>
     <circle stroke="black" stroke-width="0.5" fill="#aaffff" cx="522.0" cy="307.0" r="1.0"/>
     <text stroke="none" x="522.0" y="307.0" font-size="10.0" font-family="helvetica">NT1.15</text>
    </g>
    <g>
     <circle stroke="black" stroke-width="0.5" fill="#aaffff" cx="526.0" cy="356.0" r="1.0"/>
     <text stroke="none" x="526.0" y="356.0" font-size="20.0" font-family="helvetica"> Chryseobacterium gleum ATCC 35910T (M58772)</text>
    </g>
    <g>
     <circle stroke="black" stroke-width="0.5" fill="#aaffff" cx="541.0" cy="573.0" r="1.0"/>
     <text stroke="none" x="541.0" y="573.0" font-size="20.0" font-family="helvetica">100</text>
    </g>
    <g>
     <circle stroke="black" stroke-width="0.5" fill="#aaffff" cx="564.0" cy="404.0" r="1.0"/>
     <text stroke="none" x="564.0" y="404.0" font-size="10.0" font-family="helvetica">NT1.18</text>
    </g>
    <g>
     <circle stroke="black" stroke-width="0.5" fill="#aaffff" cx="564.0" cy="549.0" r="1.0"/>
     <text stroke="none" x="564.0" y="549.0" font-size="20.0" font-family="helvetica"> Chryseobaclerium meningaseplicum ATCC 13253T (M58776)</text>
    </g>
    <g>
     <circle stroke="black" stroke-width="0.5" fill="#aaffff" cx="576.0" cy="77.0" r="1.0"/>
     <text stroke="none" x="576.0" y="77.0" font-size="20.0" font-family="helvetica">97</text>
    </g>
    <g>
     <circle stroke="black" stroke-width="0.5" fill="#aaffff" cx="599.0" cy="453.0" r="1.0"/>
     <text stroke="none" x="599.0" y="453.0" font-size="10.0" font-family="helvetica">NT1.21</text>
    </g>
    <g>
     <circle stroke="black" stroke-width="0.5" fill="#aaffff" cx="605.0" cy="162.0" r="1.0"/>
     <text stroke="none" x="605.0" y="162.0" font-size="10.0" font-family="helvetica">NT1.22</text>
    </g>
    <g>
     <circle stroke="black" stroke-width="0.5" fill="#aaffff" cx="614.0" cy="41.0" r="1.0"/>
     <text stroke="none" x="614.0" y="41.0" font-size="10.0" font-family="helvetica">NT1.23</text>
    </g>
    <g>
     <circle stroke="black" stroke-width="0.5" fill="#aaffff" cx="631.0" cy="210.0" r="1.0"/>
     <text stroke="none" x="631.0" y="210.0" font-size="10.0" font-family="helvetica">NT1.24</text>
    </g>
    <g>
     <circle stroke="black" stroke-width="0.5" fill="#aaffff" cx="637.0" cy="16.0" r="1.0"/>
     <text stroke="none" x="637.0" y="16.0" font-size="10.0" font-family="helvetica">NT1.25</text>
    </g>
    <g>
     <circle stroke="black" stroke-width="0.5" fill="#aaffff" cx="637.0" cy="113.0" r="1.0"/>
     <text stroke="none" x="637.0" y="113.0" font-size="20.0" font-family="helvetica"> Chryseobacterium indoltheticum ATCC 27950T (M58774)</text>
    </g>
    <g>
     <circle stroke="black" stroke-width="0.5" fill="#aaffff" cx="638.0" cy="598.0" r="1.0"/>
     <text stroke="none" x="638.0" y="598.0" font-size="20.0" font-family="helvetica">Chryseobacterium miricola DSM 145711 (AB071953)</text>
    </g>
    <g>
     <circle stroke="black" stroke-width="0.5" fill="#aaffff" cx="648.0" cy="64.0" r="1.0"/>
     <text stroke="none" x="648.0" y="64.0" font-size="20.0" font-family="helvetica"> Chrjyseobacterium balustinum ATCC 33487T (M58771)</text>
    </g>
    <g>
     <circle stroke="black" stroke-width="0.5" fill="#aaffff" cx="656.0" cy="501.0" r="1.0"/>
     <text stroke="none" x="656.0" y="501.0" font-size="20.0" font-family="helvetica">Bergeyella zaahelcum ATCC 43767T (M93153)</text>
    </g>
    <g>
     <circle stroke="black" stroke-width="0.5" fill="#aaffff" cx="676.0" cy="258.0" r="1.0"/>
     <text stroke="none" x="676.0" y="258.0" font-size="10.0" font-family="helvetica">NT1.30</text>
    </g>
    <g>
     <circle stroke="black" stroke-width="0.5" fill="#aaffff" cx="811.0" cy="647.0" r="1.0"/>
     <text stroke="none" x="811.0" y="647.0" font-size="10.0" font-family="helvetica">NT1.31</text>
    </g>
    <g>
     <circle stroke="black" stroke-width="0.5" fill="#aaffff" cx="811.0" cy="694.0" r="1.0"/>
     <text stroke="none" x="811.0" y="694.0" font-size="10.0" font-family="helvetica">NT1.32</text>
    </g>
    <g>
     <circle stroke="black" stroke-width="0.5" fill="#aaffff" cx="2.0" cy="653.0" r="1.0"/>
     <text stroke="none" x="2.0" y="653.0" font-size="10.0" font-family="helvetica">NT1.33</text>
    </g>
    <line stroke="black" x1="648.0" y1="64.0" x2="614.0" y2="41.0" stroke-width="0.5"/>
    <line stroke="black" x1="637.0" y1="113.0" x2="576.0" y2="77.0" stroke-width="0.5"/>
    <line stroke="black" x1="526.0" y1="356.0" x2="500.0" y2="331.0" stroke-width="0.5"/>
    <line stroke="black" x1="656.0" y1="501.0" x2="377.0" y2="437.0" stroke-width="0.5"/>
    <line stroke="black" x1="564.0" y1="549.0" x2="541.0" y2="573.0" stroke-width="0.5"/>
    <line stroke="black" x1="638.0" y1="598.0" x2="541.0" y2="573.0" stroke-width="0.5"/>
    <line stroke="black" x1="423.0" y1="743.0" x2="196.0" y2="767.0" stroke-width="0.5"/>
    <line stroke="black" x1="445.0" y1="792.0" x2="196.0" y2="767.0" stroke-width="0.5"/>
    <line stroke="black" x1="576.0" y1="77.0" x2="521.0" y2="119.0" stroke-width="0.5"/>
    <line stroke="black" x1="438.0" y1="291.0" x2="422.0" y2="372.0" stroke-width="0.5"/>
    <line stroke="black" x1="377.0" y1="437.0" x2="325.0" y2="505.0" stroke-width="0.5"/>
    <line stroke="black" x1="325.0" y1="505.0" x2="262.0" y2="576.0" stroke-width="0.5"/>
    <line stroke="black" x1="325.0" y1="505.0" x2="541.0" y2="573.0" stroke-width="0.5"/>
    <line stroke="black" x1="14.0" y1="730.0" x2="196.0" y2="767.0" stroke-width="0.5"/>
   </g>
  </g>
 </svg>
</svg>
