<?xml version="1.0" encoding="UTF-8"?>
<svg height="800.0" width="700.0" xmlns="http://www.w3.org/2000/svg">
 <svg>
  <g>
   <g>
    <g>
     <circle stroke="black" stroke-width="0.5" fill="#aaffff" cx="243.0" cy="849.0" r="1.0"/>
     <text stroke="none" x="243.0" y="849.0" font-size="10.0" font-family="helvetica">NT1.1</text>
    </g>
    <g>
     <circle stroke="black" stroke-width="0.5" fill="#aaffff" cx="447.0" cy="974.0" r="1.0"/>
     <text stroke="none" x="447.0" y="974.0" font-size="10.0" font-family="helvetica">NT1.2</text>
    </g>
    <g>
     <circle stroke="black" stroke-width="0.5" fill="#aaffff" cx="516.0" cy="591.0" r="1.0"/>
     <text stroke="none" x="516.0" y="591.0" font-size="10.0" font-family="helvetica">NT1.3</text>
    </g>
    <g>
     <circle stroke="black" stroke-width="0.5" fill="#aaffff" cx="651.0" cy="451.0" r="1.0"/>
     <text stroke="none" x="651.0" y="451.0" font-size="10.0" font-family="helvetica">NT1.4</text>
    </g>
    <g>
     <circle stroke="black" stroke-width="0.5" fill="#aaffff" cx="665.0" cy="345.0" r="1.0"/>
     <text stroke="none" x="665.0" y="345.0" font-size="20.0" font-family="helvetica">56</text>
    </g>
    <g>
     <circle stroke="black" stroke-width="0.5" fill="#aaffff" cx="724.0" cy="558.0" r="1.0"/>
     <text stroke="none" x="724.0" y="558.0" font-size="10.0" font-family="helvetica">NT1.6</text>
    </g>
    <g>
     <circle stroke="black" stroke-width="0.5" fill="#aaffff" cx="731.0" cy="727.0" r="1.0"/>
     <text stroke="none" x="731.0" y="727.0" font-size="10.0" font-family="helvetica">NT1.7</text>
    </g>
    <g>
     <circle stroke="black" stroke-width="0.5" fill="#aaffff" cx="734.0" cy="604.0" r="1.0"/>
     <text stroke="none" x="734.0" y="604.0" font-size="10.0" font-family="helvetica">NT1.8</text>
    </g>
    <g>
     <circle stroke="black" stroke-width="0.5" fill="#aaffff" cx="750.0" cy="268.0" r="1.0"/>
     <text stroke="none" x="750.0" y="268.0" font-size="20.0" font-family="helvetica">98</text>
    </g>
    <g>
     <circle stroke="black" stroke-width="0.5" fill="#aaffff" cx="782.0" cy="636.0" r="1.0"/>
     <text stroke="none" x="782.0" y="636.0" font-size="20.0" font-family="helvetica">Methylobacillus glycogenes ATCC 29475T (M95652)</text>
    </g>
    <g>
     <circle stroke="black" stroke-width="0.5" fill="#aaffff" cx="795.0" cy="388.0" r="1.0"/>
     <text stroke="none" x="795.0" y="388.0" font-size="20.0" font-family="helvetica">Methylovorus gluoosotrophus 6B1T (AY486133)</text>
    </g>
    <g>
     <circle stroke="black" stroke-width="0.5" fill="#aaffff" cx="799.0" cy="1005.0" r="1.0"/>
     <text stroke="none" x="799.0" y="1005.0" font-size="20.0" font-family="helvetica">Methylomonas methanica NCIMB 11130T (AF304196)</text>
    </g>
    <g>
     <circle stroke="black" stroke-width="0.5" fill="#aaffff" cx="817.0" cy="209.0" r="1.0"/>
     <text stroke="none" x="817.0" y="209.0" font-size="20.0" font-family="helvetica">99</text>
    </g>
    <g>
     <circle stroke="black" stroke-width="0.5" fill="#aaffff" cx="824.0" cy="153.0" r="1.0"/>
     <text stroke="none" x="824.0" y="153.0" font-size="20.0" font-family="helvetica">48</text>
    </g>
    <g>
     <circle stroke="black" stroke-width="0.5" fill="#aaffff" cx="826.0" cy="97.0" r="1.0"/>
     <text stroke="none" x="826.0" y="97.0" font-size="10.0" font-family="helvetica">NT1.15</text>
    </g>
    <g>
     <circle stroke="black" stroke-width="0.5" fill="#aaffff" cx="826.0" cy="143.0" r="1.0"/>
     <text stroke="none" x="826.0" y="143.0" font-size="20.0" font-family="helvetica">48</text>
    </g>
    <g>
     <circle stroke="black" stroke-width="0.5" fill="#aaffff" cx="832.0" cy="143.0" r="1.0"/>
     <text stroke="none" x="832.0" y="143.0" font-size="10.0" font-family="helvetica">NT1.17</text>
    </g>
    <g>
     <circle stroke="black" stroke-width="0.5" fill="#aaffff" cx="849.0" cy="204.0" r="1.0"/>
     <text stroke="none" x="849.0" y="204.0" font-size="20.0" font-family="helvetica">Methylophilus methylotrophus NCIMB 1o515T (AB193724)</text>
    </g>
    <g>
     <circle stroke="black" stroke-width="0.5" fill="#aaffff" cx="851.0" cy="573.0" r="1.0"/>
     <text stroke="none" x="851.0" y="573.0" font-size="20.0" font-family="helvetica">Methylobacillus flagellatus KTT (M95651)</text>
    </g>
    <g>
     <circle stroke="black" stroke-width="0.5" fill="#aaffff" cx="851.0" cy="759.0" r="1.0"/>
     <text stroke="none" x="851.0" y="759.0" font-size="20.0" font-family="helvetica">Ralstonia insidiosa AU2944T (AF488779)</text>
    </g>
    <g>
     <circle stroke="black" stroke-width="0.5" fill="#aaffff" cx="854.0" cy="697.0" r="1.0"/>
     <text stroke="none" x="854.0" y="697.0" font-size="20.0" font-family="helvetica">Cupriavidus pauculus LMG 3413 (AF085226)</text>
    </g>
    <g>
     <circle stroke="black" stroke-width="0.5" fill="#aaffff" cx="866.0" cy="512.0" r="1.0"/>
     <text stroke="none" x="866.0" y="512.0" font-size="20.0" font-family="helvetica">Methylobacillus pratensis F317 (AY298905)</text>
    </g>
    <g>
     <circle stroke="black" stroke-width="0.5" fill="#aaffff" cx="910.0" cy="328.0" r="1.0"/>
     <text stroke="none" x="910.0" y="328.0" font-size="20.0" font-family="helvetica">Methylotenera mobills JLW8T (DQ287786)</text>
    </g>
    <g>
     <circle stroke="black" stroke-width="0.5" fill="#aaffff" cx="920.0" cy="266.0" r="1.0"/>
     <text stroke="none" x="920.0" y="266.0" font-size="20.0" font-family="helvetica">Methylophilus leisingeri DM1 1T (AF250333)</text>
    </g>
    <g>
     <circle stroke="black" stroke-width="0.5" fill="#aaffff" cx="956.0" cy="943.0" r="1.0"/>
     <text stroke="none" x="956.0" y="943.0" font-size="20.0" font-family="helvetica">Escherichia coli ATCC 117757 (X80725)</text>
    </g>
    <g>
     <circle stroke="black" stroke-width="0.5" fill="#aaffff" cx="956.0" cy="1066.0" r="1.0"/>
     <text stroke="none" x="956.0" y="1066.0" font-size="20.0" font-family="helvetica">Aminomonas paucivorans GLU-3T (AF072581)</text>
    </g>
    <g>
     <circle stroke="black" stroke-width="0.5" fill="#aaffff" cx="7.0" cy="957.0" r="1.0"/>
     <text stroke="none" x="7.0" y="957.0" font-size="10.0" font-family="helvetica">NT1.27</text>
    </g>
    <line stroke="black" x1="920.0" y1="266.0" x2="817.0" y2="209.0" stroke-width="0.5"/>
    <line stroke="black" x1="910.0" y1="328.0" x2="750.0" y2="268.0" stroke-width="0.5"/>
    <line stroke="black" x1="795.0" y1="388.0" x2="665.0" y2="345.0" stroke-width="0.5"/>
    <line stroke="black" x1="782.0" y1="636.0" x2="734.0" y2="604.0" stroke-width="0.5"/>
    <line stroke="black" x1="866.0" y1="512.0" x2="724.0" y2="558.0" stroke-width="0.5"/>
    <line stroke="black" x1="851.0" y1="573.0" x2="734.0" y2="604.0" stroke-width="0.5"/>
    <line stroke="black" x1="851.0" y1="759.0" x2="731.0" y2="727.0" stroke-width="0.5"/>
    <line stroke="black" x1="956.0" y1="943.0" x2="447.0" y2="974.0" stroke-width="0.5"/>
    <line stroke="black" x1="817.0" y1="209.0" x2="750.0" y2="268.0" stroke-width="0.5"/>
    <line stroke="black" x1="750.0" y1="268.0" x2="665.0" y2="345.0" stroke-width="0.5"/>
    <line stroke="black" x1="665.0" y1="345.0" x2="651.0" y2="451.0" stroke-width="0.5"/>
    <line stroke="black" x1="651.0" y1="451.0" x2="516.0" y2="591.0" stroke-width="0.5"/>
    <line stroke="black" x1="651.0" y1="451.0" x2="724.0" y2="558.0" stroke-width="0.5"/>
    <line stroke="black" x1="724.0" y1="558.0" x2="734.0" y2="604.0" stroke-width="0.5"/>
    <line stroke="black" x1="516.0" y1="591.0" x2="243.0" y2="849.0" stroke-width="0.5"/>
    <line stroke="black" x1="516.0" y1="591.0" x2="731.0" y2="727.0" stroke-width="0.5"/>
    <line stroke="black" x1="243.0" y1="849.0" x2="447.0" y2="974.0" stroke-width="0.5"/>
    <line stroke="black" x1="7.0" y1="957.0" x2="956.0" y2="1066.0" stroke-width="0.5"/>
    <line stroke="black" x1="7.0" y1="957.0" x2="243.0" y2="849.0" stroke-width="0.5"/>
    <line stroke="black" x1="799.0" y1="1005.0" x2="447.0" y2="974.0" stroke-width="0.5"/>
    <line stroke="black" x1="854.0" y1="697.0" x2="731.0" y2="727.0" stroke-width="0.5"/>
    <line stroke="black" x1="849.0" y1="204.0" x2="824.0" y2="153.0" stroke-width="0.5"/>
   </g>
  </g>
 </svg>
</svg>
