<?xml version="1.0" encoding="UTF-8"?>
<svg height="800.0" width="700.0" xmlns="http://www.w3.org/2000/svg">
 <svg>
  <g>
   <g>
    <g>
     <circle stroke="black" stroke-width="0.5" fill="#aaffff" cx="348.0" cy="797.0" r="1.0"/>
     <text stroke="none" x="348.0" y="797.0" font-size="10.0" font-family="helvetica">NT1.1</text>
    </g>
    <g>
     <circle stroke="black" stroke-width="0.5" fill="#aaffff" cx="374.0" cy="1145.0" r="1.0"/>
     <text stroke="none" x="374.0" y="1145.0" font-size="10.0" font-family="helvetica">NT1.2</text>
    </g>
    <g>
     <circle stroke="black" stroke-width="0.5" fill="#aaffff" cx="398.0" cy="277.0" r="1.0"/>
     <text stroke="none" x="398.0" y="277.0" font-size="10.0" font-family="helvetica">NT1.3</text>
    </g>
    <g>
     <circle stroke="black" stroke-width="0.5" fill="#aaffff" cx="407.0" cy="823.0" r="1.0"/>
     <text stroke="none" x="407.0" y="823.0" font-size="10.0" font-family="helvetica">NT1.4</text>
    </g>
    <g>
     <circle stroke="black" stroke-width="0.5" fill="#aaffff" cx="431.0" cy="1195.0" r="1.0"/>
     <text stroke="none" x="431.0" y="1195.0" font-size="10.0" font-family="helvetica">NT1.5</text>
    </g>
    <g>
     <circle stroke="black" stroke-width="0.5" fill="#aaffff" cx="435.0" cy="676.0" r="1.0"/>
     <text stroke="none" x="435.0" y="676.0" font-size="10.0" font-family="helvetica">NT1.6</text>
    </g>
    <g>
     <circle stroke="black" stroke-width="0.5" fill="#aaffff" cx="435.0" cy="689.0" r="1.0"/>
     <text stroke="none" x="435.0" y="689.0" font-size="10.0" font-family="helvetica">NT1.7</text>
    </g>
    <g>
     <circle stroke="black" stroke-width="0.5" fill="#aaffff" cx="444.0" cy="509.0" r="1.0"/>
     <text stroke="none" x="444.0" y="509.0" font-size="20.0" font-family="helvetica">73</text>
    </g>
    <g>
     <circle stroke="black" stroke-width="0.5" fill="#aaffff" cx="448.0" cy="842.0" r="1.0"/>
     <text stroke="none" x="448.0" y="842.0" font-size="10.0" font-family="helvetica">NT1.9</text>
    </g>
    <g>
     <circle stroke="black" stroke-width="0.5" fill="#aaffff" cx="448.0" cy="1234.0" r="1.0"/>
     <text stroke="none" x="448.0" y="1234.0" font-size="10.0" font-family="helvetica">NT1.10</text>
    </g>
    <g>
     <circle stroke="black" stroke-width="0.5" fill="#aaffff" cx="450.0" cy="684.0" r="1.0"/>
     <text stroke="none" x="450.0" y="684.0" font-size="20.0" font-family="helvetica"/>
    </g>
    <g>
     <circle stroke="black" stroke-width="0.5" fill="#aaffff" cx="452.0" cy="683.0" r="1.0"/>
     <text stroke="none" x="452.0" y="683.0" font-size="10.0" font-family="helvetica">NT1.12</text>
    </g>
    <g>
     <circle stroke="black" stroke-width="0.5" fill="#aaffff" cx="458.0" cy="675.0" r="1.0"/>
     <text stroke="none" x="458.0" y="675.0" font-size="10.0" font-family="helvetica">NT1.13</text>
    </g>
    <g>
     <circle stroke="black" stroke-width="0.5" fill="#aaffff" cx="459.0" cy="690.0" r="1.0"/>
     <text stroke="none" x="459.0" y="690.0" font-size="20.0" font-family="helvetica"/>
    </g>
    <g>
     <circle stroke="black" stroke-width="0.5" fill="#aaffff" cx="459.0" cy="671.0" r="1.0"/>
     <text stroke="none" x="459.0" y="671.0" font-size="20.0" font-family="helvetica"/>
    </g>
    <g>
     <circle stroke="black" stroke-width="0.5" fill="#aaffff" cx="459.0" cy="604.0" r="1.0"/>
     <text stroke="none" x="459.0" y="604.0" font-size="10.0" font-family="helvetica">NT1.16</text>
    </g>
    <g>
     <circle stroke="black" stroke-width="0.5" fill="#aaffff" cx="463.0" cy="968.0" r="1.0"/>
     <text stroke="none" x="463.0" y="968.0" font-size="20.0" font-family="helvetica">87</text>
    </g>
    <g>
     <circle stroke="black" stroke-width="0.5" fill="#aaffff" cx="463.0" cy="671.0" r="1.0"/>
     <text stroke="none" x="463.0" y="671.0" font-size="10.0" font-family="helvetica">NT1.18</text>
    </g>
    <g>
     <circle stroke="black" stroke-width="0.5" fill="#aaffff" cx="468.0" cy="385.0" r="1.0"/>
     <text stroke="none" x="468.0" y="385.0" font-size="10.0" font-family="helvetica">NT1.19</text>
    </g>
    <g>
     <circle stroke="black" stroke-width="0.5" fill="#aaffff" cx="469.0" cy="1085.0" r="1.0"/>
     <text stroke="none" x="469.0" y="1085.0" font-size="20.0" font-family="helvetica">100</text>
    </g>
    <g>
     <circle stroke="black" stroke-width="0.5" fill="#aaffff" cx="470.0" cy="1117.0" r="1.0"/>
     <text stroke="none" x="470.0" y="1117.0" font-size="20.0" font-family="helvetica">Sinorhizobium americanum CFNEI 156T (AF506513)</text>
    </g>
    <g>
     <circle stroke="black" stroke-width="0.5" fill="#aaffff" cx="478.0" cy="1074.0" r="1.0"/>
     <text stroke="none" x="478.0" y="1074.0" font-size="20.0" font-family="helvetica">Sinorhizobium fredii ATCC 35423T (D14516)</text>
    </g>
    <g>
     <circle stroke="black" stroke-width="0.5" fill="#aaffff" cx="479.0" cy="693.0" r="1.0"/>
     <text stroke="none" x="479.0" y="693.0" font-size="10.0" font-family="helvetica">NT1.23</text>
    </g>
    <g>
     <circle stroke="black" stroke-width="0.5" fill="#aaffff" cx="486.0" cy="554.0" r="1.0"/>
     <text stroke="none" x="486.0" y="554.0" font-size="20.0" font-family="helvetica">73</text>
    </g>
    <g>
     <circle stroke="black" stroke-width="0.5" fill="#aaffff" cx="486.0" cy="729.0" r="1.0"/>
     <text stroke="none" x="486.0" y="729.0" font-size="20.0" font-family="helvetica">72</text>
    </g>
    <g>
     <circle stroke="black" stroke-width="0.5" fill="#aaffff" cx="487.0" cy="531.0" r="1.0"/>
     <text stroke="none" x="487.0" y="531.0" font-size="20.0" font-family="helvetica">Mesorhizobium temperatum SDW018T (AF508208)</text>
    </g>
    <g>
     <circle stroke="black" stroke-width="0.5" fill="#aaffff" cx="487.0" cy="576.0" r="1.0"/>
     <text stroke="none" x="487.0" y="576.0" font-size="20.0" font-family="helvetica">Mesorhizobium mediterraneum UPM-Ca36T (L38825)</text>
    </g>
    <g>
     <circle stroke="black" stroke-width="0.5" fill="#aaffff" cx="488.0" cy="533.0" r="1.0"/>
     <text stroke="none" x="488.0" y="533.0" font-size="20.0" font-family="helvetica">73</text>
    </g>
    <g>
     <circle stroke="black" stroke-width="0.5" fill="#aaffff" cx="488.0" cy="574.0" r="1.0"/>
     <text stroke="none" x="488.0" y="574.0" font-size="10.0" font-family="helvetica">NT1.29</text>
    </g>
    <g>
     <circle stroke="black" stroke-width="0.5" fill="#aaffff" cx="489.0" cy="461.0" r="1.0"/>
     <text stroke="none" x="489.0" y="461.0" font-size="20.0" font-family="helvetica"/>
    </g>
    <g>
     <circle stroke="black" stroke-width="0.5" fill="#aaffff" cx="490.0" cy="782.0" r="1.0"/>
     <text stroke="none" x="490.0" y="782.0" font-size="20.0" font-family="helvetica">Mesorhizobium amorphae ACCC 19665T (AFO41442)</text>
    </g>
    <g>
     <circle stroke="black" stroke-width="0.5" fill="#aaffff" cx="490.0" cy="759.0" r="1.0"/>
     <text stroke="none" x="490.0" y="759.0" font-size="20.0" font-family="helvetica">72</text>
    </g>
    <g>
     <circle stroke="black" stroke-width="0.5" fill="#aaffff" cx="491.0" cy="739.0" r="1.0"/>
     <text stroke="none" x="491.0" y="739.0" font-size="20.0" font-family="helvetica">Mesorhizobium septentrionale SDWO14T (AF508207)</text>
    </g>
    <g>
     <circle stroke="black" stroke-width="0.5" fill="#aaffff" cx="492.0" cy="533.0" r="1.0"/>
     <text stroke="none" x="492.0" y="533.0" font-size="20.0" font-family="helvetica">Mesorhizobium temperatum SDW018T (AF508208)</text>
    </g>
    <g>
     <circle stroke="black" stroke-width="0.5" fill="#aaffff" cx="492.0" cy="574.0" r="1.0"/>
     <text stroke="none" x="492.0" y="574.0" font-size="20.0" font-family="helvetica">Mesorhizobium mediterraneum UPM-Ca36T (L38825)</text>
    </g>
    <g>
     <circle stroke="black" stroke-width="0.5" fill="#aaffff" cx="492.0" cy="741.0" r="1.0"/>
     <text stroke="none" x="492.0" y="741.0" font-size="20.0" font-family="helvetica">72</text>
    </g>
    <g>
     <circle stroke="black" stroke-width="0.5" fill="#aaffff" cx="494.0" cy="658.0" r="1.0"/>
     <text stroke="none" x="494.0" y="658.0" font-size="20.0" font-family="helvetica">Mesorhizobium huakuii NBRC 15243T (D13431)</text>
    </g>
    <g>
     <circle stroke="black" stroke-width="0.5" fill="#aaffff" cx="494.0" cy="350.0" r="1.0"/>
     <text stroke="none" x="494.0" y="350.0" font-size="20.0" font-family="helvetica">53</text>
    </g>
    <g>
     <circle stroke="black" stroke-width="0.5" fill="#aaffff" cx="498.0" cy="741.0" r="1.0"/>
     <text stroke="none" x="498.0" y="741.0" font-size="20.0" font-family="helvetica">Mesorhizobium septentrionale SDWO14T (AF508207)</text>
    </g>
    <g>
     <circle stroke="black" stroke-width="0.5" fill="#aaffff" cx="502.0" cy="457.0" r="1.0"/>
     <text stroke="none" x="502.0" y="457.0" font-size="20.0" font-family="helvetica">9</text>
    </g>
    <g>
     <circle stroke="black" stroke-width="0.5" fill="#aaffff" cx="503.0" cy="919.0" r="1.0"/>
     <text stroke="none" x="503.0" y="919.0" font-size="20.0" font-family="helvetica">97</text>
    </g>
    <g>
     <circle stroke="black" stroke-width="0.5" fill="#aaffff" cx="505.0" cy="1383.0" r="1.0"/>
     <text stroke="none" x="505.0" y="1383.0" font-size="10.0" font-family="helvetica">NT1.42</text>
    </g>
    <g>
     <circle stroke="black" stroke-width="0.5" fill="#aaffff" cx="509.0" cy="699.0" r="1.0"/>
     <text stroke="none" x="509.0" y="699.0" font-size="20.0" font-family="helvetica">Mesorhizobium plurifarium LMG 1 1892T (Y14158)</text>
    </g>
    <g>
     <circle stroke="black" stroke-width="0.5" fill="#aaffff" cx="511.0" cy="449.0" r="1.0"/>
     <text stroke="none" x="511.0" y="449.0" font-size="20.0" font-family="helvetica">Mesorhizobium ciceri UPM-Ca7T (UO7934)</text>
    </g>
    <g>
     <circle stroke="black" stroke-width="0.5" fill="#aaffff" cx="520.0" cy="491.0" r="1.0"/>
     <text stroke="none" x="520.0" y="491.0" font-size="20.0" font-family="helvetica">Mesorhizobium Ioti ATCC 33669T (D14514)</text>
    </g>
    <g>
     <circle stroke="black" stroke-width="0.5" fill="#aaffff" cx="525.0" cy="55.0" r="1.0"/>
     <text stroke="none" x="525.0" y="55.0" font-size="10.0" font-family="helvetica">NT1.46</text>
    </g>
    <g>
     <circle stroke="black" stroke-width="0.5" fill="#aaffff" cx="527.0" cy="116.0" r="1.0"/>
     <text stroke="none" x="527.0" y="116.0" font-size="20.0" font-family="helvetica">BNC1</text>
    </g>
    <g>
     <circle stroke="black" stroke-width="0.5" fill="#aaffff" cx="527.0" cy="75.0" r="1.0"/>
     <text stroke="none" x="527.0" y="75.0" font-size="20.0" font-family="helvetica">56</text>
    </g>
    <g>
     <circle stroke="black" stroke-width="0.5" fill="#aaffff" cx="533.0" cy="75.0" r="1.0"/>
     <text stroke="none" x="533.0" y="75.0" font-size="20.0" font-family="helvetica">Chelativorans multitrophicus DSM 9103T(EF457243)</text>
    </g>
    <g>
     <circle stroke="black" stroke-width="0.5" fill="#aaffff" cx="533.0" cy="409.0" r="1.0"/>
     <text stroke="none" x="533.0" y="409.0" font-size="20.0" font-family="helvetica">Mesorhizobium chacoense PR5T (AJ278249)</text>
    </g>
    <g>
     <circle stroke="black" stroke-width="0.5" fill="#aaffff" cx="540.0" cy="1270.0" r="1.0"/>
     <text stroke="none" x="540.0" y="1270.0" font-size="20.0" font-family="helvetica">100</text>
    </g>
    <g>
     <circle stroke="black" stroke-width="0.5" fill="#aaffff" cx="553.0" cy="907.0" r="1.0"/>
     <text stroke="none" x="553.0" y="907.0" font-size="20.0" font-family="helvetica">Pseudaminobacter defluvii THI 051 T (D32248)</text>
    </g>
    <g>
     <circle stroke="black" stroke-width="0.5" fill="#aaffff" cx="560.0" cy="1009.0" r="1.0"/>
     <text stroke="none" x="560.0" y="1009.0" font-size="10.0" font-family="helvetica">NT1.53</text>
    </g>
    <g>
     <circle stroke="black" stroke-width="0.5" fill="#aaffff" cx="568.0" cy="34.0" r="1.0"/>
     <text stroke="none" x="568.0" y="34.0" font-size="20.0" font-family="helvetica">Chelativorans oligotrophicus LPM-4T (EF457242)</text>
    </g>
    <g>
     <circle stroke="black" stroke-width="0.5" fill="#aaffff" cx="568.0" cy="1365.0" r="1.0"/>
     <text stroke="none" x="568.0" y="1365.0" font-size="20.0" font-family="helvetica">Azospirillum lipoferum ATCC 29707 (M59061)</text>
    </g>
    <g>
     <circle stroke="black" stroke-width="0.5" fill="#aaffff" cx="575.0" cy="291.0" r="1.0"/>
     <text stroke="none" x="575.0" y="291.0" font-size="10.0" font-family="helvetica">NT1.56</text>
    </g>
    <g>
     <circle stroke="black" stroke-width="0.5" fill="#aaffff" cx="581.0" cy="211.0" r="1.0"/>
     <text stroke="none" x="581.0" y="211.0" font-size="20.0" font-family="helvetica">69</text>
    </g>
    <g>
     <circle stroke="black" stroke-width="0.5" fill="#aaffff" cx="586.0" cy="616.0" r="1.0"/>
     <text stroke="none" x="586.0" y="616.0" font-size="20.0" font-family="helvetica">Mesorhizobium tianshanense A-1 BST (U71079)</text>
    </g>
    <g>
     <circle stroke="black" stroke-width="0.5" fill="#aaffff" cx="586.0" cy="159.0" r="1.0"/>
     <text stroke="none" x="586.0" y="159.0" font-size="20.0" font-family="helvetica">Aminobacter aminovorans DSM 7O48T (AJO1 1 759)</text>
    </g>
    <g>
     <circle stroke="black" stroke-width="0.5" fill="#aaffff" cx="588.0" cy="1157.0" r="1.0"/>
     <text stroke="none" x="588.0" y="1157.0" font-size="20.0" font-family="helvetica">Agrobacterium tumefaciens C4 (AF508093)</text>
    </g>
    <g>
     <circle stroke="black" stroke-width="0.5" fill="#aaffff" cx="589.0" cy="200.0" r="1.0"/>
     <text stroke="none" x="589.0" y="200.0" font-size="20.0" font-family="helvetica">Aminobacter aminovorans DSM 6450 (AJO1 1762)</text>
    </g>
    <g>
     <circle stroke="black" stroke-width="0.5" fill="#aaffff" cx="589.0" cy="251.0" r="1.0"/>
     <text stroke="none" x="589.0" y="251.0" font-size="20.0" font-family="helvetica">64</text>
    </g>
    <g>
     <circle stroke="black" stroke-width="0.5" fill="#aaffff" cx="593.0" cy="949.0" r="1.0"/>
     <text stroke="none" x="593.0" y="949.0" font-size="20.0" font-family="helvetica">Pseudaminobacter salicylatoxidans BN1 2T (AFO72542)</text>
    </g>
    <g>
     <circle stroke="black" stroke-width="0.5" fill="#aaffff" cx="593.0" cy="367.0" r="1.0"/>
     <text stroke="none" x="593.0" y="367.0" font-size="20.0" font-family="helvetica">Aminobacter lissarensis CC495T (AF107722)</text>
    </g>
    <g>
     <circle stroke="black" stroke-width="0.5" fill="#aaffff" cx="594.0" cy="302.0" r="1.0"/>
     <text stroke="none" x="594.0" y="302.0" font-size="10.0" font-family="helvetica">NT1.65</text>
    </g>
    <g>
     <circle stroke="black" stroke-width="0.5" fill="#aaffff" cx="595.0" cy="283.0" r="1.0"/>
     <text stroke="none" x="595.0" y="283.0" font-size="20.0" font-family="helvetica">Aminobacter aganoensis DSM 7051 T (AJO1 1760)</text>
    </g>
    <g>
     <circle stroke="black" stroke-width="0.5" fill="#aaffff" cx="595.0" cy="325.0" r="1.0"/>
     <text stroke="none" x="595.0" y="325.0" font-size="20.0" font-family="helvetica">Aminobacter niigataensis DSM 705OT (AJO1 1 761)</text>
    </g>
    <g>
     <circle stroke="black" stroke-width="0.5" fill="#aaffff" cx="601.0" cy="1032.0" r="1.0"/>
     <text stroke="none" x="601.0" y="1032.0" font-size="20.0" font-family="helvetica">Aquamicrobium defmvii DSM 1 1603T (Y15403)</text>
    </g>
    <g>
     <circle stroke="black" stroke-width="0.5" fill="#aaffff" cx="601.0" cy="241.0" r="1.0"/>
     <text stroke="none" x="601.0" y="241.0" font-size="20.0" font-family="helvetica">Aminobacter ciceronei IMB-1 T (AFO34798)</text>
    </g>
    <g>
     <circle stroke="black" stroke-width="0.5" fill="#aaffff" cx="603.0" cy="1199.0" r="1.0"/>
     <text stroke="none" x="603.0" y="1199.0" font-size="20.0" font-family="helvetica">Rhizobium galegae ATCC 43677T (D1 1343)</text>
    </g>
    <g>
     <circle stroke="black" stroke-width="0.5" fill="#aaffff" cx="606.0" cy="1301.0" r="1.0"/>
     <text stroke="none" x="606.0" y="1301.0" font-size="10.0" font-family="helvetica">NT1.71</text>
    </g>
    <g>
     <circle stroke="black" stroke-width="0.5" fill="#aaffff" cx="618.0" cy="1281.0" r="1.0"/>
     <text stroke="none" x="618.0" y="1281.0" font-size="20.0" font-family="helvetica">Rhizobium leguminosarum ATCC 1O0O4T (AY509899)</text>
    </g>
    <g>
     <circle stroke="black" stroke-width="0.5" fill="#aaffff" cx="630.0" cy="1324.0" r="1.0"/>
     <text stroke="none" x="630.0" y="1324.0" font-size="20.0" font-family="helvetica">Rhizobium etli CFN 42 (U28916)</text>
    </g>
    <g>
     <circle stroke="black" stroke-width="0.5" fill="#aaffff" cx="632.0" cy="991.0" r="1.0"/>
     <text stroke="none" x="632.0" y="991.0" font-size="20.0" font-family="helvetica">Defluvibacter lusatiensis DSM 1 1O99T (AJ132378)</text>
    </g>
    <g>
     <circle stroke="black" stroke-width="0.5" fill="#aaffff" cx="636.0" cy="824.0" r="1.0"/>
     <text stroke="none" x="636.0" y="824.0" font-size="20.0" font-family="helvetica">Mesorhizobium albiziae CCBAU 61 1 58T (DQ100066)</text>
    </g>
    <g>
     <circle stroke="black" stroke-width="0.5" fill="#aaffff" cx="647.0" cy="1240.0" r="1.0"/>
     <text stroke="none" x="647.0" y="1240.0" font-size="20.0" font-family="helvetica">Rhizobium tropici CIAT 899T (U89832)</text>
    </g>
    <g>
     <circle stroke="black" stroke-width="0.5" fill="#aaffff" cx="660.0" cy="1407.0" r="1.0"/>
     <text stroke="none" x="660.0" y="1407.0" font-size="20.0" font-family="helvetica">Azospfrillum brasilense ATCC 29145 (AY3241 10)</text>
    </g>
    <g>
     <circle stroke="black" stroke-width="0.5" fill="#aaffff" cx="673.0" cy="866.0" r="1.0"/>
     <text stroke="none" x="673.0" y="866.0" font-size="20.0" font-family="helvetica">Mesorhizobium thiogangeticum SJTT (AJ864462)</text>
    </g>
    <line stroke="black" x1="533.0" y1="75.0" x2="527.0" y2="75.0" stroke-width="0.5"/>
    <line stroke="black" x1="527.0" y1="116.0" x2="527.0" y2="75.0" stroke-width="0.5"/>
    <line stroke="black" x1="553.0" y1="907.0" x2="503.0" y2="919.0" stroke-width="0.5"/>
    <line stroke="black" x1="459.0" y1="690.0" x2="463.0" y2="671.0" stroke-width="0.5"/>
    <line stroke="black" x1="450.0" y1="684.0" x2="452.0" y2="683.0" stroke-width="0.5"/>
    <line stroke="black" x1="459.0" y1="671.0" x2="458.0" y2="675.0" stroke-width="0.5"/>
    <line stroke="black" x1="488.0" y1="533.0" x2="487.0" y2="531.0" stroke-width="0.5"/>
    <line stroke="black" x1="492.0" y1="533.0" x2="488.0" y2="533.0" stroke-width="0.5"/>
    <line stroke="black" x1="487.0" y1="576.0" x2="488.0" y2="574.0" stroke-width="0.5"/>
    <line stroke="black" x1="492.0" y1="574.0" x2="488.0" y2="574.0" stroke-width="0.5"/>
    <line stroke="black" x1="636.0" y1="824.0" x2="448.0" y2="842.0" stroke-width="0.5"/>
    <line stroke="black" x1="470.0" y1="1117.0" x2="469.0" y2="1085.0" stroke-width="0.5"/>
    <line stroke="black" x1="489.0" y1="461.0" x2="502.0" y2="457.0" stroke-width="0.5"/>
    <line stroke="black" x1="511.0" y1="449.0" x2="502.0" y2="457.0" stroke-width="0.5"/>
    <line stroke="black" x1="520.0" y1="491.0" x2="502.0" y2="457.0" stroke-width="0.5"/>
    <line stroke="black" x1="673.0" y1="866.0" x2="448.0" y2="842.0" stroke-width="0.5"/>
    <line stroke="black" x1="494.0" y1="658.0" x2="479.0" y2="693.0" stroke-width="0.5"/>
    <line stroke="black" x1="492.0" y1="741.0" x2="491.0" y2="739.0" stroke-width="0.5"/>
    <line stroke="black" x1="509.0" y1="699.0" x2="486.0" y2="729.0" stroke-width="0.5"/>
    <line stroke="black" x1="490.0" y1="782.0" x2="490.0" y2="759.0" stroke-width="0.5"/>
    <line stroke="black" x1="498.0" y1="741.0" x2="492.0" y2="741.0" stroke-width="0.5"/>
    <line stroke="black" x1="533.0" y1="409.0" x2="494.0" y2="350.0" stroke-width="0.5"/>
    <line stroke="black" x1="588.0" y1="1157.0" x2="431.0" y2="1195.0" stroke-width="0.5"/>
    <line stroke="black" x1="593.0" y1="367.0" x2="575.0" y2="291.0" stroke-width="0.5"/>
    <line stroke="black" x1="630.0" y1="1324.0" x2="606.0" y2="1301.0" stroke-width="0.5"/>
    <line stroke="black" x1="647.0" y1="1240.0" x2="540.0" y2="1270.0" stroke-width="0.5"/>
    <line stroke="black" x1="601.0" y1="241.0" x2="589.0" y2="251.0" stroke-width="0.5"/>
    <line stroke="black" x1="589.0" y1="200.0" x2="589.0" y2="251.0" stroke-width="0.5"/>
    <line stroke="black" x1="595.0" y1="283.0" x2="594.0" y2="302.0" stroke-width="0.5"/>
    <line stroke="black" x1="595.0" y1="325.0" x2="594.0" y2="302.0" stroke-width="0.5"/>
    <line stroke="black" x1="525.0" y1="55.0" x2="398.0" y2="277.0" stroke-width="0.5"/>
    <line stroke="black" x1="525.0" y1="55.0" x2="527.0" y2="75.0" stroke-width="0.5"/>
    <line stroke="black" x1="398.0" y1="277.0" x2="348.0" y2="797.0" stroke-width="0.5"/>
    <line stroke="black" x1="398.0" y1="277.0" x2="407.0" y2="823.0" stroke-width="0.5"/>
    <line stroke="black" x1="407.0" y1="823.0" x2="463.0" y2="968.0" stroke-width="0.5"/>
    <line stroke="black" x1="407.0" y1="823.0" x2="435.0" y2="676.0" stroke-width="0.5"/>
    <line stroke="black" x1="348.0" y1="797.0" x2="374.0" y2="1145.0" stroke-width="0.5"/>
    <line stroke="black" x1="435.0" y1="676.0" x2="435.0" y2="689.0" stroke-width="0.5"/>
    <line stroke="black" x1="435.0" y1="676.0" x2="444.0" y2="509.0" stroke-width="0.5"/>
    <line stroke="black" x1="435.0" y1="689.0" x2="448.0" y2="842.0" stroke-width="0.5"/>
    <line stroke="black" x1="463.0" y1="968.0" x2="560.0" y2="1009.0" stroke-width="0.5"/>
    <line stroke="black" x1="463.0" y1="968.0" x2="503.0" y2="919.0" stroke-width="0.5"/>
    <line stroke="black" x1="444.0" y1="509.0" x2="459.0" y2="604.0" stroke-width="0.5"/>
    <line stroke="black" x1="444.0" y1="509.0" x2="468.0" y2="385.0" stroke-width="0.5"/>
    <line stroke="black" x1="374.0" y1="1145.0" x2="431.0" y2="1195.0" stroke-width="0.5"/>
    <line stroke="black" x1="374.0" y1="1145.0" x2="469.0" y2="1085.0" stroke-width="0.5"/>
    <line stroke="black" x1="459.0" y1="604.0" x2="463.0" y2="671.0" stroke-width="0.5"/>
    <line stroke="black" x1="459.0" y1="604.0" x2="486.0" y2="554.0" stroke-width="0.5"/>
    <line stroke="black" x1="468.0" y1="385.0" x2="502.0" y2="457.0" stroke-width="0.5"/>
    <line stroke="black" x1="468.0" y1="385.0" x2="494.0" y2="350.0" stroke-width="0.5"/>
    <line stroke="black" x1="431.0" y1="1195.0" x2="448.0" y2="1234.0" stroke-width="0.5"/>
    <line stroke="black" x1="463.0" y1="671.0" x2="458.0" y2="675.0" stroke-width="0.5"/>
    <line stroke="black" x1="463.0" y1="671.0" x2="479.0" y2="693.0" stroke-width="0.5"/>
    <line stroke="black" x1="463.0" y1="671.0" x2="452.0" y2="683.0" stroke-width="0.5"/>
    <line stroke="black" x1="486.0" y1="554.0" x2="488.0" y2="574.0" stroke-width="0.5"/>
    <line stroke="black" x1="486.0" y1="554.0" x2="488.0" y2="533.0" stroke-width="0.5"/>
    <line stroke="black" x1="458.0" y1="675.0" x2="452.0" y2="683.0" stroke-width="0.5"/>
    <line stroke="black" x1="448.0" y1="1234.0" x2="540.0" y2="1270.0" stroke-width="0.5"/>
    <line stroke="black" x1="494.0" y1="350.0" x2="575.0" y2="291.0" stroke-width="0.5"/>
    <line stroke="black" x1="479.0" y1="693.0" x2="486.0" y2="729.0" stroke-width="0.5"/>
    <line stroke="black" x1="486.0" y1="729.0" x2="490.0" y2="759.0" stroke-width="0.5"/>
    <line stroke="black" x1="490.0" y1="759.0" x2="492.0" y2="741.0" stroke-width="0.5"/>
    <line stroke="black" x1="540.0" y1="1270.0" x2="606.0" y2="1301.0" stroke-width="0.5"/>
    <line stroke="black" x1="575.0" y1="291.0" x2="581.0" y2="211.0" stroke-width="0.5"/>
    <line stroke="black" x1="581.0" y1="211.0" x2="589.0" y2="251.0" stroke-width="0.5"/>
    <line stroke="black" x1="581.0" y1="211.0" x2="586.0" y2="159.0" stroke-width="0.5"/>
    <line stroke="black" x1="589.0" y1="251.0" x2="594.0" y2="302.0" stroke-width="0.5"/>
    <line stroke="black" x1="348.0" y1="797.0" x2="505.0" y2="1383.0" stroke-width="0.5"/>
    <line stroke="black" x1="435.0" y1="676.0" x2="435.0" y2="676.0" stroke-width="0.5"/>
    <line stroke="black" x1="435.0" y1="676.0" x2="435.0" y2="689.0" stroke-width="0.5"/>
    <line stroke="black" x1="478.0" y1="1074.0" x2="469.0" y2="1085.0" stroke-width="0.5"/>
    <line stroke="black" x1="603.0" y1="1199.0" x2="448.0" y2="1234.0" stroke-width="0.5"/>
    <line stroke="black" x1="502.0" y1="457.0" x2="502.0" y2="457.0" stroke-width="0.5"/>
    <line stroke="black" x1="586.0" y1="616.0" x2="463.0" y2="671.0" stroke-width="0.5"/>
    <line stroke="black" x1="568.0" y1="1365.0" x2="505.0" y2="1383.0" stroke-width="0.5"/>
    <line stroke="black" x1="593.0" y1="949.0" x2="503.0" y2="919.0" stroke-width="0.5"/>
    <line stroke="black" x1="568.0" y1="34.0" x2="525.0" y2="55.0" stroke-width="0.5"/>
    <line stroke="black" x1="660.0" y1="1407.0" x2="505.0" y2="1383.0" stroke-width="0.5"/>
    <line stroke="black" x1="601.0" y1="1032.0" x2="560.0" y2="1009.0" stroke-width="0.5"/>
    <line stroke="black" x1="632.0" y1="991.0" x2="560.0" y2="1009.0" stroke-width="0.5"/>
    <line stroke="black" x1="618.0" y1="1281.0" x2="606.0" y2="1301.0" stroke-width="0.5"/>
   </g>
  </g>
 </svg>
</svg>
