<?xml version="1.0" encoding="UTF-8"?>
<svg height="800.0" width="700.0" xmlns="http://www.w3.org/2000/svg">
 <svg>
  <g>
   <g>
    <g>
     <circle stroke="black" stroke-width="0.5" fill="#aaffff" cx="206.0" cy="331.0" r="1.0"/>
     <text stroke="none" x="206.0" y="331.0" font-size="10.0" font-family="helvetica">NT1.1</text>
    </g>
    <g>
     <circle stroke="black" stroke-width="0.5" fill="#aaffff" cx="227.0" cy="265.0" r="1.0"/>
     <text stroke="none" x="227.0" y="265.0" font-size="10.0" font-family="helvetica">NT1.2</text>
    </g>
    <g>
     <circle stroke="black" stroke-width="0.5" fill="#aaffff" cx="236.0" cy="395.0" r="1.0"/>
     <text stroke="none" x="236.0" y="395.0" font-size="10.0" font-family="helvetica">NT1.3</text>
    </g>
    <g>
     <circle stroke="black" stroke-width="0.5" fill="#aaffff" cx="251.0" cy="193.0" r="1.0"/>
     <text stroke="none" x="251.0" y="193.0" font-size="10.0" font-family="helvetica">NT1.4</text>
    </g>
    <g>
     <circle stroke="black" stroke-width="0.5" fill="#aaffff" cx="273.0" cy="139.0" r="1.0"/>
     <text stroke="none" x="273.0" y="139.0" font-size="10.0" font-family="helvetica">NT1.5</text>
    </g>
    <g>
     <circle stroke="black" stroke-width="0.5" fill="#aaffff" cx="291.0" cy="101.0" r="1.0"/>
     <text stroke="none" x="291.0" y="101.0" font-size="10.0" font-family="helvetica">NT1.6</text>
    </g>
    <g>
     <circle stroke="black" stroke-width="0.5" fill="#aaffff" cx="313.0" cy="66.0" r="1.0"/>
     <text stroke="none" x="313.0" y="66.0" font-size="10.0" font-family="helvetica">NT1.7</text>
    </g>
    <g>
     <circle stroke="black" stroke-width="0.5" fill="#aaffff" cx="359.0" cy="245.0" r="1.0"/>
     <text stroke="none" x="359.0" y="245.0" font-size="10.0" font-family="helvetica">NT1.8</text>
    </g>
    <g>
     <circle stroke="black" stroke-width="0.5" fill="#aaffff" cx="373.0" cy="275.0" r="1.0"/>
     <text stroke="none" x="373.0" y="275.0" font-size="10.0" font-family="helvetica">NT1.9</text>
    </g>
    <g>
     <circle stroke="black" stroke-width="0.5" fill="#aaffff" cx="379.0" cy="36.0" r="1.0"/>
     <text stroke="none" x="379.0" y="36.0" font-size="20.0" font-family="helvetica">100</text>
    </g>
    <g>
     <circle stroke="black" stroke-width="0.5" fill="#aaffff" cx="395.0" cy="176.0" r="1.0"/>
     <text stroke="none" x="395.0" y="176.0" font-size="20.0" font-family="helvetica">Haloferax volcanii ATCC 296O5T (KOO421)</text>
    </g>
    <g>
     <circle stroke="black" stroke-width="0.5" fill="#aaffff" cx="412.0" cy="135.0" r="1.0"/>
     <text stroke="none" x="412.0" y="135.0" font-size="20.0" font-family="helvetica">Halopelagius inordinatus R05-2T (EU887284)</text>
    </g>
    <g>
     <circle stroke="black" stroke-width="0.5" fill="#aaffff" cx="415.0" cy="296.0" r="1.0"/>
     <text stroke="none" x="415.0" y="296.0" font-size="20.0" font-family="helvetica">Halogranum amylolyticum TN N58T (GQ282623)</text>
    </g>
    <g>
     <circle stroke="black" stroke-width="0.5" fill="#aaffff" cx="418.0" cy="336.0" r="1.0"/>
     <text stroke="none" x="418.0" y="336.0" font-size="20.0" font-family="helvetica">Haloplanus natans JCM 14081 T (AB477975)</text>
    </g>
    <g>
     <circle stroke="black" stroke-width="0.5" fill="#aaffff" cx="427.0" cy="256.0" r="1.0"/>
     <text stroke="none" x="427.0" y="256.0" font-size="20.0" font-family="helvetica">Halogranum rubrum R02-1 1T (EU887283)</text>
    </g>
    <g>
     <circle stroke="black" stroke-width="0.5" fill="#aaffff" cx="433.0" cy="55.0" r="1.0"/>
     <text stroke="none" x="433.0" y="55.0" font-size="20.0" font-family="helvetica">Halosarcina pallida JCM 14848T (AB477980)</text>
    </g>
    <g>
     <circle stroke="black" stroke-width="0.5" fill="#aaffff" cx="438.0" cy="216.0" r="1.0"/>
     <text stroke="none" x="438.0" y="216.0" font-size="20.0" font-family="helvetica">Halogranum gelatinilyticum TNN44 T (GO282624)</text>
    </g>
    <g>
     <circle stroke="black" stroke-width="0.5" fill="#aaffff" cx="439.0" cy="15.0" r="1.0"/>
     <text stroke="none" x="439.0" y="15.0" font-size="20.0" font-family="helvetica">Halogeometricum borinquense PR 3T (AFOO2984)</text>
    </g>
    <g>
     <circle stroke="black" stroke-width="0.5" fill="#aaffff" cx="448.0" cy="416.0" r="1.0"/>
     <text stroke="none" x="448.0" y="416.0" font-size="20.0" font-family="helvetica">Halorubrum saccharovorum JCM 8865T (U1 7364)</text>
    </g>
    <g>
     <circle stroke="black" stroke-width="0.5" fill="#aaffff" cx="494.0" cy="376.0" r="1.0"/>
     <text stroke="none" x="494.0" y="376.0" font-size="20.0" font-family="helvetica">Halonotius pteroides 1 .15.5T (AY498641)</text>
    </g>
    <g>
     <circle stroke="black" stroke-width="0.5" fill="#aaffff" cx="539.0" cy="95.0" r="1.0"/>
     <text stroke="none" x="539.0" y="95.0" font-size="20.0" font-family="helvetica">Haloquadratum Walsbyi C23T (AY676200)</text>
    </g>
    <g>
     <circle stroke="black" stroke-width="0.5" fill="#aaffff" cx="539.0" cy="456.0" r="1.0"/>
     <text stroke="none" x="539.0" y="456.0" font-size="20.0" font-family="helvetica">Me thanospirillum hungateiJF-1T (NC_O0 7 796)</text>
    </g>
    <line stroke="black" x1="433.0" y1="55.0" x2="379.0" y2="36.0" stroke-width="0.5"/>
    <line stroke="black" x1="412.0" y1="135.0" x2="291.0" y2="101.0" stroke-width="0.5"/>
    <line stroke="black" x1="539.0" y1="95.0" x2="313.0" y2="66.0" stroke-width="0.5"/>
    <line stroke="black" x1="415.0" y1="296.0" x2="373.0" y2="275.0" stroke-width="0.5"/>
    <line stroke="black" x1="438.0" y1="216.0" x2="359.0" y2="245.0" stroke-width="0.5"/>
    <line stroke="black" x1="427.0" y1="256.0" x2="373.0" y2="275.0" stroke-width="0.5"/>
    <line stroke="black" x1="418.0" y1="336.0" x2="227.0" y2="265.0" stroke-width="0.5"/>
    <line stroke="black" x1="448.0" y1="416.0" x2="236.0" y2="395.0" stroke-width="0.5"/>
    <line stroke="black" x1="379.0" y1="36.0" x2="313.0" y2="66.0" stroke-width="0.5"/>
    <line stroke="black" x1="313.0" y1="66.0" x2="291.0" y2="101.0" stroke-width="0.5"/>
    <line stroke="black" x1="291.0" y1="101.0" x2="273.0" y2="139.0" stroke-width="0.5"/>
    <line stroke="black" x1="273.0" y1="139.0" x2="251.0" y2="193.0" stroke-width="0.5"/>
    <line stroke="black" x1="251.0" y1="193.0" x2="227.0" y2="265.0" stroke-width="0.5"/>
    <line stroke="black" x1="251.0" y1="193.0" x2="359.0" y2="245.0" stroke-width="0.5"/>
    <line stroke="black" x1="227.0" y1="265.0" x2="206.0" y2="331.0" stroke-width="0.5"/>
    <line stroke="black" x1="359.0" y1="245.0" x2="373.0" y2="275.0" stroke-width="0.5"/>
    <line stroke="black" x1="206.0" y1="331.0" x2="236.0" y2="395.0" stroke-width="0.5"/>
    <line stroke="black" x1="539.0" y1="456.0" x2="206.0" y2="331.0" stroke-width="0.5"/>
    <line stroke="black" x1="395.0" y1="176.0" x2="273.0" y2="139.0" stroke-width="0.5"/>
    <line stroke="black" x1="494.0" y1="376.0" x2="236.0" y2="395.0" stroke-width="0.5"/>
    <line stroke="black" x1="439.0" y1="15.0" x2="379.0" y2="36.0" stroke-width="0.5"/>
   </g>
  </g>
 </svg>
</svg>
