<?xml version="1.0" encoding="UTF-8"?>
<svg height="800.0" width="700.0" xmlns="http://www.w3.org/2000/svg">
 <svg>
  <g>
   <g>
    <g>
     <circle stroke="black" stroke-width="0.5" fill="#aaffff" cx="30.0" cy="603.0" r="1.0"/>
     <text stroke="none" x="30.0" y="603.0" font-size="10.0" font-family="helvetica">NT1.1</text>
    </g>
    <g>
     <circle stroke="black" stroke-width="0.5" fill="#aaffff" cx="61.0" cy="369.0" r="1.0"/>
     <text stroke="none" x="61.0" y="369.0" font-size="10.0" font-family="helvetica">NT1.2</text>
    </g>
    <g>
     <circle stroke="black" stroke-width="0.5" fill="#aaffff" cx="85.0" cy="834.0" r="1.0"/>
     <text stroke="none" x="85.0" y="834.0" font-size="10.0" font-family="helvetica">NT1.3</text>
    </g>
    <g>
     <circle stroke="black" stroke-width="0.5" fill="#aaffff" cx="105.0" cy="754.0" r="1.0"/>
     <text stroke="none" x="105.0" y="754.0" font-size="10.0" font-family="helvetica">NT1.4</text>
    </g>
    <g>
     <circle stroke="black" stroke-width="0.5" fill="#aaffff" cx="129.0" cy="203.0" r="1.0"/>
     <text stroke="none" x="129.0" y="203.0" font-size="10.0" font-family="helvetica">NT1.5</text>
    </g>
    <g>
     <circle stroke="black" stroke-width="0.5" fill="#aaffff" cx="236.0" cy="93.0" r="1.0"/>
     <text stroke="none" x="236.0" y="93.0" font-size="10.0" font-family="helvetica">NT1.6</text>
    </g>
    <g>
     <circle stroke="black" stroke-width="0.5" fill="#aaffff" cx="299.0" cy="699.0" r="1.0"/>
     <text stroke="none" x="299.0" y="699.0" font-size="20.0" font-family="helvetica">Haliscomenobacter hydrossis DSM 11007 (M58790)</text>
    </g>
    <g>
     <circle stroke="black" stroke-width="0.5" fill="#aaffff" cx="312.0" cy="532.0" r="1.0"/>
     <text stroke="none" x="312.0" y="532.0" font-size="10.0" font-family="helvetica">NT1.8</text>
    </g>
    <g>
     <circle stroke="black" stroke-width="0.5" fill="#aaffff" cx="331.0" cy="1032.0" r="1.0"/>
     <text stroke="none" x="331.0" y="1032.0" font-size="20.0" font-family="helvetica">Pedobacter piscium DSM 11725T (AJ438174)</text>
    </g>
    <g>
     <circle stroke="black" stroke-width="0.5" fill="#aaffff" cx="343.0" cy="809.0" r="1.0"/>
     <text stroke="none" x="343.0" y="809.0" font-size="20.0" font-family="helvetica">Lewinella nigricans ATCC 231477 (AFO39294)</text>
    </g>
    <g>
     <circle stroke="black" stroke-width="0.5" fill="#aaffff" cx="349.0" cy="477.0" r="1.0"/>
     <text stroke="none" x="349.0" y="477.0" font-size="20.0" font-family="helvetica">Thermonema lapsum ATCC 435427 (L11703)</text>
    </g>
    <g>
     <circle stroke="black" stroke-width="0.5" fill="#aaffff" cx="350.0" cy="920.0" r="1.0"/>
     <text stroke="none" x="350.0" y="920.0" font-size="20.0" font-family="helvetica">Saprospira grandis ATCC 23116 (AY527408)</text>
    </g>
    <g>
     <circle stroke="black" stroke-width="0.5" fill="#aaffff" cx="352.0" cy="311.0" r="1.0"/>
     <text stroke="none" x="352.0" y="311.0" font-size="10.0" font-family="helvetica">NT1.13</text>
    </g>
    <g>
     <circle stroke="black" stroke-width="0.5" fill="#aaffff" cx="363.0" cy="588.0" r="1.0"/>
     <text stroke="none" x="363.0" y="588.0" font-size="20.0" font-family="helvetica">Thermonema rossianum DSM 1030GT (Y08956)</text>
    </g>
    <g>
     <circle stroke="black" stroke-width="0.5" fill="#aaffff" cx="408.0" cy="36.0" r="1.0"/>
     <text stroke="none" x="408.0" y="36.0" font-size="20.0" font-family="helvetica">Rhodothermus marlnus DSM 4252T (AF217494)</text>
    </g>
    <g>
     <circle stroke="black" stroke-width="0.5" fill="#aaffff" cx="423.0" cy="368.0" r="1.0"/>
     <text stroke="none" x="423.0" y="368.0" font-size="20.0" font-family="helvetica">Balneola vulgaris DSM 17893T (AY576749)</text>
    </g>
    <g>
     <circle stroke="black" stroke-width="0.5" fill="#aaffff" cx="425.0" cy="257.0" r="1.0"/>
     <text stroke="none" x="425.0" y="257.0" font-size="20.0" font-family="helvetica">Strain CM41_14bT (EU008564)</text>
    </g>
    <g>
     <circle stroke="black" stroke-width="0.5" fill="#aaffff" cx="482.0" cy="146.0" r="1.0"/>
     <text stroke="none" x="482.0" y="146.0" font-size="20.0" font-family="helvetica">Salinibacter ruber DSM 138557 (AF323500)</text>
    </g>
    <line stroke="black" x1="482.0" y1="146.0" x2="236.0" y2="93.0" stroke-width="0.5"/>
    <line stroke="black" x1="349.0" y1="477.0" x2="312.0" y2="532.0" stroke-width="0.5"/>
    <line stroke="black" x1="363.0" y1="588.0" x2="312.0" y2="532.0" stroke-width="0.5"/>
    <line stroke="black" x1="236.0" y1="93.0" x2="129.0" y2="203.0" stroke-width="0.5"/>
    <line stroke="black" x1="129.0" y1="203.0" x2="61.0" y2="369.0" stroke-width="0.5"/>
    <line stroke="black" x1="129.0" y1="203.0" x2="352.0" y2="311.0" stroke-width="0.5"/>
    <line stroke="black" x1="61.0" y1="369.0" x2="30.0" y2="603.0" stroke-width="0.5"/>
    <line stroke="black" x1="61.0" y1="369.0" x2="312.0" y2="532.0" stroke-width="0.5"/>
    <line stroke="black" x1="30.0" y1="603.0" x2="85.0" y2="834.0" stroke-width="0.5"/>
    <line stroke="black" x1="85.0" y1="834.0" x2="105.0" y2="754.0" stroke-width="0.5"/>
    <line stroke="black" x1="331.0" y1="1032.0" x2="30.0" y2="603.0" stroke-width="0.5"/>
    <line stroke="black" x1="299.0" y1="699.0" x2="105.0" y2="754.0" stroke-width="0.5"/>
    <line stroke="black" x1="350.0" y1="920.0" x2="85.0" y2="834.0" stroke-width="0.5"/>
    <line stroke="black" x1="343.0" y1="809.0" x2="105.0" y2="754.0" stroke-width="0.5"/>
    <line stroke="black" x1="408.0" y1="36.0" x2="236.0" y2="93.0" stroke-width="0.5"/>
    <line stroke="black" x1="423.0" y1="368.0" x2="352.0" y2="311.0" stroke-width="0.5"/>
    <line stroke="black" x1="425.0" y1="257.0" x2="352.0" y2="311.0" stroke-width="0.5"/>
   </g>
  </g>
 </svg>
</svg>
