<?xml version="1.0" encoding="UTF-8"?>
<svg height="800.0" width="700.0" xmlns="http://www.w3.org/2000/svg">
 <svg>
  <g>
   <g>
    <g>
     <circle stroke="black" stroke-width="0.5" fill="#aaffff" cx="141.0" cy="1460.0" r="1.0"/>
     <text stroke="none" x="141.0" y="1460.0" font-size="10.0" font-family="helvetica">NT1.1</text>
    </g>
    <g>
     <circle stroke="black" stroke-width="0.5" fill="#aaffff" cx="169.0" cy="1325.0" r="1.0"/>
     <text stroke="none" x="169.0" y="1325.0" font-size="20.0" font-family="helvetica">59</text>
    </g>
    <g>
     <circle stroke="black" stroke-width="0.5" fill="#aaffff" cx="212.0" cy="1595.0" r="1.0"/>
     <text stroke="none" x="212.0" y="1595.0" font-size="20.0" font-family="helvetica">69</text>
    </g>
    <g>
     <circle stroke="black" stroke-width="0.5" fill="#aaffff" cx="245.0" cy="1210.0" r="1.0"/>
     <text stroke="none" x="245.0" y="1210.0" font-size="20.0" font-family="helvetica">84</text>
    </g>
    <g>
     <circle stroke="black" stroke-width="0.5" fill="#aaffff" cx="264.0" cy="1619.0" r="1.0"/>
     <text stroke="none" x="264.0" y="1619.0" font-size="10.0" font-family="helvetica">NT1.5</text>
    </g>
    <g>
     <circle stroke="black" stroke-width="0.5" fill="#aaffff" cx="272.0" cy="1084.0" r="1.0"/>
     <text stroke="none" x="272.0" y="1084.0" font-size="20.0" font-family="helvetica">53</text>
    </g>
    <g>
     <circle stroke="black" stroke-width="0.5" fill="#aaffff" cx="277.0" cy="1438.0" r="1.0"/>
     <text stroke="none" x="277.0" y="1438.0" font-size="20.0" font-family="helvetica">89</text>
    </g>
    <g>
     <circle stroke="black" stroke-width="0.5" fill="#aaffff" cx="305.0" cy="1197.0" r="1.0"/>
     <text stroke="none" x="305.0" y="1197.0" font-size="10.0" font-family="helvetica">NT1.8</text>
    </g>
    <g>
     <circle stroke="black" stroke-width="0.5" fill="#aaffff" cx="313.0" cy="970.0" r="1.0"/>
     <text stroke="none" x="313.0" y="970.0" font-size="10.0" font-family="helvetica">NT1.9</text>
    </g>
    <g>
     <circle stroke="black" stroke-width="0.5" fill="#aaffff" cx="318.0" cy="1668.0" r="1.0"/>
     <text stroke="none" x="318.0" y="1668.0" font-size="10.0" font-family="helvetica">NT1.10</text>
    </g>
    <g>
     <circle stroke="black" stroke-width="0.5" fill="#aaffff" cx="352.0" cy="870.0" r="1.0"/>
     <text stroke="none" x="352.0" y="870.0" font-size="10.0" font-family="helvetica">NT1.11</text>
    </g>
    <g>
     <circle stroke="black" stroke-width="0.5" fill="#aaffff" cx="377.0" cy="761.0" r="1.0"/>
     <text stroke="none" x="377.0" y="761.0" font-size="10.0" font-family="helvetica">NT1.12</text>
    </g>
    <g>
     <circle stroke="black" stroke-width="0.5" fill="#aaffff" cx="379.0" cy="1571.0" r="1.0"/>
     <text stroke="none" x="379.0" y="1571.0" font-size="20.0" font-family="helvetica"> Sphingopyxis terrae NBRC 150987 (D13727)</text>
    </g>
    <g>
     <circle stroke="black" stroke-width="0.5" fill="#aaffff" cx="387.0" cy="1158.0" r="1.0"/>
     <text stroke="none" x="387.0" y="1158.0" font-size="20.0" font-family="helvetica">91</text>
    </g>
    <g>
     <circle stroke="black" stroke-width="0.5" fill="#aaffff" cx="395.0" cy="1469.0" r="1.0"/>
     <text stroke="none" x="395.0" y="1469.0" font-size="20.0" font-family="helvetica">99</text>
    </g>
    <g>
     <circle stroke="black" stroke-width="0.5" fill="#aaffff" cx="400.0" cy="615.0" r="1.0"/>
     <text stroke="none" x="400.0" y="615.0" font-size="10.0" font-family="helvetica">NT1.16</text>
    </g>
    <g>
     <circle stroke="black" stroke-width="0.5" fill="#aaffff" cx="402.0" cy="1497.0" r="1.0"/>
     <text stroke="none" x="402.0" y="1497.0" font-size="20.0" font-family="helvetica">99</text>
    </g>
    <g>
     <circle stroke="black" stroke-width="0.5" fill="#aaffff" cx="404.0" cy="746.0" r="1.0"/>
     <text stroke="none" x="404.0" y="746.0" font-size="10.0" font-family="helvetica">NT1.18</text>
    </g>
    <g>
     <circle stroke="black" stroke-width="0.5" fill="#aaffff" cx="413.0" cy="1408.0" r="1.0"/>
     <text stroke="none" x="413.0" y="1408.0" font-size="20.0" font-family="helvetica"> Novosphingobium rosa IAM 142227 (D13945)</text>
    </g>
    <g>
     <circle stroke="black" stroke-width="0.5" fill="#aaffff" cx="415.0" cy="788.0" r="1.0"/>
     <text stroke="none" x="415.0" y="788.0" font-size="10.0" font-family="helvetica">NT1.20</text>
    </g>
    <g>
     <circle stroke="black" stroke-width="0.5" fill="#aaffff" cx="416.0" cy="482.0" r="1.0"/>
     <text stroke="none" x="416.0" y="482.0" font-size="10.0" font-family="helvetica">NT1.21</text>
    </g>
    <g>
     <circle stroke="black" stroke-width="0.5" fill="#aaffff" cx="424.0" cy="1068.0" r="1.0"/>
     <text stroke="none" x="424.0" y="1068.0" font-size="20.0" font-family="helvetica">96 </text>
    </g>
    <g>
     <circle stroke="black" stroke-width="0.5" fill="#aaffff" cx="435.0" cy="381.0" r="1.0"/>
     <text stroke="none" x="435.0" y="381.0" font-size="10.0" font-family="helvetica">NT1.23</text>
    </g>
    <g>
     <circle stroke="black" stroke-width="0.5" fill="#aaffff" cx="435.0" cy="580.0" r="1.0"/>
     <text stroke="none" x="435.0" y="580.0" font-size="10.0" font-family="helvetica">NT1.24</text>
    </g>
    <g>
     <circle stroke="black" stroke-width="0.5" fill="#aaffff" cx="440.0" cy="1603.0" r="1.0"/>
     <text stroke="none" x="440.0" y="1603.0" font-size="20.0" font-family="helvetica"> Sphingopyxis macrogoltabida EY-1 (AB255383)</text>
    </g>
    <g>
     <circle stroke="black" stroke-width="0.5" fill="#aaffff" cx="444.0" cy="1522.0" r="1.0"/>
     <text stroke="none" x="444.0" y="1522.0" font-size="10.0" font-family="helvetica">NT1.26</text>
    </g>
    <g>
     <circle stroke="black" stroke-width="0.5" fill="#aaffff" cx="446.0" cy="1539.0" r="1.0"/>
     <text stroke="none" x="446.0" y="1539.0" font-size="10.0" font-family="helvetica">NT1.27</text>
    </g>
    <g>
     <circle stroke="black" stroke-width="0.5" fill="#aaffff" cx="446.0" cy="906.0" r="1.0"/>
     <text stroke="none" x="446.0" y="906.0" font-size="20.0" font-family="helvetica">97</text>
    </g>
    <g>
     <circle stroke="black" stroke-width="0.5" fill="#aaffff" cx="446.0" cy="1134.0" r="1.0"/>
     <text stroke="none" x="446.0" y="1134.0" font-size="20.0" font-family="helvetica">91</text>
    </g>
    <g>
     <circle stroke="black" stroke-width="0.5" fill="#aaffff" cx="453.0" cy="615.0" r="1.0"/>
     <text stroke="none" x="453.0" y="615.0" font-size="10.0" font-family="helvetica">NT1.30</text>
    </g>
    <g>
     <circle stroke="black" stroke-width="0.5" fill="#aaffff" cx="456.0" cy="817.0" r="1.0"/>
     <text stroke="none" x="456.0" y="817.0" font-size="20.0" font-family="helvetica">71</text>
    </g>
    <g>
     <circle stroke="black" stroke-width="0.5" fill="#aaffff" cx="460.0" cy="1506.0" r="1.0"/>
     <text stroke="none" x="460.0" y="1506.0" font-size="20.0" font-family="helvetica">Novosphingobium aromaticivorans SMCC B0695 (U20755)</text>
    </g>
    <g>
     <circle stroke="black" stroke-width="0.5" fill="#aaffff" cx="463.0" cy="263.0" r="1.0"/>
     <text stroke="none" x="463.0" y="263.0" font-size="10.0" font-family="helvetica">NT1.33</text>
    </g>
    <g>
     <circle stroke="black" stroke-width="0.5" fill="#aaffff" cx="464.0" cy="704.0" r="1.0"/>
     <text stroke="none" x="464.0" y="704.0" font-size="10.0" font-family="helvetica">NT1.34</text>
    </g>
    <g>
     <circle stroke="black" stroke-width="0.5" fill="#aaffff" cx="468.0" cy="361.0" r="1.0"/>
     <text stroke="none" x="468.0" y="361.0" font-size="10.0" font-family="helvetica">NT1.35</text>
    </g>
    <g>
     <circle stroke="black" stroke-width="0.5" fill="#aaffff" cx="474.0" cy="1474.0" r="1.0"/>
     <text stroke="none" x="474.0" y="1474.0" font-size="20.0" font-family="helvetica">Novosphingobium subterraneum SMCC B04787 (U20773)</text>
    </g>
    <g>
     <circle stroke="black" stroke-width="0.5" fill="#aaffff" cx="475.0" cy="1335.0" r="1.0"/>
     <text stroke="none" x="475.0" y="1335.0" font-size="10.0" font-family="helvetica">NT1.37</text>
    </g>
    <g>
     <circle stroke="black" stroke-width="0.5" fill="#aaffff" cx="478.0" cy="1238.0" r="1.0"/>
     <text stroke="none" x="478.0" y="1238.0" font-size="10.0" font-family="helvetica">NT1.38</text>
    </g>
    <g>
     <circle stroke="black" stroke-width="0.5" fill="#aaffff" cx="481.0" cy="923.0" r="1.0"/>
     <text stroke="none" x="481.0" y="923.0" font-size="20.0" font-family="helvetica">Sphingomonas oligophenolica S2137 (AB018439)</text>
    </g>
    <g>
     <circle stroke="black" stroke-width="0.5" fill="#aaffff" cx="484.0" cy="680.0" r="1.0"/>
     <text stroke="none" x="484.0" y="680.0" font-size="10.0" font-family="helvetica">NT1.40</text>
    </g>
    <g>
     <circle stroke="black" stroke-width="0.5" fill="#aaffff" cx="490.0" cy="663.0" r="1.0"/>
     <text stroke="none" x="490.0" y="663.0" font-size="20.0" font-family="helvetica">Sphingomonas mali IFO 155007 (Y09638)</text>
    </g>
    <g>
     <circle stroke="black" stroke-width="0.5" fill="#aaffff" cx="491.0" cy="550.0" r="1.0"/>
     <text stroke="none" x="491.0" y="550.0" font-size="20.0" font-family="helvetica">39</text>
    </g>
    <g>
     <circle stroke="black" stroke-width="0.5" fill="#aaffff" cx="495.0" cy="165.0" r="1.0"/>
     <text stroke="none" x="495.0" y="165.0" font-size="10.0" font-family="helvetica">NT1.43</text>
    </g>
    <g>
     <circle stroke="black" stroke-width="0.5" fill="#aaffff" cx="496.0" cy="1360.0" r="1.0"/>
     <text stroke="none" x="496.0" y="1360.0" font-size="20.0" font-family="helvetica">99</text>
    </g>
    <g>
     <circle stroke="black" stroke-width="0.5" fill="#aaffff" cx="497.0" cy="1343.0" r="1.0"/>
     <text stroke="none" x="497.0" y="1343.0" font-size="20.0" font-family="helvetica">Sphingosinfcella micrncystinivorans MDB2 (AB219940)</text>
    </g>
    <g>
     <circle stroke="black" stroke-width="0.5" fill="#aaffff" cx="503.0" cy="399.0" r="1.0"/>
     <text stroke="none" x="503.0" y="399.0" font-size="20.0" font-family="helvetica">71</text>
    </g>
    <g>
     <circle stroke="black" stroke-width="0.5" fill="#aaffff" cx="504.0" cy="729.0" r="1.0"/>
     <text stroke="none" x="504.0" y="729.0" font-size="20.0" font-family="helvetica"> Sphingomonas asaccharolytica IFO 154997 (YO9639)</text>
    </g>
    <g>
     <circle stroke="black" stroke-width="0.5" fill="#aaffff" cx="505.0" cy="696.0" r="1.0"/>
     <text stroke="none" x="505.0" y="696.0" font-size="20.0" font-family="helvetica">Sphingomonas pruni IFO 154987 (Y09637)</text>
    </g>
    <g>
     <circle stroke="black" stroke-width="0.5" fill="#aaffff" cx="506.0" cy="1377.0" r="1.0"/>
     <text stroke="none" x="506.0" y="1377.0" font-size="20.0" font-family="helvetica">Sphingosinicella xenopeptidilytica 342W47 (AY950663)</text>
    </g>
    <g>
     <circle stroke="black" stroke-width="0.5" fill="#aaffff" cx="507.0" cy="233.0" r="1.0"/>
     <text stroke="none" x="507.0" y="233.0" font-size="10.0" font-family="helvetica">NT1.50</text>
    </g>
    <g>
     <circle stroke="black" stroke-width="0.5" fill="#aaffff" cx="511.0" cy="841.0" r="1.0"/>
     <text stroke="none" x="511.0" y="841.0" font-size="20.0" font-family="helvetica">100</text>
    </g>
    <g>
     <circle stroke="black" stroke-width="0.5" fill="#aaffff" cx="514.0" cy="825.0" r="1.0"/>
     <text stroke="none" x="514.0" y="825.0" font-size="10.0" font-family="helvetica">NT1.52</text>
    </g>
    <g>
     <circle stroke="black" stroke-width="0.5" fill="#aaffff" cx="514.0" cy="1311.0" r="1.0"/>
     <text stroke="none" x="514.0" y="1311.0" font-size="20.0" font-family="helvetica"> Sphingosinicella soli KSL-1257 (DQ087403)</text>
    </g>
    <g>
     <circle stroke="black" stroke-width="0.5" fill="#aaffff" cx="518.0" cy="858.0" r="1.0"/>
     <text stroke="none" x="518.0" y="858.0" font-size="20.0" font-family="helvetica">Sphingnmnnas melonis DAPP-PG 2247 (AB055863)</text>
    </g>
    <g>
     <circle stroke="black" stroke-width="0.5" fill="#aaffff" cx="528.0" cy="760.0" r="1.0"/>
     <text stroke="none" x="528.0" y="760.0" font-size="20.0" font-family="helvetica">Sphingomonas insulae DS-287 (EF363714)</text>
    </g>
    <g>
     <circle stroke="black" stroke-width="0.5" fill="#aaffff" cx="529.0" cy="1441.0" r="1.0"/>
     <text stroke="none" x="529.0" y="1441.0" font-size="20.0" font-family="helvetica">Novosphingobium capsulatum GIFU 115267 (D16147)</text>
    </g>
    <g>
     <circle stroke="black" stroke-width="0.5" fill="#aaffff" cx="532.0" cy="324.0" r="1.0"/>
     <text stroke="none" x="532.0" y="324.0" font-size="20.0" font-family="helvetica">95</text>
    </g>
    <g>
     <circle stroke="black" stroke-width="0.5" fill="#aaffff" cx="541.0" cy="979.0" r="1.0"/>
     <text stroke="none" x="541.0" y="979.0" font-size="20.0" font-family="helvetica">100</text>
    </g>
    <g>
     <circle stroke="black" stroke-width="0.5" fill="#aaffff" cx="554.0" cy="566.0" r="1.0"/>
     <text stroke="none" x="554.0" y="566.0" font-size="20.0" font-family="helvetica"> Sphingomonas dokdonensis DS-47 (DQ178975)</text>
    </g>
    <g>
     <circle stroke="black" stroke-width="0.5" fill="#aaffff" cx="554.0" cy="598.0" r="1.0"/>
     <text stroke="none" x="554.0" y="598.0" font-size="20.0" font-family="helvetica">Sphingomonas koreensis JSS267 (AF131296)</text>
    </g>
    <g>
     <circle stroke="black" stroke-width="0.5" fill="#aaffff" cx="556.0" cy="307.0" r="1.0"/>
     <text stroke="none" x="556.0" y="307.0" font-size="20.0" font-family="helvetica"> Sphingornonas desiccabilis CP1 D7 (AJ871435)</text>
    </g>
    <g>
     <circle stroke="black" stroke-width="0.5" fill="#aaffff" cx="560.0" cy="1085.0" r="1.0"/>
     <text stroke="none" x="560.0" y="1085.0" font-size="20.0" font-family="helvetica">Sphingomonas kaistensis PB567 (AY769083)</text>
    </g>
    <g>
     <circle stroke="black" stroke-width="0.5" fill="#aaffff" cx="563.0" cy="502.0" r="1.0"/>
     <text stroke="none" x="563.0" y="502.0" font-size="20.0" font-family="helvetica"> Sphingomonas panni C527 (AJ575818)</text>
    </g>
    <g>
     <circle stroke="black" stroke-width="0.5" fill="#aaffff" cx="567.0" cy="1149.0" r="1.0"/>
     <text stroke="none" x="567.0" y="1149.0" font-size="20.0" font-family="helvetica">Sphingomonas wittichii DSM 60147 (ABO21492)</text>
    </g>
    <g>
     <circle stroke="black" stroke-width="0.5" fill="#aaffff" cx="569.0" cy="1003.0" r="1.0"/>
     <text stroke="none" x="569.0" y="1003.0" font-size="10.0" font-family="helvetica">NT1.65</text>
    </g>
    <g>
     <circle stroke="black" stroke-width="0.5" fill="#aaffff" cx="570.0" cy="987.0" r="1.0"/>
     <text stroke="none" x="570.0" y="987.0" font-size="20.0" font-family="helvetica">Sphingomonas aurantiaca MA101b7 (AJ429236)</text>
    </g>
    <g>
     <circle stroke="black" stroke-width="0.5" fill="#aaffff" cx="570.0" cy="1021.0" r="1.0"/>
     <text stroke="none" x="570.0" y="1021.0" font-size="10.0" font-family="helvetica">NT1.67</text>
    </g>
    <g>
     <circle stroke="black" stroke-width="0.5" fill="#aaffff" cx="574.0" cy="1263.0" r="1.0"/>
     <text stroke="none" x="574.0" y="1263.0" font-size="20.0" font-family="helvetica">99</text>
    </g>
    <g>
     <circle stroke="black" stroke-width="0.5" fill="#aaffff" cx="578.0" cy="258.0" r="1.0"/>
     <text stroke="none" x="578.0" y="258.0" font-size="10.0" font-family="helvetica">NT1.69</text>
    </g>
    <g>
     <circle stroke="black" stroke-width="0.5" fill="#aaffff" cx="583.0" cy="97.0" r="1.0"/>
     <text stroke="none" x="583.0" y="97.0" font-size="20.0" font-family="helvetica">99</text>
    </g>
    <g>
     <circle stroke="black" stroke-width="0.5" fill="#aaffff" cx="584.0" cy="955.0" r="1.0"/>
     <text stroke="none" x="584.0" y="955.0" font-size="20.0" font-family="helvetica">Sphingomonas aemlata NW127 (AJ429240)</text>
    </g>
    <g>
     <circle stroke="black" stroke-width="0.5" fill="#aaffff" cx="586.0" cy="533.0" r="1.0"/>
     <text stroke="none" x="586.0" y="533.0" font-size="20.0" font-family="helvetica">Sphingomonas mucosissima CP173-27 (AM229669)</text>
    </g>
    <g>
     <circle stroke="black" stroke-width="0.5" fill="#aaffff" cx="588.0" cy="1116.0" r="1.0"/>
     <text stroke="none" x="588.0" y="1116.0" font-size="20.0" font-family="helvetica">Sphingomanas haloaromaticamans A1757 (X94101)</text>
    </g>
    <g>
     <circle stroke="black" stroke-width="0.5" fill="#aaffff" cx="593.0" cy="1182.0" r="1.0"/>
     <text stroke="none" x="593.0" y="1182.0" font-size="20.0" font-family="helvetica"> Sphingomonas fennica K1017 (AJOO9706)</text>
    </g>
    <g>
     <circle stroke="black" stroke-width="0.5" fill="#aaffff" cx="593.0" cy="56.0" r="1.0"/>
     <text stroke="none" x="593.0" y="56.0" font-size="10.0" font-family="helvetica">NT1.75</text>
    </g>
    <g>
     <circle stroke="black" stroke-width="0.5" fill="#aaffff" cx="599.0" cy="136.0" r="1.0"/>
     <text stroke="none" x="599.0" y="136.0" font-size="20.0" font-family="helvetica">74</text>
    </g>
    <g>
     <circle stroke="black" stroke-width="0.5" fill="#aaffff" cx="603.0" cy="1636.0" r="1.0"/>
     <text stroke="none" x="603.0" y="1636.0" font-size="20.0" font-family="helvetica">Sphingopyxis baekryungensis SW-1507 (AY608604)</text>
    </g>
    <g>
     <circle stroke="black" stroke-width="0.5" fill="#aaffff" cx="611.0" cy="209.0" r="1.0"/>
     <text stroke="none" x="611.0" y="209.0" font-size="20.0" font-family="helvetica"> Sphingomonas adhaesiva GIFU 114587 (D84527)</text>
    </g>
    <g>
     <circle stroke="black" stroke-width="0.5" fill="#aaffff" cx="611.0" cy="890.0" r="1.0"/>
     <text stroke="none" x="611.0" y="890.0" font-size="10.0" font-family="helvetica">NT1.79</text>
    </g>
    <g>
     <circle stroke="black" stroke-width="0.5" fill="#aaffff" cx="615.0" cy="340.0" r="1.0"/>
     <text stroke="none" x="615.0" y="340.0" font-size="20.0" font-family="helvetica">Sphfngomonas molluscorum An 187 (AB248285)</text>
    </g>
    <g>
     <circle stroke="black" stroke-width="0.5" fill="#aaffff" cx="618.0" cy="793.0" r="1.0"/>
     <text stroke="none" x="618.0" y="793.0" font-size="20.0" font-family="helvetica"> Sphingomonas abaci C427 (AJ575817)</text>
    </g>
    <g>
     <circle stroke="black" stroke-width="0.5" fill="#aaffff" cx="624.0" cy="1052.0" r="1.0"/>
     <text stroke="none" x="624.0" y="1052.0" font-size="20.0" font-family="helvetica">Sphingomonas jaspsi TDMA-167 (AB264131)</text>
    </g>
    <g>
     <circle stroke="black" stroke-width="0.5" fill="#aaffff" cx="626.0" cy="275.0" r="1.0"/>
     <text stroke="none" x="626.0" y="275.0" font-size="10.0" font-family="helvetica">NT1.83</text>
    </g>
    <g>
     <circle stroke="black" stroke-width="0.5" fill="#aaffff" cx="631.0" cy="112.0" r="1.0"/>
     <text stroke="none" x="631.0" y="112.0" font-size="20.0" font-family="helvetica">Sphingomonas pseudosanguinis G1 -27 (AM412238)</text>
    </g>
    <g>
     <circle stroke="black" stroke-width="0.5" fill="#aaffff" cx="631.0" cy="1214.0" r="1.0"/>
     <text stroke="none" x="631.0" y="1214.0" font-size="20.0" font-family="helvetica"> Sphingobium yanoikuyae NBRC 151027 (D13728)</text>
    </g>
    <g>
     <circle stroke="black" stroke-width="0.5" fill="#aaffff" cx="636.0" cy="631.0" r="1.0"/>
     <text stroke="none" x="636.0" y="631.0" font-size="20.0" font-family="helvetica"> Sphingomonas soli T5-047 (AB166883)</text>
    </g>
    <g>
     <circle stroke="black" stroke-width="0.5" fill="#aaffff" cx="636.0" cy="32.0" r="1.0"/>
     <text stroke="none" x="636.0" y="32.0" font-size="10.0" font-family="helvetica">NT1.87</text>
    </g>
    <g>
     <circle stroke="black" stroke-width="0.5" fill="#aaffff" cx="636.0" cy="428.0" r="1.0"/>
     <text stroke="none" x="636.0" y="428.0" font-size="20.0" font-family="helvetica">100</text>
    </g>
    <g>
     <circle stroke="black" stroke-width="0.5" fill="#aaffff" cx="638.0" cy="160.0" r="1.0"/>
     <text stroke="none" x="638.0" y="160.0" font-size="10.0" font-family="helvetica">NT1.89</text>
    </g>
    <g>
     <circle stroke="black" stroke-width="0.5" fill="#aaffff" cx="644.0" cy="404.0" r="1.0"/>
     <text stroke="none" x="644.0" y="404.0" font-size="20.0" font-family="helvetica"> Sphingnmnnas pituitosa EDIV7 (AJ243751)</text>
    </g>
    <g>
     <circle stroke="black" stroke-width="0.5" fill="#aaffff" cx="658.0" cy="16.0" r="1.0"/>
     <text stroke="none" x="658.0" y="16.0" font-size="10.0" font-family="helvetica">NT1.91</text>
    </g>
    <g>
     <circle stroke="black" stroke-width="0.5" fill="#aaffff" cx="664.0" cy="80.0" r="1.0"/>
     <text stroke="none" x="664.0" y="80.0" font-size="20.0" font-family="helvetica">Sphingomonas parapaucimobilis IFO 151007 (D13724)</text>
    </g>
    <g>
     <circle stroke="black" stroke-width="0.5" fill="#aaffff" cx="668.0" cy="1280.0" r="1.0"/>
     <text stroke="none" x="668.0" y="1280.0" font-size="20.0" font-family="helvetica">Sphingobium chlorophenolicum ATCC 337907 (X87161)</text>
    </g>
    <g>
     <circle stroke="black" stroke-width="0.5" fill="#aaffff" cx="670.0" cy="242.0" r="1.0"/>
     <text stroke="none" x="670.0" y="242.0" font-size="20.0" font-family="helvetica"> Sphingomonas phyllosphaerae FA1 (AY563441)</text>
    </g>
    <g>
     <circle stroke="black" stroke-width="0.5" fill="#aaffff" cx="674.0" cy="453.0" r="1.0"/>
     <text stroke="none" x="674.0" y="453.0" font-size="20.0" font-family="helvetica">99</text>
    </g>
    <g>
     <circle stroke="black" stroke-width="0.5" fill="#aaffff" cx="680.0" cy="436.0" r="1.0"/>
     <text stroke="none" x="680.0" y="436.0" font-size="10.0" font-family="helvetica">NT1.96</text>
    </g>
    <g>
     <circle stroke="black" stroke-width="0.5" fill="#aaffff" cx="685.0" cy="177.0" r="1.0"/>
     <text stroke="none" x="685.0" y="177.0" font-size="10.0" font-family="helvetica">NT1.97</text>
    </g>
    <g>
     <circle stroke="black" stroke-width="0.5" fill="#aaffff" cx="685.0" cy="470.0" r="1.0"/>
     <text stroke="none" x="685.0" y="470.0" font-size="20.0" font-family="helvetica">Sphingomonas azotifigens NBRC 154977 (AB217471)</text>
    </g>
    <g>
     <circle stroke="black" stroke-width="0.5" fill="#aaffff" cx="688.0" cy="144.0" r="1.0"/>
     <text stroke="none" x="688.0" y="144.0" font-size="20.0" font-family="helvetica"> Sphingomonas sanguinis IFO 139377 (D84529)</text>
    </g>
    <g>
     <circle stroke="black" stroke-width="0.5" fill="#aaffff" cx="689.0" cy="1247.0" r="1.0"/>
     <text stroke="none" x="689.0" y="1247.0" font-size="10.0" font-family="helvetica">NT1.100</text>
    </g>
    <g>
     <circle stroke="black" stroke-width="0.5" fill="#aaffff" cx="712.0" cy="371.0" r="1.0"/>
     <text stroke="none" x="712.0" y="371.0" font-size="10.0" font-family="helvetica">NT1.101</text>
    </g>
    <g>
     <circle stroke="black" stroke-width="0.5" fill="#aaffff" cx="720.0" cy="48.0" r="1.0"/>
     <text stroke="none" x="720.0" y="48.0" font-size="20.0" font-family="helvetica">Sphingomonas roseiflava MK3417 (D84520)</text>
    </g>
    <g>
     <circle stroke="black" stroke-width="0.5" fill="#aaffff" cx="5.0" cy="1564.0" r="1.0"/>
     <text stroke="none" x="5.0" y="1564.0" font-size="10.0" font-family="helvetica">NT1.103</text>
    </g>
    <line stroke="black" x1="720.0" y1="48.0" x2="636.0" y2="32.0" stroke-width="0.5"/>
    <line stroke="black" x1="664.0" y1="80.0" x2="593.0" y2="56.0" stroke-width="0.5"/>
    <line stroke="black" x1="631.0" y1="112.0" x2="599.0" y2="136.0" stroke-width="0.5"/>
    <line stroke="black" x1="688.0" y1="144.0" x2="638.0" y2="160.0" stroke-width="0.5"/>
    <line stroke="black" x1="611.0" y1="209.0" x2="507.0" y2="233.0" stroke-width="0.5"/>
    <line stroke="black" x1="670.0" y1="242.0" x2="578.0" y2="258.0" stroke-width="0.5"/>
    <line stroke="black" x1="556.0" y1="307.0" x2="532.0" y2="324.0" stroke-width="0.5"/>
    <line stroke="black" x1="615.0" y1="340.0" x2="532.0" y2="324.0" stroke-width="0.5"/>
    <line stroke="black" x1="644.0" y1="404.0" x2="636.0" y2="428.0" stroke-width="0.5"/>
    <line stroke="black" x1="563.0" y1="502.0" x2="435.0" y2="381.0" stroke-width="0.5"/>
    <line stroke="black" x1="685.0" y1="470.0" x2="674.0" y2="453.0" stroke-width="0.5"/>
    <line stroke="black" x1="554.0" y1="566.0" x2="491.0" y2="550.0" stroke-width="0.5"/>
    <line stroke="black" x1="554.0" y1="598.0" x2="453.0" y2="615.0" stroke-width="0.5"/>
    <line stroke="black" x1="586.0" y1="533.0" x2="491.0" y2="550.0" stroke-width="0.5"/>
    <line stroke="black" x1="636.0" y1="631.0" x2="453.0" y2="615.0" stroke-width="0.5"/>
    <line stroke="black" x1="490.0" y1="663.0" x2="484.0" y2="680.0" stroke-width="0.5"/>
    <line stroke="black" x1="504.0" y1="729.0" x2="464.0" y2="704.0" stroke-width="0.5"/>
    <line stroke="black" x1="505.0" y1="696.0" x2="484.0" y2="680.0" stroke-width="0.5"/>
    <line stroke="black" x1="528.0" y1="760.0" x2="415.0" y2="788.0" stroke-width="0.5"/>
    <line stroke="black" x1="518.0" y1="858.0" x2="511.0" y2="841.0" stroke-width="0.5"/>
    <line stroke="black" x1="481.0" y1="923.0" x2="446.0" y2="906.0" stroke-width="0.5"/>
    <line stroke="black" x1="618.0" y1="793.0" x2="456.0" y2="817.0" stroke-width="0.5"/>
    <line stroke="black" x1="584.0" y1="955.0" x2="541.0" y2="979.0" stroke-width="0.5"/>
    <line stroke="black" x1="570.0" y1="987.0" x2="569.0" y2="1003.0" stroke-width="0.5"/>
    <line stroke="black" x1="560.0" y1="1085.0" x2="424.0" y2="1068.0" stroke-width="0.5"/>
    <line stroke="black" x1="624.0" y1="1052.0" x2="424.0" y2="1068.0" stroke-width="0.5"/>
    <line stroke="black" x1="567.0" y1="1149.0" x2="446.0" y2="1134.0" stroke-width="0.5"/>
    <line stroke="black" x1="593.0" y1="1182.0" x2="387.0" y2="1158.0" stroke-width="0.5"/>
    <line stroke="black" x1="588.0" y1="1116.0" x2="446.0" y2="1134.0" stroke-width="0.5"/>
    <line stroke="black" x1="631.0" y1="1214.0" x2="478.0" y2="1238.0" stroke-width="0.5"/>
    <line stroke="black" x1="497.0" y1="1343.0" x2="496.0" y2="1360.0" stroke-width="0.5"/>
    <line stroke="black" x1="514.0" y1="1311.0" x2="475.0" y2="1335.0" stroke-width="0.5"/>
    <line stroke="black" x1="506.0" y1="1377.0" x2="496.0" y2="1360.0" stroke-width="0.5"/>
    <line stroke="black" x1="668.0" y1="1280.0" x2="574.0" y2="1263.0" stroke-width="0.5"/>
    <line stroke="black" x1="413.0" y1="1408.0" x2="277.0" y2="1438.0" stroke-width="0.5"/>
    <line stroke="black" x1="460.0" y1="1506.0" x2="444.0" y2="1522.0" stroke-width="0.5"/>
    <line stroke="black" x1="474.0" y1="1474.0" x2="402.0" y2="1497.0" stroke-width="0.5"/>
    <line stroke="black" x1="529.0" y1="1441.0" x2="395.0" y2="1469.0" stroke-width="0.5"/>
    <line stroke="black" x1="379.0" y1="1571.0" x2="212.0" y2="1595.0" stroke-width="0.5"/>
    <line stroke="black" x1="440.0" y1="1603.0" x2="264.0" y2="1619.0" stroke-width="0.5"/>
    <line stroke="black" x1="603.0" y1="1636.0" x2="264.0" y2="1619.0" stroke-width="0.5"/>
    <line stroke="black" x1="593.0" y1="56.0" x2="583.0" y2="97.0" stroke-width="0.5"/>
    <line stroke="black" x1="583.0" y1="97.0" x2="495.0" y2="165.0" stroke-width="0.5"/>
    <line stroke="black" x1="583.0" y1="97.0" x2="599.0" y2="136.0" stroke-width="0.5"/>
    <line stroke="black" x1="495.0" y1="165.0" x2="463.0" y2="263.0" stroke-width="0.5"/>
    <line stroke="black" x1="495.0" y1="165.0" x2="507.0" y2="233.0" stroke-width="0.5"/>
    <line stroke="black" x1="463.0" y1="263.0" x2="435.0" y2="381.0" stroke-width="0.5"/>
    <line stroke="black" x1="463.0" y1="263.0" x2="468.0" y2="361.0" stroke-width="0.5"/>
    <line stroke="black" x1="435.0" y1="381.0" x2="416.0" y2="482.0" stroke-width="0.5"/>
    <line stroke="black" x1="468.0" y1="361.0" x2="532.0" y2="324.0" stroke-width="0.5"/>
    <line stroke="black" x1="503.0" y1="399.0" x2="636.0" y2="428.0" stroke-width="0.5"/>
    <line stroke="black" x1="416.0" y1="482.0" x2="400.0" y2="615.0" stroke-width="0.5"/>
    <line stroke="black" x1="416.0" y1="482.0" x2="435.0" y2="580.0" stroke-width="0.5"/>
    <line stroke="black" x1="435.0" y1="580.0" x2="453.0" y2="615.0" stroke-width="0.5"/>
    <line stroke="black" x1="435.0" y1="580.0" x2="491.0" y2="550.0" stroke-width="0.5"/>
    <line stroke="black" x1="400.0" y1="615.0" x2="377.0" y2="761.0" stroke-width="0.5"/>
    <line stroke="black" x1="400.0" y1="615.0" x2="404.0" y2="746.0" stroke-width="0.5"/>
    <line stroke="black" x1="404.0" y1="746.0" x2="415.0" y2="788.0" stroke-width="0.5"/>
    <line stroke="black" x1="404.0" y1="746.0" x2="464.0" y2="704.0" stroke-width="0.5"/>
    <line stroke="black" x1="377.0" y1="761.0" x2="352.0" y2="870.0" stroke-width="0.5"/>
    <line stroke="black" x1="415.0" y1="788.0" x2="456.0" y2="817.0" stroke-width="0.5"/>
    <line stroke="black" x1="464.0" y1="704.0" x2="484.0" y2="680.0" stroke-width="0.5"/>
    <line stroke="black" x1="352.0" y1="870.0" x2="313.0" y2="970.0" stroke-width="0.5"/>
    <line stroke="black" x1="352.0" y1="870.0" x2="541.0" y2="979.0" stroke-width="0.5"/>
    <line stroke="black" x1="313.0" y1="970.0" x2="272.0" y2="1084.0" stroke-width="0.5"/>
    <line stroke="black" x1="313.0" y1="970.0" x2="424.0" y2="1068.0" stroke-width="0.5"/>
    <line stroke="black" x1="272.0" y1="1084.0" x2="245.0" y2="1210.0" stroke-width="0.5"/>
    <line stroke="black" x1="272.0" y1="1084.0" x2="305.0" y2="1197.0" stroke-width="0.5"/>
    <line stroke="black" x1="305.0" y1="1197.0" x2="478.0" y2="1238.0" stroke-width="0.5"/>
    <line stroke="black" x1="305.0" y1="1197.0" x2="387.0" y2="1158.0" stroke-width="0.5"/>
    <line stroke="black" x1="245.0" y1="1210.0" x2="169.0" y2="1325.0" stroke-width="0.5"/>
    <line stroke="black" x1="245.0" y1="1210.0" x2="475.0" y2="1335.0" stroke-width="0.5"/>
    <line stroke="black" x1="387.0" y1="1158.0" x2="446.0" y2="1134.0" stroke-width="0.5"/>
    <line stroke="black" x1="169.0" y1="1325.0" x2="141.0" y2="1460.0" stroke-width="0.5"/>
    <line stroke="black" x1="169.0" y1="1325.0" x2="277.0" y2="1438.0" stroke-width="0.5"/>
    <line stroke="black" x1="141.0" y1="1460.0" x2="212.0" y2="1595.0" stroke-width="0.5"/>
    <line stroke="black" x1="475.0" y1="1335.0" x2="496.0" y2="1360.0" stroke-width="0.5"/>
    <line stroke="black" x1="277.0" y1="1438.0" x2="395.0" y2="1469.0" stroke-width="0.5"/>
    <line stroke="black" x1="212.0" y1="1595.0" x2="264.0" y2="1619.0" stroke-width="0.5"/>
    <line stroke="black" x1="395.0" y1="1469.0" x2="402.0" y2="1497.0" stroke-width="0.5"/>
    <line stroke="black" x1="5.0" y1="1564.0" x2="141.0" y2="1460.0" stroke-width="0.5"/>
   </g>
  </g>
 </svg>
</svg>
