<?xml version="1.0" encoding="UTF-8"?>
<svg height="800.0" width="700.0" xmlns="http://www.w3.org/2000/svg">
 <svg>
  <g>
   <g>
    <g>
     <circle stroke="black" stroke-width="0.5" fill="#aaffff" cx="1.0" cy="205.0" r="1.0"/>
     <text stroke="none" x="1.0" y="205.0" font-size="20.0" font-family="helvetica"/>
    </g>
    <g>
     <circle stroke="black" stroke-width="0.5" fill="#aaffff" cx="22.0" cy="205.0" r="1.0"/>
     <text stroke="none" x="22.0" y="205.0" font-size="10.0" font-family="helvetica">NT1.2</text>
    </g>
    <g>
     <circle stroke="black" stroke-width="0.5" fill="#aaffff" cx="83.0" cy="316.0" r="1.0"/>
     <text stroke="none" x="83.0" y="316.0" font-size="20.0" font-family="helvetica">82</text>
    </g>
    <g>
     <circle stroke="black" stroke-width="0.5" fill="#aaffff" cx="181.0" cy="61.0" r="1.0"/>
     <text stroke="none" x="181.0" y="61.0" font-size="20.0" font-family="helvetica">100</text>
    </g>
    <g>
     <circle stroke="black" stroke-width="0.5" fill="#aaffff" cx="253.0" cy="122.0" r="1.0"/>
     <text stroke="none" x="253.0" y="122.0" font-size="20.0" font-family="helvetica">95</text>
    </g>
    <g>
     <circle stroke="black" stroke-width="0.5" fill="#aaffff" cx="286.0" cy="398.0" r="1.0"/>
     <text stroke="none" x="286.0" y="398.0" font-size="20.0" font-family="helvetica">100</text>
    </g>
    <g>
     <circle stroke="black" stroke-width="0.5" fill="#aaffff" cx="341.0" cy="234.0" r="1.0"/>
     <text stroke="none" x="341.0" y="234.0" font-size="20.0" font-family="helvetica">100</text>
    </g>
    <g>
     <circle stroke="black" stroke-width="0.5" fill="#aaffff" cx="413.0" cy="486.0" r="1.0"/>
     <text stroke="none" x="413.0" y="486.0" font-size="20.0" font-family="helvetica">100</text>
    </g>
    <g>
     <circle stroke="black" stroke-width="0.5" fill="#aaffff" cx="437.0" cy="614.0" r="1.0"/>
     <text stroke="none" x="437.0" y="614.0" font-size="10.0" font-family="helvetica">NT1.9</text>
    </g>
    <g>
     <circle stroke="black" stroke-width="0.5" fill="#aaffff" cx="484.0" cy="450.0" r="1.0"/>
     <text stroke="none" x="484.0" y="450.0" font-size="20.0" font-family="helvetica">100</text>
    </g>
    <g>
     <circle stroke="black" stroke-width="0.5" fill="#aaffff" cx="488.0" cy="408.0" r="1.0"/>
     <text stroke="none" x="488.0" y="408.0" font-size="10.0" font-family="helvetica">NT1.11</text>
    </g>
    <g>
     <circle stroke="black" stroke-width="0.5" fill="#aaffff" cx="490.0" cy="762.0" r="1.0"/>
     <text stroke="none" x="490.0" y="762.0" font-size="20.0" font-family="helvetica">100</text>
    </g>
    <g>
     <circle stroke="black" stroke-width="0.5" fill="#aaffff" cx="491.0" cy="705.0" r="1.0"/>
     <text stroke="none" x="491.0" y="705.0" font-size="10.0" font-family="helvetica">NT1.13</text>
    </g>
    <g>
     <circle stroke="black" stroke-width="0.5" fill="#aaffff" cx="493.0" cy="359.0" r="1.0"/>
     <text stroke="none" x="493.0" y="359.0" font-size="10.0" font-family="helvetica">NT1.14</text>
    </g>
    <g>
     <circle stroke="black" stroke-width="0.5" fill="#aaffff" cx="494.0" cy="839.0" r="1.0"/>
     <text stroke="none" x="494.0" y="839.0" font-size="10.0" font-family="helvetica">NT1.15</text>
    </g>
    <g>
     <circle stroke="black" stroke-width="0.5" fill="#aaffff" cx="495.0" cy="755.0" r="1.0"/>
     <text stroke="none" x="495.0" y="755.0" font-size="20.0" font-family="helvetica">Peptostreptococcus anaerobius NCTC 114607 (AY326462)</text>
    </g>
    <g>
     <circle stroke="black" stroke-width="0.5" fill="#aaffff" cx="496.0" cy="1004.0" r="1.0"/>
     <text stroke="none" x="496.0" y="1004.0" font-size="10.0" font-family="helvetica">NT1.17</text>
    </g>
    <g>
     <circle stroke="black" stroke-width="0.5" fill="#aaffff" cx="497.0" cy="36.0" r="1.0"/>
     <text stroke="none" x="497.0" y="36.0" font-size="20.0" font-family="helvetica">100</text>
    </g>
    <g>
     <circle stroke="black" stroke-width="0.5" fill="#aaffff" cx="497.0" cy="955.0" r="1.0"/>
     <text stroke="none" x="497.0" y="955.0" font-size="10.0" font-family="helvetica">NT1.19</text>
    </g>
    <g>
     <circle stroke="black" stroke-width="0.5" fill="#aaffff" cx="500.0" cy="955.0" r="1.0"/>
     <text stroke="none" x="500.0" y="955.0" font-size="10.0" font-family="helvetica">NT1.20</text>
    </g>
    <g>
     <circle stroke="black" stroke-width="0.5" fill="#aaffff" cx="504.0" cy="655.0" r="1.0"/>
     <text stroke="none" x="504.0" y="655.0" font-size="10.0" font-family="helvetica">NT1.21</text>
    </g>
    <g>
     <circle stroke="black" stroke-width="0.5" fill="#aaffff" cx="507.0" cy="309.0" r="1.0"/>
     <text stroke="none" x="507.0" y="309.0" font-size="20.0" font-family="helvetica">Clostridium hiranonis HD-17 (AB023971)</text>
    </g>
    <g>
     <circle stroke="black" stroke-width="0.5" fill="#aaffff" cx="540.0" cy="259.0" r="1.0"/>
     <text stroke="none" x="540.0" y="259.0" font-size="20.0" font-family="helvetica">Filifactor villosus DSM 16457 (AF537211)</text>
    </g>
    <g>
     <circle stroke="black" stroke-width="0.5" fill="#aaffff" cx="540.0" cy="209.0" r="1.0"/>
     <text stroke="none" x="540.0" y="209.0" font-size="20.0" font-family="helvetica">Filifactor alocis ATCC 358967 (AJ006962)</text>
    </g>
    <g>
     <circle stroke="black" stroke-width="0.5" fill="#aaffff" cx="549.0" cy="160.0" r="1.0"/>
     <text stroke="none" x="549.0" y="160.0" font-size="20.0" font-family="helvetica">Peptoniphilus asaccharolyticus CCUG 99887 (AF542228)</text>
    </g>
    <g>
     <circle stroke="black" stroke-width="0.5" fill="#aaffff" cx="633.0" cy="109.0" r="1.0"/>
     <text stroke="none" x="633.0" y="109.0" font-size="20.0" font-family="helvetica">Peptoniphilus harei DSM 100207 (Y07839)</text>
    </g>
    <g>
     <circle stroke="black" stroke-width="0.5" fill="#aaffff" cx="690.0" cy="11.0" r="1.0"/>
     <text stroke="none" x="690.0" y="11.0" font-size="10.0" font-family="helvetica">NT1.27</text>
    </g>
    <g>
     <circle stroke="black" stroke-width="0.5" fill="#aaffff" cx="713.0" cy="60.0" r="1.0"/>
     <text stroke="none" x="713.0" y="60.0" font-size="20.0" font-family="helvetica">Anaerococcus vaginalis JCM 8138T (D14146)</text>
    </g>
    <line stroke="black" x1="713.0" y1="60.0" x2="497.0" y2="36.0" stroke-width="0.5"/>
    <line stroke="black" x1="1.0" y1="205.0" x2="22.0" y2="205.0" stroke-width="0.5"/>
    <line stroke="black" x1="549.0" y1="160.0" x2="253.0" y2="122.0" stroke-width="0.5"/>
    <line stroke="black" x1="633.0" y1="109.0" x2="253.0" y2="122.0" stroke-width="0.5"/>
    <line stroke="black" x1="540.0" y1="259.0" x2="341.0" y2="234.0" stroke-width="0.5"/>
    <line stroke="black" x1="540.0" y1="209.0" x2="341.0" y2="234.0" stroke-width="0.5"/>
    <line stroke="black" x1="507.0" y1="309.0" x2="286.0" y2="398.0" stroke-width="0.5"/>
    <line stroke="black" x1="181.0" y1="61.0" x2="22.0" y2="205.0" stroke-width="0.5"/>
    <line stroke="black" x1="181.0" y1="61.0" x2="253.0" y2="122.0" stroke-width="0.5"/>
    <line stroke="black" x1="83.0" y1="316.0" x2="286.0" y2="398.0" stroke-width="0.5"/>
    <line stroke="black" x1="83.0" y1="316.0" x2="341.0" y2="234.0" stroke-width="0.5"/>
    <line stroke="black" x1="22.0" y1="205.0" x2="83.0" y2="316.0" stroke-width="0.5"/>
    <line stroke="black" x1="495.0" y1="755.0" x2="494.0" y2="839.0" stroke-width="0.5"/>
   </g>
  </g>
 </svg>
</svg>
