<?xml version="1.0" encoding="UTF-8"?>
<svg height="800.0" width="700.0" xmlns="http://www.w3.org/2000/svg">
 <svg>
  <g>
   <g>
    <g>
     <circle stroke="black" stroke-width="0.5" fill="#aaffff" cx="7.0" cy="1015.0" r="1.0"/>
     <text stroke="none" x="7.0" y="1015.0" font-size="10.0" font-family="helvetica">NT1.1</text>
    </g>
    <g>
     <circle stroke="black" stroke-width="0.5" fill="#aaffff" cx="227.0" cy="637.0" r="1.0"/>
     <text stroke="none" x="227.0" y="637.0" font-size="10.0" font-family="helvetica">NT1.2</text>
    </g>
    <g>
     <circle stroke="black" stroke-width="0.5" fill="#aaffff" cx="292.0" cy="1015.0" r="1.0"/>
     <text stroke="none" x="292.0" y="1015.0" font-size="20.0" font-family="helvetica">Sporopachydermia Iactativora Y-1 1 591 7</text>
    </g>
    <g>
     <circle stroke="black" stroke-width="0.5" fill="#aaffff" cx="331.0" cy="300.0" r="1.0"/>
     <text stroke="none" x="331.0" y="300.0" font-size="10.0" font-family="helvetica">NT1.4</text>
    </g>
    <g>
     <circle stroke="black" stroke-width="0.5" fill="#aaffff" cx="406.0" cy="975.0" r="1.0"/>
     <text stroke="none" x="406.0" y="975.0" font-size="20.0" font-family="helvetica">Sugiyamaella smithiae Y-178507</text>
    </g>
    <g>
     <circle stroke="black" stroke-width="0.5" fill="#aaffff" cx="462.0" cy="559.0" r="1.0"/>
     <text stroke="none" x="462.0" y="559.0" font-size="10.0" font-family="helvetica">NT1.6</text>
    </g>
    <g>
     <circle stroke="black" stroke-width="0.5" fill="#aaffff" cx="487.0" cy="1058.0" r="1.0"/>
     <text stroke="none" x="487.0" y="1058.0" font-size="20.0" font-family="helvetica">Trigonopsis variabilis Y-15797</text>
    </g>
    <g>
     <circle stroke="black" stroke-width="0.5" fill="#aaffff" cx="506.0" cy="37.0" r="1.0"/>
     <text stroke="none" x="506.0" y="37.0" font-size="10.0" font-family="helvetica">NT1.8</text>
    </g>
    <g>
     <circle stroke="black" stroke-width="0.5" fill="#aaffff" cx="530.0" cy="254.0" r="1.0"/>
     <text stroke="none" x="530.0" y="254.0" font-size="20.0" font-family="helvetica">51</text>
    </g>
    <g>
     <circle stroke="black" stroke-width="0.5" fill="#aaffff" cx="546.0" cy="867.0" r="1.0"/>
     <text stroke="none" x="546.0" y="867.0" font-size="10.0" font-family="helvetica">NT1.10</text>
    </g>
    <g>
     <circle stroke="black" stroke-width="0.5" fill="#aaffff" cx="593.0" cy="406.0" r="1.0"/>
     <text stroke="none" x="593.0" y="406.0" font-size="10.0" font-family="helvetica">NT1.11</text>
    </g>
    <g>
     <circle stroke="black" stroke-width="0.5" fill="#aaffff" cx="607.0" cy="829.0" r="1.0"/>
     <text stroke="none" x="607.0" y="829.0" font-size="20.0" font-family="helvetica">190</text>
    </g>
    <g>
     <circle stroke="black" stroke-width="0.5" fill="#aaffff" cx="615.0" cy="807.0" r="1.0"/>
     <text stroke="none" x="615.0" y="807.0" font-size="20.0" font-family="helvetica">Blastobotrys adeninivorans Y-176927</text>
    </g>
    <g>
     <circle stroke="black" stroke-width="0.5" fill="#aaffff" cx="635.0" cy="848.0" r="1.0"/>
     <text stroke="none" x="635.0" y="848.0" font-size="20.0" font-family="helvetica">Blastobotrys raffinosifermentans Y-271507</text>
    </g>
    <g>
     <circle stroke="black" stroke-width="0.5" fill="#aaffff" cx="637.0" cy="642.0" r="1.0"/>
     <text stroke="none" x="637.0" y="642.0" font-size="10.0" font-family="helvetica">NT1.15</text>
    </g>
    <g>
     <circle stroke="black" stroke-width="0.5" fill="#aaffff" cx="654.0" cy="172.0" r="1.0"/>
     <text stroke="none" x="654.0" y="172.0" font-size="10.0" font-family="helvetica">NT1.16</text>
    </g>
    <g>
     <circle stroke="black" stroke-width="0.5" fill="#aaffff" cx="668.0" cy="97.0" r="1.0"/>
     <text stroke="none" x="668.0" y="97.0" font-size="20.0" font-family="helvetica">Blastobotrys muscicola Y-79937</text>
    </g>
    <g>
     <circle stroke="black" stroke-width="0.5" fill="#aaffff" cx="678.0" cy="911.0" r="1.0"/>
     <text stroke="none" x="678.0" y="911.0" font-size="10.0" font-family="helvetica">NT1.18</text>
    </g>
    <g>
     <circle stroke="black" stroke-width="0.5" fill="#aaffff" cx="694.0" cy="201.0" r="1.0"/>
     <text stroke="none" x="694.0" y="201.0" font-size="20.0" font-family="helvetica">100</text>
    </g>
    <g>
     <circle stroke="black" stroke-width="0.5" fill="#aaffff" cx="708.0" cy="554.0" r="1.0"/>
     <text stroke="none" x="708.0" y="554.0" font-size="20.0" font-family="helvetica">95</text>
    </g>
    <g>
     <circle stroke="black" stroke-width="0.5" fill="#aaffff" cx="722.0" cy="140.0" r="1.0"/>
     <text stroke="none" x="722.0" y="140.0" font-size="20.0" font-family="helvetica">Trichomonascus ciferrii Y-109437</text>
    </g>
    <g>
     <circle stroke="black" stroke-width="0.5" fill="#aaffff" cx="726.0" cy="223.0" r="1.0"/>
     <text stroke="none" x="726.0" y="223.0" font-size="20.0" font-family="helvetica">Blastobotrys terrestris Y-177047</text>
    </g>
    <g>
     <circle stroke="black" stroke-width="0.5" fill="#aaffff" cx="726.0" cy="180.0" r="1.0"/>
     <text stroke="none" x="726.0" y="180.0" font-size="20.0" font-family="helvetica">Blastobotrys chiropterorum Y-170717</text>
    </g>
    <g>
     <circle stroke="black" stroke-width="0.5" fill="#aaffff" cx="738.0" cy="732.0" r="1.0"/>
     <text stroke="none" x="738.0" y="732.0" font-size="10.0" font-family="helvetica">NT1.24</text>
    </g>
    <g>
     <circle stroke="black" stroke-width="0.5" fill="#aaffff" cx="739.0" cy="16.0" r="1.0"/>
     <text stroke="none" x="739.0" y="16.0" font-size="20.0" font-family="helvetica">Zygoascus hellenicus Y-71367</text>
    </g>
    <g>
     <circle stroke="black" stroke-width="0.5" fill="#aaffff" cx="743.0" cy="891.0" r="1.0"/>
     <text stroke="none" x="743.0" y="891.0" font-size="20.0" font-family="helvetica">Blastobotrys americana Y-68447</text>
    </g>
    <g>
     <circle stroke="black" stroke-width="0.5" fill="#aaffff" cx="743.0" cy="723.0" r="1.0"/>
     <text stroke="none" x="743.0" y="723.0" font-size="10.0" font-family="helvetica">NT1.27</text>
    </g>
    <g>
     <circle stroke="black" stroke-width="0.5" fill="#aaffff" cx="746.0" cy="765.0" r="1.0"/>
     <text stroke="none" x="746.0" y="765.0" font-size="20.0" font-family="helvetica">Blastobotrys illinoisensis YB-13437</text>
    </g>
    <g>
     <circle stroke="black" stroke-width="0.5" fill="#aaffff" cx="755.0" cy="465.0" r="1.0"/>
     <text stroke="none" x="755.0" y="465.0" font-size="10.0" font-family="helvetica">NT1.29</text>
    </g>
    <g>
     <circle stroke="black" stroke-width="0.5" fill="#aaffff" cx="756.0" cy="681.0" r="1.0"/>
     <text stroke="none" x="756.0" y="681.0" font-size="20.0" font-family="helvetica">Blastobotrys mokoenaii Y-271207</text>
    </g>
    <g>
     <circle stroke="black" stroke-width="0.5" fill="#aaffff" cx="766.0" cy="640.0" r="1.0"/>
     <text stroke="none" x="766.0" y="640.0" font-size="20.0" font-family="helvetica">Blastobotrys parvus Y-100047</text>
    </g>
    <g>
     <circle stroke="black" stroke-width="0.5" fill="#aaffff" cx="772.0" cy="724.0" r="1.0"/>
     <text stroke="none" x="772.0" y="724.0" font-size="20.0" font-family="helvetica">Blastobotrys malaysiensis Y-64177</text>
    </g>
    <g>
     <circle stroke="black" stroke-width="0.5" fill="#aaffff" cx="809.0" cy="576.0" r="1.0"/>
     <text stroke="none" x="809.0" y="576.0" font-size="20.0" font-family="helvetica">100</text>
    </g>
    <g>
     <circle stroke="black" stroke-width="0.5" fill="#aaffff" cx="809.0" cy="352.0" r="1.0"/>
     <text stroke="none" x="809.0" y="352.0" font-size="10.0" font-family="helvetica">NT1.34</text>
    </g>
    <g>
     <circle stroke="black" stroke-width="0.5" fill="#aaffff" cx="816.0" cy="932.0" r="1.0"/>
     <text stroke="none" x="816.0" y="932.0" font-size="20.0" font-family="helvetica">Blastobotrys peoriensis YB-22907</text>
    </g>
    <g>
     <circle stroke="black" stroke-width="0.5" fill="#aaffff" cx="827.0" cy="557.0" r="1.0"/>
     <text stroke="none" x="827.0" y="557.0" font-size="20.0" font-family="helvetica">Trichomonascus petasosporus YB-20927</text>
    </g>
    <g>
     <circle stroke="black" stroke-width="0.5" fill="#aaffff" cx="837.0" cy="598.0" r="1.0"/>
     <text stroke="none" x="837.0" y="598.0" font-size="20.0" font-family="helvetica">Blastobotrys indianensis YB-19507</text>
    </g>
    <g>
     <circle stroke="black" stroke-width="0.5" fill="#aaffff" cx="876.0" cy="436.0" r="1.0"/>
     <text stroke="none" x="876.0" y="436.0" font-size="10.0" font-family="helvetica">NT1.38</text>
    </g>
    <g>
     <circle stroke="black" stroke-width="0.5" fill="#aaffff" cx="907.0" cy="264.0" r="1.0"/>
     <text stroke="none" x="907.0" y="264.0" font-size="20.0" font-family="helvetica">Blastobotrys proliferans Y-1 75777</text>
    </g>
    <g>
     <circle stroke="black" stroke-width="0.5" fill="#aaffff" cx="913.0" cy="360.0" r="1.0"/>
     <text stroke="none" x="913.0" y="360.0" font-size="10.0" font-family="helvetica">NT1.40</text>
    </g>
    <g>
     <circle stroke="black" stroke-width="0.5" fill="#aaffff" cx="944.0" cy="515.0" r="1.0"/>
     <text stroke="none" x="944.0" y="515.0" font-size="20.0" font-family="helvetica">Blastobotrys nivea Y-175817</text>
    </g>
    <g>
     <circle stroke="black" stroke-width="0.5" fill="#aaffff" cx="954.0" cy="409.0" r="1.0"/>
     <text stroke="none" x="954.0" y="409.0" font-size="20.0" font-family="helvetica">we</text>
    </g>
    <g>
     <circle stroke="black" stroke-width="0.5" fill="#aaffff" cx="968.0" cy="306.0" r="1.0"/>
     <text stroke="none" x="968.0" y="306.0" font-size="20.0" font-family="helvetica">Trichomonascus farinosus Y-175937</text>
    </g>
    <g>
     <circle stroke="black" stroke-width="0.5" fill="#aaffff" cx="977.0" cy="371.0" r="1.0"/>
     <text stroke="none" x="977.0" y="371.0" font-size="20.0" font-family="helvetica">31</text>
    </g>
    <g>
     <circle stroke="black" stroke-width="0.5" fill="#aaffff" cx="997.0" cy="452.0" r="1.0"/>
     <text stroke="none" x="997.0" y="452.0" font-size="20.0" font-family="helvetica">we</text>
    </g>
    <g>
     <circle stroke="black" stroke-width="0.5" fill="#aaffff" cx="1002.0" cy="56.0" r="1.0"/>
     <text stroke="none" x="1002.0" y="56.0" font-size="20.0" font-family="helvetica">Wickerhamiella domercqiae Y-66927</text>
    </g>
    <g>
     <circle stroke="black" stroke-width="0.5" fill="#aaffff" cx="1025.0" cy="347.0" r="1.0"/>
     <text stroke="none" x="1025.0" y="347.0" font-size="20.0" font-family="helvetica">Blastobotrys aristata Y-175797</text>
    </g>
    <g>
     <circle stroke="black" stroke-width="0.5" fill="#aaffff" cx="1042.0" cy="431.0" r="1.0"/>
     <text stroke="none" x="1042.0" y="431.0" font-size="20.0" font-family="helvetica">Blastobotrys capitulata Y-175737</text>
    </g>
    <g>
     <circle stroke="black" stroke-width="0.5" fill="#aaffff" cx="1052.0" cy="390.0" r="1.0"/>
     <text stroke="none" x="1052.0" y="390.0" font-size="20.0" font-family="helvetica">Blastobotrys elegans Y-175727</text>
    </g>
    <g>
     <circle stroke="black" stroke-width="0.5" fill="#aaffff" cx="1062.0" cy="474.0" r="1.0"/>
     <text stroke="none" x="1062.0" y="474.0" font-size="20.0" font-family="helvetica">Blastobotrys arbuscula Y-175857</text>
    </g>
    <line stroke="black" x1="668.0" y1="97.0" x2="530.0" y2="254.0" stroke-width="0.5"/>
    <line stroke="black" x1="292.0" y1="1015.0" x2="7.0" y2="1015.0" stroke-width="0.5"/>
    <line stroke="black" x1="772.0" y1="724.0" x2="743.0" y2="723.0" stroke-width="0.5"/>
    <line stroke="black" x1="907.0" y1="264.0" x2="809.0" y2="352.0" stroke-width="0.5"/>
    <line stroke="black" x1="1042.0" y1="431.0" x2="997.0" y2="452.0" stroke-width="0.5"/>
    <line stroke="black" x1="1052.0" y1="390.0" x2="977.0" y2="371.0" stroke-width="0.5"/>
    <line stroke="black" x1="506.0" y1="37.0" x2="331.0" y2="300.0" stroke-width="0.5"/>
    <line stroke="black" x1="331.0" y1="300.0" x2="227.0" y2="637.0" stroke-width="0.5"/>
    <line stroke="black" x1="331.0" y1="300.0" x2="462.0" y2="559.0" stroke-width="0.5"/>
    <line stroke="black" x1="462.0" y1="559.0" x2="546.0" y2="867.0" stroke-width="0.5"/>
    <line stroke="black" x1="462.0" y1="559.0" x2="530.0" y2="254.0" stroke-width="0.5"/>
    <line stroke="black" x1="530.0" y1="254.0" x2="593.0" y2="406.0" stroke-width="0.5"/>
    <line stroke="black" x1="546.0" y1="867.0" x2="678.0" y2="911.0" stroke-width="0.5"/>
    <line stroke="black" x1="546.0" y1="867.0" x2="607.0" y2="829.0" stroke-width="0.5"/>
    <line stroke="black" x1="593.0" y1="406.0" x2="637.0" y2="642.0" stroke-width="0.5"/>
    <line stroke="black" x1="593.0" y1="406.0" x2="654.0" y2="172.0" stroke-width="0.5"/>
    <line stroke="black" x1="637.0" y1="642.0" x2="738.0" y2="732.0" stroke-width="0.5"/>
    <line stroke="black" x1="637.0" y1="642.0" x2="708.0" y2="554.0" stroke-width="0.5"/>
    <line stroke="black" x1="654.0" y1="172.0" x2="694.0" y2="201.0" stroke-width="0.5"/>
    <line stroke="black" x1="708.0" y1="554.0" x2="755.0" y2="465.0" stroke-width="0.5"/>
    <line stroke="black" x1="738.0" y1="732.0" x2="743.0" y2="723.0" stroke-width="0.5"/>
    <line stroke="black" x1="755.0" y1="465.0" x2="809.0" y2="576.0" stroke-width="0.5"/>
    <line stroke="black" x1="755.0" y1="465.0" x2="809.0" y2="352.0" stroke-width="0.5"/>
    <line stroke="black" x1="809.0" y1="352.0" x2="876.0" y2="436.0" stroke-width="0.5"/>
    <line stroke="black" x1="876.0" y1="436.0" x2="913.0" y2="360.0" stroke-width="0.5"/>
    <line stroke="black" x1="913.0" y1="360.0" x2="954.0" y2="409.0" stroke-width="0.5"/>
    <line stroke="black" x1="954.0" y1="409.0" x2="997.0" y2="452.0" stroke-width="0.5"/>
    <line stroke="black" x1="954.0" y1="409.0" x2="977.0" y2="371.0" stroke-width="0.5"/>
    <line stroke="black" x1="227.0" y1="637.0" x2="7.0" y2="1015.0" stroke-width="0.5"/>
    <line stroke="black" x1="487.0" y1="1058.0" x2="7.0" y2="1015.0" stroke-width="0.5"/>
    <line stroke="black" x1="406.0" y1="975.0" x2="227.0" y2="637.0" stroke-width="0.5"/>
    <line stroke="black" x1="615.0" y1="807.0" x2="607.0" y2="829.0" stroke-width="0.5"/>
    <line stroke="black" x1="635.0" y1="848.0" x2="607.0" y2="829.0" stroke-width="0.5"/>
    <line stroke="black" x1="739.0" y1="16.0" x2="506.0" y2="37.0" stroke-width="0.5"/>
    <line stroke="black" x1="1002.0" y1="56.0" x2="506.0" y2="37.0" stroke-width="0.5"/>
    <line stroke="black" x1="722.0" y1="140.0" x2="654.0" y2="172.0" stroke-width="0.5"/>
    <line stroke="black" x1="743.0" y1="891.0" x2="678.0" y2="911.0" stroke-width="0.5"/>
    <line stroke="black" x1="726.0" y1="223.0" x2="694.0" y2="201.0" stroke-width="0.5"/>
    <line stroke="black" x1="726.0" y1="180.0" x2="694.0" y2="201.0" stroke-width="0.5"/>
    <line stroke="black" x1="816.0" y1="932.0" x2="678.0" y2="911.0" stroke-width="0.5"/>
    <line stroke="black" x1="766.0" y1="640.0" x2="708.0" y2="554.0" stroke-width="0.5"/>
    <line stroke="black" x1="746.0" y1="765.0" x2="738.0" y2="732.0" stroke-width="0.5"/>
    <line stroke="black" x1="756.0" y1="681.0" x2="743.0" y2="723.0" stroke-width="0.5"/>
    <line stroke="black" x1="827.0" y1="557.0" x2="809.0" y2="576.0" stroke-width="0.5"/>
    <line stroke="black" x1="837.0" y1="598.0" x2="809.0" y2="576.0" stroke-width="0.5"/>
    <line stroke="black" x1="944.0" y1="515.0" x2="876.0" y2="436.0" stroke-width="0.5"/>
    <line stroke="black" x1="968.0" y1="306.0" x2="913.0" y2="360.0" stroke-width="0.5"/>
    <line stroke="black" x1="1025.0" y1="347.0" x2="977.0" y2="371.0" stroke-width="0.5"/>
    <line stroke="black" x1="1062.0" y1="474.0" x2="997.0" y2="452.0" stroke-width="0.5"/>
   </g>
  </g>
 </svg>
</svg>
