<?xml version="1.0" encoding="UTF-8"?>
<svg height="800.0" width="700.0" xmlns="http://www.w3.org/2000/svg">
 <svg>
  <g>
   <g>
    <g>
     <circle stroke="black" stroke-width="0.5" fill="#aaffff" cx="2.0" cy="310.0" r="1.0"/>
     <text stroke="none" x="2.0" y="310.0" font-size="20.0" font-family="helvetica"/>
    </g>
    <g>
     <circle stroke="black" stroke-width="0.5" fill="#aaffff" cx="29.0" cy="297.0" r="1.0"/>
     <text stroke="none" x="29.0" y="297.0" font-size="10.0" font-family="helvetica">NT1.2</text>
    </g>
    <g>
     <circle stroke="black" stroke-width="0.5" fill="#aaffff" cx="111.0" cy="534.0" r="1.0"/>
     <text stroke="none" x="111.0" y="534.0" font-size="10.0" font-family="helvetica">NT1.3</text>
    </g>
    <g>
     <circle stroke="black" stroke-width="0.5" fill="#aaffff" cx="147.0" cy="756.0" r="1.0"/>
     <text stroke="none" x="147.0" y="756.0" font-size="10.0" font-family="helvetica">NT1.4</text>
    </g>
    <g>
     <circle stroke="black" stroke-width="0.5" fill="#aaffff" cx="149.0" cy="81.0" r="1.0"/>
     <text stroke="none" x="149.0" y="81.0" font-size="10.0" font-family="helvetica">NT1.5</text>
    </g>
    <g>
     <circle stroke="black" stroke-width="0.5" fill="#aaffff" cx="205.0" cy="432.0" r="1.0"/>
     <text stroke="none" x="205.0" y="432.0" font-size="20.0" font-family="helvetica">73</text>
    </g>
    <g>
     <circle stroke="black" stroke-width="0.5" fill="#aaffff" cx="269.0" cy="1077.0" r="1.0"/>
     <text stroke="none" x="269.0" y="1077.0" font-size="10.0" font-family="helvetica">NT1.7</text>
    </g>
    <g>
     <circle stroke="black" stroke-width="0.5" fill="#aaffff" cx="283.0" cy="725.0" r="1.0"/>
     <text stroke="none" x="283.0" y="725.0" font-size="10.0" font-family="helvetica">NT1.8</text>
    </g>
    <g>
     <circle stroke="black" stroke-width="0.5" fill="#aaffff" cx="365.0" cy="1433.0" r="1.0"/>
     <text stroke="none" x="365.0" y="1433.0" font-size="10.0" font-family="helvetica">NT1.9</text>
    </g>
    <g>
     <circle stroke="black" stroke-width="0.5" fill="#aaffff" cx="368.0" cy="602.0" r="1.0"/>
     <text stroke="none" x="368.0" y="602.0" font-size="10.0" font-family="helvetica">NT1.10</text>
    </g>
    <g>
     <circle stroke="black" stroke-width="0.5" fill="#aaffff" cx="399.0" cy="394.0" r="1.0"/>
     <text stroke="none" x="399.0" y="394.0" font-size="20.0" font-family="helvetica">Amycolatopsis sulphurea IMSNU 200601 (AJ293756)</text>
    </g>
    <g>
     <circle stroke="black" stroke-width="0.5" fill="#aaffff" cx="401.0" cy="844.0" r="1.0"/>
     <text stroke="none" x="401.0" y="844.0" font-size="10.0" font-family="helvetica">NT1.12</text>
    </g>
    <g>
     <circle stroke="black" stroke-width="0.5" fill="#aaffff" cx="408.0" cy="1602.0" r="1.0"/>
     <text stroke="none" x="408.0" y="1602.0" font-size="20.0" font-family="helvetica">90</text>
    </g>
    <g>
     <circle stroke="black" stroke-width="0.5" fill="#aaffff" cx="413.0" cy="1491.0" r="1.0"/>
     <text stroke="none" x="413.0" y="1491.0" font-size="10.0" font-family="helvetica">NT1.14</text>
    </g>
    <g>
     <circle stroke="black" stroke-width="0.5" fill="#aaffff" cx="421.0" cy="919.0" r="1.0"/>
     <text stroke="none" x="421.0" y="919.0" font-size="10.0" font-family="helvetica">NT1.15</text>
    </g>
    <g>
     <circle stroke="black" stroke-width="0.5" fill="#aaffff" cx="422.0" cy="658.0" r="1.0"/>
     <text stroke="none" x="422.0" y="658.0" font-size="20.0" font-family="helvetica">93</text>
    </g>
    <g>
     <circle stroke="black" stroke-width="0.5" fill="#aaffff" cx="427.0" cy="1717.0" r="1.0"/>
     <text stroke="none" x="427.0" y="1717.0" font-size="20.0" font-family="helvetica">55</text>
    </g>
    <g>
     <circle stroke="black" stroke-width="0.5" fill="#aaffff" cx="433.0" cy="15.0" r="1.0"/>
     <text stroke="none" x="433.0" y="15.0" font-size="20.0" font-family="helvetica">Amyoolatopsis palatopharyngis AS 4.17297 (AF479268)</text>
    </g>
    <g>
     <circle stroke="black" stroke-width="0.5" fill="#aaffff" cx="440.0" cy="469.0" r="1.0"/>
     <text stroke="none" x="440.0" y="469.0" font-size="10.0" font-family="helvetica">NT1.19</text>
    </g>
    <g>
     <circle stroke="black" stroke-width="0.5" fill="#aaffff" cx="451.0" cy="1265.0" r="1.0"/>
     <text stroke="none" x="451.0" y="1265.0" font-size="10.0" font-family="helvetica">NT1.20</text>
    </g>
    <g>
     <circle stroke="black" stroke-width="0.5" fill="#aaffff" cx="457.0" cy="988.0" r="1.0"/>
     <text stroke="none" x="457.0" y="988.0" font-size="10.0" font-family="helvetica">NT1.21</text>
    </g>
    <g>
     <circle stroke="black" stroke-width="0.5" fill="#aaffff" cx="457.0" cy="1565.0" r="1.0"/>
     <text stroke="none" x="457.0" y="1565.0" font-size="20.0" font-family="helvetica">EU</text>
    </g>
    <g>
     <circle stroke="black" stroke-width="0.5" fill="#aaffff" cx="466.0" cy="1397.0" r="1.0"/>
     <text stroke="none" x="466.0" y="1397.0" font-size="20.0" font-family="helvetica">81</text>
    </g>
    <g>
     <circle stroke="black" stroke-width="0.5" fill="#aaffff" cx="475.0" cy="1754.0" r="1.0"/>
     <text stroke="none" x="475.0" y="1754.0" font-size="20.0" font-family="helvetica"> Amycolatopsis decaplanina DSM 44594T (AJ508237)</text>
    </g>
    <g>
     <circle stroke="black" stroke-width="0.5" fill="#aaffff" cx="483.0" cy="1054.0" r="1.0"/>
     <text stroke="none" x="483.0" y="1054.0" font-size="20.0" font-family="helvetica">4</text>
    </g>
    <g>
     <circle stroke="black" stroke-width="0.5" fill="#aaffff" cx="489.0" cy="1603.0" r="1.0"/>
     <text stroke="none" x="489.0" y="1603.0" font-size="10.0" font-family="helvetica">NT1.26</text>
    </g>
    <g>
     <circle stroke="black" stroke-width="0.5" fill="#aaffff" cx="494.0" cy="316.0" r="1.0"/>
     <text stroke="none" x="494.0" y="316.0" font-size="20.0" font-family="helvetica">Amycolatopsis sacchari DSM 44468T (AF223354)</text>
    </g>
    <g>
     <circle stroke="black" stroke-width="0.5" fill="#aaffff" cx="499.0" cy="1301.0" r="1.0"/>
     <text stroke="none" x="499.0" y="1301.0" font-size="20.0" font-family="helvetica"> Amycolatopsis coloradensis IMSNU 22096T (AJ293753)</text>
    </g>
    <g>
     <circle stroke="black" stroke-width="0.5" fill="#aaffff" cx="501.0" cy="1528.0" r="1.0"/>
     <text stroke="none" x="501.0" y="1528.0" font-size="20.0" font-family="helvetica">Amycolatopsis azurea IMSNU 20053T (AJ400709)</text>
    </g>
    <g>
     <circle stroke="black" stroke-width="0.5" fill="#aaffff" cx="506.0" cy="696.0" r="1.0"/>
     <text stroke="none" x="506.0" y="696.0" font-size="10.0" font-family="helvetica">NT1.30</text>
    </g>
    <g>
     <circle stroke="black" stroke-width="0.5" fill="#aaffff" cx="513.0" cy="1680.0" r="1.0"/>
     <text stroke="none" x="513.0" y="1680.0" font-size="20.0" font-family="helvetica">Amycolatopsis keratiniphila DSM 444O9T (AJ278496)</text>
    </g>
    <g>
     <circle stroke="black" stroke-width="0.5" fill="#aaffff" cx="517.0" cy="147.0" r="1.0"/>
     <text stroke="none" x="517.0" y="147.0" font-size="10.0" font-family="helvetica">NT1.32</text>
    </g>
    <g>
     <circle stroke="black" stroke-width="0.5" fill="#aaffff" cx="517.0" cy="1111.0" r="1.0"/>
     <text stroke="none" x="517.0" y="1111.0" font-size="20.0" font-family="helvetica">4</text>
    </g>
    <g>
     <circle stroke="black" stroke-width="0.5" fill="#aaffff" cx="525.0" cy="1226.0" r="1.0"/>
     <text stroke="none" x="525.0" y="1226.0" font-size="10.0" font-family="helvetica">NT1.34</text>
    </g>
    <g>
     <circle stroke="black" stroke-width="0.5" fill="#aaffff" cx="525.0" cy="1149.0" r="1.0"/>
     <text stroke="none" x="525.0" y="1149.0" font-size="10.0" font-family="helvetica">NT1.35</text>
    </g>
    <g>
     <circle stroke="black" stroke-width="0.5" fill="#aaffff" cx="527.0" cy="1074.0" r="1.0"/>
     <text stroke="none" x="527.0" y="1074.0" font-size="20.0" font-family="helvetica">Amycolatopsis pretonensis NRRL B-24133T (AY183356)</text>
    </g>
    <g>
     <circle stroke="black" stroke-width="0.5" fill="#aaffff" cx="541.0" cy="773.0" r="1.0"/>
     <text stroke="none" x="541.0" y="773.0" font-size="20.0" font-family="helvetica">Amycolatopsis mediterranei IMSNU 2O056T (AJ293754)</text>
    </g>
    <g>
     <circle stroke="black" stroke-width="0.5" fill="#aaffff" cx="541.0" cy="1454.0" r="1.0"/>
     <text stroke="none" x="541.0" y="1454.0" font-size="20.0" font-family="helvetica"> Amycolatopsis orientalis IMSNU 20O58T (AJ400711)</text>
    </g>
    <g>
     <circle stroke="black" stroke-width="0.5" fill="#aaffff" cx="544.0" cy="546.0" r="1.0"/>
     <text stroke="none" x="544.0" y="546.0" font-size="20.0" font-family="helvetica">Amycolatopsis rubida JCM 10871T (AF222022)</text>
    </g>
    <g>
     <circle stroke="black" stroke-width="0.5" fill="#aaffff" cx="570.0" cy="1000.0" r="1.0"/>
     <text stroke="none" x="570.0" y="1000.0" font-size="20.0" font-family="helvetica"> Amycolatopsis kentuckyensis NRRL B-24129T (AY183357)</text>
    </g>
    <g>
     <circle stroke="black" stroke-width="0.5" fill="#aaffff" cx="576.0" cy="847.0" r="1.0"/>
     <text stroke="none" x="576.0" y="847.0" font-size="20.0" font-family="helvetica">Amycolatopsis vancoresmyoina DSM 44592T (AJ508240)</text>
    </g>
    <g>
     <circle stroke="black" stroke-width="0.5" fill="#aaffff" cx="588.0" cy="621.0" r="1.0"/>
     <text stroke="none" x="588.0" y="621.0" font-size="20.0" font-family="helvetica">Amycolatopsis albidoflavus IMSNU 22139T (AJ252832)</text>
    </g>
    <g>
     <circle stroke="black" stroke-width="0.5" fill="#aaffff" cx="591.0" cy="922.0" r="1.0"/>
     <text stroke="none" x="591.0" y="922.0" font-size="20.0" font-family="helvetica">Amycolatopsis tolypomycina IMSNU 2OO61T (AJ293757)</text>
    </g>
    <g>
     <circle stroke="black" stroke-width="0.5" fill="#aaffff" cx="597.0" cy="1375.0" r="1.0"/>
     <text stroke="none" x="597.0" y="1375.0" font-size="10.0" font-family="helvetica">NT1.44</text>
    </g>
    <g>
     <circle stroke="black" stroke-width="0.5" fill="#aaffff" cx="610.0" cy="89.0" r="1.0"/>
     <text stroke="none" x="610.0" y="89.0" font-size="20.0" font-family="helvetica">Amycolatopsis eulytherma DSM 443487 (AJOO0285)</text>
    </g>
    <g>
     <circle stroke="black" stroke-width="0.5" fill="#aaffff" cx="618.0" cy="204.0" r="1.0"/>
     <text stroke="none" x="618.0" y="204.0" font-size="10.0" font-family="helvetica">NT1.46</text>
    </g>
    <g>
     <circle stroke="black" stroke-width="0.5" fill="#aaffff" cx="626.0" cy="242.0" r="1.0"/>
     <text stroke="none" x="626.0" y="242.0" font-size="10.0" font-family="helvetica">NT1.47</text>
    </g>
    <g>
     <circle stroke="black" stroke-width="0.5" fill="#aaffff" cx="640.0" cy="167.0" r="1.0"/>
     <text stroke="none" x="640.0" y="167.0" font-size="10.0" font-family="helvetica">NT1.48</text>
    </g>
    <line stroke="black" x1="433.0" y1="15.0" x2="149.0" y2="81.0" stroke-width="0.5"/>
    <line stroke="black" x1="2.0" y1="310.0" x2="29.0" y2="297.0" stroke-width="0.5"/>
    <line stroke="black" x1="610.0" y1="89.0" x2="517.0" y2="147.0" stroke-width="0.5"/>
    <line stroke="black" x1="494.0" y1="316.0" x2="111.0" y2="534.0" stroke-width="0.5"/>
    <line stroke="black" x1="399.0" y1="394.0" x2="205.0" y2="432.0" stroke-width="0.5"/>
    <line stroke="black" x1="499.0" y1="1301.0" x2="451.0" y2="1265.0" stroke-width="0.5"/>
    <line stroke="black" x1="541.0" y1="773.0" x2="401.0" y2="844.0" stroke-width="0.5"/>
    <line stroke="black" x1="475.0" y1="1754.0" x2="427.0" y2="1717.0" stroke-width="0.5"/>
    <line stroke="black" x1="588.0" y1="621.0" x2="422.0" y2="658.0" stroke-width="0.5"/>
    <line stroke="black" x1="513.0" y1="1680.0" x2="427.0" y2="1717.0" stroke-width="0.5"/>
    <line stroke="black" x1="576.0" y1="847.0" x2="421.0" y2="919.0" stroke-width="0.5"/>
    <line stroke="black" x1="591.0" y1="922.0" x2="457.0" y2="988.0" stroke-width="0.5"/>
    <line stroke="black" x1="541.0" y1="1454.0" x2="466.0" y2="1397.0" stroke-width="0.5"/>
    <line stroke="black" x1="527.0" y1="1074.0" x2="517.0" y2="1111.0" stroke-width="0.5"/>
    <line stroke="black" x1="570.0" y1="1000.0" x2="483.0" y2="1054.0" stroke-width="0.5"/>
    <line stroke="black" x1="149.0" y1="81.0" x2="29.0" y2="297.0" stroke-width="0.5"/>
    <line stroke="black" x1="29.0" y1="297.0" x2="111.0" y2="534.0" stroke-width="0.5"/>
    <line stroke="black" x1="111.0" y1="534.0" x2="147.0" y2="756.0" stroke-width="0.5"/>
    <line stroke="black" x1="147.0" y1="756.0" x2="269.0" y2="1077.0" stroke-width="0.5"/>
    <line stroke="black" x1="269.0" y1="1077.0" x2="365.0" y2="1433.0" stroke-width="0.5"/>
    <line stroke="black" x1="269.0" y1="1077.0" x2="283.0" y2="725.0" stroke-width="0.5"/>
    <line stroke="black" x1="283.0" y1="725.0" x2="401.0" y2="844.0" stroke-width="0.5"/>
    <line stroke="black" x1="283.0" y1="725.0" x2="368.0" y2="602.0" stroke-width="0.5"/>
    <line stroke="black" x1="365.0" y1="1433.0" x2="408.0" y2="1602.0" stroke-width="0.5"/>
    <line stroke="black" x1="401.0" y1="844.0" x2="421.0" y2="919.0" stroke-width="0.5"/>
    <line stroke="black" x1="408.0" y1="1602.0" x2="427.0" y2="1717.0" stroke-width="0.5"/>
    <line stroke="black" x1="408.0" y1="1602.0" x2="413.0" y2="1491.0" stroke-width="0.5"/>
    <line stroke="black" x1="421.0" y1="919.0" x2="457.0" y2="988.0" stroke-width="0.5"/>
    <line stroke="black" x1="457.0" y1="988.0" x2="483.0" y2="1054.0" stroke-width="0.5"/>
    <line stroke="black" x1="544.0" y1="546.0" x2="368.0" y2="602.0" stroke-width="0.5"/>
    <line stroke="black" x1="501.0" y1="1528.0" x2="457.0" y2="1565.0" stroke-width="0.5"/>
   </g>
  </g>
 </svg>
</svg>
