<?xml version="1.0" encoding="UTF-8"?>
<svg height="800.0" width="700.0" xmlns="http://www.w3.org/2000/svg">
 <svg>
  <g>
   <g>
    <g>
     <circle stroke="black" stroke-width="0.5" fill="#aaffff" cx="156.0" cy="1223.0" r="1.0"/>
     <text stroke="none" x="156.0" y="1223.0" font-size="10.0" font-family="helvetica">NT1.1</text>
    </g>
    <g>
     <circle stroke="black" stroke-width="0.5" fill="#aaffff" cx="500.0" cy="1117.0" r="1.0"/>
     <text stroke="none" x="500.0" y="1117.0" font-size="20.0" font-family="helvetica">97</text>
    </g>
    <g>
     <circle stroke="black" stroke-width="0.5" fill="#aaffff" cx="619.0" cy="966.0" r="1.0"/>
     <text stroke="none" x="619.0" y="966.0" font-size="20.0" font-family="helvetica">74</text>
    </g>
    <g>
     <circle stroke="black" stroke-width="0.5" fill="#aaffff" cx="733.0" cy="723.0" r="1.0"/>
     <text stroke="none" x="733.0" y="723.0" font-size="20.0" font-family="helvetica">97</text>
    </g>
    <g>
     <circle stroke="black" stroke-width="0.5" fill="#aaffff" cx="794.0" cy="533.0" r="1.0"/>
     <text stroke="none" x="794.0" y="533.0" font-size="20.0" font-family="helvetica">87</text>
    </g>
    <g>
     <circle stroke="black" stroke-width="0.5" fill="#aaffff" cx="802.0" cy="911.0" r="1.0"/>
     <text stroke="none" x="802.0" y="911.0" font-size="20.0" font-family="helvetica">96</text>
    </g>
    <g>
     <circle stroke="black" stroke-width="0.5" fill="#aaffff" cx="837.0" cy="345.0" r="1.0"/>
     <text stroke="none" x="837.0" y="345.0" font-size="20.0" font-family="helvetica">86</text>
    </g>
    <g>
     <circle stroke="black" stroke-width="0.5" fill="#aaffff" cx="855.0" cy="433.0" r="1.0"/>
     <text stroke="none" x="855.0" y="433.0" font-size="20.0" font-family="helvetica">47</text>
    </g>
    <g>
     <circle stroke="black" stroke-width="0.5" fill="#aaffff" cx="914.0" cy="1327.0" r="1.0"/>
     <text stroke="none" x="914.0" y="1327.0" font-size="20.0" font-family="helvetica">Thermoanaerobacterium thermosulfurigenes 4BTT (L09171)</text>
    </g>
    <g>
     <circle stroke="black" stroke-width="0.5" fill="#aaffff" cx="918.0" cy="254.0" r="1.0"/>
     <text stroke="none" x="918.0" y="254.0" font-size="20.0" font-family="helvetica">100</text>
    </g>
    <g>
     <circle stroke="black" stroke-width="0.5" fill="#aaffff" cx="923.0" cy="489.0" r="1.0"/>
     <text stroke="none" x="923.0" y="489.0" font-size="20.0" font-family="helvetica">97</text>
    </g>
    <g>
     <circle stroke="black" stroke-width="0.5" fill="#aaffff" cx="930.0" cy="541.0" r="1.0"/>
     <text stroke="none" x="930.0" y="541.0" font-size="20.0" font-family="helvetica">85</text>
    </g>
    <g>
     <circle stroke="black" stroke-width="0.5" fill="#aaffff" cx="943.0" cy="853.0" r="1.0"/>
     <text stroke="none" x="943.0" y="853.0" font-size="20.0" font-family="helvetica">Thermoanaerobacter sulfurigignens JWISL-NZ826T (AF234184)</text>
    </g>
    <g>
     <circle stroke="black" stroke-width="0.5" fill="#aaffff" cx="952.0" cy="585.0" r="1.0"/>
     <text stroke="none" x="952.0" y="585.0" font-size="20.0" font-family="helvetica">85</text>
    </g>
    <g>
     <circle stroke="black" stroke-width="0.5" fill="#aaffff" cx="963.0" cy="719.0" r="1.0"/>
     <text stroke="none" x="963.0" y="719.0" font-size="20.0" font-family="helvetica">100</text>
    </g>
    <g>
     <circle stroke="black" stroke-width="0.5" fill="#aaffff" cx="965.0" cy="497.0" r="1.0"/>
     <text stroke="none" x="965.0" y="497.0" font-size="20.0" font-family="helvetica">Thermoanaerobacter pseudethanolicus 39ET (L09164)</text>
    </g>
    <g>
     <circle stroke="black" stroke-width="0.5" fill="#aaffff" cx="972.0" cy="970.0" r="1.0"/>
     <text stroke="none" x="972.0" y="970.0" font-size="20.0" font-family="helvetica">100</text>
    </g>
    <g>
     <circle stroke="black" stroke-width="0.5" fill="#aaffff" cx="975.0" cy="616.0" r="1.0"/>
     <text stroke="none" x="975.0" y="616.0" font-size="20.0" font-family="helvetica">Thermoanaerobacter brockii su bsp. finniiAKO-1T (L091 66)</text>
    </g>
    <g>
     <circle stroke="black" stroke-width="0.5" fill="#aaffff" cx="985.0" cy="556.0" r="1.0"/>
     <text stroke="none" x="985.0" y="556.0" font-size="20.0" font-family="helvetica">Thermoanaerobacter brockii subsp. brockii HTD4T (L09165)</text>
    </g>
    <g>
     <circle stroke="black" stroke-width="0.5" fill="#aaffff" cx="992.0" cy="1029.0" r="1.0"/>
     <text stroke="none" x="992.0" y="1029.0" font-size="20.0" font-family="helvetica">74</text>
    </g>
    <g>
     <circle stroke="black" stroke-width="0.5" fill="#aaffff" cx="997.0" cy="187.0" r="1.0"/>
     <text stroke="none" x="997.0" y="187.0" font-size="10.0" font-family="helvetica">NT1.21</text>
    </g>
    <g>
     <circle stroke="black" stroke-width="0.5" fill="#aaffff" cx="997.0" cy="763.0" r="1.0"/>
     <text stroke="none" x="997.0" y="763.0" font-size="20.0" font-family="helvetica">61</text>
    </g>
    <g>
     <circle stroke="black" stroke-width="0.5" fill="#aaffff" cx="999.0" cy="912.0" r="1.0"/>
     <text stroke="none" x="999.0" y="912.0" font-size="20.0" font-family="helvetica">Thermoanaerobacter uzonensis JWHWO07 (FJ360437)</text>
    </g>
    <g>
     <circle stroke="black" stroke-width="0.5" fill="#aaffff" cx="1006.0" cy="114.0" r="1.0"/>
     <text stroke="none" x="1006.0" y="114.0" font-size="20.0" font-family="helvetica">34</text>
    </g>
    <g>
     <circle stroke="black" stroke-width="0.5" fill="#aaffff" cx="1016.0" cy="320.0" r="1.0"/>
     <text stroke="none" x="1016.0" y="320.0" font-size="20.0" font-family="helvetica">Thermoanaerobacter thermohydrosulfuricus E100-69T (L09161)</text>
    </g>
    <g>
     <circle stroke="black" stroke-width="0.5" fill="#aaffff" cx="1017.0" cy="1029.0" r="1.0"/>
     <text stroke="none" x="1017.0" y="1029.0" font-size="20.0" font-family="helvetica">Thermoanaerobacter uzonensis JWlIW010T (EF530067)</text>
    </g>
    <g>
     <circle stroke="black" stroke-width="0.5" fill="#aaffff" cx="1017.0" cy="1089.0" r="1.0"/>
     <text stroke="none" x="1017.0" y="1089.0" font-size="20.0" font-family="helvetica">98</text>
    </g>
    <g>
     <circle stroke="black" stroke-width="0.5" fill="#aaffff" cx="1024.0" cy="971.0" r="1.0"/>
     <text stroke="none" x="1024.0" y="971.0" font-size="20.0" font-family="helvetica">'CIostridium uzonii' 1501lB0 (Y18182)</text>
    </g>
    <g>
     <circle stroke="black" stroke-width="0.5" fill="#aaffff" cx="1027.0" cy="1149.0" r="1.0"/>
     <text stroke="none" x="1027.0" y="1149.0" font-size="20.0" font-family="helvetica">Thermoanaerobacter uzonensis JWlMH015 (FJ360439)</text>
    </g>
    <g>
     <circle stroke="black" stroke-width="0.5" fill="#aaffff" cx="1039.0" cy="54.0" r="1.0"/>
     <text stroke="none" x="1039.0" y="54.0" font-size="20.0" font-family="helvetica">84</text>
    </g>
    <g>
     <circle stroke="black" stroke-width="0.5" fill="#aaffff" cx="1040.0" cy="171.0" r="1.0"/>
     <text stroke="none" x="1040.0" y="171.0" font-size="20.0" font-family="helvetica">87</text>
    </g>
    <g>
     <circle stroke="black" stroke-width="0.5" fill="#aaffff" cx="1057.0" cy="83.0" r="1.0"/>
     <text stroke="none" x="1057.0" y="83.0" font-size="20.0" font-family="helvetica">Thermoanaerobacter wiegelfl Rt8.B1T (X92513)</text>
    </g>
    <g>
     <circle stroke="black" stroke-width="0.5" fill="#aaffff" cx="1068.0" cy="379.0" r="1.0"/>
     <text stroke="none" x="1068.0" y="379.0" font-size="20.0" font-family="helvetica">Thermoanaerobacter kivuf ATCC 33488T (L09160)</text>
    </g>
    <g>
     <circle stroke="black" stroke-width="0.5" fill="#aaffff" cx="1070.0" cy="201.0" r="1.0"/>
     <text stroke="none" x="1070.0" y="201.0" font-size="20.0" font-family="helvetica">Thermoanaerobacter ethanolicus JW 200T (L09162)</text>
    </g>
    <g>
     <circle stroke="black" stroke-width="0.5" fill="#aaffff" cx="1077.0" cy="260.0" r="1.0"/>
     <text stroke="none" x="1077.0" y="260.0" font-size="20.0" font-family="helvetica">Thermoanaerobacter siderophilus SR4T (AF120479)</text>
    </g>
    <g>
     <circle stroke="black" stroke-width="0.5" fill="#aaffff" cx="1078.0" cy="734.0" r="1.0"/>
     <text stroke="none" x="1078.0" y="734.0" font-size="20.0" font-family="helvetica">Thermoanaerobacter mathranii A3T (Y1 1279)</text>
    </g>
    <g>
     <circle stroke="black" stroke-width="0.5" fill="#aaffff" cx="1091.0" cy="438.0" r="1.0"/>
     <text stroke="none" x="1091.0" y="438.0" font-size="20.0" font-family="helvetica">Thermoanerobacter brockii subsp. lactiethylicus SEBR 5268T (U14330)</text>
    </g>
    <g>
     <circle stroke="black" stroke-width="0.5" fill="#aaffff" cx="1095.0" cy="794.0" r="1.0"/>
     <text stroke="none" x="1095.0" y="794.0" font-size="20.0" font-family="helvetica">Thermoanaerobacter italicus Ab9T (AJ250846)</text>
    </g>
    <g>
     <circle stroke="black" stroke-width="0.5" fill="#aaffff" cx="1097.0" cy="24.0" r="1.0"/>
     <text stroke="none" x="1097.0" y="24.0" font-size="20.0" font-family="helvetica">Thermoanaerobacter sulfurophims L-64T (Y16940)</text>
    </g>
    <g>
     <circle stroke="black" stroke-width="0.5" fill="#aaffff" cx="1102.0" cy="1208.0" r="1.0"/>
     <text stroke="none" x="1102.0" y="1208.0" font-size="20.0" font-family="helvetica">Caldanaerobacter subterraneus subsp. subterraneus SEBR 7858T (AF195797)</text>
    </g>
    <g>
     <circle stroke="black" stroke-width="0.5" fill="#aaffff" cx="1104.0" cy="142.0" r="1.0"/>
     <text stroke="none" x="1104.0" y="142.0" font-size="20.0" font-family="helvetica">Thermoanaerobacter acetoethylicus HTBZT (X69336)</text>
    </g>
    <g>
     <circle stroke="black" stroke-width="0.5" fill="#aaffff" cx="1114.0" cy="675.0" r="1.0"/>
     <text stroke="none" x="1114.0" y="675.0" font-size="20.0" font-family="helvetica">Thermoanaerobacter thermooopriae JT3-3T (LO9167)</text>
    </g>
    <g>
     <circle stroke="black" stroke-width="0.5" fill="#aaffff" cx="1275.0" cy="1268.0" r="1.0"/>
     <text stroke="none" x="1275.0" y="1268.0" font-size="20.0" font-family="helvetica">Thermanaeromonas toyohensis TOBET (ABO62280)</text>
    </g>
    <g>
     <circle stroke="black" stroke-width="0.5" fill="#aaffff" cx="1508.0" cy="1386.0" r="1.0"/>
     <text stroke="none" x="1508.0" y="1386.0" font-size="20.0" font-family="helvetica">Clostridium butyricum ATCC 19398T (ABO75768</text>
    </g>
    <line stroke="black" x1="1057.0" y1="83.0" x2="1039.0" y2="54.0" stroke-width="0.5"/>
    <line stroke="black" x1="1070.0" y1="201.0" x2="1040.0" y2="171.0" stroke-width="0.5"/>
    <line stroke="black" x1="965.0" y1="497.0" x2="930.0" y2="541.0" stroke-width="0.5"/>
    <line stroke="black" x1="985.0" y1="556.0" x2="952.0" y2="585.0" stroke-width="0.5"/>
    <line stroke="black" x1="1078.0" y1="734.0" x2="997.0" y2="763.0" stroke-width="0.5"/>
    <line stroke="black" x1="943.0" y1="853.0" x2="802.0" y2="911.0" stroke-width="0.5"/>
    <line stroke="black" x1="999.0" y1="912.0" x2="972.0" y2="970.0" stroke-width="0.5"/>
    <line stroke="black" x1="1017.0" y1="1029.0" x2="1017.0" y2="1089.0" stroke-width="0.5"/>
    <line stroke="black" x1="1102.0" y1="1208.0" x2="619.0" y2="966.0" stroke-width="0.5"/>
    <line stroke="black" x1="1039.0" y1="54.0" x2="1006.0" y2="114.0" stroke-width="0.5"/>
    <line stroke="black" x1="1006.0" y1="114.0" x2="997.0" y2="187.0" stroke-width="0.5"/>
    <line stroke="black" x1="1006.0" y1="114.0" x2="1040.0" y2="171.0" stroke-width="0.5"/>
    <line stroke="black" x1="997.0" y1="187.0" x2="918.0" y2="254.0" stroke-width="0.5"/>
    <line stroke="black" x1="918.0" y1="254.0" x2="837.0" y2="345.0" stroke-width="0.5"/>
    <line stroke="black" x1="837.0" y1="345.0" x2="794.0" y2="533.0" stroke-width="0.5"/>
    <line stroke="black" x1="837.0" y1="345.0" x2="855.0" y2="433.0" stroke-width="0.5"/>
    <line stroke="black" x1="855.0" y1="433.0" x2="923.0" y2="489.0" stroke-width="0.5"/>
    <line stroke="black" x1="923.0" y1="489.0" x2="930.0" y2="541.0" stroke-width="0.5"/>
    <line stroke="black" x1="794.0" y1="533.0" x2="733.0" y2="723.0" stroke-width="0.5"/>
    <line stroke="black" x1="794.0" y1="533.0" x2="963.0" y2="719.0" stroke-width="0.5"/>
    <line stroke="black" x1="930.0" y1="541.0" x2="952.0" y2="585.0" stroke-width="0.5"/>
    <line stroke="black" x1="733.0" y1="723.0" x2="619.0" y2="966.0" stroke-width="0.5"/>
    <line stroke="black" x1="733.0" y1="723.0" x2="802.0" y2="911.0" stroke-width="0.5"/>
    <line stroke="black" x1="963.0" y1="719.0" x2="997.0" y2="763.0" stroke-width="0.5"/>
    <line stroke="black" x1="802.0" y1="911.0" x2="972.0" y2="970.0" stroke-width="0.5"/>
    <line stroke="black" x1="619.0" y1="966.0" x2="500.0" y2="1117.0" stroke-width="0.5"/>
    <line stroke="black" x1="972.0" y1="970.0" x2="992.0" y2="1029.0" stroke-width="0.5"/>
    <line stroke="black" x1="992.0" y1="1029.0" x2="1017.0" y2="1089.0" stroke-width="0.5"/>
    <line stroke="black" x1="500.0" y1="1117.0" x2="156.0" y2="1223.0" stroke-width="0.5"/>
    <line stroke="black" x1="914.0" y1="1327.0" x2="156.0" y2="1223.0" stroke-width="0.5"/>
    <line stroke="black" x1="1508.0" y1="1386.0" x2="156.0" y2="1223.0" stroke-width="0.5"/>
    <line stroke="black" x1="1275.0" y1="1268.0" x2="500.0" y2="1117.0" stroke-width="0.5"/>
    <line stroke="black" x1="1068.0" y1="379.0" x2="855.0" y2="433.0" stroke-width="0.5"/>
    <line stroke="black" x1="1016.0" y1="320.0" x2="918.0" y2="254.0" stroke-width="0.5"/>
    <line stroke="black" x1="975.0" y1="616.0" x2="952.0" y2="585.0" stroke-width="0.5"/>
    <line stroke="black" x1="1091.0" y1="438.0" x2="923.0" y2="489.0" stroke-width="0.5"/>
    <line stroke="black" x1="1024.0" y1="971.0" x2="992.0" y2="1029.0" stroke-width="0.5"/>
    <line stroke="black" x1="1114.0" y1="675.0" x2="963.0" y2="719.0" stroke-width="0.5"/>
    <line stroke="black" x1="1027.0" y1="1149.0" x2="1017.0" y2="1089.0" stroke-width="0.5"/>
    <line stroke="black" x1="1077.0" y1="260.0" x2="997.0" y2="187.0" stroke-width="0.5"/>
    <line stroke="black" x1="1095.0" y1="794.0" x2="997.0" y2="763.0" stroke-width="0.5"/>
    <line stroke="black" x1="1104.0" y1="142.0" x2="1040.0" y2="171.0" stroke-width="0.5"/>
    <line stroke="black" x1="1097.0" y1="24.0" x2="1039.0" y2="54.0" stroke-width="0.5"/>
   </g>
  </g>
 </svg>
</svg>
