<?xml version="1.0" encoding="UTF-8"?>
<svg height="800.0" width="700.0" xmlns="http://www.w3.org/2000/svg">
 <svg>
  <g>
   <g>
    <g>
     <circle stroke="black" stroke-width="0.5" fill="#aaffff" cx="183.0" cy="1204.0" r="1.0"/>
     <text stroke="none" x="183.0" y="1204.0" font-size="10.0" font-family="helvetica">NT1.1</text>
    </g>
    <g>
     <circle stroke="black" stroke-width="0.5" fill="#aaffff" cx="220.0" cy="1051.0" r="1.0"/>
     <text stroke="none" x="220.0" y="1051.0" font-size="20.0" font-family="helvetica">56</text>
    </g>
    <g>
     <circle stroke="black" stroke-width="0.5" fill="#aaffff" cx="297.0" cy="809.0" r="1.0"/>
     <text stroke="none" x="297.0" y="809.0" font-size="20.0" font-family="helvetica">32</text>
    </g>
    <g>
     <circle stroke="black" stroke-width="0.5" fill="#aaffff" cx="360.0" cy="950.0" r="1.0"/>
     <text stroke="none" x="360.0" y="950.0" font-size="20.0" font-family="helvetica">7g</text>
    </g>
    <g>
     <circle stroke="black" stroke-width="0.5" fill="#aaffff" cx="370.0" cy="1021.0" r="1.0"/>
     <text stroke="none" x="370.0" y="1021.0" font-size="10.0" font-family="helvetica">NT1.5</text>
    </g>
    <g>
     <circle stroke="black" stroke-width="0.5" fill="#aaffff" cx="377.0" cy="711.0" r="1.0"/>
     <text stroke="none" x="377.0" y="711.0" font-size="10.0" font-family="helvetica">NT1.6</text>
    </g>
    <g>
     <circle stroke="black" stroke-width="0.5" fill="#aaffff" cx="388.0" cy="1080.0" r="1.0"/>
     <text stroke="none" x="388.0" y="1080.0" font-size="20.0" font-family="helvetica">55</text>
    </g>
    <g>
     <circle stroke="black" stroke-width="0.5" fill="#aaffff" cx="396.0" cy="575.0" r="1.0"/>
     <text stroke="none" x="396.0" y="575.0" font-size="10.0" font-family="helvetica">NT1.8</text>
    </g>
    <g>
     <circle stroke="black" stroke-width="0.5" fill="#aaffff" cx="403.0" cy="662.0" r="1.0"/>
     <text stroke="none" x="403.0" y="662.0" font-size="10.0" font-family="helvetica">NT1.9</text>
    </g>
    <g>
     <circle stroke="black" stroke-width="0.5" fill="#aaffff" cx="409.0" cy="487.0" r="1.0"/>
     <text stroke="none" x="409.0" y="487.0" font-size="10.0" font-family="helvetica">NT1.10</text>
    </g>
    <g>
     <circle stroke="black" stroke-width="0.5" fill="#aaffff" cx="413.0" cy="1137.0" r="1.0"/>
     <text stroke="none" x="413.0" y="1137.0" font-size="20.0" font-family="helvetica">72</text>
    </g>
    <g>
     <circle stroke="black" stroke-width="0.5" fill="#aaffff" cx="425.0" cy="405.0" r="1.0"/>
     <text stroke="none" x="425.0" y="405.0" font-size="10.0" font-family="helvetica">NT1.12</text>
    </g>
    <g>
     <circle stroke="black" stroke-width="0.5" fill="#aaffff" cx="434.0" cy="693.0" r="1.0"/>
     <text stroke="none" x="434.0" y="693.0" font-size="10.0" font-family="helvetica">NT1.13</text>
    </g>
    <g>
     <circle stroke="black" stroke-width="0.5" fill="#aaffff" cx="435.0" cy="1189.0" r="1.0"/>
     <text stroke="none" x="435.0" y="1189.0" font-size="20.0" font-family="helvetica">74</text>
    </g>
    <g>
     <circle stroke="black" stroke-width="0.5" fill="#aaffff" cx="452.0" cy="301.0" r="1.0"/>
     <text stroke="none" x="452.0" y="301.0" font-size="10.0" font-family="helvetica">NT1.15</text>
    </g>
    <g>
     <circle stroke="black" stroke-width="0.5" fill="#aaffff" cx="470.0" cy="198.0" r="1.0"/>
     <text stroke="none" x="470.0" y="198.0" font-size="10.0" font-family="helvetica">NT1.16</text>
    </g>
    <g>
     <circle stroke="black" stroke-width="0.5" fill="#aaffff" cx="481.0" cy="279.0" r="1.0"/>
     <text stroke="none" x="481.0" y="279.0" font-size="10.0" font-family="helvetica">NT1.17</text>
    </g>
    <g>
     <circle stroke="black" stroke-width="0.5" fill="#aaffff" cx="486.0" cy="115.0" r="1.0"/>
     <text stroke="none" x="486.0" y="115.0" font-size="10.0" font-family="helvetica">NT1.18</text>
    </g>
    <g>
     <circle stroke="black" stroke-width="0.5" fill="#aaffff" cx="490.0" cy="403.0" r="1.0"/>
     <text stroke="none" x="490.0" y="403.0" font-size="20.0" font-family="helvetica">70</text>
    </g>
    <g>
     <circle stroke="black" stroke-width="0.5" fill="#aaffff" cx="495.0" cy="64.0" r="1.0"/>
     <text stroke="none" x="495.0" y="64.0" font-size="10.0" font-family="helvetica">NT1.20</text>
    </g>
    <g>
     <circle stroke="black" stroke-width="0.5" fill="#aaffff" cx="495.0" cy="568.0" r="1.0"/>
     <text stroke="none" x="495.0" y="568.0" font-size="20.0" font-family="helvetica">91</text>
    </g>
    <g>
     <circle stroke="black" stroke-width="0.5" fill="#aaffff" cx="501.0" cy="165.0" r="1.0"/>
     <text stroke="none" x="501.0" y="165.0" font-size="10.0" font-family="helvetica">NT1.22</text>
    </g>
    <g>
     <circle stroke="black" stroke-width="0.5" fill="#aaffff" cx="507.0" cy="444.0" r="1.0"/>
     <text stroke="none" x="507.0" y="444.0" font-size="20.0" font-family="helvetica">70</text>
    </g>
    <g>
     <circle stroke="black" stroke-width="0.5" fill="#aaffff" cx="509.0" cy="196.0" r="1.0"/>
     <text stroke="none" x="509.0" y="196.0" font-size="10.0" font-family="helvetica">NT1.24</text>
    </g>
    <g>
     <circle stroke="black" stroke-width="0.5" fill="#aaffff" cx="515.0" cy="1025.0" r="1.0"/>
     <text stroke="none" x="515.0" y="1025.0" font-size="20.0" font-family="helvetica">100</text>
    </g>
    <g>
     <circle stroke="black" stroke-width="0.5" fill="#aaffff" cx="516.0" cy="1149.0" r="1.0"/>
     <text stroke="none" x="516.0" y="1149.0" font-size="20.0" font-family="helvetica">1oo</text>
    </g>
    <g>
     <circle stroke="black" stroke-width="0.5" fill="#aaffff" cx="521.0" cy="32.0" r="1.0"/>
     <text stroke="none" x="521.0" y="32.0" font-size="20.0" font-family="helvetica">so</text>
    </g>
    <g>
     <circle stroke="black" stroke-width="0.5" fill="#aaffff" cx="529.0" cy="1127.0" r="1.0"/>
     <text stroke="none" x="529.0" y="1127.0" font-size="20.0" font-family="helvetica">Thermoactinomyces intermedius KCTC 96467 (AF138734)</text>
    </g>
    <g>
     <circle stroke="black" stroke-width="0.5" fill="#aaffff" cx="530.0" cy="1169.0" r="1.0"/>
     <text stroke="none" x="530.0" y="1169.0" font-size="20.0" font-family="helvetica">Thermoactinomyces vulgaris KCTC 90767 (AF138739)</text>
    </g>
    <g>
     <circle stroke="black" stroke-width="0.5" fill="#aaffff" cx="531.0" cy="363.0" r="1.0"/>
     <text stroke="none" x="531.0" y="363.0" font-size="20.0" font-family="helvetica">57</text>
    </g>
    <g>
     <circle stroke="black" stroke-width="0.5" fill="#aaffff" cx="536.0" cy="817.0" r="1.0"/>
     <text stroke="none" x="536.0" y="817.0" font-size="20.0" font-family="helvetica"/>
    </g>
    <g>
     <circle stroke="black" stroke-width="0.5" fill="#aaffff" cx="537.0" cy="1231.0" r="1.0"/>
     <text stroke="none" x="537.0" y="1231.0" font-size="20.0" font-family="helvetica">100</text>
    </g>
    <g>
     <circle stroke="black" stroke-width="0.5" fill="#aaffff" cx="539.0" cy="832.0" r="1.0"/>
     <text stroke="none" x="539.0" y="832.0" font-size="20.0" font-family="helvetica">Mechercharimyces mesophilus YM3-653 (AB239530)</text>
    </g>
    <g>
     <circle stroke="black" stroke-width="0.5" fill="#aaffff" cx="544.0" cy="1045.0" r="1.0"/>
     <text stroke="none" x="544.0" y="1045.0" font-size="20.0" font-family="helvetica">Planifilum fulgidum 5002757 (AB088362)</text>
    </g>
    <g>
     <circle stroke="black" stroke-width="0.5" fill="#aaffff" cx="544.0" cy="880.0" r="1.0"/>
     <text stroke="none" x="544.0" y="880.0" font-size="20.0" font-family="helvetica">1</text>
    </g>
    <g>
     <circle stroke="black" stroke-width="0.5" fill="#aaffff" cx="545.0" cy="818.0" r="1.0"/>
     <text stroke="none" x="545.0" y="818.0" font-size="20.0" font-family="helvetica">8</text>
    </g>
    <g>
     <circle stroke="black" stroke-width="0.5" fill="#aaffff" cx="546.0" cy="796.0" r="1.0"/>
     <text stroke="none" x="546.0" y="796.0" font-size="20.0" font-family="helvetica">Mechercharimyces mesophilus YM3-2517 (AB239529)</text>
    </g>
    <g>
     <circle stroke="black" stroke-width="0.5" fill="#aaffff" cx="549.0" cy="1086.0" r="1.0"/>
     <text stroke="none" x="549.0" y="1086.0" font-size="20.0" font-family="helvetica">Thermoflavimicrobium dichotomicum KCTC 36677 (AF138733)</text>
    </g>
    <g>
     <circle stroke="black" stroke-width="0.5" fill="#aaffff" cx="552.0" cy="921.0" r="1.0"/>
     <text stroke="none" x="552.0" y="921.0" font-size="20.0" font-family="helvetica">Mechercharimyces asporophorigenens YM11-5427 (AB239532)</text>
    </g>
    <g>
     <circle stroke="black" stroke-width="0.5" fill="#aaffff" cx="561.0" cy="1004.0" r="1.0"/>
     <text stroke="none" x="561.0" y="1004.0" font-size="20.0" font-family="helvetica">Plani27lum fimeticola H01657 (AB088364)</text>
    </g>
    <g>
     <circle stroke="black" stroke-width="0.5" fill="#aaffff" cx="568.0" cy="1252.0" r="1.0"/>
     <text stroke="none" x="568.0" y="1252.0" font-size="20.0" font-family="helvetica">Laceyella sacchari KCTC 97907 (AF138737)</text>
    </g>
    <g>
     <circle stroke="black" stroke-width="0.5" fill="#aaffff" cx="574.0" cy="1293.0" r="1.0"/>
     <text stroke="none" x="574.0" y="1293.0" font-size="20.0" font-family="helvetica">Alicyclobacillus acidocaldarius DSM 4467 (AJ496806)</text>
    </g>
    <g>
     <circle stroke="black" stroke-width="0.5" fill="#aaffff" cx="580.0" cy="1211.0" r="1.0"/>
     <text stroke="none" x="580.0" y="1211.0" font-size="20.0" font-family="helvetica">Laceyella putida KCTC 36667 (AF138736)</text>
    </g>
    <g>
     <circle stroke="black" stroke-width="0.5" fill="#aaffff" cx="582.0" cy="11.0" r="1.0"/>
     <text stroke="none" x="582.0" y="11.0" font-size="20.0" font-family="helvetica">Planococcus citreus NCIMB 14937 (X62172)</text>
    </g>
    <g>
     <circle stroke="black" stroke-width="0.5" fill="#aaffff" cx="590.0" cy="1354.0" r="1.0"/>
     <text stroke="none" x="590.0" y="1354.0" font-size="20.0" font-family="helvetica">100</text>
    </g>
    <g>
     <circle stroke="black" stroke-width="0.5" fill="#aaffff" cx="602.0" cy="673.0" r="1.0"/>
     <text stroke="none" x="602.0" y="673.0" font-size="20.0" font-family="helvetica">Aneurinibacillus aneurinilyticus DSM 55627 (AB101592)</text>
    </g>
    <g>
     <circle stroke="black" stroke-width="0.5" fill="#aaffff" cx="603.0" cy="94.0" r="1.0"/>
     <text stroke="none" x="603.0" y="94.0" font-size="20.0" font-family="helvetica">Marinibacillus maiinus DSM 12977 (AJ237708)</text>
    </g>
    <g>
     <circle stroke="black" stroke-width="0.5" fill="#aaffff" cx="603.0" cy="259.0" r="1.0"/>
     <text stroke="none" x="603.0" y="259.0" font-size="20.0" font-family="helvetica">Bacillus sublilis DSM 107 (AJ276351)</text>
    </g>
    <g>
     <circle stroke="black" stroke-width="0.5" fill="#aaffff" cx="609.0" cy="756.0" r="1.0"/>
     <text stroke="none" x="609.0" y="756.0" font-size="20.0" font-family="helvetica">Paenibacillus polymyxa IAM 134197 (AB042063)</text>
    </g>
    <g>
     <circle stroke="black" stroke-width="0.5" fill="#aaffff" cx="618.0" cy="1376.0" r="1.0"/>
     <text stroke="none" x="618.0" y="1376.0" font-size="20.0" font-family="helvetica">Pasteuria nishizawae Nonh American (AF134868)</text>
    </g>
    <g>
     <circle stroke="black" stroke-width="0.5" fill="#aaffff" cx="634.0" cy="424.0" r="1.0"/>
     <text stroke="none" x="634.0" y="424.0" font-size="20.0" font-family="helvetica">Oceanobacillus iheyensis HTE8317 (AB010863)</text>
    </g>
    <g>
     <circle stroke="black" stroke-width="0.5" fill="#aaffff" cx="635.0" cy="53.0" r="1.0"/>
     <text stroke="none" x="635.0" y="53.0" font-size="20.0" font-family="helvetica">Sporosarcina ureae NCIMB 92517 (X62175)</text>
    </g>
    <g>
     <circle stroke="black" stroke-width="0.5" fill="#aaffff" cx="636.0" cy="466.0" r="1.0"/>
     <text stroke="none" x="636.0" y="466.0" font-size="20.0" font-family="helvetica">Virgibacillus pantothenticus NCDO 17657 (X60627)</text>
    </g>
    <g>
     <circle stroke="black" stroke-width="0.5" fill="#aaffff" cx="645.0" cy="962.0" r="1.0"/>
     <text stroke="none" x="645.0" y="962.0" font-size="20.0" font-family="helvetica">Seinonella peptonophila KCTC 97407 (AF138735)</text>
    </g>
    <g>
     <circle stroke="black" stroke-width="0.5" fill="#aaffff" cx="647.0" cy="507.0" r="1.0"/>
     <text stroke="none" x="647.0" y="507.0" font-size="20.0" font-family="helvetica">Geobacillus stearothermophilus DSM 227 (AJ294817)</text>
    </g>
    <g>
     <circle stroke="black" stroke-width="0.5" fill="#aaffff" cx="648.0" cy="342.0" r="1.0"/>
     <text stroke="none" x="648.0" y="342.0" font-size="20.0" font-family="helvetica">Halobacillus halophilus NCIMB 92517 (X62174)</text>
    </g>
    <g>
     <circle stroke="black" stroke-width="0.5" fill="#aaffff" cx="669.0" cy="1335.0" r="1.0"/>
     <text stroke="none" x="669.0" y="1335.0" font-size="20.0" font-family="helvetica">lcandidatus Pasteuria usgae' S-1 (AF254387)</text>
    </g>
    <g>
     <circle stroke="black" stroke-width="0.5" fill="#aaffff" cx="673.0" cy="135.0" r="1.0"/>
     <text stroke="none" x="673.0" y="135.0" font-size="20.0" font-family="helvetica">Listeria monocytogenes NCTC 103577 (X56153)</text>
    </g>
    <g>
     <circle stroke="black" stroke-width="0.5" fill="#aaffff" cx="683.0" cy="631.0" r="1.0"/>
     <text stroke="none" x="683.0" y="631.0" font-size="20.0" font-family="helvetica">Exiguobacterium aurantiacum NCIMB 117987 (X70316)</text>
    </g>
    <g>
     <circle stroke="black" stroke-width="0.5" fill="#aaffff" cx="685.0" cy="176.0" r="1.0"/>
     <text stroke="none" x="685.0" y="176.0" font-size="20.0" font-family="helvetica">Kullhia zopfii NCIMB 98787 (X70321)</text>
    </g>
    <g>
     <circle stroke="black" stroke-width="0.5" fill="#aaffff" cx="694.0" cy="714.0" r="1.0"/>
     <text stroke="none" x="694.0" y="714.0" font-size="20.0" font-family="helvetica">Brevibacillus brevis NCIMB 93727 (X60612)</text>
    </g>
    <g>
     <circle stroke="black" stroke-width="0.5" fill="#aaffff" cx="712.0" cy="218.0" r="1.0"/>
     <text stroke="none" x="712.0" y="218.0" font-size="20.0" font-family="helvetica">Staphylococcus aureus ATCC 126007 (X68417)</text>
    </g>
    <g>
     <circle stroke="black" stroke-width="0.5" fill="#aaffff" cx="750.0" cy="590.0" r="1.0"/>
     <text stroke="none" x="750.0" y="590.0" font-size="20.0" font-family="helvetica">Turicibacler sanguinis MOL3617 (AF349724)</text>
    </g>
    <g>
     <circle stroke="black" stroke-width="0.5" fill="#aaffff" cx="761.0" cy="300.0" r="1.0"/>
     <text stroke="none" x="761.0" y="300.0" font-size="20.0" font-family="helvetica">Sporolactobacillus inulinus IFO 135957 (AB101595)</text>
    </g>
    <g>
     <circle stroke="black" stroke-width="0.5" fill="#aaffff" cx="792.0" cy="384.0" r="1.0"/>
     <text stroke="none" x="792.0" y="384.0" font-size="20.0" font-family="helvetica">Marinococcus halophilus DSM 204087 (X90835)</text>
    </g>
    <g>
     <circle stroke="black" stroke-width="0.5" fill="#aaffff" cx="819.0" cy="548.0" r="1.0"/>
     <text stroke="none" x="819.0" y="548.0" font-size="20.0" font-family="helvetica">Gemella haemolysans ATCC 103797 (L14326)</text>
    </g>
    <g>
     <circle stroke="black" stroke-width="0.5" fill="#aaffff" cx="819.0" cy="1418.0" r="1.0"/>
     <text stroke="none" x="819.0" y="1418.0" font-size="20.0" font-family="helvetica">Sulfobacillus thermosulfidooxidans AT-17 (X91080)</text>
    </g>
    <line stroke="black" x1="635.0" y1="53.0" x2="521.0" y2="32.0" stroke-width="0.5"/>
    <line stroke="black" x1="603.0" y1="94.0" x2="495.0" y2="64.0" stroke-width="0.5"/>
    <line stroke="black" x1="712.0" y1="218.0" x2="509.0" y2="196.0" stroke-width="0.5"/>
    <line stroke="black" x1="603.0" y1="259.0" x2="481.0" y2="279.0" stroke-width="0.5"/>
    <line stroke="black" x1="761.0" y1="300.0" x2="481.0" y2="279.0" stroke-width="0.5"/>
    <line stroke="black" x1="634.0" y1="424.0" x2="507.0" y2="444.0" stroke-width="0.5"/>
    <line stroke="black" x1="792.0" y1="384.0" x2="531.0" y2="363.0" stroke-width="0.5"/>
    <line stroke="black" x1="602.0" y1="673.0" x2="434.0" y2="693.0" stroke-width="0.5"/>
    <line stroke="black" x1="750.0" y1="590.0" x2="495.0" y2="568.0" stroke-width="0.5"/>
    <line stroke="black" x1="683.0" y1="631.0" x2="403.0" y2="662.0" stroke-width="0.5"/>
    <line stroke="black" x1="819.0" y1="548.0" x2="495.0" y2="568.0" stroke-width="0.5"/>
    <line stroke="black" x1="694.0" y1="714.0" x2="434.0" y2="693.0" stroke-width="0.5"/>
    <line stroke="black" x1="609.0" y1="756.0" x2="377.0" y2="711.0" stroke-width="0.5"/>
    <line stroke="black" x1="536.0" y1="817.0" x2="545.0" y2="818.0" stroke-width="0.5"/>
    <line stroke="black" x1="539.0" y1="832.0" x2="545.0" y2="818.0" stroke-width="0.5"/>
    <line stroke="black" x1="546.0" y1="796.0" x2="545.0" y2="818.0" stroke-width="0.5"/>
    <line stroke="black" x1="549.0" y1="1086.0" x2="413.0" y2="1137.0" stroke-width="0.5"/>
    <line stroke="black" x1="645.0" y1="962.0" x2="370.0" y2="1021.0" stroke-width="0.5"/>
    <line stroke="black" x1="529.0" y1="1127.0" x2="516.0" y2="1149.0" stroke-width="0.5"/>
    <line stroke="black" x1="580.0" y1="1211.0" x2="537.0" y2="1231.0" stroke-width="0.5"/>
    <line stroke="black" x1="574.0" y1="1293.0" x2="220.0" y2="1051.0" stroke-width="0.5"/>
    <line stroke="black" x1="521.0" y1="32.0" x2="495.0" y2="64.0" stroke-width="0.5"/>
    <line stroke="black" x1="495.0" y1="64.0" x2="486.0" y2="115.0" stroke-width="0.5"/>
    <line stroke="black" x1="486.0" y1="115.0" x2="470.0" y2="198.0" stroke-width="0.5"/>
    <line stroke="black" x1="486.0" y1="115.0" x2="501.0" y2="165.0" stroke-width="0.5"/>
    <line stroke="black" x1="501.0" y1="165.0" x2="509.0" y2="196.0" stroke-width="0.5"/>
    <line stroke="black" x1="470.0" y1="198.0" x2="452.0" y2="301.0" stroke-width="0.5"/>
    <line stroke="black" x1="470.0" y1="198.0" x2="481.0" y2="279.0" stroke-width="0.5"/>
    <line stroke="black" x1="452.0" y1="301.0" x2="425.0" y2="405.0" stroke-width="0.5"/>
    <line stroke="black" x1="452.0" y1="301.0" x2="490.0" y2="403.0" stroke-width="0.5"/>
    <line stroke="black" x1="425.0" y1="405.0" x2="409.0" y2="487.0" stroke-width="0.5"/>
    <line stroke="black" x1="490.0" y1="403.0" x2="507.0" y2="444.0" stroke-width="0.5"/>
    <line stroke="black" x1="490.0" y1="403.0" x2="531.0" y2="363.0" stroke-width="0.5"/>
    <line stroke="black" x1="409.0" y1="487.0" x2="396.0" y2="575.0" stroke-width="0.5"/>
    <line stroke="black" x1="409.0" y1="487.0" x2="495.0" y2="568.0" stroke-width="0.5"/>
    <line stroke="black" x1="396.0" y1="575.0" x2="377.0" y2="711.0" stroke-width="0.5"/>
    <line stroke="black" x1="396.0" y1="575.0" x2="403.0" y2="662.0" stroke-width="0.5"/>
    <line stroke="black" x1="403.0" y1="662.0" x2="434.0" y2="693.0" stroke-width="0.5"/>
    <line stroke="black" x1="377.0" y1="711.0" x2="297.0" y2="809.0" stroke-width="0.5"/>
    <line stroke="black" x1="297.0" y1="809.0" x2="220.0" y2="1051.0" stroke-width="0.5"/>
    <line stroke="black" x1="297.0" y1="809.0" x2="360.0" y2="950.0" stroke-width="0.5"/>
    <line stroke="black" x1="360.0" y1="950.0" x2="370.0" y2="1021.0" stroke-width="0.5"/>
    <line stroke="black" x1="360.0" y1="950.0" x2="544.0" y2="880.0" stroke-width="0.5"/>
    <line stroke="black" x1="370.0" y1="1021.0" x2="388.0" y2="1080.0" stroke-width="0.5"/>
    <line stroke="black" x1="220.0" y1="1051.0" x2="183.0" y2="1204.0" stroke-width="0.5"/>
    <line stroke="black" x1="388.0" y1="1080.0" x2="413.0" y2="1137.0" stroke-width="0.5"/>
    <line stroke="black" x1="388.0" y1="1080.0" x2="515.0" y2="1025.0" stroke-width="0.5"/>
    <line stroke="black" x1="413.0" y1="1137.0" x2="435.0" y2="1189.0" stroke-width="0.5"/>
    <line stroke="black" x1="544.0" y1="880.0" x2="545.0" y2="818.0" stroke-width="0.5"/>
    <line stroke="black" x1="435.0" y1="1189.0" x2="537.0" y2="1231.0" stroke-width="0.5"/>
    <line stroke="black" x1="435.0" y1="1189.0" x2="516.0" y2="1149.0" stroke-width="0.5"/>
    <line stroke="black" x1="183.0" y1="1204.0" x2="590.0" y2="1354.0" stroke-width="0.5"/>
    <line stroke="black" x1="819.0" y1="1418.0" x2="183.0" y2="1204.0" stroke-width="0.5"/>
    <line stroke="black" x1="647.0" y1="507.0" x2="425.0" y2="405.0" stroke-width="0.5"/>
    <line stroke="black" x1="530.0" y1="1169.0" x2="516.0" y2="1149.0" stroke-width="0.5"/>
    <line stroke="black" x1="544.0" y1="1045.0" x2="515.0" y2="1025.0" stroke-width="0.5"/>
    <line stroke="black" x1="561.0" y1="1004.0" x2="515.0" y2="1025.0" stroke-width="0.5"/>
    <line stroke="black" x1="552.0" y1="921.0" x2="544.0" y2="880.0" stroke-width="0.5"/>
    <line stroke="black" x1="568.0" y1="1252.0" x2="537.0" y2="1231.0" stroke-width="0.5"/>
    <line stroke="black" x1="636.0" y1="466.0" x2="507.0" y2="444.0" stroke-width="0.5"/>
    <line stroke="black" x1="582.0" y1="11.0" x2="521.0" y2="32.0" stroke-width="0.5"/>
    <line stroke="black" x1="673.0" y1="135.0" x2="501.0" y2="165.0" stroke-width="0.5"/>
    <line stroke="black" x1="685.0" y1="176.0" x2="509.0" y2="196.0" stroke-width="0.5"/>
    <line stroke="black" x1="648.0" y1="342.0" x2="531.0" y2="363.0" stroke-width="0.5"/>
    <line stroke="black" x1="618.0" y1="1376.0" x2="590.0" y2="1354.0" stroke-width="0.5"/>
    <line stroke="black" x1="669.0" y1="1335.0" x2="590.0" y2="1354.0" stroke-width="0.5"/>
   </g>
  </g>
 </svg>
</svg>
