<?xml version="1.0" encoding="UTF-8"?>
<svg height="800.0" width="700.0" xmlns="http://www.w3.org/2000/svg">
 <svg>
  <g>
   <g>
    <g>
     <circle stroke="black" stroke-width="0.5" fill="#aaffff" cx="77.0" cy="1281.0" r="1.0"/>
     <text stroke="none" x="77.0" y="1281.0" font-size="10.0" font-family="helvetica">NT1.1</text>
    </g>
    <g>
     <circle stroke="black" stroke-width="0.5" fill="#aaffff" cx="91.0" cy="1628.0" r="1.0"/>
     <text stroke="none" x="91.0" y="1628.0" font-size="20.0" font-family="helvetica">97</text>
    </g>
    <g>
     <circle stroke="black" stroke-width="0.5" fill="#aaffff" cx="95.0" cy="1453.0" r="1.0"/>
     <text stroke="none" x="95.0" y="1453.0" font-size="10.0" font-family="helvetica">NT1.3</text>
    </g>
    <g>
     <circle stroke="black" stroke-width="0.5" fill="#aaffff" cx="101.0" cy="1105.0" r="1.0"/>
     <text stroke="none" x="101.0" y="1105.0" font-size="10.0" font-family="helvetica">NT1.4</text>
    </g>
    <g>
     <circle stroke="black" stroke-width="0.5" fill="#aaffff" cx="111.0" cy="1482.0" r="1.0"/>
     <text stroke="none" x="111.0" y="1482.0" font-size="10.0" font-family="helvetica">NT1.5</text>
    </g>
    <g>
     <circle stroke="black" stroke-width="0.5" fill="#aaffff" cx="133.0" cy="1509.0" r="1.0"/>
     <text stroke="none" x="133.0" y="1509.0" font-size="10.0" font-family="helvetica">NT1.6</text>
    </g>
    <g>
     <circle stroke="black" stroke-width="0.5" fill="#aaffff" cx="153.0" cy="1532.0" r="1.0"/>
     <text stroke="none" x="153.0" y="1532.0" font-size="10.0" font-family="helvetica">NT1.7</text>
    </g>
    <g>
     <circle stroke="black" stroke-width="0.5" fill="#aaffff" cx="154.0" cy="816.0" r="1.0"/>
     <text stroke="none" x="154.0" y="816.0" font-size="10.0" font-family="helvetica">NT1.8</text>
    </g>
    <g>
     <circle stroke="black" stroke-width="0.5" fill="#aaffff" cx="185.0" cy="956.0" r="1.0"/>
     <text stroke="none" x="185.0" y="956.0" font-size="20.0" font-family="helvetica">59</text>
    </g>
    <g>
     <circle stroke="black" stroke-width="0.5" fill="#aaffff" cx="213.0" cy="674.0" r="1.0"/>
     <text stroke="none" x="213.0" y="674.0" font-size="10.0" font-family="helvetica">NT1.10</text>
    </g>
    <g>
     <circle stroke="black" stroke-width="0.5" fill="#aaffff" cx="231.0" cy="598.0" r="1.0"/>
     <text stroke="none" x="231.0" y="598.0" font-size="10.0" font-family="helvetica">NT1.11</text>
    </g>
    <g>
     <circle stroke="black" stroke-width="0.5" fill="#aaffff" cx="249.0" cy="507.0" r="1.0"/>
     <text stroke="none" x="249.0" y="507.0" font-size="10.0" font-family="helvetica">NT1.12</text>
    </g>
    <g>
     <circle stroke="black" stroke-width="0.5" fill="#aaffff" cx="257.0" cy="747.0" r="1.0"/>
     <text stroke="none" x="257.0" y="747.0" font-size="10.0" font-family="helvetica">NT1.13</text>
    </g>
    <g>
     <circle stroke="black" stroke-width="0.5" fill="#aaffff" cx="259.0" cy="579.0" r="1.0"/>
     <text stroke="none" x="259.0" y="579.0" font-size="10.0" font-family="helvetica">NT1.14</text>
    </g>
    <g>
     <circle stroke="black" stroke-width="0.5" fill="#aaffff" cx="269.0" cy="433.0" r="1.0"/>
     <text stroke="none" x="269.0" y="433.0" font-size="10.0" font-family="helvetica">NT1.15</text>
    </g>
    <g>
     <circle stroke="black" stroke-width="0.5" fill="#aaffff" cx="275.0" cy="543.0" r="1.0"/>
     <text stroke="none" x="275.0" y="543.0" font-size="10.0" font-family="helvetica">NT1.16</text>
    </g>
    <g>
     <circle stroke="black" stroke-width="0.5" fill="#aaffff" cx="281.0" cy="775.0" r="1.0"/>
     <text stroke="none" x="281.0" y="775.0" font-size="10.0" font-family="helvetica">NT1.17</text>
    </g>
    <g>
     <circle stroke="black" stroke-width="0.5" fill="#aaffff" cx="285.0" cy="391.0" r="1.0"/>
     <text stroke="none" x="285.0" y="391.0" font-size="10.0" font-family="helvetica">NT1.18</text>
    </g>
    <g>
     <circle stroke="black" stroke-width="0.5" fill="#aaffff" cx="293.0" cy="1039.0" r="1.0"/>
     <text stroke="none" x="293.0" y="1039.0" font-size="20.0" font-family="helvetica">92</text>
    </g>
    <g>
     <circle stroke="black" stroke-width="0.5" fill="#aaffff" cx="295.0" cy="1595.0" r="1.0"/>
     <text stroke="none" x="295.0" y="1595.0" font-size="20.0" font-family="helvetica">99</text>
    </g>
    <g>
     <circle stroke="black" stroke-width="0.5" fill="#aaffff" cx="297.0" cy="618.0" r="1.0"/>
     <text stroke="none" x="297.0" y="618.0" font-size="20.0" font-family="helvetica">54</text>
    </g>
    <g>
     <circle stroke="black" stroke-width="0.5" fill="#aaffff" cx="297.0" cy="520.0" r="1.0"/>
     <text stroke="none" x="297.0" y="520.0" font-size="10.0" font-family="helvetica">NT1.22</text>
    </g>
    <g>
     <circle stroke="black" stroke-width="0.5" fill="#aaffff" cx="303.0" cy="338.0" r="1.0"/>
     <text stroke="none" x="303.0" y="338.0" font-size="10.0" font-family="helvetica">NT1.23</text>
    </g>
    <g>
     <circle stroke="black" stroke-width="0.5" fill="#aaffff" cx="327.0" cy="281.0" r="1.0"/>
     <text stroke="none" x="327.0" y="281.0" font-size="10.0" font-family="helvetica">NT1.24</text>
    </g>
    <g>
     <circle stroke="black" stroke-width="0.5" fill="#aaffff" cx="336.0" cy="473.0" r="1.0"/>
     <text stroke="none" x="336.0" y="473.0" font-size="20.0" font-family="helvetica">H. ventosae AI127 (AY268080)</text>
    </g>
    <g>
     <circle stroke="black" stroke-width="0.5" fill="#aaffff" cx="347.0" cy="209.0" r="1.0"/>
     <text stroke="none" x="347.0" y="209.0" font-size="10.0" font-family="helvetica">NT1.26</text>
    </g>
    <g>
     <circle stroke="black" stroke-width="0.5" fill="#aaffff" cx="365.0" cy="163.0" r="1.0"/>
     <text stroke="none" x="365.0" y="163.0" font-size="10.0" font-family="helvetica">NT1.27</text>
    </g>
    <g>
     <circle stroke="black" stroke-width="0.5" fill="#aaffff" cx="379.0" cy="641.0" r="1.0"/>
     <text stroke="none" x="379.0" y="641.0" font-size="20.0" font-family="helvetica">87</text>
    </g>
    <g>
     <circle stroke="black" stroke-width="0.5" fill="#aaffff" cx="380.0" cy="1456.0" r="1.0"/>
     <text stroke="none" x="380.0" y="1456.0" font-size="20.0" font-family="helvetica">H. anticariensis FP357 (AY489405)</text>
    </g>
    <g>
     <circle stroke="black" stroke-width="0.5" fill="#aaffff" cx="385.0" cy="802.0" r="1.0"/>
     <text stroke="none" x="385.0" y="802.0" font-size="20.0" font-family="helvetica">96</text>
    </g>
    <g>
     <circle stroke="black" stroke-width="0.5" fill="#aaffff" cx="387.0" cy="395.0" r="1.0"/>
     <text stroke="none" x="387.0" y="395.0" font-size="20.0" font-family="helvetica">81</text>
    </g>
    <g>
     <circle stroke="black" stroke-width="0.5" fill="#aaffff" cx="401.0" cy="252.0" r="1.0"/>
     <text stroke="none" x="401.0" y="252.0" font-size="10.0" font-family="helvetica">NT1.32</text>
    </g>
    <g>
     <circle stroke="black" stroke-width="0.5" fill="#aaffff" cx="408.0" cy="688.0" r="1.0"/>
     <text stroke="none" x="408.0" y="688.0" font-size="20.0" font-family="helvetica">H. mongoliensis Z-70097 (AY962236)</text>
    </g>
    <g>
     <circle stroke="black" stroke-width="0.5" fill="#aaffff" cx="414.0" cy="127.0" r="1.0"/>
     <text stroke="none" x="414.0" y="127.0" font-size="10.0" font-family="helvetica">NT1.34</text>
    </g>
    <g>
     <circle stroke="black" stroke-width="0.5" fill="#aaffff" cx="420.0" cy="719.0" r="1.0"/>
     <text stroke="none" x="420.0" y="719.0" font-size="20.0" font-family="helvetica">H. campaniensis SAG7 (AJ515365)</text>
    </g>
    <g>
     <circle stroke="black" stroke-width="0.5" fill="#aaffff" cx="423.0" cy="1160.0" r="1.0"/>
     <text stroke="none" x="423.0" y="1160.0" font-size="20.0" font-family="helvetica">99</text>
    </g>
    <g>
     <circle stroke="black" stroke-width="0.5" fill="#aaffff" cx="428.0" cy="565.0" r="1.0"/>
     <text stroke="none" x="428.0" y="565.0" font-size="20.0" font-family="helvetica">Strain 5CRT (EU541349)</text>
    </g>
    <g>
     <circle stroke="black" stroke-width="0.5" fill="#aaffff" cx="438.0" cy="1548.0" r="1.0"/>
     <text stroke="none" x="438.0" y="1548.0" font-size="20.0" font-family="helvetica">H. pantelleriensis AAP7 (X93493)</text>
    </g>
    <g>
     <circle stroke="black" stroke-width="0.5" fill="#aaffff" cx="446.0" cy="825.0" r="1.0"/>
     <text stroke="none" x="446.0" y="825.0" font-size="20.0" font-family="helvetica">87</text>
    </g>
    <g>
     <circle stroke="black" stroke-width="0.5" fill="#aaffff" cx="452.0" cy="1068.0" r="1.0"/>
     <text stroke="none" x="452.0" y="1068.0" font-size="20.0" font-family="helvetica">59</text>
    </g>
    <g>
     <circle stroke="black" stroke-width="0.5" fill="#aaffff" cx="456.0" cy="280.0" r="1.0"/>
     <text stroke="none" x="456.0" y="280.0" font-size="10.0" font-family="helvetica">NT1.41</text>
    </g>
    <g>
     <circle stroke="black" stroke-width="0.5" fill="#aaffff" cx="459.0" cy="196.0" r="1.0"/>
     <text stroke="none" x="459.0" y="196.0" font-size="20.0" font-family="helvetica">H. nitroreducens 11S7(EF613113)</text>
    </g>
    <g>
     <circle stroke="black" stroke-width="0.5" fill="#aaffff" cx="459.0" cy="595.0" r="1.0"/>
     <text stroke="none" x="459.0" y="595.0" font-size="20.0" font-family="helvetica">H. shengliensis SL014B-857 (EF121853)</text>
    </g>
    <g>
     <circle stroke="black" stroke-width="0.5" fill="#aaffff" cx="463.0" cy="626.0" r="1.0"/>
     <text stroke="none" x="463.0" y="626.0" font-size="20.0" font-family="helvetica">H. alimentaria YKJ-167 (AF211860)</text>
    </g>
    <g>
     <circle stroke="black" stroke-width="0.5" fill="#aaffff" cx="465.0" cy="381.0" r="1.0"/>
     <text stroke="none" x="465.0" y="381.0" font-size="20.0" font-family="helvetica">H. denitrificans M297 (AM229317)</text>
    </g>
    <g>
     <circle stroke="black" stroke-width="0.5" fill="#aaffff" cx="477.0" cy="920.0" r="1.0"/>
     <text stroke="none" x="477.0" y="920.0" font-size="20.0" font-family="helvetica">99</text>
    </g>
    <g>
     <circle stroke="black" stroke-width="0.5" fill="#aaffff" cx="477.0" cy="1255.0" r="1.0"/>
     <text stroke="none" x="477.0" y="1255.0" font-size="20.0" font-family="helvetica">90</text>
    </g>
    <g>
     <circle stroke="black" stroke-width="0.5" fill="#aaffff" cx="478.0" cy="1517.0" r="1.0"/>
     <text stroke="none" x="478.0" y="1517.0" font-size="20.0" font-family="helvetica">H. muralis LMG 209697 (AJ320530)</text>
    </g>
    <g>
     <circle stroke="black" stroke-width="0.5" fill="#aaffff" cx="485.0" cy="442.0" r="1.0"/>
     <text stroke="none" x="485.0" y="442.0" font-size="20.0" font-family="helvetica">H. cupida DSM 47401 (L42615)</text>
    </g>
    <g>
     <circle stroke="black" stroke-width="0.5" fill="#aaffff" cx="485.0" cy="1425.0" r="1.0"/>
     <text stroke="none" x="485.0" y="1425.0" font-size="20.0" font-family="helvetica">H. salaria M277 (AM229316)</text>
    </g>
    <g>
     <circle stroke="black" stroke-width="0.5" fill="#aaffff" cx="489.0" cy="227.0" r="1.0"/>
     <text stroke="none" x="489.0" y="227.0" font-size="20.0" font-family="helvetica">H. koreensis SS207 (AY382579)</text>
    </g>
    <g>
     <circle stroke="black" stroke-width="0.5" fill="#aaffff" cx="501.0" cy="1394.0" r="1.0"/>
     <text stroke="none" x="501.0" y="1394.0" font-size="20.0" font-family="helvetica">H. taeanensis DSM 164637 (AY671975)</text>
    </g>
    <g>
     <circle stroke="black" stroke-width="0.5" fill="#aaffff" cx="515.0" cy="534.0" r="1.0"/>
     <text stroke="none" x="515.0" y="534.0" font-size="20.0" font-family="helvetica">H. cerina SP47 (EF613112)</text>
    </g>
    <g>
     <circle stroke="black" stroke-width="0.5" fill="#aaffff" cx="521.0" cy="411.0" r="1.0"/>
     <text stroke="none" x="521.0" y="411.0" font-size="20.0" font-family="helvetica">H. saccharevitans AJ2757 (EF144149)</text>
    </g>
    <g>
     <circle stroke="black" stroke-width="0.5" fill="#aaffff" cx="538.0" cy="86.0" r="1.0"/>
     <text stroke="none" x="538.0" y="86.0" font-size="20.0" font-family="helvetica">98</text>
    </g>
    <g>
     <circle stroke="black" stroke-width="0.5" fill="#aaffff" cx="539.0" cy="350.0" r="1.0"/>
     <text stroke="none" x="539.0" y="350.0" font-size="20.0" font-family="helvetica">H. pacifica DSM 4742T (L42616)</text>
    </g>
    <g>
     <circle stroke="black" stroke-width="0.5" fill="#aaffff" cx="555.0" cy="1297.0" r="1.0"/>
     <text stroke="none" x="555.0" y="1297.0" font-size="20.0" font-family="helvetica">88</text>
    </g>
    <g>
     <circle stroke="black" stroke-width="0.5" fill="#aaffff" cx="555.0" cy="1662.0" r="1.0"/>
     <text stroke="none" x="555.0" y="1662.0" font-size="20.0" font-family="helvetica">99</text>
    </g>
    <g>
     <circle stroke="black" stroke-width="0.5" fill="#aaffff" cx="558.0" cy="1031.0" r="1.0"/>
     <text stroke="none" x="558.0" y="1031.0" font-size="20.0" font-family="helvetica">96</text>
    </g>
    <g>
     <circle stroke="black" stroke-width="0.5" fill="#aaffff" cx="558.0" cy="1215.0" r="1.0"/>
     <text stroke="none" x="558.0" y="1215.0" font-size="20.0" font-family="helvetica">95</text>
    </g>
    <g>
     <circle stroke="black" stroke-width="0.5" fill="#aaffff" cx="561.0" cy="258.0" r="1.0"/>
     <text stroke="none" x="561.0" y="258.0" font-size="20.0" font-family="helvetica">H. organivorans G-16.17 (AJ616910)</text>
    </g>
    <g>
     <circle stroke="black" stroke-width="0.5" fill="#aaffff" cx="561.0" cy="841.0" r="1.0"/>
     <text stroke="none" x="561.0" y="841.0" font-size="20.0" font-family="helvetica">H. kenyensis AIR-27 (AY962237)</text>
    </g>
    <g>
     <circle stroke="black" stroke-width="0.5" fill="#aaffff" cx="563.0" cy="780.0" r="1.0"/>
     <text stroke="none" x="563.0" y="780.0" font-size="20.0" font-family="helvetica">H. campisalis ATCC 7005977 (AF054286)</text>
    </g>
    <g>
     <circle stroke="black" stroke-width="0.5" fill="#aaffff" cx="570.0" cy="1101.0" r="1.0"/>
     <text stroke="none" x="570.0" y="1101.0" font-size="20.0" font-family="helvetica">99</text>
    </g>
    <g>
     <circle stroke="black" stroke-width="0.5" fill="#aaffff" cx="571.0" cy="1486.0" r="1.0"/>
     <text stroke="none" x="571.0" y="1486.0" font-size="20.0" font-family="helvetica">H. kribbensis BH8437 (DQ280368)</text>
    </g>
    <g>
     <circle stroke="black" stroke-width="0.5" fill="#aaffff" cx="590.0" cy="1118.0" r="1.0"/>
     <text stroke="none" x="590.0" y="1118.0" font-size="20.0" font-family="helvetica">H. hydrothermalis SIthf2T (AF212218)</text>
    </g>
    <g>
     <circle stroke="black" stroke-width="0.5" fill="#aaffff" cx="592.0" cy="1087.0" r="1.0"/>
     <text stroke="none" x="592.0" y="1087.0" font-size="20.0" font-family="helvetica">H. venusta DSM 47437 (AJ306894)</text>
    </g>
    <g>
     <circle stroke="black" stroke-width="0.5" fill="#aaffff" cx="595.0" cy="1685.0" r="1.0"/>
     <text stroke="none" x="595.0" y="1685.0" font-size="20.0" font-family="helvetica">93</text>
    </g>
    <g>
     <circle stroke="black" stroke-width="0.5" fill="#aaffff" cx="596.0" cy="749.0" r="1.0"/>
     <text stroke="none" x="596.0" y="749.0" font-size="20.0" font-family="helvetica">H. gudaonensis SLO14B-69A17(DQ421808)</text>
    </g>
    <g>
     <circle stroke="black" stroke-width="0.5" fill="#aaffff" cx="597.0" cy="1324.0" r="1.0"/>
     <text stroke="none" x="597.0" y="1324.0" font-size="20.0" font-family="helvetica">61</text>
    </g>
    <g>
     <circle stroke="black" stroke-width="0.5" fill="#aaffff" cx="609.0" cy="872.0" r="1.0"/>
     <text stroke="none" x="609.0" y="872.0" font-size="20.0" font-family="helvetica">H. halocynthiae KMM 13767 (AJ417388)</text>
    </g>
    <g>
     <circle stroke="black" stroke-width="0.5" fill="#aaffff" cx="615.0" cy="811.0" r="1.0"/>
     <text stroke="none" x="615.0" y="811.0" font-size="20.0" font-family="helvetica">H. desiderata FB27 (X92417)</text>
    </g>
    <g>
     <circle stroke="black" stroke-width="0.5" fill="#aaffff" cx="618.0" cy="1188.0" r="1.0"/>
     <text stroke="none" x="618.0" y="1188.0" font-size="20.0" font-family="helvetica">96</text>
    </g>
    <g>
     <circle stroke="black" stroke-width="0.5" fill="#aaffff" cx="619.0" cy="118.0" r="1.0"/>
     <text stroke="none" x="619.0" y="118.0" font-size="20.0" font-family="helvetica">96</text>
    </g>
    <g>
     <circle stroke="black" stroke-width="0.5" fill="#aaffff" cx="634.0" cy="52.0" r="1.0"/>
     <text stroke="none" x="634.0" y="52.0" font-size="20.0" font-family="helvetica">99</text>
    </g>
    <g>
     <circle stroke="black" stroke-width="0.5" fill="#aaffff" cx="636.0" cy="1640.0" r="1.0"/>
     <text stroke="none" x="636.0" y="1640.0" font-size="20.0" font-family="helvetica">H. avicenniae MW2a7 (DQ888315)</text>
    </g>
    <g>
     <circle stroke="black" stroke-width="0.5" fill="#aaffff" cx="638.0" cy="166.0" r="1.0"/>
     <text stroke="none" x="638.0" y="166.0" font-size="20.0" font-family="helvetica">H. maura S-317 (AJ271864)</text>
    </g>
    <g>
     <circle stroke="black" stroke-width="0.5" fill="#aaffff" cx="638.0" cy="903.0" r="1.0"/>
     <text stroke="none" x="638.0" y="903.0" font-size="20.0" font-family="helvetica">H. halodurans DSM 51607 (L42619)</text>
    </g>
    <g>
     <circle stroke="black" stroke-width="0.5" fill="#aaffff" cx="648.0" cy="1165.0" r="1.0"/>
     <text stroke="none" x="648.0" y="1165.0" font-size="20.0" font-family="helvetica">79</text>
    </g>
    <g>
     <circle stroke="black" stroke-width="0.5" fill="#aaffff" cx="651.0" cy="1241.0" r="1.0"/>
     <text stroke="none" x="651.0" y="1241.0" font-size="20.0" font-family="helvetica">H. sulfidaeris EsuIfide17 (AF212204)</text>
    </g>
    <g>
     <circle stroke="black" stroke-width="0.5" fill="#aaffff" cx="657.0" cy="934.0" r="1.0"/>
     <text stroke="none" x="657.0" y="934.0" font-size="20.0" font-family="helvetica">H. subg1aciescoIa DSM 46837 (AJ306892)</text>
    </g>
    <g>
     <circle stroke="black" stroke-width="0.5" fill="#aaffff" cx="660.0" cy="303.0" r="1.0"/>
     <text stroke="none" x="660.0" y="303.0" font-size="20.0" font-family="helvetica">99</text>
    </g>
    <g>
     <circle stroke="black" stroke-width="0.5" fill="#aaffff" cx="663.0" cy="135.0" r="1.0"/>
     <text stroke="none" x="663.0" y="135.0" font-size="20.0" font-family="helvetica">H. eurihalina ATCC 493387 (X87218)</text>
    </g>
    <g>
     <circle stroke="black" stroke-width="0.5" fill="#aaffff" cx="669.0" cy="1179.0" r="1.0"/>
     <text stroke="none" x="669.0" y="1179.0" font-size="20.0" font-family="helvetica">H. boliviensis LC17 (AY245449)</text>
    </g>
    <g>
     <circle stroke="black" stroke-width="0.5" fill="#aaffff" cx="672.0" cy="1004.0" r="1.0"/>
     <text stroke="none" x="672.0" y="1004.0" font-size="10.0" font-family="helvetica">NT1.85</text>
    </g>
    <g>
     <circle stroke="black" stroke-width="0.5" fill="#aaffff" cx="673.0" cy="1702.0" r="1.0"/>
     <text stroke="none" x="673.0" y="1702.0" font-size="20.0" font-family="helvetica">H. marisflavi SW327 (AF251143)</text>
    </g>
    <g>
     <circle stroke="black" stroke-width="0.5" fill="#aaffff" cx="675.0" cy="1272.0" r="1.0"/>
     <text stroke="none" x="675.0" y="1272.0" font-size="20.0" font-family="helvetica">H. gomseomensls M127 (AM229314)</text>
    </g>
    <g>
     <circle stroke="black" stroke-width="0.5" fill="#aaffff" cx="679.0" cy="1026.0" r="1.0"/>
     <text stroke="none" x="679.0" y="1026.0" font-size="20.0" font-family="helvetica">H. aquamarina DSM 301617 (AJ306B88)</text>
    </g>
    <g>
     <circle stroke="black" stroke-width="0.5" fill="#aaffff" cx="685.0" cy="1149.0" r="1.0"/>
     <text stroke="none" x="685.0" y="1149.0" font-size="20.0" font-family="helvetica">H. neptunia Eplume17 (AF212202)</text>
    </g>
    <g>
     <circle stroke="black" stroke-width="0.5" fill="#aaffff" cx="685.0" cy="1671.0" r="1.0"/>
     <text stroke="none" x="685.0" y="1671.0" font-size="20.0" font-family="helvetica">H. indalinina CG2.17 (AJ427627)</text>
    </g>
    <g>
     <circle stroke="black" stroke-width="0.5" fill="#aaffff" cx="691.0" cy="104.0" r="1.0"/>
     <text stroke="none" x="691.0" y="104.0" font-size="20.0" font-family="helvetica">H. elongata ATCC 331737 (X67023)</text>
    </g>
    <g>
     <circle stroke="black" stroke-width="0.5" fill="#aaffff" cx="691.0" cy="964.0" r="1.0"/>
     <text stroke="none" x="691.0" y="964.0" font-size="20.0" font-family="helvetica">H. merfdiana DSM 54257 (AJ306891)</text>
    </g>
    <g>
     <circle stroke="black" stroke-width="0.5" fill="#aaffff" cx="693.0" cy="288.0" r="1.0"/>
     <text stroke="none" x="693.0" y="288.0" font-size="20.0" font-family="helvetica">H. saline ATCC 495097 (AJ243447)</text>
    </g>
    <g>
     <circle stroke="black" stroke-width="0.5" fill="#aaffff" cx="702.0" cy="1365.0" r="1.0"/>
     <text stroke="none" x="702.0" y="1365.0" font-size="20.0" font-family="helvetica">H. janggokensis M247 (AM229315)</text>
    </g>
    <g>
     <circle stroke="black" stroke-width="0.5" fill="#aaffff" cx="702.0" cy="1347.0" r="1.0"/>
     <text stroke="none" x="702.0" y="1347.0" font-size="20.0" font-family="helvetica">99</text>
    </g>
    <g>
     <circle stroke="black" stroke-width="0.5" fill="#aaffff" cx="705.0" cy="504.0" r="1.0"/>
     <text stroke="none" x="705.0" y="504.0" font-size="20.0" font-family="helvetica">H. korlensis XK17(EU085O33)</text>
    </g>
    <g>
     <circle stroke="black" stroke-width="0.5" fill="#aaffff" cx="715.0" cy="1333.0" r="1.0"/>
     <text stroke="none" x="715.0" y="1333.0" font-size="20.0" font-family="helvetica">H. subterranea ZG167 (EF144148)</text>
    </g>
    <g>
     <circle stroke="black" stroke-width="0.5" fill="#aaffff" cx="723.0" cy="74.0" r="1.0"/>
     <text stroke="none" x="723.0" y="74.0" font-size="20.0" font-family="helvetica">H. almeriensis M87 (AY858696)</text>
    </g>
    <g>
     <circle stroke="black" stroke-width="0.5" fill="#aaffff" cx="723.0" cy="1610.0" r="1.0"/>
     <text stroke="none" x="723.0" y="1610.0" font-size="20.0" font-family="helvetica">Carnimonas nigrificans CTCBS1T (Y13299)</text>
    </g>
    <g>
     <circle stroke="black" stroke-width="0.5" fill="#aaffff" cx="726.0" cy="29.0" r="1.0"/>
     <text stroke="none" x="726.0" y="29.0" font-size="20.0" font-family="helvetica">93</text>
    </g>
    <g>
     <circle stroke="black" stroke-width="0.5" fill="#aaffff" cx="729.0" cy="1210.0" r="1.0"/>
     <text stroke="none" x="729.0" y="1210.0" font-size="20.0" font-family="helvetica">H. variabilis DSM 30517 (AJ306893)</text>
    </g>
    <g>
     <circle stroke="black" stroke-width="0.5" fill="#aaffff" cx="731.0" cy="1302.0" r="1.0"/>
     <text stroke="none" x="731.0" y="1302.0" font-size="20.0" font-family="helvetica">H. arcis AJ2827 (EF144147)</text>
    </g>
    <g>
     <circle stroke="black" stroke-width="0.5" fill="#aaffff" cx="733.0" cy="43.0" r="1.0"/>
     <text stroke="none" x="733.0" y="43.0" font-size="20.0" font-family="helvetica">H. sabkhae CECT 72467 (EF442769)</text>
    </g>
    <g>
     <circle stroke="black" stroke-width="0.5" fill="#aaffff" cx="739.0" cy="319.0" r="1.0"/>
     <text stroke="none" x="739.0" y="319.0" font-size="20.0" font-family="helvetica">H. halophila DSM 47707 (M93353)</text>
    </g>
    <g>
     <circle stroke="black" stroke-width="0.5" fill="#aaffff" cx="761.0" cy="12.0" r="1.0"/>
     <text stroke="none" x="761.0" y="12.0" font-size="20.0" font-family="helvetica">H. halmophila ATCC 197177 (AJ306889)</text>
    </g>
    <g>
     <circle stroke="black" stroke-width="0.5" fill="#aaffff" cx="773.0" cy="1057.0" r="1.0"/>
     <text stroke="none" x="773.0" y="1057.0" font-size="20.0" font-family="helvetica">H. magadiensis 21 M17 (X92150)</text>
    </g>
    <g>
     <circle stroke="black" stroke-width="0.5" fill="#aaffff" cx="805.0" cy="657.0" r="1.0"/>
     <text stroke="none" x="805.0" y="657.0" font-size="20.0" font-family="helvetica">H. halodenitrmcans ATCC 135117 (LO4942)</text>
    </g>
    <g>
     <circle stroke="black" stroke-width="0.5" fill="#aaffff" cx="805.0" cy="1579.0" r="1.0"/>
     <text stroke="none" x="805.0" y="1579.0" font-size="20.0" font-family="helvetica">Zymobacter palmae T1097 (D14555)</text>
    </g>
    <line stroke="black" x1="691.0" y1="104.0" x2="619.0" y2="118.0" stroke-width="0.5"/>
    <line stroke="black" x1="459.0" y1="196.0" x2="365.0" y2="163.0" stroke-width="0.5"/>
    <line stroke="black" x1="428.0" y1="565.0" x2="275.0" y2="543.0" stroke-width="0.5"/>
    <line stroke="black" x1="459.0" y1="595.0" x2="297.0" y2="618.0" stroke-width="0.5"/>
    <line stroke="black" x1="408.0" y1="688.0" x2="231.0" y2="598.0" stroke-width="0.5"/>
    <line stroke="black" x1="805.0" y1="657.0" x2="379.0" y2="641.0" stroke-width="0.5"/>
    <line stroke="black" x1="609.0" y1="872.0" x2="185.0" y2="956.0" stroke-width="0.5"/>
    <line stroke="black" x1="675.0" y1="1272.0" x2="555.0" y2="1297.0" stroke-width="0.5"/>
    <line stroke="black" x1="501.0" y1="1394.0" x2="101.0" y2="1105.0" stroke-width="0.5"/>
    <line stroke="black" x1="702.0" y1="1365.0" x2="702.0" y2="1347.0" stroke-width="0.5"/>
    <line stroke="black" x1="478.0" y1="1517.0" x2="153.0" y2="1532.0" stroke-width="0.5"/>
    <line stroke="black" x1="726.0" y1="29.0" x2="634.0" y2="52.0" stroke-width="0.5"/>
    <line stroke="black" x1="634.0" y1="52.0" x2="538.0" y2="86.0" stroke-width="0.5"/>
    <line stroke="black" x1="538.0" y1="86.0" x2="414.0" y2="127.0" stroke-width="0.5"/>
    <line stroke="black" x1="538.0" y1="86.0" x2="619.0" y2="118.0" stroke-width="0.5"/>
    <line stroke="black" x1="414.0" y1="127.0" x2="365.0" y2="163.0" stroke-width="0.5"/>
    <line stroke="black" x1="365.0" y1="163.0" x2="347.0" y2="209.0" stroke-width="0.5"/>
    <line stroke="black" x1="347.0" y1="209.0" x2="327.0" y2="281.0" stroke-width="0.5"/>
    <line stroke="black" x1="347.0" y1="209.0" x2="401.0" y2="252.0" stroke-width="0.5"/>
    <line stroke="black" x1="327.0" y1="281.0" x2="303.0" y2="338.0" stroke-width="0.5"/>
    <line stroke="black" x1="401.0" y1="252.0" x2="456.0" y2="280.0" stroke-width="0.5"/>
    <line stroke="black" x1="303.0" y1="338.0" x2="285.0" y2="391.0" stroke-width="0.5"/>
    <line stroke="black" x1="303.0" y1="338.0" x2="387.0" y2="395.0" stroke-width="0.5"/>
    <line stroke="black" x1="456.0" y1="280.0" x2="660.0" y2="303.0" stroke-width="0.5"/>
    <line stroke="black" x1="285.0" y1="391.0" x2="269.0" y2="433.0" stroke-width="0.5"/>
    <line stroke="black" x1="269.0" y1="433.0" x2="249.0" y2="507.0" stroke-width="0.5"/>
    <line stroke="black" x1="249.0" y1="507.0" x2="231.0" y2="598.0" stroke-width="0.5"/>
    <line stroke="black" x1="249.0" y1="507.0" x2="259.0" y2="579.0" stroke-width="0.5"/>
    <line stroke="black" x1="259.0" y1="579.0" x2="297.0" y2="618.0" stroke-width="0.5"/>
    <line stroke="black" x1="259.0" y1="579.0" x2="275.0" y2="543.0" stroke-width="0.5"/>
    <line stroke="black" x1="231.0" y1="598.0" x2="213.0" y2="674.0" stroke-width="0.5"/>
    <line stroke="black" x1="275.0" y1="543.0" x2="297.0" y2="520.0" stroke-width="0.5"/>
    <line stroke="black" x1="297.0" y1="618.0" x2="379.0" y2="641.0" stroke-width="0.5"/>
    <line stroke="black" x1="213.0" y1="674.0" x2="154.0" y2="816.0" stroke-width="0.5"/>
    <line stroke="black" x1="213.0" y1="674.0" x2="257.0" y2="747.0" stroke-width="0.5"/>
    <line stroke="black" x1="257.0" y1="747.0" x2="281.0" y2="775.0" stroke-width="0.5"/>
    <line stroke="black" x1="281.0" y1="775.0" x2="385.0" y2="802.0" stroke-width="0.5"/>
    <line stroke="black" x1="154.0" y1="816.0" x2="101.0" y2="1105.0" stroke-width="0.5"/>
    <line stroke="black" x1="154.0" y1="816.0" x2="185.0" y2="956.0" stroke-width="0.5"/>
    <line stroke="black" x1="385.0" y1="802.0" x2="446.0" y2="825.0" stroke-width="0.5"/>
    <line stroke="black" x1="185.0" y1="956.0" x2="293.0" y2="1039.0" stroke-width="0.5"/>
    <line stroke="black" x1="101.0" y1="1105.0" x2="77.0" y2="1281.0" stroke-width="0.5"/>
    <line stroke="black" x1="293.0" y1="1039.0" x2="423.0" y2="1160.0" stroke-width="0.5"/>
    <line stroke="black" x1="293.0" y1="1039.0" x2="477.0" y2="920.0" stroke-width="0.5"/>
    <line stroke="black" x1="77.0" y1="1281.0" x2="95.0" y2="1453.0" stroke-width="0.5"/>
    <line stroke="black" x1="423.0" y1="1160.0" x2="477.0" y2="1255.0" stroke-width="0.5"/>
    <line stroke="black" x1="423.0" y1="1160.0" x2="452.0" y2="1068.0" stroke-width="0.5"/>
    <line stroke="black" x1="452.0" y1="1068.0" x2="570.0" y2="1101.0" stroke-width="0.5"/>
    <line stroke="black" x1="452.0" y1="1068.0" x2="558.0" y2="1031.0" stroke-width="0.5"/>
    <line stroke="black" x1="95.0" y1="1453.0" x2="111.0" y2="1482.0" stroke-width="0.5"/>
    <line stroke="black" x1="477.0" y1="1255.0" x2="555.0" y2="1297.0" stroke-width="0.5"/>
    <line stroke="black" x1="477.0" y1="1255.0" x2="558.0" y2="1215.0" stroke-width="0.5"/>
    <line stroke="black" x1="111.0" y1="1482.0" x2="133.0" y2="1509.0" stroke-width="0.5"/>
    <line stroke="black" x1="133.0" y1="1509.0" x2="153.0" y2="1532.0" stroke-width="0.5"/>
    <line stroke="black" x1="558.0" y1="1031.0" x2="672.0" y2="1004.0" stroke-width="0.5"/>
    <line stroke="black" x1="555.0" y1="1297.0" x2="597.0" y2="1324.0" stroke-width="0.5"/>
    <line stroke="black" x1="558.0" y1="1215.0" x2="618.0" y2="1188.0" stroke-width="0.5"/>
    <line stroke="black" x1="597.0" y1="1324.0" x2="702.0" y2="1347.0" stroke-width="0.5"/>
    <line stroke="black" x1="618.0" y1="1188.0" x2="648.0" y2="1165.0" stroke-width="0.5"/>
    <line stroke="black" x1="91.0" y1="1628.0" x2="555.0" y2="1662.0" stroke-width="0.5"/>
    <line stroke="black" x1="91.0" y1="1628.0" x2="295.0" y2="1595.0" stroke-width="0.5"/>
    <line stroke="black" x1="555.0" y1="1662.0" x2="595.0" y2="1685.0" stroke-width="0.5"/>
    <line stroke="black" x1="77.0" y1="1281.0" x2="91.0" y2="1628.0" stroke-width="0.5"/>
    <line stroke="black" x1="380.0" y1="1456.0" x2="111.0" y2="1482.0" stroke-width="0.5"/>
    <line stroke="black" x1="485.0" y1="1425.0" x2="95.0" y2="1453.0" stroke-width="0.5"/>
    <line stroke="black" x1="571.0" y1="1486.0" x2="133.0" y2="1509.0" stroke-width="0.5"/>
    <line stroke="black" x1="336.0" y1="473.0" x2="269.0" y2="433.0" stroke-width="0.5"/>
    <line stroke="black" x1="438.0" y1="1548.0" x2="153.0" y2="1532.0" stroke-width="0.5"/>
    <line stroke="black" x1="420.0" y1="719.0" x2="257.0" y2="747.0" stroke-width="0.5"/>
    <line stroke="black" x1="485.0" y1="442.0" x2="285.0" y2="391.0" stroke-width="0.5"/>
    <line stroke="black" x1="515.0" y1="534.0" x2="297.0" y2="520.0" stroke-width="0.5"/>
    <line stroke="black" x1="596.0" y1="749.0" x2="281.0" y2="775.0" stroke-width="0.5"/>
    <line stroke="black" x1="539.0" y1="350.0" x2="327.0" y2="281.0" stroke-width="0.5"/>
    <line stroke="black" x1="463.0" y1="626.0" x2="379.0" y2="641.0" stroke-width="0.5"/>
    <line stroke="black" x1="465.0" y1="381.0" x2="387.0" y2="395.0" stroke-width="0.5"/>
    <line stroke="black" x1="489.0" y1="227.0" x2="401.0" y2="252.0" stroke-width="0.5"/>
    <line stroke="black" x1="521.0" y1="411.0" x2="387.0" y2="395.0" stroke-width="0.5"/>
    <line stroke="black" x1="705.0" y1="504.0" x2="297.0" y2="520.0" stroke-width="0.5"/>
    <line stroke="black" x1="723.0" y1="1610.0" x2="295.0" y2="1595.0" stroke-width="0.5"/>
    <line stroke="black" x1="563.0" y1="780.0" x2="385.0" y2="802.0" stroke-width="0.5"/>
    <line stroke="black" x1="805.0" y1="1579.0" x2="295.0" y2="1595.0" stroke-width="0.5"/>
    <line stroke="black" x1="561.0" y1="841.0" x2="446.0" y2="825.0" stroke-width="0.5"/>
    <line stroke="black" x1="638.0" y1="166.0" x2="414.0" y2="127.0" stroke-width="0.5"/>
    <line stroke="black" x1="561.0" y1="258.0" x2="456.0" y2="280.0" stroke-width="0.5"/>
    <line stroke="black" x1="615.0" y1="811.0" x2="446.0" y2="825.0" stroke-width="0.5"/>
    <line stroke="black" x1="638.0" y1="903.0" x2="477.0" y2="920.0" stroke-width="0.5"/>
    <line stroke="black" x1="657.0" y1="934.0" x2="477.0" y2="920.0" stroke-width="0.5"/>
    <line stroke="black" x1="592.0" y1="1087.0" x2="570.0" y2="1101.0" stroke-width="0.5"/>
    <line stroke="black" x1="590.0" y1="1118.0" x2="570.0" y2="1101.0" stroke-width="0.5"/>
    <line stroke="black" x1="636.0" y1="1640.0" x2="555.0" y2="1662.0" stroke-width="0.5"/>
    <line stroke="black" x1="651.0" y1="1241.0" x2="558.0" y2="1215.0" stroke-width="0.5"/>
    <line stroke="black" x1="673.0" y1="1702.0" x2="595.0" y2="1685.0" stroke-width="0.5"/>
    <line stroke="black" x1="685.0" y1="1671.0" x2="595.0" y2="1685.0" stroke-width="0.5"/>
    <line stroke="black" x1="773.0" y1="1057.0" x2="558.0" y2="1031.0" stroke-width="0.5"/>
    <line stroke="black" x1="663.0" y1="135.0" x2="619.0" y2="118.0" stroke-width="0.5"/>
    <line stroke="black" x1="731.0" y1="1302.0" x2="597.0" y2="1324.0" stroke-width="0.5"/>
    <line stroke="black" x1="729.0" y1="1210.0" x2="618.0" y2="1188.0" stroke-width="0.5"/>
    <line stroke="black" x1="669.0" y1="1179.0" x2="648.0" y2="1165.0" stroke-width="0.5"/>
    <line stroke="black" x1="685.0" y1="1149.0" x2="648.0" y2="1165.0" stroke-width="0.5"/>
    <line stroke="black" x1="723.0" y1="74.0" x2="634.0" y2="52.0" stroke-width="0.5"/>
    <line stroke="black" x1="693.0" y1="288.0" x2="660.0" y2="303.0" stroke-width="0.5"/>
    <line stroke="black" x1="679.0" y1="1026.0" x2="672.0" y2="1004.0" stroke-width="0.5"/>
    <line stroke="black" x1="691.0" y1="964.0" x2="672.0" y2="1004.0" stroke-width="0.5"/>
    <line stroke="black" x1="739.0" y1="319.0" x2="660.0" y2="303.0" stroke-width="0.5"/>
    <line stroke="black" x1="715.0" y1="1333.0" x2="702.0" y2="1347.0" stroke-width="0.5"/>
    <line stroke="black" x1="733.0" y1="43.0" x2="726.0" y2="29.0" stroke-width="0.5"/>
    <line stroke="black" x1="761.0" y1="12.0" x2="726.0" y2="29.0" stroke-width="0.5"/>
   </g>
  </g>
 </svg>
</svg>
