<?xml version="1.0" encoding="UTF-8"?>
<svg height="800.0" width="700.0" xmlns="http://www.w3.org/2000/svg">
 <svg>
  <g>
   <g>
    <g>
     <circle stroke="black" stroke-width="0.5" fill="#aaffff" cx="18.0" cy="739.0" r="1.0"/>
     <text stroke="none" x="18.0" y="739.0" font-size="10.0" font-family="helvetica">NT1.1</text>
    </g>
    <g>
     <circle stroke="black" stroke-width="0.5" fill="#aaffff" cx="127.0" cy="647.0" r="1.0"/>
     <text stroke="none" x="127.0" y="647.0" font-size="10.0" font-family="helvetica">NT1.2</text>
    </g>
    <g>
     <circle stroke="black" stroke-width="0.5" fill="#aaffff" cx="144.0" cy="540.0" r="1.0"/>
     <text stroke="none" x="144.0" y="540.0" font-size="10.0" font-family="helvetica">NT1.3</text>
    </g>
    <g>
     <circle stroke="black" stroke-width="0.5" fill="#aaffff" cx="147.0" cy="754.0" r="1.0"/>
     <text stroke="none" x="147.0" y="754.0" font-size="10.0" font-family="helvetica">NT1.4</text>
    </g>
    <g>
     <circle stroke="black" stroke-width="0.5" fill="#aaffff" cx="160.0" cy="425.0" r="1.0"/>
     <text stroke="none" x="160.0" y="425.0" font-size="10.0" font-family="helvetica">NT1.5</text>
    </g>
    <g>
     <circle stroke="black" stroke-width="0.5" fill="#aaffff" cx="168.0" cy="661.0" r="1.0"/>
     <text stroke="none" x="168.0" y="661.0" font-size="10.0" font-family="helvetica">NT1.6</text>
    </g>
    <g>
     <circle stroke="black" stroke-width="0.5" fill="#aaffff" cx="168.0" cy="262.0" r="1.0"/>
     <text stroke="none" x="168.0" y="262.0" font-size="10.0" font-family="helvetica">NT1.7</text>
    </g>
    <g>
     <circle stroke="black" stroke-width="0.5" fill="#aaffff" cx="172.0" cy="678.0" r="1.0"/>
     <text stroke="none" x="172.0" y="678.0" font-size="10.0" font-family="helvetica">NT1.8</text>
    </g>
    <g>
     <circle stroke="black" stroke-width="0.5" fill="#aaffff" cx="176.0" cy="431.0" r="1.0"/>
     <text stroke="none" x="176.0" y="431.0" font-size="10.0" font-family="helvetica">NT1.9</text>
    </g>
    <g>
     <circle stroke="black" stroke-width="0.5" fill="#aaffff" cx="179.0" cy="660.0" r="1.0"/>
     <text stroke="none" x="179.0" y="660.0" font-size="10.0" font-family="helvetica">NT1.10</text>
    </g>
    <g>
     <circle stroke="black" stroke-width="0.5" fill="#aaffff" cx="200.0" cy="204.0" r="1.0"/>
     <text stroke="none" x="200.0" y="204.0" font-size="10.0" font-family="helvetica">NT1.11</text>
    </g>
    <g>
     <circle stroke="black" stroke-width="0.5" fill="#aaffff" cx="217.0" cy="621.0" r="1.0"/>
     <text stroke="none" x="217.0" y="621.0" font-size="10.0" font-family="helvetica">NT1.12</text>
    </g>
    <g>
     <circle stroke="black" stroke-width="0.5" fill="#aaffff" cx="283.0" cy="95.0" r="1.0"/>
     <text stroke="none" x="283.0" y="95.0" font-size="20.0" font-family="helvetica">100</text>
    </g>
    <g>
     <circle stroke="black" stroke-width="0.5" fill="#aaffff" cx="306.0" cy="277.0" r="1.0"/>
     <text stroke="none" x="306.0" y="277.0" font-size="10.0" font-family="helvetica">NT1.14</text>
    </g>
    <g>
     <circle stroke="black" stroke-width="0.5" fill="#aaffff" cx="306.0" cy="465.0" r="1.0"/>
     <text stroke="none" x="306.0" y="465.0" font-size="10.0" font-family="helvetica">NT1.15</text>
    </g>
    <g>
     <circle stroke="black" stroke-width="0.5" fill="#aaffff" cx="313.0" cy="532.0" r="1.0"/>
     <text stroke="none" x="313.0" y="532.0" font-size="10.0" font-family="helvetica">NT1.16</text>
    </g>
    <g>
     <circle stroke="black" stroke-width="0.5" fill="#aaffff" cx="317.0" cy="867.0" r="1.0"/>
     <text stroke="none" x="317.0" y="867.0" font-size="10.0" font-family="helvetica">NT1.17</text>
    </g>
    <g>
     <circle stroke="black" stroke-width="0.5" fill="#aaffff" cx="330.0" cy="75.0" r="1.0"/>
     <text stroke="none" x="330.0" y="75.0" font-size="10.0" font-family="helvetica">NT1.18</text>
    </g>
    <g>
     <circle stroke="black" stroke-width="0.5" fill="#aaffff" cx="336.0" cy="732.0" r="1.0"/>
     <text stroke="none" x="336.0" y="732.0" font-size="10.0" font-family="helvetica">NT1.19</text>
    </g>
    <g>
     <circle stroke="black" stroke-width="0.5" fill="#aaffff" cx="337.0" cy="822.0" r="1.0"/>
     <text stroke="none" x="337.0" y="822.0" font-size="20.0" font-family="helvetica">Alteromonas macleodii IAM 129207 (X82145)</text>
    </g>
    <g>
     <circle stroke="black" stroke-width="0.5" fill="#aaffff" cx="348.0" cy="41.0" r="1.0"/>
     <text stroke="none" x="348.0" y="41.0" font-size="10.0" font-family="helvetica">NT1.21</text>
    </g>
    <g>
     <circle stroke="black" stroke-width="0.5" fill="#aaffff" cx="352.0" cy="237.0" r="1.0"/>
     <text stroke="none" x="352.0" y="237.0" font-size="20.0" font-family="helvetica">999</text>
    </g>
    <g>
     <circle stroke="black" stroke-width="0.5" fill="#aaffff" cx="360.0" cy="555.0" r="1.0"/>
     <text stroke="none" x="360.0" y="555.0" font-size="20.0" font-family="helvetica">Oceanospirillum beijerinckii NBRC 15445T (ABOO6760)</text>
    </g>
    <g>
     <circle stroke="black" stroke-width="0.5" fill="#aaffff" cx="361.0" cy="399.0" r="1.0"/>
     <text stroke="none" x="361.0" y="399.0" font-size="20.0" font-family="helvetica">100</text>
    </g>
    <g>
     <circle stroke="black" stroke-width="0.5" fill="#aaffff" cx="362.0" cy="422.0" r="1.0"/>
     <text stroke="none" x="362.0" y="422.0" font-size="10.0" font-family="helvetica">NT1.25</text>
    </g>
    <g>
     <circle stroke="black" stroke-width="0.5" fill="#aaffff" cx="362.0" cy="220.0" r="1.0"/>
     <text stroke="none" x="362.0" y="220.0" font-size="10.0" font-family="helvetica">NT1.26</text>
    </g>
    <g>
     <circle stroke="black" stroke-width="0.5" fill="#aaffff" cx="371.0" cy="18.0" r="1.0"/>
     <text stroke="none" x="371.0" y="18.0" font-size="10.0" font-family="helvetica">NT1.27</text>
    </g>
    <g>
     <circle stroke="black" stroke-width="0.5" fill="#aaffff" cx="371.0" cy="777.0" r="1.0"/>
     <text stroke="none" x="371.0" y="777.0" font-size="20.0" font-family="helvetica">Marinomonas vaga ATCC 27119 (X67025)</text>
    </g>
    <g>
     <circle stroke="black" stroke-width="0.5" fill="#aaffff" cx="376.0" cy="509.0" r="1.0"/>
     <text stroke="none" x="376.0" y="509.0" font-size="20.0" font-family="helvetica">Oceanospirillum linum ATCC 1133GT (M22365)</text>
    </g>
    <g>
     <circle stroke="black" stroke-width="0.5" fill="#aaffff" cx="377.0" cy="108.0" r="1.0"/>
     <text stroke="none" x="377.0" y="108.0" font-size="10.0" font-family="helvetica">NT1.30</text>
    </g>
    <g>
     <circle stroke="black" stroke-width="0.5" fill="#aaffff" cx="381.0" cy="376.0" r="1.0"/>
     <text stroke="none" x="381.0" y="376.0" font-size="20.0" font-family="helvetica">Marinobacter hydrocarbonoclasticus ATCC 49840 (X67022)</text>
    </g>
    <g>
     <circle stroke="black" stroke-width="0.5" fill="#aaffff" cx="388.0" cy="63.0" r="1.0"/>
     <text stroke="none" x="388.0" y="63.0" font-size="10.0" font-family="helvetica">NT1.32</text>
    </g>
    <g>
     <circle stroke="black" stroke-width="0.5" fill="#aaffff" cx="389.0" cy="153.0" r="1.0"/>
     <text stroke="none" x="389.0" y="153.0" font-size="20.0" font-family="helvetica">Microbulbifer maritimus TF-17' (AY377986)</text>
    </g>
    <g>
     <circle stroke="black" stroke-width="0.5" fill="#aaffff" cx="391.0" cy="688.0" r="1.0"/>
     <text stroke="none" x="391.0" y="688.0" font-size="20.0" font-family="helvetica">Marinospirillum minutulum ATCC 191937 (AB006769)</text>
    </g>
    <g>
     <circle stroke="black" stroke-width="0.5" fill="#aaffff" cx="398.0" cy="286.0" r="1.0"/>
     <text stroke="none" x="398.0" y="286.0" font-size="20.0" font-family="helvetica"> Pseudomonas putida DSM 291T (276667)</text>
    </g>
    <g>
     <circle stroke="black" stroke-width="0.5" fill="#aaffff" cx="410.0" cy="197.0" r="1.0"/>
     <text stroke="none" x="410.0" y="197.0" font-size="10.0" font-family="helvetica">NT1.36</text>
    </g>
    <g>
     <circle stroke="black" stroke-width="0.5" fill="#aaffff" cx="411.0" cy="242.0" r="1.0"/>
     <text stroke="none" x="411.0" y="242.0" font-size="20.0" font-family="helvetica">Pseudomonas fluorescens IAM 12022T (D84013)</text>
    </g>
    <g>
     <circle stroke="black" stroke-width="0.5" fill="#aaffff" cx="413.0" cy="643.0" r="1.0"/>
     <text stroke="none" x="413.0" y="643.0" font-size="20.0" font-family="helvetica">Zymobacter palmae IAM 14233T (D14555)</text>
    </g>
    <g>
     <circle stroke="black" stroke-width="0.5" fill="#aaffff" cx="429.0" cy="331.0" r="1.0"/>
     <text stroke="none" x="429.0" y="331.0" font-size="20.0" font-family="helvetica">Pseudomonas aeruginosa LMG 1242T (Z76651)</text>
    </g>
    <g>
     <circle stroke="black" stroke-width="0.5" fill="#aaffff" cx="429.0" cy="598.0" r="1.0"/>
     <text stroke="none" x="429.0" y="598.0" font-size="20.0" font-family="helvetica">Halomonas elongate ATCC 33173T (M93355)</text>
    </g>
    <g>
     <circle stroke="black" stroke-width="0.5" fill="#aaffff" cx="7.0" cy="803.0" r="1.0"/>
     <text stroke="none" x="7.0" y="803.0" font-size="10.0" font-family="helvetica">NT1.41</text>
    </g>
    <line stroke="black" x1="389.0" y1="153.0" x2="283.0" y2="95.0" stroke-width="0.5"/>
    <line stroke="black" x1="398.0" y1="286.0" x2="352.0" y2="237.0" stroke-width="0.5"/>
    <line stroke="black" x1="376.0" y1="509.0" x2="313.0" y2="532.0" stroke-width="0.5"/>
    <line stroke="black" x1="429.0" y1="598.0" x2="217.0" y2="621.0" stroke-width="0.5"/>
    <line stroke="black" x1="371.0" y1="777.0" x2="147.0" y2="754.0" stroke-width="0.5"/>
    <line stroke="black" x1="200.0" y1="204.0" x2="168.0" y2="262.0" stroke-width="0.5"/>
    <line stroke="black" x1="306.0" y1="277.0" x2="352.0" y2="237.0" stroke-width="0.5"/>
    <line stroke="black" x1="160.0" y1="425.0" x2="313.0" y2="532.0" stroke-width="0.5"/>
    <line stroke="black" x1="144.0" y1="540.0" x2="127.0" y2="647.0" stroke-width="0.5"/>
    <line stroke="black" x1="144.0" y1="540.0" x2="179.0" y2="660.0" stroke-width="0.5"/>
    <line stroke="black" x1="127.0" y1="647.0" x2="18.0" y2="739.0" stroke-width="0.5"/>
    <line stroke="black" x1="179.0" y1="660.0" x2="217.0" y2="621.0" stroke-width="0.5"/>
    <line stroke="black" x1="7.0" y1="803.0" x2="18.0" y2="739.0" stroke-width="0.5"/>
    <line stroke="black" x1="337.0" y1="822.0" x2="18.0" y2="739.0" stroke-width="0.5"/>
    <line stroke="black" x1="160.0" y1="425.0" x2="144.0" y2="540.0" stroke-width="0.5"/>
    <line stroke="black" x1="168.0" y1="262.0" x2="160.0" y2="425.0" stroke-width="0.5"/>
    <line stroke="black" x1="391.0" y1="688.0" x2="179.0" y2="660.0" stroke-width="0.5"/>
    <line stroke="black" x1="200.0" y1="204.0" x2="306.0" y2="277.0" stroke-width="0.5"/>
    <line stroke="black" x1="413.0" y1="643.0" x2="217.0" y2="621.0" stroke-width="0.5"/>
    <line stroke="black" x1="360.0" y1="555.0" x2="313.0" y2="532.0" stroke-width="0.5"/>
    <line stroke="black" x1="429.0" y1="331.0" x2="306.0" y2="277.0" stroke-width="0.5"/>
    <line stroke="black" x1="411.0" y1="242.0" x2="362.0" y2="220.0" stroke-width="0.5"/>
    <line stroke="black" x1="381.0" y1="376.0" x2="361.0" y2="399.0" stroke-width="0.5"/>
   </g>
  </g>
 </svg>
</svg>
