<?xml version="1.0" encoding="UTF-8"?>
<svg height="800.0" width="700.0" xmlns="http://www.w3.org/2000/svg">
 <svg>
  <g>
   <g>
    <g>
     <circle stroke="black" stroke-width="0.5" fill="#aaffff" cx="195.0" cy="621.0" r="1.0"/>
     <text stroke="none" x="195.0" y="621.0" font-size="20.0" font-family="helvetica">Desulfohalobium retbaense DSM 5692T (X99235)</text>
    </g>
    <g>
     <circle stroke="black" stroke-width="0.5" fill="#aaffff" cx="195.0" cy="387.0" r="1.0"/>
     <text stroke="none" x="195.0" y="387.0" font-size="10.0" font-family="helvetica">NT1.2</text>
    </g>
    <g>
     <circle stroke="black" stroke-width="0.5" fill="#aaffff" cx="235.0" cy="266.0" r="1.0"/>
     <text stroke="none" x="235.0" y="266.0" font-size="20.0" font-family="helvetica">33</text>
    </g>
    <g>
     <circle stroke="black" stroke-width="0.5" fill="#aaffff" cx="265.0" cy="506.0" r="1.0"/>
     <text stroke="none" x="265.0" y="506.0" font-size="20.0" font-family="helvetica">99</text>
    </g>
    <g>
     <circle stroke="black" stroke-width="0.5" fill="#aaffff" cx="298.0" cy="175.0" r="1.0"/>
     <text stroke="none" x="298.0" y="175.0" font-size="10.0" font-family="helvetica">NT1.5</text>
    </g>
    <g>
     <circle stroke="black" stroke-width="0.5" fill="#aaffff" cx="338.0" cy="354.0" r="1.0"/>
     <text stroke="none" x="338.0" y="354.0" font-size="10.0" font-family="helvetica">NT1.6</text>
    </g>
    <g>
     <circle stroke="black" stroke-width="0.5" fill="#aaffff" cx="359.0" cy="109.0" r="1.0"/>
     <text stroke="none" x="359.0" y="109.0" font-size="10.0" font-family="helvetica">NT1.7</text>
    </g>
    <g>
     <circle stroke="black" stroke-width="0.5" fill="#aaffff" cx="368.0" cy="50.0" r="1.0"/>
     <text stroke="none" x="368.0" y="50.0" font-size="10.0" font-family="helvetica">NT1.8</text>
    </g>
    <g>
     <circle stroke="black" stroke-width="0.5" fill="#aaffff" cx="374.0" cy="12.0" r="1.0"/>
     <text stroke="none" x="374.0" y="12.0" font-size="10.0" font-family="helvetica">NT1.9</text>
    </g>
    <g>
     <circle stroke="black" stroke-width="0.5" fill="#aaffff" cx="379.0" cy="88.0" r="1.0"/>
     <text stroke="none" x="379.0" y="88.0" font-size="20.0" font-family="helvetica">Desulfovibrio termitidis DSM 53O8T (X87409)</text>
    </g>
    <g>
     <circle stroke="black" stroke-width="0.5" fill="#aaffff" cx="390.0" cy="240.0" r="1.0"/>
     <text stroke="none" x="390.0" y="240.0" font-size="20.0" font-family="helvetica">Desulfovibrio vulgaris DSM 6447 (AF418179)</text>
    </g>
    <g>
     <circle stroke="black" stroke-width="0.5" fill="#aaffff" cx="395.0" cy="393.0" r="1.0"/>
     <text stroke="none" x="395.0" y="393.0" font-size="10.0" font-family="helvetica">NT1.12</text>
    </g>
    <g>
     <circle stroke="black" stroke-width="0.5" fill="#aaffff" cx="398.0" cy="164.0" r="1.0"/>
     <text stroke="none" x="398.0" y="164.0" font-size="10.0" font-family="helvetica">NT1.13</text>
    </g>
    <g>
     <circle stroke="black" stroke-width="0.5" fill="#aaffff" cx="411.0" cy="317.0" r="1.0"/>
     <text stroke="none" x="411.0" y="317.0" font-size="20.0" font-family="helvetica"> Desulfovibrio intestinalis DSM 11275 (Y12254)</text>
    </g>
    <g>
     <circle stroke="black" stroke-width="0.5" fill="#aaffff" cx="454.0" cy="469.0" r="1.0"/>
     <text stroke="none" x="454.0" y="469.0" font-size="20.0" font-family="helvetica">Desulfovibrio cuneatus DSM 11391T (X99501)</text>
    </g>
    <g>
     <circle stroke="black" stroke-width="0.5" fill="#aaffff" cx="459.0" cy="545.0" r="1.0"/>
     <text stroke="none" x="459.0" y="545.0" font-size="20.0" font-family="helvetica">Desulfovibrio litoralis DSM 'l1393T (X99504)</text>
    </g>
    <line stroke="black" x1="379.0" y1="88.0" x2="368.0" y2="50.0" stroke-width="0.5"/>
    <line stroke="black" x1="390.0" y1="240.0" x2="298.0" y2="175.0" stroke-width="0.5"/>
    <line stroke="black" x1="411.0" y1="317.0" x2="338.0" y2="354.0" stroke-width="0.5"/>
    <line stroke="black" x1="454.0" y1="469.0" x2="265.0" y2="506.0" stroke-width="0.5"/>
    <line stroke="black" x1="459.0" y1="545.0" x2="265.0" y2="506.0" stroke-width="0.5"/>
    <line stroke="black" x1="195.0" y1="621.0" x2="195.0" y2="387.0" stroke-width="0.5"/>
    <line stroke="black" x1="298.0" y1="175.0" x2="235.0" y2="266.0" stroke-width="0.5"/>
    <line stroke="black" x1="235.0" y1="266.0" x2="195.0" y2="387.0" stroke-width="0.5"/>
    <line stroke="black" x1="195.0" y1="387.0" x2="265.0" y2="506.0" stroke-width="0.5"/>
   </g>
  </g>
 </svg>
</svg>
