<?xml version="1.0" encoding="UTF-8"?>
<svg height="800.0" width="700.0" xmlns="http://www.w3.org/2000/svg">
 <svg>
  <g>
   <g>
    <g>
     <circle stroke="black" stroke-width="0.5" fill="#aaffff" cx="78.0" cy="697.0" r="1.0"/>
     <text stroke="none" x="78.0" y="697.0" font-size="10.0" font-family="helvetica">NT1.1</text>
    </g>
    <g>
     <circle stroke="black" stroke-width="0.5" fill="#aaffff" cx="125.0" cy="482.0" r="1.0"/>
     <text stroke="none" x="125.0" y="482.0" font-size="20.0" font-family="helvetica">61</text>
    </g>
    <g>
     <circle stroke="black" stroke-width="0.5" fill="#aaffff" cx="127.0" cy="440.0" r="1.0"/>
     <text stroke="none" x="127.0" y="440.0" font-size="20.0" font-family="helvetica">61</text>
    </g>
    <g>
     <circle stroke="black" stroke-width="0.5" fill="#aaffff" cx="129.0" cy="436.0" r="1.0"/>
     <text stroke="none" x="129.0" y="436.0" font-size="10.0" font-family="helvetica">NT1.4</text>
    </g>
    <g>
     <circle stroke="black" stroke-width="0.5" fill="#aaffff" cx="130.0" cy="334.0" r="1.0"/>
     <text stroke="none" x="130.0" y="334.0" font-size="10.0" font-family="helvetica">NT1.5</text>
    </g>
    <g>
     <circle stroke="black" stroke-width="0.5" fill="#aaffff" cx="130.0" cy="434.0" r="1.0"/>
     <text stroke="none" x="130.0" y="434.0" font-size="20.0" font-family="helvetica">61</text>
    </g>
    <g>
     <circle stroke="black" stroke-width="0.5" fill="#aaffff" cx="135.0" cy="429.0" r="1.0"/>
     <text stroke="none" x="135.0" y="429.0" font-size="10.0" font-family="helvetica">NT1.7</text>
    </g>
    <g>
     <circle stroke="black" stroke-width="0.5" fill="#aaffff" cx="144.0" cy="247.0" r="1.0"/>
     <text stroke="none" x="144.0" y="247.0" font-size="10.0" font-family="helvetica">NT1.8</text>
    </g>
    <g>
     <circle stroke="black" stroke-width="0.5" fill="#aaffff" cx="152.0" cy="422.0" r="1.0"/>
     <text stroke="none" x="152.0" y="422.0" font-size="10.0" font-family="helvetica">NT1.9</text>
    </g>
    <g>
     <circle stroke="black" stroke-width="0.5" fill="#aaffff" cx="155.0" cy="163.0" r="1.0"/>
     <text stroke="none" x="155.0" y="163.0" font-size="10.0" font-family="helvetica">NT1.10</text>
    </g>
    <g>
     <circle stroke="black" stroke-width="0.5" fill="#aaffff" cx="176.0" cy="102.0" r="1.0"/>
     <text stroke="none" x="176.0" y="102.0" font-size="10.0" font-family="helvetica">NT1.11</text>
    </g>
    <g>
     <circle stroke="black" stroke-width="0.5" fill="#aaffff" cx="189.0" cy="222.0" r="1.0"/>
     <text stroke="none" x="189.0" y="222.0" font-size="20.0" font-family="helvetica">6</text>
    </g>
    <g>
     <circle stroke="black" stroke-width="0.5" fill="#aaffff" cx="194.0" cy="629.0" r="1.0"/>
     <text stroke="none" x="194.0" y="629.0" font-size="10.0" font-family="helvetica">NT1.13</text>
    </g>
    <g>
     <circle stroke="black" stroke-width="0.5" fill="#aaffff" cx="207.0" cy="675.0" r="1.0"/>
     <text stroke="none" x="207.0" y="675.0" font-size="20.0" font-family="helvetica">53</text>
    </g>
    <g>
     <circle stroke="black" stroke-width="0.5" fill="#aaffff" cx="207.0" cy="912.0" r="1.0"/>
     <text stroke="none" x="207.0" y="912.0" font-size="20.0" font-family="helvetica">100</text>
    </g>
    <g>
     <circle stroke="black" stroke-width="0.5" fill="#aaffff" cx="217.0" cy="253.0" r="1.0"/>
     <text stroke="none" x="217.0" y="253.0" font-size="10.0" font-family="helvetica">NT1.16</text>
    </g>
    <g>
     <circle stroke="black" stroke-width="0.5" fill="#aaffff" cx="232.0" cy="707.0" r="1.0"/>
     <text stroke="none" x="232.0" y="707.0" font-size="10.0" font-family="helvetica">NT1.17</text>
    </g>
    <g>
     <circle stroke="black" stroke-width="0.5" fill="#aaffff" cx="233.0" cy="461.0" r="1.0"/>
     <text stroke="none" x="233.0" y="461.0" font-size="10.0" font-family="helvetica">NT1.18</text>
    </g>
    <g>
     <circle stroke="black" stroke-width="0.5" fill="#aaffff" cx="235.0" cy="278.0" r="1.0"/>
     <text stroke="none" x="235.0" y="278.0" font-size="20.0" font-family="helvetica">51</text>
    </g>
    <g>
     <circle stroke="black" stroke-width="0.5" fill="#aaffff" cx="244.0" cy="140.0" r="1.0"/>
     <text stroke="none" x="244.0" y="140.0" font-size="10.0" font-family="helvetica">NT1.20</text>
    </g>
    <g>
     <circle stroke="black" stroke-width="0.5" fill="#aaffff" cx="251.0" cy="738.0" r="1.0"/>
     <text stroke="none" x="251.0" y="738.0" font-size="10.0" font-family="helvetica">NT1.21</text>
    </g>
    <g>
     <circle stroke="black" stroke-width="0.5" fill="#aaffff" cx="254.0" cy="583.0" r="1.0"/>
     <text stroke="none" x="254.0" y="583.0" font-size="10.0" font-family="helvetica">NT1.22</text>
    </g>
    <g>
     <circle stroke="black" stroke-width="0.5" fill="#aaffff" cx="258.0" cy="63.0" r="1.0"/>
     <text stroke="none" x="258.0" y="63.0" font-size="10.0" font-family="helvetica">NT1.23</text>
    </g>
    <g>
     <circle stroke="black" stroke-width="0.5" fill="#aaffff" cx="264.0" cy="964.0" r="1.0"/>
     <text stroke="none" x="264.0" y="964.0" font-size="20.0" font-family="helvetica">89</text>
    </g>
    <g>
     <circle stroke="black" stroke-width="0.5" fill="#aaffff" cx="278.0" cy="37.0" r="1.0"/>
     <text stroke="none" x="278.0" y="37.0" font-size="10.0" font-family="helvetica">NT1.25</text>
    </g>
    <g>
     <circle stroke="black" stroke-width="0.5" fill="#aaffff" cx="282.0" cy="1007.0" r="1.0"/>
     <text stroke="none" x="282.0" y="1007.0" font-size="20.0" font-family="helvetica">61</text>
    </g>
    <g>
     <circle stroke="black" stroke-width="0.5" fill="#aaffff" cx="286.0" cy="861.0" r="1.0"/>
     <text stroke="none" x="286.0" y="861.0" font-size="10.0" font-family="helvetica">NT1.27</text>
    </g>
    <g>
     <circle stroke="black" stroke-width="0.5" fill="#aaffff" cx="290.0" cy="487.0" r="1.0"/>
     <text stroke="none" x="290.0" y="487.0" font-size="10.0" font-family="helvetica">NT1.28</text>
    </g>
    <g>
     <circle stroke="black" stroke-width="0.5" fill="#aaffff" cx="294.0" cy="765.0" r="1.0"/>
     <text stroke="none" x="294.0" y="765.0" font-size="20.0" font-family="helvetica">77</text>
    </g>
    <g>
     <circle stroke="black" stroke-width="0.5" fill="#aaffff" cx="316.0" cy="557.0" r="1.0"/>
     <text stroke="none" x="316.0" y="557.0" font-size="10.0" font-family="helvetica">NT1.30</text>
    </g>
    <g>
     <circle stroke="black" stroke-width="0.5" fill="#aaffff" cx="323.0" cy="1042.0" r="1.0"/>
     <text stroke="none" x="323.0" y="1042.0" font-size="10.0" font-family="helvetica">NT1.31</text>
    </g>
    <g>
     <circle stroke="black" stroke-width="0.5" fill="#aaffff" cx="331.0" cy="835.0" r="1.0"/>
     <text stroke="none" x="331.0" y="835.0" font-size="20.0" font-family="helvetica">6</text>
    </g>
    <g>
     <circle stroke="black" stroke-width="0.5" fill="#aaffff" cx="344.0" cy="974.0" r="1.0"/>
     <text stroke="none" x="344.0" y="974.0" font-size="10.0" font-family="helvetica">NT1.33</text>
    </g>
    <g>
     <circle stroke="black" stroke-width="0.5" fill="#aaffff" cx="382.0" cy="384.0" r="1.0"/>
     <text stroke="none" x="382.0" y="384.0" font-size="10.0" font-family="helvetica">NT1.34</text>
    </g>
    <g>
     <circle stroke="black" stroke-width="0.5" fill="#aaffff" cx="415.0" cy="470.0" r="1.0"/>
     <text stroke="none" x="415.0" y="470.0" font-size="10.0" font-family="helvetica">NT1.35</text>
    </g>
    <g>
     <circle stroke="black" stroke-width="0.5" fill="#aaffff" cx="416.0" cy="366.0" r="1.0"/>
     <text stroke="none" x="416.0" y="366.0" font-size="10.0" font-family="helvetica">NT1.36</text>
    </g>
    <g>
     <circle stroke="black" stroke-width="0.5" fill="#aaffff" cx="426.0" cy="401.0" r="1.0"/>
     <text stroke="none" x="426.0" y="401.0" font-size="10.0" font-family="helvetica">NT1.37</text>
    </g>
    <g>
     <circle stroke="black" stroke-width="0.5" fill="#aaffff" cx="431.0" cy="19.0" r="1.0"/>
     <text stroke="none" x="431.0" y="19.0" font-size="20.0" font-family="helvetica">Nisaea denitrificans DSM 18348T (DQ665838)</text>
    </g>
    <g>
     <circle stroke="black" stroke-width="0.5" fill="#aaffff" cx="436.0" cy="89.0" r="1.0"/>
     <text stroke="none" x="436.0" y="89.0" font-size="10.0" font-family="helvetica">NT1.39</text>
    </g>
    <g>
     <circle stroke="black" stroke-width="0.5" fill="#aaffff" cx="437.0" cy="505.0" r="1.0"/>
     <text stroke="none" x="437.0" y="505.0" font-size="10.0" font-family="helvetica">NT1.40</text>
    </g>
    <g>
     <circle stroke="black" stroke-width="0.5" fill="#aaffff" cx="440.0" cy="643.0" r="1.0"/>
     <text stroke="none" x="440.0" y="643.0" font-size="20.0" font-family="helvetica">Caenispirillum bisanense JCM 14346T (EF100694)</text>
    </g>
    <g>
     <circle stroke="black" stroke-width="0.5" fill="#aaffff" cx="440.0" cy="713.0" r="1.0"/>
     <text stroke="none" x="440.0" y="713.0" font-size="10.0" font-family="helvetica">NT1.42</text>
    </g>
    <g>
     <circle stroke="black" stroke-width="0.5" fill="#aaffff" cx="443.0" cy="852.0" r="1.0"/>
     <text stroke="none" x="443.0" y="852.0" font-size="20.0" font-family="helvetica">Paracraurococcus ruber NS 89T (D85827)</text>
    </g>
    <g>
     <circle stroke="black" stroke-width="0.5" fill="#aaffff" cx="445.0" cy="262.0" r="1.0"/>
     <text stroke="none" x="445.0" y="262.0" font-size="10.0" font-family="helvetica">NT1.44</text>
    </g>
    <g>
     <circle stroke="black" stroke-width="0.5" fill="#aaffff" cx="447.0" cy="991.0" r="1.0"/>
     <text stroke="none" x="447.0" y="991.0" font-size="20.0" font-family="helvetica">Rhodopila globiformis DSM 161T (D86513)</text>
    </g>
    <g>
     <circle stroke="black" stroke-width="0.5" fill="#aaffff" cx="448.0" cy="955.0" r="1.0"/>
     <text stroke="none" x="448.0" y="955.0" font-size="10.0" font-family="helvetica">NT1.46</text>
    </g>
    <g>
     <circle stroke="black" stroke-width="0.5" fill="#aaffff" cx="457.0" cy="435.0" r="1.0"/>
     <text stroke="none" x="457.0" y="435.0" font-size="20.0" font-family="helvetica">Telmatospirillum siberiense DSM 18240T (AF524863)</text>
    </g>
    <g>
     <circle stroke="black" stroke-width="0.5" fill="#aaffff" cx="465.0" cy="192.0" r="1.0"/>
     <text stroke="none" x="465.0" y="192.0" font-size="10.0" font-family="helvetica">NT1.48</text>
    </g>
    <g>
     <circle stroke="black" stroke-width="0.5" fill="#aaffff" cx="465.0" cy="747.0" r="1.0"/>
     <text stroke="none" x="465.0" y="747.0" font-size="10.0" font-family="helvetica">NT1.49</text>
    </g>
    <g>
     <circle stroke="black" stroke-width="0.5" fill="#aaffff" cx="466.0" cy="1060.0" r="1.0"/>
     <text stroke="none" x="466.0" y="1060.0" font-size="10.0" font-family="helvetica">NT1.50</text>
    </g>
    <g>
     <circle stroke="black" stroke-width="0.5" fill="#aaffff" cx="470.0" cy="782.0" r="1.0"/>
     <text stroke="none" x="470.0" y="782.0" font-size="20.0" font-family="helvetica">Marispirillum indicum LMG 24627T (EU642410)</text>
    </g>
    <g>
     <circle stroke="black" stroke-width="0.5" fill="#aaffff" cx="472.0" cy="609.0" r="1.0"/>
     <text stroke="none" x="472.0" y="609.0" font-size="10.0" font-family="helvetica">NT1.52</text>
    </g>
    <g>
     <circle stroke="black" stroke-width="0.5" fill="#aaffff" cx="473.0" cy="54.0" r="1.0"/>
     <text stroke="none" x="473.0" y="54.0" font-size="20.0" font-family="helvetica">Thalassobaculum litoreum DSM 188397 (EF203900)</text>
    </g>
    <g>
     <circle stroke="black" stroke-width="0.5" fill="#aaffff" cx="477.0" cy="297.0" r="1.0"/>
     <text stroke="none" x="477.0" y="297.0" font-size="10.0" font-family="helvetica">NT1.54</text>
    </g>
    <g>
     <circle stroke="black" stroke-width="0.5" fill="#aaffff" cx="482.0" cy="921.0" r="1.0"/>
     <text stroke="none" x="482.0" y="921.0" font-size="20.0" font-family="helvetica">Acetobacter aceti DSM 35087 (X74066)</text>
    </g>
    <g>
     <circle stroke="black" stroke-width="0.5" fill="#aaffff" cx="493.0" cy="227.0" r="1.0"/>
     <text stroke="none" x="493.0" y="227.0" font-size="20.0" font-family="helvetica">Skermanella parooensis ACM 2042T (X90760)</text>
    </g>
    <g>
     <circle stroke="black" stroke-width="0.5" fill="#aaffff" cx="497.0" cy="1025.0" r="1.0"/>
     <text stroke="none" x="497.0" y="1025.0" font-size="10.0" font-family="helvetica">NT1.57</text>
    </g>
    <g>
     <circle stroke="black" stroke-width="0.5" fill="#aaffff" cx="499.0" cy="158.0" r="1.0"/>
     <text stroke="none" x="499.0" y="158.0" font-size="10.0" font-family="helvetica">NT1.58</text>
    </g>
    <g>
     <circle stroke="black" stroke-width="0.5" fill="#aaffff" cx="505.0" cy="887.0" r="1.0"/>
     <text stroke="none" x="505.0" y="887.0" font-size="10.0" font-family="helvetica">NT1.59</text>
    </g>
    <g>
     <circle stroke="black" stroke-width="0.5" fill="#aaffff" cx="508.0" cy="540.0" r="1.0"/>
     <text stroke="none" x="508.0" y="540.0" font-size="20.0" font-family="helvetica">Roseospira mediosalina BN 2807 (AJOO0989)</text>
    </g>
    <g>
     <circle stroke="black" stroke-width="0.5" fill="#aaffff" cx="511.0" cy="123.0" r="1.0"/>
     <text stroke="none" x="511.0" y="123.0" font-size="20.0" font-family="helvetica">Rhodovibrio salinarum ATCC 35394T (M59069)</text>
    </g>
    <g>
     <circle stroke="black" stroke-width="0.5" fill="#aaffff" cx="514.0" cy="816.0" r="1.0"/>
     <text stroke="none" x="514.0" y="816.0" font-size="10.0" font-family="helvetica">NT1.62</text>
    </g>
    <g>
     <circle stroke="black" stroke-width="0.5" fill="#aaffff" cx="521.0" cy="575.0" r="1.0"/>
     <text stroke="none" x="521.0" y="575.0" font-size="10.0" font-family="helvetica">NT1.63</text>
    </g>
    <g>
     <circle stroke="black" stroke-width="0.5" fill="#aaffff" cx="524.0" cy="331.0" r="1.0"/>
     <text stroke="none" x="524.0" y="331.0" font-size="10.0" font-family="helvetica">NT1.64</text>
    </g>
    <g>
     <circle stroke="black" stroke-width="0.5" fill="#aaffff" cx="664.0" cy="678.0" r="1.0"/>
     <text stroke="none" x="664.0" y="678.0" font-size="20.0" font-family="helvetica">Thalassospira lucentensis OMT2T (AF358664)</text>
    </g>
    <g>
     <circle stroke="black" stroke-width="0.5" fill="#aaffff" cx="665.0" cy="1095.0" r="1.0"/>
     <text stroke="none" x="665.0" y="1095.0" font-size="10.0" font-family="helvetica">NT1.66</text>
    </g>
    <g>
     <circle stroke="black" stroke-width="0.5" fill="#aaffff" cx="5.0" cy="896.0" r="1.0"/>
     <text stroke="none" x="5.0" y="896.0" font-size="10.0" font-family="helvetica">NT1.67</text>
    </g>
    <line stroke="black" x1="473.0" y1="54.0" x2="278.0" y2="37.0" stroke-width="0.5"/>
    <line stroke="black" x1="511.0" y1="123.0" x2="244.0" y2="140.0" stroke-width="0.5"/>
    <line stroke="black" x1="493.0" y1="227.0" x2="217.0" y2="253.0" stroke-width="0.5"/>
    <line stroke="black" x1="457.0" y1="435.0" x2="233.0" y2="461.0" stroke-width="0.5"/>
    <line stroke="black" x1="440.0" y1="643.0" x2="207.0" y2="675.0" stroke-width="0.5"/>
    <line stroke="black" x1="508.0" y1="540.0" x2="316.0" y2="557.0" stroke-width="0.5"/>
    <line stroke="black" x1="470.0" y1="782.0" x2="294.0" y2="765.0" stroke-width="0.5"/>
    <line stroke="black" x1="443.0" y1="852.0" x2="331.0" y2="835.0" stroke-width="0.5"/>
    <line stroke="black" x1="447.0" y1="991.0" x2="344.0" y2="974.0" stroke-width="0.5"/>
    <line stroke="black" x1="278.0" y1="37.0" x2="258.0" y2="63.0" stroke-width="0.5"/>
    <line stroke="black" x1="176.0" y1="102.0" x2="155.0" y2="163.0" stroke-width="0.5"/>
    <line stroke="black" x1="155.0" y1="163.0" x2="144.0" y2="247.0" stroke-width="0.5"/>
    <line stroke="black" x1="130.0" y1="334.0" x2="127.0" y2="440.0" stroke-width="0.5"/>
    <line stroke="black" x1="125.0" y1="482.0" x2="78.0" y2="697.0" stroke-width="0.5"/>
    <line stroke="black" x1="125.0" y1="482.0" x2="194.0" y2="629.0" stroke-width="0.5"/>
    <line stroke="black" x1="194.0" y1="629.0" x2="207.0" y2="675.0" stroke-width="0.5"/>
    <line stroke="black" x1="78.0" y1="697.0" x2="207.0" y2="912.0" stroke-width="0.5"/>
    <line stroke="black" x1="207.0" y1="675.0" x2="232.0" y2="707.0" stroke-width="0.5"/>
    <line stroke="black" x1="207.0" y1="912.0" x2="264.0" y2="964.0" stroke-width="0.5"/>
    <line stroke="black" x1="5.0" y1="896.0" x2="78.0" y2="697.0" stroke-width="0.5"/>
    <line stroke="black" x1="482.0" y1="921.0" x2="264.0" y2="964.0" stroke-width="0.5"/>
    <line stroke="black" x1="431.0" y1="19.0" x2="278.0" y2="37.0" stroke-width="0.5"/>
    <line stroke="black" x1="664.0" y1="678.0" x2="232.0" y2="707.0" stroke-width="0.5"/>
   </g>
  </g>
 </svg>
</svg>
