<?xml version="1.0" encoding="UTF-8"?>
<svg height="800.0" width="700.0" xmlns="http://www.w3.org/2000/svg">
 <svg>
  <g>
   <g>
    <g>
     <circle stroke="black" stroke-width="0.5" fill="#aaffff" cx="22.0" cy="429.0" r="1.0"/>
     <text stroke="none" x="22.0" y="429.0" font-size="20.0" font-family="helvetica"/>
    </g>
    <g>
     <circle stroke="black" stroke-width="0.5" fill="#aaffff" cx="24.0" cy="429.0" r="1.0"/>
     <text stroke="none" x="24.0" y="429.0" font-size="10.0" font-family="helvetica">NT1.2</text>
    </g>
    <g>
     <circle stroke="black" stroke-width="0.5" fill="#aaffff" cx="28.0" cy="422.0" r="1.0"/>
     <text stroke="none" x="28.0" y="422.0" font-size="10.0" font-family="helvetica">NT1.3</text>
    </g>
    <g>
     <circle stroke="black" stroke-width="0.5" fill="#aaffff" cx="29.0" cy="590.0" r="1.0"/>
     <text stroke="none" x="29.0" y="590.0" font-size="20.0" font-family="helvetica">37</text>
    </g>
    <g>
     <circle stroke="black" stroke-width="0.5" fill="#aaffff" cx="50.0" cy="273.0" r="1.0"/>
     <text stroke="none" x="50.0" y="273.0" font-size="10.0" font-family="helvetica">NT1.5</text>
    </g>
    <g>
     <circle stroke="black" stroke-width="0.5" fill="#aaffff" cx="77.0" cy="525.0" r="1.0"/>
     <text stroke="none" x="77.0" y="525.0" font-size="10.0" font-family="helvetica">NT1.6</text>
    </g>
    <g>
     <circle stroke="black" stroke-width="0.5" fill="#aaffff" cx="98.0" cy="344.0" r="1.0"/>
     <text stroke="none" x="98.0" y="344.0" font-size="10.0" font-family="helvetica">NT1.7</text>
    </g>
    <g>
     <circle stroke="black" stroke-width="0.5" fill="#aaffff" cx="119.0" cy="200.0" r="1.0"/>
     <text stroke="none" x="119.0" y="200.0" font-size="20.0" font-family="helvetica">99</text>
    </g>
    <g>
     <circle stroke="black" stroke-width="0.5" fill="#aaffff" cx="131.0" cy="370.0" r="1.0"/>
     <text stroke="none" x="131.0" y="370.0" font-size="10.0" font-family="helvetica">NT1.9</text>
    </g>
    <g>
     <circle stroke="black" stroke-width="0.5" fill="#aaffff" cx="148.0" cy="659.0" r="1.0"/>
     <text stroke="none" x="148.0" y="659.0" font-size="10.0" font-family="helvetica">NT1.10</text>
    </g>
    <g>
     <circle stroke="black" stroke-width="0.5" fill="#aaffff" cx="174.0" cy="710.0" r="1.0"/>
     <text stroke="none" x="174.0" y="710.0" font-size="10.0" font-family="helvetica">NT1.11</text>
    </g>
    <g>
     <circle stroke="black" stroke-width="0.5" fill="#aaffff" cx="177.0" cy="267.0" r="1.0"/>
     <text stroke="none" x="177.0" y="267.0" font-size="10.0" font-family="helvetica">NT1.12</text>
    </g>
    <g>
     <circle stroke="black" stroke-width="0.5" fill="#aaffff" cx="186.0" cy="131.0" r="1.0"/>
     <text stroke="none" x="186.0" y="131.0" font-size="10.0" font-family="helvetica">NT1.13</text>
    </g>
    <g>
     <circle stroke="black" stroke-width="0.5" fill="#aaffff" cx="196.0" cy="744.0" r="1.0"/>
     <text stroke="none" x="196.0" y="744.0" font-size="10.0" font-family="helvetica">NT1.14</text>
    </g>
    <g>
     <circle stroke="black" stroke-width="0.5" fill="#aaffff" cx="211.0" cy="678.0" r="1.0"/>
     <text stroke="none" x="211.0" y="678.0" font-size="10.0" font-family="helvetica">NT1.15</text>
    </g>
    <g>
     <circle stroke="black" stroke-width="0.5" fill="#aaffff" cx="229.0" cy="87.0" r="1.0"/>
     <text stroke="none" x="229.0" y="87.0" font-size="10.0" font-family="helvetica">NT1.16</text>
    </g>
    <g>
     <circle stroke="black" stroke-width="0.5" fill="#aaffff" cx="237.0" cy="491.0" r="1.0"/>
     <text stroke="none" x="237.0" y="491.0" font-size="10.0" font-family="helvetica">NT1.17</text>
    </g>
    <g>
     <circle stroke="black" stroke-width="0.5" fill="#aaffff" cx="238.0" cy="455.0" r="1.0"/>
     <text stroke="none" x="238.0" y="455.0" font-size="10.0" font-family="helvetica">NT1.18</text>
    </g>
    <g>
     <circle stroke="black" stroke-width="0.5" fill="#aaffff" cx="238.0" cy="525.0" r="1.0"/>
     <text stroke="none" x="238.0" y="525.0" font-size="10.0" font-family="helvetica">NT1.19</text>
    </g>
    <g>
     <circle stroke="black" stroke-width="0.5" fill="#aaffff" cx="248.0" cy="57.0" r="1.0"/>
     <text stroke="none" x="248.0" y="57.0" font-size="10.0" font-family="helvetica">NT1.20</text>
    </g>
    <g>
     <circle stroke="black" stroke-width="0.5" fill="#aaffff" cx="264.0" cy="320.0" r="1.0"/>
     <text stroke="none" x="264.0" y="320.0" font-size="20.0" font-family="helvetica">Cytophaga fermentans ATCC 190727 (M58766)</text>
    </g>
    <g>
     <circle stroke="black" stroke-width="0.5" fill="#aaffff" cx="269.0" cy="354.0" r="1.0"/>
     <text stroke="none" x="269.0" y="354.0" font-size="10.0" font-family="helvetica">NT1.22</text>
    </g>
    <g>
     <circle stroke="black" stroke-width="0.5" fill="#aaffff" cx="286.0" cy="558.0" r="1.0"/>
     <text stroke="none" x="286.0" y="558.0" font-size="10.0" font-family="helvetica">NT1.23</text>
    </g>
    <g>
     <circle stroke="black" stroke-width="0.5" fill="#aaffff" cx="316.0" cy="388.0" r="1.0"/>
     <text stroke="none" x="316.0" y="388.0" font-size="20.0" font-family="helvetica">Marinifilum fragile JC24697 (FJ394546)</text>
    </g>
    <g>
     <circle stroke="black" stroke-width="0.5" fill="#aaffff" cx="338.0" cy="174.0" r="1.0"/>
     <text stroke="none" x="338.0" y="174.0" font-size="10.0" font-family="helvetica">NT1.25</text>
    </g>
    <g>
     <circle stroke="black" stroke-width="0.5" fill="#aaffff" cx="369.0" cy="422.0" r="1.0"/>
     <text stroke="none" x="369.0" y="422.0" font-size="20.0" font-family="helvetica">Fulvivirga kasyanovii KMM 62207 (DQ836305)</text>
    </g>
    <g>
     <circle stroke="black" stroke-width="0.5" fill="#aaffff" cx="376.0" cy="285.0" r="1.0"/>
     <text stroke="none" x="376.0" y="285.0" font-size="10.0" font-family="helvetica">NT1.27</text>
    </g>
    <g>
     <circle stroke="black" stroke-width="0.5" fill="#aaffff" cx="382.0" cy="728.0" r="1.0"/>
     <text stroke="none" x="382.0" y="728.0" font-size="20.0" font-family="helvetica">Parabacteroides goldsteinii WAL 120347 (AY974070)</text>
    </g>
    <g>
     <circle stroke="black" stroke-width="0.5" fill="#aaffff" cx="382.0" cy="610.0" r="1.0"/>
     <text stroke="none" x="382.0" y="610.0" font-size="20.0" font-family="helvetica">100</text>
    </g>
    <g>
     <circle stroke="black" stroke-width="0.5" fill="#aaffff" cx="387.0" cy="251.0" r="1.0"/>
     <text stroke="none" x="387.0" y="251.0" font-size="20.0" font-family="helvetica">Crocinitomix catalasitica IFO 159777 (AB078042)</text>
    </g>
    <g>
     <circle stroke="black" stroke-width="0.5" fill="#aaffff" cx="387.0" cy="32.0" r="1.0"/>
     <text stroke="none" x="387.0" y="32.0" font-size="20.0" font-family="helvetica">100</text>
    </g>
    <g>
     <circle stroke="black" stroke-width="0.5" fill="#aaffff" cx="403.0" cy="149.0" r="1.0"/>
     <text stroke="none" x="403.0" y="149.0" font-size="10.0" font-family="helvetica">NT1.32</text>
    </g>
    <g>
     <circle stroke="black" stroke-width="0.5" fill="#aaffff" cx="404.0" cy="199.0" r="1.0"/>
     <text stroke="none" x="404.0" y="199.0" font-size="20.0" font-family="helvetica">100</text>
    </g>
    <g>
     <circle stroke="black" stroke-width="0.5" fill="#aaffff" cx="406.0" cy="694.0" r="1.0"/>
     <text stroke="none" x="406.0" y="694.0" font-size="20.0" font-family="helvetica">Paludibacter propionicigenes WB47 (AB078842)</text>
    </g>
    <g>
     <circle stroke="black" stroke-width="0.5" fill="#aaffff" cx="413.0" cy="660.0" r="1.0"/>
     <text stroke="none" x="413.0" y="660.0" font-size="10.0" font-family="helvetica">NT1.35</text>
    </g>
    <g>
     <circle stroke="black" stroke-width="0.5" fill="#aaffff" cx="414.0" cy="14.0" r="1.0"/>
     <text stroke="none" x="414.0" y="14.0" font-size="20.0" font-family="helvetica">Formosa algae KMM 35537 (AY228461)</text>
    </g>
    <g>
     <circle stroke="black" stroke-width="0.5" fill="#aaffff" cx="417.0" cy="48.0" r="1.0"/>
     <text stroke="none" x="417.0" y="48.0" font-size="10.0" font-family="helvetica">NT1.37</text>
    </g>
    <g>
     <circle stroke="black" stroke-width="0.5" fill="#aaffff" cx="417.0" cy="183.0" r="1.0"/>
     <text stroke="none" x="417.0" y="183.0" font-size="20.0" font-family="helvetica">Myroides profundi D257 (EU204978)</text>
    </g>
    <g>
     <circle stroke="black" stroke-width="0.5" fill="#aaffff" cx="420.0" cy="218.0" r="1.0"/>
     <text stroke="none" x="420.0" y="218.0" font-size="20.0" font-family="helvetica">Myroides odoratimimus CCUG 393527 (AJ854059)</text>
    </g>
    <g>
     <circle stroke="black" stroke-width="0.5" fill="#aaffff" cx="443.0" cy="116.0" r="1.0"/>
     <text stroke="none" x="443.0" y="116.0" font-size="10.0" font-family="helvetica">NT1.40</text>
    </g>
    <g>
     <circle stroke="black" stroke-width="0.5" fill="#aaffff" cx="450.0" cy="762.0" r="1.0"/>
     <text stroke="none" x="450.0" y="762.0" font-size="10.0" font-family="helvetica">NT1.41</text>
    </g>
    <g>
     <circle stroke="black" stroke-width="0.5" fill="#aaffff" cx="451.0" cy="591.0" r="1.0"/>
     <text stroke="none" x="451.0" y="591.0" font-size="10.0" font-family="helvetica">NT1.42</text>
    </g>
    <g>
     <circle stroke="black" stroke-width="0.5" fill="#aaffff" cx="457.0" cy="82.0" r="1.0"/>
     <text stroke="none" x="457.0" y="82.0" font-size="10.0" font-family="helvetica">NT1.43</text>
    </g>
    <g>
     <circle stroke="black" stroke-width="0.5" fill="#aaffff" cx="457.0" cy="626.0" r="1.0"/>
     <text stroke="none" x="457.0" y="626.0" font-size="20.0" font-family="helvetica">Porphyromonas somerae WAL 66907 (AY968205)</text>
    </g>
    <line stroke="black" x1="24.0" y1="429.0" x2="22.0" y2="429.0" stroke-width="0.5"/>
    <line stroke="black" x1="369.0" y1="422.0" x2="28.0" y2="422.0" stroke-width="0.5"/>
    <line stroke="black" x1="406.0" y1="694.0" x2="211.0" y2="678.0" stroke-width="0.5"/>
    <line stroke="black" x1="186.0" y1="131.0" x2="119.0" y2="200.0" stroke-width="0.5"/>
    <line stroke="black" x1="119.0" y1="200.0" x2="50.0" y2="273.0" stroke-width="0.5"/>
    <line stroke="black" x1="338.0" y1="174.0" x2="404.0" y2="199.0" stroke-width="0.5"/>
    <line stroke="black" x1="50.0" y1="273.0" x2="28.0" y2="422.0" stroke-width="0.5"/>
    <line stroke="black" x1="50.0" y1="273.0" x2="98.0" y2="344.0" stroke-width="0.5"/>
    <line stroke="black" x1="28.0" y1="422.0" x2="24.0" y2="429.0" stroke-width="0.5"/>
    <line stroke="black" x1="29.0" y1="590.0" x2="148.0" y2="659.0" stroke-width="0.5"/>
    <line stroke="black" x1="148.0" y1="659.0" x2="174.0" y2="710.0" stroke-width="0.5"/>
    <line stroke="black" x1="264.0" y1="320.0" x2="98.0" y2="344.0" stroke-width="0.5"/>
    <line stroke="black" x1="316.0" y1="388.0" x2="131.0" y2="370.0" stroke-width="0.5"/>
    <line stroke="black" x1="387.0" y1="251.0" x2="177.0" y2="267.0" stroke-width="0.5"/>
    <line stroke="black" x1="382.0" y1="728.0" x2="196.0" y2="744.0" stroke-width="0.5"/>
    <line stroke="black" x1="414.0" y1="14.0" x2="387.0" y2="32.0" stroke-width="0.5"/>
    <line stroke="black" x1="457.0" y1="626.0" x2="382.0" y2="610.0" stroke-width="0.5"/>
    <line stroke="black" x1="417.0" y1="183.0" x2="404.0" y2="199.0" stroke-width="0.5"/>
    <line stroke="black" x1="420.0" y1="218.0" x2="404.0" y2="199.0" stroke-width="0.5"/>
   </g>
  </g>
 </svg>
</svg>
