<?xml version="1.0" encoding="UTF-8"?>
<svg height="800.0" width="700.0" xmlns="http://www.w3.org/2000/svg">
 <svg>
  <g>
   <g>
    <g>
     <circle stroke="black" stroke-width="0.5" fill="#aaffff" cx="8.0" cy="1213.0" r="1.0"/>
     <text stroke="none" x="8.0" y="1213.0" font-size="10.0" font-family="helvetica">NT1.1</text>
    </g>
    <g>
     <circle stroke="black" stroke-width="0.5" fill="#aaffff" cx="37.0" cy="1049.0" r="1.0"/>
     <text stroke="none" x="37.0" y="1049.0" font-size="10.0" font-family="helvetica">NT1.2</text>
    </g>
    <g>
     <circle stroke="black" stroke-width="0.5" fill="#aaffff" cx="47.0" cy="828.0" r="1.0"/>
     <text stroke="none" x="47.0" y="828.0" font-size="10.0" font-family="helvetica">NT1.3</text>
    </g>
    <g>
     <circle stroke="black" stroke-width="0.5" fill="#aaffff" cx="63.0" cy="540.0" r="1.0"/>
     <text stroke="none" x="63.0" y="540.0" font-size="10.0" font-family="helvetica">NT1.4</text>
    </g>
    <g>
     <circle stroke="black" stroke-width="0.5" fill="#aaffff" cx="75.0" cy="778.0" r="1.0"/>
     <text stroke="none" x="75.0" y="778.0" font-size="10.0" font-family="helvetica">NT1.5</text>
    </g>
    <g>
     <circle stroke="black" stroke-width="0.5" fill="#aaffff" cx="87.0" cy="1527.0" r="1.0"/>
     <text stroke="none" x="87.0" y="1527.0" font-size="10.0" font-family="helvetica">NT1.6</text>
    </g>
    <g>
     <circle stroke="black" stroke-width="0.5" fill="#aaffff" cx="91.0" cy="1373.0" r="1.0"/>
     <text stroke="none" x="91.0" y="1373.0" font-size="10.0" font-family="helvetica">NT1.7</text>
    </g>
    <g>
     <circle stroke="black" stroke-width="0.5" fill="#aaffff" cx="96.0" cy="1541.0" r="1.0"/>
     <text stroke="none" x="96.0" y="1541.0" font-size="20.0" font-family="helvetica"/>
    </g>
    <g>
     <circle stroke="black" stroke-width="0.5" fill="#aaffff" cx="101.0" cy="302.0" r="1.0"/>
     <text stroke="none" x="101.0" y="302.0" font-size="10.0" font-family="helvetica">NT1.9</text>
    </g>
    <g>
     <circle stroke="black" stroke-width="0.5" fill="#aaffff" cx="101.0" cy="1114.0" r="1.0"/>
     <text stroke="none" x="101.0" y="1114.0" font-size="10.0" font-family="helvetica">NT1.10</text>
    </g>
    <g>
     <circle stroke="black" stroke-width="0.5" fill="#aaffff" cx="105.0" cy="352.0" r="1.0"/>
     <text stroke="none" x="105.0" y="352.0" font-size="10.0" font-family="helvetica">NT1.11</text>
    </g>
    <g>
     <circle stroke="black" stroke-width="0.5" fill="#aaffff" cx="119.0" cy="192.0" r="1.0"/>
     <text stroke="none" x="119.0" y="192.0" font-size="10.0" font-family="helvetica">NT1.12</text>
    </g>
    <g>
     <circle stroke="black" stroke-width="0.5" fill="#aaffff" cx="124.0" cy="1175.0" r="1.0"/>
     <text stroke="none" x="124.0" y="1175.0" font-size="20.0" font-family="helvetica">64</text>
    </g>
    <g>
     <circle stroke="black" stroke-width="0.5" fill="#aaffff" cx="132.0" cy="1419.0" r="1.0"/>
     <text stroke="none" x="132.0" y="1419.0" font-size="20.0" font-family="helvetica">98</text>
    </g>
    <g>
     <circle stroke="black" stroke-width="0.5" fill="#aaffff" cx="140.0" cy="688.0" r="1.0"/>
     <text stroke="none" x="140.0" y="688.0" font-size="20.0" font-family="helvetica">82</text>
    </g>
    <g>
     <circle stroke="black" stroke-width="0.5" fill="#aaffff" cx="148.0" cy="123.0" r="1.0"/>
     <text stroke="none" x="148.0" y="123.0" font-size="10.0" font-family="helvetica">NT1.16</text>
    </g>
    <g>
     <circle stroke="black" stroke-width="0.5" fill="#aaffff" cx="148.0" cy="465.0" r="1.0"/>
     <text stroke="none" x="148.0" y="465.0" font-size="10.0" font-family="helvetica">NT1.17</text>
    </g>
    <g>
     <circle stroke="black" stroke-width="0.5" fill="#aaffff" cx="162.0" cy="870.0" r="1.0"/>
     <text stroke="none" x="162.0" y="870.0" font-size="20.0" font-family="helvetica">98</text>
    </g>
    <g>
     <circle stroke="black" stroke-width="0.5" fill="#aaffff" cx="165.0" cy="901.0" r="1.0"/>
     <text stroke="none" x="165.0" y="901.0" font-size="20.0" font-family="helvetica">98</text>
    </g>
    <g>
     <circle stroke="black" stroke-width="0.5" fill="#aaffff" cx="166.0" cy="1055.0" r="1.0"/>
     <text stroke="none" x="166.0" y="1055.0" font-size="20.0" font-family="helvetica">93</text>
    </g>
    <g>
     <circle stroke="black" stroke-width="0.5" fill="#aaffff" cx="169.0" cy="519.0" r="1.0"/>
     <text stroke="none" x="169.0" y="519.0" font-size="10.0" font-family="helvetica">NT1.21</text>
    </g>
    <g>
     <circle stroke="black" stroke-width="0.5" fill="#aaffff" cx="174.0" cy="870.0" r="1.0"/>
     <text stroke="none" x="174.0" y="870.0" font-size="20.0" font-family="helvetica"/>
    </g>
    <g>
     <circle stroke="black" stroke-width="0.5" fill="#aaffff" cx="174.0" cy="810.0" r="1.0"/>
     <text stroke="none" x="174.0" y="810.0" font-size="10.0" font-family="helvetica">NT1.23</text>
    </g>
    <g>
     <circle stroke="black" stroke-width="0.5" fill="#aaffff" cx="186.0" cy="259.0" r="1.0"/>
     <text stroke="none" x="186.0" y="259.0" font-size="20.0" font-family="helvetica">66</text>
    </g>
    <g>
     <circle stroke="black" stroke-width="0.5" fill="#aaffff" cx="190.0" cy="1451.0" r="1.0"/>
     <text stroke="none" x="190.0" y="1451.0" font-size="20.0" font-family="helvetica">Ruegeria atlantica IAM 144637 (D88526)</text>
    </g>
    <g>
     <circle stroke="black" stroke-width="0.5" fill="#aaffff" cx="224.0" cy="1389.0" r="1.0"/>
     <text stroke="none" x="224.0" y="1389.0" font-size="20.0" font-family="helvetica">Silicibacter lacuscaerulensis ITI-1 1 577 (U77644)</text>
    </g>
    <g>
     <circle stroke="black" stroke-width="0.5" fill="#aaffff" cx="232.0" cy="1329.0" r="1.0"/>
     <text stroke="none" x="232.0" y="1329.0" font-size="20.0" font-family="helvetica">Silicibacter pomeroyi DSS-37 (AFO98491 )</text>
    </g>
    <g>
     <circle stroke="black" stroke-width="0.5" fill="#aaffff" cx="233.0" cy="564.0" r="1.0"/>
     <text stroke="none" x="233.0" y="564.0" font-size="20.0" font-family="helvetica">97</text>
    </g>
    <g>
     <circle stroke="black" stroke-width="0.5" fill="#aaffff" cx="247.0" cy="1084.0" r="1.0"/>
     <text stroke="none" x="247.0" y="1084.0" font-size="20.0" font-family="helvetica">Thalassobius gelatinovorus IAM 126177 (D88523)</text>
    </g>
    <g>
     <circle stroke="black" stroke-width="0.5" fill="#aaffff" cx="265.0" cy="1145.0" r="1.0"/>
     <text stroke="none" x="265.0" y="1145.0" font-size="20.0" font-family="helvetica">Marinovum algicola ATCC 514407 (X78315)</text>
    </g>
    <g>
     <circle stroke="black" stroke-width="0.5" fill="#aaffff" cx="283.0" cy="1207.0" r="1.0"/>
     <text stroke="none" x="283.0" y="1207.0" font-size="20.0" font-family="helvetica">Leisingera methylohalidivorans MB27 (AYOO5463)</text>
    </g>
    <g>
     <circle stroke="black" stroke-width="0.5" fill="#aaffff" cx="288.0" cy="1023.0" r="1.0"/>
     <text stroke="none" x="288.0" y="1023.0" font-size="20.0" font-family="helvetica">Thalassobius mediterraneus XSM197 (AJ878874)</text>
    </g>
    <g>
     <circle stroke="black" stroke-width="0.5" fill="#aaffff" cx="291.0" cy="779.0" r="1.0"/>
     <text stroke="none" x="291.0" y="779.0" font-size="20.0" font-family="helvetica">Sulfitobacter pontiacus ChLG 107 (Y1 3155)</text>
    </g>
    <g>
     <circle stroke="black" stroke-width="0.5" fill="#aaffff" cx="294.0" cy="1512.0" r="1.0"/>
     <text stroke="none" x="294.0" y="1512.0" font-size="20.0" font-family="helvetica">Salipiger mucosus A37 (AY527274)</text>
    </g>
    <g>
     <circle stroke="black" stroke-width="0.5" fill="#aaffff" cx="299.0" cy="963.0" r="1.0"/>
     <text stroke="none" x="299.0" y="963.0" font-size="20.0" font-family="helvetica">Oceanibulbus indolifex HEL-457 (AJ550939)</text>
    </g>
    <g>
     <circle stroke="black" stroke-width="0.5" fill="#aaffff" cx="312.0" cy="1268.0" r="1.0"/>
     <text stroke="none" x="312.0" y="1268.0" font-size="20.0" font-family="helvetica">Roseovarius tolerans EL-1727 (Y1 1551)</text>
    </g>
    <g>
     <circle stroke="black" stroke-width="0.5" fill="#aaffff" cx="322.0" cy="901.0" r="1.0"/>
     <text stroke="none" x="322.0" y="901.0" font-size="20.0" font-family="helvetica">Staleya guttiformis EL-387 (Y16427)</text>
    </g>
    <g>
     <circle stroke="black" stroke-width="0.5" fill="#aaffff" cx="335.0" cy="840.0" r="1.0"/>
     <text stroke="none" x="335.0" y="840.0" font-size="20.0" font-family="helvetica">Roseobacter litoralis ATCC 495667 (X78312)</text>
    </g>
    <g>
     <circle stroke="black" stroke-width="0.5" fill="#aaffff" cx="356.0" cy="657.0" r="1.0"/>
     <text stroke="none" x="356.0" y="657.0" font-size="20.0" font-family="helvetica">Sagittula stellata E-377 (U58356)</text>
    </g>
    <g>
     <circle stroke="black" stroke-width="0.5" fill="#aaffff" cx="361.0" cy="229.0" r="1.0"/>
     <text stroke="none" x="361.0" y="229.0" font-size="20.0" font-family="helvetica">Thalassobacter stenotrophicus CECT 52947 (AJ631302)</text>
    </g>
    <g>
     <circle stroke="black" stroke-width="0.5" fill="#aaffff" cx="363.0" cy="1573.0" r="1.0"/>
     <text stroke="none" x="363.0" y="1573.0" font-size="20.0" font-family="helvetica">Roseivivax halodurans Och 2397 (D85829)</text>
    </g>
    <g>
     <circle stroke="black" stroke-width="0.5" fill="#aaffff" cx="373.0" cy="352.0" r="1.0"/>
     <text stroke="none" x="373.0" y="352.0" font-size="20.0" font-family="helvetica">Octadecabacter arcticus 2387 (U73725)</text>
    </g>
    <g>
     <circle stroke="black" stroke-width="0.5" fill="#aaffff" cx="373.0" cy="718.0" r="1.0"/>
     <text stroke="none" x="373.0" y="718.0" font-size="20.0" font-family="helvetica">Antarctobacter heliothermus EL-2197 (Y1 1552)</text>
    </g>
    <g>
     <circle stroke="black" stroke-width="0.5" fill="#aaffff" cx="376.0" cy="596.0" r="1.0"/>
     <text stroke="none" x="376.0" y="596.0" font-size="20.0" font-family="helvetica">Oceanicola granulosus HTCC25167 (AY424896)</text>
    </g>
    <g>
     <circle stroke="black" stroke-width="0.5" fill="#aaffff" cx="397.0" cy="290.0" r="1.0"/>
     <text stroke="none" x="397.0" y="290.0" font-size="20.0" font-family="helvetica">Jannaschia helgolandensis Hel 107 (AJ4381 57)</text>
    </g>
    <g>
     <circle stroke="black" stroke-width="0.5" fill="#aaffff" cx="409.0" cy="473.0" r="1.0"/>
     <text stroke="none" x="409.0" y="473.0" font-size="20.0" font-family="helvetica">Ketogulonicigenium vulgare DSM 40257 (AF136849)</text>
    </g>
    <g>
     <circle stroke="black" stroke-width="0.5" fill="#aaffff" cx="409.0" cy="534.0" r="1.0"/>
     <text stroke="none" x="409.0" y="534.0" font-size="20.0" font-family="helvetica">Roseisalinus antarcticus EL-887 (AJ605747)</text>
    </g>
    <g>
     <circle stroke="black" stroke-width="0.5" fill="#aaffff" cx="430.0" cy="412.0" r="1.0"/>
     <text stroke="none" x="430.0" y="412.0" font-size="20.0" font-family="helvetica">Loktanella salsilacus LMG 215077(AJ44O997)</text>
    </g>
    <g>
     <circle stroke="black" stroke-width="0.5" fill="#aaffff" cx="466.0" cy="78.0" r="1.0"/>
     <text stroke="none" x="466.0" y="78.0" font-size="20.0" font-family="helvetica">100</text>
    </g>
    <g>
     <circle stroke="black" stroke-width="0.5" fill="#aaffff" cx="472.0" cy="168.0" r="1.0"/>
     <text stroke="none" x="472.0" y="168.0" font-size="20.0" font-family="helvetica">Marinosulfonomonas methylotrophaf PSCH4 (U62894)</text>
    </g>
    <g>
     <circle stroke="black" stroke-width="0.5" fill="#aaffff" cx="477.0" cy="107.0" r="1.0"/>
     <text stroke="none" x="477.0" y="107.0" font-size="20.0" font-family="helvetica">Strain B5-67 (DQ514326)</text>
    </g>
    <g>
     <circle stroke="black" stroke-width="0.5" fill="#aaffff" cx="482.0" cy="77.0" r="1.0"/>
     <text stroke="none" x="482.0" y="77.0" font-size="20.0" font-family="helvetica"/>
    </g>
    <g>
     <circle stroke="black" stroke-width="0.5" fill="#aaffff" cx="495.0" cy="47.0" r="1.0"/>
     <text stroke="none" x="495.0" y="47.0" font-size="20.0" font-family="helvetica">Strain CL-SP277 (AY906863)</text>
    </g>
    <line stroke="black" x1="495.0" y1="47.0" x2="466.0" y2="78.0" stroke-width="0.5"/>
    <line stroke="black" x1="482.0" y1="77.0" x2="466.0" y2="78.0" stroke-width="0.5"/>
    <line stroke="black" x1="361.0" y1="229.0" x2="186.0" y2="259.0" stroke-width="0.5"/>
    <line stroke="black" x1="397.0" y1="290.0" x2="186.0" y2="259.0" stroke-width="0.5"/>
    <line stroke="black" x1="373.0" y1="352.0" x2="105.0" y2="352.0" stroke-width="0.5"/>
    <line stroke="black" x1="430.0" y1="412.0" x2="148.0" y2="465.0" stroke-width="0.5"/>
    <line stroke="black" x1="376.0" y1="596.0" x2="233.0" y2="564.0" stroke-width="0.5"/>
    <line stroke="black" x1="409.0" y1="534.0" x2="233.0" y2="564.0" stroke-width="0.5"/>
    <line stroke="black" x1="174.0" y1="870.0" x2="162.0" y2="870.0" stroke-width="0.5"/>
    <line stroke="black" x1="322.0" y1="901.0" x2="165.0" y2="901.0" stroke-width="0.5"/>
    <line stroke="black" x1="291.0" y1="779.0" x2="174.0" y2="810.0" stroke-width="0.5"/>
    <line stroke="black" x1="299.0" y1="963.0" x2="165.0" y2="901.0" stroke-width="0.5"/>
    <line stroke="black" x1="335.0" y1="840.0" x2="174.0" y2="810.0" stroke-width="0.5"/>
    <line stroke="black" x1="247.0" y1="1084.0" x2="166.0" y2="1055.0" stroke-width="0.5"/>
    <line stroke="black" x1="265.0" y1="1145.0" x2="124.0" y2="1175.0" stroke-width="0.5"/>
    <line stroke="black" x1="288.0" y1="1023.0" x2="166.0" y2="1055.0" stroke-width="0.5"/>
    <line stroke="black" x1="190.0" y1="1451.0" x2="132.0" y2="1419.0" stroke-width="0.5"/>
    <line stroke="black" x1="96.0" y1="1541.0" x2="87.0" y2="1527.0" stroke-width="0.5"/>
    <line stroke="black" x1="224.0" y1="1389.0" x2="132.0" y2="1419.0" stroke-width="0.5"/>
    <line stroke="black" x1="294.0" y1="1512.0" x2="87.0" y2="1527.0" stroke-width="0.5"/>
    <line stroke="black" x1="363.0" y1="1573.0" x2="87.0" y2="1527.0" stroke-width="0.5"/>
    <line stroke="black" x1="466.0" y1="78.0" x2="148.0" y2="123.0" stroke-width="0.5"/>
    <line stroke="black" x1="148.0" y1="123.0" x2="119.0" y2="192.0" stroke-width="0.5"/>
    <line stroke="black" x1="119.0" y1="192.0" x2="101.0" y2="302.0" stroke-width="0.5"/>
    <line stroke="black" x1="119.0" y1="192.0" x2="186.0" y2="259.0" stroke-width="0.5"/>
    <line stroke="black" x1="101.0" y1="302.0" x2="63.0" y2="540.0" stroke-width="0.5"/>
    <line stroke="black" x1="101.0" y1="302.0" x2="105.0" y2="352.0" stroke-width="0.5"/>
    <line stroke="black" x1="105.0" y1="352.0" x2="148.0" y2="465.0" stroke-width="0.5"/>
    <line stroke="black" x1="148.0" y1="465.0" x2="169.0" y2="519.0" stroke-width="0.5"/>
    <line stroke="black" x1="63.0" y1="540.0" x2="47.0" y2="828.0" stroke-width="0.5"/>
    <line stroke="black" x1="63.0" y1="540.0" x2="75.0" y2="778.0" stroke-width="0.5"/>
    <line stroke="black" x1="169.0" y1="519.0" x2="233.0" y2="564.0" stroke-width="0.5"/>
    <line stroke="black" x1="75.0" y1="778.0" x2="162.0" y2="870.0" stroke-width="0.5"/>
    <line stroke="black" x1="75.0" y1="778.0" x2="140.0" y2="688.0" stroke-width="0.5"/>
    <line stroke="black" x1="47.0" y1="828.0" x2="37.0" y2="1049.0" stroke-width="0.5"/>
    <line stroke="black" x1="47.0" y1="828.0" x2="101.0" y2="1114.0" stroke-width="0.5"/>
    <line stroke="black" x1="162.0" y1="870.0" x2="165.0" y2="901.0" stroke-width="0.5"/>
    <line stroke="black" x1="162.0" y1="870.0" x2="174.0" y2="810.0" stroke-width="0.5"/>
    <line stroke="black" x1="37.0" y1="1049.0" x2="8.0" y2="1213.0" stroke-width="0.5"/>
    <line stroke="black" x1="101.0" y1="1114.0" x2="124.0" y2="1175.0" stroke-width="0.5"/>
    <line stroke="black" x1="101.0" y1="1114.0" x2="166.0" y2="1055.0" stroke-width="0.5"/>
    <line stroke="black" x1="8.0" y1="1213.0" x2="91.0" y2="1373.0" stroke-width="0.5"/>
    <line stroke="black" x1="91.0" y1="1373.0" x2="132.0" y2="1419.0" stroke-width="0.5"/>
    <line stroke="black" x1="8.0" y1="1213.0" x2="87.0" y2="1527.0" stroke-width="0.5"/>
    <line stroke="black" x1="312.0" y1="1268.0" x2="37.0" y2="1049.0" stroke-width="0.5"/>
    <line stroke="black" x1="232.0" y1="1329.0" x2="91.0" y2="1373.0" stroke-width="0.5"/>
    <line stroke="black" x1="283.0" y1="1207.0" x2="124.0" y2="1175.0" stroke-width="0.5"/>
    <line stroke="black" x1="356.0" y1="657.0" x2="140.0" y2="688.0" stroke-width="0.5"/>
    <line stroke="black" x1="373.0" y1="718.0" x2="140.0" y2="688.0" stroke-width="0.5"/>
    <line stroke="black" x1="409.0" y1="473.0" x2="169.0" y2="519.0" stroke-width="0.5"/>
    <line stroke="black" x1="472.0" y1="168.0" x2="148.0" y2="123.0" stroke-width="0.5"/>
    <line stroke="black" x1="477.0" y1="107.0" x2="466.0" y2="78.0" stroke-width="0.5"/>
   </g>
  </g>
 </svg>
</svg>
