<?xml version="1.0" encoding="UTF-8"?>
<svg height="800.0" width="700.0" xmlns="http://www.w3.org/2000/svg">
 <svg>
  <g>
   <g>
    <g>
     <circle stroke="black" stroke-width="0.5" fill="#aaffff" cx="28.0" cy="779.0" r="1.0"/>
     <text stroke="none" x="28.0" y="779.0" font-size="10.0" font-family="helvetica">NT1.1</text>
    </g>
    <g>
     <circle stroke="black" stroke-width="0.5" fill="#aaffff" cx="113.0" cy="608.0" r="1.0"/>
     <text stroke="none" x="113.0" y="608.0" font-size="20.0" font-family="helvetica">100</text>
    </g>
    <g>
     <circle stroke="black" stroke-width="0.5" fill="#aaffff" cx="174.0" cy="538.0" r="1.0"/>
     <text stroke="none" x="174.0" y="538.0" font-size="20.0" font-family="helvetica">100</text>
    </g>
    <g>
     <circle stroke="black" stroke-width="0.5" fill="#aaffff" cx="184.0" cy="463.0" r="1.0"/>
     <text stroke="none" x="184.0" y="463.0" font-size="10.0" font-family="helvetica">NT1.4</text>
    </g>
    <g>
     <circle stroke="black" stroke-width="0.5" fill="#aaffff" cx="193.0" cy="677.0" r="1.0"/>
     <text stroke="none" x="193.0" y="677.0" font-size="10.0" font-family="helvetica">NT1.5</text>
    </g>
    <g>
     <circle stroke="black" stroke-width="0.5" fill="#aaffff" cx="208.0" cy="351.0" r="1.0"/>
     <text stroke="none" x="208.0" y="351.0" font-size="10.0" font-family="helvetica">NT1.6</text>
    </g>
    <g>
     <circle stroke="black" stroke-width="0.5" fill="#aaffff" cx="214.0" cy="423.0" r="1.0"/>
     <text stroke="none" x="214.0" y="423.0" font-size="10.0" font-family="helvetica">NT1.7</text>
    </g>
    <g>
     <circle stroke="black" stroke-width="0.5" fill="#aaffff" cx="229.0" cy="278.0" r="1.0"/>
     <text stroke="none" x="229.0" y="278.0" font-size="10.0" font-family="helvetica">NT1.8</text>
    </g>
    <g>
     <circle stroke="black" stroke-width="0.5" fill="#aaffff" cx="229.0" cy="458.0" r="1.0"/>
     <text stroke="none" x="229.0" y="458.0" font-size="10.0" font-family="helvetica">NT1.9</text>
    </g>
    <g>
     <circle stroke="black" stroke-width="0.5" fill="#aaffff" cx="233.0" cy="491.0" r="1.0"/>
     <text stroke="none" x="233.0" y="491.0" font-size="10.0" font-family="helvetica">NT1.10</text>
    </g>
    <g>
     <circle stroke="black" stroke-width="0.5" fill="#aaffff" cx="253.0" cy="519.0" r="1.0"/>
     <text stroke="none" x="253.0" y="519.0" font-size="10.0" font-family="helvetica">NT1.11</text>
    </g>
    <g>
     <circle stroke="black" stroke-width="0.5" fill="#aaffff" cx="255.0" cy="761.0" r="1.0"/>
     <text stroke="none" x="255.0" y="761.0" font-size="20.0" font-family="helvetica">Weekse1la virosa ATCC 43766T (M93152)</text>
    </g>
    <g>
     <circle stroke="black" stroke-width="0.5" fill="#aaffff" cx="261.0" cy="203.0" r="1.0"/>
     <text stroke="none" x="261.0" y="203.0" font-size="20.0" font-family="helvetica">99</text>
    </g>
    <g>
     <circle stroke="black" stroke-width="0.5" fill="#aaffff" cx="265.0" cy="705.0" r="1.0"/>
     <text stroke="none" x="265.0" y="705.0" font-size="20.0" font-family="helvetica">100</text>
    </g>
    <g>
     <circle stroke="black" stroke-width="0.5" fill="#aaffff" cx="275.0" cy="724.0" r="1.0"/>
     <text stroke="none" x="275.0" y="724.0" font-size="20.0" font-family="helvetica">Myroides profundi D257 (EU204978)</text>
    </g>
    <g>
     <circle stroke="black" stroke-width="0.5" fill="#aaffff" cx="275.0" cy="140.0" r="1.0"/>
     <text stroke="none" x="275.0" y="140.0" font-size="10.0" font-family="helvetica">NT1.16</text>
    </g>
    <g>
     <circle stroke="black" stroke-width="0.5" fill="#aaffff" cx="276.0" cy="686.0" r="1.0"/>
     <text stroke="none" x="276.0" y="686.0" font-size="20.0" font-family="helvetica"/>
    </g>
    <g>
     <circle stroke="black" stroke-width="0.5" fill="#aaffff" cx="280.0" cy="96.0" r="1.0"/>
     <text stroke="none" x="280.0" y="96.0" font-size="10.0" font-family="helvetica">NT1.18</text>
    </g>
    <g>
     <circle stroke="black" stroke-width="0.5" fill="#aaffff" cx="281.0" cy="613.0" r="1.0"/>
     <text stroke="none" x="281.0" y="613.0" font-size="20.0" font-family="helvetica">Flavobacterium beibuense F44-ST (GQ245972)</text>
    </g>
    <g>
     <circle stroke="black" stroke-width="0.5" fill="#aaffff" cx="283.0" cy="267.0" r="1.0"/>
     <text stroke="none" x="283.0" y="267.0" font-size="10.0" font-family="helvetica">NT1.20</text>
    </g>
    <g>
     <circle stroke="black" stroke-width="0.5" fill="#aaffff" cx="296.0" cy="63.0" r="1.0"/>
     <text stroke="none" x="296.0" y="63.0" font-size="10.0" font-family="helvetica">NT1.21</text>
    </g>
    <g>
     <circle stroke="black" stroke-width="0.5" fill="#aaffff" cx="298.0" cy="649.0" r="1.0"/>
     <text stroke="none" x="298.0" y="649.0" font-size="20.0" font-family="helvetica">Myroides odoratus ATCC 4651T (M58777)</text>
    </g>
    <g>
     <circle stroke="black" stroke-width="0.5" fill="#aaffff" cx="304.0" cy="295.0" r="1.0"/>
     <text stroke="none" x="304.0" y="295.0" font-size="10.0" font-family="helvetica">NT1.23</text>
    </g>
    <g>
     <circle stroke="black" stroke-width="0.5" fill="#aaffff" cx="310.0" cy="35.0" r="1.0"/>
     <text stroke="none" x="310.0" y="35.0" font-size="10.0" font-family="helvetica">NT1.24</text>
    </g>
    <g>
     <circle stroke="black" stroke-width="0.5" fill="#aaffff" cx="313.0" cy="426.0" r="1.0"/>
     <text stroke="none" x="313.0" y="426.0" font-size="20.0" font-family="helvetica">Flavobacterium aquatile ATCC 11947T (M62797)</text>
    </g>
    <g>
     <circle stroke="black" stroke-width="0.5" fill="#aaffff" cx="321.0" cy="183.0" r="1.0"/>
     <text stroke="none" x="321.0" y="183.0" font-size="20.0" font-family="helvetica">99</text>
    </g>
    <g>
     <circle stroke="black" stroke-width="0.5" fill="#aaffff" cx="325.0" cy="500.0" r="1.0"/>
     <text stroke="none" x="325.0" y="500.0" font-size="20.0" font-family="helvetica">Flavobacterium cucumis R2A45-3T(EF126993)</text>
    </g>
    <g>
     <circle stroke="black" stroke-width="0.5" fill="#aaffff" cx="327.0" cy="575.0" r="1.0"/>
     <text stroke="none" x="327.0" y="575.0" font-size="20.0" font-family="helvetica">Flavobacterium ceti 454-2T (AM292800)</text>
    </g>
    <g>
     <circle stroke="black" stroke-width="0.5" fill="#aaffff" cx="330.0" cy="203.0" r="1.0"/>
     <text stroke="none" x="330.0" y="203.0" font-size="20.0" font-family="helvetica">Flavobacterium frigoris LMG 21922T (AJ557887)</text>
    </g>
    <g>
     <circle stroke="black" stroke-width="0.5" fill="#aaffff" cx="336.0" cy="352.0" r="1.0"/>
     <text stroke="none" x="336.0" y="352.0" font-size="20.0" font-family="helvetica">Flavobacterium gelidilacus LMG 21477T (AJ440996)</text>
    </g>
    <g>
     <circle stroke="black" stroke-width="0.5" fill="#aaffff" cx="339.0" cy="16.0" r="1.0"/>
     <text stroke="none" x="339.0" y="16.0" font-size="20.0" font-family="helvetica"/>
    </g>
    <g>
     <circle stroke="black" stroke-width="0.5" fill="#aaffff" cx="340.0" cy="53.0" r="1.0"/>
     <text stroke="none" x="340.0" y="53.0" font-size="20.0" font-family="helvetica">Flavobacterium aquidurense WB 1.1 -56T (AM1 77392)</text>
    </g>
    <g>
     <circle stroke="black" stroke-width="0.5" fill="#aaffff" cx="340.0" cy="463.0" r="1.0"/>
     <text stroke="none" x="340.0" y="463.0" font-size="20.0" font-family="helvetica">Flavobacterium terrae R2A1-13T(EF117329)</text>
    </g>
    <g>
     <circle stroke="black" stroke-width="0.5" fill="#aaffff" cx="342.0" cy="277.0" r="1.0"/>
     <text stroke="none" x="342.0" y="277.0" font-size="20.0" font-family="helvetica">Flavobacterium defluvii EMB1 17T (DQ372986)</text>
    </g>
    <g>
     <circle stroke="black" stroke-width="0.5" fill="#aaffff" cx="343.0" cy="91.0" r="1.0"/>
     <text stroke="none" x="343.0" y="91.0" font-size="20.0" font-family="helvetica"/>
    </g>
    <g>
     <circle stroke="black" stroke-width="0.5" fill="#aaffff" cx="343.0" cy="128.0" r="1.0"/>
     <text stroke="none" x="343.0" y="128.0" font-size="20.0" font-family="helvetica">Flavobacterium weaverense AT1042T (AY581 1 14)</text>
    </g>
    <g>
     <circle stroke="black" stroke-width="0.5" fill="#aaffff" cx="343.0" cy="388.0" r="1.0"/>
     <text stroke="none" x="343.0" y="388.0" font-size="20.0" font-family="helvetica">Flavobacterium filum EMB34T (DQ372981)</text>
    </g>
    <g>
     <circle stroke="black" stroke-width="0.5" fill="#aaffff" cx="344.0" cy="314.0" r="1.0"/>
     <text stroke="none" x="344.0" y="314.0" font-size="20.0" font-family="helvetica">Flavobacterium johnsoniae ATCC 1 7061 T (M59051)</text>
    </g>
    <g>
     <circle stroke="black" stroke-width="0.5" fill="#aaffff" cx="348.0" cy="165.0" r="1.0"/>
     <text stroke="none" x="348.0" y="165.0" font-size="20.0" font-family="helvetica">Flavobacterium degerlachei LMG 21915T (AJ557886)</text>
    </g>
    <g>
     <circle stroke="black" stroke-width="0.5" fill="#aaffff" cx="348.0" cy="239.0" r="1.0"/>
     <text stroke="none" x="348.0" y="239.0" font-size="20.0" font-family="helvetica">Flavobacterium daejeonense GH1 -1 OT (DO22242 7)</text>
    </g>
    <g>
     <circle stroke="black" stroke-width="0.5" fill="#aaffff" cx="377.0" cy="538.0" r="1.0"/>
     <text stroke="none" x="377.0" y="538.0" font-size="20.0" font-family="helvetica">Flavobacterium indicum GPTSA10O-9T (AY904351)</text>
    </g>
    <g>
     <circle stroke="black" stroke-width="0.5" fill="#aaffff" cx="377.0" cy="799.0" r="1.0"/>
     <text stroke="none" x="377.0" y="799.0" font-size="20.0" font-family="helvetica">Chryseobacterium koreense Chj707T (AF344179)</text>
    </g>
    <line stroke="black" x1="340.0" y1="53.0" x2="310.0" y2="35.0" stroke-width="0.5"/>
    <line stroke="black" x1="343.0" y1="91.0" x2="296.0" y2="63.0" stroke-width="0.5"/>
    <line stroke="black" x1="330.0" y1="203.0" x2="321.0" y2="183.0" stroke-width="0.5"/>
    <line stroke="black" x1="348.0" y1="239.0" x2="283.0" y2="267.0" stroke-width="0.5"/>
    <line stroke="black" x1="344.0" y1="314.0" x2="304.0" y2="295.0" stroke-width="0.5"/>
    <line stroke="black" x1="336.0" y1="352.0" x2="229.0" y2="278.0" stroke-width="0.5"/>
    <line stroke="black" x1="343.0" y1="388.0" x2="214.0" y2="423.0" stroke-width="0.5"/>
    <line stroke="black" x1="325.0" y1="500.0" x2="253.0" y2="519.0" stroke-width="0.5"/>
    <line stroke="black" x1="340.0" y1="463.0" x2="233.0" y2="491.0" stroke-width="0.5"/>
    <line stroke="black" x1="377.0" y1="538.0" x2="253.0" y2="519.0" stroke-width="0.5"/>
    <line stroke="black" x1="327.0" y1="575.0" x2="184.0" y2="463.0" stroke-width="0.5"/>
    <line stroke="black" x1="281.0" y1="613.0" x2="174.0" y2="538.0" stroke-width="0.5"/>
    <line stroke="black" x1="275.0" y1="724.0" x2="265.0" y2="705.0" stroke-width="0.5"/>
    <line stroke="black" x1="276.0" y1="686.0" x2="265.0" y2="705.0" stroke-width="0.5"/>
    <line stroke="black" x1="298.0" y1="649.0" x2="193.0" y2="677.0" stroke-width="0.5"/>
    <line stroke="black" x1="255.0" y1="761.0" x2="28.0" y2="779.0" stroke-width="0.5"/>
    <line stroke="black" x1="377.0" y1="799.0" x2="28.0" y2="779.0" stroke-width="0.5"/>
    <line stroke="black" x1="310.0" y1="35.0" x2="296.0" y2="63.0" stroke-width="0.5"/>
    <line stroke="black" x1="296.0" y1="63.0" x2="280.0" y2="96.0" stroke-width="0.5"/>
    <line stroke="black" x1="280.0" y1="96.0" x2="275.0" y2="140.0" stroke-width="0.5"/>
    <line stroke="black" x1="275.0" y1="140.0" x2="261.0" y2="203.0" stroke-width="0.5"/>
    <line stroke="black" x1="275.0" y1="140.0" x2="321.0" y2="183.0" stroke-width="0.5"/>
    <line stroke="black" x1="261.0" y1="203.0" x2="229.0" y2="278.0" stroke-width="0.5"/>
    <line stroke="black" x1="261.0" y1="203.0" x2="283.0" y2="267.0" stroke-width="0.5"/>
    <line stroke="black" x1="283.0" y1="267.0" x2="304.0" y2="295.0" stroke-width="0.5"/>
    <line stroke="black" x1="229.0" y1="278.0" x2="208.0" y2="351.0" stroke-width="0.5"/>
    <line stroke="black" x1="208.0" y1="351.0" x2="184.0" y2="463.0" stroke-width="0.5"/>
    <line stroke="black" x1="208.0" y1="351.0" x2="214.0" y2="423.0" stroke-width="0.5"/>
    <line stroke="black" x1="214.0" y1="423.0" x2="229.0" y2="458.0" stroke-width="0.5"/>
    <line stroke="black" x1="229.0" y1="458.0" x2="233.0" y2="491.0" stroke-width="0.5"/>
    <line stroke="black" x1="184.0" y1="463.0" x2="174.0" y2="538.0" stroke-width="0.5"/>
    <line stroke="black" x1="233.0" y1="491.0" x2="253.0" y2="519.0" stroke-width="0.5"/>
    <line stroke="black" x1="174.0" y1="538.0" x2="113.0" y2="608.0" stroke-width="0.5"/>
    <line stroke="black" x1="113.0" y1="608.0" x2="193.0" y2="677.0" stroke-width="0.5"/>
    <line stroke="black" x1="193.0" y1="677.0" x2="265.0" y2="705.0" stroke-width="0.5"/>
    <line stroke="black" x1="113.0" y1="608.0" x2="28.0" y2="779.0" stroke-width="0.5"/>
    <line stroke="black" x1="313.0" y1="426.0" x2="229.0" y2="458.0" stroke-width="0.5"/>
    <line stroke="black" x1="343.0" y1="128.0" x2="280.0" y2="96.0" stroke-width="0.5"/>
    <line stroke="black" x1="342.0" y1="277.0" x2="304.0" y2="295.0" stroke-width="0.5"/>
    <line stroke="black" x1="339.0" y1="16.0" x2="310.0" y2="35.0" stroke-width="0.5"/>
    <line stroke="black" x1="348.0" y1="165.0" x2="321.0" y2="183.0" stroke-width="0.5"/>
   </g>
  </g>
 </svg>
</svg>
