<?xml version="1.0" encoding="UTF-8"?>
<svg height="800.0" width="700.0" xmlns="http://www.w3.org/2000/svg">
 <svg>
  <g>
   <g>
    <g>
     <circle stroke="black" stroke-width="0.5" fill="#aaffff" cx="46.0" cy="2087.0" r="1.0"/>
     <text stroke="none" x="46.0" y="2087.0" font-size="10.0" font-family="helvetica">NT1.1</text>
    </g>
    <g>
     <circle stroke="black" stroke-width="0.5" fill="#aaffff" cx="120.0" cy="1799.0" r="1.0"/>
     <text stroke="none" x="120.0" y="1799.0" font-size="10.0" font-family="helvetica">NT1.2</text>
    </g>
    <g>
     <circle stroke="black" stroke-width="0.5" fill="#aaffff" cx="137.0" cy="1577.0" r="1.0"/>
     <text stroke="none" x="137.0" y="1577.0" font-size="10.0" font-family="helvetica">NT1.3</text>
    </g>
    <g>
     <circle stroke="black" stroke-width="0.5" fill="#aaffff" cx="145.0" cy="2019.0" r="1.0"/>
     <text stroke="none" x="145.0" y="2019.0" font-size="10.0" font-family="helvetica">NT1.4</text>
    </g>
    <g>
     <circle stroke="black" stroke-width="0.5" fill="#aaffff" cx="146.0" cy="1927.0" r="1.0"/>
     <text stroke="none" x="146.0" y="1927.0" font-size="20.0" font-family="helvetica">W291</text>
    </g>
    <g>
     <circle stroke="black" stroke-width="0.5" fill="#aaffff" cx="152.0" cy="1274.0" r="1.0"/>
     <text stroke="none" x="152.0" y="1274.0" font-size="10.0" font-family="helvetica">NT1.6</text>
    </g>
    <g>
     <circle stroke="black" stroke-width="0.5" fill="#aaffff" cx="165.0" cy="2111.0" r="1.0"/>
     <text stroke="none" x="165.0" y="2111.0" font-size="10.0" font-family="helvetica">NT1.7</text>
    </g>
    <g>
     <circle stroke="black" stroke-width="0.5" fill="#aaffff" cx="174.0" cy="978.0" r="1.0"/>
     <text stroke="none" x="174.0" y="978.0" font-size="10.0" font-family="helvetica">NT1.8</text>
    </g>
    <g>
     <circle stroke="black" stroke-width="0.5" fill="#aaffff" cx="175.0" cy="1743.0" r="1.0"/>
     <text stroke="none" x="175.0" y="1743.0" font-size="10.0" font-family="helvetica">NT1.9</text>
    </g>
    <g>
     <circle stroke="black" stroke-width="0.5" fill="#aaffff" cx="176.0" cy="9.0" r="1.0"/>
     <text stroke="none" x="176.0" y="9.0" font-size="20.0" font-family="helvetica">AHN8999</text>
    </g>
    <g>
     <circle stroke="black" stroke-width="0.5" fill="#aaffff" cx="177.0" cy="2182.0" r="1.0"/>
     <text stroke="none" x="177.0" y="2182.0" font-size="10.0" font-family="helvetica">NT1.11</text>
    </g>
    <g>
     <circle stroke="black" stroke-width="0.5" fill="#aaffff" cx="178.0" cy="2150.0" r="1.0"/>
     <text stroke="none" x="178.0" y="2150.0" font-size="20.0" font-family="helvetica">W250</text>
    </g>
    <g>
     <circle stroke="black" stroke-width="0.5" fill="#aaffff" cx="183.0" cy="186.0" r="1.0"/>
     <text stroke="none" x="183.0" y="186.0" font-size="10.0" font-family="helvetica">NT1.13</text>
    </g>
    <g>
     <circle stroke="black" stroke-width="0.5" fill="#aaffff" cx="183.0" cy="1783.0" r="1.0"/>
     <text stroke="none" x="183.0" y="1783.0" font-size="10.0" font-family="helvetica">NT1.14</text>
    </g>
    <g>
     <circle stroke="black" stroke-width="0.5" fill="#aaffff" cx="184.0" cy="1704.0" r="1.0"/>
     <text stroke="none" x="184.0" y="1704.0" font-size="20.0" font-family="helvetica">W1501</text>
    </g>
    <g>
     <circle stroke="black" stroke-width="0.5" fill="#aaffff" cx="188.0" cy="1673.0" r="1.0"/>
     <text stroke="none" x="188.0" y="1673.0" font-size="20.0" font-family="helvetica">779-6</text>
    </g>
    <g>
     <circle stroke="black" stroke-width="0.5" fill="#aaffff" cx="188.0" cy="1502.0" r="1.0"/>
     <text stroke="none" x="188.0" y="1502.0" font-size="10.0" font-family="helvetica">NT1.17</text>
    </g>
    <g>
     <circle stroke="black" stroke-width="0.5" fill="#aaffff" cx="190.0" cy="2214.0" r="1.0"/>
     <text stroke="none" x="190.0" y="2214.0" font-size="10.0" font-family="helvetica">NT1.18</text>
    </g>
    <g>
     <circle stroke="black" stroke-width="0.5" fill="#aaffff" cx="191.0" cy="2182.0" r="1.0"/>
     <text stroke="none" x="191.0" y="2182.0" font-size="20.0" font-family="helvetica">AHNB71O</text>
    </g>
    <g>
     <circle stroke="black" stroke-width="0.5" fill="#aaffff" cx="196.0" cy="1815.0" r="1.0"/>
     <text stroke="none" x="196.0" y="1815.0" font-size="10.0" font-family="helvetica">NT1.20</text>
    </g>
    <g>
     <circle stroke="black" stroke-width="0.5" fill="#aaffff" cx="196.0" cy="2040.0" r="1.0"/>
     <text stroke="none" x="196.0" y="2040.0" font-size="10.0" font-family="helvetica">NT1.21</text>
    </g>
    <g>
     <circle stroke="black" stroke-width="0.5" fill="#aaffff" cx="201.0" cy="1832.0" r="1.0"/>
     <text stroke="none" x="201.0" y="1832.0" font-size="20.0" font-family="helvetica">W1511</text>
    </g>
    <g>
     <circle stroke="black" stroke-width="0.5" fill="#aaffff" cx="204.0" cy="2001.0" r="1.0"/>
     <text stroke="none" x="204.0" y="2001.0" font-size="10.0" font-family="helvetica">NT1.23</text>
    </g>
    <g>
     <circle stroke="black" stroke-width="0.5" fill="#aaffff" cx="208.0" cy="2079.0" r="1.0"/>
     <text stroke="none" x="208.0" y="2079.0" font-size="10.0" font-family="helvetica">NT1.24</text>
    </g>
    <g>
     <circle stroke="black" stroke-width="0.5" fill="#aaffff" cx="209.0" cy="2246.0" r="1.0"/>
     <text stroke="none" x="209.0" y="2246.0" font-size="10.0" font-family="helvetica">NT1.25</text>
    </g>
    <g>
     <circle stroke="black" stroke-width="0.5" fill="#aaffff" cx="210.0" cy="2215.0" r="1.0"/>
     <text stroke="none" x="210.0" y="2215.0" font-size="20.0" font-family="helvetica">AHN8750</text>
    </g>
    <g>
     <circle stroke="black" stroke-width="0.5" fill="#aaffff" cx="210.0" cy="1334.0" r="1.0"/>
     <text stroke="none" x="210.0" y="1334.0" font-size="10.0" font-family="helvetica">NT1.27</text>
    </g>
    <g>
     <circle stroke="black" stroke-width="0.5" fill="#aaffff" cx="211.0" cy="1642.0" r="1.0"/>
     <text stroke="none" x="211.0" y="1642.0" font-size="20.0" font-family="helvetica">AHN10289</text>
    </g>
    <g>
     <circle stroke="black" stroke-width="0.5" fill="#aaffff" cx="211.0" cy="2102.0" r="1.0"/>
     <text stroke="none" x="211.0" y="2102.0" font-size="10.0" font-family="helvetica">NT1.29</text>
    </g>
    <g>
     <circle stroke="black" stroke-width="0.5" fill="#aaffff" cx="212.0" cy="1959.0" r="1.0"/>
     <text stroke="none" x="212.0" y="1959.0" font-size="20.0" font-family="helvetica">W284</text>
    </g>
    <g>
     <circle stroke="black" stroke-width="0.5" fill="#aaffff" cx="212.0" cy="2120.0" r="1.0"/>
     <text stroke="none" x="212.0" y="2120.0" font-size="20.0" font-family="helvetica">AHN9831</text>
    </g>
    <g>
     <circle stroke="black" stroke-width="0.5" fill="#aaffff" cx="212.0" cy="132.0" r="1.0"/>
     <text stroke="none" x="212.0" y="132.0" font-size="10.0" font-family="helvetica">NT1.32</text>
    </g>
    <g>
     <circle stroke="black" stroke-width="0.5" fill="#aaffff" cx="212.0" cy="1977.0" r="1.0"/>
     <text stroke="none" x="212.0" y="1977.0" font-size="10.0" font-family="helvetica">NT1.33</text>
    </g>
    <g>
     <circle stroke="black" stroke-width="0.5" fill="#aaffff" cx="215.0" cy="2056.0" r="1.0"/>
     <text stroke="none" x="215.0" y="2056.0" font-size="20.0" font-family="helvetica">X25</text>
    </g>
    <g>
     <circle stroke="black" stroke-width="0.5" fill="#aaffff" cx="217.0" cy="1769.0" r="1.0"/>
     <text stroke="none" x="217.0" y="1769.0" font-size="20.0" font-family="helvetica">AHN9996</text>
    </g>
    <g>
     <circle stroke="black" stroke-width="0.5" fill="#aaffff" cx="217.0" cy="1753.0" r="1.0"/>
     <text stroke="none" x="217.0" y="1753.0" font-size="10.0" font-family="helvetica">NT1.36</text>
    </g>
    <g>
     <circle stroke="black" stroke-width="0.5" fill="#aaffff" cx="218.0" cy="1735.0" r="1.0"/>
     <text stroke="none" x="218.0" y="1735.0" font-size="20.0" font-family="helvetica">AHN10043</text>
    </g>
    <g>
     <circle stroke="black" stroke-width="0.5" fill="#aaffff" cx="219.0" cy="2088.0" r="1.0"/>
     <text stroke="none" x="219.0" y="2088.0" font-size="20.0" font-family="helvetica">AHN9830</text>
    </g>
    <g>
     <circle stroke="black" stroke-width="0.5" fill="#aaffff" cx="221.0" cy="2275.0" r="1.0"/>
     <text stroke="none" x="221.0" y="2275.0" font-size="10.0" font-family="helvetica">NT1.39</text>
    </g>
    <g>
     <circle stroke="black" stroke-width="0.5" fill="#aaffff" cx="222.0" cy="1879.0" r="1.0"/>
     <text stroke="none" x="222.0" y="1879.0" font-size="10.0" font-family="helvetica">NT1.40</text>
    </g>
    <g>
     <circle stroke="black" stroke-width="0.5" fill="#aaffff" cx="223.0" cy="1863.0" r="1.0"/>
     <text stroke="none" x="223.0" y="1863.0" font-size="20.0" font-family="helvetica">AHN10044</text>
    </g>
    <g>
     <circle stroke="black" stroke-width="0.5" fill="#aaffff" cx="223.0" cy="1118.0" r="1.0"/>
     <text stroke="none" x="223.0" y="1118.0" font-size="10.0" font-family="helvetica">NT1.42</text>
    </g>
    <g>
     <circle stroke="black" stroke-width="0.5" fill="#aaffff" cx="229.0" cy="170.0" r="1.0"/>
     <text stroke="none" x="229.0" y="170.0" font-size="20.0" font-family="helvetica">AHN9788</text>
    </g>
    <g>
     <circle stroke="black" stroke-width="0.5" fill="#aaffff" cx="229.0" cy="2302.0" r="1.0"/>
     <text stroke="none" x="229.0" y="2302.0" font-size="10.0" font-family="helvetica">NT1.44</text>
    </g>
    <g>
     <circle stroke="black" stroke-width="0.5" fill="#aaffff" cx="231.0" cy="1259.0" r="1.0"/>
     <text stroke="none" x="231.0" y="1259.0" font-size="10.0" font-family="helvetica">NT1.45</text>
    </g>
    <g>
     <circle stroke="black" stroke-width="0.5" fill="#aaffff" cx="235.0" cy="2024.0" r="1.0"/>
     <text stroke="none" x="235.0" y="2024.0" font-size="20.0" font-family="helvetica">966-8</text>
    </g>
    <g>
     <circle stroke="black" stroke-width="0.5" fill="#aaffff" cx="235.0" cy="110.0" r="1.0"/>
     <text stroke="none" x="235.0" y="110.0" font-size="10.0" font-family="helvetica">NT1.47</text>
    </g>
    <g>
     <circle stroke="black" stroke-width="0.5" fill="#aaffff" cx="236.0" cy="138.0" r="1.0"/>
     <text stroke="none" x="236.0" y="138.0" font-size="20.0" font-family="helvetica">AHN10065</text>
    </g>
    <g>
     <circle stroke="black" stroke-width="0.5" fill="#aaffff" cx="239.0" cy="1319.0" r="1.0"/>
     <text stroke="none" x="239.0" y="1319.0" font-size="20.0" font-family="helvetica">W330</text>
    </g>
    <g>
     <circle stroke="black" stroke-width="0.5" fill="#aaffff" cx="239.0" cy="1272.0" r="1.0"/>
     <text stroke="none" x="239.0" y="1272.0" font-size="10.0" font-family="helvetica">NT1.50</text>
    </g>
    <g>
     <circle stroke="black" stroke-width="0.5" fill="#aaffff" cx="239.0" cy="1359.0" r="1.0"/>
     <text stroke="none" x="239.0" y="1359.0" font-size="10.0" font-family="helvetica">NT1.51</text>
    </g>
    <g>
     <circle stroke="black" stroke-width="0.5" fill="#aaffff" cx="240.0" cy="2279.0" r="1.0"/>
     <text stroke="none" x="240.0" y="2279.0" font-size="20.0" font-family="helvetica">ccue 9718T</text>
    </g>
    <g>
     <circle stroke="black" stroke-width="0.5" fill="#aaffff" cx="240.0" cy="2327.0" r="1.0"/>
     <text stroke="none" x="240.0" y="2327.0" font-size="10.0" font-family="helvetica">NT1.53</text>
    </g>
    <g>
     <circle stroke="black" stroke-width="0.5" fill="#aaffff" cx="241.0" cy="2247.0" r="1.0"/>
     <text stroke="none" x="241.0" y="2247.0" font-size="20.0" font-family="helvetica">vv2e9</text>
    </g>
    <g>
     <circle stroke="black" stroke-width="0.5" fill="#aaffff" cx="241.0" cy="2310.0" r="1.0"/>
     <text stroke="none" x="241.0" y="2310.0" font-size="20.0" font-family="helvetica">AHN8714</text>
    </g>
    <g>
     <circle stroke="black" stroke-width="0.5" fill="#aaffff" cx="241.0" cy="59.0" r="1.0"/>
     <text stroke="none" x="241.0" y="59.0" font-size="10.0" font-family="helvetica">NT1.56</text>
    </g>
    <g>
     <circle stroke="black" stroke-width="0.5" fill="#aaffff" cx="242.0" cy="74.0" r="1.0"/>
     <text stroke="none" x="242.0" y="74.0" font-size="20.0" font-family="helvetica">AHN8557</text>
    </g>
    <g>
     <circle stroke="black" stroke-width="0.5" fill="#aaffff" cx="242.0" cy="41.0" r="1.0"/>
     <text stroke="none" x="242.0" y="41.0" font-size="20.0" font-family="helvetica">AHN8472</text>
    </g>
    <g>
     <circle stroke="black" stroke-width="0.5" fill="#aaffff" cx="243.0" cy="1992.0" r="1.0"/>
     <text stroke="none" x="243.0" y="1992.0" font-size="20.0" font-family="helvetica">VV286</text>
    </g>
    <g>
     <circle stroke="black" stroke-width="0.5" fill="#aaffff" cx="245.0" cy="1256.0" r="1.0"/>
     <text stroke="none" x="245.0" y="1256.0" font-size="20.0" font-family="helvetica">AHN9687</text>
    </g>
    <g>
     <circle stroke="black" stroke-width="0.5" fill="#aaffff" cx="246.0" cy="1896.0" r="1.0"/>
     <text stroke="none" x="246.0" y="1896.0" font-size="20.0" font-family="helvetica">AHN9756</text>
    </g>
    <g>
     <circle stroke="black" stroke-width="0.5" fill="#aaffff" cx="249.0" cy="1202.0" r="1.0"/>
     <text stroke="none" x="249.0" y="1202.0" font-size="10.0" font-family="helvetica">NT1.62</text>
    </g>
    <g>
     <circle stroke="black" stroke-width="0.5" fill="#aaffff" cx="250.0" cy="1226.0" r="1.0"/>
     <text stroke="none" x="250.0" y="1226.0" font-size="20.0" font-family="helvetica">W142</text>
    </g>
    <g>
     <circle stroke="black" stroke-width="0.5" fill="#aaffff" cx="251.0" cy="1351.0" r="1.0"/>
     <text stroke="none" x="251.0" y="1351.0" font-size="20.0" font-family="helvetica">793.5</text>
    </g>
    <g>
     <circle stroke="black" stroke-width="0.5" fill="#aaffff" cx="251.0" cy="1391.0" r="1.0"/>
     <text stroke="none" x="251.0" y="1391.0" font-size="10.0" font-family="helvetica">NT1.65</text>
    </g>
    <g>
     <circle stroke="black" stroke-width="0.5" fill="#aaffff" cx="253.0" cy="1609.0" r="1.0"/>
     <text stroke="none" x="253.0" y="1609.0" font-size="20.0" font-family="helvetica">W1495</text>
    </g>
    <g>
     <circle stroke="black" stroke-width="0.5" fill="#aaffff" cx="255.0" cy="1288.0" r="1.0"/>
     <text stroke="none" x="255.0" y="1288.0" font-size="20.0" font-family="helvetica">AHN9802</text>
    </g>
    <g>
     <circle stroke="black" stroke-width="0.5" fill="#aaffff" cx="260.0" cy="2344.0" r="1.0"/>
     <text stroke="none" x="260.0" y="2344.0" font-size="20.0" font-family="helvetica">W324</text>
    </g>
    <g>
     <circle stroke="black" stroke-width="0.5" fill="#aaffff" cx="288.0" cy="1160.0" r="1.0"/>
     <text stroke="none" x="288.0" y="1160.0" font-size="20.0" font-family="helvetica">E43</text>
    </g>
    <g>
     <circle stroke="black" stroke-width="0.5" fill="#aaffff" cx="288.0" cy="1176.0" r="1.0"/>
     <text stroke="none" x="288.0" y="1176.0" font-size="10.0" font-family="helvetica">NT1.70</text>
    </g>
    <g>
     <circle stroke="black" stroke-width="0.5" fill="#aaffff" cx="314.0" cy="232.0" r="1.0"/>
     <text stroke="none" x="314.0" y="232.0" font-size="10.0" font-family="helvetica">NT1.71</text>
    </g>
    <g>
     <circle stroke="black" stroke-width="0.5" fill="#aaffff" cx="315.0" cy="201.0" r="1.0"/>
     <text stroke="none" x="315.0" y="201.0" font-size="20.0" font-family="helvetica">W309</text>
    </g>
    <g>
     <circle stroke="black" stroke-width="0.5" fill="#aaffff" cx="317.0" cy="1800.0" r="1.0"/>
     <text stroke="none" x="317.0" y="1800.0" font-size="20.0" font-family="helvetica">AHN9544</text>
    </g>
    <g>
     <circle stroke="black" stroke-width="0.5" fill="#aaffff" cx="343.0" cy="2375.0" r="1.0"/>
     <text stroke="none" x="343.0" y="2375.0" font-size="20.0" font-family="helvetica">A0404T</text>
    </g>
    <g>
     <circle stroke="black" stroke-width="0.5" fill="#aaffff" cx="344.0" cy="861.0" r="1.0"/>
     <text stroke="none" x="344.0" y="861.0" font-size="10.0" font-family="helvetica">NT1.75</text>
    </g>
    <g>
     <circle stroke="black" stroke-width="0.5" fill="#aaffff" cx="345.0" cy="2439.0" r="1.0"/>
     <text stroke="none" x="345.0" y="2439.0" font-size="10.0" font-family="helvetica">NT1.76</text>
    </g>
    <g>
     <circle stroke="black" stroke-width="0.5" fill="#aaffff" cx="348.0" cy="1193.0" r="1.0"/>
     <text stroke="none" x="348.0" y="1193.0" font-size="20.0" font-family="helvetica">ccue 15407</text>
    </g>
    <g>
     <circle stroke="black" stroke-width="0.5" fill="#aaffff" cx="405.0" cy="2537.0" r="1.0"/>
     <text stroke="none" x="405.0" y="2537.0" font-size="20.0" font-family="helvetica">54</text>
    </g>
    <g>
     <circle stroke="black" stroke-width="0.5" fill="#aaffff" cx="417.0" cy="264.0" r="1.0"/>
     <text stroke="none" x="417.0" y="264.0" font-size="10.0" font-family="helvetica">NT1.79</text>
    </g>
    <g>
     <circle stroke="black" stroke-width="0.5" fill="#aaffff" cx="418.0" cy="232.0" r="1.0"/>
     <text stroke="none" x="418.0" y="232.0" font-size="20.0" font-family="helvetica">AHN8751</text>
    </g>
    <g>
     <circle stroke="black" stroke-width="0.5" fill="#aaffff" cx="422.0" cy="377.0" r="1.0"/>
     <text stroke="none" x="422.0" y="377.0" font-size="20.0" font-family="helvetica"/>
    </g>
    <g>
     <circle stroke="black" stroke-width="0.5" fill="#aaffff" cx="435.0" cy="755.0" r="1.0"/>
     <text stroke="none" x="435.0" y="755.0" font-size="10.0" font-family="helvetica">NT1.82</text>
    </g>
    <g>
     <circle stroke="black" stroke-width="0.5" fill="#aaffff" cx="441.0" cy="693.0" r="1.0"/>
     <text stroke="none" x="441.0" y="693.0" font-size="10.0" font-family="helvetica">NT1.83</text>
    </g>
    <g>
     <circle stroke="black" stroke-width="0.5" fill="#aaffff" cx="442.0" cy="746.0" r="1.0"/>
     <text stroke="none" x="442.0" y="746.0" font-size="20.0" font-family="helvetica">907-8</text>
    </g>
    <g>
     <circle stroke="black" stroke-width="0.5" fill="#aaffff" cx="443.0" cy="2617.0" r="1.0"/>
     <text stroke="none" x="443.0" y="2617.0" font-size="10.0" font-family="helvetica">NT1.85</text>
    </g>
    <g>
     <circle stroke="black" stroke-width="0.5" fill="#aaffff" cx="446.0" cy="648.0" r="1.0"/>
     <text stroke="none" x="446.0" y="648.0" font-size="10.0" font-family="helvetica">NT1.86</text>
    </g>
    <g>
     <circle stroke="black" stroke-width="0.5" fill="#aaffff" cx="447.0" cy="425.0" r="1.0"/>
     <text stroke="none" x="447.0" y="425.0" font-size="20.0" font-family="helvetica">AHN9763</text>
    </g>
    <g>
     <circle stroke="black" stroke-width="0.5" fill="#aaffff" cx="448.0" cy="649.0" r="1.0"/>
     <text stroke="none" x="448.0" y="649.0" font-size="20.0" font-family="helvetica">AHN8954</text>
    </g>
    <g>
     <circle stroke="black" stroke-width="0.5" fill="#aaffff" cx="450.0" cy="2573.0" r="1.0"/>
     <text stroke="none" x="450.0" y="2573.0" font-size="10.0" font-family="helvetica">NT1.89</text>
    </g>
    <g>
     <circle stroke="black" stroke-width="0.5" fill="#aaffff" cx="451.0" cy="808.0" r="1.0"/>
     <text stroke="none" x="451.0" y="808.0" font-size="20.0" font-family="helvetica">AHN9821</text>
    </g>
    <g>
     <circle stroke="black" stroke-width="0.5" fill="#aaffff" cx="451.0" cy="2601.0" r="1.0"/>
     <text stroke="none" x="451.0" y="2601.0" font-size="20.0" font-family="helvetica">W336</text>
    </g>
    <g>
     <circle stroke="black" stroke-width="0.5" fill="#aaffff" cx="457.0" cy="2456.0" r="1.0"/>
     <text stroke="none" x="457.0" y="2456.0" font-size="10.0" font-family="helvetica">NT1.92</text>
    </g>
    <g>
     <circle stroke="black" stroke-width="0.5" fill="#aaffff" cx="462.0" cy="2544.0" r="1.0"/>
     <text stroke="none" x="462.0" y="2544.0" font-size="10.0" font-family="helvetica">NT1.93</text>
    </g>
    <g>
     <circle stroke="black" stroke-width="0.5" fill="#aaffff" cx="468.0" cy="2472.0" r="1.0"/>
     <text stroke="none" x="468.0" y="2472.0" font-size="20.0" font-family="helvetica">x32</text>
    </g>
    <g>
     <circle stroke="black" stroke-width="0.5" fill="#aaffff" cx="469.0" cy="2439.0" r="1.0"/>
     <text stroke="none" x="469.0" y="2439.0" font-size="20.0" font-family="helvetica">W42</text>
    </g>
    <g>
     <circle stroke="black" stroke-width="0.5" fill="#aaffff" cx="483.0" cy="2502.0" r="1.0"/>
     <text stroke="none" x="483.0" y="2502.0" font-size="20.0" font-family="helvetica">ccue 9715T</text>
    </g>
    <g>
     <circle stroke="black" stroke-width="0.5" fill="#aaffff" cx="483.0" cy="2522.0" r="1.0"/>
     <text stroke="none" x="483.0" y="2522.0" font-size="10.0" font-family="helvetica">NT1.97</text>
    </g>
    <g>
     <circle stroke="black" stroke-width="0.5" fill="#aaffff" cx="484.0" cy="2568.0" r="1.0"/>
     <text stroke="none" x="484.0" y="2568.0" font-size="20.0" font-family="helvetica">892-8</text>
    </g>
    <g>
     <circle stroke="black" stroke-width="0.5" fill="#aaffff" cx="488.0" cy="2536.0" r="1.0"/>
     <text stroke="none" x="488.0" y="2536.0" font-size="20.0" font-family="helvetica">N40</text>
    </g>
    <g>
     <circle stroke="black" stroke-width="0.5" fill="#aaffff" cx="491.0" cy="2662.0" r="1.0"/>
     <text stroke="none" x="491.0" y="2662.0" font-size="10.0" font-family="helvetica">NT1.100</text>
    </g>
    <g>
     <circle stroke="black" stroke-width="0.5" fill="#aaffff" cx="499.0" cy="2691.0" r="1.0"/>
     <text stroke="none" x="499.0" y="2691.0" font-size="20.0" font-family="helvetica">81</text>
    </g>
    <g>
     <circle stroke="black" stroke-width="0.5" fill="#aaffff" cx="509.0" cy="2664.0" r="1.0"/>
     <text stroke="none" x="509.0" y="2664.0" font-size="20.0" font-family="helvetica">AHN9883</text>
    </g>
    <g>
     <circle stroke="black" stroke-width="0.5" fill="#aaffff" cx="510.0" cy="968.0" r="1.0"/>
     <text stroke="none" x="510.0" y="968.0" font-size="20.0" font-family="helvetica">AHN8730</text>
    </g>
    <g>
     <circle stroke="black" stroke-width="0.5" fill="#aaffff" cx="510.0" cy="999.0" r="1.0"/>
     <text stroke="none" x="510.0" y="999.0" font-size="10.0" font-family="helvetica">NT1.104</text>
    </g>
    <g>
     <circle stroke="black" stroke-width="0.5" fill="#aaffff" cx="510.0" cy="2719.0" r="1.0"/>
     <text stroke="none" x="510.0" y="2719.0" font-size="10.0" font-family="helvetica">NT1.105</text>
    </g>
    <g>
     <circle stroke="black" stroke-width="0.5" fill="#aaffff" cx="511.0" cy="2695.0" r="1.0"/>
     <text stroke="none" x="511.0" y="2695.0" font-size="20.0" font-family="helvetica">B0811T</text>
    </g>
    <g>
     <circle stroke="black" stroke-width="0.5" fill="#aaffff" cx="513.0" cy="1027.0" r="1.0"/>
     <text stroke="none" x="513.0" y="1027.0" font-size="10.0" font-family="helvetica">NT1.107</text>
    </g>
    <g>
     <circle stroke="black" stroke-width="0.5" fill="#aaffff" cx="514.0" cy="1000.0" r="1.0"/>
     <text stroke="none" x="514.0" y="1000.0" font-size="20.0" font-family="helvetica">AHN8708</text>
    </g>
    <g>
     <circle stroke="black" stroke-width="0.5" fill="#aaffff" cx="517.0" cy="2760.0" r="1.0"/>
     <text stroke="none" x="517.0" y="2760.0" font-size="20.0" font-family="helvetica">AHN10182</text>
    </g>
    <g>
     <circle stroke="black" stroke-width="0.5" fill="#aaffff" cx="518.0" cy="1032.0" r="1.0"/>
     <text stroke="none" x="518.0" y="1032.0" font-size="20.0" font-family="helvetica">AHN8725</text>
    </g>
    <g>
     <circle stroke="black" stroke-width="0.5" fill="#aaffff" cx="518.0" cy="1073.0" r="1.0"/>
     <text stroke="none" x="518.0" y="1073.0" font-size="10.0" font-family="helvetica">NT1.111</text>
    </g>
    <g>
     <circle stroke="black" stroke-width="0.5" fill="#aaffff" cx="523.0" cy="2632.0" r="1.0"/>
     <text stroke="none" x="523.0" y="2632.0" font-size="20.0" font-family="helvetica">W331</text>
    </g>
    <g>
     <circle stroke="black" stroke-width="0.5" fill="#aaffff" cx="536.0" cy="1097.0" r="1.0"/>
     <text stroke="none" x="536.0" y="1097.0" font-size="20.0" font-family="helvetica">AHNB996</text>
    </g>
    <g>
     <circle stroke="black" stroke-width="0.5" fill="#aaffff" cx="537.0" cy="1063.0" r="1.0"/>
     <text stroke="none" x="537.0" y="1063.0" font-size="20.0" font-family="helvetica">AHN8855</text>
    </g>
    <g>
     <circle stroke="black" stroke-width="0.5" fill="#aaffff" cx="539.0" cy="2407.0" r="1.0"/>
     <text stroke="none" x="539.0" y="2407.0" font-size="20.0" font-family="helvetica">AHN9647</text>
    </g>
    <line stroke="black" x1="176.0" y1="9.0" x2="183.0" y2="186.0" stroke-width="0.5"/>
    <line stroke="black" x1="229.0" y1="170.0" x2="212.0" y2="132.0" stroke-width="0.5"/>
    <line stroke="black" x1="236.0" y1="138.0" x2="235.0" y2="110.0" stroke-width="0.5"/>
    <line stroke="black" x1="242.0" y1="74.0" x2="241.0" y2="59.0" stroke-width="0.5"/>
    <line stroke="black" x1="315.0" y1="201.0" x2="314.0" y2="232.0" stroke-width="0.5"/>
    <line stroke="black" x1="418.0" y1="232.0" x2="417.0" y2="264.0" stroke-width="0.5"/>
    <line stroke="black" x1="188.0" y1="1673.0" x2="188.0" y2="1502.0" stroke-width="0.5"/>
    <line stroke="black" x1="217.0" y1="1769.0" x2="217.0" y2="1753.0" stroke-width="0.5"/>
    <line stroke="black" x1="218.0" y1="1735.0" x2="217.0" y2="1753.0" stroke-width="0.5"/>
    <line stroke="black" x1="223.0" y1="1863.0" x2="222.0" y2="1879.0" stroke-width="0.5"/>
    <line stroke="black" x1="211.0" y1="1642.0" x2="210.0" y2="1334.0" stroke-width="0.5"/>
    <line stroke="black" x1="146.0" y1="1927.0" x2="145.0" y2="2019.0" stroke-width="0.5"/>
    <line stroke="black" x1="245.0" y1="1256.0" x2="239.0" y2="1272.0" stroke-width="0.5"/>
    <line stroke="black" x1="178.0" y1="2150.0" x2="177.0" y2="2182.0" stroke-width="0.5"/>
    <line stroke="black" x1="191.0" y1="2182.0" x2="190.0" y2="2214.0" stroke-width="0.5"/>
    <line stroke="black" x1="250.0" y1="1226.0" x2="249.0" y2="1202.0" stroke-width="0.5"/>
    <line stroke="black" x1="212.0" y1="1959.0" x2="212.0" y2="1977.0" stroke-width="0.5"/>
    <line stroke="black" x1="212.0" y1="2120.0" x2="211.0" y2="2102.0" stroke-width="0.5"/>
    <line stroke="black" x1="210.0" y1="2215.0" x2="209.0" y2="2246.0" stroke-width="0.5"/>
    <line stroke="black" x1="235.0" y1="2024.0" x2="204.0" y2="2001.0" stroke-width="0.5"/>
    <line stroke="black" x1="239.0" y1="1319.0" x2="239.0" y2="1359.0" stroke-width="0.5"/>
    <line stroke="black" x1="288.0" y1="1160.0" x2="288.0" y2="1176.0" stroke-width="0.5"/>
    <line stroke="black" x1="243.0" y1="1992.0" x2="212.0" y2="1977.0" stroke-width="0.5"/>
    <line stroke="black" x1="241.0" y1="2247.0" x2="221.0" y2="2275.0" stroke-width="0.5"/>
    <line stroke="black" x1="240.0" y1="2279.0" x2="229.0" y2="2302.0" stroke-width="0.5"/>
    <line stroke="black" x1="251.0" y1="1351.0" x2="251.0" y2="1391.0" stroke-width="0.5"/>
    <line stroke="black" x1="348.0" y1="1193.0" x2="288.0" y2="1176.0" stroke-width="0.5"/>
    <line stroke="black" x1="241.0" y1="2310.0" x2="240.0" y2="2327.0" stroke-width="0.5"/>
    <line stroke="black" x1="448.0" y1="649.0" x2="446.0" y2="648.0" stroke-width="0.5"/>
    <line stroke="black" x1="442.0" y1="746.0" x2="441.0" y2="693.0" stroke-width="0.5"/>
    <line stroke="black" x1="510.0" y1="968.0" x2="510.0" y2="999.0" stroke-width="0.5"/>
    <line stroke="black" x1="514.0" y1="1000.0" x2="513.0" y2="1027.0" stroke-width="0.5"/>
    <line stroke="black" x1="518.0" y1="1032.0" x2="518.0" y2="1073.0" stroke-width="0.5"/>
    <line stroke="black" x1="536.0" y1="1097.0" x2="518.0" y2="1073.0" stroke-width="0.5"/>
    <line stroke="black" x1="343.0" y1="2375.0" x2="46.0" y2="2087.0" stroke-width="0.5"/>
    <line stroke="black" x1="539.0" y1="2407.0" x2="345.0" y2="2439.0" stroke-width="0.5"/>
    <line stroke="black" x1="451.0" y1="2601.0" x2="450.0" y2="2573.0" stroke-width="0.5"/>
    <line stroke="black" x1="483.0" y1="2502.0" x2="483.0" y2="2522.0" stroke-width="0.5"/>
    <line stroke="black" x1="509.0" y1="2664.0" x2="499.0" y2="2691.0" stroke-width="0.5"/>
    <line stroke="black" x1="511.0" y1="2695.0" x2="510.0" y2="2719.0" stroke-width="0.5"/>
    <line stroke="black" x1="183.0" y1="186.0" x2="174.0" y2="978.0" stroke-width="0.5"/>
    <line stroke="black" x1="183.0" y1="186.0" x2="212.0" y2="132.0" stroke-width="0.5"/>
    <line stroke="black" x1="183.0" y1="186.0" x2="314.0" y2="232.0" stroke-width="0.5"/>
    <line stroke="black" x1="212.0" y1="132.0" x2="235.0" y2="110.0" stroke-width="0.5"/>
    <line stroke="black" x1="235.0" y1="110.0" x2="241.0" y2="59.0" stroke-width="0.5"/>
    <line stroke="black" x1="314.0" y1="232.0" x2="417.0" y2="264.0" stroke-width="0.5"/>
    <line stroke="black" x1="417.0" y1="264.0" x2="422.0" y2="377.0" stroke-width="0.5"/>
    <line stroke="black" x1="174.0" y1="978.0" x2="152.0" y2="1274.0" stroke-width="0.5"/>
    <line stroke="black" x1="174.0" y1="978.0" x2="188.0" y2="1502.0" stroke-width="0.5"/>
    <line stroke="black" x1="152.0" y1="1274.0" x2="137.0" y2="1577.0" stroke-width="0.5"/>
    <line stroke="black" x1="152.0" y1="1274.0" x2="175.0" y2="1743.0" stroke-width="0.5"/>
    <line stroke="black" x1="188.0" y1="1502.0" x2="210.0" y2="1334.0" stroke-width="0.5"/>
    <line stroke="black" x1="137.0" y1="1577.0" x2="120.0" y2="1799.0" stroke-width="0.5"/>
    <line stroke="black" x1="137.0" y1="1577.0" x2="222.0" y2="1879.0" stroke-width="0.5"/>
    <line stroke="black" x1="210.0" y1="1334.0" x2="223.0" y2="1118.0" stroke-width="0.5"/>
    <line stroke="black" x1="175.0" y1="1743.0" x2="183.0" y2="1783.0" stroke-width="0.5"/>
    <line stroke="black" x1="183.0" y1="1783.0" x2="196.0" y2="1815.0" stroke-width="0.5"/>
    <line stroke="black" x1="183.0" y1="1783.0" x2="217.0" y2="1753.0" stroke-width="0.5"/>
    <line stroke="black" x1="120.0" y1="1799.0" x2="46.0" y2="2087.0" stroke-width="0.5"/>
    <line stroke="black" x1="120.0" y1="1799.0" x2="145.0" y2="2019.0" stroke-width="0.5"/>
    <line stroke="black" x1="223.0" y1="1118.0" x2="344.0" y2="861.0" stroke-width="0.5"/>
    <line stroke="black" x1="223.0" y1="1118.0" x2="223.0" y2="1118.0" stroke-width="0.5"/>
    <line stroke="black" x1="223.0" y1="1118.0" x2="231.0" y2="1259.0" stroke-width="0.5"/>
    <line stroke="black" x1="145.0" y1="2019.0" x2="165.0" y2="2111.0" stroke-width="0.5"/>
    <line stroke="black" x1="165.0" y1="2111.0" x2="177.0" y2="2182.0" stroke-width="0.5"/>
    <line stroke="black" x1="165.0" y1="2111.0" x2="196.0" y2="2040.0" stroke-width="0.5"/>
    <line stroke="black" x1="231.0" y1="1259.0" x2="239.0" y2="1272.0" stroke-width="0.5"/>
    <line stroke="black" x1="231.0" y1="1259.0" x2="249.0" y2="1202.0" stroke-width="0.5"/>
    <line stroke="black" x1="239.0" y1="1272.0" x2="239.0" y2="1359.0" stroke-width="0.5"/>
    <line stroke="black" x1="177.0" y1="2182.0" x2="190.0" y2="2214.0" stroke-width="0.5"/>
    <line stroke="black" x1="196.0" y1="2040.0" x2="208.0" y2="2079.0" stroke-width="0.5"/>
    <line stroke="black" x1="196.0" y1="2040.0" x2="204.0" y2="2001.0" stroke-width="0.5"/>
    <line stroke="black" x1="344.0" y1="861.0" x2="435.0" y2="755.0" stroke-width="0.5"/>
    <line stroke="black" x1="190.0" y1="2214.0" x2="209.0" y2="2246.0" stroke-width="0.5"/>
    <line stroke="black" x1="249.0" y1="1202.0" x2="288.0" y2="1176.0" stroke-width="0.5"/>
    <line stroke="black" x1="204.0" y1="2001.0" x2="212.0" y2="1977.0" stroke-width="0.5"/>
    <line stroke="black" x1="208.0" y1="2079.0" x2="211.0" y2="2102.0" stroke-width="0.5"/>
    <line stroke="black" x1="209.0" y1="2246.0" x2="221.0" y2="2275.0" stroke-width="0.5"/>
    <line stroke="black" x1="239.0" y1="1359.0" x2="251.0" y2="1391.0" stroke-width="0.5"/>
    <line stroke="black" x1="221.0" y1="2275.0" x2="229.0" y2="2302.0" stroke-width="0.5"/>
    <line stroke="black" x1="229.0" y1="2302.0" x2="240.0" y2="2327.0" stroke-width="0.5"/>
    <line stroke="black" x1="435.0" y1="755.0" x2="441.0" y2="693.0" stroke-width="0.5"/>
    <line stroke="black" x1="441.0" y1="693.0" x2="446.0" y2="648.0" stroke-width="0.5"/>
    <line stroke="black" x1="510.0" y1="999.0" x2="513.0" y2="1027.0" stroke-width="0.5"/>
    <line stroke="black" x1="513.0" y1="1027.0" x2="518.0" y2="1073.0" stroke-width="0.5"/>
    <line stroke="black" x1="345.0" y1="2439.0" x2="405.0" y2="2537.0" stroke-width="0.5"/>
    <line stroke="black" x1="405.0" y1="2537.0" x2="443.0" y2="2617.0" stroke-width="0.5"/>
    <line stroke="black" x1="405.0" y1="2537.0" x2="457.0" y2="2456.0" stroke-width="0.5"/>
    <line stroke="black" x1="443.0" y1="2617.0" x2="491.0" y2="2662.0" stroke-width="0.5"/>
    <line stroke="black" x1="443.0" y1="2617.0" x2="450.0" y2="2573.0" stroke-width="0.5"/>
    <line stroke="black" x1="450.0" y1="2573.0" x2="462.0" y2="2544.0" stroke-width="0.5"/>
    <line stroke="black" x1="462.0" y1="2544.0" x2="483.0" y2="2522.0" stroke-width="0.5"/>
    <line stroke="black" x1="491.0" y1="2662.0" x2="499.0" y2="2691.0" stroke-width="0.5"/>
    <line stroke="black" x1="499.0" y1="2691.0" x2="510.0" y2="2719.0" stroke-width="0.5"/>
    <line stroke="black" x1="46.0" y1="2087.0" x2="345.0" y2="2439.0" stroke-width="0.5"/>
    <line stroke="black" x1="184.0" y1="1704.0" x2="175.0" y2="1743.0" stroke-width="0.5"/>
    <line stroke="black" x1="201.0" y1="1832.0" x2="196.0" y2="1815.0" stroke-width="0.5"/>
    <line stroke="black" x1="317.0" y1="1800.0" x2="196.0" y2="1815.0" stroke-width="0.5"/>
    <line stroke="black" x1="215.0" y1="2056.0" x2="208.0" y2="2079.0" stroke-width="0.5"/>
    <line stroke="black" x1="219.0" y1="2088.0" x2="211.0" y2="2102.0" stroke-width="0.5"/>
    <line stroke="black" x1="246.0" y1="1896.0" x2="222.0" y2="1879.0" stroke-width="0.5"/>
    <line stroke="black" x1="242.0" y1="41.0" x2="241.0" y2="59.0" stroke-width="0.5"/>
    <line stroke="black" x1="260.0" y1="2344.0" x2="240.0" y2="2327.0" stroke-width="0.5"/>
    <line stroke="black" x1="255.0" y1="1288.0" x2="239.0" y2="1272.0" stroke-width="0.5"/>
    <line stroke="black" x1="253.0" y1="1609.0" x2="251.0" y2="1391.0" stroke-width="0.5"/>
    <line stroke="black" x1="447.0" y1="425.0" x2="446.0" y2="648.0" stroke-width="0.5"/>
    <line stroke="black" x1="451.0" y1="808.0" x2="435.0" y2="755.0" stroke-width="0.5"/>
    <line stroke="black" x1="468.0" y1="2472.0" x2="457.0" y2="2456.0" stroke-width="0.5"/>
    <line stroke="black" x1="469.0" y1="2439.0" x2="457.0" y2="2456.0" stroke-width="0.5"/>
    <line stroke="black" x1="484.0" y1="2568.0" x2="462.0" y2="2544.0" stroke-width="0.5"/>
    <line stroke="black" x1="488.0" y1="2536.0" x2="483.0" y2="2522.0" stroke-width="0.5"/>
    <line stroke="black" x1="523.0" y1="2632.0" x2="491.0" y2="2662.0" stroke-width="0.5"/>
    <line stroke="black" x1="344.0" y1="861.0" x2="510.0" y2="999.0" stroke-width="0.5"/>
    <line stroke="black" x1="517.0" y1="2760.0" x2="510.0" y2="2719.0" stroke-width="0.5"/>
    <line stroke="black" x1="537.0" y1="1063.0" x2="518.0" y2="1073.0" stroke-width="0.5"/>
   </g>
  </g>
 </svg>
</svg>
