<?xml version="1.0" encoding="UTF-8"?>
<svg height="800.0" width="700.0" xmlns="http://www.w3.org/2000/svg">
 <svg>
  <g>
   <g>
    <g>
     <circle stroke="black" stroke-width="0.5" fill="#aaffff" cx="2.0" cy="1193.0" r="1.0"/>
     <text stroke="none" x="2.0" y="1193.0" font-size="20.0" font-family="helvetica"/>
    </g>
    <g>
     <circle stroke="black" stroke-width="0.5" fill="#aaffff" cx="4.0" cy="1193.0" r="1.0"/>
     <text stroke="none" x="4.0" y="1193.0" font-size="10.0" font-family="helvetica">NT1.2</text>
    </g>
    <g>
     <circle stroke="black" stroke-width="0.5" fill="#aaffff" cx="50.0" cy="1138.0" r="1.0"/>
     <text stroke="none" x="50.0" y="1138.0" font-size="10.0" font-family="helvetica">NT1.3</text>
    </g>
    <g>
     <circle stroke="black" stroke-width="0.5" fill="#aaffff" cx="253.0" cy="1027.0" r="1.0"/>
     <text stroke="none" x="253.0" y="1027.0" font-size="10.0" font-family="helvetica">NT1.4</text>
    </g>
    <g>
     <circle stroke="black" stroke-width="0.5" fill="#aaffff" cx="278.0" cy="899.0" r="1.0"/>
     <text stroke="none" x="278.0" y="899.0" font-size="10.0" font-family="helvetica">NT1.5</text>
    </g>
    <g>
     <circle stroke="black" stroke-width="0.5" fill="#aaffff" cx="387.0" cy="734.0" r="1.0"/>
     <text stroke="none" x="387.0" y="734.0" font-size="10.0" font-family="helvetica">NT1.6</text>
    </g>
    <g>
     <circle stroke="black" stroke-width="0.5" fill="#aaffff" cx="397.0" cy="1243.0" r="1.0"/>
     <text stroke="none" x="397.0" y="1243.0" font-size="20.0" font-family="helvetica">Aquimonas voraii GPTSA 20T (AY544768)</text>
    </g>
    <g>
     <circle stroke="black" stroke-width="0.5" fill="#aaffff" cx="402.0" cy="940.0" r="1.0"/>
     <text stroke="none" x="402.0" y="940.0" font-size="10.0" font-family="helvetica">NT1.8</text>
    </g>
    <g>
     <circle stroke="black" stroke-width="0.5" fill="#aaffff" cx="411.0" cy="529.0" r="1.0"/>
     <text stroke="none" x="411.0" y="529.0" font-size="10.0" font-family="helvetica">NT1.9</text>
    </g>
    <g>
     <circle stroke="black" stroke-width="0.5" fill="#aaffff" cx="418.0" cy="1152.0" r="1.0"/>
     <text stroke="none" x="418.0" y="1152.0" font-size="10.0" font-family="helvetica">NT1.10</text>
    </g>
    <g>
     <circle stroke="black" stroke-width="0.5" fill="#aaffff" cx="433.0" cy="396.0" r="1.0"/>
     <text stroke="none" x="433.0" y="396.0" font-size="10.0" font-family="helvetica">NT1.11</text>
    </g>
    <g>
     <circle stroke="black" stroke-width="0.5" fill="#aaffff" cx="493.0" cy="520.0" r="1.0"/>
     <text stroke="none" x="493.0" y="520.0" font-size="10.0" font-family="helvetica">NT1.12</text>
    </g>
    <g>
     <circle stroke="black" stroke-width="0.5" fill="#aaffff" cx="499.0" cy="884.0" r="1.0"/>
     <text stroke="none" x="499.0" y="884.0" font-size="10.0" font-family="helvetica">NT1.13</text>
    </g>
    <g>
     <circle stroke="black" stroke-width="0.5" fill="#aaffff" cx="524.0" cy="268.0" r="1.0"/>
     <text stroke="none" x="524.0" y="268.0" font-size="10.0" font-family="helvetica">NT1.14</text>
    </g>
    <g>
     <circle stroke="black" stroke-width="0.5" fill="#aaffff" cx="533.0" cy="657.0" r="1.0"/>
     <text stroke="none" x="533.0" y="657.0" font-size="10.0" font-family="helvetica">NT1.15</text>
    </g>
    <g>
     <circle stroke="black" stroke-width="0.5" fill="#aaffff" cx="542.0" cy="184.0" r="1.0"/>
     <text stroke="none" x="542.0" y="184.0" font-size="10.0" font-family="helvetica">NT1.16</text>
    </g>
    <g>
     <circle stroke="black" stroke-width="0.5" fill="#aaffff" cx="598.0" cy="107.0" r="1.0"/>
     <text stroke="none" x="598.0" y="107.0" font-size="10.0" font-family="helvetica">NT1.17</text>
    </g>
    <g>
     <circle stroke="black" stroke-width="0.5" fill="#aaffff" cx="603.0" cy="1122.0" r="1.0"/>
     <text stroke="none" x="603.0" y="1122.0" font-size="20.0" font-family="helvetica">Arenimonas donghaensis H03-R197 (DQ411038)</text>
    </g>
    <g>
     <circle stroke="black" stroke-width="0.5" fill="#aaffff" cx="608.0" cy="352.0" r="1.0"/>
     <text stroke="none" x="608.0" y="352.0" font-size="10.0" font-family="helvetica">NT1.19</text>
    </g>
    <g>
     <circle stroke="black" stroke-width="0.5" fill="#aaffff" cx="625.0" cy="1305.0" r="1.0"/>
     <text stroke="none" x="625.0" y="1305.0" font-size="10.0" font-family="helvetica">NT1.20</text>
    </g>
    <g>
     <circle stroke="black" stroke-width="0.5" fill="#aaffff" cx="648.0" cy="477.0" r="1.0"/>
     <text stroke="none" x="648.0" y="477.0" font-size="10.0" font-family="helvetica">NT1.21</text>
    </g>
    <g>
     <circle stroke="black" stroke-width="0.5" fill="#aaffff" cx="648.0" cy="831.0" r="1.0"/>
     <text stroke="none" x="648.0" y="831.0" font-size="10.0" font-family="helvetica">NT1.22</text>
    </g>
    <g>
     <circle stroke="black" stroke-width="0.5" fill="#aaffff" cx="652.0" cy="813.0" r="1.0"/>
     <text stroke="none" x="652.0" y="813.0" font-size="10.0" font-family="helvetica">NT1.23</text>
    </g>
    <g>
     <circle stroke="black" stroke-width="0.5" fill="#aaffff" cx="671.0" cy="814.0" r="1.0"/>
     <text stroke="none" x="671.0" y="814.0" font-size="20.0" font-family="helvetica">Lysobacter gummosus KCTC 12132T (AB161361)</text>
    </g>
    <g>
     <circle stroke="black" stroke-width="0.5" fill="#aaffff" cx="677.0" cy="877.0" r="1.0"/>
     <text stroke="none" x="677.0" y="877.0" font-size="20.0" font-family="helvetica">Lysobacter antibioticus DSM 2044T (AB019582)</text>
    </g>
    <g>
     <circle stroke="black" stroke-width="0.5" fill="#aaffff" cx="680.0" cy="48.0" r="1.0"/>
     <text stroke="none" x="680.0" y="48.0" font-size="10.0" font-family="helvetica">NT1.26</text>
    </g>
    <g>
     <circle stroke="black" stroke-width="0.5" fill="#aaffff" cx="690.0" cy="997.0" r="1.0"/>
     <text stroke="none" x="690.0" y="997.0" font-size="20.0" font-family="helvetica">Lysobacter brunescens KCTC 12130T (AB161360)</text>
    </g>
    <g>
     <circle stroke="black" stroke-width="0.5" fill="#aaffff" cx="690.0" cy="751.0" r="1.0"/>
     <text stroke="none" x="690.0" y="751.0" font-size="20.0" font-family="helvetica">Lysobacter capsici YC5194T (EF488749)</text>
    </g>
    <g>
     <circle stroke="black" stroke-width="0.5" fill="#aaffff" cx="708.0" cy="935.0" r="1.0"/>
     <text stroke="none" x="708.0" y="935.0" font-size="20.0" font-family="helvetica">Lysobacter niastensis GH41-7T (DQ462462)</text>
    </g>
    <g>
     <circle stroke="black" stroke-width="0.5" fill="#aaffff" cx="728.0" cy="166.0" r="1.0"/>
     <text stroke="none" x="728.0" y="166.0" font-size="10.0" font-family="helvetica">NT1.30</text>
    </g>
    <g>
     <circle stroke="black" stroke-width="0.5" fill="#aaffff" cx="736.0" cy="136.0" r="1.0"/>
     <text stroke="none" x="736.0" y="136.0" font-size="20.0" font-family="helvetica">Xanthomonas campestris LMG 568T (X95917)</text>
    </g>
    <g>
     <circle stroke="black" stroke-width="0.5" fill="#aaffff" cx="739.0" cy="444.0" r="1.0"/>
     <text stroke="none" x="739.0" y="444.0" font-size="20.0" font-family="helvetica">Luteimonas marina FR1330T (EU295459)</text>
    </g>
    <g>
     <circle stroke="black" stroke-width="0.5" fill="#aaffff" cx="743.0" cy="199.0" r="1.0"/>
     <text stroke="none" x="743.0" y="199.0" font-size="20.0" font-family="helvetica">Xanthomonas vasicola LMG 7367 (Y10755)</text>
    </g>
    <g>
     <circle stroke="black" stroke-width="0.5" fill="#aaffff" cx="755.0" cy="1060.0" r="1.0"/>
     <text stroke="none" x="755.0" y="1060.0" font-size="20.0" font-family="helvetica">Silanimonas lenta 25-4T (AY557615)</text>
    </g>
    <g>
     <circle stroke="black" stroke-width="0.5" fill="#aaffff" cx="774.0" cy="382.0" r="1.0"/>
     <text stroke="none" x="774.0" y="382.0" font-size="20.0" font-family="helvetica">Pseudoxanthomonas mexicana ATCC 70O993T (AF273082)</text>
    </g>
    <g>
     <circle stroke="black" stroke-width="0.5" fill="#aaffff" cx="786.0" cy="323.0" r="1.0"/>
     <text stroke="none" x="786.0" y="323.0" font-size="20.0" font-family="helvetica">Pseudoxanthomonas koreensis KCTC 122087 (AY550263)</text>
    </g>
    <g>
     <circle stroke="black" stroke-width="0.5" fill="#aaffff" cx="789.0" cy="1184.0" r="1.0"/>
     <text stroke="none" x="789.0" y="1184.0" font-size="20.0" font-family="helvetica">Arenimonas malthae CC-JY-1T (DQ239766)</text>
    </g>
    <g>
     <circle stroke="black" stroke-width="0.5" fill="#aaffff" cx="830.0" cy="690.0" r="1.0"/>
     <text stroke="none" x="830.0" y="690.0" font-size="10.0" font-family="helvetica">NT1.38</text>
    </g>
    <g>
     <circle stroke="black" stroke-width="0.5" fill="#aaffff" cx="839.0" cy="15.0" r="1.0"/>
     <text stroke="none" x="839.0" y="15.0" font-size="20.0" font-family="helvetica">Stenotrophomonas maltophilia LMG 958T (X95923)</text>
    </g>
    <g>
     <circle stroke="black" stroke-width="0.5" fill="#aaffff" cx="839.0" cy="506.0" r="1.0"/>
     <text stroke="none" x="839.0" y="506.0" font-size="10.0" font-family="helvetica">NT1.40</text>
    </g>
    <g>
     <circle stroke="black" stroke-width="0.5" fill="#aaffff" cx="848.0" cy="569.0" r="1.0"/>
     <text stroke="none" x="848.0" y="569.0" font-size="20.0" font-family="helvetica">Luteimonas mephitis DSM 125747 (AJ012228)</text>
    </g>
    <g>
     <circle stroke="black" stroke-width="0.5" fill="#aaffff" cx="880.0" cy="75.0" r="1.0"/>
     <text stroke="none" x="880.0" y="75.0" font-size="20.0" font-family="helvetica">Stenotrophomonas nitritireducens DSM 12575T (AJ012229)</text>
    </g>
    <g>
     <circle stroke="black" stroke-width="0.5" fill="#aaffff" cx="880.0" cy="630.0" r="1.0"/>
     <text stroke="none" x="880.0" y="630.0" font-size="20.0" font-family="helvetica">Themlomonas fusca LMG 217377 (AJ519986)</text>
    </g>
    <g>
     <circle stroke="black" stroke-width="0.5" fill="#aaffff" cx="932.0" cy="261.0" r="1.0"/>
     <text stroke="none" x="932.0" y="261.0" font-size="20.0" font-family="helvetica">Xylella fastidiosa PCE-FF (AF192343)</text>
    </g>
    <line stroke="black" x1="671.0" y1="814.0" x2="652.0" y2="813.0" stroke-width="0.5"/>
    <line stroke="black" x1="680.0" y1="48.0" x2="598.0" y2="107.0" stroke-width="0.5"/>
    <line stroke="black" x1="598.0" y1="107.0" x2="542.0" y2="184.0" stroke-width="0.5"/>
    <line stroke="black" x1="598.0" y1="107.0" x2="728.0" y2="166.0" stroke-width="0.5"/>
    <line stroke="black" x1="542.0" y1="184.0" x2="524.0" y2="268.0" stroke-width="0.5"/>
    <line stroke="black" x1="524.0" y1="268.0" x2="433.0" y2="396.0" stroke-width="0.5"/>
    <line stroke="black" x1="524.0" y1="268.0" x2="608.0" y2="352.0" stroke-width="0.5"/>
    <line stroke="black" x1="433.0" y1="396.0" x2="411.0" y2="529.0" stroke-width="0.5"/>
    <line stroke="black" x1="433.0" y1="396.0" x2="493.0" y2="520.0" stroke-width="0.5"/>
    <line stroke="black" x1="411.0" y1="529.0" x2="387.0" y2="734.0" stroke-width="0.5"/>
    <line stroke="black" x1="387.0" y1="734.0" x2="278.0" y2="899.0" stroke-width="0.5"/>
    <line stroke="black" x1="387.0" y1="734.0" x2="402.0" y2="940.0" stroke-width="0.5"/>
    <line stroke="black" x1="402.0" y1="940.0" x2="499.0" y2="884.0" stroke-width="0.5"/>
    <line stroke="black" x1="278.0" y1="899.0" x2="253.0" y2="1027.0" stroke-width="0.5"/>
    <line stroke="black" x1="499.0" y1="884.0" x2="648.0" y2="831.0" stroke-width="0.5"/>
    <line stroke="black" x1="253.0" y1="1027.0" x2="50.0" y2="1138.0" stroke-width="0.5"/>
    <line stroke="black" x1="253.0" y1="1027.0" x2="418.0" y2="1152.0" stroke-width="0.5"/>
    <line stroke="black" x1="648.0" y1="831.0" x2="652.0" y2="813.0" stroke-width="0.5"/>
    <line stroke="black" x1="50.0" y1="1138.0" x2="4.0" y2="1193.0" stroke-width="0.5"/>
    <line stroke="black" x1="397.0" y1="1243.0" x2="50.0" y2="1138.0" stroke-width="0.5"/>
    <line stroke="black" x1="755.0" y1="1060.0" x2="278.0" y2="899.0" stroke-width="0.5"/>
    <line stroke="black" x1="603.0" y1="1122.0" x2="418.0" y2="1152.0" stroke-width="0.5"/>
    <line stroke="black" x1="690.0" y1="997.0" x2="402.0" y2="940.0" stroke-width="0.5"/>
    <line stroke="black" x1="789.0" y1="1184.0" x2="418.0" y2="1152.0" stroke-width="0.5"/>
    <line stroke="black" x1="708.0" y1="935.0" x2="499.0" y2="884.0" stroke-width="0.5"/>
    <line stroke="black" x1="848.0" y1="569.0" x2="493.0" y2="520.0" stroke-width="0.5"/>
    <line stroke="black" x1="880.0" y1="630.0" x2="533.0" y2="657.0" stroke-width="0.5"/>
    <line stroke="black" x1="677.0" y1="877.0" x2="648.0" y2="831.0" stroke-width="0.5"/>
    <line stroke="black" x1="774.0" y1="382.0" x2="608.0" y2="352.0" stroke-width="0.5"/>
    <line stroke="black" x1="690.0" y1="751.0" x2="652.0" y2="813.0" stroke-width="0.5"/>
    <line stroke="black" x1="786.0" y1="323.0" x2="608.0" y2="352.0" stroke-width="0.5"/>
    <line stroke="black" x1="932.0" y1="261.0" x2="542.0" y2="184.0" stroke-width="0.5"/>
    <line stroke="black" x1="739.0" y1="444.0" x2="648.0" y2="477.0" stroke-width="0.5"/>
    <line stroke="black" x1="736.0" y1="136.0" x2="728.0" y2="166.0" stroke-width="0.5"/>
    <line stroke="black" x1="743.0" y1="199.0" x2="728.0" y2="166.0" stroke-width="0.5"/>
    <line stroke="black" x1="880.0" y1="75.0" x2="680.0" y2="48.0" stroke-width="0.5"/>
    <line stroke="black" x1="839.0" y1="15.0" x2="680.0" y2="48.0" stroke-width="0.5"/>
   </g>
  </g>
 </svg>
</svg>
