<?xml version="1.0" encoding="UTF-8"?>
<svg height="800.0" width="700.0" xmlns="http://www.w3.org/2000/svg">
 <svg>
  <g>
   <g>
    <g>
     <circle stroke="black" stroke-width="0.5" fill="#aaffff" cx="85.0" cy="666.0" r="1.0"/>
     <text stroke="none" x="85.0" y="666.0" font-size="10.0" font-family="helvetica">NT1.1</text>
    </g>
    <g>
     <circle stroke="black" stroke-width="0.5" fill="#aaffff" cx="143.0" cy="820.0" r="1.0"/>
     <text stroke="none" x="143.0" y="820.0" font-size="10.0" font-family="helvetica">NT1.2</text>
    </g>
    <g>
     <circle stroke="black" stroke-width="0.5" fill="#aaffff" cx="331.0" cy="647.0" r="1.0"/>
     <text stroke="none" x="331.0" y="647.0" font-size="10.0" font-family="helvetica">NT1.3</text>
    </g>
    <g>
     <circle stroke="black" stroke-width="0.5" fill="#aaffff" cx="403.0" cy="564.0" r="1.0"/>
     <text stroke="none" x="403.0" y="564.0" font-size="10.0" font-family="helvetica">NT1.4</text>
    </g>
    <g>
     <circle stroke="black" stroke-width="0.5" fill="#aaffff" cx="412.0" cy="820.0" r="1.0"/>
     <text stroke="none" x="412.0" y="820.0" font-size="20.0" font-family="helvetica">Shewanella putrefaciens</text>
    </g>
    <g>
     <circle stroke="black" stroke-width="0.5" fill="#aaffff" cx="441.0" cy="645.0" r="1.0"/>
     <text stroke="none" x="441.0" y="645.0" font-size="10.0" font-family="helvetica">NT1.6</text>
    </g>
    <g>
     <circle stroke="black" stroke-width="0.5" fill="#aaffff" cx="453.0" cy="877.0" r="1.0"/>
     <text stroke="none" x="453.0" y="877.0" font-size="20.0" font-family="helvetica">Vibrio</text>
    </g>
    <g>
     <circle stroke="black" stroke-width="0.5" fill="#aaffff" cx="500.0" cy="475.0" r="1.0"/>
     <text stroke="none" x="500.0" y="475.0" font-size="10.0" font-family="helvetica">NT1.8</text>
    </g>
    <g>
     <circle stroke="black" stroke-width="0.5" fill="#aaffff" cx="507.0" cy="244.0" r="1.0"/>
     <text stroke="none" x="507.0" y="244.0" font-size="10.0" font-family="helvetica">NT1.9</text>
    </g>
    <g>
     <circle stroke="black" stroke-width="0.5" fill="#aaffff" cx="586.0" cy="762.0" r="1.0"/>
     <text stroke="none" x="586.0" y="762.0" font-size="20.0" font-family="helvetica">Moritella marina</text>
    </g>
    <g>
     <circle stroke="black" stroke-width="0.5" fill="#aaffff" cx="590.0" cy="473.0" r="1.0"/>
     <text stroke="none" x="590.0" y="473.0" font-size="20.0" font-family="helvetica">Pseudoalteromonas haloplanktis ATCC</text>
    </g>
    <g>
     <circle stroke="black" stroke-width="0.5" fill="#aaffff" cx="630.0" cy="532.0" r="1.0"/>
     <text stroke="none" x="630.0" y="532.0" font-size="20.0" font-family="helvetica">Pseudoalteromonas rubra ATCC 295707</text>
    </g>
    <g>
     <circle stroke="black" stroke-width="0.5" fill="#aaffff" cx="673.0" cy="130.0" r="1.0"/>
     <text stroke="none" x="673.0" y="130.0" font-size="20.0" font-family="helvetica">Colwellia psychrerythraea ACAM 5507</text>
    </g>
    <g>
     <circle stroke="black" stroke-width="0.5" fill="#aaffff" cx="674.0" cy="245.0" r="1.0"/>
     <text stroke="none" x="674.0" y="245.0" font-size="20.0" font-family="helvetica">Colweliia hornerae ACAM</text>
    </g>
    <g>
     <circle stroke="black" stroke-width="0.5" fill="#aaffff" cx="677.0" cy="589.0" r="1.0"/>
     <text stroke="none" x="677.0" y="589.0" font-size="20.0" font-family="helvetica">Pseudoalteromonas denitrificans ATCC</text>
    </g>
    <g>
     <circle stroke="black" stroke-width="0.5" fill="#aaffff" cx="681.0" cy="704.0" r="1.0"/>
     <text stroke="none" x="681.0" y="704.0" font-size="20.0" font-family="helvetica">Psychromonas antarctica</text>
    </g>
    <g>
     <circle stroke="black" stroke-width="0.5" fill="#aaffff" cx="683.0" cy="73.0" r="1.0"/>
     <text stroke="none" x="683.0" y="73.0" font-size="20.0" font-family="helvetica"/>
    </g>
    <g>
     <circle stroke="black" stroke-width="0.5" fill="#aaffff" cx="684.0" cy="188.0" r="1.0"/>
     <text stroke="none" x="684.0" y="188.0" font-size="20.0" font-family="helvetica">Colwellia demingiae ACAM 4597</text>
    </g>
    <g>
     <circle stroke="black" stroke-width="0.5" fill="#aaffff" cx="710.0" cy="16.0" r="1.0"/>
     <text stroke="none" x="710.0" y="16.0" font-size="20.0" font-family="helvetica">Colwellia psychrotropica ACAM</text>
    </g>
    <g>
     <circle stroke="black" stroke-width="0.5" fill="#aaffff" cx="774.0" cy="647.0" r="1.0"/>
     <text stroke="none" x="774.0" y="647.0" font-size="20.0" font-family="helvetica">Pseudoalteromonas bacteriolytica</text>
    </g>
    <g>
     <circle stroke="black" stroke-width="0.5" fill="#aaffff" cx="812.0" cy="335.0" r="1.0"/>
     <text stroke="none" x="812.0" y="335.0" font-size="10.0" font-family="helvetica">NT1.21</text>
    </g>
    <g>
     <circle stroke="black" stroke-width="0.5" fill="#aaffff" cx="822.0" cy="417.0" r="1.0"/>
     <text stroke="none" x="822.0" y="417.0" font-size="20.0" font-family="helvetica">Alteromonas Iitorea TF-227 (AY428573)</text>
    </g>
    <g>
     <circle stroke="black" stroke-width="0.5" fill="#aaffff" cx="838.0" cy="302.0" r="1.0"/>
     <text stroke="none" x="838.0" y="302.0" font-size="20.0" font-family="helvetica">Alteromonas</text>
    </g>
    <g>
     <circle stroke="black" stroke-width="0.5" fill="#aaffff" cx="853.0" cy="359.0" r="1.0"/>
     <text stroke="none" x="853.0" y="359.0" font-size="20.0" font-family="helvetica">Alteromonas</text>
    </g>
    <line stroke="black" x1="710.0" y1="16.0" x2="507.0" y2="244.0" stroke-width="0.5"/>
    <line stroke="black" x1="838.0" y1="302.0" x2="812.0" y2="335.0" stroke-width="0.5"/>
    <line stroke="black" x1="853.0" y1="359.0" x2="812.0" y2="335.0" stroke-width="0.5"/>
    <line stroke="black" x1="774.0" y1="647.0" x2="441.0" y2="645.0" stroke-width="0.5"/>
    <line stroke="black" x1="681.0" y1="704.0" x2="331.0" y2="647.0" stroke-width="0.5"/>
    <line stroke="black" x1="453.0" y1="877.0" x2="143.0" y2="820.0" stroke-width="0.5"/>
    <line stroke="black" x1="507.0" y1="244.0" x2="683.0" y2="73.0" stroke-width="0.5"/>
    <line stroke="black" x1="507.0" y1="244.0" x2="331.0" y2="647.0" stroke-width="0.5"/>
    <line stroke="black" x1="507.0" y1="244.0" x2="441.0" y2="645.0" stroke-width="0.5"/>
    <line stroke="black" x1="507.0" y1="244.0" x2="812.0" y2="335.0" stroke-width="0.5"/>
    <line stroke="black" x1="331.0" y1="647.0" x2="85.0" y2="666.0" stroke-width="0.5"/>
    <line stroke="black" x1="441.0" y1="645.0" x2="403.0" y2="564.0" stroke-width="0.5"/>
    <line stroke="black" x1="85.0" y1="666.0" x2="143.0" y2="820.0" stroke-width="0.5"/>
    <line stroke="black" x1="403.0" y1="564.0" x2="500.0" y2="475.0" stroke-width="0.5"/>
    <line stroke="black" x1="412.0" y1="820.0" x2="143.0" y2="820.0" stroke-width="0.5"/>
    <line stroke="black" x1="630.0" y1="532.0" x2="500.0" y2="475.0" stroke-width="0.5"/>
    <line stroke="black" x1="586.0" y1="762.0" x2="85.0" y2="666.0" stroke-width="0.5"/>
    <line stroke="black" x1="677.0" y1="589.0" x2="403.0" y2="564.0" stroke-width="0.5"/>
    <line stroke="black" x1="590.0" y1="473.0" x2="500.0" y2="475.0" stroke-width="0.5"/>
    <line stroke="black" x1="684.0" y1="188.0" x2="507.0" y2="244.0" stroke-width="0.5"/>
    <line stroke="black" x1="674.0" y1="245.0" x2="507.0" y2="244.0" stroke-width="0.5"/>
    <line stroke="black" x1="673.0" y1="130.0" x2="507.0" y2="244.0" stroke-width="0.5"/>
    <line stroke="black" x1="822.0" y1="417.0" x2="507.0" y2="244.0" stroke-width="0.5"/>
   </g>
  </g>
 </svg>
</svg>
