<?xml version="1.0" encoding="UTF-8"?>
<svg height="800.0" width="700.0" xmlns="http://www.w3.org/2000/svg">
 <svg>
  <g>
   <g>
    <g>
     <circle stroke="black" stroke-width="0.5" fill="#aaffff" cx="12.0" cy="390.0" r="1.0"/>
     <text stroke="none" x="12.0" y="390.0" font-size="10.0" font-family="helvetica">NT1.1</text>
    </g>
    <g>
     <circle stroke="black" stroke-width="0.5" fill="#aaffff" cx="104.0" cy="484.0" r="1.0"/>
     <text stroke="none" x="104.0" y="484.0" font-size="20.0" font-family="helvetica">93</text>
    </g>
    <g>
     <circle stroke="black" stroke-width="0.5" fill="#aaffff" cx="110.0" cy="297.0" r="1.0"/>
     <text stroke="none" x="110.0" y="297.0" font-size="10.0" font-family="helvetica">NT1.3</text>
    </g>
    <g>
     <circle stroke="black" stroke-width="0.5" fill="#aaffff" cx="174.0" cy="215.0" r="1.0"/>
     <text stroke="none" x="174.0" y="215.0" font-size="10.0" font-family="helvetica">NT1.4</text>
    </g>
    <g>
     <circle stroke="black" stroke-width="0.5" fill="#aaffff" cx="178.0" cy="193.0" r="1.0"/>
     <text stroke="none" x="178.0" y="193.0" font-size="10.0" font-family="helvetica">NT1.5</text>
    </g>
    <g>
     <circle stroke="black" stroke-width="0.5" fill="#aaffff" cx="180.0" cy="274.0" r="1.0"/>
     <text stroke="none" x="180.0" y="274.0" font-size="10.0" font-family="helvetica">NT1.6</text>
    </g>
    <g>
     <circle stroke="black" stroke-width="0.5" fill="#aaffff" cx="180.0" cy="146.0" r="1.0"/>
     <text stroke="none" x="180.0" y="146.0" font-size="10.0" font-family="helvetica">NT1.7</text>
    </g>
    <g>
     <circle stroke="black" stroke-width="0.5" fill="#aaffff" cx="193.0" cy="147.0" r="1.0"/>
     <text stroke="none" x="193.0" y="147.0" font-size="10.0" font-family="helvetica">NT1.8</text>
    </g>
    <g>
     <circle stroke="black" stroke-width="0.5" fill="#aaffff" cx="198.0" cy="309.0" r="1.0"/>
     <text stroke="none" x="198.0" y="309.0" font-size="10.0" font-family="helvetica">NT1.9</text>
    </g>
    <g>
     <circle stroke="black" stroke-width="0.5" fill="#aaffff" cx="201.0" cy="424.0" r="1.0"/>
     <text stroke="none" x="201.0" y="424.0" font-size="20.0" font-family="helvetica">Rathayibacter toxicus JCM 9669T (D84127)</text>
    </g>
    <g>
     <circle stroke="black" stroke-width="0.5" fill="#aaffff" cx="205.0" cy="79.0" r="1.0"/>
     <text stroke="none" x="205.0" y="79.0" font-size="20.0" font-family="helvetica">93</text>
    </g>
    <g>
     <circle stroke="black" stroke-width="0.5" fill="#aaffff" cx="206.0" cy="240.0" r="1.0"/>
     <text stroke="none" x="206.0" y="240.0" font-size="20.0" font-family="helvetica">Curtobacterium pusillum DSM 20527T (AJ784400)</text>
    </g>
    <g>
     <circle stroke="black" stroke-width="0.5" fill="#aaffff" cx="208.0" cy="102.0" r="1.0"/>
     <text stroke="none" x="208.0" y="102.0" font-size="20.0" font-family="helvetica">Curtobacterium albidum DSM 2O512T (AMO42692)</text>
    </g>
    <g>
     <circle stroke="black" stroke-width="0.5" fill="#aaffff" cx="209.0" cy="286.0" r="1.0"/>
     <text stroke="none" x="209.0" y="286.0" font-size="20.0" font-family="helvetica">Cunobacterium flaccumfaciens LMG 36457 (AJ312209)</text>
    </g>
    <g>
     <circle stroke="black" stroke-width="0.5" fill="#aaffff" cx="211.0" cy="55.0" r="1.0"/>
     <text stroke="none" x="211.0" y="55.0" font-size="20.0" font-family="helvetica">Curtobacterium citreum DSM 205287 (X77436)</text>
    </g>
    <g>
     <circle stroke="black" stroke-width="0.5" fill="#aaffff" cx="216.0" cy="545.0" r="1.0"/>
     <text stroke="none" x="216.0" y="545.0" font-size="20.0" font-family="helvetica">100</text>
    </g>
    <g>
     <circle stroke="black" stroke-width="0.5" fill="#aaffff" cx="217.0" cy="194.0" r="1.0"/>
     <text stroke="none" x="217.0" y="194.0" font-size="20.0" font-family="helvetica">Curfobacterium ammoniigenes NBRC 1017867 (AB266597)</text>
    </g>
    <g>
     <circle stroke="black" stroke-width="0.5" fill="#aaffff" cx="218.0" cy="517.0" r="1.0"/>
     <text stroke="none" x="218.0" y="517.0" font-size="10.0" font-family="helvetica">NT1.18</text>
    </g>
    <g>
     <circle stroke="black" stroke-width="0.5" fill="#aaffff" cx="225.0" cy="597.0" r="1.0"/>
     <text stroke="none" x="225.0" y="597.0" font-size="10.0" font-family="helvetica">NT1.19</text>
    </g>
    <g>
     <circle stroke="black" stroke-width="0.5" fill="#aaffff" cx="229.0" cy="563.0" r="1.0"/>
     <text stroke="none" x="229.0" y="563.0" font-size="10.0" font-family="helvetica">NT1.20</text>
    </g>
    <g>
     <circle stroke="black" stroke-width="0.5" fill="#aaffff" cx="231.0" cy="10.0" r="1.0"/>
     <text stroke="none" x="231.0" y="10.0" font-size="20.0" font-family="helvetica">Clavibacter michiganensis DSM 463647 (X77435)</text>
    </g>
    <g>
     <circle stroke="black" stroke-width="0.5" fill="#aaffff" cx="234.0" cy="632.0" r="1.0"/>
     <text stroke="none" x="234.0" y="632.0" font-size="10.0" font-family="helvetica">NT1.22</text>
    </g>
    <g>
     <circle stroke="black" stroke-width="0.5" fill="#aaffff" cx="235.0" cy="471.0" r="1.0"/>
     <text stroke="none" x="235.0" y="471.0" font-size="20.0" font-family="helvetica">Rathayibacter rathayi DSM 7485T (X77439)</text>
    </g>
    <g>
     <circle stroke="black" stroke-width="0.5" fill="#aaffff" cx="245.0" cy="333.0" r="1.0"/>
     <text stroke="none" x="245.0" y="333.0" font-size="20.0" font-family="helvetica">Curtobaoterium herbarum DSM 14O13T (AJ310413)</text>
    </g>
    <g>
     <circle stroke="black" stroke-width="0.5" fill="#aaffff" cx="255.0" cy="517.0" r="1.0"/>
     <text stroke="none" x="255.0" y="517.0" font-size="20.0" font-family="helvetica">Rathayibacter iranicus ICMP 34967 (AM410684)</text>
    </g>
    <g>
     <circle stroke="black" stroke-width="0.5" fill="#aaffff" cx="275.0" cy="656.0" r="1.0"/>
     <text stroke="none" x="275.0" y="656.0" font-size="10.0" font-family="helvetica">NT1.26</text>
    </g>
    <g>
     <circle stroke="black" stroke-width="0.5" fill="#aaffff" cx="278.0" cy="609.0" r="1.0"/>
     <text stroke="none" x="278.0" y="609.0" font-size="20.0" font-family="helvetica">Rathayibacter festucae VKM Ac-13907 (AF159365)</text>
    </g>
    <g>
     <circle stroke="black" stroke-width="0.5" fill="#aaffff" cx="361.0" cy="379.0" r="1.0"/>
     <text stroke="none" x="361.0" y="379.0" font-size="20.0" font-family="helvetica">Curtobacterium ginsengisoli DCY26T (EF587758)</text>
    </g>
    <g>
     <circle stroke="black" stroke-width="0.5" fill="#aaffff" cx="1.0" cy="200.0" r="1.0"/>
     <text stroke="none" x="1.0" y="200.0" font-size="10.0" font-family="helvetica">NT1.29</text>
    </g>
    <line stroke="black" x1="201.0" y1="424.0" x2="104.0" y2="484.0" stroke-width="0.5"/>
    <line stroke="black" x1="217.0" y1="194.0" x2="178.0" y2="193.0" stroke-width="0.5"/>
    <line stroke="black" x1="255.0" y1="517.0" x2="218.0" y2="517.0" stroke-width="0.5"/>
    <line stroke="black" x1="245.0" y1="333.0" x2="198.0" y2="309.0" stroke-width="0.5"/>
    <line stroke="black" x1="208.0" y1="102.0" x2="205.0" y2="79.0" stroke-width="0.5"/>
    <line stroke="black" x1="278.0" y1="609.0" x2="234.0" y2="632.0" stroke-width="0.5"/>
    <line stroke="black" x1="211.0" y1="55.0" x2="205.0" y2="79.0" stroke-width="0.5"/>
    <line stroke="black" x1="361.0" y1="379.0" x2="110.0" y2="297.0" stroke-width="0.5"/>
    <line stroke="black" x1="12.0" y1="390.0" x2="104.0" y2="484.0" stroke-width="0.5"/>
    <line stroke="black" x1="12.0" y1="390.0" x2="110.0" y2="297.0" stroke-width="0.5"/>
    <line stroke="black" x1="104.0" y1="484.0" x2="216.0" y2="545.0" stroke-width="0.5"/>
    <line stroke="black" x1="110.0" y1="297.0" x2="174.0" y2="215.0" stroke-width="0.5"/>
    <line stroke="black" x1="174.0" y1="215.0" x2="180.0" y2="274.0" stroke-width="0.5"/>
    <line stroke="black" x1="174.0" y1="215.0" x2="178.0" y2="193.0" stroke-width="0.5"/>
    <line stroke="black" x1="216.0" y1="545.0" x2="218.0" y2="517.0" stroke-width="0.5"/>
    <line stroke="black" x1="180.0" y1="274.0" x2="198.0" y2="309.0" stroke-width="0.5"/>
    <line stroke="black" x1="180.0" y1="146.0" x2="205.0" y2="79.0" stroke-width="0.5"/>
    <line stroke="black" x1="1.0" y1="200.0" x2="231.0" y2="10.0" stroke-width="0.5"/>
    <line stroke="black" x1="1.0" y1="200.0" x2="12.0" y2="390.0" stroke-width="0.5"/>
    <line stroke="black" x1="206.0" y1="240.0" x2="180.0" y2="274.0" stroke-width="0.5"/>
    <line stroke="black" x1="209.0" y1="286.0" x2="198.0" y2="309.0" stroke-width="0.5"/>
    <line stroke="black" x1="235.0" y1="471.0" x2="218.0" y2="517.0" stroke-width="0.5"/>
   </g>
  </g>
 </svg>
</svg>
