<?xml version="1.0" encoding="UTF-8"?>
<svg height="800.0" width="700.0" xmlns="http://www.w3.org/2000/svg">
 <svg>
  <g>
   <g>
    <g>
     <circle stroke="black" stroke-width="0.5" fill="#aaffff" cx="61.0" cy="727.0" r="1.0"/>
     <text stroke="none" x="61.0" y="727.0" font-size="10.0" font-family="helvetica">NT1.1</text>
    </g>
    <g>
     <circle stroke="black" stroke-width="0.5" fill="#aaffff" cx="80.0" cy="463.0" r="1.0"/>
     <text stroke="none" x="80.0" y="463.0" font-size="20.0" font-family="helvetica">21</text>
    </g>
    <g>
     <circle stroke="black" stroke-width="0.5" fill="#aaffff" cx="201.0" cy="855.0" r="1.0"/>
     <text stroke="none" x="201.0" y="855.0" font-size="10.0" font-family="helvetica">NT1.3</text>
    </g>
    <g>
     <circle stroke="black" stroke-width="0.5" fill="#aaffff" cx="226.0" cy="395.0" r="1.0"/>
     <text stroke="none" x="226.0" y="395.0" font-size="20.0" font-family="helvetica">45</text>
    </g>
    <g>
     <circle stroke="black" stroke-width="0.5" fill="#aaffff" cx="271.0" cy="529.0" r="1.0"/>
     <text stroke="none" x="271.0" y="529.0" font-size="20.0" font-family="helvetica">29</text>
    </g>
    <g>
     <circle stroke="black" stroke-width="0.5" fill="#aaffff" cx="314.0" cy="350.0" r="1.0"/>
     <text stroke="none" x="314.0" y="350.0" font-size="20.0" font-family="helvetica">29</text>
    </g>
    <g>
     <circle stroke="black" stroke-width="0.5" fill="#aaffff" cx="314.0" cy="754.0" r="1.0"/>
     <text stroke="none" x="314.0" y="754.0" font-size="10.0" font-family="helvetica">NT1.7</text>
    </g>
    <g>
     <circle stroke="black" stroke-width="0.5" fill="#aaffff" cx="324.0" cy="601.0" r="1.0"/>
     <text stroke="none" x="324.0" y="601.0" font-size="20.0" font-family="helvetica">Nicoletella semolina CCUG 436397 (AY508835)</text>
    </g>
    <g>
     <circle stroke="black" stroke-width="0.5" fill="#aaffff" cx="366.0" cy="811.0" r="1.0"/>
     <text stroke="none" x="366.0" y="811.0" font-size="20.0" font-family="helvetica">8</text>
    </g>
    <g>
     <circle stroke="black" stroke-width="0.5" fill="#aaffff" cx="386.0" cy="958.0" r="1.0"/>
     <text stroke="none" x="386.0" y="958.0" font-size="10.0" font-family="helvetica">NT1.10</text>
    </g>
    <g>
     <circle stroke="black" stroke-width="0.5" fill="#aaffff" cx="410.0" cy="693.0" r="1.0"/>
     <text stroke="none" x="410.0" y="693.0" font-size="10.0" font-family="helvetica">NT1.11</text>
    </g>
    <g>
     <circle stroke="black" stroke-width="0.5" fill="#aaffff" cx="436.0" cy="300.0" r="1.0"/>
     <text stroke="none" x="436.0" y="300.0" font-size="20.0" font-family="helvetica">35</text>
    </g>
    <g>
     <circle stroke="black" stroke-width="0.5" fill="#aaffff" cx="462.0" cy="1013.0" r="1.0"/>
     <text stroke="none" x="462.0" y="1013.0" font-size="20.0" font-family="helvetica">58</text>
    </g>
    <g>
     <circle stroke="black" stroke-width="0.5" fill="#aaffff" cx="466.0" cy="440.0" r="1.0"/>
     <text stroke="none" x="466.0" y="440.0" font-size="20.0" font-family="helvetica">Pasteurella multocida NCTC 1O322T (AYO78999)</text>
    </g>
    <g>
     <circle stroke="black" stroke-width="0.5" fill="#aaffff" cx="489.0" cy="561.0" r="1.0"/>
     <text stroke="none" x="489.0" y="561.0" font-size="20.0" font-family="helvetica">Mctinobacillusl muris NCTC 1 2432T (AY362894)</text>
    </g>
    <g>
     <circle stroke="black" stroke-width="0.5" fill="#aaffff" cx="500.0" cy="784.0" r="1.0"/>
     <text stroke="none" x="500.0" y="784.0" font-size="20.0" font-family="helvetica">45</text>
    </g>
    <g>
     <circle stroke="black" stroke-width="0.5" fill="#aaffff" cx="516.0" cy="502.0" r="1.0"/>
     <text stroke="none" x="516.0" y="502.0" font-size="20.0" font-family="helvetica">56</text>
    </g>
    <g>
     <circle stroke="black" stroke-width="0.5" fill="#aaffff" cx="519.0" cy="905.0" r="1.0"/>
     <text stroke="none" x="519.0" y="905.0" font-size="10.0" font-family="helvetica">NT1.18</text>
    </g>
    <g>
     <circle stroke="black" stroke-width="0.5" fill="#aaffff" cx="542.0" cy="240.0" r="1.0"/>
     <text stroke="none" x="542.0" y="240.0" font-size="20.0" font-family="helvetica">44</text>
    </g>
    <g>
     <circle stroke="black" stroke-width="0.5" fill="#aaffff" cx="557.0" cy="400.0" r="1.0"/>
     <text stroke="none" x="557.0" y="400.0" font-size="20.0" font-family="helvetica">Haemophilus influenzae Rd KW2O (NC_OOO907)</text>
    </g>
    <g>
     <circle stroke="black" stroke-width="0.5" fill="#aaffff" cx="575.0" cy="479.0" r="1.0"/>
     <text stroke="none" x="575.0" y="479.0" font-size="20.0" font-family="helvetica">1PasteureIla1 pneumotropica NCTC 8141T (M75083)</text>
    </g>
    <g>
     <circle stroke="black" stroke-width="0.5" fill="#aaffff" cx="638.0" cy="843.0" r="1.0"/>
     <text stroke="none" x="638.0" y="843.0" font-size="20.0" font-family="helvetica">Bibersteinia trehalosi NCTC 1O37OT (AY36292 7)</text>
    </g>
    <g>
     <circle stroke="black" stroke-width="0.5" fill="#aaffff" cx="641.0" cy="663.0" r="1.0"/>
     <text stroke="none" x="641.0" y="663.0" font-size="20.0" font-family="helvetica">34</text>
    </g>
    <g>
     <circle stroke="black" stroke-width="0.5" fill="#aaffff" cx="666.0" cy="986.0" r="1.0"/>
     <text stroke="none" x="666.0" y="986.0" font-size="20.0" font-family="helvetica">64</text>
    </g>
    <g>
     <circle stroke="black" stroke-width="0.5" fill="#aaffff" cx="707.0" cy="74.0" r="1.0"/>
     <text stroke="none" x="707.0" y="74.0" font-size="20.0" font-family="helvetica"/>
    </g>
    <g>
     <circle stroke="black" stroke-width="0.5" fill="#aaffff" cx="707.0" cy="161.0" r="1.0"/>
     <text stroke="none" x="707.0" y="161.0" font-size="10.0" font-family="helvetica">NT1.26</text>
    </g>
    <g>
     <circle stroke="black" stroke-width="0.5" fill="#aaffff" cx="715.0" cy="722.0" r="1.0"/>
     <text stroke="none" x="715.0" y="722.0" font-size="20.0" font-family="helvetica">Basfia succiniciproducens JF4O16T (FJ463881)</text>
    </g>
    <g>
     <circle stroke="black" stroke-width="0.5" fill="#aaffff" cx="717.0" cy="279.0" r="1.0"/>
     <text stroke="none" x="717.0" y="279.0" font-size="20.0" font-family="helvetica">FD497 (GU966654)</text>
    </g>
    <g>
     <circle stroke="black" stroke-width="0.5" fill="#aaffff" cx="717.0" cy="241.0" r="1.0"/>
     <text stroke="none" x="717.0" y="241.0" font-size="10.0" font-family="helvetica">NT1.29</text>
    </g>
    <g>
     <circle stroke="black" stroke-width="0.5" fill="#aaffff" cx="737.0" cy="208.0" r="1.0"/>
     <text stroke="none" x="737.0" y="208.0" font-size="20.0" font-family="helvetica">85</text>
    </g>
    <g>
     <circle stroke="black" stroke-width="0.5" fill="#aaffff" cx="740.0" cy="803.0" r="1.0"/>
     <text stroke="none" x="740.0" y="803.0" font-size="20.0" font-family="helvetica">Lonepinella koalarum ACM 3666T (Y1 7189)</text>
    </g>
    <g>
     <circle stroke="black" stroke-width="0.5" fill="#aaffff" cx="748.0" cy="238.0" r="1.0"/>
     <text stroke="none" x="748.0" y="238.0" font-size="20.0" font-family="helvetica">K423-6 (GU565607)</text>
    </g>
    <g>
     <circle stroke="black" stroke-width="0.5" fill="#aaffff" cx="819.0" cy="177.0" r="1.0"/>
     <text stroke="none" x="819.0" y="177.0" font-size="20.0" font-family="helvetica">P602 (GU966649) IORG1719_031</text>
    </g>
    <g>
     <circle stroke="black" stroke-width="0.5" fill="#aaffff" cx="847.0" cy="964.0" r="1.0"/>
     <text stroke="none" x="847.0" y="964.0" font-size="20.0" font-family="helvetica">Avibacterium gallinarum NCTC 1 1 188T (M75059)</text>
    </g>
    <g>
     <circle stroke="black" stroke-width="0.5" fill="#aaffff" cx="856.0" cy="1045.0" r="1.0"/>
     <text stroke="none" x="856.0" y="1045.0" font-size="20.0" font-family="helvetica">Volucribacter psittacicida Gerl. 236181T (AY21 6868)</text>
    </g>
    <g>
     <circle stroke="black" stroke-width="0.5" fill="#aaffff" cx="876.0" cy="641.0" r="1.0"/>
     <text stroke="none" x="876.0" y="641.0" font-size="20.0" font-family="helvetica">Mannheimia haemolytica NCTC 938OT (AF060699)</text>
    </g>
    <g>
     <circle stroke="black" stroke-width="0.5" fill="#aaffff" cx="915.0" cy="520.0" r="1.0"/>
     <text stroke="none" x="915.0" y="520.0" font-size="20.0" font-family="helvetica">Pasteurella) pneumotropica Heyl CNP 160 (AFO12090)</text>
    </g>
    <g>
     <circle stroke="black" stroke-width="0.5" fill="#aaffff" cx="916.0" cy="682.0" r="1.0"/>
     <text stroke="none" x="916.0" y="682.0" font-size="20.0" font-family="helvetica">Actinobacillus lignieresii NCTC 4189T (M75068)</text>
    </g>
    <g>
     <circle stroke="black" stroke-width="0.5" fill="#aaffff" cx="960.0" cy="883.0" r="1.0"/>
     <text stroke="none" x="960.0" y="883.0" font-size="20.0" font-family="helvetica">Histophilus somni 8O25T (AF549387)</text>
    </g>
    <g>
     <circle stroke="black" stroke-width="0.5" fill="#aaffff" cx="984.0" cy="359.0" r="1.0"/>
     <text stroke="none" x="984.0" y="359.0" font-size="20.0" font-family="helvetica">Aggregatibacter actinomycetemcomitans ATCC 333847 (M75039)</text>
    </g>
    <g>
     <circle stroke="black" stroke-width="0.5" fill="#aaffff" cx="990.0" cy="318.0" r="1.0"/>
     <text stroke="none" x="990.0" y="318.0" font-size="20.0" font-family="helvetica">P625 (euseesse)</text>
    </g>
    <g>
     <circle stroke="black" stroke-width="0.5" fill="#aaffff" cx="1038.0" cy="762.0" r="1.0"/>
     <text stroke="none" x="1038.0" y="762.0" font-size="20.0" font-family="helvetica">Phocoenobacter uteri NCTC 128727 (X89379)</text>
    </g>
    <g>
     <circle stroke="black" stroke-width="0.5" fill="#aaffff" cx="1296.0" cy="924.0" r="1.0"/>
     <text stroke="none" x="1296.0" y="924.0" font-size="20.0" font-family="helvetica">Chelonobacter oris 1662T (EU331064)</text>
    </g>
    <g>
     <circle stroke="black" stroke-width="0.5" fill="#aaffff" cx="1337.0" cy="1005.0" r="1.0"/>
     <text stroke="none" x="1337.0" y="1005.0" font-size="20.0" font-family="helvetica">Gallibacterium anatis F149T (AF228001)</text>
    </g>
    <line stroke="black" x1="707.0" y1="74.0" x2="707.0" y2="161.0" stroke-width="0.5"/>
    <line stroke="black" x1="717.0" y1="279.0" x2="717.0" y2="241.0" stroke-width="0.5"/>
    <line stroke="black" x1="324.0" y1="601.0" x2="61.0" y2="727.0" stroke-width="0.5"/>
    <line stroke="black" x1="915.0" y1="520.0" x2="516.0" y2="502.0" stroke-width="0.5"/>
    <line stroke="black" x1="638.0" y1="843.0" x2="366.0" y2="811.0" stroke-width="0.5"/>
    <line stroke="black" x1="740.0" y1="803.0" x2="500.0" y2="784.0" stroke-width="0.5"/>
    <line stroke="black" x1="707.0" y1="161.0" x2="542.0" y2="240.0" stroke-width="0.5"/>
    <line stroke="black" x1="707.0" y1="161.0" x2="717.0" y2="241.0" stroke-width="0.5"/>
    <line stroke="black" x1="717.0" y1="241.0" x2="737.0" y2="208.0" stroke-width="0.5"/>
    <line stroke="black" x1="542.0" y1="240.0" x2="436.0" y2="300.0" stroke-width="0.5"/>
    <line stroke="black" x1="436.0" y1="300.0" x2="314.0" y2="350.0" stroke-width="0.5"/>
    <line stroke="black" x1="314.0" y1="350.0" x2="226.0" y2="395.0" stroke-width="0.5"/>
    <line stroke="black" x1="226.0" y1="395.0" x2="80.0" y2="463.0" stroke-width="0.5"/>
    <line stroke="black" x1="80.0" y1="463.0" x2="271.0" y2="529.0" stroke-width="0.5"/>
    <line stroke="black" x1="271.0" y1="529.0" x2="516.0" y2="502.0" stroke-width="0.5"/>
    <line stroke="black" x1="61.0" y1="727.0" x2="201.0" y2="855.0" stroke-width="0.5"/>
    <line stroke="black" x1="201.0" y1="855.0" x2="386.0" y2="958.0" stroke-width="0.5"/>
    <line stroke="black" x1="201.0" y1="855.0" x2="314.0" y2="754.0" stroke-width="0.5"/>
    <line stroke="black" x1="314.0" y1="754.0" x2="366.0" y2="811.0" stroke-width="0.5"/>
    <line stroke="black" x1="314.0" y1="754.0" x2="410.0" y2="693.0" stroke-width="0.5"/>
    <line stroke="black" x1="386.0" y1="958.0" x2="462.0" y2="1013.0" stroke-width="0.5"/>
    <line stroke="black" x1="386.0" y1="958.0" x2="519.0" y2="905.0" stroke-width="0.5"/>
    <line stroke="black" x1="366.0" y1="811.0" x2="500.0" y2="784.0" stroke-width="0.5"/>
    <line stroke="black" x1="410.0" y1="693.0" x2="641.0" y2="663.0" stroke-width="0.5"/>
    <line stroke="black" x1="462.0" y1="1013.0" x2="666.0" y2="986.0" stroke-width="0.5"/>
    <line stroke="black" x1="80.0" y1="463.0" x2="61.0" y2="727.0" stroke-width="0.5"/>
    <line stroke="black" x1="466.0" y1="440.0" x2="226.0" y2="395.0" stroke-width="0.5"/>
    <line stroke="black" x1="489.0" y1="561.0" x2="271.0" y2="529.0" stroke-width="0.5"/>
    <line stroke="black" x1="557.0" y1="400.0" x2="314.0" y2="350.0" stroke-width="0.5"/>
    <line stroke="black" x1="715.0" y1="722.0" x2="410.0" y2="693.0" stroke-width="0.5"/>
    <line stroke="black" x1="575.0" y1="479.0" x2="516.0" y2="502.0" stroke-width="0.5"/>
    <line stroke="black" x1="856.0" y1="1045.0" x2="462.0" y2="1013.0" stroke-width="0.5"/>
    <line stroke="black" x1="984.0" y1="359.0" x2="436.0" y2="300.0" stroke-width="0.5"/>
    <line stroke="black" x1="960.0" y1="883.0" x2="519.0" y2="905.0" stroke-width="0.5"/>
    <line stroke="black" x1="1038.0" y1="762.0" x2="500.0" y2="784.0" stroke-width="0.5"/>
    <line stroke="black" x1="990.0" y1="318.0" x2="542.0" y2="240.0" stroke-width="0.5"/>
    <line stroke="black" x1="876.0" y1="641.0" x2="641.0" y2="663.0" stroke-width="0.5"/>
    <line stroke="black" x1="847.0" y1="964.0" x2="666.0" y2="986.0" stroke-width="0.5"/>
    <line stroke="black" x1="916.0" y1="682.0" x2="641.0" y2="663.0" stroke-width="0.5"/>
    <line stroke="black" x1="748.0" y1="238.0" x2="737.0" y2="208.0" stroke-width="0.5"/>
    <line stroke="black" x1="819.0" y1="177.0" x2="737.0" y2="208.0" stroke-width="0.5"/>
    <line stroke="black" x1="1296.0" y1="924.0" x2="519.0" y2="905.0" stroke-width="0.5"/>
    <line stroke="black" x1="1337.0" y1="1005.0" x2="666.0" y2="986.0" stroke-width="0.5"/>
   </g>
  </g>
 </svg>
</svg>
