<?xml version="1.0" encoding="UTF-8"?>
<svg height="800.0" width="700.0" xmlns="http://www.w3.org/2000/svg">
 <svg>
  <g>
   <g>
    <g>
     <circle stroke="black" stroke-width="0.5" fill="#aaffff" cx="25.0" cy="1129.0" r="1.0"/>
     <text stroke="none" x="25.0" y="1129.0" font-size="10.0" font-family="helvetica">NT1.1</text>
    </g>
    <g>
     <circle stroke="black" stroke-width="0.5" fill="#aaffff" cx="36.0" cy="1032.0" r="1.0"/>
     <text stroke="none" x="36.0" y="1032.0" font-size="10.0" font-family="helvetica">NT1.2</text>
    </g>
    <g>
     <circle stroke="black" stroke-width="0.5" fill="#aaffff" cx="60.0" cy="822.0" r="1.0"/>
     <text stroke="none" x="60.0" y="822.0" font-size="10.0" font-family="helvetica">NT1.3</text>
    </g>
    <g>
     <circle stroke="black" stroke-width="0.5" fill="#aaffff" cx="115.0" cy="773.0" r="1.0"/>
     <text stroke="none" x="115.0" y="773.0" font-size="10.0" font-family="helvetica">NT1.4</text>
    </g>
    <g>
     <circle stroke="black" stroke-width="0.5" fill="#aaffff" cx="117.0" cy="322.0" r="1.0"/>
     <text stroke="none" x="117.0" y="322.0" font-size="20.0" font-family="helvetica"/>
    </g>
    <g>
     <circle stroke="black" stroke-width="0.5" fill="#aaffff" cx="133.0" cy="1000.0" r="1.0"/>
     <text stroke="none" x="133.0" y="1000.0" font-size="10.0" font-family="helvetica">NT1.6</text>
    </g>
    <g>
     <circle stroke="black" stroke-width="0.5" fill="#aaffff" cx="137.0" cy="1079.0" r="1.0"/>
     <text stroke="none" x="137.0" y="1079.0" font-size="20.0" font-family="helvetica">P. gravidus NRRL Y-17093 (U84342)</text>
    </g>
    <g>
     <circle stroke="black" stroke-width="0.5" fill="#aaffff" cx="145.0" cy="675.0" r="1.0"/>
     <text stroke="none" x="145.0" y="675.0" font-size="10.0" font-family="helvetica">NT1.8</text>
    </g>
    <g>
     <circle stroke="black" stroke-width="0.5" fill="#aaffff" cx="146.0" cy="1025.0" r="1.0"/>
     <text stroke="none" x="146.0" y="1025.0" font-size="10.0" font-family="helvetica">NT1.9</text>
    </g>
    <g>
     <circle stroke="black" stroke-width="0.5" fill="#aaffff" cx="147.0" cy="1009.0" r="1.0"/>
     <text stroke="none" x="147.0" y="1009.0" font-size="20.0" font-family="helvetica">P. inundatus NRRL Y-6349 (U76528)</text>
    </g>
    <g>
     <circle stroke="black" stroke-width="0.5" fill="#aaffff" cx="148.0" cy="372.0" r="1.0"/>
     <text stroke="none" x="148.0" y="372.0" font-size="20.0" font-family="helvetica"/>
    </g>
    <g>
     <circle stroke="black" stroke-width="0.5" fill="#aaffff" cx="148.0" cy="1046.0" r="1.0"/>
     <text stroke="none" x="148.0" y="1046.0" font-size="20.0" font-family="helvetica">P. macrosporus NRRL Y-12879 (U94939)</text>
    </g>
    <g>
     <circle stroke="black" stroke-width="0.5" fill="#aaffff" cx="149.0" cy="1044.0" r="1.0"/>
     <text stroke="none" x="149.0" y="1044.0" font-size="10.0" font-family="helvetica">NT1.13</text>
    </g>
    <g>
     <circle stroke="black" stroke-width="0.5" fill="#aaffff" cx="154.0" cy="1044.0" r="1.0"/>
     <text stroke="none" x="154.0" y="1044.0" font-size="20.0" font-family="helvetica">P. macrosporus NRRL Y-12879 (U94939)</text>
    </g>
    <g>
     <circle stroke="black" stroke-width="0.5" fill="#aaffff" cx="154.0" cy="467.0" r="1.0"/>
     <text stroke="none" x="154.0" y="467.0" font-size="10.0" font-family="helvetica">NT1.15</text>
    </g>
    <g>
     <circle stroke="black" stroke-width="0.5" fill="#aaffff" cx="156.0" cy="801.0" r="1.0"/>
     <text stroke="none" x="156.0" y="801.0" font-size="20.0" font-family="helvetica">T. ulmi CBS 420.54 (AF492069)</text>
    </g>
    <g>
     <circle stroke="black" stroke-width="0.5" fill="#aaffff" cx="159.0" cy="699.0" r="1.0"/>
     <text stroke="none" x="159.0" y="699.0" font-size="20.0" font-family="helvetica">T. padi CBS 693.93 (AF492U48)</text>
    </g>
    <g>
     <circle stroke="black" stroke-width="0.5" fill="#aaffff" cx="160.0" cy="697.0" r="1.0"/>
     <text stroke="none" x="160.0" y="697.0" font-size="10.0" font-family="helvetica">NT1.18</text>
    </g>
    <g>
     <circle stroke="black" stroke-width="0.5" fill="#aaffff" cx="161.0" cy="362.0" r="1.0"/>
     <text stroke="none" x="161.0" y="362.0" font-size="20.0" font-family="helvetica">U. deformans1MZ109 (AJ276064)</text>
    </g>
    <g>
     <circle stroke="black" stroke-width="0.5" fill="#aaffff" cx="161.0" cy="629.0" r="1.0"/>
     <text stroke="none" x="161.0" y="629.0" font-size="20.0" font-family="helvetica">T. deformans NRRL T-857 (U9494B)</text>
    </g>
    <g>
     <circle stroke="black" stroke-width="0.5" fill="#aaffff" cx="161.0" cy="613.0" r="1.0"/>
     <text stroke="none" x="161.0" y="613.0" font-size="10.0" font-family="helvetica">NT1.21</text>
    </g>
    <g>
     <circle stroke="black" stroke-width="0.5" fill="#aaffff" cx="162.0" cy="593.0" r="1.0"/>
     <text stroke="none" x="162.0" y="593.0" font-size="20.0" font-family="helvetica">T. defonnans CBS 356.35 (AF492038)</text>
    </g>
    <g>
     <circle stroke="black" stroke-width="0.5" fill="#aaffff" cx="162.0" cy="767.0" r="1.0"/>
     <text stroke="none" x="162.0" y="767.0" font-size="20.0" font-family="helvetica">T. tosquinetii CBS 276.28 (AF492066)</text>
    </g>
    <g>
     <circle stroke="black" stroke-width="0.5" fill="#aaffff" cx="165.0" cy="379.0" r="1.0"/>
     <text stroke="none" x="165.0" y="379.0" font-size="20.0" font-family="helvetica"/>
    </g>
    <g>
     <circle stroke="black" stroke-width="0.5" fill="#aaffff" cx="165.0" cy="159.0" r="1.0"/>
     <text stroke="none" x="165.0" y="159.0" font-size="10.0" font-family="helvetica">NT1.25</text>
    </g>
    <g>
     <circle stroke="black" stroke-width="0.5" fill="#aaffff" cx="166.0" cy="284.0" r="1.0"/>
     <text stroke="none" x="166.0" y="284.0" font-size="20.0" font-family="helvetica">T. communis CBS 352.35 (AF492032)</text>
    </g>
    <g>
     <circle stroke="black" stroke-width="0.5" fill="#aaffff" cx="166.0" cy="697.0" r="1.0"/>
     <text stroke="none" x="166.0" y="697.0" font-size="20.0" font-family="helvetica">T. padi CBS 693.93 (AF492U48)</text>
    </g>
    <g>
     <circle stroke="black" stroke-width="0.5" fill="#aaffff" cx="167.0" cy="179.0" r="1.0"/>
     <text stroke="none" x="167.0" y="179.0" font-size="20.0" font-family="helvetica">T. nana CBS 336.55 (AF492047)</text>
    </g>
    <g>
     <circle stroke="black" stroke-width="0.5" fill="#aaffff" cx="167.0" cy="282.0" r="1.0"/>
     <text stroke="none" x="167.0" y="282.0" font-size="10.0" font-family="helvetica">NT1.29</text>
    </g>
    <g>
     <circle stroke="black" stroke-width="0.5" fill="#aaffff" cx="170.0" cy="282.0" r="1.0"/>
     <text stroke="none" x="170.0" y="282.0" font-size="20.0" font-family="helvetica">T. communis CBS 352.35 (AF492032)</text>
    </g>
    <g>
     <circle stroke="black" stroke-width="0.5" fill="#aaffff" cx="171.0" cy="559.0" r="1.0"/>
     <text stroke="none" x="171.0" y="559.0" font-size="20.0" font-family="helvetica">T. pruni CBS 358.35 (AF492055)</text>
    </g>
    <g>
     <circle stroke="black" stroke-width="0.5" fill="#aaffff" cx="172.0" cy="6.0" r="1.0"/>
     <text stroke="none" x="172.0" y="6.0" font-size="20.0" font-family="helvetica">T. virginica CBS 340.55 (AF492071)</text>
    </g>
    <g>
     <circle stroke="black" stroke-width="0.5" fill="#aaffff" cx="172.0" cy="383.0" r="1.0"/>
     <text stroke="none" x="172.0" y="383.0" font-size="10.0" font-family="helvetica">NT1.33</text>
    </g>
    <g>
     <circle stroke="black" stroke-width="0.5" fill="#aaffff" cx="174.0" cy="525.0" r="1.0"/>
     <text stroke="none" x="174.0" y="525.0" font-size="20.0" font-family="helvetica">T. sacchari NRRL T-21D (AF492061)</text>
    </g>
    <g>
     <circle stroke="black" stroke-width="0.5" fill="#aaffff" cx="177.0" cy="490.0" r="1.0"/>
     <text stroke="none" x="177.0" y="490.0" font-size="20.0" font-family="helvetica">T. dearnessii NRRL T-T96 (AF492o37)</text>
    </g>
    <g>
     <circle stroke="black" stroke-width="0.5" fill="#aaffff" cx="179.0" cy="361.0" r="1.0"/>
     <text stroke="none" x="179.0" y="361.0" font-size="10.0" font-family="helvetica">NT1.36</text>
    </g>
    <g>
     <circle stroke="black" stroke-width="0.5" fill="#aaffff" cx="180.0" cy="388.0" r="1.0"/>
     <text stroke="none" x="180.0" y="388.0" font-size="20.0" font-family="helvetica">T. tomlentillae CBS 339.55 (AF492D64)</text>
    </g>
    <g>
     <circle stroke="black" stroke-width="0.5" fill="#aaffff" cx="180.0" cy="835.0" r="1.0"/>
     <text stroke="none" x="180.0" y="835.0" font-size="20.0" font-family="helvetica">T. caerulescens CBS 351.35 (AF4-92028)</text>
    </g>
    <g>
     <circle stroke="black" stroke-width="0.5" fill="#aaffff" cx="181.0" cy="352.0" r="1.0"/>
     <text stroke="none" x="181.0" y="352.0" font-size="10.0" font-family="helvetica">NT1.39</text>
    </g>
    <g>
     <circle stroke="black" stroke-width="0.5" fill="#aaffff" cx="181.0" cy="386.0" r="1.0"/>
     <text stroke="none" x="181.0" y="386.0" font-size="20.0" font-family="helvetica">93</text>
    </g>
    <g>
     <circle stroke="black" stroke-width="0.5" fill="#aaffff" cx="183.0" cy="352.0" r="1.0"/>
     <text stroke="none" x="183.0" y="352.0" font-size="20.0" font-family="helvetica">U. deformans1MZ109 (AJ276064)</text>
    </g>
    <g>
     <circle stroke="black" stroke-width="0.5" fill="#aaffff" cx="184.0" cy="317.0" r="1.0"/>
     <text stroke="none" x="184.0" y="317.0" font-size="20.0" font-family="helvetica">T. carnea CBS 332.55 (AF492030)</text>
    </g>
    <g>
     <circle stroke="black" stroke-width="0.5" fill="#aaffff" cx="184.0" cy="732.0" r="1.0"/>
     <text stroke="none" x="184.0" y="732.0" font-size="20.0" font-family="helvetica">T. robinsoniana CBS 382.39 (AF492059)</text>
    </g>
    <g>
     <circle stroke="black" stroke-width="0.5" fill="#aaffff" cx="186.0" cy="386.0" r="1.0"/>
     <text stroke="none" x="186.0" y="386.0" font-size="20.0" font-family="helvetica">T. tomlentillae CBS 339.55 (AF492D64)</text>
    </g>
    <g>
     <circle stroke="black" stroke-width="0.5" fill="#aaffff" cx="197.0" cy="108.0" r="1.0"/>
     <text stroke="none" x="197.0" y="108.0" font-size="20.0" font-family="helvetica">T. sadebeckii CBS 102170 (AF492062)</text>
    </g>
    <g>
     <circle stroke="black" stroke-width="0.5" fill="#aaffff" cx="198.0" cy="976.0" r="1.0"/>
     <text stroke="none" x="198.0" y="976.0" font-size="20.0" font-family="helvetica">P. inouyei NRRL YB-4354 (U84344)</text>
    </g>
    <g>
     <circle stroke="black" stroke-width="0.5" fill="#aaffff" cx="198.0" cy="955.0" r="1.0"/>
     <text stroke="none" x="198.0" y="955.0" font-size="10.0" font-family="helvetica">NT1.47</text>
    </g>
    <g>
     <circle stroke="black" stroke-width="0.5" fill="#aaffff" cx="204.0" cy="940.0" r="1.0"/>
     <text stroke="none" x="204.0" y="940.0" font-size="20.0" font-family="helvetica">P. pachydermus NRRL YB-4355 (U84345)</text>
    </g>
    <g>
     <circle stroke="black" stroke-width="0.5" fill="#aaffff" cx="205.0" cy="927.0" r="1.0"/>
     <text stroke="none" x="205.0" y="927.0" font-size="10.0" font-family="helvetica">NT1.49</text>
    </g>
    <g>
     <circle stroke="black" stroke-width="0.5" fill="#aaffff" cx="210.0" cy="442.0" r="1.0"/>
     <text stroke="none" x="210.0" y="442.0" font-size="20.0" font-family="helvetica">93</text>
    </g>
    <g>
     <circle stroke="black" stroke-width="0.5" fill="#aaffff" cx="212.0" cy="905.0" r="1.0"/>
     <text stroke="none" x="212.0" y="905.0" font-size="20.0" font-family="helvetica">P. lactucae-debilis NRRL YB-4353 (U84343)</text>
    </g>
    <g>
     <circle stroke="black" stroke-width="0.5" fill="#aaffff" cx="229.0" cy="871.0" r="1.0"/>
     <text stroke="none" x="229.0" y="871.0" font-size="20.0" font-family="helvetica">T. vestergrenii CBS 679.93 (AF492070)</text>
    </g>
    <g>
     <circle stroke="black" stroke-width="0.5" fill="#aaffff" cx="244.0" cy="455.0" r="1.0"/>
     <text stroke="none" x="244.0" y="455.0" font-size="20.0" font-family="helvetica">T. populina CBS 337.55 (AF492050)</text>
    </g>
    <g>
     <circle stroke="black" stroke-width="0.5" fill="#aaffff" cx="252.0" cy="421.0" r="1.0"/>
     <text stroke="none" x="252.0" y="421.0" font-size="20.0" font-family="helvetica">T. johansonii CBS 378.39 (AF492041)</text>
    </g>
    <g>
     <circle stroke="black" stroke-width="0.5" fill="#aaffff" cx="354.0" cy="1148.0" r="1.0"/>
     <text stroke="none" x="354.0" y="1148.0" font-size="20.0" font-family="helvetica">Taphrina sp. UWO(PS)O0-1 51 a3 (AF313371)</text>
    </g>
    <g>
     <circle stroke="black" stroke-width="0.5" fill="#aaffff" cx="646.0" cy="1116.0" r="1.0"/>
     <text stroke="none" x="646.0" y="1116.0" font-size="20.0" font-family="helvetica">NRRL Y-17804 (U76530)</text>
    </g>
    <line stroke="black" x1="197.0" y1="108.0" x2="165.0" y2="159.0" stroke-width="0.5"/>
    <line stroke="black" x1="167.0" y1="179.0" x2="165.0" y2="159.0" stroke-width="0.5"/>
    <line stroke="black" x1="166.0" y1="284.0" x2="167.0" y2="282.0" stroke-width="0.5"/>
    <line stroke="black" x1="170.0" y1="282.0" x2="167.0" y2="282.0" stroke-width="0.5"/>
    <line stroke="black" x1="154.0" y1="467.0" x2="148.0" y2="372.0" stroke-width="0.5"/>
    <line stroke="black" x1="161.0" y1="362.0" x2="154.0" y2="467.0" stroke-width="0.5"/>
    <line stroke="black" x1="165.0" y1="379.0" x2="154.0" y2="467.0" stroke-width="0.5"/>
    <line stroke="black" x1="177.0" y1="490.0" x2="154.0" y2="467.0" stroke-width="0.5"/>
    <line stroke="black" x1="171.0" y1="559.0" x2="154.0" y2="467.0" stroke-width="0.5"/>
    <line stroke="black" x1="183.0" y1="352.0" x2="181.0" y2="352.0" stroke-width="0.5"/>
    <line stroke="black" x1="162.0" y1="593.0" x2="161.0" y2="613.0" stroke-width="0.5"/>
    <line stroke="black" x1="161.0" y1="629.0" x2="161.0" y2="613.0" stroke-width="0.5"/>
    <line stroke="black" x1="180.0" y1="388.0" x2="181.0" y2="386.0" stroke-width="0.5"/>
    <line stroke="black" x1="186.0" y1="386.0" x2="181.0" y2="386.0" stroke-width="0.5"/>
    <line stroke="black" x1="159.0" y1="699.0" x2="160.0" y2="697.0" stroke-width="0.5"/>
    <line stroke="black" x1="166.0" y1="697.0" x2="160.0" y2="697.0" stroke-width="0.5"/>
    <line stroke="black" x1="184.0" y1="732.0" x2="145.0" y2="675.0" stroke-width="0.5"/>
    <line stroke="black" x1="162.0" y1="767.0" x2="145.0" y2="675.0" stroke-width="0.5"/>
    <line stroke="black" x1="147.0" y1="1009.0" x2="146.0" y2="1025.0" stroke-width="0.5"/>
    <line stroke="black" x1="148.0" y1="1046.0" x2="149.0" y2="1044.0" stroke-width="0.5"/>
    <line stroke="black" x1="154.0" y1="1044.0" x2="149.0" y2="1044.0" stroke-width="0.5"/>
    <line stroke="black" x1="198.0" y1="976.0" x2="198.0" y2="955.0" stroke-width="0.5"/>
    <line stroke="black" x1="204.0" y1="940.0" x2="205.0" y2="927.0" stroke-width="0.5"/>
    <line stroke="black" x1="212.0" y1="905.0" x2="205.0" y2="927.0" stroke-width="0.5"/>
    <line stroke="black" x1="165.0" y1="159.0" x2="154.0" y2="467.0" stroke-width="0.5"/>
    <line stroke="black" x1="165.0" y1="159.0" x2="167.0" y2="282.0" stroke-width="0.5"/>
    <line stroke="black" x1="154.0" y1="467.0" x2="117.0" y2="322.0" stroke-width="0.5"/>
    <line stroke="black" x1="154.0" y1="467.0" x2="145.0" y2="675.0" stroke-width="0.5"/>
    <line stroke="black" x1="154.0" y1="467.0" x2="172.0" y2="383.0" stroke-width="0.5"/>
    <line stroke="black" x1="161.0" y1="613.0" x2="154.0" y2="467.0" stroke-width="0.5"/>
    <line stroke="black" x1="145.0" y1="675.0" x2="115.0" y2="773.0" stroke-width="0.5"/>
    <line stroke="black" x1="145.0" y1="675.0" x2="156.0" y2="801.0" stroke-width="0.5"/>
    <line stroke="black" x1="172.0" y1="383.0" x2="210.0" y2="442.0" stroke-width="0.5"/>
    <line stroke="black" x1="172.0" y1="383.0" x2="179.0" y2="361.0" stroke-width="0.5"/>
    <line stroke="black" x1="179.0" y1="361.0" x2="181.0" y2="386.0" stroke-width="0.5"/>
    <line stroke="black" x1="179.0" y1="361.0" x2="181.0" y2="352.0" stroke-width="0.5"/>
    <line stroke="black" x1="210.0" y1="442.0" x2="252.0" y2="421.0" stroke-width="0.5"/>
    <line stroke="black" x1="115.0" y1="773.0" x2="60.0" y2="822.0" stroke-width="0.5"/>
    <line stroke="black" x1="60.0" y1="822.0" x2="36.0" y2="1032.0" stroke-width="0.5"/>
    <line stroke="black" x1="36.0" y1="1032.0" x2="25.0" y2="1129.0" stroke-width="0.5"/>
    <line stroke="black" x1="36.0" y1="1032.0" x2="133.0" y2="1000.0" stroke-width="0.5"/>
    <line stroke="black" x1="133.0" y1="1000.0" x2="198.0" y2="955.0" stroke-width="0.5"/>
    <line stroke="black" x1="133.0" y1="1000.0" x2="146.0" y2="1025.0" stroke-width="0.5"/>
    <line stroke="black" x1="146.0" y1="1025.0" x2="149.0" y2="1044.0" stroke-width="0.5"/>
    <line stroke="black" x1="198.0" y1="955.0" x2="205.0" y2="927.0" stroke-width="0.5"/>
    <line stroke="black" x1="137.0" y1="1079.0" x2="36.0" y2="1032.0" stroke-width="0.5"/>
    <line stroke="black" x1="229.0" y1="871.0" x2="60.0" y2="822.0" stroke-width="0.5"/>
    <line stroke="black" x1="180.0" y1="835.0" x2="115.0" y2="773.0" stroke-width="0.5"/>
    <line stroke="black" x1="161.0" y1="613.0" x2="160.0" y2="697.0" stroke-width="0.5"/>
    <line stroke="black" x1="174.0" y1="525.0" x2="154.0" y2="467.0" stroke-width="0.5"/>
    <line stroke="black" x1="172.0" y1="6.0" x2="165.0" y2="159.0" stroke-width="0.5"/>
    <line stroke="black" x1="184.0" y1="317.0" x2="181.0" y2="352.0" stroke-width="0.5"/>
    <line stroke="black" x1="354.0" y1="1148.0" x2="25.0" y2="1129.0" stroke-width="0.5"/>
    <line stroke="black" x1="244.0" y1="455.0" x2="210.0" y2="442.0" stroke-width="0.5"/>
    <line stroke="black" x1="646.0" y1="1116.0" x2="25.0" y2="1129.0" stroke-width="0.5"/>
   </g>
  </g>
 </svg>
</svg>
