<?xml version="1.0" encoding="UTF-8"?>
<svg height="800.0" width="700.0" xmlns="http://www.w3.org/2000/svg">
 <svg>
  <g>
   <g>
    <g>
     <circle stroke="black" stroke-width="0.5" fill="#aaffff" cx="217.0" cy="447.0" r="1.0"/>
     <text stroke="none" x="217.0" y="447.0" font-size="10.0" font-family="helvetica">NT1.1</text>
    </g>
    <g>
     <circle stroke="black" stroke-width="0.5" fill="#aaffff" cx="231.0" cy="350.0" r="1.0"/>
     <text stroke="none" x="231.0" y="350.0" font-size="10.0" font-family="helvetica">NT1.2</text>
    </g>
    <g>
     <circle stroke="black" stroke-width="0.5" fill="#aaffff" cx="234.0" cy="545.0" r="1.0"/>
     <text stroke="none" x="234.0" y="545.0" font-size="10.0" font-family="helvetica">NT1.3</text>
    </g>
    <g>
     <circle stroke="black" stroke-width="0.5" fill="#aaffff" cx="264.0" cy="252.0" r="1.0"/>
     <text stroke="none" x="264.0" y="252.0" font-size="10.0" font-family="helvetica">NT1.4</text>
    </g>
    <g>
     <circle stroke="black" stroke-width="0.5" fill="#aaffff" cx="276.0" cy="303.0" r="1.0"/>
     <text stroke="none" x="276.0" y="303.0" font-size="10.0" font-family="helvetica">NT1.5</text>
    </g>
    <g>
     <circle stroke="black" stroke-width="0.5" fill="#aaffff" cx="282.0" cy="443.0" r="1.0"/>
     <text stroke="none" x="282.0" y="443.0" font-size="10.0" font-family="helvetica">NT1.6</text>
    </g>
    <g>
     <circle stroke="black" stroke-width="0.5" fill="#aaffff" cx="309.0" cy="271.0" r="1.0"/>
     <text stroke="none" x="309.0" y="271.0" font-size="20.0" font-family="helvetica">B. centrosporus DSM 8445T (AB112719)</text>
    </g>
    <g>
     <circle stroke="black" stroke-width="0.5" fill="#aaffff" cx="309.0" cy="472.0" r="1.0"/>
     <text stroke="none" x="309.0" y="472.0" font-size="10.0" font-family="helvetica">NT1.8</text>
    </g>
    <g>
     <circle stroke="black" stroke-width="0.5" fill="#aaffff" cx="316.0" cy="333.0" r="1.0"/>
     <text stroke="none" x="316.0" y="333.0" font-size="10.0" font-family="helvetica">NT1.9</text>
    </g>
    <g>
     <circle stroke="black" stroke-width="0.5" fill="#aaffff" cx="328.0" cy="564.0" r="1.0"/>
     <text stroke="none" x="328.0" y="564.0" font-size="20.0" font-family="helvetica">B. ginsengisoli Gsoil 3088T (AB245376)</text>
    </g>
    <g>
     <circle stroke="black" stroke-width="0.5" fill="#aaffff" cx="330.0" cy="362.0" r="1.0"/>
     <text stroke="none" x="330.0" y="362.0" font-size="20.0" font-family="helvetica">99</text>
    </g>
    <g>
     <circle stroke="black" stroke-width="0.5" fill="#aaffff" cx="331.0" cy="343.0" r="1.0"/>
     <text stroke="none" x="331.0" y="343.0" font-size="20.0" font-family="helvetica"/>
    </g>
    <g>
     <circle stroke="black" stroke-width="0.5" fill="#aaffff" cx="339.0" cy="381.0" r="1.0"/>
     <text stroke="none" x="339.0" y="381.0" font-size="20.0" font-family="helvetica">B. panacihumi C17 (EU383032)</text>
    </g>
    <g>
     <circle stroke="black" stroke-width="0.5" fill="#aaffff" cx="342.0" cy="308.0" r="1.0"/>
     <text stroke="none" x="342.0" y="308.0" font-size="20.0" font-family="helvetica">B. invocatus LMG 18962T (AF378232)</text>
    </g>
    <g>
     <circle stroke="black" stroke-width="0.5" fill="#aaffff" cx="342.0" cy="418.0" r="1.0"/>
     <text stroke="none" x="342.0" y="418.0" font-size="20.0" font-family="helvetica">B. borstelensis DSM 6347T (AB112721)</text>
    </g>
    <g>
     <circle stroke="black" stroke-width="0.5" fill="#aaffff" cx="342.0" cy="199.0" r="1.0"/>
     <text stroke="none" x="342.0" y="199.0" font-size="10.0" font-family="helvetica">NT1.16</text>
    </g>
    <g>
     <circle stroke="black" stroke-width="0.5" fill="#aaffff" cx="349.0" cy="162.0" r="1.0"/>
     <text stroke="none" x="349.0" y="162.0" font-size="10.0" font-family="helvetica">NT1.17</text>
    </g>
    <g>
     <circle stroke="black" stroke-width="0.5" fill="#aaffff" cx="353.0" cy="128.0" r="1.0"/>
     <text stroke="none" x="353.0" y="128.0" font-size="10.0" font-family="helvetica">NT1.18</text>
    </g>
    <g>
     <circle stroke="black" stroke-width="0.5" fill="#aaffff" cx="362.0" cy="93.0" r="1.0"/>
     <text stroke="none" x="362.0" y="93.0" font-size="20.0" font-family="helvetica">51</text>
    </g>
    <g>
     <circle stroke="black" stroke-width="0.5" fill="#aaffff" cx="366.0" cy="61.0" r="1.0"/>
     <text stroke="none" x="366.0" y="61.0" font-size="10.0" font-family="helvetica">NT1.20</text>
    </g>
    <g>
     <circle stroke="black" stroke-width="0.5" fill="#aaffff" cx="375.0" cy="15.0" r="1.0"/>
     <text stroke="none" x="375.0" y="15.0" font-size="20.0" font-family="helvetica"/>
    </g>
    <g>
     <circle stroke="black" stroke-width="0.5" fill="#aaffff" cx="375.0" cy="198.0" r="1.0"/>
     <text stroke="none" x="375.0" y="198.0" font-size="20.0" font-family="helvetica">B. agri DSM 6348T (AB112716)</text>
    </g>
    <g>
     <circle stroke="black" stroke-width="0.5" fill="#aaffff" cx="375.0" cy="34.0" r="1.0"/>
     <text stroke="none" x="375.0" y="34.0" font-size="20.0" font-family="helvetica">45</text>
    </g>
    <g>
     <circle stroke="black" stroke-width="0.5" fill="#aaffff" cx="376.0" cy="454.0" r="1.0"/>
     <text stroke="none" x="376.0" y="454.0" font-size="20.0" font-family="helvetica">B. levickii LMG 22481T (AJ715378)</text>
    </g>
    <g>
     <circle stroke="black" stroke-width="0.5" fill="#aaffff" cx="381.0" cy="625.0" r="1.0"/>
     <text stroke="none" x="381.0" y="625.0" font-size="20.0" font-family="helvetica"/>
    </g>
    <g>
     <circle stroke="black" stroke-width="0.5" fill="#aaffff" cx="384.0" cy="52.0" r="1.0"/>
     <text stroke="none" x="384.0" y="52.0" font-size="20.0" font-family="helvetica">B. formosus DSM 9885T (AB112712)</text>
    </g>
    <g>
     <circle stroke="black" stroke-width="0.5" fill="#aaffff" cx="389.0" cy="88.0" r="1.0"/>
     <text stroke="none" x="389.0" y="88.0" font-size="20.0" font-family="helvetica">B. choshinensis DSM 8552T (AB112713)</text>
    </g>
    <g>
     <circle stroke="black" stroke-width="0.5" fill="#aaffff" cx="406.0" cy="161.0" r="1.0"/>
     <text stroke="none" x="406.0" y="161.0" font-size="20.0" font-family="helvetica">B. parabrevis IFO 12334T (D78463)</text>
    </g>
    <g>
     <circle stroke="black" stroke-width="0.5" fill="#aaffff" cx="410.0" cy="124.0" r="1.0"/>
     <text stroke="none" x="410.0" y="124.0" font-size="20.0" font-family="helvetica">B. reuszeri DSM 98877 (AB112715)</text>
    </g>
    <g>
     <circle stroke="black" stroke-width="0.5" fill="#aaffff" cx="411.0" cy="235.0" r="1.0"/>
     <text stroke="none" x="411.0" y="235.0" font-size="20.0" font-family="helvetica">B. Iimnophilus DSM 6472T (AB112717)</text>
    </g>
    <g>
     <circle stroke="black" stroke-width="0.5" fill="#aaffff" cx="411.0" cy="528.0" r="1.0"/>
     <text stroke="none" x="411.0" y="528.0" font-size="20.0" font-family="helvetica">B. laterosporus DSM 25T (AB112720)</text>
    </g>
    <g>
     <circle stroke="black" stroke-width="0.5" fill="#aaffff" cx="450.0" cy="491.0" r="1.0"/>
     <text stroke="none" x="450.0" y="491.0" font-size="20.0" font-family="helvetica">B. thermoruber DSM 7064T (AB112722)</text>
    </g>
    <line stroke="black" x1="375.0" y1="15.0" x2="375.0" y2="34.0" stroke-width="0.5"/>
    <line stroke="black" x1="384.0" y1="52.0" x2="375.0" y2="34.0" stroke-width="0.5"/>
    <line stroke="black" x1="375.0" y1="198.0" x2="349.0" y2="162.0" stroke-width="0.5"/>
    <line stroke="black" x1="331.0" y1="343.0" x2="330.0" y2="362.0" stroke-width="0.5"/>
    <line stroke="black" x1="342.0" y1="418.0" x2="282.0" y2="443.0" stroke-width="0.5"/>
    <line stroke="black" x1="376.0" y1="454.0" x2="309.0" y2="472.0" stroke-width="0.5"/>
    <line stroke="black" x1="375.0" y1="34.0" x2="366.0" y2="61.0" stroke-width="0.5"/>
    <line stroke="black" x1="366.0" y1="61.0" x2="362.0" y2="93.0" stroke-width="0.5"/>
    <line stroke="black" x1="362.0" y1="93.0" x2="353.0" y2="128.0" stroke-width="0.5"/>
    <line stroke="black" x1="353.0" y1="128.0" x2="349.0" y2="162.0" stroke-width="0.5"/>
    <line stroke="black" x1="349.0" y1="162.0" x2="342.0" y2="199.0" stroke-width="0.5"/>
    <line stroke="black" x1="342.0" y1="199.0" x2="264.0" y2="252.0" stroke-width="0.5"/>
    <line stroke="black" x1="264.0" y1="252.0" x2="231.0" y2="350.0" stroke-width="0.5"/>
    <line stroke="black" x1="264.0" y1="252.0" x2="276.0" y2="303.0" stroke-width="0.5"/>
    <line stroke="black" x1="276.0" y1="303.0" x2="316.0" y2="333.0" stroke-width="0.5"/>
    <line stroke="black" x1="231.0" y1="350.0" x2="217.0" y2="447.0" stroke-width="0.5"/>
    <line stroke="black" x1="231.0" y1="350.0" x2="282.0" y2="443.0" stroke-width="0.5"/>
    <line stroke="black" x1="316.0" y1="333.0" x2="330.0" y2="362.0" stroke-width="0.5"/>
    <line stroke="black" x1="217.0" y1="447.0" x2="234.0" y2="545.0" stroke-width="0.5"/>
    <line stroke="black" x1="282.0" y1="443.0" x2="309.0" y2="472.0" stroke-width="0.5"/>
    <line stroke="black" x1="381.0" y1="625.0" x2="217.0" y2="447.0" stroke-width="0.5"/>
    <line stroke="black" x1="328.0" y1="564.0" x2="234.0" y2="545.0" stroke-width="0.5"/>
    <line stroke="black" x1="309.0" y1="271.0" x2="276.0" y2="303.0" stroke-width="0.5"/>
    <line stroke="black" x1="411.0" y1="528.0" x2="234.0" y2="545.0" stroke-width="0.5"/>
    <line stroke="black" x1="342.0" y1="308.0" x2="316.0" y2="333.0" stroke-width="0.5"/>
    <line stroke="black" x1="339.0" y1="381.0" x2="330.0" y2="362.0" stroke-width="0.5"/>
    <line stroke="black" x1="450.0" y1="491.0" x2="309.0" y2="472.0" stroke-width="0.5"/>
    <line stroke="black" x1="411.0" y1="235.0" x2="342.0" y2="199.0" stroke-width="0.5"/>
    <line stroke="black" x1="406.0" y1="161.0" x2="353.0" y2="128.0" stroke-width="0.5"/>
    <line stroke="black" x1="389.0" y1="88.0" x2="366.0" y2="61.0" stroke-width="0.5"/>
    <line stroke="black" x1="410.0" y1="124.0" x2="362.0" y2="93.0" stroke-width="0.5"/>
   </g>
  </g>
 </svg>
</svg>
