<?xml version="1.0" encoding="UTF-8"?>
<svg height="800.0" width="700.0" xmlns="http://www.w3.org/2000/svg">
 <svg>
  <g>
   <g>
    <g>
     <circle stroke="black" stroke-width="0.5" fill="#aaffff" cx="5.0" cy="545.0" r="1.0"/>
     <text stroke="none" x="5.0" y="545.0" font-size="20.0" font-family="helvetica"/>
    </g>
    <g>
     <circle stroke="black" stroke-width="0.5" fill="#aaffff" cx="49.0" cy="545.0" r="1.0"/>
     <text stroke="none" x="49.0" y="545.0" font-size="10.0" font-family="helvetica">NT1.2</text>
    </g>
    <g>
     <circle stroke="black" stroke-width="0.5" fill="#aaffff" cx="93.0" cy="455.0" r="1.0"/>
     <text stroke="none" x="93.0" y="455.0" font-size="10.0" font-family="helvetica">NT1.3</text>
    </g>
    <g>
     <circle stroke="black" stroke-width="0.5" fill="#aaffff" cx="209.0" cy="571.0" r="1.0"/>
     <text stroke="none" x="209.0" y="571.0" font-size="10.0" font-family="helvetica">NT1.4</text>
    </g>
    <g>
     <circle stroke="black" stroke-width="0.5" fill="#aaffff" cx="260.0" cy="349.0" r="1.0"/>
     <text stroke="none" x="260.0" y="349.0" font-size="10.0" font-family="helvetica">NT1.5</text>
    </g>
    <g>
     <circle stroke="black" stroke-width="0.5" fill="#aaffff" cx="321.0" cy="217.0" r="1.0"/>
     <text stroke="none" x="321.0" y="217.0" font-size="10.0" font-family="helvetica">NT1.6</text>
    </g>
    <g>
     <circle stroke="black" stroke-width="0.5" fill="#aaffff" cx="333.0" cy="145.0" r="1.0"/>
     <text stroke="none" x="333.0" y="145.0" font-size="10.0" font-family="helvetica">NT1.7</text>
    </g>
    <g>
     <circle stroke="black" stroke-width="0.5" fill="#aaffff" cx="343.0" cy="132.0" r="1.0"/>
     <text stroke="none" x="343.0" y="132.0" font-size="10.0" font-family="helvetica">NT1.8</text>
    </g>
    <g>
     <circle stroke="black" stroke-width="0.5" fill="#aaffff" cx="355.0" cy="38.0" r="1.0"/>
     <text stroke="none" x="355.0" y="38.0" font-size="10.0" font-family="helvetica">NT1.9</text>
    </g>
    <g>
     <circle stroke="black" stroke-width="0.5" fill="#aaffff" cx="356.0" cy="62.0" r="1.0"/>
     <text stroke="none" x="356.0" y="62.0" font-size="20.0" font-family="helvetica">Porphyrobacter donghaensis SW-158 (AY559429)</text>
    </g>
    <g>
     <circle stroke="black" stroke-width="0.5" fill="#aaffff" cx="356.0" cy="488.0" r="1.0"/>
     <text stroke="none" x="356.0" y="488.0" font-size="10.0" font-family="helvetica">NT1.11</text>
    </g>
    <g>
     <circle stroke="black" stroke-width="0.5" fill="#aaffff" cx="359.0" cy="13.0" r="1.0"/>
     <text stroke="none" x="359.0" y="13.0" font-size="20.0" font-family="helvetica">Porphyrobacter donghaensis SW-132T (AY559428)</text>
    </g>
    <g>
     <circle stroke="black" stroke-width="0.5" fill="#aaffff" cx="362.0" cy="631.0" r="1.0"/>
     <text stroke="none" x="362.0" y="631.0" font-size="20.0" font-family="helvetica">Sandaracinobacter sibiricus RB16-17T (Y10678)</text>
    </g>
    <g>
     <circle stroke="black" stroke-width="0.5" fill="#aaffff" cx="390.0" cy="203.0" r="1.0"/>
     <text stroke="none" x="390.0" y="203.0" font-size="20.0" font-family="helvetica">Porphyrobacter neustonensis DSM 9434T (AB033327)</text>
    </g>
    <g>
     <circle stroke="black" stroke-width="0.5" fill="#aaffff" cx="393.0" cy="250.0" r="1.0"/>
     <text stroke="none" x="393.0" y="250.0" font-size="10.0" font-family="helvetica">NT1.15</text>
    </g>
    <g>
     <circle stroke="black" stroke-width="0.5" fill="#aaffff" cx="393.0" cy="298.0" r="1.0"/>
     <text stroke="none" x="393.0" y="298.0" font-size="20.0" font-family="helvetica">Porphyrobacter cryptus ATCC BAA-386T (AF465834)</text>
    </g>
    <g>
     <circle stroke="black" stroke-width="0.5" fill="#aaffff" cx="425.0" cy="156.0" r="1.0"/>
     <text stroke="none" x="425.0" y="156.0" font-size="10.0" font-family="helvetica">NT1.17</text>
    </g>
    <g>
     <circle stroke="black" stroke-width="0.5" fill="#aaffff" cx="428.0" cy="108.0" r="1.0"/>
     <text stroke="none" x="428.0" y="108.0" font-size="20.0" font-family="helvetica">Porphyrobacter sanguineus IAM 12620T (ABO21493)</text>
    </g>
    <g>
     <circle stroke="black" stroke-width="0.5" fill="#aaffff" cx="428.0" cy="393.0" r="1.0"/>
     <text stroke="none" x="428.0" y="393.0" font-size="20.0" font-family="helvetica">Erythrobacter citreus CIP 107092T (AF118020)</text>
    </g>
    <g>
     <circle stroke="black" stroke-width="0.5" fill="#aaffff" cx="449.0" cy="346.0" r="1.0"/>
     <text stroke="none" x="449.0" y="346.0" font-size="20.0" font-family="helvetica">Elythrobacter flavus KCCM 41642T (AF5000O4)</text>
    </g>
    <g>
     <circle stroke="black" stroke-width="0.5" fill="#aaffff" cx="476.0" cy="536.0" r="1.0"/>
     <text stroke="none" x="476.0" y="536.0" font-size="20.0" font-family="helvetica">Sphingomonas paucimobilis IFO 13935T (D13725)</text>
    </g>
    <g>
     <circle stroke="black" stroke-width="0.5" fill="#aaffff" cx="500.0" cy="441.0" r="1.0"/>
     <text stroke="none" x="500.0" y="441.0" font-size="20.0" font-family="helvetica">Erythrobacter longus ATCC 33941T (L01786)</text>
    </g>
    <g>
     <circle stroke="black" stroke-width="0.5" fill="#aaffff" cx="521.0" cy="584.0" r="1.0"/>
     <text stroke="none" x="521.0" y="584.0" font-size="20.0" font-family="helvetica">Sphingobium yanoikuyae IFO 151O2T (D13728)</text>
    </g>
    <line stroke="black" x1="356.0" y1="62.0" x2="355.0" y2="38.0" stroke-width="0.5"/>
    <line stroke="black" x1="393.0" y1="298.0" x2="260.0" y2="349.0" stroke-width="0.5"/>
    <line stroke="black" x1="5.0" y1="545.0" x2="49.0" y2="545.0" stroke-width="0.5"/>
    <line stroke="black" x1="521.0" y1="584.0" x2="209.0" y2="571.0" stroke-width="0.5"/>
    <line stroke="black" x1="359.0" y1="13.0" x2="355.0" y2="38.0" stroke-width="0.5"/>
    <line stroke="black" x1="355.0" y1="38.0" x2="343.0" y2="132.0" stroke-width="0.5"/>
    <line stroke="black" x1="343.0" y1="132.0" x2="333.0" y2="145.0" stroke-width="0.5"/>
    <line stroke="black" x1="333.0" y1="145.0" x2="321.0" y2="217.0" stroke-width="0.5"/>
    <line stroke="black" x1="260.0" y1="349.0" x2="93.0" y2="455.0" stroke-width="0.5"/>
    <line stroke="black" x1="93.0" y1="455.0" x2="49.0" y2="545.0" stroke-width="0.5"/>
    <line stroke="black" x1="93.0" y1="455.0" x2="209.0" y2="571.0" stroke-width="0.5"/>
    <line stroke="black" x1="362.0" y1="631.0" x2="49.0" y2="545.0" stroke-width="0.5"/>
    <line stroke="black" x1="476.0" y1="536.0" x2="209.0" y2="571.0" stroke-width="0.5"/>
    <line stroke="black" x1="390.0" y1="203.0" x2="333.0" y2="145.0" stroke-width="0.5"/>
    <line stroke="black" x1="500.0" y1="441.0" x2="260.0" y2="349.0" stroke-width="0.5"/>
    <line stroke="black" x1="428.0" y1="393.0" x2="260.0" y2="349.0" stroke-width="0.5"/>
    <line stroke="black" x1="428.0" y1="108.0" x2="343.0" y2="132.0" stroke-width="0.5"/>
    <line stroke="black" x1="449.0" y1="346.0" x2="260.0" y2="349.0" stroke-width="0.5"/>
   </g>
  </g>
 </svg>
</svg>
