<?xml version="1.0" encoding="UTF-8"?>
<svg height="800.0" width="700.0" xmlns="http://www.w3.org/2000/svg">
 <svg>
  <g>
   <g>
    <g>
     <circle stroke="black" stroke-width="0.5" fill="#aaffff" cx="22.0" cy="565.0" r="1.0"/>
     <text stroke="none" x="22.0" y="565.0" font-size="10.0" font-family="helvetica">NT1.1</text>
    </g>
    <g>
     <circle stroke="black" stroke-width="0.5" fill="#aaffff" cx="23.0" cy="465.0" r="1.0"/>
     <text stroke="none" x="23.0" y="465.0" font-size="20.0" font-family="helvetica"/>
    </g>
    <g>
     <circle stroke="black" stroke-width="0.5" fill="#aaffff" cx="30.0" cy="462.0" r="1.0"/>
     <text stroke="none" x="30.0" y="462.0" font-size="10.0" font-family="helvetica">NT1.3</text>
    </g>
    <g>
     <circle stroke="black" stroke-width="0.5" fill="#aaffff" cx="75.0" cy="471.0" r="1.0"/>
     <text stroke="none" x="75.0" y="471.0" font-size="10.0" font-family="helvetica">NT1.4</text>
    </g>
    <g>
     <circle stroke="black" stroke-width="0.5" fill="#aaffff" cx="116.0" cy="656.0" r="1.0"/>
     <text stroke="none" x="116.0" y="656.0" font-size="10.0" font-family="helvetica">NT1.5</text>
    </g>
    <g>
     <circle stroke="black" stroke-width="0.5" fill="#aaffff" cx="136.0" cy="376.0" r="1.0"/>
     <text stroke="none" x="136.0" y="376.0" font-size="20.0" font-family="helvetica"/>
    </g>
    <g>
     <circle stroke="black" stroke-width="0.5" fill="#aaffff" cx="144.0" cy="365.0" r="1.0"/>
     <text stroke="none" x="144.0" y="365.0" font-size="20.0" font-family="helvetica"/>
    </g>
    <g>
     <circle stroke="black" stroke-width="0.5" fill="#aaffff" cx="149.0" cy="382.0" r="1.0"/>
     <text stroke="none" x="149.0" y="382.0" font-size="10.0" font-family="helvetica">NT1.8</text>
    </g>
    <g>
     <circle stroke="black" stroke-width="0.5" fill="#aaffff" cx="177.0" cy="561.0" r="1.0"/>
     <text stroke="none" x="177.0" y="561.0" font-size="10.0" font-family="helvetica">NT1.9</text>
    </g>
    <g>
     <circle stroke="black" stroke-width="0.5" fill="#aaffff" cx="343.0" cy="728.0" r="1.0"/>
     <text stroke="none" x="343.0" y="728.0" font-size="20.0" font-family="helvetica">Torulaspora delbrueckii NRRL Y-8667 (U72156 AY046187)</text>
    </g>
    <g>
     <circle stroke="black" stroke-width="0.5" fill="#aaffff" cx="346.0" cy="632.0" r="1.0"/>
     <text stroke="none" x="346.0" y="632.0" font-size="20.0" font-family="helvetica">Naumavfa castellif NRRL Y-126307 (U68557 AY046180)</text>
    </g>
    <g>
     <circle stroke="black" stroke-width="0.5" fill="#aaffff" cx="407.0" cy="471.0" r="1.0"/>
     <text stroke="none" x="407.0" y="471.0" font-size="10.0" font-family="helvetica">NT1.12</text>
    </g>
    <g>
     <circle stroke="black" stroke-width="0.5" fill="#aaffff" cx="411.0" cy="680.0" r="1.0"/>
     <text stroke="none" x="411.0" y="680.0" font-size="20.0" font-family="helvetica">Naumovia dairenensis NRRL Y-126397 (U68556. AY046181)</text>
    </g>
    <g>
     <circle stroke="black" stroke-width="0.5" fill="#aaffff" cx="469.0" cy="444.0" r="1.0"/>
     <text stroke="none" x="469.0" y="444.0" font-size="20.0" font-family="helvetica">Kazachstania unisporus NRRL Y-1556' (U68554 AYO46154)</text>
    </g>
    <g>
     <circle stroke="black" stroke-width="0.5" fill="#aaffff" cx="494.0" cy="492.0" r="1.0"/>
     <text stroke="none" x="494.0" y="492.0" font-size="20.0" font-family="helvetica">Kazachstanla servazzii NRRL Y-126617 (U68558 AY046153)</text>
    </g>
    <g>
     <circle stroke="black" stroke-width="0.5" fill="#aaffff" cx="511.0" cy="539.0" r="1.0"/>
     <text stroke="none" x="511.0" y="539.0" font-size="20.0" font-family="helvetica">Kazachstania exigua NRRL Y-1264ONT (U68553 AY046170)</text>
    </g>
    <g>
     <circle stroke="black" stroke-width="0.5" fill="#aaffff" cx="545.0" cy="297.0" r="1.0"/>
     <text stroke="none" x="545.0" y="297.0" font-size="20.0" font-family="helvetica">98</text>
    </g>
    <g>
     <circle stroke="black" stroke-width="0.5" fill="#aaffff" cx="555.0" cy="221.0" r="1.0"/>
     <text stroke="none" x="555.0" y="221.0" font-size="20.0" font-family="helvetica">54</text>
    </g>
    <g>
     <circle stroke="black" stroke-width="0.5" fill="#aaffff" cx="559.0" cy="163.0" r="1.0"/>
     <text stroke="none" x="559.0" y="163.0" font-size="10.0" font-family="helvetica">NT1.19</text>
    </g>
    <g>
     <circle stroke="black" stroke-width="0.5" fill="#aaffff" cx="567.0" cy="119.0" r="1.0"/>
     <text stroke="none" x="567.0" y="119.0" font-size="10.0" font-family="helvetica">NT1.20</text>
    </g>
    <g>
     <circle stroke="black" stroke-width="0.5" fill="#aaffff" cx="571.0" cy="65.0" r="1.0"/>
     <text stroke="none" x="571.0" y="65.0" font-size="10.0" font-family="helvetica">NT1.21</text>
    </g>
    <g>
     <circle stroke="black" stroke-width="0.5" fill="#aaffff" cx="575.0" cy="277.0" r="1.0"/>
     <text stroke="none" x="575.0" y="277.0" font-size="20.0" font-family="helvetica">98</text>
    </g>
    <g>
     <circle stroke="black" stroke-width="0.5" fill="#aaffff" cx="577.0" cy="76.0" r="1.0"/>
     <text stroke="none" x="577.0" y="76.0" font-size="10.0" font-family="helvetica">NT1.23</text>
    </g>
    <g>
     <circle stroke="black" stroke-width="0.5" fill="#aaffff" cx="578.0" cy="62.0" r="1.0"/>
     <text stroke="none" x="578.0" y="62.0" font-size="20.0" font-family="helvetica">Saccharomyces cariocanus NRRL Y-273377 (AF398478 AY046147)</text>
    </g>
    <g>
     <circle stroke="black" stroke-width="0.5" fill="#aaffff" cx="582.0" cy="253.0" r="1.0"/>
     <text stroke="none" x="582.0" y="253.0" font-size="20.0" font-family="helvetica">Saccharumyces kudriavzevii NRRL Y-27340 (AY130340) AY130307)</text>
    </g>
    <g>
     <circle stroke="black" stroke-width="0.5" fill="#aaffff" cx="582.0" cy="379.0" r="1.0"/>
     <text stroke="none" x="582.0" y="379.0" font-size="10.0" font-family="helvetica">NT1.26</text>
    </g>
    <g>
     <circle stroke="black" stroke-width="0.5" fill="#aaffff" cx="583.0" cy="349.0" r="1.0"/>
     <text stroke="none" x="583.0" y="349.0" font-size="20.0" font-family="helvetica">Sacchammyces pastorianus NRRL Y-27171N' (U68547 AY046151)</text>
    </g>
    <g>
     <circle stroke="black" stroke-width="0.5" fill="#aaffff" cx="583.0" cy="397.0" r="1.0"/>
     <text stroke="none" x="583.0" y="397.0" font-size="20.0" font-family="helvetica"/>
    </g>
    <g>
     <circle stroke="black" stroke-width="0.5" fill="#aaffff" cx="592.0" cy="301.0" r="1.0"/>
     <text stroke="none" x="592.0" y="301.0" font-size="20.0" font-family="helvetica">Saccharomyces kudriavzevfi IFO 18027 (AB040995. AYO46150)</text>
    </g>
    <g>
     <circle stroke="black" stroke-width="0.5" fill="#aaffff" cx="594.0" cy="48.0" r="1.0"/>
     <text stroke="none" x="594.0" y="48.0" font-size="10.0" font-family="helvetica">NT1.30</text>
    </g>
    <g>
     <circle stroke="black" stroke-width="0.5" fill="#aaffff" cx="599.0" cy="17.0" r="1.0"/>
     <text stroke="none" x="599.0" y="17.0" font-size="20.0" font-family="helvetica">Saccharomyces paradoxus NRRL Y-17217NT (U68555 AY046148)</text>
    </g>
    <g>
     <circle stroke="black" stroke-width="0.5" fill="#aaffff" cx="601.0" cy="65.0" r="1.0"/>
     <text stroke="none" x="601.0" y="65.0" font-size="20.0" font-family="helvetica">Saccharomyces cariocanus NRRL Y-273377 (AF398478 AY046147)</text>
    </g>
    <g>
     <circle stroke="black" stroke-width="0.5" fill="#aaffff" cx="603.0" cy="206.0" r="1.0"/>
     <text stroke="none" x="603.0" y="206.0" font-size="20.0" font-family="helvetica">Saccharomyces arboricolus AS 2.3317T (EF580918 EF580917)</text>
    </g>
    <g>
     <circle stroke="black" stroke-width="0.5" fill="#aaffff" cx="608.0" cy="160.0" r="1.0"/>
     <text stroke="none" x="608.0" y="160.0" font-size="20.0" font-family="helvetica">Saccharomyces mikatae IFO 1815T (ABO40996 AY046149)</text>
    </g>
    <g>
     <circle stroke="black" stroke-width="0.5" fill="#aaffff" cx="613.0" cy="112.0" r="1.0"/>
     <text stroke="none" x="613.0" y="112.0" font-size="20.0" font-family="helvetica">Saccharomyces cerevisiae NRRL Y-12632NT (U44806 AYO46146)</text>
    </g>
    <g>
     <circle stroke="black" stroke-width="0.5" fill="#aaffff" cx="686.0" cy="585.0" r="1.0"/>
     <text stroke="none" x="686.0" y="585.0" font-size="20.0" font-family="helvetica">Kazachstania viticola NRRL Y-272067 (AF398482 AY046162)</text>
    </g>
    <line stroke="black" x1="601.0" y1="65.0" x2="594.0" y2="48.0" stroke-width="0.5"/>
    <line stroke="black" x1="578.0" y1="62.0" x2="571.0" y2="65.0" stroke-width="0.5"/>
    <line stroke="black" x1="613.0" y1="112.0" x2="577.0" y2="76.0" stroke-width="0.5"/>
    <line stroke="black" x1="608.0" y1="160.0" x2="567.0" y2="119.0" stroke-width="0.5"/>
    <line stroke="black" x1="603.0" y1="206.0" x2="559.0" y2="163.0" stroke-width="0.5"/>
    <line stroke="black" x1="582.0" y1="253.0" x2="575.0" y2="277.0" stroke-width="0.5"/>
    <line stroke="black" x1="592.0" y1="301.0" x2="575.0" y2="277.0" stroke-width="0.5"/>
    <line stroke="black" x1="583.0" y1="349.0" x2="582.0" y2="379.0" stroke-width="0.5"/>
    <line stroke="black" x1="583.0" y1="397.0" x2="582.0" y2="379.0" stroke-width="0.5"/>
    <line stroke="black" x1="136.0" y1="376.0" x2="149.0" y2="382.0" stroke-width="0.5"/>
    <line stroke="black" x1="23.0" y1="465.0" x2="75.0" y2="471.0" stroke-width="0.5"/>
    <line stroke="black" x1="469.0" y1="444.0" x2="407.0" y2="471.0" stroke-width="0.5"/>
    <line stroke="black" x1="494.0" y1="492.0" x2="407.0" y2="471.0" stroke-width="0.5"/>
    <line stroke="black" x1="599.0" y1="17.0" x2="594.0" y2="48.0" stroke-width="0.5"/>
    <line stroke="black" x1="594.0" y1="48.0" x2="577.0" y2="76.0" stroke-width="0.5"/>
    <line stroke="black" x1="577.0" y1="76.0" x2="571.0" y2="65.0" stroke-width="0.5"/>
    <line stroke="black" x1="577.0" y1="76.0" x2="571.0" y2="65.0" stroke-width="0.5"/>
    <line stroke="black" x1="577.0" y1="76.0" x2="567.0" y2="119.0" stroke-width="0.5"/>
    <line stroke="black" x1="567.0" y1="119.0" x2="559.0" y2="163.0" stroke-width="0.5"/>
    <line stroke="black" x1="559.0" y1="163.0" x2="555.0" y2="221.0" stroke-width="0.5"/>
    <line stroke="black" x1="555.0" y1="221.0" x2="545.0" y2="297.0" stroke-width="0.5"/>
    <line stroke="black" x1="555.0" y1="221.0" x2="575.0" y2="277.0" stroke-width="0.5"/>
    <line stroke="black" x1="545.0" y1="297.0" x2="149.0" y2="382.0" stroke-width="0.5"/>
    <line stroke="black" x1="545.0" y1="297.0" x2="582.0" y2="379.0" stroke-width="0.5"/>
    <line stroke="black" x1="149.0" y1="382.0" x2="407.0" y2="471.0" stroke-width="0.5"/>
    <line stroke="black" x1="149.0" y1="382.0" x2="75.0" y2="471.0" stroke-width="0.5"/>
    <line stroke="black" x1="75.0" y1="471.0" x2="177.0" y2="561.0" stroke-width="0.5"/>
    <line stroke="black" x1="75.0" y1="471.0" x2="22.0" y2="565.0" stroke-width="0.5"/>
    <line stroke="black" x1="75.0" y1="471.0" x2="30.0" y2="462.0" stroke-width="0.5"/>
    <line stroke="black" x1="30.0" y1="462.0" x2="30.0" y2="462.0" stroke-width="0.5"/>
    <line stroke="black" x1="22.0" y1="565.0" x2="116.0" y2="656.0" stroke-width="0.5"/>
    <line stroke="black" x1="343.0" y1="728.0" x2="22.0" y2="565.0" stroke-width="0.5"/>
    <line stroke="black" x1="346.0" y1="632.0" x2="116.0" y2="656.0" stroke-width="0.5"/>
    <line stroke="black" x1="144.0" y1="365.0" x2="149.0" y2="382.0" stroke-width="0.5"/>
    <line stroke="black" x1="411.0" y1="680.0" x2="116.0" y2="656.0" stroke-width="0.5"/>
    <line stroke="black" x1="511.0" y1="539.0" x2="177.0" y2="561.0" stroke-width="0.5"/>
    <line stroke="black" x1="686.0" y1="585.0" x2="177.0" y2="561.0" stroke-width="0.5"/>
   </g>
  </g>
 </svg>
</svg>
