<?xml version="1.0" encoding="UTF-8"?>
<svg height="800.0" width="700.0" xmlns="http://www.w3.org/2000/svg">
 <svg>
  <g>
   <g>
    <g>
     <circle stroke="black" stroke-width="0.5" fill="#aaffff" cx="103.0" cy="290.0" r="1.0"/>
     <text stroke="none" x="103.0" y="290.0" font-size="10.0" font-family="helvetica">NT1.1</text>
    </g>
    <g>
     <circle stroke="black" stroke-width="0.5" fill="#aaffff" cx="129.0" cy="219.0" r="1.0"/>
     <text stroke="none" x="129.0" y="219.0" font-size="20.0" font-family="helvetica">47</text>
    </g>
    <g>
     <circle stroke="black" stroke-width="0.5" fill="#aaffff" cx="155.0" cy="169.0" r="1.0"/>
     <text stroke="none" x="155.0" y="169.0" font-size="20.0" font-family="helvetica">45</text>
    </g>
    <g>
     <circle stroke="black" stroke-width="0.5" fill="#aaffff" cx="224.0" cy="120.0" r="1.0"/>
     <text stroke="none" x="224.0" y="120.0" font-size="20.0" font-family="helvetica">88</text>
    </g>
    <g>
     <circle stroke="black" stroke-width="0.5" fill="#aaffff" cx="277.0" cy="360.0" r="1.0"/>
     <text stroke="none" x="277.0" y="360.0" font-size="20.0" font-family="helvetica">100</text>
    </g>
    <g>
     <circle stroke="black" stroke-width="0.5" fill="#aaffff" cx="336.0" cy="74.0" r="1.0"/>
     <text stroke="none" x="336.0" y="74.0" font-size="20.0" font-family="helvetica">100</text>
    </g>
    <g>
     <circle stroke="black" stroke-width="0.5" fill="#aaffff" cx="364.0" cy="399.0" r="1.0"/>
     <text stroke="none" x="364.0" y="399.0" font-size="20.0" font-family="helvetica">100</text>
    </g>
    <g>
     <circle stroke="black" stroke-width="0.5" fill="#aaffff" cx="380.0" cy="269.0" r="1.0"/>
     <text stroke="none" x="380.0" y="269.0" font-size="10.0" font-family="helvetica">NT1.8</text>
    </g>
    <g>
     <circle stroke="black" stroke-width="0.5" fill="#aaffff" cx="423.0" cy="35.0" r="1.0"/>
     <text stroke="none" x="423.0" y="35.0" font-size="20.0" font-family="helvetica">100</text>
    </g>
    <g>
     <circle stroke="black" stroke-width="0.5" fill="#aaffff" cx="435.0" cy="426.0" r="1.0"/>
     <text stroke="none" x="435.0" y="426.0" font-size="10.0" font-family="helvetica">NT1.10</text>
    </g>
    <g>
     <circle stroke="black" stroke-width="0.5" fill="#aaffff" cx="442.0" cy="165.0" r="1.0"/>
     <text stroke="none" x="442.0" y="165.0" font-size="20.0" font-family="helvetica">Sphingobacterium composti LMG 234O1T (AB244764)</text>
    </g>
    <g>
     <circle stroke="black" stroke-width="0.5" fill="#aaffff" cx="454.0" cy="321.0" r="1.0"/>
     <text stroke="none" x="454.0" y="321.0" font-size="20.0" font-family="helvetica">Sphingobacterium thalpophilum ATCC 43320T (M58779)</text>
    </g>
    <g>
     <circle stroke="black" stroke-width="0.5" fill="#aaffff" cx="473.0" cy="217.0" r="1.0"/>
     <text stroke="none" x="473.0" y="217.0" font-size="20.0" font-family="helvetica">Sphingobacterium spiritivorum ATCC 338617 (M58778)</text>
    </g>
    <g>
     <circle stroke="black" stroke-width="0.5" fill="#aaffff" cx="491.0" cy="373.0" r="1.0"/>
     <text stroke="none" x="491.0" y="373.0" font-size="20.0" font-family="helvetica">Sphingobacterium multivorum NBRC 14947T (D14025)</text>
    </g>
    <g>
     <circle stroke="black" stroke-width="0.5" fill="#aaffff" cx="499.0" cy="504.0" r="1.0"/>
     <text stroke="none" x="499.0" y="504.0" font-size="10.0" font-family="helvetica">NT1.15</text>
    </g>
    <g>
     <circle stroke="black" stroke-width="0.5" fill="#aaffff" cx="553.0" cy="9.0" r="1.0"/>
     <text stroke="none" x="553.0" y="9.0" font-size="20.0" font-family="helvetica">Sphingobacterium daejeonense LMG 23402T (AB249372)</text>
    </g>
    <g>
     <circle stroke="black" stroke-width="0.5" fill="#aaffff" cx="554.0" cy="61.0" r="1.0"/>
     <text stroke="none" x="554.0" y="61.0" font-size="20.0" font-family="helvetica">Sphingobacterium mizutaii ATCC 33299T (M58796)</text>
    </g>
    <g>
     <circle stroke="black" stroke-width="0.5" fill="#aaffff" cx="578.0" cy="478.0" r="1.0"/>
     <text stroke="none" x="578.0" y="478.0" font-size="20.0" font-family="helvetica">Pedobacter cryoconitis DSM 14825T (AJ438170)</text>
    </g>
    <g>
     <circle stroke="black" stroke-width="0.5" fill="#aaffff" cx="587.0" cy="113.0" r="1.0"/>
     <text stroke="none" x="587.0" y="113.0" font-size="20.0" font-family="helvetica">Sphingobacterium composti DSM 18850T (EF122436)</text>
    </g>
    <g>
     <circle stroke="black" stroke-width="0.5" fill="#aaffff" cx="587.0" cy="531.0" r="1.0"/>
     <text stroke="none" x="587.0" y="531.0" font-size="10.0" font-family="helvetica">NT1.20</text>
    </g>
    <g>
     <circle stroke="black" stroke-width="0.5" fill="#aaffff" cx="1.0" cy="397.0" r="1.0"/>
     <text stroke="none" x="1.0" y="397.0" font-size="10.0" font-family="helvetica">NT1.21</text>
    </g>
    <line stroke="black" x1="553.0" y1="9.0" x2="423.0" y2="35.0" stroke-width="0.5"/>
    <line stroke="black" x1="554.0" y1="61.0" x2="423.0" y2="35.0" stroke-width="0.5"/>
    <line stroke="black" x1="587.0" y1="113.0" x2="336.0" y2="74.0" stroke-width="0.5"/>
    <line stroke="black" x1="442.0" y1="165.0" x2="224.0" y2="120.0" stroke-width="0.5"/>
    <line stroke="black" x1="473.0" y1="217.0" x2="155.0" y2="169.0" stroke-width="0.5"/>
    <line stroke="black" x1="454.0" y1="321.0" x2="277.0" y2="360.0" stroke-width="0.5"/>
    <line stroke="black" x1="491.0" y1="373.0" x2="364.0" y2="399.0" stroke-width="0.5"/>
    <line stroke="black" x1="578.0" y1="478.0" x2="499.0" y2="504.0" stroke-width="0.5"/>
    <line stroke="black" x1="423.0" y1="35.0" x2="336.0" y2="74.0" stroke-width="0.5"/>
    <line stroke="black" x1="336.0" y1="74.0" x2="224.0" y2="120.0" stroke-width="0.5"/>
    <line stroke="black" x1="224.0" y1="120.0" x2="155.0" y2="169.0" stroke-width="0.5"/>
    <line stroke="black" x1="155.0" y1="169.0" x2="129.0" y2="219.0" stroke-width="0.5"/>
    <line stroke="black" x1="103.0" y1="290.0" x2="277.0" y2="360.0" stroke-width="0.5"/>
    <line stroke="black" x1="1.0" y1="397.0" x2="103.0" y2="290.0" stroke-width="0.5"/>
   </g>
  </g>
 </svg>
</svg>
