<?xml version="1.0" encoding="UTF-8"?>
<svg height="800.0" width="700.0" xmlns="http://www.w3.org/2000/svg">
 <svg>
  <g>
   <g>
    <g>
     <circle stroke="black" stroke-width="0.5" fill="#aaffff" cx="2.0" cy="640.0" r="1.0"/>
     <text stroke="none" x="2.0" y="640.0" font-size="20.0" font-family="helvetica"/>
    </g>
    <g>
     <circle stroke="black" stroke-width="0.5" fill="#aaffff" cx="4.0" cy="640.0" r="1.0"/>
     <text stroke="none" x="4.0" y="640.0" font-size="10.0" font-family="helvetica">NT1.2</text>
    </g>
    <g>
     <circle stroke="black" stroke-width="0.5" fill="#aaffff" cx="238.0" cy="599.0" r="1.0"/>
     <text stroke="none" x="238.0" y="599.0" font-size="10.0" font-family="helvetica">NT1.3</text>
    </g>
    <g>
     <circle stroke="black" stroke-width="0.5" fill="#aaffff" cx="252.0" cy="535.0" r="1.0"/>
     <text stroke="none" x="252.0" y="535.0" font-size="10.0" font-family="helvetica">NT1.4</text>
    </g>
    <g>
     <circle stroke="black" stroke-width="0.5" fill="#aaffff" cx="277.0" cy="464.0" r="1.0"/>
     <text stroke="none" x="277.0" y="464.0" font-size="10.0" font-family="helvetica">NT1.5</text>
    </g>
    <g>
     <circle stroke="black" stroke-width="0.5" fill="#aaffff" cx="282.0" cy="603.0" r="1.0"/>
     <text stroke="none" x="282.0" y="603.0" font-size="10.0" font-family="helvetica">NT1.6</text>
    </g>
    <g>
     <circle stroke="black" stroke-width="0.5" fill="#aaffff" cx="293.0" cy="356.0" r="1.0"/>
     <text stroke="none" x="293.0" y="356.0" font-size="10.0" font-family="helvetica">NT1.7</text>
    </g>
    <g>
     <circle stroke="black" stroke-width="0.5" fill="#aaffff" cx="300.0" cy="483.0" r="1.0"/>
     <text stroke="none" x="300.0" y="483.0" font-size="10.0" font-family="helvetica">NT1.8</text>
    </g>
    <g>
     <circle stroke="black" stroke-width="0.5" fill="#aaffff" cx="302.0" cy="584.0" r="1.0"/>
     <text stroke="none" x="302.0" y="584.0" font-size="10.0" font-family="helvetica">NT1.9</text>
    </g>
    <g>
     <circle stroke="black" stroke-width="0.5" fill="#aaffff" cx="306.0" cy="299.0" r="1.0"/>
     <text stroke="none" x="306.0" y="299.0" font-size="20.0" font-family="helvetica">81</text>
    </g>
    <g>
     <circle stroke="black" stroke-width="0.5" fill="#aaffff" cx="329.0" cy="388.0" r="1.0"/>
     <text stroke="none" x="329.0" y="388.0" font-size="10.0" font-family="helvetica">NT1.11</text>
    </g>
    <g>
     <circle stroke="black" stroke-width="0.5" fill="#aaffff" cx="361.0" cy="202.0" r="1.0"/>
     <text stroke="none" x="361.0" y="202.0" font-size="10.0" font-family="helvetica">NT1.12</text>
    </g>
    <g>
     <circle stroke="black" stroke-width="0.5" fill="#aaffff" cx="365.0" cy="362.0" r="1.0"/>
     <text stroke="none" x="365.0" y="362.0" font-size="10.0" font-family="helvetica">NT1.13</text>
    </g>
    <g>
     <circle stroke="black" stroke-width="0.5" fill="#aaffff" cx="378.0" cy="151.0" r="1.0"/>
     <text stroke="none" x="378.0" y="151.0" font-size="10.0" font-family="helvetica">NT1.14</text>
    </g>
    <g>
     <circle stroke="black" stroke-width="0.5" fill="#aaffff" cx="380.0" cy="464.0" r="1.0"/>
     <text stroke="none" x="380.0" y="464.0" font-size="10.0" font-family="helvetica">NT1.15</text>
    </g>
    <g>
     <circle stroke="black" stroke-width="0.5" fill="#aaffff" cx="407.0" cy="121.0" r="1.0"/>
     <text stroke="none" x="407.0" y="121.0" font-size="10.0" font-family="helvetica">NT1.16</text>
    </g>
    <g>
     <circle stroke="black" stroke-width="0.5" fill="#aaffff" cx="409.0" cy="336.0" r="1.0"/>
     <text stroke="none" x="409.0" y="336.0" font-size="10.0" font-family="helvetica">NT1.17</text>
    </g>
    <g>
     <circle stroke="black" stroke-width="0.5" fill="#aaffff" cx="424.0" cy="119.0" r="1.0"/>
     <text stroke="none" x="424.0" y="119.0" font-size="10.0" font-family="helvetica">NT1.18</text>
    </g>
    <g>
     <circle stroke="black" stroke-width="0.5" fill="#aaffff" cx="433.0" cy="69.0" r="1.0"/>
     <text stroke="none" x="433.0" y="69.0" font-size="10.0" font-family="helvetica">NT1.19</text>
    </g>
    <g>
     <circle stroke="black" stroke-width="0.5" fill="#aaffff" cx="438.0" cy="45.0" r="1.0"/>
     <text stroke="none" x="438.0" y="45.0" font-size="10.0" font-family="helvetica">NT1.20</text>
    </g>
    <g>
     <circle stroke="black" stroke-width="0.5" fill="#aaffff" cx="445.0" cy="89.0" r="1.0"/>
     <text stroke="none" x="445.0" y="89.0" font-size="20.0" font-family="helvetica">Halobaclllus litoralls SL64T (X94558)</text>
    </g>
    <g>
     <circle stroke="black" stroke-width="0.5" fill="#aaffff" cx="449.0" cy="29.0" r="1.0"/>
     <text stroke="none" x="449.0" y="29.0" font-size="20.0" font-family="helvetica"> Halobaclllus trueperi DSM 104047 (AJ310149)</text>
    </g>
    <g>
     <circle stroke="black" stroke-width="0.5" fill="#aaffff" cx="449.0" cy="314.0" r="1.0"/>
     <text stroke="none" x="449.0" y="314.0" font-size="10.0" font-family="helvetica">NT1.23</text>
    </g>
    <g>
     <circle stroke="black" stroke-width="0.5" fill="#aaffff" cx="453.0" cy="119.0" r="1.0"/>
     <text stroke="none" x="453.0" y="119.0" font-size="20.0" font-family="helvetica">Halobacillus locisalis MSS-155T (AY190534)</text>
    </g>
    <g>
     <circle stroke="black" stroke-width="0.5" fill="#aaffff" cx="458.0" cy="299.0" r="1.0"/>
     <text stroke="none" x="458.0" y="299.0" font-size="20.0" font-family="helvetica">Thalassobacillus devorans Gr19.1T (AJ717299)</text>
    </g>
    <g>
     <circle stroke="black" stroke-width="0.5" fill="#aaffff" cx="459.0" cy="567.0" r="1.0"/>
     <text stroke="none" x="459.0" y="567.0" font-size="10.0" font-family="helvetica">NT1.26</text>
    </g>
    <g>
     <circle stroke="black" stroke-width="0.5" fill="#aaffff" cx="461.0" cy="388.0" r="1.0"/>
     <text stroke="none" x="461.0" y="388.0" font-size="10.0" font-family="helvetica">NT1.27</text>
    </g>
    <g>
     <circle stroke="black" stroke-width="0.5" fill="#aaffff" cx="471.0" cy="60.0" r="1.0"/>
     <text stroke="none" x="471.0" y="60.0" font-size="20.0" font-family="helvetica">Halobacillus karajensis DSM 149487 (AJ486874)</text>
    </g>
    <g>
     <circle stroke="black" stroke-width="0.5" fill="#aaffff" cx="471.0" cy="419.0" r="1.0"/>
     <text stroke="none" x="471.0" y="419.0" font-size="20.0" font-family="helvetica">Sediminibacillus halophilus EN8dT (AM905297)</text>
    </g>
    <g>
     <circle stroke="black" stroke-width="0.5" fill="#aaffff" cx="471.0" cy="359.0" r="1.0"/>
     <text stroke="none" x="471.0" y="359.0" font-size="20.0" font-family="helvetica">Thalassobacillus pellis 18OMT (FN690978)</text>
    </g>
    <g>
     <circle stroke="black" stroke-width="0.5" fill="#aaffff" cx="473.0" cy="149.0" r="1.0"/>
     <text stroke="none" x="473.0" y="149.0" font-size="20.0" font-family="helvetica">Halobacillus sallnus HSL-37 (AFSOOOOB)</text>
    </g>
    <g>
     <circle stroke="black" stroke-width="0.5" fill="#aaffff" cx="481.0" cy="328.0" r="1.0"/>
     <text stroke="none" x="481.0" y="328.0" font-size="20.0" font-family="helvetica">Thalassobacillus cyri HS286T (FM864226)</text>
    </g>
    <g>
     <circle stroke="black" stroke-width="0.5" fill="#aaffff" cx="485.0" cy="245.0" r="1.0"/>
     <text stroke="none" x="485.0" y="245.0" font-size="10.0" font-family="helvetica">NT1.33</text>
    </g>
    <g>
     <circle stroke="black" stroke-width="0.5" fill="#aaffff" cx="486.0" cy="179.0" r="1.0"/>
     <text stroke="none" x="486.0" y="179.0" font-size="20.0" font-family="helvetica">Halobacillus halophilus NCIMB 2269T (AB367153)</text>
    </g>
    <g>
     <circle stroke="black" stroke-width="0.5" fill="#aaffff" cx="497.0" cy="538.0" r="1.0"/>
     <text stroke="none" x="497.0" y="538.0" font-size="20.0" font-family="helvetica">Gracilibacillus halotolerans NNT (AFO36922)</text>
    </g>
    <g>
     <circle stroke="black" stroke-width="0.5" fill="#aaffff" cx="511.0" cy="448.0" r="1.0"/>
     <text stroke="none" x="511.0" y="448.0" font-size="20.0" font-family="helvetica">Filobaclllus milosensis SH 714T (AJ238042)</text>
    </g>
    <g>
     <circle stroke="black" stroke-width="0.5" fill="#aaffff" cx="525.0" cy="223.0" r="1.0"/>
     <text stroke="none" x="525.0" y="223.0" font-size="20.0" font-family="helvetica">98</text>
    </g>
    <g>
     <circle stroke="black" stroke-width="0.5" fill="#aaffff" cx="535.0" cy="658.0" r="1.0"/>
     <text stroke="none" x="535.0" y="658.0" font-size="20.0" font-family="helvetica">Bacillus subtilis NCDO 1769T (X60646)</text>
    </g>
    <g>
     <circle stroke="black" stroke-width="0.5" fill="#aaffff" cx="537.0" cy="628.0" r="1.0"/>
     <text stroke="none" x="537.0" y="628.0" font-size="20.0" font-family="helvetica">Oceanobacillus iheyensis HTE831T (AB010863)</text>
    </g>
    <g>
     <circle stroke="black" stroke-width="0.5" fill="#aaffff" cx="555.0" cy="598.0" r="1.0"/>
     <text stroke="none" x="555.0" y="598.0" font-size="20.0" font-family="helvetica">Lentlbaclllus sallcampi SF-QOT (AY057394)</text>
    </g>
    <g>
     <circle stroke="black" stroke-width="0.5" fill="#aaffff" cx="563.0" cy="269.0" r="1.0"/>
     <text stroke="none" x="563.0" y="269.0" font-size="20.0" font-family="helvetica">Salimicrobium album DSM 207487 (X90834)</text>
    </g>
    <g>
     <circle stroke="black" stroke-width="0.5" fill="#aaffff" cx="591.0" cy="239.0" r="1.0"/>
     <text stroke="none" x="591.0" y="239.0" font-size="20.0" font-family="helvetica">Salimlcrobium lureum BY45T (DQ227305)</text>
    </g>
    <g>
     <circle stroke="black" stroke-width="0.5" fill="#aaffff" cx="594.0" cy="508.0" r="1.0"/>
     <text stroke="none" x="594.0" y="508.0" font-size="20.0" font-family="helvetica">Pontlbacillus chungwhensls BHO3OO62T (AY553296)</text>
    </g>
    <g>
     <circle stroke="black" stroke-width="0.5" fill="#aaffff" cx="603.0" cy="478.0" r="1.0"/>
     <text stroke="none" x="603.0" y="478.0" font-size="20.0" font-family="helvetica">Alkalibacillus haloalkaliphilus DSM 5271T (AJ238041)</text>
    </g>
    <g>
     <circle stroke="black" stroke-width="0.5" fill="#aaffff" cx="687.0" cy="688.0" r="1.0"/>
     <text stroke="none" x="687.0" y="688.0" font-size="20.0" font-family="helvetica">Alicyclobaclllus acidocaldarlus DSM 4467 (X60742)</text>
    </g>
    <g>
     <circle stroke="black" stroke-width="0.5" fill="#aaffff" cx="700.0" cy="208.0" r="1.0"/>
     <text stroke="none" x="700.0" y="208.0" font-size="20.0" font-family="helvetica">Salimlcroblurn halophllurn DSM 4771T (AJ243920)</text>
    </g>
    <line stroke="black" x1="471.0" y1="60.0" x2="438.0" y2="45.0" stroke-width="0.5"/>
    <line stroke="black" x1="453.0" y1="119.0" x2="424.0" y2="119.0" stroke-width="0.5"/>
    <line stroke="black" x1="473.0" y1="149.0" x2="407.0" y2="121.0" stroke-width="0.5"/>
    <line stroke="black" x1="563.0" y1="269.0" x2="485.0" y2="245.0" stroke-width="0.5"/>
    <line stroke="black" x1="700.0" y1="208.0" x2="525.0" y2="223.0" stroke-width="0.5"/>
    <line stroke="black" x1="471.0" y1="419.0" x2="329.0" y2="388.0" stroke-width="0.5"/>
    <line stroke="black" x1="471.0" y1="359.0" x2="409.0" y2="336.0" stroke-width="0.5"/>
    <line stroke="black" x1="594.0" y1="508.0" x2="300.0" y2="483.0" stroke-width="0.5"/>
    <line stroke="black" x1="4.0" y1="640.0" x2="2.0" y2="640.0" stroke-width="0.5"/>
    <line stroke="black" x1="537.0" y1="628.0" x2="282.0" y2="603.0" stroke-width="0.5"/>
    <line stroke="black" x1="535.0" y1="658.0" x2="238.0" y2="599.0" stroke-width="0.5"/>
    <line stroke="black" x1="687.0" y1="688.0" x2="4.0" y2="640.0" stroke-width="0.5"/>
    <line stroke="black" x1="438.0" y1="45.0" x2="433.0" y2="69.0" stroke-width="0.5"/>
    <line stroke="black" x1="433.0" y1="69.0" x2="424.0" y2="119.0" stroke-width="0.5"/>
    <line stroke="black" x1="424.0" y1="119.0" x2="407.0" y2="121.0" stroke-width="0.5"/>
    <line stroke="black" x1="407.0" y1="121.0" x2="378.0" y2="151.0" stroke-width="0.5"/>
    <line stroke="black" x1="378.0" y1="151.0" x2="361.0" y2="202.0" stroke-width="0.5"/>
    <line stroke="black" x1="361.0" y1="202.0" x2="306.0" y2="299.0" stroke-width="0.5"/>
    <line stroke="black" x1="361.0" y1="202.0" x2="485.0" y2="245.0" stroke-width="0.5"/>
    <line stroke="black" x1="306.0" y1="299.0" x2="293.0" y2="356.0" stroke-width="0.5"/>
    <line stroke="black" x1="306.0" y1="299.0" x2="329.0" y2="388.0" stroke-width="0.5"/>
    <line stroke="black" x1="293.0" y1="356.0" x2="277.0" y2="464.0" stroke-width="0.5"/>
    <line stroke="black" x1="293.0" y1="356.0" x2="300.0" y2="483.0" stroke-width="0.5"/>
    <line stroke="black" x1="485.0" y1="245.0" x2="525.0" y2="223.0" stroke-width="0.5"/>
    <line stroke="black" x1="365.0" y1="362.0" x2="409.0" y2="336.0" stroke-width="0.5"/>
    <line stroke="black" x1="277.0" y1="464.0" x2="252.0" y2="535.0" stroke-width="0.5"/>
    <line stroke="black" x1="300.0" y1="483.0" x2="380.0" y2="464.0" stroke-width="0.5"/>
    <line stroke="black" x1="409.0" y1="336.0" x2="449.0" y2="314.0" stroke-width="0.5"/>
    <line stroke="black" x1="252.0" y1="535.0" x2="282.0" y2="603.0" stroke-width="0.5"/>
    <line stroke="black" x1="252.0" y1="535.0" x2="238.0" y2="599.0" stroke-width="0.5"/>
    <line stroke="black" x1="238.0" y1="599.0" x2="4.0" y2="640.0" stroke-width="0.5"/>
    <line stroke="black" x1="555.0" y1="598.0" x2="302.0" y2="584.0" stroke-width="0.5"/>
    <line stroke="black" x1="486.0" y1="179.0" x2="378.0" y2="151.0" stroke-width="0.5"/>
    <line stroke="black" x1="445.0" y1="89.0" x2="433.0" y2="69.0" stroke-width="0.5"/>
    <line stroke="black" x1="449.0" y1="29.0" x2="438.0" y2="45.0" stroke-width="0.5"/>
    <line stroke="black" x1="458.0" y1="299.0" x2="449.0" y2="314.0" stroke-width="0.5"/>
    <line stroke="black" x1="603.0" y1="478.0" x2="380.0" y2="464.0" stroke-width="0.5"/>
    <line stroke="black" x1="511.0" y1="448.0" x2="380.0" y2="464.0" stroke-width="0.5"/>
    <line stroke="black" x1="497.0" y1="538.0" x2="277.0" y2="464.0" stroke-width="0.5"/>
    <line stroke="black" x1="481.0" y1="328.0" x2="449.0" y2="314.0" stroke-width="0.5"/>
    <line stroke="black" x1="591.0" y1="239.0" x2="525.0" y2="223.0" stroke-width="0.5"/>
   </g>
  </g>
 </svg>
</svg>
