<?xml version="1.0" encoding="UTF-8"?>
<svg height="800.0" width="700.0" xmlns="http://www.w3.org/2000/svg">
 <svg>
  <g>
   <g>
    <g>
     <circle stroke="black" stroke-width="0.5" fill="#aaffff" cx="119.0" cy="1238.0" r="1.0"/>
     <text stroke="none" x="119.0" y="1238.0" font-size="10.0" font-family="helvetica">NT1.1</text>
    </g>
    <g>
     <circle stroke="black" stroke-width="0.5" fill="#aaffff" cx="187.0" cy="1543.0" r="1.0"/>
     <text stroke="none" x="187.0" y="1543.0" font-size="10.0" font-family="helvetica">NT1.2</text>
    </g>
    <g>
     <circle stroke="black" stroke-width="0.5" fill="#aaffff" cx="188.0" cy="1054.0" r="1.0"/>
     <text stroke="none" x="188.0" y="1054.0" font-size="10.0" font-family="helvetica">NT1.3</text>
    </g>
    <g>
     <circle stroke="black" stroke-width="0.5" fill="#aaffff" cx="311.0" cy="914.0" r="1.0"/>
     <text stroke="none" x="311.0" y="914.0" font-size="10.0" font-family="helvetica">NT1.4</text>
    </g>
    <g>
     <circle stroke="black" stroke-width="0.5" fill="#aaffff" cx="315.0" cy="551.0" r="1.0"/>
     <text stroke="none" x="315.0" y="551.0" font-size="10.0" font-family="helvetica">NT1.5</text>
    </g>
    <g>
     <circle stroke="black" stroke-width="0.5" fill="#aaffff" cx="359.0" cy="1203.0" r="1.0"/>
     <text stroke="none" x="359.0" y="1203.0" font-size="10.0" font-family="helvetica">NT1.6</text>
    </g>
    <g>
     <circle stroke="black" stroke-width="0.5" fill="#aaffff" cx="376.0" cy="396.0" r="1.0"/>
     <text stroke="none" x="376.0" y="396.0" font-size="10.0" font-family="helvetica">NT1.7</text>
    </g>
    <g>
     <circle stroke="black" stroke-width="0.5" fill="#aaffff" cx="405.0" cy="1264.0" r="1.0"/>
     <text stroke="none" x="405.0" y="1264.0" font-size="10.0" font-family="helvetica">NT1.8</text>
    </g>
    <g>
     <circle stroke="black" stroke-width="0.5" fill="#aaffff" cx="408.0" cy="242.0" r="1.0"/>
     <text stroke="none" x="408.0" y="242.0" font-size="10.0" font-family="helvetica">NT1.9</text>
    </g>
    <g>
     <circle stroke="black" stroke-width="0.5" fill="#aaffff" cx="426.0" cy="354.0" r="1.0"/>
     <text stroke="none" x="426.0" y="354.0" font-size="10.0" font-family="helvetica">NT1.10</text>
    </g>
    <g>
     <circle stroke="black" stroke-width="0.5" fill="#aaffff" cx="453.0" cy="1316.0" r="1.0"/>
     <text stroke="none" x="453.0" y="1316.0" font-size="10.0" font-family="helvetica">NT1.11</text>
    </g>
    <g>
     <circle stroke="black" stroke-width="0.5" fill="#aaffff" cx="455.0" cy="129.0" r="1.0"/>
     <text stroke="none" x="455.0" y="129.0" font-size="10.0" font-family="helvetica">NT1.12</text>
    </g>
    <g>
     <circle stroke="black" stroke-width="0.5" fill="#aaffff" cx="467.0" cy="1212.0" r="1.0"/>
     <text stroke="none" x="467.0" y="1212.0" font-size="20.0" font-family="helvetica">Halobacillus trueperi SL-5T (AJ310149)</text>
    </g>
    <g>
     <circle stroke="black" stroke-width="0.5" fill="#aaffff" cx="482.0" cy="966.0" r="1.0"/>
     <text stroke="none" x="482.0" y="966.0" font-size="10.0" font-family="helvetica">NT1.14</text>
    </g>
    <g>
     <circle stroke="black" stroke-width="0.5" fill="#aaffff" cx="489.0" cy="197.0" r="1.0"/>
     <text stroke="none" x="489.0" y="197.0" font-size="10.0" font-family="helvetica">NT1.15</text>
    </g>
    <g>
     <circle stroke="black" stroke-width="0.5" fill="#aaffff" cx="496.0" cy="1282.0" r="1.0"/>
     <text stroke="none" x="496.0" y="1282.0" font-size="20.0" font-family="helvetica">Halobacillus litoralis SL-4T (X94558)</text>
    </g>
    <g>
     <circle stroke="black" stroke-width="0.5" fill="#aaffff" cx="496.0" cy="59.0" r="1.0"/>
     <text stroke="none" x="496.0" y="59.0" font-size="10.0" font-family="helvetica">NT1.17</text>
    </g>
    <g>
     <circle stroke="black" stroke-width="0.5" fill="#aaffff" cx="506.0" cy="546.0" r="1.0"/>
     <text stroke="none" x="506.0" y="546.0" font-size="10.0" font-family="helvetica">NT1.18</text>
    </g>
    <g>
     <circle stroke="black" stroke-width="0.5" fill="#aaffff" cx="512.0" cy="704.0" r="1.0"/>
     <text stroke="none" x="512.0" y="704.0" font-size="10.0" font-family="helvetica">NT1.19</text>
    </g>
    <g>
     <circle stroke="black" stroke-width="0.5" fill="#aaffff" cx="595.0" cy="163.0" r="1.0"/>
     <text stroke="none" x="595.0" y="163.0" font-size="20.0" font-family="helvetica">Virgibacillus marismortui 123T (AJOO9793)</text>
    </g>
    <g>
     <circle stroke="black" stroke-width="0.5" fill="#aaffff" cx="606.0" cy="303.0" r="1.0"/>
     <text stroke="none" x="606.0" y="303.0" font-size="10.0" font-family="helvetica">NT1.21</text>
    </g>
    <g>
     <circle stroke="black" stroke-width="0.5" fill="#aaffff" cx="622.0" cy="407.0" r="1.0"/>
     <text stroke="none" x="622.0" y="407.0" font-size="10.0" font-family="helvetica">NT1.22</text>
    </g>
    <g>
     <circle stroke="black" stroke-width="0.5" fill="#aaffff" cx="627.0" cy="1352.0" r="1.0"/>
     <text stroke="none" x="627.0" y="1352.0" font-size="20.0" font-family="helvetica">Halobacillus halophilus 3T (X62174)</text>
    </g>
    <g>
     <circle stroke="black" stroke-width="0.5" fill="#aaffff" cx="637.0" cy="373.0" r="1.0"/>
     <text stroke="none" x="637.0" y="373.0" font-size="20.0" font-family="helvetica">Virgibacillus carmonensis LMG 20964T (AJ316302)</text>
    </g>
    <g>
     <circle stroke="black" stroke-width="0.5" fill="#aaffff" cx="638.0" cy="862.0" r="1.0"/>
     <text stroke="none" x="638.0" y="862.0" font-size="20.0" font-family="helvetica">Paraliobacillus ryukyuensis O15-7T (AB087828)</text>
    </g>
    <g>
     <circle stroke="black" stroke-width="0.5" fill="#aaffff" cx="648.0" cy="1072.0" r="1.0"/>
     <text stroke="none" x="648.0" y="1072.0" font-size="20.0" font-family="helvetica">Filobacillus milosensis SH 714T (AJ238042)</text>
    </g>
    <g>
     <circle stroke="black" stroke-width="0.5" fill="#aaffff" cx="656.0" cy="442.0" r="1.0"/>
     <text stroke="none" x="656.0" y="442.0" font-size="10.0" font-family="helvetica">NT1.27</text>
    </g>
    <g>
     <circle stroke="black" stroke-width="0.5" fill="#aaffff" cx="671.0" cy="756.0" r="1.0"/>
     <text stroke="none" x="671.0" y="756.0" font-size="10.0" font-family="helvetica">NT1.28</text>
    </g>
    <g>
     <circle stroke="black" stroke-width="0.5" fill="#aaffff" cx="677.0" cy="23.0" r="1.0"/>
     <text stroke="none" x="677.0" y="23.0" font-size="20.0" font-family="helvetica">Virgibacillus pantothenticus B0018T (X60627)</text>
    </g>
    <g>
     <circle stroke="black" stroke-width="0.5" fill="#aaffff" cx="691.0" cy="93.0" r="1.0"/>
     <text stroke="none" x="691.0" y="93.0" font-size="10.0" font-family="helvetica">NT1.30</text>
    </g>
    <g>
     <circle stroke="black" stroke-width="0.5" fill="#aaffff" cx="728.0" cy="1003.0" r="1.0"/>
     <text stroke="none" x="728.0" y="1003.0" font-size="20.0" font-family="helvetica">Gracilibacillus halotolerans NNT (AF036922)</text>
    </g>
    <g>
     <circle stroke="black" stroke-width="0.5" fill="#aaffff" cx="786.0" cy="932.0" r="1.0"/>
     <text stroke="none" x="786.0" y="932.0" font-size="20.0" font-family="helvetica">Gracilibacillus dipsosauri DD1T (X82436)</text>
    </g>
    <g>
     <circle stroke="black" stroke-width="0.5" fill="#aaffff" cx="818.0" cy="792.0" r="1.0"/>
     <text stroke="none" x="818.0" y="792.0" font-size="20.0" font-family="helvetica">Bacillus sporothermodurans M215T (U49078)</text>
    </g>
    <g>
     <circle stroke="black" stroke-width="0.5" fill="#aaffff" cx="826.0" cy="512.0" r="1.0"/>
     <text stroke="none" x="826.0" y="512.0" font-size="10.0" font-family="helvetica">NT1.34</text>
    </g>
    <g>
     <circle stroke="black" stroke-width="0.5" fill="#aaffff" cx="835.0" cy="1142.0" r="1.0"/>
     <text stroke="none" x="835.0" y="1142.0" font-size="10.0" font-family="helvetica">NT1.35</text>
    </g>
    <g>
     <circle stroke="black" stroke-width="0.5" fill="#aaffff" cx="863.0" cy="722.0" r="1.0"/>
     <text stroke="none" x="863.0" y="722.0" font-size="20.0" font-family="helvetica">Bacillus oleronius Rt 10T (X82492)</text>
    </g>
    <g>
     <circle stroke="black" stroke-width="0.5" fill="#aaffff" cx="883.0" cy="233.0" r="1.0"/>
     <text stroke="none" x="883.0" y="233.0" font-size="20.0" font-family="helvetica">Virgibacillus salexigens C-20MoT (Y11603)</text>
    </g>
    <g>
     <circle stroke="black" stroke-width="0.5" fill="#aaffff" cx="901.0" cy="582.0" r="1.0"/>
     <text stroke="none" x="901.0" y="582.0" font-size="20.0" font-family="helvetica">Lentibacillus salicampi SF-20T (AY057394)</text>
    </g>
    <g>
     <circle stroke="black" stroke-width="0.5" fill="#aaffff" cx="1032.0" cy="652.0" r="1.0"/>
     <text stroke="none" x="1032.0" y="652.0" font-size="10.0" font-family="helvetica">NT1.39</text>
    </g>
    <g>
     <circle stroke="black" stroke-width="0.5" fill="#aaffff" cx="1126.0" cy="1596.0" r="1.0"/>
     <text stroke="none" x="1126.0" y="1596.0" font-size="10.0" font-family="helvetica">NT1.40</text>
    </g>
    <g>
     <circle stroke="black" stroke-width="0.5" fill="#aaffff" cx="1161.0" cy="1632.0" r="1.0"/>
     <text stroke="none" x="1161.0" y="1632.0" font-size="20.0" font-family="helvetica">Brevibacillus formosus F12T (AB112712)</text>
    </g>
    <g>
     <circle stroke="black" stroke-width="0.5" fill="#aaffff" cx="1171.0" cy="1492.0" r="1.0"/>
     <text stroke="none" x="1171.0" y="1492.0" font-size="20.0" font-family="helvetica">Paenibacillus polymyxa DSM 367 (X60632)</text>
    </g>
    <g>
     <circle stroke="black" stroke-width="0.5" fill="#aaffff" cx="1175.0" cy="1422.0" r="1.0"/>
     <text stroke="none" x="1175.0" y="1422.0" font-size="20.0" font-family="helvetica">Marinococcus halophilus DSM 20408T (X90835)</text>
    </g>
    <g>
     <circle stroke="black" stroke-width="0.5" fill="#aaffff" cx="1175.0" cy="1562.0" r="1.0"/>
     <text stroke="none" x="1175.0" y="1562.0" font-size="20.0" font-family="helvetica">Brevibacillus brevis DSM 30T (D78457)</text>
    </g>
    <g>
     <circle stroke="black" stroke-width="0.5" fill="#aaffff" cx="8.0" cy="1262.0" r="1.0"/>
     <text stroke="none" x="8.0" y="1262.0" font-size="10.0" font-family="helvetica">NT1.45</text>
    </g>
    <line stroke="black" x1="637.0" y1="373.0" x2="622.0" y2="407.0" stroke-width="0.5"/>
    <line stroke="black" x1="818.0" y1="792.0" x2="671.0" y2="756.0" stroke-width="0.5"/>
    <line stroke="black" x1="648.0" y1="1072.0" x2="311.0" y2="914.0" stroke-width="0.5"/>
    <line stroke="black" x1="786.0" y1="932.0" x2="482.0" y2="966.0" stroke-width="0.5"/>
    <line stroke="black" x1="627.0" y1="1352.0" x2="453.0" y2="1316.0" stroke-width="0.5"/>
    <line stroke="black" x1="1161.0" y1="1632.0" x2="1126.0" y2="1596.0" stroke-width="0.5"/>
    <line stroke="black" x1="1175.0" y1="1562.0" x2="1126.0" y2="1596.0" stroke-width="0.5"/>
    <line stroke="black" x1="455.0" y1="129.0" x2="408.0" y2="242.0" stroke-width="0.5"/>
    <line stroke="black" x1="455.0" y1="129.0" x2="489.0" y2="197.0" stroke-width="0.5"/>
    <line stroke="black" x1="408.0" y1="242.0" x2="376.0" y2="396.0" stroke-width="0.5"/>
    <line stroke="black" x1="376.0" y1="396.0" x2="315.0" y2="551.0" stroke-width="0.5"/>
    <line stroke="black" x1="315.0" y1="551.0" x2="311.0" y2="914.0" stroke-width="0.5"/>
    <line stroke="black" x1="512.0" y1="704.0" x2="671.0" y2="756.0" stroke-width="0.5"/>
    <line stroke="black" x1="311.0" y1="914.0" x2="188.0" y2="1054.0" stroke-width="0.5"/>
    <line stroke="black" x1="311.0" y1="914.0" x2="482.0" y2="966.0" stroke-width="0.5"/>
    <line stroke="black" x1="188.0" y1="1054.0" x2="119.0" y2="1238.0" stroke-width="0.5"/>
    <line stroke="black" x1="359.0" y1="1203.0" x2="405.0" y2="1264.0" stroke-width="0.5"/>
    <line stroke="black" x1="405.0" y1="1264.0" x2="453.0" y2="1316.0" stroke-width="0.5"/>
    <line stroke="black" x1="187.0" y1="1543.0" x2="1126.0" y2="1596.0" stroke-width="0.5"/>
    <line stroke="black" x1="8.0" y1="1262.0" x2="119.0" y2="1238.0" stroke-width="0.5"/>
    <line stroke="black" x1="187.0" y1="1543.0" x2="8.0" y2="1262.0" stroke-width="0.5"/>
    <line stroke="black" x1="467.0" y1="1212.0" x2="405.0" y2="1264.0" stroke-width="0.5"/>
    <line stroke="black" x1="638.0" y1="862.0" x2="311.0" y2="914.0" stroke-width="0.5"/>
    <line stroke="black" x1="496.0" y1="1282.0" x2="453.0" y2="1316.0" stroke-width="0.5"/>
    <line stroke="black" x1="1175.0" y1="1422.0" x2="119.0" y2="1238.0" stroke-width="0.5"/>
    <line stroke="black" x1="1171.0" y1="1492.0" x2="187.0" y2="1543.0" stroke-width="0.5"/>
    <line stroke="black" x1="595.0" y1="163.0" x2="489.0" y2="197.0" stroke-width="0.5"/>
    <line stroke="black" x1="728.0" y1="1003.0" x2="482.0" y2="966.0" stroke-width="0.5"/>
    <line stroke="black" x1="677.0" y1="23.0" x2="496.0" y2="59.0" stroke-width="0.5"/>
    <line stroke="black" x1="883.0" y1="233.0" x2="489.0" y2="197.0" stroke-width="0.5"/>
    <line stroke="black" x1="901.0" y1="582.0" x2="506.0" y2="546.0" stroke-width="0.5"/>
    <line stroke="black" x1="863.0" y1="722.0" x2="671.0" y2="756.0" stroke-width="0.5"/>
   </g>
  </g>
 </svg>
</svg>
