<?xml version="1.0" encoding="UTF-8"?>
<svg height="800.0" width="700.0" xmlns="http://www.w3.org/2000/svg">
 <svg>
  <g>
   <g>
    <g>
     <circle stroke="black" stroke-width="0.5" fill="#aaffff" cx="38.0" cy="312.0" r="1.0"/>
     <text stroke="none" x="38.0" y="312.0" font-size="10.0" font-family="helvetica">NT1.1</text>
    </g>
    <g>
     <circle stroke="black" stroke-width="0.5" fill="#aaffff" cx="58.0" cy="216.0" r="1.0"/>
     <text stroke="none" x="58.0" y="216.0" font-size="10.0" font-family="helvetica">NT1.2</text>
    </g>
    <g>
     <circle stroke="black" stroke-width="0.5" fill="#aaffff" cx="145.0" cy="123.0" r="1.0"/>
     <text stroke="none" x="145.0" y="123.0" font-size="10.0" font-family="helvetica">NT1.3</text>
    </g>
    <g>
     <circle stroke="black" stroke-width="0.5" fill="#aaffff" cx="184.0" cy="306.0" r="1.0"/>
     <text stroke="none" x="184.0" y="306.0" font-size="10.0" font-family="helvetica">NT1.4</text>
    </g>
    <g>
     <circle stroke="black" stroke-width="0.5" fill="#aaffff" cx="191.0" cy="305.0" r="1.0"/>
     <text stroke="none" x="191.0" y="305.0" font-size="20.0" font-family="helvetica"/>
    </g>
    <g>
     <circle stroke="black" stroke-width="0.5" fill="#aaffff" cx="194.0" cy="175.0" r="1.0"/>
     <text stroke="none" x="194.0" y="175.0" font-size="10.0" font-family="helvetica">NT1.6</text>
    </g>
    <g>
     <circle stroke="black" stroke-width="0.5" fill="#aaffff" cx="283.0" cy="208.0" r="1.0"/>
     <text stroke="none" x="283.0" y="208.0" font-size="20.0" font-family="helvetica">88</text>
    </g>
    <g>
     <circle stroke="black" stroke-width="0.5" fill="#aaffff" cx="290.0" cy="208.0" r="1.0"/>
     <text stroke="none" x="290.0" y="208.0" font-size="20.0" font-family="helvetica"/>
    </g>
    <g>
     <circle stroke="black" stroke-width="0.5" fill="#aaffff" cx="339.0" cy="338.0" r="1.0"/>
     <text stroke="none" x="339.0" y="338.0" font-size="10.0" font-family="helvetica">NT1.9</text>
    </g>
    <g>
     <circle stroke="black" stroke-width="0.5" fill="#aaffff" cx="346.0" cy="337.0" r="1.0"/>
     <text stroke="none" x="346.0" y="337.0" font-size="20.0" font-family="helvetica"/>
    </g>
    <g>
     <circle stroke="black" stroke-width="0.5" fill="#aaffff" cx="366.0" cy="69.0" r="1.0"/>
     <text stroke="none" x="366.0" y="69.0" font-size="10.0" font-family="helvetica">NT1.11</text>
    </g>
    <g>
     <circle stroke="black" stroke-width="0.5" fill="#aaffff" cx="368.0" cy="66.0" r="1.0"/>
     <text stroke="none" x="368.0" y="66.0" font-size="10.0" font-family="helvetica">NT1.12</text>
    </g>
    <g>
     <circle stroke="black" stroke-width="0.5" fill="#aaffff" cx="375.0" cy="66.0" r="1.0"/>
     <text stroke="none" x="375.0" y="66.0" font-size="20.0" font-family="helvetica"/>
    </g>
    <g>
     <circle stroke="black" stroke-width="0.5" fill="#aaffff" cx="401.0" cy="469.0" r="1.0"/>
     <text stroke="none" x="401.0" y="469.0" font-size="20.0" font-family="helvetica">100</text>
    </g>
    <g>
     <circle stroke="black" stroke-width="0.5" fill="#aaffff" cx="408.0" cy="468.0" r="1.0"/>
     <text stroke="none" x="408.0" y="468.0" font-size="20.0" font-family="helvetica"/>
    </g>
    <g>
     <circle stroke="black" stroke-width="0.5" fill="#aaffff" cx="431.0" cy="101.0" r="1.0"/>
     <text stroke="none" x="431.0" y="101.0" font-size="20.0" font-family="helvetica">P. eIgiiSD17T (AY090110)</text>
    </g>
    <g>
     <circle stroke="black" stroke-width="0.5" fill="#aaffff" cx="448.0" cy="35.0" r="1.0"/>
     <text stroke="none" x="448.0" y="35.0" font-size="20.0" font-family="helvetica">99</text>
    </g>
    <g>
     <circle stroke="black" stroke-width="0.5" fill="#aaffff" cx="455.0" cy="35.0" r="1.0"/>
     <text stroke="none" x="455.0" y="35.0" font-size="20.0" font-family="helvetica"/>
    </g>
    <g>
     <circle stroke="black" stroke-width="0.5" fill="#aaffff" cx="459.0" cy="14.0" r="1.0"/>
     <text stroke="none" x="459.0" y="14.0" font-size="20.0" font-family="helvetica">P. ehimensis IFO 'l5659T (ABO21184)</text>
    </g>
    <g>
     <circle stroke="black" stroke-width="0.5" fill="#aaffff" cx="468.0" cy="143.0" r="1.0"/>
     <text stroke="none" x="468.0" y="143.0" font-size="20.0" font-family="helvetica">P. chinjuensis WN9T (AF164345)</text>
    </g>
    <g>
     <circle stroke="black" stroke-width="0.5" fill="#aaffff" cx="537.0" cy="405.0" r="1.0"/>
     <text stroke="none" x="537.0" y="405.0" font-size="20.0" font-family="helvetica">P. larvae ATCC 95457 (X60819)</text>
    </g>
    <g>
     <circle stroke="black" stroke-width="0.5" fill="#aaffff" cx="561.0" cy="57.0" r="1.0"/>
     <text stroke="none" x="561.0" y="57.0" font-size="20.0" font-family="helvetica"> P. koreensis YC3OOT (AF130254)</text>
    </g>
    <g>
     <circle stroke="black" stroke-width="0.5" fill="#aaffff" cx="581.0" cy="318.0" r="1.0"/>
     <text stroke="none" x="581.0" y="318.0" font-size="20.0" font-family="helvetica">P. ginsengarvi Gsoil 1397 (AB271057)</text>
    </g>
    <g>
     <circle stroke="black" stroke-width="0.5" fill="#aaffff" cx="583.0" cy="230.0" r="1.0"/>
     <text stroke="none" x="583.0" y="230.0" font-size="20.0" font-family="helvetica">P. validus DSM 30377 (D78320)</text>
    </g>
    <g>
     <circle stroke="black" stroke-width="0.5" fill="#aaffff" cx="583.0" cy="491.0" r="1.0"/>
     <text stroke="none" x="583.0" y="491.0" font-size="20.0" font-family="helvetica">P. chondroitinus DSM 5O51T (D82064)</text>
    </g>
    <g>
     <circle stroke="black" stroke-width="0.5" fill="#aaffff" cx="608.0" cy="274.0" r="1.0"/>
     <text stroke="none" x="608.0" y="274.0" font-size="20.0" font-family="helvetica">P. koleovorans TBT (AB041720)</text>
    </g>
    <g>
     <circle stroke="black" stroke-width="0.5" fill="#aaffff" cx="614.0" cy="186.0" r="1.0"/>
     <text stroke="none" x="614.0" y="186.0" font-size="20.0" font-family="helvetica"/>
    </g>
    <g>
     <circle stroke="black" stroke-width="0.5" fill="#aaffff" cx="677.0" cy="361.0" r="1.0"/>
     <text stroke="none" x="677.0" y="361.0" font-size="20.0" font-family="helvetica">P. hodogayensis SGT (AB179866)</text>
    </g>
    <g>
     <circle stroke="black" stroke-width="0.5" fill="#aaffff" cx="677.0" cy="447.0" r="1.0"/>
     <text stroke="none" x="677.0" y="447.0" font-size="20.0" font-family="helvetica">P. alginolyticus DSM 5O5OT (D78465)</text>
    </g>
    <line stroke="black" x1="459.0" y1="14.0" x2="448.0" y2="35.0" stroke-width="0.5"/>
    <line stroke="black" x1="455.0" y1="35.0" x2="448.0" y2="35.0" stroke-width="0.5"/>
    <line stroke="black" x1="375.0" y1="66.0" x2="368.0" y2="66.0" stroke-width="0.5"/>
    <line stroke="black" x1="561.0" y1="57.0" x2="448.0" y2="35.0" stroke-width="0.5"/>
    <line stroke="black" x1="431.0" y1="101.0" x2="366.0" y2="69.0" stroke-width="0.5"/>
    <line stroke="black" x1="290.0" y1="208.0" x2="283.0" y2="208.0" stroke-width="0.5"/>
    <line stroke="black" x1="191.0" y1="305.0" x2="184.0" y2="306.0" stroke-width="0.5"/>
    <line stroke="black" x1="468.0" y1="143.0" x2="194.0" y2="175.0" stroke-width="0.5"/>
    <line stroke="black" x1="583.0" y1="230.0" x2="283.0" y2="208.0" stroke-width="0.5"/>
    <line stroke="black" x1="614.0" y1="186.0" x2="283.0" y2="208.0" stroke-width="0.5"/>
    <line stroke="black" x1="346.0" y1="337.0" x2="339.0" y2="338.0" stroke-width="0.5"/>
    <line stroke="black" x1="581.0" y1="318.0" x2="339.0" y2="338.0" stroke-width="0.5"/>
    <line stroke="black" x1="537.0" y1="405.0" x2="38.0" y2="312.0" stroke-width="0.5"/>
    <line stroke="black" x1="408.0" y1="468.0" x2="401.0" y2="469.0" stroke-width="0.5"/>
    <line stroke="black" x1="677.0" y1="447.0" x2="401.0" y2="469.0" stroke-width="0.5"/>
    <line stroke="black" x1="448.0" y1="35.0" x2="368.0" y2="66.0" stroke-width="0.5"/>
    <line stroke="black" x1="368.0" y1="66.0" x2="366.0" y2="69.0" stroke-width="0.5"/>
    <line stroke="black" x1="366.0" y1="69.0" x2="145.0" y2="123.0" stroke-width="0.5"/>
    <line stroke="black" x1="145.0" y1="123.0" x2="58.0" y2="216.0" stroke-width="0.5"/>
    <line stroke="black" x1="145.0" y1="123.0" x2="194.0" y2="175.0" stroke-width="0.5"/>
    <line stroke="black" x1="194.0" y1="175.0" x2="283.0" y2="208.0" stroke-width="0.5"/>
    <line stroke="black" x1="58.0" y1="216.0" x2="38.0" y2="312.0" stroke-width="0.5"/>
    <line stroke="black" x1="58.0" y1="216.0" x2="184.0" y2="306.0" stroke-width="0.5"/>
    <line stroke="black" x1="184.0" y1="306.0" x2="339.0" y2="338.0" stroke-width="0.5"/>
    <line stroke="black" x1="38.0" y1="312.0" x2="401.0" y2="469.0" stroke-width="0.5"/>
    <line stroke="black" x1="608.0" y1="274.0" x2="184.0" y2="306.0" stroke-width="0.5"/>
    <line stroke="black" x1="677.0" y1="361.0" x2="339.0" y2="338.0" stroke-width="0.5"/>
    <line stroke="black" x1="583.0" y1="491.0" x2="401.0" y2="469.0" stroke-width="0.5"/>
   </g>
  </g>
 </svg>
</svg>
