<?xml version="1.0" encoding="UTF-8"?>
<svg height="800.0" width="700.0" xmlns="http://www.w3.org/2000/svg">
 <svg>
  <g>
   <g>
    <g>
     <circle stroke="black" stroke-width="0.5" fill="#aaffff" cx="127.0" cy="213.0" r="1.0"/>
     <text stroke="none" x="127.0" y="213.0" font-size="10.0" font-family="helvetica">NT1.1</text>
    </g>
    <g>
     <circle stroke="black" stroke-width="0.5" fill="#aaffff" cx="220.0" cy="366.0" r="1.0"/>
     <text stroke="none" x="220.0" y="366.0" font-size="20.0" font-family="helvetica">100</text>
    </g>
    <g>
     <circle stroke="black" stroke-width="0.5" fill="#aaffff" cx="235.0" cy="59.0" r="1.0"/>
     <text stroke="none" x="235.0" y="59.0" font-size="20.0" font-family="helvetica">100</text>
    </g>
    <g>
     <circle stroke="black" stroke-width="0.5" fill="#aaffff" cx="241.0" cy="548.0" r="1.0"/>
     <text stroke="none" x="241.0" y="548.0" font-size="10.0" font-family="helvetica">NT1.4</text>
    </g>
    <g>
     <circle stroke="black" stroke-width="0.5" fill="#aaffff" cx="259.0" cy="184.0" r="1.0"/>
     <text stroke="none" x="259.0" y="184.0" font-size="20.0" font-family="helvetica">73</text>
    </g>
    <g>
     <circle stroke="black" stroke-width="0.5" fill="#aaffff" cx="279.0" cy="241.0" r="1.0"/>
     <text stroke="none" x="279.0" y="241.0" font-size="20.0" font-family="helvetica">62</text>
    </g>
    <g>
     <circle stroke="black" stroke-width="0.5" fill="#aaffff" cx="294.0" cy="129.0" r="1.0"/>
     <text stroke="none" x="294.0" y="129.0" font-size="20.0" font-family="helvetica">67</text>
    </g>
    <g>
     <circle stroke="black" stroke-width="0.5" fill="#aaffff" cx="294.0" cy="686.0" r="1.0"/>
     <text stroke="none" x="294.0" y="686.0" font-size="20.0" font-family="helvetica">66</text>
    </g>
    <g>
     <circle stroke="black" stroke-width="0.5" fill="#aaffff" cx="306.0" cy="411.0" r="1.0"/>
     <text stroke="none" x="306.0" y="411.0" font-size="10.0" font-family="helvetica">NT1.9</text>
    </g>
    <g>
     <circle stroke="black" stroke-width="0.5" fill="#aaffff" cx="340.0" cy="272.0" r="1.0"/>
     <text stroke="none" x="340.0" y="272.0" font-size="10.0" font-family="helvetica">NT1.10</text>
    </g>
    <g>
     <circle stroke="black" stroke-width="0.5" fill="#aaffff" cx="345.0" cy="760.0" r="1.0"/>
     <text stroke="none" x="345.0" y="760.0" font-size="20.0" font-family="helvetica">84</text>
    </g>
    <g>
     <circle stroke="black" stroke-width="0.5" fill="#aaffff" cx="347.0" cy="477.0" r="1.0"/>
     <text stroke="none" x="347.0" y="477.0" font-size="20.0" font-family="helvetica">77</text>
    </g>
    <g>
     <circle stroke="black" stroke-width="0.5" fill="#aaffff" cx="364.0" cy="514.0" r="1.0"/>
     <text stroke="none" x="364.0" y="514.0" font-size="10.0" font-family="helvetica">NT1.13</text>
    </g>
    <g>
     <circle stroke="black" stroke-width="0.5" fill="#aaffff" cx="369.0" cy="703.0" r="1.0"/>
     <text stroke="none" x="369.0" y="703.0" font-size="20.0" font-family="helvetica">62</text>
    </g>
    <g>
     <circle stroke="black" stroke-width="0.5" fill="#aaffff" cx="376.0" cy="150.0" r="1.0"/>
     <text stroke="none" x="376.0" y="150.0" font-size="20.0" font-family="helvetica">100</text>
    </g>
    <g>
     <circle stroke="black" stroke-width="0.5" fill="#aaffff" cx="381.0" cy="344.0" r="1.0"/>
     <text stroke="none" x="381.0" y="344.0" font-size="20.0" font-family="helvetica">97</text>
    </g>
    <g>
     <circle stroke="black" stroke-width="0.5" fill="#aaffff" cx="385.0" cy="212.0" r="1.0"/>
     <text stroke="none" x="385.0" y="212.0" font-size="20.0" font-family="helvetica">100</text>
    </g>
    <g>
     <circle stroke="black" stroke-width="0.5" fill="#aaffff" cx="410.0" cy="370.0" r="1.0"/>
     <text stroke="none" x="410.0" y="370.0" font-size="10.0" font-family="helvetica">NT1.18</text>
    </g>
    <g>
     <circle stroke="black" stroke-width="0.5" fill="#aaffff" cx="412.0" cy="483.0" r="1.0"/>
     <text stroke="none" x="412.0" y="483.0" font-size="20.0" font-family="helvetica">86</text>
    </g>
    <g>
     <circle stroke="black" stroke-width="0.5" fill="#aaffff" cx="419.0" cy="726.0" r="1.0"/>
     <text stroke="none" x="419.0" y="726.0" font-size="20.0" font-family="helvetica">62</text>
    </g>
    <g>
     <circle stroke="black" stroke-width="0.5" fill="#aaffff" cx="422.0" cy="288.0" r="1.0"/>
     <text stroke="none" x="422.0" y="288.0" font-size="20.0" font-family="helvetica">Thiorhadovibrio winogradskyi DSM 67027 (AJOO6214)</text>
    </g>
    <g>
     <circle stroke="black" stroke-width="0.5" fill="#aaffff" cx="422.0" cy="499.0" r="1.0"/>
     <text stroke="none" x="422.0" y="499.0" font-size="10.0" font-family="helvetica">NT1.22</text>
    </g>
    <g>
     <circle stroke="black" stroke-width="0.5" fill="#aaffff" cx="422.0" cy="817.0" r="1.0"/>
     <text stroke="none" x="422.0" y="817.0" font-size="20.0" font-family="helvetica">98</text>
    </g>
    <g>
     <circle stroke="black" stroke-width="0.5" fill="#aaffff" cx="429.0" cy="348.0" r="1.0"/>
     <text stroke="none" x="429.0" y="348.0" font-size="20.0" font-family="helvetica">Marichromatium indicum DSM 159077 (AJ543328)</text>
    </g>
    <g>
     <circle stroke="black" stroke-width="0.5" fill="#aaffff" cx="432.0" cy="545.0" r="1.0"/>
     <text stroke="none" x="432.0" y="545.0" font-size="10.0" font-family="helvetica">NT1.25</text>
    </g>
    <g>
     <circle stroke="black" stroke-width="0.5" fill="#aaffff" cx="437.0" cy="75.0" r="1.0"/>
     <text stroke="none" x="437.0" y="75.0" font-size="20.0" font-family="helvetica">Ectothiorhodospira shaposhnikovif DSM 2437 (M59151)</text>
    </g>
    <g>
     <circle stroke="black" stroke-width="0.5" fill="#aaffff" cx="437.0" cy="393.0" r="1.0"/>
     <text stroke="none" x="437.0" y="393.0" font-size="20.0" font-family="helvetica">70</text>
    </g>
    <g>
     <circle stroke="black" stroke-width="0.5" fill="#aaffff" cx="443.0" cy="106.0" r="1.0"/>
     <text stroke="none" x="443.0" y="106.0" font-size="20.0" font-family="helvetica">Thiohalocapsa halophila DSM 62107 (AJ002796)</text>
    </g>
    <g>
     <circle stroke="black" stroke-width="0.5" fill="#aaffff" cx="444.0" cy="257.0" r="1.0"/>
     <text stroke="none" x="444.0" y="257.0" font-size="20.0" font-family="helvetica">Rhabdochromalium marinum DSM 52617 (X84316)</text>
    </g>
    <g>
     <circle stroke="black" stroke-width="0.5" fill="#aaffff" cx="444.0" cy="613.0" r="1.0"/>
     <text stroke="none" x="444.0" y="613.0" font-size="20.0" font-family="helvetica">100</text>
    </g>
    <g>
     <circle stroke="black" stroke-width="0.5" fill="#aaffff" cx="449.0" cy="438.0" r="1.0"/>
     <text stroke="none" x="449.0" y="438.0" font-size="10.0" font-family="helvetica">NT1.31</text>
    </g>
    <g>
     <circle stroke="black" stroke-width="0.5" fill="#aaffff" cx="460.0" cy="317.0" r="1.0"/>
     <text stroke="none" x="460.0" y="317.0" font-size="10.0" font-family="helvetica">NT1.32</text>
    </g>
    <g>
     <circle stroke="black" stroke-width="0.5" fill="#aaffff" cx="462.0" cy="636.0" r="1.0"/>
     <text stroke="none" x="462.0" y="636.0" font-size="10.0" font-family="helvetica">NT1.33</text>
    </g>
    <g>
     <circle stroke="black" stroke-width="0.5" fill="#aaffff" cx="476.0" cy="846.0" r="1.0"/>
     <text stroke="none" x="476.0" y="846.0" font-size="20.0" font-family="helvetica">100</text>
    </g>
    <g>
     <circle stroke="black" stroke-width="0.5" fill="#aaffff" cx="479.0" cy="862.0" r="1.0"/>
     <text stroke="none" x="479.0" y="862.0" font-size="20.0" font-family="helvetica">Allochromatium vinosum ATCC 178997 (M26629)</text>
    </g>
    <g>
     <circle stroke="black" stroke-width="0.5" fill="#aaffff" cx="490.0" cy="560.0" r="1.0"/>
     <text stroke="none" x="490.0" y="560.0" font-size="10.0" font-family="helvetica">NT1.36</text>
    </g>
    <g>
     <circle stroke="black" stroke-width="0.5" fill="#aaffff" cx="499.0" cy="529.0" r="1.0"/>
     <text stroke="none" x="499.0" y="529.0" font-size="20.0" font-family="helvetica">Thiorhodococcus mannitoliphagus ATCC BAA-12287 (AJ971090)</text>
    </g>
    <g>
     <circle stroke="black" stroke-width="0.5" fill="#aaffff" cx="501.0" cy="786.0" r="1.0"/>
     <text stroke="none" x="501.0" y="786.0" font-size="20.0" font-family="helvetica">92</text>
    </g>
    <g>
     <circle stroke="black" stroke-width="0.5" fill="#aaffff" cx="503.0" cy="166.0" r="1.0"/>
     <text stroke="none" x="503.0" y="166.0" font-size="20.0" font-family="helvetica">Halochromatfum salexfgens DSM 43957 (X98597)</text>
    </g>
    <g>
     <circle stroke="black" stroke-width="0.5" fill="#aaffff" cx="506.0" cy="649.0" r="1.0"/>
     <text stroke="none" x="506.0" y="649.0" font-size="10.0" font-family="helvetica">NT1.40</text>
    </g>
    <g>
     <circle stroke="black" stroke-width="0.5" fill="#aaffff" cx="506.0" cy="680.0" r="1.0"/>
     <text stroke="none" x="506.0" y="680.0" font-size="20.0" font-family="helvetica">Thiocystis violacea DSM 2077 (Y11315)</text>
    </g>
    <g>
     <circle stroke="black" stroke-width="0.5" fill="#aaffff" cx="522.0" cy="740.0" r="1.0"/>
     <text stroke="none" x="522.0" y="740.0" font-size="20.0" font-family="helvetica">Thiocystis gelatinosa DSM 2157 (Y11317)</text>
    </g>
    <g>
     <circle stroke="black" stroke-width="0.5" fill="#aaffff" cx="534.0" cy="15.0" r="1.0"/>
     <text stroke="none" x="534.0" y="15.0" font-size="20.0" font-family="helvetica">Escherichia coli ATCC 117757 (X80725)</text>
    </g>
    <g>
     <circle stroke="black" stroke-width="0.5" fill="#aaffff" cx="535.0" cy="136.0" r="1.0"/>
     <text stroke="none" x="535.0" y="136.0" font-size="20.0" font-family="helvetica">Halochromatium glycolicum DSM 110807 (X93472)</text>
    </g>
    <g>
     <circle stroke="black" stroke-width="0.5" fill="#aaffff" cx="535.0" cy="469.0" r="1.0"/>
     <text stroke="none" x="535.0" y="469.0" font-size="10.0" font-family="helvetica">NT1.45</text>
    </g>
    <g>
     <circle stroke="black" stroke-width="0.5" fill="#aaffff" cx="542.0" cy="228.0" r="1.0"/>
     <text stroke="none" x="542.0" y="228.0" font-size="20.0" font-family="helvetica">Thiococcus pfennigii DSM 2267 (Y12373)</text>
    </g>
    <g>
     <circle stroke="black" stroke-width="0.5" fill="#aaffff" cx="561.0" cy="831.0" r="1.0"/>
     <text stroke="none" x="561.0" y="831.0" font-size="20.0" font-family="helvetica">Allochromatium minutissimum DSM 13767 (Y12369)</text>
    </g>
    <g>
     <circle stroke="black" stroke-width="0.5" fill="#aaffff" cx="565.0" cy="408.0" r="1.0"/>
     <text stroke="none" x="565.0" y="408.0" font-size="20.0" font-family="helvetica">Manchromatlum gracile DSM 2037 (X93473)</text>
    </g>
    <g>
     <circle stroke="black" stroke-width="0.5" fill="#aaffff" cx="590.0" cy="45.0" r="1.0"/>
     <text stroke="none" x="590.0" y="45.0" font-size="20.0" font-family="helvetica">Halorhodospira halophila DSM 2447 (M26630)</text>
    </g>
    <g>
     <circle stroke="black" stroke-width="0.5" fill="#aaffff" cx="613.0" cy="589.0" r="1.0"/>
     <text stroke="none" x="613.0" y="589.0" font-size="20.0" font-family="helvetica">Thiocapsa pendens DSM 2367 (AJO02797)</text>
    </g>
    <g>
     <circle stroke="black" stroke-width="0.5" fill="#aaffff" cx="619.0" cy="711.0" r="1.0"/>
     <text stroke="none" x="619.0" y="711.0" font-size="20.0" font-family="helvetica">Chromatium okenii DSM 1697 (Y12376)</text>
    </g>
    <g>
     <circle stroke="black" stroke-width="0.5" fill="#aaffff" cx="650.0" cy="197.0" r="1.0"/>
     <text stroke="none" x="650.0" y="197.0" font-size="20.0" font-family="helvetica">Thioalkalicoccus limnaeus ATCC BAA-327 (AJ277023)</text>
    </g>
    <g>
     <circle stroke="black" stroke-width="0.5" fill="#aaffff" cx="651.0" cy="620.0" r="1.0"/>
     <text stroke="none" x="651.0" y="620.0" font-size="10.0" font-family="helvetica">NT1.53</text>
    </g>
    <g>
     <circle stroke="black" stroke-width="0.5" fill="#aaffff" cx="655.0" cy="379.0" r="1.0"/>
     <text stroke="none" x="655.0" y="379.0" font-size="20.0" font-family="helvetica">Marichromatium purpuratum DSM 15917 (AJ224439)</text>
    </g>
    <g>
     <circle stroke="black" stroke-width="0.5" fill="#aaffff" cx="700.0" cy="802.0" r="1.0"/>
     <text stroke="none" x="700.0" y="802.0" font-size="20.0" font-family="helvetica">Allochromatium warmingii DSM 1737 (Y12365)</text>
    </g>
    <g>
     <circle stroke="black" stroke-width="0.5" fill="#aaffff" cx="740.0" cy="771.0" r="1.0"/>
     <text stroke="none" x="740.0" y="771.0" font-size="20.0" font-family="helvetica">Thermochromatium tepidum ATCC 430617 (M59150)</text>
    </g>
    <g>
     <circle stroke="black" stroke-width="0.5" fill="#aaffff" cx="2.0" cy="114.0" r="1.0"/>
     <text stroke="none" x="2.0" y="114.0" font-size="10.0" font-family="helvetica">NT1.57</text>
    </g>
    <line stroke="black" x1="437.0" y1="75.0" x2="235.0" y2="59.0" stroke-width="0.5"/>
    <line stroke="black" x1="590.0" y1="45.0" x2="235.0" y2="59.0" stroke-width="0.5"/>
    <line stroke="black" x1="422.0" y1="288.0" x2="340.0" y2="272.0" stroke-width="0.5"/>
    <line stroke="black" x1="443.0" y1="106.0" x2="294.0" y2="129.0" stroke-width="0.5"/>
    <line stroke="black" x1="444.0" y1="257.0" x2="340.0" y2="272.0" stroke-width="0.5"/>
    <line stroke="black" x1="503.0" y1="166.0" x2="376.0" y2="150.0" stroke-width="0.5"/>
    <line stroke="black" x1="535.0" y1="136.0" x2="376.0" y2="150.0" stroke-width="0.5"/>
    <line stroke="black" x1="542.0" y1="228.0" x2="385.0" y2="212.0" stroke-width="0.5"/>
    <line stroke="black" x1="429.0" y1="348.0" x2="410.0" y2="370.0" stroke-width="0.5"/>
    <line stroke="black" x1="650.0" y1="197.0" x2="385.0" y2="212.0" stroke-width="0.5"/>
    <line stroke="black" x1="499.0" y1="529.0" x2="432.0" y2="545.0" stroke-width="0.5"/>
    <line stroke="black" x1="479.0" y1="862.0" x2="476.0" y2="846.0" stroke-width="0.5"/>
    <line stroke="black" x1="506.0" y1="680.0" x2="369.0" y2="703.0" stroke-width="0.5"/>
    <line stroke="black" x1="522.0" y1="740.0" x2="419.0" y2="726.0" stroke-width="0.5"/>
    <line stroke="black" x1="565.0" y1="408.0" x2="437.0" y2="393.0" stroke-width="0.5"/>
    <line stroke="black" x1="613.0" y1="589.0" x2="444.0" y2="613.0" stroke-width="0.5"/>
    <line stroke="black" x1="561.0" y1="831.0" x2="476.0" y2="846.0" stroke-width="0.5"/>
    <line stroke="black" x1="655.0" y1="379.0" x2="437.0" y2="393.0" stroke-width="0.5"/>
    <line stroke="black" x1="619.0" y1="711.0" x2="419.0" y2="726.0" stroke-width="0.5"/>
    <line stroke="black" x1="700.0" y1="802.0" x2="501.0" y2="786.0" stroke-width="0.5"/>
    <line stroke="black" x1="740.0" y1="771.0" x2="501.0" y2="786.0" stroke-width="0.5"/>
    <line stroke="black" x1="127.0" y1="213.0" x2="220.0" y2="366.0" stroke-width="0.5"/>
    <line stroke="black" x1="127.0" y1="213.0" x2="235.0" y2="59.0" stroke-width="0.5"/>
    <line stroke="black" x1="220.0" y1="366.0" x2="241.0" y2="548.0" stroke-width="0.5"/>
    <line stroke="black" x1="220.0" y1="366.0" x2="259.0" y2="184.0" stroke-width="0.5"/>
    <line stroke="black" x1="241.0" y1="548.0" x2="294.0" y2="686.0" stroke-width="0.5"/>
    <line stroke="black" x1="241.0" y1="548.0" x2="306.0" y2="411.0" stroke-width="0.5"/>
    <line stroke="black" x1="259.0" y1="184.0" x2="279.0" y2="241.0" stroke-width="0.5"/>
    <line stroke="black" x1="259.0" y1="184.0" x2="294.0" y2="129.0" stroke-width="0.5"/>
    <line stroke="black" x1="279.0" y1="241.0" x2="340.0" y2="272.0" stroke-width="0.5"/>
    <line stroke="black" x1="279.0" y1="241.0" x2="385.0" y2="212.0" stroke-width="0.5"/>
    <line stroke="black" x1="294.0" y1="129.0" x2="376.0" y2="150.0" stroke-width="0.5"/>
    <line stroke="black" x1="294.0" y1="686.0" x2="345.0" y2="760.0" stroke-width="0.5"/>
    <line stroke="black" x1="345.0" y1="760.0" x2="422.0" y2="817.0" stroke-width="0.5"/>
    <line stroke="black" x1="381.0" y1="344.0" x2="410.0" y2="370.0" stroke-width="0.5"/>
    <line stroke="black" x1="369.0" y1="703.0" x2="419.0" y2="726.0" stroke-width="0.5"/>
    <line stroke="black" x1="410.0" y1="370.0" x2="437.0" y2="393.0" stroke-width="0.5"/>
    <line stroke="black" x1="422.0" y1="817.0" x2="476.0" y2="846.0" stroke-width="0.5"/>
    <line stroke="black" x1="422.0" y1="817.0" x2="501.0" y2="786.0" stroke-width="0.5"/>
    <line stroke="black" x1="2.0" y1="114.0" x2="534.0" y2="15.0" stroke-width="0.5"/>
    <line stroke="black" x1="2.0" y1="114.0" x2="127.0" y2="213.0" stroke-width="0.5"/>
    <line stroke="black" x1="345.0" y1="760.0" x2="369.0" y2="703.0" stroke-width="0.5"/>
   </g>
  </g>
 </svg>
</svg>
