<?xml version="1.0" encoding="UTF-8"?>
<svg height="800.0" width="700.0" xmlns="http://www.w3.org/2000/svg">
 <svg>
  <g>
   <g>
    <g>
     <circle stroke="black" stroke-width="0.5" fill="#aaffff" cx="60.0" cy="641.0" r="1.0"/>
     <text stroke="none" x="60.0" y="641.0" font-size="20.0" font-family="helvetica"/>
    </g>
    <g>
     <circle stroke="black" stroke-width="0.5" fill="#aaffff" cx="76.0" cy="919.0" r="1.0"/>
     <text stroke="none" x="76.0" y="919.0" font-size="10.0" font-family="helvetica">NT1.2</text>
    </g>
    <g>
     <circle stroke="black" stroke-width="0.5" fill="#aaffff" cx="86.0" cy="791.0" r="1.0"/>
     <text stroke="none" x="86.0" y="791.0" font-size="10.0" font-family="helvetica">NT1.3</text>
    </g>
    <g>
     <circle stroke="black" stroke-width="0.5" fill="#aaffff" cx="91.0" cy="1048.0" r="1.0"/>
     <text stroke="none" x="91.0" y="1048.0" font-size="10.0" font-family="helvetica">NT1.4</text>
    </g>
    <g>
     <circle stroke="black" stroke-width="0.5" fill="#aaffff" cx="100.0" cy="1111.0" r="1.0"/>
     <text stroke="none" x="100.0" y="1111.0" font-size="10.0" font-family="helvetica">NT1.5</text>
    </g>
    <g>
     <circle stroke="black" stroke-width="0.5" fill="#aaffff" cx="112.0" cy="645.0" r="1.0"/>
     <text stroke="none" x="112.0" y="645.0" font-size="10.0" font-family="helvetica">NT1.6</text>
    </g>
    <g>
     <circle stroke="black" stroke-width="0.5" fill="#aaffff" cx="114.0" cy="776.0" r="1.0"/>
     <text stroke="none" x="114.0" y="776.0" font-size="10.0" font-family="helvetica">NT1.7</text>
    </g>
    <g>
     <circle stroke="black" stroke-width="0.5" fill="#aaffff" cx="131.0" cy="456.0" r="1.0"/>
     <text stroke="none" x="131.0" y="456.0" font-size="10.0" font-family="helvetica">NT1.8</text>
    </g>
    <g>
     <circle stroke="black" stroke-width="0.5" fill="#aaffff" cx="148.0" cy="776.0" r="1.0"/>
     <text stroke="none" x="148.0" y="776.0" font-size="10.0" font-family="helvetica">NT1.9</text>
    </g>
    <g>
     <circle stroke="black" stroke-width="0.5" fill="#aaffff" cx="153.0" cy="367.0" r="1.0"/>
     <text stroke="none" x="153.0" y="367.0" font-size="10.0" font-family="helvetica">NT1.10</text>
    </g>
    <g>
     <circle stroke="black" stroke-width="0.5" fill="#aaffff" cx="155.0" cy="712.0" r="1.0"/>
     <text stroke="none" x="155.0" y="712.0" font-size="10.0" font-family="helvetica">NT1.11</text>
    </g>
    <g>
     <circle stroke="black" stroke-width="0.5" fill="#aaffff" cx="158.0" cy="1060.0" r="1.0"/>
     <text stroke="none" x="158.0" y="1060.0" font-size="10.0" font-family="helvetica">NT1.12</text>
    </g>
    <g>
     <circle stroke="black" stroke-width="0.5" fill="#aaffff" cx="163.0" cy="774.0" r="1.0"/>
     <text stroke="none" x="163.0" y="774.0" font-size="10.0" font-family="helvetica">NT1.13</text>
    </g>
    <g>
     <circle stroke="black" stroke-width="0.5" fill="#aaffff" cx="175.0" cy="648.0" r="1.0"/>
     <text stroke="none" x="175.0" y="648.0" font-size="10.0" font-family="helvetica">NT1.14</text>
    </g>
    <g>
     <circle stroke="black" stroke-width="0.5" fill="#aaffff" cx="177.0" cy="1094.0" r="1.0"/>
     <text stroke="none" x="177.0" y="1094.0" font-size="10.0" font-family="helvetica">NT1.15</text>
    </g>
    <g>
     <circle stroke="black" stroke-width="0.5" fill="#aaffff" cx="178.0" cy="1072.0" r="1.0"/>
     <text stroke="none" x="178.0" y="1072.0" font-size="10.0" font-family="helvetica">NT1.16</text>
    </g>
    <g>
     <circle stroke="black" stroke-width="0.5" fill="#aaffff" cx="178.0" cy="1120.0" r="1.0"/>
     <text stroke="none" x="178.0" y="1120.0" font-size="20.0" font-family="helvetica">Arthrobacter ramosus DSM 205461 (X80742)</text>
    </g>
    <g>
     <circle stroke="black" stroke-width="0.5" fill="#aaffff" cx="189.0" cy="283.0" r="1.0"/>
     <text stroke="none" x="189.0" y="283.0" font-size="10.0" font-family="helvetica">NT1.18</text>
    </g>
    <g>
     <circle stroke="black" stroke-width="0.5" fill="#aaffff" cx="190.0" cy="1025.0" r="1.0"/>
     <text stroke="none" x="190.0" y="1025.0" font-size="20.0" font-family="helvetica"> Arthrobacter globlfomis DSM 20124T (X80736)</text>
    </g>
    <g>
     <circle stroke="black" stroke-width="0.5" fill="#aaffff" cx="194.0" cy="544.0" r="1.0"/>
     <text stroke="none" x="194.0" y="544.0" font-size="10.0" font-family="helvetica">NT1.20</text>
    </g>
    <g>
     <circle stroke="black" stroke-width="0.5" fill="#aaffff" cx="209.0" cy="981.0" r="1.0"/>
     <text stroke="none" x="209.0" y="981.0" font-size="20.0" font-family="helvetica">Arthrobacter crysrallopoietes DSM 20l17T (X80738)</text>
    </g>
    <g>
     <circle stroke="black" stroke-width="0.5" fill="#aaffff" cx="214.0" cy="349.0" r="1.0"/>
     <text stroke="none" x="214.0" y="349.0" font-size="10.0" font-family="helvetica">NT1.22</text>
    </g>
    <g>
     <circle stroke="black" stroke-width="0.5" fill="#aaffff" cx="217.0" cy="890.0" r="1.0"/>
     <text stroke="none" x="217.0" y="890.0" font-size="20.0" font-family="helvetica">Arthrobacter methylotrophus ATCC BAA-111T (AF235090)</text>
    </g>
    <g>
     <circle stroke="black" stroke-width="0.5" fill="#aaffff" cx="219.0" cy="1164.0" r="1.0"/>
     <text stroke="none" x="219.0" y="1164.0" font-size="20.0" font-family="helvetica">Arthrobucter woluwensis DSM 104951 (X93353)</text>
    </g>
    <g>
     <circle stroke="black" stroke-width="0.5" fill="#aaffff" cx="226.0" cy="214.0" r="1.0"/>
     <text stroke="none" x="226.0" y="214.0" font-size="10.0" font-family="helvetica">NT1.25</text>
    </g>
    <g>
     <circle stroke="black" stroke-width="0.5" fill="#aaffff" cx="233.0" cy="179.0" r="1.0"/>
     <text stroke="none" x="233.0" y="179.0" font-size="10.0" font-family="helvetica">NT1.26</text>
    </g>
    <g>
     <circle stroke="black" stroke-width="0.5" fill="#aaffff" cx="235.0" cy="683.0" r="1.0"/>
     <text stroke="none" x="235.0" y="683.0" font-size="10.0" font-family="helvetica">NT1.27</text>
    </g>
    <g>
     <circle stroke="black" stroke-width="0.5" fill="#aaffff" cx="236.0" cy="154.0" r="1.0"/>
     <text stroke="none" x="236.0" y="154.0" font-size="20.0" font-family="helvetica">Arthrubacter nitroguajacolicus G2-1T (AJ512504)</text>
    </g>
    <g>
     <circle stroke="black" stroke-width="0.5" fill="#aaffff" cx="238.0" cy="317.0" r="1.0"/>
     <text stroke="none" x="238.0" y="317.0" font-size="10.0" font-family="helvetica">NT1.29</text>
    </g>
    <g>
     <circle stroke="black" stroke-width="0.5" fill="#aaffff" cx="239.0" cy="339.0" r="1.0"/>
     <text stroke="none" x="239.0" y="339.0" font-size="20.0" font-family="helvetica">Arthrobacter nicotinnvorans DSM 420T (X80743)</text>
    </g>
    <g>
     <circle stroke="black" stroke-width="0.5" fill="#aaffff" cx="242.0" cy="453.0" r="1.0"/>
     <text stroke="none" x="242.0" y="453.0" font-size="10.0" font-family="helvetica">NT1.31</text>
    </g>
    <g>
     <circle stroke="black" stroke-width="0.5" fill="#aaffff" cx="243.0" cy="798.0" r="1.0"/>
     <text stroke="none" x="243.0" y="798.0" font-size="10.0" font-family="helvetica">NT1.32</text>
    </g>
    <g>
     <circle stroke="black" stroke-width="0.5" fill="#aaffff" cx="247.0" cy="200.0" r="1.0"/>
     <text stroke="none" x="247.0" y="200.0" font-size="10.0" font-family="helvetica">NT1.33</text>
    </g>
    <g>
     <circle stroke="black" stroke-width="0.5" fill="#aaffff" cx="248.0" cy="660.0" r="1.0"/>
     <text stroke="none" x="248.0" y="660.0" font-size="10.0" font-family="helvetica">NT1.34</text>
    </g>
    <g>
     <circle stroke="black" stroke-width="0.5" fill="#aaffff" cx="251.0" cy="613.0" r="1.0"/>
     <text stroke="none" x="251.0" y="613.0" font-size="20.0" font-family="helvetica">Arthrobacter chlorophenolicus DSM 12829T (AF102267)</text>
    </g>
    <g>
     <circle stroke="black" stroke-width="0.5" fill="#aaffff" cx="258.0" cy="705.0" r="1.0"/>
     <text stroke="none" x="258.0" y="705.0" font-size="20.0" font-family="helvetica"> Arthrobacter polychromogenes DSM 20136T (X80741)</text>
    </g>
    <g>
     <circle stroke="black" stroke-width="0.5" fill="#aaffff" cx="260.0" cy="292.0" r="1.0"/>
     <text stroke="none" x="260.0" y="292.0" font-size="20.0" font-family="helvetica"> Arthrobacter histidmolovorans DSM 20115T (X83406)</text>
    </g>
    <g>
     <circle stroke="black" stroke-width="0.5" fill="#aaffff" cx="275.0" cy="478.0" r="1.0"/>
     <text stroke="none" x="275.0" y="478.0" font-size="20.0" font-family="helvetica"> Arthrobacter luteolus DSM 13067T (AJ242532)</text>
    </g>
    <g>
     <circle stroke="black" stroke-width="0.5" fill="#aaffff" cx="280.0" cy="934.0" r="1.0"/>
     <text stroke="none" x="280.0" y="934.0" font-size="20.0" font-family="helvetica">Arthrobacter nasiphacae CCUG 429351 (AJ292364)</text>
    </g>
    <g>
     <circle stroke="black" stroke-width="0.5" fill="#aaffff" cx="282.0" cy="384.0" r="1.0"/>
     <text stroke="none" x="282.0" y="384.0" font-size="20.0" font-family="helvetica"> Arthrobacter ureafaciens DSM 20126T (X80744)</text>
    </g>
    <g>
     <circle stroke="black" stroke-width="0.5" fill="#aaffff" cx="291.0" cy="248.0" r="1.0"/>
     <text stroke="none" x="291.0" y="248.0" font-size="20.0" font-family="helvetica"> Arthrobacter ilicis DSM 20138T (X83407)</text>
    </g>
    <g>
     <circle stroke="black" stroke-width="0.5" fill="#aaffff" cx="296.0" cy="522.0" r="1.0"/>
     <text stroke="none" x="296.0" y="522.0" font-size="20.0" font-family="helvetica">Arthrabacter agilis DSM 205501 (X80748)</text>
    </g>
    <g>
     <circle stroke="black" stroke-width="0.5" fill="#aaffff" cx="301.0" cy="843.0" r="1.0"/>
     <text stroke="none" x="301.0" y="843.0" font-size="20.0" font-family="helvetica">Arthrobacter roseus MTCC 3712' (AJ278870)</text>
    </g>
    <g>
     <circle stroke="black" stroke-width="0.5" fill="#aaffff" cx="321.0" cy="431.0" r="1.0"/>
     <text stroke="none" x="321.0" y="431.0" font-size="10.0" font-family="helvetica">NT1.44</text>
    </g>
    <g>
     <circle stroke="black" stroke-width="0.5" fill="#aaffff" cx="357.0" cy="752.0" r="1.0"/>
     <text stroke="none" x="357.0" y="752.0" font-size="10.0" font-family="helvetica">NT1.45</text>
    </g>
    <g>
     <circle stroke="black" stroke-width="0.5" fill="#aaffff" cx="384.0" cy="569.0" r="1.0"/>
     <text stroke="none" x="384.0" y="569.0" font-size="10.0" font-family="helvetica">NT1.46</text>
    </g>
    <line stroke="black" x1="236.0" y1="154.0" x2="233.0" y2="179.0" stroke-width="0.5"/>
    <line stroke="black" x1="291.0" y1="248.0" x2="226.0" y2="214.0" stroke-width="0.5"/>
    <line stroke="black" x1="239.0" y1="339.0" x2="238.0" y2="317.0" stroke-width="0.5"/>
    <line stroke="black" x1="260.0" y1="292.0" x2="238.0" y2="317.0" stroke-width="0.5"/>
    <line stroke="black" x1="282.0" y1="384.0" x2="214.0" y2="349.0" stroke-width="0.5"/>
    <line stroke="black" x1="275.0" y1="478.0" x2="242.0" y2="453.0" stroke-width="0.5"/>
    <line stroke="black" x1="296.0" y1="522.0" x2="194.0" y2="544.0" stroke-width="0.5"/>
    <line stroke="black" x1="217.0" y1="890.0" x2="114.0" y2="776.0" stroke-width="0.5"/>
    <line stroke="black" x1="301.0" y1="843.0" x2="148.0" y2="776.0" stroke-width="0.5"/>
    <line stroke="black" x1="251.0" y1="613.0" x2="175.0" y2="648.0" stroke-width="0.5"/>
    <line stroke="black" x1="258.0" y1="705.0" x2="235.0" y2="683.0" stroke-width="0.5"/>
    <line stroke="black" x1="280.0" y1="934.0" x2="86.0" y2="791.0" stroke-width="0.5"/>
    <line stroke="black" x1="60.0" y1="641.0" x2="76.0" y2="919.0" stroke-width="0.5"/>
    <line stroke="black" x1="209.0" y1="981.0" x2="91.0" y2="1048.0" stroke-width="0.5"/>
    <line stroke="black" x1="219.0" y1="1164.0" x2="100.0" y2="1111.0" stroke-width="0.5"/>
    <line stroke="black" x1="190.0" y1="1025.0" x2="158.0" y2="1060.0" stroke-width="0.5"/>
    <line stroke="black" x1="178.0" y1="1120.0" x2="177.0" y2="1094.0" stroke-width="0.5"/>
    <line stroke="black" x1="226.0" y1="214.0" x2="189.0" y2="283.0" stroke-width="0.5"/>
    <line stroke="black" x1="189.0" y1="283.0" x2="153.0" y2="367.0" stroke-width="0.5"/>
    <line stroke="black" x1="189.0" y1="283.0" x2="214.0" y2="349.0" stroke-width="0.5"/>
    <line stroke="black" x1="214.0" y1="349.0" x2="238.0" y2="317.0" stroke-width="0.5"/>
    <line stroke="black" x1="153.0" y1="367.0" x2="131.0" y2="456.0" stroke-width="0.5"/>
    <line stroke="black" x1="131.0" y1="456.0" x2="112.0" y2="645.0" stroke-width="0.5"/>
    <line stroke="black" x1="112.0" y1="645.0" x2="86.0" y2="791.0" stroke-width="0.5"/>
    <line stroke="black" x1="112.0" y1="645.0" x2="114.0" y2="776.0" stroke-width="0.5"/>
    <line stroke="black" x1="114.0" y1="776.0" x2="148.0" y2="776.0" stroke-width="0.5"/>
    <line stroke="black" x1="86.0" y1="791.0" x2="76.0" y2="919.0" stroke-width="0.5"/>
    <line stroke="black" x1="155.0" y1="712.0" x2="175.0" y2="648.0" stroke-width="0.5"/>
    <line stroke="black" x1="76.0" y1="919.0" x2="91.0" y2="1048.0" stroke-width="0.5"/>
    <line stroke="black" x1="91.0" y1="1048.0" x2="100.0" y2="1111.0" stroke-width="0.5"/>
    <line stroke="black" x1="100.0" y1="1111.0" x2="158.0" y2="1060.0" stroke-width="0.5"/>
   </g>
  </g>
 </svg>
</svg>
