<?xml version="1.0" encoding="UTF-8"?>
<svg height="800.0" width="700.0" xmlns="http://www.w3.org/2000/svg">
 <svg>
  <g>
   <g>
    <g>
     <circle stroke="black" stroke-width="0.5" fill="#aaffff" cx="129.0" cy="165.0" r="1.0"/>
     <text stroke="none" x="129.0" y="165.0" font-size="10.0" font-family="helvetica">NT1.1</text>
    </g>
    <g>
     <circle stroke="black" stroke-width="0.5" fill="#aaffff" cx="172.0" cy="149.0" r="1.0"/>
     <text stroke="none" x="172.0" y="149.0" font-size="10.0" font-family="helvetica">NT1.2</text>
    </g>
    <g>
     <circle stroke="black" stroke-width="0.5" fill="#aaffff" cx="180.0" cy="634.0" r="1.0"/>
     <text stroke="none" x="180.0" y="634.0" font-size="10.0" font-family="helvetica">NT1.3</text>
    </g>
    <g>
     <circle stroke="black" stroke-width="0.5" fill="#aaffff" cx="204.0" cy="881.0" r="1.0"/>
     <text stroke="none" x="204.0" y="881.0" font-size="10.0" font-family="helvetica">NT1.4</text>
    </g>
    <g>
     <circle stroke="black" stroke-width="0.5" fill="#aaffff" cx="214.0" cy="391.0" r="1.0"/>
     <text stroke="none" x="214.0" y="391.0" font-size="10.0" font-family="helvetica">NT1.5</text>
    </g>
    <g>
     <circle stroke="black" stroke-width="0.5" fill="#aaffff" cx="214.0" cy="1099.0" r="1.0"/>
     <text stroke="none" x="214.0" y="1099.0" font-size="10.0" font-family="helvetica">NT1.6</text>
    </g>
    <g>
     <circle stroke="black" stroke-width="0.5" fill="#aaffff" cx="231.0" cy="987.0" r="1.0"/>
     <text stroke="none" x="231.0" y="987.0" font-size="10.0" font-family="helvetica">NT1.7</text>
    </g>
    <g>
     <circle stroke="black" stroke-width="0.5" fill="#aaffff" cx="232.0" cy="666.0" r="1.0"/>
     <text stroke="none" x="232.0" y="666.0" font-size="10.0" font-family="helvetica">NT1.8</text>
    </g>
    <g>
     <circle stroke="black" stroke-width="0.5" fill="#aaffff" cx="256.0" cy="770.0" r="1.0"/>
     <text stroke="none" x="256.0" y="770.0" font-size="10.0" font-family="helvetica">NT1.9</text>
    </g>
    <g>
     <circle stroke="black" stroke-width="0.5" fill="#aaffff" cx="269.0" cy="315.0" r="1.0"/>
     <text stroke="none" x="269.0" y="315.0" font-size="10.0" font-family="helvetica">NT1.10</text>
    </g>
    <g>
     <circle stroke="black" stroke-width="0.5" fill="#aaffff" cx="269.0" cy="1216.0" r="1.0"/>
     <text stroke="none" x="269.0" y="1216.0" font-size="20.0" font-family="helvetica">94</text>
    </g>
    <g>
     <circle stroke="black" stroke-width="0.5" fill="#aaffff" cx="284.0" cy="252.0" r="1.0"/>
     <text stroke="none" x="284.0" y="252.0" font-size="10.0" font-family="helvetica">NT1.12</text>
    </g>
    <g>
     <circle stroke="black" stroke-width="0.5" fill="#aaffff" cx="288.0" cy="1022.0" r="1.0"/>
     <text stroke="none" x="288.0" y="1022.0" font-size="10.0" font-family="helvetica">NT1.13</text>
    </g>
    <g>
     <circle stroke="black" stroke-width="0.5" fill="#aaffff" cx="299.0" cy="464.0" r="1.0"/>
     <text stroke="none" x="299.0" y="464.0" font-size="10.0" font-family="helvetica">NT1.14</text>
    </g>
    <g>
     <circle stroke="black" stroke-width="0.5" fill="#aaffff" cx="299.0" cy="373.0" r="1.0"/>
     <text stroke="none" x="299.0" y="373.0" font-size="10.0" font-family="helvetica">NT1.15</text>
    </g>
    <g>
     <circle stroke="black" stroke-width="0.5" fill="#aaffff" cx="301.0" cy="1057.0" r="1.0"/>
     <text stroke="none" x="301.0" y="1057.0" font-size="10.0" font-family="helvetica">NT1.16</text>
    </g>
    <g>
     <circle stroke="black" stroke-width="0.5" fill="#aaffff" cx="310.0" cy="1308.0" r="1.0"/>
     <text stroke="none" x="310.0" y="1308.0" font-size="20.0" font-family="helvetica">81</text>
    </g>
    <g>
     <circle stroke="black" stroke-width="0.5" fill="#aaffff" cx="334.0" cy="401.0" r="1.0"/>
     <text stroke="none" x="334.0" y="401.0" font-size="20.0" font-family="helvetica"/>
    </g>
    <g>
     <circle stroke="black" stroke-width="0.5" fill="#aaffff" cx="335.0" cy="399.0" r="1.0"/>
     <text stroke="none" x="335.0" y="399.0" font-size="10.0" font-family="helvetica">NT1.19</text>
    </g>
    <g>
     <circle stroke="black" stroke-width="0.5" fill="#aaffff" cx="341.0" cy="560.0" r="1.0"/>
     <text stroke="none" x="341.0" y="560.0" font-size="20.0" font-family="helvetica">mo</text>
    </g>
    <g>
     <circle stroke="black" stroke-width="0.5" fill="#aaffff" cx="345.0" cy="671.0" r="1.0"/>
     <text stroke="none" x="345.0" y="671.0" font-size="20.0" font-family="helvetica">99</text>
    </g>
    <g>
     <circle stroke="black" stroke-width="0.5" fill="#aaffff" cx="355.0" cy="876.0" r="1.0"/>
     <text stroke="none" x="355.0" y="876.0" font-size="20.0" font-family="helvetica">100</text>
    </g>
    <g>
     <circle stroke="black" stroke-width="0.5" fill="#aaffff" cx="357.0" cy="213.0" r="1.0"/>
     <text stroke="none" x="357.0" y="213.0" font-size="20.0" font-family="helvetica"/>
    </g>
    <g>
     <circle stroke="black" stroke-width="0.5" fill="#aaffff" cx="357.0" cy="216.0" r="1.0"/>
     <text stroke="none" x="357.0" y="216.0" font-size="10.0" font-family="helvetica">NT1.24</text>
    </g>
    <g>
     <circle stroke="black" stroke-width="0.5" fill="#aaffff" cx="368.0" cy="1125.0" r="1.0"/>
     <text stroke="none" x="368.0" y="1125.0" font-size="20.0" font-family="helvetica"/>
    </g>
    <g>
     <circle stroke="black" stroke-width="0.5" fill="#aaffff" cx="369.0" cy="1127.0" r="1.0"/>
     <text stroke="none" x="369.0" y="1127.0" font-size="10.0" font-family="helvetica">NT1.26</text>
    </g>
    <g>
     <circle stroke="black" stroke-width="0.5" fill="#aaffff" cx="370.0" cy="1242.0" r="1.0"/>
     <text stroke="none" x="370.0" y="1242.0" font-size="20.0" font-family="helvetica">95</text>
    </g>
    <g>
     <circle stroke="black" stroke-width="0.5" fill="#aaffff" cx="383.0" cy="709.0" r="1.0"/>
     <text stroke="none" x="383.0" y="709.0" font-size="10.0" font-family="helvetica">NT1.28</text>
    </g>
    <g>
     <circle stroke="black" stroke-width="0.5" fill="#aaffff" cx="391.0" cy="1198.0" r="1.0"/>
     <text stroke="none" x="391.0" y="1198.0" font-size="20.0" font-family="helvetica">62</text>
    </g>
    <g>
     <circle stroke="black" stroke-width="0.5" fill="#aaffff" cx="394.0" cy="1376.0" r="1.0"/>
     <text stroke="none" x="394.0" y="1376.0" font-size="20.0" font-family="helvetica">(00</text>
    </g>
    <g>
     <circle stroke="black" stroke-width="0.5" fill="#aaffff" cx="407.0" cy="490.0" r="1.0"/>
     <text stroke="none" x="407.0" y="490.0" font-size="20.0" font-family="helvetica">Vagococcus fluvialis CCUG 327047 (X54258)</text>
    </g>
    <g>
     <circle stroke="black" stroke-width="0.5" fill="#aaffff" cx="409.0" cy="399.0" r="1.0"/>
     <text stroke="none" x="409.0" y="399.0" font-size="20.0" font-family="helvetica">Enterococcus saccharolyticus NCDO 25947 (Y18357)</text>
    </g>
    <g>
     <circle stroke="black" stroke-width="0.5" fill="#aaffff" cx="415.0" cy="353.0" r="1.0"/>
     <text stroke="none" x="415.0" y="353.0" font-size="20.0" font-family="helvetica">Enterococcus faecalis NCIMB 7757 (Y18293)</text>
    </g>
    <g>
     <circle stroke="black" stroke-width="0.5" fill="#aaffff" cx="417.0" cy="945.0" r="1.0"/>
     <text stroke="none" x="417.0" y="945.0" font-size="20.0" font-family="helvetica">Trichococcus pasteurii DSM 23817 (X87150)</text>
    </g>
    <g>
     <circle stroke="black" stroke-width="0.5" fill="#aaffff" cx="423.0" cy="749.0" r="1.0"/>
     <text stroke="none" x="423.0" y="749.0" font-size="10.0" font-family="helvetica">NT1.35</text>
    </g>
    <g>
     <circle stroke="black" stroke-width="0.5" fill="#aaffff" cx="425.0" cy="1285.0" r="1.0"/>
     <text stroke="none" x="425.0" y="1285.0" font-size="20.0" font-family="helvetica">87</text>
    </g>
    <g>
     <circle stroke="black" stroke-width="0.5" fill="#aaffff" cx="429.0" cy="1036.0" r="1.0"/>
     <text stroke="none" x="429.0" y="1036.0" font-size="20.0" font-family="helvetica">Carnobacterium divergens NCDO 27637 (X54270)</text>
    </g>
    <g>
     <circle stroke="black" stroke-width="0.5" fill="#aaffff" cx="436.0" cy="1082.0" r="1.0"/>
     <text stroke="none" x="436.0" y="1082.0" font-size="20.0" font-family="helvetica">Carnobacterium mobile NCFB 27657 (X54271)</text>
    </g>
    <g>
     <circle stroke="black" stroke-width="0.5" fill="#aaffff" cx="438.0" cy="443.0" r="1.0"/>
     <text stroke="none" x="438.0" y="443.0" font-size="20.0" font-family="helvetica">Vagococcus salmoninarum CCUG 333947 (X54272)</text>
    </g>
    <g>
     <circle stroke="black" stroke-width="0.5" fill="#aaffff" cx="439.0" cy="1353.0" r="1.0"/>
     <text stroke="none" x="439.0" y="1353.0" font-size="20.0" font-family="helvetica"/>
    </g>
    <g>
     <circle stroke="black" stroke-width="0.5" fill="#aaffff" cx="440.0" cy="282.0" r="1.0"/>
     <text stroke="none" x="440.0" y="282.0" font-size="20.0" font-family="helvetica">100</text>
    </g>
    <g>
     <circle stroke="black" stroke-width="0.5" fill="#aaffff" cx="440.0" cy="1355.0" r="1.0"/>
     <text stroke="none" x="440.0" y="1355.0" font-size="10.0" font-family="helvetica">NT1.42</text>
    </g>
    <g>
     <circle stroke="black" stroke-width="0.5" fill="#aaffff" cx="444.0" cy="991.0" r="1.0"/>
     <text stroke="none" x="444.0" y="991.0" font-size="20.0" font-family="helvetica">Desemzia incerta DSM 205817 (Y17300)</text>
    </g>
    <g>
     <circle stroke="black" stroke-width="0.5" fill="#aaffff" cx="455.0" cy="900.0" r="1.0"/>
     <text stroke="none" x="455.0" y="900.0" font-size="20.0" font-family="helvetica">Granulicatella adiacens ATCC 491757 (D50540)</text>
    </g>
    <g>
     <circle stroke="black" stroke-width="0.5" fill="#aaffff" cx="458.0" cy="124.0" r="1.0"/>
     <text stroke="none" x="458.0" y="124.0" font-size="20.0" font-family="helvetica">Lactobacillus animalis DSM 206027 (M58807)</text>
    </g>
    <g>
     <circle stroke="black" stroke-width="0.5" fill="#aaffff" cx="486.0" cy="854.0" r="1.0"/>
     <text stroke="none" x="486.0" y="854.0" font-size="20.0" font-family="helvetica">Granulicatella elegans DSM 116937 (AF016390)</text>
    </g>
    <g>
     <circle stroke="black" stroke-width="0.5" fill="#aaffff" cx="509.0" cy="1401.0" r="1.0"/>
     <text stroke="none" x="509.0" y="1401.0" font-size="20.0" font-family="helvetica">Marinilactibacillus psychrotolerans IAM 149807 (AB083406)</text>
    </g>
    <g>
     <circle stroke="black" stroke-width="0.5" fill="#aaffff" cx="510.0" cy="216.0" r="1.0"/>
     <text stroke="none" x="510.0" y="216.0" font-size="20.0" font-family="helvetica">Melissococcus plutonius NCDO 24437 (X75751)</text>
    </g>
    <g>
     <circle stroke="black" stroke-width="0.5" fill="#aaffff" cx="534.0" cy="1355.0" r="1.0"/>
     <text stroke="none" x="534.0" y="1355.0" font-size="20.0" font-family="helvetica">Alkalibacterium olivoapovliticus WW2-SN4a7 (AF14351 1)</text>
    </g>
    <g>
     <circle stroke="black" stroke-width="0.5" fill="#aaffff" cx="559.0" cy="534.0" r="1.0"/>
     <text stroke="none" x="559.0" y="534.0" font-size="20.0" font-family="helvetica">Aerococcus viridans ATCC 1 15637 (M58797)</text>
    </g>
    <g>
     <circle stroke="black" stroke-width="0.5" fill="#aaffff" cx="566.0" cy="261.0" r="1.0"/>
     <text stroke="none" x="566.0" y="261.0" font-size="20.0" font-family="helvetica">Tetragenococcus halophilus IAM 16767 (D88668)</text>
    </g>
    <g>
     <circle stroke="black" stroke-width="0.5" fill="#aaffff" cx="566.0" cy="580.0" r="1.0"/>
     <text stroke="none" x="566.0" y="580.0" font-size="20.0" font-family="helvetica">Aerococcus urinae NCFB 28937 (M77819)</text>
    </g>
    <g>
     <circle stroke="black" stroke-width="0.5" fill="#aaffff" cx="569.0" cy="68.0" r="1.0"/>
     <text stroke="none" x="569.0" y="68.0" font-size="20.0" font-family="helvetica">Streptococcus pyogenes ATCC 123447 (AB002521)</text>
    </g>
    <g>
     <circle stroke="black" stroke-width="0.5" fill="#aaffff" cx="575.0" cy="1127.0" r="1.0"/>
     <text stroke="none" x="575.0" y="1127.0" font-size="20.0" font-family="helvetica">Atopococcus tabaci gen. nov.) sp. nov. CCUG 482537 (AJ634917)</text>
    </g>
    <g>
     <circle stroke="black" stroke-width="0.5" fill="#aaffff" cx="585.0" cy="307.0" r="1.0"/>
     <text stroke="none" x="585.0" y="307.0" font-size="20.0" font-family="helvetica">Tetragenococcus muriaticus JCM 100067 (D88824)</text>
    </g>
    <g>
     <circle stroke="black" stroke-width="0.5" fill="#aaffff" cx="589.0" cy="783.0" r="1.0"/>
     <text stroke="none" x="589.0" y="783.0" font-size="20.0" font-family="helvetica">100</text>
    </g>
    <g>
     <circle stroke="black" stroke-width="0.5" fill="#aaffff" cx="592.0" cy="24.0" r="1.0"/>
     <text stroke="none" x="592.0" y="24.0" font-size="20.0" font-family="helvetica">Streptococcus peroris GTC8487 (AB008314)</text>
    </g>
    <g>
     <circle stroke="black" stroke-width="0.5" fill="#aaffff" cx="603.0" cy="626.0" r="1.0"/>
     <text stroke="none" x="603.0" y="626.0" font-size="20.0" font-family="helvetica">Abiotrophia defectiva ATCC 491767 (D50541)</text>
    </g>
    <g>
     <circle stroke="black" stroke-width="0.5" fill="#aaffff" cx="651.0" cy="763.0" r="1.0"/>
     <text stroke="none" x="651.0" y="763.0" font-size="20.0" font-family="helvetica">Facklamia hominis CCUG 368137 (Y10772)</text>
    </g>
    <g>
     <circle stroke="black" stroke-width="0.5" fill="#aaffff" cx="663.0" cy="170.0" r="1.0"/>
     <text stroke="none" x="663.0" y="170.0" font-size="20.0" font-family="helvetica">Lactobacillus delbrueckii DSM 200747 (M58814)</text>
    </g>
    <g>
     <circle stroke="black" stroke-width="0.5" fill="#aaffff" cx="664.0" cy="672.0" r="1.0"/>
     <text stroke="none" x="664.0" y="672.0" font-size="20.0" font-family="helvetica">Eremococcus coleocola CCUG 382077 (Y17780)</text>
    </g>
    <g>
     <circle stroke="black" stroke-width="0.5" fill="#aaffff" cx="687.0" cy="808.0" r="1.0"/>
     <text stroke="none" x="687.0" y="808.0" font-size="20.0" font-family="helvetica">Facklamia Ianguida CCUG 378427 (Y18053)</text>
    </g>
    <g>
     <circle stroke="black" stroke-width="0.5" fill="#aaffff" cx="691.0" cy="1172.0" r="1.0"/>
     <text stroke="none" x="691.0" y="1172.0" font-size="20.0" font-family="helvetica">Atopostipes suicloacale PCC</text>
    </g>
    <g>
     <circle stroke="black" stroke-width="0.5" fill="#aaffff" cx="716.0" cy="1264.0" r="1.0"/>
     <text stroke="none" x="716.0" y="1264.0" font-size="20.0" font-family="helvetica">Alloiococcus otitfs NCFB 28907 (X59765)</text>
    </g>
    <g>
     <circle stroke="black" stroke-width="0.5" fill="#aaffff" cx="733.0" cy="717.0" r="1.0"/>
     <text stroke="none" x="733.0" y="717.0" font-size="20.0" font-family="helvetica">Ignavigranum ruoffiae CCUG 376587 (Y16426)</text>
    </g>
    <g>
     <circle stroke="black" stroke-width="0.5" fill="#aaffff" cx="764.0" cy="1310.0" r="1.0"/>
     <text stroke="none" x="764.0" y="1310.0" font-size="20.0" font-family="helvetica">Dolosigranulum pigrum NCFB 29757 (X70907)</text>
    </g>
    <g>
     <circle stroke="black" stroke-width="0.5" fill="#aaffff" cx="842.0" cy="1219.0" r="1.0"/>
     <text stroke="none" x="842.0" y="1219.0" font-size="20.0" font-family="helvetica">Allofustis seminis CCUG 454387 (AJ410303)</text>
    </g>
    <line stroke="black" x1="334.0" y1="401.0" x2="335.0" y2="399.0" stroke-width="0.5"/>
    <line stroke="black" x1="357.0" y1="216.0" x2="357.0" y2="213.0" stroke-width="0.5"/>
    <line stroke="black" x1="409.0" y1="399.0" x2="335.0" y2="399.0" stroke-width="0.5"/>
    <line stroke="black" x1="510.0" y1="216.0" x2="357.0" y2="216.0" stroke-width="0.5"/>
    <line stroke="black" x1="369.0" y1="1127.0" x2="368.0" y2="1125.0" stroke-width="0.5"/>
    <line stroke="black" x1="440.0" y1="1355.0" x2="439.0" y2="1353.0" stroke-width="0.5"/>
    <line stroke="black" x1="575.0" y1="1127.0" x2="369.0" y2="1127.0" stroke-width="0.5"/>
    <line stroke="black" x1="534.0" y1="1355.0" x2="440.0" y2="1355.0" stroke-width="0.5"/>
    <line stroke="black" x1="129.0" y1="165.0" x2="172.0" y2="149.0" stroke-width="0.5"/>
    <line stroke="black" x1="129.0" y1="165.0" x2="180.0" y2="634.0" stroke-width="0.5"/>
    <line stroke="black" x1="180.0" y1="634.0" x2="204.0" y2="881.0" stroke-width="0.5"/>
    <line stroke="black" x1="180.0" y1="634.0" x2="214.0" y2="391.0" stroke-width="0.5"/>
    <line stroke="black" x1="204.0" y1="881.0" x2="214.0" y2="1099.0" stroke-width="0.5"/>
    <line stroke="black" x1="204.0" y1="881.0" x2="232.0" y2="666.0" stroke-width="0.5"/>
    <line stroke="black" x1="214.0" y1="391.0" x2="299.0" y2="464.0" stroke-width="0.5"/>
    <line stroke="black" x1="214.0" y1="391.0" x2="269.0" y2="315.0" stroke-width="0.5"/>
    <line stroke="black" x1="269.0" y1="315.0" x2="299.0" y2="373.0" stroke-width="0.5"/>
    <line stroke="black" x1="269.0" y1="315.0" x2="284.0" y2="252.0" stroke-width="0.5"/>
    <line stroke="black" x1="284.0" y1="252.0" x2="440.0" y2="282.0" stroke-width="0.5"/>
    <line stroke="black" x1="284.0" y1="252.0" x2="357.0" y2="216.0" stroke-width="0.5"/>
    <line stroke="black" x1="299.0" y1="373.0" x2="335.0" y2="399.0" stroke-width="0.5"/>
    <line stroke="black" x1="214.0" y1="1099.0" x2="269.0" y2="1216.0" stroke-width="0.5"/>
    <line stroke="black" x1="214.0" y1="1099.0" x2="231.0" y2="987.0" stroke-width="0.5"/>
    <line stroke="black" x1="232.0" y1="666.0" x2="256.0" y2="770.0" stroke-width="0.5"/>
    <line stroke="black" x1="232.0" y1="666.0" x2="341.0" y2="560.0" stroke-width="0.5"/>
    <line stroke="black" x1="231.0" y1="987.0" x2="288.0" y2="1022.0" stroke-width="0.5"/>
    <line stroke="black" x1="256.0" y1="770.0" x2="355.0" y2="876.0" stroke-width="0.5"/>
    <line stroke="black" x1="256.0" y1="770.0" x2="345.0" y2="671.0" stroke-width="0.5"/>
    <line stroke="black" x1="269.0" y1="1216.0" x2="310.0" y2="1308.0" stroke-width="0.5"/>
    <line stroke="black" x1="269.0" y1="1216.0" x2="369.0" y2="1127.0" stroke-width="0.5"/>
    <line stroke="black" x1="288.0" y1="1022.0" x2="301.0" y2="1057.0" stroke-width="0.5"/>
    <line stroke="black" x1="310.0" y1="1308.0" x2="394.0" y2="1376.0" stroke-width="0.5"/>
    <line stroke="black" x1="310.0" y1="1308.0" x2="370.0" y2="1242.0" stroke-width="0.5"/>
    <line stroke="black" x1="345.0" y1="671.0" x2="383.0" y2="709.0" stroke-width="0.5"/>
    <line stroke="black" x1="383.0" y1="709.0" x2="423.0" y2="749.0" stroke-width="0.5"/>
    <line stroke="black" x1="370.0" y1="1242.0" x2="425.0" y2="1285.0" stroke-width="0.5"/>
    <line stroke="black" x1="370.0" y1="1242.0" x2="391.0" y2="1198.0" stroke-width="0.5"/>
    <line stroke="black" x1="394.0" y1="1376.0" x2="440.0" y2="1355.0" stroke-width="0.5"/>
    <line stroke="black" x1="423.0" y1="749.0" x2="589.0" y2="783.0" stroke-width="0.5"/>
    <line stroke="black" x1="458.0" y1="124.0" x2="172.0" y2="149.0" stroke-width="0.5"/>
    <line stroke="black" x1="417.0" y1="945.0" x2="231.0" y2="987.0" stroke-width="0.5"/>
    <line stroke="black" x1="663.0" y1="170.0" x2="172.0" y2="149.0" stroke-width="0.5"/>
    <line stroke="black" x1="407.0" y1="490.0" x2="299.0" y2="464.0" stroke-width="0.5"/>
    <line stroke="black" x1="415.0" y1="353.0" x2="299.0" y2="373.0" stroke-width="0.5"/>
    <line stroke="black" x1="444.0" y1="991.0" x2="288.0" y2="1022.0" stroke-width="0.5"/>
    <line stroke="black" x1="429.0" y1="1036.0" x2="301.0" y2="1057.0" stroke-width="0.5"/>
    <line stroke="black" x1="438.0" y1="443.0" x2="299.0" y2="464.0" stroke-width="0.5"/>
    <line stroke="black" x1="436.0" y1="1082.0" x2="301.0" y2="1057.0" stroke-width="0.5"/>
    <line stroke="black" x1="455.0" y1="900.0" x2="355.0" y2="876.0" stroke-width="0.5"/>
    <line stroke="black" x1="486.0" y1="854.0" x2="355.0" y2="876.0" stroke-width="0.5"/>
    <line stroke="black" x1="559.0" y1="534.0" x2="341.0" y2="560.0" stroke-width="0.5"/>
    <line stroke="black" x1="566.0" y1="580.0" x2="341.0" y2="560.0" stroke-width="0.5"/>
    <line stroke="black" x1="603.0" y1="626.0" x2="345.0" y2="671.0" stroke-width="0.5"/>
    <line stroke="black" x1="509.0" y1="1401.0" x2="394.0" y2="1376.0" stroke-width="0.5"/>
    <line stroke="black" x1="569.0" y1="68.0" x2="129.0" y2="165.0" stroke-width="0.5"/>
    <line stroke="black" x1="664.0" y1="672.0" x2="383.0" y2="709.0" stroke-width="0.5"/>
    <line stroke="black" x1="566.0" y1="261.0" x2="440.0" y2="282.0" stroke-width="0.5"/>
    <line stroke="black" x1="585.0" y1="307.0" x2="440.0" y2="282.0" stroke-width="0.5"/>
    <line stroke="black" x1="691.0" y1="1172.0" x2="391.0" y2="1198.0" stroke-width="0.5"/>
    <line stroke="black" x1="592.0" y1="24.0" x2="129.0" y2="165.0" stroke-width="0.5"/>
    <line stroke="black" x1="716.0" y1="1264.0" x2="425.0" y2="1285.0" stroke-width="0.5"/>
    <line stroke="black" x1="733.0" y1="717.0" x2="423.0" y2="749.0" stroke-width="0.5"/>
    <line stroke="black" x1="764.0" y1="1310.0" x2="425.0" y2="1285.0" stroke-width="0.5"/>
    <line stroke="black" x1="842.0" y1="1219.0" x2="391.0" y2="1198.0" stroke-width="0.5"/>
    <line stroke="black" x1="651.0" y1="763.0" x2="589.0" y2="783.0" stroke-width="0.5"/>
    <line stroke="black" x1="687.0" y1="808.0" x2="589.0" y2="783.0" stroke-width="0.5"/>
   </g>
  </g>
 </svg>
</svg>
