<?xml version="1.0" encoding="UTF-8"?>
<svg height="800.0" width="700.0" xmlns="http://www.w3.org/2000/svg">
 <svg>
  <g>
   <g>
    <g>
     <circle stroke="black" stroke-width="0.5" fill="#aaffff" cx="319.0" cy="548.0" r="1.0"/>
     <text stroke="none" x="319.0" y="548.0" font-size="20.0" font-family="helvetica"/>
    </g>
    <g>
     <circle stroke="black" stroke-width="0.5" fill="#aaffff" cx="320.0" cy="678.0" r="1.0"/>
     <text stroke="none" x="320.0" y="678.0" font-size="10.0" font-family="helvetica">NT1.2</text>
    </g>
    <g>
     <circle stroke="black" stroke-width="0.5" fill="#aaffff" cx="322.0" cy="549.0" r="1.0"/>
     <text stroke="none" x="322.0" y="549.0" font-size="10.0" font-family="helvetica">NT1.3</text>
    </g>
    <g>
     <circle stroke="black" stroke-width="0.5" fill="#aaffff" cx="335.0" cy="548.0" r="1.0"/>
     <text stroke="none" x="335.0" y="548.0" font-size="10.0" font-family="helvetica">NT1.4</text>
    </g>
    <g>
     <circle stroke="black" stroke-width="0.5" fill="#aaffff" cx="338.0" cy="432.0" r="1.0"/>
     <text stroke="none" x="338.0" y="432.0" font-size="20.0" font-family="helvetica"/>
    </g>
    <g>
     <circle stroke="black" stroke-width="0.5" fill="#aaffff" cx="340.0" cy="431.0" r="1.0"/>
     <text stroke="none" x="340.0" y="431.0" font-size="10.0" font-family="helvetica">NT1.6</text>
    </g>
    <g>
     <circle stroke="black" stroke-width="0.5" fill="#aaffff" cx="348.0" cy="425.0" r="1.0"/>
     <text stroke="none" x="348.0" y="425.0" font-size="20.0" font-family="helvetica"/>
    </g>
    <g>
     <circle stroke="black" stroke-width="0.5" fill="#aaffff" cx="356.0" cy="433.0" r="1.0"/>
     <text stroke="none" x="356.0" y="433.0" font-size="10.0" font-family="helvetica">NT1.8</text>
    </g>
    <g>
     <circle stroke="black" stroke-width="0.5" fill="#aaffff" cx="356.0" cy="727.0" r="1.0"/>
     <text stroke="none" x="356.0" y="727.0" font-size="10.0" font-family="helvetica">NT1.9</text>
    </g>
    <g>
     <circle stroke="black" stroke-width="0.5" fill="#aaffff" cx="364.0" cy="424.0" r="1.0"/>
     <text stroke="none" x="364.0" y="424.0" font-size="20.0" font-family="helvetica"/>
    </g>
    <g>
     <circle stroke="black" stroke-width="0.5" fill="#aaffff" cx="366.0" cy="447.0" r="1.0"/>
     <text stroke="none" x="366.0" y="447.0" font-size="10.0" font-family="helvetica">NT1.11</text>
    </g>
    <g>
     <circle stroke="black" stroke-width="0.5" fill="#aaffff" cx="371.0" cy="771.0" r="1.0"/>
     <text stroke="none" x="371.0" y="771.0" font-size="10.0" font-family="helvetica">NT1.12</text>
    </g>
    <g>
     <circle stroke="black" stroke-width="0.5" fill="#aaffff" cx="392.0" cy="820.0" r="1.0"/>
     <text stroke="none" x="392.0" y="820.0" font-size="10.0" font-family="helvetica">NT1.13</text>
    </g>
    <g>
     <circle stroke="black" stroke-width="0.5" fill="#aaffff" cx="402.0" cy="330.0" r="1.0"/>
     <text stroke="none" x="402.0" y="330.0" font-size="10.0" font-family="helvetica">NT1.14</text>
    </g>
    <g>
     <circle stroke="black" stroke-width="0.5" fill="#aaffff" cx="430.0" cy="214.0" r="1.0"/>
     <text stroke="none" x="430.0" y="214.0" font-size="10.0" font-family="helvetica">NT1.15</text>
    </g>
    <g>
     <circle stroke="black" stroke-width="0.5" fill="#aaffff" cx="441.0" cy="85.0" r="1.0"/>
     <text stroke="none" x="441.0" y="85.0" font-size="10.0" font-family="helvetica">NT1.16</text>
    </g>
    <g>
     <circle stroke="black" stroke-width="0.5" fill="#aaffff" cx="444.0" cy="567.0" r="1.0"/>
     <text stroke="none" x="444.0" y="567.0" font-size="10.0" font-family="helvetica">NT1.17</text>
    </g>
    <g>
     <circle stroke="black" stroke-width="0.5" fill="#aaffff" cx="450.0" cy="684.0" r="1.0"/>
     <text stroke="none" x="450.0" y="684.0" font-size="20.0" font-family="helvetica">Rhodococcus zopfii ATCC 51349T (X81934)</text>
    </g>
    <g>
     <circle stroke="black" stroke-width="0.5" fill="#aaffff" cx="457.0" cy="507.0" r="1.0"/>
     <text stroke="none" x="457.0" y="507.0" font-size="20.0" font-family="helvetica"/>
    </g>
    <g>
     <circle stroke="black" stroke-width="0.5" fill="#aaffff" cx="460.0" cy="135.0" r="1.0"/>
     <text stroke="none" x="460.0" y="135.0" font-size="10.0" font-family="helvetica">NT1.20</text>
    </g>
    <g>
     <circle stroke="black" stroke-width="0.5" fill="#aaffff" cx="469.0" cy="184.0" r="1.0"/>
     <text stroke="none" x="469.0" y="184.0" font-size="10.0" font-family="helvetica">NT1.21</text>
    </g>
    <g>
     <circle stroke="black" stroke-width="0.5" fill="#aaffff" cx="474.0" cy="114.0" r="1.0"/>
     <text stroke="none" x="474.0" y="114.0" font-size="10.0" font-family="helvetica">NT1.22</text>
    </g>
    <g>
     <circle stroke="black" stroke-width="0.5" fill="#aaffff" cx="474.0" cy="528.0" r="1.0"/>
     <text stroke="none" x="474.0" y="528.0" font-size="10.0" font-family="helvetica">NT1.23</text>
    </g>
    <g>
     <circle stroke="black" stroke-width="0.5" fill="#aaffff" cx="482.0" cy="25.0" r="1.0"/>
     <text stroke="none" x="482.0" y="25.0" font-size="20.0" font-family="helvetica"/>
    </g>
    <g>
     <circle stroke="black" stroke-width="0.5" fill="#aaffff" cx="482.0" cy="105.0" r="1.0"/>
     <text stroke="none" x="482.0" y="105.0" font-size="20.0" font-family="helvetica"/>
    </g>
    <g>
     <circle stroke="black" stroke-width="0.5" fill="#aaffff" cx="483.0" cy="648.0" r="1.0"/>
     <text stroke="none" x="483.0" y="648.0" font-size="20.0" font-family="helvetica">Rhodocaccus coprophilus DSM 43347T (X80626)</text>
    </g>
    <g>
     <circle stroke="black" stroke-width="0.5" fill="#aaffff" cx="487.0" cy="109.0" r="1.0"/>
     <text stroke="none" x="487.0" y="109.0" font-size="20.0" font-family="helvetica"/>
    </g>
    <g>
     <circle stroke="black" stroke-width="0.5" fill="#aaffff" cx="488.0" cy="22.0" r="1.0"/>
     <text stroke="none" x="488.0" y="22.0" font-size="10.0" font-family="helvetica">NT1.28</text>
    </g>
    <g>
     <circle stroke="black" stroke-width="0.5" fill="#aaffff" cx="489.0" cy="499.0" r="1.0"/>
     <text stroke="none" x="489.0" y="499.0" font-size="20.0" font-family="helvetica"/>
    </g>
    <g>
     <circle stroke="black" stroke-width="0.5" fill="#aaffff" cx="492.0" cy="500.0" r="1.0"/>
     <text stroke="none" x="492.0" y="500.0" font-size="10.0" font-family="helvetica">NT1.30</text>
    </g>
    <g>
     <circle stroke="black" stroke-width="0.5" fill="#aaffff" cx="493.0" cy="7.0" r="1.0"/>
     <text stroke="none" x="493.0" y="7.0" font-size="20.0" font-family="helvetica"/>
    </g>
    <g>
     <circle stroke="black" stroke-width="0.5" fill="#aaffff" cx="494.0" cy="125.0" r="1.0"/>
     <text stroke="none" x="494.0" y="125.0" font-size="10.0" font-family="helvetica">NT1.32</text>
    </g>
    <g>
     <circle stroke="black" stroke-width="0.5" fill="#aaffff" cx="497.0" cy="311.0" r="1.0"/>
     <text stroke="none" x="497.0" y="311.0" font-size="20.0" font-family="helvetica"/>
    </g>
    <g>
     <circle stroke="black" stroke-width="0.5" fill="#aaffff" cx="498.0" cy="350.0" r="1.0"/>
     <text stroke="none" x="498.0" y="350.0" font-size="10.0" font-family="helvetica">NT1.34</text>
    </g>
    <g>
     <circle stroke="black" stroke-width="0.5" fill="#aaffff" cx="499.0" cy="312.0" r="1.0"/>
     <text stroke="none" x="499.0" y="312.0" font-size="10.0" font-family="helvetica">NT1.35</text>
    </g>
    <g>
     <circle stroke="black" stroke-width="0.5" fill="#aaffff" cx="500.0" cy="833.0" r="1.0"/>
     <text stroke="none" x="500.0" y="833.0" font-size="20.0" font-family="helvetica">Rhodococcus rhodochrous DSM 43241 T (X79288)</text>
    </g>
    <g>
     <circle stroke="black" stroke-width="0.5" fill="#aaffff" cx="501.0" cy="861.0" r="1.0"/>
     <text stroke="none" x="501.0" y="861.0" font-size="10.0" font-family="helvetica">NT1.37</text>
    </g>
    <g>
     <circle stroke="black" stroke-width="0.5" fill="#aaffff" cx="502.0" cy="834.0" r="1.0"/>
     <text stroke="none" x="502.0" y="834.0" font-size="10.0" font-family="helvetica">NT1.38</text>
    </g>
    <g>
     <circle stroke="black" stroke-width="0.5" fill="#aaffff" cx="510.0" cy="243.0" r="1.0"/>
     <text stroke="none" x="510.0" y="243.0" font-size="20.0" font-family="helvetica"/>
    </g>
    <g>
     <circle stroke="black" stroke-width="0.5" fill="#aaffff" cx="513.0" cy="294.0" r="1.0"/>
     <text stroke="none" x="513.0" y="294.0" font-size="20.0" font-family="helvetica"/>
    </g>
    <g>
     <circle stroke="black" stroke-width="0.5" fill="#aaffff" cx="514.0" cy="259.0" r="1.0"/>
     <text stroke="none" x="514.0" y="259.0" font-size="20.0" font-family="helvetica"/>
    </g>
    <g>
     <circle stroke="black" stroke-width="0.5" fill="#aaffff" cx="519.0" cy="117.0" r="1.0"/>
     <text stroke="none" x="519.0" y="117.0" font-size="10.0" font-family="helvetica">NT1.42</text>
    </g>
    <g>
     <circle stroke="black" stroke-width="0.5" fill="#aaffff" cx="520.0" cy="241.0" r="1.0"/>
     <text stroke="none" x="520.0" y="241.0" font-size="10.0" font-family="helvetica">NT1.43</text>
    </g>
    <g>
     <circle stroke="black" stroke-width="0.5" fill="#aaffff" cx="523.0" cy="233.0" r="1.0"/>
     <text stroke="none" x="523.0" y="233.0" font-size="10.0" font-family="helvetica">NT1.44</text>
    </g>
    <g>
     <circle stroke="black" stroke-width="0.5" fill="#aaffff" cx="527.0" cy="723.0" r="1.0"/>
     <text stroke="none" x="527.0" y="723.0" font-size="20.0" font-family="helvetica">Rhodococcus rhodnii DSM 43336T (X80621)</text>
    </g>
    <g>
     <circle stroke="black" stroke-width="0.5" fill="#aaffff" cx="527.0" cy="947.0" r="1.0"/>
     <text stroke="none" x="527.0" y="947.0" font-size="20.0" font-family="helvetica">Corynebacterium diphtheriae NCTC 11397T (X84248)</text>
    </g>
    <g>
     <circle stroke="black" stroke-width="0.5" fill="#aaffff" cx="529.0" cy="293.0" r="1.0"/>
     <text stroke="none" x="529.0" y="293.0" font-size="20.0" font-family="helvetica"/>
    </g>
    <g>
     <circle stroke="black" stroke-width="0.5" fill="#aaffff" cx="532.0" cy="300.0" r="1.0"/>
     <text stroke="none" x="532.0" y="300.0" font-size="20.0" font-family="helvetica"/>
    </g>
    <g>
     <circle stroke="black" stroke-width="0.5" fill="#aaffff" cx="535.0" cy="300.0" r="1.0"/>
     <text stroke="none" x="535.0" y="300.0" font-size="10.0" font-family="helvetica">NT1.49</text>
    </g>
    <g>
     <circle stroke="black" stroke-width="0.5" fill="#aaffff" cx="537.0" cy="833.0" r="1.0"/>
     <text stroke="none" x="537.0" y="833.0" font-size="20.0" font-family="helvetica">Rhodococcus rhodochrous DSM 43241 T (X79288)</text>
    </g>
    <g>
     <circle stroke="black" stroke-width="0.5" fill="#aaffff" cx="545.0" cy="308.0" r="1.0"/>
     <text stroke="none" x="545.0" y="308.0" font-size="10.0" font-family="helvetica">NT1.51</text>
    </g>
    <g>
     <circle stroke="black" stroke-width="0.5" fill="#aaffff" cx="547.0" cy="401.0" r="1.0"/>
     <text stroke="none" x="547.0" y="401.0" font-size="20.0" font-family="helvetica"/>
    </g>
    <g>
     <circle stroke="black" stroke-width="0.5" fill="#aaffff" cx="547.0" cy="256.0" r="1.0"/>
     <text stroke="none" x="547.0" y="256.0" font-size="10.0" font-family="helvetica">NT1.53</text>
    </g>
    <g>
     <circle stroke="black" stroke-width="0.5" fill="#aaffff" cx="547.0" cy="780.0" r="1.0"/>
     <text stroke="none" x="547.0" y="780.0" font-size="10.0" font-family="helvetica">NT1.54</text>
    </g>
    <g>
     <circle stroke="black" stroke-width="0.5" fill="#aaffff" cx="548.0" cy="164.0" r="1.0"/>
     <text stroke="none" x="548.0" y="164.0" font-size="20.0" font-family="helvetica">Rhodococcus koreensis KCTC O569BPT (AFl24343)</text>
    </g>
    <g>
     <circle stroke="black" stroke-width="0.5" fill="#aaffff" cx="548.0" cy="383.0" r="1.0"/>
     <text stroke="none" x="548.0" y="383.0" font-size="10.0" font-family="helvetica">NT1.56</text>
    </g>
    <g>
     <circle stroke="black" stroke-width="0.5" fill="#aaffff" cx="550.0" cy="304.0" r="1.0"/>
     <text stroke="none" x="550.0" y="304.0" font-size="20.0" font-family="helvetica">Rhadacoccus globerulus DSM 43954T (X80619)</text>
    </g>
    <g>
     <circle stroke="black" stroke-width="0.5" fill="#aaffff" cx="552.0" cy="303.0" r="1.0"/>
     <text stroke="none" x="552.0" y="303.0" font-size="10.0" font-family="helvetica">NT1.58</text>
    </g>
    <g>
     <circle stroke="black" stroke-width="0.5" fill="#aaffff" cx="558.0" cy="795.0" r="1.0"/>
     <text stroke="none" x="558.0" y="795.0" font-size="20.0" font-family="helvetica">Rhodococcus ruber DSM 43338T (X80625)</text>
    </g>
    <g>
     <circle stroke="black" stroke-width="0.5" fill="#aaffff" cx="561.0" cy="89.0" r="1.0"/>
     <text stroke="none" x="561.0" y="89.0" font-size="20.0" font-family="helvetica">Rhodococcus marinonascens DSM 43752T (X80617)</text>
    </g>
    <g>
     <circle stroke="black" stroke-width="0.5" fill="#aaffff" cx="561.0" cy="290.0" r="1.0"/>
     <text stroke="none" x="561.0" y="290.0" font-size="20.0" font-family="helvetica"/>
    </g>
    <g>
     <circle stroke="black" stroke-width="0.5" fill="#aaffff" cx="563.0" cy="125.0" r="1.0"/>
     <text stroke="none" x="563.0" y="125.0" font-size="20.0" font-family="helvetica">Rhodocaccus jastii DSM 44719T (AB046357)</text>
    </g>
    <g>
     <circle stroke="black" stroke-width="0.5" fill="#aaffff" cx="567.0" cy="889.0" r="1.0"/>
     <text stroke="none" x="567.0" y="889.0" font-size="10.0" font-family="helvetica">NT1.63</text>
    </g>
    <g>
     <circle stroke="black" stroke-width="0.5" fill="#aaffff" cx="568.0" cy="868.0" r="1.0"/>
     <text stroke="none" x="568.0" y="868.0" font-size="20.0" font-family="helvetica">Rhodococcus pyridinivorans KCTC 0647BPT (AFl73005)</text>
    </g>
    <g>
     <circle stroke="black" stroke-width="0.5" fill="#aaffff" cx="569.0" cy="870.0" r="1.0"/>
     <text stroke="none" x="569.0" y="870.0" font-size="10.0" font-family="helvetica">NT1.65</text>
    </g>
    <g>
     <circle stroke="black" stroke-width="0.5" fill="#aaffff" cx="573.0" cy="275.0" r="1.0"/>
     <text stroke="none" x="573.0" y="275.0" font-size="20.0" font-family="helvetica">Rhodococcus opacus DSM 43205T (X80630)</text>
    </g>
    <g>
     <circle stroke="black" stroke-width="0.5" fill="#aaffff" cx="576.0" cy="236.0" r="1.0"/>
     <text stroke="none" x="576.0" y="236.0" font-size="20.0" font-family="helvetica">Rhodococcus wratislaviensis NCIMB 13082T (Z37138)</text>
    </g>
    <g>
     <circle stroke="black" stroke-width="0.5" fill="#aaffff" cx="576.0" cy="349.0" r="1.0"/>
     <text stroke="none" x="576.0" y="349.0" font-size="20.0" font-family="helvetica">Rhodococcus erythropolis DSM 43066T (X79289)</text>
    </g>
    <g>
     <circle stroke="black" stroke-width="0.5" fill="#aaffff" cx="576.0" cy="499.0" r="1.0"/>
     <text stroke="none" x="576.0" y="499.0" font-size="20.0" font-family="helvetica">Rhodococcus triatamae DSM 44892T (AJ854055)</text>
    </g>
    <g>
     <circle stroke="black" stroke-width="0.5" fill="#aaffff" cx="579.0" cy="311.0" r="1.0"/>
     <text stroke="none" x="579.0" y="311.0" font-size="20.0" font-family="helvetica">Rhadacoccus globerulus DSM 43954T (X80619)</text>
    </g>
    <g>
     <circle stroke="black" stroke-width="0.5" fill="#aaffff" cx="582.0" cy="421.0" r="1.0"/>
     <text stroke="none" x="582.0" y="421.0" font-size="20.0" font-family="helvetica"/>
    </g>
    <g>
     <circle stroke="black" stroke-width="0.5" fill="#aaffff" cx="583.0" cy="449.0" r="1.0"/>
     <text stroke="none" x="583.0" y="449.0" font-size="10.0" font-family="helvetica">NT1.72</text>
    </g>
    <g>
     <circle stroke="black" stroke-width="0.5" fill="#aaffff" cx="584.0" cy="200.0" r="1.0"/>
     <text stroke="none" x="584.0" y="200.0" font-size="20.0" font-family="helvetica">Rhodococcus percolatus HAMBI 1752T (X92114)</text>
    </g>
    <g>
     <circle stroke="black" stroke-width="0.5" fill="#aaffff" cx="584.0" cy="422.0" r="1.0"/>
     <text stroke="none" x="584.0" y="422.0" font-size="10.0" font-family="helvetica">NT1.74</text>
    </g>
    <g>
     <circle stroke="black" stroke-width="0.5" fill="#aaffff" cx="609.0" cy="51.0" r="1.0"/>
     <text stroke="none" x="609.0" y="51.0" font-size="20.0" font-family="helvetica">Rhodococcus maanshanensis JCM 11374T (AF416566)</text>
    </g>
    <g>
     <circle stroke="black" stroke-width="0.5" fill="#aaffff" cx="609.0" cy="386.0" r="1.0"/>
     <text stroke="none" x="609.0" y="386.0" font-size="20.0" font-family="helvetica">Rhodacoccus baikonurensis DSM 44587T (AB071951)</text>
    </g>
    <g>
     <circle stroke="black" stroke-width="0.5" fill="#aaffff" cx="609.0" cy="759.0" r="1.0"/>
     <text stroke="none" x="609.0" y="759.0" font-size="20.0" font-family="helvetica">Rhadococcus aetherivorans strain 10bc312T (AF447391)</text>
    </g>
    <g>
     <circle stroke="black" stroke-width="0.5" fill="#aaffff" cx="612.0" cy="872.0" r="1.0"/>
     <text stroke="none" x="612.0" y="872.0" font-size="20.0" font-family="helvetica">Rhodococcus pyridinivorans KCTC 0647BPT (AFl73005)</text>
    </g>
    <g>
     <circle stroke="black" stroke-width="0.5" fill="#aaffff" cx="614.0" cy="610.0" r="1.0"/>
     <text stroke="none" x="614.0" y="610.0" font-size="20.0" font-family="helvetica">Rhodococcus equi DSM 20307T (X80614)</text>
    </g>
    <g>
     <circle stroke="black" stroke-width="0.5" fill="#aaffff" cx="622.0" cy="911.0" r="1.0"/>
     <text stroke="none" x="622.0" y="911.0" font-size="20.0" font-family="helvetica">Rhodococcus gordoniae DSM 44689 T (AY233201)</text>
    </g>
    <g>
     <circle stroke="black" stroke-width="0.5" fill="#aaffff" cx="631.0" cy="552.0" r="1.0"/>
     <text stroke="none" x="631.0" y="552.0" font-size="10.0" font-family="helvetica">NT1.81</text>
    </g>
    <g>
     <circle stroke="black" stroke-width="0.5" fill="#aaffff" cx="632.0" cy="463.0" r="1.0"/>
     <text stroke="none" x="632.0" y="463.0" font-size="20.0" font-family="helvetica">Rhodococcusfascians DSM 20669T (X79186)</text>
    </g>
    <g>
     <circle stroke="black" stroke-width="0.5" fill="#aaffff" cx="645.0" cy="421.0" r="1.0"/>
     <text stroke="none" x="645.0" y="421.0" font-size="20.0" font-family="helvetica">Rhodococcus yurmanensis DSM 44837T (AY602219)</text>
    </g>
    <g>
     <circle stroke="black" stroke-width="0.5" fill="#aaffff" cx="648.0" cy="537.0" r="1.0"/>
     <text stroke="none" x="648.0" y="537.0" font-size="20.0" font-family="helvetica">Rhodacoccus corynebacterioides</text>
    </g>
    <g>
     <circle stroke="black" stroke-width="0.5" fill="#aaffff" cx="661.0" cy="12.0" r="1.0"/>
     <text stroke="none" x="661.0" y="12.0" font-size="20.0" font-family="helvetica">Rhodocaccus tukisamuensis DSM 44783T (AB067734)</text>
    </g>
    <g>
     <circle stroke="black" stroke-width="0.5" fill="#aaffff" cx="733.0" cy="573.0" r="1.0"/>
     <text stroke="none" x="733.0" y="573.0" font-size="20.0" font-family="helvetica">Rhodococcus kroppenstedtii</text>
    </g>
    <line stroke="black" x1="493.0" y1="7.0" x2="488.0" y2="22.0" stroke-width="0.5"/>
    <line stroke="black" x1="482.0" y1="25.0" x2="488.0" y2="22.0" stroke-width="0.5"/>
    <line stroke="black" x1="609.0" y1="51.0" x2="488.0" y2="22.0" stroke-width="0.5"/>
    <line stroke="black" x1="661.0" y1="12.0" x2="488.0" y2="22.0" stroke-width="0.5"/>
    <line stroke="black" x1="482.0" y1="105.0" x2="474.0" y2="114.0" stroke-width="0.5"/>
    <line stroke="black" x1="487.0" y1="109.0" x2="494.0" y2="125.0" stroke-width="0.5"/>
    <line stroke="black" x1="510.0" y1="243.0" x2="520.0" y2="241.0" stroke-width="0.5"/>
    <line stroke="black" x1="514.0" y1="259.0" x2="520.0" y2="241.0" stroke-width="0.5"/>
    <line stroke="black" x1="563.0" y1="125.0" x2="494.0" y2="125.0" stroke-width="0.5"/>
    <line stroke="black" x1="573.0" y1="275.0" x2="547.0" y2="256.0" stroke-width="0.5"/>
    <line stroke="black" x1="497.0" y1="311.0" x2="499.0" y2="312.0" stroke-width="0.5"/>
    <line stroke="black" x1="535.0" y1="300.0" x2="532.0" y2="300.0" stroke-width="0.5"/>
    <line stroke="black" x1="550.0" y1="304.0" x2="552.0" y2="303.0" stroke-width="0.5"/>
    <line stroke="black" x1="545.0" y1="308.0" x2="561.0" y2="290.0" stroke-width="0.5"/>
    <line stroke="black" x1="579.0" y1="311.0" x2="545.0" y2="308.0" stroke-width="0.5"/>
    <line stroke="black" x1="547.0" y1="401.0" x2="548.0" y2="383.0" stroke-width="0.5"/>
    <line stroke="black" x1="576.0" y1="349.0" x2="548.0" y2="383.0" stroke-width="0.5"/>
    <line stroke="black" x1="364.0" y1="424.0" x2="356.0" y2="433.0" stroke-width="0.5"/>
    <line stroke="black" x1="338.0" y1="432.0" x2="340.0" y2="431.0" stroke-width="0.5"/>
    <line stroke="black" x1="609.0" y1="386.0" x2="548.0" y2="383.0" stroke-width="0.5"/>
    <line stroke="black" x1="319.0" y1="548.0" x2="322.0" y2="549.0" stroke-width="0.5"/>
    <line stroke="black" x1="582.0" y1="421.0" x2="584.0" y2="422.0" stroke-width="0.5"/>
    <line stroke="black" x1="645.0" y1="421.0" x2="584.0" y2="422.0" stroke-width="0.5"/>
    <line stroke="black" x1="489.0" y1="499.0" x2="492.0" y2="500.0" stroke-width="0.5"/>
    <line stroke="black" x1="576.0" y1="499.0" x2="492.0" y2="500.0" stroke-width="0.5"/>
    <line stroke="black" x1="483.0" y1="648.0" x2="335.0" y2="548.0" stroke-width="0.5"/>
    <line stroke="black" x1="500.0" y1="833.0" x2="502.0" y2="834.0" stroke-width="0.5"/>
    <line stroke="black" x1="537.0" y1="833.0" x2="502.0" y2="834.0" stroke-width="0.5"/>
    <line stroke="black" x1="569.0" y1="870.0" x2="568.0" y2="868.0" stroke-width="0.5"/>
    <line stroke="black" x1="612.0" y1="872.0" x2="569.0" y2="870.0" stroke-width="0.5"/>
    <line stroke="black" x1="488.0" y1="22.0" x2="488.0" y2="22.0" stroke-width="0.5"/>
    <line stroke="black" x1="488.0" y1="22.0" x2="441.0" y2="85.0" stroke-width="0.5"/>
    <line stroke="black" x1="441.0" y1="85.0" x2="430.0" y2="214.0" stroke-width="0.5"/>
    <line stroke="black" x1="441.0" y1="85.0" x2="460.0" y2="135.0" stroke-width="0.5"/>
    <line stroke="black" x1="460.0" y1="135.0" x2="469.0" y2="184.0" stroke-width="0.5"/>
    <line stroke="black" x1="469.0" y1="184.0" x2="523.0" y2="233.0" stroke-width="0.5"/>
    <line stroke="black" x1="469.0" y1="184.0" x2="494.0" y2="125.0" stroke-width="0.5"/>
    <line stroke="black" x1="430.0" y1="214.0" x2="402.0" y2="330.0" stroke-width="0.5"/>
    <line stroke="black" x1="430.0" y1="214.0" x2="498.0" y2="350.0" stroke-width="0.5"/>
    <line stroke="black" x1="494.0" y1="125.0" x2="519.0" y2="117.0" stroke-width="0.5"/>
    <line stroke="black" x1="523.0" y1="233.0" x2="520.0" y2="241.0" stroke-width="0.5"/>
    <line stroke="black" x1="523.0" y1="233.0" x2="547.0" y2="256.0" stroke-width="0.5"/>
    <line stroke="black" x1="402.0" y1="330.0" x2="366.0" y2="447.0" stroke-width="0.5"/>
    <line stroke="black" x1="402.0" y1="330.0" x2="583.0" y2="449.0" stroke-width="0.5"/>
    <line stroke="black" x1="498.0" y1="350.0" x2="499.0" y2="312.0" stroke-width="0.5"/>
    <line stroke="black" x1="498.0" y1="350.0" x2="548.0" y2="383.0" stroke-width="0.5"/>
    <line stroke="black" x1="499.0" y1="312.0" x2="545.0" y2="308.0" stroke-width="0.5"/>
    <line stroke="black" x1="545.0" y1="308.0" x2="552.0" y2="303.0" stroke-width="0.5"/>
    <line stroke="black" x1="545.0" y1="308.0" x2="552.0" y2="303.0" stroke-width="0.5"/>
    <line stroke="black" x1="366.0" y1="447.0" x2="444.0" y2="567.0" stroke-width="0.5"/>
    <line stroke="black" x1="366.0" y1="447.0" x2="340.0" y2="431.0" stroke-width="0.5"/>
    <line stroke="black" x1="366.0" y1="447.0" x2="335.0" y2="548.0" stroke-width="0.5"/>
    <line stroke="black" x1="366.0" y1="447.0" x2="366.0" y2="447.0" stroke-width="0.5"/>
    <line stroke="black" x1="548.0" y1="383.0" x2="548.0" y2="383.0" stroke-width="0.5"/>
    <line stroke="black" x1="335.0" y1="548.0" x2="322.0" y2="549.0" stroke-width="0.5"/>
    <line stroke="black" x1="322.0" y1="549.0" x2="320.0" y2="678.0" stroke-width="0.5"/>
    <line stroke="black" x1="583.0" y1="449.0" x2="584.0" y2="422.0" stroke-width="0.5"/>
    <line stroke="black" x1="444.0" y1="567.0" x2="474.0" y2="528.0" stroke-width="0.5"/>
    <line stroke="black" x1="474.0" y1="528.0" x2="492.0" y2="500.0" stroke-width="0.5"/>
    <line stroke="black" x1="474.0" y1="528.0" x2="631.0" y2="552.0" stroke-width="0.5"/>
    <line stroke="black" x1="320.0" y1="678.0" x2="356.0" y2="727.0" stroke-width="0.5"/>
    <line stroke="black" x1="356.0" y1="727.0" x2="371.0" y2="771.0" stroke-width="0.5"/>
    <line stroke="black" x1="371.0" y1="771.0" x2="392.0" y2="820.0" stroke-width="0.5"/>
    <line stroke="black" x1="392.0" y1="820.0" x2="501.0" y2="861.0" stroke-width="0.5"/>
    <line stroke="black" x1="392.0" y1="820.0" x2="547.0" y2="780.0" stroke-width="0.5"/>
    <line stroke="black" x1="501.0" y1="861.0" x2="502.0" y2="834.0" stroke-width="0.5"/>
    <line stroke="black" x1="501.0" y1="861.0" x2="567.0" y2="889.0" stroke-width="0.5"/>
    <line stroke="black" x1="567.0" y1="889.0" x2="569.0" y2="870.0" stroke-width="0.5"/>
    <line stroke="black" x1="527.0" y1="947.0" x2="320.0" y2="678.0" stroke-width="0.5"/>
    <line stroke="black" x1="348.0" y1="425.0" x2="340.0" y2="431.0" stroke-width="0.5"/>
    <line stroke="black" x1="366.0" y1="447.0" x2="356.0" y2="433.0" stroke-width="0.5"/>
    <line stroke="black" x1="366.0" y1="447.0" x2="356.0" y2="433.0" stroke-width="0.5"/>
    <line stroke="black" x1="450.0" y1="684.0" x2="356.0" y2="727.0" stroke-width="0.5"/>
    <line stroke="black" x1="527.0" y1="723.0" x2="371.0" y2="771.0" stroke-width="0.5"/>
    <line stroke="black" x1="474.0" y1="528.0" x2="457.0" y2="507.0" stroke-width="0.5"/>
    <line stroke="black" x1="561.0" y1="89.0" x2="460.0" y2="135.0" stroke-width="0.5"/>
    <line stroke="black" x1="494.0" y1="125.0" x2="474.0" y2="114.0" stroke-width="0.5"/>
    <line stroke="black" x1="474.0" y1="528.0" x2="474.0" y2="528.0" stroke-width="0.5"/>
    <line stroke="black" x1="494.0" y1="125.0" x2="474.0" y2="114.0" stroke-width="0.5"/>
    <line stroke="black" x1="614.0" y1="610.0" x2="444.0" y2="567.0" stroke-width="0.5"/>
    <line stroke="black" x1="548.0" y1="164.0" x2="494.0" y2="125.0" stroke-width="0.5"/>
    <line stroke="black" x1="519.0" y1="117.0" x2="519.0" y2="117.0" stroke-width="0.5"/>
    <line stroke="black" x1="513.0" y1="294.0" x2="545.0" y2="308.0" stroke-width="0.5"/>
    <line stroke="black" x1="529.0" y1="293.0" x2="535.0" y2="300.0" stroke-width="0.5"/>
    <line stroke="black" x1="545.0" y1="308.0" x2="535.0" y2="300.0" stroke-width="0.5"/>
    <line stroke="black" x1="584.0" y1="200.0" x2="523.0" y2="233.0" stroke-width="0.5"/>
    <line stroke="black" x1="558.0" y1="795.0" x2="547.0" y2="780.0" stroke-width="0.5"/>
    <line stroke="black" x1="576.0" y1="236.0" x2="547.0" y2="256.0" stroke-width="0.5"/>
    <line stroke="black" x1="609.0" y1="759.0" x2="547.0" y2="780.0" stroke-width="0.5"/>
    <line stroke="black" x1="622.0" y1="911.0" x2="567.0" y2="889.0" stroke-width="0.5"/>
    <line stroke="black" x1="632.0" y1="463.0" x2="583.0" y2="449.0" stroke-width="0.5"/>
    <line stroke="black" x1="648.0" y1="537.0" x2="631.0" y2="552.0" stroke-width="0.5"/>
    <line stroke="black" x1="733.0" y1="573.0" x2="631.0" y2="552.0" stroke-width="0.5"/>
   </g>
  </g>
 </svg>
</svg>
