<?xml version="1.0" encoding="UTF-8"?>
<svg height="800.0" width="700.0" xmlns="http://www.w3.org/2000/svg">
 <svg>
  <g>
   <g>
    <g>
     <circle stroke="black" stroke-width="0.5" fill="#aaffff" cx="41.0" cy="942.0" r="1.0"/>
     <text stroke="none" x="41.0" y="942.0" font-size="10.0" font-family="helvetica">NT1.1</text>
    </g>
    <g>
     <circle stroke="black" stroke-width="0.5" fill="#aaffff" cx="63.0" cy="709.0" r="1.0"/>
     <text stroke="none" x="63.0" y="709.0" font-size="10.0" font-family="helvetica">NT1.2</text>
    </g>
    <g>
     <circle stroke="black" stroke-width="0.5" fill="#aaffff" cx="74.0" cy="606.0" r="1.0"/>
     <text stroke="none" x="74.0" y="606.0" font-size="10.0" font-family="helvetica">NT1.3</text>
    </g>
    <g>
     <circle stroke="black" stroke-width="0.5" fill="#aaffff" cx="76.0" cy="645.0" r="1.0"/>
     <text stroke="none" x="76.0" y="645.0" font-size="10.0" font-family="helvetica">NT1.4</text>
    </g>
    <g>
     <circle stroke="black" stroke-width="0.5" fill="#aaffff" cx="87.0" cy="678.0" r="1.0"/>
     <text stroke="none" x="87.0" y="678.0" font-size="10.0" font-family="helvetica">NT1.5</text>
    </g>
    <g>
     <circle stroke="black" stroke-width="0.5" fill="#aaffff" cx="89.0" cy="483.0" r="1.0"/>
     <text stroke="none" x="89.0" y="483.0" font-size="10.0" font-family="helvetica">NT1.6</text>
    </g>
    <g>
     <circle stroke="black" stroke-width="0.5" fill="#aaffff" cx="110.0" cy="791.0" r="1.0"/>
     <text stroke="none" x="110.0" y="791.0" font-size="10.0" font-family="helvetica">NT1.7</text>
    </g>
    <g>
     <circle stroke="black" stroke-width="0.5" fill="#aaffff" cx="114.0" cy="648.0" r="1.0"/>
     <text stroke="none" x="114.0" y="648.0" font-size="10.0" font-family="helvetica">NT1.8</text>
    </g>
    <g>
     <circle stroke="black" stroke-width="0.5" fill="#aaffff" cx="121.0" cy="626.0" r="1.0"/>
     <text stroke="none" x="121.0" y="626.0" font-size="10.0" font-family="helvetica">NT1.9</text>
    </g>
    <g>
     <circle stroke="black" stroke-width="0.5" fill="#aaffff" cx="133.0" cy="820.0" r="1.0"/>
     <text stroke="none" x="133.0" y="820.0" font-size="10.0" font-family="helvetica">NT1.10</text>
    </g>
    <g>
     <circle stroke="black" stroke-width="0.5" fill="#aaffff" cx="154.0" cy="422.0" r="1.0"/>
     <text stroke="none" x="154.0" y="422.0" font-size="20.0" font-family="helvetica"/>
    </g>
    <g>
     <circle stroke="black" stroke-width="0.5" fill="#aaffff" cx="154.0" cy="814.0" r="1.0"/>
     <text stroke="none" x="154.0" y="814.0" font-size="10.0" font-family="helvetica">NT1.12</text>
    </g>
    <g>
     <circle stroke="black" stroke-width="0.5" fill="#aaffff" cx="154.0" cy="833.0" r="1.0"/>
     <text stroke="none" x="154.0" y="833.0" font-size="10.0" font-family="helvetica">NT1.13</text>
    </g>
    <g>
     <circle stroke="black" stroke-width="0.5" fill="#aaffff" cx="155.0" cy="803.0" r="1.0"/>
     <text stroke="none" x="155.0" y="803.0" font-size="20.0" font-family="helvetica"/>
    </g>
    <g>
     <circle stroke="black" stroke-width="0.5" fill="#aaffff" cx="156.0" cy="419.0" r="1.0"/>
     <text stroke="none" x="156.0" y="419.0" font-size="10.0" font-family="helvetica">NT1.15</text>
    </g>
    <g>
     <circle stroke="black" stroke-width="0.5" fill="#aaffff" cx="163.0" cy="627.0" r="1.0"/>
     <text stroke="none" x="163.0" y="627.0" font-size="20.0" font-family="helvetica"/>
    </g>
    <g>
     <circle stroke="black" stroke-width="0.5" fill="#aaffff" cx="183.0" cy="908.0" r="1.0"/>
     <text stroke="none" x="183.0" y="908.0" font-size="10.0" font-family="helvetica">NT1.17</text>
    </g>
    <g>
     <circle stroke="black" stroke-width="0.5" fill="#aaffff" cx="195.0" cy="755.0" r="1.0"/>
     <text stroke="none" x="195.0" y="755.0" font-size="20.0" font-family="helvetica">Bacillus denitrificans ATCC 49067T (ABO21186)</text>
    </g>
    <g>
     <circle stroke="black" stroke-width="0.5" fill="#aaffff" cx="211.0" cy="259.0" r="1.0"/>
     <text stroke="none" x="211.0" y="259.0" font-size="10.0" font-family="helvetica">NT1.19</text>
    </g>
    <g>
     <circle stroke="black" stroke-width="0.5" fill="#aaffff" cx="215.0" cy="992.0" r="1.0"/>
     <text stroke="none" x="215.0" y="992.0" font-size="10.0" font-family="helvetica">NT1.20</text>
    </g>
    <g>
     <circle stroke="black" stroke-width="0.5" fill="#aaffff" cx="217.0" cy="388.0" r="1.0"/>
     <text stroke="none" x="217.0" y="388.0" font-size="10.0" font-family="helvetica">NT1.21</text>
    </g>
    <g>
     <circle stroke="black" stroke-width="0.5" fill="#aaffff" cx="219.0" cy="340.0" r="1.0"/>
     <text stroke="none" x="219.0" y="340.0" font-size="10.0" font-family="helvetica">NT1.22</text>
    </g>
    <g>
     <circle stroke="black" stroke-width="0.5" fill="#aaffff" cx="228.0" cy="57.0" r="1.0"/>
     <text stroke="none" x="228.0" y="57.0" font-size="10.0" font-family="helvetica">NT1.23</text>
    </g>
    <g>
     <circle stroke="black" stroke-width="0.5" fill="#aaffff" cx="228.0" cy="123.0" r="1.0"/>
     <text stroke="none" x="228.0" y="123.0" font-size="20.0" font-family="helvetica">73</text>
    </g>
    <g>
     <circle stroke="black" stroke-width="0.5" fill="#aaffff" cx="232.0" cy="465.0" r="1.0"/>
     <text stroke="none" x="232.0" y="465.0" font-size="10.0" font-family="helvetica">NT1.25</text>
    </g>
    <g>
     <circle stroke="black" stroke-width="0.5" fill="#aaffff" cx="237.0" cy="668.0" r="1.0"/>
     <text stroke="none" x="237.0" y="668.0" font-size="20.0" font-family="helvetica">Paraliobacillus ryukyuensis O15-7T (AB087828)</text>
    </g>
    <g>
     <circle stroke="black" stroke-width="0.5" fill="#aaffff" cx="238.0" cy="203.0" r="1.0"/>
     <text stroke="none" x="238.0" y="203.0" font-size="20.0" font-family="helvetica">34</text>
    </g>
    <g>
     <circle stroke="black" stroke-width="0.5" fill="#aaffff" cx="239.0" cy="145.0" r="1.0"/>
     <text stroke="none" x="239.0" y="145.0" font-size="20.0" font-family="helvetica">Halobacillus dabanensis D-8T (AY351395)</text>
    </g>
    <g>
     <circle stroke="black" stroke-width="0.5" fill="#aaffff" cx="239.0" cy="404.0" r="1.0"/>
     <text stroke="none" x="239.0" y="404.0" font-size="20.0" font-family="helvetica">Halobacillus yeomjeoni MSS-402T (AY881246)</text>
    </g>
    <g>
     <circle stroke="black" stroke-width="0.5" fill="#aaffff" cx="241.0" cy="275.0" r="1.0"/>
     <text stroke="none" x="241.0" y="275.0" font-size="20.0" font-family="helvetica">Halobacillus Iitoralis SL-4T (X94558)</text>
    </g>
    <g>
     <circle stroke="black" stroke-width="0.5" fill="#aaffff" cx="245.0" cy="16.0" r="1.0"/>
     <text stroke="none" x="245.0" y="16.0" font-size="20.0" font-family="helvetica">Halobacillus profundi IS-Hb4T (AB189298)</text>
    </g>
    <g>
     <circle stroke="black" stroke-width="0.5" fill="#aaffff" cx="248.0" cy="797.0" r="1.0"/>
     <text stroke="none" x="248.0" y="797.0" font-size="20.0" font-family="helvetica">Virgibacillus picturae LMG 19492T (AJ315060)</text>
    </g>
    <g>
     <circle stroke="black" stroke-width="0.5" fill="#aaffff" cx="250.0" cy="537.0" r="1.0"/>
     <text stroke="none" x="250.0" y="537.0" font-size="20.0" font-family="helvetica">Thalassobacillus devorans G-19.1T (AJ717299)</text>
    </g>
    <g>
     <circle stroke="black" stroke-width="0.5" fill="#aaffff" cx="258.0" cy="316.0" r="1.0"/>
     <text stroke="none" x="258.0" y="316.0" font-size="20.0" font-family="helvetica">Halobacillus locisalis MSS-155T (AY1 90534)</text>
    </g>
    <g>
     <circle stroke="black" stroke-width="0.5" fill="#aaffff" cx="260.0" cy="101.0" r="1.0"/>
     <text stroke="none" x="260.0" y="101.0" font-size="20.0" font-family="helvetica">Halobacillus karajensis DSM 14948T (AJ486874)</text>
    </g>
    <g>
     <circle stroke="black" stroke-width="0.5" fill="#aaffff" cx="260.0" cy="711.0" r="1.0"/>
     <text stroke="none" x="260.0" y="711.0" font-size="20.0" font-family="helvetica">Gracilibacillus halotolerans NNT (AF036922)</text>
    </g>
    <g>
     <circle stroke="black" stroke-width="0.5" fill="#aaffff" cx="267.0" cy="580.0" r="1.0"/>
     <text stroke="none" x="267.0" y="580.0" font-size="20.0" font-family="helvetica">Filobacillus milensis DSM 132597 (AJ238042)</text>
    </g>
    <g>
     <circle stroke="black" stroke-width="0.5" fill="#aaffff" cx="275.0" cy="232.0" r="1.0"/>
     <text stroke="none" x="275.0" y="232.0" font-size="20.0" font-family="helvetica">Halobacillus aidingensis AD-6T (AY351389)</text>
    </g>
    <g>
     <circle stroke="black" stroke-width="0.5" fill="#aaffff" cx="287.0" cy="361.0" r="1.0"/>
     <text stroke="none" x="287.0" y="361.0" font-size="20.0" font-family="helvetica">Halobacillus salinus HSL-3T (AF5000O3)</text>
    </g>
    <g>
     <circle stroke="black" stroke-width="0.5" fill="#aaffff" cx="294.0" cy="884.0" r="1.0"/>
     <text stroke="none" x="294.0" y="884.0" font-size="20.0" font-family="helvetica">Marinibacillus marinus DSM 1297T (AJ237708)</text>
    </g>
    <g>
     <circle stroke="black" stroke-width="0.5" fill="#aaffff" cx="303.0" cy="58.0" r="1.0"/>
     <text stroke="none" x="303.0" y="58.0" font-size="20.0" font-family="helvetica">Halobacillus kuroshimensls IS-Hb7T (AB195680)</text>
    </g>
    <g>
     <circle stroke="black" stroke-width="0.5" fill="#aaffff" cx="303.0" cy="623.0" r="1.0"/>
     <text stroke="none" x="303.0" y="623.0" font-size="20.0" font-family="helvetica">Amphibacillus fermentum Z-7984T (AF418603)</text>
    </g>
    <g>
     <circle stroke="black" stroke-width="0.5" fill="#aaffff" cx="330.0" cy="443.0" r="1.0"/>
     <text stroke="none" x="330.0" y="443.0" font-size="20.0" font-family="helvetica">Halobacillus halophilus NCIMB 92517 (X62174)</text>
    </g>
    <g>
     <circle stroke="black" stroke-width="0.5" fill="#aaffff" cx="342.0" cy="489.0" r="1.0"/>
     <text stroke="none" x="342.0" y="489.0" font-size="20.0" font-family="helvetica">Strain FP5T (AM295006)</text>
    </g>
    <g>
     <circle stroke="black" stroke-width="0.5" fill="#aaffff" cx="342.0" cy="928.0" r="1.0"/>
     <text stroke="none" x="342.0" y="928.0" font-size="20.0" font-family="helvetica">Jeotgalibacillus alimentarius YKJ-137 (AF281158)</text>
    </g>
    <g>
     <circle stroke="black" stroke-width="0.5" fill="#aaffff" cx="347.0" cy="841.0" r="1.0"/>
     <text stroke="none" x="347.0" y="841.0" font-size="20.0" font-family="helvetica">Oceanobacillus iheyensis HTE831T (AB010863)</text>
    </g>
    <g>
     <circle stroke="black" stroke-width="0.5" fill="#aaffff" cx="454.0" cy="967.0" r="1.0"/>
     <text stroke="none" x="454.0" y="967.0" font-size="20.0" font-family="helvetica">Aneurinibacillus danicus NCIMB 13288T (AB112725)</text>
    </g>
    <g>
     <circle stroke="black" stroke-width="0.5" fill="#aaffff" cx="589.0" cy="1011.0" r="1.0"/>
     <text stroke="none" x="589.0" y="1011.0" font-size="20.0" font-family="helvetica">Brevibacillus Iimnophilus DSM 64727 (AB112717)</text>
    </g>
    <line stroke="black" x1="245.0" y1="16.0" x2="228.0" y2="57.0" stroke-width="0.5"/>
    <line stroke="black" x1="303.0" y1="58.0" x2="228.0" y2="57.0" stroke-width="0.5"/>
    <line stroke="black" x1="260.0" y1="101.0" x2="228.0" y2="123.0" stroke-width="0.5"/>
    <line stroke="black" x1="239.0" y1="145.0" x2="228.0" y2="123.0" stroke-width="0.5"/>
    <line stroke="black" x1="275.0" y1="232.0" x2="238.0" y2="203.0" stroke-width="0.5"/>
    <line stroke="black" x1="241.0" y1="275.0" x2="238.0" y2="203.0" stroke-width="0.5"/>
    <line stroke="black" x1="258.0" y1="316.0" x2="219.0" y2="340.0" stroke-width="0.5"/>
    <line stroke="black" x1="287.0" y1="361.0" x2="219.0" y2="340.0" stroke-width="0.5"/>
    <line stroke="black" x1="154.0" y1="422.0" x2="156.0" y2="419.0" stroke-width="0.5"/>
    <line stroke="black" x1="330.0" y1="443.0" x2="232.0" y2="465.0" stroke-width="0.5"/>
    <line stroke="black" x1="342.0" y1="489.0" x2="232.0" y2="465.0" stroke-width="0.5"/>
    <line stroke="black" x1="163.0" y1="627.0" x2="121.0" y2="626.0" stroke-width="0.5"/>
    <line stroke="black" x1="155.0" y1="803.0" x2="154.0" y2="814.0" stroke-width="0.5"/>
    <line stroke="black" x1="195.0" y1="755.0" x2="110.0" y2="791.0" stroke-width="0.5"/>
    <line stroke="black" x1="342.0" y1="928.0" x2="183.0" y2="908.0" stroke-width="0.5"/>
    <line stroke="black" x1="228.0" y1="57.0" x2="228.0" y2="123.0" stroke-width="0.5"/>
    <line stroke="black" x1="228.0" y1="123.0" x2="238.0" y2="203.0" stroke-width="0.5"/>
    <line stroke="black" x1="238.0" y1="203.0" x2="211.0" y2="259.0" stroke-width="0.5"/>
    <line stroke="black" x1="211.0" y1="259.0" x2="232.0" y2="465.0" stroke-width="0.5"/>
    <line stroke="black" x1="219.0" y1="340.0" x2="217.0" y2="388.0" stroke-width="0.5"/>
    <line stroke="black" x1="217.0" y1="388.0" x2="217.0" y2="388.0" stroke-width="0.5"/>
    <line stroke="black" x1="232.0" y1="465.0" x2="156.0" y2="419.0" stroke-width="0.5"/>
    <line stroke="black" x1="156.0" y1="419.0" x2="89.0" y2="483.0" stroke-width="0.5"/>
    <line stroke="black" x1="89.0" y1="483.0" x2="74.0" y2="606.0" stroke-width="0.5"/>
    <line stroke="black" x1="74.0" y1="606.0" x2="63.0" y2="709.0" stroke-width="0.5"/>
    <line stroke="black" x1="74.0" y1="606.0" x2="76.0" y2="645.0" stroke-width="0.5"/>
    <line stroke="black" x1="76.0" y1="645.0" x2="87.0" y2="678.0" stroke-width="0.5"/>
    <line stroke="black" x1="76.0" y1="645.0" x2="87.0" y2="678.0" stroke-width="0.5"/>
    <line stroke="black" x1="87.0" y1="678.0" x2="114.0" y2="648.0" stroke-width="0.5"/>
    <line stroke="black" x1="63.0" y1="709.0" x2="110.0" y2="791.0" stroke-width="0.5"/>
    <line stroke="black" x1="114.0" y1="648.0" x2="121.0" y2="626.0" stroke-width="0.5"/>
    <line stroke="black" x1="110.0" y1="791.0" x2="133.0" y2="820.0" stroke-width="0.5"/>
    <line stroke="black" x1="133.0" y1="820.0" x2="154.0" y2="814.0" stroke-width="0.5"/>
    <line stroke="black" x1="133.0" y1="820.0" x2="154.0" y2="833.0" stroke-width="0.5"/>
    <line stroke="black" x1="154.0" y1="814.0" x2="154.0" y2="833.0" stroke-width="0.5"/>
    <line stroke="black" x1="154.0" y1="833.0" x2="154.0" y2="833.0" stroke-width="0.5"/>
    <line stroke="black" x1="41.0" y1="942.0" x2="215.0" y2="992.0" stroke-width="0.5"/>
    <line stroke="black" x1="41.0" y1="942.0" x2="183.0" y2="908.0" stroke-width="0.5"/>
    <line stroke="black" x1="63.0" y1="709.0" x2="41.0" y2="942.0" stroke-width="0.5"/>
    <line stroke="black" x1="237.0" y1="668.0" x2="114.0" y2="648.0" stroke-width="0.5"/>
    <line stroke="black" x1="250.0" y1="537.0" x2="156.0" y2="419.0" stroke-width="0.5"/>
    <line stroke="black" x1="303.0" y1="623.0" x2="121.0" y2="626.0" stroke-width="0.5"/>
    <line stroke="black" x1="260.0" y1="711.0" x2="87.0" y2="678.0" stroke-width="0.5"/>
    <line stroke="black" x1="248.0" y1="797.0" x2="154.0" y2="814.0" stroke-width="0.5"/>
    <line stroke="black" x1="219.0" y1="340.0" x2="211.0" y2="259.0" stroke-width="0.5"/>
    <line stroke="black" x1="267.0" y1="580.0" x2="89.0" y2="483.0" stroke-width="0.5"/>
    <line stroke="black" x1="347.0" y1="841.0" x2="154.0" y2="833.0" stroke-width="0.5"/>
    <line stroke="black" x1="239.0" y1="404.0" x2="217.0" y2="388.0" stroke-width="0.5"/>
    <line stroke="black" x1="294.0" y1="884.0" x2="183.0" y2="908.0" stroke-width="0.5"/>
    <line stroke="black" x1="589.0" y1="1011.0" x2="215.0" y2="992.0" stroke-width="0.5"/>
    <line stroke="black" x1="454.0" y1="967.0" x2="215.0" y2="992.0" stroke-width="0.5"/>
   </g>
  </g>
 </svg>
</svg>
