<?xml version="1.0" encoding="UTF-8"?>
<svg height="800.0" width="700.0" xmlns="http://www.w3.org/2000/svg">
 <svg>
  <g>
   <g>
    <g>
     <circle stroke="black" stroke-width="0.5" fill="#aaffff" cx="102.0" cy="235.0" r="1.0"/>
     <text stroke="none" x="102.0" y="235.0" font-size="10.0" font-family="helvetica">NT1.1</text>
    </g>
    <g>
     <circle stroke="black" stroke-width="0.5" fill="#aaffff" cx="296.0" cy="355.0" r="1.0"/>
     <text stroke="none" x="296.0" y="355.0" font-size="10.0" font-family="helvetica">NT1.2</text>
    </g>
    <g>
     <circle stroke="black" stroke-width="0.5" fill="#aaffff" cx="335.0" cy="178.0" r="1.0"/>
     <text stroke="none" x="335.0" y="178.0" font-size="10.0" font-family="helvetica">NT1.3</text>
    </g>
    <g>
     <circle stroke="black" stroke-width="0.5" fill="#aaffff" cx="348.0" cy="140.0" r="1.0"/>
     <text stroke="none" x="348.0" y="140.0" font-size="10.0" font-family="helvetica">NT1.4</text>
    </g>
    <g>
     <circle stroke="black" stroke-width="0.5" fill="#aaffff" cx="354.0" cy="290.0" r="1.0"/>
     <text stroke="none" x="354.0" y="290.0" font-size="10.0" font-family="helvetica">NT1.5</text>
    </g>
    <g>
     <circle stroke="black" stroke-width="0.5" fill="#aaffff" cx="407.0" cy="221.0" r="1.0"/>
     <text stroke="none" x="407.0" y="221.0" font-size="10.0" font-family="helvetica">NT1.6</text>
    </g>
    <g>
     <circle stroke="black" stroke-width="0.5" fill="#aaffff" cx="428.0" cy="108.0" r="1.0"/>
     <text stroke="none" x="428.0" y="108.0" font-size="10.0" font-family="helvetica">NT1.7</text>
    </g>
    <g>
     <circle stroke="black" stroke-width="0.5" fill="#aaffff" cx="462.0" cy="306.0" r="1.0"/>
     <text stroke="none" x="462.0" y="306.0" font-size="20.0" font-family="helvetica">Phenylobacterium lituiforme ATCC BAA-294T (AY534887)</text>
    </g>
    <g>
     <circle stroke="black" stroke-width="0.5" fill="#aaffff" cx="472.0" cy="248.0" r="1.0"/>
     <text stroke="none" x="472.0" y="248.0" font-size="10.0" font-family="helvetica">NT1.9</text>
    </g>
    <g>
     <circle stroke="black" stroke-width="0.5" fill="#aaffff" cx="472.0" cy="194.0" r="1.0"/>
     <text stroke="none" x="472.0" y="194.0" font-size="10.0" font-family="helvetica">NT1.10</text>
    </g>
    <g>
     <circle stroke="black" stroke-width="0.5" fill="#aaffff" cx="473.0" cy="250.0" r="1.0"/>
     <text stroke="none" x="473.0" y="250.0" font-size="20.0" font-family="helvetica"/>
    </g>
    <g>
     <circle stroke="black" stroke-width="0.5" fill="#aaffff" cx="473.0" cy="192.0" r="1.0"/>
     <text stroke="none" x="473.0" y="192.0" font-size="20.0" font-family="helvetica"/>
    </g>
    <g>
     <circle stroke="black" stroke-width="0.5" fill="#aaffff" cx="489.0" cy="278.0" r="1.0"/>
     <text stroke="none" x="489.0" y="278.0" font-size="20.0" font-family="helvetica"/>
    </g>
    <g>
     <circle stroke="black" stroke-width="0.5" fill="#aaffff" cx="593.0" cy="164.0" r="1.0"/>
     <text stroke="none" x="593.0" y="164.0" font-size="20.0" font-family="helvetica">Asticcacaulis excentricus ATCC 152617 (AB016610)</text>
    </g>
    <line stroke="black" x1="473.0" y1="250.0" x2="472.0" y2="248.0" stroke-width="0.5"/>
    <line stroke="black" x1="472.0" y1="194.0" x2="473.0" y2="192.0" stroke-width="0.5"/>
    <line stroke="black" x1="593.0" y1="164.0" x2="348.0" y2="140.0" stroke-width="0.5"/>
    <line stroke="black" x1="462.0" y1="306.0" x2="354.0" y2="290.0" stroke-width="0.5"/>
    <line stroke="black" x1="489.0" y1="278.0" x2="354.0" y2="290.0" stroke-width="0.5"/>
    <line stroke="black" x1="428.0" y1="108.0" x2="348.0" y2="140.0" stroke-width="0.5"/>
    <line stroke="black" x1="348.0" y1="140.0" x2="335.0" y2="178.0" stroke-width="0.5"/>
    <line stroke="black" x1="335.0" y1="178.0" x2="102.0" y2="235.0" stroke-width="0.5"/>
    <line stroke="black" x1="335.0" y1="178.0" x2="407.0" y2="221.0" stroke-width="0.5"/>
    <line stroke="black" x1="102.0" y1="235.0" x2="354.0" y2="290.0" stroke-width="0.5"/>
    <line stroke="black" x1="102.0" y1="235.0" x2="296.0" y2="355.0" stroke-width="0.5"/>
    <line stroke="black" x1="407.0" y1="221.0" x2="472.0" y2="248.0" stroke-width="0.5"/>
    <line stroke="black" x1="407.0" y1="221.0" x2="472.0" y2="194.0" stroke-width="0.5"/>
    <line stroke="black" x1="472.0" y1="248.0" x2="472.0" y2="194.0" stroke-width="0.5"/>
    <line stroke="black" x1="296.0" y1="355.0" x2="296.0" y2="355.0" stroke-width="0.5"/>
    <line stroke="black" x1="428.0" y1="108.0" x2="428.0" y2="108.0" stroke-width="0.5"/>
   </g>
  </g>
 </svg>
</svg>
