<?xml version="1.0" encoding="UTF-8"?>
<svg height="800.0" width="700.0" xmlns="http://www.w3.org/2000/svg">
 <svg>
  <g>
   <g>
    <g>
     <circle stroke="black" stroke-width="0.5" fill="#aaffff" cx="11.0" cy="1350.0" r="1.0"/>
     <text stroke="none" x="11.0" y="1350.0" font-size="10.0" font-family="helvetica">NT1.1</text>
    </g>
    <g>
     <circle stroke="black" stroke-width="0.5" fill="#aaffff" cx="76.0" cy="1531.0" r="1.0"/>
     <text stroke="none" x="76.0" y="1531.0" font-size="10.0" font-family="helvetica">NT1.2</text>
    </g>
    <g>
     <circle stroke="black" stroke-width="0.5" fill="#aaffff" cx="89.0" cy="1169.0" r="1.0"/>
     <text stroke="none" x="89.0" y="1169.0" font-size="10.0" font-family="helvetica">NT1.3</text>
    </g>
    <g>
     <circle stroke="black" stroke-width="0.5" fill="#aaffff" cx="104.0" cy="1061.0" r="1.0"/>
     <text stroke="none" x="104.0" y="1061.0" font-size="10.0" font-family="helvetica">NT1.4</text>
    </g>
    <g>
     <circle stroke="black" stroke-width="0.5" fill="#aaffff" cx="126.0" cy="963.0" r="1.0"/>
     <text stroke="none" x="126.0" y="963.0" font-size="10.0" font-family="helvetica">NT1.5</text>
    </g>
    <g>
     <circle stroke="black" stroke-width="0.5" fill="#aaffff" cx="187.0" cy="383.0" r="1.0"/>
     <text stroke="none" x="187.0" y="383.0" font-size="10.0" font-family="helvetica">NT1.6</text>
    </g>
    <g>
     <circle stroke="black" stroke-width="0.5" fill="#aaffff" cx="213.0" cy="1617.0" r="1.0"/>
     <text stroke="none" x="213.0" y="1617.0" font-size="20.0" font-family="helvetica">Halalkalicoccus tibetensis JCM 11890T (AF435112)</text>
    </g>
    <g>
     <circle stroke="black" stroke-width="0.5" fill="#aaffff" cx="223.0" cy="603.0" r="1.0"/>
     <text stroke="none" x="223.0" y="603.0" font-size="20.0" font-family="helvetica">98</text>
    </g>
    <g>
     <circle stroke="black" stroke-width="0.5" fill="#aaffff" cx="225.0" cy="588.0" r="1.0"/>
     <text stroke="none" x="225.0" y="588.0" font-size="20.0" font-family="helvetica">98</text>
    </g>
    <g>
     <circle stroke="black" stroke-width="0.5" fill="#aaffff" cx="226.0" cy="1048.0" r="1.0"/>
     <text stroke="none" x="226.0" y="1048.0" font-size="20.0" font-family="helvetica">Haloterrigena thermotolerans ATCC 7O0275T (AF115478)</text>
    </g>
    <g>
     <circle stroke="black" stroke-width="0.5" fill="#aaffff" cx="229.0" cy="705.0" r="1.0"/>
     <text stroke="none" x="229.0" y="705.0" font-size="10.0" font-family="helvetica">NT1.11</text>
    </g>
    <g>
     <circle stroke="black" stroke-width="0.5" fill="#aaffff" cx="234.0" cy="588.0" r="1.0"/>
     <text stroke="none" x="234.0" y="588.0" font-size="10.0" font-family="helvetica">NT1.12</text>
    </g>
    <g>
     <circle stroke="black" stroke-width="0.5" fill="#aaffff" cx="240.0" cy="418.0" r="1.0"/>
     <text stroke="none" x="240.0" y="418.0" font-size="10.0" font-family="helvetica">NT1.13</text>
    </g>
    <g>
     <circle stroke="black" stroke-width="0.5" fill="#aaffff" cx="243.0" cy="161.0" r="1.0"/>
     <text stroke="none" x="243.0" y="161.0" font-size="10.0" font-family="helvetica">NT1.14</text>
    </g>
    <g>
     <circle stroke="black" stroke-width="0.5" fill="#aaffff" cx="245.0" cy="877.0" r="1.0"/>
     <text stroke="none" x="245.0" y="877.0" font-size="10.0" font-family="helvetica">NT1.15</text>
    </g>
    <g>
     <circle stroke="black" stroke-width="0.5" fill="#aaffff" cx="246.0" cy="1275.0" r="1.0"/>
     <text stroke="none" x="246.0" y="1275.0" font-size="20.0" font-family="helvetica">Natronobacterium gregoryi NCIMB 2189T (D87970)</text>
    </g>
    <g>
     <circle stroke="black" stroke-width="0.5" fill="#aaffff" cx="252.0" cy="1161.0" r="1.0"/>
     <text stroke="none" x="252.0" y="1161.0" font-size="20.0" font-family="helvetica">Halovivax asiaticus CECT 7O98T (AM039978)</text>
    </g>
    <g>
     <circle stroke="black" stroke-width="0.5" fill="#aaffff" cx="254.0" cy="362.0" r="1.0"/>
     <text stroke="none" x="254.0" y="362.0" font-size="10.0" font-family="helvetica">NT1.18</text>
    </g>
    <g>
     <circle stroke="black" stroke-width="0.5" fill="#aaffff" cx="257.0" cy="932.0" r="1.0"/>
     <text stroke="none" x="257.0" y="932.0" font-size="20.0" font-family="helvetica">Natrialba aegyptiaca JCM 11194T (AF251941)</text>
    </g>
    <g>
     <circle stroke="black" stroke-width="0.5" fill="#aaffff" cx="261.0" cy="475.0" r="1.0"/>
     <text stroke="none" x="261.0" y="475.0" font-size="10.0" font-family="helvetica">NT1.20</text>
    </g>
    <g>
     <circle stroke="black" stroke-width="0.5" fill="#aaffff" cx="264.0" cy="818.0" r="1.0"/>
     <text stroke="none" x="264.0" y="818.0" font-size="20.0" font-family="helvetica">Natrialba asiatica JCM 9546T (D14123)</text>
    </g>
    <g>
     <circle stroke="black" stroke-width="0.5" fill="#aaffff" cx="267.0" cy="246.0" r="1.0"/>
     <text stroke="none" x="267.0" y="246.0" font-size="10.0" font-family="helvetica">NT1.22</text>
    </g>
    <g>
     <circle stroke="black" stroke-width="0.5" fill="#aaffff" cx="286.0" cy="1446.0" r="1.0"/>
     <text stroke="none" x="286.0" y="1446.0" font-size="10.0" font-family="helvetica">NT1.23</text>
    </g>
    <g>
     <circle stroke="black" stroke-width="0.5" fill="#aaffff" cx="296.0" cy="75.0" r="1.0"/>
     <text stroke="none" x="296.0" y="75.0" font-size="10.0" font-family="helvetica">NT1.24</text>
    </g>
    <g>
     <circle stroke="black" stroke-width="0.5" fill="#aaffff" cx="299.0" cy="1504.0" r="1.0"/>
     <text stroke="none" x="299.0" y="1504.0" font-size="20.0" font-family="helvetica">Halococcus salifodinae ATCC 51437T (ABO04877)</text>
    </g>
    <g>
     <circle stroke="black" stroke-width="0.5" fill="#aaffff" cx="304.0" cy="132.0" r="1.0"/>
     <text stroke="none" x="304.0" y="132.0" font-size="10.0" font-family="helvetica">NT1.26</text>
    </g>
    <g>
     <circle stroke="black" stroke-width="0.5" fill="#aaffff" cx="322.0" cy="1390.0" r="1.0"/>
     <text stroke="none" x="322.0" y="1390.0" font-size="20.0" font-family="helvetica">Halococcus saccharolyticus ATCC 49257T (AB004876)</text>
    </g>
    <g>
     <circle stroke="black" stroke-width="0.5" fill="#aaffff" cx="324.0" cy="19.0" r="1.0"/>
     <text stroke="none" x="324.0" y="19.0" font-size="10.0" font-family="helvetica">NT1.28</text>
    </g>
    <g>
     <circle stroke="black" stroke-width="0.5" fill="#aaffff" cx="927.0" cy="1731.0" r="1.0"/>
     <text stroke="none" x="927.0" y="1731.0" font-size="10.0" font-family="helvetica">NT1.29</text>
    </g>
    <g>
     <circle stroke="black" stroke-width="0.5" fill="#aaffff" cx="4.0" cy="1541.0" r="1.0"/>
     <text stroke="none" x="4.0" y="1541.0" font-size="10.0" font-family="helvetica">NT1.30</text>
    </g>
    <line stroke="black" x1="246.0" y1="1275.0" x2="89.0" y2="1169.0" stroke-width="0.5"/>
    <line stroke="black" x1="252.0" y1="1161.0" x2="104.0" y2="1061.0" stroke-width="0.5"/>
    <line stroke="black" x1="322.0" y1="1390.0" x2="286.0" y2="1446.0" stroke-width="0.5"/>
    <line stroke="black" x1="226.0" y1="1048.0" x2="126.0" y2="963.0" stroke-width="0.5"/>
    <line stroke="black" x1="257.0" y1="932.0" x2="245.0" y2="877.0" stroke-width="0.5"/>
    <line stroke="black" x1="264.0" y1="818.0" x2="245.0" y2="877.0" stroke-width="0.5"/>
    <line stroke="black" x1="11.0" y1="1350.0" x2="89.0" y2="1169.0" stroke-width="0.5"/>
    <line stroke="black" x1="11.0" y1="1350.0" x2="76.0" y2="1531.0" stroke-width="0.5"/>
    <line stroke="black" x1="76.0" y1="1531.0" x2="286.0" y2="1446.0" stroke-width="0.5"/>
    <line stroke="black" x1="89.0" y1="1169.0" x2="104.0" y2="1061.0" stroke-width="0.5"/>
    <line stroke="black" x1="104.0" y1="1061.0" x2="126.0" y2="963.0" stroke-width="0.5"/>
    <line stroke="black" x1="126.0" y1="963.0" x2="245.0" y2="877.0" stroke-width="0.5"/>
    <line stroke="black" x1="4.0" y1="1541.0" x2="11.0" y2="1350.0" stroke-width="0.5"/>
    <line stroke="black" x1="213.0" y1="1617.0" x2="76.0" y2="1531.0" stroke-width="0.5"/>
    <line stroke="black" x1="299.0" y1="1504.0" x2="286.0" y2="1446.0" stroke-width="0.5"/>
   </g>
  </g>
 </svg>
</svg>
