<?xml version="1.0" encoding="UTF-8"?>
<svg height="800.0" width="700.0" xmlns="http://www.w3.org/2000/svg">
 <svg>
  <g>
   <g>
    <g>
     <circle stroke="black" stroke-width="0.5" fill="#aaffff" cx="2.0" cy="878.0" r="1.0"/>
     <text stroke="none" x="2.0" y="878.0" font-size="20.0" font-family="helvetica"/>
    </g>
    <g>
     <circle stroke="black" stroke-width="0.5" fill="#aaffff" cx="24.0" cy="867.0" r="1.0"/>
     <text stroke="none" x="24.0" y="867.0" font-size="10.0" font-family="helvetica">NT1.2</text>
    </g>
    <g>
     <circle stroke="black" stroke-width="0.5" fill="#aaffff" cx="24.0" cy="889.0" r="1.0"/>
     <text stroke="none" x="24.0" y="889.0" font-size="10.0" font-family="helvetica">NT1.3</text>
    </g>
    <g>
     <circle stroke="black" stroke-width="0.5" fill="#aaffff" cx="45.0" cy="919.0" r="1.0"/>
     <text stroke="none" x="45.0" y="919.0" font-size="10.0" font-family="helvetica">NT1.4</text>
    </g>
    <g>
     <circle stroke="black" stroke-width="0.5" fill="#aaffff" cx="193.0" cy="723.0" r="1.0"/>
     <text stroke="none" x="193.0" y="723.0" font-size="10.0" font-family="helvetica">NT1.5</text>
    </g>
    <g>
     <circle stroke="black" stroke-width="0.5" fill="#aaffff" cx="200.0" cy="875.0" r="1.0"/>
     <text stroke="none" x="200.0" y="875.0" font-size="10.0" font-family="helvetica">NT1.6</text>
    </g>
    <g>
     <circle stroke="black" stroke-width="0.5" fill="#aaffff" cx="281.0" cy="816.0" r="1.0"/>
     <text stroke="none" x="281.0" y="816.0" font-size="10.0" font-family="helvetica">NT1.7</text>
    </g>
    <g>
     <circle stroke="black" stroke-width="0.5" fill="#aaffff" cx="367.0" cy="956.0" r="1.0"/>
     <text stroke="none" x="367.0" y="956.0" font-size="10.0" font-family="helvetica">NT1.8</text>
    </g>
    <g>
     <circle stroke="black" stroke-width="0.5" fill="#aaffff" cx="401.0" cy="928.0" r="1.0"/>
     <text stroke="none" x="401.0" y="928.0" font-size="10.0" font-family="helvetica">NT1.9</text>
    </g>
    <g>
     <circle stroke="black" stroke-width="0.5" fill="#aaffff" cx="417.0" cy="1015.0" r="1.0"/>
     <text stroke="none" x="417.0" y="1015.0" font-size="10.0" font-family="helvetica">NT1.10</text>
    </g>
    <g>
     <circle stroke="black" stroke-width="0.5" fill="#aaffff" cx="421.0" cy="516.0" r="1.0"/>
     <text stroke="none" x="421.0" y="516.0" font-size="10.0" font-family="helvetica">NT1.11</text>
    </g>
    <g>
     <circle stroke="black" stroke-width="0.5" fill="#aaffff" cx="451.0" cy="686.0" r="1.0"/>
     <text stroke="none" x="451.0" y="686.0" font-size="10.0" font-family="helvetica">NT1.12</text>
    </g>
    <g>
     <circle stroke="black" stroke-width="0.5" fill="#aaffff" cx="453.0" cy="673.0" r="1.0"/>
     <text stroke="none" x="453.0" y="673.0" font-size="10.0" font-family="helvetica">NT1.13</text>
    </g>
    <g>
     <circle stroke="black" stroke-width="0.5" fill="#aaffff" cx="466.0" cy="479.0" r="1.0"/>
     <text stroke="none" x="466.0" y="479.0" font-size="10.0" font-family="helvetica">NT1.14</text>
    </g>
    <g>
     <circle stroke="black" stroke-width="0.5" fill="#aaffff" cx="470.0" cy="792.0" r="1.0"/>
     <text stroke="none" x="470.0" y="792.0" font-size="10.0" font-family="helvetica">NT1.15</text>
    </g>
    <g>
     <circle stroke="black" stroke-width="0.5" fill="#aaffff" cx="487.0" cy="464.0" r="1.0"/>
     <text stroke="none" x="487.0" y="464.0" font-size="10.0" font-family="helvetica">NT1.16</text>
    </g>
    <g>
     <circle stroke="black" stroke-width="0.5" fill="#aaffff" cx="488.0" cy="618.0" r="1.0"/>
     <text stroke="none" x="488.0" y="618.0" font-size="10.0" font-family="helvetica">NT1.17</text>
    </g>
    <g>
     <circle stroke="black" stroke-width="0.5" fill="#aaffff" cx="503.0" cy="464.0" r="1.0"/>
     <text stroke="none" x="503.0" y="464.0" font-size="20.0" font-family="helvetica">Chlamydia muridarum MoPnT (D85718)</text>
    </g>
    <g>
     <circle stroke="black" stroke-width="0.5" fill="#aaffff" cx="515.0" cy="560.0" r="1.0"/>
     <text stroke="none" x="515.0" y="560.0" font-size="10.0" font-family="helvetica">NT1.19</text>
    </g>
    <g>
     <circle stroke="black" stroke-width="0.5" fill="#aaffff" cx="521.0" cy="673.0" r="1.0"/>
     <text stroke="none" x="521.0" y="673.0" font-size="20.0" font-family="helvetica">Chlamydophila pecorum IPA (D85716)</text>
    </g>
    <g>
     <circle stroke="black" stroke-width="0.5" fill="#aaffff" cx="523.0" cy="570.0" r="1.0"/>
     <text stroke="none" x="523.0" y="570.0" font-size="10.0" font-family="helvetica">NT1.21</text>
    </g>
    <g>
     <circle stroke="black" stroke-width="0.5" fill="#aaffff" cx="524.0" cy="428.0" r="1.0"/>
     <text stroke="none" x="524.0" y="428.0" font-size="20.0" font-family="helvetica">Chlamydia trachomatis L2l434lBU (M59178)</text>
    </g>
    <g>
     <circle stroke="black" stroke-width="0.5" fill="#aaffff" cx="528.0" cy="534.0" r="1.0"/>
     <text stroke="none" x="528.0" y="534.0" font-size="20.0" font-family="helvetica">Chlamydophila abortus EBA (U73108)</text>
    </g>
    <g>
     <circle stroke="black" stroke-width="0.5" fill="#aaffff" cx="537.0" cy="497.0" r="1.0"/>
     <text stroke="none" x="537.0" y="497.0" font-size="20.0" font-family="helvetica">Chlamydia suis R22 (U73109)</text>
    </g>
    <g>
     <circle stroke="black" stroke-width="0.5" fill="#aaffff" cx="537.0" cy="637.0" r="1.0"/>
     <text stroke="none" x="537.0" y="637.0" font-size="20.0" font-family="helvetica">Chlamydophila felis FP BakerT (D85701)</text>
    </g>
    <g>
     <circle stroke="black" stroke-width="0.5" fill="#aaffff" cx="539.0" cy="601.0" r="1.0"/>
     <text stroke="none" x="539.0" y="601.0" font-size="20.0" font-family="helvetica">Chlamydophila caviae GPICT (D85708)</text>
    </g>
    <g>
     <circle stroke="black" stroke-width="0.5" fill="#aaffff" cx="540.0" cy="946.0" r="1.0"/>
     <text stroke="none" x="540.0" y="946.0" font-size="10.0" font-family="helvetica">NT1.27</text>
    </g>
    <g>
     <circle stroke="black" stroke-width="0.5" fill="#aaffff" cx="542.0" cy="982.0" r="1.0"/>
     <text stroke="none" x="542.0" y="982.0" font-size="20.0" font-family="helvetica">Neochlamydia hartmannellae A1HspT (AF177275)</text>
    </g>
    <g>
     <circle stroke="black" stroke-width="0.5" fill="#aaffff" cx="545.0" cy="910.0" r="1.0"/>
     <text stroke="none" x="545.0" y="910.0" font-size="20.0" font-family="helvetica">Parachlamydia acanthamoebae Bn9T (Y07556)</text>
    </g>
    <g>
     <circle stroke="black" stroke-width="0.5" fill="#aaffff" cx="558.0" cy="705.0" r="1.0"/>
     <text stroke="none" x="558.0" y="705.0" font-size="10.0" font-family="helvetica">NT1.30</text>
    </g>
    <g>
     <circle stroke="black" stroke-width="0.5" fill="#aaffff" cx="571.0" cy="875.0" r="1.0"/>
     <text stroke="none" x="571.0" y="875.0" font-size="20.0" font-family="helvetica">Waddlia chondrophila WSU 86-10447 (AF042496)</text>
    </g>
    <g>
     <circle stroke="black" stroke-width="0.5" fill="#aaffff" cx="601.0" cy="758.0" r="1.0"/>
     <text stroke="none" x="601.0" y="758.0" font-size="10.0" font-family="helvetica">NT1.32</text>
    </g>
    <g>
     <circle stroke="black" stroke-width="0.5" fill="#aaffff" cx="609.0" cy="841.0" r="1.0"/>
     <text stroke="none" x="609.0" y="841.0" font-size="10.0" font-family="helvetica">NT1.33</text>
    </g>
    <g>
     <circle stroke="black" stroke-width="0.5" fill="#aaffff" cx="619.0" cy="809.0" r="1.0"/>
     <text stroke="none" x="619.0" y="809.0" font-size="20.0" font-family="helvetica">Simkania negevensis ZT (L27666)</text>
    </g>
    <g>
     <circle stroke="black" stroke-width="0.5" fill="#aaffff" cx="636.0" cy="773.0" r="1.0"/>
     <text stroke="none" x="636.0" y="773.0" font-size="10.0" font-family="helvetica">NT1.35</text>
    </g>
    <g>
     <circle stroke="black" stroke-width="0.5" fill="#aaffff" cx="667.0" cy="738.0" r="1.0"/>
     <text stroke="none" x="667.0" y="738.0" font-size="10.0" font-family="helvetica">NT1.36</text>
    </g>
    <line stroke="black" x1="503.0" y1="464.0" x2="487.0" y2="464.0" stroke-width="0.5"/>
    <line stroke="black" x1="521.0" y1="673.0" x2="453.0" y2="673.0" stroke-width="0.5"/>
    <line stroke="black" x1="537.0" y1="637.0" x2="488.0" y2="618.0" stroke-width="0.5"/>
    <line stroke="black" x1="528.0" y1="534.0" x2="515.0" y2="560.0" stroke-width="0.5"/>
    <line stroke="black" x1="571.0" y1="875.0" x2="200.0" y2="875.0" stroke-width="0.5"/>
    <line stroke="black" x1="619.0" y1="809.0" x2="470.0" y2="792.0" stroke-width="0.5"/>
    <line stroke="black" x1="542.0" y1="982.0" x2="367.0" y2="956.0" stroke-width="0.5"/>
    <line stroke="black" x1="545.0" y1="910.0" x2="401.0" y2="928.0" stroke-width="0.5"/>
    <line stroke="black" x1="487.0" y1="464.0" x2="466.0" y2="479.0" stroke-width="0.5"/>
    <line stroke="black" x1="466.0" y1="479.0" x2="421.0" y2="516.0" stroke-width="0.5"/>
    <line stroke="black" x1="421.0" y1="516.0" x2="193.0" y2="723.0" stroke-width="0.5"/>
    <line stroke="black" x1="451.0" y1="686.0" x2="453.0" y2="673.0" stroke-width="0.5"/>
    <line stroke="black" x1="453.0" y1="673.0" x2="488.0" y2="618.0" stroke-width="0.5"/>
    <line stroke="black" x1="488.0" y1="618.0" x2="515.0" y2="560.0" stroke-width="0.5"/>
    <line stroke="black" x1="193.0" y1="723.0" x2="281.0" y2="816.0" stroke-width="0.5"/>
    <line stroke="black" x1="193.0" y1="723.0" x2="45.0" y2="919.0" stroke-width="0.5"/>
    <line stroke="black" x1="281.0" y1="816.0" x2="200.0" y2="875.0" stroke-width="0.5"/>
    <line stroke="black" x1="200.0" y1="875.0" x2="367.0" y2="956.0" stroke-width="0.5"/>
    <line stroke="black" x1="537.0" y1="497.0" x2="466.0" y2="479.0" stroke-width="0.5"/>
    <line stroke="black" x1="524.0" y1="428.0" x2="487.0" y2="464.0" stroke-width="0.5"/>
    <line stroke="black" x1="539.0" y1="601.0" x2="515.0" y2="560.0" stroke-width="0.5"/>
   </g>
  </g>
 </svg>
</svg>
