<?xml version="1.0" encoding="UTF-8"?>
<svg height="800.0" width="700.0" xmlns="http://www.w3.org/2000/svg">
 <svg>
  <g>
   <g>
    <g>
     <circle stroke="black" stroke-width="0.5" fill="#aaffff" cx="5.0" cy="119.0" r="1.0"/>
     <text stroke="none" x="5.0" y="119.0" font-size="10.0" font-family="helvetica">NT1.1</text>
    </g>
    <g>
     <circle stroke="black" stroke-width="0.5" fill="#aaffff" cx="136.0" cy="333.0" r="1.0"/>
     <text stroke="none" x="136.0" y="333.0" font-size="20.0" font-family="helvetica">91</text>
    </g>
    <g>
     <circle stroke="black" stroke-width="0.5" fill="#aaffff" cx="205.0" cy="18.0" r="1.0"/>
     <text stroke="none" x="205.0" y="18.0" font-size="20.0" font-family="helvetica">Cytophaga hutchinsonii ATCC 334067 (M58768)</text>
    </g>
    <g>
     <circle stroke="black" stroke-width="0.5" fill="#aaffff" cx="210.0" cy="220.0" r="1.0"/>
     <text stroke="none" x="210.0" y="220.0" font-size="20.0" font-family="helvetica">Adhaeribacter aquaticus DSM 16391T (AJ626894)</text>
    </g>
    <g>
     <circle stroke="black" stroke-width="0.5" fill="#aaffff" cx="231.0" cy="445.0" r="1.0"/>
     <text stroke="none" x="231.0" y="445.0" font-size="10.0" font-family="helvetica">NT1.5</text>
    </g>
    <g>
     <circle stroke="black" stroke-width="0.5" fill="#aaffff" cx="334.0" cy="570.0" r="1.0"/>
     <text stroke="none" x="334.0" y="570.0" font-size="20.0" font-family="helvetica">100</text>
    </g>
    <g>
     <circle stroke="black" stroke-width="0.5" fill="#aaffff" cx="396.0" cy="322.0" r="1.0"/>
     <text stroke="none" x="396.0" y="322.0" font-size="20.0" font-family="helvetica">Pontibacter actiniarum LMG 230277 (AY989908)</text>
    </g>
    <g>
     <circle stroke="black" stroke-width="0.5" fill="#aaffff" cx="435.0" cy="718.0" r="1.0"/>
     <text stroke="none" x="435.0" y="718.0" font-size="10.0" font-family="helvetica">NT1.8</text>
    </g>
    <g>
     <circle stroke="black" stroke-width="0.5" fill="#aaffff" cx="460.0" cy="860.0" r="1.0"/>
     <text stroke="none" x="460.0" y="860.0" font-size="10.0" font-family="helvetica">NT1.9</text>
    </g>
    <g>
     <circle stroke="black" stroke-width="0.5" fill="#aaffff" cx="461.0" cy="576.0" r="1.0"/>
     <text stroke="none" x="461.0" y="576.0" font-size="10.0" font-family="helvetica">NT1.10</text>
    </g>
    <g>
     <circle stroke="black" stroke-width="0.5" fill="#aaffff" cx="462.0" cy="423.0" r="1.0"/>
     <text stroke="none" x="462.0" y="423.0" font-size="20.0" font-family="helvetica">Hymenobacter ocellatus Myx 2105T (Y18835)</text>
    </g>
    <g>
     <circle stroke="black" stroke-width="0.5" fill="#aaffff" cx="474.0" cy="627.0" r="1.0"/>
     <text stroke="none" x="474.0" y="627.0" font-size="20.0" font-family="helvetica"> Hymenobacter actinosclerus CCUG 39621T (Y17356)</text>
    </g>
    <g>
     <circle stroke="black" stroke-width="0.5" fill="#aaffff" cx="476.0" cy="1062.0" r="1.0"/>
     <text stroke="none" x="476.0" y="1062.0" font-size="10.0" font-family="helvetica">NT1.13</text>
    </g>
    <g>
     <circle stroke="black" stroke-width="0.5" fill="#aaffff" cx="498.0" cy="880.0" r="1.0"/>
     <text stroke="none" x="498.0" y="880.0" font-size="10.0" font-family="helvetica">NT1.14</text>
    </g>
    <g>
     <circle stroke="black" stroke-width="0.5" fill="#aaffff" cx="504.0" cy="525.0" r="1.0"/>
     <text stroke="none" x="504.0" y="525.0" font-size="20.0" font-family="helvetica"> Hymenobacter aerophilus DSM 1360GT (AJ276901)</text>
    </g>
    <g>
     <circle stroke="black" stroke-width="0.5" fill="#aaffff" cx="524.0" cy="727.0" r="1.0"/>
     <text stroke="none" x="524.0" y="727.0" font-size="20.0" font-family="helvetica"> Hymenobacter norwichensis NSI50T (AJ549285)</text>
    </g>
    <g>
     <circle stroke="black" stroke-width="0.5" fill="#aaffff" cx="539.0" cy="1184.0" r="1.0"/>
     <text stroke="none" x="539.0" y="1184.0" font-size="10.0" font-family="helvetica">NT1.17</text>
    </g>
    <g>
     <circle stroke="black" stroke-width="0.5" fill="#aaffff" cx="550.0" cy="829.0" r="1.0"/>
     <text stroke="none" x="550.0" y="829.0" font-size="20.0" font-family="helvetica">Hymenobacter chitinivorans Txc1T (Y18837)</text>
    </g>
    <g>
     <circle stroke="black" stroke-width="0.5" fill="#aaffff" cx="556.0" cy="1134.0" r="1.0"/>
     <text stroke="none" x="556.0" y="1134.0" font-size="20.0" font-family="helvetica">Hymenobacter rigui WPCB131T (DQ089669)</text>
    </g>
    <g>
     <circle stroke="black" stroke-width="0.5" fill="#aaffff" cx="558.0" cy="1032.0" r="1.0"/>
     <text stroke="none" x="558.0" y="1032.0" font-size="20.0" font-family="helvetica"> Hymenobacter gelipurpurascens Txg1T (Y18836)</text>
    </g>
    <g>
     <circle stroke="black" stroke-width="0.5" fill="#aaffff" cx="586.0" cy="1236.0" r="1.0"/>
     <text stroke="none" x="586.0" y="1236.0" font-size="10.0" font-family="helvetica">NT1.21</text>
    </g>
    <g>
     <circle stroke="black" stroke-width="0.5" fill="#aaffff" cx="609.0" cy="931.0" r="1.0"/>
     <text stroke="none" x="609.0" y="931.0" font-size="20.0" font-family="helvetica">Hymenobacter roseosalivarius DSM 11622T (Y18833)</text>
    </g>
    <g>
     <circle stroke="black" stroke-width="0.5" fill="#aaffff" cx="725.0" cy="119.0" r="1.0"/>
     <text stroke="none" x="725.0" y="119.0" font-size="20.0" font-family="helvetica">Escherichia coli ATCC 1'l775T (X80725)</text>
    </g>
    <g>
     <circle stroke="black" stroke-width="0.5" fill="#aaffff" cx="4.0" cy="68.0" r="1.0"/>
     <text stroke="none" x="4.0" y="68.0" font-size="10.0" font-family="helvetica">NT1.24</text>
    </g>
    <line stroke="black" x1="210.0" y1="220.0" x2="136.0" y2="333.0" stroke-width="0.5"/>
    <line stroke="black" x1="725.0" y1="119.0" x2="5.0" y2="119.0" stroke-width="0.5"/>
    <line stroke="black" x1="396.0" y1="322.0" x2="231.0" y2="445.0" stroke-width="0.5"/>
    <line stroke="black" x1="462.0" y1="423.0" x2="334.0" y2="570.0" stroke-width="0.5"/>
    <line stroke="black" x1="474.0" y1="627.0" x2="461.0" y2="576.0" stroke-width="0.5"/>
    <line stroke="black" x1="504.0" y1="525.0" x2="461.0" y2="576.0" stroke-width="0.5"/>
    <line stroke="black" x1="524.0" y1="727.0" x2="460.0" y2="860.0" stroke-width="0.5"/>
    <line stroke="black" x1="550.0" y1="829.0" x2="498.0" y2="880.0" stroke-width="0.5"/>
    <line stroke="black" x1="558.0" y1="1032.0" x2="476.0" y2="1062.0" stroke-width="0.5"/>
    <line stroke="black" x1="5.0" y1="119.0" x2="136.0" y2="333.0" stroke-width="0.5"/>
    <line stroke="black" x1="136.0" y1="333.0" x2="231.0" y2="445.0" stroke-width="0.5"/>
    <line stroke="black" x1="231.0" y1="445.0" x2="334.0" y2="570.0" stroke-width="0.5"/>
    <line stroke="black" x1="334.0" y1="570.0" x2="435.0" y2="718.0" stroke-width="0.5"/>
    <line stroke="black" x1="435.0" y1="718.0" x2="460.0" y2="860.0" stroke-width="0.5"/>
    <line stroke="black" x1="435.0" y1="718.0" x2="461.0" y2="576.0" stroke-width="0.5"/>
    <line stroke="black" x1="460.0" y1="860.0" x2="476.0" y2="1062.0" stroke-width="0.5"/>
    <line stroke="black" x1="476.0" y1="1062.0" x2="498.0" y2="880.0" stroke-width="0.5"/>
    <line stroke="black" x1="4.0" y1="68.0" x2="205.0" y2="18.0" stroke-width="0.5"/>
    <line stroke="black" x1="4.0" y1="68.0" x2="5.0" y2="119.0" stroke-width="0.5"/>
    <line stroke="black" x1="609.0" y1="931.0" x2="498.0" y2="880.0" stroke-width="0.5"/>
    <line stroke="black" x1="556.0" y1="1134.0" x2="539.0" y2="1184.0" stroke-width="0.5"/>
   </g>
  </g>
 </svg>
</svg>
