<?xml version="1.0" encoding="UTF-8"?>
<svg height="800.0" width="700.0" xmlns="http://www.w3.org/2000/svg">
 <svg>
  <g>
   <g>
    <g>
     <circle stroke="black" stroke-width="0.5" fill="#aaffff" cx="265.0" cy="955.0" r="1.0"/>
     <text stroke="none" x="265.0" y="955.0" font-size="10.0" font-family="helvetica">NT1.1</text>
    </g>
    <g>
     <circle stroke="black" stroke-width="0.5" fill="#aaffff" cx="266.0" cy="1008.0" r="1.0"/>
     <text stroke="none" x="266.0" y="1008.0" font-size="10.0" font-family="helvetica">NT1.2</text>
    </g>
    <g>
     <circle stroke="black" stroke-width="0.5" fill="#aaffff" cx="440.0" cy="886.0" r="1.0"/>
     <text stroke="none" x="440.0" y="886.0" font-size="10.0" font-family="helvetica">NT1.3</text>
    </g>
    <g>
     <circle stroke="black" stroke-width="0.5" fill="#aaffff" cx="510.0" cy="973.0" r="1.0"/>
     <text stroke="none" x="510.0" y="973.0" font-size="20.0" font-family="helvetica">Paenibacillus polymyxa DSM 367 (D16276)</text>
    </g>
    <g>
     <circle stroke="black" stroke-width="0.5" fill="#aaffff" cx="555.0" cy="920.0" r="1.0"/>
     <text stroke="none" x="555.0" y="920.0" font-size="10.0" font-family="helvetica">NT1.5</text>
    </g>
    <g>
     <circle stroke="black" stroke-width="0.5" fill="#aaffff" cx="566.0" cy="852.0" r="1.0"/>
     <text stroke="none" x="566.0" y="852.0" font-size="10.0" font-family="helvetica">NT1.6</text>
    </g>
    <g>
     <circle stroke="black" stroke-width="0.5" fill="#aaffff" cx="601.0" cy="817.0" r="1.0"/>
     <text stroke="none" x="601.0" y="817.0" font-size="10.0" font-family="helvetica">NT1.7</text>
    </g>
    <g>
     <circle stroke="black" stroke-width="0.5" fill="#aaffff" cx="604.0" cy="939.0" r="1.0"/>
     <text stroke="none" x="604.0" y="939.0" font-size="20.0" font-family="helvetica"> Marinibacillus marinus DSM 12977 (AJ237708)</text>
    </g>
    <g>
     <circle stroke="black" stroke-width="0.5" fill="#aaffff" cx="676.0" cy="836.0" r="1.0"/>
     <text stroke="none" x="676.0" y="836.0" font-size="10.0" font-family="helvetica">NT1.9</text>
    </g>
    <g>
     <circle stroke="black" stroke-width="0.5" fill="#aaffff" cx="684.0" cy="783.0" r="1.0"/>
     <text stroke="none" x="684.0" y="783.0" font-size="10.0" font-family="helvetica">NT1.10</text>
    </g>
    <g>
     <circle stroke="black" stroke-width="0.5" fill="#aaffff" cx="708.0" cy="904.0" r="1.0"/>
     <text stroke="none" x="708.0" y="904.0" font-size="10.0" font-family="helvetica">NT1.11</text>
    </g>
    <g>
     <circle stroke="black" stroke-width="0.5" fill="#aaffff" cx="717.0" cy="870.0" r="1.0"/>
     <text stroke="none" x="717.0" y="870.0" font-size="20.0" font-family="helvetica"> Oceanobacillus chironomi LMG 236277 (DQ298074)</text>
    </g>
    <g>
     <circle stroke="black" stroke-width="0.5" fill="#aaffff" cx="745.0" cy="802.0" r="1.0"/>
     <text stroke="none" x="745.0" y="802.0" font-size="20.0" font-family="helvetica"> Oceanobacillus picturae LMG 194927 (AJ315060)</text>
    </g>
    <g>
     <circle stroke="black" stroke-width="0.5" fill="#aaffff" cx="747.0" cy="576.0" r="1.0"/>
     <text stroke="none" x="747.0" y="576.0" font-size="10.0" font-family="helvetica">NT1.14</text>
    </g>
    <g>
     <circle stroke="black" stroke-width="0.5" fill="#aaffff" cx="757.0" cy="302.0" r="1.0"/>
     <text stroke="none" x="757.0" y="302.0" font-size="10.0" font-family="helvetica">NT1.15</text>
    </g>
    <g>
     <circle stroke="black" stroke-width="0.5" fill="#aaffff" cx="757.0" cy="748.0" r="1.0"/>
     <text stroke="none" x="757.0" y="748.0" font-size="10.0" font-family="helvetica">NT1.16</text>
    </g>
    <g>
     <circle stroke="black" stroke-width="0.5" fill="#aaffff" cx="776.0" cy="163.0" r="1.0"/>
     <text stroke="none" x="776.0" y="163.0" font-size="10.0" font-family="helvetica">NT1.17</text>
    </g>
    <g>
     <circle stroke="black" stroke-width="0.5" fill="#aaffff" cx="781.0" cy="542.0" r="1.0"/>
     <text stroke="none" x="781.0" y="542.0" font-size="10.0" font-family="helvetica">NT1.18</text>
    </g>
    <g>
     <circle stroke="black" stroke-width="0.5" fill="#aaffff" cx="787.0" cy="95.0" r="1.0"/>
     <text stroke="none" x="787.0" y="95.0" font-size="10.0" font-family="helvetica">NT1.19</text>
    </g>
    <g>
     <circle stroke="black" stroke-width="0.5" fill="#aaffff" cx="794.0" cy="473.0" r="1.0"/>
     <text stroke="none" x="794.0" y="473.0" font-size="10.0" font-family="helvetica">NT1.20</text>
    </g>
    <g>
     <circle stroke="black" stroke-width="0.5" fill="#aaffff" cx="802.0" cy="767.0" r="1.0"/>
     <text stroke="none" x="802.0" y="767.0" font-size="10.0" font-family="helvetica">NT1.21</text>
    </g>
    <g>
     <circle stroke="black" stroke-width="0.5" fill="#aaffff" cx="807.0" cy="714.0" r="1.0"/>
     <text stroke="none" x="807.0" y="714.0" font-size="10.0" font-family="helvetica">NT1.22</text>
    </g>
    <g>
     <circle stroke="black" stroke-width="0.5" fill="#aaffff" cx="812.0" cy="129.0" r="1.0"/>
     <text stroke="none" x="812.0" y="129.0" font-size="10.0" font-family="helvetica">NT1.23</text>
    </g>
    <g>
     <circle stroke="black" stroke-width="0.5" fill="#aaffff" cx="815.0" cy="266.0" r="1.0"/>
     <text stroke="none" x="815.0" y="266.0" font-size="10.0" font-family="helvetica">NT1.24</text>
    </g>
    <g>
     <circle stroke="black" stroke-width="0.5" fill="#aaffff" cx="819.0" cy="60.0" r="1.0"/>
     <text stroke="none" x="819.0" y="60.0" font-size="10.0" font-family="helvetica">NT1.25</text>
    </g>
    <g>
     <circle stroke="black" stroke-width="0.5" fill="#aaffff" cx="820.0" cy="404.0" r="1.0"/>
     <text stroke="none" x="820.0" y="404.0" font-size="10.0" font-family="helvetica">NT1.26</text>
    </g>
    <g>
     <circle stroke="black" stroke-width="0.5" fill="#aaffff" cx="824.0" cy="26.0" r="1.0"/>
     <text stroke="none" x="824.0" y="26.0" font-size="10.0" font-family="helvetica">NT1.27</text>
    </g>
    <g>
     <circle stroke="black" stroke-width="0.5" fill="#aaffff" cx="826.0" cy="76.0" r="1.0"/>
     <text stroke="none" x="826.0" y="76.0" font-size="20.0" font-family="helvetica"> Virgibacillus marismortui 1 237 (AJO09793)</text>
    </g>
    <g>
     <circle stroke="black" stroke-width="0.5" fill="#aaffff" cx="828.0" cy="41.0" r="1.0"/>
     <text stroke="none" x="828.0" y="41.0" font-size="20.0" font-family="helvetica">Virgibacillus salarius SA-Vb17 (AB197851)</text>
    </g>
    <g>
     <circle stroke="black" stroke-width="0.5" fill="#aaffff" cx="835.0" cy="561.0" r="1.0"/>
     <text stroke="none" x="835.0" y="561.0" font-size="10.0" font-family="helvetica">NT1.30</text>
    </g>
    <g>
     <circle stroke="black" stroke-width="0.5" fill="#aaffff" cx="842.0" cy="438.0" r="1.0"/>
     <text stroke="none" x="842.0" y="438.0" font-size="10.0" font-family="helvetica">NT1.31</text>
    </g>
    <g>
     <circle stroke="black" stroke-width="0.5" fill="#aaffff" cx="844.0" cy="232.0" r="1.0"/>
     <text stroke="none" x="844.0" y="232.0" font-size="10.0" font-family="helvetica">NT1.32</text>
    </g>
    <g>
     <circle stroke="black" stroke-width="0.5" fill="#aaffff" cx="847.0" cy="507.0" r="1.0"/>
     <text stroke="none" x="847.0" y="507.0" font-size="10.0" font-family="helvetica">NT1.33</text>
    </g>
    <g>
     <circle stroke="black" stroke-width="0.5" fill="#aaffff" cx="855.0" cy="7.0" r="1.0"/>
     <text stroke="none" x="855.0" y="7.0" font-size="20.0" font-family="helvetica">Vfrgibacillus olivae E3087 (DQ139839)</text>
    </g>
    <g>
     <circle stroke="black" stroke-width="0.5" fill="#aaffff" cx="861.0" cy="645.0" r="1.0"/>
     <text stroke="none" x="861.0" y="645.0" font-size="10.0" font-family="helvetica">NT1.35</text>
    </g>
    <g>
     <circle stroke="black" stroke-width="0.5" fill="#aaffff" cx="865.0" cy="370.0" r="1.0"/>
     <text stroke="none" x="865.0" y="370.0" font-size="10.0" font-family="helvetica">NT1.36</text>
    </g>
    <g>
     <circle stroke="black" stroke-width="0.5" fill="#aaffff" cx="869.0" cy="336.0" r="1.0"/>
     <text stroke="none" x="869.0" y="336.0" font-size="10.0" font-family="helvetica">NT1.37</text>
    </g>
    <g>
     <circle stroke="black" stroke-width="0.5" fill="#aaffff" cx="872.0" cy="198.0" r="1.0"/>
     <text stroke="none" x="872.0" y="198.0" font-size="10.0" font-family="helvetica">NT1.38</text>
    </g>
    <g>
     <circle stroke="black" stroke-width="0.5" fill="#aaffff" cx="879.0" cy="733.0" r="1.0"/>
     <text stroke="none" x="879.0" y="733.0" font-size="10.0" font-family="helvetica">NT1.39</text>
    </g>
    <g>
     <circle stroke="black" stroke-width="0.5" fill="#aaffff" cx="880.0" cy="111.0" r="1.0"/>
     <text stroke="none" x="880.0" y="111.0" font-size="10.0" font-family="helvetica">NT1.40</text>
    </g>
    <g>
     <circle stroke="black" stroke-width="0.5" fill="#aaffff" cx="880.0" cy="214.0" r="1.0"/>
     <text stroke="none" x="880.0" y="214.0" font-size="20.0" font-family="helvetica"> Virgibacillus dokdonensis DSW-107 (AY822043)</text>
    </g>
    <g>
     <circle stroke="black" stroke-width="0.5" fill="#aaffff" cx="882.0" cy="251.0" r="1.0"/>
     <text stroke="none" x="882.0" y="251.0" font-size="10.0" font-family="helvetica">NT1.42</text>
    </g>
    <g>
     <circle stroke="black" stroke-width="0.5" fill="#aaffff" cx="888.0" cy="285.0" r="1.0"/>
     <text stroke="none" x="888.0" y="285.0" font-size="10.0" font-family="helvetica">NT1.43</text>
    </g>
    <g>
     <circle stroke="black" stroke-width="0.5" fill="#aaffff" cx="889.0" cy="320.0" r="1.0"/>
     <text stroke="none" x="889.0" y="320.0" font-size="20.0" font-family="helvetica"> Virgibacillus carmonensis LMG 209647 (AJ316302)</text>
    </g>
    <g>
     <circle stroke="black" stroke-width="0.5" fill="#aaffff" cx="897.0" cy="458.0" r="1.0"/>
     <text stroke="none" x="897.0" y="458.0" font-size="20.0" font-family="helvetica"> Virgibacillus byunsanensis ISL-247 (FJ357159)</text>
    </g>
    <g>
     <circle stroke="black" stroke-width="0.5" fill="#aaffff" cx="905.0" cy="179.0" r="1.0"/>
     <text stroke="none" x="905.0" y="179.0" font-size="10.0" font-family="helvetica">NT1.46</text>
    </g>
    <g>
     <circle stroke="black" stroke-width="0.5" fill="#aaffff" cx="906.0" cy="423.0" r="1.0"/>
     <text stroke="none" x="906.0" y="423.0" font-size="20.0" font-family="helvetica"> Virgibacillus salinus XH-227 (FM205010)</text>
    </g>
    <g>
     <circle stroke="black" stroke-width="0.5" fill="#aaffff" cx="915.0" cy="354.0" r="1.0"/>
     <text stroke="none" x="915.0" y="354.0" font-size="20.0" font-family="helvetica"> Virgibacfllus necropolis LMG 194887 (AJ315056)</text>
    </g>
    <g>
     <circle stroke="black" stroke-width="0.5" fill="#aaffff" cx="924.0" cy="389.0" r="1.0"/>
     <text stroke="none" x="924.0" y="389.0" font-size="20.0" font-family="helvetica"> Virgibacillus arcticus Hal 17 (EF675742)</text>
    </g>
    <g>
     <circle stroke="black" stroke-width="0.5" fill="#aaffff" cx="927.0" cy="680.0" r="1.0"/>
     <text stroke="none" x="927.0" y="680.0" font-size="10.0" font-family="helvetica">NT1.50</text>
    </g>
    <g>
     <circle stroke="black" stroke-width="0.5" fill="#aaffff" cx="932.0" cy="526.0" r="1.0"/>
     <text stroke="none" x="932.0" y="526.0" font-size="20.0" font-family="helvetica"> Virgibacillus soli CC-YMP-67 (EU213011)</text>
    </g>
    <g>
     <circle stroke="black" stroke-width="0.5" fill="#aaffff" cx="933.0" cy="145.0" r="1.0"/>
     <text stroke="none" x="933.0" y="145.0" font-size="10.0" font-family="helvetica">NT1.52</text>
    </g>
    <g>
     <circle stroke="black" stroke-width="0.5" fill="#aaffff" cx="941.0" cy="611.0" r="1.0"/>
     <text stroke="none" x="941.0" y="611.0" font-size="10.0" font-family="helvetica">NT1.53</text>
    </g>
    <g>
     <circle stroke="black" stroke-width="0.5" fill="#aaffff" cx="942.0" cy="491.0" r="1.0"/>
     <text stroke="none" x="942.0" y="491.0" font-size="20.0" font-family="helvetica">Virgibacillus halophilus 5B73C7 (AB243851)</text>
    </g>
    <g>
     <circle stroke="black" stroke-width="0.5" fill="#aaffff" cx="951.0" cy="698.0" r="1.0"/>
     <text stroke="none" x="951.0" y="698.0" font-size="20.0" font-family="helvetica"> Halobacillus trueperi DSM 104047 (AJ310149)</text>
    </g>
    <g>
     <circle stroke="black" stroke-width="0.5" fill="#aaffff" cx="999.0" cy="663.0" r="1.0"/>
     <text stroke="none" x="999.0" y="663.0" font-size="20.0" font-family="helvetica"> Halobacillus halophilus DSM 22667 (AB367153)</text>
    </g>
    <g>
     <circle stroke="black" stroke-width="0.5" fill="#aaffff" cx="1025.0" cy="630.0" r="1.0"/>
     <text stroke="none" x="1025.0" y="630.0" font-size="20.0" font-family="helvetica"> Gracilibacillus halotolerans NN7 (AF036922)</text>
    </g>
    <g>
     <circle stroke="black" stroke-width="0.5" fill="#aaffff" cx="1052.0" cy="595.0" r="1.0"/>
     <text stroke="none" x="1052.0" y="595.0" font-size="10.0" font-family="helvetica">NT1.58</text>
    </g>
    <g>
     <circle stroke="black" stroke-width="0.5" fill="#aaffff" cx="5.0" cy="981.0" r="1.0"/>
     <text stroke="none" x="5.0" y="981.0" font-size="10.0" font-family="helvetica">NT1.59</text>
    </g>
    <line stroke="black" x1="855.0" y1="7.0" x2="824.0" y2="26.0" stroke-width="0.5"/>
    <line stroke="black" x1="828.0" y1="41.0" x2="824.0" y2="26.0" stroke-width="0.5"/>
    <line stroke="black" x1="826.0" y1="76.0" x2="819.0" y2="60.0" stroke-width="0.5"/>
    <line stroke="black" x1="880.0" y1="214.0" x2="872.0" y2="198.0" stroke-width="0.5"/>
    <line stroke="black" x1="932.0" y1="526.0" x2="847.0" y2="507.0" stroke-width="0.5"/>
    <line stroke="black" x1="942.0" y1="491.0" x2="847.0" y2="507.0" stroke-width="0.5"/>
    <line stroke="black" x1="897.0" y1="458.0" x2="842.0" y2="438.0" stroke-width="0.5"/>
    <line stroke="black" x1="906.0" y1="423.0" x2="842.0" y2="438.0" stroke-width="0.5"/>
    <line stroke="black" x1="889.0" y1="320.0" x2="869.0" y2="336.0" stroke-width="0.5"/>
    <line stroke="black" x1="924.0" y1="389.0" x2="865.0" y2="370.0" stroke-width="0.5"/>
    <line stroke="black" x1="915.0" y1="354.0" x2="869.0" y2="336.0" stroke-width="0.5"/>
    <line stroke="black" x1="745.0" y1="802.0" x2="684.0" y2="783.0" stroke-width="0.5"/>
    <line stroke="black" x1="951.0" y1="698.0" x2="927.0" y2="680.0" stroke-width="0.5"/>
    <line stroke="black" x1="999.0" y1="663.0" x2="927.0" y2="680.0" stroke-width="0.5"/>
    <line stroke="black" x1="1025.0" y1="630.0" x2="941.0" y2="611.0" stroke-width="0.5"/>
    <line stroke="black" x1="717.0" y1="870.0" x2="566.0" y2="852.0" stroke-width="0.5"/>
    <line stroke="black" x1="604.0" y1="939.0" x2="555.0" y2="920.0" stroke-width="0.5"/>
    <line stroke="black" x1="510.0" y1="973.0" x2="265.0" y2="955.0" stroke-width="0.5"/>
    <line stroke="black" x1="819.0" y1="60.0" x2="787.0" y2="95.0" stroke-width="0.5"/>
    <line stroke="black" x1="776.0" y1="163.0" x2="757.0" y2="302.0" stroke-width="0.5"/>
    <line stroke="black" x1="757.0" y1="302.0" x2="747.0" y2="576.0" stroke-width="0.5"/>
    <line stroke="black" x1="781.0" y1="542.0" x2="794.0" y2="473.0" stroke-width="0.5"/>
    <line stroke="black" x1="747.0" y1="576.0" x2="684.0" y2="783.0" stroke-width="0.5"/>
    <line stroke="black" x1="794.0" y1="473.0" x2="847.0" y2="507.0" stroke-width="0.5"/>
    <line stroke="black" x1="794.0" y1="473.0" x2="820.0" y2="404.0" stroke-width="0.5"/>
    <line stroke="black" x1="820.0" y1="404.0" x2="842.0" y2="438.0" stroke-width="0.5"/>
    <line stroke="black" x1="820.0" y1="404.0" x2="865.0" y2="370.0" stroke-width="0.5"/>
    <line stroke="black" x1="865.0" y1="370.0" x2="869.0" y2="336.0" stroke-width="0.5"/>
    <line stroke="black" x1="807.0" y1="714.0" x2="861.0" y2="645.0" stroke-width="0.5"/>
    <line stroke="black" x1="684.0" y1="783.0" x2="601.0" y2="817.0" stroke-width="0.5"/>
    <line stroke="black" x1="861.0" y1="645.0" x2="927.0" y2="680.0" stroke-width="0.5"/>
    <line stroke="black" x1="566.0" y1="852.0" x2="440.0" y2="886.0" stroke-width="0.5"/>
    <line stroke="black" x1="440.0" y1="886.0" x2="265.0" y2="955.0" stroke-width="0.5"/>
    <line stroke="black" x1="5.0" y1="981.0" x2="265.0" y2="955.0" stroke-width="0.5"/>
    <line stroke="black" x1="824.0" y1="26.0" x2="819.0" y2="60.0" stroke-width="0.5"/>
   </g>
  </g>
 </svg>
</svg>
