<?xml version="1.0" encoding="UTF-8"?>
<svg height="800.0" width="700.0" xmlns="http://www.w3.org/2000/svg">
 <svg>
  <g>
   <g>
    <g>
     <circle stroke="black" stroke-width="0.5" fill="#aaffff" cx="162.0" cy="135.0" r="1.0"/>
     <text stroke="none" x="162.0" y="135.0" font-size="10.0" font-family="helvetica">NT1.1</text>
    </g>
    <g>
     <circle stroke="black" stroke-width="0.5" fill="#aaffff" cx="231.0" cy="249.0" r="1.0"/>
     <text stroke="none" x="231.0" y="249.0" font-size="10.0" font-family="helvetica">NT1.2</text>
    </g>
    <g>
     <circle stroke="black" stroke-width="0.5" fill="#aaffff" cx="270.0" cy="384.0" r="1.0"/>
     <text stroke="none" x="270.0" y="384.0" font-size="10.0" font-family="helvetica">NT1.3</text>
    </g>
    <g>
     <circle stroke="black" stroke-width="0.5" fill="#aaffff" cx="279.0" cy="478.0" r="1.0"/>
     <text stroke="none" x="279.0" y="478.0" font-size="10.0" font-family="helvetica">NT1.4</text>
    </g>
    <g>
     <circle stroke="black" stroke-width="0.5" fill="#aaffff" cx="292.0" cy="119.0" r="1.0"/>
     <text stroke="none" x="292.0" y="119.0" font-size="10.0" font-family="helvetica">NT1.5</text>
    </g>
    <g>
     <circle stroke="black" stroke-width="0.5" fill="#aaffff" cx="313.0" cy="290.0" r="1.0"/>
     <text stroke="none" x="313.0" y="290.0" font-size="10.0" font-family="helvetica">NT1.6</text>
    </g>
    <g>
     <circle stroke="black" stroke-width="0.5" fill="#aaffff" cx="325.0" cy="331.0" r="1.0"/>
     <text stroke="none" x="325.0" y="331.0" font-size="10.0" font-family="helvetica">NT1.7</text>
    </g>
    <g>
     <circle stroke="black" stroke-width="0.5" fill="#aaffff" cx="325.0" cy="543.0" r="1.0"/>
     <text stroke="none" x="325.0" y="543.0" font-size="10.0" font-family="helvetica">NT1.8</text>
    </g>
    <g>
     <circle stroke="black" stroke-width="0.5" fill="#aaffff" cx="330.0" cy="503.0" r="1.0"/>
     <text stroke="none" x="330.0" y="503.0" font-size="10.0" font-family="helvetica">NT1.9</text>
    </g>
    <g>
     <circle stroke="black" stroke-width="0.5" fill="#aaffff" cx="331.0" cy="531.0" r="1.0"/>
     <text stroke="none" x="331.0" y="531.0" font-size="20.0" font-family="helvetica"/>
    </g>
    <g>
     <circle stroke="black" stroke-width="0.5" fill="#aaffff" cx="331.0" cy="472.0" r="1.0"/>
     <text stroke="none" x="331.0" y="472.0" font-size="20.0" font-family="helvetica"/>
    </g>
    <g>
     <circle stroke="black" stroke-width="0.5" fill="#aaffff" cx="344.0" cy="245.0" r="1.0"/>
     <text stroke="none" x="344.0" y="245.0" font-size="20.0" font-family="helvetica"/>
    </g>
    <g>
     <circle stroke="black" stroke-width="0.5" fill="#aaffff" cx="344.0" cy="359.0" r="1.0"/>
     <text stroke="none" x="344.0" y="359.0" font-size="20.0" font-family="helvetica"/>
    </g>
    <g>
     <circle stroke="black" stroke-width="0.5" fill="#aaffff" cx="350.0" cy="19.0" r="1.0"/>
     <text stroke="none" x="350.0" y="19.0" font-size="20.0" font-family="helvetica"/>
    </g>
    <g>
     <circle stroke="black" stroke-width="0.5" fill="#aaffff" cx="353.0" cy="586.0" r="1.0"/>
     <text stroke="none" x="353.0" y="586.0" font-size="20.0" font-family="helvetica"/>
    </g>
    <g>
     <circle stroke="black" stroke-width="0.5" fill="#aaffff" cx="359.0" cy="303.0" r="1.0"/>
     <text stroke="none" x="359.0" y="303.0" font-size="20.0" font-family="helvetica"/>
    </g>
    <g>
     <circle stroke="black" stroke-width="0.5" fill="#aaffff" cx="366.0" cy="159.0" r="1.0"/>
     <text stroke="none" x="366.0" y="159.0" font-size="10.0" font-family="helvetica">NT1.17</text>
    </g>
    <g>
     <circle stroke="black" stroke-width="0.5" fill="#aaffff" cx="367.0" cy="132.0" r="1.0"/>
     <text stroke="none" x="367.0" y="132.0" font-size="20.0" font-family="helvetica"/>
    </g>
    <g>
     <circle stroke="black" stroke-width="0.5" fill="#aaffff" cx="367.0" cy="189.0" r="1.0"/>
     <text stroke="none" x="367.0" y="189.0" font-size="20.0" font-family="helvetica"/>
    </g>
    <g>
     <circle stroke="black" stroke-width="0.5" fill="#aaffff" cx="368.0" cy="417.0" r="1.0"/>
     <text stroke="none" x="368.0" y="417.0" font-size="20.0" font-family="helvetica"/>
    </g>
    <g>
     <circle stroke="black" stroke-width="0.5" fill="#aaffff" cx="386.0" cy="74.0" r="1.0"/>
     <text stroke="none" x="386.0" y="74.0" font-size="20.0" font-family="helvetica">Candida halmiae sp. nov. G37 (DQ466525)</text>
    </g>
    <g>
     <circle stroke="black" stroke-width="0.5" fill="#aaffff" cx="416.0" cy="644.0" r="1.0"/>
     <text stroke="none" x="416.0" y="644.0" font-size="20.0" font-family="helvetica">Schizosaccharomyces pombe CBS 3567 (AYO481 71)</text>
    </g>
    <line stroke="black" x1="386.0" y1="74.0" x2="292.0" y2="119.0" stroke-width="0.5"/>
    <line stroke="black" x1="367.0" y1="132.0" x2="366.0" y2="159.0" stroke-width="0.5"/>
    <line stroke="black" x1="367.0" y1="189.0" x2="366.0" y2="159.0" stroke-width="0.5"/>
    <line stroke="black" x1="344.0" y1="245.0" x2="313.0" y2="290.0" stroke-width="0.5"/>
    <line stroke="black" x1="344.0" y1="359.0" x2="325.0" y2="331.0" stroke-width="0.5"/>
    <line stroke="black" x1="359.0" y1="303.0" x2="325.0" y2="331.0" stroke-width="0.5"/>
    <line stroke="black" x1="353.0" y1="586.0" x2="325.0" y2="543.0" stroke-width="0.5"/>
    <line stroke="black" x1="331.0" y1="531.0" x2="330.0" y2="503.0" stroke-width="0.5"/>
    <line stroke="black" x1="331.0" y1="472.0" x2="330.0" y2="503.0" stroke-width="0.5"/>
    <line stroke="black" x1="162.0" y1="135.0" x2="231.0" y2="249.0" stroke-width="0.5"/>
    <line stroke="black" x1="231.0" y1="249.0" x2="270.0" y2="384.0" stroke-width="0.5"/>
    <line stroke="black" x1="231.0" y1="249.0" x2="292.0" y2="119.0" stroke-width="0.5"/>
    <line stroke="black" x1="270.0" y1="384.0" x2="279.0" y2="478.0" stroke-width="0.5"/>
    <line stroke="black" x1="270.0" y1="384.0" x2="313.0" y2="290.0" stroke-width="0.5"/>
    <line stroke="black" x1="292.0" y1="119.0" x2="366.0" y2="159.0" stroke-width="0.5"/>
    <line stroke="black" x1="279.0" y1="478.0" x2="325.0" y2="543.0" stroke-width="0.5"/>
    <line stroke="black" x1="313.0" y1="290.0" x2="325.0" y2="331.0" stroke-width="0.5"/>
    <line stroke="black" x1="325.0" y1="543.0" x2="330.0" y2="503.0" stroke-width="0.5"/>
    <line stroke="black" x1="416.0" y1="644.0" x2="162.0" y2="135.0" stroke-width="0.5"/>
    <line stroke="black" x1="350.0" y1="19.0" x2="162.0" y2="135.0" stroke-width="0.5"/>
    <line stroke="black" x1="368.0" y1="417.0" x2="279.0" y2="478.0" stroke-width="0.5"/>
   </g>
  </g>
 </svg>
</svg>
