<?xml version="1.0" encoding="UTF-8"?>
<svg height="800.0" width="700.0" xmlns="http://www.w3.org/2000/svg">
 <svg>
  <g>
   <g>
    <g>
     <circle stroke="black" stroke-width="0.5" fill="#aaffff" cx="139.0" cy="997.0" r="1.0"/>
     <text stroke="none" x="139.0" y="997.0" font-size="10.0" font-family="helvetica">NT1.1</text>
    </g>
    <g>
     <circle stroke="black" stroke-width="0.5" fill="#aaffff" cx="176.0" cy="802.0" r="1.0"/>
     <text stroke="none" x="176.0" y="802.0" font-size="10.0" font-family="helvetica">NT1.2</text>
    </g>
    <g>
     <circle stroke="black" stroke-width="0.5" fill="#aaffff" cx="202.0" cy="755.0" r="1.0"/>
     <text stroke="none" x="202.0" y="755.0" font-size="10.0" font-family="helvetica">NT1.3</text>
    </g>
    <g>
     <circle stroke="black" stroke-width="0.5" fill="#aaffff" cx="225.0" cy="1049.0" r="1.0"/>
     <text stroke="none" x="225.0" y="1049.0" font-size="10.0" font-family="helvetica">NT1.4</text>
    </g>
    <g>
     <circle stroke="black" stroke-width="0.5" fill="#aaffff" cx="234.0" cy="659.0" r="1.0"/>
     <text stroke="none" x="234.0" y="659.0" font-size="10.0" font-family="helvetica">NT1.5</text>
    </g>
    <g>
     <circle stroke="black" stroke-width="0.5" fill="#aaffff" cx="351.0" cy="556.0" r="1.0"/>
     <text stroke="none" x="351.0" y="556.0" font-size="10.0" font-family="helvetica">NT1.6</text>
    </g>
    <g>
     <circle stroke="black" stroke-width="0.5" fill="#aaffff" cx="405.0" cy="404.0" r="1.0"/>
     <text stroke="none" x="405.0" y="404.0" font-size="10.0" font-family="helvetica">NT1.7</text>
    </g>
    <g>
     <circle stroke="black" stroke-width="0.5" fill="#aaffff" cx="409.0" cy="541.0" r="1.0"/>
     <text stroke="none" x="409.0" y="541.0" font-size="10.0" font-family="helvetica">NT1.8</text>
    </g>
    <g>
     <circle stroke="black" stroke-width="0.5" fill="#aaffff" cx="424.0" cy="587.0" r="1.0"/>
     <text stroke="none" x="424.0" y="587.0" font-size="10.0" font-family="helvetica">NT1.9</text>
    </g>
    <g>
     <circle stroke="black" stroke-width="0.5" fill="#aaffff" cx="431.0" cy="265.0" r="1.0"/>
     <text stroke="none" x="431.0" y="265.0" font-size="10.0" font-family="helvetica">NT1.10</text>
    </g>
    <g>
     <circle stroke="black" stroke-width="0.5" fill="#aaffff" cx="452.0" cy="627.0" r="1.0"/>
     <text stroke="none" x="452.0" y="627.0" font-size="10.0" font-family="helvetica">NT1.11</text>
    </g>
    <g>
     <circle stroke="black" stroke-width="0.5" fill="#aaffff" cx="503.0" cy="376.0" r="1.0"/>
     <text stroke="none" x="503.0" y="376.0" font-size="10.0" font-family="helvetica">NT1.12</text>
    </g>
    <g>
     <circle stroke="black" stroke-width="0.5" fill="#aaffff" cx="508.0" cy="153.0" r="1.0"/>
     <text stroke="none" x="508.0" y="153.0" font-size="10.0" font-family="helvetica">NT1.13</text>
    </g>
    <g>
     <circle stroke="black" stroke-width="0.5" fill="#aaffff" cx="531.0" cy="218.0" r="1.0"/>
     <text stroke="none" x="531.0" y="218.0" font-size="10.0" font-family="helvetica">NT1.14</text>
    </g>
    <g>
     <circle stroke="black" stroke-width="0.5" fill="#aaffff" cx="552.0" cy="257.0" r="1.0"/>
     <text stroke="none" x="552.0" y="257.0" font-size="10.0" font-family="helvetica">NT1.15</text>
    </g>
    <g>
     <circle stroke="black" stroke-width="0.5" fill="#aaffff" cx="573.0" cy="87.0" r="1.0"/>
     <text stroke="none" x="573.0" y="87.0" font-size="10.0" font-family="helvetica">NT1.16</text>
    </g>
    <g>
     <circle stroke="black" stroke-width="0.5" fill="#aaffff" cx="608.0" cy="945.0" r="1.0"/>
     <text stroke="none" x="608.0" y="945.0" font-size="10.0" font-family="helvetica">NT1.17</text>
    </g>
    <g>
     <circle stroke="black" stroke-width="0.5" fill="#aaffff" cx="614.0" cy="601.0" r="1.0"/>
     <text stroke="none" x="614.0" y="601.0" font-size="20.0" font-family="helvetica">Micromonospora carbonacea DSM 431687 (ABO14147)</text>
    </g>
    <g>
     <circle stroke="black" stroke-width="0.5" fill="#aaffff" cx="626.0" cy="813.0" r="1.0"/>
     <text stroke="none" x="626.0" y="813.0" font-size="10.0" font-family="helvetica">NT1.19</text>
    </g>
    <g>
     <circle stroke="black" stroke-width="0.5" fill="#aaffff" cx="669.0" cy="416.0" r="1.0"/>
     <text stroke="none" x="669.0" y="416.0" font-size="10.0" font-family="helvetica">NT1.20</text>
    </g>
    <g>
     <circle stroke="black" stroke-width="0.5" fill="#aaffff" cx="680.0" cy="707.0" r="1.0"/>
     <text stroke="none" x="680.0" y="707.0" font-size="20.0" font-family="helvetica">Micromonospora olivasterospora DSM 438687 (ABO14159)</text>
    </g>
    <g>
     <circle stroke="black" stroke-width="0.5" fill="#aaffff" cx="710.0" cy="284.0" r="1.0"/>
     <text stroke="none" x="710.0" y="284.0" font-size="10.0" font-family="helvetica">NT1.22</text>
    </g>
    <g>
     <circle stroke="black" stroke-width="0.5" fill="#aaffff" cx="738.0" cy="178.0" r="1.0"/>
     <text stroke="none" x="738.0" y="178.0" font-size="10.0" font-family="helvetica">NT1.23</text>
    </g>
    <g>
     <circle stroke="black" stroke-width="0.5" fill="#aaffff" cx="739.0" cy="47.0" r="1.0"/>
     <text stroke="none" x="739.0" y="47.0" font-size="10.0" font-family="helvetica">NT1.24</text>
    </g>
    <g>
     <circle stroke="black" stroke-width="0.5" fill="#aaffff" cx="745.0" cy="337.0" r="1.0"/>
     <text stroke="none" x="745.0" y="337.0" font-size="20.0" font-family="helvetica">Micromonospora rosaria DSM 8037 (ABO14163)</text>
    </g>
    <g>
     <circle stroke="black" stroke-width="0.5" fill="#aaffff" cx="750.0" cy="126.0" r="1.0"/>
     <text stroke="none" x="750.0" y="126.0" font-size="20.0" font-family="helvetica">Micromonospora chersina DSM 441517 (ABO15622)</text>
    </g>
    <g>
     <circle stroke="black" stroke-width="0.5" fill="#aaffff" cx="750.0" cy="548.0" r="1.0"/>
     <text stroke="none" x="750.0" y="548.0" font-size="10.0" font-family="helvetica">NT1.27</text>
    </g>
    <g>
     <circle stroke="black" stroke-width="0.5" fill="#aaffff" cx="763.0" cy="655.0" r="1.0"/>
     <text stroke="none" x="763.0" y="655.0" font-size="20.0" font-family="helvetica">Micromonospora coerulea DSM 431437 (AB014151)</text>
    </g>
    <g>
     <circle stroke="black" stroke-width="0.5" fill="#aaffff" cx="775.0" cy="865.0" r="1.0"/>
     <text stroke="none" x="775.0" y="865.0" font-size="20.0" font-family="helvetica">Polymorphospora rubra DSM 449477 (FM957542)</text>
    </g>
    <g>
     <circle stroke="black" stroke-width="0.5" fill="#aaffff" cx="777.0" cy="495.0" r="1.0"/>
     <text stroke="none" x="777.0" y="495.0" font-size="10.0" font-family="helvetica">NT1.30</text>
    </g>
    <g>
     <circle stroke="black" stroke-width="0.5" fill="#aaffff" cx="799.0" cy="73.0" r="1.0"/>
     <text stroke="none" x="799.0" y="73.0" font-size="10.0" font-family="helvetica">NT1.31</text>
    </g>
    <g>
     <circle stroke="black" stroke-width="0.5" fill="#aaffff" cx="801.0" cy="918.0" r="1.0"/>
     <text stroke="none" x="801.0" y="918.0" font-size="10.0" font-family="helvetica">NT1.32</text>
    </g>
    <g>
     <circle stroke="black" stroke-width="0.5" fill="#aaffff" cx="815.0" cy="231.0" r="1.0"/>
     <text stroke="none" x="815.0" y="231.0" font-size="20.0" font-family="helvetica">Micromonospora nigra DSM 438187 (AB014156)</text>
    </g>
    <g>
     <circle stroke="black" stroke-width="0.5" fill="#aaffff" cx="827.0" cy="760.0" r="1.0"/>
     <text stroke="none" x="827.0" y="760.0" font-size="20.0" font-family="helvetica">Micromonospora pattaloongensis TJ2-27 (FM957541)</text>
    </g>
    <g>
     <circle stroke="black" stroke-width="0.5" fill="#aaffff" cx="852.0" cy="390.0" r="1.0"/>
     <text stroke="none" x="852.0" y="390.0" font-size="20.0" font-family="helvetica">Micromonospora echinospora NBRC 131497 (ABO14154)</text>
    </g>
    <g>
     <circle stroke="black" stroke-width="0.5" fill="#aaffff" cx="873.0" cy="971.0" r="1.0"/>
     <text stroke="none" x="873.0" y="971.0" font-size="10.0" font-family="helvetica">NT1.36</text>
    </g>
    <g>
     <circle stroke="black" stroke-width="0.5" fill="#aaffff" cx="883.0" cy="1077.0" r="1.0"/>
     <text stroke="none" x="883.0" y="1077.0" font-size="20.0" font-family="helvetica">Actinoplanes regularis NBRC 125147 (ABO14133)</text>
    </g>
    <g>
     <circle stroke="black" stroke-width="0.5" fill="#aaffff" cx="897.0" cy="21.0" r="1.0"/>
     <text stroke="none" x="897.0" y="21.0" font-size="10.0" font-family="helvetica">NT1.38</text>
    </g>
    <g>
     <circle stroke="black" stroke-width="0.5" fill="#aaffff" cx="941.0" cy="1024.0" r="1.0"/>
     <text stroke="none" x="941.0" y="1024.0" font-size="10.0" font-family="helvetica">NT1.39</text>
    </g>
    <g>
     <circle stroke="black" stroke-width="0.5" fill="#aaffff" cx="944.0" cy="443.0" r="1.0"/>
     <text stroke="none" x="944.0" y="443.0" font-size="10.0" font-family="helvetica">NT1.40</text>
    </g>
    <g>
     <circle stroke="black" stroke-width="0.5" fill="#aaffff" cx="6.0" cy="899.0" r="1.0"/>
     <text stroke="none" x="6.0" y="899.0" font-size="10.0" font-family="helvetica">NT1.41</text>
    </g>
    <line stroke="black" x1="815.0" y1="231.0" x2="552.0" y2="257.0" stroke-width="0.5"/>
    <line stroke="black" x1="745.0" y1="337.0" x2="503.0" y2="376.0" stroke-width="0.5"/>
    <line stroke="black" x1="852.0" y1="390.0" x2="669.0" y2="416.0" stroke-width="0.5"/>
    <line stroke="black" x1="614.0" y1="601.0" x2="452.0" y2="627.0" stroke-width="0.5"/>
    <line stroke="black" x1="763.0" y1="655.0" x2="452.0" y2="627.0" stroke-width="0.5"/>
    <line stroke="black" x1="680.0" y1="707.0" x2="351.0" y2="556.0" stroke-width="0.5"/>
    <line stroke="black" x1="827.0" y1="760.0" x2="234.0" y2="659.0" stroke-width="0.5"/>
    <line stroke="black" x1="775.0" y1="865.0" x2="176.0" y2="802.0" stroke-width="0.5"/>
    <line stroke="black" x1="883.0" y1="1077.0" x2="225.0" y2="1049.0" stroke-width="0.5"/>
    <line stroke="black" x1="508.0" y1="153.0" x2="431.0" y2="265.0" stroke-width="0.5"/>
    <line stroke="black" x1="431.0" y1="265.0" x2="405.0" y2="404.0" stroke-width="0.5"/>
    <line stroke="black" x1="431.0" y1="265.0" x2="503.0" y2="376.0" stroke-width="0.5"/>
    <line stroke="black" x1="405.0" y1="404.0" x2="351.0" y2="556.0" stroke-width="0.5"/>
    <line stroke="black" x1="424.0" y1="587.0" x2="452.0" y2="627.0" stroke-width="0.5"/>
    <line stroke="black" x1="351.0" y1="556.0" x2="234.0" y2="659.0" stroke-width="0.5"/>
    <line stroke="black" x1="234.0" y1="659.0" x2="202.0" y2="755.0" stroke-width="0.5"/>
    <line stroke="black" x1="6.0" y1="899.0" x2="176.0" y2="802.0" stroke-width="0.5"/>
    <line stroke="black" x1="750.0" y1="126.0" x2="573.0" y2="87.0" stroke-width="0.5"/>
   </g>
  </g>
 </svg>
</svg>
