<?xml version="1.0" encoding="UTF-8"?>
<svg height="800.0" width="700.0" xmlns="http://www.w3.org/2000/svg">
 <svg>
  <g>
   <g>
    <g>
     <circle stroke="black" stroke-width="0.5" fill="#aaffff" cx="65.0" cy="587.0" r="1.0"/>
     <text stroke="none" x="65.0" y="587.0" font-size="10.0" font-family="helvetica">NT1.1</text>
    </g>
    <g>
     <circle stroke="black" stroke-width="0.5" fill="#aaffff" cx="119.0" cy="750.0" r="1.0"/>
     <text stroke="none" x="119.0" y="750.0" font-size="10.0" font-family="helvetica">NT1.2</text>
    </g>
    <g>
     <circle stroke="black" stroke-width="0.5" fill="#aaffff" cx="168.0" cy="363.0" r="1.0"/>
     <text stroke="none" x="168.0" y="363.0" font-size="10.0" font-family="helvetica">NT1.3</text>
    </g>
    <g>
     <circle stroke="black" stroke-width="0.5" fill="#aaffff" cx="178.0" cy="180.0" r="1.0"/>
     <text stroke="none" x="178.0" y="180.0" font-size="20.0" font-family="helvetica">35</text>
    </g>
    <g>
     <circle stroke="black" stroke-width="0.5" fill="#aaffff" cx="194.0" cy="82.0" r="1.0"/>
     <text stroke="none" x="194.0" y="82.0" font-size="20.0" font-family="helvetica">47</text>
    </g>
    <g>
     <circle stroke="black" stroke-width="0.5" fill="#aaffff" cx="201.0" cy="541.0" r="1.0"/>
     <text stroke="none" x="201.0" y="541.0" font-size="10.0" font-family="helvetica">NT1.6</text>
    </g>
    <g>
     <circle stroke="black" stroke-width="0.5" fill="#aaffff" cx="208.0" cy="55.0" r="1.0"/>
     <text stroke="none" x="208.0" y="55.0" font-size="10.0" font-family="helvetica">NT1.7</text>
    </g>
    <g>
     <circle stroke="black" stroke-width="0.5" fill="#aaffff" cx="229.0" cy="730.0" r="1.0"/>
     <text stroke="none" x="229.0" y="730.0" font-size="10.0" font-family="helvetica">NT1.8</text>
    </g>
    <g>
     <circle stroke="black" stroke-width="0.5" fill="#aaffff" cx="237.0" cy="316.0" r="1.0"/>
     <text stroke="none" x="237.0" y="316.0" font-size="10.0" font-family="helvetica">NT1.9</text>
    </g>
    <g>
     <circle stroke="black" stroke-width="0.5" fill="#aaffff" cx="258.0" cy="822.0" r="1.0"/>
     <text stroke="none" x="258.0" y="822.0" font-size="20.0" font-family="helvetica"/>
    </g>
    <g>
     <circle stroke="black" stroke-width="0.5" fill="#aaffff" cx="258.0" cy="446.0" r="1.0"/>
     <text stroke="none" x="258.0" y="446.0" font-size="10.0" font-family="helvetica">NT1.11</text>
    </g>
    <g>
     <circle stroke="black" stroke-width="0.5" fill="#aaffff" cx="260.0" cy="805.0" r="1.0"/>
     <text stroke="none" x="260.0" y="805.0" font-size="10.0" font-family="helvetica">NT1.12</text>
    </g>
    <g>
     <circle stroke="black" stroke-width="0.5" fill="#aaffff" cx="266.0" cy="789.0" r="1.0"/>
     <text stroke="none" x="266.0" y="789.0" font-size="20.0" font-family="helvetica"/>
    </g>
    <g>
     <circle stroke="black" stroke-width="0.5" fill="#aaffff" cx="271.0" cy="287.0" r="1.0"/>
     <text stroke="none" x="271.0" y="287.0" font-size="10.0" font-family="helvetica">NT1.14</text>
    </g>
    <g>
     <circle stroke="black" stroke-width="0.5" fill="#aaffff" cx="274.0" cy="420.0" r="1.0"/>
     <text stroke="none" x="274.0" y="420.0" font-size="10.0" font-family="helvetica">NT1.15</text>
    </g>
    <g>
     <circle stroke="black" stroke-width="0.5" fill="#aaffff" cx="278.0" cy="255.0" r="1.0"/>
     <text stroke="none" x="278.0" y="255.0" font-size="10.0" font-family="helvetica">NT1.16</text>
    </g>
    <g>
     <circle stroke="black" stroke-width="0.5" fill="#aaffff" cx="299.0" cy="221.0" r="1.0"/>
     <text stroke="none" x="299.0" y="221.0" font-size="10.0" font-family="helvetica">NT1.17</text>
    </g>
    <g>
     <circle stroke="black" stroke-width="0.5" fill="#aaffff" cx="301.0" cy="107.0" r="1.0"/>
     <text stroke="none" x="301.0" y="107.0" font-size="20.0" font-family="helvetica">Marinithernms hydrothermalis T1T(ABO79382)</text>
    </g>
    <g>
     <circle stroke="black" stroke-width="0.5" fill="#aaffff" cx="310.0" cy="212.0" r="1.0"/>
     <text stroke="none" x="310.0" y="212.0" font-size="10.0" font-family="helvetica">NT1.19</text>
    </g>
    <g>
     <circle stroke="black" stroke-width="0.5" fill="#aaffff" cx="321.0" cy="32.0" r="1.0"/>
     <text stroke="none" x="321.0" y="32.0" font-size="20.0" font-family="helvetica">100</text>
    </g>
    <g>
     <circle stroke="black" stroke-width="0.5" fill="#aaffff" cx="323.0" cy="288.0" r="1.0"/>
     <text stroke="none" x="323.0" y="288.0" font-size="20.0" font-family="helvetica">T. thermophilus HB271 (LO9659)</text>
    </g>
    <g>
     <circle stroke="black" stroke-width="0.5" fill="#aaffff" cx="327.0" cy="258.0" r="1.0"/>
     <text stroke="none" x="327.0" y="258.0" font-size="20.0" font-family="helvetica">T. aquaIicu.s' YT-11' (L09663)</text>
    </g>
    <g>
     <circle stroke="black" stroke-width="0.5" fill="#aaffff" cx="328.0" cy="16.0" r="1.0"/>
     <text stroke="none" x="328.0" y="16.0" font-size="20.0" font-family="helvetica">Strain StS5BT (AB107956)</text>
    </g>
    <g>
     <circle stroke="black" stroke-width="0.5" fill="#aaffff" cx="328.0" cy="153.0" r="1.0"/>
     <text stroke="none" x="328.0" y="153.0" font-size="10.0" font-family="helvetica">NT1.24</text>
    </g>
    <g>
     <circle stroke="black" stroke-width="0.5" fill="#aaffff" cx="329.0" cy="349.0" r="1.0"/>
     <text stroke="none" x="329.0" y="349.0" font-size="20.0" font-family="helvetica">T. oshimai SPSl7T (Yl8416)</text>
    </g>
    <g>
     <circle stroke="black" stroke-width="0.5" fill="#aaffff" cx="330.0" cy="46.0" r="1.0"/>
     <text stroke="none" x="330.0" y="46.0" font-size="20.0" font-family="helvetica">Oceanilhernms profimdus 506T (AJ4305S6)</text>
    </g>
    <g>
     <circle stroke="black" stroke-width="0.5" fill="#aaffff" cx="346.0" cy="227.0" r="1.0"/>
     <text stroke="none" x="346.0" y="227.0" font-size="20.0" font-family="helvetica">T. igniferrae RFr4T (Yl8406)</text>
    </g>
    <g>
     <circle stroke="black" stroke-width="0.5" fill="#aaffff" cx="347.0" cy="197.0" r="1.0"/>
     <text stroke="none" x="347.0" y="197.0" font-size="20.0" font-family="helvetica">T. lJ)'()(TkillI1Ll.Y YS38T (Y18409)</text>
    </g>
    <g>
     <circle stroke="black" stroke-width="0.5" fill="#aaffff" cx="356.0" cy="167.0" r="1.0"/>
     <text stroke="none" x="356.0" y="167.0" font-size="20.0" font-family="helvetica">T. scoroductus SE-1 (Y18410)</text>
    </g>
    <g>
     <circle stroke="black" stroke-width="0.5" fill="#aaffff" cx="360.0" cy="136.0" r="1.0"/>
     <text stroke="none" x="360.0" y="136.0" font-size="20.0" font-family="helvetica">T. antranikianii HNV_347T (Yl84l 1)</text>
    </g>
    <g>
     <circle stroke="black" stroke-width="0.5" fill="#aaffff" cx="362.0" cy="319.0" r="1.0"/>
     <text stroke="none" x="362.0" y="319.0" font-size="20.0" font-family="helvetica">T.filif0rmis Wai 33A11 (L09667)</text>
    </g>
    <g>
     <circle stroke="black" stroke-width="0.5" fill="#aaffff" cx="363.0" cy="76.0" r="1.0"/>
     <text stroke="none" x="363.0" y="76.0" font-size="20.0" font-family="helvetica">Vulcunifhernms Inediatlar1tic'u.Y TR1 (AJ507298)</text>
    </g>
    <g>
     <circle stroke="black" stroke-width="0.5" fill="#aaffff" cx="387.0" cy="397.0" r="1.0"/>
     <text stroke="none" x="387.0" y="397.0" font-size="10.0" font-family="helvetica">NT1.33</text>
    </g>
    <g>
     <circle stroke="black" stroke-width="0.5" fill="#aaffff" cx="392.0" cy="774.0" r="1.0"/>
     <text stroke="none" x="392.0" y="774.0" font-size="20.0" font-family="helvetica">Thermomicrobium rasezmz P-2T</text>
    </g>
    <g>
     <circle stroke="black" stroke-width="0.5" fill="#aaffff" cx="404.0" cy="441.0" r="1.0"/>
     <text stroke="none" x="404.0" y="441.0" font-size="20.0" font-family="helvetica">M. chlimvphilus ALT-8T (X84212)</text>
    </g>
    <g>
     <circle stroke="black" stroke-width="0.5" fill="#aaffff" cx="407.0" cy="380.0" r="1.0"/>
     <text stroke="none" x="407.0" y="380.0" font-size="20.0" font-family="helvetica">M.</text>
    </g>
    <g>
     <circle stroke="black" stroke-width="0.5" fill="#aaffff" cx="408.0" cy="411.0" r="1.0"/>
     <text stroke="none" x="408.0" y="411.0" font-size="20.0" font-family="helvetica"/>
    </g>
    <g>
     <circle stroke="black" stroke-width="0.5" fill="#aaffff" cx="414.0" cy="472.0" r="1.0"/>
     <text stroke="none" x="414.0" y="472.0" font-size="20.0" font-family="helvetica">M. silvamzs VI-R21" (X8421 1)</text>
    </g>
    <g>
     <circle stroke="black" stroke-width="0.5" fill="#aaffff" cx="414.0" cy="630.0" r="1.0"/>
     <text stroke="none" x="414.0" y="630.0" font-size="10.0" font-family="helvetica">NT1.39</text>
    </g>
    <g>
     <circle stroke="black" stroke-width="0.5" fill="#aaffff" cx="431.0" cy="595.0" r="1.0"/>
     <text stroke="none" x="431.0" y="595.0" font-size="10.0" font-family="helvetica">NT1.40</text>
    </g>
    <g>
     <circle stroke="black" stroke-width="0.5" fill="#aaffff" cx="458.0" cy="566.0" r="1.0"/>
     <text stroke="none" x="458.0" y="566.0" font-size="10.0" font-family="helvetica">NT1.41</text>
    </g>
    <g>
     <circle stroke="black" stroke-width="0.5" fill="#aaffff" cx="471.0" cy="667.0" r="1.0"/>
     <text stroke="none" x="471.0" y="667.0" font-size="10.0" font-family="helvetica">NT1.42</text>
    </g>
    <g>
     <circle stroke="black" stroke-width="0.5" fill="#aaffff" cx="471.0" cy="540.0" r="1.0"/>
     <text stroke="none" x="471.0" y="540.0" font-size="10.0" font-family="helvetica">NT1.43</text>
    </g>
    <g>
     <circle stroke="black" stroke-width="0.5" fill="#aaffff" cx="493.0" cy="517.0" r="1.0"/>
     <text stroke="none" x="493.0" y="517.0" font-size="10.0" font-family="helvetica">NT1.44</text>
    </g>
    <g>
     <circle stroke="black" stroke-width="0.5" fill="#aaffff" cx="513.0" cy="713.0" r="1.0"/>
     <text stroke="none" x="513.0" y="713.0" font-size="20.0" font-family="helvetica">Chloroflexus aurzmtiacus J -10-f 1</text>
    </g>
    <g>
     <circle stroke="black" stroke-width="0.5" fill="#aaffff" cx="537.0" cy="652.0" r="1.0"/>
     <text stroke="none" x="537.0" y="652.0" font-size="20.0" font-family="helvetica">D. pr()Ie0lyIicu.v MRPT (Y1 1331)</text>
    </g>
    <g>
     <circle stroke="black" stroke-width="0.5" fill="#aaffff" cx="545.0" cy="683.0" r="1.0"/>
     <text stroke="none" x="545.0" y="683.0" font-size="20.0" font-family="helvetica">D. radiophilus RBDT (Y1 13331)</text>
    </g>
    <g>
     <circle stroke="black" stroke-width="0.5" fill="#aaffff" cx="557.0" cy="622.0" r="1.0"/>
     <text stroke="none" x="557.0" y="622.0" font-size="20.0" font-family="helvetica">D. gc()tI1ern1alis AG43aT (Y13038)</text>
    </g>
    <g>
     <circle stroke="black" stroke-width="0.5" fill="#aaffff" cx="572.0" cy="562.0" r="1.0"/>
     <text stroke="none" x="572.0" y="562.0" font-size="20.0" font-family="helvetica">1). mdmpugnam M1T248T (Y1 1334)</text>
    </g>
    <g>
     <circle stroke="black" stroke-width="0.5" fill="#aaffff" cx="575.0" cy="592.0" r="1.0"/>
     <text stroke="none" x="575.0" y="592.0" font-size="20.0" font-family="helvetica">D. murrayi ALT-1bT (Y13041)</text>
    </g>
    <g>
     <circle stroke="black" stroke-width="0.5" fill="#aaffff" cx="575.0" cy="531.0" r="1.0"/>
     <text stroke="none" x="575.0" y="531.0" font-size="20.0" font-family="helvetica">D. radiodumns RIT (Y1 1332)</text>
    </g>
    <g>
     <circle stroke="black" stroke-width="0.5" fill="#aaffff" cx="575.0" cy="501.0" r="1.0"/>
     <text stroke="none" x="575.0" y="501.0" font-size="20.0" font-family="helvetica">D. grandis KS0485T (Y1 1329) </text>
    </g>
    <g>
     <circle stroke="black" stroke-width="0.5" fill="#aaffff" cx="582.0" cy="744.0" r="1.0"/>
     <text stroke="none" x="582.0" y="744.0" font-size="20.0" font-family="helvetica">Herpetosiplmn (mrantiucu.s' 114-9ST (M34117)</text>
    </g>
    <line stroke="black" x1="323.0" y1="288.0" x2="278.0" y2="255.0" stroke-width="0.5"/>
    <line stroke="black" x1="347.0" y1="197.0" x2="310.0" y2="212.0" stroke-width="0.5"/>
    <line stroke="black" x1="575.0" y1="592.0" x2="458.0" y2="566.0" stroke-width="0.5"/>
    <line stroke="black" x1="258.0" y1="822.0" x2="260.0" y2="805.0" stroke-width="0.5"/>
    <line stroke="black" x1="266.0" y1="789.0" x2="260.0" y2="805.0" stroke-width="0.5"/>
    <line stroke="black" x1="321.0" y1="32.0" x2="208.0" y2="55.0" stroke-width="0.5"/>
    <line stroke="black" x1="208.0" y1="55.0" x2="194.0" y2="82.0" stroke-width="0.5"/>
    <line stroke="black" x1="194.0" y1="82.0" x2="178.0" y2="180.0" stroke-width="0.5"/>
    <line stroke="black" x1="178.0" y1="180.0" x2="168.0" y2="363.0" stroke-width="0.5"/>
    <line stroke="black" x1="178.0" y1="180.0" x2="237.0" y2="316.0" stroke-width="0.5"/>
    <line stroke="black" x1="168.0" y1="363.0" x2="65.0" y2="587.0" stroke-width="0.5"/>
    <line stroke="black" x1="168.0" y1="363.0" x2="201.0" y2="541.0" stroke-width="0.5"/>
    <line stroke="black" x1="237.0" y1="316.0" x2="271.0" y2="287.0" stroke-width="0.5"/>
    <line stroke="black" x1="271.0" y1="287.0" x2="278.0" y2="255.0" stroke-width="0.5"/>
    <line stroke="black" x1="278.0" y1="255.0" x2="299.0" y2="221.0" stroke-width="0.5"/>
    <line stroke="black" x1="299.0" y1="221.0" x2="310.0" y2="212.0" stroke-width="0.5"/>
    <line stroke="black" x1="310.0" y1="212.0" x2="328.0" y2="153.0" stroke-width="0.5"/>
    <line stroke="black" x1="201.0" y1="541.0" x2="414.0" y2="630.0" stroke-width="0.5"/>
    <line stroke="black" x1="201.0" y1="541.0" x2="258.0" y2="446.0" stroke-width="0.5"/>
    <line stroke="black" x1="65.0" y1="587.0" x2="119.0" y2="750.0" stroke-width="0.5"/>
    <line stroke="black" x1="258.0" y1="446.0" x2="274.0" y2="420.0" stroke-width="0.5"/>
    <line stroke="black" x1="274.0" y1="420.0" x2="387.0" y2="397.0" stroke-width="0.5"/>
    <line stroke="black" x1="414.0" y1="630.0" x2="471.0" y2="667.0" stroke-width="0.5"/>
    <line stroke="black" x1="414.0" y1="630.0" x2="431.0" y2="595.0" stroke-width="0.5"/>
    <line stroke="black" x1="119.0" y1="750.0" x2="229.0" y2="730.0" stroke-width="0.5"/>
    <line stroke="black" x1="431.0" y1="595.0" x2="458.0" y2="566.0" stroke-width="0.5"/>
    <line stroke="black" x1="458.0" y1="566.0" x2="471.0" y2="540.0" stroke-width="0.5"/>
    <line stroke="black" x1="471.0" y1="540.0" x2="493.0" y2="517.0" stroke-width="0.5"/>
    <line stroke="black" x1="65.0" y1="587.0" x2="260.0" y2="805.0" stroke-width="0.5"/>
    <line stroke="black" x1="392.0" y1="774.0" x2="119.0" y2="750.0" stroke-width="0.5"/>
    <line stroke="black" x1="301.0" y1="107.0" x2="194.0" y2="82.0" stroke-width="0.5"/>
    <line stroke="black" x1="363.0" y1="76.0" x2="208.0" y2="55.0" stroke-width="0.5"/>
    <line stroke="black" x1="329.0" y1="349.0" x2="237.0" y2="316.0" stroke-width="0.5"/>
    <line stroke="black" x1="362.0" y1="319.0" x2="271.0" y2="287.0" stroke-width="0.5"/>
    <line stroke="black" x1="327.0" y1="258.0" x2="299.0" y2="221.0" stroke-width="0.5"/>
    <line stroke="black" x1="414.0" y1="472.0" x2="258.0" y2="446.0" stroke-width="0.5"/>
    <line stroke="black" x1="404.0" y1="441.0" x2="274.0" y2="420.0" stroke-width="0.5"/>
    <line stroke="black" x1="330.0" y1="46.0" x2="321.0" y2="32.0" stroke-width="0.5"/>
    <line stroke="black" x1="513.0" y1="713.0" x2="229.0" y2="730.0" stroke-width="0.5"/>
    <line stroke="black" x1="328.0" y1="16.0" x2="321.0" y2="32.0" stroke-width="0.5"/>
    <line stroke="black" x1="346.0" y1="227.0" x2="310.0" y2="212.0" stroke-width="0.5"/>
    <line stroke="black" x1="356.0" y1="167.0" x2="328.0" y2="153.0" stroke-width="0.5"/>
    <line stroke="black" x1="360.0" y1="136.0" x2="328.0" y2="153.0" stroke-width="0.5"/>
    <line stroke="black" x1="582.0" y1="744.0" x2="229.0" y2="730.0" stroke-width="0.5"/>
    <line stroke="black" x1="408.0" y1="411.0" x2="387.0" y2="397.0" stroke-width="0.5"/>
    <line stroke="black" x1="407.0" y1="380.0" x2="387.0" y2="397.0" stroke-width="0.5"/>
    <line stroke="black" x1="557.0" y1="622.0" x2="431.0" y2="595.0" stroke-width="0.5"/>
    <line stroke="black" x1="537.0" y1="652.0" x2="471.0" y2="667.0" stroke-width="0.5"/>
    <line stroke="black" x1="545.0" y1="683.0" x2="471.0" y2="667.0" stroke-width="0.5"/>
    <line stroke="black" x1="572.0" y1="562.0" x2="471.0" y2="540.0" stroke-width="0.5"/>
    <line stroke="black" x1="575.0" y1="531.0" x2="493.0" y2="517.0" stroke-width="0.5"/>
    <line stroke="black" x1="575.0" y1="501.0" x2="493.0" y2="517.0" stroke-width="0.5"/>
   </g>
  </g>
 </svg>
</svg>
