<?xml version="1.0" encoding="UTF-8"?>
<svg height="800.0" width="700.0" xmlns="http://www.w3.org/2000/svg">
 <svg>
  <g>
   <g>
    <g>
     <circle stroke="black" stroke-width="0.5" fill="#aaffff" cx="193.0" cy="676.0" r="1.0"/>
     <text stroke="none" x="193.0" y="676.0" font-size="20.0" font-family="helvetica"/>
    </g>
    <g>
     <circle stroke="black" stroke-width="0.5" fill="#aaffff" cx="233.0" cy="676.0" r="1.0"/>
     <text stroke="none" x="233.0" y="676.0" font-size="10.0" font-family="helvetica">NT1.2</text>
    </g>
    <g>
     <circle stroke="black" stroke-width="0.5" fill="#aaffff" cx="269.0" cy="537.0" r="1.0"/>
     <text stroke="none" x="269.0" y="537.0" font-size="10.0" font-family="helvetica">NT1.3</text>
    </g>
    <g>
     <circle stroke="black" stroke-width="0.5" fill="#aaffff" cx="284.0" cy="809.0" r="1.0"/>
     <text stroke="none" x="284.0" y="809.0" font-size="10.0" font-family="helvetica">NT1.4</text>
    </g>
    <g>
     <circle stroke="black" stroke-width="0.5" fill="#aaffff" cx="293.0" cy="654.0" r="1.0"/>
     <text stroke="none" x="293.0" y="654.0" font-size="10.0" font-family="helvetica">NT1.5</text>
    </g>
    <g>
     <circle stroke="black" stroke-width="0.5" fill="#aaffff" cx="295.0" cy="421.0" r="1.0"/>
     <text stroke="none" x="295.0" y="421.0" font-size="10.0" font-family="helvetica">NT1.6</text>
    </g>
    <g>
     <circle stroke="black" stroke-width="0.5" fill="#aaffff" cx="316.0" cy="304.0" r="1.0"/>
     <text stroke="none" x="316.0" y="304.0" font-size="10.0" font-family="helvetica">NT1.7</text>
    </g>
    <g>
     <circle stroke="black" stroke-width="0.5" fill="#aaffff" cx="326.0" cy="497.0" r="1.0"/>
     <text stroke="none" x="326.0" y="497.0" font-size="10.0" font-family="helvetica">NT1.8</text>
    </g>
    <g>
     <circle stroke="black" stroke-width="0.5" fill="#aaffff" cx="340.0" cy="616.0" r="1.0"/>
     <text stroke="none" x="340.0" y="616.0" font-size="10.0" font-family="helvetica">NT1.9</text>
    </g>
    <g>
     <circle stroke="black" stroke-width="0.5" fill="#aaffff" cx="350.0" cy="692.0" r="1.0"/>
     <text stroke="none" x="350.0" y="692.0" font-size="10.0" font-family="helvetica">NT1.10</text>
    </g>
    <g>
     <circle stroke="black" stroke-width="0.5" fill="#aaffff" cx="361.0" cy="216.0" r="1.0"/>
     <text stroke="none" x="361.0" y="216.0" font-size="10.0" font-family="helvetica">NT1.11</text>
    </g>
    <g>
     <circle stroke="black" stroke-width="0.5" fill="#aaffff" cx="378.0" cy="771.0" r="1.0"/>
     <text stroke="none" x="378.0" y="771.0" font-size="10.0" font-family="helvetica">NT1.12</text>
    </g>
    <g>
     <circle stroke="black" stroke-width="0.5" fill="#aaffff" cx="395.0" cy="381.0" r="1.0"/>
     <text stroke="none" x="395.0" y="381.0" font-size="20.0" font-family="helvetica">100</text>
    </g>
    <g>
     <circle stroke="black" stroke-width="0.5" fill="#aaffff" cx="402.0" cy="169.0" r="1.0"/>
     <text stroke="none" x="402.0" y="169.0" font-size="10.0" font-family="helvetica">NT1.14</text>
    </g>
    <g>
     <circle stroke="black" stroke-width="0.5" fill="#aaffff" cx="426.0" cy="576.0" r="1.0"/>
     <text stroke="none" x="426.0" y="576.0" font-size="10.0" font-family="helvetica">NT1.15</text>
    </g>
    <g>
     <circle stroke="black" stroke-width="0.5" fill="#aaffff" cx="432.0" cy="460.0" r="1.0"/>
     <text stroke="none" x="432.0" y="460.0" font-size="10.0" font-family="helvetica">NT1.16</text>
    </g>
    <g>
     <circle stroke="black" stroke-width="0.5" fill="#aaffff" cx="455.0" cy="99.0" r="1.0"/>
     <text stroke="none" x="455.0" y="99.0" font-size="10.0" font-family="helvetica">NT1.17</text>
    </g>
    <g>
     <circle stroke="black" stroke-width="0.5" fill="#aaffff" cx="462.0" cy="343.0" r="1.0"/>
     <text stroke="none" x="462.0" y="343.0" font-size="10.0" font-family="helvetica">NT1.18</text>
    </g>
    <g>
     <circle stroke="black" stroke-width="0.5" fill="#aaffff" cx="465.0" cy="225.0" r="1.0"/>
     <text stroke="none" x="465.0" y="225.0" font-size="10.0" font-family="helvetica">NT1.19</text>
    </g>
    <g>
     <circle stroke="black" stroke-width="0.5" fill="#aaffff" cx="503.0" cy="70.0" r="1.0"/>
     <text stroke="none" x="503.0" y="70.0" font-size="10.0" font-family="helvetica">NT1.20</text>
    </g>
    <g>
     <circle stroke="black" stroke-width="0.5" fill="#aaffff" cx="522.0" cy="400.0" r="1.0"/>
     <text stroke="none" x="522.0" y="400.0" font-size="20.0" font-family="helvetica">Clostridium algidixylanolyticum SPL73) (AF092549)</text>
    </g>
    <g>
     <circle stroke="black" stroke-width="0.5" fill="#aaffff" cx="536.0" cy="360.0" r="1.0"/>
     <text stroke="none" x="536.0" y="360.0" font-size="20.0" font-family="helvetica">Clostridium xylanolyticum DSM 6555) (X76739)</text>
    </g>
    <g>
     <circle stroke="black" stroke-width="0.5" fill="#aaffff" cx="548.0" cy="282.0" r="1.0"/>
     <text stroke="none" x="548.0" y="282.0" font-size="20.0" font-family="helvetica">Robinsoniella peoriensis PPC31) (AF445285)</text>
    </g>
    <g>
     <circle stroke="black" stroke-width="0.5" fill="#aaffff" cx="550.0" cy="516.0" r="1.0"/>
     <text stroke="none" x="550.0" y="516.0" font-size="20.0" font-family="helvetica">Clostridium clostridioforme ATCC 25537) (M59089)</text>
    </g>
    <g>
     <circle stroke="black" stroke-width="0.5" fill="#aaffff" cx="552.0" cy="187.0" r="1.0"/>
     <text stroke="none" x="552.0" y="187.0" font-size="10.0" font-family="helvetica">NT1.25</text>
    </g>
    <g>
     <circle stroke="black" stroke-width="0.5" fill="#aaffff" cx="553.0" cy="31.0" r="1.0"/>
     <text stroke="none" x="553.0" y="31.0" font-size="10.0" font-family="helvetica">NT1.26</text>
    </g>
    <g>
     <circle stroke="black" stroke-width="0.5" fill="#aaffff" cx="574.0" cy="324.0" r="1.0"/>
     <text stroke="none" x="574.0" y="324.0" font-size="20.0" font-family="helvetica">Clostridium methoxybenzovorans DSM 12182) (AF067965)</text>
    </g>
    <g>
     <circle stroke="black" stroke-width="0.5" fill="#aaffff" cx="581.0" cy="438.0" r="1.0"/>
     <text stroke="none" x="581.0" y="438.0" font-size="10.0" font-family="helvetica">NT1.28</text>
    </g>
    <g>
     <circle stroke="black" stroke-width="0.5" fill="#aaffff" cx="611.0" cy="165.0" r="1.0"/>
     <text stroke="none" x="611.0" y="165.0" font-size="10.0" font-family="helvetica">NT1.29</text>
    </g>
    <g>
     <circle stroke="black" stroke-width="0.5" fill="#aaffff" cx="617.0" cy="477.0" r="1.0"/>
     <text stroke="none" x="617.0" y="477.0" font-size="20.0" font-family="helvetica">Ruminococcus lactaris ATCC 29176) (L76602)</text>
    </g>
    <g>
     <circle stroke="black" stroke-width="0.5" fill="#aaffff" cx="621.0" cy="671.0" r="1.0"/>
     <text stroke="none" x="621.0" y="671.0" font-size="10.0" font-family="helvetica">NT1.31</text>
    </g>
    <g>
     <circle stroke="black" stroke-width="0.5" fill="#aaffff" cx="624.0" cy="789.0" r="1.0"/>
     <text stroke="none" x="624.0" y="789.0" font-size="20.0" font-family="helvetica">Clostridium populeti ATCC 35295) (X71853)</text>
    </g>
    <g>
     <circle stroke="black" stroke-width="0.5" fill="#aaffff" cx="656.0" cy="752.0" r="1.0"/>
     <text stroke="none" x="656.0" y="752.0" font-size="10.0" font-family="helvetica">NT1.33</text>
    </g>
    <g>
     <circle stroke="black" stroke-width="0.5" fill="#aaffff" cx="658.0" cy="49.0" r="1.0"/>
     <text stroke="none" x="658.0" y="49.0" font-size="10.0" font-family="helvetica">NT1.34</text>
    </g>
    <g>
     <circle stroke="black" stroke-width="0.5" fill="#aaffff" cx="670.0" cy="555.0" r="1.0"/>
     <text stroke="none" x="670.0" y="555.0" font-size="20.0" font-family="helvetica">Roseburia cecicola ATCC 33874) (L14676)</text>
    </g>
    <g>
     <circle stroke="black" stroke-width="0.5" fill="#aaffff" cx="673.0" cy="714.0" r="1.0"/>
     <text stroke="none" x="673.0" y="714.0" font-size="20.0" font-family="helvetica">Shuttleworthia satelles VPI D143K-13) (AF399956)</text>
    </g>
    <g>
     <circle stroke="black" stroke-width="0.5" fill="#aaffff" cx="675.0" cy="633.0" r="1.0"/>
     <text stroke="none" x="675.0" y="633.0" font-size="20.0" font-family="helvetica">Lachnospira pectinoschiza 150-1) (L14875)</text>
    </g>
    <g>
     <circle stroke="black" stroke-width="0.5" fill="#aaffff" cx="687.0" cy="594.0" r="1.0"/>
     <text stroke="none" x="687.0" y="594.0" font-size="20.0" font-family="helvetica">Eubacterium rectale ATCC 33656) (L34627)</text>
    </g>
    <g>
     <circle stroke="black" stroke-width="0.5" fill="#aaffff" cx="689.0" cy="88.0" r="1.0"/>
     <text stroke="none" x="689.0" y="88.0" font-size="20.0" font-family="helvetica">Ruminococcus schinkii Bie 41) (X94964)</text>
    </g>
    <g>
     <circle stroke="black" stroke-width="0.5" fill="#aaffff" cx="690.0" cy="127.0" r="1.0"/>
     <text stroke="none" x="690.0" y="127.0" font-size="20.0" font-family="helvetica">Ruminococcus hydrogenotrophicus s5a33) (X95624)</text>
    </g>
    <g>
     <circle stroke="black" stroke-width="0.5" fill="#aaffff" cx="716.0" cy="10.0" r="1.0"/>
     <text stroke="none" x="716.0" y="10.0" font-size="20.0" font-family="helvetica">Ruminococcus obeum ATCC 29174) (X85101)</text>
    </g>
    <g>
     <circle stroke="black" stroke-width="0.5" fill="#aaffff" cx="739.0" cy="828.0" r="1.0"/>
     <text stroke="none" x="739.0" y="828.0" font-size="20.0" font-family="helvetica">Coprococcus eutactus ATCC 27759) (D14148)</text>
    </g>
    <g>
     <circle stroke="black" stroke-width="0.5" fill="#aaffff" cx="768.0" cy="244.0" r="1.0"/>
     <text stroke="none" x="768.0" y="244.0" font-size="20.0" font-family="helvetica"> Ruminococcus hansenii DSM 20583) (M59114)</text>
    </g>
    <g>
     <circle stroke="black" stroke-width="0.5" fill="#aaffff" cx="784.0" cy="205.0" r="1.0"/>
     <text stroke="none" x="784.0" y="205.0" font-size="10.0" font-family="helvetica">NT1.44</text>
    </g>
    <line stroke="black" x1="716.0" y1="10.0" x2="553.0" y2="31.0" stroke-width="0.5"/>
    <line stroke="black" x1="689.0" y1="88.0" x2="503.0" y2="70.0" stroke-width="0.5"/>
    <line stroke="black" x1="690.0" y1="127.0" x2="455.0" y2="99.0" stroke-width="0.5"/>
    <line stroke="black" x1="548.0" y1="282.0" x2="361.0" y2="216.0" stroke-width="0.5"/>
    <line stroke="black" x1="768.0" y1="244.0" x2="465.0" y2="225.0" stroke-width="0.5"/>
    <line stroke="black" x1="522.0" y1="400.0" x2="395.0" y2="381.0" stroke-width="0.5"/>
    <line stroke="black" x1="536.0" y1="360.0" x2="462.0" y2="343.0" stroke-width="0.5"/>
    <line stroke="black" x1="574.0" y1="324.0" x2="462.0" y2="343.0" stroke-width="0.5"/>
    <line stroke="black" x1="550.0" y1="516.0" x2="326.0" y2="497.0" stroke-width="0.5"/>
    <line stroke="black" x1="193.0" y1="676.0" x2="233.0" y2="676.0" stroke-width="0.5"/>
    <line stroke="black" x1="675.0" y1="633.0" x2="340.0" y2="616.0" stroke-width="0.5"/>
    <line stroke="black" x1="673.0" y1="714.0" x2="350.0" y2="692.0" stroke-width="0.5"/>
    <line stroke="black" x1="670.0" y1="555.0" x2="426.0" y2="576.0" stroke-width="0.5"/>
    <line stroke="black" x1="687.0" y1="594.0" x2="426.0" y2="576.0" stroke-width="0.5"/>
    <line stroke="black" x1="624.0" y1="789.0" x2="378.0" y2="771.0" stroke-width="0.5"/>
    <line stroke="black" x1="739.0" y1="828.0" x2="284.0" y2="809.0" stroke-width="0.5"/>
    <line stroke="black" x1="503.0" y1="70.0" x2="455.0" y2="99.0" stroke-width="0.5"/>
    <line stroke="black" x1="455.0" y1="99.0" x2="402.0" y2="169.0" stroke-width="0.5"/>
    <line stroke="black" x1="402.0" y1="169.0" x2="361.0" y2="216.0" stroke-width="0.5"/>
    <line stroke="black" x1="361.0" y1="216.0" x2="316.0" y2="304.0" stroke-width="0.5"/>
    <line stroke="black" x1="316.0" y1="304.0" x2="295.0" y2="421.0" stroke-width="0.5"/>
    <line stroke="black" x1="316.0" y1="304.0" x2="395.0" y2="381.0" stroke-width="0.5"/>
    <line stroke="black" x1="295.0" y1="421.0" x2="269.0" y2="537.0" stroke-width="0.5"/>
    <line stroke="black" x1="295.0" y1="421.0" x2="326.0" y2="497.0" stroke-width="0.5"/>
    <line stroke="black" x1="395.0" y1="381.0" x2="462.0" y2="343.0" stroke-width="0.5"/>
    <line stroke="black" x1="269.0" y1="537.0" x2="233.0" y2="676.0" stroke-width="0.5"/>
    <line stroke="black" x1="269.0" y1="537.0" x2="293.0" y2="654.0" stroke-width="0.5"/>
    <line stroke="black" x1="293.0" y1="654.0" x2="340.0" y2="616.0" stroke-width="0.5"/>
    <line stroke="black" x1="233.0" y1="676.0" x2="284.0" y2="809.0" stroke-width="0.5"/>
    <line stroke="black" x1="340.0" y1="616.0" x2="426.0" y2="576.0" stroke-width="0.5"/>
    <line stroke="black" x1="617.0" y1="477.0" x2="432.0" y2="460.0" stroke-width="0.5"/>
   </g>
  </g>
 </svg>
</svg>
