<?xml version="1.0" encoding="UTF-8"?>
<svg height="800.0" width="700.0" xmlns="http://www.w3.org/2000/svg">
 <svg>
  <g>
   <g>
    <g>
     <circle stroke="black" stroke-width="0.5" fill="#aaffff" cx="6.0" cy="586.0" r="1.0"/>
     <text stroke="none" x="6.0" y="586.0" font-size="10.0" font-family="helvetica">NT1.1</text>
    </g>
    <g>
     <circle stroke="black" stroke-width="0.5" fill="#aaffff" cx="300.0" cy="1293.0" r="1.0"/>
     <text stroke="none" x="300.0" y="1293.0" font-size="20.0" font-family="helvetica">Moraxella</text>
    </g>
    <g>
     <circle stroke="black" stroke-width="0.5" fill="#aaffff" cx="404.0" cy="484.0" r="1.0"/>
     <text stroke="none" x="404.0" y="484.0" font-size="20.0" font-family="helvetica"/>
    </g>
    <g>
     <circle stroke="black" stroke-width="0.5" fill="#aaffff" cx="427.0" cy="733.0" r="1.0"/>
     <text stroke="none" x="427.0" y="733.0" font-size="10.0" font-family="helvetica">NT1.4</text>
    </g>
    <g>
     <circle stroke="black" stroke-width="0.5" fill="#aaffff" cx="436.0" cy="997.0" r="1.0"/>
     <text stroke="none" x="436.0" y="997.0" font-size="20.0" font-family="helvetica"/>
    </g>
    <g>
     <circle stroke="black" stroke-width="0.5" fill="#aaffff" cx="437.0" cy="960.0" r="1.0"/>
     <text stroke="none" x="437.0" y="960.0" font-size="20.0" font-family="helvetica"/>
    </g>
    <g>
     <circle stroke="black" stroke-width="0.5" fill="#aaffff" cx="479.0" cy="979.0" r="1.0"/>
     <text stroke="none" x="479.0" y="979.0" font-size="20.0" font-family="helvetica">P.</text>
    </g>
    <g>
     <circle stroke="black" stroke-width="0.5" fill="#aaffff" cx="479.0" cy="754.0" r="1.0"/>
     <text stroke="none" x="479.0" y="754.0" font-size="20.0" font-family="helvetica">P.</text>
    </g>
    <g>
     <circle stroke="black" stroke-width="0.5" fill="#aaffff" cx="480.0" cy="1219.0" r="1.0"/>
     <text stroke="none" x="480.0" y="1219.0" font-size="20.0" font-family="helvetica">P.</text>
    </g>
    <g>
     <circle stroke="black" stroke-width="0.5" fill="#aaffff" cx="482.0" cy="979.0" r="1.0"/>
     <text stroke="none" x="482.0" y="979.0" font-size="20.0" font-family="helvetica">0</text>
    </g>
    <g>
     <circle stroke="black" stroke-width="0.5" fill="#aaffff" cx="490.0" cy="960.0" r="1.0"/>
     <text stroke="none" x="490.0" y="960.0" font-size="20.0" font-family="helvetica"/>
    </g>
    <g>
     <circle stroke="black" stroke-width="0.5" fill="#aaffff" cx="490.0" cy="962.0" r="1.0"/>
     <text stroke="none" x="490.0" y="962.0" font-size="20.0" font-family="helvetica">0</text>
    </g>
    <g>
     <circle stroke="black" stroke-width="0.5" fill="#aaffff" cx="491.0" cy="997.0" r="1.0"/>
     <text stroke="none" x="491.0" y="997.0" font-size="20.0" font-family="helvetica"/>
    </g>
    <g>
     <circle stroke="black" stroke-width="0.5" fill="#aaffff" cx="491.0" cy="994.0" r="1.0"/>
     <text stroke="none" x="491.0" y="994.0" font-size="20.0" font-family="helvetica">0</text>
    </g>
    <g>
     <circle stroke="black" stroke-width="0.5" fill="#aaffff" cx="499.0" cy="966.0" r="1.0"/>
     <text stroke="none" x="499.0" y="966.0" font-size="20.0" font-family="helvetica">0</text>
    </g>
    <g>
     <circle stroke="black" stroke-width="0.5" fill="#aaffff" cx="501.0" cy="598.0" r="1.0"/>
     <text stroke="none" x="501.0" y="598.0" font-size="20.0" font-family="helvetica">P.</text>
    </g>
    <g>
     <circle stroke="black" stroke-width="0.5" fill="#aaffff" cx="509.0" cy="677.0" r="1.0"/>
     <text stroke="none" x="509.0" y="677.0" font-size="20.0" font-family="helvetica">P.</text>
    </g>
    <g>
     <circle stroke="black" stroke-width="0.5" fill="#aaffff" cx="511.0" cy="834.0" r="1.0"/>
     <text stroke="none" x="511.0" y="834.0" font-size="20.0" font-family="helvetica"/>
    </g>
    <g>
     <circle stroke="black" stroke-width="0.5" fill="#aaffff" cx="511.0" cy="908.0" r="1.0"/>
     <text stroke="none" x="511.0" y="908.0" font-size="20.0" font-family="helvetica">P.</text>
    </g>
    <g>
     <circle stroke="black" stroke-width="0.5" fill="#aaffff" cx="517.0" cy="523.0" r="1.0"/>
     <text stroke="none" x="517.0" y="523.0" font-size="20.0" font-family="helvetica">P.</text>
    </g>
    <g>
     <circle stroke="black" stroke-width="0.5" fill="#aaffff" cx="522.0" cy="445.0" r="1.0"/>
     <text stroke="none" x="522.0" y="445.0" font-size="20.0" font-family="helvetica">P.</text>
    </g>
    <g>
     <circle stroke="black" stroke-width="0.5" fill="#aaffff" cx="554.0" cy="368.0" r="1.0"/>
     <text stroke="none" x="554.0" y="368.0" font-size="20.0" font-family="helvetica">P.</text>
    </g>
    <g>
     <circle stroke="black" stroke-width="0.5" fill="#aaffff" cx="587.0" cy="214.0" r="1.0"/>
     <text stroke="none" x="587.0" y="214.0" font-size="20.0" font-family="helvetica">P.</text>
    </g>
    <g>
     <circle stroke="black" stroke-width="0.5" fill="#aaffff" cx="667.0" cy="288.0" r="1.0"/>
     <text stroke="none" x="667.0" y="288.0" font-size="20.0" font-family="helvetica">P.</text>
    </g>
    <g>
     <circle stroke="black" stroke-width="0.5" fill="#aaffff" cx="681.0" cy="1142.0" r="1.0"/>
     <text stroke="none" x="681.0" y="1142.0" font-size="20.0" font-family="helvetica">P.</text>
    </g>
    <g>
     <circle stroke="black" stroke-width="0.5" fill="#aaffff" cx="732.0" cy="1062.0" r="1.0"/>
     <text stroke="none" x="732.0" y="1062.0" font-size="20.0" font-family="helvetica">P.</text>
    </g>
    <line stroke="black" x1="427.0" y1="733.0" x2="404.0" y2="484.0" stroke-width="0.5"/>
    <line stroke="black" x1="517.0" y1="523.0" x2="427.0" y2="733.0" stroke-width="0.5"/>
    <line stroke="black" x1="437.0" y1="960.0" x2="427.0" y2="733.0" stroke-width="0.5"/>
    <line stroke="black" x1="436.0" y1="997.0" x2="427.0" y2="733.0" stroke-width="0.5"/>
    <line stroke="black" x1="667.0" y1="288.0" x2="427.0" y2="733.0" stroke-width="0.5"/>
    <line stroke="black" x1="490.0" y1="962.0" x2="490.0" y2="960.0" stroke-width="0.5"/>
    <line stroke="black" x1="479.0" y1="979.0" x2="482.0" y2="979.0" stroke-width="0.5"/>
    <line stroke="black" x1="491.0" y1="997.0" x2="491.0" y2="994.0" stroke-width="0.5"/>
    <line stroke="black" x1="480.0" y1="1219.0" x2="427.0" y2="733.0" stroke-width="0.5"/>
    <line stroke="black" x1="732.0" y1="1062.0" x2="427.0" y2="733.0" stroke-width="0.5"/>
    <line stroke="black" x1="6.0" y1="586.0" x2="427.0" y2="733.0" stroke-width="0.5"/>
    <line stroke="black" x1="427.0" y1="733.0" x2="499.0" y2="966.0" stroke-width="0.5"/>
    <line stroke="black" x1="427.0" y1="733.0" x2="479.0" y2="754.0" stroke-width="0.5"/>
    <line stroke="black" x1="499.0" y1="966.0" x2="491.0" y2="994.0" stroke-width="0.5"/>
    <line stroke="black" x1="499.0" y1="966.0" x2="490.0" y2="962.0" stroke-width="0.5"/>
    <line stroke="black" x1="490.0" y1="962.0" x2="482.0" y2="979.0" stroke-width="0.5"/>
    <line stroke="black" x1="482.0" y1="979.0" x2="491.0" y2="994.0" stroke-width="0.5"/>
    <line stroke="black" x1="300.0" y1="1293.0" x2="6.0" y2="586.0" stroke-width="0.5"/>
    <line stroke="black" x1="501.0" y1="598.0" x2="427.0" y2="733.0" stroke-width="0.5"/>
    <line stroke="black" x1="509.0" y1="677.0" x2="427.0" y2="733.0" stroke-width="0.5"/>
    <line stroke="black" x1="554.0" y1="368.0" x2="427.0" y2="733.0" stroke-width="0.5"/>
    <line stroke="black" x1="511.0" y1="834.0" x2="427.0" y2="733.0" stroke-width="0.5"/>
    <line stroke="black" x1="587.0" y1="214.0" x2="6.0" y2="586.0" stroke-width="0.5"/>
    <line stroke="black" x1="511.0" y1="908.0" x2="427.0" y2="733.0" stroke-width="0.5"/>
    <line stroke="black" x1="522.0" y1="445.0" x2="427.0" y2="733.0" stroke-width="0.5"/>
    <line stroke="black" x1="681.0" y1="1142.0" x2="427.0" y2="733.0" stroke-width="0.5"/>
   </g>
  </g>
 </svg>
</svg>
