<?xml version="1.0" encoding="UTF-8"?>
<svg height="800.0" width="700.0" xmlns="http://www.w3.org/2000/svg">
 <svg>
  <g>
   <g>
    <g>
     <circle stroke="black" stroke-width="0.5" fill="#aaffff" cx="96.0" cy="808.0" r="1.0"/>
     <text stroke="none" x="96.0" y="808.0" font-size="20.0" font-family="helvetica"/>
    </g>
    <g>
     <circle stroke="black" stroke-width="0.5" fill="#aaffff" cx="130.0" cy="871.0" r="1.0"/>
     <text stroke="none" x="130.0" y="871.0" font-size="20.0" font-family="helvetica"/>
    </g>
    <g>
     <circle stroke="black" stroke-width="0.5" fill="#aaffff" cx="130.0" cy="881.0" r="1.0"/>
     <text stroke="none" x="130.0" y="881.0" font-size="10.0" font-family="helvetica">NT1.3</text>
    </g>
    <g>
     <circle stroke="black" stroke-width="0.5" fill="#aaffff" cx="165.0" cy="903.0" r="1.0"/>
     <text stroke="none" x="165.0" y="903.0" font-size="20.0" font-family="helvetica"/>
    </g>
    <g>
     <circle stroke="black" stroke-width="0.5" fill="#aaffff" cx="197.0" cy="879.0" r="1.0"/>
     <text stroke="none" x="197.0" y="879.0" font-size="10.0" font-family="helvetica">NT1.5</text>
    </g>
    <g>
     <circle stroke="black" stroke-width="0.5" fill="#aaffff" cx="209.0" cy="898.0" r="1.0"/>
     <text stroke="none" x="209.0" y="898.0" font-size="20.0" font-family="helvetica"/>
    </g>
    <g>
     <circle stroke="black" stroke-width="0.5" fill="#aaffff" cx="253.0" cy="860.0" r="1.0"/>
     <text stroke="none" x="253.0" y="860.0" font-size="20.0" font-family="helvetica"/>
    </g>
    <line stroke="black" x1="130.0" y1="871.0" x2="130.0" y2="881.0" stroke-width="0.5"/>
    <line stroke="black" x1="165.0" y1="903.0" x2="197.0" y2="879.0" stroke-width="0.5"/>
    <line stroke="black" x1="209.0" y1="898.0" x2="197.0" y2="879.0" stroke-width="0.5"/>
    <line stroke="black" x1="197.0" y1="879.0" x2="253.0" y2="860.0" stroke-width="0.5"/>
    <line stroke="black" x1="130.0" y1="881.0" x2="197.0" y2="879.0" stroke-width="0.5"/>
    <line stroke="black" x1="197.0" y1="879.0" x2="197.0" y2="879.0" stroke-width="0.5"/>
    <line stroke="black" x1="197.0" y1="879.0" x2="197.0" y2="879.0" stroke-width="0.5"/>
    <line stroke="black" x1="197.0" y1="879.0" x2="197.0" y2="879.0" stroke-width="0.5"/>
    <line stroke="black" x1="197.0" y1="879.0" x2="197.0" y2="879.0" stroke-width="0.5"/>
    <line stroke="black" x1="197.0" y1="879.0" x2="197.0" y2="879.0" stroke-width="0.5"/>
    <line stroke="black" x1="197.0" y1="879.0" x2="197.0" y2="879.0" stroke-width="0.5"/>
    <line stroke="black" x1="197.0" y1="879.0" x2="197.0" y2="879.0" stroke-width="0.5"/>
    <line stroke="black" x1="197.0" y1="879.0" x2="197.0" y2="879.0" stroke-width="0.5"/>
    <line stroke="black" x1="96.0" y1="808.0" x2="130.0" y2="881.0" stroke-width="0.5"/>
   </g>
  </g>
 </svg>
</svg>
