<?xml version="1.0" encoding="UTF-8"?>
<svg height="800.0" width="700.0" xmlns="http://www.w3.org/2000/svg">
 <svg>
  <g>
   <g>
    <g>
     <circle stroke="black" stroke-width="0.5" fill="#aaffff" cx="102.0" cy="242.0" r="1.0"/>
     <text stroke="none" x="102.0" y="242.0" font-size="10.0" font-family="helvetica">NT1.1</text>
    </g>
    <g>
     <circle stroke="black" stroke-width="0.5" fill="#aaffff" cx="132.0" cy="383.0" r="1.0"/>
     <text stroke="none" x="132.0" y="383.0" font-size="10.0" font-family="helvetica">NT1.2</text>
    </g>
    <g>
     <circle stroke="black" stroke-width="0.5" fill="#aaffff" cx="164.0" cy="102.0" r="1.0"/>
     <text stroke="none" x="164.0" y="102.0" font-size="10.0" font-family="helvetica">NT1.3</text>
    </g>
    <g>
     <circle stroke="black" stroke-width="0.5" fill="#aaffff" cx="180.0" cy="532.0" r="1.0"/>
     <text stroke="none" x="180.0" y="532.0" font-size="10.0" font-family="helvetica">NT1.4</text>
    </g>
    <g>
     <circle stroke="black" stroke-width="0.5" fill="#aaffff" cx="193.0" cy="687.0" r="1.0"/>
     <text stroke="none" x="193.0" y="687.0" font-size="10.0" font-family="helvetica">NT1.5</text>
    </g>
    <g>
     <circle stroke="black" stroke-width="0.5" fill="#aaffff" cx="206.0" cy="377.0" r="1.0"/>
     <text stroke="none" x="206.0" y="377.0" font-size="10.0" font-family="helvetica">NT1.6</text>
    </g>
    <g>
     <circle stroke="black" stroke-width="0.5" fill="#aaffff" cx="209.0" cy="127.0" r="1.0"/>
     <text stroke="none" x="209.0" y="127.0" font-size="10.0" font-family="helvetica">NT1.7</text>
    </g>
    <g>
     <circle stroke="black" stroke-width="0.5" fill="#aaffff" cx="210.0" cy="757.0" r="1.0"/>
     <text stroke="none" x="210.0" y="757.0" font-size="10.0" font-family="helvetica">NT1.8</text>
    </g>
    <g>
     <circle stroke="black" stroke-width="0.5" fill="#aaffff" cx="235.0" cy="465.0" r="1.0"/>
     <text stroke="none" x="235.0" y="465.0" font-size="10.0" font-family="helvetica">NT1.9</text>
    </g>
    <g>
     <circle stroke="black" stroke-width="0.5" fill="#aaffff" cx="254.0" cy="170.0" r="1.0"/>
     <text stroke="none" x="254.0" y="170.0" font-size="10.0" font-family="helvetica">NT1.10</text>
    </g>
    <g>
     <circle stroke="black" stroke-width="0.5" fill="#aaffff" cx="264.0" cy="833.0" r="1.0"/>
     <text stroke="none" x="264.0" y="833.0" font-size="10.0" font-family="helvetica">NT1.11</text>
    </g>
    <g>
     <circle stroke="black" stroke-width="0.5" fill="#aaffff" cx="269.0" cy="682.0" r="1.0"/>
     <text stroke="none" x="269.0" y="682.0" font-size="10.0" font-family="helvetica">NT1.12</text>
    </g>
    <g>
     <circle stroke="black" stroke-width="0.5" fill="#aaffff" cx="280.0" cy="899.0" r="1.0"/>
     <text stroke="none" x="280.0" y="899.0" font-size="10.0" font-family="helvetica">NT1.13</text>
    </g>
    <g>
     <circle stroke="black" stroke-width="0.5" fill="#aaffff" cx="301.0" cy="106.0" r="1.0"/>
     <text stroke="none" x="301.0" y="106.0" font-size="20.0" font-family="helvetica">Mesorhizobium huakuii IAM 14158 (D12797)</text>
    </g>
    <g>
     <circle stroke="black" stroke-width="0.5" fill="#aaffff" cx="305.0" cy="521.0" r="1.0"/>
     <text stroke="none" x="305.0" y="521.0" font-size="10.0" font-family="helvetica">NT1.15</text>
    </g>
    <g>
     <circle stroke="black" stroke-width="0.5" fill="#aaffff" cx="311.0" cy="310.0" r="1.0"/>
     <text stroke="none" x="311.0" y="310.0" font-size="10.0" font-family="helvetica">NT1.16</text>
    </g>
    <g>
     <circle stroke="black" stroke-width="0.5" fill="#aaffff" cx="326.0" cy="852.0" r="1.0"/>
     <text stroke="none" x="326.0" y="852.0" font-size="10.0" font-family="helvetica">NT1.17</text>
    </g>
    <g>
     <circle stroke="black" stroke-width="0.5" fill="#aaffff" cx="331.0" cy="341.0" r="1.0"/>
     <text stroke="none" x="331.0" y="341.0" font-size="10.0" font-family="helvetica">NT1.18</text>
    </g>
    <g>
     <circle stroke="black" stroke-width="0.5" fill="#aaffff" cx="339.0" cy="979.0" r="1.0"/>
     <text stroke="none" x="339.0" y="979.0" font-size="10.0" font-family="helvetica">NT1.19</text>
    </g>
    <g>
     <circle stroke="black" stroke-width="0.5" fill="#aaffff" cx="367.0" cy="553.0" r="1.0"/>
     <text stroke="none" x="367.0" y="553.0" font-size="10.0" font-family="helvetica">NT1.20</text>
    </g>
    <g>
     <circle stroke="black" stroke-width="0.5" fill="#aaffff" cx="369.0" cy="404.0" r="1.0"/>
     <text stroke="none" x="369.0" y="404.0" font-size="20.0" font-family="helvetica">Mycoplana dimorpha IAM 13154 (D12786)</text>
    </g>
    <g>
     <circle stroke="black" stroke-width="0.5" fill="#aaffff" cx="372.0" cy="192.0" r="1.0"/>
     <text stroke="none" x="372.0" y="192.0" font-size="20.0" font-family="helvetica"/>
    </g>
    <g>
     <circle stroke="black" stroke-width="0.5" fill="#aaffff" cx="380.0" cy="447.0" r="1.0"/>
     <text stroke="none" x="380.0" y="447.0" font-size="20.0" font-family="helvetica">Mycoplana ramosa DSM 72927 (EU022308)</text>
    </g>
    <g>
     <circle stroke="black" stroke-width="0.5" fill="#aaffff" cx="386.0" cy="618.0" r="1.0"/>
     <text stroke="none" x="386.0" y="618.0" font-size="20.0" font-family="helvetica">Sinorhizobium terangae LMG 78347 (X68388)</text>
    </g>
    <g>
     <circle stroke="black" stroke-width="0.5" fill="#aaffff" cx="387.0" cy="64.0" r="1.0"/>
     <text stroke="none" x="387.0" y="64.0" font-size="20.0" font-family="helvetica">Phyllobacterium myrsinacearum IAM 13584 (D12789)</text>
    </g>
    <g>
     <circle stroke="black" stroke-width="0.5" fill="#aaffff" cx="410.0" cy="234.0" r="1.0"/>
     <text stroke="none" x="410.0" y="234.0" font-size="20.0" font-family="helvetica">Bartonella bacilliformis ATCC 356857 (Z11683)</text>
    </g>
    <g>
     <circle stroke="black" stroke-width="0.5" fill="#aaffff" cx="411.0" cy="660.0" r="1.0"/>
     <text stroke="none" x="411.0" y="660.0" font-size="20.0" font-family="helvetica"/>
    </g>
    <g>
     <circle stroke="black" stroke-width="0.5" fill="#aaffff" cx="421.0" cy="319.0" r="1.0"/>
     <text stroke="none" x="421.0" y="319.0" font-size="20.0" font-family="helvetica">MS47 (AB285481)</text>
    </g>
    <g>
     <circle stroke="black" stroke-width="0.5" fill="#aaffff" cx="430.0" cy="362.0" r="1.0"/>
     <text stroke="none" x="430.0" y="362.0" font-size="20.0" font-family="helvetica"/>
    </g>
    <g>
     <circle stroke="black" stroke-width="0.5" fill="#aaffff" cx="442.0" cy="767.0" r="1.0"/>
     <text stroke="none" x="442.0" y="767.0" font-size="10.0" font-family="helvetica">NT1.30</text>
    </g>
    <g>
     <circle stroke="black" stroke-width="0.5" fill="#aaffff" cx="451.0" cy="277.0" r="1.0"/>
     <text stroke="none" x="451.0" y="277.0" font-size="20.0" font-family="helvetica"/>
    </g>
    <g>
     <circle stroke="black" stroke-width="0.5" fill="#aaffff" cx="452.0" cy="575.0" r="1.0"/>
     <text stroke="none" x="452.0" y="575.0" font-size="20.0" font-family="helvetica">Ochrobactrum anthropi IAM 14119 (D12794)</text>
    </g>
    <g>
     <circle stroke="black" stroke-width="0.5" fill="#aaffff" cx="455.0" cy="1001.0" r="1.0"/>
     <text stroke="none" x="455.0" y="1001.0" font-size="20.0" font-family="helvetica">Agrobacterium tumefaciens NCPPB 24377 (D14500)</text>
    </g>
    <g>
     <circle stroke="black" stroke-width="0.5" fill="#aaffff" cx="457.0" cy="490.0" r="1.0"/>
     <text stroke="none" x="457.0" y="490.0" font-size="20.0" font-family="helvetica">Daeguia caeni K1077 (EF532794)</text>
    </g>
    <g>
     <circle stroke="black" stroke-width="0.5" fill="#aaffff" cx="461.0" cy="149.0" r="1.0"/>
     <text stroke="none" x="461.0" y="149.0" font-size="20.0" font-family="helvetica"/>
    </g>
    <g>
     <circle stroke="black" stroke-width="0.5" fill="#aaffff" cx="461.0" cy="745.0" r="1.0"/>
     <text stroke="none" x="461.0" y="745.0" font-size="20.0" font-family="helvetica"/>
    </g>
    <g>
     <circle stroke="black" stroke-width="0.5" fill="#aaffff" cx="462.0" cy="788.0" r="1.0"/>
     <text stroke="none" x="462.0" y="788.0" font-size="20.0" font-family="helvetica"> Rhizobium huautlense SO27 (AF025852)</text>
    </g>
    <g>
     <circle stroke="black" stroke-width="0.5" fill="#aaffff" cx="477.0" cy="873.0" r="1.0"/>
     <text stroke="none" x="477.0" y="873.0" font-size="20.0" font-family="helvetica">Mycoplana peli AN343 (EU256383)</text>
    </g>
    <g>
     <circle stroke="black" stroke-width="0.5" fill="#aaffff" cx="481.0" cy="703.0" r="1.0"/>
     <text stroke="none" x="481.0" y="703.0" font-size="20.0" font-family="helvetica">Rhizobium hainanense I667 (U71078)</text>
    </g>
    <g>
     <circle stroke="black" stroke-width="0.5" fill="#aaffff" cx="484.0" cy="958.0" r="1.0"/>
     <text stroke="none" x="484.0" y="958.0" font-size="20.0" font-family="helvetica">Agrobacterium Iarrymoorei AF3.107 (Z30542)</text>
    </g>
    <g>
     <circle stroke="black" stroke-width="0.5" fill="#aaffff" cx="495.0" cy="532.0" r="1.0"/>
     <text stroke="none" x="495.0" y="532.0" font-size="20.0" font-family="helvetica">Brucella aborius 11-19 (X13695)</text>
    </g>
    <g>
     <circle stroke="black" stroke-width="0.5" fill="#aaffff" cx="555.0" cy="21.0" r="1.0"/>
     <text stroke="none" x="555.0" y="21.0" font-size="20.0" font-family="helvetica">Sphingomonas mucosissima CP173-27 (AM229669)</text>
    </g>
    <g>
     <circle stroke="black" stroke-width="0.5" fill="#aaffff" cx="579.0" cy="830.0" r="1.0"/>
     <text stroke="none" x="579.0" y="830.0" font-size="20.0" font-family="helvetica">Rhizobium undicola LMG 118757 (Y17047)</text>
    </g>
    <g>
     <circle stroke="black" stroke-width="0.5" fill="#aaffff" cx="673.0" cy="916.0" r="1.0"/>
     <text stroke="none" x="673.0" y="916.0" font-size="20.0" font-family="helvetica"/>
    </g>
    <line stroke="black" x1="301.0" y1="106.0" x2="209.0" y2="127.0" stroke-width="0.5"/>
    <line stroke="black" x1="387.0" y1="64.0" x2="164.0" y2="102.0" stroke-width="0.5"/>
    <line stroke="black" x1="372.0" y1="192.0" x2="254.0" y2="170.0" stroke-width="0.5"/>
    <line stroke="black" x1="461.0" y1="149.0" x2="254.0" y2="170.0" stroke-width="0.5"/>
    <line stroke="black" x1="410.0" y1="234.0" x2="132.0" y2="383.0" stroke-width="0.5"/>
    <line stroke="black" x1="369.0" y1="404.0" x2="235.0" y2="465.0" stroke-width="0.5"/>
    <line stroke="black" x1="380.0" y1="447.0" x2="235.0" y2="465.0" stroke-width="0.5"/>
    <line stroke="black" x1="421.0" y1="319.0" x2="331.0" y2="341.0" stroke-width="0.5"/>
    <line stroke="black" x1="451.0" y1="277.0" x2="311.0" y2="310.0" stroke-width="0.5"/>
    <line stroke="black" x1="411.0" y1="660.0" x2="269.0" y2="682.0" stroke-width="0.5"/>
    <line stroke="black" x1="495.0" y1="532.0" x2="367.0" y2="553.0" stroke-width="0.5"/>
    <line stroke="black" x1="461.0" y1="745.0" x2="442.0" y2="767.0" stroke-width="0.5"/>
    <line stroke="black" x1="462.0" y1="788.0" x2="442.0" y2="767.0" stroke-width="0.5"/>
    <line stroke="black" x1="477.0" y1="873.0" x2="326.0" y2="852.0" stroke-width="0.5"/>
    <line stroke="black" x1="455.0" y1="1001.0" x2="339.0" y2="979.0" stroke-width="0.5"/>
    <line stroke="black" x1="484.0" y1="958.0" x2="339.0" y2="979.0" stroke-width="0.5"/>
    <line stroke="black" x1="579.0" y1="830.0" x2="326.0" y2="852.0" stroke-width="0.5"/>
    <line stroke="black" x1="673.0" y1="916.0" x2="339.0" y2="979.0" stroke-width="0.5"/>
    <line stroke="black" x1="102.0" y1="242.0" x2="132.0" y2="383.0" stroke-width="0.5"/>
    <line stroke="black" x1="102.0" y1="242.0" x2="164.0" y2="102.0" stroke-width="0.5"/>
    <line stroke="black" x1="132.0" y1="383.0" x2="180.0" y2="532.0" stroke-width="0.5"/>
    <line stroke="black" x1="164.0" y1="102.0" x2="209.0" y2="127.0" stroke-width="0.5"/>
    <line stroke="black" x1="209.0" y1="127.0" x2="254.0" y2="170.0" stroke-width="0.5"/>
    <line stroke="black" x1="180.0" y1="532.0" x2="193.0" y2="687.0" stroke-width="0.5"/>
    <line stroke="black" x1="193.0" y1="687.0" x2="210.0" y2="757.0" stroke-width="0.5"/>
    <line stroke="black" x1="206.0" y1="377.0" x2="235.0" y2="465.0" stroke-width="0.5"/>
    <line stroke="black" x1="206.0" y1="377.0" x2="311.0" y2="310.0" stroke-width="0.5"/>
    <line stroke="black" x1="210.0" y1="757.0" x2="269.0" y2="682.0" stroke-width="0.5"/>
    <line stroke="black" x1="210.0" y1="757.0" x2="264.0" y2="833.0" stroke-width="0.5"/>
    <line stroke="black" x1="235.0" y1="465.0" x2="305.0" y2="521.0" stroke-width="0.5"/>
    <line stroke="black" x1="311.0" y1="310.0" x2="331.0" y2="341.0" stroke-width="0.5"/>
    <line stroke="black" x1="264.0" y1="833.0" x2="280.0" y2="899.0" stroke-width="0.5"/>
    <line stroke="black" x1="305.0" y1="521.0" x2="367.0" y2="553.0" stroke-width="0.5"/>
    <line stroke="black" x1="280.0" y1="899.0" x2="339.0" y2="979.0" stroke-width="0.5"/>
    <line stroke="black" x1="280.0" y1="899.0" x2="326.0" y2="852.0" stroke-width="0.5"/>
    <line stroke="black" x1="555.0" y1="21.0" x2="102.0" y2="242.0" stroke-width="0.5"/>
    <line stroke="black" x1="180.0" y1="532.0" x2="206.0" y2="377.0" stroke-width="0.5"/>
    <line stroke="black" x1="386.0" y1="618.0" x2="193.0" y2="687.0" stroke-width="0.5"/>
    <line stroke="black" x1="264.0" y1="833.0" x2="442.0" y2="767.0" stroke-width="0.5"/>
    <line stroke="black" x1="481.0" y1="703.0" x2="269.0" y2="682.0" stroke-width="0.5"/>
    <line stroke="black" x1="457.0" y1="490.0" x2="305.0" y2="521.0" stroke-width="0.5"/>
    <line stroke="black" x1="430.0" y1="362.0" x2="331.0" y2="341.0" stroke-width="0.5"/>
    <line stroke="black" x1="452.0" y1="575.0" x2="367.0" y2="553.0" stroke-width="0.5"/>
   </g>
  </g>
 </svg>
</svg>
