<?xml version="1.0" encoding="UTF-8"?>
<svg height="800.0" width="700.0" xmlns="http://www.w3.org/2000/svg">
 <svg>
  <g>
   <g>
    <g>
     <circle stroke="black" stroke-width="0.5" fill="#aaffff" cx="192.0" cy="244.0" r="1.0"/>
     <text stroke="none" x="192.0" y="244.0" font-size="10.0" font-family="helvetica">NT1.1</text>
    </g>
    <g>
     <circle stroke="black" stroke-width="0.5" fill="#aaffff" cx="273.0" cy="206.0" r="1.0"/>
     <text stroke="none" x="273.0" y="206.0" font-size="10.0" font-family="helvetica">NT1.2</text>
    </g>
    <g>
     <circle stroke="black" stroke-width="0.5" fill="#aaffff" cx="284.0" cy="168.0" r="1.0"/>
     <text stroke="none" x="284.0" y="168.0" font-size="10.0" font-family="helvetica">NT1.3</text>
    </g>
    <g>
     <circle stroke="black" stroke-width="0.5" fill="#aaffff" cx="293.0" cy="132.0" r="1.0"/>
     <text stroke="none" x="293.0" y="132.0" font-size="10.0" font-family="helvetica">NT1.4</text>
    </g>
    <g>
     <circle stroke="black" stroke-width="0.5" fill="#aaffff" cx="316.0" cy="98.0" r="1.0"/>
     <text stroke="none" x="316.0" y="98.0" font-size="10.0" font-family="helvetica">NT1.5</text>
    </g>
    <g>
     <circle stroke="black" stroke-width="0.5" fill="#aaffff" cx="363.0" cy="282.0" r="1.0"/>
     <text stroke="none" x="363.0" y="282.0" font-size="20.0" font-family="helvetica">Kineosporia rhamnosa I-1327 (ABOO3935)</text>
    </g>
    <g>
     <circle stroke="black" stroke-width="0.5" fill="#aaffff" cx="363.0" cy="69.0" r="1.0"/>
     <text stroke="none" x="363.0" y="69.0" font-size="20.0" font-family="helvetica">62</text>
    </g>
    <g>
     <circle stroke="black" stroke-width="0.5" fill="#aaffff" cx="385.0" cy="243.0" r="1.0"/>
     <text stroke="none" x="385.0" y="243.0" font-size="20.0" font-family="helvetica">Kineosporia mesophila YIM 652937 (FJ214362)</text>
    </g>
    <g>
     <circle stroke="black" stroke-width="0.5" fill="#aaffff" cx="419.0" cy="127.0" r="1.0"/>
     <text stroke="none" x="419.0" y="127.0" font-size="10.0" font-family="helvetica">NT1.9</text>
    </g>
    <g>
     <circle stroke="black" stroke-width="0.5" fill="#aaffff" cx="434.0" cy="166.0" r="1.0"/>
     <text stroke="none" x="434.0" y="166.0" font-size="20.0" font-family="helvetica">Kineosporia succinea I-2737 (ABOO3932)</text>
    </g>
    <g>
     <circle stroke="black" stroke-width="0.5" fill="#aaffff" cx="487.0" cy="49.0" r="1.0"/>
     <text stroke="none" x="487.0" y="49.0" font-size="10.0" font-family="helvetica">NT1.11</text>
    </g>
    <g>
     <circle stroke="black" stroke-width="0.5" fill="#aaffff" cx="505.0" cy="204.0" r="1.0"/>
     <text stroke="none" x="505.0" y="204.0" font-size="20.0" font-family="helvetica">Kineosporia aurantiaca JCM 323OT (ABOO3931)</text>
    </g>
    <g>
     <circle stroke="black" stroke-width="0.5" fill="#aaffff" cx="565.0" cy="88.0" r="1.0"/>
     <text stroke="none" x="565.0" y="88.0" font-size="20.0" font-family="helvetica">Kineosporia rhizophila I-449T (ABOO3933)</text>
    </g>
    <g>
     <circle stroke="black" stroke-width="0.5" fill="#aaffff" cx="566.0" cy="321.0" r="1.0"/>
     <text stroke="none" x="566.0" y="321.0" font-size="20.0" font-family="helvetica">Kineococcus aurantiacus NBRC 152687 (ABOO7420)</text>
    </g>
    <g>
     <circle stroke="black" stroke-width="0.5" fill="#aaffff" cx="5.0" cy="282.0" r="1.0"/>
     <text stroke="none" x="5.0" y="282.0" font-size="10.0" font-family="helvetica">NT1.15</text>
    </g>
    <line stroke="black" x1="565.0" y1="88.0" x2="363.0" y2="69.0" stroke-width="0.5"/>
    <line stroke="black" x1="434.0" y1="166.0" x2="293.0" y2="132.0" stroke-width="0.5"/>
    <line stroke="black" x1="385.0" y1="243.0" x2="273.0" y2="206.0" stroke-width="0.5"/>
    <line stroke="black" x1="363.0" y1="282.0" x2="192.0" y2="244.0" stroke-width="0.5"/>
    <line stroke="black" x1="293.0" y1="132.0" x2="284.0" y2="168.0" stroke-width="0.5"/>
    <line stroke="black" x1="284.0" y1="168.0" x2="273.0" y2="206.0" stroke-width="0.5"/>
    <line stroke="black" x1="273.0" y1="206.0" x2="192.0" y2="244.0" stroke-width="0.5"/>
    <line stroke="black" x1="5.0" y1="282.0" x2="566.0" y2="321.0" stroke-width="0.5"/>
    <line stroke="black" x1="5.0" y1="282.0" x2="192.0" y2="244.0" stroke-width="0.5"/>
    <line stroke="black" x1="505.0" y1="204.0" x2="284.0" y2="168.0" stroke-width="0.5"/>
   </g>
  </g>
 </svg>
</svg>
