<?xml version="1.0" encoding="UTF-8"?>
<svg height="800.0" width="700.0" xmlns="http://www.w3.org/2000/svg">
 <svg>
  <g>
   <g>
    <g>
     <circle stroke="black" stroke-width="0.5" fill="#aaffff" cx="236.0" cy="1020.0" r="1.0"/>
     <text stroke="none" x="236.0" y="1020.0" font-size="10.0" font-family="helvetica">NT1.1</text>
    </g>
    <g>
     <circle stroke="black" stroke-width="0.5" fill="#aaffff" cx="237.0" cy="1072.0" r="1.0"/>
     <text stroke="none" x="237.0" y="1072.0" font-size="20.0" font-family="helvetica">Paenibacillus polymyxa DSM 367 (AJ3204Q3)</text>
    </g>
    <g>
     <circle stroke="black" stroke-width="0.5" fill="#aaffff" cx="276.0" cy="986.0" r="1.0"/>
     <text stroke="none" x="276.0" y="986.0" font-size="10.0" font-family="helvetica">NT1.3</text>
    </g>
    <g>
     <circle stroke="black" stroke-width="0.5" fill="#aaffff" cx="346.0" cy="952.0" r="1.0"/>
     <text stroke="none" x="346.0" y="952.0" font-size="10.0" font-family="helvetica">NT1.4</text>
    </g>
    <g>
     <circle stroke="black" stroke-width="0.5" fill="#aaffff" cx="377.0" cy="883.0" r="1.0"/>
     <text stroke="none" x="377.0" y="883.0" font-size="10.0" font-family="helvetica">NT1.5</text>
    </g>
    <g>
     <circle stroke="black" stroke-width="0.5" fill="#aaffff" cx="388.0" cy="970.0" r="1.0"/>
     <text stroke="none" x="388.0" y="970.0" font-size="20.0" font-family="helvetica">Bacillus circulans ATCC 45137 (AY724690)</text>
    </g>
    <g>
     <circle stroke="black" stroke-width="0.5" fill="#aaffff" cx="429.0" cy="1038.0" r="1.0"/>
     <text stroke="none" x="429.0" y="1038.0" font-size="20.0" font-family="helvetica">Bacillus insolitus DSM 57 (AM980508)</text>
    </g>
    <g>
     <circle stroke="black" stroke-width="0.5" fill="#aaffff" cx="430.0" cy="1005.0" r="1.0"/>
     <text stroke="none" x="430.0" y="1005.0" font-size="20.0" font-family="helvetica">Bacillus cohnii DSM 63O7T (X76437)</text>
    </g>
    <g>
     <circle stroke="black" stroke-width="0.5" fill="#aaffff" cx="433.0" cy="917.0" r="1.0"/>
     <text stroke="none" x="433.0" y="917.0" font-size="10.0" font-family="helvetica">NT1.9</text>
    </g>
    <g>
     <circle stroke="black" stroke-width="0.5" fill="#aaffff" cx="445.0" cy="849.0" r="1.0"/>
     <text stroke="none" x="445.0" y="849.0" font-size="10.0" font-family="helvetica">NT1.10</text>
    </g>
    <g>
     <circle stroke="black" stroke-width="0.5" fill="#aaffff" cx="479.0" cy="936.0" r="1.0"/>
     <text stroke="none" x="479.0" y="936.0" font-size="20.0" font-family="helvetica">Bacillus novalis LMG 21837T (AJ542512)</text>
    </g>
    <g>
     <circle stroke="black" stroke-width="0.5" fill="#aaffff" cx="487.0" cy="901.0" r="1.0"/>
     <text stroke="none" x="487.0" y="901.0" font-size="20.0" font-family="helvetica">Bacillus niacini IFO 15566T(AB021194)</text>
    </g>
    <g>
     <circle stroke="black" stroke-width="0.5" fill="#aaffff" cx="501.0" cy="815.0" r="1.0"/>
     <text stroke="none" x="501.0" y="815.0" font-size="10.0" font-family="helvetica">NT1.13</text>
    </g>
    <g>
     <circle stroke="black" stroke-width="0.5" fill="#aaffff" cx="514.0" cy="867.0" r="1.0"/>
     <text stroke="none" x="514.0" y="867.0" font-size="20.0" font-family="helvetica">Bacillus firmus IAM 12464T(D16268)</text>
    </g>
    <g>
     <circle stroke="black" stroke-width="0.5" fill="#aaffff" cx="647.0" cy="611.0" r="1.0"/>
     <text stroke="none" x="647.0" y="611.0" font-size="10.0" font-family="helvetica">NT1.15</text>
    </g>
    <g>
     <circle stroke="black" stroke-width="0.5" fill="#aaffff" cx="655.0" cy="833.0" r="1.0"/>
     <text stroke="none" x="655.0" y="833.0" font-size="20.0" font-family="helvetica">Bacillus subtilis DSM 1OT (AJ276351)</text>
    </g>
    <g>
     <circle stroke="black" stroke-width="0.5" fill="#aaffff" cx="694.0" cy="712.0" r="1.0"/>
     <text stroke="none" x="694.0" y="712.0" font-size="10.0" font-family="helvetica">NT1.17</text>
    </g>
    <g>
     <circle stroke="black" stroke-width="0.5" fill="#aaffff" cx="698.0" cy="542.0" r="1.0"/>
     <text stroke="none" x="698.0" y="542.0" font-size="10.0" font-family="helvetica">NT1.18</text>
    </g>
    <g>
     <circle stroke="black" stroke-width="0.5" fill="#aaffff" cx="706.0" cy="372.0" r="1.0"/>
     <text stroke="none" x="706.0" y="372.0" font-size="10.0" font-family="helvetica">NT1.19</text>
    </g>
    <g>
     <circle stroke="black" stroke-width="0.5" fill="#aaffff" cx="729.0" cy="485.0" r="1.0"/>
     <text stroke="none" x="729.0" y="485.0" font-size="10.0" font-family="helvetica">NT1.20</text>
    </g>
    <g>
     <circle stroke="black" stroke-width="0.5" fill="#aaffff" cx="732.0" cy="679.0" r="1.0"/>
     <text stroke="none" x="732.0" y="679.0" font-size="10.0" font-family="helvetica">NT1.21</text>
    </g>
    <g>
     <circle stroke="black" stroke-width="0.5" fill="#aaffff" cx="744.0" cy="575.0" r="1.0"/>
     <text stroke="none" x="744.0" y="575.0" font-size="10.0" font-family="helvetica">NT1.22</text>
    </g>
    <g>
     <circle stroke="black" stroke-width="0.5" fill="#aaffff" cx="758.0" cy="440.0" r="1.0"/>
     <text stroke="none" x="758.0" y="440.0" font-size="10.0" font-family="helvetica">NT1.23</text>
    </g>
    <g>
     <circle stroke="black" stroke-width="0.5" fill="#aaffff" cx="762.0" cy="303.0" r="1.0"/>
     <text stroke="none" x="762.0" y="303.0" font-size="10.0" font-family="helvetica">NT1.24</text>
    </g>
    <g>
     <circle stroke="black" stroke-width="0.5" fill="#aaffff" cx="773.0" cy="780.0" r="1.0"/>
     <text stroke="none" x="773.0" y="780.0" font-size="10.0" font-family="helvetica">NT1.25</text>
    </g>
    <g>
     <circle stroke="black" stroke-width="0.5" fill="#aaffff" cx="792.0" cy="747.0" r="1.0"/>
     <text stroke="none" x="792.0" y="747.0" font-size="10.0" font-family="helvetica">NT1.26</text>
    </g>
    <g>
     <circle stroke="black" stroke-width="0.5" fill="#aaffff" cx="793.0" cy="799.0" r="1.0"/>
     <text stroke="none" x="793.0" y="799.0" font-size="20.0" font-family="helvetica">Halobacillus locisalis MSS-155T (AY1 90534)</text>
    </g>
    <g>
     <circle stroke="black" stroke-width="0.5" fill="#aaffff" cx="795.0" cy="491.0" r="1.0"/>
     <text stroke="none" x="795.0" y="491.0" font-size="20.0" font-family="helvetica">Virgibacillus marismortui 1 23T (AJ009793)</text>
    </g>
    <g>
     <circle stroke="black" stroke-width="0.5" fill="#aaffff" cx="811.0" cy="458.0" r="1.0"/>
     <text stroke="none" x="811.0" y="458.0" font-size="20.0" font-family="helvetica">Virgibacillus halodenitrificans DSM 10037T (AY543169)</text>
    </g>
    <g>
     <circle stroke="black" stroke-width="0.5" fill="#aaffff" cx="813.0" cy="560.0" r="1.0"/>
     <text stroke="none" x="813.0" y="560.0" font-size="20.0" font-family="helvetica">Virgibacillus pantothenticus IAM 1 1061 T (D16275)</text>
    </g>
    <g>
     <circle stroke="black" stroke-width="0.5" fill="#aaffff" cx="813.0" cy="765.0" r="1.0"/>
     <text stroke="none" x="813.0" y="765.0" font-size="20.0" font-family="helvetica">Halobacillus trueperi DSM 10404T(AJ310149)</text>
    </g>
    <g>
     <circle stroke="black" stroke-width="0.5" fill="#aaffff" cx="813.0" cy="200.0" r="1.0"/>
     <text stroke="none" x="813.0" y="200.0" font-size="10.0" font-family="helvetica">NT1.32</text>
    </g>
    <g>
     <circle stroke="black" stroke-width="0.5" fill="#aaffff" cx="822.0" cy="594.0" r="1.0"/>
     <text stroke="none" x="822.0" y="594.0" font-size="20.0" font-family="helvetica">Virgibacillus proomii LMG 1 237OT (AJ01 2667)</text>
    </g>
    <g>
     <circle stroke="black" stroke-width="0.5" fill="#aaffff" cx="822.0" cy="339.0" r="1.0"/>
     <text stroke="none" x="822.0" y="339.0" font-size="10.0" font-family="helvetica">NT1.34</text>
    </g>
    <g>
     <circle stroke="black" stroke-width="0.5" fill="#aaffff" cx="824.0" cy="730.0" r="1.0"/>
     <text stroke="none" x="824.0" y="730.0" font-size="20.0" font-family="helvetica">Halobacillus litoralis SL-4T (X94558)</text>
    </g>
    <g>
     <circle stroke="black" stroke-width="0.5" fill="#aaffff" cx="833.0" cy="267.0" r="1.0"/>
     <text stroke="none" x="833.0" y="267.0" font-size="10.0" font-family="helvetica">NT1.36</text>
    </g>
    <g>
     <circle stroke="black" stroke-width="0.5" fill="#aaffff" cx="834.0" cy="166.0" r="1.0"/>
     <text stroke="none" x="834.0" y="166.0" font-size="10.0" font-family="helvetica">NT1.37</text>
    </g>
    <g>
     <circle stroke="black" stroke-width="0.5" fill="#aaffff" cx="850.0" cy="645.0" r="1.0"/>
     <text stroke="none" x="850.0" y="645.0" font-size="10.0" font-family="helvetica">NT1.38</text>
    </g>
    <g>
     <circle stroke="black" stroke-width="0.5" fill="#aaffff" cx="852.0" cy="405.0" r="1.0"/>
     <text stroke="none" x="852.0" y="405.0" font-size="10.0" font-family="helvetica">NT1.39</text>
    </g>
    <g>
     <circle stroke="black" stroke-width="0.5" fill="#aaffff" cx="859.0" cy="235.0" r="1.0"/>
     <text stroke="none" x="859.0" y="235.0" font-size="10.0" font-family="helvetica">NT1.40</text>
    </g>
    <g>
     <circle stroke="black" stroke-width="0.5" fill="#aaffff" cx="861.0" cy="321.0" r="1.0"/>
     <text stroke="none" x="861.0" y="321.0" font-size="20.0" font-family="helvetica">Oceanobacillus kapialis SSK2-27 (AB366005)</text>
    </g>
    <g>
     <circle stroke="black" stroke-width="0.5" fill="#aaffff" cx="862.0" cy="286.0" r="1.0"/>
     <text stroke="none" x="862.0" y="286.0" font-size="20.0" font-family="helvetica">Ornithinibacillus contaminans CCUG 532017 (FN597064)</text>
    </g>
    <g>
     <circle stroke="black" stroke-width="0.5" fill="#aaffff" cx="862.0" cy="389.0" r="1.0"/>
     <text stroke="none" x="862.0" y="389.0" font-size="20.0" font-family="helvetica">Virgibacillus carmonensis LMG 209647 (AJ316302)</text>
    </g>
    <g>
     <circle stroke="black" stroke-width="0.5" fill="#aaffff" cx="863.0" cy="132.0" r="1.0"/>
     <text stroke="none" x="863.0" y="132.0" font-size="10.0" font-family="helvetica">NT1.44</text>
    </g>
    <g>
     <circle stroke="black" stroke-width="0.5" fill="#aaffff" cx="865.0" cy="355.0" r="1.0"/>
     <text stroke="none" x="865.0" y="355.0" font-size="20.0" font-family="helvetica">Oceanobacillus picturae LMG 19492T (AJ315060)</text>
    </g>
    <g>
     <circle stroke="black" stroke-width="0.5" fill="#aaffff" cx="894.0" cy="696.0" r="1.0"/>
     <text stroke="none" x="894.0" y="696.0" font-size="20.0" font-family="helvetica">Gracilibacillus halotolerans NNT (AFO36922)</text>
    </g>
    <g>
     <circle stroke="black" stroke-width="0.5" fill="#aaffff" cx="904.0" cy="628.0" r="1.0"/>
     <text stroke="none" x="904.0" y="628.0" font-size="20.0" font-family="helvetica">Filobacillus milosensis SH 7147 (AJ238042)</text>
    </g>
    <g>
     <circle stroke="black" stroke-width="0.5" fill="#aaffff" cx="906.0" cy="252.0" r="1.0"/>
     <text stroke="none" x="906.0" y="252.0" font-size="20.0" font-family="helvetica">Ornithinibacillus californiensis MB-9T (AF326365)</text>
    </g>
    <g>
     <circle stroke="black" stroke-width="0.5" fill="#aaffff" cx="914.0" cy="423.0" r="1.0"/>
     <text stroke="none" x="914.0" y="423.0" font-size="20.0" font-family="helvetica">Virgibacillus necropolis LMG 19488T (AJ315056)</text>
    </g>
    <g>
     <circle stroke="black" stroke-width="0.5" fill="#aaffff" cx="922.0" cy="150.0" r="1.0"/>
     <text stroke="none" x="922.0" y="150.0" font-size="20.0" font-family="helvetica">Oceanobacillus profundus CL-MP28T (DQ386635)</text>
    </g>
    <g>
     <circle stroke="black" stroke-width="0.5" fill="#aaffff" cx="935.0" cy="526.0" r="1.0"/>
     <text stroke="none" x="935.0" y="526.0" font-size="20.0" font-family="helvetica">Virgibacillus salexigens C20-MOT (Y1 1603)</text>
    </g>
    <g>
     <circle stroke="black" stroke-width="0.5" fill="#aaffff" cx="943.0" cy="64.0" r="1.0"/>
     <text stroke="none" x="943.0" y="64.0" font-size="10.0" font-family="helvetica">NT1.52</text>
    </g>
    <g>
     <circle stroke="black" stroke-width="0.5" fill="#aaffff" cx="953.0" cy="218.0" r="1.0"/>
     <text stroke="none" x="953.0" y="218.0" font-size="20.0" font-family="helvetica">Ornithinibacillus bavariensis WSBC 24001 T (Y13066)</text>
    </g>
    <g>
     <circle stroke="black" stroke-width="0.5" fill="#aaffff" cx="971.0" cy="96.0" r="1.0"/>
     <text stroke="none" x="971.0" y="96.0" font-size="10.0" font-family="helvetica">NT1.54</text>
    </g>
    <g>
     <circle stroke="black" stroke-width="0.5" fill="#aaffff" cx="976.0" cy="185.0" r="1.0"/>
     <text stroke="none" x="976.0" y="185.0" font-size="20.0" font-family="helvetica">Oceanobacillus caeni S-1 1T (AB275883)</text>
    </g>
    <g>
     <circle stroke="black" stroke-width="0.5" fill="#aaffff" cx="984.0" cy="663.0" r="1.0"/>
     <text stroke="none" x="984.0" y="663.0" font-size="20.0" font-family="helvetica">Tenuibacillus multivorans 28-1 T (AY319933)</text>
    </g>
    <g>
     <circle stroke="black" stroke-width="0.5" fill="#aaffff" cx="1033.0" cy="30.0" r="1.0"/>
     <text stroke="none" x="1033.0" y="30.0" font-size="10.0" font-family="helvetica">NT1.57</text>
    </g>
    <g>
     <circle stroke="black" stroke-width="0.5" fill="#aaffff" cx="1039.0" cy="14.0" r="1.0"/>
     <text stroke="none" x="1039.0" y="14.0" font-size="20.0" font-family="helvetica">Oceanobacillus oncorhynchi subsp. incaldanensis 20AGT(AJ64O134)</text>
    </g>
    <g>
     <circle stroke="black" stroke-width="0.5" fill="#aaffff" cx="1053.0" cy="48.0" r="1.0"/>
     <text stroke="none" x="1053.0" y="48.0" font-size="20.0" font-family="helvetica">Oceanobacillus oncorhynchisubsp. oncorhynchi R-2T (AB188089)</text>
    </g>
    <g>
     <circle stroke="black" stroke-width="0.5" fill="#aaffff" cx="1066.0" cy="82.0" r="1.0"/>
     <text stroke="none" x="1066.0" y="82.0" font-size="20.0" font-family="helvetica">Oceanobacillus iheyensis HTE831T (AB010863)</text>
    </g>
    <g>
     <circle stroke="black" stroke-width="0.5" fill="#aaffff" cx="1181.0" cy="116.0" r="1.0"/>
     <text stroke="none" x="1181.0" y="116.0" font-size="20.0" font-family="helvetica">Oceanobacillus chironomiT3944DT (DQ298074)</text>
    </g>
    <line stroke="black" x1="1039.0" y1="14.0" x2="1033.0" y2="30.0" stroke-width="0.5"/>
    <line stroke="black" x1="1053.0" y1="48.0" x2="1033.0" y2="30.0" stroke-width="0.5"/>
    <line stroke="black" x1="1066.0" y1="82.0" x2="971.0" y2="96.0" stroke-width="0.5"/>
    <line stroke="black" x1="922.0" y1="150.0" x2="863.0" y2="132.0" stroke-width="0.5"/>
    <line stroke="black" x1="1181.0" y1="116.0" x2="971.0" y2="96.0" stroke-width="0.5"/>
    <line stroke="black" x1="976.0" y1="185.0" x2="834.0" y2="166.0" stroke-width="0.5"/>
    <line stroke="black" x1="862.0" y1="286.0" x2="833.0" y2="267.0" stroke-width="0.5"/>
    <line stroke="black" x1="861.0" y1="321.0" x2="822.0" y2="339.0" stroke-width="0.5"/>
    <line stroke="black" x1="865.0" y1="355.0" x2="822.0" y2="339.0" stroke-width="0.5"/>
    <line stroke="black" x1="811.0" y1="458.0" x2="758.0" y2="440.0" stroke-width="0.5"/>
    <line stroke="black" x1="813.0" y1="560.0" x2="744.0" y2="575.0" stroke-width="0.5"/>
    <line stroke="black" x1="822.0" y1="594.0" x2="744.0" y2="575.0" stroke-width="0.5"/>
    <line stroke="black" x1="935.0" y1="526.0" x2="729.0" y2="485.0" stroke-width="0.5"/>
    <line stroke="black" x1="914.0" y1="423.0" x2="852.0" y2="405.0" stroke-width="0.5"/>
    <line stroke="black" x1="793.0" y1="799.0" x2="773.0" y2="780.0" stroke-width="0.5"/>
    <line stroke="black" x1="824.0" y1="730.0" x2="792.0" y2="747.0" stroke-width="0.5"/>
    <line stroke="black" x1="894.0" y1="696.0" x2="732.0" y2="679.0" stroke-width="0.5"/>
    <line stroke="black" x1="904.0" y1="628.0" x2="850.0" y2="645.0" stroke-width="0.5"/>
    <line stroke="black" x1="984.0" y1="663.0" x2="850.0" y2="645.0" stroke-width="0.5"/>
    <line stroke="black" x1="655.0" y1="833.0" x2="501.0" y2="815.0" stroke-width="0.5"/>
    <line stroke="black" x1="479.0" y1="936.0" x2="433.0" y2="917.0" stroke-width="0.5"/>
    <line stroke="black" x1="487.0" y1="901.0" x2="433.0" y2="917.0" stroke-width="0.5"/>
    <line stroke="black" x1="388.0" y1="970.0" x2="346.0" y2="952.0" stroke-width="0.5"/>
    <line stroke="black" x1="430.0" y1="1005.0" x2="276.0" y2="986.0" stroke-width="0.5"/>
    <line stroke="black" x1="429.0" y1="1038.0" x2="236.0" y2="1020.0" stroke-width="0.5"/>
    <line stroke="black" x1="1033.0" y1="30.0" x2="943.0" y2="64.0" stroke-width="0.5"/>
    <line stroke="black" x1="943.0" y1="64.0" x2="863.0" y2="132.0" stroke-width="0.5"/>
    <line stroke="black" x1="943.0" y1="64.0" x2="971.0" y2="96.0" stroke-width="0.5"/>
    <line stroke="black" x1="863.0" y1="132.0" x2="834.0" y2="166.0" stroke-width="0.5"/>
    <line stroke="black" x1="834.0" y1="166.0" x2="813.0" y2="200.0" stroke-width="0.5"/>
    <line stroke="black" x1="813.0" y1="200.0" x2="762.0" y2="303.0" stroke-width="0.5"/>
    <line stroke="black" x1="813.0" y1="200.0" x2="833.0" y2="267.0" stroke-width="0.5"/>
    <line stroke="black" x1="833.0" y1="267.0" x2="859.0" y2="235.0" stroke-width="0.5"/>
    <line stroke="black" x1="762.0" y1="303.0" x2="706.0" y2="372.0" stroke-width="0.5"/>
    <line stroke="black" x1="762.0" y1="303.0" x2="822.0" y2="339.0" stroke-width="0.5"/>
    <line stroke="black" x1="706.0" y1="372.0" x2="698.0" y2="542.0" stroke-width="0.5"/>
    <line stroke="black" x1="706.0" y1="372.0" x2="729.0" y2="485.0" stroke-width="0.5"/>
    <line stroke="black" x1="729.0" y1="485.0" x2="758.0" y2="440.0" stroke-width="0.5"/>
    <line stroke="black" x1="698.0" y1="542.0" x2="647.0" y2="611.0" stroke-width="0.5"/>
    <line stroke="black" x1="698.0" y1="542.0" x2="744.0" y2="575.0" stroke-width="0.5"/>
    <line stroke="black" x1="758.0" y1="440.0" x2="852.0" y2="405.0" stroke-width="0.5"/>
    <line stroke="black" x1="647.0" y1="611.0" x2="501.0" y2="815.0" stroke-width="0.5"/>
    <line stroke="black" x1="647.0" y1="611.0" x2="694.0" y2="712.0" stroke-width="0.5"/>
    <line stroke="black" x1="694.0" y1="712.0" x2="773.0" y2="780.0" stroke-width="0.5"/>
    <line stroke="black" x1="694.0" y1="712.0" x2="732.0" y2="679.0" stroke-width="0.5"/>
    <line stroke="black" x1="732.0" y1="679.0" x2="850.0" y2="645.0" stroke-width="0.5"/>
    <line stroke="black" x1="773.0" y1="780.0" x2="792.0" y2="747.0" stroke-width="0.5"/>
    <line stroke="black" x1="501.0" y1="815.0" x2="445.0" y2="849.0" stroke-width="0.5"/>
    <line stroke="black" x1="445.0" y1="849.0" x2="377.0" y2="883.0" stroke-width="0.5"/>
    <line stroke="black" x1="377.0" y1="883.0" x2="346.0" y2="952.0" stroke-width="0.5"/>
    <line stroke="black" x1="377.0" y1="883.0" x2="433.0" y2="917.0" stroke-width="0.5"/>
    <line stroke="black" x1="346.0" y1="952.0" x2="276.0" y2="986.0" stroke-width="0.5"/>
    <line stroke="black" x1="276.0" y1="986.0" x2="236.0" y2="1020.0" stroke-width="0.5"/>
    <line stroke="black" x1="237.0" y1="1072.0" x2="236.0" y2="1020.0" stroke-width="0.5"/>
    <line stroke="black" x1="514.0" y1="867.0" x2="445.0" y2="849.0" stroke-width="0.5"/>
    <line stroke="black" x1="795.0" y1="491.0" x2="729.0" y2="485.0" stroke-width="0.5"/>
    <line stroke="black" x1="813.0" y1="765.0" x2="792.0" y2="747.0" stroke-width="0.5"/>
    <line stroke="black" x1="862.0" y1="389.0" x2="852.0" y2="405.0" stroke-width="0.5"/>
    <line stroke="black" x1="906.0" y1="252.0" x2="859.0" y2="235.0" stroke-width="0.5"/>
    <line stroke="black" x1="953.0" y1="218.0" x2="859.0" y2="235.0" stroke-width="0.5"/>
   </g>
  </g>
 </svg>
</svg>
