<?xml version="1.0" encoding="UTF-8"?>
<svg height="800.0" width="700.0" xmlns="http://www.w3.org/2000/svg">
 <svg>
  <g>
   <g>
    <g>
     <circle stroke="black" stroke-width="0.5" fill="#aaffff" cx="41.0" cy="281.0" r="1.0"/>
     <text stroke="none" x="41.0" y="281.0" font-size="10.0" font-family="helvetica">NT1.1</text>
    </g>
    <g>
     <circle stroke="black" stroke-width="0.5" fill="#aaffff" cx="138.0" cy="378.0" r="1.0"/>
     <text stroke="none" x="138.0" y="378.0" font-size="10.0" font-family="helvetica">NT1.2</text>
    </g>
    <g>
     <circle stroke="black" stroke-width="0.5" fill="#aaffff" cx="201.0" cy="182.0" r="1.0"/>
     <text stroke="none" x="201.0" y="182.0" font-size="10.0" font-family="helvetica">NT1.3</text>
    </g>
    <g>
     <circle stroke="black" stroke-width="0.5" fill="#aaffff" cx="228.0" cy="127.0" r="1.0"/>
     <text stroke="none" x="228.0" y="127.0" font-size="10.0" font-family="helvetica">NT1.4</text>
    </g>
    <g>
     <circle stroke="black" stroke-width="0.5" fill="#aaffff" cx="362.0" cy="78.0" r="1.0"/>
     <text stroke="none" x="362.0" y="78.0" font-size="10.0" font-family="helvetica">NT1.5</text>
    </g>
    <g>
     <circle stroke="black" stroke-width="0.5" fill="#aaffff" cx="396.0" cy="116.0" r="1.0"/>
     <text stroke="none" x="396.0" y="116.0" font-size="10.0" font-family="helvetica">NT1.6</text>
    </g>
    <g>
     <circle stroke="black" stroke-width="0.5" fill="#aaffff" cx="421.0" cy="38.0" r="1.0"/>
     <text stroke="none" x="421.0" y="38.0" font-size="20.0" font-family="helvetica">100</text>
    </g>
    <g>
     <circle stroke="black" stroke-width="0.5" fill="#aaffff" cx="429.0" cy="97.0" r="1.0"/>
     <text stroke="none" x="429.0" y="97.0" font-size="20.0" font-family="helvetica">Deferribacter abyssi JRT (AJ515882)</text>
    </g>
    <g>
     <circle stroke="black" stroke-width="0.5" fill="#aaffff" cx="433.0" cy="136.0" r="1.0"/>
     <text stroke="none" x="433.0" y="136.0" font-size="20.0" font-family="helvetica">Deferribacter autotrophicus SL507 (EU407 77 7)</text>
    </g>
    <g>
     <circle stroke="black" stroke-width="0.5" fill="#aaffff" cx="434.0" cy="17.0" r="1.0"/>
     <text stroke="none" x="434.0" y="17.0" font-size="20.0" font-family="helvetica">Deferribacter desulfuricans SSM1T (AB086060)</text>
    </g>
    <g>
     <circle stroke="black" stroke-width="0.5" fill="#aaffff" cx="462.0" cy="345.0" r="1.0"/>
     <text stroke="none" x="462.0" y="345.0" font-size="10.0" font-family="helvetica">NT1.11</text>
    </g>
    <g>
     <circle stroke="black" stroke-width="0.5" fill="#aaffff" cx="464.0" cy="57.0" r="1.0"/>
     <text stroke="none" x="464.0" y="57.0" font-size="20.0" font-family="helvetica">Deferribacter thermophilus BMAT (U 75602)</text>
    </g>
    <g>
     <circle stroke="black" stroke-width="0.5" fill="#aaffff" cx="532.0" cy="414.0" r="1.0"/>
     <text stroke="none" x="532.0" y="414.0" font-size="20.0" font-family="helvetica">Geobacter metallireducens GS-15T (LO7834)</text>
    </g>
    <g>
     <circle stroke="black" stroke-width="0.5" fill="#aaffff" cx="552.0" cy="234.0" r="1.0"/>
     <text stroke="none" x="552.0" y="234.0" font-size="10.0" font-family="helvetica">NT1.14</text>
    </g>
    <g>
     <circle stroke="black" stroke-width="0.5" fill="#aaffff" cx="579.0" cy="176.0" r="1.0"/>
     <text stroke="none" x="579.0" y="176.0" font-size="20.0" font-family="helvetica">Flexistipes sinusarabici MAS 10T (M59231)</text>
    </g>
    <g>
     <circle stroke="black" stroke-width="0.5" fill="#aaffff" cx="607.0" cy="255.0" r="1.0"/>
     <text stroke="none" x="607.0" y="255.0" font-size="20.0" font-family="helvetica">Geovibrio thiophilus AAFu3T (AJ299402)</text>
    </g>
    <g>
     <circle stroke="black" stroke-width="0.5" fill="#aaffff" cx="611.0" cy="316.0" r="1.0"/>
     <text stroke="none" x="611.0" y="316.0" font-size="20.0" font-family="helvetica">100</text>
    </g>
    <g>
     <circle stroke="black" stroke-width="0.5" fill="#aaffff" cx="615.0" cy="334.0" r="1.0"/>
     <text stroke="none" x="615.0" y="334.0" font-size="20.0" font-family="helvetica">Desulfurispirillum alkaliphilum SR 17 (DQ666683)</text>
    </g>
    <g>
     <circle stroke="black" stroke-width="0.5" fill="#aaffff" cx="616.0" cy="295.0" r="1.0"/>
     <text stroke="none" x="616.0" y="295.0" font-size="20.0" font-family="helvetica">Desulfurispirillum indicum S57 (DQ991965)</text>
    </g>
    <g>
     <circle stroke="black" stroke-width="0.5" fill="#aaffff" cx="628.0" cy="215.0" r="1.0"/>
     <text stroke="none" x="628.0" y="215.0" font-size="20.0" font-family="helvetica">Geovibrio ferrireducens PAL-17 (X95744)</text>
    </g>
    <g>
     <circle stroke="black" stroke-width="0.5" fill="#aaffff" cx="665.0" cy="453.0" r="1.0"/>
     <text stroke="none" x="665.0" y="453.0" font-size="20.0" font-family="helvetica">Thermotoga maritima FJSS3-B.1</text>
    </g>
    <g>
     <circle stroke="black" stroke-width="0.5" fill="#aaffff" cx="666.0" cy="374.0" r="1.0"/>
     <text stroke="none" x="666.0" y="374.0" font-size="20.0" font-family="helvetica">Chrysiogenes arsenatis BAL-1T (X81319)</text>
    </g>
    <line stroke="black" x1="433.0" y1="136.0" x2="396.0" y2="116.0" stroke-width="0.5"/>
    <line stroke="black" x1="579.0" y1="176.0" x2="228.0" y2="127.0" stroke-width="0.5"/>
    <line stroke="black" x1="666.0" y1="374.0" x2="462.0" y2="345.0" stroke-width="0.5"/>
    <line stroke="black" x1="421.0" y1="38.0" x2="362.0" y2="78.0" stroke-width="0.5"/>
    <line stroke="black" x1="362.0" y1="78.0" x2="228.0" y2="127.0" stroke-width="0.5"/>
    <line stroke="black" x1="362.0" y1="78.0" x2="396.0" y2="116.0" stroke-width="0.5"/>
    <line stroke="black" x1="228.0" y1="127.0" x2="201.0" y2="182.0" stroke-width="0.5"/>
    <line stroke="black" x1="201.0" y1="182.0" x2="41.0" y2="281.0" stroke-width="0.5"/>
    <line stroke="black" x1="201.0" y1="182.0" x2="552.0" y2="234.0" stroke-width="0.5"/>
    <line stroke="black" x1="41.0" y1="281.0" x2="138.0" y2="378.0" stroke-width="0.5"/>
    <line stroke="black" x1="138.0" y1="378.0" x2="462.0" y2="345.0" stroke-width="0.5"/>
    <line stroke="black" x1="462.0" y1="345.0" x2="611.0" y2="316.0" stroke-width="0.5"/>
    <line stroke="black" x1="665.0" y1="453.0" x2="41.0" y2="281.0" stroke-width="0.5"/>
    <line stroke="black" x1="532.0" y1="414.0" x2="138.0" y2="378.0" stroke-width="0.5"/>
    <line stroke="black" x1="429.0" y1="97.0" x2="396.0" y2="116.0" stroke-width="0.5"/>
    <line stroke="black" x1="434.0" y1="17.0" x2="421.0" y2="38.0" stroke-width="0.5"/>
    <line stroke="black" x1="464.0" y1="57.0" x2="421.0" y2="38.0" stroke-width="0.5"/>
    <line stroke="black" x1="607.0" y1="255.0" x2="552.0" y2="234.0" stroke-width="0.5"/>
    <line stroke="black" x1="628.0" y1="215.0" x2="552.0" y2="234.0" stroke-width="0.5"/>
    <line stroke="black" x1="615.0" y1="334.0" x2="611.0" y2="316.0" stroke-width="0.5"/>
    <line stroke="black" x1="616.0" y1="295.0" x2="611.0" y2="316.0" stroke-width="0.5"/>
   </g>
  </g>
 </svg>
</svg>
