<?xml version="1.0" encoding="UTF-8"?>
<svg height="800.0" width="700.0" xmlns="http://www.w3.org/2000/svg">
 <svg>
  <g>
   <g>
    <g>
     <circle stroke="black" stroke-width="0.5" fill="#aaffff" cx="241.0" cy="1163.0" r="1.0"/>
     <text stroke="none" x="241.0" y="1163.0" font-size="10.0" font-family="helvetica">NT1.1</text>
    </g>
    <g>
     <circle stroke="black" stroke-width="0.5" fill="#aaffff" cx="340.0" cy="1115.0" r="1.0"/>
     <text stroke="none" x="340.0" y="1115.0" font-size="10.0" font-family="helvetica">NT1.2</text>
    </g>
    <g>
     <circle stroke="black" stroke-width="0.5" fill="#aaffff" cx="364.0" cy="1060.0" r="1.0"/>
     <text stroke="none" x="364.0" y="1060.0" font-size="10.0" font-family="helvetica">NT1.3</text>
    </g>
    <g>
     <circle stroke="black" stroke-width="0.5" fill="#aaffff" cx="385.0" cy="992.0" r="1.0"/>
     <text stroke="none" x="385.0" y="992.0" font-size="10.0" font-family="helvetica">NT1.4</text>
    </g>
    <g>
     <circle stroke="black" stroke-width="0.5" fill="#aaffff" cx="418.0" cy="897.0" r="1.0"/>
     <text stroke="none" x="418.0" y="897.0" font-size="10.0" font-family="helvetica">NT1.5</text>
    </g>
    <g>
     <circle stroke="black" stroke-width="0.5" fill="#aaffff" cx="453.0" cy="748.0" r="1.0"/>
     <text stroke="none" x="453.0" y="748.0" font-size="10.0" font-family="helvetica">NT1.6</text>
    </g>
    <g>
     <circle stroke="black" stroke-width="0.5" fill="#aaffff" cx="474.0" cy="1128.0" r="1.0"/>
     <text stroke="none" x="474.0" y="1128.0" font-size="20.0" font-family="helvetica">Lindnera petersonii NRRL YB-3808T (EF55031 1)</text>
    </g>
    <g>
     <circle stroke="black" stroke-width="0.5" fill="#aaffff" cx="493.0" cy="547.0" r="1.0"/>
     <text stroke="none" x="493.0" y="547.0" font-size="10.0" font-family="helvetica">NT1.8</text>
    </g>
    <g>
     <circle stroke="black" stroke-width="0.5" fill="#aaffff" cx="502.0" cy="860.0" r="1.0"/>
     <text stroke="none" x="502.0" y="860.0" font-size="10.0" font-family="helvetica">NT1.9</text>
    </g>
    <g>
     <circle stroke="black" stroke-width="0.5" fill="#aaffff" cx="515.0" cy="1086.0" r="1.0"/>
     <text stroke="none" x="515.0" y="1086.0" font-size="20.0" font-family="helvetica">Lindnera rhizosphaerae OR54T (GQ891688)</text>
    </g>
    <g>
     <circle stroke="black" stroke-width="0.5" fill="#aaffff" cx="519.0" cy="265.0" r="1.0"/>
     <text stroke="none" x="519.0" y="265.0" font-size="20.0" font-family="helvetica"/>
    </g>
    <g>
     <circle stroke="black" stroke-width="0.5" fill="#aaffff" cx="519.0" cy="1210.0" r="1.0"/>
     <text stroke="none" x="519.0" y="1210.0" font-size="20.0" font-family="helvetica">Lindnera maclurae NRRL Y-53777 (EF550310)</text>
    </g>
    <g>
     <circle stroke="black" stroke-width="0.5" fill="#aaffff" cx="526.0" cy="288.0" r="1.0"/>
     <text stroke="none" x="526.0" y="288.0" font-size="10.0" font-family="helvetica">NT1.13</text>
    </g>
    <g>
     <circle stroke="black" stroke-width="0.5" fill="#aaffff" cx="531.0" cy="631.0" r="1.0"/>
     <text stroke="none" x="531.0" y="631.0" font-size="10.0" font-family="helvetica">NT1.14</text>
    </g>
    <g>
     <circle stroke="black" stroke-width="0.5" fill="#aaffff" cx="533.0" cy="633.0" r="1.0"/>
     <text stroke="none" x="533.0" y="633.0" font-size="10.0" font-family="helvetica">NT1.15</text>
    </g>
    <g>
     <circle stroke="black" stroke-width="0.5" fill="#aaffff" cx="537.0" cy="592.0" r="1.0"/>
     <text stroke="none" x="537.0" y="592.0" font-size="20.0" font-family="helvetica">Lindnera subsufficiens NRRL Y-1657T (EF550318) El</text>
    </g>
    <g>
     <circle stroke="black" stroke-width="0.5" fill="#aaffff" cx="537.0" cy="273.0" r="1.0"/>
     <text stroke="none" x="537.0" y="273.0" font-size="10.0" font-family="helvetica">NT1.17</text>
    </g>
    <g>
     <circle stroke="black" stroke-width="0.5" fill="#aaffff" cx="540.0" cy="487.0" r="1.0"/>
     <text stroke="none" x="540.0" y="487.0" font-size="10.0" font-family="helvetica">NT1.18</text>
    </g>
    <g>
     <circle stroke="black" stroke-width="0.5" fill="#aaffff" cx="541.0" cy="951.0" r="1.0"/>
     <text stroke="none" x="541.0" y="951.0" font-size="10.0" font-family="helvetica">NT1.19</text>
    </g>
    <g>
     <circle stroke="black" stroke-width="0.5" fill="#aaffff" cx="542.0" cy="714.0" r="1.0"/>
     <text stroke="none" x="542.0" y="714.0" font-size="20.0" font-family="helvetica">81</text>
    </g>
    <g>
     <circle stroke="black" stroke-width="0.5" fill="#aaffff" cx="544.0" cy="327.0" r="1.0"/>
     <text stroke="none" x="544.0" y="327.0" font-size="10.0" font-family="helvetica">NT1.21</text>
    </g>
    <g>
     <circle stroke="black" stroke-width="0.5" fill="#aaffff" cx="544.0" cy="674.0" r="1.0"/>
     <text stroke="none" x="544.0" y="674.0" font-size="20.0" font-family="helvetica">Lindnera mrakii NRRL Y-1364T(EF55O317)</text>
    </g>
    <g>
     <circle stroke="black" stroke-width="0.5" fill="#aaffff" cx="545.0" cy="273.0" r="1.0"/>
     <text stroke="none" x="545.0" y="273.0" font-size="20.0" font-family="helvetica"/>
    </g>
    <g>
     <circle stroke="black" stroke-width="0.5" fill="#aaffff" cx="547.0" cy="755.0" r="1.0"/>
     <text stroke="none" x="547.0" y="755.0" font-size="10.0" font-family="helvetica">NT1.24</text>
    </g>
    <g>
     <circle stroke="black" stroke-width="0.5" fill="#aaffff" cx="548.0" cy="714.0" r="1.0"/>
     <text stroke="none" x="548.0" y="714.0" font-size="20.0" font-family="helvetica">Lindnera sargentensis NRRL Y-4139T (U94936) A</text>
    </g>
    <g>
     <circle stroke="black" stroke-width="0.5" fill="#aaffff" cx="548.0" cy="799.0" r="1.0"/>
     <text stroke="none" x="548.0" y="799.0" font-size="20.0" font-family="helvetica">Lindnera suaveolens NRRL Y-1725 (EU307993)</text>
    </g>
    <g>
     <circle stroke="black" stroke-width="0.5" fill="#aaffff" cx="550.0" cy="1045.0" r="1.0"/>
     <text stroke="none" x="550.0" y="1045.0" font-size="20.0" font-family="helvetica">Lindnera rhodanensis NRRL Y-7854T (EF550325)</text>
    </g>
    <g>
     <circle stroke="black" stroke-width="0.5" fill="#aaffff" cx="552.0" cy="283.0" r="1.0"/>
     <text stroke="none" x="552.0" y="283.0" font-size="10.0" font-family="helvetica">NT1.28</text>
    </g>
    <g>
     <circle stroke="black" stroke-width="0.5" fill="#aaffff" cx="554.0" cy="303.0" r="1.0"/>
     <text stroke="none" x="554.0" y="303.0" font-size="20.0" font-family="helvetica">Lindnera bimundalis NRRL Y-5343T (EF550325)) I</text>
    </g>
    <g>
     <circle stroke="black" stroke-width="0.5" fill="#aaffff" cx="554.0" cy="374.0" r="1.0"/>
     <text stroke="none" x="554.0" y="374.0" font-size="10.0" font-family="helvetica">NT1.30</text>
    </g>
    <g>
     <circle stroke="black" stroke-width="0.5" fill="#aaffff" cx="560.0" cy="262.0" r="1.0"/>
     <text stroke="none" x="560.0" y="262.0" font-size="20.0" font-family="helvetica">Lindnera americana NRRL Y-2156T (EF550328) O</text>
    </g>
    <g>
     <circle stroke="black" stroke-width="0.5" fill="#aaffff" cx="562.0" cy="509.0" r="1.0"/>
     <text stroke="none" x="562.0" y="509.0" font-size="20.0" font-family="helvetica">Lindnera meyerae NRRL Y-17236T (EF550327) O</text>
    </g>
    <g>
     <circle stroke="black" stroke-width="0.5" fill="#aaffff" cx="567.0" cy="110.0" r="1.0"/>
     <text stroke="none" x="567.0" y="110.0" font-size="20.0" font-family="helvetica"/>
    </g>
    <g>
     <circle stroke="black" stroke-width="0.5" fill="#aaffff" cx="567.0" cy="102.0" r="1.0"/>
     <text stroke="none" x="567.0" y="102.0" font-size="20.0" font-family="helvetica">Lindnera japonica NRRL YB-275OT (EF550323) O</text>
    </g>
    <g>
     <circle stroke="black" stroke-width="0.5" fill="#aaffff" cx="569.0" cy="880.0" r="1.0"/>
     <text stroke="none" x="569.0" y="880.0" font-size="20.0" font-family="helvetica">Candida sp. NRRL Y-27267 (EF550314)</text>
    </g>
    <g>
     <circle stroke="black" stroke-width="0.5" fill="#aaffff" cx="569.0" cy="110.0" r="1.0"/>
     <text stroke="none" x="569.0" y="110.0" font-size="10.0" font-family="helvetica">NT1.36</text>
    </g>
    <g>
     <circle stroke="black" stroke-width="0.5" fill="#aaffff" cx="570.0" cy="109.0" r="1.0"/>
     <text stroke="none" x="570.0" y="109.0" font-size="10.0" font-family="helvetica">NT1.37</text>
    </g>
    <g>
     <circle stroke="black" stroke-width="0.5" fill="#aaffff" cx="571.0" cy="550.0" r="1.0"/>
     <text stroke="none" x="571.0" y="550.0" font-size="20.0" font-family="helvetica">Lindnera euphorbiiphila NRRL Y-127427 (EF55031 2) O</text>
    </g>
    <g>
     <circle stroke="black" stroke-width="0.5" fill="#aaffff" cx="571.0" cy="632.0" r="1.0"/>
     <text stroke="none" x="571.0" y="632.0" font-size="20.0" font-family="helvetica">Candida vartiovaarae NRRL Y-67017 (EF550315) U</text>
    </g>
    <g>
     <circle stroke="black" stroke-width="0.5" fill="#aaffff" cx="572.0" cy="199.0" r="1.0"/>
     <text stroke="none" x="572.0" y="199.0" font-size="20.0" font-family="helvetica">73</text>
    </g>
    <g>
     <circle stroke="black" stroke-width="0.5" fill="#aaffff" cx="573.0" cy="982.0" r="1.0"/>
     <text stroke="none" x="573.0" y="982.0" font-size="20.0" font-family="helvetica">100</text>
    </g>
    <g>
     <circle stroke="black" stroke-width="0.5" fill="#aaffff" cx="574.0" cy="344.0" r="1.0"/>
     <text stroke="none" x="574.0" y="344.0" font-size="20.0" font-family="helvetica">Candida mycetangii NRRL Y-68437 (EF550330) O</text>
    </g>
    <g>
     <circle stroke="black" stroke-width="0.5" fill="#aaffff" cx="575.0" cy="962.0" r="1.0"/>
     <text stroke="none" x="575.0" y="962.0" font-size="20.0" font-family="helvetica">Candida Sp. NRRL Y-27103 (EF550307) A</text>
    </g>
    <g>
     <circle stroke="black" stroke-width="0.5" fill="#aaffff" cx="576.0" cy="405.0" r="1.0"/>
     <text stroke="none" x="576.0" y="405.0" font-size="20.0" font-family="helvetica">89</text>
    </g>
    <g>
     <circle stroke="black" stroke-width="0.5" fill="#aaffff" cx="578.0" cy="839.0" r="1.0"/>
     <text stroke="none" x="578.0" y="839.0" font-size="20.0" font-family="helvetica">Lindnera lachancei NRRL Y-27O08T (EF550313) I</text>
    </g>
    <g>
     <circle stroke="black" stroke-width="0.5" fill="#aaffff" cx="582.0" cy="426.0" r="1.0"/>
     <text stroke="none" x="582.0" y="426.0" font-size="20.0" font-family="helvetica">Candida Sp. NRRL Y-7615 (EF550331)</text>
    </g>
    <g>
     <circle stroke="black" stroke-width="0.5" fill="#aaffff" cx="582.0" cy="1169.0" r="1.0"/>
     <text stroke="none" x="582.0" y="1169.0" font-size="20.0" font-family="helvetica">Lindnera jadinii NRRL Y-1542T (EF550309)</text>
    </g>
    <g>
     <circle stroke="black" stroke-width="0.5" fill="#aaffff" cx="586.0" cy="14.0" r="1.0"/>
     <text stroke="none" x="586.0" y="14.0" font-size="20.0" font-family="helvetica">Lindnera amylophila NRRL YB-12877 (EF550319) O</text>
    </g>
    <g>
     <circle stroke="black" stroke-width="0.5" fill="#aaffff" cx="586.0" cy="220.0" r="1.0"/>
     <text stroke="none" x="586.0" y="220.0" font-size="20.0" font-family="helvetica">Lindnera veronae NRRL Y-7818T (EF550322)</text>
    </g>
    <g>
     <circle stroke="black" stroke-width="0.5" fill="#aaffff" cx="588.0" cy="96.0" r="1.0"/>
     <text stroke="none" x="588.0" y="96.0" font-size="20.0" font-family="helvetica">Lindnera japonica NRRL YB-275OT (EF550323) O</text>
    </g>
    <g>
     <circle stroke="black" stroke-width="0.5" fill="#aaffff" cx="594.0" cy="468.0" r="1.0"/>
     <text stroke="none" x="594.0" y="468.0" font-size="20.0" font-family="helvetica">Lindnera euphorbiae NRRL Y-1 7232T (EF550326) O</text>
    </g>
    <g>
     <circle stroke="black" stroke-width="0.5" fill="#aaffff" cx="595.0" cy="385.0" r="1.0"/>
     <text stroke="none" x="595.0" y="385.0" font-size="20.0" font-family="helvetica">Candida maritima NRRL Y-17775T(EF55O332) A</text>
    </g>
    <g>
     <circle stroke="black" stroke-width="0.5" fill="#aaffff" cx="596.0" cy="1004.0" r="1.0"/>
     <text stroke="none" x="596.0" y="1004.0" font-size="20.0" font-family="helvetica">Lindnera misumaiensis NRRL Y-1 7389T (EF550306)</text>
    </g>
    <g>
     <circle stroke="black" stroke-width="0.5" fill="#aaffff" cx="600.0" cy="921.0" r="1.0"/>
     <text stroke="none" x="600.0" y="921.0" font-size="20.0" font-family="helvetica">Candida sp. NRRL YB-4088 (EF550308)</text>
    </g>
    <g>
     <circle stroke="black" stroke-width="0.5" fill="#aaffff" cx="601.0" cy="138.0" r="1.0"/>
     <text stroke="none" x="601.0" y="138.0" font-size="20.0" font-family="helvetica">Candida Sp. NRRL YB-2097 (EF550324) O</text>
    </g>
    <g>
     <circle stroke="black" stroke-width="0.5" fill="#aaffff" cx="691.0" cy="179.0" r="1.0"/>
     <text stroke="none" x="691.0" y="179.0" font-size="20.0" font-family="helvetica">Lindnera fabianii NRRL Y-1871T (EF550321) A</text>
    </g>
    <g>
     <circle stroke="black" stroke-width="0.5" fill="#aaffff" cx="691.0" cy="1251.0" r="1.0"/>
     <text stroke="none" x="691.0" y="1251.0" font-size="20.0" font-family="helvetica">Pichia membranifaciens NRRL Y-20267 (EF550227)</text>
    </g>
    <line stroke="black" x1="567.0" y1="110.0" x2="570.0" y2="109.0" stroke-width="0.5"/>
    <line stroke="black" x1="567.0" y1="102.0" x2="569.0" y2="110.0" stroke-width="0.5"/>
    <line stroke="black" x1="588.0" y1="96.0" x2="569.0" y2="110.0" stroke-width="0.5"/>
    <line stroke="black" x1="519.0" y1="265.0" x2="526.0" y2="288.0" stroke-width="0.5"/>
    <line stroke="black" x1="545.0" y1="273.0" x2="537.0" y2="273.0" stroke-width="0.5"/>
    <line stroke="black" x1="554.0" y1="303.0" x2="552.0" y2="283.0" stroke-width="0.5"/>
    <line stroke="black" x1="594.0" y1="468.0" x2="540.0" y2="487.0" stroke-width="0.5"/>
    <line stroke="black" x1="571.0" y1="550.0" x2="493.0" y2="547.0" stroke-width="0.5"/>
    <line stroke="black" x1="571.0" y1="632.0" x2="533.0" y2="633.0" stroke-width="0.5"/>
    <line stroke="black" x1="548.0" y1="714.0" x2="547.0" y2="755.0" stroke-width="0.5"/>
    <line stroke="black" x1="548.0" y1="799.0" x2="547.0" y2="755.0" stroke-width="0.5"/>
    <line stroke="black" x1="596.0" y1="1004.0" x2="573.0" y2="982.0" stroke-width="0.5"/>
    <line stroke="black" x1="550.0" y1="1045.0" x2="418.0" y2="897.0" stroke-width="0.5"/>
    <line stroke="black" x1="582.0" y1="1169.0" x2="340.0" y2="1115.0" stroke-width="0.5"/>
    <line stroke="black" x1="569.0" y1="110.0" x2="526.0" y2="288.0" stroke-width="0.5"/>
    <line stroke="black" x1="569.0" y1="110.0" x2="572.0" y2="199.0" stroke-width="0.5"/>
    <line stroke="black" x1="569.0" y1="110.0" x2="570.0" y2="109.0" stroke-width="0.5"/>
    <line stroke="black" x1="569.0" y1="110.0" x2="570.0" y2="109.0" stroke-width="0.5"/>
    <line stroke="black" x1="526.0" y1="288.0" x2="526.0" y2="288.0" stroke-width="0.5"/>
    <line stroke="black" x1="537.0" y1="273.0" x2="526.0" y2="288.0" stroke-width="0.5"/>
    <line stroke="black" x1="526.0" y1="288.0" x2="493.0" y2="547.0" stroke-width="0.5"/>
    <line stroke="black" x1="526.0" y1="288.0" x2="540.0" y2="487.0" stroke-width="0.5"/>
    <line stroke="black" x1="537.0" y1="273.0" x2="544.0" y2="327.0" stroke-width="0.5"/>
    <line stroke="black" x1="544.0" y1="327.0" x2="554.0" y2="374.0" stroke-width="0.5"/>
    <line stroke="black" x1="544.0" y1="327.0" x2="552.0" y2="283.0" stroke-width="0.5"/>
    <line stroke="black" x1="554.0" y1="374.0" x2="576.0" y2="405.0" stroke-width="0.5"/>
    <line stroke="black" x1="493.0" y1="547.0" x2="453.0" y2="748.0" stroke-width="0.5"/>
    <line stroke="black" x1="493.0" y1="547.0" x2="531.0" y2="631.0" stroke-width="0.5"/>
    <line stroke="black" x1="533.0" y1="633.0" x2="531.0" y2="631.0" stroke-width="0.5"/>
    <line stroke="black" x1="533.0" y1="633.0" x2="542.0" y2="714.0" stroke-width="0.5"/>
    <line stroke="black" x1="542.0" y1="714.0" x2="547.0" y2="755.0" stroke-width="0.5"/>
    <line stroke="black" x1="542.0" y1="714.0" x2="544.0" y2="674.0" stroke-width="0.5"/>
    <line stroke="black" x1="453.0" y1="748.0" x2="418.0" y2="897.0" stroke-width="0.5"/>
    <line stroke="black" x1="453.0" y1="748.0" x2="502.0" y2="860.0" stroke-width="0.5"/>
    <line stroke="black" x1="502.0" y1="860.0" x2="541.0" y2="951.0" stroke-width="0.5"/>
    <line stroke="black" x1="418.0" y1="897.0" x2="385.0" y2="992.0" stroke-width="0.5"/>
    <line stroke="black" x1="541.0" y1="951.0" x2="573.0" y2="982.0" stroke-width="0.5"/>
    <line stroke="black" x1="385.0" y1="992.0" x2="364.0" y2="1060.0" stroke-width="0.5"/>
    <line stroke="black" x1="573.0" y1="982.0" x2="575.0" y2="962.0" stroke-width="0.5"/>
    <line stroke="black" x1="364.0" y1="1060.0" x2="340.0" y2="1115.0" stroke-width="0.5"/>
    <line stroke="black" x1="340.0" y1="1115.0" x2="241.0" y2="1163.0" stroke-width="0.5"/>
    <line stroke="black" x1="691.0" y1="1251.0" x2="241.0" y2="1163.0" stroke-width="0.5"/>
    <line stroke="black" x1="519.0" y1="1210.0" x2="241.0" y2="1163.0" stroke-width="0.5"/>
    <line stroke="black" x1="474.0" y1="1128.0" x2="364.0" y2="1060.0" stroke-width="0.5"/>
    <line stroke="black" x1="515.0" y1="1086.0" x2="385.0" y2="992.0" stroke-width="0.5"/>
    <line stroke="black" x1="537.0" y1="592.0" x2="531.0" y2="631.0" stroke-width="0.5"/>
    <line stroke="black" x1="562.0" y1="509.0" x2="540.0" y2="487.0" stroke-width="0.5"/>
    <line stroke="black" x1="560.0" y1="262.0" x2="552.0" y2="283.0" stroke-width="0.5"/>
    <line stroke="black" x1="569.0" y1="880.0" x2="502.0" y2="860.0" stroke-width="0.5"/>
    <line stroke="black" x1="578.0" y1="839.0" x2="502.0" y2="860.0" stroke-width="0.5"/>
    <line stroke="black" x1="574.0" y1="344.0" x2="554.0" y2="374.0" stroke-width="0.5"/>
    <line stroke="black" x1="600.0" y1="921.0" x2="541.0" y2="951.0" stroke-width="0.5"/>
    <line stroke="black" x1="586.0" y1="220.0" x2="572.0" y2="199.0" stroke-width="0.5"/>
    <line stroke="black" x1="586.0" y1="14.0" x2="569.0" y2="110.0" stroke-width="0.5"/>
    <line stroke="black" x1="582.0" y1="426.0" x2="576.0" y2="405.0" stroke-width="0.5"/>
    <line stroke="black" x1="595.0" y1="385.0" x2="576.0" y2="405.0" stroke-width="0.5"/>
    <line stroke="black" x1="601.0" y1="138.0" x2="569.0" y2="110.0" stroke-width="0.5"/>
    <line stroke="black" x1="691.0" y1="179.0" x2="572.0" y2="199.0" stroke-width="0.5"/>
   </g>
  </g>
 </svg>
</svg>
