<?xml version="1.0" encoding="UTF-8"?>
<svg height="800.0" width="700.0" xmlns="http://www.w3.org/2000/svg">
 <svg>
  <g>
   <g>
    <g>
     <circle stroke="black" stroke-width="0.5" fill="#aaffff" cx="4.0" cy="43.0" r="1.0"/>
     <text stroke="none" x="4.0" y="43.0" font-size="10.0" font-family="helvetica">NT1.1</text>
    </g>
    <g>
     <circle stroke="black" stroke-width="0.5" fill="#aaffff" cx="26.0" cy="116.0" r="1.0"/>
     <text stroke="none" x="26.0" y="116.0" font-size="10.0" font-family="helvetica">NT1.2</text>
    </g>
    <g>
     <circle stroke="black" stroke-width="0.5" fill="#aaffff" cx="40.0" cy="159.0" r="1.0"/>
     <text stroke="none" x="40.0" y="159.0" font-size="10.0" font-family="helvetica">NT1.3</text>
    </g>
    <g>
     <circle stroke="black" stroke-width="0.5" fill="#aaffff" cx="49.0" cy="43.0" r="1.0"/>
     <text stroke="none" x="49.0" y="43.0" font-size="20.0" font-family="helvetica">Saccharococcus thermophilus ATCC 431 257 (X70430)</text>
    </g>
    <g>
     <circle stroke="black" stroke-width="0.5" fill="#aaffff" cx="76.0" cy="74.0" r="1.0"/>
     <text stroke="none" x="76.0" y="74.0" font-size="20.0" font-family="helvetica">Geobacillus caldoxylosilyticus S181 QT (AFO67651)</text>
    </g>
    <g>
     <circle stroke="black" stroke-width="0.5" fill="#aaffff" cx="79.0" cy="213.0" r="1.0"/>
     <text stroke="none" x="79.0" y="213.0" font-size="10.0" font-family="helvetica">NT1.6</text>
    </g>
    <g>
     <circle stroke="black" stroke-width="0.5" fill="#aaffff" cx="89.0" cy="105.0" r="1.0"/>
     <text stroke="none" x="89.0" y="105.0" font-size="20.0" font-family="helvetica">Geobacillus thermoglucosidasius ATCC 437427 (X60641)</text>
    </g>
    <g>
     <circle stroke="black" stroke-width="0.5" fill="#aaffff" cx="147.0" cy="161.0" r="1.0"/>
     <text stroke="none" x="147.0" y="161.0" font-size="10.0" font-family="helvetica">NT1.8</text>
    </g>
    <g>
     <circle stroke="black" stroke-width="0.5" fill="#aaffff" cx="156.0" cy="268.0" r="1.0"/>
     <text stroke="none" x="156.0" y="268.0" font-size="10.0" font-family="helvetica">NT1.9</text>
    </g>
    <g>
     <circle stroke="black" stroke-width="0.5" fill="#aaffff" cx="169.0" cy="183.0" r="1.0"/>
     <text stroke="none" x="169.0" y="183.0" font-size="20.0" font-family="helvetica">999</text>
    </g>
    <g>
     <circle stroke="black" stroke-width="0.5" fill="#aaffff" cx="170.0" cy="136.0" r="1.0"/>
     <text stroke="none" x="170.0" y="136.0" font-size="20.0" font-family="helvetica">Geobacillus stearothermophilus NBRC 12550T (AB271757)</text>
    </g>
    <g>
     <circle stroke="black" stroke-width="0.5" fill="#aaffff" cx="171.0" cy="167.0" r="1.0"/>
     <text stroke="none" x="171.0" y="167.0" font-size="20.0" font-family="helvetica">Geobacillus thermoleovorans BGSC 96A1T (AY608936)</text>
    </g>
    <g>
     <circle stroke="black" stroke-width="0.5" fill="#aaffff" cx="174.0" cy="199.0" r="1.0"/>
     <text stroke="none" x="174.0" y="199.0" font-size="20.0" font-family="helvetica">Geobacillus kaustophilus NCIMB 8547T (X60618)</text>
    </g>
    <g>
     <circle stroke="black" stroke-width="0.5" fill="#aaffff" cx="270.0" cy="307.0" r="1.0"/>
     <text stroke="none" x="270.0" y="307.0" font-size="10.0" font-family="helvetica">NT1.14</text>
    </g>
    <g>
     <circle stroke="black" stroke-width="0.5" fill="#aaffff" cx="316.0" cy="12.0" r="1.0"/>
     <text stroke="none" x="316.0" y="12.0" font-size="20.0" font-family="helvetica">Bacillus subtilis DSM 1OT (AJ276351)</text>
    </g>
    <g>
     <circle stroke="black" stroke-width="0.5" fill="#aaffff" cx="324.0" cy="230.0" r="1.0"/>
     <text stroke="none" x="324.0" y="230.0" font-size="20.0" font-family="helvetica">Geobacillus debilis TfT (AJ564616)</text>
    </g>
    <g>
     <circle stroke="black" stroke-width="0.5" fill="#aaffff" cx="445.0" cy="338.0" r="1.0"/>
     <text stroke="none" x="445.0" y="338.0" font-size="10.0" font-family="helvetica">NT1.17</text>
    </g>
    <g>
     <circle stroke="black" stroke-width="0.5" fill="#aaffff" cx="470.0" cy="354.0" r="1.0"/>
     <text stroke="none" x="470.0" y="354.0" font-size="20.0" font-family="helvetica">Calditerricola yamamurae YMO722T (AB308475)</text>
    </g>
    <g>
     <circle stroke="black" stroke-width="0.5" fill="#aaffff" cx="484.0" cy="323.0" r="1.0"/>
     <text stroke="none" x="484.0" y="323.0" font-size="20.0" font-family="helvetica">Calditerricola satsumensis YM081T (AB250968)</text>
    </g>
    <g>
     <circle stroke="black" stroke-width="0.5" fill="#aaffff" cx="531.0" cy="278.0" r="1.0"/>
     <text stroke="none" x="531.0" y="278.0" font-size="10.0" font-family="helvetica">NT1.20</text>
    </g>
    <g>
     <circle stroke="black" stroke-width="0.5" fill="#aaffff" cx="536.0" cy="261.0" r="1.0"/>
     <text stroke="none" x="536.0" y="261.0" font-size="20.0" font-family="helvetica">Planifilum yunnanense LA5T (DO1 19659)</text>
    </g>
    <g>
     <circle stroke="black" stroke-width="0.5" fill="#aaffff" cx="537.0" cy="293.0" r="1.0"/>
     <text stroke="none" x="537.0" y="293.0" font-size="20.0" font-family="helvetica">Planifilum fulgidum 5OO275T (ABO88362)</text>
    </g>
    <line stroke="black" x1="49.0" y1="43.0" x2="4.0" y2="43.0" stroke-width="0.5"/>
    <line stroke="black" x1="76.0" y1="74.0" x2="26.0" y2="116.0" stroke-width="0.5"/>
    <line stroke="black" x1="89.0" y1="105.0" x2="40.0" y2="159.0" stroke-width="0.5"/>
    <line stroke="black" x1="170.0" y1="136.0" x2="147.0" y2="161.0" stroke-width="0.5"/>
    <line stroke="black" x1="171.0" y1="167.0" x2="169.0" y2="183.0" stroke-width="0.5"/>
    <line stroke="black" x1="537.0" y1="293.0" x2="531.0" y2="278.0" stroke-width="0.5"/>
    <line stroke="black" x1="26.0" y1="116.0" x2="40.0" y2="159.0" stroke-width="0.5"/>
    <line stroke="black" x1="40.0" y1="159.0" x2="79.0" y2="213.0" stroke-width="0.5"/>
    <line stroke="black" x1="79.0" y1="213.0" x2="156.0" y2="268.0" stroke-width="0.5"/>
    <line stroke="black" x1="79.0" y1="213.0" x2="147.0" y2="161.0" stroke-width="0.5"/>
    <line stroke="black" x1="147.0" y1="161.0" x2="169.0" y2="183.0" stroke-width="0.5"/>
    <line stroke="black" x1="156.0" y1="268.0" x2="270.0" y2="307.0" stroke-width="0.5"/>
    <line stroke="black" x1="270.0" y1="307.0" x2="445.0" y2="338.0" stroke-width="0.5"/>
    <line stroke="black" x1="270.0" y1="307.0" x2="531.0" y2="278.0" stroke-width="0.5"/>
    <line stroke="black" x1="4.0" y1="43.0" x2="26.0" y2="116.0" stroke-width="0.5"/>
    <line stroke="black" x1="316.0" y1="12.0" x2="4.0" y2="43.0" stroke-width="0.5"/>
    <line stroke="black" x1="174.0" y1="199.0" x2="169.0" y2="183.0" stroke-width="0.5"/>
    <line stroke="black" x1="324.0" y1="230.0" x2="156.0" y2="268.0" stroke-width="0.5"/>
    <line stroke="black" x1="470.0" y1="354.0" x2="445.0" y2="338.0" stroke-width="0.5"/>
    <line stroke="black" x1="484.0" y1="323.0" x2="445.0" y2="338.0" stroke-width="0.5"/>
    <line stroke="black" x1="536.0" y1="261.0" x2="531.0" y2="278.0" stroke-width="0.5"/>
   </g>
  </g>
 </svg>
</svg>
