<?xml version="1.0" encoding="UTF-8"?>
<svg height="800.0" width="700.0" xmlns="http://www.w3.org/2000/svg">
 <svg>
  <g>
   <g>
    <g>
     <circle stroke="black" stroke-width="0.5" fill="#aaffff" cx="37.0" cy="196.0" r="1.0"/>
     <text stroke="none" x="37.0" y="196.0" font-size="10.0" font-family="helvetica">NT1.1</text>
    </g>
    <g>
     <circle stroke="black" stroke-width="0.5" fill="#aaffff" cx="44.0" cy="895.0" r="1.0"/>
     <text stroke="none" x="44.0" y="895.0" font-size="10.0" font-family="helvetica">NT1.2</text>
    </g>
    <g>
     <circle stroke="black" stroke-width="0.5" fill="#aaffff" cx="72.0" cy="1228.0" r="1.0"/>
     <text stroke="none" x="72.0" y="1228.0" font-size="10.0" font-family="helvetica">NT1.3</text>
    </g>
    <g>
     <circle stroke="black" stroke-width="0.5" fill="#aaffff" cx="95.0" cy="279.0" r="1.0"/>
     <text stroke="none" x="95.0" y="279.0" font-size="10.0" font-family="helvetica">NT1.4</text>
    </g>
    <g>
     <circle stroke="black" stroke-width="0.5" fill="#aaffff" cx="96.0" cy="565.0" r="1.0"/>
     <text stroke="none" x="96.0" y="565.0" font-size="10.0" font-family="helvetica">NT1.5</text>
    </g>
    <g>
     <circle stroke="black" stroke-width="0.5" fill="#aaffff" cx="99.0" cy="350.0" r="1.0"/>
     <text stroke="none" x="99.0" y="350.0" font-size="10.0" font-family="helvetica">NT1.6</text>
    </g>
    <g>
     <circle stroke="black" stroke-width="0.5" fill="#aaffff" cx="99.0" cy="1039.0" r="1.0"/>
     <text stroke="none" x="99.0" y="1039.0" font-size="10.0" font-family="helvetica">NT1.7</text>
    </g>
    <g>
     <circle stroke="black" stroke-width="0.5" fill="#aaffff" cx="129.0" cy="1109.0" r="1.0"/>
     <text stroke="none" x="129.0" y="1109.0" font-size="20.0" font-family="helvetica">100</text>
    </g>
    <g>
     <circle stroke="black" stroke-width="0.5" fill="#aaffff" cx="144.0" cy="635.0" r="1.0"/>
     <text stroke="none" x="144.0" y="635.0" font-size="10.0" font-family="helvetica">NT1.9</text>
    </g>
    <g>
     <circle stroke="black" stroke-width="0.5" fill="#aaffff" cx="144.0" cy="826.0" r="1.0"/>
     <text stroke="none" x="144.0" y="826.0" font-size="10.0" font-family="helvetica">NT1.10</text>
    </g>
    <g>
     <circle stroke="black" stroke-width="0.5" fill="#aaffff" cx="154.0" cy="1299.0" r="1.0"/>
     <text stroke="none" x="154.0" y="1299.0" font-size="10.0" font-family="helvetica">NT1.11</text>
    </g>
    <g>
     <circle stroke="black" stroke-width="0.5" fill="#aaffff" cx="155.0" cy="683.0" r="1.0"/>
     <text stroke="none" x="155.0" y="683.0" font-size="20.0" font-family="helvetica">Algibacter lectus KMM 39027 (AY187689)</text>
    </g>
    <g>
     <circle stroke="black" stroke-width="0.5" fill="#aaffff" cx="158.0" cy="588.0" r="1.0"/>
     <text stroke="none" x="158.0" y="588.0" font-size="20.0" font-family="helvetica">Algibacterlectus KMM 3914 (AY187690)</text>
    </g>
    <g>
     <circle stroke="black" stroke-width="0.5" fill="#aaffff" cx="167.0" cy="303.0" r="1.0"/>
     <text stroke="none" x="167.0" y="303.0" font-size="20.0" font-family="helvetica"> Winogradskyella thalassocola KMM 39O7T (AY521223)</text>
    </g>
    <g>
     <circle stroke="black" stroke-width="0.5" fill="#aaffff" cx="167.0" cy="967.0" r="1.0"/>
     <text stroke="none" x="167.0" y="967.0" font-size="20.0" font-family="helvetica"> Bizionia paragorgiae KMM 6029T (AY651070)</text>
    </g>
    <g>
     <circle stroke="black" stroke-width="0.5" fill="#aaffff" cx="170.0" cy="1062.0" r="1.0"/>
     <text stroke="none" x="170.0" y="1062.0" font-size="20.0" font-family="helvetica"> Bizionia saleffrena HFDT (AY694005)</text>
    </g>
    <g>
     <circle stroke="black" stroke-width="0.5" fill="#aaffff" cx="184.0" cy="777.0" r="1.0"/>
     <text stroke="none" x="184.0" y="777.0" font-size="20.0" font-family="helvetica">Formosa agariphila KMM 3901T (AY187688)</text>
    </g>
    <g>
     <circle stroke="black" stroke-width="0.5" fill="#aaffff" cx="188.0" cy="399.0" r="1.0"/>
     <text stroke="none" x="188.0" y="399.0" font-size="20.0" font-family="helvetica"> Winogradskyella eximia KMM 3944T (AY521225)</text>
    </g>
    <g>
     <circle stroke="black" stroke-width="0.5" fill="#aaffff" cx="193.0" cy="19.0" r="1.0"/>
     <text stroke="none" x="193.0" y="19.0" font-size="20.0" font-family="helvetica">Mariniflexile gromovii KMM 6O38T (DQ312294)</text>
    </g>
    <g>
     <circle stroke="black" stroke-width="0.5" fill="#aaffff" cx="194.0" cy="209.0" r="1.0"/>
     <text stroke="none" x="194.0" y="209.0" font-size="20.0" font-family="helvetica">Winogradskyella epiphytica KMM 39O6T (AY521224)</text>
    </g>
    <g>
     <circle stroke="black" stroke-width="0.5" fill="#aaffff" cx="195.0" cy="873.0" r="1.0"/>
     <text stroke="none" x="195.0" y="873.0" font-size="20.0" font-family="helvetica">Formosa algae KMM 3553T (AY228461)</text>
    </g>
    <g>
     <circle stroke="black" stroke-width="0.5" fill="#aaffff" cx="197.0" cy="1252.0" r="1.0"/>
     <text stroke="none" x="197.0" y="1252.0" font-size="20.0" font-family="helvetica"> Bizionia algoritergicola APA-1T (AY694003)</text>
    </g>
    <g>
     <circle stroke="black" stroke-width="0.5" fill="#aaffff" cx="198.0" cy="493.0" r="1.0"/>
     <text stroke="none" x="198.0" y="493.0" font-size="20.0" font-family="helvetica">Algibacter mikhailo vii KMM 6171T (AM491809)</text>
    </g>
    <g>
     <circle stroke="black" stroke-width="0.5" fill="#aaffff" cx="204.0" cy="113.0" r="1.0"/>
     <text stroke="none" x="204.0" y="113.0" font-size="20.0" font-family="helvetica">Winogradskyella poriferorum UST030701-295T (AY848823)</text>
    </g>
    <g>
     <circle stroke="black" stroke-width="0.5" fill="#aaffff" cx="206.0" cy="1157.0" r="1.0"/>
     <text stroke="none" x="206.0" y="1157.0" font-size="20.0" font-family="helvetica"> Bizioma gelidisalsuginis IC164T (AY694004)</text>
    </g>
    <g>
     <circle stroke="black" stroke-width="0.5" fill="#aaffff" cx="225.0" cy="1347.0" r="1.0"/>
     <text stroke="none" x="225.0" y="1347.0" font-size="20.0" font-family="helvetica"> Bizionia myxarmorum ADA-4T (AY694002)</text>
    </g>
    <line stroke="black" x1="204.0" y1="113.0" x2="37.0" y2="196.0" stroke-width="0.5"/>
    <line stroke="black" x1="194.0" y1="209.0" x2="95.0" y2="279.0" stroke-width="0.5"/>
    <line stroke="black" x1="167.0" y1="303.0" x2="99.0" y2="350.0" stroke-width="0.5"/>
    <line stroke="black" x1="188.0" y1="399.0" x2="99.0" y2="350.0" stroke-width="0.5"/>
    <line stroke="black" x1="155.0" y1="683.0" x2="144.0" y2="635.0" stroke-width="0.5"/>
    <line stroke="black" x1="198.0" y1="493.0" x2="96.0" y2="565.0" stroke-width="0.5"/>
    <line stroke="black" x1="158.0" y1="588.0" x2="144.0" y2="635.0" stroke-width="0.5"/>
    <line stroke="black" x1="184.0" y1="777.0" x2="144.0" y2="826.0" stroke-width="0.5"/>
    <line stroke="black" x1="195.0" y1="873.0" x2="144.0" y2="826.0" stroke-width="0.5"/>
    <line stroke="black" x1="167.0" y1="967.0" x2="99.0" y2="1039.0" stroke-width="0.5"/>
    <line stroke="black" x1="197.0" y1="1252.0" x2="154.0" y2="1299.0" stroke-width="0.5"/>
    <line stroke="black" x1="225.0" y1="1347.0" x2="154.0" y2="1299.0" stroke-width="0.5"/>
    <line stroke="black" x1="170.0" y1="1062.0" x2="129.0" y2="1109.0" stroke-width="0.5"/>
    <line stroke="black" x1="206.0" y1="1157.0" x2="129.0" y2="1109.0" stroke-width="0.5"/>
    <line stroke="black" x1="37.0" y1="196.0" x2="44.0" y2="895.0" stroke-width="0.5"/>
    <line stroke="black" x1="37.0" y1="196.0" x2="95.0" y2="279.0" stroke-width="0.5"/>
    <line stroke="black" x1="95.0" y1="279.0" x2="99.0" y2="350.0" stroke-width="0.5"/>
    <line stroke="black" x1="44.0" y1="895.0" x2="96.0" y2="565.0" stroke-width="0.5"/>
    <line stroke="black" x1="44.0" y1="895.0" x2="144.0" y2="826.0" stroke-width="0.5"/>
    <line stroke="black" x1="44.0" y1="895.0" x2="72.0" y2="1228.0" stroke-width="0.5"/>
    <line stroke="black" x1="96.0" y1="565.0" x2="144.0" y2="635.0" stroke-width="0.5"/>
    <line stroke="black" x1="72.0" y1="1228.0" x2="99.0" y2="1039.0" stroke-width="0.5"/>
    <line stroke="black" x1="72.0" y1="1228.0" x2="154.0" y2="1299.0" stroke-width="0.5"/>
    <line stroke="black" x1="99.0" y1="1039.0" x2="129.0" y2="1109.0" stroke-width="0.5"/>
    <line stroke="black" x1="193.0" y1="19.0" x2="37.0" y2="196.0" stroke-width="0.5"/>
   </g>
  </g>
 </svg>
</svg>
