<?xml version="1.0" encoding="UTF-8"?>
<svg height="800.0" width="700.0" xmlns="http://www.w3.org/2000/svg">
 <svg>
  <g>
   <g>
    <g>
     <circle stroke="black" stroke-width="0.5" fill="#aaffff" cx="17.0" cy="115.0" r="1.0"/>
     <text stroke="none" x="17.0" y="115.0" font-size="10.0" font-family="helvetica">NT1.1</text>
    </g>
    <g>
     <circle stroke="black" stroke-width="0.5" fill="#aaffff" cx="39.0" cy="1164.0" r="1.0"/>
     <text stroke="none" x="39.0" y="1164.0" font-size="10.0" font-family="helvetica">NT1.2</text>
    </g>
    <g>
     <circle stroke="black" stroke-width="0.5" fill="#aaffff" cx="39.0" cy="728.0" r="1.0"/>
     <text stroke="none" x="39.0" y="728.0" font-size="10.0" font-family="helvetica">NT1.3</text>
    </g>
    <g>
     <circle stroke="black" stroke-width="0.5" fill="#aaffff" cx="51.0" cy="1050.0" r="1.0"/>
     <text stroke="none" x="51.0" y="1050.0" font-size="10.0" font-family="helvetica">NT1.4</text>
    </g>
    <g>
     <circle stroke="black" stroke-width="0.5" fill="#aaffff" cx="63.0" cy="539.0" r="1.0"/>
     <text stroke="none" x="63.0" y="539.0" font-size="10.0" font-family="helvetica">NT1.5</text>
    </g>
    <g>
     <circle stroke="black" stroke-width="0.5" fill="#aaffff" cx="66.0" cy="306.0" r="1.0"/>
     <text stroke="none" x="66.0" y="306.0" font-size="20.0" font-family="helvetica">72</text>
    </g>
    <g>
     <circle stroke="black" stroke-width="0.5" fill="#aaffff" cx="74.0" cy="1527.0" r="1.0"/>
     <text stroke="none" x="74.0" y="1527.0" font-size="20.0" font-family="helvetica">86</text>
    </g>
    <g>
     <circle stroke="black" stroke-width="0.5" fill="#aaffff" cx="84.0" cy="708.0" r="1.0"/>
     <text stroke="none" x="84.0" y="708.0" font-size="10.0" font-family="helvetica">NT1.8</text>
    </g>
    <g>
     <circle stroke="black" stroke-width="0.5" fill="#aaffff" cx="110.0" cy="1053.0" r="1.0"/>
     <text stroke="none" x="110.0" y="1053.0" font-size="10.0" font-family="helvetica">NT1.9</text>
    </g>
    <g>
     <circle stroke="black" stroke-width="0.5" fill="#aaffff" cx="115.0" cy="1588.0" r="1.0"/>
     <text stroke="none" x="115.0" y="1588.0" font-size="20.0" font-family="helvetica">76</text>
    </g>
    <g>
     <circle stroke="black" stroke-width="0.5" fill="#aaffff" cx="162.0" cy="1750.0" r="1.0"/>
     <text stroke="none" x="162.0" y="1750.0" font-size="20.0" font-family="helvetica">I00</text>
    </g>
    <g>
     <circle stroke="black" stroke-width="0.5" fill="#aaffff" cx="162.0" cy="1348.0" r="1.0"/>
     <text stroke="none" x="162.0" y="1348.0" font-size="20.0" font-family="helvetica">100</text>
    </g>
    <g>
     <circle stroke="black" stroke-width="0.5" fill="#aaffff" cx="166.0" cy="806.0" r="1.0"/>
     <text stroke="none" x="166.0" y="806.0" font-size="10.0" font-family="helvetica">NT1.13</text>
    </g>
    <g>
     <circle stroke="black" stroke-width="0.5" fill="#aaffff" cx="184.0" cy="855.0" r="1.0"/>
     <text stroke="none" x="184.0" y="855.0" font-size="20.0" font-family="helvetica">1k</text>
    </g>
    <g>
     <circle stroke="black" stroke-width="0.5" fill="#aaffff" cx="200.0" cy="961.0" r="1.0"/>
     <text stroke="none" x="200.0" y="961.0" font-size="20.0" font-family="helvetica">75</text>
    </g>
    <g>
     <circle stroke="black" stroke-width="0.5" fill="#aaffff" cx="257.0" cy="26.0" r="1.0"/>
     <text stroke="none" x="257.0" y="26.0" font-size="20.0" font-family="helvetica">Flavobacterium aquatile ATCC 119471 (M62797)</text>
    </g>
    <g>
     <circle stroke="black" stroke-width="0.5" fill="#aaffff" cx="258.0" cy="425.0" r="1.0"/>
     <text stroke="none" x="258.0" y="425.0" font-size="10.0" font-family="helvetica">NT1.17</text>
    </g>
    <g>
     <circle stroke="black" stroke-width="0.5" fill="#aaffff" cx="268.0" cy="1549.0" r="1.0"/>
     <text stroke="none" x="268.0" y="1549.0" font-size="10.0" font-family="helvetica">NT1.18</text>
    </g>
    <g>
     <circle stroke="black" stroke-width="0.5" fill="#aaffff" cx="276.0" cy="267.0" r="1.0"/>
     <text stroke="none" x="276.0" y="267.0" font-size="20.0" font-family="helvetica">Gelidibacter algens ACAM 5361 (U62914)</text>
    </g>
    <g>
     <circle stroke="black" stroke-width="0.5" fill="#aaffff" cx="283.0" cy="1058.0" r="1.0"/>
     <text stroke="none" x="283.0" y="1058.0" font-size="20.0" font-family="helvetica">1</text>
    </g>
    <g>
     <circle stroke="black" stroke-width="0.5" fill="#aaffff" cx="288.0" cy="1388.0" r="1.0"/>
     <text stroke="none" x="288.0" y="1388.0" font-size="10.0" font-family="helvetica">NT1.21</text>
    </g>
    <g>
     <circle stroke="black" stroke-width="0.5" fill="#aaffff" cx="291.0" cy="345.0" r="1.0"/>
     <text stroke="none" x="291.0" y="345.0" font-size="20.0" font-family="helvetica">Psychroserpens burtonensis ACAM 1881 (U62913)</text>
    </g>
    <g>
     <circle stroke="black" stroke-width="0.5" fill="#aaffff" cx="294.0" cy="1098.0" r="1.0"/>
     <text stroke="none" x="294.0" y="1098.0" font-size="10.0" font-family="helvetica">NT1.23</text>
    </g>
    <g>
     <circle stroke="black" stroke-width="0.5" fill="#aaffff" cx="298.0" cy="1628.0" r="1.0"/>
     <text stroke="none" x="298.0" y="1628.0" font-size="20.0" font-family="helvetica">Salegentibacter salegens DSM 5424T (M92279)</text>
    </g>
    <g>
     <circle stroke="black" stroke-width="0.5" fill="#aaffff" cx="301.0" cy="506.0" r="1.0"/>
     <text stroke="none" x="301.0" y="506.0" font-size="20.0" font-family="helvetica">Cellulophaga algicola lC1661 (AFO01366)</text>
    </g>
    <g>
     <circle stroke="black" stroke-width="0.5" fill="#aaffff" cx="301.0" cy="586.0" r="1.0"/>
     <text stroke="none" x="301.0" y="586.0" font-size="10.0" font-family="helvetica">NT1.26</text>
    </g>
    <g>
     <circle stroke="black" stroke-width="0.5" fill="#aaffff" cx="307.0" cy="1192.0" r="1.0"/>
     <text stroke="none" x="307.0" y="1192.0" font-size="10.0" font-family="helvetica">NT1.27</text>
    </g>
    <g>
     <circle stroke="black" stroke-width="0.5" fill="#aaffff" cx="324.0" cy="186.0" r="1.0"/>
     <text stroke="none" x="324.0" y="186.0" font-size="20.0" font-family="helvetica">Coenonia anatina LMG 143821 (Y17612)</text>
    </g>
    <g>
     <circle stroke="black" stroke-width="0.5" fill="#aaffff" cx="326.0" cy="1308.0" r="1.0"/>
     <text stroke="none" x="326.0" y="1308.0" font-size="20.0" font-family="helvetica">Aequorivita antarctica SW491 (AYO27802)</text>
    </g>
    <g>
     <circle stroke="black" stroke-width="0.5" fill="#aaffff" cx="336.0" cy="1469.0" r="1.0"/>
     <text stroke="none" x="336.0" y="1469.0" font-size="20.0" font-family="helvetica">Psychroflexus torquis ACAM 6231 (U85881)</text>
    </g>
    <g>
     <circle stroke="black" stroke-width="0.5" fill="#aaffff" cx="341.0" cy="1789.0" r="1.0"/>
     <text stroke="none" x="341.0" y="1789.0" font-size="10.0" font-family="helvetica">NT1.31</text>
    </g>
    <g>
     <circle stroke="black" stroke-width="0.5" fill="#aaffff" cx="346.0" cy="987.0" r="1.0"/>
     <text stroke="none" x="346.0" y="987.0" font-size="20.0" font-family="helvetica">Maribacter ulvicola KMM 39511 (AY271626)</text>
    </g>
    <g>
     <circle stroke="black" stroke-width="0.5" fill="#aaffff" cx="347.0" cy="1146.0" r="1.0"/>
     <text stroke="none" x="347.0" y="1146.0" font-size="20.0" font-family="helvetica">Maribacter orientalis KMM 39471 (AY271624)</text>
    </g>
    <g>
     <circle stroke="black" stroke-width="0.5" fill="#aaffff" cx="347.0" cy="857.0" r="1.0"/>
     <text stroke="none" x="347.0" y="857.0" font-size="10.0" font-family="helvetica">NT1.34</text>
    </g>
    <g>
     <circle stroke="black" stroke-width="0.5" fill="#aaffff" cx="349.0" cy="1228.0" r="1.0"/>
     <text stroke="none" x="349.0" y="1228.0" font-size="20.0" font-family="helvetica">Maribacter aquivivus KMM 39491 (AY271625)</text>
    </g>
    <g>
     <circle stroke="black" stroke-width="0.5" fill="#aaffff" cx="354.0" cy="826.0" r="1.0"/>
     <text stroke="none" x="354.0" y="826.0" font-size="20.0" font-family="helvetica">Zobellia uliginosa ATCC 143971 (M62799)</text>
    </g>
    <g>
     <circle stroke="black" stroke-width="0.5" fill="#aaffff" cx="361.0" cy="1709.0" r="1.0"/>
     <text stroke="none" x="361.0" y="1709.0" font-size="20.0" font-family="helvetica">Tenacibaculum maritimum ATCC 433981 (M64629)</text>
    </g>
    <g>
     <circle stroke="black" stroke-width="0.5" fill="#aaffff" cx="364.0" cy="906.0" r="1.0"/>
     <text stroke="none" x="364.0" y="906.0" font-size="10.0" font-family="helvetica">NT1.38</text>
    </g>
    <g>
     <circle stroke="black" stroke-width="0.5" fill="#aaffff" cx="368.0" cy="1068.0" r="1.0"/>
     <text stroke="none" x="368.0" y="1068.0" font-size="10.0" font-family="helvetica">NT1.39</text>
    </g>
    <g>
     <circle stroke="black" stroke-width="0.5" fill="#aaffff" cx="370.0" cy="666.0" r="1.0"/>
     <text stroke="none" x="370.0" y="666.0" font-size="20.0" font-family="helvetica">Arenibacter latericius KMM 4261 (AF052742)</text>
    </g>
    <g>
     <circle stroke="black" stroke-width="0.5" fill="#aaffff" cx="396.0" cy="105.0" r="1.0"/>
     <text stroke="none" x="396.0" y="105.0" font-size="20.0" font-family="helvetica">Capnocytophaga ochracea ATCC 278721 (U41350)</text>
    </g>
    <g>
     <circle stroke="black" stroke-width="0.5" fill="#aaffff" cx="412.0" cy="746.0" r="1.0"/>
     <text stroke="none" x="412.0" y="746.0" font-size="10.0" font-family="helvetica">NT1.42</text>
    </g>
    <g>
     <circle stroke="black" stroke-width="0.5" fill="#aaffff" cx="17.0" cy="28.0" r="1.0"/>
     <text stroke="none" x="17.0" y="28.0" font-size="10.0" font-family="helvetica">NT1.43</text>
    </g>
    <line stroke="black" x1="336.0" y1="1469.0" x2="74.0" y2="1527.0" stroke-width="0.5"/>
    <line stroke="black" x1="354.0" y1="826.0" x2="347.0" y2="857.0" stroke-width="0.5"/>
    <line stroke="black" x1="347.0" y1="1146.0" x2="307.0" y2="1192.0" stroke-width="0.5"/>
    <line stroke="black" x1="349.0" y1="1228.0" x2="307.0" y2="1192.0" stroke-width="0.5"/>
    <line stroke="black" x1="39.0" y1="1164.0" x2="39.0" y2="728.0" stroke-width="0.5"/>
    <line stroke="black" x1="294.0" y1="1098.0" x2="307.0" y2="1192.0" stroke-width="0.5"/>
    <line stroke="black" x1="17.0" y1="28.0" x2="17.0" y2="115.0" stroke-width="0.5"/>
    <line stroke="black" x1="39.0" y1="1164.0" x2="17.0" y2="115.0" stroke-width="0.5"/>
    <line stroke="black" x1="39.0" y1="728.0" x2="66.0" y2="306.0" stroke-width="0.5"/>
    <line stroke="black" x1="39.0" y1="728.0" x2="51.0" y2="1050.0" stroke-width="0.5"/>
    <line stroke="black" x1="51.0" y1="1050.0" x2="63.0" y2="539.0" stroke-width="0.5"/>
    <line stroke="black" x1="74.0" y1="1527.0" x2="51.0" y2="1050.0" stroke-width="0.5"/>
    <line stroke="black" x1="84.0" y1="708.0" x2="110.0" y2="1053.0" stroke-width="0.5"/>
    <line stroke="black" x1="276.0" y1="267.0" x2="66.0" y2="306.0" stroke-width="0.5"/>
    <line stroke="black" x1="110.0" y1="1053.0" x2="166.0" y2="806.0" stroke-width="0.5"/>
    <line stroke="black" x1="298.0" y1="1628.0" x2="115.0" y2="1588.0" stroke-width="0.5"/>
    <line stroke="black" x1="301.0" y1="506.0" x2="63.0" y2="539.0" stroke-width="0.5"/>
    <line stroke="black" x1="324.0" y1="186.0" x2="17.0" y2="115.0" stroke-width="0.5"/>
    <line stroke="black" x1="291.0" y1="345.0" x2="66.0" y2="306.0" stroke-width="0.5"/>
    <line stroke="black" x1="257.0" y1="26.0" x2="17.0" y2="28.0" stroke-width="0.5"/>
    <line stroke="black" x1="184.0" y1="855.0" x2="200.0" y2="961.0" stroke-width="0.5"/>
    <line stroke="black" x1="283.0" y1="1058.0" x2="200.0" y2="961.0" stroke-width="0.5"/>
    <line stroke="black" x1="326.0" y1="1308.0" x2="162.0" y2="1348.0" stroke-width="0.5"/>
    <line stroke="black" x1="346.0" y1="987.0" x2="283.0" y2="1058.0" stroke-width="0.5"/>
    <line stroke="black" x1="361.0" y1="1709.0" x2="162.0" y2="1750.0" stroke-width="0.5"/>
    <line stroke="black" x1="370.0" y1="666.0" x2="166.0" y2="806.0" stroke-width="0.5"/>
    <line stroke="black" x1="396.0" y1="105.0" x2="17.0" y2="115.0" stroke-width="0.5"/>
   </g>
  </g>
 </svg>
</svg>
