<?xml version="1.0" encoding="UTF-8"?>
<svg height="800.0" width="700.0" xmlns="http://www.w3.org/2000/svg">
 <svg>
  <g>
   <g>
    <g>
     <circle stroke="black" stroke-width="0.5" fill="#aaffff" cx="337.0" cy="617.0" r="1.0"/>
     <text stroke="none" x="337.0" y="617.0" font-size="10.0" font-family="helvetica">NT1.1</text>
    </g>
    <g>
     <circle stroke="black" stroke-width="0.5" fill="#aaffff" cx="340.0" cy="737.0" r="1.0"/>
     <text stroke="none" x="340.0" y="737.0" font-size="10.0" font-family="helvetica">NT1.2</text>
    </g>
    <g>
     <circle stroke="black" stroke-width="0.5" fill="#aaffff" cx="348.0" cy="797.0" r="1.0"/>
     <text stroke="none" x="348.0" y="797.0" font-size="20.0" font-family="helvetica">Saccharomyces cerevisiae CBS 11717 (U44806)</text>
    </g>
    <g>
     <circle stroke="black" stroke-width="0.5" fill="#aaffff" cx="371.0" cy="494.0" r="1.0"/>
     <text stroke="none" x="371.0" y="494.0" font-size="10.0" font-family="helvetica">NT1.4</text>
    </g>
    <g>
     <circle stroke="black" stroke-width="0.5" fill="#aaffff" cx="378.0" cy="574.0" r="1.0"/>
     <text stroke="none" x="378.0" y="574.0" font-size="10.0" font-family="helvetica">NT1.5</text>
    </g>
    <g>
     <circle stroke="black" stroke-width="0.5" fill="#aaffff" cx="392.0" cy="655.0" r="1.0"/>
     <text stroke="none" x="392.0" y="655.0" font-size="10.0" font-family="helvetica">NT1.6</text>
    </g>
    <g>
     <circle stroke="black" stroke-width="0.5" fill="#aaffff" cx="414.0" cy="378.0" r="1.0"/>
     <text stroke="none" x="414.0" y="378.0" font-size="10.0" font-family="helvetica">NT1.7</text>
    </g>
    <g>
     <circle stroke="black" stroke-width="0.5" fill="#aaffff" cx="428.0" cy="532.0" r="1.0"/>
     <text stroke="none" x="428.0" y="532.0" font-size="10.0" font-family="helvetica">NT1.8</text>
    </g>
    <g>
     <circle stroke="black" stroke-width="0.5" fill="#aaffff" cx="484.0" cy="552.0" r="1.0"/>
     <text stroke="none" x="484.0" y="552.0" font-size="20.0" font-family="helvetica">lssatchenkia occidentalis CBS 54597 (U76348)</text>
    </g>
    <g>
     <circle stroke="black" stroke-width="0.5" fill="#aaffff" cx="485.0" cy="593.0" r="1.0"/>
     <text stroke="none" x="485.0" y="593.0" font-size="20.0" font-family="helvetica">Candida rugopeiliculosa CBS 6377T (U71069)</text>
    </g>
    <g>
     <circle stroke="black" stroke-width="0.5" fill="#aaffff" cx="487.0" cy="286.0" r="1.0"/>
     <text stroke="none" x="487.0" y="286.0" font-size="20.0" font-family="helvetica">100</text>
    </g>
    <g>
     <circle stroke="black" stroke-width="0.5" fill="#aaffff" cx="495.0" cy="510.0" r="1.0"/>
     <text stroke="none" x="495.0" y="510.0" font-size="20.0" font-family="helvetica">Issatchenkia scutulata var. exigue (U76349)</text>
    </g>
    <g>
     <circle stroke="black" stroke-width="0.5" fill="#aaffff" cx="506.0" cy="634.0" r="1.0"/>
     <text stroke="none" x="506.0" y="634.0" font-size="20.0" font-family="helvetica">Candida pseudolambica CBS 2O63T (U71063)</text>
    </g>
    <g>
     <circle stroke="black" stroke-width="0.5" fill="#aaffff" cx="523.0" cy="676.0" r="1.0"/>
     <text stroke="none" x="523.0" y="676.0" font-size="20.0" font-family="helvetica">Issatchenkia hanoiensis HB1.3.13T (AY163900)</text>
    </g>
    <g>
     <circle stroke="black" stroke-width="0.5" fill="#aaffff" cx="529.0" cy="758.0" r="1.0"/>
     <text stroke="none" x="529.0" y="758.0" font-size="20.0" font-family="helvetica">lssatchenkia terricola CBS 2617T (U76345)</text>
    </g>
    <g>
     <circle stroke="black" stroke-width="0.5" fill="#aaffff" cx="534.0" cy="179.0" r="1.0"/>
     <text stroke="none" x="534.0" y="179.0" font-size="10.0" font-family="helvetica">NT1.16</text>
    </g>
    <g>
     <circle stroke="black" stroke-width="0.5" fill="#aaffff" cx="549.0" cy="114.0" r="1.0"/>
     <text stroke="none" x="549.0" y="114.0" font-size="20.0" font-family="helvetica">mo</text>
    </g>
    <g>
     <circle stroke="black" stroke-width="0.5" fill="#aaffff" cx="554.0" cy="470.0" r="1.0"/>
     <text stroke="none" x="554.0" y="470.0" font-size="20.0" font-family="helvetica">Issatchenkia orientalis CBS 5147T (U76347)</text>
    </g>
    <g>
     <circle stroke="black" stroke-width="0.5" fill="#aaffff" cx="558.0" cy="68.0" r="1.0"/>
     <text stroke="none" x="558.0" y="68.0" font-size="10.0" font-family="helvetica">NT1.19</text>
    </g>
    <g>
     <circle stroke="black" stroke-width="0.5" fill="#aaffff" cx="567.0" cy="717.0" r="1.0"/>
     <text stroke="none" x="567.0" y="717.0" font-size="20.0" font-family="helvetica">Pichia fermentans CBS 1877 (U75726)</text>
    </g>
    <g>
     <circle stroke="black" stroke-width="0.5" fill="#aaffff" cx="581.0" cy="391.0" r="1.0"/>
     <text stroke="none" x="581.0" y="391.0" font-size="10.0" font-family="helvetica">NT1.21</text>
    </g>
    <g>
     <circle stroke="black" stroke-width="0.5" fill="#aaffff" cx="582.0" cy="429.0" r="1.0"/>
     <text stroke="none" x="582.0" y="429.0" font-size="20.0" font-family="helvetica">Candida thaimueangensis TM1-O7 (AB264014)</text>
    </g>
    <g>
     <circle stroke="black" stroke-width="0.5" fill="#aaffff" cx="582.0" cy="303.0" r="1.0"/>
     <text stroke="none" x="582.0" y="303.0" font-size="20.0" font-family="helvetica">Candida thaimueangensis TM1-017 (AB264009)</text>
    </g>
    <g>
     <circle stroke="black" stroke-width="0.5" fill="#aaffff" cx="595.0" cy="264.0" r="1.0"/>
     <text stroke="none" x="595.0" y="264.0" font-size="20.0" font-family="helvetica">Candida valida CBS 6387 (AJ508586)</text>
    </g>
    <g>
     <circle stroke="black" stroke-width="0.5" fill="#aaffff" cx="600.0" cy="169.0" r="1.0"/>
     <text stroke="none" x="600.0" y="169.0" font-size="20.0" font-family="helvetica">mo</text>
    </g>
    <g>
     <circle stroke="black" stroke-width="0.5" fill="#aaffff" cx="607.0" cy="98.0" r="1.0"/>
     <text stroke="none" x="607.0" y="98.0" font-size="20.0" font-family="helvetica">Candida californica CBS 989T (DQ104729)</text>
    </g>
    <g>
     <circle stroke="black" stroke-width="0.5" fill="#aaffff" cx="608.0" cy="180.0" r="1.0"/>
     <text stroke="none" x="608.0" y="180.0" font-size="20.0" font-family="helvetica">Candida ethanolica CBS 8041T (U71073)</text>
    </g>
    <g>
     <circle stroke="black" stroke-width="0.5" fill="#aaffff" cx="610.0" cy="139.0" r="1.0"/>
     <text stroke="none" x="610.0" y="139.0" font-size="20.0" font-family="helvetica">Pichia deserficola CBS 7119T (U75734)</text>
    </g>
    <g>
     <circle stroke="black" stroke-width="0.5" fill="#aaffff" cx="625.0" cy="58.0" r="1.0"/>
     <text stroke="none" x="625.0" y="58.0" font-size="20.0" font-family="helvetica">Pichia manchurica CBS 209T (DQ104714)</text>
    </g>
    <g>
     <circle stroke="black" stroke-width="0.5" fill="#aaffff" cx="625.0" cy="37.0" r="1.0"/>
     <text stroke="none" x="625.0" y="37.0" font-size="20.0" font-family="helvetica">100</text>
    </g>
    <g>
     <circle stroke="black" stroke-width="0.5" fill="#aaffff" cx="626.0" cy="14.0" r="1.0"/>
     <text stroke="none" x="626.0" y="14.0" font-size="20.0" font-family="helvetica">Pichia galeiformis CBS 7324T (U75738)</text>
    </g>
    <line stroke="black" x1="626.0" y1="14.0" x2="625.0" y2="37.0" stroke-width="0.5"/>
    <line stroke="black" x1="625.0" y1="58.0" x2="625.0" y2="37.0" stroke-width="0.5"/>
    <line stroke="black" x1="608.0" y1="180.0" x2="600.0" y2="169.0" stroke-width="0.5"/>
    <line stroke="black" x1="582.0" y1="429.0" x2="581.0" y2="391.0" stroke-width="0.5"/>
    <line stroke="black" x1="582.0" y1="303.0" x2="581.0" y2="391.0" stroke-width="0.5"/>
    <line stroke="black" x1="529.0" y1="758.0" x2="340.0" y2="737.0" stroke-width="0.5"/>
    <line stroke="black" x1="567.0" y1="717.0" x2="340.0" y2="737.0" stroke-width="0.5"/>
    <line stroke="black" x1="625.0" y1="37.0" x2="558.0" y2="68.0" stroke-width="0.5"/>
    <line stroke="black" x1="558.0" y1="68.0" x2="549.0" y2="114.0" stroke-width="0.5"/>
    <line stroke="black" x1="549.0" y1="114.0" x2="534.0" y2="179.0" stroke-width="0.5"/>
    <line stroke="black" x1="549.0" y1="114.0" x2="600.0" y2="169.0" stroke-width="0.5"/>
    <line stroke="black" x1="534.0" y1="179.0" x2="487.0" y2="286.0" stroke-width="0.5"/>
    <line stroke="black" x1="487.0" y1="286.0" x2="414.0" y2="378.0" stroke-width="0.5"/>
    <line stroke="black" x1="487.0" y1="286.0" x2="581.0" y2="391.0" stroke-width="0.5"/>
    <line stroke="black" x1="414.0" y1="378.0" x2="371.0" y2="494.0" stroke-width="0.5"/>
    <line stroke="black" x1="371.0" y1="494.0" x2="337.0" y2="617.0" stroke-width="0.5"/>
    <line stroke="black" x1="371.0" y1="494.0" x2="378.0" y2="574.0" stroke-width="0.5"/>
    <line stroke="black" x1="378.0" y1="574.0" x2="392.0" y2="655.0" stroke-width="0.5"/>
    <line stroke="black" x1="378.0" y1="574.0" x2="428.0" y2="532.0" stroke-width="0.5"/>
    <line stroke="black" x1="337.0" y1="617.0" x2="340.0" y2="737.0" stroke-width="0.5"/>
    <line stroke="black" x1="348.0" y1="797.0" x2="337.0" y2="617.0" stroke-width="0.5"/>
    <line stroke="black" x1="506.0" y1="634.0" x2="392.0" y2="655.0" stroke-width="0.5"/>
    <line stroke="black" x1="523.0" y1="676.0" x2="392.0" y2="655.0" stroke-width="0.5"/>
    <line stroke="black" x1="484.0" y1="552.0" x2="428.0" y2="532.0" stroke-width="0.5"/>
    <line stroke="black" x1="495.0" y1="510.0" x2="428.0" y2="532.0" stroke-width="0.5"/>
    <line stroke="black" x1="485.0" y1="593.0" x2="378.0" y2="574.0" stroke-width="0.5"/>
    <line stroke="black" x1="554.0" y1="470.0" x2="414.0" y2="378.0" stroke-width="0.5"/>
    <line stroke="black" x1="607.0" y1="98.0" x2="558.0" y2="68.0" stroke-width="0.5"/>
    <line stroke="black" x1="595.0" y1="264.0" x2="534.0" y2="179.0" stroke-width="0.5"/>
    <line stroke="black" x1="610.0" y1="139.0" x2="600.0" y2="169.0" stroke-width="0.5"/>
   </g>
  </g>
 </svg>
</svg>
