<?xml version="1.0" encoding="UTF-8"?>
<svg height="800.0" width="700.0" xmlns="http://www.w3.org/2000/svg">
 <svg>
  <g>
   <g>
    <g>
     <circle stroke="black" stroke-width="0.5" fill="#aaffff" cx="5.0" cy="823.0" r="1.0"/>
     <text stroke="none" x="5.0" y="823.0" font-size="10.0" font-family="helvetica">NT1.1</text>
    </g>
    <g>
     <circle stroke="black" stroke-width="0.5" fill="#aaffff" cx="162.0" cy="667.0" r="1.0"/>
     <text stroke="none" x="162.0" y="667.0" font-size="10.0" font-family="helvetica">NT1.2</text>
    </g>
    <g>
     <circle stroke="black" stroke-width="0.5" fill="#aaffff" cx="191.0" cy="544.0" r="1.0"/>
     <text stroke="none" x="191.0" y="544.0" font-size="20.0" font-family="helvetica">567</text>
    </g>
    <g>
     <circle stroke="black" stroke-width="0.5" fill="#aaffff" cx="212.0" cy="412.0" r="1.0"/>
     <text stroke="none" x="212.0" y="412.0" font-size="10.0" font-family="helvetica">NT1.4</text>
    </g>
    <g>
     <circle stroke="black" stroke-width="0.5" fill="#aaffff" cx="237.0" cy="664.0" r="1.0"/>
     <text stroke="none" x="237.0" y="664.0" font-size="10.0" font-family="helvetica">NT1.5</text>
    </g>
    <g>
     <circle stroke="black" stroke-width="0.5" fill="#aaffff" cx="238.0" cy="426.0" r="1.0"/>
     <text stroke="none" x="238.0" y="426.0" font-size="10.0" font-family="helvetica">NT1.6</text>
    </g>
    <g>
     <circle stroke="black" stroke-width="0.5" fill="#aaffff" cx="251.0" cy="761.0" r="1.0"/>
     <text stroke="none" x="251.0" y="761.0" font-size="10.0" font-family="helvetica">NT1.7</text>
    </g>
    <g>
     <circle stroke="black" stroke-width="0.5" fill="#aaffff" cx="273.0" cy="226.0" r="1.0"/>
     <text stroke="none" x="273.0" y="226.0" font-size="10.0" font-family="helvetica">NT1.8</text>
    </g>
    <g>
     <circle stroke="black" stroke-width="0.5" fill="#aaffff" cx="280.0" cy="630.0" r="1.0"/>
     <text stroke="none" x="280.0" y="630.0" font-size="10.0" font-family="helvetica">NT1.9</text>
    </g>
    <g>
     <circle stroke="black" stroke-width="0.5" fill="#aaffff" cx="382.0" cy="305.0" r="1.0"/>
     <text stroke="none" x="382.0" y="305.0" font-size="10.0" font-family="helvetica">NT1.10</text>
    </g>
    <g>
     <circle stroke="black" stroke-width="0.5" fill="#aaffff" cx="389.0" cy="600.0" r="1.0"/>
     <text stroke="none" x="389.0" y="600.0" font-size="10.0" font-family="helvetica">NT1.11</text>
    </g>
    <g>
     <circle stroke="black" stroke-width="0.5" fill="#aaffff" cx="416.0" cy="517.0" r="1.0"/>
     <text stroke="none" x="416.0" y="517.0" font-size="10.0" font-family="helvetica">NT1.12</text>
    </g>
    <g>
     <circle stroke="black" stroke-width="0.5" fill="#aaffff" cx="421.0" cy="901.0" r="1.0"/>
     <text stroke="none" x="421.0" y="901.0" font-size="20.0" font-family="helvetica">Escherichia coli (V00348)</text>
    </g>
    <g>
     <circle stroke="black" stroke-width="0.5" fill="#aaffff" cx="428.0" cy="741.0" r="1.0"/>
     <text stroke="none" x="428.0" y="741.0" font-size="20.0" font-family="helvetica"/>
    </g>
    <g>
     <circle stroke="black" stroke-width="0.5" fill="#aaffff" cx="436.0" cy="129.0" r="1.0"/>
     <text stroke="none" x="436.0" y="129.0" font-size="10.0" font-family="helvetica">NT1.15</text>
    </g>
    <g>
     <circle stroke="black" stroke-width="0.5" fill="#aaffff" cx="448.0" cy="821.0" r="1.0"/>
     <text stroke="none" x="448.0" y="821.0" font-size="20.0" font-family="helvetica">Marinobacterium georgiense ATCC 7000747 (U58339)</text>
    </g>
    <g>
     <circle stroke="black" stroke-width="0.5" fill="#aaffff" cx="466.0" cy="861.0" r="1.0"/>
     <text stroke="none" x="466.0" y="861.0" font-size="20.0" font-family="helvetica">Alteromonas macleodii IAM 129207 (X82145)</text>
    </g>
    <g>
     <circle stroke="black" stroke-width="0.5" fill="#aaffff" cx="470.0" cy="277.0" r="1.0"/>
     <text stroke="none" x="470.0" y="277.0" font-size="10.0" font-family="helvetica">NT1.18</text>
    </g>
    <g>
     <circle stroke="black" stroke-width="0.5" fill="#aaffff" cx="480.0" cy="539.0" r="1.0"/>
     <text stroke="none" x="480.0" y="539.0" font-size="20.0" font-family="helvetica">Oceanospirillum beijen'nckii ATCC 127547 (AB006760)</text>
    </g>
    <g>
     <circle stroke="black" stroke-width="0.5" fill="#aaffff" cx="480.0" cy="397.0" r="1.0"/>
     <text stroke="none" x="480.0" y="397.0" font-size="10.0" font-family="helvetica">NT1.20</text>
    </g>
    <g>
     <circle stroke="black" stroke-width="0.5" fill="#aaffff" cx="481.0" cy="418.0" r="1.0"/>
     <text stroke="none" x="481.0" y="418.0" font-size="20.0" font-family="helvetica">Marinobacter aquaeolei ATCC 7004917 (AJO00726)</text>
    </g>
    <g>
     <circle stroke="black" stroke-width="0.5" fill="#aaffff" cx="495.0" cy="195.0" r="1.0"/>
     <text stroke="none" x="495.0" y="195.0" font-size="10.0" font-family="helvetica">NT1.22</text>
    </g>
    <g>
     <circle stroke="black" stroke-width="0.5" fill="#aaffff" cx="497.0" cy="80.0" r="1.0"/>
     <text stroke="none" x="497.0" y="80.0" font-size="10.0" font-family="helvetica">NT1.23</text>
    </g>
    <g>
     <circle stroke="black" stroke-width="0.5" fill="#aaffff" cx="501.0" cy="256.0" r="1.0"/>
     <text stroke="none" x="501.0" y="256.0" font-size="20.0" font-family="helvetica">Microbulbifer salipaludis SM-17 (AF479688)</text>
    </g>
    <g>
     <circle stroke="black" stroke-width="0.5" fill="#aaffff" cx="501.0" cy="781.0" r="1.0"/>
     <text stroke="none" x="501.0" y="781.0" font-size="20.0" font-family="helvetica">Marinomonas mediterranea ATCC 7004927 (AFO63027)</text>
    </g>
    <g>
     <circle stroke="black" stroke-width="0.5" fill="#aaffff" cx="503.0" cy="498.0" r="1.0"/>
     <text stroke="none" x="503.0" y="498.0" font-size="20.0" font-family="helvetica">Oceanospirillum Iinum ATCC 113367 (M22365)</text>
    </g>
    <g>
     <circle stroke="black" stroke-width="0.5" fill="#aaffff" cx="503.0" cy="27.0" r="1.0"/>
     <text stroke="none" x="503.0" y="27.0" font-size="10.0" font-family="helvetica">NT1.27</text>
    </g>
    <g>
     <circle stroke="black" stroke-width="0.5" fill="#aaffff" cx="506.0" cy="377.0" r="1.0"/>
     <text stroke="none" x="506.0" y="377.0" font-size="20.0" font-family="helvetica">Marinobacter hydrocarbonoclasticus ATCC 498407 (X67022)</text>
    </g>
    <g>
     <circle stroke="black" stroke-width="0.5" fill="#aaffff" cx="518.0" cy="336.0" r="1.0"/>
     <text stroke="none" x="518.0" y="336.0" font-size="20.0" font-family="helvetica">Pseudomonas elongata DSM 68107 (AF500006)</text>
    </g>
    <g>
     <circle stroke="black" stroke-width="0.5" fill="#aaffff" cx="525.0" cy="296.0" r="1.0"/>
     <text stroke="none" x="525.0" y="296.0" font-size="20.0" font-family="helvetica">Microbulbifer hydrolyticus ATCC 7000727 (U58338)</text>
    </g>
    <g>
     <circle stroke="black" stroke-width="0.5" fill="#aaffff" cx="526.0" cy="700.0" r="1.0"/>
     <text stroke="none" x="526.0" y="700.0" font-size="20.0" font-family="helvetica">Marinospirillum minutulum ATCC 191937 (AB006769)</text>
    </g>
    <g>
     <circle stroke="black" stroke-width="0.5" fill="#aaffff" cx="539.0" cy="136.0" r="1.0"/>
     <text stroke="none" x="539.0" y="136.0" font-size="20.0" font-family="helvetica">Pseudomonas putida DSM 2917 (276667)</text>
    </g>
    <g>
     <circle stroke="black" stroke-width="0.5" fill="#aaffff" cx="549.0" cy="215.0" r="1.0"/>
     <text stroke="none" x="549.0" y="215.0" font-size="20.0" font-family="helvetica">Pseudomonas stutzeri CCUG 112567 (U26262)</text>
    </g>
    <g>
     <circle stroke="black" stroke-width="0.5" fill="#aaffff" cx="553.0" cy="620.0" r="1.0"/>
     <text stroke="none" x="553.0" y="620.0" font-size="20.0" font-family="helvetica">Halomonas desiderata DSM 95027 (X92417)</text>
    </g>
    <g>
     <circle stroke="black" stroke-width="0.5" fill="#aaffff" cx="558.0" cy="660.0" r="1.0"/>
     <text stroke="none" x="558.0" y="660.0" font-size="20.0" font-family="helvetica">Zymobacter palmae IAM 142337 (D14555)</text>
    </g>
    <g>
     <circle stroke="black" stroke-width="0.5" fill="#aaffff" cx="559.0" cy="16.0" r="1.0"/>
     <text stroke="none" x="559.0" y="16.0" font-size="20.0" font-family="helvetica">Pseudomonas chlororaphis IAM 123547 (D84011)</text>
    </g>
    <g>
     <circle stroke="black" stroke-width="0.5" fill="#aaffff" cx="562.0" cy="56.0" r="1.0"/>
     <text stroke="none" x="562.0" y="56.0" font-size="20.0" font-family="helvetica">Pseudomonas syringae ATCC 193107 (D84026)</text>
    </g>
    <g>
     <circle stroke="black" stroke-width="0.5" fill="#aaffff" cx="564.0" cy="96.0" r="1.0"/>
     <text stroke="none" x="564.0" y="96.0" font-size="20.0" font-family="helvetica">Pseudomonas f7uorescens IAM 120227 (D84013)</text>
    </g>
    <g>
     <circle stroke="black" stroke-width="0.5" fill="#aaffff" cx="583.0" cy="580.0" r="1.0"/>
     <text stroke="none" x="583.0" y="580.0" font-size="20.0" font-family="helvetica">Halomonas elongata ATCC 331737 (M93355)</text>
    </g>
    <g>
     <circle stroke="black" stroke-width="0.5" fill="#aaffff" cx="586.0" cy="458.0" r="1.0"/>
     <text stroke="none" x="586.0" y="458.0" font-size="20.0" font-family="helvetica">Alcanivorax borkumensis DSM 115737 (Y12579)</text>
    </g>
    <g>
     <circle stroke="black" stroke-width="0.5" fill="#aaffff" cx="599.0" cy="175.0" r="1.0"/>
     <text stroke="none" x="599.0" y="175.0" font-size="20.0" font-family="helvetica">Pseudomonas aeruginosa LMG 12427 (276651)</text>
    </g>
    <line stroke="black" x1="559.0" y1="16.0" x2="503.0" y2="27.0" stroke-width="0.5"/>
    <line stroke="black" x1="549.0" y1="215.0" x2="495.0" y2="195.0" stroke-width="0.5"/>
    <line stroke="black" x1="599.0" y1="175.0" x2="495.0" y2="195.0" stroke-width="0.5"/>
    <line stroke="black" x1="518.0" y1="336.0" x2="382.0" y2="305.0" stroke-width="0.5"/>
    <line stroke="black" x1="481.0" y1="418.0" x2="480.0" y2="397.0" stroke-width="0.5"/>
    <line stroke="black" x1="506.0" y1="377.0" x2="480.0" y2="397.0" stroke-width="0.5"/>
    <line stroke="black" x1="558.0" y1="660.0" x2="280.0" y2="630.0" stroke-width="0.5"/>
    <line stroke="black" x1="583.0" y1="580.0" x2="389.0" y2="600.0" stroke-width="0.5"/>
    <line stroke="black" x1="421.0" y1="901.0" x2="5.0" y2="823.0" stroke-width="0.5"/>
    <line stroke="black" x1="503.0" y1="27.0" x2="497.0" y2="80.0" stroke-width="0.5"/>
    <line stroke="black" x1="497.0" y1="80.0" x2="436.0" y2="129.0" stroke-width="0.5"/>
    <line stroke="black" x1="436.0" y1="129.0" x2="495.0" y2="195.0" stroke-width="0.5"/>
    <line stroke="black" x1="436.0" y1="129.0" x2="273.0" y2="226.0" stroke-width="0.5"/>
    <line stroke="black" x1="273.0" y1="226.0" x2="212.0" y2="412.0" stroke-width="0.5"/>
    <line stroke="black" x1="273.0" y1="226.0" x2="382.0" y2="305.0" stroke-width="0.5"/>
    <line stroke="black" x1="382.0" y1="305.0" x2="470.0" y2="277.0" stroke-width="0.5"/>
    <line stroke="black" x1="212.0" y1="412.0" x2="238.0" y2="426.0" stroke-width="0.5"/>
    <line stroke="black" x1="212.0" y1="412.0" x2="191.0" y2="544.0" stroke-width="0.5"/>
    <line stroke="black" x1="212.0" y1="412.0" x2="416.0" y2="517.0" stroke-width="0.5"/>
    <line stroke="black" x1="238.0" y1="426.0" x2="480.0" y2="397.0" stroke-width="0.5"/>
    <line stroke="black" x1="191.0" y1="544.0" x2="162.0" y2="667.0" stroke-width="0.5"/>
    <line stroke="black" x1="191.0" y1="544.0" x2="237.0" y2="664.0" stroke-width="0.5"/>
    <line stroke="black" x1="162.0" y1="667.0" x2="5.0" y2="823.0" stroke-width="0.5"/>
    <line stroke="black" x1="162.0" y1="667.0" x2="251.0" y2="761.0" stroke-width="0.5"/>
    <line stroke="black" x1="237.0" y1="664.0" x2="280.0" y2="630.0" stroke-width="0.5"/>
    <line stroke="black" x1="280.0" y1="630.0" x2="389.0" y2="600.0" stroke-width="0.5"/>
    <line stroke="black" x1="251.0" y1="761.0" x2="428.0" y2="741.0" stroke-width="0.5"/>
    <line stroke="black" x1="466.0" y1="861.0" x2="5.0" y2="823.0" stroke-width="0.5"/>
    <line stroke="black" x1="448.0" y1="821.0" x2="251.0" y2="761.0" stroke-width="0.5"/>
    <line stroke="black" x1="526.0" y1="700.0" x2="237.0" y2="664.0" stroke-width="0.5"/>
    <line stroke="black" x1="586.0" y1="458.0" x2="238.0" y2="426.0" stroke-width="0.5"/>
    <line stroke="black" x1="501.0" y1="781.0" x2="251.0" y2="761.0" stroke-width="0.5"/>
    <line stroke="black" x1="480.0" y1="539.0" x2="416.0" y2="517.0" stroke-width="0.5"/>
    <line stroke="black" x1="553.0" y1="620.0" x2="389.0" y2="600.0" stroke-width="0.5"/>
    <line stroke="black" x1="503.0" y1="498.0" x2="416.0" y2="517.0" stroke-width="0.5"/>
    <line stroke="black" x1="539.0" y1="136.0" x2="436.0" y2="129.0" stroke-width="0.5"/>
    <line stroke="black" x1="501.0" y1="256.0" x2="470.0" y2="277.0" stroke-width="0.5"/>
    <line stroke="black" x1="525.0" y1="296.0" x2="470.0" y2="277.0" stroke-width="0.5"/>
    <line stroke="black" x1="564.0" y1="96.0" x2="497.0" y2="80.0" stroke-width="0.5"/>
    <line stroke="black" x1="562.0" y1="56.0" x2="503.0" y2="27.0" stroke-width="0.5"/>
   </g>
  </g>
 </svg>
</svg>
