<?xml version="1.0" encoding="UTF-8"?>
<svg height="800.0" width="700.0" xmlns="http://www.w3.org/2000/svg">
 <svg>
  <g>
   <g>
    <g>
     <circle stroke="black" stroke-width="0.5" fill="#aaffff" cx="275.0" cy="961.0" r="1.0"/>
     <text stroke="none" x="275.0" y="961.0" font-size="10.0" font-family="helvetica">NT1.1</text>
    </g>
    <g>
     <circle stroke="black" stroke-width="0.5" fill="#aaffff" cx="322.0" cy="839.0" r="1.0"/>
     <text stroke="none" x="322.0" y="839.0" font-size="10.0" font-family="helvetica">NT1.2</text>
    </g>
    <g>
     <circle stroke="black" stroke-width="0.5" fill="#aaffff" cx="383.0" cy="685.0" r="1.0"/>
     <text stroke="none" x="383.0" y="685.0" font-size="10.0" font-family="helvetica">NT1.3</text>
    </g>
    <g>
     <circle stroke="black" stroke-width="0.5" fill="#aaffff" cx="445.0" cy="516.0" r="1.0"/>
     <text stroke="none" x="445.0" y="516.0" font-size="10.0" font-family="helvetica">NT1.4</text>
    </g>
    <g>
     <circle stroke="black" stroke-width="0.5" fill="#aaffff" cx="485.0" cy="760.0" r="1.0"/>
     <text stroke="none" x="485.0" y="760.0" font-size="20.0" font-family="helvetica">62</text>
    </g>
    <g>
     <circle stroke="black" stroke-width="0.5" fill="#aaffff" cx="513.0" cy="915.0" r="1.0"/>
     <text stroke="none" x="513.0" y="915.0" font-size="10.0" font-family="helvetica">NT1.6</text>
    </g>
    <g>
     <circle stroke="black" stroke-width="0.5" fill="#aaffff" cx="524.0" cy="380.0" r="1.0"/>
     <text stroke="none" x="524.0" y="380.0" font-size="20.0" font-family="helvetica">78</text>
    </g>
    <g>
     <circle stroke="black" stroke-width="0.5" fill="#aaffff" cx="600.0" cy="306.0" r="1.0"/>
     <text stroke="none" x="600.0" y="306.0" font-size="10.0" font-family="helvetica">NT1.8</text>
    </g>
    <g>
     <circle stroke="black" stroke-width="0.5" fill="#aaffff" cx="619.0" cy="799.0" r="1.0"/>
     <text stroke="none" x="619.0" y="799.0" font-size="10.0" font-family="helvetica">NT1.9</text>
    </g>
    <g>
     <circle stroke="black" stroke-width="0.5" fill="#aaffff" cx="631.0" cy="723.0" r="1.0"/>
     <text stroke="none" x="631.0" y="723.0" font-size="10.0" font-family="helvetica">NT1.10</text>
    </g>
    <g>
     <circle stroke="black" stroke-width="0.5" fill="#aaffff" cx="662.0" cy="531.0" r="1.0"/>
     <text stroke="none" x="662.0" y="531.0" font-size="20.0" font-family="helvetica">1oo</text>
    </g>
    <g>
     <circle stroke="black" stroke-width="0.5" fill="#aaffff" cx="669.0" cy="208.0" r="1.0"/>
     <text stroke="none" x="669.0" y="208.0" font-size="10.0" font-family="helvetica">NT1.12</text>
    </g>
    <g>
     <circle stroke="black" stroke-width="0.5" fill="#aaffff" cx="674.0" cy="933.0" r="1.0"/>
     <text stroke="none" x="674.0" y="933.0" font-size="20.0" font-family="helvetica">Hoeflea alexandrii AM1V30T (AJ786600)</text>
    </g>
    <g>
     <circle stroke="black" stroke-width="0.5" fill="#aaffff" cx="690.0" cy="877.0" r="1.0"/>
     <text stroke="none" x="690.0" y="877.0" font-size="10.0" font-family="helvetica">NT1.14</text>
    </g>
    <g>
     <circle stroke="black" stroke-width="0.5" fill="#aaffff" cx="707.0" cy="645.0" r="1.0"/>
     <text stroke="none" x="707.0" y="645.0" font-size="10.0" font-family="helvetica">NT1.15</text>
    </g>
    <g>
     <circle stroke="black" stroke-width="0.5" fill="#aaffff" cx="717.0" cy="358.0" r="1.0"/>
     <text stroke="none" x="717.0" y="358.0" font-size="20.0" font-family="helvetica">Mesorhizobium chacoense Pr-5T (AJ278249)</text>
    </g>
    <g>
     <circle stroke="black" stroke-width="0.5" fill="#aaffff" cx="746.0" cy="185.0" r="1.0"/>
     <text stroke="none" x="746.0" y="185.0" font-size="10.0" font-family="helvetica">NT1.17</text>
    </g>
    <g>
     <circle stroke="black" stroke-width="0.5" fill="#aaffff" cx="748.0" cy="779.0" r="1.0"/>
     <text stroke="none" x="748.0" y="779.0" font-size="20.0" font-family="helvetica">Pseudaminobacter defluvii THI 051T (D32248)</text>
    </g>
    <g>
     <circle stroke="black" stroke-width="0.5" fill="#aaffff" cx="753.0" cy="494.0" r="1.0"/>
     <text stroke="none" x="753.0" y="494.0" font-size="20.0" font-family="helvetica">55</text>
    </g>
    <g>
     <circle stroke="black" stroke-width="0.5" fill="#aaffff" cx="755.0" cy="301.0" r="1.0"/>
     <text stroke="none" x="755.0" y="301.0" font-size="20.0" font-family="helvetica">97</text>
    </g>
    <g>
     <circle stroke="black" stroke-width="0.5" fill="#aaffff" cx="762.0" cy="510.0" r="1.0"/>
     <text stroke="none" x="762.0" y="510.0" font-size="20.0" font-family="helvetica">Aminobacter aminovorans DSM 70487 (AJ011759)</text>
    </g>
    <g>
     <circle stroke="black" stroke-width="0.5" fill="#aaffff" cx="763.0" cy="816.0" r="1.0"/>
     <text stroke="none" x="763.0" y="816.0" font-size="20.0" font-family="helvetica"/>
    </g>
    <g>
     <circle stroke="black" stroke-width="0.5" fill="#aaffff" cx="771.0" cy="664.0" r="1.0"/>
     <text stroke="none" x="771.0" y="664.0" font-size="20.0" font-family="helvetica">Phyllobacterium myrsinacearum IAM 135847 (D12789)</text>
    </g>
    <g>
     <circle stroke="black" stroke-width="0.5" fill="#aaffff" cx="771.0" cy="221.0" r="1.0"/>
     <text stroke="none" x="771.0" y="221.0" font-size="20.0" font-family="helvetica">70</text>
    </g>
    <g>
     <circle stroke="black" stroke-width="0.5" fill="#aaffff" cx="774.0" cy="456.0" r="1.0"/>
     <text stroke="none" x="774.0" y="456.0" font-size="20.0" font-family="helvetica">61</text>
    </g>
    <g>
     <circle stroke="black" stroke-width="0.5" fill="#aaffff" cx="777.0" cy="549.0" r="1.0"/>
     <text stroke="none" x="777.0" y="549.0" font-size="20.0" font-family="helvetica">Aminobacter lissarensis CC495T (AF107722)</text>
    </g>
    <g>
     <circle stroke="black" stroke-width="0.5" fill="#aaffff" cx="780.0" cy="320.0" r="1.0"/>
     <text stroke="none" x="780.0" y="320.0" font-size="20.0" font-family="helvetica">Mesorhizobium Ioti ATCC 33669 (D14514)</text>
    </g>
    <g>
     <circle stroke="black" stroke-width="0.5" fill="#aaffff" cx="781.0" cy="608.0" r="1.0"/>
     <text stroke="none" x="781.0" y="608.0" font-size="20.0" font-family="helvetica">97</text>
    </g>
    <g>
     <circle stroke="black" stroke-width="0.5" fill="#aaffff" cx="787.0" cy="971.0" r="1.0"/>
     <text stroke="none" x="787.0" y="971.0" font-size="20.0" font-family="helvetica">Nitratireductor aquibiodomus NL21T (AF534573)</text>
    </g>
    <g>
     <circle stroke="black" stroke-width="0.5" fill="#aaffff" cx="788.0" cy="281.0" r="1.0"/>
     <text stroke="none" x="788.0" y="281.0" font-size="20.0" font-family="helvetica">Mesorhizobium ciceri UPM-Ca7T (U07934)</text>
    </g>
    <g>
     <circle stroke="black" stroke-width="0.5" fill="#aaffff" cx="788.0" cy="418.0" r="1.0"/>
     <text stroke="none" x="788.0" y="418.0" font-size="20.0" font-family="helvetica">32</text>
    </g>
    <g>
     <circle stroke="black" stroke-width="0.5" fill="#aaffff" cx="791.0" cy="434.0" r="1.0"/>
     <text stroke="none" x="791.0" y="434.0" font-size="20.0" font-family="helvetica">Aminobacter niigataensis DSM 705507 (AJ011761)</text>
    </g>
    <g>
     <circle stroke="black" stroke-width="0.5" fill="#aaffff" cx="793.0" cy="396.0" r="1.0"/>
     <text stroke="none" x="793.0" y="396.0" font-size="20.0" font-family="helvetica">32</text>
    </g>
    <g>
     <circle stroke="black" stroke-width="0.5" fill="#aaffff" cx="796.0" cy="109.0" r="1.0"/>
     <text stroke="none" x="796.0" y="109.0" font-size="20.0" font-family="helvetica">94</text>
    </g>
    <g>
     <circle stroke="black" stroke-width="0.5" fill="#aaffff" cx="818.0" cy="127.0" r="1.0"/>
     <text stroke="none" x="818.0" y="127.0" font-size="20.0" font-family="helvetica">Mesorhizobium huakuii IAM 141587 (D12797)</text>
    </g>
    <g>
     <circle stroke="black" stroke-width="0.5" fill="#aaffff" cx="820.0" cy="62.0" r="1.0"/>
     <text stroke="none" x="820.0" y="62.0" font-size="10.0" font-family="helvetica">NT1.36</text>
    </g>
    <g>
     <circle stroke="black" stroke-width="0.5" fill="#aaffff" cx="827.0" cy="472.0" r="1.0"/>
     <text stroke="none" x="827.0" y="472.0" font-size="20.0" font-family="helvetica">Aminobacter ciceronei IMB-1T (AF034798)</text>
    </g>
    <g>
     <circle stroke="black" stroke-width="0.5" fill="#aaffff" cx="836.0" cy="242.0" r="1.0"/>
     <text stroke="none" x="836.0" y="242.0" font-size="20.0" font-family="helvetica">Mesorhizobium tianshanense RCAN03 (AY195846)</text>
    </g>
    <g>
     <circle stroke="black" stroke-width="0.5" fill="#aaffff" cx="852.0" cy="204.0" r="1.0"/>
     <text stroke="none" x="852.0" y="204.0" font-size="20.0" font-family="helvetica">Mesorhizobium temperatum SDWO18T (AF508208)</text>
    </g>
    <g>
     <circle stroke="black" stroke-width="0.5" fill="#aaffff" cx="858.0" cy="51.0" r="1.0"/>
     <text stroke="none" x="858.0" y="51.0" font-size="20.0" font-family="helvetica">Mesorhizobium septentrionale SDW014T (AF508207)</text>
    </g>
    <g>
     <circle stroke="black" stroke-width="0.5" fill="#aaffff" cx="860.0" cy="701.0" r="1.0"/>
     <text stroke="none" x="860.0" y="701.0" font-size="20.0" font-family="helvetica">Aquamicrobium def7uvii DSM 116O3T (Y15403)</text>
    </g>
    <g>
     <circle stroke="black" stroke-width="0.5" fill="#aaffff" cx="873.0" cy="894.0" r="1.0"/>
     <text stroke="none" x="873.0" y="894.0" font-size="20.0" font-family="helvetica">Hoeflea phototrophica DFL-43T (AJ582088)</text>
    </g>
    <g>
     <circle stroke="black" stroke-width="0.5" fill="#aaffff" cx="884.0" cy="89.0" r="1.0"/>
     <text stroke="none" x="884.0" y="89.0" font-size="20.0" font-family="helvetica">Mesorhizobium plurifalium LMG 1 1892T (Y14158)</text>
    </g>
    <g>
     <circle stroke="black" stroke-width="0.5" fill="#aaffff" cx="884.0" cy="856.0" r="1.0"/>
     <text stroke="none" x="884.0" y="856.0" font-size="20.0" font-family="helvetica">Hoe-flea marina LMG 1287 (AY598817)</text>
    </g>
    <g>
     <circle stroke="black" stroke-width="0.5" fill="#aaffff" cx="909.0" cy="625.0" r="1.0"/>
     <text stroke="none" x="909.0" y="625.0" font-size="20.0" font-family="helvetica">Phyllobactelium trifolii PETP02T (AY786080)</text>
    </g>
    <g>
     <circle stroke="black" stroke-width="0.5" fill="#aaffff" cx="940.0" cy="740.0" r="1.0"/>
     <text stroke="none" x="940.0" y="740.0" font-size="20.0" font-family="helvetica">Defluvibacter lusatiensis DSM 1 10997 (AJ132378)</text>
    </g>
    <g>
     <circle stroke="black" stroke-width="0.5" fill="#aaffff" cx="1004.0" cy="1008.0" r="1.0"/>
     <text stroke="none" x="1004.0" y="1008.0" font-size="20.0" font-family="helvetica">Parvibaculum Iavamentivorans DS-1T (AY387398)</text>
    </g>
    <g>
     <circle stroke="black" stroke-width="0.5" fill="#aaffff" cx="1023.0" cy="587.0" r="1.0"/>
     <text stroke="none" x="1023.0" y="587.0" font-size="20.0" font-family="helvetica">Phyllobacterium catacumbae CSC19T (AY636000)</text>
    </g>
    <line stroke="black" x1="884.0" y1="89.0" x2="820.0" y2="62.0" stroke-width="0.5"/>
    <line stroke="black" x1="717.0" y1="358.0" x2="600.0" y2="306.0" stroke-width="0.5"/>
    <line stroke="black" x1="777.0" y1="549.0" x2="662.0" y2="531.0" stroke-width="0.5"/>
    <line stroke="black" x1="791.0" y1="434.0" x2="788.0" y2="418.0" stroke-width="0.5"/>
    <line stroke="black" x1="827.0" y1="472.0" x2="774.0" y2="456.0" stroke-width="0.5"/>
    <line stroke="black" x1="771.0" y1="664.0" x2="707.0" y2="645.0" stroke-width="0.5"/>
    <line stroke="black" x1="909.0" y1="625.0" x2="781.0" y2="608.0" stroke-width="0.5"/>
    <line stroke="black" x1="940.0" y1="740.0" x2="631.0" y2="723.0" stroke-width="0.5"/>
    <line stroke="black" x1="820.0" y1="62.0" x2="796.0" y2="109.0" stroke-width="0.5"/>
    <line stroke="black" x1="796.0" y1="109.0" x2="746.0" y2="185.0" stroke-width="0.5"/>
    <line stroke="black" x1="746.0" y1="185.0" x2="669.0" y2="208.0" stroke-width="0.5"/>
    <line stroke="black" x1="746.0" y1="185.0" x2="771.0" y2="221.0" stroke-width="0.5"/>
    <line stroke="black" x1="669.0" y1="208.0" x2="755.0" y2="301.0" stroke-width="0.5"/>
    <line stroke="black" x1="669.0" y1="208.0" x2="600.0" y2="306.0" stroke-width="0.5"/>
    <line stroke="black" x1="771.0" y1="221.0" x2="836.0" y2="242.0" stroke-width="0.5"/>
    <line stroke="black" x1="600.0" y1="306.0" x2="524.0" y2="380.0" stroke-width="0.5"/>
    <line stroke="black" x1="524.0" y1="380.0" x2="445.0" y2="516.0" stroke-width="0.5"/>
    <line stroke="black" x1="524.0" y1="380.0" x2="662.0" y2="531.0" stroke-width="0.5"/>
    <line stroke="black" x1="445.0" y1="516.0" x2="707.0" y2="645.0" stroke-width="0.5"/>
    <line stroke="black" x1="445.0" y1="516.0" x2="383.0" y2="685.0" stroke-width="0.5"/>
    <line stroke="black" x1="662.0" y1="531.0" x2="753.0" y2="494.0" stroke-width="0.5"/>
    <line stroke="black" x1="383.0" y1="685.0" x2="485.0" y2="760.0" stroke-width="0.5"/>
    <line stroke="black" x1="383.0" y1="685.0" x2="322.0" y2="839.0" stroke-width="0.5"/>
    <line stroke="black" x1="753.0" y1="494.0" x2="774.0" y2="456.0" stroke-width="0.5"/>
    <line stroke="black" x1="774.0" y1="456.0" x2="788.0" y2="418.0" stroke-width="0.5"/>
    <line stroke="black" x1="788.0" y1="418.0" x2="793.0" y2="396.0" stroke-width="0.5"/>
    <line stroke="black" x1="793.0" y1="396.0" x2="793.0" y2="396.0" stroke-width="0.5"/>
    <line stroke="black" x1="485.0" y1="760.0" x2="619.0" y2="799.0" stroke-width="0.5"/>
    <line stroke="black" x1="485.0" y1="760.0" x2="631.0" y2="723.0" stroke-width="0.5"/>
    <line stroke="black" x1="707.0" y1="645.0" x2="781.0" y2="608.0" stroke-width="0.5"/>
    <line stroke="black" x1="322.0" y1="839.0" x2="513.0" y2="915.0" stroke-width="0.5"/>
    <line stroke="black" x1="322.0" y1="839.0" x2="275.0" y2="961.0" stroke-width="0.5"/>
    <line stroke="black" x1="619.0" y1="799.0" x2="763.0" y2="816.0" stroke-width="0.5"/>
    <line stroke="black" x1="513.0" y1="915.0" x2="690.0" y2="877.0" stroke-width="0.5"/>
    <line stroke="black" x1="1004.0" y1="1008.0" x2="275.0" y2="961.0" stroke-width="0.5"/>
    <line stroke="black" x1="787.0" y1="971.0" x2="275.0" y2="961.0" stroke-width="0.5"/>
    <line stroke="black" x1="674.0" y1="933.0" x2="513.0" y2="915.0" stroke-width="0.5"/>
    <line stroke="black" x1="748.0" y1="779.0" x2="619.0" y2="799.0" stroke-width="0.5"/>
    <line stroke="black" x1="762.0" y1="510.0" x2="753.0" y2="494.0" stroke-width="0.5"/>
    <line stroke="black" x1="780.0" y1="320.0" x2="755.0" y2="301.0" stroke-width="0.5"/>
    <line stroke="black" x1="873.0" y1="894.0" x2="690.0" y2="877.0" stroke-width="0.5"/>
    <line stroke="black" x1="788.0" y1="281.0" x2="755.0" y2="301.0" stroke-width="0.5"/>
    <line stroke="black" x1="860.0" y1="701.0" x2="631.0" y2="723.0" stroke-width="0.5"/>
    <line stroke="black" x1="818.0" y1="127.0" x2="796.0" y2="109.0" stroke-width="0.5"/>
    <line stroke="black" x1="884.0" y1="856.0" x2="690.0" y2="877.0" stroke-width="0.5"/>
    <line stroke="black" x1="858.0" y1="51.0" x2="820.0" y2="62.0" stroke-width="0.5"/>
    <line stroke="black" x1="852.0" y1="204.0" x2="771.0" y2="221.0" stroke-width="0.5"/>
    <line stroke="black" x1="1023.0" y1="587.0" x2="781.0" y2="608.0" stroke-width="0.5"/>
   </g>
  </g>
 </svg>
</svg>
