<?xml version="1.0" encoding="UTF-8"?>
<svg height="800.0" width="700.0" xmlns="http://www.w3.org/2000/svg">
 <svg>
  <g>
   <g>
    <g>
     <circle stroke="black" stroke-width="0.5" fill="#aaffff" cx="34.0" cy="1073.0" r="1.0"/>
     <text stroke="none" x="34.0" y="1073.0" font-size="10.0" font-family="helvetica">NT1.1</text>
    </g>
    <g>
     <circle stroke="black" stroke-width="0.5" fill="#aaffff" cx="60.0" cy="1287.0" r="1.0"/>
     <text stroke="none" x="60.0" y="1287.0" font-size="20.0" font-family="helvetica">41</text>
    </g>
    <g>
     <circle stroke="black" stroke-width="0.5" fill="#aaffff" cx="127.0" cy="1332.0" r="1.0"/>
     <text stroke="none" x="127.0" y="1332.0" font-size="20.0" font-family="helvetica">79</text>
    </g>
    <g>
     <circle stroke="black" stroke-width="0.5" fill="#aaffff" cx="131.0" cy="1010.0" r="1.0"/>
     <text stroke="none" x="131.0" y="1010.0" font-size="20.0" font-family="helvetica">39</text>
    </g>
    <g>
     <circle stroke="black" stroke-width="0.5" fill="#aaffff" cx="157.0" cy="674.0" r="1.0"/>
     <text stroke="none" x="157.0" y="674.0" font-size="10.0" font-family="helvetica">NT1.5</text>
    </g>
    <g>
     <circle stroke="black" stroke-width="0.5" fill="#aaffff" cx="169.0" cy="753.0" r="1.0"/>
     <text stroke="none" x="169.0" y="753.0" font-size="20.0" font-family="helvetica">19</text>
    </g>
    <g>
     <circle stroke="black" stroke-width="0.5" fill="#aaffff" cx="206.0" cy="717.0" r="1.0"/>
     <text stroke="none" x="206.0" y="717.0" font-size="20.0" font-family="helvetica">61</text>
    </g>
    <g>
     <circle stroke="black" stroke-width="0.5" fill="#aaffff" cx="243.0" cy="1245.0" r="1.0"/>
     <text stroke="none" x="243.0" y="1245.0" font-size="20.0" font-family="helvetica">100</text>
    </g>
    <g>
     <circle stroke="black" stroke-width="0.5" fill="#aaffff" cx="250.0" cy="950.0" r="1.0"/>
     <text stroke="none" x="250.0" y="950.0" font-size="20.0" font-family="helvetica">92</text>
    </g>
    <g>
     <circle stroke="black" stroke-width="0.5" fill="#aaffff" cx="269.0" cy="593.0" r="1.0"/>
     <text stroke="none" x="269.0" y="593.0" font-size="20.0" font-family="helvetica">97</text>
    </g>
    <g>
     <circle stroke="black" stroke-width="0.5" fill="#aaffff" cx="293.0" cy="790.0" r="1.0"/>
     <text stroke="none" x="293.0" y="790.0" font-size="20.0" font-family="helvetica">87</text>
    </g>
    <g>
     <circle stroke="black" stroke-width="0.5" fill="#aaffff" cx="301.0" cy="1364.0" r="1.0"/>
     <text stroke="none" x="301.0" y="1364.0" font-size="20.0" font-family="helvetica">98</text>
    </g>
    <g>
     <circle stroke="black" stroke-width="0.5" fill="#aaffff" cx="303.0" cy="527.0" r="1.0"/>
     <text stroke="none" x="303.0" y="527.0" font-size="20.0" font-family="helvetica">70</text>
    </g>
    <g>
     <circle stroke="black" stroke-width="0.5" fill="#aaffff" cx="321.0" cy="602.0" r="1.0"/>
     <text stroke="none" x="321.0" y="602.0" font-size="20.0" font-family="helvetica">57</text>
    </g>
    <g>
     <circle stroke="black" stroke-width="0.5" fill="#aaffff" cx="345.0" cy="882.0" r="1.0"/>
     <text stroke="none" x="345.0" y="882.0" font-size="20.0" font-family="helvetica">98</text>
    </g>
    <g>
     <circle stroke="black" stroke-width="0.5" fill="#aaffff" cx="359.0" cy="697.0" r="1.0"/>
     <text stroke="none" x="359.0" y="697.0" font-size="20.0" font-family="helvetica">Subsurface clone H1 .2.f (AFOO5747)</text>
    </g>
    <g>
     <circle stroke="black" stroke-width="0.5" fill="#aaffff" cx="359.0" cy="913.0" r="1.0"/>
     <text stroke="none" x="359.0" y="913.0" font-size="20.0" font-family="helvetica">49</text>
    </g>
    <g>
     <circle stroke="black" stroke-width="0.5" fill="#aaffff" cx="372.0" cy="584.0" r="1.0"/>
     <text stroke="none" x="372.0" y="584.0" font-size="20.0" font-family="helvetica">Deep-subsurface palaeosol clone t0.6.f (AFOO5745)</text>
    </g>
    <g>
     <circle stroke="black" stroke-width="0.5" fill="#aaffff" cx="383.0" cy="941.0" r="1.0"/>
     <text stroke="none" x="383.0" y="941.0" font-size="20.0" font-family="helvetica">55</text>
    </g>
    <g>
     <circle stroke="black" stroke-width="0.5" fill="#aaffff" cx="387.0" cy="1016.0" r="1.0"/>
     <text stroke="none" x="387.0" y="1016.0" font-size="20.0" font-family="helvetica">99</text>
    </g>
    <g>
     <circle stroke="black" stroke-width="0.5" fill="#aaffff" cx="395.0" cy="1225.0" r="1.0"/>
     <text stroke="none" x="395.0" y="1225.0" font-size="20.0" font-family="helvetica">Sphaerobacter thermophilus DSM 2O745T (AJ420142)</text>
    </g>
    <g>
     <circle stroke="black" stroke-width="0.5" fill="#aaffff" cx="399.0" cy="449.0" r="1.0"/>
     <text stroke="none" x="399.0" y="449.0" font-size="20.0" font-family="helvetica">96</text>
    </g>
    <g>
     <circle stroke="black" stroke-width="0.5" fill="#aaffff" cx="412.0" cy="369.0" r="1.0"/>
     <text stroke="none" x="412.0" y="369.0" font-size="20.0" font-family="helvetica">47</text>
    </g>
    <g>
     <circle stroke="black" stroke-width="0.5" fill="#aaffff" cx="413.0" cy="1263.0" r="1.0"/>
     <text stroke="none" x="413.0" y="1263.0" font-size="20.0" font-family="helvetica">Thermomicrobium roseum ATCC 275O2T (M341 1 5)</text>
    </g>
    <g>
     <circle stroke="black" stroke-width="0.5" fill="#aaffff" cx="421.0" cy="735.0" r="1.0"/>
     <text stroke="none" x="421.0" y="735.0" font-size="20.0" font-family="helvetica">Marine clone SAR202 (U20797)</text>
    </g>
    <g>
     <circle stroke="black" stroke-width="0.5" fill="#aaffff" cx="428.0" cy="527.0" r="1.0"/>
     <text stroke="none" x="428.0" y="527.0" font-size="20.0" font-family="helvetica">63</text>
    </g>
    <g>
     <circle stroke="black" stroke-width="0.5" fill="#aaffff" cx="439.0" cy="1167.0" r="1.0"/>
     <text stroke="none" x="439.0" y="1167.0" font-size="20.0" font-family="helvetica">100</text>
    </g>
    <g>
     <circle stroke="black" stroke-width="0.5" fill="#aaffff" cx="455.0" cy="1112.0" r="1.0"/>
     <text stroke="none" x="455.0" y="1112.0" font-size="20.0" font-family="helvetica">Thermobaculum terrenum' YNP1</text>
    </g>
    <g>
     <circle stroke="black" stroke-width="0.5" fill="#aaffff" cx="464.0" cy="1149.0" r="1.0"/>
     <text stroke="none" x="464.0" y="1149.0" font-size="20.0" font-family="helvetica">Herpetosiphon geysericola ATCC 23076T (AFO39293)</text>
    </g>
    <g>
     <circle stroke="black" stroke-width="0.5" fill="#aaffff" cx="472.0" cy="265.0" r="1.0"/>
     <text stroke="none" x="472.0" y="265.0" font-size="20.0" font-family="helvetica"> 94</text>
    </g>
    <g>
     <circle stroke="black" stroke-width="0.5" fill="#aaffff" cx="474.0" cy="848.0" r="1.0"/>
     <text stroke="none" x="474.0" y="848.0" font-size="20.0" font-family="helvetica">Bellilinea caldifistulae GOMI-17 (AB243672)</text>
    </g>
    <g>
     <circle stroke="black" stroke-width="0.5" fill="#aaffff" cx="481.0" cy="885.0" r="1.0"/>
     <text stroke="none" x="481.0" y="885.0" font-size="20.0" font-family="helvetica">Levilinea saccharolytica KIBI-1 T (AB109439)</text>
    </g>
    <g>
     <circle stroke="black" stroke-width="0.5" fill="#aaffff" cx="482.0" cy="923.0" r="1.0"/>
     <text stroke="none" x="482.0" y="923.0" font-size="20.0" font-family="helvetica">Longilinea arvoryzae KOME-1 T (AB243673)</text>
    </g>
    <g>
     <circle stroke="black" stroke-width="0.5" fill="#aaffff" cx="484.0" cy="1187.0" r="1.0"/>
     <text stroke="none" x="484.0" y="1187.0" font-size="20.0" font-family="helvetica">Herpetosiphon aurantiacus ATCC 23779T (M341 1 7)</text>
    </g>
    <g>
     <circle stroke="black" stroke-width="0.5" fill="#aaffff" cx="488.0" cy="1393.0" r="1.0"/>
     <text stroke="none" x="488.0" y="1393.0" font-size="20.0" font-family="helvetica">100</text>
    </g>
    <g>
     <circle stroke="black" stroke-width="0.5" fill="#aaffff" cx="495.0" cy="471.0" r="1.0"/>
     <text stroke="none" x="495.0" y="471.0" font-size="20.0" font-family="helvetica">PCB-dechlorinating sediment clone SF1</text>
    </g>
    <g>
     <circle stroke="black" stroke-width="0.5" fill="#aaffff" cx="498.0" cy="622.0" r="1.0"/>
     <text stroke="none" x="498.0" y="622.0" font-size="20.0" font-family="helvetica">Deep-subsurface palaeosol clone H3.93 (AF005750)</text>
    </g>
    <g>
     <circle stroke="black" stroke-width="0.5" fill="#aaffff" cx="503.0" cy="998.0" r="1.0"/>
     <text stroke="none" x="503.0" y="998.0" font-size="20.0" font-family="helvetica">Anaerolinea thermolimosa IMO-1T (AB109437)</text>
    </g>
    <g>
     <circle stroke="black" stroke-width="0.5" fill="#aaffff" cx="512.0" cy="1036.0" r="1.0"/>
     <text stroke="none" x="512.0" y="1036.0" font-size="20.0" font-family="helvetica">Anaerolinea thermophila UNI-1T (AB046413)</text>
    </g>
    <g>
     <circle stroke="black" stroke-width="0.5" fill="#aaffff" cx="520.0" cy="1074.0" r="1.0"/>
     <text stroke="none" x="520.0" y="1074.0" font-size="20.0" font-family="helvetica">Caldilinea aerophila STL-6-O1 T (AB067647)</text>
    </g>
    <g>
     <circle stroke="black" stroke-width="0.5" fill="#aaffff" cx="522.0" cy="1337.0" r="1.0"/>
     <text stroke="none" x="522.0" y="1337.0" font-size="20.0" font-family="helvetica">Oscillochloris trichoides DG-6T (AFO93427)</text>
    </g>
    <g>
     <circle stroke="black" stroke-width="0.5" fill="#aaffff" cx="535.0" cy="961.0" r="1.0"/>
     <text stroke="none" x="535.0" y="961.0" font-size="20.0" font-family="helvetica">Leptolinea tardivitalis YMTK-2T (AB109438)</text>
    </g>
    <g>
     <circle stroke="black" stroke-width="0.5" fill="#aaffff" cx="536.0" cy="385.0" r="1.0"/>
     <text stroke="none" x="536.0" y="385.0" font-size="20.0" font-family="helvetica">99</text>
    </g>
    <g>
     <circle stroke="black" stroke-width="0.5" fill="#aaffff" cx="551.0" cy="772.0" r="1.0"/>
     <text stroke="none" x="551.0" y="772.0" font-size="20.0" font-family="helvetica">Crater Lake clone CL500-9 (AF316763)</text>
    </g>
    <g>
     <circle stroke="black" stroke-width="0.5" fill="#aaffff" cx="553.0" cy="1300.0" r="1.0"/>
     <text stroke="none" x="553.0" y="1300.0" font-size="20.0" font-family="helvetica">Roseiflexus castenholzii DSM 13941 T (AB041 226)</text>
    </g>
    <g>
     <circle stroke="black" stroke-width="0.5" fill="#aaffff" cx="574.0" cy="810.0" r="1.0"/>
     <text stroke="none" x="574.0" y="810.0" font-size="20.0" font-family="helvetica">Sponge symbiont clone PAWS52f(AF186417)</text>
    </g>
    <g>
     <circle stroke="black" stroke-width="0.5" fill="#aaffff" cx="578.0" cy="358.0" r="1.0"/>
     <text stroke="none" x="578.0" y="358.0" font-size="20.0" font-family="helvetica">Sedimenvsoil slurry Clone Er-MS-91</text>
    </g>
    <g>
     <circle stroke="black" stroke-width="0.5" fill="#aaffff" cx="578.0" cy="660.0" r="1.0"/>
     <text stroke="none" x="578.0" y="660.0" font-size="20.0" font-family="helvetica">Contaminated groundwater clone GlF9 (AF407200)</text>
    </g>
    <g>
     <circle stroke="black" stroke-width="0.5" fill="#aaffff" cx="598.0" cy="509.0" r="1.0"/>
     <text stroke="none" x="598.0" y="509.0" font-size="20.0" font-family="helvetica">PCB-dechlorinating enrichment culture clone RFLP17 (AFO58005)</text>
    </g>
    <g>
     <circle stroke="black" stroke-width="0.5" fill="#aaffff" cx="600.0" cy="143.0" r="1.0"/>
     <text stroke="none" x="600.0" y="143.0" font-size="20.0" font-family="helvetica">100</text>
    </g>
    <g>
     <circle stroke="black" stroke-width="0.5" fill="#aaffff" cx="606.0" cy="18.0" r="1.0"/>
     <text stroke="none" x="606.0" y="18.0" font-size="20.0" font-family="helvetica">Dehalococcoides ethenogenesT 195 (AFO04928)</text>
    </g>
    <g>
     <circle stroke="black" stroke-width="0.5" fill="#aaffff" cx="606.0" cy="58.0" r="1.0"/>
     <text stroke="none" x="606.0" y="58.0" font-size="20.0" font-family="helvetica">54</text>
    </g>
    <g>
     <circle stroke="black" stroke-width="0.5" fill="#aaffff" cx="607.0" cy="1375.0" r="1.0"/>
     <text stroke="none" x="607.0" y="1375.0" font-size="20.0" font-family="helvetica">Chloroflexus aurantiacus J-10-fl (D38365)</text>
    </g>
    <g>
     <circle stroke="black" stroke-width="0.5" fill="#aaffff" cx="609.0" cy="420.0" r="1.0"/>
     <text stroke="none" x="609.0" y="420.0" font-size="20.0" font-family="helvetica">99</text>
    </g>
    <g>
     <circle stroke="black" stroke-width="0.5" fill="#aaffff" cx="610.0" cy="395.0" r="1.0"/>
     <text stroke="none" x="610.0" y="395.0" font-size="20.0" font-family="helvetica">Strain BL-DC-9T (EU679419)</text>
    </g>
    <g>
     <circle stroke="black" stroke-width="0.5" fill="#aaffff" cx="616.0" cy="95.0" r="1.0"/>
     <text stroke="none" x="616.0" y="95.0" font-size="20.0" font-family="helvetica">TCE-dechlorinating consortium clone 4D (AF427907)</text>
    </g>
    <g>
     <circle stroke="black" stroke-width="0.5" fill="#aaffff" cx="618.0" cy="1413.0" r="1.0"/>
     <text stroke="none" x="618.0" y="1413.0" font-size="20.0" font-family="helvetica">Chloroflexus aggregans MD-66T (D32255)</text>
    </g>
    <g>
     <circle stroke="black" stroke-width="0.5" fill="#aaffff" cx="620.0" cy="434.0" r="1.0"/>
     <text stroke="none" x="620.0" y="434.0" font-size="20.0" font-family="helvetica">Strain BL-DC-8 (EU679418)</text>
    </g>
    <g>
     <circle stroke="black" stroke-width="0.5" fill="#aaffff" cx="622.0" cy="321.0" r="1.0"/>
     <text stroke="none" x="622.0" y="321.0" font-size="20.0" font-family="helvetica">Hudson River sediment clone Z42 (AY754828)</text>
    </g>
    <g>
     <circle stroke="black" stroke-width="0.5" fill="#aaffff" cx="682.0" cy="547.0" r="1.0"/>
     <text stroke="none" x="682.0" y="547.0" font-size="20.0" font-family="helvetica">Strain DF-1</text>
    </g>
    <line stroke="black" x1="606.0" y1="18.0" x2="606.0" y2="58.0" stroke-width="0.5"/>
    <line stroke="black" x1="610.0" y1="395.0" x2="609.0" y2="420.0" stroke-width="0.5"/>
    <line stroke="black" x1="495.0" y1="471.0" x2="412.0" y2="369.0" stroke-width="0.5"/>
    <line stroke="black" x1="474.0" y1="848.0" x2="345.0" y2="882.0" stroke-width="0.5"/>
    <line stroke="black" x1="395.0" y1="1225.0" x2="243.0" y2="1245.0" stroke-width="0.5"/>
    <line stroke="black" x1="606.0" y1="58.0" x2="600.0" y2="143.0" stroke-width="0.5"/>
    <line stroke="black" x1="600.0" y1="143.0" x2="472.0" y2="265.0" stroke-width="0.5"/>
    <line stroke="black" x1="472.0" y1="265.0" x2="412.0" y2="369.0" stroke-width="0.5"/>
    <line stroke="black" x1="472.0" y1="265.0" x2="536.0" y2="385.0" stroke-width="0.5"/>
    <line stroke="black" x1="412.0" y1="369.0" x2="399.0" y2="449.0" stroke-width="0.5"/>
    <line stroke="black" x1="536.0" y1="385.0" x2="609.0" y2="420.0" stroke-width="0.5"/>
    <line stroke="black" x1="399.0" y1="449.0" x2="303.0" y2="527.0" stroke-width="0.5"/>
    <line stroke="black" x1="399.0" y1="449.0" x2="428.0" y2="527.0" stroke-width="0.5"/>
    <line stroke="black" x1="303.0" y1="527.0" x2="269.0" y2="593.0" stroke-width="0.5"/>
    <line stroke="black" x1="303.0" y1="527.0" x2="321.0" y2="602.0" stroke-width="0.5"/>
    <line stroke="black" x1="269.0" y1="593.0" x2="157.0" y2="674.0" stroke-width="0.5"/>
    <line stroke="black" x1="157.0" y1="674.0" x2="131.0" y2="1010.0" stroke-width="0.5"/>
    <line stroke="black" x1="157.0" y1="674.0" x2="169.0" y2="753.0" stroke-width="0.5"/>
    <line stroke="black" x1="169.0" y1="753.0" x2="293.0" y2="790.0" stroke-width="0.5"/>
    <line stroke="black" x1="169.0" y1="753.0" x2="206.0" y2="717.0" stroke-width="0.5"/>
    <line stroke="black" x1="131.0" y1="1010.0" x2="34.0" y2="1073.0" stroke-width="0.5"/>
    <line stroke="black" x1="131.0" y1="1010.0" x2="250.0" y2="950.0" stroke-width="0.5"/>
    <line stroke="black" x1="34.0" y1="1073.0" x2="439.0" y2="1167.0" stroke-width="0.5"/>
    <line stroke="black" x1="250.0" y1="950.0" x2="387.0" y2="1016.0" stroke-width="0.5"/>
    <line stroke="black" x1="250.0" y1="950.0" x2="345.0" y2="882.0" stroke-width="0.5"/>
    <line stroke="black" x1="345.0" y1="882.0" x2="359.0" y2="913.0" stroke-width="0.5"/>
    <line stroke="black" x1="359.0" y1="913.0" x2="383.0" y2="941.0" stroke-width="0.5"/>
    <line stroke="black" x1="60.0" y1="1287.0" x2="127.0" y2="1332.0" stroke-width="0.5"/>
    <line stroke="black" x1="60.0" y1="1287.0" x2="243.0" y2="1245.0" stroke-width="0.5"/>
    <line stroke="black" x1="127.0" y1="1332.0" x2="301.0" y2="1364.0" stroke-width="0.5"/>
    <line stroke="black" x1="301.0" y1="1364.0" x2="488.0" y2="1393.0" stroke-width="0.5"/>
    <line stroke="black" x1="34.0" y1="1073.0" x2="60.0" y2="1287.0" stroke-width="0.5"/>
    <line stroke="black" x1="455.0" y1="1112.0" x2="131.0" y2="1010.0" stroke-width="0.5"/>
    <line stroke="black" x1="359.0" y1="697.0" x2="206.0" y2="717.0" stroke-width="0.5"/>
    <line stroke="black" x1="553.0" y1="1300.0" x2="127.0" y2="1332.0" stroke-width="0.5"/>
    <line stroke="black" x1="421.0" y1="735.0" x2="206.0" y2="717.0" stroke-width="0.5"/>
    <line stroke="black" x1="520.0" y1="1074.0" x2="131.0" y2="1010.0" stroke-width="0.5"/>
    <line stroke="black" x1="413.0" y1="1263.0" x2="243.0" y2="1245.0" stroke-width="0.5"/>
    <line stroke="black" x1="372.0" y1="584.0" x2="321.0" y2="602.0" stroke-width="0.5"/>
    <line stroke="black" x1="578.0" y1="660.0" x2="269.0" y2="593.0" stroke-width="0.5"/>
    <line stroke="black" x1="522.0" y1="1337.0" x2="301.0" y2="1364.0" stroke-width="0.5"/>
    <line stroke="black" x1="498.0" y1="622.0" x2="321.0" y2="602.0" stroke-width="0.5"/>
    <line stroke="black" x1="551.0" y1="772.0" x2="293.0" y2="790.0" stroke-width="0.5"/>
    <line stroke="black" x1="574.0" y1="810.0" x2="293.0" y2="790.0" stroke-width="0.5"/>
    <line stroke="black" x1="481.0" y1="885.0" x2="359.0" y2="913.0" stroke-width="0.5"/>
    <line stroke="black" x1="482.0" y1="923.0" x2="383.0" y2="941.0" stroke-width="0.5"/>
    <line stroke="black" x1="503.0" y1="998.0" x2="387.0" y2="1016.0" stroke-width="0.5"/>
    <line stroke="black" x1="512.0" y1="1036.0" x2="387.0" y2="1016.0" stroke-width="0.5"/>
    <line stroke="black" x1="535.0" y1="961.0" x2="383.0" y2="941.0" stroke-width="0.5"/>
    <line stroke="black" x1="464.0" y1="1149.0" x2="439.0" y2="1167.0" stroke-width="0.5"/>
    <line stroke="black" x1="484.0" y1="1187.0" x2="439.0" y2="1167.0" stroke-width="0.5"/>
    <line stroke="black" x1="598.0" y1="509.0" x2="428.0" y2="527.0" stroke-width="0.5"/>
    <line stroke="black" x1="682.0" y1="547.0" x2="428.0" y2="527.0" stroke-width="0.5"/>
    <line stroke="black" x1="607.0" y1="1375.0" x2="488.0" y2="1393.0" stroke-width="0.5"/>
    <line stroke="black" x1="618.0" y1="1413.0" x2="488.0" y2="1393.0" stroke-width="0.5"/>
    <line stroke="black" x1="578.0" y1="358.0" x2="536.0" y2="385.0" stroke-width="0.5"/>
    <line stroke="black" x1="622.0" y1="321.0" x2="600.0" y2="143.0" stroke-width="0.5"/>
    <line stroke="black" x1="616.0" y1="95.0" x2="606.0" y2="58.0" stroke-width="0.5"/>
    <line stroke="black" x1="620.0" y1="434.0" x2="609.0" y2="420.0" stroke-width="0.5"/>
   </g>
  </g>
 </svg>
</svg>
