<?xml version="1.0" encoding="UTF-8"?>
<svg height="800.0" width="700.0" xmlns="http://www.w3.org/2000/svg">
 <svg>
  <g>
   <g>
    <g>
     <circle stroke="black" stroke-width="0.5" fill="#aaffff" cx="27.0" cy="1741.0" r="1.0"/>
     <text stroke="none" x="27.0" y="1741.0" font-size="20.0" font-family="helvetica"/>
    </g>
    <g>
     <circle stroke="black" stroke-width="0.5" fill="#aaffff" cx="29.0" cy="1741.0" r="1.0"/>
     <text stroke="none" x="29.0" y="1741.0" font-size="10.0" font-family="helvetica">NT1.2</text>
    </g>
    <g>
     <circle stroke="black" stroke-width="0.5" fill="#aaffff" cx="76.0" cy="1697.0" r="1.0"/>
     <text stroke="none" x="76.0" y="1697.0" font-size="10.0" font-family="helvetica">NT1.3</text>
    </g>
    <g>
     <circle stroke="black" stroke-width="0.5" fill="#aaffff" cx="122.0" cy="1619.0" r="1.0"/>
     <text stroke="none" x="122.0" y="1619.0" font-size="10.0" font-family="helvetica">NT1.4</text>
    </g>
    <g>
     <circle stroke="black" stroke-width="0.5" fill="#aaffff" cx="169.0" cy="1520.0" r="1.0"/>
     <text stroke="none" x="169.0" y="1520.0" font-size="10.0" font-family="helvetica">NT1.5</text>
    </g>
    <g>
     <circle stroke="black" stroke-width="0.5" fill="#aaffff" cx="215.0" cy="1439.0" r="1.0"/>
     <text stroke="none" x="215.0" y="1439.0" font-size="10.0" font-family="helvetica">NT1.6</text>
    </g>
    <g>
     <circle stroke="black" stroke-width="0.5" fill="#aaffff" cx="262.0" cy="1358.0" r="1.0"/>
     <text stroke="none" x="262.0" y="1358.0" font-size="10.0" font-family="helvetica">NT1.7</text>
    </g>
    <g>
     <circle stroke="black" stroke-width="0.5" fill="#aaffff" cx="309.0" cy="1238.0" r="1.0"/>
     <text stroke="none" x="309.0" y="1238.0" font-size="10.0" font-family="helvetica">NT1.8</text>
    </g>
    <g>
     <circle stroke="black" stroke-width="0.5" fill="#aaffff" cx="355.0" cy="1081.0" r="1.0"/>
     <text stroke="none" x="355.0" y="1081.0" font-size="10.0" font-family="helvetica">NT1.9</text>
    </g>
    <g>
     <circle stroke="black" stroke-width="0.5" fill="#aaffff" cx="402.0" cy="881.0" r="1.0"/>
     <text stroke="none" x="402.0" y="881.0" font-size="10.0" font-family="helvetica">NT1.10</text>
    </g>
    <g>
     <circle stroke="black" stroke-width="0.5" fill="#aaffff" cx="448.0" cy="570.0" r="1.0"/>
     <text stroke="none" x="448.0" y="570.0" font-size="10.0" font-family="helvetica">NT1.11</text>
    </g>
    <g>
     <circle stroke="black" stroke-width="0.5" fill="#aaffff" cx="495.0" cy="741.0" r="1.0"/>
     <text stroke="none" x="495.0" y="741.0" font-size="10.0" font-family="helvetica">NT1.12</text>
    </g>
    <g>
     <circle stroke="black" stroke-width="0.5" fill="#aaffff" cx="541.0" cy="396.0" r="1.0"/>
     <text stroke="none" x="541.0" y="396.0" font-size="10.0" font-family="helvetica">NT1.13</text>
    </g>
    <g>
     <circle stroke="black" stroke-width="0.5" fill="#aaffff" cx="541.0" cy="857.0" r="1.0"/>
     <text stroke="none" x="541.0" y="857.0" font-size="10.0" font-family="helvetica">NT1.14</text>
    </g>
    <g>
     <circle stroke="black" stroke-width="0.5" fill="#aaffff" cx="588.0" cy="245.0" r="1.0"/>
     <text stroke="none" x="588.0" y="245.0" font-size="10.0" font-family="helvetica">NT1.15</text>
    </g>
    <g>
     <circle stroke="black" stroke-width="0.5" fill="#aaffff" cx="588.0" cy="755.0" r="1.0"/>
     <text stroke="none" x="588.0" y="755.0" font-size="10.0" font-family="helvetica">NT1.16</text>
    </g>
    <g>
     <circle stroke="black" stroke-width="0.5" fill="#aaffff" cx="588.0" cy="962.0" r="1.0"/>
     <text stroke="none" x="588.0" y="962.0" font-size="10.0" font-family="helvetica">NT1.17</text>
    </g>
    <g>
     <circle stroke="black" stroke-width="0.5" fill="#aaffff" cx="634.0" cy="111.0" r="1.0"/>
     <text stroke="none" x="634.0" y="111.0" font-size="10.0" font-family="helvetica">NT1.18</text>
    </g>
    <g>
     <circle stroke="black" stroke-width="0.5" fill="#aaffff" cx="634.0" cy="375.0" r="1.0"/>
     <text stroke="none" x="634.0" y="375.0" font-size="10.0" font-family="helvetica">NT1.19</text>
    </g>
    <g>
     <circle stroke="black" stroke-width="0.5" fill="#aaffff" cx="634.0" cy="1004.0" r="1.0"/>
     <text stroke="none" x="634.0" y="1004.0" font-size="20.0" font-family="helvetica">999</text>
    </g>
    <g>
     <circle stroke="black" stroke-width="0.5" fill="#aaffff" cx="634.0" cy="821.0" r="1.0"/>
     <text stroke="none" x="634.0" y="821.0" font-size="10.0" font-family="helvetica">NT1.21</text>
    </g>
    <g>
     <circle stroke="black" stroke-width="0.5" fill="#aaffff" cx="681.0" cy="175.0" r="1.0"/>
     <text stroke="none" x="681.0" y="175.0" font-size="10.0" font-family="helvetica">NT1.22</text>
    </g>
    <g>
     <circle stroke="black" stroke-width="0.5" fill="#aaffff" cx="681.0" cy="442.0" r="1.0"/>
     <text stroke="none" x="681.0" y="442.0" font-size="10.0" font-family="helvetica">NT1.23</text>
    </g>
    <g>
     <circle stroke="black" stroke-width="0.5" fill="#aaffff" cx="681.0" cy="1046.0" r="1.0"/>
     <text stroke="none" x="681.0" y="1046.0" font-size="10.0" font-family="helvetica">NT1.24</text>
    </g>
    <g>
     <circle stroke="black" stroke-width="0.5" fill="#aaffff" cx="681.0" cy="762.0" r="1.0"/>
     <text stroke="none" x="681.0" y="762.0" font-size="20.0" font-family="helvetica">847</text>
    </g>
    <g>
     <circle stroke="black" stroke-width="0.5" fill="#aaffff" cx="681.0" cy="1392.0" r="1.0"/>
     <text stroke="none" x="681.0" y="1392.0" font-size="10.0" font-family="helvetica">NT1.26</text>
    </g>
    <g>
     <circle stroke="black" stroke-width="0.5" fill="#aaffff" cx="681.0" cy="1600.0" r="1.0"/>
     <text stroke="none" x="681.0" y="1600.0" font-size="10.0" font-family="helvetica">NT1.27</text>
    </g>
    <g>
     <circle stroke="black" stroke-width="0.5" fill="#aaffff" cx="728.0" cy="44.0" r="1.0"/>
     <text stroke="none" x="728.0" y="44.0" font-size="10.0" font-family="helvetica">NT1.28</text>
    </g>
    <g>
     <circle stroke="black" stroke-width="0.5" fill="#aaffff" cx="728.0" cy="220.0" r="1.0"/>
     <text stroke="none" x="728.0" y="220.0" font-size="20.0" font-family="helvetica">977</text>
    </g>
    <g>
     <circle stroke="black" stroke-width="0.5" fill="#aaffff" cx="728.0" cy="400.0" r="1.0"/>
     <text stroke="none" x="728.0" y="400.0" font-size="20.0" font-family="helvetica">964</text>
    </g>
    <g>
     <circle stroke="black" stroke-width="0.5" fill="#aaffff" cx="728.0" cy="1090.0" r="1.0"/>
     <text stroke="none" x="728.0" y="1090.0" font-size="20.0" font-family="helvetica">830</text>
    </g>
    <g>
     <circle stroke="black" stroke-width="0.5" fill="#aaffff" cx="728.0" cy="793.0" r="1.0"/>
     <text stroke="none" x="728.0" y="793.0" font-size="20.0" font-family="helvetica">849</text>
    </g>
    <g>
     <circle stroke="black" stroke-width="0.5" fill="#aaffff" cx="728.0" cy="1189.0" r="1.0"/>
     <text stroke="none" x="728.0" y="1189.0" font-size="10.0" font-family="helvetica">NT1.33</text>
    </g>
    <g>
     <circle stroke="black" stroke-width="0.5" fill="#aaffff" cx="728.0" cy="1350.0" r="1.0"/>
     <text stroke="none" x="728.0" y="1350.0" font-size="10.0" font-family="helvetica">NT1.34</text>
    </g>
    <g>
     <circle stroke="black" stroke-width="0.5" fill="#aaffff" cx="728.0" cy="1644.0" r="1.0"/>
     <text stroke="none" x="728.0" y="1644.0" font-size="20.0" font-family="helvetica">933</text>
    </g>
    <g>
     <circle stroke="black" stroke-width="0.5" fill="#aaffff" cx="774.0" cy="71.0" r="1.0"/>
     <text stroke="none" x="774.0" y="71.0" font-size="10.0" font-family="helvetica">NT1.36</text>
    </g>
    <g>
     <circle stroke="black" stroke-width="0.5" fill="#aaffff" cx="774.0" cy="193.0" r="1.0"/>
     <text stroke="none" x="774.0" y="193.0" font-size="10.0" font-family="helvetica">NT1.37</text>
    </g>
    <g>
     <circle stroke="black" stroke-width="0.5" fill="#aaffff" cx="774.0" cy="311.0" r="1.0"/>
     <text stroke="none" x="774.0" y="311.0" font-size="10.0" font-family="helvetica">NT1.38</text>
    </g>
    <g>
     <circle stroke="black" stroke-width="0.5" fill="#aaffff" cx="774.0" cy="427.0" r="1.0"/>
     <text stroke="none" x="774.0" y="427.0" font-size="20.0" font-family="helvetica">933</text>
    </g>
    <g>
     <circle stroke="black" stroke-width="0.5" fill="#aaffff" cx="774.0" cy="546.0" r="1.0"/>
     <text stroke="none" x="774.0" y="546.0" font-size="10.0" font-family="helvetica">NT1.40</text>
    </g>
    <g>
     <circle stroke="black" stroke-width="0.5" fill="#aaffff" cx="774.0" cy="628.0" r="1.0"/>
     <text stroke="none" x="774.0" y="628.0" font-size="10.0" font-family="helvetica">NT1.41</text>
    </g>
    <g>
     <circle stroke="black" stroke-width="0.5" fill="#aaffff" cx="774.0" cy="1064.0" r="1.0"/>
     <text stroke="none" x="774.0" y="1064.0" font-size="20.0" font-family="helvetica">809</text>
    </g>
    <g>
     <circle stroke="black" stroke-width="0.5" fill="#aaffff" cx="774.0" cy="823.0" r="1.0"/>
     <text stroke="none" x="774.0" y="823.0" font-size="10.0" font-family="helvetica">NT1.43</text>
    </g>
    <g>
     <circle stroke="black" stroke-width="0.5" fill="#aaffff" cx="774.0" cy="1219.0" r="1.0"/>
     <text stroke="none" x="774.0" y="1219.0" font-size="20.0" font-family="helvetica">999</text>
    </g>
    <g>
     <circle stroke="black" stroke-width="0.5" fill="#aaffff" cx="774.0" cy="1377.0" r="1.0"/>
     <text stroke="none" x="774.0" y="1377.0" font-size="10.0" font-family="helvetica">NT1.45</text>
    </g>
    <g>
     <circle stroke="black" stroke-width="0.5" fill="#aaffff" cx="774.0" cy="1618.0" r="1.0"/>
     <text stroke="none" x="774.0" y="1618.0" font-size="20.0" font-family="helvetica">980</text>
    </g>
    <g>
     <circle stroke="black" stroke-width="0.5" fill="#aaffff" cx="774.0" cy="1773.0" r="1.0"/>
     <text stroke="none" x="774.0" y="1773.0" font-size="10.0" font-family="helvetica">NT1.47</text>
    </g>
    <g>
     <circle stroke="black" stroke-width="0.5" fill="#aaffff" cx="822.0" cy="13.0" r="1.0"/>
     <text stroke="none" x="822.0" y="13.0" font-size="20.0" font-family="helvetica">Deinococcus aquatilis CCUG 533707 (AM940971)</text>
    </g>
    <g>
     <circle stroke="black" stroke-width="0.5" fill="#aaffff" cx="822.0" cy="53.0" r="1.0"/>
     <text stroke="none" x="822.0" y="53.0" font-size="20.0" font-family="helvetica">Deinococcus mumbaiensis CON-17 (DQ003135)</text>
    </g>
    <g>
     <circle stroke="black" stroke-width="0.5" fill="#aaffff" cx="822.0" cy="93.0" r="1.0"/>
     <text stroke="none" x="822.0" y="93.0" font-size="20.0" font-family="helvetica">Deinococcus ficus CC-FR2-107 (AY941086)</text>
    </g>
    <g>
     <circle stroke="black" stroke-width="0.5" fill="#aaffff" cx="822.0" cy="131.0" r="1.0"/>
     <text stroke="none" x="822.0" y="131.0" font-size="10.0" font-family="helvetica">NT1.51</text>
    </g>
    <g>
     <circle stroke="black" stroke-width="0.5" fill="#aaffff" cx="822.0" cy="251.0" r="1.0"/>
     <text stroke="none" x="822.0" y="251.0" font-size="20.0" font-family="helvetica">Deinococcus radiodurans DSM 205397 (Y11332)</text>
    </g>
    <g>
     <circle stroke="black" stroke-width="0.5" fill="#aaffff" cx="822.0" cy="211.0" r="1.0"/>
     <text stroke="none" x="822.0" y="211.0" font-size="10.0" font-family="helvetica">NT1.53</text>
    </g>
    <g>
     <circle stroke="black" stroke-width="0.5" fill="#aaffff" cx="822.0" cy="171.0" r="1.0"/>
     <text stroke="none" x="822.0" y="171.0" font-size="10.0" font-family="helvetica">NT1.54</text>
    </g>
    <g>
     <circle stroke="black" stroke-width="0.5" fill="#aaffff" cx="822.0" cy="290.0" r="1.0"/>
     <text stroke="none" x="822.0" y="290.0" font-size="20.0" font-family="helvetica">Deinococcus aquaticus PB3147 (DQ017708)</text>
    </g>
    <g>
     <circle stroke="black" stroke-width="0.5" fill="#aaffff" cx="822.0" cy="330.0" r="1.0"/>
     <text stroke="none" x="822.0" y="330.0" font-size="20.0" font-family="helvetica">Deinococcus caeni Ho-O87 (DQ017709)</text>
    </g>
    <g>
     <circle stroke="black" stroke-width="0.5" fill="#aaffff" cx="822.0" cy="489.0" r="1.0"/>
     <text stroke="none" x="822.0" y="489.0" font-size="10.0" font-family="helvetica">NT1.57</text>
    </g>
    <g>
     <circle stroke="black" stroke-width="0.5" fill="#aaffff" cx="822.0" cy="369.0" r="1.0"/>
     <text stroke="none" x="822.0" y="369.0" font-size="20.0" font-family="helvetica">Deinococcus deserti VCD1157 (AY876378)</text>
    </g>
    <g>
     <circle stroke="black" stroke-width="0.5" fill="#aaffff" cx="822.0" cy="408.0" r="1.0"/>
     <text stroke="none" x="822.0" y="408.0" font-size="20.0" font-family="helvetica">Deinococcus hohokamensis KR-407 (AY743256)</text>
    </g>
    <g>
     <circle stroke="black" stroke-width="0.5" fill="#aaffff" cx="822.0" cy="449.0" r="1.0"/>
     <text stroke="none" x="822.0" y="449.0" font-size="20.0" font-family="helvetica">Deinococcus navajonensis KR-1 147 (AY743259)</text>
    </g>
    <g>
     <circle stroke="black" stroke-width="0.5" fill="#aaffff" cx="822.0" cy="527.0" r="1.0"/>
     <text stroke="none" x="822.0" y="527.0" font-size="20.0" font-family="helvetica">Deinococcus gobiensis I-O7 (EU427464)</text>
    </g>
    <g>
     <circle stroke="black" stroke-width="0.5" fill="#aaffff" cx="822.0" cy="568.0" r="1.0"/>
     <text stroke="none" x="822.0" y="568.0" font-size="10.0" font-family="helvetica">NT1.62</text>
    </g>
    <g>
     <circle stroke="black" stroke-width="0.5" fill="#aaffff" cx="822.0" cy="607.0" r="1.0"/>
     <text stroke="none" x="822.0" y="607.0" font-size="20.0" font-family="helvetica">Deinococcus hopiensis KR-1407 (AY743262)</text>
    </g>
    <g>
     <circle stroke="black" stroke-width="0.5" fill="#aaffff" cx="822.0" cy="647.0" r="1.0"/>
     <text stroke="none" x="822.0" y="647.0" font-size="20.0" font-family="helvetica">Deinococcus xinjiangensis X-827 (EU626561)</text>
    </g>
    <g>
     <circle stroke="black" stroke-width="0.5" fill="#aaffff" cx="822.0" cy="923.0" r="1.0"/>
     <text stroke="none" x="822.0" y="923.0" font-size="20.0" font-family="helvetica">Deinococcus aerophilus 5516T-1 17 (EU622979)</text>
    </g>
    <g>
     <circle stroke="black" stroke-width="0.5" fill="#aaffff" cx="822.0" cy="686.0" r="1.0"/>
     <text stroke="none" x="822.0" y="686.0" font-size="20.0" font-family="helvetica">Deinococcus yunweiensis YIM 0077 (DQ344634)</text>
    </g>
    <g>
     <circle stroke="black" stroke-width="0.5" fill="#aaffff" cx="822.0" cy="963.0" r="1.0"/>
     <text stroke="none" x="822.0" y="963.0" font-size="20.0" font-family="helvetica">Deinococcus aerolatus 5516T-97 (EU622978)</text>
    </g>
    <g>
     <circle stroke="black" stroke-width="0.5" fill="#aaffff" cx="822.0" cy="1002.0" r="1.0"/>
     <text stroke="none" x="822.0" y="1002.0" font-size="10.0" font-family="helvetica">NT1.68</text>
    </g>
    <g>
     <circle stroke="black" stroke-width="0.5" fill="#aaffff" cx="822.0" cy="884.0" r="1.0"/>
     <text stroke="none" x="822.0" y="884.0" font-size="10.0" font-family="helvetica">NT1.69</text>
    </g>
    <g>
     <circle stroke="black" stroke-width="0.5" fill="#aaffff" cx="822.0" cy="1121.0" r="1.0"/>
     <text stroke="none" x="822.0" y="1121.0" font-size="20.0" font-family="helvetica">Deinococcus marmoris AA -637 (AJ585986)</text>
    </g>
    <g>
     <circle stroke="black" stroke-width="0.5" fill="#aaffff" cx="822.0" cy="1082.0" r="1.0"/>
     <text stroke="none" x="822.0" y="1082.0" font-size="20.0" font-family="helvetica">Deinococcus frigens AA -6927 (AJ585981)</text>
    </g>
    <g>
     <circle stroke="black" stroke-width="0.5" fill="#aaffff" cx="822.0" cy="1042.0" r="1.0"/>
     <text stroke="none" x="822.0" y="1042.0" font-size="10.0" font-family="helvetica">NT1.72</text>
    </g>
    <g>
     <circle stroke="black" stroke-width="0.5" fill="#aaffff" cx="822.0" cy="725.0" r="1.0"/>
     <text stroke="none" x="822.0" y="725.0" font-size="20.0" font-family="helvetica">Deinococcus geothermalis AG-3a7 (Y13038)</text>
    </g>
    <g>
     <circle stroke="black" stroke-width="0.5" fill="#aaffff" cx="822.0" cy="765.0" r="1.0"/>
     <text stroke="none" x="822.0" y="765.0" font-size="20.0" font-family="helvetica">Deinococcus apachensis KR -367 (AY743264)</text>
    </g>
    <g>
     <circle stroke="black" stroke-width="0.5" fill="#aaffff" cx="822.0" cy="844.0" r="1.0"/>
     <text stroke="none" x="822.0" y="844.0" font-size="20.0" font-family="helvetica">Deinococcus aetherius ST03167 (ABO87287)</text>
    </g>
    <g>
     <circle stroke="black" stroke-width="0.5" fill="#aaffff" cx="822.0" cy="804.0" r="1.0"/>
     <text stroke="none" x="822.0" y="804.0" font-size="20.0" font-family="helvetica">Deinococcus aerius TR01257 (ABO87288)</text>
    </g>
    <g>
     <circle stroke="black" stroke-width="0.5" fill="#aaffff" cx="822.0" cy="1161.0" r="1.0"/>
     <text stroke="none" x="822.0" y="1161.0" font-size="10.0" font-family="helvetica">NT1.77</text>
    </g>
    <g>
     <circle stroke="black" stroke-width="0.5" fill="#aaffff" cx="822.0" cy="1240.0" r="1.0"/>
     <text stroke="none" x="822.0" y="1240.0" font-size="20.0" font-family="helvetica">Deinococcus piscis 3ax7 (DQ683348)</text>
    </g>
    <g>
     <circle stroke="black" stroke-width="0.5" fill="#aaffff" cx="822.0" cy="1200.0" r="1.0"/>
     <text stroke="none" x="822.0" y="1200.0" font-size="20.0" font-family="helvetica">Deinococcus proteolyticus DSM 205407 (Y11331)</text>
    </g>
    <g>
     <circle stroke="black" stroke-width="0.5" fill="#aaffff" cx="822.0" cy="1280.0" r="1.0"/>
     <text stroke="none" x="822.0" y="1280.0" font-size="10.0" font-family="helvetica">NT1.80</text>
    </g>
    <g>
     <circle stroke="black" stroke-width="0.5" fill="#aaffff" cx="822.0" cy="1438.0" r="1.0"/>
     <text stroke="none" x="822.0" y="1438.0" font-size="10.0" font-family="helvetica">NT1.81</text>
    </g>
    <g>
     <circle stroke="black" stroke-width="0.5" fill="#aaffff" cx="822.0" cy="1319.0" r="1.0"/>
     <text stroke="none" x="822.0" y="1319.0" font-size="10.0" font-family="helvetica">NT1.82</text>
    </g>
    <g>
     <circle stroke="black" stroke-width="0.5" fill="#aaffff" cx="822.0" cy="1358.0" r="1.0"/>
     <text stroke="none" x="822.0" y="1358.0" font-size="20.0" font-family="helvetica">Deinococcus aquiradiocola TDMA -uv537 (AB265180)</text>
    </g>
    <g>
     <circle stroke="black" stroke-width="0.5" fill="#aaffff" cx="822.0" cy="1399.0" r="1.0"/>
     <text stroke="none" x="822.0" y="1399.0" font-size="10.0" font-family="helvetica">NT1.84</text>
    </g>
    <g>
     <circle stroke="black" stroke-width="0.5" fill="#aaffff" cx="822.0" cy="1478.0" r="1.0"/>
     <text stroke="none" x="822.0" y="1478.0" font-size="20.0" font-family="helvetica">Deinococcus sonorensis KR -877 (AY743283)</text>
    </g>
    <g>
     <circle stroke="black" stroke-width="0.5" fill="#aaffff" cx="822.0" cy="1517.0" r="1.0"/>
     <text stroke="none" x="822.0" y="1517.0" font-size="20.0" font-family="helvetica">Deinococcus maricopensis LB-347 (AY743274)</text>
    </g>
    <g>
     <circle stroke="black" stroke-width="0.5" fill="#aaffff" cx="822.0" cy="1557.0" r="1.0"/>
     <text stroke="none" x="822.0" y="1557.0" font-size="20.0" font-family="helvetica">Deinococcus peraridilitoris KR-2007 (EF141348)</text>
    </g>
    <g>
     <circle stroke="black" stroke-width="0.5" fill="#aaffff" cx="822.0" cy="1676.0" r="1.0"/>
     <text stroke="none" x="822.0" y="1676.0" font-size="20.0" font-family="helvetica">Deinococcus pimensis KR-2357 (AY743277)</text>
    </g>
    <g>
     <circle stroke="black" stroke-width="0.5" fill="#aaffff" cx="822.0" cy="1636.0" r="1.0"/>
     <text stroke="none" x="822.0" y="1636.0" font-size="20.0" font-family="helvetica">Deinococcus papagonensis KR-2417 (AY743280)</text>
    </g>
    <g>
     <circle stroke="black" stroke-width="0.5" fill="#aaffff" cx="822.0" cy="1596.0" r="1.0"/>
     <text stroke="none" x="822.0" y="1596.0" font-size="20.0" font-family="helvetica">Deinococcus yavapaiensis KR -2367 (AY743279)</text>
    </g>
    <g>
     <circle stroke="black" stroke-width="0.5" fill="#aaffff" cx="822.0" cy="1715.0" r="1.0"/>
     <text stroke="none" x="822.0" y="1715.0" font-size="10.0" font-family="helvetica">NT1.91</text>
    </g>
    <g>
     <circle stroke="black" stroke-width="0.5" fill="#aaffff" cx="822.0" cy="1754.0" r="1.0"/>
     <text stroke="none" x="822.0" y="1754.0" font-size="20.0" font-family="helvetica">Deinococcus roseus TDMA-uv517 (AB264136)</text>
    </g>
    <g>
     <circle stroke="black" stroke-width="0.5" fill="#aaffff" cx="822.0" cy="1795.0" r="1.0"/>
     <text stroke="none" x="822.0" y="1795.0" font-size="20.0" font-family="helvetica">Deinococcus misasensis TDMA -257 (AB264135)</text>
    </g>
    <g>
     <circle stroke="black" stroke-width="0.5" fill="#aaffff" cx="822.0" cy="1834.0" r="1.0"/>
     <text stroke="none" x="822.0" y="1834.0" font-size="20.0" font-family="helvetica">Truepera radiovictrix RC)-247 (DQ022076)</text>
    </g>
    <line stroke="black" x1="29.0" y1="1741.0" x2="27.0" y2="1741.0" stroke-width="0.5"/>
    <line stroke="black" x1="728.0" y1="44.0" x2="634.0" y2="111.0" stroke-width="0.5"/>
    <line stroke="black" x1="728.0" y1="44.0" x2="774.0" y2="71.0" stroke-width="0.5"/>
    <line stroke="black" x1="634.0" y1="111.0" x2="588.0" y2="245.0" stroke-width="0.5"/>
    <line stroke="black" x1="588.0" y1="245.0" x2="541.0" y2="396.0" stroke-width="0.5"/>
    <line stroke="black" x1="588.0" y1="245.0" x2="634.0" y2="375.0" stroke-width="0.5"/>
    <line stroke="black" x1="634.0" y1="375.0" x2="774.0" y2="311.0" stroke-width="0.5"/>
    <line stroke="black" x1="541.0" y1="396.0" x2="448.0" y2="570.0" stroke-width="0.5"/>
    <line stroke="black" x1="681.0" y1="442.0" x2="728.0" y2="400.0" stroke-width="0.5"/>
    <line stroke="black" x1="728.0" y1="400.0" x2="774.0" y2="427.0" stroke-width="0.5"/>
    <line stroke="black" x1="448.0" y1="570.0" x2="402.0" y2="881.0" stroke-width="0.5"/>
    <line stroke="black" x1="448.0" y1="570.0" x2="495.0" y2="741.0" stroke-width="0.5"/>
    <line stroke="black" x1="495.0" y1="741.0" x2="541.0" y2="857.0" stroke-width="0.5"/>
    <line stroke="black" x1="495.0" y1="741.0" x2="774.0" y2="628.0" stroke-width="0.5"/>
    <line stroke="black" x1="402.0" y1="881.0" x2="355.0" y2="1081.0" stroke-width="0.5"/>
    <line stroke="black" x1="541.0" y1="857.0" x2="588.0" y2="962.0" stroke-width="0.5"/>
    <line stroke="black" x1="541.0" y1="857.0" x2="588.0" y2="755.0" stroke-width="0.5"/>
    <line stroke="black" x1="588.0" y1="962.0" x2="634.0" y2="1004.0" stroke-width="0.5"/>
    <line stroke="black" x1="634.0" y1="821.0" x2="681.0" y2="762.0" stroke-width="0.5"/>
    <line stroke="black" x1="681.0" y1="1046.0" x2="728.0" y2="1090.0" stroke-width="0.5"/>
    <line stroke="black" x1="681.0" y1="762.0" x2="728.0" y2="793.0" stroke-width="0.5"/>
    <line stroke="black" x1="309.0" y1="1238.0" x2="262.0" y2="1358.0" stroke-width="0.5"/>
    <line stroke="black" x1="728.0" y1="793.0" x2="774.0" y2="823.0" stroke-width="0.5"/>
    <line stroke="black" x1="262.0" y1="1358.0" x2="215.0" y2="1439.0" stroke-width="0.5"/>
    <line stroke="black" x1="728.0" y1="1189.0" x2="774.0" y2="1219.0" stroke-width="0.5"/>
    <line stroke="black" x1="215.0" y1="1439.0" x2="169.0" y2="1520.0" stroke-width="0.5"/>
    <line stroke="black" x1="169.0" y1="1520.0" x2="122.0" y2="1619.0" stroke-width="0.5"/>
    <line stroke="black" x1="169.0" y1="1520.0" x2="681.0" y2="1600.0" stroke-width="0.5"/>
    <line stroke="black" x1="76.0" y1="1697.0" x2="29.0" y2="1741.0" stroke-width="0.5"/>
    <line stroke="black" x1="76.0" y1="1697.0" x2="774.0" y2="1773.0" stroke-width="0.5"/>
    <line stroke="black" x1="681.0" y1="1600.0" x2="728.0" y2="1644.0" stroke-width="0.5"/>
    <line stroke="black" x1="728.0" y1="1644.0" x2="774.0" y2="1618.0" stroke-width="0.5"/>
    <line stroke="black" x1="822.0" y1="1834.0" x2="29.0" y2="1741.0" stroke-width="0.5"/>
    <line stroke="black" x1="822.0" y1="1517.0" x2="215.0" y2="1439.0" stroke-width="0.5"/>
    <line stroke="black" x1="822.0" y1="1478.0" x2="262.0" y2="1358.0" stroke-width="0.5"/>
    <line stroke="black" x1="822.0" y1="686.0" x2="588.0" y2="755.0" stroke-width="0.5"/>
    <line stroke="black" x1="822.0" y1="923.0" x2="588.0" y2="962.0" stroke-width="0.5"/>
    <line stroke="black" x1="822.0" y1="963.0" x2="634.0" y2="1004.0" stroke-width="0.5"/>
    <line stroke="black" x1="822.0" y1="1557.0" x2="681.0" y2="1600.0" stroke-width="0.5"/>
    <line stroke="black" x1="822.0" y1="725.0" x2="681.0" y2="762.0" stroke-width="0.5"/>
    <line stroke="black" x1="822.0" y1="1121.0" x2="728.0" y2="1090.0" stroke-width="0.5"/>
    <line stroke="black" x1="822.0" y1="251.0" x2="728.0" y2="220.0" stroke-width="0.5"/>
    <line stroke="black" x1="822.0" y1="369.0" x2="728.0" y2="400.0" stroke-width="0.5"/>
    <line stroke="black" x1="822.0" y1="765.0" x2="728.0" y2="793.0" stroke-width="0.5"/>
    <line stroke="black" x1="822.0" y1="1676.0" x2="728.0" y2="1644.0" stroke-width="0.5"/>
    <line stroke="black" x1="822.0" y1="13.0" x2="728.0" y2="44.0" stroke-width="0.5"/>
    <line stroke="black" x1="822.0" y1="53.0" x2="774.0" y2="71.0" stroke-width="0.5"/>
    <line stroke="black" x1="822.0" y1="607.0" x2="774.0" y2="628.0" stroke-width="0.5"/>
    <line stroke="black" x1="822.0" y1="844.0" x2="774.0" y2="823.0" stroke-width="0.5"/>
    <line stroke="black" x1="822.0" y1="93.0" x2="774.0" y2="71.0" stroke-width="0.5"/>
    <line stroke="black" x1="822.0" y1="290.0" x2="774.0" y2="311.0" stroke-width="0.5"/>
    <line stroke="black" x1="822.0" y1="330.0" x2="774.0" y2="311.0" stroke-width="0.5"/>
    <line stroke="black" x1="822.0" y1="408.0" x2="774.0" y2="427.0" stroke-width="0.5"/>
    <line stroke="black" x1="822.0" y1="449.0" x2="774.0" y2="427.0" stroke-width="0.5"/>
    <line stroke="black" x1="822.0" y1="527.0" x2="774.0" y2="546.0" stroke-width="0.5"/>
    <line stroke="black" x1="822.0" y1="647.0" x2="774.0" y2="628.0" stroke-width="0.5"/>
    <line stroke="black" x1="822.0" y1="1082.0" x2="774.0" y2="1064.0" stroke-width="0.5"/>
    <line stroke="black" x1="822.0" y1="804.0" x2="774.0" y2="823.0" stroke-width="0.5"/>
    <line stroke="black" x1="822.0" y1="1240.0" x2="774.0" y2="1219.0" stroke-width="0.5"/>
    <line stroke="black" x1="822.0" y1="1200.0" x2="774.0" y2="1219.0" stroke-width="0.5"/>
    <line stroke="black" x1="822.0" y1="1358.0" x2="774.0" y2="1377.0" stroke-width="0.5"/>
    <line stroke="black" x1="822.0" y1="1636.0" x2="774.0" y2="1618.0" stroke-width="0.5"/>
    <line stroke="black" x1="822.0" y1="1596.0" x2="774.0" y2="1618.0" stroke-width="0.5"/>
    <line stroke="black" x1="822.0" y1="1754.0" x2="774.0" y2="1773.0" stroke-width="0.5"/>
    <line stroke="black" x1="822.0" y1="1795.0" x2="774.0" y2="1773.0" stroke-width="0.5"/>
   </g>
  </g>
 </svg>
</svg>
