<?xml version="1.0" encoding="UTF-8"?>
<svg height="800.0" width="700.0" xmlns="http://www.w3.org/2000/svg">
 <svg>
  <g>
   <g>
    <g>
     <circle stroke="black" stroke-width="0.5" fill="#aaffff" cx="18.0" cy="463.0" r="1.0"/>
     <text stroke="none" x="18.0" y="463.0" font-size="10.0" font-family="helvetica">NT1.1</text>
    </g>
    <g>
     <circle stroke="black" stroke-width="0.5" fill="#aaffff" cx="39.0" cy="252.0" r="1.0"/>
     <text stroke="none" x="39.0" y="252.0" font-size="10.0" font-family="helvetica">NT1.2</text>
    </g>
    <g>
     <circle stroke="black" stroke-width="0.5" fill="#aaffff" cx="55.0" cy="166.0" r="1.0"/>
     <text stroke="none" x="55.0" y="166.0" font-size="10.0" font-family="helvetica">NT1.3</text>
    </g>
    <g>
     <circle stroke="black" stroke-width="0.5" fill="#aaffff" cx="67.0" cy="110.0" r="1.0"/>
     <text stroke="none" x="67.0" y="110.0" font-size="10.0" font-family="helvetica">NT1.4</text>
    </g>
    <g>
     <circle stroke="black" stroke-width="0.5" fill="#aaffff" cx="107.0" cy="526.0" r="1.0"/>
     <text stroke="none" x="107.0" y="526.0" font-size="20.0" font-family="helvetica">98</text>
    </g>
    <g>
     <circle stroke="black" stroke-width="0.5" fill="#aaffff" cx="137.0" cy="220.0" r="1.0"/>
     <text stroke="none" x="137.0" y="220.0" font-size="10.0" font-family="helvetica">NT1.6</text>
    </g>
    <g>
     <circle stroke="black" stroke-width="0.5" fill="#aaffff" cx="140.0" cy="74.0" r="1.0"/>
     <text stroke="none" x="140.0" y="74.0" font-size="10.0" font-family="helvetica">NT1.7</text>
    </g>
    <g>
     <circle stroke="black" stroke-width="0.5" fill="#aaffff" cx="164.0" cy="337.0" r="1.0"/>
     <text stroke="none" x="164.0" y="337.0" font-size="10.0" font-family="helvetica">NT1.8</text>
    </g>
    <g>
     <circle stroke="black" stroke-width="0.5" fill="#aaffff" cx="188.0" cy="252.0" r="1.0"/>
     <text stroke="none" x="188.0" y="252.0" font-size="10.0" font-family="helvetica">NT1.9</text>
    </g>
    <g>
     <circle stroke="black" stroke-width="0.5" fill="#aaffff" cx="220.0" cy="42.0" r="1.0"/>
     <text stroke="none" x="220.0" y="42.0" font-size="10.0" font-family="helvetica">NT1.10</text>
    </g>
    <g>
     <circle stroke="black" stroke-width="0.5" fill="#aaffff" cx="267.0" cy="105.0" r="1.0"/>
     <text stroke="none" x="267.0" y="105.0" font-size="10.0" font-family="helvetica">NT1.11</text>
    </g>
    <g>
     <circle stroke="black" stroke-width="0.5" fill="#aaffff" cx="270.0" cy="590.0" r="1.0"/>
     <text stroke="none" x="270.0" y="590.0" font-size="20.0" font-family="helvetica">100</text>
    </g>
    <g>
     <circle stroke="black" stroke-width="0.5" fill="#aaffff" cx="272.0" cy="464.0" r="1.0"/>
     <text stroke="none" x="272.0" y="464.0" font-size="10.0" font-family="helvetica">NT1.13</text>
    </g>
    <g>
     <circle stroke="black" stroke-width="0.5" fill="#aaffff" cx="281.0" cy="231.0" r="1.0"/>
     <text stroke="none" x="281.0" y="231.0" font-size="20.0" font-family="helvetica">Tessaracoccus flavescens SST-39T (AM393882)</text>
    </g>
    <g>
     <circle stroke="black" stroke-width="0.5" fill="#aaffff" cx="318.0" cy="63.0" r="1.0"/>
     <text stroke="none" x="318.0" y="63.0" font-size="20.0" font-family="helvetica">Luteococcus sanguinis CCUG 338977 (AJ416758)</text>
    </g>
    <g>
     <circle stroke="black" stroke-width="0.5" fill="#aaffff" cx="322.0" cy="189.0" r="1.0"/>
     <text stroke="none" x="322.0" y="189.0" font-size="10.0" font-family="helvetica">NT1.16</text>
    </g>
    <g>
     <circle stroke="black" stroke-width="0.5" fill="#aaffff" cx="351.0" cy="274.0" r="1.0"/>
     <text stroke="none" x="351.0" y="274.0" font-size="10.0" font-family="helvetica">NT1.17</text>
    </g>
    <g>
     <circle stroke="black" stroke-width="0.5" fill="#aaffff" cx="380.0" cy="20.0" r="1.0"/>
     <text stroke="none" x="380.0" y="20.0" font-size="10.0" font-family="helvetica">NT1.18</text>
    </g>
    <g>
     <circle stroke="black" stroke-width="0.5" fill="#aaffff" cx="385.0" cy="147.0" r="1.0"/>
     <text stroke="none" x="385.0" y="147.0" font-size="20.0" font-family="helvetica"> Aestuariimicrobium kwangyangense R27T (DQ830982)</text>
    </g>
    <g>
     <circle stroke="black" stroke-width="0.5" fill="#aaffff" cx="393.0" cy="632.0" r="1.0"/>
     <text stroke="none" x="393.0" y="632.0" font-size="20.0" font-family="helvetica">100</text>
    </g>
    <g>
     <circle stroke="black" stroke-width="0.5" fill="#aaffff" cx="425.0" cy="485.0" r="1.0"/>
     <text stroke="none" x="425.0" y="485.0" font-size="20.0" font-family="helvetica">Propionibacterium australiense 98AO72T (AF225962)</text>
    </g>
    <g>
     <circle stroke="black" stroke-width="0.5" fill="#aaffff" cx="450.0" cy="549.0" r="1.0"/>
     <text stroke="none" x="450.0" y="549.0" font-size="10.0" font-family="helvetica">NT1.22</text>
    </g>
    <g>
     <circle stroke="black" stroke-width="0.5" fill="#aaffff" cx="459.0" cy="400.0" r="1.0"/>
     <text stroke="none" x="459.0" y="400.0" font-size="10.0" font-family="helvetica">NT1.23</text>
    </g>
    <g>
     <circle stroke="black" stroke-width="0.5" fill="#aaffff" cx="464.0" cy="316.0" r="1.0"/>
     <text stroke="none" x="464.0" y="316.0" font-size="20.0" font-family="helvetica"> Granulicoccus phenolivorans PG-02T (AY566575)</text>
    </g>
    <g>
     <circle stroke="black" stroke-width="0.5" fill="#aaffff" cx="475.0" cy="570.0" r="1.0"/>
     <text stroke="none" x="475.0" y="570.0" font-size="20.0" font-family="helvetica"> Propionibacterium propionicum DSM 43307T (AJ003058)</text>
    </g>
    <g>
     <circle stroke="black" stroke-width="0.5" fill="#aaffff" cx="475.0" cy="527.0" r="1.0"/>
     <text stroke="none" x="475.0" y="527.0" font-size="10.0" font-family="helvetica">NT1.26</text>
    </g>
    <g>
     <circle stroke="black" stroke-width="0.5" fill="#aaffff" cx="483.0" cy="442.0" r="1.0"/>
     <text stroke="none" x="483.0" y="442.0" font-size="10.0" font-family="helvetica">NT1.27</text>
    </g>
    <g>
     <circle stroke="black" stroke-width="0.5" fill="#aaffff" cx="504.0" cy="611.0" r="1.0"/>
     <text stroke="none" x="504.0" y="611.0" font-size="20.0" font-family="helvetica">Propionibacterium rnicroaerophilum M5T (AF234623)</text>
    </g>
    <g>
     <circle stroke="black" stroke-width="0.5" fill="#aaffff" cx="506.0" cy="359.0" r="1.0"/>
     <text stroke="none" x="506.0" y="359.0" font-size="10.0" font-family="helvetica">NT1.29</text>
    </g>
    <g>
     <circle stroke="black" stroke-width="0.5" fill="#aaffff" cx="506.0" cy="655.0" r="1.0"/>
     <text stroke="none" x="506.0" y="655.0" font-size="20.0" font-family="helvetica">Propionibacterium jensenii DSM 205357 (X53219)</text>
    </g>
    <g>
     <circle stroke="black" stroke-width="0.5" fill="#aaffff" cx="7.0" cy="357.0" r="1.0"/>
     <text stroke="none" x="7.0" y="357.0" font-size="10.0" font-family="helvetica">NT1.31</text>
    </g>
    <line stroke="black" x1="318.0" y1="63.0" x2="220.0" y2="42.0" stroke-width="0.5"/>
    <line stroke="black" x1="385.0" y1="147.0" x2="67.0" y2="110.0" stroke-width="0.5"/>
    <line stroke="black" x1="281.0" y1="231.0" x2="188.0" y2="252.0" stroke-width="0.5"/>
    <line stroke="black" x1="464.0" y1="316.0" x2="164.0" y2="337.0" stroke-width="0.5"/>
    <line stroke="black" x1="425.0" y1="485.0" x2="272.0" y2="464.0" stroke-width="0.5"/>
    <line stroke="black" x1="475.0" y1="570.0" x2="450.0" y2="549.0" stroke-width="0.5"/>
    <line stroke="black" x1="504.0" y1="611.0" x2="393.0" y2="632.0" stroke-width="0.5"/>
    <line stroke="black" x1="506.0" y1="655.0" x2="393.0" y2="632.0" stroke-width="0.5"/>
    <line stroke="black" x1="67.0" y1="110.0" x2="55.0" y2="166.0" stroke-width="0.5"/>
    <line stroke="black" x1="55.0" y1="166.0" x2="39.0" y2="252.0" stroke-width="0.5"/>
    <line stroke="black" x1="18.0" y1="463.0" x2="107.0" y2="526.0" stroke-width="0.5"/>
    <line stroke="black" x1="107.0" y1="526.0" x2="270.0" y2="590.0" stroke-width="0.5"/>
    <line stroke="black" x1="270.0" y1="590.0" x2="393.0" y2="632.0" stroke-width="0.5"/>
    <line stroke="black" x1="7.0" y1="357.0" x2="39.0" y2="252.0" stroke-width="0.5"/>
   </g>
  </g>
 </svg>
</svg>
