<?xml version="1.0" encoding="UTF-8"?>
<svg height="800.0" width="700.0" xmlns="http://www.w3.org/2000/svg">
 <svg>
  <g>
   <g>
    <g>
     <circle stroke="black" stroke-width="0.5" fill="#aaffff" cx="3.0" cy="771.0" r="1.0"/>
     <text stroke="none" x="3.0" y="771.0" font-size="20.0" font-family="helvetica"/>
    </g>
    <g>
     <circle stroke="black" stroke-width="0.5" fill="#aaffff" cx="22.0" cy="675.0" r="1.0"/>
     <text stroke="none" x="22.0" y="675.0" font-size="10.0" font-family="helvetica">NT1.2</text>
    </g>
    <g>
     <circle stroke="black" stroke-width="0.5" fill="#aaffff" cx="102.0" cy="536.0" r="1.0"/>
     <text stroke="none" x="102.0" y="536.0" font-size="20.0" font-family="helvetica">84</text>
    </g>
    <g>
     <circle stroke="black" stroke-width="0.5" fill="#aaffff" cx="109.0" cy="812.0" r="1.0"/>
     <text stroke="none" x="109.0" y="812.0" font-size="20.0" font-family="helvetica">97</text>
    </g>
    <g>
     <circle stroke="black" stroke-width="0.5" fill="#aaffff" cx="130.0" cy="701.0" r="1.0"/>
     <text stroke="none" x="130.0" y="701.0" font-size="10.0" font-family="helvetica">NT1.5</text>
    </g>
    <g>
     <circle stroke="black" stroke-width="0.5" fill="#aaffff" cx="135.0" cy="369.0" r="1.0"/>
     <text stroke="none" x="135.0" y="369.0" font-size="10.0" font-family="helvetica">NT1.6</text>
    </g>
    <g>
     <circle stroke="black" stroke-width="0.5" fill="#aaffff" cx="139.0" cy="739.0" r="1.0"/>
     <text stroke="none" x="139.0" y="739.0" font-size="10.0" font-family="helvetica">NT1.7</text>
    </g>
    <g>
     <circle stroke="black" stroke-width="0.5" fill="#aaffff" cx="155.0" cy="516.0" r="1.0"/>
     <text stroke="none" x="155.0" y="516.0" font-size="10.0" font-family="helvetica">NT1.8</text>
    </g>
    <g>
     <circle stroke="black" stroke-width="0.5" fill="#aaffff" cx="177.0" cy="221.0" r="1.0"/>
     <text stroke="none" x="177.0" y="221.0" font-size="10.0" font-family="helvetica">NT1.9</text>
    </g>
    <g>
     <circle stroke="black" stroke-width="0.5" fill="#aaffff" cx="198.0" cy="166.0" r="1.0"/>
     <text stroke="none" x="198.0" y="166.0" font-size="10.0" font-family="helvetica">NT1.10</text>
    </g>
    <g>
     <circle stroke="black" stroke-width="0.5" fill="#aaffff" cx="205.0" cy="562.0" r="1.0"/>
     <text stroke="none" x="205.0" y="562.0" font-size="10.0" font-family="helvetica">NT1.11</text>
    </g>
    <g>
     <circle stroke="black" stroke-width="0.5" fill="#aaffff" cx="209.0" cy="471.0" r="1.0"/>
     <text stroke="none" x="209.0" y="471.0" font-size="10.0" font-family="helvetica">NT1.12</text>
    </g>
    <g>
     <circle stroke="black" stroke-width="0.5" fill="#aaffff" cx="217.0" cy="273.0" r="1.0"/>
     <text stroke="none" x="217.0" y="273.0" font-size="10.0" font-family="helvetica">NT1.13</text>
    </g>
    <g>
     <circle stroke="black" stroke-width="0.5" fill="#aaffff" cx="233.0" cy="590.0" r="1.0"/>
     <text stroke="none" x="233.0" y="590.0" font-size="10.0" font-family="helvetica">NT1.14</text>
    </g>
    <g>
     <circle stroke="black" stroke-width="0.5" fill="#aaffff" cx="234.0" cy="307.0" r="1.0"/>
     <text stroke="none" x="234.0" y="307.0" font-size="10.0" font-family="helvetica">NT1.15</text>
    </g>
    <g>
     <circle stroke="black" stroke-width="0.5" fill="#aaffff" cx="260.0" cy="758.0" r="1.0"/>
     <text stroke="none" x="260.0" y="758.0" font-size="10.0" font-family="helvetica">NT1.16</text>
    </g>
    <g>
     <circle stroke="black" stroke-width="0.5" fill="#aaffff" cx="268.0" cy="444.0" r="1.0"/>
     <text stroke="none" x="268.0" y="444.0" font-size="10.0" font-family="helvetica">NT1.17</text>
    </g>
    <g>
     <circle stroke="black" stroke-width="0.5" fill="#aaffff" cx="269.0" cy="832.0" r="1.0"/>
     <text stroke="none" x="269.0" y="832.0" font-size="10.0" font-family="helvetica">NT1.18</text>
    </g>
    <g>
     <circle stroke="black" stroke-width="0.5" fill="#aaffff" cx="274.0" cy="795.0" r="1.0"/>
     <text stroke="none" x="274.0" y="795.0" font-size="20.0" font-family="helvetica">Roseovarius mucosus DFL-247 (AJ534215)</text>
    </g>
    <g>
     <circle stroke="black" stroke-width="0.5" fill="#aaffff" cx="296.0" cy="339.0" r="1.0"/>
     <text stroke="none" x="296.0" y="339.0" font-size="10.0" font-family="helvetica">NT1.20</text>
    </g>
    <g>
     <circle stroke="black" stroke-width="0.5" fill="#aaffff" cx="310.0" cy="666.0" r="1.0"/>
     <text stroke="none" x="310.0" y="666.0" font-size="10.0" font-family="helvetica">NT1.21</text>
    </g>
    <g>
     <circle stroke="black" stroke-width="0.5" fill="#aaffff" cx="318.0" cy="721.0" r="1.0"/>
     <text stroke="none" x="318.0" y="721.0" font-size="20.0" font-family="helvetica">Roseovarius nubinhibens ISM7 (AFO98495)</text>
    </g>
    <g>
     <circle stroke="black" stroke-width="0.5" fill="#aaffff" cx="324.0" cy="131.0" r="1.0"/>
     <text stroke="none" x="324.0" y="131.0" font-size="10.0" font-family="helvetica">NT1.23</text>
    </g>
    <g>
     <circle stroke="black" stroke-width="0.5" fill="#aaffff" cx="331.0" cy="367.0" r="1.0"/>
     <text stroke="none" x="331.0" y="367.0" font-size="10.0" font-family="helvetica">NT1.24</text>
    </g>
    <g>
     <circle stroke="black" stroke-width="0.5" fill="#aaffff" cx="337.0" cy="95.0" r="1.0"/>
     <text stroke="none" x="337.0" y="95.0" font-size="10.0" font-family="helvetica">NT1.25</text>
    </g>
    <g>
     <circle stroke="black" stroke-width="0.5" fill="#aaffff" cx="350.0" cy="63.0" r="1.0"/>
     <text stroke="none" x="350.0" y="63.0" font-size="10.0" font-family="helvetica">NT1.26</text>
    </g>
    <g>
     <circle stroke="black" stroke-width="0.5" fill="#aaffff" cx="374.0" cy="646.0" r="1.0"/>
     <text stroke="none" x="374.0" y="646.0" font-size="10.0" font-family="helvetica">NT1.27</text>
    </g>
    <g>
     <circle stroke="black" stroke-width="0.5" fill="#aaffff" cx="378.0" cy="684.0" r="1.0"/>
     <text stroke="none" x="378.0" y="684.0" font-size="20.0" font-family="helvetica">Roseovarius pacificus 81-27 (DQ120726)</text>
    </g>
    <g>
     <circle stroke="black" stroke-width="0.5" fill="#aaffff" cx="388.0" cy="461.0" r="1.0"/>
     <text stroke="none" x="388.0" y="461.0" font-size="20.0" font-family="helvetica">Phaeobacter gallaeciensis BS1077 (Y13244)</text>
    </g>
    <g>
     <circle stroke="black" stroke-width="0.5" fill="#aaffff" cx="408.0" cy="424.0" r="1.0"/>
     <text stroke="none" x="408.0" y="424.0" font-size="20.0" font-family="helvetica">Leisingera methylohalidivorans MB27 (AYOO5463)</text>
    </g>
    <g>
     <circle stroke="black" stroke-width="0.5" fill="#aaffff" cx="412.0" cy="35.0" r="1.0"/>
     <text stroke="none" x="412.0" y="35.0" font-size="10.0" font-family="helvetica">NT1.31</text>
    </g>
    <g>
     <circle stroke="black" stroke-width="0.5" fill="#aaffff" cx="417.0" cy="238.0" r="1.0"/>
     <text stroke="none" x="417.0" y="238.0" font-size="10.0" font-family="helvetica">NT1.32</text>
    </g>
    <g>
     <circle stroke="black" stroke-width="0.5" fill="#aaffff" cx="425.0" cy="572.0" r="1.0"/>
     <text stroke="none" x="425.0" y="572.0" font-size="20.0" font-family="helvetica">Pseudoruegeria aquimaris SW-2557 (DQ675021)</text>
    </g>
    <g>
     <circle stroke="black" stroke-width="0.5" fill="#aaffff" cx="433.0" cy="535.0" r="1.0"/>
     <text stroke="none" x="433.0" y="535.0" font-size="20.0" font-family="helvetica">Shimia marina CL-TAO37 (AY962292)</text>
    </g>
    <g>
     <circle stroke="black" stroke-width="0.5" fill="#aaffff" cx="445.0" cy="201.0" r="1.0"/>
     <text stroke="none" x="445.0" y="201.0" font-size="10.0" font-family="helvetica">NT1.35</text>
    </g>
    <g>
     <circle stroke="black" stroke-width="0.5" fill="#aaffff" cx="471.0" cy="498.0" r="1.0"/>
     <text stroke="none" x="471.0" y="498.0" font-size="20.0" font-family="helvetica">Thalassobius mediterraneus CECT 53837 (AJ878874)</text>
    </g>
    <g>
     <circle stroke="black" stroke-width="0.5" fill="#aaffff" cx="478.0" cy="276.0" r="1.0"/>
     <text stroke="none" x="478.0" y="276.0" font-size="20.0" font-family="helvetica">Thalassobacter stenotrophicus CECT 52947 (AJ631302)</text>
    </g>
    <g>
     <circle stroke="black" stroke-width="0.5" fill="#aaffff" cx="485.0" cy="609.0" r="1.0"/>
     <text stroke="none" x="485.0" y="609.0" font-size="20.0" font-family="helvetica">Silicibacter lacuscaerulensis ITI-1 1577 (U77644)</text>
    </g>
    <g>
     <circle stroke="black" stroke-width="0.5" fill="#aaffff" cx="487.0" cy="16.0" r="1.0"/>
     <text stroke="none" x="487.0" y="16.0" font-size="20.0" font-family="helvetica">Sulfitobacter marinus SW-2657 (DQ683726)</text>
    </g>
    <g>
     <circle stroke="black" stroke-width="0.5" fill="#aaffff" cx="490.0" cy="53.0" r="1.0"/>
     <text stroke="none" x="490.0" y="53.0" font-size="20.0" font-family="helvetica">Sulfitobacter pontiacus ChLG1O7 (Y13155)</text>
    </g>
    <g>
     <circle stroke="black" stroke-width="0.5" fill="#aaffff" cx="504.0" cy="387.0" r="1.0"/>
     <text stroke="none" x="504.0" y="387.0" font-size="20.0" font-family="helvetica">Thalassobacter arenae GA2-M157 (EU342372)</text>
    </g>
    <g>
     <circle stroke="black" stroke-width="0.5" fill="#aaffff" cx="507.0" cy="127.0" r="1.0"/>
     <text stroke="none" x="507.0" y="127.0" font-size="20.0" font-family="helvetica">Oceanibulbus indolifex HEL-457 (AJ550939)</text>
    </g>
    <g>
     <circle stroke="black" stroke-width="0.5" fill="#aaffff" cx="508.0" cy="164.0" r="1.0"/>
     <text stroke="none" x="508.0" y="164.0" font-size="20.0" font-family="helvetica">Roseobacter litoralis ATCC 495667 (X78312)</text>
    </g>
    <g>
     <circle stroke="black" stroke-width="0.5" fill="#aaffff" cx="538.0" cy="90.0" r="1.0"/>
     <text stroke="none" x="538.0" y="90.0" font-size="20.0" font-family="helvetica">Sulfitobacter guttiformis EL-387 (Y16427)</text>
    </g>
    <g>
     <circle stroke="black" stroke-width="0.5" fill="#aaffff" cx="566.0" cy="350.0" r="1.0"/>
     <text stroke="none" x="566.0" y="350.0" font-size="10.0" font-family="helvetica">NT1.45</text>
    </g>
    <g>
     <circle stroke="black" stroke-width="0.5" fill="#aaffff" cx="622.0" cy="312.0" r="1.0"/>
     <text stroke="none" x="622.0" y="312.0" font-size="20.0" font-family="helvetica">Octadecabacter arcticus 2387 (U73725)</text>
    </g>
    <line stroke="black" x1="490.0" y1="53.0" x2="412.0" y2="35.0" stroke-width="0.5"/>
    <line stroke="black" x1="508.0" y1="164.0" x2="324.0" y2="131.0" stroke-width="0.5"/>
    <line stroke="black" x1="478.0" y1="276.0" x2="234.0" y2="307.0" stroke-width="0.5"/>
    <line stroke="black" x1="408.0" y1="424.0" x2="268.0" y2="444.0" stroke-width="0.5"/>
    <line stroke="black" x1="318.0" y1="721.0" x2="139.0" y2="739.0" stroke-width="0.5"/>
    <line stroke="black" x1="412.0" y1="35.0" x2="350.0" y2="63.0" stroke-width="0.5"/>
    <line stroke="black" x1="350.0" y1="63.0" x2="337.0" y2="95.0" stroke-width="0.5"/>
    <line stroke="black" x1="337.0" y1="95.0" x2="324.0" y2="131.0" stroke-width="0.5"/>
    <line stroke="black" x1="324.0" y1="131.0" x2="198.0" y2="166.0" stroke-width="0.5"/>
    <line stroke="black" x1="177.0" y1="221.0" x2="135.0" y2="369.0" stroke-width="0.5"/>
    <line stroke="black" x1="217.0" y1="273.0" x2="234.0" y2="307.0" stroke-width="0.5"/>
    <line stroke="black" x1="234.0" y1="307.0" x2="296.0" y2="339.0" stroke-width="0.5"/>
    <line stroke="black" x1="135.0" y1="369.0" x2="102.0" y2="536.0" stroke-width="0.5"/>
    <line stroke="black" x1="135.0" y1="369.0" x2="155.0" y2="516.0" stroke-width="0.5"/>
    <line stroke="black" x1="155.0" y1="516.0" x2="205.0" y2="562.0" stroke-width="0.5"/>
    <line stroke="black" x1="155.0" y1="516.0" x2="209.0" y2="471.0" stroke-width="0.5"/>
    <line stroke="black" x1="102.0" y1="536.0" x2="22.0" y2="675.0" stroke-width="0.5"/>
    <line stroke="black" x1="102.0" y1="536.0" x2="130.0" y2="701.0" stroke-width="0.5"/>
    <line stroke="black" x1="205.0" y1="562.0" x2="233.0" y2="590.0" stroke-width="0.5"/>
    <line stroke="black" x1="209.0" y1="471.0" x2="268.0" y2="444.0" stroke-width="0.5"/>
    <line stroke="black" x1="3.0" y1="771.0" x2="22.0" y2="675.0" stroke-width="0.5"/>
    <line stroke="black" x1="274.0" y1="795.0" x2="109.0" y2="812.0" stroke-width="0.5"/>
    <line stroke="black" x1="433.0" y1="535.0" x2="205.0" y2="562.0" stroke-width="0.5"/>
    <line stroke="black" x1="471.0" y1="498.0" x2="209.0" y2="471.0" stroke-width="0.5"/>
    <line stroke="black" x1="425.0" y1="572.0" x2="233.0" y2="590.0" stroke-width="0.5"/>
    <line stroke="black" x1="388.0" y1="461.0" x2="268.0" y2="444.0" stroke-width="0.5"/>
    <line stroke="black" x1="485.0" y1="609.0" x2="233.0" y2="590.0" stroke-width="0.5"/>
    <line stroke="black" x1="378.0" y1="684.0" x2="310.0" y2="666.0" stroke-width="0.5"/>
    <line stroke="black" x1="504.0" y1="387.0" x2="331.0" y2="367.0" stroke-width="0.5"/>
    <line stroke="black" x1="507.0" y1="127.0" x2="337.0" y2="95.0" stroke-width="0.5"/>
    <line stroke="black" x1="622.0" y1="312.0" x2="296.0" y2="339.0" stroke-width="0.5"/>
    <line stroke="black" x1="538.0" y1="90.0" x2="350.0" y2="63.0" stroke-width="0.5"/>
    <line stroke="black" x1="487.0" y1="16.0" x2="412.0" y2="35.0" stroke-width="0.5"/>
   </g>
  </g>
 </svg>
</svg>
