<?xml version="1.0" encoding="UTF-8"?>
<svg height="800.0" width="700.0" xmlns="http://www.w3.org/2000/svg">
 <svg>
  <g>
   <g>
    <g>
     <circle stroke="black" stroke-width="0.5" fill="#aaffff" cx="7.0" cy="645.0" r="1.0"/>
     <text stroke="none" x="7.0" y="645.0" font-size="20.0" font-family="helvetica"/>
    </g>
    <g>
     <circle stroke="black" stroke-width="0.5" fill="#aaffff" cx="197.0" cy="393.0" r="1.0"/>
     <text stroke="none" x="197.0" y="393.0" font-size="10.0" font-family="helvetica">NT1.2</text>
    </g>
    <g>
     <circle stroke="black" stroke-width="0.5" fill="#aaffff" cx="251.0" cy="500.0" r="1.0"/>
     <text stroke="none" x="251.0" y="500.0" font-size="10.0" font-family="helvetica">NT1.3</text>
    </g>
    <g>
     <circle stroke="black" stroke-width="0.5" fill="#aaffff" cx="270.0" cy="536.0" r="1.0"/>
     <text stroke="none" x="270.0" y="536.0" font-size="10.0" font-family="helvetica">NT1.4</text>
    </g>
    <g>
     <circle stroke="black" stroke-width="0.5" fill="#aaffff" cx="276.0" cy="437.0" r="1.0"/>
     <text stroke="none" x="276.0" y="437.0" font-size="10.0" font-family="helvetica">NT1.5</text>
    </g>
    <g>
     <circle stroke="black" stroke-width="0.5" fill="#aaffff" cx="276.0" cy="397.0" r="1.0"/>
     <text stroke="none" x="276.0" y="397.0" font-size="10.0" font-family="helvetica">NT1.6</text>
    </g>
    <g>
     <circle stroke="black" stroke-width="0.5" fill="#aaffff" cx="299.0" cy="223.0" r="1.0"/>
     <text stroke="none" x="299.0" y="223.0" font-size="10.0" font-family="helvetica">NT1.7</text>
    </g>
    <g>
     <circle stroke="black" stroke-width="0.5" fill="#aaffff" cx="306.0" cy="125.0" r="1.0"/>
     <text stroke="none" x="306.0" y="125.0" font-size="10.0" font-family="helvetica">NT1.8</text>
    </g>
    <g>
     <circle stroke="black" stroke-width="0.5" fill="#aaffff" cx="308.0" cy="570.0" r="1.0"/>
     <text stroke="none" x="308.0" y="570.0" font-size="10.0" font-family="helvetica">NT1.9</text>
    </g>
    <g>
     <circle stroke="black" stroke-width="0.5" fill="#aaffff" cx="332.0" cy="503.0" r="1.0"/>
     <text stroke="none" x="332.0" y="503.0" font-size="20.0" font-family="helvetica">Cellulomonas composti TR7-067 (AB166887)</text>
    </g>
    <g>
     <circle stroke="black" stroke-width="0.5" fill="#aaffff" cx="334.0" cy="90.0" r="1.0"/>
     <text stroke="none" x="334.0" y="90.0" font-size="20.0" font-family="helvetica">Cellulomonas chitmilytica X.bu-bT (AB268586)</text>
    </g>
    <g>
     <circle stroke="black" stroke-width="0.5" fill="#aaffff" cx="334.0" cy="174.0" r="1.0"/>
     <text stroke="none" x="334.0" y="174.0" font-size="10.0" font-family="helvetica">NT1.12</text>
    </g>
    <g>
     <circle stroke="black" stroke-width="0.5" fill="#aaffff" cx="335.0" cy="88.0" r="1.0"/>
     <text stroke="none" x="335.0" y="88.0" font-size="10.0" font-family="helvetica">NT1.13</text>
    </g>
    <g>
     <circle stroke="black" stroke-width="0.5" fill="#aaffff" cx="346.0" cy="538.0" r="1.0"/>
     <text stroke="none" x="346.0" y="538.0" font-size="20.0" font-family="helvetica">Cellulomonas iranensis OT (AFO64702)</text>
    </g>
    <g>
     <circle stroke="black" stroke-width="0.5" fill="#aaffff" cx="347.0" cy="37.0" r="1.0"/>
     <text stroke="none" x="347.0" y="37.0" font-size="10.0" font-family="helvetica">NT1.15</text>
    </g>
    <g>
     <circle stroke="black" stroke-width="0.5" fill="#aaffff" cx="356.0" cy="434.0" r="1.0"/>
     <text stroke="none" x="356.0" y="434.0" font-size="20.0" font-family="helvetica">Cellulomonas flavigena NCIMB 80737 (X79463)</text>
    </g>
    <g>
     <circle stroke="black" stroke-width="0.5" fill="#aaffff" cx="359.0" cy="194.0" r="1.0"/>
     <text stroke="none" x="359.0" y="194.0" font-size="10.0" font-family="helvetica">NT1.17</text>
    </g>
    <g>
     <circle stroke="black" stroke-width="0.5" fill="#aaffff" cx="360.0" cy="192.0" r="1.0"/>
     <text stroke="none" x="360.0" y="192.0" font-size="10.0" font-family="helvetica">NT1.18</text>
    </g>
    <g>
     <circle stroke="black" stroke-width="0.5" fill="#aaffff" cx="365.0" cy="226.0" r="1.0"/>
     <text stroke="none" x="365.0" y="226.0" font-size="20.0" font-family="helvetica">Cellulomonas terrae DB5T (AY884570)</text>
    </g>
    <g>
     <circle stroke="black" stroke-width="0.5" fill="#aaffff" cx="365.0" cy="278.0" r="1.0"/>
     <text stroke="none" x="365.0" y="278.0" font-size="20.0" font-family="helvetica">100</text>
    </g>
    <g>
     <circle stroke="black" stroke-width="0.5" fill="#aaffff" cx="374.0" cy="88.0" r="1.0"/>
     <text stroke="none" x="374.0" y="88.0" font-size="20.0" font-family="helvetica">Cellulomonas chitmilytica X.bu-bT (AB268586)</text>
    </g>
    <g>
     <circle stroke="black" stroke-width="0.5" fill="#aaffff" cx="380.0" cy="368.0" r="1.0"/>
     <text stroke="none" x="380.0" y="368.0" font-size="10.0" font-family="helvetica">NT1.22</text>
    </g>
    <g>
     <circle stroke="black" stroke-width="0.5" fill="#aaffff" cx="380.0" cy="326.0" r="1.0"/>
     <text stroke="none" x="380.0" y="326.0" font-size="10.0" font-family="helvetica">NT1.23</text>
    </g>
    <g>
     <circle stroke="black" stroke-width="0.5" fill="#aaffff" cx="381.0" cy="330.0" r="1.0"/>
     <text stroke="none" x="381.0" y="330.0" font-size="10.0" font-family="helvetica">NT1.24</text>
    </g>
    <g>
     <circle stroke="black" stroke-width="0.5" fill="#aaffff" cx="391.0" cy="608.0" r="1.0"/>
     <text stroke="none" x="391.0" y="608.0" font-size="20.0" font-family="helvetica">Cellulomonas uda DSM 20107T (X83801)</text>
    </g>
    <g>
     <circle stroke="black" stroke-width="0.5" fill="#aaffff" cx="396.0" cy="469.0" r="1.0"/>
     <text stroke="none" x="396.0" y="469.0" font-size="20.0" font-family="helvetica">Cellulomonas persica IT (AFO64701)</text>
    </g>
    <g>
     <circle stroke="black" stroke-width="0.5" fill="#aaffff" cx="396.0" cy="573.0" r="1.0"/>
     <text stroke="none" x="396.0" y="573.0" font-size="20.0" font-family="helvetica">Cellulomonas gelida NCIMB 8O76T (X79461)</text>
    </g>
    <g>
     <circle stroke="black" stroke-width="0.5" fill="#aaffff" cx="405.0" cy="298.0" r="1.0"/>
     <text stroke="none" x="405.0" y="298.0" font-size="10.0" font-family="helvetica">NT1.28</text>
    </g>
    <g>
     <circle stroke="black" stroke-width="0.5" fill="#aaffff" cx="405.0" cy="258.0" r="1.0"/>
     <text stroke="none" x="405.0" y="258.0" font-size="10.0" font-family="helvetica">NT1.29</text>
    </g>
    <g>
     <circle stroke="black" stroke-width="0.5" fill="#aaffff" cx="424.0" cy="15.0" r="1.0"/>
     <text stroke="none" x="424.0" y="15.0" font-size="10.0" font-family="helvetica">NT1.30</text>
    </g>
    <g>
     <circle stroke="black" stroke-width="0.5" fill="#aaffff" cx="424.0" cy="56.0" r="1.0"/>
     <text stroke="none" x="424.0" y="56.0" font-size="10.0" font-family="helvetica">NT1.31</text>
    </g>
    <g>
     <circle stroke="black" stroke-width="0.5" fill="#aaffff" cx="435.0" cy="261.0" r="1.0"/>
     <text stroke="none" x="435.0" y="261.0" font-size="10.0" font-family="helvetica">NT1.32</text>
    </g>
    <g>
     <circle stroke="black" stroke-width="0.5" fill="#aaffff" cx="438.0" cy="642.0" r="1.0"/>
     <text stroke="none" x="438.0" y="642.0" font-size="10.0" font-family="helvetica">NT1.33</text>
    </g>
    <g>
     <circle stroke="black" stroke-width="0.5" fill="#aaffff" cx="447.0" cy="53.0" r="1.0"/>
     <text stroke="none" x="447.0" y="53.0" font-size="10.0" font-family="helvetica">NT1.34</text>
    </g>
    <g>
     <circle stroke="black" stroke-width="0.5" fill="#aaffff" cx="448.0" cy="18.0" r="1.0"/>
     <text stroke="none" x="448.0" y="18.0" font-size="10.0" font-family="helvetica">NT1.35</text>
    </g>
    <g>
     <circle stroke="black" stroke-width="0.5" fill="#aaffff" cx="448.0" cy="365.0" r="1.0"/>
     <text stroke="none" x="448.0" y="365.0" font-size="20.0" font-family="helvetica">Cellulomonas denverensis W6929T (AY501362)</text>
    </g>
    <g>
     <circle stroke="black" stroke-width="0.5" fill="#aaffff" cx="460.0" cy="296.0" r="1.0"/>
     <text stroke="none" x="460.0" y="296.0" font-size="10.0" font-family="helvetica">NT1.37</text>
    </g>
    <g>
     <circle stroke="black" stroke-width="0.5" fill="#aaffff" cx="473.0" cy="330.0" r="1.0"/>
     <text stroke="none" x="473.0" y="330.0" font-size="20.0" font-family="helvetica">Cellulomonas hominis DMMZ CE40T (X82598)</text>
    </g>
    <g>
     <circle stroke="black" stroke-width="0.5" fill="#aaffff" cx="475.0" cy="192.0" r="1.0"/>
     <text stroke="none" x="475.0" y="192.0" font-size="10.0" font-family="helvetica">NT1.39</text>
    </g>
    <g>
     <circle stroke="black" stroke-width="0.5" fill="#aaffff" cx="490.0" cy="122.0" r="1.0"/>
     <text stroke="none" x="490.0" y="122.0" font-size="20.0" font-family="helvetica">Cellulomonas aerilata 54208-23T (EU560979)</text>
    </g>
    <g>
     <circle stroke="black" stroke-width="0.5" fill="#aaffff" cx="493.0" cy="399.0" r="1.0"/>
     <text stroke="none" x="493.0" y="399.0" font-size="20.0" font-family="helvetica">Cellulomonas phragmiteti KB23T (AM902253)</text>
    </g>
    <g>
     <circle stroke="black" stroke-width="0.5" fill="#aaffff" cx="707.0" cy="156.0" r="1.0"/>
     <text stroke="none" x="707.0" y="156.0" font-size="10.0" font-family="helvetica">NT1.42</text>
    </g>
    <line stroke="black" x1="334.0" y1="90.0" x2="335.0" y2="88.0" stroke-width="0.5"/>
    <line stroke="black" x1="374.0" y1="88.0" x2="335.0" y2="88.0" stroke-width="0.5"/>
    <line stroke="black" x1="490.0" y1="122.0" x2="347.0" y2="37.0" stroke-width="0.5"/>
    <line stroke="black" x1="365.0" y1="226.0" x2="197.0" y2="393.0" stroke-width="0.5"/>
    <line stroke="black" x1="448.0" y1="365.0" x2="197.0" y2="393.0" stroke-width="0.5"/>
    <line stroke="black" x1="473.0" y1="330.0" x2="381.0" y2="330.0" stroke-width="0.5"/>
    <line stroke="black" x1="332.0" y1="503.0" x2="197.0" y2="393.0" stroke-width="0.5"/>
    <line stroke="black" x1="356.0" y1="434.0" x2="197.0" y2="393.0" stroke-width="0.5"/>
    <line stroke="black" x1="346.0" y1="538.0" x2="197.0" y2="393.0" stroke-width="0.5"/>
    <line stroke="black" x1="396.0" y1="573.0" x2="197.0" y2="393.0" stroke-width="0.5"/>
    <line stroke="black" x1="7.0" y1="645.0" x2="197.0" y2="393.0" stroke-width="0.5"/>
    <line stroke="black" x1="493.0" y1="399.0" x2="197.0" y2="393.0" stroke-width="0.5"/>
    <line stroke="black" x1="347.0" y1="37.0" x2="335.0" y2="88.0" stroke-width="0.5"/>
    <line stroke="black" x1="347.0" y1="37.0" x2="197.0" y2="393.0" stroke-width="0.5"/>
    <line stroke="black" x1="396.0" y1="469.0" x2="197.0" y2="393.0" stroke-width="0.5"/>
    <line stroke="black" x1="391.0" y1="608.0" x2="197.0" y2="393.0" stroke-width="0.5"/>
   </g>
  </g>
 </svg>
</svg>
