<?xml version="1.0" encoding="UTF-8"?>
<svg height="800.0" width="700.0" xmlns="http://www.w3.org/2000/svg">
 <svg>
  <g>
   <g>
    <g>
     <circle stroke="black" stroke-width="0.5" fill="#aaffff" cx="6.0" cy="884.0" r="1.0"/>
     <text stroke="none" x="6.0" y="884.0" font-size="10.0" font-family="helvetica">NT1.1</text>
    </g>
    <g>
     <circle stroke="black" stroke-width="0.5" fill="#aaffff" cx="94.0" cy="778.0" r="1.0"/>
     <text stroke="none" x="94.0" y="778.0" font-size="20.0" font-family="helvetica">97</text>
    </g>
    <g>
     <circle stroke="black" stroke-width="0.5" fill="#aaffff" cx="140.0" cy="625.0" r="1.0"/>
     <text stroke="none" x="140.0" y="625.0" font-size="20.0" font-family="helvetica">86</text>
    </g>
    <g>
     <circle stroke="black" stroke-width="0.5" fill="#aaffff" cx="155.0" cy="379.0" r="1.0"/>
     <text stroke="none" x="155.0" y="379.0" font-size="20.0" font-family="helvetica">57</text>
    </g>
    <g>
     <circle stroke="black" stroke-width="0.5" fill="#aaffff" cx="177.0" cy="568.0" r="1.0"/>
     <text stroke="none" x="177.0" y="568.0" font-size="20.0" font-family="helvetica">55</text>
    </g>
    <g>
     <circle stroke="black" stroke-width="0.5" fill="#aaffff" cx="188.0" cy="188.0" r="1.0"/>
     <text stroke="none" x="188.0" y="188.0" font-size="20.0" font-family="helvetica">741</text>
    </g>
    <g>
     <circle stroke="black" stroke-width="0.5" fill="#aaffff" cx="194.0" cy="869.0" r="1.0"/>
     <text stroke="none" x="194.0" y="869.0" font-size="20.0" font-family="helvetica">811</text>
    </g>
    <g>
     <circle stroke="black" stroke-width="0.5" fill="#aaffff" cx="201.0" cy="984.0" r="1.0"/>
     <text stroke="none" x="201.0" y="984.0" font-size="10.0" font-family="helvetica">NT1.8</text>
    </g>
    <g>
     <circle stroke="black" stroke-width="0.5" fill="#aaffff" cx="206.0" cy="253.0" r="1.0"/>
     <text stroke="none" x="206.0" y="253.0" font-size="10.0" font-family="helvetica">NT1.9</text>
    </g>
    <g>
     <circle stroke="black" stroke-width="0.5" fill="#aaffff" cx="215.0" cy="121.0" r="1.0"/>
     <text stroke="none" x="215.0" y="121.0" font-size="10.0" font-family="helvetica">NT1.10</text>
    </g>
    <g>
     <circle stroke="black" stroke-width="0.5" fill="#aaffff" cx="222.0" cy="299.0" r="1.0"/>
     <text stroke="none" x="222.0" y="299.0" font-size="20.0" font-family="helvetica">547</text>
    </g>
    <g>
     <circle stroke="black" stroke-width="0.5" fill="#aaffff" cx="231.0" cy="71.0" r="1.0"/>
     <text stroke="none" x="231.0" y="71.0" font-size="10.0" font-family="helvetica">NT1.12</text>
    </g>
    <g>
     <circle stroke="black" stroke-width="0.5" fill="#aaffff" cx="241.0" cy="349.0" r="1.0"/>
     <text stroke="none" x="241.0" y="349.0" font-size="20.0" font-family="helvetica">59'</text>
    </g>
    <g>
     <circle stroke="black" stroke-width="0.5" fill="#aaffff" cx="247.0" cy="31.0" r="1.0"/>
     <text stroke="none" x="247.0" y="31.0" font-size="20.0" font-family="helvetica">651</text>
    </g>
    <g>
     <circle stroke="black" stroke-width="0.5" fill="#aaffff" cx="251.0" cy="637.0" r="1.0"/>
     <text stroke="none" x="251.0" y="637.0" font-size="20.0" font-family="helvetica">99</text>
    </g>
    <g>
     <circle stroke="black" stroke-width="0.5" fill="#aaffff" cx="254.0" cy="389.0" r="1.0"/>
     <text stroke="none" x="254.0" y="389.0" font-size="20.0" font-family="helvetica">544</text>
    </g>
    <g>
     <circle stroke="black" stroke-width="0.5" fill="#aaffff" cx="263.0" cy="686.0" r="1.0"/>
     <text stroke="none" x="263.0" y="686.0" font-size="10.0" font-family="helvetica">NT1.17</text>
    </g>
    <g>
     <circle stroke="black" stroke-width="0.5" fill="#aaffff" cx="266.0" cy="109.0" r="1.0"/>
     <text stroke="none" x="266.0" y="109.0" font-size="20.0" font-family="helvetica">54</text>
    </g>
    <g>
     <circle stroke="black" stroke-width="0.5" fill="#aaffff" cx="290.0" cy="724.0" r="1.0"/>
     <text stroke="none" x="290.0" y="724.0" font-size="20.0" font-family="helvetica">62m</text>
    </g>
    <g>
     <circle stroke="black" stroke-width="0.5" fill="#aaffff" cx="294.0" cy="758.0" r="1.0"/>
     <text stroke="none" x="294.0" y="758.0" font-size="20.0" font-family="helvetica">524</text>
    </g>
    <g>
     <circle stroke="black" stroke-width="0.5" fill="#aaffff" cx="316.0" cy="970.0" r="1.0"/>
     <text stroke="none" x="316.0" y="970.0" font-size="10.0" font-family="helvetica">NT1.21</text>
    </g>
    <g>
     <circle stroke="black" stroke-width="0.5" fill="#aaffff" cx="332.0" cy="501.0" r="1.0"/>
     <text stroke="none" x="332.0" y="501.0" font-size="10.0" font-family="helvetica">NT1.22</text>
    </g>
    <g>
     <circle stroke="black" stroke-width="0.5" fill="#aaffff" cx="333.0" cy="930.0" r="1.0"/>
     <text stroke="none" x="333.0" y="930.0" font-size="20.0" font-family="helvetica">Bacillus oleronius DSM 93567 (X82492)</text>
    </g>
    <g>
     <circle stroke="black" stroke-width="0.5" fill="#aaffff" cx="355.0" cy="471.0" r="1.0"/>
     <text stroke="none" x="355.0" y="471.0" font-size="20.0" font-family="helvetica">94'</text>
    </g>
    <g>
     <circle stroke="black" stroke-width="0.5" fill="#aaffff" cx="355.0" cy="789.0" r="1.0"/>
     <text stroke="none" x="355.0" y="789.0" font-size="20.0" font-family="helvetica">995</text>
    </g>
    <g>
     <circle stroke="black" stroke-width="0.5" fill="#aaffff" cx="357.0" cy="210.0" r="1.0"/>
     <text stroke="none" x="357.0" y="210.0" font-size="20.0" font-family="helvetica">Paraliobacillus ryukyuensis O15-77 (AB087828)</text>
    </g>
    <g>
     <circle stroke="black" stroke-width="0.5" fill="#aaffff" cx="362.0" cy="591.0" r="1.0"/>
     <text stroke="none" x="362.0" y="591.0" font-size="10.0" font-family="helvetica">NT1.27</text>
    </g>
    <g>
     <circle stroke="black" stroke-width="0.5" fill="#aaffff" cx="369.0" cy="650.0" r="1.0"/>
     <text stroke="none" x="369.0" y="650.0" font-size="20.0" font-family="helvetica">Virgibacillus halodenitrificans ATCC 490677 (ABO21186)</text>
    </g>
    <g>
     <circle stroke="black" stroke-width="0.5" fill="#aaffff" cx="378.0" cy="490.0" r="1.0"/>
     <text stroke="none" x="378.0" y="490.0" font-size="10.0" font-family="helvetica">NT1.29</text>
    </g>
    <g>
     <circle stroke="black" stroke-width="0.5" fill="#aaffff" cx="379.0" cy="450.0" r="1.0"/>
     <text stroke="none" x="379.0" y="450.0" font-size="20.0" font-family="helvetica">Halobacillus trueperi DSM 104047 (AJ310149)</text>
    </g>
    <g>
     <circle stroke="black" stroke-width="0.5" fill="#aaffff" cx="385.0" cy="530.0" r="1.0"/>
     <text stroke="none" x="385.0" y="530.0" font-size="10.0" font-family="helvetica">NT1.31</text>
    </g>
    <g>
     <circle stroke="black" stroke-width="0.5" fill="#aaffff" cx="387.0" cy="1010.0" r="1.0"/>
     <text stroke="none" x="387.0" y="1010.0" font-size="10.0" font-family="helvetica">NT1.32</text>
    </g>
    <g>
     <circle stroke="black" stroke-width="0.5" fill="#aaffff" cx="393.0" cy="130.0" r="1.0"/>
     <text stroke="none" x="393.0" y="130.0" font-size="20.0" font-family="helvetica">Gracilibacillus orientalis XH-637 (AMO40716)</text>
    </g>
    <g>
     <circle stroke="black" stroke-width="0.5" fill="#aaffff" cx="393.0" cy="570.0" r="1.0"/>
     <text stroke="none" x="393.0" y="570.0" font-size="20.0" font-family="helvetica">Virgibacillus carmonensis LMG 209647 (AJ316302)</text>
    </g>
    <g>
     <circle stroke="black" stroke-width="0.5" fill="#aaffff" cx="399.0" cy="90.0" r="1.0"/>
     <text stroke="none" x="399.0" y="90.0" font-size="20.0" font-family="helvetica">Gracilibacillus boraciitolerans T-16X7 (AB197126)</text>
    </g>
    <g>
     <circle stroke="black" stroke-width="0.5" fill="#aaffff" cx="405.0" cy="690.0" r="1.0"/>
     <text stroke="none" x="405.0" y="690.0" font-size="20.0" font-family="helvetica">Virgibacillus marismortui 1237 (AJO09793)</text>
    </g>
    <g>
     <circle stroke="black" stroke-width="0.5" fill="#aaffff" cx="405.0" cy="730.0" r="1.0"/>
     <text stroke="none" x="405.0" y="730.0" font-size="20.0" font-family="helvetica">Virgibacillus proomii LMG 123707 (AJ012667)</text>
    </g>
    <g>
     <circle stroke="black" stroke-width="0.5" fill="#aaffff" cx="405.0" cy="850.0" r="1.0"/>
     <text stroke="none" x="405.0" y="850.0" font-size="20.0" font-family="helvetica">Filobacillus milosensis DSM 132597 (AJ238042)</text>
    </g>
    <g>
     <circle stroke="black" stroke-width="0.5" fill="#aaffff" cx="405.0" cy="311.0" r="1.0"/>
     <text stroke="none" x="405.0" y="311.0" font-size="10.0" font-family="helvetica">NT1.39</text>
    </g>
    <g>
     <circle stroke="black" stroke-width="0.5" fill="#aaffff" cx="411.0" cy="770.0" r="1.0"/>
     <text stroke="none" x="411.0" y="770.0" font-size="20.0" font-family="helvetica">Virgibacillus dokdonensis DSW-107 (AY822043)</text>
    </g>
    <g>
     <circle stroke="black" stroke-width="0.5" fill="#aaffff" cx="420.0" cy="50.0" r="1.0"/>
     <text stroke="none" x="420.0" y="50.0" font-size="20.0" font-family="helvetica">Gracilibacillus halotolerans NN7 (AFO36922)</text>
    </g>
    <g>
     <circle stroke="black" stroke-width="0.5" fill="#aaffff" cx="424.0" cy="610.0" r="1.0"/>
     <text stroke="none" x="424.0" y="610.0" font-size="20.0" font-family="helvetica">Virgibacillus necropolis LMG 194887 (AJ315056)</text>
    </g>
    <g>
     <circle stroke="black" stroke-width="0.5" fill="#aaffff" cx="433.0" cy="9.0" r="1.0"/>
     <text stroke="none" x="433.0" y="9.0" font-size="20.0" font-family="helvetica">Gracilibacillus dipsosauri DD17 (X82436)</text>
    </g>
    <g>
     <circle stroke="black" stroke-width="0.5" fill="#aaffff" cx="440.0" cy="810.0" r="1.0"/>
     <text stroke="none" x="440.0" y="810.0" font-size="20.0" font-family="helvetica">Virgibacillus pantothenticus NCDO 17657 (X60627)</text>
    </g>
    <g>
     <circle stroke="black" stroke-width="0.5" fill="#aaffff" cx="441.0" cy="249.0" r="1.0"/>
     <text stroke="none" x="441.0" y="249.0" font-size="20.0" font-family="helvetica">Amphibacillus tropicus Z-77927 (AF418602)</text>
    </g>
    <g>
     <circle stroke="black" stroke-width="0.5" fill="#aaffff" cx="442.0" cy="370.0" r="1.0"/>
     <text stroke="none" x="442.0" y="370.0" font-size="20.0" font-family="helvetica">Amphibacillus fermentum Z-79847 (AF418603)</text>
    </g>
    <g>
     <circle stroke="black" stroke-width="0.5" fill="#aaffff" cx="444.0" cy="290.0" r="1.0"/>
     <text stroke="none" x="444.0" y="290.0" font-size="20.0" font-family="helvetica">Halolactibacillus miurensis M23-17 (AB196784)</text>
    </g>
    <g>
     <circle stroke="black" stroke-width="0.5" fill="#aaffff" cx="447.0" cy="341.0" r="1.0"/>
     <text stroke="none" x="447.0" y="341.0" font-size="10.0" font-family="helvetica">NT1.48</text>
    </g>
    <g>
     <circle stroke="black" stroke-width="0.5" fill="#aaffff" cx="451.0" cy="321.0" r="1.0"/>
     <text stroke="none" x="451.0" y="321.0" font-size="10.0" font-family="helvetica">NT1.49</text>
    </g>
    <g>
     <circle stroke="black" stroke-width="0.5" fill="#aaffff" cx="454.0" cy="330.0" r="1.0"/>
     <text stroke="none" x="454.0" y="330.0" font-size="10.0" font-family="helvetica">NT1.50</text>
    </g>
    <g>
     <circle stroke="black" stroke-width="0.5" fill="#aaffff" cx="460.0" cy="341.0" r="1.0"/>
     <text stroke="none" x="460.0" y="341.0" font-size="10.0" font-family="helvetica">NT1.51</text>
    </g>
    <g>
     <circle stroke="black" stroke-width="0.5" fill="#aaffff" cx="464.0" cy="321.0" r="1.0"/>
     <text stroke="none" x="464.0" y="321.0" font-size="10.0" font-family="helvetica">NT1.52</text>
    </g>
    <g>
     <circle stroke="black" stroke-width="0.5" fill="#aaffff" cx="465.0" cy="170.0" r="1.0"/>
     <text stroke="none" x="465.0" y="170.0" font-size="10.0" font-family="helvetica">NT1.53</text>
    </g>
    <g>
     <circle stroke="black" stroke-width="0.5" fill="#aaffff" cx="467.0" cy="890.0" r="1.0"/>
     <text stroke="none" x="467.0" y="890.0" font-size="20.0" font-family="helvetica">Halalkalibacillus halophilus BH27 (AB264529)</text>
    </g>
    <g>
     <circle stroke="black" stroke-width="0.5" fill="#aaffff" cx="541.0" cy="410.0" r="1.0"/>
     <text stroke="none" x="541.0" y="410.0" font-size="20.0" font-family="helvetica">Amphibacillus xylanus JCM 73617 (D82065)</text>
    </g>
    <g>
     <circle stroke="black" stroke-width="0.5" fill="#aaffff" cx="541.0" cy="1050.0" r="1.0"/>
     <text stroke="none" x="541.0" y="1050.0" font-size="20.0" font-family="helvetica">Exiguobacterium undae L27 (AJ344151)</text>
    </g>
    <g>
     <circle stroke="black" stroke-width="0.5" fill="#aaffff" cx="2.0" cy="897.0" r="1.0"/>
     <text stroke="none" x="2.0" y="897.0" font-size="10.0" font-family="helvetica">NT1.57</text>
    </g>
    <line stroke="black" x1="399.0" y1="90.0" x2="266.0" y2="109.0" stroke-width="0.5"/>
    <line stroke="black" x1="444.0" y1="290.0" x2="405.0" y2="311.0" stroke-width="0.5"/>
    <line stroke="black" x1="405.0" y1="690.0" x2="290.0" y2="724.0" stroke-width="0.5"/>
    <line stroke="black" x1="440.0" y1="810.0" x2="355.0" y2="789.0" stroke-width="0.5"/>
    <line stroke="black" x1="467.0" y1="890.0" x2="194.0" y2="869.0" stroke-width="0.5"/>
    <line stroke="black" x1="247.0" y1="31.0" x2="231.0" y2="71.0" stroke-width="0.5"/>
    <line stroke="black" x1="231.0" y1="71.0" x2="215.0" y2="121.0" stroke-width="0.5"/>
    <line stroke="black" x1="231.0" y1="71.0" x2="266.0" y2="109.0" stroke-width="0.5"/>
    <line stroke="black" x1="188.0" y1="188.0" x2="155.0" y2="379.0" stroke-width="0.5"/>
    <line stroke="black" x1="188.0" y1="188.0" x2="206.0" y2="253.0" stroke-width="0.5"/>
    <line stroke="black" x1="206.0" y1="253.0" x2="222.0" y2="299.0" stroke-width="0.5"/>
    <line stroke="black" x1="222.0" y1="299.0" x2="241.0" y2="349.0" stroke-width="0.5"/>
    <line stroke="black" x1="241.0" y1="349.0" x2="254.0" y2="389.0" stroke-width="0.5"/>
    <line stroke="black" x1="155.0" y1="379.0" x2="140.0" y2="625.0" stroke-width="0.5"/>
    <line stroke="black" x1="155.0" y1="379.0" x2="177.0" y2="568.0" stroke-width="0.5"/>
    <line stroke="black" x1="177.0" y1="568.0" x2="251.0" y2="637.0" stroke-width="0.5"/>
    <line stroke="black" x1="140.0" y1="625.0" x2="94.0" y2="778.0" stroke-width="0.5"/>
    <line stroke="black" x1="140.0" y1="625.0" x2="194.0" y2="869.0" stroke-width="0.5"/>
    <line stroke="black" x1="251.0" y1="637.0" x2="263.0" y2="686.0" stroke-width="0.5"/>
    <line stroke="black" x1="251.0" y1="637.0" x2="362.0" y2="591.0" stroke-width="0.5"/>
    <line stroke="black" x1="263.0" y1="686.0" x2="290.0" y2="724.0" stroke-width="0.5"/>
    <line stroke="black" x1="94.0" y1="778.0" x2="6.0" y2="884.0" stroke-width="0.5"/>
    <line stroke="black" x1="290.0" y1="724.0" x2="294.0" y2="758.0" stroke-width="0.5"/>
    <line stroke="black" x1="294.0" y1="758.0" x2="355.0" y2="789.0" stroke-width="0.5"/>
    <line stroke="black" x1="541.0" y1="1050.0" x2="2.0" y2="897.0" stroke-width="0.5"/>
    <line stroke="black" x1="333.0" y1="930.0" x2="94.0" y2="778.0" stroke-width="0.5"/>
    <line stroke="black" x1="357.0" y1="210.0" x2="206.0" y2="253.0" stroke-width="0.5"/>
    <line stroke="black" x1="405.0" y1="850.0" x2="194.0" y2="869.0" stroke-width="0.5"/>
    <line stroke="black" x1="441.0" y1="249.0" x2="222.0" y2="299.0" stroke-width="0.5"/>
    <line stroke="black" x1="369.0" y1="650.0" x2="263.0" y2="686.0" stroke-width="0.5"/>
    <line stroke="black" x1="420.0" y1="50.0" x2="247.0" y2="31.0" stroke-width="0.5"/>
    <line stroke="black" x1="393.0" y1="130.0" x2="266.0" y2="109.0" stroke-width="0.5"/>
    <line stroke="black" x1="442.0" y1="370.0" x2="254.0" y2="389.0" stroke-width="0.5"/>
    <line stroke="black" x1="405.0" y1="730.0" x2="294.0" y2="758.0" stroke-width="0.5"/>
    <line stroke="black" x1="433.0" y1="9.0" x2="247.0" y2="31.0" stroke-width="0.5"/>
    <line stroke="black" x1="541.0" y1="410.0" x2="254.0" y2="389.0" stroke-width="0.5"/>
    <line stroke="black" x1="379.0" y1="450.0" x2="355.0" y2="471.0" stroke-width="0.5"/>
    <line stroke="black" x1="393.0" y1="570.0" x2="362.0" y2="591.0" stroke-width="0.5"/>
    <line stroke="black" x1="411.0" y1="770.0" x2="355.0" y2="789.0" stroke-width="0.5"/>
    <line stroke="black" x1="424.0" y1="610.0" x2="362.0" y2="591.0" stroke-width="0.5"/>
   </g>
  </g>
 </svg>
</svg>
