<?xml version="1.0" encoding="UTF-8"?>
<svg height="800.0" width="700.0" xmlns="http://www.w3.org/2000/svg">
 <svg>
  <g>
   <g>
    <g>
     <circle stroke="black" stroke-width="0.5" fill="#aaffff" cx="93.0" cy="854.0" r="1.0"/>
     <text stroke="none" x="93.0" y="854.0" font-size="10.0" font-family="helvetica">NT1.1</text>
    </g>
    <g>
     <circle stroke="black" stroke-width="0.5" fill="#aaffff" cx="125.0" cy="537.0" r="1.0"/>
     <text stroke="none" x="125.0" y="537.0" font-size="10.0" font-family="helvetica">NT1.2</text>
    </g>
    <g>
     <circle stroke="black" stroke-width="0.5" fill="#aaffff" cx="143.0" cy="774.0" r="1.0"/>
     <text stroke="none" x="143.0" y="774.0" font-size="10.0" font-family="helvetica">NT1.3</text>
    </g>
    <g>
     <circle stroke="black" stroke-width="0.5" fill="#aaffff" cx="152.0" cy="891.0" r="1.0"/>
     <text stroke="none" x="152.0" y="891.0" font-size="10.0" font-family="helvetica">NT1.4</text>
    </g>
    <g>
     <circle stroke="black" stroke-width="0.5" fill="#aaffff" cx="154.0" cy="656.0" r="1.0"/>
     <text stroke="none" x="154.0" y="656.0" font-size="10.0" font-family="helvetica">NT1.5</text>
    </g>
    <g>
     <circle stroke="black" stroke-width="0.5" fill="#aaffff" cx="168.0" cy="596.0" r="1.0"/>
     <text stroke="none" x="168.0" y="596.0" font-size="10.0" font-family="helvetica">NT1.6</text>
    </g>
    <g>
     <circle stroke="black" stroke-width="0.5" fill="#aaffff" cx="186.0" cy="300.0" r="1.0"/>
     <text stroke="none" x="186.0" y="300.0" font-size="10.0" font-family="helvetica">NT1.7</text>
    </g>
    <g>
     <circle stroke="black" stroke-width="0.5" fill="#aaffff" cx="186.0" cy="530.0" r="1.0"/>
     <text stroke="none" x="186.0" y="530.0" font-size="10.0" font-family="helvetica">NT1.8</text>
    </g>
    <g>
     <circle stroke="black" stroke-width="0.5" fill="#aaffff" cx="188.0" cy="663.0" r="1.0"/>
     <text stroke="none" x="188.0" y="663.0" font-size="10.0" font-family="helvetica">NT1.9</text>
    </g>
    <g>
     <circle stroke="black" stroke-width="0.5" fill="#aaffff" cx="197.0" cy="583.0" r="1.0"/>
     <text stroke="none" x="197.0" y="583.0" font-size="10.0" font-family="helvetica">NT1.10</text>
    </g>
    <g>
     <circle stroke="black" stroke-width="0.5" fill="#aaffff" cx="204.0" cy="474.0" r="1.0"/>
     <text stroke="none" x="204.0" y="474.0" font-size="10.0" font-family="helvetica">NT1.11</text>
    </g>
    <g>
     <circle stroke="black" stroke-width="0.5" fill="#aaffff" cx="207.0" cy="468.0" r="1.0"/>
     <text stroke="none" x="207.0" y="468.0" font-size="10.0" font-family="helvetica">NT1.12</text>
    </g>
    <g>
     <circle stroke="black" stroke-width="0.5" fill="#aaffff" cx="220.0" cy="237.0" r="1.0"/>
     <text stroke="none" x="220.0" y="237.0" font-size="20.0" font-family="helvetica">ii</text>
    </g>
    <g>
     <circle stroke="black" stroke-width="0.5" fill="#aaffff" cx="220.0" cy="558.0" r="1.0"/>
     <text stroke="none" x="220.0" y="558.0" font-size="10.0" font-family="helvetica">NT1.14</text>
    </g>
    <g>
     <circle stroke="black" stroke-width="0.5" fill="#aaffff" cx="229.0" cy="646.0" r="1.0"/>
     <text stroke="none" x="229.0" y="646.0" font-size="10.0" font-family="helvetica">NT1.15</text>
    </g>
    <g>
     <circle stroke="black" stroke-width="0.5" fill="#aaffff" cx="229.0" cy="504.0" r="1.0"/>
     <text stroke="none" x="229.0" y="504.0" font-size="20.0" font-family="helvetica"> Carnobacterium inhibens K17 (Z73313)</text>
    </g>
    <g>
     <circle stroke="black" stroke-width="0.5" fill="#aaffff" cx="231.0" cy="680.0" r="1.0"/>
     <text stroke="none" x="231.0" y="680.0" font-size="10.0" font-family="helvetica">NT1.17</text>
    </g>
    <g>
     <circle stroke="black" stroke-width="0.5" fill="#aaffff" cx="231.0" cy="470.0" r="1.0"/>
     <text stroke="none" x="231.0" y="470.0" font-size="10.0" font-family="helvetica">NT1.18</text>
    </g>
    <g>
     <circle stroke="black" stroke-width="0.5" fill="#aaffff" cx="235.0" cy="927.0" r="1.0"/>
     <text stroke="none" x="235.0" y="927.0" font-size="10.0" font-family="helvetica">NT1.19</text>
    </g>
    <g>
     <circle stroke="black" stroke-width="0.5" fill="#aaffff" cx="235.0" cy="417.0" r="1.0"/>
     <text stroke="none" x="235.0" y="417.0" font-size="10.0" font-family="helvetica">NT1.20</text>
    </g>
    <g>
     <circle stroke="black" stroke-width="0.5" fill="#aaffff" cx="236.0" cy="398.0" r="1.0"/>
     <text stroke="none" x="236.0" y="398.0" font-size="10.0" font-family="helvetica">NT1.21</text>
    </g>
    <g>
     <circle stroke="black" stroke-width="0.5" fill="#aaffff" cx="245.0" cy="961.0" r="1.0"/>
     <text stroke="none" x="245.0" y="961.0" font-size="20.0" font-family="helvetica"> Enterococcus faecalis JCM 58037 (AB012212)</text>
    </g>
    <g>
     <circle stroke="black" stroke-width="0.5" fill="#aaffff" cx="245.0" cy="540.0" r="1.0"/>
     <text stroke="none" x="245.0" y="540.0" font-size="10.0" font-family="helvetica">NT1.23</text>
    </g>
    <g>
     <circle stroke="black" stroke-width="0.5" fill="#aaffff" cx="256.0" cy="435.0" r="1.0"/>
     <text stroke="none" x="256.0" y="435.0" font-size="20.0" font-family="helvetica">Carnobacterium alterfunditum ACAM 3137 (L08623)</text>
    </g>
    <g>
     <circle stroke="black" stroke-width="0.5" fill="#aaffff" cx="267.0" cy="144.0" r="1.0"/>
     <text stroke="none" x="267.0" y="144.0" font-size="10.0" font-family="helvetica">NT1.25</text>
    </g>
    <g>
     <circle stroke="black" stroke-width="0.5" fill="#aaffff" cx="278.0" cy="611.0" r="1.0"/>
     <text stroke="none" x="278.0" y="611.0" font-size="20.0" font-family="helvetica">Carnobacterium divergens NCDO 27637 (X54270)</text>
    </g>
    <g>
     <circle stroke="black" stroke-width="0.5" fill="#aaffff" cx="283.0" cy="716.0" r="1.0"/>
     <text stroke="none" x="283.0" y="716.0" font-size="10.0" font-family="helvetica">NT1.27</text>
    </g>
    <g>
     <circle stroke="black" stroke-width="0.5" fill="#aaffff" cx="283.0" cy="575.0" r="1.0"/>
     <text stroke="none" x="283.0" y="575.0" font-size="20.0" font-family="helvetica">Carnobacterium gallinarum NCFB 27667 (X54269)</text>
    </g>
    <g>
     <circle stroke="black" stroke-width="0.5" fill="#aaffff" cx="285.0" cy="859.0" r="1.0"/>
     <text stroke="none" x="285.0" y="859.0" font-size="10.0" font-family="helvetica">NT1.29</text>
    </g>
    <g>
     <circle stroke="black" stroke-width="0.5" fill="#aaffff" cx="296.0" cy="826.0" r="1.0"/>
     <text stroke="none" x="296.0" y="826.0" font-size="20.0" font-family="helvetica">75</text>
    </g>
    <g>
     <circle stroke="black" stroke-width="0.5" fill="#aaffff" cx="299.0" cy="820.0" r="1.0"/>
     <text stroke="none" x="299.0" y="820.0" font-size="20.0" font-family="helvetica">75</text>
    </g>
    <g>
     <circle stroke="black" stroke-width="0.5" fill="#aaffff" cx="302.0" cy="751.0" r="1.0"/>
     <text stroke="none" x="302.0" y="751.0" font-size="20.0" font-family="helvetica">Trichococcus collinsii 37AN3'7 (AJ306612)</text>
    </g>
    <g>
     <circle stroke="black" stroke-width="0.5" fill="#aaffff" cx="305.0" cy="856.0" r="1.0"/>
     <text stroke="none" x="305.0" y="856.0" font-size="20.0" font-family="helvetica">Trichococcus palustris DSM 91727 (AJ296179)</text>
    </g>
    <g>
     <circle stroke="black" stroke-width="0.5" fill="#aaffff" cx="309.0" cy="822.0" r="1.0"/>
     <text stroke="none" x="309.0" y="822.0" font-size="20.0" font-family="helvetica">Trichococcus pasteurii ATCC 35945T (L76599)</text>
    </g>
    <g>
     <circle stroke="black" stroke-width="0.5" fill="#aaffff" cx="309.0" cy="219.0" r="1.0"/>
     <text stroke="none" x="309.0" y="219.0" font-size="20.0" font-family="helvetica">98</text>
    </g>
    <g>
     <circle stroke="black" stroke-width="0.5" fill="#aaffff" cx="334.0" cy="891.0" r="1.0"/>
     <text stroke="none" x="334.0" y="891.0" font-size="20.0" font-family="helvetica">Trichococcus flocculiformis DSM 20947 (Y17301)</text>
    </g>
    <g>
     <circle stroke="black" stroke-width="0.5" fill="#aaffff" cx="343.0" cy="365.0" r="1.0"/>
     <text stroke="none" x="343.0" y="365.0" font-size="20.0" font-family="helvetica">Lacticigenium naphtae MIC1-187 (AB430339)</text>
    </g>
    <g>
     <circle stroke="black" stroke-width="0.5" fill="#aaffff" cx="352.0" cy="267.0" r="1.0"/>
     <text stroke="none" x="352.0" y="267.0" font-size="20.0" font-family="helvetica">92</text>
    </g>
    <g>
     <circle stroke="black" stroke-width="0.5" fill="#aaffff" cx="354.0" cy="67.0" r="1.0"/>
     <text stroke="none" x="354.0" y="67.0" font-size="10.0" font-family="helvetica">NT1.39</text>
    </g>
    <g>
     <circle stroke="black" stroke-width="0.5" fill="#aaffff" cx="361.0" cy="998.0" r="1.0"/>
     <text stroke="none" x="361.0" y="998.0" font-size="20.0" font-family="helvetica">Streptococcus pyagenes JCM 56747 (AB023575)</text>
    </g>
    <g>
     <circle stroke="black" stroke-width="0.5" fill="#aaffff" cx="363.0" cy="241.0" r="1.0"/>
     <text stroke="none" x="363.0" y="241.0" font-size="10.0" font-family="helvetica">NT1.41</text>
    </g>
    <g>
     <circle stroke="black" stroke-width="0.5" fill="#aaffff" cx="390.0" cy="172.0" r="1.0"/>
     <text stroke="none" x="390.0" y="172.0" font-size="10.0" font-family="helvetica">NT1.42</text>
    </g>
    <g>
     <circle stroke="black" stroke-width="0.5" fill="#aaffff" cx="391.0" cy="329.0" r="1.0"/>
     <text stroke="none" x="391.0" y="329.0" font-size="20.0" font-family="helvetica">Atopococcus tabaci CCUG 482537 (AJ634917)</text>
    </g>
    <g>
     <circle stroke="black" stroke-width="0.5" fill="#aaffff" cx="392.0" cy="101.0" r="1.0"/>
     <text stroke="none" x="392.0" y="101.0" font-size="10.0" font-family="helvetica">NT1.44</text>
    </g>
    <g>
     <circle stroke="black" stroke-width="0.5" fill="#aaffff" cx="395.0" cy="153.0" r="1.0"/>
     <text stroke="none" x="395.0" y="153.0" font-size="20.0" font-family="helvetica">Marinilactibacillus psychrotolerans M13-27 (AB083406)</text>
    </g>
    <g>
     <circle stroke="black" stroke-width="0.5" fill="#aaffff" cx="397.0" cy="189.0" r="1.0"/>
     <text stroke="none" x="397.0" y="189.0" font-size="20.0" font-family="helvetica">Marinilactibacillus piezotolerans LT207 (AY485792)</text>
    </g>
    <g>
     <circle stroke="black" stroke-width="0.5" fill="#aaffff" cx="406.0" cy="31.0" r="1.0"/>
     <text stroke="none" x="406.0" y="31.0" font-size="10.0" font-family="helvetica">NT1.47</text>
    </g>
    <g>
     <circle stroke="black" stroke-width="0.5" fill="#aaffff" cx="424.0" cy="224.0" r="1.0"/>
     <text stroke="none" x="424.0" y="224.0" font-size="10.0" font-family="helvetica">NT1.48</text>
    </g>
    <g>
     <circle stroke="black" stroke-width="0.5" fill="#aaffff" cx="440.0" cy="259.0" r="1.0"/>
     <text stroke="none" x="440.0" y="259.0" font-size="20.0" font-family="helvetica">Alkalibaclerium olivapovliticus WW2-SN4a7 (AF143511)</text>
    </g>
    <g>
     <circle stroke="black" stroke-width="0.5" fill="#aaffff" cx="456.0" cy="294.0" r="1.0"/>
     <text stroke="none" x="456.0" y="294.0" font-size="20.0" font-family="helvetica"> Alkalibacterium iburiense M37 (AB188091)</text>
    </g>
    <g>
     <circle stroke="black" stroke-width="0.5" fill="#aaffff" cx="617.0" cy="83.0" r="1.0"/>
     <text stroke="none" x="617.0" y="83.0" font-size="10.0" font-family="helvetica">NT1.51</text>
    </g>
    <g>
     <circle stroke="black" stroke-width="0.5" fill="#aaffff" cx="656.0" cy="14.0" r="1.0"/>
     <text stroke="none" x="656.0" y="14.0" font-size="10.0" font-family="helvetica">NT1.52</text>
    </g>
    <g>
     <circle stroke="black" stroke-width="0.5" fill="#aaffff" cx="681.0" cy="49.0" r="1.0"/>
     <text stroke="none" x="681.0" y="49.0" font-size="10.0" font-family="helvetica">NT1.53</text>
    </g>
    <g>
     <circle stroke="black" stroke-width="0.5" fill="#aaffff" cx="797.0" cy="120.0" r="1.0"/>
     <text stroke="none" x="797.0" y="120.0" font-size="10.0" font-family="helvetica">NT1.54</text>
    </g>
    <g>
     <circle stroke="black" stroke-width="0.5" fill="#aaffff" cx="5.0" cy="873.0" r="1.0"/>
     <text stroke="none" x="5.0" y="873.0" font-size="10.0" font-family="helvetica">NT1.55</text>
    </g>
    <line stroke="black" x1="395.0" y1="153.0" x2="390.0" y2="172.0" stroke-width="0.5"/>
    <line stroke="black" x1="397.0" y1="189.0" x2="390.0" y2="172.0" stroke-width="0.5"/>
    <line stroke="black" x1="440.0" y1="259.0" x2="363.0" y2="241.0" stroke-width="0.5"/>
    <line stroke="black" x1="456.0" y1="294.0" x2="352.0" y2="267.0" stroke-width="0.5"/>
    <line stroke="black" x1="391.0" y1="329.0" x2="220.0" y2="237.0" stroke-width="0.5"/>
    <line stroke="black" x1="343.0" y1="365.0" x2="186.0" y2="300.0" stroke-width="0.5"/>
    <line stroke="black" x1="309.0" y1="822.0" x2="299.0" y2="820.0" stroke-width="0.5"/>
    <line stroke="black" x1="245.0" y1="961.0" x2="93.0" y2="854.0" stroke-width="0.5"/>
    <line stroke="black" x1="305.0" y1="856.0" x2="296.0" y2="826.0" stroke-width="0.5"/>
    <line stroke="black" x1="334.0" y1="891.0" x2="285.0" y2="859.0" stroke-width="0.5"/>
    <line stroke="black" x1="229.0" y1="504.0" x2="204.0" y2="474.0" stroke-width="0.5"/>
    <line stroke="black" x1="302.0" y1="751.0" x2="299.0" y2="820.0" stroke-width="0.5"/>
    <line stroke="black" x1="278.0" y1="611.0" x2="197.0" y2="583.0" stroke-width="0.5"/>
    <line stroke="black" x1="283.0" y1="575.0" x2="220.0" y2="558.0" stroke-width="0.5"/>
    <line stroke="black" x1="256.0" y1="435.0" x2="235.0" y2="417.0" stroke-width="0.5"/>
    <line stroke="black" x1="267.0" y1="144.0" x2="309.0" y2="219.0" stroke-width="0.5"/>
    <line stroke="black" x1="309.0" y1="219.0" x2="352.0" y2="267.0" stroke-width="0.5"/>
    <line stroke="black" x1="309.0" y1="219.0" x2="390.0" y2="172.0" stroke-width="0.5"/>
    <line stroke="black" x1="220.0" y1="237.0" x2="186.0" y2="300.0" stroke-width="0.5"/>
    <line stroke="black" x1="186.0" y1="300.0" x2="125.0" y2="537.0" stroke-width="0.5"/>
    <line stroke="black" x1="125.0" y1="537.0" x2="93.0" y2="854.0" stroke-width="0.5"/>
    <line stroke="black" x1="125.0" y1="537.0" x2="143.0" y2="774.0" stroke-width="0.5"/>
    <line stroke="black" x1="152.0" y1="891.0" x2="285.0" y2="859.0" stroke-width="0.5"/>
    <line stroke="black" x1="168.0" y1="596.0" x2="186.0" y2="530.0" stroke-width="0.5"/>
    <line stroke="black" x1="186.0" y1="530.0" x2="197.0" y2="583.0" stroke-width="0.5"/>
    <line stroke="black" x1="186.0" y1="530.0" x2="204.0" y2="474.0" stroke-width="0.5"/>
    <line stroke="black" x1="285.0" y1="859.0" x2="296.0" y2="826.0" stroke-width="0.5"/>
    <line stroke="black" x1="296.0" y1="826.0" x2="299.0" y2="820.0" stroke-width="0.5"/>
    <line stroke="black" x1="5.0" y1="873.0" x2="361.0" y2="998.0" stroke-width="0.5"/>
    <line stroke="black" x1="5.0" y1="873.0" x2="93.0" y2="854.0" stroke-width="0.5"/>
   </g>
  </g>
 </svg>
</svg>
