<?xml version="1.0" encoding="UTF-8"?>
<svg height="800.0" width="700.0" xmlns="http://www.w3.org/2000/svg">
 <svg>
  <g>
   <g>
    <g>
     <circle stroke="black" stroke-width="0.5" fill="#aaffff" cx="151.0" cy="1313.0" r="1.0"/>
     <text stroke="none" x="151.0" y="1313.0" font-size="10.0" font-family="helvetica">NT1.1</text>
    </g>
    <g>
     <circle stroke="black" stroke-width="0.5" fill="#aaffff" cx="175.0" cy="1060.0" r="1.0"/>
     <text stroke="none" x="175.0" y="1060.0" font-size="10.0" font-family="helvetica">NT1.2</text>
    </g>
    <g>
     <circle stroke="black" stroke-width="0.5" fill="#aaffff" cx="178.0" cy="1356.0" r="1.0"/>
     <text stroke="none" x="178.0" y="1356.0" font-size="10.0" font-family="helvetica">NT1.3</text>
    </g>
    <g>
     <circle stroke="black" stroke-width="0.5" fill="#aaffff" cx="222.0" cy="762.0" r="1.0"/>
     <text stroke="none" x="222.0" y="762.0" font-size="20.0" font-family="helvetica">100</text>
    </g>
    <g>
     <circle stroke="black" stroke-width="0.5" fill="#aaffff" cx="257.0" cy="451.0" r="1.0"/>
     <text stroke="none" x="257.0" y="451.0" font-size="20.0" font-family="helvetica">100</text>
    </g>
    <g>
     <circle stroke="black" stroke-width="0.5" fill="#aaffff" cx="274.0" cy="644.0" r="1.0"/>
     <text stroke="none" x="274.0" y="644.0" font-size="10.0" font-family="helvetica">NT1.6</text>
    </g>
    <g>
     <circle stroke="black" stroke-width="0.5" fill="#aaffff" cx="276.0" cy="1438.0" r="1.0"/>
     <text stroke="none" x="276.0" y="1438.0" font-size="10.0" font-family="helvetica">NT1.7</text>
    </g>
    <g>
     <circle stroke="black" stroke-width="0.5" fill="#aaffff" cx="310.0" cy="495.0" r="1.0"/>
     <text stroke="none" x="310.0" y="495.0" font-size="10.0" font-family="helvetica">NT1.8</text>
    </g>
    <g>
     <circle stroke="black" stroke-width="0.5" fill="#aaffff" cx="317.0" cy="550.0" r="1.0"/>
     <text stroke="none" x="317.0" y="550.0" font-size="20.0" font-family="helvetica">100</text>
    </g>
    <g>
     <circle stroke="black" stroke-width="0.5" fill="#aaffff" cx="324.0" cy="1397.0" r="1.0"/>
     <text stroke="none" x="324.0" y="1397.0" font-size="10.0" font-family="helvetica">NT1.10</text>
    </g>
    <g>
     <circle stroke="black" stroke-width="0.5" fill="#aaffff" cx="335.0" cy="503.0" r="1.0"/>
     <text stroke="none" x="335.0" y="503.0" font-size="20.0" font-family="helvetica">V campbellii CAIM 128</text>
    </g>
    <g>
     <circle stroke="black" stroke-width="0.5" fill="#aaffff" cx="337.0" cy="438.0" r="1.0"/>
     <text stroke="none" x="337.0" y="438.0" font-size="10.0" font-family="helvetica">NT1.12</text>
    </g>
    <g>
     <circle stroke="black" stroke-width="0.5" fill="#aaffff" cx="339.0" cy="1424.0" r="1.0"/>
     <text stroke="none" x="339.0" y="1424.0" font-size="20.0" font-family="helvetica">100</text>
    </g>
    <g>
     <circle stroke="black" stroke-width="0.5" fill="#aaffff" cx="342.0" cy="794.0" r="1.0"/>
     <text stroke="none" x="342.0" y="794.0" font-size="10.0" font-family="helvetica">NT1.14</text>
    </g>
    <g>
     <circle stroke="black" stroke-width="0.5" fill="#aaffff" cx="347.0" cy="466.0" r="1.0"/>
     <text stroke="none" x="347.0" y="466.0" font-size="20.0" font-family="helvetica">V. Campbellii CAIM 521</text>
    </g>
    <g>
     <circle stroke="black" stroke-width="0.5" fill="#aaffff" cx="347.0" cy="410.0" r="1.0"/>
     <text stroke="none" x="347.0" y="410.0" font-size="20.0" font-family="helvetica">100</text>
    </g>
    <g>
     <circle stroke="black" stroke-width="0.5" fill="#aaffff" cx="348.0" cy="429.0" r="1.0"/>
     <text stroke="none" x="348.0" y="429.0" font-size="20.0" font-family="helvetica">V. campbellii CAIM 419</text>
    </g>
    <g>
     <circle stroke="black" stroke-width="0.5" fill="#aaffff" cx="349.0" cy="390.0" r="1.0"/>
     <text stroke="none" x="349.0" y="390.0" font-size="20.0" font-family="helvetica">V. campbellii CECT 5237</text>
    </g>
    <g>
     <circle stroke="black" stroke-width="0.5" fill="#aaffff" cx="349.0" cy="1368.0" r="1.0"/>
     <text stroke="none" x="349.0" y="1368.0" font-size="20.0" font-family="helvetica">V. alginolyticus CECT 521T</text>
    </g>
    <g>
     <circle stroke="black" stroke-width="0.5" fill="#aaffff" cx="349.0" cy="597.0" r="1.0"/>
     <text stroke="none" x="349.0" y="597.0" font-size="20.0" font-family="helvetica">100</text>
    </g>
    <g>
     <circle stroke="black" stroke-width="0.5" fill="#aaffff" cx="351.0" cy="617.0" r="1.0"/>
     <text stroke="none" x="351.0" y="617.0" font-size="20.0" font-family="helvetica">100</text>
    </g>
    <g>
     <circle stroke="black" stroke-width="0.5" fill="#aaffff" cx="352.0" cy="1444.0" r="1.0"/>
     <text stroke="none" x="352.0" y="1444.0" font-size="20.0" font-family="helvetica">V. alginolyticus CECT 609</text>
    </g>
    <g>
     <circle stroke="black" stroke-width="0.5" fill="#aaffff" cx="352.0" cy="1275.0" r="1.0"/>
     <text stroke="none" x="352.0" y="1275.0" font-size="10.0" font-family="helvetica">NT1.23</text>
    </g>
    <g>
     <circle stroke="black" stroke-width="0.5" fill="#aaffff" cx="356.0" cy="1311.0" r="1.0"/>
     <text stroke="none" x="356.0" y="1311.0" font-size="20.0" font-family="helvetica">89</text>
    </g>
    <g>
     <circle stroke="black" stroke-width="0.5" fill="#aaffff" cx="357.0" cy="1237.0" r="1.0"/>
     <text stroke="none" x="357.0" y="1237.0" font-size="20.0" font-family="helvetica">90</text>
    </g>
    <g>
     <circle stroke="black" stroke-width="0.5" fill="#aaffff" cx="358.0" cy="1406.0" r="1.0"/>
     <text stroke="none" x="358.0" y="1406.0" font-size="20.0" font-family="helvetica"/>
    </g>
    <g>
     <circle stroke="black" stroke-width="0.5" fill="#aaffff" cx="358.0" cy="560.0" r="1.0"/>
     <text stroke="none" x="358.0" y="560.0" font-size="20.0" font-family="helvetica">100</text>
    </g>
    <g>
     <circle stroke="black" stroke-width="0.5" fill="#aaffff" cx="359.0" cy="748.0" r="1.0"/>
     <text stroke="none" x="359.0" y="748.0" font-size="10.0" font-family="helvetica">NT1.28</text>
    </g>
    <g>
     <circle stroke="black" stroke-width="0.5" fill="#aaffff" cx="361.0" cy="617.0" r="1.0"/>
     <text stroke="none" x="361.0" y="617.0" font-size="20.0" font-family="helvetica">V. campbellii CAIM 415</text>
    </g>
    <g>
     <circle stroke="black" stroke-width="0.5" fill="#aaffff" cx="361.0" cy="1481.0" r="1.0"/>
     <text stroke="none" x="361.0" y="1481.0" font-size="20.0" font-family="helvetica">V. alginolyticus CECT 586</text>
    </g>
    <g>
     <circle stroke="black" stroke-width="0.5" fill="#aaffff" cx="361.0" cy="767.0" r="1.0"/>
     <text stroke="none" x="361.0" y="767.0" font-size="10.0" font-family="helvetica">NT1.31</text>
    </g>
    <g>
     <circle stroke="black" stroke-width="0.5" fill="#aaffff" cx="363.0" cy="1331.0" r="1.0"/>
     <text stroke="none" x="363.0" y="1331.0" font-size="20.0" font-family="helvetica">V. parahaemolyticus CECT 5271</text>
    </g>
    <g>
     <circle stroke="black" stroke-width="0.5" fill="#aaffff" cx="364.0" cy="711.0" r="1.0"/>
     <text stroke="none" x="364.0" y="711.0" font-size="10.0" font-family="helvetica">NT1.33</text>
    </g>
    <g>
     <circle stroke="black" stroke-width="0.5" fill="#aaffff" cx="365.0" cy="1293.0" r="1.0"/>
     <text stroke="none" x="365.0" y="1293.0" font-size="20.0" font-family="helvetica">V. parahaemolyticus CECT 5305</text>
    </g>
    <g>
     <circle stroke="black" stroke-width="0.5" fill="#aaffff" cx="366.0" cy="1218.0" r="1.0"/>
     <text stroke="none" x="366.0" y="1218.0" font-size="20.0" font-family="helvetica">V. parahaemolyticus CECT 51 1T</text>
    </g>
    <g>
     <circle stroke="black" stroke-width="0.5" fill="#aaffff" cx="368.0" cy="541.0" r="1.0"/>
     <text stroke="none" x="368.0" y="541.0" font-size="20.0" font-family="helvetica">V. campbellii CAIM 392</text>
    </g>
    <g>
     <circle stroke="black" stroke-width="0.5" fill="#aaffff" cx="368.0" cy="579.0" r="1.0"/>
     <text stroke="none" x="368.0" y="579.0" font-size="20.0" font-family="helvetica">V. campbellii CAIM 333</text>
    </g>
    <g>
     <circle stroke="black" stroke-width="0.5" fill="#aaffff" cx="370.0" cy="1565.0" r="1.0"/>
     <text stroke="none" x="370.0" y="1565.0" font-size="10.0" font-family="helvetica">NT1.38</text>
    </g>
    <g>
     <circle stroke="black" stroke-width="0.5" fill="#aaffff" cx="371.0" cy="1256.0" r="1.0"/>
     <text stroke="none" x="371.0" y="1256.0" font-size="20.0" font-family="helvetica">V. parahaemolyticus CECT 61 1</text>
    </g>
    <g>
     <circle stroke="black" stroke-width="0.5" fill="#aaffff" cx="372.0" cy="654.0" r="1.0"/>
     <text stroke="none" x="372.0" y="654.0" font-size="20.0" font-family="helvetica">V. campbellii CAIM 9</text>
    </g>
    <g>
     <circle stroke="black" stroke-width="0.5" fill="#aaffff" cx="374.0" cy="1538.0" r="1.0"/>
     <text stroke="none" x="374.0" y="1538.0" font-size="10.0" font-family="helvetica">NT1.41</text>
    </g>
    <g>
     <circle stroke="black" stroke-width="0.5" fill="#aaffff" cx="379.0" cy="767.0" r="1.0"/>
     <text stroke="none" x="379.0" y="767.0" font-size="20.0" font-family="helvetica">V campbellii R1024</text>
    </g>
    <g>
     <circle stroke="black" stroke-width="0.5" fill="#aaffff" cx="380.0" cy="691.0" r="1.0"/>
     <text stroke="none" x="380.0" y="691.0" font-size="20.0" font-family="helvetica">V. campbellii R131 1</text>
    </g>
    <g>
     <circle stroke="black" stroke-width="0.5" fill="#aaffff" cx="380.0" cy="804.0" r="1.0"/>
     <text stroke="none" x="380.0" y="804.0" font-size="20.0" font-family="helvetica">V. campbellii CAIM 780</text>
    </g>
    <g>
     <circle stroke="black" stroke-width="0.5" fill="#aaffff" cx="382.0" cy="1594.0" r="1.0"/>
     <text stroke="none" x="382.0" y="1594.0" font-size="20.0" font-family="helvetica">V. natriegens CECT 7465</text>
    </g>
    <g>
     <circle stroke="black" stroke-width="0.5" fill="#aaffff" cx="382.0" cy="1557.0" r="1.0"/>
     <text stroke="none" x="382.0" y="1557.0" font-size="20.0" font-family="helvetica"/>
    </g>
    <g>
     <circle stroke="black" stroke-width="0.5" fill="#aaffff" cx="384.0" cy="729.0" r="1.0"/>
     <text stroke="none" x="384.0" y="729.0" font-size="20.0" font-family="helvetica">V. campbellii R1 1 17</text>
    </g>
    <g>
     <circle stroke="black" stroke-width="0.5" fill="#aaffff" cx="388.0" cy="265.0" r="1.0"/>
     <text stroke="none" x="388.0" y="265.0" font-size="10.0" font-family="helvetica">NT1.48</text>
    </g>
    <g>
     <circle stroke="black" stroke-width="0.5" fill="#aaffff" cx="390.0" cy="277.0" r="1.0"/>
     <text stroke="none" x="390.0" y="277.0" font-size="20.0" font-family="helvetica">10</text>
    </g>
    <g>
     <circle stroke="black" stroke-width="0.5" fill="#aaffff" cx="391.0" cy="217.0" r="1.0"/>
     <text stroke="none" x="391.0" y="217.0" font-size="20.0" font-family="helvetica">mo</text>
    </g>
    <g>
     <circle stroke="black" stroke-width="0.5" fill="#aaffff" cx="392.0" cy="164.0" r="1.0"/>
     <text stroke="none" x="392.0" y="164.0" font-size="10.0" font-family="helvetica">NT1.51</text>
    </g>
    <g>
     <circle stroke="black" stroke-width="0.5" fill="#aaffff" cx="393.0" cy="128.0" r="1.0"/>
     <text stroke="none" x="393.0" y="128.0" font-size="20.0" font-family="helvetica">84</text>
    </g>
    <g>
     <circle stroke="black" stroke-width="0.5" fill="#aaffff" cx="393.0" cy="334.0" r="1.0"/>
     <text stroke="none" x="393.0" y="334.0" font-size="20.0" font-family="helvetica">100</text>
    </g>
    <g>
     <circle stroke="black" stroke-width="0.5" fill="#aaffff" cx="394.0" cy="315.0" r="1.0"/>
     <text stroke="none" x="394.0" y="315.0" font-size="20.0" font-family="helvetica">V. harveyi H2</text>
    </g>
    <g>
     <circle stroke="black" stroke-width="0.5" fill="#aaffff" cx="394.0" cy="354.0" r="1.0"/>
     <text stroke="none" x="394.0" y="354.0" font-size="20.0" font-family="helvetica">V. harveyi SA F33 40</text>
    </g>
    <g>
     <circle stroke="black" stroke-width="0.5" fill="#aaffff" cx="394.0" cy="90.0" r="1.0"/>
     <text stroke="none" x="394.0" y="90.0" font-size="20.0" font-family="helvetica">84</text>
    </g>
    <g>
     <circle stroke="black" stroke-width="0.5" fill="#aaffff" cx="395.0" cy="1518.0" r="1.0"/>
     <text stroke="none" x="395.0" y="1518.0" font-size="20.0" font-family="helvetica">V. natriegens CECT 526T</text>
    </g>
    <g>
     <circle stroke="black" stroke-width="0.5" fill="#aaffff" cx="395.0" cy="15.0" r="1.0"/>
     <text stroke="none" x="395.0" y="15.0" font-size="10.0" font-family="helvetica">NT1.58</text>
    </g>
    <g>
     <circle stroke="black" stroke-width="0.5" fill="#aaffff" cx="396.0" cy="90.0" r="1.0"/>
     <text stroke="none" x="396.0" y="90.0" font-size="20.0" font-family="helvetica">V. harveyi LPD 1-3-27</text>
    </g>
    <g>
     <circle stroke="black" stroke-width="0.5" fill="#aaffff" cx="397.0" cy="258.0" r="1.0"/>
     <text stroke="none" x="397.0" y="258.0" font-size="10.0" font-family="helvetica">NT1.60</text>
    </g>
    <g>
     <circle stroke="black" stroke-width="0.5" fill="#aaffff" cx="398.0" cy="128.0" r="1.0"/>
     <text stroke="none" x="398.0" y="128.0" font-size="20.0" font-family="helvetica">v. harveyi DL F5 57</text>
    </g>
    <g>
     <circle stroke="black" stroke-width="0.5" fill="#aaffff" cx="398.0" cy="165.0" r="1.0"/>
     <text stroke="none" x="398.0" y="165.0" font-size="20.0" font-family="helvetica">V. harveyiLPD 1-1-10</text>
    </g>
    <g>
     <circle stroke="black" stroke-width="0.5" fill="#aaffff" cx="398.0" cy="240.0" r="1.0"/>
     <text stroke="none" x="398.0" y="240.0" font-size="20.0" font-family="helvetica">V. harveyi SA F45 17</text>
    </g>
    <g>
     <circle stroke="black" stroke-width="0.5" fill="#aaffff" cx="398.0" cy="279.0" r="1.0"/>
     <text stroke="none" x="398.0" y="279.0" font-size="20.0" font-family="helvetica">V. harveyi SA F1310</text>
    </g>
    <g>
     <circle stroke="black" stroke-width="0.5" fill="#aaffff" cx="406.0" cy="1071.0" r="1.0"/>
     <text stroke="none" x="406.0" y="1071.0" font-size="20.0" font-family="helvetica">100</text>
    </g>
    <g>
     <circle stroke="black" stroke-width="0.5" fill="#aaffff" cx="411.0" cy="842.0" r="1.0"/>
     <text stroke="none" x="411.0" y="842.0" font-size="20.0" font-family="helvetica">V. campbellii R379</text>
    </g>
    <g>
     <circle stroke="black" stroke-width="0.5" fill="#aaffff" cx="414.0" cy="1012.0" r="1.0"/>
     <text stroke="none" x="414.0" y="1012.0" font-size="20.0" font-family="helvetica">93</text>
    </g>
    <g>
     <circle stroke="black" stroke-width="0.5" fill="#aaffff" cx="414.0" cy="1133.0" r="1.0"/>
     <text stroke="none" x="414.0" y="1133.0" font-size="20.0" font-family="helvetica">95</text>
    </g>
    <g>
     <circle stroke="black" stroke-width="0.5" fill="#aaffff" cx="422.0" cy="1105.0" r="1.0"/>
     <text stroke="none" x="422.0" y="1105.0" font-size="20.0" font-family="helvetica">V. rotiferianus LPD 1-1-24</text>
    </g>
    <g>
     <circle stroke="black" stroke-width="0.5" fill="#aaffff" cx="423.0" cy="1161.0" r="1.0"/>
     <text stroke="none" x="423.0" y="1161.0" font-size="10.0" font-family="helvetica">NT1.70</text>
    </g>
    <g>
     <circle stroke="black" stroke-width="0.5" fill="#aaffff" cx="426.0" cy="1180.0" r="1.0"/>
     <text stroke="none" x="426.0" y="1180.0" font-size="20.0" font-family="helvetica">V. rotiferianus LPD 1-1-84</text>
    </g>
    <g>
     <circle stroke="black" stroke-width="0.5" fill="#aaffff" cx="428.0" cy="1142.0" r="1.0"/>
     <text stroke="none" x="428.0" y="1142.0" font-size="20.0" font-family="helvetica">V. rotiferianus LPD 1-1-86</text>
    </g>
    <g>
     <circle stroke="black" stroke-width="0.5" fill="#aaffff" cx="431.0" cy="955.0" r="1.0"/>
     <text stroke="none" x="431.0" y="955.0" font-size="20.0" font-family="helvetica">100</text>
    </g>
    <g>
     <circle stroke="black" stroke-width="0.5" fill="#aaffff" cx="432.0" cy="1030.0" r="1.0"/>
     <text stroke="none" x="432.0" y="1030.0" font-size="20.0" font-family="helvetica">V. rotiferianus CAIM 573</text>
    </g>
    <g>
     <circle stroke="black" stroke-width="0.5" fill="#aaffff" cx="432.0" cy="879.0" r="1.0"/>
     <text stroke="none" x="432.0" y="879.0" font-size="20.0" font-family="helvetica">V. rotiferianus CAIM 577T</text>
    </g>
    <g>
     <circle stroke="black" stroke-width="0.5" fill="#aaffff" cx="434.0" cy="1068.0" r="1.0"/>
     <text stroke="none" x="434.0" y="1068.0" font-size="20.0" font-family="helvetica"> V. rotiferianus LPD 1-1-11</text>
    </g>
    <g>
     <circle stroke="black" stroke-width="0.5" fill="#aaffff" cx="434.0" cy="1632.0" r="1.0"/>
     <text stroke="none" x="434.0" y="1632.0" font-size="20.0" font-family="helvetica">V. cholerae CECT 514T</text>
    </g>
    <line stroke="black" x1="396.0" y1="90.0" x2="394.0" y2="90.0" stroke-width="0.5"/>
    <line stroke="black" x1="398.0" y1="128.0" x2="393.0" y2="128.0" stroke-width="0.5"/>
    <line stroke="black" x1="398.0" y1="165.0" x2="392.0" y2="164.0" stroke-width="0.5"/>
    <line stroke="black" x1="398.0" y1="240.0" x2="397.0" y2="258.0" stroke-width="0.5"/>
    <line stroke="black" x1="398.0" y1="279.0" x2="397.0" y2="258.0" stroke-width="0.5"/>
    <line stroke="black" x1="394.0" y1="315.0" x2="393.0" y2="334.0" stroke-width="0.5"/>
    <line stroke="black" x1="394.0" y1="354.0" x2="393.0" y2="334.0" stroke-width="0.5"/>
    <line stroke="black" x1="347.0" y1="466.0" x2="337.0" y2="438.0" stroke-width="0.5"/>
    <line stroke="black" x1="335.0" y1="503.0" x2="317.0" y2="550.0" stroke-width="0.5"/>
    <line stroke="black" x1="379.0" y1="767.0" x2="361.0" y2="767.0" stroke-width="0.5"/>
    <line stroke="black" x1="348.0" y1="429.0" x2="347.0" y2="410.0" stroke-width="0.5"/>
    <line stroke="black" x1="349.0" y1="390.0" x2="347.0" y2="410.0" stroke-width="0.5"/>
    <line stroke="black" x1="411.0" y1="842.0" x2="342.0" y2="794.0" stroke-width="0.5"/>
    <line stroke="black" x1="361.0" y1="617.0" x2="351.0" y2="617.0" stroke-width="0.5"/>
    <line stroke="black" x1="380.0" y1="691.0" x2="364.0" y2="711.0" stroke-width="0.5"/>
    <line stroke="black" x1="380.0" y1="804.0" x2="361.0" y2="767.0" stroke-width="0.5"/>
    <line stroke="black" x1="384.0" y1="729.0" x2="364.0" y2="711.0" stroke-width="0.5"/>
    <line stroke="black" x1="368.0" y1="579.0" x2="358.0" y2="560.0" stroke-width="0.5"/>
    <line stroke="black" x1="372.0" y1="654.0" x2="351.0" y2="617.0" stroke-width="0.5"/>
    <line stroke="black" x1="428.0" y1="1142.0" x2="423.0" y2="1161.0" stroke-width="0.5"/>
    <line stroke="black" x1="434.0" y1="1068.0" x2="414.0" y2="1012.0" stroke-width="0.5"/>
    <line stroke="black" x1="432.0" y1="1030.0" x2="431.0" y2="955.0" stroke-width="0.5"/>
    <line stroke="black" x1="432.0" y1="879.0" x2="431.0" y2="955.0" stroke-width="0.5"/>
    <line stroke="black" x1="363.0" y1="1331.0" x2="356.0" y2="1311.0" stroke-width="0.5"/>
    <line stroke="black" x1="371.0" y1="1256.0" x2="357.0" y2="1237.0" stroke-width="0.5"/>
    <line stroke="black" x1="352.0" y1="1444.0" x2="339.0" y2="1424.0" stroke-width="0.5"/>
    <line stroke="black" x1="382.0" y1="1557.0" x2="374.0" y2="1538.0" stroke-width="0.5"/>
    <line stroke="black" x1="395.0" y1="1518.0" x2="374.0" y2="1538.0" stroke-width="0.5"/>
    <line stroke="black" x1="395.0" y1="15.0" x2="395.0" y2="15.0" stroke-width="0.5"/>
    <line stroke="black" x1="394.0" y1="90.0" x2="393.0" y2="128.0" stroke-width="0.5"/>
    <line stroke="black" x1="393.0" y1="128.0" x2="392.0" y2="164.0" stroke-width="0.5"/>
    <line stroke="black" x1="392.0" y1="164.0" x2="391.0" y2="217.0" stroke-width="0.5"/>
    <line stroke="black" x1="391.0" y1="217.0" x2="388.0" y2="265.0" stroke-width="0.5"/>
    <line stroke="black" x1="391.0" y1="217.0" x2="397.0" y2="258.0" stroke-width="0.5"/>
    <line stroke="black" x1="388.0" y1="265.0" x2="257.0" y2="451.0" stroke-width="0.5"/>
    <line stroke="black" x1="388.0" y1="265.0" x2="390.0" y2="277.0" stroke-width="0.5"/>
    <line stroke="black" x1="388.0" y1="265.0" x2="390.0" y2="277.0" stroke-width="0.5"/>
    <line stroke="black" x1="390.0" y1="277.0" x2="393.0" y2="334.0" stroke-width="0.5"/>
    <line stroke="black" x1="257.0" y1="451.0" x2="222.0" y2="762.0" stroke-width="0.5"/>
    <line stroke="black" x1="257.0" y1="451.0" x2="274.0" y2="644.0" stroke-width="0.5"/>
    <line stroke="black" x1="274.0" y1="644.0" x2="342.0" y2="794.0" stroke-width="0.5"/>
    <line stroke="black" x1="274.0" y1="644.0" x2="310.0" y2="495.0" stroke-width="0.5"/>
    <line stroke="black" x1="222.0" y1="762.0" x2="175.0" y2="1060.0" stroke-width="0.5"/>
    <line stroke="black" x1="222.0" y1="762.0" x2="406.0" y2="1071.0" stroke-width="0.5"/>
    <line stroke="black" x1="310.0" y1="495.0" x2="317.0" y2="550.0" stroke-width="0.5"/>
    <line stroke="black" x1="310.0" y1="495.0" x2="337.0" y2="438.0" stroke-width="0.5"/>
    <line stroke="black" x1="342.0" y1="794.0" x2="359.0" y2="748.0" stroke-width="0.5"/>
    <line stroke="black" x1="317.0" y1="550.0" x2="349.0" y2="597.0" stroke-width="0.5"/>
    <line stroke="black" x1="337.0" y1="438.0" x2="347.0" y2="410.0" stroke-width="0.5"/>
    <line stroke="black" x1="359.0" y1="748.0" x2="361.0" y2="767.0" stroke-width="0.5"/>
    <line stroke="black" x1="359.0" y1="748.0" x2="364.0" y2="711.0" stroke-width="0.5"/>
    <line stroke="black" x1="349.0" y1="597.0" x2="351.0" y2="617.0" stroke-width="0.5"/>
    <line stroke="black" x1="349.0" y1="597.0" x2="358.0" y2="560.0" stroke-width="0.5"/>
    <line stroke="black" x1="175.0" y1="1060.0" x2="151.0" y2="1313.0" stroke-width="0.5"/>
    <line stroke="black" x1="175.0" y1="1060.0" x2="178.0" y2="1356.0" stroke-width="0.5"/>
    <line stroke="black" x1="406.0" y1="1071.0" x2="414.0" y2="1133.0" stroke-width="0.5"/>
    <line stroke="black" x1="406.0" y1="1071.0" x2="414.0" y2="1012.0" stroke-width="0.5"/>
    <line stroke="black" x1="414.0" y1="1012.0" x2="431.0" y2="955.0" stroke-width="0.5"/>
    <line stroke="black" x1="414.0" y1="1133.0" x2="423.0" y2="1161.0" stroke-width="0.5"/>
    <line stroke="black" x1="423.0" y1="1161.0" x2="426.0" y2="1180.0" stroke-width="0.5"/>
    <line stroke="black" x1="151.0" y1="1313.0" x2="370.0" y2="1565.0" stroke-width="0.5"/>
    <line stroke="black" x1="178.0" y1="1356.0" x2="276.0" y2="1438.0" stroke-width="0.5"/>
    <line stroke="black" x1="178.0" y1="1356.0" x2="352.0" y2="1275.0" stroke-width="0.5"/>
    <line stroke="black" x1="276.0" y1="1438.0" x2="324.0" y2="1397.0" stroke-width="0.5"/>
    <line stroke="black" x1="352.0" y1="1275.0" x2="356.0" y2="1311.0" stroke-width="0.5"/>
    <line stroke="black" x1="352.0" y1="1275.0" x2="357.0" y2="1237.0" stroke-width="0.5"/>
    <line stroke="black" x1="324.0" y1="1397.0" x2="339.0" y2="1424.0" stroke-width="0.5"/>
    <line stroke="black" x1="370.0" y1="1565.0" x2="374.0" y2="1538.0" stroke-width="0.5"/>
    <line stroke="black" x1="434.0" y1="1632.0" x2="151.0" y2="1313.0" stroke-width="0.5"/>
    <line stroke="black" x1="361.0" y1="1481.0" x2="276.0" y2="1438.0" stroke-width="0.5"/>
    <line stroke="black" x1="349.0" y1="1368.0" x2="324.0" y2="1397.0" stroke-width="0.5"/>
    <line stroke="black" x1="358.0" y1="1406.0" x2="339.0" y2="1424.0" stroke-width="0.5"/>
    <line stroke="black" x1="365.0" y1="1293.0" x2="356.0" y2="1311.0" stroke-width="0.5"/>
    <line stroke="black" x1="366.0" y1="1218.0" x2="357.0" y2="1237.0" stroke-width="0.5"/>
    <line stroke="black" x1="368.0" y1="541.0" x2="358.0" y2="560.0" stroke-width="0.5"/>
    <line stroke="black" x1="382.0" y1="1594.0" x2="370.0" y2="1565.0" stroke-width="0.5"/>
    <line stroke="black" x1="395.0" y1="15.0" x2="394.0" y2="90.0" stroke-width="0.5"/>
    <line stroke="black" x1="422.0" y1="1105.0" x2="414.0" y2="1133.0" stroke-width="0.5"/>
   </g>
  </g>
 </svg>
</svg>
