<?xml version="1.0" encoding="UTF-8"?>
<svg height="800.0" width="700.0" xmlns="http://www.w3.org/2000/svg">
 <svg>
  <g>
   <g>
    <g>
     <circle stroke="black" stroke-width="0.5" fill="#aaffff" cx="122.0" cy="487.0" r="1.0"/>
     <text stroke="none" x="122.0" y="487.0" font-size="10.0" font-family="helvetica">NT1.1</text>
    </g>
    <g>
     <circle stroke="black" stroke-width="0.5" fill="#aaffff" cx="132.0" cy="350.0" r="1.0"/>
     <text stroke="none" x="132.0" y="350.0" font-size="10.0" font-family="helvetica">NT1.2</text>
    </g>
    <g>
     <circle stroke="black" stroke-width="0.5" fill="#aaffff" cx="171.0" cy="474.0" r="1.0"/>
     <text stroke="none" x="171.0" y="474.0" font-size="10.0" font-family="helvetica">NT1.3</text>
    </g>
    <g>
     <circle stroke="black" stroke-width="0.5" fill="#aaffff" cx="196.0" cy="514.0" r="1.0"/>
     <text stroke="none" x="196.0" y="514.0" font-size="10.0" font-family="helvetica">NT1.4</text>
    </g>
    <g>
     <circle stroke="black" stroke-width="0.5" fill="#aaffff" cx="196.0" cy="623.0" r="1.0"/>
     <text stroke="none" x="196.0" y="623.0" font-size="10.0" font-family="helvetica">NT1.5</text>
    </g>
    <g>
     <circle stroke="black" stroke-width="0.5" fill="#aaffff" cx="231.0" cy="651.0" r="1.0"/>
     <text stroke="none" x="231.0" y="651.0" font-size="10.0" font-family="helvetica">NT1.6</text>
    </g>
    <g>
     <circle stroke="black" stroke-width="0.5" fill="#aaffff" cx="306.0" cy="223.0" r="1.0"/>
     <text stroke="none" x="306.0" y="223.0" font-size="20.0" font-family="helvetica">100</text>
    </g>
    <g>
     <circle stroke="black" stroke-width="0.5" fill="#aaffff" cx="326.0" cy="434.0" r="1.0"/>
     <text stroke="none" x="326.0" y="434.0" font-size="10.0" font-family="helvetica">NT1.8</text>
    </g>
    <g>
     <circle stroke="black" stroke-width="0.5" fill="#aaffff" cx="328.0" cy="541.0" r="1.0"/>
     <text stroke="none" x="328.0" y="541.0" font-size="10.0" font-family="helvetica">NT1.9</text>
    </g>
    <g>
     <circle stroke="black" stroke-width="0.5" fill="#aaffff" cx="422.0" cy="152.0" r="1.0"/>
     <text stroke="none" x="422.0" y="152.0" font-size="10.0" font-family="helvetica">NT1.10</text>
    </g>
    <g>
     <circle stroke="black" stroke-width="0.5" fill="#aaffff" cx="422.0" cy="292.0" r="1.0"/>
     <text stroke="none" x="422.0" y="292.0" font-size="10.0" font-family="helvetica">NT1.11</text>
    </g>
    <g>
     <circle stroke="black" stroke-width="0.5" fill="#aaffff" cx="426.0" cy="253.0" r="1.0"/>
     <text stroke="none" x="426.0" y="253.0" font-size="10.0" font-family="helvetica">NT1.12</text>
    </g>
    <g>
     <circle stroke="black" stroke-width="0.5" fill="#aaffff" cx="453.0" cy="597.0" r="1.0"/>
     <text stroke="none" x="453.0" y="597.0" font-size="20.0" font-family="helvetica">Haliscomenobacter hydrossis ATCC 27775T (M58790)</text>
    </g>
    <g>
     <circle stroke="black" stroke-width="0.5" fill="#aaffff" cx="458.0" cy="334.0" r="1.0"/>
     <text stroke="none" x="458.0" y="334.0" font-size="10.0" font-family="helvetica">NT1.14</text>
    </g>
    <g>
     <circle stroke="black" stroke-width="0.5" fill="#aaffff" cx="463.0" cy="104.0" r="1.0"/>
     <text stroke="none" x="463.0" y="104.0" font-size="10.0" font-family="helvetica">NT1.15</text>
    </g>
    <g>
     <circle stroke="black" stroke-width="0.5" fill="#aaffff" cx="476.0" cy="143.0" r="1.0"/>
     <text stroke="none" x="476.0" y="143.0" font-size="10.0" font-family="helvetica">NT1.16</text>
    </g>
    <g>
     <circle stroke="black" stroke-width="0.5" fill="#aaffff" cx="480.0" cy="63.0" r="1.0"/>
     <text stroke="none" x="480.0" y="63.0" font-size="20.0" font-family="helvetica">74</text>
    </g>
    <g>
     <circle stroke="black" stroke-width="0.5" fill="#aaffff" cx="493.0" cy="361.0" r="1.0"/>
     <text stroke="none" x="493.0" y="361.0" font-size="10.0" font-family="helvetica">NT1.18</text>
    </g>
    <g>
     <circle stroke="black" stroke-width="0.5" fill="#aaffff" cx="512.0" cy="271.0" r="1.0"/>
     <text stroke="none" x="512.0" y="271.0" font-size="10.0" font-family="helvetica">NT1.19</text>
    </g>
    <g>
     <circle stroke="black" stroke-width="0.5" fill="#aaffff" cx="512.0" cy="669.0" r="1.0"/>
     <text stroke="none" x="512.0" y="669.0" font-size="10.0" font-family="helvetica">NT1.20</text>
    </g>
    <g>
     <circle stroke="black" stroke-width="0.5" fill="#aaffff" cx="529.0" cy="89.0" r="1.0"/>
     <text stroke="none" x="529.0" y="89.0" font-size="20.0" font-family="helvetica">Uncultured bacterium clone E26 (AM085477)</text>
    </g>
    <g>
     <circle stroke="black" stroke-width="0.5" fill="#aaffff" cx="538.0" cy="307.0" r="1.0"/>
     <text stroke="none" x="538.0" y="307.0" font-size="20.0" font-family="helvetica">Flexibacter sancti IFO 15057T (AB078066)</text>
    </g>
    <g>
     <circle stroke="black" stroke-width="0.5" fill="#aaffff" cx="538.0" cy="380.0" r="1.0"/>
     <text stroke="none" x="538.0" y="380.0" font-size="10.0" font-family="helvetica">NT1.23</text>
    </g>
    <g>
     <circle stroke="black" stroke-width="0.5" fill="#aaffff" cx="540.0" cy="36.0" r="1.0"/>
     <text stroke="none" x="540.0" y="36.0" font-size="20.0" font-family="helvetica">100</text>
    </g>
    <g>
     <circle stroke="black" stroke-width="0.5" fill="#aaffff" cx="543.0" cy="234.0" r="1.0"/>
     <text stroke="none" x="543.0" y="234.0" font-size="20.0" font-family="helvetica">Cytophaga arvensicola IAM 12650T (D12657)</text>
    </g>
    <g>
     <circle stroke="black" stroke-width="0.5" fill="#aaffff" cx="544.0" cy="125.0" r="1.0"/>
     <text stroke="none" x="544.0" y="125.0" font-size="20.0" font-family="helvetica">Uncultured bacterium AKlW428 (DQ129288)</text>
    </g>
    <g>
     <circle stroke="black" stroke-width="0.5" fill="#aaffff" cx="561.0" cy="17.0" r="1.0"/>
     <text stroke="none" x="561.0" y="17.0" font-size="10.0" font-family="helvetica">NT1.27</text>
    </g>
    <g>
     <circle stroke="black" stroke-width="0.5" fill="#aaffff" cx="566.0" cy="54.0" r="1.0"/>
     <text stroke="none" x="566.0" y="54.0" font-size="10.0" font-family="helvetica">NT1.28</text>
    </g>
    <g>
     <circle stroke="black" stroke-width="0.5" fill="#aaffff" cx="566.0" cy="633.0" r="1.0"/>
     <text stroke="none" x="566.0" y="633.0" font-size="20.0" font-family="helvetica"> Lewinella cohaerens ATCC 231237 (AFO39292)</text>
    </g>
    <g>
     <circle stroke="black" stroke-width="0.5" fill="#aaffff" cx="573.0" cy="198.0" r="1.0"/>
     <text stroke="none" x="573.0" y="198.0" font-size="20.0" font-family="helvetica">Terrimonas ferruginea ATCC 135247 (M62798)</text>
    </g>
    <g>
     <circle stroke="black" stroke-width="0.5" fill="#aaffff" cx="578.0" cy="343.0" r="1.0"/>
     <text stroke="none" x="578.0" y="343.0" font-size="20.0" font-family="helvetica">Chitinophaga pinensis ACM 20347 (AFO78775)</text>
    </g>
    <g>
     <circle stroke="black" stroke-width="0.5" fill="#aaffff" cx="582.0" cy="524.0" r="1.0"/>
     <text stroke="none" x="582.0" y="524.0" font-size="20.0" font-family="helvetica">Cytophaga hutchinsonii ATCC 334067 (M58768)</text>
    </g>
    <g>
     <circle stroke="black" stroke-width="0.5" fill="#aaffff" cx="586.0" cy="162.0" r="1.0"/>
     <text stroke="none" x="586.0" y="162.0" font-size="10.0" font-family="helvetica">NT1.33</text>
    </g>
    <g>
     <circle stroke="black" stroke-width="0.5" fill="#aaffff" cx="607.0" cy="415.0" r="1.0"/>
     <text stroke="none" x="607.0" y="415.0" font-size="20.0" font-family="helvetica">Empedobacter brevis ATCC 14234 (M59052)</text>
    </g>
    <g>
     <circle stroke="black" stroke-width="0.5" fill="#aaffff" cx="609.0" cy="452.0" r="1.0"/>
     <text stroke="none" x="609.0" y="452.0" font-size="20.0" font-family="helvetica">Flavobacterium aquatile ATCC 11947T (M62797)</text>
    </g>
    <g>
     <circle stroke="black" stroke-width="0.5" fill="#aaffff" cx="645.0" cy="560.0" r="1.0"/>
     <text stroke="none" x="645.0" y="560.0" font-size="20.0" font-family="helvetica">Flexibacter flexilis IFO 15060T (AB078050)</text>
    </g>
    <g>
     <circle stroke="black" stroke-width="0.5" fill="#aaffff" cx="663.0" cy="488.0" r="1.0"/>
     <text stroke="none" x="663.0" y="488.0" font-size="10.0" font-family="helvetica">NT1.37</text>
    </g>
    <g>
     <circle stroke="black" stroke-width="0.5" fill="#aaffff" cx="663.0" cy="706.0" r="1.0"/>
     <text stroke="none" x="663.0" y="706.0" font-size="10.0" font-family="helvetica">NT1.38</text>
    </g>
    <g>
     <circle stroke="black" stroke-width="0.5" fill="#aaffff" cx="5.0" cy="596.0" r="1.0"/>
     <text stroke="none" x="5.0" y="596.0" font-size="10.0" font-family="helvetica">NT1.39</text>
    </g>
    <line stroke="black" x1="529.0" y1="89.0" x2="480.0" y2="63.0" stroke-width="0.5"/>
    <line stroke="black" x1="544.0" y1="125.0" x2="476.0" y2="143.0" stroke-width="0.5"/>
    <line stroke="black" x1="573.0" y1="198.0" x2="422.0" y2="152.0" stroke-width="0.5"/>
    <line stroke="black" x1="538.0" y1="307.0" x2="458.0" y2="334.0" stroke-width="0.5"/>
    <line stroke="black" x1="578.0" y1="343.0" x2="493.0" y2="361.0" stroke-width="0.5"/>
    <line stroke="black" x1="453.0" y1="597.0" x2="196.0" y2="623.0" stroke-width="0.5"/>
    <line stroke="black" x1="607.0" y1="415.0" x2="326.0" y2="434.0" stroke-width="0.5"/>
    <line stroke="black" x1="609.0" y1="452.0" x2="326.0" y2="434.0" stroke-width="0.5"/>
    <line stroke="black" x1="645.0" y1="560.0" x2="328.0" y2="541.0" stroke-width="0.5"/>
    <line stroke="black" x1="566.0" y1="633.0" x2="231.0" y2="651.0" stroke-width="0.5"/>
    <line stroke="black" x1="463.0" y1="104.0" x2="422.0" y2="152.0" stroke-width="0.5"/>
    <line stroke="black" x1="422.0" y1="152.0" x2="306.0" y2="223.0" stroke-width="0.5"/>
    <line stroke="black" x1="306.0" y1="223.0" x2="422.0" y2="292.0" stroke-width="0.5"/>
    <line stroke="black" x1="306.0" y1="223.0" x2="132.0" y2="350.0" stroke-width="0.5"/>
    <line stroke="black" x1="422.0" y1="292.0" x2="458.0" y2="334.0" stroke-width="0.5"/>
    <line stroke="black" x1="132.0" y1="350.0" x2="122.0" y2="487.0" stroke-width="0.5"/>
    <line stroke="black" x1="132.0" y1="350.0" x2="171.0" y2="474.0" stroke-width="0.5"/>
    <line stroke="black" x1="122.0" y1="487.0" x2="196.0" y2="623.0" stroke-width="0.5"/>
    <line stroke="black" x1="171.0" y1="474.0" x2="326.0" y2="434.0" stroke-width="0.5"/>
    <line stroke="black" x1="196.0" y1="514.0" x2="328.0" y2="541.0" stroke-width="0.5"/>
    <line stroke="black" x1="5.0" y1="596.0" x2="122.0" y2="487.0" stroke-width="0.5"/>
    <line stroke="black" x1="582.0" y1="524.0" x2="328.0" y2="541.0" stroke-width="0.5"/>
    <line stroke="black" x1="543.0" y1="234.0" x2="426.0" y2="253.0" stroke-width="0.5"/>
   </g>
  </g>
 </svg>
</svg>
