<?xml version="1.0" encoding="UTF-8"?>
<svg height="800.0" width="700.0" xmlns="http://www.w3.org/2000/svg">
 <svg>
  <g>
   <g>
    <g>
     <circle stroke="black" stroke-width="0.5" fill="#aaffff" cx="2.0" cy="354.0" r="1.0"/>
     <text stroke="none" x="2.0" y="354.0" font-size="20.0" font-family="helvetica"/>
    </g>
    <g>
     <circle stroke="black" stroke-width="0.5" fill="#aaffff" cx="31.0" cy="354.0" r="1.0"/>
     <text stroke="none" x="31.0" y="354.0" font-size="10.0" font-family="helvetica">NT1.2</text>
    </g>
    <g>
     <circle stroke="black" stroke-width="0.5" fill="#aaffff" cx="38.0" cy="269.0" r="1.0"/>
     <text stroke="none" x="38.0" y="269.0" font-size="10.0" font-family="helvetica">NT1.3</text>
    </g>
    <g>
     <circle stroke="black" stroke-width="0.5" fill="#aaffff" cx="65.0" cy="190.0" r="1.0"/>
     <text stroke="none" x="65.0" y="190.0" font-size="10.0" font-family="helvetica">NT1.4</text>
    </g>
    <g>
     <circle stroke="black" stroke-width="0.5" fill="#aaffff" cx="73.0" cy="343.0" r="1.0"/>
     <text stroke="none" x="73.0" y="343.0" font-size="10.0" font-family="helvetica">NT1.5</text>
    </g>
    <g>
     <circle stroke="black" stroke-width="0.5" fill="#aaffff" cx="94.0" cy="310.0" r="1.0"/>
     <text stroke="none" x="94.0" y="310.0" font-size="10.0" font-family="helvetica">NT1.6</text>
    </g>
    <g>
     <circle stroke="black" stroke-width="0.5" fill="#aaffff" cx="99.0" cy="135.0" r="1.0"/>
     <text stroke="none" x="99.0" y="135.0" font-size="10.0" font-family="helvetica">NT1.7</text>
    </g>
    <g>
     <circle stroke="black" stroke-width="0.5" fill="#aaffff" cx="149.0" cy="168.0" r="1.0"/>
     <text stroke="none" x="149.0" y="168.0" font-size="10.0" font-family="helvetica">NT1.8</text>
    </g>
    <g>
     <circle stroke="black" stroke-width="0.5" fill="#aaffff" cx="168.0" cy="377.0" r="1.0"/>
     <text stroke="none" x="168.0" y="377.0" font-size="10.0" font-family="helvetica">NT1.9</text>
    </g>
    <g>
     <circle stroke="black" stroke-width="0.5" fill="#aaffff" cx="173.0" cy="237.0" r="1.0"/>
     <text stroke="none" x="173.0" y="237.0" font-size="10.0" font-family="helvetica">NT1.10</text>
    </g>
    <g>
     <circle stroke="black" stroke-width="0.5" fill="#aaffff" cx="189.0" cy="95.0" r="1.0"/>
     <text stroke="none" x="189.0" y="95.0" font-size="10.0" font-family="helvetica">NT1.11</text>
    </g>
    <g>
     <circle stroke="black" stroke-width="0.5" fill="#aaffff" cx="199.0" cy="64.0" r="1.0"/>
     <text stroke="none" x="199.0" y="64.0" font-size="10.0" font-family="helvetica">NT1.12</text>
    </g>
    <g>
     <circle stroke="black" stroke-width="0.5" fill="#aaffff" cx="207.0" cy="326.0" r="1.0"/>
     <text stroke="none" x="207.0" y="326.0" font-size="20.0" font-family="helvetica">Methanollnea tarda NOBl'-1.7 (AB162774)</text>
    </g>
    <g>
     <circle stroke="black" stroke-width="0.5" fill="#aaffff" cx="210.0" cy="35.0" r="1.0"/>
     <text stroke="none" x="210.0" y="35.0" font-size="10.0" font-family="helvetica">NT1.14</text>
    </g>
    <g>
     <circle stroke="black" stroke-width="0.5" fill="#aaffff" cx="221.0" cy="290.0" r="1.0"/>
     <text stroke="none" x="221.0" y="290.0" font-size="10.0" font-family="helvetica">NT1.15</text>
    </g>
    <g>
     <circle stroke="black" stroke-width="0.5" fill="#aaffff" cx="245.0" cy="396.0" r="1.0"/>
     <text stroke="none" x="245.0" y="396.0" font-size="10.0" font-family="helvetica">NT1.16</text>
    </g>
    <g>
     <circle stroke="black" stroke-width="0.5" fill="#aaffff" cx="253.0" cy="359.0" r="1.0"/>
     <text stroke="none" x="253.0" y="359.0" font-size="20.0" font-family="helvetica">Methanoregula formlclca SMSPT (AB479390)</text>
    </g>
    <g>
     <circle stroke="black" stroke-width="0.5" fill="#aaffff" cx="308.0" cy="431.0" r="1.0"/>
     <text stroke="none" x="308.0" y="431.0" font-size="10.0" font-family="helvetica">NT1.18</text>
    </g>
    <g>
     <circle stroke="black" stroke-width="0.5" fill="#aaffff" cx="324.0" cy="119.0" r="1.0"/>
     <text stroke="none" x="324.0" y="119.0" font-size="10.0" font-family="helvetica">NT1.19</text>
    </g>
    <g>
     <circle stroke="black" stroke-width="0.5" fill="#aaffff" cx="327.0" cy="16.0" r="1.0"/>
     <text stroke="none" x="327.0" y="16.0" font-size="10.0" font-family="helvetica">NT1.20</text>
    </g>
    <g>
     <circle stroke="black" stroke-width="0.5" fill="#aaffff" cx="332.0" cy="85.0" r="1.0"/>
     <text stroke="none" x="332.0" y="85.0" font-size="20.0" font-family="helvetica">Methanoplanus limicola DSM 2279T (M59143)</text>
    </g>
    <g>
     <circle stroke="black" stroke-width="0.5" fill="#aaffff" cx="350.0" cy="221.0" r="1.0"/>
     <text stroke="none" x="350.0" y="221.0" font-size="20.0" font-family="helvetica">Methanocalculus halotolerans SEBR 4845T (AF033672)</text>
    </g>
    <g>
     <circle stroke="black" stroke-width="0.5" fill="#aaffff" cx="364.0" cy="188.0" r="1.0"/>
     <text stroke="none" x="364.0" y="188.0" font-size="20.0" font-family="helvetica">Methanofollis tationis DSM 2702T (AFO95272)</text>
    </g>
    <g>
     <circle stroke="black" stroke-width="0.5" fill="#aaffff" cx="377.0" cy="153.0" r="1.0"/>
     <text stroke="none" x="377.0" y="153.0" font-size="10.0" font-family="helvetica">NT1.24</text>
    </g>
    <g>
     <circle stroke="black" stroke-width="0.5" fill="#aaffff" cx="385.0" cy="50.0" r="1.0"/>
     <text stroke="none" x="385.0" y="50.0" font-size="10.0" font-family="helvetica">NT1.25</text>
    </g>
    <g>
     <circle stroke="black" stroke-width="0.5" fill="#aaffff" cx="536.0" cy="257.0" r="1.0"/>
     <text stroke="none" x="536.0" y="257.0" font-size="10.0" font-family="helvetica">NT1.26</text>
    </g>
    <line stroke="black" x1="332.0" y1="85.0" x2="199.0" y2="64.0" stroke-width="0.5"/>
    <line stroke="black" x1="364.0" y1="188.0" x2="149.0" y2="168.0" stroke-width="0.5"/>
    <line stroke="black" x1="350.0" y1="221.0" x2="173.0" y2="237.0" stroke-width="0.5"/>
    <line stroke="black" x1="207.0" y1="326.0" x2="94.0" y2="310.0" stroke-width="0.5"/>
    <line stroke="black" x1="253.0" y1="359.0" x2="168.0" y2="377.0" stroke-width="0.5"/>
    <line stroke="black" x1="99.0" y1="135.0" x2="65.0" y2="190.0" stroke-width="0.5"/>
    <line stroke="black" x1="65.0" y1="190.0" x2="38.0" y2="269.0" stroke-width="0.5"/>
    <line stroke="black" x1="38.0" y1="269.0" x2="31.0" y2="354.0" stroke-width="0.5"/>
    <line stroke="black" x1="38.0" y1="269.0" x2="73.0" y2="343.0" stroke-width="0.5"/>
   </g>
  </g>
 </svg>
</svg>
