<?xml version="1.0" encoding="UTF-8"?>
<svg height="800.0" width="700.0" xmlns="http://www.w3.org/2000/svg">
 <svg>
  <g>
   <g>
    <g>
     <circle stroke="black" stroke-width="0.5" fill="#aaffff" cx="454.0" cy="752.0" r="1.0"/>
     <text stroke="none" x="454.0" y="752.0" font-size="10.0" font-family="helvetica">NT1.1</text>
    </g>
    <g>
     <circle stroke="black" stroke-width="0.5" fill="#aaffff" cx="519.0" cy="1254.0" r="1.0"/>
     <text stroke="none" x="519.0" y="1254.0" font-size="10.0" font-family="helvetica">NT1.2</text>
    </g>
    <g>
     <circle stroke="black" stroke-width="0.5" fill="#aaffff" cx="541.0" cy="590.0" r="1.0"/>
     <text stroke="none" x="541.0" y="590.0" font-size="10.0" font-family="helvetica">NT1.3</text>
    </g>
    <g>
     <circle stroke="black" stroke-width="0.5" fill="#aaffff" cx="587.0" cy="392.0" r="1.0"/>
     <text stroke="none" x="587.0" y="392.0" font-size="10.0" font-family="helvetica">NT1.4</text>
    </g>
    <g>
     <circle stroke="black" stroke-width="0.5" fill="#aaffff" cx="601.0" cy="307.0" r="1.0"/>
     <text stroke="none" x="601.0" y="307.0" font-size="10.0" font-family="helvetica">NT1.5</text>
    </g>
    <g>
     <circle stroke="black" stroke-width="0.5" fill="#aaffff" cx="606.0" cy="1300.0" r="1.0"/>
     <text stroke="none" x="606.0" y="1300.0" font-size="10.0" font-family="helvetica">NT1.6</text>
    </g>
    <g>
     <circle stroke="black" stroke-width="0.5" fill="#aaffff" cx="624.0" cy="1352.0" r="1.0"/>
     <text stroke="none" x="624.0" y="1352.0" font-size="10.0" font-family="helvetica">NT1.7</text>
    </g>
    <g>
     <circle stroke="black" stroke-width="0.5" fill="#aaffff" cx="625.0" cy="474.0" r="1.0"/>
     <text stroke="none" x="625.0" y="474.0" font-size="10.0" font-family="helvetica">NT1.8</text>
    </g>
    <g>
     <circle stroke="black" stroke-width="0.5" fill="#aaffff" cx="638.0" cy="252.0" r="1.0"/>
     <text stroke="none" x="638.0" y="252.0" font-size="10.0" font-family="helvetica">NT1.9</text>
    </g>
    <g>
     <circle stroke="black" stroke-width="0.5" fill="#aaffff" cx="638.0" cy="1397.0" r="1.0"/>
     <text stroke="none" x="638.0" y="1397.0" font-size="10.0" font-family="helvetica">NT1.10</text>
    </g>
    <g>
     <circle stroke="black" stroke-width="0.5" fill="#aaffff" cx="642.0" cy="422.0" r="1.0"/>
     <text stroke="none" x="642.0" y="422.0" font-size="10.0" font-family="helvetica">NT1.11</text>
    </g>
    <g>
     <circle stroke="black" stroke-width="0.5" fill="#aaffff" cx="643.0" cy="1364.0" r="1.0"/>
     <text stroke="none" x="643.0" y="1364.0" font-size="20.0" font-family="helvetica">Rhizobium etli bv. mimosae Mim-1 (DQ648573)</text>
    </g>
    <g>
     <circle stroke="black" stroke-width="0.5" fill="#aaffff" cx="645.0" cy="1461.0" r="1.0"/>
     <text stroke="none" x="645.0" y="1461.0" font-size="10.0" font-family="helvetica">NT1.13</text>
    </g>
    <g>
     <circle stroke="black" stroke-width="0.5" fill="#aaffff" cx="647.0" cy="787.0" r="1.0"/>
     <text stroke="none" x="647.0" y="787.0" font-size="20.0" font-family="helvetica">Burkholderia cepacia ATCC 2541 6T (AFO97530)</text>
    </g>
    <g>
     <circle stroke="black" stroke-width="0.5" fill="#aaffff" cx="650.0" cy="1308.0" r="1.0"/>
     <text stroke="none" x="650.0" y="1308.0" font-size="10.0" font-family="helvetica">NT1.15</text>
    </g>
    <g>
     <circle stroke="black" stroke-width="0.5" fill="#aaffff" cx="654.0" cy="177.0" r="1.0"/>
     <text stroke="none" x="654.0" y="177.0" font-size="10.0" font-family="helvetica">NT1.16</text>
    </g>
    <g>
     <circle stroke="black" stroke-width="0.5" fill="#aaffff" cx="656.0" cy="529.0" r="1.0"/>
     <text stroke="none" x="656.0" y="529.0" font-size="10.0" font-family="helvetica">NT1.17</text>
    </g>
    <g>
     <circle stroke="black" stroke-width="0.5" fill="#aaffff" cx="658.0" cy="325.0" r="1.0"/>
     <text stroke="none" x="658.0" y="325.0" font-size="20.0" font-family="helvetica">Burkholderia sabiae Br34O7T (AY773186)</text>
    </g>
    <g>
     <circle stroke="black" stroke-width="0.5" fill="#aaffff" cx="661.0" cy="105.0" r="1.0"/>
     <text stroke="none" x="661.0" y="105.0" font-size="10.0" font-family="helvetica">NT1.19</text>
    </g>
    <g>
     <circle stroke="black" stroke-width="0.5" fill="#aaffff" cx="664.0" cy="287.0" r="1.0"/>
     <text stroke="none" x="664.0" y="287.0" font-size="20.0" font-family="helvetica">Burkholderia sp. SWF66286 (FJ648702) FRNA We "</text>
    </g>
    <g>
     <circle stroke="black" stroke-width="0.5" fill="#aaffff" cx="664.0" cy="247.0" r="1.0"/>
     <text stroke="none" x="664.0" y="247.0" font-size="10.0" font-family="helvetica">NT1.21</text>
    </g>
    <g>
     <circle stroke="black" stroke-width="0.5" fill="#aaffff" cx="664.0" cy="912.0" r="1.0"/>
     <text stroke="none" x="664.0" y="912.0" font-size="10.0" font-family="helvetica">NT1.22</text>
    </g>
    <g>
     <circle stroke="black" stroke-width="0.5" fill="#aaffff" cx="666.0" cy="1442.0" r="1.0"/>
     <text stroke="none" x="666.0" y="1442.0" font-size="20.0" font-family="helvetica">Rhizobium etliTJ1 67 (AJ505296)</text>
    </g>
    <g>
     <circle stroke="black" stroke-width="0.5" fill="#aaffff" cx="668.0" cy="95.0" r="1.0"/>
     <text stroke="none" x="668.0" y="95.0" font-size="20.0" font-family="helvetica">Burkholderia sp. SWF66044 (FJ648692) rRNA type II</text>
    </g>
    <g>
     <circle stroke="black" stroke-width="0.5" fill="#aaffff" cx="669.0" cy="209.0" r="1.0"/>
     <text stroke="none" x="669.0" y="209.0" font-size="20.0" font-family="helvetica">Burkholderia phymatum STM815T(AJ3O2312)</text>
    </g>
    <g>
     <circle stroke="black" stroke-width="0.5" fill="#aaffff" cx="669.0" cy="55.0" r="1.0"/>
     <text stroke="none" x="669.0" y="55.0" font-size="10.0" font-family="helvetica">NT1.26</text>
    </g>
    <g>
     <circle stroke="black" stroke-width="0.5" fill="#aaffff" cx="671.0" cy="150.0" r="1.0"/>
     <text stroke="none" x="671.0" y="150.0" font-size="10.0" font-family="helvetica">NT1.27</text>
    </g>
    <g>
     <circle stroke="black" stroke-width="0.5" fill="#aaffff" cx="678.0" cy="1001.0" r="1.0"/>
     <text stroke="none" x="678.0" y="1001.0" font-size="10.0" font-family="helvetica">NT1.28</text>
    </g>
    <g>
     <circle stroke="black" stroke-width="0.5" fill="#aaffff" cx="679.0" cy="16.0" r="1.0"/>
     <text stroke="none" x="679.0" y="16.0" font-size="20.0" font-family="helvetica">Burkholderia caribensis MWAP64T (Y1 7009)</text>
    </g>
    <g>
     <circle stroke="black" stroke-width="0.5" fill="#aaffff" cx="679.0" cy="579.0" r="1.0"/>
     <text stroke="none" x="679.0" y="579.0" font-size="10.0" font-family="helvetica">NT1.30</text>
    </g>
    <g>
     <circle stroke="black" stroke-width="0.5" fill="#aaffff" cx="681.0" cy="518.0" r="1.0"/>
     <text stroke="none" x="681.0" y="518.0" font-size="20.0" font-family="helvetica">Burkholderia mimosarum PAS44T (AY752958)</text>
    </g>
    <g>
     <circle stroke="black" stroke-width="0.5" fill="#aaffff" cx="682.0" cy="171.0" r="1.0"/>
     <text stroke="none" x="682.0" y="171.0" font-size="20.0" font-family="helvetica">Burkholderia terrae KMYO2T(AB2O1285)</text>
    </g>
    <g>
     <circle stroke="black" stroke-width="0.5" fill="#aaffff" cx="683.0" cy="947.0" r="1.0"/>
     <text stroke="none" x="683.0" y="947.0" font-size="10.0" font-family="helvetica">NT1.33</text>
    </g>
    <g>
     <circle stroke="black" stroke-width="0.5" fill="#aaffff" cx="684.0" cy="133.0" r="1.0"/>
     <text stroke="none" x="684.0" y="133.0" font-size="20.0" font-family="helvetica">Burkholderia hospira LMG 20598T (AYO40365)</text>
    </g>
    <g>
     <circle stroke="black" stroke-width="0.5" fill="#aaffff" cx="685.0" cy="1481.0" r="1.0"/>
     <text stroke="none" x="685.0" y="1481.0" font-size="20.0" font-family="helvetica">Rhizobium etli TJ1 73 (AJ505300)</text>
    </g>
    <g>
     <circle stroke="black" stroke-width="0.5" fill="#aaffff" cx="685.0" cy="641.0" r="1.0"/>
     <text stroke="none" x="685.0" y="641.0" font-size="10.0" font-family="helvetica">NT1.36</text>
    </g>
    <g>
     <circle stroke="black" stroke-width="0.5" fill="#aaffff" cx="685.0" cy="1055.0" r="1.0"/>
     <text stroke="none" x="685.0" y="1055.0" font-size="10.0" font-family="helvetica">NT1.37</text>
    </g>
    <g>
     <circle stroke="black" stroke-width="0.5" fill="#aaffff" cx="686.0" cy="555.0" r="1.0"/>
     <text stroke="none" x="686.0" y="555.0" font-size="20.0" font-family="helvetica">Burkholderia sp. CCBAU 651863 (DQ202336)</text>
    </g>
    <g>
     <circle stroke="black" stroke-width="0.5" fill="#aaffff" cx="687.0" cy="363.0" r="1.0"/>
     <text stroke="none" x="687.0" y="363.0" font-size="20.0" font-family="helvetica">Burkholderia tuberum STM678T (AJ30231 1)</text>
    </g>
    <g>
     <circle stroke="black" stroke-width="0.5" fill="#aaffff" cx="688.0" cy="671.0" r="1.0"/>
     <text stroke="none" x="688.0" y="671.0" font-size="10.0" font-family="helvetica">NT1.40</text>
    </g>
    <g>
     <circle stroke="black" stroke-width="0.5" fill="#aaffff" cx="689.0" cy="1287.0" r="1.0"/>
     <text stroke="none" x="689.0" y="1287.0" font-size="20.0" font-family="helvetica">Rhizobium leguminosarum USDA 2370 (AFO63982)</text>
    </g>
    <g>
     <circle stroke="black" stroke-width="0.5" fill="#aaffff" cx="690.0" cy="825.0" r="1.0"/>
     <text stroke="none" x="690.0" y="825.0" font-size="20.0" font-family="helvetica">Cupriavidus pinatubonensis 1 245T (AB1 21 221)</text>
    </g>
    <g>
     <circle stroke="black" stroke-width="0.5" fill="#aaffff" cx="692.0" cy="671.0" r="1.0"/>
     <text stroke="none" x="692.0" y="671.0" font-size="20.0" font-family="helvetica">Burkholderia sp. SWF66117 (FJ648696)</text>
    </g>
    <g>
     <circle stroke="black" stroke-width="0.5" fill="#aaffff" cx="692.0" cy="1094.0" r="1.0"/>
     <text stroke="none" x="692.0" y="1094.0" font-size="10.0" font-family="helvetica">NT1.44</text>
    </g>
    <g>
     <circle stroke="black" stroke-width="0.5" fill="#aaffff" cx="693.0" cy="913.0" r="1.0"/>
     <text stroke="none" x="693.0" y="913.0" font-size="10.0" font-family="helvetica">NT1.45</text>
    </g>
    <g>
     <circle stroke="black" stroke-width="0.5" fill="#aaffff" cx="694.0" cy="440.0" r="1.0"/>
     <text stroke="none" x="694.0" y="440.0" font-size="20.0" font-family="helvetica">Burkholderia nodosa Br3437T (AY773189)</text>
    </g>
    <g>
     <circle stroke="black" stroke-width="0.5" fill="#aaffff" cx="694.0" cy="729.0" r="1.0"/>
     <text stroke="none" x="694.0" y="729.0" font-size="10.0" font-family="helvetica">NT1.47</text>
    </g>
    <g>
     <circle stroke="black" stroke-width="0.5" fill="#aaffff" cx="695.0" cy="402.0" r="1.0"/>
     <text stroke="none" x="695.0" y="402.0" font-size="20.0" font-family="helvetica">Burkholderia tropica Ppe8T (AJ420332)</text>
    </g>
    <g>
     <circle stroke="black" stroke-width="0.5" fill="#aaffff" cx="695.0" cy="749.0" r="1.0"/>
     <text stroke="none" x="695.0" y="749.0" font-size="20.0" font-family="helvetica">Burkholderia sp. SWF66304 (FJ648704)</text>
    </g>
    <g>
     <circle stroke="black" stroke-width="0.5" fill="#aaffff" cx="695.0" cy="709.0" r="1.0"/>
     <text stroke="none" x="695.0" y="709.0" font-size="20.0" font-family="helvetica">Burkholderia sp. SWF66247 (FJ648701)</text>
    </g>
    <g>
     <circle stroke="black" stroke-width="0.5" fill="#aaffff" cx="695.0" cy="1096.0" r="1.0"/>
     <text stroke="none" x="695.0" y="1096.0" font-size="10.0" font-family="helvetica">NT1.51</text>
    </g>
    <g>
     <circle stroke="black" stroke-width="0.5" fill="#aaffff" cx="696.0" cy="1134.0" r="1.0"/>
     <text stroke="none" x="696.0" y="1134.0" font-size="10.0" font-family="helvetica">NT1.52</text>
    </g>
    <g>
     <circle stroke="black" stroke-width="0.5" fill="#aaffff" cx="697.0" cy="980.0" r="1.0"/>
     <text stroke="none" x="697.0" y="980.0" font-size="20.0" font-family="helvetica">Cupriavidus sp. SWF66194 (FJ648699) rRNA type IV</text>
    </g>
    <g>
     <circle stroke="black" stroke-width="0.5" fill="#aaffff" cx="697.0" cy="1056.0" r="1.0"/>
     <text stroke="none" x="697.0" y="1056.0" font-size="20.0" font-family="helvetica">Cupriavidus taiwanensis LMG 19424T (AF300324)</text>
    </g>
    <g>
     <circle stroke="black" stroke-width="0.5" fill="#aaffff" cx="702.0" cy="55.0" r="1.0"/>
     <text stroke="none" x="702.0" y="55.0" font-size="20.0" font-family="helvetica">Burkholderia sp. TJ182 (AJ505301)</text>
    </g>
    <g>
     <circle stroke="black" stroke-width="0.5" fill="#aaffff" cx="702.0" cy="941.0" r="1.0"/>
     <text stroke="none" x="702.0" y="941.0" font-size="20.0" font-family="helvetica">Cupriavidus taiwanensis LMG 19425 (AF300325)</text>
    </g>
    <g>
     <circle stroke="black" stroke-width="0.5" fill="#aaffff" cx="702.0" cy="1210.0" r="1.0"/>
     <text stroke="none" x="702.0" y="1210.0" font-size="20.0" font-family="helvetica">Rhizobium undicola LMG 1 18757 (Y1 704 7)</text>
    </g>
    <g>
     <circle stroke="black" stroke-width="0.5" fill="#aaffff" cx="704.0" cy="1095.0" r="1.0"/>
     <text stroke="none" x="704.0" y="1095.0" font-size="20.0" font-family="helvetica">Cupriavidus sp. SWF66131 (FJ648697)</text>
    </g>
    <g>
     <circle stroke="black" stroke-width="0.5" fill="#aaffff" cx="706.0" cy="479.0" r="1.0"/>
     <text stroke="none" x="706.0" y="479.0" font-size="20.0" font-family="helvetica">Burkholderia silvatlantica SRMrh-207 (AY965240)</text>
    </g>
    <g>
     <circle stroke="black" stroke-width="0.5" fill="#aaffff" cx="707.0" cy="884.0" r="1.0"/>
     <text stroke="none" x="707.0" y="884.0" font-size="10.0" font-family="helvetica">NT1.60</text>
    </g>
    <g>
     <circle stroke="black" stroke-width="0.5" fill="#aaffff" cx="708.0" cy="903.0" r="1.0"/>
     <text stroke="none" x="708.0" y="903.0" font-size="20.0" font-family="helvetica">Cupriavidus sp. SWF66294 (FJ751796) rRNA type IV</text>
    </g>
    <g>
     <circle stroke="black" stroke-width="0.5" fill="#aaffff" cx="708.0" cy="863.0" r="1.0"/>
     <text stroke="none" x="708.0" y="863.0" font-size="20.0" font-family="helvetica">Cupriavidus sp. SWF66322 (FJ648705)</text>
    </g>
    <g>
     <circle stroke="black" stroke-width="0.5" fill="#aaffff" cx="709.0" cy="1249.0" r="1.0"/>
     <text stroke="none" x="709.0" y="1249.0" font-size="20.0" font-family="helvetica">Rhizobium yanglingense CCBAU 71623T(EF457941)</text>
    </g>
    <g>
     <circle stroke="black" stroke-width="0.5" fill="#aaffff" cx="710.0" cy="1134.0" r="1.0"/>
     <text stroke="none" x="710.0" y="1134.0" font-size="20.0" font-family="helvetica">Cupriavidus sp. SWF66232 (FJ648700)</text>
    </g>
    <g>
     <circle stroke="black" stroke-width="0.5" fill="#aaffff" cx="710.0" cy="1172.0" r="1.0"/>
     <text stroke="none" x="710.0" y="1172.0" font-size="20.0" font-family="helvetica">Cupriavidus sp. SWF66166 (FJ648698)</text>
    </g>
    <g>
     <circle stroke="black" stroke-width="0.5" fill="#aaffff" cx="755.0" cy="1018.0" r="1.0"/>
     <text stroke="none" x="755.0" y="1018.0" font-size="20.0" font-family="helvetica">Cupria vidus laharis 1 263aT (ABO54961)</text>
    </g>
    <g>
     <circle stroke="black" stroke-width="0.5" fill="#aaffff" cx="755.0" cy="1326.0" r="1.0"/>
     <text stroke="none" x="755.0" y="1326.0" font-size="20.0" font-family="helvetica">Rhizobium rropici UPRM 8021 (DQ648576)</text>
    </g>
    <line stroke="black" x1="702.0" y1="55.0" x2="669.0" y2="55.0" stroke-width="0.5"/>
    <line stroke="black" x1="668.0" y1="95.0" x2="669.0" y2="55.0" stroke-width="0.5"/>
    <line stroke="black" x1="664.0" y1="287.0" x2="664.0" y2="247.0" stroke-width="0.5"/>
    <line stroke="black" x1="692.0" y1="671.0" x2="688.0" y2="671.0" stroke-width="0.5"/>
    <line stroke="black" x1="686.0" y1="555.0" x2="685.0" y2="641.0" stroke-width="0.5"/>
    <line stroke="black" x1="695.0" y1="749.0" x2="694.0" y2="729.0" stroke-width="0.5"/>
    <line stroke="black" x1="695.0" y1="709.0" x2="694.0" y2="729.0" stroke-width="0.5"/>
    <line stroke="black" x1="697.0" y1="980.0" x2="683.0" y2="947.0" stroke-width="0.5"/>
    <line stroke="black" x1="704.0" y1="1095.0" x2="695.0" y2="1096.0" stroke-width="0.5"/>
    <line stroke="black" x1="710.0" y1="1134.0" x2="696.0" y2="1134.0" stroke-width="0.5"/>
    <line stroke="black" x1="708.0" y1="903.0" x2="707.0" y2="884.0" stroke-width="0.5"/>
    <line stroke="black" x1="708.0" y1="863.0" x2="707.0" y2="884.0" stroke-width="0.5"/>
    <line stroke="black" x1="702.0" y1="1210.0" x2="519.0" y2="1254.0" stroke-width="0.5"/>
    <line stroke="black" x1="689.0" y1="1287.0" x2="650.0" y2="1308.0" stroke-width="0.5"/>
    <line stroke="black" x1="666.0" y1="1442.0" x2="645.0" y2="1461.0" stroke-width="0.5"/>
    <line stroke="black" x1="755.0" y1="1326.0" x2="650.0" y2="1308.0" stroke-width="0.5"/>
    <line stroke="black" x1="669.0" y1="55.0" x2="661.0" y2="105.0" stroke-width="0.5"/>
    <line stroke="black" x1="661.0" y1="105.0" x2="654.0" y2="177.0" stroke-width="0.5"/>
    <line stroke="black" x1="661.0" y1="105.0" x2="671.0" y2="150.0" stroke-width="0.5"/>
    <line stroke="black" x1="654.0" y1="177.0" x2="638.0" y2="252.0" stroke-width="0.5"/>
    <line stroke="black" x1="654.0" y1="177.0" x2="664.0" y2="247.0" stroke-width="0.5"/>
    <line stroke="black" x1="638.0" y1="252.0" x2="601.0" y2="307.0" stroke-width="0.5"/>
    <line stroke="black" x1="601.0" y1="307.0" x2="587.0" y2="392.0" stroke-width="0.5"/>
    <line stroke="black" x1="587.0" y1="392.0" x2="541.0" y2="590.0" stroke-width="0.5"/>
    <line stroke="black" x1="587.0" y1="392.0" x2="625.0" y2="474.0" stroke-width="0.5"/>
    <line stroke="black" x1="625.0" y1="474.0" x2="656.0" y2="529.0" stroke-width="0.5"/>
    <line stroke="black" x1="625.0" y1="474.0" x2="642.0" y2="422.0" stroke-width="0.5"/>
    <line stroke="black" x1="656.0" y1="529.0" x2="679.0" y2="579.0" stroke-width="0.5"/>
    <line stroke="black" x1="541.0" y1="590.0" x2="454.0" y2="752.0" stroke-width="0.5"/>
    <line stroke="black" x1="679.0" y1="579.0" x2="685.0" y2="641.0" stroke-width="0.5"/>
    <line stroke="black" x1="679.0" y1="579.0" x2="681.0" y2="518.0" stroke-width="0.5"/>
    <line stroke="black" x1="685.0" y1="641.0" x2="688.0" y2="671.0" stroke-width="0.5"/>
    <line stroke="black" x1="688.0" y1="671.0" x2="694.0" y2="729.0" stroke-width="0.5"/>
    <line stroke="black" x1="454.0" y1="752.0" x2="664.0" y2="912.0" stroke-width="0.5"/>
    <line stroke="black" x1="664.0" y1="912.0" x2="678.0" y2="1001.0" stroke-width="0.5"/>
    <line stroke="black" x1="678.0" y1="1001.0" x2="685.0" y2="1055.0" stroke-width="0.5"/>
    <line stroke="black" x1="678.0" y1="1001.0" x2="683.0" y2="947.0" stroke-width="0.5"/>
    <line stroke="black" x1="683.0" y1="947.0" x2="693.0" y2="913.0" stroke-width="0.5"/>
    <line stroke="black" x1="685.0" y1="1055.0" x2="692.0" y2="1094.0" stroke-width="0.5"/>
    <line stroke="black" x1="693.0" y1="913.0" x2="707.0" y2="884.0" stroke-width="0.5"/>
    <line stroke="black" x1="692.0" y1="1094.0" x2="695.0" y2="1096.0" stroke-width="0.5"/>
    <line stroke="black" x1="695.0" y1="1096.0" x2="696.0" y2="1134.0" stroke-width="0.5"/>
    <line stroke="black" x1="519.0" y1="1254.0" x2="606.0" y2="1300.0" stroke-width="0.5"/>
    <line stroke="black" x1="606.0" y1="1300.0" x2="624.0" y2="1352.0" stroke-width="0.5"/>
    <line stroke="black" x1="624.0" y1="1352.0" x2="638.0" y2="1397.0" stroke-width="0.5"/>
    <line stroke="black" x1="624.0" y1="1352.0" x2="650.0" y2="1308.0" stroke-width="0.5"/>
    <line stroke="black" x1="454.0" y1="752.0" x2="519.0" y2="1254.0" stroke-width="0.5"/>
    <line stroke="black" x1="647.0" y1="787.0" x2="541.0" y2="590.0" stroke-width="0.5"/>
    <line stroke="black" x1="687.0" y1="363.0" x2="601.0" y2="307.0" stroke-width="0.5"/>
    <line stroke="black" x1="643.0" y1="1364.0" x2="638.0" y2="1397.0" stroke-width="0.5"/>
    <line stroke="black" x1="709.0" y1="1249.0" x2="606.0" y2="1300.0" stroke-width="0.5"/>
    <line stroke="black" x1="638.0" y1="1397.0" x2="645.0" y2="1461.0" stroke-width="0.5"/>
    <line stroke="black" x1="658.0" y1="325.0" x2="638.0" y2="252.0" stroke-width="0.5"/>
    <line stroke="black" x1="685.0" y1="1481.0" x2="645.0" y2="1461.0" stroke-width="0.5"/>
    <line stroke="black" x1="694.0" y1="440.0" x2="642.0" y2="422.0" stroke-width="0.5"/>
    <line stroke="black" x1="695.0" y1="402.0" x2="642.0" y2="422.0" stroke-width="0.5"/>
    <line stroke="black" x1="669.0" y1="209.0" x2="664.0" y2="247.0" stroke-width="0.5"/>
    <line stroke="black" x1="706.0" y1="479.0" x2="656.0" y2="529.0" stroke-width="0.5"/>
    <line stroke="black" x1="690.0" y1="825.0" x2="664.0" y2="912.0" stroke-width="0.5"/>
    <line stroke="black" x1="679.0" y1="16.0" x2="669.0" y2="55.0" stroke-width="0.5"/>
    <line stroke="black" x1="682.0" y1="171.0" x2="671.0" y2="150.0" stroke-width="0.5"/>
    <line stroke="black" x1="684.0" y1="133.0" x2="671.0" y2="150.0" stroke-width="0.5"/>
    <line stroke="black" x1="697.0" y1="1056.0" x2="692.0" y2="1094.0" stroke-width="0.5"/>
    <line stroke="black" x1="702.0" y1="941.0" x2="693.0" y2="913.0" stroke-width="0.5"/>
    <line stroke="black" x1="710.0" y1="1172.0" x2="696.0" y2="1134.0" stroke-width="0.5"/>
    <line stroke="black" x1="755.0" y1="1018.0" x2="685.0" y2="1055.0" stroke-width="0.5"/>
   </g>
  </g>
 </svg>
</svg>
