<?xml version="1.0" encoding="UTF-8"?>
<svg height="800.0" width="700.0" xmlns="http://www.w3.org/2000/svg">
 <svg>
  <g>
   <g>
    <g>
     <circle stroke="black" stroke-width="0.5" fill="#aaffff" cx="4.0" cy="1045.0" r="1.0"/>
     <text stroke="none" x="4.0" y="1045.0" font-size="20.0" font-family="helvetica"/>
    </g>
    <g>
     <circle stroke="black" stroke-width="0.5" fill="#aaffff" cx="18.0" cy="1052.0" r="1.0"/>
     <text stroke="none" x="18.0" y="1052.0" font-size="10.0" font-family="helvetica">NT1.2</text>
    </g>
    <g>
     <circle stroke="black" stroke-width="0.5" fill="#aaffff" cx="19.0" cy="1037.0" r="1.0"/>
     <text stroke="none" x="19.0" y="1037.0" font-size="10.0" font-family="helvetica">NT1.3</text>
    </g>
    <g>
     <circle stroke="black" stroke-width="0.5" fill="#aaffff" cx="114.0" cy="1006.0" r="1.0"/>
     <text stroke="none" x="114.0" y="1006.0" font-size="10.0" font-family="helvetica">NT1.4</text>
    </g>
    <g>
     <circle stroke="black" stroke-width="0.5" fill="#aaffff" cx="160.0" cy="876.0" r="1.0"/>
     <text stroke="none" x="160.0" y="876.0" font-size="10.0" font-family="helvetica">NT1.5</text>
    </g>
    <g>
     <circle stroke="black" stroke-width="0.5" fill="#aaffff" cx="183.0" cy="1087.0" r="1.0"/>
     <text stroke="none" x="183.0" y="1087.0" font-size="10.0" font-family="helvetica">NT1.6</text>
    </g>
    <g>
     <circle stroke="black" stroke-width="0.5" fill="#aaffff" cx="197.0" cy="548.0" r="1.0"/>
     <text stroke="none" x="197.0" y="548.0" font-size="10.0" font-family="helvetica">NT1.7</text>
    </g>
    <g>
     <circle stroke="black" stroke-width="0.5" fill="#aaffff" cx="200.0" cy="719.0" r="1.0"/>
     <text stroke="none" x="200.0" y="719.0" font-size="10.0" font-family="helvetica">NT1.8</text>
    </g>
    <g>
     <circle stroke="black" stroke-width="0.5" fill="#aaffff" cx="209.0" cy="715.0" r="1.0"/>
     <text stroke="none" x="209.0" y="715.0" font-size="10.0" font-family="helvetica">NT1.9</text>
    </g>
    <g>
     <circle stroke="black" stroke-width="0.5" fill="#aaffff" cx="209.0" cy="717.0" r="1.0"/>
     <text stroke="none" x="209.0" y="717.0" font-size="10.0" font-family="helvetica">NT1.10</text>
    </g>
    <g>
     <circle stroke="black" stroke-width="0.5" fill="#aaffff" cx="239.0" cy="294.0" r="1.0"/>
     <text stroke="none" x="239.0" y="294.0" font-size="10.0" font-family="helvetica">NT1.11</text>
    </g>
    <g>
     <circle stroke="black" stroke-width="0.5" fill="#aaffff" cx="251.0" cy="891.0" r="1.0"/>
     <text stroke="none" x="251.0" y="891.0" font-size="10.0" font-family="helvetica">NT1.12</text>
    </g>
    <g>
     <circle stroke="black" stroke-width="0.5" fill="#aaffff" cx="264.0" cy="440.0" r="1.0"/>
     <text stroke="none" x="264.0" y="440.0" font-size="10.0" font-family="helvetica">NT1.13</text>
    </g>
    <g>
     <circle stroke="black" stroke-width="0.5" fill="#aaffff" cx="274.0" cy="175.0" r="1.0"/>
     <text stroke="none" x="274.0" y="175.0" font-size="10.0" font-family="helvetica">NT1.14</text>
    </g>
    <g>
     <circle stroke="black" stroke-width="0.5" fill="#aaffff" cx="288.0" cy="334.0" r="1.0"/>
     <text stroke="none" x="288.0" y="334.0" font-size="10.0" font-family="helvetica">NT1.15</text>
    </g>
    <g>
     <circle stroke="black" stroke-width="0.5" fill="#aaffff" cx="294.0" cy="821.0" r="1.0"/>
     <text stroke="none" x="294.0" y="821.0" font-size="10.0" font-family="helvetica">NT1.16</text>
    </g>
    <g>
     <circle stroke="black" stroke-width="0.5" fill="#aaffff" cx="295.0" cy="1139.0" r="1.0"/>
     <text stroke="none" x="295.0" y="1139.0" font-size="10.0" font-family="helvetica">NT1.17</text>
    </g>
    <g>
     <circle stroke="black" stroke-width="0.5" fill="#aaffff" cx="299.0" cy="603.0" r="1.0"/>
     <text stroke="none" x="299.0" y="603.0" font-size="10.0" font-family="helvetica">NT1.18</text>
    </g>
    <g>
     <circle stroke="black" stroke-width="0.5" fill="#aaffff" cx="305.0" cy="565.0" r="1.0"/>
     <text stroke="none" x="305.0" y="565.0" font-size="10.0" font-family="helvetica">NT1.19</text>
    </g>
    <g>
     <circle stroke="black" stroke-width="0.5" fill="#aaffff" cx="306.0" cy="568.0" r="1.0"/>
     <text stroke="none" x="306.0" y="568.0" font-size="10.0" font-family="helvetica">NT1.20</text>
    </g>
    <g>
     <circle stroke="black" stroke-width="0.5" fill="#aaffff" cx="306.0" cy="640.0" r="1.0"/>
     <text stroke="none" x="306.0" y="640.0" font-size="10.0" font-family="helvetica">NT1.21</text>
    </g>
    <g>
     <circle stroke="black" stroke-width="0.5" fill="#aaffff" cx="314.0" cy="134.0" r="1.0"/>
     <text stroke="none" x="314.0" y="134.0" font-size="10.0" font-family="helvetica">NT1.22</text>
    </g>
    <g>
     <circle stroke="black" stroke-width="0.5" fill="#aaffff" cx="323.0" cy="718.0" r="1.0"/>
     <text stroke="none" x="323.0" y="718.0" font-size="20.0" font-family="helvetica">Bacillus pseudofirmus DSM 87157 (X76439)</text>
    </g>
    <g>
     <circle stroke="black" stroke-width="0.5" fill="#aaffff" cx="330.0" cy="371.0" r="1.0"/>
     <text stroke="none" x="330.0" y="371.0" font-size="10.0" font-family="helvetica">NT1.24</text>
    </g>
    <g>
     <circle stroke="black" stroke-width="0.5" fill="#aaffff" cx="330.0" cy="369.0" r="1.0"/>
     <text stroke="none" x="330.0" y="369.0" font-size="10.0" font-family="helvetica">NT1.25</text>
    </g>
    <g>
     <circle stroke="black" stroke-width="0.5" fill="#aaffff" cx="332.0" cy="794.0" r="1.0"/>
     <text stroke="none" x="332.0" y="794.0" font-size="20.0" font-family="helvetica">99</text>
    </g>
    <g>
     <circle stroke="black" stroke-width="0.5" fill="#aaffff" cx="344.0" cy="1117.0" r="1.0"/>
     <text stroke="none" x="344.0" y="1117.0" font-size="20.0" font-family="helvetica">Bacillus hwajinpoensis SW-727 (AF541966)</text>
    </g>
    <g>
     <circle stroke="black" stroke-width="0.5" fill="#aaffff" cx="348.0" cy="1217.0" r="1.0"/>
     <text stroke="none" x="348.0" y="1217.0" font-size="20.0" font-family="helvetica">Bacillus subtilis DSM 107 (AJ276351)</text>
    </g>
    <g>
     <circle stroke="black" stroke-width="0.5" fill="#aaffff" cx="354.0" cy="318.0" r="1.0"/>
     <text stroke="none" x="354.0" y="318.0" font-size="20.0" font-family="helvetica">Bacillus alcalophilus DSM 4857 (X76436)</text>
    </g>
    <g>
     <circle stroke="black" stroke-width="0.5" fill="#aaffff" cx="354.0" cy="568.0" r="1.0"/>
     <text stroke="none" x="354.0" y="568.0" font-size="20.0" font-family="helvetica">Bacillus alkalidiazotrophicus MS 67 (EU143680)</text>
    </g>
    <g>
     <circle stroke="black" stroke-width="0.5" fill="#aaffff" cx="356.0" cy="1167.0" r="1.0"/>
     <text stroke="none" x="356.0" y="1167.0" font-size="20.0" font-family="helvetica">Bacillus algicola KMM 37377 (AY228462)</text>
    </g>
    <g>
     <circle stroke="black" stroke-width="0.5" fill="#aaffff" cx="356.0" cy="95.0" r="1.0"/>
     <text stroke="none" x="356.0" y="95.0" font-size="10.0" font-family="helvetica">NT1.32</text>
    </g>
    <g>
     <circle stroke="black" stroke-width="0.5" fill="#aaffff" cx="357.0" cy="66.0" r="1.0"/>
     <text stroke="none" x="357.0" y="66.0" font-size="20.0" font-family="helvetica">Bacillus okhensis Kh1O-1017 (DQ026060)</text>
    </g>
    <g>
     <circle stroke="black" stroke-width="0.5" fill="#aaffff" cx="371.0" cy="520.0" r="1.0"/>
     <text stroke="none" x="371.0" y="520.0" font-size="20.0" font-family="helvetica">Bacillus halodurans DSM 4977 (AJ302709)</text>
    </g>
    <g>
     <circle stroke="black" stroke-width="0.5" fill="#aaffff" cx="371.0" cy="503.0" r="1.0"/>
     <text stroke="none" x="371.0" y="503.0" font-size="10.0" font-family="helvetica">NT1.35</text>
    </g>
    <g>
     <circle stroke="black" stroke-width="0.5" fill="#aaffff" cx="372.0" cy="121.0" r="1.0"/>
     <text stroke="none" x="372.0" y="121.0" font-size="20.0" font-family="helvetica">Bacillus wakoensis N-17 (AB043851)</text>
    </g>
    <g>
     <circle stroke="black" stroke-width="0.5" fill="#aaffff" cx="372.0" cy="1067.0" r="1.0"/>
     <text stroke="none" x="372.0" y="1067.0" font-size="20.0" font-family="helvetica">Bacillus decolorationis LMG 195077 (AJ315075)</text>
    </g>
    <g>
     <circle stroke="black" stroke-width="0.5" fill="#aaffff" cx="372.0" cy="118.0" r="1.0"/>
     <text stroke="none" x="372.0" y="118.0" font-size="10.0" font-family="helvetica">NT1.38</text>
    </g>
    <g>
     <circle stroke="black" stroke-width="0.5" fill="#aaffff" cx="374.0" cy="368.0" r="1.0"/>
     <text stroke="none" x="374.0" y="368.0" font-size="20.0" font-family="helvetica">Bacillus pseudalcaliphilus DSM 87257 (X76449)</text>
    </g>
    <g>
     <circle stroke="black" stroke-width="0.5" fill="#aaffff" cx="380.0" cy="219.0" r="1.0"/>
     <text stroke="none" x="380.0" y="219.0" font-size="20.0" font-family="helvetica">Bacillus akibai ATCC 432267 (AB043858)</text>
    </g>
    <g>
     <circle stroke="black" stroke-width="0.5" fill="#aaffff" cx="380.0" cy="418.0" r="1.0"/>
     <text stroke="none" x="380.0" y="418.0" font-size="20.0" font-family="helvetica">Bacillus hemicellulosilyticus C-117 (AB043846)</text>
    </g>
    <g>
     <circle stroke="black" stroke-width="0.5" fill="#aaffff" cx="382.0" cy="618.0" r="1.0"/>
     <text stroke="none" x="382.0" y="618.0" font-size="20.0" font-family="helvetica">Bacillus arseniciselenatis E1 H7 (AF064705)</text>
    </g>
    <g>
     <circle stroke="black" stroke-width="0.5" fill="#aaffff" cx="391.0" cy="268.0" r="1.0"/>
     <text stroke="none" x="391.0" y="268.0" font-size="20.0" font-family="helvetica">Bacillus bogoriensis LBB37 (AY376312)</text>
    </g>
    <g>
     <circle stroke="black" stroke-width="0.5" fill="#aaffff" cx="391.0" cy="668.0" r="1.0"/>
     <text stroke="none" x="391.0" y="668.0" font-size="20.0" font-family="helvetica">Bacillus macyae JMM-47 (AY032601)</text>
    </g>
    <g>
     <circle stroke="black" stroke-width="0.5" fill="#aaffff" cx="391.0" cy="765.0" r="1.0"/>
     <text stroke="none" x="391.0" y="765.0" font-size="10.0" font-family="helvetica">NT1.45</text>
    </g>
    <g>
     <circle stroke="black" stroke-width="0.5" fill="#aaffff" cx="391.0" cy="767.0" r="1.0"/>
     <text stroke="none" x="391.0" y="767.0" font-size="10.0" font-family="helvetica">NT1.46</text>
    </g>
    <g>
     <circle stroke="black" stroke-width="0.5" fill="#aaffff" cx="401.0" cy="468.0" r="1.0"/>
     <text stroke="none" x="401.0" y="468.0" font-size="20.0" font-family="helvetica">Bacillus okuhidensis GTC 8547 (ABO47684)</text>
    </g>
    <g>
     <circle stroke="black" stroke-width="0.5" fill="#aaffff" cx="407.0" cy="116.0" r="1.0"/>
     <text stroke="none" x="407.0" y="116.0" font-size="20.0" font-family="helvetica">Bacillus wakoensis N-17 (AB043851)</text>
    </g>
    <g>
     <circle stroke="black" stroke-width="0.5" fill="#aaffff" cx="407.0" cy="169.0" r="1.0"/>
     <text stroke="none" x="407.0" y="169.0" font-size="20.0" font-family="helvetica">Bacillus krulwichiae AM31 D7 (ABO86897)</text>
    </g>
    <g>
     <circle stroke="black" stroke-width="0.5" fill="#aaffff" cx="421.0" cy="868.0" r="1.0"/>
     <text stroke="none" x="421.0" y="868.0" font-size="20.0" font-family="helvetica">Bacillus clausii DSM 87167 (X76440)</text>
    </g>
    <g>
     <circle stroke="black" stroke-width="0.5" fill="#aaffff" cx="423.0" cy="952.0" r="1.0"/>
     <text stroke="none" x="423.0" y="952.0" font-size="10.0" font-family="helvetica">NT1.51</text>
    </g>
    <g>
     <circle stroke="black" stroke-width="0.5" fill="#aaffff" cx="425.0" cy="915.0" r="1.0"/>
     <text stroke="none" x="425.0" y="915.0" font-size="20.0" font-family="helvetica">Bacillus gibsonii DSM 87227 (X76446)</text>
    </g>
    <g>
     <circle stroke="black" stroke-width="0.5" fill="#aaffff" cx="426.0" cy="918.0" r="1.0"/>
     <text stroke="none" x="426.0" y="918.0" font-size="10.0" font-family="helvetica">NT1.53</text>
    </g>
    <g>
     <circle stroke="black" stroke-width="0.5" fill="#aaffff" cx="435.0" cy="989.0" r="1.0"/>
     <text stroke="none" x="435.0" y="989.0" font-size="20.0" font-family="helvetica">90</text>
    </g>
    <g>
     <circle stroke="black" stroke-width="0.5" fill="#aaffff" cx="436.0" cy="1019.0" r="1.0"/>
     <text stroke="none" x="436.0" y="1019.0" font-size="20.0" font-family="helvetica">Bacillus murimanini LMG 210057 (AJ316316)</text>
    </g>
    <g>
     <circle stroke="black" stroke-width="0.5" fill="#aaffff" cx="437.0" cy="965.0" r="1.0"/>
     <text stroke="none" x="437.0" y="965.0" font-size="20.0" font-family="helvetica">Bacillus plakortidis DSM 191537 (AJ880003)</text>
    </g>
    <g>
     <circle stroke="black" stroke-width="0.5" fill="#aaffff" cx="437.0" cy="1017.0" r="1.0"/>
     <text stroke="none" x="437.0" y="1017.0" font-size="20.0" font-family="helvetica">90</text>
    </g>
    <g>
     <circle stroke="black" stroke-width="0.5" fill="#aaffff" cx="438.0" cy="967.0" r="1.0"/>
     <text stroke="none" x="438.0" y="967.0" font-size="10.0" font-family="helvetica">NT1.58</text>
    </g>
    <g>
     <circle stroke="black" stroke-width="0.5" fill="#aaffff" cx="439.0" cy="818.0" r="1.0"/>
     <text stroke="none" x="439.0" y="818.0" font-size="20.0" font-family="helvetica">Bacillus patagoniensis PAT 057 (AY258614)</text>
    </g>
    <g>
     <circle stroke="black" stroke-width="0.5" fill="#aaffff" cx="443.0" cy="967.0" r="1.0"/>
     <text stroke="none" x="443.0" y="967.0" font-size="20.0" font-family="helvetica">Bacillus plakortidis DSM 191537 (AJ880003)</text>
    </g>
    <g>
     <circle stroke="black" stroke-width="0.5" fill="#aaffff" cx="445.0" cy="1017.0" r="1.0"/>
     <text stroke="none" x="445.0" y="1017.0" font-size="20.0" font-family="helvetica">Bacillus murimanini LMG 210057 (AJ316316)</text>
    </g>
    <g>
     <circle stroke="black" stroke-width="0.5" fill="#aaffff" cx="453.0" cy="918.0" r="1.0"/>
     <text stroke="none" x="453.0" y="918.0" font-size="20.0" font-family="helvetica">Bacillus gibsonii DSM 87227 (X76446)</text>
    </g>
    <g>
     <circle stroke="black" stroke-width="0.5" fill="#aaffff" cx="453.0" cy="768.0" r="1.0"/>
     <text stroke="none" x="453.0" y="768.0" font-size="20.0" font-family="helvetica">Bacillus oshimensis K117 (AB188090)</text>
    </g>
    <line stroke="black" x1="357.0" y1="66.0" x2="356.0" y2="95.0" stroke-width="0.5"/>
    <line stroke="black" x1="372.0" y1="121.0" x2="372.0" y2="118.0" stroke-width="0.5"/>
    <line stroke="black" x1="407.0" y1="116.0" x2="372.0" y2="118.0" stroke-width="0.5"/>
    <line stroke="black" x1="374.0" y1="368.0" x2="330.0" y2="369.0" stroke-width="0.5"/>
    <line stroke="black" x1="371.0" y1="520.0" x2="371.0" y2="503.0" stroke-width="0.5"/>
    <line stroke="black" x1="354.0" y1="568.0" x2="306.0" y2="568.0" stroke-width="0.5"/>
    <line stroke="black" x1="323.0" y1="718.0" x2="209.0" y2="717.0" stroke-width="0.5"/>
    <line stroke="black" x1="425.0" y1="915.0" x2="426.0" y2="918.0" stroke-width="0.5"/>
    <line stroke="black" x1="4.0" y1="1045.0" x2="114.0" y2="1006.0" stroke-width="0.5"/>
    <line stroke="black" x1="453.0" y1="918.0" x2="426.0" y2="918.0" stroke-width="0.5"/>
    <line stroke="black" x1="438.0" y1="967.0" x2="437.0" y2="965.0" stroke-width="0.5"/>
    <line stroke="black" x1="443.0" y1="967.0" x2="438.0" y2="967.0" stroke-width="0.5"/>
    <line stroke="black" x1="436.0" y1="1019.0" x2="437.0" y2="1017.0" stroke-width="0.5"/>
    <line stroke="black" x1="445.0" y1="1017.0" x2="437.0" y2="1017.0" stroke-width="0.5"/>
    <line stroke="black" x1="453.0" y1="768.0" x2="391.0" y2="767.0" stroke-width="0.5"/>
    <line stroke="black" x1="356.0" y1="95.0" x2="314.0" y2="134.0" stroke-width="0.5"/>
    <line stroke="black" x1="356.0" y1="95.0" x2="372.0" y2="118.0" stroke-width="0.5"/>
    <line stroke="black" x1="314.0" y1="134.0" x2="274.0" y2="175.0" stroke-width="0.5"/>
    <line stroke="black" x1="274.0" y1="175.0" x2="239.0" y2="294.0" stroke-width="0.5"/>
    <line stroke="black" x1="239.0" y1="294.0" x2="288.0" y2="334.0" stroke-width="0.5"/>
    <line stroke="black" x1="239.0" y1="294.0" x2="197.0" y2="548.0" stroke-width="0.5"/>
    <line stroke="black" x1="239.0" y1="294.0" x2="264.0" y2="440.0" stroke-width="0.5"/>
    <line stroke="black" x1="264.0" y1="440.0" x2="371.0" y2="503.0" stroke-width="0.5"/>
    <line stroke="black" x1="197.0" y1="548.0" x2="299.0" y2="603.0" stroke-width="0.5"/>
    <line stroke="black" x1="197.0" y1="548.0" x2="160.0" y2="876.0" stroke-width="0.5"/>
    <line stroke="black" x1="197.0" y1="548.0" x2="200.0" y2="719.0" stroke-width="0.5"/>
    <line stroke="black" x1="299.0" y1="603.0" x2="306.0" y2="640.0" stroke-width="0.5"/>
    <line stroke="black" x1="200.0" y1="719.0" x2="251.0" y2="891.0" stroke-width="0.5"/>
    <line stroke="black" x1="160.0" y1="876.0" x2="114.0" y2="1006.0" stroke-width="0.5"/>
    <line stroke="black" x1="160.0" y1="876.0" x2="183.0" y2="1087.0" stroke-width="0.5"/>
    <line stroke="black" x1="251.0" y1="891.0" x2="423.0" y2="952.0" stroke-width="0.5"/>
    <line stroke="black" x1="251.0" y1="891.0" x2="294.0" y2="821.0" stroke-width="0.5"/>
    <line stroke="black" x1="294.0" y1="821.0" x2="332.0" y2="794.0" stroke-width="0.5"/>
    <line stroke="black" x1="183.0" y1="1087.0" x2="295.0" y2="1139.0" stroke-width="0.5"/>
    <line stroke="black" x1="423.0" y1="952.0" x2="435.0" y2="989.0" stroke-width="0.5"/>
    <line stroke="black" x1="423.0" y1="952.0" x2="426.0" y2="918.0" stroke-width="0.5"/>
    <line stroke="black" x1="435.0" y1="989.0" x2="437.0" y2="1017.0" stroke-width="0.5"/>
    <line stroke="black" x1="435.0" y1="989.0" x2="438.0" y2="967.0" stroke-width="0.5"/>
    <line stroke="black" x1="348.0" y1="1217.0" x2="114.0" y2="1006.0" stroke-width="0.5"/>
    <line stroke="black" x1="372.0" y1="1067.0" x2="183.0" y2="1087.0" stroke-width="0.5"/>
    <line stroke="black" x1="354.0" y1="318.0" x2="288.0" y2="334.0" stroke-width="0.5"/>
    <line stroke="black" x1="344.0" y1="1117.0" x2="295.0" y2="1139.0" stroke-width="0.5"/>
    <line stroke="black" x1="356.0" y1="1167.0" x2="295.0" y2="1139.0" stroke-width="0.5"/>
    <line stroke="black" x1="391.0" y1="668.0" x2="306.0" y2="640.0" stroke-width="0.5"/>
    <line stroke="black" x1="391.0" y1="268.0" x2="239.0" y2="294.0" stroke-width="0.5"/>
    <line stroke="black" x1="380.0" y1="418.0" x2="264.0" y2="440.0" stroke-width="0.5"/>
    <line stroke="black" x1="380.0" y1="219.0" x2="274.0" y2="175.0" stroke-width="0.5"/>
    <line stroke="black" x1="407.0" y1="169.0" x2="314.0" y2="134.0" stroke-width="0.5"/>
    <line stroke="black" x1="382.0" y1="618.0" x2="306.0" y2="640.0" stroke-width="0.5"/>
    <line stroke="black" x1="421.0" y1="868.0" x2="294.0" y2="821.0" stroke-width="0.5"/>
    <line stroke="black" x1="401.0" y1="468.0" x2="371.0" y2="503.0" stroke-width="0.5"/>
    <line stroke="black" x1="439.0" y1="818.0" x2="332.0" y2="794.0" stroke-width="0.5"/>
   </g>
  </g>
 </svg>
</svg>
