<?xml version="1.0" encoding="UTF-8"?>
<svg height="800.0" width="700.0" xmlns="http://www.w3.org/2000/svg">
 <svg>
  <g>
   <g>
    <g>
     <circle stroke="black" stroke-width="0.5" fill="#aaffff" cx="347.0" cy="171.0" r="1.0"/>
     <text stroke="none" x="347.0" y="171.0" font-size="10.0" font-family="helvetica">NT1.1</text>
    </g>
    <g>
     <circle stroke="black" stroke-width="0.5" fill="#aaffff" cx="490.0" cy="290.0" r="1.0"/>
     <text stroke="none" x="490.0" y="290.0" font-size="20.0" font-family="helvetica">100</text>
    </g>
    <g>
     <circle stroke="black" stroke-width="0.5" fill="#aaffff" cx="511.0" cy="48.0" r="1.0"/>
     <text stroke="none" x="511.0" y="48.0" font-size="20.0" font-family="helvetica">100</text>
    </g>
    <g>
     <circle stroke="black" stroke-width="0.5" fill="#aaffff" cx="543.0" cy="416.0" r="1.0"/>
     <text stroke="none" x="543.0" y="416.0" font-size="20.0" font-family="helvetica">87</text>
    </g>
    <g>
     <circle stroke="black" stroke-width="0.5" fill="#aaffff" cx="611.0" cy="625.0" r="1.0"/>
     <text stroke="none" x="611.0" y="625.0" font-size="20.0" font-family="helvetica">81</text>
    </g>
    <g>
     <circle stroke="black" stroke-width="0.5" fill="#aaffff" cx="636.0" cy="982.0" r="1.0"/>
     <text stroke="none" x="636.0" y="982.0" font-size="10.0" font-family="helvetica">NT1.6</text>
    </g>
    <g>
     <circle stroke="black" stroke-width="0.5" fill="#aaffff" cx="640.0" cy="1380.0" r="1.0"/>
     <text stroke="none" x="640.0" y="1380.0" font-size="10.0" font-family="helvetica">NT1.7</text>
    </g>
    <g>
     <circle stroke="black" stroke-width="0.5" fill="#aaffff" cx="642.0" cy="75.0" r="1.0"/>
     <text stroke="none" x="642.0" y="75.0" font-size="20.0" font-family="helvetica">100</text>
    </g>
    <g>
     <circle stroke="black" stroke-width="0.5" fill="#aaffff" cx="652.0" cy="1677.0" r="1.0"/>
     <text stroke="none" x="652.0" y="1677.0" font-size="10.0" font-family="helvetica">NT1.9</text>
    </g>
    <g>
     <circle stroke="black" stroke-width="0.5" fill="#aaffff" cx="655.0" cy="1084.0" r="1.0"/>
     <text stroke="none" x="655.0" y="1084.0" font-size="10.0" font-family="helvetica">NT1.10</text>
    </g>
    <g>
     <circle stroke="black" stroke-width="0.5" fill="#aaffff" cx="668.0" cy="582.0" r="1.0"/>
     <text stroke="none" x="668.0" y="582.0" font-size="10.0" font-family="helvetica">NT1.11</text>
    </g>
    <g>
     <circle stroke="black" stroke-width="0.5" fill="#aaffff" cx="676.0" cy="1772.0" r="1.0"/>
     <text stroke="none" x="676.0" y="1772.0" font-size="10.0" font-family="helvetica">NT1.12</text>
    </g>
    <g>
     <circle stroke="black" stroke-width="0.5" fill="#aaffff" cx="680.0" cy="764.0" r="1.0"/>
     <text stroke="none" x="680.0" y="764.0" font-size="10.0" font-family="helvetica">NT1.13</text>
    </g>
    <g>
     <circle stroke="black" stroke-width="0.5" fill="#aaffff" cx="684.0" cy="165.0" r="1.0"/>
     <text stroke="none" x="684.0" y="165.0" font-size="20.0" font-family="helvetica">100</text>
    </g>
    <g>
     <circle stroke="black" stroke-width="0.5" fill="#aaffff" cx="686.0" cy="1210.0" r="1.0"/>
     <text stroke="none" x="686.0" y="1210.0" font-size="20.0" font-family="helvetica">54</text>
    </g>
    <g>
     <circle stroke="black" stroke-width="0.5" fill="#aaffff" cx="691.0" cy="269.0" r="1.0"/>
     <text stroke="none" x="691.0" y="269.0" font-size="10.0" font-family="helvetica">NT1.16</text>
    </g>
    <g>
     <circle stroke="black" stroke-width="0.5" fill="#aaffff" cx="693.0" cy="1584.0" r="1.0"/>
     <text stroke="none" x="693.0" y="1584.0" font-size="10.0" font-family="helvetica">NT1.17</text>
    </g>
    <g>
     <circle stroke="black" stroke-width="0.5" fill="#aaffff" cx="693.0" cy="961.0" r="1.0"/>
     <text stroke="none" x="693.0" y="961.0" font-size="20.0" font-family="helvetica">52</text>
    </g>
    <g>
     <circle stroke="black" stroke-width="0.5" fill="#aaffff" cx="695.0" cy="798.0" r="1.0"/>
     <text stroke="none" x="695.0" y="798.0" font-size="10.0" font-family="helvetica">NT1.19</text>
    </g>
    <g>
     <circle stroke="black" stroke-width="0.5" fill="#aaffff" cx="710.0" cy="1671.0" r="1.0"/>
     <text stroke="none" x="710.0" y="1671.0" font-size="20.0" font-family="helvetica">70</text>
    </g>
    <g>
     <circle stroke="black" stroke-width="0.5" fill="#aaffff" cx="712.0" cy="1023.0" r="1.0"/>
     <text stroke="none" x="712.0" y="1023.0" font-size="20.0" font-family="helvetica">55</text>
    </g>
    <g>
     <circle stroke="black" stroke-width="0.5" fill="#aaffff" cx="716.0" cy="824.0" r="1.0"/>
     <text stroke="none" x="716.0" y="824.0" font-size="10.0" font-family="helvetica">NT1.22</text>
    </g>
    <g>
     <circle stroke="black" stroke-width="0.5" fill="#aaffff" cx="722.0" cy="1498.0" r="1.0"/>
     <text stroke="none" x="722.0" y="1498.0" font-size="10.0" font-family="helvetica">NT1.23</text>
    </g>
    <g>
     <circle stroke="black" stroke-width="0.5" fill="#aaffff" cx="725.0" cy="731.0" r="1.0"/>
     <text stroke="none" x="725.0" y="731.0" font-size="20.0" font-family="helvetica">67</text>
    </g>
    <g>
     <circle stroke="black" stroke-width="0.5" fill="#aaffff" cx="729.0" cy="1051.0" r="1.0"/>
     <text stroke="none" x="729.0" y="1051.0" font-size="20.0" font-family="helvetica">55</text>
    </g>
    <g>
     <circle stroke="black" stroke-width="0.5" fill="#aaffff" cx="731.0" cy="296.0" r="1.0"/>
     <text stroke="none" x="731.0" y="296.0" font-size="10.0" font-family="helvetica">NT1.26</text>
    </g>
    <g>
     <circle stroke="black" stroke-width="0.5" fill="#aaffff" cx="733.0" cy="402.0" r="1.0"/>
     <text stroke="none" x="733.0" y="402.0" font-size="20.0" font-family="helvetica">94</text>
    </g>
    <g>
     <circle stroke="black" stroke-width="0.5" fill="#aaffff" cx="742.0" cy="1526.0" r="1.0"/>
     <text stroke="none" x="742.0" y="1526.0" font-size="10.0" font-family="helvetica">NT1.28</text>
    </g>
    <g>
     <circle stroke="black" stroke-width="0.5" fill="#aaffff" cx="744.0" cy="209.0" r="1.0"/>
     <text stroke="none" x="744.0" y="209.0" font-size="20.0" font-family="helvetica">Epilithonimonas tenax AP1057 (AF493696)</text>
    </g>
    <g>
     <circle stroke="black" stroke-width="0.5" fill="#aaffff" cx="748.0" cy="898.0" r="1.0"/>
     <text stroke="none" x="748.0" y="898.0" font-size="10.0" font-family="helvetica">NT1.30</text>
    </g>
    <g>
     <circle stroke="black" stroke-width="0.5" fill="#aaffff" cx="748.0" cy="1298.0" r="1.0"/>
     <text stroke="none" x="748.0" y="1298.0" font-size="20.0" font-family="helvetica">91</text>
    </g>
    <g>
     <circle stroke="black" stroke-width="0.5" fill="#aaffff" cx="752.0" cy="841.0" r="1.0"/>
     <text stroke="none" x="752.0" y="841.0" font-size="20.0" font-family="helvetica">Chryseobacterium molle DW37 (AJ534853)</text>
    </g>
    <g>
     <circle stroke="black" stroke-width="0.5" fill="#aaffff" cx="755.0" cy="1703.0" r="1.0"/>
     <text stroke="none" x="755.0" y="1703.0" font-size="20.0" font-family="helvetica">70</text>
    </g>
    <g>
     <circle stroke="black" stroke-width="0.5" fill="#aaffff" cx="763.0" cy="1390.0" r="1.0"/>
     <text stroke="none" x="763.0" y="1390.0" font-size="20.0" font-family="helvetica">56</text>
    </g>
    <g>
     <circle stroke="black" stroke-width="0.5" fill="#aaffff" cx="767.0" cy="808.0" r="1.0"/>
     <text stroke="none" x="767.0" y="808.0" font-size="20.0" font-family="helvetica">Chryseobacterium hominis NF 8027 (AM261868)</text>
    </g>
    <g>
     <circle stroke="black" stroke-width="0.5" fill="#aaffff" cx="770.0" cy="1554.0" r="1.0"/>
     <text stroke="none" x="770.0" y="1554.0" font-size="10.0" font-family="helvetica">NT1.36</text>
    </g>
    <g>
     <circle stroke="black" stroke-width="0.5" fill="#aaffff" cx="778.0" cy="319.0" r="1.0"/>
     <text stroke="none" x="778.0" y="319.0" font-size="20.0" font-family="helvetica">71</text>
    </g>
    <g>
     <circle stroke="black" stroke-width="0.5" fill="#aaffff" cx="778.0" cy="1208.0" r="1.0"/>
     <text stroke="none" x="778.0" y="1208.0" font-size="20.0" font-family="helvetica">77</text>
    </g>
    <g>
     <circle stroke="black" stroke-width="0.5" fill="#aaffff" cx="784.0" cy="777.0" r="1.0"/>
     <text stroke="none" x="784.0" y="777.0" font-size="20.0" font-family="helvetica">Chryseobacterium pallidum 26-3St2b7 (AM232809)</text>
    </g>
    <g>
     <circle stroke="black" stroke-width="0.5" fill="#aaffff" cx="785.0" cy="1073.0" r="1.0"/>
     <text stroke="none" x="785.0" y="1073.0" font-size="20.0" font-family="helvetica">93</text>
    </g>
    <g>
     <circle stroke="black" stroke-width="0.5" fill="#aaffff" cx="786.0" cy="1244.0" r="1.0"/>
     <text stroke="none" x="786.0" y="1244.0" font-size="10.0" font-family="helvetica">NT1.41</text>
    </g>
    <g>
     <circle stroke="black" stroke-width="0.5" fill="#aaffff" cx="788.0" cy="1751.0" r="1.0"/>
     <text stroke="none" x="788.0" y="1751.0" font-size="20.0" font-family="helvetica">Chryseobacterium formosense CC-H3527 (AY315443)</text>
    </g>
    <g>
     <circle stroke="black" stroke-width="0.5" fill="#aaffff" cx="789.0" cy="1421.0" r="1.0"/>
     <text stroke="none" x="789.0" y="1421.0" font-size="20.0" font-family="helvetica">53</text>
    </g>
    <g>
     <circle stroke="black" stroke-width="0.5" fill="#aaffff" cx="790.0" cy="435.0" r="1.0"/>
     <text stroke="none" x="790.0" y="435.0" font-size="10.0" font-family="helvetica">NT1.44</text>
    </g>
    <g>
     <circle stroke="black" stroke-width="0.5" fill="#aaffff" cx="793.0" cy="925.0" r="1.0"/>
     <text stroke="none" x="793.0" y="925.0" font-size="10.0" font-family="helvetica">NT1.45</text>
    </g>
    <g>
     <circle stroke="black" stroke-width="0.5" fill="#aaffff" cx="793.0" cy="1576.0" r="1.0"/>
     <text stroke="none" x="793.0" y="1576.0" font-size="20.0" font-family="helvetica">77</text>
    </g>
    <g>
     <circle stroke="black" stroke-width="0.5" fill="#aaffff" cx="793.0" cy="1170.0" r="1.0"/>
     <text stroke="none" x="793.0" y="1170.0" font-size="10.0" font-family="helvetica">NT1.47</text>
    </g>
    <g>
     <circle stroke="black" stroke-width="0.5" fill="#aaffff" cx="801.0" cy="1641.0" r="1.0"/>
     <text stroke="none" x="801.0" y="1641.0" font-size="20.0" font-family="helvetica">93</text>
    </g>
    <g>
     <circle stroke="black" stroke-width="0.5" fill="#aaffff" cx="801.0" cy="1270.0" r="1.0"/>
     <text stroke="none" x="801.0" y="1270.0" font-size="10.0" font-family="helvetica">NT1.49</text>
    </g>
    <g>
     <circle stroke="black" stroke-width="0.5" fill="#aaffff" cx="805.0" cy="1797.0" r="1.0"/>
     <text stroke="none" x="805.0" y="1797.0" font-size="20.0" font-family="helvetica">100</text>
    </g>
    <g>
     <circle stroke="black" stroke-width="0.5" fill="#aaffff" cx="809.0" cy="180.0" r="1.0"/>
     <text stroke="none" x="809.0" y="180.0" font-size="20.0" font-family="helvetica">Elizabethkingia miricola GTC8627 (ABO71953)</text>
    </g>
    <g>
     <circle stroke="black" stroke-width="0.5" fill="#aaffff" cx="814.0" cy="1469.0" r="1.0"/>
     <text stroke="none" x="814.0" y="1469.0" font-size="20.0" font-family="helvetica">Chryseobacterium gambrini 5-1 St1a7 (AM232810)</text>
    </g>
    <g>
     <circle stroke="black" stroke-width="0.5" fill="#aaffff" cx="814.0" cy="1027.0" r="1.0"/>
     <text stroke="none" x="814.0" y="1027.0" font-size="20.0" font-family="helvetica">Chryseobacterium soldanellfcola PSD1-47 (AY883415)</text>
    </g>
    <g>
     <circle stroke="black" stroke-width="0.5" fill="#aaffff" cx="815.0" cy="398.0" r="1.0"/>
     <text stroke="none" x="815.0" y="398.0" font-size="20.0" font-family="helvetica">Chryseobacterium haifense H387 (EF204450)</text>
    </g>
    <g>
     <circle stroke="black" stroke-width="0.5" fill="#aaffff" cx="824.0" cy="473.0" r="1.0"/>
     <text stroke="none" x="824.0" y="473.0" font-size="10.0" font-family="helvetica">NT1.55</text>
    </g>
    <g>
     <circle stroke="black" stroke-width="0.5" fill="#aaffff" cx="826.0" cy="901.0" r="1.0"/>
     <text stroke="none" x="826.0" y="901.0" font-size="20.0" font-family="helvetica">Chryseobacterium scophthalmum LMG 130287 (AJ271009)</text>
    </g>
    <g>
     <circle stroke="black" stroke-width="0.5" fill="#aaffff" cx="829.0" cy="1295.0" r="1.0"/>
     <text stroke="none" x="829.0" y="1295.0" font-size="10.0" font-family="helvetica">NT1.57</text>
    </g>
    <g>
     <circle stroke="black" stroke-width="0.5" fill="#aaffff" cx="833.0" cy="517.0" r="1.0"/>
     <text stroke="none" x="833.0" y="517.0" font-size="10.0" font-family="helvetica">NT1.58</text>
    </g>
    <g>
     <circle stroke="black" stroke-width="0.5" fill="#aaffff" cx="835.0" cy="995.0" r="1.0"/>
     <text stroke="none" x="835.0" y="995.0" font-size="20.0" font-family="helvetica">Chryseobacterium aquaticum 10-467 (AM748690)</text>
    </g>
    <g>
     <circle stroke="black" stroke-width="0.5" fill="#aaffff" cx="837.0" cy="1438.0" r="1.0"/>
     <text stroke="none" x="837.0" y="1438.0" font-size="20.0" font-family="helvetica">Chryseobacterium jejuense JS1 7-87 (EF591303)</text>
    </g>
    <g>
     <circle stroke="black" stroke-width="0.5" fill="#aaffff" cx="837.0" cy="517.0" r="1.0"/>
     <text stroke="none" x="837.0" y="517.0" font-size="10.0" font-family="helvetica">NT1.61</text>
    </g>
    <g>
     <circle stroke="black" stroke-width="0.5" fill="#aaffff" cx="839.0" cy="1216.0" r="1.0"/>
     <text stroke="none" x="839.0" y="1216.0" font-size="20.0" font-family="helvetica">Chryseobacteriurn ureilyticum F-Fue-04llIaaaa7 (AM232806)</text>
    </g>
    <g>
     <circle stroke="black" stroke-width="0.5" fill="#aaffff" cx="841.0" cy="430.0" r="1.0"/>
     <text stroke="none" x="841.0" y="430.0" font-size="20.0" font-family="helvetica">Chryseobacterium anthropi ccue 15260 (AM982793)</text>
    </g>
    <g>
     <circle stroke="black" stroke-width="0.5" fill="#aaffff" cx="841.0" cy="461.0" r="1.0"/>
     <text stroke="none" x="841.0" y="461.0" font-size="20.0" font-family="helvetica">Chryseobacterium sp. CCUG 15624 (AM982792)</text>
    </g>
    <g>
     <circle stroke="black" stroke-width="0.5" fill="#aaffff" cx="841.0" cy="1090.0" r="1.0"/>
     <text stroke="none" x="841.0" y="1090.0" font-size="20.0" font-family="helvetica">Chryseobacterium soli JS6-67 (EF591302)</text>
    </g>
    <g>
     <circle stroke="black" stroke-width="0.5" fill="#aaffff" cx="843.0" cy="947.0" r="1.0"/>
     <text stroke="none" x="843.0" y="947.0" font-size="20.0" font-family="helvetica">100</text>
    </g>
    <g>
     <circle stroke="black" stroke-width="0.5" fill="#aaffff" cx="845.0" cy="587.0" r="1.0"/>
     <text stroke="none" x="845.0" y="587.0" font-size="10.0" font-family="helvetica">NT1.67</text>
    </g>
    <g>
     <circle stroke="black" stroke-width="0.5" fill="#aaffff" cx="845.0" cy="1359.0" r="1.0"/>
     <text stroke="none" x="845.0" y="1359.0" font-size="20.0" font-family="helvetica">99</text>
    </g>
    <g>
     <circle stroke="black" stroke-width="0.5" fill="#aaffff" cx="847.0" cy="964.0" r="1.0"/>
     <text stroke="none" x="847.0" y="964.0" font-size="20.0" font-family="helvetica">Chryseobacterium piscium LMG 230897 (AM040439)</text>
    </g>
    <g>
     <circle stroke="black" stroke-width="0.5" fill="#aaffff" cx="847.0" cy="556.0" r="1.0"/>
     <text stroke="none" x="847.0" y="556.0" font-size="20.0" font-family="helvetica">67</text>
    </g>
    <g>
     <circle stroke="black" stroke-width="0.5" fill="#aaffff" cx="848.0" cy="683.0" r="1.0"/>
     <text stroke="none" x="848.0" y="683.0" font-size="20.0" font-family="helvetica">Chryseobacterium anthropi NF 11 01 (AM982788)</text>
    </g>
    <g>
     <circle stroke="black" stroke-width="0.5" fill="#aaffff" cx="852.0" cy="1593.0" r="1.0"/>
     <text stroke="none" x="852.0" y="1593.0" font-size="20.0" font-family="helvetica">Chryseobacterium daecheongense CPW4067 (AJ457206)</text>
    </g>
    <g>
     <circle stroke="black" stroke-width="0.5" fill="#aaffff" cx="856.0" cy="1561.0" r="1.0"/>
     <text stroke="none" x="856.0" y="1561.0" font-size="20.0" font-family="helvetica">Chryseobacterium defluvii B27 (AJ309324)</text>
    </g>
    <g>
     <circle stroke="black" stroke-width="0.5" fill="#aaffff" cx="858.0" cy="1529.0" r="1.0"/>
     <text stroke="none" x="858.0" y="1529.0" font-size="20.0" font-family="helvetica">Chryseobacteriurn wanjuense R2A1O-27 (DQ256729)</text>
    </g>
    <g>
     <circle stroke="black" stroke-width="0.5" fill="#aaffff" cx="860.0" cy="1497.0" r="1.0"/>
     <text stroke="none" x="860.0" y="1497.0" font-size="20.0" font-family="helvetica">Chryseobacterium taiwanense BCRC 1 74127(DO318789)</text>
    </g>
    <g>
     <circle stroke="black" stroke-width="0.5" fill="#aaffff" cx="864.0" cy="1719.0" r="1.0"/>
     <text stroke="none" x="864.0" y="1719.0" font-size="20.0" font-family="helvetica">Chryseobacterium gregarium DSM 191097 (AM773820)</text>
    </g>
    <g>
     <circle stroke="black" stroke-width="0.5" fill="#aaffff" cx="866.0" cy="746.0" r="1.0"/>
     <text stroke="none" x="866.0" y="746.0" font-size="20.0" font-family="helvetica">Chryseobacterium hispanicum VP487 (AM159183)</text>
    </g>
    <g>
     <circle stroke="black" stroke-width="0.5" fill="#aaffff" cx="866.0" cy="1687.0" r="1.0"/>
     <text stroke="none" x="866.0" y="1687.0" font-size="20.0" font-family="helvetica">Chryseobacterium daeguense K1057 (AF076759)</text>
    </g>
    <g>
     <circle stroke="black" stroke-width="0.5" fill="#aaffff" cx="869.0" cy="1121.0" r="1.0"/>
     <text stroke="none" x="869.0" y="1121.0" font-size="20.0" font-family="helvetica">Chryseobacterium caeni N47 (DQ336714)</text>
    </g>
    <g>
     <circle stroke="black" stroke-width="0.5" fill="#aaffff" cx="869.0" cy="1248.0" r="1.0"/>
     <text stroke="none" x="869.0" y="1248.0" font-size="20.0" font-family="helvetica">Chryseobacterium oranimense H87 (EF204451)</text>
    </g>
    <g>
     <circle stroke="black" stroke-width="0.5" fill="#aaffff" cx="873.0" cy="1185.0" r="1.0"/>
     <text stroke="none" x="873.0" y="1185.0" font-size="20.0" font-family="helvetica">Chryseobacterium joostei LMG 182127(AJ271O10)</text>
    </g>
    <g>
     <circle stroke="black" stroke-width="0.5" fill="#aaffff" cx="875.0" cy="1814.0" r="1.0"/>
     <text stroke="none" x="875.0" y="1814.0" font-size="20.0" font-family="helvetica">Chryseobacterium jeonir'AT10477 (AY553294)</text>
    </g>
    <g>
     <circle stroke="black" stroke-width="0.5" fill="#aaffff" cx="875.0" cy="1153.0" r="1.0"/>
     <text stroke="none" x="875.0" y="1153.0" font-size="20.0" font-family="helvetica">Chryseobacterium luteum P456lO47 (AM489609)</text>
    </g>
    <g>
     <circle stroke="black" stroke-width="0.5" fill="#aaffff" cx="875.0" cy="101.0" r="1.0"/>
     <text stroke="none" x="875.0" y="101.0" font-size="20.0" font-family="helvetica">100</text>
    </g>
    <g>
     <circle stroke="black" stroke-width="0.5" fill="#aaffff" cx="879.0" cy="1656.0" r="1.0"/>
     <text stroke="none" x="879.0" y="1656.0" font-size="20.0" font-family="helvetica">Chryseobacterium taeanense PHA3-47 (AY883416)</text>
    </g>
    <g>
     <circle stroke="black" stroke-width="0.5" fill="#aaffff" cx="885.0" cy="1406.0" r="1.0"/>
     <text stroke="none" x="885.0" y="1406.0" font-size="20.0" font-family="helvetica">Chryseobacterium aquifrigidense CW97 (EF644913)</text>
    </g>
    <g>
     <circle stroke="black" stroke-width="0.5" fill="#aaffff" cx="887.0" cy="1311.0" r="1.0"/>
     <text stroke="none" x="887.0" y="1311.0" font-size="20.0" font-family="helvetica">Chryseobacterium shigense GUM-Kaji7 (AB193101)</text>
    </g>
    <g>
     <circle stroke="black" stroke-width="0.5" fill="#aaffff" cx="909.0" cy="240.0" r="1.0"/>
     <text stroke="none" x="909.0" y="240.0" font-size="20.0" font-family="helvetica">Cbacibacterium normanense CCUG 462937 (AJ575430)</text>
    </g>
    <g>
     <circle stroke="black" stroke-width="0.5" fill="#aaffff" cx="911.0" cy="1624.0" r="1.0"/>
     <text stroke="none" x="911.0" y="1624.0" font-size="20.0" font-family="helvetica">Chryseobacterium taichungense CC-TWGS1-87 (AJ843132)</text>
    </g>
    <g>
     <circle stroke="black" stroke-width="0.5" fill="#aaffff" cx="913.0" cy="149.0" r="1.0"/>
     <text stroke="none" x="913.0" y="149.0" font-size="20.0" font-family="helvetica">Elizabethkingia meningoseptica ATCC 132537 (M58776)</text>
    </g>
    <g>
     <circle stroke="black" stroke-width="0.5" fill="#aaffff" cx="913.0" cy="714.0" r="1.0"/>
     <text stroke="none" x="913.0" y="714.0" font-size="20.0" font-family="helvetica">Chryseobacterium bovis H97 (EFQO4446)</text>
    </g>
    <g>
     <circle stroke="black" stroke-width="0.5" fill="#aaffff" cx="923.0" cy="1280.0" r="1.0"/>
     <text stroke="none" x="923.0" y="1280.0" font-size="20.0" font-family="helvetica">Chryseobacterium vrystaatense LMG 228467 (AJ871397)</text>
    </g>
    <g>
     <circle stroke="black" stroke-width="0.5" fill="#aaffff" cx="927.0" cy="303.0" r="1.0"/>
     <text stroke="none" x="927.0" y="303.0" font-size="20.0" font-family="helvetica">Riemerella anatipestifer ATCC 1 1 8457 (U1087 7)</text>
    </g>
    <g>
     <circle stroke="black" stroke-width="0.5" fill="#aaffff" cx="928.0" cy="1782.0" r="1.0"/>
     <text stroke="none" x="928.0" y="1782.0" font-size="20.0" font-family="helvetica">Chryseobacterium antarcticum AT1O137 (AY553293)</text>
    </g>
    <g>
     <circle stroke="black" stroke-width="0.5" fill="#aaffff" cx="934.0" cy="272.0" r="1.0"/>
     <text stroke="none" x="934.0" y="272.0" font-size="20.0" font-family="helvetica">Riemerella columbina LMG 1 16077 (AF181448)</text>
    </g>
    <g>
     <circle stroke="black" stroke-width="0.5" fill="#aaffff" cx="961.0" cy="117.0" r="1.0"/>
     <text stroke="none" x="961.0" y="117.0" font-size="20.0" font-family="helvetica">Wautersiella falsenii NF 9937 (AM084341)</text>
    </g>
    <g>
     <circle stroke="black" stroke-width="0.5" fill="#aaffff" cx="963.0" cy="1375.0" r="1.0"/>
     <text stroke="none" x="963.0" y="1375.0" font-size="20.0" font-family="helvetica">Chryseobacterium indologenes ATCC 298977 (M58773)</text>
    </g>
    <g>
     <circle stroke="black" stroke-width="0.5" fill="#aaffff" cx="964.0" cy="1058.0" r="1.0"/>
     <text stroke="none" x="964.0" y="1058.0" font-size="20.0" font-family="helvetica">Chryseobacterium proteolyticum' 9670 (AB039830)</text>
    </g>
    <g>
     <circle stroke="black" stroke-width="0.5" fill="#aaffff" cx="965.0" cy="85.0" r="1.0"/>
     <text stroke="none" x="965.0" y="85.0" font-size="20.0" font-family="helvetica">Empedobacter brevis LMG 401 17 (AM1 77497)</text>
    </g>
    <g>
     <circle stroke="black" stroke-width="0.5" fill="#aaffff" cx="972.0" cy="869.0" r="1.0"/>
     <text stroke="none" x="972.0" y="869.0" font-size="20.0" font-family="helvetica">Chryseobacterium indoltheticum ATCC 279507 (M58774)</text>
    </g>
    <g>
     <circle stroke="black" stroke-width="0.5" fill="#aaffff" cx="974.0" cy="932.0" r="1.0"/>
     <text stroke="none" x="974.0" y="932.0" font-size="20.0" font-family="helvetica">Chryseobacterium balustinum ATCC 334877 (M58771)</text>
    </g>
    <g>
     <circle stroke="black" stroke-width="0.5" fill="#aaffff" cx="978.0" cy="1343.0" r="1.0"/>
     <text stroke="none" x="978.0" y="1343.0" font-size="20.0" font-family="helvetica">Chryseobacterium gleum ATCC 359107 (M58772)</text>
    </g>
    <g>
     <circle stroke="black" stroke-width="0.5" fill="#aaffff" cx="981.0" cy="367.0" r="1.0"/>
     <text stroke="none" x="981.0" y="367.0" font-size="20.0" font-family="helvetica">Chryseobacterium koreense Chj7O77 (AF344179)</text>
    </g>
    <g>
     <circle stroke="black" stroke-width="0.5" fill="#aaffff" cx="994.0" cy="22.0" r="1.0"/>
     <text stroke="none" x="994.0" y="22.0" font-size="20.0" font-family="helvetica">Ornithobacterium rhinotracheale LMG 90867 (L1 9156)</text>
    </g>
    <g>
     <circle stroke="black" stroke-width="0.5" fill="#aaffff" cx="1089.0" cy="54.0" r="1.0"/>
     <text stroke="none" x="1089.0" y="54.0" font-size="20.0" font-family="helvetica">Weeksella virosa ATCC 437667 (M93152)</text>
    </g>
    <g>
     <circle stroke="black" stroke-width="0.5" fill="#aaffff" cx="1135.0" cy="1846.0" r="1.0"/>
     <text stroke="none" x="1135.0" y="1846.0" font-size="20.0" font-family="helvetica">Bacteroides fragilis ATCC 252857 (X83935)</text>
    </g>
    <g>
     <circle stroke="black" stroke-width="0.5" fill="#aaffff" cx="1141.0" cy="335.0" r="1.0"/>
     <text stroke="none" x="1141.0" y="335.0" font-size="20.0" font-family="helvetica">Bergeyella zoohelcum ATCC 437677 (M93153)</text>
    </g>
    <line stroke="black" x1="994.0" y1="22.0" x2="511.0" y2="48.0" stroke-width="0.5"/>
    <line stroke="black" x1="961.0" y1="117.0" x2="875.0" y2="101.0" stroke-width="0.5"/>
    <line stroke="black" x1="965.0" y1="85.0" x2="875.0" y2="101.0" stroke-width="0.5"/>
    <line stroke="black" x1="1089.0" y1="54.0" x2="642.0" y2="75.0" stroke-width="0.5"/>
    <line stroke="black" x1="913.0" y1="149.0" x2="684.0" y2="165.0" stroke-width="0.5"/>
    <line stroke="black" x1="744.0" y1="209.0" x2="543.0" y2="416.0" stroke-width="0.5"/>
    <line stroke="black" x1="909.0" y1="240.0" x2="691.0" y2="269.0" stroke-width="0.5"/>
    <line stroke="black" x1="927.0" y1="303.0" x2="778.0" y2="319.0" stroke-width="0.5"/>
    <line stroke="black" x1="752.0" y1="841.0" x2="716.0" y2="824.0" stroke-width="0.5"/>
    <line stroke="black" x1="767.0" y1="808.0" x2="716.0" y2="824.0" stroke-width="0.5"/>
    <line stroke="black" x1="784.0" y1="777.0" x2="695.0" y2="798.0" stroke-width="0.5"/>
    <line stroke="black" x1="815.0" y1="398.0" x2="790.0" y2="435.0" stroke-width="0.5"/>
    <line stroke="black" x1="913.0" y1="714.0" x2="725.0" y2="731.0" stroke-width="0.5"/>
    <line stroke="black" x1="841.0" y1="461.0" x2="837.0" y2="517.0" stroke-width="0.5"/>
    <line stroke="black" x1="814.0" y1="1027.0" x2="729.0" y2="1051.0" stroke-width="0.5"/>
    <line stroke="black" x1="835.0" y1="995.0" x2="712.0" y2="1023.0" stroke-width="0.5"/>
    <line stroke="black" x1="826.0" y1="901.0" x2="793.0" y2="925.0" stroke-width="0.5"/>
    <line stroke="black" x1="847.0" y1="964.0" x2="843.0" y2="947.0" stroke-width="0.5"/>
    <line stroke="black" x1="869.0" y1="1121.0" x2="686.0" y2="1210.0" stroke-width="0.5"/>
    <line stroke="black" x1="866.0" y1="1687.0" x2="755.0" y2="1703.0" stroke-width="0.5"/>
    <line stroke="black" x1="860.0" y1="1497.0" x2="742.0" y2="1526.0" stroke-width="0.5"/>
    <line stroke="black" x1="879.0" y1="1656.0" x2="801.0" y2="1641.0" stroke-width="0.5"/>
    <line stroke="black" x1="858.0" y1="1529.0" x2="770.0" y2="1554.0" stroke-width="0.5"/>
    <line stroke="black" x1="856.0" y1="1561.0" x2="793.0" y2="1576.0" stroke-width="0.5"/>
    <line stroke="black" x1="911.0" y1="1624.0" x2="801.0" y2="1641.0" stroke-width="0.5"/>
    <line stroke="black" x1="837.0" y1="1438.0" x2="789.0" y2="1421.0" stroke-width="0.5"/>
    <line stroke="black" x1="972.0" y1="869.0" x2="748.0" y2="898.0" stroke-width="0.5"/>
    <line stroke="black" x1="839.0" y1="1216.0" x2="786.0" y2="1244.0" stroke-width="0.5"/>
    <line stroke="black" x1="964.0" y1="1058.0" x2="785.0" y2="1073.0" stroke-width="0.5"/>
    <line stroke="black" x1="974.0" y1="932.0" x2="843.0" y2="947.0" stroke-width="0.5"/>
    <line stroke="black" x1="873.0" y1="1185.0" x2="793.0" y2="1170.0" stroke-width="0.5"/>
    <line stroke="black" x1="885.0" y1="1406.0" x2="789.0" y2="1421.0" stroke-width="0.5"/>
    <line stroke="black" x1="869.0" y1="1248.0" x2="801.0" y2="1270.0" stroke-width="0.5"/>
    <line stroke="black" x1="887.0" y1="1311.0" x2="829.0" y2="1295.0" stroke-width="0.5"/>
    <line stroke="black" x1="963.0" y1="1375.0" x2="845.0" y2="1359.0" stroke-width="0.5"/>
    <line stroke="black" x1="923.0" y1="1280.0" x2="829.0" y2="1295.0" stroke-width="0.5"/>
    <line stroke="black" x1="511.0" y1="48.0" x2="347.0" y2="171.0" stroke-width="0.5"/>
    <line stroke="black" x1="511.0" y1="48.0" x2="642.0" y2="75.0" stroke-width="0.5"/>
    <line stroke="black" x1="642.0" y1="75.0" x2="875.0" y2="101.0" stroke-width="0.5"/>
    <line stroke="black" x1="347.0" y1="171.0" x2="490.0" y2="290.0" stroke-width="0.5"/>
    <line stroke="black" x1="490.0" y1="290.0" x2="543.0" y2="416.0" stroke-width="0.5"/>
    <line stroke="black" x1="490.0" y1="290.0" x2="684.0" y2="165.0" stroke-width="0.5"/>
    <line stroke="black" x1="543.0" y1="416.0" x2="611.0" y2="625.0" stroke-width="0.5"/>
    <line stroke="black" x1="611.0" y1="625.0" x2="636.0" y2="982.0" stroke-width="0.5"/>
    <line stroke="black" x1="611.0" y1="625.0" x2="691.0" y2="269.0" stroke-width="0.5"/>
    <line stroke="black" x1="636.0" y1="982.0" x2="640.0" y2="1380.0" stroke-width="0.5"/>
    <line stroke="black" x1="636.0" y1="982.0" x2="668.0" y2="582.0" stroke-width="0.5"/>
    <line stroke="black" x1="691.0" y1="269.0" x2="731.0" y2="296.0" stroke-width="0.5"/>
    <line stroke="black" x1="731.0" y1="296.0" x2="778.0" y2="319.0" stroke-width="0.5"/>
    <line stroke="black" x1="640.0" y1="1380.0" x2="652.0" y2="1677.0" stroke-width="0.5"/>
    <line stroke="black" x1="640.0" y1="1380.0" x2="655.0" y2="1084.0" stroke-width="0.5"/>
    <line stroke="black" x1="668.0" y1="582.0" x2="680.0" y2="764.0" stroke-width="0.5"/>
    <line stroke="black" x1="668.0" y1="582.0" x2="733.0" y2="402.0" stroke-width="0.5"/>
    <line stroke="black" x1="680.0" y1="764.0" x2="695.0" y2="798.0" stroke-width="0.5"/>
    <line stroke="black" x1="680.0" y1="764.0" x2="725.0" y2="731.0" stroke-width="0.5"/>
    <line stroke="black" x1="695.0" y1="798.0" x2="716.0" y2="824.0" stroke-width="0.5"/>
    <line stroke="black" x1="733.0" y1="402.0" x2="790.0" y2="435.0" stroke-width="0.5"/>
    <line stroke="black" x1="652.0" y1="1677.0" x2="676.0" y2="1772.0" stroke-width="0.5"/>
    <line stroke="black" x1="652.0" y1="1677.0" x2="693.0" y2="1584.0" stroke-width="0.5"/>
    <line stroke="black" x1="655.0" y1="1084.0" x2="686.0" y2="1210.0" stroke-width="0.5"/>
    <line stroke="black" x1="655.0" y1="1084.0" x2="693.0" y2="961.0" stroke-width="0.5"/>
    <line stroke="black" x1="790.0" y1="435.0" x2="824.0" y2="473.0" stroke-width="0.5"/>
    <line stroke="black" x1="676.0" y1="1772.0" x2="805.0" y2="1797.0" stroke-width="0.5"/>
    <line stroke="black" x1="824.0" y1="473.0" x2="833.0" y2="517.0" stroke-width="0.5"/>
    <line stroke="black" x1="693.0" y1="1584.0" x2="710.0" y2="1671.0" stroke-width="0.5"/>
    <line stroke="black" x1="693.0" y1="1584.0" x2="722.0" y2="1498.0" stroke-width="0.5"/>
    <line stroke="black" x1="686.0" y1="1210.0" x2="748.0" y2="1298.0" stroke-width="0.5"/>
    <line stroke="black" x1="693.0" y1="961.0" x2="712.0" y2="1023.0" stroke-width="0.5"/>
    <line stroke="black" x1="693.0" y1="961.0" x2="748.0" y2="898.0" stroke-width="0.5"/>
    <line stroke="black" x1="833.0" y1="517.0" x2="837.0" y2="517.0" stroke-width="0.5"/>
    <line stroke="black" x1="833.0" y1="517.0" x2="837.0" y2="517.0" stroke-width="0.5"/>
    <line stroke="black" x1="837.0" y1="517.0" x2="845.0" y2="587.0" stroke-width="0.5"/>
    <line stroke="black" x1="710.0" y1="1671.0" x2="755.0" y2="1703.0" stroke-width="0.5"/>
    <line stroke="black" x1="710.0" y1="1671.0" x2="801.0" y2="1641.0" stroke-width="0.5"/>
    <line stroke="black" x1="712.0" y1="1023.0" x2="729.0" y2="1051.0" stroke-width="0.5"/>
    <line stroke="black" x1="845.0" y1="587.0" x2="847.0" y2="556.0" stroke-width="0.5"/>
    <line stroke="black" x1="722.0" y1="1498.0" x2="742.0" y2="1526.0" stroke-width="0.5"/>
    <line stroke="black" x1="847.0" y1="556.0" x2="847.0" y2="556.0" stroke-width="0.5"/>
    <line stroke="black" x1="748.0" y1="898.0" x2="793.0" y2="925.0" stroke-width="0.5"/>
    <line stroke="black" x1="729.0" y1="1051.0" x2="785.0" y2="1073.0" stroke-width="0.5"/>
    <line stroke="black" x1="742.0" y1="1526.0" x2="770.0" y2="1554.0" stroke-width="0.5"/>
    <line stroke="black" x1="748.0" y1="1298.0" x2="763.0" y2="1390.0" stroke-width="0.5"/>
    <line stroke="black" x1="748.0" y1="1298.0" x2="778.0" y2="1208.0" stroke-width="0.5"/>
    <line stroke="black" x1="770.0" y1="1554.0" x2="793.0" y2="1576.0" stroke-width="0.5"/>
    <line stroke="black" x1="793.0" y1="925.0" x2="843.0" y2="947.0" stroke-width="0.5"/>
    <line stroke="black" x1="763.0" y1="1390.0" x2="789.0" y2="1421.0" stroke-width="0.5"/>
    <line stroke="black" x1="763.0" y1="1390.0" x2="845.0" y2="1359.0" stroke-width="0.5"/>
    <line stroke="black" x1="778.0" y1="1208.0" x2="786.0" y2="1244.0" stroke-width="0.5"/>
    <line stroke="black" x1="778.0" y1="1208.0" x2="793.0" y2="1170.0" stroke-width="0.5"/>
    <line stroke="black" x1="786.0" y1="1244.0" x2="801.0" y2="1270.0" stroke-width="0.5"/>
    <line stroke="black" x1="801.0" y1="1270.0" x2="829.0" y2="1295.0" stroke-width="0.5"/>
    <line stroke="black" x1="1135.0" y1="1846.0" x2="347.0" y2="171.0" stroke-width="0.5"/>
    <line stroke="black" x1="788.0" y1="1751.0" x2="676.0" y2="1772.0" stroke-width="0.5"/>
    <line stroke="black" x1="809.0" y1="180.0" x2="684.0" y2="165.0" stroke-width="0.5"/>
    <line stroke="black" x1="814.0" y1="1469.0" x2="722.0" y2="1498.0" stroke-width="0.5"/>
    <line stroke="black" x1="866.0" y1="746.0" x2="725.0" y2="731.0" stroke-width="0.5"/>
    <line stroke="black" x1="864.0" y1="1719.0" x2="755.0" y2="1703.0" stroke-width="0.5"/>
    <line stroke="black" x1="934.0" y1="272.0" x2="731.0" y2="296.0" stroke-width="0.5"/>
    <line stroke="black" x1="841.0" y1="1090.0" x2="785.0" y2="1073.0" stroke-width="0.5"/>
    <line stroke="black" x1="852.0" y1="1593.0" x2="793.0" y2="1576.0" stroke-width="0.5"/>
    <line stroke="black" x1="981.0" y1="367.0" x2="733.0" y2="402.0" stroke-width="0.5"/>
    <line stroke="black" x1="875.0" y1="1153.0" x2="793.0" y2="1170.0" stroke-width="0.5"/>
    <line stroke="black" x1="875.0" y1="1814.0" x2="805.0" y2="1797.0" stroke-width="0.5"/>
    <line stroke="black" x1="841.0" y1="430.0" x2="824.0" y2="473.0" stroke-width="0.5"/>
    <line stroke="black" x1="928.0" y1="1782.0" x2="805.0" y2="1797.0" stroke-width="0.5"/>
    <line stroke="black" x1="848.0" y1="683.0" x2="845.0" y2="587.0" stroke-width="0.5"/>
    <line stroke="black" x1="978.0" y1="1343.0" x2="845.0" y2="1359.0" stroke-width="0.5"/>
    <line stroke="black" x1="1141.0" y1="335.0" x2="778.0" y2="319.0" stroke-width="0.5"/>
   </g>
  </g>
 </svg>
</svg>
