<?xml version="1.0" encoding="UTF-8"?>
<svg height="800.0" width="700.0" xmlns="http://www.w3.org/2000/svg">
 <svg>
  <g>
   <g>
    <g>
     <circle stroke="black" stroke-width="0.5" fill="#aaffff" cx="80.0" cy="968.0" r="1.0"/>
     <text stroke="none" x="80.0" y="968.0" font-size="10.0" font-family="helvetica">NT1.1</text>
    </g>
    <g>
     <circle stroke="black" stroke-width="0.5" fill="#aaffff" cx="113.0" cy="784.0" r="1.0"/>
     <text stroke="none" x="113.0" y="784.0" font-size="10.0" font-family="helvetica">NT1.2</text>
    </g>
    <g>
     <circle stroke="black" stroke-width="0.5" fill="#aaffff" cx="145.0" cy="536.0" r="1.0"/>
     <text stroke="none" x="145.0" y="536.0" font-size="10.0" font-family="helvetica">NT1.3</text>
    </g>
    <g>
     <circle stroke="black" stroke-width="0.5" fill="#aaffff" cx="151.0" cy="836.0" r="1.0"/>
     <text stroke="none" x="151.0" y="836.0" font-size="10.0" font-family="helvetica">NT1.4</text>
    </g>
    <g>
     <circle stroke="black" stroke-width="0.5" fill="#aaffff" cx="162.0" cy="1352.0" r="1.0"/>
     <text stroke="none" x="162.0" y="1352.0" font-size="20.0" font-family="helvetica">100</text>
    </g>
    <g>
     <circle stroke="black" stroke-width="0.5" fill="#aaffff" cx="207.0" cy="237.0" r="1.0"/>
     <text stroke="none" x="207.0" y="237.0" font-size="20.0" font-family="helvetica">100</text>
    </g>
    <g>
     <circle stroke="black" stroke-width="0.5" fill="#aaffff" cx="232.0" cy="132.0" r="1.0"/>
     <text stroke="none" x="232.0" y="132.0" font-size="10.0" font-family="helvetica">NT1.7</text>
    </g>
    <g>
     <circle stroke="black" stroke-width="0.5" fill="#aaffff" cx="238.0" cy="320.0" r="1.0"/>
     <text stroke="none" x="238.0" y="320.0" font-size="20.0" font-family="helvetica"/>
    </g>
    <g>
     <circle stroke="black" stroke-width="0.5" fill="#aaffff" cx="242.0" cy="63.0" r="1.0"/>
     <text stroke="none" x="242.0" y="63.0" font-size="20.0" font-family="helvetica">48</text>
    </g>
    <g>
     <circle stroke="black" stroke-width="0.5" fill="#aaffff" cx="244.0" cy="331.0" r="1.0"/>
     <text stroke="none" x="244.0" y="331.0" font-size="10.0" font-family="helvetica">NT1.10</text>
    </g>
    <g>
     <circle stroke="black" stroke-width="0.5" fill="#aaffff" cx="247.0" cy="356.0" r="1.0"/>
     <text stroke="none" x="247.0" y="356.0" font-size="20.0" font-family="helvetica"/>
    </g>
    <g>
     <circle stroke="black" stroke-width="0.5" fill="#aaffff" cx="250.0" cy="352.0" r="1.0"/>
     <text stroke="none" x="250.0" y="352.0" font-size="20.0" font-family="helvetica"/>
    </g>
    <g>
     <circle stroke="black" stroke-width="0.5" fill="#aaffff" cx="253.0" cy="353.0" r="1.0"/>
     <text stroke="none" x="253.0" y="353.0" font-size="20.0" font-family="helvetica"/>
    </g>
    <g>
     <circle stroke="black" stroke-width="0.5" fill="#aaffff" cx="254.0" cy="415.0" r="1.0"/>
     <text stroke="none" x="254.0" y="415.0" font-size="20.0" font-family="helvetica">57</text>
    </g>
    <g>
     <circle stroke="black" stroke-width="0.5" fill="#aaffff" cx="254.0" cy="693.0" r="1.0"/>
     <text stroke="none" x="254.0" y="693.0" font-size="10.0" font-family="helvetica">NT1.15</text>
    </g>
    <g>
     <circle stroke="black" stroke-width="0.5" fill="#aaffff" cx="258.0" cy="1149.0" r="1.0"/>
     <text stroke="none" x="258.0" y="1149.0" font-size="10.0" font-family="helvetica">NT1.16</text>
    </g>
    <g>
     <circle stroke="black" stroke-width="0.5" fill="#aaffff" cx="263.0" cy="352.0" r="1.0"/>
     <text stroke="none" x="263.0" y="352.0" font-size="10.0" font-family="helvetica">NT1.17</text>
    </g>
    <g>
     <circle stroke="black" stroke-width="0.5" fill="#aaffff" cx="267.0" cy="336.0" r="1.0"/>
     <text stroke="none" x="267.0" y="336.0" font-size="10.0" font-family="helvetica">NT1.18</text>
    </g>
    <g>
     <circle stroke="black" stroke-width="0.5" fill="#aaffff" cx="270.0" cy="470.0" r="1.0"/>
     <text stroke="none" x="270.0" y="470.0" font-size="20.0" font-family="helvetica">81</text>
    </g>
    <g>
     <circle stroke="black" stroke-width="0.5" fill="#aaffff" cx="270.0" cy="813.0" r="1.0"/>
     <text stroke="none" x="270.0" y="813.0" font-size="10.0" font-family="helvetica">NT1.20</text>
    </g>
    <g>
     <circle stroke="black" stroke-width="0.5" fill="#aaffff" cx="284.0" cy="198.0" r="1.0"/>
     <text stroke="none" x="284.0" y="198.0" font-size="10.0" font-family="helvetica">NT1.21</text>
    </g>
    <g>
     <circle stroke="black" stroke-width="0.5" fill="#aaffff" cx="295.0" cy="716.0" r="1.0"/>
     <text stroke="none" x="295.0" y="716.0" font-size="10.0" font-family="helvetica">NT1.22</text>
    </g>
    <g>
     <circle stroke="black" stroke-width="0.5" fill="#aaffff" cx="312.0" cy="13.0" r="1.0"/>
     <text stroke="none" x="312.0" y="13.0" font-size="20.0" font-family="helvetica">En ae</text>
    </g>
    <g>
     <circle stroke="black" stroke-width="0.5" fill="#aaffff" cx="322.0" cy="352.0" r="1.0"/>
     <text stroke="none" x="322.0" y="352.0" font-size="20.0" font-family="helvetica">Bacsub</text>
    </g>
    <g>
     <circle stroke="black" stroke-width="0.5" fill="#aaffff" cx="323.0" cy="1370.0" r="1.0"/>
     <text stroke="none" x="323.0" y="1370.0" font-size="20.0" font-family="helvetica">Synsp</text>
    </g>
    <g>
     <circle stroke="black" stroke-width="0.5" fill="#aaffff" cx="323.0" cy="504.0" r="1.0"/>
     <text stroke="none" x="323.0" y="504.0" font-size="20.0" font-family="helvetica">100</text>
    </g>
    <g>
     <circle stroke="black" stroke-width="0.5" fill="#aaffff" cx="324.0" cy="522.0" r="1.0"/>
     <text stroke="none" x="324.0" y="522.0" font-size="20.0" font-family="helvetica">Bacant</text>
    </g>
    <g>
     <circle stroke="black" stroke-width="0.5" fill="#aaffff" cx="324.0" cy="487.0" r="1.0"/>
     <text stroke="none" x="324.0" y="487.0" font-size="20.0" font-family="helvetica"/>
    </g>
    <g>
     <circle stroke="black" stroke-width="0.5" fill="#aaffff" cx="326.0" cy="386.0" r="1.0"/>
     <text stroke="none" x="326.0" y="386.0" font-size="20.0" font-family="helvetica">Bachal</text>
    </g>
    <g>
     <circle stroke="black" stroke-width="0.5" fill="#aaffff" cx="328.0" cy="110.0" r="1.0"/>
     <text stroke="none" x="328.0" y="110.0" font-size="10.0" font-family="helvetica">NT1.30</text>
    </g>
    <g>
     <circle stroke="black" stroke-width="0.5" fill="#aaffff" cx="333.0" cy="268.0" r="1.0"/>
     <text stroke="none" x="333.0" y="268.0" font-size="20.0" font-family="helvetica">100</text>
    </g>
    <g>
     <circle stroke="black" stroke-width="0.5" fill="#aaffff" cx="333.0" cy="979.0" r="1.0"/>
     <text stroke="none" x="333.0" y="979.0" font-size="20.0" font-family="helvetica">100</text>
    </g>
    <g>
     <circle stroke="black" stroke-width="0.5" fill="#aaffff" cx="333.0" cy="1217.0" r="1.0"/>
     <text stroke="none" x="333.0" y="1217.0" font-size="10.0" font-family="helvetica">NT1.33</text>
    </g>
    <g>
     <circle stroke="black" stroke-width="0.5" fill="#aaffff" cx="336.0" cy="284.0" r="1.0"/>
     <text stroke="none" x="336.0" y="284.0" font-size="20.0" font-family="helvetica">Lisinn</text>
    </g>
    <g>
     <circle stroke="black" stroke-width="0.5" fill="#aaffff" cx="337.0" cy="318.0" r="1.0"/>
     <text stroke="none" x="337.0" y="318.0" font-size="20.0" font-family="helvetica">Oceihe</text>
    </g>
    <g>
     <circle stroke="black" stroke-width="0.5" fill="#aaffff" cx="340.0" cy="250.0" r="1.0"/>
     <text stroke="none" x="340.0" y="250.0" font-size="20.0" font-family="helvetica">Lismon</text>
    </g>
    <g>
     <circle stroke="black" stroke-width="0.5" fill="#aaffff" cx="352.0" cy="1031.0" r="1.0"/>
     <text stroke="none" x="352.0" y="1031.0" font-size="20.0" font-family="helvetica">Theten</text>
    </g>
    <g>
     <circle stroke="black" stroke-width="0.5" fill="#aaffff" cx="352.0" cy="650.0" r="1.0"/>
     <text stroke="none" x="352.0" y="650.0" font-size="10.0" font-family="helvetica">NT1.38</text>
    </g>
    <g>
     <circle stroke="black" stroke-width="0.5" fill="#aaffff" cx="352.0" cy="1082.0" r="1.0"/>
     <text stroke="none" x="352.0" y="1082.0" font-size="10.0" font-family="helvetica">NT1.39</text>
    </g>
    <g>
     <circle stroke="black" stroke-width="0.5" fill="#aaffff" cx="371.0" cy="1336.0" r="1.0"/>
     <text stroke="none" x="371.0" y="1336.0" font-size="20.0" font-family="helvetica"/>
    </g>
    <g>
     <circle stroke="black" stroke-width="0.5" fill="#aaffff" cx="371.0" cy="1159.0" r="1.0"/>
     <text stroke="none" x="371.0" y="1159.0" font-size="10.0" font-family="helvetica">NT1.41</text>
    </g>
    <g>
     <circle stroke="black" stroke-width="0.5" fill="#aaffff" cx="377.0" cy="1099.0" r="1.0"/>
     <text stroke="none" x="377.0" y="1099.0" font-size="20.0" font-family="helvetica">Strcoe</text>
    </g>
    <g>
     <circle stroke="black" stroke-width="0.5" fill="#aaffff" cx="380.0" cy="73.0" r="1.0"/>
     <text stroke="none" x="380.0" y="73.0" font-size="10.0" font-family="helvetica">NT1.43</text>
    </g>
    <g>
     <circle stroke="black" stroke-width="0.5" fill="#aaffff" cx="383.0" cy="438.0" r="1.0"/>
     <text stroke="none" x="383.0" y="438.0" font-size="20.0" font-family="helvetica">100</text>
    </g>
    <g>
     <circle stroke="black" stroke-width="0.5" fill="#aaffff" cx="390.0" cy="454.0" r="1.0"/>
     <text stroke="none" x="390.0" y="454.0" font-size="20.0" font-family="helvetica">Staaur</text>
    </g>
    <g>
     <circle stroke="black" stroke-width="0.5" fill="#aaffff" cx="390.0" cy="420.0" r="1.0"/>
     <text stroke="none" x="390.0" y="420.0" font-size="20.0" font-family="helvetica">Staepi</text>
    </g>
    <g>
     <circle stroke="black" stroke-width="0.5" fill="#aaffff" cx="390.0" cy="1065.0" r="1.0"/>
     <text stroke="none" x="390.0" y="1065.0" font-size="20.0" font-family="helvetica">Strave</text>
    </g>
    <g>
     <circle stroke="black" stroke-width="0.5" fill="#aaffff" cx="392.0" cy="182.0" r="1.0"/>
     <text stroke="none" x="392.0" y="182.0" font-size="20.0" font-family="helvetica">Lacpla</text>
    </g>
    <g>
     <circle stroke="black" stroke-width="0.5" fill="#aaffff" cx="398.0" cy="97.0" r="1.0"/>
     <text stroke="none" x="398.0" y="97.0" font-size="10.0" font-family="helvetica">NT1.49</text>
    </g>
    <g>
     <circle stroke="black" stroke-width="0.5" fill="#aaffff" cx="398.0" cy="1183.0" r="1.0"/>
     <text stroke="none" x="398.0" y="1183.0" font-size="10.0" font-family="helvetica">NT1.50</text>
    </g>
    <g>
     <circle stroke="black" stroke-width="0.5" fill="#aaffff" cx="406.0" cy="216.0" r="1.0"/>
     <text stroke="none" x="406.0" y="216.0" font-size="20.0" font-family="helvetica">Lacjoh</text>
    </g>
    <g>
     <circle stroke="black" stroke-width="0.5" fill="#aaffff" cx="414.0" cy="115.0" r="1.0"/>
     <text stroke="none" x="414.0" y="115.0" font-size="20.0" font-family="helvetica">Straga</text>
    </g>
    <g>
     <circle stroke="black" stroke-width="0.5" fill="#aaffff" cx="414.0" cy="1200.0" r="1.0"/>
     <text stroke="none" x="414.0" y="1200.0" font-size="20.0" font-family="helvetica">Corglu</text>
    </g>
    <g>
     <circle stroke="black" stroke-width="0.5" fill="#aaffff" cx="414.0" cy="1166.0" r="1.0"/>
     <text stroke="none" x="414.0" y="1166.0" font-size="20.0" font-family="helvetica">Coreff</text>
    </g>
    <g>
     <circle stroke="black" stroke-width="0.5" fill="#aaffff" cx="420.0" cy="997.0" r="1.0"/>
     <text stroke="none" x="420.0" y="997.0" font-size="20.0" font-family="helvetica">Cloper</text>
    </g>
    <g>
     <circle stroke="black" stroke-width="0.5" fill="#aaffff" cx="422.0" cy="80.0" r="1.0"/>
     <text stroke="none" x="422.0" y="80.0" font-size="20.0" font-family="helvetica">Strpyo</text>
    </g>
    <g>
     <circle stroke="black" stroke-width="0.5" fill="#aaffff" cx="424.0" cy="1132.0" r="1.0"/>
     <text stroke="none" x="424.0" y="1132.0" font-size="20.0" font-family="helvetica">Cordip</text>
    </g>
    <g>
     <circle stroke="black" stroke-width="0.5" fill="#aaffff" cx="429.0" cy="47.0" r="1.0"/>
     <text stroke="none" x="429.0" y="47.0" font-size="20.0" font-family="helvetica">Strpne</text>
    </g>
    <g>
     <circle stroke="black" stroke-width="0.5" fill="#aaffff" cx="434.0" cy="148.0" r="1.0"/>
     <text stroke="none" x="434.0" y="148.0" font-size="20.0" font-family="helvetica">Laclac</text>
    </g>
    <g>
     <circle stroke="black" stroke-width="0.5" fill="#aaffff" cx="437.0" cy="1276.0" r="1.0"/>
     <text stroke="none" x="437.0" y="1276.0" font-size="10.0" font-family="helvetica">NT1.60</text>
    </g>
    <g>
     <circle stroke="black" stroke-width="0.5" fill="#aaffff" cx="447.0" cy="674.0" r="1.0"/>
     <text stroke="none" x="447.0" y="674.0" font-size="10.0" font-family="helvetica">NT1.61</text>
    </g>
    <g>
     <circle stroke="black" stroke-width="0.5" fill="#aaffff" cx="448.0" cy="911.0" r="1.0"/>
     <text stroke="none" x="448.0" y="911.0" font-size="10.0" font-family="helvetica">NT1.62</text>
    </g>
    <g>
     <circle stroke="black" stroke-width="0.5" fill="#aaffff" cx="453.0" cy="1302.0" r="1.0"/>
     <text stroke="none" x="453.0" y="1302.0" font-size="20.0" font-family="helvetica">Myclep</text>
    </g>
    <g>
     <circle stroke="black" stroke-width="0.5" fill="#aaffff" cx="453.0" cy="1252.0" r="1.0"/>
     <text stroke="none" x="453.0" y="1252.0" font-size="20.0" font-family="helvetica">100</text>
    </g>
    <g>
     <circle stroke="black" stroke-width="0.5" fill="#aaffff" cx="454.0" cy="1269.0" r="1.0"/>
     <text stroke="none" x="454.0" y="1269.0" font-size="20.0" font-family="helvetica">Myctub</text>
    </g>
    <g>
     <circle stroke="black" stroke-width="0.5" fill="#aaffff" cx="454.0" cy="1234.0" r="1.0"/>
     <text stroke="none" x="454.0" y="1234.0" font-size="20.0" font-family="helvetica">Mycbov</text>
    </g>
    <g>
     <circle stroke="black" stroke-width="0.5" fill="#aaffff" cx="468.0" cy="963.0" r="1.0"/>
     <text stroke="none" x="468.0" y="963.0" font-size="20.0" font-family="helvetica">Cloace</text>
    </g>
    <g>
     <circle stroke="black" stroke-width="0.5" fill="#aaffff" cx="504.0" cy="692.0" r="1.0"/>
     <text stroke="none" x="504.0" y="692.0" font-size="20.0" font-family="helvetica"/>
    </g>
    <g>
     <circle stroke="black" stroke-width="0.5" fill="#aaffff" cx="517.0" cy="658.0" r="1.0"/>
     <text stroke="none" x="517.0" y="658.0" font-size="20.0" font-family="helvetica"/>
    </g>
    <g>
     <circle stroke="black" stroke-width="0.5" fill="#aaffff" cx="533.0" cy="779.0" r="1.0"/>
     <text stroke="none" x="533.0" y="779.0" font-size="10.0" font-family="helvetica">NT1.70</text>
    </g>
    <g>
     <circle stroke="black" stroke-width="0.5" fill="#aaffff" cx="542.0" cy="623.0" r="1.0"/>
     <text stroke="none" x="542.0" y="623.0" font-size="20.0" font-family="helvetica"/>
    </g>
    <g>
     <circle stroke="black" stroke-width="0.5" fill="#aaffff" cx="544.0" cy="743.0" r="1.0"/>
     <text stroke="none" x="544.0" y="743.0" font-size="10.0" font-family="helvetica">NT1.72</text>
    </g>
    <g>
     <circle stroke="black" stroke-width="0.5" fill="#aaffff" cx="580.0" cy="573.0" r="1.0"/>
     <text stroke="none" x="580.0" y="573.0" font-size="20.0" font-family="helvetica">100</text>
    </g>
    <g>
     <circle stroke="black" stroke-width="0.5" fill="#aaffff" cx="581.0" cy="590.0" r="1.0"/>
     <text stroke="none" x="581.0" y="590.0" font-size="20.0" font-family="helvetica"/>
    </g>
    <g>
     <circle stroke="black" stroke-width="0.5" fill="#aaffff" cx="587.0" cy="555.0" r="1.0"/>
     <text stroke="none" x="587.0" y="555.0" font-size="20.0" font-family="helvetica">Astyel</text>
    </g>
    <g>
     <circle stroke="black" stroke-width="0.5" fill="#aaffff" cx="598.0" cy="817.0" r="1.0"/>
     <text stroke="none" x="598.0" y="817.0" font-size="10.0" font-family="helvetica">NT1.76</text>
    </g>
    <g>
     <circle stroke="black" stroke-width="0.5" fill="#aaffff" cx="662.0" cy="929.0" r="1.0"/>
     <text stroke="none" x="662.0" y="929.0" font-size="20.0" font-family="helvetica"/>
    </g>
    <g>
     <circle stroke="black" stroke-width="0.5" fill="#aaffff" cx="671.0" cy="895.0" r="1.0"/>
     <text stroke="none" x="671.0" y="895.0" font-size="20.0" font-family="helvetica">Mycmob</text>
    </g>
    <g>
     <circle stroke="black" stroke-width="0.5" fill="#aaffff" cx="703.0" cy="793.0" r="1.0"/>
     <text stroke="none" x="703.0" y="793.0" font-size="20.0" font-family="helvetica">Mycgal</text>
    </g>
    <g>
     <circle stroke="black" stroke-width="0.5" fill="#aaffff" cx="716.0" cy="843.0" r="1.0"/>
     <text stroke="none" x="716.0" y="843.0" font-size="10.0" font-family="helvetica">NT1.80</text>
    </g>
    <g>
     <circle stroke="black" stroke-width="0.5" fill="#aaffff" cx="735.0" cy="861.0" r="1.0"/>
     <text stroke="none" x="735.0" y="861.0" font-size="20.0" font-family="helvetica">Mycpne</text>
    </g>
    <g>
     <circle stroke="black" stroke-width="0.5" fill="#aaffff" cx="740.0" cy="760.0" r="1.0"/>
     <text stroke="none" x="740.0" y="760.0" font-size="20.0" font-family="helvetica">Mycpen</text>
    </g>
    <g>
     <circle stroke="black" stroke-width="0.5" fill="#aaffff" cx="742.0" cy="827.0" r="1.0"/>
     <text stroke="none" x="742.0" y="827.0" font-size="20.0" font-family="helvetica">Mycgen</text>
    </g>
    <g>
     <circle stroke="black" stroke-width="0.5" fill="#aaffff" cx="767.0" cy="725.0" r="1.0"/>
     <text stroke="none" x="767.0" y="725.0" font-size="20.0" font-family="helvetica">Urepar</text>
    </g>
    <line stroke="black" x1="434.0" y1="148.0" x2="328.0" y2="110.0" stroke-width="0.5"/>
    <line stroke="black" x1="414.0" y1="115.0" x2="398.0" y2="97.0" stroke-width="0.5"/>
    <line stroke="black" x1="422.0" y1="80.0" x2="398.0" y2="97.0" stroke-width="0.5"/>
    <line stroke="black" x1="392.0" y1="182.0" x2="284.0" y2="198.0" stroke-width="0.5"/>
    <line stroke="black" x1="406.0" y1="216.0" x2="284.0" y2="198.0" stroke-width="0.5"/>
    <line stroke="black" x1="250.0" y1="352.0" x2="244.0" y2="331.0" stroke-width="0.5"/>
    <line stroke="black" x1="247.0" y1="356.0" x2="244.0" y2="331.0" stroke-width="0.5"/>
    <line stroke="black" x1="238.0" y1="320.0" x2="244.0" y2="331.0" stroke-width="0.5"/>
    <line stroke="black" x1="253.0" y1="353.0" x2="263.0" y2="352.0" stroke-width="0.5"/>
    <line stroke="black" x1="324.0" y1="522.0" x2="323.0" y2="504.0" stroke-width="0.5"/>
    <line stroke="black" x1="324.0" y1="487.0" x2="323.0" y2="504.0" stroke-width="0.5"/>
    <line stroke="black" x1="337.0" y1="318.0" x2="267.0" y2="336.0" stroke-width="0.5"/>
    <line stroke="black" x1="390.0" y1="454.0" x2="383.0" y2="438.0" stroke-width="0.5"/>
    <line stroke="black" x1="420.0" y1="997.0" x2="333.0" y2="979.0" stroke-width="0.5"/>
    <line stroke="black" x1="352.0" y1="1031.0" x2="113.0" y2="784.0" stroke-width="0.5"/>
    <line stroke="black" x1="581.0" y1="590.0" x2="580.0" y2="573.0" stroke-width="0.5"/>
    <line stroke="black" x1="587.0" y1="555.0" x2="580.0" y2="573.0" stroke-width="0.5"/>
    <line stroke="black" x1="377.0" y1="1099.0" x2="352.0" y2="1082.0" stroke-width="0.5"/>
    <line stroke="black" x1="390.0" y1="1065.0" x2="352.0" y2="1082.0" stroke-width="0.5"/>
    <line stroke="black" x1="504.0" y1="692.0" x2="447.0" y2="674.0" stroke-width="0.5"/>
    <line stroke="black" x1="542.0" y1="623.0" x2="352.0" y2="650.0" stroke-width="0.5"/>
    <line stroke="black" x1="414.0" y1="1200.0" x2="398.0" y2="1183.0" stroke-width="0.5"/>
    <line stroke="black" x1="453.0" y1="1302.0" x2="437.0" y2="1276.0" stroke-width="0.5"/>
    <line stroke="black" x1="454.0" y1="1269.0" x2="453.0" y2="1252.0" stroke-width="0.5"/>
    <line stroke="black" x1="454.0" y1="1234.0" x2="453.0" y2="1252.0" stroke-width="0.5"/>
    <line stroke="black" x1="323.0" y1="1370.0" x2="162.0" y2="1352.0" stroke-width="0.5"/>
    <line stroke="black" x1="703.0" y1="793.0" x2="598.0" y2="817.0" stroke-width="0.5"/>
    <line stroke="black" x1="371.0" y1="1336.0" x2="162.0" y2="1352.0" stroke-width="0.5"/>
    <line stroke="black" x1="740.0" y1="760.0" x2="544.0" y2="743.0" stroke-width="0.5"/>
    <line stroke="black" x1="767.0" y1="725.0" x2="544.0" y2="743.0" stroke-width="0.5"/>
    <line stroke="black" x1="242.0" y1="63.0" x2="232.0" y2="132.0" stroke-width="0.5"/>
    <line stroke="black" x1="242.0" y1="63.0" x2="328.0" y2="110.0" stroke-width="0.5"/>
    <line stroke="black" x1="232.0" y1="132.0" x2="207.0" y2="237.0" stroke-width="0.5"/>
    <line stroke="black" x1="232.0" y1="132.0" x2="284.0" y2="198.0" stroke-width="0.5"/>
    <line stroke="black" x1="328.0" y1="110.0" x2="380.0" y2="73.0" stroke-width="0.5"/>
    <line stroke="black" x1="207.0" y1="237.0" x2="145.0" y2="536.0" stroke-width="0.5"/>
    <line stroke="black" x1="207.0" y1="237.0" x2="244.0" y2="331.0" stroke-width="0.5"/>
    <line stroke="black" x1="380.0" y1="73.0" x2="398.0" y2="97.0" stroke-width="0.5"/>
    <line stroke="black" x1="244.0" y1="331.0" x2="244.0" y2="331.0" stroke-width="0.5"/>
    <line stroke="black" x1="244.0" y1="331.0" x2="254.0" y2="415.0" stroke-width="0.5"/>
    <line stroke="black" x1="244.0" y1="331.0" x2="244.0" y2="331.0" stroke-width="0.5"/>
    <line stroke="black" x1="244.0" y1="331.0" x2="333.0" y2="268.0" stroke-width="0.5"/>
    <line stroke="black" x1="254.0" y1="415.0" x2="270.0" y2="470.0" stroke-width="0.5"/>
    <line stroke="black" x1="254.0" y1="415.0" x2="263.0" y2="352.0" stroke-width="0.5"/>
    <line stroke="black" x1="263.0" y1="352.0" x2="263.0" y2="352.0" stroke-width="0.5"/>
    <line stroke="black" x1="263.0" y1="352.0" x2="267.0" y2="336.0" stroke-width="0.5"/>
    <line stroke="black" x1="270.0" y1="470.0" x2="323.0" y2="504.0" stroke-width="0.5"/>
    <line stroke="black" x1="270.0" y1="470.0" x2="383.0" y2="438.0" stroke-width="0.5"/>
    <line stroke="black" x1="333.0" y1="268.0" x2="336.0" y2="284.0" stroke-width="0.5"/>
    <line stroke="black" x1="145.0" y1="536.0" x2="113.0" y2="784.0" stroke-width="0.5"/>
    <line stroke="black" x1="145.0" y1="536.0" x2="151.0" y2="836.0" stroke-width="0.5"/>
    <line stroke="black" x1="113.0" y1="784.0" x2="80.0" y2="968.0" stroke-width="0.5"/>
    <line stroke="black" x1="151.0" y1="836.0" x2="333.0" y2="979.0" stroke-width="0.5"/>
    <line stroke="black" x1="151.0" y1="836.0" x2="254.0" y2="693.0" stroke-width="0.5"/>
    <line stroke="black" x1="80.0" y1="968.0" x2="258.0" y2="1149.0" stroke-width="0.5"/>
    <line stroke="black" x1="254.0" y1="693.0" x2="270.0" y2="813.0" stroke-width="0.5"/>
    <line stroke="black" x1="254.0" y1="693.0" x2="580.0" y2="573.0" stroke-width="0.5"/>
    <line stroke="black" x1="270.0" y1="813.0" x2="448.0" y2="911.0" stroke-width="0.5"/>
    <line stroke="black" x1="270.0" y1="813.0" x2="295.0" y2="716.0" stroke-width="0.5"/>
    <line stroke="black" x1="295.0" y1="716.0" x2="533.0" y2="779.0" stroke-width="0.5"/>
    <line stroke="black" x1="295.0" y1="716.0" x2="352.0" y2="650.0" stroke-width="0.5"/>
    <line stroke="black" x1="258.0" y1="1149.0" x2="333.0" y2="1217.0" stroke-width="0.5"/>
    <line stroke="black" x1="258.0" y1="1149.0" x2="352.0" y2="1082.0" stroke-width="0.5"/>
    <line stroke="black" x1="352.0" y1="650.0" x2="447.0" y2="674.0" stroke-width="0.5"/>
    <line stroke="black" x1="333.0" y1="1217.0" x2="437.0" y2="1276.0" stroke-width="0.5"/>
    <line stroke="black" x1="333.0" y1="1217.0" x2="371.0" y2="1159.0" stroke-width="0.5"/>
    <line stroke="black" x1="371.0" y1="1159.0" x2="398.0" y2="1183.0" stroke-width="0.5"/>
    <line stroke="black" x1="533.0" y1="779.0" x2="598.0" y2="817.0" stroke-width="0.5"/>
    <line stroke="black" x1="533.0" y1="779.0" x2="544.0" y2="743.0" stroke-width="0.5"/>
    <line stroke="black" x1="437.0" y1="1276.0" x2="453.0" y2="1252.0" stroke-width="0.5"/>
    <line stroke="black" x1="598.0" y1="817.0" x2="716.0" y2="843.0" stroke-width="0.5"/>
    <line stroke="black" x1="80.0" y1="968.0" x2="162.0" y2="1352.0" stroke-width="0.5"/>
    <line stroke="black" x1="312.0" y1="13.0" x2="242.0" y2="63.0" stroke-width="0.5"/>
    <line stroke="black" x1="326.0" y1="386.0" x2="263.0" y2="352.0" stroke-width="0.5"/>
    <line stroke="black" x1="322.0" y1="352.0" x2="267.0" y2="336.0" stroke-width="0.5"/>
    <line stroke="black" x1="340.0" y1="250.0" x2="333.0" y2="268.0" stroke-width="0.5"/>
    <line stroke="black" x1="468.0" y1="963.0" x2="333.0" y2="979.0" stroke-width="0.5"/>
    <line stroke="black" x1="390.0" y1="420.0" x2="383.0" y2="438.0" stroke-width="0.5"/>
    <line stroke="black" x1="424.0" y1="1132.0" x2="371.0" y2="1159.0" stroke-width="0.5"/>
    <line stroke="black" x1="429.0" y1="47.0" x2="380.0" y2="73.0" stroke-width="0.5"/>
    <line stroke="black" x1="414.0" y1="1166.0" x2="398.0" y2="1183.0" stroke-width="0.5"/>
    <line stroke="black" x1="517.0" y1="658.0" x2="447.0" y2="674.0" stroke-width="0.5"/>
    <line stroke="black" x1="662.0" y1="929.0" x2="448.0" y2="911.0" stroke-width="0.5"/>
    <line stroke="black" x1="671.0" y1="895.0" x2="448.0" y2="911.0" stroke-width="0.5"/>
    <line stroke="black" x1="735.0" y1="861.0" x2="716.0" y2="843.0" stroke-width="0.5"/>
    <line stroke="black" x1="742.0" y1="827.0" x2="716.0" y2="843.0" stroke-width="0.5"/>
   </g>
  </g>
 </svg>
</svg>
