<?xml version="1.0" encoding="UTF-8"?>
<svg height="800.0" width="700.0" xmlns="http://www.w3.org/2000/svg">
 <svg>
  <g>
   <g>
    <g>
     <circle stroke="black" stroke-width="0.5" fill="#aaffff" cx="119.0" cy="693.0" r="1.0"/>
     <text stroke="none" x="119.0" y="693.0" font-size="10.0" font-family="helvetica">NT1.1</text>
    </g>
    <g>
     <circle stroke="black" stroke-width="0.5" fill="#aaffff" cx="119.0" cy="927.0" r="1.0"/>
     <text stroke="none" x="119.0" y="927.0" font-size="10.0" font-family="helvetica">NT1.2</text>
    </g>
    <g>
     <circle stroke="black" stroke-width="0.5" fill="#aaffff" cx="135.0" cy="664.0" r="1.0"/>
     <text stroke="none" x="135.0" y="664.0" font-size="10.0" font-family="helvetica">NT1.3</text>
    </g>
    <g>
     <circle stroke="black" stroke-width="0.5" fill="#aaffff" cx="142.0" cy="972.0" r="1.0"/>
     <text stroke="none" x="142.0" y="972.0" font-size="20.0" font-family="helvetica">78</text>
    </g>
    <g>
     <circle stroke="black" stroke-width="0.5" fill="#aaffff" cx="159.0" cy="785.0" r="1.0"/>
     <text stroke="none" x="159.0" y="785.0" font-size="10.0" font-family="helvetica">NT1.5</text>
    </g>
    <g>
     <circle stroke="black" stroke-width="0.5" fill="#aaffff" cx="194.0" cy="816.0" r="1.0"/>
     <text stroke="none" x="194.0" y="816.0" font-size="10.0" font-family="helvetica">NT1.6</text>
    </g>
    <g>
     <circle stroke="black" stroke-width="0.5" fill="#aaffff" cx="199.0" cy="616.0" r="1.0"/>
     <text stroke="none" x="199.0" y="616.0" font-size="10.0" font-family="helvetica">NT1.7</text>
    </g>
    <g>
     <circle stroke="black" stroke-width="0.5" fill="#aaffff" cx="231.0" cy="937.0" r="1.0"/>
     <text stroke="none" x="231.0" y="937.0" font-size="10.0" font-family="helvetica">NT1.8</text>
    </g>
    <g>
     <circle stroke="black" stroke-width="0.5" fill="#aaffff" cx="235.0" cy="844.0" r="1.0"/>
     <text stroke="none" x="235.0" y="844.0" font-size="10.0" font-family="helvetica">NT1.9</text>
    </g>
    <g>
     <circle stroke="black" stroke-width="0.5" fill="#aaffff" cx="270.0" cy="899.0" r="1.0"/>
     <text stroke="none" x="270.0" y="899.0" font-size="20.0" font-family="helvetica">Fusobacterium perfoetens ATCC 292507 (M58684)</text>
    </g>
    <g>
     <circle stroke="black" stroke-width="0.5" fill="#aaffff" cx="270.0" cy="973.0" r="1.0"/>
     <text stroke="none" x="270.0" y="973.0" font-size="20.0" font-family="helvetica">Fusobacterium nucleatum ATCC 25586T (AJ133496)</text>
    </g>
    <g>
     <circle stroke="black" stroke-width="0.5" fill="#aaffff" cx="286.0" cy="497.0" r="1.0"/>
     <text stroke="none" x="286.0" y="497.0" font-size="10.0" font-family="helvetica">NT1.12</text>
    </g>
    <g>
     <circle stroke="black" stroke-width="0.5" fill="#aaffff" cx="293.0" cy="789.0" r="1.0"/>
     <text stroke="none" x="293.0" y="789.0" font-size="10.0" font-family="helvetica">NT1.13</text>
    </g>
    <g>
     <circle stroke="black" stroke-width="0.5" fill="#aaffff" cx="338.0" cy="678.0" r="1.0"/>
     <text stroke="none" x="338.0" y="678.0" font-size="20.0" font-family="helvetica">Leptotrichia oral clone ElO22 (AF385572)</text>
    </g>
    <g>
     <circle stroke="black" stroke-width="0.5" fill="#aaffff" cx="351.0" cy="367.0" r="1.0"/>
     <text stroke="none" x="351.0" y="367.0" font-size="10.0" font-family="helvetica">NT1.15</text>
    </g>
    <g>
     <circle stroke="black" stroke-width="0.5" fill="#aaffff" cx="370.0" cy="274.0" r="1.0"/>
     <text stroke="none" x="370.0" y="274.0" font-size="10.0" font-family="helvetica">NT1.16</text>
    </g>
    <g>
     <circle stroke="black" stroke-width="0.5" fill="#aaffff" cx="371.0" cy="641.0" r="1.0"/>
     <text stroke="none" x="371.0" y="641.0" font-size="20.0" font-family="helvetica">Leptotrichia goodfellowii LB 577 (AY029807)</text>
    </g>
    <g>
     <circle stroke="black" stroke-width="0.5" fill="#aaffff" cx="375.0" cy="715.0" r="1.0"/>
     <text stroke="none" x="375.0" y="715.0" font-size="20.0" font-family="helvetica">Sebaldella termitidis ATCC 3338GT (M58678)</text>
    </g>
    <g>
     <circle stroke="black" stroke-width="0.5" fill="#aaffff" cx="375.0" cy="826.0" r="1.0"/>
     <text stroke="none" x="375.0" y="826.0" font-size="10.0" font-family="helvetica">NT1.19</text>
    </g>
    <g>
     <circle stroke="black" stroke-width="0.5" fill="#aaffff" cx="380.0" cy="863.0" r="1.0"/>
     <text stroke="none" x="380.0" y="863.0" font-size="10.0" font-family="helvetica">NT1.20</text>
    </g>
    <g>
     <circle stroke="black" stroke-width="0.5" fill="#aaffff" cx="389.0" cy="532.0" r="1.0"/>
     <text stroke="none" x="389.0" y="532.0" font-size="10.0" font-family="helvetica">NT1.21</text>
    </g>
    <g>
     <circle stroke="black" stroke-width="0.5" fill="#aaffff" cx="392.0" cy="603.0" r="1.0"/>
     <text stroke="none" x="392.0" y="603.0" font-size="10.0" font-family="helvetica">NT1.22</text>
    </g>
    <g>
     <circle stroke="black" stroke-width="0.5" fill="#aaffff" cx="397.0" cy="338.0" r="1.0"/>
     <text stroke="none" x="397.0" y="338.0" font-size="20.0" font-family="helvetica">73</text>
    </g>
    <g>
     <circle stroke="black" stroke-width="0.5" fill="#aaffff" cx="409.0" cy="752.0" r="1.0"/>
     <text stroke="none" x="409.0" y="752.0" font-size="20.0" font-family="helvetica">Streptobacillus moniliformis ATCC 146477 (Z35305)</text>
    </g>
    <g>
     <circle stroke="black" stroke-width="0.5" fill="#aaffff" cx="420.0" cy="252.0" r="1.0"/>
     <text stroke="none" x="420.0" y="252.0" font-size="20.0" font-family="helvetica">1oo</text>
    </g>
    <g>
     <circle stroke="black" stroke-width="0.5" fill="#aaffff" cx="425.0" cy="178.0" r="1.0"/>
     <text stroke="none" x="425.0" y="178.0" font-size="20.0" font-family="helvetica">100</text>
    </g>
    <g>
     <circle stroke="black" stroke-width="0.5" fill="#aaffff" cx="430.0" cy="93.0" r="1.0"/>
     <text stroke="none" x="430.0" y="93.0" font-size="10.0" font-family="helvetica">NT1.27</text>
    </g>
    <g>
     <circle stroke="black" stroke-width="0.5" fill="#aaffff" cx="443.0" cy="391.0" r="1.0"/>
     <text stroke="none" x="443.0" y="391.0" font-size="20.0" font-family="helvetica">100</text>
    </g>
    <g>
     <circle stroke="black" stroke-width="0.5" fill="#aaffff" cx="444.0" cy="567.0" r="1.0"/>
     <text stroke="none" x="444.0" y="567.0" font-size="20.0" font-family="helvetica">Leptotrichia oral clone BU064 (AYOO8309)</text>
    </g>
    <g>
     <circle stroke="black" stroke-width="0.5" fill="#aaffff" cx="445.0" cy="420.0" r="1.0"/>
     <text stroke="none" x="445.0" y="420.0" font-size="20.0" font-family="helvetica">Leptotrichia strain LB 06 (AY029805)</text>
    </g>
    <g>
     <circle stroke="black" stroke-width="0.5" fill="#aaffff" cx="446.0" cy="308.0" r="1.0"/>
     <text stroke="none" x="446.0" y="308.0" font-size="20.0" font-family="helvetica">Leptotrichia oral clone DAO69 (AF287811)</text>
    </g>
    <g>
     <circle stroke="black" stroke-width="0.5" fill="#aaffff" cx="447.0" cy="345.0" r="1.0"/>
     <text stroke="none" x="447.0" y="345.0" font-size="20.0" font-family="helvetica">Leptotrichia trevisanii LTT (AF206305)</text>
    </g>
    <g>
     <circle stroke="black" stroke-width="0.5" fill="#aaffff" cx="449.0" cy="68.0" r="1.0"/>
     <text stroke="none" x="449.0" y="68.0" font-size="10.0" font-family="helvetica">NT1.33</text>
    </g>
    <g>
     <circle stroke="black" stroke-width="0.5" fill="#aaffff" cx="454.0" cy="530.0" r="1.0"/>
     <text stroke="none" x="454.0" y="530.0" font-size="20.0" font-family="helvetica">Leptotrichia oral clone DT031 (AF366276)</text>
    </g>
    <g>
     <circle stroke="black" stroke-width="0.5" fill="#aaffff" cx="454.0" cy="493.0" r="1.0"/>
     <text stroke="none" x="454.0" y="493.0" font-size="10.0" font-family="helvetica">NT1.35</text>
    </g>
    <g>
     <circle stroke="black" stroke-width="0.5" fill="#aaffff" cx="468.0" cy="161.0" r="1.0"/>
     <text stroke="none" x="468.0" y="161.0" font-size="20.0" font-family="helvetica">Leptotrichia shahii LB 37T (AY029806)</text>
    </g>
    <g>
     <circle stroke="black" stroke-width="0.5" fill="#aaffff" cx="470.0" cy="198.0" r="1.0"/>
     <text stroke="none" x="470.0" y="198.0" font-size="10.0" font-family="helvetica">NT1.37</text>
    </g>
    <g>
     <circle stroke="black" stroke-width="0.5" fill="#aaffff" cx="476.0" cy="233.0" r="1.0"/>
     <text stroke="none" x="476.0" y="233.0" font-size="20.0" font-family="helvetica">Leptotrichia wadei LB 167 (AY029802)</text>
    </g>
    <g>
     <circle stroke="black" stroke-width="0.5" fill="#aaffff" cx="477.0" cy="235.0" r="1.0"/>
     <text stroke="none" x="477.0" y="235.0" font-size="20.0" font-family="helvetica">1oo</text>
    </g>
    <g>
     <circle stroke="black" stroke-width="0.5" fill="#aaffff" cx="485.0" cy="271.0" r="1.0"/>
     <text stroke="none" x="485.0" y="271.0" font-size="20.0" font-family="helvetica">Leptotrichia strain A39FD (AF287816)</text>
    </g>
    <g>
     <circle stroke="black" stroke-width="0.5" fill="#aaffff" cx="490.0" cy="235.0" r="1.0"/>
     <text stroke="none" x="490.0" y="235.0" font-size="20.0" font-family="helvetica">Leptotrichia wadei LB 167 (AY029802)</text>
    </g>
    <g>
     <circle stroke="black" stroke-width="0.5" fill="#aaffff" cx="495.0" cy="50.0" r="1.0"/>
     <text stroke="none" x="495.0" y="50.0" font-size="20.0" font-family="helvetica">Leptotrichia strain FAC5 (AF287813)</text>
    </g>
    <g>
     <circle stroke="black" stroke-width="0.5" fill="#aaffff" cx="509.0" cy="124.0" r="1.0"/>
     <text stroke="none" x="509.0" y="124.0" font-size="10.0" font-family="helvetica">NT1.43</text>
    </g>
    <g>
     <circle stroke="black" stroke-width="0.5" fill="#aaffff" cx="519.0" cy="456.0" r="1.0"/>
     <text stroke="none" x="519.0" y="456.0" font-size="20.0" font-family="helvetica">Leptotrichia oral clone DS049 (AF366272)</text>
    </g>
    <g>
     <circle stroke="black" stroke-width="0.5" fill="#aaffff" cx="532.0" cy="87.0" r="1.0"/>
     <text stroke="none" x="532.0" y="87.0" font-size="20.0" font-family="helvetica">Leptotrichia oral clone F138 (AF287814)</text>
    </g>
    <g>
     <circle stroke="black" stroke-width="0.5" fill="#aaffff" cx="3.0" cy="737.0" r="1.0"/>
     <text stroke="none" x="3.0" y="737.0" font-size="10.0" font-family="helvetica">NT1.46</text>
    </g>
    <line stroke="black" x1="532.0" y1="87.0" x2="449.0" y2="68.0" stroke-width="0.5"/>
    <line stroke="black" x1="468.0" y1="161.0" x2="425.0" y2="178.0" stroke-width="0.5"/>
    <line stroke="black" x1="477.0" y1="235.0" x2="476.0" y2="233.0" stroke-width="0.5"/>
    <line stroke="black" x1="490.0" y1="235.0" x2="477.0" y2="235.0" stroke-width="0.5"/>
    <line stroke="black" x1="375.0" y1="715.0" x2="135.0" y2="664.0" stroke-width="0.5"/>
    <line stroke="black" x1="270.0" y1="899.0" x2="119.0" y2="927.0" stroke-width="0.5"/>
    <line stroke="black" x1="449.0" y1="68.0" x2="430.0" y2="93.0" stroke-width="0.5"/>
    <line stroke="black" x1="425.0" y1="178.0" x2="420.0" y2="252.0" stroke-width="0.5"/>
    <line stroke="black" x1="420.0" y1="252.0" x2="370.0" y2="274.0" stroke-width="0.5"/>
    <line stroke="black" x1="420.0" y1="252.0" x2="477.0" y2="235.0" stroke-width="0.5"/>
    <line stroke="black" x1="420.0" y1="252.0" x2="485.0" y2="271.0" stroke-width="0.5"/>
    <line stroke="black" x1="370.0" y1="274.0" x2="397.0" y2="338.0" stroke-width="0.5"/>
    <line stroke="black" x1="370.0" y1="274.0" x2="351.0" y2="367.0" stroke-width="0.5"/>
    <line stroke="black" x1="397.0" y1="338.0" x2="443.0" y2="391.0" stroke-width="0.5"/>
    <line stroke="black" x1="351.0" y1="367.0" x2="286.0" y2="497.0" stroke-width="0.5"/>
    <line stroke="black" x1="443.0" y1="391.0" x2="445.0" y2="420.0" stroke-width="0.5"/>
    <line stroke="black" x1="443.0" y1="391.0" x2="447.0" y2="345.0" stroke-width="0.5"/>
    <line stroke="black" x1="286.0" y1="497.0" x2="199.0" y2="616.0" stroke-width="0.5"/>
    <line stroke="black" x1="286.0" y1="497.0" x2="389.0" y2="532.0" stroke-width="0.5"/>
    <line stroke="black" x1="199.0" y1="616.0" x2="135.0" y2="664.0" stroke-width="0.5"/>
    <line stroke="black" x1="135.0" y1="664.0" x2="119.0" y2="693.0" stroke-width="0.5"/>
    <line stroke="black" x1="3.0" y1="737.0" x2="119.0" y2="693.0" stroke-width="0.5"/>
    <line stroke="black" x1="119.0" y1="927.0" x2="3.0" y2="737.0" stroke-width="0.5"/>
    <line stroke="black" x1="270.0" y1="973.0" x2="142.0" y2="972.0" stroke-width="0.5"/>
    <line stroke="black" x1="338.0" y1="678.0" x2="199.0" y2="616.0" stroke-width="0.5"/>
    <line stroke="black" x1="371.0" y1="641.0" x2="199.0" y2="616.0" stroke-width="0.5"/>
    <line stroke="black" x1="409.0" y1="752.0" x2="159.0" y2="785.0" stroke-width="0.5"/>
    <line stroke="black" x1="446.0" y1="308.0" x2="397.0" y2="338.0" stroke-width="0.5"/>
    <line stroke="black" x1="444.0" y1="567.0" x2="389.0" y2="532.0" stroke-width="0.5"/>
    <line stroke="black" x1="519.0" y1="456.0" x2="351.0" y2="367.0" stroke-width="0.5"/>
    <line stroke="black" x1="454.0" y1="530.0" x2="389.0" y2="532.0" stroke-width="0.5"/>
    <line stroke="black" x1="495.0" y1="50.0" x2="449.0" y2="68.0" stroke-width="0.5"/>
   </g>
  </g>
 </svg>
</svg>
