<?xml version="1.0" encoding="UTF-8"?>
<svg height="800.0" width="700.0" xmlns="http://www.w3.org/2000/svg">
 <svg>
  <g>
   <g>
    <g>
     <circle stroke="black" stroke-width="0.5" fill="#aaffff" cx="5.0" cy="779.0" r="1.0"/>
     <text stroke="none" x="5.0" y="779.0" font-size="10.0" font-family="helvetica">NT1.1</text>
    </g>
    <g>
     <circle stroke="black" stroke-width="0.5" fill="#aaffff" cx="50.0" cy="779.0" r="1.0"/>
     <text stroke="none" x="50.0" y="779.0" font-size="20.0" font-family="helvetica">Sterigmatomyces elviae CBS 59227 (AF4445511 AF177415)</text>
    </g>
    <g>
     <circle stroke="black" stroke-width="0.5" fill="#aaffff" cx="66.0" cy="820.0" r="1.0"/>
     <text stroke="none" x="66.0" y="820.0" font-size="20.0" font-family="helvetica">Bensingtonia musae CBS 79657 (AF444569) AF189892)</text>
    </g>
    <g>
     <circle stroke="black" stroke-width="0.5" fill="#aaffff" cx="336.0" cy="521.0" r="1.0"/>
     <text stroke="none" x="336.0" y="521.0" font-size="10.0" font-family="helvetica">NT1.4</text>
    </g>
    <g>
     <circle stroke="black" stroke-width="0.5" fill="#aaffff" cx="357.0" cy="338.0" r="1.0"/>
     <text stroke="none" x="357.0" y="338.0" font-size="10.0" font-family="helvetica">NT1.5</text>
    </g>
    <g>
     <circle stroke="black" stroke-width="0.5" fill="#aaffff" cx="365.0" cy="495.0" r="1.0"/>
     <text stroke="none" x="365.0" y="495.0" font-size="20.0" font-family="helvetica"/>
    </g>
    <g>
     <circle stroke="black" stroke-width="0.5" fill="#aaffff" cx="367.0" cy="506.0" r="1.0"/>
     <text stroke="none" x="367.0" y="506.0" font-size="20.0" font-family="helvetica"/>
    </g>
    <g>
     <circle stroke="black" stroke-width="0.5" fill="#aaffff" cx="368.0" cy="703.0" r="1.0"/>
     <text stroke="none" x="368.0" y="703.0" font-size="10.0" font-family="helvetica">NT1.8</text>
    </g>
    <g>
     <circle stroke="black" stroke-width="0.5" fill="#aaffff" cx="373.0" cy="239.0" r="1.0"/>
     <text stroke="none" x="373.0" y="239.0" font-size="10.0" font-family="helvetica">NT1.9</text>
    </g>
    <g>
     <circle stroke="black" stroke-width="0.5" fill="#aaffff" cx="376.0" cy="463.0" r="1.0"/>
     <text stroke="none" x="376.0" y="463.0" font-size="10.0" font-family="helvetica">NT1.10</text>
    </g>
    <g>
     <circle stroke="black" stroke-width="0.5" fill="#aaffff" cx="382.0" cy="674.0" r="1.0"/>
     <text stroke="none" x="382.0" y="674.0" font-size="20.0" font-family="helvetica">38</text>
    </g>
    <g>
     <circle stroke="black" stroke-width="0.5" fill="#aaffff" cx="383.0" cy="735.0" r="1.0"/>
     <text stroke="none" x="383.0" y="735.0" font-size="20.0" font-family="helvetica">Rhodotorula straminea CBS 109767 (EU872491) EU872489)</text>
    </g>
    <g>
     <circle stroke="black" stroke-width="0.5" fill="#aaffff" cx="385.0" cy="537.0" r="1.0"/>
     <text stroke="none" x="385.0" y="537.0" font-size="20.0" font-family="helvetica"/>
    </g>
    <g>
     <circle stroke="black" stroke-width="0.5" fill="#aaffff" cx="386.0" cy="534.0" r="1.0"/>
     <text stroke="none" x="386.0" y="534.0" font-size="20.0" font-family="helvetica"/>
    </g>
    <g>
     <circle stroke="black" stroke-width="0.5" fill="#aaffff" cx="387.0" cy="162.0" r="1.0"/>
     <text stroke="none" x="387.0" y="162.0" font-size="10.0" font-family="helvetica">NT1.15</text>
    </g>
    <g>
     <circle stroke="black" stroke-width="0.5" fill="#aaffff" cx="387.0" cy="532.0" r="1.0"/>
     <text stroke="none" x="387.0" y="532.0" font-size="10.0" font-family="helvetica">NT1.16</text>
    </g>
    <g>
     <circle stroke="black" stroke-width="0.5" fill="#aaffff" cx="391.0" cy="440.0" r="1.0"/>
     <text stroke="none" x="391.0" y="440.0" font-size="20.0" font-family="helvetica">Rhodotorula psychrophila CBS 104407 (EF151 243) EF151252)</text>
    </g>
    <g>
     <circle stroke="black" stroke-width="0.5" fill="#aaffff" cx="391.0" cy="651.0" r="1.0"/>
     <text stroke="none" x="391.0" y="651.0" font-size="20.0" font-family="helvetica">Rhodotorula silvestris CBS 1 14207 (GO1210451 G01 21044)</text>
    </g>
    <g>
     <circle stroke="black" stroke-width="0.5" fill="#aaffff" cx="392.0" cy="437.0" r="1.0"/>
     <text stroke="none" x="392.0" y="437.0" font-size="20.0" font-family="helvetica">Rhodotorula psychrophila CBS 104407 (EF151 243) EF151252)</text>
    </g>
    <g>
     <circle stroke="black" stroke-width="0.5" fill="#aaffff" cx="393.0" cy="434.0" r="1.0"/>
     <text stroke="none" x="393.0" y="434.0" font-size="10.0" font-family="helvetica">NT1.20</text>
    </g>
    <g>
     <circle stroke="black" stroke-width="0.5" fill="#aaffff" cx="394.0" cy="526.0" r="1.0"/>
     <text stroke="none" x="394.0" y="526.0" font-size="20.0" font-family="helvetica">Rhodotorula rosulata CBS 109777 (EU8724921 EU872490)</text>
    </g>
    <g>
     <circle stroke="black" stroke-width="0.5" fill="#aaffff" cx="396.0" cy="694.0" r="1.0"/>
     <text stroke="none" x="396.0" y="694.0" font-size="20.0" font-family="helvetica">Rhodotorula yarrowii CBS 74177(AF444628) AF189971)</text>
    </g>
    <g>
     <circle stroke="black" stroke-width="0.5" fill="#aaffff" cx="398.0" cy="531.0" r="1.0"/>
     <text stroke="none" x="398.0" y="531.0" font-size="10.0" font-family="helvetica">NT1.23</text>
    </g>
    <g>
     <circle stroke="black" stroke-width="0.5" fill="#aaffff" cx="400.0" cy="429.0" r="1.0"/>
     <text stroke="none" x="400.0" y="429.0" font-size="20.0" font-family="helvetica">Rhodotorula psychrophila CBS 104407 (EF151 243) EF151252)</text>
    </g>
    <g>
     <circle stroke="black" stroke-width="0.5" fill="#aaffff" cx="402.0" cy="443.0" r="1.0"/>
     <text stroke="none" x="402.0" y="443.0" font-size="10.0" font-family="helvetica">NT1.25</text>
    </g>
    <g>
     <circle stroke="black" stroke-width="0.5" fill="#aaffff" cx="403.0" cy="481.0" r="1.0"/>
     <text stroke="none" x="403.0" y="481.0" font-size="20.0" font-family="helvetica">Rhodotorula himalayensis CBS 105397 (AM41O6351 AM410635)</text>
    </g>
    <g>
     <circle stroke="black" stroke-width="0.5" fill="#aaffff" cx="406.0" cy="526.0" r="1.0"/>
     <text stroke="none" x="406.0" y="526.0" font-size="20.0" font-family="helvetica">Rhodotorula rosulata CBS 109777 (EU8724921 EU872490)</text>
    </g>
    <g>
     <circle stroke="black" stroke-width="0.5" fill="#aaffff" cx="406.0" cy="541.0" r="1.0"/>
     <text stroke="none" x="406.0" y="541.0" font-size="20.0" font-family="helvetica"/>
    </g>
    <g>
     <circle stroke="black" stroke-width="0.5" fill="#aaffff" cx="406.0" cy="71.0" r="1.0"/>
     <text stroke="none" x="406.0" y="71.0" font-size="10.0" font-family="helvetica">NT1.29</text>
    </g>
    <g>
     <circle stroke="black" stroke-width="0.5" fill="#aaffff" cx="408.0" cy="399.0" r="1.0"/>
     <text stroke="none" x="408.0" y="399.0" font-size="20.0" font-family="helvetica">Rhodotorula glacialis CBS 104367 (EF151 2591 EF151258)</text>
    </g>
    <g>
     <circle stroke="black" stroke-width="0.5" fill="#aaffff" cx="408.0" cy="420.0" r="1.0"/>
     <text stroke="none" x="408.0" y="420.0" font-size="10.0" font-family="helvetica">NT1.31</text>
    </g>
    <g>
     <circle stroke="black" stroke-width="0.5" fill="#aaffff" cx="411.0" cy="609.0" r="1.0"/>
     <text stroke="none" x="411.0" y="609.0" font-size="20.0" font-family="helvetica">Rhodotorula psychrophenolica CBS 104387 (EF151246) EF151255)</text>
    </g>
    <g>
     <circle stroke="black" stroke-width="0.5" fill="#aaffff" cx="412.0" cy="440.0" r="1.0"/>
     <text stroke="none" x="412.0" y="440.0" font-size="20.0" font-family="helvetica">Rhodotorula psychrophila CBS 104407 (EF151 243) EF151252)</text>
    </g>
    <g>
     <circle stroke="black" stroke-width="0.5" fill="#aaffff" cx="422.0" cy="123.0" r="1.0"/>
     <text stroke="none" x="422.0" y="123.0" font-size="20.0" font-family="helvetica">we</text>
    </g>
    <g>
     <circle stroke="black" stroke-width="0.5" fill="#aaffff" cx="428.0" cy="525.0" r="1.0"/>
     <text stroke="none" x="428.0" y="525.0" font-size="20.0" font-family="helvetica">Rhodotorula rosulata CBS 109777 (EU8724921 EU872490)</text>
    </g>
    <g>
     <circle stroke="black" stroke-width="0.5" fill="#aaffff" cx="428.0" cy="250.0" r="1.0"/>
     <text stroke="none" x="428.0" y="250.0" font-size="10.0" font-family="helvetica">NT1.36</text>
    </g>
    <g>
     <circle stroke="black" stroke-width="0.5" fill="#aaffff" cx="442.0" cy="89.0" r="1.0"/>
     <text stroke="none" x="442.0" y="89.0" font-size="10.0" font-family="helvetica">NT1.37</text>
    </g>
    <g>
     <circle stroke="black" stroke-width="0.5" fill="#aaffff" cx="449.0" cy="314.0" r="1.0"/>
     <text stroke="none" x="449.0" y="314.0" font-size="20.0" font-family="helvetica">Sporobolomyces griseoflavus CBS 72847 (AF444557) AF189986)</text>
    </g>
    <g>
     <circle stroke="black" stroke-width="0.5" fill="#aaffff" cx="449.0" cy="568.0" r="1.0"/>
     <text stroke="none" x="449.0" y="568.0" font-size="20.0" font-family="helvetica">Kriegeria eriophori CBS 83877 (AF444602) AF189905)</text>
    </g>
    <g>
     <circle stroke="black" stroke-width="0.5" fill="#aaffff" cx="458.0" cy="165.0" r="1.0"/>
     <text stroke="none" x="458.0" y="165.0" font-size="20.0" font-family="helvetica">we</text>
    </g>
    <g>
     <circle stroke="black" stroke-width="0.5" fill="#aaffff" cx="459.0" cy="145.0" r="1.0"/>
     <text stroke="none" x="459.0" y="145.0" font-size="20.0" font-family="helvetica">Rhodotorula lignophila CBS 71 o9T (AF444513) AF1 89943)</text>
    </g>
    <g>
     <circle stroke="black" stroke-width="0.5" fill="#aaffff" cx="459.0" cy="187.0" r="1.0"/>
     <text stroke="none" x="459.0" y="187.0" font-size="20.0" font-family="helvetica">Sporobolomyces singularis CBS 51097 (AF4446OO1 AF189996)</text>
    </g>
    <g>
     <circle stroke="black" stroke-width="0.5" fill="#aaffff" cx="460.0" cy="19.0" r="1.0"/>
     <text stroke="none" x="460.0" y="19.0" font-size="20.0" font-family="helvetica">Rhodotorula auriculariae CBS 83797 (AF4445071 AF189922)</text>
    </g>
    <g>
     <circle stroke="black" stroke-width="0.5" fill="#aaffff" cx="460.0" cy="102.0" r="1.0"/>
     <text stroke="none" x="460.0" y="102.0" font-size="20.0" font-family="helvetica">Sporobolomyces inositophilus CBS 73107 (AF444559 AF189987)</text>
    </g>
    <g>
     <circle stroke="black" stroke-width="0.5" fill="#aaffff" cx="465.0" cy="356.0" r="1.0"/>
     <text stroke="none" x="465.0" y="356.0" font-size="20.0" font-family="helvetica">Leucosporidium antarcticum CBS 59427 (AF444529) AF189906)</text>
    </g>
    <g>
     <circle stroke="black" stroke-width="0.5" fill="#aaffff" cx="470.0" cy="60.0" r="1.0"/>
     <text stroke="none" x="470.0" y="60.0" font-size="20.0" font-family="helvetica">Bensingtonia yamatoana CBS 72437 (AF444684) AF189896)</text>
    </g>
    <g>
     <circle stroke="black" stroke-width="0.5" fill="#aaffff" cx="474.0" cy="230.0" r="1.0"/>
     <text stroke="none" x="474.0" y="230.0" font-size="20.0" font-family="helvetica">Rhodotorula pilati CBS 70397 (AF444598 AF189963)</text>
    </g>
    <g>
     <circle stroke="black" stroke-width="0.5" fill="#aaffff" cx="482.0" cy="271.0" r="1.0"/>
     <text stroke="none" x="482.0" y="271.0" font-size="20.0" font-family="helvetica">Sporobolomyces tsugae CBS 50387 (AF4445801 AF189998)</text>
    </g>
    <line stroke="black" x1="459.0" y1="145.0" x2="458.0" y2="165.0" stroke-width="0.5"/>
    <line stroke="black" x1="460.0" y1="102.0" x2="442.0" y2="89.0" stroke-width="0.5"/>
    <line stroke="black" x1="459.0" y1="187.0" x2="458.0" y2="165.0" stroke-width="0.5"/>
    <line stroke="black" x1="470.0" y1="60.0" x2="442.0" y2="89.0" stroke-width="0.5"/>
    <line stroke="black" x1="449.0" y1="314.0" x2="373.0" y2="239.0" stroke-width="0.5"/>
    <line stroke="black" x1="365.0" y1="495.0" x2="376.0" y2="463.0" stroke-width="0.5"/>
    <line stroke="black" x1="367.0" y1="506.0" x2="376.0" y2="463.0" stroke-width="0.5"/>
    <line stroke="black" x1="406.0" y1="526.0" x2="398.0" y2="531.0" stroke-width="0.5"/>
    <line stroke="black" x1="386.0" y1="534.0" x2="387.0" y2="532.0" stroke-width="0.5"/>
    <line stroke="black" x1="406.0" y1="541.0" x2="398.0" y2="531.0" stroke-width="0.5"/>
    <line stroke="black" x1="385.0" y1="537.0" x2="398.0" y2="531.0" stroke-width="0.5"/>
    <line stroke="black" x1="394.0" y1="526.0" x2="387.0" y2="532.0" stroke-width="0.5"/>
    <line stroke="black" x1="428.0" y1="525.0" x2="398.0" y2="531.0" stroke-width="0.5"/>
    <line stroke="black" x1="391.0" y1="440.0" x2="402.0" y2="443.0" stroke-width="0.5"/>
    <line stroke="black" x1="392.0" y1="437.0" x2="393.0" y2="434.0" stroke-width="0.5"/>
    <line stroke="black" x1="403.0" y1="481.0" x2="402.0" y2="443.0" stroke-width="0.5"/>
    <line stroke="black" x1="400.0" y1="429.0" x2="393.0" y2="434.0" stroke-width="0.5"/>
    <line stroke="black" x1="449.0" y1="568.0" x2="398.0" y2="531.0" stroke-width="0.5"/>
    <line stroke="black" x1="408.0" y1="399.0" x2="408.0" y2="420.0" stroke-width="0.5"/>
    <line stroke="black" x1="50.0" y1="779.0" x2="5.0" y2="779.0" stroke-width="0.5"/>
    <line stroke="black" x1="406.0" y1="71.0" x2="387.0" y2="162.0" stroke-width="0.5"/>
    <line stroke="black" x1="406.0" y1="71.0" x2="422.0" y2="123.0" stroke-width="0.5"/>
    <line stroke="black" x1="422.0" y1="123.0" x2="458.0" y2="165.0" stroke-width="0.5"/>
    <line stroke="black" x1="422.0" y1="123.0" x2="442.0" y2="89.0" stroke-width="0.5"/>
    <line stroke="black" x1="387.0" y1="162.0" x2="373.0" y2="239.0" stroke-width="0.5"/>
    <line stroke="black" x1="387.0" y1="162.0" x2="428.0" y2="250.0" stroke-width="0.5"/>
    <line stroke="black" x1="373.0" y1="239.0" x2="357.0" y2="338.0" stroke-width="0.5"/>
    <line stroke="black" x1="357.0" y1="338.0" x2="336.0" y2="521.0" stroke-width="0.5"/>
    <line stroke="black" x1="357.0" y1="338.0" x2="376.0" y2="463.0" stroke-width="0.5"/>
    <line stroke="black" x1="376.0" y1="463.0" x2="376.0" y2="463.0" stroke-width="0.5"/>
    <line stroke="black" x1="376.0" y1="463.0" x2="398.0" y2="531.0" stroke-width="0.5"/>
    <line stroke="black" x1="336.0" y1="521.0" x2="368.0" y2="703.0" stroke-width="0.5"/>
    <line stroke="black" x1="398.0" y1="531.0" x2="398.0" y2="531.0" stroke-width="0.5"/>
    <line stroke="black" x1="398.0" y1="531.0" x2="387.0" y2="532.0" stroke-width="0.5"/>
    <line stroke="black" x1="398.0" y1="531.0" x2="402.0" y2="443.0" stroke-width="0.5"/>
    <line stroke="black" x1="402.0" y1="443.0" x2="408.0" y2="420.0" stroke-width="0.5"/>
    <line stroke="black" x1="402.0" y1="443.0" x2="393.0" y2="434.0" stroke-width="0.5"/>
    <line stroke="black" x1="368.0" y1="703.0" x2="382.0" y2="674.0" stroke-width="0.5"/>
    <line stroke="black" x1="336.0" y1="521.0" x2="5.0" y2="779.0" stroke-width="0.5"/>
    <line stroke="black" x1="66.0" y1="820.0" x2="5.0" y2="779.0" stroke-width="0.5"/>
    <line stroke="black" x1="383.0" y1="735.0" x2="368.0" y2="703.0" stroke-width="0.5"/>
    <line stroke="black" x1="391.0" y1="651.0" x2="382.0" y2="674.0" stroke-width="0.5"/>
    <line stroke="black" x1="376.0" y1="463.0" x2="376.0" y2="463.0" stroke-width="0.5"/>
    <line stroke="black" x1="396.0" y1="694.0" x2="382.0" y2="674.0" stroke-width="0.5"/>
    <line stroke="black" x1="411.0" y1="609.0" x2="398.0" y2="531.0" stroke-width="0.5"/>
    <line stroke="black" x1="412.0" y1="440.0" x2="408.0" y2="420.0" stroke-width="0.5"/>
    <line stroke="black" x1="465.0" y1="356.0" x2="376.0" y2="463.0" stroke-width="0.5"/>
    <line stroke="black" x1="460.0" y1="19.0" x2="406.0" y2="71.0" stroke-width="0.5"/>
    <line stroke="black" x1="482.0" y1="271.0" x2="428.0" y2="250.0" stroke-width="0.5"/>
    <line stroke="black" x1="474.0" y1="230.0" x2="428.0" y2="250.0" stroke-width="0.5"/>
   </g>
  </g>
 </svg>
</svg>
