<?xml version="1.0" encoding="UTF-8"?>
<svg height="800.0" width="700.0" xmlns="http://www.w3.org/2000/svg">
 <svg>
  <g>
   <g>
    <g>
     <circle stroke="black" stroke-width="0.5" fill="#aaffff" cx="25.0" cy="754.0" r="1.0"/>
     <text stroke="none" x="25.0" y="754.0" font-size="20.0" font-family="helvetica"/>
    </g>
    <g>
     <circle stroke="black" stroke-width="0.5" fill="#aaffff" cx="49.0" cy="680.0" r="1.0"/>
     <text stroke="none" x="49.0" y="680.0" font-size="10.0" font-family="helvetica">NT1.2</text>
    </g>
    <g>
     <circle stroke="black" stroke-width="0.5" fill="#aaffff" cx="93.0" cy="762.0" r="1.0"/>
     <text stroke="none" x="93.0" y="762.0" font-size="10.0" font-family="helvetica">NT1.3</text>
    </g>
    <g>
     <circle stroke="black" stroke-width="0.5" fill="#aaffff" cx="116.0" cy="593.0" r="1.0"/>
     <text stroke="none" x="116.0" y="593.0" font-size="10.0" font-family="helvetica">NT1.4</text>
    </g>
    <g>
     <circle stroke="black" stroke-width="0.5" fill="#aaffff" cx="142.0" cy="414.0" r="1.0"/>
     <text stroke="none" x="142.0" y="414.0" font-size="10.0" font-family="helvetica">NT1.5</text>
    </g>
    <g>
     <circle stroke="black" stroke-width="0.5" fill="#aaffff" cx="160.0" cy="292.0" r="1.0"/>
     <text stroke="none" x="160.0" y="292.0" font-size="10.0" font-family="helvetica">NT1.6</text>
    </g>
    <g>
     <circle stroke="black" stroke-width="0.5" fill="#aaffff" cx="176.0" cy="142.0" r="1.0"/>
     <text stroke="none" x="176.0" y="142.0" font-size="10.0" font-family="helvetica">NT1.7</text>
    </g>
    <g>
     <circle stroke="black" stroke-width="0.5" fill="#aaffff" cx="198.0" cy="449.0" r="1.0"/>
     <text stroke="none" x="198.0" y="449.0" font-size="10.0" font-family="helvetica">NT1.8</text>
    </g>
    <g>
     <circle stroke="black" stroke-width="0.5" fill="#aaffff" cx="200.0" cy="182.0" r="1.0"/>
     <text stroke="none" x="200.0" y="182.0" font-size="10.0" font-family="helvetica">NT1.9</text>
    </g>
    <g>
     <circle stroke="black" stroke-width="0.5" fill="#aaffff" cx="210.0" cy="481.0" r="1.0"/>
     <text stroke="none" x="210.0" y="481.0" font-size="10.0" font-family="helvetica">NT1.10</text>
    </g>
    <g>
     <circle stroke="black" stroke-width="0.5" fill="#aaffff" cx="210.0" cy="617.0" r="1.0"/>
     <text stroke="none" x="210.0" y="617.0" font-size="10.0" font-family="helvetica">NT1.11</text>
    </g>
    <g>
     <circle stroke="black" stroke-width="0.5" fill="#aaffff" cx="222.0" cy="88.0" r="1.0"/>
     <text stroke="none" x="222.0" y="88.0" font-size="10.0" font-family="helvetica">NT1.12</text>
    </g>
    <g>
     <circle stroke="black" stroke-width="0.5" fill="#aaffff" cx="224.0" cy="304.0" r="1.0"/>
     <text stroke="none" x="224.0" y="304.0" font-size="10.0" font-family="helvetica">NT1.13</text>
    </g>
    <g>
     <circle stroke="black" stroke-width="0.5" fill="#aaffff" cx="251.0" cy="508.0" r="1.0"/>
     <text stroke="none" x="251.0" y="508.0" font-size="10.0" font-family="helvetica">NT1.14</text>
    </g>
    <g>
     <circle stroke="black" stroke-width="0.5" fill="#aaffff" cx="254.0" cy="582.0" r="1.0"/>
     <text stroke="none" x="254.0" y="582.0" font-size="10.0" font-family="helvetica">NT1.15</text>
    </g>
    <g>
     <circle stroke="black" stroke-width="0.5" fill="#aaffff" cx="272.0" cy="781.0" r="1.0"/>
     <text stroke="none" x="272.0" y="781.0" font-size="20.0" font-family="helvetica">Methylococcus oapsulatus INMI 115 (AF484671)</text>
    </g>
    <g>
     <circle stroke="black" stroke-width="0.5" fill="#aaffff" cx="323.0" cy="324.0" r="1.0"/>
     <text stroke="none" x="323.0" y="324.0" font-size="10.0" font-family="helvetica">NT1.17</text>
    </g>
    <g>
     <circle stroke="black" stroke-width="0.5" fill="#aaffff" cx="328.0" cy="653.0" r="1.0"/>
     <text stroke="none" x="328.0" y="653.0" font-size="10.0" font-family="helvetica">NT1.18</text>
    </g>
    <g>
     <circle stroke="black" stroke-width="0.5" fill="#aaffff" cx="333.0" cy="66.0" r="1.0"/>
     <text stroke="none" x="333.0" y="66.0" font-size="20.0" font-family="helvetica">100</text>
    </g>
    <g>
     <circle stroke="black" stroke-width="0.5" fill="#aaffff" cx="337.0" cy="39.0" r="1.0"/>
     <text stroke="none" x="337.0" y="39.0" font-size="20.0" font-family="helvetica">100</text>
    </g>
    <g>
     <circle stroke="black" stroke-width="0.5" fill="#aaffff" cx="342.0" cy="93.0" r="1.0"/>
     <text stroke="none" x="342.0" y="93.0" font-size="20.0" font-family="helvetica">Ectothiorhodosgira vacualata DSM 21117 (EF199955)</text>
    </g>
    <g>
     <circle stroke="black" stroke-width="0.5" fill="#aaffff" cx="342.0" cy="364.0" r="1.0"/>
     <text stroke="none" x="342.0" y="364.0" font-size="10.0" font-family="helvetica">NT1.22</text>
    </g>
    <g>
     <circle stroke="black" stroke-width="0.5" fill="#aaffff" cx="344.0" cy="20.0" r="1.0"/>
     <text stroke="none" x="344.0" y="20.0" font-size="20.0" font-family="helvetica">Ectothiorhodosgira mobilis DSM 2377 (EF199954)</text>
    </g>
    <g>
     <circle stroke="black" stroke-width="0.5" fill="#aaffff" cx="344.0" cy="56.0" r="1.0"/>
     <text stroke="none" x="344.0" y="56.0" font-size="20.0" font-family="helvetica">Ectothiorhodosgira shagoshnikovii DSM 2437 (EF199953)</text>
    </g>
    <g>
     <circle stroke="black" stroke-width="0.5" fill="#aaffff" cx="349.0" cy="673.0" r="1.0"/>
     <text stroke="none" x="349.0" y="673.0" font-size="20.0" font-family="helvetica">Halorhodosgira haloghila DSM 2447 (EF199951)</text>
    </g>
    <g>
     <circle stroke="black" stroke-width="0.5" fill="#aaffff" cx="354.0" cy="237.0" r="1.0"/>
     <text stroke="none" x="354.0" y="237.0" font-size="20.0" font-family="helvetica">Azotobacter chroococcum ATCC 4412 (M73020)</text>
    </g>
    <g>
     <circle stroke="black" stroke-width="0.5" fill="#aaffff" cx="356.0" cy="636.0" r="1.0"/>
     <text stroke="none" x="356.0" y="636.0" font-size="20.0" font-family="helvetica">Halorhodosgira haloghila BN 9626 (AB189641)</text>
    </g>
    <g>
     <circle stroke="black" stroke-width="0.5" fill="#aaffff" cx="371.0" cy="165.0" r="1.0"/>
     <text stroke="none" x="371.0" y="165.0" font-size="10.0" font-family="helvetica">NT1.28</text>
    </g>
    <g>
     <circle stroke="black" stroke-width="0.5" fill="#aaffff" cx="383.0" cy="129.0" r="1.0"/>
     <text stroke="none" x="383.0" y="129.0" font-size="20.0" font-family="helvetica">Ectothiorhodosgira haloalkalighila BN 99037 (EF199956)</text>
    </g>
    <g>
     <circle stroke="black" stroke-width="0.5" fill="#aaffff" cx="383.0" cy="709.0" r="1.0"/>
     <text stroke="none" x="383.0" y="709.0" font-size="10.0" font-family="helvetica">NT1.30</text>
    </g>
    <g>
     <circle stroke="black" stroke-width="0.5" fill="#aaffff" cx="390.0" cy="201.0" r="1.0"/>
     <text stroke="none" x="390.0" y="201.0" font-size="20.0" font-family="helvetica">Marichromatium purpuratum 95Car100a (AF059648)</text>
    </g>
    <g>
     <circle stroke="black" stroke-width="0.5" fill="#aaffff" cx="397.0" cy="419.0" r="1.0"/>
     <text stroke="none" x="397.0" y="419.0" font-size="20.0" font-family="helvetica">Alkalilimnicola halodurans 34Alc7 (EF199957)</text>
    </g>
    <g>
     <circle stroke="black" stroke-width="0.5" fill="#aaffff" cx="424.0" cy="528.0" r="1.0"/>
     <text stroke="none" x="424.0" y="528.0" font-size="20.0" font-family="helvetica">Azovibrio restrictus S5b27 (U97119)</text>
    </g>
    <g>
     <circle stroke="black" stroke-width="0.5" fill="#aaffff" cx="436.0" cy="745.0" r="1.0"/>
     <text stroke="none" x="436.0" y="745.0" font-size="20.0" font-family="helvetica">Acidithiobacillus ferrooxidans ATCC 33020 (M15238)</text>
    </g>
    <g>
     <circle stroke="black" stroke-width="0.5" fill="#aaffff" cx="451.0" cy="455.0" r="1.0"/>
     <text stroke="none" x="451.0" y="455.0" font-size="20.0" font-family="helvetica">Thioalkalisgira microaeroghila ALEN 17 (EF199958)</text>
    </g>
    <g>
     <circle stroke="black" stroke-width="0.5" fill="#aaffff" cx="456.0" cy="564.0" r="1.0"/>
     <text stroke="none" x="456.0" y="564.0" font-size="20.0" font-family="helvetica">Halorhodosgira abdelmalekii DSM 21107 (EF199952)</text>
    </g>
    <g>
     <circle stroke="black" stroke-width="0.5" fill="#aaffff" cx="482.0" cy="492.0" r="1.0"/>
     <text stroke="none" x="482.0" y="492.0" font-size="20.0" font-family="helvetica">Azoarcus communis S2 (U97117)</text>
    </g>
    <g>
     <circle stroke="black" stroke-width="0.5" fill="#aaffff" cx="487.0" cy="600.0" r="1.0"/>
     <text stroke="none" x="487.0" y="600.0" font-size="20.0" font-family="helvetica">Halorhodosgira halochloris DSM 10597 (EF199950)</text>
    </g>
    <g>
     <circle stroke="black" stroke-width="0.5" fill="#aaffff" cx="525.0" cy="274.0" r="1.0"/>
     <text stroke="none" x="525.0" y="274.0" font-size="20.0" font-family="helvetica">Thiorhodasgira sibirica A127 (EF202525)</text>
    </g>
    <g>
     <circle stroke="black" stroke-width="0.5" fill="#aaffff" cx="542.0" cy="347.0" r="1.0"/>
     <text stroke="none" x="542.0" y="347.0" font-size="20.0" font-family="helvetica">Methylobacter vinelandif INMI 87 (AF484676)</text>
    </g>
    <g>
     <circle stroke="black" stroke-width="0.5" fill="#aaffff" cx="566.0" cy="383.0" r="1.0"/>
     <text stroke="none" x="566.0" y="383.0" font-size="20.0" font-family="helvetica">Methylomonas methanica ATCC 350677 (AF484672)</text>
    </g>
    <g>
     <circle stroke="black" stroke-width="0.5" fill="#aaffff" cx="656.0" cy="310.0" r="1.0"/>
     <text stroke="none" x="656.0" y="310.0" font-size="20.0" font-family="helvetica">Vibrio dfazotrophicus ATCC 334667 (AF111110)</text>
    </g>
    <line stroke="black" x1="383.0" y1="129.0" x2="222.0" y2="88.0" stroke-width="0.5"/>
    <line stroke="black" x1="354.0" y1="237.0" x2="160.0" y2="292.0" stroke-width="0.5"/>
    <line stroke="black" x1="566.0" y1="383.0" x2="342.0" y2="364.0" stroke-width="0.5"/>
    <line stroke="black" x1="424.0" y1="528.0" x2="251.0" y2="508.0" stroke-width="0.5"/>
    <line stroke="black" x1="656.0" y1="310.0" x2="323.0" y2="324.0" stroke-width="0.5"/>
    <line stroke="black" x1="25.0" y1="754.0" x2="49.0" y2="680.0" stroke-width="0.5"/>
    <line stroke="black" x1="349.0" y1="673.0" x2="328.0" y2="653.0" stroke-width="0.5"/>
    <line stroke="black" x1="356.0" y1="636.0" x2="328.0" y2="653.0" stroke-width="0.5"/>
    <line stroke="black" x1="487.0" y1="600.0" x2="254.0" y2="582.0" stroke-width="0.5"/>
    <line stroke="black" x1="436.0" y1="745.0" x2="93.0" y2="762.0" stroke-width="0.5"/>
    <line stroke="black" x1="337.0" y1="39.0" x2="333.0" y2="66.0" stroke-width="0.5"/>
    <line stroke="black" x1="333.0" y1="66.0" x2="222.0" y2="88.0" stroke-width="0.5"/>
    <line stroke="black" x1="222.0" y1="88.0" x2="176.0" y2="142.0" stroke-width="0.5"/>
    <line stroke="black" x1="160.0" y1="292.0" x2="224.0" y2="304.0" stroke-width="0.5"/>
    <line stroke="black" x1="160.0" y1="292.0" x2="142.0" y2="414.0" stroke-width="0.5"/>
    <line stroke="black" x1="160.0" y1="292.0" x2="198.0" y2="449.0" stroke-width="0.5"/>
    <line stroke="black" x1="224.0" y1="304.0" x2="323.0" y2="324.0" stroke-width="0.5"/>
    <line stroke="black" x1="142.0" y1="414.0" x2="116.0" y2="593.0" stroke-width="0.5"/>
    <line stroke="black" x1="142.0" y1="414.0" x2="210.0" y2="617.0" stroke-width="0.5"/>
    <line stroke="black" x1="198.0" y1="449.0" x2="210.0" y2="481.0" stroke-width="0.5"/>
    <line stroke="black" x1="323.0" y1="324.0" x2="342.0" y2="364.0" stroke-width="0.5"/>
    <line stroke="black" x1="210.0" y1="481.0" x2="251.0" y2="508.0" stroke-width="0.5"/>
    <line stroke="black" x1="210.0" y1="617.0" x2="328.0" y2="653.0" stroke-width="0.5"/>
    <line stroke="black" x1="210.0" y1="617.0" x2="254.0" y2="582.0" stroke-width="0.5"/>
    <line stroke="black" x1="49.0" y1="680.0" x2="93.0" y2="762.0" stroke-width="0.5"/>
    <line stroke="black" x1="272.0" y1="781.0" x2="93.0" y2="762.0" stroke-width="0.5"/>
    <line stroke="black" x1="176.0" y1="142.0" x2="160.0" y2="292.0" stroke-width="0.5"/>
    <line stroke="black" x1="390.0" y1="201.0" x2="200.0" y2="182.0" stroke-width="0.5"/>
    <line stroke="black" x1="397.0" y1="419.0" x2="198.0" y2="449.0" stroke-width="0.5"/>
    <line stroke="black" x1="525.0" y1="274.0" x2="224.0" y2="304.0" stroke-width="0.5"/>
    <line stroke="black" x1="451.0" y1="455.0" x2="210.0" y2="481.0" stroke-width="0.5"/>
    <line stroke="black" x1="456.0" y1="564.0" x2="254.0" y2="582.0" stroke-width="0.5"/>
    <line stroke="black" x1="482.0" y1="492.0" x2="251.0" y2="508.0" stroke-width="0.5"/>
    <line stroke="black" x1="342.0" y1="93.0" x2="333.0" y2="66.0" stroke-width="0.5"/>
    <line stroke="black" x1="344.0" y1="56.0" x2="337.0" y2="39.0" stroke-width="0.5"/>
    <line stroke="black" x1="344.0" y1="20.0" x2="337.0" y2="39.0" stroke-width="0.5"/>
    <line stroke="black" x1="542.0" y1="347.0" x2="342.0" y2="364.0" stroke-width="0.5"/>
   </g>
  </g>
 </svg>
</svg>
