<?xml version="1.0" encoding="UTF-8"?>
<svg height="800.0" width="700.0" xmlns="http://www.w3.org/2000/svg">
 <svg>
  <g>
   <g>
    <g>
     <circle stroke="black" stroke-width="0.5" fill="#aaffff" cx="146.0" cy="1236.0" r="1.0"/>
     <text stroke="none" x="146.0" y="1236.0" font-size="10.0" font-family="helvetica">NT1.1</text>
    </g>
    <g>
     <circle stroke="black" stroke-width="0.5" fill="#aaffff" cx="151.0" cy="1604.0" r="1.0"/>
     <text stroke="none" x="151.0" y="1604.0" font-size="10.0" font-family="helvetica">NT1.2</text>
    </g>
    <g>
     <circle stroke="black" stroke-width="0.5" fill="#aaffff" cx="176.0" cy="1563.0" r="1.0"/>
     <text stroke="none" x="176.0" y="1563.0" font-size="10.0" font-family="helvetica">NT1.3</text>
    </g>
    <g>
     <circle stroke="black" stroke-width="0.5" fill="#aaffff" cx="191.0" cy="861.0" r="1.0"/>
     <text stroke="none" x="191.0" y="861.0" font-size="20.0" font-family="helvetica">702</text>
    </g>
    <g>
     <circle stroke="black" stroke-width="0.5" fill="#aaffff" cx="211.0" cy="1092.0" r="1.0"/>
     <text stroke="none" x="211.0" y="1092.0" font-size="10.0" font-family="helvetica">NT1.5</text>
    </g>
    <g>
     <circle stroke="black" stroke-width="0.5" fill="#aaffff" cx="225.0" cy="1204.0" r="1.0"/>
     <text stroke="none" x="225.0" y="1204.0" font-size="10.0" font-family="helvetica">NT1.6</text>
    </g>
    <g>
     <circle stroke="black" stroke-width="0.5" fill="#aaffff" cx="227.0" cy="629.0" r="1.0"/>
     <text stroke="none" x="227.0" y="629.0" font-size="10.0" font-family="helvetica">NT1.7</text>
    </g>
    <g>
     <circle stroke="black" stroke-width="0.5" fill="#aaffff" cx="230.0" cy="1584.0" r="1.0"/>
     <text stroke="none" x="230.0" y="1584.0" font-size="20.0" font-family="helvetica">964</text>
    </g>
    <g>
     <circle stroke="black" stroke-width="0.5" fill="#aaffff" cx="240.0" cy="338.0" r="1.0"/>
     <text stroke="none" x="240.0" y="338.0" font-size="10.0" font-family="helvetica">NT1.9</text>
    </g>
    <g>
     <circle stroke="black" stroke-width="0.5" fill="#aaffff" cx="242.0" cy="1652.0" r="1.0"/>
     <text stroke="none" x="242.0" y="1652.0" font-size="10.0" font-family="helvetica">NT1.10</text>
    </g>
    <g>
     <circle stroke="black" stroke-width="0.5" fill="#aaffff" cx="255.0" cy="573.0" r="1.0"/>
     <text stroke="none" x="255.0" y="573.0" font-size="10.0" font-family="helvetica">NT1.11</text>
    </g>
    <g>
     <circle stroke="black" stroke-width="0.5" fill="#aaffff" cx="255.0" cy="981.0" r="1.0"/>
     <text stroke="none" x="255.0" y="981.0" font-size="20.0" font-family="helvetica">908</text>
    </g>
    <g>
     <circle stroke="black" stroke-width="0.5" fill="#aaffff" cx="283.0" cy="100.0" r="1.0"/>
     <text stroke="none" x="283.0" y="100.0" font-size="10.0" font-family="helvetica">NT1.13</text>
    </g>
    <g>
     <circle stroke="black" stroke-width="0.5" fill="#aaffff" cx="283.0" cy="320.0" r="1.0"/>
     <text stroke="none" x="283.0" y="320.0" font-size="10.0" font-family="helvetica">NT1.14</text>
    </g>
    <g>
     <circle stroke="black" stroke-width="0.5" fill="#aaffff" cx="290.0" cy="1341.0" r="1.0"/>
     <text stroke="none" x="290.0" y="1341.0" font-size="20.0" font-family="helvetica">897</text>
    </g>
    <g>
     <circle stroke="black" stroke-width="0.5" fill="#aaffff" cx="298.0" cy="1442.0" r="1.0"/>
     <text stroke="none" x="298.0" y="1442.0" font-size="10.0" font-family="helvetica">NT1.16</text>
    </g>
    <g>
     <circle stroke="black" stroke-width="0.5" fill="#aaffff" cx="299.0" cy="1602.0" r="1.0"/>
     <text stroke="none" x="299.0" y="1602.0" font-size="20.0" font-family="helvetica">Georgenia muralis NBRC 1035607 (AB455495)</text>
    </g>
    <g>
     <circle stroke="black" stroke-width="0.5" fill="#aaffff" cx="303.0" cy="158.0" r="1.0"/>
     <text stroke="none" x="303.0" y="158.0" font-size="10.0" font-family="helvetica">NT1.18</text>
    </g>
    <g>
     <circle stroke="black" stroke-width="0.5" fill="#aaffff" cx="308.0" cy="407.0" r="1.0"/>
     <text stroke="none" x="308.0" y="407.0" font-size="10.0" font-family="helvetica">NT1.19</text>
    </g>
    <g>
     <circle stroke="black" stroke-width="0.5" fill="#aaffff" cx="311.0" cy="1244.0" r="1.0"/>
     <text stroke="none" x="311.0" y="1244.0" font-size="10.0" font-family="helvetica">NT1.20</text>
    </g>
    <g>
     <circle stroke="black" stroke-width="0.5" fill="#aaffff" cx="313.0" cy="1480.0" r="1.0"/>
     <text stroke="none" x="313.0" y="1480.0" font-size="10.0" font-family="helvetica">NT1.21</text>
    </g>
    <g>
     <circle stroke="black" stroke-width="0.5" fill="#aaffff" cx="321.0" cy="231.0" r="1.0"/>
     <text stroke="none" x="321.0" y="231.0" font-size="10.0" font-family="helvetica">NT1.22</text>
    </g>
    <g>
     <circle stroke="black" stroke-width="0.5" fill="#aaffff" cx="321.0" cy="1456.0" r="1.0"/>
     <text stroke="none" x="321.0" y="1456.0" font-size="10.0" font-family="helvetica">NT1.23</text>
    </g>
    <g>
     <circle stroke="black" stroke-width="0.5" fill="#aaffff" cx="323.0" cy="44.0" r="1.0"/>
     <text stroke="none" x="323.0" y="44.0" font-size="20.0" font-family="helvetica">933</text>
    </g>
    <g>
     <circle stroke="black" stroke-width="0.5" fill="#aaffff" cx="334.0" cy="1001.0" r="1.0"/>
     <text stroke="none" x="334.0" y="1001.0" font-size="10.0" font-family="helvetica">NT1.25</text>
    </g>
    <g>
     <circle stroke="black" stroke-width="0.5" fill="#aaffff" cx="339.0" cy="490.0" r="1.0"/>
     <text stroke="none" x="339.0" y="490.0" font-size="10.0" font-family="helvetica">NT1.26</text>
    </g>
    <g>
     <circle stroke="black" stroke-width="0.5" fill="#aaffff" cx="340.0" cy="954.0" r="1.0"/>
     <text stroke="none" x="340.0" y="954.0" font-size="20.0" font-family="helvetica">Cellulosimicrobium terreum DS-617 (EF076760)</text>
    </g>
    <g>
     <circle stroke="black" stroke-width="0.5" fill="#aaffff" cx="340.0" cy="987.0" r="1.0"/>
     <text stroke="none" x="340.0" y="987.0" font-size="20.0" font-family="helvetica">Cellulosimicrobium funkei W61 227 (AY501364)</text>
    </g>
    <g>
     <circle stroke="black" stroke-width="0.5" fill="#aaffff" cx="346.0" cy="573.0" r="1.0"/>
     <text stroke="none" x="346.0" y="573.0" font-size="20.0" font-family="helvetica">31</text>
    </g>
    <g>
     <circle stroke="black" stroke-width="0.5" fill="#aaffff" cx="349.0" cy="827.0" r="1.0"/>
     <text stroke="none" x="349.0" y="827.0" font-size="10.0" font-family="helvetica">NT1.30</text>
    </g>
    <g>
     <circle stroke="black" stroke-width="0.5" fill="#aaffff" cx="350.0" cy="1568.0" r="1.0"/>
     <text stroke="none" x="350.0" y="1568.0" font-size="20.0" font-family="helvetica">Georgenia ruanii YIM 0047 (DQ203185)</text>
    </g>
    <g>
     <circle stroke="black" stroke-width="0.5" fill="#aaffff" cx="352.0" cy="1018.0" r="1.0"/>
     <text stroke="none" x="352.0" y="1018.0" font-size="20.0" font-family="helvetica">Cellulosimicrobium cellulans ATCC 1 28307 (AY501 363)</text>
    </g>
    <g>
     <circle stroke="black" stroke-width="0.5" fill="#aaffff" cx="352.0" cy="545.0" r="1.0"/>
     <text stroke="none" x="352.0" y="545.0" font-size="20.0" font-family="helvetica">31</text>
    </g>
    <g>
     <circle stroke="black" stroke-width="0.5" fill="#aaffff" cx="354.0" cy="1333.0" r="1.0"/>
     <text stroke="none" x="354.0" y="1333.0" font-size="20.0" font-family="helvetica">897</text>
    </g>
    <g>
     <circle stroke="black" stroke-width="0.5" fill="#aaffff" cx="357.0" cy="790.0" r="1.0"/>
     <text stroke="none" x="357.0" y="790.0" font-size="20.0" font-family="helvetica">Oerskovla enterophila DSM 438527 (X83807)</text>
    </g>
    <g>
     <circle stroke="black" stroke-width="0.5" fill="#aaffff" cx="357.0" cy="1407.0" r="1.0"/>
     <text stroke="none" x="357.0" y="1407.0" font-size="20.0" font-family="helvetica">lsoptericola variabilis MX57 (AJ298873)</text>
    </g>
    <g>
     <circle stroke="black" stroke-width="0.5" fill="#aaffff" cx="360.0" cy="1668.0" r="1.0"/>
     <text stroke="none" x="360.0" y="1668.0" font-size="20.0" font-family="helvetica">Beutenbergia cavernae DSM 123337 (Y18378)</text>
    </g>
    <g>
     <circle stroke="black" stroke-width="0.5" fill="#aaffff" cx="361.0" cy="1147.0" r="1.0"/>
     <text stroke="none" x="361.0" y="1147.0" font-size="10.0" font-family="helvetica">NT1.38</text>
    </g>
    <g>
     <circle stroke="black" stroke-width="0.5" fill="#aaffff" cx="364.0" cy="865.0" r="1.0"/>
     <text stroke="none" x="364.0" y="865.0" font-size="20.0" font-family="helvetica">944</text>
    </g>
    <g>
     <circle stroke="black" stroke-width="0.5" fill="#aaffff" cx="366.0" cy="824.0" r="1.0"/>
     <text stroke="none" x="366.0" y="824.0" font-size="20.0" font-family="helvetica">Oerskovia jenensis DSM 460007 (AJ314848)</text>
    </g>
    <g>
     <circle stroke="black" stroke-width="0.5" fill="#aaffff" cx="366.0" cy="257.0" r="1.0"/>
     <text stroke="none" x="366.0" y="257.0" font-size="20.0" font-family="helvetica">779</text>
    </g>
    <g>
     <circle stroke="black" stroke-width="0.5" fill="#aaffff" cx="366.0" cy="414.0" r="1.0"/>
     <text stroke="none" x="366.0" y="414.0" font-size="20.0" font-family="helvetica">762</text>
    </g>
    <g>
     <circle stroke="black" stroke-width="0.5" fill="#aaffff" cx="369.0" cy="323.0" r="1.0"/>
     <text stroke="none" x="369.0" y="323.0" font-size="10.0" font-family="helvetica">NT1.43</text>
    </g>
    <g>
     <circle stroke="black" stroke-width="0.5" fill="#aaffff" cx="370.0" cy="888.0" r="1.0"/>
     <text stroke="none" x="370.0" y="888.0" font-size="20.0" font-family="helvetica">Oerskovia turbata NCIMB 105877 (X79454)</text>
    </g>
    <g>
     <circle stroke="black" stroke-width="0.5" fill="#aaffff" cx="374.0" cy="650.0" r="1.0"/>
     <text stroke="none" x="374.0" y="650.0" font-size="10.0" font-family="helvetica">NT1.45</text>
    </g>
    <g>
     <circle stroke="black" stroke-width="0.5" fill="#aaffff" cx="377.0" cy="497.0" r="1.0"/>
     <text stroke="none" x="377.0" y="497.0" font-size="10.0" font-family="helvetica">NT1.46</text>
    </g>
    <g>
     <circle stroke="black" stroke-width="0.5" fill="#aaffff" cx="377.0" cy="1358.0" r="1.0"/>
     <text stroke="none" x="377.0" y="1358.0" font-size="10.0" font-family="helvetica">NT1.47</text>
    </g>
    <g>
     <circle stroke="black" stroke-width="0.5" fill="#aaffff" cx="378.0" cy="1440.0" r="1.0"/>
     <text stroke="none" x="378.0" y="1440.0" font-size="20.0" font-family="helvetica">Isoptericola dokdonensis DS-37 (DQ387860)</text>
    </g>
    <g>
     <circle stroke="black" stroke-width="0.5" fill="#aaffff" cx="379.0" cy="70.0" r="1.0"/>
     <text stroke="none" x="379.0" y="70.0" font-size="10.0" font-family="helvetica">NT1.49</text>
    </g>
    <g>
     <circle stroke="black" stroke-width="0.5" fill="#aaffff" cx="384.0" cy="1067.0" r="1.0"/>
     <text stroke="none" x="384.0" y="1067.0" font-size="10.0" font-family="helvetica">NT1.50</text>
    </g>
    <g>
     <circle stroke="black" stroke-width="0.5" fill="#aaffff" cx="392.0" cy="690.0" r="1.0"/>
     <text stroke="none" x="392.0" y="690.0" font-size="10.0" font-family="helvetica">NT1.51</text>
    </g>
    <g>
     <circle stroke="black" stroke-width="0.5" fill="#aaffff" cx="395.0" cy="1470.0" r="1.0"/>
     <text stroke="none" x="395.0" y="1470.0" font-size="20.0" font-family="helvetica">lsoptericola hypogeus HKI 03427 (AJ854061)</text>
    </g>
    <g>
     <circle stroke="black" stroke-width="0.5" fill="#aaffff" cx="397.0" cy="525.0" r="1.0"/>
     <text stroke="none" x="397.0" y="525.0" font-size="20.0" font-family="helvetica">31</text>
    </g>
    <g>
     <circle stroke="black" stroke-width="0.5" fill="#aaffff" cx="398.0" cy="922.0" r="1.0"/>
     <text stroke="none" x="398.0" y="922.0" font-size="20.0" font-family="helvetica">Paraoerskovia marina CTT-377 (AB445007)</text>
    </g>
    <g>
     <circle stroke="black" stroke-width="0.5" fill="#aaffff" cx="399.0" cy="718.0" r="1.0"/>
     <text stroke="none" x="399.0" y="718.0" font-size="10.0" font-family="helvetica">NT1.55</text>
    </g>
    <g>
     <circle stroke="black" stroke-width="0.5" fill="#aaffff" cx="400.0" cy="13.0" r="1.0"/>
     <text stroke="none" x="400.0" y="13.0" font-size="20.0" font-family="helvetica">Sanguibacter antarcticus KOPRI 21 7027 (EF21 1071)</text>
    </g>
    <g>
     <circle stroke="black" stroke-width="0.5" fill="#aaffff" cx="403.0" cy="1506.0" r="1.0"/>
     <text stroke="none" x="403.0" y="1506.0" font-size="20.0" font-family="helvetica">lsoptericola halotolerans YIM 701 777 (AY789835)</text>
    </g>
    <g>
     <circle stroke="black" stroke-width="0.5" fill="#aaffff" cx="410.0" cy="93.0" r="1.0"/>
     <text stroke="none" x="410.0" y="93.0" font-size="20.0" font-family="helvetica">974</text>
    </g>
    <g>
     <circle stroke="black" stroke-width="0.5" fill="#aaffff" cx="413.0" cy="175.0" r="1.0"/>
     <text stroke="none" x="413.0" y="175.0" font-size="20.0" font-family="helvetica">Sanguibacter marinus 1-197 (AJ 783958)</text>
    </g>
    <g>
     <circle stroke="black" stroke-width="0.5" fill="#aaffff" cx="416.0" cy="337.0" r="1.0"/>
     <text stroke="none" x="416.0" y="337.0" font-size="20.0" font-family="helvetica">Cellulomonas denverensis ATCC BAA-7887 (AY501362)</text>
    </g>
    <g>
     <circle stroke="black" stroke-width="0.5" fill="#aaffff" cx="418.0" cy="144.0" r="1.0"/>
     <text stroke="none" x="418.0" y="144.0" font-size="20.0" font-family="helvetica">Sanguibacter soli DCY227 (EF547937)</text>
    </g>
    <g>
     <circle stroke="black" stroke-width="0.5" fill="#aaffff" cx="420.0" cy="614.0" r="1.0"/>
     <text stroke="none" x="420.0" y="614.0" font-size="10.0" font-family="helvetica">NT1.62</text>
    </g>
    <g>
     <circle stroke="black" stroke-width="0.5" fill="#aaffff" cx="421.0" cy="46.0" r="1.0"/>
     <text stroke="none" x="421.0" y="46.0" font-size="20.0" font-family="helvetica">Sanguibacter keddieii ST-747 (X79450)</text>
    </g>
    <g>
     <circle stroke="black" stroke-width="0.5" fill="#aaffff" cx="421.0" cy="111.0" r="1.0"/>
     <text stroke="none" x="421.0" y="111.0" font-size="20.0" font-family="helvetica">Sanguibacter inulinus ST-507 (X79451)</text>
    </g>
    <g>
     <circle stroke="black" stroke-width="0.5" fill="#aaffff" cx="421.0" cy="306.0" r="1.0"/>
     <text stroke="none" x="421.0" y="306.0" font-size="20.0" font-family="helvetica">CeHulomonas hominfs CE407 (X82598)</text>
    </g>
    <g>
     <circle stroke="black" stroke-width="0.5" fill="#aaffff" cx="421.0" cy="435.0" r="1.0"/>
     <text stroke="none" x="421.0" y="435.0" font-size="20.0" font-family="helvetica">Cellulomonas terrae DB57 (AY884570)</text>
    </g>
    <g>
     <circle stroke="black" stroke-width="0.5" fill="#aaffff" cx="422.0" cy="388.0" r="1.0"/>
     <text stroke="none" x="422.0" y="388.0" font-size="10.0" font-family="helvetica">NT1.67</text>
    </g>
    <g>
     <circle stroke="black" stroke-width="0.5" fill="#aaffff" cx="422.0" cy="741.0" r="1.0"/>
     <text stroke="none" x="422.0" y="741.0" font-size="10.0" font-family="helvetica">NT1.68</text>
    </g>
    <g>
     <circle stroke="black" stroke-width="0.5" fill="#aaffff" cx="426.0" cy="499.0" r="1.0"/>
     <text stroke="none" x="426.0" y="499.0" font-size="20.0" font-family="helvetica">Cellulomonas chitinilytica X.bu-b7 (AB268586)</text>
    </g>
    <g>
     <circle stroke="black" stroke-width="0.5" fill="#aaffff" cx="436.0" cy="1342.0" r="1.0"/>
     <text stroke="none" x="436.0" y="1342.0" font-size="20.0" font-family="helvetica"/>
    </g>
    <g>
     <circle stroke="black" stroke-width="0.5" fill="#aaffff" cx="444.0" cy="1701.0" r="1.0"/>
     <text stroke="none" x="444.0" y="1701.0" font-size="20.0" font-family="helvetica">Brevibacterium linens DSM 204257 (X77451)</text>
    </g>
    <g>
     <circle stroke="black" stroke-width="0.5" fill="#aaffff" cx="446.0" cy="79.0" r="1.0"/>
     <text stroke="none" x="446.0" y="79.0" font-size="20.0" font-family="helvetica">Sanguibacter suarezii ST-267 (X79452)</text>
    </g>
    <g>
     <circle stroke="black" stroke-width="0.5" fill="#aaffff" cx="446.0" cy="663.0" r="1.0"/>
     <text stroke="none" x="446.0" y="663.0" font-size="20.0" font-family="helvetica">Cellulomonas composti TR 7-067 (AB166887)</text>
    </g>
    <g>
     <circle stroke="black" stroke-width="0.5" fill="#aaffff" cx="449.0" cy="370.0" r="1.0"/>
     <text stroke="none" x="449.0" y="370.0" font-size="20.0" font-family="helvetica">Cellulomonas xylanilytica XIL1 17 (AY303668)</text>
    </g>
    <g>
     <circle stroke="black" stroke-width="0.5" fill="#aaffff" cx="451.0" cy="548.0" r="1.0"/>
     <text stroke="none" x="451.0" y="548.0" font-size="10.0" font-family="helvetica">NT1.75</text>
    </g>
    <g>
     <circle stroke="black" stroke-width="0.5" fill="#aaffff" cx="454.0" cy="468.0" r="1.0"/>
     <text stroke="none" x="454.0" y="468.0" font-size="20.0" font-family="helvetica">Cellulomonas cellasea DSM 201 187 (X83804)</text>
    </g>
    <g>
     <circle stroke="black" stroke-width="0.5" fill="#aaffff" cx="456.0" cy="1176.0" r="1.0"/>
     <text stroke="none" x="456.0" y="1176.0" font-size="10.0" font-family="helvetica">NT1.77</text>
    </g>
    <g>
     <circle stroke="black" stroke-width="0.5" fill="#aaffff" cx="457.0" cy="1635.0" r="1.0"/>
     <text stroke="none" x="457.0" y="1635.0" font-size="20.0" font-family="helvetica">Salana multivorans Se-31 1 17 (AJ400627)</text>
    </g>
    <g>
     <circle stroke="black" stroke-width="0.5" fill="#aaffff" cx="459.0" cy="696.0" r="1.0"/>
     <text stroke="none" x="459.0" y="696.0" font-size="20.0" font-family="helvetica">Cellulomonas iranensis O7 (AFO64702)</text>
    </g>
    <g>
     <circle stroke="black" stroke-width="0.5" fill="#aaffff" cx="462.0" cy="1311.0" r="1.0"/>
     <text stroke="none" x="462.0" y="1311.0" font-size="20.0" font-family="helvetica">Xylanimonas cellulosilytica XILO77 (AF403541)</text>
    </g>
    <g>
     <circle stroke="black" stroke-width="0.5" fill="#aaffff" cx="464.0" cy="403.0" r="1.0"/>
     <text stroke="none" x="464.0" y="403.0" font-size="20.0" font-family="helvetica">Cellulomonas humilata ATCC 251 747 (X82449)</text>
    </g>
    <g>
     <circle stroke="black" stroke-width="0.5" fill="#aaffff" cx="467.0" cy="534.0" r="1.0"/>
     <text stroke="none" x="467.0" y="534.0" font-size="20.0" font-family="helvetica">Cellulomonas fimi DSM 201 137 (X79460)</text>
    </g>
    <g>
     <circle stroke="black" stroke-width="0.5" fill="#aaffff" cx="467.0" cy="564.0" r="1.0"/>
     <text stroke="none" x="467.0" y="564.0" font-size="20.0" font-family="helvetica">Cellulomonas biazotea DSM 201 1 27 (X83802)</text>
    </g>
    <g>
     <circle stroke="black" stroke-width="0.5" fill="#aaffff" cx="467.0" cy="1539.0" r="1.0"/>
     <text stroke="none" x="467.0" y="1539.0" font-size="20.0" font-family="helvetica">Bogoriella caseolytica HKI 00887 (Y0991 1)</text>
    </g>
    <g>
     <circle stroke="black" stroke-width="0.5" fill="#aaffff" cx="477.0" cy="726.0" r="1.0"/>
     <text stroke="none" x="477.0" y="726.0" font-size="20.0" font-family="helvetica">Cellulomonas uda DSM 201077 (X83801)</text>
    </g>
    <g>
     <circle stroke="black" stroke-width="0.5" fill="#aaffff" cx="477.0" cy="1377.0" r="1.0"/>
     <text stroke="none" x="477.0" y="1377.0" font-size="20.0" font-family="helvetica">Xylanibacterium ulmi XlLO87 (AY2731 85)</text>
    </g>
    <g>
     <circle stroke="black" stroke-width="0.5" fill="#aaffff" cx="479.0" cy="759.0" r="1.0"/>
     <text stroke="none" x="479.0" y="759.0" font-size="20.0" font-family="helvetica">Cellulomonas gelida DSM 2011 17 (X83800)</text>
    </g>
    <g>
     <circle stroke="black" stroke-width="0.5" fill="#aaffff" cx="481.0" cy="1207.0" r="1.0"/>
     <text stroke="none" x="481.0" y="1207.0" font-size="10.0" font-family="helvetica">NT1.88</text>
    </g>
    <g>
     <circle stroke="black" stroke-width="0.5" fill="#aaffff" cx="484.0" cy="628.0" r="1.0"/>
     <text stroke="none" x="484.0" y="628.0" font-size="20.0" font-family="helvetica">Cellulomonas flavigena DSM 201097 (X83799)</text>
    </g>
    <g>
     <circle stroke="black" stroke-width="0.5" fill="#aaffff" cx="487.0" cy="208.0" r="1.0"/>
     <text stroke="none" x="487.0" y="208.0" font-size="20.0" font-family="helvetica">Cellulomonas bogoriensis 69B47(X92152)</text>
    </g>
    <g>
     <circle stroke="black" stroke-width="0.5" fill="#aaffff" cx="487.0" cy="1086.0" r="1.0"/>
     <text stroke="none" x="487.0" y="1086.0" font-size="20.0" font-family="helvetica">Rarobacter faecitabidus IFO 147607 (AB0561 27)</text>
    </g>
    <g>
     <circle stroke="black" stroke-width="0.5" fill="#aaffff" cx="491.0" cy="1237.0" r="1.0"/>
     <text stroke="none" x="491.0" y="1237.0" font-size="20.0" font-family="helvetica">921</text>
    </g>
    <g>
     <circle stroke="black" stroke-width="0.5" fill="#aaffff" cx="495.0" cy="240.0" r="1.0"/>
     <text stroke="none" x="495.0" y="240.0" font-size="20.0" font-family="helvetica">Actinotalea fermentans DSM 31337 (X79458)</text>
    </g>
    <g>
     <circle stroke="black" stroke-width="0.5" fill="#aaffff" cx="505.0" cy="597.0" r="1.0"/>
     <text stroke="none" x="505.0" y="597.0" font-size="20.0" font-family="helvetica">Cellulomonas persica I7 (AF064701)</text>
    </g>
    <g>
     <circle stroke="black" stroke-width="0.5" fill="#aaffff" cx="512.0" cy="1149.0" r="1.0"/>
     <text stroke="none" x="512.0" y="1149.0" font-size="20.0" font-family="helvetica">Promicromonospora citrea DSM 431 107 (X83808)</text>
    </g>
    <g>
     <circle stroke="black" stroke-width="0.5" fill="#aaffff" cx="516.0" cy="1262.0" r="1.0"/>
     <text stroke="none" x="516.0" y="1262.0" font-size="20.0" font-family="helvetica">921</text>
    </g>
    <g>
     <circle stroke="black" stroke-width="0.5" fill="#aaffff" cx="517.0" cy="1050.0" r="1.0"/>
     <text stroke="none" x="517.0" y="1050.0" font-size="20.0" font-family="helvetica">Rarobacter incanus YM-327 (AB0561 29)</text>
    </g>
    <g>
     <circle stroke="black" stroke-width="0.5" fill="#aaffff" cx="525.0" cy="1179.0" r="1.0"/>
     <text stroke="none" x="525.0" y="1179.0" font-size="20.0" font-family="helvetica">Promicromonospora sukumoe DSM 441 217 (AJ272024)</text>
    </g>
    <g>
     <circle stroke="black" stroke-width="0.5" fill="#aaffff" cx="533.0" cy="1215.0" r="1.0"/>
     <text stroke="none" x="533.0" y="1215.0" font-size="20.0" font-family="helvetica">Promicromonospora kroppenstedtiiRS167 (AM709608)</text>
    </g>
    <g>
     <circle stroke="black" stroke-width="0.5" fill="#aaffff" cx="545.0" cy="1246.0" r="1.0"/>
     <text stroke="none" x="545.0" y="1246.0" font-size="20.0" font-family="helvetica">Promicromonospora vindobonensis V457 (AJ487302)</text>
    </g>
    <g>
     <circle stroke="black" stroke-width="0.5" fill="#aaffff" cx="550.0" cy="1278.0" r="1.0"/>
     <text stroke="none" x="550.0" y="1278.0" font-size="20.0" font-family="helvetica">Promicromonospora aerolata V54A7 (AJ 487303)</text>
    </g>
    <g>
     <circle stroke="black" stroke-width="0.5" fill="#aaffff" cx="586.0" cy="1116.0" r="1.0"/>
     <text stroke="none" x="586.0" y="1116.0" font-size="20.0" font-family="helvetica">Myceligenerans xiligouense XLG9A10.27 (AY354285)</text>
    </g>
    <g>
     <circle stroke="black" stroke-width="0.5" fill="#aaffff" cx="647.0" cy="273.0" r="1.0"/>
     <text stroke="none" x="647.0" y="273.0" font-size="20.0" font-family="helvetica">Demequina aestuariiJC20547 (DQ010160)</text>
    </g>
    <line stroke="black" x1="421.0" y1="46.0" x2="379.0" y2="70.0" stroke-width="0.5"/>
    <line stroke="black" x1="446.0" y1="79.0" x2="410.0" y2="93.0" stroke-width="0.5"/>
    <line stroke="black" x1="366.0" y1="824.0" x2="364.0" y2="865.0" stroke-width="0.5"/>
    <line stroke="black" x1="416.0" y1="337.0" x2="369.0" y2="323.0" stroke-width="0.5"/>
    <line stroke="black" x1="421.0" y1="306.0" x2="369.0" y2="323.0" stroke-width="0.5"/>
    <line stroke="black" x1="449.0" y1="370.0" x2="422.0" y2="388.0" stroke-width="0.5"/>
    <line stroke="black" x1="464.0" y1="403.0" x2="422.0" y2="388.0" stroke-width="0.5"/>
    <line stroke="black" x1="446.0" y1="663.0" x2="392.0" y2="690.0" stroke-width="0.5"/>
    <line stroke="black" x1="467.0" y1="564.0" x2="451.0" y2="548.0" stroke-width="0.5"/>
    <line stroke="black" x1="352.0" y1="1018.0" x2="334.0" y2="1001.0" stroke-width="0.5"/>
    <line stroke="black" x1="479.0" y1="759.0" x2="422.0" y2="741.0" stroke-width="0.5"/>
    <line stroke="black" x1="378.0" y1="1440.0" x2="321.0" y2="1456.0" stroke-width="0.5"/>
    <line stroke="black" x1="403.0" y1="1506.0" x2="313.0" y2="1480.0" stroke-width="0.5"/>
    <line stroke="black" x1="299.0" y1="1602.0" x2="230.0" y2="1584.0" stroke-width="0.5"/>
    <line stroke="black" x1="350.0" y1="1568.0" x2="230.0" y2="1584.0" stroke-width="0.5"/>
    <line stroke="black" x1="533.0" y1="1215.0" x2="491.0" y2="1237.0" stroke-width="0.5"/>
    <line stroke="black" x1="467.0" y1="1539.0" x2="176.0" y2="1563.0" stroke-width="0.5"/>
    <line stroke="black" x1="323.0" y1="44.0" x2="283.0" y2="100.0" stroke-width="0.5"/>
    <line stroke="black" x1="323.0" y1="44.0" x2="379.0" y2="70.0" stroke-width="0.5"/>
    <line stroke="black" x1="379.0" y1="70.0" x2="410.0" y2="93.0" stroke-width="0.5"/>
    <line stroke="black" x1="283.0" y1="100.0" x2="240.0" y2="338.0" stroke-width="0.5"/>
    <line stroke="black" x1="283.0" y1="100.0" x2="303.0" y2="158.0" stroke-width="0.5"/>
    <line stroke="black" x1="240.0" y1="338.0" x2="227.0" y2="629.0" stroke-width="0.5"/>
    <line stroke="black" x1="240.0" y1="338.0" x2="255.0" y2="573.0" stroke-width="0.5"/>
    <line stroke="black" x1="255.0" y1="573.0" x2="349.0" y2="827.0" stroke-width="0.5"/>
    <line stroke="black" x1="255.0" y1="573.0" x2="283.0" y2="320.0" stroke-width="0.5"/>
    <line stroke="black" x1="227.0" y1="629.0" x2="191.0" y2="861.0" stroke-width="0.5"/>
    <line stroke="black" x1="283.0" y1="320.0" x2="308.0" y2="407.0" stroke-width="0.5"/>
    <line stroke="black" x1="283.0" y1="320.0" x2="321.0" y2="231.0" stroke-width="0.5"/>
    <line stroke="black" x1="191.0" y1="861.0" x2="146.0" y2="1236.0" stroke-width="0.5"/>
    <line stroke="black" x1="191.0" y1="861.0" x2="211.0" y2="1092.0" stroke-width="0.5"/>
    <line stroke="black" x1="349.0" y1="827.0" x2="364.0" y2="865.0" stroke-width="0.5"/>
    <line stroke="black" x1="308.0" y1="407.0" x2="339.0" y2="490.0" stroke-width="0.5"/>
    <line stroke="black" x1="308.0" y1="407.0" x2="369.0" y2="323.0" stroke-width="0.5"/>
    <line stroke="black" x1="321.0" y1="231.0" x2="366.0" y2="257.0" stroke-width="0.5"/>
    <line stroke="black" x1="339.0" y1="490.0" x2="346.0" y2="573.0" stroke-width="0.5"/>
    <line stroke="black" x1="339.0" y1="490.0" x2="366.0" y2="414.0" stroke-width="0.5"/>
    <line stroke="black" x1="211.0" y1="1092.0" x2="225.0" y2="1204.0" stroke-width="0.5"/>
    <line stroke="black" x1="211.0" y1="1092.0" x2="255.0" y2="981.0" stroke-width="0.5"/>
    <line stroke="black" x1="346.0" y1="573.0" x2="374.0" y2="650.0" stroke-width="0.5"/>
    <line stroke="black" x1="346.0" y1="573.0" x2="352.0" y2="545.0" stroke-width="0.5"/>
    <line stroke="black" x1="366.0" y1="414.0" x2="422.0" y2="388.0" stroke-width="0.5"/>
    <line stroke="black" x1="352.0" y1="545.0" x2="377.0" y2="497.0" stroke-width="0.5"/>
    <line stroke="black" x1="352.0" y1="545.0" x2="352.0" y2="545.0" stroke-width="0.5"/>
    <line stroke="black" x1="374.0" y1="650.0" x2="392.0" y2="690.0" stroke-width="0.5"/>
    <line stroke="black" x1="374.0" y1="650.0" x2="420.0" y2="614.0" stroke-width="0.5"/>
    <line stroke="black" x1="225.0" y1="1204.0" x2="290.0" y2="1341.0" stroke-width="0.5"/>
    <line stroke="black" x1="225.0" y1="1204.0" x2="384.0" y2="1067.0" stroke-width="0.5"/>
    <line stroke="black" x1="377.0" y1="497.0" x2="397.0" y2="525.0" stroke-width="0.5"/>
    <line stroke="black" x1="255.0" y1="981.0" x2="334.0" y2="1001.0" stroke-width="0.5"/>
    <line stroke="black" x1="397.0" y1="525.0" x2="451.0" y2="548.0" stroke-width="0.5"/>
    <line stroke="black" x1="146.0" y1="1236.0" x2="151.0" y2="1604.0" stroke-width="0.5"/>
    <line stroke="black" x1="392.0" y1="690.0" x2="399.0" y2="718.0" stroke-width="0.5"/>
    <line stroke="black" x1="399.0" y1="718.0" x2="422.0" y2="741.0" stroke-width="0.5"/>
    <line stroke="black" x1="290.0" y1="1341.0" x2="298.0" y2="1442.0" stroke-width="0.5"/>
    <line stroke="black" x1="290.0" y1="1341.0" x2="311.0" y2="1244.0" stroke-width="0.5"/>
    <line stroke="black" x1="298.0" y1="1442.0" x2="313.0" y2="1480.0" stroke-width="0.5"/>
    <line stroke="black" x1="311.0" y1="1244.0" x2="354.0" y2="1333.0" stroke-width="0.5"/>
    <line stroke="black" x1="311.0" y1="1244.0" x2="361.0" y2="1147.0" stroke-width="0.5"/>
    <line stroke="black" x1="313.0" y1="1480.0" x2="321.0" y2="1456.0" stroke-width="0.5"/>
    <line stroke="black" x1="151.0" y1="1604.0" x2="242.0" y2="1652.0" stroke-width="0.5"/>
    <line stroke="black" x1="151.0" y1="1604.0" x2="176.0" y2="1563.0" stroke-width="0.5"/>
    <line stroke="black" x1="354.0" y1="1333.0" x2="377.0" y2="1358.0" stroke-width="0.5"/>
    <line stroke="black" x1="361.0" y1="1147.0" x2="456.0" y2="1176.0" stroke-width="0.5"/>
    <line stroke="black" x1="176.0" y1="1563.0" x2="230.0" y2="1584.0" stroke-width="0.5"/>
    <line stroke="black" x1="456.0" y1="1176.0" x2="481.0" y2="1207.0" stroke-width="0.5"/>
    <line stroke="black" x1="481.0" y1="1207.0" x2="491.0" y2="1237.0" stroke-width="0.5"/>
    <line stroke="black" x1="491.0" y1="1237.0" x2="516.0" y2="1262.0" stroke-width="0.5"/>
    <line stroke="black" x1="444.0" y1="1701.0" x2="146.0" y2="1236.0" stroke-width="0.5"/>
    <line stroke="black" x1="360.0" y1="1668.0" x2="242.0" y2="1652.0" stroke-width="0.5"/>
    <line stroke="black" x1="398.0" y1="922.0" x2="227.0" y2="629.0" stroke-width="0.5"/>
    <line stroke="black" x1="340.0" y1="954.0" x2="255.0" y2="981.0" stroke-width="0.5"/>
    <line stroke="black" x1="457.0" y1="1635.0" x2="242.0" y2="1652.0" stroke-width="0.5"/>
    <line stroke="black" x1="357.0" y1="1407.0" x2="298.0" y2="1442.0" stroke-width="0.5"/>
    <line stroke="black" x1="340.0" y1="987.0" x2="334.0" y2="1001.0" stroke-width="0.5"/>
    <line stroke="black" x1="413.0" y1="175.0" x2="303.0" y2="158.0" stroke-width="0.5"/>
    <line stroke="black" x1="418.0" y1="144.0" x2="303.0" y2="158.0" stroke-width="0.5"/>
    <line stroke="black" x1="395.0" y1="1470.0" x2="321.0" y2="1456.0" stroke-width="0.5"/>
    <line stroke="black" x1="357.0" y1="790.0" x2="349.0" y2="827.0" stroke-width="0.5"/>
    <line stroke="black" x1="352.0" y1="545.0" x2="352.0" y2="545.0" stroke-width="0.5"/>
    <line stroke="black" x1="400.0" y1="13.0" x2="323.0" y2="44.0" stroke-width="0.5"/>
    <line stroke="black" x1="370.0" y1="888.0" x2="364.0" y2="865.0" stroke-width="0.5"/>
    <line stroke="black" x1="487.0" y1="208.0" x2="321.0" y2="231.0" stroke-width="0.5"/>
    <line stroke="black" x1="421.0" y1="435.0" x2="366.0" y2="414.0" stroke-width="0.5"/>
    <line stroke="black" x1="462.0" y1="1311.0" x2="354.0" y2="1333.0" stroke-width="0.5"/>
    <line stroke="black" x1="436.0" y1="1342.0" x2="377.0" y2="1358.0" stroke-width="0.5"/>
    <line stroke="black" x1="454.0" y1="468.0" x2="377.0" y2="497.0" stroke-width="0.5"/>
    <line stroke="black" x1="426.0" y1="499.0" x2="397.0" y2="525.0" stroke-width="0.5"/>
    <line stroke="black" x1="495.0" y1="240.0" x2="366.0" y2="257.0" stroke-width="0.5"/>
    <line stroke="black" x1="477.0" y1="1377.0" x2="377.0" y2="1358.0" stroke-width="0.5"/>
    <line stroke="black" x1="421.0" y1="111.0" x2="410.0" y2="93.0" stroke-width="0.5"/>
    <line stroke="black" x1="487.0" y1="1086.0" x2="384.0" y2="1067.0" stroke-width="0.5"/>
    <line stroke="black" x1="459.0" y1="696.0" x2="399.0" y2="718.0" stroke-width="0.5"/>
    <line stroke="black" x1="517.0" y1="1050.0" x2="384.0" y2="1067.0" stroke-width="0.5"/>
    <line stroke="black" x1="586.0" y1="1116.0" x2="361.0" y2="1147.0" stroke-width="0.5"/>
    <line stroke="black" x1="477.0" y1="726.0" x2="422.0" y2="741.0" stroke-width="0.5"/>
    <line stroke="black" x1="484.0" y1="628.0" x2="420.0" y2="614.0" stroke-width="0.5"/>
    <line stroke="black" x1="505.0" y1="597.0" x2="420.0" y2="614.0" stroke-width="0.5"/>
    <line stroke="black" x1="467.0" y1="534.0" x2="451.0" y2="548.0" stroke-width="0.5"/>
    <line stroke="black" x1="647.0" y1="273.0" x2="366.0" y2="257.0" stroke-width="0.5"/>
    <line stroke="black" x1="512.0" y1="1149.0" x2="456.0" y2="1176.0" stroke-width="0.5"/>
    <line stroke="black" x1="525.0" y1="1179.0" x2="481.0" y2="1207.0" stroke-width="0.5"/>
    <line stroke="black" x1="545.0" y1="1246.0" x2="516.0" y2="1262.0" stroke-width="0.5"/>
    <line stroke="black" x1="550.0" y1="1278.0" x2="516.0" y2="1262.0" stroke-width="0.5"/>
   </g>
  </g>
 </svg>
</svg>
