<?xml version="1.0" encoding="UTF-8"?>
<svg height="800.0" width="700.0" xmlns="http://www.w3.org/2000/svg">
 <svg>
  <g>
   <g>
    <g>
     <circle stroke="black" stroke-width="0.5" fill="#aaffff" cx="64.0" cy="1074.0" r="1.0"/>
     <text stroke="none" x="64.0" y="1074.0" font-size="10.0" font-family="helvetica">NT1.1</text>
    </g>
    <g>
     <circle stroke="black" stroke-width="0.5" fill="#aaffff" cx="71.0" cy="1007.0" r="1.0"/>
     <text stroke="none" x="71.0" y="1007.0" font-size="10.0" font-family="helvetica">NT1.2</text>
    </g>
    <g>
     <circle stroke="black" stroke-width="0.5" fill="#aaffff" cx="93.0" cy="922.0" r="1.0"/>
     <text stroke="none" x="93.0" y="922.0" font-size="10.0" font-family="helvetica">NT1.3</text>
    </g>
    <g>
     <circle stroke="black" stroke-width="0.5" fill="#aaffff" cx="95.0" cy="1140.0" r="1.0"/>
     <text stroke="none" x="95.0" y="1140.0" font-size="20.0" font-family="helvetica"/>
    </g>
    <g>
     <circle stroke="black" stroke-width="0.5" fill="#aaffff" cx="217.0" cy="799.0" r="1.0"/>
     <text stroke="none" x="217.0" y="799.0" font-size="10.0" font-family="helvetica">NT1.5</text>
    </g>
    <g>
     <circle stroke="black" stroke-width="0.5" fill="#aaffff" cx="220.0" cy="1224.0" r="1.0"/>
     <text stroke="none" x="220.0" y="1224.0" font-size="10.0" font-family="helvetica">NT1.6</text>
    </g>
    <g>
     <circle stroke="black" stroke-width="0.5" fill="#aaffff" cx="293.0" cy="1092.0" r="1.0"/>
     <text stroke="none" x="293.0" y="1092.0" font-size="20.0" font-family="helvetica">A. fluvialis CECT 7401T (FJ230078)</text>
    </g>
    <g>
     <circle stroke="black" stroke-width="0.5" fill="#aaffff" cx="295.0" cy="603.0" r="1.0"/>
     <text stroke="none" x="295.0" y="603.0" font-size="10.0" font-family="helvetica">NT1.8</text>
    </g>
    <g>
     <circle stroke="black" stroke-width="0.5" fill="#aaffff" cx="304.0" cy="1043.0" r="1.0"/>
     <text stroke="none" x="304.0" y="1043.0" font-size="20.0" font-family="helvetica">A. jandaei ATCC 495687 (X60413)</text>
    </g>
    <g>
     <circle stroke="black" stroke-width="0.5" fill="#aaffff" cx="315.0" cy="1260.0" r="1.0"/>
     <text stroke="none" x="315.0" y="1260.0" font-size="20.0" font-family="helvetica">83</text>
    </g>
    <g>
     <circle stroke="black" stroke-width="0.5" fill="#aaffff" cx="351.0" cy="1285.0" r="1.0"/>
     <text stroke="none" x="351.0" y="1285.0" font-size="20.0" font-family="helvetica">A. diverse CDC 2478-85T (U88663)</text>
    </g>
    <g>
     <circle stroke="black" stroke-width="0.5" fill="#aaffff" cx="381.0" cy="464.0" r="1.0"/>
     <text stroke="none" x="381.0" y="464.0" font-size="10.0" font-family="helvetica">NT1.12</text>
    </g>
    <g>
     <circle stroke="black" stroke-width="0.5" fill="#aaffff" cx="397.0" cy="996.0" r="1.0"/>
     <text stroke="none" x="397.0" y="996.0" font-size="20.0" font-family="helvetica"/>
    </g>
    <g>
     <circle stroke="black" stroke-width="0.5" fill="#aaffff" cx="401.0" cy="380.0" r="1.0"/>
     <text stroke="none" x="401.0" y="380.0" font-size="10.0" font-family="helvetica">NT1.14</text>
    </g>
    <g>
     <circle stroke="black" stroke-width="0.5" fill="#aaffff" cx="405.0" cy="739.0" r="1.0"/>
     <text stroke="none" x="405.0" y="739.0" font-size="10.0" font-family="helvetica">NT1.15</text>
    </g>
    <g>
     <circle stroke="black" stroke-width="0.5" fill="#aaffff" cx="410.0" cy="1237.0" r="1.0"/>
     <text stroke="none" x="410.0" y="1237.0" font-size="20.0" font-family="helvetica">A. schubertii ATCC 437007 (X60416)</text>
    </g>
    <g>
     <circle stroke="black" stroke-width="0.5" fill="#aaffff" cx="421.0" cy="294.0" r="1.0"/>
     <text stroke="none" x="421.0" y="294.0" font-size="10.0" font-family="helvetica">NT1.17</text>
    </g>
    <g>
     <circle stroke="black" stroke-width="0.5" fill="#aaffff" cx="429.0" cy="548.0" r="1.0"/>
     <text stroke="none" x="429.0" y="548.0" font-size="10.0" font-family="helvetica">NT1.18</text>
    </g>
    <g>
     <circle stroke="black" stroke-width="0.5" fill="#aaffff" cx="462.0" cy="391.0" r="1.0"/>
     <text stroke="none" x="462.0" y="391.0" font-size="10.0" font-family="helvetica">NT1.19</text>
    </g>
    <g>
     <circle stroke="black" stroke-width="0.5" fill="#aaffff" cx="473.0" cy="589.0" r="1.0"/>
     <text stroke="none" x="473.0" y="589.0" font-size="10.0" font-family="helvetica">NT1.20</text>
    </g>
    <g>
     <circle stroke="black" stroke-width="0.5" fill="#aaffff" cx="486.0" cy="196.0" r="1.0"/>
     <text stroke="none" x="486.0" y="196.0" font-size="10.0" font-family="helvetica">NT1.21</text>
    </g>
    <g>
     <circle stroke="black" stroke-width="0.5" fill="#aaffff" cx="497.0" cy="560.0" r="1.0"/>
     <text stroke="none" x="497.0" y="560.0" font-size="20.0" font-family="helvetica">A. rivuli WB4.1-19T (FJ976900)</text>
    </g>
    <g>
     <circle stroke="black" stroke-width="0.5" fill="#aaffff" cx="502.0" cy="619.0" r="1.0"/>
     <text stroke="none" x="502.0" y="619.0" font-size="20.0" font-family="helvetica">A. rivuli WB4.4-101</text>
    </g>
    <g>
     <circle stroke="black" stroke-width="0.5" fill="#aaffff" cx="511.0" cy="258.0" r="1.0"/>
     <text stroke="none" x="511.0" y="258.0" font-size="10.0" font-family="helvetica">NT1.24</text>
    </g>
    <g>
     <circle stroke="black" stroke-width="0.5" fill="#aaffff" cx="519.0" cy="464.0" r="1.0"/>
     <text stroke="none" x="519.0" y="464.0" font-size="20.0" font-family="helvetica">Aeromonas sp. ATCC 35941</text>
    </g>
    <g>
     <circle stroke="black" stroke-width="0.5" fill="#aaffff" cx="524.0" cy="512.0" r="1.0"/>
     <text stroke="none" x="524.0" y="512.0" font-size="20.0" font-family="helvetica">A. sobria NCIMB</text>
    </g>
    <g>
     <circle stroke="black" stroke-width="0.5" fill="#aaffff" cx="527.0" cy="133.0" r="1.0"/>
     <text stroke="none" x="527.0" y="133.0" font-size="10.0" font-family="helvetica">NT1.27</text>
    </g>
    <g>
     <circle stroke="black" stroke-width="0.5" fill="#aaffff" cx="528.0" cy="683.0" r="1.0"/>
     <text stroke="none" x="528.0" y="683.0" font-size="20.0" font-family="helvetica">99</text>
    </g>
    <g>
     <circle stroke="black" stroke-width="0.5" fill="#aaffff" cx="545.0" cy="222.0" r="1.0"/>
     <text stroke="none" x="545.0" y="222.0" font-size="20.0" font-family="helvetica">A. encheleia A 1881 T (AJ224309)</text>
    </g>
    <g>
     <circle stroke="black" stroke-width="0.5" fill="#aaffff" cx="547.0" cy="367.0" r="1.0"/>
     <text stroke="none" x="547.0" y="367.0" font-size="20.0" font-family="helvetica">A. popoffii LMG</text>
    </g>
    <g>
     <circle stroke="black" stroke-width="0.5" fill="#aaffff" cx="553.0" cy="706.0" r="1.0"/>
     <text stroke="none" x="553.0" y="706.0" font-size="20.0" font-family="helvetica">A. hydrophila ATCC 49657T (X60404)</text>
    </g>
    <g>
     <circle stroke="black" stroke-width="0.5" fill="#aaffff" cx="571.0" cy="416.0" r="1.0"/>
     <text stroke="none" x="571.0" y="416.0" font-size="20.0" font-family="helvetica">A. bivalvium CECT 71 13T (DQ504429)</text>
    </g>
    <g>
     <circle stroke="black" stroke-width="0.5" fill="#aaffff" cx="573.0" cy="294.0" r="1.0"/>
     <text stroke="none" x="573.0" y="294.0" font-size="20.0" font-family="helvetica">59</text>
    </g>
    <g>
     <circle stroke="black" stroke-width="0.5" fill="#aaffff" cx="587.0" cy="91.0" r="1.0"/>
     <text stroke="none" x="587.0" y="91.0" font-size="10.0" font-family="helvetica">NT1.34</text>
    </g>
    <g>
     <circle stroke="black" stroke-width="0.5" fill="#aaffff" cx="596.0" cy="174.0" r="1.0"/>
     <text stroke="none" x="596.0" y="174.0" font-size="20.0" font-family="helvetica">A. molluscorum CECT 5864T (AY532690)</text>
    </g>
    <g>
     <circle stroke="black" stroke-width="0.5" fill="#aaffff" cx="600.0" cy="658.0" r="1.0"/>
     <text stroke="none" x="600.0" y="658.0" font-size="20.0" font-family="helvetica">A. media ATCC 339077 (X60410)</text>
    </g>
    <g>
     <circle stroke="black" stroke-width="0.5" fill="#aaffff" cx="611.0" cy="126.0" r="1.0"/>
     <text stroke="none" x="611.0" y="126.0" font-size="20.0" font-family="helvetica">A. salmonicida NCIMB 1 102T (X60405)</text>
    </g>
    <g>
     <circle stroke="black" stroke-width="0.5" fill="#aaffff" cx="627.0" cy="55.0" r="1.0"/>
     <text stroke="none" x="627.0" y="55.0" font-size="20.0" font-family="helvetica">91</text>
    </g>
    <g>
     <circle stroke="black" stroke-width="0.5" fill="#aaffff" cx="628.0" cy="29.0" r="1.0"/>
     <text stroke="none" x="628.0" y="29.0" font-size="20.0" font-family="helvetica">A. bestiarum CIP 74.301 (X60406)</text>
    </g>
    <g>
     <circle stroke="black" stroke-width="0.5" fill="#aaffff" cx="628.0" cy="79.0" r="1.0"/>
     <text stroke="none" x="628.0" y="79.0" font-size="20.0" font-family="helvetica">A. piscicola</text>
    </g>
    <g>
     <circle stroke="black" stroke-width="0.5" fill="#aaffff" cx="667.0" cy="271.0" r="1.0"/>
     <text stroke="none" x="667.0" y="271.0" font-size="20.0" font-family="helvetica">A. eucrenophiia NCIMB 74T (X60411)</text>
    </g>
    <g>
     <circle stroke="black" stroke-width="0.5" fill="#aaffff" cx="690.0" cy="798.0" r="1.0"/>
     <text stroke="none" x="690.0" y="798.0" font-size="10.0" font-family="helvetica">NT1.42</text>
    </g>
    <g>
     <circle stroke="black" stroke-width="0.5" fill="#aaffff" cx="698.0" cy="843.0" r="1.0"/>
     <text stroke="none" x="698.0" y="843.0" font-size="10.0" font-family="helvetica">NT1.43</text>
    </g>
    <g>
     <circle stroke="black" stroke-width="0.5" fill="#aaffff" cx="719.0" cy="886.0" r="1.0"/>
     <text stroke="none" x="719.0" y="886.0" font-size="10.0" font-family="helvetica">NT1.44</text>
    </g>
    <g>
     <circle stroke="black" stroke-width="0.5" fill="#aaffff" cx="729.0" cy="922.0" r="1.0"/>
     <text stroke="none" x="729.0" y="922.0" font-size="10.0" font-family="helvetica">NT1.45</text>
    </g>
    <g>
     <circle stroke="black" stroke-width="0.5" fill="#aaffff" cx="739.0" cy="320.0" r="1.0"/>
     <text stroke="none" x="739.0" y="320.0" font-size="20.0" font-family="helvetica">A. tecta AER58T (AJ458402)</text>
    </g>
    <g>
     <circle stroke="black" stroke-width="0.5" fill="#aaffff" cx="742.0" cy="802.0" r="1.0"/>
     <text stroke="none" x="742.0" y="802.0" font-size="20.0" font-family="helvetica">A. caviae NCIMB 13016T (X60408)</text>
    </g>
    <g>
     <circle stroke="black" stroke-width="0.5" fill="#aaffff" cx="748.0" cy="898.0" r="1.0"/>
     <text stroke="none" x="748.0" y="898.0" font-size="20.0" font-family="helvetica">A. aquariorum CECT 7289T (EU085557)</text>
    </g>
    <g>
     <circle stroke="black" stroke-width="0.5" fill="#aaffff" cx="762.0" cy="754.0" r="1.0"/>
     <text stroke="none" x="762.0" y="754.0" font-size="20.0" font-family="helvetica">A. sanarelIii CECT 7402T (FJ230076)</text>
    </g>
    <g>
     <circle stroke="black" stroke-width="0.5" fill="#aaffff" cx="773.0" cy="850.0" r="1.0"/>
     <text stroke="none" x="773.0" y="850.0" font-size="20.0" font-family="helvetica">A. trota ATCC 49657T(X60415)</text>
    </g>
    <g>
     <circle stroke="black" stroke-width="0.5" fill="#aaffff" cx="808.0" cy="947.0" r="1.0"/>
     <text stroke="none" x="808.0" y="947.0" font-size="20.0" font-family="helvetica">A. taiwanensis CECT 7403T (FJ230077)</text>
    </g>
    <g>
     <circle stroke="black" stroke-width="0.5" fill="#aaffff" cx="808.0" cy="1188.0" r="1.0"/>
     <text stroke="none" x="808.0" y="1188.0" font-size="20.0" font-family="helvetica">A. simiae IBS-S6874T (AJ536821)</text>
    </g>
    <line stroke="black" x1="628.0" y1="29.0" x2="627.0" y2="55.0" stroke-width="0.5"/>
    <line stroke="black" x1="628.0" y1="79.0" x2="627.0" y2="55.0" stroke-width="0.5"/>
    <line stroke="black" x1="545.0" y1="222.0" x2="511.0" y2="258.0" stroke-width="0.5"/>
    <line stroke="black" x1="497.0" y1="560.0" x2="473.0" y2="589.0" stroke-width="0.5"/>
    <line stroke="black" x1="600.0" y1="658.0" x2="528.0" y2="683.0" stroke-width="0.5"/>
    <line stroke="black" x1="762.0" y1="754.0" x2="690.0" y2="798.0" stroke-width="0.5"/>
    <line stroke="black" x1="95.0" y1="1140.0" x2="64.0" y2="1074.0" stroke-width="0.5"/>
    <line stroke="black" x1="351.0" y1="1285.0" x2="315.0" y2="1260.0" stroke-width="0.5"/>
    <line stroke="black" x1="627.0" y1="55.0" x2="587.0" y2="91.0" stroke-width="0.5"/>
    <line stroke="black" x1="587.0" y1="91.0" x2="527.0" y2="133.0" stroke-width="0.5"/>
    <line stroke="black" x1="527.0" y1="133.0" x2="486.0" y2="196.0" stroke-width="0.5"/>
    <line stroke="black" x1="486.0" y1="196.0" x2="421.0" y2="294.0" stroke-width="0.5"/>
    <line stroke="black" x1="486.0" y1="196.0" x2="511.0" y2="258.0" stroke-width="0.5"/>
    <line stroke="black" x1="511.0" y1="258.0" x2="573.0" y2="294.0" stroke-width="0.5"/>
    <line stroke="black" x1="421.0" y1="294.0" x2="401.0" y2="380.0" stroke-width="0.5"/>
    <line stroke="black" x1="421.0" y1="294.0" x2="462.0" y2="391.0" stroke-width="0.5"/>
    <line stroke="black" x1="401.0" y1="380.0" x2="381.0" y2="464.0" stroke-width="0.5"/>
    <line stroke="black" x1="381.0" y1="464.0" x2="295.0" y2="603.0" stroke-width="0.5"/>
    <line stroke="black" x1="381.0" y1="464.0" x2="429.0" y2="548.0" stroke-width="0.5"/>
    <line stroke="black" x1="429.0" y1="548.0" x2="473.0" y2="589.0" stroke-width="0.5"/>
    <line stroke="black" x1="295.0" y1="603.0" x2="217.0" y2="799.0" stroke-width="0.5"/>
    <line stroke="black" x1="295.0" y1="603.0" x2="405.0" y2="739.0" stroke-width="0.5"/>
    <line stroke="black" x1="405.0" y1="739.0" x2="690.0" y2="798.0" stroke-width="0.5"/>
    <line stroke="black" x1="405.0" y1="739.0" x2="528.0" y2="683.0" stroke-width="0.5"/>
    <line stroke="black" x1="217.0" y1="799.0" x2="93.0" y2="922.0" stroke-width="0.5"/>
    <line stroke="black" x1="93.0" y1="922.0" x2="71.0" y2="1007.0" stroke-width="0.5"/>
    <line stroke="black" x1="690.0" y1="798.0" x2="698.0" y2="843.0" stroke-width="0.5"/>
    <line stroke="black" x1="71.0" y1="1007.0" x2="64.0" y2="1074.0" stroke-width="0.5"/>
    <line stroke="black" x1="698.0" y1="843.0" x2="719.0" y2="886.0" stroke-width="0.5"/>
    <line stroke="black" x1="719.0" y1="886.0" x2="729.0" y2="922.0" stroke-width="0.5"/>
    <line stroke="black" x1="220.0" y1="1224.0" x2="315.0" y2="1260.0" stroke-width="0.5"/>
    <line stroke="black" x1="64.0" y1="1074.0" x2="220.0" y2="1224.0" stroke-width="0.5"/>
    <line stroke="black" x1="293.0" y1="1092.0" x2="71.0" y2="1007.0" stroke-width="0.5"/>
    <line stroke="black" x1="304.0" y1="1043.0" x2="93.0" y2="922.0" stroke-width="0.5"/>
    <line stroke="black" x1="397.0" y1="996.0" x2="217.0" y2="799.0" stroke-width="0.5"/>
    <line stroke="black" x1="410.0" y1="1237.0" x2="315.0" y2="1260.0" stroke-width="0.5"/>
    <line stroke="black" x1="808.0" y1="1188.0" x2="220.0" y2="1224.0" stroke-width="0.5"/>
    <line stroke="black" x1="519.0" y1="464.0" x2="401.0" y2="380.0" stroke-width="0.5"/>
    <line stroke="black" x1="524.0" y1="512.0" x2="429.0" y2="548.0" stroke-width="0.5"/>
    <line stroke="black" x1="502.0" y1="619.0" x2="473.0" y2="589.0" stroke-width="0.5"/>
    <line stroke="black" x1="547.0" y1="367.0" x2="462.0" y2="391.0" stroke-width="0.5"/>
    <line stroke="black" x1="571.0" y1="416.0" x2="462.0" y2="391.0" stroke-width="0.5"/>
    <line stroke="black" x1="553.0" y1="706.0" x2="528.0" y2="683.0" stroke-width="0.5"/>
    <line stroke="black" x1="596.0" y1="174.0" x2="527.0" y2="133.0" stroke-width="0.5"/>
    <line stroke="black" x1="611.0" y1="126.0" x2="587.0" y2="91.0" stroke-width="0.5"/>
    <line stroke="black" x1="667.0" y1="271.0" x2="573.0" y2="294.0" stroke-width="0.5"/>
    <line stroke="black" x1="739.0" y1="320.0" x2="573.0" y2="294.0" stroke-width="0.5"/>
    <line stroke="black" x1="742.0" y1="802.0" x2="698.0" y2="843.0" stroke-width="0.5"/>
    <line stroke="black" x1="748.0" y1="898.0" x2="729.0" y2="922.0" stroke-width="0.5"/>
    <line stroke="black" x1="773.0" y1="850.0" x2="719.0" y2="886.0" stroke-width="0.5"/>
    <line stroke="black" x1="808.0" y1="947.0" x2="729.0" y2="922.0" stroke-width="0.5"/>
   </g>
  </g>
 </svg>
</svg>
