<?xml version="1.0" encoding="UTF-8"?>
<svg height="800.0" width="700.0" xmlns="http://www.w3.org/2000/svg">
 <svg>
  <g>
   <g>
    <g>
     <circle stroke="black" stroke-width="0.5" fill="#aaffff" cx="85.0" cy="851.0" r="1.0"/>
     <text stroke="none" x="85.0" y="851.0" font-size="10.0" font-family="helvetica">NT1.1</text>
    </g>
    <g>
     <circle stroke="black" stroke-width="0.5" fill="#aaffff" cx="110.0" cy="739.0" r="1.0"/>
     <text stroke="none" x="110.0" y="739.0" font-size="10.0" font-family="helvetica">NT1.2</text>
    </g>
    <g>
     <circle stroke="black" stroke-width="0.5" fill="#aaffff" cx="256.0" cy="551.0" r="1.0"/>
     <text stroke="none" x="256.0" y="551.0" font-size="20.0" font-family="helvetica">100</text>
    </g>
    <g>
     <circle stroke="black" stroke-width="0.5" fill="#aaffff" cx="260.0" cy="551.0" r="1.0"/>
     <text stroke="none" x="260.0" y="551.0" font-size="10.0" font-family="helvetica">NT1.4</text>
    </g>
    <g>
     <circle stroke="black" stroke-width="0.5" fill="#aaffff" cx="291.0" cy="290.0" r="1.0"/>
     <text stroke="none" x="291.0" y="290.0" font-size="20.0" font-family="helvetica">lg</text>
    </g>
    <g>
     <circle stroke="black" stroke-width="0.5" fill="#aaffff" cx="295.0" cy="290.0" r="1.0"/>
     <text stroke="none" x="295.0" y="290.0" font-size="10.0" font-family="helvetica">NT1.6</text>
    </g>
    <g>
     <circle stroke="black" stroke-width="0.5" fill="#aaffff" cx="298.0" cy="812.0" r="1.0"/>
     <text stroke="none" x="298.0" y="812.0" font-size="10.0" font-family="helvetica">NT1.7</text>
    </g>
    <g>
     <circle stroke="black" stroke-width="0.5" fill="#aaffff" cx="324.0" cy="739.0" r="1.0"/>
     <text stroke="none" x="324.0" y="739.0" font-size="10.0" font-family="helvetica">NT1.8</text>
    </g>
    <g>
     <circle stroke="black" stroke-width="0.5" fill="#aaffff" cx="333.0" cy="656.0" r="1.0"/>
     <text stroke="none" x="333.0" y="656.0" font-size="10.0" font-family="helvetica">NT1.9</text>
    </g>
    <g>
     <circle stroke="black" stroke-width="0.5" fill="#aaffff" cx="340.0" cy="172.0" r="1.0"/>
     <text stroke="none" x="340.0" y="172.0" font-size="10.0" font-family="helvetica">NT1.10</text>
    </g>
    <g>
     <circle stroke="black" stroke-width="0.5" fill="#aaffff" cx="343.0" cy="597.0" r="1.0"/>
     <text stroke="none" x="343.0" y="597.0" font-size="10.0" font-family="helvetica">NT1.11</text>
    </g>
    <g>
     <circle stroke="black" stroke-width="0.5" fill="#aaffff" cx="344.0" cy="172.0" r="1.0"/>
     <text stroke="none" x="344.0" y="172.0" font-size="10.0" font-family="helvetica">NT1.12</text>
    </g>
    <g>
     <circle stroke="black" stroke-width="0.5" fill="#aaffff" cx="349.0" cy="75.0" r="1.0"/>
     <text stroke="none" x="349.0" y="75.0" font-size="10.0" font-family="helvetica">NT1.13</text>
    </g>
    <g>
     <circle stroke="black" stroke-width="0.5" fill="#aaffff" cx="349.0" cy="639.0" r="1.0"/>
     <text stroke="none" x="349.0" y="639.0" font-size="10.0" font-family="helvetica">NT1.14</text>
    </g>
    <g>
     <circle stroke="black" stroke-width="0.5" fill="#aaffff" cx="356.0" cy="554.0" r="1.0"/>
     <text stroke="none" x="356.0" y="554.0" font-size="10.0" font-family="helvetica">NT1.15</text>
    </g>
    <g>
     <circle stroke="black" stroke-width="0.5" fill="#aaffff" cx="358.0" cy="964.0" r="1.0"/>
     <text stroke="none" x="358.0" y="964.0" font-size="20.0" font-family="helvetica">Methylobacterium aquaticum DSM 163717 (AB302900)</text>
    </g>
    <g>
     <circle stroke="black" stroke-width="0.5" fill="#aaffff" cx="379.0" cy="715.0" r="1.0"/>
     <text stroke="none" x="379.0" y="715.0" font-size="20.0" font-family="helvetica">95</text>
    </g>
    <g>
     <circle stroke="black" stroke-width="0.5" fill="#aaffff" cx="383.0" cy="715.0" r="1.0"/>
     <text stroke="none" x="383.0" y="715.0" font-size="10.0" font-family="helvetica">NT1.18</text>
    </g>
    <g>
     <circle stroke="black" stroke-width="0.5" fill="#aaffff" cx="388.0" cy="925.0" r="1.0"/>
     <text stroke="none" x="388.0" y="925.0" font-size="20.0" font-family="helvetica">Methylobacterium nodulans LMG 219677 (AB302908)</text>
    </g>
    <g>
     <circle stroke="black" stroke-width="0.5" fill="#aaffff" cx="393.0" cy="267.0" r="1.0"/>
     <text stroke="none" x="393.0" y="267.0" font-size="20.0" font-family="helvetica">99</text>
    </g>
    <g>
     <circle stroke="black" stroke-width="0.5" fill="#aaffff" cx="397.0" cy="268.0" r="1.0"/>
     <text stroke="none" x="397.0" y="268.0" font-size="10.0" font-family="helvetica">NT1.21</text>
    </g>
    <g>
     <circle stroke="black" stroke-width="0.5" fill="#aaffff" cx="406.0" cy="295.0" r="1.0"/>
     <text stroke="none" x="406.0" y="295.0" font-size="10.0" font-family="helvetica">NT1.22</text>
    </g>
    <g>
     <circle stroke="black" stroke-width="0.5" fill="#aaffff" cx="407.0" cy="31.0" r="1.0"/>
     <text stroke="none" x="407.0" y="31.0" font-size="10.0" font-family="helvetica">NT1.23</text>
    </g>
    <g>
     <circle stroke="black" stroke-width="0.5" fill="#aaffff" cx="409.0" cy="29.0" r="1.0"/>
     <text stroke="none" x="409.0" y="29.0" font-size="10.0" font-family="helvetica">NT1.24</text>
    </g>
    <g>
     <circle stroke="black" stroke-width="0.5" fill="#aaffff" cx="410.0" cy="296.0" r="1.0"/>
     <text stroke="none" x="410.0" y="296.0" font-size="10.0" font-family="helvetica">NT1.25</text>
    </g>
    <g>
     <circle stroke="black" stroke-width="0.5" fill="#aaffff" cx="412.0" cy="29.0" r="1.0"/>
     <text stroke="none" x="412.0" y="29.0" font-size="10.0" font-family="helvetica">NT1.26</text>
    </g>
    <g>
     <circle stroke="black" stroke-width="0.5" fill="#aaffff" cx="412.0" cy="410.0" r="1.0"/>
     <text stroke="none" x="412.0" y="410.0" font-size="10.0" font-family="helvetica">NT1.27</text>
    </g>
    <g>
     <circle stroke="black" stroke-width="0.5" fill="#aaffff" cx="417.0" cy="409.0" r="1.0"/>
     <text stroke="none" x="417.0" y="409.0" font-size="10.0" font-family="helvetica">NT1.28</text>
    </g>
    <g>
     <circle stroke="black" stroke-width="0.5" fill="#aaffff" cx="434.0" cy="120.0" r="1.0"/>
     <text stroke="none" x="434.0" y="120.0" font-size="10.0" font-family="helvetica">NT1.29</text>
    </g>
    <g>
     <circle stroke="black" stroke-width="0.5" fill="#aaffff" cx="439.0" cy="119.0" r="1.0"/>
     <text stroke="none" x="439.0" y="119.0" font-size="10.0" font-family="helvetica">NT1.30</text>
    </g>
    <g>
     <circle stroke="black" stroke-width="0.5" fill="#aaffff" cx="446.0" cy="820.0" r="1.0"/>
     <text stroke="none" x="446.0" y="820.0" font-size="20.0" font-family="helvetica">100</text>
    </g>
    <g>
     <circle stroke="black" stroke-width="0.5" fill="#aaffff" cx="451.0" cy="820.0" r="1.0"/>
     <text stroke="none" x="451.0" y="820.0" font-size="10.0" font-family="helvetica">NT1.32</text>
    </g>
    <g>
     <circle stroke="black" stroke-width="0.5" fill="#aaffff" cx="454.0" cy="659.0" r="1.0"/>
     <text stroke="none" x="454.0" y="659.0" font-size="20.0" font-family="helvetica">Methylobacterium thiocyanatum DSM 114907 (AB302914)</text>
    </g>
    <g>
     <circle stroke="black" stroke-width="0.5" fill="#aaffff" cx="468.0" cy="792.0" r="1.0"/>
     <text stroke="none" x="468.0" y="792.0" font-size="10.0" font-family="helvetica">NT1.34</text>
    </g>
    <g>
     <circle stroke="black" stroke-width="0.5" fill="#aaffff" cx="473.0" cy="791.0" r="1.0"/>
     <text stroke="none" x="473.0" y="791.0" font-size="10.0" font-family="helvetica">NT1.35</text>
    </g>
    <g>
     <circle stroke="black" stroke-width="0.5" fill="#aaffff" cx="476.0" cy="620.0" r="1.0"/>
     <text stroke="none" x="476.0" y="620.0" font-size="20.0" font-family="helvetica">Methylobacterium zatmanii DSM 56887 (AB302915)</text>
    </g>
    <g>
     <circle stroke="black" stroke-width="0.5" fill="#aaffff" cx="477.0" cy="448.0" r="1.0"/>
     <text stroke="none" x="477.0" y="448.0" font-size="20.0" font-family="helvetica">100</text>
    </g>
    <g>
     <circle stroke="black" stroke-width="0.5" fill="#aaffff" cx="478.0" cy="468.0" r="1.0"/>
     <text stroke="none" x="478.0" y="468.0" font-size="20.0" font-family="helvetica">Methylobacterium gregans RB678 (AB302924)</text>
    </g>
    <g>
     <circle stroke="black" stroke-width="0.5" fill="#aaffff" cx="478.0" cy="888.0" r="1.0"/>
     <text stroke="none" x="478.0" y="888.0" font-size="20.0" font-family="helvetica">Methylabacterium oryanophilum JCM 28337 (AB302909)</text>
    </g>
    <g>
     <circle stroke="black" stroke-width="0.5" fill="#aaffff" cx="480.0" cy="449.0" r="1.0"/>
     <text stroke="none" x="480.0" y="449.0" font-size="10.0" font-family="helvetica">NT1.40</text>
    </g>
    <g>
     <circle stroke="black" stroke-width="0.5" fill="#aaffff" cx="481.0" cy="429.0" r="1.0"/>
     <text stroke="none" x="481.0" y="429.0" font-size="10.0" font-family="helvetica">NT1.41</text>
    </g>
    <g>
     <circle stroke="black" stroke-width="0.5" fill="#aaffff" cx="485.0" cy="849.0" r="1.0"/>
     <text stroke="none" x="485.0" y="849.0" font-size="10.0" font-family="helvetica">NT1.42</text>
    </g>
    <g>
     <circle stroke="black" stroke-width="0.5" fill="#aaffff" cx="499.0" cy="811.0" r="1.0"/>
     <text stroke="none" x="499.0" y="811.0" font-size="20.0" font-family="helvetica">Methylobaoterium chloromethanicum NCIMB 136887 (AB302901)</text>
    </g>
    <g>
     <circle stroke="black" stroke-width="0.5" fill="#aaffff" cx="501.0" cy="373.0" r="1.0"/>
     <text stroke="none" x="501.0" y="373.0" font-size="10.0" font-family="helvetica">NT1.44</text>
    </g>
    <g>
     <circle stroke="black" stroke-width="0.5" fill="#aaffff" cx="503.0" cy="153.0" r="1.0"/>
     <text stroke="none" x="503.0" y="153.0" font-size="10.0" font-family="helvetica">NT1.45</text>
    </g>
    <g>
     <circle stroke="black" stroke-width="0.5" fill="#aaffff" cx="503.0" cy="371.0" r="1.0"/>
     <text stroke="none" x="503.0" y="371.0" font-size="10.0" font-family="helvetica">NT1.46</text>
    </g>
    <g>
     <circle stroke="black" stroke-width="0.5" fill="#aaffff" cx="506.0" cy="371.0" r="1.0"/>
     <text stroke="none" x="506.0" y="371.0" font-size="10.0" font-family="helvetica">NT1.47</text>
    </g>
    <g>
     <circle stroke="black" stroke-width="0.5" fill="#aaffff" cx="506.0" cy="773.0" r="1.0"/>
     <text stroke="none" x="506.0" y="773.0" font-size="10.0" font-family="helvetica">NT1.48</text>
    </g>
    <g>
     <circle stroke="black" stroke-width="0.5" fill="#aaffff" cx="508.0" cy="154.0" r="1.0"/>
     <text stroke="none" x="508.0" y="154.0" font-size="10.0" font-family="helvetica">NT1.49</text>
    </g>
    <g>
     <circle stroke="black" stroke-width="0.5" fill="#aaffff" cx="508.0" cy="392.0" r="1.0"/>
     <text stroke="none" x="508.0" y="392.0" font-size="20.0" font-family="helvetica">Methylobacterium hispanicum DSM 1857 (AB302927)</text>
    </g>
    <g>
     <circle stroke="black" stroke-width="0.5" fill="#aaffff" cx="508.0" cy="181.0" r="1.0"/>
     <text stroke="none" x="508.0" y="181.0" font-size="10.0" font-family="helvetica">NT1.51</text>
    </g>
    <g>
     <circle stroke="black" stroke-width="0.5" fill="#aaffff" cx="509.0" cy="353.0" r="1.0"/>
     <text stroke="none" x="509.0" y="353.0" font-size="10.0" font-family="helvetica">NT1.52</text>
    </g>
    <g>
     <circle stroke="black" stroke-width="0.5" fill="#aaffff" cx="513.0" cy="583.0" r="1.0"/>
     <text stroke="none" x="513.0" y="583.0" font-size="20.0" font-family="helvetica">Methylabacterium aminavarans JCM 82407 (AB302899)</text>
    </g>
    <g>
     <circle stroke="black" stroke-width="0.5" fill="#aaffff" cx="519.0" cy="735.0" r="1.0"/>
     <text stroke="none" x="519.0" y="735.0" font-size="20.0" font-family="helvetica">Methylobacterium rhodinum DSM 21637 (AB302912)</text>
    </g>
    <g>
     <circle stroke="black" stroke-width="0.5" fill="#aaffff" cx="533.0" cy="277.0" r="1.0"/>
     <text stroke="none" x="533.0" y="277.0" font-size="20.0" font-family="helvetica">Methylobacterium radiotalerans IAM 120987 (AB302910)</text>
    </g>
    <g>
     <circle stroke="black" stroke-width="0.5" fill="#aaffff" cx="534.0" cy="239.0" r="1.0"/>
     <text stroke="none" x="534.0" y="239.0" font-size="20.0" font-family="helvetica">Methylobacterium tardum RB6777 (AB302923)</text>
    </g>
    <g>
     <circle stroke="black" stroke-width="0.5" fill="#aaffff" cx="538.0" cy="163.0" r="1.0"/>
     <text stroke="none" x="538.0" y="163.0" font-size="10.0" font-family="helvetica">NT1.57</text>
    </g>
    <g>
     <circle stroke="black" stroke-width="0.5" fill="#aaffff" cx="539.0" cy="124.0" r="1.0"/>
     <text stroke="none" x="539.0" y="124.0" font-size="10.0" font-family="helvetica">NT1.58</text>
    </g>
    <g>
     <circle stroke="black" stroke-width="0.5" fill="#aaffff" cx="541.0" cy="201.0" r="1.0"/>
     <text stroke="none" x="541.0" y="201.0" font-size="10.0" font-family="helvetica">NT1.59</text>
    </g>
    <g>
     <circle stroke="black" stroke-width="0.5" fill="#aaffff" cx="551.0" cy="696.0" r="1.0"/>
     <text stroke="none" x="551.0" y="696.0" font-size="20.0" font-family="helvetica">Methylobacterium suomiense NCIMB 137787 (AB302913)</text>
    </g>
    <g>
     <circle stroke="black" stroke-width="0.5" fill="#aaffff" cx="555.0" cy="316.0" r="1.0"/>
     <text stroke="none" x="555.0" y="316.0" font-size="20.0" font-family="helvetica">Methylobacterium fujisawaense DSM 56867 (AB302904)</text>
    </g>
    <g>
     <circle stroke="black" stroke-width="0.5" fill="#aaffff" cx="555.0" cy="544.0" r="1.0"/>
     <text stroke="none" x="555.0" y="544.0" font-size="20.0" font-family="helvetica">Methylobacteriurn rhodesianum DSM 56877 (AB302911)</text>
    </g>
    <g>
     <circle stroke="black" stroke-width="0.5" fill="#aaffff" cx="555.0" cy="526.0" r="1.0"/>
     <text stroke="none" x="555.0" y="526.0" font-size="10.0" font-family="helvetica">NT1.63</text>
    </g>
    <g>
     <circle stroke="black" stroke-width="0.5" fill="#aaffff" cx="556.0" cy="86.0" r="1.0"/>
     <text stroke="none" x="556.0" y="86.0" font-size="20.0" font-family="helvetica">Methylobacterium mesophilicum DSM 17087 (AB302907)</text>
    </g>
    <g>
     <circle stroke="black" stroke-width="0.5" fill="#aaffff" cx="560.0" cy="525.0" r="1.0"/>
     <text stroke="none" x="560.0" y="525.0" font-size="10.0" font-family="helvetica">NT1.65</text>
    </g>
    <g>
     <circle stroke="black" stroke-width="0.5" fill="#aaffff" cx="562.0" cy="506.0" r="1.0"/>
     <text stroke="none" x="562.0" y="506.0" font-size="10.0" font-family="helvetica">NT1.66</text>
    </g>
    <g>
     <circle stroke="black" stroke-width="0.5" fill="#aaffff" cx="600.0" cy="11.0" r="1.0"/>
     <text stroke="none" x="600.0" y="11.0" font-size="10.0" font-family="helvetica">NT1.67</text>
    </g>
    <g>
     <circle stroke="black" stroke-width="0.5" fill="#aaffff" cx="637.0" cy="49.0" r="1.0"/>
     <text stroke="none" x="637.0" y="49.0" font-size="20.0" font-family="helvetica">Methylobacterium komagatae 002-0797 (AB302917)</text>
    </g>
    <g>
     <circle stroke="black" stroke-width="0.5" fill="#aaffff" cx="637.0" cy="1002.0" r="1.0"/>
     <text stroke="none" x="637.0" y="1002.0" font-size="20.0" font-family="helvetica">Rhodopseudomonas acidophila ATCC 250927 (AB014939)</text>
    </g>
    <g>
     <circle stroke="black" stroke-width="0.5" fill="#aaffff" cx="2.0" cy="926.0" r="1.0"/>
     <text stroke="none" x="2.0" y="926.0" font-size="10.0" font-family="helvetica">NT1.70</text>
    </g>
    <line stroke="black" x1="637.0" y1="49.0" x2="407.0" y2="31.0" stroke-width="0.5"/>
    <line stroke="black" x1="556.0" y1="86.0" x2="434.0" y2="120.0" stroke-width="0.5"/>
    <line stroke="black" x1="534.0" y1="239.0" x2="393.0" y2="267.0" stroke-width="0.5"/>
    <line stroke="black" x1="533.0" y1="277.0" x2="406.0" y2="295.0" stroke-width="0.5"/>
    <line stroke="black" x1="555.0" y1="316.0" x2="406.0" y2="295.0" stroke-width="0.5"/>
    <line stroke="black" x1="478.0" y1="468.0" x2="477.0" y2="448.0" stroke-width="0.5"/>
    <line stroke="black" x1="508.0" y1="392.0" x2="501.0" y2="373.0" stroke-width="0.5"/>
    <line stroke="black" x1="478.0" y1="888.0" x2="298.0" y2="812.0" stroke-width="0.5"/>
    <line stroke="black" x1="499.0" y1="811.0" x2="468.0" y2="792.0" stroke-width="0.5"/>
    <line stroke="black" x1="454.0" y1="659.0" x2="349.0" y2="639.0" stroke-width="0.5"/>
    <line stroke="black" x1="476.0" y1="620.0" x2="349.0" y2="639.0" stroke-width="0.5"/>
    <line stroke="black" x1="519.0" y1="735.0" x2="379.0" y2="715.0" stroke-width="0.5"/>
    <line stroke="black" x1="551.0" y1="696.0" x2="379.0" y2="715.0" stroke-width="0.5"/>
    <line stroke="black" x1="513.0" y1="583.0" x2="356.0" y2="554.0" stroke-width="0.5"/>
    <line stroke="black" x1="388.0" y1="925.0" x2="110.0" y2="739.0" stroke-width="0.5"/>
    <line stroke="black" x1="555.0" y1="544.0" x2="555.0" y2="526.0" stroke-width="0.5"/>
    <line stroke="black" x1="358.0" y1="964.0" x2="85.0" y2="851.0" stroke-width="0.5"/>
    <line stroke="black" x1="349.0" y1="75.0" x2="340.0" y2="172.0" stroke-width="0.5"/>
    <line stroke="black" x1="340.0" y1="172.0" x2="291.0" y2="290.0" stroke-width="0.5"/>
    <line stroke="black" x1="340.0" y1="172.0" x2="393.0" y2="267.0" stroke-width="0.5"/>
    <line stroke="black" x1="393.0" y1="267.0" x2="406.0" y2="295.0" stroke-width="0.5"/>
    <line stroke="black" x1="291.0" y1="290.0" x2="256.0" y2="551.0" stroke-width="0.5"/>
    <line stroke="black" x1="291.0" y1="290.0" x2="412.0" y2="410.0" stroke-width="0.5"/>
    <line stroke="black" x1="256.0" y1="551.0" x2="110.0" y2="739.0" stroke-width="0.5"/>
    <line stroke="black" x1="256.0" y1="551.0" x2="298.0" y2="812.0" stroke-width="0.5"/>
    <line stroke="black" x1="298.0" y1="812.0" x2="324.0" y2="739.0" stroke-width="0.5"/>
    <line stroke="black" x1="110.0" y1="739.0" x2="85.0" y2="851.0" stroke-width="0.5"/>
    <line stroke="black" x1="324.0" y1="739.0" x2="333.0" y2="656.0" stroke-width="0.5"/>
    <line stroke="black" x1="333.0" y1="656.0" x2="379.0" y2="715.0" stroke-width="0.5"/>
    <line stroke="black" x1="333.0" y1="656.0" x2="343.0" y2="597.0" stroke-width="0.5"/>
    <line stroke="black" x1="343.0" y1="597.0" x2="349.0" y2="639.0" stroke-width="0.5"/>
    <line stroke="black" x1="343.0" y1="597.0" x2="356.0" y2="554.0" stroke-width="0.5"/>
    <line stroke="black" x1="2.0" y1="926.0" x2="637.0" y2="1002.0" stroke-width="0.5"/>
    <line stroke="black" x1="2.0" y1="926.0" x2="85.0" y2="851.0" stroke-width="0.5"/>
   </g>
  </g>
 </svg>
</svg>
