<?xml version="1.0" encoding="UTF-8"?>
<svg height="800.0" width="700.0" xmlns="http://www.w3.org/2000/svg">
 <svg>
  <g>
   <g>
    <g>
     <circle stroke="black" stroke-width="0.5" fill="#aaffff" cx="538.0" cy="1775.0" r="1.0"/>
     <text stroke="none" x="538.0" y="1775.0" font-size="20.0" font-family="helvetica"/>
    </g>
    <g>
     <circle stroke="black" stroke-width="0.5" fill="#aaffff" cx="591.0" cy="1770.0" r="1.0"/>
     <text stroke="none" x="591.0" y="1770.0" font-size="20.0" font-family="helvetica"/>
    </g>
    <g>
     <circle stroke="black" stroke-width="0.5" fill="#aaffff" cx="591.0" cy="1763.0" r="1.0"/>
     <text stroke="none" x="591.0" y="1763.0" font-size="10.0" font-family="helvetica">NT1.3</text>
    </g>
    <g>
     <circle stroke="black" stroke-width="0.5" fill="#aaffff" cx="605.0" cy="578.0" r="1.0"/>
     <text stroke="none" x="605.0" y="578.0" font-size="20.0" font-family="helvetica"/>
    </g>
    <g>
     <circle stroke="black" stroke-width="0.5" fill="#aaffff" cx="605.0" cy="546.0" r="1.0"/>
     <text stroke="none" x="605.0" y="546.0" font-size="20.0" font-family="helvetica"/>
    </g>
    <g>
     <circle stroke="black" stroke-width="0.5" fill="#aaffff" cx="605.0" cy="490.0" r="1.0"/>
     <text stroke="none" x="605.0" y="490.0" font-size="20.0" font-family="helvetica"/>
    </g>
    <g>
     <circle stroke="black" stroke-width="0.5" fill="#aaffff" cx="605.0" cy="517.0" r="1.0"/>
     <text stroke="none" x="605.0" y="517.0" font-size="20.0" font-family="helvetica"/>
    </g>
    <g>
     <circle stroke="black" stroke-width="0.5" fill="#aaffff" cx="605.0" cy="459.0" r="1.0"/>
     <text stroke="none" x="605.0" y="459.0" font-size="20.0" font-family="helvetica"/>
    </g>
    <g>
     <circle stroke="black" stroke-width="0.5" fill="#aaffff" cx="605.0" cy="429.0" r="1.0"/>
     <text stroke="none" x="605.0" y="429.0" font-size="20.0" font-family="helvetica"/>
    </g>
    <g>
     <circle stroke="black" stroke-width="0.5" fill="#aaffff" cx="605.0" cy="399.0" r="1.0"/>
     <text stroke="none" x="605.0" y="399.0" font-size="20.0" font-family="helvetica"/>
    </g>
    <g>
     <circle stroke="black" stroke-width="0.5" fill="#aaffff" cx="605.0" cy="608.0" r="1.0"/>
     <text stroke="none" x="605.0" y="608.0" font-size="20.0" font-family="helvetica"/>
    </g>
    <g>
     <circle stroke="black" stroke-width="0.5" fill="#aaffff" cx="605.0" cy="696.0" r="1.0"/>
     <text stroke="none" x="605.0" y="696.0" font-size="20.0" font-family="helvetica"/>
    </g>
    <g>
     <circle stroke="black" stroke-width="0.5" fill="#aaffff" cx="605.0" cy="664.0" r="1.0"/>
     <text stroke="none" x="605.0" y="664.0" font-size="20.0" font-family="helvetica"/>
    </g>
    <g>
     <circle stroke="black" stroke-width="0.5" fill="#aaffff" cx="605.0" cy="635.0" r="1.0"/>
     <text stroke="none" x="605.0" y="635.0" font-size="20.0" font-family="helvetica"/>
    </g>
    <g>
     <circle stroke="black" stroke-width="0.5" fill="#aaffff" cx="605.0" cy="725.0" r="1.0"/>
     <text stroke="none" x="605.0" y="725.0" font-size="20.0" font-family="helvetica"/>
    </g>
    <g>
     <circle stroke="black" stroke-width="0.5" fill="#aaffff" cx="605.0" cy="755.0" r="1.0"/>
     <text stroke="none" x="605.0" y="755.0" font-size="20.0" font-family="helvetica"/>
    </g>
    <g>
     <circle stroke="black" stroke-width="0.5" fill="#aaffff" cx="605.0" cy="990.0" r="1.0"/>
     <text stroke="none" x="605.0" y="990.0" font-size="20.0" font-family="helvetica"/>
    </g>
    <g>
     <circle stroke="black" stroke-width="0.5" fill="#aaffff" cx="605.0" cy="961.0" r="1.0"/>
     <text stroke="none" x="605.0" y="961.0" font-size="20.0" font-family="helvetica"/>
    </g>
    <g>
     <circle stroke="black" stroke-width="0.5" fill="#aaffff" cx="605.0" cy="931.0" r="1.0"/>
     <text stroke="none" x="605.0" y="931.0" font-size="20.0" font-family="helvetica"/>
    </g>
    <g>
     <circle stroke="black" stroke-width="0.5" fill="#aaffff" cx="605.0" cy="904.0" r="1.0"/>
     <text stroke="none" x="605.0" y="904.0" font-size="20.0" font-family="helvetica"/>
    </g>
    <g>
     <circle stroke="black" stroke-width="0.5" fill="#aaffff" cx="605.0" cy="1022.0" r="1.0"/>
     <text stroke="none" x="605.0" y="1022.0" font-size="20.0" font-family="helvetica"/>
    </g>
    <g>
     <circle stroke="black" stroke-width="0.5" fill="#aaffff" cx="605.0" cy="843.0" r="1.0"/>
     <text stroke="none" x="605.0" y="843.0" font-size="20.0" font-family="helvetica"/>
    </g>
    <g>
     <circle stroke="black" stroke-width="0.5" fill="#aaffff" cx="605.0" cy="872.0" r="1.0"/>
     <text stroke="none" x="605.0" y="872.0" font-size="20.0" font-family="helvetica"/>
    </g>
    <g>
     <circle stroke="black" stroke-width="0.5" fill="#aaffff" cx="605.0" cy="814.0" r="1.0"/>
     <text stroke="none" x="605.0" y="814.0" font-size="20.0" font-family="helvetica"/>
    </g>
    <g>
     <circle stroke="black" stroke-width="0.5" fill="#aaffff" cx="605.0" cy="784.0" r="1.0"/>
     <text stroke="none" x="605.0" y="784.0" font-size="20.0" font-family="helvetica"/>
    </g>
    <g>
     <circle stroke="black" stroke-width="0.5" fill="#aaffff" cx="605.0" cy="1140.0" r="1.0"/>
     <text stroke="none" x="605.0" y="1140.0" font-size="20.0" font-family="helvetica"/>
    </g>
    <g>
     <circle stroke="black" stroke-width="0.5" fill="#aaffff" cx="605.0" cy="1110.0" r="1.0"/>
     <text stroke="none" x="605.0" y="1110.0" font-size="20.0" font-family="helvetica"/>
    </g>
    <g>
     <circle stroke="black" stroke-width="0.5" fill="#aaffff" cx="605.0" cy="1078.0" r="1.0"/>
     <text stroke="none" x="605.0" y="1078.0" font-size="20.0" font-family="helvetica"/>
    </g>
    <g>
     <circle stroke="black" stroke-width="0.5" fill="#aaffff" cx="605.0" cy="1051.0" r="1.0"/>
     <text stroke="none" x="605.0" y="1051.0" font-size="20.0" font-family="helvetica"/>
    </g>
    <g>
     <circle stroke="black" stroke-width="0.5" fill="#aaffff" cx="605.0" cy="1196.0" r="1.0"/>
     <text stroke="none" x="605.0" y="1196.0" font-size="20.0" font-family="helvetica"/>
    </g>
    <g>
     <circle stroke="black" stroke-width="0.5" fill="#aaffff" cx="605.0" cy="1169.0" r="1.0"/>
     <text stroke="none" x="605.0" y="1169.0" font-size="20.0" font-family="helvetica"/>
    </g>
    <g>
     <circle stroke="black" stroke-width="0.5" fill="#aaffff" cx="605.0" cy="1227.0" r="1.0"/>
     <text stroke="none" x="605.0" y="1227.0" font-size="20.0" font-family="helvetica"/>
    </g>
    <g>
     <circle stroke="black" stroke-width="0.5" fill="#aaffff" cx="605.0" cy="1257.0" r="1.0"/>
     <text stroke="none" x="605.0" y="1257.0" font-size="20.0" font-family="helvetica"/>
    </g>
    <g>
     <circle stroke="black" stroke-width="0.5" fill="#aaffff" cx="605.0" cy="1287.0" r="1.0"/>
     <text stroke="none" x="605.0" y="1287.0" font-size="20.0" font-family="helvetica"/>
    </g>
    <g>
     <circle stroke="black" stroke-width="0.5" fill="#aaffff" cx="605.0" cy="1318.0" r="1.0"/>
     <text stroke="none" x="605.0" y="1318.0" font-size="20.0" font-family="helvetica"/>
    </g>
    <g>
     <circle stroke="black" stroke-width="0.5" fill="#aaffff" cx="605.0" cy="1348.0" r="1.0"/>
     <text stroke="none" x="605.0" y="1348.0" font-size="20.0" font-family="helvetica"/>
    </g>
    <g>
     <circle stroke="black" stroke-width="0.5" fill="#aaffff" cx="605.0" cy="1375.0" r="1.0"/>
     <text stroke="none" x="605.0" y="1375.0" font-size="20.0" font-family="helvetica"/>
    </g>
    <g>
     <circle stroke="black" stroke-width="0.5" fill="#aaffff" cx="605.0" cy="1404.0" r="1.0"/>
     <text stroke="none" x="605.0" y="1404.0" font-size="20.0" font-family="helvetica"/>
    </g>
    <g>
     <circle stroke="black" stroke-width="0.5" fill="#aaffff" cx="605.0" cy="1436.0" r="1.0"/>
     <text stroke="none" x="605.0" y="1436.0" font-size="20.0" font-family="helvetica"/>
    </g>
    <g>
     <circle stroke="black" stroke-width="0.5" fill="#aaffff" cx="605.0" cy="1465.0" r="1.0"/>
     <text stroke="none" x="605.0" y="1465.0" font-size="20.0" font-family="helvetica"/>
    </g>
    <g>
     <circle stroke="black" stroke-width="0.5" fill="#aaffff" cx="605.0" cy="1492.0" r="1.0"/>
     <text stroke="none" x="605.0" y="1492.0" font-size="20.0" font-family="helvetica"/>
    </g>
    <g>
     <circle stroke="black" stroke-width="0.5" fill="#aaffff" cx="605.0" cy="1583.0" r="1.0"/>
     <text stroke="none" x="605.0" y="1583.0" font-size="20.0" font-family="helvetica"/>
    </g>
    <g>
     <circle stroke="black" stroke-width="0.5" fill="#aaffff" cx="605.0" cy="1553.0" r="1.0"/>
     <text stroke="none" x="605.0" y="1553.0" font-size="20.0" font-family="helvetica"/>
    </g>
    <g>
     <circle stroke="black" stroke-width="0.5" fill="#aaffff" cx="605.0" cy="1524.0" r="1.0"/>
     <text stroke="none" x="605.0" y="1524.0" font-size="20.0" font-family="helvetica"/>
    </g>
    <g>
     <circle stroke="black" stroke-width="0.5" fill="#aaffff" cx="605.0" cy="1613.0" r="1.0"/>
     <text stroke="none" x="605.0" y="1613.0" font-size="20.0" font-family="helvetica"/>
    </g>
    <g>
     <circle stroke="black" stroke-width="0.5" fill="#aaffff" cx="605.0" cy="1642.0" r="1.0"/>
     <text stroke="none" x="605.0" y="1642.0" font-size="20.0" font-family="helvetica"/>
    </g>
    <g>
     <circle stroke="black" stroke-width="0.5" fill="#aaffff" cx="605.0" cy="1672.0" r="1.0"/>
     <text stroke="none" x="605.0" y="1672.0" font-size="20.0" font-family="helvetica"/>
    </g>
    <g>
     <circle stroke="black" stroke-width="0.5" fill="#aaffff" cx="605.0" cy="1700.0" r="1.0"/>
     <text stroke="none" x="605.0" y="1700.0" font-size="20.0" font-family="helvetica"/>
    </g>
    <g>
     <circle stroke="black" stroke-width="0.5" fill="#aaffff" cx="608.0" cy="46.0" r="1.0"/>
     <text stroke="none" x="608.0" y="46.0" font-size="20.0" font-family="helvetica"/>
    </g>
    <g>
     <circle stroke="black" stroke-width="0.5" fill="#aaffff" cx="608.0" cy="74.0" r="1.0"/>
     <text stroke="none" x="608.0" y="74.0" font-size="20.0" font-family="helvetica"/>
    </g>
    <g>
     <circle stroke="black" stroke-width="0.5" fill="#aaffff" cx="608.0" cy="132.0" r="1.0"/>
     <text stroke="none" x="608.0" y="132.0" font-size="20.0" font-family="helvetica"/>
    </g>
    <g>
     <circle stroke="black" stroke-width="0.5" fill="#aaffff" cx="608.0" cy="221.0" r="1.0"/>
     <text stroke="none" x="608.0" y="221.0" font-size="20.0" font-family="helvetica"/>
    </g>
    <g>
     <circle stroke="black" stroke-width="0.5" fill="#aaffff" cx="608.0" cy="282.0" r="1.0"/>
     <text stroke="none" x="608.0" y="282.0" font-size="20.0" font-family="helvetica"/>
    </g>
    <g>
     <circle stroke="black" stroke-width="0.5" fill="#aaffff" cx="608.0" cy="370.0" r="1.0"/>
     <text stroke="none" x="608.0" y="370.0" font-size="20.0" font-family="helvetica"/>
    </g>
    <g>
     <circle stroke="black" stroke-width="0.5" fill="#aaffff" cx="608.0" cy="311.0" r="1.0"/>
     <text stroke="none" x="608.0" y="311.0" font-size="20.0" font-family="helvetica"/>
    </g>
    <g>
     <circle stroke="black" stroke-width="0.5" fill="#aaffff" cx="609.0" cy="59.0" r="1.0"/>
     <text stroke="none" x="609.0" y="59.0" font-size="10.0" font-family="helvetica">NT1.56</text>
    </g>
    <g>
     <circle stroke="black" stroke-width="0.5" fill="#aaffff" cx="609.0" cy="164.0" r="1.0"/>
     <text stroke="none" x="609.0" y="164.0" font-size="20.0" font-family="helvetica"/>
    </g>
    <g>
     <circle stroke="black" stroke-width="0.5" fill="#aaffff" cx="616.0" cy="102.0" r="1.0"/>
     <text stroke="none" x="616.0" y="102.0" font-size="20.0" font-family="helvetica"/>
    </g>
    <g>
     <circle stroke="black" stroke-width="0.5" fill="#aaffff" cx="616.0" cy="253.0" r="1.0"/>
     <text stroke="none" x="616.0" y="253.0" font-size="20.0" font-family="helvetica"/>
    </g>
    <g>
     <circle stroke="black" stroke-width="0.5" fill="#aaffff" cx="618.0" cy="194.0" r="1.0"/>
     <text stroke="none" x="618.0" y="194.0" font-size="20.0" font-family="helvetica"/>
    </g>
    <g>
     <circle stroke="black" stroke-width="0.5" fill="#aaffff" cx="627.0" cy="140.0" r="1.0"/>
     <text stroke="none" x="627.0" y="140.0" font-size="10.0" font-family="helvetica">NT1.61</text>
    </g>
    <g>
     <circle stroke="black" stroke-width="0.5" fill="#aaffff" cx="631.0" cy="84.0" r="1.0"/>
     <text stroke="none" x="631.0" y="84.0" font-size="10.0" font-family="helvetica">NT1.62</text>
    </g>
    <g>
     <circle stroke="black" stroke-width="0.5" fill="#aaffff" cx="639.0" cy="267.0" r="1.0"/>
     <text stroke="none" x="639.0" y="267.0" font-size="10.0" font-family="helvetica">NT1.63</text>
    </g>
    <g>
     <circle stroke="black" stroke-width="0.5" fill="#aaffff" cx="639.0" cy="209.0" r="1.0"/>
     <text stroke="none" x="639.0" y="209.0" font-size="10.0" font-family="helvetica">NT1.64</text>
    </g>
    <g>
     <circle stroke="black" stroke-width="0.5" fill="#aaffff" cx="642.0" cy="340.0" r="1.0"/>
     <text stroke="none" x="642.0" y="340.0" font-size="20.0" font-family="helvetica"/>
    </g>
    <g>
     <circle stroke="black" stroke-width="0.5" fill="#aaffff" cx="644.0" cy="113.0" r="1.0"/>
     <text stroke="none" x="644.0" y="113.0" font-size="10.0" font-family="helvetica">NT1.66</text>
    </g>
    <g>
     <circle stroke="black" stroke-width="0.5" fill="#aaffff" cx="648.0" cy="1773.0" r="1.0"/>
     <text stroke="none" x="648.0" y="1773.0" font-size="20.0" font-family="helvetica"/>
    </g>
    <g>
     <circle stroke="black" stroke-width="0.5" fill="#aaffff" cx="648.0" cy="1763.0" r="1.0"/>
     <text stroke="none" x="648.0" y="1763.0" font-size="10.0" font-family="helvetica">NT1.68</text>
    </g>
    <g>
     <circle stroke="black" stroke-width="0.5" fill="#aaffff" cx="660.0" cy="237.0" r="1.0"/>
     <text stroke="none" x="660.0" y="237.0" font-size="10.0" font-family="helvetica">NT1.69</text>
    </g>
    <g>
     <circle stroke="black" stroke-width="0.5" fill="#aaffff" cx="671.0" cy="535.0" r="1.0"/>
     <text stroke="none" x="671.0" y="535.0" font-size="10.0" font-family="helvetica">NT1.70</text>
    </g>
    <g>
     <circle stroke="black" stroke-width="0.5" fill="#aaffff" cx="701.0" cy="1770.0" r="1.0"/>
     <text stroke="none" x="701.0" y="1770.0" font-size="20.0" font-family="helvetica"/>
    </g>
    <g>
     <circle stroke="black" stroke-width="0.5" fill="#aaffff" cx="701.0" cy="1763.0" r="1.0"/>
     <text stroke="none" x="701.0" y="1763.0" font-size="10.0" font-family="helvetica">NT1.72</text>
    </g>
    <g>
     <circle stroke="black" stroke-width="0.5" fill="#aaffff" cx="706.0" cy="800.0" r="1.0"/>
     <text stroke="none" x="706.0" y="800.0" font-size="10.0" font-family="helvetica">NT1.73</text>
    </g>
    <g>
     <circle stroke="black" stroke-width="0.5" fill="#aaffff" cx="714.0" cy="949.0" r="1.0"/>
     <text stroke="none" x="714.0" y="949.0" font-size="10.0" font-family="helvetica">NT1.74</text>
    </g>
    <g>
     <circle stroke="black" stroke-width="0.5" fill="#aaffff" cx="719.0" cy="1059.0" r="1.0"/>
     <text stroke="none" x="719.0" y="1059.0" font-size="10.0" font-family="helvetica">NT1.75</text>
    </g>
    <g>
     <circle stroke="black" stroke-width="0.5" fill="#aaffff" cx="720.0" cy="417.0" r="1.0"/>
     <text stroke="none" x="720.0" y="417.0" font-size="10.0" font-family="helvetica">NT1.76</text>
    </g>
    <g>
     <circle stroke="black" stroke-width="0.5" fill="#aaffff" cx="735.0" cy="325.0" r="1.0"/>
     <text stroke="none" x="735.0" y="325.0" font-size="10.0" font-family="helvetica">NT1.77</text>
    </g>
    <g>
     <circle stroke="black" stroke-width="0.5" fill="#aaffff" cx="758.0" cy="1773.0" r="1.0"/>
     <text stroke="none" x="758.0" y="1773.0" font-size="20.0" font-family="helvetica"/>
    </g>
    <g>
     <circle stroke="black" stroke-width="0.5" fill="#aaffff" cx="758.0" cy="1763.0" r="1.0"/>
     <text stroke="none" x="758.0" y="1763.0" font-size="10.0" font-family="helvetica">NT1.79</text>
    </g>
    <g>
     <circle stroke="black" stroke-width="0.5" fill="#aaffff" cx="772.0" cy="1088.0" r="1.0"/>
     <text stroke="none" x="772.0" y="1088.0" font-size="10.0" font-family="helvetica">NT1.80</text>
    </g>
    <g>
     <circle stroke="black" stroke-width="0.5" fill="#aaffff" cx="778.0" cy="348.0" r="1.0"/>
     <text stroke="none" x="778.0" y="348.0" font-size="10.0" font-family="helvetica">NT1.81</text>
    </g>
    <g>
     <circle stroke="black" stroke-width="0.5" fill="#aaffff" cx="787.0" cy="437.0" r="1.0"/>
     <text stroke="none" x="787.0" y="437.0" font-size="10.0" font-family="helvetica">NT1.82</text>
    </g>
    <g>
     <circle stroke="black" stroke-width="0.5" fill="#aaffff" cx="812.0" cy="652.0" r="1.0"/>
     <text stroke="none" x="812.0" y="652.0" font-size="10.0" font-family="helvetica">NT1.83</text>
    </g>
    <g>
     <circle stroke="black" stroke-width="0.5" fill="#aaffff" cx="814.0" cy="1770.0" r="1.0"/>
     <text stroke="none" x="814.0" y="1770.0" font-size="20.0" font-family="helvetica"/>
    </g>
    <g>
     <circle stroke="black" stroke-width="0.5" fill="#aaffff" cx="814.0" cy="1763.0" r="1.0"/>
     <text stroke="none" x="814.0" y="1763.0" font-size="10.0" font-family="helvetica">NT1.85</text>
    </g>
    <g>
     <circle stroke="black" stroke-width="0.5" fill="#aaffff" cx="822.0" cy="1539.0" r="1.0"/>
     <text stroke="none" x="822.0" y="1539.0" font-size="10.0" font-family="helvetica">NT1.86</text>
    </g>
    <g>
     <circle stroke="black" stroke-width="0.5" fill="#aaffff" cx="831.0" cy="868.0" r="1.0"/>
     <text stroke="none" x="831.0" y="868.0" font-size="10.0" font-family="helvetica">NT1.87</text>
    </g>
    <g>
     <circle stroke="black" stroke-width="0.5" fill="#aaffff" cx="839.0" cy="968.0" r="1.0"/>
     <text stroke="none" x="839.0" y="968.0" font-size="10.0" font-family="helvetica">NT1.88</text>
    </g>
    <g>
     <circle stroke="black" stroke-width="0.5" fill="#aaffff" cx="858.0" cy="1113.0" r="1.0"/>
     <text stroke="none" x="858.0" y="1113.0" font-size="10.0" font-family="helvetica">NT1.89</text>
    </g>
    <g>
     <circle stroke="black" stroke-width="0.5" fill="#aaffff" cx="864.0" cy="1561.0" r="1.0"/>
     <text stroke="none" x="864.0" y="1561.0" font-size="10.0" font-family="helvetica">NT1.90</text>
    </g>
    <g>
     <circle stroke="black" stroke-width="0.5" fill="#aaffff" cx="868.0" cy="1773.0" r="1.0"/>
     <text stroke="none" x="868.0" y="1773.0" font-size="20.0" font-family="helvetica"/>
    </g>
    <g>
     <circle stroke="black" stroke-width="0.5" fill="#aaffff" cx="868.0" cy="1763.0" r="1.0"/>
     <text stroke="none" x="868.0" y="1763.0" font-size="10.0" font-family="helvetica">NT1.92</text>
    </g>
    <g>
     <circle stroke="black" stroke-width="0.5" fill="#aaffff" cx="901.0" cy="73.0" r="1.0"/>
     <text stroke="none" x="901.0" y="73.0" font-size="20.0" font-family="helvetica"/>
    </g>
    <g>
     <circle stroke="black" stroke-width="0.5" fill="#aaffff" cx="901.0" cy="1792.0" r="1.0"/>
     <text stroke="none" x="901.0" y="1792.0" font-size="20.0" font-family="helvetica"/>
    </g>
    <g>
     <circle stroke="black" stroke-width="0.5" fill="#aaffff" cx="925.0" cy="1770.0" r="1.0"/>
     <text stroke="none" x="925.0" y="1770.0" font-size="20.0" font-family="helvetica"/>
    </g>
    <g>
     <circle stroke="black" stroke-width="0.5" fill="#aaffff" cx="925.0" cy="1763.0" r="1.0"/>
     <text stroke="none" x="925.0" y="1763.0" font-size="10.0" font-family="helvetica">NT1.96</text>
    </g>
    <g>
     <circle stroke="black" stroke-width="0.5" fill="#aaffff" cx="933.0" cy="1147.0" r="1.0"/>
     <text stroke="none" x="933.0" y="1147.0" font-size="10.0" font-family="helvetica">NT1.97</text>
    </g>
    <g>
     <circle stroke="black" stroke-width="0.5" fill="#aaffff" cx="940.0" cy="1264.0" r="1.0"/>
     <text stroke="none" x="940.0" y="1264.0" font-size="10.0" font-family="helvetica">NT1.98</text>
    </g>
    <g>
     <circle stroke="black" stroke-width="0.5" fill="#aaffff" cx="951.0" cy="498.0" r="1.0"/>
     <text stroke="none" x="951.0" y="498.0" font-size="10.0" font-family="helvetica">NT1.99</text>
    </g>
    <g>
     <circle stroke="black" stroke-width="0.5" fill="#aaffff" cx="952.0" cy="1449.0" r="1.0"/>
     <text stroke="none" x="952.0" y="1449.0" font-size="10.0" font-family="helvetica">NT1.100</text>
    </g>
    <g>
     <circle stroke="black" stroke-width="0.5" fill="#aaffff" cx="958.0" cy="739.0" r="1.0"/>
     <text stroke="none" x="958.0" y="739.0" font-size="10.0" font-family="helvetica">NT1.101</text>
    </g>
    <g>
     <circle stroke="black" stroke-width="0.5" fill="#aaffff" cx="962.0" cy="1207.0" r="1.0"/>
     <text stroke="none" x="962.0" y="1207.0" font-size="10.0" font-family="helvetica">NT1.102</text>
    </g>
    <g>
     <circle stroke="black" stroke-width="0.5" fill="#aaffff" cx="975.0" cy="583.0" r="1.0"/>
     <text stroke="none" x="975.0" y="583.0" font-size="10.0" font-family="helvetica">NT1.103</text>
    </g>
    <g>
     <circle stroke="black" stroke-width="0.5" fill="#aaffff" cx="979.0" cy="1773.0" r="1.0"/>
     <text stroke="none" x="979.0" y="1773.0" font-size="20.0" font-family="helvetica"/>
    </g>
    <g>
     <circle stroke="black" stroke-width="0.5" fill="#aaffff" cx="979.0" cy="1763.0" r="1.0"/>
     <text stroke="none" x="979.0" y="1763.0" font-size="10.0" font-family="helvetica">NT1.105</text>
    </g>
    <g>
     <circle stroke="black" stroke-width="0.5" fill="#aaffff" cx="991.0" cy="662.0" r="1.0"/>
     <text stroke="none" x="991.0" y="662.0" font-size="10.0" font-family="helvetica">NT1.106</text>
    </g>
    <g>
     <circle stroke="black" stroke-width="0.5" fill="#aaffff" cx="993.0" cy="1472.0" r="1.0"/>
     <text stroke="none" x="993.0" y="1472.0" font-size="10.0" font-family="helvetica">NT1.107</text>
    </g>
    <g>
     <circle stroke="black" stroke-width="0.5" fill="#aaffff" cx="1003.0" cy="1380.0" r="1.0"/>
     <text stroke="none" x="1003.0" y="1380.0" font-size="10.0" font-family="helvetica">NT1.108</text>
    </g>
    <g>
     <circle stroke="black" stroke-width="0.5" fill="#aaffff" cx="1016.0" cy="1585.0" r="1.0"/>
     <text stroke="none" x="1016.0" y="1585.0" font-size="10.0" font-family="helvetica">NT1.109</text>
    </g>
    <g>
     <circle stroke="black" stroke-width="0.5" fill="#aaffff" cx="1024.0" cy="1087.0" r="1.0"/>
     <text stroke="none" x="1024.0" y="1087.0" font-size="10.0" font-family="helvetica">NT1.110</text>
    </g>
    <g>
     <circle stroke="black" stroke-width="0.5" fill="#aaffff" cx="1033.0" cy="1771.0" r="1.0"/>
     <text stroke="none" x="1033.0" y="1771.0" font-size="20.0" font-family="helvetica"/>
    </g>
    <g>
     <circle stroke="black" stroke-width="0.5" fill="#aaffff" cx="1033.0" cy="1763.0" r="1.0"/>
     <text stroke="none" x="1033.0" y="1763.0" font-size="10.0" font-family="helvetica">NT1.112</text>
    </g>
    <g>
     <circle stroke="black" stroke-width="0.5" fill="#aaffff" cx="1067.0" cy="1426.0" r="1.0"/>
     <text stroke="none" x="1067.0" y="1426.0" font-size="10.0" font-family="helvetica">NT1.113</text>
    </g>
    <g>
     <circle stroke="black" stroke-width="0.5" fill="#aaffff" cx="1084.0" cy="1507.0" r="1.0"/>
     <text stroke="none" x="1084.0" y="1507.0" font-size="10.0" font-family="helvetica">NT1.114</text>
    </g>
    <g>
     <circle stroke="black" stroke-width="0.5" fill="#aaffff" cx="1090.0" cy="1773.0" r="1.0"/>
     <text stroke="none" x="1090.0" y="1773.0" font-size="20.0" font-family="helvetica"/>
    </g>
    <g>
     <circle stroke="black" stroke-width="0.5" fill="#aaffff" cx="1090.0" cy="1763.0" r="1.0"/>
     <text stroke="none" x="1090.0" y="1763.0" font-size="10.0" font-family="helvetica">NT1.116</text>
    </g>
    <g>
     <circle stroke="black" stroke-width="0.5" fill="#aaffff" cx="1128.0" cy="875.0" r="1.0"/>
     <text stroke="none" x="1128.0" y="875.0" font-size="10.0" font-family="helvetica">NT1.117</text>
    </g>
    <g>
     <circle stroke="black" stroke-width="0.5" fill="#aaffff" cx="1136.0" cy="1576.0" r="1.0"/>
     <text stroke="none" x="1136.0" y="1576.0" font-size="10.0" font-family="helvetica">NT1.118</text>
    </g>
    <g>
     <circle stroke="black" stroke-width="0.5" fill="#aaffff" cx="1146.0" cy="1770.0" r="1.0"/>
     <text stroke="none" x="1146.0" y="1770.0" font-size="20.0" font-family="helvetica"/>
    </g>
    <g>
     <circle stroke="black" stroke-width="0.5" fill="#aaffff" cx="1146.0" cy="1763.0" r="1.0"/>
     <text stroke="none" x="1146.0" y="1763.0" font-size="10.0" font-family="helvetica">NT1.120</text>
    </g>
    <g>
     <circle stroke="black" stroke-width="0.5" fill="#aaffff" cx="1155.0" cy="1688.0" r="1.0"/>
     <text stroke="none" x="1155.0" y="1688.0" font-size="10.0" font-family="helvetica">NT1.121</text>
    </g>
    <g>
     <circle stroke="black" stroke-width="0.5" fill="#aaffff" cx="1195.0" cy="1629.0" r="1.0"/>
     <text stroke="none" x="1195.0" y="1629.0" font-size="10.0" font-family="helvetica">NT1.122</text>
    </g>
    <g>
     <circle stroke="black" stroke-width="0.5" fill="#aaffff" cx="1200.0" cy="1773.0" r="1.0"/>
     <text stroke="none" x="1200.0" y="1773.0" font-size="20.0" font-family="helvetica"/>
    </g>
    <g>
     <circle stroke="black" stroke-width="0.5" fill="#aaffff" cx="1200.0" cy="1763.0" r="1.0"/>
     <text stroke="none" x="1200.0" y="1763.0" font-size="10.0" font-family="helvetica">NT1.124</text>
    </g>
    <g>
     <circle stroke="black" stroke-width="0.5" fill="#aaffff" cx="1209.0" cy="1775.0" r="1.0"/>
     <text stroke="none" x="1209.0" y="1775.0" font-size="20.0" font-family="helvetica"/>
    </g>
    <g>
     <circle stroke="black" stroke-width="0.5" fill="#aaffff" cx="1209.0" cy="1127.0" r="1.0"/>
     <text stroke="none" x="1209.0" y="1127.0" font-size="10.0" font-family="helvetica">NT1.126</text>
    </g>
    <g>
     <circle stroke="black" stroke-width="0.5" fill="#aaffff" cx="1211.0" cy="1127.0" r="1.0"/>
     <text stroke="none" x="1211.0" y="1127.0" font-size="20.0" font-family="helvetica"/>
    </g>
    <line stroke="black" x1="608.0" y1="46.0" x2="609.0" y2="59.0" stroke-width="0.5"/>
    <line stroke="black" x1="608.0" y1="74.0" x2="609.0" y2="59.0" stroke-width="0.5"/>
    <line stroke="black" x1="608.0" y1="132.0" x2="627.0" y2="140.0" stroke-width="0.5"/>
    <line stroke="black" x1="608.0" y1="221.0" x2="639.0" y2="209.0" stroke-width="0.5"/>
    <line stroke="black" x1="901.0" y1="73.0" x2="858.0" y2="1113.0" stroke-width="0.5"/>
    <line stroke="black" x1="608.0" y1="311.0" x2="735.0" y2="325.0" stroke-width="0.5"/>
    <line stroke="black" x1="605.0" y1="546.0" x2="671.0" y2="535.0" stroke-width="0.5"/>
    <line stroke="black" x1="605.0" y1="517.0" x2="671.0" y2="535.0" stroke-width="0.5"/>
    <line stroke="black" x1="605.0" y1="608.0" x2="858.0" y2="1113.0" stroke-width="0.5"/>
    <line stroke="black" x1="605.0" y1="664.0" x2="812.0" y2="652.0" stroke-width="0.5"/>
    <line stroke="black" x1="605.0" y1="725.0" x2="858.0" y2="1113.0" stroke-width="0.5"/>
    <line stroke="black" x1="605.0" y1="755.0" x2="858.0" y2="1113.0" stroke-width="0.5"/>
    <line stroke="black" x1="605.0" y1="990.0" x2="839.0" y2="968.0" stroke-width="0.5"/>
    <line stroke="black" x1="605.0" y1="1022.0" x2="858.0" y2="1113.0" stroke-width="0.5"/>
    <line stroke="black" x1="605.0" y1="843.0" x2="706.0" y2="800.0" stroke-width="0.5"/>
    <line stroke="black" x1="605.0" y1="814.0" x2="706.0" y2="800.0" stroke-width="0.5"/>
    <line stroke="black" x1="605.0" y1="784.0" x2="706.0" y2="800.0" stroke-width="0.5"/>
    <line stroke="black" x1="1211.0" y1="1127.0" x2="1209.0" y2="1127.0" stroke-width="0.5"/>
    <line stroke="black" x1="605.0" y1="1051.0" x2="719.0" y2="1059.0" stroke-width="0.5"/>
    <line stroke="black" x1="605.0" y1="1196.0" x2="858.0" y2="1113.0" stroke-width="0.5"/>
    <line stroke="black" x1="605.0" y1="1169.0" x2="858.0" y2="1113.0" stroke-width="0.5"/>
    <line stroke="black" x1="605.0" y1="1287.0" x2="858.0" y2="1113.0" stroke-width="0.5"/>
    <line stroke="black" x1="605.0" y1="1318.0" x2="858.0" y2="1113.0" stroke-width="0.5"/>
    <line stroke="black" x1="605.0" y1="1375.0" x2="858.0" y2="1113.0" stroke-width="0.5"/>
    <line stroke="black" x1="605.0" y1="1404.0" x2="858.0" y2="1113.0" stroke-width="0.5"/>
    <line stroke="black" x1="605.0" y1="1436.0" x2="858.0" y2="1113.0" stroke-width="0.5"/>
    <line stroke="black" x1="605.0" y1="1465.0" x2="858.0" y2="1113.0" stroke-width="0.5"/>
    <line stroke="black" x1="605.0" y1="1492.0" x2="858.0" y2="1113.0" stroke-width="0.5"/>
    <line stroke="black" x1="925.0" y1="1770.0" x2="925.0" y2="1763.0" stroke-width="0.5"/>
    <line stroke="black" x1="901.0" y1="1792.0" x2="858.0" y2="1113.0" stroke-width="0.5"/>
    <line stroke="black" x1="868.0" y1="1773.0" x2="868.0" y2="1763.0" stroke-width="0.5"/>
    <line stroke="black" x1="979.0" y1="1773.0" x2="979.0" y2="1763.0" stroke-width="0.5"/>
    <line stroke="black" x1="814.0" y1="1770.0" x2="814.0" y2="1763.0" stroke-width="0.5"/>
    <line stroke="black" x1="1033.0" y1="1771.0" x2="1033.0" y2="1763.0" stroke-width="0.5"/>
    <line stroke="black" x1="605.0" y1="1613.0" x2="858.0" y2="1113.0" stroke-width="0.5"/>
    <line stroke="black" x1="758.0" y1="1773.0" x2="758.0" y2="1763.0" stroke-width="0.5"/>
    <line stroke="black" x1="605.0" y1="1642.0" x2="858.0" y2="1113.0" stroke-width="0.5"/>
    <line stroke="black" x1="1090.0" y1="1773.0" x2="1090.0" y2="1763.0" stroke-width="0.5"/>
    <line stroke="black" x1="701.0" y1="1770.0" x2="701.0" y2="1763.0" stroke-width="0.5"/>
    <line stroke="black" x1="605.0" y1="1672.0" x2="858.0" y2="1113.0" stroke-width="0.5"/>
    <line stroke="black" x1="605.0" y1="1700.0" x2="858.0" y2="1113.0" stroke-width="0.5"/>
    <line stroke="black" x1="1146.0" y1="1770.0" x2="1146.0" y2="1763.0" stroke-width="0.5"/>
    <line stroke="black" x1="648.0" y1="1773.0" x2="648.0" y2="1763.0" stroke-width="0.5"/>
    <line stroke="black" x1="1200.0" y1="1773.0" x2="1200.0" y2="1763.0" stroke-width="0.5"/>
    <line stroke="black" x1="591.0" y1="1770.0" x2="591.0" y2="1763.0" stroke-width="0.5"/>
    <line stroke="black" x1="609.0" y1="59.0" x2="631.0" y2="84.0" stroke-width="0.5"/>
    <line stroke="black" x1="631.0" y1="84.0" x2="644.0" y2="113.0" stroke-width="0.5"/>
    <line stroke="black" x1="631.0" y1="84.0" x2="616.0" y2="102.0" stroke-width="0.5"/>
    <line stroke="black" x1="644.0" y1="113.0" x2="858.0" y2="1113.0" stroke-width="0.5"/>
    <line stroke="black" x1="627.0" y1="140.0" x2="609.0" y2="164.0" stroke-width="0.5"/>
    <line stroke="black" x1="858.0" y1="1113.0" x2="660.0" y2="237.0" stroke-width="0.5"/>
    <line stroke="black" x1="858.0" y1="1113.0" x2="778.0" y2="348.0" stroke-width="0.5"/>
    <line stroke="black" x1="858.0" y1="1113.0" x2="951.0" y2="498.0" stroke-width="0.5"/>
    <line stroke="black" x1="858.0" y1="1113.0" x2="787.0" y2="437.0" stroke-width="0.5"/>
    <line stroke="black" x1="858.0" y1="1113.0" x2="951.0" y2="498.0" stroke-width="0.5"/>
    <line stroke="black" x1="858.0" y1="1113.0" x2="671.0" y2="535.0" stroke-width="0.5"/>
    <line stroke="black" x1="858.0" y1="1113.0" x2="812.0" y2="652.0" stroke-width="0.5"/>
    <line stroke="black" x1="858.0" y1="1113.0" x2="958.0" y2="739.0" stroke-width="0.5"/>
    <line stroke="black" x1="858.0" y1="1113.0" x2="975.0" y2="583.0" stroke-width="0.5"/>
    <line stroke="black" x1="858.0" y1="1113.0" x2="958.0" y2="739.0" stroke-width="0.5"/>
    <line stroke="black" x1="858.0" y1="1113.0" x2="831.0" y2="868.0" stroke-width="0.5"/>
    <line stroke="black" x1="858.0" y1="1113.0" x2="839.0" y2="968.0" stroke-width="0.5"/>
    <line stroke="black" x1="858.0" y1="1113.0" x2="1024.0" y2="1087.0" stroke-width="0.5"/>
    <line stroke="black" x1="858.0" y1="1113.0" x2="933.0" y2="1147.0" stroke-width="0.5"/>
    <line stroke="black" x1="858.0" y1="1113.0" x2="933.0" y2="1147.0" stroke-width="0.5"/>
    <line stroke="black" x1="858.0" y1="1113.0" x2="772.0" y2="1088.0" stroke-width="0.5"/>
    <line stroke="black" x1="858.0" y1="1113.0" x2="940.0" y2="1264.0" stroke-width="0.5"/>
    <line stroke="black" x1="858.0" y1="1113.0" x2="940.0" y2="1264.0" stroke-width="0.5"/>
    <line stroke="black" x1="858.0" y1="1113.0" x2="952.0" y2="1449.0" stroke-width="0.5"/>
    <line stroke="black" x1="858.0" y1="1113.0" x2="1003.0" y2="1380.0" stroke-width="0.5"/>
    <line stroke="black" x1="858.0" y1="1113.0" x2="952.0" y2="1449.0" stroke-width="0.5"/>
    <line stroke="black" x1="858.0" y1="1113.0" x2="993.0" y2="1472.0" stroke-width="0.5"/>
    <line stroke="black" x1="858.0" y1="1113.0" x2="1003.0" y2="1380.0" stroke-width="0.5"/>
    <line stroke="black" x1="858.0" y1="1113.0" x2="864.0" y2="1561.0" stroke-width="0.5"/>
    <line stroke="black" x1="858.0" y1="1113.0" x2="1016.0" y2="1585.0" stroke-width="0.5"/>
    <line stroke="black" x1="858.0" y1="1113.0" x2="1136.0" y2="1576.0" stroke-width="0.5"/>
    <line stroke="black" x1="858.0" y1="1113.0" x2="925.0" y2="1763.0" stroke-width="0.5"/>
    <line stroke="black" x1="858.0" y1="1113.0" x2="868.0" y2="1763.0" stroke-width="0.5"/>
    <line stroke="black" x1="858.0" y1="1113.0" x2="1155.0" y2="1688.0" stroke-width="0.5"/>
    <line stroke="black" x1="858.0" y1="1113.0" x2="1155.0" y2="1688.0" stroke-width="0.5"/>
    <line stroke="black" x1="660.0" y1="237.0" x2="639.0" y2="209.0" stroke-width="0.5"/>
    <line stroke="black" x1="660.0" y1="237.0" x2="639.0" y2="267.0" stroke-width="0.5"/>
    <line stroke="black" x1="639.0" y1="267.0" x2="616.0" y2="253.0" stroke-width="0.5"/>
    <line stroke="black" x1="639.0" y1="209.0" x2="618.0" y2="194.0" stroke-width="0.5"/>
    <line stroke="black" x1="778.0" y1="348.0" x2="735.0" y2="325.0" stroke-width="0.5"/>
    <line stroke="black" x1="735.0" y1="325.0" x2="642.0" y2="340.0" stroke-width="0.5"/>
    <line stroke="black" x1="951.0" y1="498.0" x2="975.0" y2="583.0" stroke-width="0.5"/>
    <line stroke="black" x1="975.0" y1="583.0" x2="991.0" y2="662.0" stroke-width="0.5"/>
    <line stroke="black" x1="787.0" y1="437.0" x2="720.0" y2="417.0" stroke-width="0.5"/>
    <line stroke="black" x1="991.0" y1="662.0" x2="1128.0" y2="875.0" stroke-width="0.5"/>
    <line stroke="black" x1="991.0" y1="662.0" x2="958.0" y2="739.0" stroke-width="0.5"/>
    <line stroke="black" x1="831.0" y1="868.0" x2="706.0" y2="800.0" stroke-width="0.5"/>
    <line stroke="black" x1="1128.0" y1="875.0" x2="1024.0" y2="1087.0" stroke-width="0.5"/>
    <line stroke="black" x1="1128.0" y1="875.0" x2="1209.0" y2="1127.0" stroke-width="0.5"/>
    <line stroke="black" x1="839.0" y1="968.0" x2="714.0" y2="949.0" stroke-width="0.5"/>
    <line stroke="black" x1="933.0" y1="1147.0" x2="962.0" y2="1207.0" stroke-width="0.5"/>
    <line stroke="black" x1="1024.0" y1="1087.0" x2="962.0" y2="1207.0" stroke-width="0.5"/>
    <line stroke="black" x1="772.0" y1="1088.0" x2="719.0" y2="1059.0" stroke-width="0.5"/>
    <line stroke="black" x1="962.0" y1="1207.0" x2="940.0" y2="1264.0" stroke-width="0.5"/>
    <line stroke="black" x1="1209.0" y1="1127.0" x2="1195.0" y2="1629.0" stroke-width="0.5"/>
    <line stroke="black" x1="952.0" y1="1449.0" x2="993.0" y2="1472.0" stroke-width="0.5"/>
    <line stroke="black" x1="1003.0" y1="1380.0" x2="1067.0" y2="1426.0" stroke-width="0.5"/>
    <line stroke="black" x1="993.0" y1="1472.0" x2="1067.0" y2="1426.0" stroke-width="0.5"/>
    <line stroke="black" x1="1067.0" y1="1426.0" x2="1084.0" y2="1507.0" stroke-width="0.5"/>
    <line stroke="black" x1="864.0" y1="1561.0" x2="822.0" y2="1539.0" stroke-width="0.5"/>
    <line stroke="black" x1="1084.0" y1="1507.0" x2="1016.0" y2="1585.0" stroke-width="0.5"/>
    <line stroke="black" x1="925.0" y1="1763.0" x2="979.0" y2="1763.0" stroke-width="0.5"/>
    <line stroke="black" x1="1136.0" y1="1576.0" x2="1195.0" y2="1629.0" stroke-width="0.5"/>
    <line stroke="black" x1="868.0" y1="1763.0" x2="814.0" y2="1763.0" stroke-width="0.5"/>
    <line stroke="black" x1="979.0" y1="1763.0" x2="1033.0" y2="1763.0" stroke-width="0.5"/>
    <line stroke="black" x1="814.0" y1="1763.0" x2="758.0" y2="1763.0" stroke-width="0.5"/>
    <line stroke="black" x1="1195.0" y1="1629.0" x2="1155.0" y2="1688.0" stroke-width="0.5"/>
    <line stroke="black" x1="1033.0" y1="1763.0" x2="1090.0" y2="1763.0" stroke-width="0.5"/>
    <line stroke="black" x1="758.0" y1="1763.0" x2="701.0" y2="1763.0" stroke-width="0.5"/>
    <line stroke="black" x1="1090.0" y1="1763.0" x2="1146.0" y2="1763.0" stroke-width="0.5"/>
    <line stroke="black" x1="701.0" y1="1763.0" x2="648.0" y2="1763.0" stroke-width="0.5"/>
    <line stroke="black" x1="1146.0" y1="1763.0" x2="1200.0" y2="1763.0" stroke-width="0.5"/>
    <line stroke="black" x1="648.0" y1="1763.0" x2="591.0" y2="1763.0" stroke-width="0.5"/>
    <line stroke="black" x1="538.0" y1="1775.0" x2="591.0" y2="1763.0" stroke-width="0.5"/>
    <line stroke="black" x1="605.0" y1="459.0" x2="787.0" y2="437.0" stroke-width="0.5"/>
    <line stroke="black" x1="605.0" y1="961.0" x2="714.0" y2="949.0" stroke-width="0.5"/>
    <line stroke="black" x1="605.0" y1="1140.0" x2="858.0" y2="1113.0" stroke-width="0.5"/>
    <line stroke="black" x1="605.0" y1="1227.0" x2="858.0" y2="1113.0" stroke-width="0.5"/>
    <line stroke="black" x1="608.0" y1="282.0" x2="639.0" y2="267.0" stroke-width="0.5"/>
    <line stroke="black" x1="644.0" y1="113.0" x2="627.0" y2="140.0" stroke-width="0.5"/>
    <line stroke="black" x1="605.0" y1="399.0" x2="720.0" y2="417.0" stroke-width="0.5"/>
    <line stroke="black" x1="605.0" y1="1078.0" x2="719.0" y2="1059.0" stroke-width="0.5"/>
    <line stroke="black" x1="605.0" y1="931.0" x2="714.0" y2="949.0" stroke-width="0.5"/>
    <line stroke="black" x1="605.0" y1="429.0" x2="720.0" y2="417.0" stroke-width="0.5"/>
    <line stroke="black" x1="605.0" y1="872.0" x2="706.0" y2="800.0" stroke-width="0.5"/>
    <line stroke="black" x1="605.0" y1="1348.0" x2="858.0" y2="1113.0" stroke-width="0.5"/>
    <line stroke="black" x1="605.0" y1="490.0" x2="787.0" y2="437.0" stroke-width="0.5"/>
    <line stroke="black" x1="605.0" y1="578.0" x2="858.0" y2="1113.0" stroke-width="0.5"/>
    <line stroke="black" x1="605.0" y1="1110.0" x2="772.0" y2="1088.0" stroke-width="0.5"/>
    <line stroke="black" x1="605.0" y1="635.0" x2="812.0" y2="652.0" stroke-width="0.5"/>
    <line stroke="black" x1="605.0" y1="1257.0" x2="858.0" y2="1113.0" stroke-width="0.5"/>
    <line stroke="black" x1="605.0" y1="1553.0" x2="822.0" y2="1539.0" stroke-width="0.5"/>
    <line stroke="black" x1="605.0" y1="1583.0" x2="864.0" y2="1561.0" stroke-width="0.5"/>
    <line stroke="black" x1="608.0" y1="370.0" x2="778.0" y2="348.0" stroke-width="0.5"/>
    <line stroke="black" x1="605.0" y1="904.0" x2="831.0" y2="868.0" stroke-width="0.5"/>
    <line stroke="black" x1="605.0" y1="1524.0" x2="822.0" y2="1539.0" stroke-width="0.5"/>
    <line stroke="black" x1="605.0" y1="696.0" x2="858.0" y2="1113.0" stroke-width="0.5"/>
    <line stroke="black" x1="858.0" y1="1113.0" x2="1016.0" y2="1585.0" stroke-width="0.5"/>
    <line stroke="black" x1="1084.0" y1="1507.0" x2="1136.0" y2="1576.0" stroke-width="0.5"/>
    <line stroke="black" x1="1209.0" y1="1775.0" x2="1200.0" y2="1763.0" stroke-width="0.5"/>
   </g>
  </g>
 </svg>
</svg>
