<?xml version="1.0" encoding="UTF-8"?>
<svg height="800.0" width="700.0" xmlns="http://www.w3.org/2000/svg">
 <svg>
  <g>
   <g>
    <g>
     <circle stroke="black" stroke-width="0.5" fill="#aaffff" cx="40.0" cy="282.0" r="1.0"/>
     <text stroke="none" x="40.0" y="282.0" font-size="10.0" font-family="helvetica">NT1.1</text>
    </g>
    <g>
     <circle stroke="black" stroke-width="0.5" fill="#aaffff" cx="65.0" cy="82.0" r="1.0"/>
     <text stroke="none" x="65.0" y="82.0" font-size="10.0" font-family="helvetica">NT1.2</text>
    </g>
    <g>
     <circle stroke="black" stroke-width="0.5" fill="#aaffff" cx="98.0" cy="393.0" r="1.0"/>
     <text stroke="none" x="98.0" y="393.0" font-size="10.0" font-family="helvetica">NT1.3</text>
    </g>
    <g>
     <circle stroke="black" stroke-width="0.5" fill="#aaffff" cx="131.0" cy="173.0" r="1.0"/>
     <text stroke="none" x="131.0" y="173.0" font-size="10.0" font-family="helvetica">NT1.4</text>
    </g>
    <g>
     <circle stroke="black" stroke-width="0.5" fill="#aaffff" cx="140.0" cy="506.0" r="1.0"/>
     <text stroke="none" x="140.0" y="506.0" font-size="20.0" font-family="helvetica">820</text>
    </g>
    <g>
     <circle stroke="black" stroke-width="0.5" fill="#aaffff" cx="147.0" cy="552.0" r="1.0"/>
     <text stroke="none" x="147.0" y="552.0" font-size="20.0" font-family="helvetica">549</text>
    </g>
    <g>
     <circle stroke="black" stroke-width="0.5" fill="#aaffff" cx="173.0" cy="282.0" r="1.0"/>
     <text stroke="none" x="173.0" y="282.0" font-size="10.0" font-family="helvetica">NT1.7</text>
    </g>
    <g>
     <circle stroke="black" stroke-width="0.5" fill="#aaffff" cx="193.0" cy="322.0" r="1.0"/>
     <text stroke="none" x="193.0" y="322.0" font-size="10.0" font-family="helvetica">NT1.8</text>
    </g>
    <g>
     <circle stroke="black" stroke-width="0.5" fill="#aaffff" cx="193.0" cy="598.0" r="1.0"/>
     <text stroke="none" x="193.0" y="598.0" font-size="10.0" font-family="helvetica">NT1.9</text>
    </g>
    <g>
     <circle stroke="black" stroke-width="0.5" fill="#aaffff" cx="203.0" cy="150.0" r="1.0"/>
     <text stroke="none" x="203.0" y="150.0" font-size="20.0" font-family="helvetica">Shewanella benthica ATCC 439927 (X82131)</text>
    </g>
    <g>
     <circle stroke="black" stroke-width="0.5" fill="#aaffff" cx="214.0" cy="646.0" r="1.0"/>
     <text stroke="none" x="214.0" y="646.0" font-size="10.0" font-family="helvetica">NT1.11</text>
    </g>
    <g>
     <circle stroke="black" stroke-width="0.5" fill="#aaffff" cx="222.0" cy="361.0" r="1.0"/>
     <text stroke="none" x="222.0" y="361.0" font-size="10.0" font-family="helvetica">NT1.12</text>
    </g>
    <g>
     <circle stroke="black" stroke-width="0.5" fill="#aaffff" cx="233.0" cy="195.0" r="1.0"/>
     <text stroke="none" x="233.0" y="195.0" font-size="20.0" font-family="helvetica">Shewanella violacea JCM 10179T (D21225)</text>
    </g>
    <g>
     <circle stroke="black" stroke-width="0.5" fill="#aaffff" cx="234.0" cy="552.0" r="1.0"/>
     <text stroke="none" x="234.0" y="552.0" font-size="20.0" font-family="helvetica">Shewanella pneumatophori SCRC-27387 (AB204519)</text>
    </g>
    <g>
     <circle stroke="black" stroke-width="0.5" fill="#aaffff" cx="238.0" cy="596.0" r="1.0"/>
     <text stroke="none" x="238.0" y="596.0" font-size="20.0" font-family="helvetica">Shewanella schlegeliana JCM 11561T (AB081760)</text>
    </g>
    <g>
     <circle stroke="black" stroke-width="0.5" fill="#aaffff" cx="238.0" cy="697.0" r="1.0"/>
     <text stroke="none" x="238.0" y="697.0" font-size="20.0" font-family="helvetica">687</text>
    </g>
    <g>
     <circle stroke="black" stroke-width="0.5" fill="#aaffff" cx="241.0" cy="687.0" r="1.0"/>
     <text stroke="none" x="241.0" y="687.0" font-size="20.0" font-family="helvetica">Shewanella marinintestina JCM 11558T (AB081757)</text>
    </g>
    <g>
     <circle stroke="black" stroke-width="0.5" fill="#aaffff" cx="241.0" cy="665.0" r="1.0"/>
     <text stroke="none" x="241.0" y="665.0" font-size="10.0" font-family="helvetica">NT1.18</text>
    </g>
    <g>
     <circle stroke="black" stroke-width="0.5" fill="#aaffff" cx="242.0" cy="641.0" r="1.0"/>
     <text stroke="none" x="242.0" y="641.0" font-size="20.0" font-family="helvetica">ggaewanella sairae JCM 11563T (AB081762)</text>
    </g>
    <g>
     <circle stroke="black" stroke-width="0.5" fill="#aaffff" cx="263.0" cy="507.0" r="1.0"/>
     <text stroke="none" x="263.0" y="507.0" font-size="20.0" font-family="helvetica">Shewanella fidelis ATCC BAA-318T (AF420312)</text>
    </g>
    <g>
     <circle stroke="black" stroke-width="0.5" fill="#aaffff" cx="302.0" cy="395.0" r="1.0"/>
     <text stroke="none" x="302.0" y="395.0" font-size="10.0" font-family="helvetica">NT1.21</text>
    </g>
    <g>
     <circle stroke="black" stroke-width="0.5" fill="#aaffff" cx="312.0" cy="418.0" r="1.0"/>
     <text stroke="none" x="312.0" y="418.0" font-size="20.0" font-family="helvetica">Shewanella affinis KMM 3587T (AY351983)</text>
    </g>
    <g>
     <circle stroke="black" stroke-width="0.5" fill="#aaffff" cx="314.0" cy="463.0" r="1.0"/>
     <text stroke="none" x="314.0" y="463.0" font-size="20.0" font-family="helvetica">Shewanella gelidimarina ACAM 4567 (U85907)</text>
    </g>
    <g>
     <circle stroke="black" stroke-width="0.5" fill="#aaffff" cx="332.0" cy="329.0" r="1.0"/>
     <text stroke="none" x="332.0" y="329.0" font-size="20.0" font-family="helvetica">Shewanella marisflavi JCM 12192T (AY485224)</text>
    </g>
    <g>
     <circle stroke="black" stroke-width="0.5" fill="#aaffff" cx="334.0" cy="61.0" r="1.0"/>
     <text stroke="none" x="334.0" y="61.0" font-size="20.0" font-family="helvetica">Shewanella woodyr'ATCC 519087 (AFO03548)</text>
    </g>
    <g>
     <circle stroke="black" stroke-width="0.5" fill="#aaffff" cx="334.0" cy="283.0" r="1.0"/>
     <text stroke="none" x="334.0" y="283.0" font-size="20.0" font-family="helvetica">Shewanella waksmanii ATCC BAA-643T (AY170366)</text>
    </g>
    <g>
     <circle stroke="black" stroke-width="0.5" fill="#aaffff" cx="349.0" cy="374.0" r="1.0"/>
     <text stroke="none" x="349.0" y="374.0" font-size="20.0" font-family="helvetica">Shewanella colwelliana ATCC 33888 (AF170794)</text>
    </g>
    <g>
     <circle stroke="black" stroke-width="0.5" fill="#aaffff" cx="365.0" cy="239.0" r="1.0"/>
     <text stroke="none" x="365.0" y="239.0" font-size="20.0" font-family="helvetica">Shewanella aquimarina JCM 12193T (AY485225)</text>
    </g>
    <g>
     <circle stroke="black" stroke-width="0.5" fill="#aaffff" cx="392.0" cy="105.0" r="1.0"/>
     <text stroke="none" x="392.0" y="105.0" font-size="20.0" font-family="helvetica">Shewanella hanedai ATCC 33224T (U91590)</text>
    </g>
    <g>
     <circle stroke="black" stroke-width="0.5" fill="#aaffff" cx="416.0" cy="731.0" r="1.0"/>
     <text stroke="none" x="416.0" y="731.0" font-size="20.0" font-family="helvetica">Shewanella pealeana ATCC 70O345T (AF011335)</text>
    </g>
    <g>
     <circle stroke="black" stroke-width="0.5" fill="#aaffff" cx="810.0" cy="16.0" r="1.0"/>
     <text stroke="none" x="810.0" y="16.0" font-size="20.0" font-family="helvetica">Moritella marina NCIMB 11447 (X82142)</text>
    </g>
    <line stroke="black" x1="233.0" y1="195.0" x2="131.0" y2="173.0" stroke-width="0.5"/>
    <line stroke="black" x1="263.0" y1="507.0" x2="147.0" y2="552.0" stroke-width="0.5"/>
    <line stroke="black" x1="234.0" y1="552.0" x2="193.0" y2="598.0" stroke-width="0.5"/>
    <line stroke="black" x1="334.0" y1="283.0" x2="193.0" y2="322.0" stroke-width="0.5"/>
    <line stroke="black" x1="238.0" y1="596.0" x2="214.0" y2="646.0" stroke-width="0.5"/>
    <line stroke="black" x1="332.0" y1="329.0" x2="222.0" y2="361.0" stroke-width="0.5"/>
    <line stroke="black" x1="241.0" y1="687.0" x2="241.0" y2="665.0" stroke-width="0.5"/>
    <line stroke="black" x1="242.0" y1="641.0" x2="241.0" y2="665.0" stroke-width="0.5"/>
    <line stroke="black" x1="349.0" y1="374.0" x2="302.0" y2="395.0" stroke-width="0.5"/>
    <line stroke="black" x1="40.0" y1="282.0" x2="98.0" y2="393.0" stroke-width="0.5"/>
    <line stroke="black" x1="40.0" y1="282.0" x2="131.0" y2="173.0" stroke-width="0.5"/>
    <line stroke="black" x1="98.0" y1="393.0" x2="140.0" y2="506.0" stroke-width="0.5"/>
    <line stroke="black" x1="98.0" y1="393.0" x2="173.0" y2="282.0" stroke-width="0.5"/>
    <line stroke="black" x1="140.0" y1="506.0" x2="147.0" y2="552.0" stroke-width="0.5"/>
    <line stroke="black" x1="173.0" y1="282.0" x2="193.0" y2="322.0" stroke-width="0.5"/>
    <line stroke="black" x1="147.0" y1="552.0" x2="193.0" y2="598.0" stroke-width="0.5"/>
    <line stroke="black" x1="193.0" y1="322.0" x2="222.0" y2="361.0" stroke-width="0.5"/>
    <line stroke="black" x1="193.0" y1="598.0" x2="214.0" y2="646.0" stroke-width="0.5"/>
    <line stroke="black" x1="222.0" y1="361.0" x2="302.0" y2="395.0" stroke-width="0.5"/>
    <line stroke="black" x1="214.0" y1="646.0" x2="238.0" y2="697.0" stroke-width="0.5"/>
    <line stroke="black" x1="238.0" y1="697.0" x2="241.0" y2="665.0" stroke-width="0.5"/>
    <line stroke="black" x1="65.0" y1="82.0" x2="40.0" y2="282.0" stroke-width="0.5"/>
    <line stroke="black" x1="203.0" y1="150.0" x2="131.0" y2="173.0" stroke-width="0.5"/>
    <line stroke="black" x1="334.0" y1="61.0" x2="65.0" y2="82.0" stroke-width="0.5"/>
    <line stroke="black" x1="314.0" y1="463.0" x2="140.0" y2="506.0" stroke-width="0.5"/>
    <line stroke="black" x1="392.0" y1="105.0" x2="65.0" y2="82.0" stroke-width="0.5"/>
    <line stroke="black" x1="365.0" y1="239.0" x2="173.0" y2="282.0" stroke-width="0.5"/>
    <line stroke="black" x1="416.0" y1="731.0" x2="238.0" y2="697.0" stroke-width="0.5"/>
    <line stroke="black" x1="312.0" y1="418.0" x2="302.0" y2="395.0" stroke-width="0.5"/>
    <line stroke="black" x1="810.0" y1="16.0" x2="65.0" y2="82.0" stroke-width="0.5"/>
   </g>
  </g>
 </svg>
</svg>
