<?xml version="1.0" encoding="UTF-8"?>
<svg height="800.0" width="700.0" xmlns="http://www.w3.org/2000/svg">
 <svg>
  <g>
   <g>
    <g>
     <circle stroke="black" stroke-width="0.5" fill="#aaffff" cx="20.0" cy="445.0" r="1.0"/>
     <text stroke="none" x="20.0" y="445.0" font-size="10.0" font-family="helvetica">NT1.1</text>
    </g>
    <g>
     <circle stroke="black" stroke-width="0.5" fill="#aaffff" cx="46.0" cy="362.0" r="1.0"/>
     <text stroke="none" x="46.0" y="362.0" font-size="10.0" font-family="helvetica">NT1.2</text>
    </g>
    <g>
     <circle stroke="black" stroke-width="0.5" fill="#aaffff" cx="51.0" cy="271.0" r="1.0"/>
     <text stroke="none" x="51.0" y="271.0" font-size="10.0" font-family="helvetica">NT1.3</text>
    </g>
    <g>
     <circle stroke="black" stroke-width="0.5" fill="#aaffff" cx="56.0" cy="595.0" r="1.0"/>
     <text stroke="none" x="56.0" y="595.0" font-size="10.0" font-family="helvetica">NT1.4</text>
    </g>
    <g>
     <circle stroke="black" stroke-width="0.5" fill="#aaffff" cx="68.0" cy="214.0" r="1.0"/>
     <text stroke="none" x="68.0" y="214.0" font-size="10.0" font-family="helvetica">NT1.5</text>
    </g>
    <g>
     <circle stroke="black" stroke-width="0.5" fill="#aaffff" cx="70.0" cy="448.0" r="1.0"/>
     <text stroke="none" x="70.0" y="448.0" font-size="10.0" font-family="helvetica">NT1.6</text>
    </g>
    <g>
     <circle stroke="black" stroke-width="0.5" fill="#aaffff" cx="94.0" cy="174.0" r="1.0"/>
     <text stroke="none" x="94.0" y="174.0" font-size="10.0" font-family="helvetica">NT1.7</text>
    </g>
    <g>
     <circle stroke="black" stroke-width="0.5" fill="#aaffff" cx="108.0" cy="416.0" r="1.0"/>
     <text stroke="none" x="108.0" y="416.0" font-size="10.0" font-family="helvetica">NT1.8</text>
    </g>
    <g>
     <circle stroke="black" stroke-width="0.5" fill="#aaffff" cx="122.0" cy="133.0" r="1.0"/>
     <text stroke="none" x="122.0" y="133.0" font-size="10.0" font-family="helvetica">NT1.9</text>
    </g>
    <g>
     <circle stroke="black" stroke-width="0.5" fill="#aaffff" cx="139.0" cy="100.0" r="1.0"/>
     <text stroke="none" x="139.0" y="100.0" font-size="10.0" font-family="helvetica">NT1.10</text>
    </g>
    <g>
     <circle stroke="black" stroke-width="0.5" fill="#aaffff" cx="312.0" cy="322.0" r="1.0"/>
     <text stroke="none" x="312.0" y="322.0" font-size="10.0" font-family="helvetica">NT1.11</text>
    </g>
    <g>
     <circle stroke="black" stroke-width="0.5" fill="#aaffff" cx="364.0" cy="76.0" r="1.0"/>
     <text stroke="none" x="364.0" y="76.0" font-size="20.0" font-family="helvetica"/>
    </g>
    <g>
     <circle stroke="black" stroke-width="0.5" fill="#aaffff" cx="364.0" cy="121.0" r="1.0"/>
     <text stroke="none" x="364.0" y="121.0" font-size="20.0" font-family="helvetica">IIIIIIIII IIIIIIIIIIIIIIII IIIII III II</text>
    </g>
    <g>
     <circle stroke="black" stroke-width="0.5" fill="#aaffff" cx="364.0" cy="166.0" r="1.0"/>
     <text stroke="none" x="364.0" y="166.0" font-size="20.0" font-family="helvetica"/>
    </g>
    <g>
     <circle stroke="black" stroke-width="0.5" fill="#aaffff" cx="364.0" cy="211.0" r="1.0"/>
     <text stroke="none" x="364.0" y="211.0" font-size="20.0" font-family="helvetica"/>
    </g>
    <g>
     <circle stroke="black" stroke-width="0.5" fill="#aaffff" cx="364.0" cy="256.0" r="1.0"/>
     <text stroke="none" x="364.0" y="256.0" font-size="20.0" font-family="helvetica"/>
    </g>
    <g>
     <circle stroke="black" stroke-width="0.5" fill="#aaffff" cx="364.0" cy="301.0" r="1.0"/>
     <text stroke="none" x="364.0" y="301.0" font-size="20.0" font-family="helvetica"/>
    </g>
    <g>
     <circle stroke="black" stroke-width="0.5" fill="#aaffff" cx="364.0" cy="347.0" r="1.0"/>
     <text stroke="none" x="364.0" y="347.0" font-size="20.0" font-family="helvetica"/>
    </g>
    <g>
     <circle stroke="black" stroke-width="0.5" fill="#aaffff" cx="364.0" cy="482.0" r="1.0"/>
     <text stroke="none" x="364.0" y="482.0" font-size="20.0" font-family="helvetica"/>
    </g>
    <g>
     <circle stroke="black" stroke-width="0.5" fill="#aaffff" cx="364.0" cy="439.0" r="1.0"/>
     <text stroke="none" x="364.0" y="439.0" font-size="20.0" font-family="helvetica"/>
    </g>
    <g>
     <circle stroke="black" stroke-width="0.5" fill="#aaffff" cx="364.0" cy="391.0" r="1.0"/>
     <text stroke="none" x="364.0" y="391.0" font-size="20.0" font-family="helvetica">IIIIIII</text>
    </g>
    <g>
     <circle stroke="black" stroke-width="0.5" fill="#aaffff" cx="364.0" cy="527.0" r="1.0"/>
     <text stroke="none" x="364.0" y="527.0" font-size="20.0" font-family="helvetica"/>
    </g>
    <g>
     <circle stroke="black" stroke-width="0.5" fill="#aaffff" cx="364.0" cy="618.0" r="1.0"/>
     <text stroke="none" x="364.0" y="618.0" font-size="20.0" font-family="helvetica">III II</text>
    </g>
    <g>
     <circle stroke="black" stroke-width="0.5" fill="#aaffff" cx="364.0" cy="571.0" r="1.0"/>
     <text stroke="none" x="364.0" y="571.0" font-size="20.0" font-family="helvetica">Illl</text>
    </g>
    <line stroke="black" x1="364.0" y1="211.0" x2="94.0" y2="174.0" stroke-width="0.5"/>
    <line stroke="black" x1="364.0" y1="301.0" x2="312.0" y2="322.0" stroke-width="0.5"/>
    <line stroke="black" x1="364.0" y1="347.0" x2="312.0" y2="322.0" stroke-width="0.5"/>
    <line stroke="black" x1="364.0" y1="482.0" x2="70.0" y2="448.0" stroke-width="0.5"/>
    <line stroke="black" x1="364.0" y1="439.0" x2="108.0" y2="416.0" stroke-width="0.5"/>
    <line stroke="black" x1="364.0" y1="391.0" x2="108.0" y2="416.0" stroke-width="0.5"/>
    <line stroke="black" x1="364.0" y1="527.0" x2="20.0" y2="445.0" stroke-width="0.5"/>
    <line stroke="black" x1="364.0" y1="618.0" x2="56.0" y2="595.0" stroke-width="0.5"/>
    <line stroke="black" x1="364.0" y1="571.0" x2="56.0" y2="595.0" stroke-width="0.5"/>
    <line stroke="black" x1="139.0" y1="100.0" x2="122.0" y2="133.0" stroke-width="0.5"/>
    <line stroke="black" x1="122.0" y1="133.0" x2="94.0" y2="174.0" stroke-width="0.5"/>
    <line stroke="black" x1="94.0" y1="174.0" x2="68.0" y2="214.0" stroke-width="0.5"/>
    <line stroke="black" x1="68.0" y1="214.0" x2="51.0" y2="271.0" stroke-width="0.5"/>
    <line stroke="black" x1="51.0" y1="271.0" x2="46.0" y2="362.0" stroke-width="0.5"/>
    <line stroke="black" x1="51.0" y1="271.0" x2="312.0" y2="322.0" stroke-width="0.5"/>
    <line stroke="black" x1="46.0" y1="362.0" x2="20.0" y2="445.0" stroke-width="0.5"/>
    <line stroke="black" x1="46.0" y1="362.0" x2="70.0" y2="448.0" stroke-width="0.5"/>
    <line stroke="black" x1="70.0" y1="448.0" x2="108.0" y2="416.0" stroke-width="0.5"/>
    <line stroke="black" x1="20.0" y1="445.0" x2="56.0" y2="595.0" stroke-width="0.5"/>
    <line stroke="black" x1="364.0" y1="256.0" x2="68.0" y2="214.0" stroke-width="0.5"/>
    <line stroke="black" x1="364.0" y1="166.0" x2="122.0" y2="133.0" stroke-width="0.5"/>
    <line stroke="black" x1="364.0" y1="121.0" x2="139.0" y2="100.0" stroke-width="0.5"/>
    <line stroke="black" x1="364.0" y1="76.0" x2="139.0" y2="100.0" stroke-width="0.5"/>
   </g>
  </g>
 </svg>
</svg>
