<?xml version="1.0" encoding="UTF-8"?>
<svg height="800.0" width="700.0" xmlns="http://www.w3.org/2000/svg">
 <svg>
  <g>
   <g>
    <g>
     <circle stroke="black" stroke-width="0.5" fill="#aaffff" cx="36.0" cy="947.0" r="1.0"/>
     <text stroke="none" x="36.0" y="947.0" font-size="20.0" font-family="helvetica"/>
    </g>
    <g>
     <circle stroke="black" stroke-width="0.5" fill="#aaffff" cx="106.0" cy="755.0" r="1.0"/>
     <text stroke="none" x="106.0" y="755.0" font-size="10.0" font-family="helvetica">NT1.2</text>
    </g>
    <g>
     <circle stroke="black" stroke-width="0.5" fill="#aaffff" cx="232.0" cy="896.0" r="1.0"/>
     <text stroke="none" x="232.0" y="896.0" font-size="10.0" font-family="helvetica">NT1.3</text>
    </g>
    <g>
     <circle stroke="black" stroke-width="0.5" fill="#aaffff" cx="246.0" cy="613.0" r="1.0"/>
     <text stroke="none" x="246.0" y="613.0" font-size="20.0" font-family="helvetica">49</text>
    </g>
    <g>
     <circle stroke="black" stroke-width="0.5" fill="#aaffff" cx="299.0" cy="379.0" r="1.0"/>
     <text stroke="none" x="299.0" y="379.0" font-size="20.0" font-family="helvetica">100</text>
    </g>
    <g>
     <circle stroke="black" stroke-width="0.5" fill="#aaffff" cx="318.0" cy="488.0" r="1.0"/>
     <text stroke="none" x="318.0" y="488.0" font-size="20.0" font-family="helvetica">42</text>
    </g>
    <g>
     <circle stroke="black" stroke-width="0.5" fill="#aaffff" cx="331.0" cy="432.0" r="1.0"/>
     <text stroke="none" x="331.0" y="432.0" font-size="10.0" font-family="helvetica">NT1.7</text>
    </g>
    <g>
     <circle stroke="black" stroke-width="0.5" fill="#aaffff" cx="346.0" cy="272.0" r="1.0"/>
     <text stroke="none" x="346.0" y="272.0" font-size="10.0" font-family="helvetica">NT1.8</text>
    </g>
    <g>
     <circle stroke="black" stroke-width="0.5" fill="#aaffff" cx="368.0" cy="544.0" r="1.0"/>
     <text stroke="none" x="368.0" y="544.0" font-size="20.0" font-family="helvetica">521</text>
    </g>
    <g>
     <circle stroke="black" stroke-width="0.5" fill="#aaffff" cx="370.0" cy="186.0" r="1.0"/>
     <text stroke="none" x="370.0" y="186.0" font-size="20.0" font-family="helvetica">41</text>
    </g>
    <g>
     <circle stroke="black" stroke-width="0.5" fill="#aaffff" cx="374.0" cy="358.0" r="1.0"/>
     <text stroke="none" x="374.0" y="358.0" font-size="20.0" font-family="helvetica">99</text>
    </g>
    <g>
     <circle stroke="black" stroke-width="0.5" fill="#aaffff" cx="388.0" cy="911.0" r="1.0"/>
     <text stroke="none" x="388.0" y="911.0" font-size="20.0" font-family="helvetica">Paucimonas lemoignei LMG 22O7T (X92555)</text>
    </g>
    <g>
     <circle stroke="black" stroke-width="0.5" fill="#aaffff" cx="388.0" cy="878.0" r="1.0"/>
     <text stroke="none" x="388.0" y="878.0" font-size="20.0" font-family="helvetica">Masillia timonae TimoneT (U54470)</text>
    </g>
    <g>
     <circle stroke="black" stroke-width="0.5" fill="#aaffff" cx="403.0" cy="846.0" r="1.0"/>
     <text stroke="none" x="403.0" y="846.0" font-size="20.0" font-family="helvetica">Zoogloea ramigera ATCC 19324T (D14257)</text>
    </g>
    <g>
     <circle stroke="black" stroke-width="0.5" fill="#aaffff" cx="415.0" cy="606.0" r="1.0"/>
     <text stroke="none" x="415.0" y="606.0" font-size="10.0" font-family="helvetica">NT1.15</text>
    </g>
    <g>
     <circle stroke="black" stroke-width="0.5" fill="#aaffff" cx="418.0" cy="606.0" r="1.0"/>
     <text stroke="none" x="418.0" y="606.0" font-size="10.0" font-family="helvetica">NT1.16</text>
    </g>
    <g>
     <circle stroke="black" stroke-width="0.5" fill="#aaffff" cx="423.0" cy="130.0" r="1.0"/>
     <text stroke="none" x="423.0" y="130.0" font-size="10.0" font-family="helvetica">NT1.17</text>
    </g>
    <g>
     <circle stroke="black" stroke-width="0.5" fill="#aaffff" cx="424.0" cy="482.0" r="1.0"/>
     <text stroke="none" x="424.0" y="482.0" font-size="10.0" font-family="helvetica">NT1.18</text>
    </g>
    <g>
     <circle stroke="black" stroke-width="0.5" fill="#aaffff" cx="424.0" cy="242.0" r="1.0"/>
     <text stroke="none" x="424.0" y="242.0" font-size="20.0" font-family="helvetica">100</text>
    </g>
    <g>
     <circle stroke="black" stroke-width="0.5" fill="#aaffff" cx="427.0" cy="165.0" r="1.0"/>
     <text stroke="none" x="427.0" y="165.0" font-size="10.0" font-family="helvetica">NT1.20</text>
    </g>
    <g>
     <circle stroke="black" stroke-width="0.5" fill="#aaffff" cx="429.0" cy="92.0" r="1.0"/>
     <text stroke="none" x="429.0" y="92.0" font-size="20.0" font-family="helvetica">4L</text>
    </g>
    <g>
     <circle stroke="black" stroke-width="0.5" fill="#aaffff" cx="438.0" cy="414.0" r="1.0"/>
     <text stroke="none" x="438.0" y="414.0" font-size="20.0" font-family="helvetica">Alcaligenes defragrans LMG 18538T (AJOO5447)</text>
    </g>
    <g>
     <circle stroke="black" stroke-width="0.5" fill="#aaffff" cx="439.0" cy="683.0" r="1.0"/>
     <text stroke="none" x="439.0" y="683.0" font-size="20.0" font-family="helvetica">93</text>
    </g>
    <g>
     <circle stroke="black" stroke-width="0.5" fill="#aaffff" cx="443.0" cy="450.0" r="1.0"/>
     <text stroke="none" x="443.0" y="450.0" font-size="20.0" font-family="helvetica">Alcaligenes faecalis LMG 1229T (D88008)</text>
    </g>
    <g>
     <circle stroke="black" stroke-width="0.5" fill="#aaffff" cx="459.0" cy="50.0" r="1.0"/>
     <text stroke="none" x="459.0" y="50.0" font-size="20.0" font-family="helvetica">Advenella incenata R-1 6599 (AY569458)</text>
    </g>
    <g>
     <circle stroke="black" stroke-width="0.5" fill="#aaffff" cx="459.0" cy="150.0" r="1.0"/>
     <text stroke="none" x="459.0" y="150.0" font-size="10.0" font-family="helvetica">NT1.26</text>
    </g>
    <g>
     <circle stroke="black" stroke-width="0.5" fill="#aaffff" cx="459.0" cy="68.0" r="1.0"/>
     <text stroke="none" x="459.0" y="68.0" font-size="20.0" font-family="helvetica">4L</text>
    </g>
    <g>
     <circle stroke="black" stroke-width="0.5" fill="#aaffff" cx="460.0" cy="751.0" r="1.0"/>
     <text stroke="none" x="460.0" y="751.0" font-size="10.0" font-family="helvetica">NT1.28</text>
    </g>
    <g>
     <circle stroke="black" stroke-width="0.5" fill="#aaffff" cx="462.0" cy="118.0" r="1.0"/>
     <text stroke="none" x="462.0" y="118.0" font-size="10.0" font-family="helvetica">NT1.29</text>
    </g>
    <g>
     <circle stroke="black" stroke-width="0.5" fill="#aaffff" cx="462.0" cy="183.0" r="1.0"/>
     <text stroke="none" x="462.0" y="183.0" font-size="10.0" font-family="helvetica">NT1.30</text>
    </g>
    <g>
     <circle stroke="black" stroke-width="0.5" fill="#aaffff" cx="464.0" cy="530.0" r="1.0"/>
     <text stroke="none" x="464.0" y="530.0" font-size="10.0" font-family="helvetica">NT1.31</text>
    </g>
    <g>
     <circle stroke="black" stroke-width="0.5" fill="#aaffff" cx="465.0" cy="619.0" r="1.0"/>
     <text stroke="none" x="465.0" y="619.0" font-size="10.0" font-family="helvetica">NT1.32</text>
    </g>
    <g>
     <circle stroke="black" stroke-width="0.5" fill="#aaffff" cx="466.0" cy="787.0" r="1.0"/>
     <text stroke="none" x="466.0" y="787.0" font-size="10.0" font-family="helvetica">NT1.33</text>
    </g>
    <g>
     <circle stroke="black" stroke-width="0.5" fill="#aaffff" cx="472.0" cy="82.0" r="1.0"/>
     <text stroke="none" x="472.0" y="82.0" font-size="20.0" font-family="helvetica">Advenella incenata LMG 2225OT (AY569457)</text>
    </g>
    <g>
     <circle stroke="black" stroke-width="0.5" fill="#aaffff" cx="474.0" cy="763.0" r="1.0"/>
     <text stroke="none" x="474.0" y="763.0" font-size="10.0" font-family="helvetica">NT1.35</text>
    </g>
    <g>
     <circle stroke="black" stroke-width="0.5" fill="#aaffff" cx="478.0" cy="657.0" r="1.0"/>
     <text stroke="none" x="478.0" y="657.0" font-size="20.0" font-family="helvetica">93</text>
    </g>
    <g>
     <circle stroke="black" stroke-width="0.5" fill="#aaffff" cx="482.0" cy="515.0" r="1.0"/>
     <text stroke="none" x="482.0" y="515.0" font-size="20.0" font-family="helvetica">Kerstersia gyiorum LMG 59O6T (AY131213)</text>
    </g>
    <g>
     <circle stroke="black" stroke-width="0.5" fill="#aaffff" cx="483.0" cy="580.0" r="1.0"/>
     <text stroke="none" x="483.0" y="580.0" font-size="20.0" font-family="helvetica"> Achromobacter piechaudii ATCC 43552T (AB010841)</text>
    </g>
    <g>
     <circle stroke="black" stroke-width="0.5" fill="#aaffff" cx="485.0" cy="547.0" r="1.0"/>
     <text stroke="none" x="485.0" y="547.0" font-size="10.0" font-family="helvetica">NT1.39</text>
    </g>
    <g>
     <circle stroke="black" stroke-width="0.5" fill="#aaffff" cx="489.0" cy="745.0" r="1.0"/>
     <text stroke="none" x="489.0" y="745.0" font-size="10.0" font-family="helvetica">NT1.40</text>
    </g>
    <g>
     <circle stroke="black" stroke-width="0.5" fill="#aaffff" cx="491.0" cy="681.0" r="1.0"/>
     <text stroke="none" x="491.0" y="681.0" font-size="10.0" font-family="helvetica">NT1.41</text>
    </g>
    <g>
     <circle stroke="black" stroke-width="0.5" fill="#aaffff" cx="491.0" cy="781.0" r="1.0"/>
     <text stroke="none" x="491.0" y="781.0" font-size="10.0" font-family="helvetica">NT1.42</text>
    </g>
    <g>
     <circle stroke="black" stroke-width="0.5" fill="#aaffff" cx="491.0" cy="630.0" r="1.0"/>
     <text stroke="none" x="491.0" y="630.0" font-size="10.0" font-family="helvetica">NT1.43</text>
    </g>
    <g>
     <circle stroke="black" stroke-width="0.5" fill="#aaffff" cx="495.0" cy="713.0" r="1.0"/>
     <text stroke="none" x="495.0" y="713.0" font-size="10.0" font-family="helvetica">NT1.44</text>
    </g>
    <g>
     <circle stroke="black" stroke-width="0.5" fill="#aaffff" cx="498.0" cy="216.0" r="1.0"/>
     <text stroke="none" x="498.0" y="216.0" font-size="10.0" font-family="helvetica">NT1.45</text>
    </g>
    <g>
     <circle stroke="black" stroke-width="0.5" fill="#aaffff" cx="498.0" cy="266.0" r="1.0"/>
     <text stroke="none" x="498.0" y="266.0" font-size="10.0" font-family="helvetica">NT1.46</text>
    </g>
    <g>
     <circle stroke="black" stroke-width="0.5" fill="#aaffff" cx="501.0" cy="266.0" r="1.0"/>
     <text stroke="none" x="501.0" y="266.0" font-size="10.0" font-family="helvetica">NT1.47</text>
    </g>
    <g>
     <circle stroke="black" stroke-width="0.5" fill="#aaffff" cx="501.0" cy="814.0" r="1.0"/>
     <text stroke="none" x="501.0" y="814.0" font-size="10.0" font-family="helvetica">NT1.48</text>
    </g>
    <g>
     <circle stroke="black" stroke-width="0.5" fill="#aaffff" cx="503.0" cy="612.0" r="1.0"/>
     <text stroke="none" x="503.0" y="612.0" font-size="10.0" font-family="helvetica">NT1.49</text>
    </g>
    <g>
     <circle stroke="black" stroke-width="0.5" fill="#aaffff" cx="503.0" cy="332.0" r="1.0"/>
     <text stroke="none" x="503.0" y="332.0" font-size="10.0" font-family="helvetica">NT1.50</text>
    </g>
    <g>
     <circle stroke="black" stroke-width="0.5" fill="#aaffff" cx="504.0" cy="648.0" r="1.0"/>
     <text stroke="none" x="504.0" y="648.0" font-size="20.0" font-family="helvetica">Achromobacter ruhlandii LMG 1866T (ABO10840)</text>
    </g>
    <g>
     <circle stroke="black" stroke-width="0.5" fill="#aaffff" cx="506.0" cy="382.0" r="1.0"/>
     <text stroke="none" x="506.0" y="382.0" font-size="20.0" font-family="helvetica">Brackiella oedipodis LMG 19451T (AJ277742)</text>
    </g>
    <g>
     <circle stroke="black" stroke-width="0.5" fill="#aaffff" cx="545.0" cy="248.0" r="1.0"/>
     <text stroke="none" x="545.0" y="248.0" font-size="10.0" font-family="helvetica">NT1.53</text>
    </g>
    <g>
     <circle stroke="black" stroke-width="0.5" fill="#aaffff" cx="548.0" cy="284.0" r="1.0"/>
     <text stroke="none" x="548.0" y="284.0" font-size="10.0" font-family="helvetica">NT1.54</text>
    </g>
    <g>
     <circle stroke="black" stroke-width="0.5" fill="#aaffff" cx="565.0" cy="316.0" r="1.0"/>
     <text stroke="none" x="565.0" y="316.0" font-size="10.0" font-family="helvetica">NT1.55</text>
    </g>
    <g>
     <circle stroke="black" stroke-width="0.5" fill="#aaffff" cx="565.0" cy="349.0" r="1.0"/>
     <text stroke="none" x="565.0" y="349.0" font-size="10.0" font-family="helvetica">NT1.56</text>
    </g>
    <line stroke="black" x1="459.0" y1="50.0" x2="459.0" y2="68.0" stroke-width="0.5"/>
    <line stroke="black" x1="472.0" y1="82.0" x2="459.0" y2="68.0" stroke-width="0.5"/>
    <line stroke="black" x1="506.0" y1="382.0" x2="374.0" y2="358.0" stroke-width="0.5"/>
    <line stroke="black" x1="438.0" y1="414.0" x2="331.0" y2="432.0" stroke-width="0.5"/>
    <line stroke="black" x1="443.0" y1="450.0" x2="331.0" y2="432.0" stroke-width="0.5"/>
    <line stroke="black" x1="482.0" y1="515.0" x2="464.0" y2="530.0" stroke-width="0.5"/>
    <line stroke="black" x1="483.0" y1="580.0" x2="465.0" y2="619.0" stroke-width="0.5"/>
    <line stroke="black" x1="504.0" y1="648.0" x2="491.0" y2="630.0" stroke-width="0.5"/>
    <line stroke="black" x1="403.0" y1="846.0" x2="246.0" y2="613.0" stroke-width="0.5"/>
    <line stroke="black" x1="36.0" y1="947.0" x2="106.0" y2="755.0" stroke-width="0.5"/>
    <line stroke="black" x1="388.0" y1="911.0" x2="232.0" y2="896.0" stroke-width="0.5"/>
    <line stroke="black" x1="388.0" y1="878.0" x2="232.0" y2="896.0" stroke-width="0.5"/>
    <line stroke="black" x1="459.0" y1="68.0" x2="429.0" y2="92.0" stroke-width="0.5"/>
    <line stroke="black" x1="346.0" y1="272.0" x2="299.0" y2="379.0" stroke-width="0.5"/>
    <line stroke="black" x1="299.0" y1="379.0" x2="246.0" y2="613.0" stroke-width="0.5"/>
    <line stroke="black" x1="299.0" y1="379.0" x2="318.0" y2="488.0" stroke-width="0.5"/>
    <line stroke="black" x1="368.0" y1="544.0" x2="415.0" y2="606.0" stroke-width="0.5"/>
    <line stroke="black" x1="246.0" y1="613.0" x2="106.0" y2="755.0" stroke-width="0.5"/>
    <line stroke="black" x1="439.0" y1="683.0" x2="465.0" y2="619.0" stroke-width="0.5"/>
    <line stroke="black" x1="106.0" y1="755.0" x2="232.0" y2="896.0" stroke-width="0.5"/>
    <line stroke="black" x1="318.0" y1="488.0" x2="331.0" y2="432.0" stroke-width="0.5"/>
   </g>
  </g>
 </svg>
</svg>
