<?xml version="1.0" encoding="UTF-8"?>
<svg height="800.0" width="700.0" xmlns="http://www.w3.org/2000/svg">
 <svg>
  <g>
   <g>
    <g>
     <circle stroke="black" stroke-width="0.5" fill="#aaffff" cx="62.0" cy="534.0" r="1.0"/>
     <text stroke="none" x="62.0" y="534.0" font-size="10.0" font-family="helvetica">NT1.1</text>
    </g>
    <g>
     <circle stroke="black" stroke-width="0.5" fill="#aaffff" cx="66.0" cy="431.0" r="1.0"/>
     <text stroke="none" x="66.0" y="431.0" font-size="10.0" font-family="helvetica">NT1.2</text>
    </g>
    <g>
     <circle stroke="black" stroke-width="0.5" fill="#aaffff" cx="76.0" cy="813.0" r="1.0"/>
     <text stroke="none" x="76.0" y="813.0" font-size="10.0" font-family="helvetica">NT1.3</text>
    </g>
    <g>
     <circle stroke="black" stroke-width="0.5" fill="#aaffff" cx="86.0" cy="154.0" r="1.0"/>
     <text stroke="none" x="86.0" y="154.0" font-size="10.0" font-family="helvetica">NT1.4</text>
    </g>
    <g>
     <circle stroke="black" stroke-width="0.5" fill="#aaffff" cx="98.0" cy="353.0" r="1.0"/>
     <text stroke="none" x="98.0" y="353.0" font-size="10.0" font-family="helvetica">NT1.5</text>
    </g>
    <g>
     <circle stroke="black" stroke-width="0.5" fill="#aaffff" cx="104.0" cy="187.0" r="1.0"/>
     <text stroke="none" x="104.0" y="187.0" font-size="20.0" font-family="helvetica"/>
    </g>
    <g>
     <circle stroke="black" stroke-width="0.5" fill="#aaffff" cx="106.0" cy="186.0" r="1.0"/>
     <text stroke="none" x="106.0" y="186.0" font-size="10.0" font-family="helvetica">NT1.7</text>
    </g>
    <g>
     <circle stroke="black" stroke-width="0.5" fill="#aaffff" cx="112.0" cy="192.0" r="1.0"/>
     <text stroke="none" x="112.0" y="192.0" font-size="20.0" font-family="helvetica"/>
    </g>
    <g>
     <circle stroke="black" stroke-width="0.5" fill="#aaffff" cx="112.0" cy="175.0" r="1.0"/>
     <text stroke="none" x="112.0" y="175.0" font-size="20.0" font-family="helvetica"/>
    </g>
    <g>
     <circle stroke="black" stroke-width="0.5" fill="#aaffff" cx="116.0" cy="189.0" r="1.0"/>
     <text stroke="none" x="116.0" y="189.0" font-size="10.0" font-family="helvetica">NT1.10</text>
    </g>
    <g>
     <circle stroke="black" stroke-width="0.5" fill="#aaffff" cx="136.0" cy="246.0" r="1.0"/>
     <text stroke="none" x="136.0" y="246.0" font-size="10.0" font-family="helvetica">NT1.11</text>
    </g>
    <g>
     <circle stroke="black" stroke-width="0.5" fill="#aaffff" cx="139.0" cy="773.0" r="1.0"/>
     <text stroke="none" x="139.0" y="773.0" font-size="10.0" font-family="helvetica">NT1.12</text>
    </g>
    <g>
     <circle stroke="black" stroke-width="0.5" fill="#aaffff" cx="143.0" cy="857.0" r="1.0"/>
     <text stroke="none" x="143.0" y="857.0" font-size="10.0" font-family="helvetica">NT1.13</text>
    </g>
    <g>
     <circle stroke="black" stroke-width="0.5" fill="#aaffff" cx="145.0" cy="305.0" r="1.0"/>
     <text stroke="none" x="145.0" y="305.0" font-size="10.0" font-family="helvetica">NT1.14</text>
    </g>
    <g>
     <circle stroke="black" stroke-width="0.5" fill="#aaffff" cx="155.0" cy="82.0" r="1.0"/>
     <text stroke="none" x="155.0" y="82.0" font-size="10.0" font-family="helvetica">NT1.15</text>
    </g>
    <g>
     <circle stroke="black" stroke-width="0.5" fill="#aaffff" cx="171.0" cy="587.0" r="1.0"/>
     <text stroke="none" x="171.0" y="587.0" font-size="20.0" font-family="helvetica"/>
    </g>
    <g>
     <circle stroke="black" stroke-width="0.5" fill="#aaffff" cx="171.0" cy="640.0" r="1.0"/>
     <text stroke="none" x="171.0" y="640.0" font-size="10.0" font-family="helvetica">NT1.17</text>
    </g>
    <g>
     <circle stroke="black" stroke-width="0.5" fill="#aaffff" cx="174.0" cy="586.0" r="1.0"/>
     <text stroke="none" x="174.0" y="586.0" font-size="10.0" font-family="helvetica">NT1.18</text>
    </g>
    <g>
     <circle stroke="black" stroke-width="0.5" fill="#aaffff" cx="180.0" cy="593.0" r="1.0"/>
     <text stroke="none" x="180.0" y="593.0" font-size="20.0" font-family="helvetica"/>
    </g>
    <g>
     <circle stroke="black" stroke-width="0.5" fill="#aaffff" cx="180.0" cy="575.0" r="1.0"/>
     <text stroke="none" x="180.0" y="575.0" font-size="20.0" font-family="helvetica"/>
    </g>
    <g>
     <circle stroke="black" stroke-width="0.5" fill="#aaffff" cx="183.0" cy="685.0" r="1.0"/>
     <text stroke="none" x="183.0" y="685.0" font-size="10.0" font-family="helvetica">NT1.21</text>
    </g>
    <g>
     <circle stroke="black" stroke-width="0.5" fill="#aaffff" cx="184.0" cy="590.0" r="1.0"/>
     <text stroke="none" x="184.0" y="590.0" font-size="10.0" font-family="helvetica">NT1.22</text>
    </g>
    <g>
     <circle stroke="black" stroke-width="0.5" fill="#aaffff" cx="191.0" cy="355.0" r="1.0"/>
     <text stroke="none" x="191.0" y="355.0" font-size="10.0" font-family="helvetica">NT1.23</text>
    </g>
    <g>
     <circle stroke="black" stroke-width="0.5" fill="#aaffff" cx="239.0" cy="394.0" r="1.0"/>
     <text stroke="none" x="239.0" y="394.0" font-size="10.0" font-family="helvetica">NT1.24</text>
    </g>
    <g>
     <circle stroke="black" stroke-width="0.5" fill="#aaffff" cx="247.0" cy="521.0" r="1.0"/>
     <text stroke="none" x="247.0" y="521.0" font-size="10.0" font-family="helvetica">NT1.25</text>
    </g>
    <g>
     <circle stroke="black" stroke-width="0.5" fill="#aaffff" cx="266.0" cy="621.0" r="1.0"/>
     <text stroke="none" x="266.0" y="621.0" font-size="20.0" font-family="helvetica">Gillisia mitskevichiae KCTC 122617 (AY576655)</text>
    </g>
    <g>
     <circle stroke="black" stroke-width="0.5" fill="#aaffff" cx="269.0" cy="706.0" r="1.0"/>
     <text stroke="none" x="269.0" y="706.0" font-size="20.0" font-family="helvetica"/>
    </g>
    <g>
     <circle stroke="black" stroke-width="0.5" fill="#aaffff" cx="276.0" cy="418.0" r="1.0"/>
     <text stroke="none" x="276.0" y="418.0" font-size="10.0" font-family="helvetica">NT1.28</text>
    </g>
    <g>
     <circle stroke="black" stroke-width="0.5" fill="#aaffff" cx="281.0" cy="102.0" r="1.0"/>
     <text stroke="none" x="281.0" y="102.0" font-size="20.0" font-family="helvetica">Salegentibacter catena HY17 (DQ640642)</text>
    </g>
    <g>
     <circle stroke="black" stroke-width="0.5" fill="#aaffff" cx="282.0" cy="577.0" r="1.0"/>
     <text stroke="none" x="282.0" y="577.0" font-size="20.0" font-family="helvetica">Gillisia Iimnaea DSM 157497 (AJ440991)</text>
    </g>
    <g>
     <circle stroke="black" stroke-width="0.5" fill="#aaffff" cx="293.0" cy="59.0" r="1.0"/>
     <text stroke="none" x="293.0" y="59.0" font-size="20.0" font-family="helvetica">Strain BH2067(EF520007)</text>
    </g>
    <g>
     <circle stroke="black" stroke-width="0.5" fill="#aaffff" cx="305.0" cy="447.0" r="1.0"/>
     <text stroke="none" x="305.0" y="447.0" font-size="20.0" font-family="helvetica">Salegentibaoter salegens ACAM 487 (M92279)</text>
    </g>
    <g>
     <circle stroke="black" stroke-width="0.5" fill="#aaffff" cx="318.0" cy="879.0" r="1.0"/>
     <text stroke="none" x="318.0" y="879.0" font-size="20.0" font-family="helvetica">Stanierella Iatercula ATCC 231777 (M58769)</text>
    </g>
    <g>
     <circle stroke="black" stroke-width="0.5" fill="#aaffff" cx="323.0" cy="318.0" r="1.0"/>
     <text stroke="none" x="323.0" y="318.0" font-size="20.0" font-family="helvetica">Salegentibacter flavus Fg697 (AY682200)</text>
    </g>
    <g>
     <circle stroke="black" stroke-width="0.5" fill="#aaffff" cx="328.0" cy="361.0" r="1.0"/>
     <text stroke="none" x="328.0" y="361.0" font-size="20.0" font-family="helvetica">Salegentibacter mishustinae KMM 6049T (AY576653)</text>
    </g>
    <g>
     <circle stroke="black" stroke-width="0.5" fill="#aaffff" cx="329.0" cy="145.0" r="1.0"/>
     <text stroke="none" x="329.0" y="145.0" font-size="20.0" font-family="helvetica">Mesonia algae KCTC 120897 (AF536383)</text>
    </g>
    <g>
     <circle stroke="black" stroke-width="0.5" fill="#aaffff" cx="334.0" cy="404.0" r="1.0"/>
     <text stroke="none" x="334.0" y="404.0" font-size="20.0" font-family="helvetica">Salegentibacter agarivorans KMM 70197 (DQ191176)</text>
    </g>
    <g>
     <circle stroke="black" stroke-width="0.5" fill="#aaffff" cx="337.0" cy="254.0" r="1.0"/>
     <text stroke="none" x="337.0" y="254.0" font-size="10.0" font-family="helvetica">NT1.38</text>
    </g>
    <g>
     <circle stroke="black" stroke-width="0.5" fill="#aaffff" cx="368.0" cy="793.0" r="1.0"/>
     <text stroke="none" x="368.0" y="793.0" font-size="20.0" font-family="helvetica">Gelidibacter algens ACAM 5367 (U62914)</text>
    </g>
    <g>
     <circle stroke="black" stroke-width="0.5" fill="#aaffff" cx="375.0" cy="534.0" r="1.0"/>
     <text stroke="none" x="375.0" y="534.0" font-size="20.0" font-family="helvetica">Psychroflexus tropicus LA17 (AF513434)</text>
    </g>
    <g>
     <circle stroke="black" stroke-width="0.5" fill="#aaffff" cx="380.0" cy="750.0" r="1.0"/>
     <text stroke="none" x="380.0" y="750.0" font-size="20.0" font-family="helvetica">Psychroserpens burtonensis ACAM 1887 (U62913)</text>
    </g>
    <g>
     <circle stroke="black" stroke-width="0.5" fill="#aaffff" cx="380.0" cy="275.0" r="1.0"/>
     <text stroke="none" x="380.0" y="275.0" font-size="20.0" font-family="helvetica">Gramella porfivictoriae NRRL 411377 (DQ002871)</text>
    </g>
    <g>
     <circle stroke="black" stroke-width="0.5" fill="#aaffff" cx="384.0" cy="663.0" r="1.0"/>
     <text stroke="none" x="384.0" y="663.0" font-size="20.0" font-family="helvetica">Gillisia sandarakina IC1487 (AY694007)</text>
    </g>
    <g>
     <circle stroke="black" stroke-width="0.5" fill="#aaffff" cx="392.0" cy="189.0" r="1.0"/>
     <text stroke="none" x="392.0" y="189.0" font-size="20.0" font-family="helvetica">Marixanthomonas ophiurae NRIC 06847 (AB261012)</text>
    </g>
    <g>
     <circle stroke="black" stroke-width="0.5" fill="#aaffff" cx="392.0" cy="231.0" r="1.0"/>
     <text stroke="none" x="392.0" y="231.0" font-size="20.0" font-family="helvetica">Gramella echinicola LMG 225857 (AY608409)</text>
    </g>
    <g>
     <circle stroke="black" stroke-width="0.5" fill="#aaffff" cx="394.0" cy="836.0" r="1.0"/>
     <text stroke="none" x="394.0" y="836.0" font-size="20.0" font-family="helvetica">Kordia algicida KCTC 8814P7 (AY195836)</text>
    </g>
    <g>
     <circle stroke="black" stroke-width="0.5" fill="#aaffff" cx="403.0" cy="16.0" r="1.0"/>
     <text stroke="none" x="403.0" y="16.0" font-size="20.0" font-family="helvetica">Flavobacterium denitriricans ED57 (AJ318907)</text>
    </g>
    <g>
     <circle stroke="black" stroke-width="0.5" fill="#aaffff" cx="403.0" cy="490.0" r="1.0"/>
     <text stroke="none" x="403.0" y="490.0" font-size="20.0" font-family="helvetica">Psyohrof7exus (orquis ACAM 6237 (U85881)</text>
    </g>
    <line stroke="black" x1="380.0" y1="750.0" x2="139.0" y2="773.0" stroke-width="0.5"/>
    <line stroke="black" x1="180.0" y1="593.0" x2="184.0" y2="590.0" stroke-width="0.5"/>
    <line stroke="black" x1="394.0" y1="836.0" x2="143.0" y2="857.0" stroke-width="0.5"/>
    <line stroke="black" x1="171.0" y1="587.0" x2="174.0" y2="586.0" stroke-width="0.5"/>
    <line stroke="black" x1="180.0" y1="575.0" x2="184.0" y2="590.0" stroke-width="0.5"/>
    <line stroke="black" x1="282.0" y1="577.0" x2="184.0" y2="590.0" stroke-width="0.5"/>
    <line stroke="black" x1="112.0" y1="192.0" x2="116.0" y2="189.0" stroke-width="0.5"/>
    <line stroke="black" x1="104.0" y1="187.0" x2="106.0" y2="186.0" stroke-width="0.5"/>
    <line stroke="black" x1="112.0" y1="175.0" x2="116.0" y2="189.0" stroke-width="0.5"/>
    <line stroke="black" x1="293.0" y1="59.0" x2="155.0" y2="82.0" stroke-width="0.5"/>
    <line stroke="black" x1="329.0" y1="145.0" x2="116.0" y2="189.0" stroke-width="0.5"/>
    <line stroke="black" x1="403.0" y1="490.0" x2="247.0" y2="521.0" stroke-width="0.5"/>
    <line stroke="black" x1="392.0" y1="189.0" x2="136.0" y2="246.0" stroke-width="0.5"/>
    <line stroke="black" x1="328.0" y1="361.0" x2="239.0" y2="394.0" stroke-width="0.5"/>
    <line stroke="black" x1="62.0" y1="534.0" x2="76.0" y2="813.0" stroke-width="0.5"/>
    <line stroke="black" x1="62.0" y1="534.0" x2="66.0" y2="431.0" stroke-width="0.5"/>
    <line stroke="black" x1="66.0" y1="431.0" x2="171.0" y2="640.0" stroke-width="0.5"/>
    <line stroke="black" x1="66.0" y1="431.0" x2="86.0" y2="154.0" stroke-width="0.5"/>
    <line stroke="black" x1="76.0" y1="813.0" x2="143.0" y2="857.0" stroke-width="0.5"/>
    <line stroke="black" x1="76.0" y1="813.0" x2="139.0" y2="773.0" stroke-width="0.5"/>
    <line stroke="black" x1="86.0" y1="154.0" x2="98.0" y2="353.0" stroke-width="0.5"/>
    <line stroke="black" x1="86.0" y1="154.0" x2="155.0" y2="82.0" stroke-width="0.5"/>
    <line stroke="black" x1="171.0" y1="640.0" x2="183.0" y2="685.0" stroke-width="0.5"/>
    <line stroke="black" x1="171.0" y1="640.0" x2="184.0" y2="590.0" stroke-width="0.5"/>
    <line stroke="black" x1="184.0" y1="590.0" x2="174.0" y2="586.0" stroke-width="0.5"/>
    <line stroke="black" x1="184.0" y1="590.0" x2="174.0" y2="586.0" stroke-width="0.5"/>
    <line stroke="black" x1="183.0" y1="685.0" x2="269.0" y2="706.0" stroke-width="0.5"/>
    <line stroke="black" x1="98.0" y1="353.0" x2="247.0" y2="521.0" stroke-width="0.5"/>
    <line stroke="black" x1="98.0" y1="353.0" x2="116.0" y2="189.0" stroke-width="0.5"/>
    <line stroke="black" x1="116.0" y1="189.0" x2="136.0" y2="246.0" stroke-width="0.5"/>
    <line stroke="black" x1="116.0" y1="189.0" x2="106.0" y2="186.0" stroke-width="0.5"/>
    <line stroke="black" x1="116.0" y1="189.0" x2="106.0" y2="186.0" stroke-width="0.5"/>
    <line stroke="black" x1="136.0" y1="246.0" x2="145.0" y2="305.0" stroke-width="0.5"/>
    <line stroke="black" x1="145.0" y1="305.0" x2="337.0" y2="254.0" stroke-width="0.5"/>
    <line stroke="black" x1="145.0" y1="305.0" x2="191.0" y2="355.0" stroke-width="0.5"/>
    <line stroke="black" x1="191.0" y1="355.0" x2="239.0" y2="394.0" stroke-width="0.5"/>
    <line stroke="black" x1="239.0" y1="394.0" x2="276.0" y2="418.0" stroke-width="0.5"/>
    <line stroke="black" x1="276.0" y1="418.0" x2="305.0" y2="447.0" stroke-width="0.5"/>
    <line stroke="black" x1="281.0" y1="102.0" x2="155.0" y2="82.0" stroke-width="0.5"/>
    <line stroke="black" x1="318.0" y1="879.0" x2="143.0" y2="857.0" stroke-width="0.5"/>
    <line stroke="black" x1="403.0" y1="16.0" x2="62.0" y2="534.0" stroke-width="0.5"/>
    <line stroke="black" x1="266.0" y1="621.0" x2="184.0" y2="590.0" stroke-width="0.5"/>
    <line stroke="black" x1="323.0" y1="318.0" x2="191.0" y2="355.0" stroke-width="0.5"/>
    <line stroke="black" x1="239.0" y1="394.0" x2="239.0" y2="394.0" stroke-width="0.5"/>
    <line stroke="black" x1="368.0" y1="793.0" x2="139.0" y2="773.0" stroke-width="0.5"/>
    <line stroke="black" x1="183.0" y1="685.0" x2="384.0" y2="663.0" stroke-width="0.5"/>
    <line stroke="black" x1="375.0" y1="534.0" x2="247.0" y2="521.0" stroke-width="0.5"/>
    <line stroke="black" x1="334.0" y1="404.0" x2="276.0" y2="418.0" stroke-width="0.5"/>
    <line stroke="black" x1="380.0" y1="275.0" x2="337.0" y2="254.0" stroke-width="0.5"/>
    <line stroke="black" x1="392.0" y1="231.0" x2="337.0" y2="254.0" stroke-width="0.5"/>
   </g>
  </g>
 </svg>
</svg>
