<?xml version="1.0" encoding="UTF-8"?>
<svg height="800.0" width="700.0" xmlns="http://www.w3.org/2000/svg">
 <svg>
  <g>
   <g>
    <g>
     <circle stroke="black" stroke-width="0.5" fill="#aaffff" cx="29.0" cy="74.0" r="1.0"/>
     <text stroke="none" x="29.0" y="74.0" font-size="20.0" font-family="helvetica">82</text>
    </g>
    <g>
     <circle stroke="black" stroke-width="0.5" fill="#aaffff" cx="33.0" cy="241.0" r="1.0"/>
     <text stroke="none" x="33.0" y="241.0" font-size="10.0" font-family="helvetica">NT1.2</text>
    </g>
    <g>
     <circle stroke="black" stroke-width="0.5" fill="#aaffff" cx="79.0" cy="202.0" r="1.0"/>
     <text stroke="none" x="79.0" y="202.0" font-size="10.0" font-family="helvetica">NT1.3</text>
    </g>
    <g>
     <circle stroke="black" stroke-width="0.5" fill="#aaffff" cx="106.0" cy="245.0" r="1.0"/>
     <text stroke="none" x="106.0" y="245.0" font-size="10.0" font-family="helvetica">NT1.4</text>
    </g>
    <g>
     <circle stroke="black" stroke-width="0.5" fill="#aaffff" cx="207.0" cy="52.0" r="1.0"/>
     <text stroke="none" x="207.0" y="52.0" font-size="20.0" font-family="helvetica">L. acidophilus ATCC 4356T (X71412)</text>
    </g>
    <g>
     <circle stroke="black" stroke-width="0.5" fill="#aaffff" cx="240.0" cy="96.0" r="1.0"/>
     <text stroke="none" x="240.0" y="96.0" font-size="20.0" font-family="helvetica">L. helveticus ATCC 15O09T (AJ388559)</text>
    </g>
    <g>
     <circle stroke="black" stroke-width="0.5" fill="#aaffff" cx="265.0" cy="160.0" r="1.0"/>
     <text stroke="none" x="265.0" y="160.0" font-size="20.0" font-family="helvetica">100</text>
    </g>
    <g>
     <circle stroke="black" stroke-width="0.5" fill="#aaffff" cx="315.0" cy="182.0" r="1.0"/>
     <text stroke="none" x="315.0" y="182.0" font-size="20.0" font-family="helvetica"> L. suntoryeus Y10 (AY641395)</text>
    </g>
    <g>
     <circle stroke="black" stroke-width="0.5" fill="#aaffff" cx="319.0" cy="310.0" r="1.0"/>
     <text stroke="none" x="319.0" y="310.0" font-size="20.0" font-family="helvetica">L. suntoryeus M4 (AY644397)</text>
    </g>
    <g>
     <circle stroke="black" stroke-width="0.5" fill="#aaffff" cx="322.0" cy="138.0" r="1.0"/>
     <text stroke="none" x="322.0" y="138.0" font-size="20.0" font-family="helvetica"> L. suntoryeus SAT (AY562189)</text>
    </g>
    <g>
     <circle stroke="black" stroke-width="0.5" fill="#aaffff" cx="365.0" cy="224.0" r="1.0"/>
     <text stroke="none" x="365.0" y="224.0" font-size="20.0" font-family="helvetica">L. crispatus LMG 12003 (AF253004)</text>
    </g>
    <g>
     <circle stroke="black" stroke-width="0.5" fill="#aaffff" cx="373.0" cy="268.0" r="1.0"/>
     <text stroke="none" x="373.0" y="268.0" font-size="20.0" font-family="helvetica">L. gallinarum DSM 1O532T (AY562190)</text>
    </g>
    <g>
     <circle stroke="black" stroke-width="0.5" fill="#aaffff" cx="412.0" cy="11.0" r="1.0"/>
     <text stroke="none" x="412.0" y="11.0" font-size="20.0" font-family="helvetica">L. brevis ATCC 8287 (z1425o)</text>
    </g>
    <line stroke="black" x1="207.0" y1="52.0" x2="29.0" y2="74.0" stroke-width="0.5"/>
    <line stroke="black" x1="240.0" y1="96.0" x2="29.0" y2="74.0" stroke-width="0.5"/>
    <line stroke="black" x1="319.0" y1="310.0" x2="33.0" y2="241.0" stroke-width="0.5"/>
    <line stroke="black" x1="315.0" y1="182.0" x2="265.0" y2="160.0" stroke-width="0.5"/>
    <line stroke="black" x1="322.0" y1="138.0" x2="265.0" y2="160.0" stroke-width="0.5"/>
    <line stroke="black" x1="29.0" y1="74.0" x2="33.0" y2="241.0" stroke-width="0.5"/>
    <line stroke="black" x1="33.0" y1="241.0" x2="79.0" y2="202.0" stroke-width="0.5"/>
    <line stroke="black" x1="79.0" y1="202.0" x2="265.0" y2="160.0" stroke-width="0.5"/>
    <line stroke="black" x1="412.0" y1="11.0" x2="29.0" y2="74.0" stroke-width="0.5"/>
    <line stroke="black" x1="79.0" y1="202.0" x2="106.0" y2="245.0" stroke-width="0.5"/>
    <line stroke="black" x1="373.0" y1="268.0" x2="106.0" y2="245.0" stroke-width="0.5"/>
    <line stroke="black" x1="365.0" y1="224.0" x2="106.0" y2="245.0" stroke-width="0.5"/>
   </g>
  </g>
 </svg>
</svg>
