<?xml version="1.0" encoding="UTF-8"?>
<svg height="800.0" width="700.0" xmlns="http://www.w3.org/2000/svg">
 <svg>
  <g>
   <g>
    <g>
     <circle stroke="black" stroke-width="0.5" fill="#aaffff" cx="3.0" cy="53.0" r="1.0"/>
     <text stroke="none" x="3.0" y="53.0" font-size="10.0" font-family="helvetica">NT1.1</text>
    </g>
    <g>
     <circle stroke="black" stroke-width="0.5" fill="#aaffff" cx="6.0" cy="11.0" r="1.0"/>
     <text stroke="none" x="6.0" y="11.0" font-size="20.0" font-family="helvetica">Melhylobacterium populi BJ001T (AY251818)</text>
    </g>
    <g>
     <circle stroke="black" stroke-width="0.5" fill="#aaffff" cx="8.0" cy="223.0" r="1.0"/>
     <text stroke="none" x="8.0" y="223.0" font-size="10.0" font-family="helvetica">NT1.3</text>
    </g>
    <g>
     <circle stroke="black" stroke-width="0.5" fill="#aaffff" cx="11.0" cy="53.0" r="1.0"/>
     <text stroke="none" x="11.0" y="53.0" font-size="20.0" font-family="helvetica"> Methylobacterium thiocyanatum DSM 114907 (U58018)</text>
    </g>
    <g>
     <circle stroke="black" stroke-width="0.5" fill="#aaffff" cx="12.0" cy="313.0" r="1.0"/>
     <text stroke="none" x="12.0" y="313.0" font-size="10.0" font-family="helvetica">NT1.5</text>
    </g>
    <g>
     <circle stroke="black" stroke-width="0.5" fill="#aaffff" cx="15.0" cy="133.0" r="1.0"/>
     <text stroke="none" x="15.0" y="133.0" font-size="10.0" font-family="helvetica">NT1.6</text>
    </g>
    <g>
     <circle stroke="black" stroke-width="0.5" fill="#aaffff" cx="20.0" cy="170.0" r="1.0"/>
     <text stroke="none" x="20.0" y="170.0" font-size="10.0" font-family="helvetica">NT1.7</text>
    </g>
    <g>
     <circle stroke="black" stroke-width="0.5" fill="#aaffff" cx="21.0" cy="360.0" r="1.0"/>
     <text stroke="none" x="21.0" y="360.0" font-size="10.0" font-family="helvetica">NT1.8</text>
    </g>
    <g>
     <circle stroke="black" stroke-width="0.5" fill="#aaffff" cx="24.0" cy="202.0" r="1.0"/>
     <text stroke="none" x="24.0" y="202.0" font-size="10.0" font-family="helvetica">NT1.9</text>
    </g>
    <g>
     <circle stroke="black" stroke-width="0.5" fill="#aaffff" cx="25.0" cy="180.0" r="1.0"/>
     <text stroke="none" x="25.0" y="180.0" font-size="20.0" font-family="helvetica">Methylobacterium extorquens ATCC 14718 (AF293375)</text>
    </g>
    <g>
     <circle stroke="black" stroke-width="0.5" fill="#aaffff" cx="27.0" cy="412.0" r="1.0"/>
     <text stroke="none" x="27.0" y="412.0" font-size="10.0" font-family="helvetica">NT1.11</text>
    </g>
    <g>
     <circle stroke="black" stroke-width="0.5" fill="#aaffff" cx="29.0" cy="95.0" r="1.0"/>
     <text stroke="none" x="29.0" y="95.0" font-size="20.0" font-family="helvetica"> Methylobacterium rhodesianum JCM 2810 (D32228)</text>
    </g>
    <g>
     <circle stroke="black" stroke-width="0.5" fill="#aaffff" cx="33.0" cy="266.0" r="1.0"/>
     <text stroke="none" x="33.0" y="266.0" font-size="10.0" font-family="helvetica">NT1.13</text>
    </g>
    <g>
     <circle stroke="black" stroke-width="0.5" fill="#aaffff" cx="36.0" cy="308.0" r="1.0"/>
     <text stroke="none" x="36.0" y="308.0" font-size="20.0" font-family="helvetica"> Methylobacterium suomiense VKM B-2238T (AYO09404)</text>
    </g>
    <g>
     <circle stroke="black" stroke-width="0.5" fill="#aaffff" cx="42.0" cy="350.0" r="1.0"/>
     <text stroke="none" x="42.0" y="350.0" font-size="20.0" font-family="helvetica"> Methylobacterium dichloromethanicum VKM B-21917 (AF227128)</text>
    </g>
    <g>
     <circle stroke="black" stroke-width="0.5" fill="#aaffff" cx="46.0" cy="137.0" r="1.0"/>
     <text stroke="none" x="46.0" y="137.0" font-size="20.0" font-family="helvetica"> Methylobacterium zatmanii JCM 2819 (D32230)</text>
    </g>
    <g>
     <circle stroke="black" stroke-width="0.5" fill="#aaffff" cx="48.0" cy="474.0" r="1.0"/>
     <text stroke="none" x="48.0" y="474.0" font-size="10.0" font-family="helvetica">NT1.17</text>
    </g>
    <g>
     <circle stroke="black" stroke-width="0.5" fill="#aaffff" cx="51.0" cy="223.0" r="1.0"/>
     <text stroke="none" x="51.0" y="223.0" font-size="20.0" font-family="helvetica"> Methylobacterium chloromethanicum VKM B-22237 (AF198624)</text>
    </g>
    <g>
     <circle stroke="black" stroke-width="0.5" fill="#aaffff" cx="71.0" cy="392.0" r="1.0"/>
     <text stroke="none" x="71.0" y="392.0" font-size="20.0" font-family="helvetica"> Methylobacterium rhodinum JCM 28117 (D32229)</text>
    </g>
    <g>
     <circle stroke="black" stroke-width="0.5" fill="#aaffff" cx="80.0" cy="558.0" r="1.0"/>
     <text stroke="none" x="80.0" y="558.0" font-size="10.0" font-family="helvetica">NT1.20</text>
    </g>
    <g>
     <circle stroke="black" stroke-width="0.5" fill="#aaffff" cx="90.0" cy="472.0" r="1.0"/>
     <text stroke="none" x="90.0" y="472.0" font-size="10.0" font-family="helvetica">NT1.21</text>
    </g>
    <g>
     <circle stroke="black" stroke-width="0.5" fill="#aaffff" cx="104.0" cy="509.0" r="1.0"/>
     <text stroke="none" x="104.0" y="509.0" font-size="10.0" font-family="helvetica">NT1.22</text>
    </g>
    <g>
     <circle stroke="black" stroke-width="0.5" fill="#aaffff" cx="118.0" cy="541.0" r="1.0"/>
     <text stroke="none" x="118.0" y="541.0" font-size="10.0" font-family="helvetica">NT1.23</text>
    </g>
    <g>
     <circle stroke="black" stroke-width="0.5" fill="#aaffff" cx="121.0" cy="642.0" r="1.0"/>
     <text stroke="none" x="121.0" y="642.0" font-size="10.0" font-family="helvetica">NT1.24</text>
    </g>
    <g>
     <circle stroke="black" stroke-width="0.5" fill="#aaffff" cx="122.0" cy="478.0" r="1.0"/>
     <text stroke="none" x="122.0" y="478.0" font-size="20.0" font-family="helvetica">Methylobacterium mesophilicum JCM 28297 (AJ400919)</text>
    </g>
    <g>
     <circle stroke="black" stroke-width="0.5" fill="#aaffff" cx="124.0" cy="563.0" r="1.0"/>
     <text stroke="none" x="124.0" y="563.0" font-size="20.0" font-family="helvetica">Methylobactetium radiotolerans JCM 2831T (D32227)</text>
    </g>
    <g>
     <circle stroke="black" stroke-width="0.5" fill="#aaffff" cx="127.0" cy="521.0" r="1.0"/>
     <text stroke="none" x="127.0" y="521.0" font-size="20.0" font-family="helvetica"> Methylobacterium fujisawaense DSM 5686T (AJ250801)</text>
    </g>
    <g>
     <circle stroke="black" stroke-width="0.5" fill="#aaffff" cx="137.0" cy="434.0" r="1.0"/>
     <text stroke="none" x="137.0" y="434.0" font-size="20.0" font-family="helvetica">Methylobacterium organophilum JCM 2833T (D32226)</text>
    </g>
    <g>
     <circle stroke="black" stroke-width="0.5" fill="#aaffff" cx="185.0" cy="605.0" r="1.0"/>
     <text stroke="none" x="185.0" y="605.0" font-size="10.0" font-family="helvetica">NT1.29</text>
    </g>
    <g>
     <circle stroke="black" stroke-width="0.5" fill="#aaffff" cx="213.0" cy="680.0" r="1.0"/>
     <text stroke="none" x="213.0" y="680.0" font-size="10.0" font-family="helvetica">NT1.30</text>
    </g>
    <g>
     <circle stroke="black" stroke-width="0.5" fill="#aaffff" cx="288.0" cy="647.0" r="1.0"/>
     <text stroke="none" x="288.0" y="647.0" font-size="20.0" font-family="helvetica">Rhodopseudomonas palustris ATCC 170017 (D25312)</text>
    </g>
    <g>
     <circle stroke="black" stroke-width="0.5" fill="#aaffff" cx="294.0" cy="712.0" r="1.0"/>
     <text stroke="none" x="294.0" y="712.0" font-size="10.0" font-family="helvetica">NT1.32</text>
    </g>
    <g>
     <circle stroke="black" stroke-width="0.5" fill="#aaffff" cx="393.0" cy="690.0" r="1.0"/>
     <text stroke="none" x="393.0" y="690.0" font-size="20.0" font-family="helvetica">Agrobacterium tumefaciens NCPPB 24377 (D14500)</text>
    </g>
    <g>
     <circle stroke="black" stroke-width="0.5" fill="#aaffff" cx="580.0" cy="733.0" r="1.0"/>
     <text stroke="none" x="580.0" y="733.0" font-size="20.0" font-family="helvetica"> Escherichia coli 562 (JO1859)</text>
    </g>
    <g>
     <circle stroke="black" stroke-width="0.5" fill="#aaffff" cx="2.0" cy="32.0" r="1.0"/>
     <text stroke="none" x="2.0" y="32.0" font-size="10.0" font-family="helvetica">NT1.35</text>
    </g>
    <line stroke="black" x1="11.0" y1="53.0" x2="3.0" y2="53.0" stroke-width="0.5"/>
    <line stroke="black" x1="29.0" y1="95.0" x2="15.0" y2="133.0" stroke-width="0.5"/>
    <line stroke="black" x1="25.0" y1="180.0" x2="24.0" y2="202.0" stroke-width="0.5"/>
    <line stroke="black" x1="46.0" y1="137.0" x2="20.0" y2="170.0" stroke-width="0.5"/>
    <line stroke="black" x1="36.0" y1="308.0" x2="21.0" y2="360.0" stroke-width="0.5"/>
    <line stroke="black" x1="51.0" y1="223.0" x2="24.0" y2="202.0" stroke-width="0.5"/>
    <line stroke="black" x1="71.0" y1="392.0" x2="48.0" y2="474.0" stroke-width="0.5"/>
    <line stroke="black" x1="122.0" y1="478.0" x2="104.0" y2="509.0" stroke-width="0.5"/>
    <line stroke="black" x1="124.0" y1="563.0" x2="118.0" y2="541.0" stroke-width="0.5"/>
    <line stroke="black" x1="127.0" y1="521.0" x2="118.0" y2="541.0" stroke-width="0.5"/>
    <line stroke="black" x1="288.0" y1="647.0" x2="213.0" y2="680.0" stroke-width="0.5"/>
    <line stroke="black" x1="393.0" y1="690.0" x2="294.0" y2="712.0" stroke-width="0.5"/>
    <line stroke="black" x1="580.0" y1="733.0" x2="294.0" y2="712.0" stroke-width="0.5"/>
    <line stroke="black" x1="3.0" y1="53.0" x2="8.0" y2="223.0" stroke-width="0.5"/>
    <line stroke="black" x1="15.0" y1="133.0" x2="20.0" y2="170.0" stroke-width="0.5"/>
    <line stroke="black" x1="20.0" y1="170.0" x2="24.0" y2="202.0" stroke-width="0.5"/>
    <line stroke="black" x1="27.0" y1="412.0" x2="48.0" y2="474.0" stroke-width="0.5"/>
    <line stroke="black" x1="48.0" y1="474.0" x2="80.0" y2="558.0" stroke-width="0.5"/>
    <line stroke="black" x1="80.0" y1="558.0" x2="90.0" y2="472.0" stroke-width="0.5"/>
    <line stroke="black" x1="90.0" y1="472.0" x2="104.0" y2="509.0" stroke-width="0.5"/>
    <line stroke="black" x1="121.0" y1="642.0" x2="213.0" y2="680.0" stroke-width="0.5"/>
    <line stroke="black" x1="104.0" y1="509.0" x2="118.0" y2="541.0" stroke-width="0.5"/>
    <line stroke="black" x1="213.0" y1="680.0" x2="294.0" y2="712.0" stroke-width="0.5"/>
    <line stroke="black" x1="2.0" y1="32.0" x2="6.0" y2="11.0" stroke-width="0.5"/>
    <line stroke="black" x1="2.0" y1="32.0" x2="3.0" y2="53.0" stroke-width="0.5"/>
    <line stroke="black" x1="8.0" y1="223.0" x2="15.0" y2="133.0" stroke-width="0.5"/>
    <line stroke="black" x1="12.0" y1="313.0" x2="21.0" y2="360.0" stroke-width="0.5"/>
    <line stroke="black" x1="21.0" y1="360.0" x2="27.0" y2="412.0" stroke-width="0.5"/>
    <line stroke="black" x1="42.0" y1="350.0" x2="27.0" y2="412.0" stroke-width="0.5"/>
    <line stroke="black" x1="137.0" y1="434.0" x2="90.0" y2="472.0" stroke-width="0.5"/>
   </g>
  </g>
 </svg>
</svg>
