<?xml version="1.0" encoding="UTF-8"?>
<svg height="800.0" width="700.0" xmlns="http://www.w3.org/2000/svg">
 <svg>
  <g>
   <g>
    <g>
     <circle stroke="black" stroke-width="0.5" fill="#aaffff" cx="1.0" cy="1855.0" r="1.0"/>
     <text stroke="none" x="1.0" y="1855.0" font-size="20.0" font-family="helvetica"/>
    </g>
    <g>
     <circle stroke="black" stroke-width="0.5" fill="#aaffff" cx="68.0" cy="1855.0" r="1.0"/>
     <text stroke="none" x="68.0" y="1855.0" font-size="10.0" font-family="helvetica">NT1.2</text>
    </g>
    <g>
     <circle stroke="black" stroke-width="0.5" fill="#aaffff" cx="110.0" cy="1665.0" r="1.0"/>
     <text stroke="none" x="110.0" y="1665.0" font-size="10.0" font-family="helvetica">NT1.3</text>
    </g>
    <g>
     <circle stroke="black" stroke-width="0.5" fill="#aaffff" cx="128.0" cy="1320.0" r="1.0"/>
     <text stroke="none" x="128.0" y="1320.0" font-size="10.0" font-family="helvetica">NT1.4</text>
    </g>
    <g>
     <circle stroke="black" stroke-width="0.5" fill="#aaffff" cx="145.0" cy="1654.0" r="1.0"/>
     <text stroke="none" x="145.0" y="1654.0" font-size="10.0" font-family="helvetica">NT1.5</text>
    </g>
    <g>
     <circle stroke="black" stroke-width="0.5" fill="#aaffff" cx="151.0" cy="983.0" r="1.0"/>
     <text stroke="none" x="151.0" y="983.0" font-size="10.0" font-family="helvetica">NT1.6</text>
    </g>
    <g>
     <circle stroke="black" stroke-width="0.5" fill="#aaffff" cx="161.0" cy="807.0" r="1.0"/>
     <text stroke="none" x="161.0" y="807.0" font-size="10.0" font-family="helvetica">NT1.7</text>
    </g>
    <g>
     <circle stroke="black" stroke-width="0.5" fill="#aaffff" cx="169.0" cy="1739.0" r="1.0"/>
     <text stroke="none" x="169.0" y="1739.0" font-size="10.0" font-family="helvetica">NT1.8</text>
    </g>
    <g>
     <circle stroke="black" stroke-width="0.5" fill="#aaffff" cx="189.0" cy="1156.0" r="1.0"/>
     <text stroke="none" x="189.0" y="1156.0" font-size="10.0" font-family="helvetica">NT1.9</text>
    </g>
    <g>
     <circle stroke="black" stroke-width="0.5" fill="#aaffff" cx="191.0" cy="1572.0" r="1.0"/>
     <text stroke="none" x="191.0" y="1572.0" font-size="10.0" font-family="helvetica">NT1.10</text>
    </g>
    <g>
     <circle stroke="black" stroke-width="0.5" fill="#aaffff" cx="194.0" cy="1165.0" r="1.0"/>
     <text stroke="none" x="194.0" y="1165.0" font-size="10.0" font-family="helvetica">NT1.11</text>
    </g>
    <g>
     <circle stroke="black" stroke-width="0.5" fill="#aaffff" cx="222.0" cy="642.0" r="1.0"/>
     <text stroke="none" x="222.0" y="642.0" font-size="10.0" font-family="helvetica">NT1.12</text>
    </g>
    <g>
     <circle stroke="black" stroke-width="0.5" fill="#aaffff" cx="234.0" cy="1263.0" r="1.0"/>
     <text stroke="none" x="234.0" y="1263.0" font-size="10.0" font-family="helvetica">NT1.13</text>
    </g>
    <g>
     <circle stroke="black" stroke-width="0.5" fill="#aaffff" cx="235.0" cy="1075.0" r="1.0"/>
     <text stroke="none" x="235.0" y="1075.0" font-size="10.0" font-family="helvetica">NT1.14</text>
    </g>
    <g>
     <circle stroke="black" stroke-width="0.5" fill="#aaffff" cx="237.0" cy="1792.0" r="1.0"/>
     <text stroke="none" x="237.0" y="1792.0" font-size="10.0" font-family="helvetica">NT1.15</text>
    </g>
    <g>
     <circle stroke="black" stroke-width="0.5" fill="#aaffff" cx="239.0" cy="1689.0" r="1.0"/>
     <text stroke="none" x="239.0" y="1689.0" font-size="10.0" font-family="helvetica">NT1.16</text>
    </g>
    <g>
     <circle stroke="black" stroke-width="0.5" fill="#aaffff" cx="246.0" cy="1097.0" r="1.0"/>
     <text stroke="none" x="246.0" y="1097.0" font-size="20.0" font-family="helvetica">B.</text>
    </g>
    <g>
     <circle stroke="black" stroke-width="0.5" fill="#aaffff" cx="247.0" cy="852.0" r="1.0"/>
     <text stroke="none" x="247.0" y="852.0" font-size="10.0" font-family="helvetica">NT1.18</text>
    </g>
    <g>
     <circle stroke="black" stroke-width="0.5" fill="#aaffff" cx="253.0" cy="971.0" r="1.0"/>
     <text stroke="none" x="253.0" y="971.0" font-size="20.0" font-family="helvetica">54</text>
    </g>
    <g>
     <circle stroke="black" stroke-width="0.5" fill="#aaffff" cx="267.0" cy="1221.0" r="1.0"/>
     <text stroke="none" x="267.0" y="1221.0" font-size="10.0" font-family="helvetica">NT1.20</text>
    </g>
    <g>
     <circle stroke="black" stroke-width="0.5" fill="#aaffff" cx="278.0" cy="1307.0" r="1.0"/>
     <text stroke="none" x="278.0" y="1307.0" font-size="20.0" font-family="helvetica">B</text>
    </g>
    <g>
     <circle stroke="black" stroke-width="0.5" fill="#aaffff" cx="287.0" cy="1835.0" r="1.0"/>
     <text stroke="none" x="287.0" y="1835.0" font-size="20.0" font-family="helvetica">3</text>
    </g>
    <g>
     <circle stroke="black" stroke-width="0.5" fill="#aaffff" cx="299.0" cy="1338.0" r="1.0"/>
     <text stroke="none" x="299.0" y="1338.0" font-size="10.0" font-family="helvetica">NT1.23</text>
    </g>
    <g>
     <circle stroke="black" stroke-width="0.5" fill="#aaffff" cx="300.0" cy="1341.0" r="1.0"/>
     <text stroke="none" x="300.0" y="1341.0" font-size="20.0" font-family="helvetica">B</text>
    </g>
    <g>
     <circle stroke="black" stroke-width="0.5" fill="#aaffff" cx="303.0" cy="429.0" r="1.0"/>
     <text stroke="none" x="303.0" y="429.0" font-size="20.0" font-family="helvetica">54</text>
    </g>
    <g>
     <circle stroke="black" stroke-width="0.5" fill="#aaffff" cx="312.0" cy="1322.0" r="1.0"/>
     <text stroke="none" x="312.0" y="1322.0" font-size="10.0" font-family="helvetica">NT1.26</text>
    </g>
    <g>
     <circle stroke="black" stroke-width="0.5" fill="#aaffff" cx="313.0" cy="295.0" r="1.0"/>
     <text stroke="none" x="313.0" y="295.0" font-size="10.0" font-family="helvetica">NT1.27</text>
    </g>
    <g>
     <circle stroke="black" stroke-width="0.5" fill="#aaffff" cx="314.0" cy="818.0" r="1.0"/>
     <text stroke="none" x="314.0" y="818.0" font-size="10.0" font-family="helvetica">NT1.28</text>
    </g>
    <g>
     <circle stroke="black" stroke-width="0.5" fill="#aaffff" cx="319.0" cy="199.0" r="1.0"/>
     <text stroke="none" x="319.0" y="199.0" font-size="10.0" font-family="helvetica">NT1.29</text>
    </g>
    <g>
     <circle stroke="black" stroke-width="0.5" fill="#aaffff" cx="322.0" cy="1341.0" r="1.0"/>
     <text stroke="none" x="322.0" y="1341.0" font-size="20.0" font-family="helvetica">B</text>
    </g>
    <g>
     <circle stroke="black" stroke-width="0.5" fill="#aaffff" cx="326.0" cy="1348.0" r="1.0"/>
     <text stroke="none" x="326.0" y="1348.0" font-size="10.0" font-family="helvetica">NT1.31</text>
    </g>
    <g>
     <circle stroke="black" stroke-width="0.5" fill="#aaffff" cx="328.0" cy="559.0" r="1.0"/>
     <text stroke="none" x="328.0" y="559.0" font-size="10.0" font-family="helvetica">NT1.32</text>
    </g>
    <g>
     <circle stroke="black" stroke-width="0.5" fill="#aaffff" cx="335.0" cy="389.0" r="1.0"/>
     <text stroke="none" x="335.0" y="389.0" font-size="10.0" font-family="helvetica">NT1.33</text>
    </g>
    <g>
     <circle stroke="black" stroke-width="0.5" fill="#aaffff" cx="344.0" cy="421.0" r="1.0"/>
     <text stroke="none" x="344.0" y="421.0" font-size="10.0" font-family="helvetica">NT1.34</text>
    </g>
    <g>
     <circle stroke="black" stroke-width="0.5" fill="#aaffff" cx="351.0" cy="616.0" r="1.0"/>
     <text stroke="none" x="351.0" y="616.0" font-size="10.0" font-family="helvetica">NT1.35</text>
    </g>
    <g>
     <circle stroke="black" stroke-width="0.5" fill="#aaffff" cx="356.0" cy="1402.0" r="1.0"/>
     <text stroke="none" x="356.0" y="1402.0" font-size="20.0" font-family="helvetica">L</text>
    </g>
    <g>
     <circle stroke="black" stroke-width="0.5" fill="#aaffff" cx="357.0" cy="122.0" r="1.0"/>
     <text stroke="none" x="357.0" y="122.0" font-size="10.0" font-family="helvetica">NT1.37</text>
    </g>
    <g>
     <circle stroke="black" stroke-width="0.5" fill="#aaffff" cx="359.0" cy="1883.0" r="1.0"/>
     <text stroke="none" x="359.0" y="1883.0" font-size="20.0" font-family="helvetica">85</text>
    </g>
    <g>
     <circle stroke="black" stroke-width="0.5" fill="#aaffff" cx="362.0" cy="888.0" r="1.0"/>
     <text stroke="none" x="362.0" y="888.0" font-size="20.0" font-family="helvetica">97</text>
    </g>
    <g>
     <circle stroke="black" stroke-width="0.5" fill="#aaffff" cx="364.0" cy="164.0" r="1.0"/>
     <text stroke="none" x="364.0" y="164.0" font-size="10.0" font-family="helvetica">NT1.40</text>
    </g>
    <g>
     <circle stroke="black" stroke-width="0.5" fill="#aaffff" cx="367.0" cy="274.0" r="1.0"/>
     <text stroke="none" x="367.0" y="274.0" font-size="10.0" font-family="helvetica">NT1.41</text>
    </g>
    <g>
     <circle stroke="black" stroke-width="0.5" fill="#aaffff" cx="375.0" cy="75.0" r="1.0"/>
     <text stroke="none" x="375.0" y="75.0" font-size="20.0" font-family="helvetica">72</text>
    </g>
    <g>
     <circle stroke="black" stroke-width="0.5" fill="#aaffff" cx="376.0" cy="1925.0" r="1.0"/>
     <text stroke="none" x="376.0" y="1925.0" font-size="10.0" font-family="helvetica">NT1.43</text>
    </g>
    <g>
     <circle stroke="black" stroke-width="0.5" fill="#aaffff" cx="385.0" cy="673.0" r="1.0"/>
     <text stroke="none" x="385.0" y="673.0" font-size="20.0" font-family="helvetica">L</text>
    </g>
    <g>
     <circle stroke="black" stroke-width="0.5" fill="#aaffff" cx="394.0" cy="1538.0" r="1.0"/>
     <text stroke="none" x="394.0" y="1538.0" font-size="20.0" font-family="helvetica">99</text>
    </g>
    <g>
     <circle stroke="black" stroke-width="0.5" fill="#aaffff" cx="396.0" cy="561.0" r="1.0"/>
     <text stroke="none" x="396.0" y="561.0" font-size="10.0" font-family="helvetica">NT1.46</text>
    </g>
    <g>
     <circle stroke="black" stroke-width="0.5" fill="#aaffff" cx="399.0" cy="39.0" r="1.0"/>
     <text stroke="none" x="399.0" y="39.0" font-size="10.0" font-family="helvetica">NT1.47</text>
    </g>
    <g>
     <circle stroke="black" stroke-width="0.5" fill="#aaffff" cx="401.0" cy="448.0" r="1.0"/>
     <text stroke="none" x="401.0" y="448.0" font-size="20.0" font-family="helvetica">91</text>
    </g>
    <g>
     <circle stroke="black" stroke-width="0.5" fill="#aaffff" cx="407.0" cy="192.0" r="1.0"/>
     <text stroke="none" x="407.0" y="192.0" font-size="20.0" font-family="helvetica">52</text>
    </g>
    <g>
     <circle stroke="black" stroke-width="0.5" fill="#aaffff" cx="407.0" cy="1506.0" r="1.0"/>
     <text stroke="none" x="407.0" y="1506.0" font-size="20.0" font-family="helvetica">B</text>
    </g>
    <g>
     <circle stroke="black" stroke-width="0.5" fill="#aaffff" cx="410.0" cy="302.0" r="1.0"/>
     <text stroke="none" x="410.0" y="302.0" font-size="20.0" font-family="helvetica">60</text>
    </g>
    <g>
     <circle stroke="black" stroke-width="0.5" fill="#aaffff" cx="412.0" cy="46.0" r="1.0"/>
     <text stroke="none" x="412.0" y="46.0" font-size="10.0" font-family="helvetica">NT1.52</text>
    </g>
    <g>
     <circle stroke="black" stroke-width="0.5" fill="#aaffff" cx="414.0" cy="714.0" r="1.0"/>
     <text stroke="none" x="414.0" y="714.0" font-size="20.0" font-family="helvetica">L</text>
    </g>
    <g>
     <circle stroke="black" stroke-width="0.5" fill="#aaffff" cx="426.0" cy="1661.0" r="1.0"/>
     <text stroke="none" x="426.0" y="1661.0" font-size="20.0" font-family="helvetica">99</text>
    </g>
    <g>
     <circle stroke="black" stroke-width="0.5" fill="#aaffff" cx="431.0" cy="1952.0" r="1.0"/>
     <text stroke="none" x="431.0" y="1952.0" font-size="10.0" font-family="helvetica">NT1.55</text>
    </g>
    <g>
     <circle stroke="black" stroke-width="0.5" fill="#aaffff" cx="464.0" cy="626.0" r="1.0"/>
     <text stroke="none" x="464.0" y="626.0" font-size="10.0" font-family="helvetica">NT1.56</text>
    </g>
    <g>
     <circle stroke="black" stroke-width="0.5" fill="#aaffff" cx="470.0" cy="1845.0" r="1.0"/>
     <text stroke="none" x="470.0" y="1845.0" font-size="20.0" font-family="helvetica">70</text>
    </g>
    <g>
     <circle stroke="black" stroke-width="0.5" fill="#aaffff" cx="483.0" cy="717.0" r="1.0"/>
     <text stroke="none" x="483.0" y="717.0" font-size="10.0" font-family="helvetica">NT1.58</text>
    </g>
    <g>
     <circle stroke="black" stroke-width="0.5" fill="#aaffff" cx="483.0" cy="633.0" r="1.0"/>
     <text stroke="none" x="483.0" y="633.0" font-size="10.0" font-family="helvetica">NT1.59</text>
    </g>
    <g>
     <circle stroke="black" stroke-width="0.5" fill="#aaffff" cx="488.0" cy="395.0" r="1.0"/>
     <text stroke="none" x="488.0" y="395.0" font-size="10.0" font-family="helvetica">NT1.60</text>
    </g>
    <g>
     <circle stroke="black" stroke-width="0.5" fill="#aaffff" cx="494.0" cy="998.0" r="1.0"/>
     <text stroke="none" x="494.0" y="998.0" font-size="20.0" font-family="helvetica">99</text>
    </g>
    <g>
     <circle stroke="black" stroke-width="0.5" fill="#aaffff" cx="495.0" cy="738.0" r="1.0"/>
     <text stroke="none" x="495.0" y="738.0" font-size="10.0" font-family="helvetica">NT1.62</text>
    </g>
    <g>
     <circle stroke="black" stroke-width="0.5" fill="#aaffff" cx="502.0" cy="138.0" r="1.0"/>
     <text stroke="none" x="502.0" y="138.0" font-size="10.0" font-family="helvetica">NT1.63</text>
    </g>
    <g>
     <circle stroke="black" stroke-width="0.5" fill="#aaffff" cx="513.0" cy="468.0" r="1.0"/>
     <text stroke="none" x="513.0" y="468.0" font-size="20.0" font-family="helvetica">Olleya marilimosa CAM03O7 (EF660466)</text>
    </g>
    <g>
     <circle stroke="black" stroke-width="0.5" fill="#aaffff" cx="520.0" cy="1715.0" r="1.0"/>
     <text stroke="none" x="520.0" y="1715.0" font-size="10.0" font-family="helvetica">NT1.65</text>
    </g>
    <g>
     <circle stroke="black" stroke-width="0.5" fill="#aaffff" cx="524.0" cy="1751.0" r="1.0"/>
     <text stroke="none" x="524.0" y="1751.0" font-size="20.0" font-family="helvetica">Sediminicola luteus CNI-37 (AB206957)</text>
    </g>
    <g>
     <circle stroke="black" stroke-width="0.5" fill="#aaffff" cx="525.0" cy="2045.0" r="1.0"/>
     <text stroke="none" x="525.0" y="2045.0" font-size="10.0" font-family="helvetica">NT1.67</text>
    </g>
    <g>
     <circle stroke="black" stroke-width="0.5" fill="#aaffff" cx="527.0" cy="101.0" r="1.0"/>
     <text stroke="none" x="527.0" y="101.0" font-size="10.0" font-family="helvetica">NT1.68</text>
    </g>
    <g>
     <circle stroke="black" stroke-width="0.5" fill="#aaffff" cx="531.0" cy="248.0" r="1.0"/>
     <text stroke="none" x="531.0" y="248.0" font-size="10.0" font-family="helvetica">NT1.69</text>
    </g>
    <g>
     <circle stroke="black" stroke-width="0.5" fill="#aaffff" cx="534.0" cy="2009.0" r="1.0"/>
     <text stroke="none" x="534.0" y="2009.0" font-size="20.0" font-family="helvetica">Joostella marina En57 (EF660761)</text>
    </g>
    <g>
     <circle stroke="black" stroke-width="0.5" fill="#aaffff" cx="543.0" cy="1128.0" r="1.0"/>
     <text stroke="none" x="543.0" y="1128.0" font-size="10.0" font-family="helvetica">NT1.71</text>
    </g>
    <g>
     <circle stroke="black" stroke-width="0.5" fill="#aaffff" cx="545.0" cy="358.0" r="1.0"/>
     <text stroke="none" x="545.0" y="358.0" font-size="20.0" font-family="helvetica">Mesoflavibacter zeaxanthinifaciens TD-ZX3O7 (AB265181)</text>
    </g>
    <g>
     <circle stroke="black" stroke-width="0.5" fill="#aaffff" cx="545.0" cy="1165.0" r="1.0"/>
     <text stroke="none" x="545.0" y="1165.0" font-size="20.0" font-family="helvetica">Gillisia myxillae USTO5041 8-0857 (DQ202893)</text>
    </g>
    <g>
     <circle stroke="black" stroke-width="0.5" fill="#aaffff" cx="549.0" cy="1275.0" r="1.0"/>
     <text stroke="none" x="549.0" y="1275.0" font-size="10.0" font-family="helvetica">NT1.74</text>
    </g>
    <g>
     <circle stroke="black" stroke-width="0.5" fill="#aaffff" cx="564.0" cy="798.0" r="1.0"/>
     <text stroke="none" x="564.0" y="798.0" font-size="10.0" font-family="helvetica">NT1.75</text>
    </g>
    <g>
     <circle stroke="black" stroke-width="0.5" fill="#aaffff" cx="568.0" cy="871.0" r="1.0"/>
     <text stroke="none" x="568.0" y="871.0" font-size="10.0" font-family="helvetica">NT1.76</text>
    </g>
    <g>
     <circle stroke="black" stroke-width="0.5" fill="#aaffff" cx="577.0" cy="29.0" r="1.0"/>
     <text stroke="none" x="577.0" y="29.0" font-size="10.0" font-family="helvetica">NT1.77</text>
    </g>
    <g>
     <circle stroke="black" stroke-width="0.5" fill="#aaffff" cx="580.0" cy="541.0" r="1.0"/>
     <text stroke="none" x="580.0" y="541.0" font-size="10.0" font-family="helvetica">NT1.78</text>
    </g>
    <g>
     <circle stroke="black" stroke-width="0.5" fill="#aaffff" cx="580.0" cy="1074.0" r="1.0"/>
     <text stroke="none" x="580.0" y="1074.0" font-size="20.0" font-family="helvetica">99</text>
    </g>
    <g>
     <circle stroke="black" stroke-width="0.5" fill="#aaffff" cx="581.0" cy="1384.0" r="1.0"/>
     <text stroke="none" x="581.0" y="1384.0" font-size="20.0" font-family="helvetica">Mesonia algae KMM 39097 (AF536383)</text>
    </g>
    <g>
     <circle stroke="black" stroke-width="0.5" fill="#aaffff" cx="581.0" cy="1478.0" r="1.0"/>
     <text stroke="none" x="581.0" y="1478.0" font-size="20.0" font-family="helvetica">99</text>
    </g>
    <g>
     <circle stroke="black" stroke-width="0.5" fill="#aaffff" cx="586.0" cy="174.0" r="1.0"/>
     <text stroke="none" x="586.0" y="174.0" font-size="10.0" font-family="helvetica">NT1.82</text>
    </g>
    <g>
     <circle stroke="black" stroke-width="0.5" fill="#aaffff" cx="598.0" cy="504.0" r="1.0"/>
     <text stroke="none" x="598.0" y="504.0" font-size="20.0" font-family="helvetica">Meridianimaribacter flavus NH57N7 (FJ360684)</text>
    </g>
    <g>
     <circle stroke="black" stroke-width="0.5" fill="#aaffff" cx="602.0" cy="908.0" r="1.0"/>
     <text stroke="none" x="602.0" y="908.0" font-size="20.0" font-family="helvetica">Jejuia pallidilutea EM397 (EU443204)</text>
    </g>
    <g>
     <circle stroke="black" stroke-width="0.5" fill="#aaffff" cx="604.0" cy="431.0" r="1.0"/>
     <text stroke="none" x="604.0" y="431.0" font-size="10.0" font-family="helvetica">NT1.85</text>
    </g>
    <g>
     <circle stroke="black" stroke-width="0.5" fill="#aaffff" cx="607.0" cy="578.0" r="1.0"/>
     <text stroke="none" x="607.0" y="578.0" font-size="10.0" font-family="helvetica">NT1.86</text>
    </g>
    <g>
     <circle stroke="black" stroke-width="0.5" fill="#aaffff" cx="609.0" cy="1311.0" r="1.0"/>
     <text stroke="none" x="609.0" y="1311.0" font-size="20.0" font-family="helvetica">Zunongwangia profunda SM-A877 (DQ855467)</text>
    </g>
    <g>
     <circle stroke="black" stroke-width="0.5" fill="#aaffff" cx="611.0" cy="1495.0" r="1.0"/>
     <text stroke="none" x="611.0" y="1495.0" font-size="20.0" font-family="helvetica">Sandarakinotalea sediminis CKA-57 (AB206954)</text>
    </g>
    <g>
     <circle stroke="black" stroke-width="0.5" fill="#aaffff" cx="618.0" cy="65.0" r="1.0"/>
     <text stroke="none" x="618.0" y="65.0" font-size="10.0" font-family="helvetica">NT1.89</text>
    </g>
    <g>
     <circle stroke="black" stroke-width="0.5" fill="#aaffff" cx="618.0" cy="285.0" r="1.0"/>
     <text stroke="none" x="618.0" y="285.0" font-size="20.0" font-family="helvetica">Formosa algae KMM 35537 (AY228461)</text>
    </g>
    <g>
     <circle stroke="black" stroke-width="0.5" fill="#aaffff" cx="620.0" cy="835.0" r="1.0"/>
     <text stroke="none" x="620.0" y="835.0" font-size="10.0" font-family="helvetica">NT1.91</text>
    </g>
    <g>
     <circle stroke="black" stroke-width="0.5" fill="#aaffff" cx="620.0" cy="1054.0" r="1.0"/>
     <text stroke="none" x="620.0" y="1054.0" font-size="20.0" font-family="helvetica">Dokdonia donghaensis DSW-17 (DQ003276)</text>
    </g>
    <g>
     <circle stroke="black" stroke-width="0.5" fill="#aaffff" cx="620.0" cy="1092.0" r="1.0"/>
     <text stroke="none" x="620.0" y="1092.0" font-size="10.0" font-family="helvetica">NT1.93</text>
    </g>
    <g>
     <circle stroke="black" stroke-width="0.5" fill="#aaffff" cx="623.0" cy="212.0" r="1.0"/>
     <text stroke="none" x="623.0" y="212.0" font-size="10.0" font-family="helvetica">NT1.94</text>
    </g>
    <g>
     <circle stroke="black" stroke-width="0.5" fill="#aaffff" cx="627.0" cy="1641.0" r="1.0"/>
     <text stroke="none" x="627.0" y="1641.0" font-size="20.0" font-family="helvetica">Aequorivita antarctica SW497 (AYO27802)</text>
    </g>
    <g>
     <circle stroke="black" stroke-width="0.5" fill="#aaffff" cx="630.0" cy="1458.0" r="1.0"/>
     <text stroke="none" x="630.0" y="1458.0" font-size="10.0" font-family="helvetica">NT1.96</text>
    </g>
    <g>
     <circle stroke="black" stroke-width="0.5" fill="#aaffff" cx="638.0" cy="322.0" r="1.0"/>
     <text stroke="none" x="638.0" y="322.0" font-size="10.0" font-family="helvetica">NT1.97</text>
    </g>
    <g>
     <circle stroke="black" stroke-width="0.5" fill="#aaffff" cx="641.0" cy="1201.0" r="1.0"/>
     <text stroke="none" x="641.0" y="1201.0" font-size="10.0" font-family="helvetica">NT1.98</text>
    </g>
    <g>
     <circle stroke="black" stroke-width="0.5" fill="#aaffff" cx="646.0" cy="1422.0" r="1.0"/>
     <text stroke="none" x="646.0" y="1422.0" font-size="10.0" font-family="helvetica">NT1.99</text>
    </g>
    <g>
     <circle stroke="black" stroke-width="0.5" fill="#aaffff" cx="648.0" cy="1532.0" r="1.0"/>
     <text stroke="none" x="648.0" y="1532.0" font-size="10.0" font-family="helvetica">NT1.100</text>
    </g>
    <g>
     <circle stroke="black" stroke-width="0.5" fill="#aaffff" cx="657.0" cy="615.0" r="1.0"/>
     <text stroke="none" x="657.0" y="615.0" font-size="20.0" font-family="helvetica">Gelidibacter salicanalis IC1 627 (AY694009)</text>
    </g>
    <g>
     <circle stroke="black" stroke-width="0.5" fill="#aaffff" cx="658.0" cy="944.0" r="1.0"/>
     <text stroke="none" x="658.0" y="944.0" font-size="10.0" font-family="helvetica">NT1.102</text>
    </g>
    <g>
     <circle stroke="black" stroke-width="0.5" fill="#aaffff" cx="677.0" cy="652.0" r="1.0"/>
     <text stroke="none" x="677.0" y="652.0" font-size="20.0" font-family="helvetica">Subsaxibacter broadyi P77 (AY693999)</text>
    </g>
    <g>
     <circle stroke="black" stroke-width="0.5" fill="#aaffff" cx="688.0" cy="1238.0" r="1.0"/>
     <text stroke="none" x="688.0" y="1238.0" font-size="20.0" font-family="helvetica">Psychroflexus gondwanensis DSM 54237 (M92278)</text>
    </g>
    <g>
     <circle stroke="black" stroke-width="0.5" fill="#aaffff" cx="701.0" cy="1678.0" r="1.0"/>
     <text stroke="none" x="701.0" y="1678.0" font-size="10.0" font-family="helvetica">NT1.105</text>
    </g>
    <g>
     <circle stroke="black" stroke-width="0.5" fill="#aaffff" cx="704.0" cy="1569.0" r="1.0"/>
     <text stroke="none" x="704.0" y="1569.0" font-size="10.0" font-family="helvetica">NT1.106</text>
    </g>
    <g>
     <circle stroke="black" stroke-width="0.5" fill="#aaffff" cx="704.0" cy="1788.0" r="1.0"/>
     <text stroke="none" x="704.0" y="1788.0" font-size="10.0" font-family="helvetica">NT1.107</text>
    </g>
    <g>
     <circle stroke="black" stroke-width="0.5" fill="#aaffff" cx="707.0" cy="1348.0" r="1.0"/>
     <text stroke="none" x="707.0" y="1348.0" font-size="20.0" font-family="helvetica">Gramella portivictoriae USTO40801 -0017 (DQ002871)</text>
    </g>
    <g>
     <circle stroke="black" stroke-width="0.5" fill="#aaffff" cx="710.0" cy="1825.0" r="1.0"/>
     <text stroke="none" x="710.0" y="1825.0" font-size="10.0" font-family="helvetica">NT1.109</text>
    </g>
    <g>
     <circle stroke="black" stroke-width="0.5" fill="#aaffff" cx="713.0" cy="1898.0" r="1.0"/>
     <text stroke="none" x="713.0" y="1898.0" font-size="10.0" font-family="helvetica">NT1.110</text>
    </g>
    <g>
     <circle stroke="black" stroke-width="0.5" fill="#aaffff" cx="738.0" cy="724.0" r="1.0"/>
     <text stroke="none" x="738.0" y="724.0" font-size="10.0" font-family="helvetica">NT1.111</text>
    </g>
    <g>
     <circle stroke="black" stroke-width="0.5" fill="#aaffff" cx="743.0" cy="1605.0" r="1.0"/>
     <text stroke="none" x="743.0" y="1605.0" font-size="10.0" font-family="helvetica">NT1.112</text>
    </g>
    <g>
     <circle stroke="black" stroke-width="0.5" fill="#aaffff" cx="768.0" cy="762.0" r="1.0"/>
     <text stroke="none" x="768.0" y="762.0" font-size="20.0" font-family="helvetica">Sediminibacter furfurosus MAOS-867 (AB255369)</text>
    </g>
    <g>
     <circle stroke="black" stroke-width="0.5" fill="#aaffff" cx="773.0" cy="1972.0" r="1.0"/>
     <text stroke="none" x="773.0" y="1972.0" font-size="10.0" font-family="helvetica">NT1.114</text>
    </g>
    <g>
     <circle stroke="black" stroke-width="0.5" fill="#aaffff" cx="776.0" cy="688.0" r="1.0"/>
     <text stroke="none" x="776.0" y="688.0" font-size="20.0" font-family="helvetica">Subsaximicrobium saxinquilinus Y4-57 (AY693998)</text>
    </g>
    <g>
     <circle stroke="black" stroke-width="0.5" fill="#aaffff" cx="776.0" cy="1861.0" r="1.0"/>
     <text stroke="none" x="776.0" y="1861.0" font-size="20.0" font-family="helvetica">Zobellia galactanivorans Dsij7 (AF208293)</text>
    </g>
    <g>
     <circle stroke="black" stroke-width="0.5" fill="#aaffff" cx="812.0" cy="981.0" r="1.0"/>
     <text stroke="none" x="812.0" y="981.0" font-size="10.0" font-family="helvetica">NT1.117</text>
    </g>
    <g>
     <circle stroke="black" stroke-width="0.5" fill="#aaffff" cx="834.0" cy="1018.0" r="1.0"/>
     <text stroke="none" x="834.0" y="1018.0" font-size="10.0" font-family="helvetica">NT1.118</text>
    </g>
    <g>
     <circle stroke="black" stroke-width="0.5" fill="#aaffff" cx="1001.0" cy="1934.0" r="1.0"/>
     <text stroke="none" x="1001.0" y="1934.0" font-size="10.0" font-family="helvetica">NT1.119</text>
    </g>
    <line stroke="black" x1="602.0" y1="908.0" x2="362.0" y2="888.0" stroke-width="0.5"/>
    <line stroke="black" x1="545.0" y1="1165.0" x2="194.0" y2="1165.0" stroke-width="0.5"/>
    <line stroke="black" x1="707.0" y1="1348.0" x2="326.0" y2="1348.0" stroke-width="0.5"/>
    <line stroke="black" x1="313.0" y1="295.0" x2="303.0" y2="429.0" stroke-width="0.5"/>
    <line stroke="black" x1="313.0" y1="295.0" x2="335.0" y2="389.0" stroke-width="0.5"/>
    <line stroke="black" x1="303.0" y1="429.0" x2="222.0" y2="642.0" stroke-width="0.5"/>
    <line stroke="black" x1="303.0" y1="429.0" x2="328.0" y2="559.0" stroke-width="0.5"/>
    <line stroke="black" x1="351.0" y1="616.0" x2="385.0" y2="673.0" stroke-width="0.5"/>
    <line stroke="black" x1="222.0" y1="642.0" x2="161.0" y2="807.0" stroke-width="0.5"/>
    <line stroke="black" x1="385.0" y1="673.0" x2="414.0" y2="714.0" stroke-width="0.5"/>
    <line stroke="black" x1="385.0" y1="673.0" x2="483.0" y2="633.0" stroke-width="0.5"/>
    <line stroke="black" x1="151.0" y1="983.0" x2="128.0" y2="1320.0" stroke-width="0.5"/>
    <line stroke="black" x1="151.0" y1="983.0" x2="189.0" y2="1156.0" stroke-width="0.5"/>
    <line stroke="black" x1="189.0" y1="1156.0" x2="194.0" y2="1165.0" stroke-width="0.5"/>
    <line stroke="black" x1="194.0" y1="1165.0" x2="234.0" y2="1263.0" stroke-width="0.5"/>
    <line stroke="black" x1="128.0" y1="1320.0" x2="110.0" y2="1665.0" stroke-width="0.5"/>
    <line stroke="black" x1="128.0" y1="1320.0" x2="145.0" y2="1654.0" stroke-width="0.5"/>
    <line stroke="black" x1="300.0" y1="1341.0" x2="322.0" y2="1341.0" stroke-width="0.5"/>
    <line stroke="black" x1="322.0" y1="1341.0" x2="326.0" y2="1348.0" stroke-width="0.5"/>
    <line stroke="black" x1="145.0" y1="1654.0" x2="169.0" y2="1739.0" stroke-width="0.5"/>
    <line stroke="black" x1="110.0" y1="1665.0" x2="68.0" y2="1855.0" stroke-width="0.5"/>
    <line stroke="black" x1="169.0" y1="1739.0" x2="237.0" y2="1792.0" stroke-width="0.5"/>
    <line stroke="black" x1="534.0" y1="2009.0" x2="110.0" y2="1665.0" stroke-width="0.5"/>
    <line stroke="black" x1="524.0" y1="1751.0" x2="237.0" y2="1792.0" stroke-width="0.5"/>
    <line stroke="black" x1="545.0" y1="358.0" x2="335.0" y2="389.0" stroke-width="0.5"/>
    <line stroke="black" x1="688.0" y1="1238.0" x2="267.0" y2="1221.0" stroke-width="0.5"/>
    <line stroke="black" x1="609.0" y1="1311.0" x2="322.0" y2="1341.0" stroke-width="0.5"/>
    <line stroke="black" x1="598.0" y1="504.0" x2="328.0" y2="559.0" stroke-width="0.5"/>
    <line stroke="black" x1="581.0" y1="1384.0" x2="356.0" y2="1402.0" stroke-width="0.5"/>
    <line stroke="black" x1="513.0" y1="468.0" x2="401.0" y2="448.0" stroke-width="0.5"/>
    <line stroke="black" x1="618.0" y1="285.0" x2="410.0" y2="302.0" stroke-width="0.5"/>
    <line stroke="black" x1="627.0" y1="1641.0" x2="426.0" y2="1661.0" stroke-width="0.5"/>
    <line stroke="black" x1="776.0" y1="688.0" x2="414.0" y2="714.0" stroke-width="0.5"/>
    <line stroke="black" x1="657.0" y1="615.0" x2="483.0" y2="633.0" stroke-width="0.5"/>
    <line stroke="black" x1="677.0" y1="652.0" x2="483.0" y2="633.0" stroke-width="0.5"/>
    <line stroke="black" x1="776.0" y1="1861.0" x2="470.0" y2="1845.0" stroke-width="0.5"/>
    <line stroke="black" x1="768.0" y1="762.0" x2="495.0" y2="738.0" stroke-width="0.5"/>
    <line stroke="black" x1="611.0" y1="1495.0" x2="581.0" y2="1478.0" stroke-width="0.5"/>
    <line stroke="black" x1="620.0" y1="1054.0" x2="580.0" y2="1074.0" stroke-width="0.5"/>
   </g>
  </g>
 </svg>
</svg>
