<?xml version="1.0" encoding="UTF-8"?>
<svg height="800.0" width="700.0" xmlns="http://www.w3.org/2000/svg">
 <svg>
  <g>
   <g>
    <g>
     <circle stroke="black" stroke-width="0.5" fill="#aaffff" cx="46.0" cy="492.0" r="1.0"/>
     <text stroke="none" x="46.0" y="492.0" font-size="10.0" font-family="helvetica">NT1.1</text>
    </g>
    <g>
     <circle stroke="black" stroke-width="0.5" fill="#aaffff" cx="116.0" cy="609.0" r="1.0"/>
     <text stroke="none" x="116.0" y="609.0" font-size="10.0" font-family="helvetica">NT1.2</text>
    </g>
    <g>
     <circle stroke="black" stroke-width="0.5" fill="#aaffff" cx="136.0" cy="566.0" r="1.0"/>
     <text stroke="none" x="136.0" y="566.0" font-size="10.0" font-family="helvetica">NT1.3</text>
    </g>
    <g>
     <circle stroke="black" stroke-width="0.5" fill="#aaffff" cx="139.0" cy="659.0" r="1.0"/>
     <text stroke="none" x="139.0" y="659.0" font-size="10.0" font-family="helvetica">NT1.4</text>
    </g>
    <g>
     <circle stroke="black" stroke-width="0.5" fill="#aaffff" cx="180.0" cy="537.0" r="1.0"/>
     <text stroke="none" x="180.0" y="537.0" font-size="10.0" font-family="helvetica">NT1.5</text>
    </g>
    <g>
     <circle stroke="black" stroke-width="0.5" fill="#aaffff" cx="193.0" cy="382.0" r="1.0"/>
     <text stroke="none" x="193.0" y="382.0" font-size="10.0" font-family="helvetica">NT1.6</text>
    </g>
    <g>
     <circle stroke="black" stroke-width="0.5" fill="#aaffff" cx="267.0" cy="242.0" r="1.0"/>
     <text stroke="none" x="267.0" y="242.0" font-size="10.0" font-family="helvetica">NT1.7</text>
    </g>
    <g>
     <circle stroke="black" stroke-width="0.5" fill="#aaffff" cx="284.0" cy="481.0" r="1.0"/>
     <text stroke="none" x="284.0" y="481.0" font-size="10.0" font-family="helvetica">NT1.8</text>
    </g>
    <g>
     <circle stroke="black" stroke-width="0.5" fill="#aaffff" cx="285.0" cy="479.0" r="1.0"/>
     <text stroke="none" x="285.0" y="479.0" font-size="10.0" font-family="helvetica">NT1.9</text>
    </g>
    <g>
     <circle stroke="black" stroke-width="0.5" fill="#aaffff" cx="300.0" cy="413.0" r="1.0"/>
     <text stroke="none" x="300.0" y="413.0" font-size="10.0" font-family="helvetica">NT1.10</text>
    </g>
    <g>
     <circle stroke="black" stroke-width="0.5" fill="#aaffff" cx="305.0" cy="156.0" r="1.0"/>
     <text stroke="none" x="305.0" y="156.0" font-size="10.0" font-family="helvetica">NT1.11</text>
    </g>
    <g>
     <circle stroke="black" stroke-width="0.5" fill="#aaffff" cx="318.0" cy="384.0" r="1.0"/>
     <text stroke="none" x="318.0" y="384.0" font-size="10.0" font-family="helvetica">NT1.12</text>
    </g>
    <g>
     <circle stroke="black" stroke-width="0.5" fill="#aaffff" cx="322.0" cy="517.0" r="1.0"/>
     <text stroke="none" x="322.0" y="517.0" font-size="20.0" font-family="helvetica">Psychroserpens bunonensis ACAM 188T (U62913)</text>
    </g>
    <g>
     <circle stroke="black" stroke-width="0.5" fill="#aaffff" cx="328.0" cy="325.0" r="1.0"/>
     <text stroke="none" x="328.0" y="325.0" font-size="20.0" font-family="helvetica">Tenacibaculum maritimum IFO 159467 (AB078057)</text>
    </g>
    <g>
     <circle stroke="black" stroke-width="0.5" fill="#aaffff" cx="332.0" cy="190.0" r="1.0"/>
     <text stroke="none" x="332.0" y="190.0" font-size="10.0" font-family="helvetica">NT1.15</text>
    </g>
    <g>
     <circle stroke="black" stroke-width="0.5" fill="#aaffff" cx="336.0" cy="364.0" r="1.0"/>
     <text stroke="none" x="336.0" y="364.0" font-size="20.0" font-family="helvetica">Polaribacter glomeratus ATCC 438447 (M58775)</text>
    </g>
    <g>
     <circle stroke="black" stroke-width="0.5" fill="#aaffff" cx="336.0" cy="96.0" r="1.0"/>
     <text stroke="none" x="336.0" y="96.0" font-size="20.0" font-family="helvetica">100</text>
    </g>
    <g>
     <circle stroke="black" stroke-width="0.5" fill="#aaffff" cx="339.0" cy="132.0" r="1.0"/>
     <text stroke="none" x="339.0" y="132.0" font-size="10.0" font-family="helvetica">NT1.18</text>
    </g>
    <g>
     <circle stroke="black" stroke-width="0.5" fill="#aaffff" cx="341.0" cy="16.0" r="1.0"/>
     <text stroke="none" x="341.0" y="16.0" font-size="10.0" font-family="helvetica">NT1.19</text>
    </g>
    <g>
     <circle stroke="black" stroke-width="0.5" fill="#aaffff" cx="341.0" cy="94.0" r="1.0"/>
     <text stroke="none" x="341.0" y="94.0" font-size="10.0" font-family="helvetica">NT1.20</text>
    </g>
    <g>
     <circle stroke="black" stroke-width="0.5" fill="#aaffff" cx="345.0" cy="248.0" r="1.0"/>
     <text stroke="none" x="345.0" y="248.0" font-size="20.0" font-family="helvetica">Tenacibaculum mesophilum MBIC 114OT (ABO32501)</text>
    </g>
    <g>
     <circle stroke="black" stroke-width="0.5" fill="#aaffff" cx="347.0" cy="595.0" r="1.0"/>
     <text stroke="none" x="347.0" y="595.0" font-size="20.0" font-family="helvetica">Cellulophaga lytica ATCC 23178T (M62796)</text>
    </g>
    <g>
     <circle stroke="black" stroke-width="0.5" fill="#aaffff" cx="350.0" cy="441.0" r="1.0"/>
     <text stroke="none" x="350.0" y="441.0" font-size="20.0" font-family="helvetica">Polaribacter franzmannii ATCC 7O0399T (U14586)</text>
    </g>
    <g>
     <circle stroke="black" stroke-width="0.5" fill="#aaffff" cx="351.0" cy="479.0" r="1.0"/>
     <text stroke="none" x="351.0" y="479.0" font-size="20.0" font-family="helvetica">Polaribacter irgensii ATCC 7003987 (M61002)</text>
    </g>
    <g>
     <circle stroke="black" stroke-width="0.5" fill="#aaffff" cx="362.0" cy="402.0" r="1.0"/>
     <text stroke="none" x="362.0" y="402.0" font-size="20.0" font-family="helvetica">Polaribacter filamentus ATCC 7O0397T (U73726)</text>
    </g>
    <g>
     <circle stroke="black" stroke-width="0.5" fill="#aaffff" cx="364.0" cy="672.0" r="1.0"/>
     <text stroke="none" x="364.0" y="672.0" font-size="20.0" font-family="helvetica">Flavobacterium aquatile ATCC 11947T (M62797)</text>
    </g>
    <g>
     <circle stroke="black" stroke-width="0.5" fill="#aaffff" cx="367.0" cy="171.0" r="1.0"/>
     <text stroke="none" x="367.0" y="171.0" font-size="10.0" font-family="helvetica">NT1.27</text>
    </g>
    <g>
     <circle stroke="black" stroke-width="0.5" fill="#aaffff" cx="377.0" cy="286.0" r="1.0"/>
     <text stroke="none" x="377.0" y="286.0" font-size="20.0" font-family="helvetica">Tenacibaculum ovolyticum IAM 14318T (AB032506)</text>
    </g>
    <g>
     <circle stroke="black" stroke-width="0.5" fill="#aaffff" cx="381.0" cy="556.0" r="1.0"/>
     <text stroke="none" x="381.0" y="556.0" font-size="20.0" font-family="helvetica">Gelidibacter algens ACAM 5367 (U62914)</text>
    </g>
    <g>
     <circle stroke="black" stroke-width="0.5" fill="#aaffff" cx="396.0" cy="209.0" r="1.0"/>
     <text stroke="none" x="396.0" y="209.0" font-size="20.0" font-family="helvetica">Tenacibaculum amylolyticum MBIC 4355T (AB032505)</text>
    </g>
    <g>
     <circle stroke="black" stroke-width="0.5" fill="#aaffff" cx="430.0" cy="633.0" r="1.0"/>
     <text stroke="none" x="430.0" y="633.0" font-size="20.0" font-family="helvetica">Coenonia anatina LMG 14382T (Y17612)</text>
    </g>
    <g>
     <circle stroke="black" stroke-width="0.5" fill="#aaffff" cx="643.0" cy="711.0" r="1.0"/>
     <text stroke="none" x="643.0" y="711.0" font-size="20.0" font-family="helvetica">Cytophaga hutchinsonii ATCC 334067 (M58768)</text>
    </g>
    <g>
     <circle stroke="black" stroke-width="0.5" fill="#aaffff" cx="4.0" cy="611.0" r="1.0"/>
     <text stroke="none" x="4.0" y="611.0" font-size="10.0" font-family="helvetica">NT1.33</text>
    </g>
    <line stroke="black" x1="396.0" y1="209.0" x2="332.0" y2="190.0" stroke-width="0.5"/>
    <line stroke="black" x1="345.0" y1="248.0" x2="305.0" y2="156.0" stroke-width="0.5"/>
    <line stroke="black" x1="377.0" y1="286.0" x2="267.0" y2="242.0" stroke-width="0.5"/>
    <line stroke="black" x1="328.0" y1="325.0" x2="193.0" y2="382.0" stroke-width="0.5"/>
    <line stroke="black" x1="351.0" y1="479.0" x2="285.0" y2="479.0" stroke-width="0.5"/>
    <line stroke="black" x1="362.0" y1="402.0" x2="318.0" y2="384.0" stroke-width="0.5"/>
    <line stroke="black" x1="322.0" y1="517.0" x2="180.0" y2="537.0" stroke-width="0.5"/>
    <line stroke="black" x1="364.0" y1="672.0" x2="139.0" y2="659.0" stroke-width="0.5"/>
    <line stroke="black" x1="381.0" y1="556.0" x2="180.0" y2="537.0" stroke-width="0.5"/>
    <line stroke="black" x1="430.0" y1="633.0" x2="139.0" y2="659.0" stroke-width="0.5"/>
    <line stroke="black" x1="305.0" y1="156.0" x2="267.0" y2="242.0" stroke-width="0.5"/>
    <line stroke="black" x1="267.0" y1="242.0" x2="193.0" y2="382.0" stroke-width="0.5"/>
    <line stroke="black" x1="193.0" y1="382.0" x2="46.0" y2="492.0" stroke-width="0.5"/>
    <line stroke="black" x1="193.0" y1="382.0" x2="300.0" y2="413.0" stroke-width="0.5"/>
    <line stroke="black" x1="46.0" y1="492.0" x2="116.0" y2="609.0" stroke-width="0.5"/>
    <line stroke="black" x1="300.0" y1="413.0" x2="318.0" y2="384.0" stroke-width="0.5"/>
    <line stroke="black" x1="116.0" y1="609.0" x2="136.0" y2="566.0" stroke-width="0.5"/>
    <line stroke="black" x1="116.0" y1="609.0" x2="139.0" y2="659.0" stroke-width="0.5"/>
    <line stroke="black" x1="136.0" y1="566.0" x2="180.0" y2="537.0" stroke-width="0.5"/>
    <line stroke="black" x1="4.0" y1="611.0" x2="46.0" y2="492.0" stroke-width="0.5"/>
    <line stroke="black" x1="643.0" y1="711.0" x2="4.0" y2="611.0" stroke-width="0.5"/>
    <line stroke="black" x1="347.0" y1="595.0" x2="136.0" y2="566.0" stroke-width="0.5"/>
    <line stroke="black" x1="350.0" y1="441.0" x2="300.0" y2="413.0" stroke-width="0.5"/>
    <line stroke="black" x1="336.0" y1="364.0" x2="318.0" y2="384.0" stroke-width="0.5"/>
   </g>
  </g>
 </svg>
</svg>
