<?xml version="1.0" encoding="UTF-8"?>
<svg height="800.0" width="700.0" xmlns="http://www.w3.org/2000/svg">
 <svg>
  <g>
   <g>
    <g>
     <circle stroke="black" stroke-width="0.5" fill="#aaffff" cx="20.0" cy="755.0" r="1.0"/>
     <text stroke="none" x="20.0" y="755.0" font-size="20.0" font-family="helvetica"/>
    </g>
    <g>
     <circle stroke="black" stroke-width="0.5" fill="#aaffff" cx="34.0" cy="755.0" r="1.0"/>
     <text stroke="none" x="34.0" y="755.0" font-size="10.0" font-family="helvetica">NT1.2</text>
    </g>
    <g>
     <circle stroke="black" stroke-width="0.5" fill="#aaffff" cx="56.0" cy="727.0" r="1.0"/>
     <text stroke="none" x="56.0" y="727.0" font-size="10.0" font-family="helvetica">NT1.3</text>
    </g>
    <g>
     <circle stroke="black" stroke-width="0.5" fill="#aaffff" cx="96.0" cy="606.0" r="1.0"/>
     <text stroke="none" x="96.0" y="606.0" font-size="10.0" font-family="helvetica">NT1.4</text>
    </g>
    <g>
     <circle stroke="black" stroke-width="0.5" fill="#aaffff" cx="118.0" cy="489.0" r="1.0"/>
     <text stroke="none" x="118.0" y="489.0" font-size="10.0" font-family="helvetica">NT1.5</text>
    </g>
    <g>
     <circle stroke="black" stroke-width="0.5" fill="#aaffff" cx="155.0" cy="433.0" r="1.0"/>
     <text stroke="none" x="155.0" y="433.0" font-size="10.0" font-family="helvetica">NT1.6</text>
    </g>
    <g>
     <circle stroke="black" stroke-width="0.5" fill="#aaffff" cx="230.0" cy="199.0" r="1.0"/>
     <text stroke="none" x="230.0" y="199.0" font-size="20.0" font-family="helvetica">77</text>
    </g>
    <g>
     <circle stroke="black" stroke-width="0.5" fill="#aaffff" cx="239.0" cy="722.0" r="1.0"/>
     <text stroke="none" x="239.0" y="722.0" font-size="20.0" font-family="helvetica">Vibrio penaeicida DSM 143987 (AJ421444)</text>
    </g>
    <g>
     <circle stroke="black" stroke-width="0.5" fill="#aaffff" cx="269.0" cy="467.0" r="1.0"/>
     <text stroke="none" x="269.0" y="467.0" font-size="20.0" font-family="helvetica">Vibrio halioticoli IAM 145967 (ABOOO390)</text>
    </g>
    <g>
     <circle stroke="black" stroke-width="0.5" fill="#aaffff" cx="289.0" cy="518.0" r="1.0"/>
     <text stroke="none" x="289.0" y="518.0" font-size="20.0" font-family="helvetica"> Vibrio superstes LMG 213237 (AF519806)</text>
    </g>
    <g>
     <circle stroke="black" stroke-width="0.5" fill="#aaffff" cx="289.0" cy="772.0" r="1.0"/>
     <text stroke="none" x="289.0" y="772.0" font-size="20.0" font-family="helvetica">Vibrio agarivorans CECT 50857 (AJ310647)</text>
    </g>
    <g>
     <circle stroke="black" stroke-width="0.5" fill="#aaffff" cx="342.0" cy="632.0" r="1.0"/>
     <text stroke="none" x="342.0" y="632.0" font-size="20.0" font-family="helvetica">99</text>
    </g>
    <g>
     <circle stroke="black" stroke-width="0.5" fill="#aaffff" cx="361.0" cy="91.0" r="1.0"/>
     <text stroke="none" x="361.0" y="91.0" font-size="10.0" font-family="helvetica">NT1.13</text>
    </g>
    <g>
     <circle stroke="black" stroke-width="0.5" fill="#aaffff" cx="362.0" cy="10.0" r="1.0"/>
     <text stroke="none" x="362.0" y="10.0" font-size="20.0" font-family="helvetica">Vibrio gallicus CIP 107864 (AY257971)</text>
    </g>
    <g>
     <circle stroke="black" stroke-width="0.5" fill="#aaffff" cx="370.0" cy="168.0" r="1.0"/>
     <text stroke="none" x="370.0" y="168.0" font-size="10.0" font-family="helvetica">NT1.15</text>
    </g>
    <g>
     <circle stroke="black" stroke-width="0.5" fill="#aaffff" cx="371.0" cy="213.0" r="1.0"/>
     <text stroke="none" x="371.0" y="213.0" font-size="20.0" font-family="helvetica">Vibrio gallicus CIP 107867 (AY257975)</text>
    </g>
    <g>
     <circle stroke="black" stroke-width="0.5" fill="#aaffff" cx="371.0" cy="61.0" r="1.0"/>
     <text stroke="none" x="371.0" y="61.0" font-size="20.0" font-family="helvetica">Vibrio gallicus CIP 1078637 (AY257972)</text>
    </g>
    <g>
     <circle stroke="black" stroke-width="0.5" fill="#aaffff" cx="377.0" cy="308.0" r="1.0"/>
     <text stroke="none" x="377.0" y="308.0" font-size="20.0" font-family="helvetica">99</text>
    </g>
    <g>
     <circle stroke="black" stroke-width="0.5" fill="#aaffff" cx="379.0" cy="822.0" r="1.0"/>
     <text stroke="none" x="379.0" y="822.0" font-size="20.0" font-family="helvetica">Vibrio rumoiensis S917 (ABO13297)</text>
    </g>
    <g>
     <circle stroke="black" stroke-width="0.5" fill="#aaffff" cx="406.0" cy="595.0" r="1.0"/>
     <text stroke="none" x="406.0" y="595.0" font-size="20.0" font-family="helvetica">90</text>
    </g>
    <g>
     <circle stroke="black" stroke-width="0.5" fill="#aaffff" cx="461.0" cy="353.0" r="1.0"/>
     <text stroke="none" x="461.0" y="353.0" font-size="10.0" font-family="helvetica">NT1.21</text>
    </g>
    <g>
     <circle stroke="black" stroke-width="0.5" fill="#aaffff" cx="506.0" cy="567.0" r="1.0"/>
     <text stroke="none" x="506.0" y="567.0" font-size="20.0" font-family="helvetica"> Photobacterium angustum ATCC 259157 (D25307)</text>
    </g>
    <g>
     <circle stroke="black" stroke-width="0.5" fill="#aaffff" cx="512.0" cy="670.0" r="1.0"/>
     <text stroke="none" x="512.0" y="670.0" font-size="20.0" font-family="helvetica">Photobacterium leiognathi ATCC 255217 (X74686)</text>
    </g>
    <g>
     <circle stroke="black" stroke-width="0.5" fill="#aaffff" cx="527.0" cy="314.0" r="1.0"/>
     <text stroke="none" x="527.0" y="314.0" font-size="10.0" font-family="helvetica">NT1.24</text>
    </g>
    <g>
     <circle stroke="black" stroke-width="0.5" fill="#aaffff" cx="541.0" cy="264.0" r="1.0"/>
     <text stroke="none" x="541.0" y="264.0" font-size="20.0" font-family="helvetica">Vibrio fischeri ATCC 77447 (X74702)</text>
    </g>
    <g>
     <circle stroke="black" stroke-width="0.5" fill="#aaffff" cx="559.0" cy="390.0" r="1.0"/>
     <text stroke="none" x="559.0" y="390.0" font-size="10.0" font-family="helvetica">NT1.26</text>
    </g>
    <g>
     <circle stroke="black" stroke-width="0.5" fill="#aaffff" cx="577.0" cy="416.0" r="1.0"/>
     <text stroke="none" x="577.0" y="416.0" font-size="20.0" font-family="helvetica"> Vibrio logei NCIMB 22527 (AJ437616)</text>
    </g>
    <g>
     <circle stroke="black" stroke-width="0.5" fill="#aaffff" cx="620.0" cy="620.0" r="1.0"/>
     <text stroke="none" x="620.0" y="620.0" font-size="20.0" font-family="helvetica">Phatobacterium phosphoreum ATCC 110407 (D25310)</text>
    </g>
    <g>
     <circle stroke="black" stroke-width="0.5" fill="#aaffff" cx="625.0" cy="366.0" r="1.0"/>
     <text stroke="none" x="625.0" y="366.0" font-size="10.0" font-family="helvetica">NT1.29</text>
    </g>
    <line stroke="black" x1="362.0" y1="10.0" x2="361.0" y2="91.0" stroke-width="0.5"/>
    <line stroke="black" x1="371.0" y1="213.0" x2="370.0" y2="168.0" stroke-width="0.5"/>
    <line stroke="black" x1="371.0" y1="61.0" x2="370.0" y2="168.0" stroke-width="0.5"/>
    <line stroke="black" x1="541.0" y1="264.0" x2="377.0" y2="308.0" stroke-width="0.5"/>
    <line stroke="black" x1="269.0" y1="467.0" x2="155.0" y2="433.0" stroke-width="0.5"/>
    <line stroke="black" x1="289.0" y1="518.0" x2="155.0" y2="433.0" stroke-width="0.5"/>
    <line stroke="black" x1="577.0" y1="416.0" x2="559.0" y2="390.0" stroke-width="0.5"/>
    <line stroke="black" x1="20.0" y1="755.0" x2="34.0" y2="755.0" stroke-width="0.5"/>
    <line stroke="black" x1="239.0" y1="722.0" x2="96.0" y2="606.0" stroke-width="0.5"/>
    <line stroke="black" x1="289.0" y1="772.0" x2="56.0" y2="727.0" stroke-width="0.5"/>
    <line stroke="black" x1="512.0" y1="670.0" x2="342.0" y2="632.0" stroke-width="0.5"/>
    <line stroke="black" x1="506.0" y1="567.0" x2="406.0" y2="595.0" stroke-width="0.5"/>
    <line stroke="black" x1="620.0" y1="620.0" x2="406.0" y2="595.0" stroke-width="0.5"/>
    <line stroke="black" x1="379.0" y1="822.0" x2="34.0" y2="755.0" stroke-width="0.5"/>
    <line stroke="black" x1="361.0" y1="91.0" x2="230.0" y2="199.0" stroke-width="0.5"/>
    <line stroke="black" x1="361.0" y1="91.0" x2="370.0" y2="168.0" stroke-width="0.5"/>
    <line stroke="black" x1="230.0" y1="199.0" x2="155.0" y2="433.0" stroke-width="0.5"/>
    <line stroke="black" x1="230.0" y1="199.0" x2="377.0" y2="308.0" stroke-width="0.5"/>
    <line stroke="black" x1="155.0" y1="433.0" x2="118.0" y2="489.0" stroke-width="0.5"/>
    <line stroke="black" x1="118.0" y1="489.0" x2="96.0" y2="606.0" stroke-width="0.5"/>
    <line stroke="black" x1="118.0" y1="489.0" x2="342.0" y2="632.0" stroke-width="0.5"/>
    <line stroke="black" x1="96.0" y1="606.0" x2="56.0" y2="727.0" stroke-width="0.5"/>
    <line stroke="black" x1="56.0" y1="727.0" x2="34.0" y2="755.0" stroke-width="0.5"/>
    <line stroke="black" x1="342.0" y1="632.0" x2="406.0" y2="595.0" stroke-width="0.5"/>
   </g>
  </g>
 </svg>
</svg>
