<?xml version="1.0" encoding="UTF-8"?>
<svg height="800.0" width="700.0" xmlns="http://www.w3.org/2000/svg">
 <svg>
  <g>
   <g>
    <g>
     <circle stroke="black" stroke-width="0.5" fill="#aaffff" cx="22.0" cy="441.0" r="1.0"/>
     <text stroke="none" x="22.0" y="441.0" font-size="10.0" font-family="helvetica">NT1.1</text>
    </g>
    <g>
     <circle stroke="black" stroke-width="0.5" fill="#aaffff" cx="95.0" cy="579.0" r="1.0"/>
     <text stroke="none" x="95.0" y="579.0" font-size="20.0" font-family="helvetica">mom</text>
    </g>
    <g>
     <circle stroke="black" stroke-width="0.5" fill="#aaffff" cx="156.0" cy="533.0" r="1.0"/>
     <text stroke="none" x="156.0" y="533.0" font-size="10.0" font-family="helvetica">NT1.3</text>
    </g>
    <g>
     <circle stroke="black" stroke-width="0.5" fill="#aaffff" cx="203.0" cy="625.0" r="1.0"/>
     <text stroke="none" x="203.0" y="625.0" font-size="10.0" font-family="helvetica">NT1.4</text>
    </g>
    <g>
     <circle stroke="black" stroke-width="0.5" fill="#aaffff" cx="206.0" cy="794.0" r="1.0"/>
     <text stroke="none" x="206.0" y="794.0" font-size="10.0" font-family="helvetica">NT1.5</text>
    </g>
    <g>
     <circle stroke="black" stroke-width="0.5" fill="#aaffff" cx="226.0" cy="650.0" r="1.0"/>
     <text stroke="none" x="226.0" y="650.0" font-size="20.0" font-family="helvetica"> Shewanella pneumatophori JCM 13187T (AB204519)</text>
    </g>
    <g>
     <circle stroke="black" stroke-width="0.5" fill="#aaffff" cx="239.0" cy="600.0" r="1.0"/>
     <text stroke="none" x="239.0" y="600.0" font-size="10.0" font-family="helvetica">NT1.7</text>
    </g>
    <g>
     <circle stroke="black" stroke-width="0.5" fill="#aaffff" cx="242.0" cy="617.0" r="1.0"/>
     <text stroke="none" x="242.0" y="617.0" font-size="20.0" font-family="helvetica"/>
    </g>
    <g>
     <circle stroke="black" stroke-width="0.5" fill="#aaffff" cx="244.0" cy="306.0" r="1.0"/>
     <text stroke="none" x="244.0" y="306.0" font-size="10.0" font-family="helvetica">NT1.9</text>
    </g>
    <g>
     <circle stroke="black" stroke-width="0.5" fill="#aaffff" cx="244.0" cy="834.0" r="1.0"/>
     <text stroke="none" x="244.0" y="834.0" font-size="10.0" font-family="helvetica">NT1.10</text>
    </g>
    <g>
     <circle stroke="black" stroke-width="0.5" fill="#aaffff" cx="247.0" cy="549.0" r="1.0"/>
     <text stroke="none" x="247.0" y="549.0" font-size="20.0" font-family="helvetica">Shewanella denihificans ATCC BAA-10907 (AJ311964)</text>
    </g>
    <g>
     <circle stroke="black" stroke-width="0.5" fill="#aaffff" cx="250.0" cy="582.0" r="1.0"/>
     <text stroke="none" x="250.0" y="582.0" font-size="20.0" font-family="helvetica">Shewanella kaireitica d954 (AB201781)</text>
    </g>
    <g>
     <circle stroke="black" stroke-width="0.5" fill="#aaffff" cx="253.0" cy="754.0" r="1.0"/>
     <text stroke="none" x="253.0" y="754.0" font-size="10.0" font-family="helvetica">NT1.13</text>
    </g>
    <g>
     <circle stroke="black" stroke-width="0.5" fill="#aaffff" cx="258.0" cy="228.0" r="1.0"/>
     <text stroke="none" x="258.0" y="228.0" font-size="20.0" font-family="helvetica">was</text>
    </g>
    <g>
     <circle stroke="black" stroke-width="0.5" fill="#aaffff" cx="266.0" cy="383.0" r="1.0"/>
     <text stroke="none" x="266.0" y="383.0" font-size="20.0" font-family="helvetica">d</text>
    </g>
    <g>
     <circle stroke="black" stroke-width="0.5" fill="#aaffff" cx="271.0" cy="450.0" r="1.0"/>
     <text stroke="none" x="271.0" y="450.0" font-size="20.0" font-family="helvetica">e</text>
    </g>
    <g>
     <circle stroke="black" stroke-width="0.5" fill="#aaffff" cx="274.0" cy="516.0" r="1.0"/>
     <text stroke="none" x="274.0" y="516.0" font-size="20.0" font-family="helvetica"/>
    </g>
    <g>
     <circle stroke="black" stroke-width="0.5" fill="#aaffff" cx="275.0" cy="173.0" r="1.0"/>
     <text stroke="none" x="275.0" y="173.0" font-size="10.0" font-family="helvetica">NT1.18</text>
    </g>
    <g>
     <circle stroke="black" stroke-width="0.5" fill="#aaffff" cx="277.0" cy="116.0" r="1.0"/>
     <text stroke="none" x="277.0" y="116.0" font-size="10.0" font-family="helvetica">NT1.19</text>
    </g>
    <g>
     <circle stroke="black" stroke-width="0.5" fill="#aaffff" cx="277.0" cy="230.0" r="1.0"/>
     <text stroke="none" x="277.0" y="230.0" font-size="10.0" font-family="helvetica">NT1.20</text>
    </g>
    <g>
     <circle stroke="black" stroke-width="0.5" fill="#aaffff" cx="278.0" cy="483.0" r="1.0"/>
     <text stroke="none" x="278.0" y="483.0" font-size="20.0" font-family="helvetica"> Moritella sp. HAS1123 (ABO11354)</text>
    </g>
    <g>
     <circle stroke="black" stroke-width="0.5" fill="#aaffff" cx="278.0" cy="216.0" r="1.0"/>
     <text stroke="none" x="278.0" y="216.0" font-size="20.0" font-family="helvetica">Moritella sp. 47B1 (AB183505)</text>
    </g>
    <g>
     <circle stroke="black" stroke-width="0.5" fill="#aaffff" cx="278.0" cy="248.0" r="1.0"/>
     <text stroke="none" x="278.0" y="248.0" font-size="20.0" font-family="helvetica"/>
    </g>
    <g>
     <circle stroke="black" stroke-width="0.5" fill="#aaffff" cx="278.0" cy="181.0" r="1.0"/>
     <text stroke="none" x="278.0" y="181.0" font-size="20.0" font-family="helvetica">Moritella sp. T4708 (AB183507)</text>
    </g>
    <g>
     <circle stroke="black" stroke-width="0.5" fill="#aaffff" cx="278.0" cy="48.0" r="1.0"/>
     <text stroke="none" x="278.0" y="48.0" font-size="20.0" font-family="helvetica">Moritella sp. 56A1 (AB183749)</text>
    </g>
    <g>
     <circle stroke="black" stroke-width="0.5" fill="#aaffff" cx="282.0" cy="851.0" r="1.0"/>
     <text stroke="none" x="282.0" y="851.0" font-size="20.0" font-family="helvetica"> Colwellia aestuarii KCTC 12480T (DQ055844)</text>
    </g>
    <g>
     <circle stroke="black" stroke-width="0.5" fill="#aaffff" cx="282.0" cy="420.0" r="1.0"/>
     <text stroke="none" x="282.0" y="420.0" font-size="20.0" font-family="helvetica">d</text>
    </g>
    <g>
     <circle stroke="black" stroke-width="0.5" fill="#aaffff" cx="283.0" cy="449.0" r="1.0"/>
     <text stroke="none" x="283.0" y="449.0" font-size="20.0" font-family="helvetica">Vibrio viscosus NCIMB 13584T (AJ132226)</text>
    </g>
    <g>
     <circle stroke="black" stroke-width="0.5" fill="#aaffff" cx="285.0" cy="392.0" r="1.0"/>
     <text stroke="none" x="285.0" y="392.0" font-size="20.0" font-family="helvetica">d</text>
    </g>
    <g>
     <circle stroke="black" stroke-width="0.5" fill="#aaffff" cx="289.0" cy="283.0" r="1.0"/>
     <text stroke="none" x="289.0" y="283.0" font-size="20.0" font-family="helvetica"> ArB 01407 (EF192283)</text>
    </g>
    <g>
     <circle stroke="black" stroke-width="0.5" fill="#aaffff" cx="289.0" cy="726.0" r="1.0"/>
     <text stroke="none" x="289.0" y="726.0" font-size="10.0" font-family="helvetica">NT1.31</text>
    </g>
    <g>
     <circle stroke="black" stroke-width="0.5" fill="#aaffff" cx="291.0" cy="348.0" r="1.0"/>
     <text stroke="none" x="291.0" y="348.0" font-size="20.0" font-family="helvetica"/>
    </g>
    <g>
     <circle stroke="black" stroke-width="0.5" fill="#aaffff" cx="296.0" cy="415.0" r="1.0"/>
     <text stroke="none" x="296.0" y="415.0" font-size="20.0" font-family="helvetica">Moritella japonica JCM 102497 (D21224)</text>
    </g>
    <g>
     <circle stroke="black" stroke-width="0.5" fill="#aaffff" cx="302.0" cy="700.0" r="1.0"/>
     <text stroke="none" x="302.0" y="700.0" font-size="10.0" font-family="helvetica">NT1.34</text>
    </g>
    <g>
     <circle stroke="black" stroke-width="0.5" fill="#aaffff" cx="305.0" cy="818.0" r="1.0"/>
     <text stroke="none" x="305.0" y="818.0" font-size="20.0" font-family="helvetica">Colwellia piezophila SE15 JCM 118317 (AY771749)</text>
    </g>
    <g>
     <circle stroke="black" stroke-width="0.5" fill="#aaffff" cx="309.0" cy="315.0" r="1.0"/>
     <text stroke="none" x="309.0" y="315.0" font-size="20.0" font-family="helvetica"/>
    </g>
    <g>
     <circle stroke="black" stroke-width="0.5" fill="#aaffff" cx="327.0" cy="785.0" r="1.0"/>
     <text stroke="none" x="327.0" y="785.0" font-size="20.0" font-family="helvetica"> Colwellia homerae ACAM 607T (U85847)</text>
    </g>
    <g>
     <circle stroke="black" stroke-width="0.5" fill="#aaffff" cx="329.0" cy="716.0" r="1.0"/>
     <text stroke="none" x="329.0" y="716.0" font-size="20.0" font-family="helvetica"/>
    </g>
    <g>
     <circle stroke="black" stroke-width="0.5" fill="#aaffff" cx="333.0" cy="683.0" r="1.0"/>
     <text stroke="none" x="333.0" y="683.0" font-size="20.0" font-family="helvetica"/>
    </g>
    <g>
     <circle stroke="black" stroke-width="0.5" fill="#aaffff" cx="367.0" cy="750.0" r="1.0"/>
     <text stroke="none" x="367.0" y="750.0" font-size="20.0" font-family="helvetica">Colwellia rossensis ANT9279 (AY16731 1)</text>
    </g>
    <g>
     <circle stroke="black" stroke-width="0.5" fill="#aaffff" cx="489.0" cy="4.0" r="1.0"/>
     <text stroke="none" x="489.0" y="4.0" font-size="20.0" font-family="helvetica">99</text>
    </g>
    <g>
     <circle stroke="black" stroke-width="0.5" fill="#aaffff" cx="497.0" cy="13.0" r="1.0"/>
     <text stroke="none" x="497.0" y="13.0" font-size="20.0" font-family="helvetica">99</text>
    </g>
    <g>
     <circle stroke="black" stroke-width="0.5" fill="#aaffff" cx="508.0" cy="23.0" r="1.0"/>
     <text stroke="none" x="508.0" y="23.0" font-size="20.0" font-family="helvetica"/>
    </g>
    <line stroke="black" x1="226.0" y1="650.0" x2="203.0" y2="625.0" stroke-width="0.5"/>
    <line stroke="black" x1="247.0" y1="549.0" x2="156.0" y2="533.0" stroke-width="0.5"/>
    <line stroke="black" x1="242.0" y1="617.0" x2="239.0" y2="600.0" stroke-width="0.5"/>
    <line stroke="black" x1="250.0" y1="582.0" x2="239.0" y2="600.0" stroke-width="0.5"/>
    <line stroke="black" x1="274.0" y1="516.0" x2="156.0" y2="533.0" stroke-width="0.5"/>
    <line stroke="black" x1="289.0" y1="283.0" x2="258.0" y2="228.0" stroke-width="0.5"/>
    <line stroke="black" x1="278.0" y1="483.0" x2="271.0" y2="450.0" stroke-width="0.5"/>
    <line stroke="black" x1="309.0" y1="315.0" x2="266.0" y2="383.0" stroke-width="0.5"/>
    <line stroke="black" x1="278.0" y1="216.0" x2="277.0" y2="230.0" stroke-width="0.5"/>
    <line stroke="black" x1="278.0" y1="248.0" x2="277.0" y2="230.0" stroke-width="0.5"/>
    <line stroke="black" x1="283.0" y1="449.0" x2="282.0" y2="420.0" stroke-width="0.5"/>
    <line stroke="black" x1="296.0" y1="415.0" x2="285.0" y2="392.0" stroke-width="0.5"/>
    <line stroke="black" x1="278.0" y1="181.0" x2="277.0" y2="116.0" stroke-width="0.5"/>
    <line stroke="black" x1="278.0" y1="48.0" x2="277.0" y2="116.0" stroke-width="0.5"/>
    <line stroke="black" x1="282.0" y1="851.0" x2="244.0" y2="834.0" stroke-width="0.5"/>
    <line stroke="black" x1="305.0" y1="818.0" x2="244.0" y2="834.0" stroke-width="0.5"/>
    <line stroke="black" x1="327.0" y1="785.0" x2="253.0" y2="754.0" stroke-width="0.5"/>
    <line stroke="black" x1="329.0" y1="716.0" x2="302.0" y2="700.0" stroke-width="0.5"/>
    <line stroke="black" x1="333.0" y1="683.0" x2="302.0" y2="700.0" stroke-width="0.5"/>
    <line stroke="black" x1="367.0" y1="750.0" x2="289.0" y2="726.0" stroke-width="0.5"/>
    <line stroke="black" x1="489.0" y1="4.0" x2="489.0" y2="4.0" stroke-width="0.5"/>
    <line stroke="black" x1="489.0" y1="4.0" x2="497.0" y2="13.0" stroke-width="0.5"/>
    <line stroke="black" x1="497.0" y1="13.0" x2="508.0" y2="23.0" stroke-width="0.5"/>
    <line stroke="black" x1="22.0" y1="441.0" x2="206.0" y2="794.0" stroke-width="0.5"/>
    <line stroke="black" x1="22.0" y1="441.0" x2="244.0" y2="306.0" stroke-width="0.5"/>
    <line stroke="black" x1="22.0" y1="441.0" x2="95.0" y2="579.0" stroke-width="0.5"/>
    <line stroke="black" x1="95.0" y1="579.0" x2="203.0" y2="625.0" stroke-width="0.5"/>
    <line stroke="black" x1="95.0" y1="579.0" x2="156.0" y2="533.0" stroke-width="0.5"/>
    <line stroke="black" x1="244.0" y1="306.0" x2="266.0" y2="383.0" stroke-width="0.5"/>
    <line stroke="black" x1="244.0" y1="306.0" x2="258.0" y2="228.0" stroke-width="0.5"/>
    <line stroke="black" x1="203.0" y1="625.0" x2="239.0" y2="600.0" stroke-width="0.5"/>
    <line stroke="black" x1="258.0" y1="228.0" x2="275.0" y2="173.0" stroke-width="0.5"/>
    <line stroke="black" x1="266.0" y1="383.0" x2="271.0" y2="450.0" stroke-width="0.5"/>
    <line stroke="black" x1="275.0" y1="173.0" x2="277.0" y2="230.0" stroke-width="0.5"/>
    <line stroke="black" x1="275.0" y1="173.0" x2="277.0" y2="116.0" stroke-width="0.5"/>
    <line stroke="black" x1="271.0" y1="450.0" x2="282.0" y2="420.0" stroke-width="0.5"/>
    <line stroke="black" x1="206.0" y1="794.0" x2="244.0" y2="834.0" stroke-width="0.5"/>
    <line stroke="black" x1="206.0" y1="794.0" x2="253.0" y2="754.0" stroke-width="0.5"/>
    <line stroke="black" x1="282.0" y1="420.0" x2="285.0" y2="392.0" stroke-width="0.5"/>
    <line stroke="black" x1="253.0" y1="754.0" x2="289.0" y2="726.0" stroke-width="0.5"/>
    <line stroke="black" x1="289.0" y1="726.0" x2="302.0" y2="700.0" stroke-width="0.5"/>
    <line stroke="black" x1="497.0" y1="13.0" x2="22.0" y2="441.0" stroke-width="0.5"/>
    <line stroke="black" x1="291.0" y1="348.0" x2="285.0" y2="392.0" stroke-width="0.5"/>
   </g>
  </g>
 </svg>
</svg>
