<?xml version="1.0" encoding="UTF-8"?>
<svg height="800.0" width="700.0" xmlns="http://www.w3.org/2000/svg">
 <svg>
  <g>
   <g>
    <g>
     <circle stroke="black" stroke-width="0.5" fill="#aaffff" cx="38.0" cy="230.0" r="1.0"/>
     <text stroke="none" x="38.0" y="230.0" font-size="10.0" font-family="helvetica">NT1.1</text>
    </g>
    <g>
     <circle stroke="black" stroke-width="0.5" fill="#aaffff" cx="42.0" cy="47.0" r="1.0"/>
     <text stroke="none" x="42.0" y="47.0" font-size="20.0" font-family="helvetica">55</text>
    </g>
    <g>
     <circle stroke="black" stroke-width="0.5" fill="#aaffff" cx="56.0" cy="332.0" r="1.0"/>
     <text stroke="none" x="56.0" y="332.0" font-size="10.0" font-family="helvetica">NT1.3</text>
    </g>
    <g>
     <circle stroke="black" stroke-width="0.5" fill="#aaffff" cx="66.0" cy="619.0" r="1.0"/>
     <text stroke="none" x="66.0" y="619.0" font-size="10.0" font-family="helvetica">NT1.4</text>
    </g>
    <g>
     <circle stroke="black" stroke-width="0.5" fill="#aaffff" cx="67.0" cy="73.0" r="1.0"/>
     <text stroke="none" x="67.0" y="73.0" font-size="20.0" font-family="helvetica">83</text>
    </g>
    <g>
     <circle stroke="black" stroke-width="0.5" fill="#aaffff" cx="67.0" cy="184.0" r="1.0"/>
     <text stroke="none" x="67.0" y="184.0" font-size="10.0" font-family="helvetica">NT1.6</text>
    </g>
    <g>
     <circle stroke="black" stroke-width="0.5" fill="#aaffff" cx="68.0" cy="350.0" r="1.0"/>
     <text stroke="none" x="68.0" y="350.0" font-size="10.0" font-family="helvetica">NT1.7</text>
    </g>
    <g>
     <circle stroke="black" stroke-width="0.5" fill="#aaffff" cx="74.0" cy="731.0" r="1.0"/>
     <text stroke="none" x="74.0" y="731.0" font-size="20.0" font-family="helvetica">97</text>
    </g>
    <g>
     <circle stroke="black" stroke-width="0.5" fill="#aaffff" cx="76.0" cy="507.0" r="1.0"/>
     <text stroke="none" x="76.0" y="507.0" font-size="10.0" font-family="helvetica">NT1.9</text>
    </g>
    <g>
     <circle stroke="black" stroke-width="0.5" fill="#aaffff" cx="87.0" cy="648.0" r="1.0"/>
     <text stroke="none" x="87.0" y="648.0" font-size="10.0" font-family="helvetica">NT1.10</text>
    </g>
    <g>
     <circle stroke="black" stroke-width="0.5" fill="#aaffff" cx="90.0" cy="816.0" r="1.0"/>
     <text stroke="none" x="90.0" y="816.0" font-size="10.0" font-family="helvetica">NT1.11</text>
    </g>
    <g>
     <circle stroke="black" stroke-width="0.5" fill="#aaffff" cx="101.0" cy="546.0" r="1.0"/>
     <text stroke="none" x="101.0" y="546.0" font-size="20.0" font-family="helvetica">77</text>
    </g>
    <g>
     <circle stroke="black" stroke-width="0.5" fill="#aaffff" cx="112.0" cy="316.0" r="1.0"/>
     <text stroke="none" x="112.0" y="316.0" font-size="20.0" font-family="helvetica">95</text>
    </g>
    <g>
     <circle stroke="black" stroke-width="0.5" fill="#aaffff" cx="128.0" cy="466.0" r="1.0"/>
     <text stroke="none" x="128.0" y="466.0" font-size="20.0" font-family="helvetica">98</text>
    </g>
    <g>
     <circle stroke="black" stroke-width="0.5" fill="#aaffff" cx="130.0" cy="757.0" r="1.0"/>
     <text stroke="none" x="130.0" y="757.0" font-size="20.0" font-family="helvetica">97</text>
    </g>
    <g>
     <circle stroke="black" stroke-width="0.5" fill="#aaffff" cx="141.0" cy="621.0" r="1.0"/>
     <text stroke="none" x="141.0" y="621.0" font-size="20.0" font-family="helvetica">99</text>
    </g>
    <g>
     <circle stroke="black" stroke-width="0.5" fill="#aaffff" cx="143.0" cy="878.0" r="1.0"/>
     <text stroke="none" x="143.0" y="878.0" font-size="20.0" font-family="helvetica">100</text>
    </g>
    <g>
     <circle stroke="black" stroke-width="0.5" fill="#aaffff" cx="164.0" cy="284.0" r="1.0"/>
     <text stroke="none" x="164.0" y="284.0" font-size="20.0" font-family="helvetica">100</text>
    </g>
    <g>
     <circle stroke="black" stroke-width="0.5" fill="#aaffff" cx="171.0" cy="839.0" r="1.0"/>
     <text stroke="none" x="171.0" y="839.0" font-size="20.0" font-family="helvetica">98</text>
    </g>
    <g>
     <circle stroke="black" stroke-width="0.5" fill="#aaffff" cx="180.0" cy="919.0" r="1.0"/>
     <text stroke="none" x="180.0" y="919.0" font-size="20.0" font-family="helvetica">99</text>
    </g>
    <g>
     <circle stroke="black" stroke-width="0.5" fill="#aaffff" cx="188.0" cy="730.0" r="1.0"/>
     <text stroke="none" x="188.0" y="730.0" font-size="20.0" font-family="helvetica">100</text>
    </g>
    <g>
     <circle stroke="black" stroke-width="0.5" fill="#aaffff" cx="233.0" cy="947.0" r="1.0"/>
     <text stroke="none" x="233.0" y="947.0" font-size="20.0" font-family="helvetica">100</text>
    </g>
    <g>
     <circle stroke="black" stroke-width="0.5" fill="#aaffff" cx="253.0" cy="256.0" r="1.0"/>
     <text stroke="none" x="253.0" y="256.0" font-size="20.0" font-family="helvetica">100</text>
    </g>
    <g>
     <circle stroke="black" stroke-width="0.5" fill="#aaffff" cx="304.0" cy="439.0" r="1.0"/>
     <text stroke="none" x="304.0" y="439.0" font-size="20.0" font-family="helvetica">100</text>
    </g>
    <g>
     <circle stroke="black" stroke-width="0.5" fill="#aaffff" cx="335.0" cy="19.0" r="1.0"/>
     <text stroke="none" x="335.0" y="19.0" font-size="20.0" font-family="helvetica">Pyramidobacter piscolens W5455T (DU723069)</text>
    </g>
    <g>
     <circle stroke="black" stroke-width="0.5" fill="#aaffff" cx="347.0" cy="201.0" r="1.0"/>
     <text stroke="none" x="347.0" y="201.0" font-size="10.0" font-family="helvetica">NT1.26</text>
    </g>
    <g>
     <circle stroke="black" stroke-width="0.5" fill="#aaffff" cx="372.0" cy="55.0" r="1.0"/>
     <text stroke="none" x="372.0" y="55.0" font-size="10.0" font-family="helvetica">NT1.27</text>
    </g>
    <g>
     <circle stroke="black" stroke-width="0.5" fill="#aaffff" cx="388.0" cy="128.0" r="1.0"/>
     <text stroke="none" x="388.0" y="128.0" font-size="20.0" font-family="helvetica">Synechocoocus elongatus PCC 6301T (BAD79413)</text>
    </g>
    <g>
     <circle stroke="black" stroke-width="0.5" fill="#aaffff" cx="391.0" cy="92.0" r="1.0"/>
     <text stroke="none" x="391.0" y="92.0" font-size="20.0" font-family="helvetica">Thermotoga maritime MSB8T (AAD36645)</text>
    </g>
    <g>
     <circle stroke="black" stroke-width="0.5" fill="#aaffff" cx="391.0" cy="529.0" r="1.0"/>
     <text stroke="none" x="391.0" y="529.0" font-size="20.0" font-family="helvetica">Fusobacterium nucleatum ATCC 2558GT (AAL93833)</text>
    </g>
    <g>
     <circle stroke="black" stroke-width="0.5" fill="#aaffff" cx="411.0" cy="966.0" r="1.0"/>
     <text stroke="none" x="411.0" y="966.0" font-size="20.0" font-family="helvetica">Escherichia coli O157rH7 EDL933 (NP_285794)</text>
    </g>
    <g>
     <circle stroke="black" stroke-width="0.5" fill="#aaffff" cx="415.0" cy="347.0" r="1.0"/>
     <text stroke="none" x="415.0" y="347.0" font-size="20.0" font-family="helvetica">Finegoldia magna ATCC 29328 (BAG08949)</text>
    </g>
    <g>
     <circle stroke="black" stroke-width="0.5" fill="#aaffff" cx="418.0" cy="856.0" r="1.0"/>
     <text stroke="none" x="418.0" y="856.0" font-size="20.0" font-family="helvetica">Neisseria gonorrhoeae FA 1090 (AAW89680)</text>
    </g>
    <g>
     <circle stroke="black" stroke-width="0.5" fill="#aaffff" cx="418.0" cy="820.0" r="1.0"/>
     <text stroke="none" x="418.0" y="820.0" font-size="20.0" font-family="helvetica">Bordetella pertussis Tohama (CAE43285)</text>
    </g>
    <g>
     <circle stroke="black" stroke-width="0.5" fill="#aaffff" cx="418.0" cy="893.0" r="1.0"/>
     <text stroke="none" x="418.0" y="893.0" font-size="20.0" font-family="helvetica">Pseudomonas aeruginosa PAO1 (AAG07791)</text>
    </g>
    <g>
     <circle stroke="black" stroke-width="0.5" fill="#aaffff" cx="420.0" cy="237.0" r="1.0"/>
     <text stroke="none" x="420.0" y="237.0" font-size="20.0" font-family="helvetica">Lactobacillus salivarius UCC118 (ABD99994)</text>
    </g>
    <g>
     <circle stroke="black" stroke-width="0.5" fill="#aaffff" cx="425.0" cy="310.0" r="1.0"/>
     <text stroke="none" x="425.0" y="310.0" font-size="20.0" font-family="helvetica">Bacillus subtilis 168 (CAB15547)</text>
    </g>
    <g>
     <circle stroke="black" stroke-width="0.5" fill="#aaffff" cx="431.0" cy="383.0" r="1.0"/>
     <text stroke="none" x="431.0" y="383.0" font-size="20.0" font-family="helvetica">Chloroflexus aurantiacus J-10fI (ABY33776)</text>
    </g>
    <g>
     <circle stroke="black" stroke-width="0.5" fill="#aaffff" cx="434.0" cy="747.0" r="1.0"/>
     <text stroke="none" x="434.0" y="747.0" font-size="20.0" font-family="helvetica">Ochrobactrum anthropi ATCC 491887 (ABS13742)</text>
    </g>
    <g>
     <circle stroke="black" stroke-width="0.5" fill="#aaffff" cx="445.0" cy="493.0" r="1.0"/>
     <text stroke="none" x="445.0" y="493.0" font-size="20.0" font-family="helvetica">Chlorobium tepidum TLST (AAM72469)</text>
    </g>
    <g>
     <circle stroke="black" stroke-width="0.5" fill="#aaffff" cx="447.0" cy="710.0" r="1.0"/>
     <text stroke="none" x="447.0" y="710.0" font-size="20.0" font-family="helvetica">Caulobacter crescentus CB15 (AAK25030)</text>
    </g>
    <g>
     <circle stroke="black" stroke-width="0.5" fill="#aaffff" cx="447.0" cy="929.0" r="1.0"/>
     <text stroke="none" x="447.0" y="929.0" font-size="20.0" font-family="helvetica">Haemophilus influenzae PittGG (ABROO457)</text>
    </g>
    <g>
     <circle stroke="black" stroke-width="0.5" fill="#aaffff" cx="451.0" cy="565.0" r="1.0"/>
     <text stroke="none" x="451.0" y="565.0" font-size="10.0" font-family="helvetica">NT1.43</text>
    </g>
    <g>
     <circle stroke="black" stroke-width="0.5" fill="#aaffff" cx="454.0" cy="783.0" r="1.0"/>
     <text stroke="none" x="454.0" y="783.0" font-size="20.0" font-family="helvetica">Ehrlichia chaffeensis ArkansasT (ABD45253)</text>
    </g>
    <g>
     <circle stroke="black" stroke-width="0.5" fill="#aaffff" cx="464.0" cy="274.0" r="1.0"/>
     <text stroke="none" x="464.0" y="274.0" font-size="20.0" font-family="helvetica">Streptococcus gordonii Challis (ABV11046)</text>
    </g>
    <g>
     <circle stroke="black" stroke-width="0.5" fill="#aaffff" cx="465.0" cy="164.0" r="1.0"/>
     <text stroke="none" x="465.0" y="164.0" font-size="20.0" font-family="helvetica">Rhodopirellula baltica SH1T (CAD79269)</text>
    </g>
    <g>
     <circle stroke="black" stroke-width="0.5" fill="#aaffff" cx="480.0" cy="674.0" r="1.0"/>
     <text stroke="none" x="480.0" y="674.0" font-size="20.0" font-family="helvetica">Treponema denticola ATCC 354O5T (AAS12412)</text>
    </g>
    <g>
     <circle stroke="black" stroke-width="0.5" fill="#aaffff" cx="484.0" cy="638.0" r="1.0"/>
     <text stroke="none" x="484.0" y="638.0" font-size="20.0" font-family="helvetica">Opitutus terrae PBQO-1 (ACB74961)</text>
    </g>
    <g>
     <circle stroke="black" stroke-width="0.5" fill="#aaffff" cx="486.0" cy="419.0" r="1.0"/>
     <text stroke="none" x="486.0" y="419.0" font-size="20.0" font-family="helvetica">Porphyromonas gingivalis W83 (AAQ65708)</text>
    </g>
    <g>
     <circle stroke="black" stroke-width="0.5" fill="#aaffff" cx="490.0" cy="456.0" r="1.0"/>
     <text stroke="none" x="490.0" y="456.0" font-size="20.0" font-family="helvetica">Bacteroides fragilis NCTC 9343T (CAH06724)</text>
    </g>
    <g>
     <circle stroke="black" stroke-width="0.5" fill="#aaffff" cx="581.0" cy="601.0" r="1.0"/>
     <text stroke="none" x="581.0" y="601.0" font-size="20.0" font-family="helvetica">Chlamydia trachomatis DIUW-3lCX (AAC68296)</text>
    </g>
    <g>
     <circle stroke="black" stroke-width="0.5" fill="#aaffff" cx="31.0" cy="138.0" r="1.0"/>
     <text stroke="none" x="31.0" y="138.0" font-size="10.0" font-family="helvetica">NT1.52</text>
    </g>
    <line stroke="black" x1="388.0" y1="128.0" x2="38.0" y2="230.0" stroke-width="0.5"/>
    <line stroke="black" x1="431.0" y1="383.0" x2="68.0" y2="350.0" stroke-width="0.5"/>
    <line stroke="black" x1="425.0" y1="310.0" x2="164.0" y2="284.0" stroke-width="0.5"/>
    <line stroke="black" x1="420.0" y1="237.0" x2="253.0" y2="256.0" stroke-width="0.5"/>
    <line stroke="black" x1="464.0" y1="274.0" x2="253.0" y2="256.0" stroke-width="0.5"/>
    <line stroke="black" x1="465.0" y1="164.0" x2="67.0" y2="184.0" stroke-width="0.5"/>
    <line stroke="black" x1="445.0" y1="493.0" x2="128.0" y2="466.0" stroke-width="0.5"/>
    <line stroke="black" x1="486.0" y1="419.0" x2="304.0" y2="439.0" stroke-width="0.5"/>
    <line stroke="black" x1="490.0" y1="456.0" x2="304.0" y2="439.0" stroke-width="0.5"/>
    <line stroke="black" x1="480.0" y1="674.0" x2="87.0" y2="648.0" stroke-width="0.5"/>
    <line stroke="black" x1="484.0" y1="638.0" x2="141.0" y2="621.0" stroke-width="0.5"/>
    <line stroke="black" x1="418.0" y1="856.0" x2="171.0" y2="839.0" stroke-width="0.5"/>
    <line stroke="black" x1="418.0" y1="820.0" x2="171.0" y2="839.0" stroke-width="0.5"/>
    <line stroke="black" x1="454.0" y1="783.0" x2="130.0" y2="757.0" stroke-width="0.5"/>
    <line stroke="black" x1="418.0" y1="893.0" x2="180.0" y2="919.0" stroke-width="0.5"/>
    <line stroke="black" x1="447.0" y1="710.0" x2="188.0" y2="730.0" stroke-width="0.5"/>
    <line stroke="black" x1="411.0" y1="966.0" x2="233.0" y2="947.0" stroke-width="0.5"/>
    <line stroke="black" x1="447.0" y1="929.0" x2="233.0" y2="947.0" stroke-width="0.5"/>
    <line stroke="black" x1="581.0" y1="601.0" x2="141.0" y2="621.0" stroke-width="0.5"/>
    <line stroke="black" x1="38.0" y1="230.0" x2="56.0" y2="332.0" stroke-width="0.5"/>
    <line stroke="black" x1="56.0" y1="332.0" x2="68.0" y2="350.0" stroke-width="0.5"/>
    <line stroke="black" x1="68.0" y1="350.0" x2="66.0" y2="619.0" stroke-width="0.5"/>
    <line stroke="black" x1="68.0" y1="350.0" x2="112.0" y2="316.0" stroke-width="0.5"/>
    <line stroke="black" x1="112.0" y1="316.0" x2="164.0" y2="284.0" stroke-width="0.5"/>
    <line stroke="black" x1="164.0" y1="284.0" x2="253.0" y2="256.0" stroke-width="0.5"/>
    <line stroke="black" x1="66.0" y1="619.0" x2="74.0" y2="731.0" stroke-width="0.5"/>
    <line stroke="black" x1="66.0" y1="619.0" x2="76.0" y2="507.0" stroke-width="0.5"/>
    <line stroke="black" x1="74.0" y1="731.0" x2="90.0" y2="816.0" stroke-width="0.5"/>
    <line stroke="black" x1="74.0" y1="731.0" x2="87.0" y2="648.0" stroke-width="0.5"/>
    <line stroke="black" x1="76.0" y1="507.0" x2="128.0" y2="466.0" stroke-width="0.5"/>
    <line stroke="black" x1="128.0" y1="466.0" x2="304.0" y2="439.0" stroke-width="0.5"/>
    <line stroke="black" x1="87.0" y1="648.0" x2="141.0" y2="621.0" stroke-width="0.5"/>
    <line stroke="black" x1="90.0" y1="816.0" x2="143.0" y2="878.0" stroke-width="0.5"/>
    <line stroke="black" x1="90.0" y1="816.0" x2="130.0" y2="757.0" stroke-width="0.5"/>
    <line stroke="black" x1="130.0" y1="757.0" x2="188.0" y2="730.0" stroke-width="0.5"/>
    <line stroke="black" x1="143.0" y1="878.0" x2="180.0" y2="919.0" stroke-width="0.5"/>
    <line stroke="black" x1="143.0" y1="878.0" x2="171.0" y2="839.0" stroke-width="0.5"/>
    <line stroke="black" x1="180.0" y1="919.0" x2="233.0" y2="947.0" stroke-width="0.5"/>
    <line stroke="black" x1="31.0" y1="138.0" x2="42.0" y2="47.0" stroke-width="0.5"/>
    <line stroke="black" x1="31.0" y1="138.0" x2="38.0" y2="230.0" stroke-width="0.5"/>
    <line stroke="black" x1="391.0" y1="92.0" x2="67.0" y2="73.0" stroke-width="0.5"/>
    <line stroke="black" x1="335.0" y1="19.0" x2="42.0" y2="47.0" stroke-width="0.5"/>
    <line stroke="black" x1="391.0" y1="529.0" x2="101.0" y2="546.0" stroke-width="0.5"/>
    <line stroke="black" x1="415.0" y1="347.0" x2="112.0" y2="316.0" stroke-width="0.5"/>
    <line stroke="black" x1="434.0" y1="747.0" x2="188.0" y2="730.0" stroke-width="0.5"/>
   </g>
  </g>
 </svg>
</svg>
