<?xml version="1.0" encoding="UTF-8"?>
<svg height="800.0" width="700.0" xmlns="http://www.w3.org/2000/svg">
 <svg>
  <g>
   <g>
    <g>
     <circle stroke="black" stroke-width="0.5" fill="#aaffff" cx="150.0" cy="320.0" r="1.0"/>
     <text stroke="none" x="150.0" y="320.0" font-size="10.0" font-family="helvetica">NT1.1</text>
    </g>
    <g>
     <circle stroke="black" stroke-width="0.5" fill="#aaffff" cx="322.0" cy="507.0" r="1.0"/>
     <text stroke="none" x="322.0" y="507.0" font-size="10.0" font-family="helvetica">NT1.2</text>
    </g>
    <g>
     <circle stroke="black" stroke-width="0.5" fill="#aaffff" cx="531.0" cy="72.0" r="1.0"/>
     <text stroke="none" x="531.0" y="72.0" font-size="10.0" font-family="helvetica">NT1.3</text>
    </g>
    <g>
     <circle stroke="black" stroke-width="0.5" fill="#aaffff" cx="533.0" cy="538.0" r="1.0"/>
     <text stroke="none" x="533.0" y="538.0" font-size="20.0" font-family="helvetica">Sphingobacterium thalpophilum ATCC 43320T (M58779)</text>
    </g>
    <g>
     <circle stroke="black" stroke-width="0.5" fill="#aaffff" cx="604.0" cy="453.0" r="1.0"/>
     <text stroke="none" x="604.0" y="453.0" font-size="10.0" font-family="helvetica">NT1.5</text>
    </g>
    <g>
     <circle stroke="black" stroke-width="0.5" fill="#aaffff" cx="688.0" cy="113.0" r="1.0"/>
     <text stroke="none" x="688.0" y="113.0" font-size="20.0" font-family="helvetica">Sphingobacterium mizutaii ATCC 33299T (M58796)</text>
    </g>
    <g>
     <circle stroke="black" stroke-width="0.5" fill="#aaffff" cx="712.0" cy="28.0" r="1.0"/>
     <text stroke="none" x="712.0" y="28.0" font-size="20.0" font-family="helvetica">Sphingobacterium daejeonense TR6-04T (AB249372)</text>
    </g>
    <g>
     <circle stroke="black" stroke-width="0.5" fill="#aaffff" cx="728.0" cy="624.0" r="1.0"/>
     <text stroke="none" x="728.0" y="624.0" font-size="10.0" font-family="helvetica">NT1.8</text>
    </g>
    <g>
     <circle stroke="black" stroke-width="0.5" fill="#aaffff" cx="6.0" cy="386.0" r="1.0"/>
     <text stroke="none" x="6.0" y="386.0" font-size="10.0" font-family="helvetica">NT1.9</text>
    </g>
    <line stroke="black" x1="531.0" y1="72.0" x2="150.0" y2="320.0" stroke-width="0.5"/>
    <line stroke="black" x1="6.0" y1="386.0" x2="150.0" y2="320.0" stroke-width="0.5"/>
    <line stroke="black" x1="533.0" y1="538.0" x2="322.0" y2="507.0" stroke-width="0.5"/>
    <line stroke="black" x1="688.0" y1="113.0" x2="531.0" y2="72.0" stroke-width="0.5"/>
    <line stroke="black" x1="712.0" y1="28.0" x2="531.0" y2="72.0" stroke-width="0.5"/>
   </g>
  </g>
 </svg>
</svg>
