<?xml version="1.0" encoding="UTF-8"?>
<svg height="800.0" width="700.0" xmlns="http://www.w3.org/2000/svg">
 <svg>
  <g>
   <g>
    <g>
     <circle stroke="black" stroke-width="0.5" fill="#aaffff" cx="3.0" cy="226.0" r="1.0"/>
     <text stroke="none" x="3.0" y="226.0" font-size="20.0" font-family="helvetica"/>
    </g>
    <g>
     <circle stroke="black" stroke-width="0.5" fill="#aaffff" cx="43.0" cy="187.0" r="1.0"/>
     <text stroke="none" x="43.0" y="187.0" font-size="10.0" font-family="helvetica">NT1.2</text>
    </g>
    <g>
     <circle stroke="black" stroke-width="0.5" fill="#aaffff" cx="212.0" cy="226.0" r="1.0"/>
     <text stroke="none" x="212.0" y="226.0" font-size="20.0" font-family="helvetica">Aeromicrobium erythreum NRRL B-3381T (AF005021)</text>
    </g>
    <g>
     <circle stroke="black" stroke-width="0.5" fill="#aaffff" cx="244.0" cy="147.0" r="1.0"/>
     <text stroke="none" x="244.0" y="147.0" font-size="10.0" font-family="helvetica">NT1.4</text>
    </g>
    <g>
     <circle stroke="black" stroke-width="0.5" fill="#aaffff" cx="249.0" cy="109.0" r="1.0"/>
     <text stroke="none" x="249.0" y="109.0" font-size="10.0" font-family="helvetica">NT1.5</text>
    </g>
    <g>
     <circle stroke="black" stroke-width="0.5" fill="#aaffff" cx="253.0" cy="100.0" r="1.0"/>
     <text stroke="none" x="253.0" y="100.0" font-size="10.0" font-family="helvetica">NT1.6</text>
    </g>
    <g>
     <circle stroke="black" stroke-width="0.5" fill="#aaffff" cx="283.0" cy="143.0" r="1.0"/>
     <text stroke="none" x="283.0" y="143.0" font-size="20.0" font-family="helvetica">Kribbella flavida KACC 20248T (AY253863)</text>
    </g>
    <g>
     <circle stroke="black" stroke-width="0.5" fill="#aaffff" cx="294.0" cy="101.0" r="1.0"/>
     <text stroke="none" x="294.0" y="101.0" font-size="20.0" font-family="helvetica">Kribbella sandramycini KACC 20249T (AY253864)</text>
    </g>
    <g>
     <circle stroke="black" stroke-width="0.5" fill="#aaffff" cx="296.0" cy="184.0" r="1.0"/>
     <text stroke="none" x="296.0" y="184.0" font-size="20.0" font-family="helvetica">Kribbella koreensis KACC 2025OT (AY253865)</text>
    </g>
    <g>
     <circle stroke="black" stroke-width="0.5" fill="#aaffff" cx="359.0" cy="18.0" r="1.0"/>
     <text stroke="none" x="359.0" y="18.0" font-size="20.0" font-family="helvetica">Kribbella jejuensis HD9T (AY253866)</text>
    </g>
    <line stroke="black" x1="294.0" y1="101.0" x2="253.0" y2="100.0" stroke-width="0.5"/>
    <line stroke="black" x1="253.0" y1="100.0" x2="249.0" y2="109.0" stroke-width="0.5"/>
    <line stroke="black" x1="249.0" y1="109.0" x2="244.0" y2="147.0" stroke-width="0.5"/>
    <line stroke="black" x1="244.0" y1="147.0" x2="43.0" y2="187.0" stroke-width="0.5"/>
    <line stroke="black" x1="3.0" y1="226.0" x2="43.0" y2="187.0" stroke-width="0.5"/>
    <line stroke="black" x1="212.0" y1="226.0" x2="43.0" y2="187.0" stroke-width="0.5"/>
    <line stroke="black" x1="296.0" y1="184.0" x2="244.0" y2="147.0" stroke-width="0.5"/>
    <line stroke="black" x1="283.0" y1="143.0" x2="249.0" y2="109.0" stroke-width="0.5"/>
    <line stroke="black" x1="359.0" y1="18.0" x2="253.0" y2="100.0" stroke-width="0.5"/>
   </g>
  </g>
 </svg>
</svg>
