<?xml version="1.0" encoding="UTF-8"?>
<svg height="800.0" width="700.0" xmlns="http://www.w3.org/2000/svg">
 <svg>
  <g>
   <g>
    <g>
     <circle stroke="black" stroke-width="0.5" fill="#aaffff" cx="67.0" cy="309.0" r="1.0"/>
     <text stroke="none" x="67.0" y="309.0" font-size="10.0" font-family="helvetica">NT1.1</text>
    </g>
    <g>
     <circle stroke="black" stroke-width="0.5" fill="#aaffff" cx="94.0" cy="579.0" r="1.0"/>
     <text stroke="none" x="94.0" y="579.0" font-size="10.0" font-family="helvetica">NT1.2</text>
    </g>
    <g>
     <circle stroke="black" stroke-width="0.5" fill="#aaffff" cx="220.0" cy="215.0" r="1.0"/>
     <text stroke="none" x="220.0" y="215.0" font-size="20.0" font-family="helvetica">79</text>
    </g>
    <g>
     <circle stroke="black" stroke-width="0.5" fill="#aaffff" cx="257.0" cy="144.0" r="1.0"/>
     <text stroke="none" x="257.0" y="144.0" font-size="20.0" font-family="helvetica">59</text>
    </g>
    <g>
     <circle stroke="black" stroke-width="0.5" fill="#aaffff" cx="324.0" cy="92.0" r="1.0"/>
     <text stroke="none" x="324.0" y="92.0" font-size="10.0" font-family="helvetica">NT1.5</text>
    </g>
    <g>
     <circle stroke="black" stroke-width="0.5" fill="#aaffff" cx="547.0" cy="48.0" r="1.0"/>
     <text stroke="none" x="547.0" y="48.0" font-size="10.0" font-family="helvetica">NT1.6</text>
    </g>
    <g>
     <circle stroke="black" stroke-width="0.5" fill="#aaffff" cx="645.0" cy="283.0" r="1.0"/>
     <text stroke="none" x="645.0" y="283.0" font-size="10.0" font-family="helvetica">NT1.7</text>
    </g>
    <g>
     <circle stroke="black" stroke-width="0.5" fill="#aaffff" cx="648.0" cy="668.0" r="1.0"/>
     <text stroke="none" x="648.0" y="668.0" font-size="10.0" font-family="helvetica">NT1.8</text>
    </g>
    <g>
     <circle stroke="black" stroke-width="0.5" fill="#aaffff" cx="756.0" cy="581.0" r="1.0"/>
     <text stroke="none" x="756.0" y="581.0" font-size="10.0" font-family="helvetica">NT1.9</text>
    </g>
    <g>
     <circle stroke="black" stroke-width="0.5" fill="#aaffff" cx="767.0" cy="756.0" r="1.0"/>
     <text stroke="none" x="767.0" y="756.0" font-size="10.0" font-family="helvetica">NT1.10</text>
    </g>
    <g>
     <circle stroke="black" stroke-width="0.5" fill="#aaffff" cx="803.0" cy="77.0" r="1.0"/>
     <text stroke="none" x="803.0" y="77.0" font-size="20.0" font-family="helvetica">Sphingobacterium thalpophilum ATCC 43320T (M58779)</text>
    </g>
    <g>
     <circle stroke="black" stroke-width="0.5" fill="#aaffff" cx="803.0" cy="136.0" r="1.0"/>
     <text stroke="none" x="803.0" y="136.0" font-size="20.0" font-family="helvetica">Sphingobacterium faecium DSM 1 169OT (AJ438176)</text>
    </g>
    <g>
     <circle stroke="black" stroke-width="0.5" fill="#aaffff" cx="839.0" cy="491.0" r="1.0"/>
     <text stroke="none" x="839.0" y="491.0" font-size="20.0" font-family="helvetica">Pedobacter saltans DSM 12145T (AJ438173)</text>
    </g>
    <g>
     <circle stroke="black" stroke-width="0.5" fill="#aaffff" cx="854.0" cy="699.0" r="1.0"/>
     <text stroke="none" x="854.0" y="699.0" font-size="10.0" font-family="helvetica">NT1.14</text>
    </g>
    <g>
     <circle stroke="black" stroke-width="0.5" fill="#aaffff" cx="860.0" cy="313.0" r="1.0"/>
     <text stroke="none" x="860.0" y="313.0" font-size="20.0" font-family="helvetica">Sphingobacterium mizutaii ATCC 33299T (M58796)</text>
    </g>
    <g>
     <circle stroke="black" stroke-width="0.5" fill="#aaffff" cx="871.0" cy="195.0" r="1.0"/>
     <text stroke="none" x="871.0" y="195.0" font-size="20.0" font-family="helvetica">Sphingobacterium spiritivorum ATCC 338617 (M58778)</text>
    </g>
    <g>
     <circle stroke="black" stroke-width="0.5" fill="#aaffff" cx="876.0" cy="254.0" r="1.0"/>
     <text stroke="none" x="876.0" y="254.0" font-size="20.0" font-family="helvetica">Sphingobacterium daejeonense TR6-04T (AB249372)</text>
    </g>
    <g>
     <circle stroke="black" stroke-width="0.5" fill="#aaffff" cx="900.0" cy="550.0" r="1.0"/>
     <text stroke="none" x="900.0" y="550.0" font-size="20.0" font-family="helvetica">Pedobacter africanus DSM 12126T (AJ438171)</text>
    </g>
    <g>
     <circle stroke="black" stroke-width="0.5" fill="#aaffff" cx="909.0" cy="401.0" r="1.0"/>
     <text stroke="none" x="909.0" y="401.0" font-size="10.0" font-family="helvetica">NT1.19</text>
    </g>
    <g>
     <circle stroke="black" stroke-width="0.5" fill="#aaffff" cx="918.0" cy="18.0" r="1.0"/>
     <text stroke="none" x="918.0" y="18.0" font-size="20.0" font-family="helvetica">Sphingobacterium multivorum IFO 14947T (D14025)</text>
    </g>
    <g>
     <circle stroke="black" stroke-width="0.5" fill="#aaffff" cx="921.0" cy="609.0" r="1.0"/>
     <text stroke="none" x="921.0" y="609.0" font-size="20.0" font-family="helvetica">Pedobacter heparinus DSM 23667 (AJ438172)</text>
    </g>
    <g>
     <circle stroke="black" stroke-width="0.5" fill="#aaffff" cx="922.0" cy="816.0" r="1.0"/>
     <text stroke="none" x="922.0" y="816.0" font-size="10.0" font-family="helvetica">NT1.22</text>
    </g>
    <g>
     <circle stroke="black" stroke-width="0.5" fill="#aaffff" cx="923.0" cy="846.0" r="1.0"/>
     <text stroke="none" x="923.0" y="846.0" font-size="20.0" font-family="helvetica">Sphingobacterium antarcticum 6B1Y (AJ576248)</text>
    </g>
    <g>
     <circle stroke="black" stroke-width="0.5" fill="#aaffff" cx="923.0" cy="786.0" r="1.0"/>
     <text stroke="none" x="923.0" y="786.0" font-size="20.0" font-family="helvetica">Pedobacter piscium DSM 1 1725T (AJ438174)</text>
    </g>
    <g>
     <circle stroke="black" stroke-width="0.5" fill="#aaffff" cx="930.0" cy="669.0" r="1.0"/>
     <text stroke="none" x="930.0" y="669.0" font-size="20.0" font-family="helvetica">Pedobacter cryoconitis DSM 14825T (AJ438170)</text>
    </g>
    <g>
     <circle stroke="black" stroke-width="0.5" fill="#aaffff" cx="987.0" cy="432.0" r="1.0"/>
     <text stroke="none" x="987.0" y="432.0" font-size="20.0" font-family="helvetica">'Pocheonia solf (AB267715)</text>
    </g>
    <g>
     <circle stroke="black" stroke-width="0.5" fill="#aaffff" cx="992.0" cy="728.0" r="1.0"/>
     <text stroke="none" x="992.0" y="728.0" font-size="20.0" font-family="helvetica">Pedobacter himalayensis JCM 12171 T (AJ583425)</text>
    </g>
    <g>
     <circle stroke="black" stroke-width="0.5" fill="#aaffff" cx="993.0" cy="372.0" r="1.0"/>
     <text stroke="none" x="993.0" y="372.0" font-size="20.0" font-family="helvetica">DC-186T (AM407725)</text>
    </g>
    <line stroke="black" x1="918.0" y1="18.0" x2="547.0" y2="48.0" stroke-width="0.5"/>
    <line stroke="black" x1="871.0" y1="195.0" x2="257.0" y2="144.0" stroke-width="0.5"/>
    <line stroke="black" x1="993.0" y1="372.0" x2="909.0" y2="401.0" stroke-width="0.5"/>
    <line stroke="black" x1="900.0" y1="550.0" x2="756.0" y2="581.0" stroke-width="0.5"/>
    <line stroke="black" x1="921.0" y1="609.0" x2="756.0" y2="581.0" stroke-width="0.5"/>
    <line stroke="black" x1="923.0" y1="846.0" x2="922.0" y2="816.0" stroke-width="0.5"/>
    <line stroke="black" x1="923.0" y1="786.0" x2="922.0" y2="816.0" stroke-width="0.5"/>
    <line stroke="black" x1="930.0" y1="669.0" x2="854.0" y2="699.0" stroke-width="0.5"/>
    <line stroke="black" x1="547.0" y1="48.0" x2="324.0" y2="92.0" stroke-width="0.5"/>
    <line stroke="black" x1="324.0" y1="92.0" x2="257.0" y2="144.0" stroke-width="0.5"/>
    <line stroke="black" x1="257.0" y1="144.0" x2="220.0" y2="215.0" stroke-width="0.5"/>
    <line stroke="black" x1="220.0" y1="215.0" x2="67.0" y2="309.0" stroke-width="0.5"/>
    <line stroke="black" x1="220.0" y1="215.0" x2="645.0" y2="283.0" stroke-width="0.5"/>
    <line stroke="black" x1="67.0" y1="309.0" x2="909.0" y2="401.0" stroke-width="0.5"/>
    <line stroke="black" x1="94.0" y1="579.0" x2="648.0" y2="668.0" stroke-width="0.5"/>
    <line stroke="black" x1="648.0" y1="668.0" x2="767.0" y2="756.0" stroke-width="0.5"/>
    <line stroke="black" x1="648.0" y1="668.0" x2="756.0" y2="581.0" stroke-width="0.5"/>
    <line stroke="black" x1="767.0" y1="756.0" x2="922.0" y2="816.0" stroke-width="0.5"/>
    <line stroke="black" x1="767.0" y1="756.0" x2="854.0" y2="699.0" stroke-width="0.5"/>
    <line stroke="black" x1="67.0" y1="309.0" x2="94.0" y2="579.0" stroke-width="0.5"/>
    <line stroke="black" x1="839.0" y1="491.0" x2="94.0" y2="579.0" stroke-width="0.5"/>
    <line stroke="black" x1="803.0" y1="136.0" x2="324.0" y2="92.0" stroke-width="0.5"/>
    <line stroke="black" x1="803.0" y1="77.0" x2="547.0" y2="48.0" stroke-width="0.5"/>
    <line stroke="black" x1="860.0" y1="313.0" x2="645.0" y2="283.0" stroke-width="0.5"/>
    <line stroke="black" x1="876.0" y1="254.0" x2="645.0" y2="283.0" stroke-width="0.5"/>
    <line stroke="black" x1="992.0" y1="728.0" x2="854.0" y2="699.0" stroke-width="0.5"/>
    <line stroke="black" x1="987.0" y1="432.0" x2="909.0" y2="401.0" stroke-width="0.5"/>
   </g>
  </g>
 </svg>
</svg>
