<?xml version="1.0" encoding="UTF-8"?>
<svg height="800.0" width="700.0" xmlns="http://www.w3.org/2000/svg">
 <svg>
  <g>
   <g>
    <g>
     <circle stroke="black" stroke-width="0.5" fill="#aaffff" cx="324.0" cy="1023.0" r="1.0"/>
     <text stroke="none" x="324.0" y="1023.0" font-size="20.0" font-family="helvetica">Methanobacterium formicicum MSC AY196659</text>
    </g>
    <g>
     <circle stroke="black" stroke-width="0.5" fill="#aaffff" cx="324.0" cy="545.0" r="1.0"/>
     <text stroke="none" x="324.0" y="545.0" font-size="10.0" font-family="helvetica">NT1.2</text>
    </g>
    <g>
     <circle stroke="black" stroke-width="0.5" fill="#aaffff" cx="347.0" cy="257.0" r="1.0"/>
     <text stroke="none" x="347.0" y="257.0" font-size="10.0" font-family="helvetica">NT1.3</text>
    </g>
    <g>
     <circle stroke="black" stroke-width="0.5" fill="#aaffff" cx="437.0" cy="85.0" r="1.0"/>
     <text stroke="none" x="437.0" y="85.0" font-size="10.0" font-family="helvetica">NT1.4</text>
    </g>
    <g>
     <circle stroke="black" stroke-width="0.5" fill="#aaffff" cx="567.0" cy="35.0" r="1.0"/>
     <text stroke="none" x="567.0" y="35.0" font-size="10.0" font-family="helvetica">NT1.5</text>
    </g>
    <g>
     <circle stroke="black" stroke-width="0.5" fill="#aaffff" cx="602.0" cy="797.0" r="1.0"/>
     <text stroke="none" x="602.0" y="797.0" font-size="10.0" font-family="helvetica">NT1.6</text>
    </g>
    <g>
     <circle stroke="black" stroke-width="0.5" fill="#aaffff" cx="634.0" cy="140.0" r="1.0"/>
     <text stroke="none" x="634.0" y="140.0" font-size="10.0" font-family="helvetica">NT1.7</text>
    </g>
    <g>
     <circle stroke="black" stroke-width="0.5" fill="#aaffff" cx="639.0" cy="186.0" r="1.0"/>
     <text stroke="none" x="639.0" y="186.0" font-size="10.0" font-family="helvetica">NT1.8</text>
    </g>
    <g>
     <circle stroke="black" stroke-width="0.5" fill="#aaffff" cx="656.0" cy="861.0" r="1.0"/>
     <text stroke="none" x="656.0" y="861.0" font-size="10.0" font-family="helvetica">NT1.9</text>
    </g>
    <g>
     <circle stroke="black" stroke-width="0.5" fill="#aaffff" cx="661.0" cy="225.0" r="1.0"/>
     <text stroke="none" x="661.0" y="225.0" font-size="10.0" font-family="helvetica">NT1.10</text>
    </g>
    <g>
     <circle stroke="black" stroke-width="0.5" fill="#aaffff" cx="669.0" cy="101.0" r="1.0"/>
     <text stroke="none" x="669.0" y="101.0" font-size="10.0" font-family="helvetica">NT1.11</text>
    </g>
    <g>
     <circle stroke="black" stroke-width="0.5" fill="#aaffff" cx="676.0" cy="197.0" r="1.0"/>
     <text stroke="none" x="676.0" y="197.0" font-size="10.0" font-family="helvetica">NT1.12</text>
    </g>
    <g>
     <circle stroke="black" stroke-width="0.5" fill="#aaffff" cx="700.0" cy="842.0" r="1.0"/>
     <text stroke="none" x="700.0" y="842.0" font-size="10.0" font-family="helvetica">NT1.13</text>
    </g>
    <g>
     <circle stroke="black" stroke-width="0.5" fill="#aaffff" cx="711.0" cy="260.0" r="1.0"/>
     <text stroke="none" x="711.0" y="260.0" font-size="10.0" font-family="helvetica">NT1.14</text>
    </g>
    <g>
     <circle stroke="black" stroke-width="0.5" fill="#aaffff" cx="734.0" cy="920.0" r="1.0"/>
     <text stroke="none" x="734.0" y="920.0" font-size="10.0" font-family="helvetica">NT1.15</text>
    </g>
    <g>
     <circle stroke="black" stroke-width="0.5" fill="#aaffff" cx="748.0" cy="52.0" r="1.0"/>
     <text stroke="none" x="748.0" y="52.0" font-size="20.0" font-family="helvetica">Methanothrix (Methanosaetai) thermophila PT'i CPOOO477 (845527-846999)</text>
    </g>
    <g>
     <circle stroke="black" stroke-width="0.5" fill="#aaffff" cx="776.0" cy="149.0" r="1.0"/>
     <text stroke="none" x="776.0" y="149.0" font-size="20.0" font-family="helvetica">Methanomethylovorans hollandica DMS10 AF120163</text>
    </g>
    <g>
     <circle stroke="black" stroke-width="0.5" fill="#aaffff" cx="779.0" cy="947.0" r="1.0"/>
     <text stroke="none" x="779.0" y="947.0" font-size="10.0" font-family="helvetica">NT1.18</text>
    </g>
    <g>
     <circle stroke="black" stroke-width="0.5" fill="#aaffff" cx="789.0" cy="443.0" r="1.0"/>
     <text stroke="none" x="789.0" y="443.0" font-size="10.0" font-family="helvetica">NT1.19</text>
    </g>
    <g>
     <circle stroke="black" stroke-width="0.5" fill="#aaffff" cx="794.0" cy="20.0" r="1.0"/>
     <text stroke="none" x="794.0" y="20.0" font-size="20.0" font-family="helvetica">Methanosaeta concilii Opfikoni X51423</text>
    </g>
    <g>
     <circle stroke="black" stroke-width="0.5" fill="#aaffff" cx="824.0" cy="972.0" r="1.0"/>
     <text stroke="none" x="824.0" y="972.0" font-size="10.0" font-family="helvetica">NT1.21</text>
    </g>
    <g>
     <circle stroke="black" stroke-width="0.5" fill="#aaffff" cx="844.0" cy="346.0" r="1.0"/>
     <text stroke="none" x="844.0" y="346.0" font-size="10.0" font-family="helvetica">NT1.22</text>
    </g>
    <g>
     <circle stroke="black" stroke-width="0.5" fill="#aaffff" cx="849.0" cy="566.0" r="1.0"/>
     <text stroke="none" x="849.0" y="566.0" font-size="10.0" font-family="helvetica">NT1.23</text>
    </g>
    <g>
     <circle stroke="black" stroke-width="0.5" fill="#aaffff" cx="856.0" cy="117.0" r="1.0"/>
     <text stroke="none" x="856.0" y="117.0" font-size="20.0" font-family="helvetica">Methanosarcina barkeri M53 AJ012094</text>
    </g>
    <g>
     <circle stroke="black" stroke-width="0.5" fill="#aaffff" cx="861.0" cy="781.0" r="1.0"/>
     <text stroke="none" x="861.0" y="781.0" font-size="10.0" font-family="helvetica">NT1.25</text>
    </g>
    <g>
     <circle stroke="black" stroke-width="0.5" fill="#aaffff" cx="868.0" cy="246.0" r="1.0"/>
     <text stroke="none" x="868.0" y="246.0" font-size="20.0" font-family="helvetica">Methanococcoides methylutens TMAe10C M59127</text>
    </g>
    <g>
     <circle stroke="black" stroke-width="0.5" fill="#aaffff" cx="868.0" cy="280.0" r="1.0"/>
     <text stroke="none" x="868.0" y="280.0" font-size="20.0" font-family="helvetica">Methanohalophilus mahii SLPC M59133</text>
    </g>
    <g>
     <circle stroke="black" stroke-width="0.5" fill="#aaffff" cx="871.0" cy="893.0" r="1.0"/>
     <text stroke="none" x="871.0" y="893.0" font-size="20.0" font-family="helvetica">Methanogenium cariaci JR1 '1 M59130</text>
    </g>
    <g>
     <circle stroke="black" stroke-width="0.5" fill="#aaffff" cx="876.0" cy="600.0" r="1.0"/>
     <text stroke="none" x="876.0" y="600.0" font-size="10.0" font-family="helvetica">NT1.29</text>
    </g>
    <g>
     <circle stroke="black" stroke-width="0.5" fill="#aaffff" cx="906.0" cy="571.0" r="1.0"/>
     <text stroke="none" x="906.0" y="571.0" font-size="20.0" font-family="helvetica">Methanogenic cellulose-degrading enrichment clone ET1-21 AJ244278</text>
    </g>
    <g>
     <circle stroke="black" stroke-width="0.5" fill="#aaffff" cx="908.0" cy="657.0" r="1.0"/>
     <text stroke="none" x="908.0" y="657.0" font-size="10.0" font-family="helvetica">NT1.31</text>
    </g>
    <g>
     <circle stroke="black" stroke-width="0.5" fill="#aaffff" cx="917.0" cy="403.0" r="1.0"/>
     <text stroke="none" x="917.0" y="403.0" font-size="10.0" font-family="helvetica">NT1.32</text>
    </g>
    <g>
     <circle stroke="black" stroke-width="0.5" fill="#aaffff" cx="926.0" cy="603.0" r="1.0"/>
     <text stroke="none" x="926.0" y="603.0" font-size="20.0" font-family="helvetica">Rice root clone ARR8i AJ227923</text>
    </g>
    <g>
     <circle stroke="black" stroke-width="0.5" fill="#aaffff" cx="933.0" cy="181.0" r="1.0"/>
     <text stroke="none" x="933.0" y="181.0" font-size="20.0" font-family="helvetica">Methanolobus tindarius Tindari 3'1 M59135</text>
    </g>
    <g>
     <circle stroke="black" stroke-width="0.5" fill="#aaffff" cx="933.0" cy="214.0" r="1.0"/>
     <text stroke="none" x="933.0" y="214.0" font-size="20.0" font-family="helvetica">Methanohalobium evestigarum Ze7303'i U20149</text>
    </g>
    <g>
     <circle stroke="black" stroke-width="0.5" fill="#aaffff" cx="933.0" cy="538.0" r="1.0"/>
     <text stroke="none" x="933.0" y="538.0" font-size="20.0" font-family="helvetica">RC-I MRE50 complete genome AM114193 (2083318e2084792)</text>
    </g>
    <g>
     <circle stroke="black" stroke-width="0.5" fill="#aaffff" cx="941.0" cy="455.0" r="1.0"/>
     <text stroke="none" x="941.0" y="455.0" font-size="10.0" font-family="helvetica">NT1.37</text>
    </g>
    <g>
     <circle stroke="black" stroke-width="0.5" fill="#aaffff" cx="943.0" cy="861.0" r="1.0"/>
     <text stroke="none" x="943.0" y="861.0" font-size="20.0" font-family="helvetica">Methanoculleus baurgensis M522 AFO95269</text>
    </g>
    <g>
     <circle stroke="black" stroke-width="0.5" fill="#aaffff" cx="948.0" cy="311.0" r="1.0"/>
     <text stroke="none" x="948.0" y="311.0" font-size="20.0" font-family="helvetica">Acidophilic methanogenic consortium clone K-5a21AF524853</text>
    </g>
    <g>
     <circle stroke="black" stroke-width="0.5" fill="#aaffff" cx="951.0" cy="925.0" r="1.0"/>
     <text stroke="none" x="951.0" y="925.0" font-size="20.0" font-family="helvetica">Merhanolacinia paynteri G-20001 AY196678</text>
    </g>
    <g>
     <circle stroke="black" stroke-width="0.5" fill="#aaffff" cx="956.0" cy="733.0" r="1.0"/>
     <text stroke="none" x="956.0" y="733.0" font-size="20.0" font-family="helvetica">Methanospirillum hungatei JF-1'1 M60880</text>
    </g>
    <g>
     <circle stroke="black" stroke-width="0.5" fill="#aaffff" cx="956.0" cy="828.0" r="1.0"/>
     <text stroke="none" x="956.0" y="828.0" font-size="20.0" font-family="helvetica">Methanofollis tationis Chile 9'1 AF095272</text>
    </g>
    <g>
     <circle stroke="black" stroke-width="0.5" fill="#aaffff" cx="956.0" cy="425.0" r="1.0"/>
     <text stroke="none" x="956.0" y="425.0" font-size="10.0" font-family="helvetica">NT1.43</text>
    </g>
    <g>
     <circle stroke="black" stroke-width="0.5" fill="#aaffff" cx="961.0" cy="636.0" r="1.0"/>
     <text stroke="none" x="961.0" y="636.0" font-size="20.0" font-family="helvetica">Contaminated aquifer clone WCHD3-341 AF050620</text>
    </g>
    <g>
     <circle stroke="black" stroke-width="0.5" fill="#aaffff" cx="961.0" cy="488.0" r="1.0"/>
     <text stroke="none" x="961.0" y="488.0" font-size="10.0" font-family="helvetica">NT1.45</text>
    </g>
    <g>
     <circle stroke="black" stroke-width="0.5" fill="#aaffff" cx="963.0" cy="991.0" r="1.0"/>
     <text stroke="none" x="963.0" y="991.0" font-size="20.0" font-family="helvetica">Methanoplanus Iimicola M375 M59143</text>
    </g>
    <g>
     <circle stroke="black" stroke-width="0.5" fill="#aaffff" cx="986.0" cy="441.0" r="1.0"/>
     <text stroke="none" x="986.0" y="441.0" font-size="20.0" font-family="helvetica">Oil-contaminated groundwater clone KuA7r ABO77217</text>
    </g>
    <g>
     <circle stroke="black" stroke-width="0.5" fill="#aaffff" cx="993.0" cy="473.0" r="1.0"/>
     <text stroke="none" x="993.0" y="473.0" font-size="20.0" font-family="helvetica">Soil clone SoiI113Ar20i AY487185</text>
    </g>
    <g>
     <circle stroke="black" stroke-width="0.5" fill="#aaffff" cx="996.0" cy="506.0" r="1.0"/>
     <text stroke="none" x="996.0" y="506.0" font-size="20.0" font-family="helvetica">Methanocella paludicola SANAEU AB196288</text>
    </g>
    <g>
     <circle stroke="black" stroke-width="0.5" fill="#aaffff" cx="998.0" cy="683.0" r="1.0"/>
     <text stroke="none" x="998.0" y="683.0" font-size="10.0" font-family="helvetica">NT1.50</text>
    </g>
    <g>
     <circle stroke="black" stroke-width="0.5" fill="#aaffff" cx="1006.0" cy="409.0" r="1.0"/>
     <text stroke="none" x="1006.0" y="409.0" font-size="20.0" font-family="helvetica">Rice field soil clone AS17-311 AF225689</text>
    </g>
    <g>
     <circle stroke="black" stroke-width="0.5" fill="#aaffff" cx="1026.0" cy="701.0" r="1.0"/>
     <text stroke="none" x="1026.0" y="701.0" font-size="20.0" font-family="helvetica">Anoxic lake sediment clone H2-21 Y18074</text>
    </g>
    <g>
     <circle stroke="black" stroke-width="0.5" fill="#aaffff" cx="1026.0" cy="798.0" r="1.0"/>
     <text stroke="none" x="1026.0" y="798.0" font-size="20.0" font-family="helvetica">Methanocalculus halotolerans SEBR 4845C AFO33672</text>
    </g>
    <g>
     <circle stroke="black" stroke-width="0.5" fill="#aaffff" cx="1026.0" cy="958.0" r="1.0"/>
     <text stroke="none" x="1026.0" y="958.0" font-size="20.0" font-family="helvetica">Methanomicrobium mobile BPC M59142</text>
    </g>
    <g>
     <circle stroke="black" stroke-width="0.5" fill="#aaffff" cx="1036.0" cy="376.0" r="1.0"/>
     <text stroke="none" x="1036.0" y="376.0" font-size="20.0" font-family="helvetica">Peatland clone LHr05i AY175384</text>
    </g>
    <g>
     <circle stroke="black" stroke-width="0.5" fill="#aaffff" cx="1043.0" cy="668.0" r="1.0"/>
     <text stroke="none" x="1043.0" y="668.0" font-size="20.0" font-family="helvetica">Rice soil clone AS04716 AJ308972</text>
    </g>
    <g>
     <circle stroke="black" stroke-width="0.5" fill="#aaffff" cx="1076.0" cy="344.0" r="1.0"/>
     <text stroke="none" x="1076.0" y="344.0" font-size="20.0" font-family="helvetica">Termite clone 13A-151 AY487177</text>
    </g>
    <g>
     <circle stroke="black" stroke-width="0.5" fill="#aaffff" cx="1103.0" cy="84.0" r="1.0"/>
     <text stroke="none" x="1103.0" y="84.0" font-size="20.0" font-family="helvetica">Methanimicrococcus blarricola PAC AJ238002</text>
    </g>
    <g>
     <circle stroke="black" stroke-width="0.5" fill="#aaffff" cx="1240.0" cy="763.0" r="1.0"/>
     <text stroke="none" x="1240.0" y="763.0" font-size="20.0" font-family="helvetica">Methanocorpusculum pawum XIIC M59147</text>
    </g>
    <line stroke="black" x1="794.0" y1="20.0" x2="567.0" y2="35.0" stroke-width="0.5"/>
    <line stroke="black" x1="776.0" y1="149.0" x2="639.0" y2="186.0" stroke-width="0.5"/>
    <line stroke="black" x1="868.0" y1="246.0" x2="711.0" y2="260.0" stroke-width="0.5"/>
    <line stroke="black" x1="933.0" y1="181.0" x2="676.0" y2="197.0" stroke-width="0.5"/>
    <line stroke="black" x1="1103.0" y1="84.0" x2="669.0" y2="101.0" stroke-width="0.5"/>
    <line stroke="black" x1="948.0" y1="311.0" x2="844.0" y2="346.0" stroke-width="0.5"/>
    <line stroke="black" x1="933.0" y1="538.0" x2="849.0" y2="566.0" stroke-width="0.5"/>
    <line stroke="black" x1="926.0" y1="603.0" x2="908.0" y2="657.0" stroke-width="0.5"/>
    <line stroke="black" x1="961.0" y1="636.0" x2="908.0" y2="657.0" stroke-width="0.5"/>
    <line stroke="black" x1="986.0" y1="441.0" x2="956.0" y2="425.0" stroke-width="0.5"/>
    <line stroke="black" x1="993.0" y1="473.0" x2="961.0" y2="488.0" stroke-width="0.5"/>
    <line stroke="black" x1="1036.0" y1="376.0" x2="917.0" y2="403.0" stroke-width="0.5"/>
    <line stroke="black" x1="1076.0" y1="344.0" x2="917.0" y2="403.0" stroke-width="0.5"/>
    <line stroke="black" x1="1043.0" y1="668.0" x2="998.0" y2="683.0" stroke-width="0.5"/>
    <line stroke="black" x1="943.0" y1="861.0" x2="700.0" y2="842.0" stroke-width="0.5"/>
    <line stroke="black" x1="951.0" y1="925.0" x2="779.0" y2="947.0" stroke-width="0.5"/>
    <line stroke="black" x1="963.0" y1="991.0" x2="824.0" y2="972.0" stroke-width="0.5"/>
    <line stroke="black" x1="1026.0" y1="958.0" x2="824.0" y2="972.0" stroke-width="0.5"/>
    <line stroke="black" x1="1240.0" y1="763.0" x2="861.0" y2="781.0" stroke-width="0.5"/>
    <line stroke="black" x1="567.0" y1="35.0" x2="437.0" y2="85.0" stroke-width="0.5"/>
    <line stroke="black" x1="437.0" y1="85.0" x2="347.0" y2="257.0" stroke-width="0.5"/>
    <line stroke="black" x1="437.0" y1="85.0" x2="634.0" y2="140.0" stroke-width="0.5"/>
    <line stroke="black" x1="634.0" y1="140.0" x2="639.0" y2="186.0" stroke-width="0.5"/>
    <line stroke="black" x1="634.0" y1="140.0" x2="669.0" y2="101.0" stroke-width="0.5"/>
    <line stroke="black" x1="347.0" y1="257.0" x2="324.0" y2="545.0" stroke-width="0.5"/>
    <line stroke="black" x1="347.0" y1="257.0" x2="789.0" y2="443.0" stroke-width="0.5"/>
    <line stroke="black" x1="639.0" y1="186.0" x2="661.0" y2="225.0" stroke-width="0.5"/>
    <line stroke="black" x1="661.0" y1="225.0" x2="711.0" y2="260.0" stroke-width="0.5"/>
    <line stroke="black" x1="661.0" y1="225.0" x2="676.0" y2="197.0" stroke-width="0.5"/>
    <line stroke="black" x1="324.0" y1="545.0" x2="602.0" y2="797.0" stroke-width="0.5"/>
    <line stroke="black" x1="789.0" y1="443.0" x2="849.0" y2="566.0" stroke-width="0.5"/>
    <line stroke="black" x1="789.0" y1="443.0" x2="844.0" y2="346.0" stroke-width="0.5"/>
    <line stroke="black" x1="844.0" y1="346.0" x2="917.0" y2="403.0" stroke-width="0.5"/>
    <line stroke="black" x1="849.0" y1="566.0" x2="876.0" y2="600.0" stroke-width="0.5"/>
    <line stroke="black" x1="602.0" y1="797.0" x2="656.0" y2="861.0" stroke-width="0.5"/>
    <line stroke="black" x1="876.0" y1="600.0" x2="908.0" y2="657.0" stroke-width="0.5"/>
    <line stroke="black" x1="917.0" y1="403.0" x2="941.0" y2="455.0" stroke-width="0.5"/>
    <line stroke="black" x1="908.0" y1="657.0" x2="998.0" y2="683.0" stroke-width="0.5"/>
    <line stroke="black" x1="656.0" y1="861.0" x2="734.0" y2="920.0" stroke-width="0.5"/>
    <line stroke="black" x1="656.0" y1="861.0" x2="700.0" y2="842.0" stroke-width="0.5"/>
    <line stroke="black" x1="941.0" y1="455.0" x2="961.0" y2="488.0" stroke-width="0.5"/>
    <line stroke="black" x1="941.0" y1="455.0" x2="956.0" y2="425.0" stroke-width="0.5"/>
    <line stroke="black" x1="700.0" y1="842.0" x2="861.0" y2="781.0" stroke-width="0.5"/>
    <line stroke="black" x1="734.0" y1="920.0" x2="779.0" y2="947.0" stroke-width="0.5"/>
    <line stroke="black" x1="779.0" y1="947.0" x2="824.0" y2="972.0" stroke-width="0.5"/>
    <line stroke="black" x1="324.0" y1="1023.0" x2="324.0" y2="545.0" stroke-width="0.5"/>
    <line stroke="black" x1="748.0" y1="52.0" x2="567.0" y2="35.0" stroke-width="0.5"/>
    <line stroke="black" x1="868.0" y1="280.0" x2="711.0" y2="260.0" stroke-width="0.5"/>
    <line stroke="black" x1="956.0" y1="733.0" x2="602.0" y2="797.0" stroke-width="0.5"/>
    <line stroke="black" x1="856.0" y1="117.0" x2="669.0" y2="101.0" stroke-width="0.5"/>
    <line stroke="black" x1="933.0" y1="214.0" x2="676.0" y2="197.0" stroke-width="0.5"/>
    <line stroke="black" x1="871.0" y1="893.0" x2="734.0" y2="920.0" stroke-width="0.5"/>
    <line stroke="black" x1="956.0" y1="828.0" x2="700.0" y2="842.0" stroke-width="0.5"/>
    <line stroke="black" x1="906.0" y1="571.0" x2="876.0" y2="600.0" stroke-width="0.5"/>
    <line stroke="black" x1="1026.0" y1="798.0" x2="861.0" y2="781.0" stroke-width="0.5"/>
    <line stroke="black" x1="1006.0" y1="409.0" x2="956.0" y2="425.0" stroke-width="0.5"/>
    <line stroke="black" x1="996.0" y1="506.0" x2="961.0" y2="488.0" stroke-width="0.5"/>
    <line stroke="black" x1="1026.0" y1="701.0" x2="998.0" y2="683.0" stroke-width="0.5"/>
   </g>
  </g>
 </svg>
</svg>
