<?xml version="1.0" encoding="UTF-8"?>
<svg height="800.0" width="700.0" xmlns="http://www.w3.org/2000/svg">
 <svg>
  <g>
   <g>
    <g>
     <circle stroke="black" stroke-width="0.5" fill="#aaffff" cx="56.0" cy="674.0" r="1.0"/>
     <text stroke="none" x="56.0" y="674.0" font-size="10.0" font-family="helvetica">NT1.1</text>
    </g>
    <g>
     <circle stroke="black" stroke-width="0.5" fill="#aaffff" cx="109.0" cy="499.0" r="1.0"/>
     <text stroke="none" x="109.0" y="499.0" font-size="20.0" font-family="helvetica">335</text>
    </g>
    <g>
     <circle stroke="black" stroke-width="0.5" fill="#aaffff" cx="129.0" cy="169.0" r="1.0"/>
     <text stroke="none" x="129.0" y="169.0" font-size="10.0" font-family="helvetica">NT1.3</text>
    </g>
    <g>
     <circle stroke="black" stroke-width="0.5" fill="#aaffff" cx="154.0" cy="560.0" r="1.0"/>
     <text stroke="none" x="154.0" y="560.0" font-size="10.0" font-family="helvetica">NT1.4</text>
    </g>
    <g>
     <circle stroke="black" stroke-width="0.5" fill="#aaffff" cx="176.0" cy="110.0" r="1.0"/>
     <text stroke="none" x="176.0" y="110.0" font-size="10.0" font-family="helvetica">NT1.5</text>
    </g>
    <g>
     <circle stroke="black" stroke-width="0.5" fill="#aaffff" cx="182.0" cy="660.0" r="1.0"/>
     <text stroke="none" x="182.0" y="660.0" font-size="10.0" font-family="helvetica">NT1.6</text>
    </g>
    <g>
     <circle stroke="black" stroke-width="0.5" fill="#aaffff" cx="190.0" cy="69.0" r="1.0"/>
     <text stroke="none" x="190.0" y="69.0" font-size="10.0" font-family="helvetica">NT1.7</text>
    </g>
    <g>
     <circle stroke="black" stroke-width="0.5" fill="#aaffff" cx="190.0" cy="466.0" r="1.0"/>
     <text stroke="none" x="190.0" y="466.0" font-size="10.0" font-family="helvetica">NT1.8</text>
    </g>
    <g>
     <circle stroke="black" stroke-width="0.5" fill="#aaffff" cx="196.0" cy="818.0" r="1.0"/>
     <text stroke="none" x="196.0" y="818.0" font-size="20.0" font-family="helvetica">100</text>
    </g>
    <g>
     <circle stroke="black" stroke-width="0.5" fill="#aaffff" cx="232.0" cy="206.0" r="1.0"/>
     <text stroke="none" x="232.0" y="206.0" font-size="10.0" font-family="helvetica">NT1.10</text>
    </g>
    <g>
     <circle stroke="black" stroke-width="0.5" fill="#aaffff" cx="243.0" cy="497.0" r="1.0"/>
     <text stroke="none" x="243.0" y="497.0" font-size="20.0" font-family="helvetica">932</text>
    </g>
    <g>
     <circle stroke="black" stroke-width="0.5" fill="#aaffff" cx="264.0" cy="300.0" r="1.0"/>
     <text stroke="none" x="264.0" y="300.0" font-size="10.0" font-family="helvetica">NT1.12</text>
    </g>
    <g>
     <circle stroke="black" stroke-width="0.5" fill="#aaffff" cx="279.0" cy="530.0" r="1.0"/>
     <text stroke="none" x="279.0" y="530.0" font-size="10.0" font-family="helvetica">NT1.13</text>
    </g>
    <g>
     <circle stroke="black" stroke-width="0.5" fill="#aaffff" cx="279.0" cy="744.0" r="1.0"/>
     <text stroke="none" x="279.0" y="744.0" font-size="20.0" font-family="helvetica">100</text>
    </g>
    <g>
     <circle stroke="black" stroke-width="0.5" fill="#aaffff" cx="291.0" cy="636.0" r="1.0"/>
     <text stroke="none" x="291.0" y="636.0" font-size="10.0" font-family="helvetica">NT1.15</text>
    </g>
    <g>
     <circle stroke="black" stroke-width="0.5" fill="#aaffff" cx="299.0" cy="840.0" r="1.0"/>
     <text stroke="none" x="299.0" y="840.0" font-size="10.0" font-family="helvetica">NT1.16</text>
    </g>
    <g>
     <circle stroke="black" stroke-width="0.5" fill="#aaffff" cx="299.0" cy="838.0" r="1.0"/>
     <text stroke="none" x="299.0" y="838.0" font-size="10.0" font-family="helvetica">NT1.17</text>
    </g>
    <g>
     <circle stroke="black" stroke-width="0.5" fill="#aaffff" cx="325.0" cy="371.0" r="1.0"/>
     <text stroke="none" x="325.0" y="371.0" font-size="20.0" font-family="helvetica">100</text>
    </g>
    <g>
     <circle stroke="black" stroke-width="0.5" fill="#aaffff" cx="339.0" cy="800.0" r="1.0"/>
     <text stroke="none" x="339.0" y="800.0" font-size="20.0" font-family="helvetica">Flavobacterium aquatile ATCC 119477 (M62797)</text>
    </g>
    <g>
     <circle stroke="black" stroke-width="0.5" fill="#aaffff" cx="350.0" cy="356.0" r="1.0"/>
     <text stroke="none" x="350.0" y="356.0" font-size="20.0" font-family="helvetica">Cellulophaga fucicola NN0158607 (AJ005973)</text>
    </g>
    <g>
     <circle stroke="black" stroke-width="0.5" fill="#aaffff" cx="384.0" cy="766.0" r="1.0"/>
     <text stroke="none" x="384.0" y="766.0" font-size="10.0" font-family="helvetica">NT1.21</text>
    </g>
    <g>
     <circle stroke="black" stroke-width="0.5" fill="#aaffff" cx="384.0" cy="764.0" r="1.0"/>
     <text stroke="none" x="384.0" y="764.0" font-size="10.0" font-family="helvetica">NT1.22</text>
    </g>
    <g>
     <circle stroke="black" stroke-width="0.5" fill="#aaffff" cx="385.0" cy="877.0" r="1.0"/>
     <text stroke="none" x="385.0" y="877.0" font-size="20.0" font-family="helvetica">Capnocytophaga gingivalis ATCC 336247 (L14639)</text>
    </g>
    <g>
     <circle stroke="black" stroke-width="0.5" fill="#aaffff" cx="389.0" cy="393.0" r="1.0"/>
     <text stroke="none" x="389.0" y="393.0" font-size="20.0" font-family="helvetica">Cellulophaga lytica ATCC 231787 (M62796)</text>
    </g>
    <g>
     <circle stroke="black" stroke-width="0.5" fill="#aaffff" cx="401.0" cy="40.0" r="1.0"/>
     <text stroke="none" x="401.0" y="40.0" font-size="20.0" font-family="helvetica">100</text>
    </g>
    <g>
     <circle stroke="black" stroke-width="0.5" fill="#aaffff" cx="402.0" cy="837.0" r="1.0"/>
     <text stroke="none" x="402.0" y="837.0" font-size="20.0" font-family="helvetica">Flavobacterium johnsoniae ATCC 170617 (M59051)</text>
    </g>
    <g>
     <circle stroke="black" stroke-width="0.5" fill="#aaffff" cx="404.0" cy="95.0" r="1.0"/>
     <text stroke="none" x="404.0" y="95.0" font-size="10.0" font-family="helvetica">NT1.27</text>
    </g>
    <g>
     <circle stroke="black" stroke-width="0.5" fill="#aaffff" cx="410.0" cy="280.0" r="1.0"/>
     <text stroke="none" x="410.0" y="280.0" font-size="20.0" font-family="helvetica">Cellulophaga baltica NN0158407 (AJ005972)</text>
    </g>
    <g>
     <circle stroke="black" stroke-width="0.5" fill="#aaffff" cx="417.0" cy="560.0" r="1.0"/>
     <text stroke="none" x="417.0" y="560.0" font-size="20.0" font-family="helvetica">100</text>
    </g>
    <g>
     <circle stroke="black" stroke-width="0.5" fill="#aaffff" cx="419.0" cy="58.0" r="1.0"/>
     <text stroke="none" x="419.0" y="58.0" font-size="10.0" font-family="helvetica">NT1.30</text>
    </g>
    <g>
     <circle stroke="black" stroke-width="0.5" fill="#aaffff" cx="419.0" cy="56.0" r="1.0"/>
     <text stroke="none" x="419.0" y="56.0" font-size="10.0" font-family="helvetica">NT1.31</text>
    </g>
    <g>
     <circle stroke="black" stroke-width="0.5" fill="#aaffff" cx="423.0" cy="148.0" r="1.0"/>
     <text stroke="none" x="423.0" y="148.0" font-size="20.0" font-family="helvetica">100</text>
    </g>
    <g>
     <circle stroke="black" stroke-width="0.5" fill="#aaffff" cx="430.0" cy="243.0" r="1.0"/>
     <text stroke="none" x="430.0" y="243.0" font-size="20.0" font-family="helvetica">Gelidibacter algens IC147 (AF001367)</text>
    </g>
    <g>
     <circle stroke="black" stroke-width="0.5" fill="#aaffff" cx="443.0" cy="690.0" r="1.0"/>
     <text stroke="none" x="443.0" y="690.0" font-size="10.0" font-family="helvetica">NT1.34</text>
    </g>
    <g>
     <circle stroke="black" stroke-width="0.5" fill="#aaffff" cx="446.0" cy="206.0" r="1.0"/>
     <text stroke="none" x="446.0" y="206.0" font-size="20.0" font-family="helvetica">Psychroserpens burtonensis ACAM 1887 (U62913)</text>
    </g>
    <g>
     <circle stroke="black" stroke-width="0.5" fill="#aaffff" cx="450.0" cy="20.0" r="1.0"/>
     <text stroke="none" x="450.0" y="20.0" font-size="10.0" font-family="helvetica">NT1.36</text>
    </g>
    <g>
     <circle stroke="black" stroke-width="0.5" fill="#aaffff" cx="454.0" cy="316.0" r="1.0"/>
     <text stroke="none" x="454.0" y="316.0" font-size="20.0" font-family="helvetica">Cellulophaga algicola IC1667 (AF001366)</text>
    </g>
    <g>
     <circle stroke="black" stroke-width="0.5" fill="#aaffff" cx="459.0" cy="55.0" r="1.0"/>
     <text stroke="none" x="459.0" y="55.0" font-size="10.0" font-family="helvetica">NT1.38</text>
    </g>
    <g>
     <circle stroke="black" stroke-width="0.5" fill="#aaffff" cx="461.0" cy="616.0" r="1.0"/>
     <text stroke="none" x="461.0" y="616.0" font-size="20.0" font-family="helvetica">Aequorivita antarctica strain SW497 (AY027802)</text>
    </g>
    <g>
     <circle stroke="black" stroke-width="0.5" fill="#aaffff" cx="478.0" cy="170.0" r="1.0"/>
     <text stroke="none" x="478.0" y="170.0" font-size="20.0" font-family="helvetica">Psychmflexus gondwanensis DSM 54237 (M92278)</text>
    </g>
    <g>
     <circle stroke="black" stroke-width="0.5" fill="#aaffff" cx="489.0" cy="763.0" r="1.0"/>
     <text stroke="none" x="489.0" y="763.0" font-size="20.0" font-family="helvetica">Polarfbacterfilamentus strain 2157 (U73726)</text>
    </g>
    <g>
     <circle stroke="black" stroke-width="0.5" fill="#aaffff" cx="493.0" cy="578.0" r="1.0"/>
     <text stroke="none" x="493.0" y="578.0" font-size="20.0" font-family="helvetica">Zobellia uliginosa ATCC 143977 (M62799)</text>
    </g>
    <g>
     <circle stroke="black" stroke-width="0.5" fill="#aaffff" cx="498.0" cy="132.0" r="1.0"/>
     <text stroke="none" x="498.0" y="132.0" font-size="20.0" font-family="helvetica">Psychmflexus torquis ACAM 6237 (U85881)</text>
    </g>
    <g>
     <circle stroke="black" stroke-width="0.5" fill="#aaffff" cx="500.0" cy="540.0" r="1.0"/>
     <text stroke="none" x="500.0" y="540.0" font-size="20.0" font-family="helvetica">Zobellia galactanivorans strain Dsij7 (AF208293)</text>
    </g>
    <g>
     <circle stroke="black" stroke-width="0.5" fill="#aaffff" cx="504.0" cy="727.0" r="1.0"/>
     <text stroke="none" x="504.0" y="727.0" font-size="20.0" font-family="helvetica">Tenacibaculum maritimum ATCC 433987 (M64629)</text>
    </g>
    <g>
     <circle stroke="black" stroke-width="0.5" fill="#aaffff" cx="519.0" cy="654.0" r="1.0"/>
     <text stroke="none" x="519.0" y="654.0" font-size="20.0" font-family="helvetica">Vitellibacter vladivostokensis KMM 35167 (AB071382)</text>
    </g>
    <g>
     <circle stroke="black" stroke-width="0.5" fill="#aaffff" cx="530.0" cy="430.0" r="1.0"/>
     <text stroke="none" x="530.0" y="430.0" font-size="10.0" font-family="helvetica">NT1.47</text>
    </g>
    <g>
     <circle stroke="black" stroke-width="0.5" fill="#aaffff" cx="530.0" cy="466.0" r="1.0"/>
     <text stroke="none" x="530.0" y="466.0" font-size="10.0" font-family="helvetica">NT1.48</text>
    </g>
    <g>
     <circle stroke="black" stroke-width="0.5" fill="#aaffff" cx="610.0" cy="504.0" r="1.0"/>
     <text stroke="none" x="610.0" y="504.0" font-size="20.0" font-family="helvetica">Muricauda ruestringensis strain B17 (AF218782)</text>
    </g>
    <g>
     <circle stroke="black" stroke-width="0.5" fill="#aaffff" cx="15.0" cy="719.0" r="1.0"/>
     <text stroke="none" x="15.0" y="719.0" font-size="10.0" font-family="helvetica">NT1.50</text>
    </g>
    <line stroke="black" x1="446.0" y1="206.0" x2="232.0" y2="206.0" stroke-width="0.5"/>
    <line stroke="black" x1="489.0" y1="763.0" x2="384.0" y2="764.0" stroke-width="0.5"/>
    <line stroke="black" x1="402.0" y1="837.0" x2="299.0" y2="838.0" stroke-width="0.5"/>
    <line stroke="black" x1="176.0" y1="110.0" x2="423.0" y2="148.0" stroke-width="0.5"/>
    <line stroke="black" x1="129.0" y1="169.0" x2="109.0" y2="499.0" stroke-width="0.5"/>
    <line stroke="black" x1="129.0" y1="169.0" x2="232.0" y2="206.0" stroke-width="0.5"/>
    <line stroke="black" x1="109.0" y1="499.0" x2="154.0" y2="560.0" stroke-width="0.5"/>
    <line stroke="black" x1="109.0" y1="499.0" x2="56.0" y2="674.0" stroke-width="0.5"/>
    <line stroke="black" x1="109.0" y1="499.0" x2="325.0" y2="371.0" stroke-width="0.5"/>
    <line stroke="black" x1="109.0" y1="499.0" x2="264.0" y2="300.0" stroke-width="0.5"/>
    <line stroke="black" x1="109.0" y1="499.0" x2="279.0" y2="744.0" stroke-width="0.5"/>
    <line stroke="black" x1="182.0" y1="660.0" x2="291.0" y2="636.0" stroke-width="0.5"/>
    <line stroke="black" x1="56.0" y1="674.0" x2="196.0" y2="818.0" stroke-width="0.5"/>
    <line stroke="black" x1="325.0" y1="371.0" x2="350.0" y2="356.0" stroke-width="0.5"/>
    <line stroke="black" x1="243.0" y1="497.0" x2="279.0" y2="530.0" stroke-width="0.5"/>
    <line stroke="black" x1="279.0" y1="530.0" x2="417.0" y2="560.0" stroke-width="0.5"/>
    <line stroke="black" x1="15.0" y1="719.0" x2="56.0" y2="674.0" stroke-width="0.5"/>
    <line stroke="black" x1="385.0" y1="877.0" x2="15.0" y2="719.0" stroke-width="0.5"/>
    <line stroke="black" x1="339.0" y1="800.0" x2="196.0" y2="818.0" stroke-width="0.5"/>
    <line stroke="black" x1="430.0" y1="243.0" x2="232.0" y2="206.0" stroke-width="0.5"/>
    <line stroke="black" x1="389.0" y1="393.0" x2="325.0" y2="371.0" stroke-width="0.5"/>
    <line stroke="black" x1="610.0" y1="504.0" x2="279.0" y2="530.0" stroke-width="0.5"/>
    <line stroke="black" x1="410.0" y1="280.0" x2="264.0" y2="300.0" stroke-width="0.5"/>
    <line stroke="black" x1="461.0" y1="616.0" x2="291.0" y2="636.0" stroke-width="0.5"/>
    <line stroke="black" x1="454.0" y1="316.0" x2="264.0" y2="300.0" stroke-width="0.5"/>
    <line stroke="black" x1="519.0" y1="654.0" x2="291.0" y2="636.0" stroke-width="0.5"/>
    <line stroke="black" x1="504.0" y1="727.0" x2="279.0" y2="744.0" stroke-width="0.5"/>
    <line stroke="black" x1="478.0" y1="170.0" x2="423.0" y2="148.0" stroke-width="0.5"/>
    <line stroke="black" x1="498.0" y1="132.0" x2="423.0" y2="148.0" stroke-width="0.5"/>
    <line stroke="black" x1="500.0" y1="540.0" x2="417.0" y2="560.0" stroke-width="0.5"/>
    <line stroke="black" x1="493.0" y1="578.0" x2="417.0" y2="560.0" stroke-width="0.5"/>
   </g>
  </g>
 </svg>
</svg>
