<?xml version="1.0" encoding="UTF-8"?>
<svg height="800.0" width="700.0" xmlns="http://www.w3.org/2000/svg">
 <svg>
  <g>
   <g>
    <g>
     <circle stroke="black" stroke-width="0.5" fill="#aaffff" cx="2.0" cy="831.0" r="1.0"/>
     <text stroke="none" x="2.0" y="831.0" font-size="20.0" font-family="helvetica"/>
    </g>
    <g>
     <circle stroke="black" stroke-width="0.5" fill="#aaffff" cx="4.0" cy="831.0" r="1.0"/>
     <text stroke="none" x="4.0" y="831.0" font-size="10.0" font-family="helvetica">NT1.2</text>
    </g>
    <g>
     <circle stroke="black" stroke-width="0.5" fill="#aaffff" cx="80.0" cy="811.0" r="1.0"/>
     <text stroke="none" x="80.0" y="811.0" font-size="20.0" font-family="helvetica">80</text>
    </g>
    <g>
     <circle stroke="black" stroke-width="0.5" fill="#aaffff" cx="116.0" cy="398.0" r="1.0"/>
     <text stroke="none" x="116.0" y="398.0" font-size="20.0" font-family="helvetica">66</text>
    </g>
    <g>
     <circle stroke="black" stroke-width="0.5" fill="#aaffff" cx="150.0" cy="268.0" r="1.0"/>
     <text stroke="none" x="150.0" y="268.0" font-size="10.0" font-family="helvetica">NT1.5</text>
    </g>
    <g>
     <circle stroke="black" stroke-width="0.5" fill="#aaffff" cx="151.0" cy="528.0" r="1.0"/>
     <text stroke="none" x="151.0" y="528.0" font-size="10.0" font-family="helvetica">NT1.6</text>
    </g>
    <g>
     <circle stroke="black" stroke-width="0.5" fill="#aaffff" cx="167.0" cy="1022.0" r="1.0"/>
     <text stroke="none" x="167.0" y="1022.0" font-size="20.0" font-family="helvetica">87</text>
    </g>
    <g>
     <circle stroke="black" stroke-width="0.5" fill="#aaffff" cx="174.0" cy="788.0" r="1.0"/>
     <text stroke="none" x="174.0" y="788.0" font-size="10.0" font-family="helvetica">NT1.8</text>
    </g>
    <g>
     <circle stroke="black" stroke-width="0.5" fill="#aaffff" cx="202.0" cy="203.0" r="1.0"/>
     <text stroke="none" x="202.0" y="203.0" font-size="10.0" font-family="helvetica">NT1.9</text>
    </g>
    <g>
     <circle stroke="black" stroke-width="0.5" fill="#aaffff" cx="234.0" cy="354.0" r="1.0"/>
     <text stroke="none" x="234.0" y="354.0" font-size="20.0" font-family="helvetica">80</text>
    </g>
    <g>
     <circle stroke="black" stroke-width="0.5" fill="#aaffff" cx="247.0" cy="55.0" r="1.0"/>
     <text stroke="none" x="247.0" y="55.0" font-size="10.0" font-family="helvetica">NT1.11</text>
    </g>
    <g>
     <circle stroke="black" stroke-width="0.5" fill="#aaffff" cx="273.0" cy="314.0" r="1.0"/>
     <text stroke="none" x="273.0" y="314.0" font-size="10.0" font-family="helvetica">NT1.12</text>
    </g>
    <g>
     <circle stroke="black" stroke-width="0.5" fill="#aaffff" cx="319.0" cy="993.0" r="1.0"/>
     <text stroke="none" x="319.0" y="993.0" font-size="20.0" font-family="helvetica">Bacillus pseudafirmus DSM 8715T (X76439)</text>
    </g>
    <g>
     <circle stroke="black" stroke-width="0.5" fill="#aaffff" cx="337.0" cy="338.0" r="1.0"/>
     <text stroke="none" x="337.0" y="338.0" font-size="20.0" font-family="helvetica">Filabacillus milasensis DSM 13259T (AJ238042)</text>
    </g>
    <g>
     <circle stroke="black" stroke-width="0.5" fill="#aaffff" cx="347.0" cy="69.0" r="1.0"/>
     <text stroke="none" x="347.0" y="69.0" font-size="10.0" font-family="helvetica">NT1.15</text>
    </g>
    <g>
     <circle stroke="black" stroke-width="0.5" fill="#aaffff" cx="349.0" cy="285.0" r="1.0"/>
     <text stroke="none" x="349.0" y="285.0" font-size="10.0" font-family="helvetica">NT1.16</text>
    </g>
    <g>
     <circle stroke="black" stroke-width="0.5" fill="#aaffff" cx="360.0" cy="1047.0" r="1.0"/>
     <text stroke="none" x="360.0" y="1047.0" font-size="20.0" font-family="helvetica">Bacillus akihai JCM 9157' (AB043858)</text>
    </g>
    <g>
     <circle stroke="black" stroke-width="0.5" fill="#aaffff" cx="367.0" cy="230.0" r="1.0"/>
     <text stroke="none" x="367.0" y="230.0" font-size="10.0" font-family="helvetica">NT1.18</text>
    </g>
    <g>
     <circle stroke="black" stroke-width="0.5" fill="#aaffff" cx="418.0" cy="939.0" r="1.0"/>
     <text stroke="none" x="418.0" y="939.0" font-size="20.0" font-family="helvetica">Bacillus agarudhaerens DSM 8721T (X76445)</text>
    </g>
    <g>
     <circle stroke="black" stroke-width="0.5" fill="#aaffff" cx="423.0" cy="558.0" r="1.0"/>
     <text stroke="none" x="423.0" y="558.0" font-size="20.0" font-family="helvetica">Bacillus sublilis JCM 1465T (X60646)</text>
    </g>
    <g>
     <circle stroke="black" stroke-width="0.5" fill="#aaffff" cx="426.0" cy="14.0" r="1.0"/>
     <text stroke="none" x="426.0" y="14.0" font-size="10.0" font-family="helvetica">NT1.21</text>
    </g>
    <g>
     <circle stroke="black" stroke-width="0.5" fill="#aaffff" cx="430.0" cy="395.0" r="1.0"/>
     <text stroke="none" x="430.0" y="395.0" font-size="20.0" font-family="helvetica">Alkalibacillus haloalkaliphilus DSM 5271T (AJ238041)</text>
    </g>
    <g>
     <circle stroke="black" stroke-width="0.5" fill="#aaffff" cx="439.0" cy="503.0" r="1.0"/>
     <text stroke="none" x="439.0" y="503.0" font-size="10.0" font-family="helvetica">NT1.23</text>
    </g>
    <g>
     <circle stroke="black" stroke-width="0.5" fill="#aaffff" cx="445.0" cy="1101.0" r="1.0"/>
     <text stroke="none" x="445.0" y="1101.0" font-size="10.0" font-family="helvetica">NT1.24</text>
    </g>
    <g>
     <circle stroke="black" stroke-width="0.5" fill="#aaffff" cx="456.0" cy="450.0" r="1.0"/>
     <text stroke="none" x="456.0" y="450.0" font-size="20.0" font-family="helvetica">Halalkalibacillus halaphilus JCM 14192T (AB264529)</text>
    </g>
    <g>
     <circle stroke="black" stroke-width="0.5" fill="#aaffff" cx="470.0" cy="68.0" r="1.0"/>
     <text stroke="none" x="470.0" y="68.0" font-size="10.0" font-family="helvetica">NT1.26</text>
    </g>
    <g>
     <circle stroke="black" stroke-width="0.5" fill="#aaffff" cx="472.0" cy="886.0" r="1.0"/>
     <text stroke="none" x="472.0" y="886.0" font-size="20.0" font-family="helvetica">Bacillus saliplzilus DSM 15402T (AJ493660)</text>
    </g>
    <g>
     <circle stroke="black" stroke-width="0.5" fill="#aaffff" cx="475.0" cy="1158.0" r="1.0"/>
     <text stroke="none" x="475.0" y="1158.0" font-size="10.0" font-family="helvetica">NT1.28</text>
    </g>
    <g>
     <circle stroke="black" stroke-width="0.5" fill="#aaffff" cx="486.0" cy="177.0" r="1.0"/>
     <text stroke="none" x="486.0" y="177.0" font-size="20.0" font-family="helvetica">Halolactibacillus haloplzilus DSM 170731 (AB196783)</text>
    </g>
    <g>
     <circle stroke="black" stroke-width="0.5" fill="#aaffff" cx="529.0" cy="830.0" r="1.0"/>
     <text stroke="none" x="529.0" y="830.0" font-size="10.0" font-family="helvetica">NT1.30</text>
    </g>
    <g>
     <circle stroke="black" stroke-width="0.5" fill="#aaffff" cx="529.0" cy="776.0" r="1.0"/>
     <text stroke="none" x="529.0" y="776.0" font-size="20.0" font-family="helvetica">Bayillus sularius DSM 16461 (AY667494)</text>
    </g>
    <g>
     <circle stroke="black" stroke-width="0.5" fill="#aaffff" cx="540.0" cy="122.0" r="1.0"/>
     <text stroke="none" x="540.0" y="122.0" font-size="20.0" font-family="helvetica">Lerttiluzcillus salariux DSM 16459' (AY667493)</text>
    </g>
    <g>
     <circle stroke="black" stroke-width="0.5" fill="#aaffff" cx="638.0" cy="720.0" r="1.0"/>
     <text stroke="none" x="638.0" y="720.0" font-size="20.0" font-family="helvetica">Marinococcus halophilus DSM 20408T (X90835)</text>
    </g>
    <g>
     <circle stroke="black" stroke-width="0.5" fill="#aaffff" cx="673.0" cy="667.0" r="1.0"/>
     <text stroke="none" x="673.0" y="667.0" font-size="10.0" font-family="helvetica">NT1.34</text>
    </g>
    <g>
     <circle stroke="black" stroke-width="0.5" fill="#aaffff" cx="673.0" cy="626.0" r="1.0"/>
     <text stroke="none" x="673.0" y="626.0" font-size="10.0" font-family="helvetica">NT1.35</text>
    </g>
    <g>
     <circle stroke="black" stroke-width="0.5" fill="#aaffff" cx="674.0" cy="665.0" r="1.0"/>
     <text stroke="none" x="674.0" y="665.0" font-size="10.0" font-family="helvetica">NT1.36</text>
    </g>
    <g>
     <circle stroke="black" stroke-width="0.5" fill="#aaffff" cx="676.0" cy="664.0" r="1.0"/>
     <text stroke="none" x="676.0" y="664.0" font-size="10.0" font-family="helvetica">NT1.37</text>
    </g>
    <g>
     <circle stroke="black" stroke-width="0.5" fill="#aaffff" cx="683.0" cy="610.0" r="1.0"/>
     <text stroke="none" x="683.0" y="610.0" font-size="10.0" font-family="helvetica">NT1.38</text>
    </g>
    <line stroke="black" x1="540.0" y1="122.0" x2="347.0" y2="69.0" stroke-width="0.5"/>
    <line stroke="black" x1="319.0" y1="993.0" x2="167.0" y2="1022.0" stroke-width="0.5"/>
    <line stroke="black" x1="418.0" y1="939.0" x2="174.0" y2="788.0" stroke-width="0.5"/>
    <line stroke="black" x1="150.0" y1="268.0" x2="116.0" y2="398.0" stroke-width="0.5"/>
    <line stroke="black" x1="150.0" y1="268.0" x2="234.0" y2="354.0" stroke-width="0.5"/>
    <line stroke="black" x1="116.0" y1="398.0" x2="80.0" y2="811.0" stroke-width="0.5"/>
    <line stroke="black" x1="273.0" y1="314.0" x2="337.0" y2="338.0" stroke-width="0.5"/>
    <line stroke="black" x1="80.0" y1="811.0" x2="4.0" y2="831.0" stroke-width="0.5"/>
    <line stroke="black" x1="80.0" y1="811.0" x2="174.0" y2="788.0" stroke-width="0.5"/>
    <line stroke="black" x1="80.0" y1="811.0" x2="167.0" y2="1022.0" stroke-width="0.5"/>
    <line stroke="black" x1="456.0" y1="450.0" x2="150.0" y2="268.0" stroke-width="0.5"/>
    <line stroke="black" x1="423.0" y1="558.0" x2="151.0" y2="528.0" stroke-width="0.5"/>
    <line stroke="black" x1="360.0" y1="1047.0" x2="167.0" y2="1022.0" stroke-width="0.5"/>
    <line stroke="black" x1="486.0" y1="177.0" x2="202.0" y2="203.0" stroke-width="0.5"/>
    <line stroke="black" x1="430.0" y1="395.0" x2="234.0" y2="354.0" stroke-width="0.5"/>
    <line stroke="black" x1="472.0" y1="886.0" x2="174.0" y2="788.0" stroke-width="0.5"/>
    <line stroke="black" x1="529.0" y1="776.0" x2="174.0" y2="788.0" stroke-width="0.5"/>
    <line stroke="black" x1="638.0" y1="720.0" x2="174.0" y2="788.0" stroke-width="0.5"/>
   </g>
  </g>
 </svg>
</svg>
