<?xml version="1.0" encoding="UTF-8"?>
<svg height="800.0" width="700.0" xmlns="http://www.w3.org/2000/svg">
 <svg>
  <g>
   <g>
    <g>
     <circle stroke="black" stroke-width="0.5" fill="#aaffff" cx="240.0" cy="386.0" r="1.0"/>
     <text stroke="none" x="240.0" y="386.0" font-size="20.0" font-family="helvetica">L</text>
    </g>
    <g>
     <circle stroke="black" stroke-width="0.5" fill="#aaffff" cx="247.0" cy="306.0" r="1.0"/>
     <text stroke="none" x="247.0" y="306.0" font-size="10.0" font-family="helvetica">NT1.2</text>
    </g>
    <g>
     <circle stroke="black" stroke-width="0.5" fill="#aaffff" cx="292.0" cy="461.0" r="1.0"/>
     <text stroke="none" x="292.0" y="461.0" font-size="20.0" font-family="helvetica">80</text>
    </g>
    <g>
     <circle stroke="black" stroke-width="0.5" fill="#aaffff" cx="351.0" cy="229.0" r="1.0"/>
     <text stroke="none" x="351.0" y="229.0" font-size="20.0" font-family="helvetica">98</text>
    </g>
    <g>
     <circle stroke="black" stroke-width="0.5" fill="#aaffff" cx="354.0" cy="158.0" r="1.0"/>
     <text stroke="none" x="354.0" y="158.0" font-size="10.0" font-family="helvetica">NT1.5</text>
    </g>
    <g>
     <circle stroke="black" stroke-width="0.5" fill="#aaffff" cx="367.0" cy="505.0" r="1.0"/>
     <text stroke="none" x="367.0" y="505.0" font-size="20.0" font-family="helvetica">99</text>
    </g>
    <g>
     <circle stroke="black" stroke-width="0.5" fill="#aaffff" cx="372.0" cy="299.0" r="1.0"/>
     <text stroke="none" x="372.0" y="299.0" font-size="20.0" font-family="helvetica">56</text>
    </g>
    <g>
     <circle stroke="black" stroke-width="0.5" fill="#aaffff" cx="383.0" cy="117.0" r="1.0"/>
     <text stroke="none" x="383.0" y="117.0" font-size="20.0" font-family="helvetica">69</text>
    </g>
    <g>
     <circle stroke="black" stroke-width="0.5" fill="#aaffff" cx="401.0" cy="85.0" r="1.0"/>
     <text stroke="none" x="401.0" y="85.0" font-size="10.0" font-family="helvetica">NT1.9</text>
    </g>
    <g>
     <circle stroke="black" stroke-width="0.5" fill="#aaffff" cx="424.0" cy="543.0" r="1.0"/>
     <text stroke="none" x="424.0" y="543.0" font-size="10.0" font-family="helvetica">NT1.10</text>
    </g>
    <g>
     <circle stroke="black" stroke-width="0.5" fill="#aaffff" cx="427.0" cy="417.0" r="1.0"/>
     <text stroke="none" x="427.0" y="417.0" font-size="20.0" font-family="helvetica">Planococcus citreus NCIMB 14937 (X62172)</text>
    </g>
    <g>
     <circle stroke="black" stroke-width="0.5" fill="#aaffff" cx="428.0" cy="56.0" r="1.0"/>
     <text stroke="none" x="428.0" y="56.0" font-size="20.0" font-family="helvetica">84</text>
    </g>
    <g>
     <circle stroke="black" stroke-width="0.5" fill="#aaffff" cx="442.0" cy="568.0" r="1.0"/>
     <text stroke="none" x="442.0" y="568.0" font-size="10.0" font-family="helvetica">NT1.13</text>
    </g>
    <g>
     <circle stroke="black" stroke-width="0.5" fill="#aaffff" cx="449.0" cy="586.0" r="1.0"/>
     <text stroke="none" x="449.0" y="586.0" font-size="20.0" font-family="helvetica">Halobacillus litoralis SL-4T (X94558)</text>
    </g>
    <g>
     <circle stroke="black" stroke-width="0.5" fill="#aaffff" cx="450.0" cy="148.0" r="1.0"/>
     <text stroke="none" x="450.0" y="148.0" font-size="20.0" font-family="helvetica">Salinicoccus alkaliphilus T87 (AF275710)</text>
    </g>
    <g>
     <circle stroke="black" stroke-width="0.5" fill="#aaffff" cx="456.0" cy="198.0" r="1.0"/>
     <text stroke="none" x="456.0" y="198.0" font-size="10.0" font-family="helvetica">NT1.16</text>
    </g>
    <g>
     <circle stroke="black" stroke-width="0.5" fill="#aaffff" cx="462.0" cy="81.0" r="1.0"/>
     <text stroke="none" x="462.0" y="81.0" font-size="10.0" font-family="helvetica">NT1.17</text>
    </g>
    <g>
     <circle stroke="black" stroke-width="0.5" fill="#aaffff" cx="465.0" cy="551.0" r="1.0"/>
     <text stroke="none" x="465.0" y="551.0" font-size="10.0" font-family="helvetica">NT1.18</text>
    </g>
    <g>
     <circle stroke="black" stroke-width="0.5" fill="#aaffff" cx="465.0" cy="266.0" r="1.0"/>
     <text stroke="none" x="465.0" y="266.0" font-size="20.0" font-family="helvetica">100</text>
    </g>
    <g>
     <circle stroke="black" stroke-width="0.5" fill="#aaffff" cx="466.0" cy="283.0" r="1.0"/>
     <text stroke="none" x="466.0" y="283.0" font-size="20.0" font-family="helvetica">Macrococcus bovicus C2F4T (Y15714)</text>
    </g>
    <g>
     <circle stroke="black" stroke-width="0.5" fill="#aaffff" cx="466.0" cy="248.0" r="1.0"/>
     <text stroke="none" x="466.0" y="248.0" font-size="20.0" font-family="helvetica">Macrococcus carouselicus H8b16T (Y15713)</text>
    </g>
    <g>
     <circle stroke="black" stroke-width="0.5" fill="#aaffff" cx="471.0" cy="332.0" r="1.0"/>
     <text stroke="none" x="471.0" y="332.0" font-size="20.0" font-family="helvetica">100</text>
    </g>
    <g>
     <circle stroke="black" stroke-width="0.5" fill="#aaffff" cx="472.0" cy="31.0" r="1.0"/>
     <text stroke="none" x="472.0" y="31.0" font-size="10.0" font-family="helvetica">NT1.23</text>
    </g>
    <g>
     <circle stroke="black" stroke-width="0.5" fill="#aaffff" cx="473.0" cy="12.0" r="1.0"/>
     <text stroke="none" x="473.0" y="12.0" font-size="10.0" font-family="helvetica">NT1.24</text>
    </g>
    <g>
     <circle stroke="black" stroke-width="0.5" fill="#aaffff" cx="476.0" cy="181.0" r="1.0"/>
     <text stroke="none" x="476.0" y="181.0" font-size="20.0" font-family="helvetica"> Jeotgalicoccus halotolerans YKJ-1017 (AYO28925)</text>
    </g>
    <g>
     <circle stroke="black" stroke-width="0.5" fill="#aaffff" cx="477.0" cy="115.0" r="1.0"/>
     <text stroke="none" x="477.0" y="115.0" font-size="20.0" font-family="helvetica">Salinicocous hispanicus DSM 5352T (AY028927)</text>
    </g>
    <g>
     <circle stroke="black" stroke-width="0.5" fill="#aaffff" cx="494.0" cy="216.0" r="1.0"/>
     <text stroke="none" x="494.0" y="216.0" font-size="10.0" font-family="helvetica">NT1.27</text>
    </g>
    <g>
     <circle stroke="black" stroke-width="0.5" fill="#aaffff" cx="499.0" cy="47.0" r="1.0"/>
     <text stroke="none" x="499.0" y="47.0" font-size="10.0" font-family="helvetica">NT1.28</text>
    </g>
    <g>
     <circle stroke="black" stroke-width="0.5" fill="#aaffff" cx="500.0" cy="350.0" r="1.0"/>
     <text stroke="none" x="500.0" y="350.0" font-size="20.0" font-family="helvetica">Staphylococcus carnosus DSM 205017 (AF041356)</text>
    </g>
    <g>
     <circle stroke="black" stroke-width="0.5" fill="#aaffff" cx="512.0" cy="316.0" r="1.0"/>
     <text stroke="none" x="512.0" y="316.0" font-size="10.0" font-family="helvetica">NT1.30</text>
    </g>
    <g>
     <circle stroke="black" stroke-width="0.5" fill="#aaffff" cx="518.0" cy="384.0" r="1.0"/>
     <text stroke="none" x="518.0" y="384.0" font-size="20.0" font-family="helvetica">Tetragenococcus muriaticus X-17 (D88824)</text>
    </g>
    <g>
     <circle stroke="black" stroke-width="0.5" fill="#aaffff" cx="531.0" cy="518.0" r="1.0"/>
     <text stroke="none" x="531.0" y="518.0" font-size="20.0" font-family="helvetica">Marinococcus albus DSM 2O748T (X90834)</text>
    </g>
    <g>
     <circle stroke="black" stroke-width="0.5" fill="#aaffff" cx="621.0" cy="468.0" r="1.0"/>
     <text stroke="none" x="621.0" y="468.0" font-size="20.0" font-family="helvetica">100</text>
    </g>
    <g>
     <circle stroke="black" stroke-width="0.5" fill="#aaffff" cx="622.0" cy="450.0" r="1.0"/>
     <text stroke="none" x="622.0" y="450.0" font-size="20.0" font-family="helvetica">Marinococcus halophilus DSM 204087 (X90835)</text>
    </g>
    <g>
     <circle stroke="black" stroke-width="0.5" fill="#aaffff" cx="635.0" cy="485.0" r="1.0"/>
     <text stroke="none" x="635.0" y="485.0" font-size="20.0" font-family="helvetica">Marinococcus halotolerans YIM 7o157T (AY817493)</text>
    </g>
    <g>
     <circle stroke="black" stroke-width="0.5" fill="#aaffff" cx="638.0" cy="622.0" r="1.0"/>
     <text stroke="none" x="638.0" y="622.0" font-size="20.0" font-family="helvetica">Nesterenkonia halobia Rh-59 (Y13857)</text>
    </g>
    <g>
     <circle stroke="black" stroke-width="0.5" fill="#aaffff" cx="3.0" cy="504.0" r="1.0"/>
     <text stroke="none" x="3.0" y="504.0" font-size="10.0" font-family="helvetica">NT1.37</text>
    </g>
    <line stroke="black" x1="477.0" y1="115.0" x2="401.0" y2="85.0" stroke-width="0.5"/>
    <line stroke="black" x1="450.0" y1="148.0" x2="383.0" y2="117.0" stroke-width="0.5"/>
    <line stroke="black" x1="476.0" y1="181.0" x2="456.0" y2="198.0" stroke-width="0.5"/>
    <line stroke="black" x1="466.0" y1="283.0" x2="465.0" y2="266.0" stroke-width="0.5"/>
    <line stroke="black" x1="466.0" y1="248.0" x2="465.0" y2="266.0" stroke-width="0.5"/>
    <line stroke="black" x1="500.0" y1="350.0" x2="471.0" y2="332.0" stroke-width="0.5"/>
    <line stroke="black" x1="518.0" y1="384.0" x2="247.0" y2="306.0" stroke-width="0.5"/>
    <line stroke="black" x1="427.0" y1="417.0" x2="292.0" y2="461.0" stroke-width="0.5"/>
    <line stroke="black" x1="449.0" y1="586.0" x2="442.0" y2="568.0" stroke-width="0.5"/>
    <line stroke="black" x1="531.0" y1="518.0" x2="424.0" y2="543.0" stroke-width="0.5"/>
    <line stroke="black" x1="622.0" y1="450.0" x2="621.0" y2="468.0" stroke-width="0.5"/>
    <line stroke="black" x1="635.0" y1="485.0" x2="621.0" y2="468.0" stroke-width="0.5"/>
    <line stroke="black" x1="383.0" y1="117.0" x2="354.0" y2="158.0" stroke-width="0.5"/>
    <line stroke="black" x1="354.0" y1="158.0" x2="351.0" y2="229.0" stroke-width="0.5"/>
    <line stroke="black" x1="351.0" y1="229.0" x2="247.0" y2="306.0" stroke-width="0.5"/>
    <line stroke="black" x1="351.0" y1="229.0" x2="372.0" y2="299.0" stroke-width="0.5"/>
    <line stroke="black" x1="372.0" y1="299.0" x2="465.0" y2="266.0" stroke-width="0.5"/>
    <line stroke="black" x1="247.0" y1="306.0" x2="240.0" y2="386.0" stroke-width="0.5"/>
    <line stroke="black" x1="240.0" y1="386.0" x2="292.0" y2="461.0" stroke-width="0.5"/>
    <line stroke="black" x1="292.0" y1="461.0" x2="367.0" y2="505.0" stroke-width="0.5"/>
    <line stroke="black" x1="367.0" y1="505.0" x2="424.0" y2="543.0" stroke-width="0.5"/>
    <line stroke="black" x1="367.0" y1="505.0" x2="621.0" y2="468.0" stroke-width="0.5"/>
    <line stroke="black" x1="3.0" y1="504.0" x2="638.0" y2="622.0" stroke-width="0.5"/>
    <line stroke="black" x1="3.0" y1="504.0" x2="240.0" y2="386.0" stroke-width="0.5"/>
   </g>
  </g>
 </svg>
</svg>
