<?xml version="1.0" encoding="UTF-8"?>
<svg height="800.0" width="700.0" xmlns="http://www.w3.org/2000/svg">
 <svg>
  <g>
   <g>
    <g>
     <circle stroke="black" stroke-width="0.5" fill="#aaffff" cx="72.0" cy="1204.0" r="1.0"/>
     <text stroke="none" x="72.0" y="1204.0" font-size="10.0" font-family="helvetica">NT1.1</text>
    </g>
    <g>
     <circle stroke="black" stroke-width="0.5" fill="#aaffff" cx="115.0" cy="1120.0" r="1.0"/>
     <text stroke="none" x="115.0" y="1120.0" font-size="10.0" font-family="helvetica">NT1.2</text>
    </g>
    <g>
     <circle stroke="black" stroke-width="0.5" fill="#aaffff" cx="201.0" cy="999.0" r="1.0"/>
     <text stroke="none" x="201.0" y="999.0" font-size="10.0" font-family="helvetica">NT1.3</text>
    </g>
    <g>
     <circle stroke="black" stroke-width="0.5" fill="#aaffff" cx="257.0" cy="852.0" r="1.0"/>
     <text stroke="none" x="257.0" y="852.0" font-size="10.0" font-family="helvetica">NT1.4</text>
    </g>
    <g>
     <circle stroke="black" stroke-width="0.5" fill="#aaffff" cx="280.0" cy="1143.0" r="1.0"/>
     <text stroke="none" x="280.0" y="1143.0" font-size="10.0" font-family="helvetica">NT1.5</text>
    </g>
    <g>
     <circle stroke="black" stroke-width="0.5" fill="#aaffff" cx="299.0" cy="676.0" r="1.0"/>
     <text stroke="none" x="299.0" y="676.0" font-size="20.0" font-family="helvetica">90</text>
    </g>
    <g>
     <circle stroke="black" stroke-width="0.5" fill="#aaffff" cx="339.0" cy="1176.0" r="1.0"/>
     <text stroke="none" x="339.0" y="1176.0" font-size="10.0" font-family="helvetica">NT1.7</text>
    </g>
    <g>
     <circle stroke="black" stroke-width="0.5" fill="#aaffff" cx="352.0" cy="516.0" r="1.0"/>
     <text stroke="none" x="352.0" y="516.0" font-size="10.0" font-family="helvetica">NT1.8</text>
    </g>
    <g>
     <circle stroke="black" stroke-width="0.5" fill="#aaffff" cx="409.0" cy="326.0" r="1.0"/>
     <text stroke="none" x="409.0" y="326.0" font-size="10.0" font-family="helvetica">NT1.9</text>
    </g>
    <g>
     <circle stroke="black" stroke-width="0.5" fill="#aaffff" cx="434.0" cy="214.0" r="1.0"/>
     <text stroke="none" x="434.0" y="214.0" font-size="20.0" font-family="helvetica">79</text>
    </g>
    <g>
     <circle stroke="black" stroke-width="0.5" fill="#aaffff" cx="454.0" cy="1110.0" r="1.0"/>
     <text stroke="none" x="454.0" y="1110.0" font-size="10.0" font-family="helvetica">NT1.11</text>
    </g>
    <g>
     <circle stroke="black" stroke-width="0.5" fill="#aaffff" cx="460.0" cy="704.0" r="1.0"/>
     <text stroke="none" x="460.0" y="704.0" font-size="10.0" font-family="helvetica">NT1.12</text>
    </g>
    <g>
     <circle stroke="black" stroke-width="0.5" fill="#aaffff" cx="462.0" cy="1026.0" r="1.0"/>
     <text stroke="none" x="462.0" y="1026.0" font-size="10.0" font-family="helvetica">NT1.13</text>
    </g>
    <g>
     <circle stroke="black" stroke-width="0.5" fill="#aaffff" cx="470.0" cy="291.0" r="1.0"/>
     <text stroke="none" x="470.0" y="291.0" font-size="20.0" font-family="helvetica">35</text>
    </g>
    <g>
     <circle stroke="black" stroke-width="0.5" fill="#aaffff" cx="504.0" cy="659.0" r="1.0"/>
     <text stroke="none" x="504.0" y="659.0" font-size="20.0" font-family="helvetica">96</text>
    </g>
    <g>
     <circle stroke="black" stroke-width="0.5" fill="#aaffff" cx="523.0" cy="751.0" r="1.0"/>
     <text stroke="none" x="523.0" y="751.0" font-size="10.0" font-family="helvetica">NT1.16</text>
    </g>
    <g>
     <circle stroke="black" stroke-width="0.5" fill="#aaffff" cx="532.0" cy="136.0" r="1.0"/>
     <text stroke="none" x="532.0" y="136.0" font-size="10.0" font-family="helvetica">NT1.17</text>
    </g>
    <g>
     <circle stroke="black" stroke-width="0.5" fill="#aaffff" cx="549.0" cy="333.0" r="1.0"/>
     <text stroke="none" x="549.0" y="333.0" font-size="10.0" font-family="helvetica">NT1.18</text>
    </g>
    <g>
     <circle stroke="black" stroke-width="0.5" fill="#aaffff" cx="562.0" cy="988.0" r="1.0"/>
     <text stroke="none" x="562.0" y="988.0" font-size="10.0" font-family="helvetica">NT1.19</text>
    </g>
    <g>
     <circle stroke="black" stroke-width="0.5" fill="#aaffff" cx="581.0" cy="84.0" r="1.0"/>
     <text stroke="none" x="581.0" y="84.0" font-size="20.0" font-family="helvetica">99</text>
    </g>
    <g>
     <circle stroke="black" stroke-width="0.5" fill="#aaffff" cx="597.0" cy="731.0" r="1.0"/>
     <text stroke="none" x="597.0" y="731.0" font-size="20.0" font-family="helvetica">Elbe river clone DEV005 (AJ401105)</text>
    </g>
    <g>
     <circle stroke="black" stroke-width="0.5" fill="#aaffff" cx="599.0" cy="628.0" r="1.0"/>
     <text stroke="none" x="599.0" y="628.0" font-size="10.0" font-family="helvetica">NT1.22</text>
    </g>
    <g>
     <circle stroke="black" stroke-width="0.5" fill="#aaffff" cx="600.0" cy="648.0" r="1.0"/>
     <text stroke="none" x="600.0" y="648.0" font-size="20.0" font-family="helvetica">Luteolibacter algae A5J-40 (AB331894)</text>
    </g>
    <g>
     <circle stroke="black" stroke-width="0.5" fill="#aaffff" cx="600.0" cy="605.0" r="1.0"/>
     <text stroke="none" x="600.0" y="605.0" font-size="20.0" font-family="helvetica">Luteolibacter algae A5J-41-2T (AB331893)</text>
    </g>
    <g>
     <circle stroke="black" stroke-width="0.5" fill="#aaffff" cx="611.0" cy="689.0" r="1.0"/>
     <text stroke="none" x="611.0" y="689.0" font-size="20.0" font-family="helvetica">Luteolibacter pohnpeiensis A4T-83" (AB331895)</text>
    </g>
    <g>
     <circle stroke="black" stroke-width="0.5" fill="#aaffff" cx="613.0" cy="1122.0" r="1.0"/>
     <text stroke="none" x="613.0" y="1122.0" font-size="20.0" font-family="helvetica"/>
    </g>
    <g>
     <circle stroke="black" stroke-width="0.5" fill="#aaffff" cx="615.0" cy="1096.0" r="1.0"/>
     <text stroke="none" x="615.0" y="1096.0" font-size="20.0" font-family="helvetica"/>
    </g>
    <g>
     <circle stroke="black" stroke-width="0.5" fill="#aaffff" cx="616.0" cy="313.0" r="1.0"/>
     <text stroke="none" x="616.0" y="313.0" font-size="20.0" font-family="helvetica">Marine clone SJC3.21 (DQ071119)</text>
    </g>
    <g>
     <circle stroke="black" stroke-width="0.5" fill="#aaffff" cx="616.0" cy="1066.0" r="1.0"/>
     <text stroke="none" x="616.0" y="1066.0" font-size="20.0" font-family="helvetica">Verrucomicrobium spinosum DSM 4136T (X90515)</text>
    </g>
    <g>
     <circle stroke="black" stroke-width="0.5" fill="#aaffff" cx="617.0" cy="124.0" r="1.0"/>
     <text stroke="none" x="617.0" y="124.0" font-size="20.0" font-family="helvetica">99</text>
    </g>
    <g>
     <circle stroke="black" stroke-width="0.5" fill="#aaffff" cx="620.0" cy="1109.0" r="1.0"/>
     <text stroke="none" x="620.0" y="1109.0" font-size="20.0" font-family="helvetica">Class lSpartobacten'a' (subdivision 2)</text>
    </g>
    <g>
     <circle stroke="black" stroke-width="0.5" fill="#aaffff" cx="622.0" cy="1285.0" r="1.0"/>
     <text stroke="none" x="622.0" y="1285.0" font-size="20.0" font-family="helvetica">Contaminated aquifer clone WCHB1411 (AFO50560) (subdivision 5)</text>
    </g>
    <g>
     <circle stroke="black" stroke-width="0.5" fill="#aaffff" cx="637.0" cy="188.0" r="1.0"/>
     <text stroke="none" x="637.0" y="188.0" font-size="20.0" font-family="helvetica">Rubritalea squalenifaciens HOact23T (AB277853)</text>
    </g>
    <g>
     <circle stroke="black" stroke-width="0.5" fill="#aaffff" cx="638.0" cy="951.0" r="1.0"/>
     <text stroke="none" x="638.0" y="951.0" font-size="10.0" font-family="helvetica">NT1.34</text>
    </g>
    <g>
     <circle stroke="black" stroke-width="0.5" fill="#aaffff" cx="644.0" cy="435.0" r="1.0"/>
     <text stroke="none" x="644.0" y="435.0" font-size="10.0" font-family="helvetica">NT1.35</text>
    </g>
    <g>
     <circle stroke="black" stroke-width="0.5" fill="#aaffff" cx="649.0" cy="773.0" r="1.0"/>
     <text stroke="none" x="649.0" y="773.0" font-size="20.0" font-family="helvetica">Crater Lake clone CL500-85 (AF316731)</text>
    </g>
    <g>
     <circle stroke="black" stroke-width="0.5" fill="#aaffff" cx="650.0" cy="42.0" r="1.0"/>
     <text stroke="none" x="650.0" y="42.0" font-size="10.0" font-family="helvetica">NT1.37</text>
    </g>
    <g>
     <circle stroke="black" stroke-width="0.5" fill="#aaffff" cx="653.0" cy="474.0" r="1.0"/>
     <text stroke="none" x="653.0" y="474.0" font-size="20.0" font-family="helvetica">69</text>
    </g>
    <g>
     <circle stroke="black" stroke-width="0.5" fill="#aaffff" cx="654.0" cy="104.0" r="1.0"/>
     <text stroke="none" x="654.0" y="104.0" font-size="20.0" font-family="helvetica">Rubritalea tangerine YM27-0057 (AB297806)</text>
    </g>
    <g>
     <circle stroke="black" stroke-width="0.5" fill="#aaffff" cx="654.0" cy="355.0" r="1.0"/>
     <text stroke="none" x="654.0" y="355.0" font-size="20.0" font-family="helvetica">Polychaete clone P. palm A 54 (AJ441243)</text>
    </g>
    <g>
     <circle stroke="black" stroke-width="0.5" fill="#aaffff" cx="658.0" cy="20.0" r="1.0"/>
     <text stroke="none" x="658.0" y="20.0" font-size="20.0" font-family="helvetica">Rubritalea marina Pol012T (DQ302104)</text>
    </g>
    <g>
     <circle stroke="black" stroke-width="0.5" fill="#aaffff" cx="659.0" cy="920.0" r="1.0"/>
     <text stroke="none" x="659.0" y="920.0" font-size="20.0" font-family="helvetica">96</text>
    </g>
    <g>
     <circle stroke="black" stroke-width="0.5" fill="#aaffff" cx="660.0" cy="1024.0" r="1.0"/>
     <text stroke="none" x="660.0" y="1024.0" font-size="20.0" font-family="helvetica">Prosthecobacter vanneervenii FC2T (UGOO13)</text>
    </g>
    <g>
     <circle stroke="black" stroke-width="0.5" fill="#aaffff" cx="662.0" cy="1256.0" r="1.0"/>
     <text stroke="none" x="662.0" y="1256.0" font-size="20.0" font-family="helvetica"/>
    </g>
    <g>
     <circle stroke="black" stroke-width="0.5" fill="#aaffff" cx="663.0" cy="1241.0" r="1.0"/>
     <text stroke="none" x="663.0" y="1241.0" font-size="10.0" font-family="helvetica">NT1.45</text>
    </g>
    <g>
     <circle stroke="black" stroke-width="0.5" fill="#aaffff" cx="665.0" cy="1227.0" r="1.0"/>
     <text stroke="none" x="665.0" y="1227.0" font-size="20.0" font-family="helvetica"/>
    </g>
    <g>
     <circle stroke="black" stroke-width="0.5" fill="#aaffff" cx="666.0" cy="62.0" r="1.0"/>
     <text stroke="none" x="666.0" y="62.0" font-size="20.0" font-family="helvetica">Seawater clone 4 (DQ302105)</text>
    </g>
    <g>
     <circle stroke="black" stroke-width="0.5" fill="#aaffff" cx="666.0" cy="898.0" r="1.0"/>
     <text stroke="none" x="666.0" y="898.0" font-size="20.0" font-family="helvetica">Prosthecobacter fusiformis FC4T (U60015)</text>
    </g>
    <g>
     <circle stroke="black" stroke-width="0.5" fill="#aaffff" cx="671.0" cy="251.0" r="1.0"/>
     <text stroke="none" x="671.0" y="251.0" font-size="10.0" font-family="helvetica">NT1.49</text>
    </g>
    <g>
     <circle stroke="black" stroke-width="0.5" fill="#aaffff" cx="672.0" cy="272.0" r="1.0"/>
     <text stroke="none" x="672.0" y="272.0" font-size="20.0" font-family="helvetica">Persicirhabdus sediminis YM21-151 (AB331887)</text>
    </g>
    <g>
     <circle stroke="black" stroke-width="0.5" fill="#aaffff" cx="672.0" cy="228.0" r="1.0"/>
     <text stroke="none" x="672.0" y="228.0" font-size="20.0" font-family="helvetica">Persicirhabdus sediminis YM20-0877 (AB331886)</text>
    </g>
    <g>
     <circle stroke="black" stroke-width="0.5" fill="#aaffff" cx="673.0" cy="396.0" r="1.0"/>
     <text stroke="none" x="673.0" y="396.0" font-size="20.0" font-family="helvetica">Roseibacillus ishigakijimensis MN1 -741T (AB331888)</text>
    </g>
    <g>
     <circle stroke="black" stroke-width="0.5" fill="#aaffff" cx="673.0" cy="1242.0" r="1.0"/>
     <text stroke="none" x="673.0" y="1242.0" font-size="20.0" font-family="helvetica">Class Opitutae (subdivision 4)</text>
    </g>
    <g>
     <circle stroke="black" stroke-width="0.5" fill="#aaffff" cx="673.0" cy="835.0" r="1.0"/>
     <text stroke="none" x="673.0" y="835.0" font-size="10.0" font-family="helvetica">NT1.54</text>
    </g>
    <g>
     <circle stroke="black" stroke-width="0.5" fill="#aaffff" cx="674.0" cy="814.0" r="1.0"/>
     <text stroke="none" x="674.0" y="814.0" font-size="20.0" font-family="helvetica">Akkermansia muciniphila MucT (AY271254)</text>
    </g>
    <g>
     <circle stroke="black" stroke-width="0.5" fill="#aaffff" cx="674.0" cy="510.0" r="1.0"/>
     <text stroke="none" x="674.0" y="510.0" font-size="20.0" font-family="helvetica">99</text>
    </g>
    <g>
     <circle stroke="black" stroke-width="0.5" fill="#aaffff" cx="676.0" cy="480.0" r="1.0"/>
     <text stroke="none" x="676.0" y="480.0" font-size="20.0" font-family="helvetica">Roseibacillus persicicus YM26-0107 (AB331890)</text>
    </g>
    <g>
     <circle stroke="black" stroke-width="0.5" fill="#aaffff" cx="677.0" cy="146.0" r="1.0"/>
     <text stroke="none" x="677.0" y="146.0" font-size="20.0" font-family="helvetica">Rubritalea spongiae YM21-1327 (AB297805)</text>
    </g>
    <g>
     <circle stroke="black" stroke-width="0.5" fill="#aaffff" cx="677.0" cy="542.0" r="1.0"/>
     <text stroke="none" x="677.0" y="542.0" font-size="20.0" font-family="helvetica">99</text>
    </g>
    <g>
     <circle stroke="black" stroke-width="0.5" fill="#aaffff" cx="678.0" cy="521.0" r="1.0"/>
     <text stroke="none" x="678.0" y="521.0" font-size="20.0" font-family="helvetica">Roseibacillus persicicus YM24-184 (AB331891)</text>
    </g>
    <g>
     <circle stroke="black" stroke-width="0.5" fill="#aaffff" cx="678.0" cy="564.0" r="1.0"/>
     <text stroke="none" x="678.0" y="564.0" font-size="20.0" font-family="helvetica"/>
    </g>
    <g>
     <circle stroke="black" stroke-width="0.5" fill="#aaffff" cx="683.0" cy="982.0" r="1.0"/>
     <text stroke="none" x="683.0" y="982.0" font-size="20.0" font-family="helvetica">Prosthecobacter debontii FC3T (ueoo14)</text>
    </g>
    <g>
     <circle stroke="black" stroke-width="0.5" fill="#aaffff" cx="689.0" cy="857.0" r="1.0"/>
     <text stroke="none" x="689.0" y="857.0" font-size="20.0" font-family="helvetica">Human colonic clone HuCa18 (AJ408970)</text>
    </g>
    <g>
     <circle stroke="black" stroke-width="0.5" fill="#aaffff" cx="690.0" cy="438.0" r="1.0"/>
     <text stroke="none" x="690.0" y="438.0" font-size="20.0" font-family="helvetica">Roseibacillus ponti YM27-1207 (AB331889)</text>
    </g>
    <g>
     <circle stroke="black" stroke-width="0.5" fill="#aaffff" cx="690.0" cy="940.0" r="1.0"/>
     <text stroke="none" x="690.0" y="940.0" font-size="20.0" font-family="helvetica">Prosthecobacter dejongeii FC1T (U60012)</text>
    </g>
    <g>
     <circle stroke="black" stroke-width="0.5" fill="#aaffff" cx="741.0" cy="1159.0" r="1.0"/>
     <text stroke="none" x="741.0" y="1159.0" font-size="20.0" font-family="helvetica">Subdivision 3</text>
    </g>
    <g>
     <circle stroke="black" stroke-width="0.5" fill="#aaffff" cx="741.0" cy="1155.0" r="1.0"/>
     <text stroke="none" x="741.0" y="1155.0" font-size="10.0" font-family="helvetica">NT1.67</text>
    </g>
    <g>
     <circle stroke="black" stroke-width="0.5" fill="#aaffff" cx="745.0" cy="1150.0" r="1.0"/>
     <text stroke="none" x="745.0" y="1150.0" font-size="20.0" font-family="helvetica">Subdivision 3</text>
    </g>
    <g>
     <circle stroke="black" stroke-width="0.5" fill="#aaffff" cx="745.0" cy="1153.0" r="1.0"/>
     <text stroke="none" x="745.0" y="1153.0" font-size="10.0" font-family="helvetica">NT1.69</text>
    </g>
    <g>
     <circle stroke="black" stroke-width="0.5" fill="#aaffff" cx="747.0" cy="1154.0" r="1.0"/>
     <text stroke="none" x="747.0" y="1154.0" font-size="20.0" font-family="helvetica">Subdivision 3</text>
    </g>
    <g>
     <circle stroke="black" stroke-width="0.5" fill="#aaffff" cx="850.0" cy="1198.0" r="1.0"/>
     <text stroke="none" x="850.0" y="1198.0" font-size="20.0" font-family="helvetica">Freshwater lake clone LD19 (AFOO9974) (subdivision 6)</text>
    </g>
    <g>
     <circle stroke="black" stroke-width="0.5" fill="#aaffff" cx="850.0" cy="1327.0" r="1.0"/>
     <text stroke="none" x="850.0" y="1327.0" font-size="20.0" font-family="helvetica">Escherichia coli ATCC 11775T (X80725)</text>
    </g>
    <line stroke="black" x1="637.0" y1="188.0" x2="532.0" y2="136.0" stroke-width="0.5"/>
    <line stroke="black" x1="654.0" y1="355.0" x2="549.0" y2="333.0" stroke-width="0.5"/>
    <line stroke="black" x1="672.0" y1="272.0" x2="671.0" y2="251.0" stroke-width="0.5"/>
    <line stroke="black" x1="672.0" y1="228.0" x2="671.0" y2="251.0" stroke-width="0.5"/>
    <line stroke="black" x1="673.0" y1="396.0" x2="644.0" y2="435.0" stroke-width="0.5"/>
    <line stroke="black" x1="678.0" y1="521.0" x2="677.0" y2="542.0" stroke-width="0.5"/>
    <line stroke="black" x1="678.0" y1="564.0" x2="677.0" y2="542.0" stroke-width="0.5"/>
    <line stroke="black" x1="597.0" y1="731.0" x2="523.0" y2="751.0" stroke-width="0.5"/>
    <line stroke="black" x1="611.0" y1="689.0" x2="504.0" y2="659.0" stroke-width="0.5"/>
    <line stroke="black" x1="600.0" y1="648.0" x2="599.0" y2="628.0" stroke-width="0.5"/>
    <line stroke="black" x1="600.0" y1="605.0" x2="599.0" y2="628.0" stroke-width="0.5"/>
    <line stroke="black" x1="674.0" y1="814.0" x2="673.0" y2="835.0" stroke-width="0.5"/>
    <line stroke="black" x1="689.0" y1="857.0" x2="673.0" y2="835.0" stroke-width="0.5"/>
    <line stroke="black" x1="690.0" y1="940.0" x2="659.0" y2="920.0" stroke-width="0.5"/>
    <line stroke="black" x1="613.0" y1="1122.0" x2="454.0" y2="1110.0" stroke-width="0.5"/>
    <line stroke="black" x1="615.0" y1="1096.0" x2="454.0" y2="1110.0" stroke-width="0.5"/>
    <line stroke="black" x1="620.0" y1="1109.0" x2="454.0" y2="1110.0" stroke-width="0.5"/>
    <line stroke="black" x1="741.0" y1="1159.0" x2="741.0" y2="1155.0" stroke-width="0.5"/>
    <line stroke="black" x1="745.0" y1="1150.0" x2="745.0" y2="1153.0" stroke-width="0.5"/>
    <line stroke="black" x1="747.0" y1="1154.0" x2="745.0" y2="1153.0" stroke-width="0.5"/>
    <line stroke="black" x1="662.0" y1="1256.0" x2="663.0" y2="1241.0" stroke-width="0.5"/>
    <line stroke="black" x1="665.0" y1="1227.0" x2="663.0" y2="1241.0" stroke-width="0.5"/>
    <line stroke="black" x1="673.0" y1="1242.0" x2="663.0" y2="1241.0" stroke-width="0.5"/>
    <line stroke="black" x1="650.0" y1="42.0" x2="581.0" y2="84.0" stroke-width="0.5"/>
    <line stroke="black" x1="581.0" y1="84.0" x2="532.0" y2="136.0" stroke-width="0.5"/>
    <line stroke="black" x1="581.0" y1="84.0" x2="617.0" y2="124.0" stroke-width="0.5"/>
    <line stroke="black" x1="532.0" y1="136.0" x2="434.0" y2="214.0" stroke-width="0.5"/>
    <line stroke="black" x1="434.0" y1="214.0" x2="409.0" y2="326.0" stroke-width="0.5"/>
    <line stroke="black" x1="434.0" y1="214.0" x2="470.0" y2="291.0" stroke-width="0.5"/>
    <line stroke="black" x1="470.0" y1="291.0" x2="549.0" y2="333.0" stroke-width="0.5"/>
    <line stroke="black" x1="470.0" y1="291.0" x2="671.0" y2="251.0" stroke-width="0.5"/>
    <line stroke="black" x1="409.0" y1="326.0" x2="352.0" y2="516.0" stroke-width="0.5"/>
    <line stroke="black" x1="409.0" y1="326.0" x2="644.0" y2="435.0" stroke-width="0.5"/>
    <line stroke="black" x1="352.0" y1="516.0" x2="299.0" y2="676.0" stroke-width="0.5"/>
    <line stroke="black" x1="352.0" y1="516.0" x2="460.0" y2="704.0" stroke-width="0.5"/>
    <line stroke="black" x1="644.0" y1="435.0" x2="653.0" y2="474.0" stroke-width="0.5"/>
    <line stroke="black" x1="653.0" y1="474.0" x2="674.0" y2="510.0" stroke-width="0.5"/>
    <line stroke="black" x1="674.0" y1="510.0" x2="677.0" y2="542.0" stroke-width="0.5"/>
    <line stroke="black" x1="674.0" y1="510.0" x2="676.0" y2="480.0" stroke-width="0.5"/>
    <line stroke="black" x1="299.0" y1="676.0" x2="257.0" y2="852.0" stroke-width="0.5"/>
    <line stroke="black" x1="299.0" y1="676.0" x2="673.0" y2="835.0" stroke-width="0.5"/>
    <line stroke="black" x1="460.0" y1="704.0" x2="523.0" y2="751.0" stroke-width="0.5"/>
    <line stroke="black" x1="460.0" y1="704.0" x2="504.0" y2="659.0" stroke-width="0.5"/>
    <line stroke="black" x1="504.0" y1="659.0" x2="599.0" y2="628.0" stroke-width="0.5"/>
    <line stroke="black" x1="257.0" y1="852.0" x2="201.0" y2="999.0" stroke-width="0.5"/>
    <line stroke="black" x1="257.0" y1="852.0" x2="462.0" y2="1026.0" stroke-width="0.5"/>
    <line stroke="black" x1="201.0" y1="999.0" x2="115.0" y2="1120.0" stroke-width="0.5"/>
    <line stroke="black" x1="201.0" y1="999.0" x2="280.0" y2="1143.0" stroke-width="0.5"/>
    <line stroke="black" x1="462.0" y1="1026.0" x2="562.0" y2="988.0" stroke-width="0.5"/>
    <line stroke="black" x1="115.0" y1="1120.0" x2="72.0" y2="1204.0" stroke-width="0.5"/>
    <line stroke="black" x1="115.0" y1="1120.0" x2="663.0" y2="1241.0" stroke-width="0.5"/>
    <line stroke="black" x1="280.0" y1="1143.0" x2="339.0" y2="1176.0" stroke-width="0.5"/>
    <line stroke="black" x1="280.0" y1="1143.0" x2="454.0" y2="1110.0" stroke-width="0.5"/>
    <line stroke="black" x1="339.0" y1="1176.0" x2="741.0" y2="1155.0" stroke-width="0.5"/>
    <line stroke="black" x1="562.0" y1="988.0" x2="638.0" y2="951.0" stroke-width="0.5"/>
    <line stroke="black" x1="638.0" y1="951.0" x2="659.0" y2="920.0" stroke-width="0.5"/>
    <line stroke="black" x1="741.0" y1="1155.0" x2="745.0" y2="1153.0" stroke-width="0.5"/>
    <line stroke="black" x1="850.0" y1="1327.0" x2="72.0" y2="1204.0" stroke-width="0.5"/>
    <line stroke="black" x1="622.0" y1="1285.0" x2="72.0" y2="1204.0" stroke-width="0.5"/>
    <line stroke="black" x1="850.0" y1="1198.0" x2="339.0" y2="1176.0" stroke-width="0.5"/>
    <line stroke="black" x1="616.0" y1="1066.0" x2="462.0" y2="1026.0" stroke-width="0.5"/>
    <line stroke="black" x1="649.0" y1="773.0" x2="523.0" y2="751.0" stroke-width="0.5"/>
    <line stroke="black" x1="616.0" y1="313.0" x2="549.0" y2="333.0" stroke-width="0.5"/>
    <line stroke="black" x1="660.0" y1="1024.0" x2="562.0" y2="988.0" stroke-width="0.5"/>
    <line stroke="black" x1="654.0" y1="104.0" x2="617.0" y2="124.0" stroke-width="0.5"/>
    <line stroke="black" x1="677.0" y1="146.0" x2="617.0" y2="124.0" stroke-width="0.5"/>
    <line stroke="black" x1="683.0" y1="982.0" x2="638.0" y2="951.0" stroke-width="0.5"/>
    <line stroke="black" x1="658.0" y1="20.0" x2="650.0" y2="42.0" stroke-width="0.5"/>
    <line stroke="black" x1="666.0" y1="62.0" x2="650.0" y2="42.0" stroke-width="0.5"/>
    <line stroke="black" x1="666.0" y1="898.0" x2="659.0" y2="920.0" stroke-width="0.5"/>
    <line stroke="black" x1="690.0" y1="438.0" x2="653.0" y2="474.0" stroke-width="0.5"/>
   </g>
  </g>
 </svg>
</svg>
