<?xml version="1.0" encoding="UTF-8"?>
<svg height="800.0" width="700.0" xmlns="http://www.w3.org/2000/svg">
 <svg>
  <g>
   <g>
    <g>
     <circle stroke="black" stroke-width="0.5" fill="#aaffff" cx="72.0" cy="1068.0" r="1.0"/>
     <text stroke="none" x="72.0" y="1068.0" font-size="10.0" font-family="helvetica">NT1.1</text>
    </g>
    <g>
     <circle stroke="black" stroke-width="0.5" fill="#aaffff" cx="75.0" cy="621.0" r="1.0"/>
     <text stroke="none" x="75.0" y="621.0" font-size="10.0" font-family="helvetica">NT1.2</text>
    </g>
    <g>
     <circle stroke="black" stroke-width="0.5" fill="#aaffff" cx="117.0" cy="189.0" r="1.0"/>
     <text stroke="none" x="117.0" y="189.0" font-size="10.0" font-family="helvetica">NT1.3</text>
    </g>
    <g>
     <circle stroke="black" stroke-width="0.5" fill="#aaffff" cx="120.0" cy="1138.0" r="1.0"/>
     <text stroke="none" x="120.0" y="1138.0" font-size="20.0" font-family="helvetica">681</text>
    </g>
    <g>
     <circle stroke="black" stroke-width="0.5" fill="#aaffff" cx="214.0" cy="471.0" r="1.0"/>
     <text stroke="none" x="214.0" y="471.0" font-size="10.0" font-family="helvetica">NT1.5</text>
    </g>
    <g>
     <circle stroke="black" stroke-width="0.5" fill="#aaffff" cx="279.0" cy="701.0" r="1.0"/>
     <text stroke="none" x="279.0" y="701.0" font-size="10.0" font-family="helvetica">NT1.6</text>
    </g>
    <g>
     <circle stroke="black" stroke-width="0.5" fill="#aaffff" cx="280.0" cy="1102.0" r="1.0"/>
     <text stroke="none" x="280.0" y="1102.0" font-size="10.0" font-family="helvetica">NT1.7</text>
    </g>
    <g>
     <circle stroke="black" stroke-width="0.5" fill="#aaffff" cx="376.0" cy="527.0" r="1.0"/>
     <text stroke="none" x="376.0" y="527.0" font-size="10.0" font-family="helvetica">NT1.8</text>
    </g>
    <g>
     <circle stroke="black" stroke-width="0.5" fill="#aaffff" cx="399.0" cy="715.0" r="1.0"/>
     <text stroke="none" x="399.0" y="715.0" font-size="10.0" font-family="helvetica">NT1.9</text>
    </g>
    <g>
     <circle stroke="black" stroke-width="0.5" fill="#aaffff" cx="460.0" cy="446.0" r="1.0"/>
     <text stroke="none" x="460.0" y="446.0" font-size="20.0" font-family="helvetica">90</text>
    </g>
    <g>
     <circle stroke="black" stroke-width="0.5" fill="#aaffff" cx="508.0" cy="776.0" r="1.0"/>
     <text stroke="none" x="508.0" y="776.0" font-size="10.0" font-family="helvetica">NT1.11</text>
    </g>
    <g>
     <circle stroke="black" stroke-width="0.5" fill="#aaffff" cx="514.0" cy="526.0" r="1.0"/>
     <text stroke="none" x="514.0" y="526.0" font-size="20.0" font-family="helvetica">53</text>
    </g>
    <g>
     <circle stroke="black" stroke-width="0.5" fill="#aaffff" cx="521.0" cy="891.0" r="1.0"/>
     <text stroke="none" x="521.0" y="891.0" font-size="10.0" font-family="helvetica">NT1.13</text>
    </g>
    <g>
     <circle stroke="black" stroke-width="0.5" fill="#aaffff" cx="529.0" cy="307.0" r="1.0"/>
     <text stroke="none" x="529.0" y="307.0" font-size="20.0" font-family="helvetica">93</text>
    </g>
    <g>
     <circle stroke="black" stroke-width="0.5" fill="#aaffff" cx="541.0" cy="290.0" r="1.0"/>
     <text stroke="none" x="541.0" y="290.0" font-size="20.0" font-family="helvetica"/>
    </g>
    <g>
     <circle stroke="black" stroke-width="0.5" fill="#aaffff" cx="542.0" cy="292.0" r="1.0"/>
     <text stroke="none" x="542.0" y="292.0" font-size="10.0" font-family="helvetica">NT1.16</text>
    </g>
    <g>
     <circle stroke="black" stroke-width="0.5" fill="#aaffff" cx="552.0" cy="370.0" r="1.0"/>
     <text stroke="none" x="552.0" y="370.0" font-size="10.0" font-family="helvetica">NT1.17</text>
    </g>
    <g>
     <circle stroke="black" stroke-width="0.5" fill="#aaffff" cx="553.0" cy="343.0" r="1.0"/>
     <text stroke="none" x="553.0" y="343.0" font-size="20.0" font-family="helvetica">Mesorhizobium amomhae ACCC 19665T (AFO41442)</text>
    </g>
    <g>
     <circle stroke="black" stroke-width="0.5" fill="#aaffff" cx="560.0" cy="449.0" r="1.0"/>
     <text stroke="none" x="560.0" y="449.0" font-size="20.0" font-family="helvetica">Mesorhizobium Ioti LMG 17826T (AJ315352)</text>
    </g>
    <g>
     <circle stroke="black" stroke-width="0.5" fill="#aaffff" cx="562.0" cy="96.0" r="1.0"/>
     <text stroke="none" x="562.0" y="96.0" font-size="10.0" font-family="helvetica">NT1.20</text>
    </g>
    <g>
     <circle stroke="black" stroke-width="0.5" fill="#aaffff" cx="566.0" cy="553.0" r="1.0"/>
     <text stroke="none" x="566.0" y="553.0" font-size="20.0" font-family="helvetica">Mesorhizobium mediterraneum UPM-Ca36T (L38B25)</text>
    </g>
    <g>
     <circle stroke="black" stroke-width="0.5" fill="#aaffff" cx="566.0" cy="1023.0" r="1.0"/>
     <text stroke="none" x="566.0" y="1023.0" font-size="20.0" font-family="helvetica">Xanthobacter agilis SA 357 (X94198)</text>
    </g>
    <g>
     <circle stroke="black" stroke-width="0.5" fill="#aaffff" cx="570.0" cy="736.0" r="1.0"/>
     <text stroke="none" x="570.0" y="736.0" font-size="10.0" font-family="helvetica">NT1.23</text>
    </g>
    <g>
     <circle stroke="black" stroke-width="0.5" fill="#aaffff" cx="575.0" cy="397.0" r="1.0"/>
     <text stroke="none" x="575.0" y="397.0" font-size="20.0" font-family="helvetica">Mesorhizobium septentrfonale SDW014T (AF508207)</text>
    </g>
    <g>
     <circle stroke="black" stroke-width="0.5" fill="#aaffff" cx="577.0" cy="239.0" r="1.0"/>
     <text stroke="none" x="577.0" y="239.0" font-size="20.0" font-family="helvetica">Mesorhizobium huakuii NBRC 15243T (D13431)</text>
    </g>
    <g>
     <circle stroke="black" stroke-width="0.5" fill="#aaffff" cx="598.0" cy="657.0" r="1.0"/>
     <text stroke="none" x="598.0" y="657.0" font-size="20.0" font-family="helvetica">Mycoplana dimorpha IAM 13154T (D12786)</text>
    </g>
    <g>
     <circle stroke="black" stroke-width="0.5" fill="#aaffff" cx="598.0" cy="292.0" r="1.0"/>
     <text stroke="none" x="598.0" y="292.0" font-size="20.0" font-family="helvetica">Mesorhizobium plurifarium LMG 118927 (Y 141 58)</text>
    </g>
    <g>
     <circle stroke="black" stroke-width="0.5" fill="#aaffff" cx="602.0" cy="971.0" r="1.0"/>
     <text stroke="none" x="602.0" y="971.0" font-size="20.0" font-family="helvetica">Rhodopseudomonasjulia DSM 11549T (AB087720)</text>
    </g>
    <g>
     <circle stroke="black" stroke-width="0.5" fill="#aaffff" cx="615.0" cy="83.0" r="1.0"/>
     <text stroke="none" x="615.0" y="83.0" font-size="20.0" font-family="helvetica">Rhodobium orientis MB312T (D30792)</text>
    </g>
    <g>
     <circle stroke="black" stroke-width="0.5" fill="#aaffff" cx="619.0" cy="135.0" r="1.0"/>
     <text stroke="none" x="619.0" y="135.0" font-size="20.0" font-family="helvetica">Rhodobium gokarnense JA173T (AM180706)</text>
    </g>
    <g>
     <circle stroke="black" stroke-width="0.5" fill="#aaffff" cx="634.0" cy="605.0" r="1.0"/>
     <text stroke="none" x="634.0" y="605.0" font-size="20.0" font-family="helvetica">Mesorhizobium tianshanense A-1BST (U71 O79)</text>
    </g>
    <g>
     <circle stroke="black" stroke-width="0.5" fill="#aaffff" cx="679.0" cy="501.0" r="1.0"/>
     <text stroke="none" x="679.0" y="501.0" font-size="20.0" font-family="helvetica">Mesorhizobium ciceri UPM-Ca7T (U07934)</text>
    </g>
    <g>
     <circle stroke="black" stroke-width="0.5" fill="#aaffff" cx="702.0" cy="1127.0" r="1.0"/>
     <text stroke="none" x="702.0" y="1127.0" font-size="20.0" font-family="helvetica">Blastochloris viridis DSM 133T (AF084495)</text>
    </g>
    <g>
     <circle stroke="black" stroke-width="0.5" fill="#aaffff" cx="745.0" cy="762.0" r="1.0"/>
     <text stroke="none" x="745.0" y="762.0" font-size="20.0" font-family="helvetica">Rhizobium giardinii H152T (U86344)</text>
    </g>
    <g>
     <circle stroke="black" stroke-width="0.5" fill="#aaffff" cx="756.0" cy="1180.0" r="1.0"/>
     <text stroke="none" x="756.0" y="1180.0" font-size="20.0" font-family="helvetica">Kaistia adipata Chj4O4T (AY039B17)</text>
    </g>
    <g>
     <circle stroke="black" stroke-width="0.5" fill="#aaffff" cx="782.0" cy="1075.0" r="1.0"/>
     <text stroke="none" x="782.0" y="1075.0" font-size="20.0" font-family="helvetica">Rhodoplanes elegans AS130T (D2531 1)</text>
    </g>
    <g>
     <circle stroke="black" stroke-width="0.5" fill="#aaffff" cx="809.0" cy="31.0" r="1.0"/>
     <text stroke="none" x="809.0" y="31.0" font-size="20.0" font-family="helvetica">Strain BA141T (AM712634)</text>
    </g>
    <g>
     <circle stroke="black" stroke-width="0.5" fill="#aaffff" cx="837.0" cy="919.0" r="1.0"/>
     <text stroke="none" x="837.0" y="919.0" font-size="20.0" font-family="helvetica">Hoeflea marina LMG 128T (AY598817)</text>
    </g>
    <g>
     <circle stroke="black" stroke-width="0.5" fill="#aaffff" cx="911.0" cy="814.0" r="1.0"/>
     <text stroke="none" x="911.0" y="814.0" font-size="20.0" font-family="helvetica">Rhizobium mongolense USDA 1844T (U89817)</text>
    </g>
    <g>
     <circle stroke="black" stroke-width="0.5" fill="#aaffff" cx="918.0" cy="710.0" r="1.0"/>
     <text stroke="none" x="918.0" y="710.0" font-size="20.0" font-family="helvetica">Blastobacter capsulatus IFAM 10047 (X73042)</text>
    </g>
    <g>
     <circle stroke="black" stroke-width="0.5" fill="#aaffff" cx="920.0" cy="187.0" r="1.0"/>
     <text stroke="none" x="920.0" y="187.0" font-size="20.0" font-family="helvetica">Fulvimarina pelagi HTCC2506T (AY178860)</text>
    </g>
    <g>
     <circle stroke="black" stroke-width="0.5" fill="#aaffff" cx="1001.0" cy="866.0" r="1.0"/>
     <text stroke="none" x="1001.0" y="866.0" font-size="20.0" font-family="helvetica">Ahrensia kielensis IAM 12618T (D88524)</text>
    </g>
    <line stroke="black" x1="615.0" y1="83.0" x2="562.0" y2="96.0" stroke-width="0.5"/>
    <line stroke="black" x1="809.0" y1="31.0" x2="117.0" y2="189.0" stroke-width="0.5"/>
    <line stroke="black" x1="602.0" y1="971.0" x2="75.0" y2="621.0" stroke-width="0.5"/>
    <line stroke="black" x1="566.0" y1="553.0" x2="514.0" y2="526.0" stroke-width="0.5"/>
    <line stroke="black" x1="542.0" y1="292.0" x2="541.0" y2="290.0" stroke-width="0.5"/>
    <line stroke="black" x1="837.0" y1="919.0" x2="521.0" y2="891.0" stroke-width="0.5"/>
    <line stroke="black" x1="560.0" y1="449.0" x2="529.0" y2="307.0" stroke-width="0.5"/>
    <line stroke="black" x1="553.0" y1="343.0" x2="552.0" y2="370.0" stroke-width="0.5"/>
    <line stroke="black" x1="575.0" y1="397.0" x2="552.0" y2="370.0" stroke-width="0.5"/>
    <line stroke="black" x1="598.0" y1="292.0" x2="542.0" y2="292.0" stroke-width="0.5"/>
    <line stroke="black" x1="577.0" y1="239.0" x2="529.0" y2="307.0" stroke-width="0.5"/>
    <line stroke="black" x1="745.0" y1="762.0" x2="570.0" y2="736.0" stroke-width="0.5"/>
    <line stroke="black" x1="566.0" y1="1023.0" x2="72.0" y2="1068.0" stroke-width="0.5"/>
    <line stroke="black" x1="911.0" y1="814.0" x2="508.0" y2="776.0" stroke-width="0.5"/>
    <line stroke="black" x1="756.0" y1="1180.0" x2="120.0" y2="1138.0" stroke-width="0.5"/>
    <line stroke="black" x1="117.0" y1="189.0" x2="562.0" y2="96.0" stroke-width="0.5"/>
    <line stroke="black" x1="117.0" y1="189.0" x2="75.0" y2="621.0" stroke-width="0.5"/>
    <line stroke="black" x1="117.0" y1="189.0" x2="214.0" y2="471.0" stroke-width="0.5"/>
    <line stroke="black" x1="214.0" y1="471.0" x2="279.0" y2="701.0" stroke-width="0.5"/>
    <line stroke="black" x1="75.0" y1="621.0" x2="72.0" y2="1068.0" stroke-width="0.5"/>
    <line stroke="black" x1="279.0" y1="701.0" x2="521.0" y2="891.0" stroke-width="0.5"/>
    <line stroke="black" x1="279.0" y1="701.0" x2="399.0" y2="715.0" stroke-width="0.5"/>
    <line stroke="black" x1="279.0" y1="701.0" x2="376.0" y2="527.0" stroke-width="0.5"/>
    <line stroke="black" x1="376.0" y1="527.0" x2="460.0" y2="446.0" stroke-width="0.5"/>
    <line stroke="black" x1="72.0" y1="1068.0" x2="120.0" y2="1138.0" stroke-width="0.5"/>
    <line stroke="black" x1="399.0" y1="715.0" x2="508.0" y2="776.0" stroke-width="0.5"/>
    <line stroke="black" x1="120.0" y1="1138.0" x2="280.0" y2="1102.0" stroke-width="0.5"/>
    <line stroke="black" x1="460.0" y1="446.0" x2="514.0" y2="526.0" stroke-width="0.5"/>
    <line stroke="black" x1="460.0" y1="446.0" x2="529.0" y2="307.0" stroke-width="0.5"/>
    <line stroke="black" x1="508.0" y1="776.0" x2="570.0" y2="736.0" stroke-width="0.5"/>
    <line stroke="black" x1="529.0" y1="307.0" x2="552.0" y2="370.0" stroke-width="0.5"/>
    <line stroke="black" x1="529.0" y1="307.0" x2="542.0" y2="292.0" stroke-width="0.5"/>
    <line stroke="black" x1="920.0" y1="187.0" x2="214.0" y2="471.0" stroke-width="0.5"/>
    <line stroke="black" x1="782.0" y1="1075.0" x2="280.0" y2="1102.0" stroke-width="0.5"/>
    <line stroke="black" x1="702.0" y1="1127.0" x2="280.0" y2="1102.0" stroke-width="0.5"/>
    <line stroke="black" x1="598.0" y1="657.0" x2="399.0" y2="715.0" stroke-width="0.5"/>
    <line stroke="black" x1="634.0" y1="605.0" x2="376.0" y2="527.0" stroke-width="0.5"/>
    <line stroke="black" x1="679.0" y1="501.0" x2="514.0" y2="526.0" stroke-width="0.5"/>
    <line stroke="black" x1="1001.0" y1="866.0" x2="521.0" y2="891.0" stroke-width="0.5"/>
    <line stroke="black" x1="619.0" y1="135.0" x2="562.0" y2="96.0" stroke-width="0.5"/>
    <line stroke="black" x1="918.0" y1="710.0" x2="570.0" y2="736.0" stroke-width="0.5"/>
   </g>
  </g>
 </svg>
</svg>
