<?xml version="1.0" encoding="UTF-8"?>
<svg height="800.0" width="700.0" xmlns="http://www.w3.org/2000/svg">
 <svg>
  <g>
   <g>
    <g>
     <circle stroke="black" stroke-width="0.5" fill="#aaffff" cx="6.0" cy="72.0" r="1.0"/>
     <text stroke="none" x="6.0" y="72.0" font-size="10.0" font-family="helvetica">NT1.1</text>
    </g>
    <g>
     <circle stroke="black" stroke-width="0.5" fill="#aaffff" cx="22.0" cy="229.0" r="1.0"/>
     <text stroke="none" x="22.0" y="229.0" font-size="10.0" font-family="helvetica">NT1.2</text>
    </g>
    <g>
     <circle stroke="black" stroke-width="0.5" fill="#aaffff" cx="30.0" cy="111.0" r="1.0"/>
     <text stroke="none" x="30.0" y="111.0" font-size="10.0" font-family="helvetica">NT1.3</text>
    </g>
    <g>
     <circle stroke="black" stroke-width="0.5" fill="#aaffff" cx="46.0" cy="287.0" r="1.0"/>
     <text stroke="none" x="46.0" y="287.0" font-size="10.0" font-family="helvetica">NT1.4</text>
    </g>
    <g>
     <circle stroke="black" stroke-width="0.5" fill="#aaffff" cx="78.0" cy="343.0" r="1.0"/>
     <text stroke="none" x="78.0" y="343.0" font-size="20.0" font-family="helvetica">71</text>
    </g>
    <g>
     <circle stroke="black" stroke-width="0.5" fill="#aaffff" cx="116.0" cy="396.0" r="1.0"/>
     <text stroke="none" x="116.0" y="396.0" font-size="10.0" font-family="helvetica">NT1.6</text>
    </g>
    <g>
     <circle stroke="black" stroke-width="0.5" fill="#aaffff" cx="153.0" cy="32.0" r="1.0"/>
     <text stroke="none" x="153.0" y="32.0" font-size="20.0" font-family="helvetica">99</text>
    </g>
    <g>
     <circle stroke="black" stroke-width="0.5" fill="#aaffff" cx="155.0" cy="232.0" r="1.0"/>
     <text stroke="none" x="155.0" y="232.0" font-size="20.0" font-family="helvetica">99</text>
    </g>
    <g>
     <circle stroke="black" stroke-width="0.5" fill="#aaffff" cx="188.0" cy="441.0" r="1.0"/>
     <text stroke="none" x="188.0" y="441.0" font-size="20.0" font-family="helvetica">99</text>
    </g>
    <g>
     <circle stroke="black" stroke-width="0.5" fill="#aaffff" cx="230.0" cy="352.0" r="1.0"/>
     <text stroke="none" x="230.0" y="352.0" font-size="10.0" font-family="helvetica">NT1.10</text>
    </g>
    <g>
     <circle stroke="black" stroke-width="0.5" fill="#aaffff" cx="265.0" cy="132.0" r="1.0"/>
     <text stroke="none" x="265.0" y="132.0" font-size="20.0" font-family="helvetica">P. micans E7.56T (AF481228)</text>
    </g>
    <g>
     <circle stroke="black" stroke-width="0.5" fill="#aaffff" cx="280.0" cy="12.0" r="1.0"/>
     <text stroke="none" x="280.0" y="12.0" font-size="20.0" font-family="helvetica">P buccalis ATCC 3531OT (L16476)</text>
    </g>
    <g>
     <circle stroke="black" stroke-width="0.5" fill="#aaffff" cx="285.0" cy="372.0" r="1.0"/>
     <text stroke="none" x="285.0" y="372.0" font-size="20.0" font-family="helvetica"> P. shahiI'EHS11T(AB108825)</text>
    </g>
    <g>
     <circle stroke="black" stroke-width="0.5" fill="#aaffff" cx="287.0" cy="52.0" r="1.0"/>
     <text stroke="none" x="287.0" y="52.0" font-size="20.0" font-family="helvetica">P. timonensis 44O1737T (DQ518919)</text>
    </g>
    <g>
     <circle stroke="black" stroke-width="0.5" fill="#aaffff" cx="301.0" cy="171.0" r="1.0"/>
     <text stroke="none" x="301.0" y="171.0" font-size="20.0" font-family="helvetica">P. stercorea CB35T (AB244774)</text>
    </g>
    <g>
     <circle stroke="black" stroke-width="0.5" fill="#aaffff" cx="304.0" cy="211.0" r="1.0"/>
     <text stroke="none" x="304.0" y="211.0" font-size="20.0" font-family="helvetica">P. enoeca ATCC 51261T(AJ0O5635)</text>
    </g>
    <g>
     <circle stroke="black" stroke-width="0.5" fill="#aaffff" cx="306.0" cy="331.0" r="1.0"/>
     <text stroke="none" x="306.0" y="331.0" font-size="20.0" font-family="helvetica"/>
    </g>
    <g>
     <circle stroke="black" stroke-width="0.5" fill="#aaffff" cx="312.0" cy="91.0" r="1.0"/>
     <text stroke="none" x="312.0" y="91.0" font-size="20.0" font-family="helvetica">P. nanceiensis AIP 261.037 (AY957555)</text>
    </g>
    <g>
     <circle stroke="black" stroke-width="0.5" fill="#aaffff" cx="314.0" cy="470.0" r="1.0"/>
     <text stroke="none" x="314.0" y="470.0" font-size="10.0" font-family="helvetica">NT1.19</text>
    </g>
    <g>
     <circle stroke="black" stroke-width="0.5" fill="#aaffff" cx="319.0" cy="451.0" r="1.0"/>
     <text stroke="none" x="319.0" y="451.0" font-size="20.0" font-family="helvetica"/>
    </g>
    <g>
     <circle stroke="black" stroke-width="0.5" fill="#aaffff" cx="320.0" cy="492.0" r="1.0"/>
     <text stroke="none" x="320.0" y="492.0" font-size="20.0" font-family="helvetica">P. saccharolytica D033B-12-2T (FJ825149)</text>
    </g>
    <g>
     <circle stroke="black" stroke-width="0.5" fill="#aaffff" cx="326.0" cy="291.0" r="1.0"/>
     <text stroke="none" x="326.0" y="291.0" font-size="20.0" font-family="helvetica">P. oralis ATCC 33269T (AY323522)</text>
    </g>
    <g>
     <circle stroke="black" stroke-width="0.5" fill="#aaffff" cx="333.0" cy="411.0" r="1.0"/>
     <text stroke="none" x="333.0" y="411.0" font-size="20.0" font-family="helvetica">P. marshiiE9.34T(AF481227)</text>
    </g>
    <g>
     <circle stroke="black" stroke-width="0.5" fill="#aaffff" cx="335.0" cy="251.0" r="1.0"/>
     <text stroke="none" x="335.0" y="251.0" font-size="20.0" font-family="helvetica">P. pleuritidis JCM 14110T(AB278593)</text>
    </g>
    <line stroke="black" x1="280.0" y1="12.0" x2="153.0" y2="32.0" stroke-width="0.5"/>
    <line stroke="black" x1="287.0" y1="52.0" x2="153.0" y2="32.0" stroke-width="0.5"/>
    <line stroke="black" x1="265.0" y1="132.0" x2="30.0" y2="111.0" stroke-width="0.5"/>
    <line stroke="black" x1="312.0" y1="91.0" x2="30.0" y2="111.0" stroke-width="0.5"/>
    <line stroke="black" x1="301.0" y1="171.0" x2="22.0" y2="229.0" stroke-width="0.5"/>
    <line stroke="black" x1="304.0" y1="211.0" x2="155.0" y2="232.0" stroke-width="0.5"/>
    <line stroke="black" x1="335.0" y1="251.0" x2="155.0" y2="232.0" stroke-width="0.5"/>
    <line stroke="black" x1="326.0" y1="291.0" x2="78.0" y2="343.0" stroke-width="0.5"/>
    <line stroke="black" x1="285.0" y1="372.0" x2="230.0" y2="352.0" stroke-width="0.5"/>
    <line stroke="black" x1="306.0" y1="331.0" x2="230.0" y2="352.0" stroke-width="0.5"/>
    <line stroke="black" x1="333.0" y1="411.0" x2="188.0" y2="441.0" stroke-width="0.5"/>
    <line stroke="black" x1="319.0" y1="451.0" x2="314.0" y2="470.0" stroke-width="0.5"/>
    <line stroke="black" x1="320.0" y1="492.0" x2="314.0" y2="470.0" stroke-width="0.5"/>
    <line stroke="black" x1="153.0" y1="32.0" x2="6.0" y2="72.0" stroke-width="0.5"/>
    <line stroke="black" x1="6.0" y1="72.0" x2="30.0" y2="111.0" stroke-width="0.5"/>
    <line stroke="black" x1="22.0" y1="229.0" x2="46.0" y2="287.0" stroke-width="0.5"/>
    <line stroke="black" x1="46.0" y1="287.0" x2="78.0" y2="343.0" stroke-width="0.5"/>
    <line stroke="black" x1="46.0" y1="287.0" x2="155.0" y2="232.0" stroke-width="0.5"/>
    <line stroke="black" x1="78.0" y1="343.0" x2="116.0" y2="396.0" stroke-width="0.5"/>
    <line stroke="black" x1="116.0" y1="396.0" x2="188.0" y2="441.0" stroke-width="0.5"/>
    <line stroke="black" x1="116.0" y1="396.0" x2="230.0" y2="352.0" stroke-width="0.5"/>
    <line stroke="black" x1="188.0" y1="441.0" x2="314.0" y2="470.0" stroke-width="0.5"/>
    <line stroke="black" x1="22.0" y1="229.0" x2="6.0" y2="72.0" stroke-width="0.5"/>
   </g>
  </g>
 </svg>
</svg>
