<?xml version="1.0" encoding="UTF-8"?>
<svg height="800.0" width="700.0" xmlns="http://www.w3.org/2000/svg">
 <svg>
  <g>
   <g>
    <g>
     <circle stroke="black" stroke-width="0.5" fill="#aaffff" cx="477.0" cy="537.0" r="1.0"/>
     <text stroke="none" x="477.0" y="537.0" font-size="20.0" font-family="helvetica"/>
    </g>
    <g>
     <circle stroke="black" stroke-width="0.5" fill="#aaffff" cx="609.0" cy="92.0" r="1.0"/>
     <text stroke="none" x="609.0" y="92.0" font-size="20.0" font-family="helvetica"/>
    </g>
    <g>
     <circle stroke="black" stroke-width="0.5" fill="#aaffff" cx="615.0" cy="92.0" r="1.0"/>
     <text stroke="none" x="615.0" y="92.0" font-size="10.0" font-family="helvetica">NT1.3</text>
    </g>
    <g>
     <circle stroke="black" stroke-width="0.5" fill="#aaffff" cx="624.0" cy="85.0" r="1.0"/>
     <text stroke="none" x="624.0" y="85.0" font-size="20.0" font-family="helvetica"/>
    </g>
    <g>
     <circle stroke="black" stroke-width="0.5" fill="#aaffff" cx="624.0" cy="87.0" r="1.0"/>
     <text stroke="none" x="624.0" y="87.0" font-size="10.0" font-family="helvetica">NT1.5</text>
    </g>
    <g>
     <circle stroke="black" stroke-width="0.5" fill="#aaffff" cx="626.0" cy="587.0" r="1.0"/>
     <text stroke="none" x="626.0" y="587.0" font-size="20.0" font-family="helvetica"/>
    </g>
    <g>
     <circle stroke="black" stroke-width="0.5" fill="#aaffff" cx="628.0" cy="587.0" r="1.0"/>
     <text stroke="none" x="628.0" y="587.0" font-size="10.0" font-family="helvetica">NT1.7</text>
    </g>
    <g>
     <circle stroke="black" stroke-width="0.5" fill="#aaffff" cx="632.0" cy="703.0" r="1.0"/>
     <text stroke="none" x="632.0" y="703.0" font-size="20.0" font-family="helvetica"/>
    </g>
    <g>
     <circle stroke="black" stroke-width="0.5" fill="#aaffff" cx="632.0" cy="684.0" r="1.0"/>
     <text stroke="none" x="632.0" y="684.0" font-size="10.0" font-family="helvetica">NT1.9</text>
    </g>
    <g>
     <circle stroke="black" stroke-width="0.5" fill="#aaffff" cx="635.0" cy="95.0" r="1.0"/>
     <text stroke="none" x="635.0" y="95.0" font-size="10.0" font-family="helvetica">NT1.10</text>
    </g>
    <g>
     <circle stroke="black" stroke-width="0.5" fill="#aaffff" cx="665.0" cy="531.0" r="1.0"/>
     <text stroke="none" x="665.0" y="531.0" font-size="10.0" font-family="helvetica">NT1.11</text>
    </g>
    <g>
     <circle stroke="black" stroke-width="0.5" fill="#aaffff" cx="697.0" cy="449.0" r="1.0"/>
     <text stroke="none" x="697.0" y="449.0" font-size="10.0" font-family="helvetica">NT1.12</text>
    </g>
    <g>
     <circle stroke="black" stroke-width="0.5" fill="#aaffff" cx="712.0" cy="58.0" r="1.0"/>
     <text stroke="none" x="712.0" y="58.0" font-size="20.0" font-family="helvetica"/>
    </g>
    <g>
     <circle stroke="black" stroke-width="0.5" fill="#aaffff" cx="743.0" cy="138.0" r="1.0"/>
     <text stroke="none" x="743.0" y="138.0" font-size="10.0" font-family="helvetica">NT1.14</text>
    </g>
    <g>
     <circle stroke="black" stroke-width="0.5" fill="#aaffff" cx="758.0" cy="394.0" r="1.0"/>
     <text stroke="none" x="758.0" y="394.0" font-size="10.0" font-family="helvetica">NT1.15</text>
    </g>
    <g>
     <circle stroke="black" stroke-width="0.5" fill="#aaffff" cx="773.0" cy="163.0" r="1.0"/>
     <text stroke="none" x="773.0" y="163.0" font-size="10.0" font-family="helvetica">NT1.16</text>
    </g>
    <g>
     <circle stroke="black" stroke-width="0.5" fill="#aaffff" cx="792.0" cy="262.0" r="1.0"/>
     <text stroke="none" x="792.0" y="262.0" font-size="10.0" font-family="helvetica">NT1.17</text>
    </g>
    <g>
     <circle stroke="black" stroke-width="0.5" fill="#aaffff" cx="799.0" cy="491.0" r="1.0"/>
     <text stroke="none" x="799.0" y="491.0" font-size="20.0" font-family="helvetica"/>
    </g>
    <g>
     <circle stroke="black" stroke-width="0.5" fill="#aaffff" cx="806.0" cy="83.0" r="1.0"/>
     <text stroke="none" x="806.0" y="83.0" font-size="20.0" font-family="helvetica"/>
    </g>
    <g>
     <circle stroke="black" stroke-width="0.5" fill="#aaffff" cx="828.0" cy="203.0" r="1.0"/>
     <text stroke="none" x="828.0" y="203.0" font-size="10.0" font-family="helvetica">NT1.20</text>
    </g>
    <g>
     <circle stroke="black" stroke-width="0.5" fill="#aaffff" cx="859.0" cy="336.0" r="1.0"/>
     <text stroke="none" x="859.0" y="336.0" font-size="10.0" font-family="helvetica">NT1.21</text>
    </g>
    <g>
     <circle stroke="black" stroke-width="0.5" fill="#aaffff" cx="912.0" cy="148.0" r="1.0"/>
     <text stroke="none" x="912.0" y="148.0" font-size="10.0" font-family="helvetica">NT1.22</text>
    </g>
    <g>
     <circle stroke="black" stroke-width="0.5" fill="#aaffff" cx="916.0" cy="142.0" r="1.0"/>
     <text stroke="none" x="916.0" y="142.0" font-size="20.0" font-family="helvetica"/>
    </g>
    <g>
     <circle stroke="black" stroke-width="0.5" fill="#aaffff" cx="1022.0" cy="369.0" r="1.0"/>
     <text stroke="none" x="1022.0" y="369.0" font-size="10.0" font-family="helvetica">NT1.24</text>
    </g>
    <g>
     <circle stroke="black" stroke-width="0.5" fill="#aaffff" cx="1056.0" cy="373.0" r="1.0"/>
     <text stroke="none" x="1056.0" y="373.0" font-size="20.0" font-family="helvetica"/>
    </g>
    <line stroke="black" x1="624.0" y1="87.0" x2="624.0" y2="85.0" stroke-width="0.5"/>
    <line stroke="black" x1="609.0" y1="92.0" x2="615.0" y2="92.0" stroke-width="0.5"/>
    <line stroke="black" x1="1056.0" y1="373.0" x2="1022.0" y2="369.0" stroke-width="0.5"/>
    <line stroke="black" x1="628.0" y1="587.0" x2="626.0" y2="587.0" stroke-width="0.5"/>
    <line stroke="black" x1="632.0" y1="703.0" x2="632.0" y2="684.0" stroke-width="0.5"/>
    <line stroke="black" x1="712.0" y1="58.0" x2="743.0" y2="138.0" stroke-width="0.5"/>
    <line stroke="black" x1="743.0" y1="138.0" x2="773.0" y2="163.0" stroke-width="0.5"/>
    <line stroke="black" x1="743.0" y1="138.0" x2="635.0" y2="95.0" stroke-width="0.5"/>
    <line stroke="black" x1="773.0" y1="163.0" x2="806.0" y2="83.0" stroke-width="0.5"/>
    <line stroke="black" x1="773.0" y1="163.0" x2="792.0" y2="262.0" stroke-width="0.5"/>
    <line stroke="black" x1="792.0" y1="262.0" x2="828.0" y2="203.0" stroke-width="0.5"/>
    <line stroke="black" x1="792.0" y1="262.0" x2="758.0" y2="394.0" stroke-width="0.5"/>
    <line stroke="black" x1="792.0" y1="262.0" x2="859.0" y2="336.0" stroke-width="0.5"/>
    <line stroke="black" x1="635.0" y1="95.0" x2="615.0" y2="92.0" stroke-width="0.5"/>
    <line stroke="black" x1="635.0" y1="95.0" x2="624.0" y2="87.0" stroke-width="0.5"/>
    <line stroke="black" x1="828.0" y1="203.0" x2="912.0" y2="148.0" stroke-width="0.5"/>
    <line stroke="black" x1="624.0" y1="87.0" x2="615.0" y2="92.0" stroke-width="0.5"/>
    <line stroke="black" x1="912.0" y1="148.0" x2="916.0" y2="142.0" stroke-width="0.5"/>
    <line stroke="black" x1="859.0" y1="336.0" x2="1022.0" y2="369.0" stroke-width="0.5"/>
    <line stroke="black" x1="758.0" y1="394.0" x2="697.0" y2="449.0" stroke-width="0.5"/>
    <line stroke="black" x1="758.0" y1="394.0" x2="799.0" y2="491.0" stroke-width="0.5"/>
    <line stroke="black" x1="697.0" y1="449.0" x2="477.0" y2="537.0" stroke-width="0.5"/>
    <line stroke="black" x1="697.0" y1="449.0" x2="665.0" y2="531.0" stroke-width="0.5"/>
    <line stroke="black" x1="665.0" y1="531.0" x2="628.0" y2="587.0" stroke-width="0.5"/>
    <line stroke="black" x1="632.0" y1="684.0" x2="628.0" y2="587.0" stroke-width="0.5"/>
    <line stroke="black" x1="665.0" y1="531.0" x2="632.0" y2="684.0" stroke-width="0.5"/>
    <line stroke="black" x1="828.0" y1="203.0" x2="912.0" y2="148.0" stroke-width="0.5"/>
    <line stroke="black" x1="1022.0" y1="369.0" x2="859.0" y2="336.0" stroke-width="0.5"/>
   </g>
  </g>
 </svg>
</svg>
