<?xml version="1.0" encoding="UTF-8"?>
<svg height="800.0" width="700.0" xmlns="http://www.w3.org/2000/svg">
 <svg>
  <g>
   <g>
    <g>
     <circle stroke="black" stroke-width="0.5" fill="#aaffff" cx="64.0" cy="846.0" r="1.0"/>
     <text stroke="none" x="64.0" y="846.0" font-size="10.0" font-family="helvetica">NT1.1</text>
    </g>
    <g>
     <circle stroke="black" stroke-width="0.5" fill="#aaffff" cx="66.0" cy="1009.0" r="1.0"/>
     <text stroke="none" x="66.0" y="1009.0" font-size="10.0" font-family="helvetica">NT1.2</text>
    </g>
    <g>
     <circle stroke="black" stroke-width="0.5" fill="#aaffff" cx="140.0" cy="1062.0" r="1.0"/>
     <text stroke="none" x="140.0" y="1062.0" font-size="10.0" font-family="helvetica">NT1.3</text>
    </g>
    <g>
     <circle stroke="black" stroke-width="0.5" fill="#aaffff" cx="197.0" cy="1045.0" r="1.0"/>
     <text stroke="none" x="197.0" y="1045.0" font-size="20.0" font-family="helvetica">M. asiaticum ATCC 25276T (AF480595)</text>
    </g>
    <g>
     <circle stroke="black" stroke-width="0.5" fill="#aaffff" cx="198.0" cy="528.0" r="1.0"/>
     <text stroke="none" x="198.0" y="528.0" font-size="10.0" font-family="helvetica">NT1.5</text>
    </g>
    <g>
     <circle stroke="black" stroke-width="0.5" fill="#aaffff" cx="230.0" cy="1119.0" r="1.0"/>
     <text stroke="none" x="230.0" y="1119.0" font-size="20.0" font-family="helvetica">M. tuberculosis ATCC 27294T (FJ468345)</text>
    </g>
    <g>
     <circle stroke="black" stroke-width="0.5" fill="#aaffff" cx="233.0" cy="450.0" r="1.0"/>
     <text stroke="none" x="233.0" y="450.0" font-size="10.0" font-family="helvetica">NT1.7</text>
    </g>
    <g>
     <circle stroke="black" stroke-width="0.5" fill="#aaffff" cx="253.0" cy="1009.0" r="1.0"/>
     <text stroke="none" x="253.0" y="1009.0" font-size="20.0" font-family="helvetica">M. conspicuum 3895l92T (X88922)</text>
    </g>
    <g>
     <circle stroke="black" stroke-width="0.5" fill="#aaffff" cx="293.0" cy="350.0" r="1.0"/>
     <text stroke="none" x="293.0" y="350.0" font-size="10.0" font-family="helvetica">NT1.9</text>
    </g>
    <g>
     <circle stroke="black" stroke-width="0.5" fill="#aaffff" cx="293.0" cy="548.0" r="1.0"/>
     <text stroke="none" x="293.0" y="548.0" font-size="10.0" font-family="helvetica">NT1.10</text>
    </g>
    <g>
     <circle stroke="black" stroke-width="0.5" fill="#aaffff" cx="326.0" cy="1082.0" r="1.0"/>
     <text stroke="none" x="326.0" y="1082.0" font-size="20.0" font-family="helvetica">M. gordonae ATCC 1447OT (X52923)</text>
    </g>
    <g>
     <circle stroke="black" stroke-width="0.5" fill="#aaffff" cx="357.0" cy="437.0" r="1.0"/>
     <text stroke="none" x="357.0" y="437.0" font-size="10.0" font-family="helvetica">NT1.12</text>
    </g>
    <g>
     <circle stroke="black" stroke-width="0.5" fill="#aaffff" cx="368.0" cy="262.0" r="1.0"/>
     <text stroke="none" x="368.0" y="262.0" font-size="10.0" font-family="helvetica">NT1.13</text>
    </g>
    <g>
     <circle stroke="black" stroke-width="0.5" fill="#aaffff" cx="376.0" cy="194.0" r="1.0"/>
     <text stroke="none" x="376.0" y="194.0" font-size="10.0" font-family="helvetica">NT1.14</text>
    </g>
    <g>
     <circle stroke="black" stroke-width="0.5" fill="#aaffff" cx="383.0" cy="474.0" r="1.0"/>
     <text stroke="none" x="383.0" y="474.0" font-size="10.0" font-family="helvetica">NT1.15</text>
    </g>
    <g>
     <circle stroke="black" stroke-width="0.5" fill="#aaffff" cx="386.0" cy="530.0" r="1.0"/>
     <text stroke="none" x="386.0" y="530.0" font-size="20.0" font-family="helvetica">M. interjectum 4185l92T (X70961)</text>
    </g>
    <g>
     <circle stroke="black" stroke-width="0.5" fill="#aaffff" cx="397.0" cy="131.0" r="1.0"/>
     <text stroke="none" x="397.0" y="131.0" font-size="10.0" font-family="helvetica">NT1.17</text>
    </g>
    <g>
     <circle stroke="black" stroke-width="0.5" fill="#aaffff" cx="403.0" cy="327.0" r="1.0"/>
     <text stroke="none" x="403.0" y="327.0" font-size="10.0" font-family="helvetica">NT1.18</text>
    </g>
    <g>
     <circle stroke="black" stroke-width="0.5" fill="#aaffff" cx="405.0" cy="253.0" r="1.0"/>
     <text stroke="none" x="405.0" y="253.0" font-size="10.0" font-family="helvetica">NT1.19</text>
    </g>
    <g>
     <circle stroke="black" stroke-width="0.5" fill="#aaffff" cx="426.0" cy="567.0" r="1.0"/>
     <text stroke="none" x="426.0" y="567.0" font-size="20.0" font-family="helvetica">M. saskatchewanense NRCM 00-250T (AY208856)</text>
    </g>
    <g>
     <circle stroke="black" stroke-width="0.5" fill="#aaffff" cx="429.0" cy="403.0" r="1.0"/>
     <text stroke="none" x="429.0" y="403.0" font-size="10.0" font-family="helvetica">NT1.21</text>
    </g>
    <g>
     <circle stroke="black" stroke-width="0.5" fill="#aaffff" cx="431.0" cy="144.0" r="1.0"/>
     <text stroke="none" x="431.0" y="144.0" font-size="10.0" font-family="helvetica">NT1.22</text>
    </g>
    <g>
     <circle stroke="black" stroke-width="0.5" fill="#aaffff" cx="432.0" cy="273.0" r="1.0"/>
     <text stroke="none" x="432.0" y="273.0" font-size="20.0" font-family="helvetica">M. simiae ATCC 252 757 (GO1 53280)</text>
    </g>
    <g>
     <circle stroke="black" stroke-width="0.5" fill="#aaffff" cx="434.0" cy="62.0" r="1.0"/>
     <text stroke="none" x="434.0" y="62.0" font-size="10.0" font-family="helvetica">NT1.24</text>
    </g>
    <g>
     <circle stroke="black" stroke-width="0.5" fill="#aaffff" cx="443.0" cy="604.0" r="1.0"/>
     <text stroke="none" x="443.0" y="604.0" font-size="20.0" font-family="helvetica">M. intermedium 1669l91T (X67847)</text>
    </g>
    <g>
     <circle stroke="black" stroke-width="0.5" fill="#aaffff" cx="454.0" cy="493.0" r="1.0"/>
     <text stroke="none" x="454.0" y="493.0" font-size="20.0" font-family="helvetica">M. palustre E846T (NR_028940)</text>
    </g>
    <g>
     <circle stroke="black" stroke-width="0.5" fill="#aaffff" cx="459.0" cy="34.0" r="1.0"/>
     <text stroke="none" x="459.0" y="34.0" font-size="10.0" font-family="helvetica">NT1.27</text>
    </g>
    <g>
     <circle stroke="black" stroke-width="0.5" fill="#aaffff" cx="460.0" cy="383.0" r="1.0"/>
     <text stroke="none" x="460.0" y="383.0" font-size="20.0" font-family="helvetica">M. europaeum Fl-952287 (HM022196)</text>
    </g>
    <g>
     <circle stroke="black" stroke-width="0.5" fill="#aaffff" cx="466.0" cy="199.0" r="1.0"/>
     <text stroke="none" x="466.0" y="199.0" font-size="20.0" font-family="helvetica">M. sherrisii ATCC BAA-8327 (AY353699)</text>
    </g>
    <g>
     <circle stroke="black" stroke-width="0.5" fill="#aaffff" cx="469.0" cy="456.0" r="1.0"/>
     <text stroke="none" x="469.0" y="456.0" font-size="20.0" font-family="helvetica">M. kubicae CIP 106428T (HM022200)</text>
    </g>
    <g>
     <circle stroke="black" stroke-width="0.5" fill="#aaffff" cx="481.0" cy="236.0" r="1.0"/>
     <text stroke="none" x="481.0" y="236.0" font-size="20.0" font-family="helvetica">M. Ientiflavum ATCC 51985T (AF480583)</text>
    </g>
    <g>
     <circle stroke="black" stroke-width="0.5" fill="#aaffff" cx="482.0" cy="126.0" r="1.0"/>
     <text stroke="none" x="482.0" y="126.0" font-size="20.0" font-family="helvetica">M. florentinum Fl-93171T(AJ616230)</text>
    </g>
    <g>
     <circle stroke="black" stroke-width="0.5" fill="#aaffff" cx="486.0" cy="52.0" r="1.0"/>
     <text stroke="none" x="486.0" y="52.0" font-size="20.0" font-family="helvetica">M. triplex ATCC 7000717 (GO153279)</text>
    </g>
    <g>
     <circle stroke="black" stroke-width="0.5" fill="#aaffff" cx="490.0" cy="309.0" r="1.0"/>
     <text stroke="none" x="490.0" y="309.0" font-size="20.0" font-family="helvetica">M. heidelbergense 2554l91T (X70960)</text>
    </g>
    <g>
     <circle stroke="black" stroke-width="0.5" fill="#aaffff" cx="490.0" cy="346.0" r="1.0"/>
     <text stroke="none" x="490.0" y="346.0" font-size="20.0" font-family="helvetica">M. parmense CIP 1073857 (HM022201)</text>
    </g>
    <g>
     <circle stroke="black" stroke-width="0.5" fill="#aaffff" cx="502.0" cy="420.0" r="1.0"/>
     <text stroke="none" x="502.0" y="420.0" font-size="20.0" font-family="helvetica">M. parascrofulaceum ATCC BAA-6147 (GQ153273)</text>
    </g>
    <g>
     <circle stroke="black" stroke-width="0.5" fill="#aaffff" cx="515.0" cy="162.0" r="1.0"/>
     <text stroke="none" x="515.0" y="162.0" font-size="20.0" font-family="helvetica">M. stomatepiae DSM 45O59T (HM022202)</text>
    </g>
    <g>
     <circle stroke="black" stroke-width="0.5" fill="#aaffff" cx="547.0" cy="89.0" r="1.0"/>
     <text stroke="none" x="547.0" y="89.0" font-size="20.0" font-family="helvetica">M. rnontefiorense ATCC BAA-256T (NR_O28808)</text>
    </g>
    <g>
     <circle stroke="black" stroke-width="0.5" fill="#aaffff" cx="555.0" cy="15.0" r="1.0"/>
     <text stroke="none" x="555.0" y="15.0" font-size="20.0" font-family="helvetica">M. genavense 2289T (NR_029223)</text>
    </g>
    <line stroke="black" x1="486.0" y1="52.0" x2="459.0" y2="34.0" stroke-width="0.5"/>
    <line stroke="black" x1="466.0" y1="199.0" x2="431.0" y2="144.0" stroke-width="0.5"/>
    <line stroke="black" x1="432.0" y1="273.0" x2="405.0" y2="253.0" stroke-width="0.5"/>
    <line stroke="black" x1="490.0" y1="346.0" x2="403.0" y2="327.0" stroke-width="0.5"/>
    <line stroke="black" x1="469.0" y1="456.0" x2="383.0" y2="474.0" stroke-width="0.5"/>
    <line stroke="black" x1="386.0" y1="530.0" x2="293.0" y2="548.0" stroke-width="0.5"/>
    <line stroke="black" x1="253.0" y1="1009.0" x2="66.0" y2="1009.0" stroke-width="0.5"/>
    <line stroke="black" x1="197.0" y1="1045.0" x2="140.0" y2="1062.0" stroke-width="0.5"/>
    <line stroke="black" x1="326.0" y1="1082.0" x2="140.0" y2="1062.0" stroke-width="0.5"/>
    <line stroke="black" x1="459.0" y1="34.0" x2="434.0" y2="62.0" stroke-width="0.5"/>
    <line stroke="black" x1="434.0" y1="62.0" x2="397.0" y2="131.0" stroke-width="0.5"/>
    <line stroke="black" x1="397.0" y1="131.0" x2="376.0" y2="194.0" stroke-width="0.5"/>
    <line stroke="black" x1="397.0" y1="131.0" x2="431.0" y2="144.0" stroke-width="0.5"/>
    <line stroke="black" x1="376.0" y1="194.0" x2="368.0" y2="262.0" stroke-width="0.5"/>
    <line stroke="black" x1="376.0" y1="194.0" x2="405.0" y2="253.0" stroke-width="0.5"/>
    <line stroke="black" x1="368.0" y1="262.0" x2="293.0" y2="350.0" stroke-width="0.5"/>
    <line stroke="black" x1="368.0" y1="262.0" x2="403.0" y2="327.0" stroke-width="0.5"/>
    <line stroke="black" x1="293.0" y1="350.0" x2="233.0" y2="450.0" stroke-width="0.5"/>
    <line stroke="black" x1="293.0" y1="350.0" x2="357.0" y2="437.0" stroke-width="0.5"/>
    <line stroke="black" x1="357.0" y1="437.0" x2="383.0" y2="474.0" stroke-width="0.5"/>
    <line stroke="black" x1="357.0" y1="437.0" x2="429.0" y2="403.0" stroke-width="0.5"/>
    <line stroke="black" x1="233.0" y1="450.0" x2="198.0" y2="528.0" stroke-width="0.5"/>
    <line stroke="black" x1="233.0" y1="450.0" x2="293.0" y2="548.0" stroke-width="0.5"/>
    <line stroke="black" x1="198.0" y1="528.0" x2="64.0" y2="846.0" stroke-width="0.5"/>
    <line stroke="black" x1="64.0" y1="846.0" x2="66.0" y2="1009.0" stroke-width="0.5"/>
    <line stroke="black" x1="66.0" y1="1009.0" x2="140.0" y2="1062.0" stroke-width="0.5"/>
    <line stroke="black" x1="230.0" y1="1119.0" x2="64.0" y2="846.0" stroke-width="0.5"/>
    <line stroke="black" x1="443.0" y1="604.0" x2="198.0" y2="528.0" stroke-width="0.5"/>
    <line stroke="black" x1="426.0" y1="567.0" x2="293.0" y2="548.0" stroke-width="0.5"/>
    <line stroke="black" x1="454.0" y1="493.0" x2="383.0" y2="474.0" stroke-width="0.5"/>
    <line stroke="black" x1="481.0" y1="236.0" x2="405.0" y2="253.0" stroke-width="0.5"/>
    <line stroke="black" x1="490.0" y1="309.0" x2="403.0" y2="327.0" stroke-width="0.5"/>
    <line stroke="black" x1="460.0" y1="383.0" x2="429.0" y2="403.0" stroke-width="0.5"/>
    <line stroke="black" x1="502.0" y1="420.0" x2="429.0" y2="403.0" stroke-width="0.5"/>
    <line stroke="black" x1="482.0" y1="126.0" x2="431.0" y2="144.0" stroke-width="0.5"/>
    <line stroke="black" x1="547.0" y1="89.0" x2="434.0" y2="62.0" stroke-width="0.5"/>
    <line stroke="black" x1="515.0" y1="162.0" x2="431.0" y2="144.0" stroke-width="0.5"/>
    <line stroke="black" x1="555.0" y1="15.0" x2="459.0" y2="34.0" stroke-width="0.5"/>
   </g>
  </g>
 </svg>
</svg>
