<?xml version="1.0" encoding="UTF-8"?>
<svg height="800.0" width="700.0" xmlns="http://www.w3.org/2000/svg">
 <svg>
  <g>
   <g>
    <g>
     <circle stroke="black" stroke-width="0.5" fill="#aaffff" cx="141.0" cy="359.0" r="1.0"/>
     <text stroke="none" x="141.0" y="359.0" font-size="10.0" font-family="helvetica">NT1.1</text>
    </g>
    <g>
     <circle stroke="black" stroke-width="0.5" fill="#aaffff" cx="147.0" cy="215.0" r="1.0"/>
     <text stroke="none" x="147.0" y="215.0" font-size="10.0" font-family="helvetica">NT1.2</text>
    </g>
    <g>
     <circle stroke="black" stroke-width="0.5" fill="#aaffff" cx="149.0" cy="503.0" r="1.0"/>
     <text stroke="none" x="149.0" y="503.0" font-size="10.0" font-family="helvetica">NT1.3</text>
    </g>
    <g>
     <circle stroke="black" stroke-width="0.5" fill="#aaffff" cx="151.0" cy="284.0" r="1.0"/>
     <text stroke="none" x="151.0" y="284.0" font-size="10.0" font-family="helvetica">NT1.4</text>
    </g>
    <g>
     <circle stroke="black" stroke-width="0.5" fill="#aaffff" cx="200.0" cy="380.0" r="1.0"/>
     <text stroke="none" x="200.0" y="380.0" font-size="20.0" font-family="helvetica">100</text>
    </g>
    <g>
     <circle stroke="black" stroke-width="0.5" fill="#aaffff" cx="212.0" cy="343.0" r="1.0"/>
     <text stroke="none" x="212.0" y="343.0" font-size="10.0" font-family="helvetica">NT1.6</text>
    </g>
    <g>
     <circle stroke="black" stroke-width="0.5" fill="#aaffff" cx="215.0" cy="418.0" r="1.0"/>
     <text stroke="none" x="215.0" y="418.0" font-size="20.0" font-family="helvetica">82</text>
    </g>
    <g>
     <circle stroke="black" stroke-width="0.5" fill="#aaffff" cx="231.0" cy="123.0" r="1.0"/>
     <text stroke="none" x="231.0" y="123.0" font-size="10.0" font-family="helvetica">NT1.8</text>
    </g>
    <g>
     <circle stroke="black" stroke-width="0.5" fill="#aaffff" cx="233.0" cy="533.0" r="1.0"/>
     <text stroke="none" x="233.0" y="533.0" font-size="10.0" font-family="helvetica">NT1.9</text>
    </g>
    <g>
     <circle stroke="black" stroke-width="0.5" fill="#aaffff" cx="234.0" cy="153.0" r="1.0"/>
     <text stroke="none" x="234.0" y="153.0" font-size="10.0" font-family="helvetica">NT1.10</text>
    </g>
    <g>
     <circle stroke="black" stroke-width="0.5" fill="#aaffff" cx="262.0" cy="475.0" r="1.0"/>
     <text stroke="none" x="262.0" y="475.0" font-size="20.0" font-family="helvetica">Natronobacterium pharaonis JCM 88587 (D87971)</text>
    </g>
    <g>
     <circle stroke="black" stroke-width="0.5" fill="#aaffff" cx="262.0" cy="553.0" r="1.0"/>
     <text stroke="none" x="262.0" y="553.0" font-size="10.0" font-family="helvetica">NT1.12</text>
    </g>
    <g>
     <circle stroke="black" stroke-width="0.5" fill="#aaffff" cx="270.0" cy="514.0" r="1.0"/>
     <text stroke="none" x="270.0" y="514.0" font-size="10.0" font-family="helvetica">NT1.13</text>
    </g>
    <g>
     <circle stroke="black" stroke-width="0.5" fill="#aaffff" cx="271.0" cy="323.0" r="1.0"/>
     <text stroke="none" x="271.0" y="323.0" font-size="10.0" font-family="helvetica">NT1.14</text>
    </g>
    <g>
     <circle stroke="black" stroke-width="0.5" fill="#aaffff" cx="277.0" cy="590.0" r="1.0"/>
     <text stroke="none" x="277.0" y="590.0" font-size="20.0" font-family="helvetica">Methanobacterium beijingense 8-27 (AY350742)</text>
    </g>
    <g>
     <circle stroke="black" stroke-width="0.5" fill="#aaffff" cx="278.0" cy="437.0" r="1.0"/>
     <text stroke="none" x="278.0" y="437.0" font-size="20.0" font-family="helvetica">Haloterrigena turkmenica VKM B-1734T (ABOO4878)</text>
    </g>
    <g>
     <circle stroke="black" stroke-width="0.5" fill="#aaffff" cx="278.0" cy="399.0" r="1.0"/>
     <text stroke="none" x="278.0" y="399.0" font-size="10.0" font-family="helvetica">NT1.17</text>
    </g>
    <g>
     <circle stroke="black" stroke-width="0.5" fill="#aaffff" cx="278.0" cy="362.0" r="1.0"/>
     <text stroke="none" x="278.0" y="362.0" font-size="20.0" font-family="helvetica">Natronocoocus occultus NCIMB 21927 (Z28378)</text>
    </g>
    <g>
     <circle stroke="black" stroke-width="0.5" fill="#aaffff" cx="280.0" cy="37.0" r="1.0"/>
     <text stroke="none" x="280.0" y="37.0" font-size="10.0" font-family="helvetica">NT1.19</text>
    </g>
    <g>
     <circle stroke="black" stroke-width="0.5" fill="#aaffff" cx="283.0" cy="212.0" r="1.0"/>
     <text stroke="none" x="283.0" y="212.0" font-size="10.0" font-family="helvetica">NT1.20</text>
    </g>
    <g>
     <circle stroke="black" stroke-width="0.5" fill="#aaffff" cx="286.0" cy="207.0" r="1.0"/>
     <text stroke="none" x="286.0" y="207.0" font-size="10.0" font-family="helvetica">NT1.21</text>
    </g>
    <g>
     <circle stroke="black" stroke-width="0.5" fill="#aaffff" cx="287.0" cy="170.0" r="1.0"/>
     <text stroke="none" x="287.0" y="170.0" font-size="10.0" font-family="helvetica">NT1.22</text>
    </g>
    <g>
     <circle stroke="black" stroke-width="0.5" fill="#aaffff" cx="289.0" cy="209.0" r="1.0"/>
     <text stroke="none" x="289.0" y="209.0" font-size="20.0" font-family="helvetica">Halococcus dombrowskii H47 (AJ420376)</text>
    </g>
    <g>
     <circle stroke="black" stroke-width="0.5" fill="#aaffff" cx="291.0" cy="56.0" r="1.0"/>
     <text stroke="none" x="291.0" y="56.0" font-size="10.0" font-family="helvetica">NT1.24</text>
    </g>
    <g>
     <circle stroke="black" stroke-width="0.5" fill="#aaffff" cx="292.0" cy="93.0" r="1.0"/>
     <text stroke="none" x="292.0" y="93.0" font-size="20.0" font-family="helvetica">Halococcus hamelinensis 100A6T (DQ017835)</text>
    </g>
    <g>
     <circle stroke="black" stroke-width="0.5" fill="#aaffff" cx="294.0" cy="284.0" r="1.0"/>
     <text stroke="none" x="294.0" y="284.0" font-size="20.0" font-family="helvetica">Haloferax denitrificans ATCC 359607 (D14128)</text>
    </g>
    <g>
     <circle stroke="black" stroke-width="0.5" fill="#aaffff" cx="297.0" cy="18.0" r="1.0"/>
     <text stroke="none" x="297.0" y="18.0" font-size="10.0" font-family="helvetica">NT1.27</text>
    </g>
    <g>
     <circle stroke="black" stroke-width="0.5" fill="#aaffff" cx="298.0" cy="170.0" r="1.0"/>
     <text stroke="none" x="298.0" y="170.0" font-size="20.0" font-family="helvetica">Halococcus morrhuae NRC 16008T (D11106)</text>
    </g>
    <g>
     <circle stroke="black" stroke-width="0.5" fill="#aaffff" cx="298.0" cy="132.0" r="1.0"/>
     <text stroke="none" x="298.0" y="132.0" font-size="20.0" font-family="helvetica">Halococcus qingdaonensis CMST (AY243109)</text>
    </g>
    <g>
     <circle stroke="black" stroke-width="0.5" fill="#aaffff" cx="304.0" cy="247.0" r="1.0"/>
     <text stroke="none" x="304.0" y="247.0" font-size="10.0" font-family="helvetica">NT1.30</text>
    </g>
    <g>
     <circle stroke="black" stroke-width="0.5" fill="#aaffff" cx="6.0" cy="474.0" r="1.0"/>
     <text stroke="none" x="6.0" y="474.0" font-size="10.0" font-family="helvetica">NT1.31</text>
    </g>
    <line stroke="black" x1="289.0" y1="209.0" x2="286.0" y2="207.0" stroke-width="0.5"/>
    <line stroke="black" x1="292.0" y1="93.0" x2="234.0" y2="153.0" stroke-width="0.5"/>
    <line stroke="black" x1="298.0" y1="170.0" x2="287.0" y2="170.0" stroke-width="0.5"/>
    <line stroke="black" x1="298.0" y1="132.0" x2="287.0" y2="170.0" stroke-width="0.5"/>
    <line stroke="black" x1="294.0" y1="284.0" x2="151.0" y2="284.0" stroke-width="0.5"/>
    <line stroke="black" x1="278.0" y1="362.0" x2="212.0" y2="343.0" stroke-width="0.5"/>
    <line stroke="black" x1="262.0" y1="475.0" x2="149.0" y2="503.0" stroke-width="0.5"/>
    <line stroke="black" x1="234.0" y1="153.0" x2="231.0" y2="123.0" stroke-width="0.5"/>
    <line stroke="black" x1="283.0" y1="212.0" x2="286.0" y2="207.0" stroke-width="0.5"/>
    <line stroke="black" x1="286.0" y1="207.0" x2="287.0" y2="170.0" stroke-width="0.5"/>
    <line stroke="black" x1="147.0" y1="215.0" x2="151.0" y2="284.0" stroke-width="0.5"/>
    <line stroke="black" x1="147.0" y1="215.0" x2="141.0" y2="359.0" stroke-width="0.5"/>
    <line stroke="black" x1="151.0" y1="284.0" x2="200.0" y2="380.0" stroke-width="0.5"/>
    <line stroke="black" x1="6.0" y1="474.0" x2="277.0" y2="590.0" stroke-width="0.5"/>
    <line stroke="black" x1="6.0" y1="474.0" x2="141.0" y2="359.0" stroke-width="0.5"/>
    <line stroke="black" x1="278.0" y1="437.0" x2="215.0" y2="418.0" stroke-width="0.5"/>
   </g>
  </g>
 </svg>
</svg>
