<?xml version="1.0" encoding="UTF-8"?>
<svg height="800.0" width="700.0" xmlns="http://www.w3.org/2000/svg">
 <svg>
  <g>
   <g>
    <g>
     <circle stroke="black" stroke-width="0.5" fill="#aaffff" cx="125.0" cy="309.0" r="1.0"/>
     <text stroke="none" x="125.0" y="309.0" font-size="10.0" font-family="helvetica">NT1.1</text>
    </g>
    <g>
     <circle stroke="black" stroke-width="0.5" fill="#aaffff" cx="198.0" cy="404.0" r="1.0"/>
     <text stroke="none" x="198.0" y="404.0" font-size="10.0" font-family="helvetica">NT1.2</text>
    </g>
    <g>
     <circle stroke="black" stroke-width="0.5" fill="#aaffff" cx="200.0" cy="406.0" r="1.0"/>
     <text stroke="none" x="200.0" y="406.0" font-size="10.0" font-family="helvetica">NT1.3</text>
    </g>
    <g>
     <circle stroke="black" stroke-width="0.5" fill="#aaffff" cx="205.0" cy="406.0" r="1.0"/>
     <text stroke="none" x="205.0" y="406.0" font-size="20.0" font-family="helvetica"/>
    </g>
    <g>
     <circle stroke="black" stroke-width="0.5" fill="#aaffff" cx="207.0" cy="339.0" r="1.0"/>
     <text stroke="none" x="207.0" y="339.0" font-size="20.0" font-family="helvetica"/>
    </g>
    <g>
     <circle stroke="black" stroke-width="0.5" fill="#aaffff" cx="207.0" cy="331.0" r="1.0"/>
     <text stroke="none" x="207.0" y="331.0" font-size="20.0" font-family="helvetica"/>
    </g>
    <g>
     <circle stroke="black" stroke-width="0.5" fill="#aaffff" cx="210.0" cy="338.0" r="1.0"/>
     <text stroke="none" x="210.0" y="338.0" font-size="10.0" font-family="helvetica">NT1.7</text>
    </g>
    <g>
     <circle stroke="black" stroke-width="0.5" fill="#aaffff" cx="220.0" cy="343.0" r="1.0"/>
     <text stroke="none" x="220.0" y="343.0" font-size="10.0" font-family="helvetica">NT1.8</text>
    </g>
    <g>
     <circle stroke="black" stroke-width="0.5" fill="#aaffff" cx="229.0" cy="345.0" r="1.0"/>
     <text stroke="none" x="229.0" y="345.0" font-size="20.0" font-family="helvetica"/>
    </g>
    <g>
     <circle stroke="black" stroke-width="0.5" fill="#aaffff" cx="244.0" cy="215.0" r="1.0"/>
     <text stroke="none" x="244.0" y="215.0" font-size="10.0" font-family="helvetica">NT1.10</text>
    </g>
    <g>
     <circle stroke="black" stroke-width="0.5" fill="#aaffff" cx="269.0" cy="213.0" r="1.0"/>
     <text stroke="none" x="269.0" y="213.0" font-size="20.0" font-family="helvetica"/>
    </g>
    <g>
     <circle stroke="black" stroke-width="0.5" fill="#aaffff" cx="320.0" cy="149.0" r="1.0"/>
     <text stroke="none" x="320.0" y="149.0" font-size="10.0" font-family="helvetica">NT1.12</text>
    </g>
    <g>
     <circle stroke="black" stroke-width="0.5" fill="#aaffff" cx="349.0" cy="596.0" r="1.0"/>
     <text stroke="none" x="349.0" y="596.0" font-size="20.0" font-family="helvetica">Dermacoccus barathri MT2.1T (AY894328)</text>
    </g>
    <g>
     <circle stroke="black" stroke-width="0.5" fill="#aaffff" cx="364.0" cy="453.0" r="1.0"/>
     <text stroke="none" x="364.0" y="453.0" font-size="10.0" font-family="helvetica">NT1.14</text>
    </g>
    <g>
     <circle stroke="black" stroke-width="0.5" fill="#aaffff" cx="370.0" cy="471.0" r="1.0"/>
     <text stroke="none" x="370.0" y="471.0" font-size="10.0" font-family="helvetica">NT1.15</text>
    </g>
    <g>
     <circle stroke="black" stroke-width="0.5" fill="#aaffff" cx="390.0" cy="523.0" r="1.0"/>
     <text stroke="none" x="390.0" y="523.0" font-size="10.0" font-family="helvetica">NT1.16</text>
    </g>
    <g>
     <circle stroke="black" stroke-width="0.5" fill="#aaffff" cx="392.0" cy="546.0" r="1.0"/>
     <text stroke="none" x="392.0" y="546.0" font-size="20.0" font-family="helvetica"/>
    </g>
    <g>
     <circle stroke="black" stroke-width="0.5" fill="#aaffff" cx="396.0" cy="523.0" r="1.0"/>
     <text stroke="none" x="396.0" y="523.0" font-size="20.0" font-family="helvetica"/>
    </g>
    <g>
     <circle stroke="black" stroke-width="0.5" fill="#aaffff" cx="430.0" cy="500.0" r="1.0"/>
     <text stroke="none" x="430.0" y="500.0" font-size="20.0" font-family="helvetica">Kocuria rosea DSM 204477 (X87756)</text>
    </g>
    <g>
     <circle stroke="black" stroke-width="0.5" fill="#aaffff" cx="442.0" cy="412.0" r="1.0"/>
     <text stroke="none" x="442.0" y="412.0" font-size="20.0" font-family="helvetica">Kocuria polaris CMS 76orT (AJ27B868)</text>
    </g>
    <g>
     <circle stroke="black" stroke-width="0.5" fill="#aaffff" cx="451.0" cy="370.0" r="1.0"/>
     <text stroke="none" x="451.0" y="370.0" font-size="20.0" font-family="helvetica">Kocuria turfanensis HO-9042T (DQ531634)</text>
    </g>
    <g>
     <circle stroke="black" stroke-width="0.5" fill="#aaffff" cx="532.0" cy="217.0" r="1.0"/>
     <text stroke="none" x="532.0" y="217.0" font-size="10.0" font-family="helvetica">NT1.22</text>
    </g>
    <g>
     <circle stroke="black" stroke-width="0.5" fill="#aaffff" cx="534.0" cy="219.0" r="1.0"/>
     <text stroke="none" x="534.0" y="219.0" font-size="10.0" font-family="helvetica">NT1.23</text>
    </g>
    <g>
     <circle stroke="black" stroke-width="0.5" fill="#aaffff" cx="535.0" cy="324.0" r="1.0"/>
     <text stroke="none" x="535.0" y="324.0" font-size="20.0" font-family="helvetica">Kocuria flava HO-9041T (EF602041)</text>
    </g>
    <g>
     <circle stroke="black" stroke-width="0.5" fill="#aaffff" cx="539.0" cy="219.0" r="1.0"/>
     <text stroke="none" x="539.0" y="219.0" font-size="20.0" font-family="helvetica"/>
    </g>
    <g>
     <circle stroke="black" stroke-width="0.5" fill="#aaffff" cx="553.0" cy="82.0" r="1.0"/>
     <text stroke="none" x="553.0" y="82.0" font-size="10.0" font-family="helvetica">NT1.26</text>
    </g>
    <g>
     <circle stroke="black" stroke-width="0.5" fill="#aaffff" cx="558.0" cy="82.0" r="1.0"/>
     <text stroke="none" x="558.0" y="82.0" font-size="20.0" font-family="helvetica"/>
    </g>
    <g>
     <circle stroke="black" stroke-width="0.5" fill="#aaffff" cx="594.0" cy="39.0" r="1.0"/>
     <text stroke="none" x="594.0" y="39.0" font-size="10.0" font-family="helvetica">NT1.28</text>
    </g>
    <g>
     <circle stroke="black" stroke-width="0.5" fill="#aaffff" cx="596.0" cy="37.0" r="1.0"/>
     <text stroke="none" x="596.0" y="37.0" font-size="10.0" font-family="helvetica">NT1.29</text>
    </g>
    <g>
     <circle stroke="black" stroke-width="0.5" fill="#aaffff" cx="601.0" cy="37.0" r="1.0"/>
     <text stroke="none" x="601.0" y="37.0" font-size="20.0" font-family="helvetica"/>
    </g>
    <g>
     <circle stroke="black" stroke-width="0.5" fill="#aaffff" cx="620.0" cy="128.0" r="1.0"/>
     <text stroke="none" x="620.0" y="128.0" font-size="10.0" font-family="helvetica">NT1.31</text>
    </g>
    <g>
     <circle stroke="black" stroke-width="0.5" fill="#aaffff" cx="725.0" cy="284.0" r="1.0"/>
     <text stroke="none" x="725.0" y="284.0" font-size="20.0" font-family="helvetica">Kocuria palustris DSM 1 1 925T (Y1 6263)</text>
    </g>
    <g>
     <circle stroke="black" stroke-width="0.5" fill="#aaffff" cx="725.0" cy="456.0" r="1.0"/>
     <text stroke="none" x="725.0" y="456.0" font-size="20.0" font-family="helvetica">Kocuria himachalensis K07-O5T (AY987383)</text>
    </g>
    <g>
     <circle stroke="black" stroke-width="0.5" fill="#aaffff" cx="765.0" cy="104.0" r="1.0"/>
     <text stroke="none" x="765.0" y="104.0" font-size="20.0" font-family="helvetica">Kocuria rhizophila DSM 1 1926T (Y16264)</text>
    </g>
    <g>
     <circle stroke="black" stroke-width="0.5" fill="#aaffff" cx="833.0" cy="62.0" r="1.0"/>
     <text stroke="none" x="833.0" y="62.0" font-size="20.0" font-family="helvetica">Kocuria carniphila CCM 132T (AJ622907)</text>
    </g>
    <g>
     <circle stroke="black" stroke-width="0.5" fill="#aaffff" cx="866.0" cy="150.0" r="1.0"/>
     <text stroke="none" x="866.0" y="150.0" font-size="20.0" font-family="helvetica">Kocuria varians DSM 20033T (X87754)</text>
    </g>
    <g>
     <circle stroke="black" stroke-width="0.5" fill="#aaffff" cx="876.0" cy="17.0" r="1.0"/>
     <text stroke="none" x="876.0" y="17.0" font-size="20.0" font-family="helvetica">Kocuria marina KMM 3905T (AY21 1385)</text>
    </g>
    <g>
     <circle stroke="black" stroke-width="0.5" fill="#aaffff" cx="947.0" cy="192.0" r="1.0"/>
     <text stroke="none" x="947.0" y="192.0" font-size="20.0" font-family="helvetica">Kocuria koreensis P31T (FJ607312)</text>
    </g>
    <g>
     <circle stroke="black" stroke-width="0.5" fill="#aaffff" cx="997.0" cy="238.0" r="1.0"/>
     <text stroke="none" x="997.0" y="238.0" font-size="20.0" font-family="helvetica">Kocuria kristinae DSM 200327 (X80749)</text>
    </g>
    <line stroke="black" x1="601.0" y1="37.0" x2="596.0" y2="37.0" stroke-width="0.5"/>
    <line stroke="black" x1="558.0" y1="82.0" x2="553.0" y2="82.0" stroke-width="0.5"/>
    <line stroke="black" x1="833.0" y1="62.0" x2="594.0" y2="39.0" stroke-width="0.5"/>
    <line stroke="black" x1="876.0" y1="17.0" x2="596.0" y2="37.0" stroke-width="0.5"/>
    <line stroke="black" x1="765.0" y1="104.0" x2="620.0" y2="128.0" stroke-width="0.5"/>
    <line stroke="black" x1="866.0" y1="150.0" x2="620.0" y2="128.0" stroke-width="0.5"/>
    <line stroke="black" x1="269.0" y1="213.0" x2="244.0" y2="215.0" stroke-width="0.5"/>
    <line stroke="black" x1="539.0" y1="219.0" x2="534.0" y2="219.0" stroke-width="0.5"/>
    <line stroke="black" x1="205.0" y1="406.0" x2="200.0" y2="406.0" stroke-width="0.5"/>
    <line stroke="black" x1="207.0" y1="339.0" x2="210.0" y2="338.0" stroke-width="0.5"/>
    <line stroke="black" x1="229.0" y1="345.0" x2="220.0" y2="343.0" stroke-width="0.5"/>
    <line stroke="black" x1="207.0" y1="331.0" x2="210.0" y2="338.0" stroke-width="0.5"/>
    <line stroke="black" x1="725.0" y1="284.0" x2="244.0" y2="215.0" stroke-width="0.5"/>
    <line stroke="black" x1="947.0" y1="192.0" x2="532.0" y2="217.0" stroke-width="0.5"/>
    <line stroke="black" x1="997.0" y1="238.0" x2="534.0" y2="219.0" stroke-width="0.5"/>
    <line stroke="black" x1="396.0" y1="523.0" x2="390.0" y2="523.0" stroke-width="0.5"/>
    <line stroke="black" x1="392.0" y1="546.0" x2="390.0" y2="523.0" stroke-width="0.5"/>
    <line stroke="black" x1="442.0" y1="412.0" x2="364.0" y2="453.0" stroke-width="0.5"/>
    <line stroke="black" x1="451.0" y1="370.0" x2="220.0" y2="343.0" stroke-width="0.5"/>
    <line stroke="black" x1="535.0" y1="324.0" x2="220.0" y2="343.0" stroke-width="0.5"/>
    <line stroke="black" x1="725.0" y1="456.0" x2="370.0" y2="471.0" stroke-width="0.5"/>
    <line stroke="black" x1="594.0" y1="39.0" x2="596.0" y2="37.0" stroke-width="0.5"/>
    <line stroke="black" x1="594.0" y1="39.0" x2="553.0" y2="82.0" stroke-width="0.5"/>
    <line stroke="black" x1="553.0" y1="82.0" x2="320.0" y2="149.0" stroke-width="0.5"/>
    <line stroke="black" x1="553.0" y1="82.0" x2="620.0" y2="128.0" stroke-width="0.5"/>
    <line stroke="black" x1="320.0" y1="149.0" x2="244.0" y2="215.0" stroke-width="0.5"/>
    <line stroke="black" x1="320.0" y1="149.0" x2="532.0" y2="217.0" stroke-width="0.5"/>
    <line stroke="black" x1="244.0" y1="215.0" x2="125.0" y2="309.0" stroke-width="0.5"/>
    <line stroke="black" x1="534.0" y1="219.0" x2="532.0" y2="217.0" stroke-width="0.5"/>
    <line stroke="black" x1="125.0" y1="309.0" x2="198.0" y2="404.0" stroke-width="0.5"/>
    <line stroke="black" x1="200.0" y1="406.0" x2="198.0" y2="404.0" stroke-width="0.5"/>
    <line stroke="black" x1="198.0" y1="404.0" x2="220.0" y2="343.0" stroke-width="0.5"/>
    <line stroke="black" x1="200.0" y1="406.0" x2="364.0" y2="453.0" stroke-width="0.5"/>
    <line stroke="black" x1="220.0" y1="343.0" x2="210.0" y2="338.0" stroke-width="0.5"/>
    <line stroke="black" x1="370.0" y1="471.0" x2="364.0" y2="453.0" stroke-width="0.5"/>
    <line stroke="black" x1="370.0" y1="471.0" x2="370.0" y2="471.0" stroke-width="0.5"/>
    <line stroke="black" x1="370.0" y1="471.0" x2="390.0" y2="523.0" stroke-width="0.5"/>
    <line stroke="black" x1="349.0" y1="596.0" x2="125.0" y2="309.0" stroke-width="0.5"/>
    <line stroke="black" x1="430.0" y1="500.0" x2="390.0" y2="523.0" stroke-width="0.5"/>
   </g>
  </g>
 </svg>
</svg>
