<?xml version="1.0" encoding="UTF-8"?>
<svg height="800.0" width="700.0" xmlns="http://www.w3.org/2000/svg">
 <svg>
  <g>
   <g>
    <g>
     <circle stroke="black" stroke-width="0.5" fill="#aaffff" cx="2.0" cy="941.0" r="1.0"/>
     <text stroke="none" x="2.0" y="941.0" font-size="20.0" font-family="helvetica"/>
    </g>
    <g>
     <circle stroke="black" stroke-width="0.5" fill="#aaffff" cx="221.0" cy="837.0" r="1.0"/>
     <text stroke="none" x="221.0" y="837.0" font-size="10.0" font-family="helvetica">NT1.2</text>
    </g>
    <g>
     <circle stroke="black" stroke-width="0.5" fill="#aaffff" cx="239.0" cy="750.0" r="1.0"/>
     <text stroke="none" x="239.0" y="750.0" font-size="10.0" font-family="helvetica">NT1.3</text>
    </g>
    <g>
     <circle stroke="black" stroke-width="0.5" fill="#aaffff" cx="243.0" cy="924.0" r="1.0"/>
     <text stroke="none" x="243.0" y="924.0" font-size="10.0" font-family="helvetica">NT1.4</text>
    </g>
    <g>
     <circle stroke="black" stroke-width="0.5" fill="#aaffff" cx="245.0" cy="937.0" r="1.0"/>
     <text stroke="none" x="245.0" y="937.0" font-size="10.0" font-family="helvetica">NT1.5</text>
    </g>
    <g>
     <circle stroke="black" stroke-width="0.5" fill="#aaffff" cx="246.0" cy="949.0" r="1.0"/>
     <text stroke="none" x="246.0" y="949.0" font-size="10.0" font-family="helvetica">NT1.6</text>
    </g>
    <g>
     <circle stroke="black" stroke-width="0.5" fill="#aaffff" cx="261.0" cy="651.0" r="1.0"/>
     <text stroke="none" x="261.0" y="651.0" font-size="10.0" font-family="helvetica">NT1.7</text>
    </g>
    <g>
     <circle stroke="black" stroke-width="0.5" fill="#aaffff" cx="280.0" cy="958.0" r="1.0"/>
     <text stroke="none" x="280.0" y="958.0" font-size="10.0" font-family="helvetica">NT1.8</text>
    </g>
    <g>
     <circle stroke="black" stroke-width="0.5" fill="#aaffff" cx="302.0" cy="493.0" r="1.0"/>
     <text stroke="none" x="302.0" y="493.0" font-size="20.0" font-family="helvetica">42</text>
    </g>
    <g>
     <circle stroke="black" stroke-width="0.5" fill="#aaffff" cx="310.0" cy="644.0" r="1.0"/>
     <text stroke="none" x="310.0" y="644.0" font-size="10.0" font-family="helvetica">NT1.10</text>
    </g>
    <g>
     <circle stroke="black" stroke-width="0.5" fill="#aaffff" cx="321.0" cy="403.0" r="1.0"/>
     <text stroke="none" x="321.0" y="403.0" font-size="20.0" font-family="helvetica"/>
    </g>
    <g>
     <circle stroke="black" stroke-width="0.5" fill="#aaffff" cx="321.0" cy="413.0" r="1.0"/>
     <text stroke="none" x="321.0" y="413.0" font-size="20.0" font-family="helvetica"/>
    </g>
    <g>
     <circle stroke="black" stroke-width="0.5" fill="#aaffff" cx="328.0" cy="683.0" r="1.0"/>
     <text stroke="none" x="328.0" y="683.0" font-size="10.0" font-family="helvetica">NT1.13</text>
    </g>
    <g>
     <circle stroke="black" stroke-width="0.5" fill="#aaffff" cx="331.0" cy="384.0" r="1.0"/>
     <text stroke="none" x="331.0" y="384.0" font-size="10.0" font-family="helvetica">NT1.14</text>
    </g>
    <g>
     <circle stroke="black" stroke-width="0.5" fill="#aaffff" cx="341.0" cy="256.0" r="1.0"/>
     <text stroke="none" x="341.0" y="256.0" font-size="20.0" font-family="helvetica">38</text>
    </g>
    <g>
     <circle stroke="black" stroke-width="0.5" fill="#aaffff" cx="342.0" cy="928.0" r="1.0"/>
     <text stroke="none" x="342.0" y="928.0" font-size="20.0" font-family="helvetica">Nocardia niwae W92417 (FJ765056)</text>
    </g>
    <g>
     <circle stroke="black" stroke-width="0.5" fill="#aaffff" cx="361.0" cy="591.0" r="1.0"/>
     <text stroke="none" x="361.0" y="591.0" font-size="10.0" font-family="helvetica">NT1.17</text>
    </g>
    <g>
     <circle stroke="black" stroke-width="0.5" fill="#aaffff" cx="363.0" cy="987.0" r="1.0"/>
     <text stroke="none" x="363.0" y="987.0" font-size="20.0" font-family="helvetica">997</text>
    </g>
    <g>
     <circle stroke="black" stroke-width="0.5" fill="#aaffff" cx="364.0" cy="849.0" r="1.0"/>
     <text stroke="none" x="364.0" y="849.0" font-size="20.0" font-family="helvetica">Nocardia vaccinii DSM 432857 (Z36927)</text>
    </g>
    <g>
     <circle stroke="black" stroke-width="0.5" fill="#aaffff" cx="378.0" cy="888.0" r="1.0"/>
     <text stroke="none" x="378.0" y="888.0" font-size="20.0" font-family="helvetica">Nocardia mikamii W8O617 (EU484388)</text>
    </g>
    <g>
     <circle stroke="black" stroke-width="0.5" fill="#aaffff" cx="380.0" cy="809.0" r="1.0"/>
     <text stroke="none" x="380.0" y="809.0" font-size="20.0" font-family="helvetica">Nocardia vermiculata IFM O3917(AB126873)</text>
    </g>
    <g>
     <circle stroke="black" stroke-width="0.5" fill="#aaffff" cx="392.0" cy="748.0" r="1.0"/>
     <text stroke="none" x="392.0" y="748.0" font-size="10.0" font-family="helvetica">NT1.22</text>
    </g>
    <g>
     <circle stroke="black" stroke-width="0.5" fill="#aaffff" cx="397.0" cy="468.0" r="1.0"/>
     <text stroke="none" x="397.0" y="468.0" font-size="10.0" font-family="helvetica">NT1.23</text>
    </g>
    <g>
     <circle stroke="black" stroke-width="0.5" fill="#aaffff" cx="417.0" cy="199.0" r="1.0"/>
     <text stroke="none" x="417.0" y="199.0" font-size="10.0" font-family="helvetica">NT1.24</text>
    </g>
    <g>
     <circle stroke="black" stroke-width="0.5" fill="#aaffff" cx="433.0" cy="968.0" r="1.0"/>
     <text stroke="none" x="433.0" y="968.0" font-size="20.0" font-family="helvetica">Nocardia amamiensis 'I'I' 00-787 (AB2751 64)</text>
    </g>
    <g>
     <circle stroke="black" stroke-width="0.5" fill="#aaffff" cx="436.0" cy="729.0" r="1.0"/>
     <text stroke="none" x="436.0" y="729.0" font-size="20.0" font-family="helvetica">Nocardia jiangxiensis 434017 (AY639902)</text>
    </g>
    <g>
     <circle stroke="black" stroke-width="0.5" fill="#aaffff" cx="440.0" cy="370.0" r="1.0"/>
     <text stroke="none" x="440.0" y="370.0" font-size="20.0" font-family="helvetica">Nocardia paucivorans IMMIB D-16327 (AF1 79865)</text>
    </g>
    <g>
     <circle stroke="black" stroke-width="0.5" fill="#aaffff" cx="441.0" cy="431.0" r="1.0"/>
     <text stroke="none" x="441.0" y="431.0" font-size="10.0" font-family="helvetica">NT1.28</text>
    </g>
    <g>
     <circle stroke="black" stroke-width="0.5" fill="#aaffff" cx="451.0" cy="569.0" r="1.0"/>
     <text stroke="none" x="451.0" y="569.0" font-size="20.0" font-family="helvetica">Nocardia nova JCM 60447 (Z36930)</text>
    </g>
    <g>
     <circle stroke="black" stroke-width="0.5" fill="#aaffff" cx="452.0" cy="309.0" r="1.0"/>
     <text stroke="none" x="452.0" y="309.0" font-size="10.0" font-family="helvetica">NT1.30</text>
    </g>
    <g>
     <circle stroke="black" stroke-width="0.5" fill="#aaffff" cx="456.0" cy="145.0" r="1.0"/>
     <text stroke="none" x="456.0" y="145.0" font-size="10.0" font-family="helvetica">NT1.31</text>
    </g>
    <g>
     <circle stroke="black" stroke-width="0.5" fill="#aaffff" cx="464.0" cy="508.0" r="1.0"/>
     <text stroke="none" x="464.0" y="508.0" font-size="10.0" font-family="helvetica">NT1.32</text>
    </g>
    <g>
     <circle stroke="black" stroke-width="0.5" fill="#aaffff" cx="465.0" cy="1009.0" r="1.0"/>
     <text stroke="none" x="465.0" y="1009.0" font-size="20.0" font-family="helvetica">Nocardia pneumoniae IFM 07847 (AB108780)</text>
    </g>
    <g>
     <circle stroke="black" stroke-width="0.5" fill="#aaffff" cx="467.0" cy="488.0" r="1.0"/>
     <text stroke="none" x="467.0" y="488.0" font-size="20.0" font-family="helvetica">Nocardia exalbida IFM 08037 (AB1 87522)</text>
    </g>
    <g>
     <circle stroke="black" stroke-width="0.5" fill="#aaffff" cx="474.0" cy="410.0" r="1.0"/>
     <text stroke="none" x="474.0" y="410.0" font-size="20.0" font-family="helvetica">Nocardia Xishanensis AS 4.18607 (AY3331 15)</text>
    </g>
    <g>
     <circle stroke="black" stroke-width="0.5" fill="#aaffff" cx="480.0" cy="769.0" r="1.0"/>
     <text stroke="none" x="480.0" y="769.0" font-size="20.0" font-family="helvetica">Nocardia miyunensis 1 1 77 (AY639901)</text>
    </g>
    <g>
     <circle stroke="black" stroke-width="0.5" fill="#aaffff" cx="481.0" cy="610.0" r="1.0"/>
     <text stroke="none" x="481.0" y="610.0" font-size="20.0" font-family="helvetica">Nocardia otitidiscaviarum DSM 432427 (AF43006 7)</text>
    </g>
    <g>
     <circle stroke="black" stroke-width="0.5" fill="#aaffff" cx="492.0" cy="530.0" r="1.0"/>
     <text stroke="none" x="492.0" y="530.0" font-size="20.0" font-family="helvetica">Nocardia gamkensis CZH2O7 (DQ235272)</text>
    </g>
    <g>
     <circle stroke="black" stroke-width="0.5" fill="#aaffff" cx="492.0" cy="689.0" r="1.0"/>
     <text stroke="none" x="492.0" y="689.0" font-size="20.0" font-family="helvetica">Nocardia vinacea MK7O3-102F17(ABO24312)</text>
    </g>
    <g>
     <circle stroke="black" stroke-width="0.5" fill="#aaffff" cx="502.0" cy="450.0" r="1.0"/>
     <text stroke="none" x="502.0" y="450.0" font-size="20.0" font-family="helvetica">Nocardia lijiangensis YIM 333787 (AY779043)</text>
    </g>
    <g>
     <circle stroke="black" stroke-width="0.5" fill="#aaffff" cx="523.0" cy="290.0" r="1.0"/>
     <text stroke="none" x="523.0" y="290.0" font-size="20.0" font-family="helvetica">Nocardia endophytica KLBMP 12567 (HM153801)</text>
    </g>
    <g>
     <circle stroke="black" stroke-width="0.5" fill="#aaffff" cx="526.0" cy="98.0" r="1.0"/>
     <text stroke="none" x="526.0" y="98.0" font-size="10.0" font-family="helvetica">NT1.42</text>
    </g>
    <g>
     <circle stroke="black" stroke-width="0.5" fill="#aaffff" cx="532.0" cy="64.0" r="1.0"/>
     <text stroke="none" x="532.0" y="64.0" font-size="20.0" font-family="helvetica">55'</text>
    </g>
    <g>
     <circle stroke="black" stroke-width="0.5" fill="#aaffff" cx="545.0" cy="649.0" r="1.0"/>
     <text stroke="none" x="545.0" y="649.0" font-size="20.0" font-family="helvetica">Nocardia terpenica IFM 07067 (AB201 298)</text>
    </g>
    <g>
     <circle stroke="black" stroke-width="0.5" fill="#aaffff" cx="559.0" cy="189.0" r="1.0"/>
     <text stroke="none" x="559.0" y="189.0" font-size="10.0" font-family="helvetica">NT1.45</text>
    </g>
    <g>
     <circle stroke="black" stroke-width="0.5" fill="#aaffff" cx="570.0" cy="331.0" r="1.0"/>
     <text stroke="none" x="570.0" y="331.0" font-size="20.0" font-family="helvetica">Nocardia callitridis CAP 2907 (FJ805428)</text>
    </g>
    <g>
     <circle stroke="black" stroke-width="0.5" fill="#aaffff" cx="572.0" cy="91.0" r="1.0"/>
     <text stroke="none" x="572.0" y="91.0" font-size="20.0" font-family="helvetica">Wocardia rhamnosiphila' 202GMO (EF418604)</text>
    </g>
    <g>
     <circle stroke="black" stroke-width="0.5" fill="#aaffff" cx="578.0" cy="131.0" r="1.0"/>
     <text stroke="none" x="578.0" y="131.0" font-size="20.0" font-family="helvetica">Nocardia flavorosea JCM 33327 (Z46754)</text>
    </g>
    <g>
     <circle stroke="black" stroke-width="0.5" fill="#aaffff" cx="579.0" cy="33.0" r="1.0"/>
     <text stroke="none" x="579.0" y="33.0" font-size="20.0" font-family="helvetica">997</text>
    </g>
    <g>
     <circle stroke="black" stroke-width="0.5" fill="#aaffff" cx="587.0" cy="52.0" r="1.0"/>
     <text stroke="none" x="587.0" y="52.0" font-size="20.0" font-family="helvetica">Nocardia testacea JCM 122357 (AB1 9241 5)</text>
    </g>
    <g>
     <circle stroke="black" stroke-width="0.5" fill="#aaffff" cx="587.0" cy="251.0" r="1.0"/>
     <text stroke="none" x="587.0" y="251.0" font-size="20.0" font-family="helvetica">Nocardia harenae WS-267 (DO2821 22)</text>
    </g>
    <g>
     <circle stroke="black" stroke-width="0.5" fill="#aaffff" cx="589.0" cy="12.0" r="1.0"/>
     <text stroke="none" x="589.0" y="12.0" font-size="20.0" font-family="helvetica">Nocardia sienata IFM 100887 (AB121 770)</text>
    </g>
    <g>
     <circle stroke="black" stroke-width="0.5" fill="#aaffff" cx="603.0" cy="170.0" r="1.0"/>
     <text stroke="none" x="603.0" y="170.0" font-size="20.0" font-family="helvetica">Nocardia speluncae N2-1 17 (AM422449)</text>
    </g>
    <g>
     <circle stroke="black" stroke-width="0.5" fill="#aaffff" cx="608.0" cy="211.0" r="1.0"/>
     <text stroke="none" x="608.0" y="211.0" font-size="20.0" font-family="helvetica">Nocardia jinanensis O4-51957 (DQ462650)</text>
    </g>
    <line stroke="black" x1="587.0" y1="52.0" x2="579.0" y2="33.0" stroke-width="0.5"/>
    <line stroke="black" x1="608.0" y1="211.0" x2="559.0" y2="189.0" stroke-width="0.5"/>
    <line stroke="black" x1="321.0" y1="403.0" x2="331.0" y2="384.0" stroke-width="0.5"/>
    <line stroke="black" x1="331.0" y1="384.0" x2="321.0" y2="413.0" stroke-width="0.5"/>
    <line stroke="black" x1="440.0" y1="370.0" x2="331.0" y2="384.0" stroke-width="0.5"/>
    <line stroke="black" x1="467.0" y1="488.0" x2="464.0" y2="508.0" stroke-width="0.5"/>
    <line stroke="black" x1="492.0" y1="689.0" x2="328.0" y2="683.0" stroke-width="0.5"/>
    <line stroke="black" x1="342.0" y1="928.0" x2="280.0" y2="958.0" stroke-width="0.5"/>
    <line stroke="black" x1="579.0" y1="33.0" x2="532.0" y2="64.0" stroke-width="0.5"/>
    <line stroke="black" x1="532.0" y1="64.0" x2="526.0" y2="98.0" stroke-width="0.5"/>
    <line stroke="black" x1="526.0" y1="98.0" x2="456.0" y2="145.0" stroke-width="0.5"/>
    <line stroke="black" x1="456.0" y1="145.0" x2="417.0" y2="199.0" stroke-width="0.5"/>
    <line stroke="black" x1="456.0" y1="145.0" x2="559.0" y2="189.0" stroke-width="0.5"/>
    <line stroke="black" x1="417.0" y1="199.0" x2="341.0" y2="256.0" stroke-width="0.5"/>
    <line stroke="black" x1="341.0" y1="256.0" x2="331.0" y2="384.0" stroke-width="0.5"/>
    <line stroke="black" x1="341.0" y1="256.0" x2="452.0" y2="309.0" stroke-width="0.5"/>
    <line stroke="black" x1="331.0" y1="384.0" x2="302.0" y2="493.0" stroke-width="0.5"/>
    <line stroke="black" x1="331.0" y1="384.0" x2="331.0" y2="384.0" stroke-width="0.5"/>
    <line stroke="black" x1="331.0" y1="384.0" x2="397.0" y2="468.0" stroke-width="0.5"/>
    <line stroke="black" x1="302.0" y1="493.0" x2="261.0" y2="651.0" stroke-width="0.5"/>
    <line stroke="black" x1="302.0" y1="493.0" x2="310.0" y2="644.0" stroke-width="0.5"/>
    <line stroke="black" x1="397.0" y1="468.0" x2="464.0" y2="508.0" stroke-width="0.5"/>
    <line stroke="black" x1="397.0" y1="468.0" x2="441.0" y2="431.0" stroke-width="0.5"/>
    <line stroke="black" x1="310.0" y1="644.0" x2="328.0" y2="683.0" stroke-width="0.5"/>
    <line stroke="black" x1="310.0" y1="644.0" x2="361.0" y2="591.0" stroke-width="0.5"/>
    <line stroke="black" x1="261.0" y1="651.0" x2="239.0" y2="750.0" stroke-width="0.5"/>
    <line stroke="black" x1="328.0" y1="683.0" x2="392.0" y2="748.0" stroke-width="0.5"/>
    <line stroke="black" x1="239.0" y1="750.0" x2="221.0" y2="837.0" stroke-width="0.5"/>
    <line stroke="black" x1="221.0" y1="837.0" x2="243.0" y2="924.0" stroke-width="0.5"/>
    <line stroke="black" x1="243.0" y1="924.0" x2="245.0" y2="937.0" stroke-width="0.5"/>
    <line stroke="black" x1="245.0" y1="937.0" x2="246.0" y2="949.0" stroke-width="0.5"/>
    <line stroke="black" x1="246.0" y1="949.0" x2="280.0" y2="958.0" stroke-width="0.5"/>
    <line stroke="black" x1="280.0" y1="958.0" x2="363.0" y2="987.0" stroke-width="0.5"/>
    <line stroke="black" x1="2.0" y1="941.0" x2="221.0" y2="837.0" stroke-width="0.5"/>
    <line stroke="black" x1="245.0" y1="937.0" x2="246.0" y2="949.0" stroke-width="0.5"/>
    <line stroke="black" x1="364.0" y1="849.0" x2="239.0" y2="750.0" stroke-width="0.5"/>
    <line stroke="black" x1="378.0" y1="888.0" x2="243.0" y2="924.0" stroke-width="0.5"/>
    <line stroke="black" x1="380.0" y1="809.0" x2="261.0" y2="651.0" stroke-width="0.5"/>
    <line stroke="black" x1="433.0" y1="968.0" x2="363.0" y2="987.0" stroke-width="0.5"/>
    <line stroke="black" x1="451.0" y1="569.0" x2="361.0" y2="591.0" stroke-width="0.5"/>
    <line stroke="black" x1="465.0" y1="1009.0" x2="363.0" y2="987.0" stroke-width="0.5"/>
    <line stroke="black" x1="545.0" y1="649.0" x2="328.0" y2="683.0" stroke-width="0.5"/>
    <line stroke="black" x1="481.0" y1="610.0" x2="361.0" y2="591.0" stroke-width="0.5"/>
    <line stroke="black" x1="436.0" y1="729.0" x2="392.0" y2="748.0" stroke-width="0.5"/>
    <line stroke="black" x1="480.0" y1="769.0" x2="392.0" y2="748.0" stroke-width="0.5"/>
    <line stroke="black" x1="474.0" y1="410.0" x2="441.0" y2="431.0" stroke-width="0.5"/>
    <line stroke="black" x1="502.0" y1="450.0" x2="441.0" y2="431.0" stroke-width="0.5"/>
    <line stroke="black" x1="587.0" y1="251.0" x2="417.0" y2="199.0" stroke-width="0.5"/>
    <line stroke="black" x1="492.0" y1="530.0" x2="464.0" y2="508.0" stroke-width="0.5"/>
    <line stroke="black" x1="523.0" y1="290.0" x2="452.0" y2="309.0" stroke-width="0.5"/>
    <line stroke="black" x1="570.0" y1="331.0" x2="452.0" y2="309.0" stroke-width="0.5"/>
    <line stroke="black" x1="578.0" y1="131.0" x2="526.0" y2="98.0" stroke-width="0.5"/>
    <line stroke="black" x1="572.0" y1="91.0" x2="532.0" y2="64.0" stroke-width="0.5"/>
    <line stroke="black" x1="603.0" y1="170.0" x2="559.0" y2="189.0" stroke-width="0.5"/>
    <line stroke="black" x1="589.0" y1="12.0" x2="579.0" y2="33.0" stroke-width="0.5"/>
   </g>
  </g>
 </svg>
</svg>
