<?xml version="1.0" encoding="UTF-8"?>
<svg height="800.0" width="700.0" xmlns="http://www.w3.org/2000/svg">
 <svg>
  <g>
   <g>
    <g>
     <circle stroke="black" stroke-width="0.5" fill="#aaffff" cx="686.0" cy="1378.0" r="1.0"/>
     <text stroke="none" x="686.0" y="1378.0" font-size="20.0" font-family="helvetica"/>
    </g>
    <g>
     <circle stroke="black" stroke-width="0.5" fill="#aaffff" cx="694.0" cy="1526.0" r="1.0"/>
     <text stroke="none" x="694.0" y="1526.0" font-size="10.0" font-family="helvetica">NT1.2</text>
    </g>
    <g>
     <circle stroke="black" stroke-width="0.5" fill="#aaffff" cx="696.0" cy="1231.0" r="1.0"/>
     <text stroke="none" x="696.0" y="1231.0" font-size="10.0" font-family="helvetica">NT1.3</text>
    </g>
    <g>
     <circle stroke="black" stroke-width="0.5" fill="#aaffff" cx="697.0" cy="1725.0" r="1.0"/>
     <text stroke="none" x="697.0" y="1725.0" font-size="10.0" font-family="helvetica">NT1.4</text>
    </g>
    <g>
     <circle stroke="black" stroke-width="0.5" fill="#aaffff" cx="699.0" cy="1449.0" r="1.0"/>
     <text stroke="none" x="699.0" y="1449.0" font-size="20.0" font-family="helvetica"/>
    </g>
    <g>
     <circle stroke="black" stroke-width="0.5" fill="#aaffff" cx="704.0" cy="1236.0" r="1.0"/>
     <text stroke="none" x="704.0" y="1236.0" font-size="20.0" font-family="helvetica"/>
    </g>
    <g>
     <circle stroke="black" stroke-width="0.5" fill="#aaffff" cx="705.0" cy="1729.0" r="1.0"/>
     <text stroke="none" x="705.0" y="1729.0" font-size="20.0" font-family="helvetica"/>
    </g>
    <g>
     <circle stroke="black" stroke-width="0.5" fill="#aaffff" cx="705.0" cy="115.0" r="1.0"/>
     <text stroke="none" x="705.0" y="115.0" font-size="10.0" font-family="helvetica">NT1.8</text>
    </g>
    <g>
     <circle stroke="black" stroke-width="0.5" fill="#aaffff" cx="708.0" cy="1393.0" r="1.0"/>
     <text stroke="none" x="708.0" y="1393.0" font-size="20.0" font-family="helvetica"/>
    </g>
    <g>
     <circle stroke="black" stroke-width="0.5" fill="#aaffff" cx="716.0" cy="1334.0" r="1.0"/>
     <text stroke="none" x="716.0" y="1334.0" font-size="10.0" font-family="helvetica">NT1.10</text>
    </g>
    <g>
     <circle stroke="black" stroke-width="0.5" fill="#aaffff" cx="718.0" cy="1462.0" r="1.0"/>
     <text stroke="none" x="718.0" y="1462.0" font-size="10.0" font-family="helvetica">NT1.11</text>
    </g>
    <g>
     <circle stroke="black" stroke-width="0.5" fill="#aaffff" cx="720.0" cy="1738.0" r="1.0"/>
     <text stroke="none" x="720.0" y="1738.0" font-size="20.0" font-family="helvetica">5</text>
    </g>
    <g>
     <circle stroke="black" stroke-width="0.5" fill="#aaffff" cx="721.0" cy="1464.0" r="1.0"/>
     <text stroke="none" x="721.0" y="1464.0" font-size="20.0" font-family="helvetica"/>
    </g>
    <g>
     <circle stroke="black" stroke-width="0.5" fill="#aaffff" cx="721.0" cy="1823.0" r="1.0"/>
     <text stroke="none" x="721.0" y="1823.0" font-size="20.0" font-family="helvetica"/>
    </g>
    <g>
     <circle stroke="black" stroke-width="0.5" fill="#aaffff" cx="726.0" cy="1248.0" r="1.0"/>
     <text stroke="none" x="726.0" y="1248.0" font-size="20.0" font-family="helvetica"/>
    </g>
    <g>
     <circle stroke="black" stroke-width="0.5" fill="#aaffff" cx="726.0" cy="1689.0" r="1.0"/>
     <text stroke="none" x="726.0" y="1689.0" font-size="20.0" font-family="helvetica">mmoo</text>
    </g>
    <g>
     <circle stroke="black" stroke-width="0.5" fill="#aaffff" cx="727.0" cy="916.0" r="1.0"/>
     <text stroke="none" x="727.0" y="916.0" font-size="20.0" font-family="helvetica"/>
    </g>
    <g>
     <circle stroke="black" stroke-width="0.5" fill="#aaffff" cx="730.0" cy="1730.0" r="1.0"/>
     <text stroke="none" x="730.0" y="1730.0" font-size="20.0" font-family="helvetica">5</text>
    </g>
    <g>
     <circle stroke="black" stroke-width="0.5" fill="#aaffff" cx="731.0" cy="540.0" r="1.0"/>
     <text stroke="none" x="731.0" y="540.0" font-size="20.0" font-family="helvetica"/>
    </g>
    <g>
     <circle stroke="black" stroke-width="0.5" fill="#aaffff" cx="734.0" cy="2136.0" r="1.0"/>
     <text stroke="none" x="734.0" y="2136.0" font-size="10.0" font-family="helvetica">NT1.20</text>
    </g>
    <g>
     <circle stroke="black" stroke-width="0.5" fill="#aaffff" cx="736.0" cy="731.0" r="1.0"/>
     <text stroke="none" x="736.0" y="731.0" font-size="10.0" font-family="helvetica">NT1.21</text>
    </g>
    <g>
     <circle stroke="black" stroke-width="0.5" fill="#aaffff" cx="742.0" cy="1022.0" r="1.0"/>
     <text stroke="none" x="742.0" y="1022.0" font-size="20.0" font-family="helvetica"/>
    </g>
    <g>
     <circle stroke="black" stroke-width="0.5" fill="#aaffff" cx="742.0" cy="679.0" r="1.0"/>
     <text stroke="none" x="742.0" y="679.0" font-size="10.0" font-family="helvetica">NT1.23</text>
    </g>
    <g>
     <circle stroke="black" stroke-width="0.5" fill="#aaffff" cx="742.0" cy="1419.0" r="1.0"/>
     <text stroke="none" x="742.0" y="1419.0" font-size="10.0" font-family="helvetica">NT1.24</text>
    </g>
    <g>
     <circle stroke="black" stroke-width="0.5" fill="#aaffff" cx="742.0" cy="488.0" r="1.0"/>
     <text stroke="none" x="742.0" y="488.0" font-size="10.0" font-family="helvetica">NT1.25</text>
    </g>
    <g>
     <circle stroke="black" stroke-width="0.5" fill="#aaffff" cx="742.0" cy="1188.0" r="1.0"/>
     <text stroke="none" x="742.0" y="1188.0" font-size="20.0" font-family="helvetica"/>
    </g>
    <g>
     <circle stroke="black" stroke-width="0.5" fill="#aaffff" cx="747.0" cy="2071.0" r="1.0"/>
     <text stroke="none" x="747.0" y="2071.0" font-size="10.0" font-family="helvetica">NT1.27</text>
    </g>
    <g>
     <circle stroke="black" stroke-width="0.5" fill="#aaffff" cx="747.0" cy="1106.0" r="1.0"/>
     <text stroke="none" x="747.0" y="1106.0" font-size="10.0" font-family="helvetica">NT1.28</text>
    </g>
    <g>
     <circle stroke="black" stroke-width="0.5" fill="#aaffff" cx="753.0" cy="1433.0" r="1.0"/>
     <text stroke="none" x="753.0" y="1433.0" font-size="20.0" font-family="helvetica"/>
    </g>
    <g>
     <circle stroke="black" stroke-width="0.5" fill="#aaffff" cx="753.0" cy="1452.0" r="1.0"/>
     <text stroke="none" x="753.0" y="1452.0" font-size="10.0" font-family="helvetica">NT1.30</text>
    </g>
    <g>
     <circle stroke="black" stroke-width="0.5" fill="#aaffff" cx="757.0" cy="2036.0" r="1.0"/>
     <text stroke="none" x="757.0" y="2036.0" font-size="20.0" font-family="helvetica">Trypanosoma varani V54</text>
    </g>
    <g>
     <circle stroke="black" stroke-width="0.5" fill="#aaffff" cx="762.0" cy="1854.0" r="1.0"/>
     <text stroke="none" x="762.0" y="1854.0" font-size="10.0" font-family="helvetica">NT1.32</text>
    </g>
    <g>
     <circle stroke="black" stroke-width="0.5" fill="#aaffff" cx="764.0" cy="1912.0" r="1.0"/>
     <text stroke="none" x="764.0" y="1912.0" font-size="10.0" font-family="helvetica">NT1.33</text>
    </g>
    <g>
     <circle stroke="black" stroke-width="0.5" fill="#aaffff" cx="765.0" cy="948.0" r="1.0"/>
     <text stroke="none" x="765.0" y="948.0" font-size="10.0" font-family="helvetica">NT1.34</text>
    </g>
    <g>
     <circle stroke="black" stroke-width="0.5" fill="#aaffff" cx="766.0" cy="2103.0" r="1.0"/>
     <text stroke="none" x="766.0" y="2103.0" font-size="20.0" font-family="helvetica">Trypanosoma cruzi VINCH89</text>
    </g>
    <g>
     <circle stroke="black" stroke-width="0.5" fill="#aaffff" cx="766.0" cy="1925.0" r="1.0"/>
     <text stroke="none" x="766.0" y="1925.0" font-size="20.0" font-family="helvetica">1101 11111</text>
    </g>
    <g>
     <circle stroke="black" stroke-width="0.5" fill="#aaffff" cx="767.0" cy="1038.0" r="1.0"/>
     <text stroke="none" x="767.0" y="1038.0" font-size="10.0" font-family="helvetica">NT1.37</text>
    </g>
    <g>
     <circle stroke="black" stroke-width="0.5" fill="#aaffff" cx="767.0" cy="844.0" r="1.0"/>
     <text stroke="none" x="767.0" y="844.0" font-size="10.0" font-family="helvetica">NT1.38</text>
    </g>
    <g>
     <circle stroke="black" stroke-width="0.5" fill="#aaffff" cx="770.0" cy="1775.0" r="1.0"/>
     <text stroke="none" x="770.0" y="1775.0" font-size="20.0" font-family="helvetica">5</text>
    </g>
    <g>
     <circle stroke="black" stroke-width="0.5" fill="#aaffff" cx="771.0" cy="1040.0" r="1.0"/>
     <text stroke="none" x="771.0" y="1040.0" font-size="10.0" font-family="helvetica">NT1.40</text>
    </g>
    <g>
     <circle stroke="black" stroke-width="0.5" fill="#aaffff" cx="772.0" cy="847.0" r="1.0"/>
     <text stroke="none" x="772.0" y="847.0" font-size="10.0" font-family="helvetica">NT1.41</text>
    </g>
    <g>
     <circle stroke="black" stroke-width="0.5" fill="#aaffff" cx="776.0" cy="1215.0" r="1.0"/>
     <text stroke="none" x="776.0" y="1215.0" font-size="10.0" font-family="helvetica">NT1.42</text>
    </g>
    <g>
     <circle stroke="black" stroke-width="0.5" fill="#aaffff" cx="779.0" cy="827.0" r="1.0"/>
     <text stroke="none" x="779.0" y="827.0" font-size="10.0" font-family="helvetica">NT1.43</text>
    </g>
    <g>
     <circle stroke="black" stroke-width="0.5" fill="#aaffff" cx="780.0" cy="1367.0" r="1.0"/>
     <text stroke="none" x="780.0" y="1367.0" font-size="20.0" font-family="helvetica">Bodo saltans</text>
    </g>
    <g>
     <circle stroke="black" stroke-width="0.5" fill="#aaffff" cx="782.0" cy="1265.0" r="1.0"/>
     <text stroke="none" x="782.0" y="1265.0" font-size="20.0" font-family="helvetica">1</text>
    </g>
    <g>
     <circle stroke="black" stroke-width="0.5" fill="#aaffff" cx="787.0" cy="2203.0" r="1.0"/>
     <text stroke="none" x="787.0" y="2203.0" font-size="10.0" font-family="helvetica">NT1.46</text>
    </g>
    <g>
     <circle stroke="black" stroke-width="0.5" fill="#aaffff" cx="791.0" cy="866.0" r="1.0"/>
     <text stroke="none" x="791.0" y="866.0" font-size="10.0" font-family="helvetica">NT1.47</text>
    </g>
    <g>
     <circle stroke="black" stroke-width="0.5" fill="#aaffff" cx="793.0" cy="1502.0" r="1.0"/>
     <text stroke="none" x="793.0" y="1502.0" font-size="20.0" font-family="helvetica">Bodo zmcinatus</text>
    </g>
    <g>
     <circle stroke="black" stroke-width="0.5" fill="#aaffff" cx="807.0" cy="1233.0" r="1.0"/>
     <text stroke="none" x="807.0" y="1233.0" font-size="20.0" font-family="helvetica">FV18-8TS</text>
    </g>
    <g>
     <circle stroke="black" stroke-width="0.5" fill="#aaffff" cx="810.0" cy="1067.0" r="1.0"/>
     <text stroke="none" x="810.0" y="1067.0" font-size="10.0" font-family="helvetica">NT1.50</text>
    </g>
    <g>
     <circle stroke="black" stroke-width="0.5" fill="#aaffff" cx="812.0" cy="1166.0" r="1.0"/>
     <text stroke="none" x="812.0" y="1166.0" font-size="20.0" font-family="helvetica">Cryptaulaxoides-like sp. TCS2003</text>
    </g>
    <g>
     <circle stroke="black" stroke-width="0.5" fill="#aaffff" cx="813.0" cy="2234.0" r="1.0"/>
     <text stroke="none" x="813.0" y="2234.0" font-size="20.0" font-family="helvetica">T rypanosoma brucei gambiense</text>
    </g>
    <g>
     <circle stroke="black" stroke-width="0.5" fill="#aaffff" cx="818.0" cy="596.0" r="1.0"/>
     <text stroke="none" x="818.0" y="596.0" font-size="10.0" font-family="helvetica">NT1.53</text>
    </g>
    <g>
     <circle stroke="black" stroke-width="0.5" fill="#aaffff" cx="818.0" cy="733.0" r="1.0"/>
     <text stroke="none" x="818.0" y="733.0" font-size="10.0" font-family="helvetica">NT1.54</text>
    </g>
    <g>
     <circle stroke="black" stroke-width="0.5" fill="#aaffff" cx="819.0" cy="833.0" r="1.0"/>
     <text stroke="none" x="819.0" y="833.0" font-size="20.0" font-family="helvetica"/>
    </g>
    <g>
     <circle stroke="black" stroke-width="0.5" fill="#aaffff" cx="820.0" cy="564.0" r="1.0"/>
     <text stroke="none" x="820.0" y="564.0" font-size="20.0" font-family="helvetica"/>
    </g>
    <g>
     <circle stroke="black" stroke-width="0.5" fill="#aaffff" cx="822.0" cy="697.0" r="1.0"/>
     <text stroke="none" x="822.0" y="697.0" font-size="20.0" font-family="helvetica"/>
    </g>
    <g>
     <circle stroke="black" stroke-width="0.5" fill="#aaffff" cx="824.0" cy="765.0" r="1.0"/>
     <text stroke="none" x="824.0" y="765.0" font-size="20.0" font-family="helvetica">LKM101</text>
    </g>
    <g>
     <circle stroke="black" stroke-width="0.5" fill="#aaffff" cx="827.0" cy="373.0" r="1.0"/>
     <text stroke="none" x="827.0" y="373.0" font-size="10.0" font-family="helvetica">NT1.59</text>
    </g>
    <g>
     <circle stroke="black" stroke-width="0.5" fill="#aaffff" cx="829.0" cy="1300.0" r="1.0"/>
     <text stroke="none" x="829.0" y="1300.0" font-size="20.0" font-family="helvetica">AT5-25</text>
    </g>
    <g>
     <circle stroke="black" stroke-width="0.5" fill="#aaffff" cx="831.0" cy="900.0" r="1.0"/>
     <text stroke="none" x="831.0" y="900.0" font-size="20.0" font-family="helvetica">Bodo saliens</text>
    </g>
    <g>
     <circle stroke="black" stroke-width="0.5" fill="#aaffff" cx="832.0" cy="1102.0" r="1.0"/>
     <text stroke="none" x="832.0" y="1102.0" font-size="20.0" font-family="helvetica">uncultured clone AT5-48</text>
    </g>
    <g>
     <circle stroke="black" stroke-width="0.5" fill="#aaffff" cx="833.0" cy="1699.0" r="1.0"/>
     <text stroke="none" x="833.0" y="1699.0" font-size="10.0" font-family="helvetica">NT1.63</text>
    </g>
    <g>
     <circle stroke="black" stroke-width="0.5" fill="#aaffff" cx="834.0" cy="1636.0" r="1.0"/>
     <text stroke="none" x="834.0" y="1636.0" font-size="10.0" font-family="helvetica">NT1.64</text>
    </g>
    <g>
     <circle stroke="black" stroke-width="0.5" fill="#aaffff" cx="836.0" cy="2171.0" r="1.0"/>
     <text stroke="none" x="836.0" y="2171.0" font-size="20.0" font-family="helvetica">Trypanosoma congolense CAM22b</text>
    </g>
    <g>
     <circle stroke="black" stroke-width="0.5" fill="#aaffff" cx="836.0" cy="1636.0" r="1.0"/>
     <text stroke="none" x="836.0" y="1636.0" font-size="20.0" font-family="helvetica">Cryptobia bulloclri</text>
    </g>
    <g>
     <circle stroke="black" stroke-width="0.5" fill="#aaffff" cx="839.0" cy="1700.0" r="1.0"/>
     <text stroke="none" x="839.0" y="1700.0" font-size="20.0" font-family="helvetica">Ciyptobiasalmositica</text>
    </g>
    <g>
     <circle stroke="black" stroke-width="0.5" fill="#aaffff" cx="839.0" cy="1569.0" r="1.0"/>
     <text stroke="none" x="839.0" y="1569.0" font-size="20.0" font-family="helvetica">Cryptobia catostomi</text>
    </g>
    <g>
     <circle stroke="black" stroke-width="0.5" fill="#aaffff" cx="856.0" cy="967.0" r="1.0"/>
     <text stroke="none" x="856.0" y="967.0" font-size="20.0" font-family="helvetica">LFS2 kinetoplastid flagellate</text>
    </g>
    <g>
     <circle stroke="black" stroke-width="0.5" fill="#aaffff" cx="861.0" cy="1034.0" r="1.0"/>
     <text stroke="none" x="861.0" y="1034.0" font-size="20.0" font-family="helvetica">Cruzella marina</text>
    </g>
    <g>
     <circle stroke="black" stroke-width="0.5" fill="#aaffff" cx="864.0" cy="631.0" r="1.0"/>
     <text stroke="none" x="864.0" y="631.0" font-size="20.0" font-family="helvetica">Rhynchobodo ATCC 50359</text>
    </g>
    <g>
     <circle stroke="black" stroke-width="0.5" fill="#aaffff" cx="866.0" cy="1934.0" r="1.0"/>
     <text stroke="none" x="866.0" y="1934.0" font-size="10.0" font-family="helvetica">NT1.72</text>
    </g>
    <g>
     <circle stroke="black" stroke-width="0.5" fill="#aaffff" cx="870.0" cy="164.0" r="1.0"/>
     <text stroke="none" x="870.0" y="164.0" font-size="20.0" font-family="helvetica">AT4-56 uncultured kinetoplastid</text>
    </g>
    <g>
     <circle stroke="black" stroke-width="0.5" fill="#aaffff" cx="884.0" cy="1902.0" r="1.0"/>
     <text stroke="none" x="884.0" y="1902.0" font-size="20.0" font-family="helvetica">Bodo caudatus</text>
    </g>
    <g>
     <circle stroke="black" stroke-width="0.5" fill="#aaffff" cx="894.0" cy="331.0" r="1.0"/>
     <text stroke="none" x="894.0" y="331.0" font-size="10.0" font-family="helvetica">NT1.75</text>
    </g>
    <g>
     <circle stroke="black" stroke-width="0.5" fill="#aaffff" cx="903.0" cy="366.0" r="1.0"/>
     <text stroke="none" x="903.0" y="366.0" font-size="20.0" font-family="helvetica">Rhynchomonas nasuta</text>
    </g>
    <g>
     <circle stroke="black" stroke-width="0.5" fill="#aaffff" cx="906.0" cy="298.0" r="1.0"/>
     <text stroke="none" x="906.0" y="298.0" font-size="20.0" font-family="helvetica"/>
    </g>
    <g>
     <circle stroke="black" stroke-width="0.5" fill="#aaffff" cx="911.0" cy="64.0" r="1.0"/>
     <text stroke="none" x="911.0" y="64.0" font-size="10.0" font-family="helvetica">NT1.78</text>
    </g>
    <g>
     <circle stroke="black" stroke-width="0.5" fill="#aaffff" cx="920.0" cy="1835.0" r="1.0"/>
     <text stroke="none" x="920.0" y="1835.0" font-size="20.0" font-family="helvetica">Bodo sorokini ATCC 50641</text>
    </g>
    <g>
     <circle stroke="black" stroke-width="0.5" fill="#aaffff" cx="934.0" cy="29.0" r="1.0"/>
     <text stroke="none" x="934.0" y="29.0" font-size="20.0" font-family="helvetica">Ichthyobodo necatar</text>
    </g>
    <g>
     <circle stroke="black" stroke-width="0.5" fill="#aaffff" cx="936.0" cy="465.0" r="1.0"/>
     <text stroke="none" x="936.0" y="465.0" font-size="10.0" font-family="helvetica">NT1.81</text>
    </g>
    <g>
     <circle stroke="black" stroke-width="0.5" fill="#aaffff" cx="937.0" cy="499.0" r="1.0"/>
     <text stroke="none" x="937.0" y="499.0" font-size="20.0" font-family="helvetica">Dimastigella Irypaniformis</text>
    </g>
    <g>
     <circle stroke="black" stroke-width="0.5" fill="#aaffff" cx="943.0" cy="1969.0" r="1.0"/>
     <text stroke="none" x="943.0" y="1969.0" font-size="20.0" font-family="helvetica">Parabodo nitrophilus</text>
    </g>
    <g>
     <circle stroke="black" stroke-width="0.5" fill="#aaffff" cx="945.0" cy="97.0" r="1.0"/>
     <text stroke="none" x="945.0" y="97.0" font-size="20.0" font-family="helvetica">Ichthyobodo sp. GM0503</text>
    </g>
    <g>
     <circle stroke="black" stroke-width="0.5" fill="#aaffff" cx="945.0" cy="433.0" r="1.0"/>
     <text stroke="none" x="945.0" y="433.0" font-size="20.0" font-family="helvetica">Dimastigella mimosa</text>
    </g>
    <line stroke="black" x1="870.0" y1="164.0" x2="705.0" y2="115.0" stroke-width="0.5"/>
    <line stroke="black" x1="705.0" y1="1729.0" x2="697.0" y2="1725.0" stroke-width="0.5"/>
    <line stroke="black" x1="699.0" y1="1449.0" x2="694.0" y2="1526.0" stroke-width="0.5"/>
    <line stroke="black" x1="686.0" y1="1378.0" x2="694.0" y2="1526.0" stroke-width="0.5"/>
    <line stroke="black" x1="704.0" y1="1236.0" x2="696.0" y2="1231.0" stroke-width="0.5"/>
    <line stroke="black" x1="726.0" y1="1248.0" x2="716.0" y2="1334.0" stroke-width="0.5"/>
    <line stroke="black" x1="708.0" y1="1393.0" x2="716.0" y2="1334.0" stroke-width="0.5"/>
    <line stroke="black" x1="836.0" y1="2171.0" x2="787.0" y2="2203.0" stroke-width="0.5"/>
    <line stroke="black" x1="721.0" y1="1464.0" x2="718.0" y2="1462.0" stroke-width="0.5"/>
    <line stroke="black" x1="730.0" y1="1730.0" x2="726.0" y2="1689.0" stroke-width="0.5"/>
    <line stroke="black" x1="727.0" y1="916.0" x2="736.0" y2="731.0" stroke-width="0.5"/>
    <line stroke="black" x1="721.0" y1="1823.0" x2="730.0" y2="1730.0" stroke-width="0.5"/>
    <line stroke="black" x1="731.0" y1="540.0" x2="736.0" y2="731.0" stroke-width="0.5"/>
    <line stroke="black" x1="753.0" y1="1452.0" x2="753.0" y2="1433.0" stroke-width="0.5"/>
    <line stroke="black" x1="766.0" y1="1925.0" x2="764.0" y2="1912.0" stroke-width="0.5"/>
    <line stroke="black" x1="793.0" y1="1502.0" x2="753.0" y2="1452.0" stroke-width="0.5"/>
    <line stroke="black" x1="742.0" y1="1022.0" x2="747.0" y2="1106.0" stroke-width="0.5"/>
    <line stroke="black" x1="839.0" y1="1700.0" x2="833.0" y2="1699.0" stroke-width="0.5"/>
    <line stroke="black" x1="820.0" y1="564.0" x2="818.0" y2="596.0" stroke-width="0.5"/>
    <line stroke="black" x1="836.0" y1="1636.0" x2="834.0" y2="1636.0" stroke-width="0.5"/>
    <line stroke="black" x1="864.0" y1="631.0" x2="818.0" y2="596.0" stroke-width="0.5"/>
    <line stroke="black" x1="829.0" y1="1300.0" x2="782.0" y2="1265.0" stroke-width="0.5"/>
    <line stroke="black" x1="832.0" y1="1102.0" x2="810.0" y2="1067.0" stroke-width="0.5"/>
    <line stroke="black" x1="937.0" y1="499.0" x2="936.0" y2="465.0" stroke-width="0.5"/>
    <line stroke="black" x1="822.0" y1="697.0" x2="818.0" y2="733.0" stroke-width="0.5"/>
    <line stroke="black" x1="911.0" y1="64.0" x2="705.0" y2="115.0" stroke-width="0.5"/>
    <line stroke="black" x1="694.0" y1="1526.0" x2="697.0" y2="1725.0" stroke-width="0.5"/>
    <line stroke="black" x1="694.0" y1="1526.0" x2="696.0" y2="1231.0" stroke-width="0.5"/>
    <line stroke="black" x1="697.0" y1="1725.0" x2="734.0" y2="2136.0" stroke-width="0.5"/>
    <line stroke="black" x1="696.0" y1="1231.0" x2="716.0" y2="1334.0" stroke-width="0.5"/>
    <line stroke="black" x1="716.0" y1="1334.0" x2="736.0" y2="731.0" stroke-width="0.5"/>
    <line stroke="black" x1="718.0" y1="1462.0" x2="716.0" y2="1334.0" stroke-width="0.5"/>
    <line stroke="black" x1="734.0" y1="2136.0" x2="787.0" y2="2203.0" stroke-width="0.5"/>
    <line stroke="black" x1="734.0" y1="2136.0" x2="747.0" y2="2071.0" stroke-width="0.5"/>
    <line stroke="black" x1="718.0" y1="1462.0" x2="730.0" y2="1730.0" stroke-width="0.5"/>
    <line stroke="black" x1="730.0" y1="1730.0" x2="742.0" y2="1419.0" stroke-width="0.5"/>
    <line stroke="black" x1="730.0" y1="1730.0" x2="720.0" y2="1738.0" stroke-width="0.5"/>
    <line stroke="black" x1="730.0" y1="1730.0" x2="762.0" y2="1854.0" stroke-width="0.5"/>
    <line stroke="black" x1="736.0" y1="731.0" x2="742.0" y2="679.0" stroke-width="0.5"/>
    <line stroke="black" x1="736.0" y1="731.0" x2="747.0" y2="1106.0" stroke-width="0.5"/>
    <line stroke="black" x1="736.0" y1="731.0" x2="742.0" y2="488.0" stroke-width="0.5"/>
    <line stroke="black" x1="742.0" y1="679.0" x2="742.0" y2="679.0" stroke-width="0.5"/>
    <line stroke="black" x1="720.0" y1="1738.0" x2="720.0" y2="1738.0" stroke-width="0.5"/>
    <line stroke="black" x1="742.0" y1="1419.0" x2="753.0" y2="1452.0" stroke-width="0.5"/>
    <line stroke="black" x1="762.0" y1="1854.0" x2="764.0" y2="1912.0" stroke-width="0.5"/>
    <line stroke="black" x1="762.0" y1="1854.0" x2="770.0" y2="1775.0" stroke-width="0.5"/>
    <line stroke="black" x1="764.0" y1="1912.0" x2="866.0" y2="1934.0" stroke-width="0.5"/>
    <line stroke="black" x1="742.0" y1="488.0" x2="818.0" y2="596.0" stroke-width="0.5"/>
    <line stroke="black" x1="742.0" y1="488.0" x2="827.0" y2="373.0" stroke-width="0.5"/>
    <line stroke="black" x1="747.0" y1="1106.0" x2="765.0" y2="948.0" stroke-width="0.5"/>
    <line stroke="black" x1="747.0" y1="1106.0" x2="742.0" y2="1188.0" stroke-width="0.5"/>
    <line stroke="black" x1="747.0" y1="1106.0" x2="776.0" y2="1215.0" stroke-width="0.5"/>
    <line stroke="black" x1="833.0" y1="1699.0" x2="834.0" y2="1636.0" stroke-width="0.5"/>
    <line stroke="black" x1="765.0" y1="948.0" x2="767.0" y2="1038.0" stroke-width="0.5"/>
    <line stroke="black" x1="765.0" y1="948.0" x2="767.0" y2="844.0" stroke-width="0.5"/>
    <line stroke="black" x1="776.0" y1="1215.0" x2="782.0" y2="1265.0" stroke-width="0.5"/>
    <line stroke="black" x1="827.0" y1="373.0" x2="936.0" y2="465.0" stroke-width="0.5"/>
    <line stroke="black" x1="767.0" y1="1038.0" x2="771.0" y2="1040.0" stroke-width="0.5"/>
    <line stroke="black" x1="767.0" y1="1038.0" x2="810.0" y2="1067.0" stroke-width="0.5"/>
    <line stroke="black" x1="771.0" y1="1040.0" x2="771.0" y2="1040.0" stroke-width="0.5"/>
    <line stroke="black" x1="767.0" y1="844.0" x2="772.0" y2="847.0" stroke-width="0.5"/>
    <line stroke="black" x1="767.0" y1="844.0" x2="779.0" y2="827.0" stroke-width="0.5"/>
    <line stroke="black" x1="772.0" y1="847.0" x2="772.0" y2="847.0" stroke-width="0.5"/>
    <line stroke="black" x1="779.0" y1="827.0" x2="791.0" y2="866.0" stroke-width="0.5"/>
    <line stroke="black" x1="779.0" y1="827.0" x2="818.0" y2="733.0" stroke-width="0.5"/>
    <line stroke="black" x1="705.0" y1="115.0" x2="694.0" y2="1526.0" stroke-width="0.5"/>
    <line stroke="black" x1="757.0" y1="2036.0" x2="747.0" y2="2071.0" stroke-width="0.5"/>
    <line stroke="black" x1="766.0" y1="2103.0" x2="747.0" y2="2071.0" stroke-width="0.5"/>
    <line stroke="black" x1="780.0" y1="1367.0" x2="742.0" y2="1419.0" stroke-width="0.5"/>
    <line stroke="black" x1="807.0" y1="1233.0" x2="782.0" y2="1265.0" stroke-width="0.5"/>
    <line stroke="black" x1="812.0" y1="1166.0" x2="776.0" y2="1215.0" stroke-width="0.5"/>
    <line stroke="black" x1="813.0" y1="2234.0" x2="787.0" y2="2203.0" stroke-width="0.5"/>
    <line stroke="black" x1="819.0" y1="833.0" x2="791.0" y2="866.0" stroke-width="0.5"/>
    <line stroke="black" x1="856.0" y1="967.0" x2="791.0" y2="866.0" stroke-width="0.5"/>
    <line stroke="black" x1="831.0" y1="900.0" x2="791.0" y2="866.0" stroke-width="0.5"/>
    <line stroke="black" x1="920.0" y1="1835.0" x2="770.0" y2="1775.0" stroke-width="0.5"/>
    <line stroke="black" x1="824.0" y1="765.0" x2="818.0" y2="733.0" stroke-width="0.5"/>
    <line stroke="black" x1="861.0" y1="1034.0" x2="810.0" y2="1067.0" stroke-width="0.5"/>
    <line stroke="black" x1="770.0" y1="1775.0" x2="833.0" y2="1699.0" stroke-width="0.5"/>
    <line stroke="black" x1="839.0" y1="1569.0" x2="834.0" y2="1636.0" stroke-width="0.5"/>
    <line stroke="black" x1="884.0" y1="1902.0" x2="866.0" y2="1934.0" stroke-width="0.5"/>
    <line stroke="black" x1="827.0" y1="373.0" x2="894.0" y2="331.0" stroke-width="0.5"/>
    <line stroke="black" x1="943.0" y1="1969.0" x2="866.0" y2="1934.0" stroke-width="0.5"/>
    <line stroke="black" x1="903.0" y1="366.0" x2="894.0" y2="331.0" stroke-width="0.5"/>
    <line stroke="black" x1="906.0" y1="298.0" x2="894.0" y2="331.0" stroke-width="0.5"/>
    <line stroke="black" x1="934.0" y1="29.0" x2="911.0" y2="64.0" stroke-width="0.5"/>
    <line stroke="black" x1="945.0" y1="97.0" x2="911.0" y2="64.0" stroke-width="0.5"/>
    <line stroke="black" x1="945.0" y1="433.0" x2="936.0" y2="465.0" stroke-width="0.5"/>
   </g>
  </g>
 </svg>
</svg>
