<?xml version="1.0" encoding="UTF-8"?>
<svg height="800.0" width="700.0" xmlns="http://www.w3.org/2000/svg">
 <svg>
  <g>
   <g>
    <g>
     <circle stroke="black" stroke-width="0.5" fill="#aaffff" cx="27.0" cy="423.0" r="1.0"/>
     <text stroke="none" x="27.0" y="423.0" font-size="10.0" font-family="helvetica">NT1.1</text>
    </g>
    <g>
     <circle stroke="black" stroke-width="0.5" fill="#aaffff" cx="32.0" cy="466.0" r="1.0"/>
     <text stroke="none" x="32.0" y="466.0" font-size="20.0" font-family="helvetica"/>
    </g>
    <g>
     <circle stroke="black" stroke-width="0.5" fill="#aaffff" cx="54.0" cy="417.0" r="1.0"/>
     <text stroke="none" x="54.0" y="417.0" font-size="10.0" font-family="helvetica">NT1.3</text>
    </g>
    <g>
     <circle stroke="black" stroke-width="0.5" fill="#aaffff" cx="64.0" cy="486.0" r="1.0"/>
     <text stroke="none" x="64.0" y="486.0" font-size="10.0" font-family="helvetica">NT1.4</text>
    </g>
    <g>
     <circle stroke="black" stroke-width="0.5" fill="#aaffff" cx="88.0" cy="421.0" r="1.0"/>
     <text stroke="none" x="88.0" y="421.0" font-size="10.0" font-family="helvetica">NT1.5</text>
    </g>
    <g>
     <circle stroke="black" stroke-width="0.5" fill="#aaffff" cx="93.0" cy="420.0" r="1.0"/>
     <text stroke="none" x="93.0" y="420.0" font-size="20.0" font-family="helvetica"/>
    </g>
    <g>
     <circle stroke="black" stroke-width="0.5" fill="#aaffff" cx="103.0" cy="497.0" r="1.0"/>
     <text stroke="none" x="103.0" y="497.0" font-size="20.0" font-family="helvetica"/>
    </g>
    <g>
     <circle stroke="black" stroke-width="0.5" fill="#aaffff" cx="137.0" cy="325.0" r="1.0"/>
     <text stroke="none" x="137.0" y="325.0" font-size="10.0" font-family="helvetica">NT1.8</text>
    </g>
    <g>
     <circle stroke="black" stroke-width="0.5" fill="#aaffff" cx="143.0" cy="291.0" r="1.0"/>
     <text stroke="none" x="143.0" y="291.0" font-size="20.0" font-family="helvetica"/>
    </g>
    <g>
     <circle stroke="black" stroke-width="0.5" fill="#aaffff" cx="174.0" cy="249.0" r="1.0"/>
     <text stroke="none" x="174.0" y="249.0" font-size="10.0" font-family="helvetica">NT1.10</text>
    </g>
    <g>
     <circle stroke="black" stroke-width="0.5" fill="#aaffff" cx="181.0" cy="239.0" r="1.0"/>
     <text stroke="none" x="181.0" y="239.0" font-size="20.0" font-family="helvetica"/>
    </g>
    <g>
     <circle stroke="black" stroke-width="0.5" fill="#aaffff" cx="206.0" cy="169.0" r="1.0"/>
     <text stroke="none" x="206.0" y="169.0" font-size="10.0" font-family="helvetica">NT1.12</text>
    </g>
    <g>
     <circle stroke="black" stroke-width="0.5" fill="#aaffff" cx="213.0" cy="193.0" r="1.0"/>
     <text stroke="none" x="213.0" y="193.0" font-size="20.0" font-family="helvetica"/>
    </g>
    <g>
     <circle stroke="black" stroke-width="0.5" fill="#aaffff" cx="216.0" cy="325.0" r="1.0"/>
     <text stroke="none" x="216.0" y="325.0" font-size="20.0" font-family="helvetica"/>
    </g>
    <g>
     <circle stroke="black" stroke-width="0.5" fill="#aaffff" cx="228.0" cy="141.0" r="1.0"/>
     <text stroke="none" x="228.0" y="141.0" font-size="20.0" font-family="helvetica"/>
    </g>
    <g>
     <circle stroke="black" stroke-width="0.5" fill="#aaffff" cx="231.0" cy="96.0" r="1.0"/>
     <text stroke="none" x="231.0" y="96.0" font-size="10.0" font-family="helvetica">NT1.16</text>
    </g>
    <g>
     <circle stroke="black" stroke-width="0.5" fill="#aaffff" cx="243.0" cy="95.0" r="1.0"/>
     <text stroke="none" x="243.0" y="95.0" font-size="20.0" font-family="helvetica">Colwellia maris JCM 100857 (AB002630)</text>
    </g>
    <g>
     <circle stroke="black" stroke-width="0.5" fill="#aaffff" cx="246.0" cy="190.0" r="1.0"/>
     <text stroke="none" x="246.0" y="190.0" font-size="10.0" font-family="helvetica">NT1.18</text>
    </g>
    <g>
     <circle stroke="black" stroke-width="0.5" fill="#aaffff" cx="248.0" cy="129.0" r="1.0"/>
     <text stroke="none" x="248.0" y="129.0" font-size="20.0" font-family="helvetica">Colwellia piezophila Y223G7 (AB094412)</text>
    </g>
    <g>
     <circle stroke="black" stroke-width="0.5" fill="#aaffff" cx="250.0" cy="75.0" r="1.0"/>
     <text stroke="none" x="250.0" y="75.0" font-size="10.0" font-family="helvetica">NT1.20</text>
    </g>
    <g>
     <circle stroke="black" stroke-width="0.5" fill="#aaffff" cx="253.0" cy="186.0" r="1.0"/>
     <text stroke="none" x="253.0" y="186.0" font-size="20.0" font-family="helvetica"/>
    </g>
    <g>
     <circle stroke="black" stroke-width="0.5" fill="#aaffff" cx="253.0" cy="557.0" r="1.0"/>
     <text stroke="none" x="253.0" y="557.0" font-size="20.0" font-family="helvetica"/>
    </g>
    <g>
     <circle stroke="black" stroke-width="0.5" fill="#aaffff" cx="256.0" cy="61.0" r="1.0"/>
     <text stroke="none" x="256.0" y="61.0" font-size="20.0" font-family="helvetica"/>
    </g>
    <g>
     <circle stroke="black" stroke-width="0.5" fill="#aaffff" cx="269.0" cy="42.0" r="1.0"/>
     <text stroke="none" x="269.0" y="42.0" font-size="10.0" font-family="helvetica">NT1.24</text>
    </g>
    <g>
     <circle stroke="black" stroke-width="0.5" fill="#aaffff" cx="270.0" cy="30.0" r="1.0"/>
     <text stroke="none" x="270.0" y="30.0" font-size="10.0" font-family="helvetica">NT1.25</text>
    </g>
    <g>
     <circle stroke="black" stroke-width="0.5" fill="#aaffff" cx="273.0" cy="91.0" r="1.0"/>
     <text stroke="none" x="273.0" y="91.0" font-size="20.0" font-family="helvetica">Colwellia maris JCM 100857 (AB002630)</text>
    </g>
    <g>
     <circle stroke="black" stroke-width="0.5" fill="#aaffff" cx="277.0" cy="30.0" r="1.0"/>
     <text stroke="none" x="277.0" y="30.0" font-size="20.0" font-family="helvetica"/>
    </g>
    <g>
     <circle stroke="black" stroke-width="0.5" fill="#aaffff" cx="279.0" cy="286.0" r="1.0"/>
     <text stroke="none" x="279.0" y="286.0" font-size="20.0" font-family="helvetica">Colwellia aestuarii SMK-107 (DQ055844)</text>
    </g>
    <g>
     <circle stroke="black" stroke-width="0.5" fill="#aaffff" cx="286.0" cy="246.0" r="1.0"/>
     <text stroke="none" x="286.0" y="246.0" font-size="20.0" font-family="helvetica">Colwellia homerae ACAM 6077 (U85847)</text>
    </g>
    <g>
     <circle stroke="black" stroke-width="0.5" fill="#aaffff" cx="294.0" cy="208.0" r="1.0"/>
     <text stroke="none" x="294.0" y="208.0" font-size="20.0" font-family="helvetica">Colwellia psychrerythraea ACAM 5507 (AF001375)</text>
    </g>
    <g>
     <circle stroke="black" stroke-width="0.5" fill="#aaffff" cx="306.0" cy="363.0" r="1.0"/>
     <text stroke="none" x="306.0" y="363.0" font-size="20.0" font-family="helvetica">Thalassomonas ganghwensis KCTC 120417 (AY194o66)</text>
    </g>
    <g>
     <circle stroke="black" stroke-width="0.5" fill="#aaffff" cx="313.0" cy="52.0" r="1.0"/>
     <text stroke="none" x="313.0" y="52.0" font-size="20.0" font-family="helvetica">Colwellia rossensis ACAM 6087 (U14581)</text>
    </g>
    <g>
     <circle stroke="black" stroke-width="0.5" fill="#aaffff" cx="330.0" cy="169.0" r="1.0"/>
     <text stroke="none" x="330.0" y="169.0" font-size="20.0" font-family="helvetica"> Colwellia demingiae ACAM 4597 (U85845)</text>
    </g>
    <g>
     <circle stroke="black" stroke-width="0.5" fill="#aaffff" cx="332.0" cy="441.0" r="1.0"/>
     <text stroke="none" x="332.0" y="441.0" font-size="20.0" font-family="helvetica">Pseudoalteromonas haloplanktis ATCC 143937 (X67024)</text>
    </g>
    <g>
     <circle stroke="black" stroke-width="0.5" fill="#aaffff" cx="335.0" cy="13.0" r="1.0"/>
     <text stroke="none" x="335.0" y="13.0" font-size="20.0" font-family="helvetica">Colwellia psychrotropica ACAM 1797 (U85846)</text>
    </g>
    <g>
     <circle stroke="black" stroke-width="0.5" fill="#aaffff" cx="339.0" cy="480.0" r="1.0"/>
     <text stroke="none" x="339.0" y="480.0" font-size="20.0" font-family="helvetica">Idiomarina abyssalis KMM 2277 (AF052740)</text>
    </g>
    <g>
     <circle stroke="black" stroke-width="0.5" fill="#aaffff" cx="398.0" cy="519.0" r="1.0"/>
     <text stroke="none" x="398.0" y="519.0" font-size="20.0" font-family="helvetica">Psychromonas antarctica DSM 107047 (Y14697)</text>
    </g>
    <g>
     <circle stroke="black" stroke-width="0.5" fill="#aaffff" cx="423.0" cy="403.0" r="1.0"/>
     <text stroke="none" x="423.0" y="403.0" font-size="20.0" font-family="helvetica">Altemmonas macleodii DSM 60627 (Y18228)</text>
    </g>
    <g>
     <circle stroke="black" stroke-width="0.5" fill="#aaffff" cx="492.0" cy="598.0" r="1.0"/>
     <text stroke="none" x="492.0" y="598.0" font-size="20.0" font-family="helvetica">Pseudomonas aeruginosa DSM 500717 (X06684)</text>
    </g>
    <line stroke="black" x1="277.0" y1="30.0" x2="270.0" y2="30.0" stroke-width="0.5"/>
    <line stroke="black" x1="256.0" y1="61.0" x2="250.0" y2="75.0" stroke-width="0.5"/>
    <line stroke="black" x1="313.0" y1="52.0" x2="269.0" y2="42.0" stroke-width="0.5"/>
    <line stroke="black" x1="243.0" y1="95.0" x2="231.0" y2="96.0" stroke-width="0.5"/>
    <line stroke="black" x1="228.0" y1="141.0" x2="206.0" y2="169.0" stroke-width="0.5"/>
    <line stroke="black" x1="213.0" y1="193.0" x2="206.0" y2="169.0" stroke-width="0.5"/>
    <line stroke="black" x1="253.0" y1="186.0" x2="246.0" y2="190.0" stroke-width="0.5"/>
    <line stroke="black" x1="181.0" y1="239.0" x2="174.0" y2="249.0" stroke-width="0.5"/>
    <line stroke="black" x1="294.0" y1="208.0" x2="246.0" y2="190.0" stroke-width="0.5"/>
    <line stroke="black" x1="143.0" y1="291.0" x2="137.0" y2="325.0" stroke-width="0.5"/>
    <line stroke="black" x1="32.0" y1="466.0" x2="27.0" y2="423.0" stroke-width="0.5"/>
    <line stroke="black" x1="93.0" y1="420.0" x2="88.0" y2="421.0" stroke-width="0.5"/>
    <line stroke="black" x1="103.0" y1="497.0" x2="64.0" y2="486.0" stroke-width="0.5"/>
    <line stroke="black" x1="270.0" y1="30.0" x2="269.0" y2="42.0" stroke-width="0.5"/>
    <line stroke="black" x1="269.0" y1="42.0" x2="250.0" y2="75.0" stroke-width="0.5"/>
    <line stroke="black" x1="250.0" y1="75.0" x2="231.0" y2="96.0" stroke-width="0.5"/>
    <line stroke="black" x1="231.0" y1="96.0" x2="248.0" y2="129.0" stroke-width="0.5"/>
    <line stroke="black" x1="231.0" y1="96.0" x2="206.0" y2="169.0" stroke-width="0.5"/>
    <line stroke="black" x1="206.0" y1="169.0" x2="246.0" y2="190.0" stroke-width="0.5"/>
    <line stroke="black" x1="206.0" y1="169.0" x2="174.0" y2="249.0" stroke-width="0.5"/>
    <line stroke="black" x1="174.0" y1="249.0" x2="137.0" y2="325.0" stroke-width="0.5"/>
    <line stroke="black" x1="137.0" y1="325.0" x2="54.0" y2="417.0" stroke-width="0.5"/>
    <line stroke="black" x1="137.0" y1="325.0" x2="216.0" y2="325.0" stroke-width="0.5"/>
    <line stroke="black" x1="54.0" y1="417.0" x2="27.0" y2="423.0" stroke-width="0.5"/>
    <line stroke="black" x1="54.0" y1="417.0" x2="64.0" y2="486.0" stroke-width="0.5"/>
    <line stroke="black" x1="27.0" y1="423.0" x2="253.0" y2="557.0" stroke-width="0.5"/>
    <line stroke="black" x1="64.0" y1="486.0" x2="88.0" y2="421.0" stroke-width="0.5"/>
    <line stroke="black" x1="492.0" y1="598.0" x2="27.0" y2="423.0" stroke-width="0.5"/>
    <line stroke="black" x1="332.0" y1="441.0" x2="88.0" y2="421.0" stroke-width="0.5"/>
    <line stroke="black" x1="339.0" y1="480.0" x2="64.0" y2="486.0" stroke-width="0.5"/>
    <line stroke="black" x1="398.0" y1="519.0" x2="64.0" y2="486.0" stroke-width="0.5"/>
    <line stroke="black" x1="306.0" y1="363.0" x2="137.0" y2="325.0" stroke-width="0.5"/>
    <line stroke="black" x1="279.0" y1="286.0" x2="174.0" y2="249.0" stroke-width="0.5"/>
    <line stroke="black" x1="286.0" y1="246.0" x2="206.0" y2="169.0" stroke-width="0.5"/>
    <line stroke="black" x1="273.0" y1="91.0" x2="250.0" y2="75.0" stroke-width="0.5"/>
    <line stroke="black" x1="330.0" y1="169.0" x2="246.0" y2="190.0" stroke-width="0.5"/>
    <line stroke="black" x1="335.0" y1="13.0" x2="270.0" y2="30.0" stroke-width="0.5"/>
    <line stroke="black" x1="423.0" y1="403.0" x2="88.0" y2="421.0" stroke-width="0.5"/>
   </g>
  </g>
 </svg>
</svg>
