<?xml version="1.0" encoding="UTF-8"?>
<svg height="800.0" width="700.0" xmlns="http://www.w3.org/2000/svg">
 <svg>
  <g>
   <g>
    <g>
     <circle stroke="black" stroke-width="0.5" fill="#aaffff" cx="951.0" cy="686.0" r="1.0"/>
     <text stroke="none" x="951.0" y="686.0" font-size="10.0" font-family="helvetica">NT1.1</text>
    </g>
    <g>
     <circle stroke="black" stroke-width="0.5" fill="#aaffff" cx="951.0" cy="1016.0" r="1.0"/>
     <text stroke="none" x="951.0" y="1016.0" font-size="10.0" font-family="helvetica">NT1.2</text>
    </g>
    <g>
     <circle stroke="black" stroke-width="0.5" fill="#aaffff" cx="1005.0" cy="1092.0" r="1.0"/>
     <text stroke="none" x="1005.0" y="1092.0" font-size="10.0" font-family="helvetica">NT1.3</text>
    </g>
    <g>
     <circle stroke="black" stroke-width="0.5" fill="#aaffff" cx="1038.0" cy="1168.0" r="1.0"/>
     <text stroke="none" x="1038.0" y="1168.0" font-size="10.0" font-family="helvetica">NT1.4</text>
    </g>
    <g>
     <circle stroke="black" stroke-width="0.5" fill="#aaffff" cx="1049.0" cy="1262.0" r="1.0"/>
     <text stroke="none" x="1049.0" y="1262.0" font-size="10.0" font-family="helvetica">NT1.5</text>
    </g>
    <g>
     <circle stroke="black" stroke-width="0.5" fill="#aaffff" cx="1063.0" cy="1194.0" r="1.0"/>
     <text stroke="none" x="1063.0" y="1194.0" font-size="10.0" font-family="helvetica">NT1.6</text>
    </g>
    <g>
     <circle stroke="black" stroke-width="0.5" fill="#aaffff" cx="1063.0" cy="1331.0" r="1.0"/>
     <text stroke="none" x="1063.0" y="1331.0" font-size="10.0" font-family="helvetica">NT1.7</text>
    </g>
    <g>
     <circle stroke="black" stroke-width="0.5" fill="#aaffff" cx="1083.0" cy="1161.0" r="1.0"/>
     <text stroke="none" x="1083.0" y="1161.0" font-size="10.0" font-family="helvetica">NT1.8</text>
    </g>
    <g>
     <circle stroke="black" stroke-width="0.5" fill="#aaffff" cx="1094.0" cy="1398.0" r="1.0"/>
     <text stroke="none" x="1094.0" y="1398.0" font-size="10.0" font-family="helvetica">NT1.9</text>
    </g>
    <g>
     <circle stroke="black" stroke-width="0.5" fill="#aaffff" cx="1110.0" cy="1433.0" r="1.0"/>
     <text stroke="none" x="1110.0" y="1433.0" font-size="10.0" font-family="helvetica">NT1.10</text>
    </g>
    <g>
     <circle stroke="black" stroke-width="0.5" fill="#aaffff" cx="1116.0" cy="501.0" r="1.0"/>
     <text stroke="none" x="1116.0" y="501.0" font-size="20.0" font-family="helvetica">100</text>
    </g>
    <g>
     <circle stroke="black" stroke-width="0.5" fill="#aaffff" cx="1116.0" cy="1019.0" r="1.0"/>
     <text stroke="none" x="1116.0" y="1019.0" font-size="10.0" font-family="helvetica">NT1.12</text>
    </g>
    <g>
     <circle stroke="black" stroke-width="0.5" fill="#aaffff" cx="1117.0" cy="865.0" r="1.0"/>
     <text stroke="none" x="1117.0" y="865.0" font-size="10.0" font-family="helvetica">NT1.13</text>
    </g>
    <g>
     <circle stroke="black" stroke-width="0.5" fill="#aaffff" cx="1118.0" cy="861.0" r="1.0"/>
     <text stroke="none" x="1118.0" y="861.0" font-size="20.0" font-family="helvetica">lc</text>
    </g>
    <g>
     <circle stroke="black" stroke-width="0.5" fill="#aaffff" cx="1118.0" cy="873.0" r="1.0"/>
     <text stroke="none" x="1118.0" y="873.0" font-size="20.0" font-family="helvetica">lc</text>
    </g>
    <g>
     <circle stroke="black" stroke-width="0.5" fill="#aaffff" cx="1119.0" cy="544.0" r="1.0"/>
     <text stroke="none" x="1119.0" y="544.0" font-size="10.0" font-family="helvetica">NT1.16</text>
    </g>
    <g>
     <circle stroke="black" stroke-width="0.5" fill="#aaffff" cx="1119.0" cy="867.0" r="1.0"/>
     <text stroke="none" x="1119.0" y="867.0" font-size="10.0" font-family="helvetica">NT1.17</text>
    </g>
    <g>
     <circle stroke="black" stroke-width="0.5" fill="#aaffff" cx="1122.0" cy="924.0" r="1.0"/>
     <text stroke="none" x="1122.0" y="924.0" font-size="20.0" font-family="helvetica">Hydrogenovibrio marinus JCM 76887 (D28135)</text>
    </g>
    <g>
     <circle stroke="black" stroke-width="0.5" fill="#aaffff" cx="1122.0" cy="943.0" r="1.0"/>
     <text stroke="none" x="1122.0" y="943.0" font-size="20.0" font-family="helvetica">100</text>
    </g>
    <g>
     <circle stroke="black" stroke-width="0.5" fill="#aaffff" cx="1125.0" cy="409.0" r="1.0"/>
     <text stroke="none" x="1125.0" y="409.0" font-size="10.0" font-family="helvetica">NT1.20</text>
    </g>
    <g>
     <circle stroke="black" stroke-width="0.5" fill="#aaffff" cx="1127.0" cy="1415.0" r="1.0"/>
     <text stroke="none" x="1127.0" y="1415.0" font-size="20.0" font-family="helvetica">Thiobacillus denitrmcans ATCC 252597 (L37437)</text>
    </g>
    <g>
     <circle stroke="black" stroke-width="0.5" fill="#aaffff" cx="1130.0" cy="867.0" r="1.0"/>
     <text stroke="none" x="1130.0" y="867.0" font-size="20.0" font-family="helvetica">lc</text>
    </g>
    <g>
     <circle stroke="black" stroke-width="0.5" fill="#aaffff" cx="1139.0" cy="346.0" r="1.0"/>
     <text stroke="none" x="1139.0" y="346.0" font-size="10.0" font-family="helvetica">NT1.23</text>
    </g>
    <g>
     <circle stroke="black" stroke-width="0.5" fill="#aaffff" cx="1139.0" cy="1481.0" r="1.0"/>
     <text stroke="none" x="1139.0" y="1481.0" font-size="10.0" font-family="helvetica">NT1.24</text>
    </g>
    <g>
     <circle stroke="black" stroke-width="0.5" fill="#aaffff" cx="1141.0" cy="961.0" r="1.0"/>
     <text stroke="none" x="1141.0" y="961.0" font-size="20.0" font-family="helvetica">Thiomicrospira kuenenii JB-A17 (DQ272537)</text>
    </g>
    <g>
     <circle stroke="black" stroke-width="0.5" fill="#aaffff" cx="1144.0" cy="677.0" r="1.0"/>
     <text stroke="none" x="1144.0" y="677.0" font-size="10.0" font-family="helvetica">NT1.26</text>
    </g>
    <g>
     <circle stroke="black" stroke-width="0.5" fill="#aaffff" cx="1145.0" cy="1509.0" r="1.0"/>
     <text stroke="none" x="1145.0" y="1509.0" font-size="10.0" font-family="helvetica">NT1.27</text>
    </g>
    <g>
     <circle stroke="black" stroke-width="0.5" fill="#aaffff" cx="1147.0" cy="259.0" r="1.0"/>
     <text stroke="none" x="1147.0" y="259.0" font-size="10.0" font-family="helvetica">NT1.28</text>
    </g>
    <g>
     <circle stroke="black" stroke-width="0.5" fill="#aaffff" cx="1150.0" cy="627.0" r="1.0"/>
     <text stroke="none" x="1150.0" y="627.0" font-size="10.0" font-family="helvetica">NT1.29</text>
    </g>
    <g>
     <circle stroke="black" stroke-width="0.5" fill="#aaffff" cx="1150.0" cy="1351.0" r="1.0"/>
     <text stroke="none" x="1150.0" y="1351.0" font-size="10.0" font-family="helvetica">NT1.30</text>
    </g>
    <g>
     <circle stroke="black" stroke-width="0.5" fill="#aaffff" cx="1153.0" cy="1132.0" r="1.0"/>
     <text stroke="none" x="1153.0" y="1132.0" font-size="20.0" font-family="helvetica">99</text>
    </g>
    <g>
     <circle stroke="black" stroke-width="0.5" fill="#aaffff" cx="1154.0" cy="1111.0" r="1.0"/>
     <text stroke="none" x="1154.0" y="1111.0" font-size="20.0" font-family="helvetica">Rhodobacter capsulatus ATCC 111667 (U23145)</text>
    </g>
    <g>
     <circle stroke="black" stroke-width="0.5" fill="#aaffff" cx="1155.0" cy="1226.0" r="1.0"/>
     <text stroke="none" x="1155.0" y="1226.0" font-size="20.0" font-family="helvetica">Rhodopseudomonas palustris DH1 (AY155466)</text>
    </g>
    <g>
     <circle stroke="black" stroke-width="0.5" fill="#aaffff" cx="1157.0" cy="999.0" r="1.0"/>
     <text stroke="none" x="1157.0" y="999.0" font-size="20.0" font-family="helvetica">Nuclear gene of dinoflagellate Gonyaulax polyedra (L41063)</text>
    </g>
    <g>
     <circle stroke="black" stroke-width="0.5" fill="#aaffff" cx="1157.0" cy="1188.0" r="1.0"/>
     <text stroke="none" x="1157.0" y="1188.0" font-size="20.0" font-family="helvetica">Rhadaspfrillum rubrum (K01999)</text>
    </g>
    <g>
     <circle stroke="black" stroke-width="0.5" fill="#aaffff" cx="1160.0" cy="190.0" r="1.0"/>
     <text stroke="none" x="1160.0" y="190.0" font-size="10.0" font-family="helvetica">NT1.36</text>
    </g>
    <g>
     <circle stroke="black" stroke-width="0.5" fill="#aaffff" cx="1161.0" cy="1074.0" r="1.0"/>
     <text stroke="none" x="1161.0" y="1074.0" font-size="20.0" font-family="helvetica">Magnetospirillum magnetotacticum MS-17 (AF442517)</text>
    </g>
    <g>
     <circle stroke="black" stroke-width="0.5" fill="#aaffff" cx="1163.0" cy="468.0" r="1.0"/>
     <text stroke="none" x="1163.0" y="468.0" font-size="20.0" font-family="helvetica">Thioalkalispira microaerophila ALEN 17 (AY450586)</text>
    </g>
    <g>
     <circle stroke="black" stroke-width="0.5" fill="#aaffff" cx="1163.0" cy="1377.0" r="1.0"/>
     <text stroke="none" x="1163.0" y="1377.0" font-size="20.0" font-family="helvetica">Thiomicrospira halophila HL 57 (DQ390453)</text>
    </g>
    <g>
     <circle stroke="black" stroke-width="0.5" fill="#aaffff" cx="1167.0" cy="593.0" r="1.0"/>
     <text stroke="none" x="1167.0" y="593.0" font-size="20.0" font-family="helvetica">97</text>
    </g>
    <g>
     <circle stroke="black" stroke-width="0.5" fill="#aaffff" cx="1170.0" cy="581.0" r="1.0"/>
     <text stroke="none" x="1170.0" y="581.0" font-size="20.0" font-family="helvetica">97</text>
    </g>
    <g>
     <circle stroke="black" stroke-width="0.5" fill="#aaffff" cx="1171.0" cy="132.0" r="1.0"/>
     <text stroke="none" x="1171.0" y="132.0" font-size="10.0" font-family="helvetica">NT1.42</text>
    </g>
    <g>
     <circle stroke="black" stroke-width="0.5" fill="#aaffff" cx="1173.0" cy="1322.0" r="1.0"/>
     <text stroke="none" x="1173.0" y="1322.0" font-size="20.0" font-family="helvetica">84</text>
    </g>
    <g>
     <circle stroke="black" stroke-width="0.5" fill="#aaffff" cx="1174.0" cy="126.0" r="1.0"/>
     <text stroke="none" x="1174.0" y="126.0" font-size="10.0" font-family="helvetica">NT1.44</text>
    </g>
    <g>
     <circle stroke="black" stroke-width="0.5" fill="#aaffff" cx="1175.0" cy="582.0" r="1.0"/>
     <text stroke="none" x="1175.0" y="582.0" font-size="20.0" font-family="helvetica">Thiomicrospira kuenenii JB-A17 (DQ272532)</text>
    </g>
    <g>
     <circle stroke="black" stroke-width="0.5" fill="#aaffff" cx="1175.0" cy="620.0" r="1.0"/>
     <text stroke="none" x="1175.0" y="620.0" font-size="20.0" font-family="helvetica"/>
    </g>
    <g>
     <circle stroke="black" stroke-width="0.5" fill="#aaffff" cx="1175.0" cy="1264.0" r="1.0"/>
     <text stroke="none" x="1175.0" y="1264.0" font-size="20.0" font-family="helvetica">Endosymbiont of Riftia pachyptfla (AF047688)</text>
    </g>
    <g>
     <circle stroke="black" stroke-width="0.5" fill="#aaffff" cx="1175.0" cy="1453.0" r="1.0"/>
     <text stroke="none" x="1175.0" y="1453.0" font-size="20.0" font-family="helvetica">Acidithiobacillus ferrooxidans ATCC 232707 (www.tigr.org)</text>
    </g>
    <g>
     <circle stroke="black" stroke-width="0.5" fill="#aaffff" cx="1175.0" cy="728.0" r="1.0"/>
     <text stroke="none" x="1175.0" y="728.0" font-size="10.0" font-family="helvetica">NT1.49</text>
    </g>
    <g>
     <circle stroke="black" stroke-width="0.5" fill="#aaffff" cx="1178.0" cy="544.0" r="1.0"/>
     <text stroke="none" x="1178.0" y="544.0" font-size="20.0" font-family="helvetica">Thiomicrospira crunogena ATCC 359327 (DQ272533)</text>
    </g>
    <g>
     <circle stroke="black" stroke-width="0.5" fill="#aaffff" cx="1182.0" cy="1491.0" r="1.0"/>
     <text stroke="none" x="1182.0" y="1491.0" font-size="20.0" font-family="helvetica">Thiornonas intermedia K12 (AF012127)</text>
    </g>
    <g>
     <circle stroke="black" stroke-width="0.5" fill="#aaffff" cx="1183.0" cy="809.0" r="1.0"/>
     <text stroke="none" x="1183.0" y="809.0" font-size="20.0" font-family="helvetica">Thioalkalimicrobium aerophilum AL 37 (DQ272527)</text>
    </g>
    <g>
     <circle stroke="black" stroke-width="0.5" fill="#aaffff" cx="1183.0" cy="767.0" r="1.0"/>
     <text stroke="none" x="1183.0" y="767.0" font-size="10.0" font-family="helvetica">NT1.53</text>
    </g>
    <g>
     <circle stroke="black" stroke-width="0.5" fill="#aaffff" cx="1184.0" cy="658.0" r="1.0"/>
     <text stroke="none" x="1184.0" y="658.0" font-size="20.0" font-family="helvetica">Thiomicraspira halaphila HL 57 (DQ390452)</text>
    </g>
    <g>
     <circle stroke="black" stroke-width="0.5" fill="#aaffff" cx="1184.0" cy="733.0" r="1.0"/>
     <text stroke="none" x="1184.0" y="733.0" font-size="20.0" font-family="helvetica">Thioalkalimicrobium sibiricum AL 77 (DQ272529)</text>
    </g>
    <g>
     <circle stroke="black" stroke-width="0.5" fill="#aaffff" cx="1186.0" cy="1150.0" r="1.0"/>
     <text stroke="none" x="1186.0" y="1150.0" font-size="20.0" font-family="helvetica">Rhodobacter sphaeraides 2.4.17 (CPOOO144)</text>
    </g>
    <g>
     <circle stroke="black" stroke-width="0.5" fill="#aaffff" cx="1188.0" cy="695.0" r="1.0"/>
     <text stroke="none" x="1188.0" y="695.0" font-size="20.0" font-family="helvetica">Thiomicrospira pelophila DSM 1534' (DQ272530)</text>
    </g>
    <g>
     <circle stroke="black" stroke-width="0.5" fill="#aaffff" cx="1189.0" cy="63.0" r="1.0"/>
     <text stroke="none" x="1189.0" y="63.0" font-size="10.0" font-family="helvetica">NT1.58</text>
    </g>
    <g>
     <circle stroke="black" stroke-width="0.5" fill="#aaffff" cx="1190.0" cy="204.0" r="1.0"/>
     <text stroke="none" x="1190.0" y="204.0" font-size="20.0" font-family="helvetica">Thioalkalivibrio Versutus AL 27 (AY914BOO)</text>
    </g>
    <g>
     <circle stroke="black" stroke-width="0.5" fill="#aaffff" cx="1192.0" cy="241.0" r="1.0"/>
     <text stroke="none" x="1192.0" y="241.0" font-size="20.0" font-family="helvetica">Halothiobacillus neapolitanus ATCC 236417 (AFO38430)</text>
    </g>
    <g>
     <circle stroke="black" stroke-width="0.5" fill="#aaffff" cx="1192.0" cy="506.0" r="1.0"/>
     <text stroke="none" x="1192.0" y="506.0" font-size="20.0" font-family="helvetica">Allochromatium vinosum ATCC 178997 cbbL-2 (D90204)</text>
    </g>
    <g>
     <circle stroke="black" stroke-width="0.5" fill="#aaffff" cx="1194.0" cy="772.0" r="1.0"/>
     <text stroke="none" x="1194.0" y="772.0" font-size="20.0" font-family="helvetica">Thioalkalimicrobium cyclicum ALM 17 (DQ272528)</text>
    </g>
    <g>
     <circle stroke="black" stroke-width="0.5" fill="#aaffff" cx="1199.0" cy="311.0" r="1.0"/>
     <text stroke="none" x="1199.0" y="311.0" font-size="10.0" font-family="helvetica">NT1.63</text>
    </g>
    <g>
     <circle stroke="black" stroke-width="0.5" fill="#aaffff" cx="1203.0" cy="1301.0" r="1.0"/>
     <text stroke="none" x="1203.0" y="1301.0" font-size="20.0" font-family="helvetica">Thiomicrospira crunogena ATCC 359327 (DQ272535)</text>
    </g>
    <g>
     <circle stroke="black" stroke-width="0.5" fill="#aaffff" cx="1206.0" cy="1529.0" r="1.0"/>
     <text stroke="none" x="1206.0" y="1529.0" font-size="20.0" font-family="helvetica">Halothiobacillus neapolitanus ATCC 236417 (AF046932)</text>
    </g>
    <g>
     <circle stroke="black" stroke-width="0.5" fill="#aaffff" cx="1210.0" cy="127.0" r="1.0"/>
     <text stroke="none" x="1210.0" y="127.0" font-size="20.0" font-family="helvetica">Thiomonas intermedia K12 (AFO46933)</text>
    </g>
    <g>
     <circle stroke="black" stroke-width="0.5" fill="#aaffff" cx="1212.0" cy="166.0" r="1.0"/>
     <text stroke="none" x="1212.0" y="166.0" font-size="20.0" font-family="helvetica">Eclothiorhodospira shaposhnikovii DSM 2437 (AY450587)</text>
    </g>
    <g>
     <circle stroke="black" stroke-width="0.5" fill="#aaffff" cx="1212.0" cy="1037.0" r="1.0"/>
     <text stroke="none" x="1212.0" y="1037.0" font-size="20.0" font-family="helvetica">Nuclear gene for chloroplast isozyme of Symbiodinium sp. (AF298221)</text>
    </g>
    <g>
     <circle stroke="black" stroke-width="0.5" fill="#aaffff" cx="1213.0" cy="34.0" r="1.0"/>
     <text stroke="none" x="1213.0" y="34.0" font-size="20.0" font-family="helvetica">100</text>
    </g>
    <g>
     <circle stroke="black" stroke-width="0.5" fill="#aaffff" cx="1213.0" cy="345.0" r="1.0"/>
     <text stroke="none" x="1213.0" y="345.0" font-size="10.0" font-family="helvetica">NT1.70</text>
    </g>
    <g>
     <circle stroke="black" stroke-width="0.5" fill="#aaffff" cx="1214.0" cy="431.0" r="1.0"/>
     <text stroke="none" x="1214.0" y="431.0" font-size="20.0" font-family="helvetica">Aciclfthiobacillus ferrooxidans ATCC 232707 cbbL-1 (AF129925)</text>
    </g>
    <g>
     <circle stroke="black" stroke-width="0.5" fill="#aaffff" cx="1224.0" cy="90.0" r="1.0"/>
     <text stroke="none" x="1224.0" y="90.0" font-size="20.0" font-family="helvetica">Allochromatium vinosum ATCC 178997 cbbL-1 (M26396)</text>
    </g>
    <g>
     <circle stroke="black" stroke-width="0.5" fill="#aaffff" cx="1226.0" cy="53.0" r="1.0"/>
     <text stroke="none" x="1226.0" y="53.0" font-size="20.0" font-family="helvetica">Acidithiabacillus ferrooxidans ATCC 232707 cbbL-2 (AF307091)</text>
    </g>
    <g>
     <circle stroke="black" stroke-width="0.5" fill="#aaffff" cx="1226.0" cy="279.0" r="1.0"/>
     <text stroke="none" x="1226.0" y="279.0" font-size="20.0" font-family="helvetica">Thiomicrospira halophila HL 57 (DQ390451)</text>
    </g>
    <g>
     <circle stroke="black" stroke-width="0.5" fill="#aaffff" cx="1228.0" cy="14.0" r="1.0"/>
     <text stroke="none" x="1228.0" y="14.0" font-size="20.0" font-family="helvetica">Thiobacillus denitrificans ATCC 252597 (L42940)</text>
    </g>
    <g>
     <circle stroke="black" stroke-width="0.5" fill="#aaffff" cx="1235.0" cy="372.0" r="1.0"/>
     <text stroke="none" x="1235.0" y="372.0" font-size="20.0" font-family="helvetica">100</text>
    </g>
    <g>
     <circle stroke="black" stroke-width="0.5" fill="#aaffff" cx="1236.0" cy="317.0" r="1.0"/>
     <text stroke="none" x="1236.0" y="317.0" font-size="20.0" font-family="helvetica">Thiomicrospira crunogena ATCC 359327 (DQ272534)</text>
    </g>
    <g>
     <circle stroke="black" stroke-width="0.5" fill="#aaffff" cx="1236.0" cy="1340.0" r="1.0"/>
     <text stroke="none" x="1236.0" y="1340.0" font-size="20.0" font-family="helvetica">Thiomicrospira pelophila DSM 15347 (DQ272536)</text>
    </g>
    <g>
     <circle stroke="black" stroke-width="0.5" fill="#aaffff" cx="1244.0" cy="355.0" r="1.0"/>
     <text stroke="none" x="1244.0" y="355.0" font-size="20.0" font-family="helvetica">Thiomfcrosprra kuenenii JB-A17 (DQ272531)</text>
    </g>
    <g>
     <circle stroke="black" stroke-width="0.5" fill="#aaffff" cx="1277.0" cy="393.0" r="1.0"/>
     <text stroke="none" x="1277.0" y="393.0" font-size="20.0" font-family="helvetica">Hydrogenovibrio marinus JCM 76887 (D43621)</text>
    </g>
    <line stroke="black" x1="1210.0" y1="127.0" x2="1174.0" y2="126.0" stroke-width="0.5"/>
    <line stroke="black" x1="1236.0" y1="317.0" x2="1213.0" y2="345.0" stroke-width="0.5"/>
    <line stroke="black" x1="1244.0" y1="355.0" x2="1235.0" y2="372.0" stroke-width="0.5"/>
    <line stroke="black" x1="1214.0" y1="431.0" x2="1139.0" y2="346.0" stroke-width="0.5"/>
    <line stroke="black" x1="1175.0" y1="582.0" x2="1170.0" y2="581.0" stroke-width="0.5"/>
    <line stroke="black" x1="1184.0" y1="658.0" x2="1150.0" y2="627.0" stroke-width="0.5"/>
    <line stroke="black" x1="1194.0" y1="772.0" x2="1183.0" y2="767.0" stroke-width="0.5"/>
    <line stroke="black" x1="1184.0" y1="733.0" x2="1183.0" y2="767.0" stroke-width="0.5"/>
    <line stroke="black" x1="1183.0" y1="809.0" x2="1183.0" y2="767.0" stroke-width="0.5"/>
    <line stroke="black" x1="1118.0" y1="861.0" x2="1117.0" y2="865.0" stroke-width="0.5"/>
    <line stroke="black" x1="1118.0" y1="873.0" x2="1119.0" y2="867.0" stroke-width="0.5"/>
    <line stroke="black" x1="1130.0" y1="867.0" x2="1119.0" y2="867.0" stroke-width="0.5"/>
    <line stroke="black" x1="1122.0" y1="924.0" x2="1122.0" y2="943.0" stroke-width="0.5"/>
    <line stroke="black" x1="1141.0" y1="961.0" x2="1122.0" y2="943.0" stroke-width="0.5"/>
    <line stroke="black" x1="1157.0" y1="999.0" x2="1116.0" y2="1019.0" stroke-width="0.5"/>
    <line stroke="black" x1="1161.0" y1="1074.0" x2="1038.0" y2="1168.0" stroke-width="0.5"/>
    <line stroke="black" x1="1157.0" y1="1188.0" x2="1083.0" y2="1161.0" stroke-width="0.5"/>
    <line stroke="black" x1="1154.0" y1="1111.0" x2="1153.0" y2="1132.0" stroke-width="0.5"/>
    <line stroke="black" x1="1186.0" y1="1150.0" x2="1153.0" y2="1132.0" stroke-width="0.5"/>
    <line stroke="black" x1="1175.0" y1="1453.0" x2="1139.0" y2="1481.0" stroke-width="0.5"/>
    <line stroke="black" x1="1203.0" y1="1301.0" x2="1173.0" y2="1322.0" stroke-width="0.5"/>
    <line stroke="black" x1="1182.0" y1="1491.0" x2="1145.0" y2="1509.0" stroke-width="0.5"/>
    <line stroke="black" x1="1213.0" y1="34.0" x2="1189.0" y2="63.0" stroke-width="0.5"/>
    <line stroke="black" x1="1189.0" y1="63.0" x2="1174.0" y2="126.0" stroke-width="0.5"/>
    <line stroke="black" x1="1174.0" y1="126.0" x2="1171.0" y2="132.0" stroke-width="0.5"/>
    <line stroke="black" x1="1171.0" y1="132.0" x2="1160.0" y2="190.0" stroke-width="0.5"/>
    <line stroke="black" x1="1160.0" y1="190.0" x2="1160.0" y2="190.0" stroke-width="0.5"/>
    <line stroke="black" x1="1160.0" y1="190.0" x2="1147.0" y2="259.0" stroke-width="0.5"/>
    <line stroke="black" x1="1147.0" y1="259.0" x2="1199.0" y2="311.0" stroke-width="0.5"/>
    <line stroke="black" x1="1147.0" y1="259.0" x2="1139.0" y2="346.0" stroke-width="0.5"/>
    <line stroke="black" x1="1139.0" y1="346.0" x2="1125.0" y2="409.0" stroke-width="0.5"/>
    <line stroke="black" x1="1199.0" y1="311.0" x2="1213.0" y2="345.0" stroke-width="0.5"/>
    <line stroke="black" x1="1213.0" y1="345.0" x2="1235.0" y2="372.0" stroke-width="0.5"/>
    <line stroke="black" x1="1125.0" y1="409.0" x2="1116.0" y2="501.0" stroke-width="0.5"/>
    <line stroke="black" x1="1116.0" y1="501.0" x2="951.0" y2="686.0" stroke-width="0.5"/>
    <line stroke="black" x1="1116.0" y1="501.0" x2="1119.0" y2="544.0" stroke-width="0.5"/>
    <line stroke="black" x1="1119.0" y1="544.0" x2="1119.0" y2="544.0" stroke-width="0.5"/>
    <line stroke="black" x1="1119.0" y1="544.0" x2="1144.0" y2="677.0" stroke-width="0.5"/>
    <line stroke="black" x1="1144.0" y1="677.0" x2="1175.0" y2="728.0" stroke-width="0.5"/>
    <line stroke="black" x1="1144.0" y1="677.0" x2="1150.0" y2="627.0" stroke-width="0.5"/>
    <line stroke="black" x1="1150.0" y1="627.0" x2="1167.0" y2="593.0" stroke-width="0.5"/>
    <line stroke="black" x1="1175.0" y1="728.0" x2="1183.0" y2="767.0" stroke-width="0.5"/>
    <line stroke="black" x1="1167.0" y1="593.0" x2="1170.0" y2="581.0" stroke-width="0.5"/>
    <line stroke="black" x1="951.0" y1="686.0" x2="1117.0" y2="865.0" stroke-width="0.5"/>
    <line stroke="black" x1="1119.0" y1="867.0" x2="1117.0" y2="865.0" stroke-width="0.5"/>
    <line stroke="black" x1="951.0" y1="1016.0" x2="1005.0" y2="1092.0" stroke-width="0.5"/>
    <line stroke="black" x1="951.0" y1="1016.0" x2="1122.0" y2="943.0" stroke-width="0.5"/>
    <line stroke="black" x1="1005.0" y1="1092.0" x2="1038.0" y2="1168.0" stroke-width="0.5"/>
    <line stroke="black" x1="1005.0" y1="1092.0" x2="1116.0" y2="1019.0" stroke-width="0.5"/>
    <line stroke="black" x1="1038.0" y1="1168.0" x2="1049.0" y2="1262.0" stroke-width="0.5"/>
    <line stroke="black" x1="1049.0" y1="1262.0" x2="1063.0" y2="1331.0" stroke-width="0.5"/>
    <line stroke="black" x1="1049.0" y1="1262.0" x2="1063.0" y2="1194.0" stroke-width="0.5"/>
    <line stroke="black" x1="1063.0" y1="1194.0" x2="1083.0" y2="1161.0" stroke-width="0.5"/>
    <line stroke="black" x1="1063.0" y1="1331.0" x2="1094.0" y2="1398.0" stroke-width="0.5"/>
    <line stroke="black" x1="1083.0" y1="1161.0" x2="1153.0" y2="1132.0" stroke-width="0.5"/>
    <line stroke="black" x1="1094.0" y1="1398.0" x2="1110.0" y2="1433.0" stroke-width="0.5"/>
    <line stroke="black" x1="1094.0" y1="1398.0" x2="1150.0" y2="1351.0" stroke-width="0.5"/>
    <line stroke="black" x1="1110.0" y1="1433.0" x2="1139.0" y2="1481.0" stroke-width="0.5"/>
    <line stroke="black" x1="1150.0" y1="1351.0" x2="1173.0" y2="1322.0" stroke-width="0.5"/>
    <line stroke="black" x1="1139.0" y1="1481.0" x2="1145.0" y2="1509.0" stroke-width="0.5"/>
    <line stroke="black" x1="951.0" y1="686.0" x2="951.0" y2="1016.0" stroke-width="0.5"/>
    <line stroke="black" x1="1175.0" y1="1264.0" x2="1063.0" y2="1331.0" stroke-width="0.5"/>
    <line stroke="black" x1="1155.0" y1="1226.0" x2="1063.0" y2="1194.0" stroke-width="0.5"/>
    <line stroke="black" x1="1127.0" y1="1415.0" x2="1110.0" y2="1433.0" stroke-width="0.5"/>
    <line stroke="black" x1="1163.0" y1="468.0" x2="1125.0" y2="409.0" stroke-width="0.5"/>
    <line stroke="black" x1="1192.0" y1="506.0" x2="1119.0" y2="544.0" stroke-width="0.5"/>
    <line stroke="black" x1="1212.0" y1="1037.0" x2="1116.0" y2="1019.0" stroke-width="0.5"/>
    <line stroke="black" x1="1163.0" y1="1377.0" x2="1150.0" y2="1351.0" stroke-width="0.5"/>
    <line stroke="black" x1="1206.0" y1="1529.0" x2="1145.0" y2="1509.0" stroke-width="0.5"/>
    <line stroke="black" x1="1192.0" y1="241.0" x2="1160.0" y2="190.0" stroke-width="0.5"/>
    <line stroke="black" x1="1175.0" y1="620.0" x2="1167.0" y2="593.0" stroke-width="0.5"/>
    <line stroke="black" x1="1190.0" y1="204.0" x2="1160.0" y2="190.0" stroke-width="0.5"/>
    <line stroke="black" x1="1178.0" y1="544.0" x2="1170.0" y2="581.0" stroke-width="0.5"/>
    <line stroke="black" x1="1188.0" y1="695.0" x2="1175.0" y2="728.0" stroke-width="0.5"/>
    <line stroke="black" x1="1212.0" y1="166.0" x2="1171.0" y2="132.0" stroke-width="0.5"/>
    <line stroke="black" x1="1236.0" y1="1340.0" x2="1173.0" y2="1322.0" stroke-width="0.5"/>
    <line stroke="black" x1="1224.0" y1="90.0" x2="1189.0" y2="63.0" stroke-width="0.5"/>
    <line stroke="black" x1="1226.0" y1="279.0" x2="1199.0" y2="311.0" stroke-width="0.5"/>
    <line stroke="black" x1="1226.0" y1="53.0" x2="1213.0" y2="34.0" stroke-width="0.5"/>
    <line stroke="black" x1="1228.0" y1="14.0" x2="1213.0" y2="34.0" stroke-width="0.5"/>
    <line stroke="black" x1="1277.0" y1="393.0" x2="1235.0" y2="372.0" stroke-width="0.5"/>
   </g>
  </g>
 </svg>
</svg>
