<?xml version="1.0" encoding="UTF-8"?>
<svg height="800.0" width="700.0" xmlns="http://www.w3.org/2000/svg">
 <svg>
  <g>
   <g>
    <g>
     <circle stroke="black" stroke-width="0.5" fill="#aaffff" cx="125.0" cy="76.0" r="1.0"/>
     <text stroke="none" x="125.0" y="76.0" font-size="10.0" font-family="helvetica">NT1.1</text>
    </g>
    <g>
     <circle stroke="black" stroke-width="0.5" fill="#aaffff" cx="140.0" cy="141.0" r="1.0"/>
     <text stroke="none" x="140.0" y="141.0" font-size="10.0" font-family="helvetica">NT1.2</text>
    </g>
    <g>
     <circle stroke="black" stroke-width="0.5" fill="#aaffff" cx="154.0" cy="220.0" r="1.0"/>
     <text stroke="none" x="154.0" y="220.0" font-size="20.0" font-family="helvetica">49</text>
    </g>
    <g>
     <circle stroke="black" stroke-width="0.5" fill="#aaffff" cx="172.0" cy="322.0" r="1.0"/>
     <text stroke="none" x="172.0" y="322.0" font-size="20.0" font-family="helvetica">81</text>
    </g>
    <g>
     <circle stroke="black" stroke-width="0.5" fill="#aaffff" cx="174.0" cy="324.0" r="1.0"/>
     <text stroke="none" x="174.0" y="324.0" font-size="20.0" font-family="helvetica">81</text>
    </g>
    <g>
     <circle stroke="black" stroke-width="0.5" fill="#aaffff" cx="179.0" cy="324.0" r="1.0"/>
     <text stroke="none" x="179.0" y="324.0" font-size="20.0" font-family="helvetica">Eosyntrophomonas curvata GB8-1T (AY290767)</text>
    </g>
    <g>
     <circle stroke="black" stroke-width="0.5" fill="#aaffff" cx="183.0" cy="408.0" r="1.0"/>
     <text stroke="none" x="183.0" y="408.0" font-size="20.0" font-family="helvetica">51</text>
    </g>
    <g>
     <circle stroke="black" stroke-width="0.5" fill="#aaffff" cx="184.0" cy="236.0" r="1.0"/>
     <text stroke="none" x="184.0" y="236.0" font-size="10.0" font-family="helvetica">NT1.8</text>
    </g>
    <g>
     <circle stroke="black" stroke-width="0.5" fill="#aaffff" cx="186.0" cy="238.0" r="1.0"/>
     <text stroke="none" x="186.0" y="238.0" font-size="10.0" font-family="helvetica">NT1.9</text>
    </g>
    <g>
     <circle stroke="black" stroke-width="0.5" fill="#aaffff" cx="190.0" cy="238.0" r="1.0"/>
     <text stroke="none" x="190.0" y="238.0" font-size="20.0" font-family="helvetica">55</text>
    </g>
    <g>
     <circle stroke="black" stroke-width="0.5" fill="#aaffff" cx="191.0" cy="199.0" r="1.0"/>
     <text stroke="none" x="191.0" y="199.0" font-size="20.0" font-family="helvetica">66</text>
    </g>
    <g>
     <circle stroke="black" stroke-width="0.5" fill="#aaffff" cx="193.0" cy="196.0" r="1.0"/>
     <text stroke="none" x="193.0" y="196.0" font-size="20.0" font-family="helvetica">66</text>
    </g>
    <g>
     <circle stroke="black" stroke-width="0.5" fill="#aaffff" cx="198.0" cy="196.0" r="1.0"/>
     <text stroke="none" x="198.0" y="196.0" font-size="20.0" font-family="helvetica"/>
    </g>
    <g>
     <circle stroke="black" stroke-width="0.5" fill="#aaffff" cx="221.0" cy="356.0" r="1.0"/>
     <text stroke="none" x="221.0" y="356.0" font-size="10.0" font-family="helvetica">NT1.14</text>
    </g>
    <g>
     <circle stroke="black" stroke-width="0.5" fill="#aaffff" cx="223.0" cy="354.0" r="1.0"/>
     <text stroke="none" x="223.0" y="354.0" font-size="10.0" font-family="helvetica">NT1.15</text>
    </g>
    <g>
     <circle stroke="black" stroke-width="0.5" fill="#aaffff" cx="228.0" cy="354.0" r="1.0"/>
     <text stroke="none" x="228.0" y="354.0" font-size="20.0" font-family="helvetica"/>
    </g>
    <g>
     <circle stroke="black" stroke-width="0.5" fill="#aaffff" cx="252.0" cy="461.0" r="1.0"/>
     <text stroke="none" x="252.0" y="461.0" font-size="20.0" font-family="helvetica">100</text>
    </g>
    <g>
     <circle stroke="black" stroke-width="0.5" fill="#aaffff" cx="258.0" cy="461.0" r="1.0"/>
     <text stroke="none" x="258.0" y="461.0" font-size="20.0" font-family="helvetica"/>
    </g>
    <g>
     <circle stroke="black" stroke-width="0.5" fill="#aaffff" cx="263.0" cy="12.0" r="1.0"/>
     <text stroke="none" x="263.0" y="12.0" font-size="20.0" font-family="helvetica">Syntrophothermus Iipooalidus TGB-C17 (AB021305)</text>
    </g>
    <g>
     <circle stroke="black" stroke-width="0.5" fill="#aaffff" cx="263.0" cy="62.0" r="1.0"/>
     <text stroke="none" x="263.0" y="62.0" font-size="20.0" font-family="helvetica"> Pelospora glutarica WoGI3T (AJ251214)</text>
    </g>
    <g>
     <circle stroke="black" stroke-width="0.5" fill="#aaffff" cx="263.0" cy="117.0" r="1.0"/>
     <text stroke="none" x="263.0" y="117.0" font-size="20.0" font-family="helvetica"> Thermosyntropha lipolytica JWIVS-265T (X99980)</text>
    </g>
    <g>
     <circle stroke="black" stroke-width="0.5" fill="#aaffff" cx="263.0" cy="223.0" r="1.0"/>
     <text stroke="none" x="263.0" y="223.0" font-size="20.0" font-family="helvetica">Syntrophomonas cellicola 19J-37 (DQ288691)</text>
    </g>
    <g>
     <circle stroke="black" stroke-width="0.5" fill="#aaffff" cx="263.0" cy="169.0" r="1.0"/>
     <text stroke="none" x="263.0" y="169.0" font-size="20.0" font-family="helvetica">Syntrophospora bryantii DSM 3943 (M26491)</text>
    </g>
    <g>
     <circle stroke="black" stroke-width="0.5" fill="#aaffff" cx="263.0" cy="382.0" r="1.0"/>
     <text stroke="none" x="263.0" y="382.0" font-size="20.0" font-family="helvetica"> Syntrophomonas sapovorans DSM 3441T (AFO22249)</text>
    </g>
    <g>
     <circle stroke="black" stroke-width="0.5" fill="#aaffff" cx="263.0" cy="328.0" r="1.0"/>
     <text stroke="none" x="263.0" y="328.0" font-size="20.0" font-family="helvetica"/>
    </g>
    <g>
     <circle stroke="black" stroke-width="0.5" fill="#aaffff" cx="264.0" cy="276.0" r="1.0"/>
     <text stroke="none" x="264.0" y="276.0" font-size="20.0" font-family="helvetica">Syntrophomonas wolfei subsp. wolfei DSM 2245T (M26492)</text>
    </g>
    <g>
     <circle stroke="black" stroke-width="0.5" fill="#aaffff" cx="264.0" cy="435.0" r="1.0"/>
     <text stroke="none" x="264.0" y="435.0" font-size="20.0" font-family="helvetica">(Syntrophomonas erecta subsp. sporosyntropha' 5-3-Z (DQ086234)</text>
    </g>
    <g>
     <circle stroke="black" stroke-width="0.5" fill="#aaffff" cx="264.0" cy="489.0" r="1.0"/>
     <text stroke="none" x="264.0" y="489.0" font-size="20.0" font-family="helvetica">Syntrophomonas erecta GB4-387 (AY536889)</text>
    </g>
    <g>
     <circle stroke="black" stroke-width="0.5" fill="#aaffff" cx="264.0" cy="541.0" r="1.0"/>
     <text stroke="none" x="264.0" y="541.0" font-size="20.0" font-family="helvetica">Clostridium butyricum ATCC 43755T (X68176)</text>
    </g>
    <line stroke="black" x1="263.0" y1="12.0" x2="125.0" y2="76.0" stroke-width="0.5"/>
    <line stroke="black" x1="263.0" y1="62.0" x2="140.0" y2="141.0" stroke-width="0.5"/>
    <line stroke="black" x1="179.0" y1="324.0" x2="174.0" y2="324.0" stroke-width="0.5"/>
    <line stroke="black" x1="190.0" y1="238.0" x2="186.0" y2="238.0" stroke-width="0.5"/>
    <line stroke="black" x1="198.0" y1="196.0" x2="193.0" y2="196.0" stroke-width="0.5"/>
    <line stroke="black" x1="228.0" y1="354.0" x2="223.0" y2="354.0" stroke-width="0.5"/>
    <line stroke="black" x1="264.0" y1="276.0" x2="186.0" y2="238.0" stroke-width="0.5"/>
    <line stroke="black" x1="258.0" y1="461.0" x2="252.0" y2="461.0" stroke-width="0.5"/>
    <line stroke="black" x1="263.0" y1="223.0" x2="191.0" y2="199.0" stroke-width="0.5"/>
    <line stroke="black" x1="263.0" y1="169.0" x2="193.0" y2="196.0" stroke-width="0.5"/>
    <line stroke="black" x1="263.0" y1="382.0" x2="221.0" y2="356.0" stroke-width="0.5"/>
    <line stroke="black" x1="263.0" y1="328.0" x2="223.0" y2="354.0" stroke-width="0.5"/>
    <line stroke="black" x1="264.0" y1="435.0" x2="252.0" y2="461.0" stroke-width="0.5"/>
    <line stroke="black" x1="264.0" y1="489.0" x2="252.0" y2="461.0" stroke-width="0.5"/>
    <line stroke="black" x1="125.0" y1="76.0" x2="140.0" y2="141.0" stroke-width="0.5"/>
    <line stroke="black" x1="140.0" y1="141.0" x2="154.0" y2="220.0" stroke-width="0.5"/>
    <line stroke="black" x1="154.0" y1="220.0" x2="172.0" y2="322.0" stroke-width="0.5"/>
    <line stroke="black" x1="174.0" y1="324.0" x2="172.0" y2="322.0" stroke-width="0.5"/>
    <line stroke="black" x1="172.0" y1="322.0" x2="184.0" y2="236.0" stroke-width="0.5"/>
    <line stroke="black" x1="174.0" y1="324.0" x2="183.0" y2="408.0" stroke-width="0.5"/>
    <line stroke="black" x1="183.0" y1="408.0" x2="252.0" y2="461.0" stroke-width="0.5"/>
    <line stroke="black" x1="183.0" y1="408.0" x2="221.0" y2="356.0" stroke-width="0.5"/>
    <line stroke="black" x1="186.0" y1="238.0" x2="184.0" y2="236.0" stroke-width="0.5"/>
    <line stroke="black" x1="184.0" y1="236.0" x2="191.0" y2="199.0" stroke-width="0.5"/>
    <line stroke="black" x1="191.0" y1="199.0" x2="193.0" y2="196.0" stroke-width="0.5"/>
    <line stroke="black" x1="221.0" y1="356.0" x2="223.0" y2="354.0" stroke-width="0.5"/>
    <line stroke="black" x1="264.0" y1="541.0" x2="125.0" y2="76.0" stroke-width="0.5"/>
    <line stroke="black" x1="263.0" y1="117.0" x2="154.0" y2="220.0" stroke-width="0.5"/>
   </g>
  </g>
 </svg>
</svg>
