<?xml version="1.0" encoding="UTF-8"?>
<svg height="800.0" width="700.0" xmlns="http://www.w3.org/2000/svg">
 <svg>
  <g>
   <g>
    <g>
     <circle stroke="black" stroke-width="0.5" fill="#aaffff" cx="161.0" cy="665.0" r="1.0"/>
     <text stroke="none" x="161.0" y="665.0" font-size="20.0" font-family="helvetica">Haloferax volcanii ATCC 296057 (KOO421)</text>
    </g>
    <g>
     <circle stroke="black" stroke-width="0.5" fill="#aaffff" cx="162.0" cy="551.0" r="1.0"/>
     <text stroke="none" x="162.0" y="551.0" font-size="10.0" font-family="helvetica">NT1.2</text>
    </g>
    <g>
     <circle stroke="black" stroke-width="0.5" fill="#aaffff" cx="173.0" cy="582.0" r="1.0"/>
     <text stroke="none" x="173.0" y="582.0" font-size="10.0" font-family="helvetica">NT1.3</text>
    </g>
    <g>
     <circle stroke="black" stroke-width="0.5" fill="#aaffff" cx="184.0" cy="476.0" r="1.0"/>
     <text stroke="none" x="184.0" y="476.0" font-size="10.0" font-family="helvetica">NT1.4</text>
    </g>
    <g>
     <circle stroke="black" stroke-width="0.5" fill="#aaffff" cx="233.0" cy="420.0" r="1.0"/>
     <text stroke="none" x="233.0" y="420.0" font-size="10.0" font-family="helvetica">NT1.5</text>
    </g>
    <g>
     <circle stroke="black" stroke-width="0.5" fill="#aaffff" cx="233.0" cy="615.0" r="1.0"/>
     <text stroke="none" x="233.0" y="615.0" font-size="10.0" font-family="helvetica">NT1.6</text>
    </g>
    <g>
     <circle stroke="black" stroke-width="0.5" fill="#aaffff" cx="235.0" cy="404.0" r="1.0"/>
     <text stroke="none" x="235.0" y="404.0" font-size="10.0" font-family="helvetica">NT1.7</text>
    </g>
    <g>
     <circle stroke="black" stroke-width="0.5" fill="#aaffff" cx="238.0" cy="451.0" r="1.0"/>
     <text stroke="none" x="238.0" y="451.0" font-size="10.0" font-family="helvetica">NT1.8</text>
    </g>
    <g>
     <circle stroke="black" stroke-width="0.5" fill="#aaffff" cx="253.0" cy="567.0" r="1.0"/>
     <text stroke="none" x="253.0" y="567.0" font-size="20.0" font-family="helvetica">Hrr. vacuolatum JCM 9O60T (D87972)</text>
    </g>
    <g>
     <circle stroke="black" stroke-width="0.5" fill="#aaffff" cx="253.0" cy="484.0" r="1.0"/>
     <text stroke="none" x="253.0" y="484.0" font-size="10.0" font-family="helvetica">NT1.10</text>
    </g>
    <g>
     <circle stroke="black" stroke-width="0.5" fill="#aaffff" cx="258.0" cy="436.0" r="1.0"/>
     <text stroke="none" x="258.0" y="436.0" font-size="20.0" font-family="helvetica">Hrr. kocurii BG-17 (AM900832)</text>
    </g>
    <g>
     <circle stroke="black" stroke-width="0.5" fill="#aaffff" cx="260.0" cy="348.0" r="1.0"/>
     <text stroke="none" x="260.0" y="348.0" font-size="10.0" font-family="helvetica">NT1.12</text>
    </g>
    <g>
     <circle stroke="black" stroke-width="0.5" fill="#aaffff" cx="261.0" cy="404.0" r="1.0"/>
     <text stroke="none" x="261.0" y="404.0" font-size="20.0" font-family="helvetica">Hrr. lipolyticum 9-37 (DQ355814)</text>
    </g>
    <g>
     <circle stroke="black" stroke-width="0.5" fill="#aaffff" cx="273.0" cy="534.0" r="1.0"/>
     <text stroke="none" x="273.0" y="534.0" font-size="20.0" font-family="helvetica">Hrr. orientale EJ-527 (AM235786)</text>
    </g>
    <g>
     <circle stroke="black" stroke-width="0.5" fill="#aaffff" cx="274.0" cy="371.0" r="1.0"/>
     <text stroke="none" x="274.0" y="371.0" font-size="20.0" font-family="helvetica">Hrr. saccharovorum NCIMB 20817 (X82167)</text>
    </g>
    <g>
     <circle stroke="black" stroke-width="0.5" fill="#aaffff" cx="281.0" cy="469.0" r="1.0"/>
     <text stroke="none" x="281.0" y="469.0" font-size="20.0" font-family="helvetica">Hrr. Iacusprofundi ACAM 347 (X82170)</text>
    </g>
    <g>
     <circle stroke="black" stroke-width="0.5" fill="#aaffff" cx="284.0" cy="599.0" r="1.0"/>
     <text stroke="none" x="284.0" y="599.0" font-size="20.0" font-family="helvetica">Hrr. alkaliphilum DZ-1T(AY510708)</text>
    </g>
    <g>
     <circle stroke="black" stroke-width="0.5" fill="#aaffff" cx="294.0" cy="501.0" r="1.0"/>
     <text stroke="none" x="294.0" y="501.0" font-size="20.0" font-family="helvetica">Hrr. aidingense 31-hongT (DQ355813)</text>
    </g>
    <g>
     <circle stroke="black" stroke-width="0.5" fill="#aaffff" cx="294.0" cy="633.0" r="1.0"/>
     <text stroke="none" x="294.0" y="633.0" font-size="20.0" font-family="helvetica">Hrr. tibetense 8W8T (AY149598)</text>
    </g>
    <g>
     <circle stroke="black" stroke-width="0.5" fill="#aaffff" cx="328.0" cy="323.0" r="1.0"/>
     <text stroke="none" x="328.0" y="323.0" font-size="10.0" font-family="helvetica">NT1.20</text>
    </g>
    <g>
     <circle stroke="black" stroke-width="0.5" fill="#aaffff" cx="389.0" cy="339.0" r="1.0"/>
     <text stroke="none" x="389.0" y="339.0" font-size="20.0" font-family="helvetica">Hrr. arcis AJ201T</text>
    </g>
    <g>
     <circle stroke="black" stroke-width="0.5" fill="#aaffff" cx="429.0" cy="278.0" r="1.0"/>
     <text stroke="none" x="429.0" y="278.0" font-size="10.0" font-family="helvetica">NT1.22</text>
    </g>
    <g>
     <circle stroke="black" stroke-width="0.5" fill="#aaffff" cx="448.0" cy="306.0" r="1.0"/>
     <text stroke="none" x="448.0" y="306.0" font-size="20.0" font-family="helvetica">Hrr. ejinorense EJ-327 (AM491830)</text>
    </g>
    <g>
     <circle stroke="black" stroke-width="0.5" fill="#aaffff" cx="449.0" cy="257.0" r="1.0"/>
     <text stroke="none" x="449.0" y="257.0" font-size="10.0" font-family="helvetica">NT1.24</text>
    </g>
    <g>
     <circle stroke="black" stroke-width="0.5" fill="#aaffff" cx="480.0" cy="225.0" r="1.0"/>
     <text stroke="none" x="480.0" y="225.0" font-size="10.0" font-family="helvetica">NT1.25</text>
    </g>
    <g>
     <circle stroke="black" stroke-width="0.5" fill="#aaffff" cx="488.0" cy="192.0" r="1.0"/>
     <text stroke="none" x="488.0" y="192.0" font-size="10.0" font-family="helvetica">NT1.26</text>
    </g>
    <g>
     <circle stroke="black" stroke-width="0.5" fill="#aaffff" cx="492.0" cy="157.0" r="1.0"/>
     <text stroke="none" x="492.0" y="157.0" font-size="10.0" font-family="helvetica">NT1.27</text>
    </g>
    <g>
     <circle stroke="black" stroke-width="0.5" fill="#aaffff" cx="498.0" cy="240.0" r="1.0"/>
     <text stroke="none" x="498.0" y="240.0" font-size="20.0" font-family="helvetica">Hrr. trapanicum NRC 340217 (X82168)</text>
    </g>
    <g>
     <circle stroke="black" stroke-width="0.5" fill="#aaffff" cx="512.0" cy="175.0" r="1.0"/>
     <text stroke="none" x="512.0" y="175.0" font-size="20.0" font-family="helvetica">Hrr. sodomense ATCC 337557 (X82169)</text>
    </g>
    <g>
     <circle stroke="black" stroke-width="0.5" fill="#aaffff" cx="518.0" cy="124.0" r="1.0"/>
     <text stroke="none" x="518.0" y="124.0" font-size="10.0" font-family="helvetica">NT1.30</text>
    </g>
    <g>
     <circle stroke="black" stroke-width="0.5" fill="#aaffff" cx="523.0" cy="273.0" r="1.0"/>
     <text stroke="none" x="523.0" y="273.0" font-size="20.0" font-family="helvetica">Hrr. tebenquichense ALT6-92T (AJ276887)</text>
    </g>
    <g>
     <circle stroke="black" stroke-width="0.5" fill="#aaffff" cx="526.0" cy="92.0" r="1.0"/>
     <text stroke="none" x="526.0" y="92.0" font-size="10.0" font-family="helvetica">NT1.32</text>
    </g>
    <g>
     <circle stroke="black" stroke-width="0.5" fill="#aaffff" cx="527.0" cy="142.0" r="1.0"/>
     <text stroke="none" x="527.0" y="142.0" font-size="20.0" font-family="helvetica">Hrr. coriense Ch-27 (L00922)</text>
    </g>
    <g>
     <circle stroke="black" stroke-width="0.5" fill="#aaffff" cx="537.0" cy="59.0" r="1.0"/>
     <text stroke="none" x="537.0" y="59.0" font-size="10.0" font-family="helvetica">NT1.34</text>
    </g>
    <g>
     <circle stroke="black" stroke-width="0.5" fill="#aaffff" cx="548.0" cy="26.0" r="1.0"/>
     <text stroke="none" x="548.0" y="26.0" font-size="10.0" font-family="helvetica">NT1.35</text>
    </g>
    <g>
     <circle stroke="black" stroke-width="0.5" fill="#aaffff" cx="554.0" cy="110.0" r="1.0"/>
     <text stroke="none" x="554.0" y="110.0" font-size="20.0" font-family="helvetica">Hrr. xinjiangense BD1T (AY510707)</text>
    </g>
    <g>
     <circle stroke="black" stroke-width="0.5" fill="#aaffff" cx="567.0" cy="77.0" r="1.0"/>
     <text stroke="none" x="567.0" y="77.0" font-size="20.0" font-family="helvetica">Hrr. distributum JCM 91O0T (D63572)</text>
    </g>
    <g>
     <circle stroke="black" stroke-width="0.5" fill="#aaffff" cx="571.0" cy="12.0" r="1.0"/>
     <text stroke="none" x="571.0" y="12.0" font-size="20.0" font-family="helvetica">Hrr. Iitoreum Fa-17 (EFO28067)</text>
    </g>
    <g>
     <circle stroke="black" stroke-width="0.5" fill="#aaffff" cx="602.0" cy="208.0" r="1.0"/>
     <text stroke="none" x="602.0" y="208.0" font-size="20.0" font-family="helvetica">Hrr. ezzemoulense 5.17 (DQ118426)</text>
    </g>
    <g>
     <circle stroke="black" stroke-width="0.5" fill="#aaffff" cx="611.0" cy="44.0" r="1.0"/>
     <text stroke="none" x="611.0" y="44.0" font-size="20.0" font-family="helvetica">Hrr1 Ierrestre VKM B-17397 (ABO90169)</text>
    </g>
    <line stroke="black" x1="611.0" y1="44.0" x2="548.0" y2="26.0" stroke-width="0.5"/>
    <line stroke="black" x1="554.0" y1="110.0" x2="526.0" y2="92.0" stroke-width="0.5"/>
    <line stroke="black" x1="527.0" y1="142.0" x2="518.0" y2="124.0" stroke-width="0.5"/>
    <line stroke="black" x1="512.0" y1="175.0" x2="492.0" y2="157.0" stroke-width="0.5"/>
    <line stroke="black" x1="602.0" y1="208.0" x2="488.0" y2="192.0" stroke-width="0.5"/>
    <line stroke="black" x1="523.0" y1="273.0" x2="449.0" y2="257.0" stroke-width="0.5"/>
    <line stroke="black" x1="448.0" y1="306.0" x2="429.0" y2="278.0" stroke-width="0.5"/>
    <line stroke="black" x1="389.0" y1="339.0" x2="328.0" y2="323.0" stroke-width="0.5"/>
    <line stroke="black" x1="274.0" y1="371.0" x2="260.0" y2="348.0" stroke-width="0.5"/>
    <line stroke="black" x1="261.0" y1="404.0" x2="235.0" y2="404.0" stroke-width="0.5"/>
    <line stroke="black" x1="258.0" y1="436.0" x2="238.0" y2="451.0" stroke-width="0.5"/>
    <line stroke="black" x1="281.0" y1="469.0" x2="253.0" y2="484.0" stroke-width="0.5"/>
    <line stroke="black" x1="253.0" y1="567.0" x2="173.0" y2="582.0" stroke-width="0.5"/>
    <line stroke="black" x1="294.0" y1="633.0" x2="233.0" y2="615.0" stroke-width="0.5"/>
    <line stroke="black" x1="548.0" y1="26.0" x2="537.0" y2="59.0" stroke-width="0.5"/>
    <line stroke="black" x1="537.0" y1="59.0" x2="526.0" y2="92.0" stroke-width="0.5"/>
    <line stroke="black" x1="526.0" y1="92.0" x2="518.0" y2="124.0" stroke-width="0.5"/>
    <line stroke="black" x1="518.0" y1="124.0" x2="492.0" y2="157.0" stroke-width="0.5"/>
    <line stroke="black" x1="492.0" y1="157.0" x2="488.0" y2="192.0" stroke-width="0.5"/>
    <line stroke="black" x1="488.0" y1="192.0" x2="480.0" y2="225.0" stroke-width="0.5"/>
    <line stroke="black" x1="480.0" y1="225.0" x2="449.0" y2="257.0" stroke-width="0.5"/>
    <line stroke="black" x1="449.0" y1="257.0" x2="429.0" y2="278.0" stroke-width="0.5"/>
    <line stroke="black" x1="429.0" y1="278.0" x2="328.0" y2="323.0" stroke-width="0.5"/>
    <line stroke="black" x1="328.0" y1="323.0" x2="260.0" y2="348.0" stroke-width="0.5"/>
    <line stroke="black" x1="260.0" y1="348.0" x2="235.0" y2="404.0" stroke-width="0.5"/>
    <line stroke="black" x1="235.0" y1="404.0" x2="233.0" y2="420.0" stroke-width="0.5"/>
    <line stroke="black" x1="233.0" y1="420.0" x2="184.0" y2="476.0" stroke-width="0.5"/>
    <line stroke="black" x1="233.0" y1="420.0" x2="238.0" y2="451.0" stroke-width="0.5"/>
    <line stroke="black" x1="238.0" y1="451.0" x2="253.0" y2="484.0" stroke-width="0.5"/>
    <line stroke="black" x1="184.0" y1="476.0" x2="162.0" y2="551.0" stroke-width="0.5"/>
    <line stroke="black" x1="162.0" y1="551.0" x2="173.0" y2="582.0" stroke-width="0.5"/>
    <line stroke="black" x1="173.0" y1="582.0" x2="233.0" y2="615.0" stroke-width="0.5"/>
    <line stroke="black" x1="161.0" y1="665.0" x2="162.0" y2="551.0" stroke-width="0.5"/>
    <line stroke="black" x1="273.0" y1="534.0" x2="184.0" y2="476.0" stroke-width="0.5"/>
    <line stroke="black" x1="284.0" y1="599.0" x2="233.0" y2="615.0" stroke-width="0.5"/>
    <line stroke="black" x1="294.0" y1="501.0" x2="253.0" y2="484.0" stroke-width="0.5"/>
    <line stroke="black" x1="498.0" y1="240.0" x2="480.0" y2="225.0" stroke-width="0.5"/>
    <line stroke="black" x1="567.0" y1="77.0" x2="537.0" y2="59.0" stroke-width="0.5"/>
    <line stroke="black" x1="571.0" y1="12.0" x2="548.0" y2="26.0" stroke-width="0.5"/>
   </g>
  </g>
 </svg>
</svg>
